<?xml version="1.0" encoding="iso-8859-1"?>
<!-- Generator: Adobe Illustrator 29.7.1, SVG Export Plug-In . SVG Version: 9.03 Build 0)  -->
<svg version="1.1" id="Layer_1" xmlns="http://www.w3.org/2000/svg" xmlns:xlink="http://www.w3.org/1999/xlink" x="0px" y="0px"
	 viewBox="0 0 145.446 145.446" style="enable-background:new 0 0 145.446 145.446;" xml:space="preserve">
<g id="Layer_2_00000169533327414828491050000017437952500133237920_">
	<g id="Layer_1-2">
		<path style="fill-rule:evenodd;clip-rule:evenodd;fill:#102757;" d="M72.723,31.001l5.83,5.89
			c-5.73,7-46.502,45.722-61.482,46.762C37.74,68.486,56.435,50.799,72.723,31.001"/>
		<path style="fill-rule:evenodd;clip-rule:evenodd;fill:#102757;" d="M83.523,41.902l5.83,5.89
			c-6.14,7.53-44.782,42.592-61.452,43.742C50.152,75.303,68.003,60.532,83.523,41.902"/>
		<path style="fill-rule:evenodd;clip-rule:evenodd;fill:#102757;" d="M94.574,53.002l5.82,5.89
			c-6.25,7.71-40.912,36.861-58.392,38.111C64.253,80.733,79.003,71.673,94.574,53.002"/>
		<path style="fill-rule:evenodd;clip-rule:evenodd;fill:#102757;" d="M100.754,68.913l4.82-4.13c6,6.7,14.111,14.211,22.911,19.451
			C120.795,85.453,105.344,72.883,100.754,68.913"/>
		<path style="fill-rule:evenodd;clip-rule:evenodd;fill:#102757;" d="M90.404,77.693l4.83-4.13c6,6.7,15.271,11.42,24.081,16.671
			C111.714,91.434,95.014,81.683,90.404,77.693"/>
		<path style="fill-rule:evenodd;clip-rule:evenodd;fill:#102757;" d="M79.173,87.353l4.83-4.12c6,6.7,11.86,9.55,20.461,13.171
			C96.754,97.614,83.673,91.244,79.173,87.353"/>
		<polygon style="fill-rule:evenodd;clip-rule:evenodd;fill:#1B9BA7;" points="67.833,18.471 72.723,24.361 77.553,18.471 72.723,0 
					"/>
		<polygon style="fill-rule:evenodd;clip-rule:evenodd;fill:#1B9BA7;" points="88.383,21.371 89.693,28.931 96.804,26.251 
			101.814,7.83 		"/>
		<polygon style="fill-rule:evenodd;clip-rule:evenodd;fill:#1B9BA7;" points="104.744,34.211 102.114,41.422 109.614,42.672 
			123.105,29.241 		"/>
		<polygon style="fill-rule:evenodd;clip-rule:evenodd;fill:#1B9BA7;" points="112.524,53.562 106.664,58.482 112.534,63.332 
			130.905,58.482 		"/>
		<polygon style="fill-rule:evenodd;clip-rule:evenodd;fill:#1B9BA7;" points="48.582,26.291 55.752,28.931 57.002,21.401 
			43.632,7.83 		"/>
		<polygon style="fill-rule:evenodd;clip-rule:evenodd;fill:#1B9BA7;" points="35.801,42.732 43.332,41.422 40.662,34.271 
			22.341,29.241 		"/>
		<polygon style="fill-rule:evenodd;clip-rule:evenodd;fill:#1B9BA7;" points="32.921,63.402 38.782,58.482 32.911,53.622 
			14.541,58.482 		"/>
		<path style="fill:#102757;" d="M1.41,127.915h3.23c1.023-0.051,2.044,0.113,3,0.48c0.69,0.315,1.268,0.831,1.66,1.48
			c0.4,0.671,0.608,1.439,0.6,2.22c0.014,0.725-0.169,1.441-0.53,2.07c-0.367,0.643-0.908,1.17-1.56,1.52
			c0.727,0.226,1.405,0.585,2,1.06c0.456,0.411,0.817,0.916,1.06,1.48c0.263,0.592,0.396,1.233,0.39,1.88
			c0.027,1.31-0.495,2.572-1.44,3.48c-1.054,0.988-2.467,1.502-3.91,1.42h-4.5V127.915z M3,129.585v5.47h0.93
			c0.853,0.042,1.707-0.07,2.52-0.33c0.515-0.196,0.958-0.545,1.27-1c0.317-0.47,0.484-1.024,0.48-1.59
			c0.03-0.704-0.26-1.385-0.79-1.85c-0.737-0.499-1.623-0.732-2.51-0.66L3,129.585z M3,136.775v6.57h2
			c0.904,0.058,1.81-0.057,2.67-0.34c0.548-0.251,1.011-0.658,1.33-1.17c0.751-1.142,0.666-2.641-0.21-3.69
			c-0.523-0.593-1.225-1-2-1.16c-0.963-0.174-1.942-0.244-2.92-0.21L3,136.775z M18.401,127.915h9.38v1.67h-7.73v5.35h7.67v1.67
			h-7.67v6.74h7.67v1.66h-9.31L18.401,127.915z M34.531,127.915h1.65v15.431h6.32v1.66h-8L34.531,127.915z M49.022,127.915h9.38
			v1.67h-7.73v5.35h7.67v1.67h-7.67v6.74h7.67v1.66h-9.34L49.022,127.915z M65.173,145.006v-17.101h3.39
			c1.801-0.085,3.605,0.121,5.34,0.61c1.547,0.545,2.86,1.604,3.72,3c0.948,1.551,1.428,3.343,1.38,5.16
			c0.033,1.573-0.335,3.129-1.07,4.52c-0.615,1.215-1.575,2.22-2.76,2.89c-1.486,0.696-3.121,1.015-4.76,0.93L65.173,145.006z
			 M66.743,143.386h1.89c1.576,0.073,3.155-0.076,4.69-0.44c1.201-0.396,2.229-1.194,2.91-2.26c0.715-1.208,1.062-2.598,1-4
			c0.045-1.493-0.355-2.966-1.15-4.23c-0.72-1.128-1.808-1.973-3.08-2.39c-1.638-0.384-3.319-0.545-5-0.48h-1.26V143.386z
			 M85.843,127.905h1.64v1.67h-1.64V127.905z M85.843,131.285h1.64v13.721h-1.64V131.285z M93.844,127.905h1.88l4.23,7.14l4.17-7.14
			h1.88l-5.2,8.92v8.18h-1.63v-8.18L93.844,127.905z M112.574,127.905h9.43v1.67h-7.74v5.35h7.67v1.67h-7.67v6.74h7.67v1.67h-9.33
			L112.574,127.905z M127.025,141.806l1.39-0.87c0.98,1.893,2.113,2.837,3.4,2.83c0.543,0.004,1.077-0.134,1.55-0.4
			c0.461-0.25,0.842-0.624,1.1-1.08c0.254-0.433,0.386-0.928,0.38-1.43c-0.008-0.605-0.203-1.192-0.56-1.68
			c-0.796-1.047-1.743-1.971-2.81-2.74c-0.913-0.676-1.742-1.458-2.47-2.33c-0.567-0.755-0.873-1.675-0.87-2.62
			c-0.003-0.699,0.173-1.388,0.51-2c0.306-0.611,0.777-1.124,1.36-1.48c0.608-0.352,1.298-0.535,2-0.53
			c0.768-0.004,1.522,0.204,2.18,0.6c0.855,0.58,1.584,1.329,2.14,2.2l-1.32,1.07c-0.423-0.652-0.958-1.224-1.58-1.69
			c-0.429-0.268-0.924-0.41-1.43-0.41c-0.607-0.024-1.197,0.204-1.63,0.63c-0.419,0.405-0.651,0.967-0.64,1.55
			c0.002,0.372,0.08,0.74,0.23,1.08c0.204,0.425,0.482,0.811,0.82,1.14c0.21,0.21,0.92,0.78,2.12,1.7
			c1.133,0.803,2.123,1.79,2.93,2.92c0.502,0.764,0.776,1.656,0.79,2.57c-0.027,2.55-2.1,4.605-4.65,4.61
			c-0.969,0.008-1.916-0.286-2.71-0.84c-0.948-0.738-1.703-1.696-2.2-2.79L127.025,141.806z M143.776,127.905h1.64v1.67h-1.61
			L143.776,127.905z M143.776,131.285h1.64v13.721h-1.61L143.776,131.285z"/>
		<path style="fill:#102757;" d="M7.36,101.814H11l7.32,19.851h-3.75l-1.49-4.09H5.29l-1.52,4.09H0L7.36,101.814z M9.19,107.084
			l-2.58,6.84h5.15L9.19,107.084z M21.631,101.814h4.29c2.108-0.123,4.217,0.244,6.16,1.07c1.431,0.805,2.587,2.021,3.32,3.49
			c0.898,1.738,1.345,3.674,1.3,5.63c0.016,1.439-0.228,2.868-0.72,4.22c-0.432,1.194-1.114,2.282-2,3.19
			c-0.778,0.794-1.73,1.396-2.78,1.76c-1.704,0.395-3.453,0.557-5.2,0.48h-4.37L21.631,101.814z M25.231,105.464v12.54h1.68
			c1.23,0.08,2.462-0.125,3.6-0.6c0.808-0.454,1.45-1.155,1.83-2c0.504-1.082,0.747-2.267,0.71-3.46
			c0.115-1.806-0.493-3.583-1.69-4.94c-1.02-1.04-2.653-1.56-4.9-1.56L25.231,105.464z M40.352,101.814h3.65v19.851h-3.6
			L40.352,101.814z M47.122,101.814h3.88l3.53,7.13l3.54-7.13h3.87l-5.58,11.25v8.6h-3.66v-8.6L47.122,101.814z M71.193,101.814
			h3.64l7.32,19.851h-3.76l-1.49-4.09h-7.79l-1.52,4.09h-3.77L71.193,101.814z M73.003,107.084l-2.58,6.84h5.14L73.003,107.084z
			 M87.233,101.814h3.51l4.43,13.851l4.45-13.851h3.5l3.19,19.851h-3.49l-2-12.54l-4,12.54h-3.2l-4-12.54l-2.12,12.54h-3.5
			L87.233,101.814z M115.524,101.814h3.65l7.32,19.851h-3.77l-1.48-4.09h-7.8l-1.52,4.09h-3.77L115.524,101.814z M117.355,107.084
			l-2.58,6.84h5.14L117.355,107.084z M129.785,101.814h3.44l8.19,13.061v-13.061h3.59v19.851h-3.47l-8.16-13.001v13.001h-3.57
			L129.785,101.814z"/>
	</g>
</g>
</svg>
