<?xml version="1.0" encoding="iso-8859-1"?>
<!-- Generator: Adobe Illustrator 29.7.1, SVG Export Plug-In . SVG Version: 9.03 Build 0)  -->
<svg version="1.1" id="katman_1" xmlns="http://www.w3.org/2000/svg" xmlns:xlink="http://www.w3.org/1999/xlink" x="0px" y="0px"
	 viewBox="0 0 800 600" style="enable-background:new 0 0 800 600;" xml:space="preserve">
<path style="fill-rule:evenodd;clip-rule:evenodd;fill:#0F2655;" d="M181,268.6c3.5,3.5,6.9,7,10.4,10.5
	c-10.2,12.5-82.8,81.4-109.5,83.3C121.6,333.5,153.4,301.8,181,268.6"/>
<path style="fill-rule:evenodd;clip-rule:evenodd;fill:#102757;" d="M200.3,288c3.5,3.5,6.9,7,10.4,10.5
	c-10.9,13.4-79.7,75.8-109.4,77.9C140.9,347.5,172.6,321.2,200.3,288"/>
<path style="fill-rule:evenodd;clip-rule:evenodd;fill:#102757;" d="M219.9,307.8c3.5,3.5,6.9,7,10.4,10.5
	c-11.1,13.7-72.8,65.6-104,67.7C166,357.1,192.3,341,219.9,307.8"/>
<path style="fill-rule:evenodd;clip-rule:evenodd;fill:#102757;" d="M230.9,336.1c2.9-2.4,5.7-4.9,8.6-7.3
	c10.7,11.9,25.1,25.3,40.8,34.6C266.6,365.5,239.1,343.1,230.9,336.1"/>
<path style="fill-rule:evenodd;clip-rule:evenodd;fill:#102757;" d="M212.5,351.7c2.9-2.4,5.7-4.9,8.6-7.3
	c10.7,11.9,27.2,20.3,42.9,29.7C250.5,376.2,220.7,358.8,212.5,351.7"/>
<path style="fill-rule:evenodd;clip-rule:evenodd;fill:#102757;" d="M192.5,368.9c2.9-2.4,5.7-4.9,8.6-7.3
	c10.7,11.9,21.1,17,36.4,23.4C223.8,387.2,200.5,375.8,192.5,368.9"/>
<polygon style="fill-rule:evenodd;clip-rule:evenodd;fill:#1B9AA6;" points="172.3,246.3 181,256.8 189.6,246.3 181,213.4 "/>
<polygon style="fill-rule:evenodd;clip-rule:evenodd;fill:#1B9AA6;" points="208.9,251.4 211.3,264.9 223.9,260.1 232.8,227.3 "/>
<polygon style="fill-rule:evenodd;clip-rule:evenodd;fill:#1B9AA6;" points="238.1,274.3 233.4,287.1 246.7,289.4 270.8,265.4 "/>
<polygon style="fill-rule:evenodd;clip-rule:evenodd;fill:#1B9AA6;" points="251.9,308.7 241.5,317.5 251.9,326.1 284.6,317.5 "/>
<polygon style="fill-rule:evenodd;clip-rule:evenodd;fill:#1B9AA6;" points="138.1,260.2 150.8,264.9 153.1,251.5 129.2,227.3 "/>
<polygon style="fill-rule:evenodd;clip-rule:evenodd;fill:#1B9AA6;" points="115.3,289.5 128.7,287.1 124,274.4 91.3,265.4 "/>
<polygon style="fill-rule:evenodd;clip-rule:evenodd;fill:#1B9AA6;" points="110.2,326.3 120.6,317.5 110.2,308.9 77.5,317.5 "/>
<path style="fill:#102757;" d="M311.7,312.1h9.2c3.7,0,6.6,0.5,8.5,1.4c2,0.9,3.6,2.4,4.7,4.3c1.2,1.9,1.7,4.1,1.7,6.4
	c0,2.2-0.5,4.2-1.5,6s-2.5,3.3-4.4,4.4c2.4,0.9,4.3,1.9,5.6,3.1c1.3,1.2,2.3,2.6,3,4.3c0.7,1.7,1.1,3.5,1.1,5.4
	c0,4-1.4,7.4-4.1,10.1c-2.7,2.8-6.4,4.1-11,4.1h-12.8L311.7,312.1L311.7,312.1z M316.2,317v15.9h2.7c3.2,0,5.6-0.3,7.2-1
	c1.5-0.6,2.7-1.7,3.6-3c0.9-1.4,1.3-2.9,1.3-4.6c0-2.3-0.7-4.1-2.2-5.4s-3.9-1.9-7.2-1.9H316.2z M316.2,337.8v19.1h5.8
	c3.4,0,5.9-0.4,7.5-1.1s2.9-1.8,3.8-3.3c1-1.5,1.5-3.1,1.5-4.9c0-2.2-0.7-4.1-2-5.8c-1.4-1.6-3.2-2.8-5.6-3.4
	c-1.6-0.4-4.4-0.6-8.3-0.6L316.2,337.8L316.2,337.8z M360.1,312.1h26.7v4.8h-22v15.6h21.8v4.8h-21.8v19.6h21.8v4.8h-26.5V312.1z
	 M406.1,312.1h4.7v44.8h18v4.8h-22.7V312.1z M447.3,312.1H474v4.8h-22v15.6h21.8v4.8H452v19.6h21.8v4.8h-26.5V312.1z M493.3,361.8
	v-49.6h9.7c7,0,12,0.6,15.2,1.8c4.5,1.7,8.1,4.6,10.6,8.8c2.5,4.2,3.8,9.1,3.8,14.9c0,5-1,9.3-3,13.1c-2,3.8-4.6,6.6-7.9,8.4
	c-3.2,1.8-7.8,2.7-13.6,2.7h-14.8V361.8z M497.8,357.1h5.4c6.4,0,10.9-0.4,13.4-1.3c3.5-1.2,6.3-3.4,8.3-6.6s3-7,3-11.6
	c0-4.8-1.1-8.9-3.3-12.3s-5.2-5.7-9.1-7c-2.9-0.9-7.7-1.4-14.4-1.4h-3.3L497.8,357.1L497.8,357.1z M552.2,312.1h4.7v4.8h-4.7V312.1z
	 M552.2,321.9h4.7v39.8h-4.7V321.9z M575.1,312.1h5.3l12.1,20.7l11.9-20.7h5.3L594.9,338v23.7h-4.7V338L575.1,312.1z M628.4,312.1
	h26.7v4.8h-22v15.6H655v4.8h-21.8v19.6H655v4.8h-26.5v-49.6H628.4z M669.6,352.5l4-2.5c2.8,5.5,6,8.2,9.7,8.2c1.6,0,3-0.4,4.4-1.2
	c1.4-0.8,2.4-1.8,3.1-3.1c0.7-1.3,1.1-2.7,1.1-4.1c0-1.7-0.5-3.3-1.6-4.9c-1.5-2.2-4.1-4.9-8-8s-6.3-5.4-7.3-6.8
	c-1.7-2.3-2.5-4.9-2.5-7.6c0-2.2,0.5-4.1,1.5-5.9s2.3-3.2,4.1-4.2s3.7-1.5,5.8-1.5c2.2,0,4.3,0.6,6.2,1.7c1.9,1.2,4,3.3,6.1,6.4
	l-3.8,3.1c-1.8-2.5-3.3-4.1-4.5-4.9s-2.6-1.2-4.1-1.2c-1.9,0-3.4,0.6-4.6,1.8c-1.2,1.2-1.8,2.7-1.8,4.5c0,1.1,0.2,2.1,0.6,3.1
	c0.4,1,1.2,2.1,2.3,3.3c0.6,0.6,2.6,2.3,6.1,5c4.1,3.2,6.8,6,8.3,8.5s2.3,5,2.3,7.5c0,3.6-1.3,6.7-3.9,9.4c-2.6,2.7-5.7,4-9.4,4
	c-2.8,0-5.4-0.8-7.7-2.4C673.7,359,671.6,356.3,669.6,352.5z M717.3,312.1h4.7v4.8h-4.7V312.1z M717.3,321.9h4.7v39.8h-4.7V321.9z"
	/>
<path style="fill:#102757;" d="M328.6,236.4H339l20.9,57.6h-10.7l-4.2-11.9h-22.2l-4.3,11.9h-10.7L328.6,236.4z M333.8,251.7
	l-7.3,19.8h14.7L333.8,251.7z M369.3,236.4h12.2c7.9,0,13.7,1,17.6,3.1c3.8,2.1,7,5.4,9.5,10.1c2.5,4.7,3.7,10.1,3.7,16.4
	c0,4.4-0.7,8.5-2.1,12.2s-3.3,6.8-5.7,9.3c-2.4,2.4-5.1,4.1-7.9,5.1c-2.8,0.9-7.8,1.4-14.8,1.4h-12.4v-57.6H369.3z M379.5,247v36.4
	h4.8c4.7,0,8.1-0.6,10.3-1.7c2.1-1.2,3.9-3.1,5.2-5.8c1.3-2.7,2-6.1,2-10c0-6.1-1.6-10.9-4.8-14.2c-2.9-3-7.5-4.5-13.9-4.5h-3.6V247
	z M422.6,236.4h10.3V294h-10.3V236.4z M441.9,236.4h11l10.1,20.7l10.1-20.7h11l-15.9,32.7v25h-10.4v-25L441.9,236.4z M510.5,236.4
	h10.4l20.9,57.6H531l-4.2-11.9h-22.2l-4.3,11.9h-10.7L510.5,236.4z M515.7,251.7l-7.3,19.8H523L515.7,251.7z M556.2,236.4h10
	l12.6,40.2l12.7-40.2h10l9.1,57.6h-9.9l-5.8-36.4L583.4,294h-9.1l-11.4-36.4L557,294h-10.1L556.2,236.4z M636.8,236.4h10.4
	l20.9,57.6h-10.7l-4.2-11.9H631l-4.3,11.9H616L636.8,236.4z M642,251.7l-7.3,19.8h14.7L642,251.7z M677.5,236.4h9.8l23.3,37.9v-37.9
	h10.3V294H711l-23.3-37.8V294h-10.3v-57.6H677.5z"/>
</svg>
