<?xml version="1.0" encoding="iso-8859-1"?>
<!-- Generator: Adobe Illustrator 29.7.1, SVG Export Plug-In . SVG Version: 9.03 Build 0)  -->
<svg version="1.1" id="Layer_1" xmlns="http://www.w3.org/2000/svg" xmlns:xlink="http://www.w3.org/1999/xlink" x="0px" y="0px"
	 viewBox="0 0 1920 1080" style="enable-background:new 0 0 1920 1080;" xml:space="preserve">
<g>
	<path style="fill:none;stroke:#E92E92;stroke-width:0.5669;stroke-miterlimit:22.9256;" d="M958.996,289.283
		c139.016,0,251.713,112.698,251.713,251.713c0,139.015-112.697,251.713-251.713,251.713S707.283,680.012,707.283,540.996
		C707.283,401.981,819.981,289.283,958.996,289.283L958.996,289.283z"/>
	<path style="fill-rule:evenodd;clip-rule:evenodd;fill:#5CB9E4;" d="M958.996,294.953c135.887,0,246.045,110.157,246.045,246.043
		S1094.883,787.04,958.996,787.04c-135.885,0-246.043-110.157-246.043-246.043S823.112,294.953,958.996,294.953L958.996,294.953z"/>
	<path style="fill-rule:evenodd;clip-rule:evenodd;fill:#ED1C24;" d="M958.996,303.936c130.926,0,237.061,106.135,237.061,237.06
		s-106.135,237.06-237.061,237.06c-130.924,0-237.059-106.135-237.059-237.06S828.073,303.936,958.996,303.936L958.996,303.936z
		 M1063.127,394.877l-10.549,10.843c-26.078-19.984-58.734-31.875-94.184-31.875c-35.18,0-67.607,11.71-93.584,31.418l-0.018,0
		l-10.195-10.98c-40.162,31.025-66.029,79.61-66.029,134.233c0,93.685,76.07,169.632,169.906,169.632
		c93.834,0,169.904-75.947,169.904-169.632C1128.379,474.243,1102.848,425.927,1063.127,394.877L1063.127,394.877z"/>
	<path style="fill-rule:evenodd;clip-rule:evenodd;fill:#FFFFFF;" d="M1064.877,393.079c39.98,31.385,65.65,80.042,65.65,134.671
		c0,94.659-77.066,171.395-172.133,171.395S786.262,622.409,786.262,527.75c0-55.041,26.062-104.017,66.564-135.376l2.854,3.073v0
		l0.029,0.032l9.084,9.783l0.018,0l-3.371,2.95l-9.078-10.142c-37.781,30.664-61.914,77.363-61.914,129.68
		c0,92.357,75.191,167.228,167.947,167.228c92.754,0,167.947-74.87,167.947-167.228c0-52.198-24.021-98.805-61.654-129.472
		l-9.324,9.779l-2.785-2.337L1064.877,393.079L1064.877,393.079z"/>
	<path style="fill-rule:evenodd;clip-rule:evenodd;fill:#FFFFFF;" d="M809.043,519.978c-1.566,0.399-2.156-1.418-0.672-2.532
		c24.379-16.883,47.201-38.663,70.039-60.39c0.646-0.615,1.34-0.996,2.205-1.21c2.58-0.641,5.27-0.813,8.053-0.555
		c1.125,0.104,2.123-0.135,3.078-0.738c12.818-8.083,25.318-16.262,41.855-23.252c0.186-0.079,0.35-0.136,0.545-0.193
		c2.729-0.792,3.818-0.461,4.91-0.134c0.129,0.573,0.258,1.145,0.387,1.717c6.416-0.152,10.457,0.427,13.473,1.322
		c0.744,0.221,1.34,0.557,1.914,1.08c18.545,16.894,40.664,31.108,65.965,42.934c0.727,0.339,1.418,0.483,2.219,0.461
		c1.596-0.043,3.193-0.088,4.787-0.132c1.15-0.031,2.131-0.401,3.016-1.138c5.592-4.657,11.404-9.22,19.318-12.869
		c0.635-0.292,1.227-0.431,1.926-0.45c0.943-0.025,1.889-0.052,2.832-0.078c0.732-0.02,1.354-0.172,2.012-0.491
		c3.848-1.866,7.695-3.733,11.543-5.599c0.678-0.329,1.322-0.481,2.074-0.493c1.619-0.023,3.236-0.047,4.855-0.071
		c0.102-0.002,0.189,0,0.291,0.004c0.045,0.002,0.09,0.004,0.135,0.006c0.922,0.04,1.703,0.29,2.477,0.794
		c5.926,3.863,10.926,7.896,14.949,12.103c1.701,1.778,2.182,2.495,4.268,3.885c2.664,1.777,2.211,1.428,5.365,1.682
		c2.428,0.198,3.893,0.541,7.182,1.836c3.447,1.359,4.543,1.836,4.859,5.571c0.076,0.901,0.154,1.803,0.23,2.705
		c0.291,3.407-0.121,2.77-4.111,2.546c-2.387-0.133-3.037-0.708-4.715-2.673c-3.52-4.123-2.652-3.337-8.02-3.543
		c-1.805-0.07-3.611-0.14-5.414-0.21c-1.391-0.053-2.568-0.61-3.49-1.651c-2.613-2.943-5.225-5.888-7.838-8.831
		c-1.471-1.658-1.672-1.117-3.936-0.917c-0.068,0.006-0.127,0.012-0.193,0.021c-1.764,0.226-1.693-0.158-1.691,1.543
		c0,1.438-0.004,2.875-0.008,4.313c-0.012,2.729-0.193,1.5,1.604,3.135c1.191,1.081,1.953,2.41,2.619,3.795
		c0.055,0.116,0.1,0.217,0.146,0.338c0.701,1.794,0.545,2.438-0.012,2.549c-1.617-1.941-3.234-3.883-4.854-5.824
		c-1.352-1.416-4.139-0.959-1.955,2.394c0.906,1.39,2.135,2.714,3.047,3.915c-0.201,0.63-0.863,0.706-2.123,0.061
		c-1.18-0.828-2.24-1.742-2.955-2.905c-1.146-1.86-0.848-3.349-0.807-5.423c0.031-1.607,0.062-3.214,0.094-4.822
		c0.031-1.634,0.223-1.533-1.096-1.396c-0.844,0.086-0.613-0.778-0.725-1.692c-0.062-0.524-1.029,0.337-1.416,0.595
		c-3.057,2.036-5.561,4.683-7.609,7.834c-0.174-1.358-0.348-2.715-0.523-4.073c-1.088,0.649-2.176,1.299-3.264,1.948
		c-1.688,1.007-2.58,2.792-2.373,4.745c0.209,1.954,1.455,3.512,3.316,4.142c7.84,2.654,15.68,5.308,23.52,7.962
		c1.9,0.659,1.688,1.58-0.209,1.567c-7.162-0.134-14.326-0.267-21.49-0.4c-0.66-0.013-1.223-0.132-1.83-0.39
		c-13.082-5.548-27.383-9.181-43.049-12.145c0.211,0.613,0.559,0.951,0.879,1.348c0.578,0.719,1.242,1.2,2.107,1.524
		c4.209,1.579,8.422,3.158,12.633,4.738c1.947,1.871-0.037,4.993-4.625,3.741c-0.555-0.151-1.006-0.36-1.479-0.683
		c-4.314-2.946-8.627-5.892-12.939-8.839c-0.896-0.612-1.836-0.887-2.92-0.855c-1.334,0.038-2.668,0.077-4.002,0.116
		c-1.088,0.031-2.014,0.364-2.873,1.031c-1.596,1.238-3.191,2.477-4.789,3.715c2.803,0.177,5.604,0.354,8.406,0.531
		c1.098,0.069,2.023,0.441,2.865,1.152c3.188,2.694,5.008,5.747,6.586,8.864c0.176,0.368,0.6,2.024-1.244,1.005
		c-0.094-0.052-0.176-0.094-0.271-0.14c-6.713-3.186-13.426-6.374-20.139-9.56c-0.266-0.126-0.482-0.253-0.723-0.422
		c-2.393-1.684-4.785-3.369-7.176-5.054c-0.133,0.664-0.266,1.328-0.398,1.991c-7.797,0.054-16.707-3.791-23.633-9.293
		c-0.441,1.018-0.885,2.036-1.328,3.053c-4.631-2.717-8.945-5.608-11.814-9.294c-0.152,0.256-0.303,0.513-0.453,0.77
		c-0.771,1.312-0.902,2.755-0.381,4.185c1.441,3.94,5.801,7.23,10.037,10.549c0.973,0.761,2.053,1.103,3.287,1.04
		c2.102-0.107,4.273,0.168,6.361,0.583c0.105,0.3,0.166,0.6,0.193,0.9c0.164,1.761,1.154,3.194,2.742,3.969
		c6.424,3.133,11.17,6.568,14.457,10.266c-14.752-3.468-26.576-9.321-34.043-18.722c-0.719-0.903-1.604-1.466-2.727-1.73
		c-0.668-0.157-1.336-0.315-2.004-0.472c-1.904-0.448-3.289-1.868-3.689-3.782c-0.012-0.055-0.023-0.112-0.035-0.168
		c-0.324-1.548-1.26-2.742-2.686-3.427c-3.332-1.601-6.047-3.634-7.602-6.479c-0.303-0.554-0.473-1.076-0.557-1.701
		c-0.275-2.045-0.551-4.091-0.826-6.135c-1.037-0.126-2.074-0.253-3.111-0.379c-1.525-0.186-2.916,0.281-4.02,1.351
		c-1.742,1.688-3.484,3.376-5.225,5.063c-1.121,1.087-1.631,2.49-1.469,4.043c0.137,1.331,0.275,2.663,0.414,3.995
		c0.16,0.022,0.318,0.044,0.477,0.066c2.473,0.344,4.277,2.446,4.244,4.942c-0.043,3.113-0.086,6.228-0.129,9.34
		c-0.057,4.054,0.377,5.505-1.689,9.163c-1.613,2.861-3.859,5.067-7.086,6.252c-2.912,1.069-2.332,0.72-1.633-1.747
		c0.623-2.19,1.293-4.454,2.506-6.977c0.312-0.649,0.66-1.317,1.053-2.003c0.455-0.795,0.66-1.583,0.648-2.499
		c-0.01-0.872-0.02-1.752-0.029-2.637c-0.033-3.314-0.062-6.718-0.086-10.182c-0.797,0.044-1.594,0.089-2.391,0.133
		c-2.26,8.79-6.004,17.242-11.816,25.225c-2.656,2.789-7.928,0.115-4.453-4.116c0.047-0.056,0.086-0.105,0.129-0.163
		c4.336-5.761,8.148-11.151,10.131-19.173c0.117-0.48,0.16-0.904,0.139-1.398c-0.256-5.789-0.512-11.579-0.768-17.369
		c-0.461,1.346-0.996,2.605-1.602,3.778c-0.867,1.682-2.492,2.669-4.385,2.664c-1.893-0.004-3.512-1-4.373-2.686
		c-0.451-0.886-0.768-1.867-0.926-2.96c-0.459,0.033-0.918,0.066-1.377,0.098c-1.518,0.108-2.779,0.817-3.66,2.056
		c-5.477,7.698-12.182,15.502-20.338,23.433c-0.207,0.2-0.396,0.356-0.633,0.519c-2.02,1.398-4.486,2.395-7.414,2.97
		c-1.002,0.197-1.811,0.627-2.531,1.349c-2.898,2.899-5.799,5.799-8.699,8.698c-1.527,0.939-3.842-0.255-1.961-2.414
		c4.156-4.303,8.312-8.607,12.469-12.909c0.525-0.542,0.869-1.107,1.115-1.82c0.984-2.866-0.576-6.017-3.627-3.676
		c-10.34,9.487-20.682,18.974-31.021,28.462c-0.041,0.036-0.074,0.068-0.113,0.106C820.537,514.244,814.893,517.516,809.043,519.978
		L809.043,519.978z M871.821,467.45c-3.164,1.585-5.783,3.905-7.289,7.541c-1.324,3.198-1.283,3.774,1.803,2.547
		c4.035-1.605,6.842-4.064,8.189-7.706C875.742,466.536,874.727,465.994,871.821,467.45L871.821,467.45z"/>
	<path style="fill-rule:evenodd;clip-rule:evenodd;fill:#331E07;" d="M872.791,583.386c-0.01-1.718-0.043-3.463,0.043-5.166
		c0.068-1.34,0.23-2.674,0.807-3.902c0.879-1.866,2.723-3.326,4.309-4.577l0.602-0.475l0.617,0.455
		c1.621,1.198,3.381,2.569,4.297,4.412c0.584,1.172,0.799,2.441,0.91,3.734c0.127,1.478,0.141,3.001,0.158,4.5l35.521,0.123
		l6.059,2.355l4.436-5.127l6.463-0.543l0.039,3.448l1.35-0.002l-0.064-6.379c-0.02-1.948-0.156-1.489,0.834-3.157
		c2.57-4.327,6.258-7.782,10.826-9.965c-0.035-6.43-0.072-12.861-0.107-19.291l-1.715,0.001l0.023-5.196l1.662,0
		c0.441-5.816,2.271-11.48,4.695-16.757l0.832-1.813l0.961,1.749c2.836,5.165,3.592,11.116,4.637,16.835l1.66,0.007l0.025,5.165
		l-1.67,0.008l-0.021,24.734c1.729,1.189,2.393,2.713,2.943,4.621c1.947,0.027,3.893,0.055,5.838,0.081
		c0.59-1.527,1.537-2.752,3.004-3.649l0.463-0.284l0.492,0.234c2.172,1.035,3.262,3.029,3.875,5.269l0.027,0.1l0.008,0.104
		c0.059,0.955,0.117,1.91,0.176,2.865c0.561,0,1.121,0,1.68,0c0.26-2.122,1.391-3.938,3.057-5.331l0.508-0.425l0.592,0.3
		c2.389,1.214,3.234,3.029,3.91,5.491l0.035,0.127l0.109,15.879l1.365,0.053c0.188-1.344,0.496-2.701,1.049-3.926
		c0.547-1.213,1.322-2.263,2.412-3.04l0.658-0.47l0.6,0.543c0.902,0.819,1.627,1.763,2.201,2.837c0.688,1.287,1.102,2.65,1.496,4.04
		l7.934,4.451l0.262,3.742l3.426,0.123l0.104-3.979l40.775,10.885l0.172,5.235l39.545,9.65l0.094,18.987l-27.18,9.287
		l-79.348,15.966l-120.035-10.648l-27.369-15.441l0.721-30.055l15.26-2.161v-19.568l0.656-0.243
		c5.723-2.118,11.447-4.237,17.172-6.355l0.102-0.038l0.105-0.015C870.844,583.665,871.819,583.525,872.791,583.386L872.791,583.386
		z"/>
	<path style="fill-rule:evenodd;clip-rule:evenodd;fill:#553A1C;" d="M863.53,656.698l-26.654-15.039l0.686-28.601l15.279-2.164
		v-19.742c5.725-2.118,11.449-4.237,17.174-6.355c1.262-0.18,2.523-0.361,3.785-0.541c0-8.931-0.439-9.617,4.771-13.726
		c5.006,3.698,4.848,4.879,4.971,12.839l36.324,0.126l6.545,2.545l4.629-5.353l4.98-0.419l0.037,3.363l3.359-0.006l-0.07-6.932
		c-0.018-1.786-0.162-1.684,0.775-3.24c2.365-3.922,5.93-7.482,10.883-9.693c-0.039-6.979-0.078-13.958-0.117-20.936l-1.705,0.001
		l0.016-3.187h1.605c0.289-5.869,2.078-11.71,4.664-17.342c2.898,5.278,3.607,11.677,4.684,17.352l1.494,0.007l0.016,3.165
		l-1.664,0.008l-0.023,26.286c2.193,1.281,2.676,3.176,3.184,5.063c2.439,0.034,4.879,0.068,7.32,0.102
		c0.447-1.506,1.24-2.845,2.811-3.807c1.824,0.87,2.773,2.566,3.338,4.627c0.078,1.269,0.156,2.539,0.234,3.807
		c1.191,0,2.383,0,3.574,0c-0.023-2.348,1.143-4.219,2.752-5.564c2.137,1.084,2.811,2.724,3.398,4.861l0.113,16.707l3.248,0.126
		c0.176-1.684,0.49-3.244,1.08-4.552c0.482-1.07,1.148-1.972,2.078-2.635c0.877,0.794,1.508,1.66,1.992,2.566
		c0.721,1.352,1.121,2.798,1.527,4.24l7.824,4.389l0.287,4.103l5.342,0.191l0.096-3.721l38.826,10.364l0.172,5.252l39.523,9.645
		l0.086,17.48l-26.434,9.032l-79.141,15.925L863.53,656.698L863.53,656.698z"/>
	<path style="fill-rule:evenodd;clip-rule:evenodd;fill:#331E07;" d="M981.539,616.054l0.1-6.906l30.625-5.117v27.72l-30.725,4.834
		v1.511h-2.887v-23.119c0-1.833-1.5-3.334-3.334-3.334l0,0c-1.832,0-3.334,1.501-3.334,3.334v23.119h-4.873v-24.498
		c0-2.004,0.826-3.823,2.156-5.134l-3.107,2.331v10.414l-32.373-9.487l-16.461,2.127l-0.094-16.114l9.986-0.091l0.244-9.74
		l28.496-0.15l0.326,11.47l-6.227-0.916v-7.118l-3.801-0.317l0.123,7.487l22.852,6.184l0.322,3.651
		c1.273-1.126,2.945-1.812,4.77-1.812c3.971,0,7.215,3.245,7.215,7.214V616.054L981.539,616.054z M870.891,589.322h1.801v12.959
		h3.91l5.711,3.441h4.07l7.107-4.909l10.318,0.16v16.944l-10.713,2.251l-5.143-0.154l-23.111-12.267l-0.232-20.027l6.355-0.094
		L870.891,589.322L870.891,589.322z M915.596,592.47v23.231h-9.611V592.47H915.596L915.596,592.47z M935.098,592.49l0.094,16.232
		l6.992,1.908l-0.242-16.84L935.098,592.49L935.098,592.49z"/>
	<path style="fill-rule:evenodd;clip-rule:evenodd;fill:#FFFFFF;" d="M865.506,607.343l-0.219-18.963l4.979-0.073l-0.074,1.684
		h1.832v12.959h4.393l5.711,3.441h4.465l7.102-4.906l9.445,0.147v15.741l-10.104,2.124l-4.906-0.147L865.506,607.343
		L865.506,607.343z M914.926,593.139h-8.273v21.892h8.273V593.139L914.926,593.139z M933.84,611.041l31.65,9.275v-9.855l3.369-2.527
		l-0.252-2.864l-22.889-6.194l-0.143-8.73l5.152,0.43v7.156l4.865,0.716l-0.285-10.019l-27.193,0.143l-0.244,9.738l-9.965,0.09
		l0.086,14.689L933.84,611.041L933.84,611.041z M934.424,591.68l8.18,1.554l0.262,18.276l-8.34-2.277L934.424,591.68L934.424,591.68
		z M975.319,610.975L975.319,610.975c2.203,0,4.004,1.802,4.004,4.004v22.449h1.547v-23.829c0-3.601-2.945-6.545-6.545-6.545l0,0
		c-3.598,0-6.543,2.944-6.543,6.545v23.829h3.533v-22.449C971.315,612.776,973.117,610.975,975.319,610.975L975.319,610.975z
		 M982.301,609.716l29.293-4.895v26.357l-29.67,4.669L982.301,609.716L982.301,609.716z"/>
	<path style="fill-rule:evenodd;clip-rule:evenodd;fill:#331E07;" d="M967.766,588.858h-9.781v-2.976
		c0-1.638,1.338-2.975,2.977-2.975h3.83c1.637,0,2.975,1.338,2.975,2.975V588.858L967.766,588.858z M958.916,589.794h5.336v7.55
		h-5.336V589.794L958.916,589.794z"/>
	<path style="fill-rule:evenodd;clip-rule:evenodd;fill:#FFFFFF;" d="M967.098,588.188h-8.443v-2.306
		c0-1.268,1.037-2.306,2.307-2.306h3.83c1.268,0,2.307,1.038,2.307,2.306V588.188L967.098,588.188z M959.586,590.464h3.996v6.211
		h-3.996V590.464L959.586,590.464z"/>
	<path style="fill-rule:evenodd;clip-rule:evenodd;fill:#FFFFFF;" d="M882.864,581.86h-8.395v-4.075
		c0-2.241,1.834-4.074,4.074-4.074h0.246c2.24,0,4.074,1.833,4.074,4.074V581.86L882.864,581.86z"/>
	<path style="fill-rule:evenodd;clip-rule:evenodd;fill:#FFFFFF;" d="M942.233,573.468c2.285-3.478,4.998-6.437,9.227-8.091
		c4.955,1.9,8.287,5.571,9.371,9.9c-0.037,1.643-0.072,3.286-0.109,4.929c-6.566,0.037-13.131,0.073-19.697,0.11
		c0.006-1.033,0.01-2.066,0.014-3.1C941.045,575.069,941.031,575.299,942.233,573.468L942.233,573.468z"/>
	<path style="fill-rule:evenodd;clip-rule:evenodd;fill:#FFFFFF;" d="M973.184,573.45L973.184,573.45
		c1.002,0,1.822,0.82,1.822,1.822v3.262h-3.645v-3.262C971.362,574.27,972.182,573.45,973.184,573.45L973.184,573.45z"/>
	<polygon style="fill-rule:evenodd;clip-rule:evenodd;fill:#FFFFFF;" points="982.25,576.471 984.791,576.471 984.791,579.973 
		982.25,579.973 982.25,576.471 	"/>
	<polygon style="fill-rule:evenodd;clip-rule:evenodd;fill:#FFFFFF;" points="964.36,578.582 970.258,578.582 970.258,580.26 
		964.36,580.26 964.36,578.582 	"/>
	<polygon style="fill-rule:evenodd;clip-rule:evenodd;fill:#FFFFFF;" points="976.86,578.907 983.52,578.907 983.52,579.973 
		976.86,579.973 976.86,578.907 	"/>
	<path style="fill-rule:evenodd;clip-rule:evenodd;fill:#FFFFFF;" d="M955.406,527.531L955.406,527.531
		c1.875,0,3.408,5.404,3.408,7.206v5.122h1.596v2.708h-1.596v19.416H952v-19.416h-1.539v-2.708H952v-5.122
		C952,532.934,953.531,527.531,955.406,527.531L955.406,527.531z"/>
	<path style="fill-rule:evenodd;clip-rule:evenodd;fill:#331E07;" d="M933.684,654.319v-26.691l43.512,15.54v19.107l-15.898-2.907
		V644.43c0-1.181-0.967-2.328-2.141-2.494l-1.693-0.24c-1.104-0.156-1.953,0.616-1.953,1.722v14.893l-13.186-2.411v-14.762
		c0-1.181-0.967-2.328-2.141-2.494l-1.691-0.24c-1.104-0.156-1.953,0.617-1.953,1.722v14.716L933.684,654.319L933.684,654.319z
		 M847.989,629.195h2.021l-0.191-10.433l83.775,8.206l-0.268,21.7l0.031,4.319l-12.184-0.916v-15.67c0-1.517-1.244-2.76-2.762-2.76
		h-2.135c-1.518,0-2.762,1.243-2.762,2.76v15.095l-9.379-0.705v-15.002c0-1.517-1.242-2.76-2.76-2.76h-2.137
		c-1.518,0-2.76,1.243-2.76,2.76v14.427l-8.348-0.627v-14.671c0-1.517-1.242-2.76-2.76-2.76h-2.137c-1.518,0-2.76,1.243-2.76,2.76
		v14.096l-11.219-0.843v-14.966c0-1.517-1.242-2.76-2.76-2.76h-2.137c-1.518,0-2.76,1.243-2.76,2.76v14.391l-1.191-0.09
		l-9.754-2.704l-0.559-6.407l-0.33-0.009l0.006,6.258l-11.43-4.484l0.641-25.389l8.941,3.577L847.989,629.195L847.989,629.195z"/>
	<path style="fill-rule:evenodd;clip-rule:evenodd;fill:#FFFFFF;" d="M934.354,653.761v-25.183l42.172,15.062v17.833l-14.559-2.662
		v-14.38c0-1.524-1.223-2.945-2.717-3.157l-1.693-0.24c-1.494-0.213-2.715,0.86-2.715,2.385v14.09l-11.848-2.166v-14.204
		c0-1.524-1.223-2.945-2.717-3.157l-1.691-0.24c-1.494-0.213-2.717,0.86-2.717,2.385v13.913L934.354,653.761L934.354,653.761z
		 M839.026,639.709l0.604-23.958l7.629,3.052l0.064,11.062h3.369l-0.189-10.363l82.416,8.072l-0.262,21.092l0.027,3.598
		l-10.84-0.814v-15.049c0-1.887-1.543-3.43-3.432-3.43h-2.135c-1.887,0-3.432,1.543-3.432,3.43v14.373l-8.039-0.604v-14.381
		c0-1.886-1.543-3.429-3.43-3.429h-2.137c-1.887,0-3.43,1.543-3.43,3.429v13.705l-7.008-0.526v-14.05c0-1.887-1.543-3.43-3.43-3.43
		h-2.137c-1.887,0-3.43,1.543-3.43,3.43v13.374l-9.879-0.742v-14.344c0-1.887-1.543-3.43-3.43-3.43h-2.137
		c-1.887,0-3.43,1.543-3.43,3.43v13.669l-0.404-0.03l-9.244-2.563l-0.57-6.538l-1.615-0.045l0.006,5.965L839.026,639.709
		L839.026,639.709z"/>
	<path style="fill-rule:evenodd;clip-rule:evenodd;fill:#331E07;" d="M1046.871,650.572l0.086-16.895l42.412-7.7l0.074,16.941
		L1046.871,650.572L1046.871,650.572z M1043.354,651.027l-6.139,0.349v-14.819c0-2.941-2.543-3.91-5.107-3.91h-0.947
		c-2.811,0-5.111,2.302-5.113,5.112l-0.006,14.252l-6.896,0.392l-0.109-24.39l24.039-2.443L1043.354,651.027L1043.354,651.027z
		 M978.026,655.176l0.262-12.528l36.992-5.953l0.127,16.961L978.026,655.176L978.026,655.176z"/>
	<path style="fill-rule:evenodd;clip-rule:evenodd;fill:#FFFFFF;" d="M1047.545,649.77l0.08-15.534l41.078-7.458l0.068,15.581
		L1047.545,649.77L1047.545,649.77z M1042.676,650.395l-4.793,0.273v-14.111c0-3.18-2.596-4.579-5.775-4.579h-0.947
		c-3.18,0-5.781,2.602-5.783,5.781l-0.004,13.619l-5.562,0.316l-0.104-23.077l22.707-2.307L1042.676,650.395L1042.676,650.395z
		 M978.709,654.478l0.234-11.258l35.672-5.74l0.117,15.533L978.709,654.478L978.709,654.478z"/>
	<path style="fill-rule:evenodd;clip-rule:evenodd;fill:#867C73;" d="M1169.313,606.434c0.5-5.013-2.445-5.773-3.125-2.629
		c-14.221,55.306-335.199,72.27-409.52,9.885c-5.236-4.396-3.92-4.287-3.879-11.112c-0.365-3.167-5.432-3.864-5.49,0.403
		c5.594,57.05,55.836,90.727,134.979,109.275c67.049,15.714,130.078,13,195.367-11.495
		C1127.485,682.062,1159.885,651.553,1169.313,606.434L1169.313,606.434z"/>
	<path style="fill-rule:evenodd;clip-rule:evenodd;fill:#52483F;" d="M1153.92,642.635
		c-29.188,46.938-116.137,67.447-182.438,68.655c-54.664,0.995-137.689-9.212-174.84-39.859
		c56.832,30.465,108.018,37.173,169.598,35.401C1033.24,704.904,1100.364,697.317,1153.92,642.635L1153.92,642.635z"/>
	<path style="fill-rule:evenodd;clip-rule:evenodd;fill:#52483F;" d="M759.139,631.938c-0.848-1.292,0.291-1.887,1.174-0.955
		c31.879,36.331,85.51,65.141,208.932,62.039c81.85-1.164,149.209-17.222,188.656-61.966c1.213-1.203,2.176-0.309,1.111,1.496
		c-39.578,44.962-105.014,64.8-189.934,65.599C838.778,698.233,785.442,668.422,759.139,631.938L759.139,631.938z"/>
	<path style="fill-rule:evenodd;clip-rule:evenodd;fill:#52483F;" d="M763.83,632.74c-1.227-1.615-0.375-2.921,1.326-1.682
		c33.211,32.943,98.934,49.738,203.021,47.478c78.291,0.569,145.459-10.253,185.816-48.532c2.809-2.218,3.338-0.766,2.598,0.223
		c-33.826,34.15-93.879,53.707-188.471,54.048C881.356,683.525,803.574,674.869,763.83,632.74L763.83,632.74z"/>
	<path style="fill-rule:evenodd;clip-rule:evenodd;fill:#52483F;" d="M770.401,634.313c-0.117-0.655-0.234-1.309-0.352-1.964
		c49.078,25.889,115.504,35.473,207.746,32.106c77.027-3.058,123.264-8.5,158.514-27.126c0.314,0.393,0.627,0.785,0.941,1.178
		c-32.988,17.99-69.494,24.682-114.656,29.291c-41.365,4.221-96.66,4.29-137.551,0.56
		C831.268,663.451,795.871,650.702,770.401,634.313L770.401,634.313z"/>
	<path style="fill-rule:evenodd;clip-rule:evenodd;fill:#52483F;" d="M766.311,626.126c0.119-0.552,0.238-1.104,0.357-1.657
		c44.533,23.867,105.85,29.131,163.055,31.146c65.506,2.307,142.148-0.448,206.697-22.928c1.445-0.543,1.945,0.71,1.232,1.275
		c-39.26,20.501-141.275,26.933-205.6,25.668C872.522,658.46,813.444,653.811,766.311,626.126L766.311,626.126z"/>
	<path style="fill:#FFFFFF;" d="M772.371,500.261l-1.879,11.692l5.232,2.563l-1.691,10.533l-31.375-17.935l1.814-11.295
		l35.406-7.149l-1.736,10.805L772.371,500.261L772.371,500.261z M764.791,501.283l-12.588,1.717l11.412,5.59L764.791,501.283
		L764.791,501.283z M780.156,457.72l-6.311-3.119l7.158-14.483l12.896,6.374c0.52,3.708,0.602,6.796,0.234,9.259
		c-0.367,2.47-1.277,5.164-2.723,8.086c-1.779,3.6-3.844,6.232-6.191,7.891c-2.342,1.662-5.037,2.516-8.084,2.565
		c-3.037,0.053-6.133-0.704-9.273-2.256c-3.311-1.636-5.844-3.74-7.619-6.313c-1.77-2.569-2.639-5.484-2.607-8.745
		c0.033-2.538,0.914-5.546,2.631-9.018c1.652-3.346,3.195-5.701,4.621-7.06c1.432-1.365,3.051-2.278,4.869-2.74
		c1.816-0.463,3.842-0.489,6.068-0.074l-2.834,9.823c-1.336-0.195-2.529-0.002-3.574,0.587c-1.055,0.585-1.916,1.565-2.6,2.948
		c-1.012,2.047-1.109,4.037-0.287,5.962c0.824,1.926,2.781,3.649,5.865,5.173c3.275,1.619,5.922,2.163,7.938,1.622
		c2.012-0.534,3.568-1.907,4.656-4.11c0.518-1.044,0.861-2.113,1.027-3.216c0.164-1.096,0.186-2.438,0.074-4.021l-2.838-1.403
		L780.156,457.72L780.156,457.72z M754.201,441.256l1.695-3.43c1.264,0.73,2.205,1.581,2.828,2.557
		c0.617,0.973,0.926,2.144,0.926,3.496c-0.006,1.359-0.318,2.67-0.947,3.941c-1.035,2.096-2.41,3.507-4.125,4.223
		c-1.715,0.715-3.609,0.692-5.672-0.073l1.758-3.557c0.934,0.119,1.693,0.003,2.283-0.338c0.584-0.344,1.133-1.03,1.635-2.046
		c0.594-1.2,0.85-2.145,0.773-2.824C755.272,442.522,754.891,441.868,754.201,441.256L754.201,441.256z M805.408,436.871
		l-26.656-20.818l10.721-13.725c1.986-2.544,3.725-4.323,5.213-5.319c1.484-1.007,3.146-1.458,4.969-1.363
		c1.83,0.1,3.596,0.82,5.297,2.148c1.477,1.153,2.508,2.468,3.086,3.939c0.59,1.469,0.781,3.017,0.584,4.651
		c-0.127,1.031-0.529,2.275-1.203,3.716c1.094-0.724,1.975-1.185,2.652-1.375c0.449-0.128,1.264-0.2,2.43-0.22
		c1.158-0.014,2.012,0.033,2.553,0.146l10.826,2.012l-7.27,9.307l-11.564-1.949c-1.49-0.265-2.561-0.302-3.217-0.115
		c-0.875,0.276-1.607,0.792-2.193,1.542l-0.568,0.727l10.797,8.432L805.408,436.871L805.408,436.871z M796.041,416.249l2.719-3.481
		c0.291-0.372,0.738-1.201,1.34-2.47c0.32-0.628,0.391-1.293,0.205-1.989c-0.182-0.701-0.562-1.277-1.145-1.732
		c-0.863-0.674-1.74-0.919-2.625-0.732c-0.893,0.183-1.922,1.027-3.1,2.535l-2.83,3.624L796.041,416.249L796.041,416.249z
		 M812.725,377.965l7.955-6.833l22.041,25.655l-7.955,6.834L812.725,377.965L812.725,377.965z M854.487,347.486l18.035-7.621
		c3.002-1.269,5.625-1.497,7.863-0.69c2.238,0.806,3.82,2.308,4.75,4.506c0.777,1.842,0.873,3.665,0.275,5.465
		c-0.389,1.207-1.221,2.37-2.477,3.508c2.469-0.411,4.496-0.182,6.109,0.683c1.607,0.868,2.832,2.291,3.668,4.271
		c0.684,1.617,0.92,3.227,0.719,4.833c-0.209,1.61-0.811,3.06-1.789,4.363c-0.617,0.808-1.691,1.663-3.234,2.563
		c-2.049,1.199-3.422,1.951-4.133,2.251l-16.623,7.024L854.487,347.486L854.487,347.486z M869.356,355.613l4.199-1.774
		c1.502-0.634,2.443-1.34,2.812-2.103c0.367-0.771,0.348-1.643-0.064-2.622c-0.385-0.907-0.982-1.492-1.783-1.751
		c-0.805-0.267-1.943-0.085-3.4,0.531l-4.264,1.802L869.356,355.613L869.356,355.613z M874.524,367.839l4.908-2.075
		c1.662-0.702,2.703-1.492,3.137-2.368c0.434-0.876,0.443-1.803,0.023-2.796c-0.389-0.922-1.035-1.52-1.945-1.793
		c-0.91-0.274-2.213-0.057-3.902,0.657l-4.887,2.065L874.524,367.839L874.524,367.839z M902.373,328.865l27.488-5.142l1.328,7.104
		l-17.18,3.214l0.99,5.293l15.928-2.979l1.268,6.779l-15.926,2.979l1.225,6.547l17.689-3.309l1.408,7.522l-28,5.237L902.373,328.865
		L902.373,328.865z M949.912,321.977l10.439,0.089l-0.219,25.508l16.344,0.14l-0.072,8.313l-26.783-0.23L949.912,321.977
		L949.912,321.977z M996.768,324.718l27.123,6.809l-1.76,7.01l-16.951-4.255l-1.312,5.223l15.715,3.945l-1.678,6.689l-15.717-3.945
		l-1.621,6.46l17.457,4.382l-1.863,7.422l-27.627-6.936L996.768,324.718L996.768,324.718z M1044.221,338.69l13.801,7.13
		c2.715,1.402,4.727,2.911,6.018,4.51c1.289,1.605,2.129,3.376,2.516,5.322c0.375,1.949,0.338,3.959-0.119,6.044
		c-0.451,2.089-1.207,4.153-2.266,6.203c-1.658,3.21-3.309,5.513-4.957,6.903c-1.643,1.394-3.422,2.353-5.342,2.876
		c-1.918,0.524-3.723,0.602-5.418,0.231c-2.318-0.506-4.305-1.187-5.955-2.04l-13.801-7.13L1044.221,338.69L1044.221,338.69z
		 M1049.985,350.281l-8.479,16.409l2.279,1.178c1.945,1.005,3.443,1.504,4.488,1.503c1.043-0.01,2.072-0.427,3.094-1.255
		c1.025-0.835,2.152-2.45,3.396-4.857c1.643-3.182,2.25-5.625,1.814-7.339c-0.436-1.713-1.859-3.193-4.271-4.44L1049.985,350.281
		L1049.985,350.281z M1087.547,363.824l8.369,6.319l-20.379,26.993l-8.369-6.319L1087.547,363.824L1087.547,363.824z
		 M1094.246,357.695l5.768,4.355l-4.154,5.504l-5.768-4.355L1094.246,357.695L1094.246,357.695z M1110.223,381.418l7.717,8.667
		l-3.955,12.68l13.033-2.484l7.674,8.62l-23.416,3.264l-10.578,9.418l-6.973-7.832l10.578-9.418L1110.223,381.418L1110.223,381.418z
		 M1145.063,424.953l12.961,24.779l-6.404,3.35l-8.102-15.487l-4.771,2.496l7.512,14.357l-6.111,3.197l-7.51-14.357l-5.902,3.087
		l8.342,15.948l-6.781,3.547l-13.203-25.24L1145.063,424.953L1145.063,424.953z M1144.383,473.332l2.93,9.498
		c-1.512,0.583-2.604,1.3-3.26,2.138c-1.07,1.368-1.377,3.021-0.908,4.965c0.348,1.447,0.955,2.483,1.824,3.099
		c0.871,0.625,1.754,0.825,2.648,0.609c0.85-0.205,1.527-0.757,2.021-1.661c0.494-0.905,0.705-2.786,0.654-5.649
		c-0.078-4.694,0.49-8.184,1.693-10.482c1.193-2.312,3.074-3.778,5.646-4.398c1.684-0.406,3.395-0.299,5.129,0.319
		c1.744,0.616,3.277,1.802,4.609,3.562c1.33,1.761,2.408,4.351,3.232,7.773c1.014,4.202,1.004,7.589-0.033,10.172
		c-1.031,2.58-3.203,4.489-6.516,5.732l-2.867-9.415c1.432-0.612,2.389-1.41,2.867-2.384c0.482-0.983,0.549-2.189,0.203-3.621
		c-0.283-1.179-0.752-2.014-1.393-2.49c-0.643-0.477-1.326-0.628-2.045-0.455c-0.521,0.126-0.93,0.483-1.234,1.066
		c-0.322,0.573-0.447,1.801-0.391,3.682c0.113,4.67-0.094,8.081-0.613,10.23c-0.516,2.157-1.389,3.849-2.633,5.072
		c-1.234,1.221-2.754,2.049-4.551,2.482c-2.105,0.507-4.189,0.394-6.254-0.34c-2.057-0.743-3.803-2.039-5.227-3.915
		c-1.422-1.868-2.516-4.39-3.283-7.574c-1.348-5.588-1.201-9.72,0.432-12.389C1138.699,476.289,1141.137,474.414,1144.383,473.332
		L1144.383,473.332z M1175.742,514.466l1.314,10.404l-33.555,4.24l-1.316-10.404L1175.742,514.466L1175.742,514.466z
		 M1184.807,514.986l0.906,7.171l-6.842,0.865l-0.906-7.17L1184.807,514.986L1184.807,514.986z"/>
	
		<path style="fill-rule:evenodd;clip-rule:evenodd;fill:#FFFFFF;stroke:#231F20;stroke-width:0.5669;stroke-miterlimit:22.9256;" d="
		M996.123,594.808c-1.949,0.074-3.896,0.148-5.846,0.222c0.289-2.397,0.768-4.726,2.717-6.528
		C995.186,590.139,995.549,592.517,996.123,594.808L996.123,594.808z"/>
	<path style="fill:#FFFFFF;" d="M925.914,743.257v24.709h-6.82v-16.167c-1.104,0.837-2.174,1.51-3.209,2.025
		c-1.035,0.514-2.33,1.012-3.885,1.482v-5.499c2.297-0.747,4.084-1.64,5.352-2.681c1.271-1.047,2.268-2.336,2.986-3.869H925.914
		L925.914,743.257z M936.897,762.524l6.719-0.837c0.176,0.928,0.477,1.59,0.895,1.969c0.424,0.385,0.939,0.577,1.543,0.577
		c1.088,0,1.93-0.543,2.541-1.635c0.441-0.809,0.775-2.512,0.996-5.114c-0.809,0.831-1.635,1.437-2.49,1.822
		c-0.848,0.39-1.832,0.583-2.953,0.583c-2.178,0-4.016-0.775-5.514-2.319c-1.5-1.55-2.246-3.507-2.246-5.872
		c0-1.612,0.379-3.083,1.143-4.412c0.764-1.324,1.816-2.331,3.15-3.01c1.336-0.679,3.016-1.018,5.041-1.018
		c2.432,0,4.377,0.419,5.848,1.25c1.471,0.837,2.648,2.161,3.525,3.977s1.318,4.214,1.318,7.201c0,4.384-0.922,7.592-2.773,9.634
		c-1.844,2.036-4.4,3.055-7.676,3.055c-1.934,0-3.455-0.221-4.576-0.668c-1.113-0.447-2.041-1.103-2.783-1.957
		C937.864,764.889,937.291,763.814,936.897,762.524L936.897,762.524z M949.34,751.68c0-1.318-0.334-2.347-0.996-3.094
		c-0.66-0.747-1.469-1.12-2.42-1.12c-0.9,0-1.641,0.34-2.234,1.013s-0.889,1.686-0.889,3.038c0,1.358,0.307,2.399,0.922,3.117
		c0.611,0.718,1.381,1.081,2.297,1.081c0.951,0,1.742-0.351,2.377-1.047C949.024,753.971,949.34,752.976,949.34,751.68
		L949.34,751.68z M982.326,767.966h-20.264c0.232-1.997,0.939-3.881,2.117-5.64c1.176-1.765,3.383-3.846,6.617-6.245
		c1.98-1.471,3.248-2.585,3.807-3.349c0.555-0.764,0.832-1.488,0.832-2.172c0-0.741-0.271-1.375-0.82-1.901s-1.238-0.786-2.07-0.786
		c-0.859,0-1.566,0.271-2.115,0.815c-0.549,0.549-0.916,1.505-1.104,2.885l-6.754-0.549c0.266-1.906,0.752-3.388,1.459-4.458
		c0.707-1.069,1.703-1.884,2.986-2.455c1.291-0.571,3.072-0.854,5.346-0.854c2.377,0,4.221,0.271,5.545,0.815
		c1.318,0.537,2.359,1.369,3.111,2.489c0.758,1.126,1.137,2.382,1.137,3.773c0,1.476-0.436,2.891-1.301,4.243
		c-0.865,1.346-2.443,2.828-4.734,4.44c-1.357,0.939-2.27,1.601-2.727,1.974c-0.459,0.379-0.996,0.865-1.619,1.477h10.551V767.966
		L982.326,767.966z M988.656,743.665h19.719v4.559c-1.713,1.544-3.145,3.219-4.299,5.023c-1.391,2.189-2.488,4.622-3.297,7.308
		c-0.645,2.087-1.074,4.559-1.297,7.41h-6.719c0.531-3.965,1.363-7.292,2.5-9.979s2.936-5.561,5.396-8.621h-12.004V743.665
		L988.656,743.665z"/>
</g>
</svg>
