<?xml version="1.0" encoding="UTF-8"?>
<svg id="Layer_2" data-name="Layer 2" xmlns="http://www.w3.org/2000/svg" viewBox="0 0 503.99 503.99">
  <defs>
    <style>
      .cls-1 {
        stroke: #231f20;
      }

      .cls-1, .cls-2, .cls-3, .cls-4, .cls-5, .cls-6, .cls-7, .cls-8 {
        fill-rule: evenodd;
      }

      .cls-1, .cls-2, .cls-9 {
        fill: #fff;
      }

      .cls-1, .cls-10 {
        stroke-miterlimit: 22.93;
        stroke-width: .57px;
      }

      .cls-3 {
        fill: #331e07;
      }

      .cls-4 {
        fill: #ed1c24;
      }

      .cls-5 {
        fill: #5cb9e4;
      }

      .cls-6 {
        fill: #553a1c;
      }

      .cls-10 {
        fill: none;
        stroke: #e92e92;
      }

      .cls-7 {
        fill: #867c73;
      }

      .cls-8 {
        fill: #52483f;
      }
    </style>
  </defs>
  <g id="Layer_1-2" data-name="Layer 1">
    <g>
      <path class="cls-10" d="M252,.28c139.02,0,251.71,112.7,251.71,251.71s-112.7,251.71-251.71,251.71S.28,391.01.28,252,112.98.28,252,.28h0Z"/>
      <path class="cls-5" d="M252,5.95c135.89,0,246.05,110.16,246.05,246.04s-110.16,246.04-246.05,246.04S5.95,387.88,5.95,252,116.11,5.95,252,5.95h0Z"/>
      <path class="cls-4" d="M252,14.94c130.93,0,237.06,106.14,237.06,237.06s-106.14,237.06-237.06,237.06S14.94,382.92,14.94,252,121.07,14.94,252,14.94h0ZM356.13,105.88l-10.55,10.84c-26.08-19.98-58.73-31.88-94.18-31.88s-67.61,11.71-93.58,31.42h-.02l-10.2-10.98c-40.16,31.02-66.03,79.61-66.03,134.23,0,93.68,76.07,169.63,169.91,169.63s169.9-75.95,169.9-169.63c0-54.27-25.53-102.59-65.25-133.64h0Z"/>
      <path class="cls-2" d="M357.88,104.08c39.98,31.39,65.65,80.04,65.65,134.67,0,94.66-77.07,171.4-172.13,171.4s-172.13-76.74-172.13-171.4c0-55.04,26.06-104.02,66.56-135.38l2.85,3.07h0l.03.03,9.08,9.78h.02l-3.37,2.95-9.08-10.14c-37.78,30.66-61.91,77.36-61.91,129.68,0,92.36,75.19,167.23,167.95,167.23s167.95-74.87,167.95-167.23c0-52.2-24.02-98.8-61.65-129.47l-9.32,9.78-2.79-2.34,12.3-12.64h0Z"/>
      <path class="cls-2" d="M102.04,230.98c-1.57.4-2.16-1.42-.67-2.53,24.38-16.88,47.2-38.66,70.04-60.39.65-.61,1.34-1,2.21-1.21,2.58-.64,5.27-.81,8.05-.55,1.12.1,2.12-.14,3.08-.74,12.82-8.08,25.32-16.26,41.85-23.25.19-.08.35-.14.54-.19,2.73-.79,3.82-.46,4.91-.13.13.57.26,1.14.39,1.72,6.42-.15,10.46.43,13.47,1.32.74.22,1.34.56,1.91,1.08,18.54,16.89,40.66,31.11,65.97,42.93.73.34,1.42.48,2.22.46,1.6-.04,3.19-.09,4.79-.13,1.15-.03,2.13-.4,3.02-1.14,5.59-4.66,11.4-9.22,19.32-12.87.64-.29,1.23-.43,1.93-.45.94-.02,1.89-.05,2.83-.08.73-.02,1.35-.17,2.01-.49,3.85-1.87,7.69-3.73,11.54-5.6.68-.33,1.32-.48,2.07-.49,1.62-.02,3.24-.05,4.85-.07.1,0,.19,0,.29,0,.05,0,.09,0,.14,0,.92.04,1.7.29,2.48.79,5.93,3.86,10.93,7.9,14.95,12.1,1.7,1.78,2.18,2.49,4.27,3.89,2.66,1.78,2.21,1.43,5.36,1.68,2.43.2,3.89.54,7.18,1.84,3.45,1.36,4.54,1.84,4.86,5.57.08.9.15,1.8.23,2.7.29,3.41-.12,2.77-4.11,2.55-2.39-.13-3.04-.71-4.71-2.67-3.52-4.12-2.65-3.34-8.02-3.54-1.81-.07-3.61-.14-5.41-.21-1.39-.05-2.57-.61-3.49-1.65-2.61-2.94-5.22-5.89-7.84-8.83-1.47-1.66-1.67-1.12-3.94-.92-.07,0-.13.01-.19.02-1.76.23-1.69-.16-1.69,1.54,0,1.44,0,2.88,0,4.31-.01,2.73-.19,1.5,1.6,3.14,1.19,1.08,1.95,2.41,2.62,3.8.06.12.1.22.15.34.7,1.79.55,2.44-.01,2.55-1.62-1.94-3.23-3.88-4.85-5.82-1.35-1.42-4.14-.96-1.95,2.39.91,1.39,2.14,2.71,3.05,3.92-.2.63-.86.71-2.12.06-1.18-.83-2.24-1.74-2.95-2.9-1.15-1.86-.85-3.35-.81-5.42.03-1.61.06-3.21.09-4.82.03-1.63.22-1.53-1.1-1.4-.84.09-.61-.78-.72-1.69-.06-.52-1.03.34-1.42.6-3.06,2.04-5.56,4.68-7.61,7.83-.17-1.36-.35-2.71-.52-4.07-1.09.65-2.18,1.3-3.26,1.95-1.69,1.01-2.58,2.79-2.37,4.74.21,1.95,1.45,3.51,3.32,4.14,7.84,2.65,15.68,5.31,23.52,7.96,1.9.66,1.69,1.58-.21,1.57-7.16-.13-14.33-.27-21.49-.4-.66-.01-1.22-.13-1.83-.39-13.08-5.55-27.38-9.18-43.05-12.14.21.61.56.95.88,1.35.58.72,1.24,1.2,2.11,1.52,4.21,1.58,8.42,3.16,12.63,4.74,1.95,1.87-.04,4.99-4.62,3.74-.56-.15-1.01-.36-1.48-.68-4.31-2.95-8.63-5.89-12.94-8.84-.9-.61-1.84-.89-2.92-.86-1.33.04-2.67.08-4,.12-1.09.03-2.01.36-2.87,1.03-1.6,1.24-3.19,2.48-4.79,3.71,2.8.18,5.6.35,8.41.53,1.1.07,2.02.44,2.86,1.15,3.19,2.69,5.01,5.75,6.59,8.86.18.37.6,2.02-1.24,1.01-.09-.05-.18-.09-.27-.14-6.71-3.19-13.43-6.37-20.14-9.56-.27-.13-.48-.25-.72-.42-2.39-1.68-4.78-3.37-7.18-5.05-.13.66-.27,1.33-.4,1.99-7.8.05-16.71-3.79-23.63-9.29-.44,1.02-.89,2.04-1.33,3.05-4.63-2.72-8.95-5.61-11.81-9.29-.15.26-.3.51-.45.77-.77,1.31-.9,2.76-.38,4.18,1.44,3.94,5.8,7.23,10.04,10.55.97.76,2.05,1.1,3.29,1.04,2.1-.11,4.27.17,6.36.58.1.3.17.6.19.9.16,1.76,1.15,3.19,2.74,3.97,6.42,3.13,11.17,6.57,14.46,10.27-14.75-3.47-26.58-9.32-34.04-18.72-.72-.9-1.6-1.47-2.73-1.73-.67-.16-1.34-.32-2-.47-1.9-.45-3.29-1.87-3.69-3.78-.01-.05-.02-.11-.03-.17-.32-1.55-1.26-2.74-2.69-3.43-3.33-1.6-6.05-3.63-7.6-6.48-.3-.55-.47-1.08-.56-1.7-.28-2.05-.55-4.09-.83-6.14-1.04-.13-2.07-.25-3.11-.38-1.53-.19-2.92.28-4.02,1.35-1.74,1.69-3.48,3.38-5.22,5.06-1.12,1.09-1.63,2.49-1.47,4.04.14,1.33.28,2.66.41,3.99.16.02.32.04.48.07,2.47.34,4.28,2.45,4.24,4.94-.04,3.11-.09,6.23-.13,9.34-.06,4.05.38,5.51-1.69,9.16-1.61,2.86-3.86,5.07-7.09,6.25-2.91,1.07-2.33.72-1.63-1.75.62-2.19,1.29-4.45,2.51-6.98.31-.65.66-1.32,1.05-2,.46-.8.66-1.58.65-2.5-.01-.87-.02-1.75-.03-2.64-.03-3.31-.06-6.72-.09-10.18-.8.04-1.59.09-2.39.13-2.26,8.79-6,17.24-11.82,25.23-2.66,2.79-7.93.11-4.45-4.12.05-.06.09-.11.13-.16,4.34-5.76,8.15-11.15,10.13-19.17.12-.48.16-.9.14-1.4-.26-5.79-.51-11.58-.77-17.37-.46,1.35-1,2.61-1.6,3.78-.87,1.68-2.49,2.67-4.39,2.66-1.89,0-3.51-1-4.37-2.69-.45-.89-.77-1.87-.93-2.96-.46.03-.92.07-1.38.1-1.52.11-2.78.82-3.66,2.06-5.48,7.7-12.18,15.5-20.34,23.43-.21.2-.4.36-.63.52-2.02,1.4-4.49,2.39-7.41,2.97-1,.2-1.81.63-2.53,1.35-2.9,2.9-5.8,5.8-8.7,8.7-1.53.94-3.84-.26-1.96-2.41,4.16-4.3,8.31-8.61,12.47-12.91.53-.54.87-1.11,1.11-1.82.98-2.87-.58-6.02-3.63-3.68-10.34,9.49-20.68,18.97-31.02,28.46-.04.04-.07.07-.11.11-5.19,5.07-10.84,8.34-16.69,10.8h0ZM164.82,178.45c-3.16,1.58-5.78,3.9-7.29,7.54-1.32,3.2-1.28,3.77,1.8,2.55,4.03-1.61,6.84-4.06,8.19-7.71,1.22-3.3.2-3.84-2.7-2.38h0Z"/>
      <path class="cls-3" d="M165.79,294.39c-.01-1.72-.04-3.46.04-5.17.07-1.34.23-2.67.81-3.9.88-1.87,2.72-3.33,4.31-4.58l.6-.47.62.46c1.62,1.2,3.38,2.57,4.3,4.41.58,1.17.8,2.44.91,3.73.13,1.48.14,3,.16,4.5l35.52.12,6.06,2.35,4.44-5.13,6.46-.54.04,3.45h1.35s-.06-6.38-.06-6.38c-.02-1.95-.16-1.49.83-3.16,2.57-4.33,6.26-7.78,10.83-9.97-.03-6.43-.07-12.86-.11-19.29h-1.72s.02-5.2.02-5.2h1.66c.44-5.82,2.27-11.48,4.7-16.76l.83-1.81.96,1.75c2.84,5.16,3.59,11.12,4.64,16.84h1.66s.03,5.17.03,5.17h-1.67s-.02,24.74-.02,24.74c1.73,1.19,2.39,2.71,2.94,4.62,1.95.03,3.89.05,5.84.08.59-1.53,1.54-2.75,3-3.65l.46-.28.49.23c2.17,1.03,3.26,3.03,3.88,5.27l.03.1v.1c.07.96.12,1.91.18,2.86h1.68c.26-2.12,1.39-3.94,3.06-5.33l.51-.42.59.3c2.39,1.21,3.23,3.03,3.91,5.49l.03.13.11,15.88,1.36.05c.19-1.34.5-2.7,1.05-3.93.55-1.21,1.32-2.26,2.41-3.04l.66-.47.6.54c.9.82,1.63,1.76,2.2,2.84.69,1.29,1.1,2.65,1.5,4.04l7.93,4.45.26,3.74,3.43.12.1-3.98,40.78,10.89.17,5.23,39.55,9.65.09,18.99-27.18,9.29-79.35,15.97-120.04-10.65-27.37-15.44.72-30.05,15.26-2.16v-19.57l.66-.24c5.72-2.12,11.45-4.24,17.17-6.35l.1-.04.1-.02c.97-.14,1.95-.28,2.92-.42h0Z"/>
      <path class="cls-6" d="M156.53,367.7l-26.65-15.04.69-28.6,15.28-2.16v-19.74c5.72-2.12,11.45-4.24,17.17-6.35,1.26-.18,2.52-.36,3.78-.54,0-8.93-.44-9.62,4.77-13.73,5.01,3.7,4.85,4.88,4.97,12.84l36.32.13,6.54,2.54,4.63-5.35,4.98-.42.04,3.36h3.36s-.07-6.94-.07-6.94c-.02-1.79-.16-1.68.78-3.24,2.36-3.92,5.93-7.48,10.88-9.69-.04-6.98-.08-13.96-.12-20.94h-1.71s.02-3.19.02-3.19h1.6c.29-5.87,2.08-11.71,4.66-17.34,2.9,5.28,3.61,11.68,4.68,17.35h1.49s.02,3.17.02,3.17h-1.66s-.02,26.29-.02,26.29c2.19,1.28,2.68,3.18,3.18,5.06,2.44.03,4.88.07,7.32.1.45-1.51,1.24-2.84,2.81-3.81,1.82.87,2.77,2.57,3.34,4.63.08,1.27.16,2.54.23,3.81h3.57c-.02-2.35,1.14-4.22,2.75-5.56,2.14,1.08,2.81,2.72,3.4,4.86l.11,16.71,3.25.13c.18-1.68.49-3.24,1.08-4.55.48-1.07,1.15-1.97,2.08-2.64.88.79,1.51,1.66,1.99,2.57.72,1.35,1.12,2.8,1.53,4.24l7.82,4.39.29,4.1,5.34.19.1-3.72,38.83,10.36.17,5.25,39.52,9.65.09,17.48-26.43,9.03-79.14,15.92-119.67-10.62h0Z"/>
      <path class="cls-3" d="M274.54,327.05l.1-6.91,30.62-5.12v27.72l-30.72,4.83v1.51h-2.89v-23.12c0-1.83-1.5-3.33-3.33-3.33h0c-1.83,0-3.33,1.5-3.33,3.33v23.12h-4.87v-24.5c0-2,.83-3.82,2.16-5.13l-3.11,2.33v10.41l-32.37-9.49-16.46,2.13-.09-16.11,9.99-.09.24-9.74,28.5-.15.33,11.47-6.23-.92v-7.12l-3.8-.32.12,7.49,22.85,6.18.32,3.65c1.27-1.13,2.95-1.81,4.77-1.81,3.97,0,7.22,3.24,7.22,7.21v2.46h0ZM163.89,300.32h1.8v12.96h3.91l5.71,3.44h4.07l7.11-4.91,10.32.16v16.94l-10.71,2.25-5.14-.15-23.11-12.27-.23-20.03,6.35-.09-.07,1.7h0ZM208.6,303.47v23.23h-9.61v-23.23h9.61ZM228.1,303.49l.09,16.23,6.99,1.91-.24-16.84-6.84-1.3h0Z"/>
      <path class="cls-2" d="M158.51,318.34l-.22-18.96,4.98-.07-.07,1.68h1.83v12.96h4.39l5.71,3.44h4.47l7.1-4.91,9.45.15v15.74l-10.1,2.12-4.91-.15-22.62-12.01h0ZM207.93,304.14h-8.27v21.89h8.27v-21.89h0ZM226.84,322.04l31.65,9.28v-9.85l3.37-2.53-.25-2.86-22.89-6.19-.14-8.73,5.15.43v7.16l4.86.72-.28-10.02-27.19.14-.24,9.74-9.97.09.09,14.69,15.85-2.05h0ZM227.42,302.68l8.18,1.55.26,18.28-8.34-2.28-.1-17.55h0ZM268.32,321.98h0c2.2,0,4,1.8,4,4v22.45h1.55v-23.83c0-3.6-2.95-6.54-6.54-6.54h0c-3.6,0-6.54,2.94-6.54,6.54v23.83h3.53v-22.45c0-2.2,1.8-4,4-4h0ZM275.3,320.72l29.29-4.9v26.36l-29.67,4.67.38-26.13h0Z"/>
      <path class="cls-3" d="M260.77,299.86h-9.78v-2.98c0-1.64,1.34-2.97,2.98-2.97h3.83c1.64,0,2.97,1.34,2.97,2.97v2.98h0ZM251.92,300.79h5.34v7.55h-5.34v-7.55h0Z"/>
      <path class="cls-2" d="M260.1,299.19h-8.44v-2.31c0-1.27,1.04-2.31,2.31-2.31h3.83c1.27,0,2.31,1.04,2.31,2.31v2.31h0ZM252.59,301.46h4v6.21h-4v-6.21h0Z"/>
      <path class="cls-2" d="M175.86,292.86h-8.4v-4.08c0-2.24,1.83-4.07,4.07-4.07h.25c2.24,0,4.07,1.83,4.07,4.07v4.08h0Z"/>
      <path class="cls-2" d="M235.23,284.47c2.28-3.48,5-6.44,9.23-8.09,4.96,1.9,8.29,5.57,9.37,9.9-.04,1.64-.07,3.29-.11,4.93-6.57.04-13.13.07-19.7.11,0-1.03.01-2.07.01-3.1,0-2.15,0-1.92,1.19-3.75h0Z"/>
      <path class="cls-2" d="M266.18,284.45h0c1,0,1.82.82,1.82,1.82v3.26h-3.65v-3.26c0-1,.82-1.82,1.82-1.82h0Z"/>
      <polygon class="cls-2" points="275.25 287.47 277.79 287.47 277.79 290.97 275.25 290.97 275.25 287.47"/>
      <polygon class="cls-2" points="257.36 289.58 263.26 289.58 263.26 291.26 257.36 291.26 257.36 289.58"/>
      <polygon class="cls-2" points="269.86 289.91 276.52 289.91 276.52 290.97 269.86 290.97 269.86 289.91"/>
      <path class="cls-2" d="M248.41,238.53h0c1.88,0,3.41,5.4,3.41,7.21v5.12h1.6v2.71h-1.6v19.42h-6.81v-19.42h-1.54v-2.71h1.54v-5.12c0-1.8,1.53-7.21,3.41-7.21h0Z"/>
      <path class="cls-3" d="M226.68,365.32v-26.69l43.51,15.54v19.11l-15.9-2.91v-14.94c0-1.18-.97-2.33-2.14-2.49l-1.69-.24c-1.1-.16-1.95.62-1.95,1.72v14.89l-13.19-2.41v-14.76c0-1.18-.97-2.33-2.14-2.49l-1.69-.24c-1.1-.16-1.95.62-1.95,1.72v14.72l-2.86-.52h0ZM140.99,340.2h2.02l-.19-10.43,83.78,8.21-.27,21.7.03,4.32-12.18-.92v-15.67c0-1.52-1.24-2.76-2.76-2.76h-2.14c-1.52,0-2.76,1.24-2.76,2.76v15.09l-9.38-.71v-15c0-1.52-1.24-2.76-2.76-2.76h-2.14c-1.52,0-2.76,1.24-2.76,2.76v14.43l-8.35-.63v-14.67c0-1.52-1.24-2.76-2.76-2.76h-2.14c-1.52,0-2.76,1.24-2.76,2.76v14.1l-11.22-.84v-14.97c0-1.52-1.24-2.76-2.76-2.76h-2.14c-1.52,0-2.76,1.24-2.76,2.76v14.39l-1.19-.09-9.75-2.7-.56-6.41h-.33s0,6.25,0,6.25l-11.43-4.48.64-25.39,8.94,3.58.07,10.85h0Z"/>
      <path class="cls-2" d="M227.35,364.76v-25.18l42.17,15.06v17.83l-14.56-2.66v-14.38c0-1.52-1.22-2.95-2.72-3.16l-1.69-.24c-1.49-.21-2.72.86-2.72,2.39v14.09l-11.85-2.17v-14.2c0-1.52-1.22-2.95-2.72-3.16l-1.69-.24c-1.49-.21-2.72.86-2.72,2.39v13.91l-1.52-.28h0ZM132.03,350.71l.6-23.96,7.63,3.05.06,11.06h3.37l-.19-10.36,82.42,8.07-.26,21.09.03,3.6-10.84-.81v-15.05c0-1.89-1.54-3.43-3.43-3.43h-2.14c-1.89,0-3.43,1.54-3.43,3.43v14.37l-8.04-.6v-14.38c0-1.89-1.54-3.43-3.43-3.43h-2.14c-1.89,0-3.43,1.54-3.43,3.43v13.71l-7.01-.53v-14.05c0-1.89-1.54-3.43-3.43-3.43h-2.14c-1.89,0-3.43,1.54-3.43,3.43v13.37l-9.88-.74v-14.34c0-1.89-1.54-3.43-3.43-3.43h-2.14c-1.89,0-3.43,1.54-3.43,3.43v13.67l-.4-.03-9.24-2.56-.57-6.54-1.61-.04v5.97s-10.07-3.96-10.07-3.96h0Z"/>
      <path class="cls-3" d="M339.87,361.57l.09-16.9,42.41-7.7.07,16.94-42.57,7.65h0ZM336.35,362.03l-6.14.35v-14.82c0-2.94-2.54-3.91-5.11-3.91h-.95c-2.81,0-5.11,2.3-5.11,5.11v14.25s-6.9.39-6.9.39l-.11-24.39,24.04-2.44.28,25.46h0ZM271.03,366.18l.26-12.53,36.99-5.95.13,16.96-37.38,1.52h0Z"/>
      <path class="cls-2" d="M340.55,360.77l.08-15.53,41.08-7.46.07,15.58-41.23,7.41h0ZM335.68,361.4l-4.79.27v-14.11c0-3.18-2.6-4.58-5.78-4.58h-.95c-3.18,0-5.78,2.6-5.78,5.78v13.62s-5.57.32-5.57.32l-.1-23.08,22.71-2.31.26,24.09h0ZM271.71,365.48l.23-11.26,35.67-5.74.12,15.53-36.02,1.46h0Z"/>
      <path class="cls-7" d="M462.31,317.43c.5-5.01-2.44-5.77-3.12-2.63-14.22,55.31-335.2,72.27-409.52,9.89-5.24-4.4-3.92-4.29-3.88-11.11-.36-3.17-5.43-3.86-5.49.4,5.59,57.05,55.84,90.73,134.98,109.28,67.05,15.71,130.08,13,195.37-11.49,49.84-18.7,82.24-49.21,91.67-94.33h0Z"/>
      <path class="cls-8" d="M446.92,353.64c-29.19,46.94-116.14,67.45-182.44,68.66-54.66.99-137.69-9.21-174.84-39.86,56.83,30.47,108.02,37.17,169.6,35.4,67-1.93,134.12-9.52,187.68-64.2h0Z"/>
      <path class="cls-8" d="M52.14,342.94c-.85-1.29.29-1.89,1.17-.96,31.88,36.33,85.51,65.14,208.93,62.04,81.85-1.16,149.21-17.22,188.66-61.97,1.21-1.2,2.18-.31,1.11,1.5-39.58,44.96-105.01,64.8-189.93,65.6-130.3.08-183.64-29.73-209.94-66.21h0Z"/>
      <path class="cls-8" d="M56.83,343.74c-1.23-1.61-.38-2.92,1.33-1.68,33.21,32.94,98.93,49.74,203.02,47.48,78.29.57,145.46-10.25,185.82-48.53,2.81-2.22,3.34-.77,2.6.22-33.83,34.15-93.88,53.71-188.47,54.05-86.76-.75-164.55-9.41-204.29-51.54h0Z"/>
      <path class="cls-8" d="M63.4,345.31c-.12-.66-.23-1.31-.35-1.96,49.08,25.89,115.5,35.47,207.75,32.11,77.03-3.06,123.26-8.5,158.51-27.13.31.39.63.78.94,1.18-32.99,17.99-69.49,24.68-114.66,29.29-41.36,4.22-96.66,4.29-137.55.56-53.78-4.91-89.17-17.66-114.64-34.05h0Z"/>
      <path class="cls-8" d="M59.31,337.13c.12-.55.24-1.1.36-1.66,44.53,23.87,105.85,29.13,163.05,31.15,65.51,2.31,142.15-.45,206.7-22.93,1.44-.54,1.94.71,1.23,1.28-39.26,20.5-141.28,26.93-205.6,25.67-59.53-1.17-118.61-5.82-165.74-33.5h0Z"/>
      <path class="cls-9" d="M65.37,211.26l-1.88,11.69,5.23,2.56-1.69,10.53-31.38-17.93,1.81-11.3,35.41-7.15-1.74,10.8-5.77.79h0ZM57.79,212.28l-12.59,1.72,11.41,5.59,1.18-7.31h0ZM73.16,168.72l-6.31-3.12,7.16-14.48,12.9,6.37c.52,3.71.6,6.8.23,9.26-.37,2.47-1.28,5.16-2.72,8.09-1.78,3.6-3.84,6.23-6.19,7.89-2.34,1.66-5.04,2.52-8.08,2.57-3.04.05-6.13-.7-9.27-2.26-3.31-1.64-5.84-3.74-7.62-6.31-1.77-2.57-2.64-5.48-2.61-8.74.03-2.54.91-5.55,2.63-9.02,1.65-3.35,3.2-5.7,4.62-7.06,1.43-1.36,3.05-2.28,4.87-2.74,1.82-.46,3.84-.49,6.07-.07l-2.83,9.82c-1.34-.2-2.53,0-3.57.59-1.05.58-1.92,1.57-2.6,2.95-1.01,2.05-1.11,4.04-.29,5.96.82,1.93,2.78,3.65,5.86,5.17,3.28,1.62,5.92,2.16,7.94,1.62,2.01-.53,3.57-1.91,4.66-4.11.52-1.04.86-2.11,1.03-3.22.16-1.1.19-2.44.07-4.02l-2.84-1.4-3.1,6.27h0ZM47.2,152.26l1.7-3.43c1.26.73,2.21,1.58,2.83,2.56.62.97.93,2.14.93,3.5,0,1.36-.32,2.67-.95,3.94-1.03,2.1-2.41,3.51-4.12,4.22-1.72.71-3.61.69-5.67-.07l1.76-3.56c.93.12,1.69,0,2.28-.34.58-.34,1.13-1.03,1.64-2.05.59-1.2.85-2.14.77-2.82-.08-.68-.46-1.34-1.15-1.95h0ZM98.41,147.87l-26.66-20.82,10.72-13.73c1.99-2.54,3.72-4.32,5.21-5.32,1.48-1.01,3.15-1.46,4.97-1.36,1.83.1,3.6.82,5.3,2.15,1.48,1.15,2.51,2.47,3.09,3.94.59,1.47.78,3.02.58,4.65-.13,1.03-.53,2.27-1.2,3.72,1.09-.72,1.97-1.18,2.65-1.38.45-.13,1.26-.2,2.43-.22,1.16-.01,2.01.03,2.55.15l10.83,2.01-7.27,9.31-11.56-1.95c-1.49-.27-2.56-.3-3.22-.11-.88.28-1.61.79-2.19,1.54l-.57.73,10.8,8.43-6.46,8.26h0ZM89.04,127.25l2.72-3.48c.29-.37.74-1.2,1.34-2.47.32-.63.39-1.29.21-1.99-.18-.7-.56-1.28-1.15-1.73-.86-.67-1.74-.92-2.62-.73-.89.18-1.92,1.03-3.1,2.54l-2.83,3.62,5.44,4.24h0ZM105.73,88.97l7.96-6.83,22.04,25.65-7.96,6.83-22.04-25.66h0ZM147.49,58.49l18.03-7.62c3-1.27,5.62-1.5,7.86-.69,2.24.81,3.82,2.31,4.75,4.51.78,1.84.87,3.67.28,5.46-.39,1.21-1.22,2.37-2.48,3.51,2.47-.41,4.5-.18,6.11.68,1.61.87,2.83,2.29,3.67,4.27.68,1.62.92,3.23.72,4.83-.21,1.61-.81,3.06-1.79,4.36-.62.81-1.69,1.66-3.23,2.56-2.05,1.2-3.42,1.95-4.13,2.25l-16.62,7.02-13.16-31.16h0ZM162.36,66.61l4.2-1.77c1.5-.63,2.44-1.34,2.81-2.1.37-.77.35-1.64-.06-2.62-.39-.91-.98-1.49-1.78-1.75-.8-.27-1.94-.08-3.4.53l-4.26,1.8,2.5,5.92h0ZM167.52,78.84l4.91-2.08c1.66-.7,2.7-1.49,3.14-2.37s.44-1.8.02-2.8c-.39-.92-1.03-1.52-1.95-1.79-.91-.27-2.21-.06-3.9.66l-4.89,2.07,2.67,6.31h0ZM195.37,39.87l27.49-5.14,1.33,7.1-17.18,3.21.99,5.29,15.93-2.98,1.27,6.78-15.93,2.98,1.22,6.55,17.69-3.31,1.41,7.52-28,5.24-6.22-33.24h0ZM242.91,32.98l10.44.09-.22,25.51,16.34.14-.07,8.31-26.78-.23.29-33.82h0ZM289.77,35.72l27.12,6.81-1.76,7.01-16.95-4.26-1.31,5.22,15.72,3.95-1.68,6.69-15.72-3.95-1.62,6.46,17.46,4.38-1.86,7.42-27.63-6.94,8.23-32.8h0ZM337.22,49.69l13.8,7.13c2.71,1.4,4.73,2.91,6.02,4.51,1.29,1.61,2.13,3.38,2.52,5.32.38,1.95.34,3.96-.12,6.04-.45,2.09-1.21,4.15-2.27,6.2-1.66,3.21-3.31,5.51-4.96,6.9-1.64,1.39-3.42,2.35-5.34,2.88-1.92.52-3.72.6-5.42.23-2.32-.51-4.31-1.19-5.95-2.04l-13.8-7.13,15.52-30.05h0ZM342.99,61.28l-8.48,16.41,2.28,1.18c1.94,1.01,3.44,1.5,4.49,1.5,1.04-.01,2.07-.43,3.09-1.26,1.03-.83,2.15-2.45,3.4-4.86,1.64-3.18,2.25-5.62,1.81-7.34-.44-1.71-1.86-3.19-4.27-4.44l-2.32-1.2h0ZM380.55,74.82l8.37,6.32-20.38,26.99-8.37-6.32,20.38-26.99h0ZM387.25,68.7l5.77,4.36-4.15,5.5-5.77-4.36,4.15-5.5h0ZM403.22,92.42l7.72,8.67-3.95,12.68,13.03-2.48,7.67,8.62-23.42,3.26-10.58,9.42-6.97-7.83,10.58-9.42,5.92-22.91h0ZM438.06,135.95l12.96,24.78-6.4,3.35-8.1-15.49-4.77,2.5,7.51,14.36-6.11,3.2-7.51-14.36-5.9,3.09,8.34,15.95-6.78,3.55-13.2-25.24,29.97-15.68h0ZM437.38,184.33l2.93,9.5c-1.51.58-2.6,1.3-3.26,2.14-1.07,1.37-1.38,3.02-.91,4.96.35,1.45.95,2.48,1.82,3.1.87.62,1.75.83,2.65.61.85-.2,1.53-.76,2.02-1.66.49-.9.7-2.79.65-5.65-.08-4.69.49-8.18,1.69-10.48,1.19-2.31,3.07-3.78,5.65-4.4,1.68-.41,3.4-.3,5.13.32,1.74.62,3.28,1.8,4.61,3.56,1.33,1.76,2.41,4.35,3.23,7.77,1.01,4.2,1,7.59-.03,10.17-1.03,2.58-3.2,4.49-6.52,5.73l-2.87-9.42c1.43-.61,2.39-1.41,2.87-2.38.48-.98.55-2.19.2-3.62-.28-1.18-.75-2.01-1.39-2.49-.64-.48-1.33-.63-2.05-.45-.52.13-.93.48-1.23,1.07-.32.57-.45,1.8-.39,3.68.11,4.67-.09,8.08-.61,10.23-.52,2.16-1.39,3.85-2.63,5.07-1.23,1.22-2.75,2.05-4.55,2.48-2.1.51-4.19.39-6.25-.34-2.06-.74-3.8-2.04-5.23-3.92-1.42-1.87-2.52-4.39-3.28-7.57-1.35-5.59-1.2-9.72.43-12.39,1.64-2.67,4.07-4.54,7.32-5.63h0ZM468.74,225.47l1.31,10.4-33.56,4.24-1.32-10.4,33.56-4.24h0ZM477.81,225.99l.91,7.17-6.84.86-.91-7.17,6.84-.87h0Z"/>
      <path class="cls-1" d="M289.12,305.81c-1.95.07-3.9.15-5.85.22.29-2.4.77-4.73,2.72-6.53,2.19,1.64,2.56,4.02,3.13,6.31h0Z"/>
      <path class="cls-9" d="M218.91,454.26v24.71h-6.82v-16.17c-1.1.84-2.17,1.51-3.21,2.03-1.03.51-2.33,1.01-3.89,1.48v-5.5c2.3-.75,4.08-1.64,5.35-2.68,1.27-1.05,2.27-2.34,2.99-3.87h5.58ZM229.9,473.52l6.72-.84c.18.93.48,1.59.9,1.97.42.39.94.58,1.54.58,1.09,0,1.93-.54,2.54-1.64.44-.81.78-2.51,1-5.11-.81.83-1.64,1.44-2.49,1.82-.85.39-1.83.58-2.95.58-2.18,0-4.02-.78-5.51-2.32-1.5-1.55-2.25-3.51-2.25-5.87,0-1.61.38-3.08,1.14-4.41.76-1.32,1.82-2.33,3.15-3.01,1.34-.68,3.02-1.02,5.04-1.02,2.43,0,4.38.42,5.85,1.25,1.47.84,2.65,2.16,3.53,3.98s1.32,4.21,1.32,7.2c0,4.38-.92,7.59-2.77,9.63-1.84,2.04-4.4,3.05-7.68,3.05-1.93,0-3.46-.22-4.58-.67-1.11-.45-2.04-1.1-2.78-1.96-.74-.86-1.31-1.94-1.71-3.23h0ZM242.34,462.68c0-1.32-.33-2.35-1-3.09-.66-.75-1.47-1.12-2.42-1.12-.9,0-1.64.34-2.23,1.01s-.89,1.69-.89,3.04.31,2.4.92,3.12c.61.72,1.38,1.08,2.3,1.08s1.74-.35,2.38-1.05c.63-.7.94-1.69.94-2.99h0ZM275.33,478.97h-20.26c.23-2,.94-3.88,2.12-5.64,1.18-1.77,3.38-3.85,6.62-6.24,1.98-1.47,3.25-2.59,3.81-3.35.55-.76.83-1.49.83-2.17,0-.74-.27-1.38-.82-1.9s-1.24-.79-2.07-.79-1.57.27-2.11.82c-.55.55-.92,1.51-1.1,2.89l-6.75-.55c.27-1.91.75-3.39,1.46-4.46.71-1.07,1.7-1.88,2.99-2.46,1.29-.57,3.07-.85,5.35-.85s4.22.27,5.54.82c1.32.54,2.36,1.37,3.11,2.49.76,1.13,1.14,2.38,1.14,3.77,0,1.48-.44,2.89-1.3,4.24-.86,1.35-2.44,2.83-4.73,4.44-1.36.94-2.27,1.6-2.73,1.97-.46.38-1,.86-1.62,1.48h10.55v5.5h0ZM281.66,454.67h19.72v4.56c-1.71,1.54-3.15,3.22-4.3,5.02-1.39,2.19-2.49,4.62-3.3,7.31-.65,2.09-1.07,4.56-1.3,7.41h-6.72c.53-3.97,1.36-7.29,2.5-9.98s2.94-5.56,5.4-8.62h-12v-5.7h0Z"/>
    </g>
  </g>
</svg>