<?xml version="1.0" encoding="UTF-8"?>
<svg id="Layer_2" data-name="Layer 2" xmlns="http://www.w3.org/2000/svg" xmlns:xlink="http://www.w3.org/1999/xlink" viewBox="0 0 542.62 517.56">
  <defs>
    <style>
      .cls-1, .cls-2, .cls-3 {
        fill: none;
      }

      .cls-4 {
        fill: #00a651;
      }

      .cls-4, .cls-5 {
        fill-rule: evenodd;
      }

      .cls-6 {
        fill: #d1d3d4;
      }

      .cls-5 {
        fill: #ed1c24;
      }

      .cls-2 {
        stroke: #00a651;
      }

      .cls-2, .cls-3 {
        stroke-width: 7.09px;
      }

      .cls-3 {
        stroke: #fff;
      }

      .cls-7 {
        clip-path: url(#clippath);
      }
    </style>
    <clipPath id="clippath">
      <circle class="cls-1" cx="272.47" cy="242.85" r="142.02"/>
    </clipPath>
  </defs>
  <g id="Layer_1-2" data-name="Layer 1">
    <g id="Foreground">
      <g>
        <g>
          <circle class="cls-6" cx="272.47" cy="242.85" r="142.02"/>
          <g class="cls-7">
            <g>
              <path class="cls-3" d="M18.29,280.64c9.71-8.42,29.12-8.42,38.82,0,9.71,8.42,29.12,8.42,38.82,0,9.71-8.42,29.12-8.42,38.82,0,9.71,8.42,29.12,8.42,38.82,0,9.71-8.42,29.12-8.42,38.82,0,9.71,8.42,29.12,8.42,38.82,0,9.71-8.42,29.12-8.42,38.82,0,9.71,8.42,29.12,8.42,38.82,0,9.71-8.42,29.12-8.42,38.82,0s29.12,8.42,38.82,0c9.71-8.42,29.12-8.42,38.82,0,9.71,8.42,29.12,8.42,38.82,0"/>
              <path class="cls-2" d="M18.29,292.98c9.71-8.42,29.12-8.42,38.82,0s29.12,8.42,38.82,0c9.71-8.42,29.12-8.42,38.82,0s29.12,8.42,38.82,0c9.71-8.42,29.12-8.42,38.82,0,9.71,8.42,29.12,8.42,38.82,0,9.71-8.42,29.12-8.42,38.82,0,9.71,8.42,29.12,8.42,38.82,0s29.12-8.42,38.82,0c9.71,8.42,29.12,8.42,38.82,0s29.12-8.42,38.82,0c9.71,8.42,29.12,8.42,38.82,0"/>
              <path class="cls-3" d="M18.29,303.91c9.71-8.42,29.12-8.42,38.82,0,9.71,8.42,29.12,8.42,38.82,0,9.71-8.42,29.12-8.42,38.82,0,9.71,8.42,29.12,8.42,38.82,0,9.71-8.42,29.12-8.42,38.82,0,9.71,8.42,29.12,8.42,38.82,0,9.71-8.42,29.12-8.42,38.82,0,9.71,8.42,29.12,8.42,38.82,0,9.71-8.42,29.12-8.42,38.82,0s29.12,8.42,38.82,0c9.71-8.42,29.12-8.42,38.82,0,9.71,8.42,29.12,8.42,38.82,0"/>
              <path class="cls-2" d="M18.29,316.26c9.71-8.42,29.12-8.42,38.82,0s29.12,8.42,38.82,0c9.71-8.42,29.12-8.42,38.82,0s29.12,8.42,38.82,0c9.71-8.42,29.12-8.42,38.82,0,9.71,8.42,29.12,8.42,38.82,0,9.71-8.42,29.12-8.42,38.82,0,9.71,8.42,29.12,8.42,38.82,0s29.12-8.42,38.82,0c9.71,8.42,29.12,8.42,38.82,0s29.12-8.42,38.82,0c9.71,8.42,29.12,8.42,38.82,0"/>
              <path class="cls-3" d="M18.29,328.53c9.71-8.42,29.12-8.42,38.82,0,9.71,8.42,29.12,8.42,38.82,0,9.71-8.42,29.12-8.42,38.82,0,9.71,8.42,29.12,8.42,38.82,0,9.71-8.42,29.12-8.42,38.82,0,9.71,8.42,29.12,8.42,38.82,0,9.71-8.42,29.12-8.42,38.82,0,9.71,8.42,29.12,8.42,38.82,0,9.71-8.42,29.12-8.42,38.82,0s29.12,8.42,38.82,0c9.71-8.42,29.12-8.42,38.82,0,9.71,8.42,29.12,8.42,38.82,0"/>
              <path class="cls-2" d="M18.29,340.88c9.71-8.42,29.12-8.42,38.82,0s29.12,8.42,38.82,0c9.71-8.42,29.12-8.42,38.82,0s29.12,8.42,38.82,0c9.71-8.42,29.12-8.42,38.82,0,9.71,8.42,29.12,8.42,38.82,0,9.71-8.42,29.12-8.42,38.82,0,9.71,8.42,29.12,8.42,38.82,0s29.12-8.42,38.82,0c9.71,8.42,29.12,8.42,38.82,0s29.12-8.42,38.82,0c9.71,8.42,29.12,8.42,38.82,0"/>
              <path class="cls-3" d="M18.29,351.73c9.71-8.42,29.12-8.42,38.82,0s29.12,8.42,38.82,0c9.71-8.42,29.12-8.42,38.82,0s29.12,8.42,38.82,0c9.71-8.42,29.12-8.42,38.82,0,9.71,8.42,29.12,8.42,38.82,0,9.71-8.42,29.12-8.42,38.82,0,9.71,8.42,29.12,8.42,38.82,0s29.12-8.42,38.82,0c9.71,8.42,29.12,8.42,38.82,0s29.12-8.42,38.82,0c9.71,8.42,29.12,8.42,38.82,0"/>
              <path class="cls-2" d="M18.29,364.08c9.71-8.42,29.12-8.42,38.82,0s29.12,8.42,38.82,0c9.71-8.42,29.12-8.42,38.82,0s29.12,8.42,38.82,0c9.71-8.42,29.12-8.42,38.82,0,9.71,8.42,29.12,8.42,38.82,0,9.71-8.42,29.12-8.42,38.82,0,9.71,8.42,29.12,8.42,38.82,0s29.12-8.42,38.82,0c9.71,8.42,29.12,8.42,38.82,0s29.12-8.42,38.82,0c9.71,8.42,29.12,8.42,38.82,0"/>
              <path class="cls-3" d="M18.29,375c9.71-8.42,29.12-8.42,38.82,0s29.12,8.42,38.82,0c9.71-8.42,29.12-8.42,38.82,0s29.12,8.42,38.82,0c9.71-8.42,29.12-8.42,38.82,0,9.71,8.42,29.12,8.42,38.82,0,9.71-8.42,29.12-8.42,38.82,0,9.71,8.42,29.12,8.42,38.82,0s29.12-8.42,38.82,0c9.71,8.42,29.12,8.42,38.82,0s29.12-8.42,38.82,0c9.71,8.42,29.12,8.42,38.82,0"/>
              <path class="cls-2" d="M18.29,387.35c9.71-8.42,29.12-8.42,38.82,0s29.12,8.42,38.82,0c9.71-8.42,29.12-8.42,38.82,0s29.12,8.42,38.82,0c9.71-8.42,29.12-8.42,38.82,0,9.71,8.42,29.12,8.42,38.82,0,9.71-8.42,29.12-8.42,38.82,0,9.71,8.42,29.12,8.42,38.82,0s29.12-8.42,38.82,0c9.71,8.42,29.12,8.42,38.82,0s29.12-8.42,38.82,0c9.71,8.42,29.12,8.42,38.82,0"/>
            </g>
          </g>
        </g>
        <path class="cls-4" d="M489.79,0c-2.38,3.02-10.69,15.02-6.86,31.1,4.45,18.68,11.03,33.09.36,58.89-4.85,11.72-18.5,24.35-31.96,34.65-24.78-37.64-61.1-66.97-104.05-82.69-7.43-2.72-14.91-2.07-21.53-.42-6.54,1.63-13.18,4.51-19.23,7.23-5.86,2.63-11.92,5.45-18.06,7.7-14.75,5.4-23.21.79-25.79-.26-24.02-9.79-20.06-48.04,6.23-48.04h185.92c24.87,0,32.9-6.02,34.97-8.15Z"/>
        <path class="cls-5" d="M68.39,242.85c0-87.66,54.99-162.97,132.73-191.44,19.24-7.05,45.37,18.31,71.35,18.48,25.98-.17,52.1-25.53,71.35-18.48,77.74,28.46,132.73,103.78,132.73,191.44,0,112.68-91.19,204.06-203.8,204.35h-.56c-112.61-.3-203.8-91.68-203.8-204.35ZM114.87,242.85c0-87.04,70.56-157.6,157.6-157.6s157.6,70.56,157.6,157.6-70.56,157.6-157.6,157.6-157.6-70.56-157.6-157.6Z"/>
        <path d="M490.74,291.33l1.64-8.43,8.05,1.56-1.64,8.43-8.05-1.56ZM500.78,295.28l2.38-12.24,39.46,7.67-2.38,12.24-39.46-7.67ZM12.46,308.21l-2.93-13.77-6.9-.6-2.64-12.4,42.46,6.44,2.83,13.3-36.19,23.09-2.7-12.72,6.06-3.35ZM20.43,303.82l13.22-7.29-15.05-1.3,1.83,8.6ZM50.26,320.61l6.92,14.85-19.53,16,24.81-4.67,6.89,14.78-36.43,16.99-4.29-9.21,27.78-12.95-31.09,5.85-3.89-8.34,24.47-20.04-27.78,12.95-4.29-9.21,36.43-16.99ZM62.35,409.23l-8.47-11.24-6.51,2.38-7.63-10.13,41.21-12.11,8.18,10.86-23.04,36.22-7.83-10.38,4.08-5.6ZM67.71,401.89l8.9-12.2-14.19,5.18,5.29,7.02ZM82.03,422.32l9.13,7.5c-1.12,1.57-1.73,2.99-1.83,4.26-.17,2.06.62,3.89,2.35,5.51,1.3,1.21,2.58,1.84,3.85,1.88s2.28-.33,3.02-1.13c.71-.76,1.01-1.75.91-2.97-.1-1.22-1.12-3.23-3.05-6.03-3.15-4.61-4.87-8.44-5.19-11.5-.33-3.08.58-5.76,2.72-8.06,1.41-1.51,3.17-2.52,5.3-3.05,2.13-.52,4.43-.35,6.9.52s5.24,2.73,8.3,5.59c3.76,3.5,5.97,6.87,6.63,10.11.67,3.24-.24,6.56-2.71,9.96l-9.01-7.46c1.02-1.55,1.44-2.96,1.28-4.25-.16-1.28-.89-2.53-2.17-3.72-1.06-.98-2.06-1.5-3.01-1.55-.95-.05-1.73.24-2.33.88-.44.47-.61,1.09-.53,1.87.06.78.73,2.08,2.02,3.91,3.17,4.55,5.2,8.07,6.1,10.54.9,2.48,1.14,4.73.71,6.75s-1.39,3.84-2.89,5.44c-1.76,1.89-3.9,3.14-6.43,3.76-2.52.62-5.11.47-7.74-.45-2.64-.92-5.38-2.71-8.22-5.36-5-4.66-7.56-8.85-7.69-12.56-.13-3.71,1.06-7.18,3.57-10.38ZM129.4,429.66l11.7,7.31-.28,15.78,14.04-7.19,11.63,7.27-25.62,11.54-8.92,14.28-10.57-6.6,8.92-14.28-.9-28.11ZM178.01,493.44l-13.05-5.27-4.35,5.39-11.76-4.75,29.08-31.6,12.61,5.1-1.09,42.91-12.06-4.87.62-6.9ZM178.82,484.39l1.35-15.04-9.5,11.75,8.15,3.29ZM227.89,473.52l23.1,2.84c3.85.47,6.69,1.79,8.51,3.95,1.83,2.16,2.57,4.64,2.22,7.46-.29,2.36-1.27,4.29-2.95,5.8-1.12,1.01-2.66,1.72-4.63,2.14,2.78,1.04,4.74,2.48,5.89,4.33,1.14,1.84,1.56,4.04,1.25,6.58-.25,2.07-.96,3.87-2.13,5.4-1.17,1.53-2.64,2.68-4.43,3.43-1.11.47-2.72.72-4.84.73-2.82.02-4.69-.02-5.59-.14l-21.29-2.61,4.9-39.9ZM238.39,490.7l5.37.66c1.93.24,3.31.07,4.15-.5s1.33-1.48,1.49-2.74c.14-1.16-.12-2.12-.8-2.86-.67-.75-1.95-1.23-3.82-1.47l-5.46-.67-.93,7.58ZM236.47,506.36l6.29.77c2.12.26,3.67.07,4.63-.58.96-.65,1.52-1.6,1.68-2.87.14-1.18-.17-2.18-.94-3s-2.24-1.37-4.4-1.63l-6.26-.77-.99,8.08ZM272.18,477.46l33.16-2.32.6,8.57-20.72,1.45.45,6.39,19.21-1.34.57,8.18-19.21,1.34.55,7.9,21.34-1.49.64,9.07-33.77,2.36-2.8-40.1ZM313.4,473.87l12.04-3,7.34,29.42,18.85-4.7,2.39,9.59-30.89,7.7-9.73-39.01ZM350.55,464.28l30.36-13.52,3.49,7.85-18.98,8.45,2.6,5.85,17.59-7.83,3.33,7.49-17.59,7.83,3.22,7.23,19.54-8.7,3.7,8.31-30.93,13.77-16.35-36.72ZM388.22,447.01l15.48-10.05c3.05-1.98,5.79-3.17,8.2-3.56,2.42-.39,4.74-.21,6.97.54s4.29,1.97,6.18,3.67c1.89,1.7,3.58,3.69,5.07,5.99,2.34,3.6,3.74,6.66,4.21,9.18s.41,4.92-.17,7.21c-.59,2.29-1.57,4.2-2.95,5.73-1.89,2.1-3.76,3.75-5.61,4.95l-15.48,10.05-21.89-33.71ZM403.58,447.88l11.96,18.41,2.56-1.66c2.18-1.42,3.58-2.67,4.19-3.75s.78-2.39.53-3.94c-.26-1.54-1.26-3.66-3.01-6.36-2.32-3.57-4.49-5.63-6.52-6.19-2.02-.56-4.39.04-7.1,1.8l-2.61,1.69ZM424.42,420.95l9.26-8.34,26.9,29.87-9.26,8.34-26.9-29.87ZM418.78,411.75l6.38-5.75,5.49,6.09-6.38,5.75-5.49-6.09ZM438.25,409.39l8.87-10.57,15.59,2.47-5.16-14.9,8.82-10.51,7.86,26.97,12.9,10.82-8.01,9.55-12.9-10.82-27.96-3.02ZM468.77,371.55l16.11-29.07,7.51,4.16-10.07,18.17,5.6,3.1,9.34-16.84,7.17,3.97-9.34,16.84,6.92,3.84,10.37-18.71,7.95,4.41-16.41,29.61-35.16-19.49ZM512.94,345.8l3.14-11.39c1.89.38,3.43.36,4.64-.06,1.95-.68,3.31-2.15,4.08-4.39.58-1.68.63-3.1.15-4.28-.47-1.18-1.23-1.94-2.26-2.3-.98-.34-2.01-.21-3.09.38s-2.49,2.34-4.27,5.24c-2.93,4.75-5.73,7.89-8.4,9.42-2.68,1.55-5.5,1.81-8.47.79-1.95-.67-3.6-1.87-4.94-3.6s-2.12-3.9-2.33-6.51.37-5.9,1.73-9.85c1.67-4.86,3.85-8.24,6.54-10.17,2.69-1.92,6.08-2.45,10.2-1.58l-3.15,11.27c-1.83-.3-3.29-.11-4.4.56-1.11.67-1.95,1.84-2.52,3.5-.47,1.36-.53,2.49-.19,3.38.34.89.93,1.48,1.75,1.76.6.21,1.24.12,1.92-.28.69-.37,1.6-1.52,2.75-3.44,2.87-4.75,5.25-8.03,7.15-9.86s3.86-2.96,5.88-3.39,4.07-.29,6.15.42c2.44.84,4.45,2.29,6.05,4.34,1.59,2.05,2.51,4.47,2.74,7.26s-.29,6.01-1.55,9.69c-2.22,6.46-5.01,10.5-8.35,12.13-3.34,1.63-6.99,1.95-10.94.96Z"/>
      </g>
    </g>
  </g>
</svg>