<?xml version="1.0" encoding="iso-8859-1"?>
<!-- Generator: Adobe Illustrator 29.7.1, SVG Export Plug-In . SVG Version: 9.03 Build 0)  -->
<svg version="1.1" xmlns="http://www.w3.org/2000/svg" xmlns:xlink="http://www.w3.org/1999/xlink" x="0px" y="0px"
	 viewBox="0 0 595 842" style="enable-background:new 0 0 595 842;" xml:space="preserve">
<g id="Background">
</g>
<g id="Foreground">
	<g>
		<g>
			<g>
				<circle style="fill:#D1D3D4;" cx="295.17" cy="569.418" r="79.823"/>
				<path style="fill:#D1D3D4;" d="M295.17,569.418"/>
			</g>
			<g>
				<defs>
					<circle id="SVGID_1_" cx="295.17" cy="569.418" r="79.823"/>
				</defs>
				<clipPath id="SVGID_00000136408591590391981140000016309579681557028997_">
					<use xlink:href="#SVGID_1_"  style="overflow:visible;"/>
				</clipPath>
				<g style="clip-path:url(#SVGID_00000136408591590391981140000016309579681557028997_);">
					<g>
						<path style="fill:none;stroke:#FFFFFF;stroke-width:7.0866;" d="M152.308,590.654c5.455-4.73,16.366-4.73,21.821,0
							c5.455,4.73,16.365,4.73,21.821,0c5.455-4.73,16.366-4.73,21.821,0c5.455,4.73,16.366,4.73,21.821,0
							c5.456-4.73,16.366-4.73,21.821,0c5.456,4.73,16.365,4.73,21.821,0c5.456-4.73,16.366-4.73,21.821,0
							c5.455,4.73,16.366,4.73,21.821,0c5.455-4.73,16.366-4.73,21.821,0c5.455,4.73,16.366,4.73,21.821,0
							c5.455-4.73,16.366-4.73,21.82,0c5.456,4.73,16.366,4.73,21.821,0"/>
					</g>
					<g>
						<path style="fill:none;stroke:#00A651;stroke-width:7.0866;" d="M152.308,597.593c5.455-4.73,16.366-4.73,21.821,0
							c5.455,4.73,16.365,4.73,21.821,0c5.455-4.73,16.366-4.73,21.821,0c5.455,4.73,16.366,4.73,21.821,0
							c5.456-4.73,16.366-4.73,21.821,0c5.456,4.73,16.365,4.73,21.821,0c5.456-4.73,16.366-4.73,21.821,0
							c5.455,4.73,16.366,4.73,21.821,0c5.455-4.73,16.366-4.73,21.821,0c5.455,4.73,16.366,4.73,21.821,0
							c5.455-4.73,16.366-4.73,21.82,0c5.456,4.73,16.366,4.73,21.821,0"/>
					</g>
					<g>
						<path style="fill:none;stroke:#FFFFFF;stroke-width:7.0866;" d="M152.308,603.736c5.455-4.73,16.366-4.73,21.821,0
							c5.455,4.73,16.365,4.73,21.821,0c5.455-4.73,16.366-4.73,21.821,0c5.455,4.73,16.366,4.73,21.821,0
							c5.456-4.73,16.366-4.73,21.821,0c5.456,4.73,16.365,4.73,21.821,0c5.456-4.73,16.366-4.73,21.821,0
							c5.455,4.73,16.366,4.73,21.821,0c5.455-4.73,16.366-4.73,21.821,0c5.455,4.73,16.366,4.73,21.821,0
							c5.455-4.73,16.366-4.73,21.82,0c5.456,4.73,16.366,4.73,21.821,0"/>
					</g>
					<g>
						<path style="fill:none;stroke:#00A651;stroke-width:7.0866;" d="M152.308,610.675c5.455-4.73,16.366-4.73,21.821,0
							c5.455,4.73,16.365,4.73,21.821,0c5.455-4.73,16.366-4.73,21.821,0c5.455,4.73,16.366,4.73,21.821,0
							c5.456-4.73,16.366-4.73,21.821,0c5.456,4.73,16.365,4.73,21.821,0c5.456-4.73,16.366-4.73,21.821,0
							c5.455,4.73,16.366,4.73,21.821,0c5.455-4.73,16.366-4.73,21.821,0c5.455,4.73,16.366,4.73,21.821,0
							c5.455-4.73,16.366-4.73,21.82,0c5.456,4.73,16.366,4.73,21.821,0"/>
					</g>
					<g>
						<path style="fill:none;stroke:#FFFFFF;stroke-width:7.0866;" d="M152.308,617.573c5.455-4.73,16.366-4.73,21.821,0
							c5.455,4.73,16.365,4.73,21.821,0c5.455-4.73,16.366-4.73,21.821,0c5.455,4.73,16.366,4.73,21.821,0
							c5.456-4.73,16.366-4.73,21.821,0c5.456,4.73,16.365,4.73,21.821,0c5.456-4.73,16.366-4.73,21.821,0
							c5.455,4.73,16.366,4.73,21.821,0c5.455-4.73,16.366-4.73,21.821,0c5.455,4.73,16.366,4.73,21.821,0
							c5.455-4.73,16.366-4.73,21.82,0c5.456,4.73,16.366,4.73,21.821,0"/>
					</g>
					<g>
						<path style="fill:none;stroke:#00A651;stroke-width:7.0866;" d="M152.308,624.512c5.455-4.73,16.366-4.73,21.821,0
							c5.455,4.73,16.365,4.73,21.821,0c5.455-4.73,16.366-4.73,21.821,0c5.455,4.73,16.366,4.73,21.821,0
							c5.456-4.73,16.366-4.73,21.821,0c5.456,4.73,16.365,4.73,21.821,0c5.456-4.73,16.366-4.73,21.821,0
							c5.455,4.73,16.366,4.73,21.821,0c5.455-4.73,16.366-4.73,21.821,0c5.455,4.73,16.366,4.73,21.821,0
							c5.455-4.73,16.366-4.73,21.82,0c5.456,4.73,16.366,4.73,21.821,0"/>
					</g>
					<g>
						<path style="fill:none;stroke:#FFFFFF;stroke-width:7.0866;" d="M152.308,630.613c5.455-4.73,16.366-4.73,21.821,0
							c5.455,4.73,16.365,4.73,21.821,0c5.455-4.73,16.366-4.73,21.821,0c5.455,4.73,16.366,4.73,21.821,0
							c5.456-4.73,16.366-4.73,21.821,0c5.456,4.73,16.365,4.73,21.821,0c5.456-4.73,16.366-4.73,21.821,0
							c5.455,4.73,16.366,4.73,21.821,0c5.455-4.73,16.366-4.73,21.821,0c5.455,4.73,16.366,4.73,21.821,0
							c5.455-4.73,16.366-4.73,21.82,0c5.456,4.73,16.366,4.73,21.821,0"/>
					</g>
					<g>
						<path style="fill:none;stroke:#00A651;stroke-width:7.0866;" d="M152.308,637.552c5.455-4.73,16.366-4.73,21.821,0
							c5.455,4.73,16.365,4.73,21.821,0c5.455-4.73,16.366-4.73,21.821,0c5.455,4.73,16.366,4.73,21.821,0
							c5.456-4.73,16.366-4.73,21.821,0c5.456,4.73,16.365,4.73,21.821,0c5.456-4.73,16.366-4.73,21.821,0
							c5.455,4.73,16.366,4.73,21.821,0c5.455-4.73,16.366-4.73,21.821,0c5.455,4.73,16.366,4.73,21.821,0
							c5.455-4.73,16.366-4.73,21.82,0c5.456,4.73,16.366,4.73,21.821,0"/>
					</g>
					<g>
						<path style="fill:none;stroke:#FFFFFF;stroke-width:7.0866;" d="M152.308,643.695c5.455-4.73,16.366-4.73,21.821,0
							c5.455,4.73,16.365,4.73,21.821,0c5.455-4.73,16.366-4.73,21.821,0c5.455,4.73,16.366,4.73,21.821,0
							c5.456-4.73,16.366-4.73,21.821,0c5.456,4.73,16.365,4.73,21.821,0c5.456-4.73,16.366-4.73,21.821,0
							c5.455,4.73,16.366,4.73,21.821,0c5.455-4.73,16.366-4.73,21.821,0c5.455,4.73,16.366,4.73,21.821,0
							c5.455-4.73,16.366-4.73,21.82,0c5.456,4.73,16.366,4.73,21.821,0"/>
					</g>
					<g>
						<path style="fill:none;stroke:#00A651;stroke-width:7.0866;" d="M152.308,650.634c5.455-4.73,16.366-4.73,21.821,0
							c5.455,4.73,16.365,4.73,21.821,0c5.455-4.73,16.366-4.73,21.821,0c5.455,4.73,16.366,4.73,21.821,0
							c5.456-4.73,16.366-4.73,21.821,0c5.456,4.73,16.365,4.73,21.821,0c5.456-4.73,16.366-4.73,21.821,0
							c5.455,4.73,16.366,4.73,21.821,0c5.455-4.73,16.366-4.73,21.821,0c5.455,4.73,16.366,4.73,21.821,0
							c5.455-4.73,16.366-4.73,21.82,0c5.456,4.73,16.366,4.73,21.821,0"/>
					</g>
				</g>
			</g>
		</g>
		<g>
			<path style="fill-rule:evenodd;clip-rule:evenodd;fill:#00A651;" d="M417.323,432.917c-1.339,1.699-6.008,8.442-3.856,17.483
				c2.5,10.5,6.201,18.6,0.201,33.1c-2.725,6.585-10.398,13.685-17.965,19.474c-13.928-21.159-34.341-37.641-58.482-46.48
				c-4.174-1.528-8.382-1.166-12.099-0.238c-3.677,0.918-7.406,2.534-10.807,4.064c-3.291,1.48-6.701,3.064-10.15,4.327
				c-8.289,3.035-13.047,0.444-14.497-0.147c-13.5-5.5-11.276-27,3.5-27h104.5C411.649,437.5,416.161,434.118,417.323,432.917z"/>
		</g>
		<g>
			<path style="fill-rule:evenodd;clip-rule:evenodd;fill:#ED1C24;" d="M180.466,569.418c0-49.271,30.908-91.601,74.603-107.6
				c10.816-3.96,25.499,10.291,40.102,10.388c14.603-0.097,29.286-14.349,40.102-10.388c43.695,15.999,74.603,58.329,74.603,107.6
				c0,63.333-51.255,114.693-114.549,114.861h-0.312C231.722,684.109,180.466,632.75,180.466,569.418z M206.588,569.418
				c0-48.923,39.659-88.582,88.582-88.582s88.582,39.659,88.582,88.582c0,48.923-39.659,88.582-88.582,88.582
				S206.588,618.341,206.588,569.418z"/>
		</g>
		<g>
			<path d="M417.855,596.665l0.921-4.739l4.523,0.879l-0.921,4.739L417.855,596.665z M423.499,598.887l1.337-6.877l22.179,4.311
				l-1.337,6.877L423.499,598.887z M149.03,606.151l-1.645-7.739l-3.878-0.336l-1.482-6.971l23.868,3.619l1.589,7.477l-20.34,12.98
				l-1.52-7.149L149.03,606.151z M153.506,603.685l7.433-4.099l-8.46-0.732L153.506,603.685z M170.272,613.123l3.891,8.344
				l-10.978,8.992l13.947-2.624l3.875,8.31l-20.477,9.549l-2.414-5.177l15.613-7.28l-17.475,3.286l-2.187-4.69l13.754-11.266
				l-15.613,7.28l-2.414-5.177L170.272,613.123z M177.068,662.931l-4.761-6.319l-3.657,1.335l-4.289-5.692l23.161-6.807l4.6,6.105
				l-12.948,20.36l-4.399-5.837L177.068,662.931z M180.083,658.804l5.004-6.857l-7.977,2.912L180.083,658.804z M188.13,670.289
				l5.129,4.216c-0.627,0.883-0.971,1.681-1.031,2.393c-0.095,1.156,0.346,2.189,1.322,3.099c0.728,0.679,1.449,1.032,2.162,1.058
				c0.713,0.026,1.279-0.186,1.699-0.637c0.399-0.428,0.57-0.985,0.512-1.67c-0.058-0.685-0.63-1.815-1.715-3.389
				c-1.768-2.589-2.74-4.744-2.916-6.466c-0.184-1.729,0.325-3.238,1.529-4.529c0.791-0.848,1.784-1.419,2.979-1.715
				c1.195-0.295,2.488-0.198,3.878,0.292c1.39,0.49,2.945,1.536,4.665,3.141c2.111,1.968,3.353,3.862,3.728,5.681
				c0.375,1.819-0.133,3.685-1.522,5.596l-5.065-4.193c0.571-0.869,0.811-1.664,0.719-2.387c-0.092-0.722-0.498-1.42-1.219-2.092
				c-0.593-0.553-1.158-0.844-1.693-0.873c-0.535-0.029-0.97,0.137-1.307,0.497c-0.245,0.263-0.344,0.613-0.297,1.049
				c0.033,0.438,0.412,1.17,1.137,2.198c1.781,2.559,2.924,4.535,3.43,5.927c0.505,1.392,0.638,2.657,0.397,3.795
				c-0.241,1.138-0.782,2.159-1.622,3.06c-0.988,1.06-2.192,1.764-3.612,2.112c-1.419,0.348-2.87,0.263-4.352-0.255
				c-1.482-0.518-3.022-1.523-4.622-3.014c-2.808-2.618-4.248-4.972-4.321-7.062C186.049,674.033,186.718,672.088,188.13,670.289z
				 M214.758,674.413l6.576,4.109l-0.156,8.872l7.889-4.039l6.538,4.085l-14.398,6.487l-5.014,8.025l-5.941-3.712l5.014-8.025
				L214.758,674.413z M242.077,710.265l-7.336-2.964l-2.447,3.027l-6.608-2.67l16.347-17.764l7.087,2.864l-0.612,24.121
				l-6.777-2.738L242.077,710.265z M242.536,705.175l0.758-8.454l-5.338,6.604L242.536,705.175z M270.112,699.066l12.981,1.594
				c2.163,0.266,3.759,1.005,4.785,2.218c1.027,1.213,1.443,2.61,1.249,4.191c-0.163,1.326-0.716,2.413-1.659,3.26
				c-0.629,0.565-1.496,0.966-2.603,1.203c1.562,0.585,2.665,1.396,3.309,2.432c0.643,1.036,0.877,2.268,0.702,3.696
				c-0.143,1.162-0.541,2.174-1.196,3.035c-0.655,0.861-1.484,1.505-2.489,1.93c-0.623,0.265-1.53,0.402-2.722,0.411
				c-1.586,0.012-2.634-0.013-3.144-0.076l-11.966-1.469L270.112,699.066z M276.016,708.725l3.021,0.371
				c1.084,0.133,1.861,0.039,2.331-0.282c0.47-0.321,0.748-0.834,0.835-1.538c0.08-0.654-0.069-1.191-0.448-1.61
				c-0.379-0.42-1.095-0.694-2.148-0.824l-3.067-0.377L276.016,708.725z M274.935,717.526l3.536,0.434
				c1.194,0.147,2.062,0.039,2.603-0.324c0.542-0.363,0.857-0.901,0.944-1.615c0.081-0.663-0.096-1.225-0.531-1.687
				s-1.26-0.768-2.475-0.917l-3.521-0.432L274.935,717.526z M295.007,701.281l18.636-1.303l0.337,4.816l-11.647,0.815l0.251,3.589
				l10.797-0.755l0.321,4.596l-10.797,0.755l0.31,4.438l11.993-0.839l0.357,5.1l-18.982,1.327L295.007,701.281z M318.176,699.264
				l6.767-1.687l4.123,16.534l10.594-2.641l1.344,5.389l-17.361,4.329L318.176,699.264z M339.059,693.876l17.066-7.598l1.964,4.411
				l-10.666,4.749l1.463,3.286l9.888-4.402l1.874,4.209l-9.888,4.402l1.81,4.065l10.984-4.89l2.079,4.67l-17.383,7.739
				L339.059,693.876z M360.23,684.166l8.701-5.65c1.715-1.114,3.252-1.781,4.61-2.001c1.358-0.22,2.664-0.119,3.919,0.303
				c1.255,0.422,2.412,1.11,3.472,2.064c1.06,0.953,2.01,2.076,2.849,3.369c1.315,2.025,2.104,3.745,2.368,5.16
				c0.264,1.415,0.231,2.766-0.098,4.052c-0.329,1.286-0.882,2.359-1.659,3.219c-1.061,1.179-2.112,2.107-3.155,2.784l-8.701,5.65
				L360.23,684.166z M368.863,684.655l6.72,10.348l1.439-0.935c1.227-0.797,2.012-1.499,2.354-2.107
				c0.342-0.608,0.441-1.345,0.296-2.212c-0.145-0.867-0.71-2.058-1.694-3.574c-1.303-2.007-2.524-3.167-3.662-3.482
				c-1.138-0.314-2.467,0.023-3.988,1.01L368.863,684.655z M380.576,669.52l5.206-4.688l15.119,16.79l-5.206,4.688L380.576,669.52z
				 M377.406,664.349l3.588-3.23l3.083,3.424l-3.588,3.231L377.406,664.349z M388.354,663.021l4.984-5.94l8.764,1.389l-2.902-8.374
				l4.955-5.905l4.42,15.16l7.249,6.083l-4.503,5.366l-7.249-6.083L388.354,663.021z M405.506,641.753l9.057-16.339l4.223,2.341
				l-5.66,10.212l3.146,1.744l5.247-9.467l4.03,2.234l-5.247,9.466l3.892,2.157l5.829-10.515l4.471,2.478l-9.225,16.642
				L405.506,641.753z M430.333,627.281l1.766-6.401c1.062,0.214,1.93,0.203,2.606-0.031c1.094-0.383,1.859-1.206,2.293-2.468
				c0.324-0.942,0.353-1.743,0.087-2.405c-0.266-0.662-0.69-1.093-1.273-1.293c-0.553-0.191-1.131-0.12-1.734,0.211
				c-0.603,0.331-1.402,1.313-2.398,2.945c-1.646,2.668-3.22,4.432-4.721,5.294c-1.504,0.872-3.091,1.02-4.76,0.446
				c-1.096-0.378-2.022-1.052-2.778-2.024c-0.756-0.972-1.193-2.192-1.311-3.661c-0.118-1.469,0.206-3.315,0.971-5.539
				c0.939-2.729,2.164-4.634,3.674-5.716c1.51-1.082,3.42-1.378,5.732-0.886l-1.77,6.332c-1.026-0.169-1.85-0.064-2.473,0.314
				c-0.623,0.378-1.094,1.032-1.415,1.965c-0.264,0.767-0.3,1.401-0.109,1.901c0.191,0.5,0.52,0.831,0.986,0.991
				c0.34,0.117,0.699,0.065,1.079-0.156c0.386-0.208,0.901-0.852,1.545-1.933c1.614-2.668,2.953-4.516,4.019-5.544
				c1.066-1.028,2.168-1.663,3.306-1.906c1.138-0.243,2.29-0.164,3.456,0.237c1.37,0.472,2.503,1.285,3.398,2.44
				c0.896,1.155,1.408,2.515,1.538,4.08s-0.161,3.38-0.873,5.448c-1.25,3.63-2.814,5.904-4.694,6.82
				C434.6,627.659,432.552,627.839,430.333,627.281z"/>
		</g>
	</g>
</g>
<g id="Guides">
</g>
</svg>
