<?xml version="1.0" encoding="iso-8859-1"?>
<!-- Generator: Adobe Illustrator 29.7.1, SVG Export Plug-In . SVG Version: 9.03 Build 0)  -->
<svg version="1.1" id="katman_1" xmlns="http://www.w3.org/2000/svg" xmlns:xlink="http://www.w3.org/1999/xlink" x="0px" y="0px"
	 viewBox="0 0 841.89 595.28" style="enable-background:new 0 0 841.89 595.28;" xml:space="preserve">
<path style="fill:#FFFFFF;" d="M101.32,114.99h222.36v253.48c0,61.32-49.93,111.25-111.11,111.25
	c-61.32,0-111.25-49.96-111.25-111.25C101.32,368.47,101.32,114.99,101.32,114.99z"/>
<path style="fill-rule:evenodd;clip-rule:evenodd;fill:#223E7C;" d="M315.47,150.51H109.52v217.96
	c0,56.8,46.27,103.07,103.07,103.07c56.63,0,102.9-46.27,102.9-103.07V150.51H315.47z"/>
<polygon style="fill-rule:evenodd;clip-rule:evenodd;fill:#FFFFFF;" points="262.59,279.81 271.91,288.22 289.47,288.22 
	298.8,279.81 298.8,279.81 "/>
<polygon style="fill-rule:evenodd;clip-rule:evenodd;fill:#FFFFFF;" points="144.33,178.08 135.72,224.79 152.94,224.79 "/>
<polygon style="fill-rule:evenodd;clip-rule:evenodd;fill:#FFFFFF;" points="271.94,267.83 271.94,267.83 262.59,267.83 
	262.59,275.01 298.8,275.01 298.8,267.83 289.47,267.83 289.47,267.83 "/>
<polygon style="fill-rule:evenodd;clip-rule:evenodd;fill:#FFFFFF;" points="162.49,279.81 162.49,279.81 126.17,279.81 
	126.17,279.81 135.49,288.19 153.08,288.19 "/>
<rect x="271.94" y="292.74" style="fill-rule:evenodd;clip-rule:evenodd;fill:#FFFFFF;" width="17.53" height="16.5"/>
<polygon style="fill-rule:evenodd;clip-rule:evenodd;fill:#FFFFFF;" points="153.05,292.43 135.52,292.43 135.61,309.24 
	153.05,309.24 "/>
<path style="fill-rule:evenodd;clip-rule:evenodd;fill:#FFFFFF;" d="M271.94,326.03h-5.52V314.1h-5.43v3.2h-5.52v-3.2h-85.86v3.2
	h-5.46v-3.2h-5.52v11.93h-5.55v-11.98h-17.53l0.09,58.09c0,27.43,14.73,52.82,38.55,66.61c-15.67-11.98-24.85-30.54-24.85-50.16
	c0-31.69,23.82-58.51,55.08-62.55h16.3c31.14,4.03,54.97,30.86,54.97,62.55c0,19.65-9.18,38.18-24.77,50.16
	c23.74-13.78,38.47-39.18,38.55-66.61v-58.09h-17.53V326.03L271.94,326.03z"/>
<rect x="126.17" y="267.83" style="fill-rule:evenodd;clip-rule:evenodd;fill:#FFFFFF;" width="36.29" height="7.18"/>
<polygon style="fill-rule:evenodd;clip-rule:evenodd;fill:#FFFFFF;" points="153.05,229.59 135.61,229.59 135.52,263.11 
	153.05,263.11 "/>
<rect x="271.94" y="229.59" style="fill-rule:evenodd;clip-rule:evenodd;fill:#FFFFFF;" width="17.53" height="33.43"/>
<polygon style="fill-rule:evenodd;clip-rule:evenodd;fill:#FFFFFF;" points="280.66,178.08 272.06,224.79 289.33,224.79 "/>
<polygon style="fill-rule:evenodd;clip-rule:evenodd;fill:#00AECB;" points="195.84,348.45 229.16,348.45 232.04,404.59 
	193.03,404.59 "/>
<polygon style="fill-rule:evenodd;clip-rule:evenodd;fill:#FFFFFF;" points="212.57,379.34 220.66,404.36 246.86,404.36 
	225.67,419.78 233.67,444.78 212.57,429.36 191.32,444.78 199.41,419.78 178.22,404.36 204.47,404.36 "/>
<polygon style="fill-rule:evenodd;clip-rule:evenodd;fill:#00AECB;" points="240.62,337.24 240.62,340.5 233.53,340.5 
	233.53,345.25 191.55,345.25 191.55,340.5 184.37,340.5 184.37,337.24 "/>
<polygon style="fill-rule:evenodd;clip-rule:evenodd;fill:#00AECB;" points="195.84,329.75 175.02,317.31 250.03,317.31 
	228.93,329.75 228.93,334.04 195.84,334.04 "/>
<path style="fill-rule:evenodd;clip-rule:evenodd;fill:#00AECB;" d="M214.37,265.26c22.74,1.03,41.07,19.88,41.07,42.93h-85.86
	c0-23.05,18.3-41.9,41.13-42.93l1.86-13.38L214.37,265.26z"/>
<rect x="164.12" y="320.48" style="fill-rule:evenodd;clip-rule:evenodd;fill:#223E7C;" width="5.46" height="5.52"/>
<rect x="255.44" y="320.48" style="fill-rule:evenodd;clip-rule:evenodd;fill:#223E7C;" width="5.52" height="5.52"/>
<polygon style="fill-rule:evenodd;clip-rule:evenodd;fill:#FFFFFF;" points="170.5,232.57 157.66,222.5 174.1,227.16 178.76,221.38 
	183.68,230.59 200.24,236 187.17,237.6 191.95,248.12 177.91,238.49 165.75,239.26 "/>
<polygon style="fill-rule:evenodd;clip-rule:evenodd;fill:#FFFFFF;" points="203.53,217.9 217.83,221.58 221.52,217.04 
	225.07,224.44 238.57,228.88 227.95,230.02 232.13,238.8 220.49,230.48 210.62,231.57 214.17,226.13 "/>
<polygon style="fill-rule:evenodd;clip-rule:evenodd;fill:#FFFFFF;" points="234.68,207.43 245.66,210.4 248.43,205.71 
	251.75,212.23 262.39,215.69 254.21,216.64 257.13,223.41 248.32,217.38 240.22,218.41 242.94,213.86 "/>
<polygon style="fill-rule:evenodd;clip-rule:evenodd;fill:#FFFFFF;" points="247.97,191.56 256.98,193.64 259.07,190.07 
	262.27,195.07 270.88,197.16 264.1,198.48 267.02,203.68 259.5,199.08 252.89,200.16 254.81,196.5 "/>
<polygon style="fill-rule:evenodd;clip-rule:evenodd;fill:#FFFFFF;" points="241.8,177.17 248.37,178.11 249.86,175.8 
	252.04,179.06 258.53,180.29 253.67,181.32 255.95,185.18 250.35,182.06 245.31,183.46 246.86,180.49 "/>
<path style="fill-rule:evenodd;clip-rule:evenodd;fill:#223E7C;" d="M237.82,138.42h-12.41l-1.46,2.75h-8.41l11.21-19.93h9.98
	l11.21,19.93h-8.67L237.82,138.42z M227.3,135.01h8.72l-4.43-8.04L227.3,135.01z M131.86,138.42h-12.44l-1.49,2.75h-8.41
	l11.21-19.93h9.98l11.3,19.93h-8.64L131.86,138.42z M121.28,135.07H130l-4.35-8.09L121.28,135.07z M305.43,138.42h-12.56l-1.4,2.75
	h-8.41l11.21-19.93h9.98l11.21,19.93h-8.64L305.43,138.42z M294.76,135.07h8.81l-4.35-8.09L294.76,135.07z M146.36,121.2h8.58
	l11.27,11.07V121.2h8.72v19.93h-8.72l-11.15-10.9v10.9h-8.72L146.36,121.2L146.36,121.2z M182.28,121.29h9.21v7.49l10.75-7.55
	l11.21,0.09l-10.93,7.49l11.38,12.38H203l-7.15-7.95l-4.38,3.03v4.92h-9.21v-19.9H182.28z M275.37,131.64
	c2.89,0.86,4.92,3.2,5.29,6.23l0.31,3.29h-9.67l-0.29-3.35c-0.31-3.03-1.17-4.78-4.75-4.78h-4.6v8.12h-9.27V121.2h18.13
	c2.12,0,4.75,0.17,6.61,1.23c1.4,0.77,2.43,2.03,2.52,4.15C279.63,129.15,277.55,130.95,275.37,131.64 M261.64,129.32h3.89
	c1.09,0,3.03,0,3.89-0.77c0.4-0.31,0.63-0.86,0.63-1.26c0-0.63-0.31-1.17-0.92-1.49c-0.63-0.4-1.8-0.54-3.43-0.54h-4.06
	L261.64,129.32L261.64,129.32z"/>
<g>
	<g>
		<g>
			<path style="fill:#223E7C;" d="M390.51,245.32c0.11-0.46,0.4-0.66,0.86-0.66h10.9c0.46,0,0.74,0.2,0.89,0.66l15.39,44.19
				c0.11,0.46,0,0.66-0.46,0.66h-11.04c-0.46,0-0.74-0.2-0.86-0.66l-2.14-7.04h-14.79l-2.14,7.04c-0.11,0.46-0.4,0.66-0.86,0.66
				h-10.98c-0.46,0-0.6-0.2-0.46-0.66L390.51,245.32z M401.1,272.69l-4.2-14.19h-0.2l-4.4,14.19H401.1z"/>
			<path style="fill:#223E7C;" d="M420.32,245.32c0-0.46,0.2-0.66,0.66-0.66h9.84c0.6,0,0.94,0.2,1.12,0.66l13.73,25.77h0.26v-25.77
				c0-0.46,0.2-0.66,0.66-0.66h9.38c0.46,0,0.66,0.2,0.66,0.66v44.19c0,0.46-0.2,0.66-0.66,0.66h-9.84c-0.6,0-0.94-0.2-1.12-0.66
				l-13.58-25.71h-0.4v25.71c0,0.46-0.2,0.66-0.66,0.66H421c-0.46,0-0.66-0.2-0.66-0.66C420.32,289.48,420.32,245.32,420.32,245.32z
				"/>
			<path style="fill:#223E7C;" d="M461.33,245.32c0-0.46,0.2-0.66,0.66-0.66h10.44c0.46,0,0.66,0.2,0.66,0.66v17.82l13.07-17.85
				c0.34-0.4,0.66-0.6,1.12-0.6h11.78c0.54,0,0.66,0.4,0.4,0.86l-13.58,17.59l14.39,26.31c0.2,0.34,0.09,0.74-0.4,0.74h-11.98
				c-0.54,0-0.89-0.2-1.09-0.6l-8.84-17.13l-4.86,6.49v10.58c0,0.46-0.2,0.66-0.66,0.66H462c-0.46,0-0.66-0.2-0.66-0.66
				L461.33,245.32L461.33,245.32z"/>
			<path style="fill:#223E7C;" d="M515.32,245.32c0.11-0.46,0.4-0.66,0.86-0.66h10.9c0.46,0,0.74,0.2,0.89,0.66l15.39,44.19
				c0.11,0.46,0,0.66-0.46,0.66h-11.04c-0.46,0-0.74-0.2-0.86-0.66l-2.15-7.04h-14.79l-2.14,7.04c-0.11,0.46-0.4,0.66-0.86,0.66
				h-10.98c-0.46,0-0.6-0.2-0.46-0.66L515.32,245.32z M525.9,272.69l-4.2-14.19h-0.2l-4.4,14.19H525.9z"/>
			<path style="fill:#223E7C;" d="M569.52,290.17c-0.46,0-0.8-0.2-1-0.66l-6.89-15.53h-4.35c-0.26,0-0.4,0.11-0.4,0.4v15.13
				c0,0.46-0.2,0.66-0.66,0.66h-10.44c-0.46,0-0.66-0.2-0.66-0.66v-44.19c0-0.46,0.2-0.66,0.66-0.66h18.53
				c10.44,0,16.39,6.09,16.39,14.64c0,5.69-2.66,10.32-7.49,12.73l8.35,17.33c0.2,0.46,0,0.8-0.46,0.8h-11.58V290.17z
				 M563.57,264.26c3.4,0,5.38-1.86,5.38-4.83c0-2.95-1.94-4.83-5.38-4.83h-6.29c-0.26,0-0.4,0.11-0.4,0.4v8.84
				c0,0.26,0.11,0.4,0.4,0.4L563.57,264.26L563.57,264.26z"/>
			<path style="fill:#223E7C;" d="M597.32,245.32c0.11-0.46,0.4-0.66,0.86-0.66h10.9c0.46,0,0.74,0.2,0.89,0.66l15.39,44.19
				c0.11,0.46,0,0.66-0.46,0.66h-11.04c-0.46,0-0.74-0.2-0.86-0.66l-2.14-7.04h-14.79l-2.14,7.04c-0.11,0.46-0.4,0.66-0.86,0.66
				h-10.98c-0.46,0-0.6-0.2-0.46-0.66L597.32,245.32z M607.9,272.69l-4.2-14.19h-0.2l-4.4,14.19H607.9z"/>
		</g>
		<g>
			<path style="fill:#223E7C;" d="M374.76,312.22c0-0.46,0.2-0.66,0.66-0.66h18.53c10.18,0,14.84,4.86,14.84,12.1
				c0,4.75-2.14,7.95-5.55,9.78v0.11c3.4,1.29,6.38,5.03,6.38,10.35c0,8.89-6.29,13.1-15.84,13.1h-18.36
				c-0.46,0.06-0.66-0.17-0.66-0.63C374.76,356.37,374.76,312.22,374.76,312.22z M391.69,329.83c3.6,0,5.41-1.54,5.41-4.69
				s-1.8-4.69-5.41-4.69h-4.75c-0.26,0-0.4,0.11-0.4,0.4v8.58c0,0.26,0.11,0.4,0.4,0.4L391.69,329.83L391.69,329.83z M386.54,347.77
				c0,0.26,0.11,0.4,0.4,0.4h5.38c3.66,0,5.55-1.74,5.55-5.15c0-3.15-1.8-5.09-5.55-5.09h-5.38c-0.26,0-0.4,0.11-0.4,0.4V347.77z"/>
			<path style="fill:#223E7C;" d="M413.05,339.47v-16.93c0-0.46,0.2-0.66,0.66-0.66h10.44c0.46,0,0.66,0.2,0.66,0.66v17.67
				c0,4.55,2.55,7.15,6.35,7.15c4,0,6.29-2.63,6.29-7.15v-17.67c0-0.46,0.2-0.66,0.66-0.66h10.44c0.46,0,0.66,0.2,0.66,0.66v16.93
				c0,12.1-7.24,18.39-18.07,18.39C420.11,357.86,413.05,351.6,413.05,339.47z M413.79,320.25c-0.46,0-0.66-0.2-0.66-0.66v-7.35
				c0-0.46,0.2-0.66,0.66-0.66h10.35c0.46,0,0.66,0.2,0.66,0.66v7.35c0,0.46-0.2,0.66-0.66,0.66H413.79z M438.13,320.25
				c-0.46,0-0.66-0.2-0.66-0.66v-7.35c0-0.46,0.2-0.66,0.66-0.66h10.5c0.46,0,0.66,0.2,0.66,0.66v7.35c0,0.46-0.2,0.66-0.66,0.66
				H438.13z"/>
			<path style="fill:#223E7C;" d="M465.1,357.09c-0.46,0-0.66-0.2-0.66-0.66V339.5l-13.78-27.17c-0.2-0.46,0-0.74,0.54-0.74h10.5
				c0.46,0,0.8,0.2,1.09,0.66l7.61,15.53h0.2l7.49-15.53c0.2-0.46,0.54-0.66,1.09-0.66h10.32c0.54,0,0.74,0.26,0.54,0.74
				l-13.79,27.17v16.93c0,0.46-0.2,0.66-0.66,0.66H465.1L465.1,357.09z"/>
			<path style="fill:#223E7C;" d="M491.38,339.47v-16.93c0-0.46,0.2-0.66,0.66-0.66h10.44c0.46,0,0.66,0.2,0.66,0.66v17.67
				c0,4.55,2.55,7.15,6.35,7.15c4,0,6.29-2.63,6.29-7.15v-17.67c0-0.46,0.2-0.66,0.66-0.66h10.44c0.46,0,0.66,0.2,0.66,0.66v16.93
				c0,12.1-7.24,18.39-18.07,18.39C498.51,357.86,491.38,351.6,491.38,339.47z M492.13,320.25c-0.46,0-0.66-0.2-0.66-0.66v-7.35
				c0-0.46,0.2-0.66,0.66-0.66h10.35c0.46,0,0.66,0.2,0.66,0.66v7.35c0,0.46-0.2,0.66-0.66,0.66H492.13z M516.5,320.25
				c-0.46,0-0.66-0.2-0.66-0.66v-7.35c0-0.46,0.2-0.66,0.66-0.66H527c0.46,0,0.66,0.2,0.66,0.66v7.35c0,0.46-0.2,0.66-0.66,0.66
				H516.5z"/>
			<path style="fill:#223E7C;" d="M532.22,312.22c0-0.46,0.2-0.66,0.66-0.66h10.44c0.46,0,0.66,0.2,0.66,0.66v17.82l13.07-17.85
				c0.34-0.4,0.66-0.6,1.12-0.6h11.78c0.54,0,0.66,0.4,0.4,0.86l-13.56,17.62l14.39,26.31c0.2,0.34,0.09,0.74-0.4,0.74H558.8
				c-0.54,0-0.86-0.2-1.09-0.6l-8.84-17.13l-4.86,6.49v10.58c0,0.46-0.2,0.66-0.66,0.66h-10.44c-0.46,0-0.66-0.2-0.66-0.66
				L532.22,312.22L532.22,312.22z"/>
			<path style="fill:#223E7C;" d="M586.22,364.64c-0.34,0.26-1.12-0.14-1.12-0.66l0.34-6.23c-6.49-0.86-10.9-3.4-13.84-6.38
				c-0.4-0.34-0.4-0.74-0.09-1.09l6.03-7.09c0.34-0.34,0.6-0.4,0.94-0.09c2.75,2.4,7.04,4.55,11.58,4.55c4.29,0,6.41-1.66,6.41-4.29
				c0-1.94-1.29-3.2-5.75-3.83l-2.4-0.34c-9.9-1.4-15.19-5.75-15.19-14.33c0-8.49,6.61-14.19,16.93-14.19
				c6.38,0,12.18,1.86,16.27,5.03c0.34,0.26,0.4,0.6,0.11,1l-5.03,7.29c-0.26,0.34-0.6,0.4-0.94,0.2c-3.2-2.14-6.58-3.4-10.24-3.4
				c-3.4,0-5.03,1.63-5.03,3.83c0,2.09,1.46,3.29,5.83,3.83l2.4,0.34c9.98,1.4,15.07,5.83,15.07,14.44
				c0,7.15-4.55,12.64-13.58,14.27L586.22,364.64z"/>
			<path style="fill:#223E7C;" d="M611.39,312.22c0-0.46,0.2-0.66,0.66-0.66h29.8c0.46,0,0.66,0.2,0.66,0.66v8.64
				c0,0.46-0.2,0.66-0.66,0.66h-18.28c-0.26,0-0.4,0.11-0.4,0.4v6.89c0,0.26,0.11,0.4,0.4,0.4h14.99c0.46,0,0.66,0.2,0.66,0.66v8.44
				c0,0.46-0.2,0.66-0.66,0.66h-14.99c-0.26,0-0.4,0.11-0.4,0.4v7.29c0,0.26,0.11,0.4,0.4,0.4h18.28c0.46,0,0.66,0.2,0.66,0.66v8.64
				c0,0.46-0.2,0.66-0.66,0.66h-29.8c-0.46,0-0.66-0.2-0.66-0.66C611.39,356.29,611.39,312.22,611.39,312.22z"/>
			<path style="fill:#223E7C;" d="M646.05,312.22c0-0.46,0.2-0.66,0.66-0.66h10.44c0.46,0,0.66,0.2,0.66,0.66v16.13
				c0,0.26,0.11,0.4,0.4,0.4h12.38c0.26,0,0.4-0.11,0.4-0.4v-16.13c0-0.46,0.2-0.66,0.66-0.66h10.44c0.46,0,0.66,0.2,0.66,0.66
				v44.19c0,0.46-0.2,0.66-0.66,0.66h-10.44c-0.46,0-0.66-0.2-0.66-0.66v-16.82c0-0.26-0.11-0.4-0.4-0.4h-12.38
				c-0.26,0-0.4,0.11-0.4,0.4v16.82c0,0.46-0.2,0.66-0.66,0.66h-10.44c-0.46,0-0.66-0.2-0.66-0.66V312.22z"/>
			<path style="fill:#223E7C;" d="M688.04,320.25c-0.46,0-0.66-0.2-0.66-0.66v-7.35c0-0.46,0.2-0.66,0.66-0.66h9.9
				c0.46,0,0.66,0.2,0.66,0.66v7.35c0,0.46-0.2,0.66-0.66,0.66H688.04z M688.04,357.09c-0.46,0-0.66-0.2-0.66-0.66v-33.89
				c0-0.46,0.2-0.66,0.66-0.66h9.9c0.46,0,0.66,0.2,0.66,0.66v33.86c0,0.46-0.2,0.66-0.66,0.66L688.04,357.09L688.04,357.09z"/>
			<path style="fill:#223E7C;" d="M727.7,357.09c-0.46,0-0.8-0.2-1-0.66l-6.89-15.53h-4.35c-0.26,0-0.4,0.11-0.4,0.4v15.13
				c0,0.46-0.2,0.66-0.66,0.66h-10.44c-0.46,0-0.66-0.2-0.66-0.66v-44.21c0-0.46,0.2-0.66,0.66-0.66h18.53
				c10.44,0,16.39,6.09,16.39,14.64c0,5.69-2.66,10.32-7.49,12.73l8.35,17.33c0.2,0.46,0,0.8-0.46,0.8L727.7,357.09L727.7,357.09z
				 M721.73,331.18c3.4,0,5.38-1.86,5.38-4.83c0-2.95-1.94-4.83-5.38-4.83h-6.29c-0.26,0-0.4,0.11-0.4,0.4v8.84
				c0,0.26,0.11,0.4,0.4,0.4L721.73,331.18L721.73,331.18z"/>
		</g>
		<g>
			<path style="fill:#223E7C;" d="M374.76,379.17c0-0.46,0.2-0.66,0.66-0.66h18.53c10.18,0,14.84,4.86,14.84,12.1
				c0,4.75-2.14,7.95-5.55,9.78v0.11c3.4,1.29,6.38,5.03,6.38,10.35c0,8.89-6.29,13.1-15.84,13.1h-18.36c-0.46,0-0.66-0.2-0.66-0.66
				C374.76,423.3,374.76,379.17,374.76,379.17z M391.69,396.79c3.6,0,5.41-1.54,5.41-4.69s-1.8-4.69-5.41-4.69h-4.75
				c-0.26,0-0.4,0.11-0.4,0.4v8.58c0,0.26,0.11,0.4,0.4,0.4L391.69,396.79L391.69,396.79z M386.54,414.72c0,0.26,0.11,0.4,0.4,0.4
				h5.38c3.66,0,5.55-1.74,5.55-5.15c0-3.15-1.8-5.09-5.55-5.09h-5.38c-0.26,0-0.4,0.11-0.4,0.4V414.72z"/>
			<path style="fill:#223E7C;" d="M413.17,379.17c0-0.46,0.2-0.66,0.66-0.66h29.8c0.46,0,0.66,0.2,0.66,0.66v8.64
				c0,0.46-0.2,0.66-0.66,0.66h-18.28c-0.26,0-0.4,0.11-0.4,0.4v6.89c0,0.26,0.11,0.4,0.4,0.4h14.99c0.46,0,0.66,0.2,0.66,0.66v8.47
				c0,0.46-0.2,0.66-0.66,0.66h-14.99c-0.26,0-0.4,0.11-0.4,0.4v7.29c0,0.26,0.11,0.4,0.4,0.4h18.28c0.46,0,0.66,0.2,0.66,0.66v8.64
				c0,0.46-0.2,0.66-0.66,0.66h-29.77c-0.46,0-0.66-0.2-0.66-0.66L413.17,379.17L413.17,379.17z"/>
			<path style="fill:#223E7C;" d="M447.83,379.17c0-0.46,0.2-0.66,0.66-0.66h10.44c0.46,0,0.66,0.2,0.66,0.66v34
				c0,0.26,0.11,0.4,0.4,0.4h19.28c0.46,0,0.66,0.2,0.66,0.66v9.12c0,0.46-0.2,0.66-0.66,0.66h-30.74c-0.46,0-0.66-0.2-0.66-0.66
				L447.83,379.17L447.83,379.17z"/>
			<path style="fill:#223E7C;" d="M482.32,379.17c0-0.46,0.2-0.66,0.66-0.66h29.8c0.46,0,0.66,0.2,0.66,0.66v8.64
				c0,0.46-0.2,0.66-0.66,0.66H494.5c-0.26,0-0.4,0.11-0.4,0.4v6.89c0,0.26,0.11,0.4,0.4,0.4h14.99c0.46,0,0.66,0.2,0.66,0.66v8.47
				c0,0.46-0.2,0.66-0.66,0.66H494.5c-0.26,0-0.4,0.11-0.4,0.4v7.29c0,0.26,0.11,0.4,0.4,0.4h18.28c0.46,0,0.66,0.2,0.66,0.66v8.64
				c0,0.46-0.2,0.66-0.66,0.66h-29.8c-0.46,0-0.66-0.2-0.66-0.66L482.32,379.17L482.32,379.17z"/>
			<path style="fill:#223E7C;" d="M516.98,379.17c0-0.46,0.2-0.66,0.66-0.66h17.59c8.12,0,13.87,3.35,16.19,10.35
				c0.86,3,1.34,5.35,1.34,12.38c0,6.75-0.4,9.44-1.34,12.38c-2.35,7.04-8.12,10.35-16.19,10.35h-17.59c-0.46,0-0.66-0.2-0.66-0.66
				V379.17z M528.76,413.17c0,0.26,0.11,0.4,0.4,0.4h3.55c4.2,0,6.41-1.12,7.49-4.35c0.4-1.34,0.66-2.86,0.66-7.95
				c0-5.09-0.34-6.58-0.66-7.95c-1.09-3.2-3.29-4.35-7.49-4.35h-3.55c-0.26,0-0.4,0.11-0.4,0.4V413.17z"/>
			<path style="fill:#223E7C;" d="M557.05,387.2c-0.46,0-0.66-0.2-0.66-0.66v-7.38c0-0.46,0.2-0.66,0.66-0.66h9.9
				c0.46,0,0.66,0.2,0.66,0.66v7.38c0,0.46-0.2,0.66-0.66,0.66H557.05z M557.05,423.98c-0.46,0-0.66-0.2-0.66-0.66v-33.86
				c0-0.46,0.2-0.66,0.66-0.66h9.9c0.46,0,0.66,0.2,0.66,0.66v33.86c0,0.46-0.2,0.66-0.66,0.66
				C566.94,423.98,557.05,423.98,557.05,423.98z"/>
			<path style="fill:#223E7C;" d="M583.56,423.98c-0.46,0-0.66-0.2-0.66-0.66v-16.93l-13.79-27.17c-0.2-0.46,0-0.74,0.54-0.74h10.5
				c0.46,0,0.8,0.2,1.09,0.66l7.61,15.53h0.2l7.49-15.53c0.2-0.46,0.54-0.66,1.09-0.66h10.32c0.54,0,0.74,0.26,0.54,0.74
				l-13.78,27.17v16.93c0,0.46-0.2,0.66-0.66,0.66H583.56L583.56,423.98z"/>
			<path style="fill:#223E7C;" d="M609.99,379.17c0-0.46,0.2-0.66,0.66-0.66h29.8c0.46,0,0.66,0.2,0.66,0.66v8.64
				c0,0.46-0.2,0.66-0.66,0.66h-18.28c-0.26,0-0.4,0.11-0.4,0.4v6.89c0,0.26,0.11,0.4,0.4,0.4h14.99c0.46,0,0.66,0.2,0.66,0.66v8.47
				c0,0.46-0.2,0.66-0.66,0.66h-14.99c-0.26,0-0.4,0.11-0.4,0.4v7.29c0,0.26,0.11,0.4,0.4,0.4h18.28c0.46,0,0.66,0.2,0.66,0.66v8.64
				c0,0.46-0.2,0.66-0.66,0.66h-29.8c-0.46,0-0.66-0.2-0.66-0.66V379.17z"/>
			<path style="fill:#223E7C;" d="M642.73,418.32c-0.4-0.34-0.4-0.74-0.09-1.09l6.03-7.09c0.34-0.34,0.6-0.4,0.94-0.09
				c2.75,2.4,7.04,4.55,11.58,4.55c4.29,0,6.41-1.66,6.41-4.29c0-1.94-1.29-3.2-5.75-3.83l-2.4-0.34
				c-9.9-1.4-15.19-5.75-15.19-14.33c0-8.49,6.61-14.19,16.93-14.19c6.38,0,12.18,1.86,16.27,5.03c0.34,0.26,0.4,0.6,0.11,1
				l-5.03,7.29c-0.26,0.34-0.6,0.4-0.94,0.2c-3.2-2.14-6.58-3.4-10.24-3.4c-3.4,0-5.03,1.63-5.03,3.83c0,2.09,1.46,3.29,5.83,3.83
				l2.4,0.34c9.98,1.4,15.07,5.83,15.07,14.44c0,8.35-6.49,14.59-18.59,14.59C653.63,424.81,646.14,421.72,642.73,418.32z"/>
			<path style="fill:#223E7C;" d="M683.09,387.2c-0.46,0-0.66-0.2-0.66-0.66v-7.38c0-0.46,0.2-0.66,0.66-0.66h9.9
				c0.46,0,0.66,0.2,0.66,0.66v7.38c0,0.46-0.2,0.66-0.66,0.66H683.09z M683.09,423.98c-0.46,0-0.66-0.2-0.66-0.66v-33.86
				c0-0.46,0.2-0.66,0.66-0.66h9.9c0.46,0,0.66,0.2,0.66,0.66v33.86c0,0.46-0.2,0.66-0.66,0.66H683.09z"/>
		</g>
		<g>
			<path style="fill:#223E7C;" d="M387.77,223.41h-0.2c-0.09,0-0.2-0.09-0.34-0.2c-0.09-0.09-0.14-0.2-0.14-0.26v-0.23V188.6
				c0-0.2-0.11-0.34-0.34-0.43h-0.09h-11.21h-0.2c-0.09,0-0.2-0.09-0.26-0.11l-0.09-0.09l-0.09-0.09c-0.09-0.09-0.09-0.2-0.09-0.4
				v-9.15c0-0.34,0.11-0.6,0.46-0.66h0.2h35.12c0.2,0,0.34,0.09,0.46,0.2c0,0,0,0.09,0.09,0.14c0.09,0.09,0.11,0.2,0.11,0.34v9.15
				c0,0.2-0.09,0.4-0.2,0.54c-0.09,0.09-0.2,0.11-0.34,0.11h-0.11H399.3c-0.11,0-0.2,0-0.26,0.09l-0.11,0.14v0.2v34.09v0.2
				c-0.09,0.14-0.14,0.26-0.34,0.4c-0.09,0.09-0.11,0.09-0.34,0.09L387.77,223.41L387.77,223.41z"/>
			<path style="fill:#223E7C;" d="M412.25,213.46c0-0.46,0.2-0.66,0.66-0.66h9.32c0.46,0,0.66,0.2,0.66,0.66v9.29
				c0,0.46-0.2,0.66-0.66,0.66h-9.32c-0.46,0-0.66-0.2-0.66-0.66V213.46z"/>
			<path style="fill:#223E7C;" d="M429.04,200.56c0-6.78,0.26-9.32,1.34-12.38c2.43-7.52,8.27-11.3,16.62-11.3
				c8.12,0,13.76,3.78,16.39,10.41c0.2,0.46,0.09,0.74-0.34,0.94l-8.95,3.89c-0.46,0.2-0.74,0.09-0.94-0.43
				c-1.29-2.69-2.83-4.32-5.98-4.32c-2.83,0-4.63,1.34-5.52,3.98c-0.54,1.34-0.66,2.83-0.66,9.15s0.11,7.78,0.66,9.15
				c0.89,2.63,2.69,3.98,5.52,3.98c3.17,0,4.69-1.63,5.98-4.32c0.2-0.46,0.46-0.6,0.94-0.43l8.95,3.89c0.43,0.2,0.54,0.46,0.34,0.94
				c-2.63,6.66-8.27,10.41-16.39,10.41c-8.32,0-14.19-3.78-16.62-11.3C429.32,209.89,429.04,207.34,429.04,200.56z"/>
			<path style="fill:#223E7C;" d="M468.48,213.46c0-0.46,0.2-0.66,0.66-0.66h9.32c0.46,0,0.66,0.2,0.66,0.66v9.29
				c0,0.46-0.2,0.66-0.66,0.66h-9.32c-0.46,0-0.66-0.2-0.66-0.66V213.46z"/>
		</g>
	</g>
</g>
</svg>
