<?xml version="1.0" encoding="iso-8859-1"?>
<!-- Generator: Adobe Illustrator 29.7.1, SVG Export Plug-In . SVG Version: 9.03 Build 0)  -->
<svg version="1.1"
	 id="svg1" xmlns:sodipodi="http://sodipodi.sourceforge.net/DTD/sodipodi-0.dtd" xmlns:inkscape="http://www.inkscape.org/namespaces/inkscape" xmlns:svg="http://www.w3.org/2000/svg"
	 xmlns="http://www.w3.org/2000/svg" xmlns:xlink="http://www.w3.org/1999/xlink" x="0px" y="0px" viewBox="0 0 793.707 1122.52"
	 style="enable-background:new 0 0 793.707 1122.52;" xml:space="preserve">
<sodipodi:namedview  bordercolor="#000000" borderopacity="0.25" id="namedview1" inkscape:deskcolor="#d1d1d1" inkscape:pagecheckerboard="0" inkscape:pageopacity="0.0" inkscape:showpageshadow="2" pagecolor="#ffffff">
	
		<inkscape:page  bleed="0" height="1122.52" id="page1" inkscape:label="1" margin="187.81467 173.63733 188.62399 174.70134" width="793.70667" x="0" y="0">
		</inkscape:page>
</sodipodi:namedview>
<g id="layer-MC0" inkscape:groupmode="layer" inkscape:label="Layer 1">
	<g>
		<defs>
			<rect id="SVGID_1_" x="0" y="0" width="793.707" height="1122.52"/>
		</defs>
		<clipPath id="SVGID_00000057137900917287689650000008581445515440312754_">
			<use xlink:href="#SVGID_1_"  style="overflow:visible;"/>
		</clipPath>
		
			<path id="path1" style="clip-path:url(#SVGID_00000057137900917287689650000008581445515440312754_);fill-rule:evenodd;clip-rule:evenodd;fill:#003F88;" d="
			M620.069,251.961H174.701v459.885c0,122.8,100.06,222.86,222.857,222.86c122.453,0,222.511-100.06,222.511-222.86V251.961z"/>
	</g>
	<g>
		<defs>
			<rect id="SVGID_00000020383095143413008740000004716200038783957672_" x="0" y="0" width="793.707" height="1122.52"/>
		</defs>
		<clipPath id="SVGID_00000132070454380072294530000005090460938852528053_">
			<use xlink:href="#SVGID_00000020383095143413008740000004716200038783957672_"  style="overflow:visible;"/>
		</clipPath>
		<path id="path3" style="clip-path:url(#SVGID_00000132070454380072294530000005090460938852528053_);fill:#FFFFFF;" d="
			M505.702,520.154l20.192,18.172h37.947l20.183-18.172v-0.037h-78.321V520.154z"/>
	</g>
	<g>
		<defs>
			<rect id="SVGID_00000172427377933963407170000011155950830936103838_" x="0" width="793.707" height="1122.52"/>
		</defs>
		<clipPath id="SVGID_00000172434772658858830390000012194082930573928078_">
			<use xlink:href="#SVGID_00000172427377933963407170000011155950830936103838_"  style="overflow:visible;"/>
		</clipPath>
		<path id="path5" style="clip-path:url(#SVGID_00000172434772658858830390000012194082930573928078_);fill:#FFFFFF;" d="
			M249.998,300.16L231.39,401.18h37.216L249.998,300.16z"/>
	</g>
	<g>
		<defs>
			<rect id="SVGID_00000058563293907103521900000016396017672098516915_" x="0" y="0" width="793.707" height="1122.52"/>
		</defs>
		<clipPath id="SVGID_00000049901008611719461010000005161330969578129067_">
			<use xlink:href="#SVGID_00000058563293907103521900000016396017672098516915_"  style="overflow:visible;"/>
		</clipPath>
		<path id="path7" style="clip-path:url(#SVGID_00000049901008611719461010000005161330969578129067_);fill:#FFFFFF;" d="
			M525.915,494.2v0.016h-20.213v15.537h78.321v-15.537h-20.209V494.2H525.915z"/>
	</g>
	<g>
		<defs>
			<rect id="SVGID_00000011721585775979125620000007795775562449166520_" x="0" y="0" width="793.707" height="1122.52"/>
		</defs>
		<clipPath id="SVGID_00000007403474247274802340000007602838633942509465_">
			<use xlink:href="#SVGID_00000011721585775979125620000007795775562449166520_"  style="overflow:visible;"/>
		</clipPath>
		<path id="path9" style="clip-path:url(#SVGID_00000007403474247274802340000007602838633942509465_);fill:#FFFFFF;" d="
			M289.247,520.154v-0.037h-78.5v0.037l20.117,18.107h38.101L289.247,520.154z"/>
	</g>
	<g>
		<defs>
			<rect id="SVGID_00000160172528919917699930000008340453592315176611_" y="0" width="793.707" height="1122.52"/>
		</defs>
		<clipPath id="SVGID_00000120531416949093999730000012616610518928418744_">
			<use xlink:href="#SVGID_00000160172528919917699930000008340453592315176611_"  style="overflow:visible;"/>
		</clipPath>
		<path id="path11" style="clip-path:url(#SVGID_00000120531416949093999730000012616610518928418744_);fill:#FFFFFF;" d="
			M525.916,583.789h37.899v-35.667h-37.899V583.789z"/>
	</g>
	<g>
		<defs>
			<rect id="SVGID_00000052803273435553633300000012644089946938471582_" x="0" y="0" width="793.707" height="1122.52"/>
		</defs>
		<clipPath id="SVGID_00000054227503405820002860000001669170952023623097_">
			<use xlink:href="#SVGID_00000052803273435553633300000012644089946938471582_"  style="overflow:visible;"/>
		</clipPath>
		<path id="path13" style="clip-path:url(#SVGID_00000054227503405820002860000001669170952023623097_);fill:#FFFFFF;" d="
			M268.866,547.423h-37.875l0.129,36.367h37.745V547.423z"/>
	</g>
	<g>
		<defs>
			<rect id="SVGID_00000054237600861216812020000003482789047660678580_" x="0" y="0" width="793.707" height="1122.52"/>
		</defs>
		<clipPath id="SVGID_00000132083345974334390540000010397906741416674966_">
			<use xlink:href="#SVGID_00000054237600861216812020000003482789047660678580_"  style="overflow:visible;"/>
		</clipPath>
		<path id="path15" style="clip-path:url(#SVGID_00000132083345974334390540000010397906741416674966_);fill:#FFFFFF;" d="
			M525.915,620.047h-11.967v-25.775h-11.781v6.907h-11.963v-6.907H304.575v6.907h-11.792v-6.907h-11.96v25.775h-11.957v-25.892
			h-37.897l0.161,125.611c0,59.293,31.835,114.207,83.384,144.023c-33.863-25.941-53.737-66.029-53.737-108.476
			c0-68.563,51.551-126.509,119.093-135.265h35.208c67.373,8.756,118.919,66.703,118.919,135.265
			c0,42.447-19.879,82.535-53.567,108.476c51.384-29.816,83.212-84.729,83.384-144.023V594.155h-37.899V620.047z"/>
	</g>
	<g>
		<defs>
			<rect id="SVGID_00000016076733281861667190000017489472993100380558_" y="0" width="793.707" height="1122.52"/>
		</defs>
		<clipPath id="SVGID_00000160871356855235228350000002487493776032463781_">
			<use xlink:href="#SVGID_00000016076733281861667190000017489472993100380558_"  style="overflow:visible;"/>
		</clipPath>
		<path id="path17" style="clip-path:url(#SVGID_00000160871356855235228350000002487493776032463781_);fill:#FFFFFF;" d="
			M289.247,494.233h-78.5v15.52h78.5V494.233z"/>
	</g>
	<g>
		<defs>
			<rect id="SVGID_00000023276304428824666170000014652601277976063886_" x="0" y="0" width="793.707" height="1122.52"/>
		</defs>
		<clipPath id="SVGID_00000135663700469581732160000004913662157469128374_">
			<use xlink:href="#SVGID_00000023276304428824666170000014652601277976063886_"  style="overflow:visible;"/>
		</clipPath>
		<path id="path19" style="clip-path:url(#SVGID_00000135663700469581732160000004913662157469128374_);fill:#FFFFFF;" d="
			M268.866,411.543h-37.751l-0.135,72.471h37.885V411.543z"/>
	</g>
	<g>
		<defs>
			<rect id="SVGID_00000150064914112096073280000001282797035123884973_" y="0" width="793.707" height="1122.52"/>
		</defs>
		<clipPath id="SVGID_00000082347970419208161010000005375333304823005112_">
			<use xlink:href="#SVGID_00000150064914112096073280000001282797035123884973_"  style="overflow:visible;"/>
		</clipPath>
		<path id="path21" style="clip-path:url(#SVGID_00000082347970419208161010000005375333304823005112_);fill:#FFFFFF;" d="
			M563.813,411.543h-37.899v72.295h37.899V411.543z"/>
	</g>
	<g>
		<defs>
			<rect id="SVGID_00000087393423119947149450000003937574125819035777_" x="0" width="793.707" height="1122.52"/>
		</defs>
		<clipPath id="SVGID_00000124130411467427267800000014525192780455946928_">
			<use xlink:href="#SVGID_00000087393423119947149450000003937574125819035777_"  style="overflow:visible;"/>
		</clipPath>
		<path id="path23" style="clip-path:url(#SVGID_00000124130411467427267800000014525192780455946928_);fill:#FFFFFF;" d="
			M544.785,300.16l-18.612,101.02h37.38L544.785,300.16z"/>
	</g>
	<g>
		<defs>
			<rect id="SVGID_00000138549195789996471760000003419429354241821610_" x="0" y="0" width="793.707" height="1122.52"/>
		</defs>
		<clipPath id="SVGID_00000107572921196349960690000008543216326750369165_">
			<use xlink:href="#SVGID_00000138549195789996471760000003419429354241821610_"  style="overflow:visible;"/>
		</clipPath>
		
			<path id="path25" style="clip-path:url(#SVGID_00000107572921196349960690000008543216326750369165_);fill-rule:evenodd;clip-rule:evenodd;fill:#00ABE6;" d="
			M361.341,668.557h72.099l6.228,127.139h-84.387L361.341,668.557z"/>
	</g>
	<g>
		<defs>
			<rect id="SVGID_00000067231635543603137080000003937371206474746812_" x="0" y="0" width="793.707" height="1122.52"/>
		</defs>
		<clipPath id="SVGID_00000000913076368186559400000006461780382526890398_">
			<use xlink:href="#SVGID_00000067231635543603137080000003937371206474746812_"  style="overflow:visible;"/>
		</clipPath>
		
			<path id="path27" style="clip-path:url(#SVGID_00000000913076368186559400000006461780382526890398_);fill-rule:evenodd;clip-rule:evenodd;fill:#FFFFFF;" d="
			M397.559,741.085l17.52,54.075h56.595l-45.809,33.351l17.339,54.067l-45.644-33.348l-45.981,33.348l17.513-54.067l-45.82-33.351
			h56.769L397.559,741.085z"/>
	</g>
	<g>
		<defs>
			<rect id="SVGID_00000079461619976853203820000014838401246524619935_" x="0" width="793.707" height="1122.52"/>
		</defs>
		<clipPath id="SVGID_00000018197370233730602580000012434969749153174699_">
			<use xlink:href="#SVGID_00000079461619976853203820000014838401246524619935_"  style="overflow:visible;"/>
		</clipPath>
		
			<path id="path29" style="clip-path:url(#SVGID_00000018197370233730602580000012434969749153174699_);fill-rule:evenodd;clip-rule:evenodd;fill:#00ABE6;" d="
			M458.197,644.301v7.072h-15.328v10.276h-90.792v-10.276h-15.497v-7.072H458.197z"/>
	</g>
	<g>
		<defs>
			<rect id="SVGID_00000085230424657617063130000010777975713959179427_" x="0" y="0" width="793.707" height="1122.52"/>
		</defs>
		<clipPath id="SVGID_00000142863906348258223130000006381508828610089912_">
			<use xlink:href="#SVGID_00000085230424657617063130000010777975713959179427_"  style="overflow:visible;"/>
		</clipPath>
		
			<path id="path31" style="clip-path:url(#SVGID_00000142863906348258223130000006381508828610089912_);fill-rule:evenodd;clip-rule:evenodd;fill:#00ABE6;" d="
			M361.341,628.125l-44.972-26.947h162.204l-45.64,26.947v9.272h-71.592V628.125z"/>
	</g>
	<g>
		<defs>
			<rect id="SVGID_00000155845310895505503270000004912776750131053735_" x="0" y="0" width="793.707" height="1122.52"/>
		</defs>
		<clipPath id="SVGID_00000098939694899910735180000006704539865291094975_">
			<use xlink:href="#SVGID_00000155845310895505503270000004912776750131053735_"  style="overflow:visible;"/>
		</clipPath>
		
			<path id="path33" style="clip-path:url(#SVGID_00000098939694899910735180000006704539865291094975_);fill-rule:evenodd;clip-rule:evenodd;fill:#00ABE6;" d="
			M401.432,488.655c49.187,2.192,88.772,42.953,88.772,92.815H304.575c0-49.861,39.584-90.623,88.941-92.815l4.043-28.973
			L401.432,488.655z"/>
	</g>
	<g>
		<defs>
			<rect id="SVGID_00000145775014440955370250000017844567467513008260_" x="0" y="0" width="793.707" height="1122.52"/>
		</defs>
		<clipPath id="SVGID_00000023960465316584936270000014602791671751198081_">
			<use xlink:href="#SVGID_00000145775014440955370250000017844567467513008260_"  style="overflow:visible;"/>
		</clipPath>
		
			<path id="path35" style="clip-path:url(#SVGID_00000023960465316584936270000014602791671751198081_);fill-rule:evenodd;clip-rule:evenodd;fill:#003F88;" d="
			M429.396,218.435h18.868l-9.608-17.345L429.396,218.435z M452.136,225.849h-26.789l-3.197,5.899h-18.191l24.263-43.124h21.557
			l24.255,43.124h-18.699L452.136,225.849z"/>
	</g>
	<g>
		<defs>
			<rect id="SVGID_00000154397168598405581930000010423138826999895986_" x="0" width="793.707" height="1122.52"/>
		</defs>
		<clipPath id="SVGID_00000026133813992716791980000000724546932034045856_">
			<use xlink:href="#SVGID_00000154397168598405581930000010423138826999895986_"  style="overflow:visible;"/>
		</clipPath>
		
			<path id="path37" style="clip-path:url(#SVGID_00000026133813992716791980000000724546932034045856_);fill-rule:evenodd;clip-rule:evenodd;fill:#003F88;" d="
			M200.136,218.607h18.867l-9.433-17.517L200.136,218.607z M223.044,225.849h-26.947l-3.2,5.899h-18.196l24.253-43.124h21.56
			l24.432,43.124H226.24L223.044,225.849z"/>
	</g>
	<g>
		<defs>
			<rect id="SVGID_00000069361685785807665160000004259034742878077336_" x="0" width="793.707" height="1122.52"/>
		</defs>
		<clipPath id="SVGID_00000177475476448547318970000012874333852888622995_">
			<use xlink:href="#SVGID_00000069361685785807665160000004259034742878077336_"  style="overflow:visible;"/>
		</clipPath>
		
			<path id="path39" style="clip-path:url(#SVGID_00000177475476448547318970000012874333852888622995_);fill-rule:evenodd;clip-rule:evenodd;fill:#003F88;" d="
			M575.268,218.607h19.036l-9.437-17.517L575.268,218.607z M598.347,225.849h-27.116l-3.04,5.899H550l24.26-43.124h21.561
			l24.248,43.124h-18.692L598.347,225.849z"/>
	</g>
	<g>
		<defs>
			<rect id="SVGID_00000049904465122509785460000012282441960564965289_" x="0" y="0" width="793.707" height="1122.52"/>
		</defs>
		<clipPath id="SVGID_00000119098956979267646160000005216130336018151050_">
			<use xlink:href="#SVGID_00000049904465122509785460000012282441960564965289_"  style="overflow:visible;"/>
		</clipPath>
		
			<path id="path41" style="clip-path:url(#SVGID_00000119098956979267646160000005216130336018151050_);fill-rule:evenodd;clip-rule:evenodd;fill:#003F88;" d="
			M254.38,188.624h18.525l24.427,23.921v-23.921h18.864v43.124h-18.864l-24.092-23.585v23.585h-18.86V188.624z"/>
	</g>
	<g>
		<defs>
			<rect id="SVGID_00000078731015387671243960000017769769635462895522_" x="0" y="0" width="793.707" height="1122.52"/>
		</defs>
		<clipPath id="SVGID_00000005241964733147354800000007964824011551279507_">
			<use xlink:href="#SVGID_00000078731015387671243960000017769769635462895522_"  style="overflow:visible;"/>
		</clipPath>
		
			<path id="path43" style="clip-path:url(#SVGID_00000005241964733147354800000007964824011551279507_);fill-rule:evenodd;clip-rule:evenodd;fill:#003F88;" d="
			M332.032,188.792h19.879v16.172l23.249-16.34l24.255,0.168l-23.589,16.172l24.596,26.784H376.84l-15.499-17.18l-9.431,6.567
			v10.613h-19.879V188.792z"/>
	</g>
	<g>
		<defs>
			<rect id="SVGID_00000039813250360388286420000017011885183144444816_" x="0" width="793.707" height="1122.52"/>
		</defs>
		<clipPath id="SVGID_00000025434895461402664230000004341028793018793609_">
			<use xlink:href="#SVGID_00000039813250360388286420000017011885183144444816_"  style="overflow:visible;"/>
		</clipPath>
		
			<path id="path45" style="clip-path:url(#SVGID_00000025434895461402664230000004341028793018793609_);fill-rule:evenodd;clip-rule:evenodd;fill:#003F88;" d="
			M503.669,206.143h8.427c2.372,0,6.583,0,8.432-1.684c0.841-0.675,1.347-1.853,1.347-2.695c0-1.349-0.684-2.528-2.017-3.2
			c-1.353-0.847-3.887-1.183-7.421-1.183h-8.767V206.143z M533.324,211.199c6.237,1.847,10.613,6.904,11.461,13.469l0.665,7.08
			h-20.883l-0.673-7.244c-0.672-6.572-2.525-10.277-10.265-10.277h-9.96v17.521H483.64v-43.125h39.244
			c4.544,0,10.268,0.343,14.311,2.695c3.041,1.688,5.228,4.381,5.397,8.929C542.592,205.806,538.041,209.682,533.324,211.199"/>
	</g>
	<g>
		<defs>
			<rect id="SVGID_00000086665842597746610410000002867738175435744679_" y="0" width="793.707" height="1122.52"/>
		</defs>
		<clipPath id="SVGID_00000137103578596378588420000004111021816474375097_">
			<use xlink:href="#SVGID_00000086665842597746610410000002867738175435744679_"  style="overflow:visible;"/>
		</clipPath>
		
			<path id="path47" style="clip-path:url(#SVGID_00000137103578596378588420000004111021816474375097_);fill-rule:evenodd;clip-rule:evenodd;fill:#003F88;" d="
			M292.783,620.047h11.792v-11.96h-11.792V620.047z"/>
	</g>
	<g>
		<defs>
			<rect id="SVGID_00000103227499598937966570000011131682883747520659_" y="0" width="793.707" height="1122.52"/>
		</defs>
		<clipPath id="SVGID_00000031182466563921020540000016312605568165350061_">
			<use xlink:href="#SVGID_00000103227499598937966570000011131682883747520659_"  style="overflow:visible;"/>
		</clipPath>
		
			<path id="path49" style="clip-path:url(#SVGID_00000031182466563921020540000016312605568165350061_);fill-rule:evenodd;clip-rule:evenodd;fill:#003F88;" d="
			M502.168,620.047h-11.964v-11.96h11.964V620.047z"/>
	</g>
	<g>
		<defs>
			<rect id="SVGID_00000119816306101101298710000003836009341969522082_" x="0" y="0" width="793.707" height="1122.52"/>
		</defs>
		<clipPath id="SVGID_00000153673381011714232000000017083861240582752667_">
			<use xlink:href="#SVGID_00000119816306101101298710000003836009341969522082_"  style="overflow:visible;"/>
		</clipPath>
		
			<path id="path51" style="clip-path:url(#SVGID_00000153673381011714232000000017083861240582752667_);fill-rule:evenodd;clip-rule:evenodd;fill:#FFFFFF;" d="
			M308.857,418.015l-27.72-21.772l35.492,10.04l10.121-12.468l10.599,19.917l35.804,11.657l-28.215,3.48l10.309,22.749
			L324.856,430.8l-26.233,1.667L308.857,418.015z"/>
	</g>
	<g>
		<defs>
			<rect id="SVGID_00000158726295989484188710000008826353105586440625_" x="0" y="0" width="793.707" height="1122.52"/>
		</defs>
		<clipPath id="SVGID_00000018922891446533018080000005118121343432582565_">
			<use xlink:href="#SVGID_00000158726295989484188710000008826353105586440625_"  style="overflow:visible;"/>
		</clipPath>
		
			<path id="path53" style="clip-path:url(#SVGID_00000018922891446533018080000005118121343432582565_);fill-rule:evenodd;clip-rule:evenodd;fill:#FFFFFF;" d="
			M380.231,386.251l31,8.004l7.917-9.828l7.709,15.979l29.151,9.577l-22.897,2.499l9.067,19.027l-25.225-18.04l-21.315,2.345
			l7.673-11.731L380.231,386.251z"/>
	</g>
	<g>
		<defs>
			<rect id="SVGID_00000072958510126610373160000012505206848083059333_" x="0" width="793.707" height="1122.52"/>
		</defs>
		<clipPath id="SVGID_00000118355815554813081990000001169328620497091991_">
			<use xlink:href="#SVGID_00000072958510126610373160000012505206848083059333_"  style="overflow:visible;"/>
		</clipPath>
		
			<path id="path55" style="clip-path:url(#SVGID_00000118355815554813081990000001169328620497091991_);fill-rule:evenodd;clip-rule:evenodd;fill:#FFFFFF;" d="
			M447.605,363.602l23.761,6.453l6.008-10.121l7.189,14.083l23.028,7.479l-17.745,2.053l6.304,14.665l-19.067-13.053l-17.455,2.201
			l5.867-9.827L447.605,363.602z"/>
	</g>
	<g>
		<defs>
			<rect id="SVGID_00000088092300702659461950000007393917291688238209_" x="0" y="0" width="793.707" height="1122.52"/>
		</defs>
		<clipPath id="SVGID_00000110428680459121356350000002177395031891363728_">
			<use xlink:href="#SVGID_00000088092300702659461950000007393917291688238209_"  style="overflow:visible;"/>
		</clipPath>
		
			<path id="path57" style="clip-path:url(#SVGID_00000110428680459121356350000002177395031891363728_);fill-rule:evenodd;clip-rule:evenodd;fill:#FFFFFF;" d="
			M476.349,329.281l19.505,4.547l4.549-7.773l6.896,10.851l18.627,4.548l-14.667,2.789l6.307,11.292l-16.281-9.973l-14.228,2.347
			l4.107-7.92L476.349,329.281z"/>
	</g>
	<g>
		<defs>
			<rect id="SVGID_00000168822760466595573540000005935213717869443237_" x="0" width="793.707" height="1122.52"/>
		</defs>
		<clipPath id="SVGID_00000039129978473309258350000015664632549396164493_">
			<use xlink:href="#SVGID_00000168822760466595573540000005935213717869443237_"  style="overflow:visible;"/>
		</clipPath>
		
			<path id="path59" style="clip-path:url(#SVGID_00000039129978473309258350000015664632549396164493_);fill-rule:evenodd;clip-rule:evenodd;fill:#FFFFFF;" d="
			M463.005,298.188l14.224,2.056l3.229-4.988l4.689,7.039l14.085,2.643l-10.563,2.197l4.987,8.361l-12.175-6.747l-10.852,3.079
			l3.373-6.453L463.005,298.188z"/>
	</g>
</g>
</svg>
