<?xml version="1.0" encoding="iso-8859-1"?>
<!-- Generator: Adobe Illustrator 29.7.1, SVG Export Plug-In . SVG Version: 9.03 Build 0)  -->
<svg version="1.1" id="Layer_1" xmlns="http://www.w3.org/2000/svg" xmlns:xlink="http://www.w3.org/1999/xlink" x="0px" y="0px"
	 viewBox="0 0 1920 1080" style="enable-background:new 0 0 1920 1080;" xml:space="preserve">
<g>
	<polygon style="fill:none;stroke:#FFFFFF;stroke-width:0.216;stroke-miterlimit:2.6131;" points="889.108,470.108 1030.84,470.108 
		1030.84,611.84 889.108,611.84 889.108,470.108 	"/>
	<path style="fill-rule:evenodd;clip-rule:evenodd;fill:#FFFFFF;" d="M897.043,541.487c0-14.014,10.182-25.372,22.74-25.372
		c12.56,0,22.739,11.359,22.739,25.372c0,14.015-10.179,25.374-22.739,25.374C907.224,566.862,897.043,555.503,897.043,541.487
		L897.043,541.487z"/>
	<path style="fill-rule:evenodd;clip-rule:evenodd;fill:#034EA2;" d="M946.984,539.395v27.559h-26.553v-19.292l5.586,12.305
		l-3.234-13.387l9.015,10.137l-6.958-11.518l11.66,6.994l-10.19-9.058l13.13,3.148l-12.639-5.314l13.815-1.376l-13.717-1.086
		l12.934-5.511l-13.423,3.055l10.188-9.155l-11.757,7.181l6.761-11.416l-8.818,9.943l3.037-13.19l-5.389,12.697l-1.372-14.173
		l-1.077,14.075l-5.778-12.797l3.427,13.582l-9.207-10.237l7.053,11.516l-11.268-6.591l9.799,8.759l-13.129-2.857l12.443,5.02
		l-13.423,1.478l13.52,1.181l-12.443,5.215l13.129-3.051l-9.994,9.055l11.465-6.986l-6.958,11.615l8.916-10.237l-2.938,13.287
		l5.29-12.108l0.022,19.062c-14.581-0.732-26.181-12.843-26.181-27.673c0-15.303,12.347-27.708,27.58-27.708
		s27.679,12.405,27.679,27.708C946.984,539.279,946.971,539.363,946.984,539.395L946.984,539.395z"/>
	<path style="fill-rule:evenodd;clip-rule:evenodd;fill:#F15A22;" d="M913.966,539.593c0-2.938,2.367-5.316,5.29-5.316
		c2.923,0,5.29,2.378,5.29,5.316c0,2.934-2.367,5.316-5.29,5.316C916.333,544.91,913.966,542.527,913.966,539.593L913.966,539.593z"
		/>
	<path style="fill-rule:evenodd;clip-rule:evenodd;" d="M957.891,566.961c0.876-0.029,2.785-0.894,2.894-3.093
		c0.111-2.31-1.644-2.801-1.956-2.971c1.064-0.471,1.597-1.619,1.44-2.86c-0.08-0.598-0.25-1.102-0.768-1.589
		c-0.562-0.533-1.329-0.925-2.175-0.943h-5.053v11.456H957.891L957.891,566.961z M953.745,556.81h2.675
		c0.265,0,2.159,0.157,2.363,1.494c0.108,0.721,0.015,2.122-2.018,2.122h-3.02V556.81L953.745,556.81z M953.745,561.729h2.863
		c1.486,0,2.551,0.252,2.721,1.619c0.11,0.898-0.312,2.314-1.907,2.314h-3.677V561.729L953.745,561.729z"/>
	<path style="fill-rule:evenodd;clip-rule:evenodd;" d="M969.498,563.364c-0.016-1.524-0.031-2.496-0.923-3.708
		c-0.502-0.63-1.425-1.102-2.443-1.179c-1.015-0.082-2.126,0.234-3.02,1.239c-0.672,0.757-1,1.967-1.015,3.177
		c-0.015,1.211,0.281,2.405,0.83,3.113c0.704,0.895,1.814,1.323,2.894,1.323c1.096,0,2.16-0.413,2.77-1.228
		c0.501-0.584,0.626-1.15,0.734-1.653h-1.329c-0.188,0.474-0.564,1.73-2.19,1.73c-0.954,0-1.487-0.533-1.848-1.022
		c-0.469-0.739-0.5-1.212-0.453-1.792H969.498L969.498,563.364z M963.552,562.202c0.031-0.836,0.5-1.73,0.704-1.92
		c0.439-0.595,1.157-0.783,1.799-0.721c0.657,0.062,1.253,0.361,1.425,0.721c0.204,0.221,0.641,1.148,0.593,1.92H963.552
		L963.552,562.202z"/>
	<polygon style="fill-rule:evenodd;clip-rule:evenodd;" points="971.232,555.505 972.546,555.505 972.546,566.963 971.232,566.963 
		971.232,555.505 	"/>
	<path style="fill-rule:evenodd;clip-rule:evenodd;" d="M981.665,563.364c-0.015-1.524-0.031-2.496-0.923-3.708
		c-0.5-0.63-1.425-1.102-2.44-1.179c-1.018-0.082-2.129,0.234-3.02,1.239c-0.673,0.757-1.002,1.967-1.018,3.177
		c-0.016,1.211,0.281,2.405,0.83,3.113c0.704,0.895,1.814,1.323,2.894,1.323c1.096,0,2.159-0.413,2.77-1.228
		c0.5-0.584,0.626-1.15,0.734-1.653h-1.329c-0.188,0.474-0.562,1.73-2.19,1.73c-0.954,0-1.487-0.533-1.846-1.022
		c-0.471-0.739-0.502-1.212-0.453-1.792H981.665L981.665,563.364z M975.721,562.202c0.031-0.836,0.501-1.73,0.704-1.92
		c0.438-0.595,1.157-0.783,1.799-0.721c0.657,0.062,1.252,0.361,1.425,0.721c0.204,0.221,0.642,1.148,0.595,1.92H975.721
		L975.721,562.202z"/>
	<path style="fill-rule:evenodd;clip-rule:evenodd;" d="M988.768,555.505v4.21c-0.126-0.217-0.376-0.5-0.75-0.734
		c-0.361-0.236-1.018-0.504-1.785-0.504c-0.766-0.018-1.626,0.25-2.41,1.069c-0.812,0.832-1.188,2.387-1.047,3.883
		c0.124,1.509,0.766,2.953,1.987,3.568c0.469,0.221,1.08,0.332,1.642,0.332c0.564,0,1.095-0.11,1.409-0.316
		c0.469-0.285,0.876-0.693,1.126-0.992v0.958h1.141v-11.474H988.768L988.768,555.505z M984.918,565.331
		c-1.015-1.4-0.812-3.743-0.124-4.702c0.423-0.582,1.079-0.832,1.721-0.803c0.642,0.018,1.283,0.3,1.626,0.785
		c0.438,0.602,1.142,2.783,0.08,4.575c-0.314,0.535-0.94,0.85-1.582,0.896C985.998,566.132,985.341,565.897,984.918,565.331
		L984.918,565.331z"/>
	<path style="fill-rule:evenodd;clip-rule:evenodd;" d="M992.068,566.961h1.314v-8.25h-1.314V566.961L992.068,566.961z
		 M992.068,557.138h1.314v-1.635h-1.314V557.138L992.068,557.138z"/>
	<path style="fill-rule:evenodd;clip-rule:evenodd;" d="M1000.577,558.711l-2.285,6.239l-2.08-6.239h-1.394l2.692,8.378
		l-0.487,1.303c-0.155,0.44-0.423,0.662-0.734,0.726c-0.297,0.062-0.641,0-0.971-0.126v1.208c0.173,0.111,0.407,0.206,0.721,0.206
		c0.312,0.016,0.673-0.046,1.08-0.219c0.454-0.206,0.907-0.646,1.141-1.321l3.724-10.155H1000.577L1000.577,558.711z"/>
	<path style="fill-rule:evenodd;clip-rule:evenodd;" d="M1010.356,563.364c-0.016-1.524-0.031-2.496-0.922-3.708
		c-0.502-0.63-1.425-1.102-2.443-1.179c-1.015-0.082-2.126,0.234-3.018,1.239c-0.675,0.757-1.002,1.967-1.018,3.177
		c-0.015,1.211,0.281,2.405,0.83,3.113c0.704,0.895,1.814,1.323,2.894,1.323c1.096,0,2.16-0.413,2.77-1.228
		c0.501-0.584,0.626-1.15,0.734-1.653h-1.33c-0.188,0.474-0.564,1.73-2.19,1.73c-0.954,0-1.487-0.533-1.848-1.022
		c-0.469-0.739-0.5-1.212-0.454-1.792H1010.356L1010.356,563.364z M1004.409,562.202c0.033-0.836,0.502-1.73,0.706-1.92
		c0.439-0.595,1.157-0.783,1.799-0.721c0.657,0.062,1.252,0.361,1.425,0.721c0.204,0.221,0.64,1.148,0.593,1.92H1004.409
		L1004.409,562.202z"/>
	<path style="fill-rule:evenodd;clip-rule:evenodd;" d="M1011.56,564.527c0,0.298-0.111,2.199,2.079,2.691
		c0.469,0.093,1.033,0.139,1.582,0.11c0.547-0.051,1.077-0.159,1.5-0.349c0.861-0.391,1.363-1.177,1.471-1.978
		c0.111-0.801-0.172-1.62-0.892-2.046c-0.579-0.361-1.236-0.518-1.893-0.626c-0.812-0.204-1.469-0.363-1.925-0.615
		c-0.453-0.237-0.577-0.706-0.389-1.131c0.203-0.44,0.734-0.818,1.595-0.88c2.017,0.049,1.878,1.084,1.878,1.319h1.283
		c-0.015-0.925-0.345-2.544-3.053-2.544c-1.61,0-3.018,0.894-3.018,2.466c0,1.21,0.562,1.777,1.204,2.011
		c0.704,0.33,2.017,0.584,3.051,0.836c0.657,0.219,0.892,0.626,0.892,1.051c0,0.407-0.234,0.803-0.515,1.006
		c-0.22,0.157-0.627,0.266-1.034,0.33c-0.423,0.047-0.845,0.047-1.157-0.046c-1.283-0.376-1.253-0.93-1.425-1.604H1011.56
		L1011.56,564.527z"/>
	<path style="fill-rule:evenodd;clip-rule:evenodd;" d="M1019.883,566.961h1.314v-8.25h-1.314V566.961L1019.883,566.961z
		 M1019.883,557.138h1.314v-1.635h-1.314V557.138L1019.883,557.138z"/>
	<path style="fill-rule:evenodd;clip-rule:evenodd;" d="M957.891,550.027c0.876-0.033,2.785-0.896,2.894-3.099
		c0.111-2.31-1.644-2.796-1.956-2.971c1.064-0.472,1.597-1.617,1.44-2.859c-0.08-0.598-0.25-1.099-0.768-1.588
		c-0.562-0.533-1.329-0.927-2.175-0.943h-5.053v11.46H957.891L957.891,550.027z M953.745,539.873h2.675
		c0.265,0,2.159,0.155,2.363,1.491c0.108,0.725,0.015,2.121-2.018,2.121h-3.02V539.873L953.745,539.873z M953.745,544.792h2.863
		c1.486,0,2.551,0.25,2.721,1.615c0.11,0.898-0.312,2.314-1.907,2.314h-3.677V544.792L953.745,544.792z"/>
	<path style="fill-rule:evenodd;clip-rule:evenodd;" d="M963.692,540.516h1.44v-1.619h-1.44V540.516L963.692,540.516z
		 M966.415,540.516h1.44v-1.619h-1.44V540.516L966.415,540.516z M969.013,550.027v-8.255h-1.316v4.482
		c0,1.067-0.186,2.295-1.611,2.794c-0.327,0.095-0.642,0.128-0.922,0.095c-0.281-0.014-0.533-0.095-0.734-0.219
		c-0.408-0.25-0.642-0.706-0.626-1.321v-5.832h-1.314v6.571c0.155,0.896,0.688,1.525,1.298,1.854c0.202,0.093,0.735,0.19,1.315,0.19
		c0.592,0,1.234-0.097,1.657-0.347c0.314-0.155,0.657-0.502,0.938-0.896v0.882H969.013L969.013,550.027z"/>
	<path style="fill-rule:evenodd;clip-rule:evenodd;" d="M976.239,541.773l-2.284,6.241l-2.082-6.241h-1.391l2.69,8.379l-0.484,1.305
		c-0.157,0.44-0.423,0.659-0.737,0.721c-0.297,0.064-0.642,0-0.969-0.124v1.21c0.173,0.109,0.407,0.206,0.719,0.206
		c0.314,0.013,0.673-0.051,1.08-0.221c0.453-0.206,0.909-0.644,1.144-1.321l3.723-10.155H976.239L976.239,541.773z"/>
	<path style="fill-rule:evenodd;clip-rule:evenodd;" d="M980.212,540.516h1.44v-1.619h-1.44V540.516L980.212,540.516z
		 M982.935,540.516h1.441v-1.619h-1.441V540.516L982.935,540.516z M985.533,550.027v-8.255h-1.314v4.482
		c0,1.067-0.188,2.295-1.611,2.794c-0.329,0.095-0.641,0.128-0.924,0.095c-0.281-0.014-0.531-0.095-0.735-0.219
		c-0.407-0.25-0.641-0.706-0.626-1.321v-5.832h-1.314v6.571c0.157,0.896,0.688,1.525,1.298,1.854c0.204,0.093,0.735,0.19,1.314,0.19
		c0.595,0,1.237-0.097,1.659-0.347c0.312-0.155,0.656-0.502,0.938-0.896v0.882H985.533L985.533,550.027z"/>
	<polygon style="fill-rule:evenodd;clip-rule:evenodd;" points="987.597,538.567 987.597,550.027 988.911,550.027 988.911,546.928 
		990.225,545.622 992.931,550.027 994.544,550.027 991.21,544.633 994.075,541.773 992.385,541.773 988.911,545.215 
		988.911,538.567 987.597,538.567 	"/>
	<path style="fill-rule:evenodd;clip-rule:evenodd;" d="M995.044,547.589c0,0.299-0.109,2.199,2.082,2.689
		c0.469,0.095,1.03,0.139,1.579,0.11c0.547-0.046,1.08-0.157,1.503-0.347c0.861-0.394,1.36-1.179,1.471-1.98
		c0.109-0.801-0.172-1.617-0.892-2.044c-0.579-0.361-1.236-0.518-1.894-0.628c-0.814-0.203-1.471-0.361-1.925-0.61
		c-0.454-0.234-0.579-0.711-0.391-1.133c0.203-0.44,0.736-0.816,1.597-0.88c2.017,0.047,1.876,1.082,1.876,1.321h1.283
		c-0.015-0.929-0.345-2.546-3.05-2.546c-1.611,0-3.02,0.896-3.02,2.466c0,1.21,0.564,1.777,1.206,2.011
		c0.704,0.332,2.017,0.585,3.051,0.834c0.657,0.219,0.891,0.628,0.891,1.053c0,0.409-0.234,0.801-0.517,1.007
		c-0.219,0.157-0.624,0.267-1.031,0.329c-0.423,0.046-0.846,0.046-1.16-0.048c-1.281-0.376-1.25-0.925-1.422-1.602H995.044
		L995.044,547.589z M996.093,553.217c1.345,0.564,1.644,0.626,2.644,0.456c0.515-0.095,1.033-0.301,1.221-1.212
		c0.093-0.407-0.095-0.817-0.283-0.974c-0.405-0.345-0.923-0.25-1.235-0.25l0.281-0.85h-0.657l-0.438,1.429l0.188,0.11
		c0.25-0.124,0.327-0.157,0.704-0.018c0.314,0.128,0.329,0.538,0.249,0.695c-0.203,0.41-0.469,0.502-0.892,0.502
		c-0.484,0-0.953-0.298-1.438-0.548L996.093,553.217L996.093,553.217z"/>
	<path style="fill-rule:evenodd;clip-rule:evenodd;" d="M1010.363,546.425c-0.015-1.525-0.031-2.498-0.925-3.708
		c-0.5-0.628-1.423-1.104-2.441-1.179c-1.015-0.077-2.126,0.234-3.02,1.241c-0.672,0.757-1,1.962-1.015,3.173
		c-0.016,1.21,0.281,2.407,0.83,3.115c0.704,0.894,1.815,1.321,2.894,1.321c1.095,0,2.159-0.409,2.77-1.228
		c0.5-0.582,0.624-1.146,0.734-1.651h-1.329c-0.188,0.474-0.564,1.73-2.191,1.73c-0.956,0-1.487-0.536-1.847-1.02
		c-0.469-0.741-0.5-1.21-0.454-1.794H1010.363L1010.363,546.425z M1004.418,545.261c0.031-0.83,0.5-1.725,0.704-1.916
		c0.438-0.597,1.157-0.785,1.799-0.723c0.657,0.062,1.252,0.361,1.425,0.723c0.201,0.219,0.639,1.146,0.593,1.916H1004.418
		L1004.418,545.261z"/>
	<path style="fill-rule:evenodd;clip-rule:evenodd;" d="M1012.128,550.027h1.315v-5.361c0-0.726,0.219-0.945,0.5-1.228
		c0.487-0.394,0.894-0.628,1.299-0.708c0.425-0.075,0.86-0.013,1.394,0.221c0.25,0.111,0.75,0.394,0.689,1.445v5.63h1.314v-6.272
		c0.031-0.255-0.142-1.511-1.345-1.936c-0.469-0.206-0.922-0.281-1.329-0.281c-0.407,0-0.783,0.093-1.111,0.221
		c-0.657,0.263-1.144,0.69-1.409,1.004v-4.197h-1.315V550.027L1012.128,550.027z"/>
	<path style="fill-rule:evenodd;clip-rule:evenodd;" d="M1020.763,550.027h1.314v-8.253h-1.314V550.027L1020.763,550.027z
		 M1020.763,540.204h1.314v-1.637h-1.314V540.204L1020.763,540.204z"/>
	<path style="fill-rule:evenodd;clip-rule:evenodd;" d="M1024.281,550.027h1.314v-4.294c0-1.429,0.456-2.197,1.378-2.624
		c0.358-0.126,0.765-0.188,1.25-0.188v-1.383h-0.734c-0.595,0.046-1.376,0.582-1.894,1.524v-1.29h-1.314V550.027L1024.281,550.027z"
		/>
	<path style="fill-rule:evenodd;clip-rule:evenodd;" d="M954.088,529.662h4.365l1.16,3.425h1.641l-4.004-11.458h-1.799
		l-4.146,11.458h1.564L954.088,529.662L954.088,529.662z M956.342,523.423l1.672,5.011h-3.535L956.342,523.423L956.342,523.423z"/>
	<path style="fill-rule:evenodd;clip-rule:evenodd;" d="M962.566,524.834v8.253h1.314v-4.385c-0.031-2.217,1.157-2.907,2.252-2.907
		c0.909,0,1.659,0.533,1.643,1.555v5.737h1.315v-6.414c-0.173-1.223-0.892-1.633-1.299-1.854c-0.204-0.095-0.75-0.205-1.345-0.221
		c-0.595-0.013-1.237,0.082-1.628,0.381c-0.312,0.157-0.657,0.502-0.938,0.894v-1.038H962.566L962.566,524.834z"/>
	<path style="fill-rule:evenodd;clip-rule:evenodd;" d="M972.845,522.602h-1.314v2.232h-1.144v1.213h1.144v6.239
		c0,0.314,0.281,1.069,1.188,1.163c0.515,0.047,0.876,0,1.425-0.095v-1.164c-0.737,0.126-1.299,0.095-1.299-0.423v-5.721h1.299
		v-1.213h-1.299V522.602L972.845,522.602z"/>
	<path style="fill-rule:evenodd;clip-rule:evenodd;" d="M981.962,526.328c-0.033-0.819-0.876-1.35-1.909-1.589
		c-0.518-0.126-1.08-0.155-1.629-0.142c-0.531,0.048-1.049,0.159-1.469,0.363c-0.861,0.41-1.253,1.148-1.363,1.62l-0.047,0.723
		h1.237c0.031-0.378,0.124-1.447,1.549-1.524c0.892-0.082,2.144,0.268,2.252,0.847v0.976c0,0.438-0.484,0.597-0.656,0.628
		c-0.781,0.19-1.549,0.047-3.036,0.487c-0.845,0.252-1.626,0.785-1.721,2.155c-0.109,1.617,1.033,2.67,2.863,2.577
		c1.253-0.064,1.974-0.707,2.613-1.196c0.049,0.553,0.456,1.022,1.144,1.196l1.095-0.141v-0.992
		c-0.438,0.144-0.923-0.142-0.923-0.458V526.328L981.962,526.328z M980.599,530.697c0,0.268-0.861,1.666-2.644,1.619
		c-0.719-0.015-1.471-0.394-1.438-1.416c0.016-0.613,0.547-1.004,0.781-1.113c0.768-0.347,2.236-0.316,3.301-0.741V530.697
		L980.599,530.697z"/>
	<polygon style="fill-rule:evenodd;clip-rule:evenodd;" points="984.274,521.629 985.588,521.629 985.588,533.087 984.274,533.087 
		984.274,521.629 	"/>
	<path style="fill-rule:evenodd;clip-rule:evenodd;" d="M992.755,524.834l-2.286,6.24l-2.081-6.24h-1.392l2.69,8.381l-0.485,1.302
		c-0.157,0.439-0.423,0.657-0.734,0.721c-0.297,0.064-0.642,0-0.971-0.124v1.21c0.173,0.11,0.407,0.203,0.721,0.203
		c0.312,0.013,0.673-0.046,1.08-0.221c0.454-0.203,0.907-0.642,1.141-1.321l3.723-10.153H992.755L992.755,524.834z"/>
	<path style="fill-rule:evenodd;clip-rule:evenodd;" d="M1001.953,526.328c-0.031-0.819-0.876-1.35-1.909-1.589
		c-0.516-0.126-1.08-0.155-1.626-0.142c-0.533,0.048-1.049,0.159-1.471,0.363c-0.861,0.41-1.253,1.148-1.361,1.62l-0.046,0.723
		h1.235c0.031-0.378,0.126-1.447,1.551-1.524c0.89-0.082,2.141,0.268,2.252,0.847v0.976c0,0.438-0.485,0.597-0.657,0.628
		c-0.784,0.19-1.549,0.047-3.035,0.487c-0.846,0.252-1.628,0.785-1.722,2.155c-0.11,1.617,1.031,2.67,2.863,2.577
		c1.252-0.064,1.972-0.707,2.613-1.196c0.046,0.553,0.453,1.022,1.142,1.196l1.095-0.141v-0.992
		c-0.438,0.144-0.923-0.142-0.923-0.458V526.328L1001.953,526.328z M1000.593,530.697c0,0.268-0.861,1.666-2.644,1.619
		c-0.721-0.015-1.471-0.394-1.441-1.416c0.016-0.613,0.547-1.004,0.783-1.113c0.766-0.347,2.237-0.316,3.302-0.741V530.697
		L1000.593,530.697z"/>
</g>
</svg>
