<?xml version="1.0" encoding="UTF-8"?>
<svg id="Layer_2" data-name="Layer 2" xmlns="http://www.w3.org/2000/svg" viewBox="0 0 136.49 58.87">
  <defs>
    <style>
      .cls-1 {
        fill: #fff;
      }

      .cls-1, .cls-2, .cls-3, .cls-4 {
        fill-rule: evenodd;
      }

      .cls-2 {
        fill: #f15a22;
      }

      .cls-3 {
        fill: #034ea2;
      }
    </style>
  </defs>
  <g id="Layer_1-2" data-name="Layer 1">
    <g>
      <path class="cls-1" d="M5.32,29.95C5.32,15.93,15.5,4.58,28.05,4.58s22.74,11.36,22.74,25.37-10.18,25.37-22.74,25.37c-12.56,0-22.74-11.36-22.74-25.37h0Z"/>
      <path class="cls-3" d="M55.26,27.86v27.56h-26.55v-19.29l5.59,12.3-3.23-13.39,9.02,10.14-6.96-11.52,11.66,6.99-10.19-9.06,13.13,3.15-12.64-5.31,13.82-1.38-13.72-1.09,12.93-5.51-13.42,3.05,10.19-9.16-11.76,7.18,6.76-11.42-8.82,9.94,3.04-13.19-5.39,12.7-1.37-14.17-1.08,14.08-5.78-12.8,3.43,13.58-9.21-10.24,7.05,11.52-11.27-6.59,9.8,8.76-13.13-2.86,12.44,5.02-13.42,1.48,13.52,1.18-12.44,5.22,13.13-3.05-9.99,9.05,11.47-6.99-6.96,11.61,8.92-10.24-2.94,13.29,5.29-12.11.02,19.06C11.6,54.65,0,42.54,0,27.71S12.35,0,27.58,0s27.68,12.41,27.68,27.71c0,.03-.02.12,0,.15h0Z"/>
      <path class="cls-2" d="M22.24,28.05c0-2.94,2.37-5.32,5.29-5.32s5.29,2.38,5.29,5.32-2.37,5.32-5.29,5.32c-2.92,0-5.29-2.38-5.29-5.32h0Z"/>
      <path class="cls-4" d="M66.16,55.42c.88-.03,2.78-.89,2.89-3.09.11-2.31-1.64-2.8-1.96-2.97,1.06-.47,1.6-1.62,1.44-2.86-.08-.6-.25-1.1-.77-1.59-.56-.53-1.33-.92-2.17-.94h-5.05v11.46h5.62ZM62.02,45.27h2.67c.27,0,2.16.16,2.36,1.49.11.72.02,2.12-2.02,2.12h-3.02v-3.62h0ZM62.02,50.19h2.86c1.49,0,2.55.25,2.72,1.62.11.9-.31,2.31-1.91,2.31h-3.68v-3.93h0Z"/>
      <path class="cls-4" d="M77.77,51.83c-.02-1.52-.03-2.5-.92-3.71-.5-.63-1.42-1.1-2.44-1.18-1.02-.08-2.13.23-3.02,1.24-.67.76-1,1.97-1.02,3.18-.02,1.21.28,2.41.83,3.11.7.9,1.81,1.32,2.89,1.32s2.16-.41,2.77-1.23c.5-.58.63-1.15.73-1.65h-1.33c-.19.47-.56,1.73-2.19,1.73-.95,0-1.49-.53-1.85-1.02-.47-.74-.5-1.21-.45-1.79h5.99ZM71.82,50.66c.03-.84.5-1.73.7-1.92.44-.59,1.16-.78,1.8-.72.66.06,1.25.36,1.42.72.2.22.64,1.15.59,1.92h-4.52Z"/>
      <polygon class="cls-4" points="79.5 43.97 80.82 43.97 80.82 55.42 79.5 55.42 79.5 43.97"/>
      <path class="cls-4" d="M89.94,51.83c-.02-1.52-.03-2.5-.92-3.71-.5-.63-1.42-1.1-2.44-1.18-1.02-.08-2.13.23-3.02,1.24-.67.76-1,1.97-1.02,3.18-.02,1.21.28,2.41.83,3.11.7.9,1.81,1.32,2.89,1.32s2.16-.41,2.77-1.23c.5-.58.63-1.15.73-1.65h-1.33c-.19.47-.56,1.73-2.19,1.73-.95,0-1.49-.53-1.85-1.02-.47-.74-.5-1.21-.45-1.79h5.99ZM83.99,50.66c.03-.84.5-1.73.7-1.92.44-.59,1.16-.78,1.8-.72.66.06,1.25.36,1.42.72.2.22.64,1.15.59,1.92h-4.52Z"/>
      <path class="cls-4" d="M97.04,43.97v4.21c-.13-.22-.38-.5-.75-.73-.36-.24-1.02-.5-1.78-.5-.77-.02-1.63.25-2.41,1.07-.81.83-1.19,2.39-1.05,3.88.12,1.51.77,2.95,1.99,3.57.47.22,1.08.33,1.64.33s1.09-.11,1.41-.32c.47-.28.88-.69,1.13-.99v.96h1.14v-11.47h-1.31ZM93.19,53.79c-1.02-1.4-.81-3.74-.12-4.7.42-.58,1.08-.83,1.72-.8.64.02,1.28.3,1.63.78.44.6,1.14,2.78.08,4.58-.31.53-.94.85-1.58.9-.64.05-1.3-.18-1.72-.75h0Z"/>
      <path class="cls-4" d="M100.34,55.42h1.31v-8.25h-1.31v8.25h0ZM100.34,45.6h1.31v-1.64h-1.31v1.64h0Z"/>
      <path class="cls-4" d="M108.85,47.17l-2.28,6.24-2.08-6.24h-1.39l2.69,8.38-.49,1.3c-.16.44-.42.66-.73.73-.3.06-.64,0-.97-.13v1.21c.17.11.41.21.72.21.31.02.67-.05,1.08-.22.45-.21.91-.65,1.14-1.32l3.72-10.16h-1.41Z"/>
      <path class="cls-4" d="M118.63,51.83c-.02-1.52-.03-2.5-.92-3.71-.5-.63-1.42-1.1-2.44-1.18-1.02-.08-2.13.23-3.02,1.24-.67.76-1,1.97-1.02,3.18-.02,1.21.28,2.41.83,3.11.7.9,1.81,1.32,2.89,1.32s2.16-.41,2.77-1.23c.5-.58.63-1.15.73-1.65h-1.33c-.19.47-.56,1.73-2.19,1.73-.95,0-1.49-.53-1.85-1.02-.47-.74-.5-1.21-.45-1.79h5.99ZM112.68,50.66c.03-.84.5-1.73.71-1.92.44-.59,1.16-.78,1.8-.72.66.06,1.25.36,1.42.72.2.22.64,1.15.59,1.92h-4.52Z"/>
      <path class="cls-4" d="M119.83,52.99c0,.3-.11,2.2,2.08,2.69.47.09,1.03.14,1.58.11.55-.05,1.08-.16,1.5-.35.86-.39,1.36-1.18,1.47-1.98.11-.8-.17-1.62-.89-2.05-.58-.36-1.24-.52-1.89-.63-.81-.2-1.47-.36-1.92-.61-.45-.24-.58-.71-.39-1.13.2-.44.73-.82,1.59-.88,2.02.05,1.88,1.08,1.88,1.32h1.28c-.02-.92-.34-2.54-3.05-2.54-1.61,0-3.02.89-3.02,2.47,0,1.21.56,1.78,1.2,2.01.7.33,2.02.58,3.05.84.66.22.89.63.89,1.05s-.23.8-.52,1.01c-.22.16-.63.27-1.03.33-.42.05-.84.05-1.16-.05-1.28-.38-1.25-.93-1.42-1.6h-1.23Z"/>
      <path class="cls-4" d="M128.15,55.42h1.31v-8.25h-1.31v8.25h0ZM128.15,45.6h1.31v-1.64h-1.31v1.64h0Z"/>
      <path class="cls-4" d="M66.16,38.49c.88-.03,2.78-.9,2.89-3.1.11-2.31-1.64-2.8-1.96-2.97,1.06-.47,1.6-1.62,1.44-2.86-.08-.6-.25-1.1-.77-1.59-.56-.53-1.33-.93-2.17-.94h-5.05v11.46h5.62ZM62.02,28.33h2.67c.27,0,2.16.16,2.36,1.49.11.72.02,2.12-2.02,2.12h-3.02v-3.61h0ZM62.02,33.25h2.86c1.49,0,2.55.25,2.72,1.61.11.9-.31,2.31-1.91,2.31h-3.68v-3.93h0Z"/>
      <path class="cls-4" d="M71.96,28.98h1.44v-1.62h-1.44v1.62h0ZM74.69,28.98h1.44v-1.62h-1.44v1.62h0ZM77.28,38.49v-8.26h-1.32v4.48c0,1.07-.19,2.29-1.61,2.79-.33.09-.64.13-.92.09-.28-.01-.53-.09-.73-.22-.41-.25-.64-.71-.63-1.32v-5.83h-1.31v6.57c.16.9.69,1.53,1.3,1.85.2.09.73.19,1.32.19s1.23-.1,1.66-.35c.31-.16.66-.5.94-.9v.88h1.32Z"/>
      <path class="cls-4" d="M84.51,30.23l-2.28,6.24-2.08-6.24h-1.39l2.69,8.38-.48,1.3c-.16.44-.42.66-.74.72-.3.06-.64,0-.97-.12v1.21c.17.11.41.21.72.21.31.01.67-.05,1.08-.22.45-.21.91-.64,1.14-1.32l3.72-10.16h-1.41Z"/>
      <path class="cls-4" d="M88.48,28.98h1.44v-1.62h-1.44v1.62h0ZM91.21,28.98h1.44v-1.62h-1.44v1.62h0ZM93.8,38.49v-8.26h-1.31v4.48c0,1.07-.19,2.29-1.61,2.79-.33.09-.64.13-.92.09-.28-.01-.53-.09-.73-.22-.41-.25-.64-.71-.63-1.32v-5.83h-1.31v6.57c.16.9.69,1.53,1.3,1.85.2.09.73.19,1.31.19s1.24-.1,1.66-.35c.31-.16.66-.5.94-.9v.88h1.32Z"/>
      <polygon class="cls-4" points="95.87 27.03 95.87 38.49 97.18 38.49 97.18 35.39 98.5 34.08 101.2 38.49 102.82 38.49 99.48 33.09 102.35 30.23 100.66 30.23 97.18 33.68 97.18 27.03 95.87 27.03"/>
      <path class="cls-4" d="M103.32,36.05c0,.3-.11,2.2,2.08,2.69.47.09,1.03.14,1.58.11.55-.05,1.08-.16,1.5-.35.86-.39,1.36-1.18,1.47-1.98.11-.8-.17-1.62-.89-2.04-.58-.36-1.24-.52-1.89-.63-.81-.2-1.47-.36-1.92-.61-.45-.23-.58-.71-.39-1.13.2-.44.74-.82,1.6-.88,2.02.05,1.88,1.08,1.88,1.32h1.28c-.02-.93-.34-2.55-3.05-2.55-1.61,0-3.02.9-3.02,2.47,0,1.21.56,1.78,1.21,2.01.7.33,2.02.59,3.05.83.66.22.89.63.89,1.05s-.23.8-.52,1.01c-.22.16-.62.27-1.03.33-.42.05-.85.05-1.16-.05-1.28-.38-1.25-.92-1.42-1.6h-1.24ZM104.36,41.68c1.34.56,1.64.63,2.64.46.52-.09,1.03-.3,1.22-1.21.09-.41-.09-.82-.28-.97-.41-.34-.92-.25-1.23-.25l.28-.85h-.66l-.44,1.43.19.11c.25-.12.33-.16.7-.02.31.13.33.54.25.7-.2.41-.47.5-.89.5-.48,0-.95-.3-1.44-.55l-.34.66h0Z"/>
      <path class="cls-4" d="M118.63,34.89c-.02-1.53-.03-2.5-.92-3.71-.5-.63-1.42-1.1-2.44-1.18-1.02-.08-2.13.23-3.02,1.24-.67.76-1,1.96-1.02,3.17-.02,1.21.28,2.41.83,3.11.7.89,1.82,1.32,2.89,1.32s2.16-.41,2.77-1.23c.5-.58.62-1.15.73-1.65h-1.33c-.19.47-.56,1.73-2.19,1.73-.96,0-1.49-.54-1.85-1.02-.47-.74-.5-1.21-.45-1.79h5.99ZM112.69,33.72c.03-.83.5-1.72.7-1.92.44-.6,1.16-.78,1.8-.72.66.06,1.25.36,1.42.72.2.22.64,1.15.59,1.92h-4.52Z"/>
      <path class="cls-4" d="M120.4,38.49h1.32v-5.36c0-.73.22-.95.5-1.23.49-.39.89-.63,1.3-.71.42-.08.86-.01,1.39.22.25.11.75.39.69,1.45v5.63h1.31v-6.27c.03-.26-.14-1.51-1.34-1.94-.47-.21-.92-.28-1.33-.28s-.78.09-1.11.22c-.66.26-1.14.69-1.41,1v-4.2h-1.32v11.46h0Z"/>
      <path class="cls-4" d="M129.03,38.49h1.31v-8.25h-1.31v8.25h0ZM129.03,28.67h1.31v-1.64h-1.31v1.64h0Z"/>
      <path class="cls-4" d="M132.55,38.49h1.31v-4.29c0-1.43.46-2.2,1.38-2.62.36-.13.77-.19,1.25-.19v-1.38h-.73c-.59.05-1.38.58-1.89,1.52v-1.29h-1.31v8.26h0Z"/>
      <path class="cls-4" d="M62.36,18.12h4.36l1.16,3.42h1.64l-4-11.46h-1.8l-4.15,11.46h1.56l1.22-3.42h0ZM64.61,11.88l1.67,5.01h-3.53l1.86-5.01h0Z"/>
      <path class="cls-4" d="M70.84,13.3v8.25h1.31v-4.39c-.03-2.22,1.16-2.91,2.25-2.91.91,0,1.66.53,1.64,1.55v5.74h1.32v-6.41c-.17-1.22-.89-1.63-1.3-1.85-.2-.09-.75-.21-1.34-.22-.59-.01-1.24.08-1.63.38-.31.16-.66.5-.94.89v-1.04h-1.31Z"/>
      <path class="cls-4" d="M81.12,11.06h-1.31v2.23h-1.14v1.21h1.14v6.24c0,.31.28,1.07,1.19,1.16.52.05.88,0,1.42-.09v-1.16c-.74.13-1.3.09-1.3-.42v-5.72h1.3v-1.21h-1.3v-2.23h0Z"/>
      <path class="cls-4" d="M90.23,14.79c-.03-.82-.88-1.35-1.91-1.59-.52-.13-1.08-.16-1.63-.14-.53.05-1.05.16-1.47.36-.86.41-1.25,1.15-1.36,1.62l-.05.72h1.24c.03-.38.12-1.45,1.55-1.52.89-.08,2.14.27,2.25.85v.98c0,.44-.48.6-.66.63-.78.19-1.55.05-3.04.49-.84.25-1.63.78-1.72,2.16-.11,1.62,1.03,2.67,2.86,2.58,1.25-.06,1.97-.71,2.61-1.2.05.55.46,1.02,1.14,1.2l1.09-.14v-.99c-.44.14-.92-.14-.92-.46v-5.53h0ZM88.87,19.16c0,.27-.86,1.67-2.64,1.62-.72-.02-1.47-.39-1.44-1.42.02-.61.55-1,.78-1.11.77-.35,2.24-.32,3.3-.74v1.65h0Z"/>
      <polygon class="cls-4" points="92.55 10.09 93.86 10.09 93.86 21.55 92.55 21.55 92.55 10.09"/>
      <path class="cls-4" d="M101.03,13.3l-2.29,6.24-2.08-6.24h-1.39l2.69,8.38-.48,1.3c-.16.44-.42.66-.73.72-.3.06-.64,0-.97-.12v1.21c.17.11.41.2.72.2.31.01.67-.05,1.08-.22.45-.2.91-.64,1.14-1.32l3.72-10.15h-1.41Z"/>
      <path class="cls-4" d="M110.22,14.79c-.03-.82-.88-1.35-1.91-1.59-.52-.13-1.08-.16-1.63-.14-.53.05-1.05.16-1.47.36-.86.41-1.25,1.15-1.36,1.62l-.05.72h1.23c.03-.38.13-1.45,1.55-1.52.89-.08,2.14.27,2.25.85v.98c0,.44-.48.6-.66.63-.78.19-1.55.05-3.03.49-.85.25-1.63.78-1.72,2.16-.11,1.62,1.03,2.67,2.86,2.58,1.25-.06,1.97-.71,2.61-1.2.05.55.45,1.02,1.14,1.2l1.09-.14v-.99c-.44.14-.92-.14-.92-.46v-5.53h0ZM108.86,19.16c0,.27-.86,1.67-2.64,1.62-.72-.02-1.47-.39-1.44-1.42.02-.61.55-1,.78-1.11.77-.35,2.24-.32,3.3-.74v1.65h0Z"/>
    </g>
  </g>
</svg>