<?xml version="1.0" encoding="UTF-8"?>
<svg id="Layer_2" data-name="Layer 2" xmlns="http://www.w3.org/2000/svg" viewBox="0 0 160.16 160.24">
  <defs>
    <style>
      .cls-1 {
        fill: #00a651;
      }

      .cls-1, .cls-2, .cls-3, .cls-4, .cls-5 {
        fill-rule: evenodd;
      }

      .cls-2 {
        fill: #fff;
      }

      .cls-4 {
        fill: #f58220;
      }

      .cls-5 {
        fill: #006cb7;
      }
    </style>
  </defs>
  <g id="Layer_1-2" data-name="Layer 1">
    <g>
      <path class="cls-1" d="M80.1,0c44.11,0,80.06,36.03,80.06,80.1s-35.95,80.14-80.06,80.14S0,124.25,0,80.1C0,36.03,35.99,0,80.1,0h0Z"/>
      <path class="cls-2" d="M80.1,17.44c34.46,0,62.66,28.16,62.66,62.66s-28.21,62.7-62.66,62.7-62.71-28.16-62.71-62.7,28.16-62.66,62.71-62.66h0Z"/>
      <polygon class="cls-3" points="78.9 17.11 134.77 112.49 25.97 112.49 78.9 17.11"/>
      <path class="cls-1" d="M78.9,19.92c-6.88,12.18-13.25,24.52-20.13,36.69.83,4.31,2.2,5.22,3.98,4.72-1.2-3.52,1.82-6.5,2.28-11.76,1.95,1.86,3.85,3.48,5.8,5.38.17,1.86,0,3.77-.54,5.63,3.52-1.28,4.31-5.47,5.05-9.77,1.2-3.23,2.48-6.42,3.65-9.61,1.41-2.69,2.4-2.03,3.11.37,3.69,10.77,7.12,18.68,11.06,18.27.12-2.4.25-4.76.37-7.16.46-2.28,1.53-2.61,3.15-.95,1.33,2.73,1.86,5.34,1.82,7.12,2.48,3.11,4.06,4.06,5.88,5.3-8.53-14.75-16.94-29.49-25.47-44.23h0Z"/>
      <path class="cls-1" d="M80.64,47.42c1.82,5.47,3.65,10.93,5.47,16.4-1.66-1.61-3.31-3.23-4.93-4.85-.58-.74-1.41-1.03-2.44-.87l1.91-10.68h0Z"/>
      <path class="cls-1" d="M106.19,67.05l23.86,40.75c-10.15-10.15-20.29-20.25-30.44-30.4-1.99-1.33-1.16-2.65.08-3.98,2.77-1.61,5.09-3.64,6.5-6.38h0Z"/>
      <path class="cls-4" d="M99.69,80.02l28.12,27.62c-9.15-6.71-18.35-13.42-27.5-20.13,0-2.2-.17-4.85-.62-7.5h0Z"/>
      <path class="cls-4" d="M78.11,61.26c.99-.99,1.99-.95,2.94.17,2.11,1.99,4.18,3.98,6.25,5.96.99,2.28,2.03,4.56,3.02,6.83.25,1.91.37,3.65-.62,5.47-3.11-2.2-6.17-4.56-9.32-6.79-3.23,2.24-6.46,4.43-9.69,6.63-2.78-3.52-2.11-8.74,1.82-13.17,1.86-1.7,3.73-3.4,5.59-5.09h0Z"/>
      <path class="cls-4" d="M58.23,81.34c-.04,1.24.29,2.53.95,3.81-.12.87-.04,1.74-.08,2.61l-25.72,18.22c7.99-7.95,16.86-16.69,24.85-24.64h0Z"/>
      <path class="cls-1" d="M55.95,61.42c2.65,4.39,4.43,9.15,4.76,14.7l-28.54,28.91c7.91-14.54,15.86-29.12,23.77-43.61h0Z"/>
      <path class="cls-5" d="M59.85,89.67c1.24,2.65,3.69,2.98,7.46.79-.29,3.19-.54,6.29-.58,9.03.04.87-.12,1.61-.54,2.24-.5.95-.79,1.86.33,2.78,1.53,1.12,3.02,2.2,4.51,3.31.7.62.99.41.79-.62-1.03-3.98-1.57-7.62-.54-9.98,1.12-2.9,2.44-5.76,3.98-8.66.87-3.73.75-6.96-3.02-8.33l7.7-5.14c3.07,2.15,6.13,4.27,9.19,6.42-2.11,6.71-2.98,14.25-.46,23.94,1.08-.12,2.15-.29,3.23-.41.12.5.29,1.03.41,1.57-.58.29-1.2.62-1.82.95-.83.54-2.44,1.03-.08,1.82,1.95.12,3.93.04,6.09-.29.46-.17.74-.62.74-1.28-.17-1.41-.33-2.78-.5-4.18.91-.08,1.82-.21,2.78-.33.75-.12,1.03-.58.87-1.41v-12.22l29.57,21.7-101.76-.08c10.56-7.21,21.08-14.41,31.64-21.62h0Z"/>
      <path class="cls-2" d="M64.94,55.71c-1.37,6.09,2.61,7.33,3.48,1.45-1.03-.66-2.24-1.2-3.48-1.45h0Z"/>
      <path class="cls-2" d="M66.68,52.89c1.16.74,1.91,1.45-.37,1.99.12-.66.25-1.33.37-1.99h0Z"/>
      <path class="cls-2" d="M79.27,45.06c-.7,3.6-1.41,7.21-2.15,10.81-.99,4.89-3.69,6.71-6.01,9.32-3.81,4.18-3.98,7.66-3.89,11.06h-1.66c.08-3.23.33-6.42.46-9.61.46,0,.58-.21.83-.62.04-.41.08-.83.17-1.28-.29-1.57.99-1.57,1.95-1.7.62-.25,1.61-.95,2.24-1.2,1.16-1.33,3.35-2.28,4.1-5.14.95-4.64,2.23-8.62,3.97-11.64h0Z"/>
      <path class="cls-2" d="M57.82,58.77c1.45,4.18,3.11,4.51,4.76,4.22.58.33,1.03,1.33,1.45,2.9-.25,1.28.25,1.66.83,1.91-.12,2.78-.21,5.63-.29,8.45h-2.44c-.79-6.29-2.36-11.89-5.34-15.74.33-.58.7-1.16,1.04-1.74h0Z"/>
      <path class="cls-2" d="M62.95,77.45c1.7,1.41,3.07.87,4.35,0h-4.35Z"/>
      <path class="cls-2" d="M61.34,78.44c.79.21,1.57.41,2.36.62.58.41.66.83.25,1.24l-2.61,2.61c-.62.7-1.2.75-1.45-.17,0-.66-.04-1.33-.08-1.99.54-.79,1.03-1.53,1.53-2.32h0Z"/>
      <path class="cls-2" d="M65.69,79.6c.33.46.58,1.03.91,1.45-.79.74-1.74.95-2.73,1.08.58-.79,1.24-1.74,1.82-2.53h0Z"/>
      <path class="cls-2" d="M67.14,79.6c-.21-.75,0-.99.62-.75.17.17.29.33.46.54.46.62-.12.7-.54.91-.17-.25-.37-.46-.54-.7h0Z"/>
      <path class="cls-2" d="M64.03,62.5c.17-.04.33-.12.54-.21.37.74.79,1.53,1.2,2.28.08,1.28-.21,1.61-.91.99-.29-.99-.58-2.03-.83-3.07h0Z"/>
      <path class="cls-2" d="M60.96,85.48c-.17-.87-.08-2.11,2.82-2.4,2.11-.04,3.35-.66,4.64-1.57,4.64-1.66,5.51.74,5.8,3.6-.21,4.06-3.56,7.58-4.8,11.47-1.16,2.69-1.16,5.38.08,7.66-.7-.46-1.66-1.16-2.36-1.61.25-2.24.62-4.76.83-7.41-.21-3.93,1.03-6.42,2.44-8.74.58-1.57.29-1.82-.99-.75-4.02,4.8-8.99,5.8-8.45-.25h0Z"/>
      <path class="cls-2" d="M92.11,75.17c.41.04.83.08,1.28.08-.08-3.07-.17-6.13-.25-9.15-.12-2.69-1.04-4.52-2.73-5.43-1.45-1.99-3.98-3.85-5.38-7.37-2.61-6.42-4.31-14.16-4.72-10.35,3.93,10.98,7.87,22.03,11.8,32.22h0Z"/>
      <path class="cls-2" d="M94.43,61.46c1.45.37,2.94-.12,3.6-.75.21.25.41.54.62.79-4.47,4.85-5.38,2.73-4.22-.04h0Z"/>
      <path class="cls-2" d="M94.64,55.62c-.12-1.37,2.03-1.66,2.36-.41-.54.58-.7,1.16.5,1.16.91,5.3-2.86,5.18-2.9.37.91-.29,1.08-.66.04-1.12h0Z"/>
      <path class="cls-2" d="M93.77,74.96c.79.46,1.91-.08,2.48-.79,1.45-2.36,2.15-4.85,2.44-7.37.21-.7.54-1.08.95-1.12,2.53.58,3.31,2.53,1.53,5.26.91-.66,2.4-1.78,3.31-2.4.91-1.78.79-2.69-.33-2.69-1.41-1.08-3.02-2.4-4.43-3.48-2.32,1.49-4.27,3.4-5.88,4.22-.04,2.57-.08,5.76-.08,8.37h0Z"/>
      <path class="cls-2" d="M92.36,77.24c.62.17,1.66.46,2.32.66-.62,5.09.17,9.44,1.33,13.63.79,1.57.21,1.99-.58,2.2-1.41.83-2.82,1.66-4.27,2.48-.75.12-1.66.7-1.7-1.12-.25-5.55-.04-11.39,2.9-17.85h0Z"/>
      <path class="cls-2" d="M95.42,79.19c.58-2.32,1.28-2.61,2.36.08.7,2.57.83,4.72.83,6.79.08,5.18.12,10.35.21,15.53-3.44.99-6.13,1.45-8.41,1.53-.21-1.74-.37-3.44-.54-5.14.87.04,1.7,0,2.32-.66,1.28-1.86,2.61-2.2,3.89-2.82,1.2-.37,1.45-1.53,1.28-3.07-1.45-3.81-2.28-7.79-1.95-12.26h0Z"/>
      <polygon class="cls-2" points="93.64 104.45 93.77 105.16 95.3 105.07 95.42 103.71 93.64 104.45"/>
      <path class="cls-2" d="M93.39,107.97c1.33-2.57,1.78-1.61,1.91-.08-.58,0-1.24.04-1.91.08h0Z"/>
      <path class="cls-2" d="M98.53,72.73c.08-3.77,1.7-6.79,2.65-4.43-.12,1.08-1.82,4.02-2.65,4.43h0Z"/>
      <path class="cls-2" d="M94.26,76.58c.75,0,1.41-.04,2.15-.04,0-.37-.04-.7-.04-1.08-.95.17-1.57.54-2.11,1.12h0Z"/>
      <path class="cls-2" d="M93.31,61.13c.21,0,.37.17.37.37,0,.17-.17.33-.37.33-.17,0-.33-.17-.33-.33,0-.21.17-.37.33-.37h0Z"/>
      <path class="cls-2" d="M8.66,101.43l-.33-.04-1.28-4.76,1.61-1.2,3.81-2.9,3.15-2.36,1.08,4.06-.83.58,1.08,4.06,1.03.12,1.08,3.98-6.59-.95-3.81-.58h0ZM152,104.58l1.04-3.11,1.86.58-1.08,3.27-1.82-.58-.04-.04.04-.12h0ZM152,100.89h.04l-.04.17-1.16,3.52-7.29-2.36-2.2-.7,1.2-3.69.99.33,8.45,2.73h0ZM152,88.84c.12-.08.21-.21.29-.33.21-.29.33-.75.41-1.33.04-.46.04-.79-.08-1.03-.08-.25-.21-.41-.41-.46-.08,0-.12,0-.21.04s-.17.08-.25.21c-.12.17-.25.54-.41,1.16l-.95,3.44c-.29,1.08-.7,1.82-1.24,2.32-.54.5-1.24.66-2.03.58-1.2-.17-2.03-.83-2.48-1.95-.41-1.16-.5-2.9-.21-5.22.21-1.86.7-3.23,1.37-4.18.7-.91,1.57-1.28,2.65-1.16l-.58,4.64c-.25,0-.5.12-.66.41-.21.29-.29.7-.37,1.2-.08.54-.04.91.04,1.2.08.25.25.41.5.46.21,0,.37-.08.54-.29.12-.21.29-.54.37-.99l.74-2.82c.25-1.16.7-2.03,1.28-2.57.46-.46,1.04-.66,1.7-.66h.37c1.12.12,1.86.7,2.28,1.66.37.99.46,2.44.21,4.43-.25,2.07-.7,3.56-1.32,4.51-.33.5-.7.83-1.12,1.08-.12.08-.25.12-.41.17-.33.12-.66.12-1.04.08l.54-4.43c.21-.04.37-.08.5-.16h0ZM152,64.57l1.37-.21,1.49,10.4-2.44.37-.41-3.07-.5-3.6-1.16.17.75,5.38-2.44.33-.74-5.34-1.33.17.99,6.96-2.53.37-1.49-10.52-.04-.25h.04l8.45-1.16h0ZM143.55,51.32l3.6-4.89,1.7,4.22-3.11,3.19,4.51.25,1.66,4.1-8.28-1.45-.08.04-2.53,1.03-1.45-3.6,2.61-1.03,1.37-1.86h0ZM143.55,40.63l.54.79-.54.37-7.83,5.09-2.11-3.27,8.37-5.43,1.57,2.44h0ZM143.55,38.6l1.33,2.07,1.66-1.08-1.86-2.86-1.12.7-.54.33.54.83h0ZM129.51,33.67c.08,0,.21.04.29.04.58.04,1.16-.21,1.78-.83.62-.58.91-1.16.87-1.74,0-.58-.37-1.24-1.08-1.95l-1.33-1.41-.54.54-2.94,2.86,1.33,1.37c.58.62,1.12.99,1.62,1.12h0ZM129.51,23.69l4.06,4.22c1.45,1.49,2.24,2.9,2.36,4.27.17,1.37-.37,2.65-1.53,3.77-1.16,1.12-2.44,1.57-3.81,1.41-.33-.04-.7-.17-1.08-.29-1.03-.41-2.07-1.12-3.11-2.24l-3.98-4.1-.46-.5.46-.45,6.71-6.46.37.37h0ZM122.43,18.1l.5.29-.5.87-.7,1.24-5.84-3.23-.58,1.04,4.76,2.65-1.2,2.15-4.76-2.65-.62,1.16,6.13,3.4-1.24,2.24-9.53-5.26,4.85-8.74,8.74,4.85h0ZM68.05,13.96l.83-.17c.29-.04.54-.12.74-.17.17-.04.33-.12.41-.21.17-.17.21-.37.17-.66-.04-.33-.21-.5-.41-.62-.21-.08-.62-.04-1.2.04l-.54.12-2.15.37.25,1.62,1.91-.33h0ZM68.05,10.15c.58-.08.91-.21,1.08-.33.12-.12.21-.33.12-.58-.04-.29-.12-.46-.29-.54-.17-.04-.46-.04-.91.04h-.21l-2.57.46.25,1.41,2.53-.46h0ZM68.05,6.34l.91-.17c1.37-.21,2.36-.21,3.02.08.62.25,1.03.83,1.16,1.7.08.5.08.95-.08,1.33-.17.41-.46.74-.83,1.08.58.08,1.08.29,1.45.66.33.37.58.83.7,1.45.12.91-.04,1.7-.58,2.24-.5.58-1.41.99-2.61,1.2l-3.15.58-5.26.91-1.74-9.82,7-1.24h0ZM79.93,15.03l.7-9.94,10.52.74-.17,2.44-6.67-.5-.08,1.2,5.43.37-.17,2.44-5.43-.37-.08,1.33,7,.5-.17,2.53-10.89-.74h0ZM95.26,16.82l3.07-9.48,3.64,1.2-2.24,6.88,5.8,1.86-.83,2.61-9.44-3.06h0ZM28.62,37.77l1.53,1.24-1.53,1.86-.91,1.12-6.13-4.93-.91-.74-.7-.58.7-.91.91-1.12.79-.99,6.25,5.05h0ZM28.62,25.68l1.99-1.7,6.67,1.95-3.73-4.43,2.9-2.4,6.38,7.66-3.31,2.77-6.96-1.78,3.77,4.47-2.82,2.36-4.89-5.84-1.49-1.82,1.49-1.24h0ZM21.58,46.88l1.66,2.15-1.66,3.11-.25.46-.66-.04-8.2-.58-1.99-.17,1.99-3.73.04-.12,6.92,1.28-4.85-5.09,2.03-3.81,4.06,5.34.91,1.2h0ZM20.67,31.6l.75.62-.75.87-1.41,1.78-1.53-1.24,2.15-2.65.79.62h0ZM12.47,97.08l-1.86,1.24,1.86.17,1.86.17-.62-2.4-1.24.83h0ZM12.47,82.17l2.78-.04.08,3.89-2.86.04-3.81.08-3.31.04-.12-7.58c-.04-.87,0-1.57.08-2.07.08-.54.21-.91.37-1.24.21-.37.5-.66.87-.87s.79-.29,1.28-.29c.29,0,.58,0,.83.08.25.08.5.17.7.33.46.25.79.66.99,1.16.17-.41.41-.74.66-.91.17-.12.33-.17.58-.25.25-.08.54-.08.87-.08l.33-.04c.62,0,1.12-.08,1.49-.17.37-.12.58-.25.66-.41h.12l.08,4.31c-.08.08-.25.12-.46.17-.21.04-.46.08-.74.08h-.46c-.12.04-.25.04-.37.04-.29.04-.5.12-.66.25-.04.04-.08.08-.08.12-.17.21-.25.58-.21,1.03l.04,2.32h.25ZM12.47,61.5l5.18,1.28-.95,3.73-4.22-1.04-2.98-.74-.83,3.19-.04.25-2.48-.58,2.53-10.11.17-.62,2.44.58-.87,3.52,2.07.54h0ZM8.66,82.25l.91-.04-.04-2.24c0-.58-.08-.99-.21-1.24-.12-.21-.37-.33-.66-.37h-.04c-.33.04-.54.12-.66.37-.17.21-.21.66-.21,1.37l.04,2.15h.87Z"/>
    </g>
  </g>
</svg>