<?xml version="1.0" encoding="iso-8859-1"?>
<!-- Generator: Adobe Illustrator 29.7.1, SVG Export Plug-In . SVG Version: 9.03 Build 0)  -->
<svg version="1.1" id="Layer_1" xmlns="http://www.w3.org/2000/svg" xmlns:xlink="http://www.w3.org/1999/xlink" x="0px" y="0px"
	 viewBox="0 0 1920 1080" style="enable-background:new 0 0 1920 1080;" xml:space="preserve">
<g>
	<polygon style="fill-rule:evenodd;clip-rule:evenodd;fill:#FFFFFF;" points="863,444 1055.756,444 1055.756,636.756 863,636.756 
		863,444 	"/>
	<path style="fill-rule:evenodd;clip-rule:evenodd;fill:#00A651;" d="M959.399,460.258c44.108,0,80.058,36.033,80.058,80.1
		c0,44.15-35.95,80.141-80.058,80.141c-44.109,0-80.1-35.991-80.1-80.141C879.299,496.29,915.29,460.258,959.399,460.258
		L959.399,460.258z"/>
	<path style="fill-rule:evenodd;clip-rule:evenodd;fill:#FFFFFF;" d="M959.399,477.694c34.458,0,62.663,28.163,62.663,62.664
		c0,34.541-28.205,62.704-62.663,62.704c-34.542,0-62.705-28.163-62.705-62.704C896.694,505.857,924.857,477.694,959.399,477.694
		L959.399,477.694z"/>
	<polygon style="fill-rule:evenodd;clip-rule:evenodd;" points="958.198,477.363 1014.069,572.745 905.267,572.745 958.198,477.363 
			"/>
	<path style="fill-rule:evenodd;clip-rule:evenodd;fill:#00A651;" d="M958.198,480.179c-6.875,12.176-13.253,24.519-20.129,36.695
		c0.828,4.307,2.195,5.219,3.976,4.721c-1.201-3.52,1.822-6.502,2.278-11.762c1.947,1.864,3.852,3.479,5.798,5.384
		c0.166,1.864,0,3.769-0.538,5.632c3.52-1.284,4.307-5.467,5.053-9.774c1.201-3.231,2.485-6.42,3.645-9.609
		c1.408-2.692,2.402-2.029,3.106,0.373c3.686,10.769,7.124,18.679,11.059,18.265c0.124-2.402,0.248-4.763,0.373-7.165
		c0.455-2.278,1.532-2.609,3.148-0.952c1.326,2.733,1.864,5.343,1.822,7.124c2.485,3.106,4.059,4.059,5.881,5.301
		C975.137,509.667,966.729,494.923,958.198,480.179L958.198,480.179z"/>
	<path style="fill-rule:evenodd;clip-rule:evenodd;fill:#00A651;" d="M959.937,507.679c1.822,5.467,3.645,10.934,5.467,16.401
		c-1.657-1.615-3.313-3.231-4.929-4.846c-0.58-0.745-1.408-1.035-2.443-0.87L959.937,507.679L959.937,507.679z"/>
	<path style="fill-rule:evenodd;clip-rule:evenodd;fill:#00A651;" d="M985.491,527.311l23.856,40.754
		c-10.147-10.147-20.294-20.253-30.441-30.4c-1.988-1.325-1.16-2.651,0.083-3.976C981.764,532.074,984.083,530.045,985.491,527.311
		L985.491,527.311z"/>
	<path style="fill-rule:evenodd;clip-rule:evenodd;fill:#F58220;" d="M978.989,540.275l28.122,27.625
		c-9.153-6.709-18.347-13.419-27.501-20.128C979.61,545.576,979.444,542.925,978.989,540.275L978.989,540.275z"/>
	<path style="fill-rule:evenodd;clip-rule:evenodd;fill:#F58220;" d="M957.411,521.513c0.994-0.994,1.988-0.952,2.94,0.166
		c2.112,1.988,4.183,3.976,6.254,5.964c0.994,2.278,2.029,4.556,3.023,6.834c0.249,1.905,0.373,3.645-0.621,5.467
		c-3.106-2.195-6.171-4.556-9.319-6.792c-3.23,2.237-6.461,4.432-9.691,6.627c-2.775-3.52-2.112-8.739,1.822-13.171
		C953.683,524.909,955.547,523.211,957.411,521.513L957.411,521.513z"/>
	<path style="fill-rule:evenodd;clip-rule:evenodd;fill:#F58220;" d="M937.531,541.6c-0.041,1.242,0.29,2.526,0.952,3.81
		c-0.124,0.87-0.041,1.739-0.082,2.609l-25.72,18.224C920.674,558.291,929.537,549.551,937.531,541.6L937.531,541.6z"/>
	<path style="fill-rule:evenodd;clip-rule:evenodd;fill:#00A651;" d="M935.253,521.678c2.651,4.39,4.431,9.153,4.763,14.703
		L911.48,565.29C919.39,550.753,927.342,536.174,935.253,521.678L935.253,521.678z"/>
	<path style="fill-rule:evenodd;clip-rule:evenodd;fill:#006CB7;" d="M939.146,549.925c1.243,2.651,3.686,2.982,7.455,0.787
		c-0.29,3.189-0.538,6.295-0.58,9.029c0.042,0.87-0.124,1.615-0.538,2.236c-0.497,0.953-0.787,1.864,0.331,2.775
		c1.532,1.118,3.023,2.195,4.514,3.313c0.704,0.621,0.994,0.414,0.787-0.621c-1.035-3.976-1.574-7.621-0.538-9.982
		c1.118-2.899,2.443-5.757,3.976-8.656c0.87-3.728,0.746-6.958-3.023-8.325l7.703-5.136c3.065,2.154,6.129,4.266,9.194,6.419
		c-2.112,6.71-2.982,14.247-0.456,23.939c1.077-0.124,2.154-0.29,3.23-0.414c0.124,0.497,0.29,1.035,0.414,1.574
		c-0.58,0.29-1.201,0.621-1.822,0.953c-0.828,0.538-2.444,1.035-0.083,1.822c1.947,0.124,3.935,0.041,6.089-0.29
		c0.456-0.166,0.745-0.621,0.745-1.284c-0.166-1.408-0.331-2.775-0.497-4.183c0.911-0.083,1.822-0.207,2.775-0.331
		c0.746-0.124,1.035-0.58,0.87-1.408c0-4.059,0-8.159,0-12.218l29.572,21.702l-101.761-0.083
		C918.065,564.337,928.585,557.131,939.146,549.925L939.146,549.925z"/>
	<path style="fill-rule:evenodd;clip-rule:evenodd;fill:#FFFFFF;" d="M944.24,515.963c-1.367,6.089,2.609,7.331,3.479,1.45
		C946.684,516.75,945.483,516.211,944.24,515.963L944.24,515.963z"/>
	<path style="fill-rule:evenodd;clip-rule:evenodd;fill:#FFFFFF;" d="M945.98,513.147c1.16,0.745,1.905,1.45-0.373,1.988
		C945.731,514.472,945.856,513.809,945.98,513.147L945.98,513.147z"/>
	<path style="fill-rule:evenodd;clip-rule:evenodd;fill:#FFFFFF;" d="M958.571,505.319c-0.704,3.603-1.409,7.207-2.154,10.81
		c-0.994,4.887-3.686,6.709-6.005,9.319c-3.81,4.183-3.976,7.662-3.893,11.058c-0.497,0-1.16,0-1.657,0
		c0.083-3.23,0.331-6.419,0.456-9.609c0.456,0,0.58-0.207,0.829-0.621c0.041-0.414,0.083-0.828,0.166-1.284
		c-0.29-1.574,0.994-1.574,1.947-1.698c0.621-0.249,1.615-0.953,2.237-1.201c1.16-1.325,3.355-2.278,4.1-5.136
		C955.547,512.318,956.831,508.342,958.571,505.319L958.571,505.319z"/>
	<path style="fill-rule:evenodd;clip-rule:evenodd;fill:#FFFFFF;" d="M937.117,519.028c1.45,4.183,3.106,4.514,4.763,4.224
		c0.58,0.331,1.035,1.325,1.449,2.899c-0.248,1.284,0.249,1.656,0.828,1.905c-0.124,2.775-0.207,5.633-0.29,8.449
		c-0.828,0-1.657,0-2.444,0c-0.787-6.295-2.361-11.887-5.343-15.738C936.413,520.188,936.785,519.608,937.117,519.028
		L937.117,519.028z"/>
	<path style="fill-rule:evenodd;clip-rule:evenodd;fill:#FFFFFF;" d="M942.252,537.707c1.698,1.408,3.065,0.87,4.349,0
		C945.151,537.707,943.702,537.707,942.252,537.707L942.252,537.707z"/>
	<path style="fill-rule:evenodd;clip-rule:evenodd;fill:#FFFFFF;" d="M940.637,538.701c0.787,0.207,1.574,0.414,2.361,0.621
		c0.58,0.414,0.663,0.828,0.249,1.242c-0.87,0.87-1.74,1.74-2.609,2.609c-0.621,0.704-1.201,0.746-1.45-0.166
		c0-0.663-0.041-1.325-0.083-1.988C939.643,540.233,940.14,539.488,940.637,538.701L940.637,538.701z"/>
	<path style="fill-rule:evenodd;clip-rule:evenodd;fill:#FFFFFF;" d="M944.986,539.861c0.331,0.455,0.58,1.035,0.911,1.449
		c-0.787,0.745-1.74,0.953-2.734,1.077C943.743,541.6,944.406,540.647,944.986,539.861L944.986,539.861z"/>
	<path style="fill-rule:evenodd;clip-rule:evenodd;fill:#FFFFFF;" d="M946.436,539.861c-0.207-0.746,0-0.994,0.621-0.746
		c0.166,0.166,0.29,0.331,0.456,0.538c0.456,0.621-0.124,0.704-0.538,0.911C946.808,540.316,946.601,540.109,946.436,539.861
		L946.436,539.861z"/>
	<path style="fill-rule:evenodd;clip-rule:evenodd;fill:#FFFFFF;" d="M943.329,522.755c0.166-0.041,0.331-0.124,0.539-0.207
		c0.373,0.745,0.787,1.532,1.201,2.278c0.083,1.284-0.207,1.615-0.911,0.994C943.868,524.826,943.578,523.791,943.329,522.755
		L943.329,522.755z"/>
	<path style="fill-rule:evenodd;clip-rule:evenodd;fill:#FFFFFF;" d="M940.264,545.741c-0.166-0.87-0.083-2.112,2.816-2.402
		c2.112-0.041,3.355-0.663,4.639-1.574c4.639-1.656,5.509,0.745,5.798,3.603c-0.207,4.059-3.562,7.58-4.804,11.473
		c-1.16,2.692-1.16,5.384,0.083,7.662c-0.704-0.456-1.657-1.16-2.361-1.615c0.248-2.236,0.621-4.763,0.828-7.413
		c-0.207-3.935,1.035-6.42,2.443-8.739c0.58-1.574,0.29-1.822-0.994-0.746C944.696,550.794,939.726,551.788,940.264,545.741
		L940.264,545.741z"/>
	<path style="fill-rule:evenodd;clip-rule:evenodd;fill:#FFFFFF;" d="M971.409,535.429c0.414,0.041,0.829,0.083,1.284,0.083
		c-0.083-3.065-0.166-6.129-0.248-9.153c-0.124-2.692-1.036-4.515-2.734-5.426c-1.449-1.988-3.976-3.852-5.384-7.372
		c-2.609-6.42-4.307-14.164-4.721-10.354C963.54,514.182,967.475,525.24,971.409,535.429L971.409,535.429z"/>
	<path style="fill-rule:evenodd;clip-rule:evenodd;fill:#FFFFFF;" d="M973.729,521.72c1.45,0.373,2.941-0.124,3.603-0.746
		c0.207,0.249,0.414,0.539,0.621,0.787C973.48,526.607,972.569,524.495,973.729,521.72L973.729,521.72z"/>
	<path style="fill-rule:evenodd;clip-rule:evenodd;fill:#FFFFFF;" d="M973.936,515.88c-0.124-1.367,2.029-1.657,2.361-0.414
		c-0.538,0.58-0.704,1.16,0.497,1.16c0.911,5.301-2.858,5.177-2.899,0.373C974.805,516.709,974.971,516.336,973.936,515.88
		L973.936,515.88z"/>
	<path style="fill-rule:evenodd;clip-rule:evenodd;fill:#FFFFFF;" d="M973.066,535.222c0.787,0.455,1.905-0.083,2.485-0.787
		c1.45-2.361,2.153-4.846,2.443-7.372c0.207-0.704,0.539-1.077,0.953-1.118c2.526,0.58,3.313,2.526,1.532,5.26
		c0.911-0.663,2.402-1.781,3.313-2.402c0.911-1.781,0.787-2.692-0.331-2.692c-1.408-1.077-3.023-2.402-4.432-3.479
		c-2.319,1.491-4.266,3.396-5.881,4.224C973.108,529.423,973.066,532.612,973.066,535.222L973.066,535.222z"/>
	<path style="fill-rule:evenodd;clip-rule:evenodd;fill:#FFFFFF;" d="M971.658,537.5c0.621,0.166,1.656,0.456,2.319,0.662
		c-0.621,5.094,0.166,9.443,1.325,13.626c0.787,1.574,0.207,1.988-0.58,2.195c-1.408,0.828-2.816,1.657-4.266,2.485
		c-0.746,0.124-1.657,0.704-1.698-1.118C968.51,549.8,968.717,543.96,971.658,537.5L971.658,537.5z"/>
	<path style="fill-rule:evenodd;clip-rule:evenodd;fill:#FFFFFF;" d="M974.722,539.446c0.58-2.319,1.284-2.609,2.361,0.083
		c0.704,2.567,0.829,4.721,0.829,6.792c0.083,5.177,0.124,10.354,0.207,15.531c-3.438,0.994-6.13,1.45-8.408,1.532
		c-0.207-1.74-0.373-3.438-0.538-5.135c0.87,0.041,1.698,0,2.319-0.663c1.284-1.864,2.609-2.195,3.893-2.816
		c1.201-0.373,1.45-1.532,1.284-3.065C975.22,547.895,974.391,543.919,974.722,539.446L974.722,539.446z"/>
	<polygon style="fill-rule:evenodd;clip-rule:evenodd;fill:#FFFFFF;" points="972.942,564.71 973.066,565.414 974.599,565.331 
		974.722,563.965 972.942,564.71 	"/>
	<path style="fill-rule:evenodd;clip-rule:evenodd;fill:#FFFFFF;" d="M972.693,568.23c1.326-2.568,1.781-1.615,1.906-0.083
		C974.019,568.148,973.356,568.189,972.693,568.23L972.693,568.23z"/>
	<path style="fill-rule:evenodd;clip-rule:evenodd;fill:#FFFFFF;" d="M977.829,532.985c0.083-3.769,1.698-6.792,2.651-4.431
		C980.355,529.63,978.657,532.571,977.829,532.985L977.829,532.985z"/>
	<path style="fill-rule:evenodd;clip-rule:evenodd;fill:#FFFFFF;" d="M973.563,536.837c0.746,0,1.408-0.041,2.154-0.041
		c0-0.373-0.041-0.704-0.041-1.077C974.722,535.885,974.101,536.257,973.563,536.837L973.563,536.837z"/>
	<path style="fill-rule:evenodd;clip-rule:evenodd;fill:#FFFFFF;" d="M972.61,521.389c0.207,0,0.373,0.166,0.373,0.373
		c0,0.166-0.166,0.331-0.373,0.331c-0.166,0-0.331-0.166-0.331-0.331C972.279,521.554,972.445,521.389,972.61,521.389
		L972.61,521.389z"/>
	<path style="fill-rule:evenodd;clip-rule:evenodd;fill:#FFFFFF;" d="M887.955,561.687l-0.331-0.041l-1.284-4.763l1.615-1.201
		l3.81-2.899l3.148-2.361l1.077,4.059l-0.828,0.58l1.077,4.059l1.035,0.124l1.077,3.976l-6.585-0.952L887.955,561.687
		L887.955,561.687z M1031.298,564.834l1.035-3.107l1.864,0.58l-1.077,3.272l-1.822-0.58l-0.042-0.041L1031.298,564.834
		L1031.298,564.834z M1031.298,561.148h0.041l-0.041,0.166l-1.16,3.521l-7.29-2.361l-2.195-0.704l1.201-3.686l0.994,0.331
		L1031.298,561.148L1031.298,561.148z M1031.298,549.096c0.124-0.083,0.207-0.208,0.29-0.331c0.207-0.29,0.331-0.746,0.414-1.326
		c0.041-0.455,0.041-0.787-0.082-1.035c-0.083-0.249-0.208-0.414-0.414-0.456c-0.083,0-0.124,0-0.207,0.041
		s-0.166,0.083-0.249,0.207c-0.124,0.166-0.249,0.539-0.414,1.16l-0.953,3.438c-0.29,1.077-0.704,1.822-1.242,2.319
		c-0.538,0.497-1.242,0.663-2.029,0.58c-1.201-0.166-2.029-0.828-2.485-1.946c-0.414-1.16-0.497-2.899-0.207-5.219
		c0.207-1.863,0.704-3.23,1.367-4.183c0.704-0.911,1.574-1.284,2.651-1.16l-0.58,4.639c-0.249,0-0.497,0.124-0.663,0.414
		c-0.207,0.29-0.29,0.704-0.373,1.201c-0.083,0.538-0.041,0.911,0.041,1.201c0.083,0.248,0.249,0.414,0.497,0.456
		c0.207,0,0.373-0.083,0.539-0.29c0.124-0.207,0.29-0.539,0.373-0.994l0.745-2.817c0.249-1.16,0.704-2.029,1.284-2.568
		c0.456-0.456,1.035-0.663,1.698-0.663c0.124,0,0.249,0,0.372,0c1.119,0.124,1.864,0.704,2.278,1.657
		c0.372,0.994,0.456,2.443,0.207,4.431c-0.248,2.071-0.704,3.562-1.325,4.514c-0.331,0.497-0.704,0.828-1.119,1.077
		c-0.124,0.083-0.248,0.124-0.414,0.166c-0.331,0.124-0.663,0.124-1.036,0.083l0.538-4.431
		C1031.008,549.22,1031.174,549.179,1031.298,549.096L1031.298,549.096z M1031.298,524.826l1.366-0.207l1.491,10.396l-2.444,0.373
		l-0.414-3.065l-0.497-3.603l-1.16,0.166l0.746,5.384l-2.444,0.331l-0.745-5.343l-1.326,0.166l0.994,6.958l-2.526,0.373
		l-1.491-10.52l-0.041-0.249h0.041L1031.298,524.826L1031.298,524.826z M1022.849,511.573l3.603-4.887l1.698,4.224l-3.106,3.189
		l4.514,0.249l1.657,4.1l-8.283-1.45l-0.083,0.042l-2.526,1.035l-1.45-3.603l2.609-1.035L1022.849,511.573L1022.849,511.573z
		 M1022.849,500.887l0.539,0.787l-0.539,0.373l-7.828,5.094l-2.112-3.272l8.366-5.426L1022.849,500.887L1022.849,500.887z
		 M1022.849,498.858l1.326,2.071l1.656-1.077l-1.864-2.858l-1.118,0.704l-0.538,0.331L1022.849,498.858L1022.849,498.858z
		 M1008.809,493.929c0.083,0,0.207,0.041,0.29,0.041c0.58,0.041,1.16-0.207,1.781-0.828c0.621-0.58,0.911-1.16,0.87-1.739
		c0-0.58-0.373-1.243-1.077-1.947l-1.325-1.408l-0.539,0.538l-2.941,2.858l1.325,1.367
		C1007.773,493.432,1008.312,493.805,1008.809,493.929L1008.809,493.929z M1008.809,483.948l4.059,4.224
		c1.45,1.491,2.237,2.899,2.361,4.266c0.166,1.367-0.373,2.651-1.533,3.769c-1.16,1.118-2.443,1.573-3.81,1.408
		c-0.331-0.041-0.704-0.166-1.077-0.29c-1.035-0.414-2.071-1.118-3.106-2.236l-3.976-4.101l-0.456-0.497l0.456-0.455l6.71-6.461
		L1008.809,483.948L1008.809,483.948z M1001.726,478.357l0.497,0.29l-0.497,0.87l-0.704,1.242l-5.84-3.23l-0.58,1.035l4.763,2.651
		l-1.201,2.154l-4.763-2.651l-0.621,1.16l6.13,3.396l-1.243,2.236l-9.526-5.26l4.846-8.739L1001.726,478.357L1001.726,478.357z
		 M947.347,474.215l0.828-0.166c0.29-0.041,0.539-0.124,0.745-0.166c0.166-0.042,0.331-0.124,0.414-0.207
		c0.166-0.166,0.207-0.373,0.166-0.662c-0.042-0.331-0.207-0.497-0.414-0.621c-0.207-0.083-0.621-0.041-1.201,0.041l-0.539,0.124
		l-2.154,0.373l0.249,1.616L947.347,474.215L947.347,474.215z M947.347,470.405c0.58-0.083,0.911-0.207,1.077-0.331
		c0.124-0.124,0.207-0.331,0.124-0.58c-0.041-0.29-0.124-0.456-0.29-0.538c-0.166-0.041-0.456-0.041-0.911,0.041
		c-0.083,0-0.166,0-0.207,0l-2.568,0.456l0.248,1.408L947.347,470.405L947.347,470.405z M947.347,466.594l0.911-0.166
		c1.367-0.207,2.361-0.207,3.023,0.083c0.621,0.248,1.035,0.828,1.16,1.698c0.083,0.497,0.083,0.952-0.083,1.325
		c-0.166,0.414-0.456,0.745-0.828,1.077c0.58,0.083,1.077,0.29,1.45,0.663c0.331,0.373,0.58,0.828,0.704,1.45
		c0.124,0.911-0.041,1.698-0.58,2.236c-0.497,0.58-1.408,0.994-2.609,1.201l-3.148,0.58l-5.26,0.911l-1.74-9.816L947.347,466.594
		L947.347,466.594z M959.233,475.292l0.704-9.94l10.52,0.745l-0.166,2.444l-6.668-0.497l-0.083,1.201l5.426,0.372l-0.166,2.444
		l-5.426-0.373l-0.083,1.325l6.999,0.497l-0.166,2.526L959.233,475.292L959.233,475.292z M974.557,477.073l3.065-9.484l3.644,1.201
		l-2.237,6.875l5.798,1.864L984,480.137L974.557,477.073L974.557,477.073z M907.918,498.03l1.532,1.242l-1.532,1.864l-0.911,1.118
		l-6.129-4.929l-0.911-0.745l-0.704-0.58l0.704-0.911l0.911-1.119l0.787-0.994L907.918,498.03L907.918,498.03z M907.918,485.936
		l1.988-1.698l6.668,1.947l-3.728-4.432l2.899-2.402l6.378,7.662l-3.313,2.775l-6.958-1.781l3.769,4.473l-2.816,2.361l-4.887-5.84
		l-1.491-1.822L907.918,485.936L907.918,485.936z M900.877,507.141l1.657,2.154l-1.657,3.106l-0.249,0.456l-0.663-0.042l-8.2-0.58
		l-1.988-0.166l1.988-3.728l0.041-0.124l6.917,1.284l-4.846-5.094l2.03-3.81l4.059,5.343L900.877,507.141L900.877,507.141z
		 M899.966,491.858l0.746,0.621l-0.746,0.87l-1.408,1.781l-1.533-1.242l2.154-2.651L899.966,491.858L899.966,491.858z
		 M891.765,557.338l-1.864,1.243l1.864,0.166l1.864,0.166l-0.621-2.402L891.765,557.338L891.765,557.338z M891.765,542.428
		l2.775-0.042l0.083,3.893l-2.858,0.041l-3.81,0.083l-3.313,0.041l-0.124-7.579c-0.041-0.87,0-1.574,0.083-2.071
		c0.083-0.538,0.207-0.911,0.373-1.242c0.207-0.373,0.497-0.663,0.87-0.87c0.373-0.207,0.787-0.29,1.284-0.29
		c0.29,0,0.58,0,0.829,0.083c0.248,0.083,0.497,0.166,0.704,0.331c0.456,0.249,0.787,0.662,0.994,1.16
		c0.166-0.414,0.414-0.745,0.663-0.911c0.166-0.124,0.331-0.166,0.58-0.249c0.248-0.083,0.538-0.083,0.87-0.083l0.331-0.042
		c0.621,0,1.118-0.083,1.491-0.166c0.372-0.124,0.58-0.248,0.662-0.414h0.124l0.083,4.307c-0.083,0.083-0.249,0.124-0.456,0.166
		c-0.207,0.041-0.455,0.083-0.745,0.083c-0.166,0-0.29,0-0.456,0c-0.124,0.042-0.248,0.042-0.372,0.042
		c-0.29,0.041-0.497,0.124-0.663,0.248c-0.041,0.041-0.083,0.083-0.083,0.124c-0.166,0.207-0.248,0.58-0.207,1.035l0.041,2.319
		H891.765L891.765,542.428z M891.765,521.761l5.177,1.284l-0.952,3.728l-4.224-1.036l-2.982-0.745l-0.828,3.189l-0.041,0.249
		l-2.485-0.58l2.526-10.106l0.166-0.621l2.444,0.58l-0.87,3.52L891.765,521.761L891.765,521.761z M887.955,542.511l0.911-0.041
		l-0.041-2.236c0-0.58-0.083-0.994-0.207-1.242c-0.124-0.207-0.372-0.331-0.662-0.373h-0.041c-0.331,0.041-0.539,0.124-0.663,0.373
		c-0.166,0.207-0.207,0.662-0.207,1.367l0.042,2.153H887.955L887.955,542.511z"/>
</g>
</svg>
