<?xml version="1.0" encoding="UTF-8"?>
<svg id="Layer_2" data-name="Layer 2" xmlns="http://www.w3.org/2000/svg" viewBox="0 0 253.9 136.61">
  <defs>
    <style>
      .cls-1, .cls-2 {
        fill: #fff;
      }

      .cls-1, .cls-3 {
        fill-rule: evenodd;
      }

      .cls-3 {
        fill: #089bd7;
      }
    </style>
  </defs>
  <g id="Layer_1-2" data-name="Layer 1">
    <g id="katman_1" data-name="katman 1">
      <g>
        <path class="cls-3" d="M20.83,136.61c-11.51,0-20.83-9.2-20.83-20.56V20.56C0,9.21,9.32,0,20.83,0h212.23c11.51,0,20.84,9.2,20.84,20.56v95.49c0,11.36-9.33,20.56-20.84,20.56H20.83Z"/>
        <g>
          <g>
            <path class="cls-1" d="M66.56,70.06v-5.24h1.14v7h-.03c-.65-.26-1.1-.89-1.1-1.64v-.12h-.01Z"/>
            <path class="cls-1" d="M69.89,66.63c0,.42.35.76.77.76.42,0,.77-.34.77-.76s-.35-.76-.77-.76-.77.34-.77.76h0ZM71.78,69.62c0-.6-.5-1.1-1.12-1.1s-1.12.51-1.12,1.1.51,1.11,1.12,1.11c.62,0,1.11-.5,1.12-1.11h0ZM72.91,69.62c0,.6-.24,1.14-.66,1.57s-.98.65-1.59.65-1.16-.23-1.59-.65c-.43-.42-.66-.97-.66-1.57s.24-1.15.66-1.57c.06-.06.12-.11.17-.16-.31-.32-.49-.77-.49-1.26,0-1.04.85-1.86,1.9-1.86s1.9.83,1.9,1.86c0,.48-.18.94-.48,1.26.05.05.11.1.17.16.42.42.66.98.66,1.57Z"/>
            <path class="cls-1" d="M75.1,66.63c0,.42.36.76.78.76.42,0,.77-.34.77-.76,0-.42-.34-.76-.77-.76s-.78.34-.78.76h0ZM76.99,69.62c0-.6-.49-1.1-1.11-1.1s-1.12.51-1.12,1.1.51,1.11,1.12,1.11c.62,0,1.11-.5,1.11-1.11h0ZM78.13,69.62c0,.6-.24,1.14-.66,1.57s-.98.65-1.59.65-1.17-.23-1.59-.65c-.42-.42-.66-.97-.66-1.57s.24-1.15.66-1.57c.06-.06.12-.11.18-.16-.31-.32-.49-.77-.49-1.26,0-1.04.85-1.86,1.91-1.86s1.89.83,1.89,1.86c0,.48-.18.94-.48,1.26.06.05.12.1.18.16.43.42.66.98.66,1.57Z"/>
            <path class="cls-1" d="M79.98,66.57v5.25h-1.14v-7h.03c.65.26,1.1.89,1.1,1.64v.11h0Z"/>
          </g>
          <g>
            <g>
              <path class="cls-1" d="M48.65,52.6c0,8.38,9.67,15.52,9.67,15.52l1.11-3.14c-2.96-2.39-7.68-7.64-7.68-12.38s4.8-9.47,4.8-9.47c2.14,1.68,5.02,5.97,5.02,9.33,0,3.34-1.77,5.46-1.77,5.46-3.98-1.39-5.91-5.39-5.91-5.39,0,6.05,6.2,10.34,6.2,10.34,3.77-2.91,4.36-10.2,4.36-10.2,0-5.97-3.32-9.88-5.63-11.87.61-.44,1.21-.85,1.8-1.25,1.84,1.63,4.01,3.97,5.37,6.92,0,0-.1-5.36-2.15-9.03,12.88-8.11,17.34-6.85,17.34-6.85l-2.38-1.95c-8.22,0-19.97,8.81-22.44,10.74-1.35.93-7.72,5.74-7.72,13.23Z"/>
              <path class="cls-1" d="M52.98,30.88c-.26.53-.4,1.13-.4,1.75,0,2.26,1.85,4.08,4.13,4.08s4.14-1.82,4.14-4.08c0-.64-.15-1.23-.4-1.77.17-.08.32-.18.45-.3.61.66,1.21,1.46,1.65,2.39,0,0-.06-2.89-1.21-4.65-.08.06-.15.1-.22.15-.3-.43-.8-.72-1.38-.71h-6c-.91,0-1.65.81-1.63,1.71,0,.62.37,1.15.89,1.42Z"/>
              <path class="cls-2" d="M34.44,28.62l-2.37,1.95s4.46-1.26,17.34,6.85c-2.04,3.67-2.15,9.03-2.15,9.03,1.36-2.95,3.54-5.29,5.37-6.92,0,0,1.44-1.19,2.22-1.7-4.37-3.18-13.6-9.22-20.41-9.22Z"/>
            </g>
            <g>
              <path class="cls-1" d="M74.76,39.42c-7.35,4.18-8.78,16.02-8.78,16.02l3.3-.62c.63-3.73,2.88-10.38,7.03-12.75,4.16-2.37,10.71-.63,10.71-.63-.4,2.66-2.73,7.27-5.68,8.95-2.93,1.68-5.68,1.22-5.68,1.22-.77-4.1,1.79-7.75,1.79-7.75-5.31,3.02-5.98,10.47-5.98,10.47,4.44,1.77,11.13-1.37,11.13-1.37,5.24-2.99,7.02-7.77,7.61-10.75.69.3,1.36.61,1.99.92-.51,2.38-1.47,5.41-3.38,8.05,0,0,4.65-2.77,6.85-6.35,13.56,6.95,14.69,11.4,14.69,11.4l.53-3c-4.11-7.02-17.72-12.67-20.66-13.82-1.5-.68-8.9-3.73-15.47.02Z"/>
              <path class="cls-1" d="M95.98,32.27c-.59.04-1.19.21-1.74.52-1.98,1.13-2.65,3.62-1.52,5.57,1.14,1.96,3.67,2.63,5.65,1.5.55-.32,1-.74,1.35-1.23.16.1.32.18.5.23-.28.86-.68,1.77-1.29,2.61,0,0,2.51-1.5,3.47-3.37-.08-.03-.16-.07-.24-.11.23-.48.22-1.05-.07-1.53l-3-5.13c-.46-.78-1.53-1.01-2.32-.55-.54.32-.82.89-.8,1.48Z"/>
              <path class="cls-2" d="M88.7,15.28l-2.9-1.05s3.34,3.18,2.65,18.25c-4.24.09-9,2.67-9,2.67,3.27-.31,6.41.38,8.75,1.14,0,0,1.76.63,2.6,1.05.6-5.33,1.29-16.24-2.12-22.06Z"/>
            </g>
            <g>
              <path class="cls-1" d="M99.37,55.13c-7.35-4.18-18.45.51-18.45.51l2.19,2.51c3.59-1.33,10.55-2.74,14.71-.37,4.16,2.37,5.91,8.83,5.91,8.83-2.53.99-7.74,1.31-10.69-.37-2.94-1.67-3.91-4.24-3.91-4.24,3.21-2.71,7.69-2.35,7.69-2.35-5.31-3.02-12.18.13-12.18.13.67,4.68,6.77,8.82,6.77,8.82,5.24,2.98,10.33,2.1,13.24,1.12.08.74.14,1.46.19,2.16-2.35.76-5.49,1.45-8.75,1.14,0,0,4.76,2.59,9,2.67.68,15.07-2.65,18.25-2.65,18.25l2.89-1.05c4.11-7.02,2.26-21.48,1.79-24.55-.15-1.62-1.18-9.47-7.75-13.21Z"/>
              <path class="cls-1" d="M116.26,69.68c-.34-.49-.78-.92-1.34-1.22-1.98-1.13-4.51-.46-5.64,1.5-1.14,1.96-.48,4.45,1.52,5.58.55.31,1.15.49,1.75.54-.01.18,0,.36.05.54-.89.19-1.9.3-2.93.21,0,0,2.57,1.39,4.69,1.28-.01-.09-.02-.17-.03-.26.53-.04,1.03-.33,1.31-.82l3-5.13c.45-.79.11-1.81-.69-2.26-.54-.3-1.19-.26-1.69.06Z"/>
              <path class="cls-2" d="M127.51,54.95l-.53-3s-1.12,4.44-14.69,11.4c-2.2-3.58-6.85-6.35-6.85-6.35,1.9,2.63,2.87,5.66,3.38,8.05,0,0,.33,1.82.39,2.74,4.97-2.15,14.89-7.02,18.29-12.84Z"/>
            </g>
            <g>
              <path class="cls-1" d="M97.93,83.96c-.03-8.38-9.72-15.49-9.72-15.49l-1.1,3.14c2.97,2.39,7.7,7.63,7.72,12.36.01,4.74-4.77,9.47-4.77,9.47-2.15-1.67-5.04-5.95-5.05-9.31,0-3.34,1.76-5.46,1.76-5.46,3.99,1.38,5.92,5.38,5.92,5.38-.01-6.06-6.23-10.33-6.23-10.33-3.76,2.93-4.32,10.21-4.32,10.21.02,5.97,3.34,9.87,5.67,11.86-.61.44-1.21.86-1.8,1.25-1.84-1.62-4.02-3.95-5.4-6.89,0,0,.13,5.36,2.18,9.02-12.86,8.15-17.32,6.9-17.32,6.9l2.38,1.95c8.22-.03,19.95-8.87,22.41-10.81,1.35-.93,7.71-5.76,7.68-13.25Z"/>
              <path class="cls-1" d="M93.66,105.68c.26-.53.4-1.12.4-1.75,0-2.26-1.86-4.08-4.15-4.07-2.28,0-4.13,1.83-4.13,4.09,0,.63.15,1.22.42,1.77-.17.08-.32.18-.45.3-.62-.66-1.22-1.46-1.66-2.39,0,0,.06,2.89,1.23,4.65.07-.06.14-.1.21-.15.3.43.81.72,1.38.7l6.01-.02c.91-.01,1.65-.81,1.63-1.71,0-.62-.37-1.15-.9-1.42Z"/>
              <path class="cls-2" d="M112.22,107.89l2.37-1.96s-4.46,1.27-17.37-6.8c2.03-3.67,2.12-9.04,2.12-9.04-1.35,2.95-3.52,5.29-5.35,6.93,0,0-1.43,1.19-2.21,1.71,4.38,3.15,13.63,9.17,20.44,9.15Z"/>
            </g>
            <g>
              <path class="cls-1" d="M71.76,97.2c7.35-4.18,8.8-16.02,8.8-16.02l-3.31.62c-.63,3.73-2.88,10.38-7.04,12.75-4.16,2.37-10.7.62-10.7.62.4-2.66,2.73-7.27,5.68-8.94,2.94-1.67,5.68-1.22,5.68-1.22.77,4.1-1.79,7.74-1.79,7.74,5.31-3.02,5.98-10.46,5.98-10.46-4.44-1.77-11.13,1.37-11.13,1.37-5.25,2.99-7.02,7.77-7.62,10.74-.69-.31-1.35-.61-1.99-.92.51-2.38,1.47-5.41,3.38-8.05,0,0-4.65,2.76-6.85,6.35-13.56-6.96-14.68-11.41-14.68-11.41l-.53,3.01c4.11,7.02,17.71,12.68,20.64,13.82,1.49.69,8.9,3.73,15.47,0Z"/>
              <path class="cls-1" d="M50.54,104.34c.59-.04,1.19-.21,1.74-.52,1.99-1.13,2.66-3.62,1.52-5.57-1.14-1.96-3.66-2.63-5.65-1.5-.55.31-1,.74-1.35,1.22-.15-.1-.32-.17-.5-.23.28-.86.68-1.77,1.29-2.61,0,0-2.51,1.49-3.47,3.36.08.03.16.07.24.11-.23.48-.23,1.05.06,1.53l3,5.13c.46.78,1.53,1.01,2.32.55.55-.32.83-.89.8-1.48Z"/>
              <path class="cls-2" d="M57.82,121.33l2.89,1.05s-3.33-3.18-2.64-18.25c4.24-.08,9-2.67,9-2.67-3.27.31-6.41-.39-8.75-1.14,0,0-1.76-.63-2.6-1.05-.6,5.33-1.3,16.24,2.1,22.06Z"/>
            </g>
            <g>
              <path class="cls-1" d="M47.18,81.5c7.35,4.18,18.45-.51,18.45-.51l-2.2-2.51c-3.59,1.33-10.55,2.74-14.71.38-4.16-2.37-5.91-8.84-5.91-8.84,2.54-.99,7.74-1.31,10.69.37,2.94,1.68,3.91,4.24,3.91,4.24-3.21,2.72-7.69,2.35-7.69,2.35,5.31,3.02,12.18-.13,12.18-.13-.68-4.68-6.78-8.82-6.78-8.82-5.25-2.99-10.33-2.1-13.23-1.12-.08-.74-.14-1.47-.19-2.16,2.34-.76,5.48-1.45,8.75-1.14,0,0-4.75-2.59-8.99-2.67-.68-15.07,2.65-18.25,2.65-18.25l-2.9,1.06c-4.1,7.02-2.24,21.48-1.78,24.56.14,1.61,1.18,9.47,7.75,13.2Z"/>
              <path class="cls-1" d="M30.28,66.96c.33.48.78.9,1.33,1.22,1.98,1.13,4.51.46,5.65-1.5,1.14-1.95.47-4.45-1.51-5.58-.56-.31-1.15-.48-1.76-.54.02-.18,0-.36-.04-.54.89-.19,1.89-.3,2.93-.21,0,0-2.56-1.4-4.69-1.28.01.09.02.17.03.26-.53.05-1.03.33-1.31.82l-3,5.13c-.45.79-.11,1.81.68,2.25.55.3,1.19.26,1.69-.06Z"/>
              <path class="cls-2" d="M19.03,81.68l.53,3s1.12-4.44,14.69-11.4c2.2,3.58,6.85,6.35,6.85,6.35-1.9-2.63-2.87-5.67-3.38-8.05,0,0-.33-1.81-.39-2.74-4.97,2.15-14.89,7.02-18.29,12.84Z"/>
            </g>
          </g>
        </g>
        <g>
          <path class="cls-2" d="M133.51,79.96h2.99c1.98,0,3.41.6,3.41,2.36v.38c0,.87-.45,1.66-1.11,1.97.74.32,1.24,1.13,1.24,2.03v.37c0,1.7-1.44,2.43-3.54,2.43h-1.68s-1.3-.01-1.3-.77v-8.78h0ZM135.01,81.1v3.01h1.6c1.34,0,1.81-.55,1.81-1.6s-.62-1.41-1.92-1.41h-1.49ZM135.01,85.24v3.13h1.49c1.44,0,2.05-.42,2.05-1.5s-.59-1.63-1.94-1.63h-1.6Z"/>
          <path class="cls-2" d="M151.22,86.74c0,1.97-1.85,2.94-3.95,2.94s-3.94-.97-3.94-2.94v-6.9s1.49,0,1.49.77v5.92c0,1.28,1.01,1.95,2.45,1.95s2.46-.66,2.46-1.95v-6.7s1.49,0,1.49.77v6.13ZM145.46,77.59h1.01c.22,0,.37.19.37.34v1.02h-.98c-.23,0-.4-.16-.4-.34v-1.02h0ZM147.72,77.59h1.01c.22,0,.37.19.37.34v1.02h-.99c-.23,0-.4-.16-.4-.34v-1.02h0Z"/>
          <path class="cls-2" d="M157.04,85.47c-1.61-1.53-2.31-4.04-3.27-5.51,0,0,.33-.08.61-.08.41,0,1.04.12,1.4.82,1.11,2.23,1.48,3.07,2.01,3.62.65-.76,1.24-2.08,1.81-3.27.47-.96,1.07-1.18,1.59-1.18.26,0,.62.08.62.08-.92,1.44-1.71,4.01-3.28,5.51v4.17s-1.49,0-1.49-.78v-3.39h0Z"/>
          <path class="cls-2" d="M172.26,86.74c0,1.97-1.85,2.94-3.95,2.94s-3.94-.97-3.94-2.94v-6.9s1.49,0,1.49.77v5.92c0,1.28,1.01,1.95,2.45,1.95s2.46-.66,2.46-1.95v-6.7s1.49,0,1.49.77v6.13ZM166.51,77.59h1.01c.22,0,.37.19.37.34v1.02h-.99c-.23,0-.4-.16-.4-.34v-1.02h0ZM168.76,77.59h1.01c.22,0,.37.19.37.34v1.02h-.98c-.23,0-.4-.16-.4-.34v-1.02h0Z"/>
          <path class="cls-2" d="M177.31,89.64s-1.49,0-1.49-.77v-9.05s1.49,0,1.49.77v3.29c1.65-.22,2.53-1.37,3.6-3.26.38-.69.98-.82,1.42-.82.29,0,.62.08.62.08-.93,1.42-1.84,3.92-3.78,4.5,2.19.46,3.3,3.87,4.18,5.14,0,0-.36.09-.62.09-.42,0-1.16-.14-1.55-.82-.98-1.78-1.75-3.64-3.89-3.91v4.76h0Z"/>
          <path class="cls-2" d="M188.43,90.68c.1-.35.22-.7.34-1.04-1.52-.08-3-.47-3-1.62,0-.32.12-.73.41-1.19,0,1.35,1.71,1.61,3.13,1.61s2.21-.64,2.21-1.63c0-2.64-6-.47-6-4.24,0-2.15,1.71-2.81,3.81-2.81,1.83,0,3.45.34,3.45,1.62,0,.35-.12.77-.4,1.27v-.08c0-1.3-1.57-1.58-3.05-1.58-1.25,0-2.23.4-2.23,1.4,0,2.36,6.01.15,6.01,4.32,0,1.86-1.46,2.83-3.5,2.92-.04.17-.05.32-.08.5h.08c.81,0,1.42.51,1.42,1.3s-.74,1.27-1.52,1.27c-.84,0-1.16-.59-1.16-.92.14.07.45.16.79.16.38,0,.78-.15.78-.57s-.45-.55-.84-.55c-.34,0-.76.15-.76.15l.09-.31Z"/>
          <path class="cls-2" d="M197.89,84.93v3.44h4.89c0,.07-.03,1.13-.86,1.13h-4.2s-1.31,0-1.31-.77v-8.77h6.38s0,1.13-.86,1.13h-4.03v2.71h2.98c1.05,0,1.35-.22,1.35-.22,0,.56-.15,1.35-1.14,1.35h-3.2Z"/>
          <path class="cls-2" d="M212.29,85.2h-4.82v4.44s-1.49,0-1.49-.77v-9.05s1.49,0,1.49.77v3.46h4.82v-4.23s1.49,0,1.49.77v9.05s-1.49,0-1.49-.77v-3.67Z"/>
          <path class="cls-2" d="M217.48,79.83s1.49,0,1.49.77v9.05s-1.49,0-1.49-.77v-9.05ZM217.5,77.59h1.03c.17,0,.4.17.4.34v1.02h-1.01c-.2,0-.41-.15-.41-.32v-1.04h0Z"/>
          <path class="cls-2" d="M226.42,85.15c1.78.85,2.46,3.26,3.23,4.38,0,0-.36.08-.62.08-.44,0-1.1-.12-1.48-.82-.9-1.66-1.46-3.16-3.41-3.53v4.38s-1.49-.02-1.49-.77v-8.91h2.98c1.99,0,3.41.58,3.41,2.36v.4c0,1.49-1.09,2.42-2.63,2.42ZM224.15,81.1v3.02h1.6c1.34,0,1.81-.54,1.81-1.59s-.62-1.43-1.92-1.43h-1.49Z"/>
          <path class="cls-2" d="M144.31,95.21h2.55c1.7,0,2.92.51,2.92,2.02v.32c0,.75-.39,1.42-.95,1.69.64.28,1.07.97,1.07,1.75v.31c0,1.46-1.23,2.08-3.03,2.08h-1.44s-1.11-.01-1.11-.66v-7.51h0ZM145.58,96.19v2.58h1.37c1.15,0,1.55-.48,1.55-1.38s-.53-1.2-1.64-1.2h-1.28ZM145.58,99.74v2.68h1.28c1.23,0,1.76-.36,1.76-1.28s-.5-1.4-1.66-1.4h-1.37Z"/>
          <path class="cls-2" d="M154.11,99.47v2.95h4.18c0,.06-.02.97-.74.97h-3.6s-1.12,0-1.12-.66v-7.51h5.46s0,.97-.74.97h-3.45v2.31h2.55c.9,0,1.16-.18,1.16-.18,0,.47-.13,1.15-.98,1.15h-2.73Z"/>
          <path class="cls-2" d="M162.17,103.39s-1.12,0-1.12-.66v-7.63s1.28,0,1.28.65v6.66h2.75c.9,0,1.16-.17,1.16-.17,0,.47-.14,1.14-.74,1.14h-3.33Z"/>
          <path class="cls-2" d="M169.87,99.47v2.95h4.18c0,.06-.02.97-.74.97h-3.6s-1.12,0-1.12-.66v-7.51h5.46s0,.97-.74.97h-3.45v2.31h2.55c.9,0,1.16-.18,1.16-.18,0,.47-.13,1.15-.97,1.15h-2.74Z"/>
          <path class="cls-2" d="M177.91,103.39c-.1,0-1.1-.02-1.1-.66v-7.51h3.25c1.8,0,3.5.59,3.5,2.75v2.67c0,2.16-1.7,2.75-3.5,2.75h-2.15ZM178.09,96.19v6.23h1.97c1.24,0,2.22-.47,2.22-1.9v-2.46c0-1.43-.98-1.88-2.22-1.88h-1.97Z"/>
          <path class="cls-2" d="M186.62,95.1s1.28,0,1.28.65v7.75s-1.28,0-1.28-.65v-7.75ZM186.64,93.18h.87c.14,0,.34.15.34.29v.88h-.87c-.17,0-.35-.12-.35-.28v-.89h0Z"/>
          <path class="cls-2" d="M193,99.93c-1.38-1.31-1.98-3.45-2.8-4.71,0,0,.28-.06.53-.06.35,0,.89.1,1.2.7.95,1.91,1.26,2.63,1.72,3.1.56-.64,1.06-1.78,1.56-2.8.4-.82.91-1,1.36-1,.22,0,.53.06.53.06-.78,1.23-1.47,3.44-2.81,4.71v3.57s-1.28,0-1.28-.67v-2.91h0Z"/>
          <path class="cls-2" d="M200.68,99.47v2.95h4.18c0,.06-.02.97-.74.97h-3.6s-1.12,0-1.12-.66v-7.51h5.46s0,.97-.74.97h-3.45v2.31h2.55c.9,0,1.16-.18,1.16-.18,0,.47-.13,1.15-.97,1.15h-2.74Z"/>
          <path class="cls-2" d="M210.54,95.05c1.57,0,2.95.29,2.95,1.39,0,.3-.1.66-.34,1.09v-.07c0-1.11-1.35-1.35-2.61-1.35-1.08,0-1.91.35-1.91,1.2,0,2.02,5.14.13,5.14,3.7,0,1.68-1.38,2.5-3.26,2.5-1.44,0-3.03-.3-3.03-1.4,0-.28.1-.62.35-1.01,0,1.15,1.46,1.38,2.68,1.38s1.9-.55,1.9-1.39c0-2.27-5.14-.41-5.14-3.63,0-1.84,1.46-2.41,3.27-2.41Z"/>
          <path class="cls-2" d="M216.59,95.1s1.28,0,1.28.65v7.75s-1.28,0-1.28-.65v-7.75ZM216.61,93.18h.88c.14,0,.34.15.34.29v.88h-.87c-.18,0-.35-.12-.35-.28v-.89h0Z"/>
        </g>
        <g>
          <path class="cls-2" d="M175.28,37.86v7.17s-1.56,0-1.56-.75v-6.42h-1.43c-.97,0-1.11-.72-1.11-1.32,0,0,.4.18,1.29.18h4.07c.88,0,1.29-.18,1.29-.18,0,.6-.14,1.32-1.11,1.32h-1.46Z"/>
          <path class="cls-2" d="M177.55,43.48h.95c.24,0,.45.18.45.36v1.08h-.94c-.25,0-.46-.16-.46-.36v-1.08Z"/>
          <path class="cls-2" d="M182.16,39.57v2.49c0,1.38.85,1.81,2,1.81s2.48-.23,2.84-1.37c1.07,1.84-.92,2.55-2.84,2.55s-3.56-.73-3.56-2.82v-2.83c0-2.09,1.7-2.82,3.56-2.82s4.02.64,2.84,2.56c-.29-1.06-1.72-1.37-2.84-1.37-1.15,0-2,.43-2,1.79Z"/>
          <path class="cls-2" d="M188.88,43.48h.95c.24,0,.45.18.45.36v1.08h-.94c-.26,0-.47-.16-.47-.36v-1.08Z"/>
        </g>
        <g>
          <path class="cls-2" d="M150.69,58.89l2.81,8.57c.79,2.44,1.39,4.4,2.05,5.38,0,0-1.09.36-1.85.36-3.11,0-3.86-2.64-4.69-5.08l-.56-1.73h-8.32l-.56,1.73c-.82,2.44-1.59,5.08-4.69,5.08-.76,0-1.84-.36-1.84-.36.66-.98,1.25-2.93,2.05-5.38l2.8-8.57c2.21-6.72,5.91-9.65,6.41-9.97.49.33,4.19,3.26,6.4,9.97ZM142.1,59.74l-1.02,3.39h6.41l-1.03-3.39c-.82-2.74-2.17-5.51-2.17-5.51-.53.81-1.36,2.77-2.19,5.51Z"/>
          <path class="cls-2" d="M161.32,63.25c-4-3.94-5.09-8.96-8.03-13.49,0,0,1.19-.29,2.01-.29,1.12,0,2.84.32,3.73,2.12l1.52,3.03c1.02,2.05,1.92,3.98,2.97,5.31.99-1.31,1.88-3.26,2.87-5.18l1.62-3.16c.93-1.79,2.54-2.12,3.73-2.12.69,0,2.02.32,2.02.32-2.68,4.4-4.2,9.62-8.03,13.46v10.04s-4.42,0-4.42-2.12v-7.92h0Z"/>
          <path class="cls-2" d="M179.69,72.97c-.33,0-3.54-.1-3.54-2.12v-21.18h9.58c5.28,0,10.27,1.73,10.27,8.02v7.27c0,6.29-4.99,8.02-10.27,8.02h-6.04ZM180.58,52.89v16.84h5.15c3.27,0,5.84-1.23,5.84-5.12v-6.65c0-3.87-2.58-5.08-5.84-5.08h-5.15Z"/>
          <path class="cls-2" d="M200.29,49.34s4.42,0,4.42,2.12v21.83s-4.42,0-4.42-2.12v-21.83Z"/>
          <path class="cls-2" d="M224.99,66.48s-.4-1.86-.4-3.45v-13.36s4.42,0,4.42,2.12v21.51c-4.98,0-6.01-2.35-6.01-2.35l-9.61-15.06s.37,1.86.37,3.46v13.94s-4.42,0-4.42-2.12v-21.51c2.64,0,4.82,0,5.98,1.86l9.68,14.95Z"/>
        </g>
      </g>
    </g>
  </g>
</svg>