<?xml version="1.0" encoding="iso-8859-1"?>
<!-- Generator: Adobe Illustrator 29.7.1, SVG Export Plug-In . SVG Version: 9.03 Build 0)  -->
<svg version="1.1" xmlns="http://www.w3.org/2000/svg" xmlns:xlink="http://www.w3.org/1999/xlink" x="0px" y="0px"
	 viewBox="0 0 289.889 370.604" style="enable-background:new 0 0 289.889 370.604;" xml:space="preserve">
<g id="&#xC7;al&#x131;&#x15F;ma_Y&#xFC;zeyi_K&#x131;lavuzlar&#x131;">
</g>
<g id="katman_1">
	<g>
		<path style="fill-rule:evenodd;clip-rule:evenodd;fill:#089BD7;" d="M179.77,161.526c0,4.446-3.605,8.048-8.049,8.048h-37.38
			c-4.445,0-8.048-3.602-8.048-8.048v-53.122c0-4.445,3.603-8.048,8.048-8.048h37.38c4.443,0,8.049,3.603,8.049,8.048V161.526z"/>
		<g>
			<g>
				<path style="fill-rule:evenodd;clip-rule:evenodd;fill:#FFFFFF;" d="M151.557,124.283l0.004-1.553h0.328v2.073h-0.008
					c-0.189-0.076-0.32-0.263-0.32-0.484v-0.035H151.557z"/>
				<path style="fill-rule:evenodd;clip-rule:evenodd;fill:#FFFFFF;" d="M152.529,123.268c0,0.125,0.104,0.226,0.227,0.226
					c0.125,0,0.227-0.101,0.227-0.225c0-0.125-0.102-0.225-0.227-0.225C152.633,123.044,152.529,123.144,152.529,123.268
					L152.529,123.268z M153.082,124.155c0-0.18-0.145-0.328-0.326-0.328c-0.18,0-0.328,0.147-0.328,0.328
					c0,0.18,0.148,0.328,0.328,0.328C152.937,124.483,153.082,124.335,153.082,124.155L153.082,124.155z M153.414,124.155
					c0,0.177-0.068,0.338-0.193,0.464c-0.125,0.124-0.287,0.193-0.465,0.193c-0.174,0-0.342-0.069-0.465-0.193
					c-0.125-0.125-0.195-0.287-0.195-0.464c0-0.177,0.07-0.343,0.195-0.467c0.018-0.017,0.033-0.032,0.051-0.045
					c-0.092-0.096-0.143-0.231-0.143-0.373c0-0.308,0.25-0.553,0.557-0.553c0.309,0,0.555,0.245,0.555,0.553
					c0,0.143-0.053,0.277-0.141,0.373c0.016,0.013,0.033,0.029,0.051,0.045C153.346,123.812,153.414,123.978,153.414,124.155z"/>
				<path style="fill-rule:evenodd;clip-rule:evenodd;fill:#FFFFFF;" d="M154.055,123.268c0,0.125,0.105,0.226,0.23,0.226
					c0.123,0,0.225-0.101,0.225-0.225c0-0.125-0.102-0.225-0.225-0.225C154.159,123.044,154.055,123.144,154.055,123.268
					L154.055,123.268z M154.608,124.155c0-0.18-0.145-0.328-0.324-0.328c-0.182,0-0.329,0.147-0.329,0.328
					c0,0.18,0.147,0.328,0.329,0.328C154.464,124.483,154.608,124.335,154.608,124.155L154.608,124.155z M154.94,124.155
					c0,0.177-0.068,0.338-0.193,0.464c-0.123,0.124-0.287,0.193-0.463,0.193c-0.178,0-0.343-0.069-0.468-0.193
					c-0.125-0.125-0.195-0.287-0.195-0.464c0-0.177,0.07-0.343,0.195-0.467c0.016-0.017,0.033-0.032,0.051-0.045
					c-0.09-0.096-0.141-0.231-0.141-0.373c0-0.308,0.248-0.553,0.558-0.553c0.307,0,0.553,0.245,0.553,0.553
					c0,0.143-0.053,0.277-0.143,0.373c0.018,0.013,0.035,0.029,0.053,0.045C154.872,123.812,154.94,123.978,154.94,124.155z"/>
				<path style="fill-rule:evenodd;clip-rule:evenodd;fill:#FFFFFF;" d="M155.481,123.247l-0.004,1.555h-0.328v-2.073h0.006
					c0.191,0.075,0.322,0.262,0.322,0.483v0.034H155.481z"/>
			</g>
			<g>
				<g>
					<path style="fill-rule:evenodd;clip-rule:evenodd;fill:#FFFFFF;" d="M146.32,119.106c0,2.483,2.828,4.601,2.828,4.601
						l0.324-0.929c-0.865-0.712-2.246-2.268-2.246-3.671c0-1.403,1.404-2.806,1.404-2.806c0.625,0.496,1.467,1.77,1.467,2.764
						c0,0.992-0.518,1.619-0.518,1.619c-1.166-0.412-1.729-1.6-1.729-1.6c0,1.793,1.814,3.067,1.814,3.067
						c1.102-0.864,1.273-3.024,1.273-3.024c0.001-1.77-0.969-2.928-1.646-3.52c0.18-0.129,0.355-0.252,0.527-0.37
						c0.538,0.482,1.174,1.175,1.572,2.048c0,0-0.031-1.588-0.629-2.675c3.771-2.405,5.073-2.033,5.073-2.033l-0.693-0.577
						c-2.405,0-5.843,2.61-6.565,3.184C148.184,115.463,146.32,116.888,146.32,119.106z"/>
					<path style="fill-rule:evenodd;clip-rule:evenodd;fill:#FFFFFF;" d="M147.584,112.671c-0.074,0.157-0.117,0.333-0.117,0.518
						c0,0.67,0.541,1.209,1.209,1.209c0.669,0,1.209-0.54,1.209-1.209c0-0.187-0.043-0.364-0.118-0.523
						c0.048-0.024,0.095-0.055,0.132-0.09c0.18,0.197,0.355,0.435,0.481,0.712c0,0-0.017-0.857-0.354-1.379
						c-0.023,0.017-0.041,0.031-0.064,0.046c-0.088-0.128-0.235-0.213-0.403-0.21h-1.755c-0.268,0.001-0.481,0.238-0.479,0.507
						C147.326,112.434,147.433,112.592,147.584,112.671z"/>
					<path style="fill:#FFFFFF;" d="M142.16,112.002l-0.693,0.577c0,0,1.305-0.372,5.072,2.033
						c-0.597,1.087-0.628,2.675-0.628,2.675c0.399-0.873,1.034-1.567,1.571-2.048c0,0,0.421-0.354,0.649-0.505
						C146.852,113.793,144.153,112.002,142.16,112.002z"/>
				</g>
				<g>
					<path style="fill-rule:evenodd;clip-rule:evenodd;fill:#FFFFFF;" d="M153.955,115.202c-2.15,1.241-2.57,4.75-2.57,4.75
						l0.967-0.184c0.184-1.105,0.842-3.079,2.058-3.78c1.217-0.702,3.131-0.187,3.131-0.187c-0.117,0.789-0.797,2.156-1.66,2.653
						c-0.859,0.496-1.66,0.36-1.66,0.36c-0.228-1.215,0.521-2.295,0.521-2.295c-1.554,0.896-1.749,3.104-1.749,3.104
						c1.298,0.522,3.255-0.408,3.255-0.408c1.533-0.885,2.051-2.303,2.227-3.186c0.201,0.091,0.395,0.182,0.582,0.272
						c-0.148,0.707-0.43,1.604-0.988,2.386c0,0,1.361-0.822,2.004-1.882c3.967,2.062,4.295,3.379,4.295,3.379l0.154-0.89
						c-1.203-2.083-5.182-3.757-6.039-4.097C158.044,114.995,155.878,114.093,153.955,115.202z"/>
					<path style="fill-rule:evenodd;clip-rule:evenodd;fill:#FFFFFF;" d="M160.163,113.081c-0.174,0.013-0.35,0.063-0.508,0.157
						c-0.58,0.334-0.777,1.073-0.443,1.651c0.334,0.58,1.07,0.779,1.652,0.444c0.162-0.095,0.293-0.22,0.395-0.366
						c0.045,0.031,0.094,0.055,0.145,0.069c-0.082,0.254-0.201,0.525-0.377,0.774c0,0,0.734-0.443,1.016-0.998
						c-0.023-0.009-0.047-0.021-0.07-0.03c0.066-0.143,0.066-0.312-0.02-0.456l-0.877-1.521c-0.137-0.23-0.449-0.297-0.678-0.161
						C160.239,112.739,160.155,112.908,160.163,113.081z"/>
					<path style="fill:#FFFFFF;" d="M158.03,108.047l-0.848-0.311c0,0,0.977,0.941,0.777,5.409c-1.24,0.025-2.631,0.792-2.631,0.792
						c0.955-0.092,1.873,0.112,2.561,0.337c0,0,0.514,0.186,0.76,0.31C158.825,113.007,159.028,109.773,158.03,108.047z"/>
				</g>
				<g>
					<path style="fill-rule:evenodd;clip-rule:evenodd;fill:#FFFFFF;" d="M161.151,119.858c-2.15-1.241-5.398,0.151-5.398,0.151
						l0.643,0.746c1.049-0.394,3.086-0.812,4.303-0.111c1.217,0.701,1.73,2.618,1.73,2.618c-0.744,0.293-2.268,0.387-3.129-0.11
						c-0.859-0.496-1.143-1.259-1.143-1.259c0.938-0.804,2.248-0.696,2.248-0.696c-1.555-0.896-3.564,0.039-3.564,0.039
						c0.197,1.386,1.984,2.614,1.984,2.614c1.533,0.886,3.02,0.624,3.871,0.334c0.021,0.219,0.041,0.434,0.057,0.641
						c-0.688,0.226-1.605,0.429-2.561,0.338c0,0,1.391,0.768,2.631,0.792c0.199,4.466-0.775,5.41-0.775,5.41l0.848-0.312
						c1.203-2.083,0.66-6.367,0.523-7.279C163.376,123.294,163.073,120.966,161.151,119.858z"/>
					<path style="fill-rule:evenodd;clip-rule:evenodd;fill:#FFFFFF;" d="M166.095,124.171c-0.1-0.144-0.229-0.271-0.391-0.362
						c-0.58-0.334-1.318-0.137-1.65,0.442c-0.336,0.579-0.139,1.318,0.441,1.653c0.162,0.094,0.338,0.144,0.514,0.159
						c-0.004,0.054,0,0.108,0.012,0.16c-0.26,0.057-0.555,0.09-0.857,0.061c0,0,0.75,0.414,1.371,0.381
						c-0.002-0.026-0.006-0.052-0.006-0.077c0.154-0.013,0.301-0.099,0.383-0.245l0.877-1.521c0.133-0.233,0.033-0.537-0.199-0.668
						C166.429,124.065,166.239,124.078,166.095,124.171z"/>
					<path style="fill:#FFFFFF;" d="M169.384,119.806l-0.152-0.89c0,0-0.33,1.316-4.297,3.379c-0.643-1.062-2.004-1.881-2.004-1.881
						c0.559,0.781,0.842,1.68,0.99,2.386c0,0,0.096,0.54,0.113,0.814C165.487,122.975,168.39,121.533,169.384,119.806z"/>
				</g>
				<g>
					<path style="fill-rule:evenodd;clip-rule:evenodd;fill:#FFFFFF;" d="M160.731,128.403c-0.008-2.483-2.842-4.592-2.842-4.592
						l-0.322,0.93c0.867,0.708,2.252,2.261,2.256,3.664c0.004,1.404-1.395,2.809-1.395,2.809c-0.627-0.494-1.473-1.764-1.475-2.759
						c-0.004-0.993,0.512-1.622,0.512-1.622c1.168,0.409,1.732,1.596,1.732,1.596c-0.004-1.794-1.822-3.061-1.822-3.061
						c-1.1,0.866-1.266,3.026-1.266,3.026c0.006,1.77,0.979,2.926,1.656,3.515c-0.178,0.13-0.354,0.253-0.525,0.371
						c-0.539-0.48-1.176-1.172-1.578-2.044c0,0,0.035,1.588,0.635,2.674c-3.761,2.416-5.067,2.046-5.067,2.046l0.695,0.576
						c2.405-0.007,5.839-2.629,6.558-3.205C158.878,132.052,160.737,130.622,160.731,128.403z"/>
					<path style="fill-rule:evenodd;clip-rule:evenodd;fill:#FFFFFF;" d="M159.483,134.843c0.076-0.157,0.119-0.333,0.119-0.519
						c-0.004-0.67-0.547-1.208-1.215-1.206c-0.668,0.001-1.209,0.543-1.205,1.214c0,0.187,0.043,0.363,0.121,0.523
						c-0.051,0.023-0.094,0.054-0.133,0.09c-0.18-0.197-0.355-0.434-0.484-0.71c0,0,0.02,0.856,0.361,1.377
						c0.02-0.017,0.041-0.031,0.062-0.045c0.09,0.128,0.234,0.212,0.402,0.21l1.758-0.006c0.266-0.002,0.481-0.241,0.477-0.508
						C159.743,135.079,159.638,134.922,159.483,134.843z"/>
					<path style="fill:#FFFFFF;" d="M164.911,135.497l0.691-0.581c0,0-1.305,0.377-5.078-2.018c0.594-1.089,0.619-2.678,0.619-2.678
						c-0.395,0.876-1.029,1.571-1.564,2.055c0,0-0.42,0.353-0.648,0.506C160.214,133.718,162.919,135.503,164.911,135.497z"/>
				</g>
				<g>
					<path style="fill-rule:evenodd;clip-rule:evenodd;fill:#FFFFFF;" d="M153.078,132.329c2.151-1.24,2.573-4.748,2.573-4.748
						l-0.967,0.184c-0.184,1.104-0.845,3.077-2.06,3.779c-1.217,0.701-3.131,0.186-3.131,0.186c0.117-0.79,0.799-2.155,1.66-2.652
						c0.859-0.495,1.662-0.359,1.662-0.359c0.225,1.215-0.523,2.294-0.523,2.294c1.555-0.895,1.752-3.103,1.752-3.103
						c-1.299-0.523-3.256,0.406-3.256,0.406c-1.535,0.885-2.053,2.303-2.228,3.185c-0.201-0.09-0.395-0.181-0.583-0.271
						c0.149-0.707,0.432-1.604,0.989-2.386c0,0-1.361,0.82-2.005,1.882c-3.965-2.064-4.294-3.381-4.294-3.381l-0.154,0.889
						c1.202,2.083,5.18,3.759,6.038,4.098C148.991,132.533,151.156,133.437,153.078,132.329z"/>
					<path style="fill-rule:evenodd;clip-rule:evenodd;fill:#FFFFFF;" d="M146.871,134.446c0.172-0.013,0.348-0.063,0.508-0.156
						c0.58-0.334,0.777-1.074,0.443-1.652c-0.334-0.579-1.071-0.778-1.652-0.444c-0.162,0.094-0.293,0.22-0.395,0.365
						c-0.044-0.03-0.093-0.054-0.144-0.069c0.081-0.254,0.199-0.524,0.376-0.773c0,0-0.734,0.441-1.017,0.996
						c0.025,0.01,0.048,0.02,0.071,0.033c-0.066,0.14-0.066,0.31,0.019,0.453l0.876,1.522c0.136,0.231,0.449,0.297,0.679,0.162
						C146.793,134.789,146.877,134.62,146.871,134.446z"/>
					<path style="fill:#FFFFFF;" d="M149,139.48l0.847,0.312c0,0-0.975-0.943-0.773-5.409c1.24-0.025,2.631-0.792,2.631-0.792
						c-0.955,0.091-1.875-0.113-2.561-0.338c0,0-0.514-0.188-0.76-0.311C148.208,134.521,148.005,137.755,149,139.48z"/>
				</g>
				<g>
					<path style="fill-rule:evenodd;clip-rule:evenodd;fill:#FFFFFF;" d="M145.887,127.674c2.15,1.24,5.398-0.152,5.398-0.152
						l-0.643-0.746c-1.049,0.394-3.087,0.812-4.303,0.112c-1.216-0.702-1.729-2.617-1.729-2.617c0.741-0.295,2.266-0.389,3.127,0.11
						c0.859,0.495,1.144,1.258,1.144,1.258c-0.939,0.803-2.248,0.696-2.248,0.696c1.553,0.896,3.562-0.04,3.562-0.04
						c-0.197-1.386-1.983-2.614-1.983-2.614c-1.535-0.884-3.022-0.623-3.872-0.332c-0.023-0.22-0.042-0.434-0.058-0.642
						c0.686-0.226,1.604-0.429,2.561-0.339c0,0-1.392-0.767-2.633-0.792c-0.199-4.466,0.775-5.41,0.775-5.41l-0.848,0.312
						c-1.2,2.083-0.657,6.367-0.52,7.279C143.661,124.239,143.965,126.565,145.887,127.674z"/>
					<path style="fill-rule:evenodd;clip-rule:evenodd;fill:#FFFFFF;" d="M140.944,123.363c0.098,0.144,0.23,0.269,0.39,0.361
						c0.581,0.336,1.319,0.135,1.652-0.442c0.334-0.58,0.138-1.319-0.443-1.654c-0.163-0.094-0.338-0.144-0.513-0.158
						c0.003-0.054,0-0.108-0.013-0.16c0.26-0.057,0.553-0.09,0.857-0.062c0,0-0.749-0.414-1.372-0.381
						c0.003,0.027,0.006,0.052,0.007,0.078c-0.156,0.013-0.302,0.098-0.383,0.244l-0.878,1.521c-0.132,0.232-0.033,0.537,0.2,0.669
						C140.609,123.467,140.799,123.455,140.944,123.363z"/>
					<path style="fill:#FFFFFF;" d="M137.653,127.728l0.155,0.889c0,0,0.328-1.316,4.294-3.379c0.643,1.061,2.003,1.88,2.003,1.88
						c-0.557-0.781-0.841-1.679-0.988-2.385c0,0-0.097-0.54-0.113-0.813C141.55,124.558,138.649,126.002,137.653,127.728z"/>
				</g>
			</g>
		</g>
		<g>
			<g>
				<path style="fill:#FFFFFF;" d="M138.921,151.975h0.913c0.607,0,1.043,0.185,1.043,0.733v0.116c0,0.272-0.138,0.515-0.338,0.612
					c0.226,0.1,0.38,0.352,0.38,0.633v0.112c0,0.527-0.44,0.754-1.085,0.754h-0.515c0,0-0.398-0.004-0.398-0.239V151.975z
					 M139.377,152.328v0.933h0.489c0.411,0,0.553-0.172,0.553-0.498c0-0.335-0.189-0.435-0.586-0.435H139.377z M139.377,153.613
					v0.971h0.456c0.44,0,0.628-0.129,0.628-0.465c0-0.322-0.18-0.506-0.595-0.506H139.377z"/>
				<path style="fill:#FFFFFF;" d="M144.341,154.078c0,0.611-0.565,0.912-1.21,0.912c-0.641,0-1.206-0.301-1.206-0.912v-2.141
					c0,0,0.456,0,0.456,0.238v1.838c0,0.398,0.31,0.605,0.75,0.605c0.444,0,0.753-0.206,0.753-0.605v-2.076c0,0,0.456,0,0.456,0.238
					V154.078z M142.578,151.238h0.31c0.067,0,0.114,0.059,0.114,0.105v0.318h-0.302c-0.071,0-0.121-0.05-0.121-0.104V151.238z
					 M143.269,151.238h0.31c0.067,0,0.113,0.059,0.113,0.105v0.318h-0.302c-0.071,0-0.121-0.05-0.121-0.104V151.238z"/>
				<path style="fill:#FFFFFF;" d="M146.125,153.683c-0.493-0.473-0.707-1.252-1-1.708c0,0,0.1-0.026,0.188-0.026
					c0.126,0,0.318,0.039,0.427,0.256c0.34,0.691,0.453,0.951,0.615,1.123c0.201-0.235,0.382-0.645,0.558-1.014
					c0.143-0.297,0.327-0.365,0.485-0.365c0.08,0,0.188,0.026,0.188,0.026c-0.28,0.448-0.523,1.243-1.005,1.708v1.295
					c0,0-0.457,0-0.457-0.243V153.683z"/>
				<path style="fill:#FFFFFF;" d="M150.788,154.078c0,0.611-0.565,0.912-1.211,0.912c-0.641,0-1.206-0.301-1.206-0.912v-2.141
					c0,0,0.457,0,0.457,0.238v1.838c0,0.398,0.31,0.605,0.749,0.605c0.444,0,0.755-0.206,0.755-0.605v-2.076
					c0,0,0.456,0,0.456,0.238V154.078z M149.025,151.238h0.309c0.067,0,0.113,0.059,0.113,0.105v0.318h-0.301
					c-0.072,0-0.121-0.05-0.121-0.104V151.238z M149.715,151.238h0.311c0.066,0,0.113,0.059,0.113,0.105v0.318h-0.302
					c-0.071,0-0.122-0.05-0.122-0.104V151.238z"/>
				<path style="fill:#FFFFFF;" d="M152.334,154.978c0,0-0.457,0-0.457-0.238v-2.808c0,0,0.457,0,0.457,0.239v1.018
					c0.502-0.066,0.775-0.423,1.101-1.009c0.117-0.214,0.301-0.256,0.436-0.256c0.088,0,0.188,0.024,0.188,0.024
					c-0.283,0.441-0.564,1.215-1.154,1.395c0.67,0.142,1.008,1.202,1.282,1.596c0,0-0.11,0.03-0.19,0.03
					c-0.129,0-0.355-0.043-0.475-0.256c-0.301-0.554-0.535-1.131-1.187-1.215V154.978z"/>
				<path style="fill:#FFFFFF;" d="M155.739,155.3c0.029-0.108,0.068-0.218,0.105-0.322c-0.465-0.025-0.918-0.146-0.918-0.504
					c0-0.1,0.037-0.226,0.127-0.368c0,0.419,0.521,0.499,0.959,0.499c0.447,0,0.678-0.197,0.678-0.503
					c0-0.821-1.838-0.146-1.838-1.315c0-0.664,0.524-0.87,1.168-0.87c0.561,0,1.055,0.104,1.055,0.503
					c0,0.107-0.037,0.238-0.121,0.393v-0.025c0-0.4-0.482-0.489-0.934-0.489c-0.385,0-0.684,0.126-0.684,0.436
					c0,0.733,1.838,0.046,1.838,1.341c0,0.576-0.447,0.879-1.07,0.904c-0.014,0.05-0.018,0.1-0.025,0.155h0.025
					c0.246,0,0.436,0.154,0.436,0.401c0,0.252-0.227,0.394-0.465,0.394c-0.256,0-0.355-0.179-0.355-0.284
					c0.041,0.021,0.137,0.049,0.242,0.049c0.117,0,0.238-0.045,0.238-0.176c0-0.133-0.139-0.171-0.256-0.171
					c-0.104,0-0.229,0.046-0.229,0.046L155.739,155.3z"/>
				<path style="fill:#FFFFFF;" d="M158.638,153.516v1.067h1.496c0,0.021-0.008,0.353-0.264,0.353h-1.287c0,0-0.4,0-0.4-0.239
					v-2.722h1.951c0,0,0,0.353-0.264,0.353h-1.232v0.836h0.914c0.322,0,0.414-0.066,0.414-0.066c0,0.172-0.045,0.419-0.348,0.419
					H158.638z"/>
				<path style="fill:#FFFFFF;" d="M163.05,153.599h-1.475v1.379c0,0-0.457,0-0.457-0.238v-2.808c0,0,0.457,0,0.457,0.239v1.072
					h1.475v-1.312c0,0,0.457,0,0.457,0.239v2.807c0,0-0.457,0-0.457-0.238V153.599z"/>
				<path style="fill:#FFFFFF;" d="M164.638,151.932c0,0,0.455,0,0.455,0.239v2.807c0,0-0.455,0-0.455-0.238V151.932z
					 M164.645,151.238h0.315c0.051,0,0.121,0.055,0.121,0.105v0.318h-0.309c-0.062,0-0.127-0.046-0.127-0.1V151.238z"/>
				<path style="fill:#FFFFFF;" d="M167.376,153.583c0.545,0.264,0.756,1.014,0.988,1.36c0,0-0.107,0.026-0.188,0.026
					c-0.135,0-0.336-0.038-0.453-0.256c-0.275-0.516-0.447-0.98-1.043-1.098v1.361c0,0-0.457-0.004-0.457-0.238v-2.765h0.914
					c0.607,0,1.043,0.18,1.043,0.733v0.125C168.181,153.294,167.845,153.583,167.376,153.583z M166.681,152.328v0.938h0.49
					c0.412,0,0.553-0.168,0.553-0.495c0-0.335-0.188-0.442-0.586-0.442H166.681z"/>
				<path style="fill:#FFFFFF;" d="M142.227,156.706h0.783c0.52,0,0.893,0.158,0.893,0.629v0.1c0,0.234-0.119,0.441-0.29,0.525
					c0.193,0.086,0.326,0.301,0.326,0.541v0.097c0,0.452-0.377,0.646-0.929,0.646h-0.442c0,0-0.34-0.002-0.34-0.204V156.706z
					 M142.618,157.008v0.8h0.42c0.351,0,0.474-0.146,0.474-0.426c0-0.287-0.161-0.374-0.502-0.374H142.618z M142.618,158.11v0.833
					h0.392c0.376,0,0.538-0.111,0.538-0.398c0-0.276-0.154-0.435-0.509-0.435H142.618z"/>
				<path style="fill:#FFFFFF;" d="M145.228,158.028v0.915h1.281c0,0.018-0.008,0.301-0.227,0.301h-1.102c0,0-0.344,0-0.344-0.204
					v-2.333h1.672c0,0,0,0.302-0.227,0.302h-1.055v0.718h0.783c0.275,0,0.355-0.057,0.355-0.057c0,0.146-0.04,0.358-0.298,0.358
					H145.228z"/>
				<path style="fill:#FFFFFF;" d="M147.699,159.244c0,0-0.346,0-0.346-0.204v-2.368c0,0,0.393,0,0.393,0.205v2.066h0.844
					c0.275,0,0.355-0.054,0.355-0.054c0,0.147-0.043,0.354-0.225,0.354H147.699z"/>
				<path style="fill:#FFFFFF;" d="M150.058,158.028v0.915h1.28c0,0.018-0.006,0.301-0.225,0.301h-1.102c0,0-0.345,0-0.345-0.204
					v-2.333h1.671c0,0,0,0.302-0.225,0.302h-1.056v0.718h0.782c0.277,0,0.355-0.057,0.355-0.057c0,0.146-0.039,0.358-0.297,0.358
					H150.058z"/>
				<path style="fill:#FFFFFF;" d="M152.521,159.244c-0.033,0-0.338-0.006-0.338-0.204v-2.333h0.994
					c0.553,0,1.073,0.184,1.073,0.855v0.829c0,0.672-0.521,0.854-1.073,0.854H152.521z M152.574,157.008v1.935h0.604
					c0.381,0,0.682-0.144,0.682-0.589v-0.761c0-0.445-0.301-0.585-0.682-0.585H152.574z"/>
				<path style="fill:#FFFFFF;" d="M155.185,156.671c0,0,0.393,0,0.393,0.205v2.402c0,0-0.393,0-0.393-0.203V156.671z
					 M155.192,156.076h0.27c0.043,0,0.104,0.047,0.104,0.089v0.272H155.3c-0.053,0-0.107-0.039-0.107-0.085V156.076z"/>
				<path style="fill:#FFFFFF;" d="M157.142,158.171c-0.424-0.406-0.605-1.074-0.857-1.465c0,0,0.086-0.021,0.162-0.021
					c0.107,0,0.271,0.032,0.365,0.219c0.291,0.594,0.389,0.815,0.527,0.963c0.174-0.201,0.328-0.554,0.479-0.869
					c0.121-0.255,0.279-0.312,0.416-0.312c0.068,0,0.162,0.021,0.162,0.021c-0.242,0.385-0.449,1.066-0.863,1.465v1.107
					c0,0-0.391,0-0.391-0.207V158.171z"/>
				<path style="fill:#FFFFFF;" d="M159.493,158.028v0.915h1.283c0,0.018-0.008,0.301-0.227,0.301h-1.104c0,0-0.344,0-0.344-0.204
					v-2.333h1.674c0,0,0,0.302-0.227,0.302h-1.057v0.718h0.783c0.277,0,0.355-0.057,0.355-0.057c0,0.146-0.039,0.358-0.297,0.358
					H159.493z"/>
				<path style="fill:#FFFFFF;" d="M162.515,156.658c0.48,0,0.902,0.089,0.902,0.43c0,0.094-0.031,0.205-0.104,0.338
					c0-0.008,0-0.016,0-0.021c0-0.346-0.412-0.422-0.799-0.422c-0.33,0-0.586,0.109-0.586,0.375c0,0.628,1.576,0.039,1.576,1.147
					c0,0.521-0.424,0.779-0.998,0.779c-0.441,0-0.93-0.093-0.93-0.434c0-0.087,0.033-0.194,0.107-0.315
					c0,0.357,0.447,0.426,0.822,0.426c0.383,0,0.58-0.168,0.58-0.43c0-0.703-1.574-0.126-1.574-1.127
					C161.513,156.833,161.96,156.658,162.515,156.658z"/>
				<path style="fill:#FFFFFF;" d="M164.366,156.671c0,0,0.393,0,0.393,0.205v2.402c0,0-0.393,0-0.393-0.203V156.671z
					 M164.374,156.076h0.27c0.043,0,0.104,0.047,0.104,0.089v0.272h-0.266c-0.055,0-0.107-0.039-0.107-0.085V156.076z"/>
			</g>
		</g>
		<g>
			<g>
				<path style="fill:#FFFFFF;" d="M151.715,138.903v2.227c0,0-0.476,0-0.476-0.231v-1.995h-0.438c-0.295,0-0.337-0.225-0.337-0.409
					c0,0,0.124,0.057,0.394,0.057h1.248c0.272,0,0.395-0.057,0.395-0.057c0,0.185-0.041,0.409-0.338,0.409H151.715z"/>
				<path style="fill:#FFFFFF;" d="M152.408,140.65h0.293c0.074,0,0.139,0.057,0.139,0.109v0.334h-0.289
					c-0.078,0-0.143-0.05-0.143-0.11V140.65z"/>
				<path style="fill:#FFFFFF;" d="M153.82,139.433v0.775c0,0.427,0.26,0.562,0.612,0.562c0.346,0,0.762-0.072,0.873-0.428
					c0.326,0.572-0.281,0.793-0.873,0.793c-0.569,0-1.087-0.229-1.087-0.875v-0.879c0-0.648,0.518-0.875,1.087-0.875
					c0.592,0,1.23,0.199,0.873,0.793c-0.09-0.326-0.527-0.422-0.873-0.422C154.08,138.878,153.82,139.009,153.82,139.433z"/>
				<path style="fill:#FFFFFF;" d="M155.878,140.65h0.291c0.076,0,0.141,0.057,0.141,0.109v0.334h-0.289
					c-0.078,0-0.143-0.05-0.143-0.11V140.65z"/>
			</g>
		</g>
		<g>
			<path style="fill:#FFFFFF;" d="M144.181,145.43l0.86,2.66c0.243,0.759,0.425,1.366,0.627,1.669c0,0-0.334,0.111-0.566,0.111
				c-0.951,0-1.184-0.818-1.437-1.577l-0.172-0.537h-2.549l-0.171,0.537c-0.253,0.759-0.485,1.577-1.437,1.577
				c-0.233,0-0.567-0.111-0.567-0.111c0.202-0.303,0.385-0.91,0.627-1.669l0.86-2.66c0.678-2.083,1.811-2.995,1.963-3.095
				C142.371,142.435,143.504,143.347,144.181,145.43z M141.551,145.693l-0.314,1.053h1.962l-0.314-1.053
				c-0.252-0.85-0.667-1.709-0.667-1.709C142.057,144.236,141.804,144.843,141.551,145.693z"/>
			<path style="fill:#FFFFFF;" d="M147.439,146.787c-1.225-1.225-1.559-2.783-2.458-4.188c0,0,0.364-0.092,0.617-0.092
				c0.343,0,0.869,0.102,1.142,0.656l0.467,0.941c0.312,0.637,0.586,1.234,0.909,1.648c0.304-0.404,0.576-1.012,0.88-1.607
				l0.496-0.982c0.283-0.555,0.779-0.656,1.143-0.656c0.213,0,0.617,0.102,0.617,0.102c-0.818,1.364-1.284,2.982-2.457,4.178v3.115
				c0,0-1.355,0-1.355-0.658V146.787z"/>
			<path style="fill:#FFFFFF;" d="M153.062,149.8c-0.102,0-1.082-0.03-1.082-0.658v-6.574h2.935c1.619,0,3.146,0.535,3.146,2.488
				v2.256c0,1.951-1.527,2.488-3.146,2.488H153.062z M153.336,143.569v5.229h1.579c1,0,1.791-0.385,1.791-1.588v-2.063
				c0-1.204-0.791-1.578-1.791-1.578H153.336z"/>
			<path style="fill:#FFFFFF;" d="M159.376,142.466c0,0,1.355,0,1.355,0.658v6.777c0,0-1.355,0-1.355-0.658V142.466z"/>
			<path style="fill:#FFFFFF;" d="M166.942,147.788c0,0-0.121-0.577-0.121-1.073v-4.146c0,0,1.355,0,1.355,0.656v6.678
				c-1.527,0-1.842-0.73-1.842-0.73l-2.943-4.673c0,0,0.111,0.576,0.111,1.072v4.33c0,0-1.355,0-1.355-0.658v-6.676
				c0.811,0,1.477,0,1.83,0.576L166.942,147.788z"/>
		</g>
	</g>
	<g>
		<path style="fill-rule:evenodd;clip-rule:evenodd;fill:#089BD7;" d="M115.297,228.701c-4.093,0-7.408-3.316-7.408-7.408v-34.41
			c0-4.091,3.315-7.409,7.408-7.409h75.467c4.092,0,7.41,3.317,7.41,7.409v34.41c0,4.092-3.318,7.408-7.41,7.408H115.297z"/>
		<g>
			<g>
				<path style="fill-rule:evenodd;clip-rule:evenodd;fill:#FFFFFF;" d="M131.558,204.719l0.005-1.889h0.399v2.521h-0.009
					c-0.231-0.094-0.391-0.32-0.391-0.59v-0.043H131.558z"/>
				<path style="fill-rule:evenodd;clip-rule:evenodd;fill:#FFFFFF;" d="M132.74,203.486c0,0.152,0.126,0.275,0.275,0.275
					c0.151-0.002,0.274-0.123,0.274-0.275c0-0.152-0.123-0.273-0.274-0.273C132.866,203.213,132.74,203.334,132.74,203.486
					L132.74,203.486z M133.413,204.562c0-0.217-0.177-0.398-0.397-0.398c-0.218,0-0.398,0.182-0.398,0.398
					c0,0.221,0.181,0.4,0.398,0.4C133.236,204.963,133.412,204.783,133.413,204.562L133.413,204.562z M133.815,204.562
					c0,0.217-0.084,0.412-0.235,0.564c-0.151,0.152-0.349,0.236-0.564,0.236c-0.213,0-0.414-0.084-0.565-0.236
					c-0.152-0.152-0.236-0.348-0.236-0.564c0-0.213,0.084-0.416,0.236-0.566c0.021-0.021,0.041-0.039,0.062-0.057
					c-0.11-0.115-0.173-0.279-0.173-0.453c0-0.373,0.303-0.672,0.676-0.672c0.376,0,0.674,0.299,0.674,0.672
					c0,0.174-0.063,0.338-0.171,0.453c0.019,0.018,0.04,0.035,0.062,0.057C133.732,204.146,133.814,204.35,133.815,204.562z"/>
				<path style="fill-rule:evenodd;clip-rule:evenodd;fill:#FFFFFF;" d="M134.594,203.486c0,0.152,0.128,0.275,0.277,0.275
					c0.151-0.002,0.273-0.123,0.273-0.275c0.001-0.152-0.122-0.273-0.273-0.273C134.722,203.213,134.594,203.334,134.594,203.486
					L134.594,203.486z M135.266,204.562c0-0.217-0.175-0.398-0.395-0.398c-0.219,0-0.399,0.182-0.399,0.398
					c0,0.221,0.181,0.4,0.399,0.4C135.091,204.963,135.266,204.783,135.266,204.562L135.266,204.562z M135.671,204.562
					c0,0.217-0.084,0.412-0.235,0.564c-0.151,0.152-0.35,0.236-0.564,0.236s-0.415-0.084-0.567-0.236
					c-0.151-0.152-0.236-0.348-0.236-0.564c0-0.213,0.085-0.416,0.236-0.566c0.02-0.021,0.042-0.039,0.063-0.057
					c-0.109-0.115-0.174-0.279-0.174-0.453c0-0.373,0.304-0.672,0.678-0.672c0.375,0,0.673,0.299,0.673,0.672
					c0,0.174-0.063,0.338-0.172,0.453c0.021,0.018,0.042,0.035,0.063,0.057C135.588,204.146,135.671,204.35,135.671,204.562z"/>
				<path style="fill-rule:evenodd;clip-rule:evenodd;fill:#FFFFFF;" d="M136.328,203.461l-0.004,1.891h-0.4v-2.521h0.009
					c0.23,0.092,0.392,0.32,0.392,0.59v0.041H136.328z"/>
			</g>
			<g>
				<g>
					<path style="fill-rule:evenodd;clip-rule:evenodd;fill:#FFFFFF;" d="M125.19,198.428c0,3.018,3.439,5.592,3.439,5.592
						l0.395-1.131c-1.053-0.863-2.731-2.754-2.731-4.461c0-1.707,1.707-3.412,1.707-3.412c0.76,0.604,1.784,2.152,1.784,3.361
						c0.001,1.205-0.63,1.967-0.63,1.967c-1.417-0.5-2.101-1.943-2.101-1.943c0,2.18,2.206,3.727,2.206,3.727
						c1.34-1.049,1.549-3.674,1.549-3.674c0.001-2.152-1.179-3.561-2.002-4.279c0.218-0.158,0.432-0.307,0.641-0.451
						c0.654,0.586,1.427,1.43,1.911,2.492c0,0-0.037-1.932-0.764-3.254c4.581-2.924,6.167-2.469,6.167-2.469l-0.845-0.703
						c-2.922,0-7.102,3.174-7.981,3.871C127.456,193.996,125.19,195.729,125.19,198.428z"/>
					<path style="fill-rule:evenodd;clip-rule:evenodd;fill:#FFFFFF;" d="M126.728,190.602c-0.091,0.191-0.143,0.406-0.143,0.631
						c0.001,0.814,0.658,1.471,1.47,1.471c0.814,0,1.471-0.656,1.471-1.471c0-0.229-0.052-0.443-0.144-0.637
						c0.059-0.029,0.113-0.066,0.16-0.109c0.218,0.238,0.432,0.527,0.586,0.863c0,0-0.02-1.041-0.432-1.674
						c-0.027,0.02-0.052,0.037-0.078,0.055c-0.107-0.156-0.286-0.26-0.49-0.256h-2.135c-0.325,0.002-0.585,0.291-0.581,0.617
						C126.415,190.314,126.543,190.506,126.728,190.602z"/>
					<path style="fill:#FFFFFF;" d="M120.136,189.789l-0.843,0.703c0,0,1.586-0.455,6.165,2.469
						c-0.726,1.322-0.764,3.254-0.764,3.254c0.483-1.062,1.257-1.906,1.911-2.492c0,0,0.511-0.43,0.789-0.611
						C125.839,191.967,122.558,189.789,120.136,189.789z"/>
				</g>
				<g>
					<path style="fill-rule:evenodd;clip-rule:evenodd;fill:#FFFFFF;" d="M134.473,193.68c-2.612,1.508-3.123,5.773-3.123,5.773
						l1.175-0.223c0.224-1.344,1.023-3.742,2.5-4.596c1.479-0.854,3.807-0.227,3.807-0.227c-0.143,0.959-0.971,2.619-2.02,3.225
						c-1.043,0.604-2.018,0.438-2.018,0.438c-0.275-1.479,0.635-2.791,0.635-2.791c-1.889,1.09-2.126,3.773-2.126,3.773
						c1.579,0.637,3.956-0.494,3.956-0.494c1.865-1.076,2.495-2.801,2.707-3.873c0.246,0.109,0.483,0.221,0.709,0.33
						c-0.181,0.859-0.524,1.949-1.202,2.9c0,0,1.655-0.998,2.436-2.287c4.823,2.506,5.223,4.107,5.223,4.107l0.188-1.082
						c-1.462-2.531-6.301-4.566-7.345-4.98C139.443,193.428,136.81,192.33,134.473,193.68z"/>
					<path style="fill-rule:evenodd;clip-rule:evenodd;fill:#FFFFFF;" d="M142.019,191.102c-0.211,0.016-0.423,0.076-0.618,0.189
						c-0.705,0.408-0.944,1.305-0.539,2.008c0.406,0.705,1.305,0.947,2.01,0.541c0.196-0.115,0.357-0.268,0.479-0.445
						c0.056,0.037,0.114,0.066,0.177,0.084c-0.1,0.309-0.243,0.639-0.457,0.941c0,0,0.891-0.539,1.234-1.213
						c-0.03-0.012-0.058-0.025-0.086-0.039c0.082-0.172,0.08-0.377-0.024-0.553l-1.067-1.848c-0.164-0.281-0.544-0.363-0.825-0.197
						C142.112,190.686,142.011,190.891,142.019,191.102z"/>
					<path style="fill:#FFFFFF;" d="M139.428,184.982l-1.03-0.379c0,0,1.187,1.146,0.943,6.577
						c-1.509,0.031-3.199,0.963-3.199,0.963c1.161-0.111,2.279,0.137,3.113,0.412c0,0,0.626,0.227,0.926,0.377
						C140.393,191.012,140.64,187.08,139.428,184.982z"/>
				</g>
				<g>
					<path style="fill-rule:evenodd;clip-rule:evenodd;fill:#FFFFFF;" d="M143.222,199.34c-2.614-1.508-6.562,0.184-6.562,0.184
						l0.78,0.906c1.275-0.479,3.752-0.986,5.23-0.135c1.479,0.854,2.102,3.182,2.102,3.182c-0.901,0.357-2.754,0.473-3.801-0.133
						c-1.046-0.602-1.391-1.529-1.391-1.529c1.143-0.977,2.733-0.848,2.733-0.848c-1.888-1.09-4.331,0.047-4.331,0.047
						c0.239,1.686,2.409,3.18,2.409,3.18c1.864,1.074,3.673,0.758,4.707,0.404c0.028,0.268,0.051,0.527,0.069,0.779
						c-0.835,0.273-1.951,0.521-3.113,0.412c0,0,1.692,0.932,3.201,0.963c0.241,5.43-0.943,6.576-0.943,6.576l1.029-0.379
						c1.462-2.531,0.802-7.74,0.637-8.848C145.926,203.516,145.558,200.688,143.222,199.34z"/>
					<path style="fill-rule:evenodd;clip-rule:evenodd;fill:#FFFFFF;" d="M149.23,204.584c-0.12-0.176-0.278-0.33-0.475-0.441
						c-0.705-0.406-1.603-0.166-2.007,0.539c-0.407,0.705-0.169,1.602,0.539,2.01c0.195,0.113,0.408,0.176,0.622,0.193
						c-0.005,0.064,0,0.129,0.016,0.193c-0.316,0.068-0.675,0.109-1.043,0.074c0,0,0.913,0.502,1.668,0.463
						c-0.004-0.031-0.008-0.062-0.01-0.094c0.189-0.016,0.368-0.119,0.467-0.297l1.067-1.848c0.16-0.285,0.04-0.654-0.244-0.814
						C149.637,204.455,149.408,204.469,149.23,204.584z"/>
					<path style="fill:#FFFFFF;" d="M153.23,199.277l-0.187-1.082c0,0-0.399,1.6-5.222,4.107c-0.781-1.291-2.435-2.287-2.435-2.287
						c0.677,0.949,1.021,2.041,1.202,2.9c0,0,0.116,0.656,0.137,0.988C148.494,203.129,152.02,201.375,153.23,199.277z"/>
				</g>
				<g>
					<path style="fill-rule:evenodd;clip-rule:evenodd;fill:#FFFFFF;" d="M142.71,209.729c-0.009-3.018-3.455-5.582-3.455-5.582
						l-0.392,1.131c1.056,0.861,2.739,2.748,2.744,4.455c0.004,1.707-1.696,3.414-1.696,3.414c-0.763-0.6-1.791-2.145-1.794-3.355
						c-0.003-1.205,0.625-1.969,0.625-1.969c1.419,0.496,2.105,1.939,2.105,1.939c-0.005-2.182-2.217-3.723-2.217-3.723
						c-1.336,1.055-1.537,3.68-1.537,3.68c0.006,2.152,1.189,3.557,2.015,4.273c-0.218,0.158-0.432,0.309-0.641,0.451
						c-0.655-0.584-1.43-1.424-1.92-2.484c0,0,0.045,1.932,0.775,3.25c-4.573,2.938-6.16,2.488-6.16,2.488l0.846,0.701
						c2.922-0.01,7.094-3.197,7.97-3.896C140.457,214.166,142.718,212.426,142.71,209.729z"/>
					<path style="fill-rule:evenodd;clip-rule:evenodd;fill:#FFFFFF;" d="M141.194,217.557c0.092-0.191,0.143-0.404,0.143-0.629
						c-0.002-0.814-0.663-1.471-1.475-1.467c-0.812,0.002-1.469,0.66-1.467,1.475c0,0.227,0.054,0.441,0.148,0.637
						c-0.062,0.029-0.113,0.066-0.161,0.109c-0.219-0.238-0.433-0.527-0.589-0.863c0,0,0.023,1.041,0.438,1.674
						c0.025-0.02,0.051-0.037,0.076-0.055c0.108,0.156,0.287,0.258,0.49,0.254l2.136-0.006c0.325-0.004,0.585-0.291,0.58-0.617
						C141.51,217.844,141.381,217.654,141.194,217.557z"/>
					<path style="fill:#FFFFFF;" d="M147.792,218.352l0.842-0.705c0,0-1.585,0.459-6.175-2.451c0.723-1.324,0.754-3.256,0.754-3.256
						c-0.48,1.062-1.252,1.908-1.903,2.498c0,0-0.51,0.43-0.787,0.615C142.081,216.189,145.37,218.359,147.792,218.352z"/>
				</g>
				<g>
					<path style="fill-rule:evenodd;clip-rule:evenodd;fill:#FFFFFF;" d="M133.406,214.502c2.615-1.508,3.128-5.773,3.128-5.773
						l-1.176,0.223c-0.224,1.344-1.024,3.74-2.503,4.594c-1.478,0.854-3.806,0.225-3.806,0.225c0.143-0.959,0.972-2.619,2.021-3.223
						c1.045-0.602,2.019-0.438,2.019-0.438c0.274,1.479-0.635,2.789-0.635,2.789c1.887-1.088,2.127-3.771,2.127-3.771
						c-1.578-0.637-3.956,0.494-3.956,0.494c-1.866,1.076-2.497,2.799-2.709,3.871c-0.245-0.111-0.481-0.221-0.709-0.33
						c0.181-0.859,0.524-1.949,1.202-2.9c0,0-1.654,0.996-2.436,2.287c-4.82-2.508-5.219-4.111-5.219-4.111l-0.188,1.084
						c1.462,2.531,6.298,4.568,7.34,4.98C128.437,214.75,131.071,215.848,133.406,214.502z"/>
					<path style="fill-rule:evenodd;clip-rule:evenodd;fill:#FFFFFF;" d="M125.86,217.074c0.211-0.014,0.423-0.074,0.618-0.188
						c0.706-0.408,0.946-1.305,0.539-2.008c-0.405-0.705-1.303-0.947-2.009-0.541c-0.197,0.113-0.356,0.266-0.479,0.441
						c-0.055-0.035-0.114-0.062-0.177-0.082c0.101-0.309,0.243-0.637,0.458-0.939c0,0-0.892,0.537-1.234,1.211
						c0.029,0.012,0.058,0.025,0.086,0.039c-0.082,0.172-0.082,0.377,0.021,0.553l1.066,1.85c0.165,0.281,0.545,0.363,0.825,0.197
						C125.768,217.49,125.869,217.285,125.86,217.074z"/>
					<path style="fill:#FFFFFF;" d="M128.449,223.195l1.029,0.379c0,0-1.185-1.146-0.94-6.576c1.509-0.029,3.2-0.963,3.2-0.963
						c-1.161,0.111-2.279-0.139-3.112-0.412c0,0-0.626-0.227-0.925-0.377C127.486,217.166,127.239,221.098,128.449,223.195z"/>
				</g>
				<g>
					<path style="fill-rule:evenodd;clip-rule:evenodd;fill:#FFFFFF;" d="M124.665,208.842c2.615,1.508,6.562-0.184,6.562-0.184
						l-0.781-0.906c-1.275,0.479-3.753,0.988-5.23,0.137c-1.479-0.854-2.102-3.184-2.102-3.184c0.902-0.357,2.754-0.471,3.801,0.133
						c1.045,0.604,1.392,1.529,1.392,1.529c-1.143,0.979-2.733,0.848-2.733,0.848c1.888,1.09,4.332-0.047,4.332-0.047
						c-0.241-1.686-2.411-3.178-2.411-3.178c-1.866-1.078-3.672-0.758-4.706-0.404c-0.027-0.268-0.051-0.529-0.069-0.779
						c0.833-0.275,1.948-0.523,3.11-0.412c0,0-1.69-0.934-3.198-0.963c-0.243-5.432,0.941-6.578,0.941-6.578l-1.03,0.381
						c-1.459,2.531-0.798,7.74-0.633,8.85C121.961,204.666,122.33,207.496,124.665,208.842z"/>
					<path style="fill-rule:evenodd;clip-rule:evenodd;fill:#FFFFFF;" d="M118.657,203.602c0.119,0.174,0.278,0.326,0.474,0.439
						c0.705,0.406,1.604,0.164,2.008-0.539c0.406-0.703,0.168-1.604-0.538-2.01c-0.198-0.113-0.41-0.174-0.625-0.193
						c0.006-0.064,0-0.129-0.015-0.193c0.317-0.07,0.673-0.109,1.043-0.074c0,0-0.912-0.504-1.668-0.463
						c0.005,0.031,0.007,0.062,0.009,0.094c-0.189,0.018-0.366,0.119-0.467,0.297l-1.065,1.85c-0.161,0.283-0.04,0.654,0.243,0.812
						C118.25,203.729,118.48,203.715,118.657,203.602z"/>
					<path style="fill:#FFFFFF;" d="M114.657,208.908l0.188,1.08c0,0,0.399-1.6,5.222-4.107c0.781,1.289,2.435,2.287,2.435,2.287
						c-0.677-0.949-1.022-2.043-1.202-2.902c0,0-0.116-0.654-0.138-0.986C119.394,205.053,115.867,206.811,114.657,208.908z"/>
				</g>
			</g>
		</g>
		<g>
			<g>
				<path style="fill:#FFFFFF;" d="M155.365,208.289h1.062c0.705,0,1.212,0.215,1.212,0.852v0.137c0,0.314-0.161,0.598-0.395,0.711
					c0.263,0.115,0.442,0.408,0.442,0.732v0.133c0,0.613-0.511,0.875-1.26,0.875h-0.599c0,0-0.463-0.004-0.463-0.277V208.289z
					 M155.896,208.697v1.086h0.569c0.477,0,0.642-0.199,0.642-0.578c0-0.391-0.219-0.508-0.681-0.508H155.896z M155.896,210.191
					v1.129h0.53c0.511,0,0.73-0.15,0.73-0.541c0-0.373-0.211-0.588-0.691-0.588H155.896z"/>
				<path style="fill:#FFFFFF;" d="M161.66,210.732c0,0.709-0.657,1.059-1.406,1.059c-0.743,0-1.401-0.35-1.401-1.059v-2.488
					c0,0,0.53,0,0.53,0.279v2.135c0,0.463,0.36,0.701,0.871,0.701c0.517,0,0.876-0.238,0.876-0.701v-2.414c0,0,0.53,0,0.53,0.279
					V210.732z M159.611,207.434h0.36c0.078,0,0.131,0.068,0.131,0.121v0.369h-0.35c-0.083,0-0.142-0.059-0.142-0.121V207.434z
					 M160.415,207.434h0.359c0.077,0,0.132,0.068,0.132,0.121v0.369h-0.351c-0.083,0-0.141-0.059-0.141-0.121V207.434z"/>
				<path style="fill:#FFFFFF;" d="M163.73,210.275c-0.574-0.551-0.822-1.455-1.162-1.986c0,0,0.116-0.029,0.218-0.029
					c0.146,0,0.37,0.045,0.497,0.297c0.394,0.803,0.525,1.105,0.716,1.305c0.232-0.273,0.442-0.75,0.645-1.178
					c0.166-0.346,0.38-0.424,0.566-0.424c0.092,0,0.219,0.029,0.219,0.029c-0.326,0.52-0.607,1.445-1.168,1.986v1.502
					c0,0-0.53,0-0.53-0.281V210.275z"/>
				<path style="fill:#FFFFFF;" d="M169.144,210.732c0,0.709-0.657,1.059-1.406,1.059c-0.745,0-1.401-0.35-1.401-1.059v-2.488
					c0,0,0.53,0,0.53,0.279v2.135c0,0.463,0.36,0.701,0.871,0.701c0.516,0,0.876-0.238,0.876-0.701v-2.414c0,0,0.53,0,0.53,0.279
					V210.732z M167.097,207.434h0.359c0.078,0,0.132,0.068,0.132,0.121v0.369h-0.351c-0.083,0-0.141-0.059-0.141-0.121V207.434z
					 M167.899,207.434h0.359c0.078,0,0.131,0.068,0.131,0.121v0.369h-0.35c-0.083,0-0.141-0.059-0.141-0.121V207.434z"/>
				<path style="fill:#FFFFFF;" d="M170.937,211.777c0,0-0.53,0-0.53-0.277v-3.26c0,0,0.53,0,0.53,0.277v1.184
					c0.585-0.078,0.9-0.492,1.28-1.174c0.136-0.248,0.35-0.297,0.506-0.297c0.102,0,0.219,0.029,0.219,0.029
					c-0.331,0.512-0.656,1.412-1.343,1.621c0.778,0.164,1.172,1.395,1.488,1.854c0,0-0.127,0.033-0.219,0.033
					c-0.151,0-0.413-0.049-0.55-0.297c-0.35-0.643-0.623-1.312-1.382-1.41V211.777z"/>
				<path style="fill:#FFFFFF;" d="M174.892,212.152c0.034-0.127,0.078-0.252,0.121-0.375c-0.54-0.029-1.065-0.17-1.065-0.584
					c0-0.115,0.043-0.262,0.146-0.428c0,0.486,0.608,0.58,1.114,0.58c0.52,0,0.787-0.229,0.787-0.586
					c0-0.953-2.135-0.168-2.135-1.527c0-0.773,0.607-1.012,1.356-1.012c0.652,0,1.227,0.121,1.227,0.584
					c0,0.127-0.044,0.277-0.141,0.457v-0.029c0-0.467-0.559-0.568-1.086-0.568c-0.446,0-0.792,0.145-0.792,0.506
					c0,0.852,2.136,0.053,2.136,1.557c0,0.672-0.52,1.021-1.246,1.051c-0.015,0.061-0.019,0.117-0.029,0.18h0.029
					c0.287,0,0.506,0.182,0.506,0.467c0,0.293-0.263,0.459-0.539,0.459c-0.297,0-0.414-0.211-0.414-0.332
					c0.049,0.025,0.16,0.059,0.282,0.059c0.136,0,0.277-0.055,0.277-0.205c0-0.154-0.16-0.199-0.297-0.199
					c-0.122,0-0.269,0.055-0.269,0.055L174.892,212.152z"/>
				<path style="fill:#FFFFFF;" d="M178.256,210.08v1.24h1.738c0,0.025-0.011,0.408-0.307,0.408h-1.494c0,0-0.467,0-0.467-0.277
					v-3.162h2.268c0,0,0,0.408-0.307,0.408h-1.432v0.975h1.061c0.374,0,0.481-0.08,0.481-0.08c0,0.201-0.054,0.488-0.404,0.488
					H178.256z"/>
				<path style="fill:#FFFFFF;" d="M183.378,210.178h-1.713v1.6c0,0-0.529,0-0.529-0.277v-3.26c0,0,0.529,0,0.529,0.277v1.246h1.713
					v-1.523c0,0,0.53,0,0.53,0.277v3.26c0,0-0.53,0-0.53-0.277V210.178z"/>
				<path style="fill:#FFFFFF;" d="M185.221,208.24c0,0,0.529,0,0.529,0.277v3.26c0,0-0.529,0-0.529-0.277V208.24z M185.229,207.434
					h0.365c0.059,0,0.141,0.062,0.141,0.121v0.369h-0.36c-0.072,0-0.146-0.053-0.146-0.117V207.434z"/>
				<path style="fill:#FFFFFF;" d="M188.401,210.158c0.633,0.307,0.875,1.176,1.148,1.58c0,0-0.127,0.029-0.22,0.029
					c-0.155,0-0.39-0.043-0.525-0.297c-0.32-0.598-0.52-1.137-1.211-1.273v1.58c0,0-0.531-0.006-0.531-0.277v-3.211h1.061
					c0.706,0,1.212,0.209,1.212,0.852v0.145C189.335,209.822,188.946,210.158,188.401,210.158z M187.594,208.697v1.09h0.568
					c0.477,0,0.643-0.195,0.643-0.574c0-0.389-0.219-0.516-0.682-0.516H187.594z"/>
				<path style="fill:#FFFFFF;" d="M159.203,213.785h0.908c0.605,0,1.038,0.184,1.038,0.729v0.117c0,0.271-0.138,0.512-0.338,0.609
					c0.226,0.1,0.379,0.35,0.379,0.629v0.111c0,0.525-0.438,0.75-1.079,0.75H159.6c0,0-0.396-0.004-0.396-0.238V213.785z
					 M159.657,214.135v0.93h0.488c0.408,0,0.55-0.172,0.55-0.496c0-0.334-0.188-0.434-0.584-0.434H159.657z M159.657,215.414v0.967
					h0.454c0.439,0,0.625-0.129,0.625-0.463c0-0.32-0.179-0.504-0.591-0.504H159.657z"/>
				<path style="fill:#FFFFFF;" d="M162.688,215.318v1.062h1.486c0,0.021-0.008,0.35-0.262,0.35h-1.279c0,0-0.4,0-0.4-0.238v-2.707
					h1.941c0,0,0,0.35-0.262,0.35h-1.225v0.834h0.908c0.319,0,0.412-0.066,0.412-0.066c0,0.17-0.046,0.416-0.347,0.416H162.688z"/>
				<path style="fill:#FFFFFF;" d="M165.556,216.73c0,0-0.399,0-0.399-0.238v-2.748c0,0,0.454,0,0.454,0.236v2.4h0.979
					c0.32,0,0.412-0.062,0.412-0.062c0,0.17-0.05,0.412-0.262,0.412H165.556z"/>
				<path style="fill:#FFFFFF;" d="M168.294,215.318v1.062h1.487c0,0.021-0.008,0.35-0.262,0.35h-1.279c0,0-0.4,0-0.4-0.238v-2.707
					h1.942c0,0,0,0.35-0.262,0.35h-1.226v0.834h0.908c0.321,0,0.412-0.066,0.412-0.066c0,0.17-0.045,0.416-0.345,0.416H168.294z"/>
				<path style="fill:#FFFFFF;" d="M171.153,216.73c-0.037,0-0.391-0.008-0.391-0.238v-2.707h1.154c0.641,0,1.245,0.213,1.245,0.992
					v0.963c0,0.777-0.605,0.99-1.245,0.99H171.153z M171.217,214.135v2.246h0.7c0.441,0,0.79-0.168,0.79-0.684v-0.885
					c0-0.516-0.349-0.678-0.79-0.678H171.217z"/>
				<path style="fill:#FFFFFF;" d="M174.247,213.744c0,0,0.454,0,0.454,0.236v2.791c0,0-0.454,0-0.454-0.236V213.744z
					 M174.256,213.053h0.311c0.051,0,0.121,0.053,0.121,0.104v0.316h-0.309c-0.061,0-0.124-0.045-0.124-0.1V213.053z"/>
				<path style="fill:#FFFFFF;" d="M176.519,215.484c-0.491-0.471-0.704-1.244-0.996-1.699c0,0,0.1-0.023,0.188-0.023
					c0.125,0,0.317,0.035,0.425,0.252c0.338,0.688,0.449,0.947,0.613,1.117c0.199-0.232,0.378-0.641,0.554-1.008
					c0.142-0.295,0.324-0.361,0.483-0.361c0.079,0,0.188,0.023,0.188,0.023c-0.279,0.445-0.521,1.238-1,1.699v1.287
					c0,0-0.454,0-0.454-0.24V215.484z"/>
				<path style="fill:#FFFFFF;" d="M179.249,215.318v1.062h1.487c0,0.021-0.008,0.35-0.263,0.35h-1.279c0,0-0.4,0-0.4-0.238v-2.707
					h1.942c0,0,0,0.35-0.263,0.35h-1.225v0.834h0.908c0.32,0,0.412-0.066,0.412-0.066c0,0.17-0.045,0.416-0.346,0.416H179.249z"/>
				<path style="fill:#FFFFFF;" d="M182.755,213.727c0.558,0,1.049,0.105,1.049,0.5c0,0.107-0.037,0.238-0.121,0.393
					c0-0.01,0-0.018,0-0.025c0-0.4-0.479-0.488-0.928-0.488c-0.385,0-0.68,0.125-0.68,0.434c0,0.729,1.829,0.047,1.829,1.334
					c0,0.604-0.492,0.902-1.158,0.902c-0.513,0-1.079-0.107-1.079-0.504c0-0.1,0.037-0.225,0.125-0.365
					c0,0.416,0.52,0.496,0.954,0.496c0.445,0,0.675-0.197,0.675-0.5c0-0.818-1.829-0.146-1.829-1.309
					C181.592,213.932,182.112,213.727,182.755,213.727z"/>
				<path style="fill:#FFFFFF;" d="M184.905,213.744c0,0,0.454,0,0.454,0.236v2.791c0,0-0.454,0-0.454-0.236V213.744z
					 M184.913,213.053h0.312c0.051,0,0.121,0.053,0.121,0.104v0.316h-0.308c-0.064,0-0.126-0.045-0.126-0.1V213.053z"/>
			</g>
		</g>
		<g>
			<g>
				<path style="fill:#FFFFFF;" d="M170.218,193.117v2.584c0,0-0.554,0-0.554-0.27v-2.314h-0.507c-0.344,0-0.393-0.26-0.393-0.475
					c0,0,0.144,0.066,0.458,0.066h1.449c0.313,0,0.459-0.066,0.459-0.066c0,0.215-0.051,0.475-0.394,0.475H170.218z"/>
				<path style="fill:#FFFFFF;" d="M171.023,195.143h0.339c0.087,0,0.161,0.066,0.161,0.129v0.389h-0.335
					c-0.09,0-0.165-0.059-0.165-0.129V195.143z"/>
				<path style="fill:#FFFFFF;" d="M172.663,193.732v0.898c0,0.496,0.302,0.652,0.711,0.652c0.399,0,0.883-0.082,1.011-0.494
					c0.38,0.664-0.326,0.92-1.011,0.92c-0.661,0-1.265-0.264-1.265-1.016v-1.02c0-0.752,0.604-1.016,1.265-1.016
					c0.685,0,1.428,0.23,1.011,0.922c-0.103-0.381-0.611-0.492-1.011-0.492C172.965,193.088,172.663,193.24,172.663,193.732z"/>
				<path style="fill:#FFFFFF;" d="M175.051,195.143h0.339c0.087,0,0.161,0.066,0.161,0.129v0.389h-0.334
					c-0.091,0-0.166-0.059-0.166-0.129V195.143z"/>
			</g>
		</g>
		<g>
			<path style="fill:#FFFFFF;" d="M161.472,200.695l0.998,3.088c0.282,0.881,0.493,1.584,0.729,1.938c0,0-0.389,0.129-0.658,0.129
				c-1.105,0-1.374-0.951-1.668-1.832l-0.199-0.623h-2.959l-0.199,0.623c-0.293,0.881-0.564,1.832-1.668,1.832
				c-0.27,0-0.656-0.129-0.656-0.129c0.234-0.354,0.445-1.057,0.728-1.938l0.997-3.088c0.787-2.42,2.103-3.477,2.279-3.594
				C159.369,197.219,160.685,198.275,161.472,200.695z M158.418,201l-0.363,1.221h2.278L159.968,201
				c-0.293-0.986-0.773-1.984-0.773-1.984C159.005,199.309,158.713,200.014,158.418,201z"/>
			<path style="fill:#FFFFFF;" d="M165.254,202.268c-1.421-1.42-1.809-3.229-2.854-4.861c0,0,0.423-0.105,0.716-0.105
				c0.399,0,1.011,0.117,1.327,0.764l0.54,1.092c0.364,0.74,0.682,1.434,1.057,1.914c0.353-0.471,0.669-1.174,1.021-1.867
				l0.575-1.139c0.329-0.646,0.904-0.764,1.327-0.764c0.247,0,0.717,0.117,0.717,0.117c-0.952,1.586-1.492,3.465-2.854,4.85v3.617
				c0,0-1.573,0-1.573-0.764V202.268z"/>
			<path style="fill:#FFFFFF;" d="M171.783,205.768c-0.117,0-1.257-0.035-1.257-0.764v-7.633h3.405c1.879,0,3.651,0.623,3.651,2.889
				v2.619c0,2.266-1.773,2.889-3.651,2.889H171.783z M172.1,198.533v6.07h1.832c1.162,0,2.078-0.445,2.078-1.844v-2.395
				c0-1.396-0.916-1.832-2.078-1.832H172.1z"/>
			<path style="fill:#FFFFFF;" d="M179.111,197.254c0,0,1.573,0,1.573,0.764v7.867c0,0-1.573,0-1.573-0.764V197.254z"/>
			<path style="fill:#FFFFFF;" d="M187.894,203.43c0,0-0.142-0.67-0.142-1.244v-4.814c0,0,1.573,0,1.573,0.764v7.75
				c-1.772,0-2.137-0.846-2.137-0.846l-3.417-5.426c0,0,0.13,0.67,0.13,1.246v5.025c0,0-1.573,0-1.573-0.764v-7.75
				c0.939,0,1.715,0,2.125,0.67L187.894,203.43z"/>
		</g>
	</g>
</g>
</svg>
