<?xml version="1.0" encoding="iso-8859-1"?>
<!-- Generator: Adobe Illustrator 29.7.1, SVG Export Plug-In . SVG Version: 9.03 Build 0)  -->
<svg version="1.1" id="Layer_1" xmlns="http://www.w3.org/2000/svg" xmlns:xlink="http://www.w3.org/1999/xlink" x="0px" y="0px"
	 viewBox="0 0 900 598" style="enable-background:new 0 0 900 598;" xml:space="preserve">
<g>
	<g>
		<g>
			<g>
				<g>
					<path style="fill:#33A7E0;" d="M328.147,52.68c4.347-2.216,9.374-1.577,14.085-1.643c42.978,0.019,85.956-0.028,128.935,0.019
						c19.052,0.22,38.831,2.876,55.505,12.728c12.726,7.309,23.19,18.67,28.721,32.335c5.389,12.336,5.992,26.113,5.074,39.375
						c-1.042,12.605-4.883,25.322-12.842,35.325c-4.758,6.039-10.416,11.437-16.874,15.614c-9.279,2.255-18.356-2.972-24.796-9.307
						c-5.79,5.503-13.081,10.253-21.413,9.805c-8.12,0.248-15.239-4.396-20.839-9.852c-5.684,5.504-12.9,10.214-21.135,9.852
						c-8.237,0.353-15.461-4.338-21.117-9.861c-5.628,5.484-12.766,10.148-20.945,9.87c-8.312,0.411-15.556-4.338-21.318-9.822
						c-5.79,5.637-13.234,10.309-21.621,9.813c-8.094,0.2-14.983-4.558-20.697-9.785c-5.025,4.922-11.151,8.868-18.251,9.842
						c-0.039-39.768-0.019-79.545-0.009-119.314C318.564,61.385,322.413,55.289,328.147,52.68z M372.97,105.711
						c-0.03,0.945-0.049,1.902-0.058,2.847c15.325,1.729,30.681,3.201,46.026,4.797c-0.621,17.037-1.777,34.073-1.911,51.12
						c2.322-3.554,3.756-7.586,5.542-11.418c5.981-13.225,11.905-26.487,17.906-39.701c14.619-1.605,29.257-3.086,43.867-4.788
						c-0.125-0.954-0.25-1.911-0.364-2.865c-14.16-1.157-28.284-2.752-42.443-3.937c-7.309-0.125-14.628-0.125-21.938,0
						C404.052,102.988,388.524,104.507,372.97,105.711z"/>
				</g>
			</g>
			<g>
				<g>
					<path style="fill:#95C123;" d="M318.573,200.631c6.479-0.554,12.775-2.6,18.336-5.992c12.669,7.961,29.621,8.036,42.271,0
						c12.516,7.875,29.305,8.084,41.86,0.192c0.726,36.854,1.519,73.708,2.18,110.562c-34.476,13.09-68.978,26.104-103.424,39.251
						c-0.698-2.427-1.329-4.892-1.262-7.434C318.592,291.689,318.514,246.161,318.573,200.631z M391.725,206.239
						c0.306,5.236,1.482,10.501,4.329,14.983c4.911,8.235,13.932,12.439,21.201,18.24c-0.028-3.737,0.116-7.549-0.935-11.17
						c-1.521-5.322-5.236-9.841-9.871-12.784C401.538,212.413,396.694,209.22,391.725,206.239z M398.051,242.213
						c-3.574,1.262-6.134,5.189-5.226,8.982c1.891,8.237,12.784,12.805,20.006,8.476c3.269-1.911,4.616-6.249,3.155-9.717
						C413.234,243.313,404.758,239.701,398.051,242.213z M392.537,262.117c0.278,5.695,1.529,11.446,4.549,16.368
						c5.036,8.76,14.466,13.337,21.985,19.605c-0.047-3.849,0.134-7.758-0.821-11.523c-1.454-5.818-5.228-10.921-10.196-14.236
						C402.896,268.911,397.745,265.471,392.537,262.117z"/>
				</g>
				<g>
					<path style="fill:#95C123;" d="M430.681,198.873c10.97,3.507,23.247,1.814,33.012-4.224c12.652,7.987,29.602,7.998,42.254,0
						c4.864,2.828,10.184,4.978,15.823,5.598c4.872,0.325,8.952,3.211,13.109,5.456c13.1,7.741,25.169,18.748,30.319,33.433
						c5.646,16.006,6.104,33.625,2.99,50.202c-3.095,15.278-10.882,29.649-22.502,40.113
						c-13.682,12.487-31.504,19.616-49.552,22.912c-9.794,1.758-19.75,2.466-29.697,2.408c-37.427,0.009-74.864,0.009-112.291,0
						c26.582-16.12,53.088-32.383,79.661-48.529c-0.555-27.577-1.549-55.143-2.218-82.709
						C431.332,215.308,431.235,207.08,430.681,198.873z M443.724,239.031c-6.154,5.628-7.425,14.419-6.497,22.321
						c4.7-3.651,9.544-7.1,14.169-10.836c7.052-5.857,10.798-15.067,10.588-24.163C455.906,230.586,449.343,234.198,443.724,239.031
						z M446.562,264.782c-5.858,0.947-11.924,6.498-10.328,12.891c1.605,5.312,8.159,7.156,13.07,5.799
						c5.436-1.165,10.959-6.152,9.899-12.153C458.047,265.796,451.54,263.722,446.562,264.782z"/>
				</g>
			</g>
		</g>
		<g>
			<path style="fill:#231F20;" d="M529.305,380.447c3.134-1.348,5.361,3.793,2.093,4.986
				C528.111,387.143,525.703,381.478,529.305,380.447z"/>
			<g>
				<path style="fill:#231F20;" d="M358.949,388.233c2.197,0,4.405,0.009,6.612,0.039c2.742,9.994,5.675,19.931,8.484,29.907
					c-2.216-0.019-4.433-0.03-6.651-0.03c-0.468-2.083-0.983-4.146-1.48-6.21c-2.839,0.028-5.675,0.028-8.514-0.01
					c-0.515,2.055-1.002,4.118-1.441,6.192c-2.018,0.019-4.024,0.039-6.031,0.077C352.978,408.222,355.94,398.219,358.949,388.233z
					 M358.757,406.99c1.941,0,3.89,0,5.839,0c-0.823-4.252-1.949-8.446-2.934-12.661
					C360.535,398.505,359.533,402.729,358.757,406.99z"/>
			</g>
			<path style="fill:#231F20;" d="M412.752,388.214c2.16,0.019,4.319,0.019,6.488,0.028c-0.018,9.977-0.009,19.943-0.009,29.918
				c-2.16-0.01-4.319,0-6.468,0.028C412.752,408.194,412.763,398.199,412.752,388.214z"/>
			<path style="fill:#231F20;" d="M433.487,388.233c2.122,0,4.243,0,6.373-0.009c0,4.194-0.028,8.379,0.011,12.583
				c2.55-4.146,4.95-8.381,7.395-12.583c2.207,0.009,4.424,0.009,6.641-0.01c-2.55,3.651-5.034,7.358-7.586,11.017
				c2.781,6.287,5.428,12.631,8.217,18.918c-2.264,0-4.511,0-6.765-0.009c-1.738-4.663-3.449-9.335-5.389-13.913
				c-3.688,3.804-2.32,9.182-2.522,13.951c-2.12-0.019-4.252-0.019-6.373-0.01C433.487,408.185,433.487,398.208,433.487,388.233z"/>
			<path style="fill:#231F20;" d="M465.621,388.224c6.048,0.028,12.088,0.037,18.136-0.01c-0.011,1.673-0.011,3.354-0.011,5.036
				c-3.888-0.039-7.767-0.028-11.646-0.039c-0.011,2.399-0.011,4.797,0.009,7.196c3.048-0.01,6.096-0.019,9.154,0.009
				c-0.01,1.644-0.01,3.287-0.01,4.95c-3.057,0.009-6.105,0-9.152-0.019c-0.011,2.531-0.011,5.072,0,7.606
				c3.879-0.009,7.767,0.01,11.657-0.028c-0.011,1.749-0.011,3.507-0.011,5.264c-6.038-0.057-12.077-0.057-18.117,0
				C465.63,408.194,465.64,398.208,465.621,388.224z"/>
			<path style="fill:#231F20;" d="M498.757,389.14c5.428-3.248,13.387-0.868,15.289,5.419c-1.749,0.707-3.507,1.413-5.247,2.139
				c-1.204-1.594-2.359-3.974-4.747-3.716c-2.428-0.278-4.368,3.095-2.294,4.777c3.134,2.178,7.224,2.628,10.119,5.206
				c3.716,3.364,3.257,9.958-0.506,13.12c-3.468,3.009-8.849,3.334-12.9,1.357c-2.751-1.338-4.013-4.261-5.198-6.889
				c1.844-0.564,3.688-1.118,5.551-1.673c1.013,2.113,2.38,4.836,5.198,4.51c3.011,0.517,5.227-3.382,2.972-5.531
				c-2.981-2.027-6.841-2.399-9.632-4.749C493.159,399.509,494.01,391.912,498.757,389.14z"/>
			<g>
				<path style="fill:#231F20;" d="M547.7,388.214c4.691,0.181,9.439-0.325,14.102,0.373c7.013,2.16,7.425,12.938,1.482,16.645
					c1.699,4.358,3.582,8.646,5.407,12.967c-2.389-0.039-4.758-0.049-7.128-0.097c-1.223-3.965-2.608-7.873-3.907-11.799
					c-0.87-0.019-2.608-0.049-3.478-0.067c-0.028,3.983-0.019,7.968-0.009,11.953c-2.16-0.028-4.319-0.028-6.468,0
					C547.7,408.194,547.708,398.208,547.7,388.214z M554.187,392.877c-0.039,2.923-0.039,5.848,0,8.782
					c2.932,0.256,7.3-0.316,6.889-4.291C561.696,393.239,557.254,392.533,554.187,392.877z"/>
			</g>
			<g>
				<path style="fill:#231F20;" d="M319.945,418.188c0.009-9.994,0-19.98,0.009-29.964c5.017,0.19,10.091-0.364,15.078,0.41
					c5.934,1.654,6.632,11.315,1.004,13.875c6.164,2.589,6.173,12.803-0.209,15.019
					C330.637,418.742,325.229,417.882,319.945,418.188z M326.138,392.905c-0.01,2.533-0.01,5.064,0.009,7.606
					c2.933,0.019,7.414-0.048,7.185-4.136C333.14,392.543,328.889,392.916,326.138,392.905z M326.147,405.107
					c-0.019,2.714-0.019,5.417-0.009,8.131c1.958-0.143,4.013,0.172,5.895-0.526c2.359-1.021,2.322-4.28,1.346-6.249
					C331.545,404.476,328.525,405.394,326.147,405.107z"/>
			</g>
			<path style="fill:#231F20;" d="M385.139,388.214c2.15,0.019,4.31,0.019,6.479,0.01c0,8.17-0.048,16.348,0.019,24.519
				c3.22,0.009,6.439,0.028,9.65-0.125c0.019,1.854,0.019,3.716,0.039,5.581c-5.4-0.077-10.787-0.077-16.176,0.009
				C385.139,408.202,385.139,398.208,385.139,388.214z"/>
			<path style="fill:#231F20;" d="M526.916,388.261c2.169-0.019,4.347-0.037,6.526-0.056c0.009,9.994,0,19.989,0.009,29.983
				c-2.188-0.028-4.366-0.039-6.535-0.057C526.925,408.174,526.925,398.219,526.916,388.261z"/>
		</g>
		<g>
			<path style="fill:#231F20;" d="M581.098,427.237c2.914-1.49,6.802,1.357,6.373,4.597c-0.077,3.354-4.472,5.426-7.157,3.459
				C577.122,433.591,577.695,428.335,581.098,427.237z"/>
			<path style="fill:#231F20;" d="M306.878,427.991c2.341-1.385,5.971,0.116,6.21,2.963c0.65,3.372-3.86,5.743-6.477,3.746
				C304.059,433.333,304.337,429.214,306.878,427.991z"/>
			<path style="fill:#231F20;" d="M319.386,427.963c2.617-1.51,6.574,0.534,6.21,3.726c-0.039,3.078-4.176,4.806-6.535,2.981
				C316.5,433.305,316.806,429.139,319.386,427.963z"/>
			<path style="fill:#231F20;" d="M383.519,428.441c2.485-2.35,7.368-0.134,6.842,3.382c-0.134,3.909-6.145,4.844-7.836,1.501
				C381.388,431.765,382.144,429.559,383.519,428.441z"/>
			<path style="fill:#231F20;" d="M396.724,427.907c2.636-1.396,6.44,0.64,6.134,3.774c0.019,3.343-4.721,4.958-7.004,2.656
				C393.581,432.654,394.363,429.1,396.724,427.907z"/>
			<path style="fill:#231F20;" d="M462.396,443.137c4.853-4.271,12.096-4.377,17.992-2.571c4.816,1.501,7.759,5.934,9.335,10.472
				c-3,1.185-6.029,2.341-9.04,3.507c-1.06-1.988-1.919-4.366-4.08-5.428c-2.637-1.49-6.755-1.04-8.159,1.921
				c-1.204,1.949-0.306,4.605,1.633,5.704c5.189,3.268,11.773,4.032,16.359,8.314c6.296,5.981,5.197,17.37-1.615,22.52
				c-3.076,2.552-7.089,3.326-10.921,3.87c-0.353,0.937-0.698,1.874-1.042,2.819c1.96,0.248,4.185,0.143,5.753,1.577
				c2.953,2.637,2.369,8.14-1.232,9.947c-4.205,2.264-9.079,0.563-13.005-1.462c0.42-1.146,0.842-2.275,1.271-3.401
				c2.331,0.946,4.769,2.225,7.377,1.749c1.174-0.928,1.786-2.514,0.612-3.718c-1.387-1.93-4.09-1.385-6.134-1.587
				c0.782-2.034,1.546-4.069,2.311-6.105c-3.746-0.823-7.586-2.169-10.167-5.16c-2.216-2.408-3.363-5.532-4.442-8.56
				c3.171-0.889,6.335-1.796,9.478-2.761c1.032,2.828,2.38,6.076,5.475,7.156c2.58,0.65,5.762,0.726,7.834-1.213
				c2.438-2.074,2.094-6.584-0.763-8.122c-4.988-2.923-11.151-3.63-15.586-7.539C455.469,459.389,456.051,448.449,462.396,443.137z"
				/>
			<g>
				<path style="fill:#231F20;" d="M255.425,490.539c0-16.788-0.03-33.587,0.019-50.375c6.574,0.076,13.157-0.086,19.739,0.067
					c3.545,0.258,7.627,0.42,10.168,3.296c5.503,5.839,4.978,17.936-3.526,20.745c9.65,2.875,11.113,16.874,3.966,23.047
					c-2.867,2.617-6.966,2.97-10.664,3.153C268.553,490.595,261.988,490.442,255.425,490.539z M265.964,448.238
					c-0.019,4.129-0.019,8.265,0.009,12.394c2.914-0.076,5.943,0.162,8.743-0.832c4.166-2.035,4.08-9.546-0.459-11.084
					C271.554,448.029,268.726,448.324,265.964,448.238z M265.964,482.055c3.707-0.23,7.959,0.763,11.16-1.654
					c2.608-2.464,2.628-7.175,0.468-9.928c-3.182-2.781-7.776-1.663-11.627-1.921C265.936,473.054,265.936,477.553,265.964,482.055z
					"/>
			</g>
			<path style="fill:#231F20;" d="M297.877,440.174c3.66,0,7.311,0.01,10.97,0c0.22,12.135-0.459,24.327,0.373,36.444
				c0.22,5.454,7.481,7.414,11.332,4.366c2.331-1.997,2.121-5.342,2.235-8.123c0.048-10.892,0-21.785,0.019-32.688
				c3.067,0,6.143,0,9.221-0.009c-0.047,10.902,0.076,21.805-0.067,32.706c-0.239,4.472-0.269,9.479-3.317,13.091
				c-3.201,3.946-8.476,5.398-13.376,5.34c-4.855,0.058-10.253-0.907-13.598-4.747c-3.325-3.727-3.421-9.01-3.735-13.712
				C297.802,461.959,297.916,451.066,297.877,440.174z"/>
			<path style="fill:#231F20;" d="M334.809,440.165c3.983,0.009,7.968,0.009,11.952,0.019c2.294,6.182,4.769,12.297,7.042,18.498
				c2.905-6.048,5.161-12.383,7.873-18.526c3.556,0.028,7.11,0.028,10.664,0.009c-4.069,8.34-7.987,16.76-12.105,25.091
				c-0.823,1.777-1.958,3.554-1.807,5.609c-0.019,6.544,0.011,13.09,0.011,19.635c-3.67,0.019-7.339,0-11.007,0.039
				c0.017-5.589-0.019-11.17,0.028-16.751c-0.048-2.139,0.22-4.394-0.803-6.373C342.69,458.338,338.772,449.242,334.809,440.165z"/>
			<path style="fill:#231F20;" d="M375.167,440.165c3.66,0.019,7.319,0.009,10.979,0.019c0.019,10.587-0.037,21.173,0.019,31.76
				c0.144,2.619-0.067,5.503,1.424,7.816c3.144,4.519,12.241,3.124,12.241-3.067c0.621-12.155,0.114-24.346,0.276-36.52
				c3.058,0,6.125,0,9.193,0c0,9.622,0,19.245,0,28.867c-0.039,4.252-0.086,8.571-1.148,12.717
				c-1.575,5.417-7.022,8.885-12.468,9.363c-5.572,0.526-12.012,0.116-16.244-4.013c-3.765-3.727-3.966-9.363-4.222-14.322
				C375.101,461.911,375.206,451.038,375.167,440.165z"/>
			<path style="fill:#231F20;" d="M418.959,490.539c0.018-16.788-0.011-33.587,0.009-50.375c3.621,0.009,7.243,0.019,10.854,0.009
				c0,7.043,0,14.085-0.009,21.126c4.224-6.994,8.245-14.102,12.411-21.135c3.726,0.019,7.453,0.019,11.179,0
				c-4.299,6.105-8.407,12.355-12.717,18.46c4.558,10.655,9.107,21.309,13.779,31.904c-3.793-0.018-7.578-0.037-11.352,0.01
				c-3.029-7.778-5.895-15.603-9.01-23.334c-1.396,2.158-3.086,4.166-4.157,6.526c-0.325,5.59-0.019,11.199-0.125,16.797
				C426.201,490.5,422.58,490.5,418.959,490.539z"/>
			<path style="fill:#231F20;" d="M497.501,440.174c10.156,0,20.314,0.019,30.47-0.009c0.01,2.847,0,5.704,0.01,8.571
				c-6.507-0.086-13.014-0.039-19.511-0.048c-0.01,3.966-0.019,7.94,0.018,11.905c5.064,0.011,10.149-0.028,15.222,0.028
				c0.039,2.847-0.028,5.695-0.287,8.542c-4.988-0.067-9.966-0.009-14.953-0.056c-0.01,4.185-0.01,8.379,0,12.564
				c6.497-0.019,13.004,0.048,19.511-0.039c-0.01,2.962-0.01,5.934,0,8.915c-10.167-0.067-20.324-0.037-30.491-0.009
				C497.51,473.751,497.49,456.961,497.501,440.174z"/>
			<path style="fill:#231F20;" d="M533.58,490.539c0-16.788-0.009-33.587,0-50.375c3.612,0.019,7.235,0.019,10.856,0.009
				c0,6.804-0.009,13.607,0.009,20.419c4.09,0,8.18-0.009,12.279,0.019c0.065-6.813,0.018-13.626,0.028-20.439
				c3.66,0,7.319,0.01,10.979,0c0.009,16.779-0.009,33.558,0.009,50.346c-3.668-0.009-7.328-0.019-10.987,0.009
				c0.01-6.917,0-13.835,0-20.754c-4.109-0.009-8.209-0.009-12.307,0c-0.018,6.918-0.018,13.837,0,20.754
				C540.823,490.5,537.192,490.5,533.58,490.539z"/>
			<path style="fill:#231F20;" d="M577.352,440.184c3.631-0.01,7.261-0.01,10.892-0.019c0.011,16.788-0.009,33.586,0,50.383
				c-3.631-0.048-7.252-0.048-10.873-0.009C577.352,473.751,577.391,456.972,577.352,440.184z"/>
			<g>
				<path style="fill:#231F20;" d="M597.933,440.165c7.082,0.162,14.18-0.287,21.251,0.267c4.052,0.22,7.778,2.714,9.766,6.22
					c3.927,7.214,2.531,17.677-4.95,22.043c3.115,7.261,6.085,14.58,9.221,21.833c-3.995-0.028-7.989,0.01-11.974-0.057
					c-2.083-6.688-4.463-13.283-6.641-19.932c-1.911,0-3.813-0.009-5.704,0c-0.019,6.66-0.019,13.32-0.01,19.989
					c-3.66-0.028-7.319-0.018-10.97-0.009C597.933,473.741,597.933,456.953,597.933,440.165z M608.903,448.248
					c-0.019,4.778-0.047,9.564,0.028,14.341c3.345-0.239,7.769,0.812,10.1-2.311c1.882-3.134,1.988-7.787-0.679-10.52
					C615.82,447.398,612.018,448.544,608.903,448.248z"/>
			</g>
		</g>
		<g>
			<g>
				<path style="fill:#231F20;" d="M362.398,535.224h-8.217v-21.316h8.158c2.207,0,4.002,0.402,5.389,1.209
					c1.644,0.946,2.468,2.382,2.468,4.312c0,1.121-0.362,2.106-1.085,2.951c-0.682,0.768-1.594,1.339-2.738,1.714v0.06
					c1.445,0.293,2.589,0.895,3.431,1.8c0.904,1.004,1.355,2.253,1.355,3.749c0,1.89-1.044,3.336-3.131,4.34
					C366.402,534.83,364.525,535.224,362.398,535.224z M358.846,522.47h3.644c2.026,0,3.039-0.837,3.039-2.51
					c0-1.671-1.013-2.51-3.039-2.51h-3.644V522.47z M358.846,531.682h3.644c1.243,0,2.135-0.167,2.679-0.503
					c0.682-0.413,1.023-1.19,1.023-2.332c0-1.141-0.341-1.919-1.023-2.333c-0.543-0.334-1.436-0.501-2.679-0.501h-3.644V531.682z"/>
				<path style="fill:#231F20;" d="M375.461,535.224v-21.316h14.569v3.542h-9.903v4.99h9.27v3.544h-9.27v5.698h10.233v3.542H375.461
					z"/>
				<path style="fill:#231F20;" d="M409.777,535.224h-14.086v-21.316h4.665v17.774h9.421V535.224z"/>
				<path style="fill:#231F20;" d="M413.6,535.224v-21.316h14.57v3.542h-9.903v4.99h9.27v3.544h-9.27v5.698H428.5v3.542H413.6z"/>
				<path style="fill:#231F20;" d="M433.708,535.224v-21.316h7.404c7.326,0,10.987,3.552,10.987,10.657
					c0,7.107-3.661,10.659-10.987,10.659H433.708z M438.373,517.45v14.232h2.408c2.489,0,4.245-0.76,5.268-2.275
					c0.722-1.121,1.084-2.735,1.084-4.842c0-2.106-0.362-3.719-1.084-4.841c-1.023-1.515-2.779-2.274-5.268-2.274H438.373z"/>
				<path style="fill:#231F20;" d="M461.52,513.908v21.316h-4.665v-21.316H461.52z"/>
				<path style="fill:#231F20;" d="M472.568,535.224v-6.968l-7.314-14.348h5.447l4.486,9.771l4.575-9.771h4.786l-7.314,14.348v6.968
					H472.568z"/>
				<path style="fill:#231F20;" d="M488.19,535.224v-21.316h14.57v3.542h-9.903v4.99h9.27v3.544h-9.27v5.698h10.233v3.542H488.19z"
					/>
				<path style="fill:#231F20;" d="M524.522,519.99h-4.484c-0.181-2.144-1.385-3.218-3.612-3.218c-0.944,0-1.737,0.227-2.378,0.679
					c-0.723,0.513-1.085,1.202-1.085,2.067c0,1.004,0.431,1.733,1.296,2.185c0.339,0.197,1.232,0.473,2.679,0.828
					c2.628,0.649,4.405,1.22,5.328,1.712c1.905,1.004,2.86,2.44,2.86,4.31c0,2.44-0.974,4.291-2.92,5.551
					c-1.666,1.043-3.814,1.565-6.442,1.565c-5.7,0-8.479-2.42-8.339-7.263h4.756c-0.102,1.201,0.181,2.16,0.842,2.879
					c0.663,0.719,1.596,1.078,2.8,1.078c1.163,0,2.116-0.188,2.86-0.561c0.983-0.492,1.475-1.25,1.475-2.274
					c0-1.062-0.593-1.849-1.775-2.361c-0.1-0.04-1.174-0.311-3.222-0.814c-2.046-0.501-3.612-1.097-4.695-1.786
					c-1.645-1.042-2.469-2.399-2.469-4.074c0-2.282,0.953-4.064,2.86-5.344c1.666-1.121,3.723-1.684,6.171-1.684
					c2.187,0,3.964,0.552,5.328,1.654C523.8,516.298,524.522,517.923,524.522,519.99z"/>
				<path style="fill:#231F20;" d="M534.455,513.908v21.316h-4.665v-21.316H534.455z"/>
			</g>
			<path style="fill:#231F20;" d="M461.216,509.79c0,1.102-0.91,1.995-2.034,1.995s-2.032-0.893-2.032-1.995
				c0-1.1,0.909-1.993,2.032-1.993S461.216,508.689,461.216,509.79z"/>
			<path style="fill:#231F20;" d="M534.095,509.79c0,1.102-0.909,1.995-2.034,1.995c-1.121,0-2.032-0.893-2.032-1.995
				c0-1.1,0.91-1.993,2.032-1.993C533.186,507.796,534.095,508.689,534.095,509.79z"/>
		</g>
	</g>
</g>
</svg>
