<?xml version="1.0" encoding="UTF-8"?>
<svg id="Layer_1" data-name="Layer 1" xmlns="http://www.w3.org/2000/svg" viewBox="0 0 744 744">
  <defs>
    <style>
      .cls-1 {
        fill: none;
      }

      .cls-2 {
        fill: #8f732c;
      }

      .cls-3 {
        fill: #b27d37;
      }

      .cls-4 {
        fill: #92732b;
      }

      .cls-5 {
        fill: #fcf4c3;
      }

      .cls-6 {
        isolation: isolate;
        opacity: .15;
      }

      .cls-6, .cls-7 {
        fill: #ab9030;
      }

      .cls-8 {
        fill: #3291af;
      }

      .cls-9 {
        fill: #c8af2e;
      }

      .cls-10 {
        fill: #007a9d;
      }

      .cls-11 {
        fill: #e0ca40;
      }

      .cls-12 {
        fill: #fff;
      }

      .cls-13 {
        fill: #a28830;
      }

      .cls-14 {
        fill: #c3aa2f;
      }

      .cls-15 {
        fill: #ba9e30;
      }

      .cls-16 {
        fill: #a88837;
      }

      .cls-17 {
        fill: #f5e981;
      }

      .cls-18 {
        fill: #f9ed85;
      }

      .cls-19 {
        fill: #f5de6f;
      }

      .cls-20 {
        fill: #fdf5c7;
      }
    </style>
  </defs>
  <g id="Layer_1-2" data-name="Layer 1">
    <g>
      <g>
        <circle class="cls-12" cx="372.44" cy="370.84" r="366.56"/>
        <path class="cls-3" d="M372,0C166.55,0,0,166.55,0,372s166.55,372,372,372,372-166.55,372-372S577.45,0,372,0ZM372,734.45c-200.18,0-362.45-162.27-362.45-362.45S171.82,9.55,372,9.55s362.45,162.27,362.45,362.45-162.28,362.45-362.45,362.45Z"/>
      </g>
      <g>
        <g>
          <g>
            <circle class="cls-10" cx="372.44" cy="370.84" r="290.92"/>
            <path class="cls-8" d="M586.07,555.79l-14.17-111.59c4.65-1.23,8.37-4.71,9.92-9.21l61.22,12.83,1.14-3.97-61.6-12.61c.02-.32.04-.63.04-.95,0-1.61-.27-3.15-.76-4.59l72.1-35.94-.28-4.61-73.54,37.05c-1.82-2.67-4.51-4.7-7.66-5.68l30.82-210.73-3.26-2.96-31.58,213.06c-.09,0-.17-.02-.25-.02-2.06,0-4.01.44-5.78,1.21l-137.16-239.76c2.95-2.06,5.1-5.19,5.87-8.83l145.29,6.99-3.82-4.06-141.2-6.66c-.26-5.1-3.15-9.5-7.36-11.85l21.2-55.74-3.49-1.07-21.55,55.34c-1.02-.23-2.08-.36-3.17-.36-3.15,0-6.06,1.02-8.43,2.74l-61.89-68.68-4.27,2.33,63.04,69.43c-1.79,2.4-2.86,5.37-2.86,8.6,0,1.1.14,2.16.37,3.19l-149.28,56.11c-1.65-3.85-4.92-6.84-8.96-8.1l23.94-110.94-4.77.6-22.69,109.73c-.26-.01-.51-.04-.77-.04-3.64,0-6.95,1.36-9.49,3.58l-51.87-56.75-2.69,2.15,51.57,58.23c-.17.29-.32.58-.47.88l-73.84-34.58-2.15,3.58,74.79,34.58c-.17.89-.27,1.81-.27,2.74,0,5.6,3.19,10.44,7.85,12.82l-74.59,173.14c-1.48-.51-3.06-.8-4.71-.8-.98,0-1.93.1-2.86.28l-43.72-146.67-2.51,7.34,42.37,140.71c-1.67.88-3.15,2.08-4.35,3.52l-53.24-43.59v6.09l51,41.19c-.64,1.54-1.01,3.23-1.08,4.99l-.14-.34-44.94-4.12.18,4.48,45.18,3.49c.82,3.96,3.27,7.31,6.61,9.35l-28.15,58.43,2.69,3.04,29.22-59.86c1.2.32,2.45.51,3.75.51,2.69,0,5.2-.75,7.36-2.03l89.91,87.95c-1.76,2.39-2.82,5.34-2.82,8.54,0,.41.03.82.06,1.22l-88.09,19.72,3.05,3.76,85.68-20.28c.69,2.14,1.87,4.07,3.4,5.64l-41.64,55.46,3.58,2.33,41.14-55.39c2.12,1.23,4.59,1.95,7.22,1.95,1.49,0,2.93-.22,4.29-.65l44.03,94.74,3.4.36-44.31-96.51c3.9-2.34,6.59-6.47,6.95-11.26l97.96-4.9c1.06,3.98,3.77,7.28,7.36,9.12l-29,108.59,4.07.51,28.23-107.9c1.05.24,2.13.38,3.26.38,1.19,0,2.34-.16,3.45-.43l37.16,86.64c-4.21,2.52-7.04,7.1-7.04,12.37,0,4.88,2.44,9.19,6.15,11.8,7.08-1.41,14.08-3.07,20.96-4.98,1.09-2.03,1.71-4.35,1.71-6.81,0-7.96-6.45-14.42-14.41-14.42-1.24,0-2.43.17-3.57.47l-37.76-86.26c2.57-1.34,4.68-3.43,6.05-5.98l149.92,49.35,3.05-3.05-151.71-49.61c.28-1.12.44-2.28.44-3.48,0-1.58-.26-3.09-.73-4.52l153.12-88.22c2.59,3.61,6.8,5.98,11.57,6.03l14.45,112.61,3.55-1.5ZM254.88,230.46c0-.27-.03-.53-.04-.8l150.28-56.06c1.09,1.6,2.5,2.95,4.12,4l-56.33,116.36c-1.04-.24-2.12-.38-3.23-.38-4.28,0-8.1,1.87-10.74,4.83l-86.51-59.92c1.54-2.3,2.44-5.06,2.44-8.03ZM219.22,286.25l19.37-41.51c.62.08,1.24.14,1.88.14,3.88,0,7.4-1.55,9.99-4.04l-.26.41,86.46,60.64c-.87,1.86-1.38,3.92-1.38,6.11,0,1.85.36,3.61.99,5.23l-169.33,109.29.28.55c-1.08-1.95-2.6-3.62-4.43-4.89l56.44-131.93ZM266.86,524.91c-1.09-.27-2.22-.42-3.39-.42-3.48,0-6.68,1.23-9.17,3.29l-89.51-87.55c2.61-2.61,4.22-6.21,4.22-10.19,0-2.24-.52-4.35-1.44-6.24l1.15,2.29,169.44-109.46c1.12,1.49,2.51,2.75,4.11,3.71l-75.42,204.57ZM375.33,530.61l-97.81,5.11c-.88-3.88-3.31-7.15-6.61-9.15l74.78-204.74c1.19.34,2.44.54,3.74.56l34.62,195.74c-4.92,2.1-8.41,6.86-8.71,12.48ZM554.7,435.26l-153.36,87.65c-2.62-3.59-6.85-5.94-11.64-5.94-.64,0-1.26.05-1.87.14l-34.02-195.31c2.96-.88,5.52-2.7,7.34-5.1l193.62,108.38c-.63,1.61-.98,3.36-.98,5.19s.33,3.43.9,4.99ZM556.88,421.39l-193.83-107.98c.68-1.67,1.06-3.5,1.06-5.42,0-5.5-3.08-10.27-7.61-12.7l55.94-116.15c1.45.49,2.99.76,4.6.76s3.27-.3,4.76-.82l137.6,239.8c-.94.73-1.79,1.58-2.53,2.51Z"/>
          </g>
          <path class="cls-3" d="M371,77.35c-161.65,0-292.7,131.04-292.7,292.7s131.04,292.69,292.7,292.69,292.7-131.04,292.7-292.69c0-161.65-131.05-292.7-292.7-292.7ZM371,652.24c-155.85,0-282.19-126.35-282.19-282.19S215.15,87.86,371,87.86s282.19,126.34,282.19,282.19c0,155.85-126.34,282.19-282.19,282.19Z"/>
        </g>
        <g>
          <path class="cls-12" d="M251.25,589.35h13.64c2.45,0,4.28.3,5.51.9,1.23.6,2.25,1.46,3.05,2.57.8,1.12,1.2,2.47,1.2,4.07,0,3.24-1.76,5.41-5.28,6.5,2.03.46,3.55,1.37,4.57,2.72,1.02,1.36,1.52,2.84,1.52,4.45,0,2.19-.83,4.08-2.49,5.68-1.66,1.6-4.36,2.39-8.09,2.39h-13.64v-29.28h0ZM258.09,594.52v6.41h5.19c1.9,0,3.1-.37,3.59-1.12.49-.75.74-1.47.74-2.16,0-.75-.2-1.38-.61-1.92-.41-.54-.86-.87-1.34-1.01-.49-.14-1.45-.21-2.88-.21h-4.7ZM258.09,606.15v7.06h5.27c1.8,0,3.07-.32,3.81-.94.74-.63,1.11-1.51,1.11-2.64,0-.94-.36-1.76-1.07-2.44-.71-.69-1.9-1.03-3.55-1.03h-5.56Z"/>
          <path class="cls-12" d="M301.88,594.93h-13.95v6.01h10.96v5.51h-10.96v6.39h13.95v5.79h-20.92v-29.28h20.92v5.58Z"/>
          <path class="cls-12" d="M314.05,612.84h11.65v5.79h-18.6v-29.28h6.95v23.49h0Z"/>
          <path class="cls-12" d="M351.23,594.93h-13.95v6.01h10.96v5.51h-10.96v6.39h13.95v5.79h-20.92v-29.28h20.92v5.58Z"/>
          <path class="cls-12" d="M356.45,589.35h8.94c3.64,0,6.36.51,8.14,1.51,1.78,1.01,3.39,2.6,4.8,4.78,1.41,2.18,2.12,4.94,2.12,8.27,0,4.19-1.24,7.69-3.71,10.5-2.47,2.81-5.88,4.22-10.22,4.22h-10.07v-29.28h0ZM363.19,594.74v18.38h2.83c2.5,0,4.35-.93,5.57-2.8,1.21-1.87,1.82-4.06,1.82-6.58,0-1.77-.35-3.41-1.04-4.92-.69-1.51-1.55-2.57-2.58-3.17-1.03-.61-2.26-.91-3.7-.91h-2.89Z"/>
          <path class="cls-12" d="M392.88,589.35v29.28h-6.84v-29.28h6.84ZM389.43,586.22c-.77,0-1.39-.25-1.84-.75-.46-.5-.69-1.07-.69-1.72s.23-1.24.71-1.75c.47-.51,1.08-.76,1.82-.76.67,0,1.27.22,1.8.65.53.43.79,1.05.79,1.83s-.26,1.36-.76,1.81c-.51.45-1.12.67-1.84.67Z"/>
          <path class="cls-12" d="M420.99,589.35l-9.2,16.95v12.33h-6.84v-12.33l-9.2-16.95h7.96l5.58,11.09,5.56-11.09h6.15Z"/>
          <path class="cls-12" d="M444.78,594.93h-13.94v6.01h10.96v5.51h-10.96v6.39h13.94v5.79h-20.92v-29.28h20.92v5.58Z"/>
          <path class="cls-12" d="M470.23,595.79l-5.84,1.95c-.79-2.32-2.45-3.48-4.99-3.48-2.71,0-4.06.88-4.06,2.64,0,.7.25,1.29.76,1.78.51.49,1.65.91,3.44,1.27,2.98.6,5.17,1.21,6.55,1.83,1.39.61,2.55,1.61,3.5,2.97.95,1.37,1.42,2.9,1.42,4.58,0,2.64-1.02,4.93-3.05,6.86-2.04,1.93-5.05,2.9-9.06,2.9-3,0-5.55-.68-7.66-2.05-2.11-1.36-3.5-3.39-4.17-6.08l6.35-1.44c.71,2.73,2.7,4.1,5.96,4.1,1.57,0,2.74-.3,3.51-.91.77-.61,1.16-1.34,1.16-2.18s-.35-1.52-1.05-1.99c-.7-.47-2.05-.92-4.05-1.33-3.73-.77-6.39-1.83-7.97-3.16-1.58-1.34-2.38-3.29-2.38-5.87s.95-4.8,2.84-6.59c1.89-1.79,4.46-2.68,7.7-2.68,5.74,0,9.44,2.3,11.08,6.89Z"/>
          <path class="cls-12" d="M483.45,589.35v29.28h-6.84v-29.28h6.84ZM480,586.22c-.77,0-1.39-.25-1.85-.75-.46-.5-.69-1.07-.69-1.72s.23-1.24.71-1.75c.47-.51,1.08-.76,1.82-.76.67,0,1.27.22,1.8.65.53.43.79,1.05.79,1.83s-.26,1.36-.76,1.81c-.51.45-1.12.67-1.83.67Z"/>
        </g>
        <g>
          <g>
            <path class="cls-1" d="M253.3,535.23l-6.76-20.71h2.89l3.23,10.2c.89,2.79,1.66,5.31,2.21,7.74h.06c.58-2.4,1.44-5.01,2.37-7.71l3.5-10.23h2.86l-7.41,20.71h-2.95Z"/>
            <path class="cls-1" d="M266.31,528.29c.06,3.66,2.4,5.16,5.1,5.16,1.94,0,3.1-.34,4.12-.77l.46,1.93c-.95.43-2.58.92-4.95.92-4.58,0-7.31-3.01-7.31-7.5s2.64-8.02,6.98-8.02c4.85,0,6.14,4.27,6.14,7.01,0,.55-.06.98-.09,1.26h-10.45ZM274.24,526.35c.03-1.72-.71-4.39-3.75-4.39-2.73,0-3.93,2.52-4.15,4.39h7.9Z"/>
            <path class="cls-1" d="M282.88,527.18h.06c.37-.52.89-1.17,1.32-1.69l4.36-5.13h3.26l-5.74,6.11,6.55,8.76h-3.29l-5.13-7.13-1.38,1.54v5.59h-2.67v-21.82h2.67v13.77h0Z"/>
            <path class="cls-1" d="M297.88,516.09v4.27h3.87v2.06h-3.87v8.02c0,1.84.52,2.89,2.03,2.89.71,0,1.23-.09,1.57-.18l.12,2.03c-.52.22-1.35.37-2.4.37-1.26,0-2.27-.4-2.92-1.14-.77-.8-1.05-2.12-1.05-3.87v-8.11h-2.3v-2.06h2.3v-3.57l2.64-.71Z"/>
            <path class="cls-1" d="M318.08,527.67c0,5.5-3.81,7.9-7.41,7.9-4.03,0-7.13-2.95-7.13-7.65,0-4.98,3.26-7.9,7.37-7.9,4.27,0,7.16,3.1,7.16,7.65ZM306.28,527.83c0,3.26,1.87,5.72,4.52,5.72s4.52-2.43,4.52-5.78c0-2.52-1.26-5.72-4.45-5.72s-4.58,2.95-4.58,5.78Z"/>
            <path class="cls-1" d="M321.5,525c0-1.75-.03-3.26-.12-4.64h2.37l.09,2.92h.12c.68-2,2.3-3.26,4.12-3.26.31,0,.52.03.77.09v2.55c-.28-.06-.55-.09-.92-.09-1.9,0-3.26,1.44-3.62,3.47-.06.37-.12.8-.12,1.26v7.93h-2.67v-10.23h0Z"/>
            <path class="cls-1" d="M332.75,528.29c.06,3.66,2.4,5.16,5.1,5.16,1.94,0,3.1-.34,4.12-.77l.46,1.93c-.95.43-2.58.92-4.95.92-4.58,0-7.31-3.01-7.31-7.5s2.64-8.02,6.98-8.02c4.85,0,6.14,4.27,6.14,7.01,0,.55-.06.98-.09,1.26h-10.45ZM340.67,526.35c.03-1.72-.71-4.39-3.75-4.39-2.73,0-3.93,2.52-4.15,4.39h7.9Z"/>
            <path class="cls-1" d="M346.65,513.42h2.7v21.82h-2.7v-21.82Z"/>
            <path class="cls-1" d="M368.47,534.56c-.98.49-2.95.98-5.47.98-5.84,0-10.23-3.69-10.23-10.48s4.39-10.88,10.82-10.88c2.58,0,4.21.55,4.92.92l-.64,2.18c-1.01-.49-2.46-.86-4.18-.86-4.85,0-8.08,3.1-8.08,8.54,0,5.07,2.92,8.33,7.96,8.33,1.63,0,3.29-.34,4.36-.86l.55,2.12Z"/>
            <path class="cls-1" d="M374.65,516.18c.03.92-.64,1.66-1.72,1.66-.95,0-1.63-.74-1.63-1.66s.71-1.69,1.69-1.69c1.01,0,1.66.74,1.66,1.69ZM371.64,535.23v-14.87h2.7v14.87h-2.7Z"/>
            <path class="cls-1" d="M377.14,533.67l6.73-8.76c.65-.8,1.26-1.5,1.93-2.3v-.06h-8.05v-2.18h11.34l-.03,1.69-6.64,8.63c-.61.83-1.23,1.57-1.9,2.34v.06h8.7v2.15h-12.08v-1.57h0Z"/>
            <path class="cls-1" d="M395,516.18c.03.92-.65,1.66-1.72,1.66-.95,0-1.63-.74-1.63-1.66s.71-1.69,1.69-1.69c1.01,0,1.66.74,1.66,1.69ZM391.99,535.23v-14.87h2.7v14.87h-2.7Z"/>
            <path class="cls-1" d="M399.18,524.39c0-1.54-.03-2.8-.12-4.03h2.37l.12,2.4h.09c.83-1.41,2.21-2.73,4.67-2.73,2.03,0,3.56,1.23,4.21,2.98h.06c.46-.83,1.04-1.47,1.66-1.94.89-.68,1.87-1.04,3.29-1.04,1.97,0,4.89,1.29,4.89,6.45v8.76h-2.64v-8.42c0-2.86-1.05-4.58-3.23-4.58-1.54,0-2.73,1.14-3.2,2.46-.12.37-.21.86-.21,1.35v9.19h-2.64v-8.91c0-2.36-1.05-4.09-3.11-4.09-1.69,0-2.92,1.35-3.35,2.7-.15.4-.21.86-.21,1.32v8.97h-2.64v-10.84h0Z"/>
            <path class="cls-1" d="M424.18,533.64c0-1.14.77-1.93,1.84-1.93s1.81.8,1.81,1.93-.71,1.94-1.84,1.94c-1.08,0-1.81-.83-1.81-1.94Z"/>
            <path class="cls-1" d="M431.19,524.39c0-1.54-.03-2.8-.12-4.03h2.4l.16,2.46h.06c.74-1.41,2.46-2.79,4.92-2.79,2.06,0,5.25,1.23,5.25,6.33v8.88h-2.7v-8.57c0-2.4-.89-4.4-3.44-4.4-1.78,0-3.16,1.26-3.62,2.77-.12.34-.18.8-.18,1.26v8.94h-2.7v-10.84Z"/>
            <path class="cls-1" d="M449.76,528.29c.06,3.66,2.4,5.16,5.1,5.16,1.94,0,3.1-.34,4.12-.77l.46,1.93c-.95.43-2.58.92-4.95.92-4.58,0-7.31-3.01-7.31-7.5s2.64-8.02,6.97-8.02c4.85,0,6.15,4.27,6.15,7.01,0,.55-.06.98-.09,1.26h-10.45ZM457.68,526.35c.03-1.72-.71-4.39-3.75-4.39-2.73,0-3.93,2.52-4.15,4.39h7.9Z"/>
            <path class="cls-1" d="M466.91,516.09v4.27h3.87v2.06h-3.87v8.02c0,1.84.52,2.89,2.03,2.89.71,0,1.23-.09,1.57-.18l.12,2.03c-.52.22-1.35.37-2.4.37-1.26,0-2.27-.4-2.92-1.14-.77-.8-1.05-2.12-1.05-3.87v-8.11h-2.3v-2.06h2.3v-3.57l2.64-.71Z"/>
          </g>
          <g>
            <path class="cls-12" d="M231.15,515.87h24.29c4.35,0,7.62.53,9.81,1.6,2.19,1.07,4,2.59,5.42,4.58,1.42,1.98,2.14,4.4,2.14,7.25,0,5.77-3.13,9.63-9.39,11.56,3.61.82,6.33,2.43,8.13,4.85,1.81,2.42,2.71,5.05,2.71,7.91,0,3.9-1.48,7.27-4.43,10.11-2.95,2.84-7.75,4.26-14.4,4.26h-24.29v-52.13h0ZM243.33,525.07v11.42h9.24c3.39,0,5.52-.67,6.4-2,.88-1.34,1.32-2.62,1.32-3.84,0-1.32-.36-2.46-1.09-3.41-.73-.96-1.52-1.55-2.39-1.8-.86-.24-2.57-.36-5.12-.36h-8.36ZM243.33,545.77v12.57h9.37c3.2,0,5.46-.56,6.78-1.68,1.32-1.12,1.98-2.69,1.98-4.7,0-1.68-.64-3.13-1.91-4.35-1.27-1.22-3.38-1.83-6.32-1.83h-9.91Z"/>
            <path class="cls-12" d="M294.28,515.87v52.13h-12.18v-52.13h12.18ZM288.13,510.29c-1.38,0-2.47-.44-3.28-1.34-.82-.89-1.22-1.91-1.22-3.05s.42-2.21,1.26-3.11c.84-.9,1.92-1.35,3.25-1.35,1.2,0,2.26.39,3.21,1.16.94.78,1.41,1.87,1.41,3.27s-.45,2.42-1.36,3.23c-.9.8-1.99,1.2-3.26,1.2Z"/>
            <path class="cls-12" d="M317.11,557.68h20.73v10.31h-33.11v-52.13h12.37v41.82h0Z"/>
            <path class="cls-12" d="M381.34,525.8h-24.82v10.69h19.51v9.82h-19.51v11.38h24.82v10.31h-37.23v-52.13h37.23v9.93h0Z"/>
            <path class="cls-12" d="M430.72,535.27l-12.79.8c-.18-7.36-3.05-11.04-8.61-11.04-6.38,0-9.57,5.66-9.57,16.99,0,6.54.86,10.98,2.6,13.31,1.73,2.33,4.16,3.49,7.27,3.49,5.05,0,8.14-3.28,9.26-9.85l11.84.73c-.76,6.24-3.09,10.98-6.97,14.23-3.88,3.24-8.64,4.87-14.26,4.87-6.9,0-12.51-2.38-16.82-7.14-4.32-4.76-6.48-11.34-6.48-19.74,0-7.87,2.09-14.31,6.26-19.32,4.18-5.02,9.88-7.53,17.11-7.53,12.53,0,19.58,6.74,21.16,20.2Z"/>
            <path class="cls-12" d="M449.93,515.87v52.13h-12.18v-52.13h12.18ZM443.78,510.29c-1.38,0-2.47-.44-3.28-1.34-.82-.89-1.22-1.91-1.22-3.05s.42-2.21,1.26-3.11c.84-.9,1.92-1.35,3.25-1.35,1.2,0,2.26.39,3.21,1.16.94.78,1.41,1.87,1.41,3.27s-.46,2.42-1.36,3.23c-.91.8-1.99,1.2-3.26,1.2Z"/>
            <path class="cls-12" d="M472.39,515.87v24.49l16.34-24.49h11.69l-12.52,18.61,15.65,33.52h-13.45l-10.4-22.64-7.31,10.68v11.95h-11.99v-52.13h11.99Z"/>
          </g>
          <g>
            <g>
              <polyline class="cls-9" points="511.19 274.49 483.9 267.37 511.89 192.07"/>
              <polyline class="cls-19" points="513.51 274.49 540.81 267.37 512.81 192.07"/>
              <polygon class="cls-9" points="511.19 502.68 497.03 484.64 497.03 284.36 511.19 274.17 511.19 502.68"/>
              <polygon class="cls-19" points="513.51 502.68 527.67 484.64 527.67 284.36 513.51 274.17 513.51 502.68"/>
              <polygon class="cls-7" points="497.03 284.36 511.19 274.17 483.9 267.37 483.9 268.33 497.03 284.36"/>
              <polygon class="cls-2" points="483.9 267.37 484.54 265.66 511.17 273.99 511.17 274.26 483.9 267.37"/>
              <polygon class="cls-7" points="527.68 284.36 513.51 274.17 540.81 267.37 540.81 268.33 527.68 284.36"/>
              <polygon class="cls-16" points="540.81 267.37 540.17 265.66 513.54 273.99 513.54 274.26 540.81 267.37"/>
              <rect class="cls-18" x="511.2" y="192.11" width="2.35" height="310.57"/>
              <polygon class="cls-13" points="497.82 485.44 511.19 502.68 511.19 423.04 508.56 493.29 497.82 485.44"/>
              <path class="cls-20" d="M525.63,479.15s-1.72-76.97-1.72-94.39.86-94.39.86-94.39c0,0,.95,85.36,1.17,94.39.22,9.03-.31,94.38-.31,94.38Z"/>
            </g>
            <g>
              <polyline class="cls-9" points="231.15 274.49 203.85 267.37 231.85 192.07"/>
              <polyline class="cls-19" points="233.47 274.49 260.76 267.37 232.77 192.07"/>
              <polygon class="cls-9" points="231.15 502.68 216.99 484.64 216.99 284.36 231.15 274.17 231.15 502.68"/>
              <polygon class="cls-19" points="233.47 502.68 247.63 484.64 247.63 284.36 233.47 274.17 233.47 502.68"/>
              <polygon class="cls-7" points="216.99 284.36 231.15 274.17 203.85 267.37 203.85 268.33 216.99 284.36"/>
              <polygon class="cls-2" points="203.85 267.37 204.49 265.66 231.13 273.99 231.13 274.26 203.85 267.37"/>
              <polygon class="cls-7" points="247.64 284.36 233.47 274.17 260.77 267.37 260.77 268.33 247.64 284.36"/>
              <polygon class="cls-16" points="260.77 267.37 260.13 265.66 233.5 273.99 233.5 274.26 260.77 267.37"/>
              <rect class="cls-18" x="231.16" y="192.11" width="2.35" height="310.57"/>
              <polygon class="cls-13" points="217.78 485.44 231.15 502.68 231.15 423.04 228.52 493.29 217.78 485.44"/>
              <path class="cls-20" d="M245.59,479.15s-1.72-76.97-1.72-94.39.86-94.39.86-94.39c0,0,.95,85.36,1.17,94.39.21,9.03-.31,94.38-.31,94.38Z"/>
            </g>
            <g>
              <path class="cls-6" d="M425.9,142.08c4.1,9.25,6.4,19.63,6.4,30.59,0,38.9-28.93,70.43-64.63,70.43s-64.63-31.53-64.63-70.43c0-7.8,3.32-19.31,5.47-26.32-5.89,10.54-11.4,22.82-11.4,39.7,0,40.12,32.11,72.64,71.71,72.64s71.71-32.52,71.71-72.64c0-16.53-5.46-31.76-14.64-43.96Z"/>
              <rect class="cls-18" x="366.32" y="265.53" width="3.24" height="235.74"/>
              <path class="cls-13" d="M339.49,298.79l-2.15,3.58,2.15-3.58Z"/>
              <path class="cls-9" d="M299.03,212.37c-1.45-4.07-2.57-8.33-3.23-12.78-2.32-15.62.19-26.36,2.85-33.38,2.5-8.67,6.09-14.48,8.11-17.92-5.75,6.27-21.71,25.96-21.71,55.84,0,36.65,21.73,57.18,29.24,62.67,7.52,5.49,23.52,13.13,30.8,23.76,7.28,10.62,7.76,18.98,7.76,30.2v163.26l13.5,17.29v-235.79s-.22-.02-.63-.08c-31.24-1.06-57.49-22.99-66.7-53.05Z"/>
              <path class="cls-11" d="M347.63,287.77c-4.84-7.47-18.95-16.05-25.82-20.54-6.87-4.48-15.98-13.38-21.55-19.89-5.57-6.51-10.31-14.63-10.31-14.63,0,0,.2.58.23.69,6.89,18.63,18.9,29.71,24.11,33.52,7.52,5.49,23.52,13.13,30.8,23.76,6.31,9.2,7.51,16.7,7.72,25.83.08.67.07,1.25.07,1.25,0,0,.98-6.57.62-11.84-.36-5.28-.26-9.53-5.86-18.15Z"/>
              <path class="cls-19" d="M431.43,150.5c5.91,11.11,9.29,23.92,9.29,37.58,0,41.94-31.78,76-71.25,76.78v236.44l13.5-17.29v-163.26c0-11.22.48-19.58,7.76-30.2,7.28-10.62,23.28-18.26,30.8-23.76,7.52-5.49,29.24-26.02,29.24-62.67,0-26.92-12.63-45.6-19.34-53.62Z"/>
              <path class="cls-5" d="M444.69,183.31c1.75,10.25,1.03,21.89-2.62,33.58-4.66,14.9-13.21,27.05-23.26,34.63,12.15-5.35,22.53-16.81,27.26-31.92,4-12.8,3.18-25.75-1.38-36.3Z"/>
              <polygon class="cls-13" points="352.99 484.05 366.36 501.29 366.36 421.65 363.72 491.9 352.99 484.05"/>
              <g>
                <path class="cls-4" d="M429.26,148.52c4.2,9.25,3.5,20.13,3.5,31.09,0,38.9-29.59,70.43-66.09,70.43s-66.09-31.53-66.09-70.43c0-7.8,3.4-19.31,5.6-26.32-6.02,10.54-11.65,22.82-11.65,39.7,0,40.12,32.83,72.64,73.33,72.64s73.32-32.52,73.32-72.64c0-16.53-2.53-32.26-11.91-44.46Z"/>
                <path class="cls-7" d="M425.9,142.08c4.1,9.25,6.4,19.63,6.4,30.59,0,38.9-28.93,70.43-64.63,70.43s-64.63-31.53-64.63-70.43c0-7.8,3.32-19.31,5.47-26.32-5.89,10.54-11.4,22.82-11.4,39.7,0,40.12,32.11,72.64,71.71,72.64s71.71-32.52,71.71-72.64c0-16.53-5.46-31.76-14.64-43.96Z"/>
                <path class="cls-15" d="M303.74,157.42s-7.69,19.21-.97,44.04c6.72,24.83,18.84,38.99,18.84,38.99,0,0-16.56-13.91-22.2-30.95-5.64-17.04-4.8-27.95-3.6-34.79,1.2-6.84,3.24-13.32,6.48-19.43,3.24-6.12,6.13-8.8,6.13-8.8l-4.68,10.94Z"/>
                <path class="cls-15" d="M432.54,156.95s7.68,19.67.96,44.51c-6.72,24.83-17.98,39.67-17.98,39.67,0,0,15.76-12.48,21.33-31.63,5.02-17.23,4.8-27.95,3.6-34.79-1.2-6.84-3.24-13.32-6.48-19.43-3.24-6.12-5.05-8.85-5.05-8.85l3.62,10.53Z"/>
              </g>
            </g>
          </g>
        </g>
      </g>
      <g>
        <g>
          <polygon class="cls-1" points="491.71 60.83 510 42.86 491.73 60.8 491.71 60.83"/>
          <polygon class="cls-17" points="491.71 60.83 491.73 60.8 510 42.86 496.82 48.18 491.35 61.18 491.71 60.83"/>
          <polygon class="cls-7" points="491.56 61.38 504.55 56.29 510.19 43.08 491.56 61.38 491.56 61.38"/>
          <polygon class="cls-17" points="517.75 61.38 504.38 56.28 504.36 56.29 491.36 61.38 517.75 61.38"/>
          <polygon class="cls-7" points="491.59 61.64 491.62 61.66 504.44 66.69 517.75 61.67 491.59 61.64"/>
          <polygon class="cls-7" points="484.18 58.76 477.89 56.31 465.04 61.38 490.92 61.38 484.18 58.76"/>
          <polygon class="cls-17" points="490.85 61.67 465.05 61.67 478.07 66.69 490.84 61.68 490.85 61.67"/>
          <polygon class="cls-17" points="510.07 79.74 504.48 66.73 491.64 61.65 510.07 79.74"/>
          <polygon class="cls-17" points="491.06 34.99 485.83 48.21 486.09 48.9 491.06 61.07 491.06 34.99"/>
          <polygon class="cls-7" points="491.35 61.18 491.35 61.18 491.35 61.18 496.82 48.18 491.35 35.02 491.35 35.01 491.35 36.82 491.35 61.18 491.35 61.18"/>
          <polygon class="cls-7" points="491.35 61.73 496.98 74.72 496.98 74.74 496.98 74.74 509.86 79.93 491.35 61.72 491.35 61.73"/>
          <polygon class="cls-7" points="491.06 61.06 486.13 48.98 485.81 48.21 472.77 43.11 491.06 61.07 491.06 61.06"/>
          <polygon class="cls-17" points="490.99 61.41 473.18 43.91 472.57 43.31 477.89 56.3 484.22 58.76 490.98 61.4 490.99 61.41"/>
          <polygon class="cls-17" points="491.35 61.75 491.35 87.71 497 74.82 497 74.82 491.35 61.75"/>
          <polygon class="cls-7" points="491.04 61.88 485.78 74.46 485.78 74.46 491.06 87.65 491.06 61.86 491.04 61.88"/>
          <polygon class="cls-17" points="491.04 61.88 477.53 75.16 472.74 79.87 485.78 74.46 485.78 74.46 491.04 61.88"/>
          <polygon class="cls-7" points="478.07 66.69 472.51 79.68 490.84 61.68 478.07 66.69"/>
          <polygon class="cls-14" points="491.67 61.67 517.75 61.67 517.76 61.38 517.71 61.38 491.56 61.38 491.56 61.38 510.11 43.16 510.2 43.07 510 42.86 491.71 60.83 491.35 61.18 491.35 61.18 491.35 61.18 491.35 61.18 491.35 36.82 491.35 35 491.06 35 491.06 35.11 491.06 61.06 491.06 61.07 472.77 43.11 472.76 43.1 472.56 43.3 473.17 43.91 490.97 61.38 490.96 61.38 465.08 61.38 465.04 61.38 465.03 61.66 465.03 61.67 465.05 61.67 490.85 61.67 490.84 61.68 472.51 79.68 472.72 79.88 477.53 75.16 491.04 61.88 491.06 61.87 491.06 87.52 491.06 87.68 491.35 87.68 491.35 87.57 491.35 61.76 491.35 61.75 509.68 79.75 509.86 79.94 510.06 79.73 510.03 79.69 491.69 61.69 491.67 61.67"/>
        </g>
        <g>
          <polygon class="cls-1" points="249.27 63.33 267.56 45.37 249.29 63.31 249.27 63.33"/>
          <polygon class="cls-17" points="249.27 63.33 249.29 63.31 267.56 45.37 254.37 50.68 248.91 63.68 249.27 63.33"/>
          <polygon class="cls-7" points="249.12 63.89 262.11 58.79 267.75 45.59 249.11 63.89 249.12 63.89"/>
          <polygon class="cls-17" points="275.31 63.89 261.94 58.78 261.92 58.79 248.93 63.89 275.31 63.89"/>
          <polygon class="cls-7" points="249.16 64.14 249.18 64.16 262 69.19 275.31 64.18 249.16 64.14"/>
          <polygon class="cls-7" points="241.74 61.26 235.45 58.81 222.6 63.89 248.48 63.89 241.74 61.26"/>
          <polygon class="cls-17" points="248.41 64.18 222.61 64.18 235.63 69.19 248.4 64.18 248.41 64.18"/>
          <polygon class="cls-17" points="267.63 82.25 262.04 69.24 249.2 64.16 267.63 82.25"/>
          <polygon class="cls-17" points="248.62 37.5 243.39 50.72 243.66 51.41 248.62 63.58 248.62 37.5"/>
          <polygon class="cls-7" points="248.91 63.68 248.91 63.68 248.91 63.68 254.37 50.68 248.91 37.52 248.91 37.51 248.91 39.32 248.91 63.69 248.91 63.68"/>
          <polygon class="cls-7" points="248.91 64.23 254.54 77.23 254.54 77.24 254.54 77.25 267.42 82.44 248.91 64.23 248.91 64.23"/>
          <polygon class="cls-7" points="248.62 63.57 243.69 51.49 243.37 50.71 230.33 45.62 248.62 63.57 248.62 63.57"/>
          <polygon class="cls-17" points="248.55 63.91 230.74 46.42 230.13 45.82 235.45 58.81 241.78 61.27 248.55 63.91 248.55 63.91"/>
          <polygon class="cls-17" points="248.91 64.26 248.91 90.22 254.56 77.33 254.56 77.32 248.91 64.26"/>
          <polygon class="cls-7" points="248.6 64.39 243.35 76.96 243.34 76.97 248.62 90.15 248.62 64.37 248.6 64.39"/>
          <polygon class="cls-17" points="248.6 64.39 235.09 77.66 230.3 82.38 243.34 76.97 243.34 76.97 248.6 64.39"/>
          <polygon class="cls-7" points="235.63 69.19 230.07 82.18 248.4 64.18 235.63 69.19"/>
          <polygon class="cls-14" points="249.23 64.18 275.31 64.18 275.32 63.89 275.27 63.89 249.12 63.89 249.11 63.89 267.67 45.67 267.76 45.57 267.56 45.37 249.27 63.33 248.91 63.68 248.91 63.68 248.91 63.68 248.91 63.69 248.91 39.32 248.91 37.51 248.62 37.51 248.62 37.61 248.62 63.57 248.62 63.57 230.33 45.62 230.32 45.6 230.12 45.81 230.74 46.42 248.53 63.89 248.52 63.89 222.64 63.89 222.6 63.89 222.59 64.17 222.59 64.18 222.61 64.18 248.41 64.18 248.4 64.18 230.07 82.18 230.28 82.39 235.09 77.66 248.6 64.39 248.62 64.38 248.62 90.02 248.62 90.19 248.91 90.19 248.91 90.07 248.91 64.27 248.91 64.26 267.24 82.26 267.42 82.44 267.63 82.24 267.59 82.2 249.25 64.2 249.23 64.18"/>
        </g>
        <g>
          <polygon class="cls-1" points="593.89 125.76 612.18 107.8 593.92 125.74 593.89 125.76"/>
          <polygon class="cls-17" points="593.89 125.76 593.92 125.74 612.18 107.8 598.99 113.12 593.53 126.12 593.89 125.76"/>
          <polygon class="cls-7" points="593.74 126.32 606.74 121.22 612.36 108.02 593.73 126.32 593.74 126.32"/>
          <polygon class="cls-17" points="619.93 126.32 606.56 121.21 606.54 121.22 593.55 126.32 619.93 126.32"/>
          <polygon class="cls-7" points="593.78 126.57 593.79 126.6 606.61 131.63 619.93 126.6 593.78 126.57"/>
          <polygon class="cls-7" points="586.36 123.69 580.07 121.24 567.22 126.32 593.1 126.32 586.36 123.69"/>
          <polygon class="cls-17" points="593.03 126.6 567.23 126.6 580.25 131.63 593.02 126.61 593.03 126.6"/>
          <polygon class="cls-17" points="612.25 144.68 606.66 131.67 593.82 126.59 612.25 144.68"/>
          <polygon class="cls-17" points="593.24 99.93 588.01 113.15 588.28 113.84 593.24 126.01 593.24 99.93"/>
          <polygon class="cls-7" points="593.53 126.12 593.53 126.12 593.53 126.12 598.99 113.12 593.53 99.96 593.53 99.95 593.53 101.75 593.53 126.12 593.53 126.12"/>
          <polygon class="cls-7" points="593.53 126.66 599.16 139.66 599.16 139.67 599.16 139.68 612.04 144.87 593.53 126.66 593.53 126.66"/>
          <polygon class="cls-7" points="593.24 126 588.31 113.92 587.99 113.15 574.95 108.05 593.24 126.01 593.24 126"/>
          <polygon class="cls-17" points="593.17 126.34 575.36 108.85 574.75 108.25 580.07 121.24 586.4 123.7 593.17 126.34 593.17 126.34"/>
          <polygon class="cls-17" points="593.53 126.69 593.53 152.65 599.17 139.76 599.18 139.75 593.53 126.69"/>
          <polygon class="cls-7" points="593.23 126.82 587.96 139.39 587.96 139.4 593.24 152.58 593.24 126.8 593.23 126.82"/>
          <polygon class="cls-17" points="593.22 126.82 579.71 140.09 574.92 144.81 587.96 139.4 587.96 139.4 593.22 126.82"/>
          <polygon class="cls-7" points="580.25 131.63 574.69 144.61 593.02 126.61 580.25 131.63"/>
          <polygon class="cls-14" points="593.85 126.6 619.93 126.6 619.94 126.32 619.89 126.32 593.74 126.32 593.73 126.32 612.28 108.1 612.38 108.01 612.18 107.8 593.89 125.76 593.53 126.12 593.53 126.12 593.53 126.12 593.53 126.12 593.53 101.75 593.53 99.94 593.24 99.94 593.24 100.04 593.24 126 593.24 126.01 574.95 108.05 574.94 108.04 574.74 108.24 575.36 108.85 593.15 126.32 593.14 126.32 567.26 126.32 567.22 126.32 567.21 126.6 567.21 126.6 567.23 126.6 593.03 126.6 593.02 126.61 574.69 144.61 574.9 144.82 579.71 140.09 593.22 126.82 593.24 126.81 593.24 152.45 593.24 152.62 593.53 152.62 593.53 152.5 593.53 126.7 593.53 126.69 611.85 144.69 612.04 144.87 612.25 144.67 612.21 144.63 593.87 126.62 593.85 126.6"/>
        </g>
        <g>
          <polygon class="cls-1" points="147.35 134.46 165.64 116.5 147.38 134.44 147.35 134.46"/>
          <polygon class="cls-17" points="147.35 134.46 147.38 134.44 165.64 116.5 152.46 121.81 147 134.82 147.35 134.46"/>
          <polygon class="cls-7" points="147.2 135.02 160.2 129.92 165.83 116.72 147.2 135.02 147.2 135.02"/>
          <polygon class="cls-17" points="173.39 135.02 160.02 129.91 160 129.92 147.01 135.02 173.39 135.02"/>
          <polygon class="cls-7" points="147.24 135.27 147.26 135.29 160.08 140.32 173.4 135.3 147.24 135.27"/>
          <polygon class="cls-7" points="139.82 132.4 133.54 129.94 120.69 135.02 146.56 135.02 139.82 132.4"/>
          <polygon class="cls-17" points="146.5 135.3 120.69 135.3 133.71 140.32 146.49 135.31 146.5 135.3"/>
          <polygon class="cls-17" points="165.72 153.38 160.12 140.37 147.28 135.29 165.72 153.38"/>
          <polygon class="cls-17" points="146.7 108.63 141.47 121.85 141.74 122.54 146.7 134.71 146.7 108.63"/>
          <polygon class="cls-7" points="146.99 134.82 146.99 134.82 147 134.82 152.46 121.81 146.99 108.65 146.99 108.64 146.99 110.45 146.99 134.82 146.99 134.82"/>
          <polygon class="cls-7" points="146.99 135.36 152.63 148.36 152.62 148.37 152.62 148.38 165.5 153.57 146.99 135.35 146.99 135.36"/>
          <polygon class="cls-7" points="146.7 134.69 141.77 122.62 141.45 121.84 128.42 116.75 146.7 134.7 146.7 134.69"/>
          <polygon class="cls-17" points="146.63 135.04 128.83 117.55 128.21 116.95 133.54 129.93 139.86 132.4 146.63 135.04 146.63 135.04"/>
          <polygon class="cls-17" points="146.99 135.39 146.99 161.35 152.64 148.46 152.64 148.45 146.99 135.39"/>
          <polygon class="cls-7" points="146.69 135.52 141.43 148.09 141.43 148.1 146.7 161.28 146.7 135.5 146.69 135.52"/>
          <polygon class="cls-17" points="146.69 135.52 133.17 148.79 128.39 153.51 141.42 148.1 141.43 148.1 146.69 135.52"/>
          <polygon class="cls-7" points="133.71 140.32 128.16 153.31 146.49 135.31 133.71 140.32"/>
          <polygon class="cls-14" points="147.31 135.3 173.4 135.3 173.41 135.02 173.35 135.02 147.2 135.02 147.2 135.02 165.75 116.8 165.84 116.71 165.64 116.5 147.35 134.46 147 134.82 146.99 134.82 146.99 134.82 146.99 134.82 146.99 110.45 146.99 108.64 146.7 108.64 146.7 108.74 146.7 134.69 146.7 134.7 128.42 116.75 128.4 116.74 128.2 116.94 128.82 117.55 146.61 135.02 146.6 135.02 120.72 135.02 120.68 135.02 120.68 135.3 120.68 135.3 120.69 135.3 146.5 135.3 146.49 135.31 128.16 153.31 128.36 153.52 133.17 148.79 146.69 135.52 146.7 135.51 146.7 161.15 146.7 161.32 146.99 161.32 146.99 161.2 146.99 135.4 146.99 135.39 165.32 153.39 165.51 153.57 165.71 153.37 165.67 153.33 147.33 135.32 147.31 135.3"/>
        </g>
        <g>
          <polygon class="cls-1" points="76.09 232.23 94.38 214.27 76.11 232.2 76.09 232.23"/>
          <polygon class="cls-17" points="76.09 232.23 76.11 232.2 94.38 214.27 81.19 219.58 75.73 232.58 76.09 232.23"/>
          <polygon class="cls-7" points="75.94 232.78 88.93 227.69 94.57 214.48 75.93 232.78 75.94 232.78"/>
          <polygon class="cls-17" points="102.13 232.78 88.76 227.68 88.74 227.69 75.75 232.78 102.13 232.78"/>
          <polygon class="cls-7" points="75.98 233.04 76 233.06 88.81 238.09 102.13 233.07 75.98 233.04"/>
          <polygon class="cls-7" points="68.56 230.16 62.27 227.71 49.42 232.78 75.3 232.78 68.56 230.16"/>
          <polygon class="cls-17" points="75.23 233.07 49.43 233.07 62.45 238.09 75.22 233.08 75.23 233.07"/>
          <polygon class="cls-17" points="94.45 251.14 88.86 238.14 76.02 233.05 94.45 251.14"/>
          <polygon class="cls-17" points="75.44 206.39 70.21 219.61 70.48 220.3 75.44 232.47 75.44 206.39"/>
          <polygon class="cls-7" points="75.73 232.58 75.73 232.58 75.73 232.58 81.19 219.58 75.72 206.42 75.72 206.41 75.72 208.22 75.72 232.58 75.73 232.58"/>
          <polygon class="cls-7" points="75.72 233.13 81.36 246.12 81.36 246.14 81.36 246.14 94.24 251.34 75.72 233.12 75.72 233.13"/>
          <polygon class="cls-7" points="75.44 232.46 70.51 220.38 70.19 219.61 57.15 214.51 75.44 232.47 75.44 232.46"/>
          <polygon class="cls-17" points="75.37 232.81 57.56 215.32 56.95 214.71 62.27 227.7 68.6 230.16 75.36 232.8 75.37 232.81"/>
          <polygon class="cls-17" points="75.72 233.15 75.72 259.11 81.37 246.23 81.38 246.22 75.72 233.15"/>
          <polygon class="cls-7" points="75.43 233.28 70.17 245.86 70.16 245.86 75.44 259.05 75.44 233.26 75.43 233.28"/>
          <polygon class="cls-17" points="75.42 233.28 61.91 246.56 57.12 251.27 70.16 245.86 70.16 245.86 75.42 233.28"/>
          <polygon class="cls-7" points="62.45 238.09 56.89 251.08 75.22 233.08 62.45 238.09"/>
          <polygon class="cls-14" points="76.05 233.07 102.13 233.07 102.14 232.78 102.08 232.78 75.94 232.78 75.93 232.78 94.49 214.56 94.58 214.47 94.38 214.27 76.09 232.23 75.73 232.58 75.73 232.58 75.73 232.58 75.72 232.58 75.72 208.22 75.72 206.4 75.44 206.4 75.44 206.51 75.44 232.46 75.44 232.47 57.15 214.51 57.14 214.5 56.94 214.7 57.56 215.31 75.35 232.78 75.33 232.78 49.46 232.78 49.42 232.78 49.41 233.06 49.41 233.07 49.43 233.07 75.23 233.07 75.22 233.08 56.89 251.08 57.1 251.28 61.91 246.56 75.42 233.28 75.44 233.27 75.44 258.92 75.44 259.08 75.72 259.08 75.72 258.97 75.72 233.16 75.72 233.15 94.06 251.15 94.24 251.34 94.44 251.13 94.4 251.09 76.07 233.09 76.05 233.07"/>
        </g>
        <g>
          <polygon class="cls-1" points="46.37 351.83 64.66 333.87 46.39 351.81 46.37 351.83"/>
          <polygon class="cls-17" points="46.37 351.83 46.39 351.81 64.66 333.87 51.47 339.19 46.01 352.19 46.37 351.83"/>
          <polygon class="cls-7" points="46.22 352.39 59.21 347.29 64.84 334.09 46.21 352.39 46.22 352.39"/>
          <polygon class="cls-17" points="72.41 352.39 59.03 347.29 59.01 347.29 46.02 352.39 72.41 352.39"/>
          <polygon class="cls-7" points="46.25 352.65 46.27 352.67 59.09 357.7 72.41 352.68 46.25 352.65"/>
          <polygon class="cls-7" points="38.84 349.77 32.55 347.32 19.7 352.39 45.57 352.39 38.84 349.77"/>
          <polygon class="cls-17" points="45.51 352.68 19.71 352.68 32.73 357.7 45.5 352.69 45.51 352.68"/>
          <polygon class="cls-17" points="64.73 370.75 59.14 357.74 46.3 352.66 64.73 370.75"/>
          <polygon class="cls-17" points="45.71 326 40.48 339.22 40.75 339.92 45.71 352.08 45.71 326"/>
          <polygon class="cls-7" points="46.01 352.19 46.01 352.19 46.01 352.19 51.47 339.19 46 326.03 46 326.02 46 327.83 46 352.19 46.01 352.19"/>
          <polygon class="cls-7" points="46 352.74 51.64 365.73 51.64 365.74 51.64 365.75 64.52 370.94 46 352.73 46 352.74"/>
          <polygon class="cls-7" points="45.71 352.07 40.78 339.99 40.47 339.22 27.43 334.12 45.71 352.08 45.71 352.07"/>
          <polygon class="cls-17" points="45.65 352.42 27.84 334.92 27.23 334.32 32.55 347.31 38.88 349.77 45.64 352.41 45.65 352.42"/>
          <polygon class="cls-17" points="46 352.76 46 378.72 51.65 365.83 51.66 365.83 46 352.76"/>
          <polygon class="cls-7" points="45.7 352.89 40.44 365.47 40.44 365.47 45.72 378.65 45.72 352.87 45.7 352.89"/>
          <polygon class="cls-17" points="45.7 352.89 32.18 366.17 27.4 370.88 40.44 365.47 40.44 365.47 45.7 352.89"/>
          <polygon class="cls-7" points="32.73 357.7 27.17 370.69 45.5 352.69 32.73 357.7"/>
          <polygon class="cls-14" points="46.33 352.68 72.41 352.68 72.42 352.39 72.36 352.39 46.22 352.39 46.21 352.39 64.76 334.17 64.86 334.08 64.66 333.87 46.37 351.83 46.01 352.19 46.01 352.19 46.01 352.19 46 352.19 46 327.83 46 326.01 45.71 326.01 45.71 326.12 45.71 352.07 45.71 352.08 27.43 334.12 27.42 334.11 27.21 334.31 27.83 334.92 45.62 352.39 45.61 352.39 19.74 352.39 19.7 352.39 19.69 352.67 19.69 352.68 19.71 352.68 45.51 352.68 45.5 352.69 27.17 370.69 27.37 370.89 32.18 366.17 45.7 352.89 45.71 352.88 45.71 378.52 45.71 378.69 46 378.69 46 378.58 46 352.77 46 352.76 64.33 370.76 64.52 370.95 64.72 370.74 64.68 370.7 46.35 352.7 46.33 352.68"/>
        </g>
        <g>
          <polygon class="cls-1" points="58.18 462.13 76.47 444.17 58.21 462.11 58.18 462.13"/>
          <polygon class="cls-17" points="58.18 462.13 58.21 462.11 76.47 444.17 63.29 449.48 57.83 462.48 58.18 462.13"/>
          <polygon class="cls-7" points="58.03 462.69 71.03 457.59 76.66 444.39 58.03 462.69 58.03 462.69"/>
          <polygon class="cls-17" points="84.23 462.69 70.85 457.58 70.83 457.59 57.84 462.69 84.23 462.69"/>
          <polygon class="cls-7" points="58.07 462.95 58.09 462.96 70.91 467.99 84.23 462.97 58.07 462.95"/>
          <polygon class="cls-7" points="50.65 460.07 44.37 457.62 31.52 462.69 57.39 462.69 50.65 460.07"/>
          <polygon class="cls-17" points="57.33 462.97 31.52 462.97 44.55 467.99 57.32 462.98 57.33 462.97"/>
          <polygon class="cls-17" points="76.55 481.05 70.95 468.04 58.11 462.96 76.55 481.05"/>
          <polygon class="cls-17" points="57.53 436.3 52.3 449.52 52.57 450.21 57.53 462.38 57.53 436.3"/>
          <polygon class="cls-7" points="57.82 462.48 57.82 462.48 57.83 462.48 63.29 449.48 57.82 436.33 57.82 436.32 57.82 438.12 57.82 462.49 57.82 462.48"/>
          <polygon class="cls-7" points="57.82 463.03 63.46 476.03 63.45 476.04 63.46 476.05 76.33 481.24 57.82 463.03 57.82 463.03"/>
          <polygon class="cls-7" points="57.53 462.36 52.6 450.29 52.29 449.52 39.25 444.42 57.53 462.38 57.53 462.36"/>
          <polygon class="cls-17" points="57.46 462.72 39.66 445.22 39.04 444.62 44.37 457.61 50.7 460.07 57.46 462.71 57.46 462.72"/>
          <polygon class="cls-17" points="57.82 463.06 57.82 489.02 63.47 476.13 63.47 476.13 57.82 463.06"/>
          <polygon class="cls-7" points="57.52 463.19 52.26 475.76 52.26 475.77 57.53 488.95 57.53 463.17 57.52 463.19"/>
          <polygon class="cls-17" points="57.52 463.19 44 476.46 39.22 481.18 52.25 475.77 52.26 475.77 57.52 463.19"/>
          <polygon class="cls-7" points="44.55 467.99 38.99 480.98 57.32 462.98 44.55 467.99"/>
          <polygon class="cls-14" points="58.14 462.97 84.23 462.97 84.24 462.69 84.18 462.69 58.03 462.69 58.03 462.69 76.58 444.47 76.67 444.38 76.47 444.17 58.18 462.13 57.83 462.48 57.82 462.48 57.82 462.48 57.82 462.49 57.82 438.12 57.82 436.31 57.53 436.31 57.53 436.42 57.53 462.36 57.53 462.38 39.25 444.42 39.23 444.41 39.03 444.61 39.65 445.22 57.44 462.69 57.43 462.69 31.56 462.69 31.51 462.69 31.51 462.97 31.51 462.97 31.52 462.97 57.33 462.97 57.32 462.98 38.99 480.98 39.19 481.19 44 476.46 57.52 463.19 57.53 463.18 57.53 488.83 57.53 488.99 57.82 488.99 57.82 488.88 57.82 463.07 57.82 463.06 76.15 481.06 76.34 481.24 76.54 481.04 76.5 481 58.16 462.99 58.14 462.97"/>
        </g>
        <g>
          <polygon class="cls-1" points="109.03 566.7 127.33 548.74 109.06 566.68 109.03 566.7"/>
          <polygon class="cls-17" points="109.03 566.7 109.06 566.68 127.33 548.74 114.14 554.05 108.68 567.06 109.03 566.7"/>
          <polygon class="cls-7" points="108.89 567.26 121.88 562.16 127.51 548.95 108.88 567.26 108.89 567.26"/>
          <polygon class="cls-17" points="135.08 567.26 121.7 562.15 121.68 562.16 108.69 567.26 135.08 567.26"/>
          <polygon class="cls-7" points="108.92 567.51 108.94 567.53 121.76 572.56 135.08 567.54 108.92 567.51"/>
          <polygon class="cls-7" points="101.51 564.63 95.22 562.18 82.37 567.26 108.24 567.26 101.51 564.63"/>
          <polygon class="cls-17" points="108.18 567.54 82.37 567.54 95.4 572.56 108.17 567.55 108.18 567.54"/>
          <polygon class="cls-17" points="127.4 585.62 121.81 572.61 108.97 567.53 127.4 585.62"/>
          <polygon class="cls-17" points="108.38 540.87 103.15 554.09 103.42 554.78 108.38 566.95 108.38 540.87"/>
          <polygon class="cls-7" points="108.67 567.06 108.67 567.06 108.68 567.06 114.14 554.05 108.67 540.89 108.67 540.88 108.67 542.69 108.67 567.06 108.67 567.06"/>
          <polygon class="cls-7" points="108.67 567.6 114.31 580.6 114.31 580.61 114.31 580.62 127.19 585.81 108.67 567.59 108.67 567.6"/>
          <polygon class="cls-7" points="108.38 566.93 103.45 554.86 103.14 554.08 90.1 548.99 108.38 566.94 108.38 566.93"/>
          <polygon class="cls-17" points="108.32 567.28 90.51 549.79 89.89 549.19 95.22 562.17 101.55 564.64 108.31 567.28 108.32 567.28"/>
          <polygon class="cls-17" points="108.67 567.63 108.67 593.59 114.32 580.7 114.33 580.69 108.67 567.63"/>
          <polygon class="cls-7" points="108.37 567.76 103.11 580.33 103.11 580.33 108.39 593.52 108.39 567.74 108.37 567.76"/>
          <polygon class="cls-17" points="108.37 567.76 94.85 581.03 90.07 585.74 103.11 580.34 103.11 580.34 108.37 567.76"/>
          <polygon class="cls-7" points="95.4 572.56 89.84 585.55 108.17 567.55 95.4 572.56"/>
          <polygon class="cls-14" points="109 567.54 135.08 567.54 135.09 567.26 135.03 567.26 108.89 567.26 108.88 567.26 127.43 549.04 127.52 548.94 127.33 548.74 109.03 566.7 108.68 567.06 108.67 567.06 108.67 567.06 108.67 567.06 108.67 542.69 108.67 540.88 108.38 540.88 108.38 540.98 108.38 566.93 108.38 566.94 90.1 548.99 90.09 548.97 89.88 549.18 90.5 549.78 108.29 567.26 108.28 567.26 82.41 567.26 82.37 567.26 82.36 567.54 82.36 567.54 82.37 567.54 108.18 567.54 108.17 567.55 89.84 585.55 90.04 585.76 94.85 581.03 108.37 567.76 108.38 567.74 108.38 593.39 108.38 593.56 108.67 593.56 108.67 593.44 108.67 567.64 108.67 567.63 127 585.63 127.19 585.81 127.39 585.61 127.35 585.57 109.01 567.56 109 567.54"/>
        </g>
        <g>
          <polygon class="cls-1" points="192.05 646.4 210.34 628.44 192.08 646.38 192.05 646.4"/>
          <polygon class="cls-17" points="192.05 646.4 192.08 646.38 210.34 628.44 197.15 633.76 191.69 646.75 192.05 646.4"/>
          <polygon class="cls-7" points="191.9 646.96 204.89 641.86 210.53 628.66 191.9 646.96 191.9 646.96"/>
          <polygon class="cls-17" points="218.09 646.96 204.72 641.85 204.7 641.86 191.7 646.96 218.09 646.96"/>
          <polygon class="cls-7" points="191.94 647.21 191.96 647.23 204.77 652.26 218.1 647.24 191.94 647.21"/>
          <polygon class="cls-7" points="184.52 644.33 178.23 641.88 165.38 646.96 191.26 646.96 184.52 644.33"/>
          <polygon class="cls-17" points="191.19 647.24 165.39 647.24 178.41 652.26 191.19 647.26 191.19 647.24"/>
          <polygon class="cls-17" points="210.41 665.32 204.82 652.31 191.98 647.23 210.41 665.32"/>
          <polygon class="cls-17" points="191.4 620.57 186.17 633.79 186.44 634.48 191.4 646.65 191.4 620.57"/>
          <polygon class="cls-7" points="191.69 646.76 191.69 646.75 191.69 646.75 197.15 633.76 191.69 620.59 191.69 620.58 191.69 622.39 191.69 646.76 191.69 646.76"/>
          <polygon class="cls-7" points="191.69 647.3 197.32 660.3 197.32 660.31 197.32 660.32 210.2 665.51 191.69 647.29 191.69 647.3"/>
          <polygon class="cls-7" points="191.4 646.64 186.47 634.56 186.15 633.78 173.11 628.69 191.4 646.65 191.4 646.64"/>
          <polygon class="cls-17" points="191.33 646.98 173.52 629.49 172.91 628.89 178.23 641.87 184.56 644.34 191.33 646.98 191.33 646.98"/>
          <polygon class="cls-17" points="191.69 647.33 191.69 673.29 197.34 660.4 197.34 660.39 191.69 647.33"/>
          <polygon class="cls-7" points="191.39 647.46 186.13 660.03 186.12 660.03 191.4 673.22 191.4 647.44 191.39 647.46"/>
          <polygon class="cls-17" points="191.38 647.46 177.87 660.73 173.08 665.44 186.12 660.03 186.12 660.03 191.38 647.46"/>
          <polygon class="cls-7" points="178.41 652.26 172.86 665.26 191.19 647.26 178.41 652.26"/>
          <polygon class="cls-14" points="192.01 647.24 218.1 647.24 218.1 646.96 218.05 646.96 191.9 646.96 191.9 646.96 210.45 628.74 210.54 628.64 210.34 628.44 192.05 646.4 191.69 646.75 191.69 646.75 191.69 646.76 191.69 646.76 191.69 622.39 191.69 620.58 191.4 620.58 191.4 620.68 191.4 646.64 191.4 646.65 173.11 628.69 173.1 628.67 172.9 628.88 173.52 629.49 191.31 646.96 191.3 646.96 165.42 646.96 165.38 646.96 165.37 647.24 165.37 647.24 165.39 647.24 191.19 647.24 191.19 647.26 172.86 665.26 173.06 665.45 177.87 660.73 191.38 647.46 191.4 647.45 191.4 673.09 191.4 673.26 191.69 673.26 191.69 673.14 191.69 647.34 191.69 647.33 210.02 665.33 210.2 665.51 210.41 665.31 210.37 665.27 192.03 647.26 192.01 647.24"/>
        </g>
        <g>
          <polygon class="cls-1" points="307.36 693.31 325.65 675.35 307.39 693.29 307.36 693.31"/>
          <polygon class="cls-17" points="307.36 693.31 307.39 693.29 325.65 675.35 312.47 680.67 307 693.66 307.36 693.31"/>
          <polygon class="cls-7" points="307.21 693.87 320.21 688.77 325.84 675.57 307.21 693.87 307.21 693.87"/>
          <polygon class="cls-17" points="333.41 693.87 320.03 688.77 320.01 688.77 307.02 693.87 333.41 693.87"/>
          <polygon class="cls-7" points="307.25 694.12 307.27 694.14 320.09 699.18 333.41 694.15 307.25 694.12"/>
          <polygon class="cls-7" points="299.83 691.25 293.54 688.79 280.69 693.87 306.57 693.87 299.83 691.25"/>
          <polygon class="cls-17" points="306.5 694.15 280.7 694.15 293.72 699.18 306.5 694.17 306.5 694.15"/>
          <polygon class="cls-17" points="325.72 712.23 320.13 699.22 307.29 694.14 325.72 712.23"/>
          <polygon class="cls-17" points="306.71 667.48 301.48 680.7 301.75 681.39 306.71 693.56 306.71 667.48"/>
          <polygon class="cls-7" points="307 693.67 307 693.66 307 693.66 312.47 680.67 307 667.51 307 667.5 307 669.3 307 693.67 307 693.67"/>
          <polygon class="cls-7" points="307 694.21 312.64 707.21 312.63 707.22 312.63 707.23 325.51 712.42 307 694.2 307 694.21"/>
          <polygon class="cls-7" points="306.71 693.55 301.78 681.47 301.46 680.7 288.42 675.6 306.71 693.56 306.71 693.55"/>
          <polygon class="cls-17" points="306.64 693.89 288.83 676.41 288.22 675.8 293.54 688.78 299.88 691.25 306.64 693.89 306.64 693.89"/>
          <polygon class="cls-17" points="307 694.24 307 720.2 312.65 707.31 312.65 707.3 307 694.24"/>
          <polygon class="cls-7" points="306.7 694.37 301.44 706.94 301.44 706.95 306.71 720.13 306.71 694.35 306.7 694.37"/>
          <polygon class="cls-17" points="306.69 694.37 293.18 707.64 288.39 712.36 301.43 706.95 301.44 706.95 306.69 694.37"/>
          <polygon class="cls-7" points="293.72 699.18 288.17 712.17 306.5 694.17 293.72 699.18"/>
          <polygon class="cls-14" points="307.32 694.15 333.41 694.15 333.41 693.87 333.36 693.87 307.21 693.87 307.21 693.87 325.76 675.65 325.85 675.55 325.65 675.35 307.36 693.31 307 693.66 307 693.66 307 693.67 307 693.67 307 669.3 307 667.49 306.71 667.49 306.71 667.6 306.71 693.55 306.71 693.56 288.42 675.6 288.41 675.59 288.21 675.79 288.83 676.4 306.62 693.87 306.61 693.87 280.73 693.87 280.69 693.87 280.69 694.15 280.69 694.15 280.7 694.15 306.5 694.15 306.5 694.17 288.17 712.17 288.37 712.37 293.18 707.64 306.69 694.37 306.71 694.36 306.71 720 306.71 720.17 307 720.17 307 720.06 307 694.25 307 694.24 325.33 712.24 325.51 712.42 325.72 712.22 325.68 712.18 307.34 694.17 307.32 694.15"/>
        </g>
        <g>
          <polygon class="cls-1" points="674.82 233.44 693.11 215.47 674.85 233.41 674.82 233.44"/>
          <polygon class="cls-17" points="674.82 233.44 674.85 233.41 693.11 215.47 679.93 220.79 674.47 233.79 674.82 233.44"/>
          <polygon class="cls-7" points="674.68 233.99 687.67 228.89 693.3 215.69 674.67 233.99 674.68 233.99"/>
          <polygon class="cls-17" points="700.87 233.99 687.49 228.89 687.47 228.89 674.48 233.99 700.87 233.99"/>
          <polygon class="cls-7" points="674.71 234.25 674.73 234.27 687.55 239.3 700.87 234.28 674.71 234.25"/>
          <polygon class="cls-7" points="667.29 231.37 661.01 228.92 648.16 233.99 674.03 233.99 667.29 231.37"/>
          <polygon class="cls-17" points="673.96 234.28 648.16 234.28 661.19 239.3 673.96 234.29 673.96 234.28"/>
          <polygon class="cls-17" points="693.19 252.35 687.59 239.34 674.75 234.27 693.19 252.35"/>
          <polygon class="cls-17" points="674.17 207.6 668.94 220.82 669.21 221.51 674.17 233.68 674.17 207.6"/>
          <polygon class="cls-7" points="674.46 233.79 674.46 233.79 674.47 233.79 679.93 220.79 674.46 207.63 674.46 207.62 674.46 209.42 674.46 233.79 674.46 233.79"/>
          <polygon class="cls-7" points="674.46 234.34 680.1 247.33 680.09 247.35 680.09 247.35 692.97 252.54 674.46 234.33 674.46 234.34"/>
          <polygon class="cls-7" points="674.17 233.67 669.24 221.59 668.93 220.82 655.88 215.72 674.17 233.68 674.17 233.67"/>
          <polygon class="cls-17" points="674.11 234.02 656.3 216.52 655.68 215.92 661.01 228.91 667.34 231.37 674.1 234.01 674.11 234.02"/>
          <polygon class="cls-17" points="674.46 234.36 674.46 260.32 680.11 247.44 680.11 247.43 674.46 234.36"/>
          <polygon class="cls-7" points="674.16 234.49 668.9 247.07 668.9 247.07 674.17 260.26 674.17 234.48 674.16 234.49"/>
          <polygon class="cls-17" points="674.16 234.49 660.64 247.77 655.86 252.48 668.89 247.07 668.9 247.07 674.16 234.49"/>
          <polygon class="cls-7" points="661.19 239.3 655.63 252.29 673.96 234.29 661.19 239.3"/>
          <polygon class="cls-14" points="674.78 234.28 700.87 234.28 700.88 233.99 700.82 233.99 674.68 233.99 674.67 233.99 693.22 215.77 693.31 215.68 693.11 215.47 674.82 233.44 674.47 233.79 674.46 233.79 674.46 233.79 674.46 233.79 674.46 209.42 674.46 207.61 674.17 207.61 674.17 207.72 674.17 233.67 674.17 233.68 655.88 215.72 655.87 215.71 655.67 215.91 656.29 216.52 674.08 233.99 674.07 233.99 648.19 233.99 648.16 233.99 648.15 234.27 648.15 234.28 648.16 234.28 673.96 234.28 673.96 234.29 655.63 252.29 655.83 252.49 660.64 247.77 674.16 234.49 674.17 234.48 674.17 260.13 674.17 260.29 674.46 260.29 674.46 260.18 674.46 234.37 674.46 234.36 692.79 252.36 692.97 252.55 693.18 252.34 693.14 252.3 674.8 234.3 674.78 234.28"/>
        </g>
        <g>
          <polygon class="cls-1" points="702.4 351.25 720.69 333.29 702.42 351.23 702.4 351.25"/>
          <polygon class="cls-17" points="702.4 351.25 702.42 351.23 720.69 333.29 707.5 338.61 702.04 351.61 702.4 351.25"/>
          <polygon class="cls-7" points="702.25 351.81 715.24 346.71 720.87 333.51 702.24 351.81 702.25 351.81"/>
          <polygon class="cls-17" points="728.44 351.81 715.07 346.71 715.04 346.71 702.05 351.81 728.44 351.81"/>
          <polygon class="cls-7" points="702.28 352.07 702.3 352.08 715.12 357.12 728.44 352.1 702.28 352.07"/>
          <polygon class="cls-7" points="694.87 349.19 688.58 346.73 675.73 351.81 701.6 351.81 694.87 349.19"/>
          <polygon class="cls-17" points="701.54 352.1 675.74 352.1 688.76 357.12 701.53 352.11 701.54 352.1"/>
          <polygon class="cls-17" points="720.76 370.17 715.17 357.16 702.33 352.08 720.76 370.17"/>
          <polygon class="cls-17" points="701.75 325.42 696.52 338.64 696.79 339.33 701.75 351.5 701.75 325.42"/>
          <polygon class="cls-7" points="702.04 351.61 702.04 351.61 702.04 351.61 707.5 338.61 702.03 325.45 702.03 325.43 702.03 327.24 702.03 351.61 702.04 351.61"/>
          <polygon class="cls-7" points="702.03 352.15 707.67 365.15 707.67 365.16 707.67 365.17 720.55 370.36 702.03 352.15 702.03 352.15"/>
          <polygon class="cls-7" points="701.75 351.49 696.82 339.41 696.5 338.64 683.46 333.54 701.75 351.49 701.75 351.49"/>
          <polygon class="cls-17" points="701.68 351.83 683.87 334.34 683.26 333.74 688.58 346.73 694.91 349.19 701.67 351.83 701.68 351.83"/>
          <polygon class="cls-17" points="702.03 352.18 702.03 378.14 707.68 365.26 707.69 365.24 702.03 352.18"/>
          <polygon class="cls-7" points="701.73 352.31 696.47 364.88 696.47 364.89 701.75 378.08 701.75 352.29 701.73 352.31"/>
          <polygon class="cls-17" points="701.73 352.31 688.21 365.58 683.43 370.3 696.46 364.89 696.47 364.89 701.73 352.31"/>
          <polygon class="cls-7" points="688.76 357.12 683.2 370.11 701.53 352.11 688.76 357.12"/>
          <polygon class="cls-14" points="702.35 352.1 728.44 352.1 728.45 351.81 728.39 351.81 702.25 351.81 702.24 351.81 720.79 333.59 720.89 333.49 720.69 333.29 702.4 351.25 702.04 351.61 702.04 351.61 702.04 351.61 702.03 351.61 702.03 327.24 702.03 325.43 701.75 325.43 701.75 325.54 701.75 351.49 701.75 351.49 683.46 333.54 683.45 333.53 683.24 333.73 683.86 334.34 701.65 351.81 701.64 351.81 675.77 351.81 675.73 351.81 675.72 352.09 675.72 352.1 675.74 352.1 701.54 352.1 701.53 352.11 683.2 370.11 683.4 370.31 688.21 365.58 701.73 352.31 701.75 352.3 701.75 377.94 701.75 378.11 702.03 378.11 702.03 378 702.03 352.19 702.03 352.18 720.36 370.18 720.55 370.36 720.75 370.16 720.71 370.12 702.38 352.12 702.35 352.1"/>
        </g>
        <g>
          <polygon class="cls-1" points="691.3 461.55 709.59 443.59 691.32 461.53 691.3 461.55"/>
          <polygon class="cls-17" points="691.3 461.55 691.32 461.53 709.59 443.59 696.4 448.91 690.94 461.9 691.3 461.55"/>
          <polygon class="cls-7" points="691.15 462.1 704.14 457.01 709.77 443.81 691.14 462.1 691.15 462.1"/>
          <polygon class="cls-17" points="717.34 462.1 703.96 457 703.94 457.01 690.95 462.1 717.34 462.1"/>
          <polygon class="cls-7" points="691.18 462.36 691.2 462.38 704.02 467.41 717.34 462.39 691.18 462.36"/>
          <polygon class="cls-7" points="683.77 459.48 677.48 457.03 664.63 462.1 690.51 462.1 683.77 459.48"/>
          <polygon class="cls-17" points="690.44 462.39 664.63 462.39 677.66 467.41 690.43 462.41 690.44 462.39"/>
          <polygon class="cls-17" points="709.66 480.47 704.06 467.46 691.23 462.38 709.66 480.47"/>
          <polygon class="cls-17" points="690.64 435.72 685.41 448.94 685.69 449.63 690.64 461.8 690.64 435.72"/>
          <polygon class="cls-7" points="690.94 461.91 690.94 461.9 690.94 461.9 696.4 448.91 690.93 435.74 690.93 435.73 690.93 437.54 690.93 461.91 690.94 461.91"/>
          <polygon class="cls-7" points="690.93 462.45 696.57 475.45 696.57 475.46 696.57 475.47 709.45 480.66 690.93 462.44 690.93 462.45"/>
          <polygon class="cls-7" points="690.64 461.79 685.71 449.71 685.4 448.93 672.36 443.84 690.64 461.79 690.64 461.79"/>
          <polygon class="cls-17" points="690.58 462.13 672.77 444.64 672.16 444.04 677.48 457.02 683.81 459.49 690.57 462.13 690.58 462.13"/>
          <polygon class="cls-17" points="690.93 462.48 690.93 488.44 696.58 475.55 696.59 475.54 690.93 462.48"/>
          <polygon class="cls-7" points="690.63 462.61 685.37 475.18 685.37 475.18 690.65 488.37 690.65 462.59 690.63 462.61"/>
          <polygon class="cls-17" points="690.63 462.61 677.12 475.88 672.33 480.59 685.36 475.19 685.37 475.19 690.63 462.61"/>
          <polygon class="cls-7" points="677.66 467.41 672.1 480.41 690.43 462.41 677.66 467.41"/>
          <polygon class="cls-14" points="691.26 462.39 717.34 462.39 717.35 462.1 717.29 462.1 691.15 462.1 691.14 462.1 709.69 443.89 709.78 443.79 709.59 443.59 691.3 461.55 690.94 461.9 690.94 461.9 690.94 461.91 690.93 461.91 690.93 437.54 690.93 435.73 690.64 435.73 690.64 435.83 690.64 461.79 690.64 461.79 672.36 443.84 672.34 443.83 672.14 444.03 672.76 444.64 690.55 462.1 690.54 462.1 664.67 462.1 664.63 462.1 664.62 462.39 664.62 462.39 664.63 462.39 690.44 462.39 690.43 462.41 672.1 480.41 672.3 480.61 677.12 475.88 690.63 462.61 690.64 462.59 690.64 488.24 690.64 488.41 690.93 488.41 690.93 488.29 690.93 462.48 690.93 462.48 709.26 480.48 709.45 480.66 709.65 480.46 709.61 480.42 691.28 462.41 691.26 462.39"/>
        </g>
        <g>
          <polygon class="cls-1" points="636.86 569.34 655.15 551.38 636.89 569.32 636.86 569.34"/>
          <polygon class="cls-17" points="636.86 569.34 636.89 569.32 655.15 551.38 641.97 556.7 636.5 569.7 636.86 569.34"/>
          <polygon class="cls-7" points="636.71 569.9 649.71 564.8 655.34 551.6 636.71 569.9 636.71 569.9"/>
          <polygon class="cls-17" points="662.9 569.9 649.53 564.8 649.51 564.8 636.52 569.9 662.9 569.9"/>
          <polygon class="cls-7" points="636.75 570.15 636.77 570.17 649.59 575.21 662.91 570.19 636.75 570.15"/>
          <polygon class="cls-7" points="629.33 567.27 623.05 564.82 610.2 569.9 636.07 569.9 629.33 567.27"/>
          <polygon class="cls-17" points="636 570.19 610.2 570.19 623.22 575.21 636 570.2 636 570.19"/>
          <polygon class="cls-17" points="655.23 588.26 649.63 575.25 636.79 570.17 655.23 588.26"/>
          <polygon class="cls-17" points="636.21 543.51 630.98 556.73 631.25 557.42 636.21 569.59 636.21 543.51"/>
          <polygon class="cls-7" points="636.5 569.7 636.5 569.7 636.5 569.7 641.97 556.7 636.5 543.54 636.5 543.53 636.5 545.33 636.5 569.7 636.5 569.7"/>
          <polygon class="cls-7" points="636.5 570.24 642.14 583.25 642.13 583.25 642.13 583.26 655.01 588.45 636.5 570.24 636.5 570.24"/>
          <polygon class="cls-7" points="636.21 569.58 631.28 557.5 630.96 556.72 617.92 551.63 636.21 569.59 636.21 569.58"/>
          <polygon class="cls-17" points="636.14 569.92 618.34 552.43 617.72 551.83 623.05 564.81 629.38 567.28 636.14 569.92 636.14 569.92"/>
          <polygon class="cls-17" points="636.5 570.27 636.5 596.23 642.15 583.35 642.15 583.33 636.5 570.27"/>
          <polygon class="cls-7" points="636.2 570.4 630.94 582.97 630.94 582.98 636.21 596.16 636.21 570.38 636.2 570.4"/>
          <polygon class="cls-17" points="636.19 570.4 622.68 583.67 617.9 588.39 630.93 582.98 630.94 582.98 636.19 570.4"/>
          <polygon class="cls-7" points="623.22 575.21 617.67 588.2 636 570.2 623.22 575.21"/>
          <polygon class="cls-14" points="636.82 570.19 662.91 570.19 662.92 569.9 662.86 569.9 636.71 569.9 636.71 569.9 655.26 551.68 655.35 551.59 655.15 551.38 636.86 569.34 636.5 569.7 636.5 569.7 636.5 569.7 636.5 569.7 636.5 545.33 636.5 543.52 636.21 543.52 636.21 543.62 636.21 569.58 636.21 569.59 617.92 551.63 617.91 551.62 617.71 551.82 618.33 552.43 636.12 569.9 636.11 569.9 610.23 569.9 610.2 569.9 610.19 570.18 610.19 570.19 610.2 570.19 636 570.19 636 570.2 617.67 588.2 617.87 588.4 622.68 583.67 636.19 570.4 636.21 570.39 636.21 596.03 636.21 596.2 636.5 596.2 636.5 596.09 636.5 570.28 636.5 570.27 654.83 588.27 655.02 588.46 655.22 588.25 655.18 588.21 636.84 570.2 636.82 570.19"/>
        </g>
        <g>
          <polygon class="cls-1" points="552.35 651.71 570.64 633.74 552.37 651.68 552.35 651.71"/>
          <polygon class="cls-17" points="552.35 651.71 552.37 651.68 570.64 633.74 557.45 639.06 551.99 652.06 552.35 651.71"/>
          <polygon class="cls-7" points="552.2 652.26 565.19 647.17 570.83 633.97 552.19 652.26 552.2 652.26"/>
          <polygon class="cls-17" points="578.39 652.26 565.02 647.16 565 647.17 552 652.26 578.39 652.26"/>
          <polygon class="cls-7" points="552.23 652.52 552.25 652.54 565.07 657.57 578.39 652.55 552.23 652.52"/>
          <polygon class="cls-7" points="544.82 649.64 538.53 647.19 525.68 652.26 551.56 652.26 544.82 649.64"/>
          <polygon class="cls-17" points="551.49 652.55 525.69 652.55 538.71 657.57 551.48 652.56 551.49 652.55"/>
          <polygon class="cls-17" points="570.71 670.62 565.12 657.62 552.28 652.54 570.71 670.62"/>
          <polygon class="cls-17" points="551.7 625.88 546.46 639.1 546.74 639.79 551.7 651.95 551.7 625.88"/>
          <polygon class="cls-7" points="551.99 652.06 551.99 652.06 551.99 652.06 557.45 639.06 551.99 625.9 551.99 625.89 551.99 627.7 551.99 652.07 551.99 652.06"/>
          <polygon class="cls-7" points="551.99 652.61 557.62 665.61 557.62 665.62 557.62 665.62 570.5 670.82 551.99 652.6 551.99 652.61"/>
          <polygon class="cls-7" points="551.7 651.94 546.77 639.87 546.45 639.09 533.41 633.99 551.7 651.95 551.7 651.94"/>
          <polygon class="cls-17" points="551.63 652.29 533.82 634.8 533.21 634.2 538.53 647.18 544.86 649.65 551.63 652.28 551.63 652.29"/>
          <polygon class="cls-17" points="551.99 652.64 551.99 678.59 557.64 665.71 557.64 665.7 551.99 652.64"/>
          <polygon class="cls-7" points="551.69 652.76 546.42 665.34 546.42 665.34 551.7 678.53 551.7 652.75 551.69 652.76"/>
          <polygon class="cls-17" points="551.68 652.77 538.17 666.04 533.38 670.75 546.42 665.34 546.42 665.34 551.68 652.77"/>
          <polygon class="cls-7" points="538.71 657.57 533.15 670.56 551.48 652.56 538.71 657.57"/>
          <polygon class="cls-14" points="552.31 652.55 578.39 652.55 578.4 652.26 578.35 652.26 552.2 652.26 552.19 652.26 570.75 634.04 570.84 633.95 570.64 633.74 552.35 651.71 551.99 652.06 551.99 652.06 551.99 652.06 551.99 652.07 551.99 627.7 551.99 625.89 551.7 625.89 551.7 625.99 551.7 651.94 551.7 651.95 533.41 633.99 533.4 633.98 533.2 634.18 533.82 634.79 551.61 652.26 551.59 652.26 525.72 652.26 525.68 652.26 525.67 652.54 525.67 652.55 525.69 652.55 551.49 652.55 551.48 652.56 533.15 670.56 533.35 670.76 538.17 666.04 551.68 652.77 551.7 652.75 551.7 678.4 551.7 678.56 551.99 678.56 551.99 678.45 551.99 652.64 551.99 652.63 570.31 670.63 570.5 670.82 570.71 670.62 570.67 670.58 552.33 652.57 552.31 652.55"/>
        </g>
        <g>
          <polygon class="cls-1" points="429.88 696.47 448.17 678.51 429.9 696.45 429.88 696.47"/>
          <polygon class="cls-17" points="429.88 696.47 429.9 696.45 448.17 678.51 434.98 683.83 429.52 696.82 429.88 696.47"/>
          <polygon class="cls-7" points="429.73 697.03 442.72 691.93 448.35 678.73 429.72 697.03 429.73 697.03"/>
          <polygon class="cls-17" points="455.92 697.03 442.54 691.92 442.52 691.93 429.53 697.03 455.92 697.03"/>
          <polygon class="cls-7" points="429.76 697.28 429.78 697.3 442.6 702.34 455.92 697.31 429.76 697.28"/>
          <polygon class="cls-7" points="422.34 694.4 416.06 691.95 403.21 697.03 429.08 697.03 422.34 694.4"/>
          <polygon class="cls-17" points="429.02 697.31 403.21 697.31 416.24 702.34 429.01 697.33 429.02 697.31"/>
          <polygon class="cls-17" points="448.24 715.39 442.64 702.38 429.81 697.3 448.24 715.39"/>
          <polygon class="cls-17" points="429.22 670.64 423.99 683.86 424.27 684.55 429.22 696.72 429.22 670.64"/>
          <polygon class="cls-7" points="429.52 696.83 429.52 696.82 429.52 696.82 434.98 683.83 429.51 670.66 429.51 670.65 429.51 672.46 429.51 696.83 429.52 696.83"/>
          <polygon class="cls-7" points="429.51 697.37 435.15 710.37 435.15 710.38 435.15 710.39 448.02 715.58 429.51 697.36 429.51 697.37"/>
          <polygon class="cls-7" points="429.22 696.71 424.29 684.63 423.98 683.85 410.94 678.76 429.22 696.72 429.22 696.71"/>
          <polygon class="cls-17" points="429.16 697.05 411.35 679.56 410.74 678.96 416.06 691.95 422.39 694.41 429.15 697.05 429.16 697.05"/>
          <polygon class="cls-17" points="429.51 697.4 429.51 723.36 435.16 710.47 435.17 710.46 429.51 697.4"/>
          <polygon class="cls-7" points="429.21 697.53 423.95 710.1 423.95 710.11 429.23 723.29 429.23 697.51 429.21 697.53"/>
          <polygon class="cls-17" points="429.21 697.53 415.69 710.8 410.91 715.52 423.95 710.11 423.95 710.11 429.21 697.53"/>
          <polygon class="cls-7" points="416.24 702.34 410.68 715.33 429.01 697.33 416.24 702.34"/>
          <polygon class="cls-14" points="429.83 697.31 455.92 697.31 455.93 697.03 455.87 697.03 429.73 697.03 429.72 697.03 448.27 678.81 448.36 678.72 448.17 678.51 429.88 696.47 429.52 696.82 429.52 696.82 429.52 696.83 429.51 696.83 429.51 672.46 429.51 670.65 429.22 670.65 429.22 670.76 429.22 696.71 429.22 696.72 410.94 678.76 410.92 678.74 410.72 678.95 411.34 679.56 429.13 697.03 429.12 697.03 403.25 697.03 403.21 697.03 403.2 697.31 403.2 697.31 403.21 697.31 429.02 697.31 429.01 697.33 410.68 715.33 410.88 715.53 415.69 710.8 429.21 697.53 429.22 697.52 429.22 723.16 429.22 723.33 429.51 723.33 429.51 723.22 429.51 697.41 429.51 697.4 447.84 715.4 448.03 715.58 448.23 715.38 448.19 715.34 429.86 697.33 429.83 697.31"/>
        </g>
        <g>
          <polygon class="cls-1" points="373.9 79.24 419.45 34.5 373.96 79.17 373.9 79.24"/>
          <polygon class="cls-17" points="373.9 79.24 373.96 79.17 419.45 34.5 386.61 47.73 373 80.12 373.9 79.24"/>
          <polygon class="cls-7" points="373.53 80.62 405.89 67.93 419.92 35.04 373.51 80.62 373.53 80.62"/>
          <polygon class="cls-17" points="438.76 80.62 405.45 67.91 405.4 67.93 373.04 80.62 438.76 80.62"/>
          <polygon class="cls-7" points="373.61 81.26 373.66 81.31 405.59 93.84 438.77 81.34 373.61 81.26"/>
          <polygon class="cls-7" points="355.14 74.09 339.48 67.99 307.47 80.62 371.92 80.62 355.14 74.09"/>
          <polygon class="cls-17" points="371.76 81.34 307.48 81.34 339.92 93.84 371.74 81.36 371.76 81.34"/>
          <polygon class="cls-17" points="419.63 126.35 405.71 93.96 373.72 81.3 419.63 126.35"/>
          <polygon class="cls-17" points="372.27 14.89 359.24 47.82 359.91 49.54 372.27 79.85 372.27 14.89"/>
          <polygon class="cls-7" points="373 80.12 373 80.12 373 80.12 386.61 47.73 372.99 14.95 372.99 14.93 372.99 19.43 372.99 80.13 373 80.12"/>
          <polygon class="cls-7" points="372.98 81.48 387.03 113.86 387.02 113.89 387.03 113.9 419.1 126.84 372.98 81.46 372.98 81.48"/>
          <polygon class="cls-7" points="372.27 79.82 359.99 49.74 359.2 47.81 326.72 35.11 372.27 79.84 372.27 79.82"/>
          <polygon class="cls-17" points="372.11 80.69 327.75 37.12 326.22 35.62 339.48 67.96 355.25 74.1 372.09 80.68 372.11 80.69"/>
          <polygon class="cls-17" points="372.99 81.55 372.99 146.21 387.06 114.11 387.07 114.09 372.99 81.55"/>
          <polygon class="cls-7" points="372.24 81.86 359.14 113.19 359.13 113.2 372.28 146.04 372.28 81.83 372.24 81.86"/>
          <polygon class="cls-17" points="372.23 81.87 338.57 114.94 326.65 126.67 359.13 113.21 359.14 113.2 372.23 81.87"/>
          <polygon class="cls-7" points="339.92 93.84 326.08 126.2 371.74 81.36 339.92 93.84"/>
          <polygon class="cls-14" points="373.79 81.34 438.77 81.34 438.79 80.62 438.65 80.62 373.53 80.62 373.51 80.62 419.72 35.24 419.95 35.01 419.45 34.5 373.9 79.24 373 80.12 373 80.12 373 80.12 372.99 80.13 372.99 19.43 372.99 14.91 372.27 14.91 372.27 15.18 372.27 79.82 372.27 79.84 326.72 35.11 326.69 35.08 326.19 35.59 327.73 37.11 372.04 80.62 372.02 80.62 307.57 80.62 307.47 80.62 307.45 81.32 307.45 81.34 307.48 81.34 371.76 81.34 371.74 81.36 326.08 126.2 326.59 126.71 338.57 114.94 372.23 81.87 372.27 81.84 372.27 145.72 372.27 146.13 372.99 146.13 372.99 145.85 372.99 81.56 372.99 81.54 418.65 126.38 419.11 126.84 419.62 126.33 419.52 126.24 373.85 81.38 373.79 81.34"/>
        </g>
      </g>
    </g>
  </g>
</svg>