<?xml version="1.0" encoding="iso-8859-1"?>
<!-- Generator: Adobe Illustrator 29.7.1, SVG Export Plug-In . SVG Version: 9.03 Build 0)  -->
<svg version="1.1" xmlns="http://www.w3.org/2000/svg" xmlns:xlink="http://www.w3.org/1999/xlink" x="0px" y="0px"
	 viewBox="0 0 800 800" style="enable-background:new 0 0 800 800;" xml:space="preserve">
<g id="Layer_1">
	<g>
		<g>
			<circle style="fill:#FFFFFF;" cx="470.441" cy="468.843" r="366.565"/>
			<path style="fill:#B27D37;" d="M469.998,98C264.547,98,97.997,264.55,97.997,470.001C97.997,675.451,264.547,842,469.998,842
				c205.447,0,371.996-166.549,371.996-371.999C841.994,264.55,675.445,98,469.998,98z M469.998,832.45
				c-200.177,0-362.451-162.273-362.451-362.449c0-200.177,162.274-362.449,362.451-362.449
				c200.173,0,362.449,162.272,362.449,362.449C832.447,670.177,670.171,832.45,469.998,832.45z"/>
		</g>
		<g>
			<g>
				<g>
					
						<ellipse transform="matrix(0.7071 -0.7071 0.7071 0.7071 -193.7331 469.9728)" style="fill:#007A9D;" cx="470.441" cy="468.843" rx="290.921" ry="290.921"/>
					<path style="fill:#3291AF;" d="M684.067,653.787l-14.169-111.594c4.648-1.226,8.366-4.711,9.925-9.214l61.217,12.832
						l1.136-3.971l-61.6-12.615c0.02-0.315,0.045-0.628,0.045-0.951c0-1.606-0.273-3.147-0.758-4.591l72.096-35.94l-0.28-4.611
						l-73.542,37.051c-1.816-2.672-4.506-4.699-7.656-5.677l30.821-210.73l-3.26-2.964l-31.579,213.063
						c-0.085-0.005-0.168-0.015-0.253-0.015c-2.057,0-4.011,0.44-5.779,1.214L523.268,275.312c2.952-2.057,5.099-5.186,5.87-8.829
						l145.295,6.992l-3.818-4.058l-141.202-6.658c-0.255-5.1-3.147-9.504-7.361-11.854l21.196-55.736l-3.493-1.067l-21.547,55.338
						c-1.021-0.23-2.082-0.361-3.17-0.361c-3.153,0-6.057,1.021-8.429,2.738l-61.89-68.681l-4.272,2.329l63.043,69.427
						c-1.792,2.403-2.865,5.372-2.865,8.598c0,1.098,0.135,2.164,0.368,3.194l-149.276,56.112c-1.649-3.85-4.923-6.838-8.959-8.095
						l23.938-110.938l-4.775,0.597l-22.69,109.729c-0.255-0.013-0.507-0.038-0.766-0.038c-3.639,0-6.952,1.36-9.488,3.582
						l-51.868-56.75l-2.687,2.148l51.569,58.233c-0.166,0.288-0.32,0.584-0.467,0.884l-73.842-34.585l-2.148,3.58l74.785,34.577
						c-0.173,0.891-0.269,1.806-0.269,2.745c0,5.596,3.194,10.436,7.852,12.824L257.31,514.429
						c-1.476-0.508-3.056-0.801-4.706-0.801c-0.979,0-1.935,0.098-2.861,0.285l-43.718-146.673l-2.507,7.341l42.374,140.709
						c-1.67,0.883-3.147,2.076-4.35,3.515L188.3,475.212v6.087l50.999,41.194c-0.643,1.544-1.013,3.23-1.082,4.989l-0.141-0.345
						l-44.942-4.118l0.179,4.476l45.179,3.49c0.821,3.956,3.27,7.306,6.608,9.347l-28.152,58.427l2.687,3.045l29.22-59.859
						c1.197,0.32,2.449,0.508,3.749,0.508c2.691,0,5.202-0.748,7.357-2.034l89.912,87.953c-1.764,2.392-2.817,5.337-2.817,8.537
						c0,0.413,0.029,0.818,0.061,1.223l-88.092,19.715l3.045,3.76l85.684-20.276c0.692,2.144,1.869,4.066,3.405,5.637
						l-41.639,55.463l3.58,2.327l41.144-55.393c2.125,1.233,4.589,1.954,7.224,1.954c1.494,0,2.935-0.225,4.288-0.651l44.033,94.736
						l3.402,0.358l-44.312-96.512c3.898-2.342,6.591-6.472,6.948-11.263l97.959-4.899c1.058,3.983,3.765,7.285,7.361,9.124
						l-29.003,108.591l4.071,0.51l28.232-107.898c1.048,0.243,2.132,0.383,3.255,0.383c1.191,0,2.344-0.158,3.453-0.433
						l37.156,86.639c-4.211,2.517-7.038,7.105-7.038,12.367c0,4.884,2.437,9.19,6.152,11.797c7.083-1.406,14.076-3.07,20.961-4.984
						c1.091-2.029,1.714-4.346,1.714-6.813c0-7.961-6.452-14.416-14.411-14.416c-1.236,0-2.427,0.172-3.57,0.465l-37.759-86.259
						c2.569-1.344,4.684-3.427,6.05-5.982l149.916,49.353l3.052-3.052l-151.707-49.614c0.28-1.116,0.443-2.277,0.443-3.48
						c0-1.581-0.263-3.095-0.731-4.516l153.118-88.216c2.59,3.613,6.798,5.98,11.571,6.025l14.446,112.607L684.067,653.787z
						 M352.879,328.463c0-0.27-0.026-0.534-0.04-0.802l150.284-56.062c1.088,1.597,2.497,2.955,4.123,4.004l-56.325,116.355
						c-1.042-0.239-2.118-0.378-3.231-0.378c-4.276,0-8.104,1.873-10.745,4.829l-86.509-59.916
						C351.978,334.198,352.879,331.437,352.879,328.463z M317.219,384.251l19.371-41.511c0.616,0.081,1.238,0.138,1.877,0.138
						c3.882,0,7.4-1.545,9.99-4.041l-0.262,0.409l86.456,60.637c-0.872,1.859-1.375,3.924-1.375,6.111
						c0,1.846,0.359,3.606,0.992,5.229L264.934,520.511l0.278,0.553c-1.083-1.951-2.604-3.625-4.432-4.886L317.219,384.251z
						 M364.854,622.913c-1.086-0.265-2.217-0.418-3.385-0.418c-3.483,0-6.678,1.233-9.168,3.29l-89.508-87.55
						c2.609-2.607,4.223-6.212,4.223-10.193c0-2.239-0.525-4.348-1.436-6.242l1.146,2.292L436.169,414.63
						c1.116,1.487,2.511,2.75,4.109,3.712L364.854,622.913z M473.329,628.61l-97.81,5.114c-0.876-3.876-3.31-7.151-6.615-9.147
						l74.778-204.745c1.19,0.344,2.442,0.537,3.737,0.562l34.616,195.739C477.12,618.237,473.627,622.998,473.329,628.61z
						 M652.7,533.264l-153.356,87.65c-2.622-3.595-6.853-5.94-11.641-5.94c-0.638,0-1.261,0.055-1.872,0.135l-34.016-195.307
						c2.962-0.884,5.516-2.701,7.342-5.101l193.621,108.38c-0.626,1.614-0.981,3.363-0.981,5.194
						C651.797,530.032,652.128,531.705,652.7,533.264z M654.872,519.391L461.04,411.416c0.679-1.675,1.063-3.503,1.063-5.422
						c0-5.498-3.081-10.274-7.609-12.705l55.941-116.15c1.446,0.488,2.99,0.763,4.604,0.763c1.669,0,3.265-0.298,4.761-0.819
						l137.601,239.8C656.458,517.614,655.613,518.458,654.872,519.391z"/>
				</g>
				<path style="fill:#B27D37;" d="M468.998,175.352c-161.65,0-292.695,131.044-292.695,292.696
					c0,161.65,131.045,292.694,292.695,292.694s292.696-131.044,292.696-292.694C761.695,306.396,630.648,175.352,468.998,175.352z
					 M468.998,750.242c-155.849,0-282.191-126.345-282.191-282.193c0-155.85,126.341-282.191,282.191-282.191
					c155.85,0,282.191,126.34,282.191,282.191C751.189,623.897,624.849,750.242,468.998,750.242z"/>
			</g>
			<g>
				<path style="fill:#FFFFFF;" d="M349.247,687.35h13.643c2.447,0,4.283,0.303,5.514,0.901c1.23,0.601,2.246,1.456,3.046,2.572
					c0.801,1.116,1.201,2.474,1.201,4.073c0,3.245-1.759,5.409-5.276,6.497c2.03,0.458,3.553,1.366,4.569,2.725
					c1.016,1.361,1.524,2.84,1.524,4.446c0,2.189-0.829,4.081-2.488,5.677c-1.66,1.596-4.355,2.392-8.089,2.392h-13.643V687.35z
					 M356.09,692.519v6.415h5.191c1.902,0,3.1-0.373,3.594-1.123c0.493-0.753,0.739-1.471,0.739-2.157
					c0-0.746-0.205-1.384-0.61-1.919c-0.408-0.538-0.856-0.873-1.341-1.011c-0.487-0.135-1.445-0.205-2.876-0.205H356.09z
					 M356.09,704.149v7.058h5.266c1.798,0,3.067-0.315,3.81-0.943c0.741-0.63,1.112-1.509,1.112-2.64
					c0-0.943-0.356-1.759-1.07-2.444c-0.713-0.688-1.899-1.031-3.553-1.031H356.09z"/>
				<path style="fill:#FFFFFF;" d="M399.88,692.93h-13.945v6.005h10.962v5.514h-10.962v6.392h13.945v5.792h-20.918V687.35h20.918
					V692.93z"/>
				<path style="fill:#FFFFFF;" d="M412.048,710.841h11.649v5.792h-18.6V687.35h6.952V710.841z"/>
				<path style="fill:#FFFFFF;" d="M449.229,692.93h-13.945v6.005h10.963v5.514h-10.963v6.392h13.945v5.792h-20.915V687.35h20.915
					V692.93z"/>
				<path style="fill:#FFFFFF;" d="M454.447,687.35h8.938c3.644,0,6.359,0.505,8.145,1.514c1.784,1.008,3.385,2.604,4.801,4.784
					c1.411,2.182,2.119,4.936,2.119,8.271c0,4.188-1.236,7.688-3.708,10.498c-2.469,2.812-5.88,4.216-10.223,4.216h-10.073V687.35z
					 M461.182,692.737v18.384h2.826c2.498,0,4.353-0.933,5.566-2.8c1.213-1.866,1.821-4.058,1.821-6.575
					c0-1.774-0.346-3.415-1.038-4.924c-0.693-1.509-1.552-2.567-2.579-3.175c-1.028-0.608-2.263-0.911-3.705-0.911H461.182z"/>
				<path style="fill:#FFFFFF;" d="M490.878,687.35v29.283h-6.843V687.35H490.878z M487.423,684.218
					c-0.773,0-1.386-0.25-1.844-0.748c-0.458-0.5-0.686-1.073-0.686-1.716c0-0.66,0.235-1.244,0.708-1.751
					c0.47-0.508,1.078-0.758,1.822-0.758c0.673,0,1.274,0.215,1.804,0.653c0.528,0.435,0.793,1.048,0.793,1.831
					c0,0.761-0.255,1.363-0.761,1.814C488.751,683.993,488.141,684.218,487.423,684.218z"/>
				<path style="fill:#FFFFFF;" d="M518.985,687.35l-9.202,16.951v12.332h-6.843v-12.332l-9.205-16.951h7.959l5.582,11.089
					l5.559-11.089H518.985z"/>
				<path style="fill:#FFFFFF;" d="M542.78,692.93h-13.943v6.005h10.964v5.514h-10.964v6.392h13.943v5.792h-20.916V687.35h20.916
					V692.93z"/>
				<path style="fill:#FFFFFF;" d="M568.23,693.786l-5.837,1.954c-0.786-2.317-2.447-3.478-4.989-3.478
					c-2.71,0-4.063,0.881-4.063,2.642c0,0.698,0.253,1.294,0.76,1.779c0.505,0.488,1.654,0.908,3.438,1.266
					c2.985,0.603,5.169,1.213,6.555,1.826c1.386,0.615,2.552,1.606,3.503,2.97c0.948,1.369,1.424,2.895,1.424,4.581
					c0,2.644-1.018,4.934-3.052,6.863c-2.036,1.931-5.054,2.897-9.057,2.897c-3,0-5.554-0.683-7.661-2.052
					c-2.109-1.363-3.498-3.39-4.168-6.08l6.348-1.436c0.713,2.729,2.7,4.096,5.955,4.096c1.569,0,2.74-0.305,3.51-0.911
					c0.768-0.611,1.156-1.336,1.156-2.179c0-0.856-0.35-1.524-1.051-1.994c-0.698-0.473-2.049-0.916-4.048-1.331
					c-3.728-0.773-6.385-1.826-7.971-3.165c-1.584-1.336-2.377-3.293-2.377-5.867c0-2.602,0.946-4.799,2.84-6.585
					c1.894-1.786,4.464-2.682,7.703-2.682C562.893,686.9,566.584,689.197,568.23,693.786z"/>
				<path style="fill:#FFFFFF;" d="M581.445,687.35v29.283h-6.84V687.35H581.445z M577.995,684.218c-0.773,0-1.389-0.25-1.846-0.748
					c-0.455-0.5-0.686-1.073-0.686-1.716c0-0.66,0.233-1.244,0.708-1.751c0.47-0.508,1.081-0.758,1.824-0.758
					c0.67,0,1.271,0.215,1.799,0.653c0.53,0.435,0.795,1.048,0.795,1.831c0,0.761-0.255,1.363-0.763,1.814
					C579.319,683.993,578.708,684.218,577.995,684.218z"/>
			</g>
			<g>
				<g>
					<path style="fill:none;" d="M351.301,633.234l-6.76-20.711h2.89l3.225,10.203c0.891,2.795,1.659,5.314,2.212,7.744h0.062
						c0.583-2.397,1.444-5.009,2.367-7.713l3.503-10.233h2.857l-7.406,20.711H351.301z"/>
					<path style="fill:none;" d="M364.306,626.288c0.063,3.658,2.397,5.164,5.101,5.164c1.937,0,3.103-0.338,4.118-0.768l0.46,1.934
						c-0.953,0.43-2.582,0.923-4.946,0.923c-4.578,0-7.313-3.012-7.313-7.498c0-4.486,2.642-8.019,6.975-8.019
						c4.854,0,6.145,4.271,6.145,7.005c0,0.553-0.063,0.983-0.093,1.259H364.306z M372.235,624.354
						c0.03-1.721-0.708-4.394-3.748-4.394c-2.734,0-3.933,2.519-4.148,4.394H372.235z"/>
					<path style="fill:none;" d="M380.879,625.182h0.062c0.368-0.52,0.891-1.166,1.321-1.689l4.363-5.131h3.255l-5.744,6.115
						l6.545,8.757h-3.288l-5.131-7.128l-1.383,1.536v5.592h-2.672v-21.817h2.672V625.182z"/>
					<path style="fill:none;" d="M395.878,614.091v4.271h3.873v2.059h-3.873v8.019c0,1.844,0.523,2.89,2.029,2.89
						c0.706,0,1.228-0.092,1.566-0.185l0.122,2.026c-0.52,0.215-1.351,0.37-2.397,0.37c-1.258,0-2.272-0.4-2.917-1.138
						c-0.768-0.798-1.046-2.119-1.046-3.871v-8.111h-2.304v-2.059h2.304v-3.565L395.878,614.091z"/>
					<path style="fill:none;" d="M416.074,625.675c0,5.499-3.81,7.896-7.406,7.896c-4.026,0-7.128-2.95-7.128-7.651
						c0-4.979,3.255-7.896,7.373-7.896C413.184,618.025,416.074,621.127,416.074,625.675z M404.275,625.828
						c0,3.258,1.874,5.717,4.516,5.717c2.582,0,4.516-2.429,4.516-5.777c0-2.519-1.258-5.717-4.453-5.717
						C405.656,620.051,404.275,623.001,404.275,625.828z"/>
					<path style="fill:none;" d="M419.494,623.001c0-1.751-0.033-3.255-0.125-4.639h2.367l0.093,2.92h0.122
						c0.676-1.999,2.304-3.258,4.118-3.258c0.308,0,0.523,0.03,0.768,0.092v2.549c-0.278-0.062-0.553-0.092-0.923-0.092
						c-1.904,0-3.255,1.444-3.625,3.473c-0.06,0.368-0.122,0.798-0.122,1.258v7.929h-2.672V623.001z"/>
					<path style="fill:none;" d="M430.742,626.288c0.063,3.658,2.397,5.164,5.102,5.164c1.936,0,3.102-0.338,4.118-0.768l0.46,1.934
						c-0.953,0.43-2.582,0.923-4.946,0.923c-4.579,0-7.313-3.012-7.313-7.498c0-4.486,2.642-8.019,6.976-8.019
						c4.854,0,6.145,4.271,6.145,7.005c0,0.553-0.062,0.983-0.092,1.259H430.742z M438.671,624.354
						c0.03-1.721-0.708-4.394-3.748-4.394c-2.735,0-3.933,2.519-4.148,4.394H438.671z"/>
					<path style="fill:none;" d="M444.643,611.417h2.702v21.817h-2.702V611.417z"/>
					<path style="fill:none;" d="M466.463,632.558c-0.983,0.49-2.95,0.983-5.469,0.983c-5.84,0-10.233-3.688-10.233-10.478
						c0-6.483,4.394-10.878,10.816-10.878c2.582,0,4.211,0.553,4.916,0.923l-0.645,2.182c-1.013-0.493-2.457-0.861-4.178-0.861
						c-4.854,0-8.081,3.102-8.081,8.541c0,5.069,2.92,8.326,7.959,8.326c1.629,0,3.288-0.338,4.363-0.861L466.463,632.558z"/>
					<path style="fill:none;" d="M472.646,614.184c0.03,0.921-0.644,1.659-1.72,1.659c-0.951,0-1.629-0.738-1.629-1.659
						c0-0.953,0.708-1.691,1.691-1.691C472.002,612.493,472.646,613.231,472.646,614.184z M469.638,633.234v-14.872h2.702v14.872
						H469.638z"/>
					<path style="fill:none;" d="M475.138,631.668l6.73-8.759c0.646-0.798,1.258-1.504,1.934-2.304v-0.06h-8.049v-2.182h11.336
						l-0.03,1.689l-6.638,8.634c-0.613,0.831-1.228,1.569-1.904,2.337v0.06h8.697v2.152h-12.077V631.668z"/>
					<path style="fill:none;" d="M492.997,614.184c0.03,0.921-0.646,1.659-1.721,1.659c-0.951,0-1.629-0.738-1.629-1.659
						c0-0.953,0.708-1.691,1.691-1.691C492.351,612.493,492.997,613.231,492.997,614.184z M489.987,633.234v-14.872h2.702v14.872
						H489.987z"/>
					<path style="fill:none;" d="M497.18,622.388c0-1.536-0.033-2.797-0.125-4.026h2.367l0.122,2.397h0.093
						c0.831-1.414,2.211-2.735,4.671-2.735c2.027,0,3.563,1.228,4.208,2.98h0.062c0.46-0.831,1.043-1.474,1.659-1.937
						c0.891-0.676,1.874-1.043,3.288-1.043c1.966,0,4.886,1.291,4.886,6.452v8.757h-2.642v-8.419c0-2.857-1.046-4.579-3.227-4.579
						c-1.536,0-2.735,1.136-3.195,2.459c-0.123,0.368-0.215,0.858-0.215,1.351v9.187h-2.642v-8.912c0-2.364-1.046-4.086-3.105-4.086
						c-1.689,0-2.917,1.351-3.347,2.704c-0.155,0.398-0.215,0.861-0.215,1.321v8.972h-2.642V622.388z"/>
					<path style="fill:none;" d="M522.177,631.635c0-1.136,0.768-1.934,1.844-1.934c1.073,0,1.812,0.798,1.812,1.934
						c0,1.106-0.706,1.936-1.844,1.936C522.913,633.571,522.177,632.741,522.177,631.635z"/>
					<path style="fill:none;" d="M529.185,622.388c0-1.536-0.033-2.797-0.125-4.026h2.397l0.155,2.457h0.06
						c0.738-1.414,2.459-2.795,4.916-2.795c2.059,0,5.254,1.228,5.254,6.33v8.879h-2.702v-8.572c0-2.397-0.893-4.396-3.443-4.396
						c-1.782,0-3.165,1.261-3.625,2.767c-0.122,0.338-0.185,0.798-0.185,1.258v8.942h-2.702V622.388z"/>
					<path style="fill:none;" d="M547.752,626.288c0.062,3.658,2.397,5.164,5.101,5.164c1.937,0,3.103-0.338,4.118-0.768l0.46,1.934
						c-0.953,0.43-2.582,0.923-4.946,0.923c-4.579,0-7.313-3.012-7.313-7.498c0-4.486,2.642-8.019,6.975-8.019
						c4.854,0,6.145,4.271,6.145,7.005c0,0.553-0.062,0.983-0.092,1.259H547.752z M555.68,624.354
						c0.03-1.721-0.708-4.394-3.748-4.394c-2.735,0-3.933,2.519-4.148,4.394H555.68z"/>
					<path style="fill:none;" d="M564.905,614.091v4.271h3.873v2.059h-3.873v8.019c0,1.844,0.523,2.89,2.029,2.89
						c0.706,0,1.228-0.092,1.566-0.185l0.122,2.026c-0.52,0.215-1.351,0.37-2.397,0.37c-1.258,0-2.272-0.4-2.917-1.138
						c-0.768-0.798-1.046-2.119-1.046-3.871v-8.111h-2.304v-2.059h2.304v-3.565L564.905,614.091z"/>
				</g>
				<g>
					<path style="fill:#FFFFFF;" d="M329.149,613.869h24.289c4.353,0,7.623,0.535,9.813,1.604c2.19,1.068,3.997,2.595,5.424,4.579
						c1.425,1.981,2.138,4.401,2.138,7.251c0,5.774-3.131,9.627-9.393,11.561c3.614,0.815,6.325,2.434,8.134,4.854
						c1.807,2.419,2.711,5.054,2.711,7.909c0,3.901-1.478,7.268-4.43,10.108c-2.954,2.842-7.752,4.263-14.396,4.263h-24.289V613.869
						z M341.332,623.071v11.419h9.241c3.385,0,5.518-0.668,6.397-2.004c0.878-1.339,1.317-2.617,1.317-3.84
						c0-1.321-0.364-2.459-1.09-3.415c-0.726-0.956-1.521-1.554-2.387-1.796c-0.865-0.24-2.571-0.363-5.116-0.363H341.332z
						 M341.332,643.769v12.565h9.374c3.2,0,5.463-0.561,6.784-1.679c1.321-1.121,1.981-2.687,1.981-4.701
						c0-1.679-0.635-3.127-1.908-4.351c-1.27-1.223-3.378-1.834-6.324-1.834H341.332z"/>
					<path style="fill:#FFFFFF;" d="M392.274,613.869v52.128h-12.182v-52.128H392.274z M386.127,608.292
						c-1.375,0-2.471-0.443-3.284-1.336c-0.817-0.888-1.224-1.909-1.224-3.055c0-1.169,0.419-2.207,1.26-3.113
						c0.841-0.903,1.923-1.354,3.248-1.354c1.196,0,2.264,0.385,3.207,1.163c0.941,0.778,1.412,1.866,1.412,3.265
						c0,1.349-0.453,2.424-1.355,3.228C388.486,607.892,387.399,608.292,386.127,608.292z"/>
					<path style="fill:#FFFFFF;" d="M415.112,655.684h20.735v10.313h-33.108v-52.128h12.373V655.684z"/>
					<path style="fill:#FFFFFF;" d="M479.341,623.799H454.52v10.691h19.513v9.815H454.52v11.379h24.822v10.313h-37.232v-52.128
						h37.232V623.799z"/>
					<path style="fill:#FFFFFF;" d="M528.717,633.269l-12.792,0.803c-0.18-7.358-3.047-11.038-8.609-11.038
						c-6.38,0-9.567,5.664-9.567,16.995c0,6.543,0.865,10.979,2.602,13.308c1.734,2.329,4.158,3.493,7.271,3.493
						c5.049,0,8.136-3.285,9.26-9.853l11.837,0.726c-0.763,6.237-3.085,10.981-6.968,14.228c-3.883,3.242-8.637,4.866-14.264,4.866
						c-6.898,0-12.505-2.379-16.82-7.14c-4.318-4.761-6.475-11.344-6.475-19.743c0-7.866,2.089-14.308,6.262-19.322
						c4.176-5.016,9.878-7.526,17.108-7.526C520.088,613.066,527.138,619.801,528.717,633.269z"/>
					<path style="fill:#FFFFFF;" d="M547.927,613.869v52.128h-12.182v-52.128H547.927z M541.78,608.292
						c-1.376,0-2.469-0.443-3.285-1.336c-0.816-0.888-1.221-1.909-1.221-3.055c0-1.169,0.42-2.207,1.258-3.113
						c0.841-0.903,1.924-1.354,3.248-1.354c1.196,0,2.264,0.385,3.207,1.163c0.941,0.778,1.414,1.866,1.414,3.265
						c0,1.349-0.455,2.424-1.356,3.228C544.139,607.892,543.051,608.292,541.78,608.292z"/>
					<path style="fill:#FFFFFF;" d="M570.382,613.869v24.491l16.343-24.491h11.689l-12.522,18.612l15.652,33.516h-13.445
						l-10.403-22.638l-7.313,10.683v11.954h-11.989v-52.128H570.382z"/>
				</g>
				<g>
					<g>
						<polyline style="fill:#C8AF2E;" points="609.189,372.488 581.893,365.368 609.885,290.067 						"/>
						<polyline style="fill:#F5DE6F;" points="611.503,372.488 638.802,365.368 610.81,290.067 						"/>
						<polygon style="fill:#C8AF2E;" points="609.189,600.684 595.026,582.635 595.026,382.359 609.189,372.167 						"/>
						<polygon style="fill:#F5DE6F;" points="611.503,600.684 625.667,582.635 625.667,382.359 611.503,372.167 						"/>
						<polygon style="fill:#AB9030;" points="595.026,382.359 609.189,372.167 581.893,365.368 581.893,366.334 						"/>
						<polygon style="fill:#8F732C;" points="581.893,365.368 582.534,363.66 609.167,371.986 609.167,372.257 						"/>
						<polygon style="fill:#AB9030;" points="625.677,382.359 611.511,372.167 638.81,365.368 638.81,366.334 						"/>
						<polygon style="fill:#A88837;" points="638.81,365.368 638.169,363.66 611.534,371.986 611.534,372.257 						"/>
						<rect x="609.192" y="290.111" style="fill:#F9ED85;" width="2.347" height="310.572"/>
						<polygon style="fill:#A28830;" points="595.819,583.438 609.189,600.684 609.189,521.037 606.552,591.286 						"/>
						<path style="fill:#FDF5C7;" d="M623.63,577.145c0,0-1.719-76.97-1.719-94.385c0-17.417,0.861-94.389,0.861-94.389
							s0.953,85.362,1.166,94.394C624.156,491.794,623.63,577.145,623.63,577.145z"/>
					</g>
					<g>
						<polyline style="fill:#C8AF2E;" points="329.149,372.488 301.852,365.368 329.842,290.067 						"/>
						<polyline style="fill:#F5DE6F;" points="331.463,372.488 358.76,365.368 330.769,290.067 						"/>
						<polygon style="fill:#C8AF2E;" points="329.149,600.684 314.986,582.635 314.986,382.359 329.149,372.167 						"/>
						<polygon style="fill:#F5DE6F;" points="331.463,600.684 345.627,582.635 345.627,382.359 331.463,372.167 						"/>
						<polygon style="fill:#AB9030;" points="314.986,382.359 329.149,372.167 301.852,365.368 301.852,366.334 						"/>
						<polygon style="fill:#8F732C;" points="301.852,365.368 302.491,363.66 329.127,371.986 329.127,372.257 						"/>
						<polygon style="fill:#AB9030;" points="345.636,382.359 331.471,372.167 358.767,365.368 358.767,366.334 						"/>
						<polygon style="fill:#A88837;" points="358.767,365.368 358.129,363.66 331.493,371.986 331.493,372.257 						"/>
						<rect x="329.152" y="290.111" style="fill:#F9ED85;" width="2.347" height="310.572"/>
						<polygon style="fill:#A28830;" points="315.779,583.438 329.149,600.684 329.149,521.037 326.513,591.286 						"/>
						<path style="fill:#FDF5C7;" d="M343.59,577.145c0,0-1.721-76.97-1.721-94.385c0-17.417,0.862-94.389,0.862-94.389
							s0.953,85.362,1.167,94.394C344.112,491.794,343.59,577.145,343.59,577.145z"/>
						<path style="fill:#A28830;" d="M349.39,336.024"/>
					</g>
					<g>
						<path style="opacity:0.15;fill:#AB9030;" d="M523.893,240.077c4.103,9.252,6.4,19.629,6.4,30.594
							c0,38.896-28.935,70.429-64.629,70.429c-35.694,0-64.631-31.533-64.631-70.429c0-7.802,3.322-19.31,5.473-26.325
							c-5.885,10.543-11.399,22.825-11.399,39.696c0,40.117,32.106,72.639,71.712,72.639c39.603,0,71.71-32.522,71.71-72.639
							C538.53,267.514,533.07,252.284,523.893,240.077z"/>
						<rect x="464.316" y="363.53" style="fill:#F9ED85;" width="3.243" height="235.737"/>
						<path style="fill:#A28830;" d="M437.485,396.785l-2.149,3.581L437.485,396.785z"/>
						<path style="fill:#C8AF2E;" d="M397.023,310.367c-1.451-4.069-2.566-8.333-3.226-12.779
							c-2.324-15.619,0.19-26.355,2.854-33.383c2.503-8.667,6.093-14.48,8.109-17.918c-5.751,6.275-21.707,25.959-21.707,55.836
							c0,36.647,21.726,57.178,29.245,62.67c7.521,5.492,23.516,13.131,30.798,23.756c7.282,10.623,7.759,18.98,7.759,30.201
							c0,11.22,0,163.258,0,163.258l13.504,17.288V363.503c0,0-0.223-0.025-0.633-0.081
							C432.482,362.358,406.233,340.43,397.023,310.367z"/>
						<path style="fill:#E0CA40;" d="M445.627,385.77c-4.842-7.467-18.947-16.054-25.815-20.538
							c-6.87-4.485-15.982-13.378-21.55-19.887c-5.568-6.508-10.312-14.628-10.312-14.628s0.201,0.582,0.225,0.688
							c6.895,18.627,18.896,29.712,24.111,33.519c7.521,5.493,23.516,13.131,30.798,23.756c6.306,9.198,7.506,16.701,7.716,25.831
							c0.075,0.672,0.066,1.252,0.066,1.252s0.98-6.565,0.619-11.844C451.123,398.641,451.222,394.392,445.627,385.77z"/>
						<path style="fill:#F5DE6F;" d="M529.423,248.499c5.907,11.111,9.29,23.924,9.29,37.579c0,41.939-31.777,76.004-71.251,76.776
							v236.441l13.502-17.288c0,0,0-152.038,0-163.258c0-11.221,0.475-19.578,7.758-30.201
							c7.283-10.624,23.276-18.264,30.799-23.756c7.518-5.492,29.243-26.023,29.243-62.67
							C548.763,275.201,536.133,256.523,529.423,248.499z"/>
						<path style="fill:#FCF4C3;" d="M542.685,281.308c1.749,10.252,1.033,21.893-2.62,33.577
							c-4.664,14.905-13.208,27.046-23.26,34.634c12.152-5.352,22.533-16.811,27.261-31.916
							C548.067,304.807,547.241,291.855,542.685,281.308z"/>
						<polygon style="fill:#A28830;" points="450.987,582.049 464.357,599.295 464.357,519.648 461.721,589.898 						"/>
						<g>
							<path style="fill:#92732B;" d="M527.261,246.525c4.196,9.253,3.498,20.128,3.498,31.093c0,38.898-29.59,70.431-66.09,70.431
								c-36.499,0-66.086-31.533-66.086-70.431c0-7.804,3.396-19.31,5.596-26.325c-6.018,10.543-11.655,22.825-11.655,39.696
								c0,40.117,32.828,72.637,73.328,72.637c40.496,0,73.324-32.52,73.324-72.637C539.175,274.46,536.646,258.732,527.261,246.525
								z"/>
							<path style="fill:#AB9030;" d="M523.893,240.077c4.103,9.252,6.4,19.629,6.4,30.594c0,38.896-28.935,70.429-64.629,70.429
								c-35.694,0-64.631-31.533-64.631-70.429c0-7.802,3.322-19.31,5.473-26.325c-5.885,10.543-11.399,22.825-11.399,39.696
								c0,40.117,32.106,72.639,71.712,72.639c39.603,0,71.71-32.522,71.71-72.639C538.53,267.514,533.07,252.284,523.893,240.077z"
								/>
							<path style="fill:#BA9E30;" d="M401.733,255.421c0,0-7.687,19.206-0.971,44.043c6.721,24.832,18.838,38.989,18.838,38.989
								s-16.558-13.913-22.196-30.951c-5.639-17.036-4.8-27.953-3.6-34.791c1.201-6.84,3.24-13.318,6.48-19.435
								c3.24-6.12,6.127-8.799,6.127-8.799L401.733,255.421z"/>
							<path style="fill:#BA9E30;" d="M530.539,254.954c0,0,7.676,19.673,0.961,44.51c-6.72,24.832-17.976,39.666-17.976,39.666
								s15.757-12.476,21.334-31.628c5.019-17.23,4.799-27.953,3.6-34.791c-1.201-6.84-3.24-13.318-6.48-19.435
								c-3.24-6.12-5.054-8.853-5.054-8.853L530.539,254.954z"/>
						</g>
					</g>
				</g>
			</g>
		</g>
		<g>
			<g>
				<polygon style="fill:none;" points="589.707,158.826 607.996,140.864 589.729,158.8 				"/>
				<polygon style="fill:#F5E981;" points="589.707,158.826 589.729,158.8 607.996,140.864 594.813,146.177 589.346,159.179 				"/>
				<polygon style="fill:#AB9030;" points="589.557,159.38 602.549,154.286 608.183,141.08 589.552,159.38 				"/>
				<polygon style="fill:#F5E981;" points="615.749,159.38 602.374,154.276 602.354,154.286 589.361,159.38 				"/>
				<polygon style="fill:#AB9030;" points="589.592,159.636 589.614,159.657 602.432,164.687 615.749,159.668 				"/>
				<polygon style="fill:#AB9030;" points="582.176,156.758 575.891,154.307 563.041,159.38 588.914,159.38 				"/>
				
					<line style="fill:none;stroke:#F5E981;stroke-width:0;stroke-linecap:round;stroke-linejoin:round;" x1="563.031" y1="159.661" x2="563.031" y2="159.661"/>
				<polygon style="fill:#F5E981;" points="588.848,159.668 563.046,159.668 576.069,164.687 588.841,159.677 				"/>
				<polygon style="fill:#F5E981;" points="608.068,177.74 602.477,164.734 589.634,159.654 				"/>
				<polygon style="fill:#F5E981;" points="589.054,132.995 583.825,146.21 584.092,146.905 589.054,159.07 				"/>
				<polygon style="fill:#AB9030;" points="589.346,159.179 589.346,159.179 589.346,159.179 594.813,146.177 589.344,133.017 
					589.344,133.008 589.344,134.816 589.344,159.185 				"/>
				<polygon style="fill:#AB9030;" points="589.344,159.727 594.978,172.724 594.976,172.735 594.978,172.74 607.858,177.934 
					589.344,159.719 				"/>
				<polygon style="fill:#AB9030;" points="589.054,159.059 584.122,146.983 583.807,146.209 570.767,141.111 589.054,159.066 				
					"/>
				<polygon style="fill:#F5E981;" points="588.986,159.406 571.18,141.915 570.567,141.314 575.891,154.3 582.219,156.761 
					588.979,159.402 				"/>
				<polygon style="fill:#F5E981;" points="589.344,159.752 589.344,185.712 594.993,172.825 594.996,172.818 				"/>
				<polygon style="fill:#AB9030;" points="589.041,159.879 583.782,172.456 583.78,172.46 589.056,185.645 589.056,159.864 				"/>
				<polygon style="fill:#F5E981;" points="589.041,159.884 575.523,173.156 570.74,177.87 583.777,172.461 583.78,172.46 				"/>
				<polygon style="fill:#AB9030;" points="576.069,164.687 570.509,177.677 588.841,159.677 				"/>
				<polygon style="fill:#C3AA2F;" points="589.664,159.668 615.749,159.668 615.759,159.38 615.702,159.38 589.557,159.38 
					589.552,159.38 608.103,141.161 608.196,141.068 607.996,140.864 589.707,158.826 589.346,159.179 589.346,159.179 
					589.346,159.179 589.344,159.185 589.344,134.816 589.344,133.002 589.054,133.002 589.054,133.107 589.054,159.059 
					589.054,159.066 570.767,141.111 570.757,141.1 570.552,141.304 571.172,141.91 588.964,159.38 588.954,159.38 563.076,159.38 
					563.039,159.38 563.031,159.661 563.031,159.668 563.046,159.668 588.848,159.668 588.841,159.677 570.509,177.677 
					570.714,177.882 575.523,173.156 589.041,159.884 589.054,159.869 589.054,185.516 589.054,185.682 589.344,185.682 
					589.344,185.566 589.344,159.76 589.344,159.752 607.673,177.752 607.861,177.936 608.061,177.733 608.023,177.694 
					589.687,159.688 				"/>
			</g>
			<g>
				<polygon style="fill:none;" points="347.267,161.333 365.557,143.371 347.292,161.307 				"/>
				<polygon style="fill:#F5E981;" points="347.267,161.333 347.292,161.307 365.557,143.371 352.371,148.684 346.909,161.685 				
					"/>
				<polygon style="fill:#AB9030;" points="347.118,161.887 360.112,156.792 365.745,143.587 347.111,161.887 				"/>
				<polygon style="fill:#F5E981;" points="373.31,161.887 359.935,156.783 359.914,156.792 346.923,161.887 				"/>
				<polygon style="fill:#AB9030;" points="347.153,162.144 347.173,162.164 359.992,167.193 373.311,162.175 				"/>
				<polygon style="fill:#AB9030;" points="339.737,159.265 333.45,156.814 320.6,161.887 346.475,161.887 				"/>
				
					<line style="fill:none;stroke:#F5E981;stroke-width:0;stroke-linecap:round;stroke-linejoin:round;" x1="320.591" y1="162.168" x2="320.591" y2="162.168"/>
				<polygon style="fill:#F5E981;" points="346.41,162.175 320.606,162.175 333.629,167.193 346.4,162.183 				"/>
				<polygon style="fill:#F5E981;" points="365.63,180.246 360.037,167.241 347.197,162.161 				"/>
				<polygon style="fill:#F5E981;" points="346.615,135.501 341.385,148.717 341.655,149.412 346.615,161.577 				"/>
				<polygon style="fill:#AB9030;" points="346.908,161.685 346.908,161.685 346.909,161.685 352.371,148.684 346.903,135.524 
					346.903,135.515 346.903,137.322 346.903,161.692 				"/>
				<polygon style="fill:#AB9030;" points="346.903,162.233 352.54,175.231 352.538,175.242 352.54,175.247 365.417,180.441 
					346.903,162.225 				"/>
				<polygon style="fill:#AB9030;" points="346.615,161.566 341.685,149.49 341.37,148.715 328.33,143.618 346.615,161.573 				"/>
				<polygon style="fill:#F5E981;" points="346.548,161.913 328.74,144.421 328.127,143.82 333.45,156.806 339.78,159.267 
					346.543,161.909 				"/>
				<polygon style="fill:#F5E981;" points="346.903,162.259 346.903,188.219 352.553,175.332 352.557,175.325 				"/>
				<polygon style="fill:#AB9030;" points="346.602,162.386 341.342,174.963 341.34,174.967 346.618,188.152 346.618,162.371 				
					"/>
				<polygon style="fill:#F5E981;" points="346.599,162.39 333.085,175.663 328.301,180.377 341.337,174.968 341.34,174.967 				"/>
				<polygon style="fill:#AB9030;" points="333.629,167.193 328.071,180.184 346.4,162.183 				"/>
				<polygon style="fill:#C3AA2F;" points="347.226,162.175 373.311,162.175 373.32,161.887 373.263,161.887 347.118,161.887 
					347.111,161.887 365.664,143.668 365.756,143.575 365.557,143.371 347.267,161.333 346.909,161.685 346.908,161.685 
					346.908,161.685 346.903,161.692 346.903,137.322 346.903,135.509 346.615,135.509 346.615,135.614 346.615,161.566 
					346.615,161.573 328.33,143.618 328.316,143.605 328.113,143.811 328.734,144.417 346.524,161.887 346.513,161.887 
					320.638,161.887 320.599,161.887 320.591,162.168 320.591,162.175 320.606,162.175 346.41,162.175 346.4,162.183 
					328.071,180.184 328.274,180.389 333.085,175.663 346.599,162.39 346.615,162.376 346.615,188.023 346.615,188.189 
					346.903,188.189 346.903,188.073 346.903,162.267 346.903,162.259 365.233,180.259 365.421,180.442 365.622,180.24 
					365.583,180.201 347.247,162.195 				"/>
			</g>
			<g>
				<polygon style="fill:none;" points="691.888,223.765 710.177,205.801 691.913,223.736 				"/>
				<polygon style="fill:#F5E981;" points="691.888,223.765 691.913,223.736 710.177,205.801 696.99,211.115 691.528,224.116 				
					"/>
				<polygon style="fill:#AB9030;" points="691.738,224.316 704.733,219.223 710.362,206.017 691.731,224.316 				"/>
				<polygon style="fill:#F5E981;" points="717.928,224.316 704.555,219.215 704.533,219.223 691.543,224.316 				"/>
				<polygon style="fill:#AB9030;" points="691.773,224.574 691.791,224.595 704.61,229.626 717.931,224.605 				"/>
				<polygon style="fill:#AB9030;" points="684.357,221.694 678.068,219.245 665.217,224.316 691.095,224.316 				"/>
				
					<line style="fill:none;stroke:#F5E981;stroke-width:0;stroke-linecap:round;stroke-linejoin:round;" x1="665.21" y1="224.598" x2="665.21" y2="224.598"/>
				<polygon style="fill:#F5E981;" points="691.03,224.605 665.225,224.605 678.248,229.626 691.02,224.614 				"/>
				<polygon style="fill:#F5E981;" points="710.25,242.677 704.658,229.672 691.818,224.592 				"/>
				<polygon style="fill:#F5E981;" points="691.235,197.932 686.004,211.15 686.276,211.842 691.235,224.007 				"/>
				<polygon style="fill:#AB9030;" points="691.528,224.116 691.528,224.116 691.528,224.116 696.99,211.115 691.523,197.955 
					691.523,197.947 691.523,199.754 691.523,224.122 				"/>
				<polygon style="fill:#AB9030;" points="691.523,224.663 697.162,237.663 697.157,237.673 697.157,237.678 710.035,242.873 
					691.523,224.656 				"/>
				<polygon style="fill:#AB9030;" points="691.235,223.996 686.306,211.922 685.989,211.146 672.948,206.049 691.235,224.005 				
					"/>
				<polygon style="fill:#F5E981;" points="691.168,224.343 673.361,206.852 672.748,206.25 678.068,219.235 684.4,221.699 
					691.163,224.34 				"/>
				<polygon style="fill:#F5E981;" points="691.523,224.689 691.523,250.65 697.172,237.764 697.177,237.754 				"/>
				<polygon style="fill:#AB9030;" points="691.225,224.816 685.961,237.393 685.958,237.398 691.238,250.583 691.238,224.802 				
					"/>
				<polygon style="fill:#F5E981;" points="691.218,224.822 677.705,238.093 672.921,242.808 685.956,237.4 685.958,237.398 				"/>
				<polygon style="fill:#AB9030;" points="678.248,229.626 672.691,242.614 691.02,224.614 				"/>
				<polygon style="fill:#C3AA2F;" points="691.846,224.605 717.931,224.605 717.941,224.316 717.883,224.316 691.738,224.316 
					691.731,224.316 710.282,206.099 710.375,206.006 710.177,205.801 691.888,223.765 691.528,224.116 691.528,224.116 
					691.528,224.116 691.523,224.122 691.523,199.754 691.523,197.94 691.235,197.94 691.235,198.045 691.235,223.996 
					691.235,224.005 672.948,206.049 672.936,206.036 672.733,206.241 673.354,206.849 691.145,224.316 691.133,224.316 
					665.258,224.316 665.217,224.316 665.21,224.598 665.21,224.605 665.225,224.605 691.03,224.605 691.02,224.614 
					672.691,242.614 672.893,242.82 677.705,238.093 691.218,224.822 691.235,224.808 691.235,250.453 691.235,250.619 
					691.523,250.619 691.523,250.504 691.523,224.697 691.523,224.689 709.852,242.688 710.04,242.873 710.242,242.669 
					710.202,242.632 691.868,224.624 				"/>
			</g>
			<g>
				<polygon style="fill:none;" points="245.351,232.463 263.64,214.501 245.376,232.437 				"/>
				<polygon style="fill:#F5E981;" points="245.351,232.463 245.376,232.437 263.64,214.501 250.454,219.814 244.993,232.815 				
					"/>
				<polygon style="fill:#AB9030;" points="245.202,233.017 258.194,227.922 263.827,214.717 245.194,233.017 				"/>
				<polygon style="fill:#F5E981;" points="271.392,233.017 258.019,227.913 257.998,227.922 245.005,233.017 				"/>
				<polygon style="fill:#AB9030;" points="245.237,233.273 245.257,233.293 258.074,238.323 271.395,233.305 				"/>
				<polygon style="fill:#AB9030;" points="237.821,230.395 231.534,227.943 218.684,233.017 244.558,233.017 				"/>
				
					<line style="fill:none;stroke:#F5E981;stroke-width:0;stroke-linecap:round;stroke-linejoin:round;" x1="218.674" y1="233.297" x2="218.674" y2="233.297"/>
				<polygon style="fill:#F5E981;" points="244.492,233.305 218.689,233.305 231.711,238.323 244.484,233.314 				"/>
				<polygon style="fill:#F5E981;" points="263.712,251.376 258.12,238.371 245.279,233.291 				"/>
				<polygon style="fill:#F5E981;" points="244.698,206.63 239.467,219.847 239.737,220.541 244.698,232.705 				"/>
				<polygon style="fill:#AB9030;" points="244.99,232.815 244.99,232.815 244.993,232.815 250.454,219.814 244.987,206.653 
					244.987,206.644 244.987,208.452 244.987,232.821 				"/>
				<polygon style="fill:#AB9030;" points="244.987,233.363 250.624,246.362 250.621,246.372 250.622,246.377 263.5,251.571 
					244.987,233.355 				"/>
				<polygon style="fill:#AB9030;" points="244.698,232.694 239.769,220.62 239.452,219.844 226.412,214.747 244.698,232.703 				
					"/>
				<polygon style="fill:#F5E981;" points="244.63,233.043 226.824,215.551 226.211,214.949 231.534,227.935 237.862,230.397 
					244.625,233.039 				"/>
				<polygon style="fill:#F5E981;" points="244.987,233.388 244.987,259.349 250.636,246.462 250.64,246.454 				"/>
				<polygon style="fill:#AB9030;" points="244.686,233.516 239.426,246.092 239.424,246.096 244.701,259.281 244.701,233.501 				
					"/>
				<polygon style="fill:#F5E981;" points="244.683,233.52 231.168,246.793 226.383,251.506 239.42,246.098 239.424,246.097 				"/>
				<polygon style="fill:#AB9030;" points="231.711,238.323 226.155,251.313 244.484,233.314 				"/>
				<polygon style="fill:#C3AA2F;" points="245.309,233.305 271.395,233.305 271.403,233.017 271.347,233.017 245.202,233.017 
					245.194,233.017 263.746,214.798 263.839,214.705 263.64,214.501 245.351,232.463 244.993,232.815 244.99,232.815 
					244.99,232.815 244.987,232.821 244.987,208.452 244.987,206.639 244.698,206.639 244.698,206.744 244.698,232.694 
					244.698,232.703 226.412,214.747 226.4,214.735 226.196,214.941 226.816,215.547 244.607,233.017 244.596,233.017 
					218.721,233.017 218.681,233.017 218.674,233.297 218.674,233.305 218.689,233.305 244.492,233.305 244.484,233.314 
					226.155,251.313 226.357,251.517 231.168,246.793 244.683,233.52 244.698,233.506 244.698,259.153 244.698,259.317 
					244.987,259.317 244.987,259.203 244.987,233.397 244.987,233.388 263.316,251.387 263.503,251.571 263.706,251.37 
					263.666,251.33 245.329,233.325 				"/>
			</g>
			<g>
				<polygon style="fill:none;" points="174.085,330.227 192.376,312.266 174.112,330.199 				"/>
				<polygon style="fill:#F5E981;" points="174.085,330.227 174.112,330.199 192.376,312.266 179.191,317.577 173.728,330.579 				
					"/>
				<polygon style="fill:#AB9030;" points="173.938,330.78 186.93,325.686 192.563,312.481 173.93,330.78 				"/>
				<polygon style="fill:#F5E981;" points="200.128,330.78 186.754,325.677 186.733,325.686 173.743,330.78 				"/>
				<polygon style="fill:#AB9030;" points="173.973,331.038 173.992,331.058 186.81,336.088 200.131,331.068 				"/>
				<polygon style="fill:#AB9030;" points="166.556,328.159 160.27,325.707 147.42,330.78 173.295,330.78 				"/>
				
					<line style="fill:none;stroke:#F5E981;stroke-width:0;stroke-linecap:round;stroke-linejoin:round;" x1="147.41" y1="331.062" x2="147.41" y2="331.062"/>
				<polygon style="fill:#F5E981;" points="173.229,331.068 147.425,331.068 160.449,336.088 173.22,331.078 				"/>
				<polygon style="fill:#F5E981;" points="192.448,349.14 186.857,336.135 174.017,331.054 				"/>
				<polygon style="fill:#F5E981;" points="173.434,304.395 168.203,317.611 168.474,318.305 173.434,330.47 				"/>
				<polygon style="fill:#AB9030;" points="173.726,330.579 173.726,330.579 173.728,330.579 179.191,317.577 173.722,304.417 
					173.722,304.408 173.722,306.216 173.722,330.585 				"/>
				<polygon style="fill:#AB9030;" points="173.722,331.127 179.359,344.125 179.357,344.137 179.358,344.141 192.236,349.336 
					173.722,331.119 				"/>
				<polygon style="fill:#AB9030;" points="173.434,330.458 168.505,318.384 168.188,317.609 155.148,312.511 173.434,330.467 				
					"/>
				<polygon style="fill:#F5E981;" points="173.368,330.808 155.559,313.315 154.946,312.714 160.27,325.7 166.6,328.162 
					173.361,330.804 				"/>
				<polygon style="fill:#F5E981;" points="173.722,331.153 173.722,357.113 179.372,344.227 179.377,344.218 				"/>
				<polygon style="fill:#AB9030;" points="173.423,331.28 168.162,343.856 168.159,343.86 173.436,357.045 173.436,331.264 				"/>
				<polygon style="fill:#F5E981;" points="173.419,331.284 159.905,344.556 155.121,349.271 168.156,343.863 168.159,343.861 				
					"/>
				<polygon style="fill:#AB9030;" points="160.449,336.088 154.891,349.077 173.22,331.078 				"/>
				<polygon style="fill:#C3AA2F;" points="174.045,331.068 200.131,331.068 200.138,330.78 200.082,330.78 173.938,330.78 
					173.93,330.78 192.483,312.561 192.575,312.468 192.376,312.266 174.085,330.227 173.728,330.579 173.726,330.579 
					173.726,330.579 173.722,330.585 173.722,306.216 173.722,304.403 173.434,304.403 173.434,304.507 173.434,330.458 
					173.434,330.467 155.148,312.511 155.136,312.5 154.933,312.705 155.553,313.311 173.344,330.78 173.332,330.78 147.456,330.78 
					147.417,330.78 147.41,331.062 147.41,331.068 147.425,331.068 173.229,331.068 173.22,331.078 154.891,349.077 
					155.093,349.282 159.905,344.556 173.419,331.284 173.434,331.27 173.434,356.918 173.434,357.082 173.722,357.082 
					173.722,356.968 173.722,331.161 173.722,331.153 192.052,349.152 192.238,349.337 192.441,349.134 192.402,349.094 
					174.067,331.089 				"/>
			</g>
			<g>
				<polygon style="fill:none;" points="144.364,449.834 162.653,431.873 144.387,449.81 				"/>
				<polygon style="fill:#F5E981;" points="144.364,449.834 144.387,449.81 162.653,431.873 149.468,437.187 144.005,450.188 				
					"/>
				<polygon style="fill:#AB9030;" points="144.214,450.39 157.208,445.294 162.841,432.09 144.209,450.39 				"/>
				<polygon style="fill:#F5E981;" points="170.406,450.39 157.031,445.286 157.01,445.294 144.019,450.39 				"/>
				<polygon style="fill:#AB9030;" points="144.25,450.646 144.27,450.666 157.087,455.696 170.406,450.678 				"/>
				<polygon style="fill:#AB9030;" points="136.833,447.768 130.546,445.317 117.696,450.39 143.571,450.39 				"/>
				
					<line style="fill:none;stroke:#F5E981;stroke-width:0;stroke-linecap:round;stroke-linejoin:round;" x1="117.687" y1="450.67" x2="117.687" y2="450.67"/>
				<polygon style="fill:#F5E981;" points="143.506,450.678 117.702,450.678 130.726,455.696 143.497,450.687 				"/>
				<polygon style="fill:#F5E981;" points="162.726,468.749 157.134,455.744 144.292,450.664 				"/>
				<polygon style="fill:#F5E981;" points="143.711,424.003 138.481,437.22 138.751,437.915 143.711,450.08 				"/>
				<polygon style="fill:#AB9030;" points="144.003,450.188 144.003,450.188 144.005,450.188 149.468,437.187 144,424.027 
					144,424.017 144,425.825 144,450.194 				"/>
				<polygon style="fill:#AB9030;" points="144,450.736 149.637,463.734 149.634,463.745 149.635,463.749 162.513,468.944 
					144,450.728 				"/>
				<polygon style="fill:#AB9030;" points="143.711,450.068 138.781,437.993 138.465,437.217 125.425,432.12 143.711,450.076 				
					"/>
				<polygon style="fill:#F5E981;" points="143.643,450.416 125.837,432.924 125.224,432.324 130.546,445.308 136.875,447.77 
					143.638,450.411 				"/>
				<polygon style="fill:#F5E981;" points="144,450.762 144,476.72 149.649,463.835 149.653,463.827 				"/>
				<polygon style="fill:#AB9030;" points="143.7,450.889 138.438,463.466 138.437,463.469 143.715,476.655 143.715,450.873 				"/>
				<polygon style="fill:#F5E981;" points="143.696,450.893 130.18,464.166 125.397,468.879 138.433,463.471 138.437,463.47 				"/>
				<polygon style="fill:#AB9030;" points="130.726,455.696 125.166,468.686 143.497,450.687 				"/>
				<polygon style="fill:#C3AA2F;" points="144.323,450.678 170.406,450.678 170.415,450.39 170.359,450.39 144.214,450.39 
					144.209,450.39 162.759,432.17 162.852,432.078 162.653,431.873 144.364,449.834 144.005,450.188 144.003,450.188 
					144.003,450.188 144,450.194 144,425.825 144,424.012 143.711,424.012 143.711,424.117 143.711,450.068 143.711,450.076 
					125.425,432.12 125.412,432.108 125.209,432.314 125.829,432.92 143.621,450.39 143.609,450.39 117.734,450.39 117.694,450.39 
					117.687,450.67 117.687,450.678 117.702,450.678 143.506,450.678 143.497,450.687 125.166,468.686 125.37,468.89 
					130.18,464.166 143.696,450.893 143.711,450.878 143.711,476.525 143.711,476.69 144,476.69 144,476.575 144,450.77 
					144,450.762 162.329,468.76 162.517,468.945 162.719,468.742 162.679,468.704 144.344,450.697 				"/>
			</g>
			<g>
				<polygon style="fill:none;" points="156.18,560.132 174.471,542.173 156.205,560.11 				"/>
				<polygon style="fill:#F5E981;" points="156.18,560.132 156.205,560.11 174.471,542.173 161.284,547.485 155.823,560.485 				"/>
				<polygon style="fill:#AB9030;" points="156.032,560.688 169.025,555.594 174.659,542.388 156.025,560.688 				"/>
				<polygon style="fill:#F5E981;" points="182.223,560.688 168.849,555.584 168.828,555.594 155.836,560.688 				"/>
				<polygon style="fill:#AB9030;" points="156.066,560.945 156.087,560.963 168.905,565.994 182.224,560.975 				"/>
				<polygon style="fill:#AB9030;" points="148.65,558.066 142.363,555.616 129.514,560.688 155.389,560.688 				"/>
				
					<line style="fill:none;stroke:#F5E981;stroke-width:0;stroke-linecap:round;stroke-linejoin:round;" x1="129.505" y1="560.97" x2="129.505" y2="560.97"/>
				<polygon style="fill:#F5E981;" points="155.324,560.975 129.52,560.975 142.542,565.994 155.315,560.983 				"/>
				<polygon style="fill:#F5E981;" points="174.543,579.049 168.95,566.042 156.11,560.96 				"/>
				<polygon style="fill:#F5E981;" points="155.529,534.302 150.298,547.52 150.568,548.213 155.529,560.377 				"/>
				<polygon style="fill:#AB9030;" points="155.821,560.485 155.821,560.485 155.823,560.485 161.284,547.485 155.818,534.325 
					155.818,534.317 155.818,536.121 155.818,560.492 				"/>
				<polygon style="fill:#AB9030;" points="155.818,561.033 161.455,574.033 161.452,574.043 161.453,574.048 174.331,579.242 
					155.818,561.025 				"/>
				<polygon style="fill:#AB9030;" points="155.529,560.365 150.599,548.291 150.283,547.515 137.243,542.418 155.529,560.375 				
					"/>
				<polygon style="fill:#F5E981;" points="155.461,560.715 137.654,543.224 137.041,542.621 142.363,555.606 148.693,558.068 
					155.456,560.71 				"/>
				<polygon style="fill:#F5E981;" points="155.818,561.06 155.818,587.021 161.467,574.133 161.471,574.126 				"/>
				<polygon style="fill:#AB9030;" points="155.517,561.188 150.256,573.763 150.253,573.768 155.532,586.951 155.532,561.171 				
					"/>
				<polygon style="fill:#F5E981;" points="155.514,561.191 141.998,574.463 137.214,579.177 150.251,573.768 150.253,573.768 				
					"/>
				<polygon style="fill:#AB9030;" points="142.542,565.994 136.984,578.984 155.315,560.983 				"/>
				<polygon style="fill:#C3AA2F;" points="156.139,560.975 182.224,560.975 182.233,560.688 182.177,560.688 156.032,560.688 
					156.025,560.688 174.577,542.469 174.67,542.376 174.471,542.173 156.18,560.132 155.823,560.485 155.821,560.485 
					155.821,560.485 155.818,560.492 155.818,536.121 155.818,534.31 155.529,534.31 155.529,534.417 155.529,560.365 
					155.529,560.375 137.243,542.418 137.23,542.406 137.027,542.611 137.647,543.219 155.439,560.688 155.426,560.688 
					129.552,560.688 129.512,560.688 129.505,560.97 129.505,560.975 129.52,560.975 155.324,560.975 155.315,560.983 
					136.984,578.984 137.188,579.187 141.998,574.463 155.514,561.191 155.529,561.178 155.529,586.825 155.529,586.99 
					155.818,586.99 155.818,586.875 155.818,561.068 155.818,561.06 174.147,579.062 174.334,579.245 174.537,579.042 
					174.497,578.999 156.16,560.995 				"/>
			</g>
			<g>
				<polygon style="fill:none;" points="207.032,664.703 225.323,646.739 207.057,664.676 				"/>
				<polygon style="fill:#F5E981;" points="207.032,664.703 207.057,664.676 225.323,646.739 212.136,652.053 206.675,665.056 				
					"/>
				<polygon style="fill:#AB9030;" points="206.885,665.256 219.876,660.16 225.51,646.954 206.877,665.256 				"/>
				<polygon style="fill:#F5E981;" points="233.075,665.256 219.701,660.152 219.679,660.16 206.687,665.256 				"/>
				<polygon style="fill:#AB9030;" points="206.92,665.514 206.938,665.534 219.756,670.563 233.077,665.544 				"/>
				<polygon style="fill:#AB9030;" points="199.503,662.634 193.215,660.185 180.365,665.256 206.24,665.256 				"/>
				
					<line style="fill:none;stroke:#F5E981;stroke-width:0;stroke-linecap:round;stroke-linejoin:round;" x1="180.355" y1="665.539" x2="180.355" y2="665.539"/>
				<polygon style="fill:#F5E981;" points="206.174,665.544 180.37,665.544 193.394,670.563 206.167,665.554 				"/>
				<polygon style="fill:#F5E981;" points="225.395,683.618 219.802,670.61 206.962,665.531 				"/>
				<polygon style="fill:#F5E981;" points="206.38,638.868 201.15,652.086 201.42,652.779 206.38,664.946 				"/>
				<polygon style="fill:#AB9030;" points="206.672,665.056 206.672,665.056 206.675,665.056 212.136,652.053 206.668,638.893 
					206.668,638.883 206.668,640.692 206.668,665.058 				"/>
				<polygon style="fill:#AB9030;" points="206.668,665.604 212.306,678.601 212.302,678.611 212.304,678.619 225.183,683.81 
					206.668,665.594 				"/>
				<polygon style="fill:#AB9030;" points="206.38,664.933 201.45,652.859 201.135,652.083 188.094,646.987 206.38,664.941 				"/>
				<polygon style="fill:#F5E981;" points="206.314,665.284 188.505,647.792 187.892,647.192 193.215,660.174 199.545,662.639 
					206.308,665.278 				"/>
				<polygon style="fill:#F5E981;" points="206.668,665.626 206.668,691.586 212.319,678.701 212.323,678.694 				"/>
				<polygon style="fill:#AB9030;" points="206.369,665.756 201.108,678.331 201.105,678.334 206.383,691.521 206.383,665.741 				
					"/>
				<polygon style="fill:#F5E981;" points="206.366,665.759 192.851,679.032 188.066,683.745 201.103,678.339 201.105,678.339 				
					"/>
				<polygon style="fill:#AB9030;" points="193.394,670.563 187.837,683.553 206.167,665.554 				"/>
				<polygon style="fill:#C3AA2F;" points="206.992,665.544 233.077,665.544 233.085,665.256 233.029,665.256 206.885,665.256 
					206.877,665.256 225.428,647.037 225.521,646.944 225.323,646.739 207.032,664.703 206.675,665.056 206.672,665.056 
					206.672,665.056 206.668,665.058 206.668,640.692 206.668,638.878 206.38,638.878 206.38,638.983 206.38,664.933 
					206.38,664.941 188.094,646.987 188.083,646.974 187.879,647.18 188.498,647.785 206.289,665.256 206.278,665.256 
					180.403,665.256 180.364,665.256 180.355,665.539 180.355,665.544 180.37,665.544 206.174,665.544 206.167,665.554 
					187.837,683.553 188.04,683.758 192.851,679.032 206.366,665.759 206.38,665.744 206.38,691.391 206.38,691.556 
					206.668,691.556 206.668,691.441 206.668,665.636 206.668,665.626 224.997,683.628 225.185,683.813 225.388,683.608 
					225.349,683.57 207.012,665.564 				"/>
			</g>
			<g>
				<polygon style="fill:none;" points="290.048,744.4 308.338,726.441 290.073,744.377 				"/>
				<polygon style="fill:#F5E981;" points="290.048,744.4 290.073,744.377 308.338,726.441 295.151,731.755 289.69,744.752 				"/>
				<polygon style="fill:#AB9030;" points="289.899,744.955 302.891,739.861 308.526,726.658 289.893,744.955 				"/>
				<polygon style="fill:#F5E981;" points="316.09,744.955 302.715,739.854 302.695,739.861 289.702,744.955 				"/>
				<polygon style="fill:#AB9030;" points="289.934,745.213 289.954,745.23 302.771,750.264 316.092,745.243 				"/>
				<polygon style="fill:#AB9030;" points="282.517,742.333 276.231,739.881 263.381,744.955 289.256,744.955 				"/>
				
					<line style="fill:none;stroke:#F5E981;stroke-width:0;stroke-linecap:round;stroke-linejoin:round;" x1="263.371" y1="745.238" x2="263.371" y2="745.238"/>
				<polygon style="fill:#F5E981;" points="289.19,745.243 263.386,745.243 276.41,750.264 289.182,745.255 				"/>
				<polygon style="fill:#F5E981;" points="308.411,763.317 302.817,750.309 289.978,745.23 				"/>
				<polygon style="fill:#F5E981;" points="289.396,718.57 284.164,731.787 284.434,732.48 289.396,744.645 				"/>
				<polygon style="fill:#AB9030;" points="289.687,744.758 289.687,744.752 289.69,744.752 295.151,731.755 289.684,718.595 
					289.684,718.582 289.684,720.389 289.684,744.76 				"/>
				<polygon style="fill:#AB9030;" points="289.684,745.3 295.322,758.303 295.318,758.31 295.319,758.315 308.198,763.509 
					289.684,745.293 				"/>
				<polygon style="fill:#AB9030;" points="289.396,744.635 284.466,732.56 284.149,731.785 271.109,726.686 289.396,744.645 				
					"/>
				<polygon style="fill:#F5E981;" points="289.328,744.983 271.521,727.492 270.908,726.889 276.231,739.874 282.561,742.341 
					289.323,744.978 				"/>
				<polygon style="fill:#F5E981;" points="289.684,745.33 289.684,771.288 295.333,758.403 295.338,758.393 				"/>
				<polygon style="fill:#AB9030;" points="289.385,745.455 284.123,758.033 284.121,758.035 289.398,771.223 289.398,745.443 				
					"/>
				<polygon style="fill:#F5E981;" points="289.381,745.458 275.867,758.733 271.082,763.444 284.118,758.035 284.121,758.035 				
					"/>
				<polygon style="fill:#AB9030;" points="276.41,750.264 270.853,763.257 289.182,745.255 				"/>
				<polygon style="fill:#C3AA2F;" points="290.006,745.243 316.092,745.243 316.1,744.955 316.044,744.955 289.899,744.955 
					289.893,744.955 308.443,726.739 308.536,726.643 308.338,726.441 290.048,744.4 289.69,744.752 289.687,744.752 
					289.687,744.758 289.684,744.76 289.684,720.389 289.684,718.577 289.396,718.577 289.396,718.685 289.396,744.635 
					289.396,744.645 271.109,726.686 271.097,726.674 270.894,726.879 271.513,727.487 289.305,744.955 289.293,744.955 
					263.418,744.955 263.38,744.955 263.371,745.238 263.371,745.243 263.386,745.243 289.19,745.243 289.182,745.255 
					270.853,763.257 271.056,763.454 275.867,758.733 289.381,745.458 289.396,745.445 289.396,771.093 289.396,771.258 
					289.684,771.258 289.684,771.143 289.684,745.335 289.684,745.328 308.013,763.329 308.2,763.512 308.403,763.307 
					308.364,763.272 290.028,745.263 				"/>
			</g>
			<g>
				<polygon style="fill:none;" points="405.359,791.313 423.65,773.352 405.384,791.288 				"/>
				<polygon style="fill:#F5E981;" points="405.359,791.313 405.384,791.288 423.65,773.352 410.463,778.669 405.001,791.664 				
					"/>
				<polygon style="fill:#AB9030;" points="405.21,791.866 418.203,786.772 423.836,773.57 405.204,791.866 				"/>
				<polygon style="fill:#F5E981;" points="431.402,791.866 418.028,786.765 418.007,786.772 405.014,791.866 				"/>
				<polygon style="fill:#AB9030;" points="405.247,792.124 405.265,792.144 418.083,797.178 431.403,792.154 				"/>
				<polygon style="fill:#AB9030;" points="397.83,789.247 391.542,786.795 378.692,791.866 404.567,791.866 				"/>
				
					<line style="fill:none;stroke:#F5E981;stroke-width:0;stroke-linecap:round;stroke-linejoin:round;" x1="378.682" y1="792.152" x2="378.682" y2="792.152"/>
				<polygon style="fill:#F5E981;" points="404.501,792.154 378.697,792.154 391.721,797.178 404.493,792.167 				"/>
				<polygon style="fill:#F5E981;" points="423.722,810.228 418.129,797.223 405.288,792.144 				"/>
				<polygon style="fill:#F5E981;" points="404.707,765.481 399.476,778.701 399.746,779.392 404.707,791.561 				"/>
				<polygon style="fill:#AB9030;" points="404.999,791.669 404.999,791.664 405.001,791.664 410.463,778.669 404.995,765.508 
					404.995,765.496 404.995,767.305 404.995,791.671 				"/>
				<polygon style="fill:#AB9030;" points="404.995,792.214 410.633,805.214 410.63,805.224 410.631,805.229 423.509,810.421 
					404.995,792.204 				"/>
				<polygon style="fill:#AB9030;" points="404.707,791.548 399.777,779.474 399.461,778.696 386.421,773.597 404.707,791.556 				
					"/>
				<polygon style="fill:#F5E981;" points="404.64,791.894 386.832,774.405 386.219,773.802 391.542,786.785 397.872,789.252 
					404.634,791.889 				"/>
				<polygon style="fill:#F5E981;" points="404.995,792.241 404.995,818.199 410.645,805.314 410.65,805.304 				"/>
				<polygon style="fill:#AB9030;" points="404.696,792.369 399.435,804.944 399.432,804.946 404.71,818.134 404.71,792.354 				"/>
				<polygon style="fill:#F5E981;" points="404.691,792.369 391.177,805.644 386.392,810.358 399.428,804.949 399.432,804.949 				
					"/>
				<polygon style="fill:#AB9030;" points="391.721,797.178 386.163,810.168 404.493,792.167 				"/>
				<polygon style="fill:#C3AA2F;" points="405.319,792.154 431.403,792.154 431.412,791.866 431.356,791.866 405.21,791.866 
					405.204,791.866 423.755,773.652 423.847,773.555 423.65,773.352 405.359,791.313 405.001,791.664 404.999,791.664 
					404.999,791.669 404.995,791.671 404.995,767.305 404.995,765.489 404.707,765.489 404.707,765.596 404.707,791.548 
					404.707,791.556 386.421,773.597 386.408,773.587 386.206,773.79 386.825,774.398 404.616,791.866 404.605,791.866 
					378.73,791.866 378.69,791.866 378.682,792.152 378.682,792.154 378.697,792.154 404.501,792.154 404.493,792.167 
					386.163,810.168 386.366,810.368 391.177,805.644 404.691,792.369 404.707,792.357 404.707,818.004 404.707,818.169 
					404.995,818.169 404.995,818.057 404.995,792.247 404.995,792.239 423.324,810.24 423.512,810.423 423.715,810.22 
					423.675,810.183 405.339,792.174 				"/>
			</g>
			<g>
				<polygon style="fill:none;" points="772.821,331.436 791.11,313.474 772.846,331.41 				"/>
				<polygon style="fill:#F5E981;" points="772.821,331.436 772.846,331.41 791.11,313.474 777.925,318.788 772.463,331.788 				"/>
				<polygon style="fill:#AB9030;" points="772.673,331.988 785.663,326.894 791.295,313.691 772.666,331.988 				"/>
				<polygon style="fill:#F5E981;" points="798.863,331.988 785.488,326.887 785.466,326.894 772.478,331.988 				"/>
				<polygon style="fill:#AB9030;" points="772.706,332.246 772.726,332.266 785.545,337.298 798.863,332.277 				"/>
				<polygon style="fill:#AB9030;" points="765.287,329.368 759.003,326.917 746.153,331.988 772.028,331.988 				"/>
				
					<line style="fill:none;stroke:#F5E981;stroke-width:0;stroke-linecap:round;stroke-linejoin:round;" x1="746.145" y1="332.272" x2="746.145" y2="332.272"/>
				<polygon style="fill:#F5E981;" points="771.96,332.277 746.158,332.277 759.183,337.298 771.953,332.287 				"/>
				<polygon style="fill:#F5E981;" points="791.182,350.35 785.588,337.344 772.751,332.265 				"/>
				<polygon style="fill:#F5E981;" points="772.168,305.603 766.936,318.821 767.206,319.514 772.168,331.681 				"/>
				<polygon style="fill:#AB9030;" points="772.458,331.79 772.458,331.788 772.463,331.788 777.925,318.788 772.458,305.628 
					772.458,305.618 772.458,307.424 772.458,331.793 				"/>
				<polygon style="fill:#AB9030;" points="772.458,332.336 778.095,345.335 778.092,345.345 778.092,345.351 790.97,350.544 
					772.458,332.327 				"/>
				<polygon style="fill:#AB9030;" points="772.168,331.669 767.239,319.594 766.924,318.817 753.881,313.719 772.168,331.677 				
					"/>
				<polygon style="fill:#F5E981;" points="772.103,332.017 754.294,314.525 753.681,313.924 759.003,326.908 765.335,329.371 
					772.095,332.012 				"/>
				<polygon style="fill:#F5E981;" points="772.458,332.362 772.458,358.321 778.105,345.436 778.112,345.426 				"/>
				<polygon style="fill:#AB9030;" points="772.155,332.49 766.896,345.065 766.894,345.069 772.17,358.256 772.17,332.475 				"/>
				<polygon style="fill:#F5E981;" points="772.153,332.493 758.64,345.767 753.856,350.479 766.889,345.071 766.894,345.071 				
					"/>
				<polygon style="fill:#AB9030;" points="759.183,337.298 753.626,350.288 771.953,332.287 				"/>
				<polygon style="fill:#C3AA2F;" points="772.778,332.277 798.863,332.277 798.873,331.988 798.816,331.988 772.673,331.988 
					772.666,331.988 791.215,313.77 791.308,313.677 791.11,313.474 772.821,331.436 772.463,331.788 772.458,331.788 
					772.458,331.79 772.458,331.793 772.458,307.424 772.458,305.613 772.168,305.613 772.168,305.718 772.168,331.669 
					772.168,331.677 753.881,313.719 753.869,313.709 753.666,313.913 754.284,314.52 772.075,331.988 772.065,331.988 
					746.19,331.988 746.153,331.988 746.145,332.272 746.145,332.277 746.158,332.277 771.96,332.277 771.953,332.287 
					753.626,350.288 753.826,350.49 758.64,345.767 772.153,332.493 772.168,332.479 772.168,358.126 772.168,358.29 
					772.458,358.29 772.458,358.178 772.458,332.37 772.458,332.361 790.785,350.361 790.972,350.546 791.175,350.343 
					791.137,350.305 772.801,332.297 				"/>
			</g>
			<g>
				<polygon style="fill:none;" points="800.394,449.254 818.684,431.293 800.42,449.228 				"/>
				<polygon style="fill:#F5E981;" points="800.394,449.254 800.42,449.228 818.684,431.293 805.496,436.607 800.037,449.607 				
					"/>
				<polygon style="fill:#AB9030;" points="800.247,449.807 813.237,444.713 818.871,431.509 800.239,449.807 				"/>
				<polygon style="fill:#F5E981;" points="826.437,449.807 813.062,444.706 813.042,444.713 800.049,449.807 				"/>
				<polygon style="fill:#AB9030;" points="800.279,450.065 800.299,450.085 813.119,455.116 826.44,450.095 				"/>
				<polygon style="fill:#AB9030;" points="792.864,447.186 786.576,444.734 773.727,449.807 799.602,449.807 				"/>
				
					<line style="fill:none;stroke:#F5E981;stroke-width:0;stroke-linecap:round;stroke-linejoin:round;" x1="773.719" y1="450.09" x2="773.719" y2="450.09"/>
				<polygon style="fill:#F5E981;" points="799.536,450.095 773.734,450.095 786.756,455.116 799.526,450.105 				"/>
				<polygon style="fill:#F5E981;" points="818.756,468.169 813.164,455.162 800.324,450.083 				"/>
				<polygon style="fill:#F5E981;" points="799.744,423.422 794.512,436.639 794.783,437.332 799.744,449.498 				"/>
				<polygon style="fill:#AB9030;" points="800.034,449.607 800.034,449.607 800.037,449.607 805.496,436.607 800.032,423.445 
					800.032,423.435 800.032,425.243 800.032,449.612 				"/>
				<polygon style="fill:#AB9030;" points="800.032,450.155 805.669,463.154 805.666,463.164 805.666,463.168 818.543,468.363 
					800.032,450.146 				"/>
				<polygon style="fill:#AB9030;" points="799.744,449.488 794.815,437.411 794.497,436.636 781.457,431.538 799.744,449.495 				
					"/>
				<polygon style="fill:#F5E981;" points="799.674,449.834 781.868,432.344 781.255,431.743 786.576,444.727 792.909,447.19 
					799.671,449.83 				"/>
				<polygon style="fill:#F5E981;" points="800.032,450.181 800.032,476.14 805.681,463.255 805.686,463.245 				"/>
				<polygon style="fill:#AB9030;" points="799.731,450.307 794.47,462.883 794.465,462.887 799.747,476.077 799.747,450.292 				
					"/>
				<polygon style="fill:#F5E981;" points="799.727,450.311 786.211,463.585 781.427,468.298 794.462,462.889 794.465,462.889 				
					"/>
				<polygon style="fill:#AB9030;" points="786.756,455.116 781.2,468.106 799.526,450.105 				"/>
				<polygon style="fill:#C3AA2F;" points="800.352,450.095 826.44,450.095 826.447,449.807 826.39,449.807 800.247,449.807 
					800.239,449.807 818.791,431.589 818.884,431.495 818.684,431.293 800.394,449.254 800.037,449.607 800.034,449.607 
					800.034,449.607 800.032,449.612 800.032,425.243 800.032,423.43 799.744,423.43 799.744,423.537 799.744,449.488 
					799.744,449.495 781.457,431.538 781.442,431.526 781.24,431.732 781.86,432.338 799.651,449.807 799.639,449.807 
					773.766,449.807 773.727,449.807 773.719,450.09 773.719,450.095 773.734,450.095 799.536,450.095 799.526,450.105 
					781.2,468.106 781.402,468.309 786.211,463.585 799.727,450.311 799.744,450.297 799.744,475.942 799.744,476.107 
					800.032,476.107 800.032,475.997 800.032,450.188 800.032,450.18 818.359,468.18 818.546,468.365 818.751,468.16 
					818.711,468.124 800.377,450.116 				"/>
			</g>
			<g>
				<polygon style="fill:none;" points="789.293,559.552 807.583,541.59 789.318,559.527 				"/>
				<polygon style="fill:#F5E981;" points="789.293,559.552 789.318,559.527 807.583,541.59 794.397,546.907 788.936,559.902 				
					"/>
				<polygon style="fill:#AB9030;" points="789.146,560.105 802.138,555.011 807.768,541.808 789.138,560.105 				"/>
				<polygon style="fill:#F5E981;" points="815.334,560.105 801.961,555.003 801.938,555.011 788.951,560.105 				"/>
				<polygon style="fill:#AB9030;" points="789.178,560.362 789.198,560.382 802.018,565.414 815.336,560.393 				"/>
				<polygon style="fill:#AB9030;" points="781.763,557.483 775.475,555.033 762.625,560.105 788.503,560.105 				"/>
				
					<line style="fill:none;stroke:#F5E981;stroke-width:0;stroke-linecap:round;stroke-linejoin:round;" x1="762.618" y1="560.39" x2="762.618" y2="560.39"/>
				<polygon style="fill:#F5E981;" points="788.433,560.393 762.63,560.393 775.653,565.414 788.425,560.405 				"/>
				<polygon style="fill:#F5E981;" points="807.653,578.466 802.061,565.461 789.223,560.382 				"/>
				<polygon style="fill:#F5E981;" points="788.64,533.719 783.409,546.94 783.682,547.63 788.64,559.797 				"/>
				<polygon style="fill:#AB9030;" points="788.933,559.907 788.933,559.902 788.936,559.902 794.397,546.907 788.928,533.744 
					788.928,533.734 788.928,535.541 788.928,559.91 				"/>
				<polygon style="fill:#AB9030;" points="788.928,560.453 794.567,573.453 794.565,573.462 794.565,573.468 807.442,578.659 
					788.928,560.443 				"/>
				<polygon style="fill:#AB9030;" points="788.64,559.787 783.712,547.713 783.396,546.934 770.356,541.836 788.64,559.795 				"/>
				<polygon style="fill:#F5E981;" points="788.576,560.132 770.767,542.641 770.154,542.041 775.475,555.023 781.808,557.49 
					788.568,560.127 				"/>
				<polygon style="fill:#F5E981;" points="788.928,560.48 788.928,586.438 794.577,573.553 794.585,573.543 				"/>
				<polygon style="fill:#AB9030;" points="788.63,560.607 783.366,573.182 783.366,573.185 788.643,586.373 788.643,560.593 				
					"/>
				<polygon style="fill:#F5E981;" points="788.625,560.607 775.113,573.883 770.329,578.594 783.361,573.187 783.366,573.187 				
					"/>
				<polygon style="fill:#AB9030;" points="775.653,565.414 770.099,578.406 788.425,560.405 				"/>
				<polygon style="fill:#C3AA2F;" points="789.253,560.393 815.336,560.393 815.346,560.105 815.291,560.105 789.146,560.105 
					789.138,560.105 807.688,541.891 807.78,541.793 807.583,541.59 789.293,559.552 788.936,559.902 788.933,559.902 
					788.933,559.907 788.928,559.91 788.928,535.541 788.928,533.727 788.64,533.727 788.64,533.834 788.64,559.787 788.64,559.795 
					770.356,541.836 770.341,541.826 770.141,542.028 770.757,542.636 788.548,560.105 788.538,560.105 762.665,560.105 
					762.625,560.105 762.618,560.39 762.618,560.393 762.63,560.393 788.433,560.393 788.425,560.405 770.099,578.406 
					770.299,578.606 775.113,573.883 788.625,560.607 788.64,560.595 788.64,586.242 788.64,586.408 788.928,586.408 
					788.928,586.295 788.928,560.485 788.928,560.478 807.257,578.479 807.445,578.661 807.65,578.459 807.61,578.421 
					789.273,560.413 				"/>
			</g>
			<g>
				<polygon style="fill:none;" points="734.861,667.343 753.151,649.381 734.884,667.318 				"/>
				<polygon style="fill:#F5E981;" points="734.861,667.343 734.884,667.318 753.151,649.381 739.963,654.698 734.501,667.695 				
					"/>
				<polygon style="fill:#AB9030;" points="734.711,667.898 747.704,662.802 753.338,649.601 734.704,667.898 				"/>
				<polygon style="fill:#F5E981;" points="760.901,667.898 747.529,662.797 747.506,662.802 734.516,667.898 				"/>
				<polygon style="fill:#AB9030;" points="734.746,668.153 734.766,668.173 747.586,673.207 760.907,668.186 				"/>
				<polygon style="fill:#AB9030;" points="727.328,665.274 721.043,662.824 708.193,667.898 734.068,667.898 				"/>
				
					<line style="fill:none;stroke:#F5E981;stroke-width:0;stroke-linecap:round;stroke-linejoin:round;" x1="708.186" y1="668.181" x2="708.186" y2="668.181"/>
				<polygon style="fill:#F5E981;" points="734.001,668.186 708.198,668.186 721.221,673.207 733.993,668.196 				"/>
				<polygon style="fill:#F5E981;" points="753.223,686.26 747.631,673.252 734.791,668.173 				"/>
				<polygon style="fill:#F5E981;" points="734.208,641.513 728.977,654.73 729.247,655.423 734.208,667.588 				"/>
				<polygon style="fill:#AB9030;" points="734.501,667.698 734.501,667.695 734.501,667.695 739.963,654.698 734.499,641.538 
					734.499,641.525 734.499,643.332 734.499,667.7 				"/>
				<polygon style="fill:#AB9030;" points="734.499,668.243 740.135,681.246 740.13,681.253 740.13,681.258 753.008,686.45 
					734.499,668.236 				"/>
				<polygon style="fill:#AB9030;" points="734.208,667.578 729.28,655.503 728.962,654.725 715.922,649.626 734.208,667.588 				
					"/>
				<polygon style="fill:#F5E981;" points="734.141,667.925 716.335,650.432 715.722,649.832 721.043,662.814 727.373,665.281 
					734.136,667.921 				"/>
				<polygon style="fill:#F5E981;" points="734.499,668.273 734.499,694.228 740.145,681.346 740.151,681.333 				"/>
				<polygon style="fill:#AB9030;" points="734.198,668.398 728.937,680.973 728.932,680.976 734.211,694.163 734.211,668.383 				
					"/>
				<polygon style="fill:#F5E981;" points="734.191,668.398 720.678,681.674 715.894,686.387 728.929,680.978 728.932,680.978 				
					"/>
				<polygon style="fill:#AB9030;" points="721.221,673.207 715.664,686.197 733.993,668.196 				"/>
				<polygon style="fill:#C3AA2F;" points="734.819,668.186 760.907,668.186 760.914,667.898 760.856,667.898 734.711,667.898 
					734.704,667.898 753.256,649.681 753.348,649.586 753.151,649.381 734.861,667.343 734.501,667.695 734.501,667.695 
					734.501,667.698 734.499,667.7 734.499,643.332 734.499,641.52 734.208,641.52 734.208,641.625 734.208,667.578 
					734.208,667.588 715.922,649.626 715.909,649.616 715.707,649.819 716.325,650.427 734.116,667.898 734.106,667.898 
					708.231,667.898 708.193,667.898 708.186,668.181 708.186,668.186 708.198,668.186 734.001,668.186 733.993,668.196 
					715.664,686.197 715.867,686.397 720.678,681.674 734.191,668.398 734.208,668.386 734.208,694.033 734.208,694.198 
					734.499,694.198 734.499,694.088 734.499,668.276 734.499,668.268 752.825,686.27 753.013,686.455 753.216,686.25 
					753.178,686.212 734.841,668.203 				"/>
			</g>
			<g>
				<polygon style="fill:none;" points="650.346,749.709 668.635,731.745 650.371,749.681 				"/>
				<polygon style="fill:#F5E981;" points="650.346,749.709 650.371,749.681 668.635,731.745 655.45,737.062 649.988,750.062 				
					"/>
				<polygon style="fill:#AB9030;" points="650.198,750.262 663.191,745.168 668.823,731.965 650.188,750.262 				"/>
				<polygon style="fill:#F5E981;" points="676.386,750.262 663.016,745.163 662.993,745.168 650.001,750.262 				"/>
				<polygon style="fill:#AB9030;" points="650.231,750.519 650.251,750.539 663.071,755.573 676.391,750.552 				"/>
				<polygon style="fill:#AB9030;" points="642.815,747.64 636.528,745.19 623.678,750.262 649.556,750.262 				"/>
				
					<line style="fill:none;stroke:#F5E981;stroke-width:0;stroke-linecap:round;stroke-linejoin:round;" x1="623.67" y1="750.544" x2="623.67" y2="750.544"/>
				<polygon style="fill:#F5E981;" points="649.488,750.552 623.683,750.552 636.708,755.573 649.48,750.562 				"/>
				<polygon style="fill:#F5E981;" points="668.708,768.623 663.116,755.616 650.276,750.539 				"/>
				<polygon style="fill:#F5E981;" points="649.695,723.876 644.462,737.096 644.734,737.787 649.695,749.954 				"/>
				<polygon style="fill:#AB9030;" points="649.986,750.064 649.986,750.062 649.988,750.062 655.45,737.062 649.983,723.901 
					649.983,723.891 649.983,725.698 649.983,750.066 				"/>
				<polygon style="fill:#AB9030;" points="649.983,750.609 655.62,763.61 655.618,763.62 655.618,763.624 668.495,768.819 
					649.983,750.602 				"/>
				<polygon style="fill:#AB9030;" points="649.695,749.944 644.764,737.867 644.449,737.089 631.409,731.992 649.695,749.951 				
					"/>
				<polygon style="fill:#F5E981;" points="649.628,750.292 631.819,732.798 631.206,732.198 636.528,745.183 642.86,747.645 
					649.623,750.284 				"/>
				<polygon style="fill:#F5E981;" points="649.983,750.637 649.983,776.594 655.633,763.712 655.638,763.699 				"/>
				<polygon style="fill:#AB9030;" points="649.683,750.762 644.422,763.339 644.417,763.342 649.698,776.532 649.698,750.749 				
					"/>
				<polygon style="fill:#F5E981;" points="649.678,750.767 636.165,764.04 631.381,768.753 644.417,763.344 644.417,763.344 				
					"/>
				<polygon style="fill:#AB9030;" points="636.708,755.573 631.151,768.561 649.48,750.562 				"/>
				<polygon style="fill:#C3AA2F;" points="650.304,750.552 676.391,750.552 676.399,750.262 676.344,750.262 650.198,750.262 
					650.188,750.262 668.743,732.045 668.833,731.952 668.635,731.745 650.346,749.709 649.988,750.062 649.986,750.062 
					649.986,750.064 649.983,750.066 649.983,725.698 649.983,723.886 649.695,723.886 649.695,723.991 649.695,749.944 
					649.695,749.951 631.409,731.992 631.394,731.982 631.194,732.185 631.812,732.793 649.603,750.262 649.59,750.262 
					623.718,750.262 623.678,750.262 623.67,750.544 623.67,750.552 623.683,750.552 649.488,750.552 649.48,750.562 
					631.151,768.561 631.351,768.763 636.165,764.04 649.678,750.767 649.695,750.752 649.695,776.397 649.695,776.562 
					649.983,776.562 649.983,776.452 649.983,750.642 649.983,750.634 668.31,768.633 668.498,768.821 668.703,768.616 
					668.663,768.581 650.326,750.569 				"/>
			</g>
			<g>
				<polygon style="fill:none;" points="527.874,794.471 546.163,776.512 527.896,794.446 				"/>
				<polygon style="fill:#F5E981;" points="527.874,794.471 527.896,794.446 546.163,776.512 532.976,781.826 527.514,794.824 				
					"/>
				<polygon style="fill:#AB9030;" points="527.724,795.026 540.716,789.932 546.351,776.727 527.716,795.026 				"/>
				<polygon style="fill:#F5E981;" points="553.914,795.026 540.541,789.925 540.519,789.932 527.529,795.026 				"/>
				<polygon style="fill:#AB9030;" points="527.759,795.284 527.779,795.304 540.596,800.335 553.919,795.314 				"/>
				<polygon style="fill:#AB9030;" points="520.341,792.404 514.053,789.952 501.203,795.026 527.081,795.026 				"/>
				
					<line style="fill:none;stroke:#F5E981;stroke-width:0;stroke-linecap:round;stroke-linejoin:round;" x1="501.196" y1="795.306" x2="501.196" y2="795.306"/>
				<polygon style="fill:#F5E981;" points="527.016,795.314 501.211,795.314 514.233,800.335 527.003,795.327 				"/>
				<polygon style="fill:#F5E981;" points="546.236,813.388 540.641,800.38 527.804,795.304 				"/>
				<polygon style="fill:#F5E981;" points="527.221,768.641 521.989,781.859 522.262,782.552 527.221,794.718 				"/>
				<polygon style="fill:#AB9030;" points="527.514,794.829 527.514,794.824 527.514,794.824 532.976,781.826 527.509,768.663 
					527.509,768.653 527.509,770.462 527.509,794.831 				"/>
				<polygon style="fill:#AB9030;" points="527.509,795.371 533.148,808.374 533.143,808.382 533.143,808.387 546.021,813.581 
					527.509,795.364 				"/>
				<polygon style="fill:#AB9030;" points="527.221,794.706 522.292,782.632 521.974,781.854 508.934,776.757 527.221,794.716 				
					"/>
				<polygon style="fill:#F5E981;" points="527.153,795.054 509.347,777.563 508.734,776.96 514.053,789.945 520.386,792.412 
					527.148,795.049 				"/>
				<polygon style="fill:#F5E981;" points="527.509,795.401 527.509,821.359 533.158,808.474 533.163,808.464 				"/>
				<polygon style="fill:#AB9030;" points="527.211,795.527 521.947,808.104 521.944,808.106 527.223,821.294 527.223,795.514 				
					"/>
				<polygon style="fill:#F5E981;" points="527.203,795.529 513.69,808.804 508.907,813.516 521.942,808.106 521.944,808.106 				
					"/>
				<polygon style="fill:#AB9030;" points="514.233,800.335 508.677,813.325 527.003,795.327 				"/>
				<polygon style="fill:#C3AA2F;" points="527.831,795.314 553.919,795.314 553.927,795.026 553.869,795.026 527.724,795.026 
					527.716,795.026 546.268,776.81 546.361,776.715 546.163,776.512 527.874,794.471 527.514,794.824 527.514,794.824 
					527.514,794.829 527.509,794.831 527.509,770.462 527.509,768.648 527.221,768.648 527.221,768.756 527.221,794.706 
					527.221,794.716 508.934,776.757 508.922,776.745 508.719,776.95 509.337,777.558 527.128,795.026 527.118,795.026 
					501.243,795.026 501.203,795.026 501.196,795.306 501.196,795.314 501.211,795.314 527.016,795.314 527.003,795.327 
					508.677,813.325 508.879,813.528 513.69,808.804 527.203,795.529 527.221,795.517 527.221,821.161 527.221,821.329 
					527.509,821.329 527.509,821.216 527.509,795.407 527.509,795.399 545.838,813.4 546.025,813.583 546.228,813.38 
					546.188,813.343 527.854,795.334 				"/>
			</g>
			<g>
				<polygon style="fill:none;" points="471.894,177.238 517.448,132.497 471.959,177.174 				"/>
				<polygon style="fill:#F5E981;" points="471.894,177.238 471.959,177.174 517.448,132.497 484.608,145.733 471,178.117 				"/>
				<polygon style="fill:#AB9030;" points="471.524,178.619 503.885,165.928 517.916,133.038 471.508,178.619 				"/>
				<polygon style="fill:#F5E981;" points="536.761,178.619 503.445,165.909 503.395,165.928 471.036,178.619 				"/>
				<polygon style="fill:#AB9030;" points="471.608,179.258 471.662,179.308 503.588,191.843 536.763,179.335 				"/>
				<polygon style="fill:#AB9030;" points="453.136,172.087 437.477,165.985 405.471,178.619 469.922,178.619 				"/>
				
					<line style="fill:none;stroke:#F5E981;stroke-width:0;stroke-linecap:round;stroke-linejoin:round;" x1="405.443" y1="179.319" x2="405.443" y2="179.319"/>
				<polygon style="fill:#F5E981;" points="469.759,179.335 405.481,179.335 437.922,191.843 469.734,179.358 				"/>
				<polygon style="fill:#F5E981;" points="517.631,224.353 503.703,191.955 471.721,179.303 				"/>
				<polygon style="fill:#F5E981;" points="470.268,112.895 457.241,145.82 457.911,147.543 470.268,177.847 				"/>
				<polygon style="fill:#AB9030;" points="470.997,178.12 470.997,178.117 471,178.117 484.608,145.733 470.985,112.953 
					470.985,112.93 470.985,117.43 470.985,178.132 				"/>
				<polygon style="fill:#AB9030;" points="470.982,179.48 485.028,211.861 485.018,211.886 485.026,211.899 517.098,224.838 
					470.982,179.462 				"/>
				<polygon style="fill:#AB9030;" points="470.268,177.818 457.991,147.741 457.202,145.81 424.721,133.113 470.268,177.839 				
					"/>
				<polygon style="fill:#F5E981;" points="470.103,178.686 425.746,135.115 424.219,133.619 437.477,165.963 453.244,172.096 
					470.087,178.676 				"/>
				<polygon style="fill:#F5E981;" points="470.985,179.548 470.985,244.209 485.061,212.114 485.071,212.088 				"/>
				<polygon style="fill:#AB9030;" points="470.238,179.863 457.139,211.19 457.128,211.196 470.274,244.043 470.274,179.827 				
					"/>
				<polygon style="fill:#F5E981;" points="470.232,179.873 436.567,212.936 424.648,224.674 457.122,211.206 457.133,211.201 				
					"/>
				<polygon style="fill:#AB9030;" points="437.922,191.843 424.08,224.197 469.734,179.358 				"/>
				<polygon style="fill:#C3AA2F;" points="471.791,179.335 536.763,179.335 536.786,178.619 536.646,178.619 471.524,178.619 
					471.508,178.619 517.714,133.237 517.949,133.006 517.448,132.497 471.894,177.238 471,178.117 470.997,178.117 470.997,178.12 
					470.985,178.132 470.985,117.43 470.985,112.913 470.268,112.913 470.268,113.178 470.268,177.818 470.268,177.839 
					424.721,133.113 424.688,133.081 424.188,133.591 425.73,135.106 470.04,178.619 470.015,178.619 405.563,178.619 
					405.464,178.619 405.443,179.319 405.443,179.335 405.481,179.335 469.759,179.335 469.734,179.358 424.08,224.197 
					424.583,224.706 436.567,212.936 470.232,179.873 470.268,179.837 470.268,243.722 470.268,244.133 470.985,244.133 
					470.985,243.848 470.985,179.564 470.985,179.543 516.643,224.379 517.111,224.839 517.614,224.331 517.519,224.238 
					471.843,179.385 				"/>
			</g>
		</g>
	</g>
</g>
<g id="Layer_2">
</g>
</svg>
