<?xml version="1.0" encoding="iso-8859-1"?>
<!-- Generator: Adobe Illustrator 29.7.1, SVG Export Plug-In . SVG Version: 9.03 Build 0)  -->
<svg version="1.1" id="Layer_1" xmlns="http://www.w3.org/2000/svg" xmlns:xlink="http://www.w3.org/1999/xlink" x="0px" y="0px"
	 viewBox="0 0 800 800" style="enable-background:new 0 0 800 800;" xml:space="preserve">
<g>
	<path style="fill:#435261;" d="M566.411,403.676l-15.374-13.302l-5.682,6.551l15.374,13.369l0.401-2.005l0.334-2.005
		c0.134-0.602,0.535-1.07,1.07-1.27l2.005-0.668L566.411,403.676z"/>
	<path style="fill:#435261;" d="M571.291,413.035c-0.067,0.267-0.267,0.468-0.468,0.535l-2.005,0.735l-1.939,0.668
		c-0.267,0.067-0.535,0-0.735-0.134l-1.537-1.337l-1.604-1.404c-0.201-0.134-0.267-0.401-0.267-0.668l0.401-2.072l0.401-2.005
		c0.067-0.267,0.201-0.468,0.468-0.602l1.939-0.668l2.005-0.668c0.267-0.067,0.535-0.067,0.735,0.134l1.537,1.337l1.604,1.404
		c0.201,0.134,0.267,0.401,0.201,0.668l-0.334,2.072L571.291,413.035z"/>
	<path style="fill:#435261;" d="M608.189,268.382l-20.321,0.735l0.334,8.623l20.321-0.668l-1.003-1.738l-1.136-1.738
		c-0.334-0.468-0.334-1.136-0.067-1.604l1.003-1.872L608.189,268.382z"/>
	<path style="fill:#435261;" d="M617.948,271.925c0.134,0.201,0.134,0.468,0.067,0.668l-1.003,1.872l-0.936,1.872
		c-0.134,0.201-0.401,0.334-0.668,0.334l-2.072,0.134l-2.072,0.067c-0.267,0-0.535-0.134-0.668-0.334l-1.069-1.805l-1.136-1.738
		c-0.134-0.201-0.134-0.535,0-0.735l0.936-1.805l1.003-1.872c0.134-0.267,0.334-0.401,0.602-0.401l2.072-0.067l2.072-0.067
		c0.267,0,0.535,0.067,0.668,0.334l1.07,1.738L617.948,271.925z"/>
	<path style="fill:#435261;" d="M425.702,76.67c0.267-0.067,0.535-0.067,0.735,0.067l1.671,1.136l1.604,1.136
		c0.267,0.2,0.334,0.401,0.334,0.668l-0.134,2.005l-0.201,2.005c0,0.267-0.134,0.468-0.401,0.602l-1.805,0.869l-1.872,0.869
		c-0.201,0.134-0.468,0.067-0.668-0.067l-1.671-1.136l-1.671-1.136c-0.201-0.201-0.334-0.401-0.267-0.668l0.134-2.005l0.134-2.005
		c0.067-0.267,0.201-0.468,0.468-0.602l1.805-0.869L425.702,76.67z"/>
	<path style="fill-rule:evenodd;clip-rule:evenodd;fill:#FBC548;" d="M396.758,182.419c7.62,2.206,13.302,7.821,16.043,14.639
		c-0.468-0.067-0.869-0.067-1.337-0.067c-5.348,0-8.289,5.414-10.829,9.291c-0.267,0.401-0.602,0.936-0.936,1.471
		c-2.607-0.668-5.414-0.134-8.155,1.27c-0.334,0.201-0.735,0.468-1.136,0.668l-1.805,0.936l-0.936,1.738
		c-1.604,2.807-4.278,5.682-6.35,8.222c-1.805,2.139-3.743,4.144-5.682,6.083c-8.623-5.882-12.901-16.912-9.759-27.54
		C369.753,185.962,383.59,178.475,396.758,182.419L396.758,182.419z"/>
	<path style="fill-rule:evenodd;clip-rule:evenodd;fill:#435261;" d="M579.914,361.364c-1.805-1.003-4.412-2.54-6.618-2.072
		c-1.938,0.401-3.209,2.005-4.345,3.409c-1.938,3.008-3.877,5.949-5.615,9.091c-1.604,2.807-3.075,5.749-4.479,8.69
		c-0.602,1.537-1.136,3.075-0.936,4.612c0.067,0.602,0.201,1.003,0.468,1.537c0.602,1.337,1.671,2.473,4.345,4.011
		c3.476,2.005,5.615,1.805,7.152,1.136c1.07-0.468,1.805-1.07,3.075-2.807l8.356-13.636c0.535-0.869,1.003-1.604,2.206-1.805
		c0.201,0,0.735-0.067,1.27,0.201c0.468,0.334,0.735,0.869,0.869,1.003c0.401,1.003,0,1.872-0.468,2.741
		c-0.735,1.337-1.404,2.741-2.206,4.078c-0.936,1.671-2.005,3.409-3.075,5.013c-1.203,1.805-1.671,1.939-3.743,1.337l-4.011,7.019
		c2.072,1.27,4.211,2.473,6.618,1.738c1.938-0.602,3.142-2.072,3.476-2.473l0.936-1.203c1.671-2.674,3.476-5.348,5.013-8.155
		c1.404-2.54,2.741-5.147,4.078-7.687c0.869-2.072,1.604-4.011,0.869-6.15c-0.201-0.668-0.535-1.27-0.936-1.805
		c-1.203-1.471-3.81-2.941-4.011-3.008c-2.406-1.404-4.211-1.537-5.481-1.337c-1.872,0.468-3.008,1.872-3.342,2.34
		c-0.267,0.267-0.535,0.602-0.735,0.869c-0.668,1.07-1.404,2.072-2.072,3.142c-2.139,3.275-4.078,6.618-6.083,10.027
		c-1.136,1.471-1.537,2.206-2.674,2.34c-0.602,0.067-1.003-0.134-1.203-0.267c-0.802-0.468-1.203-1.537-1.07-2.406
		c0.067-0.869,0.735-1.805,0.869-2.072c0.869-1.604,1.738-3.209,2.674-4.746c0.802-1.471,1.738-2.874,2.607-4.345
		c1.003-1.404,1.671-1.939,2.607-1.738c0.535,0.067,0.936,0.334,1.471,0.602L579.914,361.364z"/>
	<polygon style="fill-rule:evenodd;clip-rule:evenodd;fill:#435261;" points="609.86,332.687 584.058,323.596 574.232,351.671 
		580.047,353.676 587.267,333.289 591.812,334.893 584.994,354.211 590.408,356.083 597.227,336.831 601.505,338.302 
		594.352,358.69 600.034,360.695 	"/>
	<polygon style="fill-rule:evenodd;clip-rule:evenodd;fill:#435261;" points="615.475,294.786 616.612,284.625 597.16,297.526 
		587.668,296.39 586.732,304.679 596.224,305.815 612.133,323.128 613.403,312.567 603.309,302.406 	"/>
	<path style="fill-rule:evenodd;clip-rule:evenodd;fill:#435261;" d="M602.44,231.484l3.008,12.968
		c0.267,1.671,0.602,3.275-0.267,4.612c-0.802,1.136-1.872,1.537-3.075,1.872l-3.342,0.802c-2.741,0.602-5.214,1.003-6.484-2.072
		c-0.334-0.802-0.468-1.537-0.535-1.805l-3.075-13.235L602.44,231.484z M607.053,221.858l-26.671,6.217l5.815,24.933
		c0.602,2.206,1.136,4.078,2.807,5.749c1.738,1.671,4.211,2.473,9.091,1.537c0.602-0.134,1.203-0.267,1.872-0.401l4.278-1.003
		c2.34-0.602,4.813-1.337,6.685-3.008c1.471-1.404,2.674-3.543,2.072-7.754c-0.067-0.735-0.201-1.404-0.334-2.139L607.053,221.858z"
		/>
	<polygon style="fill-rule:evenodd;clip-rule:evenodd;fill:#435261;" points="591.277,183.689 566.277,194.786 578.309,221.925 
		583.991,219.451 575.234,199.665 579.646,197.727 587.935,216.376 593.216,214.037 584.86,195.387 589.005,193.515 
		597.828,213.302 603.376,210.828 	"/>
	<polygon style="fill-rule:evenodd;clip-rule:evenodd;fill:#435261;" points="570.422,153.208 548.095,169.117 563.537,190.842 
		569.085,186.898 558.456,171.924 575.301,160.026 	"/>
	<polygon style="fill-rule:evenodd;clip-rule:evenodd;fill:#435261;" points="541.545,123.796 522.627,143.582 544.085,164.104 
		548.43,159.625 532.788,144.652 536.13,141.176 550.903,155.28 554.847,151.136 540.074,137.031 543.216,133.756 558.857,148.662 
		563.069,144.317 	"/>
	<path style="fill-rule:evenodd;clip-rule:evenodd;fill:#435261;" d="M507.454,107.954l11.832,7.62
		c0.936,0.602,1.671,1.136,1.738,2.34c0.067,0.468-0.067,1.003-0.334,1.471c-0.401,0.602-1.003,0.802-1.203,0.869
		c-1.136,0.468-2.005-0.134-2.941-0.802l-11.698-7.487L507.454,107.954z M501.905,116.51l12.3,7.955
		c1.069,0.668,2.005,1.203,2.072,2.607c0,0.535-0.067,1.003-0.401,1.537c-0.267,0.401-0.535,0.602-0.668,0.668
		c-0.869,0.735-1.671,0.468-2.674,0.067l-13.369-8.623L501.905,116.51z M509.459,134.692c3.142,2.206,4.88,3.142,6.885,3.075
		c0.802-0.067,1.404-0.201,1.671-0.334c1.203-0.334,2.607-1.069,4.011-3.275c1.805-2.741,1.872-4.211,1.337-5.615
		c-0.401-1.337-1.337-2.139-2.34-3.008c0.936,0.267,1.938,0.602,3.008,0.468c1.404-0.201,2.674-0.869,4.278-3.409
		c1.537-2.406,1.604-4.211,1.203-5.414c-0.668-2.54-2.941-4.011-4.947-5.348l-20.588-13.302l-14.906,22.995L509.459,134.692z"/>
	<polygon style="fill-rule:evenodd;clip-rule:evenodd;fill:#435261;" points="455.381,82.018 447.828,108.422 473.496,115.708 
		475.368,109.224 457.721,104.144 463.403,84.357 	"/>
	<path style="fill-rule:evenodd;clip-rule:evenodd;fill:#435261;" d="M396.624,86.764c-0.401-2.54-0.802-4.746-2.807-6.551
		c-1.27-1.136-2.874-1.805-6.35-1.537c-2.139,0.134-4.144,0.468-6.217,0.869l-6.417,1.136c-1.07,0.201-2.072,0.401-3.142,0.602
		c-4.011,0.802-5.882,1.203-7.553,2.34c-2.941,1.939-3.677,4.746-3.476,8.155c0.067,1.203,0.201,2.34,0.401,3.476
		c0.201,0.869,0.334,1.671,0.468,2.406c0.602,3.075,1.003,7.219,3.342,9.626c0.267,0.201,0.869,0.802,1.738,1.27
		c2.874,1.471,5.816,1.003,8.757,0.468l13.302-2.34c2.34-0.401,5.08-0.869,7.086-2.206c2.406-1.604,2.874-4.078,2.674-6.885
		c-0.067-1.07-0.201-2.005-0.401-3.008c-0.201-1.872-0.602-3.676-0.869-5.481l-19.185,3.342l0.936,5.281l10.963-1.939
		c0.201,0.869,0.267,1.738-0.067,2.607c-0.602,1.404-2.005,1.738-3.61,2.072l-9.893,1.738c-1.537,0.134-3.008,0.334-4.144-0.468
		c-1.404-0.936-1.738-3.008-1.805-3.409c0-0.2-0.067-0.334-0.134-0.535l-0.602-3.543c-0.334-2.54-0.535-4.011,0.334-5.013
		c0.735-0.869,1.872-1.136,2.874-1.404l11.23-1.939c3.409-0.468,3.743,0.134,4.345,2.34L396.624,86.764z"/>
	<path style="fill-rule:evenodd;clip-rule:evenodd;fill:#435261;" d="M313.402,102.004l11.163,25l7.086-3.142l-8.489-19.118
		c3.209,1.872,6.484,3.743,9.759,5.548c4.412,2.473,8.89,4.746,13.302,7.086l11.965-5.348l-11.163-25l-7.019,3.142l3.476,7.754
		l5.281,11.431c-3.743-2.072-7.42-4.144-11.096-6.15c-4.078-2.273-8.222-4.345-12.366-6.551L313.402,102.004z"/>
	<path style="fill-rule:evenodd;clip-rule:evenodd;fill:#435261;" d="M273.362,139.371l10.628-9.158
		c0.869-0.735,1.537-1.337,2.741-1.003c0.468,0.067,0.936,0.334,1.27,0.735c0.468,0.535,0.535,1.136,0.602,1.404
		c0.067,1.203-0.735,1.872-1.671,2.607l-10.495,9.024L273.362,139.371z M279.98,147.192l11.096-9.559
		c0.936-0.869,1.738-1.604,3.075-1.27c0.535,0.134,1.003,0.334,1.404,0.802c0.267,0.334,0.401,0.668,0.468,0.802
		c0.401,1.07-0.067,1.738-0.735,2.54l-12.032,10.428L279.98,147.192z M299.565,145.053c3.008-2.473,4.412-3.81,4.88-5.749
		c0.201-0.802,0.201-1.404,0.201-1.738c0-1.203-0.334-2.741-2.005-4.746c-2.139-2.473-3.543-3.008-5.08-2.874
		c-1.337,0.067-2.406,0.668-3.543,1.404c0.535-0.802,1.136-1.671,1.27-2.741c0.267-1.404-0.067-2.807-2.005-5.08
		c-1.872-2.139-3.543-2.741-4.88-2.674c-2.54-0.067-4.612,1.671-6.484,3.209l-18.583,16.043l17.848,20.722L299.565,145.053z"/>
	<path style="fill-rule:evenodd;clip-rule:evenodd;fill:#435261;" d="M407.119,526.738c-60.094,0-115.04-22.193-157.086-58.757
		c3.81-0.802,7.219-2.206,10.495-4.144l3.676-2.807c0.201-0.134,7.019,5.281,8.155,6.016c37.567,28.209,84.158,44.92,134.76,44.92
		c24.733,0,49.198-3.409,72.059-11.297l0.134,0.134l5.214-1.939l14.84,9.425C470.956,520.121,439.806,526.738,407.119,526.738
		L407.119,526.738z"/>
	<path style="fill-rule:evenodd;clip-rule:evenodd;fill:#435261;" d="M408.991,45.454c132.153,0,239.239,107.153,239.239,239.239
		c0,52.54-16.912,101.137-45.655,140.575c-4.479-0.468-9.291-1.07-14.305-1.805c-0.468-0.134-1.003-0.267-1.471-0.334l8.623-13.302
		c24.933-37.032,38.102-80.348,38.102-125.134c0-123.998-100.535-224.533-224.533-224.533c-53.209,0-104.078,18.65-144.452,52.674
		c-4.412,3.543-10.094,8.021-14.973,12.5c-2.941-4.078-5.682-8.088-8.356-12.166c4.278-4.078,9.225-8.289,12.701-11.297
		C286.397,73.93,338.736,47.125,408.991,45.454L408.991,45.454z"/>
	<path style="fill-rule:evenodd;clip-rule:evenodd;fill:#435261;" d="M389.271,409.158l-2.072,0.936
		c-4.345,2.206-10.829,6.417-15.241,9.291c-4.813,3.209-10.628,6.618-11.497,13.837c7.152-4.479,59.826-37.901,23.663-11.765
		c-2.473,1.604-5.013,3.476-7.353,5.281c-4.345,3.342-9.893,6.283-14.439,9.893c13.77,2.874,35.294-18.516,41.645-22.126
		c-3.743,9.626-21.792,18.984-22.995,29.546c4.078-1.872,9.358-6.551,12.767-9.091c3.075-2.34,9.024-7.42,12.032-8.957
		c-2.139,4.211-15.508,15.976-20.187,19.786c-1.738,1.404-2.005,1.136-2.807,3.008c7.754,0.602,13.636-3.944,17.981-7.487
		c2.206-1.805,11.631-10.762,13.57-11.564c-3.476,6.35-5.481,7.487-9.559,11.765c-4.078,4.412-7.086,5.615-7.487,14.171
		c3.275-1.471,4.011-3.142,6.283-4.947l13.035-13.235c-0.802,2.139-4.88,8.289-4.947,8.356c-1.604,2.072-1.805,2.072-3.677,3.944
		s-2.072,2.674-4.412,4.011c-1.203,2.54-3.075,3.275-4.679,5.08c7.888-1.537,14.038-6.751,18.182-10.829
		c10.695-10.495,21.925-27.473,4.947-1.939c-3.743,5.749-5.481,10.495-5.348,18.784c3.075-2.674,14.171-21.324,18.984-24.866
		c-1.471,3.676-5.615,10.294-7.754,13.837c-1.872,3.209-6.685,11.163-7.487,13.971c10.361-4.078,21.056-22.326,23.864-30.816
		c-0.067,9.091-9.693,26.671-7.754,36.965c3.61-6.35,15.241-33.957,17.38-37.233c-1.872,6.618-4.144,13.235-6.283,19.719
		c-1.872,5.882-5.08,12.701-6.685,18.316c7.955-1.872,15.976-23.396,17.914-31.952c0.334,10.227-7.487,26.003-1.738,35.762
		c1.337-4.479,2.607-9.425,3.61-14.037c0.535-2.607,2.874-9.091,3.142-12.233c0.802,8.89-2.34,16.177-2.139,24.933
		c8.89-6.016,12.968-37.567,12.834-38.169c1.136,8.356-2.807,39.639,3.944,47.928l3.142-35.428
		c1.671,11.965,0.535,25.869,0.468,38.035c8.222-5.214,5.214-28.944,4.88-39.104c0.134,0.134,0.201,0.334,0.267,0.468l0.401,1.003
		c0.067,0.201,0.134,0.334,0.201,0.535c0.067,0.267,0.334,1.27,0.401,1.537c3.008,13.436,10.428,34.091,22.794,40.04
		c-0.869-2.674-3.676-6.551-5.281-9.425c-3.543-6.417-10.428-24.465-10.361-31.15c5.348,12.3,5.816,17.112,13.703,30.949
		c1.203,2.072,5.214,7.152,5.414,8.422c0.401-4.612-11.965-34.492-12.834-44.586c1.939,2.941,4.211,8.489,6.083,12.099
		c5.949,11.364,20.054,30.481,33.423,33.69c-4.412-7.019-19.519-17.714-28.075-38.235l10.896,15.04
		c0.936,1.136,1.738,2.206,2.807,3.543c3.543,4.545,8.021,9.158,12.099,13.235c1.136,1.003,6.417,4.947,2.941,0.936
		c-3.476-4.078-18.249-30.415-19.185-33.289c4.88,2.741,34.893,33.423,56.35,30.816c-1.471-1.136-15.775-5.949-36.631-21.591
		c-1.738-1.27-9.158-6.283-10.16-8.289c13.235,6.217,25.936,16.377,40.575,21.257c-1.136-2.674-1.671-2.741-4.011-5.147l-5.08-4.345
		c-2.941-2.54-15.508-9.96-18.717-11.832c-1.604-0.936-8.757-5.013-9.759-6.618c4.011,0.468,34.292,20.388,58.824,18.783
		l6.818-1.337c1.671-0.802,1.003-0.468,1.872-1.203c-18.449-1.136-39.171-7.553-50.268-16.778l21.123,7.821
		c4.947,1.671,16.377,5.013,22.66,5.281l-38.837-16.845c3.81,0.401,9.626,2.607,14.037,3.409c4.746,0.869,10.695,1.203,14.104,1.671
		c10.561,1.471,21.123-0.735,28.944-4.679c-2.072-1.27-1.872-0.535-1.872-0.535c-0.067,0-1.337,0.134-1.537,0.134
		c-1.404,0.134-2.807,0.334-4.211,0.468c-13.77,1.27-40.842-1.471-49.465-8.356c4.278,0.602,8.757,2.139,13.636,2.941
		c14.906,2.473,27.874,3.476,43.583,0.869c-2.206-1.203-5.882-1.07-8.422-1.27c-33.489-2.674-78.944-12.634-99.532-38.369
		c7.286,1.07,9.091,2.674,17.447,1.671l-5.013-2.941c-1.805-1.003-3.075-1.671-4.88-2.741c-10.428-6.283-12.5-3.676-17.179-3.476
		c-5.013,0.201-48.596-14.639-57.554-25.067c0.869-2.273,2.273-4.144,3.476-6.685c5.481-12.166,4.078-23.73,19.652-27.808
		c7.019-1.872,10.762-3.677,12.433,3.61c1.003-0.468,2.072-0.201,3.142-2.139c2.139-3.676,3.81-7.219,3.209-12.032
		c-1.537-11.23-15.441-10.361-17.914-12.634c-2.473-2.206-2.072-2.741-6.217-4.011c-5.882-1.738-12.901-1.404-19.318-0.936
		c4.278,1.872,14.104,1.136,20.187,4.612c1.805,1.07,3.342,3.075,4.011,3.476c2.072,1.27,18.316,0.869,13.971,16.444
		c-3.008-3.008-5.816-5.949-11.965-7.086c-3.676-0.668-8.489-0.468-11.965,0.802c-0.735,0.267-1.07,0.401-1.805,0.869
		c-1.537,1.003-0.267,0.067-1.27,0.936l8.489,1.136c-0.602,0.134-1.337,0.267-2.072,0.468c-3.476,1.003-7.086,3.275-9.024,6.417
		c2.607-1.337,5.214-2.674,9.024-2.874l-6.217,4.144c-1.671,1.337-3.676,3.409-5.214,4.947c-6.685,6.818-12.701,28.61-29.947,30.481
		v-4.612c11.364-6.885,17.914-12.834,23.997-25.334c-8.088,7.086-14.84,23.73-36.163,23.997c0.535-4.144,2.072-4.345,5.214-6.217
		c5.615-3.476,14.973-10.027,18.182-15.174c-5.882,4.011-20.187,16.176-30.816,13.837l-3.743-0.802
		c1.471-4.813,0.334-4.88,5.414-6.551c8.824-4.813,17.447-7.487,26.738-15.508l-19.652,8.824
		c-12.901,5.08-11.364,5.013-21.123,0.869c0.334-3.342,1.471-4.612,3.209-6.618c3.409-3.944,10.628-4.947,19.118-7.955
		c-9.893-0.134-18.917,4.011-26.671-2.741c1.537-4.746,9.826-8.89,16.377-10.695l-5.882-2.473
		c8.155-4.412,24.866-3.476,33.356-6.952c-9.425-0.535-19.185,0.201-28.677,1.003c-2.34,0.134-4.88,0.401-7.152,0.535
		c-3.209,0.201-3.476-0.201-5.214-1.938c-21.457-21.056-37.3-54.947-47.126-84.158c-4.011-11.965,2.406-9.893-8.89-20.923
		c-6.484-6.35-9.492-13.302-12.634-16.511c-0.267,6.885,2.674,11.297,3.676,17.046c-2.607-1.872-7.888-4.412-11.23-6.35
		c-10.829-6.35-16.31-11.096-25.602-18.115c-24.064-18.115-51.07-55.08-64.572-82.554c-3.877-7.821-7.754-15.308-11.163-23.73
		l-8.957-23.396c-0.535-1.136-0.468-0.802-0.802-1.337c-1.136,26.604,10.695,52.875,22.928,74.332l12.099,20.588
		c-6.551-3.61-22.594-29.345-26.136-36.965c-4.211-9.091-14.238-39.773-14.104-47.193c-3.944,22.326,3.743,44.653,12.032,61.364
		c9.826,19.92,26.738,40.04,28.476,43.583c-4.011-2.741-4.679-4.011-8.957-7.955l-8.155-8.89
		c-13.235-15.775-24.866-30.749-36.832-47.527c-1.337-1.872-5.414-7.42-6.417-9.492c0.201,10.628,15.575,35.227,20.521,42.246
		c6.685,9.358,20.455,25,29.078,34.091l-0.201,0.668c-3.342-4.011-18.85-8.088-42.046-47.594
		c-3.676-6.217-6.484-13.235-10.027-19.519c0.267,6.016,6.35,22.727,8.69,28.409c9.759,23.596,26.939,39.773,46.658,54.813
		c1.939,1.471,3.342,2.34,4.813,4.345c-8.89-2.607-19.719-11.898-26.671-17.981c-7.553-6.685-6.618-6.417-13.235-13.369
		c-6.016-6.283-10.829-12.5-16.043-19.452l-15.107-20.054c1.939,9.091,7.888,21.39,12.166,28.677
		c9.559,16.176,23.997,29.813,39.104,40.842c7.754,5.682,15.642,10.762,23.663,16.31c-12.701-3.61-38.369-21.39-47.326-31.35
		c-19.051-20.989-18.382-27.005-30.615-47.259c1.136,8.556,7.62,24.866,11.096,32.554c6.952,15.842,15.642,26.671,29.078,36.832
		c6.685,5.08,37.968,23.062,41.11,23.53c-4.211-0.267-17.714-6.885-21.992-9.024c-26.337-13.369-48.195-33.423-55.615-37.433
		c5.214,11.23,23.997,27.874,35.695,35.161c23.529,14.84,32.955,13.837,48.596,21.658c-13.102-0.602-39.84-12.767-49.198-18.516
		c-7.086-4.345-9.425-6.685-15.241-11.364c-1.805-1.471-2.941-2.206-4.412-3.877c-1.604-1.738-2.807-2.874-4.412-4.412
		l-11.898-13.703c1.939,10.361,9.626,20.12,14.906,25.869c12.3,13.436,33.556,22.326,51.27,28.61
		c3.142,1.136,4.345,1.27,6.618,2.206c2.807,1.07,4.947,1.671,7.754,2.473c2.406,0.735,13.168,3.61,15.04,5.013
		c-23.997-0.735-59.225-16.711-82.42-22.928c-1.136-0.869,1.939-1.604-1.671-0.401l1.537,1.203
		c3.877,3.543,10.695,7.487,16.243,10.094c27.874,13.035,48.195,14.104,59.893,18.783c-14.372-0.602-32.554-5.414-45.054-9.559
		c-7.086-2.406-12.834-5.08-19.118-8.222c-7.487-3.676-11.163-7.086-16.444-9.96c9.425,23.73,58.222,32.754,83.022,36.698
		c3.142,0.468,12.166,1.404,14.238,2.807c-12.634,0.468-28.476-1.27-40.642-3.142l-38.235-5.481
		c19.987,9.893,35.562,12.767,57.487,16.11c5.147,0.802,16.243,1.604,20.455,2.941c-24.8,1.337-53.877-5.414-76.07-13.837
		c12.032,20.588,61.832,21.992,83.891,23.596c-12.901,5.214-48.195-3.944-65.375-1.738c7.353,4.88,18.65,6.484,29.144,7.754
		c5.749,0.735,16.778,2.072,25.535,2.406c3.743,0.134,9.358,0.869,12.834,0.936c1.003,0,2.005,0,2.941,0
		c-4.211,1.939-19.586,1.337-24.398,1.136c-21.792-0.802-38.302-6.551-48.73-7.487c17.781,18.917,57.821,16.377,82.286,15.374
		c1.671-0.067,3.075-0.067,3.944,0.067c-13.77,6.083-44.853,4.345-61.832,7.42l4.746,1.805c18.449,4.612,31.952,1.537,49.666,2.473
		c-4.412,0.468-8.757,1.604-13.57,2.072c-20.989,2.206-27.741-1.136-43.249-1.27c-1.136,0.2-0.869-0.134-0.535,1.069
		c1.537,0.535,3.61,2.072,5.481,2.941c2.072,1.003,4.211,1.805,6.484,2.406c4.813,1.27,10.227,2.005,15.775,2.273l9.024-0.334
		c6.618-0.468,12.233-1.337,18.65-2.473c4.545-0.802,13.369-3.142,17.313-3.075c-9.425,4.679-18.65,5.281-28.944,8.088
		c-5.749,1.136-10.094,2.607-15.575,3.877c-1.939,1.003-0.869,0.468-1.671,1.337l6.685-0.134c3.81-0.201,10.628-0.936,13.77-0.668
		c-5.214,2.072-18.048,2.874-20.923,4.278c13.235,5.147,30.281-2.005,44.051-3.275c-3.342,2.54-17.447,5.882-21.658,7.487
		c16.11,2.874,25.602-1.872,37.032-2.406c-12.834,7.62-45.856,9.893-60.361,6.751c-11.23-2.473-50.134-12.701-57.487-12.968
		c5.348,4.011,42.981,14.906,54.211,17.513l8.222,2.34c-10.762,0.267-23.931-2.741-33.957-5.147
		c-5.281-1.27-10.294-2.54-15.642-4.078c-3.409-1.003-11.631-3.81-14.505-4.078c6.885,5.882,19.719,9.693,30.348,12.366
		c6.15,1.537,29.813,7.219,35.094,6.751c-22.259,3.543-71.524-5.481-79.011-21.858c1.805-1.404,4.278-2.807,5.682-4.345
		c-3.743-0.134-7.955,1.471-9.96,3.743c3.81,12.767,22.66,18.449,34.091,21.591c14.238,3.877,40.976,6.417,45.722,7.955
		c-12.701,1.337-26.671-0.201-38.971-1.939l-35.896-5.414c8.222,5.281,45.455,9.291,53.476,11.832
		c-13.102,0.535-24.398,0.067-37.901-0.735c-14.439-0.936-21.792-1.805-27.072-12.366c0.936-1.872,3.81-4.546,5.414-6.083
		l1.404-1.27c0.067-0.267,0.267-0.267,0.401-0.334c-5.013,0.735-8.89,3.275-10.963,7.019c0.735,6.35,6.417,11.765,11.564,13.904
		c7.821,3.275,37.032,3.81,46.858,3.944c7.888,0.134,17.513-0.401,25.134,0.267c-4.679,0-12.099,1.27-17.58,1.671
		c-5.682,0.401-12.099,0.602-17.714,1.27c-9.626,1.203-23.463,1.337-34.492,2.874l13.57,1.471c4.545,0.134,9.291,0.267,13.904,0.334
		c9.96,0.201,19.786-0.134,29.679,0l-4.211,1.671c-1.203,0.267-2.807,0.468-4.211,0.802c-3.075,0.602-5.548,1.003-8.556,1.537
		c-13.904,2.406-40.241,6.083-50.268-3.743c0.602-3.476,2.54-5.749,3.81-8.222c-3.877,0.936-7.553,5.147-7.42,10.227
		c3.476,2.674,4.88,4.545,10.562,6.484c14.171,4.679,31.618,1.805,46.324,1.337c-2.072,0.468-5.749,2.072-8.155,2.741l-25.869,6.885
		c11.965,1.471,34.024-5.548,43.516-6.551c-3.275,1.136-7.086,3.61-10.963,5.08c-8.489,3.342-38.904,11.497-41.11,5.214
		c-1.27-3.476,0.602,3.342-0.334-1.003l-0.334-6.751c-2.005,3.676-3.676,6.885-2.807,12.433c9.96,6.417,38.035-2.807,48.797-4.546
		c-0.602,0.602-0.535,0.602-1.404,1.27c-4.947,3.81-17.647,9.091-20.054,11.698c11.163-2.072,27.005-10.628,33.423-12.299
		c-2.473,3.409-13.636,11.364-19.051,13.971c-7.62,3.743-16.444,6.885-26.738,5.414c-0.602-3.142,0.535-6.417,0.802-9.626
		c-3.543,3.075-5.816,8.489-4.947,13.169c10.695,3.543,23.931-1.07,32.353-4.947c8.757-4.011,17.714-9.358,25.067-13.904
		c-7.152,7.019-9.358,8.088-16.845,13.837c-5.882,4.479-12.233,8.088-17.848,12.366c13.57-2.072,27.607-17.179,38.77-21.858
		c-8.423,13.436-27.874,26.604-43.784,25.735l-1.805-6.685c-1.604,3.075-1.939,7.219-1.07,10.896
		c9.559,3.877,24.265-4.011,29.278-7.955c10.027-7.821,19.251-18.182,20.455-19.051c-2.005,8.222-15.174,21.591-19.519,26.136
		c5.481-1.537,10.896-8.155,14.372-11.497l12.433-13.302c-1.404,9.091-6.283,14.238-11.765,19.719
		c-4.345,4.278-12.567,10.027-20.254,10.762l-3.142-4.278c-0.735,3.743-0.401,5.949,1.27,8.89
		c12.701,1.003,23.128-8.556,29.947-17.112c1.27-1.604,5.548-7.487,5.816-8.69c-1.07,7.487-7.62,16.511-10.562,23.195
		c5.414-3.209,14.84-21.324,18.783-28.476c1.537,10.094-11.564,32.152-21.257,34.893l-5.214-4.011
		c0.535,3.743,1.805,7.286,4.011,9.358c7.219-1.404,9.96-5.816,14.639-7.888c2.072,2.674,4.88,5.348,9.425,6.684
		c11.898-11.631,19.452-40.508,16.377-56.35c-3.476,3.61-5.816,6.818-12.166,8.289c1.671-2.941,4.078-3.476,5.481-7.687
		c-3.81,1.872-7.554,4.813-12.701,5.615c3.877-2.807,7.353-6.283,10.428-10.495c-3.409,0.735-12.233,6.952-15.909,4.746
		c2.139-1.203,3.944-2.741,6.417-4.412c1.939-1.337,4.078-2.674,6.618-4.144c9.291-5.214,7.42-1.537,17.112-1.738l-2.139,4.88
		c8.088-1.404,12.901-3.944,19.519-5.615c-2.072,1.805-5.615,5.013-6.751,7.62c8.957-0.735,22.193-7.888,27.34-12.099
		c-12.166-1.136-22.259,1.203-33.289,2.072c2.473-2.273,7.152-5.08,11.364-5.682l-7.888-1.604c2.34-2.741,7.955-4.746,12.767-5.147
		c-0.802,1.003-1.939,2.139-3.075,3.075c4.078,1.738,9.492,2.005,14.505,1.537c-1.604-1.604-2.807-1.872-4.412-3.877
		c4.947-3.476,14.906-3.075,21.123-2.206c-4.078,1.003-8.824,1.203-12.166,2.941c3.209,2.674,11.364,6.083,16.243,6.283
		c-1.203-1.337-3.476-3.209-4.479-5.147c8.556-1.07,17.714-0.134,25.334,2.406l-14.305,0.334c4.947,4.479,19.185,3.61,27.072,3.409
		c-2.473-1.471-4.345-3.409-6.551-4.612c1.136-1.003,0.201-0.535,2.005-1.136l6.484-0.401c2.874-0.134,5.682-0.668,8.556-0.201
		l-9.291,2.005c4.078,3.008,17.914,2.607,22.326,2.54c7.687-0.134,15.642-1.738,22.66-1.738
		c-15.709,10.562-62.233,10.562-84.292,7.019c-7.286-1.136-4.88,0.668-10.294,4.144c-1.604,1.07-3.142,2.206-5.147,3.075
		c-1.805,0.735-3.676,1.203-5.281,2.206c4.278,5.682,26.939,0.869,34.091,0.201c-7.019,2.674-15.241,6.417-19.519,11.096
		c4.947-0.201,13.971-3.008,18.984-4.211c3.944-1.003,15.508-4.211,18.717-4.211c-1.939,0.267-6.952,2.473-9.492,3.209
		l-29.412,9.158c6.885,4.813,37.166-5.414,46.123-6.283c-7.687,4.412-26.404,8.89-29.813,15.308
		c6.016-0.334,15.307-3.81,20.521-5.615l17.914-7.286c-7.353,9.559-35.896,14.84-38.837,17.179
		C354.378,426.805,378.309,410.628,389.271,409.158L389.271,409.158z M469.82,321.19c-1.738-2.607-7.086-4.746-9.358-2.072
		L469.82,321.19z M457.788,316.778c-3.008-3.476-13.302-5.682-14.505-1.471c-0.535,1.872,0.067,4.078,2.34,4.345
		c1.738,0.267,3.81-0.468,3.342-4.412c2.807,0.668,2.406,1.404,2.607,3.877L457.788,316.778z M391.477,400.602l-1.537-1.136
		c2.473-3.008,11.096-8.155,16.444-8.957c-3.342,3.342-5.281,4.011-7.286,6.417c-0.134,0.067-0.267,0.267-0.401,0.468l11.631-2.406
		c-1.604,1.872-4.345,2.941-6.684,4.144l8.757,0.201C408.723,401.872,395.755,402.807,391.477,400.602L391.477,400.602z
		 M410.862,406.417c1.203-1.604,2.005-2.273,4.144-3.142c-1.27,3.075-1.938,2.674-2.741,6.551c2.206-1.404,3.944-2.807,6.818-3.142
		l-5.348,5.481c3.877-0.869,7.086-3.209,10.561-3.743C417.814,413.971,401.972,420.989,410.862,406.417L410.862,406.417z
		 M427.574,410.829c-1.604,3.008-4.278,6.35-5.281,9.626c5.214-2.005,9.024-5.816,13.235-8.155c-1.537,2.607-5.749,6.35-8.489,7.888
		c3.142,0.735,7.62-1.203,10.495-2.406c3.209-1.404,6.417-3.61,9.492-4.211c-1.805,1.337-2.406,2.34-4.746,3.877
		c-1.671,1.07-3.543,2.206-5.749,3.209C411.598,431.685,417.681,414.773,427.574,410.829L427.574,410.829z M304.779,291.577
		l-1.003,0.668l1.07,0.802l13.302,3.944l-12.099-0.802c4.813,3.476,11.497,6.016,17.38,7.888
		c-10.628-0.535-22.193-5.147-27.607-13.636l12.099-0.201C306.718,291.577,306.25,291.377,304.779,291.577L304.779,291.577z
		 M320.421,288.569c-3.743,0.067-8.356-0.668-12.032-1.471c-5.08-1.069-12.166-3.543-16.778-6.15
		c-6.35-3.61-14.037-8.824-16.11-16.31c4.679-1.337,9.893-0.668,15.374,0.401c1.537,0.401,3.008,0.869,4.345,1.27l2.607,1.003
		c-4.278,0.602-8.757,0.535-13.57-0.201c2.34,2.874,24.465,11.163,28.743,12.901c-8.422-1.471-16.444-3.075-24.332-6.417
		C296.958,282.687,314.271,283.489,320.421,288.569L320.421,288.569z M301.704,262.433l-8.422-1.337
		c-11.297-1.404-26.671-9.291-30.214-18.984c4.011-0.334,11.163-0.802,14.906,1.404l-6.417,0.668
		c5.749,3.209,15.441,5.882,21.792,8.489c0.201,0.067,0.802,0.334,0.936,0.401l0.936,0.468c-8.088-0.201-14.104-2.941-20.923-4.345
		c4.88,6.217,18.182,10.227,27.941,11.564l6.885,2.072h-3.275L301.704,262.433z M306.183,249.799
		c4.011-1.872,9.492-3.877,13.636-1.203c-2.473,0.134-5.348,0.267-6.952,1.203c4.612,3.61,12.366,4.947,17.179,7.553
		c-6.15,0-8.957-1.069-14.238-2.54c3.743,4.211,10.762,6.684,15.976,8.824c0.602,0.267,0.869,0.334,1.404,0.602
		c1.604,0.802,0.602,0.334,1.337,0.802c-4.144-0.267-7.821-1.003-11.431-2.139C315.875,260.494,310.394,255.882,306.183,249.799
		L306.183,249.799z M314.806,268.115c2.807-4.479,9.826,1.07,12.834,2.273c3.944,1.537,8.824,2.473,11.765,4.88
		c-5.214-0.201-11.163-2.34-14.973-2.273c1.471,0.401,7.42,4.412,10.094,5.682c3.409,1.537,7.754,3.543,11.096,5.214
		C334.258,283.489,319.084,274.599,314.806,268.115L314.806,268.115z M535.261,449.599l-2.206-0.602
		c0.802-0.401-0.401-0.936,1.203-0.334C535.662,449.198,534.86,449.131,535.261,449.599L535.261,449.599z M480.047,423.463
		c1.136,1.537,1.939,3.81,2.874,5.481c1.07,1.872,2.34,3.209,3.209,4.545l-0.067-8.222c0.134,0.535,2.607,6.952,3.142,8.824
		c1.203-2.941,0.602-4.813,2.139-6.952c0.401,5.281,0.735,7.487-0.134,12.834c-3.342,0.201-6.751-3.743-8.088-5.548
		C480.916,431.35,479.78,427.741,480.047,423.463L480.047,423.463z M468.282,432.955c5.414-4.479,3.008-2.741,7.353-8.222
		c-1.27,7.286-4.88,12.099-11.431,13.904c-3.409-4.278-2.273-9.291-1.203-14.706l1.872,9.358c2.139-2.54,2.874-8.155,5.615-12.5
		C470.488,425.134,469.552,429.546,468.282,432.955L468.282,432.955z M493.55,422.326c3.142,6.952,9.559,17.58,15.508,19.586
		c-1.939-3.877-5.08-6.818-6.417-11.698l2.807,2.807c2.54,2.807,4.947,5.882,8.021,7.821c-2.072-4.612-5.214-9.225-7.219-14.505
		c3.543,4.813,12.968,15.775,15.107,21.39c-8.556,0.602-15.308-2.54-19.452-7.353C499.098,437.166,493.884,428.476,493.55,422.326
		L493.55,422.326z M521.491,421.457l13.904,8.89c4.612,2.941,9.291,5.949,12.901,9.559c-5.882,2.941-16.711,2.005-22.727-0.936
		c-6.15-3.008-10.495-7.821-13.837-12.767c3.677,1.805,9.893,10.561,21.858,12.099l-7.219-5.281
		c-2.406-2.072-5.013-3.543-6.417-6.417c5.548,3.008,10.428,7.754,17.38,9.693c-0.602-0.869-0.201-0.334-1.003-1.136
		c-0.267-0.201-0.802-0.668-1.07-0.869C531.585,431.083,523.697,424.8,521.491,421.457L521.491,421.457z M448.563,425.869
		c3.008-0.401,7.086-2.874,9.425-4.144c-2.54,4.211-7.286,8.155-14.706,8.222c-0.201-4.679,0.334-5.615,1.805-8.957l1.337,3.944
		c2.273-2.406,5.882-6.618,8.356-8.356C454.178,419.652,450.234,424.866,448.563,425.869L448.563,425.869z M263.202,446.391
		c-2.34-0.869-3.743-3.008-5.615-4.947c0.401-2.874,4.412-10.695,5.949-14.372l3.944-11.23c0.267-0.802,0.334-1.27,0.668-2.005
		l0.936-1.872c0.267,5.281-0.936,9.96-2.072,14.773c-0.802,3.476-3.476,10.027-3.476,12.901l10.829-24.866
		c0.067-0.134,0.201-0.334,0.267-0.468C274.03,423.997,268.616,441.444,263.202,446.391L263.202,446.391z M460.194,404.078
		c1.07,3.142,1.27,5.214,3.409,7.219c1.939-2.874,2.406-7.955,3.543-11.698c1.337,4.011,1.003,5.481,0.802,9.96l2.139-1.805
		c0.869-0.802,0.134-0.267,1.337-1.003c-0.869,5.882-3.409,7.754-7.754,9.759C461.598,413.636,457.721,409.559,460.194,404.078
		L460.194,404.078z M483.389,406.016c1.069,3.209,1.671,5.348,2.674,9.091l2.741-4.144c0.067-0.134,0.267-0.267,0.334-0.468
		c-0.401,5.348-0.936,7.152-4.011,9.96c-3.61-0.936-4.746-2.072-7.152-4.947c-2.005-2.34-2.874-5.816-2.807-9.759
		c3.275,5.214,2.473,6.751,7.821,10.027c0.067-1.872,0.067-3.008-0.067-4.813l-0.134-3.275
		C483.055,406.417,482.988,406.685,483.389,406.016L483.389,406.016z M502.774,405.147c4.88,2.406,7.821,9.158,8.289,16.511
		c-9.893-0.468-16.511-3.676-18.048-12.567c2.005,3.476,7.019,7.152,11.497,8.556c-2.473-5.214-5.281-6.952-7.42-10.495
		c3.877,1.671,5.949,3.476,8.957,6.016C505.582,410.896,503.911,406.751,502.774,405.147L502.774,405.147z M448.028,405.281
		c4.813-1.604,6.885-3.944,10.628-6.083c-2.072,6.15-9.091,10.695-17.848,9.96c-0.267-3.476-0.067-6.618,1.27-9.024l1.003,5.214
		c3.142-1.604,6.551-5.816,8.957-8.356C451.036,400.802,449.633,402.072,448.028,405.281L448.028,405.281z M378.777,391.444
		c2.072-0.401,3.676-0.468,5.615-0.802c5.147-0.802,10.294-1.671,15.441-2.807C396.223,388.77,385.795,397.259,378.777,391.444
		L378.777,391.444z M426.838,395.455l10.027-4.278c-1.136,1.203-2.34,2.54-3.877,3.676c-2.005,1.471-3.476,1.671-5.013,3.342
		c6.885,0,10.829-3.543,16.444-5.214c-1.404,2.473-5.882,5.147-9.291,6.551c-4.211,1.805-8.623,2.607-13.837,2.273
		c0.067-7.152,6.283-13.636,11.898-14.906C431.584,388.837,427.373,392.447,426.838,395.455L426.838,395.455z M418.416,385.495
		l10.428-1.872c-4.078,3.944-9.425,5.615-16.644,4.545c1.671-3.075,5.949-5.214,10.227-6.283L418.416,385.495z M231.116,378.275
		c16.243,1.671,22.126-3.075,25.201-1.136c1.738,1.136,4.679,2.406,6.016,3.275c-2.741,5.481-14.104,13.837-23.596,10.495
		c4.144-1.003,7.888-1.671,10.695-4.144c-4.746,0.401-11.698,1.938-15.308-1.07l11.765-3.008c-3.944-0.067-8.088-0.267-11.698-1.738
		C231.116,379.679,232.252,379.278,231.116,378.275L231.116,378.275z M432.921,374.733l2.139-1.805
		c1.738,0.401,16.845,10.428,25.267,13.971c4.746,2.005,9.024,3.543,14.238,5.348c5.147,1.738,10.829,2.807,15.642,4.479
		c-9.559,0.334-23.931-4.211-31.751-7.353c-6.35-2.473-18.917-8.69-24.198-13.235c-0.134-0.067-0.267-0.201-0.334-0.334
		c-0.134-0.067-0.267-0.267-0.401-0.334c-0.067-0.067-0.201-0.267-0.334-0.334C433.122,375,432.988,374.866,432.921,374.733
		L432.921,374.733z M307.787,362.7c1.738-1.203,4.813-1.738,7.42-1.805c4.746-0.067,4.412,0.735,7.286,2.072l-9.024,0.468
		c0.134,2.206,0.134,1.07,1.136,3.075C310.795,366.176,308.79,365.575,307.787,362.7L307.787,362.7z M392.814,368.182
		c4.011,2.072,9.158,2.674,14.037,2.807l-2.406,1.07c-0.535,0.134-2.072,0.401-2.607,0.468c-5.281,0.735-11.297,0.134-15.374-2.941
		c1.471-3.342,6.083-7.219,11.029-7.286C395.688,363.436,394.151,366.043,392.814,368.182L392.814,368.182z M363.737,366.778
		c3.209,0.401,5.348,0.334,8.556,0.201c5.749-0.334,6.35-0.869,8.422,0c-8.556,2.741-17.647,4.546-25.334-0.067
		c4.479-2.54,11.163-4.479,17.179-4.813c-0.134,0.067-0.334,0.134-0.401,0.334l-4.078,2.34
		C366.477,365.441,364.94,366.243,363.737,366.778L363.737,366.778z M255.849,363.77c0.668,1.805,2.674,2.072,4.011,2.874
		c1.738,1.003,1.003,0.535,1.872,1.404c-6.217,0-9.559-1.404-11.096-6.083c3.008-1.136,10.963-1.471,13.971,0.134L255.849,363.77z
		 M345.22,365.642l5.414,2.406c-5.214,1.003-9.559-0.668-13.369-2.072c1.938-2.406,8.289-3.743,11.096-4.412
		c2.473-0.535,4.144-0.668,6.551-1.003c2.674-0.401,3.209-1.003,5.147,0.535C357.654,362.233,348.897,363.302,345.22,365.642
		L345.22,365.642z M283.656,363.77c9.693,0.869,16.778-3.944,23.529-6.885c-6.016,13.369-36.431,19.586-44.519,16.578l17.38-5.949
		l-10.628-1.604c0.535-0.535,20.455-8.021,21.792-8.356C289.873,360.495,286.731,361.43,283.656,363.77L283.656,363.77z
		 M329.244,358.957c1.671,1.872,2.005,2.206,4.813,3.476c-5.414,1.671-8.021-1.136-9.893-4.211
		c3.008-2.54,10.361-2.941,14.639-2.072c-1.671,1.136-2.072,1.003-4.612,1.471C332.453,357.954,331.049,358.355,329.244,358.957
		L329.244,358.957z M261.731,350.067c4.545,0.134,10.695,1.471,15.307,2.54l3.008,0.869c0.201,0.067,0.334,0.134,0.468,0.201
		c1.738,0.802,0.802,0.401,1.471,0.869l-15.174-0.334c0.802,2.139,1.939,3.275,3.61,4.345
		C265.14,359.091,261.664,355.548,261.731,350.067L261.731,350.067z M385.127,359.358l1.872,0.535l-2.005,1.069
		c-5.414-0.735-8.088-1.136-11.965-3.543c3.275-3.075,6.952-5.214,12.567-6.217c-1.872,2.139-4.746,3.81-6.818,6.35
		C380.782,358.422,382.587,359.358,385.127,359.358L385.127,359.358z M358.924,353.142c2.273,2.005,6.217,2.741,10.16,3.409
		c-5.147,1.872-14.171,1.337-16.511-3.61c3.743-2.005,9.425-4.278,15.241-3.409L358.924,353.142z M321.089,355.147
		c-3.81-0.735-5.281-2.273-6.952-4.545c3.275-2.473,13.904-3.543,17.112-0.401C319.819,350.535,319.017,351.069,321.089,355.147
		L321.089,355.147z M341.878,350.134c2.005,2.206,3.61,2.273,5.749,4.144c-4.88,0.267-9.492-1.671-10.628-4.88
		c2.406-2.206,12.166-4.479,15.642-4.078l2.741,1.07C350.434,347.126,346.156,348.262,341.878,350.134L341.878,350.134z
		 M288.736,349.265c2.941,2.273,4.612,1.404,6.952,2.607l1.604,1.136c-6.35,0-10.562-0.668-13.636-4.278
		c2.273-2.807,8.356-3.81,12.634-3.676C294.084,346.791,291.544,346.992,288.736,349.265L288.736,349.265z M425.1,373.663
		c2.473-6.417,1.203-1.671,5.949-6.751c1.738-1.939,3.677-4.947,5.481-7.821c1.537-2.607,3.008-5.281,4.479-8.155
		c0.735-1.471,1.337-2.607,2.34-4.078c1.07-1.671,1.671-2.874,3.275-4.011c-1.07,3.142-2.741,6.35-4.144,9.492
		c-3.142,7.42,0.201,1.136-3.877,8.155c-2.072,3.61-3.008,4.746-5.816,7.553C428.71,372.059,429.98,370.588,425.1,373.663
		L425.1,373.663z M306.317,346.257c-0.267,0.602-0.067,0.201-0.201,1.07l-0.401,1.471c-2.406-0.869-2.807-1.003-3.743-3.209
		c3.008-3.209,13.168-4.011,17.58-2.139C314.605,343.984,310.194,344.585,306.317,346.257L306.317,346.257z M266.477,341.845
		c2.807-0.201,5.281-0.334,8.155-0.134c3.142,0.267,4.612,0.468,6.618,2.072l-10.896,0.067l0.067,4.078
		C268.148,347.326,266.744,345.053,266.477,341.845L266.477,341.845z M332.252,340.441c1.003,1.136,0.535,0.802,2.206,1.738
		l2.674,1.738c-2.941,0.134-6.016,0.134-8.556-1.537c-2.473-1.537-0.936,0-1.939-2.206c4.011-1.872,10.829-4.813,15.842-1.738
		C338.135,338.837,335.996,339.371,332.252,340.441L332.252,340.441z M369.352,342.847l8.824,3.743
		c-10.094,1.337-11.564-2.34-15.174-4.479l17.848-6.684C375.635,341.109,373.162,339.973,369.352,342.847L369.352,342.847z
		 M354.579,336.564c0.668,1.938,1.471,2.34,2.941,3.743c-2.072-0.067-3.944-0.334-5.548-1.069c-3.877-1.604-3.476-2.941-3.677-3.81
		c4.278-2.206,14.238-2.807,19.452-2.34L354.579,336.564z M310.862,319.585c6.15-0.468,13.636-0.468,18.783,1.604
		c-2.674,0.334-5.682,0.602-7.62,1.537c2.406,2.406,5.949,2.34,9.024,3.676C323.028,327.941,315.474,326.069,310.862,319.585
		L310.862,319.585z M343.616,317.112l21.19,0.735c-2.406,1.203-5.816,1.604-8.89,1.939c2.206,2.34,3.008,1.671,5.749,2.741
		c2.273,0.936-1.872-1.003,1.003,0.468l0.869,0.535c-4.345,0.468-7.821,0.134-11.898-1.136c-1.537-0.468-3.342-1.203-4.479-1.805
		C344.686,319.184,345.02,318.85,343.616,317.112L343.616,317.112z M322.092,309.157l-10.896,0.869c0.134,0,0.401-0.067,0.468,0.201
		c0.067,0.201,0.334,0.201,0.401,0.267c2.273,1.27,7.019,2.206,9.492,2.741c3.81,0.802,8.021,1.136,11.564,2.34
		c-12.968,1.27-27.273-1.07-31.618-9.96c1.738-1.07,4.479-1.136,6.751-1.136c0.735,2.139-5.08,0.802,5.147,2.941
		C316.009,307.954,320.02,308.355,322.092,309.157L322.092,309.157z M361.263,309.625c-8.89,0.735-13.77-1.003-21.658-1.805
		c2.473,1.471,5.682,4.078,8.957,5.08c-7.42,0.535-16.243-5.348-18.182-9.158c1.805-1.872,3.81-2.34,7.019-2.741
		c0.067,0.134,0,0.201,0,0.401c0,0.134,0,0.334,0,0.401s0,0.267,0,0.401c0.401,2.206,3.81,3.008,10.294,4.545
		C350.769,307.42,359.057,309.492,361.263,309.625L361.263,309.625z M332.921,286.831c2.473,0.668,8.222,2.674,9.96,4.345
		l-7.754-0.668c2.607,2.273,5.281,3.743,8.757,5.414c1.671,0.869,3.008,1.404,4.813,2.139l4.144,1.738
		c0.802,0.468,0.936,0.535,1.337,0.936c-10.428-0.668-23.596-7.019-26.872-13.503c2.473-2.34,2.741-2.674,6.751-3.142
		L332.921,286.831z M328.509,225.802c1.337,1.939,3.61,8.89,4.746,11.698c1.604,4.011,3.142,7.62,4.947,11.564
		c8.556,19.185,22.794,43.449,36.029,60.294c1.27,1.604,1.003,0.735,1.939,2.406C357.253,307.62,328.71,236.497,328.509,225.802
		L328.509,225.802z M295.755,224.197c6.083,0.267,13.636,2.406,18.048,5.08l-9.759-0.134l4.947,2.807
		c1.738,0.869,5.013,2.473,6.685,2.941c-3.677,0.267-7.086-0.802-10.361-1.337c6.551,5.682,11.765,7.086,16.377,10.495
		C309.926,242.179,298.295,234.692,295.755,224.197L295.755,224.197z M250.568,214.304l19.853,7.286l-9.492-0.869
		c9.024,6.016,17.848,6.618,22.059,9.492c-3.944-0.067-7.553-0.602-11.23-1.604c-3.209-0.936-6.885-2.473-9.693-3.075
		c3.543,5.414,27.206,17.246,36.431,18.249c-13.703-0.067-31.284-6.283-41.043-16.778
		C253.776,223.128,252.974,219.518,250.568,214.304L250.568,214.304z M293.95,196.724c1.471,0.802,14.372,12.099,21.591,14.104
		c-3.743-0.067-8.69-1.939-11.497-3.209c2.273,3.275,7.353,6.751,10.495,9.893c-4.078-1.003-12.233-6.551-13.703-8.556
		c2.072,5.281,9.425,11.564,12.5,15.441C303.175,220.855,293.616,209.291,293.95,196.724L293.95,196.724z M230.514,169.785
		c3.81,1.404,7.821,4.278,10.495,6.484l6.685,5.949c0.869,0.936,1.203,1.471,1.939,2.206l-8.556-3.81
		c4.278,8.69,30.281,23.864,38.302,29.813c-9.158-1.872-33.623-18.516-38.904-23.195c3.209,7.687,13.636,15.642,20.455,20.455
		c7.955,5.548,17.58,9.693,26.738,14.037c-9.225-0.602-28.81-10.495-37.166-16.845C241.143,197.727,232.319,185.561,230.514,169.785
		L230.514,169.785z M282.72,194.451c-13.168-5.682-23.128-14.505-33.556-23.931c2.406,6.016,8.289,12.767,12.901,17.046
		c14.505,13.636,21.39,15.441,27.941,21.123c-5.214-1.203-13.636-5.882-17.981-8.89c-2.941-2.072-5.348-3.61-7.888-5.481
		c-11.965-9.091-23.529-26.07-23.062-42.38c2.139,1.136,1.738,1.003,3.476,2.406l8.556,7.286c3.075,2.941,8.289,7.152,10.361,11.029
		c-6.551-4.144-11.163-8.289-15.374-10.963C252.974,171.657,273.095,187.165,282.72,194.451L282.72,194.451z M534.258,448.663
		c-1.604-0.602-0.401-0.067-1.203,0.334C534.258,449.332,536.732,449.599,534.258,448.663L534.258,448.663z"/>
	<polygon style="fill-rule:evenodd;clip-rule:evenodd;fill:#B9D432;" points="555.114,357.42 453.643,360.495 549.833,365.575 	"/>
	<path style="fill-rule:evenodd;clip-rule:evenodd;fill:#B9D432;" d="M488.536,379.545c14.372,0.134,28.743,0.134,43.182,0.201
		l9.225-0.201l5.013-7.554l-77.072,0.134L488.536,379.545z"/>
	<polygon style="fill-rule:evenodd;clip-rule:evenodd;fill:#FBC548;" points="378.041,125.267 390.274,171.256 388.068,123.662 	"/>
	<polygon style="fill-rule:evenodd;clip-rule:evenodd;fill:#FBC548;" points="376.571,176.136 362.533,129.01 352.908,132.152 	"/>
	<path style="fill-rule:evenodd;clip-rule:evenodd;fill:#FBC548;" d="M328.175,143.582l32.888,44.118
		c-1.939-4.813-20.521-43.583-23.329-49.131L328.175,143.582z"/>
	<polygon style="fill-rule:evenodd;clip-rule:evenodd;fill:#FBC548;" points="402.908,122.459 406.584,174.999 414.405,122.526 	"/>
	<polygon style="fill-rule:evenodd;clip-rule:evenodd;fill:#FBC548;" points="305.916,158.823 364.739,227.673 315.408,151.67 	"/>
	<path style="fill-rule:evenodd;clip-rule:evenodd;fill:#FBC548;" d="M420.555,197.593c1.805-3.543,18.917-68.717,19.519-72.326
		l-10.762-1.671L420.555,197.593z"/>
	<polygon style="fill-rule:evenodd;clip-rule:evenodd;fill:#FBC548;" points="461.063,216.911 511.732,158.555 501.705,151.069 	"/>
	<path style="fill-rule:evenodd;clip-rule:evenodd;fill:#FBC548;" d="M433.255,204.545c3.275-5.414,31.284-66.979,31.952-72.326
		l-10.562-3.409L433.255,204.545z"/>
	<polygon style="fill-rule:evenodd;clip-rule:evenodd;fill:#FBC548;" points="447.026,210.761 488.603,142.914 478.175,137.633 	"/>
	<polygon style="fill-rule:evenodd;clip-rule:evenodd;fill:#FBC548;" points="473.563,223.395 529.98,175.668 522.56,168.048 	"/>
	<polygon style="fill-rule:evenodd;clip-rule:evenodd;fill:#FBC548;" points="494.084,226.203 546.09,196.323 539.74,187.366 	"/>
	<polygon style="fill-rule:evenodd;clip-rule:evenodd;fill:#FBC548;" points="557.788,218.248 552.908,208.422 518.282,229.612 	"/>
	<path style="fill-rule:evenodd;clip-rule:evenodd;fill:#B9D432;" d="M525.903,398.061c0.201,0.134,0.468,0.267,0.668,0.334
		l10.561-12.767l-25.134,0.334c0.668,0.401,1.337,0.802,1.939,1.203c1.537,1.003,3.075,1.872,4.612,2.807l0.067,0.067l4.88,3.075
		C525.234,394.184,526.103,395.989,525.903,398.061L525.903,398.061z"/>
	<polygon style="fill-rule:evenodd;clip-rule:evenodd;fill:#B9D432;" points="560.194,344.719 453.911,347.593 558.055,349.799 	"/>
	<polygon style="fill-rule:evenodd;clip-rule:evenodd;fill:#FBC548;" points="536.063,241.577 537.534,243.315 565.609,241.042 
		562.534,230.681 	"/>
	<polygon style="fill-rule:evenodd;clip-rule:evenodd;fill:#B9D432;" points="561.999,338.436 564.205,332.486 479.913,335.494 	"/>
	<polygon style="fill-rule:evenodd;clip-rule:evenodd;fill:#B9D432;" points="487.467,313.569 568.149,314.037 569.285,309.559 	"/>
	<polygon style="fill-rule:evenodd;clip-rule:evenodd;fill:#B9D432;" points="567.013,320.922 486.264,324.064 565.542,325.267 	"/>
	<polygon style="fill-rule:evenodd;clip-rule:evenodd;fill:#FBC548;" points="290.541,172.994 301.17,180.748 302.306,176.737 
		294.886,168.582 	"/>
	<path style="fill-rule:evenodd;clip-rule:evenodd;fill:#FBC548;" d="M340.474,216.778c0.267,3.743,0.067,4.612,2.273,6.484
		l17.179,14.84L340.474,216.778z"/>
	<path style="fill-rule:evenodd;clip-rule:evenodd;fill:#435261;" d="M173.696,240.842c-5.882,25.535-7.42,40.709-6.283,68.984
		l4.078,0.334C169.485,285.561,171.557,258.021,173.696,240.842L173.696,240.842z"/>
	<path style="fill-rule:evenodd;clip-rule:evenodd;fill:#435261;" d="M179.913,270.454c-1.404,10.16-2.674,27.407-1.337,37.433
		c0.267,0,0.468,0,0.735,0c1.404,0.067,2.741,0.267,3.944,0.668l-2.607-37.5C180.38,270.855,180.113,270.655,179.913,270.454
		L179.913,270.454z"/>
	<path style="fill-rule:evenodd;clip-rule:evenodd;fill:#435261;" d="M192.546,308.756l-1.27-16.845
		c-0.602-0.602-1.203-1.203-1.805-1.805c-0.668,6.083-1.27,12.701-0.802,18.316h0.134
		C190.006,308.489,191.276,308.556,192.546,308.756L192.546,308.756z"/>
	<path style="fill-rule:evenodd;clip-rule:evenodd;fill:#435261;" d="M198.161,297.192c-0.267,2.273-0.267,4.612-0.334,6.751
		c-0.067,2.406-0.067,4.278-0.067,5.682c1.404,0.267,2.741,0.602,4.011,0.869l-1.404-11.898
		C199.632,298.128,198.897,297.66,198.161,297.192L198.161,297.192z"/>
	<path style="fill-rule:evenodd;clip-rule:evenodd;fill:#435261;" d="M208.455,302.139c-1.738,2.874-2.072,9.091-1.537,12.834
		l4.144,0.802L208.455,302.139z"/>
	<path style="fill:#435261;" d="M292.212,467.179 M303.041,473.329l9.358-16.31l-10.762,0.602l-0.535-6.016l12.5-0.735l7.821,4.479
		l-12.299,21.457L303.041,473.329z"/>
	<path style="fill:#435261;" d="M319.619,482.153 M328.643,478.008l-0.067,0.134c-0.267,0.668-0.067,1.27,0.401,1.738
		c0.134,0.134,0.401,0.267,0.668,0.401c0.267,0.134,0.668,0.267,1.203,0.468l7.554,2.874c1.203,0.401,2.072,0.535,2.741,0.401
		c0.602-0.201,1.07-0.668,1.404-1.604l1.136-3.008c-0.468,0.267-0.802,0.468-1.203,0.602c-0.334,0.134-0.802,0.134-1.203,0.134
		c-0.401,0-0.869-0.067-1.404-0.201c-0.468-0.134-1.07-0.334-1.805-0.602l-7.42-2.741c-1.203-0.468-2.206-1.003-3.008-1.537
		c-0.802-0.535-1.404-1.136-1.805-1.805c-0.334-0.535-0.535-1.003-0.735-1.471c-0.134-0.468-0.267-1.003-0.201-1.537
		c0-0.535,0.067-1.136,0.267-1.805c0.134-0.668,0.401-1.471,0.735-2.34c0.468-1.404,1.003-2.406,1.537-3.142
		c0.535-0.668,1.136-1.203,1.939-1.604c0.401-0.201,0.735-0.334,1.136-0.468c0.401-0.067,0.802-0.134,1.27-0.134
		c0.468,0.067,1.003,0.067,1.604,0.201c0.602,0.134,1.337,0.334,2.273,0.602c0.869,0.334,1.872,0.668,3.142,1.07
		c1.203,0.401,2.607,0.936,4.278,1.604c1.27,0.468,2.34,0.869,3.209,1.203c0.869,0.401,1.604,0.735,2.273,1.07
		c0.602,0.267,1.136,0.602,1.604,0.869c0.401,0.267,0.802,0.602,1.136,0.936c0.602,0.535,1.003,1.203,1.404,1.872
		c0.267,0.735,0.468,1.471,0.468,2.273c0.067,0.602-0.067,1.404-0.334,2.34c-0.201,1.003-0.668,2.34-1.27,3.944
		c-0.802,2.072-1.404,3.743-1.872,4.947c-0.535,1.27-0.936,2.273-1.337,2.941c-0.334,0.735-0.735,1.27-1.069,1.671
		c-0.334,0.334-0.802,0.735-1.203,1.003c-1.003,0.668-2.139,1.003-3.476,1.003c-1.27,0.067-2.807-0.334-4.612-1.003l-8.489-3.142
		c-1.203-0.468-2.206-0.869-3.008-1.203c-0.869-0.334-1.537-0.668-2.139-1.07c-0.535-0.267-1.07-0.602-1.404-0.936
		c-0.334-0.334-0.668-0.668-0.936-1.07c-0.535-0.735-0.869-1.471-0.936-2.273c-0.067-0.802,0.134-1.805,0.535-2.941l0.468-1.136
		L328.643,478.008z M342.613,475.401c0.869,0.267,1.537,0.334,2.005,0.067c0.401-0.201,0.802-0.802,1.136-1.738
		c0.334-0.802,0.334-1.471,0.134-1.939c-0.334-0.535-0.936-0.936-1.939-1.337l-7.821-2.941c-1.872-0.668-3.008-0.201-3.61,1.337
		c-0.334,0.936-0.401,1.604-0.134,2.072c0.267,0.535,0.936,1.003,1.938,1.337L342.613,475.401z"/>
	<path style="fill:#435261;" d="M351.103,493.516 M359.793,486.163l-0.201,0.869c-0.134,0.602-0.134,1.069-0.134,1.471
		c0,0.401,0.134,0.668,0.334,0.936c0.267,0.267,0.602,0.468,1.07,0.602c0.468,0.134,1.07,0.334,1.872,0.468l6.35,1.27
		c0.602,0.067,1.07,0.201,1.471,0.267c0.401,0.067,0.735,0.134,1.003,0.201c0.267,0,0.535,0.067,0.735,0.067
		c0.134,0,0.334,0,0.468,0c0.401-0.067,0.668-0.267,0.936-0.535c0.201-0.334,0.334-0.802,0.468-1.471
		c0.067-0.401,0.134-0.735,0.067-1.07c-0.067-0.334-0.134-0.602-0.334-0.802s-0.468-0.334-0.869-0.468
		c-0.334-0.134-0.869-0.267-1.471-0.401l-7.152-1.404l1.003-5.08l6.885,1.404c1.07,0.201,1.872,0.201,2.34,0
		c0.401-0.267,0.735-0.735,0.936-1.604c0.067-0.535,0.067-1.003,0.067-1.27c-0.067-0.334-0.267-0.668-0.602-0.936
		c-0.334-0.201-0.869-0.468-1.537-0.668c-0.668-0.134-1.537-0.401-2.741-0.602c-1.537-0.334-2.807-0.535-3.81-0.735
		c-0.936-0.201-1.671-0.334-2.273-0.401c-0.535-0.067-0.936-0.134-1.203-0.134c-0.267,0-0.468,0-0.602,0.067
		c-0.668,0.201-1.003,0.802-1.203,1.671l-0.201,1.07l-6.952-1.404c0.201-1.003,0.401-1.872,0.602-2.54
		c0.134-0.735,0.334-1.27,0.602-1.738c0.201-0.468,0.468-0.869,0.735-1.136c0.267-0.334,0.535-0.535,0.936-0.802
		c0.535-0.267,1.136-0.535,1.939-0.668c0.735-0.201,1.471-0.267,2.206-0.267c0.334,0.067,0.802,0.067,1.471,0.201
		c0.602,0.067,1.404,0.201,2.34,0.334c0.936,0.134,1.939,0.334,3.142,0.535c1.136,0.267,2.34,0.468,3.61,0.735
		c1.604,0.334,2.941,0.602,4.011,0.869c1.07,0.267,2.005,0.468,2.741,0.735c0.735,0.267,1.337,0.535,1.805,0.802
		c0.468,0.334,0.802,0.668,1.203,1.003c0.602,0.668,1.003,1.404,1.136,2.34c0.134,0.869,0.067,2.072-0.201,3.543
		c-0.201,0.869-0.334,1.604-0.602,2.139c-0.201,0.602-0.468,1.07-0.869,1.337c-0.401,0.334-0.869,0.602-1.404,0.802
		c-0.602,0.134-1.337,0.267-2.206,0.334l-0.067,0.067c0.936,0.334,1.671,0.668,2.206,1.003c0.535,0.401,0.936,0.802,1.203,1.27
		c0.267,0.535,0.401,1.069,0.401,1.738c-0.067,0.668-0.134,1.537-0.334,2.54c-0.134,0.802-0.334,1.471-0.535,2.072
		c-0.201,0.602-0.468,1.07-0.668,1.471c-0.334,0.401-0.668,0.735-1.003,0.936c-0.401,0.267-0.869,0.535-1.404,0.668
		c-0.802,0.267-1.671,0.401-2.54,0.401c-0.936,0-2.139-0.134-3.61-0.468l-9.492-1.872c-0.802-0.134-1.471-0.267-2.005-0.401
		c-0.468-0.067-0.936-0.134-1.27-0.201c-0.334-0.134-0.668-0.201-0.869-0.267c-0.267-0.067-0.535-0.201-0.869-0.267
		c-1.136-0.401-2.072-0.936-2.741-1.471c-0.668-0.535-1.203-1.203-1.537-2.005c-0.134-0.267-0.267-0.602-0.334-0.869
		c-0.067-0.334-0.067-0.668-0.067-1.069c-0.067-0.401,0-0.869,0.067-1.404c0.067-0.468,0.201-1.136,0.334-1.872l0.267-1.27
		L359.793,486.163z"/>
	<path style="fill:#435261;" d="M384.926,500 M406.451,483.022v-0.201c0-0.468-0.067-0.802-0.201-1.07
		c-0.201-0.267-0.535-0.535-1.136-0.668c-0.602-0.201-1.471-0.334-2.473-0.401c-1.07-0.067-2.54-0.134-4.278-0.134
		c-0.735,0-1.404-0.067-1.872,0c-0.535,0-1.003,0-1.337,0.067c-0.401,0.067-0.668,0.134-0.936,0.201
		c-0.201,0.134-0.468,0.201-0.668,0.401c-0.201,0.134-0.401,0.267-0.535,0.468c-0.134,0.134-0.267,0.401-0.334,0.668
		c-0.067,0.267-0.134,0.535-0.134,0.936c-0.067,0.334-0.134,0.869-0.134,1.404v1.671c0.401-0.401,0.802-0.735,1.27-1.003
		c0.401-0.201,0.936-0.401,1.537-0.535c0.602-0.134,1.337-0.201,2.206-0.267c0.869,0,2.005,0,3.342,0.067
		c4.947,0.067,8.021,0.401,9.225,0.869c0.735,0.267,1.27,0.602,1.738,1.003c0.468,0.401,0.869,0.802,1.136,1.404
		s0.468,1.337,0.535,2.206c0.134,0.802,0.134,1.872,0.134,3.075c0,0.869-0.067,1.604-0.134,2.206
		c-0.067,0.668-0.201,1.203-0.334,1.671c-0.134,0.468-0.334,0.869-0.535,1.203c-0.267,0.334-0.535,0.668-0.869,0.936
		c-0.468,0.401-0.869,0.668-1.337,0.869c-0.468,0.201-1.136,0.334-2.005,0.468c-0.869,0.067-2.005,0.134-3.476,0.134
		s-3.409-0.067-5.882-0.067c-1.805-0.067-3.342-0.134-4.545-0.134c-1.203-0.067-2.206-0.201-3.008-0.334
		c-0.735-0.134-1.404-0.267-1.939-0.468c-0.468-0.201-1.003-0.401-1.471-0.735c-1.07-0.668-1.805-1.537-2.206-2.674
		c-0.535-1.07-0.735-2.406-0.668-4.011l0.201-8.69c0-1.07,0.067-2.005,0.267-2.807c0.134-0.802,0.334-1.471,0.668-2.072
		c0.334-0.535,0.735-1.07,1.203-1.471c0.535-0.401,1.136-0.735,1.805-1.07c0.535-0.201,1.003-0.334,1.537-0.535
		c0.535-0.134,1.07-0.201,1.738-0.267c0.668-0.067,1.404-0.067,2.273-0.134c0.869,0,1.939,0,3.209,0.067
		c2.406,0.067,4.211,0.067,5.615,0.134s2.473,0.134,3.275,0.134c0.802,0.134,1.404,0.201,1.805,0.334
		c0.401,0.134,0.869,0.267,1.337,0.535c1.136,0.535,1.938,1.203,2.406,2.005c0.468,0.802,0.668,1.872,0.668,3.275l-0.067,1.471
		L406.451,483.022z M397.761,489.773c-1.136-0.067-2.072,0-2.807,0c-0.735,0.067-1.27,0.201-1.671,0.401
		c-0.334,0.134-0.668,0.401-0.802,0.802c-0.134,0.401-0.201,0.802-0.201,1.404c-0.067,0.602,0,1.069,0.134,1.404
		c0.134,0.334,0.401,0.602,0.735,0.802c0.401,0.201,0.869,0.334,1.604,0.401c0.668,0.067,1.604,0.134,2.741,0.201
		c1.738,0,3.075,0.067,4.078,0.067s1.738,0,2.273,0c0.535-0.067,0.936-0.067,1.136-0.134c0.267,0,0.468-0.067,0.668-0.201
		c0.334-0.134,0.535-0.334,0.735-0.668c0.067-0.334,0.134-0.869,0.201-1.537c0-0.735-0.067-1.27-0.134-1.671
		c-0.134-0.334-0.401-0.602-0.802-0.735c-0.134-0.067-0.468-0.201-0.735-0.201c-0.334-0.067-0.735-0.067-1.337-0.134
		c-0.602-0.067-1.404-0.067-2.273-0.134C400.368,489.84,399.164,489.773,397.761,489.773L397.761,489.773z"/>
	<path style="fill-rule:evenodd;clip-rule:evenodd;fill:#B9D432;" d="M297.961,417.781l31.484,1.337
		c-1.27-0.468-2.072-1.537-2.406-2.273L297.961,417.781z"/>
	<path style="fill-rule:evenodd;clip-rule:evenodd;fill:#B9D432;" d="M337.533,425.334c-11.898,0.401-23.396,0.936-28.476,1.939
		c5.147,0.401,21.858,1.337,34.559,1.604C341.678,427.941,338.736,426.805,337.533,425.334L337.533,425.334z"/>
	<path style="fill-rule:evenodd;clip-rule:evenodd;fill:#B9D432;" d="M302.506,409.358l14.906,0.735
		c-1.671-0.802-2.54-1.738-2.941-2.807l-21.524,1.404L302.506,409.358z"/>
	<path style="fill-rule:evenodd;clip-rule:evenodd;fill:#B9D432;" d="M333.99,436.631l20.321,0.668
		c-2.139-0.535-5.816-1.604-6.283-2.607l-27.139,1.27L333.99,436.631z"/>
	<path style="fill-rule:evenodd;clip-rule:evenodd;fill:#B9D432;" d="M294.151,401.872l0.936-0.067l12.366,0.802
		c-0.535-0.869-0.936-1.805-1.27-2.874l-20.588,1.537L294.151,401.872z"/>
	<path style="fill-rule:evenodd;clip-rule:evenodd;fill:#B9D432;" d="M348.964,445.254l15.308,0.668
		c-0.602-0.869-3.743-1.604-4.078-2.674l-20.989,1.337L348.964,445.254z"/>
	<path style="fill-rule:evenodd;clip-rule:evenodd;fill:#B9D432;" d="M364.672,454.546l11.029,0.735
		c-0.401-0.869-4.746-1.471-5.013-2.54l-13.168,1.136L364.672,454.546z"/>
	<path style="fill-rule:evenodd;clip-rule:evenodd;fill:#435261;" d="M473.63,243.115c1.872-1.738,3.61-3.543,5.348-5.749
		c3.275-4.011,2.206-0.936,7.821-0.267c2.005,0.267,8.556-7.286,10.495-7.086c4.947,0.668,6.15-2.674,8.155-2.54
		c1.337,0.067,3.877,8.088,5.414,6.417c1.203-1.27,2.206-0.334,3.142,0.267c0.735,1.604,2.139,3.543,3.142,4.947
		c1.938,2.807,3.743,5.013,5.682,7.754c1.604,2.34,1.003,4.612,1.404,5.147c1.136,1.537,1.136-1.738,4.011-1.537
		c4.679,0.201,6.15-3.342,7.955-1.471c1.805,1.27,6.885,8.088,13.77,14.439c1.136,1.07,9.358-2.406,9.626-0.802
		c2.674,16.979,11.029,2.005,11.029,25.869c0,7.553-0.668,12.701-12.968,13.971c-61.631,2.941-69.586-7.553-111.832-11.431
		c-18.85-1.671-40.04,0.267-48.73,2.206c-4.612,1.003-29.078,4.011-30.682,1.404l-19.185-31.217
		c0.802-0.869,21.992-19.853,25.535-24.131c4.345-5.147,9.425-9.225,13.703-14.505c2.206-2.607,5.348-6.15,7.019-9.158
		c1.938-1.003,4.078-2.674,6.217-0.201c2.807,3.476,9.091-11.765,11.765-11.765c3.877,0,5.749,6.618,15.642,5.949
		c3.877-0.267,15.441,15.107,19.452,14.84c11.23-0.735,8.422-6.618,14.104,1.537C465.207,232.419,469.486,238.101,473.63,243.115
		L473.63,243.115z M438.001,240.708c-0.401-1.604,4.545-3.877,5.682-5.147c1.404-1.203,3.476-6.283,5.414-7.754
		c0.267-0.134,2.674-0.602,3.275-0.602c2.072-0.602-0.936,2.273-0.802,4.211c-1.003,2.941,0.869,6.484-1.471,9.024
		c-1.136,1.337-3.676,1.738-3.743,3.877c-0.802,3.075-0.936,8.155-1.337,11.497c-1.27-0.401-2.206-6.083-2.874-7.955
		c-0.267-0.735-0.267-1.471-0.602-2.139C440.675,243.85,438.469,242.58,438.001,240.708L438.001,240.708z M374.565,270.655
		c-1.471,0.936-0.067,0.267-0.267-4.545c0-1.404,0.802-2.473-0.602-3.743c-0.869-0.735-6.818-1.939-7.888-1.805
		c-4.211,0.267,19.586-25.936,22.193-28.877c1.537-1.738,3.409-3.877,6.016-7.955c0.267-0.401,2.005-4.746,2.273-4.278
		c0.602,0.936,0.134,3.275,0.668,6.217c0.936,2.406,0.735,2.473-2.54,7.821c-0.802,1.404-3.409,3.275-4.078,7.286
		c-0.267,1.27,13.636-9.225,16.377-15.107c2.473-5.281,4.211-10.628,6.016-13.369c1.404-2.139,1.471-0.668,3.409,0.267
		c2.674,1.203,6.15,1.872,8.222,3.81c0.936,0.869,12.634,10.227,12.366,11.43c-0.401,2.005-12.701-7.152-13.503-5.481
		c-0.334,0.602-1.136,1.604-1.738,1.939c-0.602,0.334-1.671,1.604-2.005,2.206c-1.27,2.406-16.444,29.278-16.444,29.278
		c-0.134-2.874-0.802-13.971-1.671-13.636C399.365,242.847,379.111,267.78,374.565,270.655L374.565,270.655z M489.806,245.655
		c0.267-0.802-2.139-2.139-2.674-2.807c-0.602-0.668-1.471-3.342-2.34-4.144c-0.134-0.067-1.337-0.401-1.671-0.401
		c-1.003-0.401,0.401,1.136,0.267,2.139c0.334,1.537-0.735,3.342,0.334,4.746C491.879,247.927,493.483,257.687,489.806,245.655
		L489.806,245.655z M514.873,256.35c0.668,0.535,0,0.201,0.267-2.273c0.134-0.735-0.267-1.337,0.468-1.938
		c0.468-0.334,3.543-0.802,4.078-0.735c2.139,0.334-2.406-7.219-3.61-8.824c-0.668-0.936-1.537-2.072-2.674-4.278
		c-0.134-0.201-0.802-2.473-1.003-2.273c-0.334,0.468-0.201,1.671-0.602,3.209c-0.535,1.203-0.468,1.203,0.936,4.078
		c0.401,0.735,1.003,1.738,1.203,3.81c0,0.668-5.949-5.08-7.019-8.155c-1.069-2.807-1.738-5.682-2.473-7.086
		c-0.602-1.136-0.735-0.401-1.738,0c-1.404,0.602-3.209,0.802-4.345,1.738c-0.535,0.401-6.818,4.88-6.751,5.481
		c0.134,1.069,6.751-3.275,7.086-2.407c0.134,0.334,0.468,0.869,0.802,1.07c0.267,0.201,0.802,0.869,0.936,1.203
		c0.468,1.27,6.417,15.441,6.417,15.441c0.134-1.471,1.003-7.152,1.404-6.952C509.258,247.927,512.667,254.746,514.873,256.35
		L514.873,256.35z M547.36,271.925c-0.401-0.067-0.067-1.671-0.334-2.005c-0.869-1.003-2.406-2.874-3.275-3.543
		c-0.602-0.468-7.42-7.754-7.487-7.086c-4.947-3.81,0,9.492-6.35-4.345c-0.735-1.136-0.267-1.939,1.003-1.671
		c1.671,0.401,2.473,1.404,3.075,0.802c0.735-0.802-0.134-2.34,0.735-2.406c2.273-0.334,6.35,7.553,8.222,8.824
		c1.805,1.27,4.479,7.152,6.217,7.487c7.553,1.136,5.147,3.275,7.219,4.947c1.872,1.671,3.409,4.88,1.872,4.88
		C554.78,273.73,551.839,272.994,547.36,271.925L547.36,271.925z"/>
	<path style="fill:#435261;" d="M301.036,118.315l10.762,17.246l7.353-4.612l-10.829-17.246l-0.869,1.738l-1.003,1.805
		c-0.267,0.535-0.802,0.869-1.404,0.869l-2.072,0.067L301.036,118.315z"/>
	<path style="fill:#435261;" d="M299.164,108.021c0.134-0.201,0.334-0.334,0.602-0.334l2.072-0.134l2.072-0.067
		c0.267,0,0.535,0.134,0.668,0.334l1.136,1.805l1.07,1.738c0.134,0.201,0.134,0.535,0.067,0.735l-1.003,1.872l-0.936,1.805
		c-0.134,0.267-0.401,0.401-0.668,0.401l-2.072,0.067l-2.072,0.067c-0.267,0-0.535-0.067-0.668-0.334l-1.07-1.738l-1.136-1.805
		c-0.134-0.201-0.134-0.468,0-0.735l0.936-1.805L299.164,108.021z"/>
	<path style="fill:#435261;" d="M405.916,92.111c-0.267,3.676-0.535,7.888,2.741,10.428c1.938,1.471,4.078,1.805,6.35,2.139
		c2.941,0.267,5.816,0.602,8.69,0.869l0,0c2.941,0.2,5.816,0.334,8.757,0.535c2.34,0,4.479,0.067,6.618-1.07
		c3.676-1.939,4.078-6.217,4.345-9.826l0.401-7.888c-0.067-1.738-0.201-5.816-4.813-7.62c-0.602-0.201-1.07-0.334-2.273-0.602
		c-2.273-0.334-3.008-0.468-5.281-0.668c0.401,0.334,0.668,0.869,0.602,1.404l-0.334,4.144c0,0.468-0.267,0.936-0.668,1.203
		c2.473,0.201,4.211,1.003,4.345,3.743c0.067,0.936,0,2.34-0.134,4.479c-0.267,2.34-0.535,3.877-1.27,4.746
		c-0.735,0.869-2.139,1.069-4.412,1.069l-5.281-0.401l0,0l-5.348-0.468c-2.273-0.334-3.61-0.735-4.211-1.805
		c-0.535-0.869-0.535-2.54-0.401-4.88c0.201-2.072,0.334-3.476,0.535-4.412c0.602-2.674,2.473-3.209,4.88-3.008
		c-0.334-0.334-0.468-0.802-0.468-1.27l0.334-4.144c0.067-0.535,0.401-1.003,0.869-1.27c-2.273-0.201-3.008-0.134-5.281-0.267
		c-1.27,0.134-1.738,0.134-2.406,0.267c-4.88,1.003-5.615,5.013-5.949,6.751L405.916,92.111z"/>
	<path style="fill:#435261;" d="M171.423,605.081v77.273h32.487v-78.142c-1.003,2.54-3.142,4.479-6.016,4.813
		c-0.334,0.602-0.668,1.136-1.136,1.738v-0.067c-1.337,1.604-3.209,2.741-5.08,3.476c-0.201,0.401-0.401,1.136-0.468,1.537
		c0,0.134-0.067,0.334-0.067,0.535c-0.334,1.738-1.805,2.941-3.543,2.874c-1.805,0.067-3.209-1.136-3.543-2.874
		c-0.067-0.201-0.067-0.401-0.067-0.535c-0.067-0.401-0.267-1.136-0.468-1.537c-1.738-0.669-3.342-1.604-4.612-2.941
		c-0.535-0.468-0.936-1.003-1.337-1.604c0-0.067,0-0.067-0.067-0.134v-0.067c-0.067-0.067-0.067-0.067-0.067-0.134
		c-0.067-0.067-0.134-0.134-0.134-0.267C174.699,608.891,172.626,607.287,171.423,605.081L171.423,605.081z"/>
	<path style="fill:#435261;" d="M514.539,637.969c0,13.971,0.267,30.281,13.636,38.837c7.821,5.013,16.043,5.548,24.933,6.15
		c11.564,0.334,23.062,0.602,34.626,0.602c10.428,0,20.923-0.267,31.217-0.602c7.687-0.401,14.906-1.003,22.193-4.545
		c2.741-1.471,4.746-2.941,5.615-3.81c7.687-6.484,9.292-15.909,9.893-19.118c0.134-1.471,0.401-2.941,0.602-4.412
		c0.267-4.88,0.668-9.759,0.869-14.572c0.267-7.487,0-15.04-0.334-22.527c-0.735-11.163-1.738-15.575-4.612-20.722
		c-6.283-11.23-16.845-13.436-21.056-14.171c-1.604-0.267-3.208-0.401-4.746-0.735c-6.083-0.201-12.099-0.468-18.115-0.735
		c0.735,1.471,1.203,3.008,1.337,4.679c2.473,1.738,4.011,4.813,4.011,8.021v0.401v0.134c-0.201,3.008-1.671,5.816-4.011,7.487
		c-0.134,1.738-0.668,3.409-1.537,4.947c8.021,0.535,13.837,1.203,16.243,9.358c0.735,2.34,0.869,4.144,1.003,6.484v22.527
		c-0.401,3.543-0.668,6.751-2.607,9.826c-3.342,5.147-9.292,5.749-15.775,6.217h-41.778c-8.69-0.735-13.904-1.938-16.511-5.615
		c-2.34-3.409-2.941-9.559-3.209-18.516c0.134-8.088,0.267-13.57,0.735-17.246c0.869-6.283,3.342-8.489,5.815-10.16
		c2.807-1.805,5.348-2.607,11.431-2.874c-0.869-1.604-1.404-3.409-1.537-5.281c-2.139-1.805-3.476-4.545-3.543-7.487v-0.201
		c0-3.008,1.337-5.882,3.543-7.687c0.134-1.805,0.668-3.61,1.471-5.147c-6.35,0.267-12.701,0.602-19.051,0.869
		c-4.813,0.735-6.551,1.07-9.024,1.805c-18.249,5.281-19.853,20.856-20.722,27.473L514.539,637.969z"/>
	<path style="fill:#B9D432;" d="M201.236,594.139h-0.267v1.604c0,2.406-1.537,4.345-3.543,4.479h-2.139
		c-0.067,0.602-0.267,1.203-0.535,1.738c-0.134,0.334-0.401,0.668-0.735,1.136l0,0c-0.735,0.802-2.072,1.805-4.278,2.607
		c0,0-1.604,0.802-2.139,4.011c0,0,0,0.334,0,0.201c0,0.134-0.067-0.201-0.067-0.201c-0.468-3.209-2.072-4.011-2.072-4.011
		c-2.005-0.735-3.209-1.537-4.011-2.34c-0.267-0.267-0.535-0.602-0.802-0.936v-0.067h-0.067c0-0.067,0-0.067,0-0.067
		c-0.334-0.602-0.602-1.27-0.668-2.005h-1.872h-0.267c-2.139,0-3.81-2.072-3.81-4.545v-1.604c-1.404-0.067-2.473-1.337-2.54-3.008
		v-6.751c0-1.604,1.136-3.008,2.54-3.075V579.7c0-2.473,1.671-4.479,3.81-4.479h0.267l1.872-0.067
		c0.067-0.668,0.334-1.337,0.668-1.939c0-0.067,0-0.067,0-0.067l0.067-0.067c0,0,0,0,0-0.067c0.267-0.334,0.535-0.668,0.802-0.936
		c0.802-0.802,2.005-1.604,4.011-2.273c0,0,1.604-0.802,2.072-4.078c0,0,0.067-0.267,0.067-0.201c0-0.067,0,0.201,0,0.201
		c0.535,3.275,2.139,4.078,2.139,4.078c2.206,0.735,3.543,1.738,4.278,2.607l0,0c0.334,0.401,0.602,0.802,0.735,1.136
		c0.267,0.535,0.468,1.07,0.535,1.671h2.139c2.005,0.134,3.543,2.139,3.543,4.479v1.604h0.267c1.404,0,2.607,1.404,2.607,3.075
		v6.685v0.201h-0.067C203.709,592.869,202.573,594.139,201.236,594.139L201.236,594.139z"/>
	<path style="fill:#435261;" d="M396.691,716.846h-31.284v37.366h29.746c3.075,0,5.281-0.134,6.685-0.401
		c2.473-0.468,4.412-1.404,5.816-2.807c2.607-2.607,3.877-7.955,3.877-16.043c0-6.417-0.869-10.963-2.54-13.436
		C406.852,718.45,402.774,716.846,396.691,716.846L396.691,716.846z M405.314,746.325c-1.537,2.741-4.88,4.078-10.094,4.078H370.02
		v-29.746h25.669c4.813,0,8.021,1.27,9.559,3.81c1.003,1.805,1.604,5.348,1.604,10.562
		C406.852,740.709,406.317,744.453,405.314,746.325L405.314,746.325z"/>
	<rect x="459.258" y="716.846" style="fill:#435261;" width="4.545" height="37.366"/>
	<rect x="765.476" y="716.846" style="fill:#435261;" width="4.612" height="37.366"/>
	<path style="fill:#435261;" d="M64.337,734.426c2.807-0.468,4.679-1.27,5.615-2.34c0.936-1.069,1.337-3.075,1.337-5.882
		c0-6.283-3.476-9.358-10.361-9.358H29.244v37.366h31.15c4.211,0,7.219-0.735,9.091-2.206c2.072-1.671,3.142-4.545,3.142-8.623
		c0-3.275-0.602-5.548-1.738-6.818C69.685,735.295,67.546,734.56,64.337,734.426L64.337,734.426z M33.856,720.589h25.936
		c2.406,0,4.078,0.401,5.08,1.136c1.136,0.869,1.738,2.473,1.738,4.813c0,2.473-0.668,4.211-2.005,5.147
		c-1.136,0.735-2.941,1.136-5.481,1.136H33.856V720.589z M65.541,749.332c-1.27,0.735-3.275,1.07-6.016,1.07H33.856v-13.77h26.136
		c2.607,0,4.479,0.334,5.615,1.003c1.537,0.802,2.273,2.941,2.273,6.35C67.88,746.592,67.145,748.397,65.541,749.332L65.541,749.332
		z"/>
	<polygon style="fill:#435261;" points="120.086,736.766 151.37,736.766 151.37,732.956 120.086,732.956 120.086,720.589 
		152.573,720.589 152.573,716.846 115.474,716.846 115.474,754.212 152.974,754.212 152.974,750.402 120.086,750.402 	"/>
	<polygon style="fill:#435261;" points="204.177,716.846 199.632,716.846 199.632,754.212 233.723,754.212 233.723,750.402 
		204.177,750.402 	"/>
	<polygon style="fill:#435261;" points="282.72,736.766 314.071,736.766 314.071,732.956 282.72,732.956 282.72,720.589 
		315.274,720.589 315.274,716.846 278.175,716.846 278.175,754.212 315.675,754.212 315.675,750.402 282.72,750.402 	"/>
	<polygon style="fill:#435261;" points="530.248,734.359 512.935,716.846 506.451,716.846 527.975,738.303 527.975,754.212 
		532.52,754.212 532.52,738.303 554.111,716.846 547.694,716.846 	"/>
	<polygon style="fill:#435261;" points="600.836,736.766 632.12,736.766 632.12,732.956 600.836,732.956 600.836,720.589 
		633.323,720.589 633.323,716.846 596.224,716.846 596.224,754.212 633.724,754.212 633.724,750.402 600.836,750.402 	"/>
	<path style="fill:#435261;" d="M705.048,733.223h-4.345h-2.607h-1.805c-1.136,0-2.54,0-4.078-0.067
		c-2.473-0.134-4.211-0.535-5.214-1.203c-1.471-0.869-2.139-2.473-2.139-4.679c0-2.807,0.802-4.545,2.473-5.214
		c2.473-1.136,7.019-1.671,13.703-1.671h1.537c6.35,0,10.428,0.401,12.299,1.337c1.537,0.668,2.273,2.54,2.273,5.481h4.545
		c0-3.275-0.735-5.682-2.206-7.353c-1.471-1.604-4.345-2.674-8.623-3.142c-1.738-0.201-4.947-0.267-9.492-0.267
		c-7.62,0-12.767,0.535-15.575,1.537c-3.81,1.471-5.749,4.813-5.749,10.16c0,3.209,1.069,5.481,3.142,6.885
		c1.738,1.203,4.345,1.872,7.888,2.005c2.941,0.134,6.283,0.201,10.027,0.267h8.623c3.008,0.067,5.013,0.334,6.016,0.936
		c1.471,0.869,2.206,2.674,2.206,5.348c0,2.139-0.468,3.676-1.471,4.612c-0.936,0.936-2.54,1.537-4.746,1.805
		c-3.342,0.401-6.885,0.602-10.628,0.602c-6.35,0-10.762-0.334-13.102-0.936c-1.471-0.468-2.406-1.27-2.874-2.406
		c-0.267-0.735-0.468-2.072-0.468-3.877v-0.869h-4.612c0,4.011,0.602,6.751,1.805,8.289c1.337,1.738,4.345,2.874,8.957,3.342
		c2.206,0.267,5.548,0.401,10.094,0.401h3.008c6.618,0,11.23-0.535,13.703-1.671c3.342-1.537,5.08-4.545,5.08-9.225
		c0-3.476-0.802-5.882-2.273-7.353C718.35,734.226,713.203,733.223,705.048,733.223L705.048,733.223z"/>
	<polygon style="fill:#435261;" points="667.949,578.543 667.949,682.354 770.756,682.354 770.756,656.618 699.967,656.618 
		699.967,578.543 	"/>
	<path style="fill:#435261;" d="M507.454,614.439c0.267-9.759,0.267-18.249-6.283-26.337c-4.011-5.013-9.559-8.69-22.928-10.027
		c-8.222-0.869-16.177-0.869-24.332-0.735h-25.067c-4.078,0-8.155,0.134-12.233,0.134c-15.642,0.334-23.062,0.602-30.281,3.676
		c-12.5,5.281-16.979,15.441-18.583,28.276c-0.535,4.412-0.735,8.824-0.735,13.235c0,3.209,0,6.35,0.201,9.425
		c0.134,11.631-1.069,27.34,6.083,37.968c0.869,1.003,2.741,3.476,5.749,5.882c10.027,7.487,21.524,7.62,32.955,7.62h52.072
		c9.158,0,19.719,0,28.275-3.677c10.294-4.412,13.77-13.369,14.773-23.997c0.468-3.81,0.602-7.62,0.602-11.43
		c0.267-7.086,0.134-14.037,0.134-20.923l-75-0.134v20.321h43.115c0,3.342-0.134,6.618-2.072,9.693
		c-3.275,4.88-8.824,5.013-15.04,5.147h-38.77c-5.882-0.468-11.564-0.735-15.374-4.278c-4.612-4.545-4.612-12.5-4.612-13.971
		c0-0.735,0-1.337-0.134-2.072v-13.703c0.401-9.826,0.735-15.241,4.746-18.516c3.342-2.807,7.687-3.075,11.765-3.209h43.984
		c13.168,0.602,14.037,3.075,14.906,11.631H507.454z"/>
	<path style="fill:#435261;" d="M216.209,578.543v103.81h29.88v-79.412c8.422,11.497,16.979,23.062,25.669,34.425
		c11.765,15.308,23.797,30.147,35.829,44.987h50.334v-103.81h-29.612v32.353l0.602,47.661c-9.693-12.968-19.452-25.869-29.278-38.57
		c-10.896-13.971-22.059-27.674-33.222-41.444H216.209z"/>
	<path style="fill:#435261;" d="M122.76,682.354c14.773,0.468,22.46,0,28.677-4.412c2.473-1.738,4.078-3.342,4.813-4.412
		c3.008-3.476,6.083-8.623,6.083-18.65c0-12.366-2.741-17.38-7.42-20.722c-4.211-3.275-8.957-4.011-14.037-4.746
		c3.61-1.003,7.553-2.072,10.695-4.679c4.211-3.409,6.818-8.222,6.818-19.586c0-10.762-3.61-16.644-7.353-19.719
		c-7.42-6.618-17.848-6.751-27.139-6.751H29.31v103.677H122.76z M60.193,640.174h56.417c4.813-0.134,9.024-0.334,12.233,3.944
		c1.136,1.805,1.872,3.409,1.872,5.749c0,1.738-0.468,2.941-0.602,3.543c-1.404,3.944-4.479,4.88-8.556,5.615H60.193V640.174z
		 M60.393,601.337h54.078c4.345,0.134,7.821,0.134,10.562,3.877c1.203,1.471,1.872,3.409,1.872,5.281
		c0,2.807-1.27,4.679-1.872,5.414c-2.741,3.81-6.685,3.677-11.297,3.476H60.393V601.337z"/>
	<rect x="765.476" y="707.287" style="fill:#435261;" width="4.546" height="5.949"/>
	<path style="fill:#B9D432;" d="M603.376,594.787h-0.267v2.34c0,3.409-1.938,6.283-4.412,6.484h-2.741
		c-0.134,0.869-0.334,1.671-0.602,2.473c-0.201,0.468-0.535,1.003-1.003,1.604l0,0c-0.936,1.27-2.54,2.674-5.348,3.81
		c0,0-2.005,1.136-2.674,5.815c0,0,0,0.468,0,0.334c-0.067,0.134-0.067-0.334-0.067-0.334c-0.668-4.679-2.674-5.815-2.674-5.815
		c-2.406-1.003-4.011-2.206-4.947-3.342c-0.401-0.401-0.735-0.869-1.003-1.337c0-0.067-0.067-0.067-0.067-0.134v-0.067l-0.067-0.067
		c-0.401-0.869-0.735-1.872-0.802-2.874h-2.34h-0.401c-2.607,0-4.746-3.008-4.746-6.551v-2.34c-1.738-0.134-3.075-2.005-3.142-4.345
		v-0.134c0-2.406,1.404-4.412,3.142-4.479v-2.34c0-3.61,2.139-6.551,4.746-6.551h0.401h2.34c0.067-1.069,0.401-2.005,0.802-2.874
		c0-0.067,0.067-0.067,0.067-0.134l0,0c0-0.067,0.067-0.067,0.067-0.134c0.267-0.468,0.602-0.936,1.003-1.337
		c0.936-1.136,2.54-2.34,4.947-3.342c0,0,2.005-1.136,2.674-5.815c0,0,0-0.535,0.067-0.401c0-0.134,0,0.401,0,0.401
		c0.669,4.679,2.674,5.815,2.674,5.815c2.807,1.136,4.412,2.54,5.348,3.743v0.067c0.468,0.602,0.802,1.136,1.003,1.604
		c0.267,0.735,0.468,1.604,0.602,2.473h2.741c2.473,0.201,4.412,3.075,4.412,6.484v2.34h0.267c1.805,0,3.275,2.005,3.275,4.479l0,0
		v0.267l0,0C606.518,592.915,605.114,594.787,603.376,594.787L603.376,594.787z"/>
	<rect x="459.258" y="707.287" style="fill:#435261;" width="4.479" height="5.949"/>
</g>
</svg>
