<?xml version="1.0" encoding="UTF-8"?>
<svg id="Layer_2" data-name="Layer 2" xmlns="http://www.w3.org/2000/svg" viewBox="0 0 590.27 590.28">
  <defs>
    <style>
      .cls-1 {
        fill: #4bd40b;
      }

      .cls-2 {
        fill: #fff;
      }

      .cls-3 {
        fill: #7dfd00;
      }

      .cls-4 {
        fill: #19bf00;
      }

      .cls-5 {
        fill: #edd621;
      }
    </style>
  </defs>
  <g id="Layer_1-2" data-name="Layer 1">
    <g>
      <path class="cls-2" d="M266.72,11.52c50.86-5.08,103.08,3.64,149.33,25.47,57.48,26.83,105.38,73.47,133.81,130.17,20.94,41.45,31.37,88.11,30.21,134.53-.83,40.58-10.53,80.95-28.24,117.47-27.97,58.06-76.26,106.01-134.52,133.56-39.51,18.85-83.45,28.23-127.21,27.41-44.4-.7-88.59-12-127.83-32.78-58.56-30.77-105.75-82.54-130.79-143.78-22.63-54.64-27.36-116.39-13.8-173.91,14.73-63.38,52.22-121.02,103.86-160.55,41.76-32.25,92.66-52.48,145.18-57.59M211.05,46.21c-58.68,19.55-109.8,60.58-141.79,113.49-20.3,33.32-33.02,71.22-36.9,110.04-3.27,31.77-.67,64.09,7.43,94.96,3.5-1.06,6.93-2.32,10.39-3.47,2.33-.74,4.63-1.54,6.92-2.38,3.01-1.13,6.05-2.17,9.09-3.21-11.34-44.4-9.63-92.08,5.27-135.44,11.52-33.79,30.9-64.84,56.09-90.12,26.05-26.25,58.33-46.3,93.47-57.86,51.06-16.97,107.93-15.7,158.19,3.52,32.6,12.39,62.36,32.15,86.48,57.34,26.64,27.7,46.4,61.98,56.87,98.97,11.62,40.68,11.82,84.42,1.13,125.32,3.11.73,6.21,1.48,9.31,2.29,2.13.53,4.24,1.46,6.47,1.4l.6-.36.21.64c3.36,1.13,6.89,1.67,10.29,2.68,16.73-62.46,9.29-131.02-20.58-188.39-28.6-55.67-77.62-100.49-135.7-123.85-57.83-23.57-124.08-25.54-183.24-5.57M291.74,93.54c-.22.4-.66,1.2-.88,1.6-3.01,4.9-6,9.83-8.46,15.03-.23.26-.69.77-.92,1.03-.24.49-.72,1.48-.95,1.97-.13.19-.37.58-.5.77-.56.99-1.12,1.99-1.66,2.99-.35.6-1.04,1.79-1.38,2.38-1.49,2.2-2.65,4.59-3.84,6.95,7.29-4.15,14.61-8.25,21.93-12.35,7.33,4.14,14.65,8.28,21.97,12.43-1.4-2.34-2.44-4.96-4.26-7.01-5.87-2.63-12.11-4.48-17.56-8,2.1-.92,1.79-2.06.06-3.19.66-.36,1.32-.73,1.99-1.09-.52-.31-1.56-.91-2.07-1.22l1.68-1.38-1.65-1.02c.4-.36,1.2-1.07,1.61-1.43l-1.74-.69c.27-.19.81-.58,1.07-.78-.68-2.6-.59-5.31-.69-7.97.86.51,2.57,1.53,3.43,2.04-1.25-2.35-2.52-4.66-3.83-6.97-1.14,1.95-2.27,3.91-3.35,5.91M299.51,101.55c.05,3.37,2.92-1.53,0,0M302.36,101.98c.13.81.4,2.41.54,3.22-1.25-.71-2.49-1.47-3.88-1.87l2.01,1.37c-.7.43-1.4.87-2.09,1.3.72.53,2.17,1.59,2.9,2.12-.19-.76-.28-1.51-.29-2.27,1.6-.18,3.09.91,4.68,1.12-1.72-1.31-2.81-3.16-3.87-4.99M303.41,107.69c.04,1.51,2.57,2.16,3.81,1.69-.1-1.43-2.6-2.2-3.81-1.69M302.19,109.76c.28.29.84.85,1.12,1.13l.69-.4c-.28-.28-.83-.84-1.11-1.12l-.7.39c-.63-3.26-2.98,1.48,0,0M298.94,110.8c3.96,2.69,8.42,4.56,12.97,5.98-3.57-3.26-8.67-3.98-12.97-5.98M304,110.49c.84,1.46,3.23,2.53,4.9,2.14-.37-1.73-3.32-2.33-4.9-2.14M294.8,125.32c-4.9,2.28-9.47,5.2-14.12,7.95-5.27,3.18-10.72,6.04-15.97,9.26l-.95.27c-.92,1.43-1.78,2.89-2.58,4.39l-.08.03c-.64,1.16-1.27,2.31-1.89,3.48-.35.62-1.04,1.86-1.39,2.48l-.29.12c-.44.95-.88,1.91-1.31,2.87-.77.9-1.39,1.93-1.83,3.07-.6.87-1.08,1.81-1.58,2.73l-.36.18c-.46,1.02-.91,2.04-1.35,3.07l-.31.14c-.32.64-.95,1.92-1.26,2.56l-.3.15c-.51,1-1.02,2.01-1.51,3.02l-.23.11c-.5.99-.99,1.99-1.48,3-.65.8-1.18,1.69-1.58,2.67l-.27.2c-.63,1.17-1.22,2.36-1.84,3.55-.36.59-1.07,1.78-1.43,2.37l-.21.1c-.5,1.07-1,2.15-1.5,3.23-.68.82-1.24,1.74-1.65,2.76-.65.93-1.16,1.95-1.69,2.95l-.36.19c-.46,1-.91,2-1.36,3.01l-.26.16c-3.57,6.59-7.43,13.02-10.97,19.63,24.13-13.46,48.12-27.18,72.18-40.76,24.03,13.65,48.09,27.25,72.1,40.92-3.62-6.53-7.12-13.16-11.08-19.49-4.18-3.4-9.16-5.65-13.99-7.96-11.08-4.91-22.51-8.96-34.04-12.65-4.6-1.43-8.83-3.75-12.96-6.18.95-1.05,1.91-2.09,2.87-3.13-.72-.43-2.16-1.29-2.88-1.72.96-1.05,1.92-2.09,2.88-3.13-1-.41-1.93-1.21-3.08-1.03l.76-1.42c.8-.65,1.52-1.44,2.29-2.16-.95-.61-1.89-1.2-2.83-1.79.89-1.05,1.78-2.09,2.67-3.13-.67-.42-2.02-1.25-2.69-1.67.85-1.03,1.71-2.05,2.57-3.07-.64-.43-1.92-1.29-2.56-1.72.84-1.03,1.67-2.06,2.52-3.09-.64-.39-1.92-1.17-2.56-1.55l.17-.12c.67-.99,1.38-1.95,1.94-3-.49-.45-1.47-1.35-1.96-1.8.73-.96,1.47-1.92,2.21-2.88-.58-.42-1.74-1.27-2.32-1.69.59-.8,1.19-1.6,1.79-2.4-.88-1.18-1.47-2.49-1.77-3.93-.08.21-.24.64-.32.85M303.07,131.94c4.14,2.62,8.9,3.97,13.14,6.38,3.73,2,7.34,4.23,11.22,5.93-7.13-5.74-15.89-9.04-24.36-12.31M300.11,134.74c5.54,3.87,12.16,5.64,18.01,8.92,4.23,2.28,8.51,4.45,12.67,6.84-.58-.95-1.16-1.89-1.72-2.83-9.42-4.83-19.1-9.11-28.96-12.93M300.95,139.7c5.16,3.65,11.38,5.2,16.94,8.09,5.43,2.82,10.91,5.54,16.26,8.51-.91-1.26-1.69-2.76-3.2-3.39-9.7-5.05-19.82-9.24-30-13.21M300.17,143.84c5.11,3.61,11.14,5.4,16.8,7.93,6.86,3.4,13.77,6.73,20.42,10.54-.77-1.16-1.28-2.64-2.6-3.29-11.06-6.09-23-10.32-34.62-15.18M301.05,149.01c5.19,3.5,11.3,5.14,16.95,7.7,7.77,3.78,15.65,7.38,23.08,11.81-1.02-1.54-1.95-3.27-3.75-4-11.61-6.23-23.99-10.84-36.28-15.51M301.16,153.79c5.28,3.38,11.35,5.07,17.08,7.47,8.82,4.14,17.77,8.05,26.1,13.14-.99-1.61-2.04-3.28-3.85-4.04-12.51-6.84-25.98-11.66-39.33-16.57M301.88,158.77c5.22,3.37,11.3,4.89,17,7.23,9.67,4.34,19.41,8.59,28.53,14.03-.85-1.64-1.94-3.2-3.71-3.93-13.26-7.29-27.63-12.22-41.82-17.33M302.01,163.69c5.66,3.15,11.93,4.88,17.92,7.27,10.65,4.75,21.54,9.15,31.34,15.58-1.21-2.07-2.69-4.05-4.95-5.04-14.03-7.59-29.19-12.85-44.31-17.81M301.29,167.91c5.86,3.44,12.42,5.29,18.75,7.64,11.7,5.05,23.65,9.75,34.32,16.84-.9-1.67-1.83-3.41-3.61-4.25-15.41-9.13-32.74-14.14-49.46-20.23M293.25,186.3c-11.13,6.96-23.06,12.64-33.98,19.92-14.91,7.82-29.39,16.54-44.09,24.79-2.14.94-3.23,3.04-4.19,5.04-.73,1.02-1.31,2.12-1.75,3.32-.96,1.06-1.5,2.4-2.18,3.64-.74,1-1.33,2.1-1.77,3.29-.9,1.07-1.47,2.37-2.14,3.59-.72,1.03-1.32,2.14-1.79,3.33-.9,1.1-1.49,2.41-2.18,3.64-.69,1.03-1.27,2.13-1.73,3.3-.28.42-.83,1.27-1.11,1.69l-.15.07c-.74,1.44-1.48,2.87-2.18,4.33l-.28.16c-.48.93-.96,1.87-1.43,2.82-1.01,1.05-1.51,2.46-2.14,3.75-.59.86-1.12,1.77-1.6,2.7-.34.68-1.02,2.03-1.36,2.7-.91,1.02-1.45,2.3-2.12,3.49-.68.99-1.25,2.04-1.72,3.17-3.89,6.38-7.38,13.01-11.11,19.49,40.99-23.26,81.88-46.72,122.85-70.02,13.61,7.76,27.21,15.55,40.84,23.29,1.67-2.12,3.37-4.2,5.11-6.26-15.37-6.65-31.74-11.27-45.91-20.46,1.71-.76,3.43-1.51,5.15-2.27-1.73-1.01-3.44-2.03-5.15-3.04,1.65-.81,3.32-1.61,4.97-2.44-1.66-.97-3.33-1.95-4.98-2.93,1.61-.78,3.23-1.55,4.86-2.31-1.62-1.06-3.24-2.11-4.85-3.16,1.58-.75,3.15-1.5,4.74-2.25-1.58-1.05-3.17-2.09-4.76-3.12,1.56-.76,3.12-1.52,4.68-2.27-1.55-1.04-3.1-2.08-4.65-3.11,1.35-.68,2.7-1.33,4.02-2.07-.71-1.69-2.69-2.27-4.01-3.36,1.5-.76,3.01-1.53,4.51-2.29-1.51-1.01-3.02-2.02-4.53-3.01,1.46-.83,2.93-1.65,4.39-2.49-1.46-.93-2.91-1.86-4.36-2.77.53-.36,1.6-1.09,2.13-1.45-1.27-.75-2.65-1.02-4.05-.44M309.19,196.95c7.92,4.92,16.68,8.24,24.9,12.59,9.87,5.45,19.85,10.71,29.53,16.5,2.57,1.4,4.85,3.75,7.98,3.72-3.38-3.04-7.61-4.85-11.46-7.19-16.41-9.64-33.72-17.59-50.95-25.62M449.45,225.13c-2.22,3.08-2.9,6.87-4.84,10.07-21.42-9.45-46.74-9.62-68.22-.27-18.19,7.79-33.48,22.09-42.45,39.71-8.67,16.77-11.42,36.46-7.86,54.99,2.92,15.62,10.38,30.35,21.19,42,13.18,14.36,31.4,24.01,50.72,26.7,16.66,2.4,34.02-.23,49.19-7.55,17.15-8.21,31.41-22.32,39.78-39.39,8.96-17.99,11.15-39.2,6.22-58.68-4.44-17.9-14.94-34.18-29.3-45.73-3.65-2.85-7.32-5.79-11.64-7.52-2.57-2.08.87-3.58,1.4-5.72.92-2.01.24-4.62-1.74-5.7.2-9.59,1.04-19.17.94-28.76-2.44,8.36-1.32,17.43-3.39,25.85M310.14,202.78c9.09,5.15,18.94,8.75,28.08,13.81,8.45,4.52,16.96,8.96,25.26,13.77,1.25.75,2.63,1.22,4.08,1.49-1.58-1.74-3.66-2.85-5.7-3.93-16.89-9.07-34.12-17.53-51.72-25.14M310.15,207.89c7.29,4.29,15.19,7.38,22.83,10.98,9.52,4.75,18.85,9.86,28.29,14.77.76.6,1.59.04,2.36-.18-17.36-9.46-35.39-17.63-53.48-25.57M311.2,213.79c10.82,5.6,22.32,9.78,33.02,15.63,5.17,2.28,9.82,5.83,15.35,7.21-1.62-1.69-3.78-2.63-5.84-3.63-14.02-6.72-28.06-13.48-42.53-19.21M311.24,218.96c7.23,3.87,14.87,6.9,22.38,10.18,7.34,3.25,14.26,7.41,21.7,10.43-.67-1.71-2.46-2.31-3.96-3.04-13.28-6.08-26.53-12.24-40.12-17.57M311.12,223.97c9.84,5.5,20.67,8.85,30.7,13.95,3.2,1.54,6.32,3.25,9.67,4.47-.55-.85-1.25-1.49-2.12-1.94-12.62-5.77-25.42-11.16-38.25-16.48M312.07,229.76c7.66,3.9,15.7,6.98,23.64,10.26,4.2,1.71,8.11,4.14,12.48,5.46-1.93-1.93-4.58-2.76-7.01-3.81-9.62-4.18-19.29-8.26-29.11-11.91M292.61,247.3c-13.57,7.79-27.41,15.16-40.72,23.38-2.46.98-4.73,2.39-6.91,3.88-15.94,8.49-31.48,17.77-47.25,26.58-9.67,5.66-19.66,10.82-29.13,16.8-2.9,1.38-6.23,2.76-7.3,6.1-1.22,1.41-1.91,3.17-2.7,4.84-.94,1.21-1.59,2.61-2.31,3.96-1.01,1.24-1.63,2.74-2.29,4.18-.82,1-1.32,2.22-1.92,3.36-1.21,1.36-1.86,3.1-2.63,4.73-.95,1.16-1.56,2.56-2.25,3.89-1.19,1.44-1.97,3.17-2.76,4.85-.38.68-1.14,2.04-1.52,2.73-1.14,1.29-1.75,2.93-2.48,4.48-1.01,1.22-1.63,2.7-2.35,4.11-1.22,1.4-1.95,3.15-2.75,4.82-4.57,7.71-8.86,15.6-13.27,23.41,57.67-32.78,115.34-65.57,173.02-98.34,7.51,4.2,14.89,8.62,22.49,12.67.06-1.45.14-2.89.21-4.32-7.81-3.26-15.22-7.39-22.59-11.53,2.24-1.11,4.53-2.14,6.83-3.15-2.22-1.34-4.49-2.57-6.67-3.96,1.66-1.52,4.85-1.46,5.75-3.59-1.92-1.33-3.97-2.45-5.95-3.65,2.2-1.03,4.42-2.04,6.64-3.04-2.23-1.34-4.45-2.7-6.62-4.11,2.11-.99,4.23-1.97,6.35-2.97-2.09-1.41-4.23-2.75-6.36-4.07,2.05-1.04,4.12-2.05,6.2-3.05-2.05-1.42-4.14-2.77-6.23-4.12,2.06-1.02,4.11-2.04,6.15-3.08-2.15-1.37-4.28-2.76-6.32-4.26,1.26-.36,2.55-.67,3.84-.95-1.26-.59-2.51-1.23-3.73-1.86-.62.32-1.85.96-2.47,1.28M292.59,307.66c-16.71,9.41-33.35,18.95-50.03,28.42-10.18,5.93-20.65,11.41-30.63,17.67-5.4,2.71-10.55,5.9-15.8,8.88-18.76,10.82-37.8,21.17-56.4,32.26,8.79.41,17.6-.21,26.39.34.22-.13.66-.4.88-.53,1.04.15,3.12.47,4.15.62.23-.14.69-.44.92-.59,1.64.17,3.29.36,4.94.56.22-.13.66-.37.87-.5,5.67.55,11.37-.06,17.04.41.26-.1.79-.3,1.05-.39,7.39.47,14.81.07,22.22.22,2.72-.11,5.73.51,8.14-1.14,22.91-13.03,45.86-26.01,68.78-39.02,21.04,11.9,41.96,24.04,63.08,35.78-8.83-6.06-16.37-13.74-23.07-22.04-13.06-6.47-27.49-10-39.98-17.66,1.36-.65,2.72-1.3,4.1-1.94,10.25,7.16,22.49,10.38,33.62,15.84-1.58-3.36-5.32-4.16-8.4-5.51-8.57-3.55-17.47-6.45-25.47-11.24-1.03-.79-2.61-1.17-3.09-2.47,1.19-.73,2.4-1.42,3.63-2.07,8.95,6.14,19.03,10.3,29.19,13.94-1.8-2.57-5.01-3.2-7.71-4.39-8.94-3.46-17.84-7.18-25.83-12.55,1.58-.77,3.19-1.52,4.78-2.27-1.62-.97-3.24-1.94-4.85-2.9,1.54-.76,3.09-1.51,4.65-2.25-1.55-1.01-3.1-2.01-4.63-3.02,1.45-.68,2.9-1.37,4.36-2.04-1.42-1.04-2.85-2.04-4.28-3.03,1.32-.71,2.66-1.41,3.96-2.18-1.16-1.21-2.6-2.1-3.96-3.03,1.21-.87,3.05-1.17,3.77-2.56-1.25-.95-2.57-1.8-3.86-2.66,1.39-.75,2.79-1.48,4.19-2.21-1.39-1-2.8-2.01-4.18-2.99.67-.37,2-1.11,2.67-1.48-.71-.38-2.13-1.13-2.84-1.51-.59.31-1.77.92-2.37,1.23M308.95,338.63c4.59,2.39,9.21,4.84,14.18,6.35-4.3-2.93-9.35-4.52-14.18-6.35M304.03,340.82c6.59,4.47,14,7.94,21.65,10.12-2.4-2.15-5.56-3.03-8.44-4.27-4.5-1.75-8.84-3.83-13.21-5.85M271.48,379.86c-1.95.61-3.59,1.86-5.23,3.02-7.26,3.73-14.27,8.02-21.36,12.09,17.95.18,35.91-.1,53.86.14l-.09-1.14c1.87.59,3.79,1.24,5.79.82l.53.25c7.63-.05,15.26.07,22.89-.06-2.14-2.03-4.52-3.74-6.83-5.55,2.8,1.22,5.01,3.38,7.07,5.57,3.9.04,7.8-.01,11.7.16-.1-.27-.31-.8-.42-1.06,1.74.91,3.63,1.25,5.67.99-2.92-2.06-6.07-3.78-9.15-5.57l1.99,2.83-.23.2c-1.19-1.35-2.46-2.65-3.98-3.62-7.91-5.41-16.84-9.14-25.81-12.38,1.89,1.56,4.18,2.51,6.38,3.54l-.42,1.15c-.51-.21-1.53-.64-2.03-.85l-1.28.35-.05-.89-1.01-.49-.9.44.32-.33c-.99-1.4-3.26-2.19-4.9-1.82.68.71,1.41,1.38,2.19,2.04-.8-.01-2.38-.02-3.18-.03v.49c2.36,1.12,4.8,2.06,7.18,3.16l.16-.87.26.87c.39.06,1.19.18,1.59.24l-.07.53c1.75,1.22,3.75,2.04,5.46,3.37-1.14-.2-3.42-.6-4.56-.8,1.15,1.97,3.81,2.58,5.56,4.02-1.93-.75-3.81-1.6-5.73-2.31-4.03-2.52-8.69-3.71-12.76-6.14-.84,1.01-2.15,1.97-1.43,3.59,2.6-.57,3.84,1.61,5.68,2.85-1.45-.1-2.88-.27-4.11-1.08-.93-.43-1.87-.83-2.8-1.21.88-2.1.21-3.21-2.02-3.31,1.21-.36,2.43-.73,3.61-1.18-1.02-.36-3.06-1.08-4.08-1.44.67-.28,2.01-.84,2.68-1.12l.22,1.74c.64-.44,1.28-.88,1.92-1.31l-3.15-1.12-1.2-1.93,3.01,1.05-1.56-1.62c1.37.18,2.75.27,4.13.27-.84-1.77-3.41-2.29-5.18-2.73.23-.59.68-1.76.91-2.34l-1.44-1.44,1.95-.56c-.44-.26-1.32-.79-1.77-1.05.26-.48.78-1.43,1.04-1.91-.63.09-1.91.28-2.55.37-7.51,4.34-15.19,8.4-22.47,13.12M42.17,381.43c1.81,4.94,3.72,9.84,5.62,14.74,1.19,2.91,2.37,6,4.78,8.14,4.98,4.71,15.4,1.11,14.9-6.29,5.05,4.96,14.45-.43,12.99-7.28-1.47-7.34-4.97-14.08-7.4-21.12-10.32,3.89-20.58,7.91-30.89,11.81M516.33,371.45c-1.11,3.43-2.23,6.86-3.33,10.31,10.49,3.4,20.99,6.79,31.46,10.24,1.13-3.45,2.26-6.89,3.36-10.34-10.51-3.37-20.99-6.81-31.49-10.21M302.41,376.88c.18.3.55.88.73,1.18l.85-.41c-.28-.31-.82-.94-1.1-1.26l-.48.49M303,379.66l.05-.64c-2.06-1.98-2.39,1.86-.05.64M300.39,380.91l.17.73c.43.01,1.28.03,1.71.03-.3-.28-.89-.84-1.19-1.12l-.69.36M302.27,381.67l.13.9c2.09,1.27,1.64-2.63-.13-.9M305.52,383.03q.26.26,0,0M308.89,384.75c.55.22,1.65.66,2.2.88-.36-.29-1.07-.88-1.43-1.18l-.77.3-.05-.93c-1.96-1.44-1.87,2.5.05.93M311.09,385.63c.48.26,1.45.77,1.93,1.02l-.09-.69c-.46-.08-1.38-.24-1.84-.33M496.6,392.36c1.73,1.69,1.75,4.23.33,6.11-1.21,2.63-5.27.92-5.78,4.33,2.1.47,4.44,1.28,6.5.14,2.51-1.5,3.99-4.48,4.11-7.35.02-2.53-2.16-4.15-3.8-5.71-.34.62-1.02,1.86-1.36,2.48M507.95,394.46c-5.55,4.95-8.9,13.39-6.02,20.6,2.34,5.39,7.72,8.71,13.11,10.48,4.88,1.66,10.75,1.11,14.68-2.46,4.13-3.91,6.59-9.94,5.15-15.6l2.56.52c1.2-1.9,2.13-3.96,3.15-5.97-5.41-2.72-10.77-5.55-16.22-8.2-2.11,4.34-4.35,8.62-6.54,12.92,2.09,1.08,4.19,2.15,6.29,3.23.76-1.49,1.53-2.98,2.34-4.44,3.59,3.88.32,11.51-5.21,10.67-4.43-.92-9.4-3.21-11.28-7.6-1.22-4.17,2.71-7.71,6.74-7.39,1.44-2.94,2.96-5.85,4.35-8.82-4.4-1.28-9.53-1.16-13.1,2.06M58.04,417.66c4.36,7.92,8.78,15.81,13.13,23.74,2.34-1.3,4.68-2.6,7.03-3.88-2.61-4.85-5.32-9.64-7.98-14.46,1.5-.84,3.01-1.66,4.52-2.47,2.14,3.9,4.31,7.79,6.45,11.7,2.22-1.22,4.44-2.45,6.66-3.67-2.16-3.92-4.34-7.82-6.49-11.74,1.28-.71,2.56-1.43,3.85-2.13,2.55,4.61,5.12,9.21,7.65,13.84,2.33-1.25,4.65-2.53,6.97-3.82-4.26-7.73-8.57-15.43-12.83-23.16-9.66,5.33-19.31,10.7-28.96,16.05M486.19,431c9.37,5.81,18.71,11.66,28.06,17.51,1.91-3.06,3.82-6.13,5.74-9.18-9.35-5.87-18.72-11.71-28.07-17.55-1.93,3.06-3.87,6.11-5.73,9.22M217.82,425.08c.01,12.85-.01,25.7.01,38.55,6.46-.01,12.93.04,19.39-.02,3.68-.1,7.59-.12,10.86-2.03,6.84-3.64,7.08-15.82-.75-18.48,4.57-2.7,5.85-9.08,2.9-13.43-2.28-3.43-6.64-4.32-10.48-4.48-7.31-.23-14.62-.09-21.93-.11M269.63,425.43c-5.75,1.99-10.19,7.17-11.38,13.13-1.54,7.18-.47,15.64,5.1,20.89,5.39,5.23,13.63,6.11,20.69,4.64,6.37-1.3,11.81-6.29,13.5-12.59,2.03-7.55,1.08-16.71-4.88-22.3-6.06-5.66-15.44-6.21-23.03-3.77M304.28,425.06v38.61c9.93-.05,19.85-.04,29.78-.03,0-3.41,0-6.82.01-10.22-5.73-.04-11.46-.01-17.18-.02v-28.34c-4.2.01-8.41.01-12.61,0M338.2,425.06c0,8.2-.03,16.41,0,24.62-.05,3.67.98,7.55,3.68,10.18,3.7,3.73,9.19,4.72,14.25,4.86,4.98.04,10.34-.57,14.43-3.7,3.21-2.4,4.84-6.43,4.9-10.37.12-8.52,0-17.05.05-25.57-4.22-.02-8.44-.02-12.66.01-.01,7.85.03,15.71,0,23.57-.01,2.11-.33,4.92-2.65,5.74-3.31,1.28-8.99.74-9.23-3.74-.39-8.52-.06-17.07-.16-25.59-4.2,0-8.41,0-12.61,0M76.66,449.19c5.16,6.57,10.3,13.16,15.45,19.74,2.3-1.81,4.61-3.61,6.92-5.42-2.97-3.77-5.89-7.57-8.89-11.31,6.31-5.09,12.74-10.02,19.13-15-2.12-2.84-4.34-5.61-6.5-8.41-8.72,6.78-17.43,13.57-26.11,20.4M467.14,453.84c8.44,7.14,16.89,14.28,25.43,21.3,5.3-6.45,10.72-12.8,16.06-19.21-2.25-1.87-4.48-3.75-6.7-5.64-3.16,3.67-6.21,7.42-9.37,11.08-6.16-5.26-12.39-10.42-18.59-15.63-2.29,2.69-4.54,5.41-6.83,8.1M98.08,475.98c6.41,6.36,13,12.54,19.43,18.88,1.91-1.87,3.78-3.79,5.65-5.7-3.89-3.91-7.92-7.67-11.86-11.52,1.19-1.24,2.38-2.47,3.57-3.69,3.21,3.1,6.43,6.18,9.61,9.31,1.78-1.82,3.55-3.64,5.31-5.47-3.23-3.09-6.43-6.2-9.64-9.29,1.01-1.07,2.03-2.13,3.05-3.19,3.79,3.67,7.62,7.3,11.37,11.01,1.87-1.89,3.71-3.79,5.55-5.7-6.35-6.14-12.7-12.26-19.05-18.39-7.66,7.92-15.29,15.87-22.99,23.75M456.18,465.61c4.07,4.82,8.29,9.54,12.76,14.01-6.81-3.06-14.16-4.55-21.19-6.97-2.6,2.19-5.1,4.48-7.6,6.77,7.37,8.18,14.75,16.37,22.11,24.57,2.55-2.22,5.07-4.47,7.52-6.79-4.53-4.76-8.61-9.95-13.41-14.45,6.8,3.43,14.41,4.76,21.59,7.18,2.48-2.28,4.99-4.52,7.51-6.76-7.33-8.21-14.76-16.35-22.07-24.59-2.39,2.3-5.67,4.15-7.22,7.03M124.39,501.03c6.01,4.06,11.43,9.18,18.19,11.97,7.33,2.51,14.54-2.67,18.03-8.84,3.54-5.16,4.2-12.86-.54-17.52-4.92-4.71-10.81-8.25-16.19-12.4-6.51,8.92-12.99,17.87-19.49,26.79M419.65,493.26c2.77,11.36,5.52,22.73,8.27,34.09,2.93-1.89,5.85-3.8,8.78-5.68-.45-1.47-.89-2.92-1.33-4.37,2.95-1.93,5.9-3.84,8.86-5.76,1.12,1,2.23,1.98,3.36,3,2.95-1.86,5.87-3.77,8.81-5.66-9.09-7.35-18.5-14.28-27.68-21.5-3.04,1.94-6.06,3.9-9.07,5.88M178.74,493.55c1.68.96,3.37,1.93,5.07,2.9,1.04-1.81,2.08-3.61,3.14-5.39-1.68-1.01-3.37-2-5.05-2.99-1.06,1.82-2.11,3.64-3.16,5.48M174.56,495.67c-5.48,9.58-11.08,19.09-16.52,28.69,3.12,1.79,6.23,3.59,9.36,5.39,5.5-9.58,11.11-19.1,16.52-28.74-3.14-1.75-6.24-3.57-9.36-5.34M398.64,504.98c-1.33,4.64-2.64,9.28-3.99,13.91-1.58-3.28-3.12-6.57-4.63-9.87-3.2,1.45-6.38,2.94-9.56,4.43,4.66,10.01,9.3,20.03,14.01,30.02,3.17-1.5,6.35-2.98,9.53-4.46-1.48-3.18-2.95-6.36-4.46-9.52.41-1.21.82-2.42,1.25-3.62,4.29,2.87,8.6,5.7,12.89,8.59,3.86-1.73,7.69-3.54,11.51-5.35-6.97-4.43-13.93-8.87-20.9-13.29,1.82-5.36,3.7-10.7,5.54-16.05-3.74,1.73-7.47,3.46-11.19,5.21M188.11,503.12c.55,6.84,1.24,13.66,1.88,20.5,1.04,5.4-3.23,9.78-4.85,14.65,3.21,1.49,6.41,3.01,9.64,4.46,1.82-3.66,3.22-7.54,5.31-11.04,6.27-4.83,12.91-9.18,19.32-13.83-3.35-1.81-6.83-3.33-10.28-4.93-3.32,2.6-6.64,5.21-9.99,7.78-.14-4.22-.27-8.43-.4-12.64-3.54-1.65-7.09-3.29-10.63-4.95M213.14,548.96c8.64,2.61,17.27,5.27,25.91,7.91.76-2.57,1.55-5.12,2.36-7.66-5.25-1.67-10.51-3.27-15.78-4.84.48-1.66.98-3.29,1.47-4.93,4.25,1.3,8.52,2.56,12.76,3.93.81-2.42,1.56-4.85,2.28-7.29-4.28-1.3-8.57-2.59-12.83-3.94.45-1.41.9-2.81,1.35-4.2,5.03,1.58,10.08,3.12,15.13,4.64.77-2.53,1.54-5.05,2.29-7.58-8.43-2.59-16.87-5.14-25.29-7.74-3.23,10.56-6.53,21.1-9.65,31.7M352.26,524.84c-3.26,4.8-.74,12.41,4.87,14.13,4.59,1.13,9.34-.01,14,.49,1.28.14,2.08.85,2.4,2.13-1.75,3.36-6.98,4.14-9.36,1.02-3.25.94-6.47,1.94-9.69,2.94,2.45,6.51,10.15,8.75,16.4,6.81.33,1.1.67,2.21,1.02,3.34,1.37-.23,2.75-.3,4.13-.2.9,4.06-4.88,2.97-7.4,3.65.3.98.6,1.97.92,2.97,3.21-.4,6.84-.38,9.47-2.56,1.78-1.53,1.73-4.33.41-6.13-1.56-2.13-4.44-1.11-6.64-1.36,3.09-1.73,6.65-3.03,8.73-6.07,3.61-4.7,1.85-12.89-3.89-15.03-5.05-1.87-10.53.2-15.66-1-.29-.31-.89-.92-1.19-1.23.55-3.67,5.98-4.09,8.14-1.47,3.1-.98,6.23-1.9,9.32-2.92-2.04-4.23-6.4-7.25-11.22-6.66-5.5.42-11.51,2.41-14.76,7.15M324.5,526.98c-2.32,11.47-4.62,22.94-6.93,34.41,3.42-.48,6.85-.99,10.28-1.43.26-1.53.52-3.06.79-4.58,3.47-.45,6.93-.97,10.41-1.43.59,1.38,1.2,2.78,1.81,4.17,3.47-.51,6.95-.99,10.43-1.46-5.35-10.42-10.76-20.79-16.13-31.19-3.56.51-7.12.98-10.66,1.51M280.23,529.54c.36,11.03.74,22.06,1.15,33.08,5.61-.21,11.24-.33,16.85-.6,2.89-.18,5.93-.42,8.45-1.99,5.73-3.36,5.58-13.61-1.02-15.93,3.6-2.47,4.47-7.66,2.14-11.27-1.81-2.93-5.48-3.78-8.69-3.79-6.3-.08-12.59.34-18.88.5M306.18,379.69c.6.03,1.8.08,2.39.11.49.24,1.47.71,1.96.94,1.6.87,3.18,1.77,4.84,2.56-.8.06-2.39.18-3.18.25-.47-.28-1.39-.83-1.85-1.11-1.45-.83-2.86-1.74-4.16-2.75M313.84,381.24l.4-.68c.41.07,1.24.21,1.65.28l-.38.68c-.42-.07-1.25-.21-1.67-.28M315.89,380.84c2.91,1.49,5.81,3,8.63,4.66-3.15-.83-6.74-1.76-8.63-4.66M64.38,384.03c1.77-.73,3.55-1.44,5.33-2.14.85,2.39,2.14,4.77,2.1,7.38-.59,1.44-2.33,1.74-3.71,1.81-2.13-1.76-2.6-4.68-3.72-7.05M315.37,383.3c.41.38,1.24,1.13,1.65,1.51-.41-.16-1.23-.49-1.64-.65v-.86M317.02,384.81l.79-.35c.34.26,1.02.78,1.35,1.04-.53-.17-1.6-.52-2.14-.69M319.16,385.5c.51.28,1.51.85,2.02,1.13-.43-.08-1.29-.25-1.72-.34l-.3-.79M324.52,385.5c.37.16,1.11.49,1.48.65l-.1.75-.79.15c-.14-.39-.44-1.16-.59-1.55M53.11,388.27c1.88-.71,3.76-1.43,5.64-2.14.94,2.5,2.16,4.94,2.45,7.63-.17,2.02-2.37,2.7-4.09,2.5-2.31-2.04-2.95-5.23-4-7.99M305.42,386.63c2.99-1.43.13,3.31,0,0M321.18,386.63c2.47,1.09,4.77,2.53,6.75,4.38-2.38-1.25-4.63-2.74-6.75-4.38M230.07,433.8c2.67.04,5.36-.08,8,.41,2.71.53,2.69,5.24.07,5.91-2.66.51-5.38.31-8.06.35-.01-2.23-.01-4.46-.01-6.67M274.65,434.41c2.95-1.08,6.92-.94,9.02,1.7,2,2.71,2.07,6.28,2.02,9.52-.17,2.76-.57,5.91-2.8,7.85-4.06,3.27-11.44,1.26-12.05-4.33-.73-4.92-1.32-11.95,3.81-14.74M230.07,447.5c2.97.04,5.99-.22,8.93.41,3.05.48,3.11,5.66.14,6.32-2.98.62-6.05.41-9.06.41-.01-2.39-.01-4.77-.01-7.14M147.55,487.24c2.38,1.91,6,3.79,5.6,7.38-.94,3.82-3.52,7.47-7.06,9.29-3.18.8-5.74-1.81-8.2-3.36,3.22-4.44,6.45-8.87,9.66-13.31M429.83,499c3.01,2.57,5.99,5.18,9,7.77-1.87,1.21-3.74,2.43-5.61,3.64-1.13-3.8-2.29-7.6-3.39-11.41M290.8,536.63c2.77.32,8.71-1.5,8.49,3.03-.6,3.8-5.63,2.19-8.31,2.75-.07-1.94-.13-3.85-.18-5.78M331.26,536.51c1.67,3.58,3.28,7.2,4.88,10.81-2.21.32-4.41.64-6.61.96.57-3.93,1.15-7.85,1.73-11.77M291.22,548.41c2.63-.02,5.32-.42,7.91.21,2.14.76,2.25,4.42.1,5.25-2.54.72-5.22.51-7.82.68-.07-2.05-.13-4.1-.19-6.14h0Z"/>
      <path d="M265.68,1.46c54.85-5.49,111.22,4.56,160.57,29.2,59.22,29.25,107.99,79.02,136.02,138.84,20,42.31,29.54,89.47,27.8,136.23-1.36,40.66-11.31,81.02-29.03,117.65-28.6,59.52-77.82,108.79-137.29,137.49-38.7,18.79-81.58,28.88-124.6,29.38-44.6.67-89.33-8.92-129.66-27.97-59.62-27.94-109.25-76.47-138.54-135.43C8.83,382.73-1.76,332.94.24,283.63c1.56-42.66,12.59-84.95,32.09-122.92C62.82,100.91,114.34,52.18,175.78,25.15c28.45-12.61,58.93-20.61,89.9-23.69M266.72,11.52c-52.52,5.11-103.42,25.34-145.18,57.59-51.64,39.53-89.13,97.17-103.86,160.55-13.56,57.52-8.83,119.27,13.8,173.91,25.04,61.24,72.23,113.01,130.79,143.78,39.24,20.78,83.43,32.08,127.83,32.78,43.76.82,87.7-8.56,127.21-27.41,58.26-27.55,106.55-75.5,134.52-133.56,17.71-36.52,27.41-76.89,28.24-117.47,1.16-46.42-9.27-93.08-30.21-134.53-28.43-56.7-76.33-103.34-133.81-130.17-46.25-21.83-98.47-30.55-149.33-25.47M449.45,225.13c2.07-8.42.95-17.49,3.39-25.85.1,9.59-.74,19.17-.94,28.76,1.98,1.08,2.66,3.69,1.74,5.7-.53,2.14-3.97,3.64-1.4,5.72,3.34,4.64,5.42,10.52,3.93,16.23-.77,5.17-8.52,6.36-11.49,2.48-2.24-2.61-2.45-6.19-2.97-9.42-3.13,4.39-7.41,7.69-11.45,11.16.3,2.01,1.45,3.86,1.4,5.93-2.85,1.34-5.86,2.46-8.14,4.73.22,2,.33,4,.39,6.02,3.97,1.09,7.97,2.13,11.95,3.18-.35,3.8-1.39,7.47-2.15,11.2-1.05.87-2.09,1.75-3.11,2.66-2.1.46-4.22.85-6.32,1.22,1.36,2.91,2.99,5.68,4.36,8.59,9.73,1.2,19.09,5.7,25.61,13.1,3.63,4.22,9.77,3.87,14.23,6.69,2.74,2.24,3.03,6.1,3.58,9.35.84,8.92,1.13,18.03-.81,26.83-2.77,1.17-7.32,2.92-8.44-1.15,1.36-2.43,1.84-5.15.7-7.75-6.03,1.34-11.23,4.87-15.9,8.76-2.31,2.05-3.36,5.08-5.4,7.35-1.73,1.52-3.85,2.49-5.84,3.61-.06-.83-.18-2.49-.24-3.32,1.68-2.58,2.5-5.54,2.95-8.55-8.06,3.28-17.61,6.16-22,14.37-.64-.14-1.91-.4-2.55-.54.75,1.59,1.53,3.16,2.33,4.73-2.29,1.45-4.66,2.76-7.1,3.95-.07-1.14-.13-2.27-.18-3.4,1.79-2.99,1.59-6.56,2.46-9.83,5.56-4.63,12.03-8.32,16.77-13.87-2.78-7.34-8.7-12.92-11.79-20.1-3.34-.16-6.67.2-10,.13.04,2.23,2.5,5.98-.62,7.05-3.38,1.25-6.65,3.11-10.27,3.52-2.6-.06-3.61-2.79-4.77-4.63,1.13.19,3.38.56,4.51.75-.38-2.96-.91-5.88-1.42-8.81-4.6-1.25-8.37-4.58-13.14-5.26-5.47-1.4-11.31-.91-16.57-3.16-3.74-1.38-8.31-3.7-11.97-.87-2.14,3.53-1.65,7.99-.69,11.83,1.54.5,3.4.53,4.64,1.72.63,3.62.23,7.45-1.39,10.77-3.49-4-5.92-8.75-8.64-13.27-.41-4.57.41-9.24.43-13.85-.19-2.74,2.34-5.12,5-5.21,5.82-.35,11.64-.94,17.35-2.19-1.17-2.04-2.64-3.91-3.64-6.04-.01-1.52.35-3,.44-4.5-2.46-2.6-5.59-4.74-9.04-5.71-4.59-.21-9.11,1.13-13.42,2.57-1.62.48-2.34,2.13-3.35,3.31-.89.22-1.77.44-2.64.67,1.36,1.84,3.57,3.5,3.48,6.02-1.63,2.8-4.09,4.96-6.32,7.25-1.16-6.64-.47-13.4.54-20,3.7-1.74,7.86-2.21,11.54-4.01,3.06-1.23,5.72-3.51,9.04-4.03,3.14-.03,5.65,2.36,8.71,2.8,2.34-2.4,3.3-5.71,4.27-8.82-2.06,1.58-3.94,3.37-5.8,5.18-1.84-.18-3.68-.36-5.52-.51-.04-2.23-.33-4.52.32-6.69,4.04-3.41,10.2-5.83,10.27-12.05,1.5-.04,3.01-.07,4.52-.1-1.02-2.06-2.09-4.1-3.05-6.18,2.11,1.39,4,3.13,6.21,4.38,4,.52,8.03.87,12.01,1.61,1.2-.05,1.59,1.11,2.11,1.97,1.5,2.89,3.17,5.68,4.96,8.41,2.35,3.46,2.79,8.11,6.22,10.85-.11-4.09-1.71-7.95-1.88-12.02.09-4.18,3.32-7.28,5.51-10.55-1.02-1.05-2.04-2.09-3.06-3.11-2.33-.78-4.13-2.46-5.9-4.07-.54-4.15.36-8.3,2.64-11.8,2.19-1.86,4.99.48,7.4.81,2.42,3.33,5.92,7.09,4.73,11.54,1.11.5,2.22,1.01,3.35,1.52,5.52-6.08,14.45-7.39,19.68-13.79,3.4-4.17,8.29-7,10.81-11.9,1.94-3.2,2.62-6.99,4.84-10.07M455.63,334.46c1.92,3.52,3.63,7.22,6.35,10.22-.02-4.93-2.71-9.24-3.95-13.89-.82,1.21-1.62,2.43-2.4,3.67M395.98,341.09c.86-1.07,1.73-2.14,2.61-3.18.09-.57.25-1.7.33-2.27-1.14-1.36-2.3-2.74-3.47-4.06.65,3.18,1.83,6.26.53,9.51M439.02,344.68c-.76,4.05.08,8.3,1.74,12.04,2.52-2.31,5.33-4.27,7.98-6.42,1.21-1.12,2.52-2.8,2.08-4.54-1.64-2.26-3.74-4.14-5.6-6.2-2.13,1.61-4.66,2.87-6.2,5.12M42.17,381.43c10.31-3.9,20.57-7.92,30.89-11.81,2.43,7.04,5.93,13.78,7.4,21.12,1.46,6.85-7.94,12.24-12.99,7.28.5,7.4-9.92,11-14.9,6.29-2.41-2.14-3.59-5.23-4.78-8.14-1.9-4.9-3.81-9.8-5.62-14.74M64.38,384.03c1.12,2.37,1.59,5.29,3.72,7.05,1.38-.07,3.12-.37,3.71-1.81.04-2.61-1.25-4.99-2.1-7.38-1.78.7-3.56,1.41-5.33,2.14M53.11,388.27c1.05,2.76,1.69,5.95,4,7.99,1.72.2,3.92-.48,4.09-2.5-.29-2.69-1.51-5.13-2.45-7.63-1.88.71-3.76,1.43-5.64,2.14M516.33,371.45c10.5,3.4,20.98,6.84,31.49,10.21-1.1,3.45-2.23,6.89-3.36,10.34-10.47-3.45-20.97-6.84-31.46-10.24,1.1-3.45,2.22-6.88,3.33-10.31M496.6,392.36c.34-.62,1.02-1.86,1.36-2.48,1.64,1.56,3.82,3.18,3.8,5.71-.12,2.87-1.6,5.85-4.11,7.35-2.06,1.14-4.4.33-6.5-.14.51-3.41,4.57-1.7,5.78-4.33,1.42-1.88,1.4-4.42-.33-6.11M507.95,394.46c3.57-3.22,8.7-3.34,13.1-2.06-1.39,2.97-2.91,5.88-4.35,8.82-4.03-.32-7.96,3.22-6.74,7.39,1.88,4.39,6.85,6.68,11.28,7.6,5.53.84,8.8-6.79,5.21-10.67-.81,1.46-1.58,2.95-2.34,4.44-2.1-1.08-4.2-2.15-6.29-3.23,2.19-4.3,4.43-8.58,6.54-12.92,5.45,2.65,10.81,5.48,16.22,8.2-1.02,2.01-1.95,4.07-3.15,5.97l-2.56-.52c1.44,5.66-1.02,11.69-5.15,15.6-3.93,3.57-9.8,4.12-14.68,2.46-5.39-1.77-10.77-5.09-13.11-10.48-2.88-7.21.47-15.65,6.02-20.6M58.04,417.66c9.65-5.35,19.3-10.72,28.96-16.05,4.26,7.73,8.57,15.43,12.83,23.16-2.32,1.29-4.64,2.57-6.97,3.82-2.53-4.63-5.1-9.23-7.65-13.84-1.29.7-2.57,1.42-3.85,2.13,2.15,3.92,4.33,7.82,6.49,11.74-2.22,1.22-4.44,2.45-6.66,3.67-2.14-3.91-4.31-7.8-6.45-11.7-1.51.81-3.02,1.63-4.52,2.47,2.66,4.82,5.37,9.61,7.98,14.46-2.35,1.28-4.69,2.58-7.03,3.88-4.35-7.93-8.77-15.82-13.13-23.74M486.19,431c1.86-3.11,3.8-6.16,5.73-9.22,9.35,5.84,18.72,11.68,28.07,17.55-1.92,3.05-3.83,6.12-5.74,9.18-9.35-5.85-18.69-11.7-28.06-17.51M217.82,425.08c7.31.02,14.62-.12,21.93.11,3.84.16,8.2,1.05,10.48,4.48,2.95,4.35,1.67,10.73-2.9,13.43,7.83,2.66,7.59,14.84.75,18.48-3.27,1.91-7.18,1.93-10.86,2.03-6.46.06-12.93.01-19.39.02-.02-12.85,0-25.7,0-38.55M230.07,433.8c0,2.21,0,4.44.01,6.67,2.68-.04,5.4.16,8.06-.35,2.62-.67,2.64-5.38-.07-5.91-2.64-.49-5.33-.37-8-.41M230.07,447.5c0,2.37,0,4.75.01,7.14,3.01,0,6.08.21,9.06-.41,2.97-.66,2.91-5.84-.14-6.32-2.94-.63-5.96-.37-8.93-.41M269.63,425.43c7.59-2.44,16.97-1.89,23.03,3.77,5.96,5.59,6.91,14.75,4.88,22.3-1.69,6.3-7.13,11.29-13.5,12.59-7.06,1.47-15.3.59-20.69-4.64-5.57-5.25-6.64-13.71-5.1-20.89,1.19-5.96,5.63-11.14,11.38-13.13M274.65,434.41c-5.13,2.79-4.54,9.82-3.81,14.74.61,5.59,7.99,7.6,12.05,4.33,2.23-1.94,2.63-5.09,2.8-7.85.05-3.24-.02-6.81-2.02-9.52-2.1-2.64-6.07-2.78-9.02-1.7M304.28,425.06c4.2.01,8.41.01,12.61,0v28.34c5.72.01,11.45-.02,17.18.02-.01,3.4-.01,6.81-.01,10.22-9.93-.01-19.85-.02-29.78.03,0-12.87,0-25.74,0-38.61M338.2,425.06c4.2.01,8.41.01,12.61.01.1,8.52-.23,17.07.16,25.59.24,4.48,5.92,5.02,9.23,3.74,2.32-.82,2.64-3.63,2.65-5.74.03-7.86-.01-15.72,0-23.57,4.22-.03,8.44-.03,12.66-.01-.05,8.52.07,17.05-.05,25.57-.06,3.94-1.69,7.97-4.9,10.37-4.09,3.13-9.45,3.74-14.43,3.7-5.06-.14-10.55-1.13-14.25-4.86-2.7-2.63-3.73-6.51-3.68-10.18-.03-8.21,0-16.42,0-24.62M76.66,449.19c8.68-6.83,17.39-13.62,26.11-20.4,2.16,2.8,4.38,5.57,6.5,8.41-6.39,4.98-12.82,9.91-19.13,15,3,3.74,5.92,7.54,8.89,11.31-2.31,1.81-4.62,3.61-6.92,5.42-5.15-6.58-10.29-13.17-15.45-19.74M467.14,453.84c2.29-2.69,4.54-5.41,6.83-8.1,6.2,5.21,12.43,10.37,18.59,15.63,3.16-3.66,6.21-7.41,9.37-11.08,2.22,1.89,4.45,3.77,6.7,5.64-5.34,6.41-10.76,12.76-16.06,19.21-8.54-7.02-16.99-14.16-25.43-21.3M98.08,475.98c7.7-7.88,15.33-15.83,22.99-23.75,6.35,6.13,12.7,12.25,19.05,18.39-1.84,1.91-3.68,3.81-5.55,5.7-3.75-3.71-7.58-7.34-11.37-11.01-1.02,1.06-2.04,2.12-3.05,3.19,3.21,3.09,6.41,6.2,9.64,9.29-1.76,1.83-3.53,3.65-5.31,5.47-3.18-3.13-6.4-6.21-9.61-9.31-1.19,1.22-2.38,2.45-3.57,3.69,3.94,3.85,7.97,7.61,11.86,11.52-1.87,1.91-3.74,3.83-5.65,5.7-6.43-6.34-13.02-12.52-19.43-18.88M456.18,465.61c1.55-2.88,4.83-4.73,7.22-7.03,7.31,8.24,14.74,16.38,22.07,24.59-2.52,2.24-5.03,4.48-7.51,6.76-7.18-2.42-14.79-3.75-21.59-7.18,4.8,4.5,8.88,9.69,13.41,14.45-2.45,2.32-4.97,4.57-7.52,6.79-7.36-8.2-14.74-16.39-22.11-24.57,2.5-2.29,5-4.58,7.6-6.77,7.03,2.42,14.38,3.91,21.19,6.97-4.47-4.47-8.69-9.19-12.76-14.01M124.39,501.03c6.5-8.92,12.98-17.87,19.49-26.79,5.38,4.15,11.27,7.69,16.19,12.4,4.74,4.66,4.08,12.36.54,17.52-3.49,6.17-10.7,11.35-18.03,8.84-6.76-2.79-12.18-7.91-18.19-11.97M147.55,487.24c-3.21,4.44-6.44,8.87-9.66,13.31,2.46,1.55,5.02,4.16,8.2,3.36,3.54-1.82,6.12-5.47,7.06-9.29.4-3.59-3.22-5.47-5.6-7.38M419.65,493.26c3.01-1.98,6.03-3.94,9.07-5.88,9.18,7.22,18.59,14.15,27.68,21.5-2.94,1.89-5.86,3.8-8.81,5.66-1.13-1.02-2.24-2-3.36-3-2.96,1.92-5.91,3.83-8.86,5.76.44,1.45.88,2.9,1.33,4.37-2.93,1.88-5.85,3.79-8.78,5.68-2.75-11.36-5.5-22.73-8.27-34.09M429.83,499c1.1,3.81,2.26,7.61,3.39,11.41,1.87-1.21,3.74-2.43,5.61-3.64-3.01-2.59-5.99-5.2-9-7.77M178.74,493.55c1.05-1.84,2.1-3.66,3.16-5.48,1.68.99,3.37,1.98,5.05,2.99-1.06,1.78-2.1,3.58-3.14,5.39-1.7-.97-3.39-1.94-5.07-2.9M174.56,495.67c3.12,1.77,6.22,3.59,9.36,5.34-5.41,9.64-11.02,19.16-16.52,28.74-3.13-1.8-6.24-3.6-9.36-5.39,5.44-9.6,11.04-19.11,16.52-28.69M398.64,504.98c3.72-1.75,7.45-3.48,11.19-5.21-1.84,5.35-3.72,10.69-5.54,16.05,6.97,4.42,13.93,8.86,20.9,13.29-3.82,1.81-7.65,3.62-11.51,5.35-4.29-2.89-8.6-5.72-12.89-8.59-.43,1.2-.84,2.41-1.25,3.62,1.51,3.16,2.98,6.34,4.46,9.52-3.18,1.48-6.36,2.96-9.53,4.46-4.71-9.99-9.35-20.01-14.01-30.02,3.18-1.49,6.36-2.98,9.56-4.43,1.51,3.3,3.05,6.59,4.63,9.87,1.35-4.63,2.66-9.27,3.99-13.91M188.11,503.12c3.54,1.66,7.09,3.3,10.63,4.95.13,4.21.26,8.42.4,12.64,3.35-2.57,6.67-5.18,9.99-7.78,3.45,1.6,6.93,3.12,10.28,4.93-6.41,4.65-13.05,9-19.32,13.83-2.09,3.5-3.49,7.38-5.31,11.04-3.23-1.45-6.43-2.97-9.64-4.46,1.62-4.87,5.89-9.25,4.85-14.65-.64-6.84-1.33-13.66-1.88-20.5M213.14,548.96c3.12-10.6,6.42-21.14,9.65-31.7,8.42,2.6,16.86,5.15,25.29,7.74-.75,2.53-1.52,5.05-2.29,7.58-5.05-1.52-10.1-3.06-15.13-4.64-.45,1.39-.9,2.79-1.35,4.2,4.26,1.35,8.55,2.64,12.83,3.94-.72,2.44-1.47,4.87-2.28,7.29-4.24-1.37-8.51-2.63-12.76-3.93-.49,1.64-.99,3.27-1.47,4.93,5.27,1.57,10.53,3.17,15.78,4.84-.81,2.54-1.6,5.09-2.36,7.66-8.64-2.64-17.27-5.3-25.91-7.91M352.26,524.84c3.25-4.74,9.26-6.73,14.76-7.15,4.82-.59,9.18,2.43,11.22,6.66-3.09,1.02-6.22,1.94-9.32,2.92-2.16-2.62-7.59-2.2-8.14,1.47.3.31.9.92,1.19,1.23,5.13,1.2,10.61-.87,15.66,1,5.74,2.14,7.5,10.33,3.89,15.03-2.08,3.04-5.64,4.34-8.73,6.07,2.2.25,5.08-.77,6.64,1.36,1.32,1.8,1.37,4.6-.41,6.13-2.63,2.18-6.26,2.16-9.47,2.56-.32-1-.62-1.99-.92-2.97,2.52-.68,8.3.41,7.4-3.65-1.38-.1-2.76-.03-4.13.2-.35-1.13-.69-2.24-1.02-3.34-6.25,1.94-13.95-.3-16.4-6.81,3.22-1,6.44-2,9.69-2.94,2.38,3.12,7.61,2.34,9.36-1.02-.32-1.28-1.12-1.99-2.4-2.13-4.66-.5-9.41.64-14-.49-5.61-1.72-8.13-9.33-4.87-14.13M324.5,526.98c3.54-.53,7.1-1,10.66-1.51,5.37,10.4,10.78,20.77,16.13,31.19-3.48.47-6.96.95-10.43,1.46-.61-1.39-1.22-2.79-1.81-4.17-3.48.46-6.94.98-10.41,1.43-.27,1.52-.53,3.05-.79,4.58-3.43.44-6.86.95-10.28,1.43,2.31-11.47,4.61-22.94,6.93-34.41M331.26,536.51c-.58,3.92-1.16,7.84-1.73,11.77,2.2-.32,4.4-.64,6.61-.96-1.6-3.61-3.21-7.23-4.88-10.81M280.23,529.54c6.29-.16,12.58-.58,18.88-.5,3.21.01,6.88.86,8.69,3.79,2.33,3.61,1.46,8.8-2.14,11.27,6.6,2.32,6.75,12.57,1.02,15.93-2.52,1.57-5.56,1.81-8.45,1.99-5.61.27-11.24.39-16.85.6-.41-11.02-.79-22.05-1.15-33.08M290.8,536.63c.05,1.93.11,3.84.18,5.78,2.68-.56,7.71,1.05,8.31-2.75.22-4.53-5.72-2.71-8.49-3.03M291.22,548.41c.06,2.04.12,4.09.19,6.14,2.6-.17,5.28.04,7.82-.68,2.15-.83,2.04-4.49-.1-5.25-2.59-.63-5.28-.23-7.91-.21h0Z"/>
      <path class="cls-4" d="M211.05,46.21c59.16-19.97,125.41-18,183.24,5.57,58.08,23.36,107.1,68.18,135.7,123.85,29.87,57.37,37.31,125.93,20.58,188.39-3.4-1.01-6.93-1.55-10.29-2.68l-.21-.64c11.48-42.31,11.21-87.67.03-130.02-15.49-59.12-53.45-111.87-104.33-145.69-34.07-22.81-73.76-37.13-114.56-41.24-40.63-4.17-82.27,1.49-120.18,16.73-56.97,22.63-104.97,66.75-132.38,121.56-27.85,54.81-34.25,119.85-18.47,179.19-3.46,1.15-6.89,2.41-10.39,3.47-8.1-30.87-10.7-63.19-7.43-94.96,3.88-38.82,16.6-76.72,36.9-110.04,31.99-52.91,83.11-93.94,141.79-113.49M183.8,76.25c35.82-18.26,76.18-27.42,116.36-26.52,44.46.76,88.59,14,126.16,37.79,51.45,32.29,90.24,84.21,106.19,142.87,11.63,42.04,11.69,87.13.49,129.27-3.1-.81-6.2-1.56-9.31-2.29,10.69-40.9,10.49-84.64-1.13-125.32-10.47-36.99-30.23-71.27-56.87-98.97-24.12-25.19-53.88-44.95-86.48-57.34-50.26-19.22-107.13-20.49-158.19-3.52-35.14,11.56-67.42,31.61-93.47,57.86-25.19,25.28-44.57,56.33-56.09,90.12-14.9,43.36-16.61,91.04-5.27,135.44-3.04,1.04-6.08,2.08-9.09,3.21-13.46-50.84-10.17-106,9.56-154.78,21.92-54.89,64.39-101.18,117.14-127.82M291.74,93.54c1.08-2,2.21-3.96,3.35-5.91,1.31,2.31,2.58,4.62,3.83,6.97-.86-.51-2.57-1.53-3.43-2.04.1,2.66.01,5.37.69,7.97-.26.2-.8.59-1.07.78l1.74.69c-.41.36-1.21,1.07-1.61,1.43l1.65,1.02-1.68,1.38c.51.31,1.55.91,2.07,1.22-.67.36-1.33.73-1.99,1.09,1.73,1.13,2.04,2.27-.06,3.19,5.45,3.52,11.69,5.37,17.56,8,1.82,2.05,2.86,4.67,4.26,7.01-7.32-4.15-14.64-8.29-21.97-12.43-7.32,4.1-14.64,8.2-21.93,12.35,1.19-2.36,2.35-4.75,3.84-6.95,5.53-2.34,11.57-3.79,16.52-7.31.76-6.25.9-12.58,1.13-18.86-.72.1-2.17.3-2.9.4M299.51,101.55c2.92-1.53.05,3.37,0,0M279.54,115.09c2.68-.77,5.36-1.6,8.07-2.3-3,1.57-6.16,2.76-9.24,4.14.54-1,1.1-2,1.66-2.99l-.49,1.15M294.8,125.32c.08-.21.24-.64.32-.85.3,1.44.89,2.75,1.77,3.93-.6.8-1.2,1.6-1.79,2.4.58.42,1.74,1.27,2.32,1.69-.74.96-1.48,1.92-2.21,2.88.49.45,1.47,1.35,1.96,1.8-.56,1.05-1.27,2.01-1.94,3-.74-.86-1.48-1.71-2.22-2.56.58-.76,1.17-1.52,1.76-2.28-.53-.88-1.06-1.77-1.57-2.64.35-.51,1.04-1.53,1.39-2.05-.26-.55-.77-1.67-1.03-2.23.45-1.02.8-2.07,1.24-3.09M264.71,142.53c5.25-3.22,10.7-6.08,15.97-9.26.57.19,1.7.59,2.27.79-6.45,2.04-11.72,6.67-18.24,8.47M300.11,134.74c9.86,3.82,19.54,8.1,28.96,12.93.56.94,1.14,1.88,1.72,2.83-4.16-2.39-8.44-4.56-12.67-6.84-5.85-3.28-12.47-5.05-18.01-8.92M261.18,147.19c8.62-3.19,16.49-8.25,25.42-10.65-4.78,3.02-10.25,4.66-15.17,7.41-4.08,2.25-8.3,4.25-12.22,6.75.62-1.17,1.25-2.32,1.89-3.48l.08-.03M300.95,139.7c10.18,3.97,20.3,8.16,30,13.21,1.51.63,2.29,2.13,3.2,3.39-5.35-2.97-10.83-5.69-16.26-8.51-5.56-2.89-11.78-4.44-16.94-8.09M292.96,141.74c.53-.36,1.58-1.09,2.1-1.45.64.38,1.92,1.16,2.56,1.55-.85,1.03-1.68,2.06-2.52,3.09.64.43,1.92,1.29,2.56,1.72-.86,1.02-1.72,2.04-2.57,3.07.67.42,2.02,1.25,2.69,1.67-.89,1.04-1.78,2.08-2.67,3.13.94.59,1.88,1.18,2.83,1.79-.77.72-1.49,1.51-2.29,2.16l-1.04.03c-.51-.45-1.52-1.35-2.03-1.8.72-.86,1.47-1.7,2.21-2.54-.65-.84-1.3-1.67-1.95-2.5.46-.53,1.38-1.59,1.84-2.11-.58-.96-1.16-1.92-1.72-2.87.44-.39,1.33-1.18,1.77-1.58-.59-1.12-1.19-2.24-1.77-3.36M257.82,153.18c9.39-3.6,18.06-9.03,27.84-11.62-4.87,2.86-10.33,4.49-15.29,7.19-4.69,2.51-9.53,4.77-14.15,7.42.43-.96.87-1.92,1.31-2.87l.29-.12M300.17,143.84c11.62,4.86,23.56,9.09,34.62,15.18,1.32.65,1.83,2.13,2.6,3.29-6.65-3.81-13.56-7.14-20.42-10.54-5.66-2.53-11.69-4.32-16.8-7.93M254.39,159.24c10.56-4.84,20.98-10.23,32.18-13.48-3.53,2.08-7.37,3.52-11.16,5.05-7.71,3.34-15.01,7.56-22.6,11.16.5-.92.98-1.86,1.58-2.73M301.05,149.01c12.29,4.67,24.67,9.28,36.28,15.51,1.8.73,2.73,2.46,3.75,4-7.43-4.43-15.31-8.03-23.08-11.81-5.65-2.56-11.76-4.2-16.95-7.7M251.1,165.22c11.5-5.38,22.91-11.38,35.27-14.54-2.29,1.15-4.64,2.19-7.03,3.11-10.34,3.83-19.93,9.33-29.81,14.13.31-.64.94-1.92,1.26-2.56l.31-.14M301.16,153.79c13.35,4.91,26.82,9.73,39.33,16.57,1.81.76,2.86,2.43,3.85,4.04-8.33-5.09-17.28-9-26.1-13.14-5.73-2.4-11.8-4.09-17.08-7.47M247.72,171.09c12.29-5.77,24.54-12.02,37.74-15.46-5.04,2.7-10.6,4.19-15.76,6.63-7.99,3.78-16.08,7.4-23.69,11.94.49-1.01.98-2.01,1.48-3l.23-.11M301.88,158.77c14.19,5.11,28.56,10.04,41.82,17.33,1.77.73,2.86,2.29,3.71,3.93-9.12-5.44-18.86-9.69-28.53-14.03-5.7-2.34-11.78-3.86-17-7.23M292.27,160.67c.87-.28,1.74-.54,2.62-.78,1.15-.18,2.08.62,3.08,1.03-.96,1.04-1.92,2.08-2.88,3.13.72.43,2.16,1.29,2.88,1.72-.96,1.04-1.92,2.08-2.87,3.13,4.13,2.43,8.36,4.75,12.96,6.18,11.53,3.69,22.96,7.74,34.04,12.65,4.83,2.31,9.81,4.56,13.99,7.96,3.96,6.33,7.46,12.96,11.08,19.49-24.01-13.67-48.07-27.27-72.1-40.92-24.06,13.58-48.05,27.3-72.18,40.76,3.54-6.61,7.4-13.04,10.97-19.63l.26-.16c15.19-9.43,32.33-14.92,49.17-20.55,4.12-1.4,7.94-3.51,11.65-5.74-.85-1.03-1.69-2.05-2.54-3.07.82-.62,1.65-1.24,2.49-1.85-.88-1.12-1.75-2.24-2.62-3.35M244.43,176.87c13-6.22,26.12-12.6,40.13-16.25-5.52,2.87-11.61,4.38-17.19,7.11-8.48,4.02-17.33,7.47-25.05,12.89.62-1.19,1.21-2.38,1.84-3.55l.27-.2M302.01,163.69c15.12,4.96,30.28,10.22,44.31,17.81,2.26.99,3.74,2.97,4.95,5.04-9.8-6.43-20.69-10.83-31.34-15.58-5.99-2.39-12.26-4.12-17.92-7.27M240.89,182.99c14.17-7.56,29.15-13.69,44.59-18.13-5.24,2.84-11.07,4.26-16.5,6.64-10.14,4.5-20.45,8.76-29.8,14.82.5-1.08,1-2.16,1.5-3.23l.21-.1M301.29,167.91c16.72,6.09,34.05,11.1,49.46,20.23,1.78.84,2.71,2.58,3.61,4.25-10.67-7.09-22.62-11.79-34.32-16.84-6.33-2.35-12.89-4.2-18.75-7.64M264.92,176.44c6.72-2.42,13.33-5.29,20.38-6.62-7.51,3.35-15.54,5.4-22.93,9.05-9.18,3.71-17.96,8.24-26.53,13.16.53-1,1.04-2.02,1.69-2.95,8.71-5.07,17.95-9.15,27.39-12.64M293.25,186.3c1.4-.58,2.78-.31,4.05.44-.53.36-1.6,1.09-2.13,1.45,1.45.91,2.9,1.84,4.36,2.77-1.46.84-2.93,1.66-4.39,2.49,1.51.99,3.02,2,4.53,3.01-1.5.76-3.01,1.53-4.51,2.29,1.32,1.09,3.3,1.67,4.01,3.36-1.32.74-2.67,1.39-4.02,2.07,1.55,1.03,3.1,2.07,4.65,3.11-1.56.75-3.12,1.51-4.68,2.27,1.59,1.03,3.18,2.07,4.76,3.12-1.59.75-3.16,1.5-4.74,2.25,1.61,1.05,3.23,2.1,4.85,3.16-1.63.76-3.25,1.53-4.86,2.31,1.65.98,3.32,1.96,4.98,2.93-1.65.83-3.32,1.63-4.97,2.44,1.71,1.01,3.42,2.03,5.15,3.04-1.72.76-3.44,1.51-5.15,2.27,14.17,9.19,30.54,13.81,45.91,20.46-1.74,2.06-3.44,4.14-5.11,6.26-13.63-7.74-27.23-15.53-40.84-23.29-40.97,23.3-81.86,46.76-122.85,70.02,3.73-6.48,7.22-13.11,11.11-19.49,20.76-15.27,44.89-24.75,68.49-34.62,14.46-6.16,29.89-10.49,43.03-19.4-1.55-.67-3.08-1.32-4.62-1.97,1.34-1.03,2.68-2.05,3.96-3.14-1.23-.97-2.55-1.82-3.85-2.68,1.48-.92,2.95-1.85,4.42-2.77-1.48-.79-2.96-1.57-4.44-2.35,1.47-1.06,2.93-2.12,4.41-3.17-1.33-.77-2.65-1.52-3.96-2.28,1.28-1.04,2.56-2.07,3.85-3.1-1.24-.75-2.48-1.48-3.72-2.22,1.24-1.09,2.48-2.18,3.72-3.26-1.28-.77-2.55-1.53-3.82-2.3,1.3-1,2.6-2,3.91-3-1.29-.78-2.58-1.56-3.86-2.34,1.25-.97,2.51-1.93,3.77-2.89-1.22-.89-2.43-1.77-3.63-2.64,1.08-.81,2.17-1.61,3.27-2.4-.26-.56-.78-1.66-1.04-2.21M259.27,206.22c6.09-.95,11.09-4.83,16.91-6.6-6.3,3.56-13.06,6.19-19.55,9.36-15.37,8.75-31.17,16.83-45.64,27.07.96-2,2.05-4.1,4.19-5.04,14.7-8.25,29.18-16.97,44.09-24.79M310.14,202.78c17.6,7.61,34.83,16.07,51.72,25.14,2.04,1.08,4.12,2.19,5.7,3.93-1.45-.27-2.83-.74-4.08-1.49-8.3-4.81-16.81-9.25-25.26-13.77-9.14-5.06-18.99-8.66-28.08-13.81M259.04,212.64c4.21-2.39,8.56-4.62,13.22-5.99-4.28,2.26-8.62,4.47-13.22,5.99M311.2,213.79c14.47,5.73,28.51,12.49,42.53,19.21,2.06,1,4.22,1.94,5.84,3.63-5.53-1.38-10.18-4.93-15.35-7.21-10.7-5.85-22.2-10.03-33.02-15.63M247.28,218.04c2.6-1.35,5.29-2.52,8.04-3.51-16.22,9.26-33.19,17.33-48.26,28.48.68-1.24,1.22-2.58,2.18-3.64,2.21-1.26,4.46-2.49,6.59-3.9,9.98-6.68,20.82-11.91,31.45-17.43M244.62,229.09c10.05-4.62,19.92-9.78,30.43-13.33-7.78,3.96-16.05,6.83-23.76,10.93-17.83,9.2-36.19,17.8-52.11,30.17.69-1.23,1.28-2.54,2.18-3.64,13.61-9.42,28.27-17.14,43.26-24.13M247.94,222.56c2.35-1.16,4.8-2.09,7.3-2.88-17.71,9.43-35.96,18.13-52.09,30.21.67-1.22,1.24-2.52,2.14-3.59,5.34-3.06,10.3-6.71,15.66-9.73,8.81-5.01,17.91-9.5,26.99-14.01M226.88,242.48c8.46-4.07,16.76-8.54,25.59-11.76-16.19,8.88-33.4,16.06-48.61,26.68-2.37,1.7-4.85,3.26-7.52,4.45.28-.42.83-1.27,1.11-1.69,9.34-6.64,19.11-12.68,29.43-17.68M254.02,239.51c5.04-2.05,9.98-4.46,15.28-5.81-4.94,2.29-9.91,4.74-15.28,5.81M234.19,243.62c6.01-2.71,11.86-5.86,18.17-7.87-20.38,10.46-41.75,19.46-60.06,33.48.47-.95.95-1.89,1.43-2.82l.28-.16c4.12-2.32,7.84-5.27,11.86-7.77,9.06-5.64,18.65-10.37,28.32-14.86M254.03,244.48c6.68-2.63,13.27-5.54,20.11-7.75-6.56,2.89-13.08,6.18-20.11,7.75M227.05,251.6c8.37-3.78,16.61-7.92,25.27-11.01-7.43,4.17-15.35,7.38-22.94,11.24-14.25,6.78-28.16,14.39-40.82,23.85.48-.93,1.01-1.84,1.6-2.7,11.43-8.52,23.93-15.47,36.89-21.38M240.6,250.24c3.14-1.43,6.37-2.67,9.69-3.64-22.22,10.76-45.51,20.05-65.21,35.27.67-1.19,1.21-2.47,2.12-3.49,3.74-2.06,7.25-4.47,10.78-6.86,13.41-8.59,28.13-14.78,42.62-21.28M292.61,247.3c.62-.32,1.85-.96,2.47-1.28,1.22.63,2.47,1.27,3.73,1.86-1.29.28-2.58.59-3.84.95,2.04,1.5,4.17,2.89,6.32,4.26-2.04,1.04-4.09,2.06-6.15,3.08,2.09,1.35,4.18,2.7,6.23,4.12-2.08,1-4.15,2.01-6.2,3.05,2.13,1.32,4.27,2.66,6.36,4.07-2.12,1-4.24,1.98-6.35,2.97,2.17,1.41,4.39,2.77,6.62,4.11-2.22,1-4.44,2.01-6.64,3.04,1.98,1.2,4.03,2.32,5.95,3.65-.9,2.13-4.09,2.07-5.75,3.59,2.18,1.39,4.45,2.62,6.67,3.96-2.3,1.01-4.59,2.04-6.83,3.15,7.37,4.14,14.78,8.27,22.59,11.53-.07,1.43-.15,2.87-.21,4.32-7.6-4.05-14.98-8.47-22.49-12.67-57.68,32.77-115.35,65.56-173.02,98.34,4.41-7.81,8.7-15.7,13.27-23.41,14.27-11.72,30.08-21.44,46.77-29.3,25.43-11.83,51.42-22.45,77.66-32.35,12.13-4.33,24.01-9.59,34.88-16.55-2.07-1.04-4.14-2.06-6.21-3.07,2.06-1.35,4.13-2.69,6.2-4.01-1.94-.99-3.97-1.91-5.57-3.41,1.78-1.37,3.72-2.51,5.64-3.68-1.98-1.1-3.95-2.21-5.91-3.34,1.99-1.26,3.98-2.52,5.97-3.77-1.96-1.05-3.93-2.1-5.89-3.15,1.96-1.34,3.92-2.66,5.89-3.97-1.91-1.09-3.82-2.17-5.73-3.25,1.93-1.36,3.85-2.71,5.77-4.07-1.95-.97-3.88-1.94-5.82-2.9,1.87-1.27,3.75-2.53,5.64-3.78-.5-.52-1.51-1.57-2.02-2.09M251.89,270.68c5.23-1.72,10.12-4.3,15.33-6.07-7.06,4.03-14.63,7.12-22.24,9.95,2.18-1.49,4.45-2.9,6.91-3.88M247.97,279.47c6.39-2.7,12.61-5.88,19.29-7.82-8.12,4.14-16.68,7.31-24.96,11.11-13.25,6.36-26.37,12.96-39.43,19.68-16.42,8.65-32.6,18.1-46.58,30.4.72-1.35,1.37-2.75,2.31-3.96,9.59-7.54,19.44-14.79,30.15-20.67,19.19-10.67,39.22-19.72,59.22-28.74M214.57,301.12c17.05-7.86,34.12-15.75,51.66-22.47-9.44,5.3-19.9,8.43-29.58,13.24-29.17,14.29-59.39,27.53-84.57,48.49.6-1.14,1.1-2.36,1.92-3.36,2.96-2.19,5.94-4.36,8.84-6.64,15.8-12.1,33.82-20.79,51.73-29.26M241.06,295.66c8.38-3.38,16.56-7.36,25.23-10.01-10.24,5.16-21.2,8.67-31.54,13.61-30.2,14.59-61.74,27.8-87.55,49.74.69-1.33,1.3-2.73,2.25-3.89,10.53-8.09,21.3-15.93,33.09-22.12,18.97-10.19,38.77-18.75,58.52-27.33M222.51,310.17c15.11-6.47,30.19-13.09,45.71-18.51-11.88,5.85-24.58,9.79-36.53,15.49-18.09,8.45-36.37,16.56-53.89,26.17-12.37,6.59-23.84,14.66-34.88,23.26.38-.69,1.14-2.05,1.52-2.73,7.59-6.11,15.42-11.98,23.77-17.04,17.24-10.53,35.86-18.5,54.3-26.64M215.9,319.39c16.34-6.89,32.65-13.99,49.44-19.74-11,5.5-22.86,8.99-34,14.16-19.54,8.97-39.34,17.47-58.22,27.81-12.44,6.65-24.04,14.72-35.03,23.55.72-1.41,1.34-2.89,2.35-4.11,5.93-4.08,11.48-8.68,17.54-12.58,18.1-11.92,38.1-20.5,57.92-29.09M292.59,307.66c.6-.31,1.78-.92,2.37-1.23.71.38,2.13,1.13,2.84,1.51-.67.37-2,1.11-2.67,1.48,1.38.98,2.79,1.99,4.18,2.99-1.4.73-2.8,1.46-4.19,2.21,1.29.86,2.61,1.71,3.86,2.66-.72,1.39-2.56,1.69-3.77,2.56,1.36.93,2.8,1.82,3.96,3.03-1.3.77-2.64,1.47-3.96,2.18,1.43.99,2.86,1.99,4.28,3.03-1.46.67-2.91,1.36-4.36,2.04,1.53,1.01,3.08,2.01,4.63,3.02-1.56.74-3.11,1.49-4.65,2.25,1.61.96,3.23,1.93,4.85,2.9-1.59.75-3.2,1.5-4.78,2.27,7.99,5.37,16.89,9.09,25.83,12.55,2.7,1.19,5.91,1.82,7.71,4.39-10.16-3.64-20.24-7.8-29.19-13.94-1.23.65-2.44,1.34-3.63,2.07.48,1.3,2.06,1.68,3.09,2.47,8,4.79,16.9,7.69,25.47,11.24,3.08,1.35,6.82,2.15,8.4,5.51-11.13-5.46-23.37-8.68-33.62-15.84-1.38.64-2.74,1.29-4.1,1.94,12.49,7.66,26.92,11.19,39.98,17.66,6.7,8.3,14.24,15.98,23.07,22.04-21.12-11.74-42.04-23.88-63.08-35.78-22.92,13.01-45.87,25.99-68.78,39.02-2.41,1.65-5.42,1.03-8.14,1.14-7.41-.15-14.83.25-22.22-.22,10.07-10.15,22-18.28,34.84-24.51,17.86-8.76,36.21-16.54,54.75-23.73-7.83,5.32-17.09,7.8-25.54,11.9-14.62,7.12-29.73,13.49-43.07,22.91-5.17,3.77-10.28,7.77-14.32,12.78,5.65-3.96,10.61-8.84,16.52-12.46,13.72-8.66,28.86-14.73,43.72-21.15,10.68-4.68,22.15-7.89,31.76-14.7-1.34-.78-2.69-1.55-4.03-2.32,1.37-1,2.73-2,4.1-2.99-1.45-.75-2.9-1.5-4.35-2.24,1.47-.94,2.93-1.88,4.41-2.81-1.26-.76-2.52-1.51-3.77-2.26,1.17-1.09,2.35-2.17,3.52-3.26-1.16-.6-2.32-1.2-3.47-1.79,1.16-1.11,2.33-2.21,3.51-3.31-1.19-.73-2.37-1.44-3.54-2.16,1.21-.94,2.42-1.88,3.64-2.81-1.16-.88-2.31-1.74-3.46-2.62,1.19-.87,2.38-1.74,3.58-2.61-1.23-.79-2.45-1.56-3.66-2.33,1.18-.93,2.36-1.86,3.56-2.78-.52-.48-1.56-1.43-2.08-1.9M260.2,363.63c-16.69,7.85-34.53,15.22-47.11,29.24,3.45-2.25,6.41-5.15,9.78-7.51,12.16-8.78,26.2-14.34,39.92-20.16,10.64-4.63,21.93-7.89,31.88-14.02-1.2-.76-2.39-1.51-3.58-2.25-9.39,6.68-20.66,9.64-30.89,14.7M161.3,324.04c1.07-3.34,4.4-4.72,7.3-6.1-2.39,2.08-4.85,4.09-7.3,6.1M234.78,359.23c14.6-6.89,29.17-13.96,44.33-19.52-9.18,4.68-18.95,8.06-28.03,12.95-21.75,10.89-45.04,21.54-60.42,41.13,4.49-3.68,8.49-7.93,13.12-11.44,10.3-8.28,22.12-14.35,34-20.02,14.37-6.61,28.7-13.46,43.62-18.74-8.8,5.06-18.62,7.94-27.57,12.72-21.15,10.28-43.54,20.39-58.91,38.89-5.67-.47-11.37.14-17.04-.41,12.33-13.86,27.4-25.12,43.91-33.54,10.09-5.07,20.03-10.56,30.56-14.67-15.19,8.53-31.26,15.61-45.45,25.84-8.11,6.02-16.19,12.51-22.14,20.77,3.29-2.66,6.21-5.73,9.38-8.52,11.96-10.77,26.23-18.49,40.64-25.44M192.75,370.29c12.01-8.86,25.09-16.28,38.61-22.58-6.66,4.15-13.7,7.65-20.3,11.9-15.25,9.4-29.39,21.1-39.91,35.71-1.03-.15-3.11-.47-4.15-.62,7.76-8.94,16.25-17.31,25.75-24.41M200.7,369.25c12.59-8.36,26.01-15.46,39.8-21.61-7.71,4.9-16.14,8.55-23.86,13.44-15.05,8.94-29.26,19.96-39.63,34.21-1.65-.2-3.3-.39-4.94-.56,8.61-9.46,18-18.3,28.63-25.48M196.13,362.63c5.25-2.98,10.4-6.17,15.8-8.88-4.26,3.68-9.28,6.31-13.77,9.69-12.19,8.87-23.45,19.35-32.04,31.79-8.79-.55-17.6.07-26.39-.34,18.6-11.09,37.64-21.44,56.4-32.26M293.64,380.99c.32-.14.98-.41,1.3-.55,1.02.36,3.06,1.08,4.08,1.44-1.18.45-2.4.82-3.61,1.18,2.23.1,2.9,1.21,2.02,3.31-.06.46-.17,1.37-.22,1.83.56.87,1.14,1.74,1.74,2.6-.5-.04-1.5-.14-2-.18-.98-3.24-2.88,1.4,0,0,2.28,1.75,4.91,2.94,7.5,4.17-2,.42-3.92-.23-5.79-.82l.09,1.14c-17.95-.24-35.91.04-53.86-.14,7.09-4.07,14.1-8.36,21.36-12.09.71-.14,2.15-.43,2.87-.58-1.31,1.35-2.63,2.68-3.93,4.03,3.99-1.5,7.88-3.23,11.79-4.91-.92.87-1.83,1.74-2.74,2.62.95-.07,2.83-.22,3.77-.29-.94.8-1.88,1.61-2.81,2.43,1-.14,2.99-.43,3.98-.57-.99.87-1.97,1.77-2.92,2.69,3.67-1.06,7.25-2.37,10.79-3.79-.69.74-2.09,2.2-2.78,2.94,3.46-1.03,6.82-2.35,10.09-3.88-.18-.65-.54-1.94-.72-2.58M271.47,384.53c-.83.04-3.05,1.74-1.41,2.22,1.58.55,4.35-2.8,1.41-2.22M293.58,384.85c-1.55.12-3.24.89-4.13,2.19.85,1.51,5.77-.76,4.13-2.19M286.38,387.75c.14,3.33,2.97-1.55,0,0M295.28,391.96c-.59,1.25,1.52,2.33,2.44,1.51.57-1.25-1.54-2.34-2.44-1.51M305.52,383.03q.26.26,0,0M279.18,385.61c.29-.32.86-.95,1.15-1.26l.69.34-.13.77c-.43.03-1.28.11-1.71.15M308.89,384.75l.77-.3c.36.3,1.07.89,1.43,1.18-.55-.22-1.65-.66-2.2-.88M311.09,385.63c.46.09,1.38.25,1.84.33l.09.69c-.48-.25-1.45-.76-1.93-1.02h0Z"/>
      <path class="cls-3" d="M201.03,60.48c37.91-15.24,79.55-20.9,120.18-16.73,40.8,4.11,80.49,18.43,114.56,41.24,50.88,33.82,88.84,86.57,104.33,145.69,11.18,42.35,11.45,87.71-.03,130.02l-.6.36c-2.23.06-4.34-.87-6.47-1.4,11.2-42.14,11.14-87.23-.49-129.27-15.95-58.66-54.74-110.58-106.19-142.87-37.57-23.79-81.7-37.03-126.16-37.79-40.18-.9-80.54,8.26-116.36,26.52-52.75,26.64-95.22,72.93-117.14,127.82-19.73,48.78-23.02,103.94-9.56,154.78-2.29.84-4.59,1.64-6.92,2.38-15.78-59.34-9.38-124.38,18.47-179.19,27.41-54.81,75.41-98.93,132.38-121.56M290.86,95.14c.22-.4.66-1.2.88-1.6.73-.1,2.18-.3,2.9-.4-.23,6.28-.37,12.61-1.13,18.86-4.95,3.52-10.99,4.97-16.52,7.31.34-.59,1.03-1.78,1.38-2.38,3.08-1.38,6.24-2.57,9.24-4.14-2.71.7-5.39,1.53-8.07,2.3l.49-1.15c.13-.19.37-.58.5-.77,2.95-.87,5.88-1.9,8.48-3.6-2.54.42-5.06.92-7.53,1.63.23-.26.69-.77.92-1.03,2.34-1.11,4.75-2.08,7.14-3.08-.69-.14-2.08-.42-2.77-.56.82-.58,1.66-1.15,2.5-1.72-.62-.12-1.86-.34-2.48-.45,1.31-.69,2.62-1.38,3.94-2.07-.39-.38-.78-.76-1.16-1.14.66-1.08,1.32-2.17,1.98-3.26-.17-.69-.52-2.06-.69-2.75M280.68,133.27c4.65-2.75,9.22-5.67,14.12-7.95-.44,1.02-.79,2.07-1.24,3.09.26.56.77,1.68,1.03,2.23-.35.52-1.04,1.54-1.39,2.05.51.87,1.04,1.76,1.57,2.64-.59.76-1.18,1.52-1.76,2.28.74.85,1.48,1.7,2.22,2.56l-.17.12c-.52.36-1.57,1.09-2.1,1.45.58,1.12,1.18,2.24,1.77,3.36-.44.4-1.33,1.19-1.77,1.58.56.95,1.14,1.91,1.72,2.87-.46.52-1.38,1.58-1.84,2.11.65.83,1.3,1.66,1.95,2.5-.74.84-1.49,1.68-2.21,2.54.51.45,1.52,1.35,2.03,1.8l1.04-.03-.76,1.42c-.88.24-1.75.5-2.62.78.87,1.11,1.74,2.23,2.62,3.35-.84.61-1.67,1.23-2.49,1.85.85,1.02,1.69,2.04,2.54,3.07-3.71,2.23-7.53,4.34-11.65,5.74-16.84,5.63-33.98,11.12-49.17,20.55.45-1.01.9-2.01,1.36-3.01l.36-.19c8.57-4.92,17.35-9.45,26.53-13.16,7.39-3.65,15.42-5.7,22.93-9.05-7.05,1.33-13.66,4.2-20.38,6.62-9.44,3.49-18.68,7.57-27.39,12.64.41-1.02.97-1.94,1.65-2.76,9.35-6.06,19.66-10.32,29.8-14.82,5.43-2.38,11.26-3.8,16.5-6.64-15.44,4.44-30.42,10.57-44.59,18.13.36-.59,1.07-1.78,1.43-2.37,7.72-5.42,16.57-8.87,25.05-12.89,5.58-2.73,11.67-4.24,17.19-7.11-14.01,3.65-27.13,10.03-40.13,16.25.4-.98.93-1.87,1.58-2.67,7.61-4.54,15.7-8.16,23.69-11.94,5.16-2.44,10.72-3.93,15.76-6.63-13.2,3.44-25.45,9.69-37.74,15.46.49-1.01,1-2.02,1.51-3.02l.3-.15c9.88-4.8,19.47-10.3,29.81-14.13,2.39-.92,4.74-1.96,7.03-3.11-12.36,3.16-23.77,9.16-35.27,14.54.44-1.03.89-2.05,1.35-3.07l.36-.18c7.59-3.6,14.89-7.82,22.6-11.16,3.79-1.53,7.63-2.97,11.16-5.05-11.2,3.25-21.62,8.64-32.18,13.48.44-1.14,1.06-2.17,1.83-3.07,4.62-2.65,9.46-4.91,14.15-7.42,4.96-2.7,10.42-4.33,15.29-7.19-9.78,2.59-18.45,8.02-27.84,11.62.35-.62,1.04-1.86,1.39-2.48,3.92-2.5,8.14-4.5,12.22-6.75,4.92-2.75,10.39-4.39,15.17-7.41-8.93,2.4-16.8,7.46-25.42,10.65.8-1.5,1.66-2.96,2.58-4.39l.95-.27c6.52-1.8,11.79-6.43,18.24-8.47-.57-.2-1.7-.6-2.27-.79M259.27,206.22c10.92-7.28,22.85-12.96,33.98-19.92.26.55.78,1.65,1.04,2.21-1.1.79-2.19,1.59-3.27,2.4,1.2.87,2.41,1.75,3.63,2.64-1.26.96-2.52,1.92-3.77,2.89,1.28.78,2.57,1.56,3.86,2.34-1.31,1-2.61,2-3.91,3,1.27.77,2.54,1.53,3.82,2.3-1.24,1.08-2.48,2.17-3.72,3.26,1.24.74,2.48,1.47,3.72,2.22-1.29,1.03-2.57,2.06-3.85,3.1,1.31.76,2.63,1.51,3.96,2.28-1.48,1.05-2.94,2.11-4.41,3.17,1.48.78,2.96,1.56,4.44,2.35-1.47.92-2.94,1.85-4.42,2.77,1.3.86,2.62,1.71,3.85,2.68-1.28,1.09-2.62,2.11-3.96,3.14,1.54.65,3.07,1.3,4.62,1.97-13.14,8.91-28.57,13.24-43.03,19.4-23.6,9.87-47.73,19.35-68.49,34.62.47-1.13,1.04-2.18,1.72-3.17,19.7-15.22,42.99-24.51,65.21-35.27-3.32.97-6.55,2.21-9.69,3.64-14.49,6.5-29.21,12.69-42.62,21.28-3.53,2.39-7.04,4.8-10.78,6.86.34-.67,1.02-2.02,1.36-2.7,12.66-9.46,26.57-17.07,40.82-23.85,7.59-3.86,15.51-7.07,22.94-11.24-8.66,3.09-16.9,7.23-25.27,11.01-12.96,5.91-25.46,12.86-36.89,21.38.63-1.29,1.13-2.7,2.14-3.75,18.31-14.02,39.68-23.02,60.06-33.48-6.31,2.01-12.16,5.16-18.17,7.87-9.67,4.49-19.26,9.22-28.32,14.86-4.02,2.5-7.74,5.45-11.86,7.77.7-1.46,1.44-2.89,2.18-4.33l.15-.07c2.67-1.19,5.15-2.75,7.52-4.45,15.21-10.62,32.42-17.8,48.61-26.68-8.83,3.22-17.13,7.69-25.59,11.76-10.32,5-20.09,11.04-29.43,17.68.46-1.17,1.04-2.27,1.73-3.3,15.92-12.37,34.28-20.97,52.11-30.17,7.71-4.1,15.98-6.97,23.76-10.93-10.51,3.55-20.38,8.71-30.43,13.33-14.99,6.99-29.65,14.71-43.26,24.13.47-1.19,1.07-2.3,1.79-3.33,16.13-12.08,34.38-20.78,52.09-30.21-2.5.79-4.95,1.72-7.3,2.88-9.08,4.51-18.18,9-26.99,14.01-5.36,3.02-10.32,6.67-15.66,9.73.44-1.19,1.03-2.29,1.77-3.29,15.07-11.15,32.04-19.22,48.26-28.48-2.75.99-5.44,2.16-8.04,3.51-10.63,5.52-21.47,10.75-31.45,17.43-2.13,1.41-4.38,2.64-6.59,3.9.44-1.2,1.02-2.3,1.75-3.32,14.47-10.24,30.27-18.32,45.64-27.07,6.49-3.17,13.25-5.8,19.55-9.36-5.82,1.77-10.82,5.65-16.91,6.6M259.04,212.64c4.6-1.52,8.94-3.73,13.22-5.99-4.66,1.37-9.01,3.6-13.22,5.99M258.51,217.93c5.01-1.38,9.82-3.57,14.12-6.48-5.03,1.32-9.81,3.59-14.12,6.48M256.5,228.79c5.88-1.65,11.53-4.18,16.83-7.21-5.84,1.7-11.71,3.88-16.83,7.21M256.52,233.83c5.23-1.36,10.27-3.52,14.91-6.28-5.23,1.33-10.38,3.31-14.91,6.28M254.02,239.51c5.37-1.07,10.34-3.52,15.28-5.81-5.3,1.35-10.24,3.76-15.28,5.81M254.03,244.48c7.03-1.57,13.55-4.86,20.11-7.75-6.84,2.21-13.43,5.12-20.11,7.75M251.89,270.68c13.31-8.22,27.15-15.59,40.72-23.38.51.52,1.52,1.57,2.02,2.09-1.89,1.25-3.77,2.51-5.64,3.78,1.94.96,3.87,1.93,5.82,2.9-1.92,1.36-3.84,2.71-5.77,4.07,1.91,1.08,3.82,2.16,5.73,3.25-1.97,1.31-3.93,2.63-5.89,3.97,1.96,1.05,3.93,2.1,5.89,3.15-1.99,1.25-3.98,2.51-5.97,3.77,1.96,1.13,3.93,2.24,5.91,3.34-1.92,1.17-3.86,2.31-5.64,3.68,1.6,1.5,3.63,2.42,5.57,3.41-2.07,1.32-4.14,2.66-6.2,4.01,2.07,1.01,4.14,2.03,6.21,3.07-10.87,6.96-22.75,12.22-34.88,16.55-26.24,9.9-52.23,20.52-77.66,32.35-16.69,7.86-32.5,17.58-46.77,29.3.8-1.67,1.53-3.42,2.75-4.82,10.99-8.83,22.59-16.9,35.03-23.55,18.88-10.34,38.68-18.84,58.22-27.81,11.14-5.17,23-8.66,34-14.16-16.79,5.75-33.1,12.85-49.44,19.74-19.82,8.59-39.82,17.17-57.92,29.09-6.06,3.9-11.61,8.5-17.54,12.58.73-1.55,1.34-3.19,2.48-4.48,11.04-8.6,22.51-16.67,34.88-23.26,17.52-9.61,35.8-17.72,53.89-26.17,11.95-5.7,24.65-9.64,36.53-15.49-15.52,5.42-30.6,12.04-45.71,18.51-18.44,8.14-37.06,16.11-54.3,26.64-8.35,5.06-16.18,10.93-23.77,17.04.79-1.68,1.57-3.41,2.76-4.85,25.81-21.94,57.35-35.15,87.55-49.74,10.34-4.94,21.3-8.45,31.54-13.61-8.67,2.65-16.85,6.63-25.23,10.01-19.75,8.58-39.55,17.14-58.52,27.33-11.79,6.19-22.56,14.03-33.09,22.12.77-1.63,1.42-3.37,2.63-4.73,25.18-20.96,55.4-34.2,84.57-48.49,9.68-4.81,20.14-7.94,29.58-13.24-17.54,6.72-34.61,14.61-51.66,22.47-17.91,8.47-35.93,17.16-51.73,29.26-2.9,2.28-5.88,4.45-8.84,6.64.66-1.44,1.28-2.94,2.29-4.18,13.98-12.3,30.16-21.75,46.58-30.4,13.06-6.72,26.18-13.32,39.43-19.68,8.28-3.8,16.84-6.97,24.96-11.11-6.68,1.94-12.9,5.12-19.29,7.82-20,9.02-40.03,18.07-59.22,28.74-10.71,5.88-20.56,13.13-30.15,20.67.79-1.67,1.48-3.43,2.7-4.84,2.45-2.01,4.91-4.02,7.3-6.1,9.47-5.98,19.46-11.14,29.13-16.8,15.77-8.81,31.31-18.09,47.25-26.58,7.61-2.83,15.18-5.92,22.24-9.95-5.21,1.77-10.1,4.35-15.33,6.07M242.56,336.08c16.68-9.47,33.32-19.01,50.03-28.42.52.47,1.56,1.42,2.08,1.9-1.2.92-2.38,1.85-3.56,2.78,1.21.77,2.43,1.54,3.66,2.33-1.2.87-2.39,1.74-3.58,2.61,1.15.88,2.3,1.74,3.46,2.62-1.22.93-2.43,1.87-3.64,2.81,1.17.72,2.35,1.43,3.54,2.16-1.18,1.1-2.35,2.2-3.51,3.31,1.15.59,2.31,1.19,3.47,1.79-1.17,1.09-2.35,2.17-3.52,3.26,1.25.75,2.51,1.5,3.77,2.26-1.48.93-2.94,1.87-4.41,2.81,1.45.74,2.9,1.49,4.35,2.24-1.37.99-2.73,1.99-4.1,2.99,1.34.77,2.69,1.54,4.03,2.32-9.61,6.81-21.08,10.02-31.76,14.7-14.86,6.42-30,12.49-43.72,21.15-5.91,3.62-10.87,8.5-16.52,12.46,4.04-5.01,9.15-9.01,14.32-12.78,13.34-9.42,28.45-15.79,43.07-22.91,8.45-4.1,17.71-6.58,25.54-11.9-18.54,7.19-36.89,14.97-54.75,23.73-12.84,6.23-24.77,14.36-34.84,24.51-.26.09-.79.29-1.05.39,15.37-18.5,37.76-28.61,58.91-38.89,8.95-4.78,18.77-7.66,27.57-12.72-14.92,5.28-29.25,12.13-43.62,18.74-11.88,5.67-23.7,11.74-34,20.02-4.63,3.51-8.63,7.76-13.12,11.44,15.38-19.59,38.67-30.24,60.42-41.13,9.08-4.89,18.85-8.27,28.03-12.95-15.16,5.56-29.73,12.63-44.33,19.52-14.41,6.95-28.68,14.67-40.64,25.44-3.17,2.79-6.09,5.86-9.38,8.52,5.95-8.26,14.03-14.75,22.14-20.77,14.19-10.23,30.26-17.31,45.45-25.84-10.53,4.11-20.47,9.6-30.56,14.67-16.51,8.42-31.58,19.68-43.91,33.54-.21.13-.65.37-.87.5,10.37-14.25,24.58-25.27,39.63-34.21,7.72-4.89,16.15-8.54,23.86-13.44-13.79,6.15-27.21,13.25-39.8,21.61-10.63,7.18-20.02,16.02-28.63,25.48-.23.15-.69.45-.92.59,10.52-14.61,24.66-26.31,39.91-35.71,6.6-4.25,13.64-7.75,20.3-11.9-13.52,6.3-26.6,13.72-38.61,22.58-9.5,7.1-17.99,15.47-25.75,24.41-.22.13-.66.4-.88.53,8.59-12.44,19.85-22.92,32.04-31.79,4.49-3.38,9.51-6.01,13.77-9.69,9.98-6.26,20.45-11.74,30.63-17.67M260.2,363.63c10.23-5.06,21.5-8.02,30.89-14.7,1.19.74,2.38,1.49,3.58,2.25-9.95,6.13-21.24,9.39-31.88,14.02-13.72,5.82-27.76,11.38-39.92,20.16-3.37,2.36-6.33,5.26-9.78,7.51,12.58-14.02,30.42-21.39,47.11-29.24M271.48,379.86c7.28-4.72,14.96-8.78,22.47-13.12-.47,3.85-.39,7.74-.28,11.61-1.22.56-2.44,1.12-3.65,1.69.35-.66,1.05-1.98,1.4-2.64-1.82.54-3.64,1.09-5.46,1.64.91-.97,1.83-1.94,2.75-2.9-3.63,1.23-7.22,2.55-10.79,3.91.92-.98,1.85-1.94,2.78-2.9-3.05.98-6.14,1.85-9.22,2.71M271.47,384.53c2.94-.58.17,2.77-1.41,2.22-1.64-.48.58-2.18,1.41-2.22M293.58,384.85c1.64,1.43-3.28,3.7-4.13,2.19.89-1.3,2.58-2.07,4.13-2.19M304.34,388.66c1.2.13,4.1-.07,3.62,1.84-1.46,1.06-3-.62-3.62-1.84M303.43,390.72c3.01-1.47.07,3.33,0,0h0Z"/>
      <path class="cls-1" d="M282.4,110.17c2.46-5.2,5.45-10.13,8.46-15.03.17.69.52,2.06.69,2.75-.66,1.09-1.32,2.18-1.98,3.26.38.38.77.76,1.16,1.14-1.32.69-2.63,1.38-3.94,2.07.62.11,1.86.33,2.48.45-.84.57-1.68,1.14-2.5,1.72.69.14,2.08.42,2.77.56-2.39,1-4.8,1.97-7.14,3.08M302.36,101.98c1.06,1.83,2.15,3.68,3.87,4.99-1.59-.21-3.08-1.3-4.68-1.12.01.76.1,1.51.29,2.27-.73-.53-2.18-1.59-2.9-2.12.69-.43,1.39-.87,2.09-1.3l-2.01-1.37c1.39.4,2.63,1.16,3.88,1.87-.14-.81-.41-2.41-.54-3.22M303.41,107.69c1.21-.51,3.71.26,3.81,1.69-1.24.47-3.77-.18-3.81-1.69M281.48,111.2c2.47-.71,4.99-1.21,7.53-1.63-2.6,1.7-5.53,2.73-8.48,3.6.23-.49.71-1.48.95-1.97M302.19,109.76l.7-.39c.28.28.83.84,1.11,1.12l-.69.4c-.28-.28-.84-.84-1.12-1.13M298.94,110.8c4.3,2,9.4,2.72,12.97,5.98-4.55-1.42-9.01-3.29-12.97-5.98M304,110.49c1.58-.19,4.53.41,4.9,2.14-1.67.39-4.06-.68-4.9-2.14M303.07,131.94c8.47,3.27,17.23,6.57,24.36,12.31-3.88-1.7-7.49-3.93-11.22-5.93-4.24-2.41-9-3.76-13.14-6.38M309.19,196.95c17.23,8.03,34.54,15.98,50.95,25.62,3.85,2.34,8.08,4.15,11.46,7.19-3.13.03-5.41-2.32-7.98-3.72-9.68-5.79-19.66-11.05-29.53-16.5-8.22-4.35-16.98-7.67-24.9-12.59M310.15,207.89c18.09,7.94,36.12,16.11,53.48,25.57-.77.22-1.6.78-2.36.18-9.44-4.91-18.77-10.02-28.29-14.77-7.64-3.6-15.54-6.69-22.83-10.98M258.51,217.93c4.31-2.89,9.09-5.16,14.12-6.48-4.3,2.91-9.11,5.1-14.12,6.48M311.24,218.96c13.59,5.33,26.84,11.49,40.12,17.57,1.5.73,3.29,1.33,3.96,3.04-7.44-3.02-14.36-7.18-21.7-10.43-7.51-3.28-15.15-6.31-22.38-10.18M256.5,228.79c5.12-3.33,10.99-5.51,16.83-7.21-5.3,3.03-10.95,5.56-16.83,7.21M311.12,223.97c12.83,5.32,25.63,10.71,38.25,16.48.87.45,1.57,1.09,2.12,1.94-3.35-1.22-6.47-2.93-9.67-4.47-10.03-5.1-20.86-8.45-30.7-13.95M256.52,233.83c4.53-2.97,9.68-4.95,14.91-6.28-4.64,2.76-9.68,4.92-14.91,6.28M312.07,229.76c9.82,3.65,19.49,7.73,29.11,11.91,2.43,1.05,5.08,1.88,7.01,3.81-4.37-1.32-8.28-3.75-12.48-5.46-7.94-3.28-15.98-6.36-23.64-10.26M308.95,338.63c4.83,1.83,9.88,3.42,14.18,6.35-4.97-1.51-9.59-3.96-14.18-6.35M304.03,340.82c4.37,2.02,8.71,4.1,13.21,5.85,2.88,1.24,6.04,2.12,8.44,4.27-7.65-2.18-15.06-5.65-21.65-10.12M293.95,366.74c.64-.09,1.92-.28,2.55-.37-.26.48-.78,1.43-1.04,1.91.45.26,1.33.79,1.77,1.05l-1.95.56,1.44,1.44c-.23.58-.68,1.75-.91,2.34,1.77.44,4.34.96,5.18,2.73-1.38,0-2.76-.09-4.13-.27l1.56,1.62-3.01-1.05,1.2,1.93,3.15,1.12c-.64.43-1.28.87-1.92,1.31l-.22-1.74c-.67.28-2.01.84-2.68,1.12-.32.14-.98.41-1.3.55.18.64.54,1.93.72,2.58-3.27,1.53-6.63,2.85-10.09,3.88.69-.74,2.09-2.2,2.78-2.94-3.54,1.42-7.12,2.73-10.79,3.79.95-.92,1.93-1.82,2.92-2.69.43-.04,1.28-.12,1.71-.15l.13-.77-.69-.34c-.29.31-.86.94-1.15,1.26-.99.14-2.98.43-3.98.57.93-.82,1.87-1.63,2.81-2.43-.94.07-2.82.22-3.77.29.91-.88,1.82-1.75,2.74-2.62-3.91,1.68-7.8,3.41-11.79,4.91,1.3-1.35,2.62-2.68,3.93-4.03-.72.15-2.16.44-2.87.58,1.64-1.16,3.28-2.41,5.23-3.02,3.08-.86,6.17-1.73,9.22-2.71-.93.96-1.86,1.92-2.78,2.9,3.57-1.36,7.16-2.68,10.79-3.91-.92.96-1.84,1.93-2.75,2.9,1.82-.55,3.64-1.1,5.46-1.64-.35.66-1.05,1.98-1.4,2.64,1.21-.57,2.43-1.13,3.65-1.69-.11-3.87-.19-7.76.28-11.61M302.41,376.88l.48-.49c.28.32.82.95,1.1,1.26l-.85.41c-.18-.3-.55-.88-.73-1.18M303.99,377.65c1.64-.37,3.91.42,4.9,1.82l-.32.33c-.59-.03-1.79-.08-2.39-.11-.78-.66-1.51-1.33-2.19-2.04M307.88,376.55c8.97,3.24,17.9,6.97,25.81,12.38,1.52.97,2.79,2.27,3.98,3.62l.23-.2-1.99-2.83c3.08,1.79,6.23,3.51,9.15,5.57-2.04.26-3.93-.08-5.67-.99.11.26.32.79.42,1.06-3.9-.17-7.8-.12-11.7-.16-2.06-2.19-4.27-4.35-7.07-5.57,2.31,1.81,4.69,3.52,6.83,5.55-7.63.13-15.26.01-22.89.06l-.53-.25c-2.59-1.23-5.22-2.42-7.5-4.17.5.04,1.5.14,2,.18-.6-.86-1.18-1.73-1.74-2.6.05-.46.16-1.37.22-1.83.93.38,1.87.78,2.8,1.21,1.23.81,2.66.98,4.11,1.08.62,1.22,2.16,2.9,3.62,1.84.48-1.91-2.42-1.71-3.62-1.84-1.84-1.24-3.08-3.42-5.68-2.85-.72-1.62.59-2.58,1.43-3.59,4.07,2.43,8.73,3.62,12.76,6.14,1.92.71,3.8,1.56,5.73,2.31-1.75-1.44-4.41-2.05-5.56-4.02,1.14.2,3.42.6,4.56.8-1.71-1.33-3.71-2.15-5.46-3.37l.07-.53c.79-.07,2.38-.19,3.18-.25v.86c.42.16,1.24.49,1.65.65.54.17,1.61.52,2.14.69l.3.79c.43.09,1.29.26,1.72.34,2.12,1.64,4.37,3.13,6.75,4.38-1.98-1.85-4.28-3.29-6.75-4.38-.51-.28-1.51-.85-2.02-1.13-.33-.26-1.01-.78-1.35-1.04l-.79.35c-.41-.38-1.24-1.13-1.65-1.51-1.66-.79-3.24-1.69-4.84-2.56l1.28-.35c.5.21,1.52.64,2.03.85.42.07,1.25.21,1.67.28l.38-.68c1.89,2.9,5.48,3.83,8.63,4.66.15.39.45,1.16.59,1.55l.79-.15.1-.75c-.37-.16-1.11-.49-1.48-.65-2.82-1.66-5.72-3.17-8.63-4.66-.41-.07-1.24-.21-1.65-.28l-.4.68.42-1.15c-2.2-1.03-4.49-1.98-6.38-3.54M305.42,386.63c.13,3.31,2.99-1.43,0,0M303.43,390.72c.07,3.33,3.01-1.47,0,0M303,379.66c-2.34,1.22-2.01-2.62.05-.64l-.05.64M303,379.66c.8.01,2.38.02,3.18.03,1.3,1.01,2.71,1.92,4.16,2.75l-.16.87c-2.38-1.1-4.82-2.04-7.18-3.16v-.49M308.57,379.8l.9-.44,1.01.49.05.89c-.49-.23-1.47-.7-1.96-.94M300.39,380.91l.69-.36c.3.28.89.84,1.19,1.12-.43,0-1.28-.02-1.71-.03l-.17-.73M302.27,381.67c1.77-1.73,2.22,2.17.13.9l-.13-.9M310.34,382.44c.46.28,1.38.83,1.85,1.11-.4-.06-1.2-.18-1.59-.24l-.26-.87M308.89,384.75c-1.92,1.57-2.01-2.37-.05-.93l.05.93M286.38,387.75c2.97-1.55.14,3.33,0,0M295.28,391.96c.9-.83,3.01.26,2.44,1.51-.92.82-3.03-.26-2.44-1.51h0Z"/>
      <path class="cls-5" d="M302.19,109.76c-2.98,1.48-.63-3.26,0,0M376.39,234.93c21.48-9.35,46.8-9.18,68.22.27-2.52,4.9-7.41,7.73-10.81,11.9-5.23,6.4-14.16,7.71-19.68,13.79-1.13-.51-2.24-1.02-3.35-1.52,1.19-4.45-2.31-8.21-4.73-11.54-2.41-.33-5.21-2.67-7.4-.81-2.28,3.5-3.18,7.65-2.64,11.8,1.77,1.61,3.57,3.29,5.9,4.07,1.02,1.02,2.04,2.06,3.06,3.11-2.19,3.27-5.42,6.37-5.51,10.55.17,4.07,1.77,7.93,1.88,12.02-3.43-2.74-3.87-7.39-6.22-10.85-1.79-2.73-3.46-5.52-4.96-8.41-.52-.86-.91-2.02-2.11-1.97-3.98-.74-8.01-1.09-12.01-1.61-2.21-1.25-4.1-2.99-6.21-4.38.96,2.08,2.03,4.12,3.05,6.18-1.51.03-3.02.06-4.52.1-.07,6.22-6.23,8.64-10.27,12.05-.65,2.17-.36,4.46-.32,6.69,1.84.15,3.68.33,5.52.51,1.86-1.81,3.74-3.6,5.8-5.18-.97,3.11-1.93,6.42-4.27,8.82-3.06-.44-5.57-2.83-8.71-2.8-3.32.52-5.98,2.8-9.04,4.03-3.68,1.8-7.84,2.27-11.54,4.01-1.01,6.6-1.7,13.36-.54,20,2.23-2.29,4.69-4.45,6.32-7.25.09-2.52-2.12-4.18-3.48-6.02.87-.23,1.75-.45,2.64-.67,1.01-1.18,1.73-2.83,3.35-3.31,4.31-1.44,8.83-2.78,13.42-2.57,3.45.97,6.58,3.11,9.04,5.71-.09,1.5-.45,2.98-.44,4.5,1,2.13,2.47,4,3.64,6.04-5.71,1.25-11.53,1.84-17.35,2.19-2.66.09-5.19,2.47-5,5.21-.02,4.61-.84,9.28-.43,13.85,2.72,4.52,5.15,9.27,8.64,13.27,1.62-3.32,2.02-7.15,1.39-10.77-1.24-1.19-3.1-1.22-4.64-1.72-.96-3.84-1.45-8.3.69-11.83,3.66-2.83,8.23-.51,11.97.87,5.26,2.25,11.1,1.76,16.57,3.16,4.77.68,8.54,4.01,13.14,5.26.51,2.93,1.04,5.85,1.42,8.81-1.13-.19-3.38-.56-4.51-.75,1.16,1.84,2.17,4.57,4.77,4.63,3.62-.41,6.89-2.27,10.27-3.52,3.12-1.07.66-4.82.62-7.05,3.33.07,6.66-.29,10-.13,3.09,7.18,9.01,12.76,11.79,20.1-4.74,5.55-11.21,9.24-16.77,13.87-.87,3.27-.67,6.84-2.46,9.83.05,1.13.11,2.26.18,3.4,2.44-1.19,4.81-2.5,7.1-3.95-.8-1.57-1.58-3.14-2.33-4.73.64.14,1.91.4,2.55.54,4.39-8.21,13.94-11.09,22-14.37-.45,3.01-1.27,5.97-2.95,8.55.06.83.18,2.49.24,3.32,1.99-1.12,4.11-2.09,5.84-3.61,2.04-2.27,3.09-5.3,5.4-7.35,4.67-3.89,9.87-7.42,15.9-8.76,1.14,2.6.66,5.32-.7,7.75,1.12,4.07,5.67,2.32,8.44,1.15,1.94-8.8,1.65-17.91.81-26.83-.55-3.25-.84-7.11-3.58-9.35-4.46-2.82-10.6-2.47-14.23-6.69-6.52-7.4-15.88-11.9-25.61-13.1-1.37-2.91-3-5.68-4.36-8.59,2.1-.37,4.22-.76,6.32-1.22,1.02-.91,2.06-1.79,3.11-2.66.76-3.73,1.8-7.4,2.15-11.2-3.98-1.05-7.98-2.09-11.95-3.18-.06-2.02-.17-4.02-.39-6.02,2.28-2.27,5.29-3.39,8.14-4.73.05-2.07-1.1-3.92-1.4-5.93,4.04-3.47,8.32-6.77,11.45-11.16.52,3.23.73,6.81,2.97,9.42,2.97,3.88,10.72,2.69,11.49-2.48,1.49-5.71-.59-11.59-3.93-16.23,4.32,1.73,7.99,4.67,11.64,7.52,14.36,11.55,24.86,27.83,29.3,45.73,4.93,19.48,2.74,40.69-6.22,58.68-8.37,17.07-22.63,31.18-39.78,39.39-15.17,7.32-32.53,9.95-49.19,7.55-19.32-2.69-37.54-12.34-50.72-26.7-10.81-11.65-18.27-26.38-21.19-42-3.56-18.53-.81-38.22,7.86-54.99,8.97-17.62,24.26-31.92,42.45-39.71M455.63,334.46c.78-1.24,1.58-2.46,2.4-3.67,1.24,4.65,3.93,8.96,3.95,13.89-2.72-3-4.43-6.7-6.35-10.22M395.98,341.09c1.3-3.25.12-6.33-.53-9.51,1.17,1.32,2.33,2.7,3.47,4.06-.08.57-.24,1.7-.33,2.27-.88,1.04-1.75,2.11-2.61,3.18M439.02,344.68c1.54-2.25,4.07-3.51,6.2-5.12,1.86,2.06,3.96,3.94,5.6,6.2.44,1.74-.87,3.42-2.08,4.54-2.65,2.15-5.46,4.11-7.98,6.42-1.66-3.74-2.5-7.99-1.74-12.04M296.95,390.62c-.98-3.24-2.88,1.4,0,0h0Z"/>
    </g>
  </g>
</svg>