<?xml version="1.0" encoding="iso-8859-1"?>
<!-- Generator: Adobe Illustrator 29.7.1, SVG Export Plug-In . SVG Version: 9.03 Build 0)  -->
<svg version="1.1" id="Layer_1" xmlns="http://www.w3.org/2000/svg" xmlns:xlink="http://www.w3.org/1999/xlink" x="0px" y="0px"
	 viewBox="0 0 1920 1080" style="enable-background:new 0 0 1920 1080;" xml:space="preserve">
<g>
	<path style="fill:#FFFFFF;" d="M930.719,257.52c50.86-5.08,103.08,3.64,149.33,25.47c57.48,26.83,105.38,73.47,133.81,130.17
		c20.94,41.45,31.37,88.11,30.21,134.53c-0.83,40.58-10.53,80.95-28.24,117.47c-27.97,58.06-76.26,106.01-134.52,133.56
		c-39.51,18.85-83.45,28.23-127.21,27.41c-44.4-0.7-88.59-12-127.83-32.78c-58.56-30.77-105.75-82.54-130.79-143.78
		c-22.63-54.64-27.36-116.39-13.8-173.91c14.73-63.38,52.22-121.02,103.86-160.55C827.299,282.86,878.199,262.63,930.719,257.52
		 M875.049,292.21c-58.68,19.55-109.8,60.58-141.79,113.49c-20.3,33.32-33.02,71.22-36.9,110.04c-3.27,31.77-0.67,64.09,7.43,94.96
		c3.5-1.06,6.93-2.32,10.39-3.47c2.33-0.74,4.63-1.54,6.92-2.38c3.01-1.13,6.05-2.17,9.09-3.21c-11.34-44.4-9.63-92.08,5.27-135.44
		c11.52-33.79,30.9-64.84,56.09-90.12c26.05-26.25,58.33-46.3,93.47-57.86c51.06-16.97,107.93-15.7,158.19,3.52
		c32.6,12.39,62.36,32.15,86.48,57.34c26.64,27.7,46.4,61.98,56.87,98.97c11.62,40.68,11.82,84.42,1.13,125.32
		c3.11,0.73,6.21,1.48,9.31,2.29c2.13,0.53,4.24,1.46,6.47,1.4l0.6-0.36l0.21,0.64c3.36,1.13,6.89,1.67,10.29,2.68
		c16.73-62.46,9.29-131.02-20.58-188.39c-28.6-55.67-77.62-100.49-135.7-123.85C1000.459,274.21,934.209,272.24,875.049,292.21
		 M955.739,339.54c-0.22,0.4-0.66,1.2-0.88,1.6c-3.01,4.9-6,9.83-8.46,15.03c-0.23,0.26-0.69,0.77-0.92,1.03
		c-0.24,0.49-0.72,1.48-0.95,1.97c-0.13,0.19-0.37,0.58-0.5,0.77c-0.56,0.99-1.12,1.99-1.66,2.99c-0.35,0.6-1.04,1.79-1.38,2.38
		c-1.49,2.2-2.65,4.59-3.84,6.95c7.29-4.15,14.61-8.25,21.93-12.35c7.33,4.14,14.65,8.28,21.97,12.43c-1.4-2.34-2.44-4.96-4.26-7.01
		c-5.87-2.63-12.11-4.48-17.56-8c2.1-0.92,1.79-2.06,0.06-3.19c0.66-0.36,1.32-0.73,1.99-1.09c-0.52-0.31-1.56-0.91-2.07-1.22
		l1.68-1.38l-1.65-1.02c0.4-0.36,1.2-1.07,1.61-1.43l-1.74-0.69c0.27-0.19,0.81-0.58,1.07-0.78c-0.68-2.6-0.59-5.31-0.69-7.97
		c0.86,0.51,2.57,1.53,3.43,2.04c-1.25-2.35-2.52-4.66-3.83-6.97C957.949,335.58,956.819,337.54,955.739,339.54 M963.509,347.55
		C963.559,350.92,966.429,346.02,963.509,347.55 M966.359,347.98c0.13,0.81,0.4,2.41,0.54,3.22c-1.25-0.71-2.49-1.47-3.88-1.87
		l2.01,1.37c-0.7,0.43-1.4,0.87-2.09,1.3c0.72,0.53,2.17,1.59,2.9,2.12c-0.19-0.76-0.28-1.51-0.29-2.27
		c1.6-0.18,3.09,0.91,4.68,1.12C968.509,351.66,967.419,349.81,966.359,347.98 M967.409,353.69c0.04,1.51,2.57,2.16,3.81,1.69
		C971.119,353.95,968.619,353.18,967.409,353.69 M966.189,355.76c0.28,0.29,0.84,0.85,1.12,1.13l0.69-0.4
		c-0.28-0.28-0.83-0.84-1.11-1.12L966.189,355.76C965.559,352.5,963.209,357.24,966.189,355.76 M962.939,356.8
		c3.96,2.69,8.42,4.56,12.97,5.98C972.339,359.52,967.239,358.8,962.939,356.8 M967.999,356.49c0.84,1.46,3.23,2.53,4.9,2.14
		C972.529,356.9,969.579,356.3,967.999,356.49 M958.799,371.32c-4.9,2.28-9.47,5.2-14.12,7.95c-5.27,3.18-10.72,6.04-15.97,9.26
		l-0.95,0.27c-0.92,1.43-1.78,2.89-2.58,4.39l-0.08,0.03c-0.64,1.16-1.27,2.31-1.89,3.48c-0.35,0.62-1.04,1.86-1.39,2.48l-0.29,0.12
		c-0.44,0.95-0.88,1.91-1.31,2.87c-0.77,0.9-1.39,1.93-1.83,3.07c-0.6,0.87-1.08,1.81-1.58,2.73l-0.36,0.18
		c-0.46,1.02-0.91,2.04-1.35,3.07l-0.31,0.14c-0.32,0.64-0.95,1.92-1.26,2.56l-0.3,0.15c-0.51,1-1.02,2.01-1.51,3.02l-0.23,0.11
		c-0.5,0.99-0.99,1.99-1.48,3c-0.65,0.8-1.18,1.69-1.58,2.67l-0.27,0.2c-0.63,1.17-1.22,2.36-1.84,3.55
		c-0.36,0.59-1.07,1.78-1.43,2.37l-0.21,0.1c-0.5,1.07-1,2.15-1.5,3.23c-0.68,0.82-1.24,1.74-1.65,2.76
		c-0.65,0.93-1.16,1.95-1.69,2.95l-0.36,0.19c-0.46,1-0.91,2-1.36,3.01l-0.26,0.16c-3.57,6.59-7.43,13.02-10.97,19.63
		c24.13-13.46,48.12-27.18,72.18-40.76c24.03,13.65,48.09,27.25,72.1,40.92c-3.62-6.53-7.12-13.16-11.08-19.49
		c-4.18-3.4-9.16-5.65-13.99-7.96c-11.08-4.91-22.51-8.96-34.04-12.65c-4.6-1.43-8.83-3.75-12.96-6.18
		c0.95-1.05,1.91-2.09,2.87-3.13c-0.72-0.43-2.16-1.29-2.88-1.72c0.96-1.05,1.92-2.09,2.88-3.13c-1-0.41-1.93-1.21-3.08-1.03
		l0.76-1.42c0.8-0.65,1.52-1.44,2.29-2.16c-0.95-0.61-1.89-1.2-2.83-1.79c0.89-1.05,1.78-2.09,2.67-3.13
		c-0.67-0.42-2.02-1.25-2.69-1.67c0.85-1.03,1.71-2.05,2.57-3.07c-0.64-0.43-1.92-1.29-2.56-1.72c0.84-1.03,1.67-2.06,2.52-3.09
		c-0.64-0.39-1.92-1.17-2.56-1.55l0.17-0.12c0.67-0.99,1.38-1.95,1.94-3c-0.49-0.45-1.47-1.35-1.96-1.8
		c0.73-0.96,1.47-1.92,2.21-2.88c-0.58-0.42-1.74-1.27-2.32-1.69c0.59-0.8,1.19-1.6,1.79-2.4c-0.88-1.18-1.47-2.49-1.77-3.93
		C959.039,370.68,958.879,371.11,958.799,371.32 M967.069,377.94c4.14,2.62,8.9,3.97,13.14,6.38c3.73,2,7.34,4.23,11.22,5.93
		C984.299,384.51,975.539,381.21,967.069,377.94 M964.109,380.74c5.54,3.87,12.16,5.64,18.01,8.92c4.23,2.28,8.51,4.45,12.67,6.84
		c-0.58-0.95-1.16-1.89-1.72-2.83C983.649,388.84,973.969,384.56,964.109,380.74 M964.949,385.7c5.16,3.65,11.38,5.2,16.94,8.09
		c5.43,2.82,10.91,5.54,16.26,8.51c-0.91-1.26-1.69-2.76-3.2-3.39C985.249,393.86,975.129,389.67,964.949,385.7 M964.169,389.84
		c5.11,3.61,11.14,5.4,16.8,7.93c6.86,3.4,13.77,6.73,20.42,10.54c-0.77-1.16-1.28-2.64-2.6-3.29
		C987.729,398.93,975.789,394.7,964.169,389.84 M965.049,395.01c5.19,3.5,11.3,5.14,16.95,7.7c7.77,3.78,15.65,7.38,23.08,11.81
		c-1.02-1.54-1.95-3.27-3.75-4C989.719,404.29,977.339,399.68,965.049,395.01 M965.159,399.79c5.28,3.38,11.35,5.07,17.08,7.47
		c8.82,4.14,17.77,8.05,26.1,13.14c-0.99-1.61-2.04-3.28-3.85-4.04C991.979,409.52,978.509,404.7,965.159,399.79 M965.879,404.77
		c5.22,3.37,11.3,4.89,17,7.23c9.67,4.34,19.41,8.59,28.53,14.03c-0.85-1.64-1.94-3.2-3.71-3.93
		C994.439,414.81,980.069,409.88,965.879,404.77 M966.009,409.69c5.66,3.15,11.93,4.88,17.92,7.27
		c10.65,4.75,21.54,9.15,31.34,15.58c-1.21-2.07-2.69-4.05-4.95-5.04C996.289,419.91,981.129,414.65,966.009,409.69 M965.289,413.91
		c5.86,3.44,12.42,5.29,18.75,7.64c11.7,5.05,23.65,9.75,34.32,16.84c-0.9-1.67-1.83-3.41-3.61-4.25
		C999.339,425.01,982.009,420,965.289,413.91 M957.249,432.3c-11.13,6.96-23.06,12.64-33.98,19.92
		c-14.91,7.82-29.39,16.54-44.09,24.79c-2.14,0.94-3.23,3.04-4.19,5.04c-0.73,1.02-1.31,2.12-1.75,3.32
		c-0.96,1.06-1.5,2.4-2.18,3.64c-0.74,1-1.33,2.1-1.77,3.29c-0.9,1.07-1.47,2.37-2.14,3.59c-0.72,1.03-1.32,2.14-1.79,3.33
		c-0.9,1.1-1.49,2.41-2.18,3.64c-0.69,1.03-1.27,2.13-1.73,3.3c-0.28,0.42-0.83,1.27-1.11,1.69l-0.15,0.07
		c-0.74,1.44-1.48,2.87-2.18,4.33l-0.28,0.16c-0.48,0.93-0.96,1.87-1.43,2.82c-1.01,1.05-1.51,2.46-2.14,3.75
		c-0.59,0.86-1.12,1.77-1.6,2.7c-0.34,0.68-1.02,2.03-1.36,2.7c-0.91,1.02-1.45,2.3-2.12,3.49c-0.68,0.99-1.25,2.04-1.72,3.17
		c-3.89,6.38-7.38,13.01-11.11,19.49c40.99-23.26,81.88-46.72,122.85-70.02c13.61,7.76,27.21,15.55,40.84,23.29
		c1.67-2.12,3.37-4.2,5.11-6.26c-15.37-6.65-31.74-11.27-45.91-20.46c1.71-0.76,3.43-1.51,5.15-2.27c-1.73-1.01-3.44-2.03-5.15-3.04
		c1.65-0.81,3.32-1.61,4.97-2.44c-1.66-0.97-3.33-1.95-4.98-2.93c1.61-0.78,3.23-1.55,4.86-2.31c-1.62-1.06-3.24-2.11-4.85-3.16
		c1.58-0.75,3.15-1.5,4.74-2.25c-1.58-1.05-3.17-2.09-4.76-3.12c1.56-0.76,3.12-1.52,4.68-2.27c-1.55-1.04-3.1-2.08-4.65-3.11
		c1.35-0.68,2.7-1.33,4.02-2.07c-0.71-1.69-2.69-2.27-4.01-3.36c1.5-0.76,3.01-1.53,4.51-2.29c-1.51-1.01-3.02-2.02-4.53-3.01
		c1.46-0.83,2.93-1.65,4.39-2.49c-1.46-0.93-2.91-1.86-4.36-2.77c0.53-0.36,1.6-1.09,2.13-1.45
		C960.029,431.99,958.649,431.72,957.249,432.3 M973.189,442.95c7.92,4.92,16.68,8.24,24.9,12.59c9.87,5.45,19.85,10.71,29.53,16.5
		c2.57,1.4,4.85,3.75,7.98,3.72c-3.38-3.04-7.61-4.85-11.46-7.19C1007.729,458.93,990.419,450.98,973.189,442.95 M1113.449,471.13
		c-2.22,3.08-2.9,6.87-4.84,10.07c-21.42-9.45-46.74-9.62-68.22-0.27c-18.19,7.79-33.48,22.09-42.45,39.71
		c-8.67,16.77-11.42,36.46-7.86,54.99c2.92,15.62,10.38,30.35,21.19,42c13.18,14.36,31.4,24.01,50.72,26.7
		c16.66,2.4,34.02-0.23,49.19-7.55c17.15-8.21,31.41-22.32,39.78-39.39c8.96-17.99,11.15-39.2,6.22-58.68
		c-4.44-17.9-14.94-34.18-29.3-45.73c-3.65-2.85-7.32-5.79-11.64-7.52c-2.57-2.08,0.87-3.58,1.4-5.72c0.92-2.01,0.24-4.62-1.74-5.7
		c0.2-9.59,1.04-19.17,0.94-28.76C1114.399,453.64,1115.519,462.71,1113.449,471.13 M974.139,448.78
		c9.09,5.15,18.94,8.75,28.08,13.81c8.45,4.52,16.96,8.96,25.26,13.77c1.25,0.75,2.63,1.22,4.08,1.49c-1.58-1.74-3.66-2.85-5.7-3.93
		C1008.969,464.85,991.739,456.39,974.139,448.78 M974.149,453.89c7.29,4.29,15.19,7.38,22.83,10.98
		c9.52,4.75,18.85,9.86,28.29,14.77c0.76,0.6,1.59,0.04,2.36-0.18C1010.269,470,992.239,461.83,974.149,453.89 M975.199,459.79
		c10.82,5.6,22.32,9.78,33.02,15.63c5.17,2.28,9.82,5.83,15.35,7.21c-1.62-1.69-3.78-2.63-5.84-3.63
		C1003.709,472.28,989.669,465.52,975.199,459.79 M975.239,464.96c7.23,3.87,14.87,6.9,22.38,10.18c7.34,3.25,14.26,7.41,21.7,10.43
		c-0.67-1.71-2.46-2.31-3.96-3.04C1002.079,476.45,988.829,470.29,975.239,464.96 M975.119,469.97c9.84,5.5,20.67,8.85,30.7,13.95
		c3.2,1.54,6.32,3.25,9.67,4.47c-0.55-0.85-1.25-1.49-2.12-1.94C1000.749,480.68,987.949,475.29,975.119,469.97 M976.069,475.76
		c7.66,3.9,15.7,6.98,23.64,10.26c4.2,1.71,8.11,4.14,12.48,5.46c-1.93-1.93-4.58-2.76-7.01-3.81
		C995.559,483.49,985.889,479.41,976.069,475.76 M956.609,493.3c-13.57,7.79-27.41,15.16-40.72,23.38
		c-2.46,0.98-4.73,2.39-6.91,3.88c-15.94,8.49-31.48,17.77-47.25,26.58c-9.67,5.66-19.66,10.82-29.13,16.8
		c-2.9,1.38-6.23,2.76-7.3,6.1c-1.22,1.41-1.91,3.17-2.7,4.84c-0.94,1.21-1.59,2.61-2.31,3.96c-1.01,1.24-1.63,2.74-2.29,4.18
		c-0.82,1-1.32,2.22-1.92,3.36c-1.21,1.36-1.86,3.1-2.63,4.73c-0.95,1.16-1.56,2.56-2.25,3.89c-1.19,1.44-1.97,3.17-2.76,4.85
		c-0.38,0.68-1.14,2.04-1.52,2.73c-1.14,1.29-1.75,2.93-2.48,4.48c-1.01,1.22-1.63,2.7-2.35,4.11c-1.22,1.4-1.95,3.15-2.75,4.82
		c-4.57,7.71-8.86,15.6-13.27,23.41c57.67-32.78,115.34-65.57,173.02-98.34c7.51,4.2,14.89,8.62,22.49,12.67
		c0.06-1.45,0.14-2.89,0.21-4.32c-7.81-3.26-15.22-7.39-22.59-11.53c2.24-1.11,4.53-2.14,6.83-3.15c-2.22-1.34-4.49-2.57-6.67-3.96
		c1.66-1.52,4.85-1.46,5.75-3.59c-1.92-1.33-3.97-2.45-5.95-3.65c2.2-1.03,4.42-2.04,6.64-3.04c-2.23-1.34-4.45-2.7-6.62-4.11
		c2.11-0.99,4.23-1.97,6.35-2.97c-2.09-1.41-4.23-2.75-6.36-4.07c2.05-1.04,4.12-2.05,6.2-3.05c-2.05-1.42-4.14-2.77-6.23-4.12
		c2.06-1.02,4.11-2.04,6.15-3.08c-2.15-1.37-4.28-2.76-6.32-4.26c1.26-0.36,2.55-0.67,3.84-0.95c-1.26-0.59-2.51-1.23-3.73-1.86
		C958.459,492.34,957.229,492.98,956.609,493.3 M956.589,553.66c-16.71,9.41-33.35,18.95-50.03,28.42
		c-10.18,5.93-20.65,11.41-30.63,17.67c-5.4,2.71-10.55,5.9-15.8,8.88c-18.76,10.82-37.8,21.17-56.4,32.26
		c8.79,0.41,17.6-0.21,26.39,0.34c0.22-0.13,0.66-0.4,0.88-0.53c1.04,0.15,3.12,0.47,4.15,0.62c0.23-0.14,0.69-0.44,0.92-0.59
		c1.64,0.17,3.29,0.36,4.94,0.56c0.22-0.13,0.66-0.37,0.87-0.5c5.67,0.55,11.37-0.06,17.04,0.41c0.26-0.1,0.79-0.3,1.05-0.39
		c7.39,0.47,14.81,0.07,22.22,0.22c2.72-0.11,5.73,0.51,8.14-1.14c22.91-13.03,45.86-26.01,68.78-39.02
		c21.04,11.9,41.96,24.04,63.08,35.78c-8.83-6.06-16.37-13.74-23.07-22.04c-13.06-6.47-27.49-10-39.98-17.66
		c1.36-0.65,2.72-1.3,4.1-1.94c10.25,7.16,22.49,10.38,33.62,15.84c-1.58-3.36-5.32-4.16-8.4-5.51
		c-8.57-3.55-17.47-6.45-25.47-11.24c-1.03-0.79-2.61-1.17-3.09-2.47c1.19-0.73,2.4-1.42,3.63-2.07
		c8.95,6.14,19.03,10.3,29.19,13.94c-1.8-2.57-5.01-3.2-7.71-4.39c-8.94-3.46-17.84-7.18-25.83-12.55c1.58-0.77,3.19-1.52,4.78-2.27
		c-1.62-0.97-3.24-1.94-4.85-2.9c1.54-0.76,3.09-1.51,4.65-2.25c-1.55-1.01-3.1-2.01-4.63-3.02c1.45-0.68,2.9-1.37,4.36-2.04
		c-1.42-1.04-2.85-2.04-4.28-3.03c1.32-0.71,2.66-1.41,3.96-2.18c-1.16-1.21-2.6-2.1-3.96-3.03c1.21-0.87,3.05-1.17,3.77-2.56
		c-1.25-0.95-2.57-1.8-3.86-2.66c1.39-0.75,2.79-1.48,4.19-2.21c-1.39-1-2.8-2.01-4.18-2.99c0.67-0.37,2-1.11,2.67-1.48
		c-0.71-0.38-2.13-1.13-2.84-1.51C958.369,552.74,957.189,553.35,956.589,553.66 M972.949,584.63c4.59,2.39,9.21,4.84,14.18,6.35
		C982.829,588.05,977.779,586.46,972.949,584.63 M968.029,586.82c6.59,4.47,14,7.94,21.65,10.12c-2.4-2.15-5.56-3.03-8.44-4.27
		C976.739,590.92,972.399,588.84,968.029,586.82 M935.479,625.86c-1.95,0.61-3.59,1.86-5.23,3.02c-7.26,3.73-14.27,8.02-21.36,12.09
		c17.95,0.18,35.91-0.1,53.86,0.14l-0.09-1.14c1.87,0.59,3.79,1.24,5.79,0.82l0.53,0.25c7.63-0.05,15.26,0.07,22.89-0.06
		c-2.14-2.03-4.52-3.74-6.83-5.55c2.8,1.22,5.01,3.38,7.07,5.57c3.9,0.04,7.8-0.01,11.7,0.16c-0.1-0.27-0.31-0.8-0.42-1.06
		c1.74,0.91,3.63,1.25,5.67,0.99c-2.92-2.06-6.07-3.78-9.15-5.57l1.99,2.83l-0.23,0.2c-1.19-1.35-2.46-2.65-3.98-3.62
		c-7.91-5.41-16.84-9.14-25.81-12.38c1.89,1.56,4.18,2.51,6.38,3.54l-0.42,1.15c-0.51-0.21-1.53-0.64-2.03-0.85l-1.28,0.35
		l-0.05-0.89l-1.01-0.49l-0.9,0.44l0.32-0.33c-0.99-1.4-3.26-2.19-4.9-1.82c0.68,0.71,1.41,1.38,2.19,2.04
		c-0.8-0.01-2.38-0.02-3.18-0.03v0.49c2.36,1.12,4.8,2.06,7.18,3.16l0.16-0.87l0.26,0.87c0.39,0.06,1.19,0.18,1.59,0.24l-0.07,0.53
		c1.75,1.22,3.75,2.04,5.46,3.37c-1.14-0.2-3.42-0.6-4.56-0.8c1.15,1.97,3.81,2.58,5.56,4.02c-1.93-0.75-3.81-1.6-5.73-2.31
		c-4.03-2.52-8.69-3.71-12.76-6.14c-0.84,1.01-2.15,1.97-1.43,3.59c2.6-0.57,3.84,1.61,5.68,2.85c-1.45-0.1-2.88-0.27-4.11-1.08
		c-0.93-0.43-1.87-0.83-2.8-1.21c0.88-2.1,0.21-3.21-2.02-3.31c1.21-0.36,2.43-0.73,3.61-1.18c-1.02-0.36-3.06-1.08-4.08-1.44
		c0.67-0.28,2.01-0.84,2.68-1.12l0.22,1.74c0.64-0.44,1.28-0.88,1.92-1.31l-3.15-1.12l-1.2-1.93l3.01,1.05l-1.56-1.62
		c1.37,0.18,2.75,0.27,4.13,0.27c-0.84-1.77-3.41-2.29-5.18-2.73c0.23-0.59,0.68-1.76,0.91-2.34c-0.36-0.36-1.08-1.08-1.44-1.44
		l1.95-0.56c-0.44-0.26-1.32-0.79-1.77-1.05c0.26-0.48,0.78-1.43,1.04-1.91c-0.63,0.09-1.91,0.28-2.55,0.37
		C950.439,617.08,942.759,621.14,935.479,625.86 M706.169,627.43c1.81,4.94,3.72,9.84,5.62,14.74c1.19,2.91,2.37,6,4.78,8.14
		c4.98,4.71,15.4,1.11,14.9-6.29c5.05,4.96,14.45-0.43,12.99-7.28c-1.47-7.34-4.97-14.08-7.4-21.12
		C726.739,619.51,716.479,623.53,706.169,627.43 M1180.329,617.45c-1.11,3.43-2.23,6.86-3.33,10.31
		c10.49,3.4,20.99,6.79,31.46,10.24c1.13-3.45,2.26-6.89,3.36-10.34C1201.309,624.29,1190.829,620.85,1180.329,617.45
		 M966.409,622.88c0.18,0.3,0.55,0.88,0.73,1.18l0.85-0.41c-0.28-0.31-0.82-0.94-1.1-1.26L966.409,622.88 M966.999,625.66l0.05-0.64
		C964.989,623.04,964.659,626.88,966.999,625.66 M964.389,626.91l0.17,0.73c0.43,0.01,1.28,0.03,1.71,0.03
		c-0.3-0.28-0.89-0.84-1.19-1.12L964.389,626.91 M966.269,627.67l0.13,0.9C968.489,629.84,968.039,625.94,966.269,627.67
		 M969.519,629.03C969.779,629.29,969.779,629.29,969.519,629.03 M972.889,630.75c0.55,0.22,1.65,0.66,2.2,0.88
		c-0.36-0.29-1.07-0.88-1.43-1.18L972.889,630.75l-0.05-0.93C970.879,628.38,970.969,632.32,972.889,630.75 M975.089,631.63
		c0.48,0.26,1.45,0.77,1.93,1.02l-0.09-0.69C976.469,631.88,975.549,631.72,975.089,631.63 M1160.599,638.36
		c1.73,1.69,1.75,4.23,0.33,6.11c-1.21,2.63-5.27,0.92-5.78,4.33c2.1,0.47,4.44,1.28,6.5,0.14c2.51-1.5,3.99-4.48,4.11-7.35
		c0.02-2.53-2.16-4.15-3.8-5.71C1161.619,636.5,1160.939,637.74,1160.599,638.36 M1171.949,640.46c-5.55,4.95-8.9,13.39-6.02,20.6
		c2.34,5.39,7.72,8.71,13.11,10.48c4.88,1.66,10.75,1.11,14.68-2.46c4.13-3.91,6.59-9.94,5.15-15.6c0.64,0.13,1.92,0.39,2.56,0.52
		c1.2-1.9,2.13-3.96,3.15-5.97c-5.41-2.72-10.77-5.55-16.22-8.2c-2.11,4.34-4.35,8.62-6.54,12.92c2.09,1.08,4.19,2.15,6.29,3.23
		c0.76-1.49,1.53-2.98,2.34-4.44c3.59,3.88,0.32,11.51-5.21,10.67c-4.43-0.92-9.4-3.21-11.28-7.6c-1.22-4.17,2.71-7.71,6.74-7.39
		c1.44-2.94,2.96-5.85,4.35-8.82C1180.649,637.12,1175.519,637.24,1171.949,640.46 M722.039,663.66
		c4.36,7.92,8.78,15.81,13.13,23.74c2.34-1.3,4.68-2.6,7.03-3.88c-2.61-4.85-5.32-9.64-7.98-14.46c1.5-0.84,3.01-1.66,4.52-2.47
		c2.14,3.9,4.31,7.79,6.45,11.7c2.22-1.22,4.44-2.45,6.66-3.67c-2.16-3.92-4.34-7.82-6.49-11.74c1.28-0.71,2.56-1.43,3.85-2.13
		c2.55,4.61,5.12,9.21,7.65,13.84c2.33-1.25,4.65-2.53,6.97-3.82c-4.26-7.73-8.57-15.43-12.83-23.16
		C741.339,652.94,731.689,658.31,722.039,663.66 M1150.189,677c9.37,5.81,18.71,11.66,28.06,17.51c1.91-3.06,3.82-6.13,5.74-9.18
		c-9.35-5.87-18.72-11.71-28.07-17.55C1153.989,670.84,1152.049,673.89,1150.189,677 M881.819,671.08
		c0.01,12.85-0.01,25.7,0.01,38.55c6.46-0.01,12.93,0.04,19.39-0.02c3.68-0.1,7.59-0.12,10.86-2.03c6.84-3.64,7.08-15.82-0.75-18.48
		c4.57-2.7,5.85-9.08,2.9-13.43c-2.28-3.43-6.64-4.32-10.48-4.48C896.439,670.96,889.129,671.1,881.819,671.08 M933.629,671.43
		c-5.75,1.99-10.19,7.17-11.38,13.13c-1.54,7.18-0.47,15.64,5.1,20.89c5.39,5.23,13.63,6.11,20.69,4.64
		c6.37-1.3,11.81-6.29,13.5-12.59c2.03-7.55,1.08-16.71-4.88-22.3C950.599,669.54,941.219,668.99,933.629,671.43 M968.279,671.06
		c0,12.87,0,25.74,0,38.61c9.93-0.05,19.85-0.04,29.78-0.03c0-3.41,0-6.82,0.01-10.22c-5.73-0.04-11.46-0.01-17.18-0.02
		c0-9.45,0-18.89,0-28.34C976.689,671.07,972.479,671.07,968.279,671.06 M1002.199,671.06c0,8.2-0.03,16.41,0,24.62
		c-0.05,3.67,0.98,7.55,3.68,10.18c3.7,3.73,9.19,4.72,14.25,4.86c4.98,0.04,10.34-0.57,14.43-3.7c3.21-2.4,4.84-6.43,4.9-10.37
		c0.12-8.52,0-17.05,0.05-25.57c-4.22-0.02-8.44-0.02-12.66,0.01c-0.01,7.85,0.03,15.71,0,23.57c-0.01,2.11-0.33,4.92-2.65,5.74
		c-3.31,1.28-8.99,0.74-9.23-3.74c-0.39-8.52-0.06-17.07-0.16-25.59C1010.609,671.07,1006.399,671.07,1002.199,671.06
		 M740.659,695.19c5.16,6.57,10.3,13.16,15.45,19.74c2.3-1.81,4.61-3.61,6.92-5.42c-2.97-3.77-5.89-7.57-8.89-11.31
		c6.31-5.09,12.74-10.02,19.13-15c-2.12-2.84-4.34-5.61-6.5-8.41C758.049,681.57,749.339,688.36,740.659,695.19 M1131.139,699.84
		c8.44,7.14,16.89,14.28,25.43,21.3c5.3-6.45,10.72-12.8,16.06-19.21c-2.25-1.87-4.48-3.75-6.7-5.64
		c-3.16,3.67-6.21,7.42-9.37,11.08c-6.16-5.26-12.39-10.42-18.59-15.63C1135.679,694.43,1133.429,697.15,1131.139,699.84
		 M762.079,721.98c6.41,6.36,13,12.54,19.43,18.88c1.91-1.87,3.78-3.79,5.65-5.7c-3.89-3.91-7.92-7.67-11.86-11.52
		c1.19-1.24,2.38-2.47,3.57-3.69c3.21,3.1,6.43,6.18,9.61,9.31c1.78-1.82,3.55-3.64,5.31-5.47c-3.23-3.09-6.43-6.2-9.64-9.29
		c1.01-1.07,2.03-2.13,3.05-3.19c3.79,3.67,7.62,7.3,11.37,11.01c1.87-1.89,3.71-3.79,5.55-5.7c-6.35-6.14-12.7-12.26-19.05-18.39
		C777.409,706.15,769.779,714.1,762.079,721.98 M1120.179,711.61c4.07,4.82,8.29,9.54,12.76,14.01c-6.81-3.06-14.16-4.55-21.19-6.97
		c-2.6,2.19-5.1,4.48-7.6,6.77c7.37,8.18,14.75,16.37,22.11,24.57c2.55-2.22,5.07-4.47,7.52-6.79c-4.53-4.76-8.61-9.95-13.41-14.45
		c6.8,3.43,14.41,4.76,21.59,7.18c2.48-2.28,4.99-4.52,7.51-6.76c-7.33-8.21-14.76-16.35-22.07-24.59
		C1125.009,706.88,1121.729,708.73,1120.179,711.61 M788.389,747.03c6.01,4.06,11.43,9.18,18.19,11.97
		c7.33,2.51,14.54-2.67,18.03-8.84c3.54-5.16,4.2-12.86-0.54-17.52c-4.92-4.71-10.81-8.25-16.19-12.4
		C801.369,729.16,794.889,738.11,788.389,747.03 M1083.649,739.26c2.77,11.36,5.52,22.73,8.27,34.09c2.93-1.89,5.85-3.8,8.78-5.68
		c-0.45-1.47-0.89-2.92-1.33-4.37c2.95-1.93,5.9-3.84,8.86-5.76c1.12,1,2.23,1.98,3.36,3c2.95-1.86,5.87-3.77,8.81-5.66
		c-9.09-7.35-18.5-14.28-27.68-21.5C1089.679,735.32,1086.659,737.28,1083.649,739.26 M842.739,739.55c1.68,0.96,3.37,1.93,5.07,2.9
		c1.04-1.81,2.08-3.61,3.14-5.39c-1.68-1.01-3.37-2-5.05-2.99C844.839,735.89,843.789,737.71,842.739,739.55 M838.559,741.67
		c-5.48,9.58-11.08,19.09-16.52,28.69c3.12,1.79,6.23,3.59,9.36,5.39c5.5-9.58,11.11-19.1,16.52-28.74
		C844.779,745.26,841.679,743.44,838.559,741.67 M1062.639,750.98c-1.33,4.64-2.64,9.28-3.99,13.91c-1.58-3.28-3.12-6.57-4.63-9.87
		c-3.2,1.45-6.38,2.94-9.56,4.43c4.66,10.01,9.3,20.03,14.01,30.02c3.17-1.5,6.35-2.98,9.53-4.46c-1.48-3.18-2.95-6.36-4.46-9.52
		c0.41-1.21,0.82-2.42,1.25-3.62c4.29,2.87,8.6,5.7,12.89,8.59c3.86-1.73,7.69-3.54,11.51-5.35c-6.97-4.43-13.93-8.87-20.9-13.29
		c1.82-5.36,3.7-10.7,5.54-16.05C1070.089,747.5,1066.359,749.23,1062.639,750.98 M852.109,749.12c0.55,6.84,1.24,13.66,1.88,20.5
		c1.04,5.4-3.23,9.78-4.85,14.65c3.21,1.49,6.41,3.01,9.64,4.46c1.82-3.66,3.22-7.54,5.31-11.04c6.27-4.83,12.91-9.18,19.32-13.83
		c-3.35-1.81-6.83-3.33-10.28-4.93c-3.32,2.6-6.64,5.21-9.99,7.78c-0.14-4.22-0.27-8.43-0.4-12.64
		C859.199,752.42,855.649,750.78,852.109,749.12 M877.139,794.96c8.64,2.61,17.27,5.27,25.91,7.91c0.76-2.57,1.55-5.12,2.36-7.66
		c-5.25-1.67-10.51-3.27-15.78-4.84c0.48-1.66,0.98-3.29,1.47-4.93c4.25,1.3,8.52,2.56,12.76,3.93c0.81-2.42,1.56-4.85,2.28-7.29
		c-4.28-1.3-8.57-2.59-12.83-3.94c0.45-1.41,0.9-2.81,1.35-4.2c5.03,1.58,10.08,3.12,15.13,4.64c0.77-2.53,1.54-5.05,2.29-7.58
		c-8.43-2.59-16.87-5.14-25.29-7.74C883.559,773.82,880.259,784.36,877.139,794.96 M1016.259,770.84
		c-3.26,4.8-0.74,12.41,4.87,14.13c4.59,1.13,9.34-0.01,14,0.49c1.28,0.14,2.08,0.85,2.4,2.13c-1.75,3.36-6.98,4.14-9.36,1.02
		c-3.25,0.94-6.47,1.94-9.69,2.94c2.45,6.51,10.15,8.75,16.4,6.81c0.33,1.1,0.67,2.21,1.02,3.34c1.37-0.23,2.75-0.3,4.13-0.2
		c0.9,4.06-4.88,2.97-7.4,3.65c0.3,0.98,0.6,1.97,0.92,2.97c3.21-0.4,6.84-0.38,9.47-2.56c1.78-1.53,1.73-4.33,0.41-6.13
		c-1.56-2.13-4.44-1.11-6.64-1.36c3.09-1.73,6.65-3.03,8.73-6.07c3.61-4.7,1.85-12.89-3.89-15.03c-5.05-1.87-10.53,0.2-15.66-1
		c-0.29-0.31-0.89-0.92-1.19-1.23c0.55-3.67,5.98-4.09,8.14-1.47c3.1-0.98,6.23-1.9,9.32-2.92c-2.04-4.23-6.4-7.25-11.22-6.66
		C1025.519,764.11,1019.509,766.1,1016.259,770.84 M988.499,772.98c-2.32,11.47-4.62,22.94-6.93,34.41
		c3.42-0.48,6.85-0.99,10.28-1.43c0.26-1.53,0.52-3.06,0.79-4.58c3.47-0.45,6.93-0.97,10.41-1.43c0.59,1.38,1.2,2.78,1.81,4.17
		c3.47-0.51,6.95-0.99,10.43-1.46c-5.35-10.42-10.76-20.79-16.13-31.19C995.599,771.98,992.039,772.45,988.499,772.98
		 M944.229,775.54c0.36,11.03,0.74,22.06,1.15,33.08c5.61-0.21,11.24-0.33,16.85-0.6c2.89-0.18,5.93-0.42,8.45-1.99
		c5.73-3.36,5.58-13.61-1.02-15.93c3.6-2.47,4.47-7.66,2.14-11.27c-1.81-2.93-5.48-3.78-8.69-3.79
		C956.809,774.96,950.519,775.38,944.229,775.54 M970.179,625.69c0.6,0.03,1.8,0.08,2.39,0.11c0.49,0.24,1.47,0.71,1.96,0.94
		c1.6,0.87,3.18,1.77,4.84,2.56c-0.8,0.06-2.39,0.18-3.18,0.25c-0.47-0.28-1.39-0.83-1.85-1.11
		C972.889,627.61,971.479,626.7,970.179,625.69 M977.839,627.24l0.4-0.68c0.41,0.07,1.24,0.21,1.65,0.28l-0.38,0.68
		C979.089,627.45,978.259,627.31,977.839,627.24 M979.889,626.84c2.91,1.49,5.81,3,8.63,4.66
		C985.369,630.67,981.779,629.74,979.889,626.84 M728.379,630.03c1.77-0.73,3.55-1.44,5.33-2.14c0.85,2.39,2.14,4.77,2.1,7.38
		c-0.59,1.44-2.33,1.74-3.71,1.81C729.969,635.32,729.499,632.4,728.379,630.03 M979.369,629.3c0.41,0.38,1.24,1.13,1.65,1.51
		c-0.41-0.16-1.23-0.49-1.64-0.65L979.369,629.3 M981.019,630.81l0.79-0.35c0.34,0.26,1.02,0.78,1.35,1.04
		C982.629,631.33,981.559,630.98,981.019,630.81 M983.159,631.5c0.51,0.28,1.51,0.85,2.02,1.13c-0.43-0.08-1.29-0.25-1.72-0.34
		L983.159,631.5 M988.519,631.5c0.37,0.16,1.11,0.49,1.48,0.65l-0.1,0.75l-0.79,0.15C988.969,632.66,988.669,631.89,988.519,631.5
		 M717.109,634.27c1.88-0.71,3.76-1.43,5.64-2.14c0.94,2.5,2.16,4.94,2.45,7.63c-0.17,2.02-2.37,2.7-4.09,2.5
		C718.799,640.22,718.159,637.03,717.109,634.27 M969.419,632.63C972.409,631.2,969.549,635.94,969.419,632.63 M985.179,632.63
		c2.47,1.09,4.77,2.53,6.75,4.38C989.549,635.76,987.299,634.27,985.179,632.63 M894.069,679.8c2.67,0.04,5.36-0.08,8,0.41
		c2.71,0.53,2.69,5.24,0.07,5.91c-2.66,0.51-5.38,0.31-8.06,0.35C894.069,684.24,894.069,682.01,894.069,679.8 M938.649,680.41
		c2.95-1.08,6.92-0.94,9.02,1.7c2,2.71,2.07,6.28,2.02,9.52c-0.17,2.76-0.57,5.91-2.8,7.85c-4.06,3.27-11.44,1.26-12.05-4.33
		C934.109,690.23,933.519,683.2,938.649,680.41 M894.069,693.5c2.97,0.04,5.99-0.22,8.93,0.41c3.05,0.48,3.11,5.66,0.14,6.32
		c-2.98,0.62-6.05,0.41-9.06,0.41C894.069,698.25,894.069,695.87,894.069,693.5 M811.549,733.24c2.38,1.91,6,3.79,5.6,7.38
		c-0.94,3.82-3.52,7.47-7.06,9.29c-3.18,0.8-5.74-1.81-8.2-3.36C805.109,742.11,808.339,737.68,811.549,733.24 M1093.829,745
		c3.01,2.57,5.99,5.18,9,7.77c-1.87,1.21-3.74,2.43-5.61,3.64C1096.089,752.61,1094.929,748.81,1093.829,745 M954.799,782.63
		c2.77,0.32,8.71-1.5,8.49,3.03c-0.6,3.8-5.63,2.19-8.31,2.75C954.909,786.47,954.849,784.56,954.799,782.63 M995.259,782.51
		c1.67,3.58,3.28,7.2,4.88,10.81c-2.21,0.32-4.41,0.64-6.61,0.96C994.099,790.35,994.679,786.43,995.259,782.51 M955.219,794.41
		c2.63-0.02,5.32-0.42,7.91,0.21c2.14,0.76,2.25,4.42,0.1,5.25c-2.54,0.72-5.22,0.51-7.82,0.68
		C955.339,798.5,955.279,796.45,955.219,794.41L955.219,794.41z"/>
	<path d="M929.679,247.46c54.85-5.49,111.22,4.56,160.57,29.2c59.22,29.25,107.99,79.02,136.02,138.84
		c20,42.31,29.54,89.47,27.8,136.23c-1.36,40.66-11.31,81.02-29.03,117.65c-28.6,59.52-77.82,108.79-137.29,137.49
		c-38.7,18.79-81.58,28.88-124.6,29.38c-44.6,0.67-89.33-8.92-129.66-27.97c-59.62-27.94-109.25-76.47-138.54-135.43
		c-22.12-44.12-32.71-93.91-30.71-143.22c1.56-42.66,12.59-84.95,32.09-122.92c30.49-59.8,82.01-108.53,143.45-135.56
		C868.229,258.54,898.709,250.54,929.679,247.46 M930.719,257.52c-52.52,5.11-103.42,25.34-145.18,57.59
		c-51.64,39.53-89.13,97.17-103.86,160.55c-13.56,57.52-8.83,119.27,13.8,173.91c25.04,61.24,72.23,113.01,130.79,143.78
		c39.24,20.78,83.43,32.08,127.83,32.78c43.76,0.82,87.7-8.56,127.21-27.41c58.26-27.55,106.55-75.5,134.52-133.56
		c17.71-36.52,27.41-76.89,28.24-117.47c1.16-46.42-9.27-93.08-30.21-134.53c-28.43-56.7-76.33-103.34-133.81-130.17
		C1033.799,261.16,981.579,252.44,930.719,257.52 M1113.449,471.13c2.07-8.42,0.95-17.49,3.39-25.85c0.1,9.59-0.74,19.17-0.94,28.76
		c1.98,1.08,2.66,3.69,1.74,5.7c-0.53,2.14-3.97,3.64-1.4,5.72c3.34,4.64,5.42,10.52,3.93,16.23c-0.77,5.17-8.52,6.36-11.49,2.48
		c-2.24-2.61-2.45-6.19-2.97-9.42c-3.13,4.39-7.41,7.69-11.45,11.16c0.3,2.01,1.45,3.86,1.4,5.93c-2.85,1.34-5.86,2.46-8.14,4.73
		c0.22,2,0.33,4,0.39,6.02c3.97,1.09,7.97,2.13,11.95,3.18c-0.35,3.8-1.39,7.47-2.15,11.2c-1.05,0.87-2.09,1.75-3.11,2.66
		c-2.1,0.46-4.22,0.85-6.32,1.22c1.36,2.91,2.99,5.68,4.36,8.59c9.73,1.2,19.09,5.7,25.61,13.1c3.63,4.22,9.77,3.87,14.23,6.69
		c2.74,2.24,3.03,6.1,3.58,9.35c0.84,8.92,1.13,18.03-0.81,26.83c-2.77,1.17-7.32,2.92-8.44-1.15c1.36-2.43,1.84-5.15,0.7-7.75
		c-6.03,1.34-11.23,4.87-15.9,8.76c-2.31,2.05-3.36,5.08-5.4,7.35c-1.73,1.52-3.85,2.49-5.84,3.61c-0.06-0.83-0.18-2.49-0.24-3.32
		c1.68-2.58,2.5-5.54,2.95-8.55c-8.06,3.28-17.61,6.16-22,14.37c-0.64-0.14-1.91-0.4-2.55-0.54c0.75,1.59,1.53,3.16,2.33,4.73
		c-2.29,1.45-4.66,2.76-7.1,3.95c-0.07-1.14-0.13-2.27-0.18-3.4c1.79-2.99,1.59-6.56,2.46-9.83c5.56-4.63,12.03-8.32,16.77-13.87
		c-2.78-7.34-8.7-12.92-11.79-20.1c-3.34-0.16-6.67,0.2-10,0.13c0.04,2.23,2.5,5.98-0.62,7.05c-3.38,1.25-6.65,3.11-10.27,3.52
		c-2.6-0.06-3.61-2.79-4.77-4.63c1.13,0.19,3.38,0.56,4.51,0.75c-0.38-2.96-0.91-5.88-1.42-8.81c-4.6-1.25-8.37-4.58-13.14-5.26
		c-5.47-1.4-11.31-0.91-16.57-3.16c-3.74-1.38-8.31-3.7-11.97-0.87c-2.14,3.53-1.65,7.99-0.69,11.83c1.54,0.5,3.4,0.53,4.64,1.72
		c0.63,3.62,0.23,7.45-1.39,10.77c-3.49-4-5.92-8.75-8.64-13.27c-0.41-4.57,0.41-9.24,0.43-13.85c-0.19-2.74,2.34-5.12,5-5.21
		c5.82-0.35,11.64-0.94,17.35-2.19c-1.17-2.04-2.64-3.91-3.64-6.04c-0.01-1.52,0.35-3,0.44-4.5c-2.46-2.6-5.59-4.74-9.04-5.71
		c-4.59-0.21-9.11,1.13-13.42,2.57c-1.62,0.48-2.34,2.13-3.35,3.31c-0.89,0.22-1.77,0.44-2.64,0.67c1.36,1.84,3.57,3.5,3.48,6.02
		c-1.63,2.8-4.09,4.96-6.32,7.25c-1.16-6.64-0.47-13.4,0.54-20c3.7-1.74,7.86-2.21,11.54-4.01c3.06-1.23,5.72-3.51,9.04-4.03
		c3.14-0.03,5.65,2.36,8.71,2.8c2.34-2.4,3.3-5.71,4.27-8.82c-2.06,1.58-3.94,3.37-5.8,5.18c-1.84-0.18-3.68-0.36-5.52-0.51
		c-0.04-2.23-0.33-4.52,0.32-6.69c4.04-3.41,10.2-5.83,10.27-12.05c1.5-0.04,3.01-0.07,4.52-0.1c-1.02-2.06-2.09-4.1-3.05-6.18
		c2.11,1.39,4,3.13,6.21,4.38c4,0.52,8.03,0.87,12.01,1.61c1.2-0.05,1.59,1.11,2.11,1.97c1.5,2.89,3.17,5.68,4.96,8.41
		c2.35,3.46,2.79,8.11,6.22,10.85c-0.11-4.09-1.71-7.95-1.88-12.02c0.09-4.18,3.32-7.28,5.51-10.55c-1.02-1.05-2.04-2.09-3.06-3.11
		c-2.33-0.78-4.13-2.46-5.9-4.07c-0.54-4.15,0.36-8.3,2.64-11.8c2.19-1.86,4.99,0.48,7.4,0.81c2.42,3.33,5.92,7.09,4.73,11.54
		c1.11,0.5,2.22,1.01,3.35,1.52c5.52-6.08,14.45-7.39,19.68-13.79c3.4-4.17,8.29-7,10.81-11.9
		C1110.549,478,1111.229,474.21,1113.449,471.13 M1119.629,580.46c1.92,3.52,3.63,7.22,6.35,10.22c-0.02-4.93-2.71-9.24-3.95-13.89
		C1121.209,578,1120.409,579.22,1119.629,580.46 M1059.979,587.09c0.86-1.07,1.73-2.14,2.61-3.18c0.09-0.57,0.25-1.7,0.33-2.27
		c-1.14-1.36-2.3-2.74-3.47-4.06C1060.099,580.76,1061.279,583.84,1059.979,587.09 M1103.019,590.68c-0.76,4.05,0.08,8.3,1.74,12.04
		c2.52-2.31,5.33-4.27,7.98-6.42c1.21-1.12,2.52-2.8,2.08-4.54c-1.64-2.26-3.74-4.14-5.6-6.2
		C1107.089,587.17,1104.559,588.43,1103.019,590.68 M706.169,627.43c10.31-3.9,20.57-7.92,30.89-11.81
		c2.43,7.04,5.93,13.78,7.4,21.12c1.46,6.85-7.94,12.24-12.99,7.28c0.5,7.4-9.92,11-14.9,6.29c-2.41-2.14-3.59-5.23-4.78-8.14
		C709.889,637.27,707.979,632.37,706.169,627.43 M728.379,630.03c1.12,2.37,1.59,5.29,3.72,7.05c1.38-0.07,3.12-0.37,3.71-1.81
		c0.04-2.61-1.25-4.99-2.1-7.38C731.929,628.59,730.149,629.3,728.379,630.03 M717.109,634.27c1.05,2.76,1.69,5.95,4,7.99
		c1.72,0.2,3.92-0.48,4.09-2.5c-0.29-2.69-1.51-5.13-2.45-7.63C720.869,632.84,718.989,633.56,717.109,634.27 M1180.329,617.45
		c10.5,3.4,20.98,6.84,31.49,10.21c-1.1,3.45-2.23,6.89-3.36,10.34c-10.47-3.45-20.97-6.84-31.46-10.24
		C1178.099,624.31,1179.219,620.88,1180.329,617.45 M1160.599,638.36c0.34-0.62,1.02-1.86,1.36-2.48c1.64,1.56,3.82,3.18,3.8,5.71
		c-0.12,2.87-1.6,5.85-4.11,7.35c-2.06,1.14-4.4,0.33-6.5-0.14c0.51-3.41,4.57-1.7,5.78-4.33
		C1162.349,642.59,1162.329,640.05,1160.599,638.36 M1171.949,640.46c3.57-3.22,8.7-3.34,13.1-2.06c-1.39,2.97-2.91,5.88-4.35,8.82
		c-4.03-0.32-7.96,3.22-6.74,7.39c1.88,4.39,6.85,6.68,11.28,7.6c5.53,0.84,8.8-6.79,5.21-10.67c-0.81,1.46-1.58,2.95-2.34,4.44
		c-2.1-1.08-4.2-2.15-6.29-3.23c2.19-4.3,4.43-8.58,6.54-12.92c5.45,2.65,10.81,5.48,16.22,8.2c-1.02,2.01-1.95,4.07-3.15,5.97
		c-0.64-0.13-1.92-0.39-2.56-0.52c1.44,5.66-1.02,11.69-5.15,15.6c-3.93,3.57-9.8,4.12-14.68,2.46
		c-5.39-1.77-10.77-5.09-13.11-10.48C1163.049,653.85,1166.399,645.41,1171.949,640.46 M722.039,663.66
		c9.65-5.35,19.3-10.72,28.96-16.05c4.26,7.73,8.57,15.43,12.83,23.16c-2.32,1.29-4.64,2.57-6.97,3.82
		c-2.53-4.63-5.1-9.23-7.65-13.84c-1.29,0.7-2.57,1.42-3.85,2.13c2.15,3.92,4.33,7.82,6.49,11.74c-2.22,1.22-4.44,2.45-6.66,3.67
		c-2.14-3.91-4.31-7.8-6.45-11.7c-1.51,0.81-3.02,1.63-4.52,2.47c2.66,4.82,5.37,9.61,7.98,14.46c-2.35,1.28-4.69,2.58-7.03,3.88
		C730.819,679.47,726.399,671.58,722.039,663.66 M1150.189,677c1.86-3.11,3.8-6.16,5.73-9.22c9.35,5.84,18.72,11.68,28.07,17.55
		c-1.92,3.05-3.83,6.12-5.74,9.18C1168.899,688.66,1159.559,682.81,1150.189,677 M881.819,671.08c7.31,0.02,14.62-0.12,21.93,0.11
		c3.84,0.16,8.2,1.05,10.48,4.48c2.95,4.35,1.67,10.73-2.9,13.43c7.83,2.66,7.59,14.84,0.75,18.48c-3.27,1.91-7.18,1.93-10.86,2.03
		c-6.46,0.06-12.93,0.01-19.39,0.02C881.809,696.78,881.829,683.93,881.819,671.08 M894.069,679.8c0,2.21,0,4.44,0.01,6.67
		c2.68-0.04,5.4,0.16,8.06-0.35c2.62-0.67,2.64-5.38-0.07-5.91C899.429,679.72,896.739,679.84,894.069,679.8 M894.069,693.5
		c0,2.37,0,4.75,0.01,7.14c3.01,0,6.08,0.21,9.06-0.41c2.97-0.66,2.91-5.84-0.14-6.32C900.059,693.28,897.039,693.54,894.069,693.5
		 M933.629,671.43c7.59-2.44,16.97-1.89,23.03,3.77c5.96,5.59,6.91,14.75,4.88,22.3c-1.69,6.3-7.13,11.29-13.5,12.59
		c-7.06,1.47-15.3,0.59-20.69-4.64c-5.57-5.25-6.64-13.71-5.1-20.89C923.439,678.6,927.879,673.42,933.629,671.43 M938.649,680.41
		c-5.13,2.79-4.54,9.82-3.81,14.74c0.61,5.59,7.99,7.6,12.05,4.33c2.23-1.94,2.63-5.09,2.8-7.85c0.05-3.24-0.02-6.81-2.02-9.52
		C945.569,679.47,941.599,679.33,938.649,680.41 M968.279,671.06c4.2,0.01,8.41,0.01,12.61,0c0,9.45,0,18.89,0,28.34
		c5.72,0.01,11.45-0.02,17.18,0.02c-0.01,3.4-0.01,6.81-0.01,10.22c-9.93-0.01-19.85-0.02-29.78,0.03
		C968.279,696.8,968.279,683.93,968.279,671.06 M1002.199,671.06c4.2,0.01,8.41,0.01,12.61,0.01c0.1,8.52-0.23,17.07,0.16,25.59
		c0.24,4.48,5.92,5.02,9.23,3.74c2.32-0.82,2.64-3.63,2.65-5.74c0.03-7.86-0.01-15.72,0-23.57c4.22-0.03,8.44-0.03,12.66-0.01
		c-0.05,8.52,0.07,17.05-0.05,25.57c-0.06,3.94-1.69,7.97-4.9,10.37c-4.09,3.13-9.45,3.74-14.43,3.7
		c-5.06-0.14-10.55-1.13-14.25-4.86c-2.7-2.63-3.73-6.51-3.68-10.18C1002.169,687.47,1002.199,679.26,1002.199,671.06
		 M740.659,695.19c8.68-6.83,17.39-13.62,26.11-20.4c2.16,2.8,4.38,5.57,6.5,8.41c-6.39,4.98-12.82,9.91-19.13,15
		c3,3.74,5.92,7.54,8.89,11.31c-2.31,1.81-4.62,3.61-6.92,5.42C750.959,708.35,745.819,701.76,740.659,695.19 M1131.139,699.84
		c2.29-2.69,4.54-5.41,6.83-8.1c6.2,5.21,12.43,10.37,18.59,15.63c3.16-3.66,6.21-7.41,9.37-11.08c2.22,1.89,4.45,3.77,6.7,5.64
		c-5.34,6.41-10.76,12.76-16.06,19.21C1148.029,714.12,1139.579,706.98,1131.139,699.84 M762.079,721.98
		c7.7-7.88,15.33-15.83,22.99-23.75c6.35,6.13,12.7,12.25,19.05,18.39c-1.84,1.91-3.68,3.81-5.55,5.7
		c-3.75-3.71-7.58-7.34-11.37-11.01c-1.02,1.06-2.04,2.12-3.05,3.19c3.21,3.09,6.41,6.2,9.64,9.29c-1.76,1.83-3.53,3.65-5.31,5.47
		c-3.18-3.13-6.4-6.21-9.61-9.31c-1.19,1.22-2.38,2.45-3.57,3.69c3.94,3.85,7.97,7.61,11.86,11.52c-1.87,1.91-3.74,3.83-5.65,5.7
		C775.079,734.52,768.489,728.34,762.079,721.98 M1120.179,711.61c1.55-2.88,4.83-4.73,7.22-7.03c7.31,8.24,14.74,16.38,22.07,24.59
		c-2.52,2.24-5.03,4.48-7.51,6.76c-7.18-2.42-14.79-3.75-21.59-7.18c4.8,4.5,8.88,9.69,13.41,14.45c-2.45,2.32-4.97,4.57-7.52,6.79
		c-7.36-8.2-14.74-16.39-22.11-24.57c2.5-2.29,5-4.58,7.6-6.77c7.03,2.42,14.38,3.91,21.19,6.97
		C1128.469,721.15,1124.249,716.43,1120.179,711.61 M788.389,747.03c6.5-8.92,12.98-17.87,19.49-26.79
		c5.38,4.15,11.27,7.69,16.19,12.4c4.74,4.66,4.08,12.36,0.54,17.52c-3.49,6.17-10.7,11.35-18.03,8.84
		C799.819,756.21,794.399,751.09,788.389,747.03 M811.549,733.24c-3.21,4.44-6.44,8.87-9.66,13.31c2.46,1.55,5.02,4.16,8.2,3.36
		c3.54-1.82,6.12-5.47,7.06-9.29C817.549,737.03,813.929,735.15,811.549,733.24 M1083.649,739.26c3.01-1.98,6.03-3.94,9.07-5.88
		c9.18,7.22,18.59,14.15,27.68,21.5c-2.94,1.89-5.86,3.8-8.81,5.66c-1.13-1.02-2.24-2-3.36-3c-2.96,1.92-5.91,3.83-8.86,5.76
		c0.44,1.45,0.88,2.9,1.33,4.37c-2.93,1.88-5.85,3.79-8.78,5.68C1089.169,761.99,1086.419,750.62,1083.649,739.26 M1093.829,745
		c1.1,3.81,2.26,7.61,3.39,11.41c1.87-1.21,3.74-2.43,5.61-3.64C1099.819,750.18,1096.839,747.57,1093.829,745 M842.739,739.55
		c1.05-1.84,2.1-3.66,3.16-5.48c1.68,0.99,3.37,1.98,5.05,2.99c-1.06,1.78-2.1,3.58-3.14,5.39
		C846.109,741.48,844.419,740.51,842.739,739.55 M838.559,741.67c3.12,1.77,6.22,3.59,9.36,5.34c-5.41,9.64-11.02,19.16-16.52,28.74
		c-3.13-1.8-6.24-3.6-9.36-5.39C827.479,760.76,833.079,751.25,838.559,741.67 M1062.639,750.98c3.72-1.75,7.45-3.48,11.19-5.21
		c-1.84,5.35-3.72,10.69-5.54,16.05c6.97,4.42,13.93,8.86,20.9,13.29c-3.82,1.81-7.65,3.62-11.51,5.35
		c-4.29-2.89-8.6-5.72-12.89-8.59c-0.43,1.2-0.84,2.41-1.25,3.62c1.51,3.16,2.98,6.34,4.46,9.52c-3.18,1.48-6.36,2.96-9.53,4.46
		c-4.71-9.99-9.35-20.01-14.01-30.02c3.18-1.49,6.36-2.98,9.56-4.43c1.51,3.3,3.05,6.59,4.63,9.87
		C1059.999,760.26,1061.309,755.62,1062.639,750.98 M852.109,749.12c3.54,1.66,7.09,3.3,10.63,4.95c0.13,4.21,0.26,8.42,0.4,12.64
		c3.35-2.57,6.67-5.18,9.99-7.78c3.45,1.6,6.93,3.12,10.28,4.93c-6.41,4.65-13.05,9-19.32,13.83c-2.09,3.5-3.49,7.38-5.31,11.04
		c-3.23-1.45-6.43-2.97-9.64-4.46c1.62-4.87,5.89-9.25,4.85-14.65C853.349,762.78,852.659,755.96,852.109,749.12 M877.139,794.96
		c3.12-10.6,6.42-21.14,9.65-31.7c8.42,2.6,16.86,5.15,25.29,7.74c-0.75,2.53-1.52,5.05-2.29,7.58c-5.05-1.52-10.1-3.06-15.13-4.64
		c-0.45,1.39-0.9,2.79-1.35,4.2c4.26,1.35,8.55,2.64,12.83,3.94c-0.72,2.44-1.47,4.87-2.28,7.29c-4.24-1.37-8.51-2.63-12.76-3.93
		c-0.49,1.64-0.99,3.27-1.47,4.93c5.27,1.57,10.53,3.17,15.78,4.84c-0.81,2.54-1.6,5.09-2.36,7.66
		C894.409,800.23,885.779,797.57,877.139,794.96 M1016.259,770.84c3.25-4.74,9.26-6.73,14.76-7.15c4.82-0.59,9.18,2.43,11.22,6.66
		c-3.09,1.02-6.22,1.94-9.32,2.92c-2.16-2.62-7.59-2.2-8.14,1.47c0.3,0.31,0.9,0.92,1.19,1.23c5.13,1.2,10.61-0.87,15.66,1
		c5.74,2.14,7.5,10.33,3.89,15.03c-2.08,3.04-5.64,4.34-8.73,6.07c2.2,0.25,5.08-0.77,6.64,1.36c1.32,1.8,1.37,4.6-0.41,6.13
		c-2.63,2.18-6.26,2.16-9.47,2.56c-0.32-1-0.62-1.99-0.92-2.97c2.52-0.68,8.3,0.41,7.4-3.65c-1.38-0.1-2.76-0.03-4.13,0.2
		c-0.35-1.13-0.69-2.24-1.02-3.34c-6.25,1.94-13.95-0.3-16.4-6.81c3.22-1,6.44-2,9.69-2.94c2.38,3.12,7.61,2.34,9.36-1.02
		c-0.32-1.28-1.12-1.99-2.4-2.13c-4.66-0.5-9.41,0.64-14-0.49C1015.519,783.25,1012.999,775.64,1016.259,770.84 M988.499,772.98
		c3.54-0.53,7.1-1,10.66-1.51c5.37,10.4,10.78,20.77,16.13,31.19c-3.48,0.47-6.96,0.95-10.43,1.46c-0.61-1.39-1.22-2.79-1.81-4.17
		c-3.48,0.46-6.94,0.98-10.41,1.43c-0.27,1.52-0.53,3.05-0.79,4.58c-3.43,0.44-6.86,0.95-10.28,1.43
		C983.879,795.92,986.179,784.45,988.499,772.98 M995.259,782.51c-0.58,3.92-1.16,7.84-1.73,11.77c2.2-0.32,4.4-0.64,6.61-0.96
		C998.539,789.71,996.929,786.09,995.259,782.51 M944.229,775.54c6.29-0.16,12.58-0.58,18.88-0.5c3.21,0.01,6.88,0.86,8.69,3.79
		c2.33,3.61,1.46,8.8-2.14,11.27c6.6,2.32,6.75,12.57,1.02,15.93c-2.52,1.57-5.56,1.81-8.45,1.99c-5.61,0.27-11.24,0.39-16.85,0.6
		C944.969,797.6,944.589,786.57,944.229,775.54 M954.799,782.63c0.05,1.93,0.11,3.84,0.18,5.78c2.68-0.56,7.71,1.05,8.31-2.75
		C963.509,781.13,957.569,782.95,954.799,782.63 M955.219,794.41c0.06,2.04,0.12,4.09,0.19,6.14c2.6-0.17,5.28,0.04,7.82-0.68
		c2.15-0.83,2.04-4.49-0.1-5.25C960.539,793.99,957.849,794.39,955.219,794.41L955.219,794.41z"/>
	<path style="fill:#19BF00;" d="M875.049,292.21c59.16-19.97,125.41-18,183.24,5.57c58.08,23.36,107.1,68.18,135.7,123.85
		c29.87,57.37,37.31,125.93,20.58,188.39c-3.4-1.01-6.93-1.55-10.29-2.68l-0.21-0.64c11.48-42.31,11.21-87.67,0.03-130.02
		c-15.49-59.12-53.45-111.87-104.33-145.69c-34.07-22.81-73.76-37.13-114.56-41.24c-40.63-4.17-82.27,1.49-120.18,16.73
		c-56.97,22.63-104.97,66.75-132.38,121.56c-27.85,54.81-34.25,119.85-18.47,179.19c-3.46,1.15-6.89,2.41-10.39,3.47
		c-8.1-30.87-10.7-63.19-7.43-94.96c3.88-38.82,16.6-76.72,36.9-110.04C765.249,352.79,816.369,311.76,875.049,292.21
		 M847.799,322.25c35.82-18.26,76.18-27.42,116.36-26.52c44.46,0.76,88.59,14,126.16,37.79c51.45,32.29,90.24,84.21,106.19,142.87
		c11.63,42.04,11.69,87.13,0.49,129.27c-3.1-0.81-6.2-1.56-9.31-2.29c10.69-40.9,10.49-84.64-1.13-125.32
		c-10.47-36.99-30.23-71.27-56.87-98.97c-24.12-25.19-53.88-44.95-86.48-57.34c-50.26-19.22-107.13-20.49-158.19-3.52
		c-35.14,11.56-67.42,31.61-93.47,57.86c-25.19,25.28-44.57,56.33-56.09,90.12c-14.9,43.36-16.61,91.04-5.27,135.44
		c-3.04,1.04-6.08,2.08-9.09,3.21c-13.46-50.84-10.17-106,9.56-154.78C752.579,395.18,795.049,348.89,847.799,322.25
		 M955.739,339.54c1.08-2,2.21-3.96,3.35-5.91c1.31,2.31,2.58,4.62,3.83,6.97c-0.86-0.51-2.57-1.53-3.43-2.04
		c0.1,2.66,0.01,5.37,0.69,7.97c-0.26,0.2-0.8,0.59-1.07,0.78l1.74,0.69c-0.41,0.36-1.21,1.07-1.61,1.43l1.65,1.02l-1.68,1.38
		c0.51,0.31,1.55,0.91,2.07,1.22c-0.67,0.36-1.33,0.73-1.99,1.09c1.73,1.13,2.04,2.27-0.06,3.19c5.45,3.52,11.69,5.37,17.56,8
		c1.82,2.05,2.86,4.67,4.26,7.01c-7.32-4.15-14.64-8.29-21.97-12.43c-7.32,4.1-14.64,8.2-21.93,12.35c1.19-2.36,2.35-4.75,3.84-6.95
		c5.53-2.34,11.57-3.79,16.52-7.31c0.76-6.25,0.9-12.58,1.13-18.86C957.919,339.24,956.469,339.44,955.739,339.54 M963.509,347.55
		C966.429,346.02,963.559,350.92,963.509,347.55 M943.539,361.09c2.68-0.77,5.36-1.6,8.07-2.3c-3,1.57-6.16,2.76-9.24,4.14
		c0.54-1,1.1-2,1.66-2.99L943.539,361.09 M958.799,371.32c0.08-0.21,0.24-0.64,0.32-0.85c0.3,1.44,0.89,2.75,1.77,3.93
		c-0.6,0.8-1.2,1.6-1.79,2.4c0.58,0.42,1.74,1.27,2.32,1.69c-0.74,0.96-1.48,1.92-2.21,2.88c0.49,0.45,1.47,1.35,1.96,1.8
		c-0.56,1.05-1.27,2.01-1.94,3c-0.74-0.86-1.48-1.71-2.22-2.56c0.58-0.76,1.17-1.52,1.76-2.28c-0.53-0.88-1.06-1.77-1.57-2.64
		c0.35-0.51,1.04-1.53,1.39-2.05c-0.26-0.55-0.77-1.67-1.03-2.23C958.009,373.39,958.359,372.34,958.799,371.32 M928.709,388.53
		c5.25-3.22,10.7-6.08,15.97-9.26c0.57,0.19,1.7,0.59,2.27,0.79C940.499,382.1,935.229,386.73,928.709,388.53 M964.109,380.74
		c9.86,3.82,19.54,8.1,28.96,12.93c0.56,0.94,1.14,1.88,1.72,2.83c-4.16-2.39-8.44-4.56-12.67-6.84
		C976.269,386.38,969.649,384.61,964.109,380.74 M925.179,393.19c8.62-3.19,16.49-8.25,25.42-10.65
		c-4.78,3.02-10.25,4.66-15.17,7.41c-4.08,2.25-8.3,4.25-12.22,6.75c0.62-1.17,1.25-2.32,1.89-3.48L925.179,393.19 M964.949,385.7
		c10.18,3.97,20.3,8.16,30,13.21c1.51,0.63,2.29,2.13,3.2,3.39c-5.35-2.97-10.83-5.69-16.26-8.51
		C976.329,390.9,970.109,389.35,964.949,385.7 M956.959,387.74c0.53-0.36,1.58-1.09,2.1-1.45c0.64,0.38,1.92,1.16,2.56,1.55
		c-0.85,1.03-1.68,2.06-2.52,3.09c0.64,0.43,1.92,1.29,2.56,1.72c-0.86,1.02-1.72,2.04-2.57,3.07c0.67,0.42,2.02,1.25,2.69,1.67
		c-0.89,1.04-1.78,2.08-2.67,3.13c0.94,0.59,1.88,1.18,2.83,1.79c-0.77,0.72-1.49,1.51-2.29,2.16l-1.04,0.03
		c-0.51-0.45-1.52-1.35-2.03-1.8c0.72-0.86,1.47-1.7,2.21-2.54c-0.65-0.84-1.3-1.67-1.95-2.5c0.46-0.53,1.38-1.59,1.84-2.11
		c-0.58-0.96-1.16-1.92-1.72-2.87c0.44-0.39,1.33-1.18,1.77-1.58C958.139,389.98,957.539,388.86,956.959,387.74 M921.819,399.18
		c9.39-3.6,18.06-9.03,27.84-11.62c-4.87,2.86-10.33,4.49-15.29,7.19c-4.69,2.51-9.53,4.77-14.15,7.42
		c0.43-0.96,0.87-1.92,1.31-2.87L921.819,399.18 M964.169,389.84c11.62,4.86,23.56,9.09,34.62,15.18c1.32,0.65,1.83,2.13,2.6,3.29
		c-6.65-3.81-13.56-7.14-20.42-10.54C975.309,395.24,969.279,393.45,964.169,389.84 M918.389,405.24
		c10.56-4.84,20.98-10.23,32.18-13.48c-3.53,2.08-7.37,3.52-11.16,5.05c-7.71,3.34-15.01,7.56-22.6,11.16
		C917.309,407.05,917.789,406.11,918.389,405.24 M965.049,395.01c12.29,4.67,24.67,9.28,36.28,15.51c1.8,0.73,2.73,2.46,3.75,4
		c-7.43-4.43-15.31-8.03-23.08-11.81C976.349,400.15,970.239,398.51,965.049,395.01 M915.099,411.22
		c11.5-5.38,22.91-11.38,35.27-14.54c-2.29,1.15-4.64,2.19-7.03,3.11c-10.34,3.83-19.93,9.33-29.81,14.13
		c0.31-0.64,0.94-1.92,1.26-2.56L915.099,411.22 M965.159,399.79c13.35,4.91,26.82,9.73,39.33,16.57c1.81,0.76,2.86,2.43,3.85,4.04
		c-8.33-5.09-17.28-9-26.1-13.14C976.509,404.86,970.439,403.17,965.159,399.79 M911.719,417.09c12.29-5.77,24.54-12.02,37.74-15.46
		c-5.04,2.7-10.6,4.19-15.76,6.63c-7.99,3.78-16.08,7.4-23.69,11.94c0.49-1.01,0.98-2.01,1.48-3L911.719,417.09 M965.879,404.77
		c14.19,5.11,28.56,10.04,41.82,17.33c1.77,0.73,2.86,2.29,3.71,3.93c-9.12-5.44-18.86-9.69-28.53-14.03
		C977.179,409.66,971.099,408.14,965.879,404.77 M956.269,406.67c0.87-0.28,1.74-0.54,2.62-0.78c1.15-0.18,2.08,0.62,3.08,1.03
		c-0.96,1.04-1.92,2.08-2.88,3.13c0.72,0.43,2.16,1.29,2.88,1.72c-0.96,1.04-1.92,2.08-2.87,3.13c4.13,2.43,8.36,4.75,12.96,6.18
		c11.53,3.69,22.96,7.74,34.04,12.65c4.83,2.31,9.81,4.56,13.99,7.96c3.96,6.33,7.46,12.96,11.08,19.49
		c-24.01-13.67-48.07-27.27-72.1-40.92c-24.06,13.58-48.05,27.3-72.18,40.76c3.54-6.61,7.4-13.04,10.97-19.63l0.26-0.16
		c15.19-9.43,32.33-14.92,49.17-20.55c4.12-1.4,7.94-3.51,11.65-5.74c-0.85-1.03-1.69-2.05-2.54-3.07c0.82-0.62,1.65-1.24,2.49-1.85
		C958.009,408.9,957.139,407.78,956.269,406.67 M908.429,422.87c13-6.22,26.12-12.6,40.13-16.25c-5.52,2.87-11.61,4.38-17.19,7.11
		c-8.48,4.02-17.33,7.47-25.05,12.89c0.62-1.19,1.21-2.38,1.84-3.55L908.429,422.87 M966.009,409.69
		c15.12,4.96,30.28,10.22,44.31,17.81c2.26,0.99,3.74,2.97,4.95,5.04c-9.8-6.43-20.69-10.83-31.34-15.58
		C977.939,414.57,971.669,412.84,966.009,409.69 M904.889,428.99c14.17-7.56,29.15-13.69,44.59-18.13
		c-5.24,2.84-11.07,4.26-16.5,6.64c-10.14,4.5-20.45,8.76-29.8,14.82c0.5-1.08,1-2.16,1.5-3.23L904.889,428.99 M965.289,413.91
		c16.72,6.09,34.05,11.1,49.46,20.23c1.78,0.84,2.71,2.58,3.61,4.25c-10.67-7.09-22.62-11.79-34.32-16.84
		C977.709,419.2,971.149,417.35,965.289,413.91 M928.919,422.44c6.72-2.42,13.33-5.29,20.38-6.62c-7.51,3.35-15.54,5.4-22.93,9.05
		c-9.18,3.71-17.96,8.24-26.53,13.16c0.53-1,1.04-2.02,1.69-2.95C910.239,430.01,919.479,425.93,928.919,422.44 M957.249,432.3
		c1.4-0.58,2.78-0.31,4.05,0.44c-0.53,0.36-1.6,1.09-2.13,1.45c1.45,0.91,2.9,1.84,4.36,2.77c-1.46,0.84-2.93,1.66-4.39,2.49
		c1.51,0.99,3.02,2,4.53,3.01c-1.5,0.76-3.01,1.53-4.51,2.29c1.32,1.09,3.3,1.67,4.01,3.36c-1.32,0.74-2.67,1.39-4.02,2.07
		c1.55,1.03,3.1,2.07,4.65,3.11c-1.56,0.75-3.12,1.51-4.68,2.27c1.59,1.03,3.18,2.07,4.76,3.12c-1.59,0.75-3.16,1.5-4.74,2.25
		c1.61,1.05,3.23,2.1,4.85,3.16c-1.63,0.76-3.25,1.53-4.86,2.31c1.65,0.98,3.32,1.96,4.98,2.93c-1.65,0.83-3.32,1.63-4.97,2.44
		c1.71,1.01,3.42,2.03,5.15,3.04c-1.72,0.76-3.44,1.51-5.15,2.27c14.17,9.19,30.54,13.81,45.91,20.46
		c-1.74,2.06-3.44,4.14-5.11,6.26c-13.63-7.74-27.23-15.53-40.84-23.29c-40.97,23.3-81.86,46.76-122.85,70.02
		c3.73-6.48,7.22-13.11,11.11-19.49c20.76-15.27,44.89-24.75,68.49-34.62c14.46-6.16,29.89-10.49,43.03-19.4
		c-1.55-0.67-3.08-1.32-4.62-1.97c1.34-1.03,2.68-2.05,3.96-3.14c-1.23-0.97-2.55-1.82-3.85-2.68c1.48-0.92,2.95-1.85,4.42-2.77
		c-1.48-0.79-2.96-1.57-4.44-2.35c1.47-1.06,2.93-2.12,4.41-3.17c-1.33-0.77-2.65-1.52-3.96-2.28c1.28-1.04,2.56-2.07,3.85-3.1
		c-1.24-0.75-2.48-1.48-3.72-2.22c1.24-1.09,2.48-2.18,3.72-3.26c-1.28-0.77-2.55-1.53-3.82-2.3c1.3-1,2.6-2,3.91-3
		c-1.29-0.78-2.58-1.56-3.86-2.34c1.25-0.97,2.51-1.93,3.77-2.89c-1.22-0.89-2.43-1.77-3.63-2.64c1.08-0.81,2.17-1.61,3.27-2.4
		C958.029,433.95,957.509,432.85,957.249,432.3 M923.269,452.22c6.09-0.95,11.09-4.83,16.91-6.6c-6.3,3.56-13.06,6.19-19.55,9.36
		c-15.37,8.75-31.17,16.83-45.64,27.07c0.96-2,2.05-4.1,4.19-5.04C893.879,468.76,908.359,460.04,923.269,452.22 M974.139,448.78
		c17.6,7.61,34.83,16.07,51.72,25.14c2.04,1.08,4.12,2.19,5.7,3.93c-1.45-0.27-2.83-0.74-4.08-1.49
		c-8.3-4.81-16.81-9.25-25.26-13.77C993.079,457.53,983.229,453.93,974.139,448.78 M923.039,458.64c4.21-2.39,8.56-4.62,13.22-5.99
		C931.979,454.91,927.639,457.12,923.039,458.64 M975.199,459.79c14.47,5.73,28.51,12.49,42.53,19.21c2.06,1,4.22,1.94,5.84,3.63
		c-5.53-1.38-10.18-4.93-15.35-7.21C997.519,469.57,986.019,465.39,975.199,459.79 M911.279,464.04c2.6-1.35,5.29-2.52,8.04-3.51
		c-16.22,9.26-33.19,17.33-48.26,28.48c0.68-1.24,1.22-2.58,2.18-3.64c2.21-1.26,4.46-2.49,6.59-3.9
		C889.809,474.79,900.649,469.56,911.279,464.04 M908.619,475.09c10.05-4.62,19.92-9.78,30.43-13.33
		c-7.78,3.96-16.05,6.83-23.76,10.93c-17.83,9.2-36.19,17.8-52.11,30.17c0.69-1.23,1.28-2.54,2.18-3.64
		C878.969,489.8,893.629,482.08,908.619,475.09 M911.939,468.56c2.35-1.16,4.8-2.09,7.3-2.88c-17.71,9.43-35.96,18.13-52.09,30.21
		c0.67-1.22,1.24-2.52,2.14-3.59c5.34-3.06,10.3-6.71,15.66-9.73C893.759,477.56,902.859,473.07,911.939,468.56 M890.879,488.48
		c8.46-4.07,16.76-8.54,25.59-11.76c-16.19,8.88-33.4,16.06-48.61,26.68c-2.37,1.7-4.85,3.26-7.52,4.45
		c0.28-0.42,0.83-1.27,1.11-1.69C870.789,499.52,880.559,493.48,890.879,488.48 M918.019,485.51c5.04-2.05,9.98-4.46,15.28-5.81
		C928.359,481.99,923.389,484.44,918.019,485.51 M898.189,489.62c6.01-2.71,11.86-5.86,18.17-7.87
		c-20.38,10.46-41.75,19.46-60.06,33.48c0.47-0.95,0.95-1.89,1.43-2.82l0.28-0.16c4.12-2.32,7.84-5.27,11.86-7.77
		C878.929,498.84,888.519,494.11,898.189,489.62 M918.029,490.48c6.68-2.63,13.27-5.54,20.11-7.75
		C931.579,485.62,925.059,488.91,918.029,490.48 M891.049,497.6c8.37-3.78,16.61-7.92,25.27-11.01
		c-7.43,4.17-15.35,7.38-22.94,11.24c-14.25,6.78-28.16,14.39-40.82,23.85c0.48-0.93,1.01-1.84,1.6-2.7
		C865.589,510.46,878.089,503.51,891.049,497.6 M904.599,496.24c3.14-1.43,6.37-2.67,9.69-3.64
		c-22.22,10.76-45.51,20.05-65.21,35.27c0.67-1.19,1.21-2.47,2.12-3.49c3.74-2.06,7.25-4.47,10.78-6.86
		C875.389,508.93,890.109,502.74,904.599,496.24 M956.609,493.3c0.62-0.32,1.85-0.96,2.47-1.28c1.22,0.63,2.47,1.27,3.73,1.86
		c-1.29,0.28-2.58,0.59-3.84,0.95c2.04,1.5,4.17,2.89,6.32,4.26c-2.04,1.04-4.09,2.06-6.15,3.08c2.09,1.35,4.18,2.7,6.23,4.12
		c-2.08,1-4.15,2.01-6.2,3.05c2.13,1.32,4.27,2.66,6.36,4.07c-2.12,1-4.24,1.98-6.35,2.97c2.17,1.41,4.39,2.77,6.62,4.11
		c-2.22,1-4.44,2.01-6.64,3.04c1.98,1.2,4.03,2.32,5.95,3.65c-0.9,2.13-4.09,2.07-5.75,3.59c2.18,1.39,4.45,2.62,6.67,3.96
		c-2.3,1.01-4.59,2.04-6.83,3.15c7.37,4.14,14.78,8.27,22.59,11.53c-0.07,1.43-0.15,2.87-0.21,4.32
		c-7.6-4.05-14.98-8.47-22.49-12.67c-57.68,32.77-115.35,65.56-173.02,98.34c4.41-7.81,8.7-15.7,13.27-23.41
		c14.27-11.72,30.08-21.44,46.77-29.3c25.43-11.83,51.42-22.45,77.66-32.35c12.13-4.33,24.01-9.59,34.88-16.55
		c-2.07-1.04-4.14-2.06-6.21-3.07c2.06-1.35,4.13-2.69,6.2-4.01c-1.94-0.99-3.97-1.91-5.57-3.41c1.78-1.37,3.72-2.51,5.64-3.68
		c-1.98-1.1-3.95-2.21-5.91-3.34c1.99-1.26,3.98-2.52,5.97-3.77c-1.96-1.05-3.93-2.1-5.89-3.15c1.96-1.34,3.92-2.66,5.89-3.97
		c-1.91-1.09-3.82-2.17-5.73-3.25c1.93-1.36,3.85-2.71,5.77-4.07c-1.95-0.97-3.88-1.94-5.82-2.9c1.87-1.27,3.75-2.53,5.64-3.78
		C958.129,494.87,957.119,493.82,956.609,493.3 M915.889,516.68c5.23-1.72,10.12-4.3,15.33-6.07c-7.06,4.03-14.63,7.12-22.24,9.95
		C911.159,519.07,913.429,517.66,915.889,516.68 M911.969,525.47c6.39-2.7,12.61-5.88,19.29-7.82c-8.12,4.14-16.68,7.31-24.96,11.11
		c-13.25,6.36-26.37,12.96-39.43,19.68c-16.42,8.65-32.6,18.1-46.58,30.4c0.72-1.35,1.37-2.75,2.31-3.96
		c9.59-7.54,19.44-14.79,30.15-20.67C871.939,543.54,891.969,534.49,911.969,525.47 M878.569,547.12
		c17.05-7.86,34.12-15.75,51.66-22.47c-9.44,5.3-19.9,8.43-29.58,13.24c-29.17,14.29-59.39,27.53-84.57,48.49
		c0.6-1.14,1.1-2.36,1.92-3.36c2.96-2.19,5.94-4.36,8.84-6.64C842.639,564.28,860.659,555.59,878.569,547.12 M905.059,541.66
		c8.38-3.38,16.56-7.36,25.23-10.01c-10.24,5.16-21.2,8.67-31.54,13.61c-30.2,14.59-61.74,27.8-87.55,49.74
		c0.69-1.33,1.3-2.73,2.25-3.89c10.53-8.09,21.3-15.93,33.09-22.12C865.509,558.8,885.309,550.24,905.059,541.66 M886.509,556.17
		c15.11-6.47,30.19-13.09,45.71-18.51c-11.88,5.85-24.58,9.79-36.53,15.49c-18.09,8.45-36.37,16.56-53.89,26.17
		c-12.37,6.59-23.84,14.66-34.88,23.26c0.38-0.69,1.14-2.05,1.52-2.73c7.59-6.11,15.42-11.98,23.77-17.04
		C849.449,572.28,868.069,564.31,886.509,556.17 M879.899,565.39c16.34-6.89,32.65-13.99,49.44-19.74c-11,5.5-22.86,8.99-34,14.16
		c-19.54,8.97-39.34,17.47-58.22,27.81c-12.44,6.65-24.04,14.72-35.03,23.55c0.72-1.41,1.34-2.89,2.35-4.11
		c5.93-4.08,11.48-8.68,17.54-12.58C840.079,582.56,860.079,573.98,879.899,565.39 M956.589,553.66c0.6-0.31,1.78-0.92,2.37-1.23
		c0.71,0.38,2.13,1.13,2.84,1.51c-0.67,0.37-2,1.11-2.67,1.48c1.38,0.98,2.79,1.99,4.18,2.99c-1.4,0.73-2.8,1.46-4.19,2.21
		c1.29,0.86,2.61,1.71,3.86,2.66c-0.72,1.39-2.56,1.69-3.77,2.56c1.36,0.93,2.8,1.82,3.96,3.03c-1.3,0.77-2.64,1.47-3.96,2.18
		c1.43,0.99,2.86,1.99,4.28,3.03c-1.46,0.67-2.91,1.36-4.36,2.04c1.53,1.01,3.08,2.01,4.63,3.02c-1.56,0.74-3.11,1.49-4.65,2.25
		c1.61,0.96,3.23,1.93,4.85,2.9c-1.59,0.75-3.2,1.5-4.78,2.27c7.99,5.37,16.89,9.09,25.83,12.55c2.7,1.19,5.91,1.82,7.71,4.39
		c-10.16-3.64-20.24-7.8-29.19-13.94c-1.23,0.65-2.44,1.34-3.63,2.07c0.48,1.3,2.06,1.68,3.09,2.47c8,4.79,16.9,7.69,25.47,11.24
		c3.08,1.35,6.82,2.15,8.4,5.51c-11.13-5.46-23.37-8.68-33.62-15.84c-1.38,0.64-2.74,1.29-4.1,1.94
		c12.49,7.66,26.92,11.19,39.98,17.66c6.7,8.3,14.24,15.98,23.07,22.04c-21.12-11.74-42.04-23.88-63.08-35.78
		c-22.92,13.01-45.87,25.99-68.78,39.02c-2.41,1.65-5.42,1.03-8.14,1.14c-7.41-0.15-14.83,0.25-22.22-0.22
		c10.07-10.15,22-18.28,34.84-24.51c17.86-8.76,36.21-16.54,54.75-23.73c-7.83,5.32-17.09,7.8-25.54,11.9
		c-14.62,7.12-29.73,13.49-43.07,22.91c-5.17,3.77-10.28,7.77-14.32,12.78c5.65-3.96,10.61-8.84,16.52-12.46
		c13.72-8.66,28.86-14.73,43.72-21.15c10.68-4.68,22.15-7.89,31.76-14.7c-1.34-0.78-2.69-1.55-4.03-2.32c1.37-1,2.73-2,4.1-2.99
		c-1.45-0.75-2.9-1.5-4.35-2.24c1.47-0.94,2.93-1.88,4.41-2.81c-1.26-0.76-2.52-1.51-3.77-2.26c1.17-1.09,2.35-2.17,3.52-3.26
		c-1.16-0.6-2.32-1.2-3.47-1.79c1.16-1.11,2.33-2.21,3.51-3.31c-1.19-0.73-2.37-1.44-3.54-2.16c1.21-0.94,2.42-1.88,3.64-2.81
		c-1.16-0.88-2.31-1.74-3.46-2.62c1.19-0.87,2.38-1.74,3.58-2.61c-1.23-0.79-2.45-1.56-3.66-2.33c1.18-0.93,2.36-1.86,3.56-2.78
		C958.149,555.08,957.109,554.13,956.589,553.66 M924.199,609.63c-16.69,7.85-34.53,15.22-47.11,29.24
		c3.45-2.25,6.41-5.15,9.78-7.51c12.16-8.78,26.2-14.34,39.92-20.16c10.64-4.63,21.93-7.89,31.88-14.02
		c-1.2-0.76-2.39-1.51-3.58-2.25C945.699,601.61,934.429,604.57,924.199,609.63 M825.299,570.04c1.07-3.34,4.4-4.72,7.3-6.1
		C830.209,566.02,827.749,568.03,825.299,570.04 M898.779,605.23c14.6-6.89,29.17-13.96,44.33-19.52
		c-9.18,4.68-18.95,8.06-28.03,12.95c-21.75,10.89-45.04,21.54-60.42,41.13c4.49-3.68,8.49-7.93,13.12-11.44
		c10.3-8.28,22.12-14.35,34-20.02c14.37-6.61,28.7-13.46,43.62-18.74c-8.8,5.06-18.62,7.94-27.57,12.72
		c-21.15,10.28-43.54,20.39-58.91,38.89c-5.67-0.47-11.37,0.14-17.04-0.41c12.33-13.86,27.4-25.12,43.91-33.54
		c10.09-5.07,20.03-10.56,30.56-14.67c-15.19,8.53-31.26,15.61-45.45,25.84c-8.11,6.02-16.19,12.51-22.14,20.77
		c3.29-2.66,6.21-5.73,9.38-8.52C870.099,619.9,884.369,612.18,898.779,605.23 M856.749,616.29c12.01-8.86,25.09-16.28,38.61-22.58
		c-6.66,4.15-13.7,7.65-20.3,11.9c-15.25,9.4-29.39,21.1-39.91,35.71c-1.03-0.15-3.11-0.47-4.15-0.62
		C838.759,631.76,847.249,623.39,856.749,616.29 M864.699,615.25c12.59-8.36,26.01-15.46,39.8-21.61
		c-7.71,4.9-16.14,8.55-23.86,13.44c-15.05,8.94-29.26,19.96-39.63,34.21c-1.65-0.2-3.3-0.39-4.94-0.56
		C844.679,631.27,854.069,622.43,864.699,615.25 M860.129,608.63c5.25-2.98,10.4-6.17,15.8-8.88c-4.26,3.68-9.28,6.31-13.77,9.69
		c-12.19,8.87-23.45,19.35-32.04,31.79c-8.79-0.55-17.6,0.07-26.39-0.34C822.329,629.8,841.369,619.45,860.129,608.63
		 M957.639,626.99c0.32-0.14,0.98-0.41,1.3-0.55c1.02,0.36,3.06,1.08,4.08,1.44c-1.18,0.45-2.4,0.82-3.61,1.18
		c2.23,0.1,2.9,1.21,2.02,3.31c-0.06,0.46-0.17,1.37-0.22,1.83c0.56,0.87,1.14,1.74,1.74,2.6c-0.5-0.04-1.5-0.14-2-0.18
		c-0.98-3.24-2.88,1.4,0,0c2.28,1.75,4.91,2.94,7.5,4.17c-2,0.42-3.92-0.23-5.79-0.82l0.09,1.14c-17.95-0.24-35.91,0.04-53.86-0.14
		c7.09-4.07,14.1-8.36,21.36-12.09c0.71-0.14,2.15-0.43,2.87-0.58c-1.31,1.35-2.63,2.68-3.93,4.03c3.99-1.5,7.88-3.23,11.79-4.91
		c-0.92,0.87-1.83,1.74-2.74,2.62c0.95-0.07,2.83-0.22,3.77-0.29c-0.94,0.8-1.88,1.61-2.81,2.43c1-0.14,2.99-0.43,3.98-0.57
		c-0.99,0.87-1.97,1.77-2.92,2.69c3.67-1.06,7.25-2.37,10.79-3.79c-0.69,0.74-2.09,2.2-2.78,2.94c3.46-1.03,6.82-2.35,10.09-3.88
		C958.179,628.92,957.819,627.63,957.639,626.99 M935.469,630.53c-0.83,0.04-3.05,1.74-1.41,2.22
		C935.639,633.3,938.409,629.95,935.469,630.53 M957.579,630.85c-1.55,0.12-3.24,0.89-4.13,2.19
		C954.299,634.55,959.219,632.28,957.579,630.85 M950.379,633.75C950.519,637.08,953.349,632.2,950.379,633.75 M959.279,637.96
		c-0.59,1.25,1.52,2.33,2.44,1.51C962.289,638.22,960.179,637.13,959.279,637.96 M969.519,629.03
		C969.779,629.29,969.779,629.29,969.519,629.03 M943.179,631.61c0.29-0.32,0.86-0.95,1.15-1.26l0.69,0.34l-0.13,0.77
		C944.459,631.49,943.609,631.57,943.179,631.61 M972.889,630.75l0.77-0.3c0.36,0.3,1.07,0.89,1.43,1.18
		C974.539,631.41,973.439,630.97,972.889,630.75 M975.089,631.63c0.46,0.09,1.38,0.25,1.84,0.33l0.09,0.69
		C976.539,632.4,975.569,631.89,975.089,631.63L975.089,631.63z"/>
	<path style="fill:#7DFD00;" d="M865.029,306.48c37.91-15.24,79.55-20.9,120.18-16.73c40.8,4.11,80.49,18.43,114.56,41.24
		c50.88,33.82,88.84,86.57,104.33,145.69c11.18,42.35,11.45,87.71-0.03,130.02l-0.6,0.36c-2.23,0.06-4.34-0.87-6.47-1.4
		c11.2-42.14,11.14-87.23-0.49-129.27c-15.95-58.66-54.74-110.58-106.19-142.87c-37.57-23.79-81.7-37.03-126.16-37.79
		c-40.18-0.9-80.54,8.26-116.36,26.52c-52.75,26.64-95.22,72.93-117.14,127.82c-19.73,48.78-23.02,103.94-9.56,154.78
		c-2.29,0.84-4.59,1.64-6.92,2.38c-15.78-59.34-9.38-124.38,18.47-179.19C760.059,373.23,808.059,329.11,865.029,306.48
		 M954.859,341.14c0.22-0.4,0.66-1.2,0.88-1.6c0.73-0.1,2.18-0.3,2.9-0.4c-0.23,6.28-0.37,12.61-1.13,18.86
		c-4.95,3.52-10.99,4.97-16.52,7.31c0.34-0.59,1.03-1.78,1.38-2.38c3.08-1.38,6.24-2.57,9.24-4.14c-2.71,0.7-5.39,1.53-8.07,2.3
		l0.49-1.15c0.13-0.19,0.37-0.58,0.5-0.77c2.95-0.87,5.88-1.9,8.48-3.6c-2.54,0.42-5.06,0.92-7.53,1.63
		c0.23-0.26,0.69-0.77,0.92-1.03c2.34-1.11,4.75-2.08,7.14-3.08c-0.69-0.14-2.08-0.42-2.77-0.56c0.82-0.58,1.66-1.15,2.5-1.72
		c-0.62-0.12-1.86-0.34-2.48-0.45c1.31-0.69,2.62-1.38,3.94-2.07c-0.39-0.38-0.78-0.76-1.16-1.14c0.66-1.08,1.32-2.17,1.98-3.26
		C955.379,343.2,955.029,341.83,954.859,341.14 M944.679,379.27c4.65-2.75,9.22-5.67,14.12-7.95c-0.44,1.02-0.79,2.07-1.24,3.09
		c0.26,0.56,0.77,1.68,1.03,2.23c-0.35,0.52-1.04,1.54-1.39,2.05c0.51,0.87,1.04,1.76,1.57,2.64c-0.59,0.76-1.18,1.52-1.76,2.28
		c0.74,0.85,1.48,1.7,2.22,2.56l-0.17,0.12c-0.52,0.36-1.57,1.09-2.1,1.45c0.58,1.12,1.18,2.24,1.77,3.36
		c-0.44,0.4-1.33,1.19-1.77,1.58c0.56,0.95,1.14,1.91,1.72,2.87c-0.46,0.52-1.38,1.58-1.84,2.11c0.65,0.83,1.3,1.66,1.95,2.5
		c-0.74,0.84-1.49,1.68-2.21,2.54c0.51,0.45,1.52,1.35,2.03,1.8l1.04-0.03l-0.76,1.42c-0.88,0.24-1.75,0.5-2.62,0.78
		c0.87,1.11,1.74,2.23,2.62,3.35c-0.84,0.61-1.67,1.23-2.49,1.85c0.85,1.02,1.69,2.04,2.54,3.07c-3.71,2.23-7.53,4.34-11.65,5.74
		c-16.84,5.63-33.98,11.12-49.17,20.55c0.45-1.01,0.9-2.01,1.36-3.01l0.36-0.19c8.57-4.92,17.35-9.45,26.53-13.16
		c7.39-3.65,15.42-5.7,22.93-9.05c-7.05,1.33-13.66,4.2-20.38,6.62c-9.44,3.49-18.68,7.57-27.39,12.64
		c0.41-1.02,0.97-1.94,1.65-2.76c9.35-6.06,19.66-10.32,29.8-14.82c5.43-2.38,11.26-3.8,16.5-6.64
		c-15.44,4.44-30.42,10.57-44.59,18.13c0.36-0.59,1.07-1.78,1.43-2.37c7.72-5.42,16.57-8.87,25.05-12.89
		c5.58-2.73,11.67-4.24,17.19-7.11c-14.01,3.65-27.13,10.03-40.13,16.25c0.4-0.98,0.93-1.87,1.58-2.67
		c7.61-4.54,15.7-8.16,23.69-11.94c5.16-2.44,10.72-3.93,15.76-6.63c-13.2,3.44-25.45,9.69-37.74,15.46c0.49-1.01,1-2.02,1.51-3.02
		l0.3-0.15c9.88-4.8,19.47-10.3,29.81-14.13c2.39-0.92,4.74-1.96,7.03-3.11c-12.36,3.16-23.77,9.16-35.27,14.54
		c0.44-1.03,0.89-2.05,1.35-3.07l0.36-0.18c7.59-3.6,14.89-7.82,22.6-11.16c3.79-1.53,7.63-2.97,11.16-5.05
		c-11.2,3.25-21.62,8.64-32.18,13.48c0.44-1.14,1.06-2.17,1.83-3.07c4.62-2.65,9.46-4.91,14.15-7.42c4.96-2.7,10.42-4.33,15.29-7.19
		c-9.78,2.59-18.45,8.02-27.84,11.62c0.35-0.62,1.04-1.86,1.39-2.48c3.92-2.5,8.14-4.5,12.22-6.75c4.92-2.75,10.39-4.39,15.17-7.41
		c-8.93,2.4-16.8,7.46-25.42,10.65c0.8-1.5,1.66-2.96,2.58-4.39l0.95-0.27c6.52-1.8,11.79-6.43,18.24-8.47
		C946.379,379.86,945.249,379.46,944.679,379.27 M923.269,452.22c10.92-7.28,22.85-12.96,33.98-19.92c0.26,0.55,0.78,1.65,1.04,2.21
		c-1.1,0.79-2.19,1.59-3.27,2.4c1.2,0.87,2.41,1.75,3.63,2.64c-1.26,0.96-2.52,1.92-3.77,2.89c1.28,0.78,2.57,1.56,3.86,2.34
		c-1.31,1-2.61,2-3.91,3c1.27,0.77,2.54,1.53,3.82,2.3c-1.24,1.08-2.48,2.17-3.72,3.26c1.24,0.74,2.48,1.47,3.72,2.22
		c-1.29,1.03-2.57,2.06-3.85,3.1c1.31,0.76,2.63,1.51,3.96,2.28c-1.48,1.05-2.94,2.11-4.41,3.17c1.48,0.78,2.96,1.56,4.44,2.35
		c-1.47,0.92-2.94,1.85-4.42,2.77c1.3,0.86,2.62,1.71,3.85,2.68c-1.28,1.09-2.62,2.11-3.96,3.14c1.54,0.65,3.07,1.3,4.62,1.97
		c-13.14,8.91-28.57,13.24-43.03,19.4c-23.6,9.87-47.73,19.35-68.49,34.62c0.47-1.13,1.04-2.18,1.72-3.17
		c19.7-15.22,42.99-24.51,65.21-35.27c-3.32,0.97-6.55,2.21-9.69,3.64c-14.49,6.5-29.21,12.69-42.62,21.28
		c-3.53,2.39-7.04,4.8-10.78,6.86c0.34-0.67,1.02-2.02,1.36-2.7c12.66-9.46,26.57-17.07,40.82-23.85
		c7.59-3.86,15.51-7.07,22.94-11.24c-8.66,3.09-16.9,7.23-25.27,11.01c-12.96,5.91-25.46,12.86-36.89,21.38
		c0.63-1.29,1.13-2.7,2.14-3.75c18.31-14.02,39.68-23.02,60.06-33.48c-6.31,2.01-12.16,5.16-18.17,7.87
		c-9.67,4.49-19.26,9.22-28.32,14.86c-4.02,2.5-7.74,5.45-11.86,7.77c0.7-1.46,1.44-2.89,2.18-4.33l0.15-0.07
		c2.67-1.19,5.15-2.75,7.52-4.45c15.21-10.62,32.42-17.8,48.61-26.68c-8.83,3.22-17.13,7.69-25.59,11.76
		c-10.32,5-20.09,11.04-29.43,17.68c0.46-1.17,1.04-2.27,1.73-3.3c15.92-12.37,34.28-20.97,52.11-30.17
		c7.71-4.1,15.98-6.97,23.76-10.93c-10.51,3.55-20.38,8.71-30.43,13.33c-14.99,6.99-29.65,14.71-43.26,24.13
		c0.47-1.19,1.07-2.3,1.79-3.33c16.13-12.08,34.38-20.78,52.09-30.21c-2.5,0.79-4.95,1.72-7.3,2.88c-9.08,4.51-18.18,9-26.99,14.01
		c-5.36,3.02-10.32,6.67-15.66,9.73c0.44-1.19,1.03-2.29,1.77-3.29c15.07-11.15,32.04-19.22,48.26-28.48
		c-2.75,0.99-5.44,2.16-8.04,3.51c-10.63,5.52-21.47,10.75-31.45,17.43c-2.13,1.41-4.38,2.64-6.59,3.9c0.44-1.2,1.02-2.3,1.75-3.32
		c14.47-10.24,30.27-18.32,45.64-27.07c6.49-3.17,13.25-5.8,19.55-9.36C934.359,447.39,929.359,451.27,923.269,452.22
		 M923.039,458.64c4.6-1.52,8.94-3.73,13.22-5.99C931.599,454.02,927.249,456.25,923.039,458.64 M922.509,463.93
		c5.01-1.38,9.82-3.57,14.12-6.48C931.599,458.77,926.819,461.04,922.509,463.93 M920.499,474.79c5.88-1.65,11.53-4.18,16.83-7.21
		C931.489,469.28,925.619,471.46,920.499,474.79 M920.519,479.83c5.23-1.36,10.27-3.52,14.91-6.28
		C930.199,474.88,925.049,476.86,920.519,479.83 M918.019,485.51c5.37-1.07,10.34-3.52,15.28-5.81
		C927.999,481.05,923.059,483.46,918.019,485.51 M918.029,490.48c7.03-1.57,13.55-4.86,20.11-7.75
		C931.299,484.94,924.709,487.85,918.029,490.48 M915.889,516.68c13.31-8.22,27.15-15.59,40.72-23.38c0.51,0.52,1.52,1.57,2.02,2.09
		c-1.89,1.25-3.77,2.51-5.64,3.78c1.94,0.96,3.87,1.93,5.82,2.9c-1.92,1.36-3.84,2.71-5.77,4.07c1.91,1.08,3.82,2.16,5.73,3.25
		c-1.97,1.31-3.93,2.63-5.89,3.97c1.96,1.05,3.93,2.1,5.89,3.15c-1.99,1.25-3.98,2.51-5.97,3.77c1.96,1.13,3.93,2.24,5.91,3.34
		c-1.92,1.17-3.86,2.31-5.64,3.68c1.6,1.5,3.63,2.42,5.57,3.41c-2.07,1.32-4.14,2.66-6.2,4.01c2.07,1.01,4.14,2.03,6.21,3.07
		c-10.87,6.96-22.75,12.22-34.88,16.55c-26.24,9.9-52.23,20.52-77.66,32.35c-16.69,7.86-32.5,17.58-46.77,29.3
		c0.8-1.67,1.53-3.42,2.75-4.82c10.99-8.83,22.59-16.9,35.03-23.55c18.88-10.34,38.68-18.84,58.22-27.81
		c11.14-5.17,23-8.66,34-14.16c-16.79,5.75-33.1,12.85-49.44,19.74c-19.82,8.59-39.82,17.17-57.92,29.09
		c-6.06,3.9-11.61,8.5-17.54,12.58c0.73-1.55,1.34-3.19,2.48-4.48c11.04-8.6,22.51-16.67,34.88-23.26
		c17.52-9.61,35.8-17.72,53.89-26.17c11.95-5.7,24.65-9.64,36.53-15.49c-15.52,5.42-30.6,12.04-45.71,18.51
		c-18.44,8.14-37.06,16.11-54.3,26.64c-8.35,5.06-16.18,10.93-23.77,17.04c0.79-1.68,1.57-3.41,2.76-4.85
		c25.81-21.94,57.35-35.15,87.55-49.74c10.34-4.94,21.3-8.45,31.54-13.61c-8.67,2.65-16.85,6.63-25.23,10.01
		c-19.75,8.58-39.55,17.14-58.52,27.33c-11.79,6.19-22.56,14.03-33.09,22.12c0.77-1.63,1.42-3.37,2.63-4.73
		c25.18-20.96,55.4-34.2,84.57-48.49c9.68-4.81,20.14-7.94,29.58-13.24c-17.54,6.72-34.61,14.61-51.66,22.47
		c-17.91,8.47-35.93,17.16-51.73,29.26c-2.9,2.28-5.88,4.45-8.84,6.64c0.66-1.44,1.28-2.94,2.29-4.18
		c13.98-12.3,30.16-21.75,46.58-30.4c13.06-6.72,26.18-13.32,39.43-19.68c8.28-3.8,16.84-6.97,24.96-11.11
		c-6.68,1.94-12.9,5.12-19.29,7.82c-20,9.02-40.03,18.07-59.22,28.74c-10.71,5.88-20.56,13.13-30.15,20.67
		c0.79-1.67,1.48-3.43,2.7-4.84c2.45-2.01,4.91-4.02,7.3-6.1c9.47-5.98,19.46-11.14,29.13-16.8c15.77-8.81,31.31-18.09,47.25-26.58
		c7.61-2.83,15.18-5.92,22.24-9.95C926.009,512.38,921.119,514.96,915.889,516.68 M906.559,582.08
		c16.68-9.47,33.32-19.01,50.03-28.42c0.52,0.47,1.56,1.42,2.08,1.9c-1.2,0.92-2.38,1.85-3.56,2.78c1.21,0.77,2.43,1.54,3.66,2.33
		c-1.2,0.87-2.39,1.74-3.58,2.61c1.15,0.88,2.3,1.74,3.46,2.62c-1.22,0.93-2.43,1.87-3.64,2.81c1.17,0.72,2.35,1.43,3.54,2.16
		c-1.18,1.1-2.35,2.2-3.51,3.31c1.15,0.59,2.31,1.19,3.47,1.79c-1.17,1.09-2.35,2.17-3.52,3.26c1.25,0.75,2.51,1.5,3.77,2.26
		c-1.48,0.93-2.94,1.87-4.41,2.81c1.45,0.74,2.9,1.49,4.35,2.24c-1.37,0.99-2.73,1.99-4.1,2.99c1.34,0.77,2.69,1.54,4.03,2.32
		c-9.61,6.81-21.08,10.02-31.76,14.7c-14.86,6.42-30,12.49-43.72,21.15c-5.91,3.62-10.87,8.5-16.52,12.46
		c4.04-5.01,9.15-9.01,14.32-12.78c13.34-9.42,28.45-15.79,43.07-22.91c8.45-4.1,17.71-6.58,25.54-11.9
		c-18.54,7.19-36.89,14.97-54.75,23.73c-12.84,6.23-24.77,14.36-34.84,24.51c-0.26,0.09-0.79,0.29-1.05,0.39
		c15.37-18.5,37.76-28.61,58.91-38.89c8.95-4.78,18.77-7.66,27.57-12.72c-14.92,5.28-29.25,12.13-43.62,18.74
		c-11.88,5.67-23.7,11.74-34,20.02c-4.63,3.51-8.63,7.76-13.12,11.44c15.38-19.59,38.67-30.24,60.42-41.13
		c9.08-4.89,18.85-8.27,28.03-12.95c-15.16,5.56-29.73,12.63-44.33,19.52c-14.41,6.95-28.68,14.67-40.64,25.44
		c-3.17,2.79-6.09,5.86-9.38,8.52c5.95-8.26,14.03-14.75,22.14-20.77c14.19-10.23,30.26-17.31,45.45-25.84
		c-10.53,4.11-20.47,9.6-30.56,14.67c-16.51,8.42-31.58,19.68-43.91,33.54c-0.21,0.13-0.65,0.37-0.87,0.5
		c10.37-14.25,24.58-25.27,39.63-34.21c7.72-4.89,16.15-8.54,23.86-13.44c-13.79,6.15-27.21,13.25-39.8,21.61
		c-10.63,7.18-20.02,16.02-28.63,25.48c-0.23,0.15-0.69,0.45-0.92,0.59c10.52-14.61,24.66-26.31,39.91-35.71
		c6.6-4.25,13.64-7.75,20.3-11.9c-13.52,6.3-26.6,13.72-38.61,22.58c-9.5,7.1-17.99,15.47-25.75,24.41
		c-0.22,0.13-0.66,0.4-0.88,0.53c8.59-12.44,19.85-22.92,32.04-31.79c4.49-3.38,9.51-6.01,13.77-9.69
		C885.909,593.49,896.379,588.01,906.559,582.08 M924.199,609.63c10.23-5.06,21.5-8.02,30.89-14.7c1.19,0.74,2.38,1.49,3.58,2.25
		c-9.95,6.13-21.24,9.39-31.88,14.02c-13.72,5.82-27.76,11.38-39.92,20.16c-3.37,2.36-6.33,5.26-9.78,7.51
		C889.669,624.85,907.509,617.48,924.199,609.63 M935.479,625.86c7.28-4.72,14.96-8.78,22.47-13.12c-0.47,3.85-0.39,7.74-0.28,11.61
		c-1.22,0.56-2.44,1.12-3.65,1.69c0.35-0.66,1.05-1.98,1.4-2.64c-1.82,0.54-3.64,1.09-5.46,1.64c0.91-0.97,1.83-1.94,2.75-2.9
		c-3.63,1.23-7.22,2.55-10.79,3.91c0.92-0.98,1.85-1.94,2.78-2.9C941.649,624.13,938.559,625,935.479,625.86 M935.469,630.53
		c2.94-0.58,0.17,2.77-1.41,2.22C932.419,632.27,934.639,630.57,935.469,630.53 M957.579,630.85c1.64,1.43-3.28,3.7-4.13,2.19
		C954.339,631.74,956.029,630.97,957.579,630.85 M968.339,634.66c1.2,0.13,4.1-0.07,3.62,1.84
		C970.499,637.56,968.959,635.88,968.339,634.66 M967.429,636.72C970.439,635.25,967.499,640.05,967.429,636.72L967.429,636.72z"/>
	<path style="fill:#4BD40B;" d="M946.399,356.17c2.46-5.2,5.45-10.13,8.46-15.03c0.17,0.69,0.52,2.06,0.69,2.75
		c-0.66,1.09-1.32,2.18-1.98,3.26c0.38,0.38,0.77,0.76,1.16,1.14c-1.32,0.69-2.63,1.38-3.94,2.07c0.62,0.11,1.86,0.33,2.48,0.45
		c-0.84,0.57-1.68,1.14-2.5,1.72c0.69,0.14,2.08,0.42,2.77,0.56C951.149,354.09,948.739,355.06,946.399,356.17 M966.359,347.98
		c1.06,1.83,2.15,3.68,3.87,4.99c-1.59-0.21-3.08-1.3-4.68-1.12c0.01,0.76,0.1,1.51,0.29,2.27c-0.73-0.53-2.18-1.59-2.9-2.12
		c0.69-0.43,1.39-0.87,2.09-1.3l-2.01-1.37c1.39,0.4,2.63,1.16,3.88,1.87C966.759,350.39,966.489,348.79,966.359,347.98
		 M967.409,353.69c1.21-0.51,3.71,0.26,3.81,1.69C969.979,355.85,967.449,355.2,967.409,353.69 M945.479,357.2
		c2.47-0.71,4.99-1.21,7.53-1.63c-2.6,1.7-5.53,2.73-8.48,3.6C944.759,358.68,945.239,357.69,945.479,357.2 M966.189,355.76
		l0.7-0.39c0.28,0.28,0.83,0.84,1.11,1.12l-0.69,0.4C967.029,356.61,966.469,356.05,966.189,355.76 M962.939,356.8
		c4.3,2,9.4,2.72,12.97,5.98C971.359,361.36,966.899,359.49,962.939,356.8 M967.999,356.49c1.58-0.19,4.53,0.41,4.9,2.14
		C971.229,359.02,968.839,357.95,967.999,356.49 M967.069,377.94c8.47,3.27,17.23,6.57,24.36,12.31c-3.88-1.7-7.49-3.93-11.22-5.93
		C975.969,381.91,971.209,380.56,967.069,377.94 M973.189,442.95c17.23,8.03,34.54,15.98,50.95,25.62
		c3.85,2.34,8.08,4.15,11.46,7.19c-3.13,0.03-5.41-2.32-7.98-3.72c-9.68-5.79-19.66-11.05-29.53-16.5
		C989.869,451.19,981.109,447.87,973.189,442.95 M974.149,453.89c18.09,7.94,36.12,16.11,53.48,25.57c-0.77,0.22-1.6,0.78-2.36,0.18
		c-9.44-4.91-18.77-10.02-28.29-14.77C989.339,461.27,981.439,458.18,974.149,453.89 M922.509,463.93
		c4.31-2.89,9.09-5.16,14.12-6.48C932.329,460.36,927.519,462.55,922.509,463.93 M975.239,464.96
		c13.59,5.33,26.84,11.49,40.12,17.57c1.5,0.73,3.29,1.33,3.96,3.04c-7.44-3.02-14.36-7.18-21.7-10.43
		C990.109,471.86,982.469,468.83,975.239,464.96 M920.499,474.79c5.12-3.33,10.99-5.51,16.83-7.21
		C932.029,470.61,926.379,473.14,920.499,474.79 M975.119,469.97c12.83,5.32,25.63,10.71,38.25,16.48c0.87,0.45,1.57,1.09,2.12,1.94
		c-3.35-1.22-6.47-2.93-9.67-4.47C995.789,478.82,984.959,475.47,975.119,469.97 M920.519,479.83c4.53-2.97,9.68-4.95,14.91-6.28
		C930.789,476.31,925.749,478.47,920.519,479.83 M976.069,475.76c9.82,3.65,19.49,7.73,29.11,11.91c2.43,1.05,5.08,1.88,7.01,3.81
		c-4.37-1.32-8.28-3.75-12.48-5.46C991.769,482.74,983.729,479.66,976.069,475.76 M972.949,584.63c4.83,1.83,9.88,3.42,14.18,6.35
		C982.159,589.47,977.539,587.02,972.949,584.63 M968.029,586.82c4.37,2.02,8.71,4.1,13.21,5.85c2.88,1.24,6.04,2.12,8.44,4.27
		C982.029,594.76,974.619,591.29,968.029,586.82 M957.949,612.74c0.64-0.09,1.92-0.28,2.55-0.37c-0.26,0.48-0.78,1.43-1.04,1.91
		c0.45,0.26,1.33,0.79,1.77,1.05l-1.95,0.56c0.36,0.36,1.08,1.08,1.44,1.44c-0.23,0.58-0.68,1.75-0.91,2.34
		c1.77,0.44,4.34,0.96,5.18,2.73c-1.38,0-2.76-0.09-4.13-0.27l1.56,1.62l-3.01-1.05l1.2,1.93l3.15,1.12
		c-0.64,0.43-1.28,0.87-1.92,1.31l-0.22-1.74c-0.67,0.28-2.01,0.84-2.68,1.12c-0.32,0.14-0.98,0.41-1.3,0.55
		c0.18,0.64,0.54,1.93,0.72,2.58c-3.27,1.53-6.63,2.85-10.09,3.88c0.69-0.74,2.09-2.2,2.78-2.94c-3.54,1.42-7.12,2.73-10.79,3.79
		c0.95-0.92,1.93-1.82,2.92-2.69c0.43-0.04,1.28-0.12,1.71-0.15l0.13-0.77l-0.69-0.34c-0.29,0.31-0.86,0.94-1.15,1.26
		c-0.99,0.14-2.98,0.43-3.98,0.57c0.93-0.82,1.87-1.63,2.81-2.43c-0.94,0.07-2.82,0.22-3.77,0.29c0.91-0.88,1.82-1.75,2.74-2.62
		c-3.91,1.68-7.8,3.41-11.79,4.91c1.3-1.35,2.62-2.68,3.93-4.03c-0.72,0.15-2.16,0.44-2.87,0.58c1.64-1.16,3.28-2.41,5.23-3.02
		c3.08-0.86,6.17-1.73,9.22-2.71c-0.93,0.96-1.86,1.92-2.78,2.9c3.57-1.36,7.16-2.68,10.79-3.91c-0.92,0.96-1.84,1.93-2.75,2.9
		c1.82-0.55,3.64-1.1,5.46-1.64c-0.35,0.66-1.05,1.98-1.4,2.64c1.21-0.57,2.43-1.13,3.65-1.69
		C957.559,620.48,957.479,616.59,957.949,612.74 M966.409,622.88l0.48-0.49c0.28,0.32,0.82,0.95,1.1,1.26l-0.85,0.41
		C966.959,623.76,966.589,623.18,966.409,622.88 M967.989,623.65c1.64-0.37,3.91,0.42,4.9,1.82l-0.32,0.33
		c-0.59-0.03-1.79-0.08-2.39-0.11C969.399,625.03,968.669,624.36,967.989,623.65 M971.879,622.55c8.97,3.24,17.9,6.97,25.81,12.38
		c1.52,0.97,2.79,2.27,3.98,3.62l0.23-0.2l-1.99-2.83c3.08,1.79,6.23,3.51,9.15,5.57c-2.04,0.26-3.93-0.08-5.67-0.99
		c0.11,0.26,0.32,0.79,0.42,1.06c-3.9-0.17-7.8-0.12-11.7-0.16c-2.06-2.19-4.27-4.35-7.07-5.57c2.31,1.81,4.69,3.52,6.83,5.55
		c-7.63,0.13-15.26,0.01-22.89,0.06l-0.53-0.25c-2.59-1.23-5.22-2.42-7.5-4.17c0.5,0.04,1.5,0.14,2,0.18
		c-0.6-0.86-1.18-1.73-1.74-2.6c0.05-0.46,0.16-1.37,0.22-1.83c0.93,0.38,1.87,0.78,2.8,1.21c1.23,0.81,2.66,0.98,4.11,1.08
		c0.62,1.22,2.16,2.9,3.62,1.84c0.48-1.91-2.42-1.71-3.62-1.84c-1.84-1.24-3.08-3.42-5.68-2.85c-0.72-1.62,0.59-2.58,1.43-3.59
		c4.07,2.43,8.73,3.62,12.76,6.14c1.92,0.71,3.8,1.56,5.73,2.31c-1.75-1.44-4.41-2.05-5.56-4.02c1.14,0.2,3.42,0.6,4.56,0.8
		c-1.71-1.33-3.71-2.15-5.46-3.37l0.07-0.53c0.79-0.07,2.38-0.19,3.18-0.25l0.01,0.86c0.41,0.16,1.23,0.49,1.64,0.65
		c0.54,0.17,1.61,0.52,2.14,0.69l0.3,0.79c0.43,0.09,1.29,0.26,1.72,0.34c2.12,1.64,4.37,3.13,6.75,4.38
		c-1.98-1.85-4.28-3.29-6.75-4.38c-0.51-0.28-1.51-0.85-2.02-1.13c-0.33-0.26-1.01-0.78-1.35-1.04l-0.79,0.35
		c-0.41-0.38-1.24-1.13-1.65-1.51c-1.66-0.79-3.24-1.69-4.84-2.56l1.28-0.35c0.5,0.21,1.52,0.64,2.03,0.85
		c0.42,0.07,1.25,0.21,1.67,0.28l0.38-0.68c1.89,2.9,5.48,3.83,8.63,4.66c0.15,0.39,0.45,1.16,0.59,1.55l0.79-0.15l0.1-0.75
		c-0.37-0.16-1.11-0.49-1.48-0.65c-2.82-1.66-5.72-3.17-8.63-4.66c-0.41-0.07-1.24-0.21-1.65-0.28l-0.4,0.68l0.42-1.15
		C976.059,625.06,973.769,624.11,971.879,622.55 M969.419,632.63C969.549,635.94,972.409,631.2,969.419,632.63 M967.429,636.72
		C967.499,640.05,970.439,635.25,967.429,636.72 M966.999,625.66c-2.34,1.22-2.01-2.62,0.05-0.64L966.999,625.66 M966.999,625.66
		c0.8,0.01,2.38,0.02,3.18,0.03c1.3,1.01,2.71,1.92,4.16,2.75l-0.16,0.87c-2.38-1.1-4.82-2.04-7.18-3.16V625.66 M972.569,625.8
		l0.9-0.44l1.01,0.49l0.05,0.89C974.039,626.51,973.059,626.04,972.569,625.8 M964.389,626.91l0.69-0.36
		c0.3,0.28,0.89,0.84,1.19,1.12c-0.43,0-1.28-0.02-1.71-0.03L964.389,626.91 M966.269,627.67c1.77-1.73,2.22,2.17,0.13,0.9
		L966.269,627.67 M974.339,628.44c0.46,0.28,1.38,0.83,1.85,1.11c-0.4-0.06-1.2-0.18-1.59-0.24L974.339,628.44 M972.889,630.75
		c-1.92,1.57-2.01-2.37-0.05-0.93L972.889,630.75 M950.379,633.75C953.349,632.2,950.519,637.08,950.379,633.75 M959.279,637.96
		c0.9-0.83,3.01,0.26,2.44,1.51C960.799,640.29,958.689,639.21,959.279,637.96L959.279,637.96z"/>
	<path style="fill:#EDD621;" d="M966.189,355.76C963.209,357.24,965.559,352.5,966.189,355.76 M1040.389,480.93
		c21.48-9.35,46.8-9.18,68.22,0.27c-2.52,4.9-7.41,7.73-10.81,11.9c-5.23,6.4-14.16,7.71-19.68,13.79
		c-1.13-0.51-2.24-1.02-3.35-1.52c1.19-4.45-2.31-8.21-4.73-11.54c-2.41-0.33-5.21-2.67-7.4-0.81c-2.28,3.5-3.18,7.65-2.64,11.8
		c1.77,1.61,3.57,3.29,5.9,4.07c1.02,1.02,2.04,2.06,3.06,3.11c-2.19,3.27-5.42,6.37-5.51,10.55c0.17,4.07,1.77,7.93,1.88,12.02
		c-3.43-2.74-3.87-7.39-6.22-10.85c-1.79-2.73-3.46-5.52-4.96-8.41c-0.52-0.86-0.91-2.02-2.11-1.97c-3.98-0.74-8.01-1.09-12.01-1.61
		c-2.21-1.25-4.1-2.99-6.21-4.38c0.96,2.08,2.03,4.12,3.05,6.18c-1.51,0.03-3.02,0.06-4.52,0.1c-0.07,6.22-6.23,8.64-10.27,12.05
		c-0.65,2.17-0.36,4.46-0.32,6.69c1.84,0.15,3.68,0.33,5.52,0.51c1.86-1.81,3.74-3.6,5.8-5.18c-0.97,3.11-1.93,6.42-4.27,8.82
		c-3.06-0.44-5.57-2.83-8.71-2.8c-3.32,0.52-5.98,2.8-9.04,4.03c-3.68,1.8-7.84,2.27-11.54,4.01c-1.01,6.6-1.7,13.36-0.54,20
		c2.23-2.29,4.69-4.45,6.32-7.25c0.09-2.52-2.12-4.18-3.48-6.02c0.87-0.23,1.75-0.45,2.64-0.67c1.01-1.18,1.73-2.83,3.35-3.31
		c4.31-1.44,8.83-2.78,13.42-2.57c3.45,0.97,6.58,3.11,9.04,5.71c-0.09,1.5-0.45,2.98-0.44,4.5c1,2.13,2.47,4,3.64,6.04
		c-5.71,1.25-11.53,1.84-17.35,2.19c-2.66,0.09-5.19,2.47-5,5.21c-0.02,4.61-0.84,9.28-0.43,13.85c2.72,4.52,5.15,9.27,8.64,13.27
		c1.62-3.32,2.02-7.15,1.39-10.77c-1.24-1.19-3.1-1.22-4.64-1.72c-0.96-3.84-1.45-8.3,0.69-11.83c3.66-2.83,8.23-0.51,11.97,0.87
		c5.26,2.25,11.1,1.76,16.57,3.16c4.77,0.68,8.54,4.01,13.14,5.26c0.51,2.93,1.04,5.85,1.42,8.81c-1.13-0.19-3.38-0.56-4.51-0.75
		c1.16,1.84,2.17,4.57,4.77,4.63c3.62-0.41,6.89-2.27,10.27-3.52c3.12-1.07,0.66-4.82,0.62-7.05c3.33,0.07,6.66-0.29,10-0.13
		c3.09,7.18,9.01,12.76,11.79,20.1c-4.74,5.55-11.21,9.24-16.77,13.87c-0.87,3.27-0.67,6.84-2.46,9.83c0.05,1.13,0.11,2.26,0.18,3.4
		c2.44-1.19,4.81-2.5,7.1-3.95c-0.8-1.57-1.58-3.14-2.33-4.73c0.64,0.14,1.91,0.4,2.55,0.54c4.39-8.21,13.94-11.09,22-14.37
		c-0.45,3.01-1.27,5.97-2.95,8.55c0.06,0.83,0.18,2.49,0.24,3.32c1.99-1.12,4.11-2.09,5.84-3.61c2.04-2.27,3.09-5.3,5.4-7.35
		c4.67-3.89,9.87-7.42,15.9-8.76c1.14,2.6,0.66,5.32-0.7,7.75c1.12,4.07,5.67,2.32,8.44,1.15c1.94-8.8,1.65-17.91,0.81-26.83
		c-0.55-3.25-0.84-7.11-3.58-9.35c-4.46-2.82-10.6-2.47-14.23-6.69c-6.52-7.4-15.88-11.9-25.61-13.1c-1.37-2.91-3-5.68-4.36-8.59
		c2.1-0.37,4.22-0.76,6.32-1.22c1.02-0.91,2.06-1.79,3.11-2.66c0.76-3.73,1.8-7.4,2.15-11.2c-3.98-1.05-7.98-2.09-11.95-3.18
		c-0.06-2.02-0.17-4.02-0.39-6.02c2.28-2.27,5.29-3.39,8.14-4.73c0.05-2.07-1.1-3.92-1.4-5.93c4.04-3.47,8.32-6.77,11.45-11.16
		c0.52,3.23,0.73,6.81,2.97,9.42c2.97,3.88,10.72,2.69,11.49-2.48c1.49-5.71-0.59-11.59-3.93-16.23c4.32,1.73,7.99,4.67,11.64,7.52
		c14.36,11.55,24.86,27.83,29.3,45.73c4.93,19.48,2.74,40.69-6.22,58.68c-8.37,17.07-22.63,31.18-39.78,39.39
		c-15.17,7.32-32.53,9.95-49.19,7.55c-19.32-2.69-37.54-12.34-50.72-26.7c-10.81-11.65-18.27-26.38-21.19-42
		c-3.56-18.53-0.81-38.22,7.86-54.99C1006.909,503.02,1022.199,488.72,1040.389,480.93 M1119.629,580.46
		c0.78-1.24,1.58-2.46,2.4-3.67c1.24,4.65,3.93,8.96,3.95,13.89C1123.259,587.68,1121.549,583.98,1119.629,580.46 M1059.979,587.09
		c1.3-3.25,0.12-6.33-0.53-9.51c1.17,1.32,2.33,2.7,3.47,4.06c-0.08,0.57-0.24,1.7-0.33,2.27
		C1061.709,584.95,1060.839,586.02,1059.979,587.09 M1103.019,590.68c1.54-2.25,4.07-3.51,6.2-5.12c1.86,2.06,3.96,3.94,5.6,6.2
		c0.44,1.74-0.87,3.42-2.08,4.54c-2.65,2.15-5.46,4.11-7.98,6.42C1103.099,598.98,1102.259,594.73,1103.019,590.68 M960.949,636.62
		C959.969,633.38,958.069,638.02,960.949,636.62L960.949,636.62z"/>
</g>
</svg>
