<?xml version="1.0" encoding="iso-8859-1"?>
<!-- Generator: Adobe Illustrator 29.7.1, SVG Export Plug-In . SVG Version: 9.03 Build 0)  -->
<svg version="1.1" id="Layer_1" xmlns="http://www.w3.org/2000/svg" xmlns:xlink="http://www.w3.org/1999/xlink" x="0px" y="0px"
	 viewBox="0 0 1920 1080" style="enable-background:new 0 0 1920 1080;" xml:space="preserve">
<g>
	<polygon style="fill-rule:evenodd;clip-rule:evenodd;fill:#FFFFFF;" points="863,444 1055.756,444 1055.756,636.756 863,636.756 
		863,444 	"/>
	<polygon style="fill-rule:evenodd;clip-rule:evenodd;fill:#13559A;" points="921.348,534.048 917.973,531.57 914.544,534.048 
		915.863,530.092 912.487,527.614 916.654,527.614 917.973,523.605 919.291,527.614 923.458,527.614 920.082,530.092 
		921.348,534.048 	"/>
	<polygon style="fill-rule:evenodd;clip-rule:evenodd;fill:#13559A;" points="915.282,510.419 911.907,507.939 908.478,510.419 
		909.797,506.41 906.421,503.931 910.588,503.931 911.907,499.975 913.225,503.931 917.392,503.931 914.016,506.41 915.282,510.419 
			"/>
	<polygon style="fill-rule:evenodd;clip-rule:evenodd;fill:#13559A;" points="921.348,486.841 917.973,484.362 914.544,486.841 
		915.863,482.833 912.487,480.406 916.654,480.406 917.973,476.398 919.291,480.406 923.458,480.406 920.082,482.833 
		921.348,486.841 	"/>
	<polygon style="fill-rule:evenodd;clip-rule:evenodd;fill:#13559A;" points="938.332,469.646 934.957,467.167 931.528,469.646 
		932.847,465.638 929.418,463.211 933.638,463.159 934.957,459.202 936.223,463.159 940.442,463.211 937.014,465.638 
		938.332,469.646 	"/>
	<polygon style="fill-rule:evenodd;clip-rule:evenodd;fill:#13559A;" points="962.753,462.948 959.325,460.521 955.949,462.948 
		957.268,458.992 953.84,456.513 958.059,456.513 959.325,452.504 960.644,456.513 964.863,456.513 961.435,458.992 
		962.753,462.948 	"/>
	<polygon style="fill-rule:evenodd;clip-rule:evenodd;fill:#13559A;" points="986.7,469.488 983.271,467.009 979.896,469.488 
		981.214,465.479 977.786,463.053 982.005,463.053 983.271,459.044 984.59,463.053 988.81,463.053 985.381,465.479 986.7,469.488 	
		"/>
	<polygon style="fill-rule:evenodd;clip-rule:evenodd;fill:#13559A;" points="1003.842,486.788 1000.414,484.31 997.038,486.788 
		998.304,482.78 994.928,480.301 999.148,480.301 1000.414,476.292 1001.732,480.301 1005.952,480.301 1002.523,482.78 
		1003.842,486.788 	"/>
	<polygon style="fill-rule:evenodd;clip-rule:evenodd;fill:#13559A;" points="1010.119,510.419 1006.743,507.939 1003.315,510.419 
		1004.633,506.41 1001.205,503.984 1005.425,503.984 1006.743,499.975 1008.009,503.984 1012.229,503.984 1008.8,506.41 
		1010.119,510.419 	"/>
	<polygon style="fill-rule:evenodd;clip-rule:evenodd;fill:#13559A;" points="1003.789,534.154 1000.414,531.675 996.985,534.154 
		998.304,530.145 994.876,527.666 999.095,527.666 1000.414,523.71 1001.68,527.666 1005.899,527.666 1002.523,530.145 
		1003.789,534.154 	"/>
	<polygon style="fill-rule:evenodd;clip-rule:evenodd;fill:#13559A;" points="986.753,551.349 983.377,548.87 979.949,551.349 
		981.267,547.34 977.839,544.861 982.058,544.861 983.377,540.905 984.643,544.861 988.862,544.861 985.434,547.34 986.753,551.349 
			"/>
	<polygon style="fill-rule:evenodd;clip-rule:evenodd;fill:#13559A;" points="962.701,557.731 959.325,555.252 955.949,557.731 
		957.215,553.723 953.84,551.243 958.007,551.243 959.325,547.235 960.644,551.243 964.811,551.243 961.435,553.723 
		962.701,557.731 	"/>
	<polygon style="fill-rule:evenodd;clip-rule:evenodd;fill:#13559A;" points="938.385,551.349 935.009,548.87 931.581,551.349 
		932.9,547.34 929.471,544.861 933.691,544.861 935.009,540.853 936.275,544.861 940.495,544.861 937.066,547.34 938.385,551.349 	
		"/>
	<path style="fill-rule:evenodd;clip-rule:evenodd;fill:#13559A;" d="M955.949,515.957c0,0.844,0.686,1.53,1.53,1.53
		s1.53-0.686,1.53-1.53c0-0.844-0.686-1.53-1.53-1.53S955.949,515.113,955.949,515.957L955.949,515.957z M956.951,518.225
		c0,0-0.475-0.422-0.949-0.738c-0.475-0.264-0.633-0.317-0.844-1.371c-0.211-1.002,0.685-1.741,0.685-1.741
		c-0.211-1.371-1.899-4.22-1.899-4.22s0,0,0.633-0.422c0.633-0.422-0.317-0.897-0.317-0.897l-1.319,0.686
		c-0.422-0.475-0.897-0.475-1.688,0.053c-0.738,0.58,0,1.371,0,1.371s-1.266,0.106-3.112,3.323
		c-1.899,3.165-1.583,4.589-1.583,4.589c1.583-3.798,4.853-6.277,5.538-7.015c0.633-0.686,0.95-0.158,0.95-0.158l1.055,2.373
		c-0.369,1.055,0.053,1.582,0.053,1.582s-1.635,1.582-2.163,2.163c-0.58,0.633-0.158,1.319-0.158,1.319s1.635,1.74,2.11,1.846
		c0.528,0.105,0.422-0.264,1.266,0.105c0.897,0.369,0.738,3.217,0.738,3.217s-0.897,1.266-1.161,1.794
		c-0.264,0.58,0.158,0.738,0.158,0.738c-0.633,1.055-1.319,1.213-1.319,1.213s0-1.213,0.053-2.637c0-1.424,0.95-3.481,0.422-4.009
		c-0.58-0.528-2.004-0.528-2.004-0.528c-0.264-1.318-1.002-1.635-1.002-1.635l-2.69,0.369c-1.055,0.158-1.371,0.58-2.004,1.107
		c-0.633,0.528-0.105,3.218-0.105,3.218s1.424,4.272,1.794,5.538c0.369,1.266,1.16,0.949,1.635,0.949
		c0.422,0-0.264-2.057-0.264-2.057s-1.477-4.325-0.738-5.486c0.738-1.213,2.532-0.264,2.532-0.264c0,3.323,0.316,4.8,0.369,6.013
		c0.053,1.16,0.844,5.486,1.74,4.905c0.844-0.58,0.58-1.846,0.58-1.846l-0.369-2.69c1.635-0.897,3.323-1.794,4.22-3.798
		c0.897-2.004,0.105-4.431,0.105-4.431l-0.897,1.846L956.951,518.225L956.951,518.225z M959.747,515.957
		c0,0.844,0.686,1.53,1.53,1.53c0.844,0,1.53-0.686,1.53-1.53c0-0.844-0.686-1.53-1.53-1.53
		C960.433,514.427,959.747,515.113,959.747,515.957L959.747,515.957z M961.804,518.225v4.378l-0.897-1.846
		c0,0-0.791,2.426,0.053,4.431c0.897,2.004,2.637,2.901,4.22,3.798l-0.369,2.69c0,0-0.264,1.266,0.633,1.846
		c0.844,0.58,1.635-3.745,1.688-4.905c0.106-1.213,0.422-2.69,0.369-6.013c0,0,1.846-0.949,2.585,0.264
		c0.738,1.161-0.738,5.486-0.738,5.486s-0.738,2.057-0.264,2.057c0.475,0,1.213,0.316,1.582-0.949
		c0.422-1.266,1.846-5.538,1.846-5.538s0.528-2.69-0.158-3.218c-0.633-0.528-0.897-0.949-1.952-1.107l-2.69-0.369
		c0,0-0.791,0.317-1.002,1.635c0,0-1.477,0-2.004,0.528c-0.528,0.528,0.369,2.585,0.422,4.009s0.053,2.637,0.053,2.637
		s-0.738-0.158-1.319-1.213c0,0,0.422-0.158,0.158-0.738c-0.264-0.528-1.213-1.794-1.213-1.794s-0.158-2.848,0.738-3.217
		c0.897-0.369,0.791,0,1.266-0.105c0.475-0.106,2.163-1.846,2.163-1.846s0.422-0.686-0.158-1.319
		c-0.58-0.58-2.215-2.163-2.215-2.163s0.422-0.527,0.053-1.582l1.055-2.373c0,0,0.317-0.528,1.002,0.158
		c0.633,0.738,3.956,3.217,5.486,7.015c0,0,0.316-1.424-1.53-4.589c-1.899-3.217-3.165-3.323-3.165-3.323s0.791-0.791,0-1.371
		c-0.791-0.528-1.213-0.528-1.635-0.053l-1.371-0.686c0,0-0.897,0.475-0.317,0.897c0.633,0.422,0.686,0.422,0.686,0.422
		s-1.688,2.848-1.952,4.22c0,0,0.95,0.738,0.686,1.741c-0.211,1.055-0.369,1.107-0.844,1.371
		C962.332,517.803,961.804,518.225,961.804,518.225L961.804,518.225z M955.316,505.566v1.424l4.061-2.585l4.061,2.585v-1.424
		l-4.061-2.585L955.316,505.566L955.316,505.566z M943.027,485.364v1.793l0.053,0.053l11.235-9.758l-0.897-1.055L943.027,485.364
		L943.027,485.364z M975.782,485.364l-10.338-8.967l-0.949,1.055l11.235,9.758l0.053-0.053V485.364L975.782,485.364z
		 M959.431,474.71l-16.404,14.505v5.116c3.64-12.554,16.193-12.079,16.193-12.079s0.105,0,0.211,0c0.158,0,0.264,0,0.264,0
		s12.395-0.475,15.982,12.079v-5.116L959.431,474.71L959.431,474.71z M945.295,516.906v-15.032h6.909v5.169h2.374v-5.222h4.8h4.853
		v5.222h2.374v-5.169h6.909v15.032h1.424V497.39c-2.215-14.189-15.56-13.714-15.56-13.714s-13.292-0.475-15.507,13.714v19.516
		H945.295L945.295,516.906z M938.385,518.014c0-0.158,0-0.316,0-0.422V488.16l-1.741-2.268h2.901v-5.327h-0.475l2.163-8.492
		l2.268,8.334h-0.475v2.954l10.338-8.914l1.846,2.11l4.272-3.745l4.22,3.745l1.846-2.11l10.338,8.914v-2.954h-0.475l2.268-8.334
		l2.163,8.492h-0.475v5.327h2.901l-1.741,2.268v29.432c0,0.105,0,0.264,0,0.422c0,0.106,0,0.264,0,0.422v0.158
		c-0.316,11.182-9.652,20.149-21.045,20.149c-11.446,0-20.729-8.967-21.046-20.149l-0.053-0.158
		C938.385,518.278,938.385,518.12,938.385,518.014L938.385,518.014z"/>
	<path style="fill-rule:evenodd;clip-rule:evenodd;fill:#13559A;" d="M949.145,492.96c1.108-4.641,5.274-8.123,10.233-8.123
		c4.958,0,9.125,3.481,10.233,8.123H949.145L949.145,492.96z"/>
	<polygon style="fill-rule:evenodd;clip-rule:evenodd;fill:#13559A;" points="948.143,496.441 949.989,496.441 949.04,499.289 
		947.193,499.236 948.143,496.441 	"/>
	<polygon style="fill-rule:evenodd;clip-rule:evenodd;fill:#13559A;" points="970.454,496.441 968.608,496.441 969.558,499.289 
		971.404,499.236 970.454,496.441 	"/>
	<polygon style="fill-rule:evenodd;clip-rule:evenodd;fill:#13559A;" points="964.336,496.336 966.182,496.388 965.233,499.184 
		963.65,499.184 962.068,499.184 961.118,496.388 962.965,496.336 963.65,498.393 964.336,496.336 	"/>
	<polygon style="fill-rule:evenodd;clip-rule:evenodd;fill:#13559A;" points="955.844,496.336 957.69,496.388 956.688,499.184 
		955.105,499.184 953.576,499.184 952.574,496.388 954.42,496.336 955.105,498.393 955.844,496.336 	"/>
	<path style="fill-rule:evenodd;clip-rule:evenodd;fill:#13559A;" d="M896.558,583.577h0.422c1.055,0,1.793-0.211,2.321-0.633
		c0.474-0.369,0.738-1.055,0.738-1.899c0-0.897-0.264-1.53-0.792-2.004c-0.474-0.422-1.266-0.633-2.321-0.633h-0.369V583.577
		L896.558,583.577z M896.558,591.963l0.264,0.053h0.264c1.055,0,1.846-0.211,2.321-0.633c0.475-0.422,0.686-1.108,0.686-2.057
		c0-0.949-0.211-1.688-0.686-2.11c-0.475-0.422-1.266-0.633-2.374-0.633h-0.474V591.963L896.558,591.963z M892.549,595.655v-20.624
		h4.009c2.69,0,4.536,0.422,5.696,1.266c1.107,0.844,1.688,2.268,1.688,4.22c0,1.107-0.211,2.057-0.633,2.743
		c-0.422,0.738-1.107,1.318-2.004,1.74c1.002,0.369,1.741,0.949,2.216,1.688c0.475,0.791,0.738,1.794,0.738,3.059
		c0,0.897-0.158,1.74-0.475,2.532c-0.317,0.738-0.791,1.371-1.371,1.899c-0.58,0.528-1.319,0.897-2.11,1.107
		c-0.844,0.211-2.163,0.369-3.956,0.369H892.549L892.549,595.655z"/>
	<path style="fill-rule:evenodd;clip-rule:evenodd;fill:#13559A;" d="M919.924,575.032v12.923c0,1.635-0.053,2.743-0.158,3.376
		c-0.105,0.633-0.264,1.213-0.474,1.635c-0.475,1.002-1.213,1.741-2.163,2.215c-0.95,0.475-2.163,0.738-3.639,0.738
		c-0.738,0-1.424-0.105-2.004-0.211c-0.633-0.105-1.161-0.264-1.635-0.528c-0.949-0.474-1.688-1.213-2.163-2.215
		c-0.211-0.422-0.369-0.949-0.474-1.635c-0.053-0.317-0.105-0.739-0.105-1.371c-0.053-0.58-0.053-1.266-0.053-2.004v-0.58v-12.342
		h4.114v13.292c0,1.635,0.159,2.743,0.475,3.217c0.369,0.475,0.949,0.738,1.846,0.738c0.897,0,1.477-0.264,1.846-0.738
		c0.317-0.474,0.475-1.582,0.475-3.217v-13.292H919.924L919.924,575.032z"/>
	<path style="fill-rule:evenodd;clip-rule:evenodd;fill:#13559A;" d="M925.515,595.655v-9.705l-4.747-10.918h4.325l1.319,3.745
		c0.264,0.58,0.475,1.266,0.686,2.004l0.633,2.004c0.158-0.738,0.316-1.477,0.527-2.11c0.106-0.369,0.211-0.633,0.264-0.949
		c0.105-0.264,0.211-0.527,0.369-0.844l1.477-3.85h4.009l-4.8,10.918v9.705H925.515L925.515,595.655z"/>
	<path style="fill-rule:evenodd;clip-rule:evenodd;fill:#13559A;" d="M948.143,575.032v12.923c0,1.635-0.053,2.743-0.159,3.376
		c-0.053,0.633-0.211,1.213-0.474,1.635c-0.475,1.002-1.213,1.741-2.163,2.215c-0.95,0.475-2.163,0.738-3.639,0.738
		c-0.739,0-1.424-0.105-2.004-0.211c-0.633-0.105-1.16-0.264-1.635-0.528c-0.949-0.474-1.688-1.213-2.163-2.215
		c-0.211-0.422-0.369-0.949-0.475-1.635c-0.053-0.317-0.106-0.739-0.106-1.371c-0.053-0.58-0.053-1.266-0.053-2.004v-0.58v-12.342
		h4.114v13.292c0,1.635,0.158,2.743,0.475,3.217c0.369,0.475,0.949,0.738,1.846,0.738c0.897,0,1.53-0.264,1.846-0.738
		c0.317-0.474,0.528-1.582,0.528-3.217v-13.292H948.143L948.143,575.032z"/>
	<polygon style="fill-rule:evenodd;clip-rule:evenodd;fill:#13559A;" points="951.782,595.603 951.782,575.032 955.738,575.032 
		955.738,583.999 959.8,575.032 964.072,575.032 959.8,584.42 964.178,595.603 959.8,595.603 955.738,585.581 955.738,595.603 
		951.782,595.603 	"/>
	<path style="fill-rule:evenodd;clip-rule:evenodd;fill:#13559A;" d="M965.443,594.917v-4.272c0.475,0.422,1.002,0.791,1.477,1.002
		c0.527,0.211,1.055,0.369,1.53,0.369c0.686,0,1.213-0.211,1.635-0.58c0.211-0.158,0.369-0.369,0.474-0.633
		c0.105-0.264,0.159-0.528,0.159-0.844c0-0.791-0.58-1.635-1.635-2.532l-0.686-0.633c-1.266-1.107-2.11-2.109-2.584-3.006
		c-0.475-0.897-0.738-1.952-0.738-3.059c0-1.793,0.527-3.218,1.53-4.325c1.002-1.055,2.321-1.635,3.903-1.635
		c0.58,0,1.16,0.105,1.741,0.264c0.527,0.158,1.16,0.422,1.74,0.738v3.639c-0.686-0.316-1.266-0.58-1.688-0.686
		c-0.422-0.158-0.738-0.211-1.055-0.211c-0.58,0-1.055,0.158-1.424,0.528c-0.422,0.422-0.58,0.897-0.58,1.477
		c0,0.527,0.106,1.002,0.422,1.477c0.264,0.474,0.949,1.107,1.952,2.004c1.424,1.213,2.268,2.215,2.69,2.954
		c0.369,0.791,0.58,1.74,0.58,2.848c0,1.899-0.527,3.376-1.582,4.483c-1.055,1.055-2.479,1.635-4.325,1.635
		c-0.369,0-0.686-0.053-1.002-0.105c-0.317,0-0.633-0.053-0.95-0.158C966.446,595.497,965.918,595.233,965.443,594.917
		L965.443,594.917z"/>
	<polygon style="fill-rule:evenodd;clip-rule:evenodd;fill:#13559A;" points="977.68,595.655 977.68,575.032 986.384,575.032 
		986.384,578.829 981.689,578.829 981.689,582.996 985.909,582.996 985.909,586.794 981.689,586.794 981.689,591.594 
		986.384,591.594 986.384,595.655 977.68,595.655 	"/>
	<polygon style="fill-rule:evenodd;clip-rule:evenodd;fill:#13559A;" points="989.654,595.655 989.654,575.032 993.768,575.032 
		993.768,582.68 998.357,582.68 998.357,575.032 1002.471,575.032 1002.471,595.655 998.357,595.655 998.357,586.688 
		993.768,586.688 993.768,595.655 989.654,595.655 	"/>
	<polygon style="fill-rule:evenodd;clip-rule:evenodd;fill:#13559A;" points="1006.374,595.655 1006.374,575.032 1010.541,575.032 
		1010.541,595.655 1006.374,595.655 	"/>
	<path style="fill-rule:evenodd;clip-rule:evenodd;fill:#13559A;" d="M1018.505,583.999h0.211h0.264
		c0.897,0,1.582-0.264,2.004-0.738c0.474-0.528,0.686-1.266,0.686-2.216c0-1.002-0.211-1.74-0.633-2.163
		c-0.422-0.422-1.055-0.686-2.004-0.686h-0.317h-0.211V583.999L1018.505,583.999z M1014.497,595.655v-20.624h4.325
		c2.321,0,4.008,0.475,5.064,1.371c1.107,0.949,1.635,2.426,1.635,4.431c0,1.477-0.316,2.637-0.844,3.534
		c-0.528,0.897-1.371,1.53-2.427,1.846l3.956,9.441h-4.325l-3.376-8.545v8.545H1014.497L1014.497,595.655z"/>
	<path style="fill-rule:evenodd;clip-rule:evenodd;fill:#13559A;" d="M908.056,571.656c0-0.58,0.211-1.107,0.686-1.582
		c0.475-0.475,1.002-0.686,1.582-0.686c0.633,0,1.161,0.211,1.635,0.686c0.475,0.422,0.686,0.949,0.686,1.582
		s-0.211,1.213-0.633,1.635c-0.475,0.475-1.002,0.686-1.688,0.686c-0.633,0-1.16-0.211-1.582-0.686
		C908.267,572.817,908.056,572.289,908.056,571.656L908.056,571.656z M914.333,571.656c0-0.633,0.264-1.161,0.686-1.582
		c0.474-0.475,1.002-0.686,1.635-0.686c0.58,0,1.108,0.211,1.582,0.686c0.475,0.422,0.738,0.949,0.738,1.582
		s-0.211,1.213-0.686,1.635c-0.422,0.475-1.002,0.686-1.635,0.686s-1.161-0.211-1.635-0.686
		C914.597,572.817,914.333,572.289,914.333,571.656L914.333,571.656z"/>
	<path style="fill-rule:evenodd;clip-rule:evenodd;fill:#13559A;" d="M908.056,571.656c0-0.58,0.211-1.107,0.686-1.582
		c0.475-0.475,1.002-0.686,1.582-0.686c0.633,0,1.161,0.211,1.635,0.686c0.475,0.422,0.686,0.949,0.686,1.582
		s-0.211,1.213-0.633,1.635c-0.475,0.475-1.002,0.686-1.688,0.686c-0.633,0-1.16-0.211-1.582-0.686
		C908.267,572.817,908.056,572.289,908.056,571.656L908.056,571.656z"/>
	<path style="fill-rule:evenodd;clip-rule:evenodd;fill:#13559A;" d="M914.333,571.656c0-0.633,0.264-1.161,0.686-1.582
		c0.474-0.475,1.002-0.686,1.635-0.686c0.58,0,1.108,0.211,1.582,0.686c0.475,0.422,0.738,0.949,0.738,1.582
		s-0.211,1.213-0.686,1.635c-0.422,0.475-1.002,0.686-1.635,0.686s-1.161-0.211-1.635-0.686
		C914.597,572.817,914.333,572.289,914.333,571.656L914.333,571.656z"/>
	<path style="fill-rule:evenodd;clip-rule:evenodd;fill:#13559A;" d="M936.328,571.656c0-0.58,0.211-1.107,0.686-1.582
		c0.422-0.475,0.949-0.686,1.582-0.686c0.58,0,1.108,0.211,1.582,0.686c0.475,0.422,0.738,0.949,0.738,1.582
		s-0.211,1.213-0.686,1.635c-0.422,0.475-1.002,0.686-1.635,0.686s-1.16-0.211-1.635-0.686
		C936.539,572.817,936.328,572.289,936.328,571.656L936.328,571.656z M942.605,571.656c0-0.633,0.211-1.161,0.686-1.582
		c0.475-0.475,1.002-0.686,1.582-0.686c0.633,0,1.16,0.211,1.635,0.686c0.475,0.422,0.686,0.949,0.686,1.582
		s-0.211,1.213-0.633,1.635c-0.475,0.475-1.002,0.686-1.688,0.686c-0.633,0-1.161-0.211-1.582-0.686
		C942.816,572.817,942.605,572.289,942.605,571.656L942.605,571.656z"/>
	<path style="fill-rule:evenodd;clip-rule:evenodd;fill:#13559A;" d="M936.328,571.656c0-0.58,0.211-1.107,0.686-1.582
		c0.422-0.475,0.949-0.686,1.582-0.686c0.58,0,1.108,0.211,1.582,0.686c0.475,0.422,0.738,0.949,0.738,1.582
		s-0.211,1.213-0.686,1.635c-0.422,0.475-1.002,0.686-1.635,0.686s-1.16-0.211-1.635-0.686
		C936.539,572.817,936.328,572.289,936.328,571.656L936.328,571.656z"/>
	<path style="fill-rule:evenodd;clip-rule:evenodd;fill:#13559A;" d="M942.605,571.656c0-0.633,0.211-1.161,0.686-1.582
		c0.475-0.475,1.002-0.686,1.582-0.686c0.633,0,1.16,0.211,1.635,0.686c0.475,0.422,0.686,0.949,0.686,1.582
		s-0.211,1.213-0.633,1.635c-0.475,0.475-1.002,0.686-1.688,0.686c-0.633,0-1.161-0.211-1.582-0.686
		C942.816,572.817,942.605,572.289,942.605,571.656L942.605,571.656z"/>
	<path style="fill-rule:evenodd;clip-rule:evenodd;fill:#13559A;" d="M1006.163,571.656c0-0.633,0.211-1.161,0.686-1.582
		c0.475-0.475,1.002-0.686,1.582-0.686c0.633,0,1.16,0.211,1.635,0.686c0.475,0.422,0.686,0.949,0.686,1.582
		s-0.211,1.213-0.633,1.635c-0.475,0.475-1.002,0.686-1.688,0.686c-0.58,0-1.161-0.211-1.582-0.686
		C1006.374,572.817,1006.163,572.289,1006.163,571.656L1006.163,571.656z"/>
	<path style="fill-rule:evenodd;clip-rule:evenodd;fill:#13559A;" d="M905.577,615.962h0.422c1.055,0,1.794-0.211,2.321-0.633
		c0.475-0.422,0.738-1.055,0.738-1.899c0-0.897-0.264-1.582-0.738-2.004c-0.527-0.474-1.319-0.686-2.321-0.686h-0.422V615.962
		L905.577,615.962z M905.577,624.296l0.264,0.053h0.316c1.055,0,1.793-0.211,2.268-0.633c0.475-0.422,0.738-1.108,0.738-2.004
		c0-1.002-0.264-1.688-0.738-2.11c-0.475-0.422-1.266-0.633-2.373-0.633h-0.475V624.296L905.577,624.296z M901.569,627.988v-20.571
		h4.009c2.69,0,4.589,0.422,5.696,1.213c1.108,0.844,1.688,2.268,1.688,4.272c0,1.108-0.211,2.004-0.633,2.743
		c-0.422,0.738-1.108,1.319-2.004,1.741c1.002,0.369,1.741,0.897,2.215,1.688c0.475,0.738,0.738,1.793,0.738,3.006
		c0,0.95-0.158,1.793-0.475,2.532c-0.317,0.738-0.738,1.371-1.371,1.899c-0.58,0.527-1.266,0.897-2.11,1.16
		c-0.844,0.211-2.163,0.317-3.956,0.317H901.569L901.569,627.988z"/>
	<polygon style="fill-rule:evenodd;clip-rule:evenodd;fill:#13559A;" points="916.179,627.988 916.179,607.418 924.882,607.418 
		924.882,611.215 920.188,611.215 920.188,615.382 924.407,615.382 924.407,619.127 920.188,619.127 920.188,623.98 924.882,623.98 
		924.882,627.988 916.179,627.988 	"/>
	<polygon style="fill-rule:evenodd;clip-rule:evenodd;fill:#13559A;" points="928.205,627.988 928.205,607.418 932.267,607.418 
		932.267,623.98 936.908,623.98 936.908,627.988 928.205,627.988 	"/>
	<polygon style="fill-rule:evenodd;clip-rule:evenodd;fill:#13559A;" points="939.071,627.988 939.071,607.418 947.721,607.418 
		947.721,611.215 943.079,611.215 943.079,615.382 947.299,615.382 947.299,619.127 943.079,619.127 943.079,623.98 947.721,623.98 
		947.721,627.988 939.071,627.988 	"/>
	<path style="fill-rule:evenodd;clip-rule:evenodd;fill:#13559A;" d="M955.158,624.19h0.316c1.424,0,2.532-0.58,3.323-1.688
		c0.791-1.055,1.16-2.69,1.16-4.747c0-2.215-0.369-3.903-1.107-4.958c-0.738-1.107-1.899-1.635-3.429-1.635h-0.264V624.19
		L955.158,624.19z M951.044,627.988v-20.571h3.534c3.217,0,5.538,0.844,7.121,2.532c0.791,0.844,1.371,1.899,1.793,3.218
		c0.369,1.266,0.58,2.796,0.58,4.536c0,2.11-0.316,3.851-0.844,5.275c-0.58,1.371-1.477,2.532-2.743,3.481
		c-0.686,0.528-1.53,0.95-2.479,1.161c-0.897,0.264-2.216,0.369-3.851,0.369H951.044L951.044,627.988z"/>
	<polygon style="fill-rule:evenodd;clip-rule:evenodd;fill:#13559A;" points="967.342,627.988 967.342,607.418 971.509,607.418 
		971.509,627.988 967.342,627.988 	"/>
	<path style="fill-rule:evenodd;clip-rule:evenodd;fill:#13559A;" d="M977.469,627.988v-9.653l-4.8-10.918h4.378l1.319,3.692
		c0.264,0.633,0.475,1.319,0.686,2.004l0.633,2.004c0.158-0.738,0.317-1.424,0.527-2.11c0.105-0.316,0.211-0.633,0.264-0.897
		c0.105-0.264,0.211-0.58,0.317-0.897l1.53-3.798h4.009l-4.8,10.918v9.653H977.469L977.469,627.988z"/>
	<polygon style="fill-rule:evenodd;clip-rule:evenodd;fill:#13559A;" points="987.333,627.988 987.333,607.418 995.983,607.418 
		995.983,611.215 991.342,611.215 991.342,615.382 995.561,615.382 995.561,619.127 991.342,619.127 991.342,623.98 995.983,623.98 
		995.983,627.988 987.333,627.988 	"/>
	<path style="fill-rule:evenodd;clip-rule:evenodd;fill:#13559A;" d="M998.673,627.25v-4.272c0.528,0.475,1.055,0.791,1.53,1.055
		c0.528,0.211,1.002,0.316,1.53,0.316c0.686,0,1.213-0.158,1.635-0.527c0.211-0.211,0.369-0.422,0.474-0.686
		c0.106-0.211,0.158-0.475,0.158-0.844c0-0.792-0.58-1.635-1.635-2.532l-0.686-0.58c-1.266-1.108-2.11-2.163-2.584-3.059
		c-0.475-0.897-0.738-1.899-0.738-3.059c0-1.741,0.527-3.165,1.53-4.272c1.002-1.108,2.321-1.635,3.903-1.635
		c0.58,0,1.161,0.053,1.688,0.211c0.58,0.158,1.16,0.422,1.793,0.791v3.639c-0.686-0.369-1.266-0.58-1.688-0.738
		c-0.422-0.105-0.791-0.211-1.055-0.211c-0.58,0-1.107,0.211-1.477,0.58c-0.369,0.369-0.528,0.844-0.528,1.477
		c0,0.475,0.106,1.002,0.422,1.424c0.264,0.475,0.897,1.161,1.952,2.057c1.371,1.161,2.268,2.163,2.69,2.954
		c0.369,0.791,0.58,1.741,0.58,2.848c0,1.846-0.527,3.323-1.582,4.431c-1.055,1.107-2.532,1.635-4.325,1.635
		c-0.369,0-0.686,0-1.002-0.053c-0.317-0.053-0.633-0.105-0.95-0.211C999.728,627.83,999.201,627.619,998.673,627.25L998.673,627.25
		z"/>
	<polygon style="fill-rule:evenodd;clip-rule:evenodd;fill:#13559A;" points="1011.121,627.988 1011.121,607.418 1015.341,607.418 
		1015.341,627.988 1011.121,627.988 	"/>
	<path style="fill-rule:evenodd;clip-rule:evenodd;fill:#13559A;" d="M1010.752,603.725c0-0.58,0.264-1.108,0.686-1.582
		c0.475-0.475,1.002-0.686,1.635-0.686c0.58,0,1.108,0.211,1.583,0.686c0.474,0.475,0.738,1.002,0.738,1.582
		c0,0.686-0.211,1.213-0.686,1.688c-0.422,0.422-1.002,0.633-1.635,0.633c-0.633,0-1.16-0.211-1.635-0.686
		C1011.016,604.886,1010.752,604.358,1010.752,603.725L1010.752,603.725z"/>
	<path style="fill-rule:evenodd;clip-rule:evenodd;fill:#13559A;" d="M967.184,603.725c0-0.58,0.211-1.108,0.685-1.582
		c0.422-0.475,0.95-0.686,1.583-0.686c0.58,0,1.16,0.211,1.635,0.686c0.475,0.475,0.686,1.002,0.686,1.582
		c0,0.686-0.211,1.213-0.686,1.688c-0.422,0.422-1.002,0.633-1.635,0.633c-0.633,0-1.161-0.211-1.635-0.686
		C967.395,604.886,967.184,604.358,967.184,603.725L967.184,603.725z"/>
	<polygon style="fill-rule:evenodd;clip-rule:evenodd;fill:#13559A;" points="969.558,596.605 972.301,597.923 969.61,601.668 
		967.395,600.666 969.558,596.605 	"/>
</g>
</svg>
