<?xml version="1.0" encoding="UTF-8"?>
<svg id="Layer_2" data-name="Layer 2" xmlns="http://www.w3.org/2000/svg" xmlns:xlink="http://www.w3.org/1999/xlink" viewBox="0 0 609.07 605.79">
  <defs>
    <style>
      .cls-1, .cls-2 {
        fill: none;
      }

      .cls-3 {
        fill: #1b74b9;
      }

      .cls-4 {
        fill: #1470b3;
      }

      .cls-5 {
        fill: #1571b4;
      }

      .cls-6 {
        fill: #1663a0;
      }

      .cls-7 {
        fill: #25404e;
      }

      .cls-8 {
        fill: #27455a;
      }

      .cls-9 {
        fill: #116aab;
      }

      .cls-10 {
        fill: #1370b5;
      }

      .cls-11 {
        fill: #255481;
      }

      .cls-12 {
        fill: #fff;
        fill-rule: evenodd;
      }

      .cls-13 {
        fill: #1d5d95;
      }

      .cls-14 {
        fill: #264354;
      }

      .cls-15 {
        fill: #1e3439;
      }

      .cls-16 {
        fill: #274c68;
      }

      .cls-17 {
        fill: #1268a8;
      }

      .cls-18 {
        fill: #274456;
      }

      .cls-19 {
        fill: #1d3337;
      }

      .cls-20 {
        fill: #223a42;
      }

      .cls-21 {
        fill: #1463a0;
      }

      .cls-22 {
        fill: #1664a2;
      }

      .cls-23 {
        fill: #264c6b;
      }

      .cls-24 {
        fill: #1e5c93;
      }

      .cls-25 {
        fill: #1567a7;
      }

      .cls-26 {
        fill: #1565a4;
      }

      .cls-27 {
        fill: #264151;
      }

      .cls-28 {
        fill: #1772b6;
      }

      .cls-29 {
        fill: #16619c;
      }

      .cls-30 {
        fill: #1f3338;
      }

      .cls-31 {
        clip-path: url(#clippath-1);
      }

      .cls-32 {
        fill: #274860;
      }

      .cls-33 {
        fill: #1468a8;
      }

      .cls-34 {
        fill: #20598b;
      }

      .cls-35 {
        fill: #274d6d;
      }

      .cls-36 {
        fill: #195f9a;
      }

      .cls-37 {
        fill: #245581;
      }

      .cls-38 {
        fill: #21393f;
      }

      .cls-39 {
        fill: #14487f;
      }

      .cls-40 {
        fill: #1f5c91;
      }

      .cls-41 {
        fill: #225a8c;
      }

      .cls-2 {
        stroke: #fff;
        stroke-width: 7px;
      }

      .cls-2, .cls-42 {
        stroke-miterlimit: 3.86;
      }

      .cls-43 {
        fill: #136cad;
      }

      .cls-44 {
        fill: #215785;
      }

      .cls-45 {
        fill: #1e75b8;
      }

      .cls-46 {
        fill: #126aaa;
      }

      .cls-47 {
        fill: #27475e;
      }

      .cls-48 {
        fill: #17629d;
      }

      .cls-49 {
        fill: #1c3033;
      }

      .cls-50 {
        fill: #225684;
      }

      .cls-51 {
        fill: #1771b5;
      }

      .cls-52 {
        fill: #25537b;
      }

      .cls-53 {
        fill: #156db1;
      }

      .cls-54 {
        fill: #0e6cae;
      }

      .cls-55 {
        fill: #1f76bb;
      }

      .cls-56 {
        fill: #1d5d94;
      }

      .cls-57 {
        fill: #25547e;
      }

      .cls-58 {
        fill: #1f75b9;
      }

      .cls-42 {
        fill: url(#Adsız_degrade_6);
        stroke: url(#Silver_2);
        stroke-width: 3px;
      }

      .cls-59 {
        fill: #1267a6;
      }

      .cls-60 {
        fill: #1e3136;
      }

      .cls-61 {
        fill: #1365a3;
      }

      .cls-62 {
        fill: #243f4c;
      }

      .cls-63 {
        fill: #146daf;
      }

      .cls-64 {
        fill: #274f71;
      }

      .cls-65 {
        fill: #1e3135;
      }

      .cls-66 {
        fill: #1169a9;
      }

      .cls-67 {
        fill: #245177;
      }

      .cls-68 {
        fill: #264a63;
      }

      .cls-69 {
        fill: #243d49;
      }

      .cls-70 {
        fill: #25537c;
      }

      .cls-71 {
        fill: #146fb2;
      }

      .cls-72 {
        fill: #274f73;
      }

      .cls-73 {
        fill: #1974b8;
      }

      .cls-74 {
        fill: #1a5f99;
      }

      .cls-75 {
        fill: #274a66;
      }

      .cls-76 {
        fill: #156eb0;
      }

      .cls-77 {
        fill: #1f363c;
      }

      .cls-78 {
        fill: #215888;
      }

      .cls-79 {
        fill: #215886;
      }

      .cls-80 {
        clip-path: url(#clippath);
      }

      .cls-81 {
        fill: #223b46;
      }

      .cls-82 {
        fill: #225889;
      }

      .cls-83 {
        fill: #225b8f;
      }

      .cls-84 {
        fill: #1873b7;
      }
    </style>
    <linearGradient id="Adsız_degrade_6" data-name="Adsız degrade 6" x1="153.61" y1="41.48" x2="455.46" y2="564.31" gradientUnits="userSpaceOnUse">
      <stop offset="0" stop-color="#767a7b"/>
      <stop offset=".22" stop-color="#75797a"/>
      <stop offset=".44" stop-color="#fff7f6"/>
      <stop offset=".47" stop-color="#f6eeed"/>
      <stop offset=".52" stop-color="#ddd8d8"/>
      <stop offset=".58" stop-color="#b6b4b4"/>
      <stop offset=".65" stop-color="#7f8283"/>
      <stop offset=".66" stop-color="#75797a"/>
      <stop offset=".86" stop-color="#fff7f6"/>
      <stop offset="1" stop-color="#767a7b"/>
    </linearGradient>
    <linearGradient id="Silver_2" data-name="Silver 2" x1="0" y1="302.89" x2="609.07" y2="302.89" gradientUnits="userSpaceOnUse">
      <stop offset="0" stop-color="#e7e5e2"/>
      <stop offset="0" stop-color="#dfdbd8"/>
      <stop offset=".06" stop-color="#d0cccb"/>
      <stop offset=".18" stop-color="#a9a6a9"/>
      <stop offset=".26" stop-color="#8c8a90"/>
      <stop offset=".52" stop-color="#f3f2f1"/>
      <stop offset=".59" stop-color="#e4e3e2"/>
      <stop offset=".71" stop-color="#bdbcbd"/>
      <stop offset=".88" stop-color="#807f83"/>
      <stop offset="1" stop-color="#d0d2d1"/>
      <stop offset="1" stop-color="#a5a8a9"/>
    </linearGradient>
    <clipPath id="clippath">
      <ellipse class="cls-2" cx="304.53" cy="302.89" rx="248.45" ry="248.31"/>
    </clipPath>
    <clipPath id="clippath-1">
      <ellipse class="cls-1" cx="304.53" cy="302.89" rx="248.45" ry="248.31"/>
    </clipPath>
  </defs>
  <g id="Foreground">
    <ellipse class="cls-42" cx="304.53" cy="302.89" rx="303.03" ry="301.39"/>
    <g>
      <g>
        <g class="cls-80">
          <g class="cls-31">
            <g>
              <polygon class="cls-39" points="56.08 54.59 552.99 54.59 552.99 551.2 56.08 551.2 56.08 54.59 56.08 54.59"/>
              <ellipse class="cls-49" cx="304.5" cy="303.04" rx="269.72" ry="264.27"/>
              <ellipse class="cls-65" cx="304.5" cy="303.01" rx="266.26" ry="260.88"/>
              <ellipse class="cls-60" cx="304.51" cy="302.97" rx="262.8" ry="257.49"/>
              <ellipse class="cls-19" cx="304.52" cy="302.94" rx="259.34" ry="254.11"/>
              <ellipse class="cls-30" cx="304.53" cy="302.9" rx="255.89" ry="250.72"/>
              <ellipse class="cls-15" cx="304.53" cy="303.02" rx="252.43" ry="247.33"/>
              <ellipse class="cls-77" cx="304.48" cy="302.98" rx="248.97" ry="243.94"/>
              <ellipse class="cls-38" cx="304.49" cy="302.95" rx="245.51" ry="240.55"/>
              <ellipse class="cls-20" cx="304.49" cy="302.91" rx="242.05" ry="237.17"/>
              <ellipse class="cls-81" cx="304.5" cy="303.03" rx="238.59" ry="233.78"/>
              <ellipse class="cls-69" cx="304.51" cy="302.99" rx="235.14" ry="230.39"/>
              <ellipse class="cls-62" cx="304.52" cy="302.96" rx="231.68" ry="227"/>
              <ellipse class="cls-7" cx="304.53" cy="302.93" rx="228.22" ry="223.61"/>
              <ellipse class="cls-27" cx="304.53" cy="303.04" rx="224.76" ry="220.22"/>
              <ellipse class="cls-14" cx="304.48" cy="303.01" rx="221.3" ry="216.84"/>
              <ellipse class="cls-18" cx="304.49" cy="302.97" rx="217.85" ry="213.45"/>
              <ellipse class="cls-8" cx="304.49" cy="302.94" rx="214.39" ry="210.06"/>
              <ellipse class="cls-47" cx="304.5" cy="302.9" rx="210.93" ry="206.67"/>
              <ellipse class="cls-32" cx="304.51" cy="303.02" rx="207.47" ry="203.28"/>
              <ellipse class="cls-68" cx="304.52" cy="302.98" rx="204.02" ry="199.9"/>
              <ellipse class="cls-75" cx="304.52" cy="302.95" rx="200.56" ry="196.51"/>
              <ellipse class="cls-16" cx="304.53" cy="302.91" rx="197.1" ry="193.12"/>
              <ellipse class="cls-23" cx="304.48" cy="303.03" rx="193.64" ry="189.73"/>
              <ellipse class="cls-35" cx="304.48" cy="303" rx="190.18" ry="186.34"/>
              <ellipse class="cls-64" cx="304.49" cy="302.96" rx="186.72" ry="182.96"/>
              <ellipse class="cls-72" cx="304.5" cy="302.93" rx="183.27" ry="179.57"/>
              <ellipse class="cls-67" cx="304.51" cy="303.04" rx="179.81" ry="176.18"/>
              <ellipse class="cls-67" cx="304.52" cy="303.01" rx="176.35" ry="172.79"/>
              <ellipse class="cls-52" cx="304.52" cy="302.97" rx="172.9" ry="169.4"/>
              <ellipse class="cls-70" cx="304.53" cy="302.94" rx="169.44" ry="166.02"/>
              <ellipse class="cls-57" cx="304.48" cy="302.9" rx="165.98" ry="162.63"/>
              <ellipse class="cls-11" cx="304.48" cy="303.02" rx="162.52" ry="159.24"/>
              <ellipse class="cls-37" cx="304.49" cy="302.98" rx="159.06" ry="155.85"/>
              <ellipse class="cls-50" cx="304.5" cy="302.95" rx="155.6" ry="152.46"/>
              <ellipse class="cls-44" cx="304.51" cy="302.91" rx="152.15" ry="149.08"/>
              <ellipse class="cls-79" cx="304.52" cy="303.03" rx="148.69" ry="145.69"/>
              <ellipse class="cls-78" cx="304.52" cy="303" rx="145.23" ry="142.3"/>
              <ellipse class="cls-82" cx="304.53" cy="302.96" rx="141.77" ry="138.91"/>
              <ellipse class="cls-34" cx="304.48" cy="302.93" rx="138.31" ry="135.52"/>
              <ellipse class="cls-41" cx="304.48" cy="303.04" rx="134.86" ry="132.13"/>
              <ellipse class="cls-83" cx="304.49" cy="303.01" rx="131.4" ry="128.75"/>
              <ellipse class="cls-40" cx="304.5" cy="302.97" rx="127.94" ry="125.36"/>
              <ellipse class="cls-24" cx="304.51" cy="302.94" rx="124.48" ry="121.97"/>
              <ellipse class="cls-56" cx="304.51" cy="302.9" rx="121.03" ry="118.58"/>
              <ellipse class="cls-13" cx="304.52" cy="303.02" rx="117.57" ry="115.19"/>
              <ellipse class="cls-74" cx="304.53" cy="302.98" rx="114.11" ry="111.81"/>
              <ellipse class="cls-36" cx="304.47" cy="302.95" rx="110.65" ry="108.42"/>
              <ellipse class="cls-29" cx="304.48" cy="302.92" rx="107.19" ry="105.03"/>
              <ellipse class="cls-48" cx="304.49" cy="303.03" rx="103.73" ry="101.64"/>
              <ellipse class="cls-21" cx="304.5" cy="303" rx="100.28" ry="98.25"/>
              <ellipse class="cls-6" cx="304.51" cy="302.96" rx="96.82" ry="94.87"/>
              <ellipse class="cls-22" cx="304.51" cy="302.93" rx="93.36" ry="91.48"/>
              <ellipse class="cls-61" cx="304.52" cy="303.04" rx="89.91" ry="88.09"/>
              <ellipse class="cls-26" cx="304.53" cy="303.01" rx="86.45" ry="84.7"/>
              <ellipse class="cls-59" cx="304.47" cy="302.97" rx="82.99" ry="81.31"/>
              <ellipse class="cls-25" cx="304.48" cy="302.94" rx="79.53" ry="77.93"/>
              <ellipse class="cls-17" cx="304.49" cy="302.9" rx="76.07" ry="74.54"/>
              <ellipse class="cls-33" cx="304.5" cy="303.02" rx="72.61" ry="71.15"/>
              <ellipse class="cls-66" cx="304.51" cy="302.99" rx="69.16" ry="67.76"/>
              <ellipse class="cls-46" cx="304.51" cy="302.95" rx="65.7" ry="64.37"/>
              <ellipse class="cls-9" cx="304.52" cy="302.92" rx="62.24" ry="60.99"/>
              <ellipse class="cls-43" cx="304.53" cy="303.03" rx="58.78" ry="57.59"/>
              <ellipse class="cls-54" cx="304.47" cy="303" rx="55.32" ry="54.21"/>
              <ellipse class="cls-63" cx="304.48" cy="302.96" rx="51.87" ry="50.82"/>
              <ellipse class="cls-76" cx="304.49" cy="302.93" rx="48.41" ry="47.43"/>
              <ellipse class="cls-53" cx="304.5" cy="303.04" rx="44.95" ry="44.04"/>
              <ellipse class="cls-71" cx="304.5" cy="303.01" rx="41.49" ry="40.65"/>
              <ellipse class="cls-4" cx="304.51" cy="302.97" rx="38.04" ry="37.27"/>
              <ellipse class="cls-10" cx="304.52" cy="302.94" rx="34.58" ry="33.88"/>
              <ellipse class="cls-5" cx="304.53" cy="302.91" rx="31.12" ry="30.49"/>
              <ellipse class="cls-51" cx="304.47" cy="303.02" rx="27.66" ry="27.1"/>
              <ellipse class="cls-28" cx="304.48" cy="302.99" rx="24.2" ry="23.71"/>
              <ellipse class="cls-84" cx="304.49" cy="302.95" rx="20.74" ry="20.33"/>
              <ellipse class="cls-73" cx="304.5" cy="302.92" rx="17.29" ry="16.94"/>
              <ellipse class="cls-3" cx="304.5" cy="303.03" rx="13.83" ry="13.55"/>
              <ellipse class="cls-45" cx="304.51" cy="303" rx="10.37" ry="10.16"/>
              <path class="cls-58" d="M297.6,302.96c0-3.74,3.1-6.77,6.91-6.77s6.91,3.03,6.91,6.77-3.1,6.77-6.91,6.77-6.91-3.03-6.91-6.77Z"/>
              <path class="cls-55" d="M301.07,302.93c0-1.87,1.55-3.39,3.46-3.39s3.46,1.52,3.46,3.39-1.55,3.39-3.46,3.39-3.46-1.52-3.46-3.39Z"/>
            </g>
          </g>
        </g>
        <ellipse class="cls-2" cx="304.53" cy="302.89" rx="248.45" ry="248.31"/>
      </g>
      <ellipse class="cls-2" cx="304.54" cy="302.89" rx="166.43" ry="166.35"/>
      <path class="cls-12" d="M364.51,392.41l3.1,9.8h10.5l-8.46,6.34,3.28,10.06-8.42-6.2-8.42,6.2,3.32-10.06-8.53-6.34h10.46l3.17-9.8ZM407.59,348.91l3.1,9.8h10.5l-8.46,6.34,3.28,10.06-8.42-6.2-8.42,6.2,3.32-10.06-8.53-6.34h10.46l3.17-9.8ZM423.38,289.79l3.1,9.8h10.5l-8.46,6.34,3.28,10.06-8.42-6.2-8.42,6.2,3.32-10.06-8.53-6.34h10.46l3.17-9.8ZM407.59,230.62l3.1,9.8h10.5l-8.46,6.34,3.28,10.06-8.42-6.2-8.42,6.2,3.32-10.06-8.53-6.34h10.46l3.17-9.8ZM364.51,187.55l3.1,9.8h10.5l-8.46,6.34,3.28,10.06-8.42-6.2-8.42,6.2,3.32-10.06-8.53-6.34h10.46l3.17-9.8ZM304.55,171.11l3.1,9.8h10.5l-8.46,6.34,3.28,10.06-8.42-6.2-8.42,6.2,3.32-10.06-8.53-6.34h10.46l3.17-9.8ZM243.35,187.55l3.1,9.8h10.5l-8.46,6.34,3.28,10.06-8.42-6.2-8.42,6.2,3.32-10.06-8.53-6.34h10.46l3.17-9.8ZM200.79,230.62l3.1,9.8h10.5l-8.46,6.34,3.28,10.06-8.42-6.2-8.42,6.2,3.32-10.06-8.53-6.34h10.46l3.17-9.8ZM185.73,289.79l3.1,9.8h10.5l-8.46,6.34,3.28,10.06-8.42-6.2-8.42,6.2,3.32-10.06-8.53-6.34h10.46l3.17-9.8ZM200.79,348.91l3.1,9.8h10.5l-8.46,6.34,3.28,10.06-8.42-6.2-8.42,6.2,3.32-10.06-8.53-6.34h10.46l3.17-9.8ZM243.35,392.41l3.1,9.8h10.5l-8.46,6.34,3.28,10.06-8.42-6.2-8.42,6.2,3.32-10.06-8.53-6.34h10.46l3.17-9.8ZM304.55,408.48l3.1,9.8h10.5l-8.46,6.34,3.28,10.06-8.42-6.2-8.42,6.2,3.32-10.06-8.53-6.34h10.46l3.17-9.8ZM279.16,272.04c2.86-11.35,13.14-19.74,25.38-19.74s22.52,8.4,25.38,19.74h-50.76ZM317.49,280.46l4.41-.04-2.55,7.28h-8.34l-2.55-7.28,4.41.04,2.31,5.45,2.31-5.45ZM332.23,280.46l2.55,7.28-4.41-.04-2.55-7.28,4.41.04ZM291.58,280.46l2.31,5.45,2.31-5.45,4.41-.04-2.55,7.28h-8.34l-2.55-7.28,4.41.04ZM276.84,280.46l4.41-.04-2.55,7.28-4.41.04,2.55-7.28ZM263.41,248.48l25.9-22.57,4.98,4.47,10.26-8.45,9.63,8.87,5.61-4.88,25.9,22.57v-7.68h-1.44l5.56-21.47,5.56,21.47h-1.44v13.8h7.38l-4.03,5.25v64.9s-.11,5.94-.11,9.01c0,29.11-23.6,52.7-52.72,52.7s-52.63-23.59-52.63-52.7v-73.91l-4.03-5.25h7.38v-13.8h-1.44l5.56-21.47,5.56,21.47h-1.44v7.68ZM292.43,232.95l-3.13-2.72-25.9,22.57v5.44l29.02-25.28ZM316.64,232.95l29.02,25.28v-5.44l-25.9-22.57-3.13,2.72ZM345.66,262.56l-41.13-36.31-41.13,36.31v14.01c4.98-18.03,21.51-31.27,41.13-31.27s36.15,13.24,41.13,31.27v-14.01ZM322.56,294.59h17.35v37.44h4.03v-44.08c-.42-22.17-17.9-39.39-39.4-39.39s-38.99,17.22-39.4,38.62v44.85h4.03v-37.44h17.35v12.9h6.33v-12.9h23.39v12.9h6.33v-12.9ZM295.43,329.82c0,2.34,1.9,4.24,4.24,4.24s4.24-1.9,4.24-4.24-1.9-4.24-4.24-4.24-4.24,1.9-4.24,4.24ZM293.45,319.95c-.69-1.94-1.72-3.57-2.25-4.33l2.44-1.8-1.73-1.34c-1.01.43-1.98.88-2.89,1.36-2.86-1.93-6.7.18-5.31,2.29l.87.44c-12.39,8.97-12.81,22.17-12.81,22.17,1.75-7.34,8.19-14.2,16.08-20.53,3.13,3.94,3.89,7.23,3.1,10.99-4.23,2.95-5.95,6.47-5.95,6.47-1.58,1.5,6.29,8.39,7.86,6.9,2.26,1.84,3.1,4.53,2.84,8.2l-2.65,4.36c-.01.67.28,1.15.75,1.44-1.21,1.41-2.49,2.64-3.73,3.63-.12-8.74,1.62-15.73,1.63-15.8.2-1.35-2.98-2.08-5.38-1.91-.19-2.38-1.32-5.28-2.63-4.99,0,0-5.55,1.09-9.04,1.9-4.43,1.02-4.26,6.62-3.09,10.27.71,2.21,4.99,14.95,4.99,14.95.59,2.09,4.84,2.03,4.25-.06,0,0-2.43-9.43-3.58-14.41-.38-1.63-.09-3.72,2.2-4.31,1-.26,2.93-.34,4.32-.37.12,11.42,1.51,19.85,4.41,27.68.75,2.04,3.41-.74,2.97-2.87-.55-2.62-.85-5.25-.72-7.93,5.83-3.77,7.91-4.65,9.19-6.79.85-1.42,1.46-3.92,1.88-6.26.21,1.18.32-3.14.31-7.33-.96-.34-1.81-.04-1.74,1.33-.12,1.21-.38,2.42-.78,3.44-.48-2.17-.99-11.74-.99-11.74,0-.16-6.85-2.96-2.43-8.49-.53-2.72-1.72-4.59-2.42-6.55ZM313.64,329.82c0-2.34-1.9-4.24-4.24-4.24s-4.24,1.9-4.24,4.24,1.9,4.24,4.24,4.24,4.24-1.9,4.24-4.24ZM315.62,319.95c-.7,1.95-1.89,3.83-2.42,6.55,4.42,5.53-2.43,8.33-2.43,8.49,0,0-.51,9.57-1.02,11.9-.36-1.18-.62-2.39-.74-3.6.06-1.37-.78-1.67-1.43-1.15-.32,4.01-.21,8.34,0,7.15.42,2.33,1.04,4.84,1.88,6.26,1.28,2.14,3.36,3.02,9.45,6.94-.13,2.53-.43,5.16-.98,7.78-.45,2.13,2.21,4.9,2.97,2.87,2.9-7.83,4.29-16.25,4.41-27.68,1.39.03,3.32.11,4.32.37,2.3.59,2.58,2.68,2.21,4.31-1.15,4.98-3.58,14.41-3.58,14.41-.59,2.09,3.66,2.15,4.25.06,0,0,4.28-12.74,4.99-14.95,1.17-3.65,1.34-9.25-3.09-10.27-3.49-.81-9.04-1.9-9.04-1.9-1.3-.29-2.44,2.6-2.63,4.99-2.4-.17-5.58.57-5.38,1.91.01.07,1.75,7.06,1.63,15.8-1.24-.98-2.52-2.21-3.73-3.63.47-.29.77-.77.75-1.44l-2.65-4.36c-.26-3.67.58-6.36,2.32-8.69,2.09,1.99,9.95-4.91,8.38-6.41,0,0-1.71-3.52-5.94-6.47-.79-3.76-.03-7.05,2.68-10.78,8.3,6.12,14.74,12.98,16.49,20.32,0,0-.42-13.2-12.81-22.17l.87-.44c1.39-2.11-2.45-4.22-4.75-2.69-1.47-.08-2.44-.53-3.45-.96l-1.73,1.34,2.44,1.8c-.53.77-1.56,2.39-2.25,4.33ZM294.18,302.9v4.6l10.35-6.11,10.35,6.11v-4.6l-10.35-6.11-10.35,6.11Z"/>
      <g>
        <path class="cls-12" d="M245.52,115.02c-.82-2.04-1.8-3.58-2.94-4.62-1.14-1.04-2.27-1.76-3.39-2.15-1.12-.4-2.07-.65-2.84-.76.37-.5.79-1.26,1.26-2.28.47-1.03.78-2.25.92-3.67.14-1.42-.09-2.98-.7-4.67-1.5-3.87-3.89-6.5-7.16-7.88-3.27-1.38-7.23-1.22-11.86.5l-18.34,7.04,16.99,44.25,19.27-7.4c4.02-1.56,6.88-3.94,8.57-7.14,1.69-3.2,1.76-6.93.22-11.21ZM227.18,101.59c.37.9.41,1.83.1,2.78-.3.95-1.18,1.73-2.64,2.33l-6.78,2.6-2.77-7.22,6.78-2.6c1.49-.52,2.66-.53,3.52-.03.86.5,1.46,1.21,1.78,2.14ZM234.41,118.57c.4.97.45,1.97.15,2.99-.3,1.02-1.17,1.84-2.63,2.45l-7.34,2.82-2.99-7.78,7.34-2.82c1.49-.52,2.68-.51,3.58.04s1.53,1.31,1.88,2.29Z"/>
        <path class="cls-12" d="M286.83,104.84l-4.81-30.38-11.5,1.82,4.77,30.12c.32,2.19.01,3.96-.93,5.32-.94,1.36-2.38,2.2-4.31,2.52-1.93.29-3.53-.07-4.81-1.08-1.28-1.01-2.1-2.6-2.46-4.79l-4.77-30.12-11.5,1.82,4.81,30.38c.58,3.43,1.86,6.28,3.84,8.54,1.97,2.26,4.4,3.87,7.27,4.82,2.88.95,5.96,1.17,9.24.67,3.28-.54,6.15-1.7,8.62-3.5,2.46-1.8,4.29-4.08,5.49-6.84,1.2-2.76,1.55-5.87,1.04-9.31Z"/>
        <path class="cls-12" d="M331.46,121.97l-9.55-20.12c1.98-.86,3.79-2.29,5.41-4.28,1.62-2,2.54-4.6,2.74-7.82.09-2.64-.44-5.13-1.6-7.48-1.15-2.34-2.9-4.28-5.25-5.79-2.35-1.52-5.28-2.36-8.79-2.53l-18.76-.66-1.65,47.37,11.64.41.62-17.63,3.93.14,7.77,17.93,13.5.47ZM318.42,89.34c-.06,1.28-.54,2.37-1.45,3.28-.91.91-2.17,1.35-3.78,1.34l-6.59-.23.33-9.59,6.59.23c1.61.1,2.83.64,3.68,1.6.84.97,1.25,2.09,1.22,3.37Z"/>
        <path class="cls-12" d="M367.38,115.06c.47-2.15.61-4.14.43-5.96-.18-1.82-.75-3.47-1.72-4.94-.77-1.19-1.84-2.26-3.21-3.23-1.37-.97-3.07-1.82-5.09-2.55l-5.44-1.97c-.79-.28-1.41-.6-1.87-.96-.46-.36-.81-.72-1.03-1.09-.27-.44-.44-.87-.49-1.28-.05-.41-.04-.77.03-1.07.21-1.07.85-1.94,1.93-2.63,1.08-.69,2.61-.85,4.59-.48,1.08.16,2.42.53,4,1.13,1.58.6,2.99,1.75,4.21,3.47l8.68-5.64c-1.55-2.39-3.52-4.29-5.91-5.7-2.38-1.41-5.23-2.47-8.55-3.15-5.34-1.05-9.77-.55-13.3,1.51-3.53,2.06-5.78,5.24-6.74,9.54-.42,1.99-.54,3.82-.34,5.49s.71,3.17,1.55,4.51c1.64,2.59,4.45,4.62,8.44,6.08l5.44,1.97c.73.26,1.32.55,1.77.87.46.32.8.66,1.03,1.02.25.43.39.88.44,1.37.05.49.01,1.01-.11,1.56-.28,1.34-1.05,2.26-2.29,2.74-1.25.48-2.99.49-5.24.02-1.91-.39-3.75-1.03-5.51-1.93-1.77-.9-3.15-2.07-4.15-3.53l-8.84,5.74c1.84,2.86,4.12,5.04,6.85,6.54,2.73,1.5,5.87,2.61,9.43,3.31,3.3.7,6.41.77,9.34.23,2.93-.54,5.43-1.73,7.5-3.55,2.07-1.82,3.46-4.31,4.17-7.45Z"/>
        <path class="cls-12" d="M403.45,146.64l3.53-50.32-8.21-3.66-35.03,36.29,11.13,4.96,5-5.5,13.32,5.93-.86,7.34,11.13,4.96ZM394.33,124.22l-7.54-3.36,9.04-9.83-1.5,13.19Z"/>
      </g>
      <path class="cls-12" d="M90.58,314.42c1.74.03,3.17-.21,4.28-.71s1.98-1.11,2.62-1.8c.63-.69,1.11-1.3,1.43-1.83.25.42.67.97,1.27,1.63.6.66,1.4,1.26,2.39,1.81.99.54,2.2.86,3.62.93,3.29.1,5.94-.82,7.96-2.78,2.02-1.96,3.12-4.89,3.31-8.8l.54-15.54-37.5-1.31-.57,16.33c-.11,3.41.74,6.23,2.55,8.45,1.81,2.22,4.51,3.43,8.1,3.62ZM106.04,305.21c-.77,0-1.46-.27-2.06-.78-.6-.52-.89-1.4-.88-2.64l.2-5.75,6.12.21-.2,5.75c-.08,1.24-.43,2.1-1.07,2.58-.63.47-1.34.69-2.11.64ZM91.43,305.22c-.83-.01-1.57-.28-2.23-.82-.65-.53-.98-1.42-.98-2.67l.22-6.22,6.59.23-.22,6.22c-.08,1.25-.46,2.11-1.13,2.6-.67.49-1.43.71-2.25.66Z"/>
      <path class="cls-12" d="M97.23,353.9l24.12-3.39-1.28-9.13-23.91,3.36c-1.74.22-3.14-.05-4.2-.81-1.06-.76-1.71-1.91-1.93-3.44-.2-1.53.1-2.8.92-3.79.82-1,2.09-1.62,3.82-1.88l23.91-3.36-1.28-9.13-24.12,3.39c-2.72.41-4.99,1.39-6.81,2.92-1.82,1.53-3.12,3.43-3.91,5.69-.79,2.26-1.01,4.7-.66,7.31.38,2.61,1.26,4.89,2.65,6.87,1.39,1.97,3.17,3.45,5.34,4.44,2.17.99,4.62,1.31,7.36.95ZM128.12,345.67c1.17-.2,2.1-.74,2.77-1.64.68-.9.95-1.94.81-3.12-.2-1.17-.74-2.1-1.64-2.77-.9-.68-1.94-.95-3.12-.81-1.17.2-2.1.74-2.77,1.64-.68.9-.95,1.94-.81,3.12.2,1.17.74,2.1,1.64,2.77.9.68,1.94.95,3.12.81ZM126.4,333.46c1.17-.2,2.1-.74,2.77-1.64.68-.9.95-1.94.81-3.12-.2-1.17-.74-2.1-1.64-2.77-.9-.68-1.94-.95-3.12-.81-1.17.2-2.1.74-2.77,1.64-.68.9-.95,1.94-.81,3.12.2,1.17.74,2.1,1.64,2.77.9.68,1.94.95,3.12.81Z"/>
      <polygon class="cls-12" points="132.3 384.69 129.03 375.17 114.37 374.03 125.2 364.06 121.92 354.54 104.58 372.5 90.13 377.47 93.13 386.19 107.58 381.21 132.3 384.69"/>
      <path class="cls-12" d="M126.73,425l21.3-11.81-4.47-8.06-21.11,11.7c-1.54.83-2.94,1.08-4.21.75-1.27-.33-2.28-1.17-3.04-2.52-.74-1.36-.91-2.65-.5-3.87.41-1.22,1.37-2.26,2.89-3.13l21.11-11.7-4.47-8.06-21.3,11.81c-2.39,1.36-4.17,3.08-5.31,5.16-1.15,2.08-1.69,4.32-1.61,6.72.07,2.4.74,4.75,2,7.06,1.29,2.3,2.93,4.12,4.94,5.46,2,1.35,4.19,2.09,6.58,2.24,2.38.14,4.78-.44,7.21-1.75ZM152.62,406.25c1.03-.6,1.69-1.45,2-2.53.31-1.08.19-2.15-.36-3.2-.6-1.03-1.45-1.69-2.53-2-1.08-.31-2.15-.19-3.2.36-1.03.6-1.69,1.45-2,2.53-.31,1.08-.19,2.15.36,3.2.6,1.03,1.45,1.69,2.53,2,1.08.31,2.15.19,3.2-.36ZM146.64,395.46c1.03-.6,1.69-1.45,2-2.53s.19-2.15-.36-3.2c-.6-1.03-1.45-1.69-2.53-2-1.08-.31-2.15-.19-3.2.36-1.03.6-1.69,1.45-2,2.53-.31,1.08-.19,2.15.36,3.2.6,1.03,1.45,1.69,2.53,2,1.08.31,2.15.19,3.2-.36Z"/>
      <polygon class="cls-12" points="144.09 468.2 152.71 443.7 172.57 443.76 165.32 435.12 148.16 435.33 158.34 426.8 152.48 419.82 123.73 443.94 129.59 450.92 138.59 443.37 143.41 443.45 137.18 459.97 144.09 468.2"/>
      <path class="cls-12" d="M179.92,483c1.1-1.35,1.92-2.7,2.45-4.05.53-1.35.71-2.72.56-4.1-.11-1.11-.48-2.25-1.1-3.43-.62-1.18-1.51-2.39-2.67-3.63l-3.13-3.35c-.45-.48-.78-.93-.98-1.35-.2-.42-.31-.8-.34-1.14-.03-.41,0-.77.12-1.08.11-.31.25-.55.4-.74.53-.68,1.3-1.06,2.31-1.16,1.01-.1,2.14.34,3.41,1.31.71.5,1.51,1.24,2.41,2.24.9.99,1.48,2.31,1.72,3.97l8.15-.86c-.24-2.24-.94-4.29-2.12-6.14-1.17-1.85-2.8-3.62-4.9-5.29-3.39-2.66-6.7-3.9-9.93-3.72-3.23.18-5.96,1.62-8.18,4.31-1.01,1.25-1.75,2.5-2.21,3.75-.46,1.25-.64,2.49-.53,3.74.22,2.42,1.48,4.86,3.76,7.32l3.13,3.35c.42.44.73.86.94,1.25s.33.75.36,1.09c.02.39-.04.76-.18,1.13-.14.36-.35.71-.64,1.06-.68.85-1.55,1.22-2.6,1.11-1.05-.11-2.29-.73-3.7-1.87-1.21-.96-2.27-2.08-3.2-3.34-.92-1.27-1.48-2.59-1.66-3.98l-8.3.87c.27,2.68,1.1,5.04,2.48,7.08,1.39,2.04,3.21,3.95,5.46,5.73,2.08,1.68,4.25,2.85,6.51,3.52,2.26.67,4.45.73,6.56.19,2.11-.54,3.99-1.8,5.62-3.76ZM164.16,488.82l-4.71-3.82-7.52,3.67,5.98,4.84,6.25-4.7Z"/>
      <polygon class="cls-12" points="206.32 511.97 210.3 504.78 196.05 496.88 199.25 491.12 211.42 497.86 215.41 490.68 203.23 483.93 206.28 478.44 220.53 486.33 224.51 479.15 202.2 466.78 184.01 499.6 206.32 511.97"/>
      <polygon class="cls-12" points="245.66 526.89 257.88 491.41 249.16 488.41 244.46 502.06 235.18 498.87 239.88 485.21 231.17 482.21 218.95 517.69 227.67 520.69 232.51 506.64 241.78 509.83 236.94 523.89 245.66 526.89"/>
      <path class="cls-12" d="M268,531.44l7.16-36.84-9.05-1.76-7.16,36.84,9.05,1.76ZM275.46,491.71l1.26-6.46-8.48-1.65-1.26,6.46,8.48,1.65Z"/>
      <path class="cls-12" d="M311.51,534.77l-7.56-15.93c1.57-.68,3-1.81,4.28-3.39,1.28-1.58,2.01-3.64,2.17-6.19.07-2.09-.35-4.06-1.26-5.92-.91-1.86-2.3-3.38-4.16-4.59-1.86-1.2-4.18-1.87-6.96-2l-14.85-.52-1.31,37.5,9.21.32.49-13.96,3.11.11,6.15,14.19,10.69.37ZM301.18,508.93c-.04,1.01-.43,1.88-1.15,2.59-.72.72-1.72,1.07-2.99,1.06l-5.22-.18.26-7.59,5.22.18c1.27.08,2.24.5,2.91,1.27.67.77.99,1.65.96,2.67Z"/>
      <path class="cls-12" d="M363.38,515.98c-.39-1.7-.97-3.03-1.73-3.98-.76-.95-1.55-1.65-2.38-2.1-.83-.45-1.54-.76-2.12-.95.35-.34.78-.88,1.27-1.63.49-.74.89-1.66,1.17-2.76.29-1.1.3-2.34.03-3.74-.69-3.21-2.24-5.57-4.62-7.05-2.39-1.49-5.5-1.85-9.33-1.08l-15.21,3.23,7.8,36.71,15.98-3.4c3.34-.72,5.87-2.23,7.58-4.52,1.72-2.29,2.24-5.2,1.56-8.74ZM350.7,503.2c.18.75.09,1.48-.26,2.19-.36.7-1.14,1.2-2.35,1.5l-5.62,1.2-1.27-5.99,5.62-1.2c1.23-.22,2.15-.09,2.76.41.61.5.99,1.13,1.13,1.89ZM354.25,517.38c.19.81.11,1.6-.25,2.36-.36.76-1.14,1.3-2.36,1.59l-6.09,1.29-1.37-6.45,6.09-1.29c1.23-.22,2.16-.07,2.8.47.64.54,1.03,1.21,1.19,2.03Z"/>
      <polygon class="cls-12" points="402.54 512.8 399.46 505.18 384.35 511.28 381.88 505.16 394.79 499.95 391.71 492.33 378.81 497.55 376.45 491.72 391.56 485.62 388.48 478 364.83 487.56 378.89 522.35 402.54 512.8"/>
      <polygon class="cls-12" points="435.92 492.89 431.56 485.92 418.2 494.27 402.67 469.41 394.85 474.3 414.74 506.12 435.92 492.89"/>
      <polygon class="cls-12" points="465.16 467.94 459.66 461.83 447.56 472.73 443.15 467.83 453.49 458.52 447.99 452.41 437.65 461.72 433.45 457.06 445.55 446.16 440.05 440.05 421.1 457.12 446.21 485.01 465.16 467.94"/>
      <path class="cls-12" d="M477.15,423.79c-1.55-1.21-3.04-2.31-4.47-3.32-1.43-1-2.93-1.76-4.52-2.27-1.58-.51-3.38-.64-5.4-.37-1.81.27-3.47.92-4.99,1.95-1.52,1.03-2.86,2.33-4.04,3.91l-8.37,11.11,29.97,22.58,8.37-11.11c1.19-1.57,2.07-3.22,2.64-4.96s.74-3.52.5-5.34c-.3-2.01-.92-3.71-1.85-5.09-.93-1.38-2.07-2.62-3.43-3.72-1.36-1.1-2.83-2.22-4.42-3.38ZM471.6,431.16c1.67,1.26,2.93,2.24,3.77,2.96s1.42,1.28,1.73,1.7c.32.42.53.83.64,1.21.27.71.34,1.46.22,2.25-.12.79-.52,1.64-1.2,2.56l-2.44,3.24-16.85-12.69,2.44-3.24c.7-.91,1.41-1.53,2.13-1.86.72-.33,1.46-.47,2.22-.41.4,0,.85.09,1.35.28.5.19,1.21.59,2.13,1.2.92.61,2.21,1.54,3.86,2.79Z"/>
      <path class="cls-12" d="M503.05,416.56l-32.82-18.19-4.47,8.06,32.82,18.19,4.47-8.06ZM467.56,397.19l-5.76-3.19-4.19,7.56,5.76,3.19,4.19-7.56Z"/>
      <polygon class="cls-12" points="484.87 365.18 481.1 374.52 491.41 384.99 476.7 385.41 472.92 394.75 497.79 392.57 511.96 398.29 515.42 389.75 501.25 384.02 484.87 365.18"/>
      <polygon class="cls-12" points="528.05 343.62 520.01 341.91 516.62 357.85 510.17 356.48 513.07 342.86 505.03 341.16 502.13 354.77 495.99 353.46 499.38 337.53 491.34 335.82 486.04 360.77 522.74 368.57 528.05 343.62"/>
      <path class="cls-12" d="M519.07,304.26c-1.74-.07-3.31.09-4.71.48-1.4.39-2.6,1.06-3.61,2.02-.82.76-1.51,1.74-2.07,2.95-.56,1.2-.99,2.64-1.29,4.32l-.79,4.51c-.11.65-.27,1.18-.49,1.59-.22.41-.45.73-.71.95-.31.27-.62.46-.93.55-.31.1-.59.14-.84.12-.86-.02-1.63-.4-2.31-1.14-.68-.74-1.02-1.91-1.01-3.51-.03-.87.08-1.96.33-3.27.25-1.32.96-2.57,2.13-3.76l-5.59-5.99c-1.65,1.54-2.86,3.34-3.63,5.39-.78,2.05-1.2,4.42-1.28,7.1-.08,4.31.92,7.7,3.01,10.16,2.09,2.47,4.88,3.78,8.36,3.94,1.61.06,3.05-.11,4.32-.49,1.27-.38,2.37-.99,3.3-1.83,1.8-1.63,2.99-4.1,3.58-7.41l.79-4.51c.1-.6.25-1.1.44-1.5.19-.4.41-.71.65-.94.3-.25.64-.43,1.01-.53.37-.1.78-.15,1.23-.13,1.09.03,1.9.51,2.45,1.41.55.91.79,2.27.73,4.08-.04,1.54-.29,3.06-.75,4.56-.46,1.5-1.18,2.74-2.18,3.72l5.69,6.1c1.98-1.83,3.36-3.91,4.16-6.24.8-2.33,1.22-4.94,1.29-7.81.09-2.67-.28-5.11-1.11-7.32-.83-2.21-2.09-4-3.8-5.36-1.71-1.36-3.83-2.1-6.38-2.22Z"/>
      <path class="cls-12" d="M528.95,283.92l-37.38,3.27.8,9.18,37.38-3.27-.8-9.18ZM488.7,287.71l-6.56.57.75,8.61,6.56-.57-.75-8.61Z"/>
    </g>
  </g>
</svg>