<?xml version="1.0" encoding="iso-8859-1"?>
<!-- Generator: Adobe Illustrator 29.7.1, SVG Export Plug-In . SVG Version: 9.03 Build 0)  -->
<svg version="1.1" id="Layer_1" xmlns="http://www.w3.org/2000/svg" xmlns:xlink="http://www.w3.org/1999/xlink" x="0px" y="0px"
	 viewBox="0 0 1920 1080" style="enable-background:new 0 0 1920 1080;" xml:space="preserve">
<g>
	<path style="fill-rule:evenodd;clip-rule:evenodd;fill:#0056A7;" d="M821,384.582l0-6.171C821,353.985,883.385,334,959.633,334l0,0
		c76.248,0,138.633,19.985,138.633,44.411v6.171h0v139.559c0,64.061-62.385,116.474-138.633,116.474l0,0
		C883.385,640.616,821,588.203,821,524.141V384.582L821,384.582z M938.336,549.567c-0.697,0.139-1.388,0.243-2.074,0.311
		c-7.293,0.726-13.981-2.394-20.272-8.075c-6.215,4.601-12.005,7.064-17.457,7.607c-7.318,0.728-14.026-2.003-20.335-7.669
		c-5.211,4.97-13.196,8.424-20.779,8.757c-6.663,0.293-13.016-1.824-16.903-7.438c-1.825-2.636-1.406-4.225-1.406-7.443V412.059
		h24.979v17.309h24.979v-17.309h24.979v17.309h24.979v-17.309H969v10.867c-1.032,14.367-4.892,23.997-12.152,32.889
		c-5.256,6.438-12.4,12.36-21.327,19.677C900.222,504.421,914.077,528.771,938.336,549.567L938.336,549.567z M1038.092,478.939
		c-0.645-0.621-1.296-1.244-1.949-1.868c-5.547-5.297-11.159-11.388-16.435-17.794c-0.245-2.347-1.539-3.83,0.326-6.471
		c2.892-4.097,7-3.262,10.865-0.756c4.054,2.628,6.392,9.1,7.268,15.518C1038.735,471.738,1038.687,475.883,1038.092,478.939
		L1038.092,478.939z M1046.439,544.264c-5.546,3.361-9.912,4.625-13.792,4.901c7.771-6.135,13.851-11.424,17.073-16.466
		c4.597-7.193,6.149-14.933,5.334-22.715c1.619,0.283,4.344,0.371,7.176,0.196c6.653-0.409,8.417-3.47,7.826-6.009
		c-0.517-2.221-2.907-4.632-5.659-6.655c-4.612-3.388-6.214-6.651-7.896-12.045c-1.615-5.183-1.965-10.77-2.199-16.345
		c-0.446-10.645-0.472-21.253-8.086-28.951c-5.872-5.937-17.349-9.518-27.263-6.431c-2.527,0.787-4.955,2.009-7.167,3.741
		c-1.559,1.22-3.103,2.131-4.436,2.121c-0.865-0.007-1.672-0.214-2.429-0.571c-0.493-0.775-0.977-1.548-1.449-2.317l-0.125-0.207
		v-24.453h28.101v17.309h24.979v-17.309h24.979v126.62C1081.405,554.415,1053.646,550.771,1046.439,544.264L1046.439,544.264z
		 M1041.048,570.446c-2.317,1.346-4.597,2.749-6.922,4.077c-2.067,1.181-4.18,2.28-6.48,2.935c-0.959,0.273-1.935,0.465-2.926,0.578
		c-8.188,0.937-16.378-3.154-23.313-7.287c-13.947,11.835-27.204,9.608-41.301-0.892c-4.316,3.188-9.524,6.574-14.703,7.46
		c-1.604,0.275-3.22,0.353-4.842,0.21c-6.637-0.585-13.073-5.128-18.402-9.139c-3.823,2.424-7.867,4.863-11.986,6.623
		c-3.565,1.524-7.312,2.545-11.221,2.233c-6.356-0.508-11.895-4.556-16.562-8.73c-15.253,10.223-27.607,12.093-42.381-0.951
		c-2.701-2.385,0.301-5.785,3.002-3.4c4.437,3.917,9.664,7.4,15.704,7.978c8.088,0.773,16.199-3.927,22.58-8.372l1.498-1.044
		l1.339,1.241c4.044,3.747,9.432,8.298,15.181,8.757c3.142,0.251,6.216-0.659,9.076-1.882c4.357-1.862,8.671-4.573,12.658-7.123
		l1.331-0.851l1.259,0.954c4.664,3.531,11.297,8.657,17.321,9.188c1.234,0.109,2.459,0.046,3.68-0.162
		c4.855-0.831,10.264-4.726,14.111-7.639l1.389-1.052l1.374,1.071c13.292,10.363,24.938,13.008,38.121,1.045l1.255-1.14l1.448,0.882
		c6.175,3.762,14.35,8.376,21.867,7.516c0.745-0.085,1.477-0.229,2.199-0.435c1.922-0.547,3.743-1.522,5.471-2.51
		c2.721-1.556,5.383-3.211,8.112-4.761l1.191-0.676l1.153,0.739c4.764,3.054,10.545,6.523,16.307,6.974
		c6.865,0.537,12.45-3.369,17.055-8.059c2.525-2.571,5.76,0.607,3.237,3.178c-5.605,5.709-12.346,10.052-20.645,9.403
		C1052.091,576.898,1046.263,573.727,1041.048,570.446L1041.048,570.446z M886.256,602.891c9.108-9.438,18.902-13.61,28.901-15.386
		c23.688-4.207,42.117,2.326,59.072,9.177c9.815,3.966,17.605,4.992,25.353,4.485c8.248-0.54,16.447-2.818,26.989-5.136
		c-2.325,2.545-4.395,4.397-6.58,5.879c-2.809,1.906-5.81,3.2-9.79,4.566c3.378,3.586,7.379,6.704,10.446,10.602
		c-8.882-2.746-17.133-4.282-25.199-4.96c-10.697-0.9-21.436,0.256-32.799,1.809C934.437,617.783,905.322,621.208,886.256,602.891
		L886.256,602.891z M902.899,595.797c1.958,0,3.547,1.588,3.547,3.547c0,1.958-1.588,3.547-3.547,3.547
		c-1.959,0-3.547-1.588-3.547-3.547C899.352,597.385,900.94,595.797,902.899,595.797L902.899,595.797z"/>
	<path d="M824.383,744.017h270.499v2.087H824.383V744.017L824.383,744.017z M824.383,696.651h270.499v2.029H824.383V696.651
		L824.383,696.651z M836.232,693.143l9.043-1.006v2.417l-9.043,1.006V693.143L836.232,693.143z M1068.391,690.644v-31.952h23.321
		v3.771h-19.055v9.783h17.845v3.749h-17.845v10.876h19.806v3.772H1068.391L1068.391,690.644z M1043.058,690.644v-31.952h4.274v28.18
		h15.885v3.772H1043.058L1043.058,690.644z M1018.941,677.521h10.943l-3.372-8.846c-1.022-2.686-1.787-4.895-2.283-6.628
		c-0.413,2.053-0.992,4.084-1.742,6.107L1018.941,677.521L1018.941,677.521z M1009.635,690.644l12.393-31.952h4.596l13.204,31.952
		h-4.867l-3.763-9.679h-13.489l-3.538,9.679H1009.635L1009.635,690.644z M982.942,690.644v-31.952h4.274v15.846l16.02-15.846h5.784
		l-13.534,12.944l14.128,19.007h-5.633l-11.484-16.173l-5.28,5.103v11.07H982.942L982.942,690.644z M952.884,690.644v-31.952h4.273
		v15.846l16.02-15.846h5.784l-13.535,12.944l14.128,19.007h-5.633l-11.484-16.173l-5.28,5.103v11.07H952.884L952.884,690.644z
		 M928.768,677.521h10.943l-3.372-8.846c-1.021-2.686-1.788-4.895-2.283-6.628c-0.413,2.053-0.992,4.084-1.743,6.107
		L928.768,677.521L928.768,677.521z M919.462,690.644l12.393-31.952h4.596l13.204,31.952h-4.867l-3.763-9.679h-13.489l-3.537,9.679
		H919.462L919.462,690.644z M890.418,690.644v-31.952h4.379l16.944,25.085v-25.085h4.093v31.952h-4.379l-16.944-25.108v25.108
		H890.418L890.418,690.644z M866.166,677.521h10.943l-3.372-8.846c-1.021-2.686-1.788-4.895-2.283-6.628
		c-0.413,2.053-0.992,4.084-1.743,6.107L866.166,677.521L866.166,677.521z M856.86,690.644l12.393-31.952h4.596l13.204,31.952
		h-4.867l-3.763-9.679h-13.489l-3.537,9.679H856.86L856.86,690.644z M850.874,679.44l4.274,1.071
		c-0.894,3.467-2.509,6.115-4.829,7.945c-2.328,1.823-5.167,2.73-8.532,2.73c-3.477,0-6.301-0.699-8.48-2.098
		c-2.178-1.406-3.838-3.437-4.972-6.093c-1.134-2.663-1.705-5.52-1.705-8.57c0-3.325,0.639-6.227,1.923-8.704
		c1.284-2.477,3.109-4.359,5.483-5.646c2.366-1.287,4.972-1.927,7.819-1.927c3.229,0,5.941,0.811,8.141,2.44
		c2.201,1.629,3.733,3.913,4.597,6.866l-4.198,0.982c-0.751-2.329-1.833-4.017-3.26-5.081c-1.42-1.064-3.207-1.592-5.37-1.592
		c-2.479,0-4.544,0.588-6.212,1.763c-1.667,1.183-2.839,2.76-3.507,4.746c-0.676,1.979-1.014,4.025-1.014,6.13
		c0,2.723,0.398,5.089,1.194,7.119c0.804,2.024,2.043,3.541,3.733,4.546c1.69,1.004,3.515,1.503,5.483,1.503
		c2.388,0,4.408-0.684,6.068-2.046C849.169,684.157,850.288,682.126,850.874,679.44L850.874,679.44z M1086.014,704.959v-5.019h5.044
		v5.019H1086.014L1086.014,704.959z M1086.331,739.843v-32.864h4.388v32.864H1086.331L1086.331,739.843z M1053.175,729.284
		l4.141-0.359c0.193,1.645,0.649,2.992,1.367,4.048c0.719,1.056,1.831,1.905,3.338,2.556c1.506,0.65,3.206,0.972,5.091,0.972
		c1.676,0,3.151-0.245,4.434-0.734c1.282-0.497,2.24-1.171,2.866-2.028c0.626-0.865,0.942-1.798,0.942-2.816
		c0-1.033-0.301-1.928-0.911-2.701c-0.603-0.773-1.599-1.416-2.982-1.936c-0.896-0.344-2.858-0.88-5.91-1.607
		c-3.044-0.727-5.183-1.408-6.404-2.051c-1.584-0.819-2.766-1.844-3.546-3.061c-0.773-1.217-1.159-2.579-1.159-4.094
		c0-1.653,0.471-3.206,1.422-4.645c0.95-1.446,2.341-2.54,4.164-3.29c1.831-0.742,3.855-1.117,6.087-1.117
		c2.464,0,4.627,0.39,6.512,1.178c1.877,0.78,3.322,1.936,4.334,3.458c1.004,1.523,1.552,3.252,1.63,5.18l-4.21,0.313
		c-0.231-2.074-0.996-3.65-2.302-4.706c-1.305-1.064-3.229-1.591-5.778-1.591c-2.657,0-4.589,0.482-5.809,1.446
		c-1.213,0.964-1.823,2.127-1.823,3.481c0,1.186,0.433,2.158,1.29,2.915c0.85,0.765,3.052,1.546,6.621,2.341
		c3.569,0.803,6.018,1.5,7.346,2.096c1.932,0.888,3.361,2.005,4.28,3.351c0.919,1.354,1.375,2.915,1.375,4.675
		c0,1.752-0.502,3.397-1.514,4.943c-1.012,1.545-2.464,2.747-4.357,3.612c-1.893,0.857-4.025,1.286-6.389,1.286
		c-3.005,0-5.523-0.429-7.547-1.301c-2.032-0.865-3.623-2.165-4.782-3.91C1053.839,733.454,1053.229,731.48,1053.175,729.284
		L1053.175,729.284z M1023.843,739.843v-32.864h23.986v3.879h-19.599v10.062h18.355v3.857h-18.355v11.187h20.371v3.88H1023.843
		L1023.843,739.843z M1002.182,739.843v-13.918l-12.785-18.945h5.338l6.543,9.909c1.205,1.852,2.325,3.703,3.368,5.563
		c0.997-1.721,2.202-3.658,3.623-5.808l6.427-9.664h5.114l-13.241,18.945v13.918H1002.182L1002.182,739.843z M980.39,704.959v-5.019
		h5.044v5.019H980.39L980.39,704.959z M980.706,739.843v-32.864h4.388v32.864H980.706L980.706,739.843z M950.872,735.964h7.084
		c2.186,0,3.909-0.199,5.153-0.604c1.244-0.406,2.233-0.972,2.974-1.706c1.043-1.025,1.854-2.418,2.433-4.155
		c0.579-1.744,0.873-3.849,0.873-6.335c0-3.436-0.571-6.076-1.707-7.92c-1.143-1.852-2.526-3.083-4.156-3.711
		c-1.174-0.452-3.074-0.674-5.678-0.674h-6.976V735.964L950.872,735.964z M946.485,739.843v-32.864h11.425
		c2.58,0,4.55,0.16,5.91,0.474c1.9,0.429,3.523,1.217,4.867,2.349c1.746,1.469,3.059,3.336,3.924,5.616
		c0.873,2.28,1.305,4.882,1.305,7.812c0,2.495-0.293,4.706-0.888,6.634c-0.587,1.928-1.337,3.527-2.263,4.79
		c-0.919,1.262-1.924,2.257-3.02,2.976c-1.089,0.727-2.41,1.278-3.956,1.653c-1.553,0.375-3.33,0.559-5.33,0.559H946.485
		L946.485,739.843z M915.662,739.843v-32.864h23.986v3.879H920.05v10.062h18.355v3.857H920.05v11.187h20.371v3.88H915.662
		L915.662,739.843z M889.605,739.843v-32.864h4.395v28.984h16.339v3.88H889.605L889.605,739.843z M858.968,739.843v-32.864h23.986
		v3.879h-19.599v10.062h18.355v3.857h-18.355v11.187h20.371v3.88H858.968L858.968,739.843z M832.17,735.964h8.258
		c1.421,0,2.418-0.054,2.99-0.153c1.012-0.184,1.854-0.482,2.534-0.903c0.68-0.413,1.236-1.025,1.676-1.821
		c0.433-0.803,0.657-1.722,0.657-2.77c0-1.224-0.317-2.288-0.95-3.198c-0.633-0.903-1.514-1.538-2.642-1.905
		c-1.12-0.36-2.742-0.543-4.851-0.543h-7.671V735.964L832.17,735.964z M832.17,720.791h7.177c1.939,0,3.337-0.13,4.187-0.383
		c1.113-0.329,1.955-0.872,2.518-1.638c0.564-0.765,0.85-1.722,0.85-2.869c0-1.086-0.263-2.051-0.788-2.877
		c-0.533-0.834-1.29-1.4-2.263-1.706c-0.981-0.306-2.665-0.459-5.052-0.459h-6.628V720.791L832.17,720.791z M827.774,739.843
		v-32.864h12.453c2.534,0,4.565,0.336,6.095,0.995c1.537,0.666,2.735,1.691,3.6,3.076c0.865,1.377,1.306,2.824,1.306,4.338
		c0,1.4-0.386,2.724-1.159,3.964c-0.765,1.24-1.931,2.242-3.484,3.007c2.008,0.582,3.546,1.576,4.627,2.977
		c1.081,1.408,1.622,3.068,1.622,4.981c0,1.538-0.332,2.969-0.989,4.293c-0.656,1.323-1.468,2.341-2.433,3.061
		c-0.966,0.719-2.178,1.255-3.631,1.622c-1.453,0.367-3.237,0.551-5.354,0.551H827.774L827.774,739.843z"/>
</g>
</svg>
