<?xml version="1.0" encoding="UTF-8"?>
<svg id="Layer_2" data-name="Layer 2" xmlns="http://www.w3.org/2000/svg" viewBox="0 0 277.27 412.1">
  <defs>
    <style>
      .cls-1 {
        fill: #0056a7;
        fill-rule: evenodd;
      }
    </style>
  </defs>
  <g id="Layer_1-2" data-name="Layer 1">
    <g>
      <path class="cls-1" d="M0,50.58v-6.17C0,19.98,62.39,0,138.63,0h0c76.25,0,138.63,19.98,138.63,44.41v6.17h0v139.56c0,64.06-62.39,116.47-138.63,116.47h0c-76.25,0-138.63-52.41-138.63-116.47V50.58h0ZM117.34,215.57c-.7.14-1.39.24-2.07.31-7.29.73-13.98-2.39-20.27-8.08-6.22,4.6-12.01,7.06-17.46,7.61-7.32.73-14.03-2-20.34-7.67-5.21,4.97-13.2,8.42-20.78,8.76-6.66.29-13.02-1.82-16.9-7.44-1.83-2.64-1.41-4.22-1.41-7.44v-123.56h24.98v17.31h24.98v-17.31h24.98v17.31h24.98v-17.31h29.97v10.87c-1.03,14.37-4.89,24-12.15,32.89-5.26,6.44-12.4,12.36-21.33,19.68-35.3,28.93-21.44,53.28,2.82,74.08h0ZM217.09,144.94c-.65-.62-1.3-1.24-1.95-1.87-5.55-5.3-11.16-11.39-16.43-17.79-.24-2.35-1.54-3.83.33-6.47,2.89-4.1,7-3.26,10.86-.76,4.05,2.63,6.39,9.1,7.27,15.52.57,4.17.52,8.32-.07,11.37h0ZM225.44,210.26c-5.55,3.36-9.91,4.62-13.79,4.9,7.77-6.14,13.85-11.42,17.07-16.47,4.6-7.19,6.15-14.93,5.33-22.71,1.62.28,4.34.37,7.18.2,6.65-.41,8.42-3.47,7.83-6.01-.52-2.22-2.91-4.63-5.66-6.65-4.61-3.39-6.21-6.65-7.9-12.05-1.61-5.18-1.96-10.77-2.2-16.35-.45-10.64-.47-21.25-8.09-28.95-5.87-5.94-17.35-9.52-27.26-6.43-2.53.79-4.96,2.01-7.17,3.74-1.56,1.22-3.1,2.13-4.44,2.12-.86,0-1.67-.21-2.43-.57-.49-.77-.98-1.55-1.45-2.32l-.12-.21v-24.45h28.1v17.31h24.98v-17.31h24.98v126.62c0,15.74-27.76,12.09-34.97,5.59h0ZM220.05,236.45c-2.32,1.35-4.6,2.75-6.92,4.08-2.07,1.18-4.18,2.28-6.48,2.93-.96.27-1.94.47-2.93.58-8.19.94-16.38-3.15-23.31-7.29-13.95,11.84-27.2,9.61-41.3-.89-4.32,3.19-9.52,6.57-14.7,7.46-1.6.28-3.22.35-4.84.21-6.64-.59-13.07-5.13-18.4-9.14-3.82,2.42-7.87,4.86-11.99,6.62-3.57,1.52-7.31,2.54-11.22,2.23-6.36-.51-11.9-4.56-16.56-8.73-15.25,10.22-27.61,12.09-42.38-.95-2.7-2.39.3-5.78,3-3.4,4.44,3.92,9.66,7.4,15.7,7.98,8.09.77,16.2-3.93,22.58-8.37l1.5-1.04,1.34,1.24c4.04,3.75,9.43,8.3,15.18,8.76,3.14.25,6.22-.66,9.08-1.88,4.36-1.86,8.67-4.57,12.66-7.12l1.33-.85,1.26.95c4.66,3.53,11.3,8.66,17.32,9.19,1.23.11,2.46.05,3.68-.16,4.85-.83,10.26-4.73,14.11-7.64l1.39-1.05,1.37,1.07c13.29,10.36,24.94,13.01,38.12,1.04l1.26-1.14,1.45.88c6.17,3.76,14.35,8.38,21.87,7.52.74-.09,1.48-.23,2.2-.43,1.92-.55,3.74-1.52,5.47-2.51,2.72-1.56,5.38-3.21,8.11-4.76l1.19-.68,1.15.74c4.76,3.05,10.55,6.52,16.31,6.97,6.86.54,12.45-3.37,17.06-8.06,2.53-2.57,5.76.61,3.24,3.18-5.6,5.71-12.35,10.05-20.65,9.4-6.19-.48-12.02-3.66-17.23-6.94h0ZM65.26,268.89c9.11-9.44,18.9-13.61,28.9-15.39,23.69-4.21,42.12,2.33,59.07,9.18,9.82,3.97,17.6,4.99,25.35,4.48,8.25-.54,16.45-2.82,26.99-5.14-2.32,2.54-4.4,4.4-6.58,5.88-2.81,1.91-5.81,3.2-9.79,4.57,3.38,3.59,7.38,6.7,10.45,10.6-8.88-2.75-17.13-4.28-25.2-4.96-10.7-.9-21.44.26-32.8,1.81-28.21,3.86-57.33,7.28-76.39-11.04h0ZM81.9,261.8c1.96,0,3.55,1.59,3.55,3.55s-1.59,3.55-3.55,3.55-3.55-1.59-3.55-3.55,1.59-3.55,3.55-3.55h0Z"/>
      <path d="M3.38,410.02h270.5v2.09H3.38v-2.09h0ZM3.38,362.65h270.5v2.03H3.38v-2.03h0ZM15.23,359.14l9.04-1.01v2.42l-9.04,1.01v-2.42h0ZM247.39,356.64v-31.95h23.32v3.77h-19.06v9.78h17.84v3.75h-17.84v10.88h19.81v3.77h-24.07ZM222.06,356.64v-31.95h4.27v28.18h15.89v3.77h-20.16ZM197.94,343.52h10.94l-3.37-8.85c-1.02-2.69-1.79-4.9-2.28-6.63-.41,2.05-.99,4.08-1.74,6.11l-3.55,9.37h0ZM188.64,356.64l12.39-31.95h4.6l13.2,31.95h-4.87l-3.76-9.68h-13.49l-3.54,9.68h-4.54ZM161.94,356.64v-31.95h4.27v15.85l16.02-15.85h5.78l-13.53,12.94,14.13,19.01h-5.63l-11.48-16.17-5.28,5.1v11.07h-4.27ZM131.88,356.64v-31.95h4.27v15.85l16.02-15.85h5.78l-13.53,12.94,14.13,19.01h-5.63l-11.48-16.17-5.28,5.1v11.07h-4.27ZM107.77,343.52h10.94l-3.37-8.85c-1.02-2.69-1.79-4.9-2.28-6.63-.41,2.05-.99,4.08-1.74,6.11l-3.54,9.37h0ZM98.46,356.64l12.39-31.95h4.6l13.2,31.95h-4.87l-3.76-9.68h-13.49l-3.54,9.68h-4.54ZM69.42,356.64v-31.95h4.38l16.94,25.09v-25.09h4.09v31.95h-4.38l-16.94-25.11v25.11h-4.09ZM45.17,343.52h10.94l-3.37-8.85c-1.02-2.69-1.79-4.9-2.28-6.63-.41,2.05-.99,4.08-1.74,6.11l-3.54,9.37h0ZM35.86,356.64l12.39-31.95h4.6l13.2,31.95h-4.87l-3.76-9.68h-13.49l-3.54,9.68h-4.54ZM29.87,345.44l4.27,1.07c-.89,3.47-2.51,6.11-4.83,7.95-2.33,1.82-5.17,2.73-8.53,2.73s-6.3-.7-8.48-2.1c-2.18-1.41-3.84-3.44-4.97-6.09-1.13-2.66-1.71-5.52-1.71-8.57,0-3.33.64-6.23,1.92-8.7s3.11-4.36,5.48-5.65c2.37-1.29,4.97-1.93,7.82-1.93,3.23,0,5.94.81,8.14,2.44,2.2,1.63,3.73,3.91,4.6,6.87l-4.2.98c-.75-2.33-1.83-4.02-3.26-5.08-1.42-1.06-3.21-1.59-5.37-1.59-2.48,0-4.54.59-6.21,1.76-1.67,1.18-2.84,2.76-3.51,4.75-.68,1.98-1.01,4.03-1.01,6.13,0,2.72.4,5.09,1.19,7.12.8,2.02,2.04,3.54,3.73,4.55,1.69,1,3.52,1.5,5.48,1.5,2.39,0,4.41-.68,6.07-2.05,1.66-1.37,2.78-3.4,3.36-6.08h0ZM265.01,370.96v-5.02h5.04v5.02h-5.04ZM265.33,405.84v-32.86h4.39v32.86h-4.39ZM232.18,395.28l4.14-.36c.19,1.65.65,2.99,1.37,4.05.72,1.06,1.83,1.91,3.34,2.56,1.51.65,3.21.97,5.09.97,1.68,0,3.15-.24,4.43-.73,1.28-.5,2.24-1.17,2.87-2.03.63-.86.94-1.8.94-2.82s-.3-1.93-.91-2.7c-.6-.77-1.6-1.42-2.98-1.94-.9-.34-2.86-.88-5.91-1.61-3.04-.73-5.18-1.41-6.4-2.05-1.58-.82-2.77-1.84-3.55-3.06-.77-1.22-1.16-2.58-1.16-4.09,0-1.65.47-3.21,1.42-4.65.95-1.45,2.34-2.54,4.16-3.29,1.83-.74,3.85-1.12,6.09-1.12,2.46,0,4.63.39,6.51,1.18,1.88.78,3.32,1.94,4.33,3.46,1,1.52,1.55,3.25,1.63,5.18l-4.21.31c-.23-2.07-1-3.65-2.3-4.71-1.31-1.06-3.23-1.59-5.78-1.59s-4.59.48-5.81,1.45c-1.21.96-1.82,2.13-1.82,3.48,0,1.19.43,2.16,1.29,2.91.85.77,3.05,1.55,6.62,2.34,3.57.8,6.02,1.5,7.35,2.1,1.93.89,3.36,2.01,4.28,3.35.92,1.35,1.38,2.91,1.38,4.67s-.5,3.4-1.51,4.94c-1.01,1.54-2.46,2.75-4.36,3.61-1.89.86-4.03,1.29-6.39,1.29-3.01,0-5.52-.43-7.55-1.3-2.03-.86-3.62-2.16-4.78-3.91-1.15-1.73-1.76-3.71-1.82-5.9h0ZM202.84,405.84v-32.86h23.99v3.88h-19.6v10.06h18.35v3.86h-18.35v11.19h20.37v3.88h-24.76ZM181.18,405.84v-13.92l-12.78-18.95h5.34l6.54,9.91c1.21,1.85,2.33,3.7,3.37,5.56,1-1.72,2.2-3.66,3.62-5.81l6.43-9.66h5.11l-13.24,18.95v13.92h-4.39ZM159.39,370.96v-5.02h5.04v5.02h-5.04ZM159.71,405.84v-32.86h4.39v32.86h-4.39ZM129.87,401.96h7.08c2.19,0,3.91-.2,5.15-.6,1.24-.41,2.23-.97,2.97-1.71,1.04-1.03,1.85-2.42,2.43-4.16.58-1.74.87-3.85.87-6.34,0-3.44-.57-6.08-1.71-7.92-1.14-1.85-2.53-3.08-4.16-3.71-1.17-.45-3.07-.67-5.68-.67h-6.98v25.11h0ZM125.48,405.84v-32.86h11.42c2.58,0,4.55.16,5.91.47,1.9.43,3.52,1.22,4.87,2.35,1.75,1.47,3.06,3.34,3.92,5.62.87,2.28,1.3,4.88,1.3,7.81,0,2.49-.29,4.71-.89,6.63-.59,1.93-1.34,3.53-2.26,4.79-.92,1.26-1.92,2.26-3.02,2.98-1.09.73-2.41,1.28-3.96,1.65-1.55.38-3.33.56-5.33.56h-11.97ZM94.66,405.84v-32.86h23.99v3.88h-19.6v10.06h18.35v3.86h-18.35v11.19h20.37v3.88h-24.76ZM68.6,405.84v-32.86h4.4v28.98h16.34v3.88h-20.73ZM37.97,405.84v-32.86h23.99v3.88h-19.6v10.06h18.35v3.86h-18.35v11.19h20.37v3.88h-24.76ZM11.17,401.96h8.26c1.42,0,2.42-.05,2.99-.15,1.01-.18,1.85-.48,2.53-.9.68-.41,1.24-1.03,1.68-1.82.43-.8.66-1.72.66-2.77,0-1.22-.32-2.29-.95-3.2-.63-.9-1.51-1.54-2.64-1.91-1.12-.36-2.74-.54-4.85-.54h-7.67v11.29h0ZM11.17,386.79h7.18c1.94,0,3.34-.13,4.19-.38,1.11-.33,1.96-.87,2.52-1.64.56-.77.85-1.72.85-2.87,0-1.09-.26-2.05-.79-2.88-.53-.83-1.29-1.4-2.26-1.71-.98-.31-2.66-.46-5.05-.46h-6.63v9.93h0ZM6.77,405.84v-32.86h12.45c2.53,0,4.57.34,6.09.99,1.54.67,2.73,1.69,3.6,3.08.86,1.38,1.31,2.82,1.31,4.34,0,1.4-.39,2.72-1.16,3.96-.77,1.24-1.93,2.24-3.48,3.01,2.01.58,3.55,1.58,4.63,2.98,1.08,1.41,1.62,3.07,1.62,4.98,0,1.54-.33,2.97-.99,4.29-.66,1.32-1.47,2.34-2.43,3.06-.97.72-2.18,1.26-3.63,1.62s-3.24.55-5.35.55H6.77Z"/>
    </g>
  </g>
</svg>