<?xml version="1.0" encoding="iso-8859-1"?>
<!-- Generator: Adobe Illustrator 29.7.1, SVG Export Plug-In . SVG Version: 9.03 Build 0)  -->
<svg version="1.1" id="Layer_1" xmlns="http://www.w3.org/2000/svg" xmlns:xlink="http://www.w3.org/1999/xlink" x="0px" y="0px"
	 viewBox="0 0 2834.646 1417.323" style="enable-background:new 0 0 2834.646 1417.323;" xml:space="preserve">
<g>
	<path style="fill-rule:evenodd;clip-rule:evenodd;fill:#2962A7;" d="M1477.157,1111.716c162.372,0,294.803-177,294.803-394.016
		s-132.431-394.016-294.803-394.016S1182.354,500.684,1182.354,717.7S1314.785,1111.716,1477.157,1111.716z"/>
</g>
<path style="fill-rule:evenodd;clip-rule:evenodd;fill:#FFFFFF;" d="M1477.157,1096.109c155.941,0,283.126-169.989,283.126-378.41
	c0-208.421-127.186-378.41-283.126-378.41s-283.126,169.989-283.126,378.41C1194.031,926.121,1321.217,1096.109,1477.157,1096.109z"
	/>
<path style="fill-rule:evenodd;clip-rule:evenodd;fill:#2962A7;" d="M1477.157,1088.898c152.969,0,277.731-166.75,277.731-371.198
	s-124.762-371.198-277.731-371.198c-152.969,0-277.731,166.75-277.731,371.198S1324.188,1088.898,1477.157,1088.898z"/>
<path style="fill-rule:evenodd;clip-rule:evenodd;fill:#FFFFFF;" d="M1530.101,844.868l0.193-28.539
	C1531.227,818.666,1530.526,841.736,1530.101,844.868L1530.101,844.868z M1421.854,820.868c0.615-4.612,11.108-11.528,15.205-13.894
	c1.205,0.789,4.133,3.904,5.52,5.349l11.285,11.602l3.047,6.497c-5.466,1.07-21.185-2.57-27.754-5.217
	C1425.606,823.775,1423.849,823.207,1421.854,820.868L1421.854,820.868z M1475.068,829.635c-0.381-2.883,2.713-4.727,4.253-6.289
	l15.962-16.414c2.825,0.08,6.624,4.111,8.94,6.053c2.904,2.436,4.595,5.264,6.477,8.257c-2.525,2.719-11.183,5.609-15.997,6.818
	C1491.152,828.952,1477.663,831.817,1475.068,829.635L1475.068,829.635z M1500.994,801.578c0.432,1.886,7.436,8.364,9.122,10.379
	c1.179,1.409,7.851,10.078,11.07,5.575c0.789-1.104,1.168-33.614-0.165-36.074c-6.686,3.773-4.137,3.375-8.128,7.254
	L1500.994,801.578L1500.994,801.578z M1470.058,824.019c0.381,0.193-0.814,0.764,1.317,0.268c0.609-0.142,1.783-1.351,2.211-1.806
	c0.991-1.053,1.751-1.911,2.726-3l10.692-11.304c1.015-1.204,1.71-1.815,2.71-3.025c1.037-1.255,1.853-1.561,2.524-2.697
	c-2.108-2.801-8.089-9.815-10.299-11.651c-4.049-3.363-8.666-10.32-11.366-10.701
	C1470.387,785.832,1469.007,821.302,1470.058,824.019L1470.058,824.019z M1440.201,802.016c0.681,1.886,1.522,1.833,2.673,2.993
	c0.904,0.912,1.833,2.056,2.67,3.062c2.993,3.598,7.801,7.894,10.704,11.288c1.246,1.456,3.91,4.835,5.997,4.989
	c0.324-7.647,1.349-41.018-0.254-44.275c-4.118,2.813-2.957,1.648-5.925,5.302l-5.46,5.525c-1.554,1.71-3.69,4.361-5.326,5.681
	C1444.081,797.548,1440.778,800.598,1440.201,802.016L1440.201,802.016z M1411.12,817.278c4.552,4.014,8.886-2.635,11.325-5.202
	c1.567-1.65,8.263-8.601,9.135-10.061c-5.377-6.605-7.429-8.194-11.934-13.403c-2.332-2.696-5.356-7.015-7.774-7.159
	c-1.372,3.596-1.269,2.785-1.155,7.41C1410.861,794.629,1410.366,812.494,1411.12,817.278L1411.12,817.278z M1405.363,780.89
	c1.311,7.43,0.255,18.05,0.47,25.951c0.102,3.785,0.391,1.513-0.542,5.739c-2.972-0.065-7.096-4.516-9.298-6.218l-8.703-7.087
	c0.05-3.469,4.642-6.23,8.035-9.728c1.649-1.7,2.907-2.986,4.536-4.702C1403.008,781.531,1402.84,780.898,1405.363,780.89
	L1405.363,780.89z M1622.369,795.879h4.312c0.601,1.662,0.259,14.618,0.351,18.443c0.037,1.53,0.264,0.944-0.85,2.35
	c-1.55-1.108-0.888-5.36-0.904-8.957l-0.091-10.083c-1.275-0.917-0.316-0.207-1.462-0.596
	C1621.255,796.199,1622.915,796.605,1622.369,795.879L1622.369,795.879z M1336.038,755.3c-3.777,4.661-6.661,22.258-7.187,28.723
	c-0.796,9.77,0.967,23.937,5.014,30.938c9.882,17.097,29.645,21.82,49.286,22.646c14.152,0.595,16.771-9.561,9.823-19.464
	c-1.389-1.979-2.481-3.36-4.051-5.189c-0.854-0.996-1.035-1.537-2.004-2.406c-1.042-0.934-1.479-1.165-2.298-2.097
	c-4.464-5.075-6.925-6.16-9.033-8.571l-3.266-3.792c-7.851-9.402-12.958-17.095-18.529-28.51c-1.955-4.006-4.193-7.905-5.483-12.203
	C1340.341,755.749,1342.362,755.442,1336.038,755.3L1336.038,755.3z M1530.449,811.561c-0.633,0.442,0.596,0.667-3.187,0.92
	c-0.963-8.206-0.906-23.234-0.073-31.527l3.762,1.736L1530.449,811.561L1530.449,811.561z M1476.952,774.977l40.221,0.143
	c-0.382,2.211-8.599,9.521-10.311,11.096l-11.033,10.503c-1.826-0.773-1.383-1.048-2.489-2.321l-14.755-16.044
	C1477.752,777.597,1476.529,776.507,1476.952,774.977L1476.952,774.977z M1455.556,774.954c0.267,1.828-0.449,2.109-1.466,3.181
	l-16.869,18.608c-2.034-0.564-9.212-8.456-10.796-10.043c-14.456-14.485-17.536-11.712,7.983-11.712L1455.556,774.954
	L1455.556,774.954z M1384.034,793.136c1.897-1.065,2.859-3.01,4.183-4.508c1.345-1.522,1.481-1.176,4.086-4.27
	c2.718-3.228,7.501-6.929,7.628-9.074l-30.498-0.203c1.792,4.241,0.634,2.172,3.223,5.356c1.101,1.353,2.676,3.247,3.685,4.232
	C1378.191,786.472,1382.119,792.526,1384.034,793.136L1384.034,793.136z M1603.597,915.957l-4.37,1.615
	c-3.949-3.015-2.755-9.692-2.755-16.039V787.111c0-8.558-0.023-9.929-0.712-18.435l8.189-1.146
	c1.139,2.871,0.461,65.574,0.461,74.381C1604.41,852.031,1605.299,911.885,1603.597,915.957L1603.597,915.957z M1517.789,769.443
	l-43.627,0.158c-0.196-2.522,1.593-3.758,4.216-6.831c1.883-2.206,3.573-3.877,5.432-5.992c0.917-1.044,1.733-1.816,2.75-2.953
	c1.033-1.155,1.426-2.029,2.62-3.119c3.787-3.458,4.758-9.312,12.194,1.107l8.304,8.845c1.252,1.146,1.949,1.575,2.998,2.719
	c1.065,1.162,1.59,1.851,2.738,2.986C1516.524,767.458,1517.671,767.958,1517.789,769.443L1517.789,769.443z M1436.521,745.96
	c3.653,0.01,5.095,2.774,6.748,4.754c1.79,2.144,3.678,3.818,5.479,5.943c5.854,6.905,4.081,4.304,9.776,12.915l-43.644,0.113
	c0.281-1.75,1.165-2.039,2.276-3.196l13.926-14.686C1433.173,749.948,1434.312,748.033,1436.521,745.96L1436.521,745.96z
	 M1362.74,762.397l5.832-5.952c4.128-5.326,5.396-6.358,10.602-10.652c2.221,0.837,4.561,3.845,5.845,5.264l13.748,14.436
	l1.554,4.061c-2.327,1.084-17.925,0.357-22.031,0.354c-10.93-0.009-11.277,1.759-14.276-2.828
	C1362.686,765.048,1362.506,765.077,1362.74,762.397L1362.74,762.397z M1469.613,762.602c2.406,0.185,2.685-0.39,3.783-1.684
	l12.759-13.645c6.089-6.264,5.27-6.325,2.834-8.613c-1.036-0.974-1.651-1.716-2.653-2.631l-10.127-10.55
	c-1.717-1.861-2.758-4.404-6.033-4.074c-1.413,5.615-1.084,3.549-1.084,9.591C1469.092,736.978,1468.536,760.125,1469.613,762.602
	L1469.613,762.602z M1462.375,721.638c-2.813-1.195-4.366,2.45-6.08,3.901c-1.908,1.615-3.468,3.678-5.111,5.447
	c-1.483,1.597-9.843,9.059-9.514,10.821c0.15,0.802,8.697,9.508,10.044,11.034c1.638,1.854,3.434,3.531,5.07,5.504
	c1.931,2.33,3.688,4.524,5.903,4.143c0.996-12.888,0.774-18.815,0.774-31.492C1463.461,726.542,1464.182,722.907,1462.375,721.638
	L1462.375,721.638z M1410.971,757.3c0,1.641-0.812,4.785,0.971,5.116c1.775,0.33,13.525-13.329,15.112-15.047
	c2.169-2.349,4.267-2.976,5.609-6.29l-7.538-8.773c-1.118-1.321-3.678-3.384-5.411-5.585c-0.73-0.926-5.725-6.297-6.568-6.692
	c-1.004-0.469-1.719-0.671-2.319,2.162L1410.971,757.3L1410.971,757.3z M1526.406,739.255c0.115-0.12,1.007,0.538,0.501,0.658
	C1526.645,739.975,1525.892,739.793,1526.406,739.255L1526.406,739.255z M1521.041,762.259c0.24-0.351,0.357,0.303,0.625-1.428
	l-0.086-3.969c-0.023-1.918-0.13-3.764-0.128-5.699c0.008-5.714-0.188-10.78,0.322-16.363c0.217-2.373-0.804-1.655-1.309-4.058
	c-0.751-3.581-0.392-6.96-0.914-10.131c-2.22,1.529-3.585,2.37-5.34,4.513c-0.897,1.096-1.419,1.88-2.385,2.896
	c-0.836,0.879-1.74,1.38-2.578,2.255c-1.732,1.808-2.849,3.781-4.765,5.364c-1.579,1.305-1.394,1.172-2.618,2.65
	c-0.865,1.045-1.413,1.341-1.886,2.79l4.863,5.964c1.049,1.03,1.723,1.482,2.667,2.595c0.884,1.042,1.551,1.801,2.478,2.826
	c1.647,1.82,3.872,3.959,5.359,5.646C1516.52,759.441,1518.945,762.704,1521.041,762.259L1521.041,762.259z M1373.826,740.641
	c-0.468-2.12-2.713-3.229-4.959-5.993l-5.171-5.842c-0.968-1.183-1.924-1.653-2.911-2.789c-1.476-1.698-6.651-9.233-8.324-5.764
	c-0.92,1.907,1.828,31.238,9.479,34.166l3.371-3.409C1366.06,750.266,1373.438,741.524,1373.826,740.641L1373.826,740.641z
	 M1405.258,729.682l-0.013,33.742c-1.935-0.153-8.183-7.818-10.965-10.588c-13.39-13.33-13.785-9.27-0.463-23.09
	c1.782-1.849,3.673-3.634,5.528-5.479c3.649-3.628,1.485-1.942,6.105-5.11L1405.258,729.682L1405.258,729.682z M1473.127,711.979
	l39.66-0.439l2.978,3.674l-10.663,10.516c-1.872,1.909-3.203,3.497-5.148,5.42l-5.451,5.441c-1.171-0.655-4.573-4.438-5.616-5.732
	l-13.963-15.073C1473.333,714.416,1472.411,714.435,1473.127,711.979L1473.127,711.979z M1414.641,712.145
	c3.952-1.047,2.852-0.643,6.953-0.542l34.908-0.129l3.375,1.598c-0.624,1.422-9.011,10.08-10.693,11.977l-11.24,11.548
	c-4.238-3.859-7.976-8.718-11.677-11.986c-3.158-2.789-5.462-5.771-9.082-8.979C1414.313,713.087,1415.05,713.317,1414.641,712.145
	L1414.641,712.145z M1400.511,713.46c-0.558,1.774-13.026,13.941-15.916,17.206c-2.673,3.02-2.89,3.07-5.862,5.75
	c-1.319-0.793-1.859-1.732-2.977-2.906l-14.935-14.992c-9.443-9.539-7.706-7.424,17.47-7.424l18.131-0.062
	C1399.227,711.013,1399.478,711.563,1400.511,713.46L1400.511,713.46z M1456.945,707.239c-11.5,0.356-25.035-0.409-37.561,0.044
	l-3.2-0.266c-0.253-0.664-0.492,0.914-0.232-0.95c0.178-1.278,5.809-6.509,6.959-7.526c13.358-11.807,11.851-18.966,19.678-10.73
	c8.515,8.96,7.657,6.958,15.833,17.318C1457.687,706.558,1457.728,706.329,1456.945,707.239L1456.945,707.239z M1396.849,706.901
	c-11.345-0.496-27.903-0.095-40.146-0.104c-0.246-2.481,0.871-2.251,4.999-6.291l11.434-11.449l6.922-4.367l15.042,15.154
	l4.316,6.197C1398.729,706.494,1398.229,706.975,1396.849,706.901L1396.849,706.901z M1510.653,707.165l-34.268,0.118l-2.225-1.546
	c0.345-3.488,2.495-4.104,4.282-6.012c3.174-3.389,12.668-14.265,15.176-15.253c2.72-1.072,4.735,2.018,5.897,3.408
	c2.38,2.851,8.623,7.498,9.221,11.105c0.26,1.57,2.111,5.872,2.159,7.049C1510.989,708.297,1511.021,706.141,1510.653,707.165
	L1510.653,707.165z M1512.62,694.503l-2.29,2.295c9.541,1.006,42.17-1.209,57.509-1.072l25.644,0.378
	c2.958,0,7.436-0.939,10.035-0.369c4.428,0.97,27.792,1.449,33.711,1.386l14.478-1.12l-65.735-4.088
	c-13.453-0.43-48.883,0.751-59.36,1.717C1523.38,693.929,1514.761,695.282,1512.62,694.503L1512.62,694.503z M1470.031,699.562
	c2.135-0.153,2.163-0.716,3.31-1.83c0.936-0.909,1.503-1.508,2.406-2.444c7.106-7.358,7.485-6.901,14.57-15.584
	c-0.433-1.643-0.793-2.44-1.712-3.363l-7.515-7.868c-3.929-4.581-5.81-5.997-10.449-10.158c-1.401,1.731-0.654,16.89-0.654,20.073
	C1469.987,683.555,1469.35,695.427,1470.031,699.562L1470.031,699.562z M1405.245,656.064c-2.714-0.087-4.171,3.394-5.91,5.067
	l-8.31,8.41c-0.954,0.925-1.596,1.79-2.443,2.839c-4.135,5.117-7.745,5.562-2.956,9.685l13.84,13.458
	c2.351,2.454,4.329,5.015,6.004,4.629L1405.245,656.064L1405.245,656.064z M1361.941,665.926c-6.563,2.6-11.846,31.264-9.059,33.755
	c1.544,1.38,2.887-0.217,3.466-0.97c2.53-3.288,9.799-11.341,12.689-14.609c1.547-1.749,4.286-3.577,4.483-6.151
	C1371.536,675.716,1364.214,666.676,1361.941,665.926L1361.941,665.926z M1411.873,700.137c2.778-0.208,4.17-2.894,5.805-4.588
	c3.528-3.655,13.125-14.009,15.424-16.087l-4.586-6.625l-10.646-10.922c-1.827-1.817-2.967-4.361-6.584-4.232
	c-0.453,11.869-0.838,21.129-0.825,32.981C1410.465,694.492,1409.441,697.886,1411.873,700.137L1411.873,700.137z M1512.406,692.205
	c-0.365-7.806,1.346-24.876,0.806-27.456c0,0-0.144-1.031-1.939,0.452c-0.136,0.112-11.683,12.453-11.768,12.892
	c-0.281,1.451,4.659,6.489,5.826,7.53C1507.809,687.83,1509.341,691.148,1512.406,692.205L1512.406,692.205z M1462.384,699.55
	c0.316-1.437,0.385-39.818-0.219-41.208c-7.396,6.258-9.473,8.685-15.608,15.449c-1.725,1.902-3.509,2.866-4.341,5.913
	c5.38,7.377,8.174,9.14,14.555,15.514C1459.644,698.09,1460.081,699.315,1462.384,699.55L1462.384,699.55z M1530.926,654.313
	c-2.689-0.101-1.467,0.282-1.914-1.06C1530.207,652.751,1530.411,653.366,1530.926,654.313L1530.926,654.313z M1593.692,653.63
	c6.465-0.6,14.378,0.008,20.411,0.43L1593.692,653.63L1593.692,653.63z M1537.824,653.811c-0.648,0.06-1.122-0.021-1.798,0.007
	c-1.148,0.048-1.498,0.336-2.432-0.156l5.684-0.228L1537.824,653.811L1537.824,653.811z M1515.652,652.112
	c-2.174,4.329-1.204,3.15-4.573,6.331l-16.577,15.758c-1.443-0.769-7.886-8.642-10.153-10.723l-7.312-8.1
	c-0.997-1.089-1.627-1.309-1.501-3.246L1515.652,652.112L1515.652,652.112z M1447.889,663.694
	c-1.546,1.778-8.406,9.449-9.946,10.526c-5.733-4.733-12.659-13.084-16.585-16.192c-1.541-1.22-4.522-3.258-4.422-5.748
	l40.009-0.219C1454.103,658.424,1452.943,657.881,1447.889,663.694L1447.889,663.694z M1379.174,674.071
	c-1.924-0.967-7.722-7.343-9.475-9.083c-1.644-1.631-8.383-7.145-5.172-11.631c2.374-3.318,11.561-1.968,16.414-1.968
	c4.228,0,14.804-0.734,17.684,0.563l-1.767,3.659l-7.528,7.851c-1.739,1.907-3.203,3.719-4.983,5.597
	C1383.573,669.876,1379.885,673.72,1379.174,674.071L1379.174,674.071z M1527.236,649.544l0.843,0.682L1527.236,649.544
	L1527.236,649.544z M1416.291,646.688c-5.523,0.292,0.478-4.423,1.306-5.155c4.246-3.755,7.324-7.274,11.371-11.07
	c3.582-3.361,3.488-3.974,5.245-5.75c2.479-2.507,4.616,1.065,6.416,2.786c2.367,2.264,15.649,14.799,16.9,16.694l-1.284,2.203
	C1443.261,647.111,1429.104,646.1,1416.291,646.688L1416.291,646.688z M1480.363,646.562c-2.166,0-4.771,0.429-5.198-1.617
	c-0.33-1.585,1.589-2.795,2.332-3.593c2.298-2.467,17.831-17.223,19.214-17.653l11.935,11.725
	c3.86,3.898,14.402,11.611,7.508,11.265C1506.505,646.204,1490.669,646.555,1480.363,646.562L1480.363,646.562z M1372.374,645.688
	c-1.026-4.964,12.18-16.262,12.632-16.372c2.594-0.634,6.301,4.222,8.135,6.287c0.677,0.762,1.184,1.375,1.88,2.079
	c0.633,0.641,1.229,1.013,1.843,1.663c1.179,1.249,1.657,2.445,3.17,3.701l-5.394,2.881
	C1394.243,646.026,1373.912,646.06,1372.374,645.688L1372.374,645.688z M1528.237,641.79l1.317,3.311l-1.085-1.324
	c-0.067-0.073-0.195-0.136-0.255-0.21C1526.689,641.687,1528.074,642.018,1528.237,641.79L1528.237,641.79z M1621.726,638.061
	c-0.109,0.148-0.021,0.618-1.348,0.807c-1.555,0.222-1.24-0.157-1.551-0.374L1621.726,638.061L1621.726,638.061z M1614.358,638.018
	l2.429,0.359c-0.098,0.159-0.117,0.698-1.473,0.363C1613.96,638.404,1614.538,638.191,1614.358,638.018L1614.358,638.018z
	 M1558.492,638.214c-2.341,1.161-4.727,0.215-6.708,0.118L1558.492,638.214L1558.492,638.214z M1618.235,636.511
	c-1.323-0.631-0.976,0.402-1.003-2.395c-0.015-1.607-0.269-1.46,0.552-2.527C1618.59,632.706,1618.235,634.768,1618.235,636.511
	L1618.235,636.511z M1555.039,636.323c-0.64-1.141-0.832-4.115,0-5.271C1555.837,632.725,1556.104,635.028,1555.039,636.323
	L1555.039,636.323z M1527.398,614.569c0.803-0.436,1.489-0.551,1.836-0.588l-0.052,7.416c-0.048,5.395,0.772,8.088-1.415,9.123
	C1526.68,625.754,1526.777,619.434,1527.398,614.569L1527.398,614.569z M1621.726,638.061c3.943-0.412,8.225-6.358,9.139-8.526
	l1-3.837c-1.734,3.91-4.577,8.782-8.432,10.94c-0.581,0.324-0.418,0.087-0.896,0.432
	C1621.198,638.032,1622.205,637.164,1621.726,638.061L1621.726,638.061z M1614.358,638.018c-2.039-3.062-5.409-0.882-10.657-14.518
	c-0.425,0.621-0.393-0.162-0.457,0.972C1603.152,626.093,1608.318,637.283,1614.358,638.018L1614.358,638.018z M1389.685,624.904
	l7.439,7.621c1.29,1.331,2.357,2.279,3.765,3.712c2.432,2.476,0.225,1.527,3.759,2.606c1.407-1.481,0.614-6.174,0.564-9.554
	c-0.277-18.834,2.501-18.638-11.071-8.821C1392.542,621.624,1390.219,622.8,1389.685,624.904L1389.685,624.904z M1533.316,620.925
	c0.571,0.47,0.097-0.218,0.683,0.709l0.991,2.125c2.361,4.576,5.726,8.823,10.207,11.353c2.183,1.233,3.426,1.598,5.934,2.369
	c-1.819,0.482-1.542,0.66-3.323-0.114c-1.086-0.472-1.996-0.849-2.983-1.451C1539.686,632.78,1533.274,625.797,1533.316,620.925
	L1533.316,620.925z M1469.861,598.6c0.276,6.308-0.001,39.888,0,39.894l0.78,2.596c1.89-0.416,4.404-3.69,5.841-5.126
	c1.944-1.943,3.516-3.613,5.428-5.584c1.851-1.908,10.495-9.622,10.713-11.69c0.251-2.387-3.297-4.996-4.551-6.259l-16.989-16.789
	C1470.221,596.411,1469.77,596.885,1469.861,598.6L1469.861,598.6z M1439.793,618.328c0.711,2.405,7.81,9.229,10.521,11.841
	c4.647,4.474,6.634,7.23,11.863,10.893l0.514-2.567V598.6l-0.934-2.937c-1.703,0.295-6.122,5.449-8.595,7.946l-8.277,8.449
	C1443.032,613.959,1440.737,615.426,1439.793,618.328L1439.793,618.328z M1520.573,638.908c1.772-1.649,1.32-3.205,1.19-6.113
	l0.073-22.499c-0.967-1.013-4.074-3.499-5.296-4.195c-3.135-1.785-4.665,0.364-6.274,2.008l-7.289,7.225
	c-3.687,3.506-0.615,3.906,2.688,8.576l6.941,8.036c1.365,1.278,1.332,1.153,2.363,2.462
	C1516.194,635.963,1518.268,638.832,1520.573,638.908L1520.573,638.908z M1431.297,617.451c-0.967-1.887-4.95-5.432-6.589-7.031
	c-1.521-1.484-4.89-6.126-7.922-4.775c-0.988,0.44-2.915,2.058-3.872,2.752c-1.985,1.442-2.227,1.456-2.206,4.655
	c0.221,32.635-1.577,29.657,10.049,18.048l4.818-5.765C1427.262,623.468,1430.974,620.025,1431.297,617.451L1431.297,617.451z
	 M1559.594,637.777c2.303-1.518,4.988-1.823,7.613-3.872c5.315-4.146,9.977-10.925,11.142-17.383
	c0.312-1.728-0.011-2.899,1.02-4.274l-6.17,17.077c-1.411,1.753-3.588,4.18-5.789,5.664l-3.801,1.931
	C1562.27,637.531,1561.45,638.148,1559.594,637.777L1559.594,637.777z M1630.29,612.569c1.142-0.809,0.894-0.731,1.977,0.06
	C1631.075,613.292,1631.434,613.068,1630.29,612.569L1630.29,612.569z M1575.018,608.956l1.568,0.026
	c-0.213,0.456,0.725,0.748-0.794,0.833C1574.451,609.889,1575.143,609.327,1575.018,608.956L1575.018,608.956z M1605.821,607.807
	c-0.007,0.004,0.122,0.842-1.385,0.143c-1.044-0.484-0.415-0.342-0.613-0.844L1605.821,607.807L1605.821,607.807z M1533.316,620.925
	c-0.516-4.651-1.479-2.265-1.729-9.611l0.273-11.07c-1.436,2.675-1.043,13.66-0.276,15.96
	C1532.505,618.967,1531.505,619.082,1533.316,620.925L1533.316,620.925z M1546.813,602.817c2.643,0.767,2.908-0.116,5.51,5.069
	c1.156,2.304,2.672,3.352,4.751,5.791l10.152,10.604c-0.019-1.513-6.801-10.633-8.308-12.883c-3.44-5.133,0.258-2.375-4.339-6.209
	c-5.168-4.311-3.228-2.791-4.203-5.524c-0.035-0.099-0.097-0.226-0.133-0.309l-0.366-0.528c-2.281-0.281-0.249,0.857-3.817-1.049
	l1.549,2.975L1546.813,602.817L1546.813,602.817z M1621.673,612.274c0.869,1.634,1.382,3.909,1.527,6.162
	c-1.579-1.022-5.694-11.047-6.661-13.343c-0.362-0.858-0.557-2.064-0.908-3.077c-0.543-1.567-2.186-3.479-1.437-4.989
	c4.315,6.467,2.882,5.415,5.579,9.685C1621.566,609.553,1619.226,607.673,1621.673,612.274L1621.673,612.274z M1602.534,595.772
	l-0.366,1.7L1602.534,595.772L1602.534,595.772z M1529.203,599.535c-4.552-0.576-6.841-4.878-0.198-5L1529.203,599.535
	L1529.203,599.535z M1425.173,602.984c2.112-3.089,23.112-10.203,27.405-7.565c-5.472,7.972-2.947,4.021-7.718,9.596
	c-1.382,1.616-6.724,7.611-8.243,8.415l-5.889-5.039C1428.513,606.37,1425.691,605.223,1425.173,602.984L1425.173,602.984z
	 M1507.379,602.984c-2.882,3.326-7.903,8.095-11.109,10.416c-1.979-1.935-15.948-14.772-16.258-17.82
	C1482.704,592.35,1505.311,600.038,1507.379,602.984L1507.379,602.984z M1632.3,592.764c-0.17-0.237-0.356-0.11-0.563-1.024
	c-0.49-2.162,0.019-0.688,0.189-1.019L1632.3,592.764L1632.3,592.764z M1619.111,586.314c-0.357-0.439-0.298,0.486-0.611-1.283
	c-0.183-1.037-0.088-2.705,0.611-3.716C1619.376,581.726,1620.723,584.353,1619.111,586.314L1619.111,586.314z M1554.156,586.484
	c-0.482-0.596-0.339,0.618-0.666-1.445c-0.186-1.178-0.045-2.764,0.666-3.519C1554.609,583.985,1555.035,584.776,1554.156,586.484
	L1554.156,586.484z M1620.454,579.311c4.755,3.717,2.486-1.42,10.429,11.105c0.129-0.19,1.956,0.978-0.918-3.896
	C1628.487,584.012,1623.227,577.99,1620.454,579.311L1620.454,579.311z M1603.459,594.031c-1.074-2.741,4.059-10.419,7.854-13.257
	c2.173-1.625,2.148-1.555,5.212-1.96c-2.184,1.643-1.643,0.672-4.552,2.62c-1.67,1.118-2.073,1.655-3.554,3.494
	C1605.037,589.129,1605.236,590.746,1603.459,594.031L1603.459,594.031z M1551.467,578.897c-0.647,0.689-0.389,0.582-1.579,0.973
	c-0.911,0.298-1.141,0.242-2.031,0.646c-1.194,0.542-2.172,1.086-3.136,1.708c-10.423,6.731-11.097,16.256-12.77,17.925
	c0.682-2.529,1.389-5.709,2.51-7.948C1537.371,586.39,1544.101,579.132,1551.467,578.897z M1551.467,578.897
	c0.344-0.268-0.004-0.659,2.693-0.79c15.324-0.743,26.175,16.111,25.17,26.517c-1.778-7.342-3.148-12.316-8.412-18.271
	C1564.613,579.22,1558.692,579.216,1551.467,578.897L1551.467,578.897z M1527.236,649.544c-2.622-2.354,1.118-2.662,2.03-4.229
	c9.292-0.18,6.83-0.194,15.497-1.21c9.153-1.072,23.236-3.073,31.472-3.792c5.638-0.492,11.834,0.354,17.349-0.603
	c-4.466-2.369-1.659-1.127-3.636-2.656l-2.157,1.558l-3.49-1.872c1.371-10.31,1.045-4.903,0.041-12.59l5.054,3.74
	c1.312-1.205,3.558-2.667,4.004-4.233l-7.827-0.795l-0.236-43.115c0.005-3.493,0.17-2.587-0.881-5.259l-0.159-12.261l3.442-1.617
	l2.21,1.534c5.042-2.787,4.955-3.288,10.687-3.487c0.073,8.191-0.23,35.405,0.764,41.305c0.251,1.487,0.065,17.029-0.485,19.591
	c-0.433,2.016-0.445,19.004,0.054,20.153c0.47,0.696,0.964,0.848,1.787,0.987c6.839,1.156,27.405,2.676,30.809,4.816l-19.773,0.496
	c-2.033-0.011-3.853,0.381-6.168,0.431c-4.671,0.1-8.729-0.638-13.699-0.633c-4.566,0.004-9.132,0.003-13.698,0
	c-4.938-0.003-9.211,0.904-13.7,0.729c-2.605-0.101-4.008-0.482-6.621-0.477c-6.852,0.015-26.899,0.023-32.152,1.761
	L1527.236,649.544L1527.236,649.544z M1592.989,552.568c-2.767,1.385-11.933,1.322-15.414,1.192
	c-7.733-0.288-35.766,4.771-44.45,6.152c2.505,0.969,30.558-0.532,36.625-0.973c4.519-0.328,8.664-0.198,13.157-0.278
	c12.063-0.214,11.467-1.767,23.544,0.688c4.719,0.96,8.725-0.439,12.348,0.065c2.037,0.283,4.342,0.207,6.425,0.305
	c3.107,0.146,3.427,0.53,5.509-0.575c-2.83-1.945-11.232-1.831-14.887-2.874L1601,553.445c-0.322-1.268-0.352-61.874-0.501-69.64
	c-9.732-1.056-8.636,2.805-8.636,10.895c0,16.939-0.366,37.308,0.101,53.943C1592.066,552.275,1592.254,550.242,1592.989,552.568
	L1592.989,552.568z M1546.118,532.841c0.028-1.902,1.162-5.253,1.536-7.781c0.463-3.131,1.444-3.75,2.605-6.185
	c1.206-2.53,1.47-4.368,2.206-7.01c0.719-2.582,4.738-2.328,6.994-1.839c2.848,9.049,1.718,7.957,6.1,10.156l0.943,6.521
	c0.644,1.812,1.652,3.343,1.798,5.345l-3.054,4.715c-0.196,2.304,0.057,4.501-1.132,6.376c-1.311,2.067-1.903,1.635-3.095,4.839
	c-0.761,2.046-0.201,4.198-0.945,6.356l-4.179-0.238c-8.196-11.699-6.047-6.595-6.802-16.775
	C1548.814,534.487,1547.337,534.573,1546.118,532.841L1546.118,532.841z M1611.442,521.442c3.051-4.478,3.693-8.386,4.586-10.039
	c0.538-0.995,2.078-0.812,3.106-0.064c1.039,0.755,1.484,5.238,2.308,7.349c0.932,2.388,2.192,4.175,2.535,6.703
	c0.353,2.596,1.338,6.067,1.538,8.049c0.221,2.184-2.148,2.344-2.282,6.401c-0.064,1.948,0.187,2.723-0.498,4.514
	c-0.594,1.553-1.114,1.809-1.768,3.031c-1.376,2.573-0.717,5.272-1.613,7.616l-3.782-0.924l-1.852-8.436
	c-0.779-1.553-1.023-1.397-1.454-3.494c-1.44-6.998-0.591-10.801-0.832-12.767c-0.262-2.133-0.829-0.462-0.237-3.47
	C1611.492,524.416,1611.375,522.946,1611.442,521.442L1611.442,521.442z M1603.597,915.957c3.234-0.412,16.564-11.545,20.152-15.084
	c2.1-2.07,10.035-8.82,10.656-10.301l1.282-120.399l1.141-7.317c-1.83-0.551-2.986,0.723-4.7,1.178
	c-4.715,1.252-28.128-0.423-34.67-0.208c-13.835,0.454-27.644,0.494-41.536,0.494c-9.178,0-18.222,0.39-27.375,1.009l0.288,2.423
	c-0.976-0.705-0.908-0.975-1.056-2.135c-0.237-1.866-0.537-1.8-0.649-3.047c-0.407-4.533,0.557-16.314,0.752-21.288l3.286,20.369
	c5.021-0.028,10.701-0.868,15.911-1.17c5.705-0.33,11.347-0.487,17.121-0.763l33.308-1.43c-1.13-2.376-0.912-3.875-1.014-6.685
	c-0.554-15.235-0.031-38.184,0.261-53.826c1.568-1.494,4.698-1.108,6.998-1.125c0.739,1.335,0.418,0.72,0.512,1.444
	c0.075,0.572,0.012,1.593,0.017,2.214c0.147,17.369,0.45,34.81,0.128,52.183c-0.022,1.211-0.121,2.219-0.139,3.482
	c-0.022,1.569-0.1,2.517,0.565,3.705l30.51,1.835c0.824-3.657-1.796-10.242,0.479-17.861c1.428-4.782,5.641-7.925,7.517-12.722
	c1.452-3.715,0.133-6.029,1.142-8.951c0.993-2.875,2.527-4.434,4.214-5.896l6.217-14.108l2.257-1.222l0.407-3.175l-4.199-0.926
	l0.01-37.42l-20.808-4.872c1.043-5.707,4.49-3.566,4.351-9.283l-0.014-13.597c-0.498-2.738-1.273,1.553-1.276-7.015
	c-0.001-2.994-0.067-5.805-0.149-8.768c-0.16-5.783,0.24-11.572,0.282-17.094c0.016-2.065,0.458-28.917,0.086-30.261l-1.323-3.06
	l2.546-5.198l-3.497-2.517l0.789-63.398l5.252-2.94l-0.667-7.131c-4.895-2.049-8.26-0.247-12.85-0.032
	c-4.706,0.22-10.242-0.474-14.958-0.062c-8.483,0.742-9.578-1.32-13.693-1.03c-5.08,0.357-9.392,0.483-14.587,0.482
	c-4.929-0.001-8.915,0.508-13.697,0.843l-36.259-0.572c-2.841-0.215-3.125-0.627-4.836-2.485l-2.744,2.935
	c0.132,1.875,0.372,3.819,0.581,5.728l4.14,2.562l-0.191,66.706c-2.866,1.058-3.504,4.02-4.946,6.545
	c4.67,5.472,3.421,3.313,2.992,11.792l-3.347,2.107c-2.034-0.543-4.137-2.082-6.557-3.012l-6.888,0.512l7.858,11.837l-5.922,4.11
	c-5.656-2.248-4.783-4.052-18.212-6.984c-10.291-2.246-11.484-1.64-19.355-2.798c-4.156-0.611-3.695-1.263-3.355-5.165l12.304-4.069
	l-13.536-5.948l-0.094-10.559l7.306-2.783c0.293-2.79-3.179-9.046-4.464-11.335l-6.105-10.227l-2.806-0.043
	c-0.552,1.484-1.918,3.563-2.801,5.09c-3.302,5.707-5.091,10.454-7.562,16.593c9.774,3.19,7.687,1.037,7.398,13.485
	c-9.695,1.89-6.077-2.429-13.362,6.24c1.531,2.988,6.739,2.2,9.944,2.74l1.669,0.769l0.005,4.742
	c-1.928,0.87-8.563,0.848-11.109,1.195c-3.82,0.521-7.294,1.179-10.949,2.008c-11.714,2.655-17.929,6.937-18.153,6.99
	c-4.775-0.24-7.865-3.577-4.863-7.579l6.462-8.595c-4.666-4.876-10.903,4.728-15.062,1.807c-7.239-5.085-2.857-7.643,1.283-12.919
	c-2.381-3.554-16.747-8.72-21.12-10.592c-3.553,5.808,0.877,18.376,2.427,24.966c7.967-2.578,7.099-3.86,11.906,4.915l-7.061,11.398
	c3.466,1.365,8.388-2.065,10.641-1.745l2.963,1.307c-0.056,2.991-3.854,3.969-6.197,5.202c-12.836,6.757-16.498,13.746-19.979,15.68
	c-2.552,1.418-5.999,0.416-6.323-3.019c-0.238-2.525,3.342-5.58,4.447-7.16c3.379-4.829-2.346-4.676-5.15-2.927l-6.072,5.597
	c-1.613-0.659-6.472-4.486-7.071-5.724c-1.532-3.164,10.116-8.512-1.791-11.565l-16.499-3.716
	c-3.405,3.484,4.979,18.92,6.803,22.887c4.509,0.859,4.193-3.613,7.461-3.218l5.38,5.5l-6.165,13.008
	c0.73,0.869,1.887,1.139,3.267,0.819c2.657-0.616,7.443-2.963,10.148-4.015c5.407,2.648-1.552,8.064-4.182,11.673
	c-4.989,6.847-9.023,14.251-13.258,21.598l-4.862-2.6l2.528-12.308c-2.961-0.271-4.382,3.038-5.821,4.509l-5.544,5.418l-7.538-5.223
	l1.852-8.359c-0.495-0.3-0.369-0.5-2.242-0.469c-6.789,0.112-13.572,0.769-20.334,1.297c-0.169,0.289-1.112-0.151,0.34,2.779
	c0.579,1.167,0.762,1.402,1.485,2.477l10.236,14.335c3.75-0.071,3.336-4.072,7.036-4.422l7.044,4.638
	c-0.186,2.051-1.355,3.749-1.839,5.744l-0.391,6.462l10.096-6.972c1.676,0.259,3.533,1.743,4.061,3.019
	c0.878,2.125-2.262,7.685-3.046,10.275c-2.615,8.631-1.892,13.536-2.896,18.052l-4.038,10.756c-2.473-2.664-2.21-2.796-2.569-7.007
	c-0.234-2.742-0.999-6.003-4.344-4.864c-2.444,0.833-3.135,3.615-2.908,6.351l-1.933,7.695c-1.11,0.122-5.723,0.531-6.743,0.231
	l-1.587-0.894l-0.406-6.837c-1.281-0.835-1.769-0.65-3.635-0.349c-1.221,0.197-2.173,0.553-3.322,1.07
	c-3.712,1.671-7.021,4.17-10.366,6.37c-6.532,4.296-6.315,4.158,6.45,10.699c6.159,3.156,3.761,3.079,10.744,2.579l0.813-6.941
	l9.223-0.031c2.36,2.939,1.872,7.849,3.563,10.475l2.452,2.431l4.735-11.707c5.792-0.434,2.981,7.408,4.518,16.505
	c0.759,4.491,2.887,11.175,3.149,12.646l-0.174,4.157l-7.042-0.133c-2.076-2.882,0.064-7.558-5.17-10.138l-8.625,5.145l5.461,2.891
	c0.327,2.51-0.742,5.764-3.043,5.472c-0.714-0.091-4.957-2.358-6.218-2.906l-16.123-2.615l0.527,7.51
	c0.524,0.357-0.101,0.514,2.233,0.44c1.007-0.032,2.104-0.105,3.119-0.15c6.854-0.298,7.826,0.966,14.077,3.647
	c0.212,1.927-3.922,12.225-4.789,14.94c-4.655,14.582-7.654,37.635-5.11,52.403c1.863,10.813,8.795,18.643,17.728,22.268
	c10.984,4.458,23.239,3.857,36.421,3.857l160.313,0.022c1.3,6.247-1.641,85.82-1.015,87.569c0.474,1.324,3.178,0.724,4.632,0.678
	c12.467-0.395,25.153-2.347,36.813-6.72c9.802-3.676,18.481-7.166,27.16-12.446L1603.597,915.957L1603.597,915.957z
	 M1622.646,468.677c-0.67-1.125-0.196-0.898-0.549-1.942l-3.98-7.887c-0.733-1.371-1.202-2.017-1.639-3.203l0.422,0.491
	c0.052,0.059,0.146,0.173,0.203,0.239C1620.045,459.752,1623.336,466.786,1622.646,468.677L1622.646,468.677z M1612.414,463.987
	c-0.774-0.726-3.381-8.269-6.173-12.632c-1.16-1.812-3.839-5.351-4.241-6.581L1612.414,463.987L1612.414,463.987z M1590.025,439.541
	l8.298,21.106c-0.717-0.78-3.057-9.422-3.706-11.389C1593.2,444.963,1590.2,441.446,1590.025,439.541L1590.025,439.541z
	 M1564.073,462.153c0.014-8.468,7.217-25.184,10.35-24.016c0.449,1.295,0.325,0.785-0.101,1.557
	c-2.22,4.019-3.099,5.12-5.264,10.182c-0.698,1.632-1.828,4.271-2.493,6.302c-0.398,1.216-0.77,2.212-1.1,3.263
	c-0.193,0.613-0.224,1.295-0.413,1.801C1564.444,462.88,1565.213,461.937,1564.073,462.153L1564.073,462.153z M1582.133,418.857
	c0,2.566-0.256,10.924,0.44,12.981c0.455,1.343,0.573-0.646,0.546,3.655c-0.051,8.175-0.621,16.813-1.432,25.014
	c-0.149,1.507-0.086,1.161-0.761,2.331c-0.941-9.199,0.193-20.831,0.575-30.304c-9.863,0.285-26.352,12.763-32.174,20.54
	c-1.01,1.35-1.803,2.103-2.777,3.398c-6.93,9.212-7.038,10.32-13.674,22.022c10.776,0.039,36.88-4.593,50.443-4.194
	c9.47,0.279,16.246-0.094,25.506,1.693l23.023,3.681c1.598-1.24-9.388-23.511-17.348-29.495l-30.408-17.952
	c-0.372-5.313,0.031-9.72-0.333-15.523C1582.237,416.965,1582.133,417.208,1582.133,418.857L1582.133,418.857z M1435.746,469.85
	c-1.329,5.867-16.03,14.643-20.491,16.372c-9.556,3.703-21.438,4.124-31.505,0.878c-41.382-13.346-41.466-72.494-0.45-86.064
	c10.976-3.631,21.138-3.096,31.718,0.661c7.241,2.572,18.635,10.716,20.919,16.393l-4.278-3.08
	c-10.852-8.248-24.945-9.806-37.127-4.155c-11.401,5.29-21.463,16.864-21.458,32.989c0.005,16.412,10.259,28.356,21.564,33.322
	c7.011,3.08,15.203,4.346,23.495,2.278C1430.038,476.474,1432.453,471.105,1435.746,469.85L1435.746,469.85z M1436.878,450.422
	c0.605,0.622-0.02,0.183,0.848,0.639c2.737,1.437,15.571,3.953,18.468,6.315l0.307,19.872c2.56-1.021,9.026-13.84,12.483-15.94
	c0.996-0.321,8.169,2.333,9.889,2.872c5.275,1.652,3.809,1.454,9.677,2.723c-0.712-1.39-10.269-14.03-12.071-16.482l12.064-16.758
	c-1.058,0.063-17,5.282-19.668,6.095l-12.373-16.092c-1.816,4.14,2.338,19.177-1.515,20.866c-3.205,1.405-15.622,4.326-17.833,5.684
	C1437.088,450.257,1436.961,450.343,1436.878,450.422L1436.878,450.422z M1360.545,1030.86c1.634,1.783,4.11,2.531,6.322,3.396
	c0.921-1.114,7.436-12.659,8.961-15.504c0.707-1.32,0.579-1.029,2.021-2.011l-0.758,14.925c4.298,3.685,4.566,2.197,8.732-0.352
	l8.61-5.119c-0.296,1.588-6.426,10.713-7.985,13.635l-2.461,5.193l6.386,2.951c2.886-5.441,6.099-10.535,9.376-15.981l9.415-16.039
	l-6.128-3.675c-0.911,0.302-17.75,11.084-19.219,11.987l1.917-22.316l-6.117-3.393c-0.781,0.737-14.92,24.634-16.755,27.956
	C1361.962,1028.145,1360.947,1028.768,1360.545,1030.86L1360.545,1030.86z M1430.487,1055.846c-0.109-1.644,1.6-7.896,2.325-9.016
	c4.574,1.01,12.498,1.531,11.303,7.157C1442.859,1059.888,1435.001,1057.368,1430.487,1055.846L1430.487,1055.846z
	 M1436.231,1031.834c1.643-0.039,8.223,1.761,9.274,2.491c2.548,1.771,2.355,6.166-0.891,7.536
	c-1.652,0.698-8.872-0.667-9.839-1.325C1433.319,1039.544,1435.363,1033.525,1436.231,1031.834L1436.231,1031.834z
	 M1451.425,1053.656l-2.76-7.042c3.171-2.288,4.794-2.132,5.815-7.281c1.947-9.826-7.853-11.747-12.901-12.969l-11.133-2.543
	c-0.806,2.448-8.6,35.887-8.582,35.996c0.275,1.635,6.235,2.098,8.142,2.598c6.414,1.681,13.005,3.966,17.953-0.577
	C1449.726,1060.217,1451.425,1057.052,1451.425,1053.656L1451.425,1053.656z M1321.287,965.1c0.75-1.292,6.276-6.083,7.514-6.501
	c3.656,4.188,8.852,8.308,4.19,12.411C1328.557,974.911,1324.191,969.272,1321.287,965.1L1321.287,965.1z M1300.159,972.991
	c0.574,1.74,3.356,3.936,4.781,5.24c0.88-0.371,9.553-7.887,11.047-9.143c1.184,0.464,4.445,2.764,3.131,5.645
	c-6.99,15.326-7.947,12.536-0.354,19.75l6.411-16.23c4.982-0.224,5.48,2.938,11.616-0.845c0,0,5.051-8.93,5.051-9.678
	c0-6.665-8.848-14.301-13.04-18.925c-1.214,0.609-2.79,2.178-3.69,2.989c-1.502,1.354-2.327,1.832-3.635,2.972
	C1318.653,957.224,1300.884,971.759,1300.159,972.991L1300.159,972.991z M1567.04,1013.324c0.897-1.009,3.129-2.082,4.503-2.92
	c1.668-1.018,3.42-1.809,5.717-1.111c3.223,0.98,12.178,13.652,10.747,18.276c-0.731,2.361-6.027,6.234-8.222,6.457
	C1578,1031.219,1567.302,1014.997,1567.04,1013.324L1567.04,1013.324z M1557.193,1011.377c0.186,1.861,3.535,6.416,4.727,8.274
	l15.104,23.838c1.416-0.19,14.033-7.854,16.219-10.668c5.531-7.123,0.774-13.781-2.736-19.621
	c-3.1-5.159-7.043-12.081-15.442-11.102C1570.757,1002.6,1561.467,1008.703,1557.193,1011.377L1557.193,1011.377z M1311.488,939.687
	c-1.627,2.773-8.688,7.024-12.431,9.047c-8.72,4.715-12.036-3.812-10.179-7.444c1.249-2.444,3.278-3.507,5.534-5.048
	c4.042-2.76,10.57-8.327,14.987-4.5C1311.1,933.215,1313.282,936.629,1311.488,939.687L1311.488,939.687z M1301.865,923.773
	c9.892-2.904,19.02,7.576,16.677,17.146c-1.672,6.835-14.952,14.56-19.649,15.997c-10.151,3.107-19.069-7.388-16.964-17.222
	c1.041-4.863,4.974-7.306,8.468-9.628C1293.665,927.895,1297.424,925.077,1301.865,923.773L1301.865,923.773z M1622.51,958.086
	c0.38-1.589,7.891-10.73,9.407-12.722l4.764-6.287c1.847-1.541,5.512,2.937,5.677,3.226c-0.924,1.267-9.745,12.701-10.042,13.59
	c1.669,1.586,4.549,4.863,6.678,5.319c1.006-1.204,8.253-10.576,9.279-11.105l4.82,3.594c-2.114,3.052-4.094,6.07-6.446,8.912
	c-1.805,2.181-1.602,1.11-2.049,2.924c1.585,1.373,5.294,5.086,7.21,5.243c1.641-2.037,9.569-12.508,11.047-13.251l4.575,4.063
	c-2.464,3.248-13.768,18.287-15.181,19.25l-26.259-19.936C1624.738,959.988,1623.385,959.078,1622.51,958.086L1622.51,958.086z
	 M1527.32,1023.948c2.433-1.222,21.75-8.596,23.464-8.588l1.599,5.949l-15.816,6.055l2.919,8.235l10.355-3.77
	c2.101-0.871,3.243-2.181,4.334-0.13c0.437,0.821,1.53,3.798,1.467,4.594l-13.415,5.522l3.229,8.573l16.42-6.016l1.981,5.776
	l-22.958,8.917C1539.097,1054.749,1527.177,1026.239,1527.32,1023.948L1527.32,1023.948z M1332.113,1001.048
	c0-5.47,4.704-8.903,6.525-11.275l5.444-5.993c1.779-1.905,6.22-7.938,8.137-8.832l5.112,4.619l-5.532,6.597
	c-1.795,1.738-4.04,4.55-5.755,6.577c-4.217,4.987-10.554,8.964-4.64,14.651c6.323,6.079,11.654-3.112,14.56-6.145
	c2.314-2.416,9.682-11.503,11.719-12.666l5.121,4.579c-2.947,3.538-15.278,17.912-18.192,20.348
	C1346.982,1019.886,1332.113,1014.943,1332.113,1001.048L1332.113,1001.048z M1464.485,1055.41c0,10.486-1.681,6.387,3.064,13.017
	l12.821,0.073c9.336,0.227,9.117,3.061,8.646-5.903l-17.543-0.668c-0.076-5.228-0.464-4.693,0.441-9.209l14.986-0.11l-0.013-2.899
	c-4.497-3.266-3.34-3.053-6.083-3.134l-8.703-0.513l-0.019-8.559c3.741-0.453,13.623-0.164,17.522-0.148
	c0.219-1.103,0.278-1.88,0.295-3.013c0.027-1.802-0.157-1.795-0.879-3.185l-22.798-0.588c-2.51,0-1.614,6.581-1.613,11.249
	C1464.61,1046.36,1464.485,1050.898,1464.485,1055.41L1464.485,1055.41z M1645.377,929.152c0-4.967,3.399-9.979,5.988-12.274
	c6.844-6.068,7.329-2.656,7.905,2.676l-6.857,6.708c-1.644,3.742,1.169,7.659,4.927,6.632c4.59-1.254,6.799-11.564,15.41-10.583
	c7.544,0.859,12.101,7.428,9.631,15.698c-1.545,5.174-7.604,12.949-13.447,13.122l-1.623-6.098l5.988-4.216
	c5.101-4.721,3.437-11.543-1.566-11.237c-5.02,0.307-7.574,13.152-17.69,10.512C1649.116,938.807,1645.377,935.07,1645.377,929.152
	L1645.377,929.152z M1258.581,917.255c5.971-4.29,4.024,1.315,4.625-7.2c0.281-3.984,1.798-6.264,3.963-8.299
	c2.592-2.436,12.077-7.252,16.112-8.531c7.697-2.441,13.961,2.377,16.307,7.475c4,8.696-1.365,16.666-4.889,16.945l-2.912-6.532
	l2.527-5.54c-0.275-2.062-1.842-4.042-3.39-5.034c-3.178-2.036-9.593,1.319-12.158,2.653c-4.439,2.309-13.468,6.765-6.73,13.446
	c2.215,2.197,3.061,1.414,6.277,1.695l3.073,6.292l-8.783,0.229c-3.481-1.093-3.76-2.939-6.106-3.797l-5.201,2.269L1258.581,917.255
	L1258.581,917.255z M1618.484,983.33c0.313-1.77-3.055-9.393-3.968-11.482c-1.293-2.96-2.076-3.424,0.09-5.509
	c1.29-1.241,2.104-3.058,4.063-3.55c1.22,2.041,0.947,2.287,1.806,4.914l4.937,14.839c2.316,7.482,7.739,8.471,12.154,14.11
	l-5.199,5.211l-6.633-6.51c-3.169-3.112-2.537-3.564-7.932-5.278l-15.072-4.761c-1.728-0.559-3.209-0.807-4.813-1.37
	c1.521-2.05,2.909-3.966,4.845-5.687L1618.484,983.33L1618.484,983.33z M1552.385,543.434c-1.014-10.626-0.361-4.111-2.06-12.037
	c-1.154-5.383,0.194-7.802,2.263-11.506c0.809-1.449,1.583-2.996,2.206-4.82c0.514-1.505,1.602-4.146,3.724-2.383
	c0.633,0.525,1.519,3.949,1.986,5.096c1.201,2.951,1.28,2.002,3.431,3.478c1.342,8.048,1.867,6.366,2.393,8.772
	c0.752,3.435-2.052,1.265-2.454,7.621c-0.299,4.727-1.187,4.705-3.002,7.555c-2.995,4.704-0.254,6.488-2.251,8.063
	C1557.431,547.805,1557.739,545.352,1552.385,543.434L1552.385,543.434z M1496.998,1030.705l6.698,36.665l24.04-4.507
	c0.045-1.576-0.599-4.638-1.182-5.506c-0.695-1.035-5.925,0.546-7.97,0.887l-8.713,1.208c-0.901-1.619-5.049-25.996-5.839-30.138
	C1502.295,1028.922,1498.544,1029.689,1496.998,1030.705L1496.998,1030.705z M1462.701,919.946
	c-2.148,5.094-9.015,2.258-7.385-2.438C1456.886,912.987,1464.627,915.377,1462.701,919.946L1462.701,919.946z M1457.547,904.193
	c4.399-2.514,6.93,4.219,2.932,6.143c-2.218,1.067-4.071-0.272-4.817-1.87C1454.259,905.46,1457.38,904.288,1457.547,904.193
	L1457.547,904.193z M1453.089,912.492c-1.014-1.74-2.027-1.624-2.55-4.146c-2.003-9.661,13.512-12.972,16.457-4.052
	c2.145,6.498-3.18,6.522-1.728,9.065c0.734,1.285,1.923,1.203,2.528,4.137c1.013,4.91-2.886,9.759-9.093,9.617
	c-3.672-0.084-6.875-2.023-8.003-4.897C1448.448,916.48,1452.147,915.013,1453.089,912.492L1453.089,912.492z M1659,902.848
	c1.196,1.198,28,14.15,34.002,16.735l2.732-6.213c-1.494-1.485-5.962-3.26-8.221-4.316c-2.857-1.335-5.59-2.723-8.497-4.272
	c-4.939-2.631-11.734-5.647-17.044-8.07C1660.956,897.865,1659.119,901.287,1659,902.848L1659,902.848z M1587.201,991.842
	c0.368,1.588,4.504,5.797,5.846,7.443c6.292,7.716,11.441,13.997,18.11,21.589l5.284-4.481c-0.526-1.398-1.793-2.624-2.834-3.744
	l-21.009-25.138C1591.324,988.067,1587.87,990.816,1587.201,991.842L1587.201,991.842z M1500.634,914.529
	c4.587-1.07,5.967,6.662,1.66,7.967C1496.995,924.102,1495.72,915.675,1500.634,914.529L1500.634,914.529z M1509.805,918.63
	c0,11.391-16.999,11.153-17.156,0.437c-0.06-4.06,2.936-9.154,4.503-12.266c3.129-6.214,2.729-8.77,8.764-7.401l-4.765,10.899
	C1506.321,912.123,1509.805,911.935,1509.805,918.63L1509.805,918.63z M1471.525,901.533c0-2.953,0.537-2.182,3.093-2.182
	c8.018,0,8.345-0.727,14.605,1.286c0.215,1.339-0.174,3.363-0.518,4.363c-0.749,2.181-1.961,4.664-2.864,7.233
	c-0.873,2.483-4.629,13.003-5.921,14.407l-4.699,0.257c1.992-5.752,3.886-11.588,6.219-17.256c0.812-1.974,2.019-3.73,1.911-5.842
	c-2.659-0.491-3.614-0.128-6.709,0.153l-2.466,4.291h-0.442C1470.929,905.289,1471.525,906.883,1471.525,901.533L1471.525,901.533z
	 M1431.199,905.917c0-3.097,1.784-3.065,3.839-5.073c1.459-1.425,3.674-2.223,6.668-1.291l0.119,23.9l-0.873,3.378
	c-0.793,0.251-2.956,0.014-3.52-0.141c-1.195-2.883-0.35-16.979-0.161-21.336l-6.041,3.746L1431.199,905.917L1431.199,905.917z
	 M1615.07,546.41c-1.307-4.907-2.726-7.837-2.432-14.832l0.053-7.541c0.123-2.161,1.322-5.311,3.061-6.145
	c0.785,8.307,1.137,3.269,2.353,6.774c0.368,1.059,0.623,6.104,0.907,7.896c0.657,4.133-1.254,4.141-1.586,7.363
	C1617.116,542.947,1618.174,545.464,1615.07,546.41L1615.07,546.41z M1649.362,898.026c0.086-1.37,1.913-4.905,2.89-6.15
	l6.053,2.709l-2.824,6.189L1649.362,898.026L1649.362,898.026z M1580.338,983.513c1.172-1.234,3.774-3.481,5.19-4.335
	c1.278,1.195,3.704,3.295,4.409,4.773l-5.292,4.552L1580.338,983.513L1580.338,983.513z M1586.885,575.096l5.204-0.272l-2.142-3.435
	c-1.524,0.659-0.581,0.313-1.596,1.513C1587.258,574.195,1587.457,573.273,1586.885,575.096L1586.885,575.096z M1602.169,597.472
	l0.366-1.7L1602.169,597.472L1602.169,597.472z M1527.236,649.544l0.843,0.682L1527.236,649.544z"/>
</svg>
