<?xml version="1.0" encoding="UTF-8"?>
<svg id="Layer_2" data-name="Layer 2" xmlns="http://www.w3.org/2000/svg" viewBox="0 0 589.61 788.03">
  <defs>
    <style>
      .cls-1 {
        fill: #2962a7;
      }

      .cls-1, .cls-2 {
        fill-rule: evenodd;
      }

      .cls-2 {
        fill: #fff;
      }
    </style>
  </defs>
  <g id="Layer_1-2" data-name="Layer 1">
    <path class="cls-1" d="M294.8,788.03c162.37,0,294.8-177,294.8-394.02S457.17,0,294.8,0,0,177,0,394.02s132.43,394.02,294.8,394.02Z"/>
    <path class="cls-2" d="M294.8,772.43c155.94,0,283.13-169.99,283.13-378.41S450.74,15.61,294.8,15.61,11.68,185.59,11.68,394.02s127.19,378.41,283.13,378.41Z"/>
    <path class="cls-1" d="M294.8,765.21c152.97,0,277.73-166.75,277.73-371.2S447.77,22.82,294.8,22.82,17.07,189.57,17.07,394.02s124.76,371.2,277.73,371.2Z"/>
    <path class="cls-2" d="M347.75,521.18l.19-28.54c.93,2.34.23,25.41-.19,28.54h0ZM239.5,497.18c.61-4.61,11.11-11.53,15.2-13.89,1.2.79,4.13,3.9,5.52,5.35l11.29,11.6,3.05,6.5c-5.47,1.07-21.19-2.57-27.75-5.22-3.55-1.43-5.31-2-7.3-4.34h0ZM292.71,505.95c-.38-2.88,2.71-4.73,4.25-6.29l15.96-16.41c2.82.08,6.62,4.11,8.94,6.05,2.9,2.44,4.59,5.26,6.48,8.26-2.53,2.72-11.18,5.61-16,6.82-3.55.89-17.04,3.76-19.64,1.58h0ZM318.64,477.89c.43,1.89,7.44,8.36,9.12,10.38,1.18,1.41,7.85,10.08,11.07,5.58.79-1.1,1.17-33.61-.17-36.07-6.69,3.77-4.14,3.38-8.13,7.25l-11.9,12.87h0ZM287.7,500.34c.38.19-.81.76,1.32.27.61-.14,1.78-1.35,2.21-1.81.99-1.05,1.75-1.91,2.73-3l10.69-11.3c1.02-1.2,1.71-1.82,2.71-3.03,1.04-1.26,1.85-1.56,2.52-2.7-2.11-2.8-8.09-9.82-10.3-11.65-4.05-3.36-8.67-10.32-11.37-10.7-.19,5.73-1.57,41.2-.52,43.92h0ZM257.85,478.33c.68,1.89,1.52,1.83,2.67,2.99.9.91,1.83,2.06,2.67,3.06,2.99,3.6,7.8,7.89,10.7,11.29,1.25,1.46,3.91,4.84,6,4.99.32-7.65,1.35-41.02-.25-44.28-4.12,2.81-2.96,1.65-5.93,5.3l-5.46,5.53c-1.55,1.71-3.69,4.36-5.33,5.68-1.2.97-4.5,4.02-5.08,5.43h0ZM228.77,493.59c4.55,4.01,8.89-2.64,11.32-5.2,1.57-1.65,8.26-8.6,9.14-10.06-5.38-6.6-7.43-8.19-11.93-13.4-2.33-2.7-5.36-7.02-7.77-7.16-1.37,3.6-1.27,2.78-1.16,7.41.14,5.77-.35,23.63.4,28.42h0ZM223.01,457.21c1.31,7.43.26,18.05.47,25.95.1,3.78.39,1.51-.54,5.74-2.97-.07-7.1-4.52-9.3-6.22l-8.7-7.09c.05-3.47,4.64-6.23,8.04-9.73,1.65-1.7,2.91-2.99,4.54-4.7,3.15-3.31,2.98-3.95,5.5-3.95h0ZM440.02,472.2h4.31c.6,1.66.26,14.62.35,18.44.04,1.53.26.94-.85,2.35-1.55-1.11-.89-5.36-.9-8.96l-.09-10.08c-1.28-.92-.32-.21-1.46-.6-2.47-.84-.81-.43-1.36-1.16h0ZM153.68,431.62c-3.78,4.66-6.66,22.26-7.19,28.72-.8,9.77.97,23.94,5.01,30.94,9.88,17.1,29.65,21.82,49.29,22.65,14.15.59,16.77-9.56,9.82-19.46-1.39-1.98-2.48-3.36-4.05-5.19-.85-1-1.04-1.54-2-2.41-1.04-.93-1.48-1.16-2.3-2.1-4.46-5.08-6.93-6.16-9.03-8.57l-3.27-3.79c-7.85-9.4-12.96-17.09-18.53-28.51-1.95-4.01-4.19-7.91-5.48-12.2-7.97.37-5.95.07-12.27-.08h0ZM348.09,487.88c-.63.44.6.67-3.19.92-.96-8.21-.91-23.23-.07-31.53l3.76,1.74-.5,28.87h0ZM294.6,451.29l40.22.14c-.38,2.21-8.6,9.52-10.31,11.1l-11.03,10.5c-1.83-.77-1.38-1.05-2.49-2.32l-14.76-16.04c-.83-.76-2.06-1.85-1.63-3.38h0ZM273.2,451.27c.27,1.83-.45,2.11-1.47,3.18l-16.87,18.61c-2.03-.56-9.21-8.46-10.8-10.04-14.46-14.48-17.54-11.71,7.98-11.71l21.15-.03h0ZM201.68,469.45c1.9-1.07,2.86-3.01,4.18-4.51,1.34-1.52,1.48-1.18,4.09-4.27,2.72-3.23,7.5-6.93,7.63-9.07l-30.5-.2c1.79,4.24.63,2.17,3.22,5.36,1.1,1.35,2.68,3.25,3.69,4.23,1.85,1.8,5.78,7.86,7.69,8.47h0ZM421.24,592.27l-4.37,1.61c-3.95-3.02-2.76-9.69-2.76-16.04v-114.42c0-8.56-.02-9.93-.71-18.43l8.19-1.15c1.14,2.87.46,65.57.46,74.38,0,10.12.89,69.97-.81,74.05h0ZM335.43,445.76l-43.63.16c-.2-2.52,1.59-3.76,4.22-6.83,1.88-2.21,3.57-3.88,5.43-5.99.92-1.04,1.73-1.82,2.75-2.95,1.03-1.16,1.43-2.03,2.62-3.12,3.79-3.46,4.76-9.31,12.19,1.11l8.3,8.84c1.25,1.15,1.95,1.58,3,2.72,1.06,1.16,1.59,1.85,2.74,2.99,1.11,1.1,2.26,1.6,2.38,3.08h0ZM254.17,422.28c3.65.01,5.09,2.77,6.75,4.75,1.79,2.14,3.68,3.82,5.48,5.94,5.85,6.91,4.08,4.3,9.78,12.91l-43.64.11c.28-1.75,1.17-2.04,2.28-3.2l13.93-14.69c2.09-1.86,3.23-3.77,5.44-5.84h0ZM180.39,438.71l5.83-5.95c4.13-5.33,5.4-6.36,10.6-10.65,2.22.84,4.56,3.84,5.84,5.26l13.75,14.44,1.55,4.06c-2.33,1.08-17.93.36-22.03.35-10.93,0-11.28,1.76-14.28-2.83-1.33-2.03-1.51-2-1.27-4.68h0ZM287.26,438.92c2.41.18,2.69-.39,3.78-1.68l12.76-13.65c6.09-6.26,5.27-6.33,2.83-8.61-1.04-.97-1.65-1.72-2.65-2.63l-10.13-10.55c-1.72-1.86-2.76-4.4-6.03-4.07-1.41,5.61-1.08,3.55-1.08,9.59,0,5.98-.56,29.13.52,31.61h0ZM280.02,397.95c-2.81-1.2-4.37,2.45-6.08,3.9-1.91,1.61-3.47,3.68-5.11,5.45-1.48,1.6-9.84,9.06-9.51,10.82.15.8,8.7,9.51,10.04,11.03,1.64,1.85,3.43,3.53,5.07,5.5,1.93,2.33,3.69,4.52,5.9,4.14,1-12.89.77-18.82.77-31.49,0-4.45.72-8.09-1.09-9.36h0ZM228.62,433.62c0,1.64-.81,4.78.97,5.12,1.78.33,13.53-13.33,15.11-15.05,2.17-2.35,4.27-2.98,5.61-6.29l-7.54-8.77c-1.12-1.32-3.68-3.38-5.41-5.59-.73-.93-5.72-6.3-6.57-6.69-1-.47-1.72-.67-2.32,2.16l.14,35.11h0ZM344.05,415.57c.11-.12,1.01.54.5.66-.26.06-1.02-.12-.5-.66h0ZM338.69,438.58c.24-.35.36.3.62-1.43l-.09-3.97c-.02-1.92-.13-3.76-.13-5.7,0-5.71-.19-10.78.32-16.36.22-2.37-.8-1.66-1.31-4.06-.75-3.58-.39-6.96-.91-10.13-2.22,1.53-3.58,2.37-5.34,4.51-.9,1.1-1.42,1.88-2.39,2.9-.84.88-1.74,1.38-2.58,2.26-1.73,1.81-2.85,3.78-4.77,5.36-1.58,1.3-1.39,1.17-2.62,2.65-.86,1.04-1.41,1.34-1.89,2.79l4.86,5.96c1.05,1.03,1.72,1.48,2.67,2.59.88,1.04,1.55,1.8,2.48,2.83,1.65,1.82,3.87,3.96,5.36,5.65,1.17,1.33,3.6,4.59,5.69,4.15h0ZM191.47,416.96c-.47-2.12-2.71-3.23-4.96-5.99l-5.17-5.84c-.97-1.18-1.92-1.65-2.91-2.79-1.48-1.7-6.65-9.23-8.32-5.76-.92,1.91,1.83,31.24,9.48,34.17l3.37-3.41c.75-.74,8.13-9.49,8.52-10.37h0ZM222.9,406v33.74c-1.95-.15-8.2-7.82-10.98-10.59-13.39-13.33-13.79-9.27-.46-23.09,1.78-1.85,3.67-3.63,5.53-5.48,3.65-3.63,1.48-1.94,6.1-5.11l-.19,10.53h0ZM290.77,388.3l39.66-.44,2.98,3.67-10.66,10.52c-1.87,1.91-3.2,3.5-5.15,5.42l-5.45,5.44c-1.17-.66-4.57-4.44-5.62-5.73l-13.96-15.07c-1.59-1.37-2.51-1.35-1.8-3.81h0ZM232.29,388.46c3.95-1.05,2.85-.64,6.95-.54l34.91-.13,3.38,1.6c-.62,1.42-9.01,10.08-10.69,11.98l-11.24,11.55c-4.24-3.86-7.98-8.72-11.68-11.99-3.16-2.79-5.46-5.77-9.08-8.98-2.87-2.54-2.13-2.31-2.54-3.49h0ZM218.16,389.78c-.56,1.77-13.03,13.94-15.92,17.21-2.67,3.02-2.89,3.07-5.86,5.75-1.32-.79-1.86-1.73-2.98-2.91l-14.94-14.99c-9.44-9.54-7.71-7.42,17.47-7.42l18.13-.06c2.81-.02,3.06.53,4.09,2.43h0ZM274.59,383.56c-11.5.36-25.04-.41-37.56.04l-3.2-.27c-.25-.66-.49.91-.23-.95.18-1.28,5.81-6.51,6.96-7.53,13.36-11.81,11.85-18.97,19.68-10.73,8.52,8.96,7.66,6.96,15.83,17.32-.73,1.43-.69,1.2-1.48,2.11h0ZM214.49,383.22c-11.34-.5-27.9-.09-40.15-.1-.25-2.48.87-2.25,5-6.29l11.43-11.45,6.92-4.37,15.04,15.15,4.32,6.2c-.69.45-1.19.93-2.57.86h0ZM328.3,383.48l-34.27.12-2.22-1.55c.34-3.49,2.49-4.1,4.28-6.01,3.17-3.39,12.67-14.27,15.18-15.25,2.72-1.07,4.73,2.02,5.9,3.41,2.38,2.85,8.62,7.5,9.22,11.1.26,1.57,2.11,5.87,2.16,7.05.09,2.26.13.11-.24,1.13h0ZM330.27,370.82l-2.29,2.29c9.54,1.01,42.17-1.21,57.51-1.07l25.64.38c2.96,0,7.44-.94,10.04-.37,4.43.97,27.79,1.45,33.71,1.39l14.48-1.12-65.73-4.09c-13.45-.43-48.88.75-59.36,1.72-3.23.3-11.85,1.65-13.99.87h0ZM287.68,375.88c2.14-.15,2.16-.72,3.31-1.83.94-.91,1.5-1.51,2.41-2.44,7.11-7.36,7.48-6.9,14.57-15.58-.43-1.64-.79-2.44-1.71-3.36l-7.52-7.87c-3.93-4.58-5.81-6-10.45-10.16-1.4,1.73-.65,16.89-.65,20.07,0,5.17-.64,17.04.04,21.17h0ZM222.89,332.38c-2.71-.09-4.17,3.39-5.91,5.07l-8.31,8.41c-.95.92-1.6,1.79-2.44,2.84-4.14,5.12-7.74,5.56-2.96,9.68l13.84,13.46c2.35,2.45,4.33,5.02,6,4.63l-.22-44.09h0ZM179.59,342.24c-6.56,2.6-11.85,31.26-9.06,33.76,1.54,1.38,2.89-.22,3.47-.97,2.53-3.29,9.8-11.34,12.69-14.61,1.55-1.75,4.29-3.58,4.48-6.15-1.98-2.24-9.31-11.28-11.58-12.03h0ZM229.52,376.45c2.78-.21,4.17-2.89,5.81-4.59,3.53-3.66,13.12-14.01,15.42-16.09l-4.59-6.62-10.65-10.92c-1.83-1.82-2.97-4.36-6.58-4.23-.45,11.87-.84,21.13-.82,32.98,0,3.83-1.02,7.22,1.41,9.47h0ZM330.05,368.52c-.36-7.81,1.35-24.88.81-27.46,0,0-.14-1.03-1.94.45-.14.11-11.68,12.45-11.77,12.89-.28,1.45,4.66,6.49,5.83,7.53,2.48,2.21,4.01,5.52,7.07,6.58h0ZM280.03,375.87c.32-1.44.39-39.82-.22-41.21-7.4,6.26-9.47,8.68-15.61,15.45-1.72,1.9-3.51,2.87-4.34,5.91,5.38,7.38,8.17,9.14,14.56,15.51,2.87,2.87,3.31,4.1,5.61,4.33h0ZM348.57,330.63c-2.69-.1-1.47.28-1.91-1.06,1.19-.5,1.4.11,1.91,1.06h0ZM411.34,329.95c6.46-.6,14.38,0,20.41.43l-20.41-.43h0ZM355.47,330.13c-.65.06-1.12-.02-1.8,0-1.15.05-1.5.34-2.43-.16l5.68-.23-1.45.38h0ZM333.3,328.43c-2.17,4.33-1.2,3.15-4.57,6.33l-16.58,15.76c-1.44-.77-7.89-8.64-10.15-10.72l-7.31-8.1c-1-1.09-1.63-1.31-1.5-3.25l40.12-.02h0ZM265.54,340.01c-1.55,1.78-8.41,9.45-9.95,10.53-5.73-4.73-12.66-13.08-16.58-16.19-1.54-1.22-4.52-3.26-4.42-5.75l40.01-.22c-2.84,6.36-4,5.82-9.06,11.63h0ZM196.82,350.39c-1.92-.97-7.72-7.34-9.47-9.08-1.64-1.63-8.38-7.15-5.17-11.63,2.37-3.32,11.56-1.97,16.41-1.97,4.23,0,14.8-.73,17.68.56l-1.77,3.66-7.53,7.85c-1.74,1.91-3.2,3.72-4.98,5.6-.77.82-4.46,4.66-5.17,5.01h0ZM344.88,325.86l.84.68-.84-.68h0ZM233.94,323c-5.52.29.48-4.42,1.31-5.16,4.25-3.76,7.32-7.27,11.37-11.07,3.58-3.36,3.49-3.97,5.24-5.75,2.48-2.51,4.62,1.07,6.42,2.79,2.37,2.26,15.65,14.8,16.9,16.69l-1.28,2.2c-12.98.72-27.14-.3-39.95.29h0ZM298.01,322.88c-2.17,0-4.77.43-5.2-1.62-.33-1.59,1.59-2.79,2.33-3.59,2.3-2.47,17.83-17.22,19.21-17.65l11.94,11.72c3.86,3.9,14.4,11.61,7.51,11.27-9.65-.48-25.49-.13-35.79-.13h0ZM190.02,322c-1.03-4.96,12.18-16.26,12.63-16.37,2.59-.63,6.3,4.22,8.14,6.29.68.76,1.18,1.38,1.88,2.08.63.64,1.23,1.01,1.84,1.66,1.18,1.25,1.66,2.45,3.17,3.7l-5.39,2.88c-.4.1-20.73.13-22.27-.24h0ZM345.88,318.11l1.32,3.31-1.08-1.32c-.07-.07-.19-.14-.26-.21-1.53-1.88-.14-1.55.02-1.78h0ZM439.37,314.38c-.11.15-.02.62-1.35.81-1.56.22-1.24-.16-1.55-.37l2.9-.43h0ZM432,314.33l2.43.36c-.1.16-.12.7-1.47.36-1.35-.34-.78-.55-.96-.72h0ZM376.14,314.53c-2.34,1.16-4.73.22-6.71.12l6.71-.12h0ZM435.88,312.83c-1.32-.63-.98.4-1-2.4-.02-1.61-.27-1.46.55-2.53.81,1.12.45,3.18.45,4.92h0ZM372.68,312.64c-.64-1.14-.83-4.11,0-5.27.8,1.67,1.07,3.98,0,5.27h0ZM345.04,290.89c.8-.44,1.49-.55,1.84-.59l-.05,7.42c-.05,5.4.77,8.09-1.42,9.12-1.09-4.77-.99-11.09-.37-15.95h0ZM439.37,314.38c3.94-.41,8.22-6.36,9.14-8.53l1-3.84c-1.73,3.91-4.58,8.78-8.43,10.94-.58.32-.42.09-.9.43-1.34.96-.33.09-.81.99h0ZM432,314.33c-2.04-3.06-5.41-.88-10.66-14.52-.43.62-.39-.16-.46.97-.09,1.62,5.07,12.81,11.11,13.55h0ZM207.33,301.22l7.44,7.62c1.29,1.33,2.36,2.28,3.77,3.71,2.43,2.48.22,1.53,3.76,2.61,1.41-1.48.61-6.17.56-9.55-.28-18.83,2.5-18.64-11.07-8.82-1.6,1.16-3.92,2.33-4.46,4.44h0ZM350.96,297.24c.57.47.1-.22.68.71l.99,2.12c2.36,4.58,5.73,8.82,10.21,11.35,2.18,1.23,3.43,1.6,5.93,2.37-1.82.48-1.54.66-3.32-.11-1.09-.47-2-.85-2.98-1.45-5.14-3.14-11.55-10.12-11.51-14.99h0ZM287.51,274.92c.28,6.31,0,39.89,0,39.89l.78,2.6c1.89-.42,4.4-3.69,5.84-5.13,1.94-1.94,3.52-3.61,5.43-5.58,1.85-1.91,10.49-9.62,10.71-11.69.25-2.39-3.3-5-4.55-6.26l-16.99-16.79c-.86.77-1.31,1.24-1.22,2.96h0ZM257.44,294.64c.71,2.41,7.81,9.23,10.52,11.84,4.65,4.47,6.63,7.23,11.86,10.89l.51-2.57v-39.9l-.93-2.94c-1.7.29-6.12,5.45-8.59,7.95l-8.28,8.45c-1.85,1.9-4.15,3.37-5.09,6.27h0ZM338.22,315.22c1.77-1.65,1.32-3.21,1.19-6.11l.07-22.5c-.97-1.01-4.07-3.5-5.3-4.2-3.14-1.78-4.67.36-6.27,2.01l-7.29,7.22c-3.69,3.51-.61,3.91,2.69,8.58l6.94,8.04c1.36,1.28,1.33,1.15,2.36,2.46,1.22,1.56,3.3,4.42,5.6,4.5h0ZM248.94,293.77c-.97-1.89-4.95-5.43-6.59-7.03-1.52-1.48-4.89-6.13-7.92-4.78-.99.44-2.92,2.06-3.87,2.75-1.98,1.44-2.23,1.46-2.21,4.66.22,32.64-1.58,29.66,10.05,18.05l4.82-5.77c1.69-1.87,5.4-5.31,5.72-7.88h0ZM377.24,314.09c2.3-1.52,4.99-1.82,7.61-3.87,5.31-4.15,9.98-10.92,11.14-17.38.31-1.73-.01-2.9,1.02-4.27l-6.17,17.08c-1.41,1.75-3.59,4.18-5.79,5.66l-3.8,1.93c-1.34.61-2.16,1.23-4.02.86h0ZM447.94,288.89c1.14-.81.89-.73,1.98.06-1.19.66-.83.44-1.98-.06h0ZM392.66,285.27l1.57.03c-.21.46.72.75-.79.83-1.34.07-.65-.49-.77-.86h0ZM423.47,284.12s.12.84-1.39.14c-1.04-.48-.42-.34-.61-.84l2,.7h0ZM350.96,297.24c-.52-4.65-1.48-2.27-1.73-9.61l.27-11.07c-1.44,2.67-1.04,13.66-.28,15.96.92,2.76-.08,2.88,1.73,4.72h0ZM364.46,279.13c2.64.77,2.91-.12,5.51,5.07,1.16,2.3,2.67,3.35,4.75,5.79l10.15,10.6c-.02-1.51-6.8-10.63-8.31-12.88-3.44-5.13.26-2.38-4.34-6.21-5.17-4.31-3.23-2.79-4.2-5.52-.04-.1-.1-.23-.13-.31l-.37-.53c-2.28-.28-.25.86-3.82-1.05l1.55,2.97-.8,2.06h0ZM439.32,288.59c.87,1.63,1.38,3.91,1.53,6.16-1.58-1.02-5.69-11.05-6.66-13.34-.36-.86-.56-2.06-.91-3.08-.54-1.57-2.19-3.48-1.44-4.99,4.31,6.47,2.88,5.41,5.58,9.68,1.79,2.84-.55.96,1.9,5.56h0ZM420.18,272.09l-.37,1.7.37-1.7h0ZM346.85,275.85c-4.55-.58-6.84-4.88-.2-5l.2,5h0ZM242.82,279.3c2.11-3.09,23.11-10.2,27.41-7.57-5.47,7.97-2.95,4.02-7.72,9.6-1.38,1.62-6.72,7.61-8.24,8.41l-5.89-5.04c-2.21-2.02-5.04-3.17-5.55-5.41h0ZM325.03,279.3c-2.88,3.33-7.9,8.09-11.11,10.42-1.98-1.93-15.95-14.77-16.26-17.82,2.69-3.23,25.3,4.46,27.37,7.4h0ZM449.95,269.08c-.17-.24-.36-.11-.56-1.02-.49-2.16.02-.69.19-1.02l.37,2.04h0ZM436.76,262.63c-.36-.44-.3.49-.61-1.28-.18-1.04-.09-2.71.61-3.72.27.41,1.61,3.04,0,5h0ZM371.8,262.8c-.48-.6-.34.62-.67-1.45-.19-1.18-.05-2.76.67-3.52.45,2.46.88,3.26,0,4.96h0ZM438.1,255.63c4.76,3.72,2.49-1.42,10.43,11.1.13-.19,1.96.98-.92-3.9-1.48-2.51-6.74-8.53-9.51-7.21h0ZM421.1,270.35c-1.07-2.74,4.06-10.42,7.85-13.26,2.17-1.62,2.15-1.55,5.21-1.96-2.18,1.64-1.64.67-4.55,2.62-1.67,1.12-2.07,1.66-3.55,3.49-3.38,4.2-3.18,5.82-4.96,9.1h0ZM369.11,255.21c-.65.69-.39.58-1.58.97-.91.3-1.14.24-2.03.65-1.19.54-2.17,1.09-3.14,1.71-10.42,6.73-11.1,16.26-12.77,17.92.68-2.53,1.39-5.71,2.51-7.95,2.91-5.81,9.64-13.07,17.01-13.3ZM369.11,255.21c.34-.27,0-.66,2.69-.79,15.32-.74,26.18,16.11,25.17,26.52-1.78-7.34-3.15-12.32-8.41-18.27-6.31-7.13-12.23-7.14-19.45-7.46h0ZM344.88,325.86c-2.62-2.35,1.12-2.66,2.03-4.23,9.29-.18,6.83-.19,15.5-1.21,9.15-1.07,23.24-3.07,31.47-3.79,5.64-.49,11.83.35,17.35-.6-4.47-2.37-1.66-1.13-3.64-2.66l-2.16,1.56-3.49-1.87c1.37-10.31,1.05-4.9.04-12.59l5.05,3.74c1.31-1.21,3.56-2.67,4-4.23l-7.83-.79-.24-43.11c0-3.49.17-2.59-.88-5.26l-.16-12.26,3.44-1.62,2.21,1.53c5.04-2.79,4.95-3.29,10.69-3.49.07,8.19-.23,35.41.76,41.3.25,1.49.06,17.03-.48,19.59-.43,2.02-.44,19,.05,20.15.47.7.96.85,1.79.99,6.84,1.16,27.41,2.68,30.81,4.82l-19.77.5c-2.03-.01-3.85.38-6.17.43-4.67.1-8.73-.64-13.7-.63-4.57,0-9.13,0-13.7,0-4.94,0-9.21.9-13.7.73-2.6-.1-4.01-.48-6.62-.48-6.85.02-26.9.02-32.15,1.76l-.52,1.73h0ZM410.64,228.88c-2.77,1.39-11.93,1.32-15.41,1.19-7.73-.29-35.77,4.77-44.45,6.15,2.51.97,30.56-.53,36.62-.97,4.52-.33,8.66-.2,13.16-.28,12.06-.21,11.47-1.77,23.54.69,4.72.96,8.72-.44,12.35.07,2.04.28,4.34.21,6.43.3,3.11.15,3.43.53,5.51-.58-2.83-1.95-11.23-1.83-14.89-2.87l-14.85-2.82c-.32-1.27-.35-61.87-.5-69.64-9.73-1.06-8.64,2.8-8.64,10.89,0,16.94-.37,37.31.1,53.94.1,3.63.29,1.6,1.03,3.92h0ZM363.76,209.16c.03-1.9,1.16-5.25,1.54-7.78.46-3.13,1.44-3.75,2.6-6.18,1.21-2.53,1.47-4.37,2.21-7.01.72-2.58,4.74-2.33,6.99-1.84,2.85,9.05,1.72,7.96,6.1,10.16l.94,6.52c.64,1.81,1.65,3.34,1.8,5.34l-3.05,4.72c-.2,2.3.06,4.5-1.13,6.38-1.31,2.07-1.9,1.64-3.09,4.84-.76,2.05-.2,4.2-.94,6.36l-4.18-.24c-8.2-11.7-6.05-6.59-6.8-16.78-.28-2.83-1.76-2.75-2.98-4.48h0ZM429.09,197.76c3.05-4.48,3.69-8.39,4.59-10.04.54-.99,2.08-.81,3.11-.06,1.04.75,1.48,5.24,2.31,7.35.93,2.39,2.19,4.17,2.54,6.7.35,2.6,1.34,6.07,1.54,8.05.22,2.18-2.15,2.34-2.28,6.4-.06,1.95.19,2.72-.5,4.51-.59,1.55-1.11,1.81-1.77,3.03-1.38,2.57-.72,5.27-1.61,7.62l-3.78-.92-1.85-8.44c-.78-1.55-1.02-1.4-1.45-3.49-1.44-7-.59-10.8-.83-12.77-.26-2.13-.83-.46-.24-3.47.3-1.5.18-2.97.25-4.47h0ZM421.24,592.27c3.23-.41,16.56-11.54,20.15-15.08,2.1-2.07,10.04-8.82,10.66-10.3l1.28-120.4,1.14-7.32c-1.83-.55-2.99.72-4.7,1.18-4.71,1.25-28.13-.42-34.67-.21-13.83.45-27.64.49-41.54.49-9.18,0-18.22.39-27.38,1.01l.29,2.42c-.98-.71-.91-.97-1.06-2.14-.24-1.87-.54-1.8-.65-3.05-.41-4.53.56-16.31.75-21.29l3.29,20.37c5.02-.03,10.7-.87,15.91-1.17,5.7-.33,11.35-.49,17.12-.76l33.31-1.43c-1.13-2.38-.91-3.88-1.01-6.68-.55-15.23-.03-38.18.26-53.83,1.57-1.49,4.7-1.11,7-1.12.74,1.34.42.72.51,1.44.07.57.01,1.59.02,2.21.15,17.37.45,34.81.13,52.18-.02,1.21-.12,2.22-.14,3.48-.02,1.57-.1,2.52.56,3.71l30.51,1.84c.82-3.66-1.8-10.24.48-17.86,1.43-4.78,5.64-7.92,7.52-12.72,1.45-3.72.13-6.03,1.14-8.95.99-2.88,2.53-4.43,4.21-5.9l6.22-14.11,2.26-1.22.41-3.17-4.2-.93v-37.42s-20.8-4.87-20.8-4.87c1.04-5.71,4.49-3.57,4.35-9.28v-13.6c-.51-2.74-1.29,1.55-1.29-7.02,0-2.99-.07-5.8-.15-8.77-.16-5.78.24-11.57.28-17.09.02-2.07.46-28.92.09-30.26l-1.32-3.06,2.55-5.2-3.5-2.52.79-63.4,5.25-2.94-.67-7.13c-4.9-2.05-8.26-.25-12.85-.03-4.71.22-10.24-.47-14.96-.06-8.48.74-9.58-1.32-13.69-1.03-5.08.36-9.39.48-14.59.48-4.93,0-8.92.51-13.7.84l-36.26-.57c-2.84-.21-3.12-.63-4.84-2.48l-2.74,2.93c.13,1.88.37,3.82.58,5.73l4.14,2.56-.19,66.71c-2.87,1.06-3.5,4.02-4.95,6.54,4.67,5.47,3.42,3.31,2.99,11.79l-3.35,2.11c-2.03-.54-4.14-2.08-6.56-3.01l-6.89.51,7.86,11.84-5.92,4.11c-5.66-2.25-4.78-4.05-18.21-6.98-10.29-2.25-11.48-1.64-19.35-2.8-4.16-.61-3.69-1.26-3.35-5.16l12.3-4.07-13.54-5.95-.09-10.56,7.31-2.78c.29-2.79-3.18-9.05-4.46-11.34l-6.1-10.23-2.81-.04c-.55,1.48-1.92,3.56-2.8,5.09-3.3,5.71-5.09,10.45-7.56,16.59,9.77,3.19,7.69,1.04,7.4,13.48-9.69,1.89-6.08-2.43-13.36,6.24,1.53,2.99,6.74,2.2,9.94,2.74l1.67.77v4.74c-1.92.87-8.56.85-11.1,1.2-3.82.52-7.29,1.18-10.95,2.01-11.71,2.66-17.93,6.94-18.15,6.99-4.78-.24-7.86-3.58-4.86-7.58l6.46-8.59c-4.67-4.88-10.9,4.73-15.06,1.81-7.24-5.09-2.86-7.64,1.28-12.92-2.38-3.55-16.75-8.72-21.12-10.59-3.55,5.81.88,18.38,2.43,24.97,7.97-2.58,7.1-3.86,11.91,4.91l-7.06,11.4c3.47,1.36,8.39-2.07,10.64-1.74l2.96,1.31c-.06,2.99-3.85,3.97-6.2,5.2-12.84,6.76-16.5,13.75-19.98,15.68-2.55,1.42-6,.42-6.32-3.02-.24-2.53,3.34-5.58,4.45-7.16,3.38-4.83-2.35-4.68-5.15-2.93l-6.07,5.6c-1.61-.66-6.47-4.49-7.07-5.72-1.53-3.16,10.12-8.51-1.79-11.57l-16.5-3.72c-3.41,3.48,4.98,18.92,6.8,22.89,4.51.86,4.19-3.61,7.46-3.22l5.38,5.5-6.17,13.01c.73.87,1.89,1.14,3.27.82,2.66-.62,7.44-2.96,10.15-4.02,5.41,2.65-1.55,8.06-4.18,11.67-4.99,6.85-9.02,14.25-13.26,21.6l-4.86-2.6,2.53-12.31c-2.96-.27-4.38,3.04-5.82,4.51l-5.54,5.42-7.54-5.22,1.85-8.36c-.49-.3-.37-.5-2.24-.47-6.79.11-13.57.77-20.33,1.3-.17.29-1.11-.15.34,2.78.58,1.17.76,1.4,1.48,2.48l10.24,14.34c3.75-.07,3.34-4.07,7.04-4.42l7.04,4.64c-.19,2.05-1.35,3.75-1.84,5.74l-.39,6.46,10.1-6.97c1.68.26,3.53,1.74,4.06,3.02.88,2.12-2.26,7.68-3.05,10.28-2.61,8.63-1.89,13.54-2.9,18.05l-4.04,10.76c-2.47-2.66-2.21-2.8-2.57-7.01-.23-2.74-1-6-4.34-4.86-2.44.83-3.14,3.61-2.91,6.35l-1.93,7.7c-1.11.12-5.72.53-6.74.23l-1.59-.89-.41-6.84c-1.28-.84-1.77-.65-3.64-.35-1.22.2-2.17.55-3.32,1.07-3.71,1.67-7.02,4.17-10.37,6.37-6.53,4.3-6.31,4.16,6.45,10.7,6.16,3.16,3.76,3.08,10.74,2.58l.81-6.94,9.22-.03c2.36,2.94,1.87,7.85,3.56,10.47l2.45,2.43,4.73-11.71c5.79-.43,2.98,7.41,4.52,16.51.76,4.49,2.89,11.17,3.15,12.65l-.17,4.16-7.04-.13c-2.08-2.88.06-7.56-5.17-10.14l-8.62,5.15,5.46,2.89c.33,2.51-.74,5.76-3.04,5.47-.71-.09-4.96-2.36-6.22-2.91l-16.12-2.61.53,7.51c.52.36-.1.51,2.23.44,1.01-.03,2.1-.1,3.12-.15,6.85-.3,7.83.97,14.08,3.65.21,1.93-3.92,12.22-4.79,14.94-4.66,14.58-7.65,37.64-5.11,52.4,1.86,10.81,8.8,18.64,17.73,22.27,10.98,4.46,23.24,3.86,36.42,3.86l160.31.02c1.3,6.25-1.64,85.82-1.02,87.57.47,1.32,3.18.72,4.63.68,12.47-.4,25.15-2.35,36.81-6.72,9.8-3.68,18.48-7.17,27.16-12.45l6.25-4.35h0ZM440.29,144.99c-.67-1.12-.2-.9-.55-1.94l-3.98-7.89c-.73-1.37-1.2-2.02-1.64-3.2l.42.49c.05.06.15.17.2.24,2.94,3.38,6.23,10.41,5.54,12.3h0ZM430.06,140.3c-.77-.73-3.38-8.27-6.17-12.63-1.16-1.81-3.84-5.35-4.24-6.58l10.41,19.21h0ZM407.67,115.86l8.3,21.11c-.72-.78-3.06-9.42-3.71-11.39-1.42-4.29-4.42-7.81-4.59-9.72h0ZM381.72,138.47c.01-8.47,7.22-25.18,10.35-24.02.45,1.3.32.79-.1,1.56-2.22,4.02-3.1,5.12-5.26,10.18-.7,1.63-1.83,4.27-2.49,6.3-.4,1.22-.77,2.21-1.1,3.26-.19.61-.22,1.3-.41,1.8-.61,1.64.16.69-.98.91h0ZM399.78,95.17c0,2.57-.26,10.92.44,12.98.45,1.34.57-.65.55,3.65-.05,8.17-.62,16.81-1.43,25.01-.15,1.51-.09,1.16-.76,2.33-.94-9.2.19-20.83.57-30.3-9.86.29-26.35,12.76-32.17,20.54-1.01,1.35-1.8,2.1-2.78,3.4-6.93,9.21-7.04,10.32-13.67,22.02,10.78.04,36.88-4.59,50.44-4.19,9.47.28,16.25-.09,25.51,1.69l23.02,3.68c1.6-1.24-9.39-23.51-17.35-29.49l-30.41-17.95c-.37-5.31.03-9.72-.33-15.52-1.52.26-1.63.5-1.63,2.15h0ZM253.39,146.17c-1.33,5.87-16.03,14.64-20.49,16.37-9.56,3.7-21.44,4.12-31.51.88-41.38-13.35-41.47-72.49-.45-86.06,10.98-3.63,21.14-3.1,31.72.66,7.24,2.57,18.64,10.72,20.92,16.39l-4.28-3.08c-10.85-8.25-24.94-9.81-37.13-4.15-11.4,5.29-21.46,16.86-21.46,32.99,0,16.41,10.26,28.36,21.56,33.32,7.01,3.08,15.2,4.35,23.49,2.28,11.9-2.97,14.32-8.34,17.61-9.59h0ZM254.52,126.74c.6.62-.02.18.85.64,2.74,1.44,15.57,3.95,18.47,6.32l.31,19.87c2.56-1.02,9.03-13.84,12.48-15.94,1-.32,8.17,2.33,9.89,2.87,5.28,1.65,3.81,1.45,9.68,2.72-.71-1.39-10.27-14.03-12.07-16.48l12.06-16.76c-1.06.06-17,5.28-19.67,6.1l-12.37-16.09c-1.82,4.14,2.34,19.18-1.52,20.87-3.2,1.4-15.62,4.33-17.83,5.68-.07.04-.19.13-.28.21h0ZM178.19,707.18c1.63,1.78,4.11,2.53,6.32,3.4.92-1.11,7.44-12.66,8.96-15.5.71-1.32.58-1.03,2.02-2.01l-.76,14.93c4.3,3.69,4.57,2.2,8.73-.35l8.61-5.12c-.3,1.59-6.43,10.71-7.98,13.64l-2.46,5.19,6.39,2.95c2.89-5.44,6.1-10.54,9.38-15.98l9.42-16.04-6.13-3.67c-.91.3-17.75,11.08-19.22,11.99l1.92-22.32-6.12-3.39c-.78.74-14.92,24.63-16.76,27.96-.9,1.63-1.92,2.25-2.32,4.35h0ZM248.13,732.16c-.11-1.64,1.6-7.9,2.32-9.02,4.57,1.01,12.5,1.53,11.3,7.16-1.26,5.9-9.11,3.38-13.63,1.86h0ZM253.88,708.15c1.64-.04,8.22,1.76,9.27,2.49,2.55,1.77,2.35,6.17-.89,7.54-1.65.7-8.87-.67-9.84-1.32-1.46-.99.59-7.01,1.46-8.7h0ZM269.07,729.97l-2.76-7.04c3.17-2.29,4.79-2.13,5.81-7.28,1.95-9.83-7.85-11.75-12.9-12.97l-11.13-2.54c-.81,2.45-8.6,35.89-8.58,36,.28,1.64,6.23,2.1,8.14,2.6,6.41,1.68,13.01,3.97,17.95-.58,1.77-1.62,3.47-4.79,3.47-8.18h0ZM138.93,641.42c.75-1.29,6.28-6.08,7.51-6.5,3.66,4.19,8.85,8.31,4.19,12.41-4.43,3.9-8.8-1.74-11.7-5.91h0ZM117.81,649.31c.57,1.74,3.36,3.94,4.78,5.24.88-.37,9.55-7.89,11.05-9.14,1.18.46,4.44,2.76,3.13,5.65-6.99,15.33-7.95,12.54-.35,19.75l6.41-16.23c4.98-.22,5.48,2.94,11.62-.84,0,0,5.05-8.93,5.05-9.68,0-6.66-8.85-14.3-13.04-18.92-1.21.61-2.79,2.18-3.69,2.99-1.5,1.35-2.33,1.83-3.64,2.97-2.82,2.46-20.59,16.99-21.32,18.22h0ZM384.69,689.64c.9-1.01,3.13-2.08,4.5-2.92,1.67-1.02,3.42-1.81,5.72-1.11,3.22.98,12.18,13.65,10.75,18.28-.73,2.36-6.03,6.23-8.22,6.46-1.79-2.81-12.48-19.03-12.74-20.7h0ZM374.84,687.69c.19,1.86,3.54,6.42,4.73,8.27l15.1,23.84c1.42-.19,14.03-7.85,16.22-10.67,5.53-7.12.77-13.78-2.74-19.62-3.1-5.16-7.04-12.08-15.44-11.1-4.31.5-13.6,6.6-17.87,9.28h0ZM129.13,616c-1.63,2.77-8.69,7.02-12.43,9.05-8.72,4.72-12.04-3.81-10.18-7.44,1.25-2.44,3.28-3.51,5.53-5.05,4.04-2.76,10.57-8.33,14.99-4.5,1.7,1.47,3.88,4.89,2.09,7.94h0ZM119.51,600.09c9.89-2.9,19.02,7.58,16.68,17.15-1.67,6.84-14.95,14.56-19.65,16-10.15,3.11-19.07-7.39-16.96-17.22,1.04-4.86,4.97-7.31,8.47-9.63,3.27-2.17,7.03-4.99,11.47-6.29h0ZM440.16,634.4c.38-1.59,7.89-10.73,9.41-12.72l4.76-6.29c1.85-1.54,5.51,2.94,5.68,3.23-.92,1.27-9.74,12.7-10.04,13.59,1.67,1.59,4.55,4.86,6.68,5.32,1.01-1.2,8.25-10.58,9.28-11.1l4.82,3.59c-2.11,3.05-4.09,6.07-6.45,8.91-1.81,2.18-1.6,1.11-2.05,2.92,1.58,1.37,5.29,5.09,7.21,5.24,1.64-2.04,9.57-12.51,11.05-13.25l4.57,4.06c-2.46,3.25-13.77,18.29-15.18,19.25l-26.26-19.94c-1.25-.92-2.6-1.83-3.48-2.82h0ZM344.97,700.26c2.43-1.22,21.75-8.6,23.46-8.59l1.6,5.95-15.82,6.06,2.92,8.23,10.35-3.77c2.1-.87,3.24-2.18,4.33-.13.44.82,1.53,3.8,1.47,4.59l-13.42,5.52,3.23,8.57,16.42-6.02,1.98,5.78-22.96,8.92c-1.8-4.32-13.72-32.83-13.58-35.12h0ZM149.76,677.36c0-5.47,4.7-8.9,6.53-11.28l5.44-5.99c1.78-1.91,6.22-7.94,8.14-8.83l5.11,4.62-5.53,6.6c-1.8,1.74-4.04,4.55-5.76,6.58-4.22,4.99-10.55,8.96-4.64,14.65,6.32,6.08,11.65-3.11,14.56-6.15,2.31-2.42,9.68-11.5,11.72-12.67l5.12,4.58c-2.95,3.54-15.28,17.91-18.19,20.35-7.63,6.38-22.5,1.43-22.5-12.46h0ZM282.13,731.73c0,10.49-1.68,6.39,3.06,13.02l12.82.07c9.34.23,9.12,3.06,8.65-5.9l-17.54-.67c-.08-5.23-.46-4.69.44-9.21l14.99-.11v-2.9c-4.51-3.27-3.35-3.05-6.1-3.13l-8.7-.51-.02-8.56c3.74-.45,13.62-.16,17.52-.15.22-1.1.28-1.88.3-3.01.03-1.8-.16-1.8-.88-3.19l-22.8-.59c-2.51,0-1.61,6.58-1.61,11.25,0,4.54-.12,9.08-.12,13.59h0ZM463.02,605.47c0-4.97,3.4-9.98,5.99-12.27,6.84-6.07,7.33-2.66,7.91,2.68l-6.86,6.71c-1.64,3.74,1.17,7.66,4.93,6.63,4.59-1.25,6.8-11.56,15.41-10.58,7.54.86,12.1,7.43,9.63,15.7-1.55,5.17-7.6,12.95-13.45,13.12l-1.62-6.1,5.99-4.22c5.1-4.72,3.44-11.54-1.57-11.24-5.02.31-7.57,13.15-17.69,10.51-4.93-1.29-8.67-5.02-8.67-10.94h0ZM76.23,593.57c5.97-4.29,4.02,1.32,4.62-7.2.28-3.98,1.8-6.26,3.96-8.3,2.59-2.44,12.08-7.25,16.11-8.53,7.7-2.44,13.96,2.38,16.31,7.47,4,8.7-1.36,16.67-4.89,16.95l-2.91-6.53,2.53-5.54c-.28-2.06-1.84-4.04-3.39-5.03-3.18-2.04-9.59,1.32-12.16,2.65-4.44,2.31-13.47,6.77-6.73,13.45,2.21,2.2,3.06,1.41,6.28,1.7l3.07,6.29-8.78.23c-3.48-1.09-3.76-2.94-6.11-3.8l-5.2,2.27-2.71-6.07h0ZM436.13,659.65c.31-1.77-3.06-9.39-3.97-11.48-1.29-2.96-2.08-3.42.09-5.51,1.29-1.24,2.1-3.06,4.06-3.55,1.22,2.04.95,2.29,1.81,4.91l4.94,14.84c2.32,7.48,7.74,8.47,12.15,14.11l-5.2,5.21-6.63-6.51c-3.17-3.11-2.54-3.56-7.93-5.28l-15.07-4.76c-1.73-.56-3.21-.81-4.81-1.37,1.52-2.05,2.91-3.97,4.84-5.69l15.72,5.07h0ZM370.03,219.75c-1.01-10.63-.36-4.11-2.06-12.04-1.15-5.38.19-7.8,2.26-11.51.81-1.45,1.58-3,2.21-4.82.51-1.51,1.6-4.15,3.72-2.38.63.53,1.52,3.95,1.99,5.1,1.2,2.95,1.28,2,3.43,3.48,1.34,8.05,1.87,6.37,2.39,8.77.75,3.43-2.05,1.27-2.45,7.62-.3,4.73-1.19,4.71-3,7.55-2.99,4.7-.25,6.49-2.25,8.06-1.19-5.47-.88-7.92-6.24-9.84h0ZM314.64,707.02l6.7,36.67,24.04-4.51c.05-1.58-.6-4.64-1.18-5.51-.69-1.04-5.93.55-7.97.89l-8.71,1.21c-.9-1.62-5.05-26-5.84-30.14-1.74-.39-5.49.38-7.03,1.39h0ZM280.35,596.26c-2.15,5.09-9.02,2.26-7.39-2.44,1.57-4.52,9.31-2.13,7.39,2.44h0ZM275.19,580.51c4.4-2.51,6.93,4.22,2.93,6.14-2.22,1.07-4.07-.27-4.82-1.87-1.4-3.01,1.72-4.18,1.89-4.27h0ZM270.73,588.81c-1.01-1.74-2.03-1.62-2.55-4.15-2-9.66,13.51-12.97,16.46-4.05,2.15,6.5-3.18,6.52-1.73,9.07.73,1.28,1.92,1.2,2.53,4.14,1.01,4.91-2.89,9.76-9.09,9.62-3.67-.08-6.88-2.02-8-4.9-2.25-5.74,1.45-7.2,2.39-9.72h0ZM476.65,579.16c1.2,1.2,28,14.15,34,16.73l2.73-6.21c-1.49-1.48-5.96-3.26-8.22-4.32-2.86-1.34-5.59-2.72-8.5-4.27-4.94-2.63-11.73-5.65-17.04-8.07-1.02,1.15-2.85,4.57-2.97,6.14h0ZM404.85,668.16c.37,1.59,4.5,5.8,5.85,7.44,6.29,7.72,11.44,14,18.11,21.59l5.28-4.48c-.53-1.4-1.79-2.62-2.83-3.74l-21.01-25.14c-1.27.56-4.73,3.31-5.4,4.33h0ZM318.28,590.85c4.59-1.07,5.97,6.66,1.66,7.97-5.3,1.61-6.57-6.82-1.66-7.97h0ZM327.45,594.95c0,11.39-17,11.15-17.16.44-.06-4.06,2.94-9.15,4.5-12.27,3.13-6.21,2.73-8.77,8.76-7.4l-4.77,10.9c5.17,1.82,8.65,1.64,8.65,8.33h0ZM289.17,577.85c0-2.95.54-2.18,3.09-2.18,8.02,0,8.34-.73,14.6,1.29.21,1.34-.17,3.36-.52,4.36-.75,2.18-1.96,4.66-2.86,7.23-.87,2.48-4.63,13-5.92,14.41l-4.7.26c1.99-5.75,3.89-11.59,6.22-17.26.81-1.97,2.02-3.73,1.91-5.84-2.66-.49-3.61-.13-6.71.15l-2.47,4.29h-.44c-2.81-2.95-2.21-1.36-2.21-6.71h0ZM248.84,582.23c0-3.1,1.78-3.07,3.84-5.07,1.46-1.42,3.67-2.22,6.67-1.29l.12,23.9-.87,3.38c-.79.25-2.96.01-3.52-.14-1.19-2.88-.35-16.98-.16-21.34l-6.04,3.75-.03-3.18h0ZM432.72,222.73c-1.31-4.91-2.73-7.84-2.43-14.83l.05-7.54c.12-2.16,1.32-5.31,3.06-6.15.79,8.31,1.14,3.27,2.35,6.77.37,1.06.62,6.1.91,7.9.66,4.13-1.25,4.14-1.59,7.36-.31,3.02.75,5.54-2.36,6.49h0ZM467.01,574.34c.09-1.37,1.91-4.91,2.89-6.15l6.05,2.71-2.82,6.19-6.12-2.75h0ZM397.98,659.83c1.17-1.23,3.77-3.48,5.19-4.34,1.28,1.2,3.7,3.29,4.41,4.77l-5.29,4.55-4.31-4.99h0ZM404.53,251.41l5.2-.27-2.14-3.43c-1.52.66-.58.31-1.6,1.51-1.09,1.29-.89.37-1.47,2.19h0ZM419.81,273.79l.37-1.7-.37,1.7h0ZM344.88,325.86l.84.68-.84-.68Z"/>
  </g>
</svg>