<?xml version="1.0" encoding="iso-8859-1"?>
<!-- Generator: Adobe Illustrator 29.7.1, SVG Export Plug-In . SVG Version: 9.03 Build 0)  -->
<svg version="1.1" id="Layer_1" xmlns="http://www.w3.org/2000/svg" xmlns:xlink="http://www.w3.org/1999/xlink" x="0px" y="0px"
	 viewBox="0 0 841.89 595.28" style="enable-background:new 0 0 841.89 595.28;" xml:space="preserve">
<g>
	<g>
		<g>
			<path style="fill:#0256A2;" d="M393.504,258.992c0.949-0.23,2.33-0.374,3.825-0.374c2.445,0,4.142,0.576,5.379,1.726
				c1.668,1.496,2.531,4.056,2.531,7.823c0,3.912-1.006,6.702-2.704,8.198c-1.294,1.266-3.221,1.87-5.925,1.87
				c-1.179,0-2.358-0.115-3.106-0.202V258.992z M397.272,275.1c0.173,0.058,0.46,0.058,0.662,0.058c1.812,0,3.394-1.784,3.394-7.133
				c0-3.969-1.036-6.385-3.308-6.385c-0.259,0-0.518,0-0.748,0.086V275.1z"/>
			<path style="fill:#0256A2;" d="M429.195,269.577h-4.43v5.235h5.005v3.279h-8.772v-19.386h8.428v3.279h-4.66v4.458h4.43V269.577z"
				/>
			<path style="fill:#0256A2;" d="M445.701,278.091v-19.386h3.451l2.992,7.593c0.575,1.496,1.524,3.998,2.07,5.666h0.059
				c-0.115-2.042-0.375-5.407-0.375-8.974v-4.286h3.309v19.386h-3.452l-2.962-7.363c-0.633-1.64-1.525-4.084-1.957-5.839h-0.057
				c0.086,1.956,0.23,4.947,0.23,8.83v4.372H445.701z"/>
			<path style="fill:#0256A2;" d="M477.336,260.287c0.029,1.208-0.834,2.042-1.984,2.042c-1.035,0-1.898-0.834-1.869-2.042
				c-0.029-1.266,0.892-2.042,1.928-2.042C476.502,258.245,477.336,259.021,477.336,260.287z M473.568,278.091v-14.065h3.767v14.065
				H473.568z"/>
			<path style="fill:#0256A2;" d="M492.348,275.876l6.127-13.806v-0.086h-5.551v-3.279h9.808v2.79l-5.868,13.231v0.086h5.84v3.279
				h-10.355V275.876z"/>
			<path style="fill:#0256A2;" d="M518.203,258.705h3.768v16.193h4.976v3.193h-8.743V258.705z"/>
			<path style="fill:#0256A2;" d="M545.926,260.287c0.029,1.208-0.834,2.042-1.984,2.042c-1.035,0-1.898-0.834-1.869-2.042
				c-0.029-1.266,0.892-2.042,1.928-2.042C545.092,258.245,545.926,259.021,545.926,260.287z M542.158,278.091v-14.065h3.768v14.065
				H542.158z"/>
		</g>
		<g>
			<path style="fill:#0256A2;" d="M393.504,319.492c1.15-0.259,2.646-0.374,4.286-0.374c1.812,0,3.566,0.23,4.918,1.381
				c1.035,0.862,1.467,2.157,1.467,3.509c0,1.727-0.892,3.395-2.819,4.228v0.115c2.244,0.633,3.452,2.502,3.452,4.631
				c0,1.61-0.518,2.848-1.438,3.797c-1.15,1.266-3.106,1.955-6.356,1.955c-1.438,0-2.646-0.086-3.509-0.201V319.492z
				 M397.272,327.172h0.806c1.352,0,2.387-1.15,2.387-2.732c0-1.409-0.662-2.502-2.215-2.502c-0.403,0-0.748,0.028-0.978,0.115
				V327.172z M397.272,335.772c0.23,0.059,0.489,0.059,0.834,0.059c1.525,0,2.79-0.921,2.79-2.906c0-1.926-1.323-2.934-2.818-2.962
				h-0.806V335.772z"/>
			<path style="fill:#0256A2;" d="M420.624,330.077h-4.43v5.235h5.005v3.278h-8.772v-19.386h8.427v3.278h-4.66v4.458h4.43V330.077z"
				/>
			<path style="fill:#0256A2;" d="M428.791,319.205h3.768v16.193h4.977v3.192h-8.744V319.205z"/>
			<path style="fill:#0256A2;" d="M452.949,330.077h-4.43v5.235h5.005v3.278h-8.772v-19.386h8.428v3.278h-4.66v4.458h4.43V330.077z"
				/>
			<path style="fill:#0256A2;" d="M461.115,319.492c0.949-0.23,2.33-0.374,3.826-0.374c2.444,0,4.142,0.575,5.379,1.726
				c1.668,1.496,2.53,4.057,2.53,7.824c0,3.912-1.007,6.701-2.704,8.197c-1.294,1.266-3.221,1.869-5.925,1.869
				c-1.179,0-2.358-0.115-3.107-0.201V319.492z M464.883,335.6c0.174,0.058,0.461,0.058,0.662,0.058
				c1.812,0,3.395-1.784,3.395-7.134c0-3.969-1.036-6.385-3.309-6.385c-0.258,0-0.518,0-0.748,0.086V335.6z"/>
			<path style="fill:#0256A2;" d="M483.893,320.787c0.029,1.207-0.834,2.041-1.984,2.041c-1.035,0-1.898-0.834-1.869-2.041
				c-0.029-1.266,0.891-2.043,1.927-2.043C483.059,318.744,483.893,319.522,483.893,320.787z M480.125,338.591v-14.065h3.768v14.065
				H480.125z"/>
			<path style="fill:#0256A2;" d="M494.073,338.591v-7.421l-4.257-11.965h4.026l1.323,4.631c0.346,1.236,0.719,2.674,1.007,4.113
				h0.058c0.23-1.41,0.547-2.819,0.892-4.2l1.15-4.544h3.911l-4.343,11.821v7.564H494.073z"/>
			<path style="fill:#0256A2;" d="M516.707,330.077h-4.43v5.235h5.005v3.278h-8.772v-19.386h8.428v3.278h-4.66v4.458h4.43V330.077z"
				/>
			<path style="fill:#0256A2;" d="M524.441,334.736c0.777,0.432,2.1,0.748,3.193,0.748c1.783,0,2.647-0.92,2.647-2.186
				c0-1.41-0.863-2.1-2.503-3.164c-2.645-1.611-3.653-3.653-3.653-5.408c0-3.105,2.071-5.694,6.127-5.694
				c1.266,0,2.474,0.345,3.049,0.69l-0.604,3.25c-0.547-0.346-1.381-0.662-2.475-0.662c-1.61,0-2.387,0.979-2.387,2.014
				c0,1.15,0.575,1.755,2.675,3.021c2.56,1.554,3.509,3.509,3.509,5.552c0,3.537-2.617,5.867-6.414,5.867
				c-1.553,0-3.077-0.402-3.71-0.777L524.441,334.736z"/>
			<path style="fill:#0256A2;" d="M544.89,320.787c0.028,1.207-0.834,2.041-1.984,2.041c-1.036,0-1.898-0.834-1.87-2.041
				c-0.028-1.266,0.893-2.043,1.928-2.043C544.056,318.744,544.89,319.522,544.89,320.787z M541.122,338.591v-14.065h3.768v14.065
				H541.122z"/>
		</g>
		<g>
			<path style="fill:#0256A2;" d="M393.752,286.754c1.321-0.297,3.039-0.429,4.922-0.429c2.081,0,4.096,0.264,5.649,1.585
				c1.189,0.991,1.685,2.478,1.685,4.03c0,1.982-1.024,3.898-3.238,4.857v0.132c2.577,0.727,3.964,2.874,3.964,5.319
				c0,1.85-0.595,3.271-1.652,4.361c-1.321,1.453-3.568,2.246-7.301,2.246c-1.652,0-3.039-0.1-4.03-0.232V286.754z M398.08,295.575
				h0.925c1.553,0,2.742-1.321,2.742-3.138c0-1.619-0.76-2.874-2.544-2.874c-0.462,0-0.859,0.033-1.123,0.132V295.575z
				 M398.08,305.453c0.264,0.065,0.562,0.065,0.958,0.065c1.751,0,3.205-1.058,3.205-3.337c0-2.213-1.52-3.369-3.238-3.402h-0.925
				V305.453z"/>
			<path style="fill:#0256A2;" d="M415.551,286.424v14.469c0,3.271,0.991,4.262,2.114,4.262c1.255,0,2.147-0.892,2.147-4.262
				v-14.469h4.328v13.71c0,5.716-2.147,8.82-6.442,8.82c-4.658,0-6.475-3.204-6.475-8.787v-13.743H415.551z M412.677,282.988
				c0-1.189,0.925-2.114,1.949-2.114c1.057,0,1.949,0.925,1.949,2.114c0,1.189-0.892,2.114-1.949,2.114
				C413.569,285.103,412.677,284.178,412.677,282.988z M418.723,282.988c0-1.189,0.925-2.114,1.982-2.114
				c1.057,0,1.949,0.925,1.949,2.114c0,1.189-0.892,2.114-1.949,2.114C419.615,285.103,418.723,284.178,418.723,282.988z"/>
			<path style="fill:#0256A2;" d="M432,308.69v-8.523l-4.89-13.743h4.625l1.52,5.318c0.397,1.421,0.826,3.072,1.156,4.724h0.065
				c0.266-1.619,0.629-3.237,1.025-4.823l1.32-5.219h4.493l-4.988,13.578v8.688H432z"/>
			<path style="fill:#0256A2;" d="M448.645,286.424v14.469c0,3.271,0.991,4.262,2.114,4.262c1.256,0,2.147-0.892,2.147-4.262
				v-14.469h4.327v13.71c0,5.716-2.146,8.82-6.441,8.82c-4.658,0-6.475-3.204-6.475-8.787v-13.743H448.645z M445.771,282.988
				c0-1.189,0.926-2.114,1.949-2.114c1.057,0,1.949,0.925,1.949,2.114c0,1.189-0.893,2.114-1.949,2.114
				C446.664,285.103,445.771,284.178,445.771,282.988z M451.816,282.988c0-1.189,0.926-2.114,1.982-2.114
				c1.058,0,1.949,0.925,1.949,2.114c0,1.189-0.892,2.114-1.949,2.114C452.709,285.103,451.816,284.178,451.816,282.988z"/>
			<path style="fill:#0256A2;" d="M462.616,286.424h4.327v10.01h0.066c0.363-0.925,0.727-1.917,1.09-2.875l2.974-7.135h4.757
				l-4.988,9.679l5.055,12.586h-4.725l-3.236-9.217l-0.992,1.817v7.4h-4.327V286.424z"/>
			<path style="fill:#0256A2;" d="M478.932,304.264c0.893,0.495,2.412,0.858,3.667,0.858c2.048,0,3.039-1.058,3.039-2.511
				c0-1.619-0.991-2.412-2.874-3.634c-3.039-1.85-4.195-4.195-4.195-6.21c0-3.568,2.379-6.541,7.037-6.541
				c1.453,0,2.84,0.396,3.501,0.792l-0.693,3.733c-0.628-0.397-1.586-0.76-2.841-0.76c-1.851,0-2.742,1.123-2.742,2.312
				c0,1.321,0.66,2.015,3.072,3.468c2.94,1.784,4.03,4.03,4.03,6.376c0,3.205-1.884,5.584-4.823,6.409l-0.793,1.586
				c1.156,0.198,2.213,1.091,2.213,2.411c0,2.115-1.783,2.875-3.633,2.875c-0.893,0-1.883-0.265-2.512-0.596l0.629-1.85
				c0.56,0.265,1.188,0.463,1.75,0.463c0.529,0,1.057-0.232,1.057-0.826c0-0.66-0.825-1.09-2.246-1.223l1.09-2.51
				c-0.032,0-0.032,0-0.099,0c-1.784,0-3.534-0.463-4.261-0.893L478.932,304.264z"/>
			<path style="fill:#0256A2;" d="M503.507,298.912h-5.087v6.012h5.748v3.766h-10.076v-22.265h9.68v3.766h-5.352v5.12h5.087V298.912
				z"/>
			<path style="fill:#0256A2;" d="M513.084,286.424v8.92h4.525v-8.92h4.328v22.265h-4.328v-9.316h-4.525v9.316h-4.328v-22.265
				H513.084z"/>
			<path style="fill:#0256A2;" d="M531.745,286.424v22.265h-4.327v-22.265H531.745z M527.55,282.956
				c0-1.156,0.958-2.114,2.048-2.114c1.156,0,2.082,0.958,2.082,2.114c0,1.156-0.926,2.114-2.082,2.114
				C528.475,285.07,527.55,284.112,527.55,282.956z"/>
			<path style="fill:#0256A2;" d="M537.26,286.754c1.354-0.264,3.072-0.429,4.724-0.429c2.378,0,4.493,0.33,5.946,1.652
				c1.354,1.222,1.751,2.708,1.751,4.624c0,2.379-1.156,4.526-3.436,5.583v0.066c1.52,0.594,2.279,2.015,2.708,4.393
				c0.43,2.478,1.025,5.22,1.422,6.045h-4.526c-0.265-0.627-0.76-2.873-1.091-5.318c-0.397-2.775-1.09-3.568-2.543-3.568h-0.628
				v8.887h-4.327V286.754z M541.587,296.467h0.76c1.884,0,2.974-1.52,2.974-3.469c0-1.883-0.76-3.237-2.709-3.303
				c-0.363,0-0.793,0.033-1.024,0.132V296.467z"/>
		</g>
	</g>
	<g>
		<g>
			<g>
				<path style="fill:#0256A2;" d="M335.179,251.511h1.851c1.848,0.141,3.706,0.198,5.54,0.5c7.773,1.12,15.216,4.389,21.317,9.334
					c4.88,3.957,8.933,8.945,11.739,14.573c4.963,9.8,6.003,21.479,2.943,32.023c-0.933,3.314-2.325,6.48-3.969,9.501
					c0.153,1.474,0.184,1.621-0.133,4.134c-1.463,5.621-2.882,7.516-5.483,11.147c-0.39,0.47-0.861,0.86-1.367,1.198
					c-5.221,2.838-11.274,3.523-17.123,3.631c-0.979,1.365-2.331,2.426-3.833,3.16c-3.25,1.597-6.897,2.176-10.483,2.354
					c-2.209,0.182-4.44-0.005-6.614-0.41c-3.538-0.688-7.013-2.309-9.371-5.102c-2.523-0.053-5.054-0.148-7.561-0.473
					c-3.383-0.445-6.802-1.232-9.746-3.027c-0.538-0.341-0.891-0.873-1.211-1.41c-1.516-3.166-3.236-6.233-4.65-9.448
					c-1.169-2.282-0.94-5.023-0.191-7.398c-3.921-7.646-5.535-16.456-4.561-24.996c0.872-8.04,4.034-15.811,9.007-22.188
					c5.509-7.118,13.25-12.483,21.859-15.119C327.038,252.268,331.107,251.7,335.179,251.511z M323.145,263.333
					c-6.261,2.486-11.754,6.845-15.619,12.359c-3.787,5.366-5.995,11.828-6.276,18.391c-0.263,6.27,0.841,12.71,3.895,18.249
					c-2.105,0.701-4.227,1.552-5.917,3.032c-1.043,0.915-1.88,2.19-1.899,3.62c0.097,2.341,1.381,4.507,3.19,5.951
					c2.879,2.326,6.534,3.43,10.139,3.999c2.89,0.447,5.865,0.526,8.741-0.05c1.16,1.393,2.751,2.347,4.405,3.05
					c2.766,1.163,5.764,1.675,8.746,1.869c4.623,0.231,9.378-0.036,13.746-1.687c1.843-0.727,3.655-1.709,4.959-3.234
					c2.972,0.614,6.039,0.441,9.032,0.084c2.996-0.369,6.05-0.956,8.682-2.512c1.913-1.119,3.567-2.875,4.114-5.07
					c0.474-1.698-0.03-3.541-1.038-4.949c-1.355-1.889-3.359-3.24-5.5-4.098c1.482-2.574,2.646-5.336,3.357-8.224
					c1.333-5.6,1.288-11.535-0.135-17.115c-1.594-6.244-4.985-12.008-9.645-16.458c-4.898-4.71-11.203-7.938-17.898-9.125
					C335.85,260.27,329.158,260.922,323.145,263.333z M327.789,334.914c-0.131,0.355-0.261,0.709-0.392,1.066
					c0.168,0.053,0.503,0.158,0.672,0.211c-0.449,1.238-0.897,2.478-1.349,3.719c0.41,0.154,0.819,0.309,1.229,0.465
					c0.591-1.584,1.181-3.168,1.767-4.752C329.073,335.386,328.431,335.149,327.789,334.914z M341.034,335.531
					c-0.363,1.08-0.96,2.136-0.906,3.31c0.008,0.887,0.737,1.761,1.647,1.801c0.931,0.04,1.961-0.35,2.423-1.203
					c0.548-1-0.074-2.44-1.21-2.654c-0.504-0.127-0.98,0.116-1.412,0.342c0.311-0.662,0.584-1.342,0.876-2.012
					C341.974,335.237,341.51,335.4,341.034,335.531z M331.245,336.727c-0.377,0.611-0.126,1.396,0.447,1.781
					c-0.839,0.203-1.35,1.181-0.946,1.967c0.671,1.199,2.646,1.356,3.498,0.278c0.512-0.693,0.159-1.683-0.588-2.034
					c0.674-0.273,1.068-1.053,0.776-1.744C333.891,335.814,331.944,335.633,331.245,336.727z M335.336,336.391
					c0.03,0.367,0.061,0.733,0.088,1.104c0.703-0.055,1.405-0.108,2.107-0.17c-0.657,1.369-1.311,2.738-1.964,4.109
					c0.478-0.032,0.955-0.066,1.434-0.1c0.825-1.772,1.652-3.54,2.478-5.311C338.099,336.148,336.715,336.264,335.336,336.391z"/>
			</g>
			<path style="fill:#0256A2;" d="M332.39,337.076c0.291-0.234,0.806-0.178,0.926,0.215c0.198,0.434-0.306,0.94-0.737,0.721
				C332.202,337.897,332.127,337.348,332.39,337.076z"/>
		</g>
		<g>
			<g>
				<path style="fill:#FFFFFF;" d="M323.145,263.333c6.013-2.411,12.706-3.064,19.078-1.917c6.695,1.187,13,4.415,17.898,9.125
					c4.66,4.45,8.051,10.214,9.645,16.458c1.423,5.581,1.467,11.516,0.135,17.115c-0.711,2.888-1.875,5.649-3.357,8.224
					c2.14,0.857,4.144,2.209,5.5,4.098c1.008,1.408,1.512,3.251,1.038,4.949c-0.546,2.195-2.201,3.951-4.114,5.07
					c-2.632,1.556-5.686,2.143-8.682,2.512c-2.993,0.357-6.06,0.53-9.032-0.084c-1.304,1.525-3.116,2.508-4.959,3.234
					c-4.367,1.65-9.123,1.918-13.746,1.687c-2.981-0.194-5.979-0.706-8.746-1.869c-1.653-0.703-3.245-1.657-4.405-3.05
					c-2.876,0.576-5.851,0.497-8.741,0.05c-3.605-0.569-7.26-1.673-10.139-3.999c-1.809-1.444-3.094-3.61-3.19-5.951
					c0.019-1.43,0.855-2.705,1.899-3.62c1.691-1.48,3.812-2.331,5.917-3.032c-3.054-5.539-4.158-11.979-3.895-18.249
					c0.281-6.563,2.489-13.025,6.276-18.391C311.39,270.178,316.884,265.819,323.145,263.333z M324.285,265.317
					c-6.185,2.385-11.594,6.713-15.302,12.207c-3.616,5.318-5.602,11.729-5.61,18.165c-0.057,5.818,1.496,11.638,4.431,16.664
					c1.422,0.037,2.844-0.051,4.267,0.027c0.741,0.698,0.554,1.853,0.896,2.748c0.88,2.445,2.208,4.692,3.385,7.004
					c0.528,1.045,1.54,1.729,2.536,2.285c1.923,1.027,4.037,1.627,6.158,2.096c4.312,0.91,8.744,1.174,13.146,1.051
					c3.664-0.142,7.336-0.547,10.882-1.506c1.682-0.471,3.357-1.051,4.852-1.973c0.758-0.488,1.514-1.07,1.929-1.894
					c1.084-2.257,2.381-4.413,3.3-6.748c0.422-0.999,0.287-2.175,0.938-3.087c1.448-0.02,2.897,0.016,4.347-0.004
					c3.69-6.294,5.154-13.841,4.122-21.062c-0.881-6.402-3.739-12.507-8.062-17.303c-4.217-4.71-9.823-8.161-15.935-9.774
					C337.912,262.44,330.702,262.819,324.285,265.317z"/>
			</g>
			<g>
				<path style="fill:#FFFFFF;" d="M333.877,268.341c5.832-0.49,11.809,0.938,16.781,4.028c5.328,3.275,9.491,8.401,11.575,14.3
					c2.008,5.613,2.126,11.877,0.337,17.563c-0.8,2.699-2.152,5.187-3.679,7.539c-0.767,1.101-1.051,2.478-1.979,3.47
					c-1.223,1.384-2.89,2.267-4.531,3.054c-4.478,1.934-9.411,2.365-14.228,2.645c-5.14,0.171-10.318-0.375-15.29-1.701
					c-2.76-0.809-5.645-1.861-7.603-4.071c-0.897-1.001-1.181-2.365-1.948-3.453c-3.161-4.634-4.946-10.222-4.888-15.844
					c-0.024-6.646,2.498-13.249,6.905-18.219C320,272.308,326.793,268.875,333.877,268.341z M324.158,273.401
					c0.647,0.891,1.667,1.379,2.602,1.905c1.249-0.803,2.774-1.253,4.257-0.943c-3.168,0.775-5.811,2.899-7.943,5.287
					c0.499,0.734,1.44,0.777,2.243,0.812c0.98-1.042,1.974-2.084,3.118-2.95c0.348-0.223,0.727-0.564,1.175-0.433
					c-0.254,0.457-0.733,0.745-1.036,1.172c-1.396,1.773-2.326,3.861-3.096,5.968c0.938,0.223,1.903,0.24,2.863,0.257
					c0.101-3.247,2.09-6.181,4.714-7.977c0.681-0.318,0.464-1.177,0.607-1.782c0.426-0.249,0.982-0.365,1.371,0.024
					c0.562,0.348,0.384,1.153,0.04,1.592c-0.32,0.386-0.855,0.294-1.293,0.258c-1.217,0.708-2.142,1.838-2.729,3.108
					c-0.905,2.024-1.339,4.369-0.745,6.541c0.775,2.653,2.596,4.873,4.665,6.648c0.837,0.775,1.647,1.616,2.207,2.618
					c0.137,0.718,0.153,1.794-0.666,2.11c-0.819,0.266-1.427-0.434-2.028-0.857c-2.449-1.767-5.275-3.232-8.339-3.423
					c-2.144-0.02-4.349,0.588-6.038,1.948c-2.176,1.755-3.369,4.509-3.652,7.246c-0.018,2.568,0.512,5.273,2.1,7.354
					c1.373,1.812,3.596,2.887,5.855,2.984c-1.819-1.641-3.478-3.575-4.273-5.928c-0.945-2.666-0.609-5.747,0.864-8.156
					c1.279-1.586,3.303-2.545,5.341-2.554c2.274-0.036,4.471,0.843,6.35,2.074c-0.186,0.289-0.468,0.751-0.879,0.55
					c-2.108-0.98-4.528-1.855-6.857-1.153c-1.891,0.566-3.12,2.357-3.612,4.192c-0.521,1.491-0.004,3.075,0.518,4.491
					c1.19,2.844,3.242,5.305,5.676,7.17c1.303,0.118,2.679,0.004,3.859-0.61c-2.026-1.341-3.953-2.909-5.347-4.921
					c-1.19-1.713-1.992-3.791-1.833-5.902c0.022-1.087,1.063-1.786,1.983-2.125c1.886-0.588,3.945-0.195,5.753,0.48
					c-0.001,0.107-0.004,0.324-0.006,0.434c-1.442-0.26-2.992-0.545-4.395,0.03c-1.085,0.423-1.775,1.649-1.555,2.796
					c0.239,1.344,0.838,2.607,1.637,3.709c1.716,2.301,4.131,4.034,6.74,5.186c1.251,0.068,2.393-0.618,3.407-1.275
					c-2.892-1.24-5.654-2.939-7.726-5.34c-0.556-0.635-1.05-1.424-1.018-2.297c0.056-0.639,0.768-0.875,1.315-0.85
					c0.792-0.074,1.45,0.43,2.167,0.671c1.54,0.569,3.335,0.71,4.838-0.045c1.65-0.816,2.738-2.436,3.359-4.124
					c0.176,0.051,0.529,0.151,0.706,0.201c-0.492,1.833-1.654,3.535-3.381,4.395c-2.302,1.193-5.007,1.033-7.479,0.565
					c1.021,1.4,2.473,2.393,3.809,3.466c1.966-0.05,3.964-0.55,5.586-1.694c2.23-1.543,3.545-4.098,4.072-6.706
					c0.127-0.015,0.383-0.04,0.512-0.054c-0.013,1.67-0.458,3.349-1.399,4.738c-1.511,2.27-3.922,3.775-6.43,4.738
					c0.813,0.773,1.875,1.183,2.883,1.628c4.11-2.006,7.544-5.877,8.08-10.535c0.325-0.006,0.651-0.001,0.978,0
					c-0.325,4.108-2.987,7.724-6.411,9.871c-0.403,0.257-0.89,0.472-1.078,0.947c-0.589,1.247-0.628,2.651-0.811,3.993
					c-0.171,1.1-0.287,2.207-0.4,3.312c0.642-0.037,1.287-0.078,1.932-0.116c0.156-1.743,0.544-3.453,0.916-5.161
					c0.308-1.101,1.19-2,2.261-2.379c2.57-1.019,4.945-2.58,6.78-4.658c1.99-2.241,3.337-5.049,3.84-8.001
					c0.336-1.87-0.029-3.805-0.753-5.542c-1.108-2.626-3.078-4.81-5.349-6.494c-2.263-1.574-4.919-2.513-7.611-3.033
					c-1.215-0.183-2.391-0.532-3.57-0.868c-0.922-0.246-1.655-1.04-1.852-1.969c-0.249-1.241,0.573-2.488,1.673-3.012
					c0.897-0.06,1.817,0.108,2.693-0.177c-1.964-2.435-4.845-4.132-7.942-4.614C330.003,271.738,326.913,272.218,324.158,273.401z
					 M337.348,279.532c1.067,0.026,2.229,0.01,3.128-0.648c-0.689-0.506-1.48-0.879-2.337-0.977
					C337.812,278.417,337.543,278.96,337.348,279.532z"/>
			</g>
			<path style="fill:#FFFFFF;" d="M301.677,332.645c0.32,0.537,0.673,1.069,1.211,1.41c-0.551-0.253-0.954-0.715-1.201-1.268
				l-0.064,0.629C301.643,333.159,301.661,332.902,301.677,332.645z"/>
			<path style="fill:#FFFFFF;" d="M327.789,334.914c0.642,0.235,1.285,0.472,1.927,0.709c-0.586,1.584-1.176,3.168-1.767,4.752
				c-0.409-0.156-0.818-0.31-1.229-0.465c0.452-1.24,0.9-2.48,1.349-3.719c-0.169-0.053-0.504-0.158-0.672-0.211
				C327.527,335.623,327.658,335.27,327.789,334.914z"/>
			<g>
				<path style="fill:#FFFFFF;" d="M341.034,335.531c0.476-0.131,0.939-0.294,1.418-0.416c-0.292,0.67-0.565,1.35-0.876,2.012
					c0.432-0.226,0.908-0.469,1.412-0.342c1.136,0.215,1.759,1.654,1.21,2.654c-0.462,0.853-1.492,1.243-2.423,1.203
					c-0.91-0.04-1.639-0.914-1.647-1.801C340.074,337.667,340.671,336.611,341.034,335.531z M341.887,337.977
					c-0.474,0.202-0.67,0.895-0.295,1.278c0.357,0.496,1.203,0.366,1.4-0.211C343.295,338.404,342.522,337.604,341.887,337.977z"/>
			</g>
			<g>
				<path style="fill:#FFFFFF;" d="M331.245,336.727c0.7-1.094,2.646-0.913,3.188,0.248c0.292,0.691-0.102,1.471-0.776,1.744
					c0.747,0.352,1.1,1.341,0.588,2.034c-0.852,1.078-2.827,0.921-3.498-0.278c-0.404-0.786,0.107-1.764,0.946-1.967
					C331.119,338.123,330.867,337.338,331.245,336.727z M332.39,337.076c-0.263,0.271-0.188,0.82,0.189,0.935
					c0.431,0.219,0.935-0.287,0.737-0.721C333.196,336.898,332.681,336.842,332.39,337.076z M332.444,339.137
					c-0.787,0.147-0.531,1.432,0.235,1.24C333.45,340.257,333.197,338.938,332.444,339.137z"/>
			</g>
			<path style="fill:#FFFFFF;" d="M335.336,336.391c1.379-0.127,2.763-0.242,4.142-0.367c-0.825,1.771-1.652,3.539-2.478,5.311
				c-0.478,0.033-0.956,0.067-1.434,0.1c0.653-1.371,1.307-2.74,1.964-4.109c-0.701,0.062-1.404,0.115-2.107,0.17
				C335.396,337.124,335.366,336.758,335.336,336.391z"/>
		</g>
		<g>
			<g>
				<path style="fill:#FAA71B;" d="M324.285,265.317c6.417-2.498,13.626-2.877,20.279-1.104c6.112,1.613,11.718,5.064,15.935,9.774
					c4.324,4.796,7.182,10.901,8.062,17.303c1.032,7.221-0.432,14.768-4.122,21.062c-1.449,0.02-2.899-0.016-4.347,0.004
					c-0.651,0.912-0.516,2.088-0.938,3.087c-0.919,2.335-2.216,4.491-3.3,6.748c-0.416,0.823-1.171,1.405-1.929,1.894
					c-1.495,0.922-3.169,1.502-4.852,1.973c-3.545,0.959-7.218,1.364-10.882,1.506c-4.401,0.123-8.833-0.141-13.146-1.051
					c-2.121-0.469-4.235-1.068-6.158-2.096c-0.996-0.557-2.008-1.24-2.536-2.285c-1.177-2.312-2.504-4.559-3.385-7.004
					c-0.342-0.896-0.155-2.05-0.896-2.748c-1.422-0.078-2.844,0.01-4.267-0.027c-2.936-5.025-4.488-10.846-4.431-16.664
					c0.008-6.436,1.994-12.846,5.61-18.165C312.691,272.03,318.1,267.702,324.285,265.317z M333.877,268.341
					c-7.084,0.534-13.877,3.967-18.547,9.311c-4.407,4.969-6.93,11.573-6.905,18.219c-0.058,5.622,1.727,11.21,4.888,15.844
					c0.767,1.088,1.05,2.452,1.948,3.453c1.958,2.21,4.842,3.263,7.603,4.071c4.972,1.326,10.15,1.872,15.29,1.701
					c4.817-0.279,9.75-0.711,14.228-2.645c1.642-0.787,3.309-1.67,4.531-3.054c0.928-0.991,1.213-2.369,1.979-3.47
					c1.526-2.353,2.878-4.84,3.679-7.539c1.789-5.686,1.671-11.95-0.337-17.563c-2.085-5.899-6.247-11.025-11.575-14.3
					C345.686,269.278,339.709,267.851,333.877,268.341z"/>
			</g>
		</g>
		<g>
			<path style="fill:#E12228;" d="M324.158,273.401c2.755-1.183,5.845-1.663,8.816-1.189c3.097,0.482,5.978,2.179,7.942,4.614
				c-0.876,0.285-1.796,0.116-2.693,0.177c-1.1,0.523-1.922,1.771-1.673,3.012c0.197,0.929,0.93,1.723,1.852,1.969
				c1.179,0.336,2.355,0.686,3.57,0.868c2.692,0.52,5.348,1.459,7.611,3.033c2.271,1.683,4.241,3.868,5.349,6.494
				c0.723,1.737,1.089,3.672,0.753,5.542c-0.503,2.953-1.851,5.76-3.84,8.001c-1.835,2.078-4.21,3.64-6.78,4.658
				c-1.071,0.379-1.953,1.278-2.261,2.379c-0.371,1.708-0.759,3.418-0.916,5.161c-0.644,0.038-1.289,0.079-1.932,0.116
				c0.113-1.105,0.229-2.213,0.4-3.312c0.183-1.342,0.223-2.746,0.811-3.993c0.188-0.476,0.674-0.69,1.078-0.947
				c3.424-2.147,6.086-5.763,6.411-9.871c-0.327-0.001-0.653-0.006-0.978,0c-0.536,4.658-3.969,8.529-8.08,10.535
				c-1.007-0.445-2.069-0.854-2.883-1.628c2.508-0.963,4.919-2.468,6.43-4.738c0.941-1.39,1.386-3.068,1.399-4.738
				c-0.129,0.014-0.385,0.039-0.512,0.054c-0.526,2.608-1.841,5.163-4.072,6.706c-1.622,1.145-3.62,1.645-5.586,1.694
				c-1.335-1.072-2.787-2.065-3.809-3.466c2.472,0.469,5.177,0.629,7.479-0.565c1.727-0.859,2.889-2.561,3.381-4.395
				c-0.177-0.05-0.53-0.15-0.706-0.201c-0.621,1.688-1.709,3.308-3.359,4.124c-1.504,0.755-3.299,0.614-4.838,0.045
				c-0.717-0.241-1.375-0.745-2.167-0.671c-0.547-0.025-1.259,0.211-1.315,0.85c-0.032,0.873,0.462,1.662,1.018,2.297
				c2.072,2.401,4.835,4.1,7.726,5.34c-1.014,0.657-2.157,1.344-3.407,1.275c-2.609-1.151-5.024-2.885-6.74-5.186
				c-0.799-1.103-1.397-2.365-1.637-3.709c-0.221-1.146,0.47-2.373,1.555-2.796c1.403-0.575,2.953-0.29,4.395-0.03
				c0.001-0.109,0.004-0.326,0.006-0.434c-1.807-0.676-3.867-1.068-5.753-0.48c-0.92,0.339-1.961,1.038-1.983,2.125
				c-0.159,2.111,0.643,4.189,1.833,5.902c1.393,2.012,3.32,3.58,5.347,4.921c-1.18,0.614-2.556,0.729-3.859,0.61
				c-2.434-1.865-4.486-4.326-5.676-7.17c-0.523-1.416-1.039-3-0.518-4.491c0.492-1.835,1.721-3.626,3.612-4.192
				c2.329-0.703,4.749,0.173,6.857,1.153c0.412,0.201,0.693-0.262,0.879-0.55c-1.879-1.231-4.076-2.11-6.35-2.074
				c-2.038,0.008-4.062,0.967-5.341,2.554c-1.473,2.409-1.809,5.49-0.864,8.156c0.795,2.352,2.454,4.287,4.273,5.928
				c-2.258-0.098-4.481-1.172-5.855-2.984c-1.588-2.08-2.118-4.785-2.1-7.354c0.283-2.736,1.476-5.491,3.652-7.246
				c1.689-1.359,3.894-1.968,6.038-1.948c3.064,0.191,5.89,1.657,8.339,3.423c0.6,0.424,1.209,1.123,2.028,0.857
				c0.819-0.315,0.803-1.392,0.666-2.11c-0.56-1.002-1.371-1.843-2.207-2.618c-2.069-1.775-3.89-3.996-4.665-6.648
				c-0.594-2.172-0.16-4.517,0.745-6.541c0.587-1.27,1.512-2.4,2.729-3.108c0.438,0.036,0.973,0.128,1.293-0.258
				c0.344-0.439,0.522-1.244-0.04-1.592c-0.39-0.389-0.945-0.273-1.371-0.024c-0.143,0.605,0.074,1.464-0.607,1.782
				c-2.624,1.796-4.614,4.73-4.714,7.977c-0.959-0.017-1.925-0.034-2.863-0.257c0.771-2.107,1.7-4.195,3.096-5.968
				c0.303-0.427,0.783-0.714,1.036-1.172c-0.448-0.131-0.828,0.211-1.175,0.433c-1.144,0.866-2.138,1.908-3.118,2.95
				c-0.802-0.036-1.744-0.079-2.243-0.812c2.133-2.388,4.775-4.512,7.943-5.287c-1.482-0.31-3.008,0.14-4.257,0.943
				C325.825,274.78,324.805,274.292,324.158,273.401z"/>
			<path style="fill:#E12228;" d="M337.348,279.532c0.195-0.573,0.464-1.116,0.791-1.626c0.857,0.098,1.649,0.472,2.337,0.977
				C339.577,279.543,338.415,279.558,337.348,279.532z"/>
		</g>
		<g>
			<path style="fill:#243A73;" d="M341.887,337.977c0.635-0.372,1.408,0.428,1.105,1.067c-0.197,0.577-1.043,0.707-1.4,0.211
				C341.217,338.871,341.414,338.179,341.887,337.977z"/>
			<path style="fill:#243A73;" d="M332.444,339.137c0.753-0.199,1.006,1.12,0.235,1.24
				C331.913,340.568,331.658,339.283,332.444,339.137z"/>
		</g>
	</g>
</g>
</svg>
