<?xml version="1.0" encoding="UTF-8"?>
<svg id="Layer_2" data-name="Layer 2" xmlns="http://www.w3.org/2000/svg" viewBox="0 0 258.38 91.62">
  <defs>
    <style>
      .cls-1 {
        fill: #e12228;
      }

      .cls-2 {
        fill: #fff;
      }

      .cls-3 {
        fill: #243a73;
      }

      .cls-4 {
        fill: #0256a2;
      }

      .cls-5 {
        fill: #faa71b;
      }
    </style>
  </defs>
  <g id="Layer_1-2" data-name="Layer 1">
    <g>
      <g>
        <g>
          <path class="cls-4" d="M101.51,7.48c.95-.23,2.33-.37,3.83-.37,2.45,0,4.14.58,5.38,1.73,1.67,1.5,2.53,4.06,2.53,7.82s-1.01,6.7-2.7,8.2c-1.29,1.27-3.22,1.87-5.92,1.87-1.18,0-2.36-.11-3.11-.2V7.48h0ZM105.28,23.59c.17.06.46.06.66.06,1.81,0,3.39-1.78,3.39-7.13,0-3.97-1.04-6.39-3.31-6.39-.26,0-.52,0-.75.09v13.37Z"/>
          <path class="cls-4" d="M137.2,18.07h-4.43v5.23h5.01v3.28h-8.77V7.19h8.43v3.28h-4.66v4.46h4.43v3.14h0Z"/>
          <path class="cls-4" d="M153.7,26.58V7.19h3.45l2.99,7.59c.58,1.5,1.52,4,2.07,5.67h.06c-.11-2.04-.38-5.41-.38-8.97v-4.29h3.31v19.39h-3.45l-2.96-7.36c-.63-1.64-1.52-4.08-1.96-5.84h-.06c.09,1.96.23,4.95.23,8.83v4.37h-3.31Z"/>
          <path class="cls-4" d="M185.34,8.78c.03,1.21-.83,2.04-1.98,2.04-1.04,0-1.9-.83-1.87-2.04-.03-1.27.89-2.04,1.93-2.04,1.09,0,1.92.78,1.92,2.04ZM181.57,26.58v-14.07h3.77v14.07h-3.77Z"/>
          <path class="cls-4" d="M200.35,24.37l6.13-13.81v-.09h-5.55v-3.28h9.81v2.79l-5.87,13.23v.09h5.84v3.28h-10.36v-2.21h0Z"/>
          <path class="cls-4" d="M226.21,7.19h3.77v16.19h4.98v3.19h-8.74V7.19h0Z"/>
          <path class="cls-4" d="M253.93,8.78c.03,1.21-.83,2.04-1.98,2.04-1.03,0-1.9-.83-1.87-2.04-.03-1.27.89-2.04,1.93-2.04,1.09,0,1.93.78,1.93,2.04ZM250.16,26.58v-14.07h3.77v14.07h-3.77Z"/>
        </g>
        <g>
          <path class="cls-4" d="M101.51,67.98c1.15-.26,2.65-.37,4.29-.37,1.81,0,3.57.23,4.92,1.38,1.04.86,1.47,2.16,1.47,3.51,0,1.73-.89,3.39-2.82,4.23v.11c2.24.63,3.45,2.5,3.45,4.63,0,1.61-.52,2.85-1.44,3.8-1.15,1.27-3.11,1.95-6.36,1.95-1.44,0-2.65-.09-3.51-.2v-19.04h0ZM105.28,75.66h.81c1.35,0,2.39-1.15,2.39-2.73,0-1.41-.66-2.5-2.21-2.5-.4,0-.75.03-.98.11v5.12ZM105.28,84.26c.23.06.49.06.83.06,1.52,0,2.79-.92,2.79-2.91s-1.32-2.93-2.82-2.96h-.81v5.81h0Z"/>
          <path class="cls-4" d="M128.63,78.57h-4.43v5.23h5.01v3.28h-8.77v-19.39h8.43v3.28h-4.66v4.46h4.43v3.14Z"/>
          <path class="cls-4" d="M136.79,67.69h3.77v16.19h4.98v3.19h-8.74v-19.38h0Z"/>
          <path class="cls-4" d="M160.95,78.57h-4.43v5.23h5.01v3.28h-8.77v-19.39h8.43v3.28h-4.66v4.46h4.43v3.14h0Z"/>
          <path class="cls-4" d="M169.12,67.98c.95-.23,2.33-.37,3.83-.37,2.44,0,4.14.58,5.38,1.73,1.67,1.5,2.53,4.06,2.53,7.82s-1.01,6.7-2.7,8.2c-1.29,1.27-3.22,1.87-5.92,1.87-1.18,0-2.36-.11-3.11-.2v-19.04h0ZM172.89,84.09c.17.06.46.06.66.06,1.81,0,3.39-1.78,3.39-7.13,0-3.97-1.04-6.39-3.31-6.39-.26,0-.52,0-.75.09v13.38Z"/>
          <path class="cls-4" d="M191.9,69.28c.03,1.21-.83,2.04-1.98,2.04-1.04,0-1.9-.83-1.87-2.04-.03-1.27.89-2.04,1.93-2.04,1.09,0,1.93.78,1.93,2.04ZM188.13,87.08v-14.07h3.77v14.07h-3.77Z"/>
          <path class="cls-4" d="M202.08,87.08v-7.42l-4.26-11.96h4.03l1.32,4.63c.35,1.24.72,2.67,1.01,4.11h.06c.23-1.41.55-2.82.89-4.2l1.15-4.54h3.91l-4.34,11.82v7.56h-3.77Z"/>
          <path class="cls-4" d="M224.71,78.57h-4.43v5.23h5.01v3.28h-8.77v-19.39h8.43v3.28h-4.66v4.46h4.43v3.14h0Z"/>
          <path class="cls-4" d="M232.44,83.22c.78.43,2.1.75,3.19.75,1.78,0,2.65-.92,2.65-2.19,0-1.41-.86-2.1-2.5-3.16-2.65-1.61-3.65-3.65-3.65-5.41,0-3.11,2.07-5.69,6.13-5.69,1.27,0,2.47.35,3.05.69l-.6,3.25c-.55-.35-1.38-.66-2.47-.66-1.61,0-2.39.98-2.39,2.01,0,1.15.58,1.76,2.67,3.02,2.56,1.55,3.51,3.51,3.51,5.55,0,3.54-2.62,5.87-6.41,5.87-1.55,0-3.08-.4-3.71-.78l.55-3.25Z"/>
          <path class="cls-4" d="M252.89,69.28c.03,1.21-.83,2.04-1.98,2.04-1.04,0-1.9-.83-1.87-2.04-.03-1.27.89-2.04,1.93-2.04,1.09,0,1.93.78,1.93,2.04ZM249.13,87.08v-14.07h3.77v14.07h-3.77Z"/>
        </g>
        <g>
          <path class="cls-4" d="M101.76,35.24c1.32-.3,3.04-.43,4.92-.43,2.08,0,4.1.26,5.65,1.58,1.19.99,1.68,2.48,1.68,4.03,0,1.98-1.02,3.9-3.24,4.86v.13c2.58.73,3.96,2.87,3.96,5.32,0,1.85-.6,3.27-1.65,4.36-1.32,1.45-3.57,2.25-7.3,2.25-1.65,0-3.04-.1-4.03-.23v-21.87h0ZM106.08,44.06h.92c1.55,0,2.74-1.32,2.74-3.14,0-1.62-.76-2.87-2.54-2.87-.46,0-.86.03-1.12.13v5.88ZM106.08,53.94c.26.07.56.07.96.07,1.75,0,3.2-1.06,3.2-3.34s-1.52-3.37-3.24-3.4h-.92v6.67Z"/>
          <path class="cls-4" d="M123.55,34.91v14.47c0,3.27.99,4.26,2.11,4.26,1.26,0,2.15-.89,2.15-4.26v-14.47h4.33v13.71c0,5.72-2.15,8.82-6.44,8.82-4.66,0-6.48-3.2-6.48-8.79v-13.74h4.33ZM120.68,31.48c0-1.19.92-2.11,1.95-2.11s1.95.92,1.95,2.11-.89,2.11-1.95,2.11c-1.06,0-1.95-.92-1.95-2.11ZM126.73,31.48c0-1.19.92-2.11,1.98-2.11s1.95.92,1.95,2.11-.89,2.11-1.95,2.11c-1.09,0-1.98-.92-1.98-2.11Z"/>
          <path class="cls-4" d="M140,57.18v-8.52l-4.89-13.74h4.62l1.52,5.32c.4,1.42.83,3.07,1.16,4.72h.07c.27-1.62.63-3.24,1.02-4.82l1.32-5.22h4.49l-4.99,13.58v8.69h-4.33Z"/>
          <path class="cls-4" d="M156.65,34.91v14.47c0,3.27.99,4.26,2.11,4.26,1.26,0,2.15-.89,2.15-4.26v-14.47h4.33v13.71c0,5.72-2.15,8.82-6.44,8.82-4.66,0-6.48-3.2-6.48-8.79v-13.74h4.33ZM153.77,31.48c0-1.19.93-2.11,1.95-2.11s1.95.92,1.95,2.11-.89,2.11-1.95,2.11c-1.06,0-1.95-.92-1.95-2.11ZM159.82,31.48c0-1.19.93-2.11,1.98-2.11s1.95.92,1.95,2.11-.89,2.11-1.95,2.11c-1.09,0-1.98-.92-1.98-2.11Z"/>
          <path class="cls-4" d="M170.62,34.91h4.33v10.01h.07c.36-.92.73-1.92,1.09-2.88l2.97-7.14h4.76l-4.99,9.68,5.05,12.59h-4.73l-3.24-9.22-.99,1.82v7.4h-4.33v-22.26h0Z"/>
          <path class="cls-4" d="M186.94,52.75c.89.49,2.41.86,3.67.86,2.05,0,3.04-1.06,3.04-2.51,0-1.62-.99-2.41-2.87-3.63-3.04-1.85-4.2-4.2-4.2-6.21,0-3.57,2.38-6.54,7.04-6.54,1.45,0,2.84.4,3.5.79l-.69,3.73c-.63-.4-1.59-.76-2.84-.76-1.85,0-2.74,1.12-2.74,2.31,0,1.32.66,2.02,3.07,3.47,2.94,1.78,4.03,4.03,4.03,6.38,0,3.2-1.88,5.58-4.82,6.41l-.79,1.59c1.16.2,2.21,1.09,2.21,2.41,0,2.11-1.78,2.88-3.63,2.88-.89,0-1.88-.27-2.51-.6l.63-1.85c.56.27,1.19.46,1.75.46.53,0,1.06-.23,1.06-.83,0-.66-.83-1.09-2.25-1.22l1.09-2.51h-.1c-1.78,0-3.53-.46-4.26-.89l.63-3.73Z"/>
          <path class="cls-4" d="M211.51,47.4h-5.09v6.01h5.75v3.77h-10.08v-22.26h9.68v3.77h-5.35v5.12h5.09v3.6Z"/>
          <path class="cls-4" d="M221.09,34.91v8.92h4.53v-8.92h4.33v22.27h-4.33v-9.32h-4.53v9.32h-4.33v-22.27h4.33Z"/>
          <path class="cls-4" d="M239.75,34.91v22.27h-4.33v-22.27h4.33ZM235.55,31.44c0-1.16.96-2.11,2.05-2.11,1.16,0,2.08.96,2.08,2.11s-.93,2.11-2.08,2.11-2.05-.96-2.05-2.11Z"/>
          <path class="cls-4" d="M245.26,35.24c1.35-.26,3.07-.43,4.72-.43,2.38,0,4.49.33,5.95,1.65,1.35,1.22,1.75,2.71,1.75,4.62,0,2.38-1.16,4.53-3.44,5.58v.07c1.52.59,2.28,2.02,2.71,4.39.43,2.48,1.03,5.22,1.42,6.05h-4.53c-.27-.63-.76-2.87-1.09-5.32-.4-2.77-1.09-3.57-2.54-3.57h-.63v8.89h-4.33v-21.94h0ZM249.59,44.96h.76c1.88,0,2.97-1.52,2.97-3.47s-.76-3.24-2.71-3.3c-.36,0-.79.03-1.02.13v6.64h0Z"/>
        </g>
      </g>
      <g>
        <g>
          <path class="cls-4" d="M43.18,0h1.85c1.85.14,3.71.2,5.54.5,7.77,1.12,15.22,4.39,21.32,9.33,4.88,3.96,8.93,8.95,11.74,14.57,4.96,9.8,6,21.48,2.94,32.02-.93,3.31-2.33,6.48-3.97,9.5.15,1.47.18,1.62-.13,4.13-1.46,5.62-2.88,7.52-5.48,11.15-.39.47-.86.86-1.37,1.2-5.22,2.84-11.27,3.52-17.12,3.63-.98,1.36-2.33,2.43-3.83,3.16-3.25,1.6-6.9,2.18-10.48,2.35-2.21.18-4.44,0-6.61-.41-3.54-.69-7.01-2.31-9.37-5.1-2.52-.05-5.05-.15-7.56-.47-3.38-.45-6.8-1.23-9.75-3.03-.54-.34-.89-.87-1.21-1.41-1.52-3.17-3.24-6.23-4.65-9.45-1.17-2.28-.94-5.02-.19-7.4C.92,56.64-.7,47.83.28,39.29c.87-8.04,4.03-15.81,9.01-22.19C14.79,9.99,22.53,4.62,31.14,1.98c3.9-1.23,7.97-1.8,12.04-1.98ZM31.15,11.82c-6.26,2.49-11.75,6.85-15.62,12.36-3.79,5.37-5.99,11.83-6.28,18.39-.26,6.27.84,12.71,3.89,18.25-2.11.7-4.23,1.55-5.92,3.03-1.04.92-1.88,2.19-1.9,3.62.1,2.34,1.38,4.51,3.19,5.95,2.88,2.33,6.53,3.43,10.14,4,2.89.45,5.86.53,8.74-.05,1.16,1.39,2.75,2.35,4.4,3.05,2.77,1.16,5.76,1.67,8.75,1.87,4.62.23,9.38-.04,13.75-1.69,1.84-.73,3.65-1.71,4.96-3.23,2.97.61,6.04.44,9.03.08,3-.37,6.05-.96,8.68-2.51,1.91-1.12,3.57-2.88,4.11-5.07.47-1.7-.03-3.54-1.04-4.95-1.36-1.89-3.36-3.24-5.5-4.1,1.48-2.57,2.65-5.34,3.36-8.22,1.33-5.6,1.29-11.54-.14-17.11-1.59-6.24-4.98-12.01-9.64-16.46-4.9-4.71-11.2-7.94-17.9-9.12-6.37-1.14-13.07-.49-19.08,1.92ZM35.79,83.4c-.13.36-.26.71-.39,1.07.17.05.5.16.67.21-.45,1.24-.9,2.48-1.35,3.72.41.15.82.31,1.23.46.59-1.58,1.18-3.17,1.77-4.75-.64-.24-1.29-.47-1.93-.71ZM49.04,84.02c-.36,1.08-.96,2.14-.91,3.31,0,.89.74,1.76,1.65,1.8.93.04,1.96-.35,2.42-1.2.55-1-.07-2.44-1.21-2.65-.5-.13-.98.12-1.41.34.31-.66.58-1.34.88-2.01-.48.12-.94.28-1.42.42ZM39.25,85.22c-.38.61-.13,1.4.45,1.78-.84.2-1.35,1.18-.95,1.97.67,1.2,2.65,1.36,3.5.28.51-.69.16-1.68-.59-2.03.67-.27,1.07-1.05.78-1.74-.54-1.16-2.49-1.34-3.19-.25ZM43.34,84.88c.03.37.06.73.09,1.1.7-.05,1.4-.11,2.11-.17-.66,1.37-1.31,2.74-1.96,4.11.48-.03.95-.07,1.43-.1.83-1.77,1.65-3.54,2.48-5.31-1.38.13-2.76.24-4.14.37Z"/>
          <path class="cls-4" d="M40.39,85.56c.29-.23.81-.18.93.21.2.43-.31.94-.74.72-.38-.11-.45-.66-.19-.94Z"/>
        </g>
        <g>
          <path class="cls-2" d="M31.15,11.82c6.01-2.41,12.71-3.06,19.08-1.92,6.7,1.19,13,4.42,17.9,9.12,4.66,4.45,8.05,10.21,9.64,16.46,1.42,5.58,1.47,11.52.14,17.11-.71,2.89-1.88,5.65-3.36,8.22,2.14.86,4.14,2.21,5.5,4.1,1.01,1.41,1.51,3.25,1.04,4.95-.55,2.2-2.2,3.95-4.11,5.07-2.63,1.56-5.69,2.14-8.68,2.51-2.99.36-6.06.53-9.03-.08-1.3,1.52-3.12,2.51-4.96,3.23-4.37,1.65-9.12,1.92-13.75,1.69-2.98-.19-5.98-.71-8.75-1.87-1.65-.7-3.24-1.66-4.4-3.05-2.88.58-5.85.5-8.74.05-3.61-.57-7.26-1.67-10.14-4-1.81-1.44-3.09-3.61-3.19-5.95.02-1.43.86-2.7,1.9-3.62,1.69-1.48,3.81-2.33,5.92-3.03-3.05-5.54-4.16-11.98-3.89-18.25.28-6.56,2.49-13.02,6.28-18.39,3.87-5.52,9.36-9.87,15.62-12.36ZM32.29,13.81c-6.18,2.39-11.59,6.71-15.3,12.21-3.62,5.32-5.6,11.73-5.61,18.17-.06,5.82,1.5,11.64,4.43,16.66,1.42.04,2.84-.05,4.27.03.74.7.55,1.85.9,2.75.88,2.45,2.21,4.69,3.39,7,.53,1.05,1.54,1.73,2.54,2.29,1.92,1.03,4.04,1.63,6.16,2.1,4.31.91,8.74,1.17,13.15,1.05,3.66-.14,7.34-.55,10.88-1.51,1.68-.47,3.36-1.05,4.85-1.97.76-.49,1.51-1.07,1.93-1.89,1.08-2.26,2.38-4.41,3.3-6.75.42-1,.29-2.17.94-3.09,1.45-.02,2.9.02,4.35,0,3.69-6.29,5.15-13.84,4.12-21.06-.88-6.4-3.74-12.51-8.06-17.3-4.22-4.71-9.82-8.16-15.93-9.77-6.65-1.77-13.86-1.39-20.28,1.1Z"/>
          <path class="cls-2" d="M41.88,16.83c5.83-.49,11.81.94,16.78,4.03,5.33,3.27,9.49,8.4,11.58,14.3,2.01,5.61,2.13,11.88.34,17.56-.8,2.7-2.15,5.19-3.68,7.54-.77,1.1-1.05,2.48-1.98,3.47-1.22,1.38-2.89,2.27-4.53,3.05-4.48,1.93-9.41,2.36-14.23,2.64-5.14.17-10.32-.38-15.29-1.7-2.76-.81-5.64-1.86-7.6-4.07-.9-1-1.18-2.36-1.95-3.45-3.16-4.63-4.95-10.22-4.89-15.84-.02-6.65,2.5-13.25,6.9-18.22,4.67-5.34,11.46-8.78,18.55-9.31ZM32.16,21.89c.65.89,1.67,1.38,2.6,1.9,1.25-.8,2.77-1.25,4.26-.94-3.17.77-5.81,2.9-7.94,5.29.5.73,1.44.78,2.24.81.98-1.04,1.97-2.08,3.12-2.95.35-.22.73-.56,1.17-.43-.25.46-.73.74-1.04,1.17-1.4,1.77-2.33,3.86-3.1,5.97.94.22,1.9.24,2.86.26.1-3.25,2.09-6.18,4.71-7.98.68-.32.46-1.18.61-1.78.43-.25.98-.36,1.37.02.56.35.38,1.15.04,1.59-.32.39-.86.29-1.29.26-1.22.71-2.14,1.84-2.73,3.11-.9,2.02-1.34,4.37-.74,6.54.77,2.65,2.6,4.87,4.67,6.65.84.77,1.65,1.62,2.21,2.62.14.72.15,1.79-.67,2.11-.82.27-1.43-.43-2.03-.86-2.45-1.77-5.27-3.23-8.34-3.42-2.14-.02-4.35.59-6.04,1.95-2.18,1.76-3.37,4.51-3.65,7.25-.02,2.57.51,5.27,2.1,7.35,1.37,1.81,3.6,2.89,5.86,2.98-1.82-1.64-3.48-3.58-4.27-5.93-.95-2.67-.61-5.75.86-8.16,1.28-1.59,3.3-2.55,5.34-2.55,2.27-.04,4.47.84,6.35,2.07-.19.29-.47.75-.88.55-2.11-.98-4.53-1.86-6.86-1.15-1.89.57-3.12,2.36-3.61,4.19-.52,1.49,0,3.08.52,4.49,1.19,2.84,3.24,5.3,5.68,7.17,1.3.12,2.68,0,3.86-.61-2.03-1.34-3.95-2.91-5.35-4.92-1.19-1.71-1.99-3.79-1.83-5.9.02-1.09,1.06-1.79,1.98-2.12,1.89-.59,3.95-.2,5.75.48,0,.11,0,.32,0,.43-1.44-.26-2.99-.55-4.39.03-1.08.42-1.77,1.65-1.55,2.8.24,1.34.84,2.61,1.64,3.71,1.72,2.3,4.13,4.03,6.74,5.19,1.25.07,2.39-.62,3.41-1.27-2.89-1.24-5.65-2.94-7.73-5.34-.56-.64-1.05-1.42-1.02-2.3.06-.64.77-.88,1.32-.85.79-.07,1.45.43,2.17.67,1.54.57,3.33.71,4.84-.05,1.65-.82,2.74-2.44,3.36-4.12.18.05.53.15.71.2-.49,1.83-1.65,3.54-3.38,4.39-2.3,1.19-5.01,1.03-7.48.57,1.02,1.4,2.47,2.39,3.81,3.47,1.97-.05,3.96-.55,5.59-1.69,2.23-1.54,3.55-4.1,4.07-6.71.13-.02.38-.04.51-.05-.01,1.67-.46,3.35-1.4,4.74-1.51,2.27-3.92,3.77-6.43,4.74.81.77,1.88,1.18,2.88,1.63,4.11-2.01,7.54-5.88,8.08-10.54.33,0,.65,0,.98,0-.33,4.11-2.99,7.72-6.41,9.87-.4.26-.89.47-1.08.95-.59,1.25-.63,2.65-.81,3.99-.17,1.1-.29,2.21-.4,3.31.64-.04,1.29-.08,1.93-.12.16-1.74.54-3.45.92-5.16.31-1.1,1.19-2,2.26-2.38,2.57-1.02,4.95-2.58,6.78-4.66,1.99-2.24,3.34-5.05,3.84-8,.34-1.87-.03-3.8-.75-5.54-1.11-2.63-3.08-4.81-5.35-6.49-2.26-1.57-4.92-2.51-7.61-3.03-1.21-.18-2.39-.53-3.57-.87-.92-.25-1.65-1.04-1.85-1.97-.25-1.24.57-2.49,1.67-3.01.9-.06,1.82.11,2.69-.18-1.96-2.43-4.85-4.13-7.94-4.61-2.97-.47-6.06,0-8.81,1.19ZM45.35,28.02c1.07.03,2.23.01,3.13-.65-.69-.51-1.48-.88-2.34-.98-.33.51-.6,1.05-.79,1.62Z"/>
          <path class="cls-2" d="M9.68,81.13c.32.54.67,1.07,1.21,1.41-.55-.25-.95-.71-1.2-1.27l-.06.63c.02-.26.04-.51.05-.77Z"/>
          <path class="cls-2" d="M35.79,83.4c.64.23,1.29.47,1.93.71-.59,1.58-1.18,3.17-1.77,4.75-.41-.16-.82-.31-1.23-.46.45-1.24.9-2.48,1.35-3.72-.17-.05-.5-.16-.67-.21.13-.36.26-.71.39-1.07Z"/>
          <path class="cls-2" d="M49.04,84.02c.48-.13.94-.29,1.42-.42-.29.67-.57,1.35-.88,2.01.43-.23.91-.47,1.41-.34,1.14.21,1.76,1.65,1.21,2.65-.46.85-1.49,1.24-2.42,1.2-.91-.04-1.64-.91-1.65-1.8-.05-1.17.54-2.23.91-3.31ZM49.89,86.47c-.47.2-.67.89-.3,1.28.36.5,1.2.37,1.4-.21.3-.64-.47-1.44-1.1-1.07Z"/>
          <path class="cls-2" d="M39.25,85.22c.7-1.09,2.65-.91,3.19.25.29.69-.1,1.47-.78,1.74.75.35,1.1,1.34.59,2.03-.85,1.08-2.83.92-3.5-.28-.4-.79.11-1.76.95-1.97-.57-.38-.83-1.17-.45-1.78ZM40.39,85.56c-.26.27-.19.82.19.93.43.22.93-.29.74-.72-.12-.39-.64-.45-.93-.21ZM40.45,87.63c-.79.15-.53,1.43.23,1.24.77-.12.52-1.44-.23-1.24Z"/>
          <path class="cls-2" d="M43.34,84.88c1.38-.13,2.76-.24,4.14-.37-.83,1.77-1.65,3.54-2.48,5.31-.48.03-.96.07-1.43.1.65-1.37,1.31-2.74,1.96-4.11-.7.06-1.4.11-2.11.17-.03-.37-.06-.74-.09-1.11Z"/>
        </g>
        <path class="cls-5" d="M32.29,13.81c6.42-2.5,13.63-2.88,20.28-1.1,6.11,1.61,11.72,5.06,15.93,9.77,4.32,4.8,7.18,10.9,8.06,17.3,1.03,7.22-.43,14.77-4.12,21.06-1.45.02-2.9-.02-4.35,0-.65.91-.52,2.09-.94,3.09-.92,2.33-2.22,4.49-3.3,6.75-.42.82-1.17,1.4-1.93,1.89-1.49.92-3.17,1.5-4.85,1.97-3.55.96-7.22,1.36-10.88,1.51-4.4.12-8.83-.14-13.15-1.05-2.12-.47-4.23-1.07-6.16-2.1-1-.56-2.01-1.24-2.54-2.29-1.18-2.31-2.5-4.56-3.39-7-.34-.9-.15-2.05-.9-2.75-1.42-.08-2.84.01-4.27-.03-2.94-5.02-4.49-10.85-4.43-16.66,0-6.44,1.99-12.85,5.61-18.17,3.71-5.49,9.12-9.82,15.3-12.21ZM41.88,16.83c-7.08.53-13.88,3.97-18.55,9.31-4.41,4.97-6.93,11.57-6.9,18.22-.06,5.62,1.73,11.21,4.89,15.84.77,1.09,1.05,2.45,1.95,3.45,1.96,2.21,4.84,3.26,7.6,4.07,4.97,1.33,10.15,1.87,15.29,1.7,4.82-.28,9.75-.71,14.23-2.64,1.64-.79,3.31-1.67,4.53-3.05.93-.99,1.21-2.37,1.98-3.47,1.53-2.35,2.88-4.84,3.68-7.54,1.79-5.69,1.67-11.95-.34-17.56-2.08-5.9-6.25-11.02-11.58-14.3-4.97-3.09-10.95-4.52-16.78-4.03Z"/>
        <g>
          <path class="cls-1" d="M32.16,21.89c2.76-1.18,5.85-1.66,8.82-1.19,3.1.48,5.98,2.18,7.94,4.61-.88.29-1.8.12-2.69.18-1.1.52-1.92,1.77-1.67,3.01.2.93.93,1.72,1.85,1.97,1.18.34,2.36.69,3.57.87,2.69.52,5.35,1.46,7.61,3.03,2.27,1.68,4.24,3.87,5.35,6.49.72,1.74,1.09,3.67.75,5.54-.5,2.95-1.85,5.76-3.84,8-1.83,2.08-4.21,3.64-6.78,4.66-1.07.38-1.95,1.28-2.26,2.38-.37,1.71-.76,3.42-.92,5.16-.64.04-1.29.08-1.93.12.11-1.11.23-2.21.4-3.31.18-1.34.22-2.75.81-3.99.19-.48.67-.69,1.08-.95,3.42-2.15,6.09-5.76,6.41-9.87-.33,0-.65,0-.98,0-.54,4.66-3.97,8.53-8.08,10.54-1.01-.45-2.07-.85-2.88-1.63,2.51-.96,4.92-2.47,6.43-4.74.94-1.39,1.39-3.07,1.4-4.74-.13.01-.39.04-.51.05-.53,2.61-1.84,5.16-4.07,6.71-1.62,1.14-3.62,1.64-5.59,1.69-1.33-1.07-2.79-2.07-3.81-3.47,2.47.47,5.18.63,7.48-.57,1.73-.86,2.89-2.56,3.38-4.39-.18-.05-.53-.15-.71-.2-.62,1.69-1.71,3.31-3.36,4.12-1.5.76-3.3.61-4.84.05-.72-.24-1.38-.74-2.17-.67-.55-.02-1.26.21-1.32.85-.03.87.46,1.66,1.02,2.3,2.07,2.4,4.83,4.1,7.73,5.34-1.01.66-2.16,1.34-3.41,1.27-2.61-1.15-5.02-2.89-6.74-5.19-.8-1.1-1.4-2.36-1.64-3.71-.22-1.15.47-2.37,1.55-2.8,1.4-.58,2.95-.29,4.39-.03,0-.11,0-.33,0-.43-1.81-.68-3.87-1.07-5.75-.48-.92.34-1.96,1.04-1.98,2.12-.16,2.11.64,4.19,1.83,5.9,1.39,2.01,3.32,3.58,5.35,4.92-1.18.61-2.56.73-3.86.61-2.43-1.86-4.49-4.33-5.68-7.17-.52-1.42-1.04-3-.52-4.49.49-1.83,1.72-3.63,3.61-4.19,2.33-.7,4.75.17,6.86,1.15.41.2.69-.26.88-.55-1.88-1.23-4.08-2.11-6.35-2.07-2.04,0-4.06.97-5.34,2.55-1.47,2.41-1.81,5.49-.86,8.16.8,2.35,2.45,4.29,4.27,5.93-2.26-.1-4.48-1.17-5.86-2.98-1.59-2.08-2.12-4.79-2.1-7.35.28-2.74,1.48-5.49,3.65-7.25,1.69-1.36,3.89-1.97,6.04-1.95,3.06.19,5.89,1.66,8.34,3.42.6.42,1.21,1.12,2.03.86.82-.32.8-1.39.67-2.11-.56-1-1.37-1.84-2.21-2.62-2.07-1.77-3.89-4-4.67-6.65-.59-2.17-.16-4.52.74-6.54.59-1.27,1.51-2.4,2.73-3.11.44.04.97.13,1.29-.26.34-.44.52-1.24-.04-1.59-.39-.39-.95-.27-1.37-.02-.14.61.07,1.46-.61,1.78-2.62,1.8-4.61,4.73-4.71,7.98-.96-.02-1.92-.03-2.86-.26.77-2.11,1.7-4.2,3.1-5.97.3-.43.78-.71,1.04-1.17-.45-.13-.83.21-1.17.43-1.14.87-2.14,1.91-3.12,2.95-.8-.04-1.74-.08-2.24-.81,2.13-2.39,4.77-4.51,7.94-5.29-1.48-.31-3.01.14-4.26.94-.94-.53-1.96-1.01-2.61-1.91Z"/>
          <path class="cls-1" d="M45.35,28.02c.2-.57.46-1.12.79-1.63.86.1,1.65.47,2.34.98-.9.66-2.06.68-3.13.65Z"/>
        </g>
        <g>
          <path class="cls-3" d="M49.89,86.47c.64-.37,1.41.43,1.11,1.07-.2.58-1.04.71-1.4.21-.38-.38-.18-1.08.29-1.28Z"/>
          <path class="cls-3" d="M40.45,87.63c.75-.2,1.01,1.12.23,1.24-.77.19-1.02-1.09-.23-1.24Z"/>
        </g>
      </g>
    </g>
  </g>
</svg>