<?xml version="1.0" encoding="UTF-8"?>
<svg id="Layer_2" data-name="Layer 2" xmlns="http://www.w3.org/2000/svg" viewBox="0 0 349.84 349.7">
  <defs>
    <style>
      .cls-1, .cls-2, .cls-3 {
        isolation: isolate;
      }

      .cls-4 {
        fill: #3b7bbf;
      }

      .cls-4, .cls-5, .cls-6 {
        fill-rule: evenodd;
      }

      .cls-5, .cls-2, .cls-3 {
        fill: #bf9567;
      }

      .cls-7 {
        letter-spacing: 0em;
      }

      .cls-2 {
        font-size: 22.45px;
      }

      .cls-2, .cls-3 {
        font-family: GothamNarrow-Bold, 'Gotham Narrow';
        font-weight: 700;
      }

      .cls-8 {
        letter-spacing: -.09em;
      }

      .cls-9 {
        letter-spacing: 0em;
      }

      .cls-10 {
        letter-spacing: 0em;
      }

      .cls-3 {
        font-size: 11.22px;
      }
    </style>
  </defs>
  <g id="Layer_1-2" data-name="Layer 1">
    <g>
      <g>
        <path class="cls-6" d="M238.57,275.92h16.29c.29,1.02.42,21.98.15,24.96-.32.03-.65.1-.99.1-1.38.01-2.77-.01-4.15.01-1.31.02-1.73.46-1.74,1.79-.02,1.7,0,3.39,0,5.08,0,.44,0,.87,0,1.42-.59.03-1.06.06-1.54.07-1.11.04-2.23.03-3.34.11-1.01.07-1.3.4-1.43,1.4-.14,1.01-.15,2.05-.39,3.04-1.05,4.4-3.42,7.83-7.67,9.68-4.13,1.79-8.05,1.17-11.55-1.59-3.42-2.69-5.08-6.35-5.36-10.65-.11-1.62-.27-1.86-1.88-1.94-1.33-.07-2.67-.01-4.09-.01-.06-.46-.13-.79-.13-1.13-.01-1.74,0-3.48,0-5.22,0-1.72-.33-2.05-2.01-2.06-1.65,0-3.3,0-4.92,0-.31-1.11-.33-23.81-.03-25.05h16.99v1.62c0,6.07,0,12.13,0,18.2,0,.4-.02.8.02,1.2.08.83.53,1.28,1.37,1.34.58.04,1.16.01,1.74.01,4.24,0,8.48,0,12.71,0,1.59,0,1.96-.38,1.97-1.98,0-6.24,0-12.49,0-18.73,0-.52,0-1.05,0-1.68Z"/>
        <path class="cls-6" d="M48.79,254.63v-3.25c0-.62,0-1.25,0-1.87-.02-1.52-.31-1.82-1.79-1.84-1.69-.02-3.39,0-5.08,0-.44,0-.87-.04-1.39-.06-.04-.41-.09-.75-.09-1.09-.01-1.12,0-2.23,0-3.35-.02-1.4-.45-1.77-1.81-1.89-1.24-.11-2.5-.21-3.68-.58-4.56-1.44-7.95-4.23-9.3-8.96-1.05-3.67-.29-7.09,2.15-10.04,2.79-3.37,6.4-5.17,10.8-5.29,1.37-.04,1.82-.5,1.84-1.86.01-1.37,0-2.74,0-4.27h3.31c1.11,0,2.23.01,3.35,0,1.32-.02,1.69-.37,1.71-1.66.03-1.47,0-2.94.01-4.42,0-.31.05-.61.07-.89.99-.28,22.75-.38,24.85-.13.29,1,.41,13.34.15,16.95-.45.02-.92.05-1.39.05-5.98,0-11.95,0-17.93,0-.31,0-.62,0-.94,0-1.66.03-2.07.42-2.08,2.05-.01,3.39,0,6.78,0,10.17,0,1.29-.02,2.59,0,3.88.03,1.43.42,1.8,1.87,1.8,6.29,0,12.58,0,18.87,0h1.43c.28,1.02.37,14.38.11,16.51-8.24.05-16.51.01-25.02.03Z"/>
        <path class="cls-6" d="M276.17,237.87h1.63c6.16,0,12.31,0,18.47,0,.4,0,.81.03,1.2-.05.7-.14.99-.64,1-1.66.01-2.54,0-5.09,0-7.63,0-2.19,0-4.37,0-6.56,0-1.61-.3-1.9-2.01-1.9-6.2-.01-12.4,0-18.6,0h-1.66v-16.43h25.03c0,1.4,0,2.73,0,4.05,0,.4-.02.8,0,1.2.07,1.14.52,1.61,1.67,1.62,1.69.02,3.39,0,5.08,0h1.66c0,.88.02,1.71.02,2.54,0,.71-.01,1.43,0,2.14.03,1.14.42,1.54,1.62,1.68,1.06.12,2.15.12,3.18.37,4.25,1.06,7.52,3.48,9.38,7.49,2.15,4.64.57,10.35-3.61,13.7-2.6,2.08-5.58,3.08-8.86,3.34-1.45.12-1.7.36-1.72,1.78-.01,1.33,0,2.67,0,4.1-.41.05-.74.14-1.08.14-1.69.01-3.39,0-5.08.01-1.92.02-2.27.37-2.28,2.26,0,1.59,0,3.18,0,4.85h-25.05c0-5.67,0-11.27,0-17.04Z"/>
        <path class="cls-6" d="M146.19,300.99c-1.43,0-2.76.04-4.1,0-2.47-.08-2.91.14-2.83,2.89.04,1.38.01,2.77,0,4.15,0,.39-.05.78-.08,1.3-.59,0-1.12,0-1.64,0-.89,0-1.79-.02-2.68.03-1.49.07-1.77.35-1.9,1.81-.17,1.92-.51,3.8-1.32,5.56-1.54,3.38-3.88,6.03-7.46,7.23-4.88,1.64-9.77.05-13.18-4.28-1.82-2.31-2.77-4.95-2.96-7.88-.15-2.28-.35-2.45-2.66-2.47-1.07,0-2.14,0-3.32,0-.04-.38-.11-.72-.11-1.05-.01-1.83,0-3.66-.01-5.48-.01-1.3-.49-1.77-1.77-1.79-1.74-.02-3.47,0-5.19,0-.29-.99-.36-23.37-.09-25.05h16.91c.02.49.06.96.06,1.43,0,6.11,0,12.22,0,18.33,0,.31,0,.62,0,.93.05,1.11.53,1.63,1.64,1.65,1.25.03,2.5,0,3.75,0,3.48,0,6.96-.05,10.43.02,1.55.03,2.08-.76,2.07-2.08-.05-6.2-.02-12.4-.02-18.59v-1.68h16.43c0,8.29,0,16.57,0,25.04Z"/>
        <path class="cls-6" d="M40.49,101.51c1.98,0,3.81,0,5.64,0,.36,0,.71.01,1.07,0,1.15-.06,1.61-.49,1.64-1.65.04-1.29.01-2.59.01-3.88v-1.55h25v16.99c-.45.02-.92.05-1.39.05-6.16,0-12.31,0-18.47,0-.36,0-.71-.02-1.07,0-.83.06-1.19.4-1.31,1.23-.04.26-.02.53-.02.8,0,4.6,0,9.19,0,13.78,0,.22,0,.45.02.67.09.81.47,1.2,1.26,1.29.35.04.71.02,1.07.02,6.24.03,12.49.06,18.73.09.35,0,.71.03,1.04.04.29,1.02.4,13.16.16,16.16-.93.27-22.43.38-24.96.11-.02-.45-.06-.92-.06-1.39-.01-1.2.01-2.41,0-3.61-.03-1.41-.45-1.85-1.84-1.86-1.69-.02-3.39,0-5.08,0h-1.48c0-1.25,0-2.39,0-3.54,0-.4.01-.8,0-1.21-.05-1.08-.37-1.43-1.46-1.5-1.79-.11-3.56-.34-5.21-1.05-3.99-1.71-7.1-4.32-8.16-8.74-.96-4.02-.03-7.6,2.85-10.62,2.71-2.84,6-4.4,9.94-4.56.22,0,.45,0,.67-.03.97-.13,1.34-.49,1.37-1.48.03-1.2,0-2.41.01-3.61,0-.26.03-.52.05-.95Z"/>
        <path class="cls-6" d="M301.22,94.77v3.14c0,.58,0,1.16,0,1.74.02,1.63.36,1.98,1.94,1.99,1.65,0,3.3,0,4.95,0,.44,0,.88,0,1.39,0,.06.38.15.68.15.97.02,1.16,0,2.32,0,3.48.01,1.55.33,1.88,1.86,1.94,2.98.11,5.66,1.02,8.08,2.78,7.45,5.43,6.73,15.58-1.3,20.16-2.07,1.18-4.33,1.85-6.74,1.93-1.5.05-1.88.45-1.89,1.93-.01,1.33,0,2.66,0,4.07-.43.04-.77.11-1.11.11-1.87.01-3.75,0-5.62.01-1.23.01-1.67.46-1.7,1.71-.03,1.34,0,2.68,0,4.01v1.4h-24.82c-.31-.92-.4-15.12-.09-17.03h19.73c.31,0,.62.02.94,0,.98-.07,1.44-.54,1.5-1.5.01-.18,0-.36,0-.54,0-4.64,0-9.28,0-13.91,0-1.6-.36-1.95-1.98-1.95-6.24,0-12.49,0-18.73,0h-1.54v-16.44h24.98Z"/>
        <path class="cls-6" d="M248.22,40.13v4.16c0,.89-.03,1.79.01,2.68.05,1.14.52,1.59,1.68,1.61,1.61.02,3.21,0,4.82.01.17,0,.34.04.6.06v24.94h-17.08v-19.97c0-.31.02-.63,0-.94-.07-.9-.52-1.38-1.44-1.42-1.11-.04-2.23-.01-3.35-.01-3.66,0-7.32,0-10.98,0-1.73,0-2.09.37-2.1,2.13,0,6.2,0,12.4,0,18.6v1.62h-16.39v-25.03h3.36c.54,0,1.07,0,1.61,0,1.48-.02,1.93-.45,1.94-1.89.02-1.69,0-3.39,0-5.09v-1.47h3.58c2.5,0,2.61-.19,2.76-2.48.27-3.93,1.98-7.16,4.87-9.81,4.06-3.73,10.51-3.81,14.71-.3,3.01,2.52,4.74,5.74,5.18,9.64.06.49.1.98.16,1.46.14,1.08.42,1.39,1.53,1.45,1.02.05,2.05.03,3.08.03.44,0,.87,0,1.45,0Z"/>
        <path class="cls-6" d="M129.3,73.67v-19.94c0-.36.02-.72-.02-1.07-.09-.73-.45-1.1-1.2-1.19-.4-.05-.8-.04-1.2-.04-4.32,0-8.65,0-12.98,0-.4,0-.8,0-1.2.04-.73.08-1.12.45-1.23,1.18-.06.39-.03.8-.03,1.2,0,6.06,0,12.13,0,18.19v1.64h-16.27c-.25-.96-.35-22.85-.09-24.92.31-.04.65-.1.99-.11,1.38-.01,2.76,0,4.15-.01,1.27-.02,1.68-.41,1.7-1.68.03-1.74,0-3.48,0-5.22v-1.46c1.45,0,2.77,0,4.1,0,1.87,0,2.1-.17,2.21-2,.21-3.31,1.26-6.27,3.43-8.8,2.41-2.83,5.42-4.43,9.2-4.39,3.09.03,5.74,1.18,7.9,3.36,2.54,2.55,4.11,5.6,4.32,9.23.15,2.69.58,2.66,2.89,2.61,1.02-.02,2.04,0,3.15,0,.05.41.11.74.12,1.08.01,1.69,0,3.39,0,5.08,0,1.92.26,2.19,2.13,2.19,1.25,0,2.5,0,3.74,0,.39,0,.78.04,1.26.07v24.95c-5.66,0-11.3,0-17.08,0Z"/>
        <path class="cls-6" d="M37.65,278.35c-2.27-2.29-4.49-4.53-6.79-6.84,1.36-1.34,2.78-2.81,4.29-4.2.96-.89,1.13-1.76,0-2.8-1.5-1.39-2.91-2.89-4.37-4.34-1.04-1.03-1.61-1.02-2.68.05-1.45,1.45-2.89,2.91-4.22,4.25-2.4-2.4-4.75-4.75-7.09-7.09.17-.02.5-.08.83-.08,9.41,0,18.83,0,28.24-.02.77,0,1.32.23,1.87.78,14.18,14.33,28.37,28.65,42.56,42.98,1.79,1.8,1.77,1.82,1.77,4.4v27.12c-.09.04-.17.08-.26.12-1.85-1.82-3.69-3.64-5.6-5.53,1.41-1.42,2.73-2.75,4.04-4.07.25-.25.52-.49.76-.76.73-.8.73-1.27-.02-2.07-.64-.68-1.32-1.33-1.99-1.98-.92-.91-1.84-1.82-2.76-2.72-.96-.94-1.53-.94-2.46,0-1.26,1.26-2.52,2.53-3.78,3.79-.25.24-.51.47-.67.61-2.26-2.25-4.47-4.44-6.76-6.72.09-.11.29-.4.53-.64,1.29-1.3,2.59-2.58,3.88-3.89.93-.95.95-1.44.03-2.37-1.6-1.62-3.21-3.23-4.83-4.82-.79-.78-1.37-.77-2.17.02-1.24,1.22-2.46,2.46-3.69,3.69-.31.31-.64.6-.94.88-2.24-2.25-4.42-4.46-6.69-6.74.12-.15.32-.43.56-.67,1.29-1.3,2.6-2.58,3.87-3.89.9-.92.88-1.46-.02-2.38-1.56-1.59-3.14-3.17-4.72-4.74-.85-.84-1.39-.84-2.27.01-1.54,1.49-3.06,2.99-4.72,4.63-2.21-2.2-4.43-4.43-6.77-6.76.62-.63,1.2-1.22,1.79-1.8.95-.94,1.93-1.86,2.86-2.82.88-.92.87-1.48-.02-2.39-1.57-1.59-3.15-3.16-4.74-4.72-.89-.87-1.35-.87-2.26.02-1.24,1.22-2.46,2.46-3.69,3.69-.31.31-.64.6-.88.83Z"/>
        <path class="cls-6" d="M71.52,37.23c2.26-2.24,4.47-4.43,6.76-6.7.08.07.36.27.6.5,1.3,1.29,2.57,2.6,3.88,3.88.91.89,1.49.9,2.39.02,1.59-1.56,3.17-3.14,4.73-4.73.85-.87.85-1.42,0-2.29-1.22-1.24-2.48-2.44-3.71-3.67-.31-.31-.61-.63-.77-.81,2.29-2.33,4.52-4.6,6.83-6.95.03.37.08.7.08,1.03,0,9.41,0,18.82.02,28.23,0,.78-.25,1.32-.8,1.86-9.11,8.99-18.2,17.99-27.3,26.99-5.49,5.42-10.98,10.83-16.47,16.26-.46.45-.88.79-1.59.79-9.45-.02-18.91-.02-28.36-.02-.17,0-.34-.03-.52-.05.38-.85,3.43-4.05,5.45-5.72.65.64,1.32,1.28,1.98,1.94.88.88,1.74,1.8,2.64,2.65.9.86,1.44.87,2.3.04,1.56-1.52,3.11-3.07,4.63-4.64,1-1.04.97-1.59-.03-2.6-1.48-1.48-2.96-2.96-4.35-4.34,2.29-2.29,4.51-4.51,6.81-6.82.3.29.71.69,1.11,1.09,1.17,1.16,2.32,2.35,3.51,3.49.77.74,1.24.78,1.97.08,1.77-1.7,3.51-3.43,5.22-5.19.62-.64.54-1.24-.18-1.99-1.02-1.06-2.08-2.09-3.14-3.1-.51-.49-1.07-.94-1.55-1.35,2.36-2.38,4.57-4.6,6.87-6.93,1.31,1.28,2.67,2.61,4.03,3.94.22.22.42.46.65.68.75.71,1.31.73,2.09,0,.75-.7,1.46-1.44,2.18-2.16.85-.85,1.71-1.69,2.55-2.56.98-1.01.97-1.57-.04-2.59-1.44-1.46-2.88-2.92-4.32-4.38-.03-.03-.03-.08,0,.03,2.27-2.28,4.48-4.5,6.77-6.81.73.72,1.54,1.53,2.35,2.35.66.66,1.32,1.33,1.99,1.99,1.07,1.05,1.59,1.04,2.69-.03.32-.31.63-.63.95-.94,1.17-1.17,2.34-2.32,3.5-3.5.95-.97.95-1.53.01-2.49-1.19-1.21-2.4-2.4-3.59-3.6-.31-.31-.6-.63-.83-.89Z"/>
        <path class="cls-6" d="M264.58,326.26c-2.34,2.34-4.56,4.56-6.82,6.81v-1.19c0-9.23.01-18.46-.02-27.69,0-.92.25-1.57.9-2.22,10.12-10.06,20.22-20.14,30.33-30.21,4.3-4.28,8.6-8.55,12.89-12.84.49-.49.94-.84,1.71-.84,9.54.03,19.09.02,28.63.02.18,0,.35.03.54.05-.37.84-3.45,4.03-5.45,5.65-.31-.28-.64-.55-.94-.86-1.27-1.26-2.51-2.53-3.78-3.78-.7-.69-1.41-.72-2.09-.04-1.62,1.6-3.23,3.21-4.81,4.84-.91.94-.89,1.45.02,2.39,1.18,1.21,2.39,2.4,3.59,3.6.31.31.6.64.8.84-2.27,2.27-4.49,4.49-6.79,6.8-.76-.75-1.67-1.66-2.58-2.56-.66-.66-1.31-1.33-1.99-1.98-.66-.63-1.36-.67-1.98-.07-1.7,1.64-3.38,3.3-5.04,4.98-.79.81-.77,1.33.05,2.17,1.21,1.25,2.45,2.47,3.69,3.69.32.31.7.54,1.07.82-2.45,2.39-4.7,4.6-7.04,6.88-1.33-1.33-2.77-2.77-4.22-4.22-.16-.16-.3-.33-.46-.48-.66-.58-1.28-.64-1.9-.04-1.73,1.67-3.44,3.37-5.12,5.09-.73.75-.71,1.3.04,2.08,1.27,1.32,2.58,2.59,3.87,3.89.28.28.54.58.76.82-2.25,2.25-4.45,4.45-6.73,6.73-.18-.15-.45-.35-.69-.59-1.33-1.32-2.63-2.67-3.97-3.98-.82-.8-1.37-.82-2.18-.02-1.62,1.59-3.23,3.2-4.82,4.83-.87.89-.85,1.45.06,2.39,1.18,1.21,2.39,2.4,3.59,3.6.31.31.61.64.84.88-2.23,2.23-4.42,4.42-6.71,6.71-.11-.09-.4-.28-.64-.51-1.26-1.26-2.51-2.54-3.77-3.8-1.07-1.07-1.51-1.07-2.55-.03-1.55,1.54-3.1,3.08-4.63,4.64-.9.91-.9,1.46,0,2.38,1.18,1.21,2.39,2.4,3.59,3.6.31.31.61.64.77.81Z"/>
        <path class="cls-6" d="M312.47,71.3c2.28,2.29,4.45,4.48,6.69,6.73-.12.15-.32.43-.55.67-1.29,1.29-2.61,2.57-3.89,3.87-.98.99-.97,1.47.02,2.47,1.54,1.55,3.08,3.1,4.65,4.63.96.94,1.41.93,2.38,0,1.22-1.18,2.4-2.4,3.6-3.59.31-.31.64-.6.93-.88,2.22,2.27,4.4,4.48,6.58,6.71-.1.02-.37.12-.64.12-9.41,0-18.82,0-28.24.02-.67,0-1.17-.19-1.65-.67-11.17-11.22-22.35-22.43-33.54-33.64-3.31-3.32-6.61-6.64-9.94-9.93-.54-.53-.82-1.07-.82-1.86.03-9.28.02-18.56.02-27.83v-.82c.86.34,3.96,3.3,5.65,5.37-1.08,1.08-2.18,2.18-3.27,3.28-.47.47-.96.93-1.42,1.42-.69.75-.7,1.34.02,2.09,1.08,1.12,2.21,2.21,3.32,3.31.51.5,1,1.02,1.52,1.51.93.87,1.35.89,2.26,0,1.34-1.31,2.65-2.65,3.98-3.97.22-.22.45-.41.59-.54,2.25,2.27,4.47,4.51,6.78,6.84-.43.43-1.02,1.03-1.61,1.62-.98.98-1.98,1.94-2.94,2.93-.71.74-.75,1.4-.07,2.11,1.65,1.69,3.32,3.37,5.02,5.01.75.72,1.32.7,2.09-.04,1.19-1.14,2.35-2.32,3.5-3.5.38-.38.7-.8.94-1.08,2.33,2.33,4.56,4.56,6.88,6.88-1.22,1.22-2.63,2.63-4.04,4.04-.22.22-.46.42-.65.67-.44.57-.5,1.18,0,1.7,1.73,1.8,3.49,3.57,5.28,5.31.62.6,1.3.49,1.99-.19,1.24-1.22,2.47-2.45,3.68-3.7.31-.32.56-.7.82-1.03,2.39,2.39,4.62,4.61,6.93,6.91-.86.86-1.73,1.74-2.6,2.61-.69.7-1.41,1.37-2.08,2.08-.73.77-.71,1.29,0,2.09.33.37.69.7,1.04,1.04,1.23,1.23,2.46,2.46,3.7,3.68,1.03,1,1.54,1,2.59-.02,1.18-1.15,2.34-2.33,3.51-3.5.31-.31.64-.61.98-.93Z"/>
        <path class="cls-6" d="M125.46,346.86h-9.49c-.04-.36-.12-.69-.12-1.03-.01-1.78,0-3.57-.01-5.35-.02-1.34-.44-1.77-1.75-1.79-2.19-.02-4.37-.02-6.56,0-1.3.01-1.72.45-1.74,1.8-.02,1.65,0,3.3,0,4.95v1.4h-10.96v-43.08h4.35c.03.29.1.62.1.96,0,1.79,0,3.57,0,5.35,0,1.64.3,1.92,1.98,1.93,1.33,0,2.66,0,4.01,0,.26,1.24.4,2.39.73,3.48,1.44,4.74,4.19,8.47,8.77,10.56,5.49,2.5,11.89,1.1,16.06-3.32,2.62-2.79,4.16-6.07,4.63-9.87.03-.22.09-.43.17-.79.79-.02,1.57-.05,2.35-.06.76-.01,1.52.01,2.27,0,1.31-.03,1.65-.36,1.66-1.7.02-1.74,0-3.48,0-5.22,0-.43.04-.87.06-1.36h4.07c.26,1.01.31,41.61.04,43.1h-10.57c-.04-.36-.1-.7-.1-1.04,0-1.78,0-3.57,0-5.35-.01-1.34-.42-1.74-1.77-1.75-2.14-.02-4.28-.02-6.42,0-1.4.01-1.75.35-1.77,1.73-.02,1.65,0,3.3,0,4.95v1.48Z"/>
        <path class="cls-6" d="M244.5,312.03c1.42,0,2.75,0,4.08,0,1.96,0,2.2-.24,2.2-2.26,0-1.96,0-3.92,0-5.99h4.21v43.1h-10.61c-.03-.41-.09-.8-.09-1.18-.01-1.74.02-3.48-.01-5.22-.02-1.33-.45-1.75-1.78-1.76-2.18-.02-4.37-.02-6.56,0-1.22.01-1.68.48-1.71,1.7-.03,1.7,0,3.39,0,5.08v1.38h-9.47c-.04-.37-.1-.75-.11-1.13-.01-1.74,0-3.48-.01-5.22-.02-1.47-.36-1.82-1.82-1.83-2.14-.02-4.28-.02-6.42,0-1.33.01-1.73.42-1.74,1.78-.02,2.09,0,4.18,0,6.42-3.68.13-7.27.04-10.84.06-.32-1.05-.37-41.84-.08-43.25h4.2c.04.36.12.69.12,1.03.01,1.69,0,3.39,0,5.08,0,1.91.28,2.19,2.14,2.19,1.29,0,2.57,0,3.92,0,.19,1.02.31,1.95.54,2.84,1.27,4.91,4,8.77,8.61,11,6.07,2.94,12.98,1.19,17.3-4.15,1.89-2.33,3.12-4.97,3.6-7.94.09-.53.2-1.05.33-1.76Z"/>
        <path class="cls-6" d="M347.11,115.52v9.5c-.34.04-.68.1-1.01.1-1.74.01-3.48,0-5.22,0-1.5,0-1.94.42-1.95,1.88-.02,2.1-.02,4.19,0,6.29.01,1.43.4,1.79,1.85,1.8,1.65.01,3.3,0,4.95,0,.43,0,.87.04,1.36.07v10.98h-43.12v-4.42h2.13c1.52,0,3.03.02,4.55,0,1.12-.02,1.63-.51,1.65-1.63.03-1.46,0-2.93,0-4.33,1.67-.44,3.25-.73,4.74-1.27,4.43-1.63,7.78-4.54,9.49-9,1.89-4.95,1.16-11.28-4.16-15.88-2.59-2.24-5.52-3.73-8.97-4.07-.34-.04-.67-.16-1.1-.27,0-1.33,0-2.62,0-3.9,0-2.05-.32-2.37-2.43-2.38-1.52,0-3.03,0-4.55,0h-1.38v-4.2h43.13v10.65c-.38.04-.72.1-1.06.1-1.78.01-3.57,0-5.35.01-1.34.01-1.73.4-1.74,1.78-.02,2.14-.02,4.28,0,6.42.01,1.33.45,1.76,1.76,1.77,1.65.01,3.3,0,4.95,0,.44,0,.88,0,1.47,0Z"/>
        <path class="cls-6" d="M37.74,244.04c0,1.55-.01,2.97,0,4.39.01,1.47.44,1.89,1.93,1.9,1.65.02,3.3,0,4.95,0h1.41v4.22H2.98v-10.69c.34-.04.68-.1,1.02-.1,1.78-.01,3.57,0,5.35-.01,1.31-.01,1.73-.38,1.75-1.63.04-2.23.04-4.46,0-6.69-.02-1.25-.45-1.62-1.75-1.64-1.65-.02-3.3,0-4.95,0h-1.4v-9.52c.31-.03.65-.09.99-.09,1.78,0,3.57,0,5.35,0,1.29-.01,1.74-.39,1.76-1.63.04-2.27.04-4.55,0-6.82-.02-1.12-.43-1.51-1.58-1.53-1.65-.04-3.3-.01-4.95-.02h-1.42c-.32-1.11-.35-9.7-.06-11.03h42.96v4.44h-2.25c-1.43,0-2.86-.02-4.28,0-1.28.02-1.74.51-1.76,1.81-.02,1.38,0,2.76,0,4.25-1.08.21-2.13.32-3.13.61-5.66,1.66-9.94,4.98-11.54,10.81-1.68,6.13.37,11.23,5.27,15.2,2.33,1.89,4.99,3.06,7.97,3.49.44.06.87.16,1.44.27Z"/>
        <path class="cls-6" d="M255.33,45.82h-4.38c-.02-.49-.07-.92-.07-1.35,0-1.61-.04-3.21,0-4.82.05-1.75-.39-2.21-2.19-2.15-1.02.03-2.05.01-3.08,0-.26,0-.52-.06-.78-.1-.25-1.18-.42-2.32-.73-3.42-1.31-4.54-4.02-8.02-8.2-10.25-4.35-2.32-11.52-2.18-16.16,2.62-2.85,2.95-4.71,6.35-5.11,10.47-.02.17-.08.34-.18.69-.91,0-1.83,0-2.75,0-.62,0-1.25-.02-1.87,0-1.24.06-1.59.39-1.6,1.63-.02,1.74,0,3.48,0,5.22v1.42h-4.24V2.68h10.63c.02.49.06.92.06,1.36,0,1.65,0,3.3,0,4.95.01,1.4.46,1.86,1.82,1.86,2.14.01,4.28.01,6.42,0,1.38,0,1.8-.44,1.81-1.86.02-1.65,0-3.3,0-4.95,0-.43.04-.87.07-1.37h9.37c.04.42.1.81.1,1.19.01,1.74-.01,3.48.01,5.22.02,1.33.45,1.76,1.77,1.77,2.18.01,4.37.01,6.55,0,1.21,0,1.7-.48,1.72-1.68.03-1.69,0-3.39,0-5.08v-1.4h10.97c0,14.39,0,28.72,0,43.14Z"/>
        <path class="cls-6" d="M146.38,45.91h-4.39c-.04-.38-.09-.72-.09-1.07,0-1.83,0-3.66,0-5.49-.01-1.33-.42-1.73-1.77-1.75-1.42-.02-2.84,0-4.23,0-.26-1.26-.4-2.41-.74-3.5-1.62-5.24-4.79-9.24-10.09-10.95-5.3-1.72-10.21-.67-14.29,3.36-3.03,3-4.81,6.59-5.14,10.98-.35.04-.68.11-1.02.12-1.2.01-2.41-.01-3.61.01-1.33.02-1.72.43-1.73,1.79-.01,1.69,0,3.39,0,5.08v1.5h-4.05c-.31-.98-.4-41.19-.11-43.12h10.62v2.69c0,1.29-.02,2.59,0,3.88.03.99.42,1.47,1.34,1.49,2.45.04,4.9.04,7.36,0,.91-.02,1.29-.49,1.31-1.52.04-1.69.01-3.39.02-5.08,0-.48,0-.96,0-1.49h9.47c.04.35.12.69.12,1.02.01,1.69,0,3.39,0,5.08.01,1.64.35,2,1.93,2.01,2.05.01,4.1.01,6.15,0,1.6-.01,1.92-.35,1.93-2.01,0-1.56,0-3.12,0-4.68v-1.39h10.88c.26,1.01.38,40.07.12,43.04Z"/>
        <path class="cls-6" d="M347.12,224.37v9.4c-.41.04-.79.1-1.17.1-1.69.01-3.39-.02-5.08.01-1.58.03-1.96.44-1.97,2.02-.01,2.05-.01,4.1,0,6.15,0,1.46.46,1.9,1.92,1.91,1.96.01,3.92,0,5.89.02.09,0,.17.04.26.05.26.94.34,8.69.1,10.84h-43.08v-4.3c.37-.04.71-.11,1.05-.12,1.78-.01,3.57,0,5.35,0,1.6,0,1.93-.35,1.94-1.98,0-1.33,0-2.66,0-3.95,1.59-.4,3.08-.65,4.49-1.16,4.82-1.75,8.44-4.87,9.99-9.86,1.67-5.39.4-10.24-3.54-14.29-2.83-2.91-6.3-4.6-10.37-4.98-.13-.01-.25-.06-.57-.14,0-.75,0-1.54,0-2.33.06-4.37.06-3.97-4.02-3.96-1.42,0-2.83,0-4.33,0v-4.18h43.1v10.64h-1.58c-1.65,0-3.3-.02-4.95.01-1.12.02-1.63.54-1.64,1.66-.03,2.23-.02,4.46,0,6.69.01,1.22.49,1.71,1.7,1.73,1.65.03,3.3,0,4.95,0,.48,0,.96,0,1.57,0Z"/>
        <path class="cls-6" d="M2.99,145.7v-10.68h3.35c1.07,0,2.14.02,3.21,0,1.05-.03,1.57-.52,1.59-1.57.04-2.27.04-4.55,0-6.82-.02-1.15-.46-1.59-1.65-1.64-1.51-.06-3.03-.02-4.55-.02-.61,0-1.23,0-1.93,0v-9.54c.46-.02.9-.05,1.34-.06,1.69,0,3.39.01,5.08,0,1.29-.02,1.69-.41,1.71-1.68.03-2.18.03-4.37,0-6.55-.01-1.33-.46-1.76-1.78-1.77-1.65-.02-3.3,0-4.95,0h-1.4v-10.92h43.05v4.45h-4.19c-.85,0-1.7-.02-2.54,0-1.1.04-1.53.45-1.56,1.55-.04,1.2,0,2.41-.01,3.61,0,.26-.04.53-.06.87-.7.13-1.39.26-2.07.39-4.47.85-7.98,3.25-10.59,6.89-3.93,5.48-3.07,13.23,1.82,17.97,2.92,2.83,6.33,4.55,10.4,4.96.12.01.24.09.51.19v3.54c0,.4-.02.8.01,1.2.08.98.54,1.45,1.53,1.46,1.92.02,3.84,0,5.75.01.31,0,.62.03,1.02.06v4.15c-14.36,0-28.66,0-43.09,0Z"/>
        <path class="cls-6" d="M200.76,41.17v19.43c-.93.29-15.23.37-17.11.07v-1.38c0-6.25.03-12.49,0-18.74-.03-4.46-3.31-7.84-6.55-8.64-6.53-1.61-11.18,3.43-11.21,8.43-.04,6.25,0,12.49,0,18.74v1.66h-16.46v-19.53c.33-.04.67-.1,1.01-.1,1.87-.01,3.75,0,5.62-.02,1.23-.02,1.62-.34,1.68-1.57.35-7.34,6.99-12.03,12.12-13.09,4.17-.86,8.33-.76,12.32,1,2.41,1.06,4.46,2.61,6.15,4.61,1.78,2.11,2.75,4.55,2.98,7.31.12,1.48.43,1.74,1.93,1.75,2.05.02,4.1,0,6.16,0,.43,0,.87.03,1.38.06Z"/>
        <path class="cls-6" d="M60.96,183.75v16.24c-.96.33-18.16.4-19.72.06,0-.4,0-.84,0-1.27,0-1.78.01-3.57-.02-5.35-.02-1.05-.45-1.57-1.36-1.63-6.96-.49-10.95-4.72-12.87-10.89-1.99-6.39-1.12-12.55,3.36-17.85,2.4-2.85,5.43-4.56,9.23-4.73,1.18-.05,1.64-.54,1.65-1.77.02-2.05.01-4.1.01-6.15v-1.44c1.03-.31,16.63-.43,19.53-.17.29.92.37,15.06.08,17.04h-1.4c-6.24,0-12.49-.16-18.73.05-6.08.2-10.35,5.58-8.59,11.56.85,2.89,2.87,4.76,5.68,5.77,1.13.41,2.31.57,3.53.56,6.02-.03,12.04-.01,18.06-.01.48,0,.96,0,1.57,0Z"/>
        <path class="cls-6" d="M308.75,200.55h-19.41c-.29-.95-.38-14.99-.1-17.07h1.4c6.2,0,12.4.03,18.6-.01,4.29-.03,8.44-3.35,8.99-7.66.59-4.64-2.18-8.76-6.68-9.9-.89-.23-1.84-.33-2.77-.34-6.02-.03-12.04-.01-18.07-.01h-1.54v-16.23c.87-.31,17.4-.43,19.53-.11.03.35.09.73.09,1.11.02,1.87,0,3.75.03,5.62.02,1.12.42,1.55,1.52,1.59,4.35.17,7.57,2.34,10.11,5.7,2.25,2.98,3.33,6.36,3.48,10.07.2,5.12-1.18,9.7-4.73,13.5-2.34,2.51-5.2,4.01-8.68,4.18-1.3.07-1.7.48-1.72,1.84-.02,2.1,0,4.19-.02,6.29,0,.44-.03.87-.06,1.44Z"/>
        <path class="cls-6" d="M184.17,288.99h16.49v19.42c-.36.03-.74.09-1.12.09-1.87.03-3.75.01-5.62.08-1.24.04-1.6.39-1.69,1.59-.44,6.11-4.06,9.87-9.34,12.12-5.01,2.13-10.16,1.98-15.2-.16-2.25-.95-4.16-2.42-5.78-4.24-1.93-2.17-2.98-4.73-3.17-7.63-.09-1.29-.42-1.67-1.71-1.71-2.1-.06-4.19-.04-6.29-.05-.48,0-.96,0-1.5,0v-19.53h17.06v1.6c0,6.11-.05,12.22.02,18.33.06,5.51,4.65,9.46,9.42,9.21,3.4-.17,6.81-2.67,7.88-6.08.33-1.04.51-2.17.52-3.27.05-6.07.02-12.13.02-18.2,0-.48,0-.97,0-1.6Z"/>
        <path class="cls-6" d="M149.38,311.28h6.64c.08.18.2.34.22.5.65,4.68,3.26,8.11,6.97,10.81,2.87,2.1,6.11,3.21,9.63,3.64,4.57.56,8.9-.16,12.92-2.36,4.26-2.33,7.42-5.67,8.71-10.5.18-.68.29-1.38.44-2.1h5.74v24.77c-.92.27-49.65.36-51.28.08-.28-1.08-.29-23.66.01-24.85Z"/>
        <path class="cls-6" d="M336.38,200.52h-24.83v-6.8c.63-.14,1.27-.27,1.91-.43,3.85-.96,6.79-3.25,9.11-6.39,3.04-4.11,4.26-8.76,4.01-13.83-.28-5.81-2.54-10.69-6.9-14.56-2.11-1.87-4.53-3.13-7.38-3.47-.22-.03-.42-.11-.73-.19v-5.55c.98-.31,23.5-.35,24.81-.04,0,17.05,0,34.11,0,51.26Z"/>
        <path class="cls-6" d="M38.5,194.52v5.65H13.67v-51.36h24.8v6.85c-.61.12-1.22.24-1.83.37-2.69.59-4.96,1.96-6.92,3.84-4.55,4.38-6.48,9.79-6.28,16.04.16,4.9,1.74,9.25,4.98,12.96,2.48,2.84,5.46,4.82,9.26,5.4.26.04.51.15.82.24Z"/>
        <path class="cls-6" d="M200.78,13.59v24.73h-6.87c-.05-.32-.1-.66-.17-.99-.88-4.51-3.52-7.81-7.16-10.42-4.14-2.97-8.81-3.85-13.81-3.56-6.17.36-11.06,3.08-14.83,7.91-1.6,2.05-2.43,4.43-2.79,7.07h-5.6c-.27-.92-.39-22.11-.12-24.74,17.08,0,34.18,0,51.34,0Z"/>
        <path class="cls-6" d="M50.77,257.39c.65-.04,1.02-.09,1.4-.09,7.05,0,14.09.01,21.13-.02.88,0,1.49.27,2.1.88,5.28,5.32,10.57,10.61,15.89,15.89.54.54.81,1.07.81,1.85-.03,7.27-.02,14.53-.02,21.8v1.01c-.1.04-.19.08-.29.12-13.61-13.75-27.22-27.5-41.02-41.44Z"/>
        <path class="cls-6" d="M299.24,91.93c-.73.04-1.12.09-1.5.09-7.14,0-14.27-.01-21.41.02-.88,0-1.49-.29-2.09-.9-5.09-5.13-10.2-10.24-15.33-15.32-.62-.62-.87-1.24-.86-2.1.03-7.14.02-14.27.02-21.41v-1.11c.14-.08.18-.12.22-.12.04,0,.09,0,.12.03.14.11.29.21.41.33,13.39,13.41,26.78,26.82,40.42,40.48Z"/>
        <path class="cls-6" d="M92.31,50.91v1.15c0,7.05-.01,14.09.02,21.14,0,.82-.22,1.41-.81,1.99-5.27,5.2-10.5,10.44-15.74,15.66-.45.45-.87.8-1.59.8-7.54-.03-15.07-.02-22.61-.02-.13,0-.26-.04-.39-.05.33-.77,11.19-11.63,20.35-20.53,6.89-6.69,13.67-13.51,20.5-20.26.09.04.19.08.29.13Z"/>
        <path class="cls-6" d="M257.77,298.71v-1.17c0-7,.02-14-.02-21,0-.88.29-1.48.89-2.09,5.19-5.15,10.36-10.33,15.52-15.51.53-.53,1.03-.86,1.84-.86,7.27.03,14.54.02,21.8.02.26,0,.51.04,1.08.08-13.73,13.68-27.27,27.18-40.81,40.69-.1-.05-.2-.1-.3-.15Z"/>
      </g>
      <path class="cls-4" d="M126.96,295.57h-12.45c-.02-.5-.06-.97-.06-1.44,0-6.2,0-12.4,0-18.6,0-.36.02-.72-.01-1.07-.07-.73-.44-1.15-1.16-1.23-.66-.07-1.34-.07-2-.07-5.31,0-10.62-.02-15.93.02-.91,0-1.57-.23-2.22-.89-5.21-5.26-10.45-10.5-15.71-15.71-.66-.65-.9-1.31-.9-2.23.04-5.35.02-10.71.02-16.06,0-.4,0-.8,0-1.2-.05-1.27-.43-1.67-1.73-1.67-3.88-.02-7.76,0-11.64,0-2.63,0-5.26,0-7.89,0-.35,0-.7-.04-1.03-.06-.28-1.39-.23-11.43.07-12.51h1.43c6.25,0,12.49,0,18.74,0,1.84,0,2.05-.2,2.06-2.09,0-6.11,0-12.22,0-18.33,0-1.65-.38-1.99-2.09-2-3.08,0-6.16,0-9.23,0h-1.63v-1.52c0-5.17,0-10.35,0-15.52,0-.36.03-.72-.03-1.07-.12-.76-.59-1.16-1.36-1.21-.31-.02-.62,0-.94,0-6.2,0-12.4.01-18.6-.01-1.11,0-2.24-.04-3.32-.25-2.26-.44-3.92-1.76-4.66-3.95-.72-2.1-.46-4.13,1.06-5.88,1.17-1.34,2.6-2.14,4.39-2.25,1.37-.08,2.75-.21,4.12-.21,5.71-.02,11.42-.06,17.13.01,1.99.02,2.23-.71,2.22-2.28-.04-5.4-.01-10.79-.01-16.19v-1.54c.48-.03.87-.08,1.25-.08,3.26,0,6.51,0,9.77,0,1.62,0,1.92-.27,1.92-1.83.01-6.02,0-12.04,0-18.07,0-1.43-.36-1.8-1.79-1.92-.4-.03-.8-.01-1.2-.01-5.98-.02-11.95-.04-17.93-.06-.4,0-.8,0-1.17,0-.29-1.04-.39-9.15-.16-12.34.45-.01.92-.04,1.39-.04,6.16,0,12.31,0,18.47,0,.36,0,.72.02,1.07-.01.78-.09,1.23-.51,1.3-1.27.05-.53.03-1.07.03-1.6,0-5.44.02-10.88-.02-16.33,0-.83.24-1.41.83-1.99,5.29-5.24,10.56-10.51,15.81-15.79.55-.56,1.11-.75,1.88-.74,5.58.03,11.15.02,16.73.02.36,0,.71.01,1.07,0,.68-.04,1.05-.45,1.14-1.09.05-.4.03-.8.03-1.2,0-6.11,0-12.22,0-18.33v-1.54h12.51v19.91c0,.31-.02.63,0,.94.07.86.49,1.27,1.35,1.33.18.01.36,0,.54,0,6.25,0,12.49,0,18.74,0,1.62,0,1.92-.3,1.92-1.98,0-3.17,0-6.33,0-9.5v-1.43h1.62c5.22,0,10.44,0,15.66,0,1.69,0,2.14-.44,2.14-2.13.01-6.91.02-13.83.01-20.74,0-1.34.33-2.56,1.1-3.65,1.85-2.6,4-3,6.55-2.51,2.45.47,4.3,2.81,4.59,5.46.08.75.11,1.51.11,2.27,0,6.29,0,12.58,0,18.87,0,.36-.03.72.02,1.07.1.81.59,1.28,1.4,1.35.35.03.71,0,1.07,0h17.68c.03.55.07,1.02.07,1.48,0,2.9,0,5.8,0,8.7,0,.27,0,.54,0,.8.04,1.4.46,1.85,1.84,1.86,1.92.01,3.84,0,5.75,0,4.06,0,8.12,0,12.18,0,1.79,0,2.07-.29,2.07-2.12,0-6.24,0-12.49,0-18.74v-1.5h12.46c.02.45.05.92.05,1.39,0,6.2,0,12.4,0,18.6,0,.31-.02.63,0,.94.07.89.54,1.35,1.45,1.42.31.02.62,0,.94,0,5.53,0,11.06.01,16.6-.02.82,0,1.4.22,1.99.81,5.34,5.38,10.7,10.74,16.09,16.08.62.62.87,1.24.87,2.11-.03,5.35-.02,10.71-.02,16.06,0,.36-.02.71,0,1.07.07.96.46,1.35,1.41,1.41.31.02.62,0,.94,0h19.87v12.57h-19.82c-.36,0-.71-.01-1.07,0-.9.05-1.26.41-1.33,1.32-.02.22,0,.45,0,.67,0,6.11,0,12.22,0,18.33,0,.09,0,.18,0,.27.03,1.48.36,1.82,1.81,1.83,3.12.01,6.24,0,9.37,0h1.77v1.52c0,5.22,0,10.44,0,15.66,0,.36-.04.73.03,1.07.13.61.48,1.05,1.17,1.08.36.02.71,0,1.07,0,6.38,0,12.76-.01,19.14.01,1.02,0,2.06.08,3.05.3,2.27.5,5.05,2.87,4.73,6.57-.23,2.72-2.72,5.29-5.51,5.48-1.82.12-3.64.2-5.46.21-5.44.03-10.89,0-16.33.01-1.53,0-1.88.35-1.88,1.89,0,5.53,0,11.06,0,16.6,0,.48,0,.96,0,1.52-.5.03-.89.07-1.27.07-3.26,0-6.51,0-9.77,0-1.62,0-1.91.27-1.91,1.83,0,6.02,0,12.04,0,18.07,0,1.68.34,1.99,2.08,1.99,6.2,0,12.4,0,18.6,0h1.55v12.37c-.42.02-.89.06-1.36.06-6.11,0-12.22,0-18.33,0-.36,0-.71-.02-1.07,0-1.02.07-1.43.46-1.45,1.51-.03,1.69-.01,3.39-.01,5.08,0,1.65.02,3.3,0,4.95-.03,2.81-.11,5.61-.12,8.42,0,.64-.23,1.08-.67,1.51-5.28,5.26-10.55,10.52-15.8,15.81-.56.56-1.14.73-1.9.73-5.4-.02-10.8-.01-16.19-.01-.45,0-.89-.01-1.34.01-1.01.06-1.46.47-1.57,1.45-.04.35-.02.71-.02,1.07,0,6.11,0,12.22,0,18.33v1.49h-12.39v-1.5c0-6.11,0-12.22,0-18.33,0-.4.03-.81-.03-1.2-.13-.84-.58-1.23-1.44-1.3-.36-.03-.71-.01-1.07-.01-5.93,0-11.87,0-17.8,0-.27,0-.54-.01-.8.01-.95.08-1.33.48-1.39,1.44-.02.31,0,.62,0,.94,0,3.03,0,6.07,0,9.1,0,.48-.04.96-.07,1.56h-1.55c-5.31,0-10.62,0-15.92,0-1.56,0-1.88.32-1.88,1.87,0,6.51,0,13.02,0,19.54,0,.76-.04,1.52-.11,2.27-.26,3.02-3.3,5.71-6.48,5.5-2.87-.19-5.38-2.6-5.72-5.61-.13-1.15-.19-2.31-.19-3.46-.02-5.93,0-11.87,0-17.8,0-.36.02-.72-.01-1.07-.08-.83-.45-1.18-1.28-1.24-.4-.03-.8-.01-1.2-.01h-17.49c-.03-.59-.07-1.07-.07-1.54,0-3.21,0-6.42,0-9.64,0-1.56-.33-1.92-1.87-1.92-5.89-.02-11.78,0-17.66,0-.27,0-.54.02-.8.05-1.13.1-1.46.45-1.51,1.61-.02.36,0,.71,0,1.07v18.2c0,.48,0,.95,0,1.49Z"/>
      <path class="cls-5" d="M148.29,349.7h-14.72c-.66-.62-.88-1.36-.83-2.27.07-1.33.02-2.66.02-3.99v-1.97h-4.58c0,1.9-.04,3.71.02,5.53.03,1.01-.08,1.93-.78,2.71h-13.38c-.7-.58-.95-1.32-.9-2.24.06-1.15.01-2.31.01-3.46v-2.56h-4.59c-.02.5-.06.93-.06,1.36,0,1.55-.05,3.11.01,4.66.04.92-.2,1.65-.9,2.24h-14.72c-.66-.62-.85-1.37-.83-2.28.05-3.12-.02-6.25.04-9.37.02-.99-.3-1.65-.99-2.32-2.47-2.39-4.88-4.83-7.31-7.26-1.12-1.12-1.1-1.57,0-2.66.85-.85,1.71-1.7,2.55-2.55.61-.62,1.21-1.26,1.66-1.73-1.08-1.17-2.06-2.24-3.1-3.35-1.47,1.48-2.91,2.94-4.37,4.38-1.03,1.02-1.6,1.06-2.6.09-2.77-2.71-5.52-5.45-8.25-8.21-.85-.86-.81-1.37.06-2.28.87-.9,1.76-1.77,2.65-2.65.65-.65,1.29-1.3,1.91-1.94-1.15-1.13-2.19-2.16-3.28-3.23-.29.27-.61.57-.92.88-1.17,1.16-2.33,2.34-3.51,3.49-1.07,1.05-1.49,1.07-2.57.01-2.64-2.6-5.25-5.22-7.87-7.84-1.24-1.24-1.23-1.67.05-2.96,1.42-1.42,2.84-2.82,4.1-4.07-1.1-1.16-2.13-2.25-3.22-3.4-.6.61-1.19,1.21-1.78,1.81-.91.92-1.8,1.86-2.74,2.75-.91.86-1.4.86-2.29-.02-2.79-2.76-5.57-5.53-8.33-8.32-.81-.82-.79-1.45.04-2.3,1.25-1.27,2.53-2.52,3.79-3.78.27-.27.51-.57.57-.64-1.06-1.16-2.04-2.24-3.09-3.38-1.51,1.51-2.97,3-4.47,4.47-.98.97-1.47.97-2.5.05-.53-.48-1.03-.98-1.54-1.49-2.15-2.14-4.29-4.28-6.43-6.43-1.14-1.15-1.15-1.65-.03-2.78,1.22-1.24,2.46-2.46,3.68-3.7.24-.24.45-.52.55-.64-1.1-1.11-2.12-2.15-3.19-3.24-.25.24-.58.53-.89.84-1.23,1.23-2.45,2.47-3.7,3.68-.77.74-1.43.72-2.23.03-.17-.15-.32-.31-.48-.47-2.96-2.96-5.94-5.92-8.88-8.91-.49-.5-.96-.67-1.63-.67-2.81.03-5.62-.02-8.43.03-1.13.02-2.2-.04-3.12-.77v-14.72c.91-.73,1.97-.83,3.09-.78.84.04,1.68,0,2.53,0h2.69v-4.59c-1.88,0-3.69-.05-5.5.02-1.06.04-2.01-.09-2.82-.82v-13.38c.72-.66,1.57-.92,2.55-.81.48.05.97,0,1.46,0h4.33c.06-1.6.12-3.07-.04-4.61-1.7,0-3.25-.04-4.8.01-1.24.04-2.45,0-3.5-.76v-14.99c.92-.73,1.98-.81,3.11-.79,2.23.05,4.46.02,6.68.01.34,0,.67-.07.98-.11.26-2.19.17-50.8-.11-51.83-2.65,0-5.32-.04-7.99.02-1.02.02-1.92-.12-2.67-.84v-14.45c.71-.69,1.55-.89,2.53-.86,1.6.05,3.2.02,4.8,0,.34,0,.67-.07,1.09-.11.02-1.53.13-2.96-.08-4.5-1.94,0-3.76-.05-5.58.02-1.08.04-2.02-.15-2.76-.98v-13.12c.77-.9,1.77-1.06,2.89-1.01,1.29.05,2.58.01,3.88.01h1.6v-4.62c-1.91,0-3.74-.05-5.56.02-1.06.04-2-.1-2.81-.83v-14.72c.75-.74,1.65-.88,2.67-.86,3.08.04,6.16-.01,9.23.03.82.01,1.41-.21,2-.81,2.46-2.52,4.97-5,7.46-7.49,1.06-1.06,1.6-1.07,2.69,0,1.24,1.22,2.44,2.48,3.67,3.71.24.24.52.43.62.51,1.15-1.08,2.22-2.07,3.32-3.09-.34-.36-.64-.69-.95-1-1.23-1.23-2.47-2.45-3.68-3.7-.73-.76-.76-1.38-.06-2.09,2.83-2.85,5.67-5.68,8.53-8.5.73-.72,1.35-.71,2.09.01,1.31,1.27,2.59,2.58,3.89,3.87.28.28.58.52.81.73,1.12-1.08,2.17-2.1,3.36-3.24-1.58-1.52-3.13-2.99-4.64-4.51-.89-.89-.86-1.5.02-2.4,1.47-1.49,2.96-2.97,4.45-4.45,1.26-1.26,2.52-2.52,3.8-3.77.85-.83,1.43-.83,2.29-.01.58.55,1.13,1.14,1.71,1.7.98.96,1.96,1.92,2.84,2.77,1.15-1.09,2.21-2.09,3.32-3.14-.31-.33-.6-.65-.91-.96-1.23-1.23-2.47-2.45-3.68-3.7-.76-.79-.79-1.46-.05-2.21,2.79-2.82,5.6-5.63,8.42-8.42.69-.68,1.39-.66,2.11-.01.26.24.51.5.76.75,1.31,1.32,2.63,2.63,3.8,3.8,1.14-1.15,2.18-2.22,3.37-3.42-1.43-1.37-2.99-2.84-4.52-4.34-.86-.85-.86-1.47-.05-2.29,2.73-2.75,5.48-5.5,8.23-8.23.85-.85,1.55-.85,2.4-.01,1.17,1.16,2.33,2.34,3.49,3.51.37.37.74.72,1.05,1.02,1.15-1.12,2.2-2.13,3.3-3.21-.32-.34-.61-.67-.92-.98-1.23-1.23-2.49-2.44-3.7-3.68-.85-.88-.83-1.39,0-2.29.18-.2.38-.38.57-.57,2.72-2.71,5.41-5.44,8.17-8.11.74-.72,1.01-1.46.99-2.46-.05-3.03-.03-6.07-.01-9.1,0-1.4.35-1.74,1.75-1.75,4.24-.01,8.48-.01,12.71,0,1.3,0,1.66.37,1.67,1.68.02,1.78,0,3.57.01,5.35,0,.34.07.68.11,1.06,1.55.01,3,.07,4.52-.04,0-2.22-.02-4.27,0-6.32.02-1.34.43-1.74,1.78-1.75,3.79-.01,7.58-.01,11.38,0,1.5,0,1.82.33,1.84,1.79.02,1.69,0,3.39,0,5.08,0,.38.06.77.09,1.18h4.53c0-.5,0-.93,0-1.36,0-1.61-.01-3.21,0-4.82.01-1.56.32-1.87,1.9-1.87,4.24-.01,8.48-.01,12.71,0,1.56,0,1.87.32,1.88,1.9.01,2.45,0,4.91,0,7.36,0,.43.04.87.07,1.34h51.95v-1.53c0-2.5-.02-5,0-7.49.01-1.32.35-1.66,1.68-1.67,4.28-.01,8.57-.02,12.85,0,1.33,0,1.62.33,1.64,1.71.02,1.79,0,3.57.02,5.35,0,.34.06.68.1,1h4.56v-1.4c0-1.61-.01-3.21,0-4.82.02-1.54.3-1.84,1.78-1.85,3.79-.01,7.58-.01,11.38,0,1.48,0,1.77.31,1.78,1.84.02,1.69,0,3.39,0,5.09,0,.39.05.77.08,1.14h4.58c0-2.09,0-4.09,0-6.09,0-1.7.26-1.98,1.92-1.98,4.19,0,8.39,0,12.58,0,1.68,0,1.95.27,1.96,1.94.01,3.26.04,6.51-.02,9.77-.02,1.02.28,1.74,1.02,2.45,2.41,2.32,4.75,4.71,7.11,7.08,1.08,1.08,1.07,1.56,0,2.68-.65.67-1.32,1.33-1.98,1.99-.8.81-1.61,1.61-2.21,2.22,1.11,1.17,2.12,2.22,3.2,3.35,1.37-1.39,2.78-2.81,4.19-4.23,1.21-1.21,1.67-1.24,2.88-.04,2.48,2.44,4.9,4.94,7.4,7.36,1.57,1.51,1.7,2.04-.01,3.66-1.36,1.28-2.65,2.63-4.01,3.99,1.13,1.14,2.17,2.21,3.21,3.21,1.6-1.57,3.06-3.01,4.53-4.44,1-.98,1.64-1,2.61-.04,2.65,2.64,5.3,5.3,7.94,7.95,1.12,1.12,1.1,1.61-.05,2.78-.78.79-1.58,1.58-2.36,2.37-.66.66-1.31,1.31-1.9,1.9,1.12,1.15,2.15,2.22,3.38,3.49.29-.39.51-.79.82-1.1,1.12-1.15,2.26-2.28,3.4-3.41,1.09-1.08,1.68-1.07,2.79.04.57.57,1.13,1.14,1.7,1.71,2.04,2.06,4.09,4.11,6.12,6.18,1.05,1.06,1.05,1.54.04,2.59-.46.48-.95.95-1.42,1.42-1,1-2,2.01-3.01,3.01,1.15,1.1,2.22,2.12,3.36,3.21,1.42-1.42,2.89-2.91,4.37-4.39,1.02-1.01,1.55-1.01,2.58,0,1.87,1.85,3.73,3.71,5.6,5.57.89.88,1.79,1.75,2.64,2.66.71.76.71,1.32.02,2.1-.26.3-.56.57-.85.86-1.29,1.29-2.59,2.57-3.8,3.77,1.09,1.12,2.14,2.19,3.18,3.27.07-.04.17-.06.23-.12,1.39-1.38,2.78-2.77,4.17-4.15,1.18-1.17,1.61-1.18,2.76-.02,2.77,2.78,5.57,5.53,8.3,8.36.75.77,1.51,1.06,2.57,1.04,3.08-.07,6.16,0,9.23-.04.9-.01,1.54.26,1.98,1.03v14.19c-.42.78-1.04,1.11-1.96,1.04-1.02-.08-2.05-.02-3.07-.02h-3.1v4.61h1.39c1.6,0,3.21.04,4.81-.01.9-.03,1.55.23,1.93,1.07v13.12c-.5.62-1.11.86-1.94.83-2.03-.07-4.07-.02-6.19-.02v4.54c.49.02.92.06,1.35.06,1.6,0,3.2.04,4.8-.01.89-.03,1.54.26,1.97,1.03v14.45c-.4.81-1.02,1.09-1.94,1.07-2.49-.06-4.99-.02-7.49-.02-.39,0-.77.05-1.14.08-.29,2.24-.18,50.82.13,51.83h1.3c2.41,0,4.81.02,7.22,0,.79,0,1.48.11,1.92.85v14.45c-.45.71-1.11.86-1.92.84-1.64-.05-3.28-.02-4.93-.01-.43,0-.86.05-1.33.07v4.53c.5.02.93.07,1.36.07,1.64,0,3.29,0,4.93,0,.78,0,1.48.16,1.89.92v13.12c-.47.74-1.13,1.01-2,.97-1.33-.05-2.66-.01-3.99-.01h-2.15v4.66c2.14,0,4.18.03,6.22-.01.8-.02,1.46.13,1.92.83v14.99c-.46.82-1.16,1.06-2.09,1.04-3.17-.05-6.33.02-9.5-.04-.99-.02-1.65.3-2.32.99-2.3,2.36-4.66,4.67-7,7-.22.22-.43.45-.67.65-.69.54-1.23.53-1.91-.06-.34-.29-.65-.61-.96-.93-1.24-1.27-2.47-2.55-3.78-3.89-1.17,1.18-2.21,2.24-3.29,3.33,1.6,1.6,3.08,3.08,4.55,4.57.88.9.95,1.48.15,2.29-2.79,2.83-5.6,5.63-8.42,8.42-.75.74-1.43.7-2.22-.01-.27-.24-.51-.5-.76-.75-1.28-1.3-2.57-2.6-3.67-3.71-1.15,1.11-2.23,2.15-3.34,3.22,1.43,1.44,2.92,2.91,4.38,4.4.93.94.94,1.42.06,2.39-.63.69-1.31,1.34-1.97,2-2.08,2.08-4.15,4.17-6.25,6.24-.89.88-1.49.86-2.41.01-.3-.27-.58-.56-.86-.85-1.2-1.25-2.39-2.51-3.45-3.62-1.25,1.16-2.34,2.17-3.5,3.25,1.53,1.52,3.05,3.02,4.55,4.54.85.86.85,1.44.02,2.28-2.73,2.75-5.47,5.5-8.23,8.23-.97.96-1.49.94-2.49-.04-1.27-1.25-2.51-2.53-3.78-3.79-.24-.24-.52-.43-.65-.54-1.14,1.08-2.2,2.08-3.43,3.25.39.3.78.53,1.1.85,1.24,1.22,2.46,2.46,3.66,3.71.77.8.74,1.37,0,2.2-.24.27-.5.51-.75.76-2.46,2.46-4.91,4.93-7.38,7.38-1.11,1.1-1.55,1.09-2.68-.01-.86-.84-1.7-1.71-2.55-2.56-.62-.62-1.24-1.24-1.77-1.78-1.19,1.13-2.27,2.16-3.43,3.26,1.44,1.41,2.8,2.83,4.25,4.14,1.39,1.27,1.11,2.05.04,3.09-2.88,2.8-5.67,5.68-8.54,8.48-.6.58-.82,1.17-.8,1.99.04,2.99-.01,5.98.03,8.96.01.9-.13,1.67-.83,2.28h-14.72c-.52-.7-.7-1.48-.66-2.36.06-1.29.01-2.58.01-3.86v-2.07c-1.64,0-3.11-.07-4.66.05,0,1.89-.04,3.62.01,5.34.03,1.03-.05,2-.6,2.9h-13.65c-.65-.7-.85-1.52-.77-2.46.05-.71.01-1.43.01-2.14v-3.7h-4.6c0,2.11-.04,4.06.02,6.01.02.9-.14,1.67-.81,2.29h-14.99c-.63-.71-.74-1.56-.72-2.48.04-2.14.01-4.28.01-6.42v-1.77h-51.78c-.02.51-.06.94-.06,1.38,0,2.23-.02,4.46,0,6.69.02.95-.04,1.85-.72,2.6ZM127.06,295.57v-19.69c0-.36-.01-.71,0-1.07.06-1.16.38-1.5,1.51-1.61.27-.02.53-.05.8-.05,5.89,0,11.78-.01,17.66,0,1.54,0,1.87.36,1.87,1.92,0,3.21,0,6.42,0,9.64,0,.48.04.96.07,1.54h17.49c.4,0,.8-.02,1.2.01.83.05,1.2.41,1.28,1.24.04.35.01.71.01,1.07,0,5.93,0,11.87,0,17.8,0,1.15.06,2.31.19,3.46.34,3.01,2.85,5.42,5.72,5.61,3.18.21,6.23-2.48,6.48-5.5.07-.75.1-1.51.11-2.27,0-6.51,0-13.02,0-19.54,0-1.56.32-1.87,1.88-1.87,5.31,0,10.62,0,15.92,0h1.55c.03-.6.07-1.08.07-1.56,0-3.03,0-6.07,0-9.1,0-.31-.01-.63,0-.94.06-.96.44-1.36,1.39-1.44.27-.02.54-.01.8-.01,5.93,0,11.87,0,17.8,0,.36,0,.71-.02,1.07.01.86.07,1.31.46,1.44,1.3.06.39.03.8.03,1.2,0,6.11,0,12.22,0,18.33v1.5h12.39v-19.82c0-.36-.02-.72.02-1.07.11-.98.56-1.39,1.58-1.45.44-.02.89-.01,1.34-.01,5.4,0,10.8-.01,16.19.01.76,0,1.34-.17,1.9-.73,5.25-5.29,10.52-10.55,15.8-15.81.44-.43.67-.87.67-1.51.01-2.81.09-5.61.12-8.42.02-1.65,0-3.3,0-4.95,0-1.7-.02-3.39.01-5.08.02-1.04.43-1.44,1.45-1.51.36-.02.71,0,1.07,0,6.11,0,12.22,0,18.33,0,.47,0,.93-.04,1.36-.06v-12.37h-1.55c-6.2,0-12.4,0-18.6,0-1.74,0-2.08-.31-2.08-1.99-.01-6.02-.01-12.04,0-18.07,0-1.56.3-1.83,1.91-1.83,3.26,0,6.51,0,9.77,0,.39,0,.78-.04,1.27-.07v-1.52c0-5.53,0-11.06,0-16.6,0-1.54.35-1.88,1.88-1.89,5.44,0,10.89.01,16.33-.01,1.82,0,3.65-.09,5.46-.21,2.79-.19,5.28-2.76,5.52-5.48.32-3.7-2.46-6.07-4.73-6.57-.99-.22-2.03-.29-3.05-.3-6.38-.02-12.76-.01-19.14-.01-.36,0-.71,0-1.07,0-.69-.03-1.04-.47-1.17-1.08-.07-.34-.03-.71-.03-1.07,0-5.22,0-10.44,0-15.66v-1.52h-1.77c-3.12,0-6.25,0-9.37,0-1.46,0-1.79-.36-1.81-1.83,0-.09,0-.18,0-.27,0-6.11,0-12.22,0-18.33,0-.22-.01-.45,0-.67.08-.91.43-1.27,1.33-1.32.36-.02.71,0,1.07,0h19.82v-12.57h-19.87c-.31,0-.62.01-.94,0-.95-.06-1.35-.45-1.41-1.41-.02-.35,0-.71,0-1.07,0-5.35-.02-10.71.02-16.06,0-.87-.24-1.49-.87-2.11-5.39-5.34-10.75-10.7-16.09-16.08-.59-.59-1.17-.82-1.99-.81-5.53.03-11.06.02-16.59.02-.31,0-.62.02-.94,0-.9-.07-1.38-.54-1.45-1.42-.02-.31,0-.62,0-.94,0-6.2,0-12.4,0-18.6,0-.47-.04-.94-.05-1.39h-12.46v1.5c0,6.25,0,12.49,0,18.74,0,1.83-.28,2.12-2.07,2.12-4.06,0-8.12,0-12.18,0-1.92,0-3.84.01-5.75,0-1.38-.01-1.8-.46-1.84-1.86,0-.27,0-.54,0-.8,0-2.9,0-5.8,0-8.7,0-.47-.04-.93-.07-1.48h-17.68c-.36,0-.72.02-1.07,0-.81-.08-1.3-.54-1.4-1.35-.04-.35-.01-.71-.01-1.07,0-6.29,0-12.58,0-18.87,0-.76-.03-1.52-.11-2.27-.28-2.66-2.14-4.99-4.59-5.46-2.55-.49-4.7-.09-6.55,2.51-.77,1.08-1.1,2.31-1.1,3.65,0,6.91,0,13.83-.01,20.74,0,1.69-.45,2.13-2.14,2.13-5.22,0-10.44,0-15.66,0h-1.62v1.43c0,3.17,0,6.34,0,9.5,0,1.68-.3,1.98-1.92,1.98-6.25,0-12.49,0-18.74,0-.18,0-.36,0-.54,0-.85-.06-1.27-.47-1.35-1.33-.03-.31,0-.62,0-.94v-19.91h-12.51v1.54c0,6.11,0,12.22,0,18.33,0,.4.03.81-.03,1.2-.09.65-.46,1.05-1.14,1.09-.35.02-.71,0-1.07,0-5.58,0-11.15.01-16.73-.02-.77,0-1.32.19-1.88.74-5.25,5.28-10.52,10.55-15.82,15.79-.58.58-.83,1.16-.83,1.99.03,5.44.02,10.88.02,16.33,0,.54.02,1.07-.03,1.6-.08.77-.52,1.19-1.3,1.27-.35.04-.71.01-1.07.01-6.16,0-12.31,0-18.47,0-.47,0-.94.03-1.39.04-.24,3.19-.14,11.3.16,12.34.38,0,.78,0,1.17,0,5.98.02,11.95.04,17.93.06.4,0,.81-.02,1.2.01,1.42.12,1.78.49,1.79,1.92.01,6.02.01,12.04,0,18.07,0,1.56-.31,1.82-1.92,1.83-3.26,0-6.51,0-9.77,0-.39,0-.77.05-1.25.08v1.54c0,5.4-.02,10.79.01,16.19,0,1.57-.23,2.31-2.22,2.28-5.71-.07-11.42-.04-17.13-.01-1.37,0-2.75.13-4.12.21-1.79.11-3.22.91-4.39,2.25-1.53,1.76-1.78,3.78-1.06,5.88.75,2.19,2.4,3.51,4.66,3.95,1.08.21,2.21.25,3.32.25,6.2.02,12.4.01,18.6.01.31,0,.63-.02.94,0,.77.06,1.23.46,1.35,1.21.06.35.03.71.03,1.07,0,5.18,0,10.35,0,15.52v1.52h1.63c3.08,0,6.16,0,9.23,0,1.71,0,2.08.35,2.09,2,0,6.11,0,12.22,0,18.33,0,1.89-.22,2.09-2.06,2.09-6.24,0-12.49,0-18.74,0h-1.43c-.3,1.08-.34,11.12-.07,12.51.33.02.68.06,1.03.06,2.63,0,5.26,0,7.9,0,3.88,0,7.76-.01,11.64,0,1.29,0,1.67.4,1.73,1.67.02.4,0,.8,0,1.2,0,5.35.02,10.71-.02,16.06,0,.92.24,1.58.9,2.23,5.26,5.21,10.5,10.45,15.71,15.71.66.66,1.31.9,2.22.89,5.31-.04,10.62-.02,15.92-.02.67,0,1.34,0,2,.07.72.08,1.1.5,1.16,1.23.03.35,0,.71,0,1.07,0,6.2,0,12.4,0,18.6,0,.47.04.94.06,1.44,4.19,0,8.24,0,12.45,0ZM146.02,300.96c.27-1.66.21-23.96-.04-24.93-2.13-.27-15.17-.17-16.16.15v1.44c0,6.15-.03,12.31.02,18.46.01,1.54-.4,2.28-2.29,2.25-4.5-.08-9.01-.02-13.51-.02-.27,0-.54.02-.8,0-.82-.08-1.29-.53-1.38-1.35-.04-.35-.02-.71-.02-1.07,0-6.15,0-12.31,0-18.46,0-.47-.04-.94-.07-1.41h-16.8c-.28,1.62-.21,23.93.09,24.96,1.71,0,3.45-.02,5.18,0,1.34.02,1.76.43,1.77,1.77.02,1.83,0,3.66.01,5.48,0,.34.07.68.11,1.08,1.48,0,2.86-.02,4.24,0,1.19.02,1.65.5,1.74,1.71,0,.13,0,.27.01.4.17,4.04,1.77,7.41,4.76,10.11,4.15,3.75,10.22,4,14.59.54,3.25-2.58,4.95-6.02,5.33-10.11.24-2.54.32-2.66,2.9-2.66,1.14,0,2.29,0,3.52,0,0-2.04.05-3.9-.01-5.77-.08-2.36.5-2.66,2.61-2.58,1.42.05,2.83,0,4.22,0ZM101.98,40.32v1.53c0,1.65,0,3.3,0,4.95,0,1.52-.47,1.96-2.01,1.98-1.29.01-2.59,0-3.88,0-.34,0-.67.08-.98.12-.27,3.08-.15,23.81.13,24.77h16.13v-19.84c0-.36-.02-.72.01-1.07.08-.82.52-1.29,1.34-1.43.26-.04.53-.04.8-.04,4.59,0,9.19,0,13.78,0,.27,0,.54,0,.8.05.77.15,1.16.57,1.24,1.36.04.35.02.71.02,1.07,0,6.15,0,12.31,0,18.46v1.4h16.97c.25-2.82.14-23.81-.14-24.86-1.67,0-3.36.01-5.05,0-1.46-.01-1.93-.48-1.95-1.91-.01-1.83,0-3.66,0-5.49,0-.34-.07-.67-.12-1.06-1.39,0-2.68,0-3.97,0-1.57,0-1.87-.4-2.05-1.95-.17-1.49-.35-3.03-.86-4.43-1.29-3.58-3.57-6.41-7.14-7.91-3.8-1.6-8.83-1.15-12.45,2.56-2.6,2.66-4.07,5.81-4.23,9.54-.08,1.93-.37,2.19-2.34,2.2-1.28,0-2.57,0-4.04,0ZM40.49,138.62c.26.09.35.14.43.14,1.74,0,3.48.07,5.22,0,2.5-.1,2.9.36,2.82,2.79-.05,1.36,0,2.73,0,4.1h24.83c.25-2.32.15-15.25-.12-16.26h-1.31c-6.11,0-12.22-.01-18.33-.02-.36,0-.72.02-1.07-.01-.78-.07-1.32-.56-1.45-1.33-.04-.26-.03-.53-.03-.8,0-4.59,0-9.19,0-13.78,0-.22-.01-.45.02-.67.12-.91.57-1.32,1.5-1.38.36-.02.71,0,1.07,0,6.11,0,12.22,0,18.33,0,.47,0,.95-.04,1.4-.05v-16.92c-2.57-.25-23.82-.15-24.83.13,0,1.72.02,3.45,0,5.19-.02,1.27-.53,1.78-1.79,1.8-1.47.02-2.94,0-4.41,0h-2.24c0,1.48.01,2.8,0,4.13-.01,1.53-.44,1.99-2,2-4.24.04-7.64,1.85-10.4,4.96-3.42,3.85-3.76,9.71-.71,13.85,2.68,3.65,6.35,5.63,10.9,5.88,1.91.1,2.2.37,2.21,2.33,0,1.29,0,2.57,0,3.91ZM204.03,73.41c1.64.26,15.23.2,16.29-.08v-5.17c0-4.95,0-9.9,0-14.85,0-.68-.04-1.41.63-1.78.4-.22.93-.27,1.4-.27,4.24-.02,8.48-.01,12.71-.01.62,0,1.25-.02,1.87.02.89.06,1.27.45,1.36,1.33.04.35.01.71.01,1.07v19.73c1.62.27,15.96.21,16.96-.04v-24.76c-1.78,0-3.47,0-5.16,0-1.54,0-1.94-.42-1.95-2,0-1.61,0-3.21,0-4.82v-1.36c-.25-.09-.33-.14-.42-.14-1.11-.01-2.23-.01-3.35-.03-1.88-.02-2.27-.39-2.38-2.24-.2-3.36-1.39-6.33-3.6-8.87-3.15-3.63-7.92-5.04-12.35-3.54-3.24,1.1-5.48,3.41-7.1,6.36-1.09,1.99-1.61,4.13-1.68,6.4-.04,1.35-.55,1.82-1.9,1.88-.71.03-1.43,0-2.14.01-.74.01-1.47.04-2.29.06v1.61c0,1.69.02,3.39,0,5.08-.02,1.09-.48,1.53-1.55,1.57-.45.02-.89,0-1.34,0h-4.03c0,8.35,0,16.55,0,24.82ZM276.28,111.19h1.56c6.02,0,12.04,0,18.07,0,.4,0,.8,0,1.2.02.88.06,1.32.44,1.46,1.26.04.26.03.53.03.8,0,4.59,0,9.19,0,13.78,0,1.73-.39,2.09-2.15,2.09-6.25,0-12.49,0-18.74,0h-1.43v16.93h24.87c0-1.77-.01-3.46,0-5.15.01-1.49.41-1.91,1.9-1.93,1.74-.03,3.48,0,5.22-.01.38,0,.77-.05,1.27-.09,0-1.4-.01-2.68,0-3.97.02-1.59.36-1.91,1.96-2.03,3.48-.26,6.59-1.43,9.24-3.74,3.74-3.26,5.02-8.63,2.98-13.16-1.75-3.91-4.89-6.27-8.96-7.41-1.14-.32-2.37-.35-3.57-.49-1.23-.14-1.63-.54-1.66-1.8-.03-1.12,0-2.23-.01-3.35,0-.34-.05-.69-.09-1.1-.51-.02-.95-.06-1.39-.06-1.61,0-3.21,0-4.82,0-1.64,0-2.08-.45-2.1-2.03,0-.36,0-.71,0-1.07v-3.77h-24.87c0,5.42,0,10.75,0,16.29ZM73.73,220.16c.29-2.02.2-15.99-.09-16.91h-24.64c-.03.46-.08.84-.08,1.23-.01,1.25,0,2.5,0,3.74-.01,1.7-.42,2.1-2.15,2.11-1.69,0-3.39,0-5.08,0-.38,0-.76.07-1.21.11,0,1.38,0,2.62,0,3.87,0,1.74-.28,2.04-1.97,2.13-3.31.17-6.26,1.24-8.81,3.39-3.95,3.33-5.4,8.17-3.74,12.74,1.18,3.27,3.5,5.54,6.53,7.11,1.96,1.02,4.08,1.49,6.29,1.59,1.29.06,1.65.42,1.69,1.7.01.4,0,.8,0,1.2,0,1.06,0,2.12,0,3.35h1.57c1.69,0,3.39-.03,5.08.02,1.29.04,1.76.54,1.79,1.82.02.8,0,1.61,0,2.41.01.87.04,1.75.05,2.6,2.29.27,23.85.17,24.81-.1.26-2.36.15-15.16-.15-16.16h-19.9c-1.94,0-2.29-.34-2.29-2.21,0-4.5,0-9.01,0-13.51,0-1.86.38-2.23,2.3-2.23,6.15,0,12.31,0,18.46,0,.49,0,.98,0,1.54,0ZM309.47,210.59c-.48-.02-.87-.06-1.26-.06-1.78,0-3.57,0-5.35,0-1.21-.01-1.67-.49-1.71-1.7-.02-.58,0-1.16,0-1.74v-3.44h-24.86v16.28h1.54c6.06,0,12.13,0,18.19,0,2.24,0,2.51.27,2.51,2.56v12.44c0,.49.02.98,0,1.47-.06,1.05-.51,1.5-1.59,1.57-.36.02-.71,0-1.07,0-6.02,0-12.04,0-18.06,0-.51,0-1.02.04-1.52.06v16.85h24.81c.02-.29.05-.5.05-.72,0-1.52-.01-3.03,0-4.55.02-1.35.51-1.83,1.86-1.86,1.02-.02,2.05,0,3.08,0h3.38c.03-.58.06-1.02.07-1.45,0-.98-.02-1.96.02-2.94.05-1.1.45-1.53,1.52-1.68.26-.04.53-.03.8-.05,3.85-.28,7.13-1.78,9.77-4.62,3.79-4.08,4.12-10.17.72-14.59-2.18-2.83-5.04-4.61-8.57-5.23-.79-.14-1.59-.2-2.38-.25-1.34-.08-1.82-.54-1.86-1.9-.02-1.02,0-2.05,0-3.08,0-.43-.04-.87-.07-1.36ZM210.85,309.31c1.39,0,2.63-.01,3.87,0,1.72.02,2.02.29,2.19,1.95.03.27.07.53.09.8.22,2.98,1.35,5.6,3.21,7.92,4.46,5.55,12.08,6.04,17.18,1.09,2.72-2.64,4.04-5.92,4.3-9.67.12-1.73.45-2.08,2.2-2.1,1.33-.02,2.66,0,4.09,0,.02-.56.06-.99.06-1.42,0-1.78-.02-3.57.02-5.35.02-1.15.41-1.51,1.54-1.56.62-.03,1.25-.01,1.87-.01,1.14,0,2.29,0,3.46,0v-24.9h-16.25v1.5c0,6.07-.02,12.13.02,18.2.01,1.85-.17,2.63-2.5,2.58-4.1-.09-8.21-.02-12.31-.02-.58,0-1.16.02-1.74,0-.9-.04-1.4-.48-1.51-1.36-.04-.35-.02-.71-.02-1.07,0-6.11,0-12.22,0-18.33v-1.49h-16.9v24.84c.5.02.93.06,1.37.06,1.38.01,2.77-.02,4.15.02,1.05.03,1.52.51,1.6,1.56.03.36,0,.71,0,1.07,0,1.83,0,3.65,0,5.7ZM332.75,258.2c-.33-.02-.58-.05-.83-.05-9.41,0-18.83,0-28.24-.02-.77,0-1.23.32-1.72.81-4.36,4.35-8.74,8.67-13.1,13.01-10.05,10.02-20.08,20.04-30.13,30.05-.65.64-.94,1.28-.93,2.21.03,9.19.02,18.38.02,27.57v1.17c2.23-2.22,4.45-4.42,6.86-6.81-.23-.17-.64-.39-.96-.69-1.22-1.18-2.42-2.38-3.6-3.59-.87-.9-.89-1.44-.07-2.29,1.65-1.7,3.32-3.37,5-5.03.66-.65,1.43-.63,2.12.03.96.93,1.89,1.89,2.84,2.84.62.62,1.24,1.24,1.74,1.74,2.29-2.29,4.47-4.47,6.81-6.81-.28-.22-.7-.5-1.04-.84-1.21-1.18-2.42-2.38-3.6-3.6-.77-.79-.83-1.39-.15-2.1,1.7-1.77,3.44-3.5,5.2-5.21.62-.61,1.36-.56,2.02.08,1.03.99,2.01,2.02,3.02,3.04.56.56,1.12,1.12,1.53,1.52,2.28-2.29,4.46-4.48,6.76-6.78-1.36-1.32-2.84-2.73-4.29-4.18-1.15-1.14-1.13-1.6.04-2.77,1.29-1.3,2.62-2.55,3.88-3.88,1.54-1.62,1.99-1.89,3.72-.01,1.26,1.37,2.63,2.65,3.8,3.82,2.28-2.29,4.48-4.49,6.7-6.72.05.09.03.04,0,0-1.44-1.46-2.89-2.91-4.33-4.37-1-1.02-1.01-1.59,0-2.59,1.48-1.48,2.98-2.94,4.47-4.42,1.17-1.17,1.66-1.16,2.86.04,1.44,1.45,2.89,2.89,4.17,4.17,2.28-2.26,4.49-4.45,6.81-6.74-1.39-1.36-2.8-2.84-4.32-4.2-1-.9-1.06-1.9-.06-2.83,1.57-1.46,3.03-3.02,4.56-4.52.91-.9,1.55-.86,2.48.08,1.26,1.26,2.52,2.53,3.78,3.79.24.24.5.45.74.65,1.83-1.86,3.58-3.64,5.45-5.54ZM79.23,319.95c1.52-1.51,3.04-3.02,4.55-4.53.85-.85,1.55-.86,2.4-.04.71.68,1.38,1.39,2.08,2.08.92.91,1.86,1.8,2.76,2.73.77.8.77,1.41.03,2.2-.43.46-.88.88-1.32,1.33-1.12,1.13-2.24,2.26-3.44,3.48,1.88,1.84,3.67,3.59,5.46,5.34.09-.04.18-.09.27-.13v-1.43c0-8.25,0-16.5,0-24.76,0-1.07.28-2.27-.12-3.17-.44-1-1.48-1.75-2.29-2.57-7.34-7.42-14.69-14.83-22.03-22.25-6.62-6.69-13.24-13.38-19.85-20.08-.48-.49-.94-.83-1.71-.83-9.5.03-19,.02-28.5.03-.27,0-.54.08-.76.12,2.35,2.35,4.65,4.65,7.05,7.06,1.45-1.48,2.93-3.01,4.44-4.52.94-.95,1.52-.94,2.48.01,1.46,1.44,2.91,2.9,4.35,4.35,1.36,1.36,1.35,1.67-.01,3.04-.63.63-1.26,1.26-1.89,1.89-.78.78-1.55,1.57-2.16,2.18,2.26,2.26,4.46,4.45,6.73,6.73,1.36-1.37,2.83-2.87,4.31-4.34,1.02-1.02,1.56-1.02,2.58,0,1.46,1.44,2.91,2.89,4.36,4.34,1.34,1.34,1.33,1.71-.01,3.06-.69.7-1.38,1.4-2.08,2.08-.73.71-1.49,1.4-2.11,1.98,2.31,2.31,4.5,4.5,6.75,6.75.23-.21.55-.5.86-.81,1.2-1.2,2.38-2.41,3.59-3.6.91-.89,1.59-.88,2.5.03,1.48,1.48,2.96,2.97,4.43,4.46,1.19,1.19,1.19,1.68,0,2.88-.69.7-1.39,1.39-2.08,2.08-.75.76-1.49,1.52-2.12,2.14,2.24,2.27,4.41,4.48,6.62,6.72.28-.27.61-.57.92-.88,1.2-1.2,2.39-2.41,3.6-3.6.82-.8,1.54-.84,2.32-.08,1.66,1.62,3.3,3.26,4.92,4.92.81.83.78,1.43-.07,2.29-1.19,1.21-2.4,2.4-3.59,3.6-.34.34-.66.69-.93.98,2.25,2.26,4.42,4.43,6.69,6.71ZM17.51,91.48c.23.02.57.07.92.07,9.14,0,18.29,0,27.43.02.84,0,1.4-.28,1.98-.86,5.47-5.44,10.97-10.85,16.46-16.27,9.01-8.91,18-17.82,27.02-26.71.62-.61.9-1.22.89-2.1-.03-9.19-.02-18.38-.02-27.57,0-.42-.05-.85-.08-1.35-2.25,2.32-4.4,4.53-6.57,6.78.44.44,1.03,1.05,1.63,1.64.95.94,1.92,1.87,2.85,2.83.66.68.75,1.4.16,2.01-1.73,1.8-3.5,3.56-5.3,5.3-.69.66-1.24.6-1.99-.11-1.07-1.01-2.08-2.08-3.12-3.12-.53-.53-1.06-1.05-1.39-1.38-2.31,2.28-4.51,4.46-6.77,6.69,1.43,1.42,2.96,2.92,4.46,4.44.88.89.91,1.42.07,2.27-1.62,1.66-3.26,3.3-4.92,4.92-.79.76-1.39.73-2.21,0-.26-.24-.51-.5-.76-.75-1.28-1.3-2.56-2.6-3.74-3.8-2.28,2.28-4.47,4.47-6.72,6.72.2.22.49.55.79.86,1.16,1.17,2.34,2.33,3.5,3.5,1.03,1.05,1.04,1.55.03,2.58-1.47,1.49-2.96,2.97-4.45,4.45-1.19,1.18-1.68,1.15-2.87-.04-1.44-1.44-2.9-2.85-4.35-4.28-2.25,2.27-4.41,4.44-6.66,6.7.31.33.64.68.98,1.02,1.23,1.23,2.48,2.44,3.69,3.69.74.76.72,1.32.01,2.08-.52.55-1.07,1.08-1.6,1.61-1.1,1.1-2.19,2.22-3.32,3.31-.89.87-1.48.85-2.41-.01-.29-.27-.57-.56-.85-.85-1.22-1.23-2.44-2.47-3.55-3.59-2.29,2.29-4.48,4.49-6.76,6.77,1.35,1.35,2.79,2.8,4.24,4.24,1.14,1.14,1.18,1.59.04,2.78-1.45,1.51-2.96,2.97-4.45,4.44-1.05,1.03-1.55,1.04-2.59.02-1.28-1.25-2.52-2.53-3.78-3.79-.24-.24-.52-.43-.6-.5-1.84,1.84-3.6,3.59-5.35,5.35ZM258.26,28.78c-.03.31-.07.52-.07.74,0,5.53.01,11.06-.02,16.59,0,.77.35,1.23.83,1.72,14.4,14.42,28.8,28.83,43.18,43.27.61.61,1.21.89,2.09.89,9.14-.03,18.28-.02,27.42-.02h1.14c-2.24-2.24-4.42-4.42-6.77-6.77-.23.3-.49.73-.83,1.08-1.15,1.18-2.31,2.36-3.5,3.5-.86.82-1.48.82-2.3.01-1.63-1.59-3.24-3.19-4.83-4.81-.9-.92-.89-1.45.02-2.38,1.28-1.3,2.6-2.58,3.88-3.87.24-.24.43-.52.54-.65-2.25-2.27-4.42-4.45-6.65-6.69-1.39,1.41-2.83,2.88-4.28,4.33-1.17,1.17-1.69,1.15-2.89-.02-1.3-1.28-2.6-2.57-3.89-3.86-1.75-1.74-1.74-1.91-.02-3.63,1.31-1.31,2.63-2.63,3.89-3.9-2.29-2.29-4.48-4.49-6.73-6.74-1.41,1.42-2.88,2.91-4.37,4.39-1.11,1.1-1.52,1.1-2.66-.02-1.46-1.44-2.9-2.9-4.34-4.36-1.22-1.24-1.21-1.66,0-2.86,1.45-1.44,2.89-2.89,4.2-4.19-2.26-2.26-4.45-4.45-6.7-6.7-.22.21-.55.5-.86.81-1.17,1.16-2.32,2.35-3.51,3.5-1.05,1.02-1.55,1.02-2.6,0-1.5-1.47-2.97-2.96-4.45-4.44-1.18-1.19-1.17-1.67.04-2.87,1.45-1.44,2.91-2.88,4.36-4.31-1.56-1.9-5.99-6.2-7.01-6.73-.33.39-.68.86-1.08,1.28-1.12,1.15-2.25,2.29-3.41,3.4-.76.73-1.35.74-2.1.02-1.89-1.83-3.74-3.69-5.72-5.66ZM347.05,224.42c-2.22,0-4.31.01-6.4,0-1.29,0-1.79-.49-1.8-1.76-.02-2.23-.02-4.46,0-6.69.01-1.23.46-1.68,1.7-1.7,1.83-.02,3.66,0,5.48-.01.33,0,.67-.07.99-.11v-10.51h-43.02c.05,1.4-.15,2.72.15,4.13.51,0,.95,0,1.39,0,1.69,0,3.39-.02,5.08.01,1.32.03,1.71.46,1.74,1.81.01.67,0,1.34,0,2.01.01.83.03,1.66.05,2.49.36.07.57.13.79.15,3.4.31,6.34,1.69,8.93,3.85,6.09,5.09,6.89,12.9,3.24,18.65-2.43,3.83-5.98,6.16-10.36,7.23-.85.21-1.72.36-2.65.55,0,1.46.01,2.84,0,4.22-.02,1.35-.5,1.83-1.87,1.85-1.16.02-2.32,0-3.48,0h-3.02v4.26h43.04v-10.82c-.5-.02-.94-.06-1.37-.06-1.65,0-3.3,0-4.95,0-1.45,0-1.86-.39-1.87-1.78-.02-2.18-.02-4.37,0-6.55.01-1.28.5-1.78,1.77-1.8,1.74-.03,3.48,0,5.22-.01.39,0,.77-.05,1.22-.08,0-3.1,0-6.11,0-9.32ZM347.03,94.92h-42.94v4h5.82c.27,0,.54-.01.8,0,1.1.07,1.62.57,1.64,1.67.03,1.55,0,3.1,0,4.66.4.06.66.1.92.14,4.35.57,7.94,2.54,10.78,5.85,3.42,3.97,4.31,8.54,2.78,13.5-1.5,4.85-4.97,7.93-9.61,9.73-1.52.59-3.15.88-4.88,1.35,0,1.29.01,2.71,0,4.13-.02,1.32-.46,1.76-1.76,1.78-1.65.01-3.3,0-4.95,0h-1.65c0,1.28,0,2.39,0,3.5,0,.26.06.52.09.76,1.47.26,41.95.21,42.92-.05.24-2.18.14-9.71-.17-10.71-2.02,0-4.07.01-6.11,0-1.38-.01-1.86-.5-1.87-1.85-.02-2.14-.02-4.28,0-6.42,0-1.42.41-1.84,1.82-1.85,1.78-.02,3.57,0,5.35-.01.33,0,.67-.08.97-.11v-9.4h-1.41c-1.61,0-3.21.01-4.82,0-1.51-.02-1.91-.41-1.92-1.91-.01-2.1-.01-4.19,0-6.29,0-1.47.43-1.93,1.9-1.96,1.69-.04,3.39,0,5.08-.01.38,0,.77-.06,1.18-.1,0-3.51,0-6.92,0-10.38ZM46.03,94.44c-3.31-.3-42.04-.17-43.06.16.02,3.52-.03,7.07.03,10.7,2.27,0,4.36-.02,6.45,0,1.31.01,1.75.47,1.76,1.78.02,2.14.01,4.28,0,6.42,0,1.44-.49,1.93-1.91,1.95-1.69.02-3.39,0-5.08,0-.38,0-.77.06-1.15.09v9.33h1.42c1.65,0,3.3-.02,4.95,0,1.22.02,1.76.52,1.77,1.68.03,2.27.03,4.55,0,6.82-.01,1.09-.56,1.61-1.66,1.63-1.83.02-3.66,0-5.48.01-.34,0-.68.07-1.03.1v10.53h42.94v-4.12h-1.41c-1.65,0-3.3.01-4.95,0-1.52-.01-1.89-.39-1.9-1.91-.01-1.42,0-2.84,0-4.29-.39-.1-.68-.22-.98-.26-4.27-.51-7.81-2.45-10.6-5.65-3.88-4.44-4.82-9.59-2.46-14.94,2.38-5.37,6.83-8.4,12.62-9.43.46-.08.92-.18,1.41-.27,0-1.43,0-2.73,0-4.02.01-1.61.43-2.04,2.07-2.06,1.74-.02,3.48,0,5.22-.01.34,0,.67-.07,1.02-.12,0-1.43,0-2.75,0-4.15ZM94.9,303.77v42.93h10.83v-1.4c0-1.65-.02-3.3,0-4.95.02-1.2.42-1.69,1.56-1.72,2.36-.05,4.73-.05,7.09,0,1.09.03,1.48.5,1.51,1.63.03,1.38,0,2.77,0,4.15,0,.75,0,1.49,0,2.3h9.37c.02-.5.06-.94.06-1.38,0-1.65-.02-3.3.01-4.95.02-1.14.42-1.71,1.41-1.74,2.45-.06,4.9-.07,7.35,0,1.01.02,1.35.5,1.37,1.61.03,1.69,0,3.39,0,5.08,0,.43.04.87.06,1.28,1.47.27,9.6.22,10.56-.04v-42.82h-3.98c-.02.5-.06.94-.06,1.37,0,1.74.02,3.48-.01,5.22-.02,1.17-.5,1.66-1.59,1.74-.35.03-.71,0-1.07.01h-3.63c-.11.5-.23.88-.28,1.26-.54,3.64-2.1,6.78-4.63,9.45-5.55,5.86-14.9,5.95-20.36.35-2.41-2.47-4.16-5.33-4.81-8.77-.14-.73-.28-1.46-.43-2.29-1.41,0-2.74.01-4.08,0-1.5-.02-1.92-.42-1.93-1.9-.02-1.61,0-3.21,0-4.82v-1.62c-1.54,0-2.9,0-4.33,0ZM234.19,346.77c0-2.23-.01-4.27,0-6.32.01-1.35.4-1.75,1.77-1.77,2.18-.03,4.37-.03,6.56,0,1.41.02,1.83.46,1.84,1.85.02,1.56,0,3.12,0,4.68v1.53h10.54c.28-1.96.19-42.02-.1-43.02-1.29,0-2.6-.08-3.92.05-.02.49-.05.8-.05,1.11,0,1.83.01,3.66,0,5.48-.01,1.28-.5,1.75-1.78,1.8-.45.02-.89,0-1.34,0h-3.2c-.06.44-.1.69-.13.95-.41,2.92-1.45,5.6-3.22,7.97-4.15,5.55-10.14,7.46-16.17,5.53-5.53-1.77-8.72-5.94-10.31-11.4-.28-.97-.41-1.98-.63-3.05-1.44,0-2.81.02-4.19,0-1.35-.02-1.84-.52-1.85-1.87-.02-1.83,0-3.66-.01-5.48,0-.34-.07-.68-.1-.99h-4.15c-.29,3.02-.15,42.03.14,42.96h10.71v-1.37c0-1.65-.02-3.3,0-4.95.02-1.38.37-1.76,1.75-1.78,2.18-.03,4.37-.03,6.55,0,1.39.02,1.84.48,1.86,1.85.02,1.74,0,3.48.01,5.22,0,.34.07.68.11,1.03,3.11,0,6.12,0,9.3,0ZM146.32,45.88V2.87h-10.88v1.37c0,1.65.01,3.3,0,4.95-.01,1.37-.49,1.86-1.84,1.87-2.14.02-4.28.02-6.42,0-1.41-.01-1.87-.51-1.88-1.97-.01-1.74,0-3.48,0-5.22,0-.34-.07-.67-.1-.97h-9.33v1.43c0,1.61.01,3.21,0,4.82-.02,1.41-.52,1.91-1.95,1.92-2.14.01-4.28.02-6.42,0-1.28-.01-1.78-.51-1.8-1.77-.02-1.56,0-3.12,0-4.68v-1.73h-10.57v42.96h3.98c.02-.51.06-.94.06-1.38,0-1.52,0-3.03,0-4.55,0-.31-.02-.63.02-.94.11-.96.56-1.37,1.61-1.39,1.55-.03,3.1,0,4.65,0,.1-.44.2-.73.24-1.04.44-4.14,2.41-7.48,5.32-10.36,4.87-4.8,12.59-4.85,17.26-1.62,4.16,2.87,6.75,6.78,7.47,11.85.05.38.15.75.23,1.17,1.45,0,2.79-.01,4.12,0,1.51.02,1.91.41,1.93,1.89.02,1.74,0,3.48.01,5.22,0,.38.06.76.1,1.18,1.43,0,2.76,0,4.2,0ZM214.41,37.38c.1-.48.18-.82.23-1.17.26-2.06.87-4.01,1.93-5.79,2.36-3.97,5.47-7.06,10.23-7.9,1.52-.27,3.11-.2,4.66-.15,1.48.04,2.9.45,4.21,1.15,5.11,2.73,8.07,6.99,9,12.69.06.38.16.75.25,1.17,1.4,0,2.69-.01,3.98,0,1.61.02,2.09.5,2.1,2.07.01,1.65,0,3.3,0,4.95,0,.43.04.86.07,1.34h4.16c.26-1.96.17-42.03-.08-42.95-2.04-.23-9.66-.14-10.74.15v1.28c0,1.69.02,3.39-.01,5.08-.02,1.08-.48,1.55-1.56,1.56-2.32.03-4.64.02-6.96,0-1.14-.01-1.61-.49-1.64-1.63-.03-1.38,0-2.76,0-4.15,0-.75,0-1.5,0-2.31h-9.41v1.39c0,1.65.02,3.3,0,4.95-.02,1.3-.47,1.75-1.79,1.75-2.23.02-4.46.02-6.69,0-1.25-.01-1.67-.44-1.68-1.71-.02-1.78,0-3.57-.01-5.35,0-.34-.07-.68-.1-1.01h-10.45c-.28,2.24-.18,42.01.1,42.95h3.91c.03-.51.07-.95.07-1.38,0-1.56,0-3.12,0-4.68,0-1.96.34-2.29,2.36-2.3,1.25,0,2.49,0,3.87,0ZM3.01,214.04c2.15,0,4.16-.02,6.16,0,1.53.02,2.02.5,2.03,2,.01,2.05.01,4.1,0,6.16,0,1.56-.44,2-1.96,2.01-1.74.01-3.48,0-5.22,0-.34,0-.68.07-.99.1v9.36c.52.02.95.06,1.39.06,1.65,0,3.3-.02,4.95.01,1.39.03,1.81.48,1.83,1.88.02,2.1.02,4.19,0,6.29-.01,1.43-.5,1.92-1.93,1.94-1.69.02-3.39,0-5.08.01-.38,0-.76.07-1.17.11v10.44h42.97v-4.03h-1.37c-1.69,0-3.39.01-5.08,0-1.39-.01-1.81-.45-1.84-1.85-.01-.98,0-1.96,0-2.94,0-.51-.03-1.03-.04-1.51-5.12-.77-8.34-2.32-11.38-5.64-4.01-4.37-4.95-9.51-2.76-14.9,2.14-5.26,6.4-8.3,11.93-9.52.72-.16,1.46-.26,2.25-.4v-1.01c0-1.12-.02-2.23,0-3.35.03-1.24.46-1.65,1.73-1.68.67-.02,1.34,0,2.01,0h4.57c.09-1.54.08-2.93.02-4.31H3.01c0,3.6,0,7.1,0,10.77ZM308.69,200.47c0-.55,0-1.02,0-1.5,0-2.1-.02-4.19.02-6.29.02-1.17.48-1.63,1.6-1.7,4.19-.26,7.46-2.21,9.95-5.5,3.37-4.47,4.26-9.54,3.31-14.95-1.21-6.93-6.83-12.96-13.28-12.96-1.13,0-1.55-.54-1.57-1.73-.04-1.74-.02-3.48-.03-5.22,0-.43-.04-.87-.06-1.28-1.61-.27-18.4-.21-19.37.05-.27,2.2-.16,15.17.15,16.15h1.44c6.11,0,12.22,0,18.32.01.7,0,1.42.1,2.1.25,4.72,1.05,7.5,5.05,7.03,9.88-.41,4.2-4.66,7.8-8.98,7.8-6.2,0-12.39,0-18.59,0h-1.49v16.98c6.49,0,12.88,0,19.44,0ZM149.36,308.43c.49.02.93.06,1.36.06,2.14,0,4.28,0,6.42.02,1.11.02,1.5.4,1.67,1.49.05.31.09.62.11.93.14,1.91.79,3.65,1.8,5.26,1.38,2.2,3.29,3.87,5.53,5.14,4.31,2.44,8.94,2.88,13.72,1.86,6.39-1.37,12.12-6.61,12.23-13.22.02-.97.56-1.42,1.56-1.45,1.38-.04,2.77-.02,4.15-.02.88,0,1.76,0,2.67,0v-19.46h-16.35v1.54c0,6.11.02,12.22-.02,18.33,0,.97-.11,1.98-.41,2.89-1.24,3.83-4.94,7.25-10.33,6.2-3.79-.74-7.17-4.3-7.22-8.98-.07-6.2-.01-12.4-.02-18.6,0-.47-.03-.94-.05-1.38h-16.84c0,6.5,0,12.91,0,19.4ZM41.3,200.05h19.49v-16.29h-1.53c-6.15,0-12.31,0-18.47-.01-.7,0-1.42-.1-2.1-.26-4.5-1.03-7.5-5.17-7.03-9.54.48-4.47,4.39-8.08,9.14-8.12,6.2-.05,12.4-.01,18.6-.01.47,0,.94-.03,1.4-.05v-16.82c-1.48-.29-18.44-.23-19.5.08,0,.4,0,.84,0,1.28,0,2.05.01,4.1-.02,6.16-.02,1.47-.31,1.77-1.81,1.89-3.93.3-6.96,2.18-9.45,5.15-4.9,5.83-4.78,15.23-1.69,20.55,1.86,3.21,4.28,5.83,7.93,7,1.13.36,2.34.51,3.52.69,1.04.16,1.43.47,1.48,1.51.05,1.11.03,2.23.04,3.34,0,1.11,0,2.21,0,3.44ZM149.46,60.62h16.3v-1.66c0-6.15-.08-12.31.03-18.46.07-3.8,1.93-6.69,5.43-8.21,5.96-2.59,12.29,1.65,12.51,8.16.21,6.19.04,12.4.04,18.6v1.6h16.84c.27-1.54.21-18.39-.08-19.46-.45,0-.94,0-1.42,0-2.05,0-4.1.01-6.15-.03-1.26-.03-1.66-.46-1.78-1.68-.06-.58-.08-1.16-.19-1.72-.86-4.16-3.41-7.11-6.94-9.23-5.07-3.04-10.57-3.34-15.97-1.43-5.78,2.05-9.78,5.95-10.23,12.56-.07,1.04-.55,1.46-1.67,1.49-1.74.05-3.48.04-5.22.05-.48,0-.95,0-1.5,0,0,6.57,0,12.97,0,19.45ZM336.31,200.47v-51.21h-24.71v5.52c.78.17,1.53.31,2.25.5,3.89,1.04,6.77,3.49,9.05,6.69,3.08,4.32,4.15,9.18,3.7,14.43-.77,8.89-6.37,15.42-14.99,17.38v6.69h24.69ZM154.93,38.34c.07-.12.13-.19.16-.27.04-.12.08-.25.1-.39.49-3.5,2.2-6.36,4.71-8.78,3.76-3.62,8.27-5.5,13.46-5.71,4.55-.19,8.87.69,12.7,3.28,4.11,2.78,7.08,6.35,7.83,11.43.02.16.15.3.2.41h6.58V13.61c-2.73-.28-50.26-.16-51.22.12v24.61c1.88,0,3.69,0,5.47,0ZM38.46,194.5c-3.56-.51-6.54-1.98-9.03-4.46-3.55-3.55-5.55-7.79-5.98-12.8-.52-5.96.88-11.33,4.8-15.93,2.44-2.86,5.41-4.89,9.2-5.52.34-.06.67-.17,1-.25v-6.57c-1.25-.29-23.69-.27-24.71,0v51.05h24.71c0-1.86,0-3.63,0-5.53ZM149.36,336.04c3.01.27,50.19.15,51.25-.13v-24.5h-5.62c-.18.8-.31,1.54-.52,2.26-1.36,4.75-4.56,7.98-8.76,10.31-3.35,1.85-6.99,2.55-10.81,2.45-4.85-.12-9.18-1.59-12.91-4.71-2.99-2.51-5.12-5.56-5.76-9.5-.05-.29-.19-.57-.3-.9-1.13,0-2.2-.03-3.26,0-1.09.04-2.2-.16-3.3.15,0,8.21,0,16.35,0,24.58ZM91.73,298.68c.1-.05.2-.09.3-.14v-1.17c0-7.09-.01-14.17.02-21.26,0-.87-.25-1.48-.87-2.1-5.29-5.24-10.55-10.51-15.79-15.79-.6-.61-1.2-.9-2.08-.9-7,.04-14,.02-21,.02-.38,0-.76.03-1.43.07,13.74,13.88,27.3,27.58,40.85,41.27ZM92.2,50.89c-2.44,2-40.44,39.73-40.9,40.6.29.02.55.05.81.05,7.31,0,14.63,0,21.94.02.76,0,1.24-.32,1.73-.81,5.17-5.17,10.34-10.34,15.55-15.48.66-.65.9-1.32.9-2.23-.03-6.87-.02-13.73-.02-20.6,0-.43,0-.86,0-1.56ZM298.77,91.96c.04-.09.08-.18.13-.28-13.23-13.24-26.45-26.49-39.67-39.73-.22-.22-.46-.42-.7-.62-.02-.02-.08,0-.12,0-.04,0-.08.03-.16.06-.02.25-.06.51-.06.78,0,7.27,0,14.53-.02,21.8,0,.8.32,1.32.85,1.85,5.12,5.09,10.23,10.2,15.32,15.33.58.58,1.14.84,1.98.84,7.13-.04,14.27-.02,21.4-.02.35,0,.7,0,1.05,0ZM257.81,298.68c1.08-.64,40.16-39.57,40.68-40.5-.29-.01-.54-.04-.8-.04-7.22,0-14.45,0-21.67-.02-.74,0-1.24.26-1.73.76-5.22,5.25-10.45,10.49-15.71,15.69-.6.6-.78,1.2-.78,2,.02,6.96.01,13.91.01,20.87,0,.38,0,.77,0,1.23ZM263.49,22.82c-1.83-1.83-3.54-3.54-5.22-5.23v10.38c1.83-1.8,3.58-3.54,5.22-5.15Z"/>
      <g>
        <path class="cls-5" d="M224.3,123.97c-1.71,1.35-3.35,2.67-5.02,3.93-.3.23-.76.35-1.15.35-4.17.02-8.33-.05-12.49.01-1.67.02-3.34.28-5.01.46-.35.04-.69.2-1.13.34.36.74.92.8,1.51.81,3.11.06,6.22.11,9.33.2,2.06.06,4.12.15,6.17.26.7.04,1.31-.1,1.93-.42,3.91-1.96,7.93-3.63,12.23-4.56,2.94-.63,5.88-.9,8.85-.13.12.03.24.06.36.1q1.73.53,1.74,2.33c0,1.6,0,3.2,0,4.79,0,.4-.04.8-.08,1.3-2.2-.55-4.26-1.09-6.33-1.57-2.77-.64-5.54-1.33-8.41-1.49-1.1-.06-2.1.12-3.15.59-3.44,1.54-6.95,2.93-10.44,4.37-.95.39-1.94.52-2.96.39-.41-.05-.84-.02-1.26-.02-1.92,0-3.84,0-5.74,0,.36,1.41.6,1.54,1.99,1.49,1.43-.06,2.86-.06,4.28.03,1.45.09,2.8.01,4.17-.57,3.13-1.32,6.31-2.53,9.47-3.77.39-.15.79-.32,1.2-.34,3.23-.19,6.47-.43,9.67.2,1.1.22,2.19.57,3.23.99,1.46.6,2.43,1.7,3,3.21,1.64,4.31,2.25,8.78,2.24,13.35,0,1.19-.37,2.4-.71,3.57-1.21,4.16-2.91,8.15-4.7,12.09-1.65,3.65-2.39,7.5-2.98,11.41-.58,3.8-.47,7.63-.48,11.45,0,.5,0,1,0,1.69-2.15-.99-3.89-2.19-4.49-4.43-.59-2.16-.65-4.4-.49-6.63.48-6.61,1.89-13.04,3.57-19.43.07-.27.1-.56.2-1.13-.26.38-.37.5-.43.64-2.24,5.12-4.52,10.23-5.04,15.9-.21,2.3-.45,4.6-.54,6.9-.09,2.39-.02,4.79-.02,7.36-.37-.22-.62-.32-.81-.49-.65-.6-1.27-1.23-1.91-1.83-1.51-1.42-1.99-3.25-2.15-5.23-.32-4.1.13-8.15.89-12.16.74-3.87,1.68-7.71,2.52-11.56.05-.23.07-.47-.06-.76-.48,1.15-.98,2.3-1.46,3.45-1.12,2.67-2.4,5.27-2.98,8.15-.82,4.09-1.45,8.19-1.4,12.37.02,1.77,0,3.53,0,5.3v1.53c-.76-.6-1.31-1.01-1.83-1.45-1.86-1.57-2.89-3.51-3.03-5.99-.24-4.27.11-8.49.93-12.66.75-3.83,1.67-7.62,2.52-11.44.04-.15.05-.31.09-.55-.13.12-.21.15-.24.21-2.45,5.4-4.75,10.82-5.36,16.84-.34,3.32-.47,6.62-.46,9.94,0,1.34,0,2.68,0,4.2-.36-.22-.6-.34-.79-.51-.4-.37-.76-.79-1.17-1.15-2.25-1.98-2.99-4.55-3.06-7.44-.1-4.69.48-9.31,1.37-13.9.62-3.21,1.38-6.4,2.07-9.6.04-.19.04-.39-.07-.62-.17.37-.36.74-.52,1.12-.66,1.54-1.24,3.13-1.97,4.64-1.59,3.3-2.32,6.82-2.92,10.39-.75,4.51-.69,9.04-.67,13.58,0,.49,0,.98,0,1.54-2.08-1.1-4.15-3.76-4.65-5.82-.78-3.2-.66-6.43-.37-9.66.49-5.33,1.76-10.51,3.23-15.64.08-.28.15-.56.22-.82-.96-.84-1.58-.95-2.43-.12-.83.81-1.62,1.74-2.15,2.76-1.1,2.12-2.07,4.31-3.02,6.51-.63,1.46-1.12,2.97-1.76,4.67-.25-.46-.4-.76-.57-1.05-.86-1.44-1.59-2.98-2.61-4.29-2.73-3.51-6.58-3.27-9.81-1.36-.96.57-1.4,1.54-1.67,2.58-.61,2.31-.46,4.66-.38,7.02.16,4.91,2.42,8.93,5.24,12.73.85,1.15,1.8,2.22,2.7,3.33.21.25.4.52.66.85-5.22,4.73-8.44,10.42-8.74,17.57,1.25.02,1.43-.1,2.83-1.95.07.12.14.22.19.33,1.04,2.2,2.6,4.01,4.34,5.68,1.4,1.36,2.59,2.88,3.43,4.64.41.86.72,1.8.89,2.74.38,2.1-.33,3.94-1.86,5.36-1.32,1.23-2.77,2.32-4.19,3.43-.36.28-.85.41-1.44.69-.12-4.11-.23-7.98-.34-11.86-.09,0-.18-.01-.27-.02-.18,1.23-.34,2.46-.53,3.69-.24,1.58-.43,3.17-.78,4.72-.46,2.01-1.5,3.73-2.98,5.17-.48.47-.99.62-1.66.71-1.73.23-2.85-.57-3.86-1.82-1.37-1.7-2.02-3.66-2.31-5.77-.29-2.12-.58-4.24-.96-6.37-.43,1.2-.3,2.47-.37,3.71-.07,1.3-.12,2.6-.14,3.9-.02,1.3,0,2.6,0,4.14-.53-.21-.94-.28-1.23-.51-1.58-1.25-3.22-2.45-4.66-3.85-1.83-1.77-2.17-4.02-1.38-6.41.67-2.03,1.82-3.79,3.32-5.3,2.02-2.04,3.98-4.1,5.25-6.83.76.95,1.31,2.07,2.82,2.12-.23-7.29-3.58-12.94-8.69-17.7,1.33-1.71,2.65-3.33,3.88-5.02,1.92-2.63,3.56-5.43,4.24-8.65.65-3.07.71-6.19.22-9.28-.48-3.08-2.23-4.54-5.38-4.84-2.65-.26-4.83.59-6.38,2.74-.9,1.25-1.62,2.64-2.4,3.98-.21.35-.35.74-.6,1.29-.2-.46-.33-.74-.45-1.03-1.27-3.06-2.49-6.15-3.83-9.18-.47-1.06-1.22-2.01-1.88-2.97-.23-.34-.57-.63-.9-.86-.78-.54-1.43-.77-2.34.14.08.33.15.72.26,1.12,1.31,4.82,2.49,9.68,3.08,14.65.39,3.27.45,6.53-.14,9.79-.26,1.4-.72,2.65-1.69,3.72-.9.99-1.78,1.98-3.03,2.87-.04-.47-.08-.78-.08-1.09,0-2.23.04-4.46,0-6.69-.1-4.77-.76-9.47-2.08-14.04-.58-2-1.55-3.9-2.35-5.83-.63-1.51-1.27-3.01-2.01-4.48.67,3.05,1.38,6.1,1.99,9.16.92,4.57,1.68,9.18,1.71,13.86,0,1.63-.17,3.27-.33,4.9-.09.93-.42,1.79-1.08,2.51-1.07,1.16-2.12,2.34-3.18,3.51-.08-.04-.17-.07-.25-.11-.03-.31-.08-.62-.08-.94,0-2.19.04-4.38-.01-6.56-.11-4.81-.84-9.53-2.04-14.18-.21-.81-.54-1.59-.87-2.36-1.04-2.46-2.11-4.9-3.3-7.31.45,1.87.9,3.73,1.34,5.6,1.15,4.87,2.07,9.79,2.35,14.79.11,1.96-.09,3.94-.23,5.91-.09,1.2-.6,2.26-1.44,3.15-.94,1-1.84,2.03-3.26,2.82v-1.12c0-2.31.04-4.63,0-6.94-.1-4.69-.78-9.31-2.15-13.78-.78-2.56-2.03-4.97-3.06-7.45-.23-.54-.45-1.07-.87-1.56.06.29.1.58.18.86,1.41,5.54,2.64,11.12,3.26,16.8.32,2.92.43,5.86-.1,8.79-.19,1.02-.58,1.9-1.26,2.7-.95,1.11-1.91,2.18-3.34,3.14v-1.44c0-2.4.1-4.8-.02-7.19-.24-4.71-.82-9.39-2.34-13.87-.97-2.85-2.31-5.57-3.66-8.32.04.24.05.49.11.73,1.2,4.64,2.28,9.3,2.99,14.04.48,3.17.79,6.35.59,9.55-.1,1.57-.14,3.22-1.25,4.53-.95,1.12-2.02,2.09-3.66,2.63,0-.59,0-1.03,0-1.48-.03-2.65.08-5.31-.12-7.94-.27-3.6-.7-7.21-1.75-10.67-.64-2.12-1.58-4.15-2.4-6.22-1.02-2.58-2.02-5.16-3.1-7.71-1.29-3.06-1.6-6.24-1.38-9.51.21-3.16.9-6.21,1.84-9.24.84-2.68,2.68-4.07,5.26-4.69,2.88-.7,5.81-.71,8.77-.62,2.15.06,4.09.74,6.04,1.55,2.4,1,4.85,1.88,7.24,2.9,1.01.43,2.01.47,3.07.45,2.01-.04,4.02-.01,6.17-.01.28-.46.6-.97,1.06-1.73-.64.07-.99.13-1.34.14-2.35.04-4.71.13-7.06.09-.77-.01-1.58-.26-2.31-.56-3.49-1.44-6.97-2.89-10.42-4.43-.85-.38-1.67-.6-2.55-.45-2.89.49-5.78.98-8.65,1.57-1.88.38-3.74.93-5.61,1.4-.19.05-.39.07-.67.12v-7.67c1.59-.87,3.31-1.19,5.08-1.26,4.06-.15,7.9.94,11.64,2.34,2.19.82,4.3,1.89,6.46,2.79.56.24,1.2.43,1.8.42,5.21-.13,10.42-.31,15.63-.48.77-.02.77-.03,1.38-.69-.76-.53-1.63-.58-2.5-.65-5.04-.44-10.09-.24-15.13-.21-1.11,0-2-.19-2.85-.97-1.11-1.02-2.34-1.93-3.55-2.82-.52-.39-.66-.76-.48-1.38.24-.8.42-1.63.52-2.46.06-.53,0-1.1-.13-1.61-.18-.71-.67-1.11-1.45-1.18-1.49-.13-2.84.32-4.1,1-.42.22-.74.81-.89,1.3-.3.95-.44,1.95-.67,3.01-3.4.72-6.85.6-10.44.48.3-2.79.52-5.46,1.86-7.79.85-1.47,1.98-2.83,3.22-3.99,1.95-1.83,4.46-2.27,7.04-2.08,5.18.37,9.99,2.09,14.6,4.39,1.2.6,2.36,1.28,3.51,1.97.6.36,1.19.52,1.89.54,4.71.09,9.41.23,14.12.33.75.01,1.37.23,1.97.68,1.05.77,2.13,1.49,3.21,2.23.31.21.62.43.96.61,1.23.64,1.76.51,2.68-.66-3.42-2.76-6.83-5.52-10.29-8.31-.62.4-1.23.84-1.88,1.2-.99.54-2.03.76-3.16.46-.64-.17-.98-.46-1.04-1.19-.21-2.18-.66-4.31-1.46-6.36-.63-1.62-1.48-3.11-2.65-4.41-.44-.49-.9-.8-1.62-.78-1.51.04-3.03-.03-4.54-.01-.45,0-.91.11-1.35.24-2.24.63-3,1.75-2.76,4.15-.77-.38-1.18-1.06-1.65-1.65-.98-1.22-1.8-2.52-2.16-4.08-.21-.91-.08-1.75.32-2.56,1-2.01,3.04-3.56,5.26-3.99.12-.72.21-1.46.36-2.2.26-1.27.83-2.38,1.9-3.18,5.7-4.26,11.84-5.12,18.36-2.16,1.35.61,2.65,1.53,3.7,2.58,2.87,2.89,5.64,5.89,8.37,8.92,2.36,2.62,4.62,5.34,6.93,8.01.16.19.33.36.61.64.75-.87,1.43-1.7,2.15-2.51,4.11-4.61,8.2-9.24,12.36-13.82,1.94-2.14,4.15-3.95,6.96-4.83,6.19-1.95,11.85-.85,16.94,3.15,1.08.85,1.52,2.09,1.73,3.4.09.58.17,1.15.27,1.77,2.15.26,3.55,1.6,4.78,3.21.95,1.25,1.07,2.62.58,4.06-.66,1.96-1.95,3.49-3.49,5.14-.04-.55-.09-.89-.09-1.23,0-1.22-.58-2.12-1.65-2.62-.71-.33-1.5-.6-2.27-.65-1.68-.09-3.36,0-5.04-.01-.58,0-.92.34-1.27.71-1.55,1.66-2.61,3.62-3.18,5.8-.49,1.9-.82,3.85-1.23,5.89-2.17,1.15-3.98.04-5.78-1.37-3.47,2.78-6.92,5.55-10.38,8.33.85,1.22,1.47,1.42,2.73.66,1.26-.76,2.46-1.61,3.65-2.49.8-.59,1.61-.97,2.64-.96,1.68,0,3.36-.1,5.04-.14,2.86-.08,5.71-.17,8.57-.2.87-.01,1.62-.21,2.36-.67,3.85-2.36,7.91-4.23,12.32-5.3,2.41-.58,4.83-1.1,7.34-.91,2.88.21,5.11,1.49,6.99,3.73,2.27,2.71,2.86,5.91,3.34,9.21.04.24,0,.49,0,.86-3.54.24-6.99.2-10.38-.41-.25-1.12-.46-2.14-.72-3.15-.18-.73-.61-1.27-1.39-1.46-1.01-.24-2.01-.62-3.03-.72-1.35-.12-2.07.55-2.1,1.91-.02.91.18,1.83.33,2.74.07.45.23.88.39,1.45ZM145.15,91.66c1.31-.01,2.27-.81,2.22-1.86-.04-1-.95-1.68-2.25-1.68-1.35,0-2.2.62-2.26,1.65-.06,1.16.84,1.91,2.28,1.9ZM207.37,87.98s-.01.06-.02.09c-.21,0-.42-.02-.63,0-.73.07-1.43.61-1.58,1.22-.2.8.08,1.45.88,1.88.87.47,1.78.48,2.64,0,1.28-.71,1.3-2.17.02-2.89-.38-.21-.87-.21-1.31-.31Z"/>
        <path class="cls-5" d="M235.98,191.54c-.87,1.67-1.18,3.41-.85,5.24.31,1.73.62,3.45.95,5.26-.21-.19-.41-.36-.59-.54-2.53-2.5-5.52-3.39-8.99-2.59-1.77.41-2.98,1.52-3.57,3.23-.6,1.73-.91,3.49-.38,5.32.04.15.05.31.1.57-.97-1.1-1.81-2.13-2.73-3.1-2.71-2.84-6.01-3.68-9.78-2.75-.66.16-1.2.08-1.79-.21-6.92-3.44-13.04-7.95-18.24-13.68-.42-.47-.88-.91-1.36-1.31-4.14-3.41-6.89-7.77-8.69-12.76-.85-2.35-.7-4.8-.31-7.23.08-.5.24-.98.29-1.48.2-1.94,1.5-3.04,3-3.94,1.45-.88,2.94-.73,4.17.43.67.62,1.24,1.37,1.74,2.14.52.81.89,1.71,1.3,2.58.51,1.07.73,2.17.68,3.39-.14,3.77.55,7.44,1.85,10.98.14.39.36.77.62,1.08,5.23,6.31,11.63,10.83,19.6,13.04,3.2.89,6.44,1.28,9.71.85,2.91-.39,5.74-1.23,8.46-2.33,1.59-.64,3.12-1.42,4.8-2.2Z"/>
        <path class="cls-5" d="M127.08,208.37c.64-2.06.5-3.83-.06-5.59-.76-2.4-2.48-3.7-5-3.89-3.34-.26-6.08.89-8.36,3.52.36-1.88.74-3.59,1-5.33.26-1.76.06-3.49-.81-5.31.36.12.51.14.63.21,3.99,2.38,8.39,3.61,12.92,4.34,2.62.42,5.28.12,7.88-.49,8.62-2.04,15.56-6.71,21.15-13.5.26-.32.46-.7.59-1.09,1.32-3.76,1.99-7.62,1.88-11.62-.02-.61.09-1.26.3-1.83.63-1.7,1.4-3.33,2.55-4.75,1.72-2.12,3.78-2.34,5.92-.64,1.16.92,1.9,2.01,2.14,3.55.48,2.97.9,5.95-.23,8.82-.81,2.06-1.83,4.06-2.96,5.97-1.52,2.58-3.52,4.81-5.87,6.7-.52.42-.96.94-1.42,1.43-5.17,5.58-11.23,9.97-18.01,13.37-.53.26-1,.33-1.55.18-4.01-1.12-7.36.03-10.17,2.97-.83.87-1.57,1.83-2.54,2.98Z"/>
        <path class="cls-5" d="M118.41,208c-.37,1.83-.35,3.33.61,4.61,1.58,2.09,3.4,3.92,5.89,4.98,3.23,1.37,6.59,2.21,10.04,2.74.68.1,1.42-.08,2.11-.2,5.27-.96,10.17-2.83,14.51-6.03,2.28-1.68,4.22-3.73,5.99-5.93,3.17-3.94,5.88-8.19,7.99-12.79.03-.07.11-.12.28-.32.35.22.81.37,1.06.69.72.92,1.37,1.91,2.03,2.88.31.45.08.88-.11,1.3-1.21,2.74-2.75,5.29-4.46,7.74-2.22,3.17-4.71,6.13-7.35,8.97-.57.61-1.23,1.14-1.9,1.64-2.97,2.21-6.01,4.32-9.3,6.02-4.58,2.37-9.46,3.06-14.54,2.43-1.87-.23-3.73-.52-5.59-.82-.53-.08-1.07-.24-1.55-.46-3.25-1.48-5.9-3.74-8.02-6.56-.94-1.25-1.49-2.82-2.07-4.29-.54-1.36-.93-2.78-1.3-4.2-.62-2.38.08-4.65,1.55-6.38,1.77-2.08,4.1-3.58,7.06-3.6.85,0,1.57.29,2.19.81,1,.83,1.68,1.89,1.96,3.16.1.47.09,1.01-.03,1.48-.37,1.5-2.52,3.26-4.05,3.39-.6.05-1.16-.05-1.66-.44-.35-.26-.75-.46-1.34-.82Z"/>
        <path class="cls-5" d="M231.2,207.9c-.35.21-.72.37-1.02.62-.73.61-1.57.65-2.38.39-1.13-.38-2.12-1.04-2.87-1.98-.48-.61-.72-1.31-.7-2.11.06-3.08,2.99-5.27,5.94-4.44,1.86.53,3.52,1.52,4.84,2.83,1.8,1.79,2.54,4.16,2.08,6.72-.52,2.96-1.59,5.79-3.15,8.32-.94,1.54-2.46,2.73-3.74,4.06-.32.33-.73.57-1.09.86-2.09,1.66-4.44,2.69-7.1,2.95-2.21.21-4.42.46-6.64.55-4.7.19-9.08-1.04-13.06-3.51-2.89-1.79-5.71-3.71-8.43-5.75-1.29-.97-2.31-2.31-3.39-3.55-3.22-3.68-6.17-7.55-8.41-11.92-.21-.41-.43-.82-.62-1.24-.92-1.97-.93-1.97.34-3.81.38-.55.8-1.09,1.27-1.56.68-.67.96-.57,1.37.27,2.64,5.54,5.94,10.64,10.19,15.08,4.56,4.77,10.22,7.53,16.6,8.93.74.16,1.48.4,2.22.43.91.04,1.84-.03,2.74-.18,3.36-.56,6.64-1.44,9.69-3,2.18-1.11,3.83-2.86,5.15-4.89.72-1.1.74-2.98.16-4.09Z"/>
        <path class="cls-5" d="M175.01,102.45c-3.99-3.52-7.86-7.01-10.71-11.44-.78-1.22-1.32-2.61-1.87-3.96-.23-.56-.28-1.23-.28-1.85,0-3.13,1.99-4.95,5.25-4.52,1.36.18,2.68.62,4.17.98.12-.24.28-.61.46-.97.32-.63.66-1.26.99-1.89.3-.57.73-.81,1.42-.8,2.08,0,2.15,0,3.05,1.88.25.53.49,1.06.76,1.65.87-.25,1.69-.53,2.53-.72.73-.17,1.48-.32,2.22-.36,2.98-.16,5.01,2.09,4.64,5.05-.21,1.61-.7,3.14-1.58,4.48-1.15,1.75-2.31,3.52-3.69,5.09-2.02,2.29-4.25,4.42-6.39,6.6-.26.26-.57.48-.98.81Z"/>
        <path class="cls-5" d="M145.89,90.44c-.32-.43-.61-.82-.93-1.25.53-.16,1.02-.12,1.33.4.19.32.1.64-.4.85Z"/>
        <path class="cls-5" d="M207.5,88.92c-.36.56-.6.94-.86,1.34-.42-.02-.62-.27-.52-.64.17-.58.69-.63,1.37-.7Z"/>
      </g>
      <g class="cls-1">
        <text class="cls-2" transform="translate(111.47 251.84)"><tspan x="0" y="0">Di</tspan><tspan class="cls-8" x="21.12" y="0">Y</tspan><tspan x="32.98" y="0">AR</tspan><tspan class="cls-10" x="62.18" y="0">B</tspan><tspan x="76.19" y="0">AKIR</tspan></text>
        <text class="cls-3" transform="translate(111.47 265.31)"><tspan x="0" y="0">BY</tspan><tspan class="cls-9" x="28.64" y="0">K</tspan><tspan class="cls-7" x="35.67" y="0">EHiR BELEDiYESi</tspan></text>
      </g>
    </g>
  </g>
</svg>