<?xml version="1.0" encoding="iso-8859-1"?>
<!-- Generator: Adobe Illustrator 29.7.1, SVG Export Plug-In . SVG Version: 9.03 Build 0)  -->
<svg version="1.1" id="Layer_1" xmlns="http://www.w3.org/2000/svg" xmlns:xlink="http://www.w3.org/1999/xlink" x="0px" y="0px"
	 viewBox="0 0 612 792" style="enable-background:new 0 0 612 792;" xml:space="preserve">
<path style="fill-rule:evenodd;clip-rule:evenodd;fill:#009140;" d="M342.085,302.386v17.686c-4.11-0.585-7.749-0.715-13.206-0.91
	v-17.621C334.066,301.476,338.177,301.931,342.085,302.386 M342.085,339.514v15.996c-4.38-0.975-7.816-0.91-13.206-0.52
	c0-5.722,0.067-10.143,0-15.866C334.605,338.539,337.974,338.539,342.085,339.514z M358.996,304.987v17.686
	c3.908,0.715,8.894,1.951,13.273,3.316v-17.816C368.564,307.133,363.308,305.832,358.996,304.987z M358.996,341.855v16.581
	c3.638,0.455,8.826,1.691,13.273,3.902v-16.906C368.631,343.285,363.174,342.115,358.996,341.855z M311.764,301.996
	c0,4.942-0.067,12.614,0,17.621c-3.638,0.195-8.153,0.52-13.206,1.56v-17.621C303.612,302.581,307.924,302.126,311.764,301.996z
	 M311.764,339.709v16.451c-3.571-0.195-8.422,0.715-13.206,2.471V341.92C303.207,340.295,307.924,339.514,311.764,339.709z
	 M358.996,376.902v80.173h40.09c4.043-7.933,4.784-15.28,4.043-25.164c-1.011-16.386-6.199-29.195-14.014-40.184
	c-0.202,18.401,0.202,37.453,0,55.855H372.27v-65.868C367.89,379.829,363.376,378.073,358.996,376.902z M328.878,372.806
	l0.067,106.833h109.624c4.784-19.377,5.592-39.014,3.032-59.821c-5.39-20.092-13.678-36.543-26.749-50.133
	c-8.624-7.543-15.834-13.395-25.738-18.531v18.727c12.869,12.224,22.975,24.904,30.387,42.655
	c2.493,8.063,3.908,16.126,3.975,24.319c0.472,11.639-0.808,21.328-2.762,31.861c-26.345,0-52.352,0-78.63,0v-95.259
	L328.878,372.806z M298.559,505.193h174.98c7.412-17.361,11.05-36.413,12.33-56.57c-0.809-25.294-5.795-47.662-14.823-67.169
	c-7.681-18.141-18.596-32.642-33.959-44.346c-15.834-13.07-30.387-19.052-47.972-23.863c0,7.868,0,11.314,0,19.117
	c14.486,6.958,27.355,15.086,41.909,27.31c11.252,11.964,20.213,24.839,24.93,39.339c6.67,14.565,9.702,29.13,9.702,43.5
	c-0.741,16.971-2.965,33.942-8.49,49.743c-48.984,0-96.553,0-145.536,0l0.135-117.822l-13.206,3.316V505.193z M291.956,184.629
	l-10.511,32.772l0.068,71.005c-78.36,13.33-136.912,63.267-165.817,134.923c-14.688,36.023-19.876,66.584-13.745,119.057
	c8.489,36.673,19.202,71.72,53.026,102.801c21.628-0.13,37.732,0.26,59.36,0c-47.771-40.639-71.016-68.014-78.63-139.995
	c-3.84-42.395,11.117-80.368,30.051-110.864c21.291-29.975,42.448-50.848,63.47-62.877c20.685-12.484,36.115-20.092,52.285-23.733
	c0,4.682,0,13.525,0,18.271c-9.163,4.292-16.979,8.193-26.48,13.46c-21.695,12.354-44.469,31.796-67.041,60.276
	c-16.036,27.115-28.096,55.335-29.983,85.895c-1.55,22.693,1.348,43.826,17.586,80.629c16.103,27.765,37.327,52.994,66.299,78.938
	c21.291,0,48.714,0,69.938,0c-28.77-14.175-49.59-34.657-64.817-49.417c-12.802-13.85-26.479-28.675-39.483-53.969
	c-6.333-10.469-12.937-29.911-14.284-60.471c0.943-31.926,12.398-56.7,25.132-78.938c21.561-30.171,41.572-43.435,63.133-56.57
	c0,6.892,0,12.029,0,18.857c-16.373,9.753-29.646,21.913-43.594,40.249c-10.511,14.5-19.943,36.088-21.763,59.171
	c-2.493,31.341,1.954,55.985,19.877,85.245c23.245,32.381,56.799,63.267,105.985,95.844c39.012,0,73.509,0,112.521,0
	c-46.76-19.637-86.715-42.2-130.039-68.599c-50.331-35.243-72.162-64.048-74.654-88.561c-3.773-19.312-5.794-34.592,2.897-60.537
	c5.929-14.695,17.047-33.162,28.771-41.16c0,40.77,0,93.438,0,134.273h220.999c10.107-36.608,14.217-67.364,4.716-111.514
	c-5.592-20.027-21.359-48.702-38.607-70.095c-23.515-22.953-48.175-35.307-79.505-45.581l0.134-75.947l-10.107-32.902l-6.873,32.902
	v71.59c-4.177-0.91-8.961-1.236-13.273-1.821V184.564l-8.22-37.843l-8.759,37.843l0.068,101.046c-4.312,0-8.962-0.585-13.206-0.585
	c0-29.26-0.135-71.265-0.135-100.461l-8.288-37.843l-8.624,37.843l-0.067,100.396c-3.908,0.325-9.298,0.195-13.206,0.585v-68.014
	L291.956,184.629z"/>
</svg>
