<?xml version="1.0" encoding="UTF-8"?>
<svg id="Layer_2" data-name="Layer 2" xmlns="http://www.w3.org/2000/svg" viewBox="0 0 875.41 759.19">
  <defs>
    <style>
      .cls-1 {
        fill: #7f0000;
      }

      .cls-1, .cls-2 {
        fill-rule: evenodd;
      }

      .cls-2 {
        fill: blue;
      }
    </style>
  </defs>
  <g id="Layer_1-2" data-name="Layer 1">
    <g>
      <path class="cls-2" d="M153.3,406.06h-20.77c1.81,15.47,5.29,31.34,10.4,46.6.92,2.75,8.6,20.77,10.22,23.98,9.04,17.91,21.05,35.27,36.47,50.15,6.85,6.61,18.09,15.18,26.49,20.5,12.43,7.87,36.56,18.89,51.69,22.27,1.94.43,17.67,2.07,20.89,2.17,22.92.72,46.15-2.66,67.46-12.88,2.96-1.42,19.26-10.08,23.29-13.27,1.92-1.52,3.7-3.31,5.53-4.63.86-.62,1.73-1.14,2.63-1.74,1.23-.82,10.78-9.68,11.83-10.97.63-.77,1.2-1.52,1.84-2.24,1.35-1.52,3.01-2.91,4.6-4.44,1.29-1.24,9.91-12.03,11.64-14.58,3.03-4.44,5.72-8.6,9.36-13.94,1.1-1.61,2.34-3.52,2.55-4.34.07-.27,0-.35-.36-.25-.47.13-2.38,2-3.48,3.33-8.6,10.34-26.59,24.38-34.74,29.86-17.34,11.65-32.81,17.97-53.27,21.68-2.94.53-8.19,1.07-10.36,1.06-3.44-.02-8.53.29-8.88.55-.17.12-.28.27-.46.37-.57.3-4.85-.97-7.23-1.16-.93-.07-1.66.07-2.46.13-4.04.3-19.16-3.59-23.31-4.82-16.58-4.95-30.9-14.49-43.72-25.46-8.37-7.16-12.3-11.71-19.15-20.02-2.48-3.01-7.66-10.12-8.54-11.73-.52-.95-.98-1.9-1.5-2.85-1.16-2.11-2.63-4.24-4.02-6.43-1.28-2.02-9.46-18.26-10.69-21.21-5.95-14.3-10.18-29.21-13.18-45.68h-17.33c1.05,6.81,2.54,16.79,3.31,20.05.8,3.4,1.8,6.6,2.48,9.85.61,2.95.95,5.93,1.59,8.88,2.47,11.44,12.74,35.32,17.24,44.88.27.57.29.63.22.62-.2-.03-.19.03-.25.14-.07.14-.27.11-.47.07-.42-.09-7.66-7.34-8.47-8.48-14.41-20.28-24.54-47.94-29.06-76h0ZM216.95,406.06h-20.62c3.18,19.26,6.7,29.88,13.84,46.7,1.59,3.74,4.6,9.83,5.44,11.02.29.41.59.79.88,1.2,1.33,1.88,2.85,4.99,4.31,7.6,4.57,8.15,14.61,20.08,20.57,25.93,1.95,1.91,13.66,11.59,16.13,13.33,14.25,10.04,34.35,18.29,53.15,20.48,2.91.34,15.28,1.06,18.3.78,2.17-.2,4.37-.66,6.28-.66.79,0,1.53.08,2.32.1,5.94.11,25.79-5.84,30.12-7.52,13.11-5.11,25.16-12.7,35.8-21.08,2.81-2.21,9.97-8.65,11.46-10.29,1.22-1.35,2.38-2.78,3.53-3.91.64-.63,1.28-1.17,2.05-1.88,1.08-.99,6.16-7.44,6.01-7.63-.38-.46-1.06.1-2.13.95-1.19.96-8.14,4.97-10.46,6.04-1.07.5-2.13.97-3.08,1.49-.57.32-1.1.65-1.66.97-6.13,3.53-21.86,8.51-28.48,9.91-15.84,3.35-29.39,3.08-43.8-.72-18.14-4.78-27.29-9.93-43.35-22.15-3.17-2.41-13.74-11.48-15.66-13.42-8-8.13-13.16-15.01-18.14-25.94-4.45-9.76-7.44-19.92-9.3-30.93-.03-.16-.05-.29-.09-.38h-20.29s0,.03,0,.05c1.78,15.34,5.17,28.72,9.46,43.19.18.6.19.66.12.65-.05,0-.12-.01-.16,0-.06.03-.06.11-.09.15-.04.06-.15.05-.27,0-.49-.17-1.07-.78-1.63-1.36-2.69-2.82-6.93-7.44-8.75-10.85-.41-.77-.75-1.54-1.18-2.25-.27-.45-.58-.87-.87-1.31-3.78-5.68-8.09-20.86-9.78-28.27h0ZM281.34,406.06h-18.79c-.08.08-.09.26-.08.44.02.89,2.91,10.82,3.94,13.53,7.69,20.19,15.16,32.52,32.9,46.74,9.97,8,22.77,14.22,34.25,17.93,2.39.77,11.82,2.88,13.47,3.01,1.95.16,3.97.17,5.63.47.47.09.91.2,1.38.29,1.45.29,7.68.56,9.82.42,2.31-.15,4.48-.45,6.42-.42,1,.01,1.94.11,2.94.13,5.77.07,24.66-5.23,30.65-7.5,5.85-2.22,10.36-4.93,16-8.01,1.14-.62,1.52-.86,1.48-1.49-.01-.17-.08-.18-.7-.1-19.45,2.48-33.91,2.58-52.63-3.3-13.11-4.12-26.6-13.97-34.24-23.5-5.31-6.63-11.52-18.37-14.62-26.83-1.38-3.75-2.54-7.71-3.71-11.6-.03-.08-.05-.16-.07-.22h-26.05c0,.09.02.2.05.34,1.45,7.7,3.26,13.6,5.79,22.08.18.6.19.66.12.65-.05,0-.12-.01-.16,0-.06.03-.06.11-.09.15-.04.06-.15.04-.26,0-.64-.26-1.62-1.33-2.32-2.04-.41-.41-.72-.71-1.03-1.04-.69-.73-5.3-8.8-6.26-10.93-1.36-3.04-2.49-5.84-3.64-8.79-.07-.18-.13-.31-.19-.41h0ZM158.12,352.08c0,.06.15,0,.23.01.12,0,.05.24.08.37.04.14.26.16.45.12.23-.05.42-.17.62-.32,1.71-1.3,9.53-10.32,10.53-11.77,1.77-2.57,4.72-8.42,5.29-11,.71-3.2.41-8.98-.32-11.47-.61-2.1-7.62-14.38-8.76-17.54-.46-1.28-.71-2.43-.88-3.74-.15-1.09.23-6.01.52-6.75.33-.85,2.18-4.02,1.35-4.53-.41-.25-1.31.55-2.14,1.3-10.05,9.08-15.97,17.49-15.92,30.53.03,7.79,2.4,10.33,6.53,18,1.72,3.2,2.55,6.53,2.61,10.41.03,2.1-.21,4.79-.2,6.39h0ZM222.54,353.31c.04.24.65-.16,1.19-.62,5.86-5.01,16.7-18.18,16.48-27.42-.06-2.52-.87-6.49-1.4-7.99-1.02-2.94-7-13.23-8.11-16.35-1.23-3.46-1.79-8.19-.29-12.19.45-1.19,1.22-2.57,1.05-2.85-.09-.15-.42-.13-.77-.03-.51.14-5.77,4.77-6.79,5.97-5.41,6.41-10.09,14.01-10.39,23.21-.13,4.09.51,8.95,2.04,12.03,1.83,3.7,5.54,10.23,6.09,12.2.15.53,1.16,6.63,1.15,8.39-.02,1.97-.5,4.26-.24,5.65h0ZM284.9,353.89c.15.18,2.39-1.86,3.02-2.74,2.26-3.19,5.65-6.32,7.8-8.94,3.14-3.82,6.46-11.28,6.63-16.64.12-3.75-1.09-8.29-2.97-11.84-4.3-8.14-7.16-11.55-7.54-18.94-.07-1.39.07-3.1.41-4.25.78-2.59,2.52-4.97,1.03-4.55-.52.15-5.88,4.88-7.01,6.19-5.14,5.94-9.49,13.26-10.1,21.97-.37,5.34.67,11.14,3.03,15.88,1.28,2.56,3.1,5.31,4.08,7.6.4.93.66,1.79.93,2.71.41,1.39,1.07,6.53.96,7.45-.29,2.3-.48,5.84-.26,6.11h0ZM341.02,441.08h31.7s-.02-38.02-.02-38.69c-3.11-8.75-12.72-13.33-21.47-10.22-4.95,1.76-8.46,5.27-10.22,10.22,0,.23-.02.52-.02.88h0s.03,37.8.03,37.8h0ZM609.78,376.77h-42.03c-.01.08-.02.16-.03.27-1.67,17.44-2.83,26.96-8.36,41.85-3.74,10.06-10.73,23.42-18.38,31.22-8.07,8.23-20.75,16.09-31.2,19.19-12.5,3.71-22.23,4.58-35.62,4.39-6.66-.09-11.25-.49-17.83-1.82-.61-.12-.68-.12-.69-.01v.12c-.01.11.05.16.57.51,12.15,8.13,30.22,13.82,42.1,15.79,11.19,1.86,20.42,2.07,31.89.55,16.71-2.21,28.64-7.29,43.53-17.03,16.13-10.55,30.1-27.38,35.87-45.2.88-2.71,1.67-5.65,2.6-8.04.34-.86.69-1.66,1.01-2.5,2.1-5.56,3.04-15.53,3.68-21.61.1-.92.19-1.82.12-2.78-.07-.97-.32-2.01-.25-2.8.03-.33.11-.61.19-.93.29-1.26.37-6.93.45-10.4.02-.62-.05-.7-.68-.7l-6.91-.07h0ZM681.18,376.77h-49.86c-.42,14.41-.52,18.39-3.88,33.44-1.38,6.18-5.58,22.7-9.15,29.52-1.52,2.9-3.61,5.79-4.65,8.38-1.09,2.74-.81,2.97-4.25,7.17-1.64,2-3.41,3.79-4.71,5.71-.55.8-1.01,1.63-1.55,2.44-5.83,8.75-28.34,23.79-34.91,27.38-9.21,5.02-17.2,7.74-27.08,9.62-3.34.64-9.81,1.42-11.33,1.37-.61-.02-1.19-.07-1.81-.08-2.16-.03-4.68.4-7.12.62-6.01.55-20.97-.77-27.49-2.57-2.5-.69-5.03-1.69-7.33-2.05-.63-.1-1.24-.15-1.84-.31-.84-.23-1.66-.67-2.51-1.03-1.82-.79-3.92-1.26-5.84-1.76-1.07-.28-21.16-10.34-22.4-11.21-2.54-1.8-6.49-4.19-6.52-3.94-.12,1.04,4.55,5.8,6.11,7.41,12.91,13.4,18.86,19.61,34.48,28.8,16.59,9.76,29.73,14.03,49.43,17.19.62.1.69.1.69.03v-.08c0-.07.08-.08.7-.1.7-.02,1.38.05,2.08.14,2.21.3,5.18.83,6.46.74.49-.03.92-.12,1.4-.17,2-.23,4.78.07,7.37.08,7.6.03,21.5-2.82,28.08-4.83,26.37-8.07,43.84-19.86,61.21-41.47,10.61-13.2,18.71-27.98,24.94-45.28,7.48-20.77,10.25-42.88,11.26-65.17h0ZM744.72,376.77h-49.89s0,.04,0,.07c-1.05,13.41-2.42,27.59-5.29,40.2-5.04,22.14-11.58,39.54-22.33,58.53-1.82,3.22-3.64,6.31-5.62,9.38-1.71,2.65-9.96,13.58-12.05,15.95-16.2,18.46-37.61,33.7-61.43,40.16-6.71,1.82-14.8,3.42-21.12,4.08-2.39.25-16.21.35-18.58.13-33.66-3.05-59.78-17.43-85.19-39.24-3.38-2.9-9.68-8.91-11.41-10.88-2.23-2.53-5.25-6.05-6.38-6.93-.19-.15-.38-.29-.45-.25-.08.04-.02.28.05.53.22.78,8.81,14.18,10.58,16.51,15.45,20.36,29.91,36,53.13,49.07,19.81,11.16,43.02,18.13,65.73,18.52,16.51.28,28.57-.39,42.18-4.8,14.68-4.76,27.7-9.91,41.19-18.34,15.46-9.66,33.1-25.39,43.21-38.23,11.09-14.09,20.29-30.28,27.3-47.3,11.85-28.76,15.39-55.59,16.38-87.15h0ZM722.49,354.13v-.1s.01-.05.06-.05h.1c.07,0,.07-.06,0-.68-.1-.87-.09-1.76-.1-2.63-.05-5.96,0-8.82,2.18-13.52,1.22-2.64,3.25-5.39,4.51-7.92,4.11-8.27,2.21-21.17-2.69-29.33-2.28-3.8-4.74-6.57-7.6-9.37-1.05-1.03-5.03-4.81-5.62-4.18-.41.44.9,2.25,1.37,3.3,1.27,2.9.91,8.26-.03,11.59-1.11,3.91-5.02,9.86-6.84,13.62-3.93,8.12-3.62,14.03.44,22.28,2.63,5.36,3.45,5.93,7.76,11.11,1.41,1.69,5.67,5.85,6.1,5.94.08.02.16.03.25.03.11,0,.13-.02.13-.09h0ZM658.95,354.04c.74-9.44-.9-10.98,2.59-17.46,4.26-7.9,6.28-9.63,6.25-18.98-.02-5.93-1.57-11.22-4.26-16.58-1.99-3.98-3.2-5.67-7.46-9.83-1.96-1.92-4.52-4.17-5.49-4.69-.14-.08-.26-.13-.34-.08-.56.36.97,3.63,1.1,3.99,3.4,9.08-4.67,19.54-8.64,28.39-.39.86-.68,1.82-.7,2.89-.03,1.41.08,3.61-.16,3.8-.04.03-.1.05-.14.09-.15.16-.17.69-.15,1.19.16,4.67,4.07,12.37,6.26,15.38,1.52,2.09,7.27,8.44,9.57,10.98.26.28.48.54,1.04.81.23.11.51.23.52.1h0ZM588.24,286.54c-.07-.06-.26-.07-.37-.02-.55.27.65,2.58.9,3.29,1.54,4.23,1.02,8.95-.29,12.28-1.43,3.61-4.78,8.64-6.7,12.93-4.68,10.45-2.66,18.22,4.33,27.96,1.24,1.73,2.54,3.34,4,5.1,1.84,2.22,6.16,6.63,6.44,6.6.23-.03.22-.79.09-2.19-.46-5.19-.2-10.21,1.66-14.49,1.26-2.89,3.49-5.86,4.89-8.6,5.18-10.17,1.62-25.21-5.84-34.11-2.49-2.96-5.68-5.89-9.11-8.74h0ZM553.19,376.72h-229.06v9.12h229.06v-9.12h0ZM382.08,441.08h31.7s-.02-38.02-.02-38.69c-3.11-8.75-12.72-13.33-21.47-10.22-4.95,1.76-8.46,5.27-10.22,10.22,0,.23-.02.52-.02.88h0s.03,37.8.03,37.8h0ZM424.3,441.08h31.7s-.02-38.02-.02-38.69c-3.11-8.75-12.72-13.33-21.47-10.22-4.95,1.76-8.46,5.27-10.22,10.22,0,.23-.02.52-.02.88h0s.03,37.8.03,37.8h0ZM466.09,441.08h31.7s-.02-38.02-.02-38.69c-3.11-8.75-12.72-13.33-21.47-10.22-4.95,1.76-8.46,5.27-10.22,10.22,0,.23-.02.52-.02.88h0s.03,37.8.03,37.8h0ZM506.76,441.08h31.7s-.02-38.02-.02-38.69c-3.11-8.75-12.72-13.33-21.47-10.22-4.95,1.76-8.46,5.27-10.22,10.22,0,.23-.02.52-.02.88h0s.03,37.8.03,37.8h0ZM359.09,340.8c-3.01,2.95-6.08,4.93-10.01,6.45-6.79,3.55-12.08,8.78-14.28,15.18-.67,1.96-1.26,5.36-1.79,8.06,0,.04-.02.08-.02.12h56.98c0-.08-.02-.17-.04-.28-1.47-8.24-3.04-11.97-9.18-17.58-3.46-3.16-4.62-3.76-7.35-5.48-3.7-1.53-6.54-3.53-9.24-6.48-.4-.38-.77-.74-1.11-1.1-.21-.22-.32-.36-.36-.48.46-1.22.49-2.4.09-3.64,0-.02.01-.04.02-.05.01-.03.03-.05.04-.08,2.64-1.01,4.02-3.87,3.17-6.57-.02-.02-.05-.05-.07-.07-.08-.08-.15-.11-.21-.12-.12,2.18-1.77,3.9-3.94,4.12-2.41.24-4.57-1.51-4.81-3.93-.02.01-.04.03-.07.05-.75,2.88.8,5.81,3.6,6.8,0,0,0,.02.01.02.02.04.03.08.04.12-.22,1.15-.18,2.17.14,3.3-.17.38-.78.97-1.59,1.63h0ZM438.16,340.8c-3.01,2.95-6.08,4.93-10.01,6.45-6.79,3.55-12.08,8.78-14.28,15.18-.67,1.96-1.26,5.36-1.79,8.06,0,.04-.02.08-.02.12h56.98c0-.08-.02-.17-.04-.28-1.47-8.24-3.04-11.97-9.18-17.58-3.46-3.16-4.62-3.76-7.35-5.48-3.7-1.53-6.54-3.53-9.24-6.48-.4-.38-.77-.74-1.11-1.1-.21-.22-.32-.36-.36-.48.46-1.22.49-2.4.09-3.64,0-.02.01-.04.02-.05.01-.03.03-.05.04-.08,2.64-1.01,4.02-3.87,3.17-6.57-.02-.02-.05-.05-.07-.07-.08-.08-.15-.11-.21-.12-.12,2.18-1.77,3.9-3.94,4.12-2.41.24-4.57-1.51-4.81-3.93-.02.01-.04.03-.07.05-.75,2.88.8,5.81,3.6,6.8,0,0,0,.02.01.02.02.04.03.08.04.12-.22,1.15-.18,2.17.14,3.3-.17.38-.78.97-1.59,1.63h0ZM515.72,340.8c-3.01,2.95-6.08,4.93-10.01,6.45-6.79,3.55-12.08,8.78-14.28,15.18-.67,1.96-1.26,5.36-1.79,8.06,0,.04-.02.08-.02.12h56.98c0-.08-.02-.17-.04-.28-1.47-8.24-3.04-11.97-9.18-17.58-3.46-3.16-4.62-3.76-7.35-5.48-3.69-1.53-6.54-3.53-9.24-6.48-.4-.38-.77-.74-1.11-1.1-.21-.22-.32-.36-.36-.48.46-1.22.49-2.4.09-3.64,0-.02.01-.04.02-.05.01-.03.03-.05.04-.08,2.64-1.01,4.02-3.87,3.17-6.57-.02-.02-.05-.05-.07-.07-.08-.08-.15-.11-.21-.12-.12,2.18-1.77,3.9-3.94,4.12-2.41.24-4.57-1.51-4.81-3.93-.02.01-.04.03-.07.05-.75,2.88.8,5.81,3.6,6.8,0,0,0,.02.01.02.02.04.03.08.04.12-.22,1.15-.18,2.17.14,3.3-.17.38-.78.97-1.59,1.63h0ZM499.71,300.9h-123.4v15.71h123.4v-15.71h0ZM386.42,293.46h103.12c-1.39-8.1-3.53-14.11-7.31-19.39-5.77-7.01-11.7-12.09-19.51-16.71-8.47-5.52-14.44-8.5-20.64-14.21-1.23-.87-2.1-1.85-2.84-3.16v-7.96h-1v7.96c-.82,1.5-1.82,2.62-3.22,3.6-6.98,4.99-17.47,10.58-24.72,14.3-6.3,3.53-11.07,7.54-15.63,13.14-4.72,6.83-6.81,13.1-8.22,22.29,0,.05-.01.09-.02.13h0ZM150.03,376.5h-19.66l.69,10.98h19.89l-.91-10.98h0ZM131.65,399.6h20.66l-.5-5.73h-20.53l.37,5.73h0ZM181.86,387.48l-1.35-10.98h-16.34l.7,10.98h16.99ZM183.39,399.6l-.97-5.72h-17.32s.38,5.72.38,5.72h17.91ZM213.87,376.5h-19.44l.68,10.98h19.67l-.9-10.98h0ZM195.7,399.6h20.43l-.49-5.73h-20.31l.37,5.73h0ZM247.73,387.48l-1.49-10.98h-18.02l.78,10.98h18.73ZM249.41,399.6l-1.07-5.72h-19.09s.42,5.72.42,5.72h19.74ZM277.79,387.48l-1.42-10.98h-17.17l.74,10.98h17.85ZM279.4,399.6l-1.02-5.72h-18.2s.4,5.72.4,5.72h18.81ZM310.92,376.5h-24.7l.86,10.98h24.98l-1.15-10.98h0ZM287.84,399.6h25.95l-.62-5.73h-25.79l.47,5.73h0ZM419.97,338.59c0-6.66-9.27-12.07-20.7-12.07s-20.7,5.4-20.7,12.07,9.27,12.07,20.7,12.07c11.43,0,20.7-5.4,20.7-12.07h0ZM496.19,338.59c0-6.66-9.27-12.07-20.7-12.07s-20.7,5.4-20.7,12.07,9.27,12.07,20.7,12.07c11.43,0,20.7-5.4,20.7-12.07h0ZM350.75,191.26h-10.15v9.6h2.11v5.16h2.63v3.09h2.31v1.62h3.29l.06,5.96-.16,23.79v3.84s-10.23,0-10.23,0v9.6h2.11v5.16h2.63v3.09h2.31v1.62h3.24v5.1s-.04,49.69-.04,49.69c0,.58,0,.68.06.69l15.5-12.26c.03-.13.03-.29.03-.51-.14-12.11-.18-27.53.15-40.12v-2.59s3.24,0,3.24,0v-1.62h2.31v-3.09h2.63v-5.16h2.11v-9.6h-10.3v-3.03s.04-22.28.04-22.28l-.04-8.27h3.26v-1.62h2.31v-3.09h2.63v-5.16h2.11v-9.6h-10.4l-.02-4.84c.01-7.56.02-17.17-.08-21.84l-8.51-36.25-7.16,36.24c-.17,6.16-.08,15.78-.01,21.85l.05,4.84h0ZM523.64,191.26h10.15v9.6h-2.11v5.16h-2.63v3.09h-2.31v1.62h-3.29l-.06,5.96.16,23.79v3.84s10.23,0,10.23,0v9.6h-2.11v5.16h-2.63v3.09h-2.31v1.62h-3.24v5.1s.04,49.69.04,49.69c0,.29,0,.45-.01.55l-15.55-12.11c-.03-.13-.04-.29-.03-.52.14-12.11.18-27.53-.15-40.12v-2.59s-3.24,0-3.24,0v-1.62h-2.31v-3.09h-2.63v-5.16h-2.11v-9.6h10.3v-3.03s-.04-22.28-.04-22.28l.04-8.27h-3.26v-1.62h-2.31v-3.09h-2.63v-5.16h-2.11v-9.6h10.4l.02-4.84c-.01-7.56-.02-17.17.08-21.84l8.51-36.25,7.16,36.24c.17,6.16.08,15.78.01,21.85l-.04,4.84h0Z"/>
      <path class="cls-2" d="M94.75,614.16c10.43,11.31,19.75,20.39,31.33,30.52,9.65,8.48,18.05,15.35,28.28,23.13,22.72,17.22,43.37,29.87,69.04,42.29,14.09,6.79,26.25,11.98,40.9,17.44,76.03,28.3,146.24,37.11,226.9,28.49,42.26-4.51,77.53-12.79,117.37-27.58,43.88-16.3,79-35.52,116.39-63.69,31.56-23.78,58.37-50.33,81.15-82.15,8.96-12.54,15.99-23.53,23.6-36.93,12.46-21.84,21.17-41.33,29.12-65.18,17.57-52.97,21.03-101.79,11.07-156.71-5.53-30.12-13.37-55.01-26.11-82.85-16.4-35.87-36.68-67.61-63.14-96.36-26.69-29-58.81-54.92-92.68-75.66-25.35-15.47-47.98-26.57-75.73-37.15C553.62,9.5,500.46-.17,437.75,0c-24.4.04-45,1.45-69.18,4.73-79.76,10.87-154.24,41.07-218.11,89.25-31.6,23.83-58.35,50.3-81.15,82.15-8.97,12.54-15.99,23.52-23.6,36.93-12.46,21.83-21.17,41.33-29.12,65.18C-1,331.22-4.45,380.04,5.51,434.96c5.53,30.12,13.37,55.01,26.11,82.85,16.48,36.04,36.63,67.54,63.14,96.36h0ZM863.4,401.78c1.88-26.83.62-49.72-4.18-76.18-15.56-82.64-53.4-148.45-116.99-203.48-41.61-36.22-82.31-60.66-133.84-80.37C509.3,3.99,398.1.82,296.68,31.4c-53,16.09-95.48,37.71-139.68,71.09-42.77,32.13-75.52,69.04-101.81,115.68l-.13.22c-25.82,44.37-39.11,87.05-43.06,138.24-4.1,55.69,7.32,107.11,29.54,156.62,22.13,49.65,50.37,87.57,91.59,123.01l.22.2c40.66,36.07,83.74,61.87,134.72,80.74,74.37,27.68,143.05,36.31,221.96,27.87,86.78-9.08,158.44-37.06,228.41-89.18,43.78-32.55,75.04-68.08,101.76-115.64,24.77-43.79,39.31-88.16,43.19-138.46h0Z"/>
      <path class="cls-2" d="M778.5,395c5.24-90.94-36.44-147.5-46.17-160.68-13.53-18.29-26.88-32.34-44.45-46.8l-.21-.18c-33.87-29.74-67.05-49.82-109.12-66.02-60.86-23.02-117.19-30.27-181.9-23.42-68.63,7.19-133.29,30.81-187.98,71.94-30.93,23.32-53.5,47.89-74.13,80.67-10.65,17-18.09,32.34-24.84,51.23-7.4,20.67-11.3,39-12.96,60.89-.8,18.7.04,34.57,2.82,53.07,6.14,41.08,19.91,74.7,44.36,108.28,13.49,18.44,26.75,32.66,44.2,47.41l.06.05c59.2,50.79,128.49,82.66,205.41,90.13,29.61,2.87,56.68,2.28,86.22-1.04,104.22-11.72,207.86-63.18,262.9-155.94,20.74-35.19,31.76-68.93,35.78-109.59h0ZM770.02,394.37c1.33-22.2.07-41.12-4.18-62.95-10.8-55.72-40.52-101.74-83.32-137.3l-.44-.37c-32.81-29.36-65.28-49.01-106.51-64.46l-.08-.03c-28.27-10.9-53.2-17.44-83.18-21.82-31.96-4.52-62.76-4.44-94.8-1.08-68.21,7.15-129.89,30.03-183.74,70.28-29.32,21.91-52.68,47.22-71.99,78.33l-.06.1c-19.32,30.68-34.29,70.3-36.5,108.05-1.02,17.43.3,34.17,2.75,51.42,5.45,39.7,18.78,72.23,42.75,104.34l.08.11c12.94,17.92,25.78,31.7,42.75,45.86l.16.14c82.19,70.48,178.33,99.71,285.07,87.1,24.69-2.87,45.35-7.03,69.23-13.94,49.36-14.39,96.04-38.97,134.37-73.41,21.91-19.7,37.93-39.19,53.01-64.5,19.49-32.59,31.26-67.99,34.61-105.87h0Z"/>
      <path class="cls-1" d="M102.63,173.24l32.19-31.79,16.99,8.4-3.16,6.83c-2.9-1.24-5.54-1.93-7.92-2.08-2.39-.15-4.47.25-6.25,1.19s-3.58,2.32-5.41,4.12l-5.89,5.82,9.91,10.03,1.93-1.91c1.45-1.43,2.32-2.51,2.61-3.23.29-.72.31-1.43.06-2.12-.25-.69-1.07-1.74-2.46-3.15l-1.51-1.53,4.93-4.86,16.87,17.08-4.93,4.86-1.72-1.74c-1.17-1.18-2.15-1.91-2.96-2.19-.8-.28-1.53-.29-2.18-.03s-1.77,1.17-3.35,2.73l-1.74,1.72,9.15,9.27c.97.98,1.61,1.54,1.91,1.66s.64.11,1.03-.04c.38-.15,1.02-.66,1.9-1.53l3.23-3.2c2.41-2.38,4.09-4.76,5.03-7.12.94-2.36,1.27-4.99.97-7.89s-1.19-5.8-2.68-8.71l6.86-3.17,9.75,19.99-33.34,32.93-5.52-5.59.97-.95c1.29-1.27,2.06-2.22,2.31-2.85s.23-1.27-.06-1.94c-.19-.38-.96-1.24-2.29-2.59l-21.68-21.96c-1.18-1.19-2.03-1.9-2.55-2.11s-1.03-.24-1.54-.1c-.51.14-1.26.7-2.23,1.66l-1.71,1.69-5.52-5.59h0Z"/>
      <path class="cls-1" d="M218.58,81.48l23.72-11.62,3.46,7.06-2.08,1.02c-1.15.57-1.85.98-2.09,1.25-.43.51-.66,1.08-.67,1.71-.01.62.25,1.48.79,2.57l14.23,29.06c.57,1.17.97,1.86,1.21,2.07s.55.32.96.32c.4,0,1.07-.23,2-.69,3.12-1.53,5.42-3.18,6.9-4.96,1.48-1.78,2.52-3.98,3.12-6.61s.66-5.83.17-9.6l7.55-.85,2.81,21.98-37.15,18.2-3.46-7.06,2.32-1.14c.95-.46,1.6-.95,1.95-1.45.35-.51.53-1.04.53-1.59,0-.56-.28-1.39-.82-2.51l-14.11-28.81c-.6-1.22-1.13-2.04-1.61-2.46-.48-.43-.98-.66-1.51-.71s-1.26.16-2.2.63l-2.56,1.26-3.46-7.06h0Z"/>
      <path class="cls-1" d="M370.69,30.72l12.11-1.6,21.87,41.26c1.18,2.19,2.15,3.5,2.91,3.95s2.04.53,3.85.26l1.03,7.79-25.42,3.37-1.03-7.79,1.53-.24c1.41-.19,2.37-.51,2.88-.98.51-.46.73-.98.66-1.54-.06-.48-.44-1.44-1.12-2.87l-2.3-4.88-16.3,2.16-1.25,5.92c-.25,1.26-.35,2.07-.3,2.45.06.43.26.8.6,1.1.34.31.85.5,1.54.57.45.05,1.66-.06,3.63-.32l1.03,7.79-20.77,2.75-1.03-7.79c1.33-.18,2.29-.43,2.87-.75.58-.32,1.04-.75,1.37-1.28.33-.53.66-1.49.97-2.86l10.67-46.48h0ZM373.14,61.2l10.65-1.41-7.24-14.72-3.41,16.13h0Z"/>
      <path class="cls-1" d="M542.3,38.41l-1.5,7.71-35.77,33.77,3.32.65c4.58.89,8.08,1.11,10.52.66,2.44-.45,4.83-1.62,7.19-3.5s4.39-4.37,6.1-7.46l6.5,3.83-10.99,19.25-40.64-7.9,1.5-7.74,35.83-33.64-4.42-.86c-2.99-.58-5.48-.68-7.45-.29s-3.77,1.18-5.4,2.38-4.15,3.89-7.58,8.08l-6.1-4.41,11.83-17.73,37.03,7.19h0Z"/>
      <path class="cls-1" d="M631.86,71.14l23.4,12.27-3.65,6.96-2.13-1.12c-1.24-.65-2.11-.96-2.63-.95s-1.01.22-1.46.61-1.04,1.28-1.77,2.67l-14.56,27.76c-.79,1.51-1.22,2.52-1.29,3.04s.05.97.33,1.37c.33.54.97,1.06,1.94,1.57l2.54,1.33-3.65,6.96-23.4-12.27,3.65-6.96,1.9,1c1.36.71,2.3,1.08,2.82,1.09.52.01,1-.15,1.43-.49.43-.34.99-1.17,1.68-2.49l14.62-27.87c.82-1.56,1.26-2.63,1.32-3.23.06-.59-.07-1.14-.39-1.65-.22-.36-.95-.87-2.2-1.52l-2.14-1.12,3.65-6.96h0Z"/>
      <path class="cls-1" d="M737.17,179.56l18.62,18.74-5.61,5.58-1.4-1.4c-.91-.92-1.62-1.46-2.14-1.63s-1.04-.15-1.57.06c-.54.21-1.34.84-2.4,1.89l-12.61,12.54-5.61-5.64,1.44-4.33c-2.9-.54-5.57-1.44-8.01-2.71s-4.65-2.89-6.64-4.89c-3.48-3.51-5.76-7.58-6.84-12.24-1.08-4.66-.85-9.42.69-14.28,1.54-4.87,4.29-9.27,8.27-13.23,3.94-3.91,8.29-6.58,13.05-8.02,4.76-1.43,9.52-1.55,14.28-.35,4.76,1.2,8.87,3.54,12.34,7.02,1.68,1.69,3.13,3.59,4.35,5.72,1.22,2.12,2.05,4.15,2.49,6.09l2.8-.76,3.83,3.85-9.86,16.7-6.77-3.35c1.2-4.63,1.83-7.96,1.9-10.01.06-2.05-.25-4.02-.95-5.9s-1.65-3.44-2.87-4.67c-1.73-1.74-3.88-2.85-6.44-3.31-2.56-.46-5.29-.13-8.19,1s-5.79,3.13-8.67,5.99c-3.17,3.15-5.43,6.36-6.8,9.63-1.36,3.27-1.83,6.25-1.4,8.93.43,2.68,1.57,4.95,3.44,6.83,1.31,1.32,2.84,2.3,4.57,2.93s3.17.82,4.3.58,2.28-.95,3.45-2.12l1.47-1.46c1.02-1.01,1.6-1.72,1.74-2.11.18-.58.19-1.13.03-1.64s-.74-1.26-1.72-2.25l-2.16-2.17,5.61-5.58h0Z"/>
      <path class="cls-1" d="M770.12,153.61l1.78,3.58c-2.31.83-4.86.87-7.65.12s-5.16-2.05-7.12-3.92c-3.93-3.77-5.32-8.55-4.17-14.35l3.63,1.6c.17,1.58.65,3.13,1.45,4.66s1.85,2.92,3.14,4.16c2.47,2.36,5.45,3.74,8.93,4.14h0Z"/>
      <path class="cls-1" d="M96,260.94c0-7.27-5.89-13.16-13.16-13.16s-13.16,5.89-13.16,13.16,5.89,13.16,13.16,13.16,13.16-5.89,13.16-13.16h0Z"/>
      <path class="cls-1" d="M805.52,260.94c0-7.27-5.89-13.16-13.16-13.16s-13.16,5.89-13.16,13.16,5.89,13.16,13.16,13.16,13.16-5.89,13.16-13.16h0Z"/>
      <path class="cls-1" d="M75.86,377.26l7.86-.09.36,30.79c.05,4.71-.48,8.42-1.6,11.12-1.12,2.71-2.75,4.8-4.89,6.27s-4.49,2.23-7.07,2.26c-1.87.02-3.65-.34-5.34-1.09-1.69-.75-3.18-1.83-4.49-3.26-1.3-1.42-2.39-3.31-3.26-5.67-.65,2.55-1.37,4.5-2.17,5.86-1.11,1.96-2.69,3.52-4.72,4.68-2.03,1.16-4.31,1.76-6.83,1.79-3.01.03-5.79-.8-8.34-2.5-2.55-1.7-4.51-4.13-5.88-7.29-1.36-3.15-2.08-7.78-2.16-13.89l-.33-28.41,7.86-.09.03,2.14c.02,1.43.16,2.39.42,2.9s.63.85,1.11,1.06,1.54.29,3.19.27l31.59-.37c1.68-.02,2.75-.14,3.2-.35s.82-.57,1.08-1.08c.27-.51.39-1.48.37-2.9l-.02-2.14h0ZM60.99,397.25l.07,5.95c.04,3.11.34,5.41.89,6.9.56,1.48,1.39,2.6,2.5,3.34s2.38,1.1,3.81,1.08c1.49-.02,2.76-.39,3.81-1.11,1.05-.73,1.79-1.77,2.22-3.12s.63-3.77.59-7.24l-.07-5.95-13.82.16h0ZM52.66,397.35l-12.24.14c-1.73.05-2.74.12-3.04.23-.38.13-.64.35-.78.65s-.21,1.11-.19,2.43l.05,3.96c.03,2.3.27,4.21.74,5.72s1.4,2.78,2.82,3.83,3.11,1.55,5.09,1.53c1.67-.02,3.09-.41,4.24-1.18s2.02-1.9,2.59-3.41c.58-1.51.85-3.8.81-6.88l-.08-7.03h0Z"/>
      <path class="cls-1" d="M105,483.17l23.75,38.51-12.01,14.66-5.94-4.61c1.86-2.54,3.12-4.96,3.8-7.25.68-2.29.76-4.41.24-6.36s-1.45-4.01-2.8-6.19l-4.34-7.04-12,7.4,1.42,2.31c1.07,1.74,1.93,2.83,2.56,3.27s1.32.62,2.05.53c.73-.09,1.93-.65,3.62-1.68l1.83-1.13,3.63,5.89-20.44,12.6-3.63-5.89,2.09-1.29c1.41-.87,2.35-1.67,2.8-2.39s.63-1.42.52-2.12-.74-1.98-1.91-3.88l-1.28-2.08-11.09,6.84c-1.18.73-1.86,1.22-2.05,1.49-.19.27-.25.6-.19,1.01s.41,1.14,1.07,2.2l2.39,3.87c1.78,2.89,3.72,5.06,5.81,6.51s4.58,2.36,7.47,2.72c2.89.36,5.92.15,9.09-.66l1.55,7.4-21.67,5.01-24.6-39.89,6.69-4.13.71,1.16c.95,1.54,1.7,2.5,2.26,2.89.56.39,1.19.51,1.9.38.41-.1,1.43-.65,3.04-1.65l26.27-16.2c1.43-.88,2.3-1.55,2.63-2.01.32-.46.47-.95.45-1.48s-.4-1.38-1.12-2.54l-1.26-2.05,6.69-4.13h0Z"/>
      <path class="cls-1" d="M176.14,576.73l19.96,17.3-5.15,5.94-1.75-1.51c-.97-.84-1.63-1.32-1.97-1.44-.64-.2-1.25-.18-1.83.05s-1.26.81-2.06,1.73l-21.19,24.45c-.85.98-1.33,1.62-1.44,1.92s-.08.64.08,1.01.63.9,1.41,1.57c2.62,2.27,5.04,3.74,7.26,4.41,2.22.67,4.65.76,7.31.29,2.66-.47,5.62-1.67,8.9-3.59l3.73,6.62-19.14,11.17-31.26-27.09,5.15-5.94,1.95,1.69c.8.69,1.5,1.1,2.1,1.23.6.13,1.16.08,1.67-.14.51-.22,1.18-.8,1.99-1.74l21.01-24.24c.89-1.02,1.43-1.84,1.64-2.45.21-.61.23-1.16.07-1.66s-.64-1.09-1.44-1.78l-2.16-1.87,5.15-5.94h0Z"/>
      <path class="cls-1" d="M266.46,639.26l41.49,18.04-1.47,18.9-7.51-.39c.07-3.15-.27-5.86-1.02-8.13s-1.9-4.05-3.43-5.36-3.48-2.46-5.84-3.48l-7.59-3.3-5.62,12.93,2.49,1.08c1.87.81,3.2,1.22,3.97,1.22.78,0,1.44-.25,1.99-.73.55-.49,1.22-1.64,2.01-3.45l.86-1.98,6.35,2.76-9.57,22.02-6.35-2.76.98-2.25c.66-1.52.97-2.71.93-3.56s-.3-1.53-.78-2.03c-.48-.51-1.74-1.2-3.78-2.09l-2.24-.97-5.19,11.94c-.55,1.27-.83,2.07-.83,2.39s.14.64.42.94.99.7,2.13,1.19l4.17,1.81c3.11,1.35,5.94,2.03,8.48,2.02,2.54,0,5.1-.68,7.68-2.03s4.94-3.26,7.09-5.73l5.5,5.18-14.92,16.5-42.98-18.68,3.13-7.21,1.24.54c1.66.72,2.83,1.08,3.5,1.08s1.27-.26,1.78-.78c.28-.32.8-1.35,1.55-3.09l12.3-28.3c.67-1.54,1.01-2.59,1.01-3.15s-.16-1.05-.48-1.47c-.32-.42-1.11-.91-2.37-1.45l-2.21-.96,3.13-7.21h0Z"/>
      <path class="cls-1" d="M377.08,674.2l28.31,2.58c6.43.59,11.44,2.12,15.04,4.6,3.6,2.48,6.34,5.91,8.22,10.3s2.55,9.51,2.02,15.36c-.37,4.07-1.28,7.66-2.72,10.77-1.44,3.11-3.42,5.84-5.92,8.21-2.51,2.37-5.12,4.08-7.85,5.14-2.05.79-4.91,1.34-8.56,1.63-3.66.29-6.57.34-8.74.14l-24.94-2.28.71-7.83,1.86.17c1.58.14,2.63.1,3.14-.12.52-.22.96-.65,1.33-1.27.25-.49.46-1.6.62-3.33l2.81-30.81c.16-1.72.15-2.85-.03-3.37-.17-.52-.5-.93-.98-1.23s-1.54-.53-3.17-.68l-1.86-.17.71-7.83h0ZM396.03,685.07l-3.2,35.1c-.11,1.19-.11,1.92,0,2.2.17.42.45.73.83.91s1.34.35,2.86.49c4.23.39,7.6,0,10.11-1.14s4.64-3.16,6.39-6.03,2.81-6.39,3.19-10.55c.37-4.1.01-7.73-1.09-10.9s-2.62-5.46-4.54-6.88-4.78-2.31-8.58-2.66l-5.96-.54h0Z"/>
      <path class="cls-1" d="M498.12,676.07l25.92-5.09,1.51,7.71-2.36.46c-1.37.27-2.25.57-2.65.91s-.65.8-.76,1.39c-.11.59-.01,1.65.29,3.19l6.04,30.76c.33,1.67.63,2.73.9,3.17.27.44.64.73,1.12.86.59.21,1.43.22,2.49,0l2.81-.55,1.51,7.71-25.92,5.09-1.51-7.71,2.1-.41c1.51-.29,2.46-.6,2.88-.92s.68-.74.8-1.28.04-1.53-.25-2.99l-6.06-30.88c-.34-1.73-.67-2.84-.99-3.34s-.77-.85-1.34-1.04c-.4-.14-1.29-.08-2.67.19l-2.37.47-1.51-7.71h0Z"/>
      <path class="cls-1" d="M508.32,658.74c1.5-.29,2.92.03,4.25.99s2.16,2.21,2.46,3.78c.29,1.49.02,2.88-.82,4.18-.84,1.3-2,2.09-3.47,2.38-1.5.29-2.9-.01-4.2-.91-1.3-.9-2.1-2.15-2.42-3.75-.32-1.62-.07-3.06.73-4.33s1.96-2.04,3.46-2.34h0Z"/>
      <path class="cls-1" d="M583.66,653.62l24-12.19,3.56,7.01-1.8.91c-1.27.64-2.01,1.15-2.23,1.52-.22.37-.21.78.02,1.24.32.63,1.17,1.38,2.54,2.25l11.92,7.72,1.25-14.99c.12-1.3.19-2.03.19-2.19-.04-.31-.13-.6-.27-.87-.21-.41-.49-.65-.86-.7s-1.03.16-2.01.66l-2.47,1.26-3.56-7.01,19.29-9.8,3.56,7.01c-1.68.88-2.76,1.69-3.25,2.42s-.83,2.08-1.03,4.03l-2.9,26.16,4.58,9.01c.81,1.59,1.43,2.57,1.87,2.95.44.37.95.55,1.54.54s1.58-.37,2.97-1.08l1.7-.87,3.56,7.01-23.59,11.99-3.56-7.01,1.28-.65c1.66-.84,2.67-1.5,3.01-1.96.34-.46.5-1.03.47-1.7-.03-.67-.47-1.82-1.3-3.46l-4.01-7.89-23.22-13.93c-1.83-1.08-3.23-1.62-4.2-1.65-.69.02-1.86.44-3.5,1.28l-3.56-7.01h0Z"/>
      <path class="cls-1" d="M686.22,592.34l32.14-31.84,17,8.38-3.15,6.83c-2.9-1.23-5.54-1.92-7.93-2.07s-4.47.26-6.25,1.2c-1.78.95-3.58,2.32-5.4,4.12l-5.88,5.82,9.92,10.02,1.93-1.91c1.45-1.44,2.32-2.52,2.6-3.24.29-.72.31-1.43.06-2.12-.25-.69-1.07-1.74-2.46-3.14l-1.52-1.53,4.92-4.87,16.9,17.06-4.92,4.87-1.73-1.74c-1.17-1.18-2.16-1.91-2.96-2.19-.8-.28-1.53-.29-2.18-.03s-1.77,1.17-3.34,2.74l-1.73,1.72,9.17,9.25c.97.98,1.61,1.53,1.91,1.66.3.12.64.11,1.03-.04s1.01-.66,1.9-1.53l3.23-3.2c2.41-2.39,4.08-4.76,5.03-7.13.94-2.36,1.26-4.99.96-7.89s-1.2-5.8-2.7-8.71l6.85-3.18,9.78,19.98-33.29,32.98-5.53-5.59.96-.96c1.29-1.27,2.05-2.22,2.3-2.85s.23-1.28-.06-1.94c-.19-.38-.96-1.24-2.29-2.59l-21.72-21.92c-1.18-1.19-2.03-1.89-2.55-2.1s-1.03-.24-1.54-.1-1.25.7-2.23,1.66l-1.71,1.69-5.53-5.59h0Z"/>
      <path class="cls-1" d="M776.51,467.99l19.26,3.43-.98,7.54c-5.11.36-9.25,1.52-12.4,3.45s-5.42,4.47-6.81,7.61c-.9,2.03-1.17,3.82-.82,5.37.35,1.55,1.06,2.56,2.13,3.03,1.21.54,2.58.5,4.09-.1,1.5-.58,3.28-2.08,5.33-4.51l7.11-8.24c3.92-4.58,7.69-7.42,11.31-8.51,3.64-1.05,7.21-.8,10.73.75,4.49,1.98,7.53,5.36,9.12,10.14,1.74,5.33,1.35,10.82-1.15,16.48-1.16,2.63-2.58,4.89-4.25,6.78s-3.87,3.67-6.58,5.33l3.03,3.21-2.34,5.29-21.66-5.39,1.27-7.41c4.78.24,9.26-.68,13.45-2.77s7.17-5.11,8.91-9.07c.78-1.78,1.2-3.35,1.25-4.73.05-1.38-.22-2.55-.8-3.51-.58-.96-1.31-1.64-2.2-2.03-1.48-.66-3.06-.53-4.73.38-1.68.93-3.81,2.91-6.39,5.94l-6.19,7.18c-.93,1.09-2.38,2.48-4.35,4.17s-3.77,2.86-5.4,3.51c-1.62.66-3.47.97-5.56.96-2.08-.02-4.09-.45-6.02-1.3-2.75-1.22-4.96-3.06-6.64-5.54-1.67-2.48-2.58-5.5-2.73-9.07-.14-3.56.57-7.12,2.14-10.67,1.9-4.29,4.77-7.65,8.61-10.09l-1.99-2.54,2.25-5.08h0Z"/>
      <path class="cls-1" d="M797.37,403.77l-.06-26.42,7.86-.02v2.4c0,1.4.14,2.32.4,2.77.26.45.67.79,1.22,1.01.56.22,1.62.33,3.19.32l31.35-.08c1.7,0,2.8-.1,3.29-.28.49-.18.84-.49,1.05-.93.32-.54.48-1.36.48-2.44v-2.87s7.85-.02,7.85-.02l.06,26.42-7.86.02v-2.15c0-1.53-.13-2.53-.36-3-.23-.47-.6-.81-1.1-1.03-.5-.22-1.5-.33-2.98-.33l-31.47.08c-1.76,0-2.92.12-3.47.34-.56.22-.98.59-1.28,1.11-.22.36-.32,1.25-.32,2.65v2.42s-7.86.02-7.86.02h0Z"/>
      <path class="cls-1" d="M782.33,390.28c0-1.53.59-2.86,1.78-3.98,1.19-1.13,2.58-1.7,4.18-1.7,1.52,0,2.83.53,3.94,1.6s1.67,2.36,1.68,3.86c0,1.53-.56,2.84-1.7,3.95-1.14,1.1-2.52,1.66-4.14,1.66-1.65,0-3.02-.51-4.11-1.54-1.09-1.03-1.63-2.31-1.64-3.84h0Z"/>
    </g>
  </g>
</svg>