<?xml version="1.0" encoding="iso-8859-1"?>
<!-- Generator: Adobe Illustrator 29.7.1, SVG Export Plug-In . SVG Version: 9.03 Build 0)  -->
<svg version="1.1" id="Layer_1" xmlns="http://www.w3.org/2000/svg" xmlns:xlink="http://www.w3.org/1999/xlink" x="0px" y="0px"
	 viewBox="0 0 1920 1080" style="enable-background:new 0 0 1920 1080;" xml:space="preserve">
<g>
	<path style="fill-rule:evenodd;clip-rule:evenodd;fill:#0000FF;" d="M675.298,567.057h-20.773
		c1.814,15.475,5.287,31.336,10.396,46.6c0.921,2.751,8.603,20.772,10.221,23.976c9.043,17.91,21.046,35.27,36.466,50.145
		c6.854,6.612,18.095,15.182,26.487,20.498c12.428,7.871,36.557,18.887,51.689,22.272c1.944,0.435,17.674,2.068,20.894,2.17
		c22.921,0.722,46.151-2.657,67.456-12.882c2.962-1.422,19.264-10.083,23.294-13.265c1.919-1.515,3.699-3.306,5.532-4.633
		c0.859-0.622,1.729-1.142,2.626-1.743c1.228-0.823,10.781-9.682,11.833-10.973c0.628-0.771,1.196-1.52,1.835-2.24
		c1.348-1.52,3.011-2.913,4.596-4.441c1.29-1.244,9.905-12.032,11.639-14.576c3.025-4.436,5.717-8.598,9.365-13.939
		c1.101-1.612,2.338-3.52,2.548-4.335c0.07-0.273,0.004-0.35-0.36-0.247c-0.475,0.133-2.375,2-3.482,3.329
		c-8.602,10.337-26.586,24.384-34.737,29.857c-17.345,11.646-32.813,17.965-53.273,21.685c-2.94,0.535-8.194,1.074-10.365,1.064
		c-3.44-0.016-8.535,0.295-8.876,0.548c-0.167,0.124-0.285,0.271-0.461,0.366c-0.566,0.305-4.852-0.97-7.233-1.16
		c-0.932-0.074-1.662,0.066-2.464,0.126c-4.041,0.303-19.157-3.585-23.309-4.824c-16.584-4.95-30.899-14.492-43.723-25.455
		c-8.373-7.158-12.305-11.713-19.148-20.022c-2.479-3.01-7.659-10.122-8.542-11.729c-0.524-0.953-0.981-1.898-1.501-2.847
		c-1.158-2.112-2.628-4.239-4.015-6.433c-1.279-2.023-9.46-18.261-10.687-21.213c-5.947-14.298-10.181-29.213-13.177-45.677h-17.328
		c1.05,6.808,2.541,16.788,3.309,20.048c0.801,3.398,1.804,6.605,2.477,9.846c0.614,2.953,0.954,5.934,1.591,8.88
		c2.475,11.442,12.742,35.321,17.236,44.879c0.266,0.566,0.288,0.628,0.219,0.617c-0.196-0.031-0.192,0.025-0.251,0.14
		c-0.07,0.137-0.268,0.115-0.47,0.07c-0.421-0.093-7.665-7.344-8.473-8.479C689.946,622.777,679.814,595.122,675.298,567.057
		L675.298,567.057z M738.95,567.057h-20.621c3.178,19.26,6.698,29.883,13.84,46.695c1.587,3.736,4.599,9.834,5.442,11.016
		c0.289,0.406,0.585,0.786,0.876,1.197c1.331,1.878,2.846,4.99,4.313,7.605c4.569,8.148,14.614,20.08,20.573,25.926
		c1.945,1.908,13.662,11.593,16.127,13.329c14.252,10.041,34.347,18.289,53.148,20.479c2.906,0.339,15.28,1.056,18.305,0.784
		c2.175-0.196,4.368-0.663,6.28-0.659c0.791,0.002,1.534,0.084,2.319,0.099c5.936,0.115,25.792-5.837,30.117-7.523
		c13.109-5.113,25.158-12.695,35.804-21.078c2.806-2.21,9.969-8.645,11.456-10.293c1.223-1.354,2.38-2.775,3.53-3.907
		c0.643-0.632,1.283-1.174,2.052-1.883c1.079-0.995,6.159-7.444,6.008-7.628c-0.377-0.458-1.062,0.097-2.128,0.952
		c-1.193,0.957-8.138,4.97-10.462,6.045c-1.074,0.497-2.128,0.967-3.079,1.492c-0.57,0.315-1.103,0.649-1.665,0.972
		c-6.133,3.532-21.865,8.511-28.485,9.912c-15.84,3.353-29.387,3.083-43.799-0.715c-18.14-4.78-27.293-9.932-43.346-22.147
		c-3.166-2.409-13.743-11.477-15.659-13.425c-7.998-8.131-13.158-15.014-18.138-25.938c-4.448-9.758-7.441-19.92-9.297-30.926
		c-0.027-0.162-0.053-0.286-0.087-0.383h-20.292c0.002,0.015,0.003,0.031,0.005,0.048c1.782,15.345,5.174,28.718,9.455,43.189
		c0.177,0.6,0.19,0.665,0.12,0.654c-0.051-0.008-0.116-0.014-0.155,0.002c-0.061,0.026-0.057,0.106-0.085,0.15
		c-0.041,0.064-0.151,0.047-0.267,0.006c-0.488-0.173-1.074-0.778-1.627-1.357c-2.692-2.818-6.93-7.44-8.753-10.854
		c-0.413-0.773-0.748-1.541-1.179-2.254c-0.27-0.446-0.577-0.87-0.871-1.313C744.948,589.644,740.635,574.466,738.95,567.057
		L738.95,567.057z M803.341,567.057h-18.786c-0.084,0.075-0.086,0.256-0.083,0.443c0.017,0.885,2.914,10.822,3.943,13.526
		c7.689,20.193,15.164,32.515,32.901,46.745c9.969,7.998,22.767,14.221,34.25,17.931c2.386,0.771,11.822,2.88,13.47,3.011
		c1.95,0.155,3.967,0.168,5.629,0.473c0.469,0.086,0.909,0.195,1.379,0.291c1.445,0.294,7.676,0.56,9.815,0.42
		c2.312-0.152,4.478-0.449,6.419-0.421c0.999,0.014,1.938,0.115,2.94,0.126c5.768,0.065,24.665-5.229,30.654-7.5
		c5.849-2.219,10.362-4.927,15.996-8.012c1.139-0.624,1.521-0.862,1.476-1.491c-0.012-0.167-0.082-0.177-0.703-0.098
		c-19.454,2.479-33.908,2.579-52.627-3.297c-13.11-4.116-26.603-13.97-34.244-23.496c-5.314-6.626-11.515-18.369-14.621-26.831
		c-1.378-3.753-2.537-7.71-3.706-11.597c-0.025-0.084-0.049-0.158-0.073-0.223h-26.052c0.004,0.089,0.021,0.201,0.048,0.342
		c1.453,7.695,3.262,13.598,5.795,22.084c0.179,0.599,0.191,0.665,0.122,0.654c-0.051-0.008-0.116-0.014-0.155,0.002
		c-0.061,0.026-0.057,0.107-0.085,0.15c-0.04,0.061-0.145,0.041-0.262-0.006c-0.644-0.258-1.622-1.332-2.32-2.043
		c-0.407-0.415-0.721-0.707-1.034-1.043c-0.688-0.735-5.305-8.804-6.257-10.935c-1.359-3.041-2.487-5.836-3.635-8.794
		C803.465,567.285,803.407,567.153,803.341,567.057L803.341,567.057z M680.125,513.082c0,0.058,0.152,0.004,0.232,0.01
		c0.118,0.009,0.047,0.242,0.083,0.369c0.041,0.144,0.263,0.156,0.453,0.118c0.234-0.048,0.42-0.172,0.617-0.321
		c1.709-1.295,9.528-10.324,10.527-11.771c1.772-2.566,4.715-8.418,5.29-10.998c0.711-3.195,0.405-8.981-0.321-11.47
		c-0.614-2.104-7.618-14.379-8.757-17.536c-0.461-1.277-0.706-2.434-0.883-3.744c-0.148-1.093,0.231-6.012,0.521-6.754
		c0.33-0.845,2.184-4.017,1.354-4.534c-0.407-0.253-1.309,0.546-2.143,1.3c-10.049,9.085-15.969,17.487-15.917,30.533
		c0.031,7.789,2.404,10.33,6.535,17.997c1.723,3.199,2.554,6.53,2.61,10.414C680.353,508.793,680.117,511.485,680.125,513.082
		L680.125,513.082z M744.542,514.305c0.045,0.238,0.648-0.158,1.186-0.618c5.863-5.011,16.703-18.178,16.479-27.425
		c-0.061-2.525-0.874-6.487-1.397-7.991c-1.023-2.942-7.003-13.233-8.113-16.349c-1.232-3.458-1.791-8.187-0.29-12.187
		c0.448-1.194,1.22-2.569,1.05-2.854c-0.09-0.151-0.42-0.13-0.773-0.033c-0.51,0.14-5.772,4.77-6.786,5.971
		c-5.413,6.41-10.094,14.012-10.385,23.21c-0.129,4.091,0.513,8.947,2.036,12.03c1.83,3.705,5.542,10.235,6.087,12.204
		c0.146,0.529,1.164,6.632,1.148,8.388C744.767,510.617,744.281,512.915,744.542,514.305L744.542,514.305z M806.899,514.885
		c0.147,0.18,2.39-1.859,3.016-2.741c2.262-3.187,5.649-6.318,7.804-8.942c3.135-3.818,6.456-11.276,6.626-16.645
		c0.119-3.754-1.095-8.287-2.972-11.838c-4.299-8.136-7.163-11.551-7.538-18.944c-0.071-1.393,0.069-3.097,0.414-4.249
		c0.775-2.588,2.516-4.973,1.029-4.548c-0.518,0.148-5.876,4.88-7.013,6.193c-5.144,5.941-9.493,13.256-10.1,21.97
		c-0.372,5.338,0.672,11.143,3.031,15.876c1.278,2.563,3.104,5.309,4.081,7.596c0.399,0.934,0.656,1.791,0.928,2.707
		c0.411,1.386,1.072,6.531,0.956,7.453C806.873,511.071,806.679,514.615,806.899,514.885L806.899,514.885z M863.021,602.075
		c6.161,0,31.703,0,31.703,0s-0.021-38.016-0.022-38.686c-3.108-8.751-12.722-13.326-21.473-10.218
		c-4.949,1.758-8.461,5.27-10.219,10.22c-0.009,0.226-0.017,0.522-0.023,0.881c0,0,0,0,0,0.002L863.021,602.075L863.021,602.075z
		 M1131.784,537.764h-42.028c-0.013,0.076-0.024,0.164-0.034,0.269c-1.673,17.442-2.833,26.955-8.364,41.849
		c-3.737,10.063-10.733,23.417-18.381,31.216c-8.074,8.234-20.75,16.087-31.201,19.188c-12.497,3.708-22.23,4.575-35.623,4.389
		c-6.662-0.093-11.249-0.495-17.833-1.815c-0.614-0.123-0.682-0.124-0.687-0.013l-0.005,0.124c-0.005,0.111,0.053,0.162,0.573,0.51
		c12.145,8.132,30.222,13.818,42.095,15.794c11.192,1.863,20.417,2.067,31.886,0.553c16.71-2.206,28.637-7.289,43.526-17.034
		c16.126-10.555,30.105-27.377,35.874-45.196c0.878-2.712,1.669-5.652,2.6-8.044c0.337-0.865,0.692-1.658,1.01-2.499
		c2.102-5.556,3.041-15.532,3.68-21.612c0.097-0.925,0.192-1.823,0.119-2.778c-0.075-0.975-0.325-2.01-0.254-2.798
		c0.03-0.329,0.115-0.615,0.188-0.934c0.287-1.257,0.371-6.928,0.452-10.397c0.015-0.625-0.053-0.696-0.679-0.702L1131.784,537.764
		L1131.784,537.764z M1203.178,537.764h-49.857c-0.415,14.409-0.518,18.388-3.876,33.437c-1.379,6.179-5.582,22.703-9.148,29.524
		c-1.516,2.899-3.614,5.79-4.649,8.381c-1.094,2.738-0.809,2.972-4.253,7.168c-1.639,1.997-3.407,3.795-4.707,5.709
		c-0.547,0.805-1.01,1.63-1.552,2.443c-5.832,8.75-28.344,23.795-34.914,27.378c-9.209,5.023-17.201,7.739-27.081,9.624
		c-3.342,0.638-9.805,1.419-11.329,1.37c-0.609-0.02-1.192-0.067-1.805-0.077c-2.157-0.035-4.684,0.398-7.123,0.623
		c-6.014,0.554-20.97-0.773-27.487-2.568c-2.499-0.688-5.028-1.693-7.333-2.053c-0.628-0.098-1.24-0.149-1.842-0.311
		c-0.84-0.226-1.663-0.669-2.507-1.035c-1.819-0.79-3.924-1.264-5.838-1.757c-1.066-0.275-21.162-10.336-22.398-11.214
		c-2.539-1.804-6.492-4.19-6.522-3.938c-0.122,1.037,4.55,5.798,6.106,7.414c12.905,13.402,18.863,19.615,34.479,28.797
		c16.591,9.755,29.727,14.034,49.432,17.189c0.618,0.099,0.687,0.102,0.69,0.033l0.003-0.077c0.003-0.069,0.073-0.079,0.7-0.099
		c0.697-0.022,1.375,0.046,2.081,0.141c2.215,0.298,5.175,0.826,6.462,0.74c0.489-0.033,0.922-0.117,1.399-0.172
		c2.001-0.229,4.779,0.072,7.371,0.084c7.603,0.035,21.503-2.815,28.081-4.828c26.372-8.067,43.843-19.865,61.215-41.474
		c10.613-13.201,18.712-27.98,24.94-45.281C1199.393,582.167,1202.165,560.054,1203.178,537.764L1203.178,537.764z
		 M1266.724,537.764h-49.893c-0.002,0.021-0.004,0.043-0.005,0.065c-1.051,13.408-2.42,27.595-5.291,40.204
		c-5.041,22.14-11.583,39.543-22.333,58.527c-1.821,3.216-3.636,6.312-5.62,9.383c-1.713,2.653-9.962,13.575-12.046,15.95
		c-16.202,18.463-37.606,33.7-61.434,40.157c-6.709,1.818-14.796,3.424-21.116,4.082c-2.388,0.249-16.213,0.347-18.581,0.132
		c-33.655-3.052-59.78-17.431-85.191-39.243c-3.381-2.902-9.681-8.906-11.414-10.878c-2.227-2.534-5.25-6.047-6.376-6.928
		c-0.192-0.15-0.382-0.287-0.453-0.251c-0.077,0.039-0.016,0.281,0.055,0.528c0.225,0.78,8.809,14.176,10.579,16.508
		c15.45,20.36,29.907,35.996,53.126,49.07c19.813,11.157,43.019,18.134,65.731,18.515c16.506,0.277,28.568-0.387,42.18-4.804
		c14.679-4.764,27.704-9.905,41.193-18.338c15.46-9.664,33.099-25.387,43.206-38.229c11.09-14.092,20.289-30.28,27.302-47.299
		C1262.196,596.151,1265.729,569.323,1266.724,537.764L1266.724,537.764z M1244.49,515.129l0.004-0.103
		c0.002-0.046,0.007-0.051,0.054-0.049l0.103,0.004c0.069,0.003,0.069-0.066-0.005-0.688c-0.103-0.873-0.094-1.757-0.101-2.63
		c-0.047-5.965,0.006-8.824,2.179-13.521c1.22-2.638,3.25-5.385,4.513-7.923c4.115-8.268,2.211-21.166-2.687-29.335
		c-2.276-3.796-4.742-6.574-7.6-9.369c-1.049-1.027-5.03-4.811-5.619-4.183c-0.41,0.438,0.902,2.247,1.366,3.305
		c1.27,2.898,0.914,8.261-0.032,11.594c-1.109,3.909-5.023,9.858-6.844,13.621c-3.929,8.119-3.616,14.032,0.438,22.281
		c2.632,5.356,3.448,5.926,7.757,11.115c1.406,1.693,5.668,5.845,6.1,5.943c0.083,0.019,0.164,0.031,0.246,0.025
		C1244.475,515.207,1244.488,515.199,1244.49,515.129L1244.49,515.129z M1180.953,515.038c0.74-9.437-0.898-10.984,2.594-17.464
		c4.26-7.905,6.282-9.628,6.249-18.985c-0.021-5.934-1.567-11.219-4.255-16.576c-1.995-3.976-3.204-5.665-7.464-9.828
		c-1.962-1.917-4.519-4.168-5.486-4.69c-0.139-0.075-0.263-0.131-0.339-0.081c-0.559,0.36,0.971,3.631,1.105,3.99
		c3.395,9.084-4.666,19.544-8.636,28.386c-0.386,0.86-0.681,1.818-0.703,2.892c-0.03,1.413,0.077,3.611-0.162,3.796
		c-0.044,0.034-0.096,0.05-0.137,0.093c-0.153,0.158-0.167,0.689-0.15,1.194c0.158,4.675,4.071,12.371,6.256,15.384
		c1.519,2.094,7.266,8.443,9.57,10.977c0.256,0.281,0.484,0.537,1.038,0.814C1180.66,515.053,1180.943,515.17,1180.953,515.038
		L1180.953,515.038z M1110.236,447.542c-0.071-0.059-0.257-0.072-0.37-0.016c-0.554,0.274,0.647,2.584,0.903,3.285
		c1.539,4.225,1.023,8.952-0.294,12.278c-1.428,3.607-4.777,8.643-6.699,12.932c-4.684,10.451-2.656,18.22,4.327,27.96
		c1.237,1.725,2.54,3.339,3.998,5.095c1.844,2.219,6.156,6.634,6.443,6.596c0.233-0.031,0.218-0.795,0.094-2.189
		c-0.462-5.191-0.201-10.206,1.664-14.492c1.258-2.892,3.491-5.857,4.89-8.603c5.179-10.167,1.622-25.212-5.845-34.108
		C1116.859,453.318,1113.67,450.392,1110.236,447.542L1110.236,447.542z M1075.188,537.721H846.128v9.119h229.059V537.721
		L1075.188,537.721z M904.079,602.075c6.161,0,31.703,0,31.703,0s-0.021-38.016-0.022-38.686
		c-3.108-8.751-12.722-13.326-21.473-10.218c-4.949,1.758-8.461,5.27-10.219,10.22c-0.009,0.226-0.017,0.522-0.023,0.881
		c0,0,0,0,0,0.002L904.079,602.075L904.079,602.075z M946.296,602.075c6.161,0,31.702,0,31.702,0s-0.021-38.016-0.022-38.686
		c-3.108-8.751-12.722-13.326-21.473-10.218c-4.949,1.758-8.462,5.27-10.219,10.22c-0.009,0.226-0.017,0.522-0.023,0.881
		c0,0,0,0,0,0.002L946.296,602.075L946.296,602.075z M988.091,602.075c6.162,0,31.703,0,31.703,0s-0.021-38.016-0.022-38.686
		c-3.108-8.751-12.722-13.326-21.473-10.218c-4.949,1.758-8.461,5.27-10.219,10.22c-0.009,0.226-0.017,0.522-0.023,0.881
		c0,0,0,0,0,0.002L988.091,602.075L988.091,602.075z M1028.757,602.075c6.161,0,31.702,0,31.702,0s-0.021-38.016-0.022-38.686
		c-3.108-8.751-12.722-13.326-21.473-10.218c-4.949,1.758-8.462,5.27-10.219,10.22c-0.009,0.226-0.017,0.522-0.023,0.881
		c0,0,0,0,0,0.002L1028.757,602.075L1028.757,602.075z M881.091,501.796c-3.013,2.951-6.081,4.929-10.013,6.455
		c-6.786,3.552-12.083,8.785-14.276,15.176c-0.673,1.96-1.262,5.358-1.791,8.06c-0.008,0.043-0.016,0.084-0.023,0.122h56.977
		c-0.007-0.078-0.021-0.17-0.041-0.281c-1.474-8.239-3.042-11.972-9.184-17.582c-3.459-3.159-4.624-3.761-7.354-5.483
		c-3.695-1.533-6.542-3.531-9.24-6.484c-0.401-0.376-0.773-0.744-1.107-1.099c-0.207-0.219-0.321-0.355-0.364-0.479
		c0.462-1.22,0.491-2.399,0.09-3.64c0.006-0.018,0.012-0.036,0.021-0.055c0.012-0.026,0.026-0.052,0.043-0.078
		c2.639-1.009,4.022-3.872,3.171-6.566c-0.023-0.025-0.046-0.049-0.071-0.072c-0.083-0.079-0.154-0.115-0.214-0.116
		c-0.122,2.18-1.771,3.904-3.943,4.124c-2.414,0.245-4.569-1.514-4.814-3.928c-0.022,0.013-0.044,0.029-0.067,0.049
		c-0.75,2.877,0.803,5.809,3.604,6.805c0.004,0.007,0.007,0.015,0.011,0.022c0.017,0.038,0.029,0.079,0.038,0.122
		c-0.221,1.15-0.179,2.171,0.136,3.3C882.51,500.552,881.901,501.139,881.091,501.796L881.091,501.796L881.091,501.796z
		 M960.165,501.796c-3.013,2.951-6.081,4.929-10.013,6.455c-6.786,3.552-12.083,8.785-14.276,15.176
		c-0.673,1.96-1.262,5.358-1.791,8.06c-0.009,0.043-0.016,0.084-0.023,0.122h56.977c-0.007-0.078-0.021-0.17-0.041-0.281
		c-1.474-8.239-3.042-11.972-9.184-17.582c-3.459-3.159-4.624-3.761-7.354-5.483c-3.695-1.533-6.542-3.531-9.24-6.484
		c-0.4-0.376-0.773-0.744-1.107-1.099c-0.207-0.219-0.321-0.355-0.364-0.479c0.462-1.22,0.491-2.399,0.09-3.64
		c0.006-0.018,0.012-0.036,0.021-0.055c0.012-0.026,0.026-0.052,0.043-0.078c2.639-1.009,4.022-3.872,3.171-6.566
		c-0.023-0.025-0.046-0.049-0.071-0.072c-0.083-0.079-0.154-0.115-0.214-0.116c-0.122,2.18-1.771,3.904-3.943,4.124
		c-2.414,0.245-4.569-1.514-4.814-3.928c-0.022,0.013-0.044,0.029-0.067,0.049c-0.75,2.877,0.803,5.809,3.603,6.805
		c0.004,0.007,0.007,0.015,0.011,0.022c0.017,0.038,0.029,0.079,0.038,0.122c-0.221,1.15-0.179,2.171,0.136,3.3
		C961.584,500.552,960.974,501.139,960.165,501.796L960.165,501.796L960.165,501.796z M1037.719,501.796
		c-3.013,2.951-6.081,4.929-10.013,6.455c-6.786,3.552-12.083,8.785-14.276,15.176c-0.673,1.96-1.262,5.358-1.791,8.06
		c-0.008,0.043-0.016,0.084-0.023,0.122h56.977c-0.007-0.078-0.021-0.17-0.041-0.281c-1.474-8.239-3.042-11.972-9.184-17.582
		c-3.459-3.159-4.625-3.761-7.354-5.483c-3.695-1.533-6.542-3.531-9.24-6.484c-0.4-0.376-0.773-0.744-1.107-1.099
		c-0.207-0.219-0.321-0.355-0.364-0.479c0.462-1.22,0.491-2.399,0.089-3.64c0.006-0.018,0.013-0.036,0.021-0.055
		c0.012-0.026,0.026-0.052,0.043-0.078c2.639-1.009,4.022-3.872,3.171-6.566c-0.023-0.025-0.046-0.049-0.071-0.072
		c-0.083-0.079-0.154-0.115-0.214-0.116c-0.122,2.18-1.771,3.904-3.943,4.124c-2.414,0.245-4.569-1.514-4.814-3.928
		c-0.021,0.013-0.044,0.029-0.067,0.049c-0.75,2.877,0.803,5.809,3.604,6.805c0.004,0.007,0.007,0.015,0.011,0.022
		c0.017,0.038,0.029,0.079,0.037,0.122c-0.221,1.15-0.179,2.171,0.136,3.3C1039.138,500.552,1038.529,501.139,1037.719,501.796
		L1037.719,501.796L1037.719,501.796z M1021.713,461.902H898.316v15.706h123.396V461.902L1021.713,461.902z M908.416,454.457
		h103.116c-1.386-8.095-3.532-14.111-7.311-19.387c-5.771-7.007-11.699-12.086-19.508-16.714
		c-8.474-5.522-14.442-8.499-20.644-14.211c-1.227-0.873-2.103-1.846-2.842-3.158c0-2.263,0-7.959,0-7.959h-1.003
		c0,0,0,5.697,0,7.959c-0.82,1.504-1.816,2.617-3.22,3.6c-6.979,4.988-17.475,10.583-24.721,14.305
		c-6.299,3.531-11.067,7.54-15.628,13.138c-4.725,6.832-6.811,13.104-8.22,22.293C908.427,454.371,908.421,454.416,908.416,454.457
		L908.416,454.457z M672.026,537.496h-19.659l0.686,10.983h19.887L672.026,537.496L672.026,537.496z M653.655,560.594h20.657
		l-0.498-5.726h-20.533L653.655,560.594L653.655,560.594z M703.859,548.479l-1.35-10.983h-16.344l0.703,10.983H703.859
		L703.859,548.479z M705.39,560.594l-0.969-5.715l-17.32-0.011l0.383,5.726H705.39L705.39,560.594z M735.866,537.496h-19.444
		l0.678,10.983h19.67L735.866,537.496L735.866,537.496z M717.696,560.594h20.431l-0.492-5.726h-20.308L717.696,560.594
		L717.696,560.594z M769.726,548.479l-1.489-10.983H750.22l0.775,10.983H769.726L769.726,548.479z M771.414,560.594l-1.068-5.715
		l-19.094-0.011l0.422,5.726H771.414L771.414,560.594z M799.792,548.479l-1.419-10.983h-17.172l0.738,10.983H799.792
		L799.792,548.479z M801.4,560.594l-1.018-5.715l-18.197-0.011l0.402,5.726H801.4L801.4,560.594z M832.916,537.496H808.22
		l0.861,10.983h24.983L832.916,537.496L832.916,537.496z M809.837,560.594h25.95l-0.625-5.726h-25.794L809.837,560.594
		L809.837,560.594z M941.97,499.59c0-6.664-9.27-12.067-20.704-12.067c-11.435,0-20.704,5.403-20.704,12.067
		s9.27,12.067,20.704,12.067C932.701,511.657,941.97,506.255,941.97,499.59L941.97,499.59z M1018.186,499.59
		c0-6.664-9.27-12.067-20.704-12.067c-11.435,0-20.704,5.403-20.704,12.067s9.27,12.067,20.704,12.067
		C1008.917,511.657,1018.186,506.255,1018.186,499.59L1018.186,499.59z M872.75,352.258H862.6v9.599h2.106v5.164h2.632v3.094h2.308
		v1.622h3.288l0.056,5.956l-0.158,23.785l0.009,3.843H862.6v9.599h2.106v5.164h2.632v3.094h2.308v1.622h3.24l0.012,5.102
		l-0.048,49.686c-0.001,0.584,0.006,0.683,0.064,0.689l15.502-12.263c0.028-0.129,0.033-0.287,0.03-0.509
		c-0.144-12.108-0.178-27.532,0.147-40.119l-0.002-2.587h3.244v-1.622h2.308v-3.094h2.632v-5.164h2.106v-9.599h-10.304l-0.002-3.034
		l0.038-22.278l-0.039-8.272h3.261v-1.622h2.308v-3.094h2.632v-5.164h2.106v-9.599h-10.397l-0.023-4.84
		c0.011-7.557,0.023-17.169-0.077-21.836l-8.505-36.249l-7.162,36.237c-0.169,6.158-0.083,15.777-0.013,21.85L872.75,352.258
		L872.75,352.258z M1045.645,352.258h10.15v9.599h-2.106v5.164h-2.632v3.094h-2.308v1.622h-3.288l-0.056,5.956l0.158,23.785
		l-0.009,3.843h10.241v9.599h-2.106v5.164h-2.632v3.094h-2.308v1.622h-3.24l-0.012,5.102l0.048,49.686
		c0,0.285-0.001,0.454-0.01,0.554l-15.553-12.113c-0.031-0.132-0.036-0.293-0.034-0.523c0.144-12.108,0.178-27.532-0.147-40.119
		l0.002-2.587h-3.244v-1.622h-2.308v-3.094h-2.632v-5.164h-2.106v-9.599h10.304l0.002-3.034l-0.038-22.278l0.039-8.272h-3.261
		v-1.622h-2.308v-3.094h-2.632v-5.164h-2.106v-9.599h10.397l0.023-4.84c-0.011-7.557-0.022-17.169,0.077-21.836l8.505-36.249
		l7.162,36.237c0.169,6.158,0.083,15.777,0.013,21.85L1045.645,352.258L1045.645,352.258z"/>
	<path style="fill-rule:evenodd;clip-rule:evenodd;fill:#0000FF;" d="M616.75,775.161c10.427,11.312,19.748,20.39,31.331,30.515
		c9.652,8.476,18.053,15.347,28.275,23.127c22.724,17.222,43.374,29.873,69.039,42.293c14.085,6.795,26.246,11.98,40.901,17.438
		c76.029,28.299,146.237,37.115,226.902,28.49c42.261-4.505,77.527-12.792,117.371-27.582
		c43.883-16.296,79.004-35.517,116.385-63.693c31.557-23.781,58.371-50.328,81.153-82.15c8.965-12.541,15.987-23.525,23.605-36.927
		c12.463-21.835,21.172-41.331,29.12-65.183c17.575-52.975,21.025-101.791,11.074-156.711
		c-5.525-30.117-13.368-55.007-26.107-82.851c-16.404-35.873-36.682-67.612-63.138-96.355
		c-26.695-29.003-58.805-54.924-92.677-75.663c-25.352-15.474-47.982-26.575-75.735-37.154
		c-58.627-22.253-111.791-31.927-174.499-31.754c-24.398,0.039-45.004,1.448-69.18,4.73c-79.76,10.873-154.237,41.068-218.11,89.251
		c-31.596,23.835-58.352,50.301-81.155,82.151c-8.965,12.541-15.987,23.525-23.605,36.927
		c-12.463,21.835-21.172,41.331-29.12,65.183c-17.575,52.975-21.025,101.791-11.074,156.711
		c5.525,30.117,13.368,55.007,26.107,82.851C570.093,714.846,590.243,746.34,616.75,775.161L616.75,775.161z M1385.399,562.774
		c1.88-26.829,0.625-49.719-4.177-76.182c-15.562-82.641-53.4-148.453-116.991-203.479c-41.615-36.221-82.307-60.658-133.836-80.37
		c-99.098-37.751-210.298-40.927-311.712-10.349c-53.003,16.09-95.481,37.707-139.685,71.088
		c-42.773,32.129-75.518,69.045-101.806,115.677l-0.128,0.224c-25.821,44.373-39.115,87.051-43.063,138.238
		c-4.098,55.692,7.324,107.106,29.539,156.624c22.13,49.653,50.366,87.574,91.593,123.006l0.223,0.196
		c40.665,36.074,83.745,61.868,134.723,80.738c74.373,27.683,143.051,36.306,221.959,27.87
		c86.778-9.081,158.438-37.059,228.413-89.178c43.78-32.554,75.036-68.075,101.757-115.64
		C1366.981,657.45,1381.52,613.072,1385.399,562.774L1385.399,562.774z"/>
	<path style="fill-rule:evenodd;clip-rule:evenodd;fill:#0000FF;" d="M1300.5,556.001c5.243-90.937-36.436-147.497-46.168-160.68
		c-13.532-18.287-26.881-32.342-44.446-46.798l-0.208-0.177c-33.867-29.742-67.053-49.82-109.116-66.016
		c-60.865-23.018-117.189-30.271-181.9-23.423c-68.628,7.186-133.295,30.81-187.979,71.938
		c-30.927,23.316-53.504,47.886-74.128,80.67c-10.646,16.997-18.088,32.343-24.843,51.227c-7.397,20.669-11.3,38.997-12.964,60.886
		c-0.801,18.697,0.041,34.565,2.815,53.072c6.137,41.084,19.909,74.696,44.362,108.275c13.489,18.436,26.754,32.665,44.2,47.412
		l0.064,0.054c59.197,50.795,128.489,82.66,205.412,90.127c29.611,2.874,56.68,2.285,86.219-1.036
		c104.22-11.718,207.862-63.18,262.897-155.942C1285.461,630.398,1296.479,596.655,1300.5,556.001L1300.5,556.001z
		 M1292.018,555.372c1.329-22.201,0.074-41.121-4.178-62.951c-10.795-55.719-40.522-101.739-83.316-137.297l-0.437-0.368
		c-32.807-29.357-65.284-49.012-106.509-64.462l-0.077-0.029c-28.268-10.9-53.198-17.441-83.176-21.822
		c-31.955-4.52-62.756-4.437-94.801-1.076c-68.208,7.154-129.885,30.031-183.74,70.281c-29.319,21.912-52.682,47.216-71.99,78.328
		l-0.059,0.095c-19.323,30.681-34.29,70.299-36.498,108.054c-1.019,17.432,0.305,34.172,2.75,51.419
		c5.451,39.698,18.782,72.235,42.752,104.345l0.08,0.109c12.937,17.92,25.784,31.7,42.754,45.861l0.159,0.135
		c82.19,70.479,178.333,99.71,285.071,87.096c24.691-2.866,45.351-7.027,69.226-13.942c49.358-14.388,96.044-38.967,134.37-73.412
		c21.909-19.702,37.925-39.189,53.012-64.499C1276.905,628.644,1288.671,593.243,1292.018,555.372L1292.018,555.372z"/>
	<path style="fill-rule:evenodd;clip-rule:evenodd;fill:#7F0000;" d="M624.627,334.238l32.191-31.792l16.987,8.405l-3.155,6.828
		c-2.896-1.237-5.537-1.929-7.922-2.078c-2.385-0.148-4.468,0.249-6.249,1.192c-1.781,0.943-3.583,2.315-5.407,4.117l-5.888,5.815
		l9.909,10.033l1.93-1.906c1.452-1.434,2.322-2.512,2.608-3.233c0.286-0.721,0.307-1.427,0.061-2.117
		c-0.246-0.691-1.065-1.74-2.455-3.148l-1.514-1.533l4.926-4.865l16.872,17.084l-4.926,4.865l-1.723-1.745
		c-1.168-1.182-2.153-1.914-2.956-2.193c-0.803-0.28-1.53-0.289-2.181-0.029c-0.651,0.26-1.767,1.171-3.348,2.732l-1.737,1.716
		l9.152,9.266c0.973,0.985,1.61,1.538,1.912,1.659c0.302,0.121,0.644,0.108,1.025-0.04c0.382-0.148,1.015-0.659,1.899-1.532
		l3.235-3.195c2.414-2.384,4.092-4.757,5.035-7.12c0.943-2.362,1.267-4.992,0.973-7.889c-0.294-2.897-1.188-5.802-2.683-8.715
		l6.858-3.17l9.752,19.994l-33.343,32.93l-5.524-5.593l0.966-0.954c1.287-1.271,2.056-2.221,2.308-2.85s0.231-1.274-0.061-1.938
		c-0.193-0.38-0.956-1.243-2.287-2.591l-21.685-21.958c-1.179-1.194-2.028-1.897-2.546-2.109c-0.518-0.212-1.032-0.245-1.544-0.102
		c-0.512,0.144-1.255,0.697-2.229,1.66l-1.711,1.689L624.627,334.238L624.627,334.238z"/>
	<path style="fill-rule:evenodd;clip-rule:evenodd;fill:#7F0000;" d="M740.578,242.477l23.724-11.621l3.458,7.059l-2.077,1.017
		c-1.154,0.565-1.851,0.982-2.091,1.251c-0.435,0.514-0.657,1.083-0.667,1.705c-0.01,0.623,0.253,1.481,0.789,2.575l14.234,29.059
		c0.572,1.167,0.975,1.858,1.211,2.074c0.236,0.216,0.555,0.323,0.958,0.322c0.403-0.002,1.07-0.23,2.001-0.686
		c3.118-1.527,5.416-3.181,6.896-4.96c1.48-1.78,2.52-3.985,3.122-6.615s0.657-5.829,0.167-9.598l7.549-0.845l2.81,21.982
		l-37.146,18.195l-3.458-7.059l2.319-1.136c0.946-0.464,1.596-0.948,1.95-1.452c0.353-0.505,0.53-1.036,0.529-1.593
		c-0.001-0.557-0.276-1.395-0.823-2.514l-14.111-28.808c-0.596-1.216-1.134-2.037-1.615-2.465c-0.481-0.427-0.983-0.664-1.506-0.709
		c-0.523-0.045-1.257,0.164-2.204,0.627l-2.561,1.255L740.578,242.477L740.578,242.477z"/>
	<path style="fill-rule:evenodd;clip-rule:evenodd;fill:#7F0000;" d="M892.686,191.72l12.11-1.605l21.872,41.258
		c1.183,2.186,2.152,3.502,2.907,3.947c0.755,0.445,2.04,0.531,3.853,0.259l1.033,7.793l-25.421,3.37l-1.033-7.793l1.533-0.244
		c1.41-0.187,2.371-0.512,2.883-0.975c0.513-0.463,0.732-0.975,0.657-1.537c-0.064-0.481-0.439-1.439-1.125-2.872l-2.297-4.875
		l-16.297,2.16l-1.252,5.92c-0.251,1.258-0.352,2.074-0.302,2.448c0.057,0.427,0.256,0.796,0.596,1.104
		c0.341,0.308,0.855,0.499,1.542,0.572c0.449,0.049,1.659-0.057,3.631-0.318l1.033,7.793l-20.77,2.753l-1.033-7.793
		c1.332-0.176,2.289-0.425,2.871-0.747c0.583-0.322,1.041-0.749,1.374-1.281c0.333-0.533,0.657-1.485,0.97-2.856L892.686,191.72
		L892.686,191.72z M895.138,222.2l10.651-1.412l-7.243-14.717L895.138,222.2L895.138,222.2z"/>
	<path style="fill-rule:evenodd;clip-rule:evenodd;fill:#7F0000;" d="M1064.303,199.405l-1.499,7.713l-35.769,33.772l3.319,0.645
		c4.577,0.889,8.084,1.109,10.521,0.659c2.436-0.45,4.834-1.617,7.193-3.501c2.359-1.884,4.392-4.369,6.1-7.455l6.5,3.832
		l-10.986,19.246l-40.635-7.895l1.503-7.736l35.831-33.639l-4.417-0.858c-2.995-0.582-5.479-0.679-7.451-0.29
		c-1.972,0.389-3.773,1.182-5.402,2.381s-4.154,3.892-7.576,8.078l-6.097-4.413l11.835-17.734L1064.303,199.405L1064.303,199.405z"
		/>
	<path style="fill-rule:evenodd;clip-rule:evenodd;fill:#7F0000;" d="M1153.865,232.138l23.395,12.271l-3.651,6.961l-2.129-1.117
		c-1.236-0.648-2.114-0.963-2.634-0.946s-1.006,0.221-1.458,0.611c-0.452,0.39-1.043,1.28-1.772,2.67l-14.561,27.761
		c-0.792,1.51-1.221,2.523-1.287,3.039c-0.066,0.516,0.045,0.971,0.334,1.367c0.33,0.54,0.975,1.062,1.937,1.566l2.54,1.333
		l-3.651,6.961l-23.395-12.27l3.651-6.961l1.9,0.996c1.358,0.712,2.298,1.076,2.82,1.089c0.521,0.014,0.996-0.15,1.425-0.491
		c0.429-0.341,0.989-1.171,1.68-2.489l14.617-27.869c0.817-1.558,1.257-2.635,1.319-3.229c0.062-0.594-0.068-1.144-0.39-1.649
		c-0.222-0.361-0.954-0.867-2.198-1.519l-2.142-1.123L1153.865,232.138L1153.865,232.138z"/>
	<path style="fill-rule:evenodd;clip-rule:evenodd;fill:#7F0000;" d="M1259.174,340.557l18.624,18.736l-5.609,5.575l-1.396-1.405
		c-0.912-0.918-1.624-1.461-2.135-1.628c-0.511-0.167-1.036-0.147-1.575,0.06c-0.539,0.208-1.338,0.838-2.397,1.89l-12.614,12.539
		l-5.608-5.642l1.444-4.335c-2.904-0.542-5.574-1.444-8.011-2.706c-2.437-1.262-4.649-2.892-6.637-4.892
		c-3.484-3.505-5.764-7.585-6.842-12.24c-1.078-4.656-0.848-9.416,0.69-14.283c1.538-4.866,4.294-9.274,8.268-13.225
		c3.936-3.912,8.285-6.584,13.046-8.016c4.761-1.432,9.521-1.549,14.28-0.352c4.759,1.197,8.871,3.539,12.336,7.025
		c1.678,1.688,3.127,3.594,4.347,5.72c1.22,2.125,2.05,4.154,2.491,6.087l2.8-0.759l3.83,3.853l-9.863,16.698l-6.766-3.349
		c1.202-4.626,1.833-7.964,1.895-10.014c0.061-2.05-0.254-4.018-0.946-5.904c-0.692-1.886-1.649-3.444-2.871-4.674
		c-1.734-1.744-3.882-2.849-6.443-3.314c-2.562-0.465-5.293-0.132-8.194,1c-2.901,1.132-5.792,3.129-8.672,5.992
		c-3.167,3.148-5.433,6.359-6.797,9.633c-1.364,3.273-1.832,6.249-1.403,8.927c0.429,2.678,1.575,4.954,3.438,6.828
		c1.315,1.323,2.84,2.3,4.575,2.931c1.735,0.631,3.167,0.823,4.297,0.576c1.13-0.247,2.281-0.953,3.453-2.117l1.47-1.462
		c1.018-1.012,1.598-1.716,1.739-2.111c0.184-0.584,0.194-1.131,0.03-1.642c-0.164-0.511-0.738-1.262-1.722-2.251l-2.159-2.172
		L1259.174,340.557L1259.174,340.557z"/>
	<path style="fill-rule:evenodd;clip-rule:evenodd;fill:#7F0000;" d="M1292.124,314.61l1.784,3.582
		c-2.311,0.825-4.861,0.867-7.651,0.125c-2.79-0.742-5.164-2.05-7.122-3.925c-3.932-3.766-5.321-8.549-4.17-14.347l3.628,1.603
		c0.167,1.575,0.652,3.129,1.454,4.663c0.802,1.534,1.85,2.921,3.143,4.16C1285.659,312.835,1288.637,314.215,1292.124,314.61
		L1292.124,314.61z"/>
	<path style="fill-rule:evenodd;clip-rule:evenodd;fill:#7F0000;" d="M618.005,421.939c0-7.267-5.891-13.158-13.159-13.158
		c-7.267,0-13.159,5.891-13.159,13.158c0,7.267,5.891,13.159,13.159,13.159C612.114,435.098,618.005,429.207,618.005,421.939
		L618.005,421.939z"/>
	<path style="fill-rule:evenodd;clip-rule:evenodd;fill:#7F0000;" d="M1327.516,421.939c0-7.267-5.891-13.158-13.158-13.158
		c-7.267,0-13.159,5.891-13.159,13.158c0,7.267,5.891,13.159,13.159,13.159C1321.624,435.098,1327.516,429.207,1327.516,421.939
		L1327.516,421.939z"/>
	<path style="fill-rule:evenodd;clip-rule:evenodd;fill:#7F0000;" d="M597.862,538.262l7.86-0.092l0.362,30.79
		c0.055,4.711-0.477,8.419-1.597,11.125c-1.12,2.705-2.748,4.796-4.885,6.271c-2.137,1.475-4.492,2.228-7.066,2.258
		c-1.869,0.022-3.648-0.34-5.337-1.086c-1.689-0.746-3.185-1.831-4.489-3.257c-1.304-1.425-2.389-3.314-3.257-5.666
		c-0.647,2.547-1.37,4.499-2.167,5.856c-1.115,1.957-2.688,3.518-4.721,4.682c-2.032,1.164-4.308,1.761-6.827,1.791
		c-3.007,0.035-5.788-0.799-8.341-2.503c-2.554-1.704-4.513-4.133-5.878-7.288c-1.365-3.154-2.083-7.785-2.155-13.892l-0.334-28.413
		l7.86-0.093l0.025,2.141c0.017,1.427,0.157,2.392,0.42,2.895c0.263,0.503,0.633,0.855,1.109,1.057
		c0.476,0.202,1.54,0.293,3.191,0.274l31.589-0.372c1.678-0.02,2.746-0.136,3.204-0.349s0.819-0.574,1.084-1.083
		c0.265-0.509,0.389-1.477,0.372-2.904L597.862,538.262L597.862,538.262z M582.994,558.252l0.07,5.953
		c0.037,3.113,0.335,5.412,0.894,6.896c0.559,1.485,1.392,2.597,2.498,3.336s2.376,1.1,3.812,1.084
		c1.49-0.018,2.759-0.389,3.807-1.115c1.048-0.726,1.788-1.766,2.219-3.12s0.626-3.769,0.585-7.245l-0.07-5.953L582.994,558.252
		L582.994,558.252z M574.657,558.35l-12.239,0.144c-1.729,0.047-2.742,0.123-3.038,0.23c-0.377,0.134-0.638,0.35-0.783,0.649
		c-0.145,0.299-0.21,1.109-0.194,2.429l0.047,3.96c0.027,2.303,0.273,4.209,0.736,5.718s1.404,2.785,2.821,3.83
		s3.112,1.555,5.085,1.532c1.675-0.02,3.089-0.412,4.242-1.176s2.018-1.9,2.594-3.408c0.577-1.508,0.847-3.802,0.811-6.882
		L574.657,558.35L574.657,558.35z"/>
	<path style="fill-rule:evenodd;clip-rule:evenodd;fill:#7F0000;" d="M626.998,644.164l23.746,38.511l-12.007,14.664l-5.944-4.609
		c1.856-2.544,3.124-4.962,3.805-7.253c0.68-2.291,0.761-4.41,0.243-6.357s-1.451-4.012-2.797-6.194l-4.343-7.044l-12.003,7.401
		l1.424,2.309c1.071,1.737,1.926,2.827,2.564,3.268s1.321,0.619,2.049,0.535c0.728-0.085,1.934-0.646,3.619-1.685l1.834-1.131
		l3.634,5.893l-20.438,12.602l-3.634-5.893l2.087-1.287c1.415-0.872,2.348-1.668,2.801-2.387c0.453-0.719,0.626-1.425,0.519-2.118
		c-0.107-0.693-0.744-1.985-1.91-3.876l-1.282-2.078l-11.086,6.835c-1.178,0.726-1.86,1.223-2.046,1.49
		c-0.186,0.267-0.25,0.603-0.191,1.008s0.414,1.137,1.066,2.195l2.386,3.87c1.781,2.888,3.716,5.057,5.806,6.507
		c2.09,1.45,4.58,2.357,7.468,2.721c2.889,0.364,5.92,0.146,9.095-0.656l1.548,7.395l-21.674,5.01l-24.596-39.89l6.691-4.126
		l0.712,1.155c0.949,1.54,1.702,2.503,2.258,2.889c0.556,0.386,1.19,0.511,1.902,0.376c0.413-0.103,1.426-0.652,3.039-1.646
		l26.269-16.197c1.429-0.881,2.304-1.55,2.627-2.007c0.323-0.457,0.471-0.951,0.446-1.482c-0.025-0.531-0.397-1.379-1.116-2.545
		l-1.262-2.046L626.998,644.164L626.998,644.164z"/>
	<path style="fill-rule:evenodd;clip-rule:evenodd;fill:#7F0000;" d="M698.145,737.729l19.962,17.303l-5.149,5.94l-1.747-1.514
		c-0.971-0.842-1.627-1.32-1.968-1.437c-0.643-0.2-1.253-0.182-1.83,0.052s-1.264,0.812-2.062,1.732l-21.193,24.451
		c-0.851,0.982-1.33,1.623-1.437,1.925s-0.081,0.637,0.078,1.008s0.63,0.895,1.413,1.574c2.623,2.274,5.043,3.744,7.259,4.412
		c2.216,0.667,4.652,0.764,7.308,0.291c2.656-0.474,5.623-1.672,8.901-3.594l3.726,6.619l-19.139,11.171l-31.255-27.091l5.149-5.94
		l1.951,1.691c0.796,0.69,1.496,1.099,2.098,1.228c0.603,0.128,1.16,0.083,1.673-0.135c0.512-0.218,1.177-0.798,1.992-1.74
		l21.01-24.24c0.887-1.023,1.433-1.839,1.638-2.449c0.206-0.61,0.227-1.164,0.065-1.663c-0.162-0.499-0.642-1.094-1.438-1.784
		l-2.155-1.868L698.145,737.729L698.145,737.729z"/>
	<path style="fill-rule:evenodd;clip-rule:evenodd;fill:#7F0000;" d="M788.457,800.256l41.493,18.036l-1.475,18.895l-7.512-0.385
		c0.069-3.148-0.271-5.857-1.022-8.126c-0.751-2.269-1.895-4.054-3.434-5.356s-3.483-2.463-5.835-3.485l-7.589-3.299l-5.622,12.933
		l2.488,1.081c1.872,0.814,3.196,1.219,3.972,1.217c0.776-0.003,1.438-0.247,1.987-0.732c0.549-0.486,1.218-1.636,2.007-3.451
		l0.859-1.976l6.349,2.76l-9.572,22.021l-6.349-2.76l0.977-2.249c0.663-1.524,0.974-2.711,0.935-3.56
		c-0.039-0.849-0.301-1.527-0.785-2.035c-0.484-0.507-1.745-1.204-3.782-2.09l-2.239-0.973l-5.192,11.944
		c-0.552,1.269-0.828,2.067-0.828,2.392s0.139,0.638,0.419,0.937c0.28,0.299,0.989,0.696,2.129,1.192l4.169,1.812
		c3.112,1.353,5.939,2.026,8.483,2.022c2.544-0.005,5.105-0.683,7.684-2.034s4.942-3.263,7.089-5.735l5.496,5.184l-14.924,16.496
		l-42.978-18.682l3.134-7.209l1.245,0.541c1.659,0.721,2.827,1.081,3.504,1.08c0.677-0.001,1.269-0.26,1.776-0.778
		c0.28-0.321,0.798-1.35,1.553-3.088l12.303-28.303c0.669-1.539,1.005-2.589,1.009-3.148s-0.157-1.05-0.481-1.471
		c-0.324-0.421-1.114-0.905-2.37-1.451l-2.205-0.958L788.457,800.256L788.457,800.256z"/>
	<path style="fill-rule:evenodd;clip-rule:evenodd;fill:#7F0000;" d="M899.079,835.2l28.306,2.582
		c6.428,0.586,11.443,2.119,15.043,4.596c3.6,2.478,6.339,5.911,8.216,10.299s2.549,9.51,2.015,15.365
		c-0.372,4.074-1.278,7.664-2.72,10.77c-1.442,3.106-3.416,5.844-5.923,8.213c-2.507,2.37-5.123,4.083-7.848,5.14
		c-2.05,0.793-4.905,1.335-8.563,1.627c-3.658,0.292-6.571,0.339-8.739,0.141l-24.938-2.275l0.714-7.828l1.865,0.17
		c1.579,0.144,2.627,0.104,3.144-0.121c0.517-0.225,0.96-0.646,1.33-1.265c0.254-0.494,0.459-1.603,0.617-3.328l2.811-30.813
		c0.157-1.725,0.149-2.847-0.026-3.366c-0.175-0.519-0.503-0.93-0.984-1.232s-1.538-0.528-3.169-0.676l-1.865-0.17L899.079,835.2
		L899.079,835.2z M918.029,846.066l-3.202,35.097c-0.108,1.187-0.11,1.921-0.006,2.203c0.17,0.424,0.448,0.728,0.834,0.913
		c0.386,0.185,1.341,0.347,2.863,0.486c4.232,0.386,7.604,0.007,10.115-1.138s4.64-3.155,6.385-6.03s2.808-6.39,3.187-10.547
		c0.374-4.102,0.01-7.734-1.094-10.896c-1.104-3.162-2.618-5.457-4.543-6.884s-4.785-2.314-8.578-2.66L918.029,846.066
		L918.029,846.066z"/>
	<path style="fill-rule:evenodd;clip-rule:evenodd;fill:#7F0000;" d="M1020.116,837.064l25.923-5.089l1.514,7.714l-2.359,0.463
		c-1.369,0.269-2.251,0.573-2.645,0.912c-0.394,0.339-0.646,0.803-0.755,1.39c-0.109,0.587-0.012,1.651,0.291,3.192l6.038,30.761
		c0.328,1.673,0.628,2.732,0.9,3.175c0.271,0.443,0.644,0.729,1.116,0.857c0.595,0.214,1.425,0.217,2.491,0.008l2.815-0.553
		l1.514,7.714l-25.923,5.089l-1.514-7.714l2.105-0.413c1.505-0.295,2.465-0.601,2.88-0.917c0.415-0.316,0.683-0.741,0.803-1.275
		c0.12-0.534,0.037-1.532-0.249-2.993l-6.062-30.88c-0.339-1.727-0.67-2.841-0.994-3.343c-0.324-0.502-0.77-0.849-1.337-1.041
		c-0.399-0.142-1.287-0.078-2.665,0.192l-2.373,0.466L1020.116,837.064L1020.116,837.064z"/>
	<path style="fill-rule:evenodd;clip-rule:evenodd;fill:#7F0000;" d="M1030.321,819.743c1.499-0.294,2.916,0.035,4.25,0.987
		s2.156,2.212,2.464,3.781c0.292,1.488,0.018,2.88-0.823,4.176c-0.84,1.297-1.997,2.089-3.471,2.379
		c-1.499,0.294-2.898-0.011-4.197-0.915c-1.299-0.904-2.105-2.154-2.418-3.748c-0.318-1.621-0.074-3.063,0.734-4.325
		S1028.822,820.038,1030.321,819.743L1030.321,819.743z"/>
	<path style="fill-rule:evenodd;clip-rule:evenodd;fill:#7F0000;" d="M1105.664,814.616l23.998-12.194l3.561,7.008l-1.796,0.912
		c-1.266,0.643-2.009,1.149-2.227,1.517c-0.218,0.368-0.212,0.781,0.02,1.237c0.318,0.626,1.166,1.377,2.543,2.252l11.917,7.715
		l1.248-14.986c0.121-1.303,0.185-2.031,0.193-2.187c-0.043-0.313-0.132-0.602-0.267-0.867c-0.209-0.411-0.495-0.645-0.86-0.703
		c-0.365-0.058-1.034,0.161-2.008,0.655l-2.469,1.255l-3.561-7.008l19.288-9.801l3.561,7.008c-1.678,0.883-2.761,1.692-3.248,2.425
		c-0.487,0.733-0.831,2.077-1.033,4.032l-2.903,26.161l4.58,9.014c0.809,1.593,1.432,2.574,1.868,2.945
		c0.436,0.371,0.95,0.55,1.542,0.537s1.583-0.372,2.974-1.078l1.704-0.866l3.561,7.008l-23.592,11.988l-3.561-7.008l1.282-0.651
		c1.662-0.845,2.666-1.499,3.012-1.963c0.345-0.464,0.501-1.029,0.468-1.695c-0.034-0.666-0.467-1.82-1.301-3.461l-4.01-7.892
		l-23.224-13.933c-1.828-1.076-3.227-1.625-4.199-1.647c-0.69,0.017-1.856,0.442-3.499,1.277L1105.664,814.616L1105.664,814.616z"/>
	<path style="fill-rule:evenodd;clip-rule:evenodd;fill:#7F0000;" d="M1208.224,753.341l32.143-31.84l17,8.38l-3.145,6.833
		c-2.898-1.233-5.54-1.921-7.925-2.066s-4.468,0.256-6.247,1.201c-1.779,0.946-3.58,2.321-5.401,4.125l-5.879,5.824l9.924,10.018
		l1.927-1.909c1.45-1.436,2.318-2.515,2.603-3.237c0.285-0.721,0.305-1.427,0.057-2.117c-0.247-0.69-1.067-1.738-2.46-3.144
		l-1.517-1.531l4.919-4.872l16.898,17.059l-4.919,4.872l-1.726-1.742c-1.17-1.181-2.156-1.91-2.959-2.189
		c-0.803-0.278-1.53-0.287-2.181-0.026s-1.765,1.173-3.344,2.737l-1.735,1.718l9.166,9.253c0.974,0.983,1.612,1.535,1.914,1.656
		c0.302,0.121,0.644,0.107,1.025-0.042c0.381-0.149,1.014-0.66,1.897-1.535l3.23-3.199c2.41-2.388,4.085-4.764,5.025-7.127
		c0.939-2.364,1.26-4.994,0.961-7.89s-1.197-5.8-2.696-8.711l6.853-3.18l9.782,19.979l-33.294,32.98l-5.532-5.585l0.964-0.955
		c1.285-1.273,2.053-2.224,2.303-2.853c0.25-0.629,0.229-1.275-0.064-1.938c-0.194-0.379-0.958-1.242-2.291-2.588l-21.719-21.925
		c-1.181-1.192-2.031-1.894-2.549-2.105c-0.518-0.211-1.033-0.244-1.544-0.099c-0.511,0.145-1.254,0.699-2.227,1.663l-1.708,1.692
		L1208.224,753.341L1208.224,753.341z"/>
	<path style="fill-rule:evenodd;clip-rule:evenodd;fill:#7F0000;" d="M1298.508,628.988l19.258,3.429l-0.977,7.536
		c-5.114,0.365-9.247,1.516-12.401,3.453c-3.154,1.937-5.424,4.475-6.812,7.615c-0.897,2.031-1.17,3.822-0.819,5.374
		c0.351,1.552,1.06,2.564,2.127,3.035c1.215,0.537,2.578,0.504,4.088-0.099c1.501-0.579,3.276-2.082,5.326-4.508l7.108-8.242
		c3.92-4.582,7.691-7.417,11.313-8.507c3.636-1.055,7.214-0.805,10.734,0.75c4.487,1.982,7.526,5.363,9.117,10.143
		c1.736,5.325,1.353,10.819-1.148,16.48c-1.162,2.63-2.579,4.891-4.252,6.785s-3.868,3.671-6.585,5.329l3.026,3.206l-2.339,5.294
		l-21.662-5.387l1.272-7.405c4.776,0.244,9.261-0.681,13.455-2.773c4.194-2.092,7.165-5.114,8.91-9.065
		c0.784-1.775,1.2-3.351,1.248-4.73c0.048-1.379-0.218-2.55-0.797-3.512c-0.579-0.963-1.313-1.641-2.202-2.033
		c-1.483-0.655-3.06-0.53-4.73,0.376c-1.681,0.93-3.81,2.908-6.388,5.936l-6.189,7.176c-0.926,1.09-2.376,2.479-4.351,4.166
		s-3.773,2.859-5.396,3.514c-1.623,0.655-3.475,0.975-5.556,0.961c-2.082-0.015-4.089-0.449-6.022-1.303
		c-2.751-1.215-4.963-3.064-6.636-5.545c-1.673-2.481-2.582-5.503-2.726-9.065c-0.144-3.562,0.569-7.12,2.139-10.675
		c1.895-4.289,4.765-7.653,8.609-10.09l-1.989-2.536L1298.508,628.988L1298.508,628.988z"/>
	<path style="fill-rule:evenodd;clip-rule:evenodd;fill:#7F0000;" d="M1319.372,564.773l-0.063-26.418l7.861-0.019l0.006,2.404
		c0.003,1.395,0.134,2.319,0.392,2.771c0.258,0.452,0.665,0.787,1.221,1.005c0.556,0.218,1.619,0.326,3.189,0.322l31.348-0.075
		c1.705-0.004,2.801-0.097,3.288-0.279c0.487-0.182,0.838-0.493,1.053-0.933c0.324-0.544,0.484-1.358,0.482-2.444l-0.007-2.869
		l7.861-0.019l0.063,26.418l-7.861,0.019l-0.005-2.145c-0.004-1.534-0.121-2.535-0.352-3.002c-0.231-0.467-0.597-0.811-1.099-1.031
		c-0.501-0.22-1.497-0.328-2.985-0.325l-31.469,0.075c-1.76,0.004-2.917,0.117-3.471,0.34c-0.555,0.222-0.98,0.594-1.277,1.115
		c-0.216,0.364-0.322,1.249-0.318,2.652l0.006,2.418L1319.372,564.773L1319.372,564.773z"/>
	<path style="fill-rule:evenodd;clip-rule:evenodd;fill:#7F0000;" d="M1304.328,551.281c-0.004-1.528,0.589-2.856,1.778-3.985
		c1.189-1.129,2.582-1.695,4.18-1.699c1.516-0.004,2.831,0.53,3.944,1.602s1.671,2.359,1.675,3.86
		c0.004,1.528-0.562,2.843-1.697,3.946c-1.135,1.103-2.515,1.656-4.139,1.66c-1.652,0.004-3.021-0.511-4.106-1.544
		C1304.876,554.089,1304.331,552.809,1304.328,551.281L1304.328,551.281z"/>
</g>
</svg>
