<?xml version="1.0" encoding="iso-8859-1"?>
<!-- Generator: Adobe Illustrator 29.7.1, SVG Export Plug-In . SVG Version: 9.03 Build 0)  -->
<svg version="1.1" id="Layer_1" xmlns:xodm="http://www.corel.com/coreldraw/odm/2003"
	 xmlns="http://www.w3.org/2000/svg" xmlns:xlink="http://www.w3.org/1999/xlink" x="0px" y="0px" viewBox="0 0 663 663"
	 style="enable-background:new 0 0 663 663;" xml:space="preserve">
<g id="Layer_x0020_1">
	<g id="_2550500825376">
		<g>
			<path style="fill-rule:evenodd;clip-rule:evenodd;fill:#0D2F5D;" d="M331.5,0C514.596,0,663,148.404,663,331.5
				S514.596,663,331.5,663S0,514.596,0,331.5S148.404,0,331.5,0z M331.5,64.373c147.633,0,267.127,119.494,267.127,267.127
				S479.133,598.627,331.5,598.627S64.373,479.133,64.373,331.5S183.867,64.373,331.5,64.373L331.5,64.373z"/>
			<path style="fill-rule:evenodd;clip-rule:evenodd;fill:#FEFEFE;" d="M56.471,486.65l29.295-19.081l14.069,21.779l-5.011,3.276
				L84.802,476.82l-6.553,4.24l9.444,14.648l-5.011,3.276l-9.444-14.84l-8.095,5.204l10.6,16.382l-5.011,3.276
				C70.733,509.007,56.471,486.65,56.471,486.65z M78.249,519.414l27.561-21.586l9.251,11.757c2.313,2.891,3.662,5.204,4.24,6.938
				c0.578,1.735,0.578,3.469-0.193,5.204c-0.578,1.927-1.735,3.469-3.276,4.626c-2.12,1.735-4.24,2.505-6.553,2.313
				c-2.313-0.193-4.626-1.349-6.938-3.469c0.385,1.735,0.385,3.276,0,4.818c-0.193,1.349-0.771,3.662-1.927,6.553l-2.698,7.709
				l-5.204-6.746l2.891-8.673c0.964-3.084,1.542-5.204,1.735-6.167s0-1.735-0.193-2.505c-0.193-0.771-0.964-1.735-1.927-3.084
				l-0.964-1.156l-11.371,9.058L78.249,519.414L78.249,519.414z M98.486,512.476l3.276,4.24c2.12,2.698,3.469,4.24,4.24,4.626
				c0.771,0.578,1.542,0.771,2.313,0.771c0.964-0.193,1.735-0.385,2.506-1.156c0.964-0.771,1.542-1.542,1.735-2.505
				c0.193-0.964,0-1.927-0.578-2.891c-0.193-0.578-1.349-1.927-3.084-4.24l-3.276-4.24L98.486,512.476L98.486,512.476z
				 M103.305,549.48l4.433-4.626l28.91-3.662l-11.757-11.371l4.047-4.24l18.695,17.731l-3.855,3.855l-30.259,3.855l14.455,13.877
				l-4.047,4.24L103.305,549.48z M132.6,576.078l21.586-27.561l5.589,4.433l-21.586,27.561
				C138.189,580.51,132.6,576.078,132.6,576.078z M156.306,546.204l4.047-5.011l5.204,4.24l-4.047,5.011L156.306,546.204z
				 M148.79,588.991l18.888-29.488l5.782,3.662l-0.385,27.561l12.528-19.851l5.589,3.469l-18.888,29.488l-5.975-3.662l0.385-27.175
				l-12.335,19.466L148.79,588.991L148.79,588.991z M210.464,608.649l5.396,4.818c-2.506,3.084-5.396,5.011-8.288,5.589
				c-3.084,0.771-6.167,0.193-9.637-1.349c-4.24-1.927-7.131-4.818-8.48-9.058c-1.349-4.047-0.964-8.673,1.349-13.684
				c2.313-5.397,5.589-8.866,9.637-10.408c4.047-1.735,8.288-1.542,12.913,0.385c3.855,1.735,6.553,4.433,7.902,7.902
				c0.771,1.927,0.964,4.433,0.578,7.324l-7.131-1.349c0.385-1.927,0.193-3.469-0.578-5.011c-0.771-1.542-1.927-2.698-3.662-3.469
				c-2.313-1.156-4.626-1.156-6.938,0c-2.313,0.964-4.24,3.276-5.975,7.131c-1.735,4.047-2.313,7.324-1.735,9.637
				c0.771,2.313,2.313,4.047,4.626,5.204c1.542,0.771,3.276,0.771,5.011,0.385C207.187,612.119,208.922,610.769,210.464,608.649
				L210.464,608.649z M253.443,638.137l-7.324-2.506l-0.193-8.48l-13.299-4.626l-5.396,6.553l-7.131-2.506l24.284-28.524
				l7.131,2.313L253.443,638.137L253.443,638.137z M245.734,620.792l-0.385-13.877l-8.866,10.793L245.734,620.792L245.734,620.792z
				 M264.044,639.679l5.975-34.499l6.746,1.349l10.215,25.441l4.047-23.128l6.36,1.156l-5.975,34.499l-6.938-1.156l-10.022-25.055
				l-4.047,22.55L264.044,639.679L264.044,639.679z M318.587,612.119l13.877-0.385c2.891,0,4.818,0,6.36,0.193
				c1.349,0.193,2.506,0.771,3.662,1.349c0.964,0.771,1.927,1.735,2.698,2.891c0.771,1.156,1.156,2.506,1.156,4.047
				c0,1.735-0.385,3.084-1.156,4.626c-0.964,1.349-2.12,2.313-3.662,3.084c2.313,0.578,3.855,1.542,5.011,3.084
				c1.156,1.542,1.927,3.276,1.927,5.204c0,1.542-0.385,3.084-0.964,4.626c-0.771,1.542-1.735,2.891-3.084,3.855
				c-1.156,0.771-2.698,1.349-4.626,1.735c-1.156,0-4.047,0.193-8.48,0.385l-11.949,0.193L318.587,612.119L318.587,612.119z
				 M325.718,617.708l0.193,8.095l4.626-0.193c2.698,0,4.433,0,5.204-0.193c1.156-0.193,2.12-0.578,2.698-1.349
				c0.771-0.578,1.156-1.542,0.964-2.698c0-1.156-0.193-1.927-0.964-2.506c-0.578-0.771-1.349-1.156-2.505-1.349
				c-0.771,0-2.891,0-6.167,0.193H325.718L325.718,617.708z M326.103,631.585l0.193,9.444l6.553-0.193
				c2.505,0,4.047-0.193,4.818-0.385c0.964-0.193,1.927-0.578,2.506-1.349c0.771-0.771,0.964-1.735,0.964-3.084
				c0-0.964-0.385-1.927-0.771-2.698c-0.578-0.578-1.349-1.156-2.313-1.542c-0.964-0.193-3.084-0.385-6.36-0.385L326.103,631.585
				L326.103,631.585z M361.566,645.461l-4.626-34.692l25.826-3.276l0.771,5.782l-18.695,2.506l0.964,7.709l17.346-2.313l0.771,5.975
				l-17.346,2.12l1.156,9.444l19.466-2.505l0.578,5.782L361.566,645.461L361.566,645.461z M400.691,639.679l-9.444-33.535
				l6.746-1.927l7.902,27.753l16.96-4.818l1.542,5.782L400.691,639.679L400.691,639.679z M435.961,629.272l-13.106-32.379
				l24.092-9.637l2.313,5.396l-17.539,7.131l2.891,7.131l16.19-6.553l2.313,5.589l-16.382,6.553l3.469,8.673l18.117-7.131
				l2.313,5.396L435.961,629.272L435.961,629.272z M455.042,583.787l11.178-6.553c2.506-1.349,4.433-2.313,5.975-2.698
				c2.12-0.385,4.24-0.385,6.167,0.193c2.12,0.578,4.047,1.735,5.782,3.276s3.469,3.855,5.011,6.746
				c1.542,2.506,2.505,4.818,2.891,6.938c0.385,2.698,0.385,5.011-0.193,7.131c-0.578,1.735-1.542,3.276-2.891,5.011
				c-1.156,1.156-2.891,2.313-5.011,3.662l-11.564,6.553L455.042,583.787L455.042,583.787z M464.1,585.329l11.371,20.044
				l4.626-2.505c1.735-0.964,2.891-1.735,3.469-2.506c0.964-0.771,1.542-1.542,1.735-2.505c0.385-0.964,0.385-2.313,0-3.855
				c-0.385-1.735-1.156-3.662-2.505-5.975c-1.349-2.313-2.698-4.047-3.662-5.011c-1.156-1.156-2.313-1.735-3.469-1.927
				c-1.156-0.385-2.313-0.385-3.662,0c-0.964,0.385-2.698,1.156-5.204,2.698L464.1,585.329z M508.236,592.653l-20.237-28.717
				l5.782-4.047l20.237,28.524L508.236,592.653z M486.457,561.237l-3.662-5.204l5.397-3.855l3.662,5.204L486.457,561.237z
				 M532.327,574.728l-9.637-11.178l-23.128-6.938l6.36-5.397l15.419,5.011l-3.084-15.804l6.167-5.204l3.662,23.706l9.637,11.178
				L532.327,574.728L532.327,574.728z M554.684,554.299l-25.441-24.092l17.924-18.888l4.24,4.047l-12.913,13.684l5.589,5.397
				l12.142-12.72l4.24,4.047l-12.142,12.72l6.938,6.553l13.491-14.069l4.24,4.047L554.684,554.299L554.684,554.299z
				 M570.681,519.607l3.276-5.975c2.12,0.964,4.047,1.349,5.589,0.964c1.735-0.385,3.084-1.542,4.433-3.276
				c1.156-1.735,1.927-3.469,1.735-5.011s-0.771-2.506-1.735-3.276c-0.771-0.578-1.349-0.771-2.12-0.771
				c-0.771,0.193-1.735,0.578-2.698,1.349c-0.771,0.385-2.313,1.735-4.626,3.662c-2.891,2.505-5.397,4.047-7.324,4.433
				c-2.891,0.578-5.396,0.193-7.709-1.542c-1.349-0.964-2.505-2.313-3.276-4.047c-0.578-1.735-0.771-3.662-0.193-5.589
				c0.385-2.12,1.349-4.24,2.891-6.36c2.505-3.662,5.204-5.782,8.095-6.36c2.891-0.771,5.589-0.193,8.287,1.735l-3.855,5.782
				c-1.542-0.771-3.084-0.964-4.24-0.578c-1.156,0.385-2.505,1.349-3.469,2.891c-1.349,1.735-1.927,3.276-1.735,4.626
				c0,0.964,0.385,1.735,0.964,2.12c0.771,0.578,1.542,0.578,2.505,0.385c0.964-0.193,2.891-1.542,5.589-3.855
				c2.698-2.313,4.818-3.855,6.553-4.818c1.542-0.771,3.276-1.156,5.011-0.964c1.735,0,3.662,0.771,5.396,2.12
				c1.542,1.156,2.891,2.698,3.662,4.626c0.771,1.927,0.964,3.855,0.385,5.975c-0.385,2.12-1.542,4.626-3.276,6.938
				c-2.698,3.662-5.397,5.782-8.48,6.553C577.234,522.112,573.958,521.534,570.681,519.607L570.681,519.607z M602.867,492.239
				L572.416,474.7l3.662-6.167l30.259,17.539L602.867,492.239z M569.91,472.773l-5.589-3.084l3.276-5.782l5.589,3.084
				L569.91,472.773z"/>
			<path style="fill-rule:evenodd;clip-rule:evenodd;fill:#0D2F5D;" d="M531.171,483.373c-7.324-6.746-13.877-15.419-16.382-20.43
				c-2.506-5.204-2.12-7.902-2.12-7.902s0.385-0.385,1.349,0.193c0.771,0.385,2.891,2.891,7.517,8.288
				c2.313,2.891,4.24,4.626,5.975,5.589c1.542,0.964,6.938,2.891,8.48,1.735c0.578-0.578,0.578-1.542,0.578-1.542
				s-0.964-0.193-3.084-1.542c-2.313-1.542-6.167-5.782-10.6-10.986c-4.24-5.011-5.782-8.866-9.829-17.153
				c-4.047-8.288-3.662-12.335-5.589-18.117s-3.469-26.019-3.662-29.488c0-3.276,0-19.851,0.193-23.899
				c0-4.047,0.771-17.153,1.349-22.935c0.385-5.589,3.084-24.092,4.433-34.499c1.542-10.408,0.771-16.96,0.771-23.128
				c-0.193-5.975-6.36-13.299-6.36-13.299l-0.578-0.964l2.891-1.542c0,0,8.673,0.771,9.058,0.578
				c0.578-0.193,1.927-0.578,3.084-5.204c1.156-4.818,1.156-14.069,0.385-19.273c-0.578-5.204-2.891-20.622-2.891-20.622
				l-4.433,1.735c0,0,2.313-4.433,3.469-7.709c1.349-3.469,1.927-8.673,1.735-12.913c-0.385-4.24-0.964-4.818-3.084-9.251
				c-2.12-4.433-10.793-8.095-12.72-8.673c-2.12-0.771-4.818-1.156-8.48-1.349c-3.662-0.193-4.818,0-8.288-0.771
				c-3.662-0.771-5.975-1.156-10.6-2.313c-4.433-1.349-10.986-2.891-20.815-3.084c-9.829-0.193-17.731,3.469-21.393,5.204
				c-3.662,1.735-5.589,3.855-6.167,4.433c-0.578,0.578-0.578,1.156-0.578,1.156s-0.193-1.349,0.385,4.047
				c0.578,5.589,4.626,17.731,10.215,31.415c5.589,13.684,22.55,34.885,22.55,34.885s0.193,0.578,0,0.578
				c-0.385,0.193-2.12-0.385-3.469-1.156c-1.156-0.771-3.084-2.506-3.084-2.506s-26.983-36.426-29.103-66.493
				c0,0-6.553-4.047-9.829-3.855c-1.927,0-4.24,3.084-5.975,5.589c-1.735,2.12-6.746,2.506-8.48,2.698
				c-3.855,0.193-7.131-1.156-8.866-4.047c-4.047-6.36-4.24-22.164-1.542-27.753c0.964-2.12,2.12-5.589,4.626-9.444
				c2.698-4.047,10.215-12.142,12.528-13.299c3.276-1.735,7.902-4.24,13.491-4.433c3.855-0.193,3.469-1.927,5.204-2.313
				c0,0,0.964,0.385,2.698,0.771c0.193,0.193,1.927-1.542,2.698-1.927c0.578-0.385,2.506-0.385,3.276-0.578
				c0.964-0.578,1.927-2.12,3.469-2.12c1.542,0,1.156,0.578,2.313-0.385c0.385-0.578,0.771-1.156,1.156-1.542
				c0.578-0.385,1.156-0.385,1.735-0.193c0.578,0,0.964,0,1.156,0c0.771-0.385,1.349-0.578,1.542-0.771c0,0,1.156-1.156,1.927-3.084
				c2.313-5.782,0.385-12.528-3.084-17.539c-0.964-1.542-2.12-3.276-5.975-6.746c-2.891-2.506-6.553-3.855-9.444-4.24
				c-2.506-0.385-6.36-1.156-8.673-0.193c0.193,0.193,4.626,4.047,5.204,4.433c5.397,6.36-9.444,15.804-12.335,3.084l-0.964-3.855
				l-0.771-3.469c0,0-2.506-0.771-11.371,1.735c-10.6,3.084-19.466,7.902-36.041,21.201c-11.949,9.829-25.826,28.524-28.139,31.801
				l0,0c-2.12-2.891-17.153-22.742-28.139-31.801c-8.673-6.938-15.419-11.564-21.201-14.84c-5.011-2.891-21.393-9.829-26.404-8.095
				l-0.771,3.469l-1.156,5.589c-0.771,4.047-6.36,6.167-9.829,3.662c-1.349-0.771-2.506-1.735-2.891-3.662
				c-0.964-4.626,2.698-6.746,5.975-9.251c-1.156-0.385-2.698-0.578-4.24-0.385c-1.735,0-3.469,0.385-4.626,0.578
				c-2.891,0.385-6.553,1.735-9.444,4.24c-3.855,3.469-5.011,5.204-5.975,6.746c-1.349,1.927-2.313,4.818-2.698,5.782
				c-2.12,4.24-1.349,8.866-0.193,11.757c0.578,1.927,1.735,3.084,1.927,3.084c0,0.193,0.578,0.385,1.349,0.771
				c0.385,0,0.771,0,1.156,0c0.578-0.193,1.349-0.193,1.735,0.193c0.385,0.385,0.771,0.964,1.349,1.542
				c0.964,0.964,0.771,0.385,2.313,0.385c1.542,0,2.506,1.542,3.276,2.12c0.964,0.193,2.698,0.193,3.469,0.578
				s2.506,2.12,2.698,1.927c1.735-0.385,2.698-0.771,2.506-0.771c1.735,0.385,1.349,2.12,5.396,2.313
				c5.396,0.193,10.215,2.698,13.491,4.433c2.12,1.156,9.829,9.251,12.335,13.299c2.506,3.855,3.855,7.324,4.818,9.444
				c2.506,5.589,2.506,21.393-1.542,27.753c-1.927,2.891-5.204,4.24-9.058,4.047c-1.542-0.193-6.746-0.578-8.288-2.698
				c-1.927-2.506-4.24-5.589-5.975-5.589c-3.469-0.193-10.022,3.855-10.022,3.855s-5.204,36.619-28.91,66.493
				c0,0-2.12,1.735-3.276,2.506s-3.084,1.349-3.276,1.156c-0.385,0,0-0.578,0-0.578c12.913-16.19,30.644-45.099,32.765-66.3
				c0.578-5.396,0.193-4.047,0.193-4.047s0-0.578-0.578-1.156c-0.578-0.578-2.313-2.698-5.975-4.433
				c-3.855-1.735-11.757-5.396-21.393-5.204c-9.829,0.193-16.382,1.735-21.008,3.084c-4.626,1.156-6.938,1.542-10.408,2.313
				c-3.662,0.771-4.818,0.578-8.48,0.771c-3.469,0.193-6.36,0.578-8.288,1.349c-2.12,0.578-10.793,4.24-12.72,8.673
				c-2.12,4.433-2.891,5.011-3.084,9.251c-0.193,4.24,0.193,9.444,1.542,12.913c1.349,3.276,3.469,7.709,3.469,7.709l-4.24-1.735
				c0,0-2.313,15.419-3.084,20.622c-0.578,5.204-0.578,14.455,0.578,19.273c1.156,4.626,2.313,5.011,2.891,5.204
				c0.578,0.193,9.251-0.578,9.251-0.578l2.891,1.542l-0.771,0.964c0,0-6.167,7.324-6.167,13.299
				c-0.193,6.167-0.964,12.72,0.578,23.128c1.542,10.408,4.047,28.91,4.626,34.499c0.385,5.782,1.156,18.888,1.349,22.935
				c0,4.047,0.193,20.622,0,23.899c-0.193,3.469-1.735,23.706-3.662,29.488c-1.927,5.782-1.542,9.829-5.589,18.117
				c-3.855,8.288-5.397,12.142-9.829,17.153c-4.24,5.204-8.287,9.444-10.408,10.986c-2.313,1.349-3.084,1.542-3.084,1.542
				s0,0.964,0.578,1.542c0.578,0.578,1.542,0.385,4.047,0c2.506-0.385,5.975-1.735,10.408-7.324
				c4.433-5.397,6.553-7.902,7.517-8.288c0.964-0.578,1.349-0.193,1.349-0.193s0.193,2.698-2.313,7.902
				c-2.506,5.011-8.866,13.684-16.382,20.43c-7.324,6.746-9.251,10.022-9.251,10.022s2.12,0.193,3.662,0
				c1.349-0.193,13.877-3.855,19.081-7.902c5.204-4.24,11.564-9.251,16.575-17.539c5.011-8.288,8.48-16.382,9.829-20.815
				c1.349-4.433,3.276-9.058,3.276-9.058h1.927c0,0,0,3.276-3.469,11.564c-3.276,8.095-5.011,12.142-7.709,17.153
				c-2.891,5.011-5.975,9.444-6.36,10.215c-0.193,0.771-0.578,1.735-0.578,1.735s4.818,0,10.022-0.578
				c5.204-0.578,13.877-3.469,20.237-8.288c6.553-4.818,8.48-10.408,10.6-15.419c2.12-5.011,4.626-16.575,5.396-21.779
				c0.964-5.204,2.506-12.72,2.698-12.913c0-0.193,0.385-0.385,0.771,2.12c0.578,2.506,0.771,5.397,0.771,5.397
				s2.12-1.735,5.975-8.673c0,0,3.662-5.204,7.709-19.659c4.047-14.455,6.167-32.379,7.131-42.594
				c1.156-10.408,1.735-32.572,2.506-38.547c0.964-5.975,2.313-21.972,5.397-28.139c3.084-6.167,5.782-8.288,10.408-8.866
				c4.818-0.771,9.444,0.578,11.564,5.782c0,0,2.313,5.396,2.313,12.335c0.193,7.131-0.385,32.957,0,36.234
				c0.385,3.469,1.735,14.84,2.891,17.346c1.156,2.698,2.698,14.069,2.506,19.273c-0.193,5.011-1.349,8.288-2.313,11.564
				c-0.964,3.469-8.48,28.332-10.6,32.572c-2.12,4.24-11.371,24.863-17.731,34.885c-6.553,10.022-20.815,26.212-22.935,27.754
				c-2.313,1.735-3.662,3.084-3.662,3.084s-0.964,0-3.084,1.156c-2.313,0.964-6.938,2.698-10.215,4.818
				c-3.469,2.313-7.709,4.24-10.022,5.782c-2.12,1.735-5.589,2.698-7.131,3.276c-1.349,0.771-5.397,1.349-7.517,1.927
				c-2.12,0.578-8.288,1.927-9.829,4.24c-1.542,2.313-1.156,4.047-0.385,5.397c0.964,1.542,4.047,1.735,4.047,1.735l-1.542-4.626
				c0,0-0.578-0.578,4.433-1.735c5.011-1.349,9.251-3.469,11.178-3.855c1.927-0.578,4.433-1.349,5.782-1.735
				c1.156-0.578,2.891-0.964,2.891-0.964s1.542-0.193,2.313-0.385c1.927-0.578,7.324-2.891,8.288-3.276
				c1.349-0.771,3.469-1.349,3.662-1.542c0.385-0.193,4.24-1.156,4.626,0.193c0.385,1.542,0.578,1.542-0.578,1.927
				c-1.156,0.385-3.469,1.927-6.36,2.698c-2.891,0.964-11.949,3.276-13.877,3.855c0,0-2.313,1.156-4.24,2.12
				c-1.735,1.156-4.24,2.891-4.047,5.397c0.193,2.313,1.927,3.084,2.506,3.469c0.578,0.385,2.12,0,2.12,0s-1.542-2.313-1.735-3.276
				c0-0.771-0.385-1.156,1.542-2.313c1.927-0.964,4.433-2.12,9.251-3.276c4.818-1.349,11.564-3.276,13.684-3.662
				c2.12-0.193,4.818-0.771,5.975-1.349c1.349-0.385,3.084-1.735,3.662-2.313c0.771-0.578,0.964-0.578,0.964-0.578h3.084
				c0,0,1.927-1.735,3.084-2.313c1.349-0.385,2.506,0,4.626,0.193c2.313,0.385,5.011,1.156,5.589,1.156
				c0.578,0.193,1.542,0.385,3.469,0.385c1.735,0.193,2.506,0,3.662,0c1.349,0,4.047,0.578,4.24,2.891
				c0,2.313-0.385,2.506-0.771,3.276c-0.385,0.578-0.578,1.735-0.578,1.735l2.891-0.385c0,0,2.313-0.964,3.084-3.276
				c0.578-2.313-0.385-4.626-0.964-5.782c-0.771-0.964-3.469-2.506-4.818-3.276c-1.349-0.964-2.12-1.156-4.047-1.927
				c-1.927-0.964-3.084-1.735-3.469-2.891c-0.578-1.156-1.156-2.12-2.12-2.698c-0.964-0.771-2.506-1.349-3.084-2.12
				c-0.771-0.964-0.385-2.891-0.385-3.084c0-0.193,0-0.771,1.156-1.349c0.964-0.771,1.349-1.349,1.542-1.735
				c0.193-0.578-0.193-0.964-0.578-1.156c-0.193-0.385-0.771-0.771-0.771-0.771c0-0.193,0.964-1.349,0.964-1.349
				s6.167-6.167,7.517-7.709c1.349-1.735,3.276-5.589,4.047-6.746c0.578-1.156,1.735-3.276,2.698-4.24
				c0.771-0.771,2.12-2.313,4.818-5.011c2.891-2.698,7.131-6.938,9.251-9.829c2.12-2.698,3.469-4.626,4.24-6.36
				c0.964-1.542,0.964-1.542,1.349-2.313c0.578-0.964,4.047-3.084,4.626-3.662c0.385-0.385,0.385-1.542,0.193-1.927
				c-0.193-0.385-0.964-0.771-0.964-2.506c0.193-1.542,1.542-7.902,4.626-14.455c2.891-6.553,9.444-19.273,10.022-20.43
				c0.578-1.156,3.469-7.517,3.662-7.902c0.193-0.385,0.193-0.964-0.385-2.313c-0.578-1.349-0.578-1.927-0.578-1.927
				s0-2.313,0.193-4.818c0.193-2.698,2.12-13.106,2.12-16.19c0.193-3.276-0.193-4.047-0.964-5.589
				c-0.771-1.349-6.553-10.6-6.938-11.178c-0.578-0.771-2.313-2.313-2.313-2.313s-0.771,1.927-2.313,3.662
				c-1.542,1.735-3.662,3.276-5.589,4.433c-1.927,0.964-2.891,0.964-2.891,0.964s0-1.542,0.771-2.506
				c0.964-0.964,0.964-0.578,2.313-1.156c1.156-0.578,2.506-1.349,2.891-1.542c0,0,1.927-2.12,2.698-4.24
				c0.771-2.12,1.927-3.662,1.927-6.36s-0.964-4.818-1.349-5.589c-0.385-0.964-2.313-2.891-2.891-3.469
				c-0.578-0.578-1.542-0.964-3.276-0.964c-1.735,0.193-2.698,0.771-3.276,1.735c-0.385,0.964-0.771,2.505-0.771,2.698
				c0,0.193,0,0.193,0,0.193v0.193l-1.349-0.193c0,0,0-2.505,0.193-3.276c0.193-0.964,0.771-2.505,2.891-3.662
				c2.12-0.964,5.975-1.156,8.095-0.964c2.12,0.193,8.288,0.385,8.288,0.385l1.542,1.349h6.36v5.011c0,0-0.578-0.193-0.964-0.193
				c-0.193,0-1.349-0.771-2.12-0.964c-0.771,0-2.313,0.193-2.313,0.193s-1.542,0.385-3.084,3.276
				c-1.735,3.084-2.506,5.397-2.12,7.902c0.193,2.698,1.156,5.397,3.662,8.673c2.313,3.469,4.24,5.397,4.818,7.324
				c0.578,1.927,0,6.938-0.578,9.637c-0.385,2.891-2.12,11.564-1.927,14.455c0,2.891,0.193,5.975,1.735,10.6
				c1.349,4.626,2.313,8.288,4.818,13.877c2.698,5.589,6.746,11.949,7.902,15.226c1.349,3.276,2.891,8.288,2.891,8.866
				c0,0.578,0,0.578,0,0.578l1.735,0.193c0,0,0.385,1.735,0.385,4.047c0.193,2.313-0.771,11.178-0.771,12.913
				c0,1.735,0,2.891,0,3.469c0.193,0.578,0.964,0.385,0.771,1.156c0,0.771,0,2.313-0.385,2.505c-0.385,0.193-1.542,0-1.927,0
				s-2.313-0.385-2.313-0.385s-0.193,0.964,0.193,1.735c0.385,0.771,1.542,1.927,1.542,2.12c0.193,0.193,0.964,1.349,0.964,1.542
				s0.193,1.156,0,1.735c-0.385,0.771-3.084,3.662-2.698,5.782c0.193,2.12,1.156,2.698,1.735,2.891
				c0.771,0.193,1.349-0.385,1.735-0.578c0.385-0.193,1.156-0.385,1.156-0.385h0.964v2.506c0,0,1.349,0.771,1.349,1.542
				c0,0.771-0.578,0.385-1.156,0.578c-0.385,0.193-1.927,1.735-2.12,1.927c-0.193,0-0.578,0.771-3.084,1.735
				c-2.698,1.156-4.24,1.349-4.626,1.349c-0.578,0-0.578,1.156,0.578,1.735c0.578,0.385,1.542,0.385,2.313,0.193
				c0.771,0,1.542-0.193,1.927,0.193c0.771,0.385,1.349,1.156,0.964,2.891c-0.578,1.735-1.156,2.506-2.698,3.276
				c-1.735,0.964-4.626,2.12-5.204,2.698c-0.771,0.578-0.771,1.349-0.385,1.542c0.578,0.385,2.891,1.156,3.084,2.505
				c0,1.349-0.193,0.771-1.349,1.156c-0.964,0.578-2.313,1.156-3.084,2.313c-0.771,1.156-1.735,3.469-2.891,5.782
				c-1.156,2.313-4.818,8.866-6.553,12.142c-1.735,3.469-5.011,9.637-5.782,12.528c-0.578,3.084-0.578,3.469-0.578,3.469
				c1.542,0.771,3.662,0.964,6.746,0.964c0,0,0.385,1.927,2.506,3.276c1.927,1.349,4.24,1.542,6.167,1.542
				c2.12,0,2.891-0.385,3.084-0.385c0.385-0.193,0.385-0.193,0.385-0.193s3.084,2.891,4.047,3.662
				c0.771,0.578,2.313,0.771,2.698,0.771c0.578,0,6.167,0.385,6.167,0.385s0.771,2.506,3.276,3.662
				c2.505,0.964,3.855,0.578,5.589,0.385c1.735-0.385,2.698-0.578,2.698-0.578s2.12,1.349,2.891,1.927
				c0.193,0.193,1.156,0.193,2.12,0.193l0,0c0.193,0,0.193,0,0.385,0h0.193l0,0c0.964,0,1.927,0,2.313-0.193
				c0.771-0.578,2.698-1.927,2.698-1.927s1.156,0.193,2.698,0.578c1.735,0.193,3.084,0.578,5.589-0.385
				c2.505-1.156,3.469-3.662,3.469-3.662s5.589-0.385,5.975-0.385c0.578,0,1.927-0.193,2.891-0.771
				c0.771-0.771,4.047-3.662,4.047-3.662s0,0,0.193,0.193c0.385,0,1.156,0.385,3.084,0.385c2.12,0,4.24-0.193,6.36-1.542
				c1.927-1.349,2.506-3.276,2.506-3.276c3.469,0.385,5.204-0.385,6.553-0.964c0,0,0-0.385-0.578-3.469
				c-0.578-2.891-4.047-9.058-5.782-12.528c-1.735-3.276-5.204-9.829-6.36-12.142c-1.156-2.313-2.313-4.626-3.084-5.782
				c-0.578-1.156-1.927-1.735-3.084-2.313c-0.964-0.385-1.156,0.193-1.156-1.156s2.313-2.12,2.891-2.505
				c0.578-0.193,0.385-0.964-0.193-1.542c-0.578-0.578-3.469-1.735-5.204-2.698c-1.735-0.771-2.313-1.542-2.698-3.276
				c-0.578-1.735,0.193-2.505,0.964-2.891c0.385-0.385,0.964-0.193,1.735-0.193c0.964,0.193,1.735,0.193,2.313-0.193
				c1.156-0.578,1.156-1.735,0.771-1.735c-0.578,0-2.12-0.193-4.626-1.349c-2.698-0.964-2.891-1.735-3.084-1.735
				c-0.193-0.193-1.927-1.735-2.313-1.927c-0.385-0.193-1.156,0.193-1.156-0.578c0-0.771,1.542-1.542,1.542-1.542v-2.506h0.771
				c0,0,0.771,0.193,1.156,0.385c0.385,0.193,1.156,0.771,1.735,0.578c0.771-0.193,1.542-0.771,1.927-2.891
				c0.193-2.12-2.506-5.011-2.698-5.782c-0.385-0.578,0-1.542,0-1.735s0.578-1.349,0.771-1.542c0.193-0.193,1.156-1.349,1.542-2.12
				s0.385-1.735,0.385-1.735s-1.927,0.385-2.313,0.385s-1.542,0.193-1.927,0c-0.578-0.193-0.578-1.735-0.578-2.505
				c0-0.771,0.578-0.578,0.771-1.156c0.193-0.578,0.193-1.735,0.193-3.469c-0.193-1.735-1.156-10.6-0.964-12.913
				c0.193-2.313,0.578-4.047,0.578-4.047l1.735-0.193c0,0,0,0,0-0.578s1.349-5.589,2.698-8.866
				c1.349-3.276,5.397-9.637,7.902-15.226c2.698-5.589,3.469-9.251,5.011-13.877c1.349-4.626,1.542-7.709,1.735-10.6
				c0-2.891-1.542-11.564-2.12-14.455c-0.385-2.698-0.964-7.709-0.385-9.637c0.578-1.927,2.313-3.855,4.818-7.324
				c2.505-3.276,3.276-5.975,3.662-8.673c0.193-2.506-0.578-4.818-2.12-7.902c-1.735-3.084-3.276-3.276-3.276-3.276
				s-1.349-0.193-2.12-0.193c-0.964,0.193-1.927,0.964-2.313,0.964c-0.193,0-0.964,0.193-0.964,0.193v-5.011h6.36l1.735-1.349
				c0,0,5.975-0.193,8.095-0.385c2.313-0.193,6.167,0,8.095,0.964c2.12,1.156,2.891,2.698,2.891,3.662
				c0.193,0.771,0.193,3.276,0.193,3.276l-1.156,0.193l-0.193-0.193c0,0,0,0,0-0.193c0-0.193-0.193-1.735-0.771-2.698
				c-0.578-0.964-1.542-1.542-3.276-1.735c-1.542,0-2.698,0.385-3.276,0.964c-0.578,0.578-2.313,2.506-2.698,3.469
				c-0.578,0.771-1.542,2.891-1.542,5.589c0.193,2.698,1.156,4.24,2.12,6.36c0.771,2.12,2.505,4.24,2.505,4.24
				c0.385,0.193,1.735,0.964,3.084,1.542c1.156,0.578,1.349,0.193,2.12,1.156c0.964,0.964,0.771,2.506,0.771,2.506
				s-0.964,0-2.891-0.964c-1.927-1.156-3.855-2.698-5.397-4.433c-1.542-1.735-2.313-3.662-2.313-3.662s-1.735,1.542-2.313,2.313
				c-0.578,0.578-6.36,9.829-7.131,11.178c-0.771,1.542-0.964,2.313-0.964,5.589c0.193,3.084,2.12,13.491,2.313,16.19
				c0.193,2.505,0,4.818,0,4.818s0,0.578-0.578,1.927c-0.385,1.349-0.385,1.927-0.193,2.313c0.193,0.385,2.891,6.746,3.469,7.902
				c0.578,1.156,7.324,13.877,10.215,20.43c2.891,6.553,4.433,12.913,4.433,14.455c0.193,1.735-0.771,2.12-0.964,2.506
				c0,0.385-0.193,1.542,0.385,1.927c0.578,0.578,3.855,2.698,4.433,3.662c0.578,0.771,0.578,0.771,1.349,2.313
				c0.771,1.735,2.12,3.662,4.24,6.36c2.12,2.891,6.553,7.131,9.251,9.829c2.891,2.698,4.047,4.24,5.011,5.011
				c0.964,0.964,1.927,3.084,2.698,4.24c0.578,1.156,2.505,5.011,4.047,6.746c1.349,1.542,7.517,7.709,7.517,7.709
				s0.771,1.156,0.771,1.349c0,0-0.578,0.385-0.771,0.771c-0.385,0.193-0.771,0.578-0.578,1.156
				c0.193,0.385,0.578,0.964,1.735,1.735c0.964,0.578,0.964,1.156,0.964,1.349c0,0.193,0.385,2.12-0.193,3.084
				c-0.771,0.771-2.313,1.349-3.276,2.12c-0.964,0.578-1.542,1.542-1.927,2.698c-0.578,1.156-1.735,1.927-3.662,2.891
				c-1.735,0.771-2.505,0.964-4.047,1.927c-1.349,0.771-4.047,2.313-4.626,3.276c-0.771,1.156-1.542,3.469-0.964,5.782
				c0.578,2.313,3.084,3.276,3.084,3.276l2.891,0.385c0,0-0.193-1.156-0.578-1.735c-0.578-0.771-0.964-0.964-0.771-3.276
				c0-2.313,2.698-2.891,4.047-2.891s1.927,0.193,3.855,0c1.735,0,2.891-0.193,3.469-0.385c0.578,0,3.276-0.771,5.397-1.156
				c2.313-0.193,3.469-0.578,4.626-0.193c1.156,0.578,3.084,2.313,3.084,2.313h3.276c0,0,0.193,0,0.771,0.578
				s2.506,1.927,3.662,2.313c1.349,0.578,3.855,1.156,5.975,1.349c2.12,0.385,9.058,2.313,13.684,3.662
				c4.818,1.156,7.324,2.313,9.251,3.276c1.927,1.156,1.542,1.542,1.542,2.313c0,0.964-1.735,3.276-1.735,3.276s1.735,0.385,2.12,0
				c0.578-0.385,2.505-1.156,2.698-3.469c0.193-2.506-2.506-4.24-4.24-5.397c-1.735-0.964-4.24-2.12-4.24-2.12
				c-1.927-0.578-10.986-2.891-13.877-3.855c-2.698-0.771-5.204-2.313-6.167-2.698c-1.156-0.385-1.156-0.385-0.771-1.927
				c0.385-1.349,4.24-0.385,4.626-0.193c0.193,0.193,2.313,0.771,3.855,1.542c0.771,0.385,6.36,2.698,8.095,3.276
				c0.964,0.193,2.313,0.385,2.313,0.385s1.735,0.385,3.084,0.964c1.156,0.385,3.662,1.156,5.589,1.735
				c1.927,0.385,6.167,2.506,11.178,3.855c5.204,1.156,4.433,1.735,4.433,1.735l-1.542,4.626c0,0,3.276-0.193,4.047-1.735
				c0.964-1.349,1.349-3.084-0.385-5.397c-1.542-2.313-7.709-3.662-9.829-4.24c-2.12-0.578-5.975-1.156-7.517-1.927
				c-1.542-0.578-4.818-1.542-7.131-3.276c-2.12-1.542-6.36-3.469-9.829-5.782c-3.469-2.12-8.095-3.855-10.215-4.818
				c-2.313-1.156-3.084-1.156-3.084-1.156s-1.542-1.349-3.662-3.084c-2.313-1.542-16.575-17.731-22.935-27.754
				c-6.36-10.022-15.804-30.644-17.924-34.885c-2.12-4.24-9.637-29.103-10.6-32.572c-0.964-3.276-1.927-6.553-2.12-11.564
				c-0.385-5.204,1.349-16.575,2.313-19.273c1.156-2.505,2.506-13.877,2.891-17.346c0.385-3.276-0.193-29.103,0-36.234
				c0.193-6.938,2.506-12.335,2.506-12.335c2.12-5.204,6.746-6.553,11.371-5.782c4.626,0.578,7.324,2.698,10.408,8.866
				c3.084,6.167,4.626,22.164,5.397,28.139c0.964,5.975,1.542,28.139,2.505,38.547c0.964,10.215,3.276,28.139,7.324,42.594
				c4.047,14.455,7.709,19.659,7.709,19.659c3.855,6.938,5.975,8.673,5.975,8.673s0.193-2.891,0.578-5.397
				c0.385-2.505,0.771-2.313,0.964-2.12c0,0.193,1.735,7.709,2.505,12.913c0.771,5.204,3.469,16.768,5.397,21.779
				c2.12,5.011,4.24,10.6,10.6,15.419c6.36,4.818,15.033,7.709,20.237,8.288c5.204,0.578,10.215,0.578,10.215,0.578
				c0.385,0-6.746-11.178-6.938-11.949c-2.891-5.011-4.626-9.058-7.902-17.153c-3.276-8.288-3.469-11.564-3.469-11.564h1.927
				c0,0,2.12,4.626,3.469,9.058s4.626,12.528,9.637,20.815c5.204,8.287,11.564,13.299,16.768,17.539
				c5.204,4.047,17.539,7.709,19.081,7.902c1.349,0.193,3.662,0,3.662,0S538.495,490.119,531.171,483.373L531.171,483.373z"/>
			<path style="fill-rule:evenodd;clip-rule:evenodd;fill:#FEFEFE;" d="M373.323,517.68l-9.444-23.321
				c-0.193-0.578-1.156-0.964-1.927-0.771c-0.771,0.193-1.156,0.964-0.771,1.735l9.251,23.128c0.385,0.771,1.156,1.156,1.927,0.964
				C373.13,519.221,373.516,518.451,373.323,517.68L373.323,517.68z"/>
			<path style="fill-rule:evenodd;clip-rule:evenodd;fill:#FEFEFE;" d="M357.133,497.635c-0.193-0.771-0.964-1.156-1.735-0.964
				c-0.771,0.193-1.349,0.964-1.156,1.542l7.517,23.706c0.193,0.771,0.964,1.349,1.735,1.156c0.964-0.193,1.349-0.964,1.156-1.735
				L357.133,497.635z"/>
			<path style="fill-rule:evenodd;clip-rule:evenodd;fill:#FEFEFE;" d="M350.966,499.177c0-0.771-0.771-1.349-1.735-1.156
				c-0.771,0-1.349,0.771-1.156,1.542l4.818,24.284c0.193,0.771,0.964,1.156,1.735,1.156c0.771-0.193,1.349-0.771,1.156-1.542
				L350.966,499.177z"/>
			<path style="fill-rule:evenodd;clip-rule:evenodd;fill:#FEFEFE;" d="M343.449,500.719c0-0.771-0.771-1.349-1.542-1.349
				c-0.771,0.193-1.542,0.771-1.349,1.542l2.891,24.477c0.193,0.771,0.964,1.349,1.735,1.156c0.771,0,1.349-0.578,1.349-1.349
				L343.449,500.719z"/>
			<path style="fill-rule:evenodd;clip-rule:evenodd;fill:#FEFEFE;" d="M305.867,493.395c-0.771-0.385-1.735,0-1.927,0.771
				l-9.444,23.321c-0.193,0.771,0.193,1.542,0.964,1.735c0.771,0.193,1.735-0.193,1.927-0.964l9.444-23.321
				C307.023,494.359,306.637,493.588,305.867,493.395L305.867,493.395z"/>
			<path style="fill-rule:evenodd;clip-rule:evenodd;fill:#FEFEFE;" d="M312.419,496.286c-0.771,0-1.542,0.385-1.735,1.156
				l-7.517,23.706c-0.193,0.771,0.385,1.542,1.156,1.735c0.771,0,1.542-0.385,1.735-1.156l7.517-23.706
				C313.769,497.25,313.383,496.479,312.419,496.286z"/>
			<path style="fill-rule:evenodd;clip-rule:evenodd;fill:#FEFEFE;" d="M318.587,497.828c-0.964-0.193-1.735,0.385-1.735,1.156
				l-4.818,24.092c-0.193,0.771,0.385,1.542,1.156,1.735c0.771,0,1.542-0.385,1.735-1.156l4.818-24.284
				C319.936,498.599,319.358,497.828,318.587,497.828z"/>
			<path style="fill-rule:evenodd;clip-rule:evenodd;fill:#FEFEFE;" d="M325.911,499.177c-0.771,0-1.542,0.578-1.542,1.349
				l-3.084,24.284c0,0.771,0.578,1.542,1.349,1.542c0.771,0.193,1.542-0.385,1.735-1.156l2.891-24.477
				C327.453,499.948,326.874,499.177,325.911,499.177z"/>
			<path style="fill-rule:evenodd;clip-rule:evenodd;fill:#FEFEFE;" d="M334.198,499.37c-0.771,0-1.542,0.578-1.542,1.349v24.67
				c0,0.771,0.578,1.349,1.349,1.349c0.964,0,1.542-0.578,1.542-1.349v-24.67C335.74,499.948,334.969,499.37,334.198,499.37z"/>
			<path style="fill-rule:evenodd;clip-rule:evenodd;fill:#252422;" d="M443.478,131.829c0,0,4.047,6.746,3.855,11.564
				c0,4.047-2.313,8.673-5.204,11.371c-2.891,2.698-5.975,2.12-5.975,2.12s1.735-3.662-1.349-10.022
				c-3.084-6.36-5.975-7.709-8.288-7.324C424.397,139.731,443.478,131.829,443.478,131.829L443.478,131.829z"/>
			<path style="fill-rule:evenodd;clip-rule:evenodd;fill:#252422;" d="M223.955,131.829c0,0-3.855,6.746-3.855,11.564
				c0,4.047,2.313,8.673,5.396,11.371c2.891,2.698,5.782,2.12,5.782,2.12s-1.542-3.662,1.542-10.022
				c3.084-6.36,5.975-7.709,8.095-7.324C243.036,139.731,223.955,131.829,223.955,131.829L223.955,131.829z"/>
			<path style="fill-rule:evenodd;clip-rule:evenodd;fill:#262523;" d="M411.291,100.414c1.542,4.047,1.542,10.215,6.553,10.215
				c2.506,0,5.204-1.349,5.204-3.662c0-5.782-14.84-10.986-16.19-17.346C405.895,89.621,410.135,96.366,411.291,100.414z"/>
			<path style="fill-rule:evenodd;clip-rule:evenodd;fill:#FEFEFE;" d="M431.721,111.014c0,0,0,9.058,1.156,10.986
				c0.578,1.349,0.964,2.313,3.469,1.927c1.542-0.193,3.084-0.964,3.084-3.084c0-1.542-2.698-4.24-3.855-5.589
				C434.419,113.905,431.721,111.014,431.721,111.014L431.721,111.014z"/>
			<path style="fill-rule:evenodd;clip-rule:evenodd;fill:#FEFEFE;" d="M235.326,111.399c0,0,0,9.058-1.156,10.986
				c-0.578,1.156-0.964,2.12-3.469,1.927c-1.735-0.193-3.084-0.964-3.084-3.084c0-1.735,2.698-4.433,3.855-5.589
				C232.628,114.29,235.326,111.399,235.326,111.399L235.326,111.399z"/>
			<path style="fill-rule:evenodd;clip-rule:evenodd;fill:#FEFEFE;" d="M408.593,93.283L408.593,93.283
				c0.578,1.542,3.662,5.782,4.433,8.095c0.964,3.084,0.964,7.517,4.626,7.517c1.735,0,3.855-0.964,3.855-2.698
				C421.506,101.763,410.713,97.137,408.593,93.283z"/>
			<path style="fill-rule:evenodd;clip-rule:evenodd;fill:#262523;" d="M410.713,95.981L410.713,95.981
				c0.385,0.964,2.505,4.047,3.084,5.589c0.771,2.12,0.771,5.204,3.276,5.204c1.156,0,2.698-0.578,2.698-1.927
				C419.771,101.956,412.062,98.679,410.713,95.981z"/>
			<path style="fill-rule:evenodd;clip-rule:evenodd;fill:#262523;" d="M256.912,99.835c-1.349,4.047-1.349,10.408-6.36,10.408
				c-2.506,0-5.204-1.542-5.204-3.855c0-5.782,14.84-10.986,16.19-17.346C262.502,89.042,258.262,95.788,256.912,99.835z"/>
			<path style="fill-rule:evenodd;clip-rule:evenodd;fill:#FEFEFE;" d="M259.803,92.704L259.803,92.704
				c-0.578,1.542-3.662,5.782-4.433,8.095c-0.964,3.084-0.964,7.517-4.626,7.517c-1.927,0-3.855-0.964-3.855-2.698
				C246.89,101.185,257.683,96.559,259.803,92.704L259.803,92.704z"/>
			<path style="fill-rule:evenodd;clip-rule:evenodd;fill:#262523;" d="M257.683,95.403L257.683,95.403
				c-0.385,0.964-2.506,4.047-3.084,5.589c-0.771,2.12-0.771,5.204-3.276,5.204c-1.156,0-2.698-0.578-2.698-1.927
				C248.625,101.377,256.142,98.101,257.683,95.403z"/>
			<path style="fill-rule:evenodd;clip-rule:evenodd;fill:#DD7D21;" d="M376.599,247.469c-2.12-31.223-20.43-55.7-42.594-55.7
				c-22.357,0-40.667,24.477-42.787,55.7c1.156,17.153,7.324,32.186,16.19,42.401h-8.866c0,0,4.047,5.397,6.167,9.444
				c2.12,4.047,0.964,11.564,1.349,17.731c0.578,6.167,5.782,10.986,8.866,15.033c2.891,4.047,5.782,6.746,7.131,11.178
				c1.542,4.433,0.964,6.36,0,9.058c-0.964,2.506-4.047,6.553-4.047,6.553s1.349,5.204,1.349,6.938
				c-0.193,1.735-1.156,5.589-2.12,7.131c-0.771,1.542-0.771,1.542-0.771,1.542s-0.964,2.698,0.578,3.855
				c1.542,1.156,1.735,1.542,4.626,1.542c1.156,0,2.506,0,3.662,0c1.542,0.193,3.084,0.385,3.276,0
				c0.771-0.578,4.433-0.578,5.204-0.578l0,0h0.193c0.578,0,4.433,0,5.011,0.578c0.385,0.385,1.735,0.193,3.469,0
				c1.156,0,2.313,0,3.469,0c2.891,0,3.084-0.385,4.626-1.542c1.735-1.156,0.771-3.855,0.771-3.855s0,0-0.964-1.542
				c-0.771-1.542-1.927-5.397-1.927-7.131c-0.193-1.735,1.156-6.938,1.156-6.938s-3.084-4.047-4.047-6.553
				c-0.964-2.698-1.349-4.626,0-9.058c1.542-4.433,4.24-7.131,7.324-11.178c2.891-4.047,8.288-8.866,8.673-15.033
				c0.578-6.167-0.771-13.684,1.542-17.731c2.12-4.047,5.975-9.444,5.975-9.444h-8.48
				C369.468,279.655,375.443,264.622,376.599,247.469L376.599,247.469z"/>
			<path style="fill-rule:evenodd;clip-rule:evenodd;fill:#FEFEFE;" d="M352.893,308.179c-0.193-1.735-0.771-3.469-3.662-5.204
				c-2.891-2.12-6.553-1.542-8.288-0.771c-2.12,0.771-5.011,3.276-5.011,3.276s0.578-8.48,0-11.371
				c-0.578-3.084-2.891-5.204-2.891-5.204s-2.313,2.12-2.891,5.204c-0.578,2.891,0,11.371,0,11.371s-3.084-2.506-5.011-3.276
				c-1.735-0.771-5.397-1.349-8.48,0.771c-2.698,1.735-3.276,3.469-3.662,5.204c-0.385,3.084,1.349,4.818,1.349,4.818
				s1.156-3.276,2.505-4.626c1.542-1.542,3.469-1.349,6.36-0.771c2.698,0.385,4.626,3.084,6.167,6.746
				c0.193,0.578,0.385,1.156,0.578,1.542c0,0.578,0,0.964,0.193,1.156c0.578,3.084,2.891,5.204,2.891,5.204s2.313-2.12,2.891-5.204
				c0-0.193,0.193-0.578,0.193-1.156c0.193-0.385,0.385-0.964,0.578-1.542c1.542-3.662,3.469-6.36,5.975-6.746
				c3.084-0.578,4.818-0.771,6.36,0.771c1.542,1.349,2.698,4.626,2.698,4.626S353.279,311.263,352.893,308.179L352.893,308.179z"/>
			<path style="fill-rule:evenodd;clip-rule:evenodd;fill:#FEFEFE;" d="M335.547,331.693l0.771,2.698h2.506l2.12-3.855l1.349-0.578
				l1.349-1.542c0,0-1.735-1.156-2.505-0.964c-0.771,0-2.12,1.156-2.12,1.156L335.547,331.693L335.547,331.693z"/>
			<path style="fill-rule:evenodd;clip-rule:evenodd;fill:#FEFEFE;" d="M332.078,332.078l-0.771,2.698h-2.506l-2.12-3.855
				l-1.542-0.578l-1.156-1.542c0,0,1.735-1.156,2.505-1.156c0.771,0.193,2.12,1.349,2.12,1.349L332.078,332.078L332.078,332.078z"/>
			<path style="fill-rule:evenodd;clip-rule:evenodd;fill:#FEFEFE;" d="M332.656,338.053h3.662
				c-1.156,1.735-1.542,2.698-1.735,4.818c-1.156-0.964-2.12-3.276-2.313-4.818H332.656z"/>
			<path style="fill-rule:evenodd;clip-rule:evenodd;fill:#FEFEFE;" d="M336.896,184.252c-0.193,0-0.385-0.193-0.385-0.193
				c-4.818-0.193-8.673-4.047-8.673-9.058c0-4.818,3.855-8.866,8.673-9.058c0,0,0.193,0,0.385,0c1.349,0,2.698,0.193,3.662,0.771
				c-1.156-0.771-2.506-1.542-4.047-1.735c-0.771-0.193-1.542-0.385-2.313-0.385c-6.36,0-11.371,5.204-11.371,11.371
				c0,5.782,4.433,10.408,10.022,11.178h0.578h0.385l-0.385,5.011c-1.349,0.964-5.975,3.662-10.6,6.938l0,0v0.193
				c-3.084,2.12-5.975,4.433-7.902,6.553c-5.397,5.975-13.491,17.924-15.033,29.874c-1.542,12.142-0.385,22.357-0.385,22.357h11.949
				c4.047-7.324,11.564-12.335,20.237-12.913v-21.201c-0.193-0.193-0.771-0.578-1.349-1.542c-0.771-1.156-0.578-3.084-0.578-3.084
				h0.771h0.193h0.964v-5.975l0,0l2.12-21.008h0.193l2.698,21.008l0,0v5.975h1.735c0,0,0.578,1.542-0.578,3.469
				c-0.193,0.385-0.771,0.771-1.349,1.156v21.393c7.709,1.156,14.262,5.975,17.924,12.72h14.069c0,0,0.964-10.215-0.578-22.357
				c-1.542-11.949-9.444-23.899-14.84-29.874c-2.12-2.12-5.204-4.626-8.288-6.938l0,0l0,0c-4.433-3.084-8.866-5.782-10.408-6.746
				l-0.385-5.011h0.578l0,0h0.193c0.578,0,1.156,0,1.735-0.193c3.855-0.771,6.938-3.662,8.288-7.131
				C343.064,182.325,340.173,184.252,336.896,184.252L336.896,184.252z"/>
			<path style="fill-rule:evenodd;clip-rule:evenodd;fill:#FEFEFE;" d="M360.217,266.356h-5.975c0,0,0,1.156-0.578,2.313
				c-0.578,1.349-1.542,3.084-5.204,4.818c-1.927,0.964-3.469,1.349-4.433,1.542c1.156,1.542,1.735,3.469,1.735,5.589
				c0,4.047-2.698,7.709-6.167,9.058c0.193,0.193,0.964,0.193,4.433,0c5.397-0.578,8.866-3.276,12.72-7.902
				C360.603,277.149,360.217,266.356,360.217,266.356z"/>
			<path style="fill-rule:evenodd;clip-rule:evenodd;fill:#FEFEFE;" d="M305.481,266.356h5.782c0,0,0,1.156,0.578,2.313
				c0.578,1.349,1.735,3.084,5.397,4.818c1.927,0.964,3.469,1.349,4.433,1.542c-1.156,1.542-1.735,3.469-1.735,5.589
				c0,4.047,2.505,7.709,6.167,9.058c-0.193,0.193-0.964,0.193-4.433,0c-5.397-0.578-8.866-3.276-12.72-7.902
				C305.096,277.149,305.481,266.356,305.481,266.356z"/>
			<path style="fill-rule:evenodd;clip-rule:evenodd;fill:#FEFEFE;" d="M334.584,449.067h-2.12l0.771-4.24h-0.193
				c-0.578-0.578-3.276-2.506-6.36-3.276c-3.469-0.771-5.589-1.349-5.975-1.349c0.193-0.385,0.385-0.578,0.385-0.964
				c0.193-0.964-0.385-2.12-1.542-2.506c0.578,0.193,1.542,0.385,3.276,0.964c0.385,0,0.964,0.193,1.542,0.385
				c1.927,0.578,4.047,1.349,5.975,3.084c1.927,1.542,2.698,2.891,2.891,3.469h0.193c0.193-0.385,0.964-1.927,2.891-3.662
				c2.12-1.735,4.047-2.313,6.167-2.891c0.385-0.193,0.964-0.385,1.349-0.385c1.735-0.578,2.698-0.964,3.276-0.964
				c-0.964,0.385-1.735,1.542-1.542,2.506c0,0.385,0.193,0.578,0.385,0.771c-0.193,0.193-2.505,0.771-5.782,1.542
				c-3.084,0.771-5.782,2.698-6.553,3.276h-0.193L334.584,449.067L334.584,449.067z"/>
			<path style="fill-rule:evenodd;clip-rule:evenodd;fill:#FEFEFE;" d="M481.446,346.34c-3.662,5.397-14.84,22.55-14.84,30.452
				v5.011c0,7.131,6.746,12.528,12.142,8.48c1.735-1.156,2.698-3.084,2.698-5.204c0-3.084-3.276-4.626-5.782-3.276
				c-1.542,0.771-1.349,2.505-4.047,2.505c0-8.48,8.48-5.204,8.866-12.913c0-0.578,0.193-1.156,0.193-1.735
				c0-0.385,0.193-0.964,0.193-1.349c0.193-0.771,0.385-1.542,0.771-2.505c1.735-3.662,3.084-6.36,5.397-9.829
				c0.578-0.771,1.156-1.349,1.542-1.735c4.433-4.433-2.891,13.491-2.891,15.804v1.349c0,4.24,2.12,6.36,2.12,11.564v2.12
				c0,6.36-5.204,10.793-10.793,12.142v1.735c0,1.735,3.662,3.084,3.662,5.011c0,5.011-4.433,5.782-4.626,10.793
				c0,3.662-1.542,8.48-3.276,10.793c-0.193,0.193-0.193,0.385-0.385,0.385c-0.771-3.084-0.578-8.866-1.927-11.371
				c-0.578-0.964-0.964-1.927-1.349-2.505c-0.193-1.156-0.385-1.927-0.385-3.276c-0.193-1.156-0.193-2.505-0.964-4.433
				c-0.193-0.771-0.385-1.156-0.578-1.349c-17.153-26.404-0.578-29.103-0.578-50.496v-0.385c0-6.36-3.662-6.746-6.167-10.6
				c-0.578-1.156-0.964-2.313-0.964-4.047c-0.193-4.433,1.349-7.517,2.505-10.793c0.771-1.927,1.156-3.662,1.156-5.782v-2.12
				c0-1.542-0.771-3.084-1.927-4.626c-2.505-3.469-7.324-6.553-7.709-11.178c0-1.349,0-2.891,0-4.24
				c10.022-2.313,10.793,3.276,14.648,11.371c0.385-0.385,0.771-0.771,1.156-1.156c4.433-5.204,9.637-2.506,9.637,3.662
				c0,3.276-6.167,2.506-6.167,4.433v0.578c0,0.578,11.564,12.72,4.818,15.033c-0.771,0.193-1.735,0.193-2.698-0.578v-1.349
				c0.385-6.36-8.288-5.397-9.829,0.771c-2.12,8.866,8.095,16.575,15.997,6.746c10.793-13.299,11.178-34.114-5.397-43.365
				c-11.949-6.746-29.681-10.793-42.787-17.346c-1.735-0.964-8.095-3.662-7.131-6.167c0.193-0.385,0.385-0.578,0.578-0.771
				c0.771-0.578,1.735-1.156,2.698-1.156h0.385c2.506,0,3.469,1.156,5.011,2.12l0,0c0.771-1.156,0.385-2.313,2.506-3.276
				c2.313-1.156,4.626-0.193,5.782,2.12c2.12-0.578,2.698-1.735,5.397-1.735c5.589,0,8.48,6.36,0,6.36
				C450.609,285.437,525.582,283.51,481.446,346.34L481.446,346.34z"/>
			<path style="fill-rule:evenodd;clip-rule:evenodd;fill:#FEFEFE;" d="M185.216,346.34c3.855,5.397,15.033,22.55,15.033,30.452
				v5.011c0,7.131-6.746,12.528-12.335,8.48c-1.542-1.156-2.698-3.084-2.698-5.204c0-3.084,3.469-4.626,5.975-3.276
				c1.542,0.771,1.349,2.505,4.047,2.505c0-8.48-8.48-5.204-9.058-12.913c0-0.578,0-1.156,0-1.735
				c-0.193-0.385-0.193-0.964-0.385-1.349c0-0.771-0.385-1.542-0.771-2.505c-1.542-3.662-2.891-6.36-5.204-9.829
				c-0.578-0.771-1.156-1.349-1.542-1.735c-4.433-4.433,2.891,13.491,2.891,15.804v1.349c0,4.24-2.12,6.36-2.12,11.564v2.12
				c0,6.36,5.011,10.793,10.793,12.142v1.735c0,1.735-3.662,3.084-3.662,5.011c0,5.011,4.433,5.782,4.433,10.793
				c0.193,3.662,1.735,8.48,3.469,10.793c0.193,0.193,0.193,0.385,0.385,0.385c0.771-3.084,0.578-8.866,1.927-11.371
				c0.578-0.964,0.964-1.927,1.156-2.505c0.385-1.156,0.385-1.927,0.578-3.276c0-1.156,0.193-2.505,0.771-4.433
				c0.193-0.771,0.385-1.156,0.578-1.349c17.346-26.404,0.771-29.103,0.771-50.496v-0.385c0-6.36,3.662-6.746,5.975-10.6
				c0.578-1.156,1.156-2.313,1.156-4.047c0-4.433-1.542-7.517-2.698-10.793c-0.578-1.927-1.156-3.662-1.156-5.782v-2.12
				c0-1.542,0.964-3.084,1.927-4.626c2.698-3.469,7.324-6.553,7.709-11.178c0-1.349,0-2.891,0-4.24
				c-10.022-2.313-10.793,3.276-14.648,11.371c-0.385-0.385-0.578-0.771-0.964-1.156c-4.433-5.204-9.829-2.506-9.829,3.662
				c0,3.276,6.36,2.506,6.36,4.433v0.578c0,0.578-11.564,12.72-5.011,15.033c0.964,0.193,1.927,0.193,2.891-0.578v-1.349
				c-0.385-6.36,8.095-5.397,9.637,0.771c2.313,8.866-7.902,16.575-15.804,6.746c-10.793-13.299-11.178-34.114,5.396-43.365
				c11.949-6.746,29.681-10.793,42.594-17.346c1.927-0.964,8.288-3.662,7.131-6.167c0-0.385-0.193-0.578-0.578-0.771
				c-0.578-0.578-1.542-1.156-2.506-1.156h-0.385c-2.506,0-3.662,1.156-5.011,2.12l0,0c-0.964-1.156-0.385-2.313-2.698-3.276
				c-2.313-1.156-4.433-0.193-5.589,2.12c-2.12-0.578-2.891-1.735-5.589-1.735c-5.397,0-8.288,6.36,0,6.36
				C216.246,285.437,141.08,283.51,185.216,346.34L185.216,346.34z"/>
			<path style="fill-rule:evenodd;clip-rule:evenodd;fill:#FEFEFE;" d="M376.214,310.878c3.084,0.964,5.975,1.156,8.673,0.578
				c-0.193-34.114,7.709-74.78,30.452-102.726c1.156-1.735,2.313-3.276,2.698-5.011c-2.313,0.193-3.855,2.12-5.397,3.469
				c-6.553,7.324-13.491,19.273-17.539,28.139C385.272,257.105,378.141,284.859,376.214,310.878L376.214,310.878z"/>
			<path style="fill-rule:evenodd;clip-rule:evenodd;fill:#FEFEFE;" d="M291.412,310.878c-2.891,0.964-5.782,1.156-8.48,0.385
				c0.193-33.921-7.709-74.588-30.452-102.534c-1.156-1.735-2.506-3.276-2.698-5.011c2.12,0.193,3.662,2.12,5.204,3.469
				c6.553,7.324,13.491,19.081,17.731,28.139C282.546,256.912,289.677,284.859,291.412,310.878L291.412,310.878z"/>
			<path style="fill-rule:evenodd;clip-rule:evenodd;fill:#FEFEFE;" d="M472.387,195.816c-0.193,0-0.578,0-0.771,0l-4.818-0.578
				l8.673,12.142c1.349-3.662,6.553-6.167,10.215-6.938c4.047-0.964,8.48-0.385,11.949,2.12c6.36,4.626,7.709,13.684,4.626,20.622
				c-2.698,6.167-9.829,9.444-16.19,7.324c-3.662-1.156-6.167-6.36-6.553-9.829c-0.193-3.084,0.578-6.553,1.927-8.48
				c3.084-4.433,11.564-5.396,13.877,0.385c0.578,1.156,0.771,2.698,0.771,4.047c0,8.48-10.215,8.866-9.058,2.506
				c0.385-2.506,3.276-1.735,2.505-4.818c0-0.193-4.047,0.964-4.626,4.433c-0.385,1.735-0.385,3.084,0.578,4.818
				c0.578,0.771,1.156,1.349,1.735,1.927c1.735,1.156,4.626,0.964,6.938,0c3.855-1.542,5.589-4.626,5.975-8.48
				c2.12-15.419-19.273-18.31-24.477-4.818c-0.964,2.698-0.964,9.829-0.385,12.72c2.12,14.455,16.19,20.044,26.983,12.142
				c3.469-2.698,5.782-5.782,7.324-6.167c0.385,2.891,5.011,22.935,3.084,32.186c-0.385,2.12-1.349,4.433-3.662,4.626
				c-2.506,0.385-3.276,0.385-4.047-1.927c-0.578-2.506-8.288-1.927-4.047,4.433c-2.313,0.578-4.433,0.771-6.938,1.349
				c-0.578,0.193-1.156-0.578-1.735-0.964c-4.24-3.276-4.433-7.517-9.637-11.757c-6.746-5.396-13.684-1.735-19.081-4.433
				c-1.927-0.964-5.204-4.24-6.746-4.433c0.193,3.276,3.469,5.589,6.167,6.36v2.313c0,1.735-1.542,4.626-2.698,2.891
				c-0.771-1.349-3.084-4.24-5.204-7.131c-11.949-15.997-20.622-34.306-25.248-53.772l0,0c8.48-4.626,19.851-10.215,32.765-10.215
				h4.24c2.313,0,8.673-0.193,8.673,1.927C475.471,193.889,474.122,195.431,472.387,195.816L472.387,195.816z"/>
			<path style="fill-rule:evenodd;clip-rule:evenodd;fill:#FEFEFE;" d="M193.889,195.045c0.193,0,0.578,0,0.771,0l4.818-0.578
				l-8.673,12.142c-1.349-3.662-6.553-6.167-10.215-6.938c-4.047-0.771-8.48-0.385-11.949,2.12
				c-6.36,4.626-7.709,13.684-4.626,20.622c2.698,6.167,9.829,9.444,16.19,7.517c3.662-1.349,6.167-6.553,6.553-10.022
				c0.193-3.084-0.578-6.553-1.927-8.48c-3.084-4.24-11.564-5.397-13.877,0.385c-0.578,1.349-0.771,2.698-0.771,4.047
				c0,8.673,10.215,8.866,9.058,2.506c-0.385-2.506-3.276-1.735-2.506-4.818c0,0,4.047,0.964,4.626,4.433
				c0.193,1.927,0.385,3.276-0.578,4.818c-0.578,0.771-1.156,1.349-1.735,1.927c-1.735,1.156-4.626,0.964-7.131,0
				c-3.662-1.542-5.396-4.626-5.975-8.48c-2.12-15.419,19.466-18.31,24.67-4.818c0.964,2.698,0.771,9.829,0.385,12.913
				c-2.12,14.262-16.19,19.851-26.983,11.949c-3.469-2.698-5.782-5.782-7.324-6.167c-0.578,3.084-5.011,23.128-3.084,32.186
				c0.385,2.12,1.156,4.433,3.662,4.626c2.506,0.385,3.276,0.578,4.047-1.927c0.578-2.506,8.288-1.735,4.047,4.433
				c2.313,0.578,4.433,0.771,6.746,1.349c0.771,0.193,1.349-0.578,1.735-0.964c4.433-3.276,4.626-7.324,9.829-11.757
				c6.746-5.204,13.491-1.735,19.081-4.433c1.927-0.964,5.011-4.24,6.746-4.24c-0.193,3.084-3.469,5.589-6.167,6.167v2.313
				c0,1.735,1.542,4.626,2.698,2.891c0.771-1.349,3.084-4.24,5.204-7.131c11.757-15.997,20.622-34.306,25.055-53.772
				c0.193,0,0.193,0,0.193,0c-8.48-4.433-19.851-10.215-32.765-10.215h-4.24c-2.506,0-8.673-0.193-8.673,1.927
				C190.805,193.118,192.154,194.853,193.889,195.045L193.889,195.045z"/>
			<path style="fill-rule:evenodd;clip-rule:evenodd;fill:#FEFEFE;" d="M338.631,446.947c-1.927,0-3.469,1.542-3.469,3.276
				s1.542,3.276,3.469,3.276c1.735,0,3.276-1.542,3.276-3.276S340.366,446.947,338.631,446.947z M338.631,447.91
				c1.156,0,2.313,0.964,2.313,2.313c0,1.349-1.156,2.313-2.313,2.313c-1.349,0-2.505-0.964-2.505-2.313
				C336.126,448.874,337.282,447.91,338.631,447.91L338.631,447.91z"/>
			<path style="fill-rule:evenodd;clip-rule:evenodd;fill:#FEFEFE;" d="M346.533,449.838c-1.735,0-3.276,1.349-3.276,3.276
				c0,1.735,1.542,3.276,3.276,3.276c1.927,0,3.469-1.542,3.469-3.276C350.002,451.187,348.46,449.838,346.533,449.838z
				 M346.533,450.801c1.349,0,2.505,0.964,2.505,2.313c0,1.156-1.156,2.313-2.505,2.313c-1.156,0-2.313-1.156-2.313-2.313
				C344.22,451.765,345.377,450.801,346.533,450.801L346.533,450.801z"/>
			<path style="fill-rule:evenodd;clip-rule:evenodd;fill:#FEFEFE;" d="M343.064,457.547c-1.927,0-3.276,1.542-3.276,3.276
				c0,1.927,1.349,3.276,3.276,3.276c1.735,0,3.276-1.349,3.276-3.276C346.34,459.089,344.799,457.547,343.064,457.547z
				 M343.064,458.511c1.156,0,2.313,0.964,2.313,2.313c0,1.349-1.156,2.313-2.313,2.313c-1.349,0-2.313-0.964-2.313-2.313
				C340.751,459.474,341.715,458.511,343.064,458.511L343.064,458.511z"/>
			<path style="fill-rule:evenodd;clip-rule:evenodd;fill:#FEFEFE;" d="M333.427,453.5c-1.735,0-3.276,1.542-3.276,3.469
				c0,1.735,1.542,3.276,3.276,3.276c1.735,0,3.276-1.542,3.276-3.276C336.704,455.042,335.162,453.5,333.427,453.5z
				 M333.427,454.463c1.349,0,2.313,1.156,2.313,2.505c0,1.156-0.964,2.313-2.313,2.313c-1.349,0-2.313-1.156-2.313-2.313
				C331.114,455.62,332.078,454.463,333.427,454.463L333.427,454.463z"/>
			<path style="fill-rule:evenodd;clip-rule:evenodd;fill:#FEFEFE;" d="M328.416,446.947c-1.735,0-3.276,1.542-3.276,3.276
				s1.542,3.276,3.276,3.276c1.927,0,3.276-1.542,3.276-3.276S330.344,446.947,328.416,446.947z M328.416,447.91
				c1.349,0,2.313,0.964,2.313,2.313c0,1.349-0.964,2.313-2.313,2.313c-1.156,0-2.313-0.964-2.313-2.313
				C326.103,448.874,327.26,447.91,328.416,447.91L328.416,447.91z"/>
			<path style="fill-rule:evenodd;clip-rule:evenodd;fill:#FEFEFE;" d="M320.9,450.223c-1.735,0-3.276,1.542-3.276,3.276
				c0,1.927,1.542,3.276,3.276,3.276c1.927,0,3.276-1.349,3.276-3.276C324.176,451.765,322.827,450.223,320.9,450.223z
				 M320.9,451.187c1.349,0,2.313,1.156,2.313,2.313c0,1.349-0.964,2.313-2.313,2.313c-1.156,0-2.313-0.964-2.313-2.313
				C318.587,452.343,319.743,451.187,320.9,451.187L320.9,451.187z"/>
			<path style="fill-rule:evenodd;clip-rule:evenodd;fill:#FEFEFE;" d="M325.333,457.547c-1.927,0-3.469,1.542-3.469,3.469
				c0,1.735,1.542,3.276,3.469,3.276c1.735,0,3.276-1.542,3.276-3.276C328.609,459.089,327.067,457.547,325.333,457.547z
				 M325.333,458.703c1.156,0,2.313,0.964,2.313,2.313c0,1.156-1.156,2.313-2.313,2.313c-1.349,0-2.313-1.156-2.313-2.313
				C323.02,459.667,323.983,458.703,325.333,458.703L325.333,458.703z"/>
			<path style="fill-rule:evenodd;clip-rule:evenodd;fill:#FEFEFE;" d="M333.62,462.173c-1.735,0-3.276,1.542-3.276,3.276
				c0,1.927,1.542,3.276,3.276,3.276c1.927,0,3.469-1.349,3.469-3.276C337.089,463.714,335.547,462.173,333.62,462.173z
				 M333.62,463.136c1.349,0,2.313,1.156,2.313,2.313c0,1.349-0.964,2.313-2.313,2.313c-1.156,0-2.313-0.964-2.313-2.313
				C331.307,464.293,332.464,463.136,333.62,463.136L333.62,463.136z"/>
			<path style="fill-rule:evenodd;clip-rule:evenodd;fill:#FEFEFE;" d="M340.751,466.798c-1.927,0-3.469,1.542-3.469,3.469
				c0,1.735,1.542,3.276,3.469,3.276c1.735,0,3.276-1.542,3.276-3.276C344.028,468.34,342.486,466.798,340.751,466.798z
				 M340.751,467.762c1.156,0,2.313,1.156,2.313,2.505c0,1.156-1.156,2.313-2.313,2.313c-1.349,0-2.313-1.156-2.313-2.313
				C338.438,468.918,339.402,467.762,340.751,467.762L340.751,467.762z"/>
			<path style="fill-rule:evenodd;clip-rule:evenodd;fill:#FEFEFE;" d="M333.62,471.424c-1.735,0-3.276,1.349-3.276,3.276
				c0,1.735,1.542,3.276,3.276,3.276c1.927,0,3.469-1.542,3.469-3.276C337.089,472.773,335.547,471.424,333.62,471.424z
				 M333.62,472.387c1.349,0,2.313,0.964,2.313,2.313c0,1.156-0.964,2.313-2.313,2.313c-1.156,0-2.313-1.156-2.313-2.313
				C331.307,473.351,332.464,472.387,333.62,472.387L333.62,472.387z"/>
			<path style="fill-rule:evenodd;clip-rule:evenodd;fill:#FEFEFE;" d="M327.26,466.798c-1.927,0-3.276,1.542-3.276,3.469
				c0,1.735,1.349,3.276,3.276,3.276c1.735,0,3.276-1.542,3.276-3.276C330.536,468.34,328.994,466.798,327.26,466.798z
				 M327.26,467.762c1.156,0,2.313,1.156,2.313,2.505c0,1.156-1.156,2.313-2.313,2.313c-1.349,0-2.313-1.156-2.313-2.313
				C324.947,468.918,325.911,467.762,327.26,467.762L327.26,467.762z"/>
			<path style="fill-rule:evenodd;clip-rule:evenodd;fill:#FEFEFE;" d="M334.198,479.519c-1.927,0-3.276,1.349-3.276,3.276
				c0,1.735,1.349,3.276,3.276,3.276c1.735,0,3.276-1.542,3.276-3.276C337.475,480.868,335.933,479.519,334.198,479.519z
				 M334.198,480.482c1.349,0,2.313,0.964,2.313,2.313c0,1.349-0.964,2.313-2.313,2.313c-1.349,0-2.313-0.964-2.313-2.313
				C331.885,481.446,332.849,480.482,334.198,480.482L334.198,480.482z"/>
			<path style="fill-rule:evenodd;clip-rule:evenodd;fill:#252422;" d="M307.408,547.553c1.349-0.193,2.506-0.578,3.469-0.964
				c0.964-0.193,1.927-0.578,2.891-0.964l0.193,0.193c0,0.193,0,0.578,0,0.964c-0.193,0.385-0.193,0.578-0.193,0.964
				s0,0.771,0,0.964c0,0.385,0,0.578,0,0.964v9.444c0,0.385,0,0.578,0,0.771c0.193,0.385,0.193,0.578,0.578,0.578
				c0.193,0.193,0.385,0.385,0.964,0.385c0.385,0.193,0.964,0.193,1.735,0.193v0.578c-0.385,0-0.964,0-1.735,0
				c-0.578,0-1.542,0-2.698,0c-1.156,0-2.12,0-2.891,0c-0.771,0-1.349,0-1.735,0v-0.578c0.771,0,1.542,0,1.927-0.193
				c0.578,0,0.964-0.193,1.156-0.385s0.385-0.385,0.385-0.771c0.193-0.385,0.193-0.964,0.193-1.349v-10.6l-4.047,0.578
				L307.408,547.553z"/>
			<path style="fill-rule:evenodd;clip-rule:evenodd;fill:#252422;" d="M326.103,551.215c0.964-0.385,1.542-0.964,1.927-1.542
				c0.385-0.578,0.578-1.349,0.578-2.313c0-0.578,0-0.964-0.193-1.349c-0.193-0.578-0.385-0.964-0.771-1.156
				s-0.578-0.578-0.964-0.578c-0.385-0.193-0.771-0.193-1.156-0.193c-0.578,0-0.964,0-1.349,0.193
				c-0.385,0.193-0.771,0.385-0.964,0.578c-0.193,0.385-0.578,0.771-0.578,0.964c-0.193,0.385-0.193,0.771-0.193,1.349
				c0,0.578,0,0.964,0.193,1.349c0.193,0.385,0.385,0.771,0.771,1.156c0.193,0.385,0.578,0.578,1.156,0.771
				C324.947,550.83,325.525,551.022,326.103,551.215L326.103,551.215z M324.562,552.95c-0.964,0.578-1.542,1.156-1.927,1.927
				c-0.385,0.578-0.578,1.349-0.578,2.12c0,0.578,0,1.156,0.193,1.542c0.193,0.578,0.385,0.964,0.771,1.349s0.771,0.578,1.156,0.771
				c0.578,0.193,1.156,0.385,1.735,0.385s0.964,0,1.349-0.193s0.771-0.578,0.964-0.771c0.385-0.385,0.578-0.771,0.578-1.156
				c0.193-0.385,0.385-0.771,0.385-1.156c0-0.578-0.193-1.156-0.385-1.735c-0.385-0.385-0.578-0.771-1.156-1.156
				c-0.385-0.385-0.771-0.771-1.349-0.964C325.718,553.528,325.14,553.335,324.562,552.95L324.562,552.95z M323.405,552.564
				c-0.964-0.578-1.735-1.156-2.505-1.927c-0.578-0.771-0.771-1.542-0.771-2.506c0-0.771,0-1.542,0.385-2.12
				c0.385-0.578,0.771-1.156,1.349-1.542c0.578-0.578,1.156-0.771,1.735-1.156c0.771-0.193,1.542-0.385,2.313-0.385
				c0.964,0,1.542,0.193,2.313,0.385c0.578,0.385,1.156,0.578,1.542,0.964c0.385,0.385,0.771,0.964,0.964,1.349
				c0.193,0.578,0.385,0.964,0.385,1.542c0,0.385,0,0.578-0.193,0.964c0,0.193-0.193,0.578-0.578,0.964
				c-0.193,0.385-0.578,0.771-1.156,1.349c-0.385,0.385-1.156,0.771-1.927,1.349c1.349,0.578,2.313,1.156,3.084,1.927
				c0.771,0.964,1.156,1.927,1.156,3.084c0,0.771-0.193,1.542-0.578,2.12c-0.385,0.771-0.771,1.156-1.349,1.735
				c-0.578,0.385-1.349,0.771-2.12,0.964c-0.771,0.385-1.542,0.385-2.313,0.385c-0.771,0-1.542,0-2.12-0.193
				c-0.771-0.193-1.349-0.385-1.927-0.771c-0.385-0.385-0.771-0.964-1.156-1.349c-0.193-0.578-0.385-1.349-0.385-1.927
				c0-0.385,0-0.578,0-0.964c0.193-0.385,0.193-0.771,0.578-1.349c0.193-0.385,0.578-0.771,1.156-1.349
				S322.634,553.142,323.405,552.564L323.405,552.564z"/>
			<path style="fill-rule:evenodd;clip-rule:evenodd;fill:#252422;" d="M335.355,553.335c0,0.193,0,0.385,0,0.578s0,0.385,0,0.771
				c0,0.578,0,1.156,0.193,1.927c0,0.771,0.193,1.542,0.578,2.12c0.193,0.578,0.771,1.156,1.156,1.735
				c0.578,0.385,1.156,0.578,1.927,0.578c0.578,0,0.964,0,1.349-0.385c0.385-0.193,0.771-0.385,0.964-0.771
				c0.385-0.385,0.578-0.771,0.578-1.349c0.193-0.578,0.193-0.964,0.193-1.542c0-0.771,0-1.349-0.193-1.735
				c-0.193-0.578-0.385-0.964-0.771-1.349c-0.193-0.385-0.578-0.771-1.156-0.964c-0.385-0.193-0.964-0.193-1.735-0.193
				c-0.385,0-0.964,0-1.542,0.193C336.318,552.95,335.74,553.142,335.355,553.335L335.355,553.335z M343.835,543.891
				c-1.349,0.385-2.506,0.771-3.469,1.349c-0.964,0.578-1.735,1.156-2.313,1.927c-0.771,0.578-1.349,1.542-1.735,2.313
				c-0.385,0.964-0.771,1.927-0.771,2.891c0.578-0.385,1.349-0.771,1.927-0.964c0.771-0.193,1.542-0.385,2.12-0.385
				c0.771,0,1.349,0.193,2.12,0.385c0.578,0.193,1.156,0.578,1.542,0.964c0.578,0.385,0.964,0.964,1.156,1.542
				c0.193,0.578,0.385,1.349,0.385,2.12s-0.193,1.542-0.385,2.313c-0.385,0.771-0.771,1.349-1.349,1.927
				c-0.578,0.578-1.156,0.964-1.927,1.349c-0.771,0.385-1.542,0.385-2.505,0.385s-1.735-0.193-2.505-0.578
				c-0.771-0.193-1.349-0.771-1.927-1.349c-0.385-0.771-0.771-1.349-0.964-2.313c-0.385-0.771-0.385-1.735-0.385-2.505
				c0-1.735,0.193-3.084,0.771-4.433c0.385-1.349,1.156-2.698,2.12-3.662c0.964-0.964,1.927-1.927,3.276-2.698
				c1.349-0.578,2.891-1.156,4.626-1.349L343.835,543.891L343.835,543.891z"/>
			<path style="fill-rule:evenodd;clip-rule:evenodd;fill:#252422;" d="M348.075,553.142c0.578-0.193,1.349-0.385,1.927-0.578
				s1.156-0.193,1.735-0.193c0.964,0,1.735,0,2.313,0.385c0.771,0.193,1.349,0.578,1.927,0.964c0.578,0.578,0.964,0.964,1.156,1.735
				c0.385,0.578,0.578,1.349,0.578,2.12c0,1.156-0.193,2.12-0.771,2.891c-0.385,0.964-1.156,1.735-1.927,2.313
				c-0.771,0.578-1.735,0.964-2.698,1.349c-0.964,0.193-2.12,0.385-3.084,0.385c-0.385,0-0.771,0-1.156,0
				c-0.385,0-0.578-0.193-0.964-0.193c-0.385-0.193-0.578-0.385-0.964-0.578c-0.193-0.193-0.193-0.578-0.193-0.771s0-0.385,0-0.578
				c0.193-0.193,0.193-0.193,0.385-0.385c0.193-0.193,0.193-0.193,0.385-0.385c0.193,0,0.385,0,0.578-0.193l0,0
				c0.193,0.385,0.578,0.578,0.771,0.771c0.385,0.193,0.578,0.385,0.964,0.578c0.385,0,0.771,0.193,1.156,0.193
				c0.193,0.193,0.578,0.193,0.964,0.193c0.578,0,1.156-0.193,1.735-0.385c0.578-0.193,0.964-0.578,1.349-0.964
				c0.193-0.385,0.578-0.964,0.771-1.542c0.193-0.578,0.193-1.156,0.193-1.735c0-0.578-0.193-1.349-0.385-1.927
				c-0.193-0.578-0.578-0.964-0.964-1.542c-0.385-0.385-0.964-0.578-1.542-0.771c-0.771-0.385-1.349-0.385-2.12-0.385
				c-0.578,0-1.156,0-1.735,0.193c-0.578,0-0.964,0.193-1.349,0.385l-0.385-0.193c0.193-1.349,0.385-2.698,0.771-4.047
				c0.193-1.542,0.578-2.891,0.964-4.433c0.578,0,1.156,0,1.735,0s1.156,0,1.927,0c0.385,0,0.771,0,1.156,0c0.385,0,0.771,0,1.349,0
				c0.385,0,0.771,0,1.156,0c0.385,0,0.771,0,1.156,0l-0.385,2.313l-7.324-0.193c-0.385,0.964-0.578,1.735-0.771,2.698
				C348.46,551.408,348.268,552.179,348.075,553.142L348.075,553.142z"/>
		</g>
		<path style="fill-rule:evenodd;clip-rule:evenodd;fill:#FEFEFE;" d="M105.81,164.979l-22.935-17.924l-6.36,8.095l-4.626-3.662
			l16.96-21.779l4.818,3.662l-6.36,8.095l22.742,17.924L105.81,164.979z M94.053,123.734l4.818-5.204l13.877,13.106
			c2.12,2.12,3.662,3.276,4.433,3.855c1.156,0.771,2.506,0.964,4.047,0.771c1.349-0.193,2.698-0.964,4.047-2.506
			c1.349-1.349,2.12-2.698,2.12-4.047c0.193-1.349-0.193-2.313-0.964-3.469c-0.578-0.964-1.927-2.313-4.047-4.24l-14.069-13.299
			l4.818-5.204l13.491,12.72c3.084,2.891,5.011,5.011,5.975,6.553c1.156,1.349,1.735,2.891,1.735,4.433
			c0.193,1.735,0,3.276-0.578,5.011c-0.771,1.735-2.12,3.662-3.855,5.589c-2.313,2.506-4.433,4.047-6.167,4.818
			c-1.735,0.578-3.276,0.964-5.011,0.771c-1.542,0-2.891-0.385-4.047-1.156c-1.927-0.964-4.24-2.891-6.938-5.589L94.053,123.734
			L94.053,123.734z M95.981,117.181l-4.24-4.047l4.047-4.24l4.24,4.047L95.981,117.181z M103.112,109.665l-4.24-4.047l4.047-4.24
			l4.24,4.047L103.112,109.665z M143.971,122.385l-21.586-27.561l11.757-9.251c3.084-2.313,5.397-3.662,7.131-4.24
			c1.735-0.578,3.469-0.578,5.204,0.193c1.735,0.578,3.276,1.735,4.626,3.276c1.542,2.12,2.313,4.24,2.12,6.553
			c0,2.313-1.156,4.626-3.276,6.938c1.735-0.385,3.276-0.385,4.626,0c1.542,0.193,3.662,0.771,6.746,1.927l7.517,2.698l-6.553,5.204
			l-8.866-2.891c-3.084-0.964-5.011-1.542-5.975-1.735c-0.964-0.193-1.927,0-2.698,0.193c-0.771,0.193-1.735,0.964-2.891,1.927
			l-1.156,0.964l8.866,11.371L143.971,122.385L143.971,122.385z M137.226,102.148l4.047-3.276c2.698-2.12,4.24-3.469,4.818-4.24
			c0.385-0.771,0.578-1.542,0.578-2.313c0-0.964-0.385-1.735-0.964-2.698c-0.771-0.771-1.542-1.349-2.506-1.542
			c-0.964-0.193-1.927,0-3.084,0.578c-0.385,0.193-1.735,1.349-4.047,3.084l-4.433,3.276
			C131.636,95.017,137.226,102.148,137.226,102.148z M172.303,100.992l-19.081-29.488l5.975-3.855l8.48,13.106l3.469-20.815
			l7.902-5.204l-3.662,18.695l23.321,10.408l-7.709,4.818l-16.96-8.48l-1.542,8.095l5.782,8.866L172.303,100.992L172.303,100.992z
			 M202.176,83.068l-16.382-31.03l6.36-3.276l16.382,30.837C208.537,79.599,202.176,83.068,202.176,83.068z M184.638,49.147
			l-3.084-5.589l5.975-3.084l2.891,5.589L184.638,49.147z M222.992,73.046l-5.396-13.491l-19.659-14.069l7.709-3.084l12.913,9.637
			l2.313-15.804l7.517-3.084l-4.24,23.706l5.397,13.684L222.992,73.046z M244.963,64.951l-9.637-33.535l24.863-7.131l1.542,5.589
			l-17.924,5.204l2.12,7.517l16.768-4.818l1.735,5.589l-16.96,4.818l2.698,9.251l18.695-5.397l1.735,5.589L244.963,64.951z
			 M311.263,39.51l6.938,1.542c-0.771,3.855-2.12,6.938-4.433,8.866c-2.313,2.12-5.397,3.276-9.058,3.662
			c-4.818,0.193-8.673-0.964-11.949-4.047c-3.084-2.891-5.011-7.131-5.397-12.528c-0.385-5.782,0.771-10.6,3.469-13.877
			c2.698-3.469,6.553-5.397,11.564-5.782c4.24-0.385,7.709,0.578,10.6,2.891c1.735,1.542,3.084,3.469,4.047,6.36l-6.746,2.12
			c-0.578-1.735-1.542-3.084-2.891-4.047c-1.542-0.964-3.084-1.349-5.011-1.349c-2.506,0.193-4.626,1.349-6.167,3.276
			c-1.349,2.12-1.927,5.204-1.735,9.251c0.385,4.433,1.542,7.517,3.276,9.251c1.735,1.735,3.855,2.506,6.36,2.313
			c1.927-0.193,3.469-0.771,4.626-2.12C310.107,43.943,310.878,42.016,311.263,39.51z M325.718,16.768h7.131l-0.385,19.081
			c0,2.891,0,4.818,0.193,5.782c0.385,1.349,0.964,2.698,2.12,3.469c1.156,0.964,2.698,1.349,4.626,1.349
			c1.927,0,3.469-0.385,4.433-1.156c1.156-0.771,1.735-1.735,1.927-2.891c0.193-1.349,0.385-3.276,0.385-5.975l0.385-19.466
			l6.938,0.193l-0.193,18.31c0,4.24-0.385,7.324-0.771,9.058c-0.385,1.735-1.156,3.084-2.12,4.24
			c-0.964,1.156-2.505,2.12-4.24,2.891c-1.735,0.578-3.855,0.964-6.746,0.964c-3.276-0.193-5.782-0.578-7.517-1.349
			c-1.735-0.771-3.084-1.735-4.047-3.084c-0.964-1.156-1.542-2.506-1.927-3.855c-0.385-2.12-0.578-5.011-0.385-8.866L325.718,16.768
			L325.718,16.768z M360.41,52.809l5.782-34.499l10.6,1.735l2.12,24.67l10.022-22.55l10.6,1.735l-5.782,34.499l-6.553-0.964
			l4.626-27.368l-11.371,26.212l-6.746-1.156l-2.313-28.332l-4.626,27.175L360.41,52.809L360.41,52.809z M400.884,59.362
			l11.757-32.957l6.746,2.313l-4.626,13.106l12.913,4.626l4.626-12.913l6.746,2.313l-11.949,32.957l-6.553-2.313l5.204-14.455
			l-13.106-4.626l-5.204,14.262C407.437,61.674,400.884,59.362,400.884,59.362z M448.874,39.317l6.36,2.891l-7.902,17.346
			c-1.349,2.698-1.927,4.433-2.313,5.397c-0.193,1.349,0,2.698,0.578,4.047c0.578,1.156,1.927,2.313,3.662,3.084
			c1.735,0.771,3.276,1.156,4.626,0.771c1.156-0.385,2.12-0.964,2.891-2.12c0.771-0.964,1.542-2.698,2.698-5.204l8.095-17.539
			l6.553,2.891l-7.709,16.768c-1.735,3.855-3.276,6.36-4.24,7.902c-1.156,1.349-2.313,2.313-3.855,3.084
			c-1.349,0.578-3.084,0.964-4.818,0.771c-1.927,0-4.047-0.578-6.553-1.735c-3.084-1.349-5.204-2.891-6.36-4.24
			c-1.349-1.349-2.12-2.891-2.506-4.433c-0.385-1.542-0.385-2.891-0.193-4.433c0.385-1.927,1.542-4.818,3.084-8.288
			C440.972,56.278,448.874,39.317,448.874,39.317z M466.027,86.151l18.695-29.488l12.72,7.902c3.084,1.927,5.204,3.662,6.36,5.204
			c1.156,1.349,1.735,3.084,1.735,5.011c0,1.735-0.578,3.662-1.735,5.397c-1.349,2.313-3.276,3.662-5.397,4.24
			c-2.313,0.578-4.818,0.385-7.517-0.964c0.771,1.542,1.349,3.084,1.542,4.626c0.193,1.349,0.385,3.662,0.385,6.938v7.902
			l-7.131-4.433l-0.193-9.251c-0.193-3.084-0.385-5.204-0.578-6.167c-0.193-0.964-0.385-1.735-0.964-2.506
			c-0.578-0.578-1.349-1.349-2.891-2.12l-1.156-0.771l-7.709,12.335L466.027,86.151L466.027,86.151z M482.988,72.853l4.24,2.891
			c2.891,1.735,4.818,2.698,5.782,2.891c0.771,0.193,1.542,0.193,2.313-0.193c0.771-0.193,1.542-0.964,2.12-1.735
			c0.578-0.964,0.771-1.927,0.771-2.891c-0.193-0.964-0.771-1.927-1.542-2.698c-0.578-0.385-1.927-1.349-4.433-2.891l-4.626-2.891
			L482.988,72.853L482.988,72.853z M495.515,105.232l21.586-27.561l5.589,4.433l-21.586,27.561L495.515,105.232z M519.414,75.358
			l3.855-5.011l5.204,4.047l-3.855,5.011C524.618,79.406,519.414,75.358,519.414,75.358z M513.439,119.687l9.829-10.986
			l3.662-23.706l6.36,5.397l-3.084,15.997l15.226-5.204l6.167,5.397l-23.128,6.746l-9.637,11.178L513.439,119.687z M530.978,135.298
			l26.597-22.742l16.96,19.659l-4.626,3.855l-12.142-14.262l-5.975,5.011l11.371,13.299l-4.433,3.855l-11.371-13.299l-7.131,6.167
			l12.72,14.84l-4.626,3.855C548.324,155.535,530.978,135.298,530.978,135.298z M556.612,166.521l23.899-16.575l-5.975-8.48
			l4.818-3.469l15.997,22.742l-4.818,3.469l-5.975-8.48l-23.706,16.768L556.612,166.521L556.612,166.521z M568.946,184.638
			l30.452-17.153l3.469,6.167l-30.452,17.153L568.946,184.638z M602.482,166.135l5.397-3.084l3.276,5.589l-5.589,3.276
			L602.482,166.135z"/>
	</g>
</g>
</svg>
