<?xml version="1.0" encoding="iso-8859-1"?>
<!-- Generator: Adobe Illustrator 29.7.1, SVG Export Plug-In . SVG Version: 9.03 Build 0)  -->
<svg version="1.1" id="Layer_1" xmlns="http://www.w3.org/2000/svg" xmlns:xlink="http://www.w3.org/1999/xlink" x="0px" y="0px"
	 viewBox="0 0 350 350" style="enable-background:new 0 0 350 350;" xml:space="preserve">
<g>
	<path d="M153.409,164.803c0,0.511,0.035,0.931,0.106,1.261c0.071,0.331,0.212,0.589,0.425,0.777
		c0.212,0.188,0.511,0.319,0.896,0.394c0.386,0.075,0.901,0.113,1.546,0.113h1.723c0.913,0,1.656-0.071,2.231-0.214
		c0.574-0.143,1.058-0.383,1.452-0.721c0.393-0.337,0.744-0.784,1.051-1.339c0.307-0.555,0.641-1.239,1.003-2.049l0.921,0.203
		c-0.126,0.436-0.244,0.9-0.355,1.396c-0.11,0.495-0.212,0.983-0.307,1.463c-0.095,0.48-0.173,0.931-0.236,1.351
		c-0.062,0.42-0.102,0.766-0.118,1.036c-3.132,0-5.669-0.007-7.613-0.022c-1.944-0.015-3.396-0.022-4.355-0.022
		c-0.283,0-0.618,0.004-1.003,0.011c-0.386,0.008-0.783,0.011-1.192,0.011c-0.41,0-0.807,0.004-1.192,0.011
		c-0.386,0.008-0.712,0.011-0.979,0.011l-0.071-0.765c0.724-0.045,1.306-0.116,1.747-0.214c0.44-0.098,0.779-0.248,1.015-0.45
		c0.236-0.203,0.394-0.48,0.472-0.833c0.079-0.352,0.118-0.814,0.118-1.384v-15.152c0-0.36-0.036-0.66-0.106-0.9
		c-0.071-0.24-0.212-0.439-0.425-0.597c-0.212-0.158-0.519-0.274-0.92-0.349c-0.401-0.075-0.941-0.127-1.617-0.158l0.071-0.81
		c0.299,0,0.641,0.004,1.027,0.011c0.385,0.008,0.775,0.011,1.169,0.011c0.409,0,0.806,0.004,1.192,0.012
		c0.385,0.008,0.744,0.011,1.074,0.011c0.614,0,1.904-0.007,3.872-0.023c1.967-0.014,4.469-0.022,7.507-0.022
		c-0.095,0.765-0.166,1.568-0.212,2.409c-0.047,0.841-0.079,1.734-0.095,2.679l-0.944,0.022c-0.142-0.78-0.299-1.426-0.473-1.936
		c-0.173-0.51-0.417-0.919-0.731-1.227c-0.315-0.308-0.724-0.525-1.228-0.653c-0.504-0.127-1.157-0.191-1.959-0.191h-3.376
		c-0.472,0-0.775,0.045-0.909,0.135c-0.134,0.09-0.2,0.323-0.2,0.698v7.79l7.979-0.225l0.165,0.157l-0.047,1.869
		c-1.432-0.12-2.845-0.203-4.237-0.247c-1.393-0.045-2.679-0.083-3.859-0.112V164.803z"/>
	<path d="M172.285,165.614c0,0.36,0.016,0.665,0.047,0.912c0.031,0.248,0.142,0.455,0.331,0.62c0.189,0.165,0.484,0.289,0.885,0.372
		c0.401,0.083,0.972,0.131,1.712,0.146v0.811c-0.756,0-1.527-0.007-2.313-0.022c-0.787-0.015-1.558-0.022-2.314-0.022
		c-0.299,0-0.63,0.004-0.991,0.011c-0.363,0.008-0.724,0.011-1.086,0.011c-0.347,0-0.677,0.004-0.992,0.011
		c-0.314,0.008-0.582,0.011-0.802,0.011l-0.047-0.766c0.614-0.045,1.105-0.116,1.475-0.213c0.37-0.098,0.657-0.248,0.862-0.451
		c0.205-0.203,0.342-0.48,0.413-0.833c0.071-0.352,0.106-0.814,0.106-1.384v-15.152c0-0.36-0.032-0.66-0.095-0.9
		c-0.063-0.24-0.193-0.439-0.39-0.597c-0.197-0.158-0.492-0.274-0.885-0.349c-0.394-0.075-0.921-0.127-1.582-0.158l0.047-0.81
		c0.252,0,0.546,0.004,0.885,0.011c0.338,0.008,0.704,0.011,1.098,0.011c0.393,0,0.794,0.004,1.204,0.012
		c0.409,0.007,0.803,0.011,1.18,0.011c0.629,0,1.263-0.041,1.9-0.124c0.637-0.082,1.287-0.124,1.947-0.124
		c0.945,0,1.889,0.075,2.833,0.225c0.944,0.15,1.798,0.421,2.562,0.811c0.763,0.39,1.381,0.919,1.852,1.587
		c0.473,0.668,0.708,1.52,0.708,2.556c0,0.691-0.114,1.343-0.342,1.958c-0.229,0.616-0.547,1.175-0.956,1.677
		c-0.409,0.503-0.894,0.946-1.452,1.329c-0.559,0.382-1.177,0.694-1.853,0.934c0.503,0.915,0.999,1.794,1.487,2.634
		c0.487,0.841,0.939,1.61,1.356,2.308c0.418,0.698,0.795,1.31,1.134,1.835c0.338,0.525,0.617,0.938,0.838,1.238
		c0.299,0.391,0.559,0.702,0.778,0.934c0.221,0.233,0.461,0.413,0.721,0.54c0.26,0.128,0.562,0.222,0.909,0.282
		c0.346,0.06,0.794,0.112,1.345,0.157l-0.047,0.811c-0.473,0-1.09-0.007-1.853-0.022c-0.765-0.015-1.499-0.022-2.208-0.022
		c-0.221,0-0.46,0.004-0.72,0.011c-0.26,0.008-0.5,0.019-0.72,0.034c-0.158-0.315-0.401-0.777-0.732-1.385
		c-0.33-0.607-0.724-1.313-1.18-2.116c-0.457-0.803-0.961-1.677-1.511-2.623c-0.552-0.946-1.126-1.906-1.724-2.882
		c-0.095-0.15-0.186-0.285-0.271-0.405c-0.087-0.12-0.197-0.222-0.331-0.304c-0.134-0.082-0.311-0.146-0.531-0.191
		c-0.221-0.045-0.512-0.067-0.874-0.067h-0.708c-0.126,0-0.28-0.003-0.46-0.011c-0.181-0.008-0.398-0.019-0.649-0.034V165.614z
		 M172.285,157.374c0.126,0.015,0.251,0.027,0.378,0.034c0.126,0.008,0.251,0.012,0.377,0.012h0.755
		c1.857,0,3.294-0.405,4.309-1.216c1.015-0.811,1.523-2.124,1.523-3.94c0-1.531-0.484-2.649-1.452-3.355
		c-0.968-0.705-2.254-1.058-3.86-1.058c-0.488,0-0.87,0.042-1.145,0.124c-0.275,0.083-0.476,0.207-0.602,0.372
		c-0.126,0.165-0.205,0.368-0.236,0.608c-0.032,0.24-0.047,0.51-0.047,0.81V157.374z"/>
	<path d="M187.597,168.113c0.33-0.405,0.755-0.945,1.274-1.621c0.52-0.676,1.094-1.438,1.724-2.286
		c0.629-0.848,1.302-1.752,2.019-2.713c0.716-0.96,1.424-1.925,2.124-2.893c0.7-0.968,1.385-1.906,2.054-2.814
		c0.669-0.908,1.27-1.734,1.806-2.477c0.535-0.743,0.991-1.374,1.37-1.891c0.377-0.518,0.637-0.874,0.778-1.07l1.699-2.341h-7.011
		c-0.929,0-1.685,0.038-2.266,0.113c-0.583,0.075-1.063,0.259-1.441,0.551c-0.378,0.293-0.677,0.732-0.897,1.317
		c-0.22,0.585-0.425,1.381-0.613,2.386l-0.896-0.045v-1.463c0-0.676-0.017-1.313-0.048-1.914c-0.032-0.6-0.079-1.298-0.142-2.094
		c1.086,0,2.16,0.004,3.223,0.011c1.062,0.008,2.049,0.011,2.962,0.011c0.944,0,1.755,0.004,2.432,0.012
		c0.677,0.008,1.173,0.011,1.487,0.011h0.803c0.361,0,0.779-0.003,1.251-0.011c0.472-0.008,0.96-0.012,1.464-0.012
		c0.519,0,1.011-0.003,1.475-0.011c0.465-0.007,0.87-0.011,1.216-0.011h0.756l0.283,0.36c-0.283,0.346-0.673,0.844-1.169,1.497
		c-0.495,0.653-1.058,1.4-1.687,2.24c-0.629,0.841-1.298,1.745-2.007,2.713c-0.708,0.968-1.42,1.944-2.136,2.927
		c-0.717,0.983-1.413,1.936-2.09,2.859c-0.677,0.923-1.29,1.76-1.841,2.51c-0.552,0.75-1.015,1.385-1.393,1.902
		c-0.378,0.518-0.63,0.859-0.756,1.024l-1.747,2.387h8.569c0.645,0,1.255-0.064,1.829-0.191c0.575-0.128,1.117-0.36,1.63-0.698
		c0.511-0.338,0.995-0.799,1.451-1.385c0.456-0.585,0.882-1.328,1.275-2.229l0.92,0.225c-0.378,1.156-0.669,2.225-0.873,3.208
		c-0.205,0.983-0.323,1.737-0.355,2.263c-1.338,0-2.612-0.003-3.824-0.011c-1.212-0.007-2.337-0.011-3.375-0.011
		c-1.008,0-1.894-0.003-2.656-0.011c-0.764-0.007-1.35-0.011-1.759-0.011h-0.873c-0.362,0-0.771,0.004-1.227,0.011
		c-0.457,0.008-0.929,0.011-1.417,0.011c-0.472,0-0.924,0.004-1.357,0.011c-0.434,0.008-0.814,0.011-1.145,0.011h-0.661
		L187.597,168.113z"/>
	<path d="M208.903,167.708c0.614-0.045,1.109-0.116,1.487-0.214c0.378-0.098,0.673-0.248,0.886-0.45
		c0.212-0.203,0.357-0.48,0.436-0.833c0.078-0.352,0.118-0.814,0.118-1.384v-15.152c0-0.36-0.032-0.66-0.095-0.9
		c-0.062-0.24-0.2-0.439-0.413-0.597c-0.212-0.158-0.516-0.274-0.909-0.349c-0.394-0.075-0.912-0.127-1.558-0.158l0.047-0.81
		c0.252,0,0.559,0.004,0.921,0.011c0.362,0.008,0.748,0.011,1.156,0.011c0.426,0,0.855,0.004,1.287,0.012
		c0.433,0.008,0.838,0.011,1.216,0.011c0.299,0,0.634-0.003,1.003-0.011c0.37-0.008,0.735-0.012,1.098-0.012
		c0.362,0,0.704-0.003,1.027-0.011c0.322-0.007,0.594-0.011,0.814-0.011l0.095,0.765c-0.614,0.045-1.114,0.117-1.5,0.214
		c-0.386,0.098-0.688,0.248-0.908,0.451c-0.221,0.203-0.37,0.48-0.448,0.832c-0.079,0.353-0.118,0.808-0.118,1.362v15.175
		c0,0.36,0.031,0.661,0.095,0.9c0.062,0.24,0.196,0.439,0.401,0.597c0.204,0.157,0.503,0.274,0.896,0.349
		c0.394,0.076,0.921,0.128,1.582,0.158v0.811c-0.252,0-0.566-0.003-0.944-0.011c-0.378-0.007-0.779-0.011-1.204-0.011
		c-0.409,0-0.826-0.003-1.251-0.011c-0.426-0.007-0.827-0.011-1.204-0.011c-0.315,0-0.653,0.004-1.016,0.011
		c-0.361,0.008-0.724,0.011-1.085,0.011c-0.362,0-0.705,0.004-1.027,0.011c-0.323,0.008-0.594,0.011-0.814,0.011L208.903,167.708z"
		/>
	<path d="M239.323,168.788c-0.409-0.555-0.819-1.092-1.229-1.609c-0.409-0.518-0.842-1.04-1.298-1.565l-12.629-14.296l-0.095,0.045
		v13.171c0,0.706,0.043,1.257,0.13,1.655c0.086,0.398,0.248,0.698,0.484,0.9c0.236,0.203,0.555,0.338,0.956,0.406
		c0.401,0.067,0.924,0.124,1.569,0.168l-0.047,0.811c-0.504,0-1.098-0.007-1.782-0.022c-0.685-0.015-1.405-0.022-2.16-0.022
		c-0.599,0-1.224,0.007-1.877,0.022c-0.653,0.015-1.255,0.022-1.806,0.022l-0.07-0.766c0.629-0.06,1.148-0.131,1.558-0.213
		c0.409-0.083,0.735-0.251,0.98-0.507c0.244-0.255,0.413-0.638,0.508-1.148c0.095-0.51,0.142-1.216,0.142-2.116v-11.28
		c0-0.63-0.008-1.14-0.023-1.531c-0.017-0.39-0.052-0.709-0.106-0.957c-0.056-0.248-0.13-0.454-0.225-0.619
		c-0.094-0.165-0.221-0.337-0.377-0.518c-0.158-0.195-0.315-0.36-0.473-0.495c-0.157-0.135-0.338-0.248-0.543-0.338
		c-0.205-0.09-0.457-0.158-0.756-0.203c-0.299-0.045-0.669-0.082-1.109-0.113l0.048-0.81c0.189,0,0.468,0.003,0.838,0.011
		c0.369,0.008,0.782,0.011,1.239,0.011c0.456,0,0.929,0.004,1.416,0.012c0.488,0.007,0.944,0.011,1.369,0.011l15.108,16.998
		l0.07-0.045v-13.035c0-0.706-0.043-1.257-0.129-1.655c-0.087-0.398-0.249-0.698-0.484-0.901c-0.236-0.203-0.559-0.338-0.968-0.405
		c-0.409-0.067-0.936-0.123-1.582-0.169l0.047-0.811c0.504,0,1.102,0.008,1.795,0.023c0.691,0.015,1.416,0.022,2.171,0.022
		c0.3,0,0.614-0.003,0.944-0.011c0.331-0.008,0.657-0.015,0.98-0.022c0.322-0.007,0.629-0.015,0.92-0.022s0.547-0.011,0.768-0.011
		l0.023,0.765c-0.613,0.06-1.117,0.135-1.511,0.225c-0.394,0.09-0.704,0.263-0.933,0.518c-0.229,0.255-0.39,0.638-0.483,1.148
		c-0.095,0.511-0.142,1.216-0.142,2.117v16.931L239.323,168.788z"/>
	<path d="M248.945,157.261c0,1.441,0.188,2.796,0.566,4.064c0.378,1.268,0.948,2.372,1.711,3.31c0.764,0.938,1.72,1.681,2.868,2.229
		c1.149,0.547,2.503,0.821,4.061,0.821c0.851,0,1.664-0.112,2.443-0.337c0.779-0.225,1.468-0.593,2.066-1.104
		c0.566-0.48,1.059-1.069,1.475-1.768c0.417-0.698,0.83-1.52,1.239-2.465l0.944,0.225c-0.267,0.991-0.48,1.921-0.638,2.792
		c-0.157,0.871-0.291,1.801-0.401,2.792c-1.243,0.346-2.475,0.616-3.694,0.811c-1.22,0.195-2.443,0.292-3.67,0.292
		c-1.779,0-3.42-0.263-4.923-0.788c-1.503-0.525-2.801-1.268-3.895-2.229c-1.094-0.96-1.947-2.12-2.561-3.479
		c-0.613-1.358-0.921-2.871-0.921-4.537c0-1.921,0.37-3.599,1.11-5.032c0.739-1.433,1.742-2.63,3.01-3.591
		c1.267-0.96,2.734-1.677,4.402-2.15c1.668-0.473,3.431-0.709,5.288-0.709c0.959,0,1.986,0.068,3.08,0.203
		c1.094,0.135,2.113,0.323,3.057,0.563c-0.094,0.961-0.153,1.873-0.177,2.735c-0.023,0.864-0.035,1.775-0.035,2.735l-0.991,0.09
		c-0.064-0.885-0.248-1.655-0.556-2.308c-0.307-0.653-0.716-1.193-1.227-1.621c-0.512-0.428-1.106-0.743-1.783-0.946
		c-0.677-0.202-1.416-0.304-2.219-0.304c-1.573,0-2.958,0.236-4.154,0.709c-1.196,0.473-2.199,1.134-3.01,1.981
		c-0.811,0.848-1.425,1.869-1.841,3.062C249.153,154.503,248.945,155.82,248.945,157.261"/>
	<path d="M282.174,160.481h-7.861l-1.817,4.435c-0.315,0.856-0.473,1.396-0.473,1.621c0,0.39,0.193,0.661,0.579,0.811
		c0.385,0.15,1.073,0.247,2.064,0.292l-0.07,0.811c-0.582,0-1.235-0.007-1.959-0.022c-0.724-0.015-1.439-0.023-2.148-0.023
		c-0.582,0-1.185,0.008-1.806,0.023c-0.622,0.015-1.224,0.022-1.806,0.022l-0.047-0.766c0.613-0.045,1.116-0.116,1.51-0.214
		c0.394-0.097,0.736-0.277,1.027-0.54c0.291-0.263,0.566-0.623,0.826-1.081c0.26-0.457,0.562-1.069,0.908-1.834l6.54-15.242
		c0.189-0.45,0.389-0.845,0.602-1.182c0.212-0.338,0.397-0.701,0.555-1.092l1.487-0.18c0.173,0.721,0.357,1.381,0.555,1.982
		c0.196,0.6,0.382,1.148,0.555,1.643l5.312,14.679c0.235,0.661,0.448,1.179,0.637,1.554c0.189,0.375,0.409,0.664,0.661,0.867
		c0.252,0.202,0.57,0.341,0.956,0.416c0.386,0.075,0.886,0.135,1.499,0.18l-0.07,0.811c-0.661,0-1.389-0.007-2.184-0.022
		c-0.795-0.015-1.594-0.023-2.397-0.023c-0.661,0-1.33,0.008-2.006,0.023c-0.678,0.015-1.346,0.022-2.007,0.022l-0.071-0.766
		c0.881-0.06,1.512-0.161,1.889-0.304c0.378-0.143,0.566-0.409,0.566-0.799c0-0.165-0.031-0.356-0.094-0.574
		c-0.063-0.217-0.142-0.461-0.236-0.731L282.174,160.481z M274.855,159.175h6.869l-3.092-8.915h-0.071L274.855,159.175z"/>
	<path d="M310.704,168.788c-0.409-0.555-0.818-1.092-1.228-1.609c-0.41-0.518-0.842-1.04-1.299-1.565l-12.629-14.296l-0.095,0.045
		v13.171c0,0.706,0.044,1.257,0.13,1.655c0.087,0.398,0.248,0.698,0.484,0.9c0.236,0.203,0.555,0.338,0.956,0.406
		c0.401,0.067,0.925,0.124,1.569,0.168l-0.047,0.811c-0.504,0-1.098-0.007-1.782-0.022c-0.685-0.015-1.404-0.022-2.16-0.022
		c-0.599,0-1.224,0.007-1.877,0.022c-0.652,0.015-1.255,0.022-1.805,0.022l-0.071-0.766c0.629-0.06,1.148-0.131,1.558-0.213
		c0.409-0.083,0.735-0.251,0.979-0.507c0.244-0.255,0.414-0.638,0.508-1.148c0.095-0.51,0.142-1.216,0.142-2.116v-11.28
		c0-0.63-0.008-1.14-0.023-1.531c-0.016-0.39-0.052-0.709-0.106-0.957c-0.055-0.248-0.13-0.454-0.225-0.619
		c-0.094-0.165-0.22-0.337-0.377-0.518c-0.158-0.195-0.315-0.36-0.473-0.495c-0.157-0.135-0.338-0.248-0.543-0.338
		c-0.204-0.09-0.456-0.158-0.755-0.203c-0.299-0.045-0.67-0.082-1.109-0.113l0.047-0.81c0.189,0,0.468,0.003,0.838,0.011
		c0.37,0.008,0.783,0.011,1.239,0.011c0.456,0,0.929,0.004,1.416,0.012c0.488,0.007,0.945,0.011,1.369,0.011l15.108,16.998
		l0.07-0.045v-13.035c0-0.706-0.043-1.257-0.129-1.655c-0.087-0.398-0.248-0.698-0.484-0.901c-0.236-0.203-0.559-0.338-0.968-0.405
		c-0.409-0.067-0.936-0.123-1.582-0.169l0.048-0.811c0.503,0,1.101,0.008,1.794,0.023c0.692,0.015,1.416,0.022,2.172,0.022
		c0.299,0,0.613-0.003,0.944-0.011c0.33-0.008,0.656-0.015,0.979-0.022c0.322-0.007,0.629-0.015,0.92-0.022
		c0.291-0.008,0.547-0.011,0.768-0.011l0.023,0.765c-0.613,0.06-1.117,0.135-1.511,0.225c-0.394,0.09-0.704,0.263-0.932,0.518
		c-0.229,0.255-0.39,0.638-0.484,1.148c-0.095,0.511-0.142,1.216-0.142,2.117v16.931L310.704,168.788z"/>
	<path d="M211.407,143.637c0-0.255,0.051-0.499,0.153-0.731c0.102-0.232,0.239-0.435,0.413-0.608
		c0.173-0.172,0.374-0.308,0.602-0.405c0.229-0.098,0.477-0.146,0.744-0.146c0.252,0,0.495,0.048,0.732,0.146
		c0.236,0.098,0.44,0.233,0.614,0.405c0.173,0.173,0.31,0.376,0.413,0.608c0.103,0.233,0.153,0.477,0.153,0.731
		c0,0.256-0.051,0.499-0.153,0.732c-0.104,0.233-0.24,0.436-0.413,0.608c-0.174,0.172-0.378,0.308-0.614,0.405
		c-0.236,0.098-0.48,0.146-0.732,0.146c-0.268,0-0.516-0.049-0.744-0.146c-0.227-0.098-0.429-0.233-0.602-0.405
		c-0.174-0.172-0.311-0.375-0.413-0.608C211.458,144.136,211.407,143.893,211.407,143.637"/>
	<path d="M148.034,179.686c0.239,0,0.523,0.003,0.853,0.011c0.329,0.007,0.673,0.01,1.032,0.01c0.374,0,0.755,0.004,1.144,0.011
		c0.389,0.008,0.77,0.011,1.144,0.011c0.598,0,1.271-0.035,2.019-0.105c0.748-0.07,1.533-0.105,2.355-0.105
		c0.942,0,1.847,0.081,2.714,0.243c0.867,0.161,1.633,0.429,2.298,0.802c0.666,0.373,1.193,0.862,1.582,1.467
		c0.389,0.605,0.583,1.351,0.583,2.237c0,0.732-0.135,1.355-0.404,1.869c-0.27,0.514-0.609,0.946-1.021,1.298
		c-0.411,0.352-0.86,0.637-1.345,0.855c-0.486,0.219-0.946,0.391-1.38,0.518v0.085c1.675,0.239,2.968,0.81,3.881,1.71
		c0.912,0.9,1.368,2.097,1.368,3.588c0,1.084-0.244,2.002-0.729,2.755c-0.486,0.753-1.129,1.369-1.929,1.848
		c-0.8,0.479-1.712,0.826-2.736,1.045c-1.024,0.218-2.075,0.327-3.151,0.327c-0.344,0-0.707-0.015-1.088-0.042
		c-0.381-0.028-0.767-0.057-1.155-0.085c-0.389-0.028-0.777-0.057-1.167-0.084c-0.389-0.028-0.748-0.043-1.076-0.043
		c-0.299,0-0.617,0.004-0.954,0.011c-0.336,0.008-0.677,0.011-1.021,0.011c-0.344,0-0.673,0.004-0.987,0.011
		c-0.314,0.007-0.591,0.011-0.83,0.011l-0.067-0.718c0.628-0.042,1.136-0.106,1.525-0.19c0.389-0.084,0.688-0.225,0.897-0.422
		c0.209-0.197,0.348-0.461,0.416-0.792c0.067-0.33,0.101-0.763,0.101-1.298v-14.207c0-0.338-0.03-0.619-0.09-0.845
		c-0.06-0.225-0.19-0.411-0.393-0.56c-0.202-0.147-0.497-0.256-0.886-0.327c-0.389-0.07-0.905-0.119-1.548-0.148L148.034,179.686z
		 M153.507,188.572h1.861c1.854,0,3.211-0.334,4.071-1.002c0.86-0.669,1.29-1.657,1.29-2.967c0-0.478-0.071-0.953-0.213-1.424
		c-0.143-0.472-0.396-0.898-0.763-1.278c-0.367-0.38-0.879-0.688-1.536-0.929c-0.658-0.238-1.503-0.358-2.535-0.358
		c-0.539,0-0.957,0.031-1.256,0.095c-0.299,0.064-0.516,0.155-0.65,0.274c-0.135,0.12-0.213,0.268-0.235,0.443
		c-0.022,0.176-0.034,0.377-0.034,0.602V188.572z M153.507,196.721c0,0.465,0.026,0.849,0.078,1.15
		c0.052,0.303,0.18,0.539,0.381,0.708c0.202,0.169,0.501,0.284,0.898,0.348c0.396,0.063,0.945,0.096,1.648,0.096
		c1.57,0,2.83-0.373,3.78-1.119c0.949-0.746,1.424-1.851,1.424-3.314c0-0.858-0.157-1.601-0.471-2.228
		c-0.314-0.626-0.751-1.14-1.312-1.54c-0.561-0.401-1.234-0.697-2.019-0.887c-0.785-0.19-1.656-0.285-2.613-0.285h-1.795V196.721z"
		/>
	<path d="M172.116,196.51c0,0.478,0.033,0.873,0.101,1.183c0.067,0.31,0.202,0.552,0.404,0.728c0.202,0.177,0.486,0.3,0.852,0.37
		c0.367,0.07,0.856,0.106,1.469,0.106h1.638c0.867,0,1.574-0.067,2.12-0.201c0.546-0.133,1.006-0.358,1.38-0.675
		c0.373-0.316,0.706-0.735,0.998-1.256c0.291-0.52,0.608-1.161,0.952-1.922l0.875,0.19c-0.119,0.408-0.231,0.845-0.336,1.309
		c-0.104,0.465-0.202,0.922-0.292,1.372c-0.09,0.451-0.164,0.873-0.224,1.267c-0.06,0.394-0.098,0.718-0.112,0.972
		c-2.977,0-5.388-0.007-7.234-0.021c-1.847-0.014-3.227-0.02-4.138-0.02c-0.27,0-0.587,0.003-0.954,0.01
		c-0.366,0.008-0.744,0.011-1.132,0.011c-0.389,0-0.767,0.004-1.133,0.011c-0.367,0.007-0.677,0.011-0.931,0.011l-0.067-0.718
		c0.688-0.043,1.241-0.109,1.66-0.201c0.419-0.091,0.74-0.232,0.964-0.422c0.224-0.19,0.374-0.45,0.449-0.781
		c0.075-0.33,0.112-0.763,0.112-1.298v-14.207c0-0.338-0.034-0.619-0.101-0.845c-0.067-0.225-0.202-0.411-0.404-0.56
		c-0.202-0.147-0.493-0.256-0.875-0.327c-0.381-0.07-0.893-0.119-1.537-0.148l0.067-0.76c0.284,0,0.609,0.004,0.976,0.011
		c0.366,0.007,0.736,0.01,1.11,0.01c0.389,0,0.766,0.004,1.132,0.011c0.367,0.008,0.707,0.011,1.021,0.011
		c0.583,0,1.809-0.007,3.678-0.021c1.87-0.014,4.247-0.021,7.133-0.021c-0.09,0.718-0.157,1.471-0.201,2.259
		c-0.045,0.788-0.076,1.625-0.09,2.512l-0.898,0.021c-0.135-0.731-0.284-1.337-0.449-1.815c-0.164-0.479-0.396-0.862-0.694-1.15
		c-0.3-0.289-0.689-0.493-1.167-0.612c-0.479-0.119-1.099-0.18-1.861-0.18h-3.208c-0.448,0-0.736,0.042-0.863,0.127
		c-0.128,0.084-0.191,0.303-0.191,0.654v7.304l7.582-0.211l0.157,0.148l-0.045,1.752c-1.361-0.112-2.703-0.189-4.026-0.232
		c-1.324-0.043-2.546-0.077-3.668-0.105V196.51z"/>
	<path d="M192.967,180.403c-0.613,0.042-1.11,0.108-1.491,0.2c-0.382,0.092-0.677,0.232-0.886,0.422
		c-0.21,0.19-0.352,0.454-0.427,0.792c-0.074,0.338-0.111,0.768-0.111,1.288v13.404c0,0.478,0.033,0.873,0.101,1.183
		c0.067,0.31,0.202,0.552,0.403,0.729c0.202,0.176,0.485,0.299,0.852,0.369c0.366,0.07,0.856,0.106,1.469,0.106h1.167
		c0.866,0,1.577-0.066,2.131-0.201c0.553-0.133,1.021-0.358,1.401-0.675c0.382-0.316,0.714-0.735,0.999-1.256
		c0.283-0.52,0.598-1.161,0.941-1.922l0.852,0.19c-0.12,0.408-0.232,0.845-0.337,1.309c-0.105,0.465-0.202,0.922-0.291,1.372
		c-0.09,0.451-0.165,0.873-0.225,1.267c-0.06,0.394-0.098,0.718-0.112,0.972h-3.409c-0.987,0-1.839-0.004-2.557-0.011
		c-0.718-0.007-1.331-0.011-1.84-0.011c-0.509,0-0.949-0.003-1.323-0.011c-0.374-0.007-0.703-0.01-0.986-0.01h-0.785
		c-0.3,0-0.629,0.003-0.987,0.01c-0.358,0.008-0.718,0.011-1.076,0.011c-0.359,0-0.7,0.004-1.021,0.011
		c-0.322,0.007-0.588,0.011-0.797,0.011l-0.067-0.718c0.613-0.042,1.11-0.109,1.492-0.201c0.381-0.091,0.676-0.232,0.886-0.422
		c0.209-0.189,0.352-0.45,0.426-0.781c0.075-0.33,0.112-0.763,0.112-1.298v-14.207c0-0.338-0.034-0.619-0.101-0.845
		c-0.067-0.225-0.202-0.411-0.404-0.56c-0.201-0.147-0.493-0.256-0.874-0.327c-0.382-0.07-0.894-0.119-1.537-0.148l0.067-0.76
		c0.239,0,0.535,0.004,0.886,0.011c0.352,0.007,0.73,0.01,1.133,0.01c0.404,0,0.815,0.004,1.233,0.011
		c0.419,0.008,0.808,0.011,1.167,0.011c0.284,0,0.605-0.003,0.964-0.011c0.359-0.007,0.718-0.011,1.077-0.011
		c0.358,0,0.695-0.003,1.009-0.01c0.314-0.007,0.576-0.011,0.785-0.011L192.967,180.403z"/>
	<path d="M207.18,196.51c0,0.478,0.033,0.873,0.101,1.183c0.067,0.31,0.202,0.552,0.403,0.728c0.202,0.177,0.486,0.3,0.853,0.37
		c0.366,0.07,0.855,0.106,1.469,0.106h1.638c0.867,0,1.574-0.067,2.12-0.201c0.545-0.133,1.005-0.358,1.379-0.675
		c0.374-0.316,0.707-0.735,0.998-1.256c0.292-0.52,0.609-1.161,0.954-1.922l0.874,0.19c-0.119,0.408-0.231,0.845-0.336,1.309
		c-0.105,0.465-0.202,0.922-0.292,1.372c-0.09,0.451-0.164,0.873-0.225,1.267c-0.059,0.394-0.098,0.718-0.111,0.972
		c-2.977,0-5.388-0.007-7.234-0.021c-1.847-0.014-3.226-0.02-4.138-0.02c-0.27,0-0.587,0.003-0.954,0.01
		c-0.366,0.008-0.743,0.011-1.132,0.011c-0.39,0-0.767,0.004-1.133,0.011c-0.367,0.007-0.677,0.011-0.931,0.011l-0.067-0.718
		c0.687-0.043,1.241-0.109,1.659-0.201c0.419-0.091,0.74-0.232,0.965-0.422c0.225-0.19,0.373-0.45,0.448-0.781
		c0.075-0.33,0.112-0.763,0.112-1.298v-14.207c0-0.338-0.033-0.619-0.101-0.845c-0.067-0.225-0.202-0.411-0.403-0.56
		c-0.202-0.147-0.494-0.256-0.875-0.327c-0.382-0.07-0.894-0.119-1.537-0.148l0.067-0.76c0.284,0,0.609,0.004,0.976,0.011
		s0.736,0.01,1.11,0.01c0.389,0,0.767,0.004,1.133,0.011c0.366,0.008,0.707,0.011,1.02,0.011c0.584,0,1.81-0.007,3.679-0.021
		c1.869-0.014,4.247-0.021,7.133-0.021c-0.09,0.718-0.157,1.471-0.202,2.259s-0.075,1.625-0.09,2.512l-0.896,0.021
		c-0.135-0.731-0.284-1.337-0.449-1.815c-0.164-0.479-0.396-0.862-0.695-1.15c-0.299-0.289-0.688-0.493-1.166-0.612
		c-0.479-0.119-1.1-0.18-1.861-0.18h-3.208c-0.448,0-0.736,0.042-0.863,0.127c-0.127,0.084-0.19,0.303-0.19,0.654v7.304l7.581-0.211
		l0.157,0.148l-0.045,1.752c-1.361-0.112-2.703-0.189-4.026-0.232c-1.323-0.043-2.546-0.077-3.667-0.105V196.51z"/>
	<path d="M219.574,179.686c0.538,0,1.192,0.007,1.963,0.021c0.77,0.015,1.536,0.021,2.299,0.021s1.562-0.038,2.4-0.116
		c0.837-0.077,1.645-0.116,2.422-0.116c1.615,0,3.17,0.162,4.666,0.485c1.494,0.324,2.822,0.858,3.98,1.604
		c1.159,0.747,2.086,1.721,2.782,2.924c0.695,1.203,1.043,2.678,1.043,4.423c0,1.802-0.345,3.398-1.032,4.792
		c-0.688,1.393-1.615,2.568-2.781,3.525c-1.166,0.957-2.523,1.686-4.071,2.185c-1.548,0.5-3.182,0.749-4.9,0.749
		c-0.763,0-1.578-0.046-2.445-0.137c-0.867-0.092-1.682-0.137-2.444-0.137c-0.3,0-0.617,0.003-0.953,0.01
		c-0.337,0.008-0.678,0.011-1.021,0.011c-0.345,0-0.673,0.004-0.987,0.011c-0.314,0.007-0.591,0.011-0.83,0.011l-0.067-0.718
		c0.628-0.043,1.136-0.106,1.525-0.19c0.389-0.084,0.688-0.225,0.897-0.422c0.209-0.197,0.348-0.461,0.414-0.792
		c0.068-0.33,0.102-0.763,0.102-1.298v-14.123c0-0.38-0.03-0.689-0.09-0.929c-0.06-0.239-0.19-0.433-0.393-0.58
		c-0.202-0.148-0.505-0.254-0.908-0.316c-0.404-0.063-0.942-0.109-1.615-0.138L219.574,179.686z M225.137,196.193
		c0,0.408,0.015,0.785,0.045,1.129c0.03,0.346,0.143,0.644,0.337,0.897c0.193,0.253,0.508,0.45,0.942,0.591
		c0.433,0.142,1.054,0.212,1.861,0.212c1.45,0,2.77-0.215,3.959-0.645c1.188-0.429,2.209-1.052,3.061-1.868
		c0.853-0.816,1.514-1.809,1.985-2.977c0.471-1.168,0.706-2.483,0.706-3.947c0-1.491-0.243-2.797-0.73-3.916
		c-0.485-1.119-1.154-2.055-2.007-2.808c-0.853-0.753-1.861-1.319-3.028-1.699c-1.166-0.38-2.43-0.57-3.791-0.57
		c-0.478,0-0.92,0.028-1.323,0.085c-0.403,0.057-0.755,0.134-1.054,0.232c-0.3,0.099-0.535,0.204-0.707,0.317
		c-0.172,0.112-0.258,0.231-0.258,0.358V196.193z"/>
	<path d="M243.61,199.233c0.583-0.042,1.055-0.109,1.413-0.201c0.359-0.091,0.64-0.232,0.841-0.422
		c0.202-0.189,0.34-0.45,0.415-0.781c0.075-0.33,0.112-0.763,0.112-1.298v-14.207c0-0.338-0.03-0.619-0.09-0.845
		c-0.06-0.225-0.19-0.411-0.393-0.56c-0.201-0.147-0.489-0.256-0.863-0.327c-0.374-0.07-0.867-0.119-1.48-0.148l0.045-0.76
		c0.239,0,0.531,0.003,0.875,0.011c0.344,0.007,0.71,0.01,1.1,0.01c0.403,0,0.81,0.004,1.222,0.011
		c0.411,0.008,0.797,0.011,1.155,0.011c0.284,0,0.602-0.003,0.953-0.011c0.352-0.007,0.699-0.011,1.043-0.011
		c0.344,0,0.669-0.003,0.976-0.01c0.307-0.008,0.564-0.011,0.774-0.011l0.09,0.718c-0.583,0.042-1.059,0.108-1.425,0.2
		c-0.366,0.092-0.654,0.232-0.863,0.422c-0.21,0.19-0.352,0.451-0.426,0.781c-0.075,0.331-0.112,0.757-0.112,1.277v14.228
		c0,0.338,0.029,0.62,0.089,0.845c0.061,0.226,0.188,0.412,0.382,0.56c0.194,0.147,0.479,0.257,0.852,0.327
		c0.373,0.07,0.875,0.12,1.503,0.148v0.76c-0.239,0-0.538-0.004-0.898-0.011c-0.359-0.007-0.74-0.011-1.145-0.011
		c-0.389,0-0.784-0.003-1.188-0.011c-0.403-0.007-0.785-0.011-1.144-0.011c-0.3,0-0.621,0.004-0.965,0.011
		c-0.344,0.008-0.688,0.011-1.031,0.011c-0.345,0-0.67,0.004-0.976,0.011c-0.307,0.007-0.565,0.011-0.774,0.011L243.61,199.233z"/>
	<path d="M261.276,193.322c0-0.408-0.008-0.756-0.021-1.045c-0.016-0.288-0.065-0.577-0.147-0.865
		c-0.082-0.289-0.206-0.603-0.37-0.939c-0.164-0.338-0.397-0.76-0.695-1.267c-0.403-0.676-0.894-1.491-1.469-2.449
		c-0.576-0.957-1.305-2.124-2.188-3.504c-0.344-0.549-0.639-0.995-0.886-1.341c-0.247-0.345-0.508-0.619-0.785-0.823
		c-0.276-0.203-0.602-0.352-0.976-0.443c-0.374-0.091-0.852-0.158-1.436-0.2l0.045-0.76c0.628,0,1.32,0.007,2.074,0.021
		c0.756,0.015,1.515,0.021,2.277,0.021c0.628,0,1.268-0.007,1.918-0.021c0.65-0.014,1.289-0.021,1.918-0.021l0.066,0.718
		c-0.808,0.057-1.364,0.148-1.671,0.274c-0.307,0.127-0.46,0.316-0.46,0.569c0,0.169,0.053,0.366,0.157,0.592
		c0.104,0.225,0.247,0.499,0.427,0.822l4.082,7.072l3.947-6.713c0.239-0.407,0.423-0.749,0.55-1.023
		c0.127-0.274,0.19-0.51,0.19-0.708c0-0.267-0.168-0.46-0.505-0.58c-0.336-0.119-0.931-0.207-1.783-0.264l0.045-0.76
		c0.554,0,1.137,0.007,1.75,0.021c0.613,0.015,1.256,0.021,1.929,0.021c0.553,0,1.125-0.007,1.716-0.021
		c0.591-0.014,1.162-0.021,1.716-0.021l0.067,0.718c-0.583,0.042-1.065,0.112-1.446,0.211c-0.382,0.099-0.722,0.268-1.021,0.507
		c-0.3,0.239-0.595,0.562-0.887,0.971c-0.291,0.408-0.646,0.943-1.065,1.605c-0.762,1.196-1.42,2.255-1.974,3.177
		c-0.553,0.922-0.986,1.679-1.301,2.27c-0.315,0.577-0.554,1.042-0.718,1.393c-0.165,0.352-0.284,0.661-0.358,0.929
		c-0.075,0.268-0.116,0.525-0.124,0.771c-0.008,0.246-0.011,0.546-0.011,0.897v4.18c0,0.338,0.029,0.619,0.09,0.844
		c0.06,0.226,0.194,0.412,0.403,0.56c0.209,0.147,0.527,0.257,0.953,0.327c0.427,0.07,1.006,0.12,1.738,0.148l-0.045,0.76
		c-0.313,0-0.669-0.004-1.065-0.011c-0.396-0.007-0.804-0.011-1.222-0.011c-0.419,0-0.834-0.003-1.245-0.011
		c-0.411-0.007-0.797-0.011-1.155-0.011c-0.299,0-0.625,0.004-0.976,0.011c-0.352,0.008-0.706,0.011-1.065,0.011
		c-0.359,0-0.718,0.004-1.077,0.011c-0.358,0.007-0.681,0.011-0.964,0.011l-0.067-0.718c0.688-0.042,1.241-0.105,1.66-0.19
		c0.418-0.085,0.732-0.225,0.941-0.422c0.209-0.197,0.348-0.461,0.415-0.792c0.067-0.33,0.101-0.763,0.101-1.298V193.322z"/>
	<path d="M278.629,196.51c0,0.478,0.033,0.873,0.102,1.183c0.066,0.31,0.201,0.552,0.403,0.728c0.202,0.177,0.485,0.3,0.852,0.37
		c0.367,0.07,0.856,0.106,1.47,0.106h1.638c0.867,0,1.573-0.067,2.119-0.201c0.546-0.133,1.006-0.358,1.38-0.675
		c0.374-0.316,0.706-0.735,0.998-1.256c0.292-0.52,0.609-1.161,0.953-1.922l0.875,0.19c-0.12,0.408-0.233,0.845-0.337,1.309
		c-0.105,0.465-0.202,0.922-0.291,1.372c-0.09,0.451-0.165,0.873-0.225,1.267c-0.059,0.394-0.098,0.718-0.112,0.972
		c-2.976,0-5.387-0.007-7.233-0.021c-1.847-0.014-3.227-0.02-4.139-0.02c-0.269,0-0.587,0.003-0.953,0.01
		c-0.366,0.008-0.744,0.011-1.133,0.011s-0.767,0.004-1.133,0.011c-0.366,0.007-0.677,0.011-0.931,0.011l-0.067-0.718
		c0.688-0.043,1.241-0.109,1.66-0.201c0.418-0.091,0.74-0.232,0.965-0.422c0.224-0.19,0.373-0.45,0.448-0.781
		c0.074-0.33,0.112-0.763,0.112-1.298v-14.207c0-0.338-0.034-0.619-0.101-0.845c-0.068-0.225-0.202-0.411-0.404-0.56
		c-0.202-0.147-0.493-0.256-0.875-0.327c-0.381-0.07-0.894-0.119-1.536-0.148l0.067-0.76c0.283,0,0.609,0.004,0.976,0.011
		c0.366,0.007,0.736,0.01,1.11,0.01c0.389,0,0.766,0.004,1.133,0.011c0.366,0.008,0.706,0.011,1.02,0.011
		c0.583,0,1.809-0.007,3.679-0.021c1.868-0.014,4.246-0.021,7.132-0.021c-0.09,0.718-0.156,1.471-0.201,2.259
		s-0.075,1.625-0.09,2.512l-0.898,0.021c-0.135-0.731-0.284-1.337-0.448-1.815c-0.165-0.479-0.397-0.862-0.695-1.15
		c-0.3-0.289-0.688-0.493-1.167-0.612c-0.479-0.119-1.099-0.18-1.861-0.18h-3.208c-0.448,0-0.736,0.042-0.863,0.127
		c-0.127,0.084-0.19,0.303-0.19,0.654v7.304l7.581-0.211l0.157,0.148l-0.045,1.752c-1.36-0.112-2.702-0.189-4.026-0.232
		c-1.323-0.043-2.545-0.077-3.667-0.105V196.51z"/>
	<path d="M291.72,194.062c0.299,0.731,0.616,1.407,0.953,2.026c0.336,0.619,0.739,1.157,1.211,1.615
		c0.471,0.457,1.02,0.815,1.648,1.076c0.628,0.261,1.383,0.391,2.266,0.391c0.583,0,1.121-0.092,1.615-0.274
		c0.493-0.183,0.927-0.443,1.301-0.781c0.374-0.338,0.665-0.735,0.874-1.192c0.21-0.457,0.314-0.961,0.314-1.51
		c0-0.689-0.135-1.28-0.403-1.773c-0.27-0.492-0.628-0.918-1.077-1.276c-0.448-0.359-0.957-0.673-1.525-0.939
		c-0.568-0.268-1.151-0.528-1.749-0.781c-0.673-0.281-1.35-0.591-2.03-0.929c-0.68-0.338-1.289-0.739-1.828-1.203
		c-0.538-0.465-0.979-0.999-1.323-1.605c-0.344-0.605-0.516-1.323-0.516-2.153c0-0.887,0.19-1.671,0.572-2.354
		c0.381-0.682,0.897-1.256,1.547-1.72c0.651-0.465,1.406-0.816,2.266-1.056c0.86-0.239,1.775-0.358,2.748-0.358
		c0.942,0,1.812,0.066,2.613,0.2c0.8,0.134,1.655,0.313,2.568,0.538c-0.045,0.451-0.083,0.869-0.112,1.256
		c-0.03,0.388-0.049,0.768-0.056,1.14c-0.008,0.374-0.016,0.753-0.023,1.141c-0.008,0.387-0.011,0.806-0.011,1.256l-0.942,0.084
		c-0.134-1.491-0.617-2.606-1.446-3.346c-0.83-0.738-1.948-1.108-3.353-1.108c-0.539,0-1.031,0.078-1.48,0.232
		c-0.448,0.155-0.838,0.38-1.166,0.676c-0.329,0.295-0.588,0.648-0.774,1.056c-0.186,0.408-0.28,0.865-0.28,1.372
		c0,0.676,0.116,1.242,0.348,1.699c0.232,0.457,0.55,0.855,0.954,1.192c0.403,0.338,0.87,0.63,1.401,0.876
		c0.53,0.247,1.088,0.489,1.671,0.729c0.718,0.296,1.439,0.619,2.165,0.972c0.725,0.352,1.375,0.767,1.951,1.245
		c0.575,0.479,1.043,1.034,1.401,1.668c0.359,0.633,0.538,1.379,0.538,2.237c0,0.957-0.209,1.805-0.628,2.544
		c-0.419,0.738-0.972,1.365-1.659,1.879c-0.689,0.514-1.48,0.904-2.378,1.171c-0.898,0.268-1.816,0.401-2.759,0.401
		c-0.822,0-1.675-0.078-2.557-0.232c-0.883-0.155-1.817-0.365-2.804-0.633c-0.105-0.929-0.232-1.802-0.382-2.618
		c-0.149-0.815-0.352-1.688-0.605-2.617L291.72,194.062z"/>
	<path d="M306.694,199.233c0.583-0.042,1.054-0.109,1.412-0.201c0.359-0.091,0.64-0.232,0.842-0.422
		c0.202-0.189,0.34-0.45,0.415-0.781c0.074-0.33,0.112-0.763,0.112-1.298v-14.207c0-0.338-0.03-0.619-0.09-0.845
		c-0.061-0.225-0.19-0.411-0.393-0.56c-0.202-0.147-0.49-0.256-0.863-0.327c-0.374-0.07-0.868-0.119-1.482-0.148l0.046-0.76
		c0.238,0,0.53,0.003,0.874,0.011c0.344,0.007,0.711,0.01,1.1,0.01c0.403,0,0.81,0.004,1.222,0.011
		c0.411,0.008,0.797,0.011,1.155,0.011c0.284,0,0.603-0.003,0.954-0.011c0.351-0.007,0.698-0.011,1.043-0.011
		c0.344,0,0.669-0.003,0.976-0.01c0.307-0.008,0.564-0.011,0.773-0.011l0.09,0.718c-0.583,0.042-1.058,0.108-1.424,0.2
		c-0.367,0.092-0.654,0.232-0.864,0.422c-0.21,0.19-0.351,0.451-0.426,0.781c-0.075,0.331-0.112,0.757-0.112,1.277v14.228
		c0,0.338,0.029,0.62,0.09,0.845c0.06,0.226,0.187,0.412,0.381,0.56c0.194,0.147,0.478,0.257,0.852,0.327
		c0.374,0.07,0.875,0.12,1.503,0.148v0.76c-0.239,0-0.538-0.004-0.898-0.011c-0.358-0.007-0.74-0.011-1.144-0.011
		c-0.389,0-0.785-0.003-1.188-0.011c-0.404-0.007-0.786-0.011-1.145-0.011c-0.299,0-0.62,0.004-0.964,0.011
		c-0.345,0.008-0.689,0.011-1.032,0.011c-0.345,0-0.67,0.004-0.975,0.011c-0.307,0.007-0.565,0.011-0.773,0.011L306.694,199.233z"/>
	<path d="M245.758,177.245c0-0.239,0.049-0.468,0.146-0.686c0.097-0.218,0.227-0.408,0.393-0.569
		c0.164-0.162,0.355-0.288,0.571-0.38c0.217-0.092,0.452-0.138,0.707-0.138c0.239,0,0.471,0.046,0.695,0.138s0.419,0.218,0.583,0.38
		c0.164,0.161,0.295,0.352,0.393,0.569c0.098,0.219,0.145,0.447,0.145,0.686c0,0.239-0.048,0.468-0.145,0.686
		c-0.098,0.219-0.229,0.409-0.393,0.57c-0.164,0.162-0.358,0.288-0.583,0.38s-0.456,0.137-0.695,0.137
		c-0.255,0-0.49-0.045-0.707-0.137c-0.217-0.092-0.407-0.218-0.571-0.38c-0.165-0.161-0.296-0.352-0.393-0.57
		C245.807,177.713,245.758,177.484,245.758,177.245"/>
	<path d="M308.92,177.245c0-0.239,0.048-0.468,0.145-0.686c0.098-0.218,0.229-0.408,0.393-0.569c0.164-0.162,0.355-0.288,0.572-0.38
		s0.452-0.138,0.706-0.138c0.239,0,0.471,0.046,0.695,0.138c0.225,0.092,0.419,0.218,0.583,0.38
		c0.165,0.161,0.296,0.352,0.394,0.569c0.097,0.219,0.146,0.447,0.146,0.686c0,0.239-0.049,0.468-0.146,0.686
		c-0.098,0.219-0.228,0.409-0.394,0.57c-0.164,0.162-0.358,0.288-0.583,0.38c-0.225,0.092-0.456,0.137-0.695,0.137
		c-0.254,0-0.489-0.045-0.706-0.137s-0.408-0.218-0.572-0.38c-0.164-0.161-0.295-0.352-0.393-0.57
		C308.968,177.713,308.92,177.484,308.92,177.245"/>
	<path style="fill-rule:evenodd;clip-rule:evenodd;fill:#362F84;" d="M137.228,214.588c-1.87-1.699-3.506-3.88-4.144-5.172
		c-0.639-1.294-0.545-1.994-0.545-1.994s0.093-0.062,0.328,0.046c0.233,0.109,0.763,0.732,1.9,2.119
		c0.583,0.711,1.097,1.148,1.543,1.419c0.382,0.233,1.762,0.74,2.117,0.419c0.156-0.14,0.141-0.374,0.141-0.374
		s-0.203-0.046-0.764-0.42c-0.561-0.374-1.558-1.449-2.664-2.742c-1.107-1.294-1.481-2.243-2.493-4.347
		c-1.013-2.103-0.92-3.132-1.402-4.597c-0.483-1.464-0.889-6.59-0.919-7.432c-0.031-0.841-0.015-5.017,0.016-6.045
		c0.031-1.028,0.218-4.347,0.342-5.796c0.125-1.448,0.779-6.107,1.153-8.742c0.374-2.634,0.171-4.287,0.156-5.83
		c-0.017-1.544-1.589-3.382-1.589-3.382l-0.155-0.265l0.716-0.39c0,0,2.196,0.187,2.337,0.156c0.14-0.031,0.452-0.125,0.748-1.325
		c0.295-1.2,0.28-3.552,0.108-4.861c-0.17-1.308-0.748-5.204-0.748-5.204l-1.105,0.452c0,0,0.561-1.122,0.888-1.994
		c0.328-0.873,0.467-2.181,0.405-3.241c-0.062-1.059-0.233-1.199-0.763-2.337c-0.53-1.137-2.711-2.041-3.225-2.212
		c-0.514-0.171-1.215-0.265-2.135-0.327c-0.919-0.062-1.2,0.016-2.103-0.187c-0.904-0.203-1.496-0.28-2.649-0.608
		c-1.152-0.327-2.82-0.732-5.297-0.764c-2.478-0.031-4.472,0.888-5.406,1.324c-0.935,0.436-1.402,0.966-1.543,1.106
		c-0.14,0.14-0.156,0.311-0.156,0.311s-0.062-0.374,0.078,1.013c0.14,1.387,1.169,4.456,2.586,7.93
		c1.418,3.475,5.702,8.85,5.702,8.85s0.078,0.124,0,0.14c-0.078,0.016-0.53-0.109-0.841-0.312c-0.312-0.203-0.81-0.624-0.81-0.624
		s-6.819-9.213-7.343-16.821c0,0-1.646-1.002-2.507-0.986c-0.457,0.009-1.036,0.79-1.52,1.436c-0.408,0.545-1.698,0.609-2.111,0.649
		c-0.977,0.095-1.817-0.292-2.27-1.003c-1.028-1.612-1.033-5.59-0.38-7.003c0.243-0.524,0.561-1.406,1.193-2.41
		c0.651-1.034,2.582-3.08,3.136-3.366c0.828-0.427,2.021-1.048,3.408-1.106c0.998-0.042,0.919-0.471,1.345-0.594
		c-0.015-0.005,0.229,0.079,0.664,0.212c0.053,0.016,0.48-0.379,0.684-0.51c0.168-0.108,0.631-0.065,0.836-0.155
		c0.239-0.104,0.467-0.522,0.872-0.517c0.373,0.004,0.319,0.128,0.571-0.1c0.136-0.123,0.229-0.29,0.322-0.376
		c0.126-0.117,0.296-0.093,0.45-0.07c0.104,0.016,0.201,0.032,0.268,0.003c0.214-0.092,0.352-0.153,0.374-0.168
		c0.04-0.026,0.315-0.317,0.497-0.785c0.581-1.491,0.09-3.164-0.754-4.457c-0.264-0.403-0.55-0.845-1.51-1.683
		c-0.726-0.632-1.676-1.01-2.384-1.114c-0.635-0.094-1.622-0.247-2.227-0.022c0.038,0.029,1.179,0.998,1.313,1.138
		c1.393,1.573-2.374,3.961-3.122,0.739l-0.218-0.966l-0.199-0.88c0,0-0.618-0.202-2.875,0.453c-2.685,0.779-4.944,1.995-9.142,5.387
		c-3.021,2.44-6.495,7.199-7.093,8.031l-0.01,0.011c-0.547-0.737-4.315-5.779-7.115-8.042c-2.206-1.782-3.876-2.964-5.354-3.797
		c-1.273-0.717-5.422-2.449-6.663-2.043l-0.199,0.88l-0.322,1.423c-0.197,1.045-1.592,1.572-2.48,0.946
		c-0.329-0.232-0.619-0.47-0.717-0.942c-0.239-1.157,0.662-1.71,1.492-2.338c-0.285-0.106-0.668-0.127-1.053-0.109
		c-0.438,0.02-0.877,0.088-1.173,0.132c-0.708,0.104-1.659,0.482-2.384,1.114c-0.961,0.838-1.247,1.28-1.51,1.683
		c-0.332,0.509-0.572,1.227-0.691,1.466c-0.528,1.057-0.355,2.238-0.062,2.991c0.182,0.468,0.458,0.758,0.497,0.785
		c0.022,0.015,0.16,0.076,0.374,0.168c0.067,0.029,0.164,0.013,0.268-0.003c0.153-0.023,0.324-0.047,0.45,0.07
		c0.093,0.086,0.187,0.253,0.322,0.376c0.252,0.228,0.198,0.104,0.571,0.1c0.405-0.005,0.633,0.413,0.872,0.517
		c0.205,0.09,0.669,0.046,0.836,0.155c0.204,0.131,0.631,0.526,0.684,0.51c0.435-0.133,0.678-0.217,0.664-0.212
		c0.427,0.123,0.348,0.552,1.345,0.594c1.387,0.058,2.58,0.679,3.408,1.106c0.554,0.286,2.485,2.332,3.136,3.366
		c0.632,1.004,0.95,1.886,1.192,2.41c0.653,1.413,0.648,5.391-0.38,7.003c-0.453,0.711-1.293,1.099-2.27,1.003
		c-0.413-0.04-1.703-0.104-2.111-0.649c-0.484-0.646-1.063-1.427-1.52-1.436c-0.86-0.017-2.507,0.986-2.507,0.986
		s-1.338,9.249-7.343,16.821c0,0-0.499,0.421-0.811,0.624c-0.311,0.202-0.763,0.327-0.841,0.312c-0.078-0.016,0-0.14,0-0.14
		c3.288-4.125,7.748-11.429,8.289-16.78c0.14-1.387,0.078-1.013,0.078-1.013s-0.016-0.171-0.156-0.311
		c-0.14-0.14-0.607-0.67-1.542-1.106c-0.935-0.436-2.929-1.356-5.406-1.324c-2.477,0.031-4.144,0.437-5.297,0.764
		c-1.152,0.327-1.745,0.405-2.648,0.608c-0.903,0.203-1.184,0.124-2.104,0.187c-0.919,0.062-1.62,0.156-2.134,0.327
		c-0.514,0.171-2.695,1.075-3.225,2.212c-0.529,1.137-0.701,1.278-0.763,2.337c-0.062,1.06,0.078,2.368,0.405,3.241
		c0.328,0.872,0.888,1.994,0.888,1.994l-1.106-0.452c0,0-0.577,3.895-0.748,5.204c-0.171,1.309-0.187,3.662,0.109,4.861
		c0.296,1.2,0.608,1.293,0.748,1.325c0.14,0.031,2.337-0.156,2.337-0.156l0.717,0.39l-0.156,0.265c0,0-1.574,1.839-1.589,3.382
		c-0.015,1.543-0.218,3.195,0.156,5.83c0.374,2.634,1.028,7.293,1.153,8.742c0.125,1.449,0.312,4.768,0.343,5.796
		c0.031,1.028,0.046,5.204,0.016,6.045c-0.031,0.842-0.436,5.968-0.919,7.432c-0.483,1.465-0.39,2.493-1.402,4.597
		c-1.013,2.104-1.387,3.053-2.493,4.347c-1.107,1.293-2.103,2.368-2.664,2.742c-0.561,0.374-0.764,0.42-0.764,0.42
		s-0.015,0.234,0.14,0.374c0.156,0.141,0.405,0.109,1.029,0c0.623-0.108,1.496-0.451,2.633-1.838
		c1.137-1.387,1.667-2.01,1.901-2.119c0.233-0.108,0.327-0.046,0.327-0.046s0.093,0.7-0.545,1.994
		c-0.639,1.292-2.275,3.473-4.144,5.172c-1.87,1.697-2.369,2.555-2.369,2.555s0.545,0.031,0.919,0
		c0.375-0.03,3.521-0.982,4.83-2.025c1.309-1.044,2.929-2.322,4.207-4.409c1.278-2.088,2.135-4.159,2.477-5.281
		c0.343-1.122,0.841-2.29,0.841-2.29h0.499c0,0-0.031,0.826-0.873,2.913c-0.841,2.088-1.278,3.116-1.979,4.378
		c-0.701,1.263-1.511,2.367-1.589,2.571c-0.078,0.201-0.171,0.436-0.171,0.436c0,0,1.246-0.016,2.555-0.155
		c1.309-0.141,3.505-0.889,5.126-2.104c1.62-1.216,2.134-2.633,2.664-3.895c0.529-1.261,1.184-4.191,1.387-5.499
		c0.202-1.309,0.623-3.193,0.654-3.256c0.031-0.062,0.109-0.094,0.218,0.545c0.109,0.639,0.171,1.34,0.171,1.34
		s0.529-0.452,1.496-2.182c0,0,0.935-1.339,1.963-4.985c1.028-3.646,1.589-8.164,1.838-10.781c0.25-2.617,0.405-8.226,0.623-9.723
		c0.218-1.497,0.592-5.549,1.371-7.108c0.779-1.559,1.438-2.088,2.623-2.275c1.184-0.187,2.363,0.187,2.893,1.496
		c0,0,0.592,1.341,0.623,3.118c0.031,1.777-0.093,8.323,0,9.165c0.094,0.841,0.436,3.739,0.717,4.393
		c0.28,0.654,0.686,3.521,0.623,4.83c-0.062,1.309-0.311,2.118-0.561,2.96c-0.249,0.841-2.149,7.167-2.68,8.226
		c-0.53,1.06-2.897,6.295-4.518,8.818c-1.621,2.525-5.235,6.638-5.796,7.042c-0.561,0.405-0.935,0.779-0.935,0.779
		s-0.218-0.031-0.779,0.249c-0.561,0.28-1.713,0.686-2.586,1.246c-0.872,0.562-1.932,1.057-2.492,1.479
		c-0.561,0.423-1.434,0.672-1.808,0.828c-0.374,0.155-1.371,0.311-1.9,0.467c-0.53,0.156-2.088,0.468-2.493,1.059
		c-0.405,0.593-0.312,1.06-0.094,1.402c0.218,0.343,1.028,0.437,1.028,0.437l-0.405-1.215c0,0-0.156-0.125,1.122-0.437
		c1.278-0.311,2.337-0.842,2.836-0.967c0.499-0.124,1.122-0.311,1.433-0.436c0.312-0.125,0.748-0.249,0.748-0.249
		s0.374-0.031,0.592-0.094c0.46-0.133,1.858-0.727,2.067-0.831c0.374-0.188,0.918-0.336,0.956-0.354
		c0.102-0.047,1.086-0.291,1.163,0.031c0.097,0.403,0.135,0.405-0.166,0.499c-0.266,0.082-0.872,0.467-1.589,0.686
		c-0.717,0.219-3.022,0.809-3.49,0.934c0,0-0.613,0.312-1.07,0.571c-0.457,0.26-1.101,0.727-1.059,1.34
		c0.041,0.612,0.509,0.811,0.644,0.903c0.135,0.094,0.55,0,0.55,0s-0.405-0.613-0.426-0.831c-0.021-0.219-0.114-0.301,0.374-0.581
		c0.488-0.28,1.133-0.53,2.337-0.862c1.205-0.333,2.918-0.82,3.459-0.894c0.54-0.073,1.205-0.207,1.517-0.343
		c0.312-0.135,0.779-0.468,0.935-0.612c0.156-0.146,0.208-0.146,0.208-0.146h0.81c0,0,0.478-0.446,0.79-0.561
		c0.312-0.114,0.602-0.021,1.163,0.062c0.561,0.084,1.247,0.259,1.392,0.291c0.146,0.03,0.416,0.052,0.873,0.083
		c0.457,0.031,0.633-0.01,0.956-0.01c0.321,0,1.007,0.145,1.038,0.736c0.031,0.593-0.083,0.645-0.188,0.811
		c-0.103,0.167-0.145,0.447-0.145,0.447l0.727-0.105c0,0,0.613-0.238,0.769-0.82c0.156-0.582-0.052-1.184-0.229-1.455
		c-0.176-0.269-0.852-0.643-1.205-0.851c-0.354-0.208-0.561-0.26-1.028-0.477c-0.468-0.219-0.759-0.405-0.883-0.707
		c-0.125-0.302-0.27-0.529-0.519-0.706c-0.25-0.176-0.623-0.322-0.8-0.54c-0.177-0.219-0.094-0.695-0.094-0.748
		c0-0.052,0.011-0.197,0.281-0.384c0.27-0.188,0.374-0.312,0.415-0.436c0.042-0.125-0.062-0.219-0.135-0.292
		c-0.073-0.072-0.197-0.156-0.197-0.187c0-0.031,0.218-0.343,0.218-0.343s1.547-1.526,1.9-1.952
		c0.354-0.426,0.842-1.382,1.018-1.693c0.177-0.312,0.447-0.831,0.675-1.06c0.228-0.229,0.54-0.612,1.247-1.277
		c0.706-0.665,1.807-1.766,2.347-2.462c0.54-0.695,0.873-1.194,1.08-1.62c0.208-0.426,0.198-0.405,0.332-0.612
		c0.135-0.208,0.997-0.779,1.132-0.894c0.135-0.114,0.115-0.405,0.073-0.499c-0.042-0.094-0.26-0.218-0.239-0.623
		c0.021-0.405,0.395-2.025,1.143-3.677c0.748-1.651,2.41-4.892,2.555-5.183c0.146-0.291,0.873-1.891,0.914-1.994
		c0.041-0.105,0.052-0.25-0.083-0.582c-0.135-0.332-0.135-0.457-0.135-0.457s-0.031-0.603,0.021-1.257
		c0.053-0.654,0.54-3.271,0.561-4.092c0.021-0.821-0.052-1.018-0.249-1.371c-0.197-0.354-1.641-2.701-1.776-2.867
		c-0.135-0.166-0.571-0.551-0.571-0.551s-0.208,0.479-0.592,0.914c-0.384,0.436-0.904,0.82-1.392,1.102
		c-0.488,0.28-0.727,0.28-0.727,0.28s-0.021-0.395,0.197-0.644c0.218-0.25,0.239-0.177,0.561-0.322
		c0.322-0.146,0.665-0.322,0.758-0.396c0,0,0.447-0.518,0.654-1.059c0.208-0.54,0.478-0.936,0.499-1.61
		c0.021-0.675-0.249-1.195-0.353-1.413c-0.104-0.218-0.561-0.727-0.717-0.862c-0.156-0.135-0.405-0.249-0.83-0.229
		c-0.426,0.021-0.686,0.188-0.81,0.426c-0.125,0.239-0.208,0.634-0.208,0.675v0.041l-0.021,0.052l-0.312-0.031
		c0,0-0.01-0.644,0.031-0.862c0.042-0.218,0.218-0.613,0.738-0.883c0.519-0.27,1.496-0.301,2.046-0.249
		c0.551,0.052,2.067,0.073,2.067,0.073l0.416,0.353h1.61v1.258c0,0-0.166-0.052-0.239-0.042c-0.072,0.01-0.353-0.218-0.55-0.229
		c-0.197-0.01-0.571,0.021-0.571,0.021s-0.395,0.083-0.811,0.852c-0.416,0.769-0.592,1.34-0.53,2.005
		c0.062,0.664,0.302,1.34,0.925,2.191c0.623,0.852,1.08,1.35,1.225,1.838c0.146,0.488-0.01,1.735-0.124,2.441
		c-0.115,0.706-0.54,2.939-0.509,3.656c0.031,0.717,0.083,1.526,0.436,2.68c0.354,1.152,0.592,2.087,1.247,3.5
		c0.655,1.413,1.683,3.033,2.004,3.854c0.322,0.82,0.696,2.108,0.696,2.254c0,0.145,0,0.145,0,0.145l0.436,0.052
		c0,0,0.104,0.415,0.135,1.008c0.031,0.592-0.218,2.814-0.229,3.251c-0.011,0.437-0.011,0.748,0.031,0.883
		c0.042,0.135,0.203,0.104,0.201,0.312c-0.003,0.208-0.013,0.571-0.128,0.634c-0.114,0.061-0.405-0.031-0.498-0.031
		c-0.094,0-0.582-0.062-0.582-0.062s-0.021,0.208,0.073,0.405c0.093,0.197,0.364,0.498,0.395,0.55
		c0.031,0.053,0.208,0.344,0.208,0.405c0,0.062,0.083,0.291,0.01,0.447c-0.073,0.155-0.748,0.925-0.686,1.443
		c0.062,0.52,0.302,0.675,0.467,0.737c0.166,0.062,0.343-0.094,0.437-0.146c0.093-0.052,0.304-0.094,0.304-0.094l0.215-0.01v0.623
		c0,0,0.354,0.208,0.354,0.405c0,0.196-0.166,0.114-0.28,0.155c-0.115,0.041-0.52,0.415-0.572,0.458
		c-0.052,0.041-0.114,0.206-0.769,0.467c-0.654,0.26-1.049,0.322-1.174,0.332c-0.125,0.011-0.135,0.28,0.156,0.447
		c0.154,0.087,0.383,0.068,0.594,0.049c0.188-0.018,0.362-0.035,0.455,0.023c0.197,0.125,0.364,0.312,0.25,0.738
		c-0.114,0.424-0.26,0.643-0.686,0.86c-0.426,0.219-1.163,0.488-1.319,0.654c-0.156,0.168-0.187,0.343-0.052,0.416
		c0.135,0.072,0.727,0.291,0.737,0.612c0.01,0.322-0.052,0.198-0.311,0.312c-0.26,0.115-0.613,0.292-0.79,0.572
		c-0.176,0.28-0.447,0.883-0.737,1.465c-0.291,0.58-1.205,2.212-1.641,3.084c-0.436,0.873-1.288,2.42-1.454,3.168
		c-0.166,0.747-0.156,0.841-0.156,0.841c0.358,0.186,0.919,0.268,1.693,0.239c0,0,0.125,0.499,0.634,0.852
		c0.509,0.354,1.06,0.374,1.568,0.374c0.509,0,0.706-0.062,0.779-0.094c0.073-0.031,0.073-0.031,0.073-0.031s0.8,0.738,1.028,0.894
		c0.229,0.156,0.592,0.219,0.717,0.229c0.125,0.011,1.526,0.074,1.526,0.074s0.229,0.664,0.862,0.934
		c0.634,0.27,0.977,0.166,1.402,0.083c0.426-0.083,0.696-0.135,0.696-0.135s0.498,0.364,0.706,0.488
		c0.074,0.044,0.295,0.063,0.55,0.069v0.003c0.025,0,0.05-0.001,0.074-0.001c0.025,0,0.049,0.001,0.074,0.001v-0.003
		c0.255-0.006,0.477-0.025,0.55-0.069c0.208-0.124,0.706-0.488,0.706-0.488s0.27,0.052,0.696,0.135
		c0.426,0.083,0.769,0.187,1.402-0.083c0.634-0.27,0.862-0.934,0.862-0.934s1.402-0.063,1.527-0.074
		c0.125-0.01,0.488-0.072,0.717-0.229c0.228-0.155,1.028-0.894,1.028-0.894s0,0,0.072,0.031c0.073,0.031,0.27,0.094,0.779,0.094
		c0.509,0,1.06-0.02,1.568-0.374c0.509-0.353,0.633-0.852,0.633-0.852c0.902,0.094,1.352-0.079,1.693-0.239
		c0,0,0.01-0.094-0.156-0.841c-0.166-0.748-1.018-2.295-1.454-3.168c-0.436-0.872-1.351-2.503-1.641-3.084
		c-0.291-0.582-0.561-1.184-0.737-1.465c-0.177-0.28-0.53-0.457-0.789-0.572c-0.259-0.113-0.322,0.012-0.312-0.312
		c0.01-0.321,0.603-0.54,0.737-0.612c0.135-0.073,0.104-0.248-0.052-0.416c-0.156-0.166-0.894-0.436-1.319-0.654
		c-0.426-0.218-0.571-0.436-0.685-0.86c-0.115-0.427,0.052-0.613,0.249-0.738c0.093-0.059,0.267-0.041,0.455-0.023
		c0.211,0.019,0.44,0.038,0.594-0.049c0.291-0.167,0.28-0.436,0.156-0.447c-0.125-0.01-0.52-0.072-1.174-0.332
		c-0.655-0.261-0.717-0.426-0.769-0.467c-0.052-0.043-0.457-0.417-0.571-0.458c-0.114-0.041-0.281,0.041-0.281-0.155
		c0-0.197,0.353-0.405,0.353-0.405v-0.623l0.216,0.01c0,0,0.21,0.042,0.304,0.094c0.093,0.052,0.27,0.208,0.437,0.146
		c0.166-0.062,0.405-0.218,0.467-0.737c0.062-0.519-0.613-1.288-0.686-1.443c-0.073-0.156,0.01-0.385,0.01-0.447
		c0-0.061,0.177-0.353,0.208-0.405c0.031-0.052,0.301-0.352,0.395-0.55c0.094-0.197,0.073-0.405,0.073-0.405
		s-0.488,0.062-0.582,0.062c-0.093,0-0.384,0.094-0.498,0.031c-0.115-0.062-0.125-0.426-0.127-0.634
		c-0.003-0.208,0.158-0.177,0.2-0.312c0.042-0.135,0.041-0.446,0.031-0.883c-0.01-0.437-0.26-2.659-0.229-3.251
		c0.031-0.593,0.135-1.008,0.135-1.008l0.436-0.052v-0.145c0-0.146,0.374-1.434,0.696-2.254c0.322-0.82,1.35-2.44,2.005-3.854
		c0.654-1.413,0.893-2.348,1.246-3.5c0.353-1.153,0.405-1.963,0.437-2.68c0.031-0.717-0.395-2.95-0.509-3.656
		c-0.114-0.706-0.27-1.953-0.124-2.441c0.145-0.488,0.602-0.986,1.225-1.838c0.624-0.852,0.862-1.527,0.925-2.191
		c0.062-0.665-0.114-1.236-0.53-2.005c-0.415-0.769-0.81-0.852-0.81-0.852s-0.374-0.031-0.572-0.021
		c-0.197,0.011-0.478,0.239-0.55,0.229c-0.072-0.01-0.239,0.042-0.239,0.042v-1.258h1.61l0.416-0.353c0,0,1.517-0.021,2.067-0.073
		c0.55-0.052,1.527-0.021,2.046,0.249c0.519,0.27,0.695,0.665,0.737,0.883c0.042,0.218,0.031,0.862,0.031,0.862l-0.312,0.031
		l-0.021-0.052v-0.041c0-0.042-0.083-0.436-0.207-0.675c-0.125-0.239-0.385-0.405-0.811-0.426c-0.426-0.02-0.675,0.094-0.831,0.229
		c-0.155,0.135-0.613,0.644-0.716,0.862c-0.104,0.218-0.374,0.738-0.354,1.413c0.021,0.675,0.291,1.07,0.499,1.61
		c0.208,0.54,0.655,1.059,0.655,1.059c0.093,0.073,0.436,0.25,0.758,0.396c0.322,0.145,0.343,0.072,0.56,0.322
		c0.218,0.249,0.198,0.644,0.198,0.644s-0.239,0-0.728-0.28c-0.488-0.281-1.007-0.665-1.392-1.102
		c-0.384-0.437-0.592-0.914-0.592-0.914s-0.437,0.385-0.572,0.551c-0.135,0.166-1.578,2.514-1.776,2.867
		c-0.197,0.353-0.27,0.55-0.25,1.371c0.021,0.82,0.509,3.438,0.561,4.092c0.052,0.654,0.021,1.257,0.021,1.257s0,0.125-0.135,0.457
		c-0.136,0.332-0.125,0.477-0.084,0.582c0.042,0.103,0.769,1.703,0.914,1.994c0.146,0.291,1.808,3.531,2.555,5.183
		c0.748,1.651,1.121,3.271,1.143,3.677c0.021,0.405-0.197,0.529-0.239,0.623c-0.041,0.094-0.062,0.385,0.073,0.499
		c0.135,0.114,0.997,0.686,1.132,0.894c0.135,0.207,0.125,0.187,0.333,0.612c0.207,0.426,0.54,0.925,1.08,1.62
		c0.54,0.696,1.641,1.797,2.348,2.462c0.706,0.665,1.018,1.049,1.246,1.277c0.229,0.229,0.499,0.747,0.675,1.06
		c0.177,0.311,0.664,1.268,1.018,1.693c0.353,0.426,1.9,1.952,1.9,1.952s0.218,0.312,0.218,0.343c0,0.03-0.125,0.114-0.197,0.187
		c-0.073,0.073-0.177,0.167-0.135,0.292c0.041,0.124,0.145,0.248,0.415,0.436c0.271,0.187,0.28,0.332,0.28,0.384
		c0,0.053,0.083,0.529-0.093,0.748c-0.177,0.218-0.55,0.364-0.8,0.54c-0.25,0.177-0.395,0.404-0.52,0.706
		c-0.125,0.302-0.416,0.488-0.882,0.707c-0.468,0.218-0.676,0.269-1.029,0.477c-0.353,0.208-1.028,0.582-1.205,0.851
		c-0.176,0.271-0.384,0.873-0.229,1.455c0.156,0.582,0.769,0.82,0.769,0.82l0.727,0.105c0,0-0.041-0.28-0.145-0.447
		c-0.104-0.166-0.219-0.218-0.187-0.811c0.031-0.592,0.716-0.736,1.038-0.736c0.322,0,0.499,0.041,0.956,0.01
		c0.458-0.031,0.727-0.052,0.873-0.083c0.146-0.032,0.831-0.207,1.392-0.291c0.561-0.083,0.852-0.177,1.163-0.062
		c0.312,0.115,0.789,0.561,0.789,0.561h0.81c0,0,0.052,0,0.208,0.146c0.156,0.145,0.623,0.478,0.935,0.612
		c0.312,0.136,0.976,0.27,1.516,0.343c0.541,0.073,2.254,0.561,3.459,0.894c1.205,0.332,1.849,0.582,2.337,0.862
		c0.488,0.28,0.395,0.362,0.374,0.581c-0.021,0.218-0.426,0.831-0.426,0.831s0.415,0.094,0.551,0
		c0.135-0.094,0.603-0.291,0.644-0.903c0.041-0.613-0.602-1.08-1.059-1.34c-0.457-0.26-1.07-0.571-1.07-0.571
		c-0.467-0.125-2.773-0.716-3.49-0.934c-0.716-0.219-1.323-0.604-1.589-0.686c-0.301-0.094-0.263-0.096-0.165-0.499
		c0.078-0.322,1.061-0.078,1.163-0.031c0.038,0.018,0.581,0.166,0.955,0.354c0.209,0.105,1.607,0.698,2.067,0.831
		c0.218,0.062,0.592,0.094,0.592,0.094s0.436,0.124,0.748,0.249c0.312,0.124,0.935,0.312,1.433,0.436
		c0.499,0.125,1.558,0.655,2.835,0.967c1.278,0.312,1.122,0.437,1.122,0.437l-0.405,1.215c0,0,0.81-0.094,1.028-0.437
		c0.218-0.343,0.312-0.81-0.093-1.402c-0.405-0.592-1.963-0.903-2.493-1.059c-0.53-0.155-1.527-0.312-1.901-0.467
		c-0.373-0.156-1.246-0.405-1.807-0.828c-0.561-0.422-1.62-0.917-2.493-1.479c-0.873-0.561-2.025-0.966-2.586-1.246
		c-0.561-0.28-0.779-0.249-0.779-0.249s-0.374-0.374-0.935-0.779c-0.561-0.404-4.176-4.517-5.796-7.042
		c-1.62-2.523-3.989-7.759-4.518-8.818c-0.53-1.059-2.431-7.385-2.68-8.226c-0.249-0.842-0.499-1.651-0.562-2.96
		c-0.062-1.309,0.343-4.176,0.624-4.83c0.281-0.654,0.623-3.553,0.716-4.393c0.094-0.842-0.031-7.388,0-9.165
		c0.032-1.777,0.624-3.118,0.624-3.118c0.53-1.309,1.709-1.683,2.893-1.496c1.184,0.187,1.843,0.717,2.623,2.275
		c0.779,1.559,1.152,5.612,1.371,7.108c0.218,1.497,0.374,7.105,0.623,9.723c0.249,2.617,0.81,7.136,1.838,10.781
		c1.028,3.646,1.963,4.985,1.963,4.985c0.966,1.729,1.496,2.182,1.496,2.182s0.062-0.701,0.171-1.34
		c0.109-0.639,0.187-0.607,0.218-0.545c0.031,0.062,0.452,1.947,0.654,3.256c0.203,1.309,0.857,4.238,1.387,5.499
		c0.53,1.263,1.044,2.68,2.665,3.895c1.62,1.215,3.816,1.963,5.125,2.104c1.309,0.14,2.555,0.155,2.555,0.155
		c0.124,0-1.675-2.854-1.761-3.007c-0.701-1.262-1.137-2.29-1.978-4.378c-0.841-2.088-0.873-2.913-0.873-2.913h0.499
		c0,0,0.499,1.168,0.841,2.29c0.343,1.122,1.2,3.193,2.477,5.281c1.277,2.087,2.898,3.365,4.207,4.409
		c1.309,1.044,4.456,1.995,4.83,2.025c0.374,0.031,0.92,0,0.92,0S139.098,216.285,137.228,214.588"/>
	<path style="fill-rule:evenodd;clip-rule:evenodd;fill:#FFFFFF;" d="M97.286,223.284l-2.363-5.883
		c-0.074-0.185-0.293-0.287-0.489-0.231c-0.196,0.058-0.296,0.254-0.222,0.438l2.363,5.883c0.074,0.184,0.293,0.287,0.489,0.23
		C97.26,223.664,97.359,223.469,97.286,223.284"/>
	<path style="fill-rule:evenodd;clip-rule:evenodd;fill:#FFFFFF;" d="M93.224,218.208c-0.058-0.188-0.269-0.303-0.47-0.258
		c-0.201,0.047-0.316,0.236-0.257,0.425l1.871,5.997c0.059,0.188,0.269,0.303,0.47,0.257c0.201-0.046,0.316-0.235,0.258-0.424
		L93.224,218.208z"/>
	<path style="fill-rule:evenodd;clip-rule:evenodd;fill:#FFFFFF;" d="M91.67,218.595c-0.038-0.191-0.235-0.323-0.44-0.294
		c-0.205,0.029-0.34,0.207-0.302,0.398l1.22,6.129c0.038,0.191,0.235,0.324,0.44,0.296c0.205-0.029,0.34-0.209,0.302-0.4
		L91.67,218.595z"/>
	<path style="fill-rule:evenodd;clip-rule:evenodd;fill:#FFFFFF;" d="M89.767,218.977c-0.023-0.193-0.21-0.337-0.416-0.319
		c-0.207,0.018-0.356,0.189-0.331,0.382l0.755,6.182c0.024,0.193,0.21,0.336,0.417,0.317c0.206-0.017,0.355-0.188,0.331-0.381
		L89.767,218.977z"/>
	<path style="fill-rule:evenodd;clip-rule:evenodd;fill:#FFFFFF;" d="M80.244,217.113c-0.196-0.058-0.415,0.045-0.49,0.229
		l-2.362,5.885c-0.074,0.183,0.025,0.379,0.222,0.436c0.196,0.057,0.415-0.046,0.489-0.229l2.362-5.884
		C80.54,217.366,80.44,217.17,80.244,217.113"/>
	<path style="fill-rule:evenodd;clip-rule:evenodd;fill:#FFFFFF;" d="M81.923,217.892c-0.201-0.046-0.411,0.07-0.47,0.258
		l-1.871,5.997c-0.059,0.188,0.057,0.378,0.258,0.424c0.201,0.046,0.411-0.068,0.469-0.257l1.872-5.998
		C82.239,218.128,82.123,217.94,81.923,217.892"/>
	<path style="fill-rule:evenodd;clip-rule:evenodd;fill:#FFFFFF;" d="M83.447,218.242c-0.205-0.029-0.402,0.104-0.44,0.295
		l-1.22,6.129c-0.038,0.191,0.097,0.371,0.302,0.399c0.205,0.028,0.401-0.104,0.439-0.294l1.22-6.13
		C83.788,218.449,83.652,218.272,83.447,218.242"/>
	<path style="fill-rule:evenodd;clip-rule:evenodd;fill:#FFFFFF;" d="M85.328,218.599c-0.206-0.017-0.394,0.126-0.417,0.319
		l-0.755,6.181c-0.024,0.194,0.124,0.365,0.331,0.383c0.207,0.018,0.394-0.126,0.417-0.319l0.755-6.181
		C85.683,218.788,85.534,218.616,85.328,218.599"/>
	<path style="fill-rule:evenodd;clip-rule:evenodd;fill:#FFFFFF;" d="M87.399,218.651c-0.208-0.002-0.377,0.155-0.377,0.35
		l-0.018,6.21c-0.001,0.194,0.167,0.352,0.375,0.353c0.208,0,0.377-0.156,0.377-0.352l0.018-6.208
		C87.775,218.81,87.607,218.651,87.399,218.651"/>
	<path style="fill-rule:evenodd;clip-rule:evenodd;" d="M115.065,125.704c0,0,0.998,1.715,0.981,2.918
		c-0.013,1.029-0.612,2.206-1.351,2.879c-0.738,0.673-1.496,0.525-1.496,0.525s0.412-0.943-0.363-2.535
		c-0.774-1.593-1.502-1.939-2.057-1.866C110.226,127.699,115.065,125.704,115.065,125.704"/>
	<path style="fill-rule:evenodd;clip-rule:evenodd;" d="M59.532,125.704c0,0-0.998,1.715-0.982,2.918
		c0.013,1.029,0.612,2.206,1.351,2.879c0.739,0.673,1.496,0.525,1.496,0.525s-0.412-0.943,0.362-2.535
		c0.775-1.593,1.502-1.939,2.057-1.866C64.371,127.699,59.532,125.704,59.532,125.704"/>
	<path style="fill-rule:evenodd;clip-rule:evenodd;fill:#030303;" d="M106.928,117.731c0.349,1.035,0.354,2.622,1.63,2.622
		c0.642,0,1.337-0.35,1.337-0.972c0-1.424-3.759-2.777-4.132-4.375C105.528,115.026,106.592,116.734,106.928,117.731"/>
	<path style="fill-rule:evenodd;clip-rule:evenodd;fill:#FFFFFF;" d="M112.093,120.449c0,0,0,2.275,0.275,2.779
		c0.164,0.299,0.242,0.548,0.862,0.479c0.419-0.047,0.806-0.244,0.805-0.789c0-0.414-0.715-1.076-1.006-1.41
		C112.738,121.175,112.093,120.449,112.093,120.449"/>
	<path style="fill-rule:evenodd;clip-rule:evenodd;fill:#FFFFFF;" d="M62.383,120.515c0,0,0,2.284-0.277,2.79
		c-0.164,0.3-0.243,0.55-0.865,0.481c-0.421-0.047-0.809-0.245-0.809-0.792c0-0.416,0.718-1.081,1.01-1.415
		C61.735,121.244,62.383,120.515,62.383,120.515"/>
	<path style="fill-rule:evenodd;clip-rule:evenodd;fill:#FFFFFF;" d="M106.229,115.948L106.229,115.948
		c0.151,0.364,0.911,1.468,1.112,2.063c0.251,0.745,0.255,1.886,1.173,1.886c0.461,0,0.961-0.251,0.961-0.699
		C109.475,118.103,106.751,116.925,106.229,115.948"/>
	<path style="fill-rule:evenodd;clip-rule:evenodd;fill:#030303;" d="M106.759,116.609l-0.001,0.001
		c0.106,0.253,0.638,1.027,0.779,1.445c0.176,0.521,0.178,1.321,0.821,1.321c0.323,0,0.673-0.176,0.673-0.49
		C109.031,118.12,107.124,117.294,106.759,116.609"/>
	<path style="fill-rule:evenodd;clip-rule:evenodd;fill:#030303;" d="M67.887,117.587c-0.349,1.035-0.354,2.623-1.63,2.623
		c-0.642,0-1.337-0.35-1.337-0.972c0-1.424,3.759-2.777,4.132-4.375C69.287,114.883,68.223,116.591,67.887,117.587"/>
	<path style="fill-rule:evenodd;clip-rule:evenodd;fill:#FFFFFF;" d="M68.586,115.805L68.586,115.805
		c-0.151,0.363-0.911,1.467-1.112,2.063c-0.251,0.744-0.254,1.886-1.172,1.886c-0.462,0-0.961-0.252-0.961-0.699
		C65.34,117.96,68.063,116.782,68.586,115.805"/>
	<path style="fill-rule:evenodd;clip-rule:evenodd;fill:#030303;" d="M68.056,116.466l0.001,0.001
		c-0.106,0.254-0.638,1.027-0.779,1.446c-0.176,0.521-0.179,1.321-0.821,1.321c-0.323,0-0.673-0.176-0.673-0.49
		C65.784,117.977,67.691,117.151,68.056,116.466"/>
	<path style="fill-rule:evenodd;clip-rule:evenodd;fill:#DD7E26;" d="M98.136,154.947c-0.542-7.907-5.165-14.085-10.789-14.085
		c-5.624,0-10.247,6.177-10.789,14.085c0.298,4.339,1.824,8.157,4.07,10.72h-2.234c0,0,1.002,1.341,1.549,2.37
		c0.546,1.028,0.243,2.961,0.365,4.52c0.121,1.559,1.458,2.743,2.217,3.771c0.759,1.029,1.457,1.715,1.822,2.836
		c0.364,1.122,0.243,1.62,0,2.274c-0.243,0.654-1.033,1.651-1.033,1.651s0.365,1.34,0.334,1.776
		c-0.031,0.436-0.304,1.434-0.517,1.808l-0.212,0.374c0,0-0.243,0.717,0.152,0.997c0.395,0.28,0.455,0.405,1.184,0.374
		c0.291-0.013,0.607,0.006,0.891,0.025c0.426,0.028,0.779,0.057,0.871-0.021c0.152-0.129,1.106-0.16,1.282-0.16h0.024h0.023
		c0.175,0,1.13,0.031,1.282,0.16c0.091,0.078,0.444,0.05,0.87,0.021c0.284-0.02,0.6-0.038,0.892-0.025
		c0.729,0.031,0.789-0.094,1.184-0.374c0.395-0.281,0.152-0.997,0.152-0.997l-0.212-0.374c-0.212-0.374-0.486-1.371-0.517-1.808
		c-0.03-0.437,0.334-1.776,0.334-1.776s-0.79-0.997-1.033-1.651c-0.243-0.654-0.365-1.152,0-2.274
		c0.364-1.121,1.063-1.807,1.822-2.836c0.759-1.028,2.095-2.212,2.217-3.771c0.122-1.559-0.182-3.492,0.364-4.52
		c0.547-1.029,1.549-2.37,1.549-2.37h-2.187C96.311,163.104,97.838,159.287,98.136,154.947"/>
	<path style="fill-rule:evenodd;clip-rule:evenodd;fill:#FFFFFF;" d="M92.148,170.281c-0.059-0.435-0.208-0.858-0.922-1.324
		c-0.755-0.494-1.67-0.354-2.125-0.165c-0.501,0.209-1.254,0.82-1.254,0.82s0.148-2.157,0-2.901
		c-0.147-0.744-0.737-1.275-0.737-1.275s-0.59,0.531-0.737,1.275c-0.147,0.745,0,2.901,0,2.901s-0.753-0.611-1.254-0.82
		c-0.455-0.189-1.37-0.33-2.126,0.165c-0.712,0.466-0.862,0.89-0.922,1.324c-0.11,0.807,0.32,1.236,0.32,1.236
		s0.279-0.811,0.656-1.176c0.388-0.376,0.831-0.316,1.605-0.187c0.644,0.107,1.148,0.782,1.52,1.703
		c0.057,0.14,0.11,0.271,0.161,0.397c0.01,0.117,0.022,0.22,0.04,0.305c0.147,0.745,0.737,1.275,0.737,1.275s0.59-0.531,0.737-1.275
		c0.017-0.085,0.03-0.189,0.04-0.306c0.05-0.125,0.104-0.257,0.161-0.396c0.372-0.92,0.875-1.595,1.52-1.703
		c0.773-0.129,1.216-0.189,1.605,0.187c0.376,0.365,0.656,1.176,0.656,1.176S92.259,171.088,92.148,170.281"/>
	<path style="fill-rule:evenodd;clip-rule:evenodd;fill:#FFFFFF;" d="M87.763,176.251l0.182,0.654h0.623l0.532-0.95l0.379-0.156
		l0.304-0.374c0,0-0.41-0.311-0.622-0.28c-0.212,0.031-0.546,0.312-0.546,0.312L87.763,176.251z"/>
	<path style="fill-rule:evenodd;clip-rule:evenodd;fill:#FFFFFF;" d="M86.852,176.344l-0.182,0.655h-0.622l-0.531-0.951l-0.38-0.155
		l-0.304-0.374c0,0,0.41-0.312,0.623-0.281c0.213,0.031,0.546,0.312,0.546,0.312L86.852,176.344z"/>
	<path style="fill-rule:evenodd;clip-rule:evenodd;fill:#FFFFFF;" d="M87.034,177.856h0.896c-0.265,0.445-0.365,0.678-0.432,1.199
		c-0.268-0.246-0.53-0.84-0.556-1.199H87.034z"/>
	<path style="fill-rule:evenodd;clip-rule:evenodd;fill:#FFFFFF;" d="M88.097,138.928c-0.039,0-0.079-0.001-0.118-0.003
		c-1.222-0.062-2.192-1.067-2.192-2.299c0-1.233,0.97-2.239,2.192-2.302c0.039,0,0.079-0.002,0.118-0.002
		c0.335-0.001,0.654,0.072,0.941,0.199c-0.312-0.22-0.67-0.379-1.059-0.458c-0.189-0.04-0.384-0.061-0.586-0.061
		c-1.575,0-2.853,1.274-2.853,2.844c0,1.458,1.103,2.658,2.523,2.824l0.148,0.018h0.083l-0.061,1.261
		c-0.371,0.225-1.536,0.942-2.676,1.769H84.54l-0.002,0.015c-0.768,0.558-1.523,1.165-2.014,1.703
		c-1.377,1.51-3.404,4.501-3.794,7.55c-0.39,3.048-0.104,5.641-0.104,5.641h3.031c1.026-1.858,2.922-3.14,5.118-3.255v-5.399
		c-0.04-0.025-0.202-0.133-0.358-0.371c-0.179-0.273-0.128-0.778-0.128-0.778h0.205h0.042h0.238v-1.523h0.003l0.55-5.301h0.034
		l0.665,5.301h0.004v1.523h0.473c0,0,0.103,0.368-0.154,0.855c-0.071,0.135-0.2,0.241-0.357,0.319v5.432
		c1.95,0.288,3.609,1.503,4.545,3.198h3.528c0,0,0.286-2.593-0.104-5.641c-0.39-3.048-2.417-6.04-3.794-7.55
		c-0.507-0.556-1.295-1.184-2.089-1.757l0,0H90.08c-1.119-0.808-2.249-1.504-2.618-1.728l-0.102-1.263h0.159v-0.001h0.019
		c0.15-0.007,0.297-0.026,0.441-0.055c0.976-0.204,1.768-0.902,2.101-1.819C89.675,138.481,88.937,138.928,88.097,138.928"/>
	<path style="fill-rule:evenodd;clip-rule:evenodd;fill:#FFFFFF;" d="M93.979,159.736h-1.478c0,0,0,0.256-0.146,0.573
		c-0.147,0.317-0.43,0.776-1.35,1.226c-0.488,0.239-0.855,0.345-1.095,0.393c0.26,0.395,0.412,0.867,0.412,1.374
		c0,1.052-0.648,1.951-1.567,2.322c0.052,0.026,0.28,0.048,1.149-0.031c1.358-0.124,2.252-0.829,3.224-1.986
		C94.1,162.453,93.979,159.736,93.979,159.736"/>
	<path style="fill-rule:evenodd;clip-rule:evenodd;fill:#FFFFFF;" d="M80.155,159.736h1.479c0,0,0,0.256,0.146,0.573
		c0.146,0.317,0.43,0.776,1.35,1.226c0.488,0.239,0.856,0.345,1.095,0.393c-0.26,0.395-0.412,0.867-0.412,1.374
		c0,1.052,0.648,1.951,1.567,2.322c-0.052,0.026-0.28,0.048-1.149-0.031c-1.358-0.124-2.252-0.829-3.224-1.986
		C80.035,162.453,80.155,159.736,80.155,159.736"/>
	<path style="fill-rule:evenodd;clip-rule:evenodd;fill:#FFFFFF;" d="M87.487,205.935l-0.518-0.005l0.185-1.081l-0.013-0.01
		c-0.193-0.144-0.871-0.616-1.649-0.808c-0.865-0.212-1.413-0.354-1.479-0.371c0.044-0.059,0.075-0.128,0.09-0.205
		c0.051-0.271-0.12-0.552-0.393-0.669c0.134,0.045,0.387,0.127,0.823,0.249c0.122,0.035,0.248,0.068,0.376,0.105
		c0.488,0.14,1.018,0.326,1.523,0.764c0.494,0.427,0.68,0.776,0.739,0.914h0.045c0.058-0.135,0.243-0.487,0.74-0.918
		c0.506-0.438,1.035-0.623,1.524-0.764c0.129-0.037,0.254-0.07,0.376-0.104c0.437-0.123,0.689-0.205,0.823-0.249
		c-0.272,0.116-0.443,0.396-0.392,0.669c0.015,0.077,0.045,0.146,0.089,0.204c-0.066,0.018-0.615,0.159-1.479,0.371
		c-0.778,0.191-1.456,0.664-1.649,0.808l-0.015,0.012L87.487,205.935z"/>
	<path style="fill-rule:evenodd;clip-rule:evenodd;fill:#FFFFFF;" d="M124.671,179.94c-0.957,1.364-3.798,5.689-3.798,7.706v1.267
		c0,1.825,1.729,3.157,3.112,2.166c0.415-0.298,0.687-0.81,0.687-1.321c0-0.778-0.873-1.173-1.499-0.841
		c-0.38,0.202-0.339,0.613-1.03,0.63c-0.001-2.143,2.146-1.308,2.275-3.284c0.013-0.133,0.026-0.275,0.043-0.42
		c0.015-0.105,0.034-0.223,0.06-0.353c0.035-0.179,0.102-0.397,0.192-0.637c0.403-0.923,0.748-1.609,1.335-2.45
		c0.166-0.218,0.299-0.375,0.407-0.481c1.125-1.118-0.727,3.436-0.727,4.036l-0.001,0.316c0,1.072,0.528,1.623,0.528,2.956v0.527
		c0,1.609-1.303,2.725-2.744,3.061v0.422c0,0.46,0.95,0.808,0.95,1.267c0,1.277-1.122,1.476-1.163,2.741
		c-0.031,0.949-0.418,2.146-0.86,2.742c-0.03,0.041-0.052,0.064-0.09,0.099c-0.182-0.787-0.137-2.242-0.487-2.876
		c-0.146-0.265-0.242-0.48-0.307-0.666c-0.082-0.259-0.1-0.486-0.144-0.797c-0.019-0.302-0.032-0.626-0.202-1.155
		c-0.055-0.168-0.104-0.272-0.149-0.343c-4.371-6.639-0.186-7.329-0.186-12.727v-0.105c0-1.643-0.911-1.709-1.52-2.714
		c-0.154-0.258-0.259-0.568-0.273-0.989c-0.016-1.139,0.374-1.907,0.656-2.748c0.163-0.466,0.292-0.939,0.292-1.464v-0.528
		c0-0.406-0.199-0.794-0.483-1.171c-0.65-0.861-1.851-1.67-1.944-2.809c0-0.363,0.002-0.726,0.003-1.089
		c2.523-0.591,2.722,0.831,3.69,2.852c0.1-0.073,0.185-0.17,0.268-0.274c1.114-1.326,2.476-0.631,2.476,0.908
		c0,0.845-1.583,0.65-1.583,1.162v0.105c0,0.159,2.919,3.216,1.233,3.815c-0.206,0.073-0.458,0.051-0.706-0.12v-0.354
		c0.089-1.608-2.075-1.355-2.459,0.203c-0.547,2.219,2.014,4.199,4.023,1.704c2.729-3.389,2.824-8.62-1.356-10.977
		c-3.048-1.719-7.517-2.721-10.816-4.398c-0.442-0.225-2.077-0.915-1.793-1.552c0.035-0.079,0.083-0.148,0.14-0.207
		c0.169-0.154,0.423-0.256,0.651-0.256h0.106c0.625,0,0.894,0.278,1.266,0.527c0.222-0.292,0.094-0.587,0.657-0.863
		c0.592-0.271,1.16-0.009,1.454,0.547c0.531-0.123,0.693-0.422,1.372-0.422c1.408,0,2.117,1.583,0,1.583
		C116.849,164.553,135.827,164.041,124.671,179.94"/>
	<path style="fill-rule:evenodd;clip-rule:evenodd;fill:#FFFFFF;" d="M49.742,179.94c0.957,1.364,3.798,5.689,3.798,7.706v1.267
		c0,1.825-1.73,3.157-3.112,2.166c-0.416-0.298-0.687-0.81-0.687-1.321c0-0.778,0.873-1.173,1.5-0.841
		c0.38,0.202,0.339,0.613,1.03,0.63c0.002-2.143-2.145-1.308-2.275-3.284c-0.013-0.133-0.026-0.275-0.043-0.42
		c-0.015-0.105-0.034-0.223-0.06-0.353c-0.035-0.179-0.102-0.397-0.193-0.637c-0.403-0.923-0.748-1.609-1.335-2.45
		c-0.166-0.218-0.3-0.375-0.407-0.481c-1.125-1.118,0.727,3.436,0.727,4.036v0.316c0,1.072-0.527,1.623-0.527,2.956v0.527
		c0,1.609,1.303,2.725,2.744,3.061v0.422c0,0.46-0.95,0.808-0.95,1.267c0,1.277,1.122,1.476,1.164,2.741
		c0.031,0.949,0.418,2.146,0.859,2.742c0.03,0.041,0.052,0.064,0.09,0.099c0.182-0.787,0.138-2.242,0.487-2.876
		c0.146-0.265,0.242-0.48,0.307-0.666c0.082-0.259,0.101-0.486,0.145-0.797c0.019-0.302,0.032-0.626,0.203-1.155
		c0.054-0.168,0.103-0.272,0.149-0.343c4.37-6.639,0.185-7.329,0.185-12.727v-0.105c0-1.643,0.911-1.709,1.52-2.714
		c0.153-0.258,0.259-0.568,0.273-0.989c0.016-1.139-0.374-1.907-0.656-2.748c-0.163-0.466-0.292-0.939-0.292-1.464v-0.528
		c0-0.406,0.199-0.794,0.483-1.171c0.65-0.861,1.851-1.67,1.944-2.809c0-0.363-0.002-0.726-0.003-1.089
		c-2.524-0.591-2.721,0.831-3.691,2.852c-0.1-0.073-0.185-0.17-0.268-0.274c-1.115-1.326-2.476-0.631-2.476,0.908
		c0,0.845,1.583,0.65,1.583,1.162v0.105c0,0.159-2.919,3.216-1.233,3.815c0.206,0.073,0.458,0.051,0.706-0.12v-0.354
		c-0.089-1.608,2.075-1.355,2.459,0.203c0.547,2.219-2.014,4.199-4.024,1.704c-2.729-3.389-2.824-8.62,1.356-10.977
		c3.048-1.719,7.517-2.721,10.816-4.398c0.442-0.225,2.077-0.915,1.792-1.552c-0.035-0.079-0.083-0.148-0.14-0.207
		c-0.169-0.154-0.423-0.256-0.651-0.256h-0.105c-0.626,0-0.895,0.278-1.267,0.527h0.001c-0.223-0.292-0.094-0.587-0.657-0.863
		c-0.592-0.271-1.16-0.009-1.455,0.547c-0.531-0.123-0.693-0.422-1.372-0.422c-1.408,0-2.117,1.583,0,1.583
		C57.564,164.553,38.586,164.041,49.742,179.94"/>
	<path style="fill-rule:evenodd;clip-rule:evenodd;fill:#FFFFFF;" d="M98.042,170.984c0.758,0.258,1.486,0.292,2.187,0.122
		c-0.048-8.595,1.939-18.876,7.685-25.965c0.303-0.416,0.625-0.831,0.699-1.258c-0.567,0.053-0.965,0.517-1.348,0.888
		c-1.657,1.849-3.413,4.832-4.453,7.117C100.325,157.354,98.514,164.385,98.042,170.984"/>
	<path style="fill-rule:evenodd;clip-rule:evenodd;fill:#FFFFFF;" d="M76.613,170.972c-0.758,0.258-1.486,0.292-2.187,0.122
		c0.047-8.595-1.939-18.876-7.685-25.965c-0.304-0.416-0.626-0.831-0.7-1.258c0.567,0.053,0.966,0.518,1.348,0.888
		c1.657,1.849,3.413,4.831,4.453,7.117C74.329,157.341,76.141,164.373,76.613,170.972"/>
	<path style="fill-rule:evenodd;clip-rule:evenodd;fill:#FFFFFF;" d="M122.36,141.86c-0.07,0.006-0.141,0.004-0.215-0.002
		l-1.189-0.141l2.184,3.06c0.354-0.927,1.656-1.538,2.583-1.735c1.032-0.219,2.125-0.088,3.011,0.556
		c1.61,1.171,1.963,3.429,1.192,5.176c-0.694,1.574-2.502,2.41-4.093,1.896c-0.957-0.309-1.559-1.611-1.656-2.529
		c-0.079-0.744,0.11-1.618,0.456-2.107c0.792-1.115,2.937-1.39,3.54,0.079c0.131,0.318,0.196,0.682,0.192,1.039
		c-0.024,2.153-2.597,2.225-2.308,0.604c0.114-0.64,0.818-0.42,0.648-1.221c-0.001-0.006-1.049,0.247-1.186,1.139
		c-0.07,0.461-0.086,0.802,0.164,1.203c0.12,0.193,0.277,0.368,0.444,0.486c0.438,0.31,1.163,0.248,1.759,0.014
		c0.938-0.368,1.377-1.174,1.511-2.149c0.536-3.9-4.913-4.608-6.203-1.211c-0.252,0.665-0.233,2.502-0.122,3.242
		c0.544,3.61,4.099,5.059,6.827,3.025c0.876-0.652,1.478-1.447,1.868-1.551c0.116,0.771,1.256,5.838,0.772,8.174
		c-0.109,0.525-0.316,1.096-0.911,1.162c-0.637,0.071-0.858,0.107-1.024-0.502c-0.158-0.633-2.092-0.465-1.025,1.13
		c-0.598,0.119-1.13,0.182-1.741,0.338c-0.164,0.042-0.313-0.134-0.438-0.23c-1.098-0.851-1.139-1.896-2.479-2.971
		c-1.696-1.361-3.421-0.447-4.82-1.159c-0.476-0.242-1.277-1.048-1.702-1.083c0.066,0.793,0.877,1.416,1.58,1.58v0.607
		c0,0.421-0.406,1.135-0.693,0.703c-0.214-0.321-0.791-1.077-1.331-1.785c-2.987-4.043-5.207-8.691-6.353-13.59
		c-0.001-0.003-0.008-0.031-0.008-0.031c2.136-1.13,5.026-2.552,8.264-2.552h1.094c0.594,0,2.187-0.075,2.187,0.486
		C123.14,141.38,122.776,141.8,122.36,141.86"/>
	<path style="fill-rule:evenodd;clip-rule:evenodd;fill:#FFFFFF;" d="M51.915,141.671c0.07,0.006,0.141,0.004,0.216-0.001
		l1.188-0.141l-2.184,3.06c-0.354-0.926-1.657-1.539-2.583-1.735c-1.032-0.218-2.125-0.088-3.011,0.556
		c-1.61,1.17-1.963,3.428-1.193,5.175c0.695,1.574,2.502,2.41,4.094,1.896c0.958-0.309,1.559-1.611,1.656-2.529
		c0.079-0.744-0.11-1.619-0.457-2.107c-0.792-1.115-2.937-1.39-3.54,0.079c-0.13,0.318-0.195,0.682-0.191,1.039
		c0.024,2.153,2.597,2.225,2.308,0.604c-0.114-0.639-0.818-0.419-0.648-1.22c0.001-0.006,1.049,0.247,1.186,1.139
		c0.07,0.461,0.086,0.802-0.164,1.203c-0.121,0.193-0.277,0.368-0.444,0.485c-0.439,0.31-1.163,0.248-1.759,0.014
		c-0.938-0.368-1.377-1.175-1.511-2.149c-0.537-3.901,4.912-4.608,6.202-1.21c0.252,0.665,0.233,2.502,0.122,3.242
		c-0.544,3.61-4.099,5.059-6.827,3.024c-0.875-0.652-1.477-1.447-1.868-1.551c-0.116,0.771-1.256,5.837-0.772,8.174
		c0.109,0.524,0.316,1.096,0.911,1.163c0.637,0.071,0.858,0.107,1.024-0.502c0.157-0.632,2.092-0.464,1.024,1.13
		c0.598,0.118,1.13,0.183,1.741,0.338c0.164,0.042,0.313-0.134,0.437-0.23c1.098-0.851,1.139-1.895,2.479-2.971
		c1.696-1.361,3.42-0.447,4.821-1.159c0.476-0.242,1.277-1.048,1.702-1.083c-0.066,0.793-0.876,1.416-1.58,1.58v0.607
		c0,0.421,0.406,1.135,0.693,0.703c0.214-0.322,0.791-1.077,1.33-1.785c2.987-4.042,5.207-8.691,6.353-13.59
		c0.001-0.003,0.008-0.031,0.008-0.031c-2.136-1.131-5.026-2.552-8.264-2.552h-1.094c-0.595,0-2.187-0.075-2.187,0.486
		C51.135,141.19,51.498,141.61,51.915,141.671"/>
	<path style="fill-rule:evenodd;clip-rule:evenodd;fill:#FFFFFF;" d="M88.51,205.63c0.325,0,0.589,0.264,0.589,0.589
		c0,0.325-0.264,0.589-0.589,0.589c-0.326,0-0.589-0.264-0.589-0.589C87.921,205.894,88.185,205.63,88.51,205.63 M88.51,205.384
		c-0.462,0-0.836,0.374-0.836,0.835c0,0.461,0.374,0.835,0.836,0.835c0.461,0,0.834-0.374,0.834-0.835
		C89.345,205.758,88.971,205.384,88.51,205.384"/>
	<path style="fill-rule:evenodd;clip-rule:evenodd;fill:#FFFFFF;" d="M90.553,206.344c0.326,0,0.589,0.264,0.589,0.59
		c0,0.325-0.264,0.589-0.589,0.589s-0.589-0.264-0.589-0.589C89.964,206.607,90.227,206.344,90.553,206.344 M90.553,206.099
		c-0.461,0-0.835,0.374-0.835,0.835c0,0.461,0.373,0.835,0.835,0.835c0.461,0,0.835-0.374,0.835-0.835
		C91.388,206.473,91.014,206.099,90.553,206.099"/>
	<path style="fill-rule:evenodd;clip-rule:evenodd;fill:#FFFFFF;" d="M89.635,208.316c0.325,0,0.589,0.264,0.589,0.589
		s-0.264,0.589-0.589,0.589c-0.326,0-0.589-0.264-0.589-0.589S89.31,208.316,89.635,208.316 M89.635,208.07
		c-0.462,0-0.835,0.374-0.835,0.835c0,0.461,0.373,0.835,0.835,0.835c0.461,0,0.835-0.374,0.835-0.835
		C90.47,208.444,90.097,208.07,89.635,208.07"/>
	<path style="fill-rule:evenodd;clip-rule:evenodd;fill:#FFFFFF;" d="M87.215,207.311c0.325,0,0.589,0.264,0.589,0.59
		c0,0.325-0.264,0.589-0.589,0.589c-0.326,0-0.589-0.264-0.589-0.589C86.625,207.574,86.889,207.311,87.215,207.311 M87.215,207.065
		c-0.461,0-0.835,0.373-0.835,0.835c0,0.461,0.373,0.834,0.835,0.834c0.461,0,0.835-0.373,0.835-0.834
		C88.05,207.439,87.676,207.065,87.215,207.065"/>
	<path style="fill-rule:evenodd;clip-rule:evenodd;fill:#FFFFFF;" d="M85.96,205.629c0.325,0,0.589,0.264,0.589,0.589
		c0,0.325-0.264,0.589-0.589,0.589c-0.325,0-0.589-0.264-0.589-0.589C85.371,205.893,85.635,205.629,85.96,205.629 M85.96,205.383
		c-0.462,0-0.835,0.374-0.835,0.835c0,0.461,0.373,0.835,0.835,0.835c0.461,0,0.835-0.374,0.835-0.835
		C86.795,205.757,86.421,205.383,85.96,205.383"/>
	<path style="fill-rule:evenodd;clip-rule:evenodd;fill:#FFFFFF;" d="M84.063,206.469c0.326,0,0.589,0.264,0.589,0.59
		c0,0.325-0.264,0.589-0.589,0.589c-0.326,0-0.589-0.264-0.589-0.589C83.474,206.732,83.737,206.469,84.063,206.469 M84.063,206.224
		c-0.461,0-0.835,0.373-0.835,0.835c0,0.461,0.374,0.835,0.835,0.835c0.461,0,0.835-0.374,0.835-0.835
		C84.898,206.597,84.524,206.224,84.063,206.224"/>
	<path style="fill-rule:evenodd;clip-rule:evenodd;fill:#FFFFFF;" d="M85.148,208.338c0.325,0,0.589,0.265,0.589,0.59
		s-0.264,0.589-0.589,0.589c-0.326,0-0.589-0.264-0.589-0.589S84.823,208.338,85.148,208.338 M85.148,208.093
		c-0.461,0-0.835,0.374-0.835,0.835c0,0.461,0.374,0.835,0.835,0.835c0.461,0,0.835-0.374,0.835-0.835
		C85.983,208.467,85.609,208.093,85.148,208.093"/>
	<path style="fill-rule:evenodd;clip-rule:evenodd;fill:#FFFFFF;" d="M87.283,209.496c0.326,0,0.589,0.265,0.589,0.59
		c0,0.325-0.264,0.589-0.589,0.589c-0.325,0-0.589-0.264-0.589-0.589C86.694,209.761,86.958,209.496,87.283,209.496 M87.283,209.251
		c-0.461,0-0.835,0.373-0.835,0.835c0,0.461,0.374,0.835,0.835,0.835c0.461,0,0.835-0.374,0.835-0.835
		C88.118,209.624,87.745,209.251,87.283,209.251"/>
	<path style="fill-rule:evenodd;clip-rule:evenodd;fill:#FFFFFF;" d="M89.049,210.676c0.325,0,0.589,0.264,0.589,0.589
		c0,0.325-0.264,0.589-0.589,0.589c-0.325,0-0.589-0.264-0.589-0.589C88.459,210.94,88.724,210.676,89.049,210.676 M89.049,210.43
		c-0.461,0-0.835,0.374-0.835,0.835c0,0.461,0.374,0.835,0.835,0.835c0.462,0,0.835-0.374,0.835-0.835
		C89.884,210.804,89.51,210.43,89.049,210.43"/>
	<path style="fill-rule:evenodd;clip-rule:evenodd;fill:#FFFFFF;" d="M87.283,211.805c0.326,0,0.589,0.264,0.589,0.589
		c0,0.325-0.264,0.589-0.589,0.589c-0.325,0-0.589-0.264-0.589-0.589C86.694,212.068,86.958,211.805,87.283,211.805 M87.283,211.559
		c-0.461,0-0.835,0.374-0.835,0.835c0,0.461,0.374,0.835,0.835,0.835c0.461,0,0.835-0.374,0.835-0.835
		C88.118,211.933,87.745,211.559,87.283,211.559"/>
	<path style="fill-rule:evenodd;clip-rule:evenodd;fill:#FFFFFF;" d="M85.644,210.674c0.325,0,0.589,0.264,0.589,0.59
		c0,0.325-0.264,0.589-0.589,0.589c-0.325,0-0.589-0.264-0.589-0.589C85.055,210.938,85.319,210.674,85.644,210.674 M85.644,210.429
		c-0.461,0-0.835,0.374-0.835,0.835c0,0.461,0.374,0.834,0.835,0.834c0.462,0,0.835-0.373,0.835-0.834
		C86.479,210.803,86.106,210.429,85.644,210.429"/>
	<path style="fill-rule:evenodd;clip-rule:evenodd;fill:#FFFFFF;" d="M87.408,213.862c0.325,0,0.589,0.265,0.589,0.59
		c0,0.325-0.264,0.589-0.589,0.589c-0.325,0-0.589-0.264-0.589-0.589C86.819,214.127,87.083,213.862,87.408,213.862 M87.408,213.617
		c-0.461,0-0.835,0.373-0.835,0.835c0,0.461,0.374,0.835,0.835,0.835c0.461,0,0.835-0.374,0.835-0.835
		C88.243,213.99,87.869,213.617,87.408,213.617"/>
	<path d="M80.653,230.842c0.307-0.07,0.593-0.149,0.857-0.236c0.265-0.087,0.51-0.177,0.736-0.271l0.051,0.039
		c-0.01,0.08-0.019,0.165-0.025,0.256c-0.007,0.09-0.012,0.179-0.016,0.268c-0.003,0.089-0.006,0.172-0.007,0.251
		c-0.002,0.079-0.002,0.147-0.002,0.205v2.422c0,0.078,0.006,0.145,0.017,0.201c0.012,0.056,0.046,0.104,0.102,0.142
		c0.056,0.039,0.14,0.068,0.253,0.087c0.113,0.02,0.271,0.031,0.473,0.034l-0.01,0.174c-0.108,0-0.251-0.002-0.428-0.005
		c-0.177-0.003-0.409-0.005-0.695-0.005c-0.287,0-0.532,0.002-0.736,0.005c-0.204,0.003-0.354,0.005-0.448,0.005l-0.015-0.164
		c0.219-0.003,0.392-0.015,0.517-0.034c0.125-0.018,0.217-0.055,0.278-0.106c0.061-0.051,0.099-0.122,0.114-0.214
		c0.015-0.092,0.022-0.21,0.022-0.355v-2.635l-0.997,0.141L80.653,230.842z"/>
	<path d="M84.694,232.087c-0.264-0.122-0.473-0.276-0.627-0.461c-0.156-0.185-0.233-0.407-0.233-0.668
		c0-0.186,0.039-0.358,0.119-0.515c0.079-0.155,0.188-0.29,0.324-0.402c0.136-0.113,0.295-0.2,0.475-0.264
		c0.18-0.062,0.372-0.094,0.574-0.094c0.212,0,0.399,0.031,0.559,0.094c0.16,0.064,0.295,0.145,0.405,0.244
		c0.109,0.1,0.191,0.212,0.245,0.338c0.054,0.125,0.081,0.251,0.081,0.376c0,0.074-0.01,0.152-0.03,0.234
		c-0.021,0.082-0.064,0.171-0.131,0.266c-0.068,0.095-0.165,0.197-0.291,0.309c-0.127,0.111-0.296,0.232-0.509,0.364
		c0.317,0.129,0.573,0.296,0.767,0.502c0.193,0.206,0.29,0.457,0.29,0.753c0,0.202-0.045,0.387-0.134,0.553
		c-0.089,0.166-0.208,0.307-0.356,0.425c-0.148,0.117-0.319,0.208-0.511,0.272c-0.192,0.064-0.391,0.097-0.597,0.097
		c-0.192,0-0.374-0.023-0.546-0.07c-0.172-0.047-0.323-0.116-0.453-0.207c-0.13-0.092-0.233-0.207-0.309-0.346
		c-0.076-0.138-0.114-0.301-0.114-0.487c0-0.07,0.008-0.152,0.025-0.246c0.017-0.093,0.059-0.195,0.126-0.307
		c0.067-0.11,0.167-0.23,0.301-0.357C84.278,232.363,84.461,232.229,84.694,232.087 M84.952,232.217
		c-0.203,0.136-0.358,0.284-0.466,0.447c-0.108,0.162-0.162,0.355-0.162,0.581c0,0.139,0.022,0.268,0.068,0.389
		c0.045,0.12,0.11,0.226,0.195,0.315c0.084,0.091,0.188,0.162,0.311,0.215c0.123,0.054,0.261,0.08,0.413,0.08
		c0.125,0,0.238-0.022,0.339-0.067c0.101-0.045,0.186-0.107,0.256-0.184c0.068-0.077,0.122-0.167,0.159-0.268
		c0.037-0.102,0.055-0.209,0.055-0.321c0-0.157-0.031-0.296-0.093-0.415c-0.062-0.119-0.146-0.225-0.253-0.316
		c-0.106-0.091-0.23-0.173-0.372-0.246C85.261,232.355,85.11,232.285,84.952,232.217 M85.387,231.783
		c0.203-0.109,0.357-0.246,0.465-0.41c0.108-0.164,0.162-0.352,0.162-0.565c0-0.147-0.024-0.276-0.073-0.386
		c-0.049-0.109-0.111-0.199-0.188-0.27c-0.076-0.071-0.162-0.123-0.258-0.157c-0.096-0.034-0.191-0.051-0.286-0.051
		c-0.122,0-0.232,0.02-0.331,0.061c-0.1,0.04-0.183,0.096-0.251,0.166c-0.067,0.071-0.119,0.153-0.157,0.246
		c-0.037,0.094-0.055,0.193-0.055,0.3c0,0.145,0.021,0.269,0.063,0.371c0.042,0.104,0.104,0.194,0.187,0.275
		c0.083,0.08,0.184,0.152,0.304,0.217C85.089,231.645,85.228,231.712,85.387,231.783"/>
	<path d="M89.853,229.925c-0.331,0.074-0.617,0.179-0.86,0.313c-0.243,0.136-0.451,0.295-0.623,0.479
		c-0.172,0.183-0.311,0.388-0.415,0.615c-0.104,0.227-0.181,0.467-0.228,0.721c0.172-0.115,0.348-0.201,0.529-0.258
		c0.18-0.057,0.358-0.084,0.534-0.084s0.342,0.027,0.501,0.084c0.159,0.057,0.298,0.138,0.418,0.244
		c0.12,0.105,0.214,0.236,0.283,0.393c0.069,0.156,0.104,0.332,0.104,0.528c0,0.22-0.038,0.423-0.114,0.611
		c-0.076,0.188-0.182,0.352-0.319,0.491c-0.136,0.141-0.3,0.25-0.491,0.329c-0.191,0.078-0.4,0.118-0.63,0.118
		c-0.253,0-0.473-0.048-0.66-0.143c-0.187-0.095-0.342-0.223-0.465-0.384c-0.124-0.161-0.215-0.347-0.273-0.558
		c-0.059-0.21-0.088-0.43-0.088-0.658c0-0.402,0.062-0.774,0.187-1.117s0.305-0.646,0.541-0.912
		c0.237-0.266,0.522-0.487,0.858-0.666c0.336-0.179,0.716-0.307,1.141-0.384L89.853,229.925z M87.713,232.294
		c-0.007,0.052-0.012,0.105-0.015,0.157c-0.004,0.053-0.005,0.107-0.005,0.162c0,0.15,0.015,0.321,0.043,0.511
		c0.028,0.191,0.081,0.369,0.157,0.536c0.076,0.167,0.179,0.308,0.309,0.42c0.13,0.112,0.296,0.169,0.498,0.169
		c0.132,0,0.246-0.027,0.342-0.082c0.096-0.055,0.175-0.13,0.238-0.225c0.062-0.095,0.11-0.206,0.142-0.333
		c0.032-0.127,0.048-0.263,0.048-0.408c0-0.157-0.02-0.302-0.058-0.434c-0.039-0.132-0.098-0.244-0.177-0.336
		c-0.08-0.092-0.181-0.163-0.304-0.215c-0.123-0.051-0.269-0.077-0.438-0.077c-0.125,0-0.259,0.015-0.402,0.044
		C87.946,232.213,87.821,232.249,87.713,232.294"/>
	<path d="M90.924,232.266c0.155-0.077,0.314-0.135,0.476-0.172c0.162-0.036,0.319-0.055,0.471-0.055
		c0.202,0,0.394,0.031,0.574,0.094c0.181,0.062,0.337,0.152,0.471,0.268c0.133,0.116,0.239,0.257,0.318,0.423
		c0.08,0.165,0.119,0.351,0.119,0.557c0,0.273-0.06,0.52-0.182,0.736c-0.122,0.217-0.283,0.401-0.483,0.553
		c-0.201,0.151-0.431,0.267-0.691,0.348c-0.26,0.08-0.526,0.12-0.799,0.12c-0.078,0-0.165-0.005-0.261-0.015
		c-0.096-0.01-0.186-0.028-0.27-0.058c-0.085-0.029-0.155-0.071-0.213-0.128c-0.057-0.057-0.086-0.131-0.086-0.225
		c0-0.038,0.01-0.077,0.03-0.115c0.021-0.039,0.047-0.073,0.079-0.105c0.032-0.03,0.069-0.057,0.111-0.079
		c0.042-0.022,0.085-0.039,0.129-0.048h0.025c0.054,0.063,0.118,0.121,0.192,0.171c0.074,0.05,0.153,0.093,0.238,0.128
		c0.084,0.035,0.171,0.062,0.261,0.082c0.089,0.02,0.178,0.029,0.266,0.029c0.169,0,0.317-0.032,0.445-0.095
		c0.128-0.062,0.235-0.148,0.322-0.253c0.086-0.106,0.15-0.228,0.192-0.365c0.042-0.136,0.063-0.28,0.063-0.432
		c0-0.183-0.03-0.349-0.088-0.497c-0.059-0.148-0.144-0.274-0.253-0.379c-0.109-0.104-0.244-0.184-0.402-0.238
		c-0.159-0.055-0.337-0.082-0.537-0.082c-0.128,0-0.263,0.015-0.405,0.046c-0.142,0.03-0.268,0.065-0.379,0.103l-0.071-0.062
		c0.04-0.322,0.099-0.662,0.175-1.022c0.076-0.358,0.156-0.723,0.24-1.093c0.151,0,0.301,0.002,0.448,0.005
		c0.146,0.004,0.308,0.005,0.483,0.005c0.098,0,0.201-0.001,0.309-0.002c0.108-0.002,0.216-0.003,0.324-0.005
		c0.108-0.002,0.212-0.003,0.314-0.005c0.101-0.002,0.194-0.003,0.278-0.003l-0.106,0.556l-1.852-0.039
		c-0.064,0.238-0.117,0.463-0.157,0.673C91,231.803,90.961,232.027,90.924,232.266"/>
</g>
</svg>
