<?xml version="1.0" encoding="UTF-8"?>
<svg id="Layer_2" data-name="Layer 2" xmlns="http://www.w3.org/2000/svg" viewBox="0 0 213.65 213.65">
  <defs>
    <style>
      .cls-1 {
        fill: #76d0b7;
      }

      .cls-1, .cls-2, .cls-3 {
        fill-rule: evenodd;
      }

      .cls-2 {
        fill: #fff;
      }

      .cls-3 {
        fill: #253a8f;
      }
    </style>
  </defs>
  <g id="svg1">
    <g id="g1">
      <path id="path2" class="cls-3" d="M0,106.83C0,47.82,47.82,0,106.83,0s106.83,47.82,106.83,106.83-47.82,106.83-106.83,106.83S0,165.83,0,106.83"/>
      <path id="path3" class="cls-2" d="M37.46,106.83c0-38.31,31.06-69.37,69.37-69.37s69.37,31.06,69.37,69.37-31.06,69.37-69.37,69.37-69.37-31.06-69.37-69.37"/>
      <path id="path4" class="cls-1" d="M150.37,141.92c-.27.27-1.06-.17-.89.65-.62-.03-.86.68-1.4.65v.34c-.58-.03-.92.65-1.54.51l-1.74.55.1.34c-.58.03-1.06.55-1.4.89-1.57.24-2.57,1.57-4,1.85-.79,0-.99,1.33-2.09.86-.14.48-.72-.07-.86.41l.14.14c-.99-.21-1.03.89-2.09.62-.86.79-1.71.72-2.6,1.3,0,.31.03-.1-.1-.1-.17.03-.38-.1-.48.1l.24.24c-.65-.27-.89.45-1.5.21l-.24.21c-.31-.58-1.47.99-2.09.17-.45.41-1.03.51-1.54.72.07.1.14.14.14.27-.14-.21-.38-.14-.58-.14-.17.21-.41.24-.58.07-.38.21-.79.1-1.06.44l.1.14c-.24,0-.62-.34-.79.07l.1.14c-.55.41-1.13-.44-1.64.17.14.21.34.27.58.24-.85-.31-1.4.51-2.09.27-.1.1-.17.27-.34.24-.34-.03-.55-.03-1.06-.03l-.2.21c-.07-.07-.14-.14-.24-.1-.07.1-.31.14-.24.34-.14-.14-.24-.34-.48-.27l-.34.34c-.58-.14-1.27.17-1.85.27-.44.21-.65.68-1.16.34-.62.34-2.05-.41-1.98.51-.68.82-.96-.86-1.64.03-.14-.07-.31-.1-.44-.24-.1.14-.31.24-.21.44-.34-.34-.58.14-.96.1-1.13.14-2.16.03-3.22,0-.27.27-.89-.17-.96.41-.1.03-.17-.07-.21-.1-.14.03-.14.24-.14.31-.65-.82-1.71.07-2.53-.41-.17.17-.44.07-.68.1-.38-.03-.79-.03-1.13-.03-.58.1-1.16.17-1.74.27.2-.31.72.14.92-.31-.38-.14-.92-.31-1.27-.17-.07-.14-.24-.14-.34-.14-.07.07-.14.1-.14.24l.58.34c-.31-.21-.89-.07-1.03-.48l-1.95-.21-.24.24c.17.44.58.17.89.27-.17.21-.55.07-.79.07-.07-.34-.31-.55-.68-.48l-.24.24s.14.1.1.21c-.51.14-.79-.79-1.27-.14l.24.24h-.24c.03-.58-.58-.41-.89-.62-.07.03-.14.1-.14.24l.21.2c-.21-.03-.51.1-.65-.14l.44-.2c-.62-.86-1.4.58-1.95-.44-.27-.1-.38.24-.58.34-.14-.21-.34-.27-.58-.24l-.21.24.07.1c-.07.03-.14-.07-.21-.14.17-.07.14-.24.14-.34-.27-.38-.92-.27-1.27-.14-.21.07-.1.31-.14.44,0-.31-.38-.31-.55-.48l-.24.21c.07.07.14.14.1.24-.21-.44-.68-.41-1.03-.62-.34.31-.75-.27-1.16.1-.17-.07-.44.03-.55-.14.03-.1.14-.14.1-.24-.55-.65-1.4.24-1.95-.41-.1.17-.34.03-.58.1-.07-.86-.96-.38-1.47-.55-.38.24-.68-.62-1.13-.14,0-.14-.07-.21-.14-.24l-.31-.03c-.07-.1.03-.17.1-.24-.21-.31-.48.1-.68.1-.17.31.21.31.31.48l-.68-.24c.14,0,.27.03.38-.1,0-.21-.24-.34-.34-.48-.14,0-.31,0-.34-.14-.38.31-.68-.14-1.03-.17l-.1-.1c-.48.24-.85-.38-1.27-.51-.34.38-.75-.24-1.03-.03-.65-.24-1.37-.99-2.09-.41.14-.17.38-.27.38-.48-.38-.38-.72.17-1.16-.03l-1.27-.41c.07-.03.17-.1.14-.21-.07-.14-.24-.14-.34-.14l-.1.14c-.1-.44-.68-.68-1.13-.75-.68.1-.79-.99-1.51-.75-.14-.44-.44-.07-.68-.03.14-.14.51-.14.38-.44-.21-.24-.55-.14-.82-.17l.48-.44c-.34-.38-.79-.24-1.13-.27l.34-.21c-.21-.48-.82-.1-1.13-.41.21.03.44,0,.58-.17.17-.34-.24-.38-.34-.51-.21.03-.44-.1-.58.1-.21-.31-.45-.44-.79-.48l.48-.34c-.51-.82-1.33.07-1.81-.75.38-.2.89.72.92-.1-.38-.27-.68-.62-1.23-.51.1-.21.44-.27.34-.55-.24-.38-.65-.14-.89-.27.03.34.44-.65-.14-.24-.44-.41-.48-1.27-1.33-1.2l.38-.38c-.07-.07-.17-.17-.27-.24h90.75"/>
      <path id="path5" class="cls-2" d="M87.05,141.92v7.05s-3.38,0-3.38,0v-7.05s3.38,0,3.38,0"/>
      <path id="path6" class="cls-2" d="M136.68,149.1h-.04c-.14-.02-.26-.02-.36,0l-52.61-.03v-3.39l59.97.03-.14.14c-1.57.24-2.57,1.57-4,1.85-.79,0-.99,1.33-2.09.86-.14.48-.72-.07-.86.41l.13.13"/>
      <path id="path7" class="cls-1" d="M111.14,119.11c-.27.31-.65.65-.99.72l.31.38c-.24.24-.38-.03-.58-.14-1.2,1.78-3.15,1.57-4.89,2.5-.1.48-.92.03-.86.65-.55-.31-.89.65-1.27-.03-.07.07-.17.1-.1.24l.07.14c-.41.17-1.16-.03-1.27.51-.48.2-.68.34-1.13.1l-.86.65c.1.1.17.27.34.24.07.17-.17.24-.24.34.48.41.86-.31,1.5-.17,2.98.24,6.47-.03,9.58.1.65-.65,1.78-.58,2.67-.38.1-.17.31-.07.44-.1l.1.14.48-.44c.51.17,1.16-.27,1.74.07.82-1.03,2.09.21,3.01-.48.1,0,.27.45.45.14.1-.34.72-.34,1.06-.44.48.03,1.33.07,1.64-.41.48-.03.99.03,1.37-.31.1.21.31.1.48.14.89-.92,2.26.03,3.39-.68l-.58-.48c.79.03,1.68.1,2.09-.51.1.1.24.48.58.34.03-.03.14-.1.1-.2-.07-.14-.24-.14-.34-.14.68,0,1.16-.51,1.85-.38l-.1.07c.07.17.24.14.34.14l.14-.1c-.07-.07-.14-.1-.1-.24.34-.21.75-.58,1.16-.31.65-.17,1.27-.51,1.95-.62.68-.65,1.78-1.09,2.91-.96l.1-.07h28.6l.14.17c.03.41-.99.07-.48.68-.03.17-.44.34-.14.58-.21.07-.07.31-.1.44-.14-.03-.21.03-.24.1-.07.17.14.24.2.38-.38.44.27.99-.27,1.37-.14.75-.38,1.54-.31,2.22-.48-.03-.07.51-.38.68-.24.58-.72,1.3-.38,1.85-.14.48.51,1.23-.07,1.74l.07.58c-.1,0-.27-.03-.34.1.41.51-.58.65-.48,1.13-1.27.68-1.4,2.22-2.53,2.98l.1.1c-.07.31-.55.34-.58.68l-.24-.24c-.34.65-.89,1.16-1.54,1.47l.1.1c-.85.62-1.81,1.3-2.6,1.78-.58.38-1.2.68-1.78,1.33l-.1-.1c-.75.96-1.68,1.09-2.6,1.78v.34l-.24-.24c-.44.07-.58.79-1.06.41.03.21,0,.31-.07.38H59.62c-.03-.07-.1-.14-.07-.24l.1-.1c-.31-.34-.38-1.06-.99-.96.51-.65-.38-.68-.55-1.2-.17.07-.31-.1-.44-.24.21.1.31-.1.48-.2.03-.21-.14-.24-.24-.38l-.58-.03c.31-.14.27-.41.27-.68-.14-.31-.41-.24-.68-.24.2,0,.31-.24.48-.34-.1-.34-.51-.14-.68-.38-.03-.24.38-.27.24-.58l-.44-.48c.07-.07.17-.1.14-.24-.07-.14-.24-.1-.34-.1.27-.21.58-.24.82-.58-.2-.03-.38-.44-.58-.1-.14-.24.38-.55.03-.82,0-.31-.38-.34-.55-.48l.24-.24c-.1-.07-.17-.31-.34-.24l-.14.1-.1-.1c.1,0,.31.03.34-.1.03-1.06-.51-.31-.51-1.3.17-.41.75-.17.72-.68-.24-.34-.48.07-.72.1.38-.72-.48-1.33-.17-2.02.14-.51-.17-.82-.27-1.27.21-.21.41-.51.48-.82-.21-.31-.44.1-.68.1.07-.24-.51-.89.03-1.03-.1-.58.34-.51.58-.82-.17-.27-.51-.51-.79-.27l.03-.21c.1,0,.27.03.34-.1.03-.34-.34-.14-.44-.38.34-.2.27-.55.48-.79-.14-.41-.51-.21-.79-.27.17.07.21-.14.34-.21l-.14-.14c.1-.03.17-.1.14-.24-.03-.14-.24-.1-.34-.1l.03-.14c.07.24.31,0,.44-.1l.03-.58c.1.03.17-.03.21-.1-.1-.07-.17-.31-.34-.24,0-.48.51-.82.17-1.27l-.44.21c.07-.31.58-.24.68-.58-.24-.31-1.16.17-.89-.62.1.1.14.31.31.27.14-.03.14-.17.14-.27h56.47ZM112.13,119.11c-.24.2-.48.38-.82.41l.41-.41h.41"/>
      <path id="path8" class="cls-2" d="M87.03,119.11l.02,22.82h-3.38v-22.82s3.36,0,3.36,0"/>
      <path id="path9" class="cls-1" d="M54.66,119.11v-.07c.17.03.24-.14.38-.24-.14-.38-.51-.17-.82-.27.17-.14.34-.14.48-.31-.14-.21-.1-.44.14-.58l-.24-.27c.17-.14.38-.1.51-.31l-.48-.34.24-.24c-.14-.07-.1-.24-.1-.34l.14-.14c-.14-.21-.34-.27-.58-.24l.58-.34-.31-.38c.1.07.17-.03.21-.07-.1-.24-.1-.44-.31-.62.2-.03.44.1.58-.1-.38-.2.27-.38-.1-.58-.14-.44.48-1.03-.31-1.06.24-.03.51.1.68-.07l-.31-.38c-.07.14-.24.1-.34.1.48-.44.68-.72.96-1.27l-.45-.24c.07-.58.72-.07.92-.55-.1-.27-.51-.31-.68-.14l-.1.1c-.07-.07-.14-.14-.24-.1.14-.17.03-.44.24-.58-.38-.17-.17-.55-.21-.86.14.07.17-.03.24-.07-.62-.38.21-.65.14-1.06-.17-.17-.21-.34-.21-.62.1.07.27.48.48.14.24.14.58-.1.92-.17-.21-.31-.65-.17-.92-.41l-.24.24c-.17-.27-.21-.58-.17-.96.07.07.27.44.44.14-.14-.55-.51-1.03.03-1.51.24.14,0,.51.34.48.27-.1.31-.51.14-.68-.34-.03-.34-.44-.31-.72.14-.14.34-.14.48-.34-.24-.1-.41-.38-.58,0v-.24c.55.17.2-.51.48-.68l-.34-.24c0,.14.48-.24.82-.1l.1-.1c-.03-.48-.89-.1-.75-.72.17.07.21-.14.34-.24.03-.1-.03-.17-.1-.24-.21-.03.38.1.44-.07l-.44-.62c.17.07.24-.14.38-.21l-.21-.61c.38.03.75.1,1.03-.21-.14-.34-.51-.17-.79-.24l.48-.55c-.1-.14-.27-.21-.24-.38l.14-.1-.24-.24c.17-.21.45-.34.51-.58l-.24-.24c-.17-.03.68.17.48-.34l-.34-.34c.31.07.55-.1.82-.21.03-.34-.34-.14-.44-.38l.44-.45c-.31-.34.38-.48.41-.79l-.14-.14c.07-.03.17-.1.14-.24l-.1-.1.68-.21c-.14-.21-.34-.31-.55-.27l.34-.21c-.31-.72,1.16-1.06.62-1.85l.14.14c.27-.17.44-.65.72-.92l-.24-.24c.24-.24,1.09-.34.86-1.03.21.1.34-.1.48-.21-.75-.48.51-.92.27-1.4.03-.48.85-.45.82-1.03.44-.27,1.13-.65,1.09-1.23.96-.72,1.3-2.05,2.5-2.36-.03.1.07.17.14.24.14.07.24-.14.34-.21,0-.24-.21-.34-.34-.51.2-.51,1.3-.21,1.09-1.13.24-.82,1.74-1.03,2.02-2.02.44.21.24-.51.72-.31.62-.17.41-1.27,1.27-1.03,0,0,1.57-.85,1.92-1.3.96.31.68-1.23,1.64-.89.82-.89,2.02-1.3,3.04-1.74.48-.65,1.4-.55,1.92-1.23.75.38,1.03-.55,1.74-.38.17-.89,1.57-.14,1.4-1.03-.17.07-.34.07-.48.21l-.07-.1c.79-.92,1.98.1,2.53-1.2.55-.92,1.71.48,1.88-.75.34-.41.82.44.92-.31.2.17.62.21.82,0,.1-.07.31-.14.27-.31l-.14-.14c.17-.14.34-.14.48-.31,0,.21.31.38.44.58.1-.1.27-.17.24-.34l-.1-.1c.07.48.72.1.82-.1.07.03.17-.07.2-.1.03-.34-.34-.14-.44-.38.72.24,1.03-.55,1.85-.41.58-.65,1.23-.03,1.64-.86.72.45,1.2-.51,1.88-.51,1.44-.24,2.7-.75,4.07-1.16.03.17-.1.41.1.48.51-.03.89-.85,1.4-.55-.75.07-1.13,1.23-2.09.75-.24.72-1.78.21-1.09,1.03-1.03-.03-2.22.21-3.15.82l-.1-.14c-.07.14-.31.17-.24.34.92.27,2.12.24,2.77-.34l-.1-.14c1.13.17,2.36-.03,3.35-.58.14-.03.38.1.48-.1.55.24,1.27.65,1.85.17l.1-.1c.17.27.34-.21.58-.21.86-.38,2.02.48,2.33-.61.27,0,.58-.03.68.27.48-1.23,1.81.03,2.22-.99.27.03.55.48.82.14-.14-.07-.1-.21-.1-.34.27,0,.55.07.72-.21.31.69.34-.24.79-.07-.03-.14.07-.21.14-.24.38-.17.58.34.89.03.55.24,1.06-.38,1.64-.41.65.1,1.23-.07,1.85-.17.38.62.72-.27,1.27.03.14-.1.27-.34.48-.31.68.2,1.33-.34,2.09-.31.65-.58,1.37.27,2.09-.14.14.1.24.31.45.24.07-.34.38-.31.58-.44-.14-.34-.58-.34-.89-.51-.34.38-.68-.27-1.03.1-.89-.41-1.74-.34-2.67-.1-.07-.07-.1-.14-.21-.14-.17.07-.14.24-.14.34l-.44-.34c-.14.03-.55-.07-.82-.03-.72.82-2.29.1-3.15.92-.41-.17-1.06-.21-1.51-.03v-.24c.41.2.72-.34,1.06.03.48-.31-.38-.55,0-.82.27.41.62-.55.82.17.72-.34,1.51-.79,2.33-.41.1-.1.31-.17.24-.34h.24c-.07.07-.17.14-.14.24.14.14.24.34.48.24.17-.07.07-.31.1-.45l-.1-.14c.82-.62,2.09-.1,2.91-.68.89.1,1.71-.38,2.53-.03l-.79.2c.24.75.85.24,1.37.14l-.14-.1c.31-.03.51-.38.72-.55l.1.1,4.17-.2c.62.58,1.37.07,2.09.1.21-.03.72.1,1.03-.1-.07-.72-1.2.03-1.13-.75.55.03,1.23.07,1.64.07h0c.27-.03.86.1.99.41.34.41.99.14,1.27.75.82-.07,1.44,1.06,2.16.51-.14-.65-.92-.55-1.09-1.06l-.68-.27c.44.14,1.3-.24,1.47.38.14,0,.38.14.48-.07v-.24c.24.55.58.17.92.14-.03.21.21.34.31.48.1.03.21-.03.24-.1l-.24-.24c.65-.48.65.99,1.27.14,1.09-.04,1.71.89,2.74.92l-.1.48c.31.14.65.17.89.48l-.24.24c.24.14.41.27.69.27-.31.65.55,1.13-.07,1.61.07.17.24.14.38.14-.24.31-.24.38-.03.68.41.38-.07.89.55.96-.17.99.65,1.61.48,2.6.04.41-.14,1.13.04,1.64.75-.55.1-1.57.44-2.22-.1-.89-.79-1.64-.48-2.7-.14-.14-.34-.14-.44-.34l.34-.48c.96,1.54.85,3.63.75,5.41.07.55.31,1.47-.31,1.85.21.79,0,1.47.07,2.22-.14.41-.17.89-.41,1.27-.03-.03-.1-.14-.2-.14-.14.14-.34.27-.27.48l.34.38-.48.55c.07.07.1.14.24.14.14.48-.89.34-.41.89.07-.14.24-.1.38-.1,0,.82-.38,1.44-.45,2.19-.14.17-.14.38-.34.48.72.92-1.03,1.06-.31,1.95-.62.72-.07,1.54-.75,2.19.31.27-.1.48-.14.72l-.24-.24c-.51.14-.51.72-.82,1.03l.65.72-.1.1c-.14-.07-.21-.31-.38-.24-.41.17-.03.41-.14.68l.24.24-.14.14c-.17-.14-.03-.44-.31-.38-.55.45-.03.92.07,1.27-.14.14-.38.14-.48.34l.1.03v.21h-.1c.03-.1-.07-.17-.1-.24-.34.03-.44.41-.51.68.07.07.14.17.24.1l.24-.21c-.48.79-.55,1.88-1.13,2.53-.1-.34.51-.48.14-.82-.41.03-.58.68-.82,1.03.21.17.24.41.07.58-.07.21-.38.1-.34.34l.58.24c-.34.24-.75.41-.75.92-.17-.1-.31.1-.45.2l.31.38-.45.21.24.27c-.24.03-.79.24-.75.65.07.07.14.14.24.1v.27c-.1,0-.17-.1-.24-.14-.62.27-.21.99-.86,1.27.17.72-.89.89-.65,1.71-.34.55-.68.75-1.16,1.23l.21.24c-.75.21-.24,1.23-1.06,1.5l-.03.2c-.17.03-.34-.27-.45,0l.07.45c-.44-.17-.34.72-.79.21l-.24.24c.27.17.21.44.21.68-.14-.1-.14-.48-.45-.34-.14.41-.03,1.4-.75,1.47.03.65-.89.48-.72,1.13-.27.48-.92.48-.96,1.06-.14,0-.2-.41-.48-.27-.34.24-.38.55-.1.82-1.2,1.23-2.94,2.57-4.41,3.35-.14.17-.45.27-.34.58-.58.34-1.44.62-1.68,1.3-.17.03-.24-.21-.48-.14-.03.07-.14.14-.1.24l.21.27c-.1.07-.68-.27-.82.17-.17.51-.82.79-1.27,1.13-.44.55-1.03-.17-1.3.55-.21-.1-.07-.44-.34-.38-.48.17-.03.48-.03.72l.1.1c-.79.65-1.92.72-2.57,1.54-.34-.07-.62.07-.82.31-.03.14.03.17.1.27h.14c-.58.21-1.09.72-1.78.72-.21.27-.38.51-.58.72h-.41l.31-.27c-.14-.21-.41-.07-.58-.1-.07.1-.17.24-.31.38h-56.47ZM137.68,119.11l.03-.03c-.14-.07-.1-.24-.1-.38.72.17,1.03-.65,1.64-.72.21-.41.62-.41.92-.24.45-.21.92-.31,1.3-.65.17-.07.75.24.92-.17v-.24c.68-.31,2.09.34,2.02-.86.89.1,6.4-2.02,6.4-2.02,1.33-.24,2.43-1.09,3.73-1.37.07.03.14.14.1.24l-.1.1c.14.24.41.07.58,0,.24-.27.58-.72.14-1.03.89-.24,1.61-.86,2.46-1.06.24-.14.55-.17.72-.44-.1.17.1.31.21.44.55,0,.86-.86,1.54-.51.21-.34.89-.17.72-.79-.21-.21-.55-.1-.82-.14.34-.45,1.06-.34,1.51-.65.65.03,1.23.68,1.74.31.96.07.79,1.27,1.78,1.23.24-.21.62-.17.82.03l.14.1c.07-.1.27-.17.21-.34h.14c-.27.58-.89.96-1.33,1.57-.72.55.27.96.21,1.54-.03.31.27.24.41.38.14.44-.48.68-.14,1.13.65.51.24,1.71,1.2,1.81l-.48.55.21.27-.34.44.1.14c-.21.14-.27.31-.24.55l.34.24c-.21.1-.1.31-.14.45l.07.1h-28.6"/>
      <path id="path10" class="cls-2" d="M83.63,72.41h3.35l.04,46.69h-3.37l-.02-46.69"/>
      <path id="path11" class="cls-2" d="M143.48,75.8l-59.84-.03v-3.35l60.64.03c.03.55-.07,1.06-.02,1.61-.14.41-.17.89-.41,1.27-.03-.03-.1-.14-.2-.14-.14.14-.34.27-.27.48l.12.13"/>
      <path id="path12" class="cls-2" d="M127.81,107.94l-44.17-.02v-3.39l47.23.02c-.1.19-.25.33-.5.35.03.65-.89.48-.72,1.13-.27.48-.92.48-.96,1.06-.14,0-.2-.41-.48-.27-.34.24-.38.55-.1.82-.09.1-.19.2-.29.29"/>
      <path id="path13" class="cls-2" d="M138.91,61.61c-.51-.07-.92-.34-1.5-.27v-.58c.51.34,1.3.34,1.5.85"/>
      <path id="path14" class="cls-2" d="M126.22,78.2c-.07-.14-.24-.14-.38-.14-.03.14-.03.55.1.72-.31-.14-.48.14-.68.31l-.03.38c-.1,0-.17-.1-.21-.14,0,.41-.62.1-.58.55.14.27.38.07.55.03-.51.1-.31.58-.82.68.14-.07.14-.24.14-.38-.07-.14-.24-.1-.38-.1-.17.07-.07.31-.1.45-.24-.24-.38.03-.58.1-.14.03-.14.21-.14.34.07.03.14.14.21.14.07.1-.03.17-.1.21-.24.03-.41-.03-.55-.24-.44.58-1.16.27-1.54.99l.68.27c-1.64-.34-2.12,1.44-3.52,1.71-.58.21-.17.82-.61,1.06-.24-.99-.89.31-1.4.27-.72.65-1.95.99-2.46,1.78l.07.14c-.1.24-.27-.07-.44-.03-.82-.1-.62,1.06-1.51.75l-.24.24.1.14c-.55.14-.79.61-1.3.55l-.34.55c-.14-.1-.27-.34-.44-.24l-.14.1.1.14c-.65.17-1.2.61-1.85.72-.07-.14-.24-.14-.38-.14l-.21.24c.07.21.31.1.44.14-.38-.17-.65.75-1.06.45-.27.24-.86.55-1.16.07-1.78,1.03-3.87,1.47-5.81,2.02-.07.1.1.27.21.24h.34c-.21.1-.55.31-.92.21-.79-.75-1.64.31-2.39-.1l-.72.34-2.53-.21c0-.14.03-.31-.1-.38l-.24.34c-.07-.07-.14-.1-.1-.24l.1-.1c-.92-.55-2.67.1-2.84-1.37l-.34.07c.14-.31.24-.31.48-.55l-.65-.72c-.17.07-.14.24-.14.34l-.24-.24c.55-.17-.21-.68.03-1.16-.31-.21-.2-.51-.55-.72.21-.07.27-.41.27-.68-.55-.38.1-.79-.07-1.3.1,0,.14.07.2.14.58-.38-.14-1.54.86-1.51.27-.44.44-1.16,1.09-1.23.24-.1,1.81-1.47,1.81-1.68.21-.1.48.27.79-.1.51.17.86-.21,1.27-.31.03-.38.51-.2.72-.44-.07-.03-.1-.14-.24-.1.17-.17.44-.24.72,0,.51.62,1.03-.31,1.61-.27.55-.31,1.71-.14,1.64-.85h-.1c.31-.24.31-.51.68-.48.24.14.55-.21.82.17,1.74-.03,3.11-1.23,4.89-1.23.41.27.68-.44,1.16-.44.89-.17,1.78-.72,2.67-.48.38-.75,1.4.14,1.64-.75h.24c-.07.07-.14.14-.14.24l.24.24c2.63,0,5.03-1.09,7.73-.55.48-.58,1.06.24,1.61-.17.96.03,1.95.07,2.87.1.38-.07.65.1.82.38l.58-.45.79,1.2"/>
      <path id="path15" class="cls-2" d="M81.99,89.89c-.82.27-.44,1.2-.55,1.61-.79.24-.03.99-.62,1.4.03.45.51.65.31,1.16l-.1-.1c-.44.27.48,1.4-.51,1.37l-.14.14.34.34c.07-.14.24-.1.38-.1-.03.1-.03.68-.03.82-.07.03-.14.14-.24.1l-.14-.1c.1-.14.31-.17.27-.38l-.14-.1c-.31.07-.55.41-.48.79l.44.38c-.07.24-.31.38-.24.68l-.34-.34-.24.24c.17.51.58.62.65,1.16-.1,0-.31-.03-.34.1l.24.24c-.17.21-.65.03-.51.44.14.14.24.38.48.38v.1c-.38.21-.62-.44-.82.1.38.27-.31.55.07.82.38,0,.24-.55.72-.34-.14.61-.82.65-1.09,1.13.38.27-.24.48.1.72l-.14.1c.17.48.72.07.92.38-.27.34-1.06-.24-1.27.44.24.48.89-.44.79.38-.38-.03-.72-.03-.96.31-.14.65,1.37.62.55,1.16h-.21c.03-.1-.07-.17-.14-.2-.38.14-.27.44-.14.79l.34-.1c-.2.48-.58,1.3-.27,1.64-.21,0-.44-.14-.58.1l.21.21-.21.24.44.24-.24.24.1.1-.58.21c.1.24.44.31.34.62l-.14.1-.1-.14c-.34.24.1.44-.03.72-.1-.03-.17.07-.24.1l.48.38c-.14-.03-.21.07-.27.1,0,.31.31.17.34.48-.07.07-.1.14-.24.1l-.21-.24c-.17.07-.14.24-.14.34.07.07.1.17.24.14-.03.07-.45.27-.14.44l.34-.1c-.21.27.34.41,0,.58l-.34-.34c0,.44-.86.31-.38.79.03.55-.31.62-.48,1.06l.21.21-.14.14.34.34c.07-.14.24-.1.34-.07-.21.55-1.51.14-.72.99-.03.24.07.51-.14.72l.89.62c-.44-.1-.58.51-.34.79l.55.38c-.27,0-.55-.1-.68.21.58.24.41,1.3,1.3,1.09l-.21.24s.14.1.1.24c-.14.21-.51-.03-.48.31l.34.38c-.75-.14-1.68-.14-2.05-.79-1.37-.62-2.81-1.2-3.83-2.36-.68.2-.86-.82-1.47-.72-.17-.31-.58-.55-.44-.96-1.06-.03-.96-1.2-1.92-1.47.14-.72-.99-.41-.75-1.2-.44-.55-.92-.75-1.33-1.33-.07-.41-.72-.51-.34-.96-.62-.24-.14-1.03-.86-1.2.27-.31,0-.75-.21-1.06h-.24c.75.03.51-.82.75-1.27l-.1-.1c.17.1.31-.1.44-.21-.1-.34-.82-.79-.07-1.06h.1c.03.14-.03.17-.1.24.07.07.1.14.21.1.51-.75.92-1.78,1.57-2.26.31-.51.85-1.13.65-1.74.17-.03.24.17.34.27l.34-.45-.1-.14.38-.34-.1-.1c.51-.82,1.06-1.44,1.78-2.05-.07-.07-.14-.14-.1-.24.82-.31,1.03-1.37,1.78-1.78.75-.1.44-1.2,1.33-1.27.17-.41.75-.82,1.3-.85l-.58-.27c.75.21.68-.82,1.4-.65l-.21-.24c.75-.17.82-.89,1.4-1.23l-.1-.14c.48-.1.96-.55,1.09-.99.1,0,.27,0,.31.14l.38-.48.1.14.24-.21c-.14-.1-.1-.27-.1-.38.17-.03.34.27.48,0v-.21c.86.31.62-.96,1.4-.89.07-.51.86-.48.72,0"/>
      <path id="path16" class="cls-2" d="M24.87,60.61c0-3.63,2.94-6.53,6.53-6.53s6.53,2.91,6.53,6.53-2.91,6.53-6.53,6.53-6.53-2.91-6.53-6.53"/>
      <path id="path17" class="cls-2" d="M20.49,81.31l-5.3-1.44-.21.79c-.21.79-.34,1.44-.34,2.02-.03.55.1,1.06.44,1.51.31.41.86.72,1.64.96,1.09.27,1.88.14,2.36-.48.51-.58.92-1.51,1.27-2.74l.14-.62ZM13.2,75.36l19.09,5.13-1.23,4.62c-.51,1.88-1.3,3.18-2.36,3.93-1.09.75-2.53.89-4.38.41-.75-.2-1.44-.55-2.05-.99-.58-.48-.99-1.03-1.2-1.68-.31.68-.79,1.2-1.4,1.57-.62.34-1.3.55-2.05.61-.72.07-1.47,0-2.22-.21-1.2-.31-2.12-.85-2.81-1.61-.68-.72-1.09-1.61-1.23-2.63-.14-1.03-.03-2.12.27-3.32l1.57-5.85ZM28.29,83.39l-4.96-1.33-.1.48c-.27.92-.27,1.68-.03,2.19.27.55.85.92,1.81,1.16.92.27,1.61.21,2.09-.17.48-.34.86-.96,1.09-1.85l.1-.48"/>
      <path id="path18" class="cls-2" d="M16.69,94.82l11.8.82-.27,3.87-11.01-.79c-.79-.03-1.47-.07-2.12-.03-.65.03-1.27.14-1.85.31-.62.21-1.09.51-1.47.96-.41.48-.62,1.09-.68,1.85-.03.75.1,1.4.41,1.92.34.48.75.89,1.33,1.13.55.27,1.16.48,1.78.58.62.1,1.33.21,2.12.24l11.01.79-.27,3.83-11.8-.82c-1.64-.1-3.11-.45-4.34-1.06-1.23-.58-2.15-1.44-2.8-2.6-.62-1.13-.89-2.53-.79-4.24.14-1.68.58-3.04,1.37-4.1.82-1.03,1.85-1.78,3.15-2.19,1.3-.41,2.81-.55,4.45-.44ZM35.27,100.74c-.03.55-.27,1.03-.72,1.44-.44.38-.96.55-1.51.48-.58-.03-1.06-.27-1.44-.68-.38-.44-.55-.96-.51-1.54.03-.58.27-1.06.72-1.44.41-.38.92-.55,1.51-.51.58.03,1.06.27,1.44.72.38.44.55.96.51,1.54ZM34.89,106.25c-.03.58-.27,1.06-.72,1.44-.44.38-.96.55-1.54.51-.58-.03-1.06-.27-1.44-.72-.38-.45-.55-.96-.51-1.54.07-.58.31-1.03.72-1.44.44-.38.96-.55,1.54-.48.58.03,1.06.27,1.44.68.38.44.55.96.51,1.54"/>
      <path id="path19" class="cls-2" d="M18.16,120.24l9.61-7.73.68,4.41-6.23,4.52,7.39,2.63.68,4.45-11.53-4.48-8.96,1.4-.62-3.8,8.96-1.4"/>
      <path id="path20" class="cls-2" d="M20.25,135.01l10.98-4.45,1.44,3.59-10.26,4.14c-.72.27-1.33.58-1.92.89-.55.31-1.06.65-1.54,1.09-.44.44-.72.92-.89,1.51-.14.58-.07,1.23.21,1.95.31.72.68,1.23,1.2,1.54.51.31,1.09.44,1.71.44s1.23-.1,1.85-.27c.62-.17,1.3-.41,2.02-.68l10.26-4.14,1.44,3.56-10.98,4.45c-1.54.62-3.01.92-4.38.96-1.33,0-2.57-.38-3.66-1.13-1.06-.75-1.92-1.92-2.57-3.46-.62-1.57-.82-3.01-.55-4.31.24-1.27.85-2.39,1.85-3.35.99-.92,2.26-1.71,3.8-2.33ZM39.54,132.17c.21.51.21,1.06-.03,1.61-.21.51-.58.89-1.13,1.13-.55.21-1.06.21-1.61-.03-.55-.21-.92-.62-1.13-1.13-.21-.55-.21-1.09.03-1.61.21-.55.58-.92,1.13-1.13.55-.21,1.06-.21,1.61,0,.51.24.89.62,1.13,1.16ZM41.6,137.3c.24.51.24,1.06,0,1.61-.24.51-.62.89-1.16,1.13-.51.21-1.06.21-1.57-.03-.55-.24-.92-.62-1.13-1.13-.24-.55-.21-1.09,0-1.61.24-.55.62-.92,1.13-1.13.55-.21,1.09-.21,1.61,0,.55.24.92.62,1.13,1.16"/>
      <path id="path21" class="cls-2" d="M34.41,155.74l10.33.03,2.8,3.83-11.8-.68-3.97,12.66-2.91-4,3.49-10.36-.03-.03-7.18,5.23-2.29-3.11,16.01-11.63,2.26,3.11-6.74,4.89.03.07"/>
      <path id="path22" class="cls-2" d="M56.61,170.25l-3.15.75c.14-1.37-.21-2.43-1.06-3.22-.48-.44-1.03-.65-1.68-.68-.65-.03-1.2.21-1.61.65-.48.55-.68,1.03-.55,1.51.14.44.51,1.44,1.13,2.98.65,1.5.92,2.8.89,3.9-.03,1.06-.58,2.15-1.61,3.25-.89.96-1.88,1.64-2.94,2.02-1.09.41-2.19.48-3.32.21-1.09-.24-2.12-.82-3.08-1.71-1.85-1.71-2.46-4.04-1.85-6.98l3.49-.07c-.34.79-.44,1.61-.38,2.46.1.82.44,1.54,1.03,2.05.55.55,1.2.75,1.92.65.72-.07,1.33-.41,1.88-.99.44-.48.68-.96.68-1.47.03-.51,0-.99-.17-1.44-.17-.41-.44-1.03-.82-1.78-.41-.92-.72-1.78-.86-2.53-.17-.75-.17-1.5.03-2.26.2-.75.62-1.47,1.3-2.19.72-.79,1.57-1.33,2.57-1.64.99-.34,1.98-.41,2.98-.17,1.03.21,1.92.68,2.7,1.44.44.38.82.89,1.23,1.51.38.58.68,1.23.89,1.88.24.68.34,1.3.34,1.88ZM39.85,180.1l.92,2.53-4.72.58-.75-2.05,4.55-1.06"/>
      <path id="path23" class="cls-2" d="M67.87,179.55l-5.4-3.39-2.33,3.69,5.23,3.25-1.78,2.87-5.23-3.28-2.81,4.55,5.37,3.39-1.78,2.84-8.65-5.4,10.47-16.76,8.69,5.4-1.78,2.84"/>
      <path id="path24" class="cls-2" d="M74.13,187.25l6.77,2.29,2.53-7.35,3.63,1.27-6.43,18.68-3.63-1.23,2.87-8.38-6.74-2.33-2.91,8.38-3.63-1.27,6.43-18.68,3.66,1.23-2.57,7.39"/>
      <path id="path25" class="cls-2" d="M94.86,184.78l-3.11,19.53-3.8-.62,3.08-19.5,3.83.58ZM93.76,179.31c.58.1,1.03.38,1.37.86.34.44.48.99.38,1.54-.07.58-.34,1.03-.82,1.37-.48.34-.99.48-1.57.38-.58-.07-1.03-.38-1.37-.82-.34-.48-.44-.99-.38-1.57.1-.58.38-1.03.85-1.37.48-.34.99-.44,1.54-.38"/>
      <path id="path26" class="cls-2" d="M107.61,197.17l5.44,8.45-4.65-.1-4.65-8.04h-.07l-.14,7.97-3.87-.07.34-19.77,5.23.1c1.33,0,2.5.24,3.45.68.99.41,1.75,1.09,2.29,1.98.51.89.79,2.02.75,3.39-.03,1.33-.41,2.53-1.13,3.56-.75,1.06-1.74,1.68-3.01,1.85ZM103.82,188.82l-.1,5.95h.51c1.16.03,2.05-.17,2.7-.62.62-.44.96-1.23.96-2.36.03-1.13-.27-1.92-.85-2.33-.62-.41-1.51-.62-2.67-.65h-.55"/>
      <path id="path27" class="cls-2" d="M131.63,193.37l1.71,5.23.79-.27c.75-.24,1.37-.51,1.88-.79.48-.31.82-.68.99-1.2.17-.51.17-1.13-.1-1.88-.34-1.09-.89-1.68-1.68-1.78-.75-.07-1.74.07-2.98.48l-.61.21ZM130.64,202.71l-6.12-18.78,4.58-1.51c1.81-.58,3.35-.62,4.58-.14,1.23.48,2.12,1.64,2.7,3.42.24.75.34,1.5.27,2.26-.03.75-.31,1.4-.72,1.95.72-.1,1.44,0,2.05.31.65.31,1.2.79,1.64,1.37.44.58.82,1.27,1.03,1.98.41,1.16.44,2.26.21,3.22-.24.99-.79,1.81-1.54,2.5-.79.65-1.78,1.2-2.94,1.57l-5.75,1.85ZM129.16,185.67l1.57,4.89.45-.14c.96-.31,1.57-.72,1.85-1.2.31-.51.31-1.23.03-2.16-.31-.89-.75-1.44-1.3-1.64-.58-.24-1.3-.21-2.15.07l-.44.17"/>
      <path id="path28" class="cls-2" d="M149.93,176.81l-5.61,3.01,2.05,3.83,5.4-2.87,1.57,2.94-5.4,2.91,2.5,4.72,5.61-3.01,1.61,2.98-9.03,4.79-9.3-17.45,9.03-4.79,1.57,2.94"/>
      <path id="path29" class="cls-2" d="M154.51,169.42l9.89,13.1,4.34-3.28,2.02,2.67-7.42,5.61-11.9-15.8,3.08-2.29"/>
      <path id="path30" class="cls-2" d="M170.04,159.2l-4.34,4.65,3.18,2.98,4.17-4.52,2.46,2.29-4.17,4.52,3.9,3.63,4.34-4.65,2.46,2.29-6.98,7.46-14.47-13.48,6.98-7.46,2.46,2.29"/>
      <path id="path31" class="cls-2" d="M186.77,164.4l-16.76-10.47,2.91-4.69c.75-1.16,1.64-2.12,2.67-2.87,1.06-.75,2.19-1.23,3.42-1.47,1.2-.24,2.43-.24,3.69.03,1.27.24,2.5.72,3.7,1.47,1.54.99,2.74,2.22,3.59,3.69.85,1.51,1.23,3.08,1.2,4.79-.03,1.68-.55,3.32-1.51,4.86l-2.91,4.65ZM174.9,152.42l11.05,6.94.34-.55c2.33-3.73,1.64-6.74-2.05-9.03-3.69-2.33-6.7-1.61-9,2.12l-.34.51"/>
      <path id="path32" class="cls-2" d="M180.27,134.53l18.47,7.08-1.4,3.59-18.44-7.08,1.37-3.59ZM174.69,134.43c.21-.55.58-.92,1.09-1.16.55-.24,1.06-.24,1.61-.03.55.21.92.55,1.16,1.09.24.51.24,1.06.03,1.61-.21.55-.55.92-1.09,1.16-.51.24-1.06.24-1.61.03-.55-.21-.92-.58-1.16-1.09-.24-.55-.24-1.06-.03-1.61"/>
      <path id="path33" class="cls-2" d="M193.47,127.62l-11.73,3.76.92-4.38,7.46-1.95-5.95-5.13.96-4.41,9.17,8.31,8.86,1.92-.79,3.76-8.89-1.88"/>
      <path id="path34" class="cls-2" d="M188.65,103.06l-.1,6.36,4.34.07.1-6.12,3.35.07-.1,6.12,5.34.1.1-6.36,3.39.03-.21,10.23-19.74-.34.17-10.23,3.35.07"/>
      <path id="path35" class="cls-2" d="M184.89,88.01l2.94,1.37c-.96.96-1.33,2.02-1.16,3.18.1.62.41,1.13.89,1.54.51.41,1.06.58,1.68.48.72-.1,1.16-.38,1.33-.86.21-.45.51-1.44.96-3.04.44-1.57.99-2.77,1.71-3.59.69-.82,1.78-1.37,3.25-1.57,1.3-.21,2.5-.14,3.59.21,1.09.38,2.02.99,2.74,1.88.72.85,1.16,1.95,1.37,3.25.41,2.5-.55,4.69-2.84,6.64l-2.81-2.09c.75-.41,1.37-.99,1.81-1.71.45-.75.62-1.51.48-2.26-.1-.75-.48-1.33-1.13-1.71-.61-.38-1.3-.48-2.09-.38-.62.1-1.13.34-1.47.75-.34.38-.58.79-.72,1.23-.14.45-.27,1.09-.48,1.92-.21.99-.51,1.81-.85,2.53-.34.68-.82,1.3-1.44,1.74-.58.48-1.37.79-2.33.92-1.06.17-2.09.07-3.08-.27-.96-.34-1.78-.92-2.43-1.71-.68-.79-1.09-1.71-1.27-2.77-.1-.58-.1-1.23-.03-1.95.07-.72.24-1.4.48-2.05.2-.65.51-1.23.89-1.68"/>
      <path id="path36" class="cls-2" d="M180.78,80.93l18.78-6.12,1.2,3.66-18.81,6.12-1.16-3.66ZM176.37,84.35c-.17-.55-.14-1.09.14-1.61.24-.51.65-.85,1.2-1.03.58-.17,1.09-.14,1.61.14.51.24.85.65,1.06,1.2.17.55.14,1.09-.14,1.61-.27.51-.69.85-1.23,1.03-.55.21-1.06.14-1.57-.1-.55-.27-.89-.68-1.06-1.23"/>
      <path id="path37" class="cls-2" d="M46.93,34.41l-4.65,4.34,2.94,3.18,4.52-4.21,2.26,2.46-4.48,4.17,3.66,3.93,4.65-4.35,2.29,2.43-7.49,6.98-13.48-14.43,7.49-6.98,2.29,2.46"/>
      <path id="path38" class="cls-2" d="M60.82,23.02l-.1,3.22c-1.27-.48-2.39-.41-3.39.21-.55.34-.89.82-1.09,1.44-.17.61-.1,1.2.24,1.71.38.62.82.92,1.3.92.48-.03,1.54-.14,3.15-.34,1.64-.21,2.98-.17,4,.17,1.03.31,1.95,1.1,2.74,2.36.68,1.13,1.09,2.26,1.2,3.42.1,1.13-.14,2.22-.65,3.22-.55,1.03-1.37,1.88-2.46,2.57-2.15,1.33-4.55,1.33-7.22-.03l.82-3.39c.68.51,1.44.86,2.29.99.85.1,1.61-.03,2.26-.44s1.03-.96,1.13-1.68c.1-.72-.07-1.44-.48-2.09-.34-.55-.75-.89-1.23-1.06-.51-.17-.99-.24-1.44-.17-.44.03-1.09.14-1.95.31-.99.17-1.88.24-2.67.21-.79-.07-1.51-.27-2.15-.65-.68-.38-1.27-.99-1.78-1.81-.58-.89-.89-1.88-.96-2.91-.03-1.03.17-2.02.62-2.94.48-.92,1.16-1.64,2.09-2.22.51-.31,1.09-.58,1.78-.79.68-.21,1.37-.34,2.09-.38.68-.07,1.3,0,1.88.17"/>
      <path id="path39" class="cls-2" d="M73.65,24.49l3.04-9.89,4.48-1.54-4.1,11.05,10.95,7.49-4.69,1.61-8.86-6.33h-.07l2.91,8.41-3.63,1.27-6.47-18.71,3.66-1.23,2.7,7.87h.07"/>
      <path id="path40" class="cls-2" d="M90.1,11.25l3.76,19.39-3.76.72-3.8-19.4,3.8-.72ZM87.23,6.46c.55-.1,1.09,0,1.57.31.48.34.79.79.89,1.33.1.58,0,1.09-.34,1.57-.31.48-.75.79-1.33.89-.55.1-1.09,0-1.57-.31-.48-.34-.75-.79-.89-1.33-.1-.58,0-1.09.34-1.57.31-.48.75-.79,1.33-.89"/>
      <path id="path41" class="cls-2" d="M109.36,11.42l-1.71,2.74c-.82-1.06-1.85-1.54-3.01-1.51-.62,0-1.2.24-1.64.68-.48.45-.72.99-.68,1.61.03.72.24,1.2.68,1.44.41.24,1.37.68,2.91,1.3,1.51.65,2.63,1.33,3.35,2.12.75.79,1.13,1.95,1.2,3.45.03,1.3-.21,2.5-.68,3.52-.48,1.06-1.2,1.88-2.19,2.5-.96.58-2.09.92-3.42.96-2.5.1-4.58-1.13-6.19-3.63l2.39-2.53c.31.79.82,1.47,1.47,1.98.68.55,1.4.79,2.19.79.75-.03,1.37-.34,1.81-.92.44-.58.65-1.23.65-2.05-.03-.62-.21-1.13-.55-1.51-.34-.41-.75-.68-1.16-.89-.41-.17-1.03-.41-1.85-.68-.92-.34-1.74-.75-2.39-1.16-.65-.45-1.16-.99-1.57-1.64-.38-.65-.58-1.47-.62-2.43-.03-1.09.17-2.09.65-3.01.44-.92,1.13-1.68,1.98-2.22.86-.58,1.85-.86,2.91-.92.58,0,1.23.07,1.95.24.68.14,1.33.38,1.98.69.62.31,1.13.68,1.54,1.09h0ZM104.47,30.24l2.46,1.13-2.91,3.76-1.98-.92,2.43-3.97"/>
      <path id="path42" class="cls-2" d="M126.36,15.15l-6.29-.99-.68,4.31,6.05.96-.51,3.32-6.05-.96-.86,5.27,6.29.99-.51,3.32-10.09-1.61,3.08-19.5,10.09,1.57-.51,3.32"/>
      <path id="path43" class="cls-2" d="M135.18,22.34l6.67,2.53,2.77-7.25,3.63,1.37-7.08,18.44-3.63-1.37,3.18-8.24-6.67-2.57-3.15,8.24-3.59-1.37,7.08-18.44,3.59,1.37-2.81,7.29"/>
      <path id="path44" class="cls-2" d="M157.9,24.56l-10.19,16.93-3.28-1.98,10.16-16.93,3.32,1.98ZM158.96,19.09c.48.31.82.72.96,1.3.14.55.07,1.09-.24,1.57-.31.51-.72.82-1.3.96-.55.14-1.09.07-1.57-.24-.51-.31-.82-.72-.96-1.3-.14-.55-.07-1.09.24-1.57.27-.48.72-.82,1.3-.96.55-.14,1.06-.07,1.57.24"/>
      <path id="path45" class="cls-2" d="M163.4,42.79l-1.09,9.95-3.56-3.01,1.44-9.17-.03-.03-5.13,6.09-2.94-2.46,12.69-15.15,4,3.35c1.03.85,1.78,1.78,2.26,2.74.51.92.68,1.92.51,2.98-.14,1.03-.68,2.05-1.54,3.11-.86,1.03-1.92,1.71-3.11,2.05-1.23.34-2.39.17-3.49-.44h0ZM165.7,33.9l-3.83,4.55.41.34c.89.72,1.71,1.13,2.46,1.2.79.07,1.54-.34,2.26-1.2.72-.89.99-1.68.75-2.36-.2-.72-.75-1.44-1.64-2.19l-.41-.34"/>
      <path id="path46" class="cls-2" d="M171.99,60.61c0-3.63,2.91-6.53,6.53-6.53s6.53,2.91,6.53,6.53-2.94,6.53-6.53,6.53-6.53-2.91-6.53-6.53"/>
    </g>
  </g>
</svg>