<?xml version="1.0" encoding="UTF-8" standalone="no"?>
<!-- Created with Inkscape (http://www.inkscape.org/) -->

<svg
   version="1.1"
   id="svg1"
   width="257.33334"
   height="257.33334"
   viewBox="0 0 257.33334 257.33334"
   sodipodi:docname="eskisehir-buyuksehir-belediyesi-seeklogo.eps"
   xmlns:inkscape="http://www.inkscape.org/namespaces/inkscape"
   xmlns:sodipodi="http://sodipodi.sourceforge.net/DTD/sodipodi-0.dtd"
   xmlns="http://www.w3.org/2000/svg"
   xmlns:svg="http://www.w3.org/2000/svg">
  <defs
     id="defs1" />
  <sodipodi:namedview
     id="namedview1"
     pagecolor="#ffffff"
     bordercolor="#000000"
     borderopacity="0.25"
     inkscape:showpageshadow="2"
     inkscape:pageopacity="0.0"
     inkscape:pagecheckerboard="0"
     inkscape:deskcolor="#d1d1d1">
    <inkscape:page
       x="0"
       y="0"
       inkscape:label="1"
       id="page1"
       width="257.33334"
       height="257.33334"
       margin="0"
       bleed="0" />
  </sodipodi:namedview>
  <g
     id="g1"
     inkscape:groupmode="layer"
     inkscape:label="1">
    <path
       id="path1"
       d="M 0,1927.56 H 1927.56 V 0 H 0 v 1927.56"
       style="fill:#ffffff;fill-opacity:1;fill-rule:evenodd;stroke:none"
       transform="matrix(0.13333333,0,0,-0.13333333,0,257.33333)" />
    <path
       id="path2"
       d="m 162.574,963.781 c 0,442.549 358.656,801.199 801.207,801.199 442.549,0 801.199,-358.65 801.199,-801.199 0,-442.551 -358.65,-801.207 -801.199,-801.207 -442.551,0 -801.207,358.656 -801.207,801.207"
       style="fill:#253a8f;fill-opacity:1;fill-rule:evenodd;stroke:none"
       transform="matrix(0.13333333,0,0,-0.13333333,0,257.33333)" />
    <path
       id="path3"
       d="m 443.496,963.781 c 0,287.329 232.949,520.279 520.285,520.279 287.329,0 520.279,-232.95 520.279,-520.279 0,-287.336 -232.95,-520.285 -520.279,-520.285 -287.336,0 -520.285,232.949 -520.285,520.285"
       style="fill:#ffffff;fill-opacity:1;fill-rule:evenodd;stroke:none"
       transform="matrix(0.13333333,0,0,-0.13333333,0,257.33333)" />
    <path
       id="path4"
       d="m 1290.36,700.559 c -2.05,-2.051 -7.95,1.281 -6.66,-4.871 -4.62,0.253 -6.42,-5.133 -10.52,-4.875 v -2.567 c -4.36,0.254 -6.93,-4.875 -11.55,-3.848 l -13.08,-4.105 0.77,-2.566 c -4.36,-0.254 -7.96,-4.106 -10.52,-6.668 -11.8,-1.797 -19.24,-11.805 -30.01,-13.856 -5.91,0 -7.45,-10.004 -15.65,-6.414 -1.03,-3.59 -5.39,0.512 -6.42,-3.078 l 1.03,-1.027 c -7.44,1.539 -7.7,-6.672 -15.65,-4.618 -6.42,-5.902 -12.83,-5.386 -19.5,-9.746 0,-2.312 0.26,0.766 -0.77,0.766 -1.28,-0.254 -2.82,0.773 -3.59,-0.766 l 1.79,-1.797 c -4.87,2.051 -6.67,-3.339 -11.28,-1.539 l -1.8,-1.543 c -2.31,4.364 -11.03,-7.437 -15.65,-1.281 -3.34,-3.078 -7.69,-3.847 -11.55,-5.387 0.52,-0.769 1.03,-1.027 1.03,-2.05 -1.03,1.539 -2.82,1.023 -4.36,1.023 -1.28,-1.539 -3.08,-1.793 -4.36,-0.512 -2.83,-1.539 -5.9,-0.769 -7.95,-3.332 l 0.77,-1.027 c -1.8,0 -4.62,2.563 -5.9,-0.516 l 0.77,-1.027 c -4.11,-3.078 -8.47,3.332 -12.32,-1.281 1.03,-1.539 2.57,-2.051 4.36,-1.797 -6.41,2.309 -10.52,-3.848 -15.65,-2.051 -0.76,-0.769 -1.28,-2.055 -2.56,-1.797 -2.57,0.258 -4.11,0.258 -7.96,0.258 l -1.53,-1.539 c -0.52,0.512 -1.03,1.023 -1.8,0.766 -0.51,-0.766 -2.31,-1.028 -1.79,-2.563 -1.03,1.027 -1.8,2.563 -3.6,2.055 l -2.56,-2.57 c -4.36,1.027 -9.5,-1.282 -13.86,-2.051 -3.33,-1.539 -4.87,-5.129 -8.72,-2.567 -4.62,-2.562 -15.39,3.082 -14.88,-3.847 -5.13,-6.157 -7.181,6.414 -12.314,-0.258 -1.027,0.515 -2.308,0.773 -3.336,1.797 -0.769,-1.024 -2.308,-1.797 -1.539,-3.332 -2.566,2.562 -4.363,-1.028 -7.183,-0.77 -8.465,-1.027 -16.164,-0.258 -24.117,0 -2.051,-2.055 -6.668,1.281 -7.184,-3.082 -0.769,-0.258 -1.281,0.516 -1.539,0.774 -1.027,-0.258 -1.027,-1.797 -1.027,-2.313 -4.875,6.156 -12.825,-0.512 -18.981,3.078 -1.281,-1.281 -3.336,-0.512 -5.133,-0.765 -2.824,0.253 -5.902,0.253 -8.464,0.253 -4.364,-0.769 -8.723,-1.285 -13.083,-2.05 1.536,2.304 5.383,-1.028 6.926,2.304 -2.824,1.028 -6.926,2.309 -9.496,1.282 -0.512,1.027 -1.793,1.027 -2.562,1.027 -0.516,-0.508 -1.028,-0.766 -1.028,-1.789 l 4.364,-2.57 c -2.313,1.543 -6.672,0.511 -7.7,3.593 l -14.621,1.539 -1.797,-1.8 c 1.282,-3.332 4.36,-1.282 6.672,-2.047 -1.289,-1.539 -4.105,-0.516 -5.902,-0.516 -0.512,2.563 -2.309,4.106 -5.133,3.59 l -1.793,-1.789 c 0.258,-0.262 1.028,-0.774 0.766,-1.543 -3.848,-1.027 -5.899,5.902 -9.488,1.023 l 1.792,-1.793 h -1.792 c 0.257,4.364 -4.364,3.075 -6.672,4.618 -0.512,-0.254 -1.028,-0.77 -1.028,-1.797 l 1.539,-1.535 c -1.539,0.253 -3.847,-0.774 -4.875,1.027 l 3.336,1.535 c -4.617,6.414 -10.519,-4.359 -14.621,3.336 -2.054,0.77 -2.82,-1.793 -4.363,-2.566 -1.027,1.539 -2.563,2.054 -4.359,1.796 l -1.54,-1.796 0.512,-0.77 c -0.512,-0.254 -1.027,0.516 -1.539,1.027 1.281,0.516 1.027,1.797 1.027,2.567 -2.054,2.82 -6.929,2.051 -9.496,1.023 -1.539,-0.511 -0.765,-2.308 -1.023,-3.336 0,2.313 -2.824,2.313 -4.106,3.594 l -1.796,-1.539 c 0.515,-0.512 1.027,-1.027 0.769,-1.793 -1.539,3.332 -5.129,3.074 -7.695,4.613 -2.567,-2.308 -5.645,2.055 -8.723,-0.769 -1.281,0.515 -3.336,-0.258 -4.105,1.027 0.258,0.77 1.027,1.027 0.769,1.797 -4.105,4.875 -10.519,-1.797 -14.621,3.078 -0.769,-1.285 -2.566,-0.258 -4.363,-0.769 -0.512,6.414 -7.184,2.824 -11.031,4.105 -2.825,-1.801 -5.129,4.617 -8.469,1.024 0,1.027 -0.508,1.539 -1.024,1.796 l -2.308,0.258 c -0.512,0.77 0.254,1.281 0.769,1.797 -1.539,2.309 -3.593,-0.773 -5.132,-0.773 -1.282,-2.305 1.539,-2.305 2.312,-3.59 l -5.137,1.797 c 1.032,0 2.059,-0.258 2.825,0.769 0,1.539 -1.793,2.563 -2.563,3.59 -1.023,0 -2.312,0 -2.566,1.027 -2.825,-2.308 -5.133,1.024 -7.696,1.282 l -0.773,0.769 c -3.586,-1.797 -6.41,2.824 -9.488,3.852 -2.567,-2.824 -5.645,1.793 -7.7,0.254 -4.875,1.797 -10.261,7.441 -15.648,3.082 1.027,1.281 2.824,2.05 2.824,3.586 -2.824,2.824 -5.39,-1.282 -8.722,0.257 l -9.493,3.082 c 0.508,0.258 1.282,0.766 1.024,1.54 -0.516,1.023 -1.797,1.023 -2.567,1.023 l -0.769,-1.023 c -0.766,3.335 -5.129,5.132 -8.465,5.64 -5.129,-0.769 -5.898,7.442 -11.289,5.645 -1.027,3.336 -3.332,0.515 -5.129,0.257 1.023,1.028 3.848,1.028 2.82,3.336 -1.539,1.797 -4.101,1.028 -6.16,1.282 l 3.594,3.336 c -2.563,2.82 -5.899,1.796 -8.469,2.05 l 2.57,1.543 c -1.539,3.59 -6.156,0.77 -8.468,3.075 1.539,-0.254 3.336,0 4.363,1.285 1.281,2.566 -1.797,2.82 -2.566,3.847 -1.539,-0.257 -3.336,0.77 -4.36,-0.765 -1.543,2.304 -3.34,3.332 -5.902,3.586 l 3.59,2.566 c -3.848,6.156 -10.004,-0.512 -13.594,5.649 2.82,1.535 6.668,-5.391 6.926,0.765 -2.821,2.055 -5.133,4.617 -9.239,3.848 0.774,1.539 3.336,2.055 2.571,4.109 -1.797,2.821 -4.875,1.024 -6.672,2.051 0.258,-2.566 3.336,4.871 -1.027,1.793 -3.336,3.078 -3.594,9.492 -10.004,8.98 l 2.82,2.825 c -0.512,0.511 -1.281,1.281 -2.051,1.793 h 680.618"
       style="fill:#76d0b7;fill-opacity:1;fill-rule:evenodd;stroke:none"
       transform="matrix(0.13333333,0,0,-0.13333333,0,257.33333)" />
    <path
       id="path5"
       d="m 815.445,700.559 0.047,-52.848 h -25.398 l -0.02,52.848 h 25.371"
       style="fill:#ffffff;fill-opacity:1;fill-rule:evenodd;stroke:none"
       transform="matrix(0.13333333,0,0,-0.13333333,0,257.33333)" />
    <path
       id="path6"
       d="m 1187.68,646.75 h -0.3 c -1.03,0.176 -1.93,0.156 -2.72,0 l -394.566,0.191 v 25.399 l 449.776,-0.219 -1.07,-1.062 c -11.8,-1.797 -19.24,-11.805 -30.01,-13.856 -5.91,0 -7.45,-10.004 -15.65,-6.414 -1.03,-3.59 -5.39,0.512 -6.42,-3.078 l 0.96,-0.961"
       style="fill:#ffffff;fill-opacity:1;fill-rule:evenodd;stroke:none"
       transform="matrix(0.13333333,0,0,-0.13333333,0,257.33333)" />
    <path
       id="path7"
       d="m 996.102,871.676 c -2.051,-2.309 -4.872,-4.871 -7.438,-5.387 l 2.313,-2.82 c -1.797,-1.797 -2.825,0.258 -4.364,1.027 -8.98,-13.344 -23.605,-11.805 -36.687,-18.726 -0.77,-3.594 -6.926,-0.258 -6.414,-4.879 -4.106,2.312 -6.668,-4.871 -9.492,0.257 -0.516,-0.511 -1.282,-0.769 -0.77,-1.796 l 0.512,-1.024 c -3.078,-1.281 -8.719,0.254 -9.492,-3.851 -3.59,-1.536 -5.129,-2.563 -8.465,-0.766 l -6.414,-4.879 c 0.773,-0.766 1.281,-2.051 2.566,-1.793 0.512,-1.285 -1.285,-1.793 -1.793,-2.566 3.59,-3.078 6.414,2.308 11.285,1.281 22.317,-1.797 48.489,0.258 71.832,-0.77 4.875,4.875 13.339,4.364 20.019,2.825 0.76,1.281 2.3,0.515 3.33,0.769 l 0.77,-1.027 3.59,3.336 c 3.85,-1.282 8.72,2.054 13.08,-0.516 6.16,7.699 15.65,-1.539 22.58,3.598 0.77,0 2.05,-3.34 3.34,-1.028 0.76,2.563 5.39,2.563 7.95,3.332 3.59,-0.253 10,-0.511 12.31,3.079 3.59,0.257 7.44,-0.254 10.27,2.312 0.77,-1.539 2.3,-0.773 3.59,-1.027 6.67,6.929 16.93,-0.258 25.4,5.133 l -4.37,3.585 c 5.91,-0.253 12.57,-0.765 15.65,3.852 0.77,-0.769 1.8,-3.59 4.36,-2.562 0.26,0.253 1.03,0.765 0.78,1.535 -0.52,1.027 -1.8,1.027 -2.57,1.027 5.13,0 8.72,3.848 13.85,2.82 l -0.76,-0.511 c 0.5,-1.286 1.79,-1.028 2.56,-1.028 l 1.02,0.774 c -0.51,0.508 -1.02,0.765 -0.76,1.793 2.56,1.539 5.64,4.363 8.72,2.312 4.87,1.281 9.49,3.844 14.62,4.613 5.13,4.879 13.34,8.211 21.81,7.188 l 0.77,0.508 h 214.47 l 1.03,-1.281 c 0.26,-3.079 -7.44,-0.512 -3.6,-5.129 -0.25,-1.286 -3.33,-2.567 -1.02,-4.364 -1.54,-0.511 -0.51,-2.308 -0.77,-3.336 -1.03,0.258 -1.54,-0.253 -1.79,-0.769 -0.52,-1.281 1.02,-1.793 1.53,-2.82 -2.82,-3.332 2.05,-7.438 -2.05,-10.262 -1.03,-5.645 -2.82,-11.547 -2.31,-16.676 -3.59,0.258 -0.51,-3.848 -2.82,-5.129 -1.79,-4.363 -5.39,-9.754 -2.82,-13.859 -1.03,-3.59 3.85,-9.231 -0.52,-13.078 l 0.52,-4.364 c -0.77,0 -2.05,0.254 -2.57,-0.773 3.08,-3.844 -4.36,-4.871 -3.59,-8.465 -9.49,-5.129 -10.52,-16.672 -18.99,-22.316 l 0.78,-0.77 c -0.52,-2.312 -4.11,-2.57 -4.37,-5.133 l -1.79,1.797 c -2.56,-4.875 -6.67,-8.722 -11.55,-11.035 l 0.77,-0.769 c -6.41,-4.614 -13.59,-9.747 -19.49,-13.336 -4.36,-2.825 -8.98,-5.133 -13.34,-10.012 l -0.77,0.773 c -5.65,-7.183 -12.57,-8.211 -19.5,-13.34 v -2.566 l -1.8,1.797 c -3.33,-0.516 -4.36,-5.902 -7.95,-3.078 0.26,-1.543 0,-2.309 -0.52,-2.824 H 609.742 c -0.258,0.515 -0.769,1.027 -0.515,1.796 l 0.773,0.77 c -2.312,2.566 -2.824,7.953 -7.441,7.184 3.847,4.875 -2.825,5.129 -4.106,8.98 -1.285,-0.516 -2.308,0.77 -3.336,1.797 1.539,-0.77 2.309,0.769 3.59,1.535 0.258,1.539 -1.023,1.797 -1.793,2.824 l -4.359,0.254 c 2.308,1.031 2.05,3.082 2.05,5.137 -1.023,2.305 -3.078,1.793 -5.128,1.793 1.535,0 2.308,1.793 3.589,2.566 -0.773,2.563 -3.851,1.024 -5.132,2.821 -0.254,1.797 2.824,2.05 1.796,4.363 l -3.335,3.59 c 0.511,0.511 1.285,0.769 1.027,1.797 -0.516,1.027 -1.797,0.769 -2.567,0.769 2.051,1.539 4.36,1.797 6.157,4.36 -1.535,0.257 -2.821,3.335 -4.36,0.769 -1.027,1.797 2.825,4.106 0.254,6.16 0,2.309 -2.82,2.563 -4.101,3.59 l 1.793,1.797 c -0.77,0.516 -1.282,2.305 -2.563,1.797 l -1.027,-0.774 -0.77,0.774 c 0.77,0 2.309,-0.258 2.567,0.769 0.258,7.953 -3.848,2.309 -3.848,9.75 1.281,3.078 5.641,1.282 5.387,5.129 -1.797,2.567 -3.594,-0.515 -5.387,-0.769 2.82,5.386 -3.594,10.004 -1.285,15.136 1.027,3.848 -1.285,6.157 -2.051,9.489 1.539,1.539 3.078,3.851 3.59,6.16 -1.539,2.308 -3.332,-0.77 -5.129,-0.77 0.512,1.797 -3.848,6.668 0.254,7.696 -0.77,4.359 2.57,3.851 4.363,6.156 -1.285,2.055 -3.851,3.851 -5.902,2.055 l 0.258,1.539 c 0.769,0 2.05,-0.258 2.566,0.769 0.258,2.567 -2.566,1.028 -3.336,2.824 2.563,1.536 2.051,4.106 3.594,5.899 -1.031,3.078 -3.852,1.539 -5.906,2.051 1.289,-0.512 1.543,1.027 2.57,1.539 l -1.027,1.027 c 0.769,0.258 1.281,0.77 1.027,1.793 -0.258,1.027 -1.797,0.773 -2.57,0.773 l 0.261,1.028 c 0.512,-1.801 2.309,0 3.332,0.769 l 0.258,4.36 c 0.77,-0.254 1.281,0.258 1.539,0.769 -0.769,0.516 -1.281,2.313 -2.566,1.797 0,3.594 3.848,6.156 1.285,9.492 l -3.336,-1.539 c 0.516,2.309 4.359,1.797 5.133,4.364 -1.797,2.304 -8.723,-1.286 -6.672,4.613 0.766,-0.766 1.027,-2.309 2.309,-2.051 1.027,0.258 1.027,1.285 1.027,2.051 z m 7.438,0 c -1.79,-1.535 -3.587,-2.817 -6.149,-3.078 l 3.069,3.078 h 3.08"
       style="fill:#76d0b7;fill-opacity:1;fill-rule:evenodd;stroke:none"
       transform="matrix(0.13333333,0,0,-0.13333333,0,257.33333)" />
    <path
       id="path8"
       d="m 815.293,871.676 0.152,-171.117 h -25.371 l -0.078,171.117 h 25.297"
       style="fill:#ffffff;fill-opacity:1;fill-rule:evenodd;stroke:none"
       transform="matrix(0.13333333,0,0,-0.13333333,0,257.33333)" />
    <path
       id="path9"
       d="m 572.543,871.676 c 0,0.262 0,0.515 0,0.515 1.281,-0.253 1.793,1.028 2.82,1.797 -1.027,2.821 -3.847,1.282 -6.156,2.051 1.281,1.027 2.563,1.027 3.59,2.309 -1.027,1.539 -0.77,3.336 1.027,4.363 l -1.797,2.055 c 1.282,1.023 2.821,0.765 3.852,2.304 l -3.594,2.567 1.797,1.797 c -1.027,0.511 -0.773,1.796 -0.773,2.562 l 1.027,1.027 c -1.027,1.54 -2.566,2.051 -4.363,1.797 l 4.363,2.567 -2.309,2.82 c 0.77,-0.512 1.282,0.258 1.539,0.516 -0.769,1.793 -0.769,3.336 -2.304,4.617 1.535,0.254 3.332,-0.774 4.359,0.769 -2.824,1.536 2.051,2.821 -0.773,4.36 -1.024,3.336 3.593,7.695 -2.305,7.953 1.793,0.258 3.844,-0.77 5.129,0.516 l -2.309,2.82 c -0.515,-1.028 -1.797,-0.77 -2.566,-0.77 3.59,3.336 5.133,5.391 7.187,9.492 l -3.339,1.797 c 0.515,4.36 5.39,0.512 6.925,4.106 -0.765,2.051 -3.843,2.305 -5.129,1.023 l -0.769,-0.769 c -0.512,0.515 -1.027,1.027 -1.793,0.769 1.027,1.282 0.254,3.336 1.793,4.36 -2.824,1.285 -1.285,4.109 -1.539,6.418 1.027,-0.512 1.281,0.254 1.797,0.515 -4.621,2.817 1.539,4.871 1.027,7.949 -1.285,1.282 -1.543,2.567 -1.543,4.618 0.77,-0.512 2.055,-3.59 3.594,-1.024 1.797,-1.027 4.359,0.766 6.926,1.281 -1.539,2.309 -4.871,1.282 -6.926,3.079 l -1.797,-1.797 c -1.281,2.054 -1.539,4.363 -1.281,7.183 0.511,-0.511 2.054,-3.332 3.336,-1.027 -1.028,4.109 -3.852,7.699 0.254,11.289 1.796,-1.027 0,-3.848 2.566,-3.59 2.055,0.77 2.309,3.848 1.027,5.133 -2.566,0.254 -2.566,3.332 -2.308,5.387 1.023,1.023 2.562,1.023 3.59,2.562 -1.797,0.774 -3.079,2.824 -4.36,0 v 1.797 c 4.106,-1.281 1.535,3.852 3.59,5.133 l -2.562,1.798 c 0,-1.029 3.589,1.79 6.152,0.76 l 0.769,0.77 c -0.254,3.6 -6.668,0.78 -5.64,5.39 1.281,-0.51 1.539,1.03 2.562,1.8 0.258,0.77 -0.254,1.28 -0.765,1.79 -1.543,0.26 2.82,-0.77 3.336,0.52 l -3.336,4.62 c 1.281,-0.52 1.793,1.02 2.82,1.54 l -1.539,4.61 c 2.82,-0.25 5.644,-0.77 7.695,1.54 -1.027,2.57 -3.851,1.29 -5.902,1.8 l 3.594,4.1 c -0.77,1.03 -2.051,1.54 -1.797,2.83 l 1.027,0.76 -1.797,1.8 c 1.285,1.54 3.34,2.57 3.848,4.36 l -1.797,1.8 c -1.281,0.26 5.133,-1.28 3.594,2.56 l -2.567,2.57 c 2.309,-0.51 4.106,0.77 6.16,1.54 0.254,2.57 -2.566,1.02 -3.335,2.82 l 3.335,3.34 c -2.312,2.56 2.825,3.59 3.079,5.9 l -1.028,1.02 c 0.512,0.26 1.282,0.77 1.028,1.8 l -0.774,0.77 5.133,1.54 c -1.027,1.54 -2.563,2.31 -4.105,2.05 l 2.57,1.54 c -2.313,5.38 8.719,7.95 4.617,13.85 l 1.023,-1.02 c 2.055,1.28 3.336,4.87 5.387,6.92 l -1.797,1.8 c 1.797,1.79 8.211,2.56 6.414,7.69 1.543,-0.76 2.571,0.78 3.594,1.54 -5.644,3.6 3.848,6.93 2.055,10.52 0.254,3.6 6.41,3.34 6.156,7.7 3.332,2.05 8.465,4.87 8.207,9.24 7.184,5.38 9.746,15.39 18.731,17.7 -0.258,-0.77 0.511,-1.29 1.027,-1.8 1.023,-0.51 1.793,1.03 2.562,1.54 0,1.8 -1.539,2.56 -2.562,3.85 1.535,3.85 9.746,1.54 8.207,8.47 1.797,6.15 13.086,7.69 15.137,15.13 3.336,-1.54 1.797,3.85 5.386,2.31 4.618,1.28 3.078,9.49 9.493,7.7 0,0 11.8,6.41 14.367,9.74 7.183,-2.3 5.129,9.24 12.312,6.68 6.16,6.67 15.137,9.75 22.836,13.08 3.594,4.88 10.52,4.11 14.367,9.24 5.641,-2.82 7.696,4.1 13.082,2.82 1.282,6.67 11.801,1.02 10.52,7.7 -1.281,-0.52 -2.566,-0.52 -3.594,-1.54 l -0.512,0.77 c 5.903,6.92 14.879,-0.77 18.985,8.97 4.105,6.93 12.828,-3.59 14.109,5.65 2.567,3.08 6.16,-3.33 6.93,2.31 1.535,-1.29 4.617,-1.54 6.156,0 0.77,0.51 2.309,1.02 2.051,2.31 l -1.024,1.02 c 1.282,1.03 2.563,1.03 3.59,2.31 0,-1.54 2.309,-2.82 3.336,-4.36 0.77,0.77 2.051,1.28 1.797,2.56 l -0.773,0.77 c 0.515,-3.59 5.39,-0.77 6.16,0.78 0.512,-0.26 1.281,0.5 1.535,0.77 0.262,2.56 -2.562,1.02 -3.332,2.82 5.387,-1.8 7.699,4.1 13.852,3.07 4.363,4.88 9.238,0.26 12.316,6.42 5.387,-3.34 8.98,3.85 14.109,3.85 10.774,1.79 20.27,5.64 30.532,8.72 0.257,-1.28 -0.77,-3.08 0.769,-3.59 3.848,0.26 6.668,6.41 10.52,4.1 -5.649,-0.51 -8.469,-9.23 -15.653,-5.64 -1.797,-5.39 -13.34,-1.54 -8.207,-7.7 -7.695,0.26 -16.676,-1.54 -23.605,-6.16 l -0.766,1.03 c -0.515,-1.03 -2.312,-1.28 -1.797,-2.56 6.926,-2.06 15.903,-1.8 20.778,2.56 l -0.77,1.03 c 8.469,-1.29 17.703,0.25 25.145,4.36 1.023,0.25 2.82,-0.77 3.589,0.77 4.106,-1.8 9.493,-4.88 13.852,-1.28 l 0.773,0.76 c 1.282,-2.05 2.567,1.55 4.36,1.55 6.414,2.82 15.137,-3.6 17.445,4.61 2.055,0 4.363,0.26 5.133,-2.05 3.59,9.24 13.594,-0.26 16.676,7.44 2.051,-0.26 4.105,-3.59 6.156,-1.03 -1.027,0.52 -0.77,1.54 -0.77,2.57 2.051,0 4.106,-0.52 5.387,1.54 2.309,-5.14 2.567,1.79 5.903,0.51 -0.254,1.03 0.511,1.54 1.027,1.8 2.818,1.28 4.358,-2.57 6.668,-0.26 4.11,-1.79 7.96,2.82 12.32,3.08 4.87,-0.77 9.23,0.51 13.85,1.28 2.82,-4.62 5.38,2.05 9.49,-0.25 1.03,0.77 2.05,2.56 3.59,2.3 5.13,-1.53 10.01,2.57 15.65,2.31 4.88,4.36 10.26,-2.05 15.65,1.03 1.02,-0.77 1.8,-2.31 3.34,-1.79 0.51,2.56 2.82,2.3 4.36,3.33 -1.03,2.56 -4.36,2.56 -6.68,3.84 -2.56,-2.82 -5.12,2.06 -7.69,-0.76 -6.67,3.08 -13.08,2.56 -20.01,0.76 -0.51,0.52 -0.77,1.03 -1.54,1.03 -1.28,-0.51 -1.03,-1.79 -1.03,-2.56 l -3.33,2.56 c -1.02,-0.25 -4.11,0.52 -6.16,0.26 -5.38,-6.16 -17.19,-0.77 -23.6,-6.93 -3.08,1.29 -7.95,1.54 -11.29,0.26 v 1.79 c 3.08,-1.53 5.39,2.57 7.95,-0.25 3.59,2.31 -2.82,4.1 0,6.16 2.06,-3.08 4.62,4.1 6.16,-1.29 5.39,2.57 11.29,5.9 17.45,3.08 0.77,0.77 2.31,1.29 1.79,2.57 h 1.8 c -0.52,-0.52 -1.28,-1.03 -1.03,-1.8 1.03,-1.02 1.8,-2.56 3.6,-1.8 1.28,0.52 0.51,2.32 0.76,3.34 l -0.76,1.03 c 6.15,4.62 15.64,0.77 21.8,5.13 6.67,-0.77 12.83,2.82 18.99,0.25 l -5.9,-1.53 c 1.79,-5.65 6.41,-1.8 10.26,-1.03 l -1.03,0.77 c 2.31,0.26 3.85,2.82 5.39,4.11 l 0.77,-0.77 31.29,1.53 c 4.63,-4.36 10.27,-0.51 15.66,-0.76 1.54,0.25 5.38,-0.77 7.69,0.76 -0.51,5.39 -8.97,-0.25 -8.46,5.65 4.1,-0.26 9.23,-0.52 12.31,-0.52 v 0 c 2.05,0.26 6.42,-0.77 7.44,-3.07 2.57,-3.09 7.44,-1.03 9.49,-5.65 6.16,0.51 10.78,-7.95 16.17,-3.85 -1.03,4.88 -6.93,4.11 -8.21,7.96 l -5.13,2.05 c 3.33,-1.03 9.74,1.79 11.03,-2.82 1.03,0 2.82,-1.03 3.59,0.51 v 1.8 c 1.8,-4.11 4.36,-1.29 6.92,-1.03 -0.25,-1.54 1.54,-2.56 2.32,-3.59 0.77,-0.26 1.54,0.25 1.79,0.77 l -1.79,1.79 c 4.87,3.59 4.87,-7.44 9.49,-1.03 8.21,0.27 12.82,-6.66 20.52,-6.92 l -0.77,-3.59 c 2.31,-1.03 4.87,-1.29 6.67,-3.59 l -1.8,-1.8 c 1.8,-1.03 3.09,-2.05 5.14,-2.05 -2.31,-4.87 4.1,-8.47 -0.51,-12.06 0.51,-1.28 1.79,-1.03 2.82,-1.03 -1.8,-2.3 -1.8,-2.82 -0.26,-5.13 3.08,-2.82 -0.51,-6.67 4.1,-7.18 -1.28,-7.44 4.87,-12.06 3.59,-19.5 0.27,-3.08 -1.02,-8.47 0.27,-12.31 5.64,4.11 0.76,11.8 3.33,16.67 -0.77,6.67 -5.9,12.32 -3.6,20.27 -1.02,1.02 -2.56,1.02 -3.33,2.57 l 2.57,3.59 c 7.18,-11.55 6.41,-27.19 5.64,-40.54 0.51,-4.1 2.31,-11.03 -2.31,-13.85 1.54,-5.9 0,-11.03 0.52,-16.68 -1.03,-3.08 -1.29,-6.67 -3.09,-9.49 -0.25,0.26 -0.76,1.03 -1.53,1.03 -1.03,-1.03 -2.57,-2.05 -2.06,-3.59 l 2.57,-2.83 -3.59,-4.1 c 0.51,-0.52 0.77,-1.03 1.79,-1.03 1.03,-3.59 -6.67,-2.56 -3.08,-6.67 0.52,1.03 1.8,0.77 2.83,0.77 0,-6.15 -2.83,-10.77 -3.34,-16.42 -1.02,-1.28 -1.02,-2.82 -2.56,-3.59 5.38,-6.92 -7.7,-7.95 -2.31,-14.62 -4.62,-5.39 -0.51,-11.55 -5.65,-16.42 2.31,-2.05 -0.77,-3.59 -1.02,-5.39 l -1.8,1.8 c -3.84,-1.03 -3.84,-5.39 -6.15,-7.7 l 4.87,-5.39 -0.77,-0.77 c -1.02,0.52 -1.54,2.31 -2.82,1.8 -3.08,-1.28 -0.26,-3.08 -1.03,-5.13 l 1.8,-1.8 -1.03,-1.02 c -1.28,1.02 -0.25,3.33 -2.31,2.82 -4.1,-3.34 -0.26,-6.93 0.51,-9.5 -1.02,-1.02 -2.82,-1.02 -3.59,-2.56 l 0.77,-0.26 v -1.54 h -0.77 c 0.26,0.78 -0.51,1.29 -0.77,1.8 -2.56,-0.26 -3.33,-3.08 -3.85,-5.13 0.52,-0.51 1.03,-1.28 1.8,-0.77 l 1.8,1.54 c -3.6,-5.9 -4.11,-14.11 -8.47,-18.98 -0.77,2.56 3.85,3.59 1.03,6.15 -3.08,-0.25 -4.36,-5.13 -6.16,-7.69 1.54,-1.29 1.8,-3.08 0.51,-4.37 -0.51,-1.54 -2.82,-0.77 -2.56,-2.56 l 4.36,-1.8 c -2.57,-1.79 -5.64,-3.08 -5.64,-6.93 -1.29,0.78 -2.31,-0.76 -3.34,-1.53 l 2.31,-2.82 -3.34,-1.54 1.8,-2.06 c -1.8,-0.25 -5.9,-1.79 -5.64,-4.87 0.51,-0.51 1.02,-1.03 1.79,-0.77 v -2.05 c -0.77,0 -1.28,0.77 -1.79,1.02 -4.62,-2.05 -1.54,-7.44 -6.42,-9.49 1.28,-5.39 -6.67,-6.67 -4.87,-12.83 -2.57,-4.1 -5.13,-5.64 -8.73,-9.23 l 1.54,-1.8 c -5.64,-1.54 -1.79,-9.24 -7.95,-11.287 l -0.25,-1.535 c -1.29,-0.262 -2.57,2.052 -3.34,0 l 0.51,-3.34 c -3.33,1.281 -2.56,-5.387 -5.9,-1.539 l -1.79,-1.797 c 2.05,-1.281 1.54,-3.336 1.54,-5.129 -1.03,0.77 -1.03,3.59 -3.34,2.567 -1.03,-3.082 -0.26,-10.52 -5.64,-11.032 0.25,-4.875 -6.68,-3.593 -5.39,-8.468 -2.05,-3.594 -6.93,-3.594 -7.19,-7.953 -1.02,0 -1.53,3.078 -3.58,2.054 -2.58,-1.797 -2.83,-4.105 -0.78,-6.16 -8.97,-9.234 -22.06,-19.238 -33.09,-25.141 -1.03,-1.281 -3.34,-2.05 -2.57,-4.363 -4.36,-2.562 -10.78,-4.613 -12.57,-9.75 -1.28,-0.254 -1.79,1.543 -3.59,1.028 -0.26,-0.512 -1.03,-1.028 -0.77,-1.793 l 1.54,-2.055 c -0.77,-0.512 -5.13,2.055 -6.16,-1.281 -1.28,-3.848 -6.15,-5.903 -9.49,-8.469 -3.33,-4.102 -7.7,1.285 -9.75,-4.102 -1.54,0.77 -0.51,3.336 -2.56,2.821 -3.6,-1.282 -0.26,-3.59 -0.26,-5.387 l 0.77,-0.77 c -5.9,-4.875 -14.37,-5.39 -19.24,-11.543 -2.57,0.512 -4.62,-0.515 -6.16,-2.312 -0.25,-1.024 0.26,-1.281 0.77,-2.051 h 1.03 c -4.36,-1.539 -8.21,-5.387 -13.34,-5.387 -1.54,-2.054 -2.83,-3.847 -4.37,-5.39 h -3.08 l 2.32,2.054 c -1.03,1.54 -3.081,0.516 -4.362,0.77 -0.52,-0.77 -1.289,-1.797 -2.316,-2.824 z m 622.647,0 0.26,0.262 c -1.03,0.507 -0.78,1.792 -0.78,2.82 5.39,-1.285 7.7,4.875 12.32,5.387 1.54,3.078 4.62,3.078 6.92,1.796 3.34,1.539 6.93,2.305 9.75,4.875 1.29,0.512 5.65,-1.796 6.93,1.282 v 1.793 c 5.13,2.312 15.65,-2.563 15.14,6.414 6.67,-0.766 47.97,15.14 47.97,15.14 10.01,1.793 18.22,8.207 27.97,10.258 0.51,-0.254 1.03,-1.023 0.77,-1.793 l -0.77,-0.769 c 1.03,-1.797 3.08,-0.516 4.36,0 1.79,2.05 4.36,5.386 1.02,7.695 6.67,1.797 12.06,6.414 18.47,7.953 1.8,1.027 4.11,1.285 5.39,3.336 -0.77,-1.281 0.77,-2.309 1.54,-3.336 4.1,0 6.42,6.414 11.55,3.848 1.54,2.566 6.67,1.285 5.39,5.902 -1.55,1.539 -4.11,0.77 -6.16,1.024 2.56,3.339 7.95,2.566 11.29,4.875 4.87,-0.254 9.23,-5.129 13.08,-2.309 7.19,-0.512 5.9,-9.492 13.34,-9.234 1.79,1.539 4.62,1.285 6.15,-0.258 l 1.03,-0.77 c 0.52,0.77 2.06,1.285 1.54,2.567 h 1.03 c -2.05,-4.36 -6.67,-7.184 -10.01,-11.801 -5.39,-4.106 2.05,-7.184 1.54,-11.547 -0.26,-2.305 2.05,-1.797 3.08,-2.82 1.03,-3.336 -3.59,-5.129 -1.03,-8.469 4.88,-3.844 1.8,-12.828 8.98,-13.594 l -3.59,-4.105 1.54,-2.051 -2.56,-3.336 0.77,-1.027 c -1.54,-1.024 -2.06,-2.309 -1.8,-4.106 l 2.57,-1.793 c -1.54,-0.773 -0.77,-2.312 -1.03,-3.34 l 0.51,-0.769 h -214.47"
       style="fill:#76d0b7;fill-opacity:1;fill-rule:evenodd;stroke:none"
       transform="matrix(0.13333333,0,0,-0.13333333,0,257.33333)" />
    <path
       id="path10"
       d="m 789.836,1221.87 h 25.144 l 0.313,-350.194 h -25.297 l -0.16,350.194"
       style="fill:#ffffff;fill-opacity:1;fill-rule:evenodd;stroke:none"
       transform="matrix(0.13333333,0,0,-0.13333333,0,257.33333)" />
    <path
       id="path11"
       d="m 1238.67,1196.51 -448.834,0.22 v 25.14 l 454.764,-0.22 c 0.2,-4.09 -0.53,-7.96 -0.15,-12.1 -1.03,-3.08 -1.29,-6.67 -3.09,-9.49 -0.25,0.26 -0.76,1.03 -1.53,1.03 -1.03,-1.03 -2.57,-2.05 -2.06,-3.59 l 0.9,-0.99"
       style="fill:#ffffff;fill-opacity:1;fill-rule:evenodd;stroke:none"
       transform="matrix(0.13333333,0,0,-0.13333333,0,257.33333)" />
    <path
       id="path12"
       d="m 1121.14,955.41 -331.304,0.16 v 25.399 l 354.214,-0.172 c -0.72,-1.418 -1.85,-2.469 -3.76,-2.649 0.25,-4.875 -6.68,-3.593 -5.39,-8.468 -2.05,-3.594 -6.93,-3.594 -7.19,-7.953 -1.02,0 -1.53,3.078 -3.58,2.054 -2.58,-1.797 -2.83,-4.105 -0.78,-6.16 -0.71,-0.734 -1.45,-1.473 -2.21,-2.211"
       style="fill:#ffffff;fill-opacity:1;fill-rule:evenodd;stroke:none"
       transform="matrix(0.13333333,0,0,-0.13333333,0,257.33333)" />
    <path
       id="path13"
       d="m 1204.42,1302.94 c -3.85,0.51 -6.92,2.56 -11.28,2.05 v 4.36 c 3.84,-2.56 9.74,-2.56 11.28,-6.41"
       style="fill:#ffffff;fill-opacity:1;fill-rule:evenodd;stroke:none"
       transform="matrix(0.13333333,0,0,-0.13333333,0,257.33333)" />
    <path
       id="path14"
       d="m 1109.24,1178.51 c -0.51,1.03 -1.79,1.03 -2.82,1.03 -0.26,-1.03 -0.26,-4.11 0.77,-5.39 -2.31,1.03 -3.59,-1.02 -5.13,-2.31 l -0.26,-2.82 c -0.77,0 -1.28,0.77 -1.54,1.03 0,-3.08 -4.62,-0.78 -4.36,-4.11 1.03,-2.05 2.83,-0.51 4.11,-0.26 -3.85,-0.77 -2.31,-4.36 -6.16,-5.13 1.03,0.52 1.03,1.8 1.03,2.83 -0.52,1.02 -1.8,0.77 -2.83,0.77 -1.28,-0.52 -0.51,-2.32 -0.76,-3.34 -1.8,1.8 -2.83,-0.26 -4.37,-0.77 -1.03,-0.25 -1.03,-1.54 -1.03,-2.57 0.52,-0.25 1.03,-1.02 1.54,-1.02 0.52,-0.77 -0.25,-1.28 -0.76,-1.54 -1.8,-0.26 -3.08,0.26 -4.11,1.8 -3.33,-4.37 -8.72,-2.06 -11.54,-7.44 l 5.13,-2.06 c -12.31,2.57 -15.91,-10.77 -26.43,-12.82 -4.36,-1.54 -1.28,-6.16 -4.61,-7.96 -1.8,7.44 -6.67,-2.3 -10.52,-2.05 -5.39,-4.87 -14.63,-7.44 -18.47,-13.34 l 0.51,-1.03 c -0.77,-1.8 -2.05,0.52 -3.33,0.26 -6.16,0.77 -4.62,-7.96 -11.3,-5.64 l -1.79,-1.8 0.77,-1.03 c -4.105,-1.02 -5.902,-4.61 -9.75,-4.1 l -2.566,-4.11 c -1.027,0.77 -2.051,2.57 -3.336,1.8 l -1.027,-0.77 0.773,-1.03 c -4.875,-1.28 -8.976,-4.61 -13.855,-5.38 -0.512,1.02 -1.797,1.02 -2.821,1.02 l -1.539,-1.8 c 0.512,-1.54 2.309,-0.76 3.336,-1.02 -2.824,1.28 -4.875,-5.64 -7.953,-3.34 -2.054,-1.79 -6.418,-4.1 -8.726,-0.51 -13.336,-7.69 -28.989,-11.03 -43.61,-15.13 -0.515,-0.77 0.766,-2.05 1.539,-1.8 h 2.563 c -1.539,-0.77 -4.102,-2.31 -6.926,-1.54 -5.898,5.64 -12.316,-2.31 -17.957,0.77 l -5.387,-2.57 -18.988,1.55 c 0,1.02 0.258,2.3 -0.77,2.82 l -1.792,-2.57 c -0.516,0.52 -1.028,0.77 -0.77,1.8 l 0.77,0.77 c -6.926,4.1 -20.012,-0.77 -21.297,10.26 l -2.563,-0.51 c 1.024,2.3 1.797,2.3 3.59,4.1 l -4.871,5.38 c -1.285,-0.51 -1.027,-1.79 -1.027,-2.56 l -1.797,1.8 c 4.105,1.28 -1.539,5.13 0.254,8.72 -2.309,1.54 -1.536,3.85 -4.106,5.39 1.543,0.51 2.055,3.07 2.055,5.13 -4.106,2.82 0.769,5.9 -0.512,9.75 0.77,0 1.027,-0.51 1.535,-1.03 4.364,2.82 -1.023,11.54 6.418,11.29 2.051,3.33 3.336,8.72 8.207,9.23 1.797,0.78 13.598,11.04 13.598,12.58 1.539,0.76 3.594,-2.06 5.898,0.76 3.852,-1.28 6.418,1.55 9.496,2.32 0.258,2.82 3.848,1.53 5.383,3.33 -0.508,0.26 -0.765,1.03 -1.789,0.77 1.281,1.28 3.332,1.8 5.387,0 3.844,-4.62 7.695,2.31 12.058,2.05 4.102,2.31 12.825,1.03 12.313,6.41 h -0.773 c 2.312,1.8 2.312,3.85 5.136,3.6 1.797,-1.03 4.102,1.54 6.157,-1.28 13.082,0.25 23.343,9.23 36.683,9.23 3.078,-2.05 5.133,3.33 8.723,3.33 6.672,1.29 13.34,5.4 20.011,3.6 2.825,5.64 10.52,-1.03 12.317,5.64 h 1.788 c -0.507,-0.51 -1.019,-1.02 -1.019,-1.8 l 1.789,-1.79 c 19.76,0 37.72,8.21 57.98,4.1 3.6,4.37 7.96,-1.79 12.06,1.29 7.19,-0.26 14.62,-0.52 21.55,-0.77 2.82,0.51 4.88,-0.77 6.16,-2.83 l 4.36,3.34 5.9,-8.98"
       style="fill:#ffffff;fill-opacity:1;fill-rule:evenodd;stroke:none"
       transform="matrix(0.13333333,0,0,-0.13333333,0,257.33333)" />
    <path
       id="path15"
       d="m 777.527,1090.77 c -6.16,-2.05 -3.336,-8.98 -4.109,-12.06 -5.902,-1.79 -0.254,-7.44 -4.617,-10.51 0.258,-3.34 3.851,-4.88 2.312,-8.73 l -0.773,0.77 c -3.332,-2.05 3.594,-10.52 -3.848,-10.26 l -1.027,-1.03 2.566,-2.56 c 0.512,1.02 1.797,0.77 2.824,0.77 -0.257,-0.77 -0.257,-5.13 -0.257,-6.16 -0.512,-0.26 -1.024,-1.02 -1.797,-0.77 l -1.028,0.77 c 0.77,1.03 2.313,1.29 2.055,2.82 l -1.027,0.77 c -2.309,-0.51 -4.106,-3.07 -3.59,-5.89 l 3.332,-2.83 c -0.512,-1.8 -2.309,-2.82 -1.793,-5.13 l -2.566,2.56 -1.797,-1.79 c 1.285,-3.85 4.363,-4.62 4.875,-8.72 -0.77,0 -2.309,0.25 -2.567,-0.77 l 1.797,-1.8 c -1.281,-1.54 -4.875,-0.26 -3.847,-3.33 1.027,-1.03 1.793,-2.83 3.589,-2.83 v -0.76 c -2.82,-1.55 -4.617,3.33 -6.156,-0.78 2.824,-2.05 -2.308,-4.1 0.516,-6.15 2.82,0 1.793,4.1 5.386,2.56 -1.027,-4.61 -6.16,-4.87 -8.21,-8.46 2.824,-2.052 -1.797,-3.595 0.769,-5.392 l -1.023,-0.769 c 1.281,-3.59 5.386,-0.512 6.922,-2.825 -2.051,-2.562 -7.95,1.797 -9.493,-3.332 1.797,-3.593 6.672,3.332 5.907,-2.824 -2.825,0.258 -5.391,0.258 -7.188,-2.308 -1.027,-4.872 10.266,-4.618 4.106,-8.719 h -1.54 c 0.258,0.769 -0.515,1.281 -1.023,1.535 -2.824,-1.027 -2.055,-3.336 -1.027,-5.898 l 2.562,0.769 c -1.535,-3.594 -4.359,-9.75 -2.051,-12.316 -1.539,0 -3.336,1.027 -4.359,-0.77 l 1.539,-1.539 -1.539,-1.797 3.332,-1.797 -1.793,-1.789 0.766,-0.773 -4.36,-1.539 c 0.77,-1.797 3.336,-2.309 2.567,-4.621 l -1.028,-0.766 -0.769,1.023 c -2.567,-1.793 0.769,-3.335 -0.254,-5.386 -0.773,0.258 -1.285,-0.512 -1.797,-0.77 l 3.59,-2.824 c -1.027,0.262 -1.539,-0.512 -2.051,-0.766 0,-2.312 2.309,-1.285 2.567,-3.593 -0.516,-0.516 -0.77,-1.024 -1.797,-0.77 l -1.539,1.797 c -1.286,-0.512 -1.028,-1.797 -1.028,-2.566 0.516,-0.512 0.77,-1.282 1.797,-1.028 -0.258,-0.512 -3.34,-2.051 -1.027,-3.332 l 2.566,0.77 c -1.539,-2.051 2.563,-3.078 0,-4.364 l -2.566,2.567 c 0,-3.336 -6.414,-2.309 -2.82,-5.899 0.253,-4.105 -2.309,-4.621 -3.594,-7.953 l 1.539,-1.543 -1.024,-1.023 2.563,-2.567 c 0.516,1.024 1.797,0.77 2.566,0.512 -1.543,-4.101 -11.289,-1.023 -5.386,-7.437 -0.258,-1.801 0.511,-3.852 -1.028,-5.387 l 6.672,-4.617 c -3.336,0.765 -4.363,-3.852 -2.562,-5.903 l 4.101,-2.824 c -2.055,0 -4.101,0.77 -5.129,-1.539 4.36,-1.793 3.074,-9.75 9.746,-8.211 l -1.539,-1.797 c 0.258,-0.254 1.024,-0.765 0.77,-1.793 -1.028,-1.539 -3.848,0.258 -3.59,-2.308 l 2.562,-2.821 c -5.64,1.024 -12.57,1.024 -15.39,5.899 -10.266,4.621 -21.039,8.98 -28.735,17.699 -5.132,-1.535 -6.414,6.16 -11.031,5.391 -1.281,2.308 -4.363,4.105 -3.336,7.183 -7.953,0.254 -7.183,8.977 -14.367,11.032 1.024,5.386 -7.437,3.078 -5.644,8.98 -3.332,4.106 -6.926,5.645 -10.004,10.004 -0.516,3.078 -5.387,3.848 -2.567,7.184 -4.621,1.796 -1.027,7.695 -6.414,8.98 2.055,2.309 0,5.641 -1.539,7.953 h -1.797 c 5.645,-0.254 3.848,6.156 5.645,9.492 l -0.77,0.77 c 1.285,-0.77 2.313,0.769 3.336,1.539 -0.769,2.566 -6.16,5.902 -0.515,7.953 H 659 c 0.254,-1.027 -0.258,-1.285 -0.773,-1.797 0.515,-0.512 0.773,-1.027 1.543,-0.769 3.847,5.64 6.925,13.339 11.8,16.933 2.309,3.848 6.41,8.465 4.875,13.082 1.282,0.262 1.793,-1.281 2.563,-2.054 l 2.566,3.339 -0.769,1.029 2.82,2.56 -0.766,0.77 c 3.844,6.16 7.954,10.78 13.34,15.4 -0.511,0.51 -1.027,1.02 -0.773,1.79 6.16,2.31 7.699,10.26 13.344,13.34 5.644,0.77 3.332,8.98 10.003,9.49 1.286,3.08 5.645,6.16 9.75,6.41 l -4.363,2.06 c 5.649,-1.54 5.133,6.16 10.52,4.87 l -1.539,1.8 c 5.644,1.28 6.156,6.67 10.519,9.24 l -0.769,1.02 c 3.589,0.77 7.183,4.11 8.211,7.44 0.769,0 2.05,0 2.308,-1.03 l 2.82,3.6 0.77,-1.03 1.797,1.54 c -1.027,0.77 -0.77,2.05 -0.77,2.82 1.286,0.26 2.567,-2.05 3.59,0 v 1.54 c 6.414,-2.31 4.617,7.19 10.52,6.67 0.515,3.85 6.414,3.59 5.39,0"
       style="fill:#ffffff;fill-opacity:1;fill-rule:evenodd;stroke:none"
       transform="matrix(0.13333333,0,0,-0.13333333,0,257.33333)" />
    <path
       id="path16"
       d="m 349.086,1310.38 c 0,27.19 22.062,49 49.004,49 27.191,0 49,-21.81 49,-49 0,-27.2 -21.809,-49 -49,-49 -26.942,0 -49.004,21.8 -49.004,49"
       style="fill:#ffffff;fill-opacity:1;fill-rule:evenodd;stroke:none"
       transform="matrix(0.13333333,0,0,-0.13333333,0,257.33333)" />
    <path
       id="path17"
       d="m 316.25,1155.17 -39.766,10.77 -1.539,-5.9 c -1.539,-5.9 -2.566,-10.77 -2.566,-15.14 -0.254,-4.1 0.769,-7.95 3.332,-11.29 2.312,-3.07 6.414,-5.38 12.316,-7.18 8.211,-2.05 14.11,-1.02 17.703,3.59 3.848,4.37 6.926,11.29 9.493,20.53 z m -54.645,44.63 143.153,-38.48 -9.238,-34.63 c -3.844,-14.11 -9.747,-23.86 -17.7,-29.5 -8.207,-5.65 -18.984,-6.67 -32.84,-3.08 -5.64,1.53 -10.777,4.1 -15.39,7.44 -4.363,3.59 -7.442,7.69 -8.981,12.57 -2.308,-5.13 -5.902,-8.98 -10.515,-11.81 -4.621,-2.56 -9.75,-4.1 -15.395,-4.61 -5.39,-0.51 -11.035,0 -16.676,1.54 -8.98,2.31 -15.906,6.41 -21.039,12.06 -5.129,5.38 -8.207,12.05 -9.238,19.75 -1.023,7.7 -0.254,15.9 2.059,24.88 z m 113.137,-60.28 -37.199,10 -0.77,-3.59 c -2.054,-6.93 -2.054,-12.57 -0.253,-16.42 2.05,-4.1 6.41,-6.93 13.593,-8.72 6.926,-2.06 12.059,-1.54 15.649,1.28 3.593,2.56 6.414,7.18 8.211,13.86 l 0.769,3.59"
       style="fill:#ffffff;fill-opacity:1;fill-rule:evenodd;stroke:none"
       transform="matrix(0.13333333,0,0,-0.13333333,0,257.33333)" />
    <path
       id="path18"
       d="m 287.773,1053.83 88.508,-6.16 -2.054,-28.99 -82.606,5.9 c -5.902,0.26 -11.035,0.52 -15.91,0.26 -4.871,-0.26 -9.488,-1.03 -13.852,-2.31 -4.617,-1.54 -8.207,-3.85 -11.031,-7.18 -3.082,-3.6 -4.617,-8.21 -5.133,-13.86 -0.254,-5.642 0.774,-10.513 3.082,-14.365 2.563,-3.59 5.641,-6.668 10.004,-8.465 4.106,-2.055 8.723,-3.59 13.344,-4.359 4.613,-0.774 10,-1.543 15.902,-1.801 l 82.61,-5.898 -2.051,-28.735 -88.512,6.156 c -12.312,0.774 -23.344,3.34 -32.582,7.957 -9.234,4.36 -16.16,10.774 -21.035,19.497 -4.617,8.464 -6.668,18.984 -5.902,31.813 1.027,12.57 4.363,22.83 10.261,30.78 6.157,7.7 13.852,13.34 23.602,16.43 9.75,3.07 21.039,4.1 33.355,3.33 z m 139.305,-44.38 c -0.258,-4.11 -2.051,-7.7 -5.387,-10.778 -3.336,-2.824 -7.183,-4.106 -11.289,-3.594 -4.363,0.258 -7.953,2.051 -10.777,5.132 -2.82,3.33 -4.105,7.18 -3.848,11.54 0.258,4.37 2.055,7.96 5.387,10.78 3.078,2.82 6.93,4.11 11.293,3.85 4.359,-0.26 7.953,-2.06 10.773,-5.39 2.825,-3.33 4.106,-7.19 3.848,-11.54 z m -2.824,-41.309 c -0.254,-4.36 -2.051,-7.953 -5.387,-10.778 -3.332,-2.82 -7.183,-4.101 -11.547,-3.847 -4.359,0.261 -7.949,2.054 -10.773,5.386 -2.82,3.34 -4.106,7.184 -3.848,11.547 0.516,4.36 2.313,7.699 5.391,10.774 3.332,2.824 7.18,4.105 11.543,3.593 4.363,-0.257 7.953,-2.05 10.777,-5.132 2.82,-3.332 4.102,-7.184 3.844,-11.543"
       style="fill:#ffffff;fill-opacity:1;fill-rule:evenodd;stroke:none"
       transform="matrix(0.13333333,0,0,-0.13333333,0,257.33333)" />
    <path
       id="path19"
       d="m 298.805,863.211 72.09,57.98 5.128,-33.093 -46.691,-33.868 55.414,-19.753 5.133,-33.348 -86.457,33.605 -67.215,-10.515 -4.621,28.472 67.219,10.52"
       style="fill:#ffffff;fill-opacity:1;fill-rule:evenodd;stroke:none"
       transform="matrix(0.13333333,0,0,-0.13333333,0,257.33333)" />
    <path
       id="path20"
       d="m 314.453,752.383 82.352,33.351 10.773,-26.937 -76.961,-31.043 c -5.39,-2.055 -10.008,-4.359 -14.367,-6.668 -4.105,-2.313 -7.953,-4.875 -11.547,-8.211 -3.332,-3.336 -5.387,-6.93 -6.672,-11.289 -1.027,-4.363 -0.508,-9.234 1.543,-14.625 2.309,-5.387 5.129,-9.234 8.977,-11.543 3.851,-2.313 8.211,-3.336 12.828,-3.336 4.621,0 9.238,0.77 13.851,2.051 4.622,1.285 9.75,3.082 15.141,5.133 l 76.965,31.043 10.773,-26.684 -82.351,-33.348 c -11.543,-4.617 -22.578,-6.929 -32.836,-7.183 -10.012,0 -19.242,2.824 -27.453,8.465 -7.953,5.644 -14.367,14.367 -19.242,25.914 -4.618,11.8 -6.161,22.574 -4.102,32.324 1.793,9.492 6.41,17.957 13.852,25.141 7.437,6.925 16.929,12.828 28.476,17.445 z m 144.695,21.293 c 1.54,-3.848 1.54,-7.949 -0.257,-12.059 -1.539,-3.847 -4.36,-6.668 -8.465,-8.465 -4.11,-1.539 -7.953,-1.539 -12.059,0.258 -4.105,1.539 -6.929,4.617 -8.469,8.465 -1.539,4.105 -1.539,8.211 0.258,12.059 1.539,4.101 4.36,6.925 8.469,8.464 4.105,1.54 7.949,1.54 12.055,0 3.851,-1.793 6.672,-4.617 8.468,-8.722 z m 15.391,-38.481 c 1.793,-3.851 1.793,-7.957 0,-12.058 -1.793,-3.848 -4.617,-6.672 -8.723,-8.465 -3.843,-1.539 -7.953,-1.539 -11.8,0.254 -4.106,1.797 -6.926,4.617 -8.465,8.469 -1.797,4.101 -1.539,8.207 0,12.054 1.797,4.106 4.617,6.93 8.465,8.465 4.105,1.543 8.211,1.543 12.058,0 4.102,-1.797 6.926,-4.617 8.465,-8.719"
       style="fill:#ffffff;fill-opacity:1;fill-rule:evenodd;stroke:none"
       transform="matrix(0.13333333,0,0,-0.13333333,0,257.33333)" />
    <path
       id="path21"
       d="m 420.664,596.914 77.481,-0.258 21.035,-28.734 -88.512,5.133 -29.758,-94.922 -21.808,30.015 26.168,77.735 -0.254,0.258 -53.875,-39.254 -17.192,23.347 120.067,87.227 16.933,-23.348 -50.539,-36.687 0.254,-0.512"
       style="fill:#ffffff;fill-opacity:1;fill-rule:evenodd;stroke:none"
       transform="matrix(0.13333333,0,0,-0.13333333,0,257.33333)" />
    <path
       id="path22"
       d="m 587.164,488.133 -23.601,-5.641 c 1.023,10.262 -1.54,18.215 -7.954,24.117 -3.593,3.336 -7.695,4.871 -12.57,5.133 -4.875,0.254 -8.976,-1.543 -12.059,-4.875 -3.589,-4.109 -5.132,-7.699 -4.105,-11.293 1.027,-3.332 3.848,-10.773 8.469,-22.32 4.871,-11.281 6.926,-21.031 6.668,-29.242 -0.258,-7.957 -4.364,-16.16 -12.059,-24.375 -6.668,-7.18 -14.109,-12.317 -22.062,-15.133 -8.211,-3.082 -16.418,-3.594 -24.883,-1.543 -8.211,1.797 -15.906,6.156 -23.094,12.828 -13.851,12.828 -18.473,30.274 -13.851,52.34 l 26.167,0.508 c -2.566,-5.903 -3.335,-12.055 -2.82,-18.469 0.766,-6.156 3.336,-11.543 7.695,-15.395 4.106,-4.105 8.977,-5.64 14.368,-4.871 5.386,0.512 10.004,3.075 14.109,7.438 3.336,3.594 5.133,7.183 5.133,11.031 0.254,3.852 0,7.442 -1.285,10.777 -1.282,3.079 -3.336,7.696 -6.157,13.34 -3.078,6.926 -5.386,13.34 -6.414,18.985 -1.285,5.644 -1.285,11.285 0.258,16.929 1.535,5.649 4.613,11.036 9.75,16.422 5.383,5.899 11.801,10.004 19.238,12.313 7.442,2.566 14.883,3.078 22.321,1.285 7.695,-1.539 14.367,-5.133 20.265,-10.774 3.336,-2.824 6.157,-6.675 9.239,-11.293 2.82,-4.359 5.133,-9.234 6.668,-14.105 1.797,-5.133 2.566,-9.754 2.566,-14.117 z m -125.711,-73.879 6.93,-18.988 -35.406,-4.36 -5.641,15.391 34.117,7.957"
       style="fill:#ffffff;fill-opacity:1;fill-rule:evenodd;stroke:none"
       transform="matrix(0.13333333,0,0,-0.13333333,0,257.33333)" />
    <path
       id="path23"
       d="m 671.57,418.355 -40.535,25.399 -17.449,-27.707 39.254,-24.371 -13.34,-21.555 -39.25,24.633 -21.039,-34.125 40.277,-25.399 -13.34,-21.289 -64.906,40.536 78.504,125.707 65.164,-40.532 -13.34,-21.297"
       style="fill:#ffffff;fill-opacity:1;fill-rule:evenodd;stroke:none"
       transform="matrix(0.13333333,0,0,-0.13333333,0,257.33333)" />
    <path
       id="path24"
       d="m 718.516,360.629 50.797,-17.188 18.988,55.157 27.191,-9.489 -48.23,-140.078 -27.196,9.235 21.551,62.855 -50.539,17.449 -21.805,-62.859 -27.195,9.492 48.231,140.078 27.449,-9.234 -19.242,-55.418"
       style="fill:#ffffff;fill-opacity:1;fill-rule:evenodd;stroke:none"
       transform="matrix(0.13333333,0,0,-0.13333333,0,257.33333)" />
    <path
       id="path25"
       d="m 873.988,379.102 -23.347,-146.489 -28.473,4.617 23.082,146.235 z m -8.211,41.05 c 4.364,-0.769 7.696,-2.82 10.262,-6.414 2.566,-3.336 3.594,-7.441 2.824,-11.547 -0.515,-4.359 -2.566,-7.695 -6.16,-10.257 -3.59,-2.571 -7.437,-3.594 -11.801,-2.825 -4.359,0.512 -7.695,2.825 -10.261,6.157 -2.567,3.589 -3.336,7.441 -2.821,11.8 0.77,4.364 2.821,7.696 6.41,10.266 3.594,2.563 7.442,3.332 11.547,2.82"
       style="fill:#ffffff;fill-opacity:1;fill-rule:evenodd;stroke:none"
       transform="matrix(0.13333333,0,0,-0.13333333,0,257.33333)" />
    <path
       id="path26"
       d="m 969.68,286.23 40.79,-63.363 -34.888,0.766 -34.894,60.289 h -0.508 l -1.028,-59.774 -28.988,0.512 2.563,148.285 39.253,-0.769 c 10.004,0 18.727,-1.797 25.907,-5.133 7.441,-3.078 13.09,-8.207 17.191,-14.879 3.848,-6.668 5.902,-15.137 5.642,-25.398 -0.26,-10.004 -3.075,-18.985 -8.462,-26.68 -5.645,-7.953 -13.086,-12.57 -22.578,-13.856 z m -28.477,62.598 -0.769,-44.64 h 3.847 c 8.723,-0.254 15.395,1.285 20.27,4.621 4.617,3.336 7.179,9.234 7.179,17.699 0.258,8.469 -2.05,14.371 -6.41,17.449 -4.621,3.078 -11.289,4.617 -20.011,4.871 h -4.106"
       style="fill:#ffffff;fill-opacity:1;fill-rule:evenodd;stroke:none"
       transform="matrix(0.13333333,0,0,-0.13333333,0,257.33333)" />
    <path
       id="path27"
       d="m 1149.78,314.707 12.83,-39.25 5.9,2.051 c 5.64,1.797 10.26,3.851 14.11,5.902 3.59,2.313 6.15,5.133 7.43,8.977 1.29,3.851 1.29,8.468 -0.76,14.113 -2.57,8.207 -6.67,12.57 -12.58,13.34 -5.64,0.512 -13.08,-0.516 -22.32,-3.59 z m -7.44,-70.039 -45.93,140.848 34.38,11.289 c 13.6,4.363 25.14,4.617 34.38,1.027 9.24,-3.594 15.91,-12.316 20.27,-25.656 1.79,-5.641 2.56,-11.285 2.05,-16.934 -0.26,-5.64 -2.31,-10.519 -5.39,-14.621 5.39,0.77 10.78,0 15.4,-2.308 4.87,-2.313 8.97,-5.903 12.31,-10.262 3.33,-4.36 6.15,-9.492 7.7,-14.879 3.08,-8.727 3.33,-16.934 1.54,-24.117 -1.8,-7.442 -5.91,-13.598 -11.55,-18.731 -5.9,-4.871 -13.34,-8.976 -22.06,-11.797 z m -11.03,127.766 11.8,-36.688 3.34,1.027 c 7.18,2.309 11.8,5.387 13.85,8.977 2.31,3.852 2.31,9.238 0.25,16.168 -2.3,6.668 -5.64,10.773 -9.75,12.309 -4.35,1.796 -9.75,1.543 -16.16,-0.508 l -3.33,-1.285"
       style="fill:#ffffff;fill-opacity:1;fill-rule:evenodd;stroke:none"
       transform="matrix(0.13333333,0,0,-0.13333333,0,257.33333)" />
    <path
       id="path28"
       d="m 1287.03,438.879 -42.07,-22.574 15.39,-28.735 40.53,21.547 11.8,-22.058 -40.53,-21.809 18.73,-35.406 42.07,22.578 12.07,-22.32 -67.74,-35.918 -69.78,130.843 67.73,35.918 11.8,-22.066"
       style="fill:#ffffff;fill-opacity:1;fill-rule:evenodd;stroke:none"
       transform="matrix(0.13333333,0,0,-0.13333333,0,257.33333)" />
    <path
       id="path29"
       d="m 1321.41,494.293 74.14,-98.258 32.58,24.629 15.14,-20.008 -55.67,-42.078 -89.28,118.527 23.09,17.188"
       style="fill:#ffffff;fill-opacity:1;fill-rule:evenodd;stroke:none"
       transform="matrix(0.13333333,0,0,-0.13333333,0,257.33333)" />
    <path
       id="path30"
       d="m 1437.88,571.004 -32.58,-34.895 23.86,-22.32 31.3,33.867 18.47,-17.187 -31.3,-33.867 29.25,-27.192 32.58,34.891 18.47,-17.192 -52.33,-55.925 -108.53,101.082 52.34,55.925 18.47,-17.187"
       style="fill:#ffffff;fill-opacity:1;fill-rule:evenodd;stroke:none"
       transform="matrix(0.13333333,0,0,-0.13333333,0,257.33333)" />
    <path
       id="path31"
       d="m 1563.34,532.008 -125.71,78.504 21.8,35.148 c 5.65,8.719 12.32,15.906 20.02,21.547 7.95,5.645 16.42,9.238 25.65,11.031 8.98,1.801 18.22,1.801 27.7,-0.258 9.5,-1.792 18.74,-5.382 27.72,-11.027 11.54,-7.441 20.52,-16.676 26.93,-27.707 6.41,-11.289 9.24,-23.09 8.98,-35.918 -0.25,-12.57 -4.1,-24.887 -11.29,-36.43 z m -89.03,89.793 82.87,-52.082 2.56,4.105 c 17.45,27.961 12.32,50.539 -15.39,67.731 -27.71,17.445 -50.28,12.054 -67.47,-15.907 l -2.57,-3.847"
       style="fill:#ffffff;fill-opacity:1;fill-rule:evenodd;stroke:none"
       transform="matrix(0.13333333,0,0,-0.13333333,0,257.33333)" />
    <path
       id="path32"
       d="m 1514.59,755.973 138.54,-53.106 -10.52,-26.937 -138.28,53.105 z m -41.82,0.769 c 1.54,4.11 4.36,6.93 8.21,8.723 4.11,1.797 7.95,1.797 12.06,0.262 4.11,-1.543 6.93,-4.11 8.73,-8.211 1.79,-3.852 1.79,-7.957 0.25,-12.059 -1.54,-4.105 -4.1,-6.926 -8.21,-8.723 -3.85,-1.796 -7.95,-1.796 -12.06,-0.257 -4.1,1.539 -6.92,4.359 -8.72,8.211 -1.8,4.105 -1.8,7.949 -0.26,12.054"
       style="fill:#ffffff;fill-opacity:1;fill-rule:evenodd;stroke:none"
       transform="matrix(0.13333333,0,0,-0.13333333,0,257.33333)" />
    <path
       id="path33"
       d="m 1613.62,807.797 -87.99,-28.219 6.92,32.84 55.93,14.621 -44.64,38.484 7.18,33.094 68.76,-62.344 66.44,-14.363 -5.9,-28.222 -66.7,14.109"
       style="fill:#ffffff;fill-opacity:1;fill-rule:evenodd;stroke:none"
       transform="matrix(0.13333333,0,0,-0.13333333,0,257.33333)" />
    <path
       id="path34"
       d="m 1577.45,992 -0.77,-47.719 32.58,-0.515 0.77,45.925 25.14,-0.511 -0.77,-45.922 40.02,-0.774 0.78,47.719 25.39,-0.254 -1.54,-76.711 -148.03,2.567 1.28,76.711 25.15,-0.516"
       style="fill:#ffffff;fill-opacity:1;fill-rule:evenodd;stroke:none"
       transform="matrix(0.13333333,0,0,-0.13333333,0,257.33333)" />
    <path
       id="path35"
       d="m 1549.23,1104.88 22.06,-10.26 c -7.18,-7.19 -10.01,-15.14 -8.72,-23.86 0.77,-4.62 3.07,-8.47 6.67,-11.55 3.84,-3.07 7.95,-4.35 12.57,-3.59 5.39,0.77 8.72,2.83 10,6.42 1.54,3.34 3.85,10.77 7.19,22.83 3.33,11.8 7.44,20.78 12.82,26.94 5.14,6.15 13.34,10.26 24.38,11.8 9.75,1.54 18.72,1.02 26.93,-1.54 8.21,-2.82 15.14,-7.44 20.53,-14.11 5.39,-6.41 8.72,-14.62 10.26,-24.37 3.08,-18.73 -4.1,-35.15 -21.29,-49.77 l -21.04,15.65 c 5.64,3.08 10.26,7.44 13.59,12.82 3.34,5.65 4.62,11.29 3.6,16.94 -0.77,5.64 -3.6,10 -8.47,12.82 -4.61,2.83 -9.75,3.59 -15.65,2.83 -4.62,-0.77 -8.46,-2.57 -11.03,-5.65 -2.57,-2.82 -4.36,-5.9 -5.39,-9.23 -1.03,-3.34 -2.05,-8.21 -3.59,-14.37 -1.54,-7.44 -3.85,-13.59 -6.41,-18.99 -2.57,-5.12 -6.16,-9.75 -10.78,-13.08 -4.36,-3.59 -10.26,-5.9 -17.44,-6.92 -7.96,-1.29 -15.65,-0.52 -23.09,2.05 -7.19,2.56 -13.34,6.92 -18.22,12.83 -5.13,5.89 -8.21,12.82 -9.49,20.77 -0.77,4.37 -0.77,9.24 -0.26,14.63 0.52,5.39 1.8,10.51 3.6,15.39 1.53,4.88 3.84,9.24 6.67,12.57"
       style="fill:#ffffff;fill-opacity:1;fill-rule:evenodd;stroke:none"
       transform="matrix(0.13333333,0,0,-0.13333333,0,257.33333)" />
    <path
       id="path36"
       d="m 1518.44,1157.99 140.85,45.92 8.98,-27.45 -141.11,-45.92 z m -33.09,-25.66 c -1.29,4.11 -1.03,8.21 1.02,12.06 1.8,3.85 4.88,6.41 8.98,7.7 4.36,1.28 8.21,1.02 12.06,-1.03 3.84,-1.79 6.41,-4.87 7.95,-8.98 1.28,-4.1 1.03,-8.21 -1.02,-12.06 -2.06,-3.84 -5.14,-6.41 -9.24,-7.69 -4.1,-1.54 -7.95,-1.03 -11.8,0.77 -4.11,2.05 -6.67,5.13 -7.95,9.23"
       style="fill:#ffffff;fill-opacity:1;fill-rule:evenodd;stroke:none"
       transform="matrix(0.13333333,0,0,-0.13333333,0,257.33333)" />
    <path
       id="path37"
       d="m 514.563,1506.89 -34.891,-32.58 22.058,-23.86 33.868,31.56 16.933,-18.47 -33.609,-31.3 27.449,-29.51 34.895,32.59 17.187,-18.21 -56.183,-52.34 -101.082,108.26 56.183,52.34 17.192,-18.48"
       style="fill:#ffffff;fill-opacity:1;fill-rule:evenodd;stroke:none"
       transform="matrix(0.13333333,0,0,-0.13333333,0,257.33333)" />
    <path
       id="path38"
       d="m 618.723,1592.33 -0.774,-24.12 c -9.488,3.59 -17.957,3.08 -25.394,-1.54 -4.11,-2.56 -6.672,-6.15 -8.211,-10.78 -1.281,-4.61 -0.774,-8.97 1.797,-12.82 2.82,-4.62 6.152,-6.93 9.746,-6.93 3.593,0.26 11.547,1.03 23.601,2.57 12.317,1.54 22.321,1.28 30.016,-1.28 7.699,-2.31 14.625,-8.22 20.527,-17.71 5.129,-8.47 8.207,-16.93 8.977,-25.65 0.769,-8.47 -1.028,-16.68 -4.875,-24.12 -4.102,-7.7 -10.258,-14.11 -18.473,-19.24 -16.16,-10 -34.117,-10 -54.129,0.26 l 6.157,25.4 c 5.132,-3.85 10.777,-6.42 17.191,-7.44 6.41,-0.77 12.055,0.25 16.93,3.33 4.875,3.08 7.695,7.19 8.468,12.57 0.77,5.39 -0.515,10.78 -3.593,15.65 -2.563,4.11 -5.645,6.67 -9.235,7.95 -3.847,1.29 -7.441,1.8 -10.773,1.29 -3.336,-0.26 -8.211,-1.03 -14.625,-2.31 -7.442,-1.28 -14.11,-1.8 -20.012,-1.54 -5.898,0.51 -11.289,2.05 -16.16,4.88 -5.133,2.82 -9.492,7.43 -13.344,13.59 -4.363,6.67 -6.668,14.11 -7.183,21.8 -0.258,7.7 1.285,15.14 4.617,22.07 3.594,6.93 8.722,12.31 15.652,16.68 3.848,2.31 8.207,4.36 13.34,5.9 5.129,1.54 10.262,2.57 15.648,2.82 5.133,0.51 9.75,0 14.114,-1.28"
       style="fill:#ffffff;fill-opacity:1;fill-rule:evenodd;stroke:none"
       transform="matrix(0.13333333,0,0,-0.13333333,0,257.33333)" />
    <path
       id="path39"
       d="m 714.926,1581.29 22.832,74.15 33.609,11.54 -30.785,-82.86 82.094,-56.19 -35.145,-12.05 -66.445,47.46 h -0.516 l 21.809,-63.11 -27.195,-9.5 -48.489,140.33 27.45,9.24 20.269,-59.01 h 0.512"
       style="fill:#ffffff;fill-opacity:1;fill-rule:evenodd;stroke:none"
       transform="matrix(0.13333333,0,0,-0.13333333,0,257.33333)" />
    <path
       id="path40"
       d="m 838.328,1680.58 28.219,-145.46 -28.219,-5.39 -28.476,145.47 z m -21.551,35.92 c 4.106,0.77 8.207,0 11.801,-2.31 3.59,-2.57 5.899,-5.9 6.672,-10.01 0.77,-4.36 0,-8.21 -2.566,-11.8 -2.313,-3.59 -5.645,-5.9 -10.008,-6.67 -4.106,-0.77 -8.207,0 -11.801,2.31 -3.59,2.57 -5.645,5.9 -6.668,10 -0.773,4.37 0,8.21 2.563,11.8 2.308,3.6 5.644,5.91 10.007,6.68"
       style="fill:#ffffff;fill-opacity:1;fill-rule:evenodd;stroke:none"
       transform="matrix(0.13333333,0,0,-0.13333333,0,257.33333)" />
    <path
       id="path41"
       d="m 982.762,1679.3 -12.824,-20.53 c -6.157,7.96 -13.856,11.55 -22.575,11.29 -4.621,0 -8.98,-1.79 -12.32,-5.13 -3.586,-3.34 -5.383,-7.44 -5.129,-12.05 0.254,-5.4 1.797,-8.99 5.129,-10.78 3.082,-1.8 10.266,-5.13 21.809,-9.75 11.289,-4.87 19.753,-10.01 25.144,-15.91 5.641,-5.9 8.465,-14.62 8.981,-25.91 0.253,-9.75 -1.543,-18.73 -5.133,-26.42 -3.594,-7.96 -8.981,-14.11 -16.422,-18.73 -7.18,-4.36 -15.645,-6.93 -25.656,-7.18 -18.723,-0.77 -34.375,8.46 -46.434,27.19 l 17.957,18.98 c 2.313,-5.9 6.16,-11.03 11.035,-14.88 5.133,-4.1 10.52,-5.9 16.418,-5.9 5.645,0.26 10.262,2.57 13.598,6.93 3.336,4.36 4.875,9.24 4.875,15.39 -0.258,4.62 -1.539,8.47 -4.106,11.29 -2.566,3.08 -5.644,5.13 -8.722,6.67 -3.078,1.29 -7.699,3.08 -13.856,5.13 -6.926,2.57 -13.082,5.65 -17.953,8.72 -4.879,3.34 -8.726,7.44 -11.808,12.32 -2.821,4.87 -4.36,11.03 -4.614,18.21 -0.258,8.21 1.282,15.65 4.875,22.58 3.332,6.93 8.465,12.57 14.879,16.67 6.414,4.37 13.852,6.42 21.805,6.93 4.363,0 9.238,-0.51 14.625,-1.79 5.133,-1.03 10.004,-2.82 14.879,-5.14 4.617,-2.3 8.465,-5.12 11.543,-8.2 z m -36.684,-141.1 18.473,-8.47 -21.809,-28.22 -14.879,6.92 18.215,29.77"
       style="fill:#ffffff;fill-opacity:1;fill-rule:evenodd;stroke:none"
       transform="matrix(0.13333333,0,0,-0.13333333,0,257.33333)" />
    <path
       id="path42"
       d="m 1110.27,1651.33 -47.21,7.44 -5.13,-32.32 45.41,-7.19 -3.85,-24.88 -45.4,7.18 -6.42,-39.51 47.21,-7.44 -3.85,-24.88 -75.68,12.06 23.09,146.23 75.68,-11.8 -3.85,-24.89"
       style="fill:#ffffff;fill-opacity:1;fill-rule:evenodd;stroke:none"
       transform="matrix(0.13333333,0,0,-0.13333333,0,257.33333)" />
    <path
       id="path43"
       d="m 1176.46,1597.46 50.02,-18.99 20.79,54.39 27.19,-10.26 -53.1,-138.28 -27.2,10.26 23.86,61.83 -50.03,19.24 -23.6,-61.83 -26.94,10.27 53.11,138.27 26.94,-10.26 -21.04,-54.64"
       style="fill:#ffffff;fill-opacity:1;fill-rule:evenodd;stroke:none"
       transform="matrix(0.13333333,0,0,-0.13333333,0,257.33333)" />
    <path
       id="path44"
       d="m 1346.81,1580.78 -76.45,-126.99 -24.63,14.88 76.19,126.99 z m 7.95,41.05 c 3.59,-2.31 6.16,-5.39 7.19,-9.75 1.02,-4.1 0.51,-8.21 -1.8,-11.8 -2.31,-3.85 -5.39,-6.16 -9.75,-7.19 -4.1,-1.02 -8.21,-0.51 -11.8,1.8 -3.85,2.31 -6.16,5.39 -7.18,9.75 -1.03,4.11 -0.52,8.21 1.79,11.8 2.06,3.6 5.39,6.16 9.75,7.19 4.11,1.02 7.95,0.51 11.8,-1.8"
       style="fill:#ffffff;fill-opacity:1;fill-rule:evenodd;stroke:none"
       transform="matrix(0.13333333,0,0,-0.13333333,0,257.33333)" />
    <path
       id="path45"
       d="m 1388.11,1444.04 -8.21,-74.65 -26.68,22.57 10.78,68.75 -0.26,0.26 -38.48,-45.66 -22.06,18.47 95.18,113.65 30.01,-25.14 c 7.7,-6.41 13.34,-13.34 16.93,-20.52 3.85,-6.93 5.13,-14.37 3.85,-22.32 -1.02,-7.7 -5.13,-15.4 -11.54,-23.35 -6.42,-7.7 -14.37,-12.83 -23.35,-15.39 -9.24,-2.57 -17.96,-1.28 -26.17,3.33 z m 17.19,66.71 -28.73,-34.12 3.07,-2.58 c 6.68,-5.38 12.83,-8.46 18.48,-8.97 5.9,-0.52 11.54,2.56 16.93,8.97 5.39,6.68 7.44,12.58 5.64,17.71 -1.53,5.39 -5.64,10.77 -12.31,16.42 l -3.08,2.57"
       style="fill:#ffffff;fill-opacity:1;fill-rule:evenodd;stroke:none"
       transform="matrix(0.13333333,0,0,-0.13333333,0,257.33333)" />
    <path
       id="path46"
       d="m 1452.51,1310.38 c 0,27.19 21.8,49 49,49 26.94,0 49,-21.81 49,-49 0,-27.2 -22.06,-49 -49,-49 -27.2,0 -49,21.8 -49,49"
       style="fill:#ffffff;fill-opacity:1;fill-rule:evenodd;stroke:none"
       transform="matrix(0.13333333,0,0,-0.13333333,0,257.33333)" />
  </g>
</svg>
