<?xml version="1.0" encoding="iso-8859-1"?>
<!-- Generator: Adobe Illustrator 29.7.1, SVG Export Plug-In . SVG Version: 9.03 Build 0)  -->
<svg version="1.1" id="Layer_1" xmlns="http://www.w3.org/2000/svg" xmlns:xlink="http://www.w3.org/1999/xlink" x="0px" y="0px"
	 viewBox="0 0 3508 2481" style="enable-background:new 0 0 3508 2481;" xml:space="preserve">
<g transform="translate(0.000000,2481.000000) scale(0.100000,-0.100000)">
	<path d="M16140,16195c-134-28-206-65-242-123c-19-31-24-55-28-147l-5-110l-370-37c-203-20-393-39-422-42l-51-6l-19,38
		c-33,68-175,131-383,169c-127,23-480,23-625,0c-133-21-230-52-265-85c-27-26-30-35-50-192c-11-91-23-177-26-191l-5-25l-532-53
		c-293-29-550-57-572-63c-83-21-89-33-163-332c-32-127-38-165-30-188c13-38,44-58,89-58c64,0,75,18,128,213c26,97,51,180,55,184
		c9,10,84,18,559,58c235,21,431,35,434,31c3-3-8-106-24-228c-34-253-32-271,29-301c33-16,40-17,71-3c20,8,40,23,46,35
		c6,11,38,222,71,468s63,460,66,475c4,20,15,31,47,42c156,57,563,60,776,5c105-27,131-45,147-100c18-61,43-81,107-86
		c28-3,238,14,466,36c228,23,422,39,432,36c27-9,31-62,28-355c-2-151,0-285,5-298c9-26,54-52,91-52c16,0,38,12,56,29l29,29v501v500
		l24,28l24,28l234-2c346-4,561-28,648-73c19-10,55-37,80-61c25-23,72-55,106-71c71-33,101-36,1084-87c1124-60,1271-65,1394-51
		c61,7,130,15,153,17c34,4,44,1,49-12c4-9-5-172-20-363s-26-360-26-375c0-42,49-87,95-87c40,0,81,32,89,72c3,12,19,203,35,422
		c24,316,34,403,46,415c13,14,33,11,187-28c95-24,188-48,206-53l32-9v-72c0-84,11-106,67-130c21-9,274-75,563-146
		c289-72,550-139,580-148l55-18l88-200c48-110,97-208,108-217c32-27,94-23,124,7c41,40,34,75-65,297c-50,112-99,217-110,235
		c-17,28-33,37-146,72c-133,43-516,140-842,215c-106,24-196,46-199,50c-3,3-9,44-13,90c-4,47-12,92-19,100c-8,9-43,25-80,36
		c-92,27-378,95-484,115l-88,16l-177-35c-97-19-220-41-272-48c-147-20-663-15-1085,10c-198,12-540,31-760,42c-285,15-414,25-449,36
		c-27,9-94,42-149,74c-188,111-324,140-697,146C16266,16208,16189,16206,16140,16195z"/>
	<path d="M22560,14642c0-29,2-30,55-34c34-3,66-13,83-25c59-44,57-10,57-828c0-717-1-751-19-781c-23-38-64-64-103-64
		c-52,0-73-11-73-36v-24l368,2l367,3l3,23c2,12,0,22-5,22c-41,0-130,23-146,37c-43,39-47,67-47,363v280h120h120l64-86
		c35-48,110-163,166-256c155-256,231-326,410-378c61-18,110-23,263-27l187-5v44v45l-110,11c-61,6-119,16-129,21
		c-26,14-217,216-287,303c-87,108-334,444-334,454c0,5,16,20,35,33c73,50,185,180,223,259c32,67,37,88,40,169c9,198-82,370-233,439
		c-107,49-168,55-637,61l-438,5V14642z M23331,14520c134-38,211-206,196-430c-11-164-60-260-154-306c-47-24-72-28-164-32l-109-5v398
		v398l98-6C23251,14533,23311,14525,23331,14520z"/>
	<path d="M10620,14627c0-23,5-24,96-34c124-13,141-28,155-132c6-44,9-338,7-759c-3-642-4-689-21-720c-21-39-68-62-125-62
		c-48,0-71-22-51-46c12-14,56-15,429-11c384,4,421,6,499,26c262,67,410,234,411,462c0,112-47,234-123,316c-79,86-160,128-270,141
		l-58,7l65,47c154,111,248,318,216,475c-33,161-162,277-335,303c-39,5-256,10-482,10h-413V14627z M11439,14465c58-32,103-89,121-155
		c14-50,11-188-4-233c-29-79-89-140-166-166c-19-6-68-14-107-18l-73-6v308v307l88-4C11371,14495,11394,14489,11439,14465z
		 M11385,13725c125-33,204-103,264-237c71-156,68-327-8-418c-111-134-392-141-419-10c-4,19-6,180-4,358l4,322h52
		C11302,13740,11353,13733,11385,13725z"/>
	<path d="M12524,14586c-72-72-21-182,83-179c55,2,98,49,98,109c0,39-5,50-33,75C12625,14634,12570,14632,12524,14586z"/>
	<path d="M12915,14608c-36-19-55-52-55-94c0-52,28-90,77-103c106-30,182,102,104,180C13009,14622,12954,14630,12915,14608z"/>
	<path d="M15334,14586c-72-72-21-182,83-179c55,2,98,49,98,109c0,39-5,50-33,75C15435,14634,15380,14632,15334,14586z"/>
	<path d="M15725,14608c-36-19-55-52-55-94c0-52,28-90,77-103c106-30,182,102,104,180C15819,14622,15764,14630,15725,14608z"/>
	<path d="M22117,14600c-15-12-31-37-36-58c-22-78,53-153,131-131c67,18,97,87,66,154C22254,14619,22165,14638,22117,14600z"/>
	<path d="M12040,14280c0-28,3-30,35-30c20,0,51-6,70-14c65-28,65-24,65-533c0-500,5-547,57-651c69-137,229-216,458-229
		c183-9,327,39,441,148c130,125,148,210,164,779c10,349,17,418,49,460c17,22,25,25,76,22c64-3,98-17,137-59c15-15,115-173,222-350
		l195-322l3-256c3-291,5-285-78-285c-64,0-74-7-74-51v-39h320h320v39v39l-80,4c-67,3-83,7-102,26c-22,22-23,29-26,250l-4,228
		l186,333c257,460,248,447,358,458c77,7,129-8,158-44c19-25,20-40,20-483c0-499,5-562,55-660c36-72,98-135,159-164
		c138-65,338-92,475-62c109,23,192,66,267,137c75,72,107,132,129,242c19,95,35,354,35,582c1,279,24,425,71,440c14,5,19,16,19,41v34
		h-235h-235v-40v-40h69c53,0,74-4,92-19l24-19v-454c0-439-1-455-22-523c-27-85-75-145-147-183c-46-24-61-27-157-27
		c-97,0-110,2-164,30c-66,33-118,93-135,153c-23,82-32,304-28,652c3,195,9,363,13,373c11,26,43,40,110,46c51,5,60,9,60,26
		c0,20-8,20-537,23l-538,2v-30c0-23,5-31,26-36c14-4,29-17,34-29c19-50-18-138-173-408l-85-149l-35,64c-19,34-70,126-113,203
		c-135,243-138,249-131,276c4,14,18,31,32,37c21,10,26,18,23,40l-3,27l-507,3l-508,2v-40v-40h69c53,0,74-4,92-19l24-19l3-408
		c4-534-6-604-102-700c-70-69-126-88-250-82c-99,5-146,22-209,78c-85,74-101,204-95,746c3,260,7,375,16,390c15,28,33,35,107,43
		c51,5,60,9,60,26c0,20-8,20-312,23l-313,2V14280z"/>
	<path d="M16382,14288c3-21,10-24,68-29c75-6,114-28,129-71c7-21,11-223,11-610c0-642,1-636-62-662c-18-8-59-17-90-21
		c-48-6-58-11-58-26c0-18,14-19,350-19c334,0,350,1,350,19c0,15-11,19-62,25c-71,7-118,31-136,68c-9,20-12,95-10,299l3,272l74-99
		c265-352,451-522,638-580c75-24,95-26,191-21c62,2,126,12,151,21c26,9,47,12,50,7s65-12,138-16l132-8l-54-65c-30-37-55-70-55-74
		s12-8,28-8c64-1,152-65,152-112c0-60-55-118-114-118c-40,0-56-11-56-36c0-22,4-24,53-24c67,0,163,17,199,36c34,18,75,77,84,121
		c16,83-32,160-117,188l-49,17l27,37c25,35,33,39,99,50c88,15,182,60,223,107c124,141,137,431,25,581c-49,66-90,102-224,193
		c-171,116-240,198-240,285c0,144,217,228,342,132c50-39,80-93,86-158c4-48,5-49,37-49h32l5,113c5,120-2,211-19,228
		c-30,30-347,40-447,14c-76-20-138-64-191-136c-80-109-100-232-58-351c40-110,110-189,298-340c66-52,139-115,162-139
		c97-102,97-204,0-304c-161-165-384-68-413,179l-7,57l-36-3l-36-3l-3-184l-2-184l-43,6c-167,23-427,240-745,620l-132,158l157,152
		c87,84,212,205,279,269c128,123,120,118,234,130c22,3,25,8,28,46l3,42l-243-2l-243-3l-3-31c-2-19,3-36,12-44c45-36-12-121-220-327
		c-96-95-179-173-184-173c-6,0-10,80-10,215c0,289,5,300,139,313c57,6,66,10,66,27c0,20-8,20-348,23l-348,2L16382,14288z"/>
	<path d="M18902,14288c2-17,10-24,33-26c59-5,76-13,95-45c19-31,20-53,20-630c0-704,4-675-100-687c-37-4-46-9-48-27l-3-23h455
		c250,0,457,3,459,8c3,4,6,81,8,172l4,165l-27,3c-27,3-28,1-28-40c0-24-9-62-20-86c-28-62-77-81-229-89c-142-7-166-2-191,40
		c-18,30-20,51-20,291v258l133-4c141-4,180-16,211-60c9-12,16-37,16-55c0-32,1-33,43-33h44l6,122c4,66,7,141,7,165v43h-45
		c-25,0-45-5-45-11c0-32-151-55-285-44l-85,7v259v259h108c120,0,176-12,211-43c28-26,60-92,61-124c0-27,31-45,68-41l27,3v145v145
		l-443,3l-443,2L18902,14288z"/>
	<path d="M20044,14295c-10-25,6-35,58-35c67,0,117-25,134-66c21-50,20-1179,0-1229c-18-42-55-62-134-71c-51-5-62-10-62-25
		c0-18,15-19,350-19c334,0,350,1,350,19c0,15-10,19-60,24c-33,4-74,14-91,23c-55,28-59,52-59,384v300h351h351l-4-307
		c-3-228-7-315-17-334c-18-37-61-58-130-65c-50-6-61-10-61-25c0-18,15-19,345-19c338,0,345,0,345,20c0,16-7,20-32,20
		c-62,1-112,18-140,50l-28,30v610v609l23,26c23,27,76,44,140,45c33,0,37,3,37,25v25h-345h-345v-25c0-24,3-25,55-25
		c60,0,98-15,130-50c19-20,20-39,24-256l3-234h-352h-351l3,233c3,247,6,262,55,288c12,7,51,15,85,18c56,5,63,9,66,29l3,22h-346
		C20102,14310,20049,14308,20044,14295z"/>
	<path d="M21822,14288c3-20,10-24,63-28c65-6,89-16,120-50c20-22,20-37,20-629c0-571-1-608-18-633c-21-30-56-44-134-54
		c-43-5-53-10-53-25c0-18,15-19,345-19s345,1,345,19c0,15-10,19-56,25c-31,3-69,13-84,21c-63,32-60,1-60,660c0,577,1,601,20,632
		c21,35,67,53,138,53c38,0,42,2,42,25v25h-346h-345L21822,14288z"/>
	<path d="M14724,12461c-56-25-101-83-115-148c-26-114,48-227,162-253c171-38,313,137,240,295C14961,12462,14832,12510,14724,12461z"
		/>
	<path d="M10332,12048c-21-46-339-780-707-1632c-605-1398-674-1554-715-1599c-53-59-126-97-190-97c-80,0-90-7-90-56v-44h510h510v50
		c0,28-3,50-7,51c-5,0-72,4-150,8c-162,9-199,22-191,69c5,29,1144,2762,1156,2774c5,5,302-762,410-1059c3-10-79-13-392-13h-396v-50
		v-50l416-2l417-3l255-675c140-371,256-677,258-678c1-2,77,24,168,58l165,62l-19,47c-10,25-117,294-238,596
		c-120,303-222,560-226,572l-7,23l338,2l338,3v45v45l-360,3l-360,2l-324,815l-325,815h-103h-104L10332,12048z"/>
	<path d="M16359,10493c-761-1760-733-1701-834-1753c-44-22-61-25-150-24c-115,1-265,33-317,68c-19,12-38,37-45,56
		c-9,26-12,234-12,798l-1,762h465h465v50v50h-653h-654l-6-172c-4-95-7-521-7-945v-773h870h870v50c0,60,5,58-170,63
		c-141,4-180,16-180,55c0,13,260,648,577,1409c424,1014,580,1381,587,1370c6-9,98-249,206-534l195-518l-392-3l-393-2v-50v-50h413
		h412l255-676c140-371,258-680,261-685c5-8,311,100,327,115c3,4-104,280-237,614c-134,334-245,613-248,620c-4,9,67,12,336,12h341v50
		v50l-361,2l-362,3l-321,807l-321,808h-106h-106L16359,10493z"/>
	<path d="M19129,11992l-146-56l-7-149c-3-83-6-776-6-1540V8857l-52-52c-59-58-107-75-216-75c-31,0-74-3-94-6l-38-7v-52v-52l452-6
		c248-4,520-7,605-7h153v64v63l-137,6c-76,3-155,11-177,18c-52,18-92,57-105,105c-8,27-11,410-11,1274c0,1208,0,1234,19,1215
		c10-11,384-533,831-1160s814-1142,816-1144s82,24,179,59l175,63v663v664h-190h-190l-2-394l-3-395l-810,1111
		c-445,611-830,1139-855,1173l-45,63L19129,11992z"/>
	<path d="M8724,11932c-58-3-64-11-64-93c0-97-42-100-295-19c-377,120-641,139-930,65c-255-65-504-203-744-415l-81-71v-455v-454h-120
		h-120l6-62c35-392,162-687,393-919c226-226,497-345,866-380c295-28,695,37,1069,172l86,31v534v534h275h275v45v45h-465h-465v-469
		v-469l-72-22c-367-112-681-115-904-11c-114,53-305,173-365,229c-205,190-320,523-306,887c23,590,328,1022,812,1152
		c90,24,118,26,280,27c178,1,181,0,275-32c147-51,231-103,341-212c84-84,101-107,148-201c37-75,58-133,69-193l17-86h36
		c36,0,36,0,43,53c8,74,8,785-1,789C8778,11934,8752,11934,8724,11932z"/>
	<path d="M12017,11933c-4-3-7-73-7-155v-148h735c404,0,735-2,735-5c0-2-144-214-320-471c-176-256-320-470-320-475s101-9,234-9h235
		l24,33c19,25,630,964,660,1013c4,6-14,59-40,118l-46,106h-942C12447,11940,12020,11937,12017,11933z"/>
	<path d="M14207,11933c-6-6-10-92-4-94c1,0,58-4,127-8c173-12,231-39,271-126c17-37,19-75,19-538v-497l193,2l192,3l5,530
		c5,482,7,533,23,562c31,57,64,67,232,73l150,5v45v45l-601,3C14484,11939,14210,11937,14207,11933z"/>
	<path d="M20990,11305v-635h190h190v635v635h-190h-190V11305z"/>
	<path d="M27263,11933l-413-3v-150v-149l543-3l543-3l75-37c121-60,193-134,259-266c78-157,82-390,9-535c-60-120-183-224-317-269
		c-66-22-77-23-589-26l-523-3v-830c0-945,7-873-86-916c-45-21-74-25-184-30l-131-6l3-46l3-46l598-3l597-2v58v58h-137
		c-128-1-142,1-187,24c-91,46-86-1-86,767v672l53,5c28,3,185,8,347,11s331,11,375,16c176,23,323,95,445,219c159,161,241,376,242,630
		c2,326-142,600-393,752c-130,78-335,122-549,116C27713,11936,27489,11934,27263,11933z"/>
	<path d="M21760,11608l1-323l43,106c48,119,121,237,169,273c103,77,175,89,483,80l234-7l2-531l3-531h185h185l3,478l2,477h450h450
		v150v150h-1105h-1105V11608z"/>
	<path d="M24462,11303l3-628h185h185l3,478l2,477h745h745v150v150h-935h-935L24462,11303z"/>
	<path d="M12698,10483c-8-10-203-289-432-620c-413-598-416-603-416-653v-50h1000c890,0,1001,2,1007,15c3,9,35,177,72,375l67,360h-52
		h-52l-27-72c-63-169-79-206-111-260c-59-97-143-154-271-184c-58-13-137-15-525-12c-251,2-460,6-463,10c-4,4,138,231,317,505
		l324,498l462,3l462,2v50v50h-673C12758,10500,12712,10499,12698,10483z"/>
	<path d="M21930,10450v-50h380h380l2-617l3-618l403-3l402-2v60v60h-62c-113,0-247,19-288,40c-79,40-74,7-80,625l-5,550l-567,3
		l-568,2V10450z"/>
	<path d="M24458,9663c-3-807-3-829-23-862c-40-68-61-75-218-81l-142-5v-55v-55l1082-3l1081-2l12,32c6,18,63,183,125,366l114,332h-62
		h-62l-24-45c-88-166-188-289-338-416l-81-70l-528-2l-528-2l-13,25c-10,20-13,194-13,803v777h745h745v45v45h-935h-935L24458,9663z"
		/>
</g>
</svg>
