<?xml version="1.0" encoding="iso-8859-1"?>
<!-- Generator: Adobe Illustrator 29.7.1, SVG Export Plug-In . SVG Version: 9.03 Build 0)  -->
<svg version="1.1" id="Layer_1" xmlns="http://www.w3.org/2000/svg" xmlns:xlink="http://www.w3.org/1999/xlink" x="0px" y="0px"
	 viewBox="0 0 1920 1080" style="enable-background:new 0 0 1920 1080;" xml:space="preserve">
<g>
	<polygon style="fill:none;stroke:#FFFFFF;stroke-width:0.5669;stroke-miterlimit:22.9256;" points="818.283,399.283 
		1100.68,399.283 1100.68,681.68 818.283,681.68 818.283,399.283 	"/>
	<path style="fill:none;stroke:#FFFFFF;stroke-width:0.1526;stroke-miterlimit:22.9256;" d="M891.395,513.934
		c38.119-72.098,115.11-55.592,136.778,1.505"/>
	<path style="fill-rule:evenodd;clip-rule:evenodd;fill:#FFFFFF;" d="M960.463,443.207c53.378,0,96.912,43.538,96.912,96.92
		s-43.535,96.92-96.912,96.92c-53.378,0-96.912-43.538-96.912-96.92S907.086,443.207,960.463,443.207L960.463,443.207z"/>
	<path style="fill-rule:evenodd;clip-rule:evenodd;fill:#205B3E;" d="M960.463,440.389L960.463,440.389l0.001,0.011
		c27.473,0.001,52.407,11.198,70.465,29.257c18.058,18.06,29.254,42.994,29.254,70.47h0.011v0.001v0.001h-0.011
		c0,27.476-11.196,52.411-29.255,70.471c-18.058,18.059-42.99,29.256-70.464,29.257v0.011h-0.001h-0.001v-0.011
		c-27.474,0-52.407-11.197-70.465-29.257c-18.058-18.06-29.254-42.994-29.254-70.47h-0.011v-0.001v-0.001h0.011
		c0-27.476,11.196-52.41,29.254-70.47c18.058-18.06,42.99-29.256,70.464-29.256v-0.011H960.463L960.463,440.389z M960.464,446.014
		v0.011h-0.001h-0.001v-0.011c-25.903,0-49.426,10.574-66.478,27.627c-17.053,17.054-27.625,40.58-27.625,66.485h0.011v0.001v0.001
		h-0.011c0,25.905,10.572,49.43,27.624,66.484c17.053,17.054,40.577,27.628,66.48,27.628v-0.011h0.001h0.001v0.011
		c25.902-0.001,49.426-10.574,66.478-27.627c17.053-17.055,27.625-40.58,27.625-66.485l-0.011,0v-0.001v-0.001h0.011
		c0-25.905-10.572-49.43-27.625-66.484C1009.891,456.588,986.367,446.015,960.464,446.014L960.464,446.014z"/>
	<path style="fill-rule:evenodd;clip-rule:evenodd;fill:#205B3E;" d="M960.785,478.302l-8.382,12.752l-0.287-3.511l-10.102,13.039
		l-0.287-3.654l-6.734,11.105c-3.726-3.368-4.37-11.821-6.663-16.621l-41.339,32.311c19.057,17.695,27.081,42.126,44.204,58.891
		l0.645,5.301c-6.162-4.514-13.756-8.525-22.209-11.678h13.755l-2.078-2.579h-36.968c12.466,29.374,44.992,54.879,86.832,50.007
		c-38.114-3.94-68.419-22.209-77.876-44.706c34.174,1.146,49.935,31.523,67.273,39.189v-6.019
		c-6.52-1.862-16.908-15.546-24.072-19.773V558.47h5.731v7.809h15.547v-7.809h6.52l-3.726-5.301h-7.308v8.311h-5.731v-8.311h-15.977
		v21.779c-9.242-6.734-16.621-28.37-37.326-50.938l5.373-4.298l17.123,17.91l-13.541-20.489l4.442-3.726l16.908,18.628
		l-12.609-21.636l4.155-3.51l14.974,19.845l-10.532-22.568l5.445-4.37c5.445,21.207,30.806,37.828,34.604,51.154L960.785,478.302
		L960.785,478.302z"/>
	<path style="fill-rule:evenodd;clip-rule:evenodd;fill:#205B3E;" d="M960.318,618.065c30.162,11.893,59.249-16.549,76.372-44.49
		l-36.825,0.071l-2.078,2.579h13.755c-8.812,2.149-15.905,5.374-22.209,11.678l0.645-5.301
		c17.123-16.765,25.147-41.195,44.204-58.891L992.845,491.4c-2.292,4.8-2.937,13.254-6.663,16.621l-6.734-11.105l-0.287,3.653
		l-10.102-13.039l-0.287,3.51l-8.096-12.394l-0.501,72.001c3.797-13.326,29.588-29.66,35.033-50.867l5.445,4.37l-10.532,22.568
		l14.973-19.845l4.155,3.51l-12.609,21.636l16.908-18.627l4.442,3.725l-13.54,20.491l17.122-17.911l5.373,4.299
		c-20.704,22.567-28.084,44.203-37.326,50.938v-21.78h-15.976v8.311h-5.731v-8.311h-7.308l-3.726,5.302h6.519v7.809h15.547v-7.809
		h5.731v32.096c-4.728,3.869-16.263,13.612-20.991,18.985l-0.287,0.287c18.627-4.728,28.657-32.024,63.261-31.451
		c-12.681,21.923-44.276,46.281-66.126,33.816L960.318,618.065L960.318,618.065z"/>
	<path style="fill-rule:evenodd;clip-rule:evenodd;fill:#ED1C24;" d="M960.43,601.639c-15.906-1.922-23.048-22.177-7.953-27.306
		c3.084-0.833,5.681-0.512,8.034,0.897L960.43,601.639L960.43,601.639z"/>
	<path style="fill-rule:evenodd;clip-rule:evenodd;fill:#ED1C24;" d="M959.89,601.625c15.906-1.923,23.373-21.985,8.278-27.113
		c-3.084-0.834-5.681-0.513-8.034,0.897L959.89,601.625L959.89,601.625z"/>
	<path style="fill-rule:evenodd;clip-rule:evenodd;fill:#ED1C24;" d="M904.786,583.285c1.618,0,2.938,1.352,2.938,3.009
		c0,1.657-1.32,3.009-2.938,3.009c-1.617,0-2.937-1.352-2.937-3.009C901.849,584.636,903.169,583.285,904.786,583.285
		L904.786,583.285z"/>
	<path style="fill-rule:evenodd;clip-rule:evenodd;fill:#ED1C24;" d="M1013.859,582.698c1.618,0,2.937,1.351,2.937,3.009
		c0,1.657-1.319,3.009-2.937,3.009c-1.618,0-2.937-1.352-2.937-3.009C1010.922,584.049,1012.242,582.698,1013.859,582.698
		L1013.859,582.698z"/>
	<path style="fill-rule:evenodd;clip-rule:evenodd;fill:#ED1C24;" d="M881.931,518.668l-2.455-0.704l1.617-5.637l5.034,1.444
		c0.425,1.289,0.655,2.387,0.681,3.293c0.029,0.907-0.122,1.929-0.448,3.068c-0.402,1.402-0.969,2.475-1.7,3.22
		c-0.73,0.748-1.638,1.23-2.723,1.442c-1.085,0.215-2.239,0.149-3.463-0.201c-1.29-0.37-2.335-0.959-3.137-1.763
		c-0.799-0.806-1.299-1.792-1.5-2.96c-0.153-0.909-0.033-2.042,0.355-3.395c0.374-1.304,0.772-2.246,1.195-2.826
		c0.421-0.579,0.941-1.01,1.562-1.296c0.617-0.285,1.339-0.426,2.165-0.421l-0.382,3.699c-0.487,0.018-0.899,0.168-1.235,0.447
		c-0.335,0.276-0.581,0.684-0.734,1.221c-0.23,0.8-0.135,1.518,0.284,2.153c0.422,0.635,1.231,1.126,2.435,1.472
		c1.278,0.366,2.261,0.386,2.946,0.062c0.685-0.321,1.152-0.914,1.399-1.774c0.117-0.407,0.168-0.815,0.155-1.217
		c-0.012-0.405-0.09-0.889-0.237-1.446l-1.114-0.319L881.931,518.668L881.931,518.668z M877.791,506.843l1.608-3.448l11.135,5.192
		l-1.608,3.448L877.791,506.843L877.791,506.843z M891.45,505.877l-10.185-6.87l3.538-5.246c0.656-0.972,1.241-1.661,1.755-2.059
		c0.513-0.403,1.101-0.61,1.767-0.619c0.663-0.011,1.319,0.203,1.967,0.64c0.566,0.382,0.971,0.831,1.22,1.347
		c0.247,0.518,0.355,1.074,0.328,1.667c-0.021,0.379-0.134,0.838-0.345,1.376c0.378-0.29,0.688-0.477,0.931-0.566
		c0.16-0.058,0.451-0.106,0.873-0.143c0.423-0.035,0.731-0.041,0.93-0.014l3.98,0.469l-2.399,3.557l-4.248-0.419
		c-0.545-0.057-0.935-0.044-1.171,0.043c-0.308,0.119-0.561,0.325-0.755,0.612l-0.187,0.277l4.133,2.788L891.45,505.877
		L891.45,505.877z M887.524,498.629l0.896-1.328c0.096-0.143,0.238-0.45,0.424-0.925c0.098-0.238,0.106-0.48,0.025-0.728
		c-0.083-0.247-0.235-0.445-0.458-0.595c-0.33-0.223-0.651-0.288-0.968-0.197c-0.319,0.088-0.67,0.421-1.058,0.995l-0.932,1.382
		L887.524,498.629L887.524,498.629z M889.597,486.483l6.806-7.559l1.949,1.755l-4.261,4.732l1.452,1.308l3.953-4.389l1.862,1.676
		l-3.952,4.39l1.799,1.619l4.385-4.87l2.069,1.862l-6.931,7.697L889.597,486.483L889.597,486.483z M903.949,482.907l2.578-2.541
		c0.443,0.392,0.857,0.624,1.241,0.699c0.62,0.12,1.204-0.062,1.753-0.539c0.408-0.355,0.641-0.723,0.696-1.109
		c0.053-0.384-0.03-0.702-0.249-0.954c-0.209-0.24-0.5-0.366-0.877-0.372c-0.377-0.006-1.02,0.239-1.935,0.739
		c-1.502,0.809-2.723,1.215-3.665,1.211c-0.947,0.001-1.735-0.36-2.365-1.086c-0.415-0.478-0.669-1.049-0.761-1.712
		c-0.091-0.663,0.034-1.356,0.377-2.082c0.345-0.725,0.999-1.506,1.965-2.345c1.185-1.03,2.281-1.596,3.286-1.697
		c1.004-0.1,1.983,0.281,2.937,1.138l-2.563,2.505c-0.434-0.355-0.85-0.528-1.246-0.516c-0.392,0.011-0.792,0.192-1.196,0.543
		c-0.334,0.291-0.525,0.578-0.569,0.867c-0.047,0.287,0.019,0.533,0.196,0.736c0.128,0.146,0.311,0.219,0.552,0.217
		c0.243,0.005,0.661-0.16,1.259-0.495c1.487-0.819,2.622-1.323,3.403-1.518c0.782-0.195,1.474-0.197,2.076-0.001
		c0.601,0.194,1.124,0.543,1.565,1.05c0.516,0.594,0.827,1.287,0.934,2.073c0.109,0.788-0.02,1.568-0.387,2.341
		c-0.364,0.77-0.996,1.548-1.894,2.329c-1.576,1.37-2.931,2.017-4.067,1.936C905.856,484.247,904.843,483.774,903.949,482.907
		L903.949,482.907z M917.606,462.896l3.315-1.837l3.552,6.407c0.353,0.636,0.584,1.289,0.7,1.964c0.114,0.672,0.079,1.34-0.11,1.996
		c-0.188,0.657-0.468,1.198-0.837,1.629c-0.514,0.595-1.22,1.144-2.126,1.646c-0.523,0.29-1.113,0.571-1.773,0.838
		c-0.658,0.27-1.254,0.411-1.79,0.423c-0.536,0.012-1.088-0.087-1.656-0.296c-0.567-0.209-1.031-0.491-1.394-0.846
		c-0.584-0.569-1.022-1.118-1.315-1.646l-3.552-6.407l3.315-1.837l3.636,6.56c0.326,0.588,0.742,0.956,1.247,1.104
		c0.508,0.15,1.05,0.065,1.627-0.255c0.571-0.316,0.931-0.729,1.076-1.234c0.144-0.502,0.05-1.054-0.28-1.65L917.606,462.896
		L917.606,462.896z M925.514,458.451l3.392-1.037l6.411,5.148l-1.987-6.5l3.422-1.045l3.592,11.748l-3.422,1.046l-6.373-5.105
		l1.972,6.451l-3.414,1.043L925.514,458.451L925.514,458.451z M947.447,452.395l7.091-0.496c1.181-0.082,2.109,0.148,2.781,0.689
		c0.674,0.541,1.041,1.244,1.102,2.105c0.051,0.725-0.131,1.363-0.545,1.913c-0.278,0.366-0.699,0.671-1.264,0.911
		c0.894,0.149,1.567,0.47,2.019,0.954c0.45,0.487,0.703,1.121,0.758,1.9c0.044,0.636-0.064,1.217-0.323,1.746
		c-0.261,0.529-0.635,0.957-1.128,1.289c-0.304,0.205-0.774,0.372-1.41,0.5c-0.846,0.171-1.407,0.267-1.687,0.287l-6.537,0.457
		L947.447,452.395L947.447,452.395z M951.604,456.936l1.646-0.115c0.591-0.042,0.995-0.173,1.214-0.392
		c0.217-0.222,0.311-0.524,0.284-0.906c-0.025-0.357-0.159-0.628-0.404-0.812c-0.248-0.186-0.658-0.258-1.231-0.218l-1.672,0.117
		L951.604,456.936L951.604,456.936z M951.94,461.751l1.932-0.135c0.654-0.046,1.105-0.192,1.354-0.442
		c0.252-0.25,0.365-0.57,0.337-0.962c-0.025-0.362-0.177-0.644-0.457-0.845c-0.281-0.202-0.751-0.28-1.416-0.234l-1.924,0.135
		L951.94,461.751L951.94,461.751z M962.497,451.541l10.147,0.71l-0.183,2.617l-6.352-0.444l-0.136,1.949l5.893,0.412l-0.175,2.5
		l-5.892-0.412l-0.169,2.414l6.537,0.457l-0.194,2.777l-10.332-0.723L962.497,451.541L962.497,451.541z M976.57,452.983l3.716,0.79
		l-1.925,9.057l5.795,1.232l-0.629,2.96l-9.51-2.021L976.57,452.983L976.57,452.983z M989.461,456.292l9.496,3.645l-0.94,2.449
		l-5.945-2.282l-0.7,1.825l5.515,2.116l-0.898,2.339l-5.514-2.117l-0.867,2.259l6.118,2.348l-0.998,2.599l-9.67-3.712
		L989.461,456.292L989.461,456.292z M1002.35,461.885l4.98,2.648c0.98,0.521,1.702,1.077,2.167,1.664
		c0.461,0.588,0.759,1.236,0.888,1.943c0.128,0.71,0.106,1.44-0.066,2.197c-0.175,0.755-0.459,1.502-0.852,2.242
		c-0.616,1.159-1.226,1.989-1.831,2.487c-0.602,0.499-1.253,0.84-1.951,1.02c-0.697,0.183-1.353,0.204-1.967,0.062
		c-0.84-0.194-1.559-0.45-2.155-0.766l-4.98-2.649L1002.35,461.885L1002.35,461.885z M1004.395,466.125l-3.15,5.925l0.821,0.437
		c0.702,0.373,1.24,0.562,1.619,0.562c0.378,0.003,0.755-0.146,1.13-0.442c0.372-0.298,0.79-0.882,1.252-1.752
		c0.611-1.149,0.841-2.034,0.693-2.657c-0.151-0.625-0.659-1.167-1.528-1.629L1004.395,466.125L1004.395,466.125z M1015.563,470.17
		l2.998,2.342l-7.564,9.681l-2.998-2.343L1015.563,470.17L1015.563,470.17z M1020.896,474.257l2.982,2.981l-1.179,4.687l4.687-1.179
		l2.963,2.963l-8.427,1.671l-3.639,3.639l-2.69-2.69l3.639-3.639L1020.896,474.257L1020.896,474.257z M1032.101,486.333l5.979,8.23
		l-2.122,1.541l-3.743-5.151l-1.581,1.149l3.472,4.778l-2.027,1.473l-3.472-4.779l-1.958,1.423l3.852,5.302l-2.252,1.636
		l-6.088-8.38L1032.101,486.333L1032.101,486.333z M1032.198,501.458l1.895,3.084c-0.482,0.344-0.8,0.695-0.96,1.052
		c-0.257,0.577-0.211,1.188,0.13,1.829c0.254,0.477,0.561,0.787,0.924,0.927c0.362,0.138,0.69,0.128,0.986-0.029
		c0.28-0.149,0.469-0.405,0.559-0.77c0.091-0.366-0.003-1.048-0.285-2.051c-0.45-1.646-0.571-2.926-0.356-3.844
		c0.213-0.923,0.742-1.609,1.59-2.061c0.559-0.297,1.172-0.416,1.839-0.355c0.667,0.06,1.314,0.338,1.944,0.835
		c0.628,0.499,1.242,1.312,1.843,2.441c0.737,1.386,1.042,2.582,0.914,3.584c-0.128,1.001-0.719,1.869-1.769,2.606l-1.865-3.062
		c0.443-0.343,0.705-0.708,0.784-1.097c0.078-0.385-0.009-0.814-0.26-1.287c-0.208-0.391-0.445-0.641-0.717-0.75
		c-0.269-0.11-0.523-0.101-0.761,0.026c-0.172,0.091-0.283,0.254-0.336,0.49c-0.059,0.236,0.008,0.679,0.2,1.339
		c0.463,1.632,0.7,2.851,0.713,3.657c0.014,0.806-0.139,1.48-0.466,2.023c-0.324,0.541-0.782,0.973-1.375,1.288
		c-0.695,0.369-1.44,0.516-2.23,0.444c-0.792-0.071-1.523-0.373-2.194-0.903c-0.67-0.529-1.284-1.319-1.843-2.37
		c-0.98-1.844-1.306-3.309-0.971-4.398C1030.464,503.015,1031.151,502.135,1032.198,501.458L1032.198,501.458z M1045.978,511.539
		l1.176,3.619l-11.685,3.796l-1.176-3.618L1045.978,511.539L1045.978,511.539z"/>
	<path style="fill-rule:evenodd;clip-rule:evenodd;fill:#ED1C24;" d="M1018.566,467.757c0.896,0,1.622,0.726,1.622,1.622
		c0,0.895-0.727,1.621-1.622,1.621c-0.895,0-1.622-0.726-1.622-1.621C1016.944,468.483,1017.67,467.757,1018.566,467.757
		L1018.566,467.757z"/>
	<path style="fill-rule:evenodd;clip-rule:evenodd;fill:#ED1C24;" d="M1048.483,511.037c0.896,0,1.621,0.727,1.621,1.622
		c0.001,0.895-0.726,1.621-1.621,1.621c-0.895,0-1.622-0.726-1.622-1.621C1046.862,511.762,1047.588,511.037,1048.483,511.037
		L1048.483,511.037z"/>
	<path style="fill-rule:evenodd;clip-rule:evenodd;fill:#FFFFFF;" d="M946.972,520.887h-2.199v-9.961h-2.038v-1.726h4.238V520.887
		L946.972,520.887z M953.958,512.14c0,0.337,0.102,0.611,0.301,0.822c0.2,0.211,0.463,0.318,0.784,0.318
		c0.343,0,0.613-0.104,0.808-0.312c0.194-0.211,0.293-0.495,0.293-0.861c0-0.342-0.101-0.621-0.302-0.838
		c-0.2-0.216-0.463-0.326-0.783-0.326c-0.321,0-0.586,0.112-0.792,0.334C954.062,511.499,953.958,511.787,953.958,512.14
		L953.958,512.14z M953.429,517.422c0,0.477,0.153,0.874,0.458,1.195c0.304,0.321,0.679,0.482,1.123,0.482
		c0.477-0.001,0.872-0.162,1.181-0.482c0.31-0.321,0.466-0.723,0.466-1.211c0-0.518-0.151-0.931-0.449-1.235
		c-0.302-0.304-0.704-0.457-1.214-0.457c-0.474,0-0.855,0.156-1.14,0.465C953.571,516.487,953.429,516.901,953.429,517.422
		L953.429,517.422z M953.004,514.364c-0.419-0.258-0.742-0.586-0.973-0.988c-0.23-0.4-0.345-0.841-0.345-1.318
		c0-0.844,0.323-1.573,0.972-2.178c0.647-0.608,1.43-0.912,2.351-0.912c0.97,0,1.781,0.298,2.43,0.896
		c0.649,0.597,0.975,1.334,0.975,2.21c0,0.493-0.115,0.931-0.345,1.317c-0.23,0.387-0.57,0.71-1.019,0.973
		c0.641,0.325,1.118,0.734,1.433,1.222c0.312,0.49,0.469,1.068,0.469,1.737c0,1.115-0.367,2.025-1.104,2.734
		c-0.734,0.709-1.688,1.063-2.855,1.063c-1.096-0.001-2.011-0.362-2.745-1.088c-0.731-0.723-1.098-1.627-1.098-2.709
		c0-0.636,0.15-1.191,0.454-1.67C951.906,515.173,952.371,514.743,953.004,514.364L953.004,514.364z M962.683,516.92
		c0,0.584,0.186,1.08,0.562,1.485c0.375,0.408,0.824,0.611,1.348,0.611c0.558,0,1.013-0.189,1.369-0.568
		c0.356-0.375,0.534-0.863,0.534-1.457c0-0.592-0.175-1.08-0.526-1.455c-0.35-0.378-0.8-0.567-1.345-0.567
		c-0.534,0-0.992,0.192-1.372,0.579C962.872,515.934,962.683,516.392,962.683,516.92L962.683,516.92z M964.674,509.201h2.383
		l-2.649,3.997c0.208-0.049,0.381-0.08,0.515-0.096c0.131-0.017,0.257-0.025,0.375-0.025c0.959,0,1.77,0.381,2.435,1.14
		c0.666,0.759,1,1.69,1,2.794c0,0.454-0.09,0.92-0.268,1.397c-0.181,0.474-0.425,0.896-0.734,1.26
		c-0.425,0.496-0.885,0.86-1.386,1.09c-0.498,0.23-1.084,0.345-1.753,0.345c-0.562,0-1.091-0.102-1.589-0.304
		c-0.498-0.206-0.939-0.499-1.323-0.885c-0.385-0.384-0.682-0.816-0.887-1.296c-0.206-0.48-0.31-0.972-0.31-1.479
		c0-0.579,0.112-1.161,0.337-1.747c0.225-0.587,0.66-1.362,1.31-2.332L964.674,509.201L964.674,509.201z M976.083,513.176
		c0-0.584-0.186-1.079-0.562-1.49c-0.375-0.408-0.825-0.613-1.348-0.613c-0.553,0-1.008,0.192-1.369,0.575
		c-0.362,0.381-0.542,0.871-0.542,1.463c0,0.588,0.175,1.073,0.529,1.454c0.353,0.381,0.802,0.57,1.35,0.57
		c0.534,0,0.992-0.192,1.372-0.578C975.895,514.17,976.083,513.71,976.083,513.176L976.083,513.176z M974.092,520.887h-2.383
		l2.648-3.98c-0.208,0.044-0.381,0.074-0.515,0.093c-0.132,0.019-0.258,0.028-0.376,0.028c-0.959,0-1.77-0.384-2.435-1.148
		c-0.666-0.765-1-1.699-1-2.803c0-0.449,0.091-0.909,0.269-1.38c0.181-0.471,0.424-0.893,0.734-1.269
		c0.425-0.496,0.888-0.863,1.394-1.096c0.504-0.233,1.088-0.348,1.745-0.348c0.562,0,1.09,0.101,1.589,0.304
		c0.499,0.205,0.94,0.499,1.323,0.885c0.381,0.378,0.677,0.814,0.885,1.299c0.208,0.487,0.313,0.986,0.313,1.493
		c0,0.578-0.113,1.161-0.337,1.747c-0.225,0.586-0.66,1.362-1.309,2.331L974.092,520.887L974.092,520.887z"/>
	<path style="fill:none;stroke:#FFFFFF;stroke-width:0.1526;stroke-miterlimit:22.9256;" d="M891.395,513.934
		c38.119-72.098,115.11-55.592,136.778,1.505"/>
	<path style="fill-rule:evenodd;clip-rule:evenodd;fill:#FFFFFF;" d="M960.463,437.006c56.793,0,103.114,46.325,103.114,103.122
		c0,56.798-46.321,103.123-103.114,103.123c-56.793,0-103.114-46.325-103.114-103.123
		C857.349,483.33,903.67,437.006,960.463,437.006L960.463,437.006z"/>
	<path style="fill-rule:evenodd;clip-rule:evenodd;fill:#1C5C38;" d="M960.463,440.389L960.463,440.389l0.001,0.011
		c27.473,0.001,52.407,11.198,70.465,29.257c18.058,18.06,29.254,42.994,29.254,70.47h0.011v0.001v0.001h-0.011
		c0,27.476-11.196,52.411-29.255,70.471c-18.058,18.059-42.99,29.256-70.464,29.257v0.011h-0.001h-0.001v-0.011
		c-27.474,0-52.407-11.197-70.465-29.257c-18.058-18.06-29.254-42.994-29.254-70.47h-0.011v-0.001v-0.001h0.011
		c0-27.476,11.196-52.41,29.254-70.47c18.058-18.06,42.99-29.256,70.464-29.256v-0.011H960.463L960.463,440.389z M960.318,618.065
		c30.162,11.893,59.249-16.549,76.372-44.49l-36.825,0.071l-2.078,2.579h13.755c-3.58,0.873-6.875,1.923-9.95,3.286h-8.634
		c15.142-16.576,23.307-39.163,41.223-55.799L992.845,491.4c-2.292,4.8-2.937,13.254-6.663,16.621l-6.734-11.105l-0.287,3.653
		l-10.102-13.039l-0.287,3.51l-7.989-12.231l0.001-0.509l-8.382,12.752l-0.287-3.511l-10.102,13.039l-0.287-3.654l-6.734,11.105
		c-3.726-3.368-4.37-11.821-6.663-16.621l-41.339,32.311c17.914,16.633,26.08,39.218,41.216,55.793h-10.745
		c-2.51-1.173-5.127-2.27-7.832-3.279h13.755l-2.078-2.579h-36.968c12.466,29.374,44.992,54.879,86.832,50.007
		c-38.114-3.94-68.419-22.209-77.876-44.706c34.009,1.141,49.783,31.228,67.023,39.073L960.318,618.065L960.318,618.065z
		 M996.285,582.329c-2.44,1.538-4.744,3.367-6.951,5.574l0.645-5.301c0.092-0.09,0.183-0.182,0.275-0.273H996.285L996.285,582.329z
		 M930.904,582.323c0.098,0.097,0.194,0.194,0.293,0.291l0.645,5.301c-2.689-1.969-5.649-3.844-8.836-5.592H930.904L930.904,582.323
		z M961.509,560.713v13.051h-2.099v-13.051H961.509L961.509,560.713z M1042.361,552.353l-28.801,0.143
		c3.869-5.517,7.308-10.746,11.32-16.048l8.741,6.663l-4.156-0.287L1042.361,552.353L1042.361,552.353z M878.852,552.353l28.8,0.143
		c-3.869-5.517-7.308-10.746-11.32-16.048l-8.74,6.663l4.156-0.287L878.852,552.353L878.852,552.353z M1042.265,554.669
		c-0.286,1.863-0.573,3.439-1.003,5.015h-31.523c0.788-1.505,1.719-3.224,2.865-5.015
		C1022.492,554.669,1032.378,554.669,1042.265,554.669L1042.265,554.669z M878.888,554.669c0.287,1.863,0.573,3.439,1.003,5.015
		h31.523c-0.788-1.505-1.719-3.224-2.866-5.015C898.662,554.669,888.775,554.669,878.888,554.669L878.888,554.669z
		 M1040.477,563.143c-0.501,1.79-0.86,3.296-1.647,4.8h-34.747c1.433-1.648,1.719-3.009,3.296-4.8H1040.477L1040.477,563.143z
		 M880.676,563.143c0.501,1.79,0.86,3.296,1.647,4.8h34.747c-1.433-1.648-1.719-3.009-3.296-4.8H880.676L880.676,563.143z
		 M960.182,549.772l-0.006,0.877c0.045-0.159,0.096-0.318,0.148-0.478c0.09,0.26,0.173,0.519,0.247,0.777l0.005-1.5
		c4.921-13.104,29.352-29.091,34.634-49.665l5.445,4.37l-10.532,22.568l14.973-19.845l4.155,3.51l-12.609,21.636l16.908-18.627
		l4.442,3.725l-13.54,20.491l17.122-17.911l5.373,4.299c-20.704,22.567-28.084,44.203-37.326,50.938v-21.78h-15.976v8.311h-5.731
		v-8.311h-7.308l-0.022,0.031l-0.013-0.019h-7.308v8.311h-5.731v-8.311h-15.977v21.779c-9.242-6.734-16.621-28.37-37.326-50.938
		l5.373-4.298l17.123,17.91l-13.541-20.489l4.442-3.726l16.908,18.628l-12.609-21.636l4.155-3.51l14.974,19.845l-10.532-22.568
		l5.445-4.37C931.252,520.382,955.307,536.647,960.182,549.772L960.182,549.772z M963.399,558.47v7.797h15.547v-7.809h5.731v32.096
		c-4.728,3.869-16.263,13.612-20.991,18.985l-0.287,0.287c18.627-4.728,28.657-32.024,63.261-31.451
		c-12.674,21.911-44.24,46.254-66.09,33.835v-0.08c-6.52-1.862-16.908-15.546-24.072-19.773V558.47h5.731v7.809h15.547v-7.809
		H963.399L963.399,558.47z M960.464,446.014v0.011h-0.001h-0.001v-0.011c-25.903,0-49.426,10.574-66.478,27.627
		c-17.053,17.054-27.625,40.58-27.625,66.485h0.011v0.001v0.001h-0.011c0,25.905,10.572,49.43,27.624,66.484
		c17.053,17.054,40.577,27.628,66.48,27.628v-0.011h0.001h0.001v0.011c25.902-0.001,49.426-10.574,66.478-27.627
		c17.053-17.055,27.625-40.58,27.625-66.485l-0.011,0v-0.001v-0.001h0.011c0-25.905-10.572-49.43-27.625-66.484
		C1009.891,456.588,986.367,446.015,960.464,446.014L960.464,446.014z"/>
	<path style="fill-rule:evenodd;clip-rule:evenodd;fill:#ED1C24;" d="M904.786,583.285c1.618,0,2.938,1.352,2.938,3.009
		c0,1.657-1.32,3.009-2.938,3.009c-1.617,0-2.937-1.352-2.937-3.009C901.849,584.636,903.169,583.285,904.786,583.285
		L904.786,583.285z M876.349,502.527c0.895,0,1.621,0.726,1.621,1.622c0,0.895-0.726,1.621-1.621,1.621
		c-0.896,0-1.622-0.726-1.622-1.621C874.727,503.253,875.454,502.527,876.349,502.527L876.349,502.527z M1018.566,467.757
		c0.896,0,1.622,0.726,1.622,1.622c0,0.895-0.727,1.621-1.622,1.621c-0.895,0-1.622-0.726-1.622-1.621
		C1016.944,468.483,1017.67,467.757,1018.566,467.757L1018.566,467.757z M1048.483,511.037c0.896,0,1.621,0.727,1.621,1.622
		c0.001,0.895-0.726,1.621-1.621,1.621c-0.895,0-1.622-0.726-1.622-1.621C1046.862,511.762,1047.588,511.037,1048.483,511.037
		L1048.483,511.037z M881.931,518.668l-2.455-0.704l1.617-5.637l5.034,1.444c0.425,1.289,0.655,2.387,0.681,3.293
		c0.029,0.907-0.122,1.929-0.448,3.068c-0.402,1.402-0.969,2.475-1.7,3.22c-0.73,0.748-1.638,1.23-2.723,1.442
		c-1.085,0.215-2.239,0.149-3.463-0.201c-1.29-0.37-2.335-0.959-3.137-1.763c-0.799-0.806-1.299-1.792-1.5-2.96
		c-0.153-0.909-0.033-2.042,0.355-3.395c0.374-1.304,0.772-2.246,1.195-2.826c0.421-0.579,0.941-1.01,1.562-1.296
		c0.617-0.285,1.339-0.426,2.165-0.421l-0.382,3.699c-0.487,0.018-0.899,0.168-1.235,0.447c-0.335,0.276-0.581,0.684-0.734,1.221
		c-0.23,0.8-0.135,1.518,0.284,2.153c0.422,0.635,1.231,1.126,2.435,1.472c1.278,0.366,2.261,0.386,2.946,0.062
		c0.685-0.321,1.152-0.914,1.399-1.774c0.117-0.407,0.168-0.815,0.155-1.217c-0.012-0.405-0.09-0.889-0.237-1.446l-1.114-0.319
		L881.931,518.668L881.931,518.668z M877.791,506.843l1.608-3.448l11.135,5.192l-1.608,3.448L877.791,506.843L877.791,506.843z
		 M891.45,505.877l-10.185-6.87l3.538-5.246c0.656-0.972,1.241-1.661,1.755-2.059c0.513-0.403,1.101-0.61,1.767-0.619
		c0.663-0.011,1.319,0.203,1.967,0.64c0.566,0.382,0.971,0.831,1.22,1.347c0.247,0.518,0.355,1.074,0.328,1.667
		c-0.021,0.379-0.134,0.838-0.345,1.376c0.378-0.29,0.688-0.477,0.931-0.566c0.16-0.058,0.451-0.106,0.873-0.143
		c0.423-0.035,0.731-0.041,0.93-0.014l3.98,0.469l-2.399,3.557l-4.248-0.419c-0.545-0.057-0.935-0.044-1.171,0.043
		c-0.308,0.119-0.561,0.325-0.755,0.612l-0.187,0.277l4.133,2.788L891.45,505.877L891.45,505.877z M887.524,498.629l0.896-1.328
		c0.096-0.143,0.238-0.45,0.424-0.925c0.098-0.238,0.106-0.48,0.025-0.728c-0.083-0.247-0.235-0.445-0.458-0.595
		c-0.33-0.223-0.651-0.288-0.968-0.197c-0.319,0.088-0.67,0.421-1.058,0.995l-0.932,1.382L887.524,498.629L887.524,498.629z
		 M889.597,486.483l6.806-7.559l1.949,1.755l-4.261,4.732l1.452,1.308l3.953-4.389l1.862,1.676l-3.952,4.39l1.799,1.619l4.385-4.87
		l2.069,1.862l-6.931,7.697L889.597,486.483L889.597,486.483z M903.949,482.907l2.578-2.541c0.443,0.392,0.857,0.624,1.241,0.699
		c0.62,0.12,1.204-0.062,1.753-0.539c0.408-0.355,0.641-0.723,0.696-1.109c0.053-0.384-0.03-0.702-0.249-0.954
		c-0.209-0.24-0.5-0.366-0.877-0.372c-0.377-0.006-1.02,0.239-1.935,0.739c-1.502,0.809-2.723,1.215-3.665,1.211
		c-0.947,0.001-1.735-0.36-2.365-1.086c-0.415-0.478-0.669-1.049-0.761-1.712c-0.091-0.663,0.034-1.356,0.377-2.082
		c0.345-0.725,0.999-1.506,1.965-2.345c1.185-1.03,2.281-1.596,3.286-1.697c1.004-0.1,1.983,0.281,2.937,1.138l-2.563,2.505
		c-0.434-0.355-0.85-0.528-1.246-0.516c-0.392,0.011-0.792,0.192-1.196,0.543c-0.334,0.291-0.525,0.578-0.569,0.867
		c-0.047,0.287,0.019,0.533,0.196,0.736c0.128,0.146,0.311,0.219,0.552,0.217c0.243,0.005,0.661-0.16,1.259-0.495
		c1.487-0.819,2.622-1.323,3.403-1.518c0.782-0.195,1.474-0.197,2.076-0.001c0.601,0.194,1.124,0.543,1.565,1.05
		c0.516,0.594,0.827,1.287,0.934,2.073c0.109,0.788-0.02,1.568-0.387,2.341c-0.364,0.77-0.996,1.548-1.894,2.329
		c-1.576,1.37-2.931,2.017-4.067,1.936C905.856,484.247,904.843,483.774,903.949,482.907L903.949,482.907z M917.606,462.896
		l3.315-1.837l3.552,6.407c0.353,0.636,0.584,1.289,0.7,1.964c0.114,0.672,0.079,1.34-0.11,1.996
		c-0.188,0.657-0.468,1.198-0.837,1.629c-0.514,0.595-1.22,1.144-2.126,1.646c-0.523,0.29-1.113,0.571-1.773,0.838
		c-0.658,0.27-1.254,0.411-1.79,0.423c-0.536,0.012-1.088-0.087-1.656-0.296c-0.567-0.209-1.031-0.491-1.394-0.846
		c-0.584-0.569-1.022-1.118-1.315-1.646l-3.552-6.407l3.315-1.837l3.636,6.56c0.326,0.588,0.742,0.956,1.247,1.104
		c0.508,0.15,1.05,0.065,1.627-0.255c0.571-0.316,0.931-0.729,1.076-1.234c0.144-0.502,0.05-1.054-0.28-1.65L917.606,462.896
		L917.606,462.896z M925.514,458.451l3.392-1.037l6.411,5.148l-1.987-6.5l3.422-1.045l3.592,11.748l-3.422,1.046l-6.373-5.105
		l1.972,6.451l-3.414,1.043L925.514,458.451L925.514,458.451z M947.447,452.395l7.091-0.496c1.181-0.082,2.109,0.148,2.781,0.689
		c0.674,0.541,1.041,1.244,1.102,2.105c0.051,0.725-0.131,1.363-0.545,1.913c-0.278,0.366-0.699,0.671-1.264,0.911
		c0.894,0.149,1.567,0.47,2.019,0.954c0.45,0.487,0.703,1.121,0.758,1.9c0.044,0.636-0.064,1.217-0.323,1.746
		c-0.261,0.529-0.635,0.957-1.128,1.289c-0.304,0.205-0.774,0.372-1.41,0.5c-0.846,0.171-1.407,0.267-1.687,0.287l-6.537,0.457
		L947.447,452.395L947.447,452.395z M951.604,456.936l1.646-0.115c0.591-0.042,0.995-0.173,1.214-0.392
		c0.217-0.222,0.311-0.524,0.284-0.906c-0.025-0.357-0.159-0.628-0.404-0.812c-0.248-0.186-0.658-0.258-1.231-0.218l-1.672,0.117
		L951.604,456.936L951.604,456.936z M951.94,461.751l1.932-0.135c0.654-0.046,1.105-0.192,1.354-0.442
		c0.252-0.25,0.365-0.57,0.337-0.962c-0.025-0.362-0.177-0.644-0.457-0.845c-0.281-0.202-0.751-0.28-1.416-0.234l-1.924,0.135
		L951.94,461.751L951.94,461.751z M962.497,451.541l10.147,0.71l-0.183,2.617l-6.352-0.444l-0.136,1.949l5.893,0.412l-0.175,2.5
		l-5.892-0.412l-0.169,2.414l6.537,0.457l-0.194,2.777l-10.332-0.723L962.497,451.541L962.497,451.541z M976.57,452.983l3.716,0.79
		l-1.925,9.057l5.795,1.232l-0.629,2.96l-9.51-2.021L976.57,452.983L976.57,452.983z M989.461,456.292l9.496,3.645l-0.94,2.449
		l-5.945-2.282l-0.7,1.825l5.515,2.116l-0.898,2.339l-5.514-2.117l-0.867,2.259l6.118,2.348l-0.998,2.599l-9.67-3.712
		L989.461,456.292L989.461,456.292z M1002.35,461.885l4.98,2.648c0.98,0.521,1.702,1.077,2.167,1.664
		c0.461,0.588,0.759,1.236,0.888,1.943c0.128,0.71,0.106,1.44-0.066,2.197c-0.175,0.755-0.459,1.502-0.852,2.242
		c-0.616,1.159-1.226,1.989-1.831,2.487c-0.602,0.499-1.253,0.84-1.951,1.02c-0.697,0.183-1.353,0.204-1.967,0.062
		c-0.84-0.194-1.559-0.45-2.155-0.766l-4.98-2.649L1002.35,461.885L1002.35,461.885z M1004.395,466.125l-3.15,5.925l0.821,0.437
		c0.702,0.373,1.24,0.562,1.619,0.562c0.378,0.003,0.755-0.146,1.13-0.442c0.372-0.298,0.79-0.882,1.252-1.752
		c0.611-1.149,0.841-2.034,0.693-2.657c-0.151-0.625-0.659-1.167-1.528-1.629L1004.395,466.125L1004.395,466.125z M1015.563,470.17
		l2.998,2.342l-7.564,9.681l-2.998-2.343L1015.563,470.17L1015.563,470.17z M1020.896,474.257l2.982,2.981l-1.179,4.687l4.687-1.179
		l2.963,2.963l-8.427,1.671l-3.639,3.639l-2.69-2.69l3.639-3.639L1020.896,474.257L1020.896,474.257z M1032.101,486.333l5.979,8.23
		l-2.122,1.541l-3.743-5.151l-1.581,1.149l3.472,4.778l-2.027,1.473l-3.472-4.779l-1.958,1.423l3.852,5.302l-2.252,1.636
		l-6.088-8.38L1032.101,486.333L1032.101,486.333z M1032.198,501.458l1.895,3.084c-0.482,0.344-0.8,0.695-0.96,1.052
		c-0.257,0.577-0.211,1.188,0.13,1.829c0.254,0.477,0.561,0.787,0.924,0.927c0.362,0.138,0.69,0.128,0.986-0.029
		c0.28-0.149,0.469-0.405,0.559-0.77c0.091-0.366-0.003-1.048-0.285-2.051c-0.45-1.646-0.571-2.926-0.356-3.844
		c0.213-0.923,0.742-1.609,1.59-2.061c0.559-0.297,1.172-0.416,1.839-0.355c0.667,0.06,1.314,0.338,1.944,0.835
		c0.628,0.499,1.242,1.312,1.843,2.441c0.737,1.386,1.042,2.582,0.914,3.584c-0.128,1.001-0.719,1.869-1.769,2.606l-1.865-3.062
		c0.443-0.343,0.705-0.708,0.784-1.097c0.078-0.385-0.009-0.814-0.26-1.287c-0.208-0.391-0.445-0.641-0.717-0.75
		c-0.269-0.11-0.523-0.101-0.761,0.026c-0.172,0.091-0.283,0.254-0.336,0.49c-0.059,0.236,0.008,0.679,0.2,1.339
		c0.463,1.632,0.7,2.851,0.713,3.657c0.014,0.806-0.139,1.48-0.466,2.023c-0.324,0.541-0.782,0.973-1.375,1.288
		c-0.695,0.369-1.44,0.516-2.23,0.444c-0.792-0.071-1.523-0.373-2.194-0.903c-0.67-0.529-1.284-1.319-1.843-2.37
		c-0.98-1.844-1.306-3.309-0.971-4.398C1030.464,503.015,1031.151,502.135,1032.198,501.458L1032.198,501.458z M1045.978,511.539
		l1.176,3.619l-11.685,3.796l-1.176-3.618L1045.978,511.539L1045.978,511.539z M1013.859,582.698c1.618,0,2.937,1.351,2.937,3.009
		c0,1.657-1.319,3.009-2.937,3.009c-1.618,0-2.937-1.352-2.937-3.009C1010.922,584.049,1012.242,582.698,1013.859,582.698
		L1013.859,582.698z M960.43,601.639c-0.108-0.013-0.214-0.03-0.321-0.045c-0.073,0.01-0.145,0.022-0.219,0.031l0.001-0.061
		c-15.525-2.31-22.336-22.16-7.413-27.23c3.069-0.829,5.656-0.515,8.001,0.878c2.262-1.241,4.756-1.493,7.69-0.7
		c14.923,5.069,7.795,24.731-7.737,27.038L960.43,601.639L960.43,601.639z"/>
	<path style="fill-rule:evenodd;clip-rule:evenodd;fill:#FFFFFF;" d="M946.972,520.887h-2.199v-9.961h-2.038v-1.726h4.238V520.887
		L946.972,520.887z M953.958,512.14c0,0.337,0.102,0.611,0.301,0.822c0.2,0.211,0.463,0.318,0.784,0.318
		c0.343,0,0.613-0.104,0.808-0.312c0.194-0.211,0.293-0.495,0.293-0.861c0-0.342-0.101-0.621-0.302-0.838
		c-0.2-0.216-0.463-0.326-0.783-0.326c-0.321,0-0.586,0.112-0.792,0.334C954.062,511.499,953.958,511.787,953.958,512.14
		L953.958,512.14z M953.429,517.422c0,0.477,0.153,0.874,0.458,1.195c0.304,0.321,0.679,0.482,1.123,0.482
		c0.477-0.001,0.872-0.162,1.181-0.482c0.31-0.321,0.466-0.723,0.466-1.211c0-0.518-0.151-0.931-0.449-1.235
		c-0.302-0.304-0.704-0.457-1.214-0.457c-0.474,0-0.855,0.156-1.14,0.465C953.571,516.487,953.429,516.901,953.429,517.422
		L953.429,517.422z M953.004,514.364c-0.419-0.258-0.742-0.586-0.973-0.988c-0.23-0.4-0.345-0.841-0.345-1.318
		c0-0.844,0.323-1.573,0.972-2.178c0.647-0.608,1.43-0.912,2.351-0.912c0.97,0,1.781,0.298,2.43,0.896
		c0.649,0.597,0.975,1.334,0.975,2.21c0,0.493-0.115,0.931-0.345,1.317c-0.23,0.387-0.57,0.71-1.019,0.973
		c0.641,0.325,1.118,0.734,1.433,1.222c0.312,0.49,0.469,1.068,0.469,1.737c0,1.115-0.367,2.025-1.104,2.734
		c-0.734,0.709-1.688,1.063-2.855,1.063c-1.096-0.001-2.011-0.362-2.745-1.088c-0.731-0.723-1.098-1.627-1.098-2.709
		c0-0.636,0.15-1.191,0.454-1.67C951.906,515.173,952.371,514.743,953.004,514.364L953.004,514.364z M962.683,516.92
		c0,0.584,0.186,1.08,0.562,1.485c0.375,0.408,0.824,0.611,1.348,0.611c0.558,0,1.013-0.189,1.369-0.568
		c0.356-0.375,0.534-0.863,0.534-1.457c0-0.592-0.175-1.08-0.526-1.455c-0.35-0.378-0.8-0.567-1.345-0.567
		c-0.534,0-0.992,0.192-1.372,0.579C962.872,515.934,962.683,516.392,962.683,516.92L962.683,516.92z M964.674,509.201h2.383
		l-2.649,3.997c0.208-0.049,0.381-0.08,0.515-0.096c0.131-0.017,0.257-0.025,0.375-0.025c0.959,0,1.77,0.381,2.435,1.14
		c0.666,0.759,1,1.69,1,2.794c0,0.454-0.09,0.92-0.268,1.397c-0.181,0.474-0.425,0.896-0.734,1.26
		c-0.425,0.496-0.885,0.86-1.386,1.09c-0.498,0.23-1.084,0.345-1.753,0.345c-0.562,0-1.091-0.102-1.589-0.304
		c-0.498-0.206-0.939-0.499-1.323-0.885c-0.385-0.384-0.682-0.816-0.887-1.296c-0.206-0.48-0.31-0.972-0.31-1.479
		c0-0.579,0.112-1.161,0.337-1.747c0.225-0.587,0.66-1.362,1.31-2.332L964.674,509.201L964.674,509.201z M976.083,513.176
		c0-0.584-0.186-1.079-0.562-1.49c-0.375-0.408-0.825-0.613-1.348-0.613c-0.553,0-1.008,0.192-1.369,0.575
		c-0.362,0.381-0.542,0.871-0.542,1.463c0,0.588,0.175,1.073,0.529,1.454c0.353,0.381,0.802,0.57,1.35,0.57
		c0.534,0,0.992-0.192,1.372-0.578C975.895,514.17,976.083,513.71,976.083,513.176L976.083,513.176z M974.092,520.887h-2.383
		l2.648-3.98c-0.208,0.044-0.381,0.074-0.515,0.093c-0.132,0.019-0.258,0.028-0.376,0.028c-0.959,0-1.77-0.384-2.435-1.148
		c-0.666-0.765-1-1.699-1-2.803c0-0.449,0.091-0.909,0.269-1.38c0.181-0.471,0.424-0.893,0.734-1.269
		c0.425-0.496,0.888-0.863,1.394-1.096c0.504-0.233,1.088-0.348,1.745-0.348c0.562,0,1.09,0.101,1.589,0.304
		c0.499,0.205,0.94,0.499,1.323,0.885c0.381,0.378,0.677,0.814,0.885,1.299c0.208,0.487,0.313,0.986,0.313,1.493
		c0,0.578-0.113,1.161-0.337,1.747c-0.225,0.586-0.66,1.362-1.309,2.331L974.092,520.887L974.092,520.887z"/>
	<path style="fill:#939598;" d="M1011.636,672.79l-1.55-5.066h0.888l0.806,2.925l0.3,1.088c0.013-0.055,0.101-0.404,0.262-1.045
		l0.806-2.967h0.882l0.759,2.938l0.254,0.969l0.29-0.979l0.868-2.928h0.835l-1.584,5.066h-0.891l-0.806-3.034l-0.197-0.865
		l-1.024,3.898H1011.636L1011.636,672.79z"/>
	<path style="fill:#939598;" d="M1018.692,672.79l-1.55-5.066h0.888l0.806,2.925l0.3,1.088c0.013-0.055,0.101-0.404,0.262-1.045
		l0.806-2.967h0.882l0.759,2.938l0.254,0.969l0.29-0.979l0.868-2.928h0.835l-1.584,5.066h-0.891l-0.806-3.034l-0.197-0.865
		l-1.024,3.898H1018.692L1018.692,672.79z"/>
	<path style="fill:#939598;" d="M1025.748,672.79l-1.55-5.066h0.888l0.806,2.925l0.3,1.088c0.013-0.055,0.101-0.404,0.262-1.045
		l0.806-2.967h0.882l0.759,2.938l0.254,0.969l0.29-0.979l0.868-2.928h0.835l-1.584,5.066h-0.891l-0.806-3.034l-0.197-0.865
		l-1.024,3.898H1025.748L1025.748,672.79z"/>
	<polygon style="fill:#939598;" points="1031.573,672.79 1031.573,671.811 1032.552,671.811 1032.552,672.79 1031.573,672.79 	"/>
	<path style="fill:#939598;" d="M1033.887,673.21l0.835,0.124c0.034,0.257,0.132,0.445,0.29,0.563
		c0.214,0.158,0.505,0.238,0.873,0.238c0.399,0,0.705-0.08,0.922-0.238c0.217-0.16,0.362-0.383,0.438-0.668
		c0.045-0.176,0.065-0.542,0.062-1.102c-0.375,0.441-0.842,0.663-1.402,0.663c-0.697,0-1.236-0.251-1.617-0.754
		c-0.381-0.501-0.573-1.106-0.573-1.808c0-0.484,0.088-0.93,0.262-1.339c0.176-0.409,0.43-0.725,0.762-0.948
		c0.332-0.222,0.723-0.334,1.171-0.334c0.598,0,1.091,0.243,1.479,0.726v-0.611h0.793v4.379c0,0.788-0.081,1.348-0.241,1.677
		c-0.161,0.329-0.415,0.589-0.764,0.78c-0.348,0.19-0.777,0.287-1.286,0.287c-0.604,0-1.093-0.137-1.464-0.409
		C1034.053,674.166,1033.874,673.757,1033.887,673.21L1033.887,673.21z M1034.597,670.166c0,0.664,0.132,1.15,0.397,1.454
		c0.264,0.306,0.594,0.458,0.992,0.458c0.394,0,0.724-0.152,0.992-0.454c0.267-0.305,0.401-0.78,0.401-1.43
		c0-0.62-0.137-1.088-0.412-1.402c-0.275-0.314-0.608-0.472-0.995-0.472c-0.381,0-0.705,0.155-0.974,0.466
		C1034.73,669.095,1034.597,669.556,1034.597,670.166L1034.597,670.166z"/>
	<path style="fill:#939598;" d="M1039.482,666.784v-0.988h0.86v0.988H1039.482L1039.482,666.784z M1039.482,672.79v-5.066h0.86
		v5.066H1039.482L1039.482,672.79z"/>
	<path style="fill:#939598;" d="M1041.64,672.79v-5.066h0.772v0.767c0.197-0.358,0.379-0.596,0.547-0.71
		c0.166-0.114,0.35-0.173,0.551-0.173c0.29,0,0.583,0.093,0.882,0.277l-0.296,0.798c-0.209-0.126-0.419-0.187-0.629-0.187
		c-0.189,0-0.357,0.057-0.506,0.169c-0.15,0.114-0.256,0.27-0.319,0.471c-0.096,0.304-0.143,0.638-0.143,1.001v2.653H1041.64
		L1041.64,672.79z"/>
	<path style="fill:#939598;" d="M1048.37,671.158l0.888,0.109c-0.14,0.519-0.399,0.922-0.777,1.208
		c-0.379,0.285-0.863,0.428-1.451,0.428c-0.741,0-1.329-0.228-1.762-0.684c-0.435-0.456-0.651-1.096-0.651-1.92
		c0-0.853,0.22-1.515,0.658-1.985c0.44-0.471,1.008-0.707,1.708-0.707c0.677,0,1.231,0.231,1.659,0.692
		c0.43,0.461,0.645,1.111,0.645,1.946c0,0.052-0.002,0.128-0.005,0.23h-3.778c0.031,0.557,0.189,0.983,0.472,1.278
		c0.283,0.297,0.635,0.445,1.058,0.445c0.314,0,0.583-0.083,0.806-0.249C1048.064,671.785,1048.24,671.521,1048.37,671.158
		L1048.37,671.158z M1045.552,669.769h2.829c-0.037-0.425-0.146-0.746-0.324-0.958c-0.274-0.331-0.629-0.497-1.063-0.497
		c-0.394,0-0.727,0.132-0.995,0.396C1045.729,668.974,1045.581,669.328,1045.552,669.769L1045.552,669.769z"/>
	<path style="fill:#939598;" d="M1049.994,671.277l0.849-0.133c0.047,0.34,0.181,0.601,0.399,0.783
		c0.217,0.181,0.521,0.272,0.914,0.272c0.394,0,0.687-0.082,0.878-0.241c0.19-0.161,0.286-0.35,0.286-0.565
		c0-0.195-0.085-0.347-0.254-0.459c-0.117-0.076-0.411-0.173-0.878-0.29c-0.628-0.16-1.067-0.296-1.309-0.414
		c-0.243-0.116-0.428-0.277-0.554-0.482c-0.125-0.205-0.189-0.432-0.189-0.679c0-0.226,0.052-0.435,0.156-0.627
		c0.103-0.194,0.244-0.353,0.422-0.48c0.134-0.098,0.316-0.183,0.546-0.251c0.231-0.068,0.479-0.103,0.742-0.103
		c0.397,0,0.746,0.059,1.047,0.173c0.301,0.114,0.523,0.269,0.666,0.464c0.143,0.197,0.241,0.458,0.295,0.785l-0.839,0.116
		c-0.039-0.26-0.15-0.464-0.332-0.611c-0.182-0.147-0.441-0.22-0.775-0.22c-0.394,0-0.676,0.065-0.843,0.196
		c-0.17,0.13-0.254,0.283-0.254,0.458c0,0.112,0.036,0.212,0.106,0.301c0.07,0.093,0.179,0.168,0.329,0.23
		c0.086,0.031,0.339,0.104,0.759,0.218c0.607,0.163,1.031,0.295,1.27,0.399c0.241,0.103,0.43,0.254,0.567,0.451
		c0.137,0.197,0.205,0.441,0.205,0.734c0,0.287-0.084,0.555-0.251,0.809c-0.168,0.253-0.409,0.448-0.723,0.586
		c-0.314,0.138-0.671,0.207-1.068,0.207c-0.659,0-1.161-0.137-1.506-0.41C1050.309,672.22,1050.089,671.815,1049.994,671.277
		L1049.994,671.277z"/>
	<path style="fill:#939598;" d="M1058.544,672.79v-0.744c-0.396,0.573-0.932,0.858-1.609,0.858c-0.298,0-0.578-0.057-0.837-0.171
		s-0.451-0.259-0.577-0.431c-0.127-0.174-0.215-0.386-0.265-0.637c-0.034-0.169-0.052-0.436-0.052-0.803v-3.138h0.858v2.809
		c0,0.449,0.018,0.751,0.052,0.907c0.056,0.226,0.17,0.402,0.344,0.532c0.176,0.129,0.392,0.192,0.65,0.192
		c0.257,0,0.498-0.065,0.725-0.197c0.226-0.132,0.386-0.313,0.479-0.539c0.094-0.228,0.142-0.558,0.142-0.99v-2.714h0.858v5.066
		H1058.544L1058.544,672.79z"/>
	<path style="fill:#939598;" d="M1060.658,672.79v-5.066h0.772v0.72c0.373-0.557,0.91-0.835,1.612-0.835
		c0.306,0,0.586,0.055,0.842,0.164c0.257,0.111,0.448,0.254,0.575,0.433c0.129,0.177,0.217,0.389,0.269,0.634
		c0.031,0.16,0.047,0.438,0.047,0.835v3.115h-0.86v-3.083c0-0.348-0.033-0.611-0.099-0.785c-0.067-0.173-0.186-0.311-0.355-0.414
		c-0.171-0.104-0.37-0.156-0.599-0.156c-0.367,0-0.681,0.117-0.948,0.349c-0.265,0.233-0.397,0.672-0.397,1.322v2.767H1060.658
		L1060.658,672.79z"/>
	<polygon style="fill:#939598;" points="1066.334,672.79 1066.334,671.811 1067.313,671.811 1067.313,672.79 1066.334,672.79 	"/>
	<path style="fill:#939598;" d="M1069.598,672.79h-0.796v-6.994h0.858v2.495c0.363-0.454,0.826-0.682,1.388-0.682
		c0.313,0,0.608,0.064,0.886,0.189c0.278,0.126,0.507,0.303,0.687,0.529c0.179,0.228,0.321,0.502,0.422,0.824
		c0.103,0.321,0.153,0.664,0.153,1.029c0,0.87-0.215,1.541-0.645,2.014c-0.428,0.474-0.944,0.71-1.545,0.71
		c-0.598,0-1.066-0.249-1.407-0.749V672.79L1069.598,672.79z M1069.588,670.219c0,0.607,0.083,1.045,0.248,1.316
		c0.27,0.443,0.637,0.664,1.098,0.664c0.376,0,0.7-0.163,0.974-0.49c0.274-0.326,0.411-0.811,0.411-1.457
		c0-0.661-0.132-1.15-0.394-1.464c-0.262-0.314-0.58-0.472-0.951-0.472c-0.376,0-0.7,0.163-0.974,0.489
		C1069.725,669.129,1069.588,669.602,1069.588,670.219L1069.588,670.219z"/>
	<path style="fill:#939598;" d="M1077.708,671.158l0.888,0.109c-0.14,0.519-0.399,0.922-0.777,1.208
		c-0.379,0.285-0.863,0.428-1.451,0.428c-0.741,0-1.329-0.228-1.762-0.684c-0.435-0.456-0.651-1.096-0.651-1.92
		c0-0.853,0.22-1.515,0.658-1.985c0.44-0.471,1.008-0.707,1.708-0.707c0.677,0,1.231,0.231,1.659,0.692
		c0.43,0.461,0.645,1.111,0.645,1.946c0,0.052-0.002,0.128-0.005,0.23h-3.778c0.031,0.557,0.189,0.983,0.472,1.278
		c0.283,0.297,0.635,0.445,1.058,0.445c0.314,0,0.583-0.083,0.806-0.249C1077.402,671.785,1077.578,671.521,1077.708,671.158
		L1077.708,671.158z M1074.889,669.769h2.829c-0.037-0.425-0.146-0.746-0.324-0.958c-0.273-0.331-0.629-0.497-1.063-0.497
		c-0.394,0-0.727,0.132-0.995,0.396C1075.067,668.974,1074.918,669.328,1074.889,669.769L1074.889,669.769z"/>
	<polygon style="fill:#939598;" points="1079.656,672.79 1079.656,665.796 1080.514,665.796 1080.514,672.79 1079.656,672.79 	"/>
	<polygon style="fill:#939598;" points="1082.089,672.79 1082.089,671.811 1083.067,671.811 1083.067,672.79 1082.089,672.79 	"/>
	<path style="fill:#939598;" d="M1086.435,672.021l0.124,0.759c-0.241,0.05-0.458,0.077-0.648,0.077
		c-0.313,0-0.554-0.049-0.726-0.148c-0.171-0.098-0.291-0.228-0.361-0.389c-0.07-0.16-0.106-0.498-0.106-1.013v-2.915h-0.63v-0.668
		h0.63v-1.255l0.855-0.515v1.77h0.863v0.668h-0.863v2.962c0,0.246,0.015,0.402,0.044,0.472c0.031,0.07,0.08,0.125,0.148,0.168
		c0.069,0.041,0.166,0.062,0.293,0.062C1086.153,672.055,1086.279,672.044,1086.435,672.021L1086.435,672.021z"/>
	<path style="fill:#939598;" d="M1087.266,672.79v-5.066h0.772v0.767c0.197-0.358,0.379-0.596,0.547-0.71
		c0.166-0.114,0.35-0.173,0.55-0.173c0.29,0,0.583,0.093,0.882,0.277l-0.296,0.798c-0.209-0.126-0.419-0.187-0.629-0.187
		c-0.189,0-0.357,0.057-0.506,0.169c-0.15,0.114-0.256,0.27-0.319,0.471c-0.096,0.304-0.143,0.638-0.143,1.001v2.653H1087.266
		L1087.266,672.79z"/>
</g>
</svg>
