<?xml version="1.0" encoding="UTF-8"?>
<svg id="Layer_2" data-name="Layer 2" xmlns="http://www.w3.org/2000/svg" viewBox="0 0 206.23 206.24">
  <defs>
    <style>
      .cls-1 {
        fill: #fff;
      }

      .cls-1, .cls-2, .cls-3, .cls-4 {
        fill-rule: evenodd;
      }

      .cls-2 {
        fill: #205b3e;
      }

      .cls-3 {
        fill: #ed1c24;
      }

      .cls-4 {
        fill: #1c5c38;
      }

      .cls-5 {
        fill: none;
        stroke: #fff;
        stroke-miterlimit: 22.93;
        stroke-width: .15px;
      }
    </style>
  </defs>
  <g id="Layer_1-2" data-name="Layer 1">
    <g>
      <path class="cls-5" d="M34.05,76.93c38.12-72.1,115.11-55.59,136.78,1.51"/>
      <path class="cls-1" d="M103.11,6.2c53.38,0,96.91,43.54,96.91,96.92s-43.53,96.92-96.91,96.92S6.2,156.5,6.2,103.12,49.74,6.2,103.11,6.2h0Z"/>
      <path class="cls-2" d="M103.11,3.38h0c27.47.01,52.41,11.21,70.46,29.27,18.06,18.06,29.25,42.99,29.25,70.47h.01s-.01,0-.01,0c0,27.48-11.2,52.41-29.26,70.47-18.06,18.06-42.99,29.26-70.46,29.26h0s0,.01,0,.01h0c-27.47-.01-52.41-11.21-70.46-29.27S3.39,130.6,3.39,103.12h-.01s.01,0,.01,0c0-27.48,11.2-52.41,29.25-70.47C50.71,14.59,75.64,3.4,103.11,3.4h0s0-.01,0-.01h0ZM103.11,9.01h0s0,.01,0,.01h0c-25.9-.01-49.43,10.56-66.48,27.62-17.05,17.05-27.62,40.58-27.62,66.49h.01s-.01,0-.01,0c0,25.91,10.57,49.43,27.62,66.48,17.05,17.05,40.58,27.63,66.48,27.63h0s0-.01,0-.01h0c25.9.01,49.43-10.56,66.48-27.62,17.05-17.05,27.62-40.58,27.62-66.48h-.01s.01,0,.01,0c0-25.91-10.57-49.43-27.62-66.48-17.05-17.05-40.58-27.63-66.48-27.63h0Z"/>
      <path class="cls-2" d="M103.44,41.3l-8.38,12.75-.29-3.51-10.1,13.04-.29-3.65-6.73,11.11c-3.73-3.37-4.37-11.82-6.66-16.62l-41.34,32.31c19.06,17.7,27.08,42.13,44.2,58.89l.65,5.3c-6.16-4.51-13.76-8.53-22.21-11.68h13.76l-2.08-2.58H26.99c12.47,29.37,44.99,54.88,86.83,50.01-38.11-3.94-68.42-22.21-77.88-44.71,34.17,1.15,49.93,31.52,67.27,39.19v-6.02c-6.52-1.86-16.91-15.55-24.07-19.77v-33.89h5.73v7.81h15.55v-7.81h6.52l-3.73-5.3h-7.31v8.31h-5.73v-8.31h-15.98v21.78c-9.24-6.73-16.62-28.37-37.33-50.94l5.37-4.3,17.12,17.91-13.54-20.49,4.44-3.73,16.91,18.63-12.61-21.64,4.16-3.51,14.97,19.84-10.53-22.57,5.45-4.37c5.45,21.21,30.81,37.83,34.6,51.15l.22-72.65h0Z"/>
      <path class="cls-2" d="M102.97,181.06c30.16,11.89,59.25-16.55,76.37-44.49l-36.83.07-2.08,2.58h13.76c-8.81,2.15-15.91,5.37-22.21,11.68l.65-5.3c17.12-16.77,25.15-41.2,44.2-58.89l-41.34-32.31c-2.29,4.8-2.94,13.25-6.66,16.62l-6.73-11.11-.29,3.65-10.1-13.04-.29,3.51-8.1-12.39-.5,72c3.8-13.33,29.59-29.66,35.03-50.87l5.45,4.37-10.53,22.57,14.97-19.85,4.16,3.51-12.61,21.64,16.91-18.63,4.44,3.72-13.54,20.49,17.12-17.91,5.37,4.3c-20.7,22.57-28.08,44.2-37.33,50.94v-21.78h-15.98v8.31h-5.73v-8.31h-7.31l-3.73,5.3h6.52v7.81h15.55v-7.81h5.73v32.1c-4.73,3.87-16.26,13.61-20.99,18.98l-.29.29c18.63-4.73,28.66-32.02,63.26-31.45-12.68,21.92-44.28,46.28-66.13,33.82l-.21,5.88h0Z"/>
      <path class="cls-3" d="M103.08,164.63c-15.91-1.92-23.05-22.18-7.95-27.31,3.08-.83,5.68-.51,8.03.9l-.08,26.41h0Z"/>
      <path class="cls-3" d="M102.54,164.62c15.91-1.92,23.37-21.98,8.28-27.11-3.08-.83-5.68-.51-8.03.9l-.24,26.22h0Z"/>
      <path class="cls-3" d="M47.44,146.28c1.62,0,2.94,1.35,2.94,3.01s-1.32,3.01-2.94,3.01-2.94-1.35-2.94-3.01,1.32-3.01,2.94-3.01h0Z"/>
      <path class="cls-3" d="M156.51,145.69c1.62,0,2.94,1.35,2.94,3.01s-1.32,3.01-2.94,3.01-2.94-1.35-2.94-3.01,1.32-3.01,2.94-3.01h0Z"/>
      <path class="cls-3" d="M24.58,81.66l-2.46-.7,1.62-5.64,5.03,1.44c.42,1.29.66,2.39.68,3.29.03.91-.12,1.93-.45,3.07-.4,1.4-.97,2.47-1.7,3.22-.73.75-1.64,1.23-2.72,1.44-1.09.22-2.24.15-3.46-.2-1.29-.37-2.34-.96-3.14-1.76-.8-.81-1.3-1.79-1.5-2.96-.15-.91-.03-2.04.35-3.4.37-1.3.77-2.25,1.2-2.83.42-.58.94-1.01,1.56-1.3.62-.28,1.34-.43,2.16-.42l-.38,3.7c-.49.02-.9.17-1.23.45-.34.28-.58.68-.73,1.22-.23.8-.14,1.52.28,2.15.42.64,1.23,1.13,2.43,1.47,1.28.37,2.26.39,2.95.06.68-.32,1.15-.91,1.4-1.77.12-.41.17-.82.16-1.22-.01-.41-.09-.89-.24-1.45l-1.11-.32-.7,2.44h0ZM20.44,69.84l1.61-3.45,11.14,5.19-1.61,3.45-11.14-5.19h0ZM34.1,68.87l-10.18-6.87,3.54-5.25c.66-.97,1.24-1.66,1.76-2.06.51-.4,1.1-.61,1.77-.62.66-.01,1.32.2,1.97.64.57.38.97.83,1.22,1.35.25.52.35,1.07.33,1.67-.02.38-.13.84-.34,1.38.38-.29.69-.48.93-.57.16-.06.45-.11.87-.14.42-.04.73-.04.93-.01l3.98.47-2.4,3.56-4.25-.42c-.54-.06-.93-.04-1.17.04-.31.12-.56.33-.76.61l-.19.28,4.13,2.79-2.13,3.16h0ZM30.17,61.62l.9-1.33c.1-.14.24-.45.42-.92.1-.24.11-.48.03-.73-.08-.25-.23-.45-.46-.6-.33-.22-.65-.29-.97-.2-.32.09-.67.42-1.06.99l-.93,1.38,2.07,1.4h0ZM32.25,49.48l6.81-7.56,1.95,1.76-4.26,4.73,1.45,1.31,3.95-4.39,1.86,1.68-3.95,4.39,1.8,1.62,4.39-4.87,2.07,1.86-6.93,7.7-9.13-8.22h0ZM46.6,45.9l2.58-2.54c.44.39.86.62,1.24.7.62.12,1.2-.06,1.75-.54.41-.36.64-.72.7-1.11.05-.38-.03-.7-.25-.95-.21-.24-.5-.37-.88-.37s-1.02.24-1.93.74c-1.5.81-2.72,1.21-3.66,1.21-.95,0-1.73-.36-2.36-1.09-.41-.48-.67-1.05-.76-1.71-.09-.66.03-1.36.38-2.08.34-.73,1-1.51,1.97-2.35,1.18-1.03,2.28-1.6,3.29-1.7,1-.1,1.98.28,2.94,1.14l-2.56,2.51c-.43-.36-.85-.53-1.25-.52-.39.01-.79.19-1.2.54-.33.29-.53.58-.57.87-.05.29.02.53.2.74.13.15.31.22.55.22.24,0,.66-.16,1.26-.49,1.49-.82,2.62-1.32,3.4-1.52.78-.2,1.47-.2,2.08,0,.6.19,1.12.54,1.57,1.05.52.59.83,1.29.93,2.07.11.79-.02,1.57-.39,2.34-.36.77-1,1.55-1.89,2.33-1.58,1.37-2.93,2.02-4.07,1.94-1.14-.08-2.15-.55-3.04-1.42h0ZM60.26,25.89l3.32-1.84,3.55,6.41c.35.64.58,1.29.7,1.96.11.67.08,1.34-.11,2-.19.66-.47,1.2-.84,1.63-.51.6-1.22,1.14-2.13,1.65-.52.29-1.11.57-1.77.84-.66.27-1.25.41-1.79.42-.54.01-1.09-.09-1.66-.3-.57-.21-1.03-.49-1.39-.85-.58-.57-1.02-1.12-1.32-1.65l-3.55-6.41,3.32-1.84,3.64,6.56c.33.59.74.96,1.25,1.1.51.15,1.05.07,1.63-.26.57-.32.93-.73,1.08-1.23.14-.5.05-1.05-.28-1.65l-3.64-6.56h0ZM68.16,21.44l3.39-1.04,6.41,5.15-1.99-6.5,3.42-1.05,3.59,11.75-3.42,1.05-6.37-5.11,1.97,6.45-3.41,1.04-3.59-11.75h0ZM90.1,15.39l7.09-.5c1.18-.08,2.11.15,2.78.69.67.54,1.04,1.24,1.1,2.11.05.73-.13,1.36-.54,1.91-.28.37-.7.67-1.26.91.89.15,1.57.47,2.02.95.45.49.7,1.12.76,1.9.04.64-.06,1.22-.32,1.75-.26.53-.64.96-1.13,1.29-.3.2-.77.37-1.41.5-.85.17-1.41.27-1.69.29l-6.54.46-.86-12.26h0ZM94.26,19.93l1.65-.11c.59-.04.99-.17,1.21-.39.22-.22.31-.52.28-.91-.03-.36-.16-.63-.4-.81-.25-.19-.66-.26-1.23-.22l-1.67.12.16,2.33h0ZM94.59,24.74l1.93-.14c.65-.05,1.1-.19,1.35-.44.25-.25.36-.57.34-.96-.03-.36-.18-.64-.46-.85-.28-.2-.75-.28-1.42-.23l-1.92.14.17,2.48h0ZM105.15,14.53l10.15.71-.18,2.62-6.35-.44-.14,1.95,5.89.41-.17,2.5-5.89-.41-.17,2.41,6.54.46-.19,2.78-10.33-.72.86-12.26h0ZM119.22,15.98l3.72.79-1.92,9.06,5.79,1.23-.63,2.96-9.51-2.02,2.55-12.02h0ZM132.11,19.29l9.5,3.64-.94,2.45-5.95-2.28-.7,1.83,5.52,2.12-.9,2.34-5.51-2.12-.87,2.26,6.12,2.35-1,2.6-9.67-3.71,4.4-11.47h0ZM145,24.88l4.98,2.65c.98.52,1.7,1.08,2.17,1.66.46.59.76,1.24.89,1.94.13.71.11,1.44-.07,2.2-.17.76-.46,1.5-.85,2.24-.62,1.16-1.23,1.99-1.83,2.49-.6.5-1.25.84-1.95,1.02-.7.18-1.35.2-1.97.06-.84-.19-1.56-.45-2.16-.77l-4.98-2.65,5.77-10.85h0ZM147.05,29.12l-3.15,5.92.82.44c.7.37,1.24.56,1.62.56.38,0,.76-.15,1.13-.44.37-.3.79-.88,1.25-1.75.61-1.15.84-2.03.69-2.66-.15-.62-.66-1.17-1.53-1.63l-.84-.44h0ZM158.21,33.16l3,2.34-7.56,9.68-3-2.34,7.56-9.68h0ZM163.55,37.25l2.98,2.98-1.18,4.69,4.69-1.18,2.96,2.96-8.43,1.67-3.64,3.64-2.69-2.69,3.64-3.64,1.66-8.43h0ZM174.75,49.33l5.98,8.23-2.12,1.54-3.74-5.15-1.58,1.15,3.47,4.78-2.03,1.47-3.47-4.78-1.96,1.42,3.85,5.3-2.25,1.64-6.09-8.38,9.94-7.22h0ZM174.85,64.45l1.9,3.08c-.48.34-.8.7-.96,1.05-.26.58-.21,1.19.13,1.83.25.48.56.79.92.93.36.14.69.13.99-.03.28-.15.47-.4.56-.77.09-.37,0-1.05-.29-2.05-.45-1.65-.57-2.93-.36-3.84.21-.92.74-1.61,1.59-2.06.56-.3,1.17-.42,1.84-.36.67.06,1.31.34,1.94.83.63.5,1.24,1.31,1.84,2.44.74,1.39,1.04,2.58.91,3.58-.13,1-.72,1.87-1.77,2.61l-1.86-3.06c.44-.34.7-.71.78-1.1.08-.39,0-.81-.26-1.29-.21-.39-.44-.64-.72-.75-.27-.11-.52-.1-.76.03-.17.09-.28.25-.34.49-.06.24,0,.68.2,1.34.46,1.63.7,2.85.71,3.66.01.81-.14,1.48-.47,2.02-.32.54-.78.97-1.38,1.29-.69.37-1.44.52-2.23.44-.79-.07-1.52-.37-2.19-.9-.67-.53-1.28-1.32-1.84-2.37-.98-1.84-1.31-3.31-.97-4.4.33-1.09,1.02-1.97,2.07-2.65h0ZM188.63,74.53l1.18,3.62-11.69,3.8-1.18-3.62,11.69-3.8h0Z"/>
      <path class="cls-3" d="M161.22,30.75c.9,0,1.62.73,1.62,1.62s-.73,1.62-1.62,1.62-1.62-.73-1.62-1.62.73-1.62,1.62-1.62h0Z"/>
      <path class="cls-3" d="M191.13,74.03c.9,0,1.62.73,1.62,1.62,0,.9-.73,1.62-1.62,1.62s-1.62-.73-1.62-1.62c0-.9.73-1.62,1.62-1.62h0Z"/>
      <path class="cls-1" d="M89.62,83.88h-2.2v-9.96h-2.04v-1.73h4.24v11.69h0ZM96.61,75.13c0,.34.1.61.3.82.2.21.46.32.78.32.34,0,.61-.1.81-.31.19-.21.29-.49.29-.86,0-.34-.1-.62-.3-.84-.2-.22-.46-.33-.78-.33s-.59.11-.79.33c-.21.22-.31.51-.31.86h0ZM96.08,80.42c0,.48.15.87.46,1.2.3.32.68.48,1.12.48.48,0,.87-.16,1.18-.48.31-.32.47-.72.47-1.21,0-.52-.15-.93-.45-1.23-.3-.3-.7-.46-1.21-.46-.47,0-.85.16-1.14.47-.28.31-.43.72-.43,1.24h0ZM95.66,77.36c-.42-.26-.74-.59-.97-.99-.23-.4-.34-.84-.34-1.32,0-.84.32-1.57.97-2.18.65-.61,1.43-.91,2.35-.91.97,0,1.78.3,2.43.9.65.6.97,1.33.97,2.21,0,.49-.11.93-.34,1.32-.23.39-.57.71-1.02.97.64.33,1.12.73,1.43,1.22.31.49.47,1.07.47,1.74,0,1.11-.37,2.03-1.1,2.73-.73.71-1.69,1.06-2.85,1.06-1.1,0-2.01-.36-2.74-1.09-.73-.72-1.1-1.63-1.1-2.71,0-.64.15-1.19.45-1.67.3-.48.77-.91,1.4-1.29h0ZM105.33,79.91c0,.58.19,1.08.56,1.48.38.41.82.61,1.35.61.56,0,1.01-.19,1.37-.57.36-.38.53-.86.53-1.46s-.17-1.08-.53-1.46c-.35-.38-.8-.57-1.34-.57s-.99.19-1.37.58c-.38.39-.57.84-.57,1.37h0ZM107.33,72.19h2.38l-2.65,4c.21-.05.38-.08.52-.1.13-.02.26-.03.38-.03.96,0,1.77.38,2.43,1.14.67.76,1,1.69,1,2.79,0,.45-.09.92-.27,1.4-.18.47-.42.9-.73,1.26-.42.5-.89.86-1.39,1.09-.5.23-1.08.34-1.75.34-.56,0-1.09-.1-1.59-.3-.5-.21-.94-.5-1.32-.89-.39-.38-.68-.82-.89-1.3-.21-.48-.31-.97-.31-1.48,0-.58.11-1.16.34-1.75.22-.59.66-1.36,1.31-2.33l2.54-3.86h0ZM118.73,76.17c0-.58-.19-1.08-.56-1.49-.38-.41-.83-.61-1.35-.61-.55,0-1.01.19-1.37.58-.36.38-.54.87-.54,1.46s.17,1.07.53,1.45c.35.38.8.57,1.35.57s.99-.19,1.37-.58c.38-.39.57-.85.57-1.38h0ZM116.74,83.88h-2.38l2.65-3.98c-.21.04-.38.07-.52.09-.13.02-.26.03-.38.03-.96,0-1.77-.38-2.43-1.15-.67-.77-1-1.7-1-2.8,0-.45.09-.91.27-1.38.18-.47.42-.89.73-1.27.42-.5.89-.86,1.39-1.1.5-.23,1.09-.35,1.74-.35.56,0,1.09.1,1.59.3.5.2.94.5,1.32.89.38.38.68.81.89,1.3.21.49.31.99.31,1.49,0,.58-.11,1.16-.34,1.75-.22.59-.66,1.36-1.31,2.33l-2.54,3.84h0Z"/>
      <path class="cls-5" d="M34.05,76.93c38.12-72.1,115.11-55.59,136.78,1.51"/>
      <path class="cls-1" d="M103.11,0c56.79,0,103.11,46.33,103.11,103.12s-46.32,103.12-103.11,103.12S0,159.92,0,103.12,46.32,0,103.11,0h0Z"/>
      <path class="cls-4" d="M103.11,3.38h0c27.47.01,52.41,11.21,70.46,29.27,18.06,18.06,29.25,42.99,29.25,70.47h.01s-.01,0-.01,0c0,27.48-11.2,52.41-29.26,70.47-18.06,18.06-42.99,29.26-70.46,29.26h0s0,.01,0,.01h0c-27.47-.01-52.41-11.21-70.46-29.27S3.39,130.6,3.39,103.12h-.01s.01,0,.01,0c0-27.48,11.2-52.41,29.25-70.47C50.71,14.59,75.64,3.4,103.11,3.4h0s0-.01,0-.01h0ZM102.97,181.06c30.16,11.89,59.25-16.55,76.37-44.49l-36.83.07-2.08,2.58h13.76c-3.58.87-6.88,1.92-9.95,3.29h-8.63c15.14-16.58,23.31-39.16,41.22-55.8l-41.34-32.31c-2.29,4.8-2.94,13.25-6.66,16.62l-6.73-11.11-.29,3.65-10.1-13.04-.29,3.51-7.99-12.23v-.51s-8.38,12.75-8.38,12.75l-.29-3.51-10.1,13.04-.29-3.65-6.73,11.11c-3.73-3.37-4.37-11.82-6.66-16.62l-41.34,32.31c17.91,16.63,26.08,39.22,41.22,55.79h-10.74c-2.51-1.17-5.13-2.27-7.83-3.28h13.76l-2.08-2.58H26.99c12.47,29.37,44.99,54.88,86.83,50.01-38.11-3.94-68.42-22.21-77.88-44.71,34.01,1.14,49.78,31.23,67.02,39.07v.03h0ZM138.94,145.32c-2.44,1.54-4.74,3.37-6.95,5.57l.65-5.3c.09-.09.18-.18.28-.27h6.03ZM73.55,145.32c.1.1.19.19.29.29l.65,5.3c-2.69-1.97-5.65-3.84-8.84-5.59h7.9ZM104.16,123.71v13.05h-2.1v-13.05h2.1ZM185.01,115.35l-28.8.14c3.87-5.52,7.31-10.75,11.32-16.05l8.74,6.66-4.16-.29,12.9,9.53h0ZM21.5,115.35l28.8.14c-3.87-5.52-7.31-10.75-11.32-16.05l-8.74,6.66,4.16-.29-12.9,9.53h0ZM184.92,117.66c-.29,1.86-.57,3.44-1,5.02h-31.52c.79-1.51,1.72-3.22,2.86-5.02h29.66ZM21.54,117.66c.29,1.86.57,3.44,1,5.02h31.52c-.79-1.51-1.72-3.22-2.87-5.02h-29.66ZM183.13,126.14c-.5,1.79-.86,3.3-1.65,4.8h-34.75c1.43-1.65,1.72-3.01,3.3-4.8h33.1ZM23.33,126.14c.5,1.79.86,3.3,1.65,4.8h34.75c-1.43-1.65-1.72-3.01-3.3-4.8H23.33ZM102.83,112.77v.88c.04-.16.09-.32.14-.48.09.26.17.52.25.78v-1.5c4.93-13.1,29.36-29.09,34.64-49.67l5.45,4.37-10.53,22.57,14.97-19.85,4.16,3.51-12.61,21.64,16.91-18.63,4.44,3.72-13.54,20.49,17.12-17.91,5.37,4.3c-20.7,22.57-28.08,44.2-37.33,50.94v-21.78h-15.98v8.31h-5.73v-8.31h-7.31l-.02.03v-.02h-7.32v8.31h-5.73v-8.31h-15.98v21.78c-9.24-6.73-16.62-28.37-37.33-50.94l5.37-4.3,17.12,17.91-13.54-20.49,4.44-3.73,16.91,18.63-12.61-21.64,4.16-3.51,14.97,19.84-10.53-22.57,5.45-4.37c5.28,20.59,29.34,36.85,34.21,49.98h0ZM106.05,121.46v7.8h15.55v-7.81h5.73v32.1c-4.73,3.87-16.26,13.61-20.99,18.98l-.29.29c18.63-4.73,28.66-32.02,63.26-31.45-12.67,21.91-44.24,46.25-66.09,33.84v-.08c-6.52-1.86-16.91-15.55-24.07-19.77v-33.89h5.73v7.81h15.55v-7.81h5.62ZM103.11,9.01h0s0,.01,0,.01h0c-25.9-.01-49.43,10.56-66.48,27.62-17.05,17.05-27.62,40.58-27.62,66.49h.01s-.01,0-.01,0c0,25.91,10.57,49.43,27.62,66.48,17.05,17.05,40.58,27.63,66.48,27.63h0s0-.01,0-.01h0c25.9.01,49.43-10.56,66.48-27.62,17.05-17.05,27.62-40.58,27.62-66.48h-.01s.01,0,.01,0c0-25.91-10.57-49.43-27.62-66.48-17.05-17.05-40.58-27.63-66.48-27.63h0Z"/>
      <path class="cls-3" d="M47.44,146.28c1.62,0,2.94,1.35,2.94,3.01s-1.32,3.01-2.94,3.01-2.94-1.35-2.94-3.01,1.32-3.01,2.94-3.01h0ZM19,65.52c.9,0,1.62.73,1.62,1.62s-.73,1.62-1.62,1.62-1.62-.73-1.62-1.62.73-1.62,1.62-1.62h0ZM161.22,30.75c.9,0,1.62.73,1.62,1.62s-.73,1.62-1.62,1.62-1.62-.73-1.62-1.62.73-1.62,1.62-1.62h0ZM191.13,74.03c.9,0,1.62.73,1.62,1.62,0,.9-.73,1.62-1.62,1.62s-1.62-.73-1.62-1.62c0-.9.73-1.62,1.62-1.62h0ZM24.58,81.66l-2.46-.7,1.62-5.64,5.03,1.44c.42,1.29.66,2.39.68,3.29.03.91-.12,1.93-.45,3.07-.4,1.4-.97,2.47-1.7,3.22-.73.75-1.64,1.23-2.72,1.44-1.09.22-2.24.15-3.46-.2-1.29-.37-2.34-.96-3.14-1.76-.8-.81-1.3-1.79-1.5-2.96-.15-.91-.03-2.04.35-3.4.37-1.3.77-2.25,1.2-2.83.42-.58.94-1.01,1.56-1.3.62-.28,1.34-.43,2.16-.42l-.38,3.7c-.49.02-.9.17-1.23.45-.34.28-.58.68-.73,1.22-.23.8-.14,1.52.28,2.15.42.64,1.23,1.13,2.43,1.47,1.28.37,2.26.39,2.95.06.68-.32,1.15-.91,1.4-1.77.12-.41.17-.82.16-1.22-.01-.41-.09-.89-.24-1.45l-1.11-.32-.7,2.44h0ZM20.44,69.84l1.61-3.45,11.14,5.19-1.61,3.45-11.14-5.19h0ZM34.1,68.87l-10.18-6.87,3.54-5.25c.66-.97,1.24-1.66,1.76-2.06.51-.4,1.1-.61,1.77-.62.66-.01,1.32.2,1.97.64.57.38.97.83,1.22,1.35.25.52.35,1.07.33,1.67-.02.38-.13.84-.34,1.38.38-.29.69-.48.93-.57.16-.06.45-.11.87-.14.42-.04.73-.04.93-.01l3.98.47-2.4,3.56-4.25-.42c-.54-.06-.93-.04-1.17.04-.31.12-.56.33-.76.61l-.19.28,4.13,2.79-2.13,3.16h0ZM30.17,61.62l.9-1.33c.1-.14.24-.45.42-.92.1-.24.11-.48.03-.73-.08-.25-.23-.45-.46-.6-.33-.22-.65-.29-.97-.2-.32.09-.67.42-1.06.99l-.93,1.38,2.07,1.4h0ZM32.25,49.48l6.81-7.56,1.95,1.76-4.26,4.73,1.45,1.31,3.95-4.39,1.86,1.68-3.95,4.39,1.8,1.62,4.39-4.87,2.07,1.86-6.93,7.7-9.13-8.22h0ZM46.6,45.9l2.58-2.54c.44.39.86.62,1.24.7.62.12,1.2-.06,1.75-.54.41-.36.64-.72.7-1.11.05-.38-.03-.7-.25-.95-.21-.24-.5-.37-.88-.37s-1.02.24-1.93.74c-1.5.81-2.72,1.21-3.66,1.21-.95,0-1.73-.36-2.36-1.09-.41-.48-.67-1.05-.76-1.71-.09-.66.03-1.36.38-2.08.34-.73,1-1.51,1.97-2.35,1.18-1.03,2.28-1.6,3.29-1.7,1-.1,1.98.28,2.94,1.14l-2.56,2.51c-.43-.36-.85-.53-1.25-.52-.39.01-.79.19-1.2.54-.33.29-.53.58-.57.87-.05.29.02.53.2.74.13.15.31.22.55.22.24,0,.66-.16,1.26-.49,1.49-.82,2.62-1.32,3.4-1.52.78-.2,1.47-.2,2.08,0,.6.19,1.12.54,1.57,1.05.52.59.83,1.29.93,2.07.11.79-.02,1.57-.39,2.34-.36.77-1,1.55-1.89,2.33-1.58,1.37-2.93,2.02-4.07,1.94-1.14-.08-2.15-.55-3.04-1.42h0ZM60.26,25.89l3.32-1.84,3.55,6.41c.35.64.58,1.29.7,1.96.11.67.08,1.34-.11,2-.19.66-.47,1.2-.84,1.63-.51.6-1.22,1.14-2.13,1.65-.52.29-1.11.57-1.77.84-.66.27-1.25.41-1.79.42-.54.01-1.09-.09-1.66-.3-.57-.21-1.03-.49-1.39-.85-.58-.57-1.02-1.12-1.32-1.65l-3.55-6.41,3.32-1.84,3.64,6.56c.33.59.74.96,1.25,1.1.51.15,1.05.07,1.63-.26.57-.32.93-.73,1.08-1.23.14-.5.05-1.05-.28-1.65l-3.64-6.56h0ZM68.16,21.44l3.39-1.04,6.41,5.15-1.99-6.5,3.42-1.05,3.59,11.75-3.42,1.05-6.37-5.11,1.97,6.45-3.41,1.04-3.59-11.75h0ZM90.1,15.39l7.09-.5c1.18-.08,2.11.15,2.78.69.67.54,1.04,1.24,1.1,2.11.05.73-.13,1.36-.54,1.91-.28.37-.7.67-1.26.91.89.15,1.57.47,2.02.95.45.49.7,1.12.76,1.9.04.64-.06,1.22-.32,1.75-.26.53-.64.96-1.13,1.29-.3.2-.77.37-1.41.5-.85.17-1.41.27-1.69.29l-6.54.46-.86-12.26h0ZM94.26,19.93l1.65-.11c.59-.04.99-.17,1.21-.39.22-.22.31-.52.28-.91-.03-.36-.16-.63-.4-.81-.25-.19-.66-.26-1.23-.22l-1.67.12.16,2.33h0ZM94.59,24.74l1.93-.14c.65-.05,1.1-.19,1.35-.44.25-.25.36-.57.34-.96-.03-.36-.18-.64-.46-.85-.28-.2-.75-.28-1.42-.23l-1.92.14.17,2.48h0ZM105.15,14.53l10.15.71-.18,2.62-6.35-.44-.14,1.95,5.89.41-.17,2.5-5.89-.41-.17,2.41,6.54.46-.19,2.78-10.33-.72.86-12.26h0ZM119.22,15.98l3.72.79-1.92,9.06,5.79,1.23-.63,2.96-9.51-2.02,2.55-12.02h0ZM132.11,19.29l9.5,3.64-.94,2.45-5.95-2.28-.7,1.83,5.52,2.12-.9,2.34-5.51-2.12-.87,2.26,6.12,2.35-1,2.6-9.67-3.71,4.4-11.47h0ZM145,24.88l4.98,2.65c.98.52,1.7,1.08,2.17,1.66.46.59.76,1.24.89,1.94.13.71.11,1.44-.07,2.2-.17.76-.46,1.5-.85,2.24-.62,1.16-1.23,1.99-1.83,2.49-.6.5-1.25.84-1.95,1.02-.7.18-1.35.2-1.97.06-.84-.19-1.56-.45-2.16-.77l-4.98-2.65,5.77-10.85h0ZM147.05,29.12l-3.15,5.92.82.44c.7.37,1.24.56,1.62.56.38,0,.76-.15,1.13-.44.37-.3.79-.88,1.25-1.75.61-1.15.84-2.03.69-2.66-.15-.62-.66-1.17-1.53-1.63l-.84-.44h0ZM158.21,33.16l3,2.34-7.56,9.68-3-2.34,7.56-9.68h0ZM163.55,37.25l2.98,2.98-1.18,4.69,4.69-1.18,2.96,2.96-8.43,1.67-3.64,3.64-2.69-2.69,3.64-3.64,1.66-8.43h0ZM174.75,49.33l5.98,8.23-2.12,1.54-3.74-5.15-1.58,1.15,3.47,4.78-2.03,1.47-3.47-4.78-1.96,1.42,3.85,5.3-2.25,1.64-6.09-8.38,9.94-7.22h0ZM174.85,64.45l1.9,3.08c-.48.34-.8.7-.96,1.05-.26.58-.21,1.19.13,1.83.25.48.56.79.92.93.36.14.69.13.99-.03.28-.15.47-.4.56-.77.09-.37,0-1.05-.29-2.05-.45-1.65-.57-2.93-.36-3.84.21-.92.74-1.61,1.59-2.06.56-.3,1.17-.42,1.84-.36.67.06,1.31.34,1.94.83.63.5,1.24,1.31,1.84,2.44.74,1.39,1.04,2.58.91,3.58-.13,1-.72,1.87-1.77,2.61l-1.86-3.06c.44-.34.7-.71.78-1.1.08-.39,0-.81-.26-1.29-.21-.39-.44-.64-.72-.75-.27-.11-.52-.1-.76.03-.17.09-.28.25-.34.49-.06.24,0,.68.2,1.34.46,1.63.7,2.85.71,3.66.01.81-.14,1.48-.47,2.02-.32.54-.78.97-1.38,1.29-.69.37-1.44.52-2.23.44-.79-.07-1.52-.37-2.19-.9-.67-.53-1.28-1.32-1.84-2.37-.98-1.84-1.31-3.31-.97-4.4.33-1.09,1.02-1.97,2.07-2.65h0ZM188.63,74.53l1.18,3.62-11.69,3.8-1.18-3.62,11.69-3.8h0ZM156.51,145.69c1.62,0,2.94,1.35,2.94,3.01s-1.32,3.01-2.94,3.01-2.94-1.35-2.94-3.01,1.32-3.01,2.94-3.01h0ZM103.08,164.63c-.11-.01-.21-.03-.32-.04-.07.01-.15.02-.22.03v-.06c-15.52-2.31-22.34-22.16-7.41-27.23,3.07-.83,5.66-.52,8,.88,2.26-1.24,4.76-1.49,7.69-.7,14.92,5.07,7.79,24.73-7.74,27.04v.09h0Z"/>
      <path class="cls-1" d="M89.62,83.88h-2.2v-9.96h-2.04v-1.73h4.24v11.69h0ZM96.61,75.13c0,.34.1.61.3.82.2.21.46.32.78.32.34,0,.61-.1.81-.31.19-.21.29-.49.29-.86,0-.34-.1-.62-.3-.84-.2-.22-.46-.33-.78-.33s-.59.11-.79.33c-.21.22-.31.51-.31.86h0ZM96.08,80.42c0,.48.15.87.46,1.2.3.32.68.48,1.12.48.48,0,.87-.16,1.18-.48.31-.32.47-.72.47-1.21,0-.52-.15-.93-.45-1.23-.3-.3-.7-.46-1.21-.46-.47,0-.85.16-1.14.47-.28.31-.43.72-.43,1.24h0ZM95.66,77.36c-.42-.26-.74-.59-.97-.99-.23-.4-.34-.84-.34-1.32,0-.84.32-1.57.97-2.18.65-.61,1.43-.91,2.35-.91.97,0,1.78.3,2.43.9.65.6.97,1.33.97,2.21,0,.49-.11.93-.34,1.32-.23.39-.57.71-1.02.97.64.33,1.12.73,1.43,1.22.31.49.47,1.07.47,1.74,0,1.11-.37,2.03-1.1,2.73-.73.71-1.69,1.06-2.85,1.06-1.1,0-2.01-.36-2.74-1.09-.73-.72-1.1-1.63-1.1-2.71,0-.64.15-1.19.45-1.67.3-.48.77-.91,1.4-1.29h0ZM105.33,79.91c0,.58.19,1.08.56,1.48.38.41.82.61,1.35.61.56,0,1.01-.19,1.37-.57.36-.38.53-.86.53-1.46s-.17-1.08-.53-1.46c-.35-.38-.8-.57-1.34-.57s-.99.19-1.37.58c-.38.39-.57.84-.57,1.37h0ZM107.33,72.19h2.38l-2.65,4c.21-.05.38-.08.52-.1.13-.02.26-.03.38-.03.96,0,1.77.38,2.43,1.14.67.76,1,1.69,1,2.79,0,.45-.09.92-.27,1.4-.18.47-.42.9-.73,1.26-.42.5-.89.86-1.39,1.09-.5.23-1.08.34-1.75.34-.56,0-1.09-.1-1.59-.3-.5-.21-.94-.5-1.32-.89-.39-.38-.68-.82-.89-1.3-.21-.48-.31-.97-.31-1.48,0-.58.11-1.16.34-1.75.22-.59.66-1.36,1.31-2.33l2.54-3.86h0ZM118.73,76.17c0-.58-.19-1.08-.56-1.49-.38-.41-.83-.61-1.35-.61-.55,0-1.01.19-1.37.58-.36.38-.54.87-.54,1.46s.17,1.07.53,1.45c.35.38.8.57,1.35.57s.99-.19,1.37-.58c.38-.39.57-.85.57-1.38h0ZM116.74,83.88h-2.38l2.65-3.98c-.21.04-.38.07-.52.09-.13.02-.26.03-.38.03-.96,0-1.77-.38-2.43-1.15-.67-.77-1-1.7-1-2.8,0-.45.09-.91.27-1.38.18-.47.42-.89.73-1.27.42-.5.89-.86,1.39-1.1.5-.23,1.09-.35,1.74-.35.56,0,1.09.1,1.59.3.5.2.94.5,1.32.89.38.38.68.81.89,1.3.21.49.31.99.31,1.49,0,.58-.11,1.16-.34,1.75-.22.59-.66,1.36-1.31,2.33l-2.54,3.84h0Z"/>
    </g>
  </g>
</svg>