<?xml version="1.0" encoding="iso-8859-1"?>
<!-- Generator: Adobe Illustrator 29.7.1, SVG Export Plug-In . SVG Version: 9.03 Build 0)  -->
<svg version="1.1" id="Layer_1" xmlns="http://www.w3.org/2000/svg" xmlns:xlink="http://www.w3.org/1999/xlink" x="0px" y="0px"
	 viewBox="0 0 350 350" style="enable-background:new 0 0 350 350;" xml:space="preserve">
<g>
	<g>
		<g>
			<path style="fill:#FFFFFF;" d="M393.436-46.919c-242.837,0-440.399,197.478-440.399,440.212
				c0,242.94,197.562,440.586,440.399,440.586c242.933,0,440.573-197.646,440.573-440.586
				C834.009,150.559,636.369-46.919,393.436-46.919L393.436-46.919z"/>
		</g>
		<g>
			<path style="fill:#D2AB67;" d="M393.436,839.48c-245.927,0-446-200.157-446-446.187c0-245.822,200.073-445.813,446-445.813
				c246.02,0,446.174,199.991,446.174,445.813C839.61,639.323,639.456,839.48,393.436,839.48L393.436,839.48z M393.436-46.919
				c-242.837,0-440.399,197.478-440.399,440.212c0,242.94,197.562,440.586,440.399,440.586
				c242.933,0,440.573-197.646,440.573-440.586C834.009,150.559,636.369-46.919,393.436-46.919L393.436-46.919z"/>
		</g>
	</g>
	<g>
		<path style="fill-rule:evenodd;clip-rule:evenodd;fill:#D2AB67;" d="M388.008,239.719C251.795,200.646,94.231,281.5,89.891,446.49
			c0.537,181.058,153.945,267.901,290.333,227.02c3.255,1.624,8.325,2.352,13.212,2.524c4.882-0.171,9.945-0.899,13.199-2.524
			c136.586,40.881,290.159-45.962,290.707-227.02c-4.347-164.624-161.178-245.486-297.397-206.956l-5.61-15.913
			c-1.438-3.977-2.716-7.782-4.154-11.762c4.879-4.521,11.569-6.878,16.454-11.213c70.909,18.27,150.866,6.327,210.199-58.246
			c3.986-6.153,2.175-8.865-3.787-9.231c-46.684,5.422-82.132-19.354-135.317-0.901c-33.466,12.844-61.508,36.174-74.717,61.499
			c-4.518,4.338-8.496,6.878-12.832,11.213c-27.137-43.957-54.821-86.462-87.198-100.941c-1.45,12.12-2.899,24.249-4.336,36.368
			C339.888,163.921,370.635,197.025,388.008,239.719z"/>
	</g>
	<g>
		<path style="fill-rule:evenodd;clip-rule:evenodd;fill:#00A651;" d="M419.481,182.193c-4.518,6.153-7.605,11.94,3.622,15.017
			c64.035,17.361,126.255-6.877,169.672-39.073c11.765-10.138,14.289-17.909,1.095-17.371
			C544.295,137.697,490.75,104.583,419.481,182.193z"/>
	</g>
	<g>
		<path style="fill-rule:evenodd;clip-rule:evenodd;fill:#00AEEF;" d="M244.917,316.775l49.2-11.026
			c-9.763-2.54-19.719-5.07-29.665-7.597C258.667,301.945,252.151,308.1,244.917,316.775z"/>
	</g>
	<g>
		<path style="fill-rule:evenodd;clip-rule:evenodd;fill:#00AEEF;" d="M274.227,291.09l49.2,16.652l92.441-32.745
			c56.43,39.067,112.875,78.502,169.134,117.761C533.451,257.986,389.63,205.886,274.227,291.09z"/>
	</g>
	<g>
		<path style="fill:#ED1C24;" d="M224.39,577.79c-28.766-41.422-39.259-87.733-38.349-129.7
			c0.719-30.572,11.757-73.082,38.349-111.612c28.217-41.071,73.981-77.61,143.265-90.809
			c-45.035-16.28-97.023-12.268-143.326,9.615C155.047,288.029,98.848,359.268,97.762,448.631
			c-1.081,88.088,48.483,172.937,126.629,209.657c38.706,18.271,84.295,24.784,133.862,14.114
			C294.036,650.329,251.345,616.141,224.39,577.79z M224.39,637.857c-131.332-78.883-135.125-289.627,0-363.435
			c22.063-11.93,47.569-20.444,77.06-24.05c-30.203,9.033-55.72,21.708-81.675,38.494c-118.49,85.567-98.857,254.366,4.614,335.959
			c27.311,21.527,60.782,37.085,99.674,43.044C285.172,665.343,252.07,654.486,224.39,637.857z"/>
	</g>
	<g>
		<path style="fill-rule:evenodd;clip-rule:evenodd;fill:#ED1C24;" d="M420.203,245.328
			C538.337,267.76,587.712,357.66,599.294,421.88h45.763c-10.132-73.808-59.881-142.726-158.284-171.847
			c106.185,13.2,163.708,88.449,174.751,171.847h26.95C670.019,288.378,526.382,207.156,420.203,245.328L420.203,245.328z
			 M401.209,483.746c81.031,0,162.089,0,243.31,0c-13.215,87.382-78.32,168.051-180.532,183.784
			c129.158-8.311,196.812-108.522,199.522-208.92c-89.18,0-179.633,0-269.348,0v-14.843h295.947v0.174h0.165
			c0,1.45,0.19,2.897,0.19,4.35c1.634,131.694-110.345,255.965-260.856,223.772c108.357-37.268,155.57-108.357,168.602-177.097
			H414.051L401.209,483.746z"/>
	</g>
	<g>
		<polygon style="fill-rule:evenodd;clip-rule:evenodd;fill:#5E331A;" points="421.833,502.024 512.09,502.024 512.09,512.147 
			432.69,512.147 		"/>
	</g>
	<g>
		<polygon style="fill-rule:evenodd;clip-rule:evenodd;fill:#FFFFFF;" points="509.939,519.204 462.894,519.204 509.939,559.543 		
			"/>
	</g>
	<g>
		<polygon style="fill-rule:evenodd;clip-rule:evenodd;fill:#FFFFFF;" points="454.213,519.204 440.105,519.204 456.572,533.496 
			464.889,533.321 507.04,568.041 509.211,565.154 		"/>
	</g>
	<g>
		<path style="fill-rule:evenodd;clip-rule:evenodd;fill:#FFFFFF;" d="M517.162,502.024c24.962,0,50.649,0,75.613,0
			c-10.673,50.101-38.709,87.543-75.613,119.565v-32.383h15.204l-15.204-12.12V502.024z"/>
	</g>
	<g>
		<path style="fill-rule:evenodd;clip-rule:evenodd;fill:#7D4800;" d="M241.481,323.465l59.513-14.642l21.351,5.78l92.798-33.996
			l168.596,119.026l9.036,28.945h97.497v11.395H389.63v18.639H266.981v56.069h4.527v51.374l-28.397,23.341h26.581
			c0,10.315,0,20.801,0,31.11c-52.45-46.314-79.411-104.913-78.141-173.848C193.181,401.807,214.164,352.239,241.481,323.465z"/>
	</g>
	<g>
		<polygon style="fill-rule:evenodd;clip-rule:evenodd;fill:#5E331A;" points="273.86,466.38 389.456,466.38 389.456,473.441 
			346.217,507.448 273.86,507.448 		"/>
	</g>
	<g>
		<polygon style="fill-rule:evenodd;clip-rule:evenodd;fill:#FFFFFF;" points="278.387,515.405 336.628,515.405 278.387,561.532 		
			"/>
	</g>
	<g>
		<polygon style="fill-rule:evenodd;clip-rule:evenodd;fill:#FFFFFF;" points="389.456,483.208 430.518,518.843 346.217,518.843 		
			"/>
	</g>
	<g>
		<polygon style="fill-rule:evenodd;clip-rule:evenodd;fill:#FFFFFF;" points="344.41,584.86 260.659,584.86 344.41,519.755 		"/>
	</g>
	<g>
		<polygon style="fill-rule:evenodd;clip-rule:evenodd;fill:#FFFFFF;" points="434.308,584.86 511.738,584.86 434.308,523.542 		"/>
	</g>
	<g>
		<path style="fill-rule:evenodd;clip-rule:evenodd;fill:#D2AB67;" d="M379.499,502.376c2.718,0,4.885,2.172,4.885,4.885
			c0,2.723-2.167,4.885-4.885,4.885c-2.53,0-4.703-2.163-4.703-4.885C374.796,504.548,376.969,502.376,379.499,502.376z"/>
	</g>
	<g>
		<path style="fill-rule:evenodd;clip-rule:evenodd;fill:#D2AB67;" d="M398.141,502.376c2.71,0,4.873,2.172,4.873,4.885
			c0,2.723-2.163,4.885-4.873,4.885c-2.533,0-4.887-2.163-4.887-4.885C393.254,504.548,395.608,502.376,398.141,502.376z"/>
	</g>
	<g>
		<path style="fill:#D2AB67;" d="M325.336,555.479h-9.422v-9.422h9.422V555.479L325.336,555.479z M316.472,554.919h8.305v-8.302
			h-8.305V554.919L316.472,554.919z"/>
	</g>
	<g>
		<path style="fill:#D2AB67;" d="M325.336,564.348h-9.422v-9.428h9.422V564.348L325.336,564.348z M316.472,563.787h8.305v-8.308
			h-8.305V563.787L316.472,563.787z"/>
	</g>
	<g>
		<path style="fill:#D2AB67;" d="M325.336,573.393h-9.422v-9.606h9.422V573.393L325.336,573.393z M316.472,572.833h8.305v-8.486
			h-8.305V572.833L316.472,572.833z"/>
	</g>
	<g>
		<path style="fill:#D2AB67;" d="M334.19,555.479h-9.413v-9.422h9.413V555.479L334.19,555.479z M325.336,554.919h8.296v-8.302
			h-8.296V554.919L325.336,554.919z"/>
	</g>
	<g>
		<path style="fill:#D2AB67;" d="M334.19,564.348h-9.413v-9.428h9.413V564.348L334.19,564.348z M325.336,563.787h8.296v-8.308
			h-8.296V563.787L325.336,563.787z"/>
	</g>
	<g>
		<path style="fill:#D2AB67;" d="M334.19,573.393h-9.413v-9.606h9.413V573.393L334.19,573.393z M325.336,572.833h8.296v-8.486
			h-8.296V572.833L325.336,572.833z"/>
	</g>
	<g>
		<path style="fill-rule:evenodd;clip-rule:evenodd;fill:#FFFFFF;" d="M274.227,588.308h70.183c0,24.784,0,49.562,0,74.337
			c-23.333-7.586-46.857-20.241-70.183-37.972V588.308z"/>
	</g>
	<g>
		<g>
			<path style="fill:#D2AB67;" d="M308.69,612.276h-10.692v-10.682h10.692V612.276L308.69,612.276z M298.559,611.716h9.571v-9.562
				h-9.571V611.716L298.559,611.716z"/>
		</g>
		<g>
			<path style="fill:#D2AB67;" d="M337.089,612.276h-10.692v-10.682h10.692V612.276L337.089,612.276z M326.955,611.716h9.575v-9.562
				h-9.575V611.716L326.955,611.716z"/>
		</g>
		<g>
			<path style="fill:#D2AB67;" d="M308.69,622.408h-10.692v-10.692h10.692V622.408L308.69,622.408z M298.559,621.848h9.571v-9.571
				h-9.571V621.848L298.559,621.848z"/>
		</g>
		<g>
			<path style="fill:#D2AB67;" d="M337.089,622.408h-10.692v-10.692h10.692V622.408L337.089,622.408z M326.955,621.848h9.575v-9.571
				h-9.575V621.848L326.955,621.848z"/>
		</g>
		<g>
			<path style="fill:#D2AB67;" d="M308.69,632.54h-10.692v-10.692h10.692V632.54L308.69,632.54z M298.559,631.98h9.571v-9.571
				h-9.571V631.98L298.559,631.98z"/>
		</g>
		<g>
			<path style="fill:#D2AB67;" d="M337.089,632.54h-10.692v-10.692h10.692V632.54L337.089,632.54z M326.955,631.98h9.575v-9.571
				h-9.575V631.98L326.955,631.98z"/>
		</g>
		<g>
			<path style="fill:#D2AB67;" d="M298.559,612.276h-10.687v-10.682h10.687V612.276L298.559,612.276z M288.432,611.716h9.567v-9.562
				h-9.567V611.716L288.432,611.716z"/>
		</g>
		<g>
			<path style="fill:#D2AB67;" d="M326.955,612.276H316.27v-10.682h10.685V612.276L326.955,612.276z M316.83,611.716h9.567v-9.562
				h-9.567V611.716L316.83,611.716z"/>
		</g>
		<g>
			<path style="fill:#D2AB67;" d="M298.559,622.408h-10.687v-10.692h10.687V622.408L298.559,622.408z M288.432,621.848h9.567v-9.571
				h-9.567V621.848L288.432,621.848z"/>
		</g>
		<g>
			<path style="fill:#D2AB67;" d="M326.955,622.408H316.27v-10.692h10.685V622.408L326.955,622.408z M316.83,621.848h9.567v-9.571
				h-9.567V621.848L316.83,621.848z"/>
		</g>
		<g>
			<path style="fill:#D2AB67;" d="M298.559,632.54h-10.687v-10.692h10.687V632.54L298.559,632.54z M288.432,631.98h9.567v-9.571
				h-9.567V631.98L288.432,631.98z"/>
		</g>
		<g>
			<path style="fill:#D2AB67;" d="M326.955,632.54H316.27v-10.692h10.685V632.54L326.955,632.54z M316.83,631.98h9.567v-9.571
				h-9.567V631.98L316.83,631.98z"/>
		</g>
	</g>
	<g>
		<path style="fill-rule:evenodd;clip-rule:evenodd;fill:#FFFFFF;" d="M434.308,587.757h77.969c0,12.493,0,24.965,0,37.268
			c-21.704,16.641-48.476,29.312-77.969,40.165V587.757z"/>
	</g>
	<g>
		<g>
			<path style="fill:#D2AB67;" d="M463.899,612.276h-10.691v-10.682h10.691V612.276L463.899,612.276z M453.768,611.716h9.571v-9.562
				h-9.571V611.716L453.768,611.716z"/>
		</g>
		<g>
			<path style="fill:#D2AB67;" d="M492.116,612.276h-10.692v-10.682h10.692V612.276L492.116,612.276z M481.984,611.716h9.571v-9.562
				h-9.571V611.716L481.984,611.716z"/>
		</g>
		<g>
			<path style="fill:#D2AB67;" d="M463.899,622.408h-10.691v-10.692h10.691V622.408L463.899,622.408z M453.768,621.848h9.571v-9.571
				h-9.571V621.848L453.768,621.848z"/>
		</g>
		<g>
			<path style="fill:#D2AB67;" d="M492.116,622.408h-10.692v-10.692h10.692V622.408L492.116,622.408z M481.984,621.848h9.571v-9.571
				h-9.571V621.848L481.984,621.848z"/>
		</g>
		<g>
			<path style="fill:#D2AB67;" d="M463.899,632.54h-10.691v-10.692h10.691V632.54L463.899,632.54z M453.768,631.98h9.571v-9.571
				h-9.571V631.98L453.768,631.98z"/>
		</g>
		<g>
			<path style="fill:#D2AB67;" d="M492.116,632.54h-10.692v-10.692h10.692V632.54L492.116,632.54z M481.984,631.98h9.571v-9.571
				h-9.571V631.98L481.984,631.98z"/>
		</g>
		<g>
			<path style="fill:#D2AB67;" d="M453.768,612.276h-10.872v-10.682h10.872V612.276L453.768,612.276z M443.453,611.716h9.755v-9.562
				h-9.755V611.716L443.453,611.716z"/>
		</g>
		<g>
			<path style="fill:#D2AB67;" d="M481.984,612.276h-10.692v-10.682h10.692V612.276L481.984,612.276z M471.853,611.716h9.571v-9.562
				h-9.571V611.716L471.853,611.716z"/>
		</g>
		<g>
			<path style="fill:#D2AB67;" d="M453.768,622.408h-10.872v-10.692h10.872V622.408L453.768,622.408z M443.453,621.848h9.755v-9.571
				h-9.755V621.848L443.453,621.848z"/>
		</g>
		<g>
			<path style="fill:#D2AB67;" d="M481.984,622.408h-10.692v-10.692h10.692V622.408L481.984,622.408z M471.853,621.848h9.571v-9.571
				h-9.571V621.848L471.853,621.848z"/>
		</g>
		<g>
			<path style="fill:#D2AB67;" d="M453.768,632.54h-10.872v-10.692h10.872V632.54L453.768,632.54z M443.453,631.98h9.755v-9.571
				h-9.755V631.98L443.453,631.98z"/>
		</g>
		<g>
			<path style="fill:#D2AB67;" d="M481.984,632.54h-10.692v-10.692h10.692V632.54L481.984,632.54z M471.853,631.98h9.571v-9.571
				h-9.571V631.98L471.853,631.98z"/>
		</g>
	</g>
	<g>
		<path style="fill:#D2AB67;" d="M449.975,555.479h-9.606v-9.422h9.606V555.479L449.975,555.479z M440.929,554.919h8.486v-8.302
			h-8.486V554.919L440.929,554.919z"/>
	</g>
	<g>
		<path style="fill:#D2AB67;" d="M449.975,564.348h-9.606v-9.428h9.606V564.348L449.975,564.348z M440.929,563.787h8.486v-8.308
			h-8.486V563.787L440.929,563.787z"/>
	</g>
	<g>
		<path style="fill:#D2AB67;" d="M449.975,573.393h-9.606v-9.606h9.606V573.393L449.975,573.393z M440.929,572.833h8.486v-8.486
			h-8.486V572.833L440.929,572.833z"/>
	</g>
	<g>
		<path style="fill:#D2AB67;" d="M458.837,555.479h-9.422v-9.422h9.422V555.479L458.837,555.479z M449.975,554.919h8.302v-8.302
			h-8.302V554.919L449.975,554.919z"/>
	</g>
	<g>
		<path style="fill:#D2AB67;" d="M458.837,564.348h-9.422v-9.428h9.422V564.348L458.837,564.348z M449.975,563.787h8.302v-8.308
			h-8.302V563.787L449.975,563.787z"/>
	</g>
	<g>
		<path style="fill:#D2AB67;" d="M458.837,573.393h-9.422v-9.606h9.422V573.393L458.837,573.393z M449.975,572.833h8.302v-8.486
			h-8.302V572.833L449.975,572.833z"/>
	</g>
	<g>
		<rect x="348.753" y="523.177" style="fill-rule:evenodd;clip-rule:evenodd;fill:#FFFFFF;" width="81.04" height="53.188"/>
	</g>
	<g>
		<rect x="348.753" y="578.898" style="fill-rule:evenodd;clip-rule:evenodd;fill:#FFFFFF;" width="81.04" height="11.943"/>
	</g>
	<g>
		<path style="fill-rule:evenodd;clip-rule:evenodd;fill:#FFFFFF;" d="M348.753,605.671c9.589-6.146,21.525-9.232,33.645-11.943
			h-33.645C348.753,597.702,348.753,601.697,348.753,605.671z"/>
	</g>
	<g>
		<path style="fill-rule:evenodd;clip-rule:evenodd;fill:#FFFFFF;" d="M429.793,605.671c-9.948-6.146-21.707-9.232-33.827-11.943
			h33.827C429.793,597.702,429.793,601.697,429.793,605.671z"/>
	</g>
	<g>
		<path style="fill:#D2AB67;" d="M368.258,547.756h-8.627V536.24h8.627V547.756L368.258,547.756z M360.299,547.094h7.294v-10.191
			h-7.294V547.094L360.299,547.094z"/>
	</g>
	<g>
		<path style="fill:#D2AB67;" d="M404.259,547.756h-8.626V536.24h8.626V547.756L404.259,547.756z M396.299,547.094h7.294v-10.191
			h-7.294V547.094L396.299,547.094z"/>
	</g>
	<g>
		<path style="fill:#D2AB67;" d="M368.258,558.616h-8.627v-11.522h8.627V558.616L368.258,558.616z M360.299,557.953h7.294v-10.197
			h-7.294V557.953L360.299,557.953z"/>
	</g>
	<g>
		<path style="fill:#D2AB67;" d="M404.259,558.616h-8.626v-11.522h8.626V558.616L404.259,558.616z M396.299,557.953h7.294v-10.197
			h-7.294V557.953L396.299,557.953z"/>
	</g>
	<g>
		<path style="fill:#D2AB67;" d="M368.258,569.46h-8.627v-11.507h8.627V569.46L368.258,569.46z M360.299,568.797h7.294v-10.181
			h-7.294V568.797L360.299,568.797z"/>
	</g>
	<g>
		<path style="fill:#D2AB67;" d="M404.259,569.46h-8.626v-11.507h8.626V569.46L404.259,569.46z M396.299,568.797h7.294v-10.181
			h-7.294V568.797L396.299,568.797z"/>
	</g>
	<g>
		<path style="fill:#D2AB67;" d="M376.397,547.756h-8.804V536.24h8.804V547.756L376.397,547.756z M368.258,547.094h7.473v-10.191
			h-7.473V547.094L368.258,547.094z"/>
	</g>
	<g>
		<path style="fill:#D2AB67;" d="M412.209,547.756h-8.616V536.24h8.616V547.756L412.209,547.756z M404.259,547.094h7.287v-10.191
			h-7.287V547.094L404.259,547.094z"/>
	</g>
	<g>
		<path style="fill:#D2AB67;" d="M376.397,558.616h-8.804v-11.522h8.804V558.616L376.397,558.616z M368.258,557.953h7.473v-10.197
			h-7.473V557.953L368.258,557.953z"/>
	</g>
	<g>
		<path style="fill:#D2AB67;" d="M412.209,558.616h-8.616v-11.522h8.616V558.616L412.209,558.616z M404.259,557.953h7.287v-10.197
			h-7.287V557.953L404.259,557.953z"/>
	</g>
	<g>
		<path style="fill:#D2AB67;" d="M376.397,569.46h-8.804v-11.507h8.804V569.46L376.397,569.46z M368.258,568.797h7.473v-10.181
			h-7.473V568.797L368.258,568.797z"/>
	</g>
	<g>
		<path style="fill:#D2AB67;" d="M412.209,569.46h-8.616v-11.507h8.616V569.46L412.209,569.46z M404.259,568.797h7.287v-10.181
			h-7.287V568.797L404.259,568.797z"/>
	</g>
	<g>
		<path style="fill:#D2AB67;" d="M384.361,547.756h-8.63V536.24h8.63V547.756L384.361,547.756z M376.397,547.094h7.298v-10.191
			h-7.298V547.094L376.397,547.094z"/>
	</g>
	<g>
		<path style="fill:#D2AB67;" d="M420.349,547.756h-8.803V536.24h8.803V547.756L420.349,547.756z M412.209,547.094h7.474v-10.191
			h-7.474V547.094L412.209,547.094z"/>
	</g>
	<g>
		<path style="fill:#D2AB67;" d="M384.361,558.616h-8.63v-11.522h8.63V558.616L384.361,558.616z M376.397,557.953h7.298v-10.197
			h-7.298V557.953L376.397,557.953z"/>
	</g>
	<g>
		<path style="fill:#D2AB67;" d="M420.349,558.616h-8.803v-11.522h8.803V558.616L420.349,558.616z M412.209,557.953h7.474v-10.197
			h-7.474V557.953L412.209,557.953z"/>
	</g>
	<g>
		<path style="fill:#D2AB67;" d="M384.361,569.46h-8.63v-11.507h8.63V569.46L384.361,569.46z M376.397,568.797h7.298v-10.181h-7.298
			V568.797L376.397,568.797z"/>
	</g>
	<g>
		<path style="fill:#D2AB67;" d="M420.349,569.46h-8.803v-11.507h8.803V569.46L420.349,569.46z M412.209,568.797h7.474v-10.181
			h-7.474V568.797L412.209,568.797z"/>
	</g>
	<g>
		<path style="fill-rule:evenodd;clip-rule:evenodd;fill:#5E331A;" d="M348.753,622.498c2.886-6.88,12.475-11.578,24.238-13.754
			v60.78c-8.14-1.435-16.094-3.444-24.238-6.332C348.753,649.635,348.753,636.068,348.753,622.498L348.753,622.498z
			 M377.881,608.023c8.496-1.263,17.727-1.089,26.225,0.187v62.043c-8.865,1.086-17.548,0.899-26.225-0.177V608.023L377.881,608.023
			z M408.808,609.109c10.315,2.349,18.636,6.693,21.352,13.389c0,13.57,0,28.4,0,41.97c-7.057,2.337-14.115,4.157-21.352,5.234
			V609.109z"/>
	</g>
	<g>
		<g>
			<path style="fill:#D2AB67;" d="M80.612,631.818l6.24-4.742l12.246,16.115l-14.751,11.211c-2.707-0.414-5.766-1.671-9.178-3.765
				c-3.41-2.097-6.275-4.668-8.591-7.717c-2.944-3.871-4.695-7.866-5.26-11.98c-0.561-4.114,0.117-8.047,2.04-11.79
				c1.921-3.746,4.66-6.967,8.213-9.665c3.855-2.931,7.896-4.729,12.123-5.389c4.226-0.66,8.322-0.043,12.289,1.858
				c3.032,1.441,5.893,3.927,8.58,7.465c3.493,4.596,5.257,8.918,5.294,12.973c0.036,4.048-1.366,7.735-4.204,11.062l-7.032-6.369
				c1.422-1.904,2.113-3.977,2.071-6.217c-0.042-2.24-0.882-4.437-2.521-6.591c-2.483-3.27-5.492-5.078-9.028-5.433
				c-3.535-0.355-7.342,1.017-11.415,4.114c-4.395,3.339-6.951,6.821-7.662,10.446c-0.714,3.622,0.132,7.017,2.538,10.185
				c1.19,1.565,2.69,2.9,4.501,4.008c1.811,1.108,3.585,1.892,5.318,2.356l4.697-3.569L80.612,631.818z"/>
		</g>
		<g>
			<path style="fill:#D2AB67;" d="M117.079,630.866l6.48,6.799l-18.231,17.379c-2.894,2.76-4.689,4.63-5.385,5.617
				c-1.1,1.606-1.546,3.351-1.336,5.24c0.208,1.892,1.218,3.784,3.028,5.682c1.839,1.929,3.619,3.009,5.341,3.236
				c1.723,0.227,3.253-0.106,4.59-0.999c1.338-0.899,3.34-2.614,6.002-5.156l18.623-17.749l6.478,6.796l-17.68,16.856
				c-4.042,3.852-7.071,6.391-9.091,7.614c-2.018,1.22-4.071,1.889-6.161,1.995c-2.089,0.106-4.263-0.339-6.521-1.344
				c-2.257-1.005-4.655-2.838-7.194-5.502c-3.065-3.217-5.019-6.008-5.859-8.377c-0.842-2.368-1.128-4.599-0.861-6.696
				c0.266-2.094,0.906-3.918,1.914-5.464c1.506-2.281,4.142-5.215,7.907-8.806L117.079,630.866z M124.525,634.814l5.534-5.274
				l5.274,5.532l-5.532,5.278L124.525,634.814z M133.938,644.691l5.534-5.281l5.296,5.558l-5.533,5.277L133.938,644.691z"/>
		</g>
		<g>
			<path style="fill:#D2AB67;" d="M114.419,695.187l29.708-35.787l10.812,8.98l-13.771,29.801l26.684-19.081l10.838,8.996
				l-29.707,35.784l-6.713-5.573l23.386-28.167l-30.488,22.27l-6.956-5.775l16.305-34.045l-23.384,28.167L114.419,695.187z"/>
		</g>
		<g>
			<path style="fill:#D2AB67;" d="M180.134,688.895l7.876,5.116l-13.725,21.125c-2.178,3.351-3.493,5.585-3.942,6.706
				c-0.7,1.814-0.731,3.619-0.09,5.408c0.638,1.792,2.058,3.401,4.259,4.83c2.234,1.453,4.216,2.091,5.943,1.913
				c1.729-0.174,3.141-0.852,4.235-2.032c1.095-1.179,2.645-3.314,4.65-6.4l14.02-21.573l7.874,5.116l-13.31,20.484
				c-3.043,4.68-5.405,7.851-7.087,9.509c-1.682,1.655-3.527,2.776-5.534,3.361c-2.009,0.588-4.226,0.656-6.654,0.199
				c-2.429-0.454-5.185-1.687-8.272-3.69c-3.723-2.421-6.268-4.686-7.633-6.796c-1.366-2.11-2.161-4.216-2.383-6.317
				c-0.226-2.1-0.025-4.017,0.6-5.757c0.938-2.57,2.824-6.033,5.659-10.399L180.134,688.895z M188.289,691.017l4.166-6.41
				l6.412,4.164l-4.166,6.413L188.289,691.017z M199.728,698.451l4.166-6.413l6.438,4.185l-4.166,6.413L199.728,698.451z"/>
		</g>
		<g>
			<path style="fill:#D2AB67;" d="M193.885,766.901l1.704-3.33c1.833,1.195,3.56,2.213,5.179,3.04
				c1.675,0.856,3.073,1.189,4.191,1.002c0.851-0.134,1.463-0.56,1.826-1.273c0.327-0.641,0.321-1.344-0.023-2.116
				c-0.342-0.768-1.126-1.469-2.351-2.094c-1.204-0.613-2.534-1.058-3.987-1.326l2.164-2.421c1.728,0.243,3.44,0.797,5.134,1.665
				c2.354,1.204,3.879,2.635,4.572,4.297c0.694,1.662,0.661,3.236-0.099,4.723c-0.846,1.656-2.214,2.657-4.098,3
				c-2.55,0.479-5.53-0.156-8.937-1.898C196.733,768.93,194.973,767.841,193.885,766.901z M197.08,737.178l8.537,3.373
				c-0.907,2.978-0.938,5.492-0.097,7.54c0.843,2.048,2.534,3.718,5.076,5.016c2.692,1.378,5.011,1.845,6.961,1.406
				c1.948-0.442,3.313-1.425,4.092-2.95c0.501-0.98,0.64-1.96,0.417-2.941c-0.224-0.98-0.92-2.091-2.091-3.333
				c-0.806-0.837-2.729-2.583-5.769-5.231c-3.915-3.401-6.36-6.376-7.339-8.921c-1.377-3.578-1.227-7.004,0.448-10.281
				c1.078-2.107,2.685-3.778,4.82-5.001c2.135-1.226,4.572-1.742,7.314-1.55c2.741,0.19,5.702,1.102,8.885,2.726
				c5.197,2.66,8.526,5.797,9.987,9.419c1.463,3.622,1.285,7.368-0.527,11.24l-8.548-3.908c0.73-2.309,0.745-4.232,0.045-5.766
				c-0.7-1.534-2.228-2.903-4.58-4.107c-2.43-1.242-4.588-1.718-6.472-1.419c-1.212,0.187-2.093,0.815-2.642,1.889
				c-0.501,0.98-0.515,2.029-0.044,3.149c0.604,1.425,2.691,3.656,6.267,6.7c3.577,3.04,6.077,5.573,7.501,7.595
				c1.424,2.023,2.231,4.204,2.424,6.547c0.191,2.343-0.383,4.823-1.721,7.44c-1.213,2.371-3.009,4.26-5.388,5.654
				c-2.377,1.4-5.027,1.985-7.953,1.761c-2.927-0.23-6.186-1.26-9.783-3.099c-5.234-2.679-8.637-5.943-10.203-9.799
				C195.129,746.473,195.256,742.092,197.08,737.178z"/>
		</g>
		<g>
			<path style="fill:#D2AB67;" d="M228.747,770.078l16.763-43.383l8.761,3.382l-6.598,17.077l17.162,6.631l6.598-17.074l8.759,3.385
				l-16.764,43.383l-8.758-3.385l7.33-18.969l-17.164-6.634l-7.331,18.969L228.747,770.078z"/>
		</g>
		<g>
			<path style="fill:#D2AB67;" d="M310.927,796.511l-9.873-2.62l-1.215-11.252l-17.968-4.767l-6.421,9.226l-9.628-2.555
				l29.435-40.308l9.599,2.548L310.927,796.511z M298.935,774.294l-1.767-18.325l-10.499,15.067L298.935,774.294z"/>
		</g>
		<g>
			<path style="fill:#D2AB67;" d="M313.658,796.823l6.944-45.987l9.033,1.363l14.185,33.553l4.638-30.709l8.625,1.301l-6.944,45.99
				l-9.316-1.41l-14.01-32.787l-4.529,29.987L313.658,796.823z"/>
		</g>
		<g>
			<path style="fill:#D2AB67;" d="M357.493,802.977l2.138-46.457l34.447,1.584l-0.362,7.86l-25.066-1.154l-0.475,10.299
				l23.325,1.077l-0.361,7.826l-23.325-1.073l-0.582,12.646l25.954,1.192l-0.359,7.829L357.493,802.977z"/>
		</g>
		<g>
			<path style="fill:#D2AB67;" d="M421.637,757.087l18.436-2.374c3.65-0.473,6.391-0.669,8.224-0.597
				c1.833,0.071,3.516,0.501,5.06,1.282c1.54,0.781,2.885,1.917,4.036,3.398c1.152,1.481,1.855,3.221,2.11,5.215
				c0.28,2.16-0.047,4.216-0.977,6.171c-0.93,1.954-2.337,3.51-4.21,4.671c2.916,0.454,5.256,1.571,7.02,3.348
				c1.764,1.777,2.816,3.995,3.165,6.662c0.268,2.097,0.04,4.198-0.675,6.307c-0.722,2.106-1.848,3.865-3.385,5.265
				c-1.537,1.404-3.522,2.399-5.962,2.99c-1.531,0.37-5.262,0.958-11.193,1.767l-15.701,2.023L421.637,757.087z M431.94,763.565
				l1.375,10.664l6.105-0.787c3.628-0.467,5.878-0.809,6.743-1.03c1.572-0.392,2.754-1.102,3.547-2.135
				c0.797-1.03,1.095-2.29,0.906-3.777c-0.187-1.428-0.728-2.536-1.63-3.327c-0.902-0.79-2.141-1.179-3.718-1.167
				c-0.937,0.012-3.594,0.305-7.978,0.868L431.94,763.565z M434.304,781.909l1.59,12.335l8.619-1.114
				c3.358-0.432,5.477-0.803,6.351-1.108c1.354-0.43,2.402-1.189,3.149-2.275c0.744-1.089,1.011-2.449,0.797-4.089
				c-0.174-1.382-0.663-2.514-1.459-3.392c-0.797-0.878-1.858-1.456-3.183-1.733c-1.323-0.274-4.108-0.143-8.342,0.404
				L434.304,781.909z"/>
		</g>
		<g>
			<path style="fill:#D2AB67;" d="M472.976,796.804l-10.891-45.212l33.522-8.078l1.845,7.648l-24.398,5.878l2.415,10.023
				l22.699-5.467l1.836,7.618l-22.697,5.467l2.962,12.307l25.261-6.087l1.833,7.62L472.976,796.804z"/>
		</g>
		<g>
			<path style="fill:#D2AB67;" d="M513.922,786.411l-15.169-43.56l8.868-3.087l12.59,36.157l22.052-7.677l2.576,7.403
				L513.922,786.411z"/>
		</g>
		<g>
			<path style="fill:#D2AB67;" d="M549.803,773.591l-19.535-42.21l31.297-14.482l3.301,7.141l-22.771,10.536l4.331,9.357
				l21.19-9.805l3.289,7.11l-21.187,9.808l5.315,11.485l23.58-10.91l3.289,7.11L549.803,773.591z"/>
		</g>
		<g>
			<path style="fill:#D2AB67;" d="M564.014,715.674l14.715-8.834c3.32-1.995,6.002-3.255,8.047-3.793
				c2.754-0.716,5.489-0.694,8.215,0.065c2.723,0.756,5.287,2.147,7.686,4.173c2.399,2.026,4.721,4.904,6.964,8.641
				c1.969,3.283,3.258,6.354,3.871,9.22c0.744,3.504,0.728,6.702-0.043,9.609c-0.582,2.2-1.83,4.39-3.746,6.578
				c-1.444,1.63-3.65,3.335-6.622,5.122l-15.15,9.092L564.014,715.674z M576.112,717.584l15.854,26.412l6.015-3.606
				c2.247-1.351,3.793-2.452,4.64-3.305c1.108-1.108,1.86-2.315,2.253-3.609c0.395-1.297,0.324-3.003-0.202-5.115
				c-0.529-2.11-1.717-4.711-3.569-7.792c-1.848-3.084-3.541-5.287-5.075-6.612c-1.534-1.319-3.068-2.15-4.602-2.49
				c-1.534-0.336-3.152-0.218-4.854,0.358c-1.279,0.426-3.557,1.618-6.839,3.588L576.112,717.584z"/>
		</g>
		<g>
			<path style="fill:#D2AB67;" d="M597.71,691.546l-4.86-6.896l7.154-5.044l4.863,6.895L597.71,691.546z M625.768,731.929
				l-26.804-38.003l7.673-5.411l26.804,38.006L625.768,731.929z"/>
		</g>
		<g>
			<path style="fill:#D2AB67;" d="M648.545,715.061l-12.356-15.182l-30.211-10.135l8.538-6.948l20.101,7.362l-3.295-21.038
				l8.392-6.83l3.774,31.733l12.316,15.132L648.545,715.061z"/>
		</g>
		<g>
			<path style="fill:#D2AB67;" d="M671.425,695.915l-32.847-32.921l24.408-24.358l5.557,5.573l-17.761,17.721l7.281,7.3
				l16.529-16.492l5.536,5.548L663.6,674.774l8.94,8.962l18.393-18.349l5.536,5.545L671.425,695.915z"/>
		</g>
		<g>
			<path style="fill:#D2AB67;" d="M687.724,658.133l5.094-7.636c2.723,1.515,5.171,2.076,7.35,1.684
				c2.178-0.392,4.17-1.696,5.978-3.905c1.911-2.34,2.86-4.509,2.838-6.507c-0.022-1.998-0.694-3.541-2.02-4.621
				c-0.852-0.697-1.78-1.039-2.785-1.03c-1.008,0.013-2.243,0.458-3.7,1.344c-0.99,0.607-3.103,2.122-6.329,4.537
				c-4.154,3.109-7.574,4.873-10.268,5.293c-3.787,0.591-7.104-0.277-9.954-2.604c-1.836-1.497-3.127-3.423-3.874-5.766
				c-0.747-2.346-0.737-4.836,0.028-7.477c0.762-2.639,2.275-5.343,4.534-8.112c3.696-4.518,7.468-7.11,11.314-7.776
				c3.852-0.666,7.477,0.296,10.878,2.885l-5.623,7.53c-2.104-1.198-3.983-1.618-5.629-1.257c-1.646,0.361-3.308,1.565-4.982,3.613
				c-1.724,2.113-2.642,4.12-2.751,6.027c-0.071,1.226,0.358,2.215,1.291,2.978c0.853,0.697,1.876,0.93,3.068,0.706
				c1.521-0.286,4.142-1.861,7.869-4.714c3.725-2.857,6.727-4.764,9.005-5.732c2.278-0.965,4.58-1.295,6.911-0.99
				c2.331,0.308,4.636,1.391,6.914,3.252c2.06,1.687,3.525,3.837,4.39,6.457c0.862,2.62,0.878,5.336,0.04,8.146
				c-0.834,2.813-2.53,5.785-5.091,8.909c-3.718,4.556-7.626,7.191-11.725,7.913C696.399,661.998,692.14,660.949,687.724,658.133z"
				/>
		</g>
		<g>
			<path style="fill:#D2AB67;" d="M686.352,605.11l-6.889-4.876l5.062-7.147l6.886,4.882L686.352,605.11z M726.274,633.819
				l-37.95-26.882l5.427-7.661l37.95,26.882L726.274,633.819z"/>
		</g>
	</g>
</g>
</svg>
