<?xml version="1.0" encoding="UTF-8"?>
<svg id="Layer_1" data-name="Layer 1" xmlns="http://www.w3.org/2000/svg" viewBox="0 0 313.22 313.16">
  <defs>
    <style>
      .cls-1 {
        fill: #00a651;
      }

      .cls-1, .cls-2, .cls-3, .cls-4, .cls-5, .cls-6, .cls-7 {
        fill-rule: evenodd;
      }

      .cls-2, .cls-8 {
        fill: #fff;
      }

      .cls-3 {
        fill: #5e331a;
      }

      .cls-4, .cls-9 {
        fill: #ed1c24;
      }

      .cls-5, .cls-10 {
        fill: #d2ab67;
      }

      .cls-6 {
        fill: #7d4800;
      }

      .cls-7 {
        fill: #00aeef;
      }
    </style>
  </defs>
  <g>
    <path class="cls-8" d="M156.58,1.97C71.33,1.97,1.97,71.3,1.97,156.52s69.36,154.68,154.61,154.68,154.68-69.39,154.68-154.68c0-85.22-69.39-154.55-154.68-154.55h0Z"/>
    <path class="cls-10" d="M156.58,313.16C70.24,313.16,0,242.89,0,156.52S70.24,0,156.58,0s156.64,70.21,156.64,156.52-70.27,156.65-156.64,156.65h0ZM156.58,1.97C71.33,1.97,1.97,71.3,1.97,156.52s69.36,154.68,154.61,154.68,154.68-69.39,154.68-154.68c0-85.22-69.39-154.55-154.68-154.55h0Z"/>
  </g>
  <path class="cls-5" d="M154.68,102.6c-47.82-13.72-103.14,14.67-104.66,72.59.19,63.57,54.05,94.05,101.93,79.7,1.14.57,2.92.83,4.64.89,1.71-.06,3.49-.32,4.63-.89,47.95,14.35,101.87-16.14,102.06-79.7-1.53-57.8-56.59-86.18-104.41-72.66l-1.97-5.59c-.5-1.4-.95-2.73-1.46-4.13,1.71-1.59,4.06-2.41,5.78-3.94,24.89,6.41,52.97,2.22,73.8-20.45,1.4-2.16.76-3.11-1.33-3.24-16.39,1.9-28.83-6.79-47.51-.32-11.75,4.51-21.59,12.7-26.23,21.59-1.59,1.52-2.98,2.41-4.51,3.94-9.53-15.43-19.25-30.35-30.61-35.44-.51,4.26-1.02,8.51-1.52,12.77,14.48,8.26,25.27,19.88,31.37,34.87Z"/>
  <path class="cls-1" d="M165.72,82.4c-1.59,2.16-2.67,4.19,1.27,5.27,22.48,6.1,44.33-2.41,59.57-13.72,4.13-3.56,5.02-6.29.38-6.1-17.4-1.08-36.2-12.7-61.22,14.54Z"/>
  <path class="cls-7" d="M104.44,129.65l17.27-3.87c-3.43-.89-6.92-1.78-10.41-2.67-2.03,1.33-4.32,3.49-6.86,6.54Z"/>
  <path class="cls-7" d="M114.73,120.63l17.27,5.85,32.45-11.5c19.81,13.72,39.63,27.56,59.38,41.34-18.1-47.32-68.59-65.61-109.11-35.69Z"/>
  <path class="cls-9" d="M97.23,221.29c-10.1-14.54-13.78-30.8-13.46-45.53.25-10.73,4.13-25.66,13.46-39.18,9.91-14.42,25.97-27.25,50.3-31.88-15.81-5.72-34.06-4.31-50.32,3.38-24.32,11.5-44.05,36.51-44.43,67.88-.38,30.93,17.02,60.71,44.46,73.61,13.59,6.41,29.59,8.7,47,4.96-22.55-7.75-37.53-19.75-47-33.22ZM97.23,242.38c-46.11-27.69-47.44-101.68,0-127.59,7.75-4.19,16.7-7.18,27.05-8.44-10.6,3.17-19.56,7.62-28.67,13.51-41.6,30.04-34.71,89.3,1.62,117.95,9.59,7.56,21.34,13.02,34.99,15.11-13.65-.89-25.28-4.7-34.99-10.54Z"/>
  <path class="cls-4" d="M165.98,104.57c41.47,7.88,58.81,39.44,62.87,61.98h16.07c-3.56-25.91-21.02-50.11-55.57-60.33,37.28,4.63,57.47,31.05,61.35,60.33h9.46c-6.48-46.87-56.91-75.38-94.18-61.98h0ZM159.31,188.27h85.42c-4.64,30.68-27.5,59-63.38,64.52,45.34-2.92,69.1-38.1,70.05-73.35h-94.56v-5.21h103.9v.06h.06c0,.51.07,1.02.07,1.53.57,46.23-38.74,89.86-91.58,78.56,38.04-13.08,54.62-38.04,59.19-62.17h-64.65l-4.51-3.94Z"/>
  <polygon class="cls-3" points="166.55 194.69 198.24 194.69 198.24 198.24 170.36 198.24 166.55 194.69"/>
  <polygon class="cls-2" points="197.48 200.72 180.97 200.72 197.48 214.88 197.48 200.72"/>
  <polygon class="cls-2" points="177.92 200.72 172.97 200.72 178.75 205.74 181.67 205.68 196.46 217.87 197.23 216.85 177.92 200.72"/>
  <path class="cls-2" d="M200.02,194.69h26.55c-3.75,17.59-13.59,30.73-26.55,41.98v-11.37h5.34l-5.34-4.26v-26.35Z"/>
  <path class="cls-6" d="M103.23,132l20.89-5.14,7.5,2.03,32.58-11.94,59.19,41.79,3.17,10.16h34.23v4h-105.55v6.54h-43.06v19.68h1.59v18.04l-9.97,8.19h9.33v10.92c-18.41-16.26-27.88-36.83-27.43-61.03.57-15.75,7.94-33.15,17.53-43.25Z"/>
  <polygon class="cls-3" points="114.6 182.17 155.18 182.17 155.18 184.65 140 196.59 114.6 196.59 114.6 182.17"/>
  <polygon class="cls-2" points="116.19 199.39 136.64 199.39 116.19 215.58 116.19 199.39"/>
  <polygon class="cls-2" points="155.18 188.08 169.6 200.59 140 200.59 155.18 188.08"/>
  <polygon class="cls-2" points="139.37 223.77 109.97 223.77 139.37 200.91 139.37 223.77"/>
  <polygon class="cls-2" points="170.93 223.77 198.11 223.77 170.93 202.24 170.93 223.77"/>
  <path class="cls-5" d="M151.69,194.81c.95,0,1.72.76,1.72,1.72s-.76,1.72-1.72,1.72c-.89,0-1.65-.76-1.65-1.72s.76-1.72,1.65-1.72Z"/>
  <path class="cls-5" d="M158.23,194.81c.95,0,1.71.76,1.71,1.72s-.76,1.72-1.71,1.72c-.89,0-1.72-.76-1.72-1.72s.83-1.72,1.72-1.72Z"/>
  <path class="cls-10" d="M132.67,213.46h-3.31v-3.31h3.31v3.31h0ZM129.56,213.26h2.92v-2.91h-2.92v2.91h0Z"/>
  <path class="cls-10" d="M132.67,216.57h-3.31v-3.31h3.31v3.31h0ZM129.56,216.37h2.92v-2.92h-2.92v2.92h0Z"/>
  <path class="cls-10" d="M132.67,219.74h-3.31v-3.37h3.31v3.37h0ZM129.56,219.55h2.92v-2.98h-2.92v2.98h0Z"/>
  <path class="cls-10" d="M135.78,213.46h-3.3v-3.31h3.3v3.31h0ZM132.67,213.26h2.91v-2.91h-2.91v2.91h0Z"/>
  <path class="cls-10" d="M135.78,216.57h-3.3v-3.31h3.3v3.31h0ZM132.67,216.37h2.91v-2.92h-2.91v2.92h0Z"/>
  <path class="cls-10" d="M135.78,219.74h-3.3v-3.37h3.3v3.37h0ZM132.67,219.55h2.91v-2.98h-2.91v2.98h0Z"/>
  <path class="cls-2" d="M114.73,224.98h24.64v26.1c-8.19-2.66-16.45-7.11-24.64-13.33v-12.77Z"/>
  <g>
    <path class="cls-10" d="M126.83,233.4h-3.75v-3.75h3.75v3.75h0ZM123.27,233.2h3.36v-3.36h-3.36v3.36h0Z"/>
    <path class="cls-10" d="M136.8,233.4h-3.75v-3.75h3.75v3.75h0ZM133.24,233.2h3.36v-3.36h-3.36v3.36h0Z"/>
    <path class="cls-10" d="M126.83,236.95h-3.75v-3.75h3.75v3.75h0ZM123.27,236.76h3.36v-3.36h-3.36v3.36h0Z"/>
    <path class="cls-10" d="M136.8,236.95h-3.75v-3.75h3.75v3.75h0ZM133.24,236.76h3.36v-3.36h-3.36v3.36h0Z"/>
    <path class="cls-10" d="M126.83,240.51h-3.75v-3.75h3.75v3.75h0ZM123.27,240.31h3.36v-3.36h-3.36v3.36h0Z"/>
    <path class="cls-10" d="M136.8,240.51h-3.75v-3.75h3.75v3.75h0ZM133.24,240.31h3.36v-3.36h-3.36v3.36h0Z"/>
    <path class="cls-10" d="M123.27,233.4h-3.75v-3.75h3.75v3.75h0ZM119.72,233.2h3.36v-3.36h-3.36v3.36h0Z"/>
    <path class="cls-10" d="M133.24,233.4h-3.75v-3.75h3.75v3.75h0ZM129.69,233.2h3.36v-3.36h-3.36v3.36h0Z"/>
    <path class="cls-10" d="M123.27,236.95h-3.75v-3.75h3.75v3.75h0ZM119.72,236.76h3.36v-3.36h-3.36v3.36h0Z"/>
    <path class="cls-10" d="M133.24,236.95h-3.75v-3.75h3.75v3.75h0ZM129.69,236.76h3.36v-3.36h-3.36v3.36h0Z"/>
    <path class="cls-10" d="M123.27,240.51h-3.75v-3.75h3.75v3.75h0ZM119.72,240.31h3.36v-3.36h-3.36v3.36h0Z"/>
    <path class="cls-10" d="M133.24,240.51h-3.75v-3.75h3.75v3.75h0ZM129.69,240.31h3.36v-3.36h-3.36v3.36h0Z"/>
  </g>
  <path class="cls-2" d="M170.93,224.79h27.37v13.08c-7.62,5.84-17.02,10.29-27.37,14.1v-27.19h0Z"/>
  <g>
    <path class="cls-10" d="M181.32,233.4h-3.75v-3.75h3.75v3.75h0ZM177.76,233.2h3.36v-3.36h-3.36v3.36h0Z"/>
    <path class="cls-10" d="M191.23,233.4h-3.75v-3.75h3.75v3.75h0ZM187.67,233.2h3.36v-3.36h-3.36v3.36h0Z"/>
    <path class="cls-10" d="M181.32,236.95h-3.75v-3.75h3.75v3.75h0ZM177.76,236.76h3.36v-3.36h-3.36v3.36h0Z"/>
    <path class="cls-10" d="M191.23,236.95h-3.75v-3.75h3.75v3.75h0ZM187.67,236.76h3.36v-3.36h-3.36v3.36h0Z"/>
    <path class="cls-10" d="M181.32,240.51h-3.75v-3.75h3.75v3.75h0ZM177.76,240.31h3.36v-3.36h-3.36v3.36h0Z"/>
    <path class="cls-10" d="M191.23,240.51h-3.75v-3.75h3.75v3.75h0ZM187.67,240.31h3.36v-3.36h-3.36v3.36h0Z"/>
    <path class="cls-10" d="M177.76,233.4h-3.82v-3.75h3.82v3.75h0ZM174.14,233.2h3.42v-3.36h-3.42v3.36h0Z"/>
    <path class="cls-10" d="M187.67,233.4h-3.75v-3.75h3.75v3.75h0ZM184.11,233.2h3.36v-3.36h-3.36v3.36h0Z"/>
    <path class="cls-10" d="M177.76,236.95h-3.82v-3.75h3.82v3.75h0ZM174.14,236.76h3.42v-3.36h-3.42v3.36h0Z"/>
    <path class="cls-10" d="M187.67,236.95h-3.75v-3.75h3.75v3.75h0ZM184.11,236.76h3.36v-3.36h-3.36v3.36h0Z"/>
    <path class="cls-10" d="M177.76,240.51h-3.82v-3.75h3.82v3.75h0ZM174.14,240.31h3.42v-3.36h-3.42v3.36h0Z"/>
    <path class="cls-10" d="M187.67,240.51h-3.75v-3.75h3.75v3.75h0ZM184.11,240.31h3.36v-3.36h-3.36v3.36h0Z"/>
  </g>
  <path class="cls-10" d="M176.43,213.46h-3.37v-3.31h3.37v3.31h0ZM173.25,213.26h2.98v-2.91h-2.98v2.91h0Z"/>
  <path class="cls-10" d="M176.43,216.57h-3.37v-3.31h3.37v3.31h0ZM173.25,216.37h2.98v-2.92h-2.98v2.92h0Z"/>
  <path class="cls-10" d="M176.43,219.74h-3.37v-3.37h3.37v3.37h0ZM173.25,219.55h2.98v-2.98h-2.98v2.98h0Z"/>
  <path class="cls-10" d="M179.54,213.46h-3.31v-3.31h3.31v3.31h0ZM176.43,213.26h2.91v-2.91h-2.91v2.91h0Z"/>
  <path class="cls-10" d="M179.54,216.57h-3.31v-3.31h3.31v3.31h0ZM176.43,216.37h2.91v-2.92h-2.91v2.92h0Z"/>
  <path class="cls-10" d="M179.54,219.74h-3.31v-3.37h3.31v3.37h0ZM176.43,219.55h2.91v-2.98h-2.91v2.98h0Z"/>
  <rect class="cls-8" x="140.89" y="202.11" width="28.45" height="18.67"/>
  <rect class="cls-8" x="140.89" y="221.68" width="28.45" height="4.19"/>
  <path class="cls-2" d="M140.89,231.08c3.37-2.16,7.56-3.24,11.81-4.19h-11.81v4.19Z"/>
  <path class="cls-2" d="M169.35,231.08c-3.49-2.16-7.62-3.24-11.88-4.19h11.88v4.19Z"/>
  <path class="cls-10" d="M147.74,210.74h-3.03v-4.04h3.03v4.04h0ZM144.95,210.51h2.56v-3.58h-2.56v3.58h0Z"/>
  <path class="cls-10" d="M160.38,210.74h-3.03v-4.04h3.03v4.04h0ZM157.59,210.51h2.56v-3.58h-2.56v3.58h0Z"/>
  <path class="cls-10" d="M147.74,214.56h-3.03v-4.05h3.03v4.05h0ZM144.95,214.32h2.56v-3.58h-2.56v3.58h0Z"/>
  <path class="cls-10" d="M160.38,214.56h-3.03v-4.05h3.03v4.05h0ZM157.59,214.32h2.56v-3.58h-2.56v3.58h0Z"/>
  <path class="cls-10" d="M147.74,218.36h-3.03v-4.04h3.03v4.04h0ZM144.95,218.13h2.56v-3.57h-2.56v3.57h0Z"/>
  <path class="cls-10" d="M160.38,218.36h-3.03v-4.04h3.03v4.04h0ZM157.59,218.13h2.56v-3.57h-2.56v3.57h0Z"/>
  <path class="cls-10" d="M150.6,210.74h-3.09v-4.04h3.09v4.04h0ZM147.74,210.51h2.62v-3.58h-2.62v3.58h0Z"/>
  <path class="cls-10" d="M163.17,210.74h-3.02v-4.04h3.02v4.04h0ZM160.38,210.51h2.56v-3.58h-2.56v3.58h0Z"/>
  <path class="cls-10" d="M150.6,214.56h-3.09v-4.05h3.09v4.05h0ZM147.74,214.32h2.62v-3.58h-2.62v3.58h0Z"/>
  <path class="cls-10" d="M163.17,214.56h-3.02v-4.05h3.02v4.05h0ZM160.38,214.32h2.56v-3.58h-2.56v3.58h0Z"/>
  <path class="cls-10" d="M150.6,218.36h-3.09v-4.04h3.09v4.04h0ZM147.74,218.13h2.62v-3.57h-2.62v3.57h0Z"/>
  <path class="cls-10" d="M163.17,218.36h-3.02v-4.04h3.02v4.04h0ZM160.38,218.13h2.56v-3.57h-2.56v3.57h0Z"/>
  <path class="cls-10" d="M153.39,210.74h-3.03v-4.04h3.03v4.04h0ZM150.6,210.51h2.56v-3.58h-2.56v3.58h0Z"/>
  <path class="cls-10" d="M166.03,210.74h-3.09v-4.04h3.09v4.04h0ZM163.17,210.51h2.62v-3.58h-2.62v3.58h0Z"/>
  <path class="cls-10" d="M153.39,214.56h-3.03v-4.05h3.03v4.05h0ZM150.6,214.32h2.56v-3.58h-2.56v3.58h0Z"/>
  <path class="cls-10" d="M166.03,214.56h-3.09v-4.05h3.09v4.05h0ZM163.17,214.32h2.62v-3.58h-2.62v3.58h0Z"/>
  <path class="cls-10" d="M153.39,218.36h-3.03v-4.04h3.03v4.04h0ZM150.6,218.13h2.56v-3.57h-2.56v3.57h0Z"/>
  <path class="cls-10" d="M166.03,218.36h-3.09v-4.04h3.09v4.04h0ZM163.17,218.13h2.62v-3.57h-2.62v3.57h0Z"/>
  <path class="cls-3" d="M140.89,236.98c1.01-2.42,4.38-4.06,8.51-4.83v21.34c-2.86-.5-5.65-1.21-8.51-2.22v-14.29h0ZM151.12,231.9c2.98-.44,6.22-.38,9.21.07v21.78c-3.11.38-6.16.32-9.21-.06v-21.79h0ZM161.98,232.28c3.62.82,6.54,2.35,7.5,4.7v14.73c-2.48.82-4.96,1.46-7.5,1.84v-21.27Z"/>
  <g>
    <path class="cls-10" d="M46.76,240.26l2.19-1.66,4.3,5.66-5.18,3.94c-.95-.15-2.02-.59-3.22-1.32-1.2-.74-2.2-1.64-3.02-2.71-1.03-1.36-1.65-2.76-1.85-4.21-.2-1.44.04-2.83.72-4.14.67-1.32,1.64-2.45,2.88-3.39,1.35-1.03,2.77-1.66,4.26-1.89,1.48-.23,2.92-.02,4.31.65,1.06.51,2.07,1.38,3.01,2.62,1.23,1.61,1.85,3.13,1.86,4.55.01,1.42-.48,2.72-1.48,3.88l-2.47-2.24c.5-.67.74-1.4.73-2.18s-.31-1.56-.89-2.31c-.87-1.15-1.93-1.78-3.17-1.91-1.24-.12-2.58.36-4.01,1.44-1.54,1.17-2.44,2.39-2.69,3.67-.25,1.27.05,2.46.89,3.58.42.55.94,1.02,1.58,1.41s1.26.66,1.87.83l1.65-1.25-2.28-3.01Z"/>
    <path class="cls-10" d="M59.56,239.92l2.27,2.39-6.4,6.1c-1.02.97-1.65,1.63-1.89,1.97-.39.56-.54,1.18-.47,1.84.07.66.43,1.33,1.06,1.99.65.68,1.27,1.06,1.88,1.14.6.08,1.14-.04,1.61-.35.47-.32,1.17-.92,2.11-1.81l6.54-6.23,2.27,2.39-6.21,5.92c-1.42,1.35-2.48,2.24-3.19,2.67-.71.43-1.43.66-2.16.7-.73.04-1.5-.12-2.29-.47-.79-.35-1.63-1-2.53-1.93-1.08-1.13-1.76-2.11-2.06-2.94-.3-.83-.4-1.61-.3-2.35.09-.74.32-1.38.67-1.92.53-.8,1.45-1.83,2.78-3.09l6.3-6.01ZM62.17,241.31l1.94-1.85,1.85,1.94-1.94,1.85-1.85-1.94ZM65.48,244.78l1.94-1.85,1.86,1.95-1.94,1.85-1.86-1.95Z"/>
    <path class="cls-10" d="M58.62,262.5l10.43-12.56,3.8,3.15-4.83,10.46,9.37-6.7,3.8,3.16-10.43,12.56-2.36-1.96,8.21-9.89-10.7,7.82-2.44-2.03,5.72-11.95-8.21,9.89-2.36-1.96Z"/>
    <path class="cls-10" d="M81.7,260.29l2.77,1.8-4.82,7.42c-.76,1.18-1.23,1.96-1.38,2.35-.25.64-.26,1.27-.03,1.9.22.63.72,1.19,1.5,1.7.78.51,1.48.73,2.09.67.61-.06,1.1-.3,1.49-.71.38-.41.93-1.16,1.63-2.25l4.92-7.57,2.76,1.8-4.67,7.19c-1.07,1.64-1.9,2.76-2.49,3.34-.59.58-1.24.97-1.94,1.18-.71.21-1.48.23-2.34.07-.85-.16-1.82-.59-2.9-1.3-1.31-.85-2.2-1.65-2.68-2.39-.48-.74-.76-1.48-.84-2.22-.08-.74,0-1.41.21-2.02.33-.9.99-2.12,1.99-3.65l4.74-7.3ZM84.56,261.04l1.46-2.25,2.25,1.46-1.46,2.25-2.25-1.46ZM88.57,263.65l1.46-2.25,2.26,1.47-1.46,2.25-2.26-1.47Z"/>
    <path class="cls-10" d="M86.52,287.68l.6-1.17c.64.42,1.25.78,1.82,1.07.59.3,1.08.42,1.47.35.3-.05.51-.2.64-.45.11-.23.11-.47,0-.74-.12-.27-.4-.52-.83-.74-.42-.22-.89-.37-1.4-.47l.76-.85c.61.09,1.21.28,1.8.58.83.42,1.36.93,1.61,1.51.24.58.23,1.14-.03,1.66-.3.58-.78.93-1.44,1.05-.9.17-1.94-.05-3.14-.67-.85-.44-1.47-.82-1.85-1.15ZM87.64,277.25l3,1.18c-.32,1.05-.33,1.93-.03,2.65.3.72.89,1.31,1.78,1.76.95.48,1.76.65,2.44.49.68-.16,1.16-.5,1.44-1.04.18-.34.22-.69.15-1.03-.08-.34-.32-.73-.73-1.17-.28-.29-.96-.91-2.03-1.84-1.37-1.19-2.23-2.24-2.58-3.13-.48-1.26-.43-2.46.16-3.61.38-.74.94-1.33,1.69-1.76.75-.43,1.61-.61,2.57-.54.96.07,2,.39,3.12.96,1.82.93,2.99,2.04,3.51,3.31.51,1.27.45,2.59-.19,3.95l-3-1.37c.26-.81.26-1.49.02-2.02s-.78-1.02-1.61-1.44c-.85-.44-1.61-.6-2.27-.5-.43.07-.73.29-.93.66-.18.34-.18.71-.02,1.11.21.5.94,1.28,2.2,2.35,1.26,1.07,2.13,1.96,2.63,2.67.5.71.78,1.48.85,2.3.07.82-.13,1.69-.6,2.61-.43.83-1.06,1.5-1.89,1.98-.83.49-1.76.7-2.79.62-1.03-.08-2.17-.44-3.43-1.09-1.84-.94-3.03-2.09-3.58-3.44-.55-1.35-.51-2.89.13-4.62Z"/>
    <path class="cls-10" d="M98.76,288.8l5.89-15.23,3.08,1.19-2.32,6,6.03,2.33,2.32-5.99,3.08,1.19-5.89,15.23-3.07-1.19,2.57-6.66-6.03-2.33-2.57,6.66-3.07-1.19Z"/>
    <path class="cls-10" d="M127.61,298.08l-3.47-.92-.43-3.95-6.31-1.67-2.25,3.24-3.38-.9,10.33-14.15,3.37.89,2.13,17.46ZM123.4,290.28l-.62-6.43-3.69,5.29,4.31,1.14Z"/>
    <path class="cls-10" d="M128.57,298.19l2.44-16.15,3.17.48,4.98,11.78,1.63-10.78,3.03.46-2.44,16.15-3.27-.5-4.92-11.51-1.59,10.53-3.03-.46Z"/>
    <path class="cls-10" d="M143.96,300.35l.75-16.31,12.09.56-.13,2.76-8.8-.41-.17,3.62,8.19.38-.13,2.75-8.19-.38-.2,4.44,9.11.42-.13,2.75-12.4-.57Z"/>
    <path class="cls-10" d="M166.48,284.24l6.47-.83c1.28-.17,2.24-.23,2.89-.21.64.02,1.23.18,1.78.45.54.27,1.01.67,1.42,1.19.4.52.65,1.13.74,1.83.1.76-.02,1.48-.34,2.17-.33.69-.82,1.23-1.48,1.64,1.02.16,1.85.55,2.46,1.18.62.62.99,1.4,1.11,2.34.09.74.01,1.47-.24,2.21-.25.74-.65,1.36-1.19,1.85-.54.49-1.24.84-2.09,1.05-.54.13-1.85.34-3.93.62l-5.51.71-2.09-16.19ZM170.1,286.51l.48,3.74,2.14-.28c1.27-.16,2.06-.28,2.37-.36.55-.14.97-.39,1.25-.75.28-.36.38-.8.32-1.33-.07-.5-.26-.89-.57-1.17-.32-.28-.75-.41-1.31-.41-.33,0-1.26.11-2.8.3l-1.88.24ZM170.93,292.95l.56,4.33,3.03-.39c1.18-.15,1.92-.28,2.23-.39.48-.15.84-.42,1.11-.8.26-.38.35-.86.28-1.44-.06-.49-.23-.88-.51-1.19-.28-.31-.65-.51-1.12-.61-.46-.1-1.44-.05-2.93.14l-2.64.34Z"/>
    <path class="cls-10" d="M184.51,298.18l-3.82-15.87,11.77-2.84.65,2.69-8.57,2.06.85,3.52,7.97-1.92.64,2.67-7.97,1.92,1.04,4.32,8.87-2.14.64,2.68-12.07,2.91Z"/>
    <path class="cls-10" d="M198.88,294.53l-5.33-15.29,3.11-1.08,4.42,12.69,7.74-2.7.9,2.6-10.85,3.78Z"/>
    <path class="cls-10" d="M211.48,290.03l-6.86-14.82,10.99-5.08,1.16,2.51-7.99,3.7,1.52,3.29,7.44-3.44,1.15,2.5-7.44,3.44,1.87,4.03,8.28-3.83,1.15,2.5-11.27,5.22Z"/>
    <path class="cls-10" d="M216.47,269.7l5.17-3.1c1.17-.7,2.11-1.14,2.83-1.33.97-.25,1.93-.24,2.88.02.96.27,1.86.75,2.7,1.47s1.66,1.72,2.44,3.03c.69,1.15,1.14,2.23,1.36,3.24.26,1.23.26,2.35-.02,3.37-.2.77-.64,1.54-1.32,2.31-.51.57-1.28,1.17-2.32,1.8l-5.32,3.19-8.4-14ZM220.71,270.37l5.57,9.27,2.11-1.27c.79-.47,1.33-.86,1.63-1.16.39-.39.65-.81.79-1.27.14-.46.11-1.05-.07-1.8-.19-.74-.6-1.65-1.25-2.74-.65-1.08-1.24-1.86-1.78-2.32-.54-.46-1.08-.75-1.62-.87-.54-.12-1.11-.08-1.7.13-.45.15-1.25.57-2.4,1.26l-1.27.76Z"/>
    <path class="cls-10" d="M228.3,261.23l-1.71-2.42,2.51-1.77,1.71,2.42-2.51,1.77ZM238.15,275.4l-9.41-13.34,2.69-1.9,9.41,13.34-2.69,1.9Z"/>
    <path class="cls-10" d="M246.14,269.48l-4.34-5.33-10.61-3.56,3-2.44,7.06,2.58-1.16-7.39,2.95-2.4,1.32,11.14,4.32,5.31-2.55,2.07Z"/>
    <path class="cls-10" d="M254.18,262.76l-11.53-11.56,8.57-8.55,1.95,1.96-6.24,6.22,2.56,2.56,5.8-5.79,1.94,1.95-5.8,5.79,3.14,3.15,6.46-6.44,1.94,1.95-8.79,8.77Z"/>
    <path class="cls-10" d="M259.9,249.49l1.79-2.68c.96.53,1.82.73,2.58.59.76-.14,1.46-.6,2.1-1.37.67-.82,1-1.58,1-2.28,0-.7-.24-1.24-.71-1.62-.3-.24-.62-.36-.98-.36-.35,0-.79.16-1.3.47-.35.21-1.09.74-2.22,1.59-1.46,1.09-2.66,1.71-3.6,1.86-1.33.21-2.49-.1-3.49-.91-.64-.53-1.1-1.2-1.36-2.02-.26-.82-.26-1.7,0-2.63.27-.93.8-1.88,1.59-2.85,1.3-1.59,2.62-2.5,3.97-2.73,1.35-.23,2.63.1,3.82,1.01l-1.97,2.64c-.74-.42-1.4-.57-1.98-.44-.58.13-1.16.55-1.75,1.27-.61.74-.93,1.45-.97,2.12-.02.43.13.78.45,1.05.3.24.66.33,1.08.25.53-.1,1.45-.65,2.76-1.65,1.31-1,2.36-1.67,3.16-2.01.8-.34,1.61-.45,2.43-.35.82.11,1.63.49,2.43,1.14.72.59,1.24,1.35,1.54,2.27.3.92.31,1.87.01,2.86-.29.99-.89,2.03-1.79,3.13-1.31,1.6-2.68,2.52-4.12,2.78-1.44.25-2.93-.12-4.48-1.1Z"/>
    <path class="cls-10" d="M259.42,230.88l-2.42-1.71,1.78-2.51,2.42,1.71-1.78,2.51ZM273.43,240.96l-13.32-9.44,1.91-2.69,13.32,9.44-1.91,2.69Z"/>
  </g>
</svg>