<?xml version="1.0" encoding="UTF-8"?>
<svg id="Layer_2" data-name="Layer 2" xmlns="http://www.w3.org/2000/svg" viewBox="0 0 324.58 211.59">
  <defs>
    <style>
      .cls-1 {
        fill: #1c9ad6;
      }
    </style>
  </defs>
  <g id="Layer_1-2" data-name="Layer 1">
    <g>
      <path class="cls-1" d="M232.91,3.59c1.17-1.16,2.15-2.5,3.4-3.59.25,2.13-.07,4.27-.21,6.4,1.5.82,3.08,1.5,4.51,2.44-1.82,1.1-3.76,2.02-5.55,3.16-.93,1.84-1.31,3.93-1.97,5.88-1.33-1.16-2.06-2.78-2.98-4.25-2.25.33-4.38,1.2-6.65,1.42,1.16-1.88,2.83-3.34,4.14-5.1.35-.5.79-1.06.58-1.7-.3-1.63-.84-3.21-.97-4.87,1.41.29,2.8.66,4.22.92.61.2,1.06-.37,1.48-.71Z"/>
      <path class="cls-1" d="M216.62,5.1c1.01-.51,2.34-.25,3.05.64.69.82.16,2.28-.91,2.45-3.71.94-6.52,3.73-9.24,6.26-2.28,2.06-4.03,4.89-4.2,8.01-.05,1.77,1.37,3.35,3.16,3.38,5.72.09,11.5-1.81,15.95-5.42-1.48,2.22-3.96,3.39-6.18,4.73-2.6,1.42-5.18,3.14-8.19,3.49-1.64.21-3.42.2-4.9-.63-2.21-1.45-3.35-4.24-2.92-6.84.29-2.93,2.12-5.34,3.82-7.62,1.72-2.25,4.07-3.89,6.28-5.62,1.38-1.01,2.74-2.08,4.29-2.82Z"/>
      <path class="cls-1" d="M261.85,8.65c2.31-1.74,5-3.24,7.96-3.3,2.03-.04,4.08.8,5.39,2.38,1.73,2.02,2.58,4.61,3.2,7.15,1.25,5.33,1.34,10.82,1.96,16.23,1.69,12.22,4.01,24.36,7.2,36.28.1.47.35.88.64,1.26.15-3.85-2.42-7.18-2.41-11.01-.06-1.82.4-3.68,1.5-5.15.96-1.3,2.05-2.5,2.83-3.92,1.75,3.51,2.85,7.43,2.52,11.38-.21,3.08-1.28,6.06-2.81,8.73,1.18.17,2.37.38,3.55.6,3.37-2.76,7.8-4.11,12.14-3.71-1.46,2.12-3.25,4.01-5.32,5.54,5.59,1.89,10.67,5.35,14.28,10.03,4.87,6.28,7.69,13.84,10.1,21.33-5.2-1.02-10.45-1.92-15.45-3.71-3.79-1.35-7.35-3.42-10.2-6.29-3.02-2.91-5.22-6.53-7.18-10.2,1.58,5.51,2.72,11.35,1.57,17.06-1.49,7.72-6.29,14.16-10.47,20.63-2.71-4.98-5.1-10.17-6.74-15.61-1.61-5.35-2.2-11.12-.96-16.61.73-3.4,2.11-6.63,3.8-9.67-3.86.65-7.9.12-11.48-1.44,4.01-3.15,9.38-4.3,14.34-3.15.54-.75,1.07-1.49,1.61-2.24-4.06-1.79-7.69-4.75-9.82-8.69-1.46-2.62-2.22-5.57-2.58-8.54,2.11,1.18,4.7,1.36,6.61,2.92,1.94,1.53,3.01,3.88,3.58,6.23.67,2.55,1.1,5.36,2.97,7.36-.04-.53-.13-1.05-.29-1.55-4.65-13.99-7.69-28.46-10.37-42.94-.81-4.38-1.16-9.24-4.28-12.72-8.34,7.31-13.9,17.14-18.73,26.97-3.17,6.48-6.08,13.07-9.09,19.62-3.16,6.86-6.38,13.69-9.47,20.58-2.59,5.52-4.61,11.31-7.58,16.66-1.54,2.64-3.36,5.33-6.1,6.85-2.72,1.53-6.34,1.04-8.63-1.05-2.25-2.04-3.38-4.99-4.16-7.86-1.92-7.39-1.65-15.08-2.53-22.61-1.18-10.6-2.43-21.28-5.73-31.47-8.95,5.45-15.52,13.87-21.5,22.29-4.24,6.04-8.25,12.23-12.4,18.33-3.54,5.19-7.07,10.39-10.49,15.65-3.31,5.04-5.94,10.62-10.2,14.98-1.69,1.63-3.75,3.22-6.2,3.27-3.29.07-6.36-1.83-8.24-4.45-2.83-3.9-4.04-8.66-5.17-13.27-1.05-4.48-2.34-8.89-3.39-13.36-1.44-5.91-3.17-12.07-7.34-16.7-10.62,11.2-20.24,23.31-29.8,35.42-15.21,19.31-30.22,38.94-47.92,56.08-4.88,4.59-10.37,8.76-16.77,10.95-5.71,1.99-11.97,2.03-17.82.6l.19-.69c5.55.91,11.37.32,16.52-1.97,4.63-2.03,8.69-5.18,12.23-8.76,4.74-4.66,8.73-10,12.88-15.18,16.3-20.4,31.04-41.96,46.46-63.02,3.4-4.87,6.53-9.93,10.32-14.52,2.43-2.94,5.09-5.78,8.33-7.83,2.42-1.53,5.39-2.49,8.26-1.86,3.05.63,5.55,2.74,7.4,5.16,2.89,3.79,4.63,8.3,6.2,12.76,3.07,8.19,3.74,17.19,7.89,24.98,7.18-11.4,14.33-22.83,21.95-33.94,6.44-9.46,13.38-18.58,20.81-27.29,3.24-3.68,6.85-7.25,11.37-9.3,4.07-1.88,9.04-1.83,12.98.37,3.45,1.9,5.55,5.49,6.72,9.15,2.08,6.58,2.15,13.55,3.01,20.35,1.14,9.08,1.78,18.22,3.33,27.25,5.73-11.51,10.91-23.29,16.56-34.85,5.54-11.32,11.53-22.48,18.94-32.71,2.73-3.78,5.78-7.39,9.49-10.25Z"/>
      <path class="cls-1" d="M175.85,8.21c1-.82,2.2-1.45,3.53-1.41,7.22-.2,14.46.18,21.63,1.07,1.45.24,3.33,0,4.35,1.29-.1,1.09-1.52,1.18-2.36,1.18-3.02-.17-6.04-.51-9.06-.57-.73-.06-1.32.39-1.77.9-3.24,3.46-5.59,7.62-7.98,11.67-.56.99-1.1,2.12-.88,3.29.11.43.46.94.95.92,2.15-.36,3.99-1.58,5.76-2.77-1.76,2.08-3.34,4.51-5.86,5.76-1.24.68-3.08.2-3.67-1.13-.61-1.97-.5-4.17.52-5.98,2.1-4.01,4.9-7.61,7.17-11.52.27-.47.32-1.02.42-1.55-2.75.05-5.51.05-8.26.19-1.11.02-2.13.48-3.2.68-.81-.04-1.61-.45-2.12-1.07-.01-.48.54-.67.82-.97Z"/>
      <path class="cls-1" d="M296.49,57.22c1.91-3.32,5.93-4.38,9.47-4.92-.03,2.58-1.11,5.09-2.98,6.88-3.02,3.02-7.11,4.73-9.97,7.94,1.34-3.23,1.73-6.82,3.48-9.89Z"/>
      <path class="cls-1" d="M304.05,60.56c1.7-.98,3.74-.47,5.51.03-.56.91-1.24,1.8-2.23,2.26-2.35,1.15-5.09.83-7.51,1.76,1.46-1.3,2.55-3.02,4.24-4.05Z"/>
      <path class="cls-1" d="M259.82,65.81c3.07-1.38,6.65-2.63,9.96-1.34,3.47,1.48,5.89,4.54,8.99,6.6-4.51-1.19-9.29-.11-13.77-1.43-2.12-.59-3.96-2-5.17-3.83Z"/>
      <path class="cls-1" d="M307.32,66.4c2.34-1.14,5.03-1.05,7.55-.73-.97,2.07-2.46,4-4.56,5.01-2.41,1.18-5.19,1.13-7.8.87,1.07-2.12,2.62-4.12,4.81-5.14Z"/>
      <path class="cls-1" d="M261.28,74.77c1.15-1.38,2.52-2.84,4.4-3.06,2.07-.18,4.01.73,6.02,1.03-2.26.54-4.18,1.93-6.42,2.51-1.35.37-2.75.09-4-.48Z"/>
      <path class="cls-1" d="M259.71,81.88c1.94-1.7,4.21-3.24,6.84-3.52,2.36-.3,4.68.55,6.73,1.64-2.03,1.69-4.36,3.24-7.04,3.56-2.3.32-4.59-.5-6.53-1.68Z"/>
      <path class="cls-1" d="M298.03,97.89c4.46,2.27,8.83,5.17,11.56,9.47,2.56,4.02,3.3,8.88,3.49,13.56.05,2.77.03,5.54-.08,8.3-3.88-2.37-7.64-5.11-10.43-8.74-2.73-3.46-4.34-7.73-4.82-12.11-.43-3.49-.21-7.01.28-10.48Z"/>
      <path class="cls-1" d="M97.73,98.72c1.92-.4,4.15-.38,5.72.96.85.67.96,1.87.62,2.84-.63,1.95-2.13,3.44-3.07,5.23-3.14,5.61-5.52,11.59-7.96,17.52-2.15,5.39-4.35,10.78-6.03,16.34-.4,1.36-.8,2.74-.8,4.17,2.67-2.67,5.38-5.41,8.71-7.26,1.8-.81,3.9-1.59,5.86-.91,1.58.62,2.91,2.01,3.24,3.71.58,2.87.43,5.84.04,8.73-.3,2.23-.73,4.66.37,6.75.58,1.18,1.51,2.43,2.95,2.5,1.99.08,4.08-.49,5.68-1.69.62-1.17,1.22-2.36,2.04-3.41,3.25-4.43,6.76-8.76,11.12-12.14,2.85-2.25,6.05-4.01,9.34-5.53,2.07-.99,4.57-.97,6.66-.05,1.41.62,2.17,2.06,2.74,3.41.36.89.77,1.94.33,2.89-.45.86-1.48,1.26-2.41,1.27-1.74.11-2.64-2.26-4.45-1.73-4.44,1.87-8.42,4.79-11.62,8.38-1.39,1.67-3.01,3.23-3.87,5.26,2.74-1.36,5.08-3.41,7.74-4.93,2.85-1.67,5.81-3.16,8.89-4.36,1.4-.5,3.17-1.19,4.45-.03,1.46,1.21,3.01,3.46,1.78,5.33-1.08,2.06-1.55,4.64-.39,6.79.53,1.32,1.85,2.31,3.31,2.12,2.67-.12,4.36-2.43,6.39-3.82-.64,1.33-1.65,2.42-2.59,3.54-1.55,1.74-3.28,3.7-5.72,4.04-3.13-.13-6.11-2.16-7.39-5.03-.82-1.6-1.08-3.64-2.66-4.74-.73-.54-1.68-.24-2.4.15-1.78.96-3.41,2.19-5.06,3.36-4,2.74-8.28,5.52-13.19,6.16-.99.23-1.69-.65-2.18-1.36-.64-.89-.89-1.98-1.1-3.03-1.84,1.7-4.08,2.93-6.43,3.75-1.33.45-2.87.67-4.16-.01-1.79-.83-3.03-2.57-3.47-4.47-1.01-4.15.11-8.44-.4-12.63-.16-.72-.36-1.93-1.33-1.87-1.07.07-1.99.68-2.89,1.21-3.29,2.11-6.29,4.81-8.29,8.2-1.44,2.52-2.73,5.12-3.8,7.83-.42.96-.96,2.21-2.14,2.33-1.36-.07-2.72-.82-3.45-1.98-1.08-1.85-.42-4.06.05-6,3.09-11.7,6.81-23.24,11.26-34.5,2.21-5.57,4.55-11.1,6.58-16.74.72-2.37,1.97-4.51,3.38-6.52Z"/>
      <path class="cls-1" d="M171.08,108.42c1.01-.34,2.15-.17,3.09.31.78.43,1.08,1.35,1.19,2.18.24,1.89-.06,3.8-.41,5.66-1.05,5.2-2.23,10.37-3.49,15.52-.4,1.74-.83,3.53-.68,5.33.07.67.38,1.57,1.18,1.6,1.81.05,3.53-.8,4.95-1.85,3.25-2.58,6.5-5.17,10.01-7.4.66-.4,1.35-.85,2.15-.83.71.09,1.08.75,1.21,1.39.35,1.48.4,3.23-.56,4.51-3.56,4.04-8.98,5.9-12.47,10.01.63,3,2.54,5.45,4.29,7.88,2.23,3.01,5.06,5.48,7.62,8.19.52.68,1.32,1.39,1.21,2.33-.53,1.25-2.08,1.33-3.22,1.59-1.95.48-3.6-.97-5-2.1-4.3-3.5-7.05-8.41-10.66-12.55-.91-1.02-1.72-2.17-2.93-2.86-1.61,2.85-2.33,6.07-3.38,9.14-.92,2.65-1.8,5.35-3.14,7.83-.58,1.06-1.61,2.25-2.96,1.92-.96-.21-2.06-.45-2.68-1.27-.24-.74-.08-1.53.12-2.26.89-2.96,2.57-5.6,3.48-8.55,1.91-5.88,3.11-11.95,4.39-17.98.88-4.29,1.75-8.58,2.39-12.91.16-.98.2-1.98.07-2.97-1.28,1.21-1.83,2.93-2.8,4.37-2.57,4.09-5.25,8.13-8.28,11.9,2.51-4.48,5.67-8.59,7.91-13.24,1.96-3.98,3.17-8.29,5.18-12.25.55-1,1.13-2.14,2.24-2.62Z"/>
      <path class="cls-1" d="M205.8,111.47c.68-1.27,1.37-2.94,2.97-3.19,1.33-.17,3.16.22,3.55,1.72.49,1.78.26,3.67,0,5.47-1.12,5.96-2.56,11.86-3.96,17.77-.29,1.66-.78,3.45-.16,5.09.39,1.04,1.68.68,2.51.51,2.09-.47,3.7-1.95,5.33-3.24,2.81-2.17,5.61-4.37,8.66-6.19.71-.43,1.87-.81,2.41.07.65,1.22.69,2.72.39,4.05-.34,1.4-1.53,2.33-2.59,3.2-2.81,2.29-6.01,4.05-8.81,6.35-.6.51-1.25,1.03-1.59,1.77.19,1.27.63,2.5,1.29,3.6,1.69,2.77,3.63,5.39,5.86,7.74,1.29,1.44,2.78,2.68,4.11,4.09-.02-1.46.2-2.95.99-4.2,1.21-1.97,2.64-3.79,4.08-5.6,2.72-3.4,5.74-6.6,9.28-9.17,2.62-1.92,5.5-3.46,8.44-4.82,2.06-.98,4.55-.9,6.62.02,1.49.67,2.21,2.25,2.81,3.67.39.96.68,2.22-.11,3.06-.94.87-2.53,1.12-3.59.31-.86-.6-1.73-1.58-2.9-1.26-4.87,2.01-9.15,5.34-12.53,9.38-1.11,1.36-2.37,2.66-3.05,4.31,1.3-.52,2.38-1.42,3.54-2.19,4.02-2.83,8.34-5.22,12.9-7.04,1.49-.54,3.34-1.31,4.71-.09,1.4,1.22,2.89,3.36,1.79,5.21-.89,1.78-1.54,3.89-.85,5.85.42,1.22,1.08,2.61,2.42,3.01,1.67.49,3.38-.27,4.71-1.27.66-.53,1.52-.99,1.72-1.89,1.28-4.54,2.43-9.13,3.62-13.7.64-2.27,1.28-4.58,2.51-6.61.43-.69,1.11-1.48,2.02-1.3,1.86.16,3.62,1.75,3.61,3.68.12,1.86-1.44,3.25-1.49,5.08,2.17-.34,3.78-1.94,5.73-2.81,1.51-.69,3.12-1.55,4.84-1.24,2.77.49,5.42,1.6,7.82,3.05,1.32.8,2.91.83,4.4.68.43-1.47.97-2.94,1.05-4.48.05-.7-.73-.91-1.14-1.31.86-1.23,2.28-1.91,3.54-2.65,1.6-.93,3.61-.97,5.3-.26.6.29.8,1.03.76,1.65-.09,1.18-.58,2.27-.96,3.37-1.85,5.28-2.94,10.8-5.03,16-1.04,2.46-2.17,5-4.07,6.93-.98,1.05-2.54,1.04-3.85.78-.3-1.95.25-3.88.62-5.77,1.01-4.46,2.21-8.87,3.48-13.25-2.6.89-5.33,1.42-8.08,1.41-1.84-.01-3.69-.05-5.51.29-2.67.4-5.05,1.84-7.21,3.4-2.68,1.94-3.95,5.12-5.19,8.07-1.21,2.78-2.04,5.69-3.17,8.5-.78,2.33-4.77,2.67-5.74.34-.31-.68-.58-1.48-.26-2.21.68-1.8,1.22-3.65,1.79-5.49-1.75,1.99-3.58,4.39-6.36,4.86-3.29-.07-6.4-2.32-7.63-5.36-.69-1.51-1.02-3.33-2.44-4.37-.78-.63-1.83-.23-2.6.2-2.58,1.45-4.86,3.36-7.37,4.92-3.27,2.05-6.77,4-10.65,4.5-.73.2-1.32-.26-1.84-.68-1.84.97-4.32,1.66-6.14.27-6.47-4.29-9.67-11.72-15.3-16.86-.97,1.37-1.5,2.97-2.03,4.54-1.26,3.94-2.45,7.92-4.19,11.69-.56,1.09-1.22,2.36-2.48,2.75-1.24.1-2.54-.33-3.51-1.1-.43-.86-.13-1.85.11-2.71.91-2.81,2.47-5.36,3.36-8.18,1.56-4.73,2.62-9.6,3.67-14.46,1.06-5.05,2.12-10.1,2.94-15.19.21-1.43.51-2.88.24-4.32-1.24,1.25-1.82,2.95-2.78,4.39-2.55,4.09-5.25,8.1-8.24,11.88,1.91-3.53,4.35-6.76,6.31-10.27,2.79-4.64,4.2-9.92,6.54-14.77Z"/>
      <path class="cls-1" d="M226.2,174.57c1.01-.81,1.98-1.79,3.26-2.14,1.4.14,2.01,1.87,1.93,3.08-.85.32-1.82.39-2.5,1.06-1.66,1.47-3.07,3.19-4.5,4.87-2.05,2.58-4.32,4.97-6.36,7.55-3.31,3.36-6.85,6.48-10.42,9.56-1.3,1.26-3.27,1.8-5.01,1.25-1.33-.49-1.94-1.92-2.1-3.24-1.07-5.96,1.3-11.85.76-17.83-.16-1.23-.09-2.79,1.08-3.51.65-.17,1.54-.43,2.04.18.73.71,1.12,1.7,1.14,2.72.12,3.11-.01,6.23-.5,9.3-.4,2.59-.76,5.28-.14,7.87,3.34-1.8,5.99-4.61,8.53-7.39,2.2-2.42,4.69-4.58,6.76-7.12,1.72-2.33,3.87-4.29,6.03-6.21Z"/>
      <path class="cls-1" d="M249.69,176.04c.4-.61,1.23-1.32,1.95-.73,1.03.68.05,1.92-.23,2.78-2.74,5.55-5.63,11.21-6.38,17.44-.22.73.55,1.27,1.21.95,2.15-.82,4.03-2.21,6.02-3.36.52-2.16,1.3-4.25,1.72-6.43-.17-.11-.51-.32-.68-.43,1.21-1.08,2.87-1.96,4.49-1.15-.12,1.6-.83,3.05-1.22,4.59-.77,2.61-1.39,5.39-3.08,7.59-.47.68-1.35.65-2.08.62.05-1.18.27-2.35.55-3.5-2.13,1.87-3.96,4.49-6.97,4.9-1.97.38-2.99-1.94-2.99-3.55-.78.92-1.61,1.97-2.86,2.2-1.42-.08-2.78-.98-3.33-2.3-.43-.79-.58-1.89-1.51-2.26-.97.24-1.76.91-2.57,1.46-2.03,1.45-4.24,2.88-6.79,3.09-.98-1.04-1.33-2.67-.52-3.91,2.07-3.12,4.62-6.06,7.96-7.84,1.17-.63,2.45-1.4,3.85-1.12,1.37.08,2.25,1.46,2.3,2.73.11.71-.74,1-1.31.95-.55-.25-1.06-.58-1.61-.82-3.03,1.12-5.45,3.47-7.19,6.14,2.64-1.61,5.15-3.55,8.17-4.41,1.12-.45,2.04.73,2.31,1.69,0,1.09-.96,2.07-.62,3.2.17.75.62,1.67,1.52,1.65.94.09,1.67-.61,2.37-1.14.5-2.85,1.5-5.58,2.45-8.31,1.29-3.74,2.82-7.45,5.1-10.7Z"/>
      <path class="cls-1" d="M267.3,175.58c.62-1,2.44-.27,1.99.89-1.12,3.09-2.89,5.89-4.12,8.94-1.37,3.25-2.44,6.66-2.91,10.17-.2.82.77,1.2,1.4.85,2.07-.85,3.9-2.17,5.82-3.29.51-1.9,1.11-3.78,1.59-5.69.21-.52-.14-.92-.46-1.28,1.12-.84,2.51-1.82,3.97-1.2.79.47.18,1.47.03,2.15-1.25,3.35-1.66,7.1-3.82,10.05-.45.76-1.37.81-2.15.78.04-1.21.25-2.41.55-3.58-1.6,1.4-2.85,3.24-4.8,4.2-1.05.55-2.29,1.05-3.47.66-1.05-.74-1.77-2.05-1.6-3.36.17-2.36,1.01-4.59,1.71-6.83,1.63-4.66,3.23-9.48,6.27-13.44Z"/>
      <path class="cls-1" d="M254.88,177.78c.84.54,1.79,1.04,2.32,1.93.82,1.3.66,2.91.65,4.37-1.02-.72-2.12-1.49-2.62-2.68-.53-1.13-.46-2.41-.35-3.62Z"/>
      <path class="cls-1" d="M294.84,178.36c.9.55,1.9,1.08,2.41,2.04.74,1.28.57,2.81.58,4.23-1.01-.68-2.07-1.42-2.59-2.57-.59-1.14-.5-2.46-.41-3.7Z"/>
      <path class="cls-1" d="M271.95,178.35c.96.57,1.99,1.18,2.5,2.22.6,1.24.52,2.66.53,4.01-1.01-.55-1.98-1.26-2.52-2.31-.68-1.18-.55-2.6-.51-3.91Z"/>
      <path class="cls-1" d="M287.35,180.78c1.43-.64,3.05-.56,4.58-.42-.68,1.23-1.47,2.5-2.76,3.17-1.64.88-3.56.69-5.34.69.89-1.39,1.96-2.78,3.53-3.44Z"/>
      <path class="cls-1" d="M293.41,186.24c1.09-.81,2.38-1.84,3.84-1.34.94.12.54,1.31.35,1.92-1.28,3.37-1.69,7.13-3.78,10.16-.44.76-1.47,1.29-2.27.77.25-3.77,1.73-7.33,2.56-10.99-.18-.13-.53-.38-.71-.51Z"/>
      <path class="cls-1" d="M277.8,190.91c1.46-2.76,4.2-4.79,7.23-5.49,1.16-.3,2.27.78,3.41.3.75-.36,1.55,0,2.21.38-1.25,3.12-1.41,6.54-2.56,9.69-1.25,3.21-2.59,6.41-4.49,9.3-1.45,2.36-3.35,4.49-5.73,5.92-1.32.83-3.08.7-4.39-.1-1.15-.84-1.18-2.59-.38-3.68,1.58-2.41,3.79-4.32,5.97-6.17-1.79,2.14-4.18,3.84-5.44,6.38-.53.97.06,2.57,1.37,2.13,3.42-1.48,5.69-4.73,7.42-7.9,1.47-2.95,2.9-5.96,3.67-9.18-2.08,1.8-4.05,3.91-6.67,4.89-1.09.47-2.68.33-3.18-.89-.3-1.98.64-3.88,1.55-5.58ZM283.89,188.98c-1.8,1.29-3.43,2.95-4.31,5.01,2.43-1.11,4.61-2.87,6.22-5-.37-.83-1.38-.41-1.91,0Z"/>
    </g>
  </g>
</svg>