<?xml version="1.0" encoding="iso-8859-1"?>
<!-- Generator: Adobe Illustrator 29.7.1, SVG Export Plug-In . SVG Version: 9.03 Build 0)  -->
<svg version="1.1" id="Layer_1" xmlns="http://www.w3.org/2000/svg" xmlns:xlink="http://www.w3.org/1999/xlink" x="0px" y="0px"
	 viewBox="0 0 1024 768" style="enable-background:new 0 0 1024 768;" xml:space="preserve">
<g>
	<path style="fill:#1C9AD6;" d="M585.639,298.903c1.172-1.163,2.154-2.502,3.4-3.594c0.248,2.134-0.074,4.269-0.207,6.397
		c1.502,0.82,3.078,1.501,4.508,2.444c-1.821,1.104-3.756,2.018-5.555,3.158c-0.93,1.838-1.311,3.927-1.966,5.881
		c-1.331-1.156-2.061-2.781-2.978-4.246c-2.248,0.333-4.382,1.198-6.649,1.417c1.156-1.876,2.832-3.339,4.14-5.096
		c0.346-0.497,0.794-1.056,0.575-1.702c-0.3-1.63-0.84-3.209-0.969-4.87c1.411,0.291,2.803,0.659,4.221,0.92
		C584.771,299.811,585.22,299.239,585.639,298.903z"/>
	<path style="fill:#1C9AD6;" d="M569.351,300.412c1.014-0.514,2.338-0.249,3.048,0.643c0.691,0.823,0.162,2.277-0.911,2.448
		c-3.711,0.94-6.523,3.733-9.243,6.262c-2.28,2.061-4.033,4.886-4.198,8.009c-0.049,1.769,1.366,3.349,3.161,3.384
		c5.719,0.09,11.497-1.808,15.947-5.425c-1.479,2.222-3.962,3.394-6.181,4.725c-2.6,1.424-5.183,3.136-8.192,3.488
		c-1.638,0.21-3.423,0.2-4.899-0.63c-2.212-1.453-3.355-4.24-2.922-6.84c0.288-2.932,2.122-5.338,3.817-7.621
		c1.722-2.254,4.072-3.891,6.281-5.625C566.441,302.223,567.8,301.148,569.351,300.412z"/>
	<path style="fill:#1C9AD6;" d="M614.581,303.957c2.309-1.74,5.002-3.242,7.964-3.3c2.031-0.036,4.082,0.801,5.39,2.376
		c1.731,2.015,2.58,4.608,3.2,7.146c1.247,5.325,1.337,10.818,1.96,16.231c1.692,12.216,4.011,24.359,7.198,36.278
		c0.1,0.468,0.349,0.881,0.64,1.263c0.152-3.853-2.425-7.176-2.413-11.009c-0.064-1.821,0.398-3.678,1.496-5.154
		c0.956-1.298,2.051-2.5,2.832-3.92c1.747,3.51,2.851,7.427,2.516,11.38c-0.21,3.084-1.276,6.059-2.81,8.729
		c1.185,0.171,2.37,0.375,3.552,0.601c3.371-2.761,7.796-4.111,12.136-3.714c-1.463,2.122-3.246,4.011-5.322,5.539
		c5.593,1.889,10.667,5.348,14.283,10.034c4.873,6.277,7.689,13.837,10.104,21.33c-5.196-1.02-10.45-1.918-15.446-3.711
		c-3.788-1.353-7.353-3.419-10.195-6.287c-3.023-2.91-5.225-6.526-7.185-10.198c1.579,5.509,2.719,11.345,1.569,17.057
		c-1.495,7.721-6.291,14.164-10.473,20.629c-2.709-4.983-5.102-10.169-6.74-15.611c-1.614-5.351-2.199-11.116-0.959-16.608
		c0.733-3.404,2.115-6.633,3.798-9.672c-3.862,0.652-7.895,0.123-11.483-1.437c4.007-3.155,9.384-4.302,14.345-3.149
		c0.536-0.746,1.072-1.492,1.611-2.238c-4.062-1.786-7.686-4.754-9.82-8.687c-1.457-2.622-2.219-5.574-2.577-8.535
		c2.115,1.182,4.695,1.36,6.614,2.916c1.938,1.534,3.013,3.879,3.575,6.233c0.675,2.548,1.102,5.357,2.975,7.363
		c-0.036-0.533-0.133-1.049-0.291-1.553c-4.653-13.993-7.692-28.46-10.37-42.941c-0.81-4.382-1.162-9.242-4.282-12.717
		c-8.342,7.311-13.896,17.135-18.727,26.972c-3.171,6.475-6.081,13.072-9.09,19.625c-3.165,6.856-6.375,13.692-9.466,20.584
		c-2.589,5.525-4.614,11.312-7.576,16.66c-1.541,2.645-3.358,5.335-6.1,6.85c-2.716,1.527-6.343,1.04-8.626-1.053
		c-2.254-2.041-3.384-4.989-4.159-7.857c-1.918-7.386-1.647-15.081-2.532-22.609c-1.182-10.595-2.435-21.281-5.729-31.467
		c-8.945,5.448-15.517,13.87-21.501,22.293c-4.237,6.039-8.251,12.229-12.398,18.333c-3.536,5.189-7.069,10.386-10.495,15.652
		c-3.31,5.044-5.939,10.618-10.195,14.978c-1.689,1.631-3.747,3.223-6.201,3.271c-3.29,0.065-6.362-1.828-8.244-4.45
		c-2.826-3.901-4.04-8.664-5.174-13.27c-1.046-4.476-2.341-8.887-3.388-13.363c-1.44-5.913-3.171-12.068-7.337-16.699
		c-10.625,11.203-20.238,23.307-29.797,35.417c-15.213,19.314-30.217,38.939-47.924,56.081c-4.879,4.589-10.366,8.755-16.767,10.948
		c-5.713,1.986-11.971,2.031-17.816,0.597l0.19-0.694c5.545,0.911,11.367,0.323,16.518-1.967c4.631-2.031,8.693-5.18,12.232-8.761
		c4.744-4.66,8.732-10.004,12.882-15.181c16.295-20.399,31.04-41.965,46.464-63.017c3.397-4.87,6.533-9.934,10.318-14.519
		c2.432-2.942,5.092-5.777,8.335-7.835c2.422-1.534,5.39-2.49,8.257-1.857c3.045,0.633,5.555,2.742,7.405,5.161
		c2.89,3.794,4.628,8.296,6.197,12.759c3.071,8.186,3.736,17.186,7.886,24.976c7.185-11.4,14.325-22.828,21.953-33.941
		c6.442-9.461,13.382-18.578,20.81-27.288c3.242-3.678,6.846-7.25,11.374-9.297c4.072-1.876,9.04-1.831,12.976,0.368
		c3.449,1.905,5.554,5.493,6.723,9.146c2.08,6.584,2.148,13.554,3.01,20.351c1.143,9.078,1.783,18.224,3.33,27.249
		c5.735-11.513,10.909-23.293,16.557-34.851c5.539-11.322,11.535-22.48,18.94-32.71
		C607.818,310.426,610.873,306.812,614.581,303.957z"/>
	<path style="fill:#1C9AD6;" d="M528.577,303.524c1.001-0.82,2.203-1.453,3.53-1.411c7.224-0.204,14.458,0.178,21.63,1.069
		c1.453,0.239,3.332-0.006,4.35,1.289c-0.103,1.091-1.515,1.179-2.364,1.182c-3.02-0.174-6.036-0.51-9.059-0.568
		c-0.733-0.062-1.321,0.391-1.77,0.904c-3.239,3.462-5.587,7.618-7.983,11.674c-0.559,0.995-1.104,2.119-0.875,3.291
		c0.107,0.43,0.462,0.936,0.953,0.917c2.147-0.359,3.988-1.576,5.761-2.765c-1.763,2.084-3.335,4.512-5.857,5.755
		c-1.244,0.678-3.081,0.204-3.666-1.13c-0.61-1.967-0.503-4.169,0.517-5.98c2.102-4.008,4.899-7.605,7.172-11.516
		c0.268-0.471,0.316-1.023,0.423-1.547c-2.754,0.045-5.512,0.055-8.264,0.194c-1.107,0.016-2.128,0.484-3.197,0.684
		c-0.813-0.042-1.608-0.445-2.125-1.069C527.74,304.019,528.292,303.825,528.577,303.524z"/>
	<path style="fill:#1C9AD6;" d="M649.225,352.53c1.915-3.316,5.935-4.379,9.465-4.925c-0.026,2.581-1.111,5.093-2.977,6.875
		c-3.02,3.022-7.108,4.734-9.969,7.938C647.084,359.186,647.477,355.594,649.225,352.53z"/>
	<path style="fill:#1C9AD6;" d="M656.782,355.869c1.702-0.982,3.736-0.472,5.506,0.032c-0.562,0.907-1.237,1.802-2.235,2.261
		c-2.348,1.149-5.086,0.826-7.508,1.76C654.008,358.624,655.096,356.906,656.782,355.869z"/>
	<path style="fill:#1C9AD6;" d="M612.546,361.12c3.068-1.379,6.646-2.626,9.956-1.34c3.471,1.482,5.887,4.54,8.987,6.601
		c-4.511-1.191-9.291-0.11-13.773-1.434C615.595,364.353,613.76,362.951,612.546,361.12z"/>
	<path style="fill:#1C9AD6;" d="M660.053,361.708c2.338-1.14,5.028-1.049,7.547-0.733c-0.969,2.07-2.455,4.004-4.56,5.005
		c-2.409,1.185-5.189,1.133-7.799,0.872C656.313,364.737,657.857,362.734,660.053,361.708z"/>
	<path style="fill:#1C9AD6;" d="M614.006,370.081c1.146-1.376,2.516-2.838,4.398-3.058c2.067-0.184,4.011,0.73,6.022,1.03
		c-2.257,0.54-4.185,1.931-6.423,2.509C616.654,370.934,615.249,370.65,614.006,370.081z"/>
	<path style="fill:#1C9AD6;" d="M612.436,377.186c1.941-1.698,4.205-3.245,6.839-3.52c2.364-0.3,4.68,0.545,6.733,1.641
		c-2.031,1.689-4.357,3.239-7.044,3.562C616.667,379.188,614.377,378.371,612.436,377.186z"/>
	<path style="fill:#1C9AD6;" d="M650.756,393.2c4.456,2.271,8.832,5.173,11.561,9.472c2.564,4.021,3.297,8.881,3.488,13.56
		c0.052,2.768,0.025,5.535-0.078,8.299c-3.879-2.37-7.638-5.109-10.431-8.745c-2.735-3.462-4.343-7.734-4.821-12.106
		C650.042,400.195,650.268,396.669,650.756,393.2z"/>
	<path style="fill:#1C9AD6;" d="M450.462,394.033c1.922-0.404,4.147-0.377,5.719,0.956c0.853,0.665,0.962,1.87,0.62,2.838
		c-0.627,1.951-2.128,3.437-3.065,5.232c-3.136,5.606-5.522,11.59-7.96,17.519c-2.154,5.39-4.35,10.776-6.032,16.337
		c-0.401,1.359-0.798,2.742-0.798,4.175c2.671-2.67,5.377-5.412,8.707-7.263c1.798-0.811,3.897-1.589,5.861-0.907
		c1.579,0.62,2.913,2.005,3.239,3.707c0.585,2.868,0.433,5.838,0.042,8.726c-0.3,2.225-0.727,4.663,0.368,6.749
		c0.575,1.182,1.511,2.429,2.945,2.5c1.989,0.077,4.082-0.494,5.684-1.686c0.62-1.172,1.224-2.357,2.038-3.413
		c3.246-4.434,6.759-8.758,11.125-12.143c2.848-2.247,6.049-4.011,9.336-5.529c2.07-0.991,4.573-0.969,6.662-0.048
		c1.412,0.624,2.17,2.064,2.745,3.414c0.365,0.895,0.768,1.944,0.326,2.887c-0.446,0.865-1.485,1.259-2.413,1.266
		c-1.74,0.11-2.641-2.26-4.453-1.725c-4.44,1.867-8.419,4.786-11.616,8.384c-1.385,1.672-3.013,3.23-3.866,5.261
		c2.745-1.363,5.083-3.411,7.741-4.932c2.848-1.666,5.81-3.158,8.887-4.363c1.405-0.498,3.168-1.188,4.453-0.032
		c1.463,1.214,3.006,3.456,1.779,5.329c-1.081,2.063-1.55,4.643-0.391,6.785c0.526,1.318,1.851,2.306,3.314,2.122
		c2.667-0.12,4.359-2.428,6.394-3.823c-0.636,1.333-1.653,2.415-2.59,3.539c-1.55,1.741-3.284,3.701-5.722,4.04
		c-3.133-0.126-6.113-2.16-7.389-5.028c-0.823-1.604-1.085-3.639-2.661-4.744c-0.727-0.542-1.676-0.239-2.397,0.148
		c-1.783,0.962-3.407,2.19-5.057,3.358c-4.001,2.742-8.28,5.516-13.192,6.159c-0.991,0.229-1.686-0.649-2.183-1.359
		c-0.643-0.892-0.888-1.98-1.101-3.033c-1.844,1.695-4.075,2.929-6.433,3.753c-1.331,0.449-2.868,0.675-4.16-0.01
		c-1.789-0.833-3.029-2.573-3.472-4.469c-1.014-4.153,0.11-8.438-0.4-12.627c-0.159-0.723-0.359-1.931-1.328-1.87
		c-1.069,0.074-1.993,0.685-2.89,1.214c-3.294,2.109-6.288,4.808-8.293,8.196c-1.44,2.519-2.735,5.122-3.798,7.825
		c-0.417,0.956-0.962,2.206-2.141,2.328c-1.359-0.068-2.719-0.82-3.455-1.977c-1.076-1.853-0.417-4.062,0.048-5.997
		c3.09-11.703,6.808-23.245,11.257-34.502c2.212-5.574,4.547-11.103,6.582-16.744C447.795,398.19,449.048,396.042,450.462,394.033z"
		/>
	<path style="fill:#1C9AD6;" d="M523.813,403.728c1.008-0.336,2.147-0.174,3.087,0.307c0.775,0.429,1.082,1.35,1.192,2.183
		c0.242,1.892-0.061,3.801-0.407,5.661c-1.049,5.199-2.231,10.369-3.488,15.52c-0.404,1.741-0.834,3.527-0.678,5.328
		c0.068,0.665,0.381,1.57,1.176,1.602c1.808,0.045,3.526-0.798,4.947-1.853c3.249-2.58,6.504-5.17,10.011-7.398
		c0.656-0.397,1.35-0.846,2.151-0.833c0.707,0.087,1.079,0.752,1.211,1.385c0.346,1.482,0.404,3.229-0.559,4.508
		c-3.559,4.043-8.984,5.9-12.472,10.005c0.627,2.999,2.539,5.451,4.289,7.876c2.228,3.01,5.057,5.48,7.621,8.187
		c0.52,0.678,1.317,1.392,1.205,2.325c-0.533,1.25-2.077,1.327-3.223,1.592c-1.947,0.478-3.597-0.972-5.002-2.1
		c-4.305-3.504-7.05-8.412-10.657-12.552c-0.914-1.015-1.724-2.174-2.935-2.855c-1.615,2.848-2.325,6.074-3.381,9.145
		c-0.92,2.654-1.799,5.348-3.136,7.828c-0.581,1.056-1.614,2.247-2.964,1.918c-0.956-0.213-2.064-0.452-2.68-1.272
		c-0.239-0.74-0.075-1.534,0.123-2.261c0.895-2.958,2.57-5.603,3.478-8.551c1.905-5.878,3.113-11.945,4.385-17.981
		c0.882-4.289,1.75-8.58,2.39-12.914c0.155-0.981,0.197-1.979,0.065-2.968c-1.282,1.211-1.831,2.935-2.797,4.372
		c-2.57,4.088-5.254,8.132-8.277,11.903c2.509-4.482,5.674-8.593,7.906-13.237c1.96-3.985,3.171-8.293,5.183-12.249
		C522.125,405.346,522.709,404.212,523.813,403.728z"/>
	<path style="fill:#1C9AD6;" d="M558.535,406.78c0.679-1.269,1.369-2.939,2.971-3.188c1.334-0.165,3.155,0.223,3.546,1.718
		c0.494,1.776,0.261,3.668,0.003,5.471c-1.12,5.964-2.561,11.865-3.956,17.771c-0.294,1.66-0.781,3.446-0.165,5.086
		c0.391,1.039,1.68,0.685,2.509,0.513c2.089-0.468,3.698-1.947,5.325-3.239c2.806-2.173,5.609-4.366,8.658-6.19
		c0.708-0.433,1.87-0.808,2.413,0.067c0.646,1.221,0.694,2.722,0.391,4.053c-0.336,1.401-1.534,2.325-2.59,3.197
		c-2.806,2.293-6.006,4.053-8.806,6.352c-0.604,0.514-1.25,1.034-1.589,1.77c0.187,1.266,0.629,2.503,1.295,3.598
		c1.689,2.768,3.627,5.387,5.865,7.741c1.292,1.44,2.784,2.684,4.114,4.092c-0.02-1.457,0.204-2.952,0.995-4.205
		c1.205-1.973,2.642-3.794,4.082-5.6c2.719-3.404,5.742-6.604,9.278-9.174c2.616-1.921,5.497-3.465,8.444-4.818
		c2.06-0.981,4.55-0.904,6.617,0.017c1.489,0.671,2.212,2.254,2.81,3.674c0.388,0.957,0.678,2.222-0.106,3.062
		c-0.94,0.872-2.535,1.124-3.588,0.313c-0.862-0.597-1.731-1.576-2.897-1.256c-4.87,2.012-9.152,5.338-12.526,9.375
		c-1.111,1.363-2.367,2.661-3.052,4.308c1.301-0.517,2.383-1.421,3.542-2.187c4.018-2.826,8.341-5.219,12.904-7.043
		c1.486-0.539,3.342-1.314,4.712-0.09c1.401,1.217,2.89,3.355,1.789,5.215c-0.885,1.779-1.537,3.889-0.846,5.846
		c0.42,1.22,1.079,2.615,2.422,3.013c1.669,0.487,3.384-0.271,4.705-1.269c0.656-0.533,1.521-0.995,1.718-1.886
		c1.282-4.543,2.432-9.126,3.62-13.699c0.636-2.267,1.285-4.579,2.512-6.607c0.427-0.691,1.108-1.479,2.019-1.295
		c1.863,0.164,3.624,1.747,3.607,3.685c0.117,1.856-1.443,3.252-1.488,5.083c2.17-0.343,3.785-1.938,5.735-2.807
		c1.512-0.688,3.117-1.547,4.838-1.237c2.774,0.491,5.416,1.599,7.821,3.055c1.318,0.797,2.907,0.83,4.398,0.684
		c0.433-1.473,0.975-2.939,1.049-4.482c0.055-0.704-0.733-0.914-1.143-1.308c0.862-1.227,2.28-1.908,3.542-2.651
		c1.599-0.927,3.607-0.972,5.296-0.262c0.601,0.29,0.801,1.027,0.759,1.65c-0.09,1.178-0.578,2.27-0.959,3.374
		c-1.847,5.28-2.939,10.802-5.031,15.998c-1.04,2.464-2.173,4.996-4.072,6.927c-0.982,1.053-2.542,1.037-3.853,0.782
		c-0.304-1.95,0.249-3.878,0.623-5.774c1.014-4.457,2.206-8.868,3.481-13.25c-2.6,0.885-5.328,1.424-8.08,1.414
		c-1.84-0.013-3.691-0.055-5.506,0.288c-2.674,0.404-5.054,1.841-7.208,3.401c-2.684,1.94-3.953,5.125-5.186,8.07
		c-1.205,2.777-2.044,5.693-3.175,8.5c-0.781,2.325-4.767,2.67-5.742,0.342c-0.31-0.681-0.581-1.485-0.261-2.212
		c0.681-1.802,1.224-3.649,1.789-5.487c-1.75,1.993-3.575,4.389-6.358,4.86c-3.29-0.071-6.4-2.321-7.628-5.364
		c-0.688-1.511-1.021-3.326-2.438-4.366c-0.785-0.633-1.831-0.232-2.603,0.197c-2.577,1.453-4.86,3.358-7.366,4.924
		c-3.268,2.05-6.766,3.998-10.647,4.499c-0.727,0.197-1.32-0.258-1.841-0.685c-1.844,0.972-4.317,1.663-6.136,0.268
		c-6.465-4.286-9.675-11.72-15.303-16.861c-0.966,1.366-1.499,2.968-2.028,4.538c-1.263,3.94-2.445,7.925-4.188,11.687
		c-0.559,1.091-1.224,2.36-2.48,2.752c-1.237,0.097-2.542-0.33-3.514-1.095c-0.433-0.856-0.126-1.847,0.113-2.713
		c0.908-2.812,2.471-5.36,3.356-8.18c1.557-4.731,2.619-9.604,3.672-14.464c1.062-5.047,2.122-10.098,2.938-15.194
		c0.213-1.428,0.514-2.878,0.242-4.318c-1.237,1.247-1.815,2.945-2.777,4.385c-2.548,4.088-5.251,8.103-8.241,11.881
		c1.915-3.53,4.347-6.759,6.31-10.27C554.783,416.913,556.191,411.63,558.535,406.78z"/>
	<path style="fill:#1C9AD6;" d="M578.935,469.875c1.007-0.814,1.98-1.793,3.262-2.141c1.398,0.139,2.009,1.87,1.928,3.078
		c-0.846,0.32-1.821,0.387-2.496,1.056c-1.66,1.466-3.068,3.188-4.502,4.87c-2.05,2.577-4.321,4.97-6.362,7.553
		c-3.31,3.355-6.852,6.475-10.418,9.559c-1.301,1.26-3.265,1.795-5.005,1.247c-1.331-0.494-1.944-1.925-2.096-3.239
		c-1.072-5.964,1.301-11.852,0.756-17.829c-0.158-1.227-0.094-2.787,1.079-3.514c0.646-0.174,1.543-0.429,2.041,0.185
		c0.727,0.707,1.117,1.705,1.137,2.716c0.119,3.106-0.013,6.229-0.504,9.304c-0.4,2.593-0.762,5.28-0.139,7.87
		c3.339-1.805,5.994-4.615,8.532-7.389c2.199-2.422,4.689-4.576,6.759-7.118C574.63,473.756,576.778,471.79,578.935,469.875z"/>
	<path style="fill:#1C9AD6;" d="M602.419,471.354c0.404-0.61,1.233-1.324,1.954-0.733c1.034,0.678,0.048,1.925-0.229,2.777
		c-2.739,5.551-5.626,11.212-6.375,17.438c-0.216,0.73,0.549,1.269,1.205,0.946c2.154-0.817,4.03-2.212,6.016-3.358
		c0.52-2.157,1.305-4.249,1.715-6.43c-0.172-0.106-0.511-0.319-0.682-0.426c1.214-1.082,2.874-1.963,4.489-1.146
		c-0.119,1.599-0.833,3.055-1.224,4.592c-0.766,2.612-1.392,5.387-3.078,7.589c-0.472,0.681-1.353,0.646-2.083,0.617
		c0.049-1.185,0.271-2.351,0.549-3.497c-2.128,1.866-3.956,4.495-6.972,4.905c-1.967,0.378-2.991-1.941-2.987-3.555
		c-0.775,0.917-1.608,1.973-2.864,2.196c-1.421-0.084-2.777-0.978-3.332-2.299c-0.427-0.794-0.575-1.886-1.508-2.258
		c-0.975,0.243-1.76,0.908-2.574,1.463c-2.032,1.447-4.237,2.878-6.788,3.09c-0.982-1.04-1.333-2.67-0.517-3.914
		c2.067-3.116,4.618-6.058,7.96-7.844c1.175-0.633,2.451-1.401,3.85-1.124c1.369,0.077,2.254,1.46,2.296,2.729
		c0.107,0.713-0.743,1-1.308,0.946c-0.552-0.249-1.062-0.581-1.615-0.82c-3.026,1.117-5.445,3.468-7.186,6.135
		c2.635-1.614,5.154-3.545,8.17-4.408c1.121-0.446,2.041,0.733,2.312,1.689c-0.003,1.091-0.959,2.07-0.617,3.203
		c0.168,0.746,0.62,1.673,1.515,1.647c0.943,0.09,1.669-0.613,2.367-1.14c0.501-2.852,1.502-5.583,2.445-8.312
		C598.618,478.316,600.139,474.605,602.419,471.354z"/>
	<path style="fill:#1C9AD6;" d="M620.028,470.889c0.617-1.004,2.441-0.268,1.986,0.888c-1.118,3.09-2.89,5.893-4.121,8.938
		c-1.369,3.253-2.438,6.662-2.909,10.166c-0.204,0.82,0.765,1.205,1.395,0.849c2.067-0.849,3.901-2.167,5.823-3.293
		c0.507-1.902,1.114-3.779,1.592-5.687c0.207-0.52-0.142-0.92-0.455-1.279c1.121-0.84,2.506-1.818,3.972-1.198
		c0.788,0.472,0.184,1.469,0.035,2.147c-1.25,3.349-1.66,7.098-3.817,10.047c-0.452,0.762-1.366,0.807-2.154,0.778
		c0.036-1.214,0.246-2.412,0.546-3.585c-1.602,1.398-2.852,3.242-4.805,4.195c-1.046,0.549-2.289,1.049-3.468,0.662
		c-1.05-0.736-1.767-2.054-1.599-3.358c0.168-2.357,1.011-4.589,1.708-6.827C615.385,479.669,616.983,474.851,620.028,470.889z"/>
	<path style="fill:#1C9AD6;" d="M607.615,473.085c0.843,0.539,1.786,1.04,2.318,1.931c0.823,1.298,0.662,2.906,0.649,4.373
		c-1.02-0.724-2.118-1.489-2.616-2.684C607.431,475.574,607.502,474.293,607.615,473.085z"/>
	<path style="fill:#1C9AD6;" d="M647.568,473.665c0.895,0.552,1.896,1.079,2.412,2.041c0.74,1.282,0.572,2.81,0.584,4.228
		c-1.014-0.678-2.07-1.424-2.586-2.571C647.388,476.22,647.481,474.902,647.568,473.665z"/>
	<path style="fill:#1C9AD6;" d="M624.679,473.663c0.956,0.568,1.993,1.179,2.499,2.218c0.598,1.24,0.523,2.661,0.526,4.005
		c-1.007-0.549-1.983-1.263-2.519-2.31C624.501,476.392,624.634,474.974,624.679,473.663z"/>
	<path style="fill:#1C9AD6;" d="M640.083,476.094c1.434-0.642,3.048-0.556,4.576-0.42c-0.678,1.23-1.473,2.503-2.758,3.168
		c-1.637,0.882-3.556,0.694-5.345,0.688C637.444,478.142,638.517,476.75,640.083,476.094z"/>
	<path style="fill:#1C9AD6;" d="M646.144,481.552c1.095-0.807,2.38-1.841,3.836-1.343c0.94,0.116,0.543,1.311,0.355,1.921
		c-1.275,3.374-1.692,7.134-3.775,10.163c-0.443,0.759-1.466,1.292-2.274,0.765c0.252-3.772,1.734-7.331,2.564-10.993
		C646.674,481.936,646.322,481.681,646.144,481.552z"/>
	<g>
		<path style="fill:#1C9AD6;" d="M630.534,486.218c1.459-2.761,4.201-4.79,7.234-5.487c1.162-0.304,2.267,0.778,3.41,0.304
			c0.752-0.358,1.546-0.006,2.212,0.381c-1.25,3.12-1.411,6.54-2.561,9.691c-1.25,3.207-2.59,6.414-4.486,9.304
			c-1.446,2.361-3.349,4.489-5.735,5.923c-1.324,0.83-3.084,0.701-4.386-0.104c-1.146-0.836-1.179-2.59-0.375-3.678
			c1.579-2.406,3.792-4.318,5.965-6.174c-1.786,2.138-4.179,3.836-5.438,6.378c-0.526,0.972,0.058,2.57,1.373,2.128
			c3.42-1.479,5.693-4.728,7.424-7.905c1.466-2.952,2.9-5.965,3.668-9.181c-2.077,1.798-4.046,3.908-6.672,4.893
			c-1.085,0.471-2.684,0.333-3.181-0.888C628.683,489.819,629.629,487.92,630.534,486.218z M636.621,484.287
			c-1.798,1.292-3.433,2.945-4.314,5.009c2.435-1.111,4.608-2.874,6.223-5.002C638.158,483.464,637.154,483.88,636.621,484.287z"/>
	</g>
</g>
</svg>
