<?xml version="1.0" encoding="UTF-8"?>
<svg id="Layer_2" data-name="Layer 2" xmlns="http://www.w3.org/2000/svg" viewBox="0 0 437.88 346.61">
  <defs>
    <style>
      .cls-1 {
        fill: #ec3c15;
      }

      .cls-2 {
        fill: #ffeddd;
      }

      .cls-3 {
        fill: #ac7793;
      }

      .cls-4 {
        fill: #2e6b98;
      }

      .cls-5 {
        fill: #a7c316;
      }

      .cls-6 {
        fill: #1e679c;
      }

      .cls-7 {
        fill: #923724;
      }

      .cls-8 {
        fill: #e7ffff;
      }

      .cls-9 {
        fill: #fdfbf8;
      }

      .cls-10 {
        fill: #b1e4f2;
      }

      .cls-11 {
        fill: #ff890b;
      }

      .cls-12 {
        fill: #edffd6;
      }

      .cls-13 {
        fill: #fff7e7;
      }

      .cls-14 {
        fill: #f3feec;
      }

      .cls-15 {
        fill: #497422;
      }

      .cls-16 {
        fill: #815b4e;
      }

      .cls-17 {
        fill: #7d4d31;
      }

      .cls-18 {
        fill: #e20a17;
      }

      .cls-19 {
        fill: #0a6daf;
      }

      .cls-20 {
        fill: #f4ffea;
      }

      .cls-21 {
        fill: #559bb5;
      }

      .cls-22 {
        fill: #f8fbf6;
      }

      .cls-23 {
        fill: #1c71a9;
      }

      .cls-24 {
        fill: #fec4a0;
      }

      .cls-25 {
        fill: #333;
      }

      .cls-26 {
        fill: #0070ba;
      }

      .cls-27 {
        fill: #a6c21e;
      }

      .cls-28 {
        fill: #ffe598;
      }
    </style>
  </defs>
  <g id="Layer_1-2" data-name="Layer 1">
    <g>
      <g>
        <path class="cls-5" d="M377.24,0c1.42-.05,1.86,1.46,2.34,2.51.71,2.06,2.15,3.8,2.66,5.93.7,2.86.58,5.85,1.09,8.75.34,2.7,1.11,5.35,1.19,8.09.03,2.96,1.08,5.84.83,8.83-.25,5.7-3.75,10.86-8.41,13.97-.42-.82-1.16-1.59-1.18-2.54.42-.88,1.11-1.68,1.09-2.71-.97-.11-1.92-.26-2.86-.47-1-1.32-3.07-1.3-3.76-2.88-1.13-2.75-.76-5.79-.73-8.68.39-4.2.81-8.43,2.03-12.49,1.65-6.18,4.91-11.88,5.71-18.29Z"/>
        <path class="cls-25" d="M410.43,30.15c2.39-2.03,4.55-4.33,6.93-6.36-2.11,2.9-4.49,5.61-6.73,8.42-4.63,5.61-9.37,11.18-14.72,16.13-5.92,5.62-12.7,10.3-18.26,16.32-.48-.12-1.04-.66-1.49-.19-.59.48-.44,1.29-.46,1.96-11.28,9.93-23.71,18.45-36.3,26.62-.96.6-2.18.59-3.08,1.31-1.28.94-2.55,2.19-4.28,1.93-.77,1.09-2.04,1.54-3.24,1.97-.52.13-.88.48-.97,1.01-2.2.37-3.95,1.85-5.65,3.18,1.42.14,3.2.17,4.09-1.16.81-.14,1.6-.35,2.37-.64.09-.15.28-.45.37-.6-.06-.21-.18-.62-.24-.83.87-.03,1.72.2,2.57.42.02-.23.05-.7.07-.93-.31-.07-.93-.2-1.24-.27.82-.82,1.94-.5,2.93-.25.2-1.65,1.88-2.25,3.14-2.96.03.18.1.54.14.71.91-1.06,1.97-1.97,3.2-2.65.03.28.07.84.09,1.12,1.11-.52,2.17-1.17,3.15-1.92-.75.23-1.49.49-2.23.71,1.48-1.49,3.34-2.72,5.47-2.95.59-1.7,2.38-2.54,4.02-2.88.24-.58.7-.81,1.33-.69,1.44-2.05,3.98-2.88,5.67-4.7-.05.35-.16,1.04-.21,1.38.73-.81.99-2.08,2.06-2.53-.09.49-.18.98-.27,1.46.61-.62,1.15-1.33,1.8-1.9,5.25-3.87,9.64-8.75,14.98-12.51-.03.29-.07.87-.1,1.16.76-.55.98-1.43,1.29-2.24,1.01-1.45,2.5-2.44,3.84-3.54.12.02.37.04.49.05-.24.18-.73.55-.98.73,1.74.5,1.94-1.62,2.13-2.83.03.69.31,1.24,1.01,1.46-5.2,6.27-10.99,12.06-17.36,17.15-7.14,5.77-14.96,10.64-22.99,15.06-11.44,6.24-23.27,11.74-34.81,17.79-11.33,5.93-22.41,12.37-34.07,17.65-13.19,6.13-26.95,10.92-40.84,15.18-7.77,2.37-15.56,4.66-23.47,6.53-1.43.37-2.91.51-4.37.71-17.4,4.11-34.9,7.79-52.37,11.63-2.42.48-4.8,1.19-7.26,1.49-8.97,1.15-17.91,2.6-26.95,3.12-2.94-.16-5.86.15-8.79.37-17.06,1.45-34.21,3.28-51.35,1.93-9.42-.68-18.78-2.3-27.9-4.77-5.91-1.58-12.48-1.73-17.55-5.53-1.8-1.13-2.45-3.25-3.56-4.94-2-2.84-5.54-3.92-7.89-6.37-2.05-2.04-1.53-5.17-1.64-7.79,2.34-.86,4.68.15,6.72,1.28,1.34.93,2.7-.59,4.13-.33.77.2,1.4-.52,2.15-.32,16.74,4.53,34.22,4.23,51.39,5.06,27.87,1.12,55.92,2.44,83.67-1.19,16.05-2.17,32.07-4.55,48.05-7.15,7.38-1.5,14.79-2.83,22.17-4.33,8.63-1.7,16.99-4.49,25.4-7,2.99-.84,5.83-2.1,8.84-2.84,13.03-3.77,24.99-10.4,37.81-14.74,1.38-.58,2.23-1.98,3.65-2.51,13.53-5.25,25.8-13.16,39.1-18.92,5.83-4.28,12.38-7.4,18.51-11.2,1.79-1.35,3.39-2.95,5.2-4.3,3.68-2.81,7.54-5.39,11.22-8.2,1.27-.95,2.41-2.09,3.83-2.84.64-.32.96-.98,1.49-1.43,12.52-10.06,25.1-20.06,37.09-30.76ZM379.98,64.62c-1,.7-2.1,1.33-2.74,2.42,1.04-.64,2.15-1.3,2.74-2.42ZM374.47,69.24c-1,1.12-2.41,1.77-3.32,2.98,1.37-.67,2.52-1.67,3.75-2.57-.15-.14-.29-.28-.43-.41Z"/>
        <path class="cls-1" d="M337.71,26.72c2.01-.74,4.24-.68,6.29-.08.93.66,2.44.96,2.59,2.3.55,4.32-1.16,8.9.74,13.05,1.61,3.78,6.26,4.82,8.13,8.39,1.82,4.49,1.16,10.23-2.52,13.62-1.64,1.77-4.13,2.14-6.13,3.33-2.96-.35-5.71-1.79-8.18-3.4-5.21-3.53-9.18-8.89-10.99-14.92-1.47-5.05-1.18-10.79,1.57-15.37,2.15-2.99,4.99-5.67,8.5-6.93ZM338.38,30.23c.72,0,1.45-.03,2.18-.05-.19-.39-.39-.78-.57-1.17-.54.4-1.08.81-1.61,1.23ZM346.55,49.64c.51.92,1.34,1.59,2.33,1.95-.39-1-1.13-1.99-2.33-1.95ZM345.29,54.01c.85,1.17-.07,2.5-.25,3.73.29.03.88.09,1.17.12.06-1.24-.05-2.47-.25-3.69-.23-.05-.46-.1-.68-.15Z"/>
        <g>
          <path class="cls-2" d="M338.38,30.23c.53-.42,1.06-.82,1.61-1.23.18.39.38.78.57,1.17-.73.03-1.46.05-2.18.05Z"/>
          <path class="cls-2" d="M345.29,54.01c.22.05.44.1.67.15.21,1.22.31,2.45.25,3.69-.29-.03-.88-.09-1.17-.12.18-1.23,1.1-2.56.25-3.73Z"/>
          <path class="cls-2" d="M379.46,106.42c.2.95.23,1.93.23,2.91-.51-.48-1.01-.98-1.5-1.48.42-.48.83-.96,1.26-1.43Z"/>
        </g>
        <path class="cls-3" d="M415.77,39.84c2.6-.16,5.18-.55,7.78-.7,1.86-.12,3.6.73,5.46.75,2.98.14,6.06-.03,8.88,1.16-3.09,2.94-6.66,5.55-10.76,6.88-2.54.89-5.23,1.74-7.96,1.29-1.82-.35-3.72.17-5.49-.48-2.19-.71-4.56-1.82-5.63-3.99,1.04-1.81,3.01-2.76,4.73-3.8.91-.55,1.89-1.09,2.99-1.11Z"/>
        <path class="cls-27" d="M370.32,43.3c1.45.62,2.34,2.03,3.46,3.08.02.21.05.62.06.82-.72.45-1.45,1.08-2.35,1.03-1.51-.67-2.45-2.32-2.13-3.98.32-.32.64-.63.96-.95Z"/>
        <path class="cls-18" d="M299.56,48.73c3.06-.65,6.28-.6,9.3.21,2.35.73,3.93,2.79,5.02,4.89,2.06,3.92,2.86,8.5,2.32,12.89-.52,3.45-2.88,6.16-4.94,8.82-5.9,7.25-12.31,14.2-19.91,19.71-1.48-1.65-2.9-3.4-3.87-5.39-.44-.8-.32-1.73-.29-2.59-4.83-5.84-11.24-10.13-15.98-16.04-2.25-2.88-4.2-6.26-4.4-9.99-.14-2.82,1.24-5.56,3.49-7.24,3.65-2.62,8.42-3.26,12.77-2.45,3.33.66,6.69,2.31,8.5,5.3.11.09.33.27.44.37.15-1.38.16-2.85.91-4.08,1.36-2.42,4.02-3.78,6.64-4.41ZM279.84,65.99c.52.48.89,1.35,1.7,1.36,1.4.16,2.33-1.08,3.21-1.97-.35-.78-.74-1.54-1.19-2.27-1.45.68-2.41,2-3.72,2.89Z"/>
        <path class="cls-24" d="M346.55,49.64c1.2-.04,1.94.95,2.33,1.95-.99-.36-1.81-1.03-2.33-1.95Z"/>
        <path class="cls-11" d="M219.57,59.7c2.14-.8,4.32-1.62,6.63-1.67,2.19-.07,4.39-.13,6.58.14,1.23.36,2.51.64,3.67,1.21,3.63,1.74,7.29,3.52,10.53,5.94,2.43,1.68,4.61,3.77,6.31,6.19,1.83,2.98,3.58,6.11,4.44,9.52.51,3.41.35,6.94-.41,10.3-.54,2.18-1.03,4.37-1.64,6.53-.29,1.01-1.06,1.76-1.75,2.5-1.62,1.68-3.39,3.3-4.48,5.4-.87,1.67-1.49,3.54-2.95,4.81-2.16,1.9-4.79,3.18-7.47,4.21-1.22.51-2.46,1-3.72,1.39-1.35.62-2.68,1.29-3.96,2.05-3.92.1-8,.53-11.75-.87-1.15-.34-2.18-.95-3.02-1.79-.29-.9-.62-1.79-.95-2.67-.41-.1-.81-.2-1.21-.3-9.01-3.85-15.59-12.7-16.93-22.36-.36-3.05-.22-6.14.35-9.16.62-1.9,1.5-3.71,2.31-5.54,2.04-3.63,3.74-7.96,7.62-9.99,4.08-1.65,7.64-4.35,11.79-5.85ZM202.1,87.62c.39-.29.77-.57,1.17-.85-.01-.85-.03-1.7-.09-2.55-.8.96-1,2.2-1.07,3.4Z"/>
        <path class="cls-21" d="M391.8,64.62c2.38-2.28,5.81-2.89,8.98-2.93,5.44-.15,10.81,1.03,16.11,2.13,3.04.77,6.31,1.64,8.59,3.92,1.97,1.83,1.47,5.4-.74,6.81-1.39.95-3.02,1.49-4.63,1.94-3.91.96-7.96,1.17-11.97,1.32-3.91.08-7.89-.05-11.63-1.29-2.33-.58-4.69-2.13-5.37-4.54-.43-2.48.87-4.87.66-7.36ZM399.25,67.68c1.47.83,3.15,1.55,4.87,1.26.59-.04.91-.59,1.27-.99-2.02-.41-4.1-.45-6.15-.27ZM418.44,70.82c.46-.03.93-.05,1.41-.08,0-.25,0-.74,0-.98-.3-.08-.91-.24-1.21-.32-.07.46-.14.92-.2,1.39Z"/>
        <g>
          <path class="cls-22" d="M279.84,65.99c1.31-.88,2.27-2.2,3.72-2.89.44.73.84,1.49,1.19,2.27-.87.89-1.8,2.13-3.21,1.97-.81,0-1.18-.88-1.7-1.36Z"/>
          <path class="cls-22" d="M379.98,64.62c-.59,1.11-1.7,1.78-2.74,2.42.64-1.08,1.74-1.72,2.74-2.42Z"/>
          <path class="cls-22" d="M374.47,69.24c.14.14.28.27.43.41-1.22.9-2.38,1.89-3.75,2.57.91-1.21,2.32-1.86,3.32-2.98Z"/>
        </g>
        <g>
          <path class="cls-8" d="M399.25,67.68c2.05-.18,4.12-.15,6.15.27-.36.4-.68.94-1.27.99-1.72.29-3.4-.43-4.87-1.26Z"/>
          <path class="cls-8" d="M279.93,154.24c2.98-.34,5.9.71,8.66,1.71-.3.02-.59.03-.89.04-.52-.08-1.04-.15-1.56-.19-2.1-.38-4.14-1.04-6.21-1.56Z"/>
          <path class="cls-8" d="M271.92,156.05c-.06-.18-.17-.52-.23-.7,1.68.15,3.32.57,4.83,1.32-1.55.76-3.22.22-4.6-.62Z"/>
          <path class="cls-8" d="M246.93,168.52c.24-.26.59-.51.95-.29l.14.18c.25,1.31,1.18,2.29,2.09,3.19,2.24,2.4,4.86,4.42,7.62,6.2,1.21.8,2.48,1.5,3.72,2.24-.42-.17-.84-.34-1.25-.51-3.76-1.62-7.25-3.87-10.18-6.75-1.16-1.33-1.84-3.01-3.09-4.27Z"/>
          <path class="cls-8" d="M323,181.85c.17-.02.52-.06.7-.08.35.24.72.48,1.08.72-.65.03-1.3.05-1.95.08.04-.18.12-.54.17-.72Z"/>
        </g>
        <path class="cls-10" d="M418.44,70.82c.06-.46.13-.92.2-1.39.3.08.91.24,1.21.32,0,.25,0,.74,0,.98-.47.02-.94.05-1.41.08Z"/>
        <path class="cls-28" d="M202.1,87.62c.08-1.21.28-2.44,1.07-3.4.06.85.08,1.7.09,2.55-.39.28-.78.56-1.17.85Z"/>
        <path class="cls-7" d="M368.63,91.06c2.78-2.12,5.99-3.75,9.47-4.35,3.31-.57,6.77-.23,9.93.89,1.39.52,2.88.88,4.12,1.76,2.44,1.7,3.84,4.64,4.09,7.56-.23,1.91-.28,3.85-.02,5.76.33,2.35.19,4.73.32,7.09v.17c-1.21,2.08-2.59,4.14-4.53,5.61-3.14,2.16-6.62,4.06-10.46,4.52-3.61.33-7.27-.47-10.58-1.88-4.4-2.22-4.62-8.17-8.75-10.67-2.06-1.42-4.17-3.02-5.3-5.31-.88-1.76-.54-3.87.41-5.53.89-1.53,1.88-3.19,3.54-3.97,2.51-.92,5.53.1,7.76-1.65ZM380.82,93.58c1.36.91,2.88,1.62,4.06,2.79-.04,1.12-.68,1.9-1.72,2.24-2.76-.76-6.15.29-7.24,3.11.29-.12.59-.23.9-.35.21.09.62.27.82.36,1.88-.66,3.82-.1,5.73,0,.86.32,1.74.59,2.62.87.13-.77.27-1.53.41-2.3l.1.07c.3-.96.64-1.92.95-2.88-.78-1.32-1.68-2.68-3.1-3.39-1.07-.62-2.34-.56-3.53-.54ZM379.46,106.42c-.43.47-.84.95-1.26,1.43.49.5.99.99,1.5,1.48,0-.98-.04-1.96-.23-2.91Z"/>
        <path class="cls-13" d="M380.82,93.58c1.18-.02,2.46-.08,3.53.54,1.42.71,2.32,2.07,3.1,3.39-.31.96-.65,1.92-.95,2.88l-.1-.07c-.12-.09-.37-.27-.5-.36.06-1.28-.18-2.59-1.02-3.59-1.18-1.17-2.7-1.88-4.06-2.79Z"/>
        <g>
          <path class="cls-17" d="M384.88,96.38c.85,1.01,1.09,2.31,1.02,3.59-.84-.59-1.76-1.07-2.75-1.35,1.05-.34,1.68-1.12,1.72-2.24Z"/>
          <path class="cls-17" d="M396.21,102.67c-.26-1.92-.21-3.85.02-5.76.51,2.26.55,4.58.71,6.89.06,1.98.38,4.07-.41,5.96-.13-2.36,0-4.74-.32-7.09Z"/>
        </g>
        <path class="cls-9" d="M375.92,101.73c1.09-2.83,4.49-3.87,7.24-3.11.99.28,1.91.76,2.75,1.35.12.09.37.27.5.36-.15.76-.29,1.53-.41,2.3-.88-.27-1.76-.55-2.62-.87-2.06-.88-4.44-1.4-6.55-.37-.31.11-.61.23-.9.35Z"/>
        <g>
          <path class="cls-16" d="M376.81,101.38c2.11-1.03,4.49-.51,6.55.37-1.91-.1-3.85-.66-5.73,0-.21-.09-.62-.27-.82-.36Z"/>
          <path class="cls-16" d="M286.14,155.8c.52.04,1.04.11,1.56.19-.27.64-1.66.62-1.56-.19Z"/>
        </g>
        <path class="cls-15" d="M324.32,116.92c2.72-.46,5.49.17,8.08,1,5.68,1.91,10.48,5.58,15.57,8.62,1.67.82,2.77,2.36,4.08,3.63,3.69,3.77,7.05,7.84,10.74,11.6,3.08,3.33,6.46,6.81,7.49,11.39-10.74-.19-21.46-1.12-32.14-2.33-5.92-.77-11.86-1.59-17.62-3.17-2.56-.74-5.22-1.5-7.35-3.17-4.62-4.37-6.44-11.61-4.02-17.55.91-2.34,2.66-4.24,4.66-5.73,1.51.88,2.96-.23,4.47-.49.84.08,1.57.53,2.33.86,11.01,5.18,21.1,12.1,30.61,19.63-8.58-8.49-18.42-16.05-29.82-20.28l-.46-.15c.23-1.83,1.51-3.51,3.39-3.86ZM314.94,137.1c.51,1.56,1.38,3,2.6,4.11,3.09,2.79,7.06,4.29,11,5.44-4.82-2.74-9.58-5.69-13.6-9.55ZM361.9,148.89c.05,1.08.13,2.16.26,3.24.61-.32,1.24-.64,1.85-.97-.66-.8-1.39-1.54-2.11-2.27Z"/>
        <path class="cls-20" d="M321.38,120.93c11.41,4.23,21.24,11.79,29.82,20.28-9.52-7.54-19.6-14.45-30.61-19.63.2-.16.59-.48.79-.65Z"/>
        <path class="cls-14" d="M314.94,137.1c4.02,3.85,8.78,6.81,13.6,9.55-3.94-1.14-7.91-2.65-11-5.44-1.22-1.11-2.08-2.55-2.6-4.11Z"/>
        <g>
          <path class="cls-6" d="M257.51,145.61c5.5-2.9,12.05-2.58,18-1.48,3.81.84,7.64,1.84,11.16,3.56-1.91-.04-3.62-1.26-5.58-.92-1.26-.91-2.73-1.48-4.27-1.66-3.29-.51-6.58-1.26-9.92-1.31-3.26-.11-6.15,1.74-9.39,1.82Z"/>
          <path class="cls-6" d="M250.11,171.61c1.86.32,2.73,2.15,4.22,3.1,1.27.87,2.83,1.54,3.41,3.1-2.76-1.78-5.38-3.8-7.62-6.2Z"/>
        </g>
        <path class="cls-26" d="M257.51,145.61c3.24-.08,6.13-1.94,9.39-1.82,3.34.05,6.62.8,9.92,1.31,1.54.18,3.01.75,4.27,1.66,1.96-.34,3.66.88,5.58.92,2.9.85,5.55,2.41,8.26,3.73,6.06,3.22,11.88,6.97,17.06,11.48,2.03,1.97,3.99,4,6,5.99-.16.48-.3.96-.45,1.45.5.16,1.01.33,1.52.5.21.41.43.83.65,1.25.38.2.76.39,1.15.6.21.48.42.97.68,1.44.46-.08.9-.22,1.36-.34h.04c2.26,2.48,4.96,4.67,6.65,7.62,3.56,2.21,7.44,3.88,10.85,6.32.05.18.14.55.19.74-10.48-1.39-21.11-2.02-31.66-1.1,1.4-.39,2.86-.46,4.3-.53-3.17-.85-6.25.49-9.35.91-5.29.65-10.61.02-15.89-.41-2.44-.2-4.89-1.2-7.32-.42-1.47.12-2.9-.37-4.33-.6l-.11-.11c-.99-1.41-2.87-1.19-4.34-1.61-2.25-.59-4.5-1.17-6.75-1.76-2.04-.81-4.09-1.64-6.26-2.06.43-.41.85-.83,1.29-1.24.41.18.83.34,1.25.51-1.24-.74-2.52-1.44-3.72-2.24-.58-1.56-2.13-2.23-3.41-3.1-1.49-.95-2.35-2.78-4.22-3.1-.91-.9-1.84-1.88-2.09-3.19l-.14-.18c-.36-.23-.71.03-.95.29,1.25,1.25,1.93,2.93,3.09,4.27.07.25.22.75.3,1,1.16,1.81,3.32,2.59,4.58,4.28-.81.12-1.62.24-2.42.36-3.12-1.93-6.14-4.41-7.62-7.87-1.7-3.69-1.01-7.98.46-11.63,1.42-3.67,4.17-6.57,6.75-9.46,1.57-1.57,3.36-3.04,5.44-3.86ZM279.93,154.24c2.07.52,4.11,1.18,6.21,1.56-.1.81,1.29.83,1.56.19.29,0,.58-.02.89-.04-2.76-1.01-5.68-2.05-8.66-1.71ZM271.92,156.05c1.38.84,3.05,1.38,4.6.62-1.51-.75-3.15-1.17-4.83-1.32.06.18.17.52.23.7ZM323,181.85c-.04.18-.13.54-.17.72.65-.03,1.29-.05,1.95-.08-.36-.24-.73-.48-1.08-.72-.18.02-.53.06-.7.08Z"/>
        <path class="cls-12" d="M361.9,148.89c.73.73,1.45,1.47,2.11,2.27-.61.33-1.24.65-1.85.97-.14-1.08-.21-2.16-.26-3.24Z"/>
        <path class="cls-23" d="M317.98,168.89c1.65,1.61,3.32,3.21,4.9,4.89-.46.12-.9.26-1.36.34-.26-.47-.47-.96-.68-1.44-.39-.21-.77-.4-1.15-.6-.22-.42-.44-.84-.65-1.25-.51-.17-1.02-.34-1.52-.5.15-.48.29-.97.45-1.44Z"/>
        <path class="cls-19" d="M250.02,172.79c2.92,2.88,6.42,5.12,10.18,6.75-.44.41-.86.83-1.29,1.24,2.17.41,4.21,1.25,6.26,2.06,2.25.59,4.5,1.17,6.75,1.76,1.47.42,3.35.2,4.34,1.61-8.19-1.57-16.48-3.59-23.78-7.78.8-.12,1.61-.23,2.42-.36-1.26-1.68-3.42-2.47-4.58-4.28-.07-.25-.22-.75-.3-1Z"/>
        <path class="cls-4" d="M280.7,186.92c2.44-.77,4.88.23,7.32.42,5.28.43,10.6,1.06,15.89.41,3.11-.42,6.19-1.77,9.35-.91-1.45.07-2.9.14-4.3.53-6.9,1.85-14.14,1.25-21.15.41-2.37-.32-4.77-.45-7.12-.86Z"/>
      </g>
      <g>
        <path class="cls-25" d="M120.38,218.1v20.72h20.08v-20.72h12.16v53.92h-12.16v-22.56h-20.08v22.56h-12.24v-53.92h12.24Z"/>
        <path class="cls-25" d="M175.82,258.18l-3.84,13.84h-12.64l16.48-53.92h16l16.72,53.92h-13.12l-4.16-13.84h-15.44ZM189.5,249.06l-3.36-11.44c-.96-3.2-1.92-7.2-2.72-10.4h-.16c-.8,3.2-1.6,7.28-2.48,10.4l-3.2,11.44h11.92Z"/>
        <path class="cls-25" d="M219.5,228.34h-14.48v-10.24h41.44v10.24h-14.72v43.68h-12.24v-43.68Z"/>
        <path class="cls-25" d="M259.74,258.18l-3.84,13.84h-12.64l16.48-53.92h16l16.72,53.92h-13.12l-4.16-13.84h-15.44ZM273.42,249.06l-3.36-11.44c-.96-3.2-1.92-7.2-2.72-10.4h-.16c-.8,3.2-1.6,7.28-2.48,10.4l-3.2,11.44h11.92Z"/>
        <path class="cls-25" d="M304.54,272.02v-22.08l-17.04-31.84h13.92l5.52,12.96c1.68,3.92,2.8,6.8,4.16,10.32h.16c1.2-3.36,2.48-6.48,4.08-10.32l5.44-12.96h13.68l-17.76,31.44v22.48h-12.16Z"/>
      </g>
      <g>
        <path class="cls-25" d="M19.25,299.79c1.73-.43,3.79-.71,6.12-.71,3.31,0,6.12.71,8.08,2.55,1.57,1.46,2.39,3.63,2.39,6.23,0,3.74-2.06,6.72-5.64,8.13v.11c4.23,1.14,6.77,4.55,6.77,9.32,0,3.03-.98,5.47-2.6,7.26-2.06,2.33-5.47,3.31-9.65,3.31-2.71,0-4.34-.16-5.47-.38v-35.82ZM23.42,314.74h1.9c3.42,0,6.34-2.6,6.34-6.45,0-3.36-1.57-5.96-6.02-5.96-.98,0-1.73.11-2.22.27v12.14h0ZM23.42,332.47c.49.11,1.19.22,2.11.22,4.34,0,7.15-2.55,7.15-7.26,0-5.04-3.52-7.42-7.42-7.48h-1.84v14.53h0Z"/>
        <path class="cls-25" d="M46.13,299.24v24.5c0,6.56,2.17,8.78,4.99,8.78,3.09,0,5.04-2.39,5.04-8.78v-24.5h4.17v23.85c0,9.48-3.9,13.12-9.32,13.12s-9.05-3.58-9.05-12.63v-24.34h4.17ZM44.4,293.99c0-1.46,1.03-2.55,2.33-2.55,1.41,0,2.33,1.08,2.33,2.55s-.92,2.49-2.33,2.49c-1.3,0-2.33-.97-2.33-2.49ZM53.18,293.99c0-1.46.98-2.55,2.33-2.55s2.33,1.08,2.33,2.55-.92,2.49-2.33,2.49-2.33-.97-2.33-2.49Z"/>
        <path class="cls-25" d="M71.77,335.77v-15.45l-8.02-21.08h4.39l3.25,9.16c.92,2.55,1.9,5.42,2.71,8.24h.11c.76-2.82,1.68-5.58,2.66-8.4l3.09-9h4.39l-8.4,20.92v15.61h-4.17Z"/>
        <path class="cls-25" d="M91.93,299.24v24.5c0,6.56,2.17,8.78,4.99,8.78,3.09,0,5.04-2.39,5.04-8.78v-24.5h4.17v23.85c0,9.48-3.9,13.12-9.32,13.12s-9.05-3.58-9.05-12.63v-24.34h4.17ZM90.19,293.99c0-1.46,1.03-2.55,2.33-2.55,1.41,0,2.33,1.08,2.33,2.55s-.92,2.49-2.33,2.49c-1.3,0-2.33-.97-2.33-2.49ZM98.97,293.99c0-1.46.98-2.55,2.33-2.55s2.33,1.08,2.33,2.55-.92,2.49-2.33,2.49-2.33-.97-2.33-2.49Z"/>
        <path class="cls-25" d="M112.58,299.24h4.17v17.34h.11c.81-1.52,1.57-2.98,2.28-4.39l6.83-12.95h4.61l-8.94,15.61,9.16,20.92h-4.5l-7.48-17.61-2.06,3.52v14.09h-4.17v-36.53h0Z"/>
        <path class="cls-25" d="M133.66,330.95c1.25.81,3.41,1.46,5.26,1.46,3.79,0,6.07-2.49,6.07-6.18,0-3.36-1.95-5.42-4.82-7.59-2.87-2.01-6.88-5.42-6.88-10.14,0-5.53,3.85-9.59,9.65-9.59,2.28,0,4.28.71,5.15,1.35l-1.03,3.58c-.92-.65-2.44-1.25-4.34-1.25-3.58,0-5.26,2.71-5.26,5.2,0,3.63,1.9,5.04,5.37,7.53,4.39,3.09,6.34,6.45,6.34,10.52,0,5.09-2.87,8.62-7.05,9.81l-1.46,2.82c1.84.27,3.52,1.79,3.52,3.85,0,3.09-2.55,4.28-4.93,4.28-1.3,0-2.66-.43-3.58-.98l.81-2.28c.87.54,1.68.81,2.71.81.98,0,2.01-.38,2.01-1.68,0-1.46-1.79-2.11-3.74-2.33l1.84-4.07h-.38c-2.49,0-5.15-.81-6.18-1.57l.92-3.58Z"/>
        <path class="cls-25" d="M167.37,318.43h-9.16v13.71h10.41v3.63h-14.58v-36.53h13.93v3.63h-9.76v12.03h9.16v3.52h0Z"/>
        <path class="cls-25" d="M177.4,299.24v15.66h10.24v-15.66h4.17v36.53h-4.17v-17.07h-10.24v17.07h-4.17v-36.53h4.17Z"/>
        <path class="cls-25" d="M198.05,293.93c0-1.35,1.08-2.39,2.44-2.39s2.39,1.03,2.39,2.39-1.08,2.44-2.39,2.44-2.44-1.08-2.44-2.44ZM202.49,299.24v36.53h-4.17v-36.53h4.17Z"/>
        <path class="cls-25" d="M209.1,299.79c1.79-.49,3.96-.71,6.02-.71,3.63,0,6.34.76,8.24,2.6,1.79,1.84,2.55,4.28,2.55,7.15,0,4.66-2.17,7.7-5.85,9.38v.11c2.71.81,4.12,3.41,4.93,8.18.81,5.04,1.57,8.13,2.06,9.27h-4.23c-.54-1.08-1.25-4.55-1.95-9.05-.81-4.99-2.39-6.88-5.96-6.88h-1.63v15.93h-4.17v-35.99h0ZM213.28,316.64h1.73c4.01,0,6.67-2.93,6.67-7.32s-1.73-6.83-6.23-6.88c-.81,0-1.63.05-2.17.22v13.98Z"/>
        <path class="cls-25" d="M239.78,299.79c1.73-.43,3.79-.71,6.12-.71,3.31,0,6.12.71,8.08,2.55,1.57,1.46,2.39,3.63,2.39,6.23,0,3.74-2.06,6.72-5.64,8.13v.11c4.23,1.14,6.78,4.55,6.78,9.32,0,3.03-.98,5.47-2.6,7.26-2.06,2.33-5.47,3.31-9.65,3.31-2.71,0-4.34-.16-5.47-.38v-35.82h0ZM243.95,314.74h1.9c3.41,0,6.34-2.6,6.34-6.45,0-3.36-1.57-5.96-6.02-5.96-.98,0-1.73.11-2.22.27v12.14ZM243.95,332.47c.49.11,1.19.22,2.11.22,4.34,0,7.15-2.55,7.15-7.26,0-5.04-3.52-7.42-7.42-7.48h-1.84v14.53Z"/>
        <path class="cls-25" d="M275.66,318.43h-9.16v13.71h10.41v3.63h-14.58v-36.53h13.93v3.63h-9.75v12.03h9.16v3.52h0Z"/>
        <path class="cls-25" d="M281.51,299.24h4.17v33.01h10.3v3.52h-14.47v-36.53h0Z"/>
        <path class="cls-25" d="M313.49,318.43h-9.16v13.71h10.41v3.63h-14.58v-36.53h13.93v3.63h-9.76v12.03h9.16v3.52h0Z"/>
        <path class="cls-25" d="M319.34,299.79c1.63-.49,3.52-.71,5.64-.71,3.85,0,6.56.98,8.56,2.76,2.82,2.44,4.93,7.15,4.93,14.8,0,8.35-2.06,12.9-4.39,15.39-2.39,2.71-5.85,3.96-10.08,3.96-1.68,0-3.41-.11-4.66-.38v-35.82ZM323.51,332.36c.6.11,1.19.11,1.57.11,4.61,0,9.05-3.31,9.05-15.72,0-9.21-2.82-14.25-8.67-14.25-.65,0-1.41.05-1.95.22v29.65h0Z"/>
        <path class="cls-25" d="M343.19,293.93c0-1.35,1.08-2.39,2.44-2.39s2.39,1.03,2.39,2.39-1.08,2.44-2.39,2.44-2.44-1.08-2.44-2.44ZM347.63,299.24v36.53h-4.17v-36.53h4.17Z"/>
        <path class="cls-25" d="M359.55,335.77v-15.45l-8.02-21.08h4.39l3.25,9.16c.92,2.55,1.9,5.42,2.71,8.24h.11c.76-2.82,1.68-5.58,2.66-8.4l3.09-9h4.39l-8.4,20.92v15.61h-4.17Z"/>
        <path class="cls-25" d="M388.93,318.43h-9.16v13.71h10.41v3.63h-14.58v-36.53h13.93v3.63h-9.76v12.03h9.16v3.52h0Z"/>
        <path class="cls-25" d="M393.97,330.95c1.25.81,3.41,1.46,5.26,1.46,3.79,0,6.07-2.49,6.07-6.18,0-3.36-1.95-5.42-4.82-7.59-2.87-2.01-6.88-5.42-6.88-10.14,0-5.53,3.85-9.59,9.65-9.59,2.28,0,4.28.71,5.15,1.35l-1.03,3.58c-.92-.65-2.44-1.25-4.34-1.25-3.58,0-5.26,2.71-5.26,5.2,0,3.63,1.9,5.04,5.37,7.53,4.39,3.09,6.34,6.45,6.34,10.52,0,6.29-4.44,10.24-10.24,10.24-2.49,0-5.15-.81-6.18-1.57l.92-3.58Z"/>
        <path class="cls-25" d="M414.07,293.93c0-1.35,1.08-2.39,2.44-2.39s2.39,1.03,2.39,2.39-1.08,2.44-2.39,2.44-2.44-1.08-2.44-2.44ZM418.52,299.24v36.53h-4.17v-36.53h4.17Z"/>
      </g>
    </g>
  </g>
</svg>