<?xml version="1.0" encoding="iso-8859-1"?>
<!-- Generator: Adobe Illustrator 29.7.1, SVG Export Plug-In . SVG Version: 9.03 Build 0)  -->
<svg version="1.1" id="Layer_1" xmlns="http://www.w3.org/2000/svg" xmlns:xlink="http://www.w3.org/1999/xlink" x="0px" y="0px"
	 viewBox="0 0 1375 1083" style="enable-background:new 0 0 1375 1083;" xml:space="preserve">
<g>
	<g>
		<g>
			<path style="fill:#A7C316;" d="M825.938,366.471c1.423-0.048,1.856,1.457,2.344,2.509c0.708,2.062,2.146,3.797,2.66,5.932
				c0.704,2.865,0.576,5.852,1.089,8.746c0.345,2.704,1.108,5.353,1.188,8.086c0.033,2.964,1.079,5.84,0.829,8.827
				c-0.246,5.705-3.749,10.855-8.408,13.966c-0.422-0.818-1.16-1.592-1.178-2.539c0.422-0.88,1.111-1.68,1.086-2.711
				c-0.965-0.106-1.919-0.264-2.862-0.473c-1.002-1.321-3.066-1.303-3.76-2.884c-1.13-2.748-0.763-5.786-0.733-8.68
				c0.385-4.201,0.811-8.434,2.032-12.492C821.873,378.577,825.135,372.883,825.938,366.471z"/>
		</g>
		<g>
			<path style="fill:#333333;" d="M859.128,396.615c2.392-2.032,4.546-4.325,6.934-6.361c-2.109,2.905-4.49,5.609-6.731,8.415
				c-4.634,5.613-9.37,11.179-14.719,16.131c-5.921,5.621-12.697,10.305-18.255,16.318c-0.48-0.121-1.042-0.657-1.486-0.188
				c-0.594,0.484-0.444,1.292-0.462,1.963c-11.284,9.927-23.71,18.45-36.304,26.616c-0.958,0.602-2.179,0.59-3.075,1.31
				c-1.28,0.936-2.553,2.186-4.285,1.926c-0.771,1.093-2.04,1.537-3.239,1.974c-0.518,0.128-0.881,0.477-0.965,1.005
				c-2.201,0.367-3.951,1.845-5.649,3.177c1.42,0.139,3.195,0.172,4.091-1.163c0.807-0.139,1.603-0.349,2.37-0.642
				c0.092-0.15,0.279-0.447,0.371-0.598c-0.059-0.209-0.18-0.623-0.238-0.829c0.873-0.033,1.724,0.198,2.568,0.422
				c0.018-0.231,0.055-0.697,0.073-0.932c-0.308-0.066-0.928-0.202-1.236-0.268c0.818-0.815,1.941-0.499,2.935-0.253
				c0.198-1.655,1.878-2.246,3.137-2.957c0.033,0.176,0.102,0.536,0.139,0.715c0.91-1.057,1.974-1.974,3.199-2.652
				c0.025,0.282,0.073,0.844,0.095,1.123c1.115-0.521,2.168-1.167,3.148-1.915c-0.748,0.231-1.486,0.488-2.234,0.708
				c1.482-1.49,3.335-2.722,5.474-2.946c0.587-1.699,2.381-2.539,4.024-2.884c0.242-0.583,0.704-0.807,1.328-0.686
				c1.439-2.055,3.977-2.884,5.672-4.696c-0.055,0.345-0.158,1.039-0.209,1.383c0.727-0.811,0.987-2.084,2.058-2.531
				c-0.088,0.488-0.176,0.976-0.268,1.463c0.609-0.624,1.145-1.328,1.801-1.904c5.246-3.867,9.641-8.753,14.976-12.506
				c-0.026,0.29-0.074,0.873-0.099,1.163c0.759-0.547,0.983-1.427,1.295-2.241c1.009-1.446,2.502-2.437,3.845-3.541
				c0.125,0.015,0.371,0.041,0.495,0.051c-0.242,0.184-0.733,0.547-0.976,0.727c1.743,0.502,1.937-1.625,2.131-2.832
				c0.03,0.69,0.312,1.24,1.005,1.464c-5.202,6.266-10.987,12.059-17.357,17.147c-7.135,5.77-14.957,10.643-22.991,15.059
				c-11.442,6.244-23.266,11.744-34.811,17.789c-11.332,5.932-22.412,12.367-34.066,17.653
				c-13.189,6.131-26.95,10.918-40.839,15.181c-7.767,2.37-15.562,4.663-23.468,6.526c-1.435,0.367-2.909,0.51-4.373,0.712
				c-17.4,4.109-34.903,7.789-52.369,11.629c-2.421,0.48-4.802,1.188-7.26,1.489c-8.966,1.149-17.914,2.598-26.946,3.118
				c-2.938-0.161-5.858,0.147-8.786,0.367c-17.062,1.445-34.213,3.284-51.346,1.926c-9.425-0.679-18.776-2.3-27.896-4.769
				c-5.907-1.581-12.478-1.735-17.555-5.528c-1.801-1.134-2.447-3.251-3.558-4.942c-2.003-2.839-5.536-3.925-7.895-6.372
				c-2.047-2.043-1.526-5.169-1.643-7.789c2.337-0.855,4.677,0.15,6.717,1.277c1.339,0.928,2.704-0.591,4.131-0.334
				c0.767,0.202,1.397-0.517,2.146-0.323c16.74,4.527,34.217,4.23,51.393,5.06c27.867,1.119,55.92,2.439,83.667-1.189
				c16.046-2.168,32.067-4.545,48.051-7.146c7.377-1.504,14.792-2.835,22.173-4.329c8.629-1.702,16.986-4.494,25.402-7.003
				c2.986-0.84,5.829-2.102,8.845-2.843c13.031-3.772,24.987-10.397,37.812-14.737c1.376-0.576,2.234-1.977,3.646-2.513
				c13.526-5.253,25.805-13.159,39.1-18.923c5.826-4.281,12.382-7.396,18.512-11.196c1.794-1.35,3.394-2.954,5.195-4.303
				c3.683-2.81,7.539-5.386,11.222-8.196c1.273-0.95,2.414-2.087,3.83-2.84c0.635-0.315,0.958-0.983,1.489-1.431
				C834.552,417.311,847.135,407.31,859.128,396.615z M828.683,431.09c-1.002,0.7-2.099,1.335-2.737,2.418
				C826.984,432.873,828.092,432.205,828.683,431.09z M823.168,435.705c-0.998,1.116-2.414,1.765-3.32,2.979
				c1.369-0.675,2.524-1.669,3.746-2.568C823.447,435.976,823.304,435.84,823.168,435.705z"/>
		</g>
		<g>
			<g>
				<path style="fill:#EC3C15;" d="M786.413,393.186c2.014-0.741,4.241-0.683,6.288-0.081c0.928,0.664,2.436,0.964,2.594,2.3
					c0.55,4.321-1.16,8.899,0.745,13.045c1.607,3.779,6.262,4.817,8.126,8.394c1.816,4.494,1.163,10.232-2.524,13.622
					c-1.64,1.765-4.134,2.135-6.13,3.335c-2.964-0.353-5.705-1.794-8.177-3.397c-5.209-3.533-9.183-8.889-10.991-14.924
					c-1.471-5.055-1.185-10.793,1.566-15.368C780.055,397.122,782.898,394.447,786.413,393.186z M787.08,396.696
					c0.723-0.004,1.449-0.029,2.179-0.055c-0.191-0.393-0.392-0.782-0.572-1.17C788.144,395.875,787.608,396.282,787.08,396.696z
					 M795.254,416.11c0.514,0.921,1.339,1.589,2.326,1.948C797.191,417.057,796.454,416.066,795.254,416.11z M793.988,420.477
					c0.855,1.166-0.066,2.502-0.246,3.73c0.293,0.029,0.88,0.088,1.174,0.118c0.059-1.24-0.048-2.473-0.253-3.694
					C794.432,420.579,794.205,420.527,793.988,420.477z"/>
			</g>
		</g>
		<g>
			<path style="fill:#FFEDDD;" d="M787.08,396.696c0.528-0.415,1.064-0.822,1.607-1.225c0.18,0.389,0.381,0.778,0.572,1.17
				C788.529,396.667,787.803,396.692,787.08,396.696z"/>
			<path style="fill:#FFEDDD;" d="M793.988,420.477c0.216,0.051,0.444,0.102,0.675,0.154c0.206,1.222,0.312,2.454,0.253,3.694
				c-0.294-0.029-0.88-0.088-1.174-0.118C793.922,422.979,794.843,421.643,793.988,420.477z"/>
			<path style="fill:#FFEDDD;" d="M828.158,472.886c0.198,0.954,0.235,1.934,0.235,2.91c-0.51-0.485-1.009-0.979-1.497-1.479
				C827.314,473.836,827.728,473.356,828.158,472.886z"/>
		</g>
		<g>
			<path style="fill:#AC7793;" d="M864.473,406.305c2.598-0.162,5.176-0.551,7.781-0.705c1.86-0.125,3.603,0.73,5.456,0.752
				c2.983,0.139,6.061-0.029,8.875,1.156c-3.089,2.942-6.659,5.547-10.76,6.878c-2.542,0.888-5.232,1.739-7.957,1.288
				c-1.819-0.349-3.724,0.172-5.488-0.477c-2.194-0.715-4.556-1.823-5.631-3.988c1.038-1.812,3.012-2.755,4.729-3.797
				C862.393,406.858,863.365,406.319,864.473,406.305z"/>
		</g>
		<g>
			<path style="fill:#A6C21E;" d="M819.023,409.772c1.453,0.616,2.34,2.032,3.463,3.081c0.015,0.206,0.047,0.617,0.062,0.822
				c-0.723,0.455-1.453,1.079-2.352,1.027c-1.511-0.671-2.451-2.322-2.132-3.98C818.381,410.406,818.704,410.09,819.023,409.772z"/>
		</g>
		<g>
			<g>
				<path style="fill:#E20A17;" d="M748.267,415.204c3.056-0.646,6.28-0.602,9.303,0.213c2.348,0.733,3.929,2.792,5.015,4.89
					c2.061,3.922,2.861,8.496,2.315,12.888c-0.521,3.449-2.877,6.163-4.938,8.819c-5.903,7.246-12.312,14.205-19.906,19.711
					c-1.479-1.647-2.898-3.397-3.874-5.393c-0.44-0.796-0.319-1.728-0.287-2.594c-4.831-5.837-11.237-10.133-15.984-16.043
					c-2.248-2.883-4.204-6.258-4.402-9.989c-0.136-2.817,1.244-5.561,3.489-7.238c3.65-2.616,8.423-3.261,12.774-2.451
					c3.331,0.661,6.688,2.311,8.503,5.301c0.11,0.092,0.331,0.275,0.44,0.367c0.15-1.383,0.158-2.851,0.91-4.076
					C742.987,417.193,745.647,415.825,748.267,415.204z M728.54,432.458c0.518,0.48,0.888,1.35,1.699,1.357
					c1.401,0.157,2.333-1.083,3.206-1.97c-0.349-0.781-0.745-1.544-1.189-2.275C730.808,430.253,729.847,431.574,728.54,432.458z"/>
			</g>
		</g>
		<g>
			<path style="fill:#FEC4A0;" d="M795.254,416.11c1.2-0.044,1.937,0.947,2.326,1.948
				C796.593,417.699,795.768,417.032,795.254,416.11z"/>
		</g>
		<g>
			<g>
				<path style="fill:#FF890B;" d="M668.276,426.167c2.135-0.8,4.322-1.618,6.633-1.673c2.19-0.073,4.391-0.132,6.575,0.143
					c1.232,0.364,2.505,0.642,3.672,1.211c3.632,1.743,7.286,3.518,10.525,5.939c2.428,1.684,4.615,3.768,6.313,6.192
					c1.834,2.983,3.581,6.108,4.442,9.524c0.514,3.412,0.349,6.938-0.411,10.305c-0.539,2.18-1.027,4.374-1.644,6.531
					c-0.293,1.005-1.057,1.757-1.749,2.502c-1.618,1.684-3.39,3.298-4.476,5.4c-0.866,1.666-1.493,3.541-2.946,4.81
					c-2.161,1.9-4.795,3.185-7.466,4.208c-1.222,0.51-2.457,1.001-3.724,1.394c-1.353,0.616-2.678,1.288-3.955,2.05
					c-3.918,0.103-7.998,0.532-11.75-0.872c-1.145-0.341-2.179-0.947-3.02-1.79c-0.293-0.902-0.616-1.787-0.95-2.671
					c-0.407-0.099-0.811-0.201-1.21-0.304c-9.007-3.848-15.588-12.697-16.935-22.364c-0.356-3.049-0.22-6.142,0.355-9.157
					c0.62-1.904,1.504-3.706,2.308-5.536c2.036-3.628,3.738-7.958,7.624-9.99C660.564,430.371,664.13,427.67,668.276,426.167z
					 M650.799,454.092c0.389-0.286,0.774-0.569,1.167-0.852c-0.011-0.854-0.033-1.705-0.095-2.553
					C651.074,451.648,650.876,452.885,650.799,454.092z"/>
			</g>
		</g>
		<g>
			<g>
				<path style="fill:#559BB5;" d="M840.499,431.09c2.377-2.278,5.807-2.888,8.984-2.932c5.444-0.15,10.808,1.031,16.109,2.132
					c3.045,0.771,6.306,1.64,8.592,3.925c1.966,1.835,1.475,5.397-0.741,6.806c-1.394,0.954-3.015,1.493-4.63,1.937
					c-3.915,0.957-7.961,1.174-11.974,1.324c-3.911,0.077-7.887-0.051-11.633-1.291c-2.326-0.583-4.692-2.132-5.371-4.539
					C839.406,435.973,840.701,433.585,840.499,431.09z M847.954,434.149c1.467,0.826,3.151,1.545,4.872,1.255
					c0.594-0.044,0.91-0.591,1.273-0.987C852.077,434.002,850,433.966,847.954,434.149z M867.144,437.29
					c0.462-0.026,0.932-0.055,1.405-0.081c0-0.246,0.003-0.737,0.007-0.983c-0.304-0.081-0.906-0.242-1.21-0.323
					C867.276,436.365,867.206,436.827,867.144,437.29z"/>
			</g>
		</g>
		<g>
			<path style="fill:#F8FBF6;" d="M728.54,432.458c1.307-0.884,2.268-2.205,3.716-2.888c0.444,0.73,0.84,1.494,1.189,2.275
				c-0.873,0.888-1.805,2.128-3.206,1.97C729.428,433.808,729.058,432.939,728.54,432.458z"/>
			<path style="fill:#F8FBF6;" d="M828.683,431.09c-0.591,1.115-1.699,1.783-2.737,2.418
				C826.584,432.425,827.681,431.79,828.683,431.09z"/>
			<path style="fill:#F8FBF6;" d="M823.168,435.705c0.136,0.136,0.279,0.271,0.426,0.411c-1.222,0.898-2.377,1.893-3.746,2.568
				C820.754,437.469,822.171,436.82,823.168,435.705z"/>
		</g>
		<g>
			<path style="fill:#E7FFFF;" d="M847.954,434.149c2.047-0.183,4.124-0.147,6.145,0.268c-0.363,0.396-0.679,0.943-1.273,0.987
				C851.104,435.694,849.421,434.975,847.954,434.149z"/>
			<path style="fill:#E7FFFF;" d="M728.636,520.706c2.982-0.337,5.899,0.708,8.658,1.713c-0.301,0.019-0.595,0.033-0.885,0.037
				c-0.524-0.077-1.045-0.154-1.562-0.191C732.744,521.888,730.705,521.227,728.636,520.706z"/>
			<path style="fill:#E7FFFF;" d="M720.62,522.519c-0.059-0.176-0.172-0.524-0.231-0.701c1.677,0.154,3.32,0.572,4.831,1.321
				C723.672,523.895,721.999,523.363,720.62,522.519z"/>
			<path style="fill:#E7FFFF;" d="M695.636,534.992c0.239-0.261,0.587-0.514,0.947-0.286l0.136,0.183
				c0.246,1.31,1.178,2.286,2.091,3.188c2.245,2.4,4.864,4.421,7.62,6.2c1.207,0.803,2.479,1.5,3.724,2.245
				c-0.422-0.169-0.84-0.337-1.251-0.514c-3.757-1.625-7.253-3.871-10.177-6.747C697.566,537.927,696.888,536.247,695.636,534.992z"
				/>
			<path style="fill:#E7FFFF;" d="M771.702,548.32c0.172-0.022,0.524-0.059,0.7-0.081c0.353,0.242,0.715,0.48,1.079,0.723
				c-0.653,0.025-1.302,0.055-1.948,0.081C771.573,548.863,771.657,548.5,771.702,548.32z"/>
		</g>
		<g>
			<path style="fill:#B1E4F2;" d="M867.144,437.29c0.062-0.462,0.132-0.924,0.202-1.387c0.305,0.081,0.906,0.242,1.21,0.323
				c-0.003,0.246-0.007,0.737-0.007,0.983C868.076,437.234,867.606,437.264,867.144,437.29z"/>
		</g>
		<g>
			<path style="fill:#FFE598;" d="M650.799,454.092c0.077-1.207,0.275-2.443,1.071-3.404c0.062,0.847,0.084,1.698,0.095,2.553
				C651.573,453.523,651.188,453.806,650.799,454.092z"/>
		</g>
		<g>
			<g>
				<path style="fill:#923724;" d="M817.328,457.525c2.784-2.12,5.994-3.749,9.465-4.351c3.313-0.565,6.765-0.234,9.934,0.892
					c1.394,0.517,2.883,0.876,4.116,1.761c2.443,1.698,3.841,4.641,4.09,7.557c-0.228,1.912-0.282,3.845-0.022,5.76
					c0.327,2.352,0.187,4.725,0.319,7.087l0.007,0.173c-1.218,2.076-2.601,4.142-4.538,5.613c-3.144,2.157-6.618,4.061-10.463,4.52
					c-3.61,0.33-7.268-0.466-10.577-1.882c-4.399-2.223-4.619-8.167-8.75-10.665c-2.062-1.416-4.167-3.019-5.297-5.312
					c-0.884-1.761-0.536-3.874,0.415-5.529c0.888-1.526,1.882-3.191,3.54-3.969C812.078,458.259,815.094,459.283,817.328,457.525z
					 M829.526,460.053c1.361,0.914,2.88,1.625,4.057,2.792c-0.044,1.119-0.679,1.9-1.724,2.238c-2.755-0.756-6.148,0.29-7.242,3.114
					c0.293-0.117,0.594-0.234,0.898-0.345c0.206,0.088,0.617,0.268,0.822,0.359c1.878-0.656,3.819-0.095,5.73,0.007
					c0.862,0.323,1.743,0.594,2.623,0.87c0.128-0.767,0.268-1.533,0.415-2.296l0.099,0.073c0.305-0.965,0.638-1.918,0.95-2.88
					c-0.785-1.324-1.684-2.682-3.1-3.39C831.984,459.976,830.711,460.031,829.526,460.053z M828.158,472.886
					c-0.429,0.47-0.844,0.951-1.262,1.431c0.488,0.5,0.986,0.994,1.497,1.479C828.393,474.819,828.355,473.84,828.158,472.886z"/>
			</g>
		</g>
		<g>
			<path style="fill:#FFF7E7;" d="M829.526,460.053c1.185-0.022,2.458-0.077,3.529,0.543c1.416,0.708,2.315,2.065,3.1,3.39
				c-0.312,0.962-0.646,1.915-0.95,2.88l-0.099-0.073c-0.125-0.088-0.374-0.268-0.499-0.356c0.062-1.284-0.176-2.586-1.024-3.591
				C832.406,461.679,830.887,460.967,829.526,460.053z"/>
		</g>
		<g>
			<path style="fill:#7D4D31;" d="M833.583,462.845c0.848,1.005,1.086,2.307,1.024,3.591c-0.84-0.591-1.762-1.071-2.748-1.354
				C832.905,464.745,833.54,463.964,833.583,462.845z"/>
			<path style="fill:#7D4D31;" d="M844.912,469.144c-0.26-1.915-0.206-3.848,0.022-5.76c0.506,2.26,0.55,4.585,0.708,6.89
				c0.062,1.981,0.375,4.069-0.411,5.957C845.099,473.869,845.239,471.496,844.912,469.144z"/>
		</g>
		<g>
			<path style="fill:#FDFBF8;" d="M824.618,468.197c1.093-2.825,4.487-3.87,7.242-3.114c0.986,0.282,1.908,0.763,2.748,1.354
				c0.125,0.088,0.374,0.268,0.499,0.356c-0.147,0.763-0.286,1.53-0.415,2.296c-0.88-0.275-1.761-0.547-2.623-0.87
				c-2.058-0.88-4.443-1.397-6.552-0.367C825.212,467.963,824.911,468.08,824.618,468.197z"/>
		</g>
		<g>
			<path style="fill:#815B4E;" d="M825.516,467.853c2.109-1.031,4.494-0.513,6.552,0.367c-1.912-0.102-3.852-0.663-5.73-0.007
				C826.133,468.12,825.722,467.94,825.516,467.853z"/>
			<path style="fill:#815B4E;" d="M734.847,522.266c0.517,0.037,1.038,0.114,1.562,0.191
				C736.138,523.094,734.744,523.076,734.847,522.266z"/>
		</g>
		<g>
			<g>
				<path style="fill:#497422;" d="M773.022,483.386c2.715-0.463,5.492,0.165,8.075,1.001c5.679,1.908,10.485,5.58,15.569,8.625
					c1.673,0.818,2.77,2.363,4.08,3.628c3.687,3.768,7.047,7.84,10.738,11.604c3.078,3.335,6.464,6.805,7.488,11.387
					c-10.742-0.187-21.462-1.122-32.137-2.329c-5.917-0.774-11.857-1.592-17.624-3.166c-2.561-0.737-5.224-1.497-7.348-3.173
					c-4.623-4.366-6.439-11.612-4.021-17.555c0.914-2.344,2.664-4.241,4.656-5.73c1.511,0.881,2.964-0.231,4.465-0.492
					c0.836,0.081,1.57,0.532,2.333,0.859c11.01,5.184,21.099,12.095,30.615,19.634c-8.578-8.493-18.417-16.05-29.822-20.284
					l-0.459-0.15C769.863,485.411,771.14,483.731,773.022,483.386z M763.638,503.567c0.514,1.559,1.376,3,2.597,4.109
					c3.089,2.788,7.062,4.292,10.999,5.436C772.413,510.376,767.658,507.419,763.638,503.567z M810.603,515.357
					c0.055,1.083,0.128,2.165,0.264,3.243c0.613-0.323,1.237-0.638,1.849-0.972C812.056,516.825,811.33,516.091,810.603,515.357z"/>
			</g>
		</g>
		<g>
			<path style="fill:#F4FFEA;" d="M770.087,487.396c11.406,4.233,21.245,11.79,29.822,20.284
				c-9.517-7.539-19.605-14.451-30.615-19.634C769.493,487.883,769.889,487.561,770.087,487.396z"/>
		</g>
		<g>
			<path style="fill:#F3FEEC;" d="M763.638,503.567c4.021,3.852,8.775,6.809,13.596,9.545c-3.936-1.145-7.909-2.648-10.999-5.436
				C765.014,506.567,764.151,505.126,763.638,503.567z"/>
		</g>
		<g>
			<path style="fill:#1E679C;" d="M706.209,512.081c5.499-2.901,12.055-2.575,17.998-1.485c3.812,0.836,7.642,1.845,11.16,3.562
				c-1.915-0.044-3.621-1.262-5.576-0.924c-1.262-0.91-2.726-1.478-4.27-1.662c-3.294-0.51-6.578-1.258-9.92-1.313
				C712.34,510.145,709.449,512.004,706.209,512.081z"/>
			<path style="fill:#1E679C;" d="M698.81,538.077c1.864,0.323,2.729,2.153,4.215,3.104c1.273,0.866,2.825,1.541,3.405,3.097
				C703.674,542.498,701.055,540.477,698.81,538.077z"/>
		</g>
		<g>
			<g>
				<path style="fill:#0070BA;" d="M706.209,512.081c3.239-0.077,6.13-1.937,9.392-1.823c3.342,0.055,6.625,0.803,9.92,1.313
					c1.544,0.184,3.008,0.752,4.27,1.662c1.956-0.337,3.662,0.88,5.576,0.924c2.898,0.852,5.547,2.407,8.259,3.728
					c6.056,3.221,11.878,6.966,17.059,11.482c2.029,1.967,3.995,3.999,5.999,5.995c-0.158,0.477-0.301,0.961-0.448,1.446
					c0.499,0.161,1.009,0.33,1.522,0.499c0.21,0.415,0.426,0.833,0.646,1.251c0.378,0.198,0.76,0.393,1.145,0.598
					c0.213,0.484,0.422,0.969,0.679,1.442c0.459-0.077,0.902-0.22,1.357-0.341l0.04-0.011c2.26,2.491,4.964,4.678,6.651,7.631
					c3.559,2.212,7.436,3.881,10.855,6.321c0.048,0.183,0.143,0.554,0.191,0.741c-10.482-1.391-21.113-2.018-31.66-1.097
					c1.401-0.389,2.858-0.458,4.303-0.528c-3.166-0.855-6.247,0.495-9.355,0.914c-5.29,0.653-10.609,0.015-15.889-0.411
					c-2.44-0.198-4.887-1.196-7.323-0.425c-1.471,0.124-2.898-0.367-4.333-0.605l-0.11-0.11c-0.987-1.409-2.869-1.189-4.34-1.607
					c-2.249-0.59-4.502-1.174-6.751-1.764c-2.043-0.807-4.087-1.643-6.255-2.058c0.429-0.411,0.855-0.829,1.292-1.236
					c0.411,0.176,0.829,0.345,1.251,0.514c-1.244-0.745-2.517-1.442-3.724-2.245c-0.58-1.556-2.132-2.231-3.405-3.097
					c-1.486-0.95-2.351-2.781-4.215-3.104c-0.914-0.902-1.845-1.878-2.091-3.188l-0.136-0.183c-0.359-0.228-0.708,0.025-0.947,0.286
					c1.252,1.254,1.93,2.935,3.089,4.27c0.073,0.25,0.224,0.749,0.297,1.002c1.163,1.809,3.316,2.594,4.579,4.277
					c-0.811,0.125-1.618,0.239-2.421,0.356c-3.125-1.933-6.141-4.41-7.616-7.873c-1.703-3.694-1.005-7.983,0.458-11.633
					c1.419-3.668,4.175-6.567,6.75-9.458C702.343,514.371,704.133,512.896,706.209,512.081z M728.636,520.706
					c2.069,0.521,4.108,1.182,6.211,1.56c-0.103,0.811,1.291,0.829,1.562,0.191c0.29-0.004,0.583-0.019,0.885-0.037
					C734.535,521.415,731.618,520.369,728.636,520.706z M720.62,522.519c1.379,0.844,3.052,1.376,4.6,0.62
					c-1.511-0.749-3.154-1.167-4.831-1.321C720.447,521.994,720.561,522.342,720.62,522.519z M771.702,548.32
					c-0.044,0.18-0.129,0.542-0.169,0.722c0.646-0.025,1.295-0.055,1.948-0.081c-0.363-0.242-0.726-0.481-1.079-0.723
					C772.226,548.261,771.874,548.298,771.702,548.32z"/>
			</g>
		</g>
		<g>
			<path style="fill:#EDFFD6;" d="M810.603,515.357c0.726,0.734,1.453,1.468,2.113,2.271c-0.612,0.334-1.236,0.649-1.849,0.972
				C810.732,517.522,810.658,516.44,810.603,515.357z"/>
		</g>
		<g>
			<path style="fill:#1C71A9;" d="M766.683,535.362c1.654,1.61,3.323,3.206,4.901,4.894c-0.455,0.121-0.898,0.264-1.357,0.341
				c-0.257-0.473-0.466-0.958-0.679-1.442c-0.385-0.206-0.767-0.4-1.145-0.598c-0.22-0.418-0.436-0.836-0.646-1.251
				c-0.513-0.168-1.023-0.337-1.522-0.499C766.382,536.324,766.525,535.839,766.683,535.362z"/>
		</g>
		<g>
			<path style="fill:#0A6DAF;" d="M698.726,539.262c2.923,2.876,6.42,5.122,10.177,6.747c-0.437,0.407-0.862,0.825-1.292,1.236
				c2.168,0.415,4.212,1.251,6.255,2.058c2.249,0.59,4.502,1.174,6.751,1.764c1.471,0.418,3.353,0.198,4.34,1.607
				c-8.188-1.574-16.483-3.595-23.776-7.778c0.803-0.117,1.61-0.231,2.421-0.356c-1.262-1.684-3.416-2.469-4.579-4.277
				C698.949,540.011,698.799,539.512,698.726,539.262z"/>
		</g>
		<g>
			<path style="fill:#2E6B98;" d="M729.398,553.39c2.436-0.771,4.883,0.227,7.323,0.425c5.279,0.426,10.599,1.064,15.889,0.411
				c3.107-0.419,6.189-1.769,9.355-0.914c-1.445,0.07-2.902,0.139-4.303,0.528c-6.901,1.849-14.142,1.254-21.146,0.411
				C734.146,553.933,731.75,553.805,729.398,553.39z"/>
		</g>
	</g>
	<g>
		<path style="fill:#333333;" d="M569.082,584.565v20.721h20.081v-20.721h12.16v53.921h-12.16v-22.561h-20.081v22.561h-12.24
			v-53.921H569.082z"/>
		<path style="fill:#333333;" d="M624.521,624.646l-3.84,13.84h-12.641l16.48-53.921h16.001l16.72,53.921h-13.12l-4.16-13.84
			H624.521z M638.202,615.525l-3.36-11.44c-0.96-3.2-1.92-7.2-2.72-10.4h-0.16c-0.8,3.2-1.6,7.28-2.481,10.4l-3.199,11.44H638.202z"
			/>
		<path style="fill:#333333;" d="M668.201,594.805h-14.479v-10.24h41.44v10.24h-14.721v43.681h-12.24V594.805z"/>
		<path style="fill:#333333;" d="M708.441,624.646l-3.84,13.84h-12.641l16.481-53.921h16l16.721,53.921h-13.12l-4.16-13.84H708.441z
			 M722.121,615.525l-3.359-11.44c-0.96-3.2-1.92-7.2-2.721-10.4h-0.159c-0.801,3.2-1.6,7.28-2.48,10.4l-3.2,11.44H722.121z"/>
		<path style="fill:#333333;" d="M753.242,638.486v-22.081l-17.04-31.841h13.92l5.521,12.96c1.68,3.92,2.8,6.8,4.159,10.32h0.16
			c1.2-3.36,2.481-6.48,4.08-10.32l5.44-12.96h13.681l-17.761,31.441v22.48H753.242z"/>
	</g>
	<g>
		<path style="fill:#333333;" d="M467.953,666.255c1.734-0.434,3.794-0.705,6.124-0.705c3.306,0,6.125,0.705,8.076,2.547
			c1.572,1.463,2.385,3.631,2.385,6.233c0,3.74-2.06,6.721-5.637,8.13v0.108c4.227,1.138,6.775,4.553,6.775,9.322
			c0,3.035-0.976,5.474-2.602,7.263c-2.06,2.331-5.474,3.306-9.647,3.306c-2.71,0-4.336-0.162-5.474-0.379V666.255z
			 M472.126,681.214h1.897c3.415,0,6.341-2.602,6.341-6.45c0-3.36-1.572-5.962-6.016-5.962c-0.976,0-1.734,0.108-2.222,0.271
			V681.214z M472.126,698.938c0.488,0.108,1.192,0.217,2.114,0.217c4.336,0,7.154-2.547,7.154-7.263c0-5.04-3.523-7.425-7.425-7.479
			h-1.843V698.938z"/>
		<path style="fill:#333333;" d="M494.834,665.713v24.498c0,6.558,2.168,8.78,4.986,8.78c3.089,0,5.04-2.385,5.04-8.78v-24.498
			h4.173v23.848c0,9.485-3.902,13.116-9.322,13.116c-5.474,0-9.051-3.577-9.051-12.628v-24.335H494.834z M493.1,660.456
			c0-1.463,1.03-2.547,2.331-2.547c1.409,0,2.331,1.084,2.331,2.547c0,1.518-0.921,2.493-2.331,2.493
			C494.13,662.949,493.1,661.974,493.1,660.456z M501.88,660.456c0-1.463,0.976-2.547,2.33-2.547c1.409,0,2.331,1.084,2.331,2.547
			c0,1.518-0.921,2.493-2.331,2.493C502.856,662.949,501.88,661.974,501.88,660.456z"/>
		<path style="fill:#333333;" d="M520.47,702.244v-15.447l-8.021-21.083h4.39l3.252,9.16c0.921,2.547,1.897,5.42,2.71,8.238h0.108
			c0.759-2.818,1.68-5.583,2.656-8.401l3.089-8.997h4.39l-8.401,20.921v15.609H520.47z"/>
		<path style="fill:#333333;" d="M540.631,665.713v24.498c0,6.558,2.168,8.78,4.986,8.78c3.089,0,5.041-2.385,5.041-8.78v-24.498
			h4.173v23.848c0,9.485-3.902,13.116-9.322,13.116c-5.474,0-9.051-3.577-9.051-12.628v-24.335H540.631z M538.897,660.456
			c0-1.463,1.03-2.547,2.331-2.547c1.409,0,2.331,1.084,2.331,2.547c0,1.518-0.921,2.493-2.331,2.493
			C539.927,662.949,538.897,661.974,538.897,660.456z M547.677,660.456c0-1.463,0.976-2.547,2.331-2.547
			c1.409,0,2.331,1.084,2.331,2.547c0,1.518-0.921,2.493-2.331,2.493C548.653,662.949,547.677,661.974,547.677,660.456z"/>
		<path style="fill:#333333;" d="M561.28,665.713h4.173v17.344h0.108c0.813-1.518,1.572-2.981,2.276-4.39l6.829-12.954h4.607
			l-8.943,15.609l9.16,20.921h-4.498l-7.479-17.615l-2.06,3.523v14.092h-4.173V665.713z"/>
		<path style="fill:#333333;" d="M582.363,697.42c1.247,0.813,3.414,1.463,5.257,1.463c3.794,0,6.07-2.493,6.07-6.179
			c0-3.36-1.951-5.42-4.824-7.588c-2.873-2.005-6.883-5.42-6.883-10.135c0-5.528,3.848-9.593,9.647-9.593
			c2.276,0,4.282,0.705,5.149,1.355l-1.03,3.577c-0.921-0.65-2.439-1.247-4.336-1.247c-3.577,0-5.257,2.71-5.257,5.203
			c0,3.631,1.897,5.04,5.366,7.534c4.39,3.089,6.341,6.45,6.341,10.515c0,5.095-2.873,8.618-7.046,9.81l-1.463,2.818
			c1.843,0.271,3.523,1.789,3.523,3.848c0,3.089-2.547,4.282-4.932,4.282c-1.301,0-2.656-0.434-3.577-0.976l0.813-2.276
			c0.867,0.542,1.68,0.813,2.71,0.813c0.976,0,2.005-0.379,2.005-1.68c0-1.463-1.789-2.114-3.74-2.331l1.843-4.065
			c-0.108,0-0.271,0-0.379,0c-2.493,0-5.149-0.813-6.179-1.572L582.363,697.42z"/>
		<path style="fill:#333333;" d="M616.074,684.9h-9.16v13.712h10.406v3.631h-14.58v-36.53h13.929v3.631h-9.756v12.032h9.16V684.9z"
			/>
		<path style="fill:#333333;" d="M626.1,665.713v15.664h10.244v-15.664h4.173v36.53h-4.173v-17.073H626.1v17.073h-4.173v-36.53
			H626.1z"/>
		<path style="fill:#333333;" d="M646.749,660.402c0-1.355,1.084-2.385,2.439-2.385c1.301,0,2.385,1.03,2.385,2.385
			c0,1.355-1.084,2.439-2.385,2.439C647.833,662.841,646.749,661.757,646.749,660.402z M651.193,665.713v36.53h-4.173v-36.53
			H651.193z"/>
		<path style="fill:#333333;" d="M657.805,666.255c1.789-0.488,3.956-0.705,6.016-0.705c3.631,0,6.341,0.759,8.238,2.602
			c1.789,1.843,2.547,4.282,2.547,7.154c0,4.661-2.168,7.696-5.854,9.376v0.108c2.71,0.813,4.119,3.415,4.932,8.184
			c0.813,5.041,1.572,8.13,2.06,9.268h-4.227c-0.542-1.084-1.247-4.553-1.951-9.051c-0.813-4.986-2.385-6.883-5.962-6.883h-1.626
			v15.935h-4.173V666.255z M661.978,683.111h1.734c4.011,0,6.667-2.927,6.667-7.317c0-4.228-1.734-6.829-6.233-6.883
			c-0.813,0-1.626,0.054-2.168,0.217V683.111z"/>
		<path style="fill:#333333;" d="M688.48,666.255c1.734-0.434,3.794-0.705,6.125-0.705c3.306,0,6.125,0.705,8.076,2.547
			c1.572,1.463,2.385,3.631,2.385,6.233c0,3.74-2.06,6.721-5.637,8.13v0.108c4.228,1.138,6.775,4.553,6.775,9.322
			c0,3.035-0.976,5.474-2.601,7.263c-2.06,2.331-5.474,3.306-9.648,3.306c-2.71,0-4.336-0.162-5.474-0.379V666.255z
			 M692.654,681.214h1.897c3.414,0,6.341-2.602,6.341-6.45c0-3.36-1.572-5.962-6.016-5.962c-0.976,0-1.734,0.108-2.222,0.271
			V681.214z M692.654,698.938c0.488,0.108,1.192,0.217,2.114,0.217c4.336,0,7.154-2.547,7.154-7.263c0-5.04-3.523-7.425-7.425-7.479
			h-1.843V698.938z"/>
		<path style="fill:#333333;" d="M724.359,684.9h-9.16v13.712h10.406v3.631h-14.58v-36.53h13.929v3.631H715.2v12.032h9.16V684.9z"/>
		<path style="fill:#333333;" d="M730.212,665.713h4.173v33.007h10.298v3.523h-14.471V665.713z"/>
		<path style="fill:#333333;" d="M762.188,684.9h-9.16v13.712h10.406v3.631h-14.58v-36.53h13.929v3.631h-9.756v12.032h9.16V684.9z"
			/>
		<path style="fill:#333333;" d="M768.041,666.255c1.626-0.488,3.523-0.705,5.637-0.705c3.848,0,6.558,0.976,8.563,2.764
			c2.818,2.439,4.932,7.154,4.932,14.796c0,8.347-2.06,12.899-4.39,15.393c-2.385,2.71-5.854,3.956-10.081,3.956
			c-1.68,0-3.414-0.108-4.661-0.379V666.255z M772.214,698.829c0.596,0.108,1.192,0.108,1.572,0.108
			c4.607,0,9.051-3.306,9.051-15.718c0-9.214-2.818-14.254-8.672-14.254c-0.65,0-1.409,0.054-1.951,0.217V698.829z"/>
		<path style="fill:#333333;" d="M791.888,660.402c0-1.355,1.084-2.385,2.439-2.385c1.301,0,2.385,1.03,2.385,2.385
			c0,1.355-1.084,2.439-2.385,2.439C792.972,662.841,791.888,661.757,791.888,660.402z M796.332,665.713v36.53h-4.173v-36.53
			H796.332z"/>
		<path style="fill:#333333;" d="M808.255,702.244v-15.447l-8.021-21.083h4.39l3.252,9.16c0.921,2.547,1.897,5.42,2.71,8.238h0.108
			c0.759-2.818,1.68-5.583,2.656-8.401l3.089-8.997h4.39l-8.401,20.921v15.609H808.255z"/>
		<path style="fill:#333333;" d="M837.631,684.9h-9.16v13.712h10.406v3.631h-14.58v-36.53h13.929v3.631h-9.756v12.032h9.16V684.9z"
			/>
		<path style="fill:#333333;" d="M842.67,697.42c1.247,0.813,3.415,1.463,5.257,1.463c3.794,0,6.07-2.493,6.07-6.179
			c0-3.36-1.951-5.42-4.824-7.588c-2.872-2.005-6.883-5.42-6.883-10.135c0-5.528,3.848-9.593,9.647-9.593
			c2.276,0,4.282,0.705,5.149,1.355l-1.03,3.577c-0.921-0.65-2.439-1.247-4.336-1.247c-3.577,0-5.257,2.71-5.257,5.203
			c0,3.631,1.897,5.04,5.366,7.534c4.39,3.089,6.341,6.45,6.341,10.515c0,6.287-4.444,10.244-10.244,10.244
			c-2.493,0-5.149-0.813-6.179-1.572L842.67,697.42z"/>
		<path style="fill:#333333;" d="M862.777,660.402c0-1.355,1.084-2.385,2.439-2.385c1.301,0,2.385,1.03,2.385,2.385
			c0,1.355-1.084,2.439-2.385,2.439C863.861,662.841,862.777,661.757,862.777,660.402z M867.222,665.713v36.53h-4.173v-36.53
			H867.222z"/>
	</g>
</g>
</svg>
