<?xml version="1.0" encoding="UTF-8"?>
<svg id="Layer_2" data-name="Layer 2" xmlns="http://www.w3.org/2000/svg" viewBox="0 0 556.08 502.06">
  <defs>
    <style>
      .cls-1 {
        fill: #f7aec6;
      }

      .cls-2 {
        fill: #09a34a;
      }

      .cls-3 {
        fill: #37266d;
      }

      .cls-4 {
        fill: #9a5333;
      }
    </style>
  </defs>
  <g id="Layer_1-2" data-name="Layer 1">
    <g>
      <path class="cls-4" d="M153.08,0h13.01c-1.91,4.59-3.38,9.34-5.1,14h14c-4.01,10.69-7.99,21.39-12.02,32.07-4,0-7.99-.01-11.98-.01-35.33,106.85-70.71,213.69-105.99,320.56,3.98-.02,7.97-.03,11.95-.03-6.3,19.71-12.62,39.41-19.01,59.09-3.65-.01-7.31-.01-10.97-.01-1.64,4.68-3.32,9.35-5.03,14.02-4.98-.03-9.96-.03-14.94-.02,2.34-5,4.66-10,6.94-15.02-4.65.02-9.29.02-13.94.02,6.28-19.7,12.67-39.36,18.95-59.06,4.66-.02,9.32-.02,13.98,0,35.07-107.16,70.04-214.36,105.04-321.55-4.33.01-8.66.01-12.99,0,3.33-10.02,6.67-20.04,10.01-30.06h13c1.71-4.66,3.2-9.41,5.09-14M389.99,1.11c4.64-.3,9.28-.94,13.93-.49,1.57,4.5,3.36,8.92,5.05,13.38,4,0,8,0,12.01.01,3.65,10.02,7.33,20.03,10.99,30.05-4.66,0-9.33.02-13.99.01,35.37,107.51,70.62,215.07,106.07,322.56,4.66-.06,9.32-.03,13.98,0,4.86,15.11,9.86,30.17,14.77,45.27,1.33,4.18,3.16,8.29,3.28,12.75-4.35.03-8.7.02-13.05,0,2.24,5.04,4.63,10.01,6.91,15.03-4.98-.02-9.96-.02-14.93,0-1.8-4.57-3.12-9.32-5.09-13.81-3.61-.42-7.25-.19-10.87-.16-6.77-19.35-13.41-38.73-20.03-58.12,4.31,0,8.62.01,12.94.03-35.27-107.2-70.67-214.36-105.98-321.55-4.01,0-8.01,0-12.02-.01-3.98-10.36-8-20.71-11.99-31.06h14c-2-4.63-3.94-9.28-5.98-13.89h0Z"/>
      <path class="cls-2" d="M147.98,110.2c86.66,0,173.33,0,259.99-.01,32.35,105.83,64.7,211.65,96.99,317.49-152.33-.03-304.65-.02-456.97,0,33.31-105.84,66.65-211.66,99.99-317.48M208.9,124.03c-8.41,10.34-15.91,21.39-23.15,32.57,15.1-5.11,31.28-3.82,46.95-4.09,10.02-1.83,20.11-3.5,30.32-3.87,27.82-1.51,56.22,4.09,80.75,17.52,19.18,10.53,36.32,25.04,48.96,42.98-3.58-13.23-9.54-25.68-16.25-37.59-9.75-17.13-21.25-33.21-33.56-48.59-1.63-1.96-3.08-4.1-5-5.79-2.56-.81-5.32-.36-7.96-.46-34.65.05-69.3.01-103.96.02-3.3.05-6.63-.24-9.92.22-2.89,1.78-4.98,4.55-7.18,7.08M135.59,173.5c-2.25,1.03-5.5,1.47-5.9,4.44-12.57,40.41-25.57,80.7-37.88,121.17,1.2,5.54,5.4,9.9,8.79,14.28,6.71,7.88,14.05,15.22,21.93,21.93,1.49-24.73,7-49.02,13.81-72.78,3.56-11.73,7.02-23.61,12.79-34.49,16.65-31.83,45.95-55.07,77.49-71.13-31.06-.97-62.05,5.65-91.03,16.58M307.71,160.77c-19.88,8.47-39.11,18.44-57.99,28.93,8.94-1.98,18.14-2.78,27.29-2.14,15.01.95,30.42,3.18,43.72,10.67,25.18,13.81,46.23,33.78,66.18,54.14,4.29-10.59,5.19-22.14,5.61-33.44.04-2.57.2-5.27-1.01-7.62-3.86-8.21-10.09-15.01-16.68-21.13-10.33-9.42-22.11-17.16-34.44-23.69-6.26-3.21-12.65-6.32-19.45-8.19-4.57-1.35-9.03.91-13.23,2.47M226.31,161.27c-21.99,12.36-43.2,27.14-59.16,46.92-2.15,2.94-5.3,5.8-4.79,9.81-.22,26.1,1.45,52.37,6.95,77.94.01-23.83,9.48-46.95,23.94-65.63,19.73-25.48,48.23-42.56,77.84-54.27-10.55-9.39-24.11-15.15-38.07-16.97-2.5-.52-4.61,1.14-6.71,2.2M379.12,166.03c6.75,11.15,11.61,23.28,16.52,35.31,7.15,18.02,13.37,36.39,19.54,54.75,7.26,24.84,4.25,51.47-2.77,75.99-4.05,14.89-10.22,29.06-16.69,43.02,24.21-22.86,45.67-48.76,63.2-77.09,2.39-2.9.22-6.42-.52-9.51-10.43-35.2-20.8-70.43-31.19-105.64-.36-2.84-3.41-3.47-5.6-4.44-13.84-5.17-28.21-8.7-42.49-12.39M245.95,191.91c-3.15.42-4.72,3.37-6.26,5.78-4.69,7.68-8.73,15.73-12.68,23.8,18.47-4.85,38.05-6.64,56.86-2.67,19.26,3.88,37.23,14.16,50.01,29.13-4.14-16.36-11.07-31.88-19.15-46.65-1.1-2.14-2.58-4.22-4.95-5.04-19.8-9.19-42.9-9.68-63.83-4.35M217.61,250.59c-1.41,1.83-3.72,3.77-2.73,6.36,1.9,8.42,4.25,16.8,7.45,24.84,1.98-4.47,3.55-9.14,6.02-13.39,9.56-16.94,25.56-29.71,43.4-37.08-4.22-2.93-8.59-5.63-12.88-8.45-16.68,3.65-30.43,14.99-41.26,27.72M201.92,226.17c-2,.23-3.62,1.48-4.76,3.07-14.54,18.21-23.29,40.79-25.62,63.92,4.43,5.31,9.24,10.29,13.96,15.35,1.89,1.97,3.75,4.07,6.14,5.47.81-1.15,1.13-2.53,1.33-3.89,2.09-14.22,6.03-28.18,11.83-41.32,7.77-17.86,20.23-34.62,38.16-43.21-13.63-1.27-27.53-2.12-41.04.61M287.39,224.5c-7.76,3.24-14.22,8.8-20.38,14.39,8.59-2.07,17.75-1.27,25.85,2.27,16.25,6.94,28.89,19.89,40.16,33.13,2.63-2.85,3.61-6.75,4.88-10.32.53-2.29,2.2-5.02.28-7.09-11.16-15.12-27.05-27.09-45.29-32.14-1.78-.43-3.74-1.12-5.5-.24M330.94,224.94c8.2,14.32,15.22,29.45,19.42,45.45,5.52,19.4-.23,39.83-8.16,57.7,8.42-5.4,16.63-11.14,24.37-17.48,3.8-3.19,7.68-6.41,10.65-10.43.93-1.18,1.44-2.63,1.51-4.12,1.13-14.66-.81-29.69-6.55-43.28-4.41-10.03-11.2-19.37-20.29-25.59-6.86-1.46-13.99-1.31-20.95-2.25M263.74,244.73c-4.09,3.84-6.52,9.09-9.02,14.04,14.48-1.47,29.91-2.69,43.57,3.38-1.14-5.24-2.27-10.7-5.4-15.17-1.5-2.35-4.43-2.88-6.92-3.5-7.29-1.54-15.4-2.26-22.23,1.25M372.24,245.87c2.1,4.02,4.05,8.13,5.26,12.52,5.63,19.56,4.75,40.46.1,60.13-5.62,24.27-15.79,47.32-28.65,68.6,12.58.29,24.85-3.56,36.08-8.98,1.98-.93,3.89-2.15,5.15-4,5.65-7.78,9.87-16.51,13.38-25.44,7.04-18.51,10.91-38.13,12.7-57.82.61-3.08-1.79-5.43-3.52-7.63-6.79-7.88-14.57-14.82-22.22-21.84-6.05-5.23-11.87-10.75-18.28-15.54M137.56,283.61c-1.43,1.89-3.41,3.81-3.06,6.41.24,29.69,10.06,59.06,26.83,83.48,2.25,4.16,7.32,4.62,11.39,5.81,20.99,4.86,42.29,8.17,63.56,11.56-6.48-3.06-13.03-6.06-18.88-10.23-19.86-13.72-33.25-34.89-42.09-56.98-8.15-20.76-12.94-42.8-14.79-65.01-8.68,7.3-15.83,16.19-22.96,24.96M233.29,265.15c-5.13,6.78-7.84,15.39-8.07,23.87.14,1.5-.35,3.47.99,4.58,3.53,3.12,7.46,5.76,11.19,8.64.42-15.53,6.51-31.76,19.8-40.73-8.03-.7-16.75-.38-23.91,3.64M301.89,263.13c2.84,3.64,5.58,7.45,7.01,11.9,3.57,10.37,2.1,21.66-.84,32,6.01-4.93,12.95-8.91,18.4-14.41,1.51-10.71-.77-23.34-9.56-30.47-5-.91-10.12-.16-15.01.98M201.65,289.86c.85,15.64,8.33,29.97,16.25,43.14,1.65,2.25,2.83,5.59,5.95,6.05,8.73,1.7,17.68,1.72,26.54,1.94-8.01-4.9-14.67-11.84-19.32-20-8.45-14.16-12.47-30.45-14.65-46.66-5.68,4.34-10.95,9.5-14.77,15.53M330.88,275.55c1.15,13.06-.54,26.43-5.8,38.5-1.93,4.86-5.16,9.09-6.86,14.05-1.21,3.33-2.33,6.7-3.5,10.05,4.03.96,8.08,1.87,12.12,2.85,11.45-12.39,19.31-28.33,21.39-45.12-3.54-8.26-10.08-15.14-17.35-20.33M122.41,376.01c-.24,15.03.5,30.12,2.91,44.97,27.73.18,55.47.17,83.2.01-27.38-18.19-50.17-43.84-63.27-74.13-7.78-17.46-11.86-36.31-13.69-55.28-5.19,27.85-8.51,56.09-9.15,84.43M240.24,301.97c-1.68,5.35-4.55,10.48-5.3,16.02,4.66,9.91,13.15,18.08,23,22.78,5.18-2.74,9.97-6.2,14.99-9.24-12.63-6.45-24.33-15.91-30.75-28.81-.22-.74-1.74-2.69-1.94-.75M189.54,345.91c2.2,4.95,5.81,9.12,9.04,13.43,9.99,12.25,22.4,23.57,37.88,28.11,4.33,1.09,9.03,2.35,13.4.76,6.83-2.22,13.65-4.52,20.21-7.48-20.98-13.63-41.13-29.3-56.44-49.29-6.64-8.77-11.87-18.74-14.05-29.59-4.48,14.34-9.95,28.86-10.04,44.06M272.59,326.99c6.09,4.81,12.44,9.29,18.54,14.09,9.07-.82,17.57-5.55,23.35-12.53,1.41-1.49,1.08-3.64,1.07-5.5-.22-5.05-1.63-9.94-3.56-14.58-10.66,10.37-24.89,16.14-39.4,18.52M354.72,324.91c-9.75,15.35-23.97,28.15-40.91,35.01-17.76,7.45-37.59,8.88-56.49,5.81,8.35,7.2,17.47,13.52,27.1,18.89,4.97,2.53,10.04,5.29,15.6,6.26,9.03-2.56,17.62-6.64,25.93-10.98,12.61-6.98,24.97-15.73,32.52-28.3,1.33-2.56,3.52-5.38,2.23-8.39-1.95-6.11-3.79-12.26-5.98-18.3M241.64,345.44c1.85,5.27,4.43,10.52,8.57,14.37,3.89,2.11,8.45,2.51,12.77,3.11,12.57,1.09,25.3.24,37.72-1.92,3.28-8.37,6.78-16.66,10.1-25.01-20.29,13.12-46.06,14.79-69.16,9.45M333.64,420.9c31.65.38,63.31.18,94.97.1,2.62-23.93,1.55-48.08.02-72.05-25.84,30.69-60.11,52.86-94.99,71.95M344.9,370.89c-19.68,15.22-43.73,26-68.91,26.26-23.09.02-46.7-.3-68.9-7.41,3.46,7.44,7.21,14.76,11.62,21.69,2.06,3.14,4.14,6.39,7.09,8.8,1.13,1.01,2.76.75,4.16.87,31.29-.06,62.57.06,93.86-.06,14.19-18.78,26.02-39.47,34.37-61.5-4.45,3.76-8.62,7.85-13.29,11.35h0Z"/>
      <path class="cls-1" d="M208.9,124.03c2.2-2.53,4.29-5.3,7.18-7.08,3.29-.46,6.62-.17,9.92-.22,34.66-.01,69.31.03,103.96-.02,2.64.1,5.4-.35,7.96.46,1.92,1.69,3.37,3.83,5,5.79,12.31,15.38,23.81,31.46,33.56,48.59,6.71,11.91,12.67,24.36,16.25,37.59-12.64-17.94-29.78-32.45-48.96-42.98-24.53-13.43-52.93-19.03-80.75-17.52-10.21.37-20.3,2.04-30.32,3.87-15.67.27-31.85-1.02-46.95,4.09,7.24-11.18,14.74-22.23,23.15-32.57M135.59,173.5c28.98-10.93,59.97-17.55,91.03-16.58-31.54,16.06-60.84,39.3-77.49,71.13-5.77,10.88-9.23,22.76-12.79,34.49-6.81,23.76-12.32,48.05-13.81,72.78-7.88-6.71-15.22-14.05-21.93-21.93-3.39-4.38-7.59-8.74-8.79-14.28,12.31-40.47,25.31-80.76,37.88-121.17.4-2.97,3.65-3.41,5.9-4.44M307.71,160.77c4.2-1.56,8.66-3.82,13.23-2.47,6.8,1.87,13.19,4.98,19.45,8.19,12.33,6.53,24.11,14.27,34.44,23.69,6.59,6.12,12.82,12.92,16.68,21.13,1.21,2.35,1.05,5.05,1.01,7.62-.42,11.3-1.32,22.85-5.61,33.44-19.95-20.36-41-40.33-66.18-54.14-13.3-7.49-28.71-9.72-43.72-10.67-9.15-.64-18.35.16-27.29,2.14,18.88-10.49,38.11-20.46,57.99-28.93M226.31,161.27c2.1-1.06,4.21-2.72,6.71-2.2,13.96,1.82,27.52,7.58,38.07,16.97-29.61,11.71-58.11,28.79-77.84,54.27-14.46,18.68-23.93,41.8-23.94,65.63-5.5-25.57-7.17-51.84-6.95-77.94-.51-4.01,2.64-6.87,4.79-9.81,15.96-19.78,37.17-34.56,59.16-46.92M379.12,166.03c14.28,3.69,28.65,7.22,42.49,12.39,2.19.97,5.24,1.6,5.6,4.44,10.39,35.21,20.76,70.44,31.19,105.64.74,3.09,2.91,6.61.52,9.51-17.53,28.33-38.99,54.23-63.2,77.09,6.47-13.96,12.64-28.13,16.69-43.02,7.02-24.52,10.03-51.15,2.77-75.99-6.17-18.36-12.39-36.73-19.54-54.75-4.91-12.03-9.77-24.16-16.52-35.31M245.95,191.91c20.93-5.33,44.03-4.84,63.83,4.35,2.37.82,3.85,2.9,4.95,5.04,8.08,14.77,15.01,30.29,19.15,46.65-12.78-14.97-30.75-25.25-50.01-29.13-18.81-3.97-38.39-2.18-56.86,2.67,3.95-8.07,7.99-16.12,12.68-23.8,1.54-2.41,3.11-5.36,6.26-5.78M217.61,250.59c10.83-12.73,24.58-24.07,41.26-27.72,4.29,2.82,8.66,5.52,12.88,8.45-17.84,7.37-33.84,20.14-43.4,37.08-2.47,4.25-4.04,8.92-6.02,13.39-3.2-8.04-5.55-16.42-7.45-24.84-.99-2.59,1.32-4.53,2.73-6.36M201.92,226.17c13.51-2.73,27.41-1.88,41.04-.61-17.93,8.59-30.39,25.35-38.16,43.21-5.8,13.14-9.74,27.1-11.83,41.32-.2,1.36-.52,2.74-1.33,3.89-2.39-1.4-4.25-3.5-6.14-5.47-4.72-5.06-9.53-10.04-13.96-15.35,2.33-23.13,11.08-45.71,25.62-63.92,1.14-1.59,2.76-2.84,4.76-3.07M287.39,224.5c1.76-.88,3.72-.19,5.5.24,18.24,5.05,34.13,17.02,45.29,32.14,1.92,2.07.25,4.8-.28,7.09-1.27,3.57-2.25,7.47-4.88,10.32-11.27-13.24-23.91-26.19-40.16-33.13-8.1-3.54-17.26-4.34-25.85-2.27,6.16-5.59,12.62-11.15,20.38-14.39M330.94,224.94c6.96.94,14.09.79,20.95,2.25,9.09,6.22,15.88,15.56,20.29,25.59,5.74,13.59,7.68,28.62,6.55,43.28-.07,1.49-.58,2.94-1.51,4.12-2.97,4.02-6.85,7.24-10.65,10.43-7.74,6.34-15.95,12.08-24.37,17.48,7.93-17.87,13.68-38.3,8.16-57.7-4.2-16-11.22-31.13-19.42-45.45M263.74,244.73c6.83-3.51,14.94-2.79,22.23-1.25,2.49.62,5.42,1.15,6.92,3.5,3.13,4.47,4.26,9.93,5.4,15.17-13.66-6.07-29.09-4.85-43.57-3.38,2.5-4.95,4.93-10.2,9.02-14.04M372.24,245.87c6.41,4.79,12.23,10.31,18.28,15.54,7.65,7.02,15.43,13.96,22.22,21.84,1.73,2.2,4.13,4.55,3.52,7.63-1.79,19.69-5.66,39.31-12.7,57.82-3.51,8.93-7.73,17.66-13.38,25.44-1.26,1.85-3.17,3.07-5.15,4-11.23,5.42-23.5,9.27-36.08,8.98,12.86-21.28,23.03-44.33,28.65-68.6,4.65-19.67,5.53-40.57-.1-60.13-1.21-4.39-3.16-8.5-5.26-12.52M137.56,283.61c7.13-8.77,14.28-17.66,22.96-24.96,1.85,22.21,6.64,44.25,14.79,65.01,8.84,22.09,22.23,43.26,42.09,56.98,5.85,4.17,12.4,7.17,18.88,10.23-21.27-3.39-42.57-6.7-63.56-11.56-4.07-1.19-9.14-1.65-11.39-5.81-16.77-24.42-26.59-53.79-26.83-83.48-.35-2.6,1.63-4.52,3.06-6.41M233.29,265.15c7.16-4.02,15.88-4.34,23.91-3.64-13.29,8.97-19.38,25.2-19.8,40.73-3.73-2.88-7.66-5.52-11.19-8.64-1.34-1.11-.85-3.08-.99-4.58.23-8.48,2.94-17.09,8.07-23.87M301.89,263.13c4.89-1.14,10.01-1.89,15.01-.98,8.79,7.13,11.07,19.76,9.56,30.47-5.45,5.5-12.39,9.48-18.4,14.41,2.94-10.34,4.41-21.63.84-32-1.43-4.45-4.17-8.26-7.01-11.9M201.65,289.86c3.82-6.03,9.09-11.19,14.77-15.53,2.18,16.21,6.2,32.5,14.65,46.66,4.65,8.16,11.31,15.1,19.32,20-8.86-.22-17.81-.24-26.54-1.94-3.12-.46-4.3-3.8-5.95-6.05-7.92-13.17-15.4-27.5-16.25-43.14M330.88,275.55c7.27,5.19,13.81,12.07,17.35,20.33-2.08,16.79-9.94,32.73-21.39,45.12-4.04-.98-8.09-1.89-12.12-2.85,1.17-3.35,2.29-6.72,3.5-10.05,1.7-4.96,4.93-9.19,6.86-14.05,5.26-12.07,6.95-25.44,5.8-38.5M122.41,376.01c.64-28.34,3.96-56.58,9.15-84.43,1.83,18.97,5.91,37.82,13.69,55.28,13.1,30.29,35.89,55.94,63.27,74.13-27.73.16-55.47.17-83.2-.01-2.41-14.85-3.15-29.94-2.91-44.97M240.24,301.97c.2-1.94,1.72.01,1.94.75,6.42,12.9,18.12,22.36,30.75,28.81-5.02,3.04-9.81,6.5-14.99,9.24-9.85-4.7-18.34-12.87-23-22.78.75-5.54,3.62-10.67,5.3-16.02M189.54,345.91c.09-15.2,5.56-29.72,10.04-44.06,2.18,10.85,7.41,20.82,14.05,29.59,15.31,19.99,35.46,35.66,56.44,49.29-6.56,2.96-13.38,5.26-20.21,7.48-4.37,1.59-9.07.33-13.4-.76-15.48-4.54-27.89-15.86-37.88-28.11-3.23-4.31-6.84-8.48-9.04-13.43M272.59,326.99c14.51-2.38,28.74-8.15,39.4-18.52,1.93,4.64,3.34,9.53,3.56,14.58.01,1.86.34,4.01-1.07,5.5-5.78,6.98-14.28,11.71-23.35,12.53-6.1-4.8-12.45-9.28-18.54-14.09M354.72,324.91c2.19,6.04,4.03,12.19,5.98,18.3,1.29,3.01-.9,5.83-2.23,8.39-7.55,12.57-19.91,21.32-32.52,28.3-8.31,4.34-16.9,8.42-25.93,10.98-5.56-.97-10.63-3.73-15.6-6.26-9.63-5.37-18.75-11.69-27.1-18.89,18.9,3.07,38.73,1.64,56.49-5.81,16.94-6.86,31.16-19.66,40.91-35.01M241.64,345.44c23.1,5.34,48.87,3.67,69.16-9.45-3.32,8.35-6.82,16.64-10.1,25.01-12.42,2.16-25.15,3.01-37.72,1.92-4.32-.6-8.88-1-12.77-3.11-4.14-3.85-6.72-9.1-8.57-14.37M333.64,420.9c34.88-19.09,69.15-41.26,94.99-71.95,1.53,23.97,2.6,48.12-.02,72.05-31.66.08-63.32.28-94.97-.1M344.9,370.89c4.67-3.5,8.84-7.59,13.29-11.35-8.35,22.03-20.18,42.72-34.37,61.5-31.29.12-62.57,0-93.86.06-1.4-.12-3.03.14-4.16-.87-2.95-2.41-5.03-5.66-7.09-8.8-4.41-6.93-8.16-14.25-11.62-21.69,22.2,7.11,45.81,7.43,68.9,7.41,25.18-.26,49.23-11.04,68.91-26.26h0Z"/>
      <path class="cls-3" d="M425.97,453.73h6.02c-.01,2-.02,4.01-.03,6.02-1.99-.01-3.98-.02-5.96-.01-.02-2-.03-4.01-.03-6.01M546.96,453.73h6.04c-.02,2-.04,4.01-.05,6.02-1.99-.01-3.97-.01-5.94,0-.02-2.01-.04-4.02-.05-6.02M20.62,470.38c1.1-3.59,4.79-5.45,8.23-6.13,4.5-.84,9.45-.8,13.59,1.37,3.35,2.21,5.91,5.96,5.71,10.1-2.24.01-4.48.01-6.72.06-.88-1.87-1.86-3.69-2.84-5.5-2.85-.34-5.79-.92-8.63-.19-1.99,1-4.14,4.11-2.15,6.05,4.69,3.95,11.27,3.31,16.69,5.51,4.24,1.96,4.9,7.33,4.32,11.44-.18,2.99-2.01,5.65-4.49,7.24-3.53,2.62-8.17,1.34-12.23,1.67-3.78.29-8.08-.52-10.41-3.8-2.06-2.31-2.15-5.54-2.84-8.39,2.6-.01,5.19-.01,7.78-.01.88,2.23,1.47,5.51,4.45,5.69,3.39.28,8.01,1.25,10.21-2.15,1.39-1.4.49-3.71-1.08-4.53-5.53-3.34-12.86-2.68-17.75-7.21-3.19-2.79-2.8-7.51-1.84-11.22M511.7,467.74c3.98-3.96,10.07-4.47,15.36-3.68,3.61.53,7.45,2.18,9.25,5.56.78,1.96,1.01,4.1,1.56,6.15-2.62-.03-5.23-.03-7.84-.01v-2.91c-2.71-3.13-7.26-3.67-11.07-2.67-2.34.87-2.49,4.37-1.37,6.21,5.61,3.95,13.39,2.98,18.88,7.12,3.71,4.84,3.61,13.55-2.24,16.75-4.21,2.83-9.52,1.38-14.25,1.73-6.58.55-11.39-6.08-11.2-12.19,2.26,0,4.52,0,6.79.01.92,3.33,3.63,6.31,7.36,5.94,3.25.45,9.24.12,7.92-4.74-4.18-5.59-12.15-4.87-17.8-8.15-2.39-.84-3.27-3.39-3.7-5.65-.74-3.26-.46-7.24,2.35-9.47M3.98,464.73h8c-.01,12.36.02,24.72-.02,37.08-2.65-.01-5.31-.01-7.97,0-.02-12.36,0-24.72-.01-37.08M56.98,464.73c5.99.1,12-.21,17.99.15,3.86.14,7.76,2.38,9.07,6.16,1.79,5.25,1.2,12.14-3.42,15.79-4.95,3.12-11.12,1.63-16.64,1.96,0,4.34,0,8.68-.01,13.02-2.33-.01-4.65-.01-6.98,0-.02-12.36,0-24.72-.01-37.08M63.98,470.74c0,3.66,0,7.33.02,11,3.89-.33,8.18.82,11.82-.81,1.93-2.94,2.05-8.44-1.95-9.76-3.22-.82-6.6-.34-9.89-.43M98.96,464.74h9.04c4.3,12.36,8.65,24.7,12.99,37.05-2.67.01-5.34.01-8.01.01-.66-2.67-1.33-5.33-1.99-8h-15.02c-.66,2.67-1.33,5.33-2,8h-7.99c4.32-12.36,8.68-24.7,12.98-37.06M102.97,471.93c-1.74,5.27-3.33,10.58-5,15.88,3.68-.01,7.35-.01,11.02-.01-1.99-5.3-3.91-10.62-6.02-15.87M125.98,464.73c6.01.04,12.03-.06,18.04.02,3.08.17,6.41.41,9.04,2.19,2.93,2.85,3.15,7.31,2.8,11.14.03,2.73-2.67,4.12-4.43,5.73,1.48,1.8,3.86,3.48,3.52,6.12-.07,4.11-.28,8.38,2.24,11.88-3.03-.01-6.06-.02-9.09.02-.01-4.31-.96-8.53-1.31-12.8-3.58-3.15-8.47-2.12-12.81-2.22,0,5,0,10-.01,15-2.66-.01-5.32-.01-7.99-.01,0-12.35,0-24.71,0-37.07M133.98,470.74c0,3.33,0,6.66.01,10,3.87-.09,7.76.25,11.61-.24,3.76-1.08,4.68-7.12.94-8.85-3.99-1.56-8.39-.75-12.56-.91M160.97,464.73h30.02c-.01,2-.02,4.01-.03,6.02-3.66-.02-7.32-.02-10.98-.02-.01,10.36.02,20.72-.01,31.08-2.66-.01-5.32-.01-7.98,0-.02-10.36,0-20.72-.01-31.08-3.66,0-7.32,0-10.97.02-.02-2.01-.03-4.02-.04-6.02M203.96,464.74c3.01,0,6.02-.01,9.03-.01,4.31,12.36,8.67,24.71,12.99,37.07h-8c-.66-2.67-1.33-5.33-1.99-7.99-5.01-.01-10.01-.01-15.01-.01-.67,2.67-1.34,5.33-2.01,8h-7.99c4.31-12.36,8.69-24.69,12.98-37.06M202.96,487.8h11.03c-1.67-5.3-3.27-10.62-5-15.9-2.09,5.26-4.02,10.59-6.03,15.9M246.98,464.73c6.31.07,12.62-.12,18.93.07,3.09.21,6.73.84,8.53,3.68,2.57,4.12,2.18,10.37-2,13.33,3.12,2.03,5.79,5.29,5.51,9.23.14,5.87-5.54,10.27-11.04,10.57-6.63.44-13.28.06-19.91.21-.05-12.36-.01-24.72-.02-37.09M254.97,470.74c.01,2.66.01,5.33.03,8,3.65-.07,7.32.23,10.95-.24,2.38-.55,4.15-3.62,2.16-5.6-3.35-3.51-8.84-1.75-13.14-2.16M254.98,484.74c0,3.35,0,6.71.01,10.06,3.64-.04,7.3.18,10.94-.17,3.2-.27,5.5-5.02,2.86-7.34-3.51-3.94-9.21-2.22-13.81-2.55M284.98,464.73h27.02c-.02,2.01-.04,4.02-.06,6.03-6.66-.05-13.31-.02-19.97-.03.01,2.67.01,5.34.03,8.02,6-.03,12-.02,18-.02-.02,2.01-.03,4.01-.05,6.03-5.99-.04-11.98-.03-17.97-.02,0,3.35,0,6.71.01,10.07,6.99-.02,13.99-.01,21-.01-.01,2.33-.02,4.67-.02,7.01-9.33-.02-18.65-.02-27.97.01-.04-12.37-.01-24.73-.02-37.09M319.98,464.73h8c0,10.03-.01,20.05.01,30.08,6-.02,12-.01,18-.01-.01,2.33-.02,4.67-.03,7.02-8.66-.03-17.32-.02-25.97-.01-.02-12.36-.01-24.72-.01-37.08M350.98,464.73h27.01c-.01,2-.02,4.01-.03,6.02-6.33-.03-12.66-.02-18.99-.02.01,2.67.01,5.34.03,8.02,5.66-.03,11.33-.02,16.99-.02-.01,2.01-.02,4.01-.04,6.02-5.66-.03-11.32-.02-16.97-.01,0,3.35,0,6.71.02,10.07,6.66-.02,13.32-.01,19.98-.01,0,2.33-.01,4.67-.01,7.01-9.32-.01-18.65-.02-27.97.01-.04-12.37-.01-24.73-.02-37.09M385.98,464.73c7.2.24,14.51-.63,21.63.74,4.06.73,6.49,4.36,8.2,7.78,4.09,8.06,2.01,18.3-3.51,25.13-7.79,5.08-17.55,2.96-26.3,3.43-.04-12.36,0-24.72-.02-37.08M393.98,470.73c.01,8.03-.02,16.07.02,24.11,3.3-.13,6.74.3,9.94-.75,2.81-1.22,5.24-3.83,5.66-6.95.67-4.38.52-9.13-1.56-13.13-3.24-4.4-9.35-3.09-14.06-3.28M424.98,464.73h8c-.01,12.36.02,24.72-.02,37.08-2.66-.01-5.32-.01-7.97-.01-.02-12.35-.01-24.71-.01-37.07M437.01,464.75c3.32-.02,6.65-.02,9.98-.01,2.58,5,4.9,10.15,7.59,15.1.2-.03.58-.1.78-.13,2.41-4.89,4.35-10.01,6.61-14.97,3-.01,5.99-.01,8.99,0-3.8,7.55-7.95,14.94-11.63,22.55-.82,4.77-.15,9.69-.35,14.52-2.67-.01-5.34-.01-8,0-.61-5.87,1.71-12.6-2.16-17.68-4-6.42-7.9-12.9-11.81-19.38M474.98,464.73h27.01c-.02,2-.02,4.01-.03,6.02-6.33-.03-12.66-.02-18.99-.02.01,2.67.01,5.34.03,8.02,5.99-.03,11.99-.02,17.99-.01-.02,2.33-.02,4.67-.03,7.01-5.99-.03-11.99-.02-17.98-.02,0,3.03,0,6.06.01,9.09,6.67-.03,13.33-.02,20-.02-.02,2.34-.02,4.67-.03,7.02-9.32-.03-18.65-.02-27.97-.01-.02-12.36,0-24.72-.01-37.08M545.98,464.73h8c-.01,12.36.02,24.72-.02,37.09-2.66-.02-5.32-.02-7.97-.02-.02-12.35-.01-24.71-.01-37.07h0Z"/>
    </g>
  </g>
</svg>