<?xml version="1.0" encoding="iso-8859-1"?>
<!-- Generator: Adobe Illustrator 29.7.1, SVG Export Plug-In . SVG Version: 9.03 Build 0)  -->
<svg version="1.1" xmlns="http://www.w3.org/2000/svg" xmlns:xlink="http://www.w3.org/1999/xlink" x="0px" y="0px"
	 viewBox="0 0 612 792" style="enable-background:new 0 0 612 792;" xml:space="preserve">
<g>
	<polygon style="fill-rule:evenodd;clip-rule:evenodd;fill:#09A34A;" points="173.04,203.313 433.04,203.313 530.04,520.812 
		73.04,520.812 	"/>
	<polygon style="fill-rule:evenodd;clip-rule:evenodd;fill:#9A5333;" points="160.04,107.162 173.04,107.162 178.04,93.14 
		191.04,93.14 186.04,107.162 200.04,107.162 188.04,139.212 176.04,139.212 70.04,459.717 82.04,459.717 63.041,518.81 
		52.041,518.81 47.041,532.832 32.041,532.832 39.041,517.809 25.041,517.809 44.041,458.715 58.041,458.715 163.04,137.209 
		150.04,137.209 	"/>
	<polygon style="fill-rule:evenodd;clip-rule:evenodd;fill:#9A5333;" points="446.04,107.162 434.04,107.162 429.04,94.142 
		415.04,94.142 421.04,108.164 407.04,108.164 419.04,139.212 431.04,139.212 537.04,460.719 524.04,460.719 544.04,518.81 
		555.04,518.81 560.04,532.832 575.04,532.832 568.04,517.809 582.04,517.809 563.04,459.717 549.04,459.717 443.04,137.209 
		457.04,137.209 	"/>
	
		<line style="fill:none;stroke:#09A34A;stroke-width:0;stroke-linecap:square;stroke-miterlimit:10;" x1="175.04" y1="203.313" x2="194.04" y2="143.219"/>
	
		<line style="fill:none;stroke:#09A34A;stroke-width:0;stroke-linecap:square;stroke-miterlimit:10;" x1="183.04" y1="203.313" x2="201.04" y2="143.219"/>
	
		<line style="fill:none;stroke:#09A34A;stroke-width:0;stroke-linecap:square;stroke-miterlimit:10;" x1="191.04" y1="203.313" x2="208.04" y2="143.219"/>
	
		<line style="fill:none;stroke:#09A34A;stroke-width:0;stroke-linecap:square;stroke-miterlimit:10;" x1="200.04" y1="203.313" x2="215.04" y2="143.219"/>
	
		<line style="fill:none;stroke:#09A34A;stroke-width:0;stroke-linecap:square;stroke-miterlimit:10;" x1="208.04" y1="203.313" x2="222.04" y2="143.219"/>
	
		<line style="fill:none;stroke:#09A34A;stroke-width:0;stroke-linecap:square;stroke-miterlimit:10;" x1="216.04" y1="203.313" x2="229.04" y2="143.219"/>
	
		<line style="fill:none;stroke:#09A34A;stroke-width:0;stroke-linecap:square;stroke-miterlimit:10;" x1="225.04" y1="203.313" x2="236.04" y2="143.219"/>
	
		<line style="fill:none;stroke:#09A34A;stroke-width:0;stroke-linecap:square;stroke-miterlimit:10;" x1="233.04" y1="203.313" x2="243.04" y2="143.219"/>
	
		<line style="fill:none;stroke:#09A34A;stroke-width:0;stroke-linecap:square;stroke-miterlimit:10;" x1="241.04" y1="203.313" x2="250.04" y2="143.219"/>
	
		<line style="fill:none;stroke:#09A34A;stroke-width:0;stroke-linecap:square;stroke-miterlimit:10;" x1="249.04" y1="203.313" x2="257.04" y2="143.219"/>
	
		<line style="fill:none;stroke:#09A34A;stroke-width:0;stroke-linecap:square;stroke-miterlimit:10;" x1="258.04" y1="203.313" x2="264.04" y2="143.219"/>
	
		<line style="fill:none;stroke:#09A34A;stroke-width:0;stroke-linecap:square;stroke-miterlimit:10;" x1="266.04" y1="203.313" x2="271.04" y2="143.219"/>
	
		<line style="fill:none;stroke:#09A34A;stroke-width:0;stroke-linecap:square;stroke-miterlimit:10;" x1="274.04" y1="203.313" x2="279.04" y2="143.219"/>
	
		<line style="fill:none;stroke:#09A34A;stroke-width:0;stroke-linecap:square;stroke-miterlimit:10;" x1="282.04" y1="203.313" x2="286.04" y2="143.219"/>
	
		<line style="fill:none;stroke:#09A34A;stroke-width:0;stroke-linecap:square;stroke-miterlimit:10;" x1="291.04" y1="203.313" x2="293.04" y2="143.219"/>
	
		<line style="fill:none;stroke:#09A34A;stroke-width:0;stroke-linecap:square;stroke-miterlimit:10;" x1="299.04" y1="203.313" x2="300.04" y2="143.219"/>
	
		<line style="fill:none;stroke:#09A34A;stroke-width:0;stroke-linecap:square;stroke-miterlimit:10;" x1="307.041" y1="203.313" x2="307.041" y2="143.219"/>
	
		<line style="fill:none;stroke:#09A34A;stroke-width:0;stroke-linecap:square;stroke-miterlimit:10;" x1="316.041" y1="203.313" x2="314.041" y2="143.219"/>
	
		<line style="fill:none;stroke:#09A34A;stroke-width:0;stroke-linecap:square;stroke-miterlimit:10;" x1="324.04" y1="203.313" x2="321.04" y2="143.219"/>
	
		<line style="fill:none;stroke:#09A34A;stroke-width:0;stroke-linecap:square;stroke-miterlimit:10;" x1="332.04" y1="203.313" x2="328.04" y2="143.219"/>
	
		<line style="fill:none;stroke:#09A34A;stroke-width:0;stroke-linecap:square;stroke-miterlimit:10;" x1="340.04" y1="203.313" x2="335.04" y2="143.219"/>
	
		<line style="fill:none;stroke:#09A34A;stroke-width:0;stroke-linecap:square;stroke-miterlimit:10;" x1="349.04" y1="203.313" x2="342.04" y2="143.219"/>
	
		<line style="fill:none;stroke:#09A34A;stroke-width:0;stroke-linecap:square;stroke-miterlimit:10;" x1="357.04" y1="203.313" x2="349.04" y2="143.219"/>
	
		<line style="fill:none;stroke:#09A34A;stroke-width:0;stroke-linecap:square;stroke-miterlimit:10;" x1="365.04" y1="203.313" x2="356.04" y2="143.219"/>
	
		<line style="fill:none;stroke:#09A34A;stroke-width:0;stroke-linecap:square;stroke-miterlimit:10;" x1="374.04" y1="203.313" x2="363.04" y2="143.219"/>
	
		<line style="fill:none;stroke:#09A34A;stroke-width:0;stroke-linecap:square;stroke-miterlimit:10;" x1="382.04" y1="203.313" x2="370.04" y2="143.219"/>
	
		<line style="fill:none;stroke:#09A34A;stroke-width:0;stroke-linecap:square;stroke-miterlimit:10;" x1="390.04" y1="203.313" x2="377.04" y2="143.219"/>
	
		<line style="fill:none;stroke:#09A34A;stroke-width:0;stroke-linecap:square;stroke-miterlimit:10;" x1="398.04" y1="203.313" x2="384.04" y2="143.219"/>
	
		<line style="fill:none;stroke:#09A34A;stroke-width:0;stroke-linecap:square;stroke-miterlimit:10;" x1="407.04" y1="203.313" x2="391.04" y2="143.219"/>
	
		<line style="fill:none;stroke:#09A34A;stroke-width:0;stroke-linecap:square;stroke-miterlimit:10;" x1="415.04" y1="203.313" x2="398.04" y2="143.219"/>
	
		<line style="fill:none;stroke:#09A34A;stroke-width:0;stroke-linecap:square;stroke-miterlimit:10;" x1="423.04" y1="203.313" x2="405.04" y2="143.219"/>
	
		<line style="fill:none;stroke:#09A34A;stroke-width:0;stroke-linecap:square;stroke-miterlimit:10;" x1="431.04" y1="203.313" x2="412.04" y2="143.219"/>
	
		<line style="fill:none;stroke:#09A34A;stroke-width:0;stroke-linecap:square;stroke-miterlimit:10;" x1="196.04" y1="138.211" x2="205.04" y2="105.159"/>
	
		<line style="fill:none;stroke:#09A34A;stroke-width:0;stroke-linecap:square;stroke-miterlimit:10;" x1="203.04" y1="138.211" x2="212.04" y2="105.159"/>
	
		<line style="fill:none;stroke:#09A34A;stroke-width:0;stroke-linecap:square;stroke-miterlimit:10;" x1="209.04" y1="138.211" x2="218.04" y2="105.159"/>
	
		<line style="fill:none;stroke:#09A34A;stroke-width:0;stroke-linecap:square;stroke-miterlimit:10;" x1="216.04" y1="138.211" x2="224.04" y2="105.159"/>
	
		<line style="fill:none;stroke:#09A34A;stroke-width:0;stroke-linecap:square;stroke-miterlimit:10;" x1="223.04" y1="138.211" x2="231.04" y2="105.159"/>
	
		<line style="fill:none;stroke:#09A34A;stroke-width:0;stroke-linecap:square;stroke-miterlimit:10;" x1="230.04" y1="138.211" x2="237.04" y2="105.159"/>
	
		<line style="fill:none;stroke:#09A34A;stroke-width:0;stroke-linecap:square;stroke-miterlimit:10;" x1="237.04" y1="138.211" x2="243.04" y2="105.159"/>
	
		<line style="fill:none;stroke:#09A34A;stroke-width:0;stroke-linecap:square;stroke-miterlimit:10;" x1="244.04" y1="138.211" x2="249.04" y2="105.159"/>
	
		<line style="fill:none;stroke:#09A34A;stroke-width:0;stroke-linecap:square;stroke-miterlimit:10;" x1="251.04" y1="138.211" x2="256.04" y2="105.159"/>
	
		<line style="fill:none;stroke:#09A34A;stroke-width:0;stroke-linecap:square;stroke-miterlimit:10;" x1="258.04" y1="138.211" x2="262.04" y2="105.159"/>
	
		<line style="fill:none;stroke:#09A34A;stroke-width:0;stroke-linecap:square;stroke-miterlimit:10;" x1="265.04" y1="138.211" x2="268.04" y2="105.159"/>
	
		<line style="fill:none;stroke:#09A34A;stroke-width:0;stroke-linecap:square;stroke-miterlimit:10;" x1="272.04" y1="138.211" x2="275.04" y2="105.159"/>
	
		<line style="fill:none;stroke:#09A34A;stroke-width:0;stroke-linecap:square;stroke-miterlimit:10;" x1="279.04" y1="138.211" x2="281.04" y2="105.159"/>
	
		<line style="fill:none;stroke:#09A34A;stroke-width:0;stroke-linecap:square;stroke-miterlimit:10;" x1="286.04" y1="138.211" x2="287.04" y2="105.159"/>
	
		<line style="fill:none;stroke:#09A34A;stroke-width:0;stroke-linecap:square;stroke-miterlimit:10;" x1="293.04" y1="138.211" x2="294.04" y2="105.159"/>
	
		<line style="fill:none;stroke:#09A34A;stroke-width:0;stroke-linecap:square;stroke-miterlimit:10;" x1="300.04" y1="138.211" x2="300.04" y2="105.159"/>
	
		<line style="fill:none;stroke:#09A34A;stroke-width:0;stroke-linecap:square;stroke-miterlimit:10;" x1="307.041" y1="138.211" x2="306.04" y2="105.159"/>
	
		<line style="fill:none;stroke:#09A34A;stroke-width:0;stroke-linecap:square;stroke-miterlimit:10;" x1="314.041" y1="138.211" x2="313.041" y2="105.159"/>
	
		<line style="fill:none;stroke:#09A34A;stroke-width:0;stroke-linecap:square;stroke-miterlimit:10;" x1="320.04" y1="138.211" x2="319.04" y2="105.159"/>
	
		<line style="fill:none;stroke:#09A34A;stroke-width:0;stroke-linecap:square;stroke-miterlimit:10;" x1="327.04" y1="138.211" x2="325.04" y2="105.159"/>
	
		<line style="fill:none;stroke:#09A34A;stroke-width:0;stroke-linecap:square;stroke-miterlimit:10;" x1="334.04" y1="138.211" x2="332.04" y2="105.159"/>
	
		<line style="fill:none;stroke:#09A34A;stroke-width:0;stroke-linecap:square;stroke-miterlimit:10;" x1="341.04" y1="138.211" x2="338.04" y2="105.159"/>
	
		<line style="fill:none;stroke:#09A34A;stroke-width:0;stroke-linecap:square;stroke-miterlimit:10;" x1="348.04" y1="138.211" x2="344.04" y2="105.159"/>
	
		<line style="fill:none;stroke:#09A34A;stroke-width:0;stroke-linecap:square;stroke-miterlimit:10;" x1="355.04" y1="138.211" x2="350.04" y2="105.159"/>
	
		<line style="fill:none;stroke:#09A34A;stroke-width:0;stroke-linecap:square;stroke-miterlimit:10;" x1="362.04" y1="138.211" x2="357.04" y2="105.159"/>
	
		<line style="fill:none;stroke:#09A34A;stroke-width:0;stroke-linecap:square;stroke-miterlimit:10;" x1="369.04" y1="138.211" x2="363.04" y2="105.159"/>
	
		<line style="fill:none;stroke:#09A34A;stroke-width:0;stroke-linecap:square;stroke-miterlimit:10;" x1="376.04" y1="138.211" x2="369.04" y2="105.159"/>
	
		<line style="fill:none;stroke:#09A34A;stroke-width:0;stroke-linecap:square;stroke-miterlimit:10;" x1="383.04" y1="138.211" x2="376.04" y2="105.159"/>
	
		<line style="fill:none;stroke:#09A34A;stroke-width:0;stroke-linecap:square;stroke-miterlimit:10;" x1="390.04" y1="138.211" x2="382.04" y2="105.159"/>
	
		<line style="fill:none;stroke:#09A34A;stroke-width:0;stroke-linecap:square;stroke-miterlimit:10;" x1="397.04" y1="138.211" x2="388.04" y2="105.159"/>
	
		<line style="fill:none;stroke:#09A34A;stroke-width:0;stroke-linecap:square;stroke-miterlimit:10;" x1="404.04" y1="138.211" x2="395.04" y2="105.159"/>
	
		<line style="fill:none;stroke:#09A34A;stroke-width:0;stroke-linecap:square;stroke-miterlimit:10;" x1="411.04" y1="138.211" x2="401.04" y2="105.159"/>
	<path style="fill-rule:evenodd;clip-rule:evenodd;fill:#F7AEC6;stroke:#09A34A;stroke-width:1.0016;stroke-miterlimit:10;" d="
		M324.04,356.554c0,0-2-15.024-7.999-19.03c0,0-16-6.009-28,0c0,0-6,7.011-9,15.024C279.04,352.548,310.041,347.54,324.04,356.554
		L324.04,356.554z"/>
	<path style="fill-rule:evenodd;clip-rule:evenodd;fill:#F7AEC6;stroke:#09A34A;stroke-width:1.0016;stroke-miterlimit:10;" d="
		M151.04,514.803h85c0,0-75-41.064-79-135.212c0,0-17,81.128-7,135.212H151.04L151.04,514.803z"/>
	<path style="fill-rule:evenodd;clip-rule:evenodd;fill:#F7AEC6;stroke:#09A34A;stroke-width:1.0016;stroke-miterlimit:10;" d="
		M155.04,268.416c0,0,46-21.033,100-19.03c0,0-68,28.044-88,90.142c0,0-17,48.076-19,90.143c0,0-27-23.037-32-37.059L155.04,268.416
		z"/>
	<path style="fill-rule:evenodd;clip-rule:evenodd;fill:#F7AEC6;stroke:#09A34A;stroke-width:1.0016;stroke-miterlimit:10;" d="
		M241.04,209.323h122c0,0,47,54.085,56,96.151c0,0-49-83.13-162-59.093c0,0-37-2.003-48,5.008
		C209.04,251.389,232.04,215.332,241.04,209.323L241.04,209.323z"/>
	<path style="fill-rule:evenodd;clip-rule:evenodd;fill:#F7AEC6;stroke:#09A34A;stroke-width:1.0016;stroke-miterlimit:10;" d="
		M195.04,392.611c0,0-9-80.126,102-123.194c0,0-14-15.023-41-18.028c0,0-47,23.036-69,56.088c0,0-2,41.064,7,83.13L195.04,392.611z"
		/>
	<path style="fill-rule:evenodd;clip-rule:evenodd;fill:#F7AEC6;stroke:#09A34A;stroke-width:1.0016;stroke-miterlimit:10;" d="
		M159.04,380.592c0,0,14-19.03,27-30.047c0,0,5,113.178,83,135.213c0,0-74-11.018-81-16.025c0,0-29-36.057-29-87.137V380.592z"/>
	<path style="fill-rule:evenodd;clip-rule:evenodd;fill:#F7AEC6;stroke:#09A34A;stroke-width:1.0016;stroke-miterlimit:10;" d="
		M218.04,406.633c0,0,7-69.109,52-88.139c0,0-28-4.006-46,1.001c0,0-24,25.04-28,67.106c0,0,15,17.027,20,21.033L218.04,406.633z"/>
	<path style="fill-rule:evenodd;clip-rule:evenodd;fill:#F7AEC6;stroke:#09A34A;stroke-width:1.0016;stroke-miterlimit:10;" d="
		M247.04,376.585c0,0-8-24.038-8-29.045c0,0,19-27.042,45-32.051l14,9.015c0,0-37,13.02-49,48.075L247.04,376.585z"/>
	<path style="fill-rule:evenodd;clip-rule:evenodd;fill:#F7AEC6;stroke:#09A34A;stroke-width:1.0016;stroke-miterlimit:10;" d="
		M268.04,285.442c0,0,36-13.021,70,5.008c0,0,16,26.041,22,53.083c0,0-33-49.077-109-28.044
		C251.04,315.489,263.04,290.45,268.04,285.442L268.04,285.442z"/>
	<path style="fill-rule:evenodd;clip-rule:evenodd;fill:#F7AEC6;stroke:#09A34A;stroke-width:1.0016;stroke-miterlimit:10;" d="
		M274.04,282.438c0,0,55-30.047,68-32.05c9-1.001,64,26.041,76,56.088c0,0,1,25.039-6,40.062c0,0-50-55.086-86-62.098
		c0,0-29-7.011-51-1.001L274.04,282.438z"/>
	<path style="fill-rule:evenodd;clip-rule:evenodd;fill:#F7AEC6;stroke:#09A34A;stroke-width:1.0016;stroke-miterlimit:10;" d="
		M290.04,333.518c0,0,12-13.02,24-17.027c0,0,28.999,4.006,50.999,35.055c0,0-3,13.021-7,17.026c0,0-33-45.071-65-36.057
		L290.04,333.518z"/>
	<path style="fill-rule:evenodd;clip-rule:evenodd;fill:#F7AEC6;stroke:#09A34A;stroke-width:1.0016;stroke-miterlimit:10;" d="
		M284.04,354.551c0,0-13-3.004-26,3.005c0,0-10,13.02-8,29.046c0,0,8,6.009,13,10.016C263.04,396.617,262.04,366.57,284.04,354.551
		L284.04,354.551z"/>
	<path style="fill-rule:evenodd;clip-rule:evenodd;fill:#F7AEC6;stroke:#09A34A;stroke-width:1.0016;stroke-miterlimit:10;" d="
		M242.04,366.57c0,0,4,53.084,36,68.108c0,0-28,0-32-3.006c0,0-19-26.041-20-49.077C226.04,382.595,235.04,370.576,242.04,366.57
		L242.04,366.57z"/>
	<path style="fill-rule:evenodd;clip-rule:evenodd;fill:#F7AEC6;stroke:#09A34A;stroke-width:1.0016;stroke-miterlimit:10;" d="
		M214.04,439.686c0,0,24,42.066,58,43.068c0,0,20-6.01,24-9.016c0,0-67-40.062-71-81.128
		C225.04,392.611,213.04,424.662,214.04,439.686L214.04,439.686z"/>
	<path style="fill-rule:evenodd;clip-rule:evenodd;fill:#F7AEC6;stroke:#09A34A;stroke-width:1.0016;stroke-miterlimit:10;" d="
		M252.04,514.803h97c0,0,22-27.041,36-65.102c0,0-37,42.066-89,40.062c0,0-43,1.002-65-8.012
		C231.04,481.752,244.04,510.797,252.04,514.803L252.04,514.803z"/>
	<path style="fill-rule:evenodd;clip-rule:evenodd;fill:#F7AEC6;stroke:#09A34A;stroke-width:1.0016;stroke-miterlimit:10;" d="
		M325.04,484.756c0,0,50-15.023,62-46.072l-7-22.035c0,0-12,22.035-37,34.055c-17,8.012-39,12.018-63,7.01
		C280.04,457.713,305.04,479.748,325.04,484.756L325.04,484.756z"/>
	<path style="fill-rule:evenodd;clip-rule:evenodd;fill:#F7AEC6;stroke:#09A34A;stroke-width:1.0016;stroke-miterlimit:10;" d="
		M266.04,391.609c0,0,5,19.029,33,33.053l-16,10.016c0,0-16-7.012-24-24.039L266.04,391.609z"/>
	<path style="fill-rule:evenodd;clip-rule:evenodd;fill:#F7AEC6;stroke:#09A34A;stroke-width:1.0016;stroke-miterlimit:10;" d="
		M296.04,419.654c0,0,25-2.004,41-19.031c0,0,5,9.016,4,20.031c0,0-9,13.022-24.999,14.023L296.04,419.654z"/>
	<path style="fill-rule:evenodd;clip-rule:evenodd;fill:#F7AEC6;stroke:#09A34A;stroke-width:1.0016;stroke-miterlimit:10;" d="
		M332.04,401.625c0,0,11-29.046-6-45.071c0,0,4-3.005,16-2.003c0,0,13,9.014,10,32.051L332.04,401.625z"/>
	<path style="fill-rule:evenodd;clip-rule:evenodd;fill:#F7AEC6;stroke:#09A34A;stroke-width:1.0016;stroke-miterlimit:10;" d="
		M344.04,417.65l-5,14.021l13,3.006c0,0,18-17.027,22-46.073c0,0-7-14.022-19-21.033C355.04,367.571,360.04,392.611,344.04,417.65
		L344.04,417.65z"/>
	<path style="fill-rule:evenodd;clip-rule:evenodd;fill:#F7AEC6;stroke:#09A34A;stroke-width:1.0016;stroke-miterlimit:10;" d="
		M404.04,391.609c0,0,7-47.074-27-72.114l-22-2.003c0,0,16,26.041,21,51.08c0,0,6,20.032-10,54.085
		C366.04,422.658,398.04,402.627,404.04,391.609L404.04,391.609z"/>
	<path style="fill-rule:evenodd;clip-rule:evenodd;fill:#F7AEC6;stroke:#09A34A;stroke-width:1.0016;stroke-miterlimit:10;" d="
		M442.04,381.593c0,0-3,56.088-28,88.139c0,0-20,12.02-41,11.018c0,0,33-50.08,33-101.16c0,0,0-32.05-13-45.071
		C393.04,334.52,437.04,370.576,442.04,381.593L442.04,381.593z"/>
	<path style="fill-rule:evenodd;clip-rule:evenodd;fill:#F7AEC6;stroke:#09A34A;stroke-width:1.0016;stroke-miterlimit:10;" d="
		M454.04,440.688c0,0,4,46.072,0,74.115h-98C356.04,514.803,422.04,481.752,454.04,440.688L454.04,440.688z"/>
	<path style="fill-rule:evenodd;clip-rule:evenodd;fill:#F7AEC6;stroke:#09A34A;stroke-width:1.0016;stroke-miterlimit:10;" d="
		M337.04,427.666l-11,27.043c0,0-33,6.01-51-1.002c0,0-7-7.012-9-16.025C266.04,437.682,305.04,449.701,337.04,427.666
		L337.04,427.666z"/>
	<path style="fill-rule:evenodd;clip-rule:evenodd;fill:#F7AEC6;stroke:#09A34A;stroke-width:1.0016;stroke-miterlimit:10;" d="
		M452.04,273.423l34,115.181c0,0-22,40.063-68,83.132c0,0,42-73.116,19-130.206c0,0-20-62.098-34-83.13
		C403.04,258.4,441.04,267.414,452.04,273.423L452.04,273.423z"/>
	<rect x="29.041" y="557.871" style="fill-rule:evenodd;clip-rule:evenodd;fill:#37266D;" width="8" height="37.059"/>
	<path style="fill-rule:evenodd;clip-rule:evenodd;fill:#37266D;" d="M44.041,582.91h8c0,2.004,1,4.006,2,5.008
		c2,1.002,4,1.002,6,1.002s4,0,5-1.002c1-1.002,2-2.002,2-3.004c0-3.006-3-4.006-10-6.01l0,0h-1c-3-1.002-6-2.004-7-3.004
		c-1,0-2-2.004-3-3.006s-1-3.004-1-5.008c0-4.006,1-6.01,3-8.012c3-2.004,6-3.006,11-3.006c4,0,8,1.002,10,3.006
		c1,1,2,2.002,3,4.006c0,0,1,1.002,1,2.002c0,1.002,0,2.004,0,3.006h-7c0-1.002,0-2.004-1-3.006c0,0-1-1-1-2.002
		c-2-1.002-3-1.002-6-1.002c-2,0-3,0-4,1.002c-1,1.002-2,2.002-2,4.006c0,1.002,2,3.004,6,4.006l3,1.002c3,0,5,1.002,6,1.002
		s2,1.002,3,1.002c1,1.002,3,2.002,3,4.006c1,1.002,1,3.004,1,5.008c0,4.006-1,7.012-4,9.014c-2,2.004-6,3.006-11,3.006
		c-4,0-8-1.002-11-3.006c-1-1.002-2-3.004-3-4.006C45.041,586.916,44.041,584.914,44.041,582.91L44.041,582.91z"/>
	<path style="fill-rule:evenodd;clip-rule:evenodd;fill:#37266D;" d="M89.04,574.898h8c2,0,3,0,4-1.002c1-1.002,1-3.006,1-4.006
		c0-2.004,0-4.008-1-4.008c-1-1-2-2.002-4-2.002h-8V574.898z M89.04,581.908v13.021h-7v-37.059h16c4,0,7,1.002,9,3.004
		c2,2.004,3,5.008,3,9.016c0,4.006-1,6.01-3,9.014c-2,2.004-5,3.004-8,3.004H89.04z"/>
	<path style="fill-rule:evenodd;clip-rule:evenodd;fill:#37266D;" d="M128.04,564.883l-5,16.025h11L128.04,564.883z M124.04,557.871
		h9l13,37.059h-8l-2-8.014h-15l-2,8.014h-8L124.04,557.871z"/>
	<path style="fill-rule:evenodd;clip-rule:evenodd;fill:#37266D;" d="M159.04,573.896h9c2,0,3,0,4-1.002s2-2.004,2-4.006
		c0-2.004-1-3.006-2-4.006c-1,0-2-1.002-4-1.002h-9V573.896z M151.04,594.93v-37.059h18c4,0,7,1.002,9,2.004
		c2,2.002,3,5.008,3,8.012s0,5.008-1,6.01c-1,1.002-3,3.004-4,3.004c1,1.002,2,1.002,3,3.006c0,0,1,1.002,1,2.002
		c0,1.002,0,2.004,0,3.006v5.008l0,0c0,1.002,0,2.002,1,2.002c0,1.002,0,1.002,1,2.004v1.002h-9c0-1.002,0-1.002,0-2.004v-1.002
		v-2.002l-1-4.006v-1.002c0-1.002,0-1.002,0-2.004c0,0,0-1.002-1-1.002c-1-1-2-2.002-4-2.002h-8v15.023H151.04z"/>
	<polygon style="fill-rule:evenodd;clip-rule:evenodd;fill:#37266D;" points="197.04,594.93 197.04,563.881 186.04,563.881 
		186.04,557.871 216.04,557.871 216.04,563.881 205.04,563.881 205.04,594.93 	"/>
	<path style="fill-rule:evenodd;clip-rule:evenodd;fill:#37266D;" d="M234.04,564.883l-6,16.025h11L234.04,564.883z M229.04,557.871
		h9l13,37.059h-8l-2-8.014h-15l-2,8.014h-8L229.04,557.871z"/>
	<path style="fill-rule:evenodd;clip-rule:evenodd;fill:#37266D;" d="M280.04,587.918h9c2,0,3,0,4-1.002c1-1,2-2.002,2-4.006
		c0-1.002-1-3.004-2-3.004c-1-1.002-2-2.004-4-2.004h-9V587.918z M280.04,571.893h8c2,0,4,0,4-1.002c1,0,2-1,2-3.004
		c0-1.002-1-2.004-2-3.004c0,0-2-1.002-4-1.002h-8V571.893z M272.04,594.93v-37.059h18c4,0,6,1.002,8,2.004c2,2.002,3,4.006,3,7.01
		c0,2.004,0,4.006-1,5.008c0,1.002-1,2.004-3,3.006c2,1.002,3,2.002,4,3.004c1,2.004,2,3.006,2,6.01s-1,6.01-4,8.012
		c-2,2.004-5,3.006-10,3.006H272.04z"/>
	<polygon style="fill-rule:evenodd;clip-rule:evenodd;fill:#37266D;" points="310.041,594.93 310.041,557.871 337.04,557.871 
		337.04,563.881 317.041,563.881 317.041,571.893 335.04,571.893 335.04,577.902 317.041,577.902 317.041,587.918 338.04,587.918 
		338.04,594.93 	"/>
	<polygon style="fill-rule:evenodd;clip-rule:evenodd;fill:#37266D;" points="345.04,594.93 345.04,557.871 353.04,557.871 
		353.04,587.918 371.04,587.918 371.04,594.93 	"/>
	<polygon style="fill-rule:evenodd;clip-rule:evenodd;fill:#37266D;" points="376.04,594.93 376.04,557.871 403.04,557.871 
		403.04,563.881 384.04,563.881 384.04,571.893 401.04,571.893 401.04,577.902 384.04,577.902 384.04,587.918 404.04,587.918 
		404.04,594.93 	"/>
	<path style="fill-rule:evenodd;clip-rule:evenodd;fill:#37266D;" d="M419.04,587.918h6c3,0,6-1.002,7-3.004
		c2-1.002,3-4.006,3-9.014c0-4.008-1-7.012-2-9.016c-2-2.002-4-3.004-7-3.004h-7V587.918z M411.04,594.93v-37.059h15
		c5,0,10,1.002,12,4.006c3,4.006,5,8.014,5,14.023c0,4.006-1,7.01-2,9.014c-1,3.004-2,5.008-4,7.01c-2,1.002-4,2.004-6,2.004
		c-1,1.002-4,1.002-7,1.002H411.04z"/>
	<path style="fill-rule:evenodd;clip-rule:evenodd;fill:#37266D;" d="M450.04,594.93v-37.059h8v37.059H450.04z M451.04,552.863
		v-6.01h6v6.01H451.04z"/>
	<polygon style="fill-rule:evenodd;clip-rule:evenodd;fill:#37266D;" points="484.04,594.93 476.04,594.93 476.04,580.908 
		462.04,557.871 472.04,557.871 480.04,573.896 487.04,557.871 496.04,557.871 484.04,580.908 	"/>
	<polygon style="fill-rule:evenodd;clip-rule:evenodd;fill:#37266D;" points="500.04,594.93 500.04,557.871 527.04,557.871 
		527.04,563.881 508.04,563.881 508.04,571.893 526.04,571.893 526.04,578.904 508.04,578.904 508.04,587.918 528.04,587.918 
		528.04,594.93 	"/>
	<path style="fill-rule:evenodd;clip-rule:evenodd;fill:#37266D;" d="M534.04,582.91h7c0,2.004,1,4.006,3,5.008
		c1,1.002,3,1.002,6,1.002c2,0,4,0,5-1.002c1-1.002,1-2.002,1-3.004c0-2.004-3-4.006-9-6.01h-1l0,0c-4-1.002-6-2.004-8-3.004
		c-1,0-2-1.002-3-3.006c0-1.002-1-3.004-1-5.008c0-4.006,1-6.01,4-8.012c2-2.004,6-3.006,10-3.006c5,0,8,1.002,11,3.006
		c1,1,2,2.002,3,4.006c0,0,0,1.002,0,2.002c0,1.002,1,2.004,1,3.006h-8c0-1.002,0-2.004,0-3.006c-1,0-1-1-2-2.002
		c-1,0-3-1.002-5-1.002s-4,0-5,1.002c-1,1.002-1,2.002-1,4.006s2,3.004,6,4.006l3,1.002c2,0,4,1.002,5,1.002
		c1,1.002,2,1.002,3,1.002c2,1.002,3,2.002,4,4.006c0,1.002,1,3.004,1,5.008c0,4.006-1,7.012-4,9.014c-3,2.004-6,3.006-11,3.006
		s-8-1.002-11-3.006c-1-1.002-2-3.004-3-4.006C534.04,586.916,534.04,584.914,534.04,582.91L534.04,582.91z"/>
	<path style="fill-rule:evenodd;clip-rule:evenodd;fill:#37266D;" d="M571.04,594.93v-37.059h8v37.059H571.04z M572.04,552.863
		v-6.01h6v6.01H572.04z"/>
</g>
</svg>
