<?xml version="1.0" encoding="iso-8859-1"?>
<!-- Generator: Adobe Illustrator 29.7.1, SVG Export Plug-In . SVG Version: 9.03 Build 0)  -->
<svg version="1.1" id="Layer_1" xmlns="http://www.w3.org/2000/svg" xmlns:xlink="http://www.w3.org/1999/xlink" x="0px" y="0px"
	 viewBox="0 0 1920 1080" style="enable-background:new 0 0 1920 1080;" xml:space="preserve">
<g>
	<path style="fill:#9A5333;" d="M834.08,289h13.01c-1.91,4.59-3.38,9.34-5.1,14c4.67,0,9.33,0,14,0
		c-4.01,10.69-7.99,21.39-12.02,32.07c-4,0-7.99-0.01-11.98-0.01C796.66,441.91,761.28,548.75,726,655.62
		c3.98-0.02,7.97-0.03,11.95-0.03c-6.3,19.71-12.62,39.41-19.01,59.09c-3.65-0.01-7.31-0.01-10.97-0.01
		c-1.64,4.68-3.32,9.35-5.03,14.02c-4.98-0.03-9.96-0.03-14.94-0.02c2.34-5,4.66-10,6.94-15.02c-4.65,0.02-9.29,0.02-13.94,0.02
		c6.28-19.7,12.67-39.36,18.95-59.06c4.66-0.02,9.32-0.02,13.98,0C749,547.45,783.97,440.25,818.97,333.06
		c-4.33,0.01-8.66,0.01-12.99,0c3.33-10.02,6.67-20.04,10.01-30.06c4.33,0,8.66,0,13,0C830.7,298.34,832.19,293.59,834.08,289
		 M1070.99,290.11c4.64-0.3,9.28-0.94,13.93-0.49c1.57,4.5,3.36,8.92,5.05,13.38c4,0,8,0,12.01,0.01
		c3.65,10.02,7.33,20.03,10.99,30.05c-4.66,0-9.33,0.02-13.99,0.01c35.37,107.51,70.62,215.07,106.07,322.56
		c4.66-0.06,9.32-0.03,13.98,0c4.86,15.11,9.86,30.17,14.77,45.27c1.33,4.18,3.16,8.29,3.28,12.75c-4.35,0.03-8.7,0.02-13.05,0
		c2.24,5.04,4.63,10.01,6.91,15.03c-4.98-0.02-9.96-0.02-14.93,0c-1.8-4.57-3.12-9.32-5.09-13.81c-3.61-0.42-7.25-0.19-10.87-0.16
		c-6.77-19.35-13.41-38.73-20.03-58.12c4.31,0,8.62,0.01,12.94,0.03c-35.27-107.2-70.67-214.36-105.98-321.55
		c-4.01,0-8.01,0-12.02-0.01c-3.98-10.36-8-20.71-11.99-31.06c4.67,0,9.33,0,14,0C1074.97,299.37,1073.03,294.72,1070.99,290.11
		L1070.99,290.11z"/>
	<path style="fill:#09A34A;" d="M828.98,399.2c86.66,0,173.33,0,259.99-0.01c32.35,105.83,64.7,211.65,96.99,317.49
		c-152.33-0.03-304.65-0.02-456.97,0C762.3,610.84,795.64,505.02,828.98,399.2 M889.9,413.03c-8.41,10.34-15.91,21.39-23.15,32.57
		c15.1-5.11,31.28-3.82,46.95-4.09c10.02-1.83,20.11-3.5,30.32-3.87c27.82-1.51,56.22,4.09,80.75,17.52
		c19.18,10.53,36.32,25.04,48.96,42.98c-3.58-13.23-9.54-25.68-16.25-37.59c-9.75-17.13-21.25-33.21-33.56-48.59
		c-1.63-1.96-3.08-4.1-5-5.79c-2.56-0.81-5.32-0.36-7.96-0.46c-34.65,0.05-69.3,0.01-103.96,0.02c-3.3,0.05-6.63-0.24-9.92,0.22
		C894.19,407.73,892.1,410.5,889.9,413.03 M816.59,462.5c-2.25,1.03-5.5,1.47-5.9,4.44c-12.57,40.41-25.57,80.7-37.88,121.17
		c1.2,5.54,5.4,9.9,8.79,14.28c6.71,7.88,14.05,15.22,21.93,21.93c1.49-24.73,7-49.02,13.81-72.78
		c3.56-11.73,7.02-23.61,12.79-34.49c16.65-31.83,45.95-55.07,77.49-71.13C876.56,444.95,845.57,451.57,816.59,462.5 M988.71,449.77
		c-19.88,8.47-39.11,18.44-57.99,28.93c8.94-1.98,18.14-2.78,27.29-2.14c15.01,0.95,30.42,3.18,43.72,10.67
		c25.18,13.81,46.23,33.78,66.18,54.14c4.29-10.59,5.19-22.14,5.61-33.44c0.04-2.57,0.2-5.27-1.01-7.62
		c-3.86-8.21-10.09-15.01-16.68-21.13c-10.33-9.42-22.11-17.16-34.44-23.69c-6.26-3.21-12.65-6.32-19.45-8.19
		C997.37,445.95,992.91,448.21,988.71,449.77 M907.31,450.27c-21.99,12.36-43.2,27.14-59.16,46.92c-2.15,2.94-5.3,5.8-4.79,9.81
		c-0.22,26.1,1.45,52.37,6.95,77.94c0.01-23.83,9.48-46.95,23.94-65.63c19.73-25.48,48.23-42.56,77.84-54.27
		c-10.55-9.39-24.11-15.15-38.07-16.97C911.52,447.55,909.41,449.21,907.31,450.27 M1060.12,455.03
		c6.75,11.15,11.61,23.28,16.52,35.31c7.15,18.02,13.37,36.39,19.54,54.75c7.26,24.84,4.25,51.47-2.77,75.99
		c-4.05,14.89-10.22,29.06-16.69,43.02c24.21-22.86,45.67-48.76,63.2-77.09c2.39-2.9,0.22-6.42-0.52-9.51
		c-10.43-35.2-20.8-70.43-31.19-105.64c-0.36-2.84-3.41-3.47-5.6-4.44C1088.77,462.25,1074.4,458.72,1060.12,455.03 M926.95,480.91
		c-3.15,0.42-4.72,3.37-6.26,5.78c-4.69,7.68-8.73,15.73-12.68,23.8c18.47-4.85,38.05-6.64,56.86-2.67
		c19.26,3.88,37.23,14.16,50.01,29.13c-4.14-16.36-11.07-31.88-19.15-46.65c-1.1-2.14-2.58-4.22-4.95-5.04
		C970.98,476.07,947.88,475.58,926.95,480.91 M898.61,539.59c-1.41,1.83-3.72,3.77-2.73,6.36c1.9,8.42,4.25,16.8,7.45,24.84
		c1.98-4.47,3.55-9.14,6.02-13.39c9.56-16.94,25.56-29.71,43.4-37.08c-4.22-2.93-8.59-5.63-12.88-8.45
		C923.19,515.52,909.44,526.86,898.61,539.59 M882.92,515.17c-2,0.23-3.62,1.48-4.76,3.07c-14.54,18.21-23.29,40.79-25.62,63.92
		c4.43,5.31,9.24,10.29,13.96,15.35c1.89,1.97,3.75,4.07,6.14,5.47c0.81-1.15,1.13-2.53,1.33-3.89
		c2.09-14.22,6.03-28.18,11.83-41.32c7.77-17.86,20.23-34.62,38.16-43.21C910.33,513.29,896.43,512.44,882.92,515.17 M968.39,513.5
		c-7.76,3.24-14.22,8.8-20.38,14.39c8.59-2.07,17.75-1.27,25.85,2.27c16.25,6.94,28.89,19.89,40.16,33.13
		c2.63-2.85,3.61-6.75,4.88-10.32c0.53-2.29,2.2-5.02,0.28-7.09c-11.16-15.12-27.05-27.09-45.29-32.14
		C972.11,513.31,970.15,512.62,968.39,513.5 M1011.94,513.94c8.2,14.32,15.22,29.45,19.42,45.45c5.52,19.4-0.23,39.83-8.16,57.7
		c8.42-5.4,16.63-11.14,24.37-17.48c3.8-3.19,7.68-6.41,10.65-10.43c0.93-1.18,1.44-2.63,1.51-4.12
		c1.13-14.66-0.81-29.69-6.55-43.28c-4.41-10.03-11.2-19.37-20.29-25.59C1026.03,514.73,1018.9,514.88,1011.94,513.94
		 M944.74,533.73c-4.09,3.84-6.52,9.09-9.02,14.04c14.48-1.47,29.91-2.69,43.57,3.38c-1.14-5.24-2.27-10.7-5.4-15.17
		c-1.5-2.35-4.43-2.88-6.92-3.5C959.68,530.94,951.57,530.22,944.74,533.73 M1053.24,534.87c2.1,4.02,4.05,8.13,5.26,12.52
		c5.63,19.56,4.75,40.46,0.1,60.13c-5.62,24.27-15.79,47.32-28.65,68.6c12.58,0.29,24.85-3.56,36.08-8.98
		c1.98-0.93,3.89-2.15,5.15-4c5.65-7.78,9.87-16.51,13.38-25.44c7.04-18.51,10.91-38.13,12.7-57.82c0.61-3.08-1.79-5.43-3.52-7.63
		c-6.79-7.88-14.57-14.82-22.22-21.84C1065.47,545.18,1059.65,539.66,1053.24,534.87 M818.56,572.61c-1.43,1.89-3.41,3.81-3.06,6.41
		c0.24,29.69,10.06,59.06,26.83,83.48c2.25,4.16,7.32,4.62,11.39,5.81c20.99,4.86,42.29,8.17,63.56,11.56
		c-6.48-3.06-13.03-6.06-18.88-10.23c-19.86-13.72-33.25-34.89-42.09-56.98c-8.15-20.76-12.94-42.8-14.79-65.01
		C832.84,554.95,825.69,563.84,818.56,572.61 M914.29,554.15c-5.13,6.78-7.84,15.39-8.07,23.87c0.14,1.5-0.35,3.47,0.99,4.58
		c3.53,3.12,7.46,5.76,11.19,8.64c0.42-15.53,6.51-31.76,19.8-40.73C930.17,549.81,921.45,550.13,914.29,554.15 M982.89,552.13
		c2.84,3.64,5.58,7.45,7.01,11.9c3.57,10.37,2.1,21.66-0.84,32c6.01-4.93,12.95-8.91,18.4-14.41c1.51-10.71-0.77-23.34-9.56-30.47
		C992.9,550.24,987.78,550.99,982.89,552.13 M882.65,578.86c0.85,15.64,8.33,29.97,16.25,43.14c1.65,2.25,2.83,5.59,5.95,6.05
		c8.73,1.7,17.68,1.72,26.54,1.94c-8.01-4.9-14.67-11.84-19.32-20c-8.45-14.16-12.47-30.45-14.65-46.66
		C891.74,567.67,886.47,572.83,882.65,578.86 M1011.88,564.55c1.15,13.06-0.54,26.43-5.8,38.5c-1.93,4.86-5.16,9.09-6.86,14.05
		c-1.21,3.33-2.33,6.7-3.5,10.05c4.03,0.96,8.08,1.87,12.12,2.85c11.45-12.39,19.31-28.33,21.39-45.12
		C1025.69,576.62,1019.15,569.74,1011.88,564.55 M803.41,665.01c-0.24,15.03,0.5,30.12,2.91,44.97c27.73,0.18,55.47,0.17,83.2,0.01
		c-27.38-18.19-50.17-43.84-63.27-74.13c-7.78-17.46-11.86-36.31-13.69-55.28C807.37,608.43,804.05,636.67,803.41,665.01
		 M921.24,590.97c-1.68,5.35-4.55,10.48-5.3,16.02c4.66,9.91,13.15,18.08,23,22.78c5.18-2.74,9.97-6.2,14.99-9.24
		c-12.63-6.45-24.33-15.91-30.75-28.81C922.96,590.98,921.44,589.03,921.24,590.97 M870.54,634.91c2.2,4.95,5.81,9.12,9.04,13.43
		c9.99,12.25,22.4,23.57,37.88,28.11c4.33,1.09,9.03,2.35,13.4,0.76c6.83-2.22,13.65-4.52,20.21-7.48
		c-20.98-13.63-41.13-29.3-56.44-49.29c-6.64-8.77-11.87-18.74-14.05-29.59C876.1,605.19,870.63,619.71,870.54,634.91
		 M953.59,615.99c6.09,4.81,12.44,9.29,18.54,14.09c9.07-0.82,17.57-5.55,23.35-12.53c1.41-1.49,1.08-3.64,1.07-5.5
		c-0.22-5.05-1.63-9.94-3.56-14.58C982.33,607.84,968.1,613.61,953.59,615.99 M1035.72,613.91c-9.75,15.35-23.97,28.15-40.91,35.01
		c-17.76,7.45-37.59,8.88-56.49,5.81c8.35,7.2,17.47,13.52,27.1,18.89c4.97,2.53,10.04,5.29,15.6,6.26
		c9.03-2.56,17.62-6.64,25.93-10.98c12.61-6.98,24.97-15.73,32.52-28.3c1.33-2.56,3.52-5.38,2.23-8.39
		C1039.75,626.1,1037.91,619.95,1035.72,613.91 M922.64,634.44c1.85,5.27,4.43,10.52,8.57,14.37c3.89,2.11,8.45,2.51,12.77,3.11
		c12.57,1.09,25.3,0.24,37.72-1.92c3.28-8.37,6.78-16.66,10.1-25.01C971.51,638.11,945.74,639.78,922.64,634.44 M1014.64,709.9
		c31.65,0.38,63.31,0.18,94.97,0.1c2.62-23.93,1.55-48.08,0.02-72.05C1083.79,668.64,1049.52,690.81,1014.64,709.9 M1025.9,659.89
		c-19.68,15.22-43.73,26-68.91,26.26c-23.09,0.02-46.7-0.3-68.9-7.41c3.46,7.44,7.21,14.76,11.62,21.69
		c2.06,3.14,4.14,6.39,7.09,8.8c1.13,1.01,2.76,0.75,4.16,0.87c31.29-0.06,62.57,0.06,93.86-0.06
		c14.19-18.78,26.02-39.47,34.37-61.5C1034.74,652.3,1030.57,656.39,1025.9,659.89L1025.9,659.89z"/>
	<path style="fill:#F7AEC6;" d="M889.9,413.03c2.2-2.53,4.29-5.3,7.18-7.08c3.29-0.46,6.62-0.17,9.92-0.22
		c34.66-0.01,69.31,0.03,103.96-0.02c2.64,0.1,5.4-0.35,7.96,0.46c1.92,1.69,3.37,3.83,5,5.79c12.31,15.38,23.81,31.46,33.56,48.59
		c6.71,11.91,12.67,24.36,16.25,37.59c-12.64-17.94-29.78-32.45-48.96-42.98c-24.53-13.43-52.93-19.03-80.75-17.52
		c-10.21,0.37-20.3,2.04-30.32,3.87c-15.67,0.27-31.85-1.02-46.95,4.09C873.99,434.42,881.49,423.37,889.9,413.03 M816.59,462.5
		c28.98-10.93,59.97-17.55,91.03-16.58c-31.54,16.06-60.84,39.3-77.49,71.13c-5.77,10.88-9.23,22.76-12.79,34.49
		c-6.81,23.76-12.32,48.05-13.81,72.78c-7.88-6.71-15.22-14.05-21.93-21.93c-3.39-4.38-7.59-8.74-8.79-14.28
		c12.31-40.47,25.31-80.76,37.88-121.17C811.09,463.97,814.34,463.53,816.59,462.5 M988.71,449.77c4.2-1.56,8.66-3.82,13.23-2.47
		c6.8,1.87,13.19,4.98,19.45,8.19c12.33,6.53,24.11,14.27,34.44,23.69c6.59,6.12,12.82,12.92,16.68,21.13
		c1.21,2.35,1.05,5.05,1.01,7.62c-0.42,11.3-1.32,22.85-5.61,33.44c-19.95-20.36-41-40.33-66.18-54.14
		c-13.3-7.49-28.71-9.72-43.72-10.67c-9.15-0.64-18.35,0.16-27.29,2.14C949.6,468.21,968.83,458.24,988.71,449.77 M907.31,450.27
		c2.1-1.06,4.21-2.72,6.71-2.2c13.96,1.82,27.52,7.58,38.07,16.97c-29.61,11.71-58.11,28.79-77.84,54.27
		c-14.46,18.68-23.93,41.8-23.94,65.63c-5.5-25.57-7.17-51.84-6.95-77.94c-0.51-4.01,2.64-6.87,4.79-9.81
		C864.11,477.41,885.32,462.63,907.31,450.27 M1060.12,455.03c14.28,3.69,28.65,7.22,42.49,12.39c2.19,0.97,5.24,1.6,5.6,4.44
		c10.39,35.21,20.76,70.44,31.19,105.64c0.74,3.09,2.91,6.61,0.52,9.51c-17.53,28.33-38.99,54.23-63.2,77.09
		c6.47-13.96,12.64-28.13,16.69-43.02c7.02-24.52,10.03-51.15,2.77-75.99c-6.17-18.36-12.39-36.73-19.54-54.75
		C1071.73,478.31,1066.87,466.18,1060.12,455.03 M926.95,480.91c20.93-5.33,44.03-4.84,63.83,4.35c2.37,0.82,3.85,2.9,4.95,5.04
		c8.08,14.77,15.01,30.29,19.15,46.65c-12.78-14.97-30.75-25.25-50.01-29.13c-18.81-3.97-38.39-2.18-56.86,2.67
		c3.95-8.07,7.99-16.12,12.68-23.8C922.23,484.28,923.8,481.33,926.95,480.91 M898.61,539.59c10.83-12.73,24.58-24.07,41.26-27.72
		c4.29,2.82,8.66,5.52,12.88,8.45c-17.84,7.37-33.84,20.14-43.4,37.08c-2.47,4.25-4.04,8.92-6.02,13.39
		c-3.2-8.04-5.55-16.42-7.45-24.84C894.89,543.36,897.2,541.42,898.61,539.59 M882.92,515.17c13.51-2.73,27.41-1.88,41.04-0.61
		c-17.93,8.59-30.39,25.35-38.16,43.21c-5.8,13.14-9.74,27.1-11.83,41.32c-0.2,1.36-0.52,2.74-1.33,3.89
		c-2.39-1.4-4.25-3.5-6.14-5.47c-4.72-5.06-9.53-10.04-13.96-15.35c2.33-23.13,11.08-45.71,25.62-63.92
		C879.3,516.65,880.92,515.4,882.92,515.17 M968.39,513.5c1.76-0.88,3.72-0.19,5.5,0.24c18.24,5.05,34.13,17.02,45.29,32.14
		c1.92,2.07,0.25,4.8-0.28,7.09c-1.27,3.57-2.25,7.47-4.88,10.32c-11.27-13.24-23.91-26.19-40.16-33.13
		c-8.1-3.54-17.26-4.34-25.85-2.27C954.17,522.3,960.63,516.74,968.39,513.5 M1011.94,513.94c6.96,0.94,14.09,0.79,20.95,2.25
		c9.09,6.22,15.88,15.56,20.29,25.59c5.74,13.59,7.68,28.62,6.55,43.28c-0.07,1.49-0.58,2.94-1.51,4.12
		c-2.97,4.02-6.85,7.24-10.65,10.43c-7.74,6.34-15.95,12.08-24.37,17.48c7.93-17.87,13.68-38.3,8.16-57.7
		C1027.16,543.39,1020.14,528.26,1011.94,513.94 M944.74,533.73c6.83-3.51,14.94-2.79,22.23-1.25c2.49,0.62,5.42,1.15,6.92,3.5
		c3.13,4.47,4.26,9.93,5.4,15.17c-13.66-6.07-29.09-4.85-43.57-3.38C938.22,542.82,940.65,537.57,944.74,533.73 M1053.24,534.87
		c6.41,4.79,12.23,10.31,18.28,15.54c7.65,7.02,15.43,13.96,22.22,21.84c1.73,2.2,4.13,4.55,3.52,7.63
		c-1.79,19.69-5.66,39.31-12.7,57.82c-3.51,8.93-7.73,17.66-13.38,25.44c-1.26,1.85-3.17,3.07-5.15,4
		c-11.23,5.42-23.5,9.27-36.08,8.98c12.86-21.28,23.03-44.33,28.65-68.6c4.65-19.67,5.53-40.57-0.1-60.13
		C1057.29,543,1055.34,538.89,1053.24,534.87 M818.56,572.61c7.13-8.77,14.28-17.66,22.96-24.96c1.85,22.21,6.64,44.25,14.79,65.01
		c8.84,22.09,22.23,43.26,42.09,56.98c5.85,4.17,12.4,7.17,18.88,10.23c-21.27-3.39-42.57-6.7-63.56-11.56
		c-4.07-1.19-9.14-1.65-11.39-5.81c-16.77-24.42-26.59-53.79-26.83-83.48C815.15,576.42,817.13,574.5,818.56,572.61 M914.29,554.15
		c7.16-4.02,15.88-4.34,23.91-3.64c-13.29,8.97-19.38,25.2-19.8,40.73c-3.73-2.88-7.66-5.52-11.19-8.64
		c-1.34-1.11-0.85-3.08-0.99-4.58C906.45,569.54,909.16,560.93,914.29,554.15 M982.89,552.13c4.89-1.14,10.01-1.89,15.01-0.98
		c8.79,7.13,11.07,19.76,9.56,30.47c-5.45,5.5-12.39,9.48-18.4,14.41c2.94-10.34,4.41-21.63,0.84-32
		C988.47,559.58,985.73,555.77,982.89,552.13 M882.65,578.86c3.82-6.03,9.09-11.19,14.77-15.53c2.18,16.21,6.2,32.5,14.65,46.66
		c4.65,8.16,11.31,15.1,19.32,20c-8.86-0.22-17.81-0.24-26.54-1.94c-3.12-0.46-4.3-3.8-5.95-6.05
		C890.98,608.83,883.5,594.5,882.65,578.86 M1011.88,564.55c7.27,5.19,13.81,12.07,17.35,20.33c-2.08,16.79-9.94,32.73-21.39,45.12
		c-4.04-0.98-8.09-1.89-12.12-2.85c1.17-3.35,2.29-6.72,3.5-10.05c1.7-4.96,4.93-9.19,6.86-14.05
		C1011.34,590.98,1013.03,577.61,1011.88,564.55 M803.41,665.01c0.64-28.34,3.96-56.58,9.15-84.43
		c1.83,18.97,5.91,37.82,13.69,55.28c13.1,30.29,35.89,55.94,63.27,74.13c-27.73,0.16-55.47,0.17-83.2-0.01
		C803.91,695.13,803.17,680.04,803.41,665.01 M921.24,590.97c0.2-1.94,1.72,0.01,1.94,0.75c6.42,12.9,18.12,22.36,30.75,28.81
		c-5.02,3.04-9.81,6.5-14.99,9.24c-9.85-4.7-18.34-12.87-23-22.78C916.69,601.45,919.56,596.32,921.24,590.97 M870.54,634.91
		c0.09-15.2,5.56-29.72,10.04-44.06c2.18,10.85,7.41,20.82,14.05,29.59c15.31,19.99,35.46,35.66,56.44,49.29
		c-6.56,2.96-13.38,5.26-20.21,7.48c-4.37,1.59-9.07,0.33-13.4-0.76c-15.48-4.54-27.89-15.86-37.88-28.11
		C876.35,644.03,872.74,639.86,870.54,634.91 M953.59,615.99c14.51-2.38,28.74-8.15,39.4-18.52c1.93,4.64,3.34,9.53,3.56,14.58
		c0.01,1.86,0.34,4.01-1.07,5.5c-5.78,6.98-14.28,11.71-23.35,12.53C966.03,625.28,959.68,620.8,953.59,615.99 M1035.72,613.91
		c2.19,6.04,4.03,12.19,5.98,18.3c1.29,3.01-0.9,5.83-2.23,8.39c-7.55,12.57-19.91,21.32-32.52,28.3
		c-8.31,4.34-16.9,8.42-25.93,10.98c-5.56-0.97-10.63-3.73-15.6-6.26c-9.63-5.37-18.75-11.69-27.1-18.89
		c18.9,3.07,38.73,1.64,56.49-5.81C1011.75,642.06,1025.97,629.26,1035.72,613.91 M922.64,634.44c23.1,5.34,48.87,3.67,69.16-9.45
		c-3.32,8.35-6.82,16.64-10.1,25.01c-12.42,2.16-25.15,3.01-37.72,1.92c-4.32-0.6-8.88-1-12.77-3.11
		C927.07,644.96,924.49,639.71,922.64,634.44 M1014.64,709.9c34.88-19.09,69.15-41.26,94.99-71.95c1.53,23.97,2.6,48.12-0.02,72.05
		C1077.95,710.08,1046.29,710.28,1014.64,709.9 M1025.9,659.89c4.67-3.5,8.84-7.59,13.29-11.35c-8.35,22.03-20.18,42.72-34.37,61.5
		c-31.29,0.12-62.57,0-93.86,0.06c-1.4-0.12-3.03,0.14-4.16-0.87c-2.95-2.41-5.03-5.66-7.09-8.8c-4.41-6.93-8.16-14.25-11.62-21.69
		c22.2,7.11,45.81,7.43,68.9,7.41C982.17,685.89,1006.22,675.11,1025.9,659.89L1025.9,659.89z"/>
	<path style="fill:#37266D;" d="M1106.97,742.73c2,0,4.01,0,6.02,0c-0.01,2-0.02,4.01-0.03,6.02c-1.99-0.01-3.98-0.02-5.96-0.01
		C1106.98,746.74,1106.97,744.73,1106.97,742.73 M1227.96,742.73c2.01,0,4.02,0,6.04,0c-0.02,2-0.04,4.01-0.05,6.02
		c-1.99-0.01-3.97-0.01-5.94,0C1227.99,746.74,1227.97,744.73,1227.96,742.73 M701.62,759.38c1.1-3.59,4.79-5.45,8.23-6.13
		c4.5-0.84,9.45-0.8,13.59,1.37c3.35,2.21,5.91,5.96,5.71,10.1c-2.24,0.01-4.48,0.01-6.72,0.06c-0.88-1.87-1.86-3.69-2.84-5.5
		c-2.85-0.34-5.79-0.92-8.63-0.19c-1.99,1-4.14,4.11-2.15,6.05c4.69,3.95,11.27,3.31,16.69,5.51c4.24,1.96,4.9,7.33,4.32,11.44
		c-0.18,2.99-2.01,5.65-4.49,7.24c-3.53,2.62-8.17,1.34-12.23,1.67c-3.78,0.29-8.08-0.52-10.41-3.8c-2.06-2.31-2.15-5.54-2.84-8.39
		c2.6-0.01,5.19-0.01,7.78-0.01c0.88,2.23,1.47,5.51,4.45,5.69c3.39,0.28,8.01,1.25,10.21-2.15c1.39-1.4,0.49-3.71-1.08-4.53
		c-5.53-3.34-12.86-2.68-17.75-7.21C700.27,767.81,700.66,763.09,701.62,759.38 M1192.7,756.74c3.98-3.96,10.07-4.47,15.36-3.68
		c3.61,0.53,7.45,2.18,9.25,5.56c0.78,1.96,1.01,4.1,1.56,6.15c-2.62-0.03-5.23-0.03-7.84-0.01c0-0.73,0-2.18,0-2.91
		c-2.71-3.13-7.26-3.67-11.07-2.67c-2.34,0.87-2.49,4.37-1.37,6.21c5.61,3.95,13.39,2.98,18.88,7.12
		c3.71,4.84,3.61,13.55-2.24,16.75c-4.21,2.83-9.52,1.38-14.25,1.73c-6.58,0.55-11.39-6.08-11.2-12.19c2.26,0,4.52,0,6.79,0.01
		c0.92,3.33,3.63,6.31,7.36,5.94c3.25,0.45,9.24,0.12,7.92-4.74c-4.18-5.59-12.15-4.87-17.8-8.15c-2.39-0.84-3.27-3.39-3.7-5.65
		C1189.61,762.95,1189.89,758.97,1192.7,756.74 M684.98,753.73c2.67,0,5.33,0,8,0c-0.01,12.36,0.02,24.72-0.02,37.08
		c-2.65-0.01-5.31-0.01-7.97,0C684.97,778.45,684.99,766.09,684.98,753.73 M737.98,753.73c5.99,0.1,12-0.21,17.99,0.15
		c3.86,0.14,7.76,2.38,9.07,6.16c1.79,5.25,1.2,12.14-3.42,15.79c-4.95,3.12-11.12,1.63-16.64,1.96c0,4.34,0,8.68-0.01,13.02
		c-2.33-0.01-4.65-0.01-6.98,0C737.97,778.45,737.99,766.09,737.98,753.73 M744.98,759.74c0,3.66,0,7.33,0.02,11
		c3.89-0.33,8.18,0.82,11.82-0.81c1.93-2.94,2.05-8.44-1.95-9.76C751.65,759.35,748.27,759.83,744.98,759.74 M779.96,753.74
		c3.01,0,6.02,0,9.04,0c4.3,12.36,8.65,24.7,12.99,37.05c-2.67,0.01-5.34,0.01-8.01,0.01c-0.66-2.67-1.33-5.33-1.99-8
		c-5.01,0-10.01,0-15.02,0c-0.66,2.67-1.33,5.33-2,8c-2.66,0-5.33,0-7.99,0C771.3,778.44,775.66,766.1,779.96,753.74 M783.97,760.93
		c-1.74,5.27-3.33,10.58-5,15.88c3.68-0.01,7.35-0.01,11.02-0.01C788,771.5,786.08,766.18,783.97,760.93 M806.98,753.73
		c6.01,0.04,12.03-0.06,18.04,0.02c3.08,0.17,6.41,0.41,9.04,2.19c2.93,2.85,3.15,7.31,2.8,11.14c0.03,2.73-2.67,4.12-4.43,5.73
		c1.48,1.8,3.86,3.48,3.52,6.12c-0.07,4.11-0.28,8.38,2.24,11.88c-3.03-0.01-6.06-0.02-9.09,0.02c-0.01-4.31-0.96-8.53-1.31-12.8
		c-3.58-3.15-8.47-2.12-12.81-2.22c0,5,0,10-0.01,15c-2.66-0.01-5.32-0.01-7.99-0.01C806.97,778.45,806.98,766.09,806.98,753.73
		 M814.98,759.74c0,3.33,0,6.66,0.01,10c3.87-0.09,7.76,0.25,11.61-0.24c3.76-1.08,4.68-7.12,0.94-8.85
		C823.55,759.09,819.15,759.9,814.98,759.74 M841.97,753.73c10,0,20.01,0,30.02,0c-0.01,2-0.02,4.01-0.03,6.02
		c-3.66-0.02-7.32-0.02-10.98-0.02c-0.01,10.36,0.02,20.72-0.01,31.08c-2.66-0.01-5.32-0.01-7.98,0c-0.02-10.36,0-20.72-0.01-31.08
		c-3.66,0-7.32,0-10.97,0.02C841.99,757.74,841.98,755.73,841.97,753.73 M884.96,753.74c3.01,0,6.02-0.01,9.03-0.01
		c4.31,12.36,8.67,24.71,12.99,37.07c-2.67,0-5.33,0-8,0c-0.66-2.67-1.33-5.33-1.99-7.99c-5.01-0.01-10.01-0.01-15.01-0.01
		c-0.67,2.67-1.34,5.33-2.01,8c-2.66,0-5.32,0-7.99,0C876.29,778.44,880.67,766.11,884.96,753.74 M883.96,776.8
		c3.68,0,7.35,0,11.03,0c-1.67-5.3-3.27-10.62-5-15.9C887.9,766.16,885.97,771.49,883.96,776.8 M927.98,753.73
		c6.31,0.07,12.62-0.12,18.93,0.07c3.09,0.21,6.73,0.84,8.53,3.68c2.57,4.12,2.18,10.37-2,13.33c3.12,2.03,5.79,5.29,5.51,9.23
		c0.14,5.87-5.54,10.27-11.04,10.57c-6.63,0.44-13.28,0.06-19.91,0.21C927.95,778.46,927.99,766.1,927.98,753.73 M935.97,759.74
		c0.01,2.66,0.01,5.33,0.03,8c3.65-0.07,7.32,0.23,10.95-0.24c2.38-0.55,4.15-3.62,2.16-5.6
		C945.76,758.39,940.27,760.15,935.97,759.74 M935.98,773.74c0,3.35,0,6.71,0.01,10.06c3.64-0.04,7.3,0.18,10.94-0.17
		c3.2-0.27,5.5-5.02,2.86-7.34C946.28,772.35,940.58,774.07,935.98,773.74 M965.98,753.73c9.01,0,18.01,0,27.02,0
		c-0.02,2.01-0.04,4.02-0.06,6.03c-6.66-0.05-13.31-0.02-19.97-0.03c0.01,2.67,0.01,5.34,0.03,8.02c6-0.03,12-0.02,18-0.02
		c-0.02,2.01-0.03,4.01-0.05,6.03c-5.99-0.04-11.98-0.03-17.97-0.02c0,3.35,0,6.71,0.01,10.07c6.99-0.02,13.99-0.01,21-0.01
		c-0.01,2.33-0.02,4.67-0.02,7.01c-9.33-0.02-18.65-0.02-27.97,0.01C965.96,778.45,965.99,766.09,965.98,753.73 M1000.98,753.73
		c2.66,0,5.33,0,8,0c0,10.03-0.01,20.05,0.01,30.08c6-0.02,12-0.01,18-0.01c-0.01,2.33-0.02,4.67-0.03,7.02
		c-8.66-0.03-17.32-0.02-25.97-0.01C1000.97,778.45,1000.98,766.09,1000.98,753.73 M1031.98,753.73c9,0,18.01,0,27.01,0
		c-0.01,2-0.02,4.01-0.03,6.02c-6.33-0.03-12.66-0.02-18.99-0.02c0.01,2.67,0.01,5.34,0.03,8.02c5.66-0.03,11.33-0.02,16.99-0.02
		c-0.01,2.01-0.02,4.01-0.04,6.02c-5.66-0.03-11.32-0.02-16.97-0.01c0,3.35,0,6.71,0.02,10.07c6.66-0.02,13.32-0.01,19.98-0.01
		c0,2.33-0.01,4.67-0.01,7.01c-9.32-0.01-18.65-0.02-27.97,0.01C1031.96,778.45,1031.99,766.09,1031.98,753.73 M1066.98,753.73
		c7.2,0.24,14.51-0.63,21.63,0.74c4.06,0.73,6.49,4.36,8.2,7.78c4.09,8.06,2.01,18.3-3.51,25.13c-7.79,5.08-17.55,2.96-26.3,3.43
		C1066.96,778.45,1066.99,766.09,1066.98,753.73 M1074.98,759.73c0.01,8.03-0.02,16.07,0.02,24.11c3.3-0.13,6.74,0.3,9.94-0.75
		c2.81-1.22,5.24-3.83,5.66-6.95c0.67-4.38,0.52-9.13-1.56-13.13C1085.8,758.61,1079.69,759.92,1074.98,759.73 M1105.98,753.73
		c2.66,0,5.33,0,8,0c-0.01,12.36,0.02,24.72-0.02,37.08c-2.66-0.01-5.32-0.01-7.97-0.01
		C1105.97,778.45,1105.98,766.09,1105.98,753.73 M1118.01,753.75c3.32-0.02,6.65-0.02,9.98-0.01c2.58,5,4.9,10.15,7.59,15.1
		c0.2-0.03,0.58-0.1,0.78-0.13c2.41-4.89,4.35-10.01,6.61-14.97c3-0.01,5.99-0.01,8.99,0c-3.8,7.55-7.95,14.94-11.63,22.55
		c-0.82,4.77-0.15,9.69-0.35,14.52c-2.67-0.01-5.34-0.01-8,0c-0.61-5.87,1.71-12.6-2.16-17.68
		C1125.82,766.71,1121.92,760.23,1118.01,753.75 M1155.98,753.73c9,0,18,0,27.01,0c-0.02,2-0.02,4.01-0.03,6.02
		c-6.33-0.03-12.66-0.02-18.99-0.02c0.01,2.67,0.01,5.34,0.03,8.02c5.99-0.03,11.99-0.02,17.99-0.01c-0.02,2.33-0.02,4.67-0.03,7.01
		c-5.99-0.03-11.99-0.02-17.98-0.02c0,3.03,0,6.06,0.01,9.09c6.67-0.03,13.33-0.02,20-0.02c-0.02,2.34-0.02,4.67-0.03,7.02
		c-9.32-0.03-18.65-0.02-27.97-0.01C1155.97,778.45,1155.99,766.09,1155.98,753.73 M1226.98,753.73c2.66,0,5.33,0,8,0
		c-0.01,12.36,0.02,24.72-0.02,37.09c-2.66-0.02-5.32-0.02-7.97-0.02C1226.97,778.45,1226.98,766.09,1226.98,753.73L1226.98,753.73z
		"/>
</g>
</svg>
