<?xml version="1.0" encoding="iso-8859-1"?>
<!-- Generator: Adobe Illustrator 29.7.1, SVG Export Plug-In . SVG Version: 9.03 Build 0)  -->
<svg version="1.1" id="Layer_1" xmlns="http://www.w3.org/2000/svg" xmlns:xlink="http://www.w3.org/1999/xlink" x="0px" y="0px"
	 viewBox="0 0 1000 1000" style="enable-background:new 0 0 1000 1000;" xml:space="preserve">
<path style="fill-rule:evenodd;clip-rule:evenodd;fill:#FFFFFF;" d="M500.001,67.767c235.675,0,426.981,193.547,426.981,432.233
	c0,238.688-191.307,432.233-426.981,432.233C264.164,932.233,73.017,738.688,73.017,500
	C73.017,261.314,264.164,67.767,500.001,67.767L500.001,67.767z"/>
<path style="fill:#0E0C0D;" d="M500.001,95.37L500.001,95.37L500.001,95.37c110.118,0,209.954,45.465,282.458,118.693
	C854.801,287.293,899.656,388.451,899.656,500h0.16l0,0l0,0h-0.16c0,111.389-44.855,212.714-117.197,285.941
	c-72.504,73.229-172.34,118.688-282.458,118.688l0,0l0,0l0,0l0,0c-110.121,0-210.116-45.459-282.459-118.688
	C145.038,712.714,100.189,611.549,100.189,500l0,0l0,0l0,0l0,0c0-111.389,44.849-212.707,117.353-285.936
	C289.885,140.835,389.88,95.37,500.001,95.37L500.001,95.37L500.001,95.37z M500.001,107.062L500.001,107.062L500.001,107.062
	L500.001,107.062L500.001,107.062c-106.908,0-204.008,44.163-274.263,115.281C155.329,293.625,111.758,391.86,111.758,500l0,0l0,0
	l0,0l0,0c0,108.138,43.57,206.377,113.98,277.657c70.254,71.124,167.355,115.287,274.263,115.287l0,0l0,0l0,0l0,0
	c106.905,0,203.845-44.163,274.261-115.287c70.254-71.28,113.981-169.52,113.981-277.657h-0.16l0,0l0,0h0.16
	c0-108.14-43.727-206.375-113.981-277.657C703.846,151.225,606.906,107.062,500.001,107.062L500.001,107.062z"/>
<path style="fill-rule:evenodd;clip-rule:evenodd;fill:#008BD2;" d="M599.836,776.849c0,0-89.705,43.188-208.029-0.487
	c0,0,5.628-13.647,38.426-1.95c0,0,21.218,3.412,37.938-7.465c0,0,20.897-8.773,39.544,6.169c0,0,19.135,12.173,45.818,1.462
	c0,0,23.795-8.939,40.996,0l2.41,0.81l1.123,0.487l0.969,0.153L599.836,776.849z M293.102,714.497c0,0,24.275,23.384,54.819,41.073
	c0,0,87.612,1.141,104.654-0.478c0,0,16.561,0.321,24.918-7.797c0,0,13.668-9.748,24.761,6.49c0,0,3.373,8.928,29.414,3.899
	c0,0,81.67-1.297,93.566,0.809c0,0,9.32,1.628,12.219,1.628c0,0,42.44-26.949,45.979-31.181c0,0-27.975-33.607-37.943-14.444
	c0,0-7.232,19.317-31.83,18.83c0,0-62.533-1.617-77.006,1.141c0,0-17.844,2.592-27.486-5.848c0,0-25.565-41.085-45.497-9.415
	c0,0-12.057,15.905-27.653,13.147c0,0-77.483-3.411-87.612-3.245c0,0-13.664-2.759-17.845-13.314c0,0-5.146-20.139-25.721-9.737
	l-10.451,6.812L293.102,714.497z M266.253,685.265l22.025,24.357c0,0,12.538-12.339,14.948-16.071c0,0,14.953-18.997,25.404-0.975
	c0,0,18.649,30.195,43.887,21.921c0,0,35.689-4.707,58.036,0.642c0,0,22.825,2.282,33.918-16.715c0,0,20.421-29.553,37.456-1.628
	c0,0,2.414,28.9,38.104,19.485c0,0,53.213-2.926,68.482,0c0,0,16.4,5.36,32.156-16.074c0,0,11.731-22.408,31.668,1.297
	l18.809,20.625c0,0,27.004-25.333,27.975-27.77c0,0-16.078-12.019-27.17-2.27c0,0-8.359,4.22-20.094-8.119
	c0,0-24.115-36.377-44.535,0.975c0,0-7.715,11.852-49.191,6.979c0,0-44.047-0.487-47.426-0.487c0,0-7.715,2.281-12.379-11.854
	c0,0-5.305-15.418-25.72-11.851c0,0-11.735-1.296-15.917-3.566c0,0-19.772-1.307-19.772,11.852c0,0-5.306,15.907-30.544,13.637
	c0,0-38.586-1.784-53.856,1.783c0,0-17.524,1.141-26.369-18.345c0,0-12.861-24.357-31.668-7.143
	c-18.649,17.214-19.291,18.997-31.026,18.997h-11.094L266.253,685.265z M239.087,646.297c0,0,12.699,21.112,14.626,22.408
	c1.767,1.462,46.944,2.272,53.052-4.873c0,0,29.902-29.874,40.193-10.879c0,0,11.735,25.333,34.239,20.138l48.87-0.809
	c0,0,11.575-0.975,16.722-12.992c0,0,16.237-16.892,27.01-5.361c0,0,9.803,11.044,24.436-2.438c0,0,17.844-11.198,25.559,6.337
	c0,0,13.986,22.896,30.062,17.047l52.732-1.462c0,0,14.143-4.221,18.969-14.777c0,0,16.076-13.47,30.383,1.308
	c0,0,16.398,19.805,37.777,13.803l41.316,0.963l13.182-19.318v-1.462c0,0-40.508-2.759-50.316-0.976c0,0-17.844,1.462-35.369-6.003
	c0,0-28.295-28.898-39.383-13.648c0,0-12.539,20.626-33.281,19.01l-31.025-1.462c0,0-14.793-5.362-20.742-15.431
	c0,0-15.27-19.807-32.791,0c0,0-8.038,6.657-12.218,8.118c0,0-13.664,3.412-17.845-7.144c0,0-13.985-22.574-30.866-6.978
	c0,0-17.042,19.971-34.244,17.214c0,0-26.524,0.963-28.296,0.963c0,0-9.16-2.758-14.305-13.956c0,0-11.897-28.257-36.332-2.115
	c0,0-15.757,17.533-38.421,13.645c0,0-40.995,0.487-44.534,0.487C251.786,645.653,239.087,646.297,239.087,646.297L239.087,646.297z
	 M217.22,600.505c0,0,11.575,28.258,12.7,28.911c1.285,0.487,58.519-2.115,71.7-1.141c0,0,23.471,2.115,29.581-8.773
	c0,0,17.042-18.83,27.975-8.762c20.734,22.409,52.243,26.142,73.306,1.136c0,0,10.291-10.884,21.056,0.648
	c0,0,12.379,6.656,22.83,14.776c0,0,15.115,16.403,32.799-6.003c0,0,18.969-16.405,28.613-9.422c0,0,36.979,36.691,62.859,14.295
	c0,0,23.953-25.179,37.617-6.99c0,0,12.859,23.383,48.066,17.535c0,0,63.986,2.769,69.131,3.733l1.445,0.165
	c0,0,12.701-24.191,12.701-25.976c0,0-78.773-4.552-91.473-4.225c0,0-28.777,7.305-46.301-17.054c0,0-20.416-13.635-37.779,9.422
	c0,0-16.561,13.962-26.529-3.573c0,0-21.699-24.357-39.383-4.874c0,0-24.434,27.282-65.912,10.236c0,0-16.239-11.532-18.969-16.893
	c0,0-17.685-14.609-27.975,5.682c0,0-19.452,29.719-35.369,0c0,0-18.647-23.537-42.762,5.202c0,0-10.771,6.009-37.936,2.43
	l-74.597,1.142L217.22,600.505z M204.842,559.914c0,0,4.825,18.188,8.518,29.88c0,0,96.778,1.296,105.784-0.166
	c0,0,21.223,2.275,34.887-15.424c0,0,13.983-14.45,24.114-3.245c0,0,13.822,25.652,31.507,7.792c0,0,10.451-17.375,18.969-9.902
	c0,0,17.202,19.805,40.995,22.241c0,0,49.192,8.607,68.001-14.449c0,0,12.545-13.642,23.633-2.765c0,0,25.242,30.855,37.295,4.875
	c0,0,10.934-15.912,24.279-2.436c0,0,18.971,26.627,44.529,16.886c0,0,93.4,3.739,100.156,2.437l9.643,0.813
	c0,0,7.561-23.381,7.561-25.165c0,0-101.924,0.81-109.162,0.81c0,0-23.15,4.546-35.367-6.498
	c-12.219-11.038-58.514-28.573-92.758-8.602c-25.881,24.353-92.758,18.832-115.587-8.772c0,0-14.953-15.099-34.565-3.567
	c0.321-0.975-23.31-11.21-34.244,5.029c0,0-14.466,23.384-49.031,17.699c-34.565-5.521-88.1-7.958-100.8-5.194l-4.497-0.326
	L204.842,559.914z M198.733,517.862c0,0,0.643,10.39,3.7,29.065c0,0,68.482-12.341,109.799,1.949c0,0,35.208,11.524,60.125-18.189
	c0,0,25.56-20.947,50.797,4.547c0,0,15.918,18.183,33.924,15.752c0,0,78.611,6.33,92.115-3.899
	c13.506-10.065,33.922-30.688,54.176-15.591c0,0,27.652,26.473,47.104,23.384c0,0,77.328-3.894,101.441-1.136
	c0,0,36.172,1.788,36.975,1.462c0,0,4.02-21.595,3.859-25.167c0,0-53.051-1.462-56.912-1.462c0,0-20.414-6.983-40.025,0.813
	c0,0-40.676,18.998-73.307-6.008c0,0-29.26-31.663-50.482-11.045c0,0-16.881,19.158-32.15,18.027c0,0-70.416,6.979-86.975-0.975
	c0,0-29.742-8.771-43.565-23.87c0,0-14.466-14.615-31.026,5.683c0,0-14.144,20.946-60.125,17.374c0,0-48.388-13.642-96.777-8.606
	l-19.939-1.135L198.733,517.862z M198.894,469.962c0,0-1.606,11.528-1.285,27.117c0,0,38.259,3.733,55.783,0.484
	c0,0,29.742,3.249,42.44,11.69c0,0,32.639,15.426,55.784-4.059c0,0,42.44-39.133,77.327-6.331c0,0,27.492,24.68,56.269,17.701
	c0,0,48.55,1.297,74.753-18.353c0,0,35.047-17.697,61.731,5.038c0,0,27.492,25.976,61.254,15.259c0,0,34.238-12.014,56.104-8.281
	c0,0,54.981,1.623,55.463,1.462c0.482-0.326,0.803-27.442,0.482-29.225c-0.322-1.79-11.574,2.921-34.244-0.815
	c0,0-21.379-5.03-42.115,7.796c-20.902,12.828-77.006,19.488-98.871-6.334c0,0-24.436-25.816-91.955,9.096
	c0,0-35.045,27.438-107.388-22.086c0,0-27.653-16.723-75.56,15.59c0,0-43.083,15.75-87.773-10.23
	C234.744,463.63,201.624,470.773,198.894,469.962L198.894,469.962z M204.681,443.982l-4.341,0.975
	c21.543-130.222,127.644-231.868,257.38-248.431c163.011-20.783,312.843,96.611,333.743,261.58l2.25,0.489
	c-9.648,4.87-43.244,4.87-43.244,4.87c-15.918,0-87.94,9.582-87.94,9.582c-19.129,6.493-52.731-14.452-52.731-14.452
	c-15.912-16.236-79.896,14.452-79.896,14.452c-38.42,29.227-95.975-14.452-95.975-14.452c-52.73-21.107-76.845,3.247-76.845,3.247
	c-30.385,20.946-86.328,0-86.328,0c-36.814-16.237-69.773-14.613-69.773-14.613L204.681,443.982z"/>
<path style="fill-rule:evenodd;clip-rule:evenodd;fill:#0E0C0D;" d="M141.179,552.283l-1.286-17.375l25.239-8.44l-26.042-4.873
	l-1.285-17.374l42.12-2.921l0.803,10.713l-32.151,2.275l32.793,6.171l0.642,9.742l-31.669,10.556l32.151-2.276l0.803,10.718
	L141.179,552.283z M137.002,489.934l3.052-35.399l9.005,0.815l-1.933,22.081l6.751,0.647l1.772-20.459l8.519,0.651l-1.767,20.622
	l8.357,0.648l1.933-22.732l9.482,0.811l-3.051,36.047L137.002,489.934z M182.334,451.614l-41.478-8.121l4.181-21.593
	c0.643-4.06,1.606-6.983,2.731-9.095c1.13-1.946,2.736-3.408,4.824-4.383c2.093-0.812,4.342-1.136,7.073-0.648
	c2.254,0.484,4.181,1.459,5.627,2.759c1.451,1.298,2.576,2.924,3.218,4.871c0.481,1.298,0.803,2.924,0.803,4.87
	c0.803-1.459,1.606-2.434,2.249-3.085c0.326-0.323,1.29-0.975,2.576-1.623c1.285-0.649,2.249-1.135,2.891-1.298l13.181-3.896
	l-2.73,14.613l-14.145,4.384c-1.773,0.648-2.896,1.136-3.54,1.785c-0.803,0.812-1.445,1.787-1.606,2.923l-0.16,1.137l16.72,3.41
	L182.334,451.614z M160.147,433.752l0.97-5.518c0.161-0.487,0.161-1.791,0.161-3.574c0-0.813-0.321-1.624-0.964-2.275
	c-0.487-0.648-1.291-1.136-2.254-1.297c-1.284-0.326-2.409,0-3.212,0.648c-0.969,0.812-1.612,2.274-2.094,4.707l-1.124,5.686
	L160.147,433.752z M177.831,404.686l3.378-12.177c1.928,0.487,3.539,0.487,4.825,0c2.087-0.649,3.533-2.272,4.342-4.709
	c0.643-1.787,0.643-3.245,0.161-4.545c-0.482-1.139-1.29-1.949-2.415-2.437c-0.964-0.325-2.087-0.161-3.212,0.487
	c-1.129,0.648-2.575,2.437-4.503,5.521c-3.058,5.032-6.109,8.44-8.845,10.066c-2.891,1.623-5.788,1.946-8.839,0.811
	c-2.088-0.647-3.86-1.949-5.306-3.733c-1.445-1.949-2.249-4.222-2.409-6.983c-0.322-2.761,0.321-6.33,1.767-10.554
	c1.766-5.197,4.02-8.767,6.911-10.716c2.736-2.11,6.43-2.762,10.612-1.787l-3.218,12.016c-1.928-0.323-3.534-0.162-4.658,0.652
	c-1.13,0.647-1.933,1.945-2.576,3.732c-0.482,1.462-0.642,2.598-0.161,3.572c0.321,0.975,0.964,1.622,1.767,1.949
	c0.643,0.16,1.291,0,2.094-0.327c0.642-0.487,1.606-1.622,2.892-3.732c2.896-5.034,5.466-8.606,7.393-10.557
	c2.094-1.946,4.181-3.085,6.275-3.569c2.087-0.487,4.337-0.326,6.43,0.484c2.569,0.813,4.658,2.438,6.43,4.547
	c1.607,2.273,2.57,4.871,2.731,7.795c0.321,2.923-0.161,6.334-1.606,10.23c-2.254,6.98-5.145,11.2-8.685,12.99
	C185.873,405.499,182.013,405.825,177.831,404.686L177.831,404.686z M168.029,349.319l5.626-12.016l38.259,18.186l-5.467,11.852
	L168.029,349.319z M158.862,342.662l3.86-8.443l7.715,3.732l-3.855,8.283L158.862,342.662z M178.961,326.264l6.109-10.718
	l28.129-2.113l-20.093-11.852l6.109-10.716l36.492,21.432l-6.108,10.718l-27.975,2.11l20.1,11.855l-6.11,10.714L178.961,326.264z
	 M222.687,260.177l16.88-17.862c2.891-2.922,5.789-4.545,8.679-4.707c3.057-0.164,5.627,0.811,7.714,2.924
	c1.774,1.783,2.737,3.732,3.058,6.17c0,1.622-0.321,3.409-1.124,5.355c2.569-1.784,4.984-2.434,7.232-2.271
	c2.249,0.161,4.504,1.3,6.43,3.085c1.447,1.623,2.571,3.41,3.058,5.359c0.641,1.947,0.641,3.897,0.161,6.007
	c-0.321,1.137-1.13,2.76-2.415,4.547c-1.767,2.436-3.052,3.896-3.695,4.707l-15.596,16.4L222.687,260.177z M243.745,262.126
	l3.859-4.06c1.447-1.463,2.088-2.761,2.249-3.896c0-0.975-0.482-2.113-1.445-2.924c-0.804-0.974-1.767-1.3-2.891-1.136
	c-0.965,0-2.254,0.811-3.539,2.272l-4.016,4.221L243.745,262.126z M255.641,273.816l4.663-4.873c1.445-1.622,2.254-3.084,2.415-4.22
	c0-1.3-0.322-2.274-1.452-3.249c-0.802-0.972-1.926-1.298-3.051-1.136c-1.124,0.164-2.574,0.975-4.181,2.598l-4.503,4.872
	L255.641,273.816z M278.31,207.242l10.29-8.115l15.435,19.971c1.606,2.109,2.73,4.22,3.534,6.494
	c0.641,2.274,0.963,4.547,0.641,6.82c-0.321,2.434-0.963,4.383-1.928,6.17c-1.445,2.274-3.539,4.547-6.43,6.817
	c-1.611,1.302-3.378,2.437-5.466,3.736c-2.094,1.298-4.02,2.11-5.948,2.437c-1.767,0.323-3.699,0.323-5.788,0
	c-1.928-0.487-3.7-1.139-5.145-2.274c-2.25-1.624-4.021-3.247-5.306-4.869l-15.591-20.137l10.285-8.118l15.918,20.621
	c1.445,1.787,3.051,2.923,4.823,3.085c1.767,0.325,3.695-0.323,5.467-1.785c1.767-1.3,2.73-2.924,2.891-4.872
	c0.322-1.785-0.321-3.571-1.767-5.521L278.31,207.242z M258.698,210.004l5.949-4.707l4.502,5.843l-5.949,4.547L258.698,210.004z
	 M268.346,202.372l5.947-4.708l4.497,5.683l-5.947,4.708L268.346,202.372z M296.475,192.793l12.699-7.145l14.311,8.443l0.482-16.727
	l12.7-7.144l-2.571,29.877l8.679,15.588l-11.414,6.495l-8.679-15.75L296.475,192.793z M370.429,155.447l12.218-4.71l9,23.87
	c0.963,2.27,1.445,4.708,1.445,7.145c0,2.271-0.321,4.545-1.286,6.818c-0.963,2.109-2.247,3.899-3.698,5.194
	c-1.928,1.789-4.659,3.249-8.038,4.547c-1.926,0.816-4.014,1.464-6.43,2.113c-2.408,0.648-4.502,0.812-6.268,0.484
	c-1.767-0.159-3.7-0.811-5.467-1.782c-1.928-0.975-3.373-2.113-4.343-3.573c-1.765-2.273-2.891-4.387-3.693-6.333l-9.006-23.707
	l12.057-4.708l9.326,24.355c0.804,2.11,2.088,3.572,3.695,4.384c1.611,0.651,3.539,0.651,5.627-0.16
	c2.093-0.814,3.539-1.95,4.341-3.736c0.643-1.625,0.643-3.572-0.159-5.846L370.429,155.447z M350.973,152.363l6.912-2.761
	l2.576,6.817l-6.912,2.761L350.973,152.363z M362.388,147.98l7.071-2.762l2.576,6.821l-7.073,2.758L362.388,147.98z
	 M395.347,146.354l12.699-2.922l3.534,15.749l9.808-18.833l16.882-4.06l-11.416,19.32l21.706,22.244l-15.757,3.573l-12.539-15.101
	l-4.984,8.606l2.248,10.066l-12.698,3.085L395.347,146.354z M448.721,163.404l12.377-1.623c0.322,1.947,0.965,3.572,1.928,4.544
	c1.446,1.625,3.374,2.273,5.949,2.113c1.767-0.164,3.217-0.651,4.18-1.626c0.965-0.975,1.285-1.946,1.285-3.084
	c-0.159-1.136-0.642-2.11-1.604-2.923c-1.13-0.813-3.38-1.462-6.919-1.949c-5.787-0.975-9.964-2.436-12.538-4.384
	c-2.571-1.949-4.016-4.546-4.338-7.956c-0.161-2.11,0.322-4.384,1.445-6.333c1.126-2.109,2.893-3.735,5.467-5.034
	c2.41-1.299,5.788-2.11,10.125-2.435c5.467-0.326,9.648,0.324,12.544,2.275c3.052,1.786,4.979,4.871,5.788,9.254l-12.218,1.623
	c-0.487-1.947-1.291-3.248-2.415-4.057c-1.124-0.814-2.569-1.139-4.341-0.975c-1.606,0.16-2.731,0.487-3.373,1.135
	c-0.804,0.812-1.125,1.623-0.965,2.437c0,0.812,0.322,1.299,0.965,1.784c0.802,0.65,2.248,0.975,4.502,1.302
	c5.783,0.811,9.963,1.786,12.54,2.922c2.569,1.138,4.497,2.597,5.788,4.383c1.124,1.786,1.926,3.898,2.087,6.17
	c0.161,2.762-0.482,5.358-1.767,7.632c-1.289,2.437-3.217,4.384-5.947,5.846c-2.576,1.299-5.949,2.11-9.97,2.434
	c-7.232,0.487-12.216-0.483-15.114-3.084C451.129,171.196,449.362,167.787,448.721,163.404L448.721,163.404z M462.704,181.426
	l0.643-3.409c1.767-0.651,3.539-0.975,4.984-1.139c3.373-0.159,5.628,0.164,6.912,1.303c1.445,0.975,2.088,2.271,2.249,3.732
	c0,0.975-0.161,1.949-0.643,3.085c-0.482,0.975-1.445,1.786-2.891,2.598c-1.445,0.65-3.378,1.138-5.789,1.301
	c-2.254,0.161-4.823,0-7.721-0.326l-0.32-3.572c2.093,0.326,4.18,0.326,6.435,0.163c1.606-0.163,2.73-0.487,3.373-0.975
	c0.482-0.487,0.804-0.975,0.643-1.786c0-0.487-0.321-0.975-0.804-1.299c-0.482-0.487-1.285-0.65-2.248-0.487
	C466.077,180.777,464.632,180.939,462.704,181.426L462.704,181.426z M494.373,132.064l34.886,0.487l-0.16,9.258l-21.867-0.487
	l-0.16,6.817l20.422,0.327l-0.162,8.767l-20.42-0.326v8.446l22.508,0.324l-0.16,9.741l-35.69-0.65L494.373,132.064z
	 M542.602,135.149l12.859,2.273l-2.568,14.776l14.145,2.438l2.414-14.616l13.021,2.273l-7.395,42.056l-12.865-2.273l2.896-17.05
	l-13.984-2.434l-3.057,16.887l-12.861-2.273L542.602,135.149z M594.209,146.029l12.697,3.409l-10.932,41.241l-12.699-3.408
	L594.209,146.029z M599.193,135.638l8.678,2.273l-2.248,8.443l-8.683-2.273L599.193,135.638z M604.172,193.28l17.203-39.131
	l19.777,9.091c3.693,1.626,6.43,3.248,8.035,4.71c1.768,1.46,2.731,3.409,3.213,5.683c0.488,2.273,0,4.708-0.965,7.145
	c-0.963,2.11-2.248,3.733-3.854,5.034c-1.611,1.136-3.539,1.784-5.467,2.11c-1.285,0.161-2.896,0-4.822-0.326
	c1.123,0.975,1.926,1.949,2.408,2.761c0.32,0.487,0.646,1.462,0.969,2.924c0.482,1.46,0.643,2.434,0.643,3.246l0.803,13.801
	l-13.508-6.005l-1.125-14.777c-0.16-1.949-0.322-3.248-0.803-4.06c-0.643-0.975-1.445-1.786-2.57-2.273l-0.963-0.324l-7.078,15.752
	L604.172,193.28z M626.359,175.419l4.984,2.275c0.482,0.323,1.766,0.487,3.377,0.975c0.965,0.16,1.768,0,2.572-0.487
	c0.801-0.328,1.283-0.975,1.605-1.95c0.641-1.135,0.641-2.273,0.16-3.409c-0.482-0.975-1.766-1.949-4.016-2.924l-5.145-2.435
	L626.359,175.419z M686.002,186.947l19.933,14.29c3.377,2.272,5.305,5.034,5.947,7.954c0.643,2.923,0.16,5.52-1.607,8.121
	c-1.445,1.945-3.211,3.407-5.627,3.895c-1.445,0.487-3.213,0.325-5.305-0.323c2.092,2.434,3.219,4.708,3.379,6.982
	c0.16,2.437-0.482,4.707-2.094,6.817c-1.285,1.949-2.731,3.247-4.658,4.06c-1.766,0.813-3.699,1.137-5.787,0.975
	c-1.285,0-2.896-0.648-4.824-1.623c-2.73-1.462-4.342-2.436-5.145-2.924l-18.488-13.151L686.002,186.947z M687.287,208.381
	l4.664,3.246c1.605,1.301,3.055,1.788,4.02,1.626c1.125-0.164,1.928-0.651,2.73-1.787c0.643-0.975,0.963-2.11,0.643-3.085
	c-0.16-0.975-1.125-2.109-2.731-3.248l-4.824-3.408L687.287,208.381z M677.805,222.182l5.467,3.898
	c1.768,1.298,3.213,1.787,4.496,1.787c1.291-0.164,2.256-0.812,3.059-1.951c0.643-0.975,0.803-2.11,0.48-3.246
	c-0.32-1.137-1.283-2.436-3.217-3.734l-5.461-3.896L677.805,222.182z M727.478,216.825l25.561,24.19l-6.109,6.658l-16.072-15.101
	l-4.664,5.034l14.949,13.965l-5.947,6.33l-14.789-13.962l-5.627,6.17l16.398,15.588l-6.59,6.981l-26.047-24.519L727.478,216.825z
	 M760.111,249.785l8.523,9.904l-24.115,21.109l13.502,15.588l-7.875,6.982l-22.025-25.654L760.111,249.785z M788.568,284.047
	l18.969,29.714l-7.555,5.034l-11.896-18.676l-5.627,3.736l11.094,17.21l-7.234,4.874l-11.094-17.375l-6.912,4.707l12.219,19.162
	l-8.037,5.194l-19.455-30.2L788.568,284.047z M813.807,325.612l8.201,17.862c1.606,3.408,2.41,6.492,2.41,9.093
	c0.16,2.598-0.483,5.031-1.606,7.306c-1.127,2.274-2.576,4.223-4.666,6.008c-2.086,1.623-4.34,3.246-6.91,4.385
	c-4.182,1.946-7.555,2.922-10.291,3.085c-2.73,0.164-5.144-0.323-7.393-1.298c-2.41-0.815-4.182-2.274-5.627-3.9
	c-1.928-2.271-3.379-4.544-4.344-6.657l-8.197-17.697L813.807,325.612z M810.594,341.688l-20.902,9.905l1.289,2.921
	c1.127,2.438,2.25,4.224,3.375,5.036c0.963,0.649,2.254,1.135,4.02,1.135c1.607-0.16,4.016-0.812,7.074-2.273
	c4.022-1.946,6.43-3.897,7.393-6.008c0.803-1.949,0.482-4.546-0.803-7.631L810.594,341.688z M833.424,371.565l4.336,12.501
	l-40.027,13.964l-4.18-12.504L833.424,371.565z M844.838,369.942l2.891,8.602l-8.197,2.762l-2.896-8.607L844.838,369.942z
	 M840.174,391.373l3.533,14.288l-11.736,11.855l15.918,4.868l3.379,14.129l-27.654-10.07l-17.201,4.388l-3.213-12.827l17.203-4.387
	L840.174,391.373z M851.75,446.58l3.051,35.234l-9,0.81l-1.771-22.08l-6.752,0.648l1.771,20.457l-8.523,0.651l-1.766-20.459
	l-8.357,0.812l1.928,22.731l-9.488,0.812l-3.053-35.885L851.75,446.58z M826.672,490.746l0.48,12.505
	c-2.094,0.321-3.539,0.809-4.662,1.617c-1.768,1.302-2.576,3.251-2.576,5.848c-0.16,1.784,0.322,3.246,1.131,4.388
	c0.963,0.975,1.928,1.462,3.051,1.462c1.125,0,2.09-0.326,2.896-1.301c0.965-0.977,1.768-3.252,2.57-6.819
	c1.445-5.682,3.213-9.907,5.467-12.343c2.088-2.437,4.824-3.571,8.197-3.571c2.094,0.164,4.18,0.811,6.107,2.109
	c1.934,1.3,3.379,3.249,4.504,5.847c0.963,2.436,1.445,6.009,1.445,10.551c-0.16,5.362-1.285,9.582-3.213,12.346
	c-2.094,2.919-5.305,4.546-9.648,5.033l-0.641-12.504c1.926-0.322,3.377-0.977,4.18-2.112c0.965-0.975,1.445-2.436,1.445-4.22
	c0-1.623-0.32-2.764-0.963-3.572c-0.643-0.813-1.285-1.141-2.254-1.141c-0.643,0-1.285,0.327-1.928,0.814
	c-0.48,0.648-0.963,2.109-1.605,4.546c-1.285,5.685-2.574,9.743-3.859,12.341c-1.287,2.437-2.893,4.221-4.826,5.36
	c-1.928,0.975-4.014,1.623-6.268,1.623c-2.73-0.161-5.146-0.975-7.394-2.436c-2.408-1.623-4.02-3.732-5.146-6.496
	c-1.123-2.758-1.606-6.171-1.606-10.392c0.16-7.143,1.606-12.178,4.344-14.936C818.791,492.531,822.33,490.906,826.672,490.746
	L826.672,490.746z M852.07,540.269l-1.605,13.15l-41.959-5.195l1.605-13.149L852.07,540.269z M862.844,543.843l-1.131,9.088
	l-8.518-1.13l1.123-9.094L862.844,543.843z"/>
<path style="fill-rule:evenodd;clip-rule:evenodd;fill:#F07D00;" d="M493.891,256.116c55.14,0,100.156,45.465,100.156,101.323
	c0,55.853-45.016,101.318-100.156,101.318c-55.141,0-100.157-45.465-100.157-101.318
	C393.734,301.581,438.75,256.116,493.891,256.116L493.891,256.116z"/>
<path style="fill:#0E0C0D;" d="M443.576,812.892v45.792c0,3.411,0.159,5.517,0.32,6.491c0.322,0.975,0.965,1.783,1.928,2.437
	c0.965,0.487,2.41,0.81,4.504,0.81h1.285v1.462h-28.938v-1.462h1.445c2.254,0,4.02-0.322,4.984-0.81
	c0.963-0.487,1.772-1.296,2.093-2.271c0.322-0.975,0.481-3.246,0.481-6.657v-29.065c0-2.604-0.159-4.22-0.32-4.875
	c-0.322-0.652-0.804-1.128-1.452-1.615c-0.642-0.488-1.445-0.655-2.248-0.655c-1.445,0-3.052,0.321-4.984,1.296l-0.804-1.462
	l20.259-9.415H443.576z M486.337,838.38c3.854,2.925,6.591,5.526,8.036,8.119c1.606,2.436,2.254,5.36,2.254,8.452
	c0,4.542-1.613,8.274-4.984,11.52c-3.38,3.09-7.882,4.552-13.67,4.552c-5.46,0-9.642-1.296-12.538-4.065
	c-3.051-2.758-4.498-6.003-4.498-9.903c0-3.078,0.804-5.683,2.571-7.953c1.767-2.271,4.502-4.22,8.518-6.17
	c-4.336-3.245-7.073-6.003-8.357-8.118c-1.284-2.271-1.928-4.708-1.928-7.466c0-3.733,1.607-6.99,4.824-9.914
	c3.052-2.758,7.395-4.22,12.861-4.22c5.139,0,9.321,1.306,12.057,3.732c2.891,2.603,4.336,5.526,4.336,9.094
	c0,2.604-0.804,4.875-2.41,6.99C491.963,834.979,489.55,836.763,486.337,838.38L486.337,838.38z M483.119,836.275
	c1.125-1.296,1.773-2.759,2.415-4.554c0.482-1.616,0.643-3.565,0.643-5.516c0-3.567-0.804-6.336-2.254-8.285
	c-1.126-1.452-2.73-2.104-4.658-2.104c-1.933,0-3.378,0.652-4.664,1.949c-1.284,1.296-1.926,3.079-1.926,5.028
	c0,1.949,0.642,4.067,2.087,6.17C476.206,831.08,478.943,833.517,483.119,836.275L483.119,836.275z M475.082,844.882
	c-0.802,0.809-1.445,1.462-1.767,2.105c-0.481,0.975-0.968,2.437-1.451,4.221c-0.482,1.795-0.643,3.744-0.643,5.848
	c0,2.604,0.322,4.709,0.97,6.503c0.643,1.783,1.606,2.913,2.73,3.732c1.285,0.809,2.41,1.131,3.7,1.131
	c2.088,0,3.695-0.644,4.979-2.105c1.45-1.628,2.093-3.577,2.093-6.17C485.694,854.785,482.156,849.756,475.082,844.882
	L475.082,844.882z M514.307,871.023l15.113-46.111h-11.414c-4.502,0-7.875,0.642-10.131,1.781c-1.605,0.81-2.891,2.272-3.855,4.542
	h-1.609l4.02-17.202h32.799l-18.486,56.99H514.307z M553.533,841.957v-1.462c3.053-0.975,5.146-1.783,6.432-2.602
	c1.123-0.644,2.248-1.94,3.057-3.567c0.963-1.462,1.285-3.246,1.285-4.875c0-2.27-0.803-4.221-2.416-5.836
	c-1.605-1.63-3.693-2.438-6.107-2.438c-3.856,0-7.072,2.104-9.803,6.17l-1.445-0.655c1.928-4.539,4.496-7.952,7.553-10.224
	c3.053-2.437,6.432-3.577,10.125-3.577c3.859,0,6.916,1.297,9.488,3.577c2.408,2.427,3.699,5.196,3.699,8.274
	c0,2.117-0.643,4.066-1.771,6.004c-1.127,1.795-2.893,3.579-5.301,5.041c3.051,1.462,5.459,3.411,7.232,5.682
	c1.608,2.271,2.408,5.195,2.408,8.606c0,5.85-2.086,10.879-6.268,14.933c-4.184,4.064-9.648,6.014-16.721,6.014
	c-4.664,0-8.037-0.809-10.125-2.271c-1.611-1.141-2.254-2.603-2.254-4.22c0-1.307,0.322-2.438,1.285-3.258
	c0.809-0.807,1.932-1.294,3.057-1.294c0.965,0,1.768,0.165,2.57,0.487c0.32,0.319,1.934,1.462,4.662,3.576
	c2.576,2.272,4.984,3.246,7.395,3.246c1.934,0,3.701-0.653,5.146-2.281c1.445-1.617,2.094-3.734,2.094-6.171
	c0-3.732-1.293-7.144-3.861-10.39C562.379,845.368,558.519,843.098,553.533,841.957L553.533,841.957z"/>
</svg>
