<?xml version="1.0" encoding="iso-8859-1"?>
<!-- Generator: Adobe Illustrator 29.7.1, SVG Export Plug-In . SVG Version: 9.03 Build 0)  -->
<svg version="1.1" id="katman_1" xmlns="http://www.w3.org/2000/svg" xmlns:xlink="http://www.w3.org/1999/xlink" x="0px" y="0px"
	 viewBox="0 0 305 202.9" style="enable-background:new 0 0 305 202.9;" xml:space="preserve">
<path id="header_logo" d="M118.5,124.8l-0.2,1.9c-0.4-0.1-0.7-0.3-1.1-0.4c-0.2,0-0.3-0.1-0.5-0.1s-0.3,0-0.5,0
	c-0.4,0-0.8,0.1-1.2,0.2c-0.3,0.1-0.4,0.4-0.4,0.6s0.1,0.4,0.2,0.5c0.2,0.2,0.4,0.3,0.6,0.4l0.4,0.1c0.7,0.2,1.4,0.5,2.1,0.9
	c0.3,0.2,0.5,0.5,0.7,0.9s0.2,0.7,0.2,1.1c0.1,0.9-0.3,1.7-1,2.3c-0.9,0.6-1.9,0.9-2.9,0.8c-0.5,0-0.9,0-1.4-0.1s-0.9-0.2-1.4-0.3
	l0.2-2c0.4,0.2,0.8,0.3,1.3,0.4c0.2,0,0.4,0.1,0.6,0.1s0.4,0,0.6,0c0.4,0,0.8-0.1,1.1-0.3c0.3-0.2,0.4-0.4,0.4-0.7
	c0-0.4-0.4-0.7-1.3-1l-0.5-0.2c-0.7-0.2-1.3-0.6-1.9-1.1c-0.4-0.4-0.6-1-0.6-1.6c0-0.8,0.3-1.6,1-2.1c0.8-0.6,1.8-0.8,2.8-0.8
	c0.4,0,0.9,0,1.3,0.1c0.2,0,0.4,0.1,0.6,0.1S118.3,124.8,118.5,124.8 M124.7,126.6h2.3v7.3h2.4v-7.3h2.3v-1.8h-7V126.6z
	 M142.4,130.2h-2.3l1.2-3.4L142.4,130.2z M136.4,133.9h2.4l0.7-1.9h3.5l0.7,1.9h2.6l-3.5-9.2h-2.9L136.4,133.9z M151.9,133.9h2.2
	v-4.8c0-0.2,0-0.4,0-0.6s0-0.4,0-0.6c0-0.3-0.1-0.6-0.1-0.8s-0.1-0.4-0.1-0.7c0.1,0.4,0.2,0.7,0.3,1s0.2,0.6,0.4,0.9l2.8,5.7h3v-9.2
	h-2.2v5.2c0,0.3,0,0.6,0.1,1s0.1,0.8,0.2,1.3c-0.1-0.2-0.1-0.4-0.2-0.7c-0.1-0.3-0.2-0.5-0.2-0.5c-0.1-0.3-0.2-0.5-0.3-0.8l-2.7-5.5
	h-3L151.9,133.9z M170.7,130.1c0.4,0,0.7,0.1,1.1,0.3c0.2,0.2,0.4,0.5,0.4,0.8s-0.1,0.6-0.4,0.8c-0.3,0.2-0.7,0.3-1.1,0.3h-1v-2.2
	L170.7,130.1L170.7,130.1z M170.5,126.4c0.4,0,0.7,0.1,1.1,0.2c0.2,0.2,0.4,0.4,0.4,0.7c0,0.3-0.1,0.6-0.4,0.8
	c-0.4,0.2-0.8,0.3-1.2,0.3h-0.7v-2L170.5,126.4z M167.2,133.9h3.6c1,0.1,2-0.1,2.8-0.6c0.6-0.4,1-1.2,0.9-1.9c0-0.5-0.2-1-0.5-1.4
	c-0.4-0.4-0.9-0.7-1.4-0.7c0.5-0.1,0.9-0.4,1.3-0.8c0.3-0.4,0.5-0.8,0.4-1.3c0-0.7-0.3-1.4-0.8-1.8c-0.8-0.4-1.6-0.7-2.5-0.6h-3.8
	V133.9z M181.1,130.1c-0.1,1.1,0.3,2.2,1,3c0.8,0.7,1.8,1.1,2.9,1c1.1,0.1,2.1-0.3,2.9-1c0.7-0.8,1.1-1.9,1-3v-5.3h-2.3v5.3
	c0,0.6-0.1,1.2-0.4,1.7c-0.3,0.4-0.7,0.6-1.2,0.6c-0.4,0-0.9-0.2-1.1-0.5c-0.3-0.5-0.4-1.1-0.3-1.7v-5.3h-2.5L181.1,130.1
	L181.1,130.1z M195.8,133.9h6.1v-1.8h-3.7v-7.4h-2.4L195.8,133.9L195.8,133.9z M103.1,123.9h2.4v-1.2h-2.4V123.9z M103.1,133.9h2.4
	v-9.2h-2.4V133.9z M91.4,150.2c0.6,0.7,0.9,1.5,0.9,2.4c0.1,1.3-0.5,2.5-1.5,3.2c-1.5,0.8-3.1,1.2-4.8,1h-6v-15.3h6.3
	c1.5-0.1,2.9,0.2,4.2,1c0.9,0.7,1.5,1.8,1.4,3c0,0.8-0.2,1.6-0.7,2.2c-0.6,0.6-1.3,1.1-2.1,1.3C89.9,149.1,90.8,149.6,91.4,150.2
	 M84,147.7h1.2c0.7,0,1.3-0.1,1.9-0.4c0.4-0.3,0.7-0.8,0.6-1.3c0-0.5-0.2-1-0.6-1.2c-0.5-0.3-1.2-0.5-1.8-0.4H84V147.7z M88.1,152.2
	c0-0.5-0.2-1-0.6-1.3c-0.5-0.3-1.1-0.5-1.8-0.4H84v3.6h1.6c0.7,0,1.3-0.1,1.9-0.5C87.9,153.3,88.2,152.8,88.1,152.2 M117.5,148
	l-3.1-6.5h-4.6l5.5,9.6v5.7h4.1v-5.7l5.6-9.6h-4.4L117.5,148z M135.8,150.5c0.1,1-0.2,1.9-0.7,2.8c-0.5,0.6-1.2,1-2,0.9
	c-0.7,0.1-1.4-0.3-1.9-0.9c-0.5-0.9-0.7-1.8-0.6-2.8v-8.9h-4.1v8.9c-0.1,1.8,0.5,3.7,1.7,5.1c1.3,1.2,3.1,1.8,4.9,1.7
	c1.8,0.1,3.6-0.5,4.9-1.7c1.2-1.4,1.8-3.2,1.6-5.1v-8.9h-3.9L135.8,150.5z M137.7,138.1h-3.9v2h3.9V138.1z M132.5,138.1h-3.9v2h3.9
	V138.1z M100.9,138.1H97v2h3.9V138.1z M104.3,150.5c0.1,1-0.2,1.9-0.7,2.8c-0.5,0.6-1.2,1-2,0.9c-0.7,0.1-1.4-0.3-1.9-0.9
	c-0.5-0.9-0.7-1.8-0.6-2.8v-8.9H95v8.9c-0.1,1.8,0.5,3.7,1.6,5.1c1.3,1.2,3.1,1.8,4.9,1.7c1.8,0.1,3.6-0.5,4.9-1.7
	c1.2-1.4,1.8-3.2,1.6-5.1v-8.9h-3.9L104.3,150.5z M106.2,138.1h-3.9v2h3.9V138.1z M156.9,141.6h-4.6l-4.7,6.6v-6.6h-4.1v15.3h4.1
	v-7.1l4.8,7.1h5.1l-6.2-8.3L156.9,141.6z M177.1,150.4h6.2v-2.9h-6.2v-3.1h6.6v-2.9h-10.6v15.3H184v-3h-6.8L177.1,150.4z
	 M196.3,147.4h-4.8v-5.9h-4.1v15.3h4.1v-6.4h4.8v6.4h4.1v-15.3h-4.1V147.4z M204.2,140.2h4.1v-2h-4.1V140.2z M204.2,156.9h4.1v-15.3
	h-4.1V156.9z M225,156.9h-4.3l-1.3-4.2c-0.1-0.5-0.4-1-0.9-1.4c-0.5-0.3-1.1-0.4-1.8-0.4h-0.6v6h-4v-15.3h6.1c1.6-0.1,3.1,0.2,4.5,1
	c1,0.7,1.5,1.8,1.5,3c0,0.9-0.2,1.7-0.8,2.4s-1.4,1.1-2.2,1.3c1,0.5,1.7,1.4,1.9,2.5L225,156.9z M220.2,146.3c0-0.6-0.2-1.2-0.7-1.5
	c-0.7-0.4-1.5-0.5-2.3-0.5h-1v3.9h1.4c0.7,0.1,1.4-0.1,2-0.5C220,147.4,220.3,146.8,220.2,146.3 M168.6,148.7
	c-1.1-0.7-2.3-1.2-3.5-1.5l-0.7-0.2c-0.4-0.1-0.8-0.3-1.1-0.6c-0.2-0.2-0.4-0.5-0.4-0.8c0-0.5,0.3-0.9,0.7-1.1
	c0.6-0.3,1.3-0.4,1.9-0.4c0.3,0,0.6,0,0.8,0.1c0.3,0,0.6,0.1,0.8,0.1c0.6,0.2,1.2,0.4,1.8,0.6l0.3-3.2c-0.3-0.1-0.7-0.2-1-0.2
	s-0.7-0.1-1-0.2c-0.7-0.1-1.5-0.1-2.2-0.1c-1.7-0.1-3.3,0.3-4.7,1.3c-1.1,0.8-1.7,2.2-1.7,3.5c0,1,0.3,1.9,0.9,2.7
	c0.9,0.8,2,1.5,3.1,1.8l0.8,0.3c1.5,0.5,2.2,1.1,2.2,1.7c0,0.5-0.3,1-0.7,1.2c-0.6,0.3-1.2,0.5-1.9,0.5c-0.3,0-0.6,0-0.9-0.1
	c-0.3,0-0.7-0.1-1-0.2c-0.7-0.2-1.4-0.4-2.1-0.7l-0.3,3.4c0.8,0.2,1.5,0.4,2.3,0.5c0.4,0.1,0.9,0.1,1.3,0.1l-0.2,1.7h3.9l0.2-2.1
	c0.7-0.2,1.4-0.5,2-1c1.1-1,1.8-2.4,1.7-3.9c0-0.7-0.1-1.3-0.4-1.9C169.5,149.6,169.1,149.1,168.6,148.7 M110,169.7
	c0.3,0.4,0.5,0.9,0.5,1.4c0.1,0.8-0.3,1.5-0.9,1.9c-0.9,0.5-1.9,0.7-2.8,0.6h-3.6v-9.2h3.8c0.9-0.1,1.7,0.2,2.5,0.6
	c0.6,0.4,0.9,1.1,0.8,1.8c0,0.5-0.1,1-0.4,1.3c-0.3,0.4-0.8,0.6-1.3,0.8C109.1,169.1,109.6,169.3,110,169.7 M105.5,168.2h0.7
	c0.4,0,0.8-0.1,1.2-0.3c0.3-0.2,0.4-0.5,0.4-0.8s-0.1-0.6-0.4-0.7c-0.3-0.2-0.7-0.3-1.1-0.2h-0.9L105.5,168.2z M108,170.9
	c0-0.3-0.1-0.6-0.4-0.8s-0.7-0.3-1.1-0.3h-1.1v2.2h1c0.4,0,0.8-0.1,1.1-0.3C107.9,171.6,108,171.3,108,170.9 M117.2,169.9h3.7v-1.7
	h-3.7v-1.9h3.9v-1.7h-6.4v9.2h6.5V172h-4.1L117.2,169.9z M128.5,164.5H126v9.2h6.1v-1.8h-3.7L128.5,164.5z M138.6,169.9h3.7v-1.7
	h-3.7v-1.9h3.9v-1.7h-6.4v9.2h6.5V172h-4.1L138.6,169.9z M155.3,166.8c0.4,0.7,0.5,1.5,0.5,2.3s-0.2,1.7-0.5,2.4
	c-0.4,0.7-0.9,1.3-1.6,1.6c-0.4,0.2-0.9,0.4-1.4,0.5c-0.3,0-0.6,0.1-1,0.1s-0.8,0-1.3,0h-2.9v-9.2h3.2c0.7,0,1.4,0,2.1,0.2
	c0.5,0.1,1,0.2,1.4,0.5C154.5,165.6,155,166.2,155.3,166.8 M153.3,169.1c0-0.8-0.2-1.5-0.7-2c-0.6-0.5-1.3-0.8-2.1-0.7h-0.9v5.6h1.1
	c0.7,0,1.5-0.2,2-0.7C153.1,170.6,153.4,169.8,153.3,169.1 M169.8,168.4l-1.8-3.9h-2.8l3.3,5.8v3.4h2.4v-3.4l3.3-5.7h-2.6
	L169.8,168.4z M180.1,169.9h3.7v-1.7h-3.7v-1.9h3.9v-1.7h-6.4v9.2h6.5V172H180v-2.1H180.1z M194.2,168.8c-0.6-0.4-1.4-0.7-2.1-0.9
	l-0.4-0.1c-0.2-0.1-0.5-0.2-0.6-0.4c-0.1-0.1-0.2-0.3-0.2-0.5c0-0.3,0.2-0.5,0.4-0.6c0.4-0.2,0.8-0.3,1.2-0.2c0.2,0,0.3,0,0.5,0
	s0.3,0.1,0.5,0.1c0.4,0.1,0.7,0.2,1.1,0.4l0.2-1.9c-0.2-0.1-0.4-0.1-0.6-0.1s-0.4-0.1-0.6-0.1c-0.4-0.1-0.9-0.1-1.3-0.1
	c-1-0.1-2,0.2-2.8,0.8c-0.7,0.5-1,1.3-1,2.1c0,0.6,0.2,1.2,0.6,1.6c0.5,0.5,1.2,0.9,1.9,1.1l0.5,0.2c0.9,0.3,1.3,0.7,1.3,1
	s-0.2,0.6-0.4,0.7c-0.3,0.2-0.7,0.3-1.1,0.3c-0.2,0-0.4,0-0.6,0c-0.2,0-0.4-0.1-0.6-0.1c-0.4-0.1-0.8-0.3-1.3-0.4l-0.2,2
	c0.5,0.1,0.9,0.2,1.4,0.3s0.9,0.1,1.4,0.1c1,0.1,2.1-0.2,2.9-0.8c0.7-0.6,1.1-1.4,1-2.3c0-0.4-0.1-0.8-0.2-1.1
	C194.8,169.4,194.5,169.1,194.2,168.8 M159.7,173.7h2.4v-9.2h-2.4V173.7z M159.7,163.7h2.4v-1.2h-2.4V163.7z M199.4,163.7h2.4v-1.2
	h-2.4V163.7z M199.4,173.7h2.4v-9.2h-2.4V173.7z M136.2,85.2v-2.4h-2.4v2.4h-2.3v-2.4h-2.3v2.4h-2.4v-2.4h-2.4v2.4
	c0,15,11.8,27.3,26.8,28v-11.8C142.7,100.8,136.2,93.7,136.2,85.2 M178.2,82.8h2.4v2.4c0,15-11.8,27.3-26.8,28v-11.8
	c8.5-0.7,15-7.8,15-16.3v-2.4h2.3v2.4h2.3v-2.4h2.4v2.4h2.3L178.2,82.8z M138.8,72.1h-14.3c0.8-3.3,3.8-5.6,7.1-5.6
	C135,66.5,138,68.8,138.8,72.1 M166.2,72.1c0.8-3.3,3.8-5.6,7.2-5.6s6.3,2.3,7.1,5.6H166.2z M138.8,80.9h-17c1-3.9,4.5-6.7,8.5-6.7
	C134.3,74.3,137.8,77,138.8,80.9 M174.7,74.3c4,0,7.5,2.7,8.5,6.7h-17C167.2,77,170.7,74.3,174.7,74.3 M166.2,85.4L166.2,85.4V64.3
	l2-1.9v-2h-2v-7.9l-2-11.7l-2,11.7v7.9h-3.9v-7.9l2-1.9v-2h-2v-7.9l-2-11.7l-2,11.7v7.9h-3.9v-7.9l-2-11.7l-2,11.7v7.9h-2v2l2,1.9
	v7.9h-3.9v-7.9l-2-11.7l-2,11.7v7.9h-2v2l2,1.9v20.9c0,7.6,6.1,13.7,13.7,13.7l0,0C160,98.9,166.1,92.9,166.2,85.4 M163.6,87.3h-7.4
	l3.7-6.4L163.6,87.3z M158.4,64.3l2-1.9l2,1.9v11.3c-1.1-1.2-2.5-2.1-3.9-2.8L158.4,64.3z M156.2,74.5l3.7,6.4h-7.4L156.2,74.5z
	 M150.5,52.5l2-1.9l2,1.9v7.9h-3.9L150.5,52.5z M150.5,64.3l2-1.9l2,1.9v7.3c-0.6-0.1-1.3-0.1-2-0.1s-1.3,0-2,0.1V64.3z M148.8,74.5
	l3.7,6.4h-7.4L148.8,74.5z M142.7,64.3l2-1.9l2,1.9v8.5c-1.5,0.7-2.8,1.6-3.9,2.8L142.7,64.3z M141.3,87.3l3.7-6.4l3.7,6.4H141.3z
	 M145.1,93.8l3.7-6.4l3.7,6.4H145.1z M148.8,87.3l3.7-6.4l3.7,6.4H148.8z M152.5,93.8l3.7-6.4l3.7,6.4H152.5z"/>
</svg>
