<?xml version="1.0" encoding="iso-8859-1"?>
<!-- Generator: Adobe Illustrator 29.7.1, SVG Export Plug-In . SVG Version: 9.03 Build 0)  -->
<svg version="1.1" id="Layer_1" xmlns="http://www.w3.org/2000/svg" xmlns:xlink="http://www.w3.org/1999/xlink" x="0px" y="0px"
	 viewBox="0 0 283.465 283.465" style="enable-background:new 0 0 283.465 283.465;" xml:space="preserve">
<g>
	<path style="fill-rule:evenodd;clip-rule:evenodd;" d="M27.821,226.335h8.096c3.115,0,3.773,0.879,3.773,3.883
		c0,3.371-1.5,3.59-4.652,3.59h-7.217V226.335L27.821,226.335z M36.687,238.313c5.789,0,8.28-1.575,8.28-7.655
		c0-3.481-0.733-6.009-4.58-6.449v-0.147c3.334-0.805,3.92-2.931,3.92-6.08c0-6.045-2.711-7.145-8.097-7.145H22.546v27.477H36.687
		L36.687,238.313z M27.821,215.344h7.437c2.601,0,3.774,0.22,3.774,3.149c0,2.931-0.66,3.849-3.628,3.849h-7.583V215.344
		L27.821,215.344z"/>
	<path style="fill-rule:evenodd;clip-rule:evenodd;" d="M66.246,210.836v19.529c0,2.965-1.331,3.662-6.229,3.662
		c-5.092,0-6.118-0.842-6.118-3.662v-19.529h-5.275v19.529c0,7.692,4.946,8.169,11.394,8.169c6.705,0,11.504-0.514,11.504-8.169
		v-19.529H66.246L66.246,210.836z M58.148,204.608v3.224h-3.627v-3.224H58.148L58.148,204.608z M65.654,204.608v3.224h-3.659v-3.224
		H65.654L65.654,204.608z"/>
	<polygon points="98.629,210.836 92.546,210.836 85.915,222.561 85.806,222.561 79.284,210.836 73.275,210.836 83.204,227.763 
		83.204,238.313 88.48,238.313 88.48,227.763 98.629,210.836 	"/>
	<path style="fill-rule:evenodd;clip-rule:evenodd;" d="M118.043,210.836v19.529c0,2.965-1.331,3.662-6.228,3.662
		c-5.093,0-6.12-0.842-6.12-3.662v-19.529h-5.275v19.529c0,7.692,4.945,8.169,11.395,8.169c6.704,0,11.503-0.514,11.503-8.169
		v-19.529H118.043L118.043,210.836z M109.946,204.608v3.224h-3.628v-3.224H109.946L109.946,204.608z M117.451,204.608v3.224h-3.659
		v-3.224H117.451L117.451,204.608z"/>
	<polygon points="133.17,210.836 127.893,210.836 127.893,238.313 133.17,238.313 133.17,226.555 135.624,226.555 145.735,238.313 
		152.404,238.313 140.131,224.246 151.269,210.836 144.783,210.836 135.624,222.047 133.17,222.047 133.17,210.836 	"/>
	<path style="fill-rule:evenodd;clip-rule:evenodd;" d="M152.69,229.559v1.282c0,7.876,5.422,7.693,11.504,7.693
		c7.07,0,10.734-0.659,10.734-8.39c0-6.998-2.308-7.436-10.772-7.95c-5.348-0.33-6.044-0.441-6.044-3.811
		c0-2.928,0.843-3.442,6.082-3.442c3.7,0,4.909,0.111,4.909,3.078v0.879h5.275v-0.879c0-7.219-4.579-7.401-10.185-7.401
		c-6.595,0-11.357,0.219-11.357,7.766c0,7.987,4.689,7.767,10.624,8.135c4.104,0.219,6.192-0.293,6.192,3.627
		c0,3.186-0.661,4.066-5.459,4.066c-4.873,0-6.229-0.219-6.229-3.37v-1.282H152.69L152.69,229.559z M165.073,238.754l-4.176,2.526
		l0.988,1.686l4.799-1.904L165.073,238.754L165.073,238.754z"/>
	<polygon points="183.274,215.344 196.831,215.344 196.831,210.836 177.999,210.836 177.999,238.313 196.94,238.313 196.94,233.808 
		183.274,233.808 183.274,226.518 196.135,226.518 196.135,222.194 183.274,222.194 183.274,215.344 	"/>
	<polygon points="224.191,210.836 218.916,210.836 218.916,222.086 206.129,222.086 206.129,210.836 200.852,210.836 
		200.852,238.313 206.129,238.313 206.129,226.591 218.916,226.591 218.916,238.313 224.191,238.313 224.191,210.836 	"/>
	<path style="fill-rule:evenodd;clip-rule:evenodd;" d="M234.108,210.836h-5.275v27.477h5.275V210.836L234.108,210.836z
		 M233.266,206.809h-3.627v3.224h3.627V206.809L233.266,206.809z"/>
	<path style="fill-rule:evenodd;clip-rule:evenodd;" d="M251.943,229.229c2.528,0.037,3.48,1.648,3.48,3.957v5.128h5.275v-5.128
		c0-3.883-0.916-5.898-4.653-6.228v-0.147c4.653-0.696,4.873-3.664,4.873-7.729c0-6.23-2.308-8.098-8.316-8.246h-14.031v27.477
		h5.275v-9.085H251.943L251.943,229.229z M243.847,224.721v-9.377h7.326c3.774,0,4.47,0.696,4.47,4.579
		c0,4.03-0.951,4.798-4.835,4.798H243.847L243.847,224.721z"/>
	<path style="fill-rule:evenodd;clip-rule:evenodd;" d="M36.382,262.34h9.03c3.625-0.066,4.11,1.553,4.11,4.757
		c0,3.723-1.457,4.079-4.435,4.079h-8.706V262.34L36.382,262.34z M46.544,273.602c4.112,0,5.729-2.394,5.729-6.764
		c0-3.009-0.518-5.339-3.755-5.922v-0.065c2.524-0.842,3.042-2.557,3.042-5.115c0-4.239-1.068-6.407-5.632-6.407H33.632v24.272
		H46.544L46.544,273.602z M36.382,251.758h8.285c2.881,0,4.143,0.354,4.143,3.624c0,3.787-1.133,4.53-4.433,4.53h-7.995V251.758
		L36.382,251.758z"/>
	<polygon points="63.25,251.758 76.098,251.758 76.098,249.329 60.498,249.329 60.498,273.602 76.098,273.602 76.098,271.176 
		63.25,271.176 63.25,262.273 75.548,262.273 75.548,260.01 63.25,260.01 63.25,251.758 	"/>
	<polygon points="87.523,249.329 84.772,249.329 84.772,273.602 99.888,273.602 99.888,271.176 87.523,271.176 87.523,249.329 	"/>
	<polygon points="109.533,251.758 122.382,251.758 122.382,249.329 106.782,249.329 106.782,273.602 122.382,273.602 
		122.382,271.176 109.533,271.176 109.533,262.273 121.831,262.273 121.831,260.01 109.533,260.01 109.533,251.758 	"/>
	<path style="fill-rule:evenodd;clip-rule:evenodd;" d="M130.699,273.602h12.462c7.281,0,7.671-6.729,7.671-9.126v-5.792
		c0-8.966-5.373-9.354-8.318-9.354h-11.814V273.602L130.699,273.602z M133.452,271.176v-19.418h9.515
		c4.628,0,5.114,4.497,5.114,5.855v6.378c-0.064,4.335-0.712,7.185-5.566,7.185H133.452L133.452,271.176z"/>
	<path style="fill-rule:evenodd;clip-rule:evenodd;" d="M162.52,249.329h-2.751v24.272h2.751V249.329L162.52,249.329z
		 M162.586,246.352h-2.85v2.395h2.85V246.352L162.586,246.352z"/>
	<polygon points="190.514,249.329 187.245,249.329 180.061,260.689 172.874,249.329 169.671,249.329 178.571,263.472 
		178.571,273.602 181.322,273.602 181.322,263.472 190.514,249.329 	"/>
	<polygon points="199.45,251.758 212.299,251.758 212.299,249.329 196.699,249.329 196.699,273.602 212.299,273.602 
		212.299,271.176 199.45,271.176 199.45,262.273 211.749,262.273 211.749,260.01 199.45,260.01 199.45,251.758 	"/>
	<path d="M228.611,262.404c4.434,0.357,6.506-0.421,6.506,4.207c0,4.759-1.425,4.759-6.604,4.759c-5.146,0-6.182,0-6.116-5.342
		h-2.751c-0.518,7.025,2.686,7.768,8.867,7.768c6.117,0,9.354-0.227,9.354-7.087c0-6.572-2.914-6.409-8.675-6.731
		c-4.531-0.131-6.73,0.258-6.73-4.37c0-3.366,0.742-4.045,6.116-4.045c5.145,0,5.954,0.159,6.084,4.401h2.751
		c0.291-6.603-3.494-6.83-8.739-6.83c-5.986,0-8.965,0.583-8.965,7.057C219.71,262.599,223.82,262.016,228.611,262.404
		L228.611,262.404z"/>
	<path style="fill-rule:evenodd;clip-rule:evenodd;" d="M249.04,249.329h-2.751v24.272h2.751V249.329L249.04,249.329z
		 M249.105,246.352h-2.85v2.395h2.85V246.352L249.105,246.352z"/>
	<path style="fill-rule:evenodd;clip-rule:evenodd;" d="M89.289,175.543h-2.75v24.273h2.75V175.543L89.289,175.543z M89.354,172.566
		h-2.848v2.393h2.848V172.566L89.354,172.566z"/>
	<polygon points="116.086,175.543 97.929,175.543 97.929,177.971 112.72,177.971 97.476,197.422 97.476,199.816 116.41,199.816 
		116.41,197.39 100.81,197.39 116.086,178.1 116.086,175.543 	"/>
	<polygon points="148.457,177.614 148.523,177.614 148.523,199.816 151.273,199.816 151.273,175.543 146.516,175.543 
		137.906,196.322 129.33,175.543 124.573,175.543 124.573,199.816 127.324,199.816 127.324,177.614 127.388,177.614 
		136.579,199.816 139.298,199.816 148.457,177.614 	"/>
	<path style="fill-rule:evenodd;clip-rule:evenodd;" d="M163.676,175.543h-2.751v24.273h2.751V175.543L163.676,175.543z
		 M163.74,172.566h-2.848v2.393h2.848V172.566L163.74,172.566z"/>
	<path style="fill-rule:evenodd;clip-rule:evenodd;" d="M176.006,190.107h8.836c3.333,0,4.077,1.488,4.077,4.564v5.145h2.751v-6.439
		c0-2.623-1.197-4.176-3.916-4.37v-0.064c3.852-0.487,4.24-3.012,4.24-6.409c0-5.534-2.299-6.99-7.541-6.99h-11.199v24.273h2.752
		V190.107L176.006,190.107z M176.006,187.681v-9.71h8.479c4.337,0,4.759,1.164,4.759,4.271c0,4.014-0.52,5.308-4.759,5.438H176.006
		L176.006,187.681z"/>
	<path style="fill-rule:evenodd;clip-rule:evenodd;" d="M144.535,26.79c0.413,0,0.828,0,1.241,0c0,0.38,0,0.762,0,1.142
		c0.141,0.09,0.194,0.206,0.422,0.229c0.008-0.007,0.015-0.014,0.023-0.019c0.117-0.047,0.538-0.781,0.515-0.895
		c-0.055-0.12-0.108-0.241-0.164-0.36c0.133-0.211,0.266-0.42,0.398-0.629c0.015,0,0.031,0,0.047,0c0,0.698,0,1.395,0,2.093
		c0,0.242-0.052,0.604,0.047,0.78c0.26,0.071,0.643,0.218,0.516,0.553c-0.597,0.044-1.158,0.414-1.241,0.875
		c-0.023,0.128,0.063,0.289,0.069,0.475c-0.046,0-0.093,0-0.14,0c0,1.56,0,3.122,0,4.68c0.14,0,0.28,0,0.421,0
		c0,0.038,0,0.076,0,0.114c-0.038,0-0.078,0-0.117,0c-0.008,0.039-0.016,0.077-0.023,0.115c-0.047,0-0.094,0-0.141,0
		c0,0.038,0,0.076,0,0.114c-0.116,0.01-0.091-0.004-0.14,0.057c-0.067,0.156,0.191,0.886,0.14,1.085
		c-0.123,0.466-0.069,1.17-0.069,1.731c0,1.053,0,2.105,0,3.158c0.241,0,0.483,0,0.726,0c0.203,0.247,0.406,0.495,0.609,0.742
		c0.304,0,0.608,0,0.912,0c0.047,0.076,0.095,0.153,0.141,0.229c0.212,0,0.422,0,0.633,0c-0.047,0.221-0.094,0.443-0.141,0.666
		c0.016,0,0.032,0,0.047,0c0.078,0.012,0.156,0.024,0.233,0.038c-0.054,0.202-0.108,0.406-0.163,0.608c0.102,0,0.202,0,0.305,0
		c-0.039,0.229-0.079,0.458-0.118,0.685c0.431,0,0.86,0,1.289,0c-0.062-0.221-0.125-0.444-0.188-0.666c0.103,0,0.203,0,0.306,0
		c-0.039-0.215-0.079-0.432-0.117-0.647c0.094,0,0.188,0,0.28,0c-0.069-0.228-0.14-0.457-0.211-0.684c0.165,0,0.328,0,0.492,0
		c0,0.957,0,1.914,0,2.872c0.195,0.102,0.391,0.204,0.585,0.305c-0.007,0.077-0.015,0.153-0.022,0.228c-0.086,0-0.172,0-0.258,0
		c0,0.058,0,0.114,0,0.171c-0.418,0.08-1.294,0.58-1.031,1.085c0.079,0.133,0.279,0.188,0.423,0.266
		c-0.023,0.2-0.177,0.289-0.258,0.419c0,0.413,0,0.825,0,1.237c-0.078,0-0.156,0-0.234,0c0,0.113,0,0.228,0,0.342
		c0.078,0.006,0.156,0.012,0.234,0.02c0,3.341,0,6.684,0,10.025c-0.062,0-0.125,0-0.188,0c0,0.12,0,0.241,0,0.361
		c0.079,0,0.156,0,0.235,0c0,0.425,0,0.849,0,1.274c-0.047,0-0.095,0-0.142,0c0.079,0.165,0.156,0.33,0.235,0.495
		c0,0.513,0,1.027,0,1.54c-0.368,0.149-1.301,1.019-0.867,1.503c-0.078,0.088-0.155,0.177-0.234,0.266c-0.109,0-0.219,0-0.328,0
		c0.008,0.523-0.051,1.01-0.141,1.389c-0.038,0-0.077,0-0.116,0c0,6.353,0,12.709,0,19.063c0.116,0,0.233,0,0.352,0
		c0,1.198,0,2.396,0,3.595c-0.115,0.198-0.214,0.453-0.258,0.742c-0.019,0.125,0.09,0.145,0.069,0.229
		c-0.253,1.069-0.068,2.634-0.069,3.824c0.461,0,0.921,0,1.381,0c0,0.057,0,0.114,0,0.171c-0.047,0-0.094,0-0.14,0
		c0.008,0.784,0.214,2.936-0.188,3.367c-0.351,0-0.702,0-1.054,0c0,0.35,0,0.697,0,1.047c0.335-0.028,0.58-0.341,0.749-0.514
		c-0.008-0.012-0.015-0.026-0.023-0.038c-0.251,0.023-0.367,0.14-0.562,0.209c0.032-0.057,0.062-0.114,0.095-0.171
		c-0.039-0.045-0.079-0.088-0.118-0.133c0.356,0.026,0.346-0.082,0.235-0.267c0.124,0.083,0.25,0.165,0.374,0.247
		c-0.008-0.164,0.023-0.235,0.095-0.322c0.015-0.007,0.03-0.013,0.047-0.02c0.194-0.004,0.267,0.022,0.373,0.076
		c0.039,0.118,0.07,0.236-0.022,0.324c-0.105,0.167-0.48,0.263-0.656,0.38c-0.109,0.108-0.219,0.215-0.327,0.323
		c-0.086,0.006-0.172,0.012-0.258,0.018c0,4.845,0,9.691,0,14.534c0.102,0.045,0.202,0.09,0.305,0.134
		c-0.005,0.29-0.132,1.759,0.023,1.902c0.356,0.135,1.016-0.02,1.124-0.228c0-0.026,0-0.052,0-0.076
		c-0.055-0.203-0.229-0.204-0.398-0.305c0.331,0.024,0.446,0.162,0.702,0.247c0.282-0.072,0.411-0.252,0.329-0.551
		c-0.251-0.215-0.439-0.154-0.867-0.209c-0.081-0.138-0.056-0.211,0.046-0.323c0.189-0.052,0.504-0.058,0.727-0.134
		c-0.015,0-0.031,0-0.047,0c-0.085-0.07-0.148-0.093-0.211-0.189c0.045-0.188,0.548-0.383,0.75-0.342
		c0.209,0.031,0.399,0.117,0.539,0.21c0.038,0.114,0.039,0.175,0,0.285c0.268,0.035,0.424,0.146,0.585,0.266
		c-0.009,0.064-0.016,0.126-0.023,0.19c-0.77,0.202-0.584,0.9,0.023,0.684c-0.01,0.211,0.027,0.321,0.117,0.438
		c0.179,0.047,0.328,0.057,0.539,0.02c0.046-0.045,0.093-0.09,0.14-0.134c0.035-0.099,0.007-0.193-0.023-0.286
		c0.146,0.066,0.238,0.079,0.422,0.038c0.154-0.157,0.253-0.287,0.164-0.551c-0.134-0.079-0.428-0.182-0.539-0.285
		c0.136-0.229,0.391-0.21,0.609-0.362c-0.075-0.083-0.124-0.107-0.142-0.247c0.142-0.149,0.526-0.381,0.681-0.228
		c0.156,0.062,0.311,0.126,0.467,0.189c0,0.151-0.037,0.186-0.14,0.247c0.007,0.012,0.016,0.026,0.023,0.038
		c0.29,0.022,0.5,0.132,0.655,0.267c-0.008,0.069-0.015,0.139-0.023,0.209c-0.248-0.01-0.467,0.015-0.562,0.133
		c-0.101,0.095-0.178,0.319-0.046,0.438c0.078,0.138,0.258,0.196,0.515,0.189c-0.01,0.163,0.018,0.25,0.141,0.305
		c0.15,0.117,0.539,0.084,0.633-0.058c0.064-0.059,0.074-0.127,0.069-0.248c0.251,0.006,0.335-0.037,0.469-0.114
		c0.077-0.183,0.09-0.317,0.023-0.513c-0.104-0.059-0.415-0.144-0.492-0.229c0-0.019,0-0.038,0-0.057
		c0.085-0.241,0.359-0.189,0.562-0.324c-0.056-0.069-0.129-0.157-0.07-0.266c0.08-0.154,0.506-0.341,0.609-0.248
		c0.14,0.057,0.28,0.113,0.422,0.171c0.071,0.189-0.044,0.262-0.07,0.36c0.345-0.001,0.562,0.097,0.656,0.305
		c-0.127,0.145-0.412,0.13-0.539,0.267c-0.358,0.382,0.158,0.577,0.492,0.628c-0.005,0.155,0.028,0.233,0.092,0.323
		c0.169,0.037,0.349,0.036,0.516,0c0.142-0.082,0.156-0.13,0.142-0.305c0.204,0.049,0.388-0.026,0.516-0.095
		c0.067-0.167,0.107-0.405-0.048-0.533c-0.089-0.104-0.312-0.107-0.492-0.133c-0.015-0.064-0.031-0.127-0.046-0.19
		c0.206-0.225,0.505-0.153,0.772-0.324c-0.046-0.032-0.095-0.062-0.142-0.095c0.009-0.044,0.017-0.088,0.023-0.133
		c0.076-0.132,0.307-0.23,0.492-0.267c0,0.983,0,1.966,0,2.949c0.151,0.087,0.392,0.237,0.422,0.418
		c-0.117,0.028-0.097,0.036-0.093,0.153c-0.203,0.026-0.174,0.127-0.306,0.171c-0.257,0.006-0.516,0.012-0.773,0.02
		c-0.062,0.089-0.124,0.177-0.186,0.266c-0.05,0.174,0.072,0.261,0,0.4c-0.368,0.115-0.234,0.852-0.234,1.255
		c0,1.281,0,2.563,0,3.844c0.107,0.038,0.103,0.012,0.117,0.133c-0.092,0.112-0.072,0.715-0.117,0.933
		c-0.153,0.03-0.142,0.001-0.211,0.133c0.047,0.126,0.093,0.253,0.14,0.38c-0.047,0.02-0.093,0.038-0.14,0.058
		c0,2.182,0,4.363,0,6.544c0.047,0.038,0.093,0.076,0.14,0.114c-0.007,0.177-0.015,0.356-0.023,0.533
		c0.169,0.246,0.234,0.167,0.235,0.627c0.853-0.333,2.577-0.777,2.411-1.807c-0.127-0.01-0.16-0.022-0.21-0.095
		c0-0.057,0-0.114,0-0.171c0.07-0.097,0.163-0.071,0.21-0.191c-0.015,0-0.03,0-0.047,0c-0.233-0.062-0.469-0.126-0.702-0.19
		c-0.027-0.085-0.041-0.121-0.023-0.208c0.124-0.126,0.469-0.185,0.655-0.249c-0.001-0.387,0.126-0.313,0.211-0.513
		c0.173-0.399-0.439-1.085-0.351-1.389c0.203-0.317,0.406-0.634,0.608-0.951c0.017,0.006,0.031,0.012,0.047,0.019
		c0.164,0.317,0.327,0.635,0.492,0.952c-0.102,0.291-0.203,0.583-0.305,0.875c-0.065,0.361,0.162,0.597,0.163,1.007
		c0.227,0.061,0.505,0.16,0.681,0.267c-0.009,0.057-0.017,0.114-0.025,0.171c-0.135,0.197-0.614,0.114-0.727,0.304
		c0.105,0.021,0.14,0.028,0.188,0.096c0,0.07,0,0.139,0,0.209c-0.482,0.187,0.057,1.068,0.375,1.142
		c2.215,0.51,4.545,2.431,4.566,4.774c0.18,0,0.359,0,0.539,0c0.14-0.914,1.22-0.967,1.358,0.019c0.117,0,0.233,0,0.351,0
		c0,0.178,0,0.355,0,0.533c-0.461,0.039-0.551,0.508-0.304,0.78c0.127,0.032,0.212,0.058,0.399,0.058
		c0.397-0.171,0.284-0.579,0.538-0.857c0.016,0.006,0.031,0.012,0.048,0.019c0.062,0.083,0.124,0.165,0.187,0.247
		c0.052,0.173-0.066,0.317,0.047,0.476c0.203,0.056,0.414,0.09,0.656,0.038c0.291-0.318,0.07-0.628-0.258-0.78
		c0-0.153,0-0.304,0-0.456c0.102,0,0.203,0,0.305,0c0.015-0.374,0.229-0.701,0.655-0.742c0,0.919,0,1.839,0,2.758
		c0.007,0.012,0.016,0.026,0.023,0.038c0.18,0.026,0.318,0.1,0.375,0.227c0,0.083,0,0.166,0,0.249
		c-0.168,0.273-0.739,0.219-0.961,0.475c0.036,0.146,0.179,0.256,0.117,0.399c-0.016,0.019-0.03,0.038-0.047,0.057
		c-0.07,0-0.14,0-0.21,0c-0.009,0.038-0.017,0.076-0.023,0.115c-0.062,0-0.126,0-0.188,0c0,0.192,0.047,0.3,0.095,0.4
		c0,2.605,0,5.213,0,7.818c0,0.438,0,0.874,0,1.311c0.015,0.076,0.031,0.153,0.047,0.23c-0.109,0.113-0.219,0.229-0.328,0.342
		c-0.123,0.369,0.159,0.836-0.281,1.046c-0.086-0.018-0.172-0.037-0.258-0.057c0,0.015,0,0.026,0,0.039
		c-0.015,0.735-0.031,1.472-0.047,2.207c0,1.718,0,3.438,0,5.155c0.042,0.147,0.16,0.186,0.163,0.418
		c0.204-0.005,0.27,0.018,0.376,0.076c0,0.133,0,0.266,0,0.398c0.133,0.052,0.266,0.104,0.398,0.152c0,0.281,0,0.559,0,0.837
		c-0.062,0.084-0.126,0.165-0.188,0.249c-0.055,0.159,0.084,0.179,0.117,0.246c0,0.248,0,0.496,0,0.742
		c0.504-0.01,1.27-0.076,1.498,0.153c0,0.012,0,0.024,0,0.036c-0.023,0.008-0.047,0.013-0.069,0.021
		c-0.04,0.007-0.079,0.012-0.118,0.02c0,0.049,0,0.101,0,0.152c-0.354,0.073-1.22,0.48-0.96,0.97
		c0.107,0.201,0.218,0.248,0.094,0.59c-0.156,0.429-0.539,0.696-0.96,0.913c0.088,0.118,0.076,0.35,0.07,0.552
		c4.488,0,8.978,0,13.465,0c0,0.381,0,0.76,0,1.142c1.305,0,2.608,0,3.911,0c0,0.366,0,0.735,0,1.102c1.305,0,2.608,0,3.911,0
		c0,0.369,0,0.736,0,1.105c-35.319,0-70.649,0-105.969,0c0-0.369,0-0.736,0-1.105c1.304,0,2.607,0,3.911,0c0-0.366,0-0.735,0-1.102
		c1.303,0,2.607,0,3.911,0c0-0.382,0-0.761,0-1.142c4.488,0,8.977,0,13.465,0c0.002-0.197,0.049-0.534,0.024-0.591
		c-0.546-0.188-0.904-0.647-0.983-1.218c-0.026-0.185,0.115-0.153,0.164-0.246c0.26-0.49-0.605-0.896-0.959-0.97
		c0-0.052,0-0.103,0-0.152c-0.055-0.008-0.109-0.013-0.165-0.02c-0.007-0.025-0.015-0.052-0.023-0.077
		c0.318-0.174,0.951-0.138,1.5-0.133c0-0.246,0-0.494,0-0.742c0.032-0.067,0.171-0.087,0.117-0.246
		c-0.062-0.084-0.126-0.165-0.188-0.249c0-0.278,0-0.556,0-0.837c0.133-0.049,0.266-0.101,0.398-0.152
		c-0.01-0.206,0-0.364,0.093-0.475c0.094,0,0.188,0,0.282,0c0.003-0.231,0.12-0.273,0.164-0.418c0-0.717,0-1.433,0-2.151
		c0-0.917,0-1.838,0-2.758c0-0.473,0.05-1.056-0.047-1.464c0-0.342,0-0.686,0-1.028c-0.086,0.02-0.172,0.039-0.258,0.057
		c-0.435-0.212-0.165-0.675-0.281-1.046c-0.109-0.113-0.219-0.229-0.328-0.342c0.016-0.082,0.032-0.165,0.048-0.246
		c0-0.438,0-0.876,0-1.314c0-2.601,0-5.199,0-7.799c0.044-0.1,0.092-0.208,0.093-0.4c-0.071-0.006-0.141-0.013-0.211-0.019
		c0-0.032,0-0.064,0-0.096c-0.07-0.006-0.14-0.012-0.21-0.018c-0.024-0.013-0.047-0.025-0.07-0.038
		c0.018-0.174,0.155-0.268,0.117-0.399c-0.089-0.266-0.712-0.271-0.959-0.475c-0.016-0.346,0.133-0.406,0.42-0.496
		c0-0.925,0-1.852,0-2.777c0.428,0.041,0.639,0.367,0.656,0.742c0.102,0,0.203,0,0.305,0c0.006,0.167,0.017,0.385-0.047,0.495
		c-0.312,0.079-0.411,0.346-0.305,0.647c0.179,0.201,0.577,0.134,0.797,0.019c0.092-0.314-0.027-0.5,0.234-0.704
		c0.007,0,0.016,0,0.023,0c0.087,0.258,0.178,0.744,0.492,0.838c0.194,0.071,0.385-0.033,0.491-0.096
		c0.156-0.321,0.04-0.684-0.374-0.723c0-0.177,0-0.354,0-0.533c0.117,0,0.234,0,0.351,0c0.044-0.31,0.185-0.623,0.492-0.722
		c0.539-0.129,0.812,0.367,0.866,0.704c0.18,0,0.359,0,0.539,0c-0.036-1.793,1.478-3.308,2.763-4.053
		c0.406-0.197,0.812-0.392,1.218-0.589c0.714-0.279,1.165-0.315,1.171-1.218c-0.119-0.013-0.161-0.024-0.21-0.095
		c0-0.07,0-0.139,0-0.209c0.062-0.02,0.125-0.038,0.187-0.058c-0.007-0.024-0.016-0.05-0.023-0.075
		c-0.293-0.01-0.574-0.1-0.726-0.229c-0.003-0.165,0.038-0.182,0.117-0.266c0.187-0.058,0.374-0.114,0.562-0.172
		c-0.002-0.412,0.223-0.645,0.163-1.007c-0.101-0.286-0.203-0.571-0.304-0.856c0.171-0.33,0.344-0.659,0.515-0.989
		c0.016,0.006,0.032,0.012,0.046,0.019c0.196,0.312,0.392,0.623,0.586,0.933c0.087,0.303-0.523,0.989-0.351,1.389
		c0.07,0.057,0.14,0.115,0.211,0.171c0.065,0.117-0.048,0.262,0.046,0.342c0.164,0.137,0.497,0.083,0.609,0.267
		c0.035,0.096-0.015,0.156-0.07,0.228c-0.234,0.052-0.469,0.102-0.703,0.152c0,0.026,0,0.051,0,0.077
		c0.124,0.026,0.16,0.054,0.234,0.114c-0.007,0.07-0.015,0.139-0.023,0.209c-0.07,0.019-0.14,0.038-0.21,0.057
		c-0.147,1.051,1.543,1.457,2.413,1.807c-0.001-0.453,0.042-0.386,0.234-0.627c-0.007-0.177-0.016-0.356-0.023-0.533
		c0.047-0.038,0.093-0.076,0.14-0.114c0-1.483,0-2.967,0-4.451c-0.007-0.697-0.016-1.395-0.023-2.093
		c-0.067-0.077-0.097-0.041-0.117-0.171c0.137-0.097,0.129-0.256,0.093-0.399c-0.152,0.016-0.19,0.003-0.164-0.115
		c-0.216-0.285,0.069-0.547-0.023-0.742c-0.032-0.066-0.083-0.061-0.095-0.191c0.086-0.012,0.071-0.007,0.118-0.037
		c0-1.256,0-2.512,0-3.767c0-0.516,0.121-1.15-0.282-1.351c0.03-0.27,0.081-0.512-0.187-0.627c-0.242-0.007-0.483-0.013-0.726-0.02
		c-0.13-0.044-0.102-0.145-0.305-0.171c-0.009-0.151-0.05-0.122-0.094-0.229c0.142-0.121,0.282-0.24,0.422-0.36
		c0-0.977,0-1.954,0-2.931c0.216,0.042,0.384,0.153,0.515,0.267c0,0.15-0.027,0.175-0.14,0.228c0.007,0.012,0.015,0.026,0.024,0.038
		c0.341,0.017,0.636,0.094,0.749,0.305c-0.007,0.097-0.015,0.13-0.095,0.171c-0.123,0.04-0.305,0.031-0.397,0.095
		c-0.229,0.116-0.172,0.452-0.047,0.609c0.135,0.042,0.294,0.096,0.469,0.056c-0.012,0.184,0.012,0.193,0.117,0.305
		c0.222,0.037,0.414,0.044,0.586-0.038c0.015-0.088,0.03-0.178,0.046-0.267c0.49,0.007,0.811-0.385,0.491-0.704
		c-0.12-0.121-0.417-0.09-0.537-0.209c0.144-0.293,0.394-0.177,0.679-0.342c-0.119-0.044-0.143-0.086-0.142-0.229
		c0.124-0.187,0.384-0.189,0.539-0.342c0.191,0.095,0.41,0.194,0.562,0.324c0.001,0.143-0.032,0.186-0.094,0.266
		c0.219,0.145,0.417,0.13,0.586,0.324c-0.007,0.032-0.016,0.064-0.023,0.095c-0.223,0.047-0.404,0.072-0.492,0.229
		c-0.141,0.181-0.022,0.402,0.093,0.533c0.126,0.032,0.21,0.056,0.399,0.056c-0.01,0.163,0.017,0.25,0.14,0.305
		c0.155,0.121,0.543,0.084,0.632-0.058c0.065-0.059,0.075-0.127,0.07-0.248c0.299,0.007,0.481-0.079,0.562-0.247
		c0.062-0.173-0.037-0.291-0.094-0.419c-0.162-0.048-0.375-0.067-0.585-0.114c0.007-0.062,0.016-0.127,0.023-0.189
		c0.128-0.207,0.445-0.169,0.656-0.305c-0.14-0.078-0.171-0.182-0.07-0.304c0.189-0.042,0.386-0.116,0.492-0.229
		c0.311,0.149,0.757,0.234,0.444,0.571c0.221,0.148,0.477,0.134,0.609,0.362c-0.007,0.019-0.015,0.038-0.023,0.057
		c-0.495,0.017-0.815,0.599-0.304,0.78c0.139,0.069,0.262,0.015,0.374-0.038c-0.031,0.101-0.049,0.194-0.023,0.305
		c0.055,0.038,0.109,0.076,0.165,0.114c0.225,0.061,0.405,0.023,0.561-0.058c0.045-0.117,0.073-0.224,0.071-0.4
		c0.349,0.123,0.666-0.092,0.491-0.457c-0.086-0.18-0.345-0.13-0.468-0.266c-0.008-0.044-0.016-0.088-0.023-0.133
		c0.155-0.192,0.376-0.143,0.584-0.286c-0.007-0.013-0.015-0.026-0.023-0.038c-0.028-0.118-0.013-0.194,0.07-0.267
		c0.104-0.115,0.343-0.133,0.492-0.209c0.268,0.038,0.711,0.138,0.749,0.38c-0.082,0.081-0.123,0.129-0.257,0.171
		c0,0.007,0,0.014,0,0.02c0.386-0.008,0.611,0.064,0.819,0.191c0.007,0.117,0.005,0.13-0.023,0.228
		c-0.023,0.006-0.047,0.012-0.07,0.02c-0.364,0.1-0.675-0.074-0.819,0.247c-0.092,0.164,0.042,0.359,0.117,0.457
		c0.07,0.018,0.141,0.038,0.21,0.056c0.263-0.081,0.368-0.215,0.703-0.247c0,0.006,0,0.014,0,0.02c-0.015,0-0.031,0-0.047,0
		c-0.146,0.081-0.417,0.153-0.351,0.342c0.099,0.288,0.768,0.32,1.171,0.247c-0.009-0.64-0.016-1.281-0.025-1.922
		c0.102-0.038,0.203-0.076,0.305-0.114c0-3.424,0-6.849,0-10.272c0-1.42,0-2.841,0-4.262c-0.006-0.005-0.278-0.02-0.327-0.057
		c-0.086-0.095-0.172-0.19-0.258-0.285c-0.22-0.146-0.491-0.25-0.703-0.4c-0.021-0.148-0.006-0.238,0.07-0.342
		c0.092-0.023,0.219-0.059,0.329-0.018c0.139,0.053,0.152,0.149,0.14,0.322c0.124-0.082,0.249-0.165,0.374-0.247
		c-0.031,0.083-0.062,0.165-0.094,0.247c0.11,0.008,0.219,0.014,0.329,0.02c-0.039,0.044-0.079,0.088-0.117,0.133
		c0.031,0.057,0.062,0.114,0.093,0.171c-0.16-0.058-0.411-0.265-0.585-0.171c0.167,0.175,0.415,0.485,0.749,0.514
		c0-0.35,0-0.697,0-1.047c-0.519,0.01-0.967,0.019-1.241-0.152c0-1.072,0-2.143,0-3.215c-0.047,0-0.093,0-0.14,0
		c0-0.057,0-0.114,0-0.171c0.46,0,0.921,0,1.381,0c0.002-1.188,0.182-2.756-0.07-3.824c-0.02-0.084,0.088-0.104,0.07-0.229
		c-0.043-0.289-0.143-0.544-0.257-0.742c0-1.198,0-2.396,0-3.595c0.117,0,0.233,0,0.351,0c0-6.354,0-12.71,0-19.063
		c-0.039,0-0.078,0-0.117,0c-0.084-0.379-0.14-0.866-0.14-1.389c-0.126,0.007-0.268,0.011-0.328-0.038
		c-0.078-0.075-0.156-0.151-0.234-0.228c0.493-0.547-0.551-1.271-0.868-1.522c0-0.507,0-1.015,0-1.522
		c0.079-0.165,0.158-0.33,0.235-0.495c-0.047,0-0.094,0-0.141,0c0-0.425,0-0.85,0-1.274c0.078,0,0.155,0,0.234,0
		c0-0.121,0-0.241,0-0.361c-0.062,0-0.125,0-0.187,0c0.007-3.349,0.016-6.698,0.023-10.045c0.07,0,0.14,0,0.21,0
		c0-0.114,0-0.229,0-0.342c-0.078,0-0.156,0-0.234,0c0-0.412,0-0.824,0-1.237c-0.044-0.07-0.231-0.223-0.258-0.305
		c-0.035-0.108,0.054-0.139,0.095-0.189c0.18-0.037,0.246-0.099,0.351-0.191c0.016-0.625-0.452-0.964-1.054-1.085
		c0-0.057,0-0.113,0-0.171c-0.094-0.006-0.187-0.013-0.281-0.019c0-0.076,0-0.153,0-0.229c0.195-0.101,0.39-0.203,0.586-0.304
		c0-0.951,0-1.902,0-2.853c0.164,0,0.327,0,0.492,0c-0.072,0.228-0.142,0.457-0.212,0.684c0.094,0,0.188,0,0.282,0
		c-0.039,0.215-0.079,0.432-0.117,0.647c0.101,0,0.202,0,0.304,0c-0.062,0.222-0.125,0.444-0.187,0.666c0.43,0,0.859,0,1.288,0
		c-0.039-0.228-0.079-0.456-0.117-0.685c0.101,0,0.203,0,0.304,0c-0.054-0.202-0.109-0.406-0.164-0.608
		c0.007-0.007,0.015-0.014,0.024-0.02c0.086-0.006,0.171-0.012,0.257-0.019c-0.046-0.223-0.093-0.444-0.14-0.666
		c0.21,0,0.422,0,0.632,0c0.047-0.076,0.094-0.153,0.141-0.229c0.292,0.005,0.75,0.042,0.961-0.038
		c0.195-0.235,0.39-0.47,0.584-0.704c0.235,0,0.469,0,0.703,0c0-1.059,0-2.119,0-3.178c0-0.554,0.055-1.253-0.07-1.712
		c-0.051-0.19,0.181-0.929,0.142-1.123c-0.047-0.006-0.095-0.012-0.142-0.019c0-0.038,0-0.076,0-0.114
		c-0.054-0.006-0.108-0.013-0.164-0.019c0-0.032,0-0.064,0-0.096c-0.038,0-0.078,0-0.117,0c0-0.038,0-0.076,0-0.114
		c0.14,0,0.28,0,0.422,0c0-1.559,0-3.12,0-4.68c-0.047,0-0.095,0-0.142,0c0.021-0.96-0.169-1.097-1.193-1.369
		c-0.01-0.394,0.3-0.432,0.585-0.571c0.009-0.945,0.016-1.89,0.023-2.834c0.009,0.014,0.016,0.026,0.023,0.038
		c0.133,0.197,0.266,0.394,0.398,0.591c-0.054,0.119-0.109,0.241-0.164,0.36c-0.041,0.202,0.146,0.215,0.21,0.323
		c0.165,0.277-0.031,0.546,0.422,0.591c0.432-0.223,0.343-0.797,0.327-1.371c0.415,0,0.828,0,1.242,0
		c-0.039-2.031,1.088-3.433,2.506-4.3c0.961-0.587,2.319-0.616,2.366-1.959c-0.062-0.038-0.126-0.076-0.189-0.114
		c0.011-0.182,0.102-0.193,0.212-0.286c-0.016-0.05-0.032-0.102-0.047-0.152c-0.475-0.072-0.878-0.827-0.398-1.16
		c-0.083-0.073-0.124-0.072-0.14-0.209c0.218-0.05,0.437-0.102,0.656-0.152c0-0.05,0-0.101,0-0.151
		c-0.179-0.018-0.182-0.059-0.259-0.152c0.009-0.026,0.016-0.052,0.023-0.077c0.099-0.089,0.23-0.076,0.259-0.229
		c-0.767-0.962-0.061-0.688,0.07-1.503c-0.236-0.005-0.289-0.07-0.398-0.171c0.012-0.393,0.395-0.229,0.422-0.533
		c-0.007-0.014-0.016-0.026-0.023-0.038c-0.194-0.023-0.292-0.081-0.398-0.172c0.029-0.311,0.326-0.274,0.422-0.495
		c0-1.369,0-2.74,0-4.109c-0.554-0.081-1.002-0.822-0.445-1.16c-0.16,0.391,0.016,1.031,0.679,0.913
		c0.516-0.091,0.695-0.468,0.516-0.913c0.039,0.026,0.077,0.05,0.117,0.076c0.207,0.473,0.071,0.982-0.562,1.084
		c0,1.369,0,2.74,0,4.109c0.092,0.213,0.383,0.187,0.422,0.476c-0.095,0.131-0.236,0.154-0.422,0.21c0,0.057,0,0.114,0,0.171
		c0.172,0.02,0.263,0.07,0.375,0.133c0.028,0.074,0.07,0.163,0.023,0.249c-0.061,0.121-0.167,0.17-0.375,0.171
		c0.053,0.364,0.437,0.492,0.469,0.837c0.031,0.33-0.372,0.462-0.397,0.78c0.195,0.016,0.205,0.064,0.281,0.171
		c-0.016,0.038-0.032,0.077-0.047,0.115c-0.14,0.045-0.209,0.039-0.21,0.209c0.218,0.05,0.437,0.102,0.656,0.152
		c0,0.026,0,0.051,0,0.076c-0.076,0.101-0.151,0.086-0.071,0.171c0.218,0.541,0.075,0.961-0.491,1.142
		c-0.017,0.178,0.059,0.204,0.187,0.304c-0.023,0.21-0.15,0.156-0.187,0.342c0.118,0.331,0.157,0.667,0.374,0.914
		c0.192,0.218,0.668,0.262,0.961,0.399c0.421,0.229,0.843,0.457,1.265,0.685C143.595,23.495,144.526,24.873,144.535,26.79
		L144.535,26.79z"/>
	<path style="fill:#FFFFFF;" d="M121.521,132.469c0.374,0,0.749,0,1.123,0c-0.006-0.196-0.029-0.476,0.048-0.609
		c0.265-0.08,0.227-0.332,0.211-0.627c0.117,0,0.234,0,0.351,0c0.017-0.109,0.018-0.109,0.141-0.134c0-2.302-0.007-5.046,0-7.038
		c-0.008,0-0.016,0-0.023,0c-0.1,0.031-0.096,0.034-0.188,0c-0.016-0.101-0.042-0.11-0.094-0.171
		c-0.182,0.008-0.237,0.058-0.351,0.018c-0.031-0.261-0.05-0.48,0.023-0.723c-0.07-0.051-0.142-0.101-0.211-0.151
		c0.049-0.053,0.053-0.052,0.141-0.076c-0.048-0.139-0.095-0.279-0.141-0.419c0.208-0.058,0.347-0.194,0.445-0.343
		c0.382-0.576-0.369-0.811-0.656-1.084c0-0.019,0-0.038,0-0.057c0.636-0.359,0.877-1.102,0.093-1.503
		c-0.451,0.172-0.964,0.607-0.749,1.237c0.052,0.151,0.204,0.197,0.257,0.361c-0.375,0.198-0.791,0.695-0.397,1.16
		c0.133,0.082,0.266,0.165,0.397,0.248c-0.047,0.133-0.094,0.267-0.141,0.4c0.063,0.006,0.126,0.012,0.187,0.018
		c-0.141,0.186-0.202,0.625-0.117,0.895c-0.147-0.001-0.159,0.021-0.351,0.02c-0.028,0.16-0.122,0.507-0.188,0.627
		c0,1.522,0,3.044,0,4.566c0,0.671,0,1.344,0,2.016C121.503,131.475,121.521,131.96,121.521,132.469L121.521,132.469z"/>
	<path style="fill:#FFFFFF;" d="M124.939,131.271c0,0.17,0,0.342,0,0.513c0.086,0.038,0.171,0.076,0.257,0.114
		c0,0.189,0,0.38,0,0.571c0.243,0,0.485,0,0.726,0c0-0.191,0-0.381,0-0.571c0.086-0.052,0.172-0.102,0.258-0.152
		c0-0.171,0-0.342,0-0.513c0.117,0,0.234,0,0.351,0c0.022-0.109,0.037-0.113,0.165-0.134c0-2.309-0.002-5.059,0-7.058
		c-0.009,0-0.016,0-0.023,0c-0.056,0.02-0.109,0.038-0.165,0.058c-0.038-0.07-0.077-0.141-0.117-0.209
		c-0.187,0.01-0.286,0.068-0.351,0c-0.125-0.265-0.045-0.492,0-0.724c-0.09-0.036-0.15-0.071-0.188-0.152
		c0.047-0.03,0.033-0.025,0.118-0.039c-0.022-0.109-0.172-0.396-0.095-0.437c1.067-0.691,0.276-0.945-0.257-1.427
		c0-0.019,0-0.038,0-0.057c0.743-0.398,0.775-1.012,0.117-1.503c-0.476,0.085-1.075,0.737-0.749,1.313
		c0.053,0.093,0.17,0.155,0.233,0.266c-0.14,0.102-0.28,0.203-0.42,0.305c-0.291,0.382-0.069,1.005,0.397,1.084
		c-0.038,0.146-0.077,0.291-0.117,0.438c0.063,0,0.126,0,0.187,0c-0.17,0.267-0.138,0.533-0.14,0.913
		c-0.12-0.011-0.153,0.019-0.327,0.02c-0.32,1.209-0.188,3.058-0.188,4.565c0,0.903-0.109,1.992,0.07,2.796
		C124.767,131.257,124.854,131.264,124.939,131.271L124.939,131.271z"/>
	<path style="fill:#FFFFFF;" d="M151.566,131.233c0,0.177,0,0.354,0,0.531c0.086,0.045,0.172,0.09,0.257,0.134
		c0,0.189,0,0.38,0,0.571c0.242,0,0.484,0,0.727,0c-0.009-0.154-0.049-0.487,0.046-0.571c0.071-0.044,0.142-0.089,0.212-0.134
		c0-0.171,0-0.342,0-0.513c0.086,0,0.172,0,0.257,0c0.125-0.575,0.071-1.37,0.071-2.035c0-1.218,0-2.436,0-3.654
		c0-0.614,0.123-1.761-0.516-1.693c-0.001-0.385,0.004-0.635-0.14-0.913c0.061,0,0.124,0,0.187,0
		c-0.039-0.146-0.079-0.292-0.117-0.438c0.452-0.082,0.702-0.704,0.397-1.084c-0.14-0.108-0.28-0.215-0.42-0.324
		c0.527-0.775,0.229-1.096-0.446-1.56c-0.208,0.041-0.281,0.171-0.375,0.304c-0.447,0.642,0.037,0.835,0.422,1.218
		c-0.023,0.038-0.047,0.076-0.069,0.114c-0.684,0.18-0.977,1.125-0.141,1.351c-0.047,0.133-0.095,0.266-0.141,0.399
		c0.038,0.026,0.078,0.052,0.117,0.077c0,0.02,0,0.038,0,0.058c-0.062,0.045-0.126,0.088-0.188,0.133
		c0.076,0.182,0.113,0.508-0.023,0.742c-0.125-0.046-0.241-0.071-0.374-0.018c-0.02,0.076-0.039,0.124-0.095,0.171
		c-0.054-0.014-0.108-0.026-0.163-0.038c0.007,1.923-0.002,4.745,0,7.038c0.128,0.021,0.143,0.025,0.163,0.134
		C151.332,131.233,151.449,131.233,151.566,131.233L151.566,131.233z"/>
	<path style="fill:#FFFFFF;" d="M154.845,131.233c-0.009,0.146-0.044,0.453,0.047,0.531c0.07,0.038,0.14,0.077,0.21,0.115
		c0,0.19,0,0.381,0,0.571c0.375,0,0.751,0,1.125,0c-0.002-0.499,0.02-0.98,0.187-1.351c0-1.508,0-3.018,0-4.527
		c0-0.936,0.094-2.035-0.21-2.682c-0.178,0.001-0.183-0.018-0.327-0.02c0.041-0.341,0.046-0.675-0.142-0.913c0.07,0,0.142,0,0.211,0
		c0-0.006,0-0.013,0-0.02c-0.047-0.133-0.093-0.266-0.141-0.399c0.373-0.187,0.802-0.673,0.398-1.123
		c-0.133-0.095-0.266-0.189-0.398-0.285c0.05-0.139,0.18-0.17,0.234-0.285c0.294-0.622-0.284-1.116-0.726-1.294
		c-0.969,0.533-0.363,1.052,0.094,1.522c-0.165,0.363-1.012,0.439-0.68,1.065c0.1,0.187,0.236,0.325,0.468,0.4
		c-0.046,0.139-0.094,0.279-0.141,0.419c0.104,0.021,0.09,0.02,0.141,0.076c-0.069,0.057-0.141,0.114-0.211,0.171
		c0.089,0.206-0.034,0.49,0.047,0.647c-0.03,0.031-0.062,0.063-0.093,0.095c-0.145-0.053-0.225-0.065-0.351,0
		c-0.023,0.051-0.047,0.101-0.07,0.153c-0.056-0.014-0.109-0.026-0.165-0.038c0.005,1.992,0.001,4.736,0,7.038
		c0.134,0.026,0.119,0.041,0.165,0.134C154.626,131.233,154.735,131.233,154.845,131.233L154.845,131.233z"/>
	<path style="fill:#FFFFFF;" d="M109.483,151.093c-0.003,1.618-0.023,3.388-0.023,5.174c0,0.768,0,1.535,0,2.304
		c0.047,0.152,0.154,0.229,0.164,0.438c0.237-0.008,0.301,0.022,0.42,0.096c0,0.118,0,0.239,0,0.359c0.243,0,0.485,0,0.727,0
		c0-0.145,0-0.29,0-0.438c0.132,0,0.265,0,0.397,0c-0.01-0.559,0.381-0.566,0.703-0.837c0.293,0.064,0.529,0.283,0.749,0.418
		c0.025,0.17,0.005,0.291-0.046,0.419c0.133,0.007,0.266,0.015,0.398,0.02c0,0.147,0,0.293,0,0.438c0.733,0,1.468,0,2.201,0
		c-0.012-0.251,0.022-0.349,0.141-0.475c0.118,0,0.235,0,0.351,0c-0.098-0.182,0.047-0.212,0.14-0.361
		c-0.016-0.025-0.03-0.052-0.046-0.076c-0.007-0.652-0.016-1.307-0.023-1.959c-0.874-0.148-1.806-0.824-2.248-1.351
		c-0.001-0.121,0.02-0.146,0.07-0.209c0.203,0.012,0.406,0.024,0.609,0.036c0.164-0.02,0.328-0.036,0.491-0.057
		c0.148,0.032,0.297,0.064,0.445,0.094c0.192-0.034,0.408-0.12,0.679-0.15c0.003-1.239,0.144-2.837-0.094-3.653
		c-0.25,0.007-0.357-0.037-0.492-0.113c-0.059-0.364-0.164-0.721-0.211-0.933c0.084-0.079,0.116-0.068,0.117-0.229
		c-0.078-0.069-0.156-0.141-0.234-0.209c0-0.037,0-0.076,0-0.113c0.14,0,0.281,0,0.421,0c-0.117-0.217-0.234-0.434-0.351-0.648
		c0.07-0.305,0.14-0.61,0.21-0.913c0.117-0.56,0.025-1.267-0.117-1.732c-0.478-1.55-1.368-2.189-2.482-3.176
		c-1.421,0.684-3.712,2.563-2.927,4.643c0.166,0.44,0.451,0.741,0.749,1.064c-0.094,0.256-0.187,0.509-0.28,0.763
		c0.179-0.01,0.261-0.013,0.327,0.076c-0.016,0.017-0.031,0.037-0.047,0.057c-0.208,0.071-0.146,0.944-0.28,1.235
		C109.89,151.093,109.686,151.093,109.483,151.093L109.483,151.093z"/>
	<path style="fill:#FFFFFF;" d="M162.83,149.725c0,0.044,0,0.088,0,0.133c-0.148,0.083-0.24,0.145-0.233,0.361
		c0.085,0.019,0.068,0.015,0.116,0.057c-0.03,0.165-0.078,0.145-0.14,0.266c-0.023,0.222-0.047,0.445-0.07,0.667
		c-0.092,0.123-0.364,0.059-0.492,0.152c-0.114,0.183,0.017,0.659,0,0.817c-0.086,0.805-0.097,1.872-0.094,2.797
		c0.273,0.027,0.485,0.116,0.68,0.15c0.147-0.029,0.296-0.061,0.445-0.094c0.172-0.026,1.072,0.03,1.17,0.076
		c0,0.057,0,0.113,0,0.17c-0.219,0.192-0.436,0.382-0.655,0.571c-0.481,0.312-1.003,0.573-1.616,0.78
		c0.002,0.282,0.066,1.929-0.046,2.018c0.109,0.125,0.235,0.194,0.14,0.342c0,0.007,0,0.012,0,0.02
		c0.28-0.01,0.352,0.027,0.492,0.113c0,0.12,0,0.241,0,0.361c0.733,0,1.468,0,2.201,0c0.007-0.152,0.016-0.305,0.024-0.457
		c0.125,0,0.249,0,0.374,0c0-0.005,0-0.013,0-0.018c-0.116-0.187-0.057-0.361,0.071-0.494c0.175-0.069,0.485-0.364,0.655-0.286
		c0.373,0.126,0.694,0.343,0.68,0.798c0.133,0,0.266,0,0.396,0c0,0.147,0,0.293,0,0.438c0.243,0,0.485,0,0.728,0
		c-0.013-0.224,0.011-0.34,0.116-0.455c0.102,0,0.202,0,0.305,0c0.009-0.209,0.115-0.285,0.164-0.438c0-0.769,0-1.536,0-2.304
		c0-1.786-0.022-3.556-0.023-5.174c-0.173,0.007-0.518,0.034-0.609-0.037c-0.289-0.251,0.024-0.926-0.327-1.255
		c0.007-0.027,0.016-0.052,0.023-0.076c0.101,0,0.203,0,0.304,0c-0.094-0.261-0.188-0.521-0.28-0.78
		c0.296-0.185,0.455-0.478,0.608-0.78c0.783-1.553-0.376-3.216-1.357-4.016c-0.195-0.157-1.243-0.938-1.453-0.855
		c-0.325,0.13-0.621,0.442-0.842,0.666c-0.923,0.936-1.463,1.767-1.757,3.273c-0.086,0.436-0.004,0.97,0.094,1.331
		c0.047,0.173,0.093,0.343,0.14,0.515c-0.116,0.214-0.233,0.431-0.351,0.648C162.55,149.725,162.69,149.725,162.83,149.725
		L162.83,149.725z"/>
</g>
</svg>
