<?xml version="1.0" encoding="iso-8859-1"?>
<!-- Generator: Adobe Illustrator 29.7.1, SVG Export Plug-In . SVG Version: 9.03 Build 0)  -->
<svg version="1.1" id="Layer_1" xmlns="http://www.w3.org/2000/svg" xmlns:xlink="http://www.w3.org/1999/xlink" x="0px" y="0px"
	 viewBox="0 0 1920 1080" style="enable-background:new 0 0 1920 1080;" xml:space="preserve">
<g>
	<path style="fill:#FFFFFF;" d="M923.805,286.802c17.78-18.4,44.79-27.78,70.12-23.54c6.79,1.01,13.82,1.58,19.94,5
		c13.58,5.65,24.69,15.83,33.72,27.25c2.24,3.18,5.32,6.17,5.51,10.31c-6.64-3.99-12.79-8.77-19.66-12.38
		c-7.85-4.03-16.72-5.55-25.45-6.05c-9.27-0.09-18.4,2.51-26.86,6.15c-17.05,8.89-30.2,26-32.47,45.33
		c-2.13,15.06,2.74,30.71,12.27,42.44c16.24,21.36,47.44,28.89,71.97,18.52c1.98-0.89,4.05-1.67,6.27-1.61
		c-8.49,8.13-18.52,14.84-29.56,19c-16.63,5.35-34.73,4.91-51.48,0.33c-15.55-5.2-30.03-14.6-39.83-27.88
		c-13.93-17.3-19.45-40.91-15.1-62.66C905.765,311.913,913.175,297.793,923.805,286.802 M1079.455,320.322
		c0.43,0.07,1.29,0.22,1.72,0.29c2.7,5.64,5.85,11.05,8.52,16.72c1.35,2.93,3.11,5.65,5.09,8.19c9.11-0.99,18.11-2.82,27.23-3.8
		c-5.68,6.73-12.62,12.27-18.24,19.05c-1.31,1.55-0.7,3.76-0.1,5.49c2.63,6.61,8.1,11.74,10.05,18.68
		c-3.97-0.42-7.24-2.92-10.84-4.4c-3.96-1.7-7.7-3.89-11.71-5.45c-2.23-1.15-4.4,0.48-5.82,2.08c-4.21,4.63-7.98,9.65-12.19,14.28
		c-1.53,0.64-3.08,1.18-4.68,1.56c1.32-9.02,2.57-18.06,3.7-27.1c-2.5-1.97-5.24-3.63-8.16-4.88c-4.84-2.09-9.09-5.36-14.12-7
		c-0.1-0.35-0.3-1.05-0.4-1.4c8.61-1.46,17.29-2.48,25.9-3.94C1076.555,339.213,1077.975,329.762,1079.455,320.322 M715.405,386.663
		c17.2-3.56,35.72-0.95,51,7.83c18.95,10.09,32.87,28.41,39.21,48.75c11.45,33.8,1.65,74.34-25.53,97.89
		c-10.53,8.92-23.3,15.73-37.11,17.56c-16.47,2.75-34.04,0.18-48.6-8.19c-15.43-8.72-27.97-22.49-35.09-38.74
		c-10.24-22.13-11.36-48.36-2.92-71.26c4.36-12.96,12.14-24.67,21.85-34.24C688.645,396.702,701.505,389.583,715.405,386.663
		 M727.585,404.813c-3.99,1.38-8.15,3.04-10.88,6.42c1.96,2.11,3.03,4.83,4.48,7.29c1.92-1.79,3.64-3.76,5.38-5.71
		c4.38,0.96,6.48-4.16,10.49-4.62c2.39,0.52,3.77,2.82,5.91,3.82c3.08,1.22,6.63,1.01,9.54,2.69c1.89,1.92,3.59,4.04,5.8,5.62
		c-1.68,1.28-3.4,2.52-5.12,3.74c1.03,3.19,4.93,2.82,7.08,4.85c0.9,3.32-3.34,3.67-5.33,5.1c-2.51-3.93-6.36-6.55-10.95-7.4
		c-4.91,4.91-9.25,10.37-13.36,15.97c-2.48,2.91,0.04,6.77-0.29,10.11c-2.8,0.4-5.85-1.47-8.33,0.37c1.63,0.75,3.29,1.47,4.91,2.27
		c3.42,0.76,6.72-0.72,10.11-0.67c1.88-0.11,2.75,1.76,3.28,3.24c-2.94,1.24-5.96,2.58-9.23,2.29c-3.86-0.23-7.97,0.01-11.49-1.82
		c-1.06,2.25-1.72,4.94-4.51,5.58c0.22-2.7,0.25-5.43-0.77-7.98c-1.09,2.75-1.52,5.74-2.79,8.43c-0.18,1.17-1.18,1.55-2.22,1.36
		c1.79-4-3.29-6.13-6.33-4.81c-3.94,1.18-7.86-0.68-11.8-0.65c-0.44,0.97-0.75,2-1.09,3.01c2.55,0.73,6.87,0.24,7.25,3.74
		c-1.3,0.17-2.68,0.24-3.72,1.13c3.02,1.81,8.8,0.36,9.23,4.92c3.25-0.2,7.87-2.64,5.7-6.62c2.39,0.44,5.17,0.16,7.22,1.68
		c0.77,8.12-0.83,16.36-2.97,24.2c-1.67,0.5-3.35,0.99-5.01,1.5c0.83,2.13,1.61,4.29,2.05,6.55c0.26,0.28,0.78,0.85,1.04,1.13
		c1.48,0.27,2.95,0.56,4.43,0.87c-0.11,0.52-0.34,1.56-0.45,2.07c-3.48,0.05-6.97,0.03-10.45,0c-0.4-0.43-1.21-1.28-1.62-1.71
		c-0.62,1-1.24,2-1.84,3.02c0.42,0.44,1.24,1.32,1.65,1.76c1.25-0.45,2.49-0.91,3.74-1.37c3.99,1.16,7.35,3.65,10.75,5.94
		c-0.39,1.11-0.8,2.22-1.2,3.34c2.58,0.11,5.65-0.08,7.41,2.2c1.71,1.72,1.11,4.34,1.25,6.52c-3.8,2.08-8.02,3.21-12.32,2.17
		c-2.07,1.35-4.36,2.19-6.82,2.44c0.03,0.35,0.11,1.07,0.14,1.42c3.36,2.55,7.08,4.6,11.14,5.82c0.1,2.58,0.11,5.18,0.01,7.78
		c-2.03-1.76-3.58-3.94-4.73-6.35c-0.56,0.5-1.84,0.55-1.61,1.59c0.16,4.05,4,6.49,6.81,8.85c5.61,0.09,11.52-0.9,16.06-4.42
		c10.03-7,20.53-13.62,29.11-22.42c4.23-5.86,6.23-13.08,7.13-20.19c4.48-2.75,6.74-7.71,9.02-12.22c2.51-6.59,4.85-13.5,4.01-20.66
		c-1.52-10.49-0.18-21.13-0.91-31.66c-3.03-10.19-8-21.04-17.82-26.29c-3.31-2.01-7.44-1.94-10.65-4.17
		c-3.88-2.93-9.09-1.04-13.57-1.54c-0.28-0.4-0.84-1.19-1.12-1.59C734.665,402.443,731.105,403.743,727.585,404.813
		 M705.775,416.762c1.09-0.12,2.19-0.25,3.3-0.38c1.35-1.55,2.68-3.12,3.78-4.86c-0.11-0.56-0.32-1.69-0.42-2.25
		C710.045,411.613,707.685,414.003,705.775,416.762 M693.565,427.842c0.5-0.04,1.52-0.11,2.03-0.15c2.72-2.96,5.4-5.95,8-9.03
		c-0.05-1.19-0.1-2.37-0.15-3.55C697.175,415.703,693.505,421.993,693.565,427.842 M697.735,500.373c0.74,0.64,1.49,1.29,2.24,1.95
		c-0.34-0.54-1.01-1.63-1.35-2.18c1.15-2.07,2.65-3.93,3.78-6.02c1.22-2.17-0.48-4.33-1.19-6.33
		C697.635,490.952,697.575,495.973,697.735,500.373 M756.235,435.023c1.61,3.3,5.05,4.93,7.4,7.61c-0.52,0.3-1.57,0.89-2.09,1.19
		c0.78,1.33,1.47,2.7,2.1,4.11c0.72,1.02,1.34,2.08,1.73,3.29c-4.39-2.22-5.17-7.79-9.42-10.06
		C756.025,439.113,756.125,437.063,756.235,435.023 M774.805,449.213c0.73,0.59,1.46,1.17,2.2,1.76c0.23,2.68-0.27,5.46-2.3,7.38
		c-0.58-1.69-1.15-3.37-1.8-5.03C773.545,451.952,774.175,450.582,774.805,449.213 M726.985,468.572c1.69,0.12,3.66,0,4.79,1.55
		c0.21,1.45,0.36,2.93,0.44,4.41c2.97-0.01,5.94,0.02,8.91,0.04c-1.1,2.06-0.74,6.46-4.05,5.72c-2.4,4.67-4.56,9.52-4.86,14.85
		c-5.15-5.15-7.54-12.45-9.66-19.26C723.895,473.362,725.395,470.932,726.985,468.572 M759.615,469.423
		c2.01-0.23,3.71,0.71,4.97,2.24c-0.34,2.55-0.11,5.32-1.49,7.61C762.845,475.523,758.095,473.383,759.615,469.423 M731.015,505.663
		c2.09,1.74,1.75,4.55,1.96,6.98C732.095,510.392,731.035,508.133,731.015,505.663 M1366.645,570.372c3.24-0.11,6.5-0.17,9.76-0.18
		c1.7,6.13,0.97,14.76,7.71,17.94c0.14,0.94,0.3,1.89,0.48,2.85c3.76,1.36,7.93,2.64,10.43,6.02c2.9,3.74,6.65,6.89,8.57,11.32
		c-0.42,2.84-2.11,5.22-3.27,7.78c-0.36,2.5,0.01,5.75,2.47,7.11c2.1,0.81,4.38,1.07,6.58,1.6c1.12,1.55,1.46,3.39,1.52,5.28
		c-2.9,1.77-6.41,2.83-9.76,1.8c-3.64-0.95-6.09-4.06-8.2-6.95c-2.74-3.18-2.91-7.57-4.72-11.22c-1.77-3.74-2.62-8.14-5.63-11.12
		c-7.55-0.69-12.94,5.74-19.47,8.3c-4.9,1.29-10.15,2.78-13.64,6.69c-2.01,2.28-2.61,5.34-3.14,8.24c-1.94,0.02-3.87,0.04-5.79,0.05
		c-2.77-5.89-5.8-12.14-11.41-15.84c-0.29,4.97-4.31,9.3-9.28,9.92c2.72,0.18,5.44,0.29,8.16,0.57c0.59,1.14,1.16,2.31,1.7,3.5
		c-5.24,4.67-11.68,7.76-17.76,11.17c-2.87,1.81-6.51,1.1-8.97-1.07c-2.46-1.32-4.31-4.49-7.07-4.73
		c-3.08,5.24-5.64,11.21-10.72,14.87c-4.17,1.71-8.82,0.64-13.19,0.93c-4.07-0.17-8.62,1.51-10.52,5.33
		c-2.41,4.12-2.47,9.6-6.21,12.9c-3.9,1.9-8.33,0.28-12.4,1.24c-2.57,0.43-4.73,2.06-7.03,3.13c0.17-2.26-1.14-1.1-1.67,0.15
		c-3.73,1.52-8.17,4.3-11.92,1.27c0.97-1.38,1.96-2.73,2.84-4.16c-2.25-0.8-4.63-1.78-5.04-4.46c6.31-2.53,13.18-4.11,19.96-4.34
		c2.06-0.84,2.49,1.63,3.81,2.2c1.39-0.64,2.77-1.29,4.16-1.94c-6.08-0.59-11.81-3.08-17.95-3.15c-4.76-0.45-9.47,0.55-14.17,1.16
		c-0.8-4.08-1.27-8.36,1.06-12.08c8.03-0.17,16.3,6.31,24.05,1.49c-3.02-4.85-9.36-6.14-14.66-6.62l0.31-0.69
		c-1.4-0.48-2.78-0.98-4.17-1.43c-0.85-3.57-1.82-7.12-3.25-10.5c-1.02-2.77-2.68-5.71-1.72-8.73c1.32-4.53,3.43-8.77,5.1-13.17
		c-3.39-0.41-6.79-0.73-10.18-1.08c-1,2.25-0.74,4.67-0.42,7.06c0.58-0.51,1.17-1,1.8-1.45c-0.17,1.16-0.84,2.15-1.32,3.2
		c0.65,1.21,1.36,2.41,2.11,3.59c-0.07,0.35-0.2,1.03-0.26,1.38l0.95-0.1c0.22,4.84,1.88,9.74,0.62,14.56
		c-1.2,2.19-3.52,3.44-5.29,5.11c2.51,2.78,4.79,6.48,3.14,10.32c-5.29,4.53-12.51,3.36-18.92,3.46c-0.53,0.79-1.03,1.61-1.54,2.42
		c2.75,0.65,5.56,1.07,8.36,1.53c0.12,1.2,0.5,2.48-0.03,3.67c-7.82,4.48-17.24,3.84-25.7,1.83c-4.92-0.86-9.58-2.91-14.6-3.21
		c-0.26,1.68-0.5,3.38-0.72,5.08c-7.18,1.04-14.79,0.13-21.49,3.41c-2.8,1.68-4.99,4.81-8.53,4.79c-6.83,0.55-13.71,0.29-20.53,1.07
		l0.79,1.2c-1.17-0.08-2.33-0.15-3.49-0.21l0.71-1.16c-12.33,0.48-24.79,2.72-35.69,8.79c2.64,3.61,7.92,3.18,10.54,6.92
		c0.61,4.85-4.85,5.82-8.48,5.87c0.76,2.12,1.76,4.15,2.83,6.15c0.01,0.79,0.05,2.37,0.06,3.15c-4.1,0.71-8.31,1.59-12.4,0.38
		c-2.29-2.84-3.67-6.27-6-9.08c-7.47-0.29-15.23-1.07-22.44,1.34c1.62,3.5,4.29,6.35,6.53,9.46c-1.29,4.94-7.78,4.1-11.31,2.23
		c-3.13-4.03-3.19-10.12-7.84-12.97c-5.07,2-10.43,3.64-15.91,3.72c-2.04,0.11-3.54-1.44-5.1-2.47c-0.33-1.13-0.79-2.19-1.25-3.24
		c1.54-5.73,8.18-6.2,12.97-7.33c2.96-0.4,5.5-2.06,7.47-4.26c-1.65-0.46-3.29-0.97-4.92-1.44c-1.62,1.43-3.47,2.57-5.25,3.8
		c-4.96,0.95-10.47,4.41-15.22,1.05c-0.11-0.56-0.33-1.67-0.44-2.23c-3.49,0.62-7.54,0.55-10.4,2.88c-0.17,0.92-0.51,2.77-0.68,3.69
		c4.11-0.4,8.67-2.51,12.6-0.33c2.82,1.48,2.25,5.12,3.4,7.68c-2.14,1.94-3.44,5.34-0.4,7.14c-1.76,2.39-3.61,4.92-6.36,6.23
		c-2.03,0.75-4.25,0.39-6.36,0.32c-2.62-2.65-5.71-5.08-7.04-8.69c0.34-1.72,1.36-3.19,2.08-4.76c-4.6-2.67-10.09-3.51-15.26-2.28
		c-3.5,5.33-8.52,9.47-14.41,11.95c1.95,1.48,2.27,3.8,1.19,5.95c3.44,1.74,6.89,3.49,10.35,5.21c3.06,1.7,7.03,1.71,9.35,4.64
		c1.08,0.88,0.37,2.45,0.53,3.66c-3.03,1.49-6.46,1.3-9.72,1.7c-2.68,0.14-5.63,0.31-7.9-1.38c-2.02-1.19-3.99-2.52-5.54-4.3
		c-2.31,1.34-4.35,3.1-6.69,4.38c-6.52-1.76-13.08-4.26-19.97-3.63c-3.46,0.45-7.15-0.42-10.39,1.09
		c12.22,3.68,25.12,6.83,37.96,5.51c-0.09,1.54-0.19,3.1-0.27,4.66c3.3-2.04,6.98-0.92,10.26,0.47c2.4-0.67,5.02-1.26,6.95,0.79
		c-2.26-0.34-4.53-0.71-6.81-0.74c2.9,1.93,5.83,3.92,9.2,4.95l-0.62-1.42c4.66,1.2,8.93-2.68,13.62-1.08
		c6.14,2.3,12.68,3.13,19,4.78c7.99,1.73,16.87-1.6,24.29,2.79c2.09,1.19,5.4,3.06,4.12,5.95c-2.41,3.73-7.48,2.93-11.27,2.82
		c-11.68-1.36-23.34-2.9-34.96-4.68c-3.37-0.71-6.63,0.98-10,0.8c-3.67,0.27-6.85-1.89-9.74-3.85c0,0.95,0,2.85,0,3.8
		c-3.86,0.03-7.72,0.02-11.57,0.04c-2.45-2.42-4.51-5.23-5.77-8.45c-1.15,1.15-2.35,2.26-3.58,3.33c-2.76-1.09-5.6-2.25-7.68-4.43
		c-1.78-5.32-8.16-5.47-12.75-6.49c-1.83,3.22-3.58,6.49-5.29,9.78c-2.99,1.89-7.41,2.33-10.13-0.04c-0.76-3.8,2.99-6.83,3.1-10.62
		c-0.9-0.91-1.99-1.57-3.01-2.28c-2.98,2.25-7.54,0.74-8.93-2.63c1.87-2.12,4.17-3.78,6.67-5.09c-3.96-0.26-8.03-0.05-11.79-1.49
		c-1.82-3.09-2.59-7.23-6.1-8.93c-2.67-1.36-5.48-2.7-8.48-3.08c-3.31,0.46-6.18,2.38-8.75,4.4c1.34,1.72,2.84,3.32,4.37,4.89
		c1.33-0.93,2.81-1.57,4.32-2.15c6.26,1.76,11.35,6.06,15.93,10.5c2.82,2.87,5.88,5.71,7.71,9.36c0.08,2.94-1.99,5.22-3.97,7.13
		c-3.68,0.22-7.68,0.71-11.1-0.96c-4.39-1.67-6.28-6.41-9.58-9.44c-2.88-2.52-5.08-5.63-7.51-8.55c-1.6,1-3.24,2.85-5.35,2.14
		c-1.93-1.01-3.57-2.5-5.52-3.46c-2.14-1.18-3.48,2.03-5.59,1.51c-2.17-0.19-2.95-2.53-4.13-3.98c-4.09,1.12-6.97,4.53-10.89,6
		c-2.41,0.63-3.12-2.27-3.72-3.97c-1.27-3.19,0.69-6.29,2.78-8.55c-0.92-1.41-1.87-2.8-2.82-4.17c-2.75,1.91-5.81,3.32-8.65,5.09
		c0,0.48,0,1.44,0.01,1.93c0.36-0.47,1.1-1.39,1.47-1.85c3.15-0.27,5.41,1.92,6.52,4.66c-3.22,3.58-8.21,4.74-11.45,8.2
		c-5.79,1.88-11.36,4.33-16.99,6.63c-2.25,1.13-4.38-0.91-6.09-2.12c-0.39-0.03-1.16-0.11-1.55-0.14c-0.76,2.57-0.01,5.87,2.86,6.74
		c4.38,1.34,9.24,0.12,13.45,2.22c1.5,4.21-3.3,6.01-6.6,6.22c-5.18,0.96-9.91-1.81-14.93-2.43c-0.74,0.77-1.38,1.69-2.29,2.28
		c-3.37,1.22-6.37-1.57-9.7-1.49c-2.94,1.45-4.18,4.77-5.21,7.68c-4.29,1.12-7.32-3.28-7.65-7.02c0.85-5.57,7.63-9.11,12.67-6.45
		c2.43,0.26,4.84-0.17,7.21-0.7c-0.12-4.59-4.2-7.97-3.74-12.67c-0.39-3.65,2.81-5.89,5.43-7.69c-1.16-1.42-2.35-2.8-3.57-4.15
		c-5.05,0.91-6.24,6.6-5.87,10.95c0.39,2.82-1.17,5.16-3.38,6.75c-5.14,0.08-10.62-0.38-15.29,2.21c-4.21,1.8-7.59,5.42-8.52,9.98
		c3.48,2.02,7.15,4.23,11.34,3.93c0.15,2.78,0.14,5.57,0.04,8.35c-0.43,0.34-1.29,1.01-1.71,1.34c-1.69-0.1-3.58,0.46-5.08-0.53
		c-7.81-4.64-15.53-9.52-24.03-12.84c-2.81-1.17-5.66-2.28-8.69-2.72c-0.58,0.77-1.75,2.31-2.34,3.09c2.49,0.81,4.6-0.85,6.66-1.95
		c1.89,1.16,3.75,2.4,5.79,3.31c0.46,1.24,0.94,2.48,1.43,3.73c-1.66-0.11-3.28,0.11-4.75,0.93c1.98,1.43,4.19,2.43,6.47,3.28
		l-1.47,1.32c2.76,1.78,6.02,0.4,9.03,0.69c2.7,0.2,5.41,0.29,8.12,0.33c-0.21,1.48,0.22,3.15-0.53,4.53
		c-3.56,2.16-7.8,0.49-11.53-0.26c-1.04,0.99-2.08,1.99-3.08,3.02c-1.93,0.23-3.87,0.3-5.81,0.32c0.03-1.73-0.33-3.94,1.33-5.07
		c0.89-0.96,2.67-1.66,2.11-3.24c-1,0.01-3,0.04-4,0.05c-1.22-1-2.53-1.86-3.88-2.63c-1.01-1.65-2.09-3.25-3.18-4.83
		c-0.39,0.61-1.18,1.83-1.57,2.44c0.22-0.82,0.67-2.45,0.89-3.27l-1.52,0.49l0.18-2.68c-1.77,2.59-3.18,5.77-6.13,7.25
		c-3.03,1.08-6.34,1.5-9.42,0.39c0.03-1.46,0.07-2.92,0.1-4.36c-3.59,0.16-7.27,0.47-10.6,1.94c2.04,2.88,4.35,5.59,6.01,8.72
		c-1.07,1.89-2.89,3.61-2.7,5.97c0.17,3.85-1.79,7.48-4.55,10.05c-6.36,4.94-14.58,5.96-22.02,8.4c-2.68,3.33-4.09,7.52-7.17,10.55
		c-4.2,5.21-11.55,4.77-17.55,5.77c-2.77,1.05-5.04,3.07-7.12,5.12l-0.66-1.54c0.26,1.09,0.56,2.2,0.86,3.31
		c-1.12,0.11-2.24,0.22-3.36,0.34l0.85,0.59c-3.92,3.95-6.68,8.88-10.52,12.92c-7.19,8.4-17.12,13.56-25.98,19.9
		c-1.39,1-3.22,0.55-4.81,0.79c0-0.89,0-2.66-0.01-3.55c5.79-7.57,12.91-13.91,19.55-20.69c6.32-5.2,11.69-11.39,17.43-17.19
		c2.57-2.84,4.47-6.2,7.11-8.97c7.15-7.94,10.77-18.48,11.6-29.02c1.96-3.19,1.7-7.22,3.89-10.3c3.96-6.21,7.79-12.56,10.88-19.25
		c0.83-1.48,0.31-3.11-0.22-4.56c2.03-4.01,4.26-8.05,4.75-12.6c0.72-5.59,1.64-11.37,5.26-15.9c2.57-10.54,9.37-19.24,14.39-28.64
		c1.65-5.89,2.66-11.97,4.04-17.93c0.13,1.24,0.39,3.73,0.52,4.98c4.52-12.67,8.55-26.51,19.06-35.65
		c3.56-3.49,8.97-3.01,13.51-2.51c1.55,3.13,3.94,5.69,6.71,7.78c2.64-1.43,5.15-3.05,7.6-4.78c0.95,0.05,2.85,0.15,3.8,0.19
		c-1.55-2.45-3.51-4.63-4.96-7.14c-1.39-2.47,1.07-5.2,3.51-5.53c4.73-0.72,9.8,0.61,14.31-1.38c2.08-0.79,3.49-2.83,3.76-5
		c0.59-5.52-0.03-11.09,0.48-16.61c0.01-1.97,1.94-3.11,3.51-3.84c4.18-1.95,8.89-1.18,13.31-1.88c6.67-1.69,13.6-0.72,20.4-0.9
		c4.05,0.14,7.97-1.05,11.98-1.33c5.33-0.42,10.68,0.12,16.01-0.3c4.82-0.37,9.24-2.8,14.09-2.96c4.39-0.13,8.69,0.89,13.03,1.45
		c10.3,1.14,20.59,3.48,30.08,7.74c4.02,1.65,7.01,4.91,9.25,8.56c5.87,0.34,11.76,0.4,17.62-0.21c13.6-1.57,27.24-2.97,40.93-3.51
		c7.6-0.3,15.26,0.55,22.81-0.64c6.87-1.32,12.85,3.36,19.39,4.6c7.21,4.51,15.8,6,23.18,10.1c4.21,3.7,9.97,5.27,15.5,4.71
		c3.38-1.17,6.4-3.57,10.13-3.59c14.41-0.72,29.31-0.15,43.06-5.27c5.19-1.73,10.76-0.57,16.11-1.18
		c16.48-1.48,32.56-5.65,48.96-7.72c2.65-0.36,5.3,0.12,7.9,0.63c5.03,1.03,10.04-0.86,15.09-0.65c10.34,0.45,20.66,1.68,31.01,1.71
		c2.89,0.26,4.57-2.29,6.36-4.08c1.85-2.18,5.06-2,7.66-1.82c4.74,0.45,6.95,6.4,11.88,6.26c9.75-0.11,19.31-3.16,29.11-2.53
		c3.97,0.41,6.49,4.08,10.13,5.37c6.53,2.26,14.28,2.77,20.19-1.4c1.31-2.95,2.17-6.16,4.03-8.84c3.15-3.6,8.2-3.94,12.66-3.78
		c1,1.62,1.99,3.28,3.11,4.85c1.37,1.82,2.84,3.64,4.66,5.06c2.49,1.16,5.05,2.15,7.64,3.09c-0.5-2.7-1.43-5.37-1.34-8.14
		c0.17-2.86,2.18-5.08,3.7-7.34c5.51,1.65,9.49,8.16,15.84,6.34c2.4-2.09,3.47-5.75,7.06-6.45c0.15-1.32,0.31-2.64,0.49-3.94
		c2.21,0.06,4.43,0.11,6.65,0.29c-0.19,0.49-0.57,1.49-0.76,1.98c-4.25,3.26-5.16,9.08-8.57,13.1c4.67,0.06,10.04,0.33,13.77-3
		C1368.765,580.542,1367.045,575.003,1366.645,570.372 M779.365,583.562c-0.11,3.82-0.82,7.59-0.81,11.41
		c0.33,3.65,0.58,8.4,4.66,9.83c0.85-2.6,3.04-1.44,4.62-0.33c5.72-0.11,11.37-2.36,17.07-0.58c-0.07-0.86-0.2-2.58-0.27-3.44
		c-6.75-2.5-14.67-0.26-21-4.12c0.19-0.72,0.57-2.15,0.75-2.87c6.12,0.02,12.25,0.1,18.37-0.07c1.63-1.6,3.21-3.24,4.89-4.77
		c3.64,0.02,6.91,1.57,10.04,3.26c0.05-0.46,0.13-1.37,0.17-1.83c0.46,3,4.17,2.59,6.33,3.74c-0.57,1.15-1.17,2.29-1.82,3.4
		c-2.23,0.04-4.43,0.32-6.62,0.61c-0.51,0.44-1.02,0.89-1.52,1.34c4.99,2.36,10.48,1.22,15.75,1.42c5.42,0.43,7.92,5.66,10.19,9.85
		c0.8,0,2.39-0.01,3.19-0.02c0.08-1.31,0.22-2.63,0.16-3.93c-2.37-5.22-8.94-6.7-11.21-11.9c-0.98-1.79-0.88-3.89-1.06-5.84
		c2.03,0.43,1.1-0.99,0.39-1.91c1.09-1.26,2.17-2.53,3.24-3.8c-4.37-2.33-9.41-2.39-14.24-2.34c-0.47,0.3-1.41,0.91-1.88,1.22
		c-3.24-0.04-6.48-0.02-9.72,0c-1.9-0.02-3.8-0.02-5.69-0.01c-0.49-0.32-1.48-0.95-1.97-1.27
		C794.075,581.833,786.705,582.683,779.365,583.562 M1301.275,596.443c0,4.08-0.01,8.16,0.02,12.25c1.59-1.2,3.16-2.42,4.63-3.76
		c1.82-2.2,4.25-4.18,4.79-7.12C1308.275,595.363,1304.345,596.963,1301.275,596.443 M1175.555,600.782
		c2.95,1.61,6.43,1.54,9.66,2.18c-0.2-1.75-1.8-2.46-3.05-3.35C1179.925,599.802,1177.705,600.182,1175.555,600.782
		 M1273.375,602.103c2.44,2.63,1.92,6.47,2.08,9.79c-1.09,6.38-3.78,12.5-3.95,19.03c-0.09,1.99,1,3.65,2.37,4.98
		c0.4-0.35,1.21-1.05,1.61-1.4c2.52,0.09,5.06-0.1,7.38-1.22c-0.14-0.85-0.43-2.55-0.57-3.4c-1.91-0.69-3.93-0.95-5.89-1.38
		c-0.77-3.8,1.17-7.54,0.4-11.33c-0.37-2.7-1.61-5.36-1-8.11c0.3-2.82,2.48-4.84,3.72-7.26
		C1277.495,601.963,1275.165,600.792,1273.375,602.103 M1120.075,607.792c0.01,0.93,0.04,2.79,0.05,3.72
		c2.55-0.4,5.12-1.05,7.19-2.69l0.47,0.2c1.21-0.38,2.54-2.12,1.64-3.31c2.52-0.06,5.04-1.58,5.97-3.99
		C1129.605,601.643,1125.055,605.473,1120.075,607.792 M912.965,606.913c-3.35,0.02-6.63-1.02-10-0.78
		c-1.72,0.14-4.64,0.38-3.91,2.85c3.19,1.89,6.78,2.93,10.37,3.76c1.46,4.41-0.45,8.69-0.93,13.06c1.79-0.13,3.84,0.46,5.45-0.62
		c5.48-3.12,10.72-7.08,17.01-8.38c2.68-0.16,5.4-0.26,8.07,0.11c6.04,1.99,11.88,5.22,18.42,5.06c-0.96-1.94-2.54-3.69-2.76-5.9
		c0.1-3.56,3.35-5.73,4.85-8.7c-9.5-0.91-18.99-1.96-28.5-2.71C924.865,604.062,919.115,607.182,912.965,606.913 M1234.445,609.113
		c-1.19,7.92-0.89,16.01-1.1,24c1.72,0.16,3.43,0.32,5.17,0.47c-0.38-1.82-0.92-3.59-1.09-5.43c0.67-4.04,4.3-6.62,6.01-10.12
		C1241.575,614.213,1237.575,611.873,1234.445,609.113 M1068.865,617.463c1.69,0.29,3.38,0.26,5.08-0.08l0.1,1.37
		c0.03-0.39,0.07-1.15,0.1-1.53c6.29-0.79,12.61-1.46,18.83-2.78c0.99-0.08,1.58-0.86,2.1-1.62
		C1086.205,612.573,1076.796,613.062,1068.865,617.463 M1142.535,619.453c-0.3,0.22-0.9,0.67-1.2,0.89
		c0.54,0.59,1.12,1.17,1.74,1.72c0.15,3.62-3.5,6.86-7.08,6.09c-3.22-2.87-1.94-7.8-3.64-11.45c-3.08,4.2,0.21,10.34-4.34,13.89
		c1.2,3.12,1.1,6.5,1.2,9.8c0.89-2.34,1.34-5.2,3.71-6.55c5.27-3.52,11.86-2.4,17.65-4.21c1.82-2.51,3.91-4.87,4.93-7.85
		c-2.59,1.7-5.11,4.98-8.58,3.35c-3.86-2.34-2.14-7.71-2.74-11.44C1141.465,613.802,1139.785,617.912,1142.535,619.453
		 M1025.825,619.302c0.94,0.28,1.9,0.58,2.86,0.88c0.52-0.21,1.57-0.65,2.09-0.87c-1.64-1.06-3.14-2.5-5.08-2.92
		C1023.535,616.182,1025.625,618.312,1025.825,619.302 M817.685,617.633c-1.9,0.28-3.58,1.23-5.22,2.17
		c0.03,2.42,0.23,4.87-0.11,7.29c-0.31,1.34-1.72,2.95-3.27,2.35c-5.63-0.75-8.22-6.49-12.11-9.9c-4.76-0.53-9.95-1.21-14.45,0.86
		c-3.32,1.79-2.99,5.99-2.06,9.09c6.1,0.52,12.53-2.29,18.34,0.49c2.87,1.36,3.2,4.86,4.45,7.44c8.29,0.47,16.93-2.15,24.89,1.27
		c-1.06,3.55-5.29,4.49-6.67,7.83c-3.69,5.86-2.2,13.27-0.31,19.5c0.83,3.04,3.2,6.83,6.87,6.13c7.69-1.26,15.21-3.45,22.96-4.39
		c7.86-0.77,15.35,2.33,23.09,3.05c6.5,1.18,13.6,1.04,19.29-2.73c0.57-9.77-2.19-19.42-1.46-29.2c0.09-2.85-3-4.15-5.43-3.75
		c-11.34,0.51-23.08,3.79-34.14-0.33c-0.04-1.78-0.07-3.56-0.07-5.33c13.41-0.14,27.15,0.8,40.16-3.13c0.75-1.55,1.45-3.11,2.1-4.69
		c-9.56,0.68-19.01,2.43-28.48,3.78c-7.94-0.39-16.46,1.44-23.88-2.13c-0.18-2.31,0.86-4.3,2.73-5.64
		C835.875,616.653,826.685,616.062,817.685,617.633 M1116.115,619.233c-2.15-0.04-4.27,0.12-6.38,0.42
		c-0.53,2.95-0.74,6.02,0.32,8.9c4-0.33,6.88-3.28,9.99-5.46c1.43-1.1,0.62-3.18,0.46-4.65c-0.95,0.02-2.85,0.05-3.8,0.07
		c-0.03-0.29-0.1-0.89-0.13-1.19C1116.405,617.953,1116.245,618.583,1116.115,619.233 M1298.645,618.403
		c-0.41,0.76-0.8,1.54-1.18,2.32c2.17,1.43,4.92,1.49,7.09-0.01c2.8-2.21,6.35-1.15,9.6-1.08
		C1309.005,618.953,1303.825,618.633,1298.645,618.403 M750.425,621.683c1.03,0.34,2.06,0.67,3.1,0.99c-0.3,2.74,1.78,5.09,1.1,7.9
		c-4.74,1.08-8.68-2.63-13.42-2.09c-3.47-0.9-6.8,0.36-9.26,2.82c-0.64,0-2.75,0.14-2.45,1.37c0.63,1.2,1.88,0.51,2.87,0.31
		c2.06,0.21,4.14,0.34,6.21,0.51c0.82-0.67,1.65-1.35,2.47-2.01c5.63,1.56,11.88,1.81,17-1.41c0.3-3.51-2.87-5.69-4.18-8.62
		C752.715,621.513,751.565,621.583,750.425,621.683 M1095.125,626.233c1.12,2.02,2.63,3.79,3.75,5.82c0.72,2.65-0.42,5.67-2.99,6.82
		c-6.75,3.32-14.49,2.32-21.71,1.86c-3.6,1.36-6.61,4.03-9.85,6.11c0,0.37,0,1.11-0.01,1.48c0.42-0.02,1.24-0.06,1.65-0.08
		c2.81-3.65,7.19-6.11,11.88-5.8c5.99,2.19,6.8,9.61,11.65,13.02c4.47,1.29,8.82-1.74,12.84-3.36c0.04-9.51-1.19-19.01-1.41-28.53
		C1099.125,624.743,1097.135,625.523,1095.125,626.233 M1025.645,624.552c0.06,0.91,0.13,1.82,0.2,2.73
		c0.44,0.07,1.31,0.2,1.75,0.26c0.03-1.03,0.07-2.05,0.11-3.06C1027.185,624.503,1026.165,624.532,1025.645,624.552
		 M1176.795,623.823c-0.26,1.43,0.41,3.64-1.17,4.47c-3.18,1.26-7.14,0.14-9.76,2.72c5.43,0.52,10.91,0.49,16.35,0.11
		c1.57-0.86,3.2-1.58,4.88-2.22c-2.67-2.14-6.39-1.13-9.37-2.6C1177.406,625.463,1177.095,624.643,1176.795,623.823
		 M1072.975,626.812c-0.43,0.51-1.3,1.52-1.74,2.02c2.3,2.14,5.39,0.15,7.72-0.96c0.34-0.25,1.01-0.75,1.35-1
		C1077.855,626.843,1075.416,626.853,1072.975,626.812 M919.395,631.953c0.73,2.75,1.54,5.48,2.27,8.25
		c-0.26,0.29-0.79,0.88-1.05,1.17c2.06,2.99-0.13,6.35-0.34,9.56c0.91,3.66,2.44,7.36,1.42,11.19c-1.17,4.84-1.51,10.71,2.6,14.31
		c2.64-0.18,5.26,0.15,7.79,0.95c2.69,0.72,4.48-1.79,6.25-3.31c0.06-4.45-1.68-8.69-1.77-13.12c0.39-4.5,4.05-8.39,2.93-13.07
		c-1.12-6.39-1.81-12.96-4.18-19.03C929.775,627.653,924.225,629.223,919.395,631.953 M948.095,631.383l-0.39,0.29
		c0.93,4.2-1.95,8.18-0.66,12.29c1.2,5.02,2.54,10.07,4.89,14.69c3.81-1.26,7.67-2.41,11.57-3.38c-0.12-5.02,0.52-10.15-0.66-15.08
		c-1.14-3.5-2.89-6.95-5.56-9.53C954.815,628.083,950.305,628.843,948.095,631.383 M778.995,639.733c0.03,2.38,0.03,4.77,0.03,7.16
		c2.07-0.04,4.14-0.05,6.21-0.07c1.78-3.01,0.69-6.05-0.1-9.16c-0.55-0.26-1.65-0.78-2.2-1.04
		C781.535,637.552,780.225,638.593,778.995,639.733 M1170.435,639.353c1.8,1.29,4.73,1.63,5.37,4.07c0.5,1.7,0.79,3.64,0.06,5.32
		c-0.87,1.07-2.31,1.44-3.44,2.14c0.46,0.58,0.93,1.16,1.41,1.75c3.08,0.02,6.09,0.72,9.12,1.24c-0.64-2.45-0.56-4.91,0.53-7.2
		c5.35-3.03,11.59-1.61,17.42-2.17c-3.14-2.55-6.31-5.1-8.96-8.17C1184.585,636.213,1177.825,639.723,1170.435,639.353
		 M1261.805,638.422c-0.03,0.62-0.08,1.88-0.11,2.51c2.75-0.27,5.49-0.73,8.25-1.08
		C1267.215,639.383,1264.505,638.903,1261.805,638.422 M719.955,643.113c-3.06,0.5-5.86,1.9-8.54,3.41c0.01,0.5,0.04,1.49,0.05,1.99
		c1.97,0.81,3.95,1.61,5.98,2.29l-0.05,0.95c6.26-0.26,12.51-0.2,18.77,0.05l-0.96,1.1c-4.58,1.24-9.32,1.53-14.04,1.53
		c-4.31,1.22-10.47,2.16-11.26,7.55c0.48,2.38,2.39,4.08,3.94,5.82c4.79-1.65,8.98-4.59,13.65-6.52c1.69-0.85,3.65-0.47,5.39,0.03
		c6.62,2.13,12.28,6.29,18.39,9.47c3.01-4.89,4.66-11.42,1.44-16.61c-1.54-2.86-5.45-1.89-7.59-4.04c1.36-1.88,3.26-3.18,5.27-4.25
		c0.49-2.51-0.07-6.38-3.23-6.59C737.925,638.863,728.965,641.493,719.955,643.113 M1129.335,643.802c0.43,1.59,0.83,3.19,1.22,4.81
		c5.09-0.72,10.2-4.46,15.29-1.93c0.07,2.35,0.03,4.72,0.15,7.09c0.69-0.05,2.07-0.16,2.75-0.21c3.47-5.27,7.67-10.42,13.65-12.9
		c-0.87-0.16-2.6-0.47-3.47-0.63C1148.855,637.153,1139.395,644.032,1129.335,643.802 M1007.966,640.073
		c-0.95,4.09-1.09,8.37-2.65,12.31c-3.44,0.89-7.67,1.49-10.38-1.34c-0.34-1.09-0.68-2.17-1.03-3.24c-1.24,1.37-2.38,2.83-3.48,4.33
		c4.26,1.86,7.04,5.69,10.66,8.45c2.84-0.19,5.68-0.45,8.51-0.84C1009.445,653.162,1008.875,646.593,1007.966,640.073
		 M976.265,642.542c1.89,3.29,4.97,6.23,4.63,10.33c2.29-0.18,4.58-0.45,6.85-0.84c-2.26-1.99-4.25-4.26-5.46-7.03
		c0.38-0.49,1.13-1.45,1.5-1.93C981.385,641.903,978.776,641.273,976.265,642.542 M1021.805,656.282c0.31,3.38,2.29,6.39,3.87,9.32
		c4.25,0.63,8.04-2.24,9.8-5.92c0.94-3.37,0.47-6.92,0.53-10.37c-2.82-0.06-5.62-0.41-8.37-0.97c-0.86-1.54-1.79-3.04-2.72-4.52
		C1022.625,647.532,1022.635,652.113,1021.805,656.282 M1051.235,646.302c-0.86,1.21-0.63,1.96,0.69,2.25
		C1052.755,647.333,1052.525,646.583,1051.235,646.302 M977.295,660.723c0.82-2.16,1.48-4.4,1.37-6.72
		C976.795,655.782,976.895,658.343,977.295,660.723 M778.555,660.443c3.51,0.32,7.03,0.4,10.55,0.49c2.01,0.26,4.03,0.26,6.06,0.17
		C790.805,656.203,783.985,660.503,778.555,660.443 M954.975,665.673c-1.06,3.22-2.08,6.53-1.62,9.98c2.99-1.31,6.13-2.26,9.28-3.13
		c-0.62-2.17-1.17-4.34-1.73-6.51c-0.46-0.38-1.39-1.13-1.85-1.51C957.665,664.782,956.305,665.193,954.975,665.673
		 M831.065,676.853c4.85,1.2,10.05,1.94,14.39,4.53c1.94,4.57,0.13,10.1,2.21,14.81c2.81-3.18,5.45-6.66,9.21-8.78
		c1.09,0.41,2.19,0.83,3.29,1.25c2.18,2.57,4.72,4.91,7.77,6.42c3.67,0.71,6.86-1.75,9.76-3.65c-2.32-1.58-5.05-2.1-7.77-2.39
		c-2.74,0.01-4.21-2.94-6.91-2.98c-3.08-0.41-7.33-1.22-7.33-5.17c1.46-3.48,5.33-4.97,8.09-7.25
		C852.875,674.773,841.835,674.613,831.065,676.853 M900.805,673.903c-6.77,2.42-13.18,5.76-19.87,8.36
		c-5.45,0.72-10.39-2.86-15.89-2.56c1.2,1.75,3.04,2.91,5.09,3.44c6.26,2.29,13.26-0.27,19.4,2.48c4.69,1.92,7.81,6.08,11.55,9.3
		c1.01,1.05,2.58,0.61,3.88,0.76c7.84-0.08,15.98,2.51,23.6-0.4c-1.11-2.63-2.28-5.4-4.54-7.25c-3.7-3.26-8.66-4.37-12.58-7.27
		c-0.18,1.94-0.48,3.87-0.85,5.8c-5.84,0.73-12.61,0.08-16.89-4.4c-0.24-0.56-0.71-1.67-0.95-2.22c1.45-2.81,4.25-4.36,7.2-5.15
		c1.77,0.44,3.57,0.62,5.39,0.72C904.065,674.523,902.525,673.032,900.805,673.903 M779.995,680.162c-1.32,3.11-3.18,5.95-5.81,8.11
		C778.295,688.773,781.615,683.893,779.995,680.162 M1039.745,681.432c-0.37,0.69-1.1,2.08-1.47,2.77c2.32-0.04,4.65-0.03,6.98,0.18
		c0.31,0.38,0.94,1.12,1.26,1.5c0.33-0.77,0.68-1.53,1.03-2.28C1045.225,682.023,1042.635,680.542,1039.745,681.432
		 M733.755,693.993c0.01,0.88,0.02,2.63,0.03,3.5c2.75,0.23,5.51,0.21,8.26,0.49c3.54,0.79,6.14,4.71,10.08,3.76
		c4.01-0.67,8.29-2.86,12.14-0.33c2.93-1.61,5.32-4.1,6.74-7.13c-1.67-0.4-3.33-1.27-5.07-0.99c-3.79,0.19-5.29,4.71-8.98,5.21
		c-3.1,0.12-7.24,1.11-9.36-1.85c-1.17-4.28-2.4-8.54-4.04-12.66C743.345,689.263,739.375,694.292,733.755,693.993 M945.266,686.302
		c-0.19,1.95,0.56,3.69,1.84,5.14c0.03,0.61,0.09,1.84,0.11,2.46c2.74-1.04,5.1-2.78,7.02-4.98c-0.7-0.62-1.39-1.24-2.07-1.84
		c-1.76,0.07-3.51,0.11-5.25,0.18C946.505,687.023,945.685,686.542,945.266,686.302 M704.665,696.412c2.89-0.91,5.79-1.82,8.79-2.3
		c0.8-3.16-0.72-5.74-3.16-7.65C708.245,689.673,706.265,692.943,704.665,696.412 M781.495,694.393
		c-5.16,5.13-9.92,10.66-15.36,15.52c0.46,0.35,1.37,1.06,1.83,1.42c2.57,0.09,5.38,0.44,7.65-1.09
		c4.66-3.45,4.78-10.67,10.13-13.43c2.11-1.44,4.59-0.88,6.88-0.33c2.7,3.29,0.38,7.29-0.08,10.93c1.85,0.02,3.71,0.12,5.57-0.06
		c1.91-1.21,3.75-2.69,6.09-2.87c0.55,0.32,1.65,0.97,2.19,1.3c1.01,1.11,1.82,2.92,3.59,2.89c2.82-0.3,5.56-1.14,8.4-1.34
		c-5.01-7.16-10.94-14.06-18.36-18.74C793.495,688.113,786.285,689.603,781.495,694.393 M694.345,705.903
		c3.48,2.72,4.37,7.33,7.4,10.4c1.74,0.87,3.4,1.94,5.25,2.61c1.23-2.39,2.07-4.94,3.07-7.42c1.97-0.46,3.96-1.01,6.01-0.84
		c2.57-0.14,4.2,2.17,6.14,3.47c-0.49-3.8-3.43-6.2-6.14-8.52c-1.15-0.94-0.7-3.83-2.66-3.27c-3.25,1.72-2.66,6.18-5.44,8.39
		c-1.66-0.06-3.32-0.1-4.97-0.13c-0.9-3.46-0.03-6.99,0.12-10.48C700.205,702.062,697.235,703.923,694.345,705.903 M916.075,705.193
		c1.52,1.29,2.81,3.2,4.91,3.55c2.47,0.04,4.69-1.12,6.95-1.96c-0.68-0.26-2.04-0.76-2.72-1.02
		C922.165,705.623,919.125,705.273,916.075,705.193 M732.435,706.373c0.33,1.01,0.7,2.01,1.04,3.04c0.52-0.15,1.04-0.29,1.57-0.42
		c0.28-0.74,0.85-2.2,1.13-2.94C734.925,706.173,733.675,706.243,732.435,706.373 M849.255,707.513c0.05,1.4,0.13,2.81,0.24,4.23
		c0.37,0.2,1.11,0.6,1.49,0.8c0.18-1.65,0.27-3.3,0.34-4.94C850.805,707.583,849.765,707.532,849.255,707.513 M946.645,731.603
		c-0.07,1.2-0.13,2.41-0.17,3.62c1.9-0.97,3.59-2.28,5.1-3.79C949.915,731.432,948.285,731.503,946.645,731.603 M965.315,741.753
		c1.15-1.9,2.05-3.94,3-5.95C966.415,737.273,963.575,738.943,965.315,741.753 M678.835,769.263c3.85-4.74,8.84-8.47,12.17-13.64
		C684.925,757.552,679.225,762.523,678.835,769.263 M693.745,765.883c0.01,0.83,0.03,1.68,0.05,2.52c2.39,0,4.36-1.31,6.19-2.7
		C697.905,765.782,695.825,765.833,693.745,765.883 M654.715,784.643c0.05,1.34,0.1,2.69,0.16,4.05c0.41,0.07,1.23,0.19,1.65,0.25
		c0.01-1.47,0.02-2.92,0.04-4.37C656.105,784.593,655.175,784.623,654.715,784.643 M926.285,610.023c3.21-1.01,6.31-2.67,9.72-2.79
		c2.95-0.25,5.31,4.52,2.14,5.91c-3.75,1.56-8.16,1.87-11.77-0.24C926.355,612.182,926.305,610.743,926.285,610.023
		 M1360.175,615.903c5.69-1.54,11.04-4.25,16.85-5.3c3.66,0.13,3.93,4.61,2.73,7.17c-5.57,4.41-13.09,3.36-19.73,3.46
		C1360.045,619.443,1360.085,617.662,1360.175,615.903 M1358.765,631.853c2.45-1.59,4.74-3.88,7.89-3.74
		c1.91,2.93-0.38,5.71-1.89,8.18c-2.01-0.05-4.01-0.07-5.99-0.06C1358.765,634.763,1358.765,633.302,1358.765,631.853
		 M926.825,633.053c4.44-1.57,10.06,2.79,8.59,7.53c-2.28,1.82-6.08,4.57-8.78,2.04c-1.95-1.52-3.73-3.38-4.53-5.76
		C922.405,634.532,924.895,633.662,926.825,633.053 M1325.265,632.542c2.29,1.09,4.33,2.98,4.32,5.71c-4.04,1.76-8.36,3.3-12.83,2.4
		c-0.03-1.08-0.05-2.16-0.07-3.23C1319.465,635.653,1322.295,633.973,1325.265,632.542 M882.615,638.743
		c2.48-0.32,5.46-1.13,7.66,0.36c0.97,2.54,0.3,5.42,0.51,8.11c-2.39,0.4-4.81,0.51-7.22,0.39
		C881.285,645.122,880.995,641.643,882.615,638.743 M866.525,640.542c2.45-0.2,5.7-2.06,7.51,0.47c1.66,1.73,1.94,5.15-0.37,6.44
		c-2.34,0.48-4.75,0.21-7.12,0.25C866.375,645.312,866.465,642.922,866.525,640.542 M949.515,640.583c3.68-1.44,8.17-1.4,11.28,1.28
		c-0.03,0.63-0.09,1.88-0.12,2.5c-2.7,2.26-6.5,3.32-9.85,1.92C948.895,644.973,949.315,642.542,949.515,640.583 M850.805,642.443
		c4.37-2.36,10.26,1.72,8.66,6.63c-2.73,1.42-5.67,2.47-8.79,2.25C849.185,648.443,849.435,645.302,850.805,642.443
		 M1091.305,644.933c1.08-1.65,2.91-2.28,4.7-2.82c1.68,1.32,3.33,2.71,4.92,4.16c0.06,1.65,0.12,3.3,0.19,4.96
		c-1.8-0.02-3.61,0.03-5.39-0.1C1093.505,649.743,1092.595,647.083,1091.305,644.933 M834.105,643.743c2.44-0.26,4.9-0.61,7.36-0.25
		c2.29,3.39,1.23,7.51-1.36,10.39c-2.69-0.07-5.84-0.42-6.8-3.4c-1.73,3.76-6.52,2.85-9.74,1.95c-1.2-3.44,1.13-6.85,4.39-7.92
		c2.46-0.33,4.22,1.83,5.98,3.21C833.985,646.383,834.045,645.052,834.105,643.743 M1168.245,660.733c2.98-0.28,5.97-0.65,8.98-0.34
		c0.86,1.73,1.77,3.44,2.7,5.16c2.32-2.54,6.41-2.74,9.12-0.75c2.12,2.92,3.34,6.6,3.48,10.2c-1.68,7.25-4.65,14.17-8.03,20.78
		c-1.14-0.07-2.25-0.13-3.36-0.2c-4-4.43-7.83-9.45-8.84-15.48c0.03-5.51,5.28-8.94,6.02-14.27c-3.33-0.21-6.66-0.12-9.98,0.05
		C1168.296,664.162,1168.265,662.443,1168.245,660.733 M1194.815,667.713c6.31-1.72,12.91-0.68,19.26,0.3
		c2.67,0.51,6.56,1.04,6.48,4.63c-3.23,3.86-8.96,5.11-13.63,3.5c-4.35-1.48-8.8-2.73-12.87-4.88
		C1194.306,670.073,1194.565,668.893,1194.815,667.713 M1164.235,673.613c0.03-1.07,0.06-2.13,0.1-3.18c3.06,0.01,6.13,0.01,9.21,0
		c-0.02,0.86-0.04,2.58-0.05,3.44C1170.395,673.903,1167.315,673.843,1164.235,673.613 M1116.825,683.052
		c0.86-1.43,2.37-2.35,3.99-2.67c4.97,0.62,9.82,2.03,14.74,2.96c-0.01,0.99-0.01,1.99,0,3c-5.9,2-12.17,1.21-18.27,1.3
		C1117.075,686.113,1116.735,684.583,1116.825,683.052 M1156.745,681.733c4.03-2.05,9.17-1.55,12.56,1.48
		c1.18,1.19-1.14,2.48-2.16,2.69c-3.41,0.9-7.01,0.62-10.39-0.24C1156.745,684.343,1156.745,683.032,1156.745,681.733
		 M1097.765,687.683c4.09-2.21,8.86-0.92,13.29-1.23c-0.03,1.39-0.05,2.79-0.07,4.19c-4.43,0.04-8.87,0.11-13.3-0.05
		C1097.705,689.613,1097.735,688.643,1097.765,687.683 M965.676,695.523c3.83-1.6,7.96-1.13,11.83,0.04c2.68,2.54,2,8.1-2.29,8.18
		c-4.21,1.43-6.79-2.45-9.74-4.57C965.525,698.263,965.625,696.432,965.676,695.523 M1000.605,708.193
		c-0.26-3.54,2.28-7.41,6.2-6.78c3.82,1.34,6.24,4.93,9.02,7.69c-0.21,1.59-0.9,3.01-1.78,4.33c-1.99-0.02-3.98-0.05-5.96-0.15
		C1006.165,710.823,1003.795,708.713,1000.605,708.193 M980.396,707.552c2.38-0.15,4.76-0.14,7.14,0.11
		c-0.34,1.24-0.68,2.49-1.02,3.74c-1.83,0.01-3.66-0.01-5.48-0.02C980.785,710.103,980.575,708.823,980.396,707.552
		 M989.326,709.463c4.24,0.82,8.27,2.42,12.47,3.43c0.09,1.23,0.18,2.48,0.28,3.74c-3.97-0.13-8.45,0.97-11.73-1.92
		c-0.24,0.25-0.7,0.75-0.94,1C989.365,713.613,989.305,711.542,989.326,709.463 M1010.995,717.073c3.33-0.79,6.59-3.9,10.09-2.09
		c2.43,0.97,5,1.52,7.62,1.72c-0.45,1.26-1.17,2.46-1.33,3.82c1.72,0.83,2.72,2.15,2.63,4.18c-2.64,0.08-5.29,0.34-7.92,0
		c-3.52-1.23-6.65-3.37-10.25-4.42C1011.546,719.203,1011.265,718.133,1010.995,717.073 M831.445,728.603
		c-0.61-2.08,1.65-3.97,3.64-3.42c2.67,0.33,5.55,1.13,7.42,3.2c0.38,1.3,0.15,2.68,0.18,4.03
		C838.595,732.703,834.315,731.673,831.445,728.603 M863.655,727.433c1.59-0.85,3.22-2.15,5.14-1.75c2.8,0.65,5.22,2.32,7.74,3.64
		c0,0.96,0.01,1.94,0.03,2.92c-4.3,1.66-8.55,0.01-12.71-1.16C863.805,730.173,863.705,728.343,863.655,727.433 M857.465,728.343
		c1.53,0.05,3.07,0.1,4.62,0.17c1.88,3.44,5.3,6.22,9.15,7.09c0.44,1.75,2.44,2.21,3.74,3.21c-0.62,1.96-1.92,3.78-4.01,4.32
		c-5.28,1.62-11.23,2.41-16.45,0.19c-0.37-2.12-1.05-4.26-0.69-6.4C854.845,733.973,856.675,731.373,857.465,728.343
		 M712.045,756.153c4.6-2.79,9.19-7.26,15.07-5.86c3.15,0.14,4.04,4.23,2.35,6.45c-5.11,3.08-11.34,2.72-17.07,2.62
		C712.265,758.282,712.145,757.213,712.045,756.153 M1108.985,805.713c3.17-0.13,6.35-0.11,9.53-0.06
		c-0.02,3.04-0.02,6.08,0.01,9.13c-3.17,0.04-6.34,0.04-9.5,0.02C1109.025,811.763,1109.035,808.733,1108.985,805.713
		 M1272.505,805.643c3.18-0.04,6.36-0.06,9.55,0.04c-0.04,3.04-0.05,6.08-0.06,9.13c-3.17-0.02-6.33-0.01-9.48-0.03
		C1272.515,811.733,1272.515,808.682,1272.505,805.643 M819.215,818.073c6.82-1.81,14.45-2.03,21,0.91
		c4.36,1.99,6.84,6.66,7.26,11.31c-4.28,0.11-8.55,0.47-12.83,0.55c-0.9-1.76-1.3-4.15-3.39-4.9c-2.12-1.31-4.58-0.68-6.86-0.34
		c-0.64,0.76-1.27,1.53-1.9,2.31c0.47,1.56,1.22,3.27,3.04,3.62c6.1,1.69,12.61,2.58,18.1,5.97c5.3,3.64,6.65,11.35,3.77,16.91
		c-3.24,5.75-9.89,8.71-16.31,8.71c-6.02,0.05-12.85,0.04-17.62-4.21c-3.41-2.77-4.52-7.19-5.45-11.26
		c4.39-0.18,8.76-0.65,13.14-0.94c0.77,3.11,2.2,6.72,5.8,7.3c3.4,1.18,9.36-0.76,8.3-5.23c-1.94-4.22-7.38-4.23-11.21-5.52
		c-5.25-1.34-11.31-3.56-13.36-9.08C808.055,827.603,812.545,819.853,819.215,818.073 M1226.445,822.552
		c2.38-2.8,5.83-4.64,9.45-5.2c6.34-0.95,13.16-1.03,19.01,1.96c3.88,2.27,6.2,6.53,6.54,10.96c-4.25,0.17-8.5,0.45-12.75,0.6
		c-1-4.19-5.38-7.05-9.58-5.33c-2.25,0.27-2.11,2.83-2.62,4.53c7.02,3.65,15.93,3.01,22.15,8.39c4.36,3.37,4.95,9.65,3.34,14.58
		c-1.71,3.87-4.99,6.88-8.83,8.59c-0.2-0.41-0.61-1.24-0.82-1.66c0.14,0.51,0.42,1.52,0.56,2.03c-6.99,1.36-14.45,1.84-21.29-0.43
		c-5.76-2.14-8.9-8.04-9.57-13.87c4.38-0.22,8.75-0.65,13.13-1.01c0.75,2.38,1.23,5.27,3.65,6.58c2.83,1.73,6.28,1.04,9.17-0.15
		c1.71-2.3,1.87-5.83-1.12-7.14c-6.63-3.03-15.13-2.73-20.27-8.57C1222.785,833.333,1223.285,826.833,1226.445,822.552
		 M661.095,817.613c4.64-0.02,9.28,0,13.92,0c0.03,5.66,0.04,11.32,0.01,16.99c4.79-5.65,9.77-11.14,14.36-16.96
		c6.22-0.04,12.44-0.07,18.66,0.03c-5.46,5.56-10.88,11.16-16.4,16.66c1.31,2.49,3.24,4.71,3.84,7.52c1.01,4.02,4.73,6.44,6.82,9.84
		c2.21,3.54,4.28,7.17,6.51,10.7c-5.79-0.11-11.57-0.02-17.36-0.06c-2.93-6.21-6.26-12.23-9.33-18.37c-2.2,2.44-4.6,4.7-6.71,7.23
		c-0.89,3.59-0.17,7.45-0.38,11.15c-4.67-0.01-9.34,0.02-14-0.05C661.055,847.403,660.945,832.503,661.095,817.613 M725.565,817.623
		c5.13-0.02,10.27-0.01,15.4-0.03c5.28,15.01,11.29,29.75,16.6,44.75c-4.82-0.02-9.63,0.05-14.45-0.05
		c-0.77-2.53-1.54-5.05-2.37-7.56c-5.14,0.1-10.29,0.14-15.43-0.02c-0.85,2.53-1.62,5.1-2.43,7.65c-4.65-0.04-9.3-0.01-13.94-0.04
		C714.405,847.393,720.015,832.523,725.565,817.623 M728.135,845.073c3.22,0.02,6.43,0.02,9.65,0.06
		c-1.5-5.24-2.99-10.48-4.64-15.67C731.295,834.603,729.965,839.912,728.135,845.073 M762.075,817.583
		c8.98,0.09,17.97-0.03,26.95,0.05c3.93,0.26,8.24,1.31,10.92,4.41c4.16,5.17,3.34,13.68-1.89,17.83c-1.7,1.51-3.91,2.2-6,2.95
		c3.1,0.95,5.53,3.23,7.16,5.99c2.56,4.33,4.71,8.9,6.71,13.52c-5.11,0.01-10.22,0.02-15.33,0c-3.09-5.58-6.05-11.23-9.29-16.72
		c-1.72-0.78-3.49-1.44-5.33-1.85c0.11,6.17,0.05,12.35,0.03,18.53c-4.67,0.1-9.34,0.05-14,0.02
		C762.065,847.403,761.925,832.493,762.075,817.583 M776.085,826.562c-0.07,3.01-0.07,6.03-0.03,9.06c3.54-0.25,7.37,0.63,10.7-0.85
		c2.2-1.16,1.7-3.77,1.65-5.8c-0.35-0.43-1.05-1.28-1.4-1.71C783.405,826.523,779.735,826.523,776.085,826.562 M876.745,817.623
		c9.09,0,18.18-0.04,27.28,0c4.52,0.14,9.73,2.26,11.34,6.86c2.38,5.45-0.35,12.33-6.27,13.93c2.34,1.01,4.81,1.99,6.69,3.8
		c4.95,6.01,2.18,17.11-5.78,18.94c-10.94,2.19-22.17,0.82-33.24,1.16C876.775,847.412,876.805,832.513,876.745,817.623
		 M890.775,826.613c-0.01,2.83-0.02,5.67,0.01,8.51c3.2-0.22,6.61,0.56,9.68-0.61c2.75-0.83,2.4-4.32,1.52-6.44
		C898.725,825.743,894.495,826.853,890.775,826.613 M890.775,843.593c0,2.99,0,6,0.01,9.01c4.55-0.51,10.76,1.77,13.63-3.01
		c-0.07-0.96-0.21-2.89-0.28-3.85C900.315,842.672,895.285,843.743,890.775,843.593 M925.325,862.343
		c-0.07-14.91-0.08-29.82,0-44.73c12.41,0,24.82-0.01,37.23,0.01c-0.06,3.16-0.05,6.32,0,9.48c-7.77,0-15.55,0.03-23.32-0.01
		c0.05,2.34,0.04,4.68,0.02,7.03c7.16,0,14.33-0.03,21.5,0c0.02,3.08,0.01,6.16,0.02,9.24c-7.17-0.02-14.35-0.02-21.52-0.02
		c0.03,2.91,0.03,5.82-0.03,8.74c7.93,0.06,15.87,0,23.8,0.02c0,3.41,0,6.82,0,10.24
		C950.456,862.353,937.885,862.333,925.325,862.343 M970.535,862.333c-0.01-14.91-0.08-29.82,0.03-44.73
		c4.58,0.02,9.15-0.01,13.73,0.03c-0.01,11.25-0.04,22.5,0.02,33.75c7.22-0.08,14.45-0.02,21.67-0.04c0.05,3.65,0.04,7.3,0.03,10.96
		C994.195,862.393,982.365,862.323,970.535,862.333 M1012.275,862.312c0.02-14.91-0.08-29.81,0.05-44.71
		c12.33,0.03,24.66-0.01,36.98,0.02c-0.04,3.17-0.04,6.35-0.03,9.53c-7.65-0.09-15.3-0.03-22.95-0.03c-0.08,2.35-0.07,4.7,0.01,7.07
		c7.13-0.15,14.27-0.06,21.4-0.04c0.03,3.07,0.04,6.15,0.01,9.23c-7.16-0.06-14.32-0.07-21.48,0c-0.02,2.91-0.01,5.84,0.05,8.76
		c7.89-0.06,15.79-0.08,23.68,0c0.04,3.38,0.04,6.76,0.01,10.15C1037.425,862.383,1024.845,862.353,1012.275,862.312
		 M1057.745,817.603c8.43,0.15,16.89-0.29,25.32,0.28c8.3,0.61,14.63,8.06,15.64,16.03c0.6,5.75,0.67,11.75-1.26,17.27
		c-1.31,3.8-4.5,6.4-7.46,8.91c-10.28,3.97-21.49,1.64-32.22,2.22C1057.765,847.412,1057.815,832.503,1057.745,817.603
		 M1071.575,852.203c3.21-0.16,6.58,0.22,9.65-0.94c2.94-1.54,3.72-5.13,3.78-8.17c0.05-4.52,0.76-9.81-2.72-13.34
		c-3.07-2.35-7.12-2.12-10.76-2.21C1071.595,835.763,1071.475,843.983,1071.575,852.203 M1106.805,817.623c4.63,0,9.27,0,13.92-0.06
		c0.1,14.92,0.01,29.83,0.05,44.75c-4.67,0.03-9.33,0.03-13.99,0.02C1106.775,847.432,1106.745,832.523,1106.805,817.623
		 M1126.255,817.643c5.21-0.03,10.43-0.1,15.65,0.02c2.71,5.17,5.96,10.04,8.75,15.17c2.84-5.18,6-10.19,9-15.28
		c5.07,0.12,10.13,0.01,15.2,0.08c-5.65,8.68-11.51,17.24-17.08,25.96c-0.59,6.18-0.07,12.51-0.23,18.75
		c-4.68-0.01-9.34,0.01-14.01-0.01c-0.01-5.82,0.04-11.63,0.01-17.44c0.02-0.94-0.24-1.79-0.78-2.54
		C1137.395,834.032,1131.705,825.913,1126.255,817.643 M1179.245,817.633c12.35-0.03,24.7-0.04,37.05,0
		c-0.02,3.15-0.03,6.3,0.01,9.46c-7.74,0.04-15.48,0.03-23.21-0.01c-0.05,2.34-0.08,4.69-0.12,7.05c7.18-0.03,14.37-0.03,21.56,0.01
		c-0.02,3.07-0.03,6.15-0.03,9.23c-7.14-0.02-14.29-0.09-21.43,0.04c-0.07,2.9-0.08,5.8-0.02,8.72c7.97-0.05,15.94-0.04,23.92-0.01
		c0.07,3.38,0.04,6.77,0.07,10.17c-12.6,0.12-25.19-0.01-37.79,0.07C1179.275,847.453,1179.305,832.543,1179.245,817.633
		 M1270.275,862.302c0.05-14.92-0.13-29.84,0.09-44.75c4.53,0.11,9.07,0.03,13.61,0.05c0.12,14.89,0.06,29.79,0.04,44.69
		C1279.425,862.363,1274.855,862.363,1270.275,862.302L1270.275,862.302z"/>
	<path d="M937.435,64.933c0.4-0.22,1.2-0.66,1.59-0.88c13.8-0.06,27.62-0.09,41.42,0.03c1.2,1.3,3.01,0.88,4.56,0.98
		c3.81-0.04,7.63-0.11,11.45,0.02c3.51,2.6,8.61-0.7,12.16,1.86c2.6,0.09,5.21,0.06,7.82,0.14c2.26,1.77,5.36,0.62,8,1
		c1.63,1.52,4,0.76,5.99,1.06c2.36,1.95,5.79-0.2,8.17,1.72c1.67,0.25,3.63-0.22,5.01,1.05c1.6,0.09,3.21,0.14,4.83,0.23
		c1.39,1.17,3.28,0.8,4.95,1.06c1.22,0.78,2.7,0.79,4.09,1.04c1.47,1.01,3.29,0.73,4.97,0.93c1.15,0.87,2.63,0.82,3.99,1.1
		c1.24,0.67,2.66,0.75,4.04,0.98c1.85,1.12,4.14,0.48,6.07,1.4c1.01,0.35,2.01,0.73,3.02,1.13c1.35,0.23,2.79,0.26,4.01,0.99
		c1.35,0.26,2.82,0.24,4.02,1.06c0.46,0.09,1.4,0.27,1.87,0.36c1.16,0.86,2.64,0.8,4.02,1.04c1.34,0.56,2.73,1.01,4.07,1.59
		c0.47,0.1,1.41,0.3,1.87,0.4c1.01,0.42,2.04,0.8,3.09,1.12c0.98,0.36,1.98,0.69,2.99,1c1.26,0.63,2.67,0.69,4.05,0.84
		c0.51,0.3,1.52,0.9,2.02,1.21c0.97,0.33,1.95,0.64,2.95,0.92c0.97,0.37,1.95,0.72,2.96,1.03c0.99,0.35,2,0.67,3.03,0.96
		c1.73,0.6,3.47,1.21,5.15,2c2.01,0.72,4.06,1.41,5.89,2.57c0.48,0.08,1.44,0.24,1.92,0.32c1.28,0.57,2.63,1,3.94,1.51
		c2.84,1.73,6.16,2.42,9.03,4.07c1.61,0.74,3.29,1.34,4.97,1.92c1.72,0.88,3.45,1.76,5.19,2.62c1.57,0.83,3.17,1.66,4.96,1.96
		c1.62,0.82,3.25,1.64,4.89,2.46c0.49,0.25,1.48,0.75,1.97,1c1.34,0.65,2.68,1.32,4.02,2.01c2,0.98,4,1.99,6.03,2.95
		c1.64,1.01,3.21,2.14,4.91,3.08c3.51,1.63,7.02,3.31,10.19,5.57c0.95,0.45,1.92,0.9,2.9,1.35c1.64,1.02,3.22,2.17,4.97,3.04
		c2.47,1.38,4.68,3.18,7.16,4.57c4.16,2.11,7.66,5.33,11.84,7.41c13.71,9.46,27.47,19.01,40.05,29.95c3.09,2.17,5.64,5,8.79,7.11
		c3.02,3.69,7.3,5.93,10.48,9.47c8.15,8.18,16.34,16.34,24.49,24.53c2.43,2.53,5.25,4.75,7.12,7.78
		c14.29,15.84,27.62,32.7,39.42,50.57c1.92,2.24,3.59,4.69,4.94,7.32c2.02,3.49,4.53,6.67,6.58,10.15c1.01,2.02,2.39,3.82,3.42,5.84
		c1.24,2.03,2.66,3.96,3.54,6.2c0.9,1.72,2.05,3.29,3.07,4.95c0.78,1.62,1.57,3.24,2.35,4.87c0.83,1.4,1.79,2.72,2.64,4.13
		c0.46,0.94,0.93,1.89,1.42,2.83c0.5,1.06,1.02,2.12,1.54,3.2c0.82,1.59,1.61,3.21,2.45,4.81c0.82,1.73,1.7,3.45,2.55,5.18
		c0.83,1.61,1.64,3.25,2.47,4.87c0.25,0.99,0.55,1.97,0.9,2.94c0.53,1.05,1.09,2.1,1.63,3.18c0.68,1.34,1.37,2.68,2.06,4.02
		c0.57,1.68,1.16,3.36,1.9,4.98c1.08,1.8,1.76,3.81,2.48,5.78c0.75,1.64,1.36,3.34,2.01,5.03c0.72,1.63,1.34,3.31,2,4.98
		c0.76,1.66,1.37,3.38,1.99,5.11c0.27,0.99,0.57,1.98,0.92,2.96c0.28,0.51,0.84,1.51,1.13,2.01c0.25,1.04,0.55,2.08,0.9,3.11
		c0.3,0.98,0.65,1.96,1.03,2.94c0.29,1.01,0.61,2.01,0.97,3.01c0.33,1.04,0.7,2.07,1.13,3.09c0.1,0.47,0.3,1.4,0.41,1.87
		c0.56,1.3,0.99,2.67,1.52,4.01c0.27,1.02,0.59,2.04,0.95,3.04c0.31,1.02,0.67,2.03,1.07,3.03c0.21,1.34,0.38,2.7,0.9,3.97
		c0.33,1.02,0.71,2.03,1.12,3.04c0.24,1.35,0.2,2.82,1.06,4c0.09,0.47,0.27,1.41,0.36,1.88c0.84,1.16,0.78,2.65,1.07,4.01
		c0.79,1.62,0.65,3.54,1.59,5.13c0.09,0.94,0.2,1.89,0.32,2.85c0.94,1.57,0.75,3.53,1.64,5.14c0.25,1.68-0.14,3.6,1.07,5
		c0.07,0.95,0.16,1.9,0.26,2.86c1.19,1.4,0.77,3.31,1.03,5c1.41,1.8,0.22,4.4,1.73,6.17c0.26,1.99-0.44,4.3,1,5.98
		c0.07,1.27,0.12,2.55,0.22,3.84c2.01,2.33-0.23,5.82,1.77,8.18c0.28,1.98-0.47,4.35,1.05,5.99c0.38,2.63-0.84,5.76,1.01,7.99
		c0.42,2.96-0.89,6.43,0.99,9.01c0.11,3.27,0,6.55,0.15,9.82c0.21,0.42,0.65,1.25,0.87,1.67c0.23,4.61-0.13,9.24,0.1,13.86
		c0.22,0.41,0.66,1.23,0.88,1.64c0.12,14.28,0.12,28.56,0,42.83c-0.22,0.4-0.66,1.2-0.88,1.6c-0.22,4.79,0.05,9.6-0.12,14.4
		c-2.03,3.21-0.41,7.38-1,10.99c-1.88,2.59-0.55,6.04-0.99,9.01c-1.81,2.25-0.64,5.36-1.01,8c-1.51,1.64-0.78,3.99-1.06,5.99
		c-1.96,2.36,0.2,5.79-1.72,8.17c-0.26,1.67,0.2,3.62-1.05,5.01c-0.27,1.99,0.42,4.29-0.97,6c-0.25,1.67,0.23,3.62-1.02,5
		c-0.1,1.27-0.15,2.55-0.22,3.85c-1.02,1.1-0.85,2.65-1.12,4.02c-1.01,1.47-0.76,3.29-0.94,4.97c-0.87,1.17-0.81,2.66-1.07,4.03
		c-0.75,1.2-0.77,2.63-1,4c-0.75,1.2-0.77,2.63-1,4c-0.72,1.19-0.79,2.6-1.01,3.95c-0.4,1.01-0.77,2.04-1.1,3.09
		c-0.56,1.25-0.7,2.62-0.89,3.97c-0.42,0.98-0.79,1.99-1.13,3.01c-0.53,1.68-0.68,3.47-1.42,5.09c-0.1,0.47-0.31,1.41-0.41,1.88
		c-0.45,0.99-0.83,2-1.14,3.05c-0.36,0.98-0.68,1.99-0.97,3.01c-0.38,0.96-0.72,1.95-1.02,2.95c-0.37,0.99-0.7,1.99-0.99,3.01
		c-0.37,0.99-0.7,2.01-1,3.04c-0.37,0.99-0.7,1.99-0.98,3.02c-0.61,1.73-1.22,3.45-2.02,5.11c-0.38,0.94-0.7,1.9-0.98,2.88
		c-0.6,1.74-1.2,3.47-2.03,5.11c-0.37,0.96-0.69,1.94-0.94,2.94c-0.26,0.5-0.79,1.51-1.05,2.01c-0.5,1.24-0.89,2.52-1.39,3.77
		c-0.66,1.34-1.27,2.72-1.55,4.22c-0.85,1.62-1.67,3.26-2.5,4.89c-0.28,1-0.57,2-0.89,2.99c-1.28,2.36-2.45,4.78-3.72,7.15
		c-0.34,0.97-0.63,1.97-0.87,2.98c-0.51,0.93-1.01,1.88-1.49,2.83c-0.84,1.73-1.72,3.45-2.54,5.19c-0.83,1.6-1.64,3.2-2.47,4.81
		c-0.52,1.05-1.04,2.11-1.53,3.19c-0.85,1.59-1.65,3.21-2.41,4.85c-0.84,1.4-1.82,2.71-2.65,4.12c-0.79,1.62-1.57,3.25-2.34,4.89
		c-1.03,1.64-2.18,3.2-3.07,4.93c-0.9,2.23-2.33,4.16-3.55,6.22c-0.89,1.72-2.04,3.3-2.99,4.99c-2.04,3.83-4.8,7.21-7.01,10.93
		c-1.85,4.06-5.11,7.18-7.39,10.97c-5.06,8.03-11.16,15.33-16.68,23.04c-0.98,1.38-2.21,2.55-3.34,3.8c-1.41,3.05-4.58,4.8-6.1,7.82
		c-3.41,3.29-5.75,7.48-9.42,10.55c-4.25,6.03-10.02,10.75-15.08,16.08c-7.2,7.13-14.25,14.42-21.55,21.43
		c-3.8,2.03-6,5.99-9.7,8.15c-14.72,12.84-30.51,24.63-46.86,35.35c-3.8,2.13-7.14,5-11.01,7c-2.75,1.53-5.18,3.58-8,5.01
		c-5.03,2.92-9.96,6-15.18,8.58c-0.5,0.23-1.51,0.7-2.01,0.93c-1.72,0.93-3.33,2.05-5,3.05c-2.02,0.96-4.01,1.98-6.01,2.99
		c-2.28,1.13-4.56,2.25-6.79,3.46c-2.01,0.93-3.99,1.99-6.15,2.53c-1.62,0.82-3.25,1.63-4.87,2.45c-0.49,0.27-1.47,0.8-1.97,1.06
		c-1.38,0.53-2.75,1.07-4.16,1.48c-1.65,0.82-3.3,1.63-4.91,2.49c-1,0.26-1.97,0.56-2.92,0.9c-1.97,1.07-3.98,2.06-6.13,2.7
		c-1,0.32-2.01,0.63-3.02,0.93c-1.59,0.83-3.22,1.63-4.99,2c-1.61,0.82-3.25,1.62-5.02,2.01c-1.34,0.5-2.71,0.94-4,1.53
		c-0.48,0.09-1.43,0.28-1.91,0.37c-1.3,0.55-2.63,1-3.92,1.56c-2,0.86-4.13,1.32-6.22,1.92c-1.01,0.31-2,0.65-2.98,1.03
		c-1.01,0.29-2.01,0.62-2.99,0.98c-1.05,0.32-2.09,0.68-3.11,1.07c-0.44,0.12-1.34,0.36-1.79,0.48c-1.32,0.44-2.68,0.72-4.03,1.04
		c-1.01,0.36-2.03,0.71-3.04,1.05c-1.69,0.49-3.42,0.81-5.07,1.39c-1.36,0.25-2.73,0.45-3.99,1.01c-2.63,0.91-5.41,1.15-8.05,1.98
		c-1.37,0.28-2.79,0.4-4.01,1.11c-0.93,0.1-1.85,0.22-2.76,0.35c-1.53,0.91-3.34,0.8-5.02,1.05c-8.89,2.21-18.01,3.74-27.09,4.98
		c-50.78,8.1-102.89,7.31-153.54-1.45c-5.8-1.27-11.77-1.83-17.47-3.51c-1.68-0.24-3.4-0.32-4.99-0.94
		c-1.37-0.28-2.76-0.45-4.02-1.03c-1.35-0.26-2.74-0.39-3.98-1.01c-1.67-0.27-3.34-0.48-4.97-0.91c-1.02-0.35-2.03-0.71-3.03-1.09
		c-1.34-0.26-2.68-0.47-3.96-0.93c-1.35-0.34-2.71-0.64-4.02-1.08c-0.45-0.12-1.36-0.36-1.81-0.49c-2.69-0.91-5.49-1.46-8.15-2.46
		c-1.03-0.31-2.05-0.63-3.06-0.96c-1.04-0.33-2.05-0.71-3.03-1.13c-0.47-0.1-1.41-0.3-1.88-0.4c-2.02-0.83-4.2-1.14-6.18-2.04
		c-1.29-0.58-2.63-1.04-3.92-1.59c-0.45-0.09-1.35-0.27-1.8-0.36c-1-0.43-2.01-0.8-3.03-1.13c-1.78-0.63-3.55-1.24-5.27-1.99
		c-0.92-0.37-1.85-0.69-2.78-0.95c-0.54-0.26-1.6-0.78-2.14-1.04c-1.32-0.52-2.68-0.96-3.98-1.51c-0.46-0.08-1.37-0.24-1.83-0.33
		c-1.39-0.77-2.8-1.5-4.23-2.2c-2-0.64-4-1.34-5.8-2.43c-2.32-1.03-4.74-1.78-7-2.92c-1.34-0.69-2.68-1.37-3.99-2.1
		c-1.32-0.58-2.65-1.13-4.04-1.48c-0.52-0.25-1.56-0.75-2.08-0.99c-1.34-0.7-2.69-1.37-4.05-2.01c-1.99-1.04-4-2.04-6.02-3
		c-3.08-1.54-6.13-3.13-8.99-5.04c-2.02-0.99-4.01-2.03-6.07-2.93c-1.95-1.13-3.78-2.46-5.76-3.51c-2.23-0.87-4.16-2.28-6.16-3.53
		c-2.83-1.42-5.28-3.46-8.03-5c-4.14-2.16-7.67-5.3-11.84-7.41c-15.69-10.72-31.23-21.86-45.41-34.5c-3.16-1.75-5.24-4.76-7.98-7
		c-3.29-1.95-5.69-4.97-8.43-7.56c-9.28-9.38-18.77-18.58-27.92-28.08c-2.11-3.78-6.02-6.04-8.2-9.75
		c-6.97-8.07-13.86-16.25-19.95-25.04c-4.51-5.28-8.19-11.17-12.04-16.92c-1.79-2.24-3.56-4.51-4.92-7.03
		c-1.99-3.88-4.87-7.21-6.99-11c-0.89-1.74-2.04-3.32-3.01-5.01c-1.02-2.01-2.38-3.81-3.46-5.78c-0.87-2.25-2.27-4.2-3.59-6.18
		c-0.78-1.64-1.56-3.27-2.34-4.9c-1.29-1.99-2.64-3.95-3.62-6.11c-0.67-1.35-1.34-2.7-1.98-4.04c-0.49-0.94-0.98-1.87-1.47-2.8
		c-0.51-1.08-1.02-2.15-1.52-3.21c-0.49-0.93-0.98-1.86-1.47-2.79c-0.94-2.04-1.95-4.05-3-6.03c-0.32-1.48-0.91-2.86-1.5-4.22
		c-0.26-0.48-0.79-1.44-1.06-1.92c-0.67-1.35-1.36-2.69-2.04-4.03c-0.74-2.44-1.74-4.79-2.99-7c-0.6-1.71-1.2-3.41-1.96-5.04
		c-0.65-1.68-1.25-3.38-2.01-5c-0.64-1.7-1.22-3.41-2-5.04c-0.52-1.26-0.93-2.55-1.41-3.8c-0.29-0.99-0.62-1.95-0.99-2.89
		c-0.81-1.65-1.42-3.38-2-5.11c-0.3-1.03-0.62-2.03-0.98-3.02c-0.31-1.02-0.65-2.02-1.01-3c-0.31-1.02-0.64-2.02-1-3.01
		c-0.31-1.01-0.64-2.01-1-2.99c-0.31-1.02-0.64-2.02-1.01-3.01c-0.3-1.02-0.63-2.02-0.98-3c-0.32-1.03-0.68-2.04-1.07-3.03
		c-0.22-1.35-0.39-2.72-0.9-3.99c-0.35-1.02-0.72-2.02-1.12-3.01c-0.25-1.37-0.21-2.85-1.06-4.02c-0.09-0.47-0.28-1.41-0.37-1.88
		c-0.85-1.61-0.8-3.49-1.56-5.12c-0.25-1.36-0.28-2.79-1.02-3.99c-0.24-1.37-0.25-2.8-0.99-4c-0.26-1.38-0.21-2.86-1.07-4.03
		c-0.19-1.68,0.07-3.5-0.94-4.97c-0.27-1.37-0.15-2.89-1.1-4.02c-0.09-1.3-0.15-2.58-0.24-3.85c-1.26-1.38-0.79-3.33-1.04-5
		c-1.3-1.75-0.72-4-0.96-6c-1.25-1.39-0.8-3.33-1.04-5.01c-1.94-2.36,0.27-5.84-1.75-8.15c-0.28-2,0.48-4.38-1.03-6.01
		c-0.39-2.65,0.77-5.74-1-8.01c-0.45-2.97,0.84-6.4-0.99-9.01c-0.57-3.6,1-7.76-1.01-10.98c-0.19-4.94,0.05-9.89-0.14-14.83
		c-1.31-1.22-0.86-3.05-0.95-4.6c0.09-13.13-0.09-26.27,0.1-39.4c2.71-5.19-0.87-11.97,1.85-17.17c0.58-3.61-0.99-7.77,1-11
		c0.46-2.96-0.86-6.42,1-9c0.38-2.64-0.75-5.71,0.98-7.99c0.07-1.62,0.11-3.23,0.18-4.84c2.07-2.31-0.23-5.84,1.8-8.16
		c0.08-1.29,0.14-2.57,0.22-3.84c1.44-1.68,0.73-4.01,0.99-6c1.28-1.38,0.8-3.33,1.06-5.01c1.42-1.79,0.26-4.37,1.7-6.14
		c0.09-0.96,0.18-1.91,0.28-2.85c1.18-1.42,0.79-3.33,1.03-5.01c0.87-1.17,0.8-2.66,1.06-4.02c0.74-1.21,0.77-2.65,1.02-4
		c0.72-1.64,0.78-3.47,1.49-5.1c0.27-1.36,0.27-2.82,1.07-4.01c0.1-0.47,0.28-1.4,0.38-1.87c0.81-1.19,0.81-2.66,1.06-4.01
		c0.39-1.01,0.77-2.02,1.11-3.04c0.53-1.69,0.7-3.47,1.43-5.08c0.1-0.47,0.31-1.41,0.41-1.88c0.44-1,0.82-2.01,1.14-3.05
		c0.35-1,0.67-2,0.97-3.01c0.37-0.99,0.71-1.99,1.02-2.99c0.35-1,0.67-2.01,0.96-3.02c0.51-1.34,0.94-2.72,1.51-4.03
		c0.11-0.47,0.31-1.4,0.41-1.86c0.43-1.02,0.79-2.06,1.05-3.13c0.28-0.51,0.83-1.52,1.1-2.03c0.34-0.98,0.65-1.97,0.93-2.96
		c0.82-2.73,2.27-5.22,2.99-7.97c0.26-0.52,0.78-1.55,1.05-2.06c0.47-1.27,0.86-2.55,1.37-3.79c1.12-2.32,1.7-4.87,3.06-7.07
		c0.92-2.03,1.62-4.15,2.45-6.2c0.52-0.93,1.03-1.85,1.54-2.77c0.51-1.08,1.05-2.14,1.58-3.21c0.64-2.01,1.36-4,2.4-5.85
		c0.51-1.05,1.03-2.09,1.55-3.14c0.68-1.32,1.35-2.65,2.01-3.99c0.68-1.33,1.36-2.65,2.01-3.99c0.24-0.5,0.72-1.52,0.96-2.03
		c0.49-0.94,0.99-1.89,1.49-2.83c0.23-0.5,0.68-1.51,0.91-2.01c0.86-1.4,1.83-2.72,2.66-4.13c0.46-0.96,0.94-1.92,1.42-2.86
		c0.23-0.51,0.69-1.52,0.92-2.03c0.85-1.39,1.83-2.71,2.66-4.11c1.07-2.48,2.52-4.75,3.96-7.02c1.06-2,2.41-3.82,3.44-5.83
		c2.15-3.79,5.01-7.13,7-11c11.25-16.79,23.07-33.34,36.48-48.44c2.46-4.09,6.66-6.7,9.04-10.85
		c10.99-11.04,21.98-22.07,33.04-33.03c4.15-2.4,6.77-6.61,10.86-9.06c14.19-12.65,29.75-23.78,45.44-34.51
		c3.89-1.96,7.21-4.85,11-6.98c2.84-1.38,5.24-3.48,8.01-5.01c1.73-0.85,3.3-2.01,4.95-3.01c2.81-1.13,5.24-2.94,7.83-4.46
		c1.77-0.79,3.49-1.68,5.26-2.47c1.7-0.94,3.27-2.08,4.93-3.09c1.62-0.78,3.24-1.57,4.84-2.39c2.41-1.17,4.79-2.41,7.21-3.55
		c0.93-0.49,1.87-0.99,2.81-1.48c0.52-0.25,1.55-0.74,2.06-0.99c0.99-0.27,1.97-0.57,2.94-0.9c1.33-0.71,2.66-1.4,3.99-2.09
		c1.07-0.53,2.12-1.08,3.17-1.63c0.98-0.33,1.96-0.63,2.96-0.89c2.26-1.17,4.48-2.54,7.02-3c1.34-0.7,2.68-1.41,4.03-2.12
		c0.96-0.34,1.93-0.65,2.92-0.92c1.73-0.61,3.47-1.23,5.14-2.01c1.21-0.51,2.47-0.91,3.69-1.41c1.68-0.79,3.43-1.41,5.19-2
		c1-0.3,1.99-0.62,2.98-0.98c1-0.3,1.99-0.63,2.98-0.98c0.98-0.31,1.94-0.66,2.9-1.04c1.91-1.04,4.05-1.37,6.12-1.95
		c1-0.32,2-0.67,2.99-1.04c1.01-0.3,2.01-0.63,3-0.99c1.02-0.3,2.03-0.62,3.03-0.98c1.01-0.33,2.01-0.69,3-1.08
		c1.36-0.26,2.85-0.22,4.03-1.08c0.47-0.09,1.41-0.28,1.88-0.37c1.18-0.8,2.64-0.79,4-1.06c1.64-0.73,3.52-0.71,5.13-1.56
		c0.46-0.09,1.4-0.28,1.87-0.37c1.8-1.33,4.26-0.35,6.11-1.58c1.36-0.24,2.78-0.32,4.04-0.98c1.35-0.27,2.82-0.26,4.01-1.1
		c1.66-0.19,3.47,0.06,4.95-0.92c1.37-0.25,2.83-0.27,4.07-1.03c1.65-0.28,3.58,0.14,4.96-1.1c1.99-0.26,4.32,0.46,6-1
		c1.27-0.08,2.55-0.14,3.84-0.22c1.98-1.58,4.67-0.65,6.99-0.98c2.02-1.85,5.18,0.05,7.17-1.83c2.27-0.08,4.55-0.07,6.83-0.16
		c2.92-2.36,7.26,0.53,10.17-1.85c3.61-0.54,7.75,0.97,11-0.98C927.545,64.903,932.495,65.123,937.435,64.933 M834.605,103.243
		c-19.48,5.92-38.86,12.34-57.32,20.99c-15.96,6.92-31.54,14.75-46.45,23.73c-31.76,18.79-61.47,41.2-87.8,67.08
		c-50.47,49.34-88.99,110.68-111.89,177.43c-18.14,52.68-26.06,108.76-23.86,164.41c0.73,21.63,3.06,43.22,7.11,64.48
		c-0.2,0.29-0.6,0.86-0.81,1.15l1.07-0.38c6.55,37.71,18.72,74.37,34.88,109.03c3.39,8.13,8.07,15.63,11.8,23.61
		c13.21,24.44,28.97,47.42,46.07,69.29c0.04-3.98,1.77-7.55,4.24-10.58c2.9-0.32,5.82-0.22,8.66,0.48
		c-6.64,6.78-13.76,13.12-19.55,20.69c0.01,0.89,0.01,2.66,0.01,3.55c1.59-0.24,3.42,0.21,4.81-0.79
		c8.86-6.34,18.79-11.5,25.98-19.9c3.84-4.04,6.6-8.97,10.52-12.92l-0.85-0.59c1.12-0.12,2.24-0.23,3.36-0.34
		c-0.3-1.11-0.6-2.22-0.86-3.31l0.66,1.54c2.08-2.05,4.35-4.07,7.12-5.12c6-1,13.35-0.56,17.55-5.77c3.08-3.03,4.49-7.22,7.17-10.55
		c7.44-2.44,15.66-3.46,22.02-8.4c2.76-2.57,4.72-6.2,4.55-10.05c-0.19-2.36,1.63-4.08,2.7-5.97c-1.66-3.13-3.97-5.84-6.01-8.72
		c3.33-1.47,7.01-1.78,10.6-1.94c-0.03,1.44-0.07,2.9-0.1,4.36c3.08,1.11,6.39,0.69,9.42-0.39c2.95-1.48,4.36-4.66,6.13-7.25
		l-0.18,2.68l1.52-0.49c-0.22,0.82-0.67,2.45-0.89,3.27c0.39-0.61,1.18-1.83,1.57-2.44c1.09,1.58,2.17,3.18,3.18,4.83
		c1.35,0.77,2.66,1.63,3.88,2.63c1-0.01,3-0.04,4-0.05c0.56,1.58-1.22,2.28-2.11,3.24c-1.66,1.13-1.3,3.34-1.33,5.07
		c1.94-0.02,3.88-0.09,5.81-0.32c1-1.03,2.04-2.03,3.08-3.02c3.73,0.75,7.97,2.42,11.53,0.26c0.75-1.38,0.32-3.05,0.53-4.53
		c-2.71-0.04-5.42-0.13-8.12-0.33c-3.01-0.29-6.27,1.09-9.03-0.69l1.47-1.32c-2.28-0.85-4.49-1.85-6.47-3.28
		c1.47-0.82,3.09-1.04,4.75-0.93c-0.49-1.25-0.97-2.49-1.43-3.73c-2.04-0.91-3.9-2.15-5.79-3.31c-2.06,1.1-4.17,2.76-6.66,1.95
		c0.59-0.78,1.76-2.32,2.34-3.09c3.03,0.44,5.88,1.55,8.69,2.72c8.5,3.32,16.22,8.2,24.03,12.84c1.5,0.99,3.39,0.43,5.08,0.53
		c0.42-0.33,1.28-1,1.71-1.34c0.1-2.78,0.11-5.57-0.04-8.35c-4.19,0.3-7.86-1.91-11.34-3.93c0.93-4.56,4.31-8.18,8.52-9.98
		c4.67-2.59,10.15-2.13,15.29-2.21c2.21-1.59,3.77-3.93,3.38-6.75c-0.37-4.35,0.82-10.04,5.87-10.95c1.22,1.35,2.41,2.73,3.57,4.15
		c-2.62,1.8-5.82,4.04-5.43,7.69c-0.46,4.7,3.62,8.08,3.74,12.67c-2.37,0.53-4.78,0.96-7.21,0.7c-5.04-2.66-11.82,0.88-12.67,6.45
		c0.33,3.74,3.36,8.14,7.65,7.02c1.03-2.91,2.27-6.23,5.21-7.68c3.33-0.08,6.33,2.71,9.7,1.49c0.91-0.59,1.55-1.51,2.29-2.28
		c5.02,0.62,9.75,3.39,14.93,2.43c3.3-0.21,8.1-2.01,6.6-6.22c-4.21-2.1-9.07-0.88-13.45-2.22c-2.87-0.87-3.62-4.17-2.86-6.74
		c0.39,0.03,1.16,0.11,1.55,0.14c1.71,1.21,3.84,3.25,6.09,2.12c5.63-2.3,11.2-4.75,16.99-6.63c3.24-3.46,8.23-4.62,11.45-8.2
		c-1.11-2.74-3.37-4.93-6.52-4.66c-0.37,0.46-1.11,1.38-1.47,1.85c-0.01-0.49-0.01-1.45-0.01-1.93c2.84-1.77,5.9-3.18,8.65-5.09
		c0.95,1.37,1.9,2.76,2.82,4.17c-2.09,2.26-4.05,5.36-2.78,8.55c0.6,1.7,1.31,4.6,3.72,3.97c3.92-1.47,6.8-4.88,10.89-6
		c1.18,1.45,1.96,3.79,4.13,3.98c2.11,0.52,3.45-2.69,5.59-1.51c1.95,0.96,3.59,2.45,5.52,3.46c2.11,0.71,3.75-1.14,5.35-2.14
		c2.43,2.92,4.63,6.03,7.51,8.55c3.3,3.03,5.19,7.77,9.58,9.44c3.42,1.67,7.42,1.18,11.1,0.96c1.98-1.91,4.05-4.19,3.97-7.13
		c-1.83-3.65-4.89-6.49-7.71-9.36c-4.58-4.44-9.67-8.74-15.93-10.5c-1.51,0.58-2.99,1.22-4.32,2.15c-1.53-1.57-3.03-3.17-4.37-4.89
		c2.57-2.02,5.44-3.94,8.75-4.4c3,0.38,5.81,1.72,8.48,3.08c3.51,1.7,4.28,5.84,6.1,8.93c3.76,1.44,7.83,1.23,11.79,1.49
		c-2.5,1.31-4.8,2.97-6.67,5.09c1.39,3.37,5.95,4.88,8.93,2.63c1.02,0.71,2.11,1.37,3.01,2.28c-0.11,3.79-3.86,6.82-3.1,10.62
		c2.72,2.37,7.14,1.93,10.13,0.04c1.71-3.29,3.46-6.56,5.29-9.78c4.59,1.02,10.97,1.17,12.75,6.49c2.08,2.18,4.92,3.34,7.68,4.43
		c1.23-1.07,2.43-2.18,3.58-3.33c1.26,3.22,3.32,6.03,5.77,8.45c3.85-0.02,7.71-0.01,11.57-0.04c0-0.95,0-2.85,0-3.8
		c2.89,1.96,6.07,4.12,9.74,3.85c3.37,0.18,6.63-1.51,10-0.8c11.62,1.78,23.28,3.32,34.96,4.68c3.79,0.11,8.86,0.91,11.27-2.82
		c1.28-2.89-2.03-4.76-4.12-5.95c-7.42-4.39-16.3-1.06-24.29-2.79c-6.32-1.65-12.86-2.48-19-4.78c-4.69-1.6-8.96,2.28-13.62,1.08
		l0.62,1.42c-3.37-1.03-6.3-3.02-9.2-4.95c2.28,0.03,4.55,0.4,6.81,0.74c-1.93-2.05-4.55-1.46-6.95-0.79
		c-3.28-1.39-6.96-2.51-10.26-0.47c0.08-1.56,0.18-3.12,0.27-4.66c-12.84,1.32-25.74-1.83-37.96-5.51
		c3.24-1.51,6.93-0.64,10.39-1.09c6.89-0.63,13.45,1.87,19.97,3.63c2.34-1.28,4.38-3.04,6.69-4.38c1.55,1.78,3.52,3.11,5.54,4.3
		c2.27,1.69,5.22,1.52,7.9,1.38c3.26-0.4,6.69-0.21,9.72-1.7c-0.16-1.21,0.55-2.78-0.53-3.66c-2.32-2.93-6.29-2.94-9.35-4.64
		c-3.46-1.72-6.91-3.47-10.35-5.21c1.08-2.15,0.76-4.47-1.19-5.95c5.89-2.48,10.91-6.62,14.41-11.95
		c5.17-1.23,10.66-0.39,15.26,2.28c-0.72,1.57-1.74,3.04-2.08,4.76c1.33,3.61,4.42,6.04,7.04,8.69c2.11,0.07,4.33,0.43,6.36-0.32
		c2.75-1.31,4.6-3.84,6.36-6.23c-3.04-1.8-1.74-5.2,0.4-7.14c-1.15-2.56-0.58-6.2-3.4-7.68c-3.93-2.18-8.49-0.07-12.6,0.33
		c0.17-0.92,0.51-2.77,0.68-3.69c2.86-2.33,6.91-2.26,10.4-2.88c0.11,0.56,0.33,1.67,0.44,2.23c4.75,3.36,10.26-0.1,15.22-1.05
		c1.78-1.23,3.63-2.37,5.25-3.8c1.63,0.47,3.27,0.98,4.92,1.44c-1.97,2.2-4.51,3.86-7.47,4.26c-4.79,1.13-11.43,1.6-12.97,7.33
		c0.46,1.05,0.92,2.11,1.25,3.24c1.56,1.03,3.06,2.58,5.1,2.47c5.48-0.08,10.84-1.72,15.91-3.72c4.65,2.85,4.71,8.94,7.84,12.97
		c3.53,1.87,10.02,2.71,11.31-2.23c-2.24-3.11-4.91-5.96-6.53-9.46c7.21-2.41,14.97-1.63,22.44-1.34c2.33,2.81,3.71,6.24,6,9.08
		c4.09,1.21,8.3,0.33,12.4-0.38c-0.01-0.78-0.05-2.36-0.06-3.15c-1.07-2-2.07-4.03-2.83-6.15c3.63-0.05,9.09-1.02,8.48-5.87
		c-2.62-3.74-7.9-3.31-10.54-6.92c10.9-6.07,23.36-8.31,35.69-8.79l-0.71,1.16c1.16,0.06,2.32,0.13,3.49,0.21l-0.79-1.2
		c6.82-0.78,13.7-0.52,20.53-1.07c3.54,0.02,5.73-3.11,8.53-4.79c6.7-3.28,14.31-2.37,21.49-3.41c0.22-1.7,0.46-3.4,0.72-5.08
		c5.02,0.3,9.68,2.35,14.6,3.21c8.46,2.01,17.88,2.65,25.7-1.83c0.53-1.19,0.15-2.47,0.03-3.67c-2.8-0.46-5.61-0.88-8.36-1.53
		c0.51-0.81,1.01-1.63,1.54-2.42c6.41-0.1,13.63,1.07,18.92-3.46c1.65-3.84-0.63-7.54-3.14-10.32c1.77-1.67,4.09-2.92,5.29-5.11
		c1.26-4.82-0.4-9.72-0.62-14.56l-0.95,0.1c0.06-0.35,0.19-1.03,0.26-1.38c-0.75-1.18-1.46-2.38-2.11-3.59
		c0.48-1.05,1.15-2.04,1.32-3.2c-0.63,0.45-1.22,0.94-1.8,1.45c-0.32-2.39-0.58-4.81,0.42-7.06c3.39,0.35,6.79,0.67,10.18,1.08
		c-1.67,4.4-3.78,8.64-5.1,13.17c-0.96,3.02,0.7,5.96,1.72,8.73c1.43,3.38,2.4,6.93,3.25,10.5c1.39,0.45,2.77,0.95,4.17,1.43
		l-0.31,0.69c5.3,0.48,11.64,1.77,14.66,6.62c-7.75,4.82-16.02-1.66-24.05-1.49c-2.33,3.72-1.86,8-1.06,12.08
		c4.7-0.61,9.41-1.61,14.17-1.16c6.14,0.07,11.87,2.56,17.95,3.15c-1.39,0.65-2.77,1.3-4.16,1.94c-1.32-0.57-1.75-3.04-3.81-2.2
		c-6.78,0.23-13.65,1.81-19.96,4.34c0.41,2.68,2.79,3.66,5.04,4.46c-0.88,1.43-1.87,2.78-2.84,4.16c3.75,3.03,8.19,0.25,11.92-1.27
		c0.53-1.25,1.84-2.41,1.67-0.15c2.3-1.07,4.46-2.7,7.03-3.13c4.07-0.96,8.5,0.66,12.4-1.24c3.74-3.3,3.8-8.78,6.21-12.9
		c1.9-3.82,6.45-5.5,10.52-5.33c4.37-0.29,9.02,0.78,13.19-0.93c5.08-3.66,7.64-9.63,10.72-14.87c2.76,0.24,4.61,3.41,7.07,4.73
		c2.46,2.17,6.1,2.88,8.97,1.07c6.08-3.41,12.52-6.5,17.76-11.17c-0.54-1.19-1.11-2.36-1.7-3.5c-2.72-0.28-5.44-0.39-8.16-0.57
		c4.97-0.62,8.99-4.95,9.28-9.92c5.61,3.7,8.64,9.95,11.41,15.84c1.92-0.01,3.85-0.03,5.79-0.05c0.53-2.9,1.13-5.96,3.14-8.24
		c3.49-3.91,8.74-5.4,13.64-6.69c6.53-2.56,11.92-8.99,19.47-8.3c3.01,2.98,3.86,7.38,5.63,11.12c1.81,3.65,1.98,8.04,4.72,11.22
		c2.11,2.89,4.56,6,8.2,6.95c3.35,1.03,6.86-0.03,9.76-1.8c-0.06-1.89-0.4-3.73-1.52-5.28c-2.2-0.53-4.48-0.79-6.58-1.6
		c-2.46-1.36-2.83-4.61-2.47-7.11c1.16-2.56,2.85-4.94,3.27-7.78c0.71,1.15,1.82,1.99,2.82,2.9c2.51-14.84,4.06-29.84,4.89-44.86
		l1.5,0.23c-0.35-0.06-1.05-0.19-1.41-0.25c2.56-46.37-1.47-93.14-12.89-138.19c-15.29-60.26-42.99-117.41-81.16-166.51
		c-11.5-15.62-24.86-29.73-38.34-43.65c-35.52-35.46-77.1-64.85-122.17-86.9c-18.17-8.53-36.57-16.73-55.79-22.58
		c-19.24-6.61-39.04-11.49-59.01-15.29c-27-5.02-54.49-7.74-81.98-7.25C917.665,85.143,875.335,91.723,834.605,103.243
		 M1360.175,615.903c-0.09,1.76-0.13,3.54-0.15,5.33c6.64-0.1,14.16,0.95,19.73-3.46c1.2-2.56,0.93-7.04-2.73-7.17
		C1371.215,611.653,1365.865,614.363,1360.175,615.903 M1358.765,631.853c0,1.45,0,2.91,0.01,4.38c1.98-0.01,3.98,0.01,5.99,0.06
		c1.51-2.47,3.8-5.25,1.89-8.18C1363.505,627.973,1361.215,630.263,1358.765,631.853 M1325.265,632.542
		c-2.97,1.43-5.8,3.11-8.58,4.88c0.02,1.07,0.04,2.15,0.07,3.23c4.47,0.9,8.79-0.64,12.83-2.4
		C1329.595,635.523,1327.555,633.633,1325.265,632.542 M1168.245,660.733c0.02,1.71,0.05,3.43,0.09,5.15
		c3.32-0.17,6.65-0.26,9.98-0.05c-0.74,5.33-5.99,8.76-6.02,14.27c1.01,6.03,4.84,11.05,8.84,15.48c1.11,0.07,2.22,0.13,3.36,0.2
		c3.38-6.61,6.35-13.53,8.03-20.78c-0.14-3.6-1.36-7.28-3.48-10.2c-2.71-1.99-6.8-1.79-9.12,0.75c-0.93-1.72-1.84-3.43-2.7-5.16
		C1174.215,660.083,1171.225,660.453,1168.245,660.733 M1194.815,667.713c-0.25,1.18-0.51,2.36-0.76,3.55
		c4.07,2.15,8.52,3.4,12.87,4.88c4.67,1.61,10.4,0.36,13.63-3.5c0.08-3.59-3.81-4.12-6.48-4.63
		C1207.725,667.032,1201.125,665.993,1194.815,667.713 M1164.235,673.613c3.08,0.23,6.16,0.29,9.26,0.26
		c0.01-0.86,0.03-2.58,0.05-3.44c-3.08,0.01-6.15,0.01-9.21,0C1164.295,671.483,1164.265,672.542,1164.235,673.613
		 M1116.825,683.052c-0.09,1.53,0.25,3.06,0.46,4.59c6.1-0.09,12.37,0.7,18.27-1.3c-0.01-1.01-0.01-2.01,0-3
		c-4.92-0.93-9.77-2.34-14.74-2.96C1119.195,680.703,1117.685,681.623,1116.825,683.052 M1156.745,681.733c0,1.3,0,2.61,0.01,3.93
		c3.38,0.86,6.98,1.14,10.39,0.24c1.02-0.21,3.34-1.5,2.16-2.69C1165.915,680.182,1160.775,679.682,1156.745,681.733
		 M1097.765,687.683c-0.03,0.96-0.06,1.93-0.08,2.91c4.43,0.16,8.87,0.09,13.3,0.05c0.02-1.4,0.04-2.8,0.07-4.19
		C1106.625,686.763,1101.855,685.473,1097.765,687.683 M965.676,695.523c-0.05,0.91-0.15,2.74-0.2,3.65c2.95,2.12,5.53,6,9.74,4.57
		c4.29-0.08,4.97-5.64,2.29-8.18C973.635,694.393,969.505,693.922,965.676,695.523 M1000.605,708.193c3.19,0.52,5.56,2.63,7.48,5.09
		c1.98,0.1,3.97,0.13,5.96,0.15c0.88-1.32,1.57-2.74,1.78-4.33c-2.78-2.76-5.2-6.35-9.02-7.69
		C1002.885,700.782,1000.346,704.653,1000.605,708.193 M980.396,707.552c0.18,1.27,0.39,2.55,0.64,3.83
		c1.82,0.01,3.65,0.03,5.48,0.02c0.34-1.25,0.68-2.5,1.02-3.74C985.155,707.413,982.775,707.403,980.396,707.552 M989.326,709.463
		c-0.02,2.08,0.04,4.15,0.08,6.25c0.24-0.25,0.7-0.75,0.94-1c3.28,2.89,7.76,1.79,11.73,1.92c-0.1-1.26-0.19-2.51-0.28-3.74
		C997.595,711.883,993.565,710.282,989.326,709.463 M1010.995,717.073c0.27,1.06,0.55,2.13,0.84,3.21c3.6,1.05,6.73,3.19,10.25,4.42
		c2.63,0.34,5.28,0.08,7.92,0c0.09-2.03-0.91-3.35-2.63-4.18c0.16-1.36,0.88-2.56,1.33-3.82c-2.62-0.2-5.19-0.75-7.62-1.72
		C1017.585,713.172,1014.325,716.282,1010.995,717.073 M831.445,728.603c2.87,3.07,7.15,4.1,11.24,3.81
		c-0.03-1.35,0.2-2.73-0.18-4.03c-1.87-2.07-4.75-2.87-7.42-3.2C833.095,724.633,830.835,726.523,831.445,728.603 M863.655,727.433
		c0.05,0.91,0.15,2.74,0.2,3.65c4.16,1.17,8.41,2.82,12.71,1.16c-0.02-0.98-0.03-1.96-0.03-2.92c-2.52-1.32-4.94-2.99-7.74-3.64
		C866.875,725.282,865.245,726.583,863.655,727.433 M857.465,728.343c-0.79,3.03-2.62,5.63-3.64,8.58c-0.36,2.14,0.32,4.28,0.69,6.4
		c5.22,2.22,11.17,1.43,16.45-0.19c2.09-0.54,3.39-2.36,4.01-4.32c-1.3-1-3.3-1.46-3.74-3.21c-3.85-0.87-7.27-3.65-9.15-7.09
		C860.535,728.443,858.995,728.393,857.465,728.343 M712.045,756.153c0.1,1.06,0.22,2.13,0.35,3.21c5.73,0.1,11.96,0.46,17.07-2.62
		c1.69-2.22,0.8-6.31-2.35-6.45C721.235,748.893,716.645,753.363,712.045,756.153 M1108.985,805.713c0.05,3.02,0.04,6.05,0.04,9.09
		c3.16,0.02,6.33,0.02,9.5-0.02c-0.03-3.05-0.03-6.09-0.01-9.13C1115.335,805.603,1112.156,805.583,1108.985,805.713
		 M1272.505,805.643c0.01,3.04,0.01,6.09,0.01,9.14c3.15,0.02,6.31,0.01,9.48,0.03c0.01-3.05,0.02-6.09,0.06-9.13
		C1278.865,805.583,1275.685,805.603,1272.505,805.643 M819.215,818.073c-6.67,1.78-11.16,9.53-8.52,16.11
		c2.05,5.52,8.11,7.74,13.36,9.08c3.83,1.29,9.27,1.3,11.21,5.52c1.06,4.47-4.9,6.41-8.3,5.23c-3.6-0.58-5.03-4.19-5.8-7.3
		c-4.38,0.29-8.75,0.76-13.14,0.94c0.93,4.07,2.04,8.49,5.45,11.26c4.77,4.25,11.6,4.26,17.62,4.21c6.42,0,13.07-2.96,16.31-8.71
		c2.88-5.56,1.53-13.27-3.77-16.91c-5.49-3.39-12-4.28-18.1-5.97c-1.82-0.35-2.57-2.06-3.04-3.62c0.63-0.78,1.26-1.55,1.9-2.31
		c2.28-0.34,4.74-0.97,6.86,0.34c2.09,0.75,2.49,3.14,3.39,4.9c4.28-0.08,8.55-0.44,12.83-0.55c-0.42-4.65-2.9-9.32-7.26-11.31
		C833.665,816.043,826.035,816.263,819.215,818.073 M1226.445,822.552c-3.16,4.28-3.66,10.78,0.15,14.86
		c5.14,5.84,13.64,5.54,20.27,8.57c2.99,1.31,2.83,4.84,1.12,7.14c-2.89,1.19-6.34,1.88-9.17,0.15c-2.42-1.31-2.9-4.2-3.65-6.58
		c-4.38,0.36-8.75,0.79-13.13,1.01c0.67,5.83,3.81,11.73,9.57,13.87c6.84,2.27,14.3,1.79,21.29,0.43c-0.14-0.51-0.42-1.52-0.56-2.03
		c0.21,0.42,0.62,1.25,0.82,1.66c3.84-1.71,7.12-4.72,8.83-8.59c1.61-4.93,1.02-11.21-3.34-14.58c-6.22-5.38-15.13-4.74-22.15-8.39
		c0.51-1.7,0.37-4.26,2.62-4.53c4.2-1.72,8.58,1.14,9.58,5.33c4.25-0.15,8.5-0.43,12.75-0.6c-0.34-4.43-2.66-8.69-6.54-10.96
		c-5.85-2.99-12.67-2.91-19.01-1.96C1232.275,817.913,1228.825,819.753,1226.445,822.552 M661.095,817.613
		c-0.15,14.89-0.04,29.79-0.06,44.68c4.66,0.07,9.33,0.04,14,0.05c0.21-3.7-0.51-7.56,0.38-11.15c2.11-2.53,4.51-4.79,6.71-7.23
		c3.07,6.14,6.4,12.16,9.33,18.37c5.79,0.04,11.57-0.05,17.36,0.06c-2.23-3.53-4.3-7.16-6.51-10.7c-2.09-3.4-5.81-5.82-6.82-9.84
		c-0.6-2.81-2.53-5.03-3.84-7.52c5.52-5.5,10.94-11.1,16.4-16.66c-6.22-0.1-12.44-0.07-18.66-0.03
		c-4.59,5.82-9.57,11.31-14.36,16.96c0.03-5.67,0.02-11.33-0.01-16.99C670.375,817.613,665.735,817.593,661.095,817.613
		 M725.565,817.623c-5.55,14.9-11.16,29.77-16.62,44.7c4.64,0.03,9.29,0,13.94,0.04c0.81-2.55,1.58-5.12,2.43-7.65
		c5.14,0.16,10.29,0.12,15.43,0.02c0.83,2.51,1.6,5.03,2.37,7.56c4.82,0.1,9.63,0.03,14.45,0.05c-5.31-15-11.32-29.74-16.6-44.75
		C735.835,817.613,730.695,817.603,725.565,817.623 M762.075,817.583c-0.15,14.91-0.01,29.82-0.07,44.73
		c4.66,0.03,9.33,0.08,14-0.02c0.02-6.18,0.08-12.36-0.03-18.53c1.84,0.41,3.61,1.07,5.33,1.85c3.24,5.49,6.2,11.14,9.29,16.72
		c5.11,0.02,10.22,0.01,15.33,0c-2-4.62-4.15-9.19-6.71-13.52c-1.63-2.76-4.06-5.04-7.16-5.99c2.09-0.75,4.3-1.44,6-2.95
		c5.23-4.15,6.05-12.66,1.89-17.83c-2.68-3.1-6.99-4.15-10.92-4.41C780.045,817.552,771.055,817.672,762.075,817.583
		 M876.745,817.623c0.06,14.89,0.03,29.79,0.02,44.69c11.07-0.34,22.3,1.03,33.24-1.16c7.96-1.83,10.73-12.93,5.78-18.94
		c-1.88-1.81-4.35-2.79-6.69-3.8c5.92-1.6,8.65-8.48,6.27-13.93c-1.61-4.6-6.82-6.72-11.34-6.86
		C894.925,817.583,885.835,817.623,876.745,817.623 M925.325,862.343c12.56-0.01,25.13,0.01,37.7,0c0-3.42,0-6.83,0-10.24
		c-7.93-0.02-15.87,0.04-23.8-0.02c0.06-2.92,0.06-5.83,0.03-8.74c7.17,0,14.35,0,21.52,0.02c-0.01-3.08,0-6.16-0.02-9.24
		c-7.17-0.03-14.34,0-21.5,0c0.02-2.35,0.03-4.69-0.02-7.03c7.77,0.04,15.55,0.01,23.32,0.01c-0.05-3.16-0.06-6.32,0-9.48
		c-12.41-0.02-24.82-0.01-37.23-0.01C925.245,832.523,925.255,847.432,925.325,862.343 M970.535,862.333
		c11.83-0.01,23.66,0.06,35.48-0.03c0.01-3.66,0.02-7.31-0.03-10.96c-7.22,0.02-14.45-0.04-21.67,0.04
		c-0.06-11.25-0.03-22.5-0.02-33.75c-4.58-0.04-9.15-0.01-13.73-0.03C970.455,832.513,970.526,847.423,970.535,862.333
		 M1012.275,862.312c12.57,0.04,25.15,0.07,37.73-0.02c0.03-3.39,0.03-6.77-0.01-10.15c-7.89-0.08-15.79-0.06-23.68,0
		c-0.06-2.92-0.07-5.85-0.05-8.76c7.16-0.07,14.32-0.06,21.48,0c0.03-3.08,0.02-6.16-0.01-9.23c-7.13-0.02-14.27-0.11-21.4,0.04
		c-0.08-2.37-0.09-4.72-0.01-7.07c7.65,0,15.3-0.06,22.95,0.03c-0.01-3.18-0.01-6.36,0.03-9.53c-12.32-0.03-24.65,0.01-36.98-0.02
		C1012.195,832.503,1012.296,847.403,1012.275,862.312 M1057.745,817.603c0.07,14.9,0.02,29.81,0.02,44.71
		c10.73-0.58,21.94,1.75,32.22-2.22c2.96-2.51,6.15-5.11,7.46-8.91c1.93-5.52,1.86-11.52,1.26-17.27
		c-1.01-7.97-7.34-15.42-15.64-16.03C1074.635,817.312,1066.176,817.753,1057.745,817.603 M1106.805,817.623
		c-0.06,14.9-0.03,29.81-0.02,44.71c4.66,0.01,9.32,0.01,13.99-0.02c-0.04-14.92,0.05-29.83-0.05-44.75
		C1116.075,817.623,1111.435,817.623,1106.805,817.623 M1126.255,817.643c5.45,8.27,11.14,16.39,16.51,24.71
		c0.54,0.75,0.8,1.6,0.78,2.54c0.03,5.81-0.02,11.62-0.01,17.44c4.67,0.02,9.33,0,14.01,0.01c0.16-6.24-0.36-12.57,0.23-18.75
		c5.57-8.72,11.43-17.28,17.08-25.96c-5.07-0.07-10.13,0.04-15.2-0.08c-3,5.09-6.16,10.1-9,15.28c-2.79-5.13-6.04-10-8.75-15.17
		C1136.685,817.543,1131.465,817.613,1126.255,817.643 M1179.245,817.633c0.06,14.91,0.03,29.82,0.01,44.73
		c12.6-0.08,25.19,0.05,37.79-0.07c-0.03-3.4,0-6.79-0.07-10.17c-7.98-0.03-15.95-0.04-23.92,0.01c-0.06-2.92-0.05-5.82,0.02-8.72
		c7.14-0.13,14.29-0.06,21.43-0.04c0-3.08,0.01-6.16,0.03-9.23c-7.19-0.04-14.38-0.04-21.56-0.01c0.04-2.36,0.07-4.71,0.12-7.05
		c7.73,0.04,15.47,0.05,23.21,0.01c-0.04-3.16-0.03-6.31-0.01-9.46C1203.945,817.593,1191.595,817.603,1179.245,817.633
		 M1270.275,862.302c4.58,0.06,9.15,0.06,13.74-0.01c0.02-14.9,0.08-29.8-0.04-44.69c-4.54-0.02-9.08,0.06-13.61-0.05
		C1270.145,832.463,1270.325,847.383,1270.275,862.302 M719.375,167.463c3.76-2.33,8.17-4.84,12.76-3.77
		c3.31,1.29,3.26,5.43,4.41,8.27c11.36,35.81,23.3,71.44,34.86,107.18c21.42,65.94,43.03,131.81,64.45,197.75
		c2.34,7.36,5.19,14.55,7.1,22.05c2.32,8.28,7.05,16.26,6.19,25.13c-0.12,2.76-1.54,5.16-3,7.42c-2.78,0-7.05,1.3-7.97-2.37
		c-28.17-86.73-56.34-173.48-84.47-260.23c-10.16-31.71-20.74-63.29-30.75-95.05C722.145,171.523,720.725,169.493,719.375,167.463
		 M790.025,180.363c17.07-2.05,34.68-0.17,50.83,5.77c3.23,0.83,4.54,4.39,7.58,5.56c9,4.03,18.94,5.05,28.66,5.85
		c9.29,1.07,18.69,1.27,28.04,0.97c14.54-2.41,29.64-2.38,43.96,1.4c8.17,2.18,16.44,4.74,23.38,9.73
		c18.91,11.28,38.24,23.72,60.52,26.69c8.71,0.05,17.3-2.54,26.03-1.69c7.73,0.75,16.18,1.77,22.13,7.26
		c3.78,3.11,4.38,8.28,6.28,12.52c3.43,10.06,10,19.22,19.13,24.84c3.99,2.15,8.34,3.5,12.55,5.16c7.85,1.75,15.37-2.04,22.89-3.55
		c8.58,0.18,15.17,6.69,19.94,13.17c1.9,2.95,4.32,5.67,5.5,9.02c1.2,11.26,0.56,22.66,2.22,33.87c0.48,6.98,1.15,13.97,0.74,20.97
		c-0.31,4.88,0.46,9.82,2.55,14.27c2.27,5.69,7.37,9.79,9.11,15.75c4.34,13.26,5.68,27.3,5.59,41.19c-0.04,1.33-0.51,2.61-0.87,3.88
		c0.89,9.99,5.69,19.03,10.74,27.48c10.43,13.55,23.7,25.12,39.16,32.57c-0.09,0.65-0.16,1.3-0.22,1.97
		c-3.38,0.41-6.41,1.98-9.55,3.16c-16.62,5.9-35.25,5.49-51.89-0.18c-4.74-1.71-9.74-3.12-13.92-6.03
		c-6.41-5.59-12.14-12.1-19.54-16.45c-3.74-2.35-7.93-4.72-12.52-3.94c-21.98,1.83-43.68,5.95-65.46,9.3
		c-4.75,0.64-9.46,2.32-14.28,1.88c-3.14-1.06-5.9-2.99-9.07-3.96c-8.74-2.96-18.16-2.68-27.24-1.94
		c-4.92,0.36-9.32,2.74-14.01,4.04c-19.59,6.38-40.69,8.66-61.11,5.59c-3.36-0.28-5.76-2.9-8.44-4.63
		c-16.67-11.06-35.58-19.01-55.47-21.78c-14.12-1.82-28.57-0.99-42.36,2.62c-2.03-7.8,0.25-15.77-0.11-23.67
		c0.46-12.68,0.24-25.37-0.15-38.05c-1.84-25.36-4.86-50.69-10.79-75.45c-5.71-21.04-15-40.87-24.97-60.19
		c-6.34-11.13-12.36-22.52-20.09-32.78c-4.02-6.84-8.81-13.17-13.64-19.44c-5.57-6.74-10.7-13.85-16.72-20.2
		c3.29-1.44,6.54-3.01,9.91-4.26C766.465,185.003,777.955,181.043,790.025,180.363 M750.215,193.922
		c9.97,12.37,20.45,24.46,28.6,38.16c6.06,8.28,11.28,17.12,16.22,26.1c15.32,28.06,28.79,57.84,33.06,89.79
		c2.79,13.22,3.89,26.7,5.17,40.13c1.98,18.54,1.5,37.22,1.16,55.83c-0.23,4.99-0.92,9.97-0.52,14.97
		c5.74-0.69,11.33-2.48,17.15-2.46c6-0.08,12.02-0.22,18.03,0.01c20.91,2.1,41.03,9.79,58.83,20.82c3.95,2.26,7.24,6.2,12.06,6.48
		c18.77,2.7,37.96,0.29,56.1-4.9c5.93-1.77,11.58-4.84,17.87-5.11c9.88-0.61,20.26-0.87,29.54,3.13c3.07,1.26,6.04,3.6,9.57,2.8
		c18.68-3,37.32-6.45,56.12-8.72c7.92-0.97,15.85-2.6,23.85-2.31c7.35,1.63,13.69,6.21,19.24,11.14
		c5.21,4.14,9.12,10.08,15.59,12.47c17.58,7.55,37.9,9.6,56.28,3.73c1.93-0.8,4.9-0.62,5.92-2.78
		c-11.67-7.4-22.88-15.85-31.54-26.74c-4.63-5.1-7.5-11.42-10.46-17.55c-4.06-8.7-4.57-18.47-4.66-27.91
		c-0.47-5.73,1.09-11.49-0.26-17.15c-1.83-7.82-3.07-16.23-8.18-22.71c-4.94-6.2-7.66-14.14-7.36-22.08c0.39-8.44,0-16.92-1.1-25.29
		c-1.27-9.81-0.43-19.79-1.8-29.58c-2.27-4.7-5.25-9.15-8.83-12.96c-3.84-3.57-8.25-7.93-13.94-7.38
		c-7.76,2.09-15.83,5.02-23.96,3.37c-5.99-2.54-12.44-4.44-17.51-8.65c-10.18-8.14-15.48-20.58-19.21-32.72
		c-7.47-7.77-19.08-8.73-29.25-8.41c-7.4-0.28-14.65,2.72-22.03,1.31c-15.1-2.17-28.83-9.36-42.05-16.61
		c-8.32-4.5-16.07-9.95-24.4-14.42c-18.01-7.65-38.25-10.12-57.51-6.46c-11.02,0.6-22.06-0.26-33.04-1.32
		c-7.99-0.6-15.98-1.9-23.55-4.58c-2.92-1.17-5.99-2.64-7.47-5.59C812.625,177.513,778.745,181.303,750.215,193.922
		 M727.585,404.813c3.52-1.07,7.08-2.37,10.83-2.07c0.28,0.4,0.84,1.19,1.12,1.59c4.48,0.5,9.69-1.39,13.57,1.54
		c3.21,2.23,7.34,2.16,10.65,4.17c9.82,5.25,14.79,16.1,17.82,26.29c0.73,10.53-0.61,21.17,0.91,31.66
		c0.84,7.16-1.5,14.07-4.01,20.66c-2.28,4.51-4.54,9.47-9.02,12.22c-0.9,7.11-2.9,14.33-7.13,20.19
		c-8.58,8.8-19.08,15.42-29.11,22.42c-4.54,3.52-10.45,4.51-16.06,4.42c-2.81-2.36-6.65-4.8-6.81-8.85
		c-0.23-1.04,1.05-1.09,1.61-1.59c1.15,2.41,2.7,4.59,4.73,6.35c0.1-2.6,0.09-5.2-0.01-7.78c-4.06-1.22-7.78-3.27-11.14-5.82
		c-0.03-0.35-0.11-1.07-0.14-1.42c2.46-0.25,4.75-1.09,6.82-2.44c4.3,1.04,8.52-0.09,12.32-2.17c-0.14-2.18,0.46-4.8-1.25-6.52
		c-1.76-2.28-4.83-2.09-7.41-2.2c0.4-1.12,0.81-2.23,1.2-3.34c-3.4-2.29-6.76-4.78-10.75-5.94c-1.25,0.46-2.49,0.92-3.74,1.37
		c-0.41-0.44-1.23-1.32-1.65-1.76c0.6-1.02,1.22-2.02,1.84-3.02c0.41,0.43,1.22,1.28,1.62,1.71c3.48,0.03,6.97,0.05,10.45,0
		c0.11-0.51,0.34-1.55,0.45-2.07c-1.48-0.31-2.95-0.6-4.43-0.87c-0.26-0.28-0.78-0.85-1.04-1.13c-0.44-2.26-1.22-4.42-2.05-6.55
		c1.66-0.51,3.34-1,5.01-1.5c2.14-7.84,3.74-16.08,2.97-24.2c-2.05-1.52-4.83-1.24-7.22-1.68c2.17,3.98-2.45,6.42-5.7,6.62
		c-0.43-4.56-6.21-3.11-9.23-4.92c1.04-0.89,2.42-0.96,3.72-1.13c-0.38-3.5-4.7-3.01-7.25-3.74c0.34-1.01,0.65-2.04,1.09-3.01
		c3.94-0.03,7.86,1.83,11.8,0.65c3.04-1.32,8.12,0.81,6.33,4.81c1.04,0.19,2.04-0.19,2.22-1.36c1.27-2.69,1.7-5.68,2.79-8.43
		c1.02,2.55,0.99,5.28,0.77,7.98c2.79-0.64,3.45-3.33,4.51-5.58c3.52,1.83,7.63,1.59,11.49,1.82c3.27,0.29,6.29-1.05,9.23-2.29
		c-0.53-1.48-1.4-3.35-3.28-3.24c-3.39-0.05-6.69,1.43-10.11,0.67c-1.62-0.8-3.28-1.52-4.91-2.27c2.48-1.84,5.53,0.03,8.33-0.37
		c0.33-3.34-2.19-7.2,0.29-10.11c4.11-5.6,8.45-11.06,13.36-15.97c4.59,0.85,8.44,3.47,10.95,7.4c1.99-1.43,6.23-1.78,5.33-5.1
		c-2.15-2.03-6.05-1.66-7.08-4.85c1.72-1.22,3.44-2.46,5.12-3.74c-2.21-1.58-3.91-3.7-5.8-5.62c-2.91-1.68-6.46-1.47-9.54-2.69
		c-2.14-1-3.52-3.3-5.91-3.82c-4.01,0.46-6.11,5.58-10.49,4.62c-1.74,1.95-3.46,3.92-5.38,5.71c-1.45-2.46-2.52-5.18-4.48-7.29
		C719.435,407.853,723.595,406.193,727.585,404.813 M756.235,435.023c-0.11,2.04-0.21,4.09-0.28,6.14
		c4.25,2.27,5.03,7.84,9.42,10.06c-0.39-1.21-1.01-2.27-1.73-3.29c-0.63-1.41-1.32-2.78-2.1-4.11c0.52-0.3,1.57-0.89,2.09-1.19
		C761.285,439.952,757.845,438.323,756.235,435.023 M774.805,449.213c-0.63,1.37-1.26,2.74-1.9,4.11c0.65,1.66,1.22,3.34,1.8,5.03
		c2.03-1.92,2.53-4.7,2.3-7.38C776.265,450.383,775.535,449.803,774.805,449.213 M726.985,468.572c-1.59,2.36-3.09,4.79-4.43,7.31
		c2.12,6.81,4.51,14.11,9.66,19.26c0.3-5.33,2.46-10.18,4.86-14.85c3.31,0.74,2.95-3.66,4.05-5.72c-2.97-0.02-5.94-0.05-8.91-0.04
		c-0.08-1.48-0.23-2.96-0.44-4.41C730.645,468.572,728.675,468.692,726.985,468.572 M759.615,469.423c-1.52,3.96,3.23,6.1,3.48,9.85
		c1.38-2.29,1.15-5.06,1.49-7.61C763.325,470.132,761.625,469.193,759.615,469.423 M731.015,505.663c0.02,2.47,1.08,4.73,1.96,6.98
		C732.765,510.213,733.105,507.402,731.015,505.663 M705.775,416.762c1.91-2.76,4.27-5.15,6.66-7.49c0.1,0.56,0.31,1.69,0.42,2.25
		c-1.1,1.74-2.43,3.31-3.78,4.86C707.965,416.513,706.865,416.642,705.775,416.762 M693.565,427.842
		c-0.06-5.85,3.61-12.14,9.88-12.73c0.05,1.18,0.1,2.36,0.15,3.55c-2.6,3.08-5.28,6.07-8,9.03
		C695.085,427.733,694.065,427.803,693.565,427.842 M697.735,500.373c-0.16-4.4-0.1-9.42,3.48-12.58c0.71,2,2.41,4.16,1.19,6.33
		c-1.13,2.09-2.63,3.95-3.78,6.02c0.34,0.55,1.01,1.64,1.35,2.18C699.225,501.663,698.475,501.013,697.735,500.373
		 M1360.155,574.393c2.32-1.05,4.84-1.96,6.49-4.03v0.01c0.4,4.63,2.12,10.17-1.29,14.12c-3.73,3.33-9.1,3.06-13.77,3
		C1354.995,583.473,1355.905,577.653,1360.155,574.393 M779.365,583.562c7.34-0.88,14.71-1.73,22.01-2.95
		c0.49,0.32,1.48,0.95,1.97,1.27c1.89-0.01,3.79-0.01,5.69,0.01c3.24-0.02,6.48-0.04,9.72,0c0.47-0.31,1.41-0.92,1.88-1.22
		c4.83-0.05,9.87,0.01,14.24,2.34c-1.07,1.27-2.15,2.54-3.24,3.8c0.71,0.92,1.64,2.34-0.39,1.91c0.18,1.95,0.08,4.05,1.06,5.84
		c2.27,5.2,8.84,6.68,11.21,11.9c0.06,1.3-0.08,2.62-0.16,3.93c-0.8,0.01-2.39,0.02-3.19,0.02c-2.27-4.19-4.77-9.42-10.19-9.85
		c-5.27-0.2-10.76,0.94-15.75-1.42c0.5-0.45,1.01-0.9,1.52-1.34c2.19-0.29,4.39-0.57,6.62-0.61c0.65-1.11,1.25-2.25,1.82-3.4
		c-2.16-1.15-5.87-0.74-6.33-3.74c-0.04,0.46-0.12,1.37-0.17,1.83c-3.13-1.69-6.4-3.24-10.04-3.26c-1.68,1.53-3.26,3.17-4.89,4.77
		c-6.12,0.17-12.25,0.09-18.37,0.07c-0.18,0.72-0.56,2.15-0.75,2.87c6.33,3.86,14.25,1.62,21,4.12c0.07,0.86,0.2,2.58,0.27,3.44
		c-5.7-1.78-11.35,0.47-17.07,0.58c-1.58-1.11-3.77-2.27-4.62,0.33c-4.08-1.43-4.33-6.18-4.66-9.83
		C778.545,591.153,779.255,587.383,779.365,583.562 M1316.215,583.503c1.27,0.01,2.56,0.04,3.85,0.08c0.26,1.66,0.53,3.31,0.81,4.98
		C1319.055,587.143,1317.585,585.323,1316.215,583.503 M1301.275,596.443c3.07,0.52,7-1.08,9.44,1.37
		c-0.54,2.94-2.97,4.92-4.79,7.12c-1.47,1.34-3.04,2.56-4.63,3.76C1301.265,604.603,1301.275,600.523,1301.275,596.443
		 M1175.555,600.782c2.15-0.6,4.37-0.98,6.61-1.17c1.25,0.89,2.85,1.6,3.05,3.35
		C1181.985,602.323,1178.505,602.393,1175.555,600.782 M1273.375,602.103c1.79-1.31,4.12-0.14,6.15-0.3
		c-1.24,2.42-3.42,4.44-3.72,7.26c-0.61,2.75,0.63,5.41,1,8.11c0.77,3.79-1.17,7.53-0.4,11.33c1.96,0.43,3.98,0.69,5.89,1.38
		c0.14,0.85,0.43,2.55,0.57,3.4c-2.32,1.12-4.86,1.31-7.38,1.22c-0.4,0.35-1.21,1.05-1.61,1.4c-1.37-1.33-2.46-2.99-2.37-4.98
		c0.17-6.53,2.86-12.65,3.95-19.03C1275.295,608.573,1275.815,604.733,1273.375,602.103 M1120.075,607.792
		c4.98-2.32,9.53-6.15,15.32-6.07c-0.93,2.41-3.45,3.93-5.97,3.99c-1.86-0.34-2.62,1.59-2.11,3.11c-2.07,1.64-4.64,2.29-7.19,2.69
		C1120.115,610.583,1120.085,608.723,1120.075,607.792 M912.965,606.913c6.15,0.27,11.9-2.85,18.07-2.25c9.51,0.75,19,1.8,28.5,2.71
		c-1.5,2.97-4.75,5.14-4.85,8.7c0.22,2.21,1.8,3.96,2.76,5.9c-6.54,0.16-12.38-3.07-18.42-5.06c-2.67-0.37-5.39-0.27-8.07-0.11
		c-6.29,1.3-11.53,5.26-17.01,8.38c-1.61,1.08-3.66,0.49-5.45,0.62c0.48-4.37,2.39-8.65,0.93-13.06c-3.59-0.83-7.18-1.87-10.37-3.76
		c-0.73-2.47,2.19-2.71,3.91-2.85C906.335,605.893,909.615,606.932,912.965,606.913 M926.285,610.023c0.02,0.72,0.07,2.16,0.09,2.88
		c3.61,2.11,8.02,1.8,11.77,0.24c3.17-1.39,0.81-6.16-2.14-5.91C932.595,607.353,929.495,609.013,926.285,610.023 M1234.445,609.113
		c3.13,2.76,7.13,5.1,8.99,8.92c-1.71,3.5-5.34,6.08-6.01,10.12c0.17,1.84,0.71,3.61,1.09,5.43c-1.74-0.15-3.45-0.31-5.17-0.47
		C1233.555,625.122,1233.255,617.032,1234.445,609.113 M1068.865,617.463c7.93-4.4,17.34-4.89,26.21-4.64
		c-0.52,0.76-1.11,1.54-2.1,1.62c-6.22,1.32-12.54,1.99-18.83,2.78c-0.03,0.38-0.07,1.14-0.1,1.53l-0.1-1.37
		C1072.245,617.723,1070.555,617.753,1068.865,617.463 M1142.535,619.453c-2.75-1.54-1.07-5.65,1.65-5.76
		c0.6,3.73-1.12,9.1,2.74,11.44c3.47,1.63,5.99-1.65,8.58-3.35c-1.02,2.98-3.11,5.34-4.93,7.85c-5.79,1.81-12.38,0.69-17.65,4.21
		c-2.37,1.35-2.82,4.21-3.71,6.55c-0.1-3.3,0-6.68-1.2-9.8c4.55-3.55,1.26-9.69,4.34-13.89c1.7,3.65,0.42,8.58,3.64,11.45
		c3.58,0.77,7.23-2.47,7.08-6.09c-0.62-0.55-1.2-1.13-1.74-1.72C1141.635,620.123,1142.235,619.672,1142.535,619.453
		 M1025.825,619.302c-0.2-0.99-2.29-3.12-0.13-2.91c1.94,0.42,3.44,1.86,5.08,2.92c-0.52,0.22-1.57,0.66-2.09,0.87
		C1027.725,619.883,1026.765,619.583,1025.825,619.302 M817.685,617.633c9-1.57,18.19-0.98,27.22,0.03
		c-1.87,1.34-2.91,3.33-2.73,5.64c7.42,3.57,15.94,1.74,23.88,2.13c9.47-1.35,18.92-3.1,28.48-3.78c-0.65,1.58-1.35,3.14-2.1,4.69
		c-13.01,3.93-26.75,2.99-40.16,3.13c0,1.77,0.03,3.55,0.07,5.33c11.06,4.12,22.8,0.84,34.14,0.33c2.43-0.4,5.52,0.9,5.43,3.75
		c-0.73,9.78,2.03,19.43,1.46,29.2c-5.69,3.77-12.79,3.91-19.29,2.73c-7.74-0.72-15.23-3.82-23.09-3.05
		c-7.75,0.94-15.27,3.13-22.96,4.39c-3.67,0.7-6.04-3.09-6.87-6.13c-1.89-6.23-3.38-13.64,0.31-19.5c1.38-3.34,5.61-4.28,6.67-7.83
		c-7.96-3.42-16.6-0.8-24.89-1.27c-1.25-2.58-1.58-6.08-4.45-7.44c-5.81-2.78-12.24,0.03-18.34-0.49c-0.93-3.1-1.26-7.3,2.06-9.09
		c4.5-2.07,9.69-1.39,14.45-0.86c3.89,3.41,6.48,9.15,12.11,9.9c1.55,0.6,2.96-1.01,3.27-2.35c0.34-2.42,0.14-4.87,0.11-7.29
		C814.105,618.863,815.785,617.912,817.685,617.633 M882.615,638.743c-1.62,2.9-1.33,6.38,0.95,8.86c2.41,0.12,4.83,0.01,7.22-0.39
		c-0.21-2.69,0.46-5.57-0.51-8.11C888.075,637.613,885.095,638.422,882.615,638.743 M866.525,640.542
		c-0.06,2.38-0.15,4.77,0.02,7.16c2.37-0.04,4.78,0.23,7.12-0.25c2.31-1.29,2.03-4.71,0.37-6.44
		C872.225,638.483,868.975,640.343,866.525,640.542 M850.805,642.443c-1.37,2.86-1.62,6-0.13,8.88c3.12,0.22,6.06-0.83,8.79-2.25
		C861.065,644.162,855.175,640.083,850.805,642.443 M834.105,643.743c-0.06,1.31-0.12,2.64-0.17,3.98
		c-1.76-1.38-3.52-3.54-5.98-3.21c-3.26,1.07-5.59,4.48-4.39,7.92c3.22,0.9,8.01,1.81,9.74-1.95c0.96,2.98,4.11,3.33,6.8,3.4
		c2.59-2.88,3.65-7,1.36-10.39C839.005,643.133,836.545,643.483,834.105,643.743 M1116.115,619.233c0.13-0.65,0.29-1.28,0.46-1.91
		c0.03,0.3,0.1,0.9,0.13,1.19c0.95-0.02,2.85-0.05,3.8-0.07c0.16,1.47,0.97,3.55-0.46,4.65c-3.11,2.18-5.99,5.13-9.99,5.46
		c-1.06-2.88-0.85-5.95-0.32-8.9C1111.845,619.353,1113.965,619.193,1116.115,619.233 M1298.645,618.403
		c5.18,0.23,10.36,0.55,15.51,1.23c-3.25-0.07-6.8-1.13-9.6,1.08c-2.17,1.5-4.92,1.44-7.09,0.01
		C1297.845,619.943,1298.235,619.162,1298.645,618.403 M750.425,621.683c1.14-0.1,2.29-0.17,3.44-0.23
		c1.31,2.93,4.48,5.11,4.18,8.62c-5.12,3.22-11.37,2.97-17,1.41c-0.82,0.66-1.65,1.34-2.47,2.01c-2.07-0.17-4.15-0.3-6.21-0.51
		c-0.99,0.2-2.24,0.89-2.87-0.31c-0.3-1.23,1.81-1.37,2.45-1.37c2.46-2.46,5.79-3.72,9.26-2.82c4.74-0.54,8.68,3.17,13.42,2.09
		c0.68-2.81-1.4-5.16-1.1-7.9C752.485,622.353,751.455,622.023,750.425,621.683 M1095.125,626.233c2.01-0.71,4-1.49,5.8-2.66
		c0.22,9.52,1.45,19.02,1.41,28.53c-4.02,1.62-8.37,4.65-12.84,3.36c-4.85-3.41-5.66-10.83-11.65-13.02
		c-4.69-0.31-9.07,2.15-11.88,5.8c-0.41,0.02-1.23,0.06-1.65,0.08c0.01-0.37,0.01-1.11,0.01-1.48c3.24-2.08,6.25-4.75,9.85-6.11
		c7.22,0.46,14.96,1.46,21.71-1.86c2.57-1.15,3.71-4.17,2.99-6.82C1097.755,630.023,1096.245,628.253,1095.125,626.233
		 M1091.305,644.933c1.29,2.15,2.2,4.81,4.42,6.2c1.78,0.13,3.59,0.08,5.39,0.1c-0.07-1.66-0.13-3.31-0.19-4.96
		c-1.59-1.45-3.24-2.84-4.92-4.16C1094.215,642.653,1092.385,643.282,1091.305,644.933 M1025.645,624.552
		c0.52-0.02,1.54-0.05,2.06-0.07c-0.04,1.01-0.08,2.03-0.11,3.06c-0.44-0.06-1.31-0.19-1.75-0.26
		C1025.775,626.372,1025.705,625.463,1025.645,624.552 M1176.795,623.823c0.3,0.82,0.61,1.64,0.93,2.48c2.98,1.47,6.7,0.46,9.37,2.6
		c-1.68,0.64-3.31,1.36-4.88,2.22c-5.44,0.38-10.92,0.41-16.35-0.11c2.62-2.58,6.58-1.46,9.76-2.72
		C1177.205,627.463,1176.535,625.253,1176.795,623.823 M1072.975,626.812c2.44,0.04,4.88,0.03,7.33,0.06
		c-0.34,0.25-1.01,0.75-1.35,1c-2.33,1.11-5.42,3.1-7.72,0.96C1071.675,628.333,1072.545,627.323,1072.975,626.812 M919.395,631.953
		c4.83-2.73,10.38-4.3,15.92-3.1c2.37,6.07,3.06,12.64,4.18,19.03c1.12,4.68-2.54,8.57-2.93,13.07c0.09,4.43,1.83,8.67,1.77,13.12
		c-1.77,1.52-3.56,4.03-6.25,3.31c-2.53-0.8-5.15-1.13-7.79-0.95c-4.11-3.6-3.77-9.47-2.6-14.31c1.02-3.83-0.51-7.53-1.42-11.19
		c0.21-3.21,2.4-6.57,0.34-9.56c0.26-0.29,0.79-0.88,1.05-1.17C920.935,637.433,920.125,634.703,919.395,631.953 M926.825,633.053
		c-1.93,0.61-4.42,1.48-4.72,3.81c0.8,2.38,2.58,4.24,4.53,5.76c2.7,2.53,6.5-0.22,8.78-2.04
		C936.885,635.843,931.265,631.483,926.825,633.053 M948.095,631.383c2.21-2.54,6.72-3.3,9.19-0.72c2.67,2.58,4.42,6.03,5.56,9.53
		c1.18,4.93,0.54,10.06,0.66,15.08c-3.9,0.97-7.76,2.12-11.57,3.38c-2.35-4.62-3.69-9.67-4.89-14.69
		c-1.29-4.11,1.59-8.09,0.66-12.29L948.095,631.383 M949.515,640.583c-0.2,1.96-0.62,4.39,1.31,5.7c3.35,1.4,7.15,0.34,9.85-1.92
		c0.03-0.62,0.09-1.87,0.12-2.5C957.685,639.182,953.195,639.143,949.515,640.583 M778.995,639.733c1.23-1.14,2.54-2.18,3.94-3.11
		c0.55,0.26,1.65,0.78,2.2,1.04c0.79,3.11,1.88,6.15,0.1,9.16c-2.07,0.02-4.14,0.03-6.21,0.07
		C779.025,644.503,779.025,642.113,778.995,639.733 M1170.435,639.353c7.39,0.37,14.15-3.14,21.51-3.02
		c2.65,3.07,5.82,5.62,8.96,8.17c-5.83,0.56-12.07-0.86-17.42,2.17c-1.09,2.29-1.17,4.75-0.53,7.2c-3.03-0.52-6.04-1.22-9.12-1.24
		c-0.48-0.59-0.95-1.17-1.41-1.75c1.13-0.7,2.57-1.07,3.44-2.14c0.73-1.68,0.44-3.62-0.06-5.32
		C1175.165,640.983,1172.235,640.643,1170.435,639.353 M1261.805,638.422c2.7,0.48,5.41,0.96,8.14,1.43
		c-2.76,0.35-5.5,0.81-8.25,1.08C1261.725,640.302,1261.775,639.042,1261.805,638.422 M719.955,643.113
		c9.01-1.62,17.97-4.25,27.21-3.82c3.16,0.21,3.72,4.08,3.23,6.59c-2.01,1.07-3.91,2.37-5.27,4.25c2.14,2.15,6.05,1.18,7.59,4.04
		c3.22,5.19,1.57,11.72-1.44,16.61c-6.11-3.18-11.77-7.34-18.39-9.47c-1.74-0.5-3.7-0.88-5.39-0.03c-4.67,1.93-8.86,4.87-13.65,6.52
		c-1.55-1.74-3.46-3.44-3.94-5.82c0.79-5.39,6.95-6.33,11.26-7.55c4.72,0,9.46-0.29,14.04-1.53l0.96-1.1
		c-6.26-0.25-12.51-0.31-18.77-0.05l0.05-0.95c-2.03-0.68-4.01-1.48-5.98-2.29c-0.01-0.5-0.04-1.49-0.05-1.99
		C714.095,645.013,716.895,643.613,719.955,643.113 M1129.335,643.802c10.06,0.23,19.52-6.65,29.59-3.77
		c0.87,0.16,2.6,0.47,3.47,0.63c-5.98,2.48-10.18,7.63-13.65,12.9c-0.68,0.05-2.06,0.16-2.75,0.21c-0.12-2.37-0.08-4.74-0.15-7.09
		c-5.09-2.53-10.2,1.21-15.29,1.93C1130.165,646.993,1129.765,645.393,1129.335,643.802 M1007.966,640.073
		c0.91,6.52,1.48,13.09,1.63,19.67c-2.83,0.39-5.67,0.65-8.51,0.84c-3.62-2.76-6.4-6.59-10.66-8.45c1.1-1.5,2.24-2.96,3.48-4.33
		c0.35,1.07,0.69,2.15,1.03,3.24c2.71,2.83,6.94,2.23,10.38,1.34C1006.875,648.443,1007.015,644.162,1007.966,640.073
		 M976.265,642.542c2.51-1.27,5.12-0.64,7.52,0.53c-0.37,0.48-1.12,1.44-1.5,1.93c1.21,2.77,3.2,5.04,5.46,7.03
		c-2.27,0.39-4.56,0.66-6.85,0.84C981.235,648.773,978.155,645.833,976.265,642.542 M1021.805,656.282
		c0.83-4.17,0.82-8.75,3.11-12.46c0.93,1.48,1.86,2.98,2.72,4.52c2.75,0.56,5.55,0.91,8.37,0.97c-0.06,3.45,0.41,7-0.53,10.37
		c-1.76,3.68-5.55,6.55-9.8,5.92C1024.095,662.673,1022.115,659.662,1021.805,656.282 M1051.235,646.302
		c1.29,0.28,1.52,1.03,0.69,2.25C1050.605,648.263,1050.375,647.513,1051.235,646.302 M977.295,660.723
		c-0.4-2.38-0.5-4.94,1.37-6.72C978.776,656.323,978.115,658.562,977.295,660.723 M778.555,660.443c5.43,0.06,12.25-4.24,16.61,0.66
		c-2.03,0.09-4.05,0.09-6.06-0.17C785.585,660.843,782.065,660.763,778.555,660.443 M954.975,665.673c1.33-0.48,2.69-0.89,4.08-1.17
		c0.46,0.38,1.39,1.13,1.85,1.51c0.56,2.17,1.11,4.34,1.73,6.51c-3.15,0.87-6.29,1.82-9.28,3.13
		C952.895,672.203,953.915,668.893,954.975,665.673 M831.065,676.853c10.77-2.24,21.81-2.08,32.71-3.21
		c-2.76,2.28-6.63,3.77-8.09,7.25c0,3.95,4.25,4.76,7.33,5.17c2.7,0.04,4.17,2.99,6.91,2.98c2.72,0.29,5.45,0.81,7.77,2.39
		c-2.9,1.9-6.09,4.36-9.76,3.65c-3.05-1.51-5.59-3.85-7.77-6.42c-1.1-0.42-2.2-0.84-3.29-1.25c-3.76,2.12-6.4,5.6-9.21,8.78
		c-2.08-4.71-0.27-10.24-2.21-14.81C841.115,678.792,835.915,678.052,831.065,676.853 M900.805,673.903
		c1.72-0.87,3.26,0.62,4.54,1.61c-1.82-0.1-3.62-0.28-5.39-0.72c-2.95,0.79-5.75,2.34-7.2,5.15c0.24,0.55,0.71,1.66,0.95,2.22
		c4.28,4.48,11.05,5.13,16.89,4.4c0.37-1.93,0.67-3.86,0.85-5.8c3.92,2.9,8.88,4.01,12.58,7.27c2.26,1.85,3.43,4.62,4.54,7.25
		c-7.62,2.91-15.76,0.32-23.6,0.4c-1.3-0.15-2.87,0.29-3.88-0.76c-3.74-3.22-6.86-7.38-11.55-9.3c-6.14-2.75-13.14-0.19-19.4-2.48
		c-2.05-0.53-3.89-1.69-5.09-3.44c5.5-0.3,10.44,3.28,15.89,2.56C887.625,679.662,894.035,676.323,900.805,673.903 M779.995,680.162
		c1.62,3.73-1.7,8.61-5.81,8.11C776.815,686.113,778.675,683.273,779.995,680.162 M1039.745,681.432c2.89-0.89,5.48,0.59,7.8,2.17
		c-0.35,0.75-0.7,1.51-1.03,2.28c-0.32-0.38-0.95-1.12-1.26-1.5c-2.33-0.21-4.66-0.22-6.98-0.18
		C1038.645,683.513,1039.375,682.122,1039.745,681.432 M733.755,693.993c5.62,0.3,9.59-4.73,9.8-10c1.64,4.12,2.87,8.38,4.04,12.66
		c2.12,2.96,6.26,1.97,9.36,1.85c3.69-0.5,5.19-5.02,8.98-5.21c1.74-0.28,3.4,0.59,5.07,0.99c-1.42,3.03-3.81,5.52-6.74,7.13
		c-3.85-2.53-8.13-0.34-12.14,0.33c-3.94,0.95-6.54-2.97-10.08-3.76c-2.75-0.28-5.51-0.26-8.26-0.49
		C733.775,696.623,733.765,694.872,733.755,693.993 M945.266,686.302c0.42,0.24,1.24,0.72,1.65,0.96c1.74-0.07,3.49-0.11,5.25-0.18
		c0.68,0.6,1.37,1.22,2.07,1.84c-1.92,2.2-4.28,3.94-7.02,4.98c-0.02-0.62-0.08-1.85-0.11-2.46
		C945.825,689.993,945.075,688.253,945.266,686.302 M704.665,696.412c1.6-3.47,3.58-6.74,5.63-9.95c2.44,1.91,3.96,4.49,3.16,7.65
		C710.455,694.593,707.555,695.503,704.665,696.412 M781.495,694.393c4.79-4.79,12-6.28,18.53-5.8
		c7.42,4.68,13.35,11.58,18.36,18.74c-2.84,0.2-5.58,1.04-8.4,1.34c-1.77,0.03-2.58-1.78-3.59-2.89c-0.54-0.33-1.64-0.98-2.19-1.3
		c-2.34,0.18-4.18,1.66-6.09,2.87c-1.86,0.18-3.72,0.08-5.57,0.06c0.46-3.64,2.78-7.64,0.08-10.93c-2.29-0.55-4.77-1.11-6.88,0.33
		c-5.35,2.76-5.47,9.98-10.13,13.43c-2.27,1.53-5.08,1.18-7.65,1.09c-0.46-0.36-1.37-1.07-1.83-1.42
		C771.575,705.052,776.335,699.523,781.495,694.393 M694.345,705.903c2.89-1.98,5.86-3.84,8.78-5.79
		c-0.15,3.49-1.02,7.02-0.12,10.48c1.65,0.03,3.31,0.07,4.97,0.13c2.78-2.21,2.19-6.67,5.44-8.39c1.96-0.56,1.51,2.33,2.66,3.27
		c2.71,2.32,5.65,4.72,6.14,8.52c-1.94-1.3-3.57-3.61-6.14-3.47c-2.05-0.17-4.04,0.38-6.01,0.84c-1,2.48-1.84,5.03-3.07,7.42
		c-1.85-0.67-3.51-1.74-5.25-2.61C698.715,713.233,697.825,708.623,694.345,705.903 M916.075,705.193c3.05,0.08,6.09,0.43,9.14,0.57
		c0.68,0.26,2.04,0.76,2.72,1.02c-2.26,0.84-4.48,2-6.95,1.96C918.885,708.393,917.595,706.483,916.075,705.193 M732.435,706.373
		c1.24-0.13,2.49-0.2,3.74-0.32c-0.28,0.74-0.85,2.2-1.13,2.94c-0.53,0.13-1.05,0.27-1.57,0.42
		C733.135,708.383,732.765,707.383,732.435,706.373 M849.255,707.513c0.51,0.02,1.55,0.07,2.07,0.09c-0.07,1.64-0.16,3.29-0.34,4.94
		c-0.38-0.2-1.12-0.6-1.49-0.8C849.385,710.323,849.305,708.913,849.255,707.513 M946.645,731.603c1.64-0.1,3.27-0.17,4.93-0.17
		c-1.51,1.51-3.2,2.82-5.1,3.79C946.515,734.013,946.575,732.802,946.645,731.603 M965.315,741.753c-1.74-2.81,1.1-4.48,3-5.95
		C967.365,737.812,966.465,739.853,965.315,741.753 M678.835,769.263c0.39-6.74,6.09-11.71,12.17-13.64
		C687.675,760.792,682.685,764.523,678.835,769.263 M693.745,765.883c2.08-0.05,4.16-0.1,6.24-0.18c-1.83,1.39-3.8,2.7-6.19,2.7
		C693.775,767.562,693.755,766.713,693.745,765.883 M654.715,784.643c0.46-0.02,1.39-0.05,1.85-0.07c-0.02,1.45-0.03,2.9-0.04,4.37
		c-0.42-0.06-1.24-0.18-1.65-0.25C654.815,787.333,654.765,785.983,654.715,784.643 M776.085,826.562c3.65-0.04,7.32-0.04,10.92,0.7
		c0.35,0.43,1.05,1.28,1.4,1.71c0.05,2.03,0.55,4.64-1.65,5.8c-3.33,1.48-7.16,0.6-10.7,0.85
		C776.015,832.593,776.015,829.573,776.085,826.562 M890.775,826.613c3.72,0.24,7.95-0.87,11.21,1.46c0.88,2.12,1.23,5.61-1.52,6.44
		c-3.07,1.17-6.48,0.39-9.68,0.61C890.755,832.283,890.765,829.443,890.775,826.613 M1071.575,852.203
		c-0.1-8.22,0.02-16.44-0.05-24.66c3.64,0.09,7.69-0.14,10.76,2.21c3.48,3.53,2.77,8.82,2.72,13.34c-0.06,3.04-0.84,6.63-3.78,8.17
		C1078.155,852.422,1074.785,852.043,1071.575,852.203 M728.135,845.073c1.83-5.16,3.16-10.47,5.01-15.61
		c1.65,5.19,3.14,10.43,4.64,15.67C734.565,845.093,731.355,845.093,728.135,845.073 M890.775,843.593
		c4.51,0.15,9.54-0.92,13.36,2.15c0.07,0.96,0.21,2.89,0.28,3.85c-2.87,4.78-9.08,2.5-13.63,3.01
		C890.775,849.593,890.775,846.583,890.775,843.593L890.775,843.593z"/>
	<path style="fill:#0082D6;" d="M834.605,103.243c40.73-11.52,83.06-18.1,125.45-17.27c27.49-0.49,54.98,2.23,81.98,7.25
		c19.97,3.8,39.77,8.68,59.01,15.29c19.22,5.85,37.62,14.05,55.79,22.58c45.07,22.05,86.65,51.44,122.17,86.9
		c13.48,13.92,26.84,28.03,38.34,43.65c38.17,49.1,65.87,106.25,81.16,166.51c11.42,45.05,15.45,91.82,12.89,138.19
		c0.36,0.06,1.06,0.19,1.41,0.25l-1.5-0.23c-0.83,15.02-2.38,30.02-4.89,44.86c-1-0.91-2.11-1.75-2.82-2.9
		c-1.92-4.43-5.67-7.58-8.57-11.32c-2.5-3.38-6.67-4.66-10.43-6.02c-0.18-0.96-0.34-1.91-0.48-2.85
		c-6.74-3.18-6.01-11.81-7.71-17.94c-3.26,0.01-6.52,0.07-9.76,0.18v-0.01c-1.65,2.07-4.17,2.98-6.49,4.03
		c0.19-0.49,0.57-1.49,0.76-1.98c-2.22-0.18-4.44-0.23-6.65-0.29c-0.18,1.3-0.34,2.62-0.49,3.94c-3.59,0.7-4.66,4.36-7.06,6.45
		c-6.35,1.82-10.33-4.69-15.84-6.34c-1.52,2.26-3.53,4.48-3.7,7.34c-0.09,2.77,0.84,5.44,1.34,8.14c-2.59-0.94-5.15-1.93-7.64-3.09
		c-0.28-1.67-0.55-3.32-0.81-4.98c-1.29-0.04-2.58-0.07-3.85-0.08c-1.12-1.57-2.11-3.23-3.11-4.85c-4.46-0.16-9.51,0.18-12.66,3.78
		c-1.86,2.68-2.72,5.89-4.03,8.84c-5.91,4.17-13.66,3.66-20.19,1.4c-3.64-1.29-6.16-4.96-10.13-5.37
		c-9.8-0.63-19.36,2.42-29.11,2.53c-4.93,0.14-7.14-5.81-11.88-6.26c-2.6-0.18-5.81-0.36-7.66,1.82c-1.79,1.79-3.47,4.34-6.36,4.08
		c-10.35-0.03-20.67-1.26-31.01-1.71c-5.05-0.21-10.06,1.68-15.09,0.65c-2.6-0.51-5.25-0.99-7.9-0.63
		c-16.4,2.07-32.48,6.24-48.96,7.72c-5.35,0.61-10.92-0.55-16.11,1.18c-13.75,5.12-28.65,4.55-43.06,5.27
		c-3.73,0.02-6.75,2.42-10.13,3.59c-5.53,0.56-11.29-1.01-15.5-4.71c-7.38-4.1-15.97-5.59-23.18-10.1
		c-6.54-1.24-12.52-5.92-19.39-4.6c-7.55,1.19-15.21,0.34-22.81,0.64c-13.69,0.54-27.33,1.94-40.93,3.51
		c-5.86,0.61-11.75,0.55-17.62,0.21c-2.24-3.65-5.23-6.91-9.25-8.56c-9.49-4.26-19.78-6.6-30.08-7.74
		c-4.34-0.56-8.64-1.58-13.03-1.45c-4.85,0.16-9.27,2.59-14.09,2.96c-5.33,0.42-10.68-0.12-16.01,0.3
		c-4.01,0.28-7.93,1.47-11.98,1.33c-6.8,0.18-13.73-0.79-20.4,0.9c-4.42,0.7-9.13-0.07-13.31,1.88c-1.57,0.73-3.5,1.87-3.51,3.84
		c-0.51,5.52,0.11,11.09-0.48,16.61c-0.27,2.17-1.68,4.21-3.76,5c-4.51,1.99-9.58,0.66-14.31,1.38c-2.44,0.33-4.9,3.06-3.51,5.53
		c1.45,2.51,3.41,4.69,4.96,7.14c-0.95-0.04-2.85-0.14-3.8-0.19c-2.45,1.73-4.96,3.35-7.6,4.78c-2.77-2.09-5.16-4.65-6.71-7.78
		c-4.54-0.5-9.95-0.98-13.51,2.51c-10.51,9.14-14.54,22.98-19.06,35.65c-0.13-1.25-0.39-3.74-0.52-4.98
		c-1.38,5.96-2.39,12.04-4.04,17.93c-5.02,9.4-11.82,18.1-14.39,28.64c-3.62,4.53-4.54,10.31-5.26,15.9
		c-0.49,4.55-2.72,8.59-4.75,12.6c0.53,1.45,1.05,3.08,0.22,4.56c-3.09,6.69-6.92,13.04-10.88,19.25c-2.19,3.08-1.93,7.11-3.89,10.3
		c-0.83,10.54-4.45,21.08-11.6,29.02c-2.64,2.77-4.54,6.13-7.11,8.97c-5.74,5.8-11.11,11.99-17.43,17.19
		c-2.84-0.7-5.76-0.8-8.66-0.48c-2.47,3.03-4.2,6.6-4.24,10.58c-17.1-21.87-32.86-44.85-46.07-69.29
		c-3.73-7.98-8.41-15.48-11.8-23.61c-16.16-34.66-28.33-71.32-34.88-109.03l-1.07,0.38c0.21-0.29,0.61-0.86,0.81-1.15
		c-4.05-21.26-6.38-42.85-7.11-64.48c-2.2-55.65,5.72-111.73,23.86-164.41c22.9-66.75,61.42-128.09,111.89-177.43
		c26.33-25.88,56.04-48.29,87.8-67.08c14.91-8.98,30.49-16.81,46.45-23.73C795.745,115.582,815.125,109.163,834.605,103.243
		 M719.375,167.463c1.35,2.03,2.77,4.06,3.58,6.38c10.01,31.76,20.59,63.34,30.75,95.05c28.13,86.75,56.3,173.5,84.47,260.23
		c0.92,3.67,5.19,2.37,7.97,2.37c1.46-2.26,2.88-4.66,3-7.42c0.86-8.87-3.87-16.85-6.19-25.13c-1.91-7.5-4.76-14.69-7.1-22.05
		c-21.42-65.94-43.03-131.81-64.45-197.75c-11.56-35.74-23.5-71.37-34.86-107.18c-1.15-2.84-1.1-6.98-4.41-8.27
		C727.545,162.623,723.135,165.133,719.375,167.463 M790.025,180.363c-12.07,0.68-23.56,4.64-34.98,8.29
		c-3.37,1.25-6.62,2.82-9.91,4.26c6.02,6.35,11.15,13.46,16.72,20.2c4.83,6.27,9.62,12.6,13.64,19.44
		c7.73,10.26,13.75,21.65,20.09,32.78c9.97,19.32,19.26,39.15,24.97,60.19c5.93,24.76,8.95,50.09,10.79,75.45
		c0.39,12.68,0.61,25.37,0.15,38.05c0.36,7.9-1.92,15.87,0.11,23.67c13.79-3.61,28.24-4.44,42.36-2.62
		c19.89,2.77,38.8,10.72,55.47,21.78c2.68,1.73,5.08,4.35,8.44,4.63c20.42,3.07,41.52,0.79,61.11-5.59
		c4.69-1.3,9.09-3.68,14.01-4.04c9.08-0.74,18.5-1.02,27.24,1.94c3.17,0.97,5.93,2.9,9.07,3.96c4.82,0.44,9.53-1.24,14.28-1.88
		c21.78-3.35,43.48-7.47,65.46-9.3c4.59-0.78,8.78,1.59,12.52,3.94c7.4,4.35,13.13,10.86,19.54,16.45
		c4.18,2.91,9.18,4.32,13.92,6.03c16.64,5.67,35.27,6.08,51.89,0.18c3.14-1.18,6.17-2.75,9.55-3.16c0.06-0.67,0.13-1.32,0.22-1.97
		c-15.46-7.45-28.73-19.02-39.16-32.57c-5.05-8.45-9.85-17.49-10.74-27.48c0.36-1.27,0.83-2.55,0.87-3.88
		c0.09-13.89-1.25-27.93-5.59-41.19c-1.74-5.96-6.84-10.06-9.11-15.75c-2.09-4.45-2.86-9.39-2.55-14.27
		c0.41-7-0.26-13.99-0.74-20.97c-1.66-11.21-1.02-22.61-2.22-33.87c-1.18-3.35-3.6-6.07-5.5-9.02
		c-4.77-6.48-11.36-12.99-19.94-13.17c-7.52,1.51-15.04,5.3-22.89,3.55c-4.21-1.66-8.56-3.01-12.55-5.16
		c-9.13-5.62-15.7-14.78-19.13-24.84c-1.9-4.24-2.5-9.41-6.28-12.52c-5.95-5.49-14.4-6.51-22.13-7.26
		c-8.73-0.85-17.32,1.74-26.03,1.69c-22.28-2.97-41.61-15.41-60.52-26.69c-6.94-4.99-15.21-7.55-23.38-9.73
		c-14.32-3.78-29.42-3.81-43.96-1.4c-9.35,0.3-18.75,0.1-28.04-0.97c-9.72-0.8-19.66-1.82-28.66-5.85
		c-3.04-1.17-4.35-4.73-7.58-5.56C824.705,180.192,807.095,178.313,790.025,180.363 M715.405,386.663
		c-13.9,2.92-26.76,10.04-37.19,19.6c-9.71,9.57-17.49,21.28-21.85,34.24c-8.44,22.9-7.32,49.13,2.92,71.26
		c7.12,16.25,19.66,30.02,35.09,38.74c14.56,8.37,32.13,10.94,48.6,8.19c13.81-1.83,26.58-8.64,37.11-17.56
		c27.18-23.55,36.98-64.09,25.53-97.89c-6.34-20.34-20.26-38.66-39.21-48.75C751.125,385.713,732.605,383.103,715.405,386.663
		 M1127.315,608.823c-0.51-1.52,0.25-3.45,2.11-3.11c0.9,1.19-0.43,2.93-1.64,3.31L1127.315,608.823L1127.315,608.823z"/>
	<path style="fill:#E20A17;" d="M750.215,193.922c28.53-12.62,62.41-16.41,91.73-4.15c1.48,2.95,4.55,4.42,7.47,5.59
		c7.57,2.68,15.56,3.98,23.55,4.58c10.98,1.06,22.02,1.92,33.04,1.32c19.26-3.66,39.5-1.19,57.51,6.46
		c8.33,4.47,16.08,9.92,24.4,14.42c13.22,7.25,26.95,14.44,42.05,16.61c7.38,1.41,14.63-1.59,22.03-1.31
		c10.17-0.32,21.78,0.64,29.25,8.41c3.73,12.14,9.03,24.58,19.21,32.72c5.07,4.21,11.52,6.11,17.51,8.65
		c8.13,1.65,16.2-1.28,23.96-3.37c5.69-0.55,10.1,3.81,13.94,7.38c3.58,3.81,6.56,8.26,8.83,12.96c1.37,9.79,0.53,19.77,1.8,29.58
		c1.1,8.37,1.49,16.85,1.1,25.29c-0.3,7.94,2.42,15.88,7.36,22.08c5.11,6.48,6.35,14.89,8.18,22.71c1.35,5.66-0.21,11.42,0.26,17.15
		c0.09,9.44,0.6,19.21,4.66,27.91c2.96,6.13,5.83,12.45,10.46,17.55c8.66,10.89,19.87,19.34,31.54,26.74
		c-1.02,2.16-3.99,1.98-5.92,2.78c-18.38,5.87-38.7,3.82-56.28-3.73c-6.47-2.39-10.38-8.33-15.59-12.47
		c-5.55-4.93-11.89-9.51-19.24-11.14c-8-0.29-15.93,1.34-23.85,2.31c-18.8,2.27-37.44,5.72-56.12,8.72c-3.53,0.8-6.5-1.54-9.57-2.8
		c-9.28-4-19.66-3.74-29.54-3.13c-6.29,0.27-11.94,3.34-17.87,5.11c-18.14,5.19-37.33,7.6-56.1,4.9c-4.82-0.28-8.11-4.22-12.06-6.48
		c-17.8-11.03-37.92-18.72-58.83-20.82c-6.01-0.23-12.03-0.09-18.03-0.01c-5.82-0.02-11.41,1.77-17.15,2.46
		c-0.4-5,0.29-9.98,0.52-14.97c0.34-18.61,0.82-37.29-1.16-55.83c-1.28-13.43-2.38-26.91-5.17-40.13
		c-4.27-31.95-17.74-61.73-33.06-89.79c-4.94-8.98-10.16-17.82-16.22-26.1C770.665,218.383,760.185,206.293,750.215,193.922
		 M923.805,286.802c-10.63,10.99-18.04,25.11-20.61,40.21c-4.35,21.75,1.17,45.36,15.1,62.66c9.8,13.28,24.28,22.68,39.83,27.88
		c16.75,4.58,34.85,5.02,51.48-0.33c11.04-4.16,21.07-10.87,29.56-19c-2.22-0.06-4.29,0.72-6.27,1.61
		c-24.53,10.37-55.73,2.84-71.97-18.52c-9.53-11.73-14.4-27.38-12.27-42.44c2.27-19.33,15.42-36.44,32.47-45.33
		c8.46-3.64,17.59-6.24,26.86-6.15c8.73,0.5,17.6,2.02,25.45,6.05c6.87,3.61,13.02,8.39,19.66,12.38
		c-0.19-4.14-3.27-7.13-5.51-10.31c-9.03-11.42-20.14-21.6-33.72-27.25c-6.12-3.42-13.15-3.99-19.94-5
		C968.595,259.023,941.585,268.403,923.805,286.802 M1079.455,320.322c-1.48,9.44-2.9,18.89-4.05,28.37
		c-8.61,1.46-17.29,2.48-25.9,3.94c0.1,0.35,0.3,1.05,0.4,1.4c5.03,1.64,9.28,4.91,14.12,7c2.92,1.25,5.66,2.91,8.16,4.88
		c-1.13,9.04-2.38,18.08-3.7,27.1c1.6-0.38,3.15-0.92,4.68-1.56c4.21-4.63,7.98-9.65,12.19-14.28c1.42-1.6,3.59-3.23,5.82-2.08
		c4.01,1.56,7.75,3.75,11.71,5.45c3.6,1.48,6.87,3.98,10.84,4.4c-1.95-6.94-7.42-12.07-10.05-18.68c-0.6-1.73-1.21-3.94,0.1-5.49
		c5.62-6.78,12.56-12.32,18.24-19.05c-9.12,0.98-18.12,2.81-27.23,3.8c-1.98-2.54-3.74-5.26-5.09-8.19
		c-2.67-5.67-5.82-11.08-8.52-16.72C1080.745,320.543,1079.885,320.393,1079.455,320.322L1079.455,320.322z"/>
</g>
</svg>
