<?xml version="1.0" encoding="iso-8859-1"?>
<!-- Generator: Adobe Illustrator 29.7.1, SVG Export Plug-In . SVG Version: 9.03 Build 0)  -->
<svg version="1.1" id="Layer_1" xmlns="http://www.w3.org/2000/svg" xmlns:xlink="http://www.w3.org/1999/xlink" x="0px" y="0px"
	 viewBox="0 0 362.2 362.2" style="enable-background:new 0 0 362.2 362.2;" xml:space="preserve">
<g id="Layer_2_00000002374780458126686660000002387734981859602817_">
	<g id="katman_1">
		<path style="fill:#BE1E1A;" d="M362.2,181.1c0,100-81.1,181.1-181.1,181.1S0,281.1,0,181.1S81.1,0,181.1,0
			c99.997-0.022,181.078,81.023,181.1,181.02C362.2,181.047,362.2,181.073,362.2,181.1"/>
		<polygon style="fill:#FDCE00;" points="157.2,328.1 154.4,328.5 154.1,326.2 158.4,325.5 160.3,325.8 158,341.2 155.4,340.8 		"/>
		<path style="fill:#FDCE00;" d="M166.7,338L166.7,338c0.1-1.9,1.2-3,3-3.7c-1.366-0.61-2.205-2.008-2.1-3.5l0,0
			c0.1-2.4,2.5-4.1,5.6-3.9s5.3,2,5.1,4.4l0,0c-0.074,1.479-1.016,2.774-2.4,3.3c1.6,0.9,2.7,2,2.6,3.8l0,0
			c-0.1,2.8-2.7,4.3-6.1,4.2S166.6,340.6,166.7,338 M175.9,338.3L175.9,338.3c0.1-1.5-1.3-2.4-3.1-2.5s-3.3,0.8-3.4,2.2l0,0
			c-0.1,1.3,1.1,2.4,3.1,2.5S175.8,339.5,175.9,338.3L175.9,338.3z M175.7,331.4L175.7,331.4c-0.02-1.298-1.089-2.333-2.386-2.313
			c-0.071,0.001-0.143,0.005-0.214,0.013c-1.7-0.1-2.8,0.8-2.9,2l0,0c-0.1,1.3,1.1,2.3,2.6,2.4c1.354,0.24,2.646-0.663,2.887-2.017
			C175.692,331.456,175.696,331.428,175.7,331.4L175.7,331.4z"/>
		<path style="fill:#FDCE00;" d="M187.9,341.3c-1.2-1.1-2-2.7-2.2-5.8l0,0c-0.3-4.7,1.7-8.5,6.1-8.8c1.718-0.14,3.427,0.358,4.8,1.4
			l-1.3,2.2c-0.95-0.79-2.167-1.184-3.4-1.1c-2.3,0.1-3.4,2.3-3.4,5.1c0.908-1.061,2.206-1.71,3.6-1.8c3-0.2,5.5,1.4,5.7,4.5l0,0
			c0.2,3.1-2.2,5.4-5.4,5.6C190.788,342.77,189.173,342.303,187.9,341.3 M195,337.3L195,337.3c-0.1-1.6-1.4-2.6-3.3-2.5
			c-1.612-0.044-2.955,1.227-2.999,2.839c-0.001,0.02-0.001,0.041-0.001,0.061l0,0c0.1,1.6,1.4,2.7,3.4,2.6
			c1.607-0.005,2.906-1.311,2.901-2.919C195.001,337.354,195.001,337.327,195,337.3L195,337.3z"/>
		<path style="fill:#FDCE00;" d="M205.1,336.9L205.1,336.9c-0.319-1.712,0.539-3.428,2.1-4.2c-1.463-0.326-2.576-1.518-2.8-3l0,0
			c-0.4-2.3,1.5-4.5,4.5-5s5.6,0.8,6,3.2l0,0c0.299,1.475-0.336,2.983-1.6,3.8c1.8,0.5,3.1,1.4,3.4,3.2l0,0c0.5,2.7-1.7,4.8-5,5.4
			S205.5,339.5,205.1,336.9 M212.3,328.5L212.3,328.5c-0.2-1.2-1.5-2-3.1-1.7s-2.5,1.4-2.3,2.6l0,0c0.2,1.3,1.6,2,3.1,1.8
			S212.6,329.8,212.3,328.5L212.3,328.5z M214,335.1L214,335.1c-0.3-1.4-1.8-2.1-3.6-1.8s-3,1.5-2.8,2.9l0,0
			c0.2,1.2,1.6,2.1,3.6,1.7S214.2,336.4,214,335.1L214,335.1z"/>
		<path style="fill:#FDCE00;" d="M75.8,105.9c27.8-41.8,83.9-65.8,140.2-50.3c54.9,15.1,93.6,65.4,93.9,121.9
			c0.3,57.5-37.7,107.4-94,123c-54.9,15.2-111.1-7.3-140-50.2c22.6,21.3,49.2,31.7,80.3,29.6s56.7-15.9,75.4-40.8
			c30.645-40.351,26.623-97.168-9.4-132.8C185.2,69.6,119.9,63.7,75.8,105.9"/>
		<polygon style="fill:#FDCE00;" points="28.7,133.3 27.1,137.3 22.7,135.6 28,122.9 32.3,124.6 30.6,128.7 41.5,133.2 39.6,137.8 
					"/>
		
			<rect x="39.924" y="122.083" transform="matrix(0.434 -0.9009 0.9009 0.434 -88.4357 108.8064)" style="fill:#FDCE00;" width="4.9" height="5.4"/>
		<path style="fill:#FDCE00;" d="M40.1,116.9L40.1,116.9c-4.3-2.5-5.8-7.3-3.6-11.2c1.407-2.549,4.205-4.006,7.1-3.7l0.3,4.9
			c-1.224-0.221-2.457,0.336-3.1,1.4c-0.8,1.5,0,3.2,1.7,4.2l0,0c1.9,1.1,3.7,0.8,4.5-0.6c0.7-1.2,0.4-2.3-0.4-3.5l4.3-2.3
			c1.797,2.432,1.954,5.706,0.4,8.3C49.3,118,44.5,119.4,40.1,116.9"/>
		
			<rect x="52.893" y="99.435" transform="matrix(0.5605 -0.8282 0.8282 0.5605 -60.2601 90.7217)" style="fill:#FDCE00;" width="4.9" height="5.4"/>
		<polygon style="fill:#FDCE00;" points="53.5,81.4 56.8,77.6 61.5,81.7 59.6,74.4 63.4,70.1 65.4,78.7 75.9,80.9 72,85.3 
			66.1,84.1 66.6,86.2 69.2,88.5 65.9,92.2 		"/>
		<path style="fill:#FDCE00;" d="M70.1,63.5l3.6-3.3l15.8,8l-4,3.6l-2.1-1.1l-3.9,3.5l0.9,2.1l-3.9,3.6L70.1,63.5z M80,68.7l-3.7-2
			l1.7,3.9L80,68.7z"/>
		<path style="fill:#FDCE00;" d="M89.3,65.4l0.1-4.4c1.891,0.166,3.777-0.368,5.3-1.5c0.7-0.5,0.9-1,0.6-1.3l0,0
			c-0.3-0.4-0.8-0.3-2.3,0.3c-3.1,1.4-6.1,2.2-8.2-0.6l0,0c-1.8-2.5-1.5-5.8,1.9-8.2c1.914-1.544,4.348-2.296,6.8-2.1l0.2,4.4
			c-1.635-0.089-3.253,0.368-4.6,1.3c-0.6,0.4-0.7,0.9-0.5,1.2l0,0c0.3,0.4,0.8,0.4,2.2-0.3c3.5-1.6,6.3-2.1,8.3,0.6l0,0
			c2,2.8,1.2,6-2.1,8.4C94.822,64.916,92.056,65.706,89.3,65.4"/>
		<polygon style="fill:#FDCE00;" points="102.1,45.4 98.3,47.6 96,43.5 107.9,36.7 110.2,40.7 106.4,42.9 112.3,53.1 108,55.6 		"/>
		<path style="fill:#FDCE00;" d="M115.5,33l4.5-2l12.4,12.7l-4.9,2.2l-1.6-1.7l-4.8,2.1l0.2,2.3l-4.9,2.1L115.5,33z M123.1,41
			l-2.9-3.1l0.4,4.2L123.1,41z"/>
		<polygon style="fill:#FDCE00;" points="130.5,26.9 135.5,25.5 140.1,30.2 141.6,23.8 146.6,22.3 151.1,38.2 146.3,39.5 
			144.1,31.7 142.4,38.2 142.3,38.3 137.4,33.6 139.7,41.4 135,42.7 		"/>
		<path style="fill:#FDCE00;" d="M153.5,29.4L153.5,29.4c-0.6-4.8,2.4-9,6.9-9.6s8.5,2.7,9.2,7.4l0,0
			c0.75,4.55-2.331,8.847-6.881,9.597c-0.006,0.001-0.013,0.002-0.019,0.003c-4.517,0.551-8.626-2.665-9.176-7.183
			C153.515,29.545,153.507,29.473,153.5,29.4 M164.6,27.9L164.6,27.9c-0.3-2-1.7-3.6-3.6-3.3s-2.8,2.1-2.6,4l0,0
			c0.3,1.9,1.7,3.5,3.6,3.3S164.9,29.8,164.6,27.9z"/>
		<polygon style="fill:#FDCE00;" points="174.4,18.6 179.1,18.7 184.3,26 184.4,18.7 189.3,18.8 189,35.3 184.6,35.2 179.2,27.5 
			179.1,35.1 174.1,35 		"/>
		<path style="fill:#FDCE00;" d="M193.8,28.1l1.2-9l5,0.7l-1.2,8.9c-0.3,2,0.6,3,1.9,3.2s2.4-0.5,2.6-2.5l1.2-9l5,0.7l-1.2,8.9
			c-0.7,5.6-4,7.4-8.4,6.8S193.1,33.5,193.8,28.1"/>
		<path style="fill:#FDCE00;" d="M223.8,24.4l7.9,2.6c1.542,0.319,2.862,1.309,3.6,2.7c0.345,0.861,0.381,1.816,0.1,2.7l0,0
			c-0.457,1.663-1.975,2.812-3.7,2.8c1.6,1.2,2.5,2.6,1.8,4.8l0,0c-0.8,2.5-3.3,3.7-6.9,2.6l-7.8-2.6L223.8,24.4z M227,38.3
			c1,0.3,1.7,0,1.9-0.6l0,0c0.2-0.7-0.1-1.3-1.2-1.6l-2.4-0.8l-0.8,2.3L227,38.3z M228.5,32.7c1,0.3,1.6,0.1,1.8-0.6l0,0
			c0.2-0.7-0.2-1.2-1.2-1.6l-2-0.7l-0.7,2.2L228.5,32.7z"/>
		<polygon style="fill:#FDCE00;" points="242,30.7 253.5,36 251.6,40.1 244.5,36.8 243.8,38.3 250.4,41.4 248.8,45 242.2,42 
			241.4,43.6 248.6,46.9 246.7,51 235.1,45.6 		"/>
		<polygon style="fill:#FDCE00;" points="258.3,38.6 262.6,41.1 256.6,51.2 262.6,54.8 260.2,58.9 249.9,52.7 		"/>
		<polygon style="fill:#FDCE00;" points="272.8,47.6 283,55.2 280.3,58.8 274,54.1 273,55.5 278.8,59.8 276.5,63 270.6,58.6 
			269.6,60.1 275.9,64.8 273.2,68.4 263,60.7 		"/>
		<path style="fill:#FDCE00;" d="M287.2,58.7l4.2,3.9c4.3,4,4.3,8.4,0.9,12l0,0c-3.3,3.6-7.9,4-12.3-0.1l-4-3.8L287.2,58.7z
			 M283.5,71.2c1.7,1.6,3.4,1.8,5.1,0.1l0,0c1.6-1.7,1.3-3.5-0.4-5l-0.6-0.6l-4.7,5L283.5,71.2z"/>
		<path style="fill:#FDCE00;" d="M301.3,72.4l3.3,3.7l-12.2,11l-3.3-3.7L301.3,72.4z M304.9,69.8l2.7,3l-2.6,2.4l-2.7-3L304.9,69.8z
			"/>
		<polygon style="fill:#FDCE00;" points="302.5,90.2 307.5,79.2 310.9,83.7 308.1,89 314,87.7 317.3,92.1 305.6,94.1 300.9,97.7 
			297.8,93.7 		"/>
		<polygon style="fill:#FDCE00;" points="319.8,95.8 326.5,106.6 322.6,109 318.5,102.3 317.1,103.2 320.9,109.4 317.5,111.5 
			313.7,105.3 312.2,106.3 316.4,113 312.5,115.4 305.8,104.5 		"/>
		<path style="fill:#FDCE00;" d="M315.9,116.4l4.3,0.8c-0.484,1.845-0.271,3.803,0.6,5.5c0.4,0.8,0.8,1,1.2,0.8l0,0
			c0.4-0.2,0.4-0.7,0.1-2.3c-0.8-3.3-1.2-6.4,2-8l0,0c2.8-1.4,6-0.5,7.8,3.2c1.18,2.132,1.536,4.623,1,7l-4.4-0.5
			c0.367-1.578,0.191-3.234-0.5-4.7c-0.3-0.7-0.7-0.9-1.1-0.7l0,0c-0.4,0.2-0.5,0.7-0.1,2.2c1,3.8,1,6.6-1.9,8.1l0,0
			c-3.1,1.5-6.1,0.2-7.9-3.4C315.532,122.004,315.133,119.103,315.9,116.4"/>
		<path style="fill:#FDCE00;" d="M336.6,127.3l1.9,4.6l-15.2,6.2l-1.9-4.6L336.6,127.3z M340.9,126.1l1.5,3.7l-3.3,1.3l-1.5-3.7
			L340.9,126.1z"/>
	</g>
</g>
</svg>
