<?xml version="1.0" encoding="iso-8859-1"?>
<!-- Generator: Adobe Illustrator 29.7.1, SVG Export Plug-In . SVG Version: 9.03 Build 0)  -->
<svg version="1.1" id="Layer_1" xmlns="http://www.w3.org/2000/svg" xmlns:xlink="http://www.w3.org/1999/xlink" x="0px" y="0px"
	 viewBox="0 0 841.89 595.28" style="enable-background:new 0 0 841.89 595.28;" xml:space="preserve">
<path style="fill:#FFFFFF;" d="M144.917,290.435l0.347-13.931l1.082-13.565c46.277-331.896,505.124-318.02,534.519,13.565
	l0.34,13.931l-0.34,13.914c-29.93,333.447-488.906,343.51-534.519,13.932l-1.082-13.932L144.917,290.435"/>
<path style="fill:#FFFFFF;" d="M202.79,292.924l1.07-21.067l3.212-20.355c56.564-234.567,385.473-209.801,406.254,30.709v10.713
	l-1.083,21.062c-33.36,244.457-374.334,244.287-408.383,0l-0.712-10.349L202.79,292.924"/>
<path style="fill:#FFFFFF;" d="M204.218,293.994v-10.354l1.072-10.359c33.878-246.394,384.032-240.614,406.601,10.359l0.353,10.354
	l-0.353,10.355c-20.806,248.035-371.749,259.533-406.601,10.354l-1.072-10.354V293.994"/>
<path style="fill-rule:evenodd;clip-rule:evenodd;fill:#56C2B4;" d="M202.79,272.927l1.428-8.225
	C246.84,21.668,579.71,34.376,610.832,272.569l1.411,17.866l-15.354-7.153l-6.085,0.723l-12.872-0.723l-10.329-7.136l-7.873-4.636
	l-3.223-1.795l-2.507-0.712h-1.07l1.801-0.345l4.282-0.725l-3.213,1.782l-8.225,2.507c-7.592,2.001-15.123,0.048-20.72-5.36
	l-3.212-3.23l-7.508-6.064l-5.001-2.497l-5.353-1.793l-5.719-0.347l-2.495,0.712l-2.87,1.07l-22.509-12.861l-12.874-14.272
	l-7.142-11.8l-3.577,1.447c-10.962,2.987-19.819-0.627-25.354-10.365l-2.143-3.932h-2.505l-5.713,0.365l-6.443-1.07l-3.212-1.072
	l-2.129-2.145l-23.239,13.571l-17.867,10.713l-12.143,7.859l-26.438,3.564l-3.219,2.142l-8.207,4.29l-10.007,3.564l-4.295,0.359
	l-3.93-0.712l-33.229,17.495h-31.803l-10.009,3.225l-8.206,3.578l-3.218,1.782L202.79,272.927"/>
<path style="fill:#0054A6;" d="M202.078,272.569l1.43-8.214c21.049-101.204,86.07-170.622,192.218-177.126l17.156-0.353v1.782
	l-17.156,0.353C290.396,95.377,225.9,164.813,204.943,265.081l-1.436,8.212L202.078,272.569"/>
<path style="fill:#0054A6;" d="M412.882,86.877l8.219,0.712c104.721,13.205,177.577,77.867,190.438,184.98l1.435,17.866h-1.787
	l-1.425-17.508c-12.823-106.612-84.815-170.398-189.013-183.545l-7.867-0.723V86.877"/>
<polyline style="fill:#0054A6;" points="611.525,291.142 612.596,289.712 597.242,282.571 596.172,284.006 611.525,291.142 "/>
<polyline style="fill-rule:evenodd;clip-rule:evenodd;fill:#0054A6;" points="612.963,290.435 612.963,291.865 611.525,291.142 
	612.596,289.712 611.173,290.435 612.963,290.435 "/>
<polyline style="fill-rule:evenodd;clip-rule:evenodd;fill:#0054A6;" points="596.89,284.006 590.805,285.076 577.933,284.366 
	577.933,282.571 590.805,283.283 596.89,282.571 596.89,284.006 "/>
<polyline style="fill-rule:evenodd;clip-rule:evenodd;fill:#0054A6;" points="597.242,282.571 596.89,282.571 596.89,284.006 
	596.172,284.006 597.242,282.571 "/>
<polyline style="fill:#0054A6;" points="577.227,284.006 566.861,276.864 559,272.217 556.167,270.433 553.659,269.715 
	554.366,268.293 556.86,269.003 560.072,270.787 567.932,275.435 578.299,282.571 577.227,284.006 "/>
<polyline style="fill-rule:evenodd;clip-rule:evenodd;fill:#0054A6;" points="577.946,284.353 577.592,284.353 577.227,283.993 
	578.299,282.571 577.946,282.571 577.946,284.353 "/>
<polyline style="fill-rule:evenodd;clip-rule:evenodd;fill:#0054A6;" points="554.001,269.715 552.213,268.293 554.731,267.933 
	559,267.221 559,269.003 554.731,269.715 553.296,269.715 554.001,268.293 554.001,269.715 "/>
<polyline style="fill-rule:evenodd;clip-rule:evenodd;fill:#0054A6;" points="554.366,268.28 554.001,268.28 554.001,269.704 
	553.659,269.704 554.366,268.28 "/>
<path style="fill:#0054A6;" d="M559.379,268.658l-3.212,1.774c-9.953,3.505-18.154,5.44-27.51-0.717l-2.508-2.14l1.072-1.436
	l2.494,2.14c9.612,6.12,15.148,4.276,25.357,0.723l3.234-1.782L559.379,268.658"/>
<polyline style="fill-rule:evenodd;clip-rule:evenodd;fill:#0054A6;" points="559.014,267.221 559.379,268.658 558.307,267.221 
	559.014,269.003 559.014,267.221 "/>
<path style="fill:#0054A6;" d="M526.139,267.575l-3.212-3.22c-6.023-5.53-16.145-13.267-25.028-9.988l-2.848,1.07l-1.069-1.447
	l2.859-1.059l3.212-0.725l5.706,0.366l5.742,1.795l4.988,2.489l7.507,6.072l3.213,3.212L526.139,267.575"/>
<polyline style="fill-rule:evenodd;clip-rule:evenodd;fill:#0054A6;" points="526.139,267.575 527.209,266.14 526.139,267.575 "/>
<polyline style="fill:#0054A6;" points="493.981,255.438 495.051,254.002 472.53,241.148 471.471,242.578 493.981,255.438 "/>
<polyline style="fill-rule:evenodd;clip-rule:evenodd;fill:#0054A6;" points="495.051,255.438 494.334,255.784 493.981,255.438 
	495.051,254.002 493.981,254.002 495.051,255.438 "/>
<polyline style="fill:#0054A6;" points="471.471,242.578 472.543,241.148 459.682,226.87 458.623,228.3 471.471,242.578 "/>
<polyline style="fill-rule:evenodd;clip-rule:evenodd;fill:#0054A6;" points="471.471,242.578 472.543,241.148 471.471,242.578 "/>
<polyline style="fill:#0054A6;" points="458.612,228.287 460.036,227.217 452.905,215.434 451.471,216.504 458.612,228.287 "/>
<polyline style="fill-rule:evenodd;clip-rule:evenodd;fill:#0054A6;" points="458.612,228.287 460.036,227.217 459.682,226.857 
	458.612,228.287 "/>
<path style="fill:#0054A6;" d="M452.54,216.504l-3.577,1.43c-11.108,2.908-20.83-0.184-26.451-10.354l-2.129-3.937l1.425-1.057
	l2.14,3.922c5.074,9.188,14.091,13.008,24.298,9.996l3.226-1.424L452.54,216.504"/>
<polyline style="fill-rule:evenodd;clip-rule:evenodd;fill:#0054A6;" points="452.905,215.426 452.54,214.722 451.471,215.08 
	452.54,216.504 451.471,216.504 452.905,215.426 "/>
<polyline style="fill:#0054A6;" points="421.453,203.643 418.595,203.643 412.882,204.008 406.092,202.931 402.517,201.86 
	400.375,199.719 401.445,198.283 403.587,200.431 406.817,201.502 412.882,202.573 418.595,202.226 420.748,202.226 
	421.453,203.643 "/>
<polyline style="fill-rule:evenodd;clip-rule:evenodd;fill:#0054A6;" points="421.818,202.585 421.453,202.237 420.748,202.237 
	421.453,203.656 420.383,203.656 421.818,202.585 "/>
<polyline style="fill:#0054A6;" points="401.445,199.719 378.225,213.273 360.356,224.005 348.209,231.865 347.137,230.429 
	359.286,222.57 377.147,211.867 400.375,198.283 401.445,199.719 "/>
<polyline style="fill-rule:evenodd;clip-rule:evenodd;fill:#0054A6;" points="401.445,198.283 401.098,197.925 400.375,198.283 
	401.445,199.719 400.375,199.719 401.445,198.283 "/>
<polyline style="fill:#0054A6;" points="348.209,231.865 347.497,230.429 321.058,233.994 321.77,235.429 348.209,231.865 "/>
<polyline style="fill-rule:evenodd;clip-rule:evenodd;fill:#0054A6;" points="348.209,231.865 347.497,230.429 347.137,230.429 
	348.209,231.865 "/>
<polyline style="fill:#0054A6;" points="321.77,235.442 318.558,237.582 310.332,241.866 300.344,245.43 295.697,245.796 
	291.407,245.072 292.118,243.648 295.697,244.36 299.619,244.014 309.274,240.436 317.487,236.146 320.699,234.005 321.77,235.442 
	"/>
<polyline style="fill-rule:evenodd;clip-rule:evenodd;fill:#0054A6;" points="321.046,233.994 320.699,233.994 321.756,235.429 
	321.046,233.994 "/>
<polyline style="fill:#0054A6;" points="292.106,245.072 291.037,243.635 257.808,261.144 258.879,262.562 292.106,245.072 "/>
<polyline style="fill-rule:evenodd;clip-rule:evenodd;fill:#0054A6;" points="292.106,243.635 291.395,243.288 291.037,243.635 
	292.106,245.072 291.395,245.072 292.106,243.635 "/>
<rect x="226.722" y="261.151" style="fill:#0054A6;" width="31.803" height="1.788"/>
<polyline style="fill-rule:evenodd;clip-rule:evenodd;fill:#0054A6;" points="258.891,262.573 258.538,262.939 258.538,261.157 
	257.82,261.157 258.891,262.573 "/>
<polyline style="fill:#0054A6;" points="227.08,262.573 217.079,265.791 208.867,269.363 205.655,271.158 203.147,273.652 
	202.078,272.223 204.572,269.715 207.784,267.933 216.009,264.355 226.375,261.157 227.08,262.573 "/>
<polyline style="fill-rule:evenodd;clip-rule:evenodd;fill:#0054A6;" points="226.722,261.144 226.375,261.144 227.08,262.562 
	226.722,262.928 226.722,261.144 "/>
<polyline style="fill-rule:evenodd;clip-rule:evenodd;fill:#0054A6;" points="203.147,273.652 201.718,275.082 202.078,272.569 
	203.494,273.293 202.078,272.217 203.147,273.652 "/>
<polyline style="fill:#0054A6;" points="368.218,295.43 375.719,292.212 381.436,289 385.374,285.788 387.154,287.941 
	382.853,291.507 377.147,294.72 369.653,297.932 368.218,295.43 "/>
<polyline style="fill:#0054A6;" points="385.719,285.788 387.514,284.729 392.514,281.864 398.58,280.789 402.157,281.864 
	404.657,283.641 403.227,286.148 400.722,284.366 398.58,283.641 393.22,284.729 388.938,287.218 387.154,288.288 385.719,285.788 
	"/>
<polyline style="fill-rule:evenodd;clip-rule:evenodd;fill:#0054A6;" points="385.374,285.788 385.719,285.788 387.154,288.288 
	387.154,287.941 385.374,285.788 "/>
<polyline style="fill:#0054A6;" points="405.022,284.006 411.452,289.712 416.44,293.994 418.595,295.43 420.031,295.43 
	419.311,298.284 417.171,297.918 414.664,296.155 409.658,291.865 402.869,285.788 405.022,284.006 "/>
<polyline style="fill-rule:evenodd;clip-rule:evenodd;fill:#0054A6;" points="404.657,283.641 405.022,284.006 402.88,285.788 
	403.227,286.135 404.657,283.641 "/>
<path style="fill-rule:evenodd;clip-rule:evenodd;fill:#0054A6;" d="M513.277,268.658l-6.07-4.649l-5.366-5.717l1.436-1.782
	l1.071-0.725l1.07-0.347l2.859,0.347l2.858,1.072l4.283,2.852l3.943,4.301l4.647,3.924l5.706,3.924l5.718,2.854l6.436,2.153
	l6.776,1.782l-3.577-3.936l2.872-1.059c18.128-3.116,30.758,13.528,46.441,19.272l2.507-0.712v-5.354l7.847,4.284l3.577,2.148
	l4.649,1.43l-1.438-2.854l-1.422-2.518l-3.932-3.924l-5.353-2.487l-2.859-0.365l-2.859-0.36l-3.565,0.36l-2.871,0.712l-2.859,1.07
	c-12.288,2.506-17.546-8.225-26.427-14.278l-3.943-1.795l-4.988-1.059l-2.871,0.712c-21.195,14.601-28.822-21.444-49.3-15.361
	l-3.577,2.142l3.942,4.647l4.27,3.578l4.659,2.852L513.277,268.658"/>
<polyline style="fill:#0054A6;" points="495.417,359.709 602.23,359.709 599.736,366.498 597.96,371.122 596.89,372.909 
	596.172,373.992 495.417,373.992 495.417,359.709 "/>
<polyline style="fill:#0054A6;" points="496.488,382.206 593.312,382.206 589.028,390.053 583.311,399.35 496.488,399.35 
	496.488,382.206 "/>
<polyline style="fill:#0054A6;" points="496.488,409.703 576.521,409.703 567.932,421.468 561.155,429.692 558.296,432.553 
	556.508,433.987 496.488,433.987 496.488,409.703 "/>
<polyline style="fill:#0054A6;" points="495.417,447.554 541.505,447.554 536.505,451.837 524.01,461.121 508.982,471.109 
	501.841,475.052 496.121,477.194 495.417,447.554 "/>
<path style="fill:#0054A6;" d="M279.624,449.33h104.318v46.795l-12.5-2.142c-28.155-5.598-65.034-16.826-86.112-37.864
	L279.624,449.33"/>
<rect x="388.573" y="433.977" style="fill:#0054A6;" width="15.721" height="16.426"/>
<rect x="388.573" y="400.054" style="fill:#0054A6;" width="16.444" height="12.144"/>
<rect x="388.573" y="373.992" style="fill:#0054A6;" width="16.444" height="11.073"/>
<rect x="408.234" y="410.056" style="fill:#0054A6;" width="6.442" height="24.639"/>
<rect x="449.67" y="410.786" style="fill:#0054A6;" width="9.295" height="24.626"/>
<rect x="461.472" y="433.27" style="fill:#0054A6;" width="11.789" height="15.721"/>
<rect x="478.615" y="432.565" style="fill:#0054A6;" width="13.59" height="16.425"/>
<rect x="478.273" y="398.983" style="fill:#0054A6;" width="13.932" height="12.861"/>
<rect x="461.106" y="398.983" style="fill:#0054A6;" width="12.507" height="12.861"/>
<rect x="478.273" y="372.922" style="fill:#0054A6;" width="14.636" height="11.424"/>
<rect x="459.682" y="373.264" style="fill:#0054A6;" width="13.566" height="11.082"/>
<rect x="478.273" y="353.989" style="fill:#0054A6;" width="13.932" height="7.861"/>
<rect x="476.838" y="333.635" style="fill:#0054A6;" width="15.367" height="6.778"/>
<rect x="476.838" y="321.139" style="fill:#0054A6;" width="15.367" height="6.789"/>
<rect x="476.838" y="306.148" style="fill:#0054A6;" width="15.367" height="6.425"/>
<path style="fill:#0054A6;" d="M443.609,445.059l1.435,49.278l-10.012,1.788l-7.859,0.718h-5.354l-1.07-50.347
	c4.148-12.156,12.714-23.982,20.72-6.436L443.609,445.059"/>
<rect x="276.394" y="411.49" style="fill:#0054A6;" width="107.196" height="22.85"/>
<rect x="275.323" y="385.771" style="fill:#0054A6;" width="108.261" height="15.356"/>
<rect x="276.034" y="362.568" style="fill:#0054A6;" width="107.179" height="14.636"/>
<rect x="230.299" y="345.06" style="fill:#0054A6;" width="14.647" height="11.084"/>
<rect x="253.52" y="343.625" style="fill:#0054A6;" width="15.725" height="12.519"/>
<polyline style="fill:#0054A6;" points="211.372,346.13 211.732,349.708 212.444,352.92 214.227,356.145 220.656,356.145 
	220.656,345.06 211.372,346.13 "/>
<polyline style="fill:#0054A6;" points="218.508,362.556 270.674,361.485 269.951,376.476 222.433,376.476 218.508,370.415 
	217.092,365.768 217.092,363.991 218.508,362.556 "/>
<polyline style="fill:#0054A6;" points="227.08,385.781 229.945,392.56 232.439,398.277 234.947,401.854 270.674,401.854 
	270.674,385.781 227.08,385.781 "/>
<polyline style="fill:#0054A6;" points="243.519,411.845 249.954,422.198 255.66,430.058 258.167,433.27 260.309,435.777 
	269.951,435.777 269.951,411.845 243.519,411.845 "/>
<rect x="452.175" y="449.343" style="fill:#0054A6;" width="6.79" height="41.782"/>
<rect x="407.164" y="449.33" style="fill:#0054A6;" width="7.859" height="47.147"/>
<rect x="389.296" y="341.496" style="fill:#0054A6;" width="84.317" height="6.069"/>
<polyline style="fill:#0054A6;" points="388.573,363.286 388.573,353.285 472.895,353.285 472.895,362.215 457.54,362.215 
	457.54,374.699 408.221,374.699 408.221,363.286 388.573,363.286 "/>
<polyline style="fill:#0054A6;" points="407.522,400.784 407.522,383.629 457.553,383.629 457.553,400.054 448.976,400.054 
	442.88,393.63 437.174,388.642 432.537,385.405 426.807,388.642 422.171,393.289 419.678,396.477 417.876,400.784 407.522,400.784 
	"/>
<polyline style="fill:#0054A6;" points="496.121,298.284 501.841,301.149 506.136,303.649 507.571,305.073 508.265,306.509 
	496.121,307.227 496.121,298.284 "/>
<polyline style="fill:#0054A6;" points="496.488,311.844 513.277,311.844 514.348,314.35 516.137,318.999 496.488,318.999 
	496.488,311.844 "/>
<polyline style="fill:#0054A6;" points="497.204,324.716 520.773,324.716 522.574,327.576 523.644,330.07 524.351,332.93 
	497.204,332.93 497.204,324.716 "/>
<rect x="496.488" y="340.776" style="fill:#0054A6;" width="23.578" height="12.861"/>
<polyline style="fill:#0054A6;" points="423.595,334.353 428.935,325.423 473.248,325.423 473.248,334.353 423.595,334.353 "/>
<polyline style="fill:#0054A6;" points="431.82,318.999 436.456,312.209 472.908,312.209 472.908,318.999 431.82,318.999 "/>
<polyline style="fill:#0054A6;" points="443.245,307.926 452.175,298.284 473.248,298.284 473.248,307.926 443.245,307.926 "/>
<rect x="461.472" y="291.507" style="fill:#0054A6;" width="11.071" height="5.352"/>
<rect x="476.838" y="293.282" style="fill:#0054A6;" width="15.367" height="7.144"/>
<rect x="475.767" y="282.211" style="fill:#0054A6;" width="15.368" height="6.789"/>
<rect x="475.767" y="270.44" style="fill:#0054A6;" width="15.368" height="6.776"/>
<rect x="475.767" y="260.074" style="fill:#0054A6;" width="15.368" height="7.147"/>
<rect x="475.767" y="250.072" style="fill:#0054A6;" width="15.368" height="6.784"/>
<rect x="475.767" y="240.076" style="fill:#0054A6;" width="15.368" height="6.79"/>
<rect x="475.767" y="230.083" style="fill:#0054A6;" width="15.368" height="6.789"/>
<rect x="475.767" y="202.931" style="fill:#0054A6;" width="15.368" height="6.778"/>
<rect x="475.767" y="193.654" style="fill:#0054A6;" width="15.368" height="7.136"/>
<rect x="475.767" y="184.73" style="fill:#0054A6;" width="15.368" height="7.142"/>
<rect x="475.767" y="176.159" style="fill:#0054A6;" width="15.368" height="6.788"/>
<rect x="475.767" y="165.445" style="fill:#0054A6;" width="15.368" height="6.776"/>
<rect x="474.684" y="156.503" style="fill:#0054A6;" width="17.51" height="7.507"/>
<rect x="474.684" y="148.654" style="fill:#0054A6;" width="17.51" height="6.79"/>
<rect x="478.273" y="141.161" style="fill:#0054A6;" width="10.341" height="5"/>
<polyline style="fill:#0054A6;" points="482.91,127.947 487.909,133.288 478.978,133.288 482.91,127.947 "/>
<polyline style="fill:#0054A6;" points="482.556,117.938 480.415,126.152 485.78,126.152 482.556,117.938 "/>
<rect x="480.415" y="135.441" style="fill:#0054A6;" width="5.707" height="3.93"/>
<polyline style="fill:#0054A6;" points="469.684,219.716 497.569,219.716 491.839,226.857 475.767,226.857 469.684,219.716 "/>
<polyline style="fill:#0054A6;" points="467.176,216.861 498.98,216.861 497.569,214.356 495.769,212.214 492.909,211.157 
	471.471,211.157 470.049,211.867 468.613,213.649 467.176,216.861 "/>
<rect x="309.263" y="343.625" style="fill:#0054A6;" width="65.024" height="10.731"/>
<polyline style="fill:#0054A6;" points="304.269,336.153 310.332,328.28 370.723,328.28 375.719,336.153 304.269,336.153 "/>
<polyline style="fill:#0054A6;" points="318.192,322.929 322.839,314.715 358.209,314.715 364.293,322.929 318.192,322.929 "/>
<polyline style="fill:#0054A6;" points="329.282,308.997 335.713,301.149 347.862,301.149 351.785,308.997 329.282,308.997 "/>
<rect x="340.708" y="296.489" style="fill:#0054A6;" width="3.217" height="3.937"/>
<polyline style="fill:#0054A6;" points="269.604,288.288 295.684,269.363 314.633,256.162 321.77,251.873 326.059,250.078 
	327.129,252.585 323.205,254.367 316.052,258.649 297.114,271.87 271.386,290.435 269.604,288.288 "/>
<polyline style="fill:#0054A6;" points="326.059,250.066 327.854,249.008 329.994,248.648 333.206,250.066 337.496,252.572 
	343.573,257.208 351.785,265.415 362.498,276.852 360.356,278.647 349.637,267.21 341.778,259.35 335.701,254.714 331.776,252.572 
	329.631,251.489 328.559,251.86 327.489,252.572 326.059,250.066 "/>
<polyline style="fill-rule:evenodd;clip-rule:evenodd;fill:#0054A6;" points="327.129,252.572 327.489,252.572 326.059,250.066 
	327.129,252.572 "/>
<polyline style="fill:#0054A6;" points="202.438,269.003 212.444,266.498 220.29,263.286 228.875,260.074 233.869,258.996 
	239.242,258.638 239.242,261.503 233.869,261.855 229.587,262.928 221.373,265.791 213.156,269.352 203.147,271.857 
	202.438,269.003 "/>
<polyline style="fill:#0054A6;" points="239.242,258.649 248.525,259.721 258.18,261.157 257.82,264.009 248.177,262.573 
	238.882,261.515 239.242,258.649 "/>
<polyline style="fill-rule:evenodd;clip-rule:evenodd;fill:#0054A6;" points="239.242,258.649 238.882,261.515 239.242,261.515 
	239.242,258.649 "/>
<path style="fill:#0054A6;" d="M242.094,272.217l16.073-10.361c11.6-7.354,27.26-19.376,42.177-18.22l3.924,0.378l-0.365,2.852
	l-3.559-0.353c-14.656-0.894-29.316,10.671-40.728,17.842l-16.086,10.355L242.094,272.217"/>
<polyline style="fill:#0054A6;" points="299.979,245.43 311.405,239.366 322.481,234.37 328.199,232.923 333.918,231.865 
	339.982,231.141 346.414,230.792 346.414,233.647 339.982,233.994 334.278,234.717 328.559,235.789 323.205,237.219 312.84,241.853 
	301.401,247.938 299.979,245.43 "/>
<polyline style="fill:#0054A6;" points="338.202,235.442 339.638,234.005 341.065,233.294 344.632,231.876 347.497,231.152 
	350.715,229.37 352.133,231.876 348.567,233.66 345.355,234.717 342.49,235.789 341.42,236.146 339.982,237.582 338.202,235.442 "/>
<polyline style="fill:#0054A6;" points="350.715,229.357 357.864,224.723 363.928,220.786 375.371,214.722 386.796,208.65 
	393.22,204.726 400.375,200.084 401.792,202.573 394.655,207.22 388.226,211.144 365.363,223.293 359.286,227.217 352.133,231.865 
	350.715,229.357 "/>
<polyline style="fill-rule:evenodd;clip-rule:evenodd;fill:#0054A6;" points="352.133,231.865 350.715,229.357 352.133,231.865 "/>
<polyline style="fill:#0054A6;" points="442.174,269.003 445.044,264.355 445.751,261.855 445.751,258.638 448.245,259.361 
	448.245,262.562 447.527,265.791 444.315,270.787 442.174,269.003 "/>
<path style="fill:#0054A6;" d="M445.751,259.361l-0.707-4.994c-1.665-4.076-4.281-6.758-8.588-7.854l-2.494-0.371v-2.495
	l3.212,0.366c4.951,0.547,8.625,4.909,10.367,9.276l0.717,5.36L445.751,259.361"/>
<polyline style="fill-rule:evenodd;clip-rule:evenodd;fill:#0054A6;" points="448.258,259.361 448.258,258.649 445.751,259.361 
	445.751,258.649 448.258,259.361 "/>
<rect x="420.748" y="243.288" style="fill:#0054A6;" width="13.224" height="2.855"/>
<polyline style="fill:#0054A6;" points="420.383,246.143 415.383,245.072 412.882,243.635 411.452,242.218 408.234,237.929 
	407.522,232.577 410.017,231.865 410.74,236.872 413.606,240.436 414.677,241.506 416.453,242.578 421.101,243.635 420.383,246.143 
	"/>
<polyline style="fill-rule:evenodd;clip-rule:evenodd;fill:#0054A6;" points="420.748,246.143 420.383,246.143 421.101,243.635 
	420.748,243.288 420.748,246.143 "/>
<polyline style="fill:#0054A6;" points="407.522,231.865 408.234,226.145 410.74,217.934 415.736,204.355 418.241,205.79 
	413.241,219.356 410.74,227.217 410.017,232.577 407.522,231.865 "/>
<polyline style="fill-rule:evenodd;clip-rule:evenodd;fill:#0054A6;" points="407.522,232.577 407.522,231.865 410.017,232.577 
	410.017,231.865 407.522,232.577 "/>
<polyline style="fill:#0054A6;" points="466.472,242.218 463.248,235.429 460.752,228.999 457.177,224.005 454.669,221.498 
	451.471,219.716 453.245,217.574 456.457,219.356 459.316,222.221 462.907,227.564 465.74,233.994 468.978,240.783 466.472,242.218 
	"/>
<polyline style="fill:#0054A6;" points="452.175,220.074 448.258,219.003 444.681,219.356 440.386,219.716 436.102,219.356 
	436.102,216.861 440.386,217.227 443.963,216.861 448.258,216.504 452.905,217.574 452.175,220.074 "/>
<polyline style="fill-rule:evenodd;clip-rule:evenodd;fill:#0054A6;" points="453.245,217.574 452.905,217.574 452.175,220.081 
	451.471,219.716 453.245,217.574 "/>
<polyline style="fill:#0054A6;" points="435.385,219.356 429.302,217.21 423.947,213.286 420.383,207.932 417.512,201.86 
	420.031,200.431 422.512,206.508 425.737,211.144 430.736,214.722 436.456,216.861 435.385,219.356 "/>
<polyline style="fill-rule:evenodd;clip-rule:evenodd;fill:#0054A6;" points="436.102,219.356 435.032,219.356 435.385,219.356 
	436.456,216.861 436.102,216.861 436.102,219.356 "/>
<polyline style="fill:#0054A6;" points="190.294,381.488 202.438,362.58 203.147,361.145 203.147,359.356 204.583,358.639 
	209.59,369.345 207.797,370.076 207.072,368.639 206.359,368.639 205.29,369.71 196.358,383.642 202.438,385.781 209.225,382.924 
	211.732,381.488 212.096,379.347 213.861,378.64 218.162,388.642 216.368,389.348 214.584,387.924 212.096,388.995 191.364,398.277 
	188.858,399.715 188.51,401.489 186.717,402.561 182.427,392.56 184.21,391.853 185.992,392.925 188.51,392.219 197.083,388.289 
	183.139,383.276 181.357,383.276 181.357,385.43 179.575,386.136 174.568,374.699 175.984,373.992 177.074,375.428 177.78,376.135 
	180.997,377.559 190.294,381.488 "/>
<path style="fill-rule:evenodd;clip-rule:evenodd;fill:#0054A6;" d="M165.996,343.625l1.782,6.801l11.437,1.424v-4.284l-6.083-0.718
	l6.083-4.647v-7.848L165.996,343.625 M179.215,334.353l12.855-9.295l1.793-1.06v-1.787l1.782-0.365l2.867,10.706l-1.795,0.365
	l-0.707-1.07l-1.076-0.365l-1.79,1.07l-6.429,4.649l2.865,11.436l7.501,0.704h1.782l1.07-0.704l0.36-1.438l1.782-0.353l2.14,8.919
	l-1.78,0.365l-0.36-0.705l-0.712-0.73l-2.852-0.341l-19.298-2.506v-4.284l6.066,0.707l-2.142-8.579l-3.924,2.507V334.353z"/>
<polyline style="fill:#0054A6;" points="181.357,307.567 167.066,317.209 164.561,318.634 163.843,319.352 163.49,320.421 
	161.706,320.773 160.624,309.71 162.419,309.71 163.131,310.774 163.843,310.774 165.284,310.414 175.984,304.001 165.637,299.353 
	164.561,298.99 163.131,298.642 162.419,299.353 162.06,300.426 160.278,300.772 159.554,290.782 161.349,290.782 162.06,292.212 
	164.561,293.647 180.997,301.138 188.858,300.426 191.711,300.079 192.434,298.271 194.218,297.918 194.936,308.638 
	193.146,308.997 192.071,307.213 189.216,307.213 181.357,307.567 "/>
<path style="fill:#0054A6;" d="M185.645,283.283l-3.923-7.501l1.416-1.07l1.071,0.724l1.435,0.347l2.141-0.347l1.784-1.782
	l0.723-1.083l0.705-1.424l0.366-2.487v-2.867l-1.07-2.863l-0.723-1.072l-0.712-1.075l-2.507-0.707l-3.212,1.07l-1.059,1.419
	l-1.083,2.505l-3.576,10.001l-1.783,2.507l-1.782,1.423l-2.141,1.083h-2.853l-4.301-1.435l-1.43-1.43l-1.071-1.782l-1.436-4.647
	l-0.347-4.996l0.711-3.935l1.43-3.93l2.494-2.854l2.865-2.499l4.636,5.719l-1.424,1.417l-1.43-0.347l-1.782,0.347
	c-7.714,7.142,0.237,23.263,5.719,6.79l2.487-6.077l2.161-4.271l1.07-1.436l1.782-1.07l2.142-0.712h2.853l4.648,1.782l1.782,1.436
	l1.43,2.142l1.794,4.994v8.225l-0.71,2.142l-1.79,3.924l-3.217,2.853L185.645,283.283"/>
<polyline style="fill:#0054A6;" points="197.43,248.643 196.011,247.938 195.646,246.866 195.288,246.143 192.794,245.072 
	170.631,239.713 167.778,239.001 165.996,240.796 164.561,240.076 170.99,214.722 177.433,216.151 177.062,218.657 174.568,219.003 
	173.132,221.511 170.631,232.935 179.215,235.077 180.997,226.87 181.357,224.352 180.997,223.293 179.575,222.933 180.286,220.428 
	188.858,222.581 188.146,224.723 187.075,225.075 186.351,225.433 184.935,227.929 183.139,236.146 195.646,239.001 198.866,226.87 
	198.866,224.005 196.718,222.221 197.43,219.716 204.218,221.511 197.43,248.643 "/>
<path style="fill-rule:evenodd;clip-rule:evenodd;fill:#0054A6;" d="M188.51,186.865v-6.418l-1.806,0.712l-2.852,2.865l-2.495,3.559
	l-6.789,15.713l1.416,0.725l1.795-1.09l2.853,0.725l7.877,3.577v-7.149l-6.806-3.218l2.506-4.994l1.435-2.494l1.777-1.795
	L188.51,186.865 M192.071,201.514l2.505-5.359l0.712-5.354l-0.712-2.14l-2.153-1.438l-2.129-0.358h-1.784v-6.418h2.854l3.212,0.712
	l2.494,1.795l1.795,2.487l1.07,3.22v3.212l13.221-1.782l2.14-0.712l1.43-1.083l1.422,0.712l-3.218,7.499l-17.143,2.155l-2.142,4.634
	l8.214,3.566l2.865,1.083l0.712-0.366l1.07-1.072l1.43,0.725l-4.282,9.994l-1.795-0.723l0.358-1.424l-0.358-0.705l-2.495-1.435
	l-12.855-5.707v-7.149L192.071,201.514z"/>
<path style="fill-rule:evenodd;clip-rule:evenodd;fill:#0054A6;" d="M192.071,157.231l-1.072-0.717
	c-6.539-3.279-8.346,8.048-1.07,7.149l2.142-1.43V157.231 M192.071,167.951v-1.794l-0.707,1.082L192.071,167.951z M192.071,162.233
	l0.352-0.354l0.371-1.428v-1.795l-0.723-1.424V162.233z M200.642,162.951l19.648,11.778l2.519,1.07l1.782-1.07l1.432,1.07
	l-5.372,9.295l-1.419-1.07l-0.358-2.161l-2.147-1.417l-19.643-12.149l-2.507-1.059l-0.724,0.349l-1.059,0.71l-0.723-0.347v-1.794
	l4.647-7.854l1.795,0.71v2.147L200.642,162.951z"/>
<path style="fill-rule:evenodd;clip-rule:evenodd;fill:#0054A6;" d="M232.439,138.301l-1.424,2.14l1.424,1.43v8.937l-14.654-13.571
	l-2.489-1.795l-1.795,0.723l-1.422-1.07l12.501-13.925l1.07-1.076l1.43-1.072l3.219-1.07h2.14v7.142l-1.782-1.075h-1.795
	l-1.782,0.71l-1.782,1.436l-4.295,5.354l6.789,6.072l4.289-4.637l0.358-0.723V138.301 M232.439,141.871v8.937l2.142,1.776
	l1.794,2.148l0.349,0.723l-0.706,1.059l1.43,1.43l1.782-2.129v-8.225L232.439,141.871z M239.229,132.952v-4.287l-1.43,1.07
	l1.072-2.86v-2.505l-0.712-2.494l-1.784-1.782l-1.794-1.43l-2.142-0.712v7.142l1.43,2.142l0.353,1.782l-0.353,1.43l-1.43,1.782
	v6.072l2.865-2.494l1.782-1.795L239.229,132.952z M240.299,148.66l4.303-5.007c5.17-5.395,2.949-11.09-4.303-11.424l-1.07,0.723
	v-4.287l2.142-1.072l2.852-0.358l3.23,0.358l2.5,1.784l2.494,3.575l0.725,3.924l-1.072,3.936l-2.865,3.924l-10.007,11.079v-8.225
	L240.299,148.66z"/>
<path style="fill-rule:evenodd;clip-rule:evenodd;fill:#0054A6;" d="M245.313,88.659v6.789l-1.077,0.712h-1.07l-1.795-0.36
	l-1.059-1.07l-0.725-1.424v-1.43l0.367-1.422l1.07-1.072l2.865-1.07L245.313,88.659 M245.313,102.59l-0.712,0.712l-1.072-1.435
	l1.784-1.784V102.59z M245.313,95.449v-6.789l1.081,1.07l0.694,1.437l0.365,1.428l-0.712,1.411l-0.712,1.096L245.313,95.449z
	 M252.461,81.158l-2.507,0.712l-1.07,1.083l-0.358,1.782v1.424l0.724,1.43l1.417,0.723l1.436,0.347h0.36V81.158z M252.461,119.733
	v-14.291l-0.723-4.994l0.723-3.577v-0.353l-1.072-1.417l-6.076,4.981v2.507h0.358l0.723,0.36l2.131,8.924l1.782,4.282
	L252.461,119.733z M252.461,88.659l2.494-0.707c3.06-2.257,1.168-6.381-2.134-6.795h-0.36V88.659z M252.461,96.519v0.353V96.519z
	 M275.323,114.374L259.96,95.449l-1.78-1.789l-1.083-0.353l-1.072,0.353l-1.07-1.422l8.217-6.43l1.072,1.07l-0.718,1.076v1.059
	l1.441,2.5l14.656,17.508l1.782,2.142l2.14-0.36l1.059,1.43l-11.784,9.284c-6.059,6.339-15.39,4.338-20.36-1.782v-14.291l1.782,5.36
	c4.063,7.55,10.353,11.973,18.226,5.719L275.323,114.374z"/>
<polyline style="fill:#0054A6;" points="291.395,91.871 276.38,83.305 273.894,81.87 271.746,81.87 270.674,80.446 280.317,74.728 
	281.028,76.164 280.317,76.876 280.317,77.946 281.388,79.016 292.106,85.447 291.754,74.011 291.395,72.952 291.037,71.881 
	290.324,71.156 288.889,71.503 287.83,70.099 296.402,64.74 297.46,66.522 296.402,67.581 296.402,70.444 297.114,88.659 
	301.038,95.436 302.831,97.578 304.973,97.578 305.685,99.013 296.754,104.373 295.684,102.937 296.754,101.142 295.331,98.655 
	291.395,91.871 "/>
<path style="fill-rule:evenodd;clip-rule:evenodd;fill:#0054A6;" d="M313.91,45.812l-1.782,0.365l-1.424,0.706l-1.083,1.436v2.853
	l0.723,1.43l1.424,0.712l2.142,0.366V45.812 M313.91,79.741V57.25l-3.566,1.423l0.712,1.795l1.072-0.378l0.712,0.724l-0.712,9.285
	v4.647l1.07,3.924L313.91,79.741z M327.854,44.03v3.219l-1.077,1.071l-1.43,1.07h-2.852l-1.437-1.07l-0.705-1.071l0.347-3.219
	l0.724-1.07l1.43-1.083l2.854,0.376l1.436,0.707L327.854,44.03z M313.91,53.68l0.723-0.366l1.419-0.712l0.723-1.43l0.347-2.853
	l-1.07-1.071l-1.072-1.071l-1.07-0.365V53.68z M336.784,80.464l-8.585-22.515l-1.422-2.495l-2.142-0.347l-0.712-1.794l9.996-3.577
	l0.712,1.436l-0.712,1.071l-0.36,0.712l0.36,2.5l8.225,21.432l1.43,2.502l2.142,0.352l0.353,1.782l-13.931,5.373l-3.212,1.057
	l-3.218,0.36l-2.854-0.723l-2.5-1.059l-2.147-1.436l-1.795-1.43l-2.5-3.924V57.25l6.077-2.142l0.712,1.418l-1.072,1.423l-1.07,2.141
	l-0.712,5.013v5.354l1.072,4.637l2.506,4.295l3.212,2.494l2.142,0.711h1.782l4.647-0.711L336.784,80.464z"/>
<polyline style="fill:#0054A6;" points="365.363,54.385 380.725,70.099 382.162,71.169 383.942,71.516 383.942,73.312 
	372.865,75.452 372.518,73.669 373.935,73.312 373.935,72.599 373.588,71.516 361.788,59.745 357.864,65.104 359.646,72.239 
	360.356,75.094 362.151,75.817 362.498,77.599 352.145,79.389 351.785,77.599 352.856,77.247 353.216,76.164 353.216,73.669 
	348.933,51.172 347.862,48.32 346.067,47.608 345.715,46.172 356.08,44.03 356.434,45.812 355.362,46.172 354.997,47.249 
	354.997,49.737 356.792,59.033 365.005,46.537 365.363,45.812 365.363,45.102 364.651,44.743 363.224,44.384 362.858,42.601 
	375.371,40.095 375.719,41.877 373.212,42.96 371.083,46.172 365.363,54.385 "/>
<path style="fill-rule:evenodd;clip-rule:evenodd;fill:#0054A6;" d="M403.952,81.523h-0.365l-1.419-0.365l-1.07-1.07l-2.518,0.723
	l0.736,1.424l1.059,0.718l1.43,0.712h2.147V81.523 M403.952,57.238V50.82h-0.365l-5.719-2.153l-1.417-1.071l-0.365-1.436
	l0.365-1.417l0.347-0.724l0.723-0.706l2.142-1.077l3.218-0.359h1.072v-4.271h-1.435L397.52,38.3l-4.288,2.153l-1.795,1.424
	l-1.072,1.795l-1.07,4.283l0.725,2.494l1.07,2.153l4.276,2.841L403.952,57.238z M388.226,65.085l3.212,3.924l3.577,2.507
	l3.936,1.436h5.001v1.43l-0.365,0.713h0.365v1.793l-0.712-0.376l-1.072,0.376l-1.07-1.083l1.782-3.217h1.072v-3.924h-0.365
	l-5.354-1.07l-1.782-1.43l-0.725-2.494l0.36-1.07l0.712-1.436l-1.782-1.071L388.226,65.085z M403.952,83.665v-2.142l1.428-0.712
	l0.712-0.723v-0.712l-0.345-1.07l-0.725-0.718l-1.07-0.701v-1.793h0.705l2.507,0.71l1.435,1.43l0.705,1.782l-0.358,1.795
	l-1.059,1.424l-1.795,1.07L403.952,83.665z M403.952,37.606l3.212,0.347l3.212,1.071l3.576,1.782l2.854,2.865l-4.994,4.635
	l-1.795-0.711l0.359-1.436l-0.707-2.141l-1.782-1.058l-3.935-1.083V37.606z M403.952,68.662l2.5-0.358
	c7.355-1.899,6.358-9.545-0.705-10.354l-1.795-0.711V50.82l6.065,1.411l4.302,1.795l1.78,1.07l1.413,1.418l0.729,2.16l0.354,2.853
	l-0.354,2.488l-0.729,2.147l-1.413,2.142l-1.78,1.795l-2.507,1.07l-2.507,1.059l-5.352,0.723v1.43l1.07-2.153l-1.07,0.358V68.662z"
	/>
<polyline style="fill:#0054A6;" points="424.312,72.599 424.665,70.823 425.737,70.457 426.455,69.745 427.173,67.245 
	429.667,44.384 429.667,41.531 429.302,40.818 428.242,40.453 428.607,38.677 454.683,41.877 453.976,48.667 451.471,48.32 
	450.739,45.812 447.893,45.102 436.456,43.672 435.385,52.602 443.609,53.314 446.105,53.314 447.527,51.519 450.033,51.879 
	448.963,60.456 446.457,60.456 445.751,58.309 443.245,57.597 435.032,56.526 433.244,69.387 445.751,70.823 448.598,70.457 
	449.67,69.745 450.398,68.315 452.54,68.675 451.822,75.817 424.312,72.599 "/>
<polyline style="fill:#0054A6;" points="471.119,59.021 484.697,63.309 487.205,56.167 487.544,53.302 487.205,52.59 
	486.122,51.879 486.84,50.102 496.841,53.302 496.488,55.096 494.334,55.443 493.276,57.95 486.475,79.741 486.122,82.582 
	486.475,83.305 487.544,84.376 487.205,85.807 476.838,82.582 477.19,81.146 479.344,80.453 480.415,77.946 483.639,67.232 
	469.684,63.309 466.482,73.656 466.119,75.452 466.119,76.516 466.482,77.233 467.543,77.946 466.824,79.741 456.483,76.516 
	457.188,74.734 459.316,74.381 460.399,71.881 466.824,50.102 467.543,48.307 467.543,47.237 467.176,46.525 466.119,45.802 
	466.482,44.019 476.838,47.237 476.473,48.667 475.051,48.667 474.344,49.378 473.261,51.879 471.119,59.021 "/>
<path style="fill-rule:evenodd;clip-rule:evenodd;fill:#0054A6;" d="M512.207,49.737l-0.706,0.365l-1.081,0.718l-1.083,1.059v3.217
	l1.083,1.43l1.081,0.712l0.706,0.359V49.737 M511.501,65.45l0.706-1.782v-3.923l-6.424-2.866l-0.718,1.43l1.436,1.782l-1.083,2.866
	l-9.297,20.708l-1.422,2.505l-0.718,0.36h-1.435l-0.707,1.422l10.002,4.284l0.706-1.436l-1.071-1.072l-0.34-0.718l1.07-2.841
	L511.501,65.45z M512.207,57.597v-7.86l2.508,0.365l1.057,1.07l1.072,1.071v3.2l-1.072,1.083l-1.424,0.712L512.207,57.597z
	 M512.207,59.745l3.565,1.417l-0.718,1.795l-1.411-0.359l-0.718,0.706l-0.718,0.364V59.745z"/>
<path style="fill-rule:evenodd;clip-rule:evenodd;fill:#0054A6;" d="M523.644,82.247l5.717-9.647l1.777,1.07v-4.642l-7.129-4.276
	l-0.73,1.424l0.73,1.07v0.707l-1.072,2.505l-11.802,19.638l-1.788,2.142h-2.141l-0.706,1.782l9.284,5.36l0.717-1.424l-1.083-1.794
	l1.425-2.489l4.658-7.865l4.284,2.505v17.143l5.353,3.212V86.53l-2.493-1.072L523.644,82.247 M531.139,86.53l2.507,0.365
	l2.494-0.725l1.436-1.782l1.07-2.505l-0.718-2.494l-1.411-2.142l-2.141-1.795l-3.237-1.782v-4.642l7.507,4.642
	c9.918,4.647,7.837,17.308-3.199,18.22l-3.236-0.723l0.363,13.931l0.367,1.788l1.058,1.424l-1.058,1.422l-1.802-1.064V86.53z"/>
<path style="fill-rule:evenodd;clip-rule:evenodd;fill:#0054A6;" d="M559.379,125.44l4.988,4.994l3.236,2.142v5.359l-4.66-3.212
	l-12.859-12.136l1.422-1.437l1.07,0.712l1.083-0.347l2.142-1.782l11.803-12.149v9.642L559.379,125.44 M573.31,98.655l-0.73,0.358
	l0.73,1.07V98.655z M573.31,121.516v-5.717l-2.507-2.148l2.507-2.488v-9.642l-1.801,1.782l-3.905,4.282v9.642l0.328-0.705
	l4.307,4.271L573.31,121.516z M567.604,132.576v5.359l3.199,1.07h2.507v-7.136l-2.153,1.072h-2.152L567.604,132.576z
	 M573.31,131.869l0.353-0.363l1.789-2.502v-2.841l-2.142-4.647v-5.717l3.917,3.935l1.789,0.699l2.153-0.353l1.776-1.43l1.084-1.782
	v-1.782l-0.353-1.795l-1.436-1.782l-5.015-4.636l-3.917,4.29V98.655l0.718-0.712l13.202,12.848
	c5.352,5.415,4.088,12.507-3.553,14.283l-5.013-1.057l1.436,2.839l0.339,3.23l-0.339,3.201l-1.801,2.865l-2.495,1.782l-2.494,1.07
	V131.869z"/>
<polyline style="fill:#0054A6;" points="575.451,147.937 576.874,146.865 578.675,147.577 581.169,146.16 599.384,132.229 
	601.537,130.447 601.537,129.377 601.172,128.294 602.607,127.222 618.681,148.302 612.963,152.584 611.539,150.796 
	612.596,149.372 612.596,148.302 611.539,145.795 604.396,136.511 597.595,141.859 602.607,148.66 604.396,150.442 605.467,150.442 
	606.537,150.085 607.961,151.879 600.819,157.221 599.384,155.444 600.467,153.308 599.384,151.154 594.043,144.365 
	583.677,152.225 591.171,162.233 592.605,163.65 593.676,164.01 594.748,164.374 596.184,163.65 597.595,165.445 591.877,170.08 
	575.451,147.937 "/>
<polyline style="fill:#0054A6;" points="594.383,173.657 595.818,172.587 597.607,173.657 600.102,172.587 620.115,161.521 
	622.623,159.739 622.623,157.944 624.045,156.874 629.412,166.515 627.609,167.227 625.835,166.157 623.341,167.227 601.89,179.011 
	606.537,187.223 608.679,189.73 611.902,189.73 613.34,191.872 606.537,195.436 594.383,173.657 "/>
<polyline style="fill:#0054A6;" points="608.313,199.008 609.762,198.648 611.539,199.719 614.044,199.008 635.471,190.789 
	637.977,189.73 638.342,187.583 640.132,186.859 649.768,211.509 642.978,213.996 642.261,211.867 644.048,210.074 643.33,207.233 
	639.4,196.506 631.2,199.719 634.047,207.233 635.471,209.362 636.541,210.074 637.624,210.074 638.342,212.214 630.117,215.434 
	629.412,212.926 630.482,212.214 630.835,211.509 630.482,209.002 627.271,201.154 615.103,205.785 619.764,217.574 
	621.185,219.716 624.034,220.074 624.764,222.57 618.328,225.075 608.313,199.008 "/>
<path style="fill-rule:evenodd;clip-rule:evenodd;fill:#0054A6;" d="M638.342,234.37v-6.43l-12.507,2.5h-2.872l-1.788-1.777
	l-1.411,0.347l2.481,13.221c1.352,7.633,3.918,12.816,11.802,14.988l4.295,0.707v-6.776l-4.295-0.359l-1.788-0.712l-1.789-1.059
	l-2.86-3.935l-1.774-5.359l-0.365-2.853L638.342,234.37 M650.838,232.223l-12.496,2.147v-6.43l9.625-1.795l2.871-1.057l0.718-2.155
	l1.787-0.352l2.155,11.424c2.311,10.804-2.956,21.056-13.957,23.574l-3.199,0.347v-6.776l1.776-0.359
	c8.492-1.459,12.411-9.034,11.085-17.13L650.838,232.223z"/>
<path style="fill-rule:evenodd;clip-rule:evenodd;fill:#0054A6;" d="M666.559,271.857l-2.86-0.712l-1.071-1.43l-0.363-1.422
	l0.363-1.43l0.351-1.435l1.425-1.072l1.424-0.347l2.86,0.707l1.07,1.424l0.365,1.436l-1.072,2.865l-1.07,1.07L666.559,271.857
	 M655.119,272.217l-22.86,1.782l-2.859,0.712l-0.731,1.793l-1.775,0.36l-1.071-10.725l1.776-0.349l0.731,1.072l0.705,0.712h2.507
	l22.861-1.784l2.859-0.71l0.718-1.795l1.776-0.347l1.07,10.713l-1.764,0.347l-1.435-1.782H655.119z"/>
<path style="fill:#0054A6;" d="M640.471,292.924l15.368-8.206l2.858-1.436l1.069-1.418h2.143l-0.705,10.7h-1.801v-1.057
	l-1.071-0.365l-1.423,0.365l-11.437,5.341l10.013,5.718l1.069,0.725h1.072l1.07-0.371l0.365-1.059h1.776l-0.341,9.631h-1.435
	l-0.731-1.425c-8.65-6.29-18.165-14.174-29.298-10.354l-0.365,1.436l-1.764-0.377l0.365-10.337h1.764l0.365,1.072l0.706,0.705
	l2.519,0.352L640.471,292.924"/>
<polyline style="fill:#0054A6;" points="626.188,314.715 627.609,315.08 628.682,316.856 631.19,317.927 653.697,322.211 
	656.191,322.211 657.262,321.856 657.627,320.786 659.403,321.139 654.415,347.227 647.967,345.789 648.332,343.283 
	650.838,342.942 651.556,340.071 654.062,329 645.131,327.224 643.695,335.435 643.695,337.93 644.048,339 645.131,339.365 
	644.766,341.849 636.2,340.071 636.541,337.577 637.977,337.577 638.707,336.859 639.766,334.718 641.188,326.506 628.341,324.012 
	625.835,336.153 626.188,339 628.341,340.776 627.975,343.283 620.833,341.849 626.188,314.715 "/>
<path style="fill:#0054A6;" d="M627.609,348.99l2.155,8.211l-1.79,0.731l-1.069-1.07l-1.07-0.718l-2.142-0.378l-2.153,1.435
	l-1.776,2.155l-0.718,1.058l-0.718,1.436l-0.354,2.847v2.871l1.072,2.483l2.14,1.07l1.777,0.365l1.801-0.365l2.846-3.213
	l6.085-9.271c12.312-10.489,21.975,7.3,10.001,20.355l-2.859,2.494l-3.564,1.788l-2.87-6.79l1.799-1.069l1.071,0.718h2.129
	l1.788-1.072l1.436-2.153l1.071-2.494l0.719-2.847v-2.506l-0.719-1.436l-1.435-1.07h-1.425l-1.787,1.07l-3.932,4.283l-6.776,9.295
	l-1.435,1.072l-2.142,0.718c-15.477-0.159-13.967-19.31-5.718-26.427l3.577-2.142L627.609,348.99"/>
<path style="fill-rule:evenodd;clip-rule:evenodd;fill:#0054A6;" d="M637.613,399.69l-0.72,1.788l0.365,1.435l0.354,0.718V399.69
	 M629.034,399.35l2.507,1.435l0.353,1.06l-0.353,1.069l1.777,0.718l4.295-8.225v-1.411l-1.083-0.73l-1.766,1.071l-2.506-0.706
	l-20.733-10.001l-2.505-1.777l-0.352-0.718l0.352-1.069l-1.777-1.083l-4.647,10.001l1.788,0.705l1.788-1.046l2.496,0.693
	L629.034,399.35z M637.613,403.631v-3.94c6.63-7.216,11.509,7.006,1.422,5.365L637.613,403.631z M637.613,393.995h0.352
	l-0.352,1.411V393.995z"/>
<polyline style="fill-rule:evenodd;clip-rule:evenodd;fill:#0054A6;" points="366.788,511.48 370.723,511.48 370.723,539.682 
	371.43,542.555 374.295,542.896 374.295,544.684 360.716,544.684 360.716,542.896 364.293,542.19 365.005,538.611 365.005,516.469 
	362.14,517.552 359.646,518.268 359.646,515.763 363.935,513.985 365.363,512.902 366.788,511.48 "/>
<path style="fill-rule:evenodd;clip-rule:evenodd;fill:#0054A6;" d="M390.733,534.695l0.358-2.496l1.07-2.153l1.424-1.423l2.5-0.719
	v-3.929h-1.777l-1.795-1.071l-0.699-1.788l-0.376-1.79l0.376-2.142l0.699-1.057l3.572-1.436v-3.942l-3.924,0.73l-3.223,1.422
	l-1.424,1.083l-1.07,1.411l-0.712,3.578l0.353,2.142l1.083,2.14l1.771,1.79l1.795,1.083l-2.497,1.07
	c-6.053,4.233-4.306,15.865,3.201,17.484l4.647,0.718v-3.93l-2.14-0.353l-1.784-1.438l-1.07-2.14L390.733,534.695 M396.085,541.472
	l2.16-0.718l1.782-1.072l1.07-2.14l0.36-2.847l-0.36-2.496l-1.07-2.153l-1.782-1.423l-2.16-0.719v-3.929h1.782l1.795-1.071
	l0.725-1.425l0.345-2.153l-0.345-1.787l-0.725-1.411l-1.795-1.083l-1.782-0.353v-3.942l3.942,0.73l3.212,1.422l2.507,2.494
	l0.345,1.435l0.36,2.143l-0.36,2.505l-1.057,1.776l-1.448,1.79l-2.129,0.718v0.365l2.494,1.07l2.14,1.776l1.43,2.508l0.365,2.847
	l-1.07,4.647l-2.507,3.578l-3.578,2.129l-4.647,0.718V541.472z"/>
<path style="fill-rule:evenodd;clip-rule:evenodd;fill:#0054A6;" d="M425.737,527.552v-3.93l-2.483,0.718l-1.801,1.071l-1.422,1.423
	v-2.143l0.718-3.212l1.422-3.212l1.424-1.776l2.143-1.07v-4.282l-4.637,1.412l-1.79,1.776l-1.799,1.801l-1.776,2.847l-1.059,3.212
	l-0.725,3.577l-0.345,3.577l0.712,6.438l2.487,5.341l1.789,1.799l2.153,1.413l2.129,0.705l2.86,0.365v-4.282l-2.143-0.342
	l-2.142-1.435l-1.07-2.143l-0.352-2.87l0.352-2.483l1.436-2.153l1.776-1.422L425.737,527.552 M425.737,515.421v-4.282l2.87-0.365
	l2.847,0.365l3.931,0.705v6.424h-2.141l-0.707-1.436l-1.083-1.069l-2.847-0.707L425.737,515.421z M426.102,527.552h-0.365v-3.93
	l1.801-0.366l3.916,0.72l3.226,2.153l1.07,1.775l1.071,1.789l0.716,4.295l-0.716,4.647l-1.071,2.142l-1.436,1.777l-1.777,1.07
	l-1.787,1.069l-4.295,0.707h-0.718v-4.282l2.505-0.342l1.801-1.435l1.07-2.508l0.341-2.505l-0.341-2.483l-1.07-2.153l-1.801-1.422
	L426.102,527.552z"/>
<path style="fill-rule:evenodd;clip-rule:evenodd;fill:#0054A6;" d="M454.683,541.119l-1.777,0.353h-1.789l-2.858-0.353l-1.071-0.72
	l-0.718-1.423h-2.153v5.354l3.589,0.705l3.566,0.365l3.212-0.365V541.119 M454.328,515.045h0.354v-4.295h-0.707l-4.295,0.73
	l-1.776,1.07l-1.788,1.069l-1.072,1.776l-1.081,1.788l-0.718,4.649l0.364,4.295l2.142,3.188l3.225,2.167l3.93,0.716h1.777v-4.295
	h-0.354l-2.153-0.364l-1.411-1.411l-1.083-1.789l-0.363-2.506l0.363-2.859l1.083-2.143l1.411-1.435L454.328,515.045z
	 M454.683,527.904l2.152-0.364c4.405-3.115,4.271-9.734,0-12.143l-2.152-0.352v-4.295l4.999,1.459
	c9.26,4.479,8.87,25.723-0.704,31.05l-4.295,1.777v-3.917l1.801-1.083l1.422-1.766l1.776-3.94l0.355-4.649v-1.409l-1.059,1.774
	l-1.79,1.07l-2.505,1.083V527.904z"/>
<path style="fill:none;stroke:#0054A6;stroke-width:3;stroke-miterlimit:22.926;" d="M413.569,558.711
	c148.339,0,269.327-120.975,269.327-269.309c0-148.34-120.988-269.34-269.327-269.34c-148.338,0-269.315,121-269.315,269.34
	C144.254,437.735,265.231,558.711,413.569,558.711z"/>
</svg>
