<?xml version="1.0" encoding="iso-8859-1"?>
<!-- Generator: Adobe Illustrator 29.7.1, SVG Export Plug-In . SVG Version: 9.03 Build 0)  -->
<svg version="1.1" id="Layer_1" xmlns="http://www.w3.org/2000/svg" xmlns:xlink="http://www.w3.org/1999/xlink" x="0px" y="0px"
	 viewBox="0 0 350 350" style="enable-background:new 0 0 350 350;" xml:space="preserve">
<rect y="0" style="fill:#FFFFFF;" width="350" height="350.001"/>
<g>
	<g>
		<path style="fill:#B29144;" d="M133.694,123.608c-4.208,0-7.619-3.411-7.619-7.619c0-3.731,2.683-6.83,6.224-7.486
			c-0.5-0.08-1.008-0.133-1.53-0.133c-5.299,0-9.596,4.296-9.596,9.596s4.296,9.596,9.596,9.596c4.581,0,8.405-3.212,9.36-7.505
			C138.779,122.189,136.405,123.608,133.694,123.608z"/>
		<polygon style="fill:#B29144;" points="133.131,115.049 134.148,114.501 133.942,113.364 134.778,114.163 135.796,113.616 
			135.293,114.657 136.129,115.456 134.983,115.3 134.481,116.342 134.275,115.205 		"/>
		<path style="fill:#F89727;" d="M172.831,175.382c65.87,0,123.155,20.272,158.904,45.246
			c-32.782-29.968-91.547-51.485-158.6-51.485c-64.581,0-121.475,20.07-154.871,48.212
			C58.26,193.031,109.625,175.382,172.831,175.382z"/>
		<g>
			<polygon style="fill:#B29144;" points="235.139,171.449 232.4,168.213 229.612,170.931 228.692,169.988 232.493,166.282 
				235.191,169.471 239.865,164.502 244.346,169.514 247.695,166.328 251.507,170.13 250.576,171.063 247.674,168.167 
				244.27,171.406 239.841,166.452 235.139,171.449 			"/>
		</g>
		<g>
			<polygon style="fill:#B29144;" points="235.887,162.532 232.433,160.153 229.036,162.235 228.348,161.112 232.475,158.582 
				235.72,160.816 240.099,156.34 244.529,160.84 248.118,158.664 251.007,161.177 250.143,162.171 247.979,160.29 244.321,162.508 
				240.102,158.222 235.887,162.532 			"/>
		</g>
		<g>
			<polygon style="fill:#B29144;" points="235.887,154.294 232.433,151.916 229.036,153.999 228.348,152.875 232.475,150.345 
				235.72,152.58 240.099,148.104 244.529,152.604 248.118,150.428 251.007,152.94 250.143,153.934 247.979,152.053 244.321,154.27 
				240.102,149.985 235.887,154.294 			"/>
		</g>
		<g>
			<polygon style="fill:#B29144;" points="235.887,145.865 232.433,143.487 229.036,145.569 228.348,144.445 232.475,141.915 
				235.72,144.15 240.099,139.674 244.529,144.174 248.118,141.997 251.007,144.51 250.143,145.504 247.979,143.623 
				244.321,145.841 240.102,141.555 235.887,145.865 			"/>
		</g>
		<g>
			<polygon style="fill:#B29144;" points="235.887,137.255 232.433,134.877 229.036,136.959 228.348,135.836 232.475,133.306 
				235.72,135.54 240.099,131.064 244.529,135.564 248.118,133.389 251.007,135.901 251.007,137.595 247.979,135.014 
				244.321,137.231 240.102,132.946 235.887,137.255 			"/>
		</g>
		<polygon style="fill:#B29144;" points="230.106,172.272 225.274,171.119 225.274,135.316 218.904,123.675 218.904,117.966 
			231.863,117.966 231.863,93.145 240.209,71.145 248.556,93.145 248.556,117.966 261.295,117.966 261.295,123.675 255.682,137.293 
			255.599,179.04 250.653,176.335 250.666,135.756 255.145,124.663 255.145,121.699 244.822,121.699 244.822,93.583 240.209,79.403 
			235.597,93.583 235.597,121.699 224.395,121.699 224.395,124.663 230.106,135.756 		"/>
		<g>
			<polygon style="fill:#B29144;" points="227.298,131.493 226.297,130.636 232.107,123.844 235.52,126.762 240.097,121.587 
				244.61,126.612 247.932,123.237 253.942,130.649 252.919,131.479 247.836,125.212 244.567,128.536 240.104,123.567 
				235.648,128.605 232.252,125.703 227.298,131.493 			"/>
		</g>
		<path style="fill:#B29144;" d="M79.606,182.54l-5.683,1.977c0,0,2.32-11.315,0.343-16.917c-0.237-0.674-3.198-1.204-3.198-1.204
			l35.473-33.606h6.26l14.332,10.543l-2.8,3.844l-15.1-11.037l-30.586,28.939l32.05,0.018l-6.681,5.034l-24.381,0.041L79.606,182.54
			z"/>
		<path style="fill:#B29144;" d="M155.385,167.604c0,0,4.163-17.449,18.129-20.523c15.01,2.691,18.25,19.48,18.689,20.578
			l4.394,0.233c0,0-2.345-20.592-23.082-26.961c-21.341,7.687-22.714,27.305-22.714,27.305L155.385,167.604z"/>
		<polygon style="fill:#B29144;" points="133.131,147.726 126.145,149.868 126.145,155.167 133.131,153.08 		"/>
		<polygon style="fill:#B29144;" points="133.131,156.292 126.145,158.434 126.145,163.733 133.131,161.646 		"/>
		<polygon style="fill:#B29144;" points="133.131,164.255 126.145,166.397 126.145,171.695 133.131,169.609 		"/>
		<polygon style="fill:#B29144;" points="213.948,147.726 220.934,149.868 220.934,155.167 213.948,153.08 		"/>
		<polygon style="fill:#B29144;" points="213.948,156.292 220.934,158.434 220.934,163.733 213.948,161.646 		"/>
		<polygon style="fill:#B29144;" points="213.948,164.255 220.934,166.397 220.934,171.695 213.948,169.609 		"/>
		<path style="fill:#B29144;" d="M213.866,134.33l7.067,13.773l-7.315-2.189l-6.053-9.28h-8.443c0,0-24.299-24.161-51.177,0h-9.528
			l-5.286,9.326l-6.986,1.766l7.488-13.396h10.049c0,0,28.094-28.693,60.053,0H213.866z"/>
		<g>
			<path style="fill:#B29144;" d="M135.315,148.605v4.152h18.288c0.885-1.41,1.906-2.81,3.089-4.152H135.315z"/>
			<path style="fill:#B29144;" d="M159.845,145.53c2.586-2.167,5.723-4.024,9.545-5.271h-30.726l-2.84,5.271H159.845z"/>
			<path style="fill:#B29144;" d="M135.315,165.628v3.953l12.739-1.227c0,0,0.095-1.039,0.444-2.727H135.315z"/>
			<path style="fill:#B29144;" d="M149.788,160.884c0.415-1.237,0.927-2.562,1.554-3.933h-16.027v3.933H149.788z"/>
		</g>
		<g>
			<path style="fill:#B29144;" d="M190.233,148.605c1.186,1.344,2.206,2.744,3.093,4.152h18.866v-4.152H190.233z"/>
			<path style="fill:#B29144;" d="M212.192,160.884v-3.933h-16.591c0.632,1.371,1.144,2.696,1.561,3.933H212.192z"/>
			<path style="fill:#B29144;" d="M198.459,165.628c0.35,1.688,0.443,2.727,0.443,2.727l13.29,1.803v-4.53H198.459z"/>
			<path style="fill:#B29144;" d="M211.696,145.53l-3.568-5.271h-30.392c3.729,1.286,6.803,3.133,9.344,5.271H211.696z"/>
		</g>
		<path style="fill:#B29144;" d="M166.175,153.437h14.936c0,0-3.322-3.384-7.413-4.283
			C169.943,149.744,166.175,153.437,166.175,153.437z"/>
		<path style="fill:#B29144;" d="M163.924,156.251c0,0-2.032,0.947-4.009,4.633h5.684c2.265-2.317,5.436-4.633,5.436-4.633H163.924z
			"/>
		<path style="fill:#B29144;" d="M183.527,156.251c0,0,2.307,0.947,4.283,4.633h-5.821c-2.265-2.317-5.436-4.633-5.436-4.633
			H183.527z"/>
		<path style="fill:#B29144;" d="M160.492,167.604h-3.486c0.253-2.292,1.592-3.239,1.592-3.239h3.515
			C162.112,164.365,160.862,166.198,160.492,167.604z"/>
		<path style="fill:#B29144;" d="M187.48,167.604h3.487c-0.253-2.292-1.592-3.239-1.592-3.239h-3.516
			C185.86,164.365,187.11,166.198,187.48,167.604z"/>
	</g>
	<g>
		<g>
			<path d="M162.139,267.677h2.473v10.904h-1.641v-8.954h-1.789L162.139,267.677z"/>
			<path d="M172.085,272.67c0.393,0.315,0.697,0.723,0.912,1.219c0.214,0.497,0.322,1.035,0.322,1.614
				c0,0.627-0.125,1.209-0.375,1.743c-0.25,0.534-0.585,0.936-1.006,1.205c-0.421,0.27-0.958,0.404-1.611,0.404
				c-0.701,0-1.258-0.13-1.67-0.39c-0.413-0.259-0.744-0.652-0.992-1.18c-0.248-0.526-0.372-1.121-0.372-1.783
				c0-0.573,0.099-1.098,0.297-1.569c0.199-0.472,0.497-0.893,0.895-1.264c-0.26-0.332-0.456-0.684-0.587-1.057
				c-0.132-0.372-0.197-0.767-0.197-1.181c0-0.568,0.109-1.085,0.327-1.553c0.218-0.466,0.524-0.829,0.917-1.088
				c0.394-0.259,0.848-0.39,1.364-0.39c0.508,0,0.955,0.132,1.339,0.393c0.386,0.262,0.69,0.634,0.912,1.115
				c0.223,0.482,0.335,0.999,0.335,1.552c0,0.39-0.059,0.751-0.174,1.086C172.603,271.881,172.392,272.255,172.085,272.67z
				 M170.32,273.779c-0.398,0-0.732,0.151-1.004,0.455c-0.271,0.304-0.407,0.666-0.407,1.086c0,0.44,0.128,0.811,0.384,1.116
				c0.256,0.304,0.592,0.455,1.009,0.455c0.421,0,0.756-0.142,1.006-0.426c0.25-0.284,0.375-0.65,0.375-1.101
				c0-0.449-0.129-0.827-0.389-1.131C171.033,273.93,170.71,273.779,170.32,273.779z M170.255,269.404
				c-0.272,0-0.495,0.113-0.67,0.338c-0.176,0.224-0.263,0.511-0.263,0.86s0.092,0.643,0.277,0.879
				c0.185,0.236,0.414,0.355,0.685,0.355c0.28,0,0.509-0.115,0.688-0.348c0.179-0.231,0.268-0.532,0.268-0.901
				c0-0.35-0.09-0.635-0.271-0.855C170.788,269.515,170.549,269.404,170.255,269.404z"/>
			<path d="M174.416,267.677h5.696v1.091l-3.919,10.088h-1.777l3.642-9.229h-3.642V267.677z"/>
			<path d="M183.818,267.403c0.634,0,1.179,0.196,1.638,0.586c0.459,0.391,0.812,0.987,1.062,1.79
				c0.25,0.804,0.375,1.921,0.375,3.355c0,1.449-0.127,2.575-0.381,3.38c-0.253,0.806-0.595,1.397-1.023,1.775
				c-0.43,0.378-0.971,0.567-1.624,0.567c-0.653,0-1.202-0.19-1.646-0.571c-0.444-0.38-0.793-0.958-1.044-1.733
				c-0.253-0.776-0.378-1.881-0.378-3.313c0-2.001,0.245-3.453,0.737-4.353C182.081,267.898,182.842,267.403,183.818,267.403z
				 M183.856,269.375c-0.278,0-0.525,0.112-0.742,0.337c-0.216,0.225-0.381,0.612-0.494,1.159c-0.114,0.55-0.171,1.353-0.171,2.41
				c0,1.378,0.13,2.331,0.392,2.857c0.262,0.525,0.6,0.79,1.016,0.79c0.401,0,0.719-0.25,0.955-0.749
				c0.286-0.603,0.43-1.611,0.43-3.024c0-1.433-0.129-2.421-0.387-2.966C184.598,269.648,184.265,269.375,183.856,269.375z"/>
		</g>
		<g>
			<path d="M79.977,197.994h6.651v12.637l9.385-12.637h7.901l-12.072,16.358l13.246,20.297h-7.803l-10.658-16.286v16.286h-6.651
				V197.994z"/>
			<path d="M109.307,197.994h6.534v36.655h-6.534V197.994z"/>
			<path d="M123.69,197.994h6.972c3.818,0,6.538,0.361,8.157,1.083c1.62,0.724,2.923,1.924,3.909,3.602
				c0.985,1.678,1.479,3.663,1.479,5.955c0,2.409-0.545,4.424-1.634,6.044c-1.088,1.618-2.73,2.844-4.922,3.676l8.19,16.296h-7.194
				l-7.774-15.524h-0.603v15.524h-6.58V197.994z M130.27,212.322h2.062c2.093,0,3.534-0.292,4.323-0.875
				c0.789-0.583,1.183-1.55,1.183-2.9c0-0.8-0.195-1.495-0.585-2.088c-0.391-0.592-0.915-1.017-1.57-1.275
				c-0.656-0.258-1.859-0.387-3.608-0.387h-1.804V212.322z"/>
			<path d="M176.217,197.994h18.871v6.827H182.75v6.628h12.338v6.704H182.75v9.643h12.338v6.853h-18.871V197.994z"/>
			<path d="M201.198,197.994h6.675v13.829h11.539v-13.829h6.65v36.655h-6.65v-16.072h-11.539v16.072h-6.675V197.994z"/>
			<path d="M247.873,197.994h6.973c3.817,0,6.537,0.361,8.156,1.083c1.619,0.724,2.923,1.924,3.909,3.602
				c0.985,1.678,1.479,3.663,1.479,5.955c0,2.409-0.545,4.424-1.634,6.044c-1.089,1.618-2.73,2.844-4.923,3.676l8.19,16.296h-7.194
				l-7.773-15.524h-0.603v15.524h-6.58V197.994z M254.453,212.322h2.062c2.093,0,3.533-0.292,4.322-0.875
				c0.789-0.583,1.184-1.55,1.184-2.9c0-0.8-0.196-1.495-0.586-2.088c-0.391-0.592-0.914-1.017-1.569-1.275
				c-0.656-0.258-1.858-0.387-3.609-0.387h-1.804V212.322z"/>
			<path d="M169.917,225.179c0-1.544-0.278-2.969-0.835-4.273c-0.558-1.305-1.503-2.671-2.837-4.1
				c-0.534-0.582-2.056-1.985-4.567-4.212c-2.683-2.408-4.292-3.979-4.826-4.71c-0.393-0.548-0.589-1.128-0.589-1.743
				c0-0.615,0.275-1.168,0.825-1.657c0.548-0.491,1.255-0.735,2.118-0.735c1.774,0,3.516,1.262,5.227,3.788l4.874-4.561
				c-1.82-2.243-3.511-3.787-5.071-4.635c-1.562-0.847-3.204-1.271-4.93-1.271c-2.682,0-4.938,0.91-6.765,2.729
				c-1.828,1.818-2.741,3.999-2.741,6.541c0,1.76,0.549,3.526,1.648,5.294c1.099,1.771,3.531,4.282,7.298,7.538
				c1.977,1.712,3.256,2.983,3.837,3.814c0.58,0.83,0.871,1.661,0.871,2.492c0,0.914-0.385,1.719-1.154,2.417
				c-0.769,0.697-1.718,1.046-2.848,1.046c-2.165,0-4.079-1.62-5.743-4.858l-5.531,3.538c1.302,2.741,2.866,4.751,4.693,6.03
				c1.084,0.759,2.282,1.286,3.589,1.596v1.52h5.875v-1.553c1.803-0.441,3.353-1.297,4.641-2.585
				C168.938,230.669,169.917,228.187,169.917,225.179z"/>
			<rect x="233.49" y="197.994" width="6.533" height="5.415"/>
			<rect x="233.49" y="206.044" width="6.533" height="28.604"/>
		</g>
		<g>
			<rect x="230.091" y="243.325" width="3.354" height="3.08"/>
			<rect x="230.091" y="247.558" width="3.354" height="14.564"/>
			<path d="M114.188,262.122v-18.798h2.79c1.62,0,2.803,0.11,3.552,0.332c1.063,0.298,1.909,0.853,2.537,1.661
				c0.628,0.81,0.942,1.765,0.942,2.862c0,0.717-0.143,1.365-0.428,1.949c-0.286,0.583-0.75,1.132-1.394,1.642
				c1.078,0.538,1.866,1.208,2.365,2.014c0.498,0.805,0.748,1.757,0.748,2.855c0,1.057-0.258,2.02-0.774,2.889
				c-0.515,0.868-1.179,1.518-1.993,1.948c-0.814,0.431-1.936,0.646-3.37,0.646H114.188z M117.567,246.737v3.961h0.738
				c0.824,0,1.435-0.183,1.835-0.55c0.4-0.365,0.599-0.864,0.599-1.494c0-0.588-0.189-1.055-0.569-1.399
				c-0.379-0.345-0.956-0.518-1.731-0.518H117.567z M117.567,253.893v4.818h0.847c1.403,0,2.349-0.188,2.837-0.562
				c0.487-0.376,0.731-0.92,0.731-1.637c0-0.81-0.286-1.448-0.859-1.917c-0.572-0.468-1.524-0.702-2.855-0.702H117.567z"/>
			<path d="M128.534,243.325h9.688v3.502h-6.335v3.398h6.335v3.438h-6.335v4.946h6.335v3.514h-9.688V243.325z"/>
			<path d="M141.372,243.325h3.378v15.387h4.923v3.411h-8.301V243.325z"/>
			<path d="M152.256,243.325h9.689v3.502h-6.335v3.398h6.335v3.438h-6.335v4.946h6.335v3.514h-9.689V243.325z"/>
			<path d="M165.105,243.325h4.002c2.58,0,4.497,0.339,5.75,1.016c1.254,0.678,2.286,1.779,3.099,3.304
				c0.811,1.525,1.218,3.306,1.218,5.342c0,1.448-0.227,2.779-0.682,3.993c-0.454,1.215-1.08,2.222-1.881,3.021
				c-0.799,0.802-1.665,1.355-2.597,1.662c-0.932,0.308-2.548,0.46-4.846,0.46h-4.062V243.325z M168.46,246.775v11.858h1.569
				c1.545,0,2.665-0.188,3.36-0.562c0.696-0.375,1.265-1.007,1.707-1.893c0.442-0.888,0.664-1.979,0.664-3.275
				c0-1.996-0.527-3.543-1.581-4.644c-0.949-0.989-2.474-1.484-4.573-1.484H168.46z"/>
			<path d="M188.048,243.325h3.627l3.312,6.763l3.295-6.763h3.582l-5.194,10.658v8.14h-3.402v-8.14L188.048,243.325z"/>
			<path d="M204.645,243.325h9.688v3.502H208v3.398h6.333v3.438H208v4.946h6.333v3.514h-9.688V243.325z"/>
			<path d="M226.797,245.88l-2.502,2.339c-0.879-1.295-1.773-1.942-2.684-1.942c-0.441,0-0.805,0.125-1.087,0.377
				c-0.282,0.251-0.423,0.535-0.423,0.85c0,0.314,0.101,0.613,0.302,0.895c0.274,0.375,1.1,1.18,2.478,2.415
				c1.29,1.142,2.071,1.862,2.345,2.16c0.686,0.733,1.171,1.434,1.457,2.103c0.286,0.669,0.429,1.398,0.429,2.191
				c0,1.541-0.503,2.815-1.51,3.82c-1.007,1.006-2.319,1.509-3.937,1.509c-1.266,0-2.367-0.328-3.305-0.984
				c-0.938-0.656-1.741-1.688-2.409-3.092l2.84-1.815c0.854,1.661,1.836,2.492,2.948,2.492c0.579,0,1.067-0.18,1.463-0.537
				c0.394-0.357,0.592-0.772,0.592-1.239c0-0.427-0.15-0.853-0.447-1.278c-0.298-0.426-0.955-1.078-1.97-1.955
				c-1.935-1.669-3.185-2.959-3.747-3.866c-0.564-0.907-0.847-1.812-0.847-2.715c0-1.305,0.47-2.422,1.407-3.355
				s2.097-1.4,3.473-1.4c0.887,0,1.73,0.218,2.531,0.652C224.995,243.938,225.863,244.73,226.797,245.88z"/>
			<rect x="182.154" y="243.325" width="3.353" height="3.08"/>
			<rect x="182.154" y="247.558" width="3.353" height="14.564"/>
		</g>
	</g>
</g>
</svg>
