<?xml version="1.0" encoding="iso-8859-1"?>
<!-- Generator: Adobe Illustrator 29.7.1, SVG Export Plug-In . SVG Version: 9.03 Build 0)  -->
<svg version="1.1" id="katman_1" xmlns="http://www.w3.org/2000/svg" xmlns:xlink="http://www.w3.org/1999/xlink" x="0px" y="0px"
	 viewBox="0 0 800 600" style="enable-background:new 0 0 800 600;" xml:space="preserve">
<rect x="186.6" y="493.5" style="fill:#1CA8BC;" width="426.2" height="3.7"/>
<path style="fill:#003F6E;" d="M240.5,516.9c0,4.6,3.7,8.6,8.2,8.7h3.5v4.4l3.3-2.4v-1.9h5.2v-2.9h-11.2c-3.1,0-5.7-2.6-5.7-5.8
	c0-3,2.4-5.6,5.4-5.8h11.5v-2.9c-1.2,0-12.2,0-12.4,0C244,508.6,240.5,512.4,240.5,516.9"/>
<path style="fill:#003F6E;" d="M270.6,518.3l3.9-7.4l3.8,7.4H270.6z M272.1,508.3l-9.1,17.4h3.8l2.3-4.4h10.8l2.3,4.4h3.8l-9.1-17.4
	L272.1,508.3L272.1,508.3z"/>
<polygon style="fill:#003F6E;" points="291.6,508.3 288.3,508.3 288.3,525.6 306.7,525.6 306.7,522.7 291.6,522.7 "/>
<rect x="310.1" y="508.3" style="fill:#003F6E;" width="3.3" height="17.3"/>
<path style="fill:#003F6E;" d="M330.8,515.5h-9.6c-1.3,0-2.2-0.9-2.2-2.2c0-1.2,0.9-2.1,2.1-2.2h13v-2.9h-13.5
	c-2.8,0.2-4.9,2.5-4.9,5.3c0,2.7,2,4.7,4.9,4.9h10c1.3,0.1,2.2,1,2.2,2.2s-1,2.2-2.2,2.2h-14.8v2.9h7v4.4l3.3-2.4v-1.9h4.4
	c2.6-0.2,5.4-2.3,5.4-5.2C335.9,517.7,333.7,515.6,330.8,515.5"/>
<rect x="339.3" y="508.3" style="fill:#003F6E;" width="3.3" height="17.3"/>
<polygon style="fill:#003F6E;" points="361.6,521.3 348.9,508.3 344.9,508.3 344.9,525.6 348.2,525.6 348.2,512.6 361.1,525.6 
	365,525.6 365,508.3 361.6,508.3 "/>
<path style="fill:#003F6E;" d="M367.3,516.9c0,4.6,3.7,8.6,8.2,8.7h12v-2.9h-11.2c-3.1,0-5.7-2.6-5.7-5.8c0-3,2.4-5.6,5.4-5.8h11.5
	v-2.9c-1.2,0-12.2,0-12.4,0C370.9,508.6,367.3,512.4,367.3,516.9"/>
<path style="fill:#003F6E;" d="M397.5,518.3l3.9-7.4l3.8,7.4H397.5z M399,508.3l-9.1,17.4h3.8l2.3-4.4h10.8l2.3,4.4h3.8l-9.1-17.4
	L399,508.3L399,508.3z"/>
<path style="fill:#003F6E;" d="M440.8,522.5h-6.1c-3.2,0-5.7-2.5-5.7-5.6s2.3-5.5,5.4-5.6h6.7c3.1,0.1,5.4,2.5,5.4,5.6
	C446.5,520.1,444,522.5,440.8,522.5 M441.7,508.3h-8c-4.3,0.3-7.8,4.2-7.8,8.7c0,4.6,3.7,8.6,8.2,8.7h7.3c4.4-0.1,8.2-4.1,8.2-8.7
	C449.6,512.4,446.1,508.6,441.7,508.3"/>
<polygon style="fill:#003F6E;" points="455.3,508.3 451.9,508.3 451.9,525.6 470.4,525.6 470.4,522.7 455.3,522.7 "/>
<path style="fill:#003F6E;" d="M490.5,517c0,3.1-2.5,5.6-5.7,5.6h-4.2c-3.2,0-5.7-2.5-5.7-5.6v-8.7h-3.1v9.1
	c0.2,4.4,3.9,8.2,8.2,8.3h5.5c4.4-0.1,8.1-4.1,8.1-8.7v-8.7h-3.1L490.5,517L490.5,517z"/>
<polygon style="fill:#003F6E;" points="505.3,514.7 500.2,508.3 495.9,508.3 503.6,518 503.6,525.6 506.9,525.6 506.9,518 
	514.6,508.3 510.4,508.3 "/>
<path style="fill:#003F6E;" d="M531.9,522.5h-6.1c-3.2,0-5.7-2.5-5.7-5.6s2.3-5.5,5.4-5.6h6.7c3.1,0.1,5.4,2.5,5.4,5.6
	C537.6,520.1,535.1,522.5,531.9,522.5 M532.8,508.3h-8c-4.3,0.3-7.8,4.2-7.8,8.7c0,4.6,3.7,8.6,8.2,8.7h7.3c4.4-0.1,8.2-4.1,8.2-8.7
	C540.7,512.4,537.2,508.6,532.8,508.3"/>
<path style="fill:#003F6E;" d="M556.6,518.1h-10.2v-7h4.4h5.8c1.9,0,3.5,1.6,3.5,3.5C560.1,516.6,558.5,518.1,556.6,518.1
	 M558.9,520.7c2.6-0.9,4.3-3.3,4.3-6.1c0-3.4-2.8-6.3-6.3-6.4H543v17.4h3.3V521h6.5l4.6,4.6h4.6l-4.5-4.5L558.9,520.7z"/>
<polygon style="fill:#003F6E;" points="313.1,360.8 301.8,360.8 289.5,371.9 289.5,360.8 282,360.8 282,389.3 289.5,389.3 
	289.5,382 294.9,377.1 305.1,389.3 314.7,389.3 300.5,372.1 "/>
<path style="fill:#003F6E;" d="M337.1,382.1H328c-4,0-7.2-3.1-7.2-7.1c0-3.9,3-6.9,6.9-7.1h9.8c3.8,0.2,6.9,3.1,6.9,7.1
	C344.4,379.1,341.2,382.1,337.1,382.1 M338.6,360.8h-12.1c-7.2,0.5-12.9,6.8-12.9,14.2c0,7.5,6,14.1,13.5,14.2h11
	c7.5-0.1,13.5-6.8,13.5-14.2C351.5,367.7,345.8,361.4,338.6,360.8"/>
<path style="fill:#003F6E;" d="M356,375c0,7.4,6,14.1,13.5,14.3h19.2v-6.9h-18c-4,0-7.2-3.4-7.2-7.4c0-3.9,3.1-7.2,6.9-7.4h18.3
	v-6.9c-5,0-19.4,0-19.8,0C361.7,361.4,356,367.7,356,375"/>
<path style="fill:#003F6E;" d="M408.7,375.8l3.7-7l3.7,7H408.7z M408.1,360.8l-15,28.5h8.5l3.5-6.6h14.6l3.5,6.6h8.5l-15-28.5H408.1
	z"/>
<polygon style="fill:#003F6E;" points="436.1,389.3 468.8,389.3 468.8,382.4 443.6,382.4 443.6,378.5 461.5,378.5 461.5,371.7 
	443.6,371.7 443.6,367.7 468.8,367.7 468.8,360.8 436.1,360.8 "/>
<polygon style="fill:#003F6E;" points="482.3,360.8 474.9,360.8 474.9,389.3 505,389.3 505,382.4 482.3,382.4 "/>
<rect x="510" y="370.8" style="fill:#003F6E;" width="7.5" height="18.5"/>
<rect x="510" y="360.7" style="fill:#003F6E;" width="7.5" height="6.9"/>
<path style="fill:#003F6E;" d="M215.2,415.5h-18.9v-4.7h18.9c1.3,0.1,2.4,1,2.4,2.4C217.6,414.5,216.5,415.5,215.2,415.5
	 M215.2,428.7h-18.9V424h18.9c1.3,0.1,2.4,1,2.4,2.4C217.6,427.7,216.5,428.7,215.2,428.7 M215.7,402.4h-28.6V437h28.6
	c6.1-0.1,10.8-5,10.8-11c0-2.4-0.6-4.5-2-6.2c1.3-1.8,2-3.9,2-6.3C226.6,407.4,221.8,402.6,215.7,402.4"/>
<path style="fill:#003F6E;" d="M265.6,419.8c0,4.8-3.9,8.6-8.7,8.6h-7.1c-4.8,0-8.7-3.7-8.7-8.6v-17.3h-9v17.3
	c0,9.1,7.3,17.1,16.3,17.3h10c9-0.1,16.3-8.2,16.3-17.3v-17.3h-9v17.3H265.6z"/>
<polygon style="fill:#003F6E;" points="300.2,413.2 291.7,402.4 280,402.4 295.6,422.1 295.6,437 304.7,437 304.7,422.1 
	320.3,402.4 308.7,402.4 "/>
<path style="fill:#003F6E;" d="M359.3,419.8c0,4.8-3.9,8.6-8.7,8.6h-7.1c-4.8,0-8.7-3.7-8.7-8.6v-17.3h-9v17.3
	c0,9.1,7.3,17.1,16.3,17.3h10c9-0.1,16.3-8.2,16.3-17.3v-17.3h-9v17.3H359.3z"/>
<polygon style="fill:#003F6E;" points="411.5,402.4 397.8,402.4 382.8,415.9 382.8,402.4 373.8,402.4 373.8,437 382.8,437 
	382.8,428.1 389.4,422.3 401.8,437 413.4,437 396.2,416.2 "/>
<path style="fill:#003F6E;" d="M447.7,415.6h-17.4c-1.4,0-2.5-1-2.5-2.4s1.1-2.4,2.4-2.4h25v-8.3h-25.9c-5.8,0.4-10.4,5.1-10.4,11.1
	c0,5.9,4.5,10,10.3,10.4h18.1c1.3,0,2.4,1,2.4,2.4s-1.1,2.4-2.5,2.4h-28.3v8.3h15.6v7.8l7.5-5.5V437h5.3c5.7-0.4,11.3-5.1,11.3-11
	C458.6,419.9,453.6,415.7,447.7,415.6"/>
<polygon style="fill:#003F6E;" points="464,437 503.6,437 503.6,428.7 473.1,428.7 473.1,424 494.9,424 494.9,415.6 473.1,415.6 
	473.1,410.8 503.6,410.8 503.6,402.4 464,402.4 "/>
<polygon style="fill:#003F6E;" points="541.6,415.6 520.1,415.6 520.1,402.4 511,402.4 511,437 520.1,437 520.1,423.9 541.6,423.9 
	541.6,437 550.7,437 550.7,402.4 541.6,402.4 "/>
<rect x="558.1" y="415.5" style="fill:#003F6E;" width="9.1" height="21.5"/>
<path style="fill:#003F6E;" d="M599.6,420.4h-17.9v-9.6h17.8c2.8,0,4.9,2.2,4.9,4.8C604.4,418.2,602.2,420.4,599.6,420.4
	 M612.3,415.6c0-7.1-5.7-13-12.8-13.1h-26.8V437h9.1v-8.3h9.6l8.2,8.3h12.7l-8.9-9C608.5,426.3,612.3,421.3,612.3,415.6"/>
<rect x="247.4" y="402.4" style="fill:#003F6E;" width="11.7" height="10.8"/>
<rect x="340.9" y="402.4" style="fill:#003F6E;" width="11.7" height="10.8"/>
<rect x="558" y="401.9" style="fill:#003F6E;" width="9.1" height="8.3"/>
<path style="fill:#003F6E;" d="M263.8,461.5h-15.6v-3.9h15.6c1.1,0,2,0.9,2,2C265.7,460.6,264.9,461.5,263.8,461.5 M263.8,472.3
	h-15.6v-3.9h15.6c1.1,0.1,2,0.9,2,2C265.7,471.5,264.9,472.3,263.8,472.3 M264.2,450.7h-23.5v28.5h23.5c5-0.1,8.9-4.1,8.9-9.1
	c0-2-0.5-3.7-1.6-5.1c1.1-1.5,1.6-3.2,1.6-5.2C273.2,454.8,269.2,450.8,264.2,450.7"/>
<polygon style="fill:#003F6E;" points="277.6,479.2 310.3,479.2 310.3,472.3 285.1,472.3 285.1,468.4 303.1,468.4 303.1,461.5 
	285.1,461.5 285.1,457.6 310.3,457.6 310.3,450.7 277.6,450.7 "/>
<polygon style="fill:#003F6E;" points="323.9,450.7 316.4,450.7 316.4,479.2 346.5,479.2 346.5,472.3 323.9,472.3 "/>
<polygon style="fill:#003F6E;" points="351,479.2 383.7,479.2 383.7,472.3 358.4,472.3 358.4,468.4 376.4,468.4 376.4,461.5 
	358.4,461.5 358.4,457.6 383.7,457.6 383.7,450.7 351,450.7 "/>
<path style="fill:#003F6E;" d="M407.7,472.3h-10.6v-14.8H408c3.8,0.2,6.9,3.5,6.9,7.4C415,468.9,411.7,472.3,407.7,472.3
	 M409.5,450.7h-19.8v28.5H409c7.5-0.1,13.5-6.8,13.5-14.3C422.5,457.6,416.8,450.7,409.5,450.7"/>
<polygon style="fill:#003F6E;" points="456.1,459.5 449.1,450.7 439.5,450.7 452.3,466.9 452.3,479.2 459.8,479.2 459.8,466.9 
	472.7,450.7 463.1,450.7 "/>
<polygon style="fill:#003F6E;" points="476.1,479.2 508.8,479.2 508.8,472.3 483.6,472.3 483.6,468.4 501.6,468.4 501.6,461.5 
	483.6,461.5 483.6,457.6 508.8,457.6 508.8,450.7 476.1,450.7 "/>
<path style="fill:#003F6E;" d="M538.7,461.5h-14.4c-1.1,0-2.1-0.8-2.1-2c0-1.1,0.9-2,2-2h20.6v-6.9h-21.4c-4.8,0.3-8.6,4.2-8.6,9.1
	c0,4.8,3.7,8.3,8.5,8.6h14.9c1.1,0,2,0.9,2,2c0,1.2-0.9,2-2.1,2h-23.3v6.9h23.4c4.7-0.3,9.3-4.2,9.3-9.1
	C547.6,465.1,543.5,461.6,538.7,461.5"/>
<rect x="428.6" y="460.7" style="fill:#003F6E;" width="7.5" height="18.5"/>
<rect x="428.6" y="450.6" style="fill:#003F6E;" width="7.5" height="6.9"/>
<rect x="551.3" y="460.7" style="fill:#003F6E;" width="7.5" height="18.5"/>
<rect x="551.3" y="450.6" style="fill:#003F6E;" width="7.5" height="6.9"/>
<polygon style="fill:#1CA8BC;" points="459.2,240.8 426.2,237 426.2,244.6 "/>
<path style="fill:#1CA8BC;" d="M413.4,238.1c2.1,9.6-6.2,17.9-15.8,15.8c-4.8-1.1-8.7-5-9.8-9.8c-2.1-9.6,6.2-17.9,15.8-15.8
	C408.4,229.4,412.3,233.3,413.4,238.1 M399.8,182.4c-1.6,5.4-7.3,19.7-28,43.8h6.8v3.2v2v0.2v18.5v1.2v2.4v52.1
	c7.4,2.8,15.4,4.3,23.8,4.3c7,0,13.8-1.1,20.2-3.1v-53.3V245v-8.4v-7.3v-3.2h7.8c-20.7-24.1-27.4-38.4-29-43.8h-1.6V182.4z"/>
<path style="fill:#1CA8BC;" d="M385.1,138.4h-1.4c-2.8,0-5.1,2.3-5.1,5.1v5.3c0,2.4-1.9,4.3-4.3,4.3h-13.4c-2.4,0-4.3-1.9-4.3-4.3
	v-2.3c0-4.5-3.6-8.1-8.1-8.1h-27.8c-4.5,0-8.1,3.6-8.1,8.1v20.7v4.4v42.1l20.9,2.8c11-30.1,41.3-51,75.9-47.7
	c33.3,3.1,60.6,29,65.4,62.1c1.4,9.5,0.9,18.6-1.1,27.2h0.1c-7.4,32.6-36.6,57-71.5,57c-8.3,0-16.4-1.4-23.8-4
	c-21.4-7.3-38.3-24.2-45.7-45.6l-16.2,2.3c1.3,4.2,3,8.2,4.8,12.1c1.8,3.6,1.2,8-1.6,10.8c-4.1,4.1-4.1,10.8,0,14.9l16.2,16.2
	c4.1,4.1,10.8,4.1,14.9,0l0,0c2.8-2.8,7.1-3.4,10.6-1.7c3.4,1.7,6.9,3.1,10.5,4.3c3.8,1.3,6.4,4.8,6.4,8.8c0,5.8,4.7,10.5,10.6,10.5
	h22.9c5.8,0,10.6-4.7,10.6-10.6l0,0c0-4,2.6-7.5,6.3-8.7c3.6-1.2,7-2.7,10.4-4.3c3.6-1.8,8-1.2,10.8,1.6c4.1,4.1,10.8,4.1,14.9,0
	l16.1-16.1c4.1-4.1,4.3-10.8,0.2-14.8c-3-2.8-3.7-7.2-1.9-10.9c1.6-3.3,3.1-6.8,4.3-10.3c1.3-3.8,4.9-6.4,8.9-6.4
	c5.8,0,10.5-4.7,10.5-10.5v-22.9c0-5.8-4.7-10.5-10.5-10.5h-4.2v-72.5c0-4.5-3.6-8.1-8.1-8.1h-27.8c-4.5,0-8.1,3.6-8.1,8.1v2.3
	c0,2.4-1.9,4.3-4.3,4.3h-13c-2.4,0-4.3-1.9-4.3-4.3v-5.3c0-2.8-2.3-5.1-5.1-5.1h-2.2h-30.3V138.4z"/>
<path style="fill:#1CA8BC;" d="M375,230.9l-65.2-11.8c-6.3-0.7-11.8,4.2-11.8,10.5v23.2c0,6.3,5.5,11.2,11.8,10.5l65.2-12.5V230.9z"
	/>
<path style="fill:#1CA8BC;" d="M419.1,116.4c0.3,0-4.6-4.6-5.4-11.3c-0.3-2.8,0.1-7-1.5-9.6c-0.9-1.4-1.7-8-1.7-8s0.8-1.1,1-1.2
	c0.6-0.2-3.1-2.4-5.1-2.5c-0.5,0-1,0.1-1,0.1s-1.3-0.1-1.6-0.2c-0.3-0.2-0.4-0.5-0.5-0.6c-0.1-0.2-0.2-0.9-0.2-1.1s-0.3-0.3-0.3-0.3
	s0-0.5,0-0.8s0.1-0.7,0.1-0.8c0.3-0.2,0.4-0.2,0.6-0.5c0.3-0.5,0.4-1.9,0.4-1.9c0.7-0.8,1.5-1.9,1.5-3.2c0-1.7-0.8-4.1-3.8-4.4
	c-2.9-0.3-5.1,1.7-5.4,3.4c-0.3,1.3-0.2,2.5,0.4,3.5c0.4,0.6,1.1,1,1.1,1s0.1,0.7,0.2,1.1s0.5,1,0.5,1.3s-0.1,1.2-0.1,1.2
	s-0.2,0-0.2,0.2c-0.1,0.2-0.4,1.6-0.4,1.6s-0.8,0-0.9-0.1s-0.5-1.3-1.5-1.2c-0.2,0-1.2,0.7-1.3,0.7c-0.1,0-0.7-0.2-0.8,0
	c0,0.2-0.8,0-1-0.1c-0.3,0-1.1-0.1-1.5-0.1s-0.9-0.4-1.1-0.4s-4.6-1-5.2-1.1s-6.8-1.2-7.2-1.1c-0.2,0-0.1,0.2-0.2,0.1l0,0
	c-0.2-0.1-1.9-0.4-2.1-0.5c-0.2,0-1.5-0.3-1.9-0.4c-0.2,0-0.5-0.2-0.7-0.2c-0.1,0-1.2,0-1.8-0.1c-0.1,0-0.3,0-0.9,0.1
	c-0.2,0-0.5,0-0.6,0c-0.2,0-0.1,0.4,0.3,0.5c0.7,0,1,0,1.3,0.1c0.2,0,0.6,0.1,0.6,0.1s-0.2,0.3-0.4,0.6c-0.1,0.5-0.5,1.2-0.3,1.4
	c0.6,0.3,1-0.5,1.4-0.9c0.1-0.1,0.2-0.3,0.4-0.3h0.3c0.2,0.2,0.3,0.3,0.2,0.4c-0.3,0.2-0.4,0.3-0.7,0.5c-0.2,0.1-0.2,0.5-0.2,0.5
	c0.1,0.1,0.4,0,0.7-0.1c0.6-0.2,1.1-0.3,1.5-0.3c0.6,0,0.9-0.2,1-0.2c0.3,0.1,1.3,0.4,1.5,0.5c0,0.3-0.1,1-0.1,1.4
	c0.2,0.1,0.5,0.2,0.5,0.2s0,0.4,0.1,0.7c0,0.3,1.6,0.7,2.4,0.9c1.8,0.4,12.3,3.7,12.7,3.8c0.4,0.2,0.8,0.2,1.1,1.4
	c0.5,1.9,1.5,6.9,1.5,7.1c0,0.8,0,0.5,0,1.2c-0.1,1.4-2,8.2-1.4,8.6c0.8,0.6-0.6,8.5-0.3,10.2c0.2,1.8,0.4,1.3,0.8,1.5
	c-0.1,0.7,0.2,0.6,0.2,1c0,1.8-0.1,4.4,0,4.7c0,0-0.2,0.1-0.2,0.4c0,0.2,0.3,6.9,0.2,8c-0.1,1.1-0.5,1.7-0.5,1.7s-0.2,0.2-0.6,0.6
	c-1.1,1.3-1.1,1-2.8,1.1c-0.7,0-1.1,1.3-1.1,1.3H389l-0.1,0.8h9.6c0-0.9-0.1-2.7-0.1-2.7s-0.1-0.4-0.3-0.8c-0.1-0.4,0-0.8-0.1-1.8
	s1.1-6.8,1.1-6.9s0.9,0.2,2.5-0.1c1.3-0.2,2.1-0.5,2.1-0.5c0.1,0.9,0.7,5.1,0.9,6.2c0.2,1.3,0.1,2.3,0.1,2.8s-0.1,1-0.2,1.4
	s-0.1,1.6-0.1,2.3h7.7v-0.8l-0.2-0.1c0,0,0-0.4-0.2-0.7c-0.2-0.4-0.3-0.6-0.9-0.6c-1.5,0-2-0.9-2-1.3c-0.1-0.4-0.1-1.5-0.1-3
	s0.3-7.9,0.3-7.9s1.6-0.8,2.1-1.1c1.6-0.9,2.1-2.6,1.5-2.7C412.9,119.5,413.9,117.1,419.1,116.4"/>
</svg>
