<?xml version="1.0" encoding="UTF-8"?>
<svg id="Layer_2" data-name="Layer 2" xmlns="http://www.w3.org/2000/svg" viewBox="0 0 203.48 203.48">
  <defs>
    <style>
      .cls-1, .cls-2 {
        fill: #fff;
      }

      .cls-1, .cls-3 {
        fill-rule: evenodd;
      }

      .cls-4, .cls-3 {
        fill: #231f20;
      }

      .cls-5 {
        fill: #ffd200;
      }
    </style>
  </defs>
  <g id="Foreground">
    <g>
      <rect class="cls-2" width="203.48" height="203.48"/>
      <rect class="cls-5" x="4.12" y="4.12" width="195.24" height="195.24"/>
      <path class="cls-3" d="M61.7,129.71v-18.29h5.36v5.91l4.7-5.91h6.29l-5.97,6.88,6.61,11.41h-6.43l-3.93-7.29-1.27,1.5v5.79h-5.36ZM100.55,111.42l5.84,9.97-.2-4.16v-5.81h5.13v18.29h-5.03l-5.83-9.96.21,4.17v5.79h-5.13v-18.29h5.02ZM123.26,122.95v6.76h-5.36v-6.66l-6.09-11.63h6l2.82,6.19,2.82-6.19h5.9l-6.09,11.53ZM73.95,180.31h-8.82v-13h8.61v3.02h-5.15v1.88h4.36v3.02h-4.36v2.08h5.36v3.02ZM84,180.31h-8.22v-13h3.46v9.99h4.75v3.02ZM94.45,180.31h-8.82v-13h8.62v3.02h-5.15v1.88h4.36v3.02h-4.36v2.08h5.36v3.02ZM107.75,167.31h3.46v13h-3.46v-13ZM108.2,163.68h2.54v2.35h-2.54v-2.35ZM119.84,175.51v4.8h-3.46v-4.73l-3.93-8.27h3.87l1.82,4.41,1.82-4.41h3.81l-3.93,8.2ZM133.81,180.31h-8.82v-13h8.61v3.02h-5.15v1.88h4.35v3.02h-4.35v2.08h5.36v3.02ZM144.34,171.09h-3.28c-.11-.73-.57-1.1-1.4-1.1-.74,0-1.1.24-1.1.74,0,.42.34.75,1.02.99l2.21.78c.83.3,1.5.71,2.02,1.23.55.56.82,1.38.82,2.46,0,1.95-.79,3.28-2.36,3.98-.75.34-1.61.5-2.59.5-1.34,0-2.46-.43-3.34-1.3-.62-.61-1.04-1.34-1.24-2.21-.07-.27-.1-.55-.1-.85h3.32c.06.43.25.77.57,1.01.28.22.61.33.99.33.59,0,1.01-.15,1.26-.44.12-.14.18-.31.18-.51,0-.42-.34-.75-1.02-.98l-2.21-.77c-1.9-.65-2.85-1.92-2.85-3.83,0-1.8.74-3.02,2.21-3.68.69-.31,1.48-.47,2.37-.47,1.21,0,2.21.32,2.98.94.87.71,1.38,1.76,1.53,3.17M146.29,167.31h3.46v13h-3.46v-13ZM146.74,163.68h2.54v2.35h-2.54v-2.35ZM36.06,150.58v-12.63h5.64v13.41c0,1.31.18,2.32.53,3.05.35.71,1.06,1.06,2.13,1.06.97,0,1.65-.35,2.03-1.06.4-.7.6-1.72.6-3.05v-13.41h5.64v12.67c0,3.57-.66,6.18-1.98,7.84-1.32,1.66-3.42,2.49-6.29,2.49s-4.85-.79-6.24-2.36c-1.37-1.6-2.06-4.26-2.06-8M65.24,152.08v8.28h-5.64v-8.15l-6.41-14.25h6.31l2.96,7.59,2.97-7.59h6.22l-6.41,14.13ZM72.19,150.58v-12.63h5.64v13.41c0,1.31.18,2.32.53,3.05.35.71,1.06,1.06,2.13,1.06.97,0,1.65-.35,2.03-1.06.4-.7.6-1.72.6-3.05v-13.41h5.64v12.67c0,3.57-.66,6.18-1.99,7.84-1.32,1.66-3.42,2.49-6.29,2.49s-4.85-.79-6.24-2.36c-1.37-1.6-2.06-4.26-2.06-8M90.56,160.35v-22.4h5.64v7.25l4.95-7.25h6.62l-6.29,8.43,6.96,13.97h-6.77l-4.14-8.93-1.34,1.84v7.1h-5.64ZM123.49,144.45h-5.36c-.08-.7-.33-1.2-.77-1.49-.43-.29-.93-.44-1.51-.44-1.19,0-1.79.42-1.79,1.27s1.04,1.6,3.11,2.3c2.07.68,3.72,1.46,4.95,2.33,1.23.85,1.84,2.45,1.84,4.8,0,2.51-.73,4.43-2.2,5.75-1.27,1.13-2.89,1.77-4.88,1.92l-.65.85.59-.04c1.26,0,1.89.48,1.89,1.43,0,.5-.31.89-.94,1.16-.47.21-1.25.31-2.33.31-.45,0-1.09-.11-1.93-.31l.28-.95c.74.25,1.34.38,1.81.38.81,0,1.22-.17,1.22-.52,0-.17-.11-.32-.33-.45-.21-.11-.42-.17-.62-.17-.31,0-.61.05-.88.16l-.47-.35,1.05-1.47c-2.1-.07-3.82-.79-5.16-2.17-1.42-1.45-2.13-3.23-2.13-5.32h5.41c.11.79.41,1.38.88,1.77.49.37,1.04.56,1.65.56.73,0,1.31-.14,1.72-.4.42-.29.62-.71.62-1.24,0-.83-1.03-1.58-3.09-2.24-2.04-.66-3.69-1.44-4.95-2.33-1.24-.89-1.87-2.57-1.87-5.04,0-2.3.69-4.06,2.06-5.29,1.37-1.24,3.17-1.87,5.4-1.87s4,.65,5.21,1.96c1.21,1.31,1.93,3.02,2.15,5.13M139.75,160.35h-14.37v-22.4h14.04v5.23h-8.4v3.2h7.1v5.23h-7.1v3.51h8.73v5.23ZM146.92,160.35h-5.64v-22.4h5.64v7.56h5.33v-7.56h5.64v22.4h-5.64v-8.68h-5.33v8.68ZM160.17,137.95h5.64v22.4h-5.64v-22.4ZM45.18,132.53h4.04v4.05h-4.04v-4.05ZM39.73,132.53h4.04v4.05h-4.04v-4.05ZM81.68,132.53h4.04v4.05h-4.04v-4.05ZM76.23,132.53h4.04v4.05h-4.04v-4.05ZM160.76,132.53h4.04v4.05h-4.04v-4.05ZM136.3,123.49l-1.72-6.55-1.66,6.55h3.38ZM131.29,129.71h-5.25l5.86-18.29h5.46l5.86,18.29h-5.34l-.64-2.41h-5.34l-.61,2.41ZM85.59,115.41c-1.11,0-1.94.56-2.5,1.68-.44.89-.66,2.02-.66,3.38,0,2.07.43,3.57,1.3,4.49.48.51,1.12.77,1.91.77,1.46,0,2.42-.84,2.89-2.51.22-.79.33-1.7.33-2.75,0-1.97-.47-3.41-1.4-4.33-.49-.48-1.11-.72-1.87-.72M85.64,110.94c2.74,0,4.89.97,6.45,2.9,1.43,1.78,2.14,3.98,2.14,6.62,0,1.88-.33,3.54-1,4.98-.72,1.57-1.78,2.77-3.19,3.6-1.31.77-2.78,1.15-4.4,1.15-3.55,0-6.05-1.51-7.5-4.52-.71-1.47-1.07-3.22-1.07-5.26,0-2.85.79-5.14,2.37-6.88,1.58-1.73,3.64-2.6,6.2-2.6M26.62,150.99h-1.79v4.14h2.46c.8,0,1.4-.13,1.82-.4.42-.29.62-.84.62-1.65,0-.89-.25-1.46-.77-1.71-.49-.25-1.28-.37-2.34-.37M26.81,143.18h-1.98v3.73h2.34c.59,0,1.06-.17,1.41-.5.35-.33.52-.82.52-1.46,0-.77-.19-1.26-.57-1.46-.38-.21-.96-.31-1.72-.31M27.57,160.35h-8.39v-22.4h8.22c2.18,0,3.89.41,5.12,1.24,1.23.83,1.84,2.29,1.84,4.39,0,1.06-.21,2-.65,2.83-.41.83-.95,1.52-1.6,2.05.91.31,1.61.93,2.1,1.87.51.91.77,2,.77,3.27,0,2.39-.65,4.11-1.94,5.17-1.28,1.06-3.1,1.59-5.48,1.59M58.16,174.88h-1.1v2.42h1.51c1,0,1.5-.4,1.5-1.2,0-.67-.29-1.05-.86-1.15-.26-.05-.61-.07-1.04-.07M58.28,170.33h-1.22v2.19h1.44c.79,0,1.19-.38,1.19-1.15,0-.47-.15-.77-.46-.92-.17-.08-.49-.12-.95-.12M58.75,180.31h-5.15v-13h5.05c1.33,0,2.34.23,3.05.68.82.53,1.23,1.39,1.23,2.59s-.46,2.12-1.38,2.83c.75.23,1.27.78,1.56,1.66.14.41.2.85.2,1.32,0,1.39-.41,2.4-1.22,3.02-.78.6-1.88.9-3.33.9M99.58,170.33v6.97h.73c1.67,0,2.5-1.17,2.5-3.53,0-1.71-.36-2.76-1.07-3.14-.37-.2-.87-.3-1.5-.3h-.66ZM100.66,180.31h-4.55v-13h4.64c1.74,0,3.09.51,4.04,1.52.98,1.05,1.47,2.62,1.47,4.72,0,4.51-1.87,6.77-5.61,6.77M173.56,143.18v4.45h2.22c.89,0,1.56-.16,2.01-.47.45-.33.67-.88.67-1.65s-.22-1.32-.65-1.71c-.41-.41-.96-.62-1.63-.62h-2.63ZM175.28,152.54h-1.72v7.81h-5.64v-22.41h8.13c2.79,0,4.76.51,5.91,1.52,1.15,1,1.72,2.61,1.72,4.86,0,1.35-.25,2.51-.74,3.48-.48.98-1.19,1.64-2.15,1.99,1.08.52,1.84,1.13,2.27,1.84.43.68.65,2.05.65,4.11v2.52c.03.93.23,1.4.6,1.4v.69h-5.71c-.19-.67-.29-1.97-.29-3.92,0-1.56-.18-2.59-.55-3.11-.35-.52-1.17-.78-2.46-.78"/>
      <path class="cls-4" d="M87.91,80.68c-.5.72-2.16,2.71-4.64,2.24,1.92-.67,2.43-2.25,2.56-2.86-.18-.48-.86-1.11-1.92-.53-3.47,2.46-5.36,1.21-7.03.73-1.67-.49-3.39,3.47-3.39,3.47-1.5-4.77,3.68-7.03,3.68-7.03,0,0-1.3-1.13-4.85,1.74.67-4.4,5.02-4.57,5.02-4.57,0,0-.88-1.17-4.27.28,1.17-2.55,2.72-3.56,5.69-3.77,2.97-.2,4.01,1.79,6.57,1.63,3.05-.2,3.97-4.04,3.93-5.62-.04-1.58-1.38-3.11-1.59-6.99-2.97-2.14-2.59-5.7-2.59-5.7,0,0-.88.69-1.54.73-.29,1.13-1.17,2.42-3.22,2.59-.88,3.03-2.97,2.3-2.97,2.3,0,0-.54,2.99-2.68,3.19-.38,3.47-3.35,4.08-3.35,4.08v5.74s.29,5.01-4.14,6.87c-.67,7.51-6.11,13.42-12.55,13.05,9.37-7.68,7.82-13.5,7.82-13.5,0,0-2.22,1.46-8.16,1.13,2.17-1.54,5.98-6.34,6.53-11.19-4.73,2.79-9.41-.16-9.41-.16,0,0,2.22-.33,5.44-2.87,3.22-2.55,6.07-15.11,6.07-15.11,0,0-2.22,1.09-7.2.24,4.68-.81,7.03-7.11,8.41-10.83,1.38-3.72,3.39-6.14,7.95-6.14s7.49,6.14,7.49,6.14c0,0,2.34,3.88,7.07,4.16,4.73.28,5.02-3.88,5.02-3.88,0,0,.08-2.75-2.3-2.46-3.77.41-4.98-3.15-4.98-3.15,0,0-2.59-.69-4.39,3.03-.63-3.11-.5-6.87,4.39-8.28,3.85-4.44,8.66-3.88,8.66-3.88,0,0,1.85.19,5.69-.93.59,1.86-.92,4.11-.92,4.11,0,0,3.01,1.25,3.93,2.62,1.81-1.87,3.93-2.62,3.93-2.62,0,0-1.51-2.25-.92-4.11,3.52,1.03,5.69.93,5.69.93,0,0,4.81-.56,8.66,3.88,4.89,1.41,5.02,5.17,4.39,8.28-1.8-3.72-4.39-3.03-4.39-3.03,0,0-1.21,3.56-4.98,3.15-2.38-.28-2.3,2.46-2.3,2.46,0,0,.29,4.16,5.02,3.88,4.73-.28,7.07-4.16,7.07-4.16,0,0,2.93-6.14,7.49-6.14s6.57,2.42,7.95,6.14c1.38,3.72,3.72,10.02,8.41,10.83-4.98.85-7.2-.24-7.2-.24,0,0,2.84,12.56,6.07,15.11,3.22,2.55,5.44,2.87,5.44,2.87,0,0-4.68,2.95-9.41.16.54,4.85,4.35,9.66,6.53,11.19-5.94.32-8.16-1.13-8.16-1.13,0,0-1.55,5.82,7.82,13.5-6.44.37-11.88-5.54-12.55-13.05-4.43-1.86-4.14-6.87-4.14-6.87v-5.74s-2.97-.61-3.35-4.08c-2.14-.2-2.68-3.19-2.68-3.19,0,0-2.09.73-2.97-2.3-2.05-.16-2.93-1.45-3.22-2.59-.67-.04-1.55-.73-1.55-.73,0,0,.38,3.55-2.59,5.7-.21,3.88-1.55,5.41-1.59,6.99-.04,1.58.88,5.41,3.93,5.62,2.55.16,3.6-1.83,6.57-1.63,2.97.2,4.52,1.22,5.69,3.77-3.39-1.45-4.27-.28-4.27-.28,0,0,4.35.16,5.02,4.57-3.56-2.87-4.85-1.74-4.85-1.74,0,0,5.19,2.26,3.68,7.03,0,0-1.72-3.96-3.39-3.47-1.67.48-3.56,1.74-7.03-.73-1.14-.63-1.83.15-1.95.63.16.67.72,2.13,2.54,2.76-2.8.54-4.54-2.07-4.77-2.44-.08-.1-.17-.22-.25-.35-.88-.97-2.51-.04-2.51,2.83,2.01,1.5,8.37,6.55,8.37,6.55,0,0,2.36,1.71.54,3.52-1.51,1.5-3.6.8-3.6.8,0,0-.22,3.03-3.48,2.14-.31,2.91-3.35,2.69-4.32,1.97-.87,1.91-3.75,1.66-4.75.21-.97,1.63-2.41,1.84-2.41,1.84-.78.24-1.6.24-2.45,0,0,0-1.44-.21-2.41-1.84-1,1.46-3.88,1.71-4.75-.21-.96.73-4.01.95-4.32-1.97-3.26.89-3.48-2.14-3.48-2.14,0,0-2.1.7-3.6-.8-1.82-1.8.54-3.52.54-3.52,0,0,6.36-5.05,8.37-6.55,0-2.87-1.63-3.8-2.51-2.83-.15.23-.3.41-.44.55"/>
      <path class="cls-1" d="M104,46.99c3.86.03,4.95-1.25,6.87-2.07,1.51-.64,2.95-.18,3.87.33.81.44,2.37,1.24,3.18,2.97,1.6,3.46,1.09,3.42.6,3.76-.52.37-1.55-.23-1.5,1.03.34,2.66-1.21,3.6-1.21,3.6,0,0-1.65,1.51-4.19.86-3.05-.78-5.11-.61-5.4,1.92-.29,2.53.58,4.58,1.61,6.01,1.03,1.43.5,5.22-4.23,5.22h-3.72c-4.74,0-5.27-3.78-4.24-5.22,1.03-1.43,1.91-3.48,1.62-6.01-.29-2.53-2.34-2.7-5.4-1.92-2.54.65-4.19-.86-4.19-.86,0,0-1.55-.94-1.21-3.6.05-1.26-.98-.65-1.5-1.03-.49-.35-1-.31.6-3.76.8-1.73,2.37-2.53,3.18-2.97.92-.51,2.37-.96,3.87-.33,1.93.81,3.01,2.09,6.87,2.07,3.86-.03.65-.03,4.52,0M118.36,33.83s-.32-1.79-.14-2.84c.18-1.05.08-1.37-1.1-2.19-1.54-1.26-3.96-1.65-5.09-1.26-1.13.39-.86,1.69-3.97,1.95-2.85.26-4.5,3.99-4.82,5.08-.32,1.09-.4,4.19-.22,5.41.18,1.22,1.88,2.79,4.33,1.44,2.44-1.35,3.43-3.27,4.47-4.1,1.04-.83,2.58-.78,2.58-.78,0,0,1.77.43,2.53-1.14.72-1.39,1.44-1.57,1.44-1.57M106.42,26s1.57.57,3.16.64c1.24.06,1.06.53.93.9-.24.68-1.42.89-2.91.72-.87-.11-1.15-.8-1.29-1.18-.24-.66-.54-1.32-.54-1.32l.65.25ZM97.24,26s-1.57.57-3.17.64c-1.24.06-1.05.53-.93.9.24.68,1.42.89,2.91.72.87-.11,1.15-.8,1.29-1.18.24-.66.54-1.32.54-1.32l-.65.25ZM106.52,85.01c.31-.07.76-.49.56-1.09l-1.7-5.53c-.1-.4-.44-.66-.75-.59-.31.08-.48.46-.38.86l1.04,5.48c.21.86.91.95,1.23.88M107.97,97.48s.97-.19.73-1.58c-.24-1.38-3-7.93-3-7.93,0,0-.32-1.2-1-.97-.39.13-.68.96-.6,1.3.08.34,1.99,8.06,1.99,8.06.46,1.25,1.07,1.25,1.89,1.13M112.27,96.4s.93-.34.47-1.67c-.46-1.33-4.2-7.59-4.2-7.59,0,0-.61-1.32-1.33-.99-.51.23-.1,1.37.03,1.69.14.32,2.99,7.73,2.99,7.73.66,1.16,1.26,1.07,2.05.83M103.54,75.55c1.79-.09,3.73-.48,5.42-1.91,1.69-1.43.9-2.44.9-2.44,0,0-.8-1.58-1.88-.39-1.98,1.91-4.59,1.99-4.59,1.99h-3.29s-2.71-.17-4.59-1.99c-1.08-1.19-1.88.39-1.88.39,0,0-.8,1.01.89,2.44,1.69,1.43,3.63,1.82,5.42,1.91,1.79.09,1.81.09,3.59,0M103.95,45.6c5.6.04,6.91-2.53,6.91-2.53,0,0,.45-.75-.45-1.7-1.4,2.49-6.5,2.14-6.5,2.14h-4.34s-5.11.35-6.51-2.14c-.9.96-.45,1.7-.45,1.7,0,0,1.31,2.57,6.91,2.53h4.43ZM120.83,44.19s.54.16.4.87c-.14.71-.49.71-1.32.55-.83-.15-.95-.4-.8-.69.15-.29.59-.74,1.45-.78.18,0,.27.05.27.05M122.56,46.35c.31.26,1.53,1.38,2.8.69,1.28-.69.94-1.71.41-1.94-.52-.23-1.19,0-1.9-.06-.72-.06-1.42,0-1.56.4-.14.4-.05.65.25.91M127.9,43.99c.54.05,1.96-.01,2.32-1.04.37-1.03-.38-1.68-.6-1.69-.23-.02-1.12-.14-1.83.81-.72.96-.6,1.4-.6,1.4,0,0,.18.48.71.52M130.42,48.27s1.72.12,2.28-.78c.56-.89.36-1.88.1-2.33-.26-.45-1.45-1.29-2.52-.65-1.07.65-2,.9-2,.9,0,0-.77.19-.82.99-.05.79.15,1.29.87,1.54.72.25,2.09.33,2.09.33M133.72,43.53s1.49.14,1.55-.99c.05-1.13-1.3-2.78-2.27-3.22-.97-.44-1.48.1-1.79.75-.31.65.15,1.83.57,2.58.41.75,1.95.89,1.95.89M136.85,44.97s1.13,1.53,1.03,2.58c-.1,1.04-.92.84-1.84.65-.93-.2-1.7-1.5-1.8-2.14-.1-.64.43-1.17,1.08-1.48.82-.4,1.54.4,1.54.4M111.39,81.75c.28-.17.45-.75.07-1.27l-2.62-3.76c-.23-.35-.63-.5-.9-.33-.27.16-.31.58-.09.93l2.15,3.95c.47.75,1.12.64,1.39.47M109.25,84.09c.3-.11.68-.55.41-1.13l-2.37-5.32c-.15-.39-.52-.61-.82-.49-.3.11-.42.51-.27.9l1.82,5.49c.31.83.93.66,1.23.55M103.53,85.59c.34-.04,1.03-.43.99-.84l-1.12-6.21c-.04-.41-.36-.71-.7-.68-.34.03-.58.39-.54.8l.22,6.29c.05.41.81.68,1.15.64M116.27,94.67s.87-.46.22-1.71c-.65-1.26-5.27-6.74-5.27-6.74,0,0-.63-.92-1.22-.51-.34.23,0,.85.19,1.15.18.3,3.94,7.27,3.94,7.27.82,1.07,1.4.89,2.14.54M113.25,84.84c.45.31,5.03,4.21,6.29,5.66,1.26,1.45-.5,2.01-1.39,1.54-.89-.47-4.49-4.73-5.45-5.83-1.24-1.45-.56-1.6-.56-1.6,0,0,.44-.23,1.12.23M116,75.75c-.52.02-1.28-.05-1.46.76-.18.81.7,2.46,1.46,2.71.81.03.63-.97,1.75-1.17,1.12-.2,2.09-.31,3.24.37,1.14.68,2.1,1.34,3.89.78,1.49-.59.15-1.46-.41-1.73-.56-.27-.46-1.05.25-1.52.71-.47.06-1.47-.86-1.53-.71-.05-.1-.88.41-1.03.51-.15-.01-1.57-1.6-1.37-1.59.19-2.54,1.3-3.61,1.42-1.06.12-1.67.97-1.88,1.52-.2.55-.67.77-1.19.8M115.2,74.43s1.38-.12,1.18-1.1c-.2-.98-1.21-.64-2.4-.81-1.19-.17-1.66-.73-2.32.12-.66.86-1.86,1.52-1.76,2.62.1,1.1.76,2.41,1.4,3.36.64.95,1.56.23,1.69-.29.13-.53-.51-1.69.41-2.83.91-1.14,1.8-1.07,1.8-1.07M113.26,69.52s-1.75-3.15.03-7.31c.98-2.4-1.83-3.04-1.83-3.04,0,0-3.33-1.23-3.41.56-.08,1.79,1.06,5.34,1.88,6.57.82,1.23.24,2.12.24,2.12,0,0-.37.54,0,.92.37.38,1.56,1.56,2.86,1.64,1.19.05.24-1.46.24-1.46M122.45,55.09s.54-.36-.75-3.61c-1.29-3.25-1.56-3.59-1.56-3.59,0,0-.45-.6-.78-.57-.34.03-.53.18-.31.81.22.63,1.27,2.57,1.47,4.11.35,2.62,1.94,2.86,1.94,2.86M125.57,57.14s.2-3.83-2.11-7.98c-.57-.87-.83-.77-1.07-.77s-.57.22-.41.77c.16.55.45,1.26,1.09,2.63.65,1.37.88,2.95.95,3.48.22,1.73,1.54,1.87,1.54,1.87M128.2,59.89s.59-1.97-.3-5.19c-.89-3.22-1.59-4.86-1.59-4.86,0,0-.26-.8-.88-.85-.62-.05-.67.69-.54.93.14.23,1.61,3.26,1.72,4.99.11,1.73.38,3.24,1.02,4.33.24.42.57.65.57.65M128.72,50.31s4.66,10.89,2.59,13.5c-1.22-1.94-1.06-4.3-1.91-7.62-.85-3.32-1.06-4.55-1.59-5.73-.53-1.18,0-1.16,0-1.16,0,0,.36-.15.76.74.04.12.13.27.13.27M135.44,75.53s.11-7.67-1.16-14.32c-1.27-6.65-2.38-9.31-2.91-10.74-.53-1.38-1.16-1.18-1.16-1.18,0,0-.69.1-.26,1.07.42.97,3.44,7.88,3.39,13.5-.05,5.63-.11,8.34.58,9.97.69,1.63,1.53,1.69,1.53,1.69M133.75,50.98s3.6,8.34,5.03,22.76c1.27,9.77,1.54,11.51,3.12,13.96-2.01-1.69-4.29-4.09-4.66-10.89-.37-6.8-1.69-18.72-3.65-23.47-1.06-2.46-1.22-2.86-1.22-2.86,0,0-.51-1,.31-1.08.63-.06.81.82.81.82l.26.77ZM144.44,77.88s-1.96-2.97-4.39-13.6c-2.44-10.64-3.65-13.96-3.65-13.96,0,0-.25-.79-.94-.78-.69.01-.54.64-.48.88.07.24,2.86,9.18,4.33,17.44,1.3,7.31,2.22,8.29,2.22,8.29.85,1.12,1.75,1.3,2.91,1.74M139.11,50.78s2.83,13.74,6.44,16.42c-1.73.05-3.78-1.45-4.67-4.62-.89-3.17-3-12.01-3-12.01,0,0-.21-.91.44-.91s.79,1.13.79,1.13M125.82,42.79s.42-.33.18-.85c-.24-.52-.63-.75-1.08-.71-.45.04-1.04.65-1.49,1.18-.45.53-.79.89-.68,1.27.11.38,1.12.71,1.88.23.76-.48,1.18-1.12,1.18-1.12M130.29,38.26s-.76-1.26-.91-2.17c-.1-.53-.81-.33-.97-.18-.16.15-1.72,1.33-2.25,2.82-.43,1.18.57,1.7.57,1.7,0,0,.68.49,1.67-.33.99-.82,1.89-1.84,1.89-1.84M135.79,39.97s1.48.25,1.5-1.07c.02-1.32-1.07-1.35-1.33-1.37-.26-.02-1.18.32-1.11,1.4.07,1.08.93,1.03.93,1.03M138.5,41.34c.24.76,1.75,6.35,4.66,8.36-1.84.08-2.66-.36-3.33-1.36-.81-1.23-2.54-4.93-2.82-6.08-.28-1.15.2-1.38.44-1.5.24-.12.81-.18,1.05.58M119.9,30.95s2.71.56,3.03,4.06c-1.9-1.92-3.34-2.05-3.34-2.05,0,0-.23-.79-.09-1.62.04-.35.41-.39.41-.39M116.87,30.16s-.54-1.66-3.43-1.75c.45,2.27,1.26,3.01,2.34,2.79,1.09-.22,1.09-1.05,1.09-1.05M82.65,44.19s-.54.16-.4.87c.14.71.49.71,1.32.55.83-.15.95-.4.8-.69-.15-.29-.59-.74-1.45-.78-.17,0-.27.05-.27.05M80.92,46.35c-.31.26-1.52,1.38-2.8.69-1.27-.69-.94-1.71-.41-1.94.52-.23,1.19,0,1.91-.06.71-.06,1.42,0,1.56.4.14.4.05.65-.25.91M75.57,43.99c-.54.05-1.96-.01-2.32-1.04-.37-1.03.38-1.68.6-1.69.23-.02,1.12-.14,1.83.81.71.96.6,1.4.6,1.4,0,0-.17.48-.71.52M73.06,48.27s-1.72.12-2.28-.78c-.56-.89-.36-1.88-.1-2.33.26-.45,1.45-1.29,2.52-.65,1.07.65,2,.9,2,.9,0,0,.77.19.82.99.05.79-.16,1.29-.87,1.54-.72.25-2.09.33-2.09.33M69.76,43.53s-1.49.14-1.54-.99c-.05-1.13,1.3-2.78,2.26-3.22.97-.44,1.48.1,1.79.75.31.65-.15,1.83-.57,2.58-.41.75-1.95.89-1.95.89M66.63,44.97s-1.13,1.53-1.03,2.58c.1,1.04.92.84,1.84.65.93-.2,1.7-1.5,1.8-2.14.1-.64-.43-1.17-1.08-1.48-.82-.4-1.53.4-1.53.4M92.08,81.75c-.27-.17-.45-.75-.07-1.27l2.62-3.76c.23-.35.63-.5.91-.33.27.16.31.58.09.93l-2.15,3.95c-.47.75-1.11.64-1.39.47M94.23,84.09c-.3-.11-.68-.55-.41-1.13l2.37-5.32c.15-.39.52-.61.82-.49.3.11.42.51.27.9l-1.82,5.49c-.31.83-.93.66-1.23.55M99.99,85.59c-.34-.04-1.03-.43-.99-.84l1.12-6.21c.04-.41.36-.71.7-.68.34.03.58.39.54.8l-.22,6.29c-.04.41-.81.68-1.15.64M96.89,85.01c-.31-.07-.76-.49-.56-1.09l1.7-5.53c.1-.4.44-.66.75-.59.31.08.48.46.38.86l-1.04,5.48c-.21.86-.91.95-1.23.88M101.65,98.18s-1.67-.16-1.81-1.56c-.14-1.4,1.08-7.65,1.08-7.65,0,0,.11-1.22.83-1.17.42.03.64.81.65,1.16.01.35,1.12,7.47,1.12,7.47.08,1.05-1.06,1.66-1.88,1.74M95.46,97.48s-.97-.19-.73-1.58c.24-1.38,3-7.93,3-7.93,0,0,.32-1.2,1-.97.39.13.68.96.6,1.3-.08.34-1.99,8.06-1.99,8.06-.46,1.25-1.07,1.25-1.89,1.13M91.16,96.83s-.93-.34-.47-1.67c.46-1.33,4.2-7.59,4.2-7.59,0,0,.61-1.32,1.33-.99.51.23.1,1.37-.03,1.69-.14.32-2.99,7.73-2.99,7.73-.66,1.17-1.26,1.07-2.04.83M87.21,94.67s-.87-.46-.22-1.71c.65-1.26,5.27-6.74,5.27-6.74,0,0,.63-.92,1.22-.51.34.23,0,.85-.19,1.15-.18.3-3.94,7.27-3.94,7.27-.82,1.07-1.4.89-2.14.54M90.23,84.84c-.45.31-5.03,4.21-6.28,5.66-1.26,1.45.49,2.01,1.39,1.54.89-.47,4.49-4.73,5.45-5.83,1.24-1.45.57-1.6.57-1.6,0,0-.44-.23-1.12.23M87.48,75.75c.52.02,1.28-.05,1.46.76.18.81-.7,2.46-1.46,2.71-.81.03-.63-.97-1.75-1.17-1.12-.2-2.09-.31-3.24.37s-2.1,1.34-3.89.78c-1.49-.59-.15-1.46.41-1.73.56-.27.46-1.05-.25-1.52-.71-.47-.06-1.47.86-1.53.71-.05.1-.88-.4-1.03-.51-.15,0-1.57,1.6-1.37,1.59.19,2.54,1.3,3.6,1.42,1.06.12,1.67.97,1.88,1.52.2.55.67.77,1.19.8M88.28,74.43s-1.38-.12-1.18-1.1c.2-.98,1.21-.64,2.4-.81,1.19-.17,1.66-.73,2.32.12.66.86,1.86,1.52,1.76,2.62-.1,1.1-.76,2.41-1.4,3.36-.64.95-1.56.23-1.69-.29-.13-.53.51-1.69-.41-2.83-.91-1.14-1.8-1.07-1.8-1.07M90.22,69.52s1.75-3.15-.03-7.31c-.98-2.4,1.83-3.04,1.83-3.04,0,0,3.34-1.23,3.41.56.08,1.79-1.06,5.34-1.88,6.57-.82,1.23-.24,2.12-.24,2.12,0,0,.37.54,0,.92-.37.38-1.56,1.56-2.86,1.64-1.19.05-.24-1.46-.24-1.46M81.03,55.09s-.54-.36.76-3.61c1.29-3.25,1.56-3.59,1.56-3.59,0,0,.44-.6.78-.57.34.03.53.18.31.81-.22.63-1.27,2.57-1.47,4.11-.35,2.62-1.94,2.86-1.94,2.86M77.91,57.14s-.2-3.83,2.11-7.98c.57-.87.83-.77,1.07-.77s.57.22.41.77c-.16.55-.45,1.26-1.09,2.63-.65,1.37-.88,2.95-.94,3.48-.22,1.73-1.54,1.87-1.54,1.87M75.28,59.89s-.59-1.97.3-5.19c.89-3.22,1.59-4.86,1.59-4.86,0,0,.26-.8.88-.85.62-.05.67.69.54.93-.13.23-1.61,3.26-1.71,4.99-.11,1.73-.38,3.24-1.03,4.33-.24.42-.57.65-.57.65M74.76,50.31s-4.66,10.89-2.59,13.5c1.22-1.94,1.06-4.3,1.91-7.62.85-3.32,1.06-4.55,1.59-5.73.53-1.18,0-1.16,0-1.16,0,0-.36-.15-.76.74-.04.12-.13.27-.13.27M68.04,75.53s-.11-7.67,1.16-14.32c1.27-6.65,2.38-9.31,2.91-10.74.53-1.38,1.16-1.18,1.16-1.18,0,0,.69.1.26,1.07-.42.97-3.44,7.88-3.39,13.5.05,5.63.11,8.34-.58,9.97-.69,1.63-1.54,1.69-1.54,1.69M69.73,50.98s-3.6,8.34-5.03,22.76c-1.27,9.77-1.53,11.51-3.12,13.96,2.01-1.69,4.29-4.09,4.66-10.89.37-6.8,1.69-18.72,3.65-23.47,1.06-2.46,1.21-2.86,1.21-2.86,0,0,.51-1-.31-1.08-.63-.06-.81.82-.81.82l-.26.77ZM59.04,77.88s1.96-2.97,4.39-13.6c2.44-10.64,3.65-13.96,3.65-13.96,0,0,.25-.79.94-.78.69.01.54.64.48.88-.07.24-2.86,9.18-4.33,17.44-1.3,7.31-2.22,8.29-2.22,8.29-.85,1.12-1.75,1.3-2.91,1.74M64.38,50.78s-2.83,13.74-6.44,16.42c1.73.05,3.78-1.45,4.67-4.62.89-3.17,3-12.01,3-12.01,0,0,.21-.91-.44-.91s-.79,1.13-.79,1.13M77.65,42.79s-.42-.33-.18-.85c.24-.52.63-.75,1.08-.71.45.04,1.04.65,1.48,1.18.45.53.79.89.68,1.27-.11.38-1.12.71-1.88.23-.76-.48-1.18-1.12-1.18-1.12M73.19,38.26s.76-1.26.91-2.17c.11-.53.81-.33.97-.18.16.15,1.72,1.33,2.25,2.82.43,1.18-.56,1.7-.56,1.7,0,0-.68.49-1.67-.33-.99-.82-1.89-1.84-1.89-1.84M69.75,37.83s-.17-1.46-1.52-1.67c1.07-1.02,2.65-1.3,3.74-1.09,1.09.21.04,2.18-.25,2.5-.54-.21-.35-.38-1.18-.31-.31.01-.79.57-.79.57M67.69,39.97s-1.48.25-1.5-1.07c-.02-1.32,1.07-1.35,1.33-1.37.26-.02,1.18.32,1.11,1.4-.07,1.08-.93,1.03-.93,1.03M64.98,41.34c-.24.76-1.75,6.35-4.66,8.36,1.84.08,2.66-.36,3.33-1.36.81-1.23,2.54-4.93,2.82-6.08.28-1.15-.2-1.38-.44-1.5-.24-.12-.81-.18-1.05.58M85.12,33.83s.32-1.79.13-2.84c-.18-1.05-.08-1.37,1.1-2.19,1.54-1.26,3.96-1.65,5.09-1.26,1.13.39.86,1.69,3.98,1.95,2.85.26,4.5,3.99,4.82,5.08.32,1.09.41,4.19.22,5.41-.18,1.22-1.88,2.79-4.33,1.44-2.44-1.35-3.43-3.27-4.47-4.1-1.04-.83-2.58-.78-2.58-.78,0,0-1.76.43-2.53-1.14-.72-1.39-1.44-1.57-1.44-1.57M83.58,30.95s-2.71.56-3.03,4.06c1.9-1.92,3.34-2.05,3.34-2.05,0,0,.22-.79.09-1.62-.04-.35-.41-.39-.41-.39M86.61,30.16s.54-1.66,3.43-1.75c-.45,2.27-1.26,3.01-2.35,2.79-1.09-.22-1.09-1.05-1.09-1.05M133.63,37.83s.17-1.46,1.52-1.67c-1.08-1.02-2.65-1.3-3.74-1.09-1.09.21-.04,2.18.25,2.5.54-.21.35-.38,1.18-.31.31.01.79.57.79.57"/>
    </g>
  </g>
</svg>