<?xml version="1.0" encoding="iso-8859-1"?>
<!-- Generator: Adobe Illustrator 29.7.1, SVG Export Plug-In . SVG Version: 9.03 Build 0)  -->
<svg version="1.1" id="katman_1" xmlns="http://www.w3.org/2000/svg" xmlns:xlink="http://www.w3.org/1999/xlink" x="0px" y="0px"
	 viewBox="0 0 1450.1 1025.9" style="enable-background:new 0 0 1450.1 1025.9;" xml:space="preserve">
<path style="fill:#30367F;" d="M1243.8,635.6v-18h23.3v23.9L1243.8,635.6z M1267.1,647.1v65h-23.3v-70.9L1267.1,647.1z
	 M1231.4,683.9c0,4.2-0.8,8.1-2.5,11.7c-1.7,3.6-4,6.8-7.2,9.5c-3.1,2.7-6.9,4.8-11.4,6.4c-4.5,1.6-9.5,2.3-15.2,2.3
	c-5.2,0-10.4-0.6-15.6-1.7c-5.2-1.1-10-2.8-14.5-5l4.7-17.8c3.3,1.6,7.1,3,11.2,4.2c4.2,1.2,8.7,1.8,13.5,1.8c4,0,7.2-0.7,9.8-2.2
	c2.6-1.5,3.8-3.9,3.8-7.2c0-2.4-1.1-4.5-3.3-6.5c-2.2-1.9-6.3-4-12.1-6.2c-9.3-3.5-16-7.5-20.3-12s-6.4-10.2-6.4-17.3
	c0-9.2,3-16.2,9-21s14.3-7.2,24.9-7.2c5.4,0,10.6,0.6,15.5,1.8s9.1,2.7,12.5,4.6l-4,17.5c-3.3-1.6-6.9-2.9-10.9-3.9
	c-3.9-1-8-1.5-12.1-1.5c-3.5,0-6.3,0.6-8.5,1.8c-2.1,1.2-3.2,3.2-3.2,6c0,1.3,0.2,2.5,0.6,3.4s1.1,1.8,2.1,2.7s2.4,1.7,4.2,2.6
	c1.8,0.9,4.1,1.8,6.8,3c4,1.6,7.7,3.3,11.2,5.1s6.5,3.9,9.1,6.2c2.6,2.4,4.6,5.1,6,8.1C1230.7,676.3,1231.4,679.9,1231.4,683.9z
	 M1095.5,617.6h58.9v18.5h-35.6v19h33.9v18.5h-33.9v20.2h36.1v18.5h-59.4V617.6z M1057.4,677.8v34.4h-23.3v-34.4l-31.1-60.2h24.9
	l17.9,39.8l17.9-39.8h24.9L1057.4,677.8z M972,635.6v-18h23.3v23.9L972,635.6z M995.3,647.1v65H972v-70.9L995.3,647.1z M904.6,693.7
	c4.7,0,9-0.7,12.9-2s7.2-3.2,10-5.7s4.9-5.5,6.5-9c1.5-3.6,2.3-7.6,2.3-12.1s-0.8-8.6-2.3-12.1c-1.5-3.6-3.7-6.6-6.5-9
	c-2.8-2.5-6.1-4.4-10-5.7s-8.2-2-12.9-2h-7v57.7h7V693.7z M874.4,617.6h28.8c8.3,0,16,1.2,22.9,3.6c7,2.4,12.9,5.6,17.8,9.8
	c4.9,4.2,8.8,9.2,11.5,15s4.1,12.1,4.1,19c0,6.8-1.4,13.1-4.1,19c-2.7,5.8-6.6,10.8-11.5,15s-10.9,7.4-17.8,9.8
	c-7,2.4-14.6,3.6-22.9,3.6h-28.8V617.6z M800.5,617.6h58.9v18.5h-35.6v19h33.9v18.5h-33.9v20.2h36.1v18.5h-59.4V617.6z M755.4,617.6
	v76.1h34.8v18.5h-58.1v-94.6H755.4z M658.3,617.6h58.9v18.5h-35.6v19h33.9v18.5h-33.9v20.2h36.1v18.5h-59.4V617.6z M605.7,655.2
	c4.1,0,7.4-0.9,9.9-2.8c2.6-1.8,3.8-4.5,3.8-7.9c0-3-1.1-5.4-3.3-7c-2.2-1.7-5.3-2.5-9.3-2.5h-8v20.2H605.7z M622.9,683.6
	c0-3.6-1.4-6.3-4.3-8.2c-2.9-1.8-6.9-2.8-12-2.8h-7.7v22h8.2c5.7,0,9.7-1.1,12.1-3.3C621.7,689.3,622.9,686.7,622.9,683.6z
	 M645.9,685.5c0,4.3-0.9,8-2.8,11.4c-1.9,3.3-4.6,6.1-8.2,8.4c-3.6,2.3-7.8,4-12.8,5.2s-10.5,1.8-16.5,1.8h-29.4v-94.6h33.9
	c5.1,0,9.7,0.6,13.7,1.7c4,1.1,7.4,2.7,10.2,4.7c2.7,2,4.9,4.3,6.3,7c1.5,2.7,2.2,5.5,2.2,8.7c0,5.9-1.6,10.7-4.9,14.5
	c-3.3,3.8-8,6.6-14.3,8.5c3.2,0.6,6.2,1.5,8.9,2.7s5.1,2.8,7.2,4.7c2,1.9,3.6,4.1,4.8,6.7C645.3,679.2,645.9,682.2,645.9,685.5z"/>
<path style="fill:#30367F;" d="M1202.2,558.2h26.1l-13-42.9L1202.2,558.2z M1234.8,578.1h-39l-6.3,19.7h-25.8l37.9-101.7h27.5
	l37.9,101.7h-25.8L1234.8,578.1z M1134.3,560.8v37h-25.1v-37l-33.5-64.8h26.7l19.2,42.8L1141,496h26.7L1134.3,560.8z M1038.3,597.8
	v-41.4H1001v41.4h-25V496h25.1v39.9h37.3V496h25.1v101.7h-25.2V597.8z M896.2,558.2h26.1l-13-42.9L896.2,558.2z M928.7,578.1h-39
	l-6.3,19.7h-25.8l38-101.8h27.5L961,597.7h-25.8L928.7,578.1z M857.3,496v19.9H830v81.9h-25.1v-81.9h-27.3V496H857.3z M762.5,528.3
	v32.8c0,12-3.8,21.4-11.4,28.3c-7.6,6.8-18.2,10.2-31.7,10.2s-24.1-3.4-31.7-10.2c-7.6-6.8-11.4-16.2-11.4-28.3v-39.4l25.1,6.3v33.9
	c0,5.8,1.5,10.2,4.6,13.3s7.5,4.6,13.4,4.6s10.4-1.5,13.4-4.6c3.1-3.1,4.6-7.5,4.6-13.3V522L762.5,528.3z M737.4,515.9V496h25.1
	v26.1L737.4,515.9z M676.3,515.6V496h25.1v25.8L676.3,515.6z M576.4,597.8V496h25.1v48.7l32.1-48.7h28.3l-34.4,50.3l36.8,51.5h-30.1
	L601.4,548v49.8H576.4z"/>
<path style="fill:#30367F;" d="M1005.2,465.6c0-3.7,1.2-6.9,3.5-9.6s5.8-4.1,10.2-4.1c4.5,0,7.9,1.4,10.2,4.1c2.3,2.7,3.5,6,3.5,9.6
	s-1.2,6.9-3.5,9.6s-5.8,4.1-10.2,4.1c-4.5,0-7.9-1.4-10.2-4.1C1006.3,472.4,1005.2,469.2,1005.2,465.6 M967.7,374.5
	c5.3,0,10.6,0.5,16,1.5c5.3,1,10,2.5,13.8,4.4l-3.7,18.5c-3.1-1.2-6.5-2.3-10.5-3.1c-3.9-0.9-7.8-1.3-11.7-1.3
	c-10.4,0-18.6,2.7-24.6,8.1s-9,13.6-9,24.6s3,19.2,9,24.6s14.2,8.1,24.6,8.1c3.9,0,7.8-0.4,11.7-1.3s7.4-1.9,10.5-3.1l3.7,18.5
	c-3.9,1.9-8.5,3.4-13.8,4.4s-10.7,1.5-16,1.5c-9,0-16.9-1.3-23.7-4c-6.8-2.6-12.5-6.3-17.1-11s-8-10.2-10.4-16.7
	c-2.3-6.4-3.5-13.4-3.5-21.1c0-7.6,1.2-14.7,3.5-21.1s5.8-12,10.4-16.7c4.6-4.7,10.3-8.4,17.1-11
	C950.9,375.8,958.8,374.5,967.7,374.5z M880.4,465.6c0-3.7,1.2-6.9,3.5-9.6s5.8-4.1,10.2-4.1c4.5,0,7.9,1.4,10.2,4.1s3.5,6,3.5,9.6
	s-1.2,6.9-3.5,9.6s-5.8,4.1-10.2,4.1c-4.5,0-7.9-1.4-10.2-4.1C881.5,472.4,880.4,469.2,880.4,465.6z M890.4,376.4v19.9h-27.3v81.9
	H838v-81.9h-27.3v-19.9H890.4z"/>
<g>
	<g>
		<defs>
			<path id="SVGID_1_" d="M177.6,544.2c0,100.1,81.2,181.3,181.3,181.3s181.3-81.2,181.3-181.3c0-100.2-81.2-181.3-181.3-181.3
				S177.6,444.1,177.6,544.2z"/>
		</defs>
		<clipPath id="SVGID_00000028310721076870035680000010745731923837402787_">
			<use xlink:href="#SVGID_1_"  style="overflow:visible;"/>
		</clipPath>
		
			<linearGradient id="SVGID_00000142157537803876749780000002637625509148341138_" gradientUnits="userSpaceOnUse" x1="358.95" y1="665.1" x2="358.95" y2="302.4" gradientTransform="matrix(1 0 0 -1 0 1028)">
			<stop  offset="0" style="stop-color:#C8BB5F"/>
			<stop  offset="1" style="stop-color:#90650D"/>
		</linearGradient>
		
			<rect x="177.6" y="362.9" style="clip-path:url(#SVGID_00000028310721076870035680000010745731923837402787_);fill:url(#SVGID_00000142157537803876749780000002637625509148341138_);" width="362.7" height="362.7"/>
	</g>
</g>
<path style="fill:#FFFFFF;" d="M522.1,544.2c0,90.1-73.1,163.2-163.2,163.2s-163.2-73.1-163.2-163.2S268.8,381,358.9,381
	C449.1,381,522.1,454.1,522.1,544.2"/>
<path style="fill:none;stroke:#231F21;stroke-width:0.7089;stroke-miterlimit:10;" d="M522.1,544.2c0,90.1-73.1,163.2-163.2,163.2
	s-163.2-73.1-163.2-163.2S268.8,381,358.9,381C449.1,381,522.1,454.1,522.1,544.2z"/>
<path style="fill-rule:evenodd;clip-rule:evenodd;fill:#30367F;" d="M358.9,391.9c84.1,0,152.3,68.2,152.3,152.3
	S443,696.5,358.9,696.5s-152.3-68.2-152.3-152.3C206.6,460.1,274.8,391.9,358.9,391.9"/>
<polygon style="fill-rule:evenodd;clip-rule:evenodd;fill:#FCE81D;" points="414,421.4 418.2,434.3 431.7,434.3 420.7,442.2 
	424.9,455 414,447 403.1,455 407.3,442.2 396.4,434.3 409.9,434.3 "/>
<polygon style="fill-rule:evenodd;clip-rule:evenodd;fill:#FCE81D;" points="358.9,406.9 363.1,419.7 376.6,419.7 365.6,427.6 
	369.8,440.4 358.9,432.5 348,440.4 352.2,427.6 341.3,419.7 354.8,419.7 "/>
<polygon style="fill-rule:evenodd;clip-rule:evenodd;fill:#FCE81D;" points="304,421.4 308.1,434.3 321.6,434.3 310.7,442.2 
	314.9,455 304,447 293.1,455 297.3,442.2 286.3,434.3 299.8,434.3 "/>
<polygon style="fill-rule:evenodd;clip-rule:evenodd;fill:#FCE81D;" points="263.7,461.5 267.8,474.3 281.3,474.3 270.4,482.2 
	274.6,495 263.7,487.1 252.8,495 257,482.2 246,474.3 259.5,474.3 "/>
<polygon style="fill-rule:evenodd;clip-rule:evenodd;fill:#FCE81D;" points="249.3,517 253.4,529.8 266.9,529.8 256,537.7 
	260.2,550.5 249.3,542.6 238.4,550.5 242.6,537.7 231.6,529.8 245.1,529.8 "/>
<polygon style="fill-rule:evenodd;clip-rule:evenodd;fill:#FCE81D;" points="264.4,573.1 268.6,586 282.1,585.9 271.2,593.9 
	275.4,606.7 264.4,598.7 253.5,606.7 257.7,593.9 246.8,585.9 260.3,586 "/>
<polygon style="fill-rule:evenodd;clip-rule:evenodd;fill:#FCE81D;" points="299.5,615.5 303.6,628.3 317.1,628.3 306.2,636.2 
	310.4,649 299.5,641.1 288.5,649 292.7,636.2 281.8,628.3 295.3,628.3 "/>
<polygon style="fill-rule:evenodd;clip-rule:evenodd;fill:#FCE81D;" points="358.9,630.5 363.1,643.3 376.6,643.3 365.6,651.2 
	369.8,664.1 358.9,656.1 348,664.1 352.2,651.2 341.3,643.3 354.8,643.3 "/>
<polygon style="fill-rule:evenodd;clip-rule:evenodd;fill:#FCE81D;" points="418.3,615.5 422.5,628.3 435.9,628.3 425,636.2 
	429.2,649 418.3,641.1 407.4,649 411.6,636.2 400.7,628.3 414.2,628.3 "/>
<polygon style="fill-rule:evenodd;clip-rule:evenodd;fill:#FCE81D;" points="453.3,573.1 457.4,586 470.9,585.9 460,593.9 
	464.2,606.7 453.3,598.7 442.4,606.7 446.6,593.9 435.6,585.9 449.1,586 "/>
<polygon style="fill-rule:evenodd;clip-rule:evenodd;fill:#FCE81D;" points="468.6,517 472.8,529.8 486.3,529.8 475.3,537.7 
	479.5,550.5 468.6,542.6 457.7,550.5 461.9,537.7 451,529.8 464.5,529.8 "/>
<polygon style="fill-rule:evenodd;clip-rule:evenodd;fill:#FCE81D;" points="454.2,461.5 458.3,474.3 471.8,474.3 460.9,482.2 
	465.1,495 454.2,487.1 443.3,495 447.5,482.2 436.6,474.3 450.1,474.3 "/>
<rect x="307.6" y="456.2" style="fill-rule:evenodd;clip-rule:evenodd;fill:#FFFFFF;" width="102.6" height="164"/>
<path style="fill-rule:evenodd;clip-rule:evenodd;fill:#D12F13;" d="M361.8,477.8c8.3,0,15.1,6.8,15.1,15.1
	c0,8.4-6.8,15.1-15.1,15.1c-8.4,0-15.1-6.8-15.1-15.1C346.7,484.6,353.5,477.8,361.8,477.8"/>
<path style="fill-rule:evenodd;clip-rule:evenodd;fill:#D12F13;" d="M355,477.1c0.8,0,1.6,0.1,2.3,0.2c-7.6,1.1-13.5,7.7-13.5,15.7
	s5.9,14.5,13.5,15.7c-0.8,0.1-1.5,0.2-2.3,0.2c-8.7,0-15.8-7.1-15.8-15.8C339.2,484.2,346.3,477.1,355,477.1"/>
<path style="fill-rule:evenodd;clip-rule:evenodd;fill:#05973F;" d="M358.7,584.3L358.7,584.3c0.7,0,1.2,0.6,1.2,1.2l-0.4,23.7H358
	l-0.5-23.7C357.5,584.9,358.1,584.3,358.7,584.3"/>
<path style="fill-rule:evenodd;clip-rule:evenodd;fill:#05973F;" d="M363.5,477.9c-2.4-7.3-1.2-15.1-2.8-16.9
	c-3-3.1-8,12.1-8.9,16.4c0.6-0.1,1.3-0.2,1.9-0.3c1-2.8,1.6-6.2,3-8.8c0.5-1,0.8-1.9,1.4-2.8c2.2-3.2,2.6,9.6,3.4,12.3
	c0.1,0,0.3,0,0.4,0C362.4,477.8,362.9,477.8,363.5,477.9"/>
<polygon style="fill-rule:evenodd;clip-rule:evenodd;fill:#322683;" points="350.6,513.5 350.6,525.8 365.8,525.8 365.8,513.5 
	361.4,518.1 358.1,512.5 355.1,518 "/>
<polygon style="fill-rule:evenodd;clip-rule:evenodd;fill:#322683;" points="351.8,602.6 357.6,612.8 360.2,612.8 365.6,602.6 
	361.6,602.6 358.8,608.5 355.6,602.6 "/>
<path style="fill-rule:evenodd;clip-rule:evenodd;fill:#322683;" d="M321.1,488.8h5.7c-2.7-2.6-5.7-5.2-9.1-7.8h26.1
	c0.6-0.9,1.3-1.7,2-2.4l-35-0.1C314.1,481.7,317.7,485.1,321.1,488.8"/>
<path style="fill-rule:evenodd;clip-rule:evenodd;fill:#322683;" d="M372,481.1h27.7c-3.4,2.3-6.7,4.8-9.6,7.7h5.8
	c3.2-3.3,6.9-6.7,11.2-10.1l-37.1-0.1C370.7,479.4,371.4,480.2,372,481.1"/>
<path style="fill-rule:evenodd;clip-rule:evenodd;fill:#322683;" d="M388.2,490.7c-3.1,3.3-5.9,6.8-8.2,10.4h6.7
	c1.9-3.4,4.3-6.9,7.4-10.4H388.2z"/>
<path style="fill-rule:evenodd;clip-rule:evenodd;fill:#322683;" d="M385.8,503.1h-6.9c-1.9,3.3-3.3,6.7-4.2,10h8
	C383.1,509.8,384.1,506.5,385.8,503.1"/>
<path style="fill-rule:evenodd;clip-rule:evenodd;fill:#322683;" d="M337.4,501.2c-2.3-3.5-5.2-6.9-8.6-10.4h-5.9
	c2.9,3.3,5.6,6.8,7.8,10.4H337.4z"/>
<path style="fill-rule:evenodd;clip-rule:evenodd;fill:#322683;" d="M338.6,503.1h-6.9c1.7,3.2,2.9,6.5,3.5,10h7.8
	C342.1,509.8,340.6,506.5,338.6,503.1"/>
<path style="fill-rule:evenodd;clip-rule:evenodd;fill:#322683;" d="M343.5,515.1h-8.1c0.3,3.4,0,7-1.1,10.7h9.6
	C344.4,522.3,344.3,518.7,343.5,515.1"/>
<path style="fill-rule:evenodd;clip-rule:evenodd;fill:#322683;" d="M374.1,515.1c-0.8,3.7-1,7.3-0.5,10.7h9.8
	c-1-3.5-1.4-7.1-1.1-10.7H374.1z"/>
<path style="fill-rule:evenodd;clip-rule:evenodd;fill:#322683;" d="M384.1,527.8H374c1.2,4.8,3.1,7.1,5.9,10.8h10.2
	C387.4,535.1,385.4,531.5,384.1,527.8"/>
<path style="fill-rule:evenodd;clip-rule:evenodd;fill:#05973F;" d="M370.8,538.6c-1.8-3.2-3.5-6.9-4.7-10.8h-15.8
	c-1.1,3.8-2.5,7.6-4,10.8H370.8z"/>
<path style="fill-rule:evenodd;clip-rule:evenodd;fill:#322683;" d="M339.5,538.6c2-3.6,3.4-7.2,4.1-10.8h-10
	c-0.9,2.3-2.1,4.7-3.6,7.2c-0.8,1.2-1.6,2.5-2.3,3.7h11.8V538.6z"/>
<path style="fill-rule:evenodd;clip-rule:evenodd;fill:#322683;" d="M338.3,540.6h-11.9c-2.3,3.7-4.5,7.3-6.3,10.8h10.4
	C332.8,547.3,335.9,544.4,338.3,540.6"/>
<path style="fill-rule:evenodd;clip-rule:evenodd;fill:#1E88C9;" d="M345.6,540.6c-1.8,3.8-3.7,7.3-5.3,10.8h37.8
	c-1.8-3.4-4.1-6.9-6.4-10.8H345.6z"/>
<path style="fill-rule:evenodd;clip-rule:evenodd;fill:#322683;" d="M381.4,540.6c2.7,3.7,4.8,7.3,6.4,10.8h11.8
	c-1.8-3.3-4.2-6.6-7.1-9.9c-0.3-0.3-0.5-0.6-0.8-0.9L381.4,540.6L381.4,540.6z"/>
<path style="fill-rule:evenodd;clip-rule:evenodd;fill:#322683;" d="M400.5,553.3h-11.9c1.4,3.5,2.3,6.8,2.6,10h12.5
	C403.3,560,402.2,556.7,400.5,553.3"/>
<path style="fill-rule:evenodd;clip-rule:evenodd;fill:#322683;" d="M380.9,558.4c-0.4-1.7-1-3.4-1.8-5.2h-39.6
	c-0.5,1.3-1,2.6-1.4,3.9c-0.6,2.1-1,4.1-1.2,6.1h44.7C381.5,561.7,381.2,560.1,380.9,558.4"/>
<path style="fill-rule:evenodd;clip-rule:evenodd;fill:#322683;" d="M327.1,563.2c0.2-3.3,1-6.7,2.5-10h-10.4c-1.7,3.4-3,6.7-3.7,10
	H327.1z"/>
<path style="fill-rule:evenodd;clip-rule:evenodd;fill:#322683;" d="M327,565.2h-12c-0.6,3.8-0.4,7.5,1.2,10.9h13.5
	C328,572.7,327.1,569,327,565.2"/>
<path style="fill-rule:evenodd;clip-rule:evenodd;fill:#322683;" d="M391.4,565.2c0.1,3.9-0.7,7.6-2.5,10.9h13
	c1.6-3.4,2.3-7,2.1-10.9H391.4z"/>
<path style="fill-rule:evenodd;clip-rule:evenodd;fill:#05973F;" d="M379.3,576.1c1.6-3.1,2.4-6.8,2.4-10.9h-44.9
	c-0.1,4.2,0.8,7.9,2.5,10.9H379.3z"/>
<path style="fill-rule:evenodd;clip-rule:evenodd;fill:#1E88C9;" d="M378.1,578h-37.6c3.3,4.6,8.7,7.5,14.9,8.3c0-0.1,0-0.2,0-0.3
	c0-1.8,1.5-3.3,3.3-3.3s3.3,1.5,3.3,3.3c0,0.1,0,0.3,0,0.4C369.3,585.8,374.8,582.8,378.1,578"/>
<path style="fill-rule:evenodd;clip-rule:evenodd;fill:#322683;" d="M387.7,578c-2.5,3.7-6.2,7-11.1,9.8c-0.1,0.1-0.3,0.1-0.4,0.2
	h13c5.3-2.7,9.2-6.1,11.6-10H387.7z"/>
<path style="fill-rule:evenodd;clip-rule:evenodd;fill:#322683;" d="M384.8,590h-11.7c-3.7,2.5-7.1,5.8-9.4,10.6h4.1
	c4.4-5.3,9.6-8,15.5-10.1C383.8,590.4,384.3,590.2,384.8,590"/>
<path style="fill-rule:evenodd;clip-rule:evenodd;fill:#322683;" d="M354.3,600.6c-2.1-3.7-4.8-7.6-8.6-10.6h-12.5
	c6.2,2.6,12.1,5.7,17,10.6H354.3z"/>
<path style="fill-rule:evenodd;clip-rule:evenodd;fill:#322683;" d="M329.1,588.1h13.8c-0.4-0.2-0.8-0.4-1.2-0.6
	c-4.7-2.2-8.3-5.5-10.8-9.4h-13.6C319.5,581.7,323.2,585,329.1,588.1"/>
<polygon style="fill-rule:evenodd;clip-rule:evenodd;fill:#322683;" points="345.1,599.2 341.4,604.3 349.6,604.3 "/>
<polygon style="fill-rule:evenodd;clip-rule:evenodd;fill:#322683;" points="371,599.2 367.3,604.3 375.4,604.3 "/>
<polygon style="fill-rule:evenodd;clip-rule:evenodd;fill:#05973F;" points="333,614.5 385.2,614.5 386.1,615.8 332.1,615.8 "/>
<polygon style="fill-rule:evenodd;clip-rule:evenodd;fill:#322683;" points="355.7,612.8 351.9,606 336.7,606 333.5,612.8 "/>
<polygon style="fill-rule:evenodd;clip-rule:evenodd;fill:#322683;" points="365.5,606 361.9,612.8 384.8,612.8 381.6,606 "/>
<polygon style="fill-rule:evenodd;clip-rule:evenodd;fill:#FFFFFF;" points="302.1,682.6 302.1,675 303.6,675 303.6,678.4 
	306.7,675 308.7,675 305.9,678 308.9,682.6 306.9,682.6 304.8,679.1 303.6,680.3 303.6,682.6 "/>
<path style="fill-rule:evenodd;clip-rule:evenodd;fill:#FFFFFF;" d="M313.3,674.6v-1.2h1.3v1.2H313.3z M311.1,674.6v-1.2h1.2v1.2
	H311.1z M309.8,675h1.5v4.1c0,0.7,0,1.1,0.1,1.3c0.1,0.3,0.2,0.6,0.5,0.7c0.2,0.2,0.6,0.3,1,0.3s0.8-0.1,1-0.3s0.4-0.4,0.4-0.7
	s0.1-0.7,0.1-1.3V675h1.5v4c0,0.9,0,1.6-0.1,1.9c-0.1,0.4-0.2,0.7-0.5,1c-0.2,0.3-0.5,0.5-0.9,0.6c-0.4,0.2-0.9,0.2-1.5,0.2
	c-0.7,0-1.3-0.1-1.6-0.3c-0.4-0.2-0.7-0.4-0.9-0.7c-0.2-0.3-0.4-0.5-0.4-0.8c-0.1-0.4-0.1-1.1-0.1-1.9v-4H309.8z"/>
<polygon style="fill-rule:evenodd;clip-rule:evenodd;fill:#FFFFFF;" points="319,682.6 319,676.3 316.7,676.3 316.7,675 322.7,675 
	322.7,676.3 320.5,676.3 320.5,682.6 "/>
<path style="fill-rule:evenodd;clip-rule:evenodd;fill:#FFFFFF;" d="M327,679.6l-1-2.8l-1,2.8H327z M329.8,682.6h-1.7l-0.7-1.7h-3
	l-0.6,1.7h-1.6l3-7.6h1.6L329.8,682.6z"/>
<polygon style="fill-rule:evenodd;clip-rule:evenodd;fill:#FFFFFF;" points="330.8,682.6 330.8,675 332.3,675 332.3,678 335.3,678 
	335.3,675 336.8,675 336.8,682.6 335.3,682.6 335.3,679.3 332.3,679.3 332.3,682.6 "/>
<polygon style="fill-rule:evenodd;clip-rule:evenodd;fill:#FFFFFF;" points="340.5,682.6 340.5,679.4 337.7,675 339.5,675 
	341.3,678 343.1,675 344.8,675 342,679.4 342,682.6 "/>
<path style="fill-rule:evenodd;clip-rule:evenodd;fill:#FFFFFF;" d="M348,679.6l-1-2.8l-1,2.8H348z M350.8,682.6h-1.7l-0.7-1.7h-3
	l-0.6,1.7h-1.6l3-7.6h1.6L350.8,682.6z"/>
<path style="fill-rule:evenodd;clip-rule:evenodd;fill:#FFFFFF;" d="M355.7,679.3v2h1.4c0.6,0,0.9,0,1,0c0.2,0,0.4-0.1,0.6-0.3
	c0.1-0.2,0.2-0.4,0.2-0.6c0-0.2-0.1-0.4-0.2-0.6c-0.1-0.2-0.3-0.3-0.5-0.3c-0.2-0.1-0.7-0.1-1.4-0.1h-1.1V679.3z M355.7,676.3v1.8h1
	c0.6,0,1,0,1.1,0c0.3,0,0.5-0.1,0.6-0.3c0.1-0.1,0.2-0.3,0.2-0.6c0-0.2-0.1-0.4-0.2-0.6c-0.1-0.1-0.3-0.2-0.6-0.3
	c-0.2,0-0.6,0-1.3,0L355.7,676.3L355.7,676.3z M354.1,675h3c0.6,0,1,0,1.3,0.1s0.6,0.2,0.8,0.3c0.2,0.2,0.4,0.4,0.6,0.6
	c0.2,0.3,0.2,0.6,0.2,0.9c0,0.4-0.1,0.7-0.3,1c-0.2,0.3-0.5,0.5-0.8,0.7c0.5,0.1,0.8,0.4,1.1,0.7c0.2,0.3,0.4,0.7,0.4,1.1
	c0,0.3-0.1,0.7-0.2,1c-0.2,0.3-0.4,0.6-0.7,0.8c-0.3,0.2-0.6,0.3-1,0.4c-0.3,0-0.9,0-1.8,0.1h-2.6V675z"/>
<polygon style="fill-rule:evenodd;clip-rule:evenodd;fill:#FFFFFF;" points="361.9,682.6 361.9,675 367.5,675 367.5,676.3 
	363.5,676.3 363.5,678 367.3,678 367.3,679.2 363.5,679.2 363.5,681.3 367.7,681.3 367.7,682.6 "/>
<polygon style="fill-rule:evenodd;clip-rule:evenodd;fill:#FFFFFF;" points="369.2,682.6 369.2,675.1 370.7,675.1 370.7,681.3 
	374.5,681.3 374.5,682.6 "/>
<polygon style="fill-rule:evenodd;clip-rule:evenodd;fill:#FFFFFF;" points="375.7,682.6 375.7,675 381.4,675 381.4,676.3 
	377.3,676.3 377.3,678 381.1,678 381.1,679.2 377.3,679.2 377.3,681.3 381.5,681.3 381.5,682.6 "/>
<path style="fill-rule:evenodd;clip-rule:evenodd;fill:#FFFFFF;" d="M414.3,674.6v-1.4h1.4v1.4H414.3z M414.3,682.6V675h1.5v7.6
	H414.3z M406.9,680.1l1.5-0.1c0.1,0.5,0.3,0.9,0.5,1.1c0.3,0.2,0.6,0.4,1.1,0.4s0.9-0.1,1.1-0.3s0.4-0.5,0.4-0.7s-0.1-0.3-0.2-0.5
	c-0.1-0.1-0.3-0.2-0.6-0.3c-0.2-0.1-0.6-0.2-1.2-0.3c-0.8-0.2-1.4-0.5-1.7-0.8c-0.5-0.4-0.7-0.9-0.7-1.5c0-0.4,0.1-0.7,0.3-1.1
	c0.2-0.3,0.5-0.6,0.9-0.8s0.9-0.3,1.5-0.3c1,0,1.7,0.2,2.1,0.6c0.5,0.4,0.7,1,0.8,1.7l-1.5,0.1c-0.1-0.4-0.2-0.7-0.4-0.8
	c-0.2-0.2-0.5-0.3-1-0.3c-0.4,0-0.8,0.1-1,0.3c-0.2,0.1-0.2,0.3-0.2,0.5s0.1,0.3,0.2,0.5c0.2,0.2,0.7,0.3,1.4,0.5
	c0.7,0.2,1.3,0.4,1.7,0.5c0.4,0.2,0.6,0.4,0.8,0.8s0.3,0.7,0.3,1.2c0,0.4-0.1,0.8-0.4,1.2c-0.2,0.4-0.6,0.7-1,0.8
	c-0.4,0.2-1,0.3-1.7,0.3c-1,0-1.7-0.2-2.2-0.7C407.3,681.6,407,681,406.9,680.1z M400.2,682.6V675h5.6v1.3h-4.1v1.7h3.8v1.3h-3.8
	v2.1h4.2v1.3h-5.7V682.6z M395.1,682.6v-3.2l-2.8-4.4h1.8l1.8,3l1.7-3h1.8l-2.8,4.4v3.2H395.1z M390.2,674.6v-1.4h1.4v1.4H390.2z
	 M390.2,682.6V675h1.5v7.6H390.2z M384.1,676.3v5h1.1c0.4,0,0.7,0,0.9-0.1c0.2-0.1,0.5-0.2,0.6-0.3c0.2-0.1,0.3-0.4,0.4-0.7
	s0.2-0.8,0.2-1.4c0-0.6-0.1-1-0.2-1.4c-0.1-0.3-0.2-0.6-0.4-0.7c-0.2-0.2-0.4-0.3-0.7-0.4c-0.2,0-0.6-0.1-1.3-0.1h-0.6V676.3z
	 M382.6,675h2.8c0.6,0,1.1,0,1.4,0.1c0.4,0.1,0.8,0.4,1.1,0.7c0.3,0.3,0.6,0.7,0.7,1.2c0.2,0.5,0.2,1.1,0.2,1.8
	c0,0.6-0.1,1.2-0.2,1.6c-0.2,0.6-0.5,1-0.8,1.3s-0.6,0.5-1.1,0.6c-0.3,0.1-0.8,0.2-1.4,0.2h-2.9V675H382.6z"/>
<path style="fill:#FFFFFF;" d="M366.7,671.7v-1.3h1.3v1.3H366.7z M364.2,669.2l1.3,0.4c-0.2,0.8-0.6,1.3-1,1.7
	c-0.5,0.4-1.1,0.6-1.8,0.6c-0.9,0-1.7-0.3-2.3-0.9c-0.6-0.6-0.9-1.5-0.9-2.6s0.3-2,0.9-2.7c0.6-0.6,1.4-1,2.3-1
	c0.8,0,1.5,0.2,2.1,0.7c0.3,0.3,0.5,0.7,0.7,1.3l-1.4,0.3c-0.1-0.4-0.3-0.6-0.5-0.8c-0.3-0.2-0.6-0.3-0.9-0.3
	c-0.5,0-0.9,0.2-1.2,0.6c-0.3,0.4-0.5,1-0.5,1.8c0,0.9,0.2,1.5,0.5,1.9s0.7,0.6,1.2,0.6c0.4,0,0.7-0.1,1-0.4
	C363.9,670.1,364.1,669.7,364.2,669.2z M357.1,671.7v-1.3h1.3v1.3H357.1z M353.9,671.7V666h-2v-1.2h5.5v1.2h-2v5.7H353.9z"/>
<path style="fill:#FFFFFF;" d="M366.3,627.4c0,0.4,0.1,0.7,0.3,0.9c0.2,0.2,0.4,0.3,0.7,0.3c0.3,0,0.5-0.1,0.7-0.3s0.3-0.5,0.3-0.9
	c0-0.3-0.1-0.6-0.3-0.8c-0.2-0.2-0.4-0.3-0.7-0.3c-0.3,0-0.6,0.1-0.8,0.4C366.4,626.9,366.3,627.1,366.3,627.4 M366.4,624.2
	c0,0.3,0.1,0.5,0.2,0.7c0.2,0.2,0.4,0.2,0.6,0.2c0.3,0,0.5-0.1,0.6-0.2c0.2-0.2,0.2-0.4,0.2-0.7s-0.1-0.5-0.2-0.6
	c-0.2-0.2-0.4-0.2-0.6-0.2c-0.3,0-0.5,0.1-0.6,0.2S366.4,624,366.4,624.2z M366.1,625.7c-0.4-0.2-0.6-0.4-0.8-0.6
	c-0.2-0.3-0.2-0.6-0.2-0.9c0-0.6,0.2-1,0.6-1.4s0.9-0.5,1.6-0.5s1.2,0.2,1.6,0.5c0.4,0.4,0.6,0.8,0.6,1.4c0,0.3-0.1,0.6-0.3,0.9
	c-0.2,0.3-0.4,0.5-0.7,0.6c0.4,0.2,0.7,0.4,0.9,0.7c0.2,0.3,0.3,0.7,0.3,1.1c0,0.7-0.2,1.2-0.6,1.7c-0.4,0.4-1,0.6-1.7,0.6
	s-1.2-0.2-1.7-0.5c-0.5-0.4-0.8-1-0.8-1.7c0-0.4,0.1-0.8,0.3-1.1C365.4,626.1,365.7,625.8,366.1,625.7z M360.8,627.2
	c0,0.5,0.1,0.8,0.3,1.1c0.2,0.3,0.5,0.4,0.7,0.4c0.3,0,0.5-0.1,0.7-0.3s0.3-0.5,0.3-1s-0.1-0.8-0.3-1.1c-0.2-0.2-0.4-0.3-0.7-0.3
	c-0.3,0-0.5,0.1-0.7,0.3C360.9,626.4,360.8,626.7,360.8,627.2z M364,624.1l-1.4,0.2c0-0.3-0.1-0.5-0.3-0.6c-0.1-0.1-0.3-0.2-0.5-0.2
	c-0.3,0-0.6,0.1-0.8,0.4c-0.2,0.3-0.3,0.8-0.4,1.7c0.4-0.4,0.8-0.6,1.3-0.6c0.6,0,1.1,0.2,1.5,0.7s0.6,1,0.6,1.7
	c0,0.8-0.2,1.4-0.7,1.8c-0.4,0.5-1,0.7-1.7,0.7s-1.4-0.3-1.8-0.9c-0.5-0.6-0.7-1.5-0.7-2.8c0-1.4,0.3-2.3,0.7-2.9
	c0.5-0.6,1.1-0.9,1.9-0.9c0.6,0,1,0.2,1.4,0.5C363.6,623,363.9,623.5,364,624.1z M354.9,627.4c0,0.4,0.1,0.7,0.3,0.9
	c0.2,0.2,0.4,0.3,0.7,0.3c0.3,0,0.5-0.1,0.7-0.3s0.3-0.5,0.3-0.9c0-0.3-0.1-0.6-0.3-0.8c-0.2-0.2-0.4-0.3-0.7-0.3
	c-0.3,0-0.6,0.1-0.8,0.4C354.9,626.9,354.9,627.1,354.9,627.4z M355,624.2c0,0.3,0.1,0.5,0.2,0.7c0.2,0.2,0.4,0.2,0.6,0.2
	c0.3,0,0.5-0.1,0.6-0.2c0.2-0.2,0.2-0.4,0.2-0.7s-0.1-0.5-0.2-0.6c-0.2-0.2-0.4-0.2-0.6-0.2c-0.3,0-0.5,0.1-0.6,0.2
	C355.1,623.8,355,624,355,624.2z M354.7,625.7c-0.4-0.2-0.6-0.4-0.8-0.6c-0.2-0.3-0.2-0.6-0.2-0.9c0-0.6,0.2-1,0.6-1.4
	s0.9-0.5,1.6-0.5s1.2,0.2,1.6,0.5c0.4,0.4,0.6,0.8,0.6,1.4c0,0.3-0.1,0.6-0.3,0.9c-0.2,0.3-0.4,0.5-0.7,0.6c0.4,0.2,0.7,0.4,0.9,0.7
	c0.2,0.3,0.3,0.7,0.3,1.1c0,0.7-0.2,1.2-0.6,1.7c-0.4,0.4-1,0.6-1.7,0.6s-1.2-0.2-1.7-0.5c-0.5-0.4-0.8-1-0.8-1.7
	c0-0.4,0.1-0.8,0.3-1.1C354,626.1,354.3,625.8,354.7,625.7z M351.4,629.6H350v-5.3c-0.5,0.5-1.1,0.8-1.8,1.1v-1.3
	c0.4-0.1,0.8-0.3,1.2-0.7c0.4-0.3,0.7-0.7,0.9-1.2h1.1L351.4,629.6L351.4,629.6z"/>
</svg>
