<?xml version="1.0" encoding="iso-8859-1"?>
<!-- Generator: Adobe Illustrator 29.7.1, SVG Export Plug-In . SVG Version: 9.03 Build 0)  -->
<svg version="1.1" id="Layer_1" xmlns="http://www.w3.org/2000/svg" xmlns:xlink="http://www.w3.org/1999/xlink" x="0px" y="0px"
	 viewBox="0 0 350 350" style="enable-background:new 0 0 350 350;" xml:space="preserve">
<rect style="fill:#FFFFFF;" width="350" height="350"/>
<g>
	<path style="fill-rule:evenodd;clip-rule:evenodd;fill:#F58220;" d="M70.101,169.333c-13.678-5.844-13.372,20.962-1.192,22.654
		c-0.116-0.424-0.221-0.848-0.311-1.273c-1.086-5.116-0.479-12.295,4.255-15.464c2.179-1.458,4.648-1.645,7.048-1.08
		C78.742,169.827,75.519,167.018,70.101,169.333"/>
	<path style="fill-rule:evenodd;clip-rule:evenodd;fill:#F58220;" d="M92.106,169.333c-5.418-2.314-8.639,0.495-9.8,4.836
		c2.399-0.565,4.869-0.378,7.05,1.08c4.733,3.169,5.341,10.348,4.253,15.464c-0.09,0.428-0.194,0.854-0.311,1.273
		C105.478,190.297,105.784,163.489,92.106,169.333"/>
	<path style="fill-rule:evenodd;clip-rule:evenodd;fill:#F58220;" d="M81.104,177.408c-14.11-6.027-13.34,22.692,0,22.736
		C94.444,200.101,95.216,171.381,81.104,177.408"/>
	<path style="fill-rule:evenodd;clip-rule:evenodd;fill:#008641;" d="M60.052,141.19c8.37,7.366,15.341,15.501,21.052,24.457
		c5.711-8.955,12.684-17.09,21.052-24.457c2.039,3.194,3.711,6.797,3.705,10.357c-4.417,3.771-9.345,7.906-12.781,13.768
		c-3.379-1.519-8.836-0.756-11.977,3.358c-4.801-5.978-10.754-3.633-11.907-3.342c-3.004-5.394-7.823-9.818-12.848-14.02
		C56.416,147.829,58.059,144.314,60.052,141.19"/>
	<path style="fill-rule:evenodd;clip-rule:evenodd;fill:#008641;" d="M50.623,150.429c6.307,4.211,12.611,8.596,16.531,14.582
		c-1.984-0.132-3.957,0.286-5.749,1.486c-0.6,0.403-1.139,0.863-1.621,1.372c-3.457-2.428-7.135-4.723-11.224-6.854
		C48.051,157.88,48.795,154.446,50.623,150.429"/>
	<path style="fill-rule:evenodd;clip-rule:evenodd;fill:#008641;" d="M44.058,160.978c6.732,2.545,11.112,5.431,14.79,8.035
		c-1.557,2.207-2.304,5.021-2.477,7.844c-3.533-1.603-6.944-2.669-11.282-3.697C43.869,168.962,43.869,165.177,44.058,160.978"/>
	<path style="fill-rule:evenodd;clip-rule:evenodd;fill:#008641;" d="M43.26,174.679c5.129,1.031,9.693,2.369,13.079,4.137
		c0.038,1.386,0.205,2.742,0.47,3.992c0.354,1.668,0.907,3.333,1.675,4.887c-2.329-0.867-5.531-1.643-10.72-2.02
		C45.089,182.253,43.869,178.468,43.26,174.679"/>
	<path style="fill-rule:evenodd;clip-rule:evenodd;fill:#008641;" d="M119.015,174.679c-5.163,1.038-9.753,2.387-13.146,4.172
		c-0.041,1.375-0.206,2.717-0.47,3.957c-0.362,1.709-0.932,3.379-1.699,4.92c2.336-0.881,5.555-1.672,10.81-2.053
		C117.186,182.253,118.406,178.468,119.015,174.679"/>
	<path style="fill-rule:evenodd;clip-rule:evenodd;fill:#008641;" d="M118.683,160.978c-6.744,2.55-11.499,5.625-15.185,8.234
		c1.243,1.847,1.94,4.096,2.226,6.409c0.067,0.504,0.109,0.998,0.129,1.487c3.582-1.639,7.405-2.908,11.799-3.948
		C118.872,168.962,118.872,165.177,118.683,160.978"/>
	<path style="fill-rule:evenodd;clip-rule:evenodd;fill:#008641;" d="M112.077,150.429c-6.298,4.204-12.595,8.586-16.515,14.56
		c1.811-0.033,3.602,0.412,5.242,1.508c0.683,0.459,1.289,0.992,1.818,1.589c3.477-2.445,7.41-4.93,11.519-7.071
		C114.651,157.88,113.907,154.446,112.077,150.429"/>
	<path style="fill-rule:evenodd;clip-rule:evenodd;fill:#008641;" d="M47.153,187.867c13.323,0.363,24.158,5.749,31.147,20.942
		C62.914,207.987,53.486,200.004,47.153,187.867"/>
	<path style="fill-rule:evenodd;clip-rule:evenodd;fill:#008641;" d="M115.5,187.867c-13.323,0.363-24.158,5.749-31.148,20.942
		C99.737,207.987,109.167,200.004,115.5,187.867"/>
	<path style="fill-rule:evenodd;clip-rule:evenodd;fill:#005493;" d="M68.074,146.568h26.125c-0.51,0.526-1.017,1.056-1.517,1.591
		H69.589C69.089,147.624,68.584,147.094,68.074,146.568"/>
	<path style="fill-rule:evenodd;clip-rule:evenodd;fill:#005493;" d="M70.278,148.902h21.716c-0.484,0.526-0.962,1.056-1.436,1.593
		H71.713C71.24,149.958,70.761,149.428,70.278,148.902"/>
	<path style="fill-rule:evenodd;clip-rule:evenodd;fill:#005493;" d="M72.366,151.238h17.539c-0.457,0.526-0.911,1.058-1.36,1.591
		h-14.82C73.277,152.295,72.824,151.764,72.366,151.238"/>
	<path style="fill-rule:evenodd;clip-rule:evenodd;fill:#005493;" d="M74.344,153.574h13.584c-0.435,0.526-0.863,1.056-1.289,1.59
		H75.632C75.209,154.629,74.778,154.1,74.344,153.574"/>
	<path style="fill-rule:evenodd;clip-rule:evenodd;fill:#005493;" d="M76.219,155.908h9.834c-0.412,0.528-0.819,1.058-1.222,1.592
		h-7.389C77.038,156.965,76.632,156.436,76.219,155.908"/>
	<path style="fill-rule:evenodd;clip-rule:evenodd;fill:#005493;" d="M77.997,158.243h6.278c-0.392,0.528-0.777,1.058-1.158,1.591
		h-3.962C78.773,159.301,78.389,158.771,77.997,158.243"/>
	<path style="fill-rule:evenodd;clip-rule:evenodd;fill:#005493;" d="M79.616,160.485h3.04c-0.371,0.528-0.738,1.058-1.102,1.591
		h-0.837C80.354,161.543,79.988,161.014,79.616,160.485"/>
	<path style="fill-rule:evenodd;clip-rule:evenodd;fill:#005493;" d="M71.595,143.694h4.015v-2.504h3.521v2.504h4.015v-2.504h3.52
		v2.504h4.017v-2.504h3.521c0,1.54,0,3.079,0,4.619h-26.13c0-1.54,0-3.079,0-4.619h3.522V143.694z"/>
	<path style="fill:#005493;" d="M130.205,186.984v-23.446h4.389c1.131,0,2.11,0.021,2.936,0.065c0.83,0.044,1.508,0.109,2.043,0.208
		c1.056,0.157,1.969,0.446,2.738,0.863c0.876,0.501,1.57,1.186,2.078,2.05c0.514,0.869,0.77,1.841,0.77,2.918
		c0,1.377-0.41,2.486-1.224,3.328c-0.821,0.835-2.05,1.4-3.69,1.69c1.896,0.279,3.328,0.89,4.29,1.842
		c0.962,0.951,1.442,2.212,1.442,3.792c0,1.163-0.271,2.219-0.824,3.169c-0.545,0.946-1.317,1.685-2.295,2.209
		c-0.869,0.471-1.88,0.803-3.044,1.006c-0.574,0.098-1.346,0.175-2.308,0.225c-0.962,0.055-2.121,0.081-3.477,0.081h-0.512H130.205z
		 M233.905,190.316v-2.207c0.653,0.104,1.353,0.157,2.098,0.157c1.064,0,2.037-0.117,2.918-0.349v2.398H233.905z M294.798,173.506
		h0.749c2.018,0,3.352-0.223,4.008-0.665c0.656-0.447,0.983-1.213,0.983-2.295c0-1.149-0.352-1.961-1.056-2.443
		c-0.706-0.485-2.017-0.728-3.935-0.728h-0.749V173.506z M306.74,186.984h-5.782l-6.16-10.985v10.985h-5.018v-23.446h7.177
		c2.858,0,4.997,0.551,6.411,1.656c1.416,1.105,2.12,2.772,2.12,4.989c0,1.614-0.481,2.984-1.442,4.116
		c-0.959,1.131-2.219,1.804-3.776,2.018L306.74,186.984z M282.701,186.984v-18.039h5.018v18.039H282.701z M282.701,167.347v-3.809
		h5.018v3.809H282.701z M261.915,186.984v-23.446h5.018v9.41h8.739v-9.41h5.018v23.446h-5.018v-9.804h-8.739v9.804H261.915z
		 M246.073,186.984v-23.446h13.805v4.23h-8.787v4.82h8.787v4.263h-8.787v5.871h8.787v4.262H246.073z M228.525,183.973l2.793-3.12
		c0.356,0.843,0.926,1.514,1.706,2.011c0.782,0.498,1.655,0.744,2.618,0.744c1.17,0,2.099-0.279,2.782-0.832
		c0.684-0.551,1.023-1.294,1.023-2.235c0-1.093-1.137-2.196-3.411-3.3l-1.744-0.863c-2.022-1.045-3.438-2.083-4.235-3.116
		c-0.804-1.033-1.203-2.246-1.203-3.639c0-1.924,0.767-3.51,2.296-4.751c1.53-1.241,3.52-1.859,5.964-1.859
		c0.72,0,1.382,0.061,1.972,0.176c0.597,0.12,1.16,0.311,1.689,0.579c1.038,0.477,1.951,1.252,2.738,2.316l-2.962,2.804
		c-0.339-0.649-0.809-1.148-1.4-1.49c-0.59-0.346-1.289-0.515-2.098-0.515c-1.006,0-1.809,0.247-2.409,0.732
		c-0.603,0.493-0.902,1.137-0.902,1.935c0,1.224,1.207,2.35,3.617,3.385l1.104,0.48c1.963,0.879,3.422,1.896,4.389,3.049
		c0.968,1.147,1.448,2.454,1.448,3.914c0,2.168-0.749,3.912-2.251,5.224c-1.497,1.317-3.514,1.973-6.045,1.973
		c-1.803,0-3.339-0.306-4.613-0.918C230.121,186.038,229.166,185.148,228.525,183.973z M209.056,186.984v-23.446h5.016v10.591
		l7.811-10.591h5.8l-8.39,10.657l8.689,12.79h-6.034l-7.876-12.297v12.297H209.056z M150.911,167.347v-3.809h4.984v3.809H150.911z
		 M164.562,163.538v3.809h-4.984v-3.809H164.562z M189.933,167.347v-3.809h4.984v3.809H189.933z M203.584,163.538v3.809H198.6
		v-3.809H203.584z M206.893,168.946v9.164c0,3.163-0.839,5.535-2.511,7.106c-1.674,1.571-4.196,2.358-7.585,2.358
		c-3.416,0-5.966-0.789-7.646-2.358c-1.681-1.573-2.524-3.943-2.524-7.106v-9.164h4.984v8.381c0,1.93,0.425,3.383,1.278,4.357
		c0.857,0.978,2.131,1.463,3.831,1.463c1.694,0,2.983-0.492,3.864-1.48c0.88-0.985,1.322-2.434,1.322-4.34v-8.381H206.893z
		 M174.891,186.984v-10.701l-7.934-12.745h5.874c1.768,3.27,3.409,5.853,4.564,9.34c0.739-3.012,3.126-6.653,4.574-9.34h5.842
		l-7.902,12.745v10.701H174.891z M167.869,168.946v9.164c0,3.163-0.837,5.535-2.509,7.106c-1.674,1.571-4.197,2.358-7.587,2.358
		c-3.415,0-5.966-0.789-7.645-2.358c-1.681-1.573-2.524-3.943-2.524-7.106v-9.164h4.984v8.381c0,1.93,0.425,3.383,1.278,4.357
		c0.858,0.978,2.131,1.463,3.831,1.463c1.695,0,2.984-0.492,3.865-1.48c0.877-0.985,1.322-2.434,1.322-4.34v-8.381H167.869z
		 M135.223,172.917h1.121c1.513,0,2.585-0.212,3.213-0.634c0.628-0.422,0.946-1.137,0.946-2.152c0-0.964-0.302-1.658-0.902-2.083
		c-0.607-0.427-1.656-0.639-3.164-0.639h-1.215V172.917z M135.223,183.083h1.969c1.234,0,2.186-0.274,2.848-0.827
		c0.66-0.551,0.989-1.354,0.989-2.408c0-0.995-0.323-1.755-0.973-2.273c-0.651-0.526-1.586-0.787-2.798-0.787h-2.034V183.083z"/>
	<path style="fill-rule:evenodd;clip-rule:evenodd;fill:#005493;" d="M224.089,141.19h0.555l7.017,15.08h-2.592l-1.707-3.879h-5.972
		l-1.751,3.879h-2.578L224.089,141.19z M198.94,141.19h0.555l7.018,15.08h-2.592l-1.707-3.879h-5.973l-1.75,3.879h-2.577
		L198.94,141.19z M197.15,150.339h4.196l-1.545-3.434c-0.101-0.249-0.192-0.5-0.276-0.754c-0.104-0.315-0.2-0.629-0.286-0.946
		c-0.076,0.309-0.164,0.612-0.262,0.914c-0.086,0.265-0.18,0.528-0.282,0.787L197.15,150.339z M254.825,150.339h4.194l-1.545-3.434
		c-0.101-0.249-0.192-0.5-0.277-0.754c-0.104-0.315-0.199-0.629-0.285-0.946c-0.076,0.309-0.165,0.612-0.262,0.914
		c-0.087,0.265-0.179,0.528-0.28,0.787L254.825,150.339z M256.613,141.19h0.553l7.02,15.08h-2.592l-1.707-3.879h-5.971l-1.75,3.879
		h-2.578L256.613,141.19z M240.699,141.19h2.581l3.162,5.117c0.099,0.169,0.192,0.342,0.284,0.516
		c0.122,0.226,0.231,0.455,0.339,0.685c0.096-0.226,0.196-0.452,0.304-0.674c0.101-0.202,0.214-0.395,0.335-0.586l3.24-5.057h2.454
		l-5.188,8.178v6.901h-2.429v-6.901L240.699,141.19z M229.025,141.19h10.441v2.09h-3.985v12.989h-2.45V143.28h-4.006V141.19z
		 M207.994,141.19h2.45v12.881h5.484v2.198h-7.935V141.19z M176.181,141.19h0.443l4.154,8.881c0.044,0.099,0.087,0.198,0.129,0.3
		c0.062,0.148,0.124,0.298,0.184,0.448c0.078,0.194,0.155,0.392,0.233,0.588c0.092,0.235,0.182,0.468,0.273,0.703
		c0.083-0.245,0.179-0.489,0.277-0.729c0.129-0.306,0.265-0.607,0.402-0.909c0.037-0.08,0.072-0.157,0.109-0.238
		c0.025-0.057,0.05-0.115,0.074-0.173l4.06-8.87h0.44l3.497,15.08h-2.281l-1.666-7.445c-0.011-0.04-0.018-0.085-0.025-0.127
		c-0.01-0.067-0.02-0.134-0.028-0.201c-0.029-0.212-0.055-0.426-0.081-0.639c-0.023-0.202-0.049-0.401-0.077-0.602
		c-0.021-0.159-0.043-0.318-0.064-0.477c-0.063,0.344-0.154,0.684-0.262,1.017c-0.118,0.36-0.263,0.711-0.429,1.051l-3.645,7.424
		h-0.597l-3.649-7.59c-0.153-0.318-0.304-0.643-0.429-0.977c-0.115-0.304-0.221-0.613-0.309-0.923
		c-0.008,0.329-0.036,0.655-0.078,0.98c-0.048,0.365-0.116,0.727-0.199,1.086l-1.618,7.424h-2.261L176.181,141.19z M222.299,150.339
		h4.196l-1.545-3.434c-0.101-0.249-0.192-0.5-0.277-0.754c-0.104-0.315-0.201-0.629-0.286-0.946
		c-0.075,0.309-0.164,0.612-0.261,0.914c-0.087,0.265-0.179,0.528-0.282,0.787L222.299,150.339z"/>
	<path style="fill-rule:evenodd;clip-rule:evenodd;fill:#005493;" d="M211.659,206.289h1.983c0.256,0,0.51-0.004,0.766-0.015
		c0.221-0.007,0.443-0.02,0.664-0.04c0.188-0.017,0.376-0.037,0.561-0.067c0.155-0.024,0.309-0.055,0.461-0.094
		c0.525-0.142,1.008-0.38,1.423-0.734c0.559-0.477,0.966-1.066,1.234-1.751c0.302-0.771,0.411-1.608,0.411-2.432
		c0-0.824-0.109-1.659-0.411-2.431c-0.269-0.686-0.673-1.277-1.234-1.752c-0.428-0.361-0.931-0.597-1.471-0.734
		c-0.161-0.041-0.325-0.07-0.489-0.096c-0.203-0.027-0.408-0.049-0.61-0.066c-0.244-0.02-0.489-0.032-0.733-0.041
		c-0.284-0.009-0.568-0.013-0.853-0.013h-1.702V206.289z M185.251,195.922v3.63h5.208v2.074h-5.208v4.683h5.208v2.114h-7.567
		v-14.514h7.567v2.013H185.251z M194.204,206.309h4.742v2.114h-7.102v-14.514h2.359V206.309z M202.705,195.922v3.63h5.208v2.074
		h-5.208v4.683h5.208v2.114h-7.567v-14.514h7.567v2.013H202.705z M223.322,208.423v-11.368h2.359v11.368H223.322z M223.322,196.172
		v-2.263h2.359v2.263H223.322z M233.521,199.991c0.091-0.219,0.188-0.437,0.292-0.649c0.097-0.194,0.205-0.382,0.323-0.565
		l3.117-4.867h2.362l-4.994,7.874v6.64h-2.338v-6.64l-4.893-7.874h2.484l3.046,4.926c0.095,0.164,0.184,0.33,0.273,0.498
		C233.31,199.548,233.416,199.769,233.521,199.991z M243.674,195.922v3.63h5.743v2.074h-5.743v4.683h5.743v2.114h-8.102v-14.514
		h8.102v2.013H243.674z M250.718,205.516l1.884-0.872v0.003c0.166,0.597,0.475,1.112,0.985,1.477c0.532,0.381,1.176,0.51,1.822,0.51
		c0.62,0,1.211-0.151,1.672-0.584c0.443-0.417,0.618-0.961,0.618-1.56c0-0.067-0.006-0.133-0.013-0.198
		c-0.058-0.434-0.298-0.798-0.605-1.098c-0.192-0.191-0.411-0.357-0.639-0.505c-0.275-0.181-0.568-0.338-0.865-0.477
		c-0.09-0.042-0.177-0.084-0.265-0.129c-0.063-0.029-0.128-0.06-0.192-0.088c-0.371-0.182-0.74-0.371-1.101-0.57
		c-0.306-0.171-0.607-0.352-0.898-0.544c-0.242-0.16-0.479-0.33-0.699-0.516c-0.178-0.149-0.35-0.311-0.5-0.487
		c-0.558-0.665-0.798-1.454-0.798-2.316c0-1.13,0.366-2.107,1.204-2.876c0.878-0.803,1.99-1.1,3.16-1.1
		c0.926,0,1.875,0.153,2.687,0.62c0.717,0.409,1.217,0.999,1.495,1.775l0.002,0.002l-1.843,0.955h-0.002
		c-0.247-0.389-0.56-0.761-0.957-1.001c-0.365-0.223-0.77-0.317-1.195-0.317c-0.549,0-1.091,0.125-1.512,0.496
		c-0.395,0.348-0.561,0.803-0.561,1.324c0,0.501,0.272,0.923,0.616,1.264c0.229,0.228,0.496,0.426,0.77,0.599
		c0.343,0.219,0.708,0.406,1.077,0.575c0.055,0.026,0.111,0.054,0.167,0.08c0.043,0.021,0.085,0.04,0.129,0.058
		c0.336,0.155,0.668,0.32,0.991,0.495c0.28,0.151,0.558,0.312,0.824,0.487c0.226,0.147,0.446,0.307,0.653,0.481
		c0.173,0.145,0.339,0.302,0.485,0.475c0.572,0.677,0.802,1.489,0.802,2.366c0,1.263-0.366,2.404-1.3,3.276
		c-0.966,0.901-2.218,1.215-3.512,1.215c-1.075,0-2.152-0.215-3.038-0.853c-0.835-0.601-1.321-1.444-1.551-2.439V205.516z
		 M261.847,208.423v-11.368h2.356v11.368H261.847z M261.847,196.172v-2.263h2.356v2.263H261.847z M175.06,200.039h0.899
		c0.259,0,0.52-0.009,0.778-0.03c0.221-0.018,0.441-0.044,0.657-0.085c0.18-0.035,0.361-0.081,0.532-0.143
		c0.144-0.054,0.285-0.118,0.412-0.203c0.529-0.352,0.695-0.938,0.695-1.547c0-0.61-0.124-1.281-0.643-1.67
		c-0.118-0.089-0.254-0.157-0.392-0.21c-0.174-0.067-0.355-0.115-0.537-0.15c-0.225-0.044-0.454-0.072-0.682-0.09
		c-0.273-0.021-0.549-0.028-0.822-0.028h-0.899V200.039z M175.06,206.451h0.81c0.36,0,0.723-0.005,1.083-0.024
		c0.143-0.008,0.284-0.018,0.425-0.03c0.115-0.011,0.231-0.024,0.347-0.042c0.333-0.056,0.686-0.156,0.969-0.35
		c0.295-0.192,0.518-0.454,0.673-0.77c0.166-0.337,0.236-0.697,0.236-1.071c0-0.42-0.079-0.837-0.288-1.206
		c-0.193-0.348-0.468-0.616-0.82-0.802c-0.238-0.125-0.503-0.201-0.768-0.249c-0.164-0.031-0.333-0.047-0.501-0.058
		c-0.214-0.017-0.429-0.021-0.645-0.021h-1.52V206.451z M179.329,200.732c0.813,0.129,1.486,0.498,1.986,1.156
		c0.531,0.701,0.726,1.545,0.726,2.414c0,0.575-0.099,1.137-0.308,1.674c-0.195,0.508-0.483,0.964-0.868,1.347
		c-0.419,0.415-0.915,0.694-1.479,0.853c-0.17,0.048-0.343,0.081-0.518,0.109c-0.219,0.036-0.441,0.059-0.664,0.078
		c-0.272,0.021-0.542,0.035-0.814,0.046c-0.321,0.011-0.645,0.014-0.966,0.014h-3.681v-14.514h3.662c0.244,0,0.487,0.003,0.732,0.01
		c0.21,0.008,0.421,0.017,0.629,0.032c0.177,0.014,0.353,0.03,0.528,0.053c0.141,0.02,0.284,0.043,0.423,0.074
		c0.459,0.103,0.897,0.275,1.277,0.555c0.462,0.339,0.807,0.78,1.047,1.299c0.258,0.563,0.37,1.16,0.37,1.778
		c0,0.686-0.141,1.365-0.535,1.938C180.5,200.197,179.965,200.542,179.329,200.732z M209.301,208.423v-14.514h3.178
		c0.479,0,0.959,0.005,1.438,0.02c0.402,0.01,0.805,0.029,1.207,0.058c0.327,0.024,0.653,0.053,0.979,0.098
		c0.134,0.018,0.268,0.038,0.402,0.064c0.115,0.02,0.232,0.044,0.345,0.072c0.407,0.101,0.807,0.238,1.187,0.418
		c0.365,0.173,0.709,0.382,1.03,0.629c0.854,0.651,1.483,1.483,1.907,2.468c0.47,1.088,0.651,2.264,0.651,3.441
		c0,1.172-0.18,2.345-0.651,3.425c-0.428,0.981-1.058,1.812-1.907,2.467c-0.149,0.114-0.305,0.223-0.466,0.323
		c-0.527,0.33-1.102,0.566-1.703,0.722c-0.227,0.059-0.46,0.102-0.69,0.136c-0.286,0.045-0.574,0.074-0.862,0.098
		c-0.342,0.028-0.687,0.048-1.03,0.059c-0.399,0.014-0.799,0.019-1.199,0.019H209.301z"/>
</g>
</svg>
