<?xml version="1.0" encoding="iso-8859-1"?>
<!-- Generator: Adobe Illustrator 29.7.1, SVG Export Plug-In . SVG Version: 9.03 Build 0)  -->
<svg version="1.1" id="Layer_1" xmlns="http://www.w3.org/2000/svg" xmlns:xlink="http://www.w3.org/1999/xlink" x="0px" y="0px"
	 viewBox="0 0 841.89 595.28" style="enable-background:new 0 0 841.89 595.28;" xml:space="preserve">
<g>
	<g>
		<g>
			
				<image style="overflow:visible;opacity:0.75;" width="109" height="108" xlink:href="4A738200D25ACA05.png"  transform="matrix(0.9011 0 0 0.9011 372.5601 248.7217)">
			</image>
			<path style="fill:#78CDD1;" d="M459.033,294.324c0,22.364-18.131,40.493-40.491,40.493c-22.367,0-40.495-18.129-40.495-40.493
				c0-22.363,18.127-40.491,40.495-40.491C440.902,253.833,459.033,271.961,459.033,294.324z"/>
		</g>
		<g>
			
				<image style="overflow:visible;opacity:0.75;" width="278" height="283" xlink:href="4A738200D25ACA07.png"  transform="matrix(0.2278 0 0 0.2278 387.624 258.7666)">
			</image>
			<path style="fill:#FFFFFF;stroke:#7FB539;stroke-width:1.4456;" d="M419.18,317.213c1.206,3.052,5.537,2.33,5.537,2.33
				s-3.71-0.298-2.373-10.99c0,0,6.38,11.73,16.771,0.448c0,0-3.266,0.445-3.859-1.038c0,0,1.482-4.008,5.198-3.414
				c0,0-1.593-1.473-9.062-0.508c-2.817,0.361-3.535-5.54,1.524-4.658c2.994,0.522,7.684,4.87,14.512-2.848
				c0,0-1.822,0.839-3.025-0.205c0,0-1.487-0.397,0-4.255c1.48-3.86-0.385-7.894-1.127-8.193c-0.739-0.294-2.527,0.778-2.527,0.778
				s0.445-8.759-4.154-8.609c0,0-2.081-0.89-1.338-3.86c0.744-2.967-4.51,3.34-5.15,9.282c-0.801,7.368-6.588,8.756-3.696,1.126
				c0,0,5.14-8.03,1.851-13.573c0,0-1.286-2.492-5.703-4.339c-2.25-0.939-3.95-3.374-3.95-3.374s-1.709,2.382-4.083,3.374
				c-4.417,1.847-5.702,4.339-5.702,4.339c-3.292,5.543,1.849,13.573,1.849,13.573c2.888,7.63-2.896,6.242-3.693-1.126
				c-0.643-5.942-5.896-12.249-5.153-9.282c0.743,2.971-1.338,3.86-1.338,3.86c-4.6-0.149-4.153,8.609-4.153,8.609
				s-1.786-1.072-2.529-0.778c-0.742,0.3-2.61,4.333-1.125,8.193c1.484,3.858,0,4.255,0,4.255c-1.205,1.044-3.027,0.205-3.027,0.205
				c6.827,7.718,11.515,3.37,14.514,2.848c5.059-0.882,4.34,5.02,1.523,4.658c-7.471-0.965-9.061,0.508-9.061,0.508
				c3.711-0.594,5.195,3.414,5.195,3.414c-0.593,1.483-3.86,1.038-3.86,1.038c10.389,11.282,16.773-0.448,16.773-0.448
				c1.336,10.692-2.376,10.99-2.376,10.99s4.333,0.722,5.536-2.33H419.18z"/>
		</g>
		<g>
			<path style="fill:#ED1C24;" d="M414.724,269.783c0,0,2.954,1.115,1.062,6.511c-1.887,5.397-4.372,11.258,2.362,12.652
				c0,0-4.116-0.636-2.362-8.184C417.562,273.131,418.036,271.551,414.724,269.783z"/>
			<path style="fill:#ED1C24;" d="M422.355,269.783c0,0-2.954,1.115-1.062,6.511c1.889,5.397,4.373,11.258-2.363,12.652
				c0,0,4.12-0.636,2.363-8.184C419.516,273.131,419.046,271.551,422.355,269.783z"/>
		</g>
		<path style="fill:#ED1C24;" d="M419.397,281.085c0,3.625-0.855,6.561-0.855,6.561s-0.858-2.936-0.858-6.561
			c0-3.621,0.858-6.557,0.858-6.557S419.397,277.464,419.397,281.085z"/>
		<path style="fill:#FFF200;stroke:#7FB539;stroke-width:0.4819;" d="M421.477,303.802c0,1.62-1.312,2.938-2.935,2.938
			c-1.622,0-2.939-1.317-2.939-2.938c0-1.624,1.317-2.936,2.939-2.936C420.164,300.866,421.477,302.178,421.477,303.802z"/>
		<g>
			<path style="fill:#FFF200;stroke:#7FB539;stroke-width:0.4819;" d="M418.542,298.617c0,1.62-1.319,2.936-2.942,2.936
				c-1.618,0-2.935-1.315-2.935-2.936c0-1.62,1.317-2.936,2.935-2.936C417.223,295.681,418.542,296.997,418.542,298.617z"/>
			<path style="fill:#FFF200;stroke:#7FB539;stroke-width:0.4819;" d="M424.417,298.617c0,1.62-1.317,2.936-2.94,2.936
				c-1.625,0-2.935-1.315-2.935-2.936c0-1.62,1.31-2.936,2.935-2.936C423.1,295.681,424.417,296.997,424.417,298.617z"/>
		</g>
		<g>
			<path style="fill:#FFF200;stroke:#7FB539;stroke-width:0.4819;" d="M415.608,293.505c0,1.623-1.319,2.938-2.941,2.938
				c-1.621,0-2.938-1.315-2.938-2.938c0-1.623,1.316-2.937,2.938-2.937C414.29,290.568,415.608,291.882,415.608,293.505z"/>
			<path style="fill:#FFF200;stroke:#7FB539;stroke-width:0.4819;" d="M421.481,293.505c0,1.623-1.317,2.938-2.939,2.938
				c-1.622,0-2.937-1.315-2.937-2.938c0-1.623,1.315-2.937,2.937-2.937C420.164,290.568,421.481,291.882,421.481,293.505z"/>
			<path style="fill:#FFF200;stroke:#7FB539;stroke-width:0.4819;" d="M427.35,293.505c0,1.623-1.313,2.938-2.938,2.938
				c-1.623,0-2.938-1.315-2.938-2.938c0-1.623,1.314-2.937,2.938-2.937C426.036,290.568,427.35,291.882,427.35,293.505z"/>
		</g>
		<g>
			<g>
				
					<image style="overflow:visible;opacity:0.75;" width="52" height="59" xlink:href="4A738200D25ACA02.png"  transform="matrix(0.2278 0 0 0.2278 380.79 298.3984)">
				</image>
				<path style="fill:#FFFFFF;" d="M385.556,304.497l3.296,0.106l0.823,2.674c-0.107-0.044-0.23-0.063-0.373-0.062
					c-0.136,0-0.293,0.025-0.465,0.077l-3.678,1.137c-0.162,0.053-0.306,0.118-0.423,0.194c-0.119,0.074-0.208,0.166-0.281,0.268
					l-0.748-2.423c0.111,0.04,0.235,0.059,0.374,0.059c0.139,0,0.292-0.023,0.467-0.08l3.204-0.987l-4.395-0.126l-0.434-1.408
					l3.559-2.555l-3.196,0.986c-0.169,0.054-0.311,0.117-0.424,0.193c-0.12,0.076-0.212,0.167-0.28,0.266l-0.404-1.296
					c0.116,0.041,0.244,0.064,0.38,0.064c0.138,0,0.293-0.031,0.46-0.083l3.677-1.138c0.164-0.048,0.3-0.107,0.42-0.187
					c0.117-0.079,0.214-0.169,0.286-0.266l0.828,2.671L385.556,304.497z"/>
			</g>
			<g>
				
					<image style="overflow:visible;opacity:0.75;" width="50" height="49" xlink:href="4A738200D25ACA03.png"  transform="matrix(0.2278 0 0 0.2278 383.2969 307.5137)">
				</image>
				<path style="fill:#FFFFFF;" d="M390.646,308.82l1.198,2.094l-3.233,4.053c-0.147,0.203-0.262,0.431-0.348,0.686l-1.365-2.386
					c0.137,0.029,0.268,0.007,0.384-0.061c0.132-0.075,0.257-0.202,0.394-0.385l0.384-0.507l-1.115-1.946l-0.815,0.071
					c-0.154,0.017-0.281,0.054-0.375,0.102c-0.078,0.046-0.167,0.138-0.256,0.271l-0.763-1.334c0.349,0.078,0.754,0.097,1.215,0.06
					l4.522-0.364C390.553,309.064,390.611,308.948,390.646,308.82z M388.637,311.56l1.126-1.451l-1.849,0.179L388.637,311.56z"/>
			</g>
			<g>
				
					<image style="overflow:visible;opacity:0.75;" width="55" height="55" xlink:href="4A738200D25ACA0D.png"  transform="matrix(0.2278 0 0 0.2278 387.3945 311.1563)">
				</image>
				<path style="fill:#FFFFFF;" d="M394.787,314.874l-1.897,4.443l2.667-2.336c0.131-0.105,0.236-0.228,0.315-0.345
					c0.076-0.115,0.122-0.23,0.149-0.353l0.887,1.023c-0.116,0.006-0.237,0.038-0.363,0.094c-0.126,0.056-0.259,0.142-0.393,0.267
					l-3.508,3.058l-1.738-1.988l1.904-4.581l-2.742,2.391c-0.128,0.113-0.23,0.228-0.311,0.347
					c-0.074,0.119-0.126,0.236-0.148,0.357l-0.89-1.022c0.125-0.007,0.246-0.041,0.367-0.099c0.125-0.059,0.256-0.143,0.389-0.266
					l2.898-2.525c0.129-0.113,0.228-0.224,0.305-0.344c0.076-0.118,0.132-0.24,0.156-0.357L394.787,314.874z"/>
			</g>
			<g>
				
					<image style="overflow:visible;opacity:0.75;" width="46" height="48" xlink:href="4A738200D25ACA0F.png"  transform="matrix(0.2278 0 0 0.2278 392.1802 315.2568)">
				</image>
				<path style="fill:#FFFFFF;" d="M395.571,323.183l-1.927-1.638c0.12-0.032,0.237-0.078,0.352-0.15
					c0.112-0.079,0.23-0.181,0.344-0.315l2.493-2.934c0.11-0.128,0.194-0.255,0.252-0.383c0.056-0.127,0.09-0.255,0.095-0.378
					l1.929,1.642c-0.114,0.023-0.23,0.075-0.348,0.149c-0.115,0.075-0.232,0.179-0.351,0.317l-2.488,2.929
					c-0.116,0.131-0.199,0.261-0.258,0.392C395.605,322.939,395.576,323.064,395.571,323.183z M399.664,317.4l-0.803,0.943
					l-0.969-0.82l0.805-0.946L399.664,317.4z"/>
			</g>
			<g>
				
					<image style="overflow:visible;opacity:0.75;" width="50" height="48" xlink:href="4A738200D25ACA00.png"  transform="matrix(0.2278 0 0 0.2278 395.1396 318.4434)">
				</image>
				<path style="fill:#FFFFFF;" d="M403.573,322.031l-0.441,1.043c-0.092-0.235-0.234-0.411-0.416-0.526l-0.207-0.136l-1.587-1.018
					c-0.114-0.071-0.207-0.11-0.273-0.102c-0.073,0.002-0.138,0.053-0.194,0.14l-0.1,0.161c-0.074,0.116-0.103,0.203-0.084,0.272
					c0.019,0.055,0.112,0.142,0.271,0.243l1.135,0.726c0.143,0.093,0.262,0.172,0.362,0.248c0.097,0.076,0.179,0.14,0.238,0.203
					c0.114,0.11,0.189,0.233,0.217,0.365c0.039,0.141,0.039,0.283,0.006,0.43c-0.031,0.149-0.107,0.313-0.22,0.493l-0.806,1.255
					c-0.198,0.31-0.455,0.488-0.77,0.531c-0.162,0.02-0.311,0.007-0.456-0.036c-0.147-0.053-0.345-0.158-0.605-0.322l-3.043-1.958
					l0.425-1.023c0.086,0.147,0.179,0.273,0.28,0.376c0.109,0.091,0.314,0.237,0.614,0.429l1.335,0.855l0.058,0.038l0.045,0.026
					c0.1,0.067,0.167,0.102,0.208,0.108c0.035,0.007,0.072,0,0.103-0.021c0.032-0.021,0.074-0.072,0.128-0.151l0.089-0.146
					c0.075-0.11,0.105-0.192,0.1-0.251c-0.001-0.057-0.043-0.11-0.127-0.163l-1.296-0.833c-0.275-0.176-0.473-0.326-0.596-0.44
					c-0.12-0.113-0.201-0.237-0.239-0.364c-0.04-0.13-0.042-0.269-0.004-0.422c0.035-0.155,0.112-0.326,0.233-0.511l0.81-1.261
					c0.198-0.314,0.455-0.49,0.77-0.537c0.165-0.022,0.319-0.007,0.464,0.042c0.142,0.053,0.343,0.161,0.596,0.323L403.573,322.031z
					"/>
			</g>
			<g>
				
					<image style="overflow:visible;opacity:0.75;" width="48" height="49" xlink:href="4A738200D25ACA01.png"  transform="matrix(0.2278 0 0 0.2278 399.9263 321.6338)">
				</image>
				<path style="fill:#FFFFFF;" d="M405.596,322.962l2.229,0.905l-0.035,5.19c0.012,0.249,0.062,0.502,0.153,0.757l-2.547-1.034
					c0.124-0.067,0.211-0.161,0.263-0.285c0.056-0.14,0.082-0.32,0.076-0.545l-0.014-0.639l-2.084-0.845l-0.594,0.565
					c-0.112,0.109-0.189,0.214-0.231,0.315c-0.034,0.088-0.049,0.206-0.042,0.371l-1.417-0.574c0.323-0.159,0.656-0.396,0.991-0.71
					l3.332-3.083C405.674,323.213,405.642,323.083,405.596,322.962z M405.711,326.357l-0.014-1.825l-1.339,1.281L405.711,326.357z"
					/>
			</g>
			<g>
				
					<image style="overflow:visible;opacity:0.75;" width="47" height="46" xlink:href="4A738200D25ACA06.png"  transform="matrix(0.2278 0 0 0.2278 409.9478 323.6826)">
				</image>
				<path style="fill:#FFFFFF;" d="M416.208,328.321c0.278,0.031,0.492,0.071,0.636,0.123c0.145,0.044,0.263,0.111,0.353,0.203
					c0.17,0.17,0.236,0.428,0.198,0.76l-0.085,0.749c-0.046,0.372-0.19,0.648-0.441,0.816c-0.116,0.085-0.262,0.142-0.43,0.166
					c-0.165,0.018-0.402,0.011-0.701-0.024l-4.395-0.502c0.084-0.092,0.154-0.2,0.208-0.325c0.054-0.124,0.089-0.274,0.11-0.458
					l0.44-3.818c0.019-0.167,0.015-0.32-0.004-0.461c-0.025-0.139-0.068-0.263-0.134-0.368l4.396,0.502
					c0.316,0.035,0.547,0.084,0.695,0.137c0.143,0.057,0.272,0.143,0.377,0.261c0.206,0.222,0.287,0.521,0.242,0.896l-0.061,0.541
					c-0.026,0.213-0.068,0.371-0.122,0.471c-0.063,0.105-0.159,0.185-0.293,0.24C417.006,328.305,416.675,328.336,416.208,328.321z
					 M413.73,329.975l1.013,0.118c0.23,0.023,0.39,0,0.49-0.079c0.023-0.021,0.045-0.059,0.063-0.105
					c0.014-0.047,0.028-0.142,0.046-0.28l0.027-0.252l0.009-0.069l0.008-0.059c0.01-0.114,0.017-0.203,0.017-0.258
					c-0.002-0.057-0.015-0.11-0.039-0.157c-0.026-0.042-0.059-0.075-0.109-0.1c-0.031-0.01-0.065-0.016-0.107-0.024
					c-0.036-0.007-0.099-0.018-0.184-0.024l-1.07-0.123L413.73,329.975z M413.997,327.667l1.125,0.127
					c0.167,0.02,0.285-0.005,0.353-0.07c0.066-0.062,0.11-0.198,0.135-0.405l0.025-0.219c0.025-0.232,0.015-0.389-0.02-0.474
					c-0.042-0.081-0.137-0.135-0.29-0.148l-1.175-0.137L413.997,327.667z"/>
			</g>
			<g>
				
					<image style="overflow:visible;opacity:0.75;" width="42" height="44" xlink:href="C2B1CA1E671F32CE.png"  transform="matrix(0.2278 0 0 0.2278 416.7817 324.1426)">
				</image>
				<path style="fill:#FFFFFF;" d="M420.448,326.569l0.088,1.325l1.667-0.108c0.334-0.02,0.591-0.08,0.766-0.175l0.076,1.169
					c-0.057-0.042-0.141-0.071-0.244-0.092c-0.105-0.018-0.234-0.025-0.383-0.016l-1.824,0.122l0.091,1.431l2.024-0.129
					c0.189-0.013,0.44-0.094,0.761-0.242l-0.11,1.098l-4.913,0.317c0.068-0.102,0.115-0.216,0.149-0.353
					c0.03-0.133,0.036-0.286,0.027-0.469l-0.249-3.837c-0.011-0.169-0.043-0.315-0.092-0.451c-0.043-0.135-0.106-0.247-0.19-0.34
					l4.798-0.311l0.226,1.016c-0.158-0.046-0.275-0.07-0.35-0.074c-0.076-0.006-0.161-0.009-0.264-0.006
					c-0.104,0-0.218,0.006-0.357,0.01L420.448,326.569z"/>
			</g>
			<g>
				
					<image style="overflow:visible;opacity:0.75;" width="45" height="45" xlink:href="C2B1CA1E671F32C9.png"  transform="matrix(0.2278 0 0 0.2278 421.792 323.458)">
				</image>
				<path style="fill:#FFFFFF;" d="M429.072,328.595l0.076,1.12l-4.654,1.062c0.053-0.117,0.082-0.238,0.091-0.373
					c0.007-0.136-0.008-0.291-0.048-0.465l-0.855-3.751c-0.041-0.165-0.09-0.309-0.159-0.434c-0.069-0.121-0.147-0.226-0.243-0.304
					l2.465-0.566c-0.048,0.111-0.078,0.229-0.088,0.369c-0.009,0.135,0.01,0.295,0.046,0.472l0.837,3.659l1.902-0.436
					C428.724,328.883,428.935,328.767,429.072,328.595z"/>
			</g>
			<g>
				
					<image style="overflow:visible;opacity:0.75;" width="48" height="49" xlink:href="C2B1CA1E671F32CA.png"  transform="matrix(0.2278 0 0 0.2278 426.8047 321.1777)">
				</image>
				<path style="fill:#FFFFFF;" d="M430.609,324.286l0.499,1.232l1.549-0.627c0.308-0.126,0.532-0.265,0.674-0.406l0.438,1.081
					c-0.068-0.024-0.156-0.026-0.261-0.014c-0.108,0.019-0.229,0.054-0.368,0.11l-1.693,0.688l0.543,1.336l1.874-0.763
					c0.174-0.074,0.392-0.23,0.648-0.469l0.243,1.073l-4.56,1.857c0.029-0.122,0.04-0.247,0.023-0.38
					c-0.01-0.14-0.051-0.292-0.118-0.457l-1.451-3.559c-0.062-0.155-0.139-0.291-0.225-0.403c-0.088-0.111-0.186-0.199-0.293-0.263
					l4.456-1.81l0.536,0.891c-0.166,0.009-0.289,0.017-0.358,0.04c-0.071,0.016-0.157,0.043-0.251,0.077
					c-0.096,0.03-0.207,0.072-0.332,0.125L430.609,324.286z"/>
			</g>
			<g>
				
					<image style="overflow:visible;opacity:0.75;" width="51" height="51" xlink:href="C2B1CA1E671F32C8.png"  transform="matrix(0.2278 0 0 0.2278 431.5859 318.4434)">
				</image>
				<path style="fill:#FFFFFF;" d="M435.812,327.038c0.006-0.122-0.006-0.248-0.045-0.38c-0.036-0.133-0.103-0.278-0.196-0.425
					l-2.062-3.241c-0.093-0.145-0.19-0.259-0.296-0.355c-0.105-0.094-0.219-0.163-0.332-0.203l3.805-2.423
					c0.176-0.112,0.365-0.186,0.572-0.222c0.21-0.039,0.402-0.038,0.58,0.011c0.146,0.039,0.291,0.124,0.435,0.257
					c0.147,0.132,0.287,0.305,0.431,0.527l1.25,1.966c0.143,0.222,0.242,0.426,0.298,0.614c0.058,0.181,0.07,0.347,0.044,0.497
					c-0.029,0.181-0.104,0.359-0.229,0.533c-0.121,0.167-0.272,0.31-0.452,0.425L435.812,327.038z M437.275,325.038l0.828-0.527
					c0.185-0.118,0.285-0.23,0.301-0.337c0.016-0.105-0.05-0.266-0.189-0.491l-1.276-2.006c-0.129-0.2-0.232-0.323-0.314-0.367
					c-0.124-0.048-0.283-0.01-0.485,0.117l-0.827,0.525L437.275,325.038z"/>
			</g>
			<g>
				
					<image style="overflow:visible;opacity:0.75;" width="46" height="48" xlink:href="C2B1CA1E671F32C6.png"  transform="matrix(0.2278 0 0 0.2278 436.1445 315.0293)">
				</image>
				<path style="fill:#FFFFFF;" d="M438.554,316.441l0.808,0.93l-0.961,0.836l-0.809-0.932L438.554,316.441z M443.644,321.362
					l-1.913,1.658c-0.006-0.127-0.043-0.251-0.096-0.371c-0.06-0.128-0.144-0.256-0.26-0.393l-2.525-2.904
					c-0.108-0.127-0.225-0.232-0.344-0.31c-0.117-0.075-0.236-0.131-0.358-0.153l1.914-1.66c0.004,0.116,0.035,0.239,0.093,0.366
					c0.058,0.129,0.144,0.256,0.263,0.396l2.524,2.904c0.114,0.131,0.229,0.234,0.346,0.31
					C443.406,321.284,443.525,321.334,443.644,321.362z"/>
			</g>
			<g>
				
					<image style="overflow:visible;opacity:0.75;" width="50" height="49" xlink:href="C2B1CA1E671F32D9.png"  transform="matrix(0.2278 0 0 0.2278 438.6465 311.1563)">
				</image>
				<path style="fill:#FFFFFF;" d="M444.391,315.853l-0.506-1.633c-0.082-0.247-0.193-0.429-0.335-0.55l-0.136-0.103l0.963-1.114
					c-0.016,0.125-0.012,0.242,0.008,0.36c0.023,0.092,0.078,0.277,0.177,0.561l0.933,2.969l0.957,0.83
					c0.132,0.11,0.263,0.197,0.39,0.259c0.126,0.064,0.247,0.091,0.368,0.1l-1.657,1.908c-0.021-0.11-0.069-0.226-0.142-0.349
					c-0.076-0.114-0.182-0.232-0.316-0.347l-0.963-0.837l-2.939-0.452c-0.462-0.076-0.811-0.111-1.056-0.105l1.804-2.083
					c0.06,0.057,0.116,0.097,0.167,0.128c0.051,0.035,0.103,0.061,0.163,0.084c0.107,0.04,0.266,0.082,0.482,0.115L444.391,315.853z
					"/>
			</g>
			<g>
				
					<image style="overflow:visible;opacity:0.75;" width="51" height="49" xlink:href="C2B1CA1E671F32DA.png"  transform="matrix(0.2278 0 0 0.2278 442.75 307.0576)">
				</image>
				<path style="fill:#FFFFFF;" d="M446.156,311.072l1.141,0.688l0.858-1.437c0.172-0.285,0.273-0.527,0.3-0.726l0.998,0.604
					c-0.064,0.023-0.14,0.071-0.217,0.146c-0.074,0.08-0.151,0.178-0.23,0.302l-0.942,1.571l1.234,0.74l1.044-1.732
					c0.099-0.162,0.178-0.418,0.241-0.76l0.838,0.715l-2.539,4.214c-0.049-0.11-0.114-0.218-0.209-0.319
					c-0.092-0.102-0.215-0.196-0.366-0.292l-3.296-1.98c-0.147-0.084-0.283-0.148-0.422-0.188c-0.135-0.034-0.267-0.049-0.388-0.034
					l2.476-4.119l0.965,0.389c-0.129,0.109-0.217,0.19-0.264,0.246c-0.043,0.059-0.094,0.131-0.154,0.214
					c-0.059,0.084-0.122,0.188-0.191,0.304L446.156,311.072z"/>
			</g>
			<g>
				
					<image style="overflow:visible;opacity:0.75;" width="47" height="48" xlink:href="C2B1CA1E671F32D8.png"  transform="matrix(0.2278 0 0 0.2278 445.71 302.0449)">
				</image>
				<path style="fill:#FFFFFF;" d="M448.656,303.558l1.107,0.226c-0.211,0.138-0.355,0.31-0.436,0.517l-0.092,0.227l-0.686,1.758
					c-0.051,0.128-0.068,0.225-0.049,0.288c0.02,0.071,0.076,0.122,0.176,0.163l0.178,0.068c0.131,0.051,0.221,0.061,0.277,0.029
					c0.059-0.037,0.123-0.142,0.19-0.315l0.492-1.253c0.06-0.16,0.118-0.296,0.17-0.41c0.051-0.108,0.103-0.199,0.151-0.268
					c0.086-0.131,0.19-0.23,0.319-0.291c0.128-0.062,0.268-0.092,0.42-0.087c0.152,0.001,0.327,0.044,0.52,0.115l1.393,0.549
					c0.342,0.132,0.568,0.353,0.677,0.65c0.051,0.155,0.067,0.307,0.055,0.455c-0.027,0.155-0.093,0.37-0.206,0.655l-1.314,3.37
					l-1.088-0.217c0.125-0.11,0.229-0.228,0.306-0.347c0.073-0.127,0.175-0.355,0.305-0.685l0.579-1.478l0.024-0.065l0.019-0.046
					c0.044-0.115,0.065-0.19,0.065-0.227c-0.003-0.036-0.021-0.072-0.046-0.096c-0.025-0.027-0.082-0.061-0.17-0.098l-0.162-0.057
					c-0.117-0.052-0.207-0.068-0.264-0.054c-0.053,0.017-0.1,0.069-0.134,0.161l-0.564,1.438c-0.119,0.303-0.221,0.527-0.311,0.668
					c-0.093,0.14-0.194,0.243-0.314,0.304c-0.119,0.065-0.258,0.097-0.414,0.09c-0.156-0.004-0.34-0.046-0.545-0.127l-1.398-0.551
					c-0.342-0.133-0.57-0.351-0.674-0.65c-0.059-0.154-0.079-0.308-0.053-0.462c0.022-0.148,0.09-0.368,0.199-0.647L448.656,303.558
					z"/>
			</g>
			<g>
				
					<image style="overflow:visible;opacity:0.75;" width="51" height="35" xlink:href="C2B1CA1E671F32DE.png"  transform="matrix(0.2278 0 0 0.2278 445.9355 299.082)">
				</image>
				<path style="fill:#FFFFFF;" d="M447.678,300.675l1.209,0.288l-0.3,1.237l-1.202-0.288L447.678,300.675z M454.685,301.71
					l-0.588,2.459c-0.079-0.092-0.177-0.177-0.293-0.248c-0.121-0.064-0.269-0.119-0.442-0.159l-3.737-0.898
					c-0.159-0.038-0.314-0.054-0.457-0.052c-0.142,0.008-0.266,0.037-0.379,0.086l0.591-2.463c0.073,0.095,0.168,0.173,0.288,0.24
					c0.117,0.07,0.266,0.127,0.441,0.167l3.74,0.902c0.164,0.037,0.323,0.055,0.462,0.05
					C454.453,301.789,454.576,301.76,454.685,301.71z"/>
			</g>
		</g>
	</g>
	<g>
		<path d="M387.558,347.377l-1.351-4.521h0.792l0.955,3.448l0.89-3.448h0.884l0.885,3.447l0.989-3.447h0.782l-1.376,4.521h-0.768
			l-0.954-3.48l-0.958,3.48H387.558z"/>
		<path d="M393.852,347.377l-1.351-4.521h0.791l0.955,3.448l0.891-3.448h0.884l0.886,3.447l0.989-3.447h0.782l-1.376,4.521h-0.769
			l-0.955-3.48l-0.958,3.48H393.852z"/>
		<path d="M400.147,347.377l-1.351-4.521h0.792l0.954,3.448l0.891-3.448h0.884l0.885,3.447l0.989-3.447h0.782l-1.376,4.521h-0.769
			l-0.954-3.48l-0.958,3.48H400.147z"/>
		<path d="M405.781,347.377v-0.941h0.868v0.941H405.781z"/>
		<path d="M413.491,347.377v-2.782c0-0.456-0.062-0.768-0.186-0.935c-0.124-0.167-0.34-0.252-0.647-0.252
			c-0.361,0-0.644,0.114-0.849,0.341c-0.206,0.227-0.309,0.545-0.309,0.956v2.673h-0.774v-2.782c0-0.456-0.062-0.768-0.186-0.935
			c-0.125-0.167-0.338-0.252-0.643-0.252c-0.363,0-0.648,0.116-0.853,0.347c-0.206,0.232-0.309,0.548-0.309,0.95v2.673h-0.759
			v-4.521h0.728v0.637c0.165-0.25,0.365-0.438,0.597-0.562c0.232-0.126,0.504-0.189,0.813-0.189c0.285,0,0.524,0.056,0.72,0.168
			c0.196,0.109,0.368,0.291,0.517,0.541c0.192-0.241,0.406-0.421,0.644-0.536c0.238-0.114,0.508-0.173,0.809-0.173
			c0.149,0,0.286,0.013,0.41,0.038c0.124,0.025,0.242,0.066,0.354,0.123c0.214,0.101,0.38,0.253,0.499,0.456
			c0.064,0.115,0.111,0.253,0.139,0.413c0.011,0.073,0.021,0.178,0.03,0.312c0.008,0.136,0.012,0.284,0.012,0.448v0.13v2.714
			H413.491z"/>
		<path d="M418.187,346.774c-0.239,0.248-0.491,0.434-0.755,0.558c-0.265,0.124-0.545,0.186-0.843,0.186
			c-0.461,0-0.822-0.119-1.081-0.36c-0.258-0.241-0.388-0.574-0.388-1c0-0.408,0.126-0.729,0.378-0.961
			c0.251-0.232,0.641-0.385,1.167-0.459l0.536-0.059c0.385-0.039,0.62-0.076,0.705-0.112c0.084-0.035,0.144-0.079,0.177-0.133
			c0.028-0.062,0.042-0.182,0.042-0.358c0-0.229-0.085-0.401-0.254-0.519c-0.171-0.116-0.424-0.175-0.762-0.175
			c-0.354,0-0.62,0.07-0.797,0.211c-0.177,0.141-0.266,0.35-0.266,0.625h-0.717v-0.033c0-0.454,0.161-0.814,0.483-1.08
			c0.322-0.265,0.763-0.398,1.323-0.398c0.603,0,1.046,0.113,1.333,0.34s0.431,0.58,0.431,1.062v2.263
			c0,0.191,0.021,0.316,0.063,0.374c0.042,0.058,0.119,0.088,0.229,0.088l0.081-0.006l0.118-0.021v0.587
			c-0.092,0.026-0.174,0.043-0.246,0.051l-0.194,0.018c-0.253,0-0.444-0.054-0.571-0.164c-0.127-0.109-0.19-0.275-0.19-0.496
			V346.774z M418.124,345.076c-0.201,0.108-0.549,0.194-1.046,0.258l-0.393,0.056c-0.277,0.043-0.476,0.124-0.597,0.245
			c-0.121,0.122-0.183,0.294-0.183,0.516c0,0.226,0.072,0.399,0.214,0.521c0.142,0.122,0.344,0.183,0.603,0.183
			c0.407,0,0.742-0.102,1.006-0.308c0.264-0.204,0.396-0.468,0.396-0.793V345.076z"/>
		<path d="M423.1,347.377v-2.781c0-0.441-0.069-0.748-0.207-0.919c-0.139-0.173-0.372-0.259-0.701-0.259
			c-0.423,0-0.751,0.12-0.988,0.361c-0.236,0.24-0.354,0.582-0.354,1.023v2.574h-0.758v-4.521h0.727v0.659
			c0.174-0.263,0.38-0.457,0.618-0.583c0.237-0.127,0.515-0.19,0.833-0.19c0.34,0,0.626,0.052,0.858,0.154
			c0.231,0.102,0.412,0.258,0.542,0.463c0.067,0.111,0.118,0.241,0.151,0.389c0.015,0.067,0.026,0.159,0.034,0.275
			c0.008,0.116,0.013,0.259,0.013,0.425v0.215v2.714H423.1z"/>
		<path d="M425.009,342.025v-0.868h0.759v0.868H425.009z M425.009,347.377v-4.521h0.759v4.521H425.009z"/>
		<path d="M426.623,345.907l0.733,0.001c0,0.149,0.028,0.281,0.084,0.396c0.057,0.114,0.138,0.214,0.245,0.302
			c0.197,0.158,0.472,0.236,0.822,0.236c0.324,0,0.582-0.064,0.772-0.192c0.189-0.127,0.285-0.303,0.285-0.524
			c0-0.167-0.047-0.293-0.14-0.38c-0.093-0.088-0.276-0.165-0.553-0.232l-0.85-0.22c-0.476-0.115-0.808-0.27-0.997-0.458
			c-0.189-0.19-0.283-0.461-0.283-0.813c0-0.4,0.151-0.717,0.455-0.952c0.301-0.235,0.716-0.354,1.242-0.354
			c0.537,0,0.965,0.126,1.282,0.377c0.317,0.25,0.477,0.586,0.477,1.009v0.017h-0.737c0-0.112-0.026-0.216-0.078-0.31
			c-0.053-0.096-0.125-0.176-0.218-0.244c-0.181-0.132-0.422-0.198-0.727-0.198c-0.307,0-0.54,0.053-0.698,0.16
			c-0.159,0.106-0.238,0.264-0.238,0.469c0,0.144,0.049,0.259,0.147,0.347c0.101,0.082,0.289,0.153,0.561,0.216l0.735,0.172
			c0.526,0.124,0.888,0.283,1.083,0.477c0.196,0.191,0.294,0.468,0.294,0.825c0,0.468-0.166,0.832-0.499,1.094
			c-0.332,0.262-0.793,0.393-1.385,0.393c-0.58,0-1.026-0.139-1.339-0.413c-0.157-0.142-0.276-0.311-0.357-0.508
			C426.663,346.398,426.623,346.17,426.623,345.907z"/>
		<path d="M434.011,346.774c-0.239,0.248-0.491,0.434-0.755,0.558c-0.264,0.124-0.546,0.186-0.844,0.186
			c-0.461,0-0.821-0.119-1.08-0.36c-0.259-0.241-0.389-0.574-0.389-1c0-0.408,0.127-0.729,0.379-0.961
			c0.25-0.232,0.641-0.385,1.166-0.459l0.535-0.059c0.386-0.039,0.621-0.076,0.705-0.112c0.084-0.035,0.143-0.079,0.177-0.133
			c0.028-0.062,0.042-0.182,0.042-0.358c0-0.229-0.085-0.401-0.255-0.519c-0.17-0.116-0.424-0.175-0.761-0.175
			c-0.354,0-0.619,0.07-0.797,0.211c-0.178,0.141-0.266,0.35-0.266,0.625h-0.717v-0.033c0-0.454,0.16-0.814,0.483-1.08
			c0.322-0.265,0.764-0.398,1.323-0.398c0.602,0,1.046,0.113,1.333,0.34s0.431,0.58,0.431,1.062v2.263
			c0,0.191,0.022,0.316,0.064,0.374c0.042,0.058,0.119,0.088,0.229,0.088l0.08-0.006l0.119-0.021v0.587
			c-0.094,0.026-0.175,0.043-0.246,0.051l-0.194,0.018c-0.253,0-0.444-0.054-0.571-0.164c-0.127-0.109-0.191-0.275-0.191-0.496
			V346.774z M433.947,345.076c-0.2,0.108-0.549,0.194-1.046,0.258l-0.394,0.056c-0.276,0.043-0.476,0.124-0.597,0.245
			c-0.122,0.122-0.183,0.294-0.183,0.516c0,0.226,0.072,0.399,0.214,0.521c0.142,0.122,0.344,0.183,0.604,0.183
			c0.407,0,0.741-0.102,1.006-0.308c0.264-0.204,0.396-0.468,0.396-0.793V345.076z"/>
		<path d="M436.086,347.377v-0.941h0.867v0.941H436.086z"/>
		<path d="M438.299,347.377v-6.22h0.742v2.328c0.172-0.251,0.383-0.443,0.63-0.578c0.248-0.135,0.526-0.201,0.837-0.201
			c0.6,0,1.081,0.22,1.444,0.66c0.363,0.438,0.545,1.027,0.545,1.766c0,0.729-0.179,1.309-0.536,1.74
			c-0.357,0.431-0.84,0.646-1.444,0.646c-0.325,0-0.605-0.057-0.839-0.171c-0.236-0.115-0.447-0.295-0.637-0.541v0.571H438.299z
			 M439.016,345.085c0,0.561,0.114,0.994,0.344,1.299c0.23,0.306,0.56,0.458,0.99,0.458c0.412,0,0.738-0.148,0.982-0.444
			c0.243-0.298,0.365-0.702,0.365-1.214c0-0.572-0.116-1.015-0.346-1.324c-0.233-0.311-0.562-0.468-0.994-0.468
			c-0.447,0-0.783,0.142-1.006,0.425C439.127,344.099,439.016,344.522,439.016,345.085z"/>
		<path d="M446.467,345.917h0.752c-0.081,0.499-0.298,0.893-0.65,1.18c-0.352,0.288-0.795,0.432-1.329,0.432
			c-0.622,0-1.116-0.211-1.483-0.634c-0.366-0.423-0.549-0.999-0.549-1.729c0-0.768,0.181-1.371,0.54-1.807
			c0.361-0.436,0.858-0.653,1.491-0.653c0.649,0,1.153,0.2,1.509,0.601c0.355,0.4,0.534,0.966,0.534,1.695l-0.005,0.208v0.047
			c0,0.016-0.002,0.045-0.008,0.084h-3.266c0,0.236,0.029,0.446,0.088,0.628c0.059,0.181,0.148,0.342,0.267,0.479
			c0.227,0.26,0.544,0.389,0.95,0.389c0.31,0,0.566-0.08,0.768-0.239C446.277,346.438,446.408,346.212,446.467,345.917z
			 M444.004,344.707h2.48c0-0.427-0.107-0.754-0.32-0.982c-0.215-0.229-0.514-0.343-0.898-0.343c-0.375,0-0.668,0.111-0.881,0.335
			C444.173,343.94,444.045,344.27,444.004,344.707z"/>
		<path d="M448.16,347.377v-6.22h0.773v6.22H448.16z"/>
		<path d="M450.276,347.377v-0.941h0.867v0.941H450.276z"/>
		<path d="M453.361,346.237c0,0.205,0.029,0.34,0.087,0.407c0.058,0.065,0.165,0.1,0.319,0.1l0.16-0.006c0.045,0,0.092,0,0.14,0
			c0.048-0.008,0.085-0.014,0.11-0.015v0.644l-0.343,0.051l-0.265,0.017c-0.355,0-0.605-0.067-0.75-0.205
			c-0.145-0.136-0.217-0.381-0.217-0.735v-3.034h-0.676v-0.604h0.676v-1.262h0.758v1.262h0.816v0.604h-0.816V346.237z"/>
		<path d="M454.9,347.377v-4.521h0.732v0.811c0.119-0.306,0.283-0.532,0.49-0.683c0.209-0.151,0.465-0.227,0.766-0.227h0.123
			c0.033,0,0.059,0.003,0.076,0.009v0.807l-0.068-0.015h-0.113c-0.406,0-0.715,0.111-0.928,0.331
			c-0.213,0.222-0.319,0.544-0.319,0.967v2.521H454.9z"/>
	</g>
</g>
</svg>
