<?xml version="1.0" encoding="UTF-8"?>
<svg id="Layer_2" data-name="Layer 2" xmlns="http://www.w3.org/2000/svg" xmlns:xlink="http://www.w3.org/1999/xlink" viewBox="0 0 98.66 96.88">
  <defs>
    <style>
      .cls-1 {
        stroke-width: 1.45px;
      }

      .cls-1, .cls-2 {
        fill: #fff;
      }

      .cls-1, .cls-3 {
        stroke: #7fb539;
      }

      .cls-4 {
        isolation: isolate;
        opacity: .75;
      }

      .cls-5 {
        fill: #78cdd1;
      }

      .cls-6 {
        fill: #ed1c24;
      }

      .cls-3 {
        fill: #fff200;
        stroke-width: .48px;
      }
    </style>
  </defs>
  <g id="Layer_1-2" data-name="Layer 1">
    <g>
      <g>
        <image class="cls-4" width="111" height="109" transform="scale(.89)" xlink:href="4A738200D25ACA05.png"/>
        <path class="cls-5" d="M86.69,45.38c0,22.36-18.13,40.49-40.49,40.49S5.7,67.75,5.7,45.38,23.83,4.89,46.2,4.89c22.36,0,40.49,18.13,40.49,40.49Z"/>
      </g>
      <g>
        <image class="cls-4" width="278" height="283" transform="translate(15.28 9.82) scale(.23)" xlink:href="4A738200D25ACA07.png"/>
        <path class="cls-1" d="M46.84,68.27c1.21,3.05,5.54,2.33,5.54,2.33,0,0-3.71-.3-2.37-10.99,0,0,6.38,11.73,16.77.45,0,0-3.27.45-3.86-1.04,0,0,1.48-4.01,5.2-3.41,0,0-1.59-1.47-9.06-.51-2.82.36-3.54-5.54,1.52-4.66,2.99.52,7.68,4.87,14.51-2.85,0,0-1.82.84-3.02-.2,0,0-1.49-.4,0-4.26,1.48-3.86-.39-7.89-1.13-8.19-.74-.29-2.53.78-2.53.78,0,0,.45-8.76-4.15-8.61,0,0-2.08-.89-1.34-3.86.74-2.97-4.51,3.34-5.15,9.28-.8,7.37-6.59,8.76-3.7,1.13,0,0,5.14-8.03,1.85-13.57,0,0-1.29-2.49-5.7-4.34-2.25-.94-3.95-3.37-3.95-3.37,0,0-1.71,2.38-4.08,3.37-4.42,1.85-5.7,4.34-5.7,4.34-3.29,5.54,1.85,13.57,1.85,13.57,2.89,7.63-2.9,6.24-3.69-1.13-.64-5.94-5.9-12.25-5.15-9.28.74,2.97-1.34,3.86-1.34,3.86-4.6-.15-4.15,8.61-4.15,8.61,0,0-1.79-1.07-2.53-.78-.74.3-2.61,4.33-1.12,8.19,1.48,3.86,0,4.26,0,4.26-1.2,1.04-3.03.2-3.03.2,6.83,7.72,11.52,3.37,14.51,2.85,5.06-.88,4.34,5.02,1.52,4.66-7.47-.96-9.06.51-9.06.51,3.71-.59,5.2,3.41,5.2,3.41-.59,1.48-3.86,1.04-3.86,1.04,10.39,11.28,16.77-.45,16.77-.45,1.34,10.69-2.38,10.99-2.38,10.99,0,0,4.33.72,5.54-2.33h1.28Z"/>
      </g>
      <g>
        <path class="cls-6" d="M42.38,20.84s2.95,1.11,1.06,6.51c-1.89,5.4-4.37,11.26,2.36,12.65,0,0-4.12-.64-2.36-8.18,1.78-7.63,2.25-9.21-1.06-10.98Z"/>
        <path class="cls-6" d="M50.01,20.84s-2.95,1.11-1.06,6.51c1.89,5.4,4.37,11.26-2.36,12.65,0,0,4.12-.64,2.36-8.18-1.78-7.63-2.25-9.21,1.06-10.98Z"/>
      </g>
      <path class="cls-6" d="M47.05,32.14c0,3.62-.86,6.56-.86,6.56,0,0-.86-2.94-.86-6.56s.86-6.56.86-6.56c0,0,.86,2.94.86,6.56Z"/>
      <path class="cls-3" d="M49.13,54.86c0,1.62-1.31,2.94-2.93,2.94s-2.94-1.32-2.94-2.94,1.32-2.94,2.94-2.94,2.93,1.31,2.93,2.94Z"/>
      <g>
        <path class="cls-3" d="M46.2,49.67c0,1.62-1.32,2.94-2.94,2.94s-2.93-1.32-2.93-2.94,1.32-2.94,2.93-2.94,2.94,1.32,2.94,2.94Z"/>
        <path class="cls-3" d="M52.07,49.67c0,1.62-1.32,2.94-2.94,2.94s-2.93-1.32-2.93-2.94,1.31-2.94,2.93-2.94,2.94,1.32,2.94,2.94Z"/>
      </g>
      <g>
        <path class="cls-3" d="M43.27,44.56c0,1.62-1.32,2.94-2.94,2.94s-2.94-1.32-2.94-2.94,1.32-2.94,2.94-2.94,2.94,1.31,2.94,2.94Z"/>
        <path class="cls-3" d="M49.14,44.56c0,1.62-1.32,2.94-2.94,2.94s-2.94-1.32-2.94-2.94,1.32-2.94,2.94-2.94,2.94,1.31,2.94,2.94Z"/>
        <path class="cls-3" d="M55.01,44.56c0,1.62-1.31,2.94-2.94,2.94s-2.94-1.32-2.94-2.94,1.31-2.94,2.94-2.94,2.94,1.31,2.94,2.94Z"/>
      </g>
      <g>
        <g>
          <image class="cls-4" width="52" height="57" transform="translate(8.33 49.56) scale(.23)" xlink:href="4A738200D25ACA02.png"/>
          <path class="cls-2" d="M13.21,55.55l3.3.11.82,2.67c-.11-.04-.23-.06-.37-.06-.14,0-.29.02-.46.08l-3.68,1.14c-.16.05-.31.12-.42.19-.12.07-.21.17-.28.27l-.75-2.42c.11.04.23.06.37.06s.29-.02.47-.08l3.2-.99-4.39-.13-.43-1.41,3.56-2.55-3.2.99c-.17.05-.31.12-.42.19-.12.08-.21.17-.28.27l-.4-1.3c.12.04.24.06.38.06s.29-.03.46-.08l3.68-1.14c.16-.05.3-.11.42-.19.12-.08.21-.17.29-.27l.83,2.67-2.67,1.92Z"/>
        </g>
        <g>
          <image class="cls-4" width="48" height="48" transform="translate(11.01 58.51) scale(.23)" xlink:href="4A738200D25ACA03.png"/>
          <path class="cls-2" d="M18.3,59.88l1.2,2.09-3.23,4.05c-.15.2-.26.43-.35.69l-1.36-2.39c.14.03.27,0,.38-.06.13-.08.26-.2.39-.39l.38-.51-1.11-1.95-.82.07c-.15.02-.28.05-.38.1-.08.05-.17.14-.26.27l-.76-1.33c.35.08.75.1,1.21.06l4.52-.36c.08-.11.14-.23.17-.35ZM16.29,62.62l1.13-1.45-1.85.18.72,1.27Z"/>
        </g>
        <g>
          <image class="cls-4" width="54" height="52" transform="translate(14.93 62.33) scale(.24)" xlink:href="4A738200D25ACA0D.png"/>
          <path class="cls-2" d="M22.44,65.93l-1.9,4.44,2.67-2.34c.13-.11.24-.23.32-.35.08-.11.12-.23.15-.35l.89,1.02c-.12,0-.24.04-.36.09s-.26.14-.39.27l-3.51,3.06-1.74-1.99,1.9-4.58-2.74,2.39c-.13.11-.23.23-.31.35-.07.12-.13.24-.15.36l-.89-1.02c.12,0,.25-.04.37-.1.12-.06.26-.14.39-.27l2.9-2.52c.13-.11.23-.22.3-.34.08-.12.13-.24.16-.36l1.95,2.24Z"/>
        </g>
        <g>
          <image class="cls-4" width="44" height="46" transform="translate(19.84 66.31) scale(.24)" xlink:href="4A738200D25ACA0F.png"/>
          <path class="cls-2" d="M23.23,74.24l-1.93-1.64c.12-.03.24-.08.35-.15.11-.08.23-.18.34-.32l2.49-2.93c.11-.13.19-.26.25-.38.06-.13.09-.26.1-.38l1.93,1.64c-.11.02-.23.08-.35.15-.11.08-.23.18-.35.32l-2.49,2.93c-.12.13-.2.26-.26.39-.06.12-.09.25-.09.37ZM27.32,68.46l-.8.94-.97-.82.8-.95.97.82Z"/>
        </g>
        <g>
          <image class="cls-4" width="47" height="46" transform="translate(22.85 69.45) scale(.24)" xlink:href="4A738200D25ACA00.png"/>
          <path class="cls-2" d="M31.23,73.09l-.44,1.04c-.09-.23-.23-.41-.42-.53l-.21-.14-1.59-1.02c-.11-.07-.21-.11-.27-.1-.07,0-.14.05-.19.14l-.1.16c-.07.12-.1.2-.08.27.02.05.11.14.27.24l1.14.73c.14.09.26.17.36.25.1.08.18.14.24.2.11.11.19.23.22.36.04.14.04.28,0,.43-.03.15-.11.31-.22.49l-.81,1.26c-.2.31-.45.49-.77.53-.16.02-.31,0-.46-.04-.15-.05-.35-.16-.61-.32l-3.04-1.96.42-1.02c.09.15.18.27.28.38.11.09.31.24.61.43l1.33.86.06.04.05.03c.1.07.17.1.21.11.04,0,.07,0,.1-.02.03-.02.07-.07.13-.15l.09-.15c.08-.11.11-.19.1-.25,0-.06-.04-.11-.13-.16l-1.3-.83c-.27-.18-.47-.33-.6-.44-.12-.11-.2-.24-.24-.36-.04-.13-.04-.27,0-.42.04-.15.11-.33.23-.51l.81-1.26c.2-.31.45-.49.77-.54.17-.02.32,0,.46.04.14.05.34.16.6.32l2.98,1.91Z"/>
        </g>
        <g>
          <image class="cls-4" width="49" height="48" transform="translate(27.47 72.81) scale(.23)" xlink:href="4A738200D25ACA01.png"/>
          <path class="cls-2" d="M33.25,74.02l2.23.9-.04,5.19c.01.25.06.5.15.76l-2.55-1.03c.12-.07.21-.16.26-.29.06-.14.08-.32.08-.55v-.64s-2.1-.85-2.1-.85l-.59.57c-.11.11-.19.21-.23.32-.03.09-.05.21-.04.37l-1.42-.57c.32-.16.66-.4.99-.71l3.33-3.08c0-.14-.03-.27-.08-.39ZM33.37,77.41v-1.83s-1.35,1.28-1.35,1.28l1.35.54Z"/>
        </g>
        <g>
          <image class="cls-4" width="48" height="45" transform="translate(37.49 74.86) scale(.23)" xlink:href="4A738200D25ACA06.png"/>
          <path class="cls-2" d="M43.87,79.38c.28.03.49.07.64.12.14.04.26.11.35.2.17.17.24.43.2.76l-.08.75c-.05.37-.19.65-.44.82-.12.08-.26.14-.43.17-.17.02-.4.01-.7-.02l-4.39-.5c.08-.09.15-.2.21-.33.05-.12.09-.27.11-.46l.44-3.82c.02-.17.02-.32,0-.46-.02-.14-.07-.26-.13-.37l4.4.5c.32.04.55.08.7.14.14.06.27.14.38.26.21.22.29.52.24.9l-.06.54c-.03.21-.07.37-.12.47-.06.11-.16.18-.29.24-.19.08-.52.11-.99.09ZM41.39,81.03l1.01.12c.23.02.39,0,.49-.08.02-.02.05-.06.06-.11.01-.05.03-.14.05-.28l.03-.25v-.07s.02-.06.02-.06c.01-.11.02-.2.02-.26,0-.06-.02-.11-.04-.16-.03-.04-.06-.08-.11-.1-.03-.01-.07-.02-.11-.02-.04,0-.1-.02-.18-.02l-1.07-.12-.16,1.41ZM41.65,78.72l1.12.13c.17.02.29,0,.35-.07.07-.06.11-.2.14-.4l.02-.22c.02-.23.02-.39-.02-.47-.04-.08-.14-.14-.29-.15l-1.17-.14-.15,1.33Z"/>
        </g>
        <g>
          <image class="cls-4" width="42" height="45" transform="translate(44.5 75.15) scale(.23)" xlink:href="C2B1CA1E671F32CE.png"/>
          <path class="cls-2" d="M48.11,77.63l.09,1.33,1.67-.11c.33-.02.59-.08.77-.17l.08,1.17c-.06-.04-.14-.07-.24-.09-.11-.02-.23-.02-.38-.02l-1.82.12.09,1.43,2.02-.13c.19-.01.44-.09.76-.24l-.11,1.1-4.91.32c.07-.1.11-.22.15-.35.03-.13.04-.29.03-.47l-.25-3.84c-.01-.17-.04-.32-.09-.45-.04-.14-.11-.25-.19-.34l4.8-.31.23,1.02c-.16-.05-.27-.07-.35-.07-.08,0-.16,0-.26,0-.1,0-.22,0-.36.01l-1.7.11Z"/>
        </g>
        <g>
          <image class="cls-4" width="45" height="43" transform="translate(49.33 74.63) scale(.23)" xlink:href="C2B1CA1E671F32C9.png"/>
          <path class="cls-2" d="M56.73,79.65l.08,1.12-4.65,1.06c.05-.12.08-.24.09-.37,0-.14,0-.29-.05-.46l-.86-3.75c-.04-.17-.09-.31-.16-.43-.07-.12-.15-.23-.24-.3l2.46-.57c-.05.11-.08.23-.09.37,0,.14.01.3.05.47l.84,3.66,1.9-.44c.28-.07.49-.18.63-.35Z"/>
        </g>
        <g>
          <image class="cls-4" width="48" height="46" transform="translate(54.29 72.41) scale(.24)" xlink:href="C2B1CA1E671F32CA.png"/>
          <path class="cls-2" d="M58.27,75.34l.5,1.23,1.55-.63c.31-.13.53-.27.67-.41l.44,1.08c-.07-.02-.16-.03-.26-.01-.11.02-.23.05-.37.11l-1.69.69.54,1.34,1.87-.76c.17-.07.39-.23.65-.47l.24,1.07-4.56,1.86c.03-.12.04-.25.02-.38-.01-.14-.05-.29-.12-.46l-1.45-3.56c-.06-.15-.14-.29-.23-.4-.09-.11-.19-.2-.29-.26l4.46-1.81.54.89c-.17,0-.29.02-.36.04-.07.02-.16.04-.25.08-.1.03-.21.07-.33.12l-1.57.64Z"/>
        </g>
        <g>
          <image class="cls-4" width="50" height="49" transform="translate(59.19 69.56) scale(.23)" xlink:href="C2B1CA1E671F32C8.png"/>
          <path class="cls-2" d="M63.47,78.1c0-.12,0-.25-.05-.38-.04-.13-.1-.28-.2-.42l-2.06-3.24c-.09-.14-.19-.26-.3-.36-.11-.09-.22-.16-.33-.2l3.8-2.42c.18-.11.36-.19.57-.22.21-.04.4-.04.58.01.15.04.29.12.43.26.15.13.29.3.43.53l1.25,1.97c.14.22.24.43.3.61.06.18.07.35.04.5-.03.18-.1.36-.23.53-.12.17-.27.31-.45.42l-3.8,2.42ZM64.93,76.1l.83-.53c.18-.12.29-.23.3-.34.02-.11-.05-.27-.19-.49l-1.28-2.01c-.13-.2-.23-.32-.31-.37-.12-.05-.28-.01-.48.12l-.83.52,1.96,3.09Z"/>
        </g>
        <g>
          <image class="cls-4" width="43" height="49" transform="translate(64.05 65.86) scale(.23)" xlink:href="C2B1CA1E671F32C6.png"/>
          <path class="cls-2" d="M66.21,67.5l.81.93-.96.84-.81-.93.96-.83ZM71.3,72.42l-1.91,1.66c0-.13-.04-.25-.1-.37-.06-.13-.14-.26-.26-.39l-2.52-2.9c-.11-.13-.23-.23-.34-.31-.12-.08-.24-.13-.36-.15l1.91-1.66c0,.12.04.24.09.37.06.13.14.26.26.4l2.52,2.9c.11.13.23.23.35.31.12.08.24.13.36.16Z"/>
        </g>
        <g>
          <image class="cls-4" width="50" height="46" transform="translate(66.13 62.4) scale(.23)" xlink:href="C2B1CA1E671F32D9.png"/>
          <path class="cls-2" d="M72.05,66.91l-.51-1.63c-.08-.25-.19-.43-.33-.55l-.14-.1.96-1.11c-.02.12-.01.24,0,.36.02.09.08.28.18.56l.93,2.97.96.83c.13.11.26.2.39.26.13.06.25.09.37.1l-1.66,1.91c-.02-.11-.07-.23-.14-.35-.08-.11-.18-.23-.32-.35l-.96-.84-2.94-.45c-.46-.08-.81-.11-1.06-.11l1.8-2.08c.06.06.12.1.17.13.05.04.1.06.16.08.11.04.27.08.48.11l1.64.26Z"/>
        </g>
        <g>
          <image class="cls-4" width="51" height="50" transform="translate(70.46 58.06) scale(.23)" xlink:href="C2B1CA1E671F32DA.png"/>
          <path class="cls-2" d="M73.81,62.13l1.14.69.86-1.44c.17-.29.27-.53.3-.73l1,.6c-.06.02-.14.07-.22.15-.07.08-.15.18-.23.3l-.94,1.57,1.23.74,1.04-1.73c.1-.16.18-.42.24-.76l.84.71-2.54,4.21c-.05-.11-.11-.22-.21-.32-.09-.1-.21-.2-.37-.29l-3.3-1.98c-.15-.08-.28-.15-.42-.19-.14-.03-.27-.05-.39-.03l2.48-4.12.96.39c-.13.11-.22.19-.26.25-.04.06-.09.13-.15.21-.06.08-.12.19-.19.3l-.88,1.45Z"/>
        </g>
        <g>
          <image class="cls-4" width="47" height="49" transform="translate(73.42 53.05) scale(.23)" xlink:href="C2B1CA1E671F32D8.png"/>
          <path class="cls-2" d="M76.31,54.62l1.11.23c-.21.14-.36.31-.44.52l-.09.23-.69,1.76c-.05.13-.07.23-.05.29.02.07.08.12.18.16l.18.07c.13.05.22.06.28.03.06-.04.12-.14.19-.32l.49-1.25c.06-.16.12-.3.17-.41.05-.11.1-.2.15-.27.09-.13.19-.23.32-.29.13-.06.27-.09.42-.09.15,0,.33.04.52.11l1.39.55c.34.13.57.35.68.65.05.15.07.31.05.45-.03.15-.09.37-.21.65l-1.31,3.37-1.09-.22c.12-.11.23-.23.31-.35.07-.13.17-.36.3-.68l.58-1.48.02-.07.02-.05c.04-.11.07-.19.07-.23,0-.04-.02-.07-.05-.1-.02-.03-.08-.06-.17-.1l-.16-.06c-.12-.05-.21-.07-.26-.05-.05.02-.1.07-.13.16l-.56,1.44c-.12.3-.22.53-.31.67-.09.14-.19.24-.31.3-.12.07-.26.1-.41.09-.16,0-.34-.05-.55-.13l-1.4-.55c-.34-.13-.57-.35-.67-.65-.06-.15-.08-.31-.05-.46.02-.15.09-.37.2-.65l1.3-3.3Z"/>
        </g>
        <g>
          <image class="cls-4" width="52" height="36" transform="translate(73.61 50.12) scale(.22)" xlink:href="C2B1CA1E671F32DE.png"/>
          <path class="cls-2" d="M75.34,51.73l1.21.29-.3,1.24-1.2-.29.29-1.24ZM82.34,52.77l-.59,2.46c-.08-.09-.18-.18-.29-.25-.12-.06-.27-.12-.44-.16l-3.74-.9c-.16-.04-.31-.05-.46-.05-.14,0-.27.04-.38.09l.59-2.46c.07.1.17.17.29.24.12.07.27.13.44.17l3.74.9c.16.04.32.05.46.05.14,0,.26-.03.37-.08Z"/>
        </g>
      </g>
    </g>
  </g>
</svg>