<?xml version="1.0" encoding="iso-8859-1"?>
<!-- Generator: Adobe Illustrator 29.7.1, SVG Export Plug-In . SVG Version: 9.03 Build 0)  -->
<svg version="1.1" id="Layer_1" xmlns="http://www.w3.org/2000/svg" xmlns:xlink="http://www.w3.org/1999/xlink" x="0px" y="0px"
	 viewBox="0 0 430.428 427.197" style="enable-background:new 0 0 430.428 427.197;" xml:space="preserve">
<polygon style="fill:#846D51;" points="93.542,384.827 93.542,312.261 80.652,312.261 55.96,364.277 31.269,312.261 18.893,312.261 
	18.893,384.827 24.817,384.827 24.817,328.689 52.211,386.305 80.652,326.115 80.652,384.827 "/>
<path style="fill:#846D51;" d="M99.456,384.83h6.554l6.066-13.062h34.602l6.24,13.062H167.2l-34.308-72.566L99.456,384.83z
	 M114.359,366.749l14.771-32.226l15.276,32.226H114.359z"/>
<path style="fill:#846D51;" d="M266.887,312.257h-32.902v0.782l2.072,0.604c0.096,0,0.198,0,0.304,0.082
	c3.749,1.092,6.439,4.656,6.439,8.65v62.448h24.088c0.871,0,40.152,1.7,40.152-36.325
	C307.04,309.862,268.006,312.317,266.887,312.257 M266.887,378.851h-11.21v-60.643h11.21c0,0,24.982,0,24.982,30.292
	C291.869,379.164,266.887,378.851,266.887,378.851z"/>
<path style="fill:#846D51;" d="M311.046,313.148l2.096,0.489c0.092,0,0.185,0,0.277,0.083c3.772,1.036,6.452,4.669,6.452,8.663
	v62.448h11.92v-72.566h-20.745V313.148z"/>
<path style="fill:#846D51;" d="M359.228,384.827v-48.502l48.489,48.502v-72.566h-5.947v48.36l-42.344-42.308
	c-3.97-3.911-9.207-6.052-14.669-6.052v0.779c0-0.125,2.703,1.096,2.875,1.257c1.109,0.594,1.98,1.515,2.762,2.399
	c2.874,3.69,2.874,8.313,2.874,12.725v55.406H359.228z"/>
<path style="fill:#846D51;" d="M32.077,409.251c1.805-0.627,3.759-2,3.759-5.109c0-0.944-0.779-5.798-7.554-5.683H17.243v0.234
	l0.617,0.175h0.106c1.142,0.346,1.957,1.465,1.957,2.663v18.979h8.359c7.775,0,8.557-4.485,8.557-5.729
	C36.839,411.126,34.206,409.799,32.077,409.251 M23.823,400.252h4.459c0,0,3.597,0,3.597,4.458c0,3.389-2.34,3.577-2.782,3.577
	h-5.274V400.252z M28.282,418.716h-4.459v-8.636h4.459c1.092,0,2.175,0.429,2.943,1.198c0.687,0.733,1.225,1.782,1.225,3.366
	C32.45,418.637,28.282,418.716,28.282,418.716z"/>
<path style="fill:#846D51;" d="M57.283,413.396c0,5.135-4.97,5.914-6.693,5.914c0,0-5.3,0.188-5.3-5.914V398.46h-6.6v0.257
	l0.63,0.152c0.046,0,0.056,0,0.069,0.056c1.175,0.314,1.967,1.409,1.967,2.607v11.864c0,7.976,8.93,7.59,8.93,7.59
	c8.359,0,8.802-6.204,8.802-7.59V398.46h-1.805V413.396z"/>
<path style="fill:#846D51;" d="M46.607,393.058c-0.429,0.442-0.673,0.99-0.673,1.594c0,0.617,0.244,1.142,0.673,1.561
	c0.396,0.419,0.954,0.627,1.561,0.627c0.604,0,1.152-0.208,1.571-0.627c0.419-0.419,0.653-0.944,0.653-1.561
	c0-0.604-0.234-1.152-0.653-1.594c-0.419-0.386-0.954-0.63-1.571-0.63C47.538,392.427,47.004,392.671,46.607,393.058"/>
<path style="fill:#846D51;" d="M52.838,393.058c-0.442,0.442-0.627,0.99-0.627,1.594c0,0.617,0.185,1.142,0.673,1.561
	c0.386,0.419,0.921,0.627,1.551,0.627c0.591,0,1.083-0.208,1.571-0.627c0.442-0.419,0.617-0.944,0.617-1.561
	c0-0.604-0.175-1.152-0.617-1.594c-0.432-0.386-0.98-0.63-1.571-0.63C53.805,392.427,53.247,392.671,52.838,393.058"/>
<path style="fill:#846D51;" d="M74.259,408.991l-5.798-8.732c-0.746-1.105-2.049-1.802-3.412-1.802h-4.122v0.267l0.663,0.092
	c0.898,0.185,1.667,0.687,2.192,1.442l7.448,11.214v8.986h3.901v-9.488l7.976-12.514h-2.132L74.259,408.991z"/>
<path style="fill:#846D51;" d="M95.984,396.212c0.409-0.419,0.663-0.944,0.663-1.561c0-0.604-0.254-1.152-0.663-1.594
	c-0.442-0.386-0.944-0.63-1.571-0.63c-0.63,0-1.152,0.244-1.561,0.63c-0.442,0.442-0.65,0.99-0.65,1.594
	c0,0.617,0.208,1.142,0.65,1.561c0.409,0.419,0.954,0.627,1.561,0.627C95.007,396.84,95.542,396.631,95.984,396.212"/>
<path style="fill:#846D51;" d="M103.535,413.396c0,5.135-4.983,5.914-6.696,5.914c0,0-5.343,0.188-5.343-5.914V398.46h-6.6v0.257
	l0.64,0.152c0.06,0,0.092,0,0.092,0.056c1.175,0.314,1.967,1.409,1.967,2.607v11.864c0,7.976,8.943,7.59,8.943,7.59
	c8.346,0,8.801-6.204,8.801-7.59V398.46h-1.805V413.396z"/>
<path style="fill:#846D51;" d="M102.248,396.212c0.409-0.419,0.617-0.944,0.617-1.561c0-0.604-0.208-1.152-0.617-1.594
	c-0.442-0.386-0.954-0.63-1.581-0.63c-0.63,0-1.178,0.244-1.574,0.63c-0.465,0.442-0.627,0.99-0.627,1.594
	c0,0.617,0.161,1.142,0.65,1.561c0.419,0.419,0.921,0.627,1.551,0.627C101.294,396.84,101.772,396.631,102.248,396.212"/>
<path style="fill:#846D51;" d="M127.695,418.716l-10.956-10.663l9.838-9.594h-2.597l-10.221,9.93v-9.93h-6.613v0.257l0.63,0.152
	c0.429,0.139,0.792,0.29,1.175,0.521c0.557,0.396,0.884,1.049,0.884,1.759v19.302h3.924v-10.221l9.326,9.033
	c0.825,0.782,1.884,1.188,3.049,1.188h4.845v-0.257l-0.373-0.046C129.487,419.986,128.497,419.429,127.695,418.716"/>
<path style="fill:#846D51;" d="M243.077,409.251c1.818-0.627,3.808-2,3.808-5.109c0-0.944-0.792-5.798-7.567-5.683h-11.049v0.234
	l0.627,0.175h0.096c1.152,0.346,1.944,1.465,1.944,2.663v18.979h8.382c7.765,0,8.557-4.485,8.557-5.729
	C247.875,411.126,245.232,409.799,243.077,409.251 M234.859,400.252h4.459c0,0,3.607,0,3.607,4.458c0,3.389-2.34,3.577-2.805,3.577
	h-5.26V400.252z M239.318,418.716h-4.459v-8.636h4.459c1.092,0,2.165,0.429,2.934,1.198c0.696,0.733,1.234,1.782,1.234,3.366
	C243.486,418.637,239.318,418.716,239.318,418.716z"/>
<path style="fill:#846D51;" d="M249.687,398.721l0.65,0.152c0.023,0,0.069,0,0.092,0.056c1.132,0.304,1.957,1.409,1.957,2.607v18.92
	h14.167V419h-10.28v-9.092h8.557v-1.805h-8.557v-8.125h10.28v-1.515h-16.867V398.721z"/>
<path style="fill:#846D51;" d="M274.685,398.456h-6.287v0.257l0.607,0.162c0.023,0,0.046,0,0.092,0.046
	c1.165,0.294,1.99,1.422,1.99,2.62v18.966h14.448v-1.792h-10.851V398.456z"/>
<path style="fill:#846D51;" d="M287.374,398.721l0.64,0.152c0.036,0,0.046,0,0.082,0.056c1.139,0.304,1.967,1.409,1.967,2.607v18.92
	h14.158V419h-10.257v-9.092h8.534v-1.805h-8.534v-8.125h10.257v-1.515h-16.847V398.721z"/>
<path style="fill:#846D51;" d="M316.049,398.46h-9.99v0.234l0.663,0.175c0,0,0.01,0,0.069,0.056
	c1.142,0.314,1.944,1.409,1.944,2.607v18.92h7.313c0.267,0,12.201,0.581,12.201-10.966
	C328.25,397.727,316.386,398.506,316.049,398.46 M316.049,418.716h-3.402v-18.464h3.402c0,0,7.577,0,7.577,9.234
	C323.626,418.765,316.049,418.716,316.049,418.716z"/>
<path style="fill:#846D51;" d="M352.746,408.991l-5.785-8.732c-0.792-1.105-2.059-1.802-3.422-1.802h-4.122v0.267l0.65,0.092
	c0.875,0.185,1.667,0.687,2.191,1.442l7.462,11.214v8.986h3.901v-9.488l7.95-12.514h-2.142L352.746,408.991z"/>
<path style="fill:#846D51;" d="M363.412,398.721l0.617,0.152c0.07,0,0.079,0,0.102,0.056c1.142,0.304,1.957,1.409,1.957,2.607v18.92
	h14.157V419h-10.234v-9.092h8.521v-1.805h-8.521v-8.125h10.234v-1.515h-16.834V398.721z"/>
<path style="fill:#846D51;" d="M394.803,409.304c-0.515-0.314-1.607-0.908-3.353-1.851c-2.482-1.28-4.043-2.317-4.716-3.109
	c-0.419-0.465-0.63-1.036-0.63-1.63c0-0.898,0.363-1.607,1.165-2.224c0.686-0.545,1.501-0.838,2.458-0.862
	c1.069-0.046,2.198,0.234,3.257,0.862c0.828,0.419,1.478,1.409,1.897,2.841h1.62c-0.119-0.7-0.34-1.373-0.64-2.013
	c-0.35-0.828-0.967-1.561-1.818-2.237c-0.848-0.686-2.28-1.046-4.317-1.198h-0.013c-1.805,0-3.366,0.571-4.647,1.617
	c-1.396,1.142-2.072,2.574-2.072,4.333c0,1.815,0.838,3.33,2.528,4.666c0.792,0.594,2.059,1.376,3.795,2.261
	c1.713,0.921,2.934,1.676,3.68,2.188c1.152,0.897,1.733,1.888,1.733,2.924c0,1.046-0.442,1.825-1.29,2.455
	c-0.769,0.571-1.736,0.825-2.851,0.825c-1.086,0-2.178-0.254-3.109-0.719c-1.013-0.525-1.759-1.257-2.248-2.142
	c-0.257-0.419-0.386-0.99-0.479-1.726h-1.511c0.172,1.307,0.544,2.413,1.139,3.297c0.815,1.082,1.643,1.838,2.505,2.234
	c0.779,0.36,1.594,0.607,2.304,0.654c0.538,0.139,1.119,0.162,1.736,0.162c1.944,0,3.633-0.604,4.947-1.7
	c1.502-1.152,2.237-2.69,2.237-4.564c0-0.861-0.188-1.709-0.63-2.548C396.978,411.096,396.084,410.188,394.803,409.304"/>
<path style="fill:#846D51;" d="M147.476,398.721l0.63,0.152c0.023,0,0.069,0,0.079,0.056c1.118,0.304,1.944,1.409,1.944,2.607v18.92
	h14.194V419h-10.27v-9.092h8.534v-1.805h-8.534v-8.125h10.27v-1.515h-16.847V398.721z"/>
<path style="fill:#846D51;" d="M186.985,419.524c-0.584-0.373-0.921-1.023-0.921-1.663v-19.408h-3.901v10.118h-9.428v-8.313
	c0-0.967-0.805-1.805-1.782-1.805h-4.798v0.267l0.63,0.152c0.419,0.129,0.792,0.281,1.142,0.525
	c0.581,0.396,0.908,1.046,0.908,1.746v19.312h3.901v-10.372h9.428v8.581c0,0.99,0.769,1.792,1.713,1.792h0.069h4.795v-0.254
	l-0.617-0.139C187.681,419.99,187.285,419.805,186.985,419.524"/>
<path style="fill:#846D51;" d="M142.314,409.304c-0.501-0.314-1.607-0.908-3.389-1.851c-2.432-1.28-4.003-2.317-4.666-3.109
	c-0.432-0.465-0.63-1.036-0.63-1.63c0-0.898,0.34-1.607,1.129-2.224c0.713-0.545,1.538-0.838,2.468-0.862
	c1.119-0.046,2.201,0.234,3.261,0.862c0.838,0.419,1.478,1.409,1.874,2.841h1.654c-0.139-0.7-0.337-1.373-0.63-2.013
	c-0.346-0.828-0.964-1.561-1.802-2.237c-0.874-0.686-2.294-1.046-4.379-1.198c-1.782,0-3.353,0.571-4.656,1.617
	c-1.317,1.142-2.013,2.574-2.013,4.333c0,1.815,0.815,3.33,2.515,4.666c0.779,0.594,2.049,1.376,3.795,2.261
	c1.676,0.921,2.921,1.676,3.68,2.188c1.128,0.897,1.699,1.888,1.699,2.924c0,1.046-0.409,1.825-1.257,2.455
	c-0.805,0.571-1.746,0.825-2.855,0.825c-1.128,0-2.165-0.254-3.109-0.719c-1.033-0.525-1.769-1.257-2.257-2.142
	c-0.231-0.419-0.373-0.99-0.488-1.726h-1.501c0.185,1.307,0.558,2.413,1.152,3.297c0.838,1.082,1.617,1.838,2.455,2.234
	c0.815,0.36,1.607,0.607,2.307,0.654l0.419,0.056l-1.617,2.68c0.29,0,0.558-0.06,0.825-0.06c0.221,0.06,0.465,0.185,0.653,0.314
	c0.221,0.221,0.347,0.502,0.347,0.736c0,0.465-0.208,0.894-0.558,1.152c-0.373,0.36-0.769,0.525-1.267,0.525
	c-0.188,0-0.469,0-0.713-0.06l-0.185-0.046l0.115,1.013c0.677,0.102,1.178,0.139,1.525,0.139c0.967,0,1.795-0.29,2.468-0.792
	c0.746-0.673,1.188-1.35,1.188-2.294c0-1.221-0.65-2.059-1.967-2.468l0.548-0.733c1.908,0,3.584-0.604,4.97-1.7
	c1.479-1.152,2.201-2.69,2.201-4.564c0-0.861-0.198-1.709-0.63-2.548C144.492,411.096,143.558,410.188,142.314,409.304"/>
<path style="fill:#846D51;" d="M335.137,392.302c-0.64,0-1.178,0.185-1.607,0.594c-0.442,0.452-0.63,0.944-0.63,1.571
	c0,0.63,0.188,1.142,0.667,1.561c0.393,0.442,0.931,0.65,1.571,0.65c0.617,0,1.092-0.208,1.558-0.65
	c0.419-0.419,0.63-0.931,0.63-1.561c0-0.627-0.211-1.119-0.63-1.571C336.266,392.487,335.754,392.302,335.137,392.302"/>
<path style="fill:#846D51;" d="M330.692,398.721l0.64,0.152c0.01,0,0.046,0,0.083,0.056c1.129,0.291,1.967,1.409,1.967,2.607v18.92
	h3.597v-21.992h-6.287V398.721z"/>
<path style="fill:#846D51;" d="M400.555,398.721l0.617,0.152c0.046,0,0.069,0,0.105,0.056c1.139,0.291,1.944,1.409,1.944,2.607
	v18.92h3.621v-21.992h-6.287V398.721z"/>
<path style="fill:#846D51;" d="M405.08,392.302c-0.631,0-1.119,0.185-1.571,0.594c-0.442,0.452-0.64,0.944-0.64,1.571
	c0,0.63,0.198,1.142,0.65,1.561c0.442,0.442,0.931,0.65,1.561,0.65c0.627,0,1.129-0.208,1.571-0.65
	c0.419-0.419,0.617-0.931,0.617-1.561c0-0.627-0.198-1.119-0.617-1.571C406.245,392.487,405.707,392.302,405.08,392.302"/>
<path style="fill:#846D51;" d="M190.258,398.721l0.64,0.152c0.013,0,0.06,0,0.092,0.056c1.155,0.291,1.957,1.409,1.957,2.607v18.92
	h3.643v-21.992h-6.333V398.721z"/>
<path style="fill:#846D51;" d="M194.76,392.302c-0.64,0-1.129,0.185-1.594,0.594c-0.409,0.452-0.617,0.944-0.617,1.571
	c0,0.63,0.208,1.142,0.65,1.561c0.432,0.442,0.921,0.65,1.561,0.65c0.617,0,1.129-0.208,1.561-0.65
	c0.465-0.419,0.627-0.931,0.627-1.561c0-0.627-0.162-1.119-0.627-1.571C195.938,392.487,195.377,392.302,194.76,392.302"/>
<path style="fill:#846D51;" d="M330.533,304.179c1.257-1.244,1.907-2.921,1.907-4.762c0-1.908-0.65-3.482-1.907-4.726
	c-1.307-1.327-2.96-1.957-4.785-1.957c-1.888,0-3.458,0.63-4.855,1.957c-1.271,1.244-1.947,2.818-1.947,4.726
	c0,1.841,0.676,3.518,2.049,4.762c1.294,1.28,2.865,2.036,4.752,2.036C327.573,306.215,329.147,305.459,330.533,304.179"/>
<path style="fill:#846D51;" d="M222.395,332.593c0-20.279-21.992-20.329-33.678-20.329h-21.435v0.865l2.096,0.511
	c0.059,0,0.185,0,0.281,0.079c3.759,1.096,6.425,4.669,6.425,8.663v62.448h12.91v-32.027h5.554l23.005,32.027h14.679l-21.536-29.816
	l-2.584-4.062c0.046,0,0.106,0,0.106-0.046C215.97,348.763,222.395,343.674,222.395,332.593 M204.06,345.843l-0.208,0.079
	c-2.878,1.723-6.231,1.723-8.128,1.723h-6.729v-30.351l6.729-0.079c0,0,13.913-0.106,13.913,15.379
	C209.637,340.289,207.158,344.07,204.06,345.843z"/>
<path style="fill:#846D51;" d="M212.891,412.426l-1.561-2.188c0.046-0.046,0.082-0.046,0.106-0.046
	c2.363-0.627,4.307-2.188,4.307-5.577c0-6.112-6.706-6.158-10.234-6.158h-6.518v0.267l0.64,0.152c0.01,0,0.056,0,0.092,0.046
	c1.129,0.314,1.954,1.422,1.954,2.62v18.966h3.901v-9.745h1.713l6.983,9.745h4.448L212.891,412.426z M210.165,408.677h-0.056
	c-0.865,0.525-1.888,0.525-2.459,0.525h-2.072v-9.23h2.072c0,0,4.214-0.023,4.214,4.643
	C211.864,406.954,211.096,408.109,210.165,408.677z"/>
<path style="fill:#846D51;" d="M322.567,108.63l-0.175-0.152l-0.198-0.161c-1.013-0.875-2.026-1.759-3.063-2.574
	c-4.118-3.363-8.277-6.439-12.398-9.254C421.224,42.318,428.428,2,428.428,2c-24.018,34.856-97.77,70.448-134.407,86.384
	c-3.515-2.072-6.996-3.947-10.386-5.716C381.408,39.047,396.727,2.267,396.727,2.267c-31.048,31.701-94.334,60.273-129.507,72.847
	c-0.779-0.317-1.561-0.63-2.327-0.944c-3.04-1.175-6.161-2.294-9.326-3.307c-0.092,0-0.488-0.188-0.931-0.337
	c0.046,0,0.092,0,0.102-0.059h-0.01h0.01C336.071,37.417,364.967,2.815,364.967,2.815c-33.981,25.916-96.419,50.422-133.289,61.762
	c-0.548-0.105-0.931-0.105-0.931-0.105c-5.112-1.046-10.339-1.851-15.718-2.502l-0.779-0.105h-0.036l-0.779,0.105
	c-5.402,0.65-10.653,1.455-15.751,2.502c0,0-0.373,0-0.898,0.105C159.881,53.238,97.433,28.731,63.471,2.815
	c0,0,20.748,29.094,110.204,67.652h0.036h-0.036c0.036,0.059,0.083,0.059,0.106,0.059c-0.442,0.148-0.825,0.337-0.921,0.337
	c-3.155,1.013-6.26,2.132-9.323,3.307c-0.759,0.314-1.525,0.627-2.34,0.944C126.038,62.541,62.752,33.968,31.737,2.267
	c0,0,15.309,36.78,113.078,80.401c-3.422,1.769-6.867,3.643-10.418,5.716C97.806,72.448,24.028,36.856,0,2
	c0,0,7.184,40.318,121.718,94.489c-4.109,2.815-8.267,5.891-12.422,9.254c-1.026,0.815-2.062,1.699-3.039,2.574l-0.198,0.161
	l-0.175,0.152c-69.038,59.607-84.16,155.294-86.71,176.098h26.814c6.076-74.777,38.522-138.806,88.931-180.418
	c5.485,2.805,10.749,5.937,15.755,9.385C79.83,178.669,71.435,266.323,70.448,284.728h27.031
	c8.544-68.768,31.213-122.042,67.639-159.775c4.706,4.228,9.234,8.802,13.494,13.725c-48.083,58.501-56.102,128.949-57.382,146.05
	h27.031c4.785-51.855,19.279-94.905,43.228-129.157c4.132,6.25,7.95,12.864,11.501,20.012
	c-24.042,47.093-29.081,96.525-29.965,109.145h26.929c1.802-30.084,6.656-56.732,14.26-79.936
	c7.604,23.203,12.491,49.852,14.273,79.936h26.952c-0.931-12.62-5.973-62.052-29.991-109.145
	c3.505-7.148,7.359-13.761,11.504-20.012c23.913,34.252,38.43,77.302,43.192,129.157h27.067
	c-1.257-17.101-9.313-87.549-57.396-146.05c4.284-4.924,8.778-9.498,13.504-13.725c36.417,37.734,59.072,91.007,67.666,159.775
	h27.021c-0.99-18.405-9.396-106.059-80.272-171.032c5.053-3.449,10.313-6.58,15.762-9.385
	c50.446,41.611,82.905,105.64,88.981,180.418h26.791C406.726,263.924,391.605,168.237,322.567,108.63 M162.359,103.683
	c-4.947-3.053-10.151-5.835-15.669-8.452c1.745-1.247,3.505-2.445,5.264-3.647c1.848-1.221,3.736-2.455,5.633-3.643
	c1.059,0.488,2.096,1.036,3.168,1.584c1.885,0.967,3.749,1.91,5.597,2.957c0.257,0.152,0.571,0.304,0.852,0.465
	c1.792,0.99,3.574,1.98,5.31,3.016C168.996,98.479,165.633,101.076,162.359,103.683z M214.214,63.425
	c5.762,0.815,11.689,2.875,11.689,2.875c-0.129,0.046-0.234,0.105-0.327,0.152l-11.362,4.901l-11.339-4.901
	c-0.115-0.046-0.221-0.105-0.373-0.152C202.502,66.3,208.452,64.24,214.214,63.425z M182.863,74.217l2.478,0.756l0.234,0.06
	l0.198,0.083l0.139,0.023l0.211,0.079l0.175,0.046l0.195,0.049l0.198,0.056l0.188,0.046c4.214,1.363,8.148,2.924,10.069,3.68
	l1.399,0.607c-3.841,2.082-7.567,4.27-11.154,6.495c-4.528-2.515-9.243-4.878-14.167-7.148
	C176.262,77.348,179.52,75.731,182.863,74.217z M190.219,125.639c-4.191-4.178-8.65-8.138-13.389-11.887
	c3.343-2.898,6.755-5.739,10.306-8.452c4.666,3.237,9.171,6.646,13.504,10.22C197.007,118.804,193.539,122.194,190.219,125.639z
	 M214.214,155.116c-3.353-5.099-6.937-10.105-10.851-14.923c3.472-4.076,7.092-7.986,10.851-11.735
	c3.785,3.749,7.383,7.66,10.874,11.735C221.187,145.011,217.567,150.017,214.214,155.116z M214.214,103.739
	c-3.924-2.99-8.055-5.891-12.339-8.719c4.026-2.538,8.138-4.947,12.339-7.241c4.214,2.294,8.336,4.703,12.319,7.241
	C222.246,97.849,218.174,100.749,214.214,103.739z M238.173,125.639c-3.284-3.445-6.752-6.835-10.349-10.118
	c4.297-3.574,8.792-6.983,13.481-10.22c3.528,2.713,6.963,5.554,10.316,8.452C246.882,117.501,242.4,121.461,238.173,125.639z
	 M241.225,86.196c-3.587-2.224-7.3-4.412-11.118-6.495l1.383-0.607c1.888-0.756,5.844-2.317,10.049-3.68l0.221-0.046l0.162-0.056
	l0.175-0.049l0.244-0.046l0.175-0.079l0.165-0.023l0.171-0.083l0.221-0.06l2.492-0.756c3.366,1.515,6.636,3.132,9.851,4.831
	C250.515,81.319,245.799,83.681,241.225,86.196z M266.069,103.683c-3.27-2.607-6.65-5.204-10.151-7.719
	c1.723-1.036,3.551-2.026,5.307-3.016c0.304-0.162,0.584-0.314,0.852-0.465c1.838-1.046,3.703-1.99,5.564-2.957h0.046
	c1.049-0.548,2.119-1.096,3.155-1.584c1.898,1.188,3.762,2.422,5.623,3.643c1.759,1.201,3.528,2.399,5.297,3.647
	C276.243,97.849,271.052,100.631,266.069,103.683z"/>
<polygon style="fill:#846D51;" points="254.743,70.471 254.743,70.471 254.733,70.471 "/>
<path style="fill:#846D51;" d="M255.914,95.968c1.723-1.046,3.551-2.026,5.31-3.026C259.465,93.941,257.637,94.921,255.914,95.968"
	/>
<path style="fill:#846D51;" d="M276.461,91.585c-1.851-1.221-3.716-2.445-5.613-3.643c-1.036,0.488-2.105,1.036-3.165,1.584
	c1.152-0.502,2.28-0.967,3.409-1.432C272.897,89.232,274.738,90.41,276.461,91.585"/>
<path style="fill:#846D51;" d="M262.079,92.479c1.838-1.049,3.69-1.993,5.564-2.947C265.768,90.486,263.917,91.43,262.079,92.479"/>
<path style="fill:#D12129;" d="M213.996,87.674L213.996,87.674v-0.046c0,0,0,0.046-0.033,0.046H213.996z"/>
</svg>
