<?xml version="1.0" encoding="iso-8859-1"?>
<!-- Generator: Adobe Illustrator 29.7.1, SVG Export Plug-In . SVG Version: 9.03 Build 0)  -->
<svg version="1.1" id="Layer_1" xmlns="http://www.w3.org/2000/svg" xmlns:xlink="http://www.w3.org/1999/xlink" x="0px" y="0px"
	 viewBox="0 0 683 683" style="enable-background:new 0 0 683 683;" xml:space="preserve">
<g>
	<g>
		<g>
			<path style="fill:#303A83;" d="M334.964,265.495c1.015-0.072,2.03-0.183,3.046-0.251c3.102-0.182,3.94-0.222,7.43-0.07
				c4.929,0.424,9.874,0.972,14.681,2.194c17.015,4.09,32.45,14.271,43,28.219c7.79,10.224,12.95,22.434,14.808,35.156
				c0.548,3.495,0.73,7.033,0.877,10.563c-0.022,8.325-1.202,16.675-3.813,24.594c-4.728,14.604-13.991,27.676-26.147,37.04
				c-11.946,9.272-26.695,14.879-41.793,15.836c-1.064,0.04-2.115,0.214-3.177,0.282c-0.978,0.072-1.946-0.284-2.92-0.102
				c-1.207,0.221-2.408-0.126-3.615-0.14c-15.813-0.866-31.281-6.843-43.6-16.794c-5.777-4.642-10.879-10.122-15.101-16.212
				c-6.456-9.301-10.819-20.05-12.632-31.229c-0.435-2.537-0.661-5.103-0.915-7.66c0.176-2.39,0.054-4.789,0.092-7.184
				c0.045-1.362-0.133-2.728,0.07-4.084c0.949-11.581,4.578-22.934,10.544-32.907c7.49-12.6,18.663-22.977,31.789-29.507
				C316.121,268.972,325.462,266.338,334.964,265.495z M336.989,270.395c-0.234,0.102-0.365,0.282-0.388,0.546
				c0.115,0.837,1.761,0.636,1.549-0.234C337.995,270.228,337.373,270.244,336.989,270.395z M334.446,270.586
				c-0.241,0.086-0.444,0.289-0.431,0.559c0.088,0.828,1.7,0.661,1.544-0.187C335.47,270.469,334.82,270.447,334.446,270.586z
				 M341.641,271.854c0.002,2.71-0.025,5.418-0.077,8.126c0.462,0.004,0.922,0.009,1.387,0.011
				c-0.014-1.258-0.004-2.518,0.031-3.777c0.939,1.243,1.847,2.507,2.708,3.804c0.544,0.009,1.086,0.011,1.632,0.007
				c-1.114-1.552-2.212-3.112-3.362-4.636c0.893-1.195,1.842-2.347,2.789-3.502c-0.322,0.036-0.681-0.063-0.976,0.081
				c-0.947,1.134-1.815,2.333-2.785,3.447c-0.009-1.184-0.002-2.37,0.041-3.553C342.565,271.86,342.103,271.858,341.641,271.854z
				 M338.586,272c0.151,1.687,0.277,3.374,0.419,5.06c0.057,0.652,0.052,1.382-0.388,1.914c-0.651,0.8-1.842,0.949-2.782,0.669
				c-0.773-0.25-1.197-1.058-1.233-1.831c-0.149-1.811-0.307-3.619-0.424-5.432c-0.46,0.034-0.922,0.067-1.382,0.102
				c0.176,1.826,0.289,3.657,0.46,5.483c0.06,1.069,0.789,2.1,1.842,2.379c1.064,0.25,2.216,0.126,3.211-0.327
				c0.931-0.436,1.422-1.509,1.335-2.505c-0.115-1.847-0.314-3.689-0.424-5.536C339.061,271.984,338.744,271.996,338.586,272z
				 M330.874,272.652c-0.438,1.332-0.818,2.679-1.245,4.014c-0.85-1.08-1.646-2.203-2.426-3.335
				c-0.451,0.102-0.958,0.063-1.369,0.291c0.785,1.47,2.011,2.681,2.85,4.122c0.277,1.145,0.399,2.325,0.636,3.479
				c0.444-0.09,0.891-0.176,1.337-0.259c-0.189-1.162-0.449-2.314-0.58-3.482c0.381-1.655,0.992-3.249,1.416-4.896
				C331.339,272.602,331.027,272.636,330.874,272.652z M349.628,272.649c-1.035,0.447-1.592,1.806-1.049,2.823
				c0.591,1.082,1.867,1.461,2.674,2.331c0.618,0.735,0.115,2.002-0.825,2.149c-0.979,0.209-1.833-0.424-2.462-1.094
				c-0.133,0.305-0.271,0.611-0.401,0.915c1.031,0.744,2.372,1.182,3.63,0.811c1.31-0.401,2.056-2.045,1.436-3.281
				c-0.6-1.121-1.957-1.47-2.744-2.413c-0.478-0.649-0.009-1.668,0.778-1.781c0.843-0.178,1.551,0.413,2.219,0.825
				c0.022-0.297,0.455-0.778,0.011-0.952C351.917,272.454,350.685,272.201,349.628,272.649z M321.884,272.879
				c-0.424,0.093-0.834,0.56-0.514,0.979c0.46,0.444,1.538,0.061,1.42-0.643C322.678,272.828,322.211,272.765,321.884,272.879z
				 M353.702,281.087c1.364,0.289,2.715,0.647,4.083,0.913c0.029-0.16,0.086-0.482,0.113-0.643c-0.911-0.176-1.81-0.397-2.715-0.595
				c0.216-1.042,0.48-2.075,0.695-3.116c0.902,0.153,1.776,0.428,2.681,0.573c0.063-0.131,0.192-0.392,0.257-0.521
				c-0.931-0.201-1.86-0.415-2.787-0.631c0.221-1.003,0.46-2.004,0.688-3.006c0.914,0.194,1.827,0.397,2.726,0.649
				c0.029-0.155,0.088-0.469,0.12-0.625c-1.339-0.275-2.656-0.652-4-0.893C354.879,275.807,354.347,278.462,353.702,281.087z
				 M319.146,273.782c-0.219,0.119-0.347,0.306-0.388,0.559c0.133,0.843,1.561,0.53,1.567-0.228
				C320.27,273.531,319.535,273.531,319.146,273.782z M323.456,274.275c0.55,1.738,1.132,3.47,1.655,5.215
				c0.275,0.796,0.066,1.772-0.649,2.264c-0.769,0.534-1.874,0.825-2.719,0.3c-0.573-0.358-0.808-1.024-0.995-1.637
				c-0.485-1.601-1.035-3.182-1.497-4.789c-0.435,0.128-0.873,0.257-1.31,0.383c0.539,1.754,1.105,3.499,1.664,5.247
				c0.309,1.055,1.29,1.923,2.419,1.912c1.078-0.022,2.158-0.401,3.003-1.074c0.782-0.643,0.999-1.774,0.697-2.712
				c-0.537-1.772-1.139-3.524-1.667-5.299C323.907,274.133,323.607,274.228,323.456,274.275z M361.998,274.72
				c-0.873,2.557-1.885,5.066-2.78,7.617c0.413,0.151,0.823,0.304,1.234,0.467c0.498-1.211,0.911-2.453,1.387-3.671
				c1.114,0.419,2.234,0.823,3.346,1.249c-0.444,1.225-0.886,2.451-1.367,3.662c0.438,0.153,0.879,0.307,1.328,0.442
				c0.884-2.539,1.827-5.062,2.803-7.569c-0.428-0.174-0.856-0.341-1.285-0.508c-0.411,1.126-0.841,2.244-1.236,3.374
				c-1.147-0.329-2.243-0.814-3.373-1.195c0.379-1.163,0.868-2.284,1.229-3.452C362.854,274.995,362.426,274.855,361.998,274.72z
				 M370.604,276.672c-0.507,0.704,0.97,1.49,1.348,0.746C372.284,276.733,371.038,276.104,370.604,276.672z M311.011,278.981
				c1.148,2.444,2.266,4.904,3.36,7.375c1.075-0.51,2.226-0.893,3.22-1.558c1.197-0.854,1.006-2.83-0.21-3.574
				c-0.485-0.304-1.076-0.219-1.615-0.196c0.309-0.311,0.672-0.615,0.794-1.06c0.325-1.19-0.74-2.636-2.032-2.413
				C313.27,277.773,312.179,278.508,311.011,278.981z M370.104,277.928c-1.071,2.492-2.255,4.931-3.349,7.414
				c0.419,0.171,0.839,0.349,1.256,0.525c1.096-2.474,2.242-4.927,3.36-7.389C370.947,278.296,370.526,278.113,370.104,277.928z
				 M373.712,279.655c-1.265,2.388-2.629,4.722-3.951,7.08c0.41,0.225,0.823,0.449,1.242,0.661c0.571-1.06,1.078-2.174,1.799-3.139
				c0.188,1.481,0.377,2.965,0.483,4.453c0.471,0.275,0.952,0.539,1.439,0.785c-0.23-1.562-0.431-3.127-0.652-4.692
				c0.702,0.14,1.479,0.388,2.153,0.009c1.112-0.618,1.41-2.289,0.532-3.227C375.924,280.697,374.742,280.267,373.712,279.655z
				 M349.38,281.126c-0.257,0.604-0.514,1.206-0.706,1.835c0.956,0.003,1.173-1.125,1.668-1.741
				C350.02,281.187,349.7,281.155,349.38,281.126z M302.86,284.039c0.613,2.775,1.339,5.531,1.959,8.307
				c0.146-0.09,0.44-0.271,0.586-0.361c-0.25-0.855-0.44-1.725-0.659-2.587c0.839-0.579,1.696-1.132,2.559-1.671
				c0.694,0.553,1.407,1.083,2.092,1.646c0.424-0.266,0.846-0.535,1.272-0.798c-2.325-1.714-4.629-3.457-6.932-5.202
				C303.446,283.59,303.077,283.734,302.86,284.039z M337.46,284.215c-8.358,0.618-16.571,3.089-23.881,7.189
				c-8.873,4.954-16.399,12.284-21.592,21.02c-4.684,7.845-7.455,16.817-8.016,25.938c-0.573,8.911,0.922,17.955,4.397,26.188
				c3.592,8.561,9.288,16.226,16.431,22.156c5.597,4.659,12.075,8.251,18.995,10.517c9.403,3.091,19.599,3.691,29.309,1.788
				c8.613-1.68,16.823-5.371,23.809-10.684c5.498-4.167,10.249-9.319,13.949-15.141c4.406-6.909,7.314-14.765,8.46-22.88
				c1.301-9.144,0.413-18.6-2.633-27.324c-2.469-7.098-6.345-13.7-11.326-19.329c-5.958-6.747-13.5-12.088-21.857-15.437
				C355.285,284.894,346.295,283.545,337.46,284.215z M383.184,285.403c-1.657,2.142-3.321,4.278-5.017,6.388
				c0.979,0.715,1.847,1.601,2.927,2.165c1.301,0.627,2.887-0.439,3.02-1.82c0.052-0.559-0.269-1.05-0.517-1.524
				c0.424,0.106,0.861,0.284,1.308,0.176c1.19-0.302,1.937-1.894,1.148-2.929C385.272,286.857,384.131,286.229,383.184,285.403z
				 M297.32,287.922c-0.35,0.284-0.704,0.568-1.058,0.848c1.648,2.149,3.31,4.289,4.956,6.44c1.067-0.828,2.129-1.665,3.213-2.469
				c-0.131-0.189-0.259-0.379-0.39-0.568c-0.706,0.571-1.43,1.123-2.147,1.682C300.352,291.89,298.835,289.906,297.32,287.922z
				 M291.46,290.129c0.085,0.55,0.207,1.22-0.3,1.617c-0.359,0.411-0.92,0.278-1.385,0.201c-0.115,0.122-0.345,0.365-0.46,0.487
				c0.731,0.444,1.739,0.469,2.332-0.221c0.735-0.638,0.76-1.705,0.35-2.535C291.818,289.829,291.638,289.978,291.46,290.129z
				 M388.873,290.068c-1.794,2.002-3.743,3.865-5.529,5.871c0.954,0.99,1.984,1.908,2.968,2.873
				c0.146-0.169,0.297-0.338,0.446-0.507c-0.701-0.602-1.362-1.251-2.023-1.894c0.744-0.742,1.409-1.567,2.205-2.257
				c0.749,0.521,1.285,1.285,2.018,1.826c0.113-0.09,0.336-0.271,0.446-0.361c-0.683-0.624-1.389-1.231-2.014-1.919
				c0.611-0.798,1.355-1.493,2.066-2.203c0.769,0.516,1.355,1.265,2.04,1.885c0.137-0.158,0.277-0.314,0.419-0.471
				C390.882,291.985,389.938,290.961,388.873,290.068z M291.049,294.874c-0.178,1.691,0.965,3.197,2.318,4.074
				c1.071,0.722,2.548,0.913,3.691,0.248c1.231-0.724,2.093-1.948,2.631-3.249c-0.924-0.974-1.953-1.852-2.895-2.81
				c-0.309,0.327-0.62,0.651-0.934,0.974c0.891,0.825,1.766,1.664,2.629,2.516c-0.37,0.929-1.139,1.809-2.203,1.874
				c-1.484,0.074-2.692-1.04-3.542-2.138c-0.719-0.893-0.904-2.257-0.201-3.213c0.53-0.825,1.484-1.161,2.338-1.535
				c-0.232-0.203-0.462-0.406-0.69-0.609C292.67,291.757,291.231,293.099,291.049,294.874z M387.396,299.812
				c0.809,1.096,1.741,2.099,2.62,3.141c0.119-0.115,0.358-0.347,0.478-0.462c-0.607-0.677-1.202-1.364-1.75-2.088
				c1.917-1.549,3.743-3.209,5.673-4.74c-0.271-0.361-0.548-0.717-0.819-1.076C391.498,296.287,389.451,298.055,387.396,299.812z
				 M287.75,297.482c1.423,1.071,2.81,2.187,4.21,3.288c0.667,0.491,1.141,1.346,0.879,2.185c-0.286,0.884-0.983,1.754-1.944,1.91
				c-0.701,0.106-1.328-0.302-1.844-0.722c-1.335-1.071-2.701-2.102-4.018-3.191c-0.289,0.368-0.577,0.735-0.864,1.103
				c1.498,1.121,2.934,2.32,4.424,3.448c0.834,0.643,2.07,0.757,2.96,0.16c0.852-0.584,1.483-1.468,1.849-2.426
				c0.376-1.003-0.065-2.153-0.886-2.793c-1.441-1.17-2.931-2.277-4.363-3.457C288.019,297.151,287.886,297.317,287.75,297.482z
				 M390.736,303.674c0.647,1.184,1.477,2.28,2.284,3.364c0.151-0.056,0.453-0.171,0.604-0.228c-0.553-0.778-1.089-1.567-1.646-2.34
				c0.857-0.643,1.75-1.236,2.634-1.842c0.55,0.775,1.087,1.56,1.621,2.347c0.1-0.104,0.3-0.309,0.399-0.413
				c-0.487-0.776-1.053-1.497-1.549-2.269c0.846-0.588,1.696-1.177,2.546-1.761c0.527,0.764,1.073,1.52,1.56,2.314
				c0.133-0.083,0.395-0.249,0.528-0.33c-0.785-1.152-1.576-2.297-2.376-3.434C395.148,300.626,392.918,302.118,390.736,303.674z
				 M393.978,308.249c0.722,1.164,1.209,2.51,2.199,3.484c2.257,2.034,6.372,0.297,6.729-2.641c0.201-1.817-1.083-3.272-1.831-4.803
				C398.691,305.577,396.371,306.978,393.978,308.249z M281.689,306.159c1.54,1.721,3.098,3.425,4.586,5.191
				c-2.261-0.383-4.521-0.789-6.767-1.258c-0.198,0.327-0.404,0.652-0.557,1.005c2.097,1.734,4.298,3.349,6.388,5.096
				c0.12-0.196,0.239-0.392,0.358-0.586c-1.639-1.235-3.27-2.494-4.825-3.833c2.129,0.322,4.241,0.751,6.363,1.118
				c0.162-0.304,0.327-0.606,0.491-0.909c-1.526-1.61-2.952-3.314-4.449-4.952c2.021,0.681,3.976,1.536,5.973,2.278
				c0.209-0.397,0.424-0.792,0.636-1.186c-2.539-0.983-5.087-1.948-7.619-2.954C282.077,305.498,281.883,305.827,281.689,306.159z
				 M406.154,311.372c-0.579,0.57,0.309,1.912,0.995,1.213C407.471,312.003,406.842,310.968,406.154,311.372z M397.825,315.289
				c0.178,0.404,0.358,0.808,0.534,1.213c2.501-1.042,4.934-2.248,7.409-3.353c-0.187-0.415-0.374-0.832-0.561-1.245
				C402.756,313.052,400.296,314.184,397.825,315.289z M402.939,317.828c-1.046,0.604-2.228,0.961-3.337,1.437
				c0.172,0.424,0.345,0.85,0.512,1.281c1.098-0.436,2.163-0.961,3.283-1.333c1.696,0,3.389,0.235,5.085,0.318
				c-0.057-0.16-0.169-0.483-0.225-0.643c-1.389-0.068-2.772-0.201-4.158-0.289c0.873-1.051,1.779-2.077,2.717-3.071
				c-0.171-0.48-0.356-0.956-0.539-1.432C405.12,315.298,404.098,316.628,402.939,317.828z M282.618,320.202
				c-0.444,0.331-0.525,1.121-0.007,1.423c0.638,0.318,1.256-0.469,1.049-1.064C283.556,320.116,282.975,319.927,282.618,320.202z
				 M275.371,320.59c-0.934,1.364-1.495,3.2-0.821,4.792c0.665,1.52,2.375,2.201,3.928,2.363c1.192,0.149,2.491-0.282,3.211-1.279
				c0.742-1.042,1.125-2.383,0.897-3.652c-0.254-0.235-0.633-0.232-0.944-0.348c0.419,0.965,0.451,2.153-0.289,2.977
				c-1.044,1.19-2.859,1.051-4.196,0.487c-1.166-0.437-2.323-1.513-2.129-2.87c0.043-0.915,0.697-1.587,1.301-2.201
				C276.009,320.768,275.691,320.68,275.371,320.59z M401.022,323.451c0.397,1.31,0.719,2.645,1.193,3.93
				c0.158-0.006,0.473-0.022,0.631-0.029c-0.255-0.927-0.539-1.842-0.805-2.764c1.024-0.307,2.043-0.627,3.076-0.896
				c0.259,0.857,0.469,1.732,0.764,2.578c0.122-0.009,0.366-0.025,0.487-0.034c-0.05-0.922-0.519-1.81-0.71-2.726
				c0.985-0.291,1.966-0.591,2.956-0.863c0.257,0.874,0.532,1.747,0.744,2.636c0.146-0.018,0.44-0.052,0.589-0.07
				c-0.305-1.375-0.783-2.704-1.148-4.064C406.213,321.934,403.622,322.71,401.022,323.451z M407.214,327.981
				c-0.785,0.9-0.767,2.18-1.339,3.188c-0.528,0.805-1.888,0.688-2.298-0.171c-0.487-0.868-0.103-1.851,0.277-2.672
				c-0.32-0.027-0.641-0.052-0.958-0.077c-0.408,1.213-0.417,2.652,0.35,3.729c0.787,1.121,2.586,1.294,3.556,0.318
				c0.856-0.911,0.787-2.279,1.425-3.31c0.458-0.665,1.567-0.55,1.933,0.153c0.438,0.733,0.128,1.605-0.126,2.345
				c0.289,0.031,0.58,0.065,0.873,0.099c0.25-1.175,0.226-2.539-0.584-3.502C409.575,327.165,408.003,327.066,407.214,327.981z
				 M280.088,329.853c-0.564,0.275-0.636,1.261-0.022,1.522c0.555,0.252,1.062-0.356,0.99-0.884
				C281.062,330.011,280.532,329.629,280.088,329.853z M272.733,330.54c-0.244,1.939-0.537,3.872-0.793,5.811
				c0.176,0.018,0.527,0.057,0.701,0.075c0.086-0.74,0.187-1.477,0.273-2.217c2.464,0.289,4.92,0.656,7.375,1.01
				c0.059-0.457,0.117-0.915,0.176-1.373c-2.449-0.295-4.884-0.686-7.33-0.997c0.085-0.76,0.194-1.518,0.318-2.273
				C273.213,330.563,272.972,330.552,272.733,330.54z M412.466,333.226c-0.645,0.37-0.262,1.77,0.555,1.457
				C413.658,334.311,413.273,332.91,412.466,333.226z M403.388,334.527c0.061,0.447,0.099,0.902,0.221,1.342
				c2.649-0.345,5.301-0.711,7.946-1.096c0.059-0.447-0.059-0.897-0.092-1.342C408.77,333.792,406.082,334.189,403.388,334.527z"/>
		</g>
		<path style="fill:#303A83;" d="M312.52,278.925c0.656-0.23,1.394-0.758,2.095-0.379c0.568,0.408,0.879,1.173,0.771,1.86
			c-0.188,0.74-1.001,0.997-1.587,1.337C313.338,280.819,312.908,279.881,312.52,278.925z"/>
		<path style="fill:#303A83;" d="M374.625,280.844c0.449,0.257,0.978,0.471,1.235,0.952c0.501,0.967-0.214,2.336-1.303,2.451
			c-0.573,0.077-1.06-0.279-1.538-0.534C373.565,282.763,374.106,281.809,374.625,280.844z"/>
		<path style="fill:#303A83;" d="M314.003,282.226c0.656-0.253,1.382-0.704,2.092-0.379c0.704,0.35,1.098,1.2,1.051,1.961
			c-0.16,0.859-1.118,1.109-1.815,1.392C314.905,284.199,314.434,283.223,314.003,282.226z"/>
		<path style="fill:#303A83;" d="M303.714,285.065c1.044,0.699,2,1.52,3.024,2.25c-0.674,0.535-1.412,0.985-2.149,1.428
			C304.312,287.514,303.967,286.3,303.714,285.065z"/>
		<path style="fill:#303A83;" d="M341.673,286.463c0.392,0.814,0.715,1.659,1.06,2.494c0.983-0.034,1.966-0.074,2.947-0.12
			c-0.72,0.607-1.552,1.076-2.244,1.714c0.266,0.841,0.686,1.626,0.974,2.46c-0.83-0.428-1.617-0.931-2.401-1.436
			c-0.778,0.53-1.511,1.121-2.298,1.637c0.219-0.861,0.481-1.709,0.733-2.559c-0.812-0.505-1.658-0.958-2.429-1.524
			c0.97-0.025,1.941-0.052,2.911-0.11C341.161,288.161,341.399,287.309,341.673,286.463z"/>
		<path style="fill:#303A83;" d="M383.874,286.735c0.537,0.426,1.276,0.816,1.353,1.576c-0.038,0.71-0.573,1.362-1.222,1.622
			c-0.78,0.246-1.434-0.383-1.993-0.83C382.65,288.328,383.27,287.539,383.874,286.735z"/>
		<path style="fill:#303A83;" d="M381.628,289.593c0.647,0.421,1.441,0.994,1.339,1.874c-0.131,0.747-0.69,1.479-1.443,1.66
			c-0.738,0.056-1.324-0.512-1.824-0.974C380.264,291.243,381.015,290.47,381.628,289.593z"/>
		<path style="fill:#303A83;" d="M315.606,292.977c0.74,0.496,1.331,1.207,2.108,1.637c0.859-0.4,1.633-0.963,2.494-1.364
			c-0.388,0.843-0.818,1.666-1.213,2.507c0.699,0.593,1.412,1.172,2.115,1.763c-0.967-0.057-1.934-0.117-2.902-0.178
			c-0.413,0.843-0.796,1.702-1.27,2.514c-0.185-0.85-0.286-1.718-0.527-2.552c-0.904-0.248-1.887-0.131-2.819-0.255
			c0.803-0.543,1.666-0.985,2.501-1.477C315.911,294.711,315.717,293.852,315.606,292.977z"/>
		<path style="fill:#303A83;" d="M368.846,293.322c-0.05,0.909-0.155,1.815-0.275,2.717c0.861,0.467,1.752,0.882,2.622,1.337
			c-0.913,0.16-1.837,0.226-2.749,0.397c-0.221,0.886-0.208,1.815-0.327,2.719c-0.514-0.818-0.98-1.666-1.468-2.503
			c-0.913,0.112-1.822,0.25-2.733,0.367c0.517-0.71,1.233-1.236,1.793-1.908c-0.367-0.875-0.961-1.632-1.355-2.494
			c0.868,0.413,1.72,0.857,2.58,1.292C367.583,294.616,368.221,293.976,368.846,293.322z"/>
		<path style="fill:#303A83;" d="M395.264,309.106c1.961-1.098,3.912-2.216,5.878-3.306c0.456,0.773,0.965,1.63,0.798,2.57
			c-0.151,1.177-1.116,2.045-2.137,2.528c-0.902,0.424-2.001,0.69-2.94,0.234C396.046,310.736,395.688,309.85,395.264,309.106z"/>
		<path style="fill:#303A83;" d="M298.102,311.34c0.527-0.792,0.992-1.625,1.574-2.378c0.072,0.908,0.079,1.822,0.095,2.732
			c0.891,0.192,1.79,0.354,2.661,0.623c-0.884,0.377-1.775,0.74-2.629,1.184c0.057,0.934,0.082,1.867,0.079,2.803
			c-0.611-0.657-1.048-1.545-1.777-2.048c-0.866,0.295-1.668,0.746-2.517,1.085c0.467-0.848,1.02-1.647,1.538-2.462
			c-0.56-0.695-1.139-1.374-1.662-2.095C296.348,310.948,297.225,311.145,298.102,311.34z"/>
		<path style="fill:#303A83;" d="M384.424,310.003c0.688,0.674,1.053,1.673,1.813,2.25c0.839-0.212,1.644-0.537,2.487-0.737
			c-0.507,0.757-1.021,1.508-1.522,2.271c0.553,0.769,1.144,1.513,1.633,2.327c-0.866-0.239-1.68-0.633-2.539-0.881
			c-0.602,0.683-1.015,1.504-1.558,2.232c-0.07-0.958-0.097-1.917-0.135-2.875c-0.879-0.32-1.759-0.638-2.641-0.947
			c0.812-0.395,1.804-0.451,2.544-0.942C384.521,311.798,384.413,310.903,384.424,310.003z"/>
		<path style="fill:#303A83;" d="M329.69,310.935c4.081,3.786,8.065,7.678,12.163,11.443c0.636-0.403,1.112-1.006,1.675-1.499
			c3.518-3.292,6.968-6.656,10.523-9.901c0.045,6.054,0.002,12.108,0.022,18.163c-1.425,1.362-2.805,2.769-4.277,4.079
			c-0.004-3.786,0.036-7.572-0.021-11.355c-2.658,2.456-5.258,4.972-7.901,7.445c-2.645-2.478-5.247-5.001-7.915-7.457
			c-0.027,3.797,0.009,7.592-0.018,11.389c-1.414-1.369-2.881-2.69-4.23-4.12C329.65,323.061,329.697,316.998,329.69,310.935z"/>
		<path style="fill:#303A83;" d="M310.727,329.873c6.061,0.025,12.125-0.032,18.183,0.025c1.436,1.339,2.762,2.807,4.115,4.232
			c-3.779,0.045-7.561-0.005-11.342,0.024c2.421,2.679,4.945,5.265,7.425,7.89c-2.433,2.677-4.985,5.245-7.423,7.919
			c3.773,0.083,7.549-0.007,11.322,0.045c-1.283,1.466-2.706,2.805-4.023,4.244c-6.072,0.02-12.145,0.018-18.217,0
			c3.782-4.088,7.633-8.118,11.473-12.151C318.443,337.986,314.54,333.97,310.727,329.873z"/>
		<path style="fill:#303A83;" d="M354.782,329.884c6.072-0.022,12.145,0.007,18.217-0.016c-3.781,4.108-7.662,8.128-11.491,12.192
			c3.811,4.079,7.698,8.088,11.482,12.194c-5.948,0.022-11.899,0.002-17.847,0.009c-0.401,0.061-0.631-0.329-0.891-0.555
			c-1.152-1.245-2.386-2.411-3.502-3.691c3.786-0.045,7.574-0.023,11.36-0.012c-2.46-2.656-4.954-5.283-7.461-7.896
			c2.433-2.708,4.999-5.29,7.47-7.961c-3.79-0.014-7.581,0.022-11.369-0.018C352.036,332.662,353.454,331.314,354.782,329.884z"/>
		<path style="fill:#303A83;" d="M288.736,332.27c0.509,0.794,0.936,1.637,1.407,2.456c0.902-0.28,1.845-0.449,2.706-0.85
			c-0.546,0.854-1.283,1.574-1.858,2.413c0.465,0.792,0.929,1.587,1.328,2.417c-0.834-0.318-1.637-0.708-2.471-1.028
			c-0.573,0.767-1.161,1.524-1.786,2.25c0.102-0.974,0.185-1.95,0.271-2.927c-0.816-0.363-1.643-0.697-2.449-1.082
			c0.868-0.278,1.752-0.494,2.623-0.762C288.571,334.193,288.657,333.233,288.736,332.27z"/>
		<path style="fill:#303A83;" d="M394.758,333.512c0.289,0.891,0.329,1.838,0.454,2.76c0.816,0.198,1.652,0.286,2.471,0.473
			c0.009,0.039,0.029,0.113,0.041,0.149c-0.71,0.462-1.533,0.733-2.199,1.261c0.086,0.969,0.287,1.925,0.393,2.893
			c-0.665-0.681-1.211-1.488-1.962-2.074c-0.796,0.372-1.529,0.857-2.32,1.235c0.35-0.893,0.814-1.736,1.173-2.626
			c-0.641-0.661-1.286-1.319-1.838-2.057c0.864,0.146,1.725,0.314,2.586,0.482C393.983,335.188,394.341,334.335,394.758,333.512z"/>
		<path style="fill:#303A83;" d="M329.708,355.06c1.306-1.47,2.825-2.776,4.237-4.16c0.052,3.799-0.072,7.603,0.063,11.4
			c2.591-2.521,5.247-4.972,7.86-7.468c2.656,2.46,5.243,4.999,7.917,7.443c0.038-3.779,0.004-7.559,0.018-11.337
			c1.215,1.03,2.302,2.205,3.477,3.283c0.349,0.368,0.906,0.701,0.793,1.294c-0.018,5.885,0.021,11.772-0.021,17.658
			c-4.106-3.772-8.106-7.66-12.181-11.466c-4.07,3.82-8.085,7.698-12.185,11.484C329.697,367.148,329.654,361.103,329.708,355.06z"
			/>
		<path style="fill:#303A83;" d="M292.262,359.59c0.665-0.62,1.319-1.254,1.998-1.863c-0.155,0.94-0.343,1.874-0.537,2.807
			c0.776,0.548,1.592,1.035,2.361,1.595c-0.895,0.067-1.79,0.126-2.686,0.189c-0.183,0.927-0.343,1.856-0.539,2.78
			c-0.442-0.821-0.699-1.723-1.125-2.548c-0.845-0.205-1.79,0.11-2.674,0.077c0.616-0.663,1.301-1.256,1.955-1.88
			c-0.388-0.904-0.755-1.817-1.161-2.713C290.67,358.527,291.457,359.071,292.262,359.59z"/>
		<path style="fill:#303A83;" d="M388.736,359.101c0.701,0.543,1.398,1.091,2.088,1.648c0.778-0.521,1.49-1.134,2.264-1.662
			c-0.234,0.927-0.597,1.813-0.898,2.722c0.697,0.525,1.409,1.035,2.054,1.628c-0.886,0.063-1.776,0.067-2.665,0.077
			c-0.322,0.931-0.668,1.855-0.942,2.803c-0.295-0.907-0.525-1.831-0.747-2.755c-0.915,0-1.831,0.027-2.746,0.029
			c0.749-0.604,1.531-1.164,2.289-1.759C389.182,360.924,388.927,360.021,388.736,359.101z"/>
		<path style="fill:#303A83;" d="M305.633,380.665c0.343-0.852,0.598-1.734,0.958-2.575c0.286,0.913,0.541,1.837,0.843,2.746
			c0.904,0.075,1.811,0.153,2.712,0.266c-0.69,0.55-1.468,0.967-2.212,1.439c0.269,0.907,0.582,1.804,0.78,2.733
			c-0.771-0.57-1.418-1.326-2.257-1.793c-0.775,0.399-1.475,0.929-2.243,1.346c0.268-0.875,0.606-1.727,0.873-2.602
			c-0.765-0.6-1.513-1.222-2.248-1.858C303.773,380.451,304.705,380.544,305.633,380.665z"/>
		<path style="fill:#303A83;" d="M375.815,378.975c0.419,0.789,0.78,1.607,1.123,2.435c0.952-0.108,1.887-0.318,2.841-0.426
			c-0.638,0.724-1.52,1.251-2.052,2.047c0.295,0.814,0.735,1.564,1.037,2.378c-0.82-0.378-1.619-0.796-2.426-1.197
			c-0.706,0.647-1.38,1.331-2.126,1.933c0.172-0.904,0.393-1.797,0.598-2.695c-0.81-0.406-1.633-0.787-2.413-1.244
			c0.918-0.165,1.84-0.318,2.765-0.444C375.432,380.846,375.622,379.908,375.815,378.975z"/>
		<path style="fill:#303A83;" d="M326.935,390.445c0.706,0.634,1.334,1.339,2.011,2.003c0.854-0.358,1.711-0.71,2.575-1.046
			c-0.37,0.78-0.875,1.486-1.274,2.25c0.467,0.807,1.331,1.349,1.89,2.113c-0.954-0.169-1.89-0.42-2.845-0.57
			c-0.426,0.785-0.877,1.553-1.358,2.304c-0.135-0.897-0.261-1.799-0.381-2.699c-0.952-0.224-1.908-0.415-2.861-0.625
			c0.843-0.395,1.716-0.728,2.591-1.046C327.181,392.231,327.025,391.342,326.935,390.445z"/>
		<path style="fill:#303A83;" d="M353.332,392.722c0.728-0.575,1.19-1.422,1.885-2.042c-0.02,0.886-0.085,1.772-0.117,2.658
			c0.877,0.273,1.757,0.546,2.629,0.839c-0.875,0.392-1.824,0.555-2.733,0.836c-0.04,0.897-0.088,1.797-0.138,2.697
			c-0.566-0.73-1.082-1.495-1.644-2.226c-0.911,0.273-1.827,0.539-2.753,0.749c0.521-0.762,1.258-1.364,1.73-2.155
			c-0.464-0.749-1.053-1.414-1.508-2.167C351.578,392.143,352.431,392.513,353.332,392.722z"/>
		<path style="fill:#303A83;" d="M336.583,393.076c0.548-0.76,2.115-0.509,2.14,0.532c-0.077,1.02-0.881,1.759-1.533,2.467
			c0.528,0.135,1.61-0.374,1.635,0.453c-0.764,0.009-1.526,0.012-2.291-0.006c0.435-1.069,1.79-1.795,1.518-3.11
			C337.837,392.77,337.066,393.126,336.583,393.076z"/>
		<g>
			<path style="fill:#303A83;" d="M340.085,392.77c0.568-0.268,1.407-0.11,1.644,0.535c0.259,0.803,0.25,1.7,0.043,2.514
				c-0.208,0.87-1.522,1.053-2.018,0.354c-0.368-0.548-0.323-1.245-0.318-1.874C339.454,393.746,339.548,393.067,340.085,392.77z
				 M340.536,392.982c-0.792,0.557-0.401,1.806-0.428,2.654c-0.061,0.539,0.71,0.924,1.008,0.41
				c0.277-0.764,0.178-1.619,0.124-2.417C341.237,393.281,340.924,392.822,340.536,392.982z"/>
		</g>
		<path style="fill:#303A83;" d="M342.365,393.496c0.212-0.609,0.922-0.609,1.43-0.8c-0.011,1.27-0.022,2.539,0.009,3.809
			c-0.162,0.011-0.487,0.036-0.649,0.049c0-1.105-0.007-2.207,0.004-3.31C342.895,393.331,342.628,393.415,342.365,393.496z"/>
		<g>
			<path style="fill:#303A83;" d="M345.961,392.961c0.122-0.343,0.489-0.223,0.769-0.248c-0.009,0.749-0.072,1.501,0.024,2.248
				c0.126,0.054,0.379,0.162,0.505,0.216c-0.185,0.151-0.375,0.298-0.562,0.449c0.011,0.293,0.025,0.586,0.038,0.882
				c-0.16,0.009-0.482,0.029-0.645,0.04c-0.002-0.363-0.004-0.722-0.004-1.08c-0.502,0.003-1.003,0.003-1.504,0
				C344.83,394.533,345.47,393.775,345.961,392.961z M345.019,395.054c0.354,0,0.708,0.003,1.064,0.007
				c0.018-0.577,0.022-1.154,0.007-1.727C345.686,393.877,345.339,394.458,345.019,395.054z"/>
		</g>
	</g>
	<g>
		<path style="fill:#FEFEFE;" d="M336.989,270.395c0.383-0.151,1.006-0.167,1.161,0.312c0.212,0.87-1.434,1.071-1.549,0.234
			C336.624,270.677,336.755,270.496,336.989,270.395z"/>
		<path style="fill:#FEFEFE;" d="M334.446,270.586c0.374-0.14,1.024-0.117,1.114,0.372c0.156,0.848-1.457,1.015-1.544,0.187
			C334.001,270.875,334.205,270.672,334.446,270.586z"/>
		<path style="fill:#FEFEFE;" d="M341.641,271.854c0.462,0.005,0.924,0.007,1.389,0.009c-0.043,1.184-0.05,2.37-0.041,3.553
			c0.97-1.114,1.838-2.313,2.785-3.447c0.295-0.145,0.654-0.045,0.976-0.081c-0.947,1.154-1.896,2.307-2.789,3.502
			c1.15,1.524,2.248,3.084,3.362,4.636c-0.546,0.004-1.089,0.002-1.632-0.007c-0.861-1.297-1.77-2.562-2.708-3.804
			c-0.036,1.258-0.045,2.519-0.031,3.777c-0.465-0.002-0.924-0.007-1.387-0.011C341.616,277.272,341.643,274.564,341.641,271.854z"
			/>
		<path style="fill:#FEFEFE;" d="M338.586,272c0.158-0.004,0.476-0.016,0.633-0.022c0.111,1.847,0.309,3.689,0.424,5.536
			c0.087,0.997-0.404,2.07-1.335,2.505c-0.995,0.453-2.147,0.577-3.211,0.327c-1.053-0.279-1.782-1.31-1.842-2.379
			c-0.171-1.826-0.284-3.657-0.46-5.483c0.46-0.034,0.922-0.068,1.382-0.102c0.118,1.813,0.275,3.621,0.424,5.432
			c0.036,0.773,0.46,1.581,1.233,1.831c0.94,0.28,2.131,0.131,2.782-0.669c0.44-0.532,0.444-1.263,0.388-1.914
			C338.863,275.374,338.737,273.687,338.586,272z"/>
		<path style="fill:#FEFEFE;" d="M330.874,272.652c0.153-0.016,0.465-0.05,0.62-0.066c-0.424,1.646-1.035,3.24-1.416,4.896
			c0.131,1.168,0.39,2.32,0.58,3.482c-0.446,0.083-0.893,0.169-1.337,0.259c-0.236-1.155-0.358-2.334-0.636-3.479
			c-0.839-1.441-2.066-2.651-2.85-4.122c0.411-0.228,0.918-0.19,1.369-0.291c0.78,1.132,1.576,2.255,2.426,3.335
			C330.056,275.331,330.436,273.984,330.874,272.652z"/>
		<path style="fill:#FEFEFE;" d="M349.628,272.649c1.057-0.449,2.289-0.196,3.267,0.336c0.444,0.174,0.011,0.654-0.011,0.952
			c-0.668-0.413-1.375-1.003-2.219-0.825c-0.787,0.113-1.256,1.132-0.778,1.781c0.787,0.943,2.145,1.292,2.744,2.413
			c0.62,1.236-0.126,2.879-1.436,3.281c-1.258,0.37-2.6-0.067-3.63-0.811c0.131-0.304,0.269-0.611,0.401-0.915
			c0.629,0.67,1.484,1.303,2.462,1.094c0.94-0.147,1.443-1.414,0.825-2.149c-0.807-0.871-2.083-1.249-2.674-2.331
			C348.036,274.456,348.593,273.096,349.628,272.649z"/>
		<path style="fill:#FEFEFE;" d="M321.884,272.879c0.327-0.115,0.793-0.052,0.906,0.336c0.117,0.704-0.96,1.087-1.42,0.643
			C321.05,273.439,321.46,272.972,321.884,272.879z"/>
		<path style="fill:#FEFEFE;" d="M353.702,281.087c0.645-2.625,1.177-5.281,1.86-7.895c1.344,0.241,2.661,0.618,4,0.893
			c-0.032,0.156-0.09,0.469-0.12,0.625c-0.899-0.252-1.812-0.456-2.726-0.649c-0.228,1.001-0.467,2.003-0.688,3.006
			c0.927,0.216,1.855,0.431,2.787,0.631c-0.065,0.129-0.194,0.39-0.257,0.521c-0.904-0.145-1.779-0.419-2.681-0.573
			c-0.214,1.041-0.478,2.074-0.695,3.116c0.904,0.198,1.804,0.419,2.715,0.595c-0.027,0.16-0.083,0.482-0.113,0.643
			C356.417,281.734,355.066,281.376,353.702,281.087z"/>
		<path style="fill:#FEFEFE;" d="M319.146,273.782c0.388-0.25,1.123-0.25,1.18,0.331c-0.007,0.758-1.434,1.071-1.567,0.228
			C318.799,274.088,318.928,273.901,319.146,273.782z"/>
		<path style="fill:#FEFEFE;" d="M323.456,274.275c0.151-0.047,0.451-0.142,0.602-0.19c0.528,1.775,1.13,3.526,1.667,5.299
			c0.302,0.938,0.086,2.07-0.697,2.712c-0.846,0.672-1.926,1.051-3.003,1.074c-1.13,0.011-2.11-0.857-2.419-1.912
			c-0.559-1.748-1.125-3.493-1.664-5.247c0.438-0.126,0.875-0.255,1.31-0.383c0.462,1.607,1.012,3.188,1.497,4.789
			c0.187,0.613,0.422,1.279,0.995,1.637c0.845,0.525,1.95,0.234,2.719-0.3c0.715-0.492,0.924-1.468,0.649-2.264
			C324.588,277.746,324.006,276.014,323.456,274.275z"/>
		<path style="fill:#FEFEFE;" d="M361.998,274.72c0.429,0.135,0.857,0.275,1.286,0.415c-0.361,1.168-0.85,2.289-1.229,3.452
			c1.13,0.381,2.226,0.866,3.373,1.195c0.395-1.13,0.825-2.248,1.236-3.374c0.429,0.167,0.857,0.334,1.285,0.508
			c-0.976,2.507-1.919,5.03-2.803,7.569c-0.449-0.135-0.891-0.289-1.328-0.442c0.48-1.211,0.922-2.438,1.367-3.662
			c-1.112-0.426-2.232-0.829-3.346-1.249c-0.476,1.218-0.889,2.46-1.387,3.671c-0.411-0.163-0.821-0.316-1.234-0.467
			C360.113,279.786,361.125,277.276,361.998,274.72z"/>
		<path style="fill:#FEFEFE;" d="M370.604,276.672c0.433-0.568,1.68,0.06,1.348,0.746
			C371.574,278.163,370.097,277.376,370.604,276.672z"/>
		<g>
			<path style="fill:#FEFEFE;" d="M311.011,278.981c1.168-0.474,2.259-1.209,3.518-1.425c1.292-0.223,2.357,1.222,2.032,2.413
				c-0.122,0.444-0.485,0.749-0.794,1.06c0.539-0.022,1.13-0.108,1.615,0.196c1.215,0.744,1.407,2.72,0.21,3.574
				c-0.994,0.665-2.145,1.048-3.22,1.558C313.277,283.886,312.159,281.425,311.011,278.981z M312.52,278.925
				c0.388,0.956,0.819,1.894,1.279,2.818c0.586-0.34,1.4-0.597,1.587-1.337c0.108-0.688-0.203-1.452-0.771-1.86
				C313.913,278.167,313.176,278.695,312.52,278.925z M314.003,282.226c0.431,0.997,0.902,1.973,1.328,2.974
				c0.697-0.282,1.655-0.532,1.815-1.392c0.047-0.762-0.347-1.612-1.051-1.961C315.386,281.523,314.66,281.974,314.003,282.226z"/>
		</g>
		<path style="fill:#FEFEFE;" d="M370.104,277.928c0.422,0.185,0.843,0.368,1.267,0.55c-1.118,2.462-2.264,4.915-3.36,7.389
			c-0.417-0.176-0.836-0.354-1.256-0.525C367.849,282.859,369.033,280.42,370.104,277.928z"/>
		<g>
			<path style="fill:#FEFEFE;" d="M373.712,279.655c1.03,0.611,2.212,1.042,3.046,1.93c0.878,0.938,0.58,2.609-0.532,3.227
				c-0.674,0.379-1.452,0.131-2.153-0.009c0.221,1.565,0.422,3.13,0.652,4.692c-0.487-0.246-0.967-0.51-1.439-0.785
				c-0.106-1.488-0.295-2.972-0.483-4.453c-0.721,0.965-1.229,2.079-1.799,3.139c-0.419-0.212-0.832-0.436-1.242-0.661
				C371.082,284.377,372.447,282.044,373.712,279.655z M374.625,280.844c-0.519,0.965-1.06,1.919-1.605,2.868
				c0.478,0.255,0.965,0.611,1.538,0.534c1.089-0.115,1.804-1.483,1.303-2.451C375.603,281.315,375.074,281.101,374.625,280.844z"/>
		</g>
		<path style="fill:#FEFEFE;" d="M349.38,281.126c0.32,0.029,0.64,0.061,0.962,0.095c-0.496,0.616-0.712,1.743-1.668,1.741
			C348.866,282.332,349.123,281.73,349.38,281.126z"/>
		<g>
			<path style="fill:#FEFEFE;" d="M302.86,284.039c0.217-0.305,0.586-0.449,0.879-0.666c2.302,1.746,4.607,3.488,6.932,5.202
				c-0.426,0.264-0.848,0.532-1.272,0.798c-0.686-0.564-1.398-1.094-2.092-1.646c-0.864,0.539-1.721,1.092-2.559,1.671
				c0.219,0.861,0.408,1.732,0.659,2.587c-0.147,0.09-0.44,0.27-0.586,0.361C304.199,289.57,303.473,286.815,302.86,284.039z
				 M303.714,285.065c0.252,1.235,0.598,2.449,0.875,3.678c0.737-0.442,1.475-0.893,2.149-1.428
				C305.715,286.585,304.758,285.764,303.714,285.065z"/>
		</g>
		<g>
			<path style="fill:#FEFEFE;" d="M383.184,285.403c0.947,0.826,2.088,1.455,2.869,2.456c0.789,1.035,0.042,2.627-1.148,2.929
				c-0.447,0.108-0.884-0.07-1.308-0.176c0.248,0.474,0.568,0.965,0.517,1.524c-0.133,1.38-1.718,2.447-3.02,1.82
				c-1.08-0.564-1.948-1.45-2.927-2.165C379.863,289.681,381.527,287.545,383.184,285.403z M383.874,286.735
				c-0.604,0.803-1.224,1.592-1.862,2.368c0.56,0.447,1.213,1.076,1.993,0.83c0.649-0.259,1.184-0.911,1.222-1.622
				C385.15,287.552,384.411,287.162,383.874,286.735z M381.628,289.593c-0.613,0.877-1.364,1.65-1.928,2.559
				c0.501,0.462,1.086,1.03,1.824,0.974c0.753-0.181,1.312-0.913,1.443-1.66C383.069,290.587,382.275,290.014,381.628,289.593z"/>
		</g>
		<path style="fill:#FEFEFE;" d="M297.32,287.922c1.515,1.984,3.033,3.968,4.575,5.932c0.717-0.559,1.441-1.111,2.147-1.682
			c0.131,0.189,0.259,0.379,0.39,0.568c-1.084,0.805-2.146,1.642-3.213,2.469c-1.646-2.151-3.308-4.291-4.956-6.44
			C296.616,288.49,296.97,288.206,297.32,287.922z"/>
		<path style="fill:#FEFEFE;" d="M291.46,290.129c0.178-0.151,0.358-0.3,0.537-0.451c0.41,0.83,0.386,1.896-0.35,2.535
			c-0.593,0.689-1.601,0.665-2.332,0.221c0.115-0.122,0.345-0.365,0.46-0.487c0.465,0.077,1.026,0.209,1.385-0.201
			C291.667,291.349,291.545,290.679,291.46,290.129z"/>
		<path style="fill:#FEFEFE;" d="M388.873,290.068c1.065,0.892,2.009,1.917,3.044,2.843c-0.142,0.158-0.282,0.313-0.419,0.471
			c-0.685-0.62-1.272-1.369-2.04-1.885c-0.71,0.71-1.455,1.404-2.066,2.203c0.625,0.688,1.331,1.294,2.014,1.919
			c-0.11,0.09-0.334,0.271-0.446,0.361c-0.733-0.541-1.27-1.306-2.018-1.826c-0.796,0.69-1.461,1.515-2.205,2.257
			c0.661,0.643,1.321,1.292,2.023,1.894c-0.149,0.169-0.3,0.338-0.446,0.507c-0.983-0.965-2.014-1.883-2.968-2.873
			C385.13,293.933,387.079,292.07,388.873,290.068z"/>
		<path style="fill:#FEFEFE;" d="M291.049,294.874c0.182-1.775,1.621-3.117,3.143-3.867c0.228,0.203,0.458,0.406,0.69,0.609
			c-0.854,0.374-1.809,0.71-2.338,1.535c-0.703,0.956-0.518,2.32,0.201,3.213c0.85,1.098,2.059,2.212,3.542,2.138
			c1.065-0.065,1.833-0.945,2.203-1.874c-0.864-0.852-1.739-1.691-2.629-2.516c0.314-0.323,0.625-0.647,0.934-0.974
			c0.942,0.958,1.971,1.836,2.895,2.81c-0.539,1.301-1.4,2.525-2.631,3.249c-1.143,0.665-2.62,0.474-3.691-0.248
			C292.014,298.071,290.871,296.565,291.049,294.874z"/>
		<path style="fill:#FEFEFE;" d="M387.396,299.812c2.054-1.757,4.102-3.524,6.203-5.225c0.271,0.358,0.548,0.715,0.819,1.076
			c-1.93,1.531-3.757,3.19-5.673,4.74c0.548,0.724,1.143,1.411,1.75,2.088c-0.12,0.115-0.359,0.347-0.478,0.462
			C389.137,301.911,388.206,300.907,387.396,299.812z"/>
		<path style="fill:#FEFEFE;" d="M287.75,297.482c0.136-0.165,0.269-0.332,0.404-0.496c1.432,1.179,2.922,2.286,4.363,3.457
			c0.821,0.64,1.263,1.79,0.886,2.793c-0.366,0.959-0.997,1.842-1.849,2.426c-0.891,0.598-2.126,0.483-2.96-0.16
			c-1.491-1.127-2.927-2.327-4.424-3.448c0.287-0.368,0.575-0.735,0.864-1.103c1.317,1.089,2.683,2.12,4.018,3.191
			c0.517,0.419,1.143,0.828,1.844,0.722c0.961-0.156,1.658-1.026,1.944-1.91c0.262-0.839-0.212-1.693-0.879-2.185
			C290.56,299.669,289.173,298.553,287.75,297.482z"/>
		<path style="fill:#FEFEFE;" d="M390.736,303.674c2.183-1.556,4.413-3.048,6.605-4.591c0.8,1.137,1.592,2.282,2.376,3.434
			c-0.133,0.081-0.395,0.246-0.528,0.33c-0.487-0.794-1.033-1.549-1.56-2.314c-0.85,0.584-1.7,1.172-2.546,1.761
			c0.496,0.771,1.062,1.493,1.549,2.269c-0.099,0.103-0.3,0.309-0.399,0.413c-0.534-0.787-1.071-1.572-1.621-2.347
			c-0.884,0.607-1.777,1.199-2.634,1.842c0.557,0.773,1.094,1.562,1.646,2.34c-0.151,0.056-0.454,0.171-0.604,0.228
			C392.213,305.954,391.383,304.858,390.736,303.674z"/>
		<g>
			<path style="fill:#FEFEFE;" d="M393.978,308.249c2.393-1.271,4.713-2.672,7.096-3.959c0.749,1.531,2.032,2.985,1.831,4.803
				c-0.357,2.938-4.472,4.674-6.729,2.641C395.187,310.759,394.7,309.413,393.978,308.249z M395.264,309.106
				c0.424,0.744,0.782,1.63,1.599,2.027c0.94,0.456,2.038,0.189,2.94-0.234c1.021-0.482,1.986-1.35,2.137-2.528
				c0.167-0.94-0.343-1.797-0.798-2.57C399.176,306.89,397.225,308.008,395.264,309.106z"/>
		</g>
		<path style="fill:#FEFEFE;" d="M281.689,306.159c0.194-0.332,0.388-0.661,0.579-0.99c2.532,1.006,5.08,1.971,7.619,2.954
			c-0.212,0.395-0.426,0.789-0.636,1.186c-1.998-0.742-3.953-1.597-5.973-2.278c1.497,1.637,2.922,3.342,4.449,4.952
			c-0.164,0.302-0.329,0.604-0.491,0.909c-2.122-0.367-4.235-0.796-6.363-1.118c1.556,1.339,3.186,2.598,4.825,3.833
			c-0.12,0.194-0.239,0.39-0.358,0.586c-2.09-1.748-4.291-3.362-6.388-5.096c0.153-0.354,0.359-0.678,0.557-1.005
			c2.246,0.469,4.505,0.875,6.767,1.258C284.787,309.584,283.229,307.879,281.689,306.159z"/>
		<path style="fill:#FEFEFE;" d="M406.154,311.372c0.688-0.404,1.317,0.631,0.995,1.213
			C406.463,313.284,405.575,311.942,406.154,311.372z"/>
		<path style="fill:#FEFEFE;" d="M397.825,315.289c2.471-1.104,4.931-2.237,7.382-3.384c0.187,0.413,0.374,0.83,0.561,1.245
			c-2.476,1.105-4.909,2.311-7.409,3.353C398.184,316.096,398.003,315.692,397.825,315.289z"/>
		<path style="fill:#FEFEFE;" d="M402.939,317.828c1.159-1.2,2.181-2.53,3.337-3.732c0.183,0.476,0.368,0.952,0.539,1.432
			c-0.938,0.994-1.844,2.02-2.717,3.071c1.386,0.088,2.769,0.221,4.158,0.289c0.056,0.16,0.169,0.482,0.225,0.643
			c-1.696-0.083-3.389-0.318-5.085-0.318c-1.12,0.372-2.185,0.897-3.283,1.333c-0.167-0.431-0.34-0.857-0.512-1.281
			C400.711,318.788,401.893,318.432,402.939,317.828z"/>
		<path style="fill:#FEFEFE;" d="M282.618,320.202c0.356-0.275,0.938-0.086,1.042,0.358c0.207,0.595-0.411,1.382-1.049,1.064
			C282.093,321.323,282.174,320.533,282.618,320.202z"/>
		<path style="fill:#FEFEFE;" d="M275.371,320.59c0.32,0.09,0.638,0.178,0.958,0.269c-0.604,0.613-1.258,1.285-1.301,2.201
			c-0.194,1.357,0.963,2.433,2.129,2.87c1.337,0.564,3.152,0.704,4.196-0.487c0.739-0.823,0.708-2.011,0.289-2.977
			c0.311,0.115,0.69,0.113,0.944,0.348c0.228,1.269-0.155,2.611-0.897,3.652c-0.72,0.997-2.019,1.428-3.211,1.279
			c-1.554-0.163-3.263-0.843-3.928-2.363C273.876,323.79,274.438,321.954,275.371,320.59z"/>
		<path style="fill:#FEFEFE;" d="M401.022,323.451c2.6-0.742,5.19-1.518,7.777-2.302c0.365,1.36,0.843,2.688,1.148,4.064
			c-0.149,0.018-0.442,0.052-0.589,0.07c-0.212-0.889-0.487-1.761-0.744-2.636c-0.99,0.272-1.971,0.572-2.956,0.863
			c0.192,0.916,0.661,1.804,0.71,2.726c-0.122,0.009-0.365,0.025-0.487,0.034c-0.295-0.846-0.505-1.721-0.764-2.578
			c-1.033,0.268-2.052,0.589-3.076,0.896c0.266,0.922,0.55,1.837,0.805,2.764c-0.158,0.007-0.474,0.023-0.631,0.029
			C401.742,326.096,401.419,324.761,401.022,323.451z"/>
		<path style="fill:#FEFEFE;" d="M407.214,327.981c0.789-0.915,2.361-0.816,3.107,0.101c0.81,0.963,0.835,2.327,0.584,3.502
			c-0.293-0.034-0.584-0.068-0.873-0.099c0.255-0.74,0.564-1.612,0.126-2.345c-0.365-0.704-1.475-0.818-1.933-0.153
			c-0.638,1.031-0.568,2.399-1.425,3.31c-0.97,0.977-2.769,0.803-3.556-0.318c-0.767-1.078-0.757-2.516-0.35-3.729
			c0.318,0.025,0.638,0.049,0.958,0.077c-0.381,0.821-0.765,1.804-0.277,2.672c0.41,0.859,1.77,0.977,2.298,0.171
			C406.448,330.162,406.43,328.881,407.214,327.981z"/>
		<path style="fill:#FEFEFE;" d="M280.088,329.853c0.444-0.223,0.974,0.158,0.967,0.638c0.072,0.528-0.435,1.137-0.99,0.884
			C279.453,331.113,279.524,330.128,280.088,329.853z"/>
		<path style="fill:#FEFEFE;" d="M272.733,330.54c0.239,0.011,0.48,0.022,0.719,0.036c-0.124,0.755-0.232,1.513-0.318,2.273
			c2.447,0.311,4.882,0.701,7.33,0.997c-0.059,0.457-0.117,0.915-0.176,1.373c-2.456-0.354-4.911-0.722-7.375-1.01
			c-0.086,0.74-0.188,1.477-0.273,2.217c-0.174-0.018-0.525-0.057-0.701-0.075C272.196,334.412,272.489,332.48,272.733,330.54z"/>
		<path style="fill:#FEFEFE;" d="M412.466,333.226c0.807-0.316,1.192,1.084,0.555,1.457
			C412.204,334.996,411.821,333.596,412.466,333.226z"/>
		<path style="fill:#FEFEFE;" d="M403.388,334.527c2.694-0.338,5.382-0.735,8.075-1.096c0.034,0.444,0.151,0.895,0.092,1.342
			c-2.645,0.385-5.296,0.751-7.946,1.096C403.487,335.429,403.449,334.974,403.388,334.527z"/>
	</g>
	<g>
		<path style="fill:#409136;" d="M321.494,298.63c2.228-2.205,5.263-3.578,8.395-3.77c2.92-0.205,5.853,0.573,8.413,1.959
			c1.366,0.73,2.475,1.826,3.612,2.861c1.118-0.841,2.052-1.916,3.276-2.618c2.717-1.594,5.917-2.453,9.074-2.185
			c3.157,0.25,6.189,1.705,8.386,3.984c2.521,2.58,3.93,6.158,3.987,9.754c0.09,3.786-1.245,7.497-3.333,10.62
			c-1.556,2.377-3.601,4.373-5.648,6.32c-0.956,0.828-1.849,1.734-2.859,2.499c-0.007-1.975-0.007-3.953-0.011-5.93
			c-0.07-0.591,0.523-0.925,0.841-1.333c2.584-2.821,5.091-5.991,5.912-9.813c0.719-3.235-0.626-6.708-3.107-8.843
			c-2.997-2.577-7.712-2.995-11.053-0.841c-1.195,0.751-1.987,1.946-2.776,3.081c-1.03,1.524-1.973,3.125-2.618,4.854
			c-1.087-2.478-2.471-4.841-4.226-6.907c-2.636-2.73-7.092-3.053-10.397-1.42c-3.464,1.682-5.683,5.707-5.076,9.538
			c0.721,4.39,3.725,7.93,6.679,11.073c0.011,2.16,0.013,4.318-0.004,6.478c-3.428-3.096-7.031-6.185-9.286-10.289
			c-1.657-2.965-2.604-6.383-2.365-9.795C317.523,304.447,319.005,301.058,321.494,298.63z"/>
		<path style="fill:#409136;" d="M366.584,319.388c3.184-1.669,6.873-2.487,10.454-1.951c3.774,0.535,7.335,2.627,9.515,5.777
			c2.075,2.927,2.814,6.713,2.129,10.221c-0.517,2.596-1.567,5.155-3.373,7.125c-0.422,0.462-0.841,0.922-1.247,1.4
			c0.974,1.129,2.063,2.18,2.792,3.5c1.501,2.699,2.311,5.837,2.014,8.934c-0.298,3.344-1.949,6.53-4.483,8.726
			c-2.566,2.266-5.979,3.493-9.391,3.52c-3.633,0.047-7.195-1.2-10.219-3.168c-3.369-2.203-6.101-5.22-8.715-8.249
			c2.113-0.059,4.226-0.043,6.338-0.097c2.789,2.552,5.795,5.107,9.488,6.196c2.433,0.744,5.168,0.446,7.337-0.902
			c2.433-1.375,4.126-3.923,4.507-6.688c0.415-2.731-0.314-5.79-2.417-7.685c-2.032-1.693-4.341-3.024-6.74-4.113
			c2.18-0.889,4.203-2.12,6.079-3.533c3.362-2.393,3.977-7.322,2.275-10.889c-1.265-2.742-3.982-4.71-6.938-5.218
			c-2.255-0.363-4.548,0.248-6.555,1.263c-2.602,1.321-4.87,3.202-6.976,5.202c-0.228,0.178-0.444,0.467-0.772,0.426
			c-2.027,0.018-4.054,0.021-6.081,0.004C358.827,325.497,362.162,321.679,366.584,319.388z"/>
		<path style="fill:#409136;" d="M299.552,320.863c2.643-2.252,6.138-3.42,9.599-3.362c3.605,0.038,7.11,1.348,10.086,3.339
			c3.346,2.248,6.047,5.296,8.684,8.309c-2.054,0.025-4.108,0.025-6.16,0.009c-0.309,0.032-0.505-0.25-0.724-0.413
			c-2.079-1.957-4.329-3.784-6.902-5.053c-2.025-0.992-4.345-1.562-6.596-1.132c-2.881,0.573-5.506,2.528-6.73,5.22
			c-1.263,2.726-1.225,6.088,0.311,8.699c0.537,0.931,1.324,1.689,2.194,2.307c1.822,1.346,3.775,2.532,5.881,3.373
			c-2.465,1.112-4.837,2.476-6.893,4.242c-2.71,2.64-3.028,7.075-1.402,10.374c1.691,3.479,5.745,5.705,9.594,5.071
			c4.352-0.735,7.863-3.711,10.988-6.636c0.232-0.307,0.629-0.271,0.97-0.275c1.896,0.007,3.793-0.002,5.689-0.004
			c-2.424,2.872-4.983,5.689-7.994,7.962c-2.881,2.12-6.291,3.626-9.88,3.917c-3.651,0.323-7.435-0.706-10.321-2.988
			c-2.595-2.02-4.417-5.026-4.938-8.279c-0.573-3.417,0.255-6.97,1.953-9.958c0.722-1.272,1.779-2.295,2.73-3.392
			c-0.92-1.107-1.986-2.108-2.703-3.371c-1.671-2.911-2.508-6.363-2.023-9.708C295.401,325.92,297.085,322.93,299.552,320.863z"/>
		<path style="fill:#409136;" d="M354.981,355.993c2.534,2.232,5.078,4.487,7.224,7.107c2.456,3.046,4.248,6.735,4.596,10.67
			c0.333,3.531-0.591,7.195-2.704,10.061c-1.964,2.71-4.974,4.647-8.273,5.251c-3.549,0.674-7.274-0.178-10.368-1.98
			c-1.238-0.71-2.196-1.781-3.312-2.651c-1.103,1.005-2.178,2.07-3.493,2.803c-2.724,1.506-5.89,2.315-9.008,1.986
			c-3.225-0.311-6.291-1.88-8.458-4.282c-2.478-2.708-3.775-6.408-3.685-10.064c0.063-3.84,1.561-7.54,3.777-10.634
			c2.16-2.997,4.941-5.47,7.696-7.899c-0.036,2.169,0.095,4.356-0.06,6.517c-2.537,2.807-5.098,5.824-6.14,9.545
			c-0.722,2.471-0.34,5.231,1.071,7.391c1.468,2.454,4.146,4.083,6.981,4.357c2.755,0.302,5.808-0.575,7.561-2.825
			c1.522-1.98,2.877-4.117,3.781-6.453c0.918,2.216,2.16,4.288,3.608,6.196c2.37,3.271,7.17,3.896,10.697,2.296
			c2.825-1.245,4.873-4.016,5.375-7.042c0.361-2.275-0.275-4.587-1.31-6.605c-1.332-2.593-3.215-4.857-5.22-6.956
			c-0.176-0.212-0.439-0.419-0.392-0.729C354.922,360.034,354.967,358.014,354.981,355.993z"/>
	</g>
	<g>
		<path style="fill:#F39314;" d="M341.664,330.723c0.099-0.002,0.298-0.009,0.395-0.011c0.327,0.952,0.532,1.944,0.814,2.911
			c0.253,0.827-0.191,1.641-0.37,2.44c0.584,0.117,1.161,0.269,1.73,0.46c0.289-0.771,0.228-1.723,0.873-2.318
			c0.64-0.647,1.254-1.321,1.898-1.964c0.207-0.275,0.722-0.174,0.514,0.248c-0.234,1.053-0.473,2.11-0.785,3.143
			c-0.361,0.573-0.913,0.999-1.335,1.526c0.417,0.354,0.823,0.724,1.22,1.103c0.573-0.555,0.967-1.387,1.781-1.63
			c0.916-0.293,1.815-0.636,2.74-0.898c0.286-0.165,0.502,0.295,0.259,0.46c-0.695,0.807-1.387,1.621-2.12,2.395
			c-0.566,0.395-1.283,0.494-1.926,0.712c0.174,0.519,0.343,1.042,0.501,1.567c0.652-0.153,1.254-0.469,1.906-0.618
			c1.163,0.09,2.304,0.372,3.463,0.507c0.025,0.115,0.075,0.345,0.102,0.46c-1.127,0.388-2.209,0.911-3.355,1.242
			c-0.659-0.027-1.308-0.171-1.96-0.25c-0.047,0.555-0.117,1.107-0.183,1.66c0.8,0.131,1.734-0.011,2.395,0.555
			c0.787,0.62,1.639,1.159,2.386,1.831l-0.077,0.325c-1.159-0.009-2.311-0.212-3.459-0.354c-0.661-0.241-1.159-0.789-1.752-1.159
			c-0.309,0.464-0.631,0.922-0.963,1.371c0.57,0.411,1.267,0.699,1.7,1.27c0.471,0.907,0.909,1.833,1.339,2.76
			c0.191,0.199,0.014,0.665-0.28,0.474c-0.811-0.444-1.533-1.035-2.318-1.524c-0.821-0.442-0.979-1.432-1.45-2.16
			c-0.467,0.277-0.952,0.525-1.45,0.746c0.287,0.624,0.722,1.19,0.891,1.862c0.036,1.173-0.068,2.345-0.095,3.517
			c-0.115,0-0.348,0.005-0.462,0.005c-0.431-0.857-0.893-1.696-1.355-2.537c-0.496-0.755-0.21-1.698-0.242-2.542
			c-0.561,0.011-1.123,0.011-1.682,0c-0.027,0.814,0.219,1.718-0.246,2.451c-0.523,0.909-1.021,1.833-1.576,2.722
			c-0.237-0.171-0.35-0.395-0.343-0.67c-0.025-0.828-0.016-1.655-0.032-2.48c-0.105-0.915,0.625-1.594,0.94-2.39
			c-0.498-0.226-0.985-0.48-1.457-0.758c-0.433,0.742-0.647,1.702-1.466,2.128c-0.891,0.48-1.65,1.258-2.631,1.526
			c-0.191-0.349,0.122-0.669,0.232-0.98c0.435-0.789,0.78-1.626,1.258-2.39c0.48-0.471,1.105-0.762,1.65-1.15
			c-0.334-0.458-0.654-0.922-0.972-1.392c-0.543,0.393-1.04,0.879-1.671,1.13c-1.164,0.153-2.338,0.277-3.511,0.316l-0.093-0.33
			c0.767-0.683,1.658-1.208,2.474-1.829c0.665-0.527,1.574-0.35,2.359-0.458c-0.057-0.56-0.115-1.119-0.153-1.676
			c-0.656,0.07-1.311,0.208-1.971,0.21c-0.911-0.282-1.768-0.712-2.661-1.042c-0.248-0.14-0.868-0.246-0.593-0.658
			c0.917-0.246,1.876-0.282,2.81-0.444c0.909-0.244,1.723,0.341,2.53,0.654c0.203-0.523,0.413-1.042,0.629-1.56
			c-0.803-0.361-1.811-0.453-2.336-1.245c-0.575-0.81-1.416-1.448-1.806-2.37c0.342-0.239,0.719,0.047,1.066,0.126
			c0.827,0.332,1.702,0.555,2.507,0.942c0.494,0.442,0.872,0.995,1.328,1.477c0.397-0.39,0.809-0.762,1.233-1.118
			c-0.535-0.647-1.353-1.163-1.475-2.057c-0.185-0.995-0.503-1.962-0.591-2.97c0.521-0.244,0.791,0.471,1.141,0.74
			c0.598,0.8,1.612,1.373,1.788,2.421c0.095,0.418,0.174,0.837,0.255,1.258c0.548-0.133,1.098-0.261,1.651-0.376
			c-0.169-0.796-0.621-1.603-0.375-2.426C341.127,332.671,341.348,331.684,341.664,330.723z"/>
	</g>
</g>
</svg>
