<?xml version="1.0" encoding="UTF-8"?>
<svg id="Layer_2" data-name="Layer 2" xmlns="http://www.w3.org/2000/svg" viewBox="0 0 153.71 153.99">
  <defs>
    <style>
      .cls-1 {
        fill: #f39314;
      }

      .cls-2 {
        fill: #fefefe;
      }

      .cls-3 {
        fill: #303a83;
      }

      .cls-4 {
        fill: #409136;
      }
    </style>
  </defs>
  <g id="Layer_1-2" data-name="Layer 1">
    <g>
      <g>
        <path class="cls-3" d="M69.87.41c1.02-.07,2.03-.18,3.05-.25,3.1-.18,3.94-.22,7.43-.07,4.93.42,9.87.97,14.68,2.19,17.02,4.09,32.45,14.27,43,28.22,7.79,10.22,12.95,22.43,14.81,35.16.55,3.49.73,7.03.88,10.56-.02,8.33-1.2,16.67-3.81,24.59-4.73,14.6-13.99,27.68-26.15,37.04-11.95,9.27-26.7,14.88-41.79,15.84-1.06.04-2.11.21-3.18.28-.98.07-1.95-.28-2.92-.1-1.21.22-2.41-.13-3.61-.14-15.81-.87-31.28-6.84-43.6-16.79-5.78-4.64-10.88-10.12-15.1-16.21-6.46-9.3-10.82-20.05-12.63-31.23-.43-2.54-.66-5.1-.92-7.66.18-2.39.05-4.79.09-7.18.05-1.36-.13-2.73.07-4.08.95-11.58,4.58-22.93,10.54-32.91,7.49-12.6,18.66-22.98,31.79-29.51C51.03,3.89,60.37,1.26,69.87.41ZM71.9,5.31c-.23.1-.36.28-.39.55.11.84,1.76.64,1.55-.23-.16-.48-.78-.46-1.16-.31ZM69.35,5.51c-.24.09-.44.29-.43.56.09.83,1.7.66,1.54-.19-.09-.49-.74-.51-1.11-.37ZM76.55,6.77c0,2.71-.02,5.42-.08,8.13.46,0,.92,0,1.39.01-.01-1.26,0-2.52.03-3.78.94,1.24,1.85,2.51,2.71,3.8.54,0,1.09.01,1.63,0-1.11-1.55-2.21-3.11-3.36-4.64.89-1.2,1.84-2.35,2.79-3.5-.32.04-.68-.06-.98.08-.95,1.13-1.82,2.33-2.79,3.45,0-1.18,0-2.37.04-3.55-.46,0-.93,0-1.39,0ZM73.49,6.92c.15,1.69.28,3.37.42,5.06.06.65.05,1.38-.39,1.91-.65.8-1.84.95-2.78.67-.77-.25-1.2-1.06-1.23-1.83-.15-1.81-.31-3.62-.42-5.43-.46.03-.92.07-1.38.1.18,1.83.29,3.66.46,5.48.06,1.07.79,2.1,1.84,2.38,1.06.25,2.22.13,3.21-.33.93-.44,1.42-1.51,1.33-2.51-.11-1.85-.31-3.69-.42-5.54-.16,0-.48.02-.63.02ZM65.78,7.57c-.44,1.33-.82,2.68-1.24,4.01-.85-1.08-1.65-2.2-2.43-3.33-.45.1-.96.06-1.37.29.79,1.47,2.01,2.68,2.85,4.12.28,1.14.4,2.33.64,3.48.44-.09.89-.18,1.34-.26-.19-1.16-.45-2.31-.58-3.48.38-1.65.99-3.25,1.42-4.9-.15.02-.47.05-.62.07ZM84.54,7.57c-1.04.45-1.59,1.81-1.05,2.82.59,1.08,1.87,1.46,2.67,2.33.62.73.11,2-.83,2.15-.98.21-1.83-.42-2.46-1.09-.13.3-.27.61-.4.92,1.03.74,2.37,1.18,3.63.81,1.31-.4,2.06-2.05,1.44-3.28-.6-1.12-1.96-1.47-2.74-2.41-.48-.65,0-1.67.78-1.78.84-.18,1.55.41,2.22.83.02-.3.45-.78.01-.95-.98-.53-2.21-.78-3.27-.33ZM56.79,7.8c-.42.09-.83.56-.51.98.46.44,1.54.06,1.42-.64-.11-.39-.58-.45-.91-.34ZM88.61,16.01c1.36.29,2.71.65,4.08.91.03-.16.09-.48.11-.64-.91-.18-1.81-.4-2.71-.6.22-1.04.48-2.08.7-3.12.9.15,1.78.43,2.68.57.06-.13.19-.39.26-.52-.93-.2-1.86-.42-2.79-.63.22-1,.46-2,.69-3.01.91.19,1.83.4,2.73.65.03-.15.09-.47.12-.62-1.34-.27-2.66-.65-4-.89-.68,2.62-1.22,5.27-1.86,7.9ZM54.05,8.7c-.22.12-.35.31-.39.56.13.84,1.56.53,1.57-.23-.05-.58-.79-.58-1.18-.33ZM58.36,9.19c.55,1.74,1.13,3.47,1.65,5.21.27.8.07,1.77-.65,2.26-.77.53-1.87.83-2.72.3-.57-.36-.81-1.02-.99-1.64-.48-1.6-1.04-3.18-1.5-4.79-.43.13-.87.26-1.31.38.54,1.75,1.11,3.5,1.66,5.25.31,1.05,1.29,1.92,2.42,1.91,1.08-.02,2.16-.4,3-1.07.78-.64,1-1.77.7-2.71-.54-1.77-1.14-3.52-1.67-5.3-.15.05-.45.14-.6.19ZM96.9,9.64c-.87,2.56-1.89,5.07-2.78,7.62.41.15.82.3,1.23.47.5-1.21.91-2.45,1.39-3.67,1.11.42,2.23.82,3.35,1.25-.44,1.23-.89,2.45-1.37,3.66.44.15.88.31,1.33.44.88-2.54,1.83-5.06,2.8-7.57-.43-.17-.86-.34-1.29-.51-.41,1.13-.84,2.24-1.24,3.37-1.15-.33-2.24-.81-3.37-1.2.38-1.16.87-2.28,1.23-3.45-.43-.14-.86-.28-1.29-.42ZM105.51,11.59c-.51.7.97,1.49,1.35.75.33-.68-.91-1.31-1.35-.75ZM45.92,13.9c1.15,2.44,2.27,4.9,3.36,7.38,1.08-.51,2.23-.89,3.22-1.56,1.2-.85,1.01-2.83-.21-3.57-.48-.3-1.08-.22-1.61-.2.31-.31.67-.61.79-1.06.33-1.19-.74-2.64-2.03-2.41-1.26.22-2.35.95-3.52,1.43ZM105.01,12.85c-1.07,2.49-2.26,4.93-3.35,7.41.42.17.84.35,1.26.52,1.1-2.47,2.24-4.93,3.36-7.39-.42-.18-.85-.36-1.27-.55ZM108.62,14.57c-1.27,2.39-2.63,4.72-3.95,7.08.41.23.82.45,1.24.66.57-1.06,1.08-2.17,1.8-3.14.19,1.48.38,2.96.48,4.45.47.27.95.54,1.44.79-.23-1.56-.43-3.13-.65-4.69.7.14,1.48.39,2.15,0,1.11-.62,1.41-2.29.53-3.23-.83-.89-2.02-1.32-3.05-1.93ZM84.29,16.05c-.26.6-.51,1.21-.71,1.83.96,0,1.17-1.12,1.67-1.74-.32-.03-.64-.07-.96-.09ZM37.77,18.96c.61,2.77,1.34,5.53,1.96,8.31.15-.09.44-.27.59-.36-.25-.86-.44-1.73-.66-2.59.84-.58,1.7-1.13,2.56-1.67.69.55,1.41,1.08,2.09,1.65.42-.27.85-.54,1.27-.8-2.33-1.71-4.63-3.46-6.93-5.2-.29.22-.66.36-.88.67ZM72.37,19.13c-8.36.62-16.57,3.09-23.88,7.19-8.87,4.95-16.4,12.28-21.59,21.02-4.68,7.85-7.45,16.82-8.02,25.94-.57,8.91.92,17.95,4.4,26.19,3.59,8.56,9.29,16.23,16.43,22.16,5.6,4.66,12.08,8.25,18.99,10.52,9.4,3.09,19.6,3.69,29.31,1.79,8.61-1.68,16.82-5.37,23.81-10.68,5.5-4.17,10.25-9.32,13.95-15.14,4.41-6.91,7.31-14.77,8.46-22.88,1.3-9.14.41-18.6-2.63-27.32-2.47-7.1-6.35-13.7-11.33-19.33-5.96-6.75-13.5-12.09-21.86-15.44-8.22-3.32-17.21-4.67-26.04-4ZM118.09,20.32c-1.66,2.14-3.32,4.28-5.02,6.39.98.71,1.85,1.6,2.93,2.17,1.3.63,2.89-.44,3.02-1.82.05-.56-.27-1.05-.52-1.52.42.11.86.28,1.31.18,1.19-.3,1.94-1.89,1.15-2.93-.78-1-1.92-1.63-2.87-2.46ZM32.23,22.84c-.35.28-.7.57-1.06.85,1.65,2.15,3.31,4.29,4.96,6.44,1.07-.83,2.13-1.67,3.21-2.47-.13-.19-.26-.38-.39-.57-.71.57-1.43,1.12-2.15,1.68-1.54-1.96-3.06-3.95-4.57-5.93ZM26.37,25.05c.08.55.21,1.22-.3,1.62-.36.41-.92.28-1.39.2-.11.12-.35.36-.46.49.73.44,1.74.47,2.33-.22.73-.64.76-1.7.35-2.54-.18.15-.36.3-.54.45ZM123.78,24.99c-1.79,2-3.74,3.86-5.53,5.87.95.99,1.98,1.91,2.97,2.87.15-.17.3-.34.45-.51-.7-.6-1.36-1.25-2.02-1.89.74-.74,1.41-1.57,2.2-2.26.75.52,1.29,1.29,2.02,1.83.11-.09.34-.27.45-.36-.68-.62-1.39-1.23-2.01-1.92.61-.8,1.36-1.49,2.07-2.2.77.52,1.36,1.27,2.04,1.89.14-.16.28-.31.42-.47-1.03-.93-1.98-1.95-3.04-2.84ZM25.96,29.79c-.18,1.69.96,3.2,2.32,4.07,1.07.72,2.55.91,3.69.25,1.23-.72,2.09-1.95,2.63-3.25-.92-.97-1.95-1.85-2.89-2.81-.31.33-.62.65-.93.97.89.83,1.77,1.66,2.63,2.52-.37.93-1.14,1.81-2.2,1.87-1.48.07-2.69-1.04-3.54-2.14-.72-.89-.9-2.26-.2-3.21.53-.83,1.48-1.16,2.34-1.54-.23-.2-.46-.41-.69-.61-1.52.75-2.96,2.09-3.14,3.87ZM122.3,34.73c.81,1.1,1.74,2.1,2.62,3.14.12-.11.36-.35.48-.46-.61-.68-1.2-1.36-1.75-2.09,1.92-1.55,3.74-3.21,5.67-4.74-.27-.36-.55-.72-.82-1.08-2.1,1.7-4.15,3.47-6.2,5.23ZM22.66,32.4c1.42,1.07,2.81,2.19,4.21,3.29.67.49,1.14,1.35.88,2.18-.29.88-.98,1.75-1.94,1.91-.7.11-1.33-.3-1.84-.72-1.33-1.07-2.7-2.1-4.02-3.19-.29.37-.58.73-.86,1.1,1.5,1.12,2.93,2.32,4.42,3.45.83.64,2.07.76,2.96.16.85-.58,1.48-1.47,1.85-2.43.38-1-.07-2.15-.89-2.79-1.44-1.17-2.93-2.28-4.36-3.46-.13.16-.27.33-.4.49ZM125.64,38.59c.65,1.18,1.48,2.28,2.28,3.36.15-.06.45-.17.6-.23-.55-.78-1.09-1.57-1.65-2.34.86-.64,1.75-1.24,2.63-1.84.55.77,1.09,1.56,1.62,2.35.1-.1.3-.31.4-.41-.49-.78-1.05-1.5-1.55-2.27.85-.59,1.7-1.18,2.55-1.76.53.76,1.07,1.52,1.56,2.31.13-.08.39-.25.53-.33-.79-1.15-1.58-2.3-2.38-3.43-2.19,1.54-4.42,3.04-6.6,4.59ZM128.89,43.17c.72,1.16,1.21,2.51,2.2,3.48,2.26,2.03,6.37.3,6.73-2.64.2-1.82-1.08-3.27-1.83-4.8-2.38,1.29-4.7,2.69-7.1,3.96ZM16.6,41.08c1.54,1.72,3.1,3.42,4.59,5.19-2.26-.38-4.52-.79-6.77-1.26-.2.33-.4.65-.56,1.01,2.1,1.73,4.3,3.35,6.39,5.1.12-.2.24-.39.36-.59-1.64-1.23-3.27-2.49-4.83-3.83,2.13.32,4.24.75,6.36,1.12.16-.3.33-.61.49-.91-1.53-1.61-2.95-3.31-4.45-4.95,2.02.68,3.98,1.54,5.97,2.28.21-.4.42-.79.64-1.19-2.54-.98-5.09-1.95-7.62-2.95-.19.33-.38.66-.58.99ZM141.06,46.29c-.58.57.31,1.91.99,1.21.32-.58-.31-1.62-.99-1.21ZM132.73,50.21c.18.4.36.81.53,1.21,2.5-1.04,4.93-2.25,7.41-3.35-.19-.42-.37-.83-.56-1.24-2.45,1.15-4.91,2.28-7.38,3.38ZM137.85,52.75c-1.05.6-2.23.96-3.34,1.44.17.42.35.85.51,1.28,1.1-.44,2.16-.96,3.28-1.33,1.7,0,3.39.23,5.08.32-.06-.16-.17-.48-.23-.64-1.39-.07-2.77-.2-4.16-.29.87-1.05,1.78-2.08,2.72-3.07-.17-.48-.36-.96-.54-1.43-1.16,1.2-2.18,2.53-3.34,3.73ZM17.53,55.12c-.44.33-.52,1.12,0,1.42.64.32,1.26-.47,1.05-1.06-.1-.45-.69-.63-1.04-.36ZM10.28,55.51c-.93,1.36-1.49,3.2-.82,4.79.67,1.52,2.38,2.2,3.93,2.36,1.19.15,2.49-.28,3.21-1.28.74-1.04,1.12-2.38.9-3.65-.25-.23-.63-.23-.94-.35.42.96.45,2.15-.29,2.98-1.04,1.19-2.86,1.05-4.2.49-1.17-.44-2.32-1.51-2.13-2.87.04-.92.7-1.59,1.3-2.2-.32-.09-.64-.18-.96-.27ZM135.93,58.37c.4,1.31.72,2.64,1.19,3.93.16,0,.47-.02.63-.03-.26-.93-.54-1.84-.8-2.76,1.02-.31,2.04-.63,3.08-.9.26.86.47,1.73.76,2.58.12,0,.37-.02.49-.03-.05-.92-.52-1.81-.71-2.73.98-.29,1.97-.59,2.96-.86.26.87.53,1.75.74,2.64.15-.02.44-.05.59-.07-.3-1.38-.78-2.7-1.15-4.06-2.59.79-5.18,1.56-7.78,2.3ZM142.12,62.9c-.79.9-.77,2.18-1.34,3.19-.53.8-1.89.69-2.3-.17-.49-.87-.1-1.85.28-2.67-.32-.03-.64-.05-.96-.08-.41,1.21-.42,2.65.35,3.73.79,1.12,2.59,1.29,3.56.32.86-.91.79-2.28,1.42-3.31.46-.67,1.57-.55,1.93.15.44.73.13,1.61-.13,2.35.29.03.58.07.87.1.25-1.17.23-2.54-.58-3.5-.75-.92-2.32-1.01-3.11-.1ZM15,64.77c-.56.27-.64,1.26-.02,1.52.55.25,1.06-.36.99-.88,0-.48-.52-.86-.97-.64ZM7.64,65.46c-.24,1.94-.54,3.87-.79,5.81.18.02.53.06.7.08.09-.74.19-1.48.27-2.22,2.46.29,4.92.66,7.38,1.01.06-.46.12-.92.18-1.37-2.45-.3-4.88-.69-7.33-1,.08-.76.19-1.52.32-2.27-.24-.01-.48-.02-.72-.04ZM147.37,68.15c-.64.37-.26,1.77.55,1.46.64-.37.25-1.77-.55-1.46ZM138.3,69.45c.06.45.1.9.22,1.34,2.65-.35,5.3-.71,7.95-1.1.06-.45-.06-.9-.09-1.34-2.69.36-5.38.76-8.08,1.1Z"/>
        <path class="cls-3" d="M47.43,13.84c.66-.23,1.39-.76,2.1-.38.57.41.88,1.17.77,1.86-.19.74-1,1-1.59,1.34-.46-.92-.89-1.86-1.28-2.82Z"/>
        <path class="cls-3" d="M109.53,15.76c.45.26.98.47,1.23.95.5.97-.21,2.34-1.3,2.45-.57.08-1.06-.28-1.54-.53.55-.95,1.09-1.9,1.61-2.87Z"/>
        <path class="cls-3" d="M48.91,17.15c.66-.25,1.38-.7,2.09-.38.7.35,1.1,1.2,1.05,1.96-.16.86-1.12,1.11-1.82,1.39-.43-1-.9-1.98-1.33-2.97Z"/>
        <path class="cls-3" d="M38.62,19.98c1.04.7,2,1.52,3.02,2.25-.67.54-1.41.98-2.15,1.43-.28-1.23-.62-2.44-.88-3.68Z"/>
        <path class="cls-3" d="M76.58,21.38c.39.81.71,1.66,1.06,2.49.98-.03,1.97-.07,2.95-.12-.72.61-1.55,1.08-2.24,1.71.27.84.69,1.63.97,2.46-.83-.43-1.62-.93-2.4-1.44-.78.53-1.51,1.12-2.3,1.64.22-.86.48-1.71.73-2.56-.81-.51-1.66-.96-2.43-1.52.97-.02,1.94-.05,2.91-.11.23-.86.47-1.71.75-2.56Z"/>
        <path class="cls-3" d="M118.78,21.65c.54.43,1.28.82,1.35,1.58-.04.71-.57,1.36-1.22,1.62-.78.25-1.43-.38-1.99-.83.64-.77,1.26-1.56,1.86-2.37Z"/>
        <path class="cls-3" d="M116.54,24.51c.65.42,1.44.99,1.34,1.87-.13.75-.69,1.48-1.44,1.66-.74.06-1.32-.51-1.82-.97.56-.91,1.32-1.68,1.93-2.56Z"/>
        <path class="cls-3" d="M50.51,27.9c.74.5,1.33,1.21,2.11,1.64.86-.4,1.63-.96,2.49-1.36-.39.84-.82,1.67-1.21,2.51.7.59,1.41,1.17,2.11,1.76-.97-.06-1.93-.12-2.9-.18-.41.84-.8,1.7-1.27,2.51-.18-.85-.29-1.72-.53-2.55-.9-.25-1.89-.13-2.82-.26.8-.54,1.67-.98,2.5-1.48-.18-.86-.38-1.72-.49-2.59Z"/>
        <path class="cls-3" d="M103.75,28.24c-.05.91-.15,1.82-.27,2.72.86.47,1.75.88,2.62,1.34-.91.16-1.84.23-2.75.4-.22.89-.21,1.82-.33,2.72-.51-.82-.98-1.67-1.47-2.5-.91.11-1.82.25-2.73.37.52-.71,1.23-1.24,1.79-1.91-.37-.88-.96-1.63-1.36-2.49.87.41,1.72.86,2.58,1.29.65-.63,1.29-1.27,1.91-1.92Z"/>
        <path class="cls-3" d="M130.17,44.03c1.96-1.1,3.91-2.22,5.88-3.31.46.77.96,1.63.8,2.57-.15,1.18-1.12,2.05-2.14,2.53-.9.42-2,.69-2.94.23-.82-.4-1.18-1.28-1.6-2.03Z"/>
        <path class="cls-3" d="M33.01,46.26c.53-.79.99-1.62,1.57-2.38.07.91.08,1.82.1,2.73.89.19,1.79.35,2.66.62-.88.38-1.77.74-2.63,1.18.06.93.08,1.87.08,2.8-.61-.66-1.05-1.55-1.78-2.05-.87.3-1.67.75-2.52,1.08.47-.85,1.02-1.65,1.54-2.46-.56-.7-1.14-1.37-1.66-2.1.88.16,1.76.36,2.64.56Z"/>
        <path class="cls-3" d="M119.33,44.92c.69.67,1.05,1.67,1.81,2.25.84-.21,1.64-.54,2.49-.74-.51.76-1.02,1.51-1.52,2.27.55.77,1.14,1.51,1.63,2.33-.87-.24-1.68-.63-2.54-.88-.6.68-1.02,1.5-1.56,2.23-.07-.96-.1-1.92-.14-2.88-.88-.32-1.76-.64-2.64-.95.81-.39,1.8-.45,2.54-.94.02-.9-.09-1.8-.08-2.7Z"/>
        <path class="cls-3" d="M64.6,45.85c4.08,3.79,8.07,7.68,12.16,11.44.64-.4,1.11-1.01,1.67-1.5,3.52-3.29,6.97-6.66,10.52-9.9.05,6.05,0,12.11.02,18.16-1.42,1.36-2.8,2.77-4.28,4.08,0-3.79.04-7.57-.02-11.36-2.66,2.46-5.26,4.97-7.9,7.45-2.64-2.48-5.25-5-7.92-7.46-.03,3.8,0,7.59-.02,11.39-1.41-1.37-2.88-2.69-4.23-4.12-.06-6.06-.01-12.12-.02-18.19Z"/>
        <path class="cls-3" d="M45.63,64.79c6.06.02,12.12-.03,18.18.02,1.44,1.34,2.76,2.81,4.11,4.23-3.78.05-7.56,0-11.34.02,2.42,2.68,4.95,5.27,7.42,7.89-2.43,2.68-4.98,5.24-7.42,7.92,3.77.08,7.55,0,11.32.05-1.28,1.47-2.71,2.8-4.02,4.24-6.07.02-12.14.02-18.22,0,3.78-4.09,7.63-8.12,11.47-12.15-3.8-4.11-7.7-8.13-11.51-12.23Z"/>
        <path class="cls-3" d="M89.69,64.8c6.07-.02,12.14,0,18.22-.02-3.78,4.11-7.66,8.13-11.49,12.19,3.81,4.08,7.7,8.09,11.48,12.19-5.95.02-11.9,0-17.85,0-.4.06-.63-.33-.89-.55-1.15-1.24-2.39-2.41-3.5-3.69,3.79-.05,7.57-.02,11.36-.01-2.46-2.66-4.95-5.28-7.46-7.9,2.43-2.71,5-5.29,7.47-7.96-3.79-.01-7.58.02-11.37-.02,1.29-1.47,2.7-2.82,4.03-4.25Z"/>
        <path class="cls-3" d="M23.64,67.19c.51.79.94,1.64,1.41,2.46.9-.28,1.85-.45,2.71-.85-.55.85-1.28,1.57-1.86,2.41.46.79.93,1.59,1.33,2.42-.83-.32-1.64-.71-2.47-1.03-.57.77-1.16,1.52-1.79,2.25.1-.97.18-1.95.27-2.93-.82-.36-1.64-.7-2.45-1.08.87-.28,1.75-.49,2.62-.76.06-.96.15-1.92.23-2.89Z"/>
        <path class="cls-3" d="M129.67,68.43c.29.89.33,1.84.45,2.76.82.2,1.65.29,2.47.47,0,.04.03.11.04.15-.71.46-1.53.73-2.2,1.26.09.97.29,1.92.39,2.89-.67-.68-1.21-1.49-1.96-2.07-.8.37-1.53.86-2.32,1.23.35-.89.81-1.74,1.17-2.63-.64-.66-1.29-1.32-1.84-2.06.86.15,1.73.31,2.59.48.43-.82.78-1.67,1.2-2.5Z"/>
        <path class="cls-3" d="M64.62,89.98c1.31-1.47,2.83-2.78,4.24-4.16.05,3.8-.07,7.6.06,11.4,2.59-2.52,5.25-4.97,7.86-7.47,2.66,2.46,5.24,5,7.92,7.44.04-3.78,0-7.56.02-11.34,1.21,1.03,2.3,2.2,3.48,3.28.35.37.91.7.79,1.29-.02,5.89.02,11.77-.02,17.66-4.11-3.77-8.11-7.66-12.18-11.47-4.07,3.82-8.08,7.7-12.18,11.48.01-6.04-.03-12.09.02-18.13Z"/>
        <path class="cls-3" d="M27.17,94.51c.67-.62,1.32-1.25,2-1.86-.15.94-.34,1.87-.54,2.81.78.55,1.59,1.04,2.36,1.6-.89.07-1.79.13-2.69.19-.18.93-.34,1.86-.54,2.78-.44-.82-.7-1.72-1.12-2.55-.85-.2-1.79.11-2.67.08.62-.66,1.3-1.26,1.95-1.88-.39-.9-.76-1.82-1.16-2.71.82.49,1.6,1.04,2.41,1.56Z"/>
        <path class="cls-3" d="M123.64,94.02c.7.54,1.4,1.09,2.09,1.65.78-.52,1.49-1.13,2.26-1.66-.23.93-.6,1.81-.9,2.72.7.52,1.41,1.04,2.05,1.63-.89.06-1.78.07-2.67.08-.32.93-.67,1.86-.94,2.8-.3-.91-.52-1.83-.75-2.76-.92,0-1.83.03-2.75.03.75-.6,1.53-1.16,2.29-1.76-.25-.91-.51-1.81-.7-2.73Z"/>
        <path class="cls-3" d="M40.54,115.58c.34-.85.6-1.73.96-2.58.29.91.54,1.84.84,2.75.9.08,1.81.15,2.71.27-.69.55-1.47.97-2.21,1.44.27.91.58,1.8.78,2.73-.77-.57-1.42-1.33-2.26-1.79-.77.4-1.48.93-2.24,1.35.27-.88.61-1.73.87-2.6-.77-.6-1.51-1.22-2.25-1.86.93.08,1.87.18,2.79.3Z"/>
        <path class="cls-3" d="M110.72,113.89c.42.79.78,1.61,1.12,2.43.95-.11,1.89-.32,2.84-.43-.64.72-1.52,1.25-2.05,2.05.3.81.73,1.56,1.04,2.38-.82-.38-1.62-.8-2.43-1.2-.71.65-1.38,1.33-2.13,1.93.17-.9.39-1.8.6-2.7-.81-.41-1.63-.79-2.41-1.24.92-.17,1.84-.32,2.77-.44.27-.92.46-1.85.65-2.79Z"/>
        <path class="cls-3" d="M61.84,125.36c.71.63,1.33,1.34,2.01,2,.85-.36,1.71-.71,2.58-1.05-.37.78-.88,1.49-1.27,2.25.47.81,1.33,1.35,1.89,2.11-.95-.17-1.89-.42-2.85-.57-.43.79-.88,1.55-1.36,2.3-.14-.9-.26-1.8-.38-2.7-.95-.22-1.91-.42-2.86-.62.84-.39,1.72-.73,2.59-1.05-.1-.9-.26-1.79-.35-2.68Z"/>
        <path class="cls-3" d="M88.24,127.64c.73-.58,1.19-1.42,1.89-2.04-.02.89-.08,1.77-.12,2.66.88.27,1.76.55,2.63.84-.88.39-1.82.55-2.73.84-.04.9-.09,1.8-.14,2.7-.57-.73-1.08-1.49-1.64-2.23-.91.27-1.83.54-2.75.75.52-.76,1.26-1.36,1.73-2.15-.46-.75-1.05-1.41-1.51-2.17.89.23,1.75.6,2.65.81Z"/>
        <path class="cls-3" d="M71.49,128c.55-.76,2.11-.51,2.14.53-.08,1.02-.88,1.76-1.53,2.47.53.14,1.61-.37,1.64.45-.76,0-1.53.01-2.29,0,.43-1.07,1.79-1.8,1.52-3.11-.22-.64-.99-.29-1.47-.34Z"/>
        <path class="cls-3" d="M74.99,127.69c.57-.27,1.41-.11,1.64.54.26.8.25,1.7.04,2.51-.21.87-1.52,1.05-2.02.35-.37-.55-.32-1.24-.32-1.87.02-.55.11-1.23.65-1.53ZM75.44,127.9c-.79.56-.4,1.81-.43,2.65-.06.54.71.92,1.01.41.28-.76.18-1.62.12-2.42,0-.35-.32-.81-.7-.65Z"/>
        <path class="cls-3" d="M77.27,128.42c.21-.61.92-.61,1.43-.8-.01,1.27-.02,2.54,0,3.81-.16.01-.49.04-.65.05,0-1.11,0-2.21,0-3.31-.26.09-.53.17-.79.25Z"/>
        <path class="cls-3" d="M80.87,127.88c.12-.34.49-.22.77-.25,0,.75-.07,1.5.02,2.25.13.05.38.16.51.22-.18.15-.38.3-.56.45.01.29.02.59.04.88-.16,0-.48.03-.64.04,0-.36,0-.72,0-1.08-.5,0-1,0-1.5,0,.25-.94.89-1.69,1.38-2.51ZM79.93,129.97c.35,0,.71,0,1.06,0,.02-.58.02-1.15,0-1.73-.4.54-.75,1.12-1.07,1.72Z"/>
      </g>
      <g>
        <path class="cls-2" d="M71.9,5.31c.38-.15,1.01-.17,1.16.31.21.87-1.43,1.07-1.55.23.02-.26.15-.45.39-.55Z"/>
        <path class="cls-2" d="M69.35,5.51c.37-.14,1.02-.12,1.11.37.16.85-1.46,1.02-1.54.19-.02-.27.19-.47.43-.56Z"/>
        <path class="cls-2" d="M76.55,6.77c.46,0,.92,0,1.39,0-.04,1.18-.05,2.37-.04,3.55.97-1.11,1.84-2.31,2.79-3.45.3-.14.65-.05.98-.08-.95,1.15-1.9,2.31-2.79,3.5,1.15,1.52,2.25,3.08,3.36,4.64-.55,0-1.09,0-1.63,0-.86-1.3-1.77-2.56-2.71-3.8-.04,1.26-.05,2.52-.03,3.78-.46,0-.92,0-1.39-.01.05-2.71.08-5.42.08-8.13Z"/>
        <path class="cls-2" d="M73.49,6.92c.16,0,.48-.02.63-.02.11,1.85.31,3.69.42,5.54.09,1-.4,2.07-1.33,2.51-.99.45-2.15.58-3.21.33-1.05-.28-1.78-1.31-1.84-2.38-.17-1.83-.28-3.66-.46-5.48.46-.03.92-.07,1.38-.1.12,1.81.27,3.62.42,5.43.04.77.46,1.58,1.23,1.83.94.28,2.13.13,2.78-.67.44-.53.44-1.26.39-1.91-.14-1.69-.27-3.38-.42-5.06Z"/>
        <path class="cls-2" d="M65.78,7.57c.15-.02.46-.05.62-.07-.42,1.65-1.04,3.24-1.42,4.9.13,1.17.39,2.32.58,3.48-.45.08-.89.17-1.34.26-.24-1.15-.36-2.33-.64-3.48-.84-1.44-2.07-2.65-2.85-4.12.41-.23.92-.19,1.37-.29.78,1.13,1.58,2.26,2.43,3.33.43-1.33.81-2.68,1.24-4.01Z"/>
        <path class="cls-2" d="M84.54,7.57c1.06-.45,2.29-.2,3.27.34.44.17.01.65-.01.95-.67-.41-1.38-1-2.22-.83-.79.11-1.26,1.13-.78,1.78.79.94,2.14,1.29,2.74,2.41.62,1.24-.13,2.88-1.44,3.28-1.26.37-2.6-.07-3.63-.81.13-.3.27-.61.4-.92.63.67,1.48,1.3,2.46,1.09.94-.15,1.44-1.41.83-2.15-.81-.87-2.08-1.25-2.67-2.33-.54-1.02.01-2.38,1.05-2.83Z"/>
        <path class="cls-2" d="M56.79,7.8c.33-.11.79-.05.91.34.12.7-.96,1.09-1.42.64-.32-.42.09-.89.51-.98Z"/>
        <path class="cls-2" d="M88.61,16.01c.64-2.62,1.18-5.28,1.86-7.89,1.34.24,2.66.62,4,.89-.03.16-.09.47-.12.62-.9-.25-1.81-.46-2.73-.65-.23,1-.47,2-.69,3.01.93.22,1.86.43,2.79.63-.07.13-.19.39-.26.52-.9-.14-1.78-.42-2.68-.57-.21,1.04-.48,2.07-.7,3.12.9.2,1.8.42,2.71.6-.03.16-.08.48-.11.64-1.37-.27-2.72-.62-4.08-.91Z"/>
        <path class="cls-2" d="M54.05,8.7c.39-.25,1.12-.25,1.18.33,0,.76-1.43,1.07-1.57.23.04-.25.17-.44.39-.56Z"/>
        <path class="cls-2" d="M58.36,9.19c.15-.05.45-.14.6-.19.53,1.77,1.13,3.53,1.67,5.3.3.94.09,2.07-.7,2.71-.85.67-1.93,1.05-3,1.07-1.13.01-2.11-.86-2.42-1.91-.56-1.75-1.12-3.49-1.66-5.25.44-.13.88-.26,1.31-.38.46,1.61,1.01,3.19,1.5,4.79.19.61.42,1.28.99,1.64.85.52,1.95.23,2.72-.3.71-.49.92-1.47.65-2.26-.52-1.74-1.11-3.48-1.66-5.22Z"/>
        <path class="cls-2" d="M96.9,9.64c.43.14.86.27,1.29.42-.36,1.17-.85,2.29-1.23,3.45,1.13.38,2.23.87,3.37,1.2.39-1.13.83-2.25,1.24-3.37.43.17.86.33,1.29.51-.98,2.51-1.92,5.03-2.8,7.57-.45-.14-.89-.29-1.33-.44.48-1.21.92-2.44,1.37-3.66-1.11-.43-2.23-.83-3.35-1.25-.48,1.22-.89,2.46-1.39,3.67-.41-.16-.82-.32-1.23-.47.9-2.55,1.91-5.06,2.78-7.62Z"/>
        <path class="cls-2" d="M105.51,11.59c.43-.57,1.68.06,1.35.75-.38.74-1.86-.04-1.35-.75Z"/>
        <path class="cls-2" d="M45.92,13.9c1.17-.47,2.26-1.21,3.52-1.42,1.29-.22,2.36,1.22,2.03,2.41-.12.44-.48.75-.79,1.06.54-.02,1.13-.11,1.61.2,1.21.74,1.41,2.72.21,3.57-.99.67-2.14,1.05-3.22,1.56-1.09-2.47-2.21-4.93-3.36-7.38ZM47.43,13.84c.39.96.82,1.89,1.28,2.82.59-.34,1.4-.6,1.59-1.34.11-.69-.2-1.45-.77-1.86-.7-.38-1.44.15-2.1.38ZM48.91,17.15c.43,1,.9,1.97,1.33,2.97.7-.28,1.65-.53,1.82-1.39.05-.76-.35-1.61-1.05-1.96-.71-.32-1.43.13-2.09.38Z"/>
        <path class="cls-2" d="M105.01,12.85c.42.18.84.37,1.27.55-1.12,2.46-2.26,4.92-3.36,7.39-.42-.18-.84-.35-1.26-.52,1.09-2.48,2.28-4.92,3.35-7.41Z"/>
        <path class="cls-2" d="M108.62,14.57c1.03.61,2.21,1.04,3.05,1.93.88.94.58,2.61-.53,3.23-.67.38-1.45.13-2.15,0,.22,1.57.42,3.13.65,4.69-.49-.25-.97-.51-1.44-.79-.11-1.49-.3-2.97-.48-4.45-.72.96-1.23,2.08-1.8,3.14-.42-.21-.83-.44-1.24-.66,1.32-2.36,2.69-4.69,3.95-7.08ZM109.53,15.76c-.52.96-1.06,1.92-1.61,2.87.48.26.96.61,1.54.53,1.09-.11,1.8-1.48,1.3-2.45-.26-.48-.79-.69-1.24-.95Z"/>
        <path class="cls-2" d="M84.29,16.05c.32.03.64.06.96.1-.5.62-.71,1.74-1.67,1.74.19-.63.45-1.23.71-1.84Z"/>
        <path class="cls-2" d="M37.77,18.96c.22-.3.59-.45.88-.67,2.3,1.75,4.61,3.49,6.93,5.2-.43.26-.85.53-1.27.8-.69-.56-1.4-1.09-2.09-1.65-.86.54-1.72,1.09-2.56,1.67.22.86.41,1.73.66,2.59-.15.09-.44.27-.59.36-.62-2.78-1.35-5.53-1.96-8.31ZM38.62,19.98c.25,1.23.6,2.45.88,3.68.74-.44,1.48-.89,2.15-1.43-1.02-.73-1.98-1.55-3.02-2.25Z"/>
        <path class="cls-2" d="M118.09,20.32c.95.83,2.09,1.45,2.87,2.46.79,1.04.04,2.63-1.15,2.93-.45.11-.88-.07-1.31-.18.25.47.57.96.52,1.52-.13,1.38-1.72,2.45-3.02,1.82-1.08-.56-1.95-1.45-2.93-2.17,1.7-2.11,3.36-4.25,5.02-6.39ZM118.78,21.65c-.6.8-1.22,1.59-1.86,2.37.56.45,1.21,1.08,1.99.83.65-.26,1.18-.91,1.22-1.62-.08-.76-.82-1.15-1.35-1.58ZM116.54,24.51c-.61.88-1.36,1.65-1.93,2.56.5.46,1.09,1.03,1.82.97.75-.18,1.31-.91,1.44-1.66.1-.88-.69-1.45-1.34-1.87Z"/>
        <path class="cls-2" d="M32.23,22.84c1.52,1.98,3.03,3.97,4.58,5.93.72-.56,1.44-1.11,2.15-1.68.13.19.26.38.39.57-1.08.8-2.15,1.64-3.21,2.47-1.65-2.15-3.31-4.29-4.96-6.44.35-.28.71-.56,1.06-.85Z"/>
        <path class="cls-2" d="M26.37,25.05c.18-.15.36-.3.54-.45.41.83.39,1.9-.35,2.54-.59.69-1.6.67-2.33.22.11-.12.35-.36.46-.49.46.08,1.03.21,1.39-.2.51-.4.39-1.07.3-1.62Z"/>
        <path class="cls-2" d="M123.78,24.99c1.07.89,2.01,1.92,3.04,2.84-.14.16-.28.31-.42.47-.68-.62-1.27-1.37-2.04-1.89-.71.71-1.45,1.4-2.07,2.2.62.69,1.33,1.29,2.01,1.92-.11.09-.33.27-.45.36-.73-.54-1.27-1.31-2.02-1.83-.8.69-1.46,1.52-2.2,2.26.66.64,1.32,1.29,2.02,1.89-.15.17-.3.34-.45.51-.98-.96-2.01-1.88-2.97-2.87,1.78-2.01,3.73-3.87,5.53-5.87Z"/>
        <path class="cls-2" d="M25.96,29.79c.18-1.77,1.62-3.12,3.14-3.87.23.2.46.41.69.61-.85.37-1.81.71-2.34,1.54-.7.96-.52,2.32.2,3.21.85,1.1,2.06,2.21,3.54,2.14,1.07-.07,1.83-.95,2.2-1.87-.86-.85-1.74-1.69-2.63-2.52.31-.32.62-.65.93-.97.94.96,1.97,1.84,2.89,2.81-.54,1.3-1.4,2.52-2.63,3.25-1.14.67-2.62.47-3.69-.25-1.35-.88-2.5-2.38-2.32-4.08Z"/>
        <path class="cls-2" d="M122.3,34.73c2.05-1.76,4.1-3.52,6.2-5.23.27.36.55.71.82,1.08-1.93,1.53-3.76,3.19-5.67,4.74.55.72,1.14,1.41,1.75,2.09-.12.11-.36.35-.48.46-.88-1.04-1.81-2.05-2.62-3.14Z"/>
        <path class="cls-2" d="M22.66,32.4c.14-.17.27-.33.4-.5,1.43,1.18,2.92,2.29,4.36,3.46.82.64,1.26,1.79.89,2.79-.37.96-1,1.84-1.85,2.43-.89.6-2.13.48-2.96-.16-1.49-1.13-2.93-2.33-4.42-3.45.29-.37.58-.73.86-1.1,1.32,1.09,2.68,2.12,4.02,3.19.52.42,1.14.83,1.84.72.96-.16,1.66-1.03,1.94-1.91.26-.84-.21-1.69-.88-2.18-1.4-1.1-2.79-2.22-4.21-3.29Z"/>
        <path class="cls-2" d="M125.64,38.59c2.18-1.56,4.41-3.05,6.61-4.59.8,1.14,1.59,2.28,2.38,3.43-.13.08-.39.25-.53.33-.49-.79-1.03-1.55-1.56-2.31-.85.58-1.7,1.17-2.55,1.76.5.77,1.06,1.49,1.55,2.27-.1.1-.3.31-.4.41-.53-.79-1.07-1.57-1.62-2.35-.88.61-1.78,1.2-2.63,1.84.56.77,1.09,1.56,1.65,2.34-.15.06-.45.17-.6.23-.81-1.08-1.64-2.18-2.28-3.36Z"/>
        <path class="cls-2" d="M128.89,43.17c2.39-1.27,4.71-2.67,7.1-3.96.75,1.53,2.03,2.98,1.83,4.8-.36,2.94-4.47,4.67-6.73,2.64-.99-.97-1.48-2.32-2.2-3.48ZM130.17,44.03c.42.74.78,1.63,1.6,2.03.94.46,2.04.19,2.94-.23,1.02-.48,1.99-1.35,2.14-2.53.17-.94-.34-1.8-.8-2.57-1.97,1.09-3.92,2.21-5.88,3.31Z"/>
        <path class="cls-2" d="M16.6,41.08c.19-.33.39-.66.58-.99,2.53,1.01,5.08,1.97,7.62,2.95-.21.39-.43.79-.64,1.19-2-.74-3.95-1.6-5.97-2.28,1.5,1.64,2.92,3.34,4.45,4.95-.16.3-.33.6-.49.91-2.12-.37-4.23-.8-6.36-1.12,1.56,1.34,3.19,2.6,4.83,3.83-.12.19-.24.39-.36.59-2.09-1.75-4.29-3.36-6.39-5.1.15-.35.36-.68.56-1.01,2.25.47,4.51.88,6.77,1.26-1.49-1.77-3.05-3.47-4.59-5.19Z"/>
        <path class="cls-2" d="M141.06,46.29c.69-.4,1.32.63.99,1.21-.69.7-1.57-.64-.99-1.21Z"/>
        <path class="cls-2" d="M132.73,50.21c2.47-1.1,4.93-2.24,7.38-3.38.19.41.37.83.56,1.24-2.48,1.11-4.91,2.31-7.41,3.35-.18-.41-.36-.81-.53-1.21Z"/>
        <path class="cls-2" d="M137.85,52.75c1.16-1.2,2.18-2.53,3.34-3.73.18.48.37.95.54,1.43-.94.99-1.84,2.02-2.72,3.07,1.39.09,2.77.22,4.16.29.06.16.17.48.23.64-1.7-.08-3.39-.32-5.08-.32-1.12.37-2.18.9-3.28,1.33-.17-.43-.34-.86-.51-1.28,1.11-.48,2.29-.83,3.34-1.44Z"/>
        <path class="cls-2" d="M17.53,55.12c.36-.27.94-.09,1.04.36.21.6-.41,1.38-1.05,1.06-.52-.3-.44-1.09,0-1.42Z"/>
        <path class="cls-2" d="M10.28,55.51c.32.09.64.18.96.27-.6.61-1.26,1.29-1.3,2.2-.19,1.36.96,2.43,2.13,2.87,1.34.56,3.15.7,4.2-.49.74-.82.71-2.01.29-2.98.31.11.69.11.94.35.23,1.27-.15,2.61-.9,3.65-.72,1-2.02,1.43-3.21,1.28-1.55-.16-3.26-.84-3.93-2.36-.67-1.59-.11-3.43.82-4.79Z"/>
        <path class="cls-2" d="M135.93,58.37c2.6-.74,5.19-1.52,7.78-2.3.36,1.36.84,2.69,1.15,4.06-.15.02-.44.05-.59.07-.21-.89-.49-1.76-.74-2.64-.99.27-1.97.57-2.96.86.19.92.66,1.8.71,2.73-.12,0-.36.02-.49.03-.3-.85-.51-1.72-.76-2.58-1.03.27-2.05.59-3.08.9.27.92.55,1.84.8,2.76-.16,0-.47.02-.63.03-.47-1.29-.8-2.62-1.19-3.93Z"/>
        <path class="cls-2" d="M142.12,62.9c.79-.92,2.36-.82,3.11.1.81.96.83,2.33.58,3.5-.29-.03-.58-.07-.87-.1.26-.74.56-1.61.13-2.35-.36-.7-1.48-.82-1.93-.15-.64,1.03-.57,2.4-1.42,3.31-.97.98-2.77.8-3.56-.32-.77-1.08-.76-2.52-.35-3.73.32.02.64.05.96.08-.38.82-.77,1.8-.28,2.67.41.86,1.77.98,2.3.17.57-1.01.56-2.29,1.34-3.19Z"/>
        <path class="cls-2" d="M15,64.77c.44-.22.97.16.97.64.07.53-.43,1.14-.99.88-.61-.26-.54-1.25.02-1.52Z"/>
        <path class="cls-2" d="M7.64,65.46c.24.01.48.02.72.04-.12.76-.23,1.51-.32,2.27,2.45.31,4.88.7,7.33,1-.06.46-.12.92-.18,1.37-2.46-.35-4.91-.72-7.38-1.01-.09.74-.19,1.48-.27,2.22-.17-.02-.52-.06-.7-.08.26-1.94.55-3.87.79-5.81Z"/>
        <path class="cls-2" d="M147.37,68.15c.81-.32,1.19,1.08.55,1.46-.82.31-1.2-1.09-.55-1.46Z"/>
        <path class="cls-2" d="M138.3,69.45c2.69-.34,5.38-.73,8.08-1.1.03.44.15.89.09,1.34-2.64.39-5.3.75-7.95,1.1-.12-.44-.16-.9-.22-1.34Z"/>
      </g>
      <g>
        <path class="cls-4" d="M56.4,33.55c2.23-2.2,5.26-3.58,8.39-3.77,2.92-.2,5.85.57,8.41,1.96,1.37.73,2.48,1.83,3.61,2.86,1.12-.84,2.05-1.92,3.28-2.62,2.72-1.59,5.92-2.45,9.07-2.18,3.16.25,6.19,1.7,8.39,3.98,2.52,2.58,3.93,6.16,3.99,9.75.09,3.79-1.24,7.5-3.33,10.62-1.56,2.38-3.6,4.37-5.65,6.32-.96.83-1.85,1.73-2.86,2.5,0-1.98,0-3.95-.01-5.93-.07-.59.52-.92.84-1.33,2.58-2.82,5.09-5.99,5.91-9.81.72-3.23-.63-6.71-3.11-8.84-3-2.58-7.71-2.99-11.05-.84-1.2.75-1.99,1.95-2.78,3.08-1.03,1.52-1.97,3.12-2.62,4.85-1.09-2.48-2.47-4.84-4.23-6.91-2.64-2.73-7.09-3.05-10.4-1.42-3.46,1.68-5.68,5.71-5.08,9.54.72,4.39,3.73,7.93,6.68,11.07.01,2.16.01,4.32,0,6.48-3.43-3.1-7.03-6.18-9.29-10.29-1.66-2.96-2.6-6.38-2.36-9.8.21-3.46,1.7-6.85,4.18-9.28Z"/>
        <path class="cls-4" d="M101.49,54.31c3.18-1.67,6.87-2.49,10.45-1.95,3.77.54,7.33,2.63,9.52,5.78,2.08,2.93,2.81,6.71,2.13,10.22-.52,2.6-1.57,5.15-3.37,7.12-.42.46-.84.92-1.25,1.4.97,1.13,2.06,2.18,2.79,3.5,1.5,2.7,2.31,5.84,2.01,8.93-.3,3.34-1.95,6.53-4.48,8.73-2.57,2.27-5.98,3.49-9.39,3.52-3.63.05-7.2-1.2-10.22-3.17-3.37-2.2-6.1-5.22-8.71-8.25,2.11-.06,4.23-.04,6.34-.1,2.79,2.55,5.8,5.11,9.49,6.2,2.43.74,5.17.45,7.34-.9,2.43-1.38,4.13-3.92,4.51-6.69.42-2.73-.31-5.79-2.42-7.68-2.03-1.69-4.34-3.02-6.74-4.11,2.18-.89,4.2-2.12,6.08-3.53,3.36-2.39,3.98-7.32,2.27-10.89-1.27-2.74-3.98-4.71-6.94-5.22-2.26-.36-4.55.25-6.55,1.26-2.6,1.32-4.87,3.2-6.98,5.2-.23.18-.44.47-.77.43-2.03.02-4.05.02-6.08,0,3.22-3.69,6.56-7.51,10.98-9.8Z"/>
        <path class="cls-4" d="M34.46,55.78c2.64-2.25,6.14-3.42,9.6-3.36,3.61.04,7.11,1.35,10.09,3.34,3.35,2.25,6.05,5.3,8.68,8.31-2.05.02-4.11.02-6.16,0-.31.03-.51-.25-.72-.41-2.08-1.96-4.33-3.78-6.9-5.05-2.02-.99-4.35-1.56-6.6-1.13-2.88.57-5.51,2.53-6.73,5.22-1.26,2.73-1.23,6.09.31,8.7.54.93,1.32,1.69,2.19,2.31,1.82,1.35,3.77,2.53,5.88,3.37-2.46,1.11-4.84,2.48-6.89,4.24-2.71,2.64-3.03,7.08-1.4,10.37,1.69,3.48,5.74,5.7,9.59,5.07,4.35-.73,7.86-3.71,10.99-6.64.23-.31.63-.27.97-.27,1.9,0,3.79,0,5.69,0-2.42,2.87-4.98,5.69-7.99,7.96-2.88,2.12-6.29,3.63-9.88,3.92-3.65.32-7.43-.71-10.32-2.99-2.6-2.02-4.42-5.03-4.94-8.28-.57-3.42.26-6.97,1.95-9.96.72-1.27,1.78-2.3,2.73-3.39-.92-1.11-1.99-2.11-2.7-3.37-1.67-2.91-2.51-6.36-2.02-9.71.44-3.19,2.12-6.18,4.59-8.25Z"/>
        <path class="cls-4" d="M89.89,90.91c2.53,2.23,5.08,4.49,7.22,7.11,2.46,3.05,4.25,6.73,4.6,10.67.33,3.53-.59,7.2-2.7,10.06-1.96,2.71-4.97,4.65-8.27,5.25-3.55.67-7.27-.18-10.37-1.98-1.24-.71-2.2-1.78-3.31-2.65-1.1,1.01-2.18,2.07-3.49,2.8-2.72,1.51-5.89,2.32-9.01,1.99-3.23-.31-6.29-1.88-8.46-4.28-2.48-2.71-3.77-6.41-3.68-10.06.06-3.84,1.56-7.54,3.78-10.63,2.16-3,4.94-5.47,7.7-7.9-.04,2.17.1,4.36-.06,6.52-2.54,2.81-5.1,5.82-6.14,9.55-.72,2.47-.34,5.23,1.07,7.39,1.47,2.45,4.15,4.08,6.98,4.36,2.76.3,5.81-.58,7.56-2.83,1.52-1.98,2.88-4.12,3.78-6.45.92,2.22,2.16,4.29,3.61,6.2,2.37,3.27,7.17,3.9,10.7,2.3,2.83-1.24,4.87-4.02,5.38-7.04.36-2.27-.27-4.59-1.31-6.61-1.33-2.59-3.21-4.86-5.22-6.96-.18-.21-.44-.42-.39-.73,0-2.02.04-4.04.06-6.06Z"/>
      </g>
      <path class="cls-1" d="M76.57,65.64c.1,0,.3,0,.39-.01.33.95.53,1.94.81,2.91.25.83-.19,1.64-.37,2.44.58.12,1.16.27,1.73.46.29-.77.23-1.72.87-2.32.64-.65,1.25-1.32,1.9-1.96.21-.27.72-.17.51.25-.23,1.05-.47,2.11-.79,3.14-.36.57-.91,1-1.33,1.53.42.35.82.72,1.22,1.1.57-.55.97-1.39,1.78-1.63.92-.29,1.82-.64,2.74-.9.29-.17.5.3.26.46-.7.81-1.39,1.62-2.12,2.39-.57.39-1.28.49-1.93.71.17.52.34,1.04.5,1.57.65-.15,1.25-.47,1.91-.62,1.16.09,2.3.37,3.46.51.02.11.08.35.1.46-1.13.39-2.21.91-3.36,1.24-.66-.03-1.31-.17-1.96-.25-.05.55-.12,1.11-.18,1.66.8.13,1.73-.01,2.39.55.79.62,1.64,1.16,2.39,1.83l-.08.33c-1.16,0-2.31-.21-3.46-.35-.66-.24-1.16-.79-1.75-1.16-.31.46-.63.92-.96,1.37.57.41,1.27.7,1.7,1.27.47.91.91,1.83,1.34,2.76.19.2.01.67-.28.47-.81-.44-1.53-1.04-2.32-1.52-.82-.44-.98-1.43-1.45-2.16-.47.28-.95.52-1.45.75.29.62.72,1.19.89,1.86.04,1.17-.07,2.35-.1,3.52-.11,0-.35,0-.46,0-.43-.86-.89-1.7-1.36-2.54-.5-.76-.21-1.7-.24-2.54-.56.01-1.12.01-1.68,0-.03.81.22,1.72-.25,2.45-.52.91-1.02,1.83-1.58,2.72-.24-.17-.35-.39-.34-.67-.02-.83-.02-1.65-.03-2.48-.11-.92.62-1.59.94-2.39-.5-.23-.98-.48-1.46-.76-.43.74-.65,1.7-1.47,2.13-.89.48-1.65,1.26-2.63,1.53-.19-.35.12-.67.23-.98.43-.79.78-1.63,1.26-2.39.48-.47,1.11-.76,1.65-1.15-.33-.46-.65-.92-.97-1.39-.54.39-1.04.88-1.67,1.13-1.16.15-2.34.28-3.51.32l-.09-.33c.77-.68,1.66-1.21,2.47-1.83.67-.53,1.57-.35,2.36-.46-.06-.56-.11-1.12-.15-1.68-.66.07-1.31.21-1.97.21-.91-.28-1.77-.71-2.66-1.04-.25-.14-.87-.25-.59-.66.92-.25,1.88-.28,2.81-.44.91-.24,1.72.34,2.53.65.2-.52.41-1.04.63-1.56-.8-.36-1.81-.45-2.34-1.24-.58-.81-1.42-1.45-1.81-2.37.34-.24.72.05,1.07.13.83.33,1.7.55,2.51.94.49.44.87.99,1.33,1.48.4-.39.81-.76,1.23-1.12-.54-.65-1.35-1.16-1.48-2.06-.18-.99-.5-1.96-.59-2.97.52-.24.79.47,1.14.74.6.8,1.61,1.37,1.79,2.42.1.42.17.84.26,1.26.55-.13,1.1-.26,1.65-.38-.17-.8-.62-1.6-.38-2.43.28-.97.5-1.96.82-2.92Z"/>
    </g>
  </g>
</svg>