<?xml version="1.0" encoding="utf-8"?>
<!-- Generator: Adobe Illustrator 25.0.1, SVG Export Plug-In . SVG Version: 6.00 Build 0)  -->
<svg version="1.0" id="katman_1" xmlns="http://www.w3.org/2000/svg" xmlns:xlink="http://www.w3.org/1999/xlink" x="0px" y="0px"
	 viewBox="0 0 800 600" style="enable-background:new 0 0 800 600;" xml:space="preserve">
<style type="text/css">
	.st0{fill-rule:evenodd;clip-rule:evenodd;fill:#FFFFFF;}
	.st1{fill-rule:evenodd;clip-rule:evenodd;fill:#E20613;}
	.st2{fill:#FFFFFF;}
	.st3{clip-path:url(#SVGID_1_);fill:#FFFFFF;}
	.st4{clip-path:url(#SVGID_1_);}
	.st5{fill:#1D1D1B;}
	.st6{fill-rule:evenodd;clip-rule:evenodd;fill:#1E8CCC;}
	.st7{fill-rule:evenodd;clip-rule:evenodd;fill:#EBEBEB;}
	.st8{fill:none;stroke:#1D1D1B;stroke-width:0.8368;stroke-miterlimit:22.9256;}
	.st9{fill-rule:evenodd;clip-rule:evenodd;fill:#009540;}
	.st10{fill-rule:evenodd;clip-rule:evenodd;fill:#009EE2;}
	.st11{fill-rule:evenodd;clip-rule:evenodd;fill:#FFCB00;}
	.st12{fill:#0E0100;}
	.st13{fill:none;stroke:#009EE2;stroke-width:2.1961;stroke-miterlimit:22.9256;}
</style>
<path class="st0" d="M399.7,77.8c121.3,0,219.6,98.3,219.6,219.6S521,517,399.7,517c-121.3,0-219.6-98.3-219.6-219.6
	S278.4,77.8,399.7,77.8"/>
<path class="st1" d="M397.6,95.3c111.6-1.2,203,88.5,204.2,200.3c0.4,37.4-9.4,72.6-26.7,102.8c-0.1,0.1-0.1,0.3-0.2,0.3
	c-75,0-267.7-0.2-350.1,0.2c-0.2,0-0.2-0.4-0.3-0.5c-16.7-29-26.3-62.6-26.7-98.5C196.5,188.1,286,96.5,397.6,95.3"/>
<path class="st2" d="M398,101.9c108-1.2,196.5,84.8,197.6,192l0,1.7c0.1,35.3-9.4,68.4-25.9,97c-0.1,0.1-0.1,0.3-0.2,0.3
	c-72.6,0-259.1-0.2-338.9,0.2c-0.2,0-0.2-0.3-0.3-0.5c-16.1-27.9-25.5-60.1-25.8-94.5C203.4,190.9,290,103.1,398,101.9z"/>
<g>
	<defs>
		<path id="SVGID_5_" d="M398,101.9c108-1.2,196.5,84.8,197.6,192c0.4,35.9-9.1,69.6-25.9,98.6c-0.1,0.1-0.1,0.3-0.2,0.3
			c-72.6,0-259.1-0.2-338.9,0.2c-0.2,0-0.2-0.3-0.3-0.5c-16.1-27.9-25.5-60.1-25.8-94.5C203.4,190.9,290,103.1,398,101.9z"/>
	</defs>
	<clipPath id="SVGID_1_">
		<use xlink:href="#SVGID_5_"  style="overflow:visible;"/>
	</clipPath>
	<rect x="204.5" y="101.9" class="st3" width="391.1" height="291.2"/>
	<g class="st4">
		<g>
			<defs>
				<rect id="SVGID_2_" x="203.4" y="100.8" width="392.6" height="292.4"/>
			</defs>
			<clipPath id="SVGID_3_">
				<use xlink:href="#SVGID_2_"  style="overflow:visible;"/>
			</clipPath>
			<g style="clip-path:url(#SVGID_3_);">
				
					<image style="overflow:visible;" width="819" height="611" xlink:href="F691D389.jpg"  transform="matrix(0.48 0 0 0.48 203.04 100.32)">
				</image>
			</g>
		</g>
	</g>
</g>
<path class="st5" d="M491.2,158.1c-23.3-22.7-55.5-36.8-91.1-36.8c-35.6,0-67.8,14.1-91.1,36.8c-23.3,22.7-37.7,54.1-37.7,88.8
	c0,34.7,14.4,66,37.7,88.8c23.3,22.7,55.5,36.8,91.1,36.8s67.8-14.1,91.1-36.8c23.3-22.7,37.7-54.1,37.7-88.8
	C528.9,212.3,514.4,180.9,491.2,158.1 M400.1,119.8c36,0,68.6,14.2,92.2,37.2c23.6,23,38.2,54.8,38.2,89.9
	c0,35.1-14.6,66.9-38.2,89.9c-23.6,23-56.2,37.2-92.2,37.2s-68.6-14.2-92.2-37.2c-23.6-23-38.2-54.8-38.2-89.9
	c0-35.1,14.6-66.9,38.2-89.9C331.5,134,364.1,119.8,400.1,119.8z"/>
<path class="st1" d="M279.4,455.6l240.8-0.6c0.5,1.5,0.7,4.1-0.1,4.7c-97.7,77.6-220.5,21.5-240.1,1
	C277.9,458.5,278.4,456.8,279.4,455.6"/>
<path class="st0" d="M293.8,461.7l213.1-0.7C447.1,502.2,352.8,504,293.8,461.7"/>
<path class="st6" d="M399.8,159.1c49.9,0,90.3,39.9,90.3,89.1c0,49.2-40.5,89.1-90.3,89.1s-90.3-39.9-90.3-89.1
	C309.5,199.1,349.9,159.1,399.8,159.1"/>
<path class="st7" d="M376.6,177.5c12.4,8.7,22.4,16.2,33.9,23.1c7.4-6.7,15.9-12.7,27.2-17l11.3,9.2l40.5,38l1.5,15.8l-0.8,17.6
	l-179.4-0.9c-3-16.3-0.7-31.9,4.7-47C335.2,202.7,355.3,189.5,376.6,177.5z"/>
<path class="st8" d="M376.6,177.5c12.4,8.7,22.4,16.2,33.9,23.1c7.4-6.7,15.9-12.7,27.2-17l11.3,9.2l40.5,38l1.5,15.8l-0.8,17.6
	l-179.4-0.9c-3-16.3-0.7-31.9,4.7-47C335.2,202.7,355.3,189.5,376.6,177.5z"/>
<path class="st5" d="M463.6,186c-16.3-16.1-38.7-26-63.5-26c-24.8,0-47.3,10-63.5,26c-16.3,16.1-26.3,38.3-26.3,62.9
	c0,24.6,10.1,46.8,26.3,62.9c16.3,16.1,38.7,26,63.5,26c24.8,0,47.3-10,63.5-26c16.3-16.1,26.3-38.3,26.3-62.9
	C489.9,224.3,479.9,202.1,463.6,186 M400.1,158.3c25.2,0,48.1,10.1,64.6,26.5c16.5,16.4,26.8,39,26.8,64s-10.2,47.6-26.8,64
	c-16.5,16.4-39.4,26.5-64.6,26.5c-25.2,0-48.1-10.1-64.6-26.5c-16.5-16.4-26.8-39-26.8-64s10.2-47.6,26.8-64
	C352,168.5,374.8,158.3,400.1,158.3z"/>
<path class="st5" d="M315.6,215.6c-0.2,0.1-0.2,0.4-0.1,0.6c0.1,0.2,0.4,0.2,0.6,0.1c9.6-6.9,19.3-13.6,29.4-20.1
	c10-6.4,20.4-12.6,31.2-18.6c7.8,5.7,15.5,11,23,16.3c3.3,2.3,6.6,4.6,10.1,7.1c0.2,0.1,0.4,0.1,0.5-0.1c3.8-3.7,8.1-7.1,12.8-10.1
	c4.5-2.8,9.3-5.3,14.5-7.2c9.5,7.8,18.2,15.6,26.6,23.5c8.5,7.9,16.5,16,24.6,24.1c0.2,0.2,0.4,0.2,0.6,0c0.2-0.2,0.2-0.4,0-0.6
	c-8.1-8.2-16.1-16.2-24.6-24.1c-8.4-7.9-17.3-15.8-26.8-23.6c-0.1-0.1-0.3-0.1-0.4-0.1c-5.3,2-10.3,4.5-14.8,7.3
	c-4.7,3-9,6.3-12.7,10c-3.1-2.2-6.4-4.5-9.8-6.9c-7.6-5.3-15.3-10.7-23.2-16.4c-0.1-0.1-0.3-0.1-0.4,0l0.2,0.3l-0.2-0.3
	c-10.9,6-21.3,12.2-31.4,18.7C335,202,325.2,208.7,315.6,215.6"/>
<path class="st9" d="M310.5,263.3c59.8,0.3,119.1,0.5,178.9,0.8c-5,21-13.3,40.5-34.3,55.6c-29.5,19.4-57.4,23.6-88.9,11.9
	C337.6,320.5,317.9,298.5,310.5,263.3"/>
<path class="st10" d="M330.9,307.3l4.4-2.2l9.2-1.4l3.1-4.8l29.1-0.4l12.9-5.7l24.2-0.4l10.8-1l4-1.1l13.8-0.2c2.6-6.6,4.4-8.3,20-9
	c5.5-4.6,15.8-9.1,26.7-14.7c-2.1,3.6-11.6,13.7-15.4,17.1c-2,1.5-4.9,2.5-8.5,3.1c-12.6,9-27.6,11.6-38.2,18.9
	c-11.8,1.6-21.9,5.4-31,10.4l-12.6,1l-1.7,8.5c-6.4,0.4-8.1,4.8-11.2,8C356,329.4,343.6,320,330.9,307.3"/>
<path class="st5" d="M335.5,305.7l-3.7,1.8c6.1,6.1,12.2,11.4,18.5,15.7c6.4,4.4,12.9,7.7,20,9.8c0.6-0.6,1.1-1.3,1.7-2
	c2.2-2.7,4.4-5.4,9.3-5.9l1.6-8.1l0.1-0.4l0.4,0l12.5-1c4.6-2.5,9.4-4.7,14.5-6.4c5.1-1.8,10.6-3.1,16.5-3.9c5-3.4,10.8-5.7,17-8.2
	c7-2.8,14.4-5.8,21.1-10.6l0.1-0.1l0.1,0c1.8-0.3,3.4-0.7,4.8-1.2c1.4-0.5,2.5-1.1,3.5-1.8c2.1-1.9,5.8-5.7,9.1-9.4
	c1.9-2.1,3.7-4.2,4.9-5.8c-1.9,1-3.8,1.9-5.6,2.8c-7.9,3.9-14.9,7.4-19,10.8l-0.1,0.1l-0.2,0c-7.7,0.4-12,1-14.7,2.3
	c-2.6,1.3-3.6,3.2-4.9,6.4l-0.1,0.3l-0.4,0l-13.7,0.2l-3.9,1.1l-0.1,0l-0.1,0l-10.8,1h0l-24,0.4l-12.8,5.6l-0.1,0h-0.1l-28.8,0.4
	l-2.9,4.5l-0.1,0.2l-0.3,0L335.5,305.7z M330.7,306.8l4.4-2.2l0.1,0l0.1,0l9-1.3l2.9-4.6l0.2-0.3h0.3l29-0.4l12.8-5.6l0.1,0h0.1
	l24.1-0.4l10.8-0.9l3.9-1.1l0.1,0h0.1l13.4-0.2c1.3-3.2,2.5-5.3,5.3-6.7c2.8-1.4,7.2-2,14.9-2.4c4.3-3.5,11.2-6.9,19.1-10.8
	c2.5-1.2,5.1-2.5,7.6-3.8l0.6-0.2l0.2,1c-1,1.7-3.5,4.7-6.3,7.8c-3.3,3.7-7.1,7.6-9.2,9.5l0,0l0,0c-1,0.8-2.3,1.4-3.8,2
	c-1.4,0.5-3,0.9-4.9,1.2c-6.8,4.8-14.2,7.8-21.2,10.6c-6.1,2.5-12,4.8-16.9,8.2l-0.1,0.1l-0.1,0c-5.9,0.8-11.3,2.2-16.4,3.9
	c-5.1,1.8-9.9,3.9-14.4,6.4l-0.1,0.1l-0.1,0l-12.2,1l-1.6,8.1l-0.1,0.4l-0.4,0c-4.7,0.3-6.8,2.9-8.9,5.5c-0.6,0.8-1.3,1.6-2,2.3
	l-0.2,0.2l-0.3-0.1c-16-4.7-28.8-15.3-40-27.2L330.7,306.8z"/>
<path class="st5" d="M520.2,242.9l3.6-0.1l0.1,2.9l-3.6,0.1L520.2,242.9z M497,243.1l20.6-0.6l0.2,3.9l-20.6,0.6L497,243.1z
	 M499.9,217.8l0.9,3.7c-1.3,0.3-2.3,0.7-2.8,1.4c-0.5,0.7-0.7,1.6-0.4,2.8c0.2,0.9,0.7,1.6,1.3,2.1c0.7,0.5,1.4,0.7,2.2,0.5
	c1.2-0.2,2.1-1.8,2.5-4.8l0.1-0.4l0-0.4c0.1-0.8,0.2-1.5,0.4-2.2c0.2-0.6,0.3-1.1,0.6-1.5c0.3-0.6,0.7-1,1.3-1.4
	c0.6-0.4,1.3-0.7,2.1-0.8c1.8-0.3,3.4,0,4.7,1c1.4,1,2.3,2.6,2.8,4.6c0.5,2,0.3,3.6-0.5,4.8c-0.8,1.3-2.1,2.1-3.9,2.4l-0.1,0
	l-0.8-3.3c0.5-0.1,0.9-0.3,1.3-0.5c0.4-0.2,0.7-0.5,0.9-0.9c0.4-0.6,0.5-1.4,0.3-2.3c-0.2-0.9-0.6-1.5-1.2-2
	c-0.6-0.4-1.3-0.6-2.1-0.4c-1.2,0.2-2,1.9-2.4,5l0,0.2c-0.3,2.4-0.8,4-1.5,4.9c-0.7,0.9-1.7,1.4-3.2,1.7c-1.9,0.3-3.5,0-4.9-1.1
	c-1.4-1.1-2.3-2.7-2.9-5c-0.6-2.3-0.4-4.2,0.4-5.6c0.8-1.4,2.3-2.3,4.5-2.7L499.9,217.8z M484.6,199.2l18.7-7.7l5.8,10.9l-3.1,1.3
	l-3.9-7.3l-4.4,1.8l3.6,6.9l-3,1.2l-3.7-6.9l-5,2.1l4,7.6l-3.1,1.3L484.6,199.2z M472.9,183.2l5.9-4.2l5.7-11.9l2.9,3.2l-3.9,8.1
	l9.5-2l2.9,3.1l-14.4,2.5l-5.9,4.2L472.9,183.2z M473.5,154.8l2.3-2.4l2.5,1.9l-2.3,2.4L473.5,154.8z M457.9,169.8l13.5-13.7
	l3.3,2.5l-13.5,13.7L457.9,169.8z M439.3,155.6l2,0.9c1.9,0.8,3.6,1,4.9,0.5c1.4-0.5,2.6-1.7,3.6-3.5c1.1-1.9,1.4-3.5,1-4.8
	c-0.4-1.3-1.6-2.3-3.5-3.1l-2-0.9L439.3,155.6z M433.9,156.6l9-16.3l5.8,2.5c0.8,0.3,1.5,0.7,2.1,1c0.6,0.3,1.1,0.6,1.5,0.9
	c0.8,0.6,1.5,1.3,2,2.2c0.7,1.2,1.1,2.5,1,3.9c-0.1,1.4-0.5,2.9-1.3,4.4c-1.5,2.7-3.4,4.3-5.8,5c-2.4,0.7-5.2,0.3-8.5-1.1
	L433.9,156.6z M409.5,150.6l3.9-17.8l13.4,2.3l-0.6,2.9l-9-1.5l-0.9,4.2l8.5,1.4l-0.6,2.9l-8.5-1.4l-1.1,4.8l9.4,1.6l-0.7,3
	L409.5,150.6z M385.4,150.9l-1.4-18.1l4.4-0.3l1.2,15l9.3-0.6l0.2,3.1L385.4,150.9z M361.3,157.2l-7.1-17l12.9-4.1l1.2,2.8l-8.7,2.8
	l1.7,4l8.1-2.6l1.1,2.8l-8.1,2.6l1.9,4.6l9-2.9l1.2,2.8L361.3,157.2z M338.7,169.7l-11.8-14.8l5.8-3.6c2.2-1.4,4.1-2.1,5.6-2.1
	c1.5,0,2.8,0.6,3.8,1.9c0.7,0.8,1,1.6,0.9,2.4c0,0.8-0.4,1.6-1.1,2.5c1.4-0.4,2.6-0.5,3.7-0.3c1.1,0.3,2,0.9,2.8,1.8
	c0.5,0.6,0.8,1.2,1,1.8c0.2,0.6,0.2,1.2,0.1,1.8c-0.2,0.8-0.6,1.5-1.2,2.2c-0.7,0.7-1.9,1.6-3.7,2.7L338.7,169.7z M340.3,165.2
	l2.4-1.5c1.5-0.9,2.3-1.7,2.5-2.2c0.2-0.6,0-1.3-0.6-2.1c-0.6-0.8-1.3-1.2-2-1.2c-0.7,0-1.8,0.4-3.2,1.3L337,161L340.3,165.2z
	 M335.1,158.7l2.4-1.5c1.1-0.7,1.8-1.3,2-1.8c0.2-0.5,0.1-1.1-0.5-1.8c-0.6-0.7-1.2-1.1-1.8-1.1c-0.7,0-1.5,0.3-2.7,1l-2.4,1.5
	L335.1,158.7z M320,188.8c-0.6,0.7-1.2,1.3-2,1.7c-0.7,0.4-1.4,0.7-2.2,0.9c-1.7,0.4-3.5,0-5.3-1.2l-0.2-0.1l2.5-3.1
	c1.1,0.7,2.1,1,3.1,0.9c1-0.1,1.8-0.7,2.6-1.6c0.6-0.8,0.9-1.5,0.9-2.3c0-0.8-0.4-1.4-1-1.8c-1-0.7-2.9-0.1-5.8,1.6l-0.4,0.2
	l-0.4,0.2c-0.8,0.5-1.5,0.9-2.1,1.2c-0.6,0.3-1.2,0.5-1.7,0.7c-0.7,0.2-1.4,0.2-2.1,0.1c-0.7-0.1-1.4-0.4-2.1-0.8
	c-1.5-0.9-2.3-2.2-2.3-3.8c-0.1-1.6,0.6-3.2,2.1-4.9c1.3-1.6,2.8-2.6,4.4-2.9c1.6-0.3,3.1,0,4.7,1l0.1,0.1l-2.3,2.7
	c-0.4-0.3-0.8-0.4-1.3-0.5c-0.4-0.1-0.9-0.1-1.3,0c-0.8,0.1-1.5,0.6-2.2,1.4c-0.6,0.7-0.9,1.4-0.9,2.1c0,0.7,0.4,1.2,1,1.6
	c1,0.6,3,0,5.8-1.8l0.2-0.2c2.2-1.4,3.9-2.2,5.1-2.3c1.2-0.1,2.4,0.2,3.6,1c1.5,1,2.3,2.3,2.3,3.9c0,1.6-0.7,3.3-2.2,5.1l0.7,0.5
	l0.1-0.1c0.7-0.8,1.3-1.3,2-1.4c0.7-0.2,1.4,0,2.1,0.4c0.7,0.5,1.1,1.1,1.1,1.7c0,0.7-0.3,1.5-1.1,2.3c-0.3,0.4-0.7,0.7-1.1,1.1
	c-0.2,0.2-0.5,0.4-0.7,0.6c-0.3,0.2-0.6,0.4-0.8,0.6l-1.5-0.9c0.2-0.1,0.4-0.3,0.7-0.5c0.3-0.2,0.6-0.4,0.9-0.7
	c0.2-0.2,0.4-0.3,0.6-0.5c0.2-0.2,0.3-0.3,0.5-0.5c0.3-0.3,0.4-0.6,0.4-0.9c0-0.3-0.1-0.5-0.4-0.7c-0.3-0.2-0.6-0.2-0.8-0.1
	c-0.3,0.1-0.6,0.4-0.9,0.8l-0.3,0.4c-0.1,0.1-0.1,0.2-0.2,0.2L320,188.8z M285.1,210.7l1.5-3.6l12.2,3.9c1.4,0.5,2.6,0.5,3.6,0.1
	c1-0.4,1.7-1.2,2.3-2.5c0.5-1.3,0.5-2.3,0.1-3.1c-0.5-0.8-1.5-1.5-3-2l-12-3.8l1.4-3.5l11.9,3.8c2.6,0.8,4.3,2.1,5.1,3.7
	c0.8,1.6,0.7,3.6-0.4,6.1c-1,2.5-2.4,4.1-4.2,4.9c-1.8,0.8-4,0.8-6.6-0.1L285.1,210.7z M299.7,246.9l-20.6-1.3l0.5-6.1l15.2-2.9
	l-14.6-4.7l0.5-6.2l20.6,1.3l-0.3,3.6l-17.4-1.1l17,5.8l-0.3,3.4l-17.8,3.6l17.4,1.1L299.7,246.9z"/>
<path class="st5" d="M445.1,343.3c-0.3-0.8-0.8-1.4-1.5-1.6c-0.7-0.2-1.5-0.1-2.4,0.3c-0.9,0.5-1.5,1.1-1.8,1.8
	c-0.3,0.7-0.3,1.5,0.1,2.4c0.3,0.9,0.9,1.4,1.5,1.7c0.7,0.3,1.4,0.2,2.3-0.3c0.9-0.5,1.5-1.1,1.8-1.8
	C445.4,344.9,445.4,344.1,445.1,343.3 M438.2,356l4.7-2.5c0.3,0.5,0.7,0.8,1.2,0.9c0.5,0.1,1.1-0.1,1.8-0.4c1-0.5,1.6-1.3,1.9-2.2
	c0.3-1,0.1-2.1-0.4-3.4l-0.1-0.3l-0.1-0.2c-0.5,0.8-1,1.6-1.7,2.2c-0.7,0.7-1.4,1.2-2.2,1.6c-1,0.5-1.9,0.8-2.7,0.9
	c-0.8,0.1-1.6,0.1-2.4-0.2c-1.5-0.5-2.6-1.6-3.4-3.5c-0.8-2-0.7-3.9,0.2-5.7c0.9-1.8,2.5-3.3,4.9-4.6c2.5-1.3,4.7-1.5,6.6-0.6
	c2,0.9,3.5,2.7,4.6,5.6c1.2,3.2,1.5,5.9,0.7,8.2c-0.7,2.3-2.5,4.2-5.2,5.6c-2,1-3.7,1.4-5.1,1.2C440.1,358.3,439,357.5,438.2,356z
	 M428.3,364.5l-15.7,2.4l-0.5-4.1c1.2-1,2.5-2,3.7-3.1c1.2-1.1,2.3-2.2,3.4-3.3c1-1.1,1.7-1.9,2-2.6c0.3-0.6,0.4-1.3,0.3-2.1
	c-0.1-0.8-0.4-1.4-0.8-1.7c-0.5-0.3-1.1-0.5-2-0.3c-0.8,0.1-1.4,0.5-1.8,1c-0.2,0.3-0.3,0.6-0.4,1c-0.1,0.4-0.1,0.8,0,1.2l-5,0.7
	c-0.2-2.1,0.2-3.9,1.3-5.2c1.1-1.3,2.9-2.1,5.3-2.5c2.4-0.4,4.4-0.1,5.9,0.8c1.5,0.9,2.3,2.3,2.6,4.2c0.2,1.7-0.3,3.5-1.5,5.2
	c-1.2,1.7-3.3,3.7-6.4,6.1l9.1-1.4L428.3,364.5z M397.3,353.2c0.1-0.9-0.1-1.7-0.6-2.3c-0.5-0.6-1.2-1-2.2-1.1c-1-0.1-1.7,0-2.3,0.5
	c-0.6,0.4-0.9,1.1-1,2c-0.1,1,0.1,1.7,0.6,2.4c0.5,0.6,1.2,1,2.1,1.1c0.9,0.1,1.7,0,2.3-0.5C396.8,354.8,397.2,354.1,397.3,353.2z
	 M385.7,359.9l5.1,0.7c0,0.6,0.2,1.1,0.6,1.5c0.4,0.4,1,0.6,1.7,0.7c1.1,0.1,1.9-0.1,2.6-0.8c0.7-0.7,1.1-1.7,1.2-3.1l0-0.4l0-0.3
	c-0.8,0.4-1.6,0.7-2.4,0.9c-0.9,0.2-1.7,0.2-2.6,0.1c-1-0.1-2-0.4-2.7-0.8c-0.8-0.4-1.4-0.9-2-1.6c-1.1-1.3-1.5-3-1.3-5
	c0.2-2.2,1.1-3.8,2.7-4.8c1.6-1,3.7-1.3,6.3-1c2.7,0.4,4.7,1.5,6,3.4c1.3,1.9,1.8,4.5,1.5,7.6c-0.3,3.4-1.3,5.9-3,7.4
	c-1.7,1.5-4,2.1-6.9,1.7c-2.2-0.3-3.8-1-4.9-2C386.3,363.1,385.7,361.7,385.7,359.9z M369.8,360.4l-4.6-1.7l3.7-13.6
	c-0.7,0.2-1.5,0.4-2.4,0.4c-0.9,0.1-1.9,0.1-3,0l1.2-4.4c0.5,0,1.1-0.1,1.7-0.1c0.6-0.1,1.1-0.1,1.6-0.2c1-0.2,2-0.4,2.9-0.7
	l4.1,1.5L369.8,360.4z"/>
<path class="st5" d="M564.8,412l-6.1-0.1l0.1-4.9l6.1,0.1L564.8,412z M565.6,442.1l-8.3-0.1l0.3-27.3l8.3,0.1L565.6,442.1z
	 M553,422.5l-7.9-0.1c-0.2-1.6-1.3-2.4-3.3-2.4c-1.8,0-2.7,0.5-2.7,1.5c0,0.9,0.8,1.6,2.4,2.1l5.3,1.7c2,0.6,3.6,1.5,4.8,2.6
	c1.3,1.2,1.9,2.9,1.9,5.2c0,4.1-2,6.9-5.8,8.3c-1.8,0.7-3.9,1-6.2,1c-3.2,0-5.9-1-8-2.8c-1.5-1.3-2.5-2.9-2.9-4.7
	c-0.2-0.6-0.2-1.2-0.2-1.8l8,0.1c0.1,0.9,0.6,1.6,1.3,2.2c0.7,0.5,1.5,0.7,2.4,0.7c1.4,0,2.4-0.3,3-0.9c0.3-0.3,0.4-0.7,0.4-1.1
	c0-0.9-0.8-1.6-2.4-2.1l-5.3-1.7c-4.5-1.4-6.8-4.1-6.7-8.1c0-3.8,1.8-6.3,5.4-7.7c1.7-0.6,3.6-0.9,5.7-0.9c2.9,0,5.3,0.7,7.1,2.1
	C551.4,417.3,552.6,419.5,553,422.5z M527.6,441.7l-21.2-0.2l0.3-27.3l20.7,0.2l-0.1,6.4l-12.4-0.1l0,3.9l10.5,0.1l-0.1,6.4
	l-10.5-0.1l0,4.3l12.9,0.1L527.6,441.7z M494.3,431.2l-0.1,10.1l-8.3-0.1l0.1-10l-9.3-17.5l9.3,0.1l4.3,9.3l4.5-9.2l9.2,0.1
	L494.3,431.2z M472.8,411l-6.1-0.1l0.1-4.9l6.1,0.1L472.8,411z M473.6,441.1l-8.3-0.1l0.3-27.3l8.3,0.1L473.6,441.1z M446,419.8
	l-0.2,14.6l1.8,0c4,0,6-2.4,6.1-7.3c0-3.6-0.8-5.8-2.5-6.6c-0.9-0.4-2.1-0.7-3.6-0.7L446,419.8z M448.4,440.8l-10.9-0.1l0.3-27.3
	l11.1,0.1c4.2,0,7.4,1.1,9.7,3.3c2.3,2.2,3.5,5.6,3.4,10C461.9,436.2,457.3,440.9,448.4,440.8z M433.6,440.6l-21.2-0.2l0.3-27.3
	l20.7,0.2l-0.1,6.4l-12.4-0.1l0,3.9l10.5,0.1l-0.1,6.4l-10.5-0.1l0,4.3l12.9,0.1L433.6,440.6z M408.6,440.3l-19.7-0.2l0.3-27.3
	l8.3,0.1l-0.2,21l11.4,0.1L408.6,440.3z M384.6,440.1l-21.2-0.2l0.3-27.4l20.7,0.2l-0.1,6.4L372,419l0,3.9l10.5,0.1l-0.1,6.4
	l-10.5-0.1l0,4.3l12.9,0.1L384.6,440.1z M346.9,428.2l-2.7,0l-0.1,5.1l3.6,0c2.4,0,3.6-0.8,3.6-2.5c0-1.4-0.7-2.2-2-2.4
	C348.8,428.3,348,428.2,346.9,428.2z M347.3,418.7l-2.9,0l-0.1,4.6l3.5,0c1.9,0,2.9-0.8,2.9-2.4c0-1-0.4-1.6-1.1-1.9
	C349.2,418.8,348.4,418.7,347.3,418.7z M348.2,439.7l-12.4-0.1l0.3-27.3l12.1,0.1c3.2,0,5.6,0.5,7.3,1.5c1.9,1.1,2.9,3,2.9,5.5
	c0,2.5-1.2,4.4-3.4,5.9c1.8,0.5,3,1.7,3.7,3.5c0.3,0.9,0.5,1.8,0.4,2.8c0,2.9-1,5-3,6.3C354.4,439.1,351.7,439.7,348.2,439.7z
	 M303.7,447.6l0.8-1.7c0.2,0.1,0.5,0.2,1,0.3l1.1,0.3c0.3,0.1,0.6,0.1,0.9,0.1c1.2,0,1.9-0.4,1.9-1.3c0-0.4-0.2-0.8-0.5-1
	c-0.3-0.3-0.7-0.4-1.1-0.4c-0.4,0-0.9,0.1-1.3,0.4l-0.9-0.9l2-3.5l2,0l-1.4,2.4c0.2-0.1,0.5-0.1,1-0.1l0.7,0c0.2,0,0.3,0.1,0.4,0.1
	c0.6,0,1.2,0.3,1.8,0.9c0.5,0.6,0.8,1.2,0.8,1.9c0,0.2,0,0.4-0.1,0.7c-0.3,1-0.8,1.7-1.7,2.2c-0.8,0.5-1.7,0.7-2.7,0.7
	C307,448.6,305.5,448.3,303.7,447.6z M319.9,419.9l-7.9-0.1c-0.2-1.6-1.3-2.4-3.3-2.4c-1.8,0-2.7,0.5-2.7,1.5c0,0.9,0.8,1.6,2.4,2.1
	l5.3,1.7c2,0.6,3.6,1.5,4.8,2.6c1.3,1.2,1.9,2.9,1.9,5.2c0,4.1-2,6.9-5.8,8.3c-1.8,0.7-3.9,1-6.2,1c-3.2,0-5.9-1-8-2.8
	c-1.5-1.3-2.5-2.9-2.9-4.7c-0.2-0.6-0.2-1.2-0.2-1.8l8,0.1c0.1,0.9,0.6,1.6,1.3,2.2c0.7,0.5,1.5,0.7,2.4,0.7c1.4,0,2.4-0.3,3-0.9
	c0.3-0.3,0.4-0.7,0.4-1.1c0-0.9-0.8-1.6-2.4-2.1l-5.3-1.7c-4.5-1.4-6.8-4.1-6.7-8.1c0-3.8,1.8-6.3,5.4-7.7c1.7-0.6,3.6-0.9,5.7-0.9
	c2.9,0,5.3,0.7,7.1,2.1C318.4,414.7,319.6,417,319.9,419.9z M269.4,426.9l0.2-15.4l8.3,0.1l-0.2,16.4c0,1.7,0.2,2.9,0.7,3.7
	c0.6,0.9,1.6,1.4,3.1,1.4c1.9,0,3-0.7,3.6-2.3c0.2-0.7,0.4-1.6,0.4-2.7l0.2-16.4l8.3,0.1l-0.2,15.5c-0.1,5.8-1.9,9.5-5.4,11.2
	c-1.8,0.9-4.1,1.3-6.9,1.3c-4.1,0-7.1-1-9.1-2.9C270.3,434.7,269.3,431.4,269.4,426.9z M243.1,438.5l-7.5-0.1l0.3-27.3l10.1,0.1
	l4.3,17.1l4.7-17l10,0.1l-0.3,27.4l-7.5-0.1l0.1-8.4l0.1-4.2l0.5-4.9h-0.1l-4.8,17.5l-5.8-0.1l-4.4-17.6h-0.1l0.3,4l0.1,4.2
	L243.1,438.5z"/>
<path class="st1" d="M456.1,240.9c-1.7,0.1-3.3-0.1-4.9-0.6l-1.9-8l-7.1,5l-4.1-5.8c0.1,7.5-2.8,13.5-6.7,18.9
	c-1.3,4.2,1.2,6.9,5.1,9C452,264.6,446.6,246.4,456.1,240.9"/>
<path class="st5" d="M453.7,240.3c0.8,0.1,1.5,0.1,2.3,0.1c0.2,0,0.4,0.1,0.6,0.3c0.2,0.3,0.1,0.6-0.2,0.8l-0.3-0.5l0.3,0.5
	c-3.6,2.1-5,6.2-6.3,10c-2.1,6.2-4,11.8-13.8,8.5c-0.1,0-0.1,0-0.1-0.1c-2-1.1-3.6-2.4-4.6-3.9c-1-1.6-1.4-3.5-0.7-5.7
	c0-0.1,0-0.1,0.1-0.2l0.5,0.3l-0.5-0.3c1.9-2.7,3.6-5.5,4.8-8.5c1.2-3,1.9-6.3,1.8-10c0-0.2,0.1-0.4,0.2-0.5
	c0.3-0.2,0.6-0.1,0.8,0.1l-0.5,0.3l0.5-0.3l3.8,5.3l6.6-4.6c0.1-0.1,0.1-0.1,0.2-0.1c0.3-0.1,0.6,0.1,0.7,0.4l-0.5,0.1l0.5-0.1
	l1.8,7.7C452.3,240.1,453,240.2,453.7,240.3 M454.3,241.5c-0.3,0-0.5,0-0.8-0.1c-0.8-0.1-1.7-0.3-2.5-0.5l0.2-0.5l-0.2,0.5
	c-0.2-0.1-0.3-0.2-0.4-0.4l-1.7-7.2l-6.4,4.5l-0.3-0.5l0.3,0.5c-0.3,0.2-0.6,0.1-0.8-0.1l0,0l-3.1-4.4c-0.2,3.1-0.8,6-1.9,8.7
	c-1.2,3.1-2.9,6-4.9,8.7c-0.5,1.9-0.3,3.4,0.6,4.7c0.9,1.4,2.4,2.5,4.2,3.5c8.7,2.9,10.4-2.1,12.3-7.8
	C450.2,247.6,451.4,243.9,454.3,241.5z"/>
<path class="st5" d="M442.6,237.2c-0.1-0.2-0.3-0.3-0.5-0.3c-0.2,0.1-0.3,0.3-0.3,0.5l1.8,6.3c-1.1,0.9-2,2-2.8,3.1
	c-2.2,3.3-3.4,7.6-4,12.7c-7.3,14.2-15.2,26.3-24,36c-8.8,9.7-18.3,16.9-28.8,21.5c-0.2,0.1-0.3,0.3-0.2,0.5
	c0.1,0.2,0.3,0.3,0.5,0.2c10.6-4.6,20.3-12,29.1-21.7c8.8-9.7,16.8-21.9,24.1-36.2c0-0.1,0.1-0.1,0.1-0.2c0.6-5.1,1.8-9.3,3.9-12.4
	c1.6-2.4,3.8-4.3,6.7-5.5c0.9-0.4,1.9-0.7,2.9-1c0.2-0.1,0.3-0.3,0.3-0.5c-0.1-0.2-0.3-0.3-0.5-0.3l0,0c-1.1,0.3-2.1,0.6-3,1
	c-0.3,0.1-0.6,0.3-0.9,0.4c-1,0.5-1.9,1-2.7,1.6L442.6,237.2z"/>
<path class="st1" d="M350.3,228.7c1.6,0.5,3.2,0.7,4.9,0.6l3.7-7.3l5.7,6.5l5.4-4.7c-1.8,7.3-0.4,13.7,2.1,19.9
	c0.2,4.4-2.8,6.4-7,7.6C348.8,252.7,358.3,236.2,350.3,228.7"/>
<path class="st11" d="M407.3,255.7c5.2,1.5,6.1,12.5,3.5,25.6c-2.6,13.1-10.1,21.8-15,20.5c-5-1.4-5.6-12.1-2.2-25.5
	C396.9,262.9,402.1,254.2,407.3,255.7"/>
<path class="st5" d="M403.2,257l2.8,5.2l1.7-5.9c-0.2-0.1-0.3-0.1-0.5-0.2c0,0-0.1,0-0.2,0C405.8,255.7,404.5,256.1,403.2,257
	 M398.7,262.8l5.2,6.6l0.7-2.3l1.1-3.9l-3.1-5.7c-0.7,0.6-1.4,1.4-2,2.3C400,260.6,399.3,261.7,398.7,262.8z M395.3,271.2l6.3,6.7
	l0.7-2.6l0.2-0.8l1.2-4.2l-5.4-6.8C397.3,265.7,396.2,268.3,395.3,271.2z M393.5,278l6.1,7.2l0.9-3.4l0.1-0.2l0.8-2.9l-6.3-6.7
	c-0.1,0.2-0.1,0.5-0.2,0.7c-0.3,1.1-0.7,2.3-1,3.5C393.7,276.9,393.6,277.4,393.5,278z M392.1,285.4l5.1,7.9l1.1-3.9l0.9-3.3l-6-7.2
	C392.8,281.2,392.4,283.3,392.1,285.4z M395.1,301l1.9-6.7l-5-7.7c-0.3,2.6-0.3,5-0.1,7.1C392.2,297.4,393.3,300.1,395.1,301z
	 M409,286.4l-10.1,4.1l-1.1,3.8v0l0,0.2l0,0.1l-0.2,0.7l0,0l-1.7,6.2h0c0.1,0,0.1,0,0.2,0.1c2.1,0.4,4.7-1.1,7.2-4
	C405.5,294.7,407.5,290.9,409,286.4z M410.9,278.1l-9.7,4.1l-2,7.2l10.2-4.1c0.1-0.3,0.2-0.7,0.3-1c0.3-1,0.5-2.1,0.7-3.2
	C410.6,280.2,410.8,279.1,410.9,278.1z M411.7,271.3l-8.4,3.6l-1.8,6.3l9.6-4.1C411.4,275.1,411.6,273.2,411.7,271.3z M411.7,265.5
	l-6.3,2l-1.8,6.5l8.2-3.5C411.8,268.7,411.8,267,411.7,265.5z M408.4,256.7l-2.8,9.9l6-1.9c0-0.3-0.1-0.6-0.1-0.9
	C411,260.4,410,257.9,408.4,256.7z M407.4,255.3c2.7,0.8,4.3,3.9,4.9,8.4c0.6,4.7,0.2,10.9-1.1,17.7c-0.2,1.1-0.5,2.2-0.8,3.2
	c-1.5,5.6-3.9,10.2-6.5,13.3c-2.6,3.2-5.5,4.8-8,4.3c-0.1,0-0.2,0-0.3-0.1c-2.6-0.7-4.1-3.8-4.5-8.4c-0.4-4.6,0.3-10.8,2-17.6
	c0.3-1.2,0.6-2.4,1-3.6c1.7-5.6,3.7-10.2,5.9-13.3c2.3-3.1,4.7-4.7,7.2-4C407.2,255.3,407.3,255.3,407.4,255.3z"/>
<path class="st11" d="M391.7,256.3c5.4,0,9.3,10.2,10.5,23.5c1.2,13.3-3.5,23.8-8.7,23.9c-5.2,0.1-8.8-10-9.3-23.8
	C383.8,266.1,386.4,256.3,391.7,256.3"/>
<path class="st12" d="M387.8,259.3l3.7,3.5l-0.3-6C389.9,257,388.8,257.8,387.8,259.3 M385.4,266.4l6.4,3.9l-0.1-2.4l-0.2-4
	l-4.1-3.8c-0.3,0.6-0.7,1.4-0.9,2.2C386,263.4,385.7,264.8,385.4,266.4z M384.6,275.3l7.6,3.8l-0.1-2.7l0-0.8l-0.2-4.4l-6.6-4
	C384.9,269.6,384.7,272.3,384.6,275.3z M384.8,282.2l7.8,4.4l-0.2-3.5l0-0.2l-0.1-3l-7.7-3.7v0.3c0,1.1,0,2.2,0.1,3.4
	C384.7,280.7,384.8,281.4,384.8,282.2z M385.6,289.4l7.4,5.5l-0.2-4l-0.2-3.4l-7.8-4.4C385,285.3,385.3,287.4,385.6,289.4z
	 M393.4,303.4l-0.3-7.4l-7.3-5.5c0.5,2.5,1.1,4.8,1.8,6.7C389.2,301,391.1,303.3,393.4,303.4z M402.1,284.1l-8.4,7.5l0.2,3.9v0
	l0,0.2l0,0.1l0,0.7l0.3,6.7c2-0.4,4-2.5,5.5-5.9C401.1,294,402.1,289.4,402.1,284.1z M401.4,275.6l-8.1,7.6l0.6,6.9l8.2-7.3
	c0-0.9-0.1-1.9-0.2-2.9C401.7,278.4,401.6,277,401.4,275.6z M400.1,268.9l-7.2,6.7l0.3,6.6l8-7.7
	C400.9,272.5,400.5,270.6,400.1,268.9z M398.3,263.4l-5.8,4.5l0.3,6.7l7-6.5C399.4,266.4,398.9,264.8,398.3,263.4z M392,256.7
	l0.5,10.2l5.5-4.3C396.3,259.1,394.3,256.9,392,256.7z M391.7,255.9c2.8,0,5.2,2.5,7,6.6c1.3,3,2.4,6.8,3.1,11.2l0,0l0,0.1
	c0.3,1.9,0.6,3.9,0.8,6c0.1,1.1,0.2,2.1,0.2,3.2c0.1,5.8-0.9,11-2.5,14.7c-1.7,3.8-4,6.2-6.5,6.4v0c-0.1,0-0.2,0-0.3,0
	c-2.7,0.1-5-2.5-6.7-6.7c-1.7-4.3-2.8-10.4-3-17.5c0-1.2-0.1-2.3-0.1-3.5c0-6,0.6-11,1.9-14.6c1.3-3.7,3.2-5.9,5.8-6
	C391.7,255.9,391.7,255.9,391.7,255.9z"/>
<path class="st5" d="M363.4,278.6c4.7,5.9,10.4,11.2,16.9,16c-3.5-7.2-6.9-13-11.2-18.5c-4.3-5.6-9.5-10.9-16.5-17.3
	C355,266.1,358.7,272.7,363.4,278.6 M381.1,296.1c-7-5-13.2-10.6-18.3-17c-5.1-6.4-9-13.5-11.4-21.5c-0.1-0.2,0.1-0.4,0.3-0.5
	c0.1-0.1,0.3,0,0.4,0.1c7.6,6.9,13.1,12.5,17.6,18.4c4.6,5.9,8.2,12.1,11.9,20l0,0c0.1,0.2,0,0.4-0.2,0.5
	C381.4,296.2,381.2,296.2,381.1,296.1z"/>
<path class="st5" d="M362.6,271.8c-0.1-0.2-0.4-0.2-0.6-0.1c-0.2,0.1-0.2,0.4-0.1,0.6l14,17.8c0.1,0.2,0.4,0.2,0.6,0.1
	c0.2-0.1,0.2-0.4,0.1-0.6L362.6,271.8z"/>
<path class="st5" d="M374.7,273.1c1,7.3,3.1,14.5,6.1,20.8c0.2-7.2,0.1-13.8-0.8-20.7c-0.9-6.9-2.5-14-5.3-22
	C373.7,258.2,373.7,265.7,374.7,273.1 M380.9,295.8c-3.4-6.8-5.8-14.6-6.9-22.5c-1.2-8.1-1.1-16.2,0.3-23.6l0.3-1.4l0.5,1.4
	c3.1,8.6,4.9,16.2,5.9,23.5c0.9,7.4,1,14.6,0.7,22.4l-0.1,1.5L380.9,295.8z"/>
<path class="st5" d="M377.3,265.4c0-0.2-0.2-0.4-0.4-0.3c-0.2,0-0.4,0.2-0.3,0.4l2.9,21.6c0,0.2,0.2,0.4,0.4,0.3
	c0.2,0,0.4-0.2,0.3-0.4L377.3,265.4z"/>
<path class="st5" d="M432.2,287c-6.4,5-13.7,9-21.7,12.2c-0.1,0.1-0.3,0.1-0.4,0c-0.2-0.1-0.2-0.4-0.1-0.6
	c5.5-6.9,10.5-12,16.3-16.6c5.8-4.7,12.5-8.8,21.4-13.8c0.1-0.1,0.3-0.1,0.4,0c0.2,0.1,0.3,0.4,0.1,0.5l-0.3-0.2l0.3,0.2
	C444.1,275.9,438.7,282,432.2,287 M411.6,297.9c7.4-3.1,14.2-6.9,20.1-11.5c6-4.7,11.1-10.2,15.1-16.8c-8.3,4.6-14.6,8.6-20.1,13
	C421.4,286.9,416.7,291.7,411.6,297.9z"/>
<path class="st5" d="M434.6,280.5c0.2-0.1,0.2-0.4,0.1-0.5c-0.1-0.2-0.4-0.2-0.6-0.1l-17.8,14c-0.2,0.1-0.2,0.4-0.1,0.6
	c0.1,0.2,0.4,0.2,0.6,0.1L434.6,280.5z"/>
<path class="st5" d="M422.8,278.7c-2.9,7.4-7,14.5-11.9,20.2c-0.1,0.1-0.2,0.2-0.4,0.2c-0.2,0-0.4-0.3-0.3-0.5
	c1.5-7.6,3.3-14.6,5.9-21.6c2.6-7,6.1-13.9,11.2-21.5c0.1-0.1,0.2-0.2,0.4-0.2c0.2,0,0.4,0.2,0.4,0.4
	C427.6,263.2,425.8,271.1,422.8,278.7 M411.2,297.2c4.4-5.5,8.1-12,10.8-18.8c2.8-7,4.5-14.3,5-21.2c-4.6,7.1-7.8,13.6-10.3,20.1
	C414.3,283.7,412.7,290.2,411.2,297.2z"/>
<path class="st5" d="M358.8,188.9c-0.1-0.3-0.3-0.5-0.7-0.4c-0.3,0.1-0.5,0.4-0.4,0.7c0.6,2.9,1.3,5.7,1.3,5.7l0.5-0.1l-0.5,0.1
	c0.1,0.3,0.4,0.5,0.7,0.4c0.1,0,0.1-0.1,0.2-0.1l5.3-3.1l2.5,5.4l0.5-0.2l-0.5,0.2c0.1,0.3,0.5,0.4,0.7,0.3c0.1-0.1,0.2-0.2,0.3-0.3
	l2.5-4.8l2.7,5.4l0.5-0.2l-0.5,0.3c0.1,0.3,0.5,0.4,0.8,0.2c0.1-0.1,0.2-0.2,0.3-0.3l1-2.3l2.3,0.6c0.3,0.1,0.6-0.1,0.7-0.4l0,0
	l0.7-2.6l5.4,4.9l0.4-0.4L385,198c0.2,0.2,0.6,0.2,0.8,0c0.1-0.1,0.1-0.1,0.1-0.2l1.1-3.1l4.4,2c0.3,0.1,0.5,0,0.7-0.2l3.3-4.4
	c0.2-0.2,0.1-0.6-0.1-0.8c-0.2-0.2-0.6-0.1-0.8,0.1l-3,4l-4.5-2.1c0,0,0,0-0.1,0c-0.3-0.1-0.6,0-0.7,0.3l-1.1,2.9l-5.4-4.9
	c-0.1-0.1-0.2-0.1-0.3-0.2c-0.3-0.1-0.6,0.1-0.7,0.4l0.5,0.1l-0.5-0.1l-0.8,3l-2.1-0.5c-0.3-0.1-0.6,0-0.7,0.3l-0.8,1.7l-2.7-5.3
	c-0.1-0.1-0.1-0.2-0.3-0.3c-0.3-0.1-0.6,0-0.8,0.2l0.5,0.3l-0.5-0.3l-2.5,4.8L366,191c0,0,0-0.1,0-0.1c-0.2-0.3-0.5-0.4-0.8-0.2v0
	l-5.3,3C359.7,192.8,359.2,190.9,358.8,188.9"/>
<path class="st5" d="M351,202L351,202L351,202L351,202z M351.2,201.2L351.2,201.2C351.2,201.2,351.2,201.2,351.2,201.2L351.2,201.2z
	 M351.2,201.2L351.2,201.2L351.2,201.2L351.2,201.2L351.2,201.2l0-0.3c0.3,0.1,0.4,0.3,0.4,0.6c0-0.2,0-0.4-0.2-0.5v0
	C351.3,200.9,351.2,201,351.2,201.2L351.2,201.2z M351.6,201.5L351.6,201.5L351.6,201.5z M356.6,196.3c0.2-0.3,0.1-0.6-0.2-0.8
	c-0.3-0.2-0.6-0.1-0.8,0.2c-0.5,0.8-1,1.3-1.5,1.9c-0.3,0.3-0.6,0.7-0.9,1.1c-0.3,0.4-0.7,0.6-1.1,0.9l0.3,0.5l-0.3-0.5l0,0
	l-0.2,0.1h0c0,0-0.1,0.1-0.1,0.1c-0.3,0.2-0.7,0.7-1,1l0,0c0,0.1-0.1,0.1-0.1,0.2c-0.2,0.3-0.2,0.6,0.1,0.8l0.2-0.2l-0.2,0.2
	c0.1,0.1,0.2,0.1,0.3,0.1c0,0-0.1,0-0.1,0l0.1-0.3c0.2,0.1,0.3,0.1,0.5,0c0,0,0.1,0,0.1,0l0,0c0,0,0,0.1-0.1,0.1
	c-0.1,0.1-0.3,0.2-0.4,0.2c0.2,0,0.4-0.1,0.5-0.3l0,0c0,0,0,0,0,0l0,0l0.1-0.1l0,0v0c0.2-0.3,0.7-0.8,0.8-0.9l0,0l0-0.1l0,0.1
	l0.2-0.1l0,0l0,0h0h0c0.5-0.3,1-0.6,1.4-1.1c0.3-0.4,0.6-0.7,0.9-1C355.5,197.8,356.1,197.2,356.6,196.3z"/>
<path class="st5" d="M362.4,200.9c0,0-0.1,0-0.1-0.1c-0.1-0.1-0.2-0.4-0.1-0.5l0.1,0l0-0.1l0,0v0l0,0l0,0v0l0,0l0,0l0,0l0.1,0
	L362.4,200.9z M362.6,199.8L362.6,199.8C362.6,199.8,362.6,199.8,362.6,199.8z M365.8,197.5c0.2-0.2,0.3-0.6,0.1-0.8
	c-0.2-0.2-0.6-0.3-0.8-0.1c-0.4,0.4-0.7,0.7-1.1,1.1c-0.1,0.2-0.3,0.3-0.3,0.4c0,0,0,0,0,0c-0.2,0.2-0.3,0.4-0.4,0.5
	c-0.1,0.2-0.3,0.4-0.5,0.6c-0.1,0.1-0.2,0.3-0.3,0.4l0,0v0v0l0,0.1h0l0-0.1v0v0l0,0l0,0c-0.1,0.1-0.2,0.1-0.3,0.2l0,0v0
	c-0.1,0.1-0.1,0.2-0.2,0.2v0c-0.3,0.1-0.4,0.4-0.3,0.7c0.1,0.3,0.4,0.4,0.7,0.4c0.3-0.1,0.4-0.3,0.5-0.4c0,0,0,0,0-0.1
	c0,0,0,0,0.1,0v0c0.1-0.1,0.2-0.1,0.3-0.2c0,0,0,0,0.1-0.1l-0.4-0.3l0.4,0.3c0.1-0.1,0.1-0.1,0.1-0.2c0,0,0-0.1,0.1-0.1
	c0.3-0.3,0.5-0.6,0.6-0.9c0.1-0.1,0.2-0.3,0.3-0.4c0,0,0,0,0,0l0,0c0.2-0.2,0.3-0.3,0.4-0.4C365.2,198.2,365.5,197.8,365.8,197.5z"
	/>
<path class="st5" d="M395.4,197.2c-0.2-0.2-0.6-0.2-0.8,0c-0.2,0.2-0.2,0.6,0,0.8c0.8,0.8,1.3,1.6,1.8,2.3c0.3,0.4,0.5,0.8,0.8,1.1
	l0.9,1.1c0.2,0.2,0.5,0.4,0.8,0.5c0.1,0.1,0.3,0.1,0.3,0.1c0.1,0.3,0.4,0.5,0.7,0.4c0.3-0.1,0.4-0.4,0.4-0.7
	c-0.1-0.4-0.5-0.6-0.9-0.8c-0.2-0.1-0.3-0.2-0.4-0.2l-0.9-1.1c-0.2-0.3-0.5-0.6-0.7-1C396.8,198.9,396.2,198,395.4,197.2"/>
<path class="st5" d="M447.2,208.1c-0.2-0.3-0.5-0.4-0.8-0.2c-0.3,0.2-0.4,0.5-0.2,0.8c1.9,3.2,2.7,6.5,3.5,9.6c0.5,2,1,3.9,1.7,5.8
	c0.5,1.3,1.3,2.7,2.1,4.1c1.4,2.4,2.8,4.8,2.8,6.9c0,0.3,0.3,0.6,0.6,0.6c0.3,0,0.6-0.2,0.6-0.6c0-2.3-1.5-4.9-3-7.4
	c-0.8-1.4-1.6-2.7-2-3.9c-0.7-1.8-1.2-3.7-1.7-5.6C450,214.8,449.2,211.5,447.2,208.1"/>
<path class="st5" d="M454.2,213.8l-0.2,0.1L454.2,213.8z M454.2,213.8L454.2,213.8c-0.2,0-0.5,0.1-0.3,0.1l-0.1,0l0.1,0L454.2,213.8
	L454.2,213.8L454.2,213.8z M453.9,213.7C453.9,213.7,453.8,213.7,453.9,213.7c-0.1,0.1-0.1,0.1-0.1,0.1L453.9,213.7l-0.1,0.1
	L453.9,213.7l0.2,0l0,0L453.9,213.7l0.2,0c0,0-0.1,0-0.1,0C454,213.7,453.9,213.7,453.9,213.7z M450.2,206c-0.2-0.3-0.5-0.3-0.8-0.1
	c-0.3,0.2-0.3,0.5-0.1,0.8c0.4,0.6,0.6,1,0.9,1.5c0.1,0.1,0.1,0.3,0.2,0.5l0.1,0.3c0.6,1.1,1.1,2.2,1.7,3c0.2,0.2,0.2,0.5,0.3,0.7
	c0.1,0.3,0.2,0.5,0.3,0.8c0.1,0.1,0.1,0.2,0.2,0.3c0,0,0,0,0,0c0.1,0.1,0.1,0.2,0.2,0.2l0,0l0,0l0,0l0,0c0.1,0.3,0.3,0.9,0.7,0.9
	c0.4,0,0.6-0.2,0.6-0.7c0-0.2-0.1-0.3-0.2-0.4c0,0.2,0,0.3-0.2,0.4h-0.1c0.1-0.1,0.2-0.3,0.2-0.4l0,0c0,0,0-0.1,0-0.1h0h0l0,0
	c0,0,0,0,0,0h0c-0.1-0.3-0.2-0.5-0.4-0.6c0,0,0,0,0,0h0h0c0-0.1-0.1-0.1-0.1-0.1c-0.1-0.1-0.1-0.3-0.2-0.5c-0.1-0.4-0.2-0.7-0.5-1.1
	c-0.6-0.7-1.1-1.8-1.6-2.8l-0.1-0.3c-0.1-0.2-0.2-0.3-0.2-0.5C450.9,207.1,450.7,206.7,450.2,206z"/>
<path class="st5" d="M456.7,220.5c-0.2-0.2-0.6-0.2-0.8,0c-0.2,0.2-0.2,0.6,0,0.8c0.5,0.5,0.6,0.7,0.8,0.9l0.5-0.3l-0.5,0.3
	c0,0,0,0,0,0c0.1,0.1,0.2,0.2,0.3,0.4c0.1,0.1,0.2,0.2,0.3,0.3v0c0,0.2,0.1,0.4,0.3,0.5c0.1,0.2,0.3,0.3,0.5,0.3h0.2l-0.2,0
	c0.2,0,0.6,0,0.3,0h-0.1l-0.2,0c-0.1,0-0.1,0-0.1,0c0,0.1,0,0.2,0.1,0.2c0.1,0.3,0.4,0.5,0.7,0.4c0.3-0.1,0.4-0.4,0.4-0.7
	c0,0,0,0,0-0.1c-0.1-0.3-0.1-0.8-0.5-0.9c0-0.1-0.1-0.1-0.1-0.2c0-0.6-0.2-0.8-0.6-0.8c0,0-0.1,0-0.1,0c0-0.1-0.1-0.1-0.1-0.2
	c0,0,0,0,0,0C457.4,221.3,457.3,221.1,456.7,220.5"/>
<path class="st5" d="M468.9,221c-0.3-0.1-0.6,0.1-0.7,0.4c-0.1,0.3,0.1,0.6,0.4,0.7c1,0.3,1.9,0.7,2.7,1.2c0.8,0.5,1.4,1,1.8,1.7
	c0.3,0.5,0.6,0.9,0.9,1.2c0.3,0.3,0.7,0.6,1.1,1l0.4-0.4l-0.4,0.4l0,0c0.1,0.1,0.3,0.4,0.5,0.7c0.4,0.5,0.8,1.1,1.2,1.3
	c0.3,0.1,0.6-0.1,0.7-0.4c0.1-0.3-0.1-0.6-0.4-0.7c-0.1,0-0.4-0.4-0.7-0.8c-0.2-0.3-0.5-0.7-0.7-0.9c0,0,0,0,0,0
	c-0.4-0.3-0.7-0.6-0.9-0.9c-0.3-0.3-0.5-0.6-0.7-1c-0.5-0.9-1.2-1.5-2.1-2.1C470.9,221.8,469.9,221.4,468.9,221"/>
<path class="st5" d="M419.7,195.2c-0.1-0.3-0.4-0.5-0.7-0.4c-0.3,0.1-0.5,0.4-0.4,0.7l1.2,4.8l0.5-0.1l-0.5,0.1
	c0.1,0.3,0.4,0.5,0.7,0.4c0.1,0,0.1,0,0.1-0.1l5.5-2.9l3.1,4.5l0.5-0.3l-0.5,0.3c0.2,0.3,0.5,0.3,0.8,0.1c0.1-0.1,0.2-0.2,0.2-0.3
	l1.1-2.3l1.1,2.4l0.5-0.2l-0.5,0.2c0.1,0.3,0.5,0.4,0.7,0.3c0.1,0,0.2-0.1,0.3-0.2l2.3-3.3l1.5,4l0.5-0.2l-0.5,0.2
	c0.1,0.3,0.4,0.4,0.7,0.3c0.1,0,0.1-0.1,0.2-0.1l2-1.5l2.3,1.7h0c0.2,0.2,0.6,0.1,0.8-0.1c0.1-0.1,0.1-0.2,0.1-0.3l0.5-4.2l4.9-4.7
	c0.2-0.2,0.2-0.6,0-0.8c-0.2-0.2-0.6-0.2-0.8,0l-5,4.9c-0.1,0.1-0.2,0.2-0.2,0.4l0.6,0.1l-0.6-0.1l-0.4,3.5l-1.8-1.3
	c-0.2-0.2-0.5-0.2-0.7,0v0l-1.8,1.4l-1.6-4.2c0-0.1-0.1-0.2-0.2-0.3c-0.3-0.2-0.6-0.1-0.8,0.1l-2.4,3.4l-1.2-2.6
	c0-0.1-0.2-0.3-0.3-0.3c-0.3-0.1-0.6,0-0.7,0.3l0.5,0.2l-0.5-0.2l-1.2,2.6l-2.8-4c-0.2-0.3-0.5-0.4-0.7-0.2l-5.4,2.9L419.7,195.2z"
	/>
<path class="st5" d="M474.8,232.5L474.8,232.5l0-0.1L474.8,232.5z M472.9,230c0.1,0.1,0.2,0.1,0.3,0.2c0.3,0.2,0.6,0.4,0.9,0.8
	c0.1,0.2,0.2,0.4,0.3,0.6h0c0,0.1,0.1,0.2,0,0.3h0.1c0.3,0,0.5,0.2,0.6,0.5c0.1,0.1,0.2,0.2,0.2,0.3l0,0c0.1,0.2,0.2,0.7,0.4,1
	c0.1,0.3,0.2,0.5,0.3,0.6h0c0,0,0,0,0,0.1c0,0.1,0.1,0.1,0.1,0.2l0,0l0,0c0,0,0,0,0,0.1c0,0,0,0,0,0.1l0,0c0.1,0.1,0.2,0.2,0.3,0.4
	l0,0 M472.9,230c-0.2-0.2-0.6-0.1-0.8,0.1c-0.2,0.2-0.1,0.6,0.1,0.8c0.1,0.1,0.2,0.2,0.4,0.3c0.3,0.2,0.5,0.4,0.7,0.6
	c0,0,0.1,0.2,0.1,0.3h0l0,0c0.2,0.4,0.3,0.8,0.7,1c0.1,0.2,0.2,0.2,0.3,0.3c0.1,0.3,0.2,0.6,0.3,1c0.1,0.3,0.2,0.6,0.3,0.8h0l0,0
	l0,0c0,0,0,0.1,0,0.1c0,0,0,0,0,0.1c0.1,0.1,0.1,0.2,0.2,0.4l0,0c0,0,0,0,0.1,0.1c0,0,0.1,0.1,0.1,0.1c0.1,0.2,0.2,0.4,0.4,0.5
	c0.2,0.2,0.4,0.3,0.6,0.4c0.3,0.1,0.6-0.1,0.7-0.4c0.1-0.3-0.1-0.6-0.4-0.7c-0.1,0-0.1-0.1-0.2-0.1"/>
<path class="st5" d="M479.6,236.7c-0.3-0.1-0.6,0-0.7,0.3c-0.1,0.3,0,0.6,0.3,0.7c0.8,0.4,1.2,0.7,1.6,1.1c0.2,0.1,0.4,0.3,0.5,0.4
	l0.4-0.4l-0.4,0.4l0,0c0,0,0.1,0.2,0.2,0.3v0l0,0c0.1,0.2,0.3,0.4,0.4,0.6c0.2,0.1,0.4,0.2,0.6,0.3l0,0c0.1,0,0.2,0.1,0.2,0.1l0,0
	c0.1,0.1,0.3,0.3,0.4,0.5c0.4,0.6,0.9,1.2,1.6,1.4c0.3,0.1,0.6-0.1,0.7-0.4c0.1-0.3-0.1-0.6-0.4-0.7c-0.3-0.1-0.7-0.6-1-1
	c-0.2-0.2-0.3-0.4-0.5-0.6c0,0,0,0,0,0c-0.1-0.1-0.3-0.2-0.6-0.3l0,0l-0.2,0.5l0.2-0.5c-0.1-0.1-0.3-0.1-0.3-0.2
	c0,0-0.1-0.2-0.2-0.3l0,0h0c-0.1-0.2-0.3-0.4-0.4-0.5c0,0,0,0-0.1,0c-0.2-0.2-0.4-0.3-0.5-0.4C480.9,237.5,480.5,237.2,479.6,236.7"
	/>
<path class="st5" d="M485.5,252.3C485.5,252.3,485.5,252.3,485.5,252.3L485.5,252.3z M481.7,249.7c-0.3-0.1-0.6,0.1-0.7,0.4
	c-0.1,0.3,0.1,0.6,0.4,0.7c0.3,0.1,0.5,0.1,0.6,0.1c0,0,0,0,0.1,0c0.2,0,0.3,0.1,0.4,0.2h0h0l0,0c0,0,0.1,0,0.1,0.1
	c0.1,0.1,0.2,0.1,0.3,0.2c0.1,0,0.1,0,0.1,0.1c0.1,0.1,0.2,0.2,0.4,0.2c0.1,0.1,0.1,0.1,0.2,0.1c0,0.3,0.1,0.6,0.4,0.6
	c0.1,0.1,0.2,0.2,0.4,0.2c0,0.3,0.2,0.5,0.6,0.7c0.3,0.1,0.6-0.1,0.7-0.4c0.1-0.2,0-0.5-0.2-0.6v0l0,0c0,0-0.1,0-0.1-0.1l0,0
	c0.1,0,0.1,0,0.1,0.1c0-0.4-0.1-0.7-0.5-0.8c-0.1-0.1-0.2-0.2-0.3-0.2c0-0.1-0.1-0.2-0.1-0.3c0,0,0,0,0-0.1
	c-0.1-0.1-0.2-0.2-0.4-0.3c-0.1-0.1-0.3-0.2-0.3-0.2c-0.1-0.1-0.2-0.1-0.3-0.2c-0.1,0,0,0-0.1,0c-0.4-0.3-0.6-0.4-1-0.5c0,0,0,0,0,0
	l-0.1,0.6l0.1-0.6C482.1,249.8,481.9,249.7,481.7,249.7z"/>
<path class="st5" d="M482.4,257.1L482.4,257.1z M482.6,257L482.6,257L482.6,257L482.6,257z M481,255.8L481,255.8L481,255.8z
	 M479.8,255.1c-0.3,0-0.6,0.2-0.6,0.5c0,0.3,0.2,0.6,0.5,0.6c0.1,0,0.2-0.1,0.3-0.1c0.1,0.2,0.2,0.3,0.6,0.4c0,0.1,0.1,0.1,0.2,0.2
	c0.1,0.2,0.2,0.3,0.4,0.4c0.1,0.1,0.3,0.2,0.4,0.2c0,0.1,0.1,0.2,0.2,0.4c0,0,0,0,0.1,0.1c0,0,0.1,0.1,0.1,0.1
	c0.1,0.1,0.2,0.2,0.3,0.3l0,0h0l0,0l0,0c-0.1,0.1-0.1,0.2-0.2,0.3c-0.1,0.3,0.1,0.6,0.4,0.7c0.2,0.1,0.5,0,0.6-0.2
	c-0.2,0-0.4-0.1-0.5-0.4l0.2,0.1c0.1,0.1,0.2,0.2,0.4,0.2v0.1l0,0h0h0.2c0.2,0,0.3-0.1,0.4-0.1h0h0c0,0,0,0,0,0
	c0.5-0.4,0.4-0.8-0.2-1v0c0,0,0,0-0.1,0l0,0h0l-0.2-0.2l0,0v0l0,0v0c0,0-0.1-0.1-0.1-0.1c0,0,0,0,0,0l0,0l-0.4,0.4l0.4-0.4
	c-0.1-0.1-0.2-0.2-0.3-0.3c0.1-0.3,0-0.6-0.6-0.7l0,0h0c-0.1,0-0.2-0.1-0.3-0.1v0c0-0.2-0.1-0.4-0.3-0.5c-0.1-0.2-0.3-0.3-0.5-0.3
	H481C480.7,255.2,480.4,255.2,479.8,255.1z"/>
<path class="st5" d="M479.9,260.5l0.1,0L479.9,260.5z M479.1,260.7L479.1,260.7L479.1,260.7L479.1,260.7L479.1,260.7z M476.7,257.7
	c0.2,0.2,0.5,0.4,0.7,0.6c0.3,0.3,0.6,0.5,0.8,0.7v0l0,0l0,0l0.1,0l0,0l0,0l0,0c0.1,0.1,0.2,0.1,0.3,0.2v0v0c0,0,0,0,0.1,0.1
	c0.1,0.1,0.1,0.2,0.2,0.2l0,0c0.3,0,0.5,0.1,0.6,0.3c0.3,0.1,0.4,0.3,0.4,0.5c0,0-0.1,0-0.1,0l0,0c0,0,0.1,0.1,0.1,0.1l0,0h0
	c0,0,0,0,0,0l-0.1,0l-0.2,0.7c0.3-0.1,0.5-0.4,0.4-0.7h0l0-0.1c0.2,0.1,0.4,0.4,0.3,0.7c-0.1,0.3-0.4,0.5-0.7,0.4
	c-0.3-0.1-0.5-0.3-0.5-0.4c-0.2,0-0.3-0.1-0.4-0.2c-0.1,0-0.2,0-0.4-0.1l0,0l0.2-0.3l-0.2,0.3c-0.2-0.2-0.2-0.3-0.3-0.5h0l0,0
	c-0.1,0-0.2-0.1-0.3-0.1 M476.7,257.7c-0.2-0.2-0.6-0.1-0.8,0.1c-0.2,0.2-0.1,0.6,0.1,0.8c0.2,0.1,0.4,0.4,0.7,0.6
	c0.3,0.3,0.6,0.6,1,0.8c0,0,0,0,0.1,0c0,0,0,0-0.1,0"/>
<path class="st5" d="M461.3,256c-0.1-0.3-0.4-0.4-0.7-0.3c-0.3,0.1-0.4,0.4-0.3,0.7c0.2,0.4,0.5,1.1,0.9,1.7
	c0.3,0.5,0.6,0.9,0.9,1.2c0.2,0.2,0.4,0.3,0.7,0.5l0,0c0.8,0.6,1.9,1.5,2,1.9c0.1,0.3,0.4,0.5,0.7,0.4c0.3-0.1,0.5-0.4,0.4-0.7
	c-0.2-0.7-1.4-1.7-2.4-2.4l0,0l-0.3,0.4l0.3-0.4c-0.2-0.2-0.5-0.4-0.6-0.5c-0.2-0.2-0.5-0.5-0.7-0.9
	C461.7,257,461.4,256.4,461.3,256"/>
<path class="st5" d="M453.1,253.6c-0.1-0.3-0.4-0.4-0.7-0.3c-0.3,0.1-0.4,0.4-0.3,0.7c0.1,0.4,0.4,0.8,0.7,1.1l0.4-0.3l-0.4,0.3
	c0,0,0,0,0,0c0.3,0.4,0.7,0.8,1.1,1.1c0,0,0.1,0.1,0.2,0.2l0,0c0.2,0.2,0.5,0.4,0.5,0.4c0.1,0.3,0.4,0.5,0.7,0.4
	c0.3-0.1,0.5-0.4,0.4-0.7c-0.1-0.3-0.5-0.6-0.8-0.9l0,0l-0.4,0.4l0.4-0.4c-0.1,0-0.1-0.1-0.2-0.1c-0.3-0.3-0.7-0.6-0.9-1
	c0,0,0,0,0,0C453.3,254.2,453.2,253.9,453.1,253.6"/>
<path class="st5" d="M462.6,242.9c-0.1-0.3-0.3-0.5-0.6-0.5c-0.3,0.1-0.5,0.3-0.5,0.7c0.2,1.3,0.2,2.9,0.2,4.3v0.4
	c0,0.4,0,0.8,0,1.3c0,0.4-0.1,0.8-0.2,1.1c-0.1,0.3,0.1,0.6,0.4,0.7c0.3,0.1,0.6-0.1,0.7-0.4c0.1-0.3,0.2-0.8,0.2-1.3
	c0-0.5,0-1,0-1.3h0v-0.4C462.8,246,462.8,244.3,462.6,242.9"/>
<path class="st5" d="M463.7,233.2c0-0.3-0.2-0.6-0.6-0.6c-0.3,0-0.6,0.3-0.6,0.6c0,1.3,1.3,3.3,2.3,5c0.4,0.7,0.8,1.3,1,1.8
	c0.2,0.4,0.5,0.8,0.7,1.3c0.4,0.6,0.8,1.3,1,1.9c0.1,0.3,0.4,0.5,0.7,0.4c0.3-0.1,0.5-0.4,0.4-0.7c-0.2-0.7-0.7-1.4-1.1-2.1
	c-0.2-0.4-0.5-0.8-0.7-1.2c-0.2-0.5-0.7-1.2-1.1-1.9C464.8,236.1,463.7,234.3,463.7,233.2"/>
<path class="st5" d="M331.5,211.7c-0.3,0.2-0.3,0.5-0.1,0.8c0.2,0.3,0.5,0.3,0.8,0.1l14.1-10c0.3-0.2,0.3-0.5,0.1-0.8
	c-0.2-0.3-0.5-0.3-0.8-0.1L331.5,211.7z"/>
<path class="st5" d="M367.3,202.2c-0.1-0.3-0.4-0.5-0.7-0.4c-0.3,0.1-0.5,0.4-0.4,0.7c0.2,0.7,0.1,1.6,0.1,2.5c0,0.3,0,0.7,0,0.9
	c0,0.5,0,1.1,0.1,1.7c0,0.5,0.1,0.9,0.1,1.4c0,0.3,0.3,0.6,0.6,0.6c0.3,0,0.6-0.3,0.6-0.6c0-0.4,0-0.9-0.1-1.4
	c0-0.5-0.1-1.1-0.1-1.6c0-0.3,0-0.6,0-0.9C367.4,204.1,367.5,203.1,367.3,202.2"/>
<path class="st5" d="M360.2,206.1c0-0.3-0.3-0.6-0.6-0.6c-0.3,0-0.6,0.3-0.6,0.6c0,0.6-0.1,1.2-0.2,1.7c-0.1,0.5-0.3,1.1-0.6,1.6
	l0.5,0.2l-0.5-0.2l0,0c-0.1,0.3-0.3,0.7-0.5,1.1c-0.3,0.6-0.7,1.2-0.8,1.8c-0.1,0.3-0.2,0.7-0.4,1.2c-0.1,0.3-0.3,0.6-0.4,0.6
	c-0.3,0.1-0.5,0.4-0.4,0.7c0.1,0.3,0.4,0.5,0.7,0.4c0.4-0.1,0.8-0.7,1-1.2c0.2-0.5,0.4-1,0.5-1.3c0.1-0.4,0.4-1,0.7-1.6
	c0.2-0.4,0.4-0.8,0.6-1.1l0,0c0.3-0.6,0.5-1.2,0.6-1.8C360.1,207.4,360.2,206.8,360.2,206.1"/>
<path class="st5" d="M351.5,210.1c0.1-0.3-0.1-0.6-0.4-0.7c-0.3-0.1-0.6,0.1-0.7,0.4c-0.2,0.7-1.2,1.7-1.9,2.3
	c-0.2,0.2-0.4,0.3-0.5,0.5l-0.1,0.1l0.3,0.4l-0.3-0.4c0,0,0,0,0,0c-0.3,0.2-0.8,0.6-0.8,1l0,0c0,0.1-0.1,0.2-0.1,0.4c0,0,0,0,0.1,0
	l0,0c0,0,0,0,0,0l0,0h0c-0.3,0.1-0.5,0.4-0.4,0.7c0.1,0.3,0.4,0.5,0.7,0.4c0.2-0.1,0.4-0.3,0.6-0.6c0.1-0.2,0.2-0.5,0.3-0.7
	c0,0,0,0,0-0.1l-0.6-0.1l0.6,0.1c0,0,0.2-0.1,0.4-0.2c0,0,0,0,0.1,0h0c0.1-0.1,0.2-0.1,0.2-0.2c0.1-0.1,0.3-0.3,0.5-0.5
	C350.1,212.2,351.2,211.1,351.5,210.1"/>
<path class="st5" d="M351.7,205.4c0.2-0.3,0.1-0.6-0.2-0.8c-0.3-0.2-0.6-0.1-0.8,0.2c-0.3,0.6-0.7,1-1.1,1.3
	c-0.1,0.1-0.2,0.2-0.3,0.3c-0.1,0.1-0.2,0.2-0.3,0.3c-0.3,0.3-0.7,0.9-0.9,0.9c-0.3,0-0.6,0.2-0.6,0.6c0,0.3,0.3,0.6,0.6,0.6
	c0.7,0,1.4-0.8,1.8-1.3c0.1-0.1,0.2-0.2,0.2-0.2c0.1-0.1,0.2-0.2,0.3-0.3C350.8,206.5,351.3,206.1,351.7,205.4"/>
<path class="st5" d="M344.9,210.8c0.2-0.3,0.1-0.6-0.2-0.8c-0.3-0.2-0.6-0.1-0.8,0.2c-0.5,0.8-1.1,1.3-1.7,1.9
	c-0.4,0.3-0.7,0.6-1.1,1c-0.2,0.2-0.3,0.4-0.5,0.6c-0.5,0.6-1.1,1.3-1.6,1.5c-0.3,0.1-0.5,0.4-0.4,0.7c0.1,0.3,0.4,0.5,0.7,0.4
	c0.8-0.3,1.5-1.1,2.1-1.8c0.2-0.2,0.3-0.4,0.5-0.5c0.3-0.3,0.7-0.6,1-0.9C343.7,212.4,344.4,211.8,344.9,210.8"/>
<path class="st5" d="M323.5,223.9c0,0-0.1,0-0.1,0c-0.1,0-0.1,0-0.2-0.1L323.5,223.9z M326.2,220.6c-0.2,0.1-0.4,0.3-0.6,0.5
	c-0.2,0.2-0.4,0.5-0.5,0.7c0,0,0,0,0,0h0l0,0l0,0.1c-0.1,0.2-0.2,0.4-0.3,0.5l-0.4-0.3 M326.2,220.6c0.3-0.2,0.4-0.5,0.2-0.8
	c-0.2-0.3-0.5-0.4-0.8-0.2c-0.3,0.2-0.6,0.4-0.8,0.7c-0.3,0.3-0.5,0.6-0.7,0.9l0.5,0.3l-0.5-0.3c0,0,0,0.1,0,0.1
	c0,0.1-0.1,0.1-0.1,0.2h0c0,0,0,0,0,0.1c0,0.1,0,0.1,0,0.1c0,0,0,0-0.1,0.1l0,0c-0.1,0.1-0.1,0.1-0.2,0.2c0,0,0,0,0,0.1
	c-0.1,0.2-0.1,0.3-0.2,0.4l0,0c0,0.1,0,0.2-0.1,0.2c-0.1,0.1-0.1,0.1-0.2,0.2h0l0,0h0l0,0c-0.1,0.1-0.1,0.2-0.2,0.3c0,0,0,0,0,0
	c-0.1,0.1-0.2,0.2-0.3,0.4c-0.1,0.3,0.1,0.6,0.4,0.7s0.6-0.1,0.7-0.4l0,0l0,0c0,0,0,0,0,0l0,0c0,0,0,0,0,0c0.1-0.1,0.3-0.2,0.3-0.5
	h0v0l0,0h0h0l0,0l0,0h0c0,0,0,0,0.1-0.1c0.2-0.2,0.3-0.4,0.3-0.6l0,0l-0.1,0l0,0l0.1,0c0-0.1,0-0.2,0.1-0.2l0,0h0h0l0,0l0,0
	l-0.4-0.3"/>
<path class="st5" d="M336.3,219.3c0.2-0.2,0.2-0.6,0-0.8c-0.2-0.2-0.6-0.2-0.8,0c-1.3,1.3-3,2.4-4.6,3.3c-2.1,1.3-4.1,2.5-5.1,4.3
	l0,0l-0.2,0.3c-0.8,1.5-2.4,4.4-4.1,4.8c-0.3,0.1-0.5,0.4-0.4,0.7c0.1,0.3,0.4,0.5,0.7,0.4c2.1-0.5,3.9-3.7,4.8-5.4l0.2-0.3
	c0,0,0,0,0,0h0h0c0.9-1.5,2.7-2.7,4.7-3.9C333.1,221.8,334.8,220.8,336.3,219.3"/>
<path class="st5" d="M352.2,218.5c0.1-0.3-0.1-0.6-0.4-0.7c-0.3-0.1-0.6,0.1-0.7,0.4c-0.2,0.6-0.5,1.2-0.8,1.7
	c-0.2,0.3-0.4,0.6-0.5,0.9l0,0c0,0.1-0.1,0.2-0.1,0.3l0,0l0,0c-0.1,0.3-0.3,0.6-0.4,0.7c-0.3,0.2-0.3,0.4-0.4,0.7c0,0.1,0,0.1,0,0.1
	c-0.1,0.2-0.3,0.4-0.4,0.6c-0.1,0.2-0.2,0.4-0.3,0.6l0.5,0.2l-0.5-0.2l0,0c0,0.1-0.1,0.2-0.2,0.3c-0.2,0.2-0.4,0.4-0.4,0.7
	c-0.1,0.3,0.1,0.6,0.4,0.7c0.3,0.1,0.6-0.1,0.7-0.4c0-0.1,0.1-0.2,0.2-0.3c0.2-0.2,0.3-0.4,0.4-0.7c0,0,0,0,0-0.1
	c0-0.1,0.1-0.2,0.2-0.4c0.1-0.2,0.2-0.3,0.3-0.4c0.1-0.2,0.2-0.3,0.2-0.5c0-0.1,0-0.1,0-0.1c0.3-0.2,0.5-0.7,0.7-1.1l0,0h0l0,0h0
	c0-0.1,0.1-0.2,0.1-0.3l0,0l-0.5-0.3l0.5,0.3c0.1-0.3,0.3-0.6,0.5-0.8C351.7,219.9,352,219.3,352.2,218.5"/>
<path class="st5" d="M372,200.8c0-0.3-0.3-0.6-0.6-0.6c-0.3,0-0.6,0.2-0.6,0.6c0,0.7,0.1,1.4,0.2,2.1c0.1,0.7,0.2,1.4,0.2,2.1v1.5
	c0,0.2,0,0.3-0.1,0.5c-0.1,0.2-0.1,0.5-0.1,0.9c0,0.3,0.2,0.6,0.6,0.6c0.3,0,0.6-0.2,0.6-0.6c0-0.2,0.1-0.4,0.1-0.6
	c0.1-0.2,0.1-0.5,0.1-0.8V205c0-0.8-0.1-1.5-0.2-2.2C372.1,202.1,372,201.4,372,200.8"/>
<path class="st5" d="M376.8,199.8c0-0.3-0.3-0.6-0.6-0.6c-0.3,0-0.6,0.3-0.6,0.6c0,0.5,0,1.1,0,1.7c0,0.5,0,1,0.1,1.4l0.6-0.1
	l-0.6,0.1c0,0,0,0,0,0.1c0,0.3,0,0.6,0,0.9c0,0.6,0,1.1,0.1,1.6c0.1,0.3,0.4,0.4,0.7,0.4c0.3-0.1,0.4-0.4,0.4-0.7
	c-0.1-0.3-0.1-0.8-0.1-1.2c0-0.3,0-0.7,0-1c0,0,0,0,0-0.1c0-0.4-0.1-0.9-0.1-1.4C376.8,201,376.8,200.4,376.8,199.8"/>
<path class="st5" d="M381.6,197.9c-0.1-0.3-0.5-0.4-0.7-0.3c-0.3,0.1-0.4,0.5-0.3,0.7c0.1,0.2,0.1,0.3,0.2,0.4
	c0.1,0.1,0.1,0.3,0.1,0.4c0.1,0.4,0.2,0.6,0.3,0.9l0.1,0.2v0l0,0c0.1,0.3,0.3,0.8,0.4,1.3l0.1,0.2l0.5-0.1l-0.5,0.1c0,0,0,0,0,0.1
	c0,0.1,0.1,0.2,0.1,0.3c0,0.1,0.1,0.2,0.1,0.2c0,0.2,0,0.4,0,0.5c0,0.1,0.1,0.3,0.1,0.4c0.1,0.3,0.4,0.4,0.7,0.4
	c0.3-0.1,0.4-0.4,0.4-0.7c0-0.1,0-0.2-0.1-0.3c0-0.1,0-0.2,0-0.4c0-0.3-0.1-0.5-0.2-0.7l0-0.1v0l-0.1-0.2c-0.1-0.5-0.3-1-0.4-1.4
	l0,0l-0.1-0.2c-0.1-0.3-0.2-0.5-0.3-0.8c0-0.2-0.1-0.4-0.2-0.6C381.7,198.3,381.7,198.1,381.6,197.9"/>
<path class="st5" d="M390.5,199c-0.1-0.3-0.5-0.4-0.8-0.2c-0.3,0.1-0.4,0.5-0.2,0.8c0.1,0.2,0.2,0.4,0.3,0.5
	c0.5,0.9,1.2,2.2,1.3,2.7c0.1,0.7,0.4,1.4,0.7,1.9c0.3,0.5,0.7,1,1,1.3c0.1,0.1,0.3,0.4,0.5,0.8c0.4,0.6,0.7,1.3,1.2,1.5
	c0.3,0.1,0.6-0.1,0.7-0.4c0.1-0.3-0.1-0.6-0.4-0.7c-0.1,0-0.3-0.5-0.6-1c-0.2-0.4-0.4-0.8-0.7-1c-0.2-0.2-0.6-0.6-0.9-1.1
	c-0.3-0.4-0.5-0.9-0.6-1.4c-0.1-0.8-0.9-2.2-1.4-3.1L390.5,199z"/>
<path class="st5" d="M390.2,207.6c-0.1-0.3-0.4-0.5-0.7-0.4c-0.3,0.1-0.5,0.4-0.4,0.7c0.3,1.1,0.7,2.1,1.1,3c0,0,0,0,0,0
	c0.1,0.3,0.3,0.6,0.4,1c0.3,0.9,0.9,1.3,1.5,1.7c0.1,0.1,0.3,0.2,0.4,0.3c0.2,0.2,0.6,0.1,0.8-0.1c0.2-0.2,0.1-0.6-0.1-0.8
	c-0.2-0.1-0.3-0.2-0.4-0.3c-0.5-0.3-0.9-0.6-1.1-1.2c-0.1-0.3-0.3-0.6-0.4-1c0,0,0,0,0-0.1l-0.5,0.2l0.5-0.2
	C390.8,209.5,390.4,208.6,390.2,207.6"/>
<path class="st5" d="M384.4,207.3c-0.2-0.2-0.6-0.2-0.8,0c-0.2,0.2-0.2,0.6,0,0.8c0.8,0.9,1.3,2.2,1.8,3.6c0.7,1.9,1.3,3.6,2.7,4.1
	c0.3,0.1,0.6-0.1,0.7-0.4c0.1-0.3-0.1-0.6-0.4-0.7c-0.9-0.3-1.5-1.8-2-3.4C385.9,209.8,385.4,208.3,384.4,207.3"/>
<path class="st5" d="M374.6,219.5c0-0.3-0.3-0.6-0.6-0.6c-0.3,0-0.6,0.3-0.6,0.6v4c0,0.3,0.3,0.6,0.6,0.6c0.3,0,0.6-0.3,0.6-0.6
	V219.5z"/>
<path class="st5" d="M372.6,211.7c0-0.3-0.3-0.6-0.6-0.6c-0.3,0-0.6,0.3-0.6,0.6v4.8c0,0.3,0.3,0.6,0.6,0.6c0.3,0,0.6-0.3,0.6-0.6
	V211.7z"/>
<path class="st5" d="M369.4,214.2c-0.1-0.3-0.4-0.5-0.7-0.4c-0.3,0.1-0.5,0.4-0.4,0.7c0.1,0.3,0.1,0.5,0.1,0.7h0l0,0
	c0,0.2,0.1,0.4,0.1,0.7l0.6,0l-0.6,0.1l0,0c0,0.4,0.1,0.9,0.2,1.3c0.1,0.6,0.2,1.3,0.2,2.1c0,0.3,0.3,0.6,0.6,0.6
	c0.3,0,0.6-0.2,0.6-0.6c0-0.8-0.1-1.5-0.2-2.2c-0.1-0.4-0.1-0.8-0.1-1.2v0c0-0.3,0-0.5-0.1-0.7v0
	C369.5,214.7,369.5,214.5,369.4,214.2"/>
<path class="st5" d="M366,214.5c0-0.3-0.3-0.6-0.6-0.6c-0.3,0-0.6,0.3-0.6,0.6v6c0,0.3,0.2,0.6,0.6,0.6c0.3,0,0.6-0.3,0.6-0.6V214.5
	z"/>
<path class="st5" d="M411.4,217.2c0-0.3-0.2-0.6-0.6-0.6c-0.3,0-0.6,0.3-0.6,0.6c0,0.7-1.1,1.9-2,3.1c-0.5,0.6-1.1,1.2-1.4,1.7
	l0.5,0.3l-0.5-0.3c0,0,0,0,0,0c-0.3,0.5-0.4,1.1-0.5,1.6l0.6,0.1l-0.6-0.1l0,0c0,0.2-0.1,0.4-0.1,0.5c-0.1,0.3,0.1,0.6,0.4,0.7
	c0.3,0.1,0.6-0.1,0.7-0.4c0.1-0.2,0.1-0.4,0.2-0.7l0,0h0c0.1-0.4,0.2-0.9,0.3-1.2l0,0c0.3-0.4,0.7-1,1.3-1.6
	C410.2,219.7,411.4,218.3,411.4,217.2"/>
<path class="st5" d="M414.1,204.3c0.1-0.3,0-0.6-0.2-0.8c-0.3-0.1-0.6,0-0.8,0.2c-0.4,0.7-1.7,1.4-3,2c-0.8,0.4-1.5,0.8-2,1.1
	c0,0,0,0,0,0c-0.4,0.3-0.8,0.7-1.2,1.1c-0.3,0.4-0.7,0.7-1,1l0.3,0.4l-0.3-0.4c0,0,0,0,0,0c-0.2,0.2-0.6,0.4-1.1,0.7
	c-1.2,0.7-2.8,1.7-3,2.5c-0.1,0.3,0.1,0.6,0.4,0.7c0.3,0.1,0.6-0.1,0.7-0.4c0.1-0.4,1.5-1.2,2.5-1.8c0.5-0.3,0.9-0.5,1.1-0.7
	c0,0,0,0,0.1,0c0.4-0.3,0.8-0.7,1.2-1.1c0.3-0.4,0.6-0.7,1-1c0,0,0,0,0,0l-0.3-0.4l0.3,0.4c0.4-0.3,1.1-0.7,1.8-1
	C412,206.1,413.6,205.3,414.1,204.3"/>
<path class="st5" d="M418.9,205.6c0.2-0.2,0.1-0.6-0.1-0.8c-0.2-0.2-0.6-0.1-0.8,0.1c-1.1,1.4-2.8,2.8-4.5,4.1c-1,0.8-2,1.6-2.9,2.4
	l0.4,0.4l-0.4-0.4c0,0,0,0,0,0l-2.7,2.6c-0.2,0.2-0.2,0.6,0,0.8c0.2,0.2,0.6,0.2,0.8,0l2.7-2.6c0,0,0,0,0,0c0.8-0.8,1.8-1.6,2.8-2.4
	C416,208.5,417.7,207.1,418.9,205.6"/>
<path class="st5" d="M414.7,219.6L414.7,219.6L414.7,219.6z M414,219.6C414.1,219.6,414.1,219.6,414,219.6L414,219.6
	C414.1,219.6,414.1,219.6,414,219.6z M414.9,220.2c0,0.1-0.1,0.1-0.1,0.2l0,0C414.8,220.4,414.9,220.3,414.9,220.2z M414.9,220.2
	L414.9,220.2L414.9,220.2z M419.7,213.8c-0.7,0.7-1.2,1.5-1.8,2.2c-0.6,0.8-1.1,1.6-1.8,2.3c-0.2,0.2-0.4,0.4-0.5,0.6l0,0
	c0,0,0,0,0,0c-0.1,0.1-0.2,0.3-0.3,0.4l-0.5-0.3l0.5,0.3l0,0c-0.1,0.1-0.2,0.5-0.3,0.7l0,0l0,0l0,0.1c0,0.2-0.1,0.3-0.3,0.4l0,0h0
	l0,0c-0.8,0.4-1,0.1-0.8-0.7c0,0,0,0,0,0l0-0.1l0,0c0.1-0.3,0.3-0.7,0.4-0.9c0,0,0-0.1,0-0.1c0.1-0.2,0.2-0.4,0.4-0.5 M419.7,213.8
	c0.2-0.2,0.2-0.6,0-0.8c-0.2-0.2-0.6-0.2-0.8,0c-0.7,0.8-1.3,1.6-1.9,2.4c-0.5,0.8-1,1.5-1.7,2.2c-0.2,0.2-0.4,0.4-0.6,0.7l0.4,0.4
	l-0.4-0.4"/>
<path class="st5" d="M424.9,203.2c0.2-0.3,0.1-0.6-0.1-0.8c-0.3-0.2-0.6-0.1-0.8,0.1c-0.3,0.4-0.5,0.7-0.6,1.1
	c-0.2,0.4-0.3,0.8-0.5,1.2c-0.2,0.6-0.5,1.1-0.8,1.6c-0.2,0.3-0.3,0.5-0.5,0.9c-0.1,0.1-0.2,0.4-0.3,0.7c-0.1,0.3,0.2,0.5,0,0.6
	c-0.3,0.1-0.5,0.4-0.4,0.7c0.1,0.3,0.4,0.4,0.7,0.4c0.3-0.1,0.5-0.7,0.7-1.2c0.1-0.3,0.2-0.6,0.3-0.7c0.1-0.3,0.3-0.5,0.4-0.8
	c0.3-0.6,0.6-1.1,0.8-1.8c0.1-0.4,0.3-0.7,0.4-1.1C424.5,203.9,424.7,203.6,424.9,203.2"/>
<path class="st5" d="M430.6,206.9c0.1-0.3,0.1-0.6-0.2-0.8c-0.3-0.2-0.6-0.1-0.8,0.2c-0.2,0.4-0.4,0.7-0.5,1c-1,1.8-2,3.7-3.4,5.2
	c-0.3,0.4-0.6,1.2-0.9,1.9c-0.3,0.7-0.3,1.4-0.4,1.4c-0.3,0-0.6,0.3-0.6,0.6c0,0.3,0.3,0.6,0.6,0.6c0.7,0,1.1-1,1.5-2.1
	c0.3-0.7,0.5-1.4,0.7-1.6c1.4-1.6,2.5-3.5,3.5-5.4C430.3,207.5,430.5,207.2,430.6,206.9"/>
<path class="st5" d="M428.7,217.9l0.2,0.1v0L428.7,217.9L428.7,217.9z M428.8,218.1L428.8,218.1c0.1,0,0.1-0.1,0.2-0.1l0,0l-0.2-0.1
	L428.8,218.1z M428.8,218.2L428.8,218.2L428.8,218.2z M428.8,218.2L428.8,218.2L428.8,218.2L428.8,218.2z M428.8,218.2L428.8,218.2
	L428.8,218.2L428.8,218.2L428.8,218.2z M429.2,217.7L429.2,217.7L429.2,217.7L429.2,217.7z M428.7,217.1l0.4,0.3
	C429.1,217.3,428.9,217.2,428.7,217.1z M432.5,212.3c0.1-0.3,0-0.6-0.3-0.7c-0.3-0.1-0.6,0-0.7,0.3c-0.4,0.8-0.9,1.4-1.4,2.1
	c-0.4,0.6-0.8,1.1-1.1,1.7c-0.1,0.1-0.1,0.3-0.2,0.5c-0.1,0.3-0.3,0.6-0.4,0.8l-0.1,0.1l0,0c-0.1,0.1-0.3,0.3-0.4,0.5
	c0,0,0,0.1,0,0.1c0,0,0,0.1,0,0.1l0,0h0c0,0.1,0,0.1,0,0.2c0,0.1,0,0.2,0.1,0.3l0,0h0c0.2,0.4,0.6,0.5,0.9,0.1l0,0v0
	c0,0,0-0.1,0.1-0.1c0.1-0.1,0.2-0.3,0.2-0.4c0,0-0.1,0.1-0.1,0.1l0,0c0,0.1-0.1,0.2-0.1,0.3c0,0-0.1,0-0.1,0.1l0,0
	c0,0,0.1-0.1,0.1-0.1c0,0,0,0,0,0l0,0c0-0.1,0.1-0.1,0.1-0.2l0,0l0,0l-0.1,0l0.1,0c0-0.1,0.1,0,0.1-0.1l-0.4-0.4l0.4,0.4
	c0-0.1,0-0.1,0-0.2l0,0l-0.4-0.3c-0.1,0-0.1,0-0.2,0l0.2,0.2l0.4,0.4v0v0c0,0,0.1-0.1,0.1-0.1c0.2-0.3,0.4-0.7,0.6-1
	c0.1-0.2,0.1-0.3,0.2-0.4c0.2-0.5,0.6-1,1-1.5C431.6,214,432.1,213.2,432.5,212.3z"/>
<path class="st5" d="M436.4,206.4c0-0.3-0.3-0.6-0.6-0.6s-0.6,0.3-0.6,0.6c0,1.8-0.5,3.6-1.1,5.4c-0.4,1.4-0.8,2.7-1,4.1
	c-0.1,0.8-0.4,1.8-0.7,2.7c-0.4,1.2-0.8,2.3-0.8,3.3c0,0.3,0.3,0.6,0.6,0.6c0.3,0,0.6-0.2,0.6-0.6c0-0.8,0.3-1.8,0.7-2.9
	c0.3-1,0.7-2,0.8-2.9c0.1-1.3,0.5-2.6,0.9-3.9C435.9,210.3,436.4,208.4,436.4,206.4"/>
<path class="st5" d="M439.7,215.4c0-0.3-0.3-0.6-0.6-0.6s-0.6,0.3-0.6,0.6c0,1.6-0.1,3.2-0.2,4.8c-0.1,1.6-0.2,3.2-0.2,4.8
	c0,0.3,0.2,0.6,0.6,0.6c0.3,0,0.6-0.3,0.6-0.6c0-1.6,0.1-3.2,0.2-4.8C439.6,218.7,439.7,217,439.7,215.4"/>
<path class="st5" d="M441.2,207.1c-0.1-0.3-0.5-0.4-0.7-0.3c-0.3,0.1-0.4,0.4-0.3,0.7c0.7,1.6,0.9,3.6,1.1,5.5
	c0.2,2.2,0.5,4.4,1.4,6.2c0.3,0.7,1,2.3,1.5,3.9c0.4,1.3,0.7,2.5,0.7,3c0,0.3,0.3,0.6,0.6,0.6s0.6-0.3,0.6-0.6
	c0-0.6-0.3-1.9-0.8-3.3c-0.5-1.6-1.2-3.4-1.5-4.1c-0.8-1.6-1.1-3.7-1.3-5.8C442.2,210.9,442,208.9,441.2,207.1"/>
<path class="st5" d="M319,228.7C319,228.7,319,228.7,319,228.7 M319.3,227l-0.1-0.1L319.3,227z M319.3,227L319.3,227L319.3,227
	L319.3,227z M321.5,226.1c0.2-0.2,0.2-0.6,0-0.8c-0.2-0.2-0.6-0.2-0.8,0l-1.1,1.1l-0.1,0.1l0.4,0.4l-0.4-0.4c0,0,0,0,0,0
	c-0.1,0.1-0.1,0.2-0.2,0.2c-0.2,0-0.4,0.1-0.6,0.3h0c0,0,0,0,0,0.1c0,0.1,0,0.1-0.1,0.1c-0.1,0.1-0.1,0.1-0.1,0.2
	c-0.1,0.1-0.2,0.2-0.3,0.4c-0.1,0.1-0.2,0.2-0.2,0.4c-0.1,0.3,0.1,0.6,0.4,0.7c0.3,0.1,0.6-0.1,0.7-0.3l0,0c0,0,0-0.1,0-0.1h0
	c0,0,0,0,0,0c0.1-0.1,0.1-0.1,0.2-0.3c0,0,0.1-0.1,0.1-0.1c0,0,0,0,0.1-0.1l0,0l0,0c0.1-0.1,0.1-0.2,0.1-0.2
	c0.1-0.1,0.1-0.1,0.1-0.1c0,0,0.1,0,0.1,0c0,0,0,0,0.1,0h0l0,0l0,0c0.1-0.1,0.3-0.3,0.4-0.4l0,0h0l0.1-0.1L321.5,226.1z"/>
<path class="st5" d="M342.1,223.5c0.1-0.3-0.1-0.6-0.4-0.7c-0.3-0.1-0.6,0.1-0.7,0.4c-0.2,0.6-0.7,1.3-1.4,2c-0.9,0.8-1.9,1.6-2.7,2
	c-1.2,0.6-2.1,1.7-3.1,2.9c-0.6,0.8-1.3,1.6-2,2.2c-0.4,0.4-0.9,0.9-1.4,1.5c-0.7,0.8-1.4,1.6-1.9,1.7c-0.3,0.1-0.5,0.4-0.4,0.7
	c0.1,0.3,0.4,0.5,0.7,0.4c0.7-0.2,1.6-1.2,2.4-2.1c0.5-0.5,0.9-1,1.3-1.3c0.8-0.7,1.5-1.5,2.2-2.4c0.8-1,1.7-2.1,2.7-2.6
	c0.9-0.4,2-1.3,3-2.2C341.1,225.2,341.8,224.3,342.1,223.5"/>
<path class="st5" d="M331.8,246C331.8,246,331.8,246,331.8,246L331.8,246z M334.7,243.3c0.2-0.3,0.1-0.6-0.2-0.8
	c-0.3-0.2-0.6-0.1-0.8,0.2c-0.1,0.2-0.2,0.4-0.3,0.5h0l0,0c-0.1,0.1-0.1,0.1-0.1,0.1c-0.5,0.2-1,0.7-1.3,1v0l0,0
	c-0.1,0-0.2,0-0.3,0.1v0l0,0c0,0-0.1,0-0.1,0.1c-0.1,0.1-0.2,0.3-0.3,0.4c0,0,0,0,0,0l0,0c0,0,0,0,0,0l0,0l0,0l0,0l0,0
	c-0.3,0.2-0.5,0.3-0.5,0.8c0,0.3,0.3,0.6,0.6,0.6c0.3,0,0.5-0.2,0.6-0.5c0,0-0.1,0-0.1,0l0,0c0,0,0,0,0,0l0,0l-0.1-0.1h-0.4
	c0.1,0.1,0.3,0.1,0.5,0.1l-0.1-0.1h0.1c0,0,0,0.1,0,0.1c0,0,0,0,0.1,0l0,0c0,0,0.1-0.1,0.1-0.1c0,0,0,0,0,0c0.1-0.1,0.2-0.2,0.2-0.4
	c0.1,0,0.2-0.1,0.3-0.2c0,0,0,0,0.1,0v0l0.1-0.1l0,0l-0.4-0.4l0.4,0.4c0.2-0.2,0.6-0.6,0.8-0.7c0.3-0.1,0.5-0.3,0.7-0.5l0,0h0l0,0
	l0,0C334.4,243.7,334.5,243.5,334.7,243.3z"/>
<path class="st5" d="M340.8,236.1c0.2-0.2,0.2-0.6,0-0.8c-0.2-0.2-0.6-0.2-0.8,0c-0.2,0.3-0.4,0.5-0.6,0.7c-0.1,0.2-0.3,0.4-0.6,0.7
	c0,0,0,0,0,0c-0.1,0.2-0.2,0.4-0.3,0.5c-0.1,0.2-0.3,0.4-0.5,0.6l0.4,0.4l-0.4-0.4c0,0,0,0,0,0c-0.1,0.1-0.3,0.3-0.4,0.4
	c-0.2,0.3-0.4,0.6-0.4,0.8c0,0.3,0.3,0.6,0.6,0.6c0.3,0,0.6-0.2,0.6-0.6c0,0,0.1,0,0.1-0.1c0.1-0.1,0.2-0.3,0.3-0.3c0,0,0,0,0,0h0
	c0.3-0.3,0.5-0.6,0.7-0.9c0.1-0.1,0.2-0.3,0.3-0.4c0,0,0,0,0,0l-0.4-0.3l0.4,0.3c0.2-0.2,0.3-0.4,0.5-0.7
	C340.4,236.5,340.6,236.3,340.8,236.1"/>
<path class="st5" d="M344,230.7c-0.2,0.1-0.5,0.1-0.7-0.1c0,0-0.1-0.1-0.1-0.1L344,230.7z M346.2,227.4c0.1-0.3-0.1-0.6-0.4-0.7
	c-0.3-0.1-0.6,0.1-0.7,0.4c-0.1,0.4-0.2,0.5-0.4,0.7c-0.1,0.1-0.2,0.2-0.3,0.4c-0.1,0.1-0.2,0.2-0.3,0.4c-0.1,0.1-0.2,0.3-0.2,0.4
	l0,0c-0.1,0.1-0.1,0.2-0.2,0.2h0h0l0,0c-0.1,0.1-0.2,0.2-0.3,0.4h0l0,0l0,0c-0.1,0.1-0.1,0.1-0.1,0.2l0.1,0.1v0l-0.1-0.1
	c0,0,0,0,0,0.1c-0.1,0.1-0.1,0.1-0.2,0.2c-0.1,0.1-0.1,0.2-0.2,0.3c-0.1,0.3,0.1,0.6,0.4,0.7c0.3,0.1,0.6-0.1,0.7-0.4c0,0,0,0,0,0
	c0,0,0-0.1,0.1-0.1l0,0l0,0h0c0.2-0.2,0.2-0.2,0.3-0.4l0,0l0,0l0,0c0-0.1,0.1-0.2,0.1-0.2l0,0l-0.2-0.1h0l0.2,0.1
	c0.1-0.1,0.2-0.2,0.3-0.4l0,0l-0.5-0.2l0.5,0.2c0-0.1,0.1-0.2,0.2-0.3c0.1-0.1,0.2-0.2,0.2-0.3c0.1-0.1,0.2-0.2,0.3-0.3
	C345.9,228.2,346.1,228,346.2,227.4z"/>
<path class="st5" d="M336.3,251.2c-0.3,0-0.5,0.3-0.5,0.6c0,0.3,0.3,0.5,0.6,0.5c0.9-0.1,2.3-1,3.5-1.9c0.6-0.4,1.2-0.8,1.6-1
	c1-0.5,3.2-1.9,4.9-3.3c1.3-1,2.3-2.1,2.6-2.8c0.1-0.3-0.1-0.6-0.4-0.7c-0.3-0.1-0.6,0.1-0.7,0.4c-0.2,0.5-1.1,1.4-2.2,2.3
	c-1.7,1.3-3.7,2.7-4.7,3.2c-0.5,0.2-1.1,0.7-1.7,1.1C338.1,250.3,336.9,251.2,336.3,251.2"/>
<path class="st5" d="M342.8,250.2c-0.3,0.1-0.5,0.4-0.4,0.7c0.1,0.3,0.4,0.5,0.7,0.4c0.7-0.2,1.2-0.7,1.8-1.2
	c0.3-0.3,0.6-0.5,0.9-0.7c0.8-0.5,1.3-0.9,1.9-1.3c0.1-0.1,0.3-0.2,0.6-0.4c0.2-0.2,0.3-0.5,0.1-0.8c-0.2-0.2-0.5-0.3-0.8-0.1
	c-0.2,0.1-0.4,0.3-0.6,0.4c-0.5,0.4-1,0.8-1.8,1.2c-0.4,0.2-0.7,0.5-1,0.8C343.7,249.7,343.3,250.1,342.8,250.2"/>
<path class="st5" d="M352,248.9C352,248.9,352,248.9,352,248.9L352,248.9z M347.5,252.7c-0.3,0.2-0.4,0.5-0.2,0.8
	c0.2,0.3,0.5,0.4,0.8,0.2c0.3-0.2,0.6-0.4,0.9-0.6c0.2-0.2,0.5-0.4,0.6-0.6l0,0c0.3-0.4,0.7-0.7,1.1-1.1c0.2-0.2,0.4-0.4,0.6-0.6v0
	l0,0l0,0l0.2-0.2c0.1-0.1,0.3-0.3,0.3-0.3v0l0,0l0,0c0.1,0,0.1-0.1,0.2-0.1c0.1-0.1,0.2-0.1,0.2-0.2v0c0,0,0,0,0,0l0,0l0,0v0
	c0,0,0,0,0,0c0.3-0.1,0.5-0.1,0.6-0.5c0.1-0.3-0.1-0.6-0.4-0.7c-0.2-0.1-0.4,0-0.6,0.1l0,0l0,0c0,0,0,0,0,0.1l0,0l0.1,0.2l0.4,0.1
	c0-0.1-0.1-0.1-0.1-0.2c-0.1-0.1-0.2-0.2-0.3-0.2l0.1,0.2l-0.2-0.1c0,0,0.1-0.1,0.1-0.2c0,0,0,0-0.1,0c0,0,0,0,0.1-0.1
	c-0.1,0-0.2,0.1-0.3,0.1c0,0,0,0-0.1,0c-0.1,0-0.1,0.1-0.2,0.1c-0.1,0.1-0.2,0.1-0.2,0.2l0,0l0,0c-0.1,0.1-0.3,0.3-0.4,0.4
	c0,0-0.1,0.1-0.2,0.2v0c-0.1,0.1-0.3,0.3-0.6,0.5c-0.4,0.3-0.9,0.7-1.3,1.2c0,0,0,0,0,0l0.4,0.3l-0.4-0.3c-0.1,0.1-0.2,0.2-0.4,0.4
	C348,252.3,347.7,252.5,347.5,252.7z"/>
<path class="st5" d="M374.7,236L374.7,236C374.7,236,374.7,236.1,374.7,236 M374.7,236L374.7,236L374.7,236L374.7,236z M374.8,236.9
	l0.2,0.2L374.8,236.9L374.8,236.9z M375,237.1L375,237.1z M374.1,236.4L374.1,236.4l0.1,0.1L374.1,236.4z M374.2,236.5L374.2,236.5
	l0.3,0.2L374.2,236.5z M372.9,236.7c-0.3,0-0.6,0.3-0.6,0.6c0,0.3,0.3,0.6,0.6,0.6c0.3,0,0.6,0,0.9-0.1c0.3-0.1,0.5-0.2,0.8-0.3
	c0.2-0.1,0.3-0.2,0.4-0.3c0,0,0,0,0,0l0,0c0.1-0.1,0.3-0.1,0.4-0.2l-0.1-0.1l0.1,0.1c0,0,0,0,0,0l0.1-0.1l0,0c0-0.1,0.1-0.1,0.1-0.1
	c0,0,0,0,0.1,0c0.2-0.2,0.3-0.4,0.4-0.5c0.1-0.1,0.1-0.2,0.2-0.2c0.3-0.1,0.5-0.4,0.4-0.7c-0.1-0.3-0.4-0.5-0.7-0.4
	c-0.6,0.2-0.8,0.5-0.9,0.8c0,0.1-0.1,0.2-0.1,0.2l0,0l0.1,0.2h0l-0.1-0.2c-0.1,0.1-0.3,0.2-0.3,0.3l0,0l0,0h0l0,0c0,0,0,0-0.1,0
	c-0.1,0.1-0.3,0.1-0.4,0.2c0,0,0,0,0,0v0v0c0,0-0.1,0.1-0.1,0.1l0,0c-0.2,0.1-0.4,0.2-0.6,0.2C373.4,236.6,373.2,236.7,372.9,236.7z
	"/>
<path class="st5" d="M378.7,232.4c-0.3,0-0.6,0.2-0.6,0.6c0,0.3,0.3,0.6,0.6,0.6c0.8,0,1.4-0.3,2-0.7c0.3-0.2,0.6-0.4,0.9-0.5
	c0,0,0,0,0.1,0c0.3-0.1,0.6-0.4,0.8-0.6v0l0,0l0,0l0,0c0,0,0.1,0,0.2-0.1c0.3-0.1,0.6-0.3,0.8-0.7c0.1-0.3-0.1-0.6-0.4-0.7
	c-0.3-0.1-0.6,0.1-0.7,0.4c0,0-0.1,0-0.1,0c-0.2,0.1-0.3,0.1-0.5,0.3c0,0,0,0,0,0l0,0l0,0l0,0c0,0,0,0,0,0l0.4,0.4l-0.4-0.4
	c-0.1,0.1-0.3,0.3-0.4,0.3h0c-0.4,0.1-0.8,0.4-1.2,0.6C379.6,232.1,379.2,232.4,378.7,232.4"/>
<path class="st5" d="M378.1,242.8c-0.2,0.2-0.2,0.6,0,0.8c0.2,0.2,0.6,0.2,0.8,0c0.4-0.5,1-0.8,1.6-1.1l0.1-0.1l-0.3-0.5l0.3,0.5
	l0,0c0.3-0.2,0.6-0.4,0.9-0.6c0.2-0.2,0.4-0.3,0.6-0.4h0c0,0,0,0,0.1,0c0.1-0.1,0.3-0.2,0.5-0.4c0.2-0.2,0.3-0.3,0.4-0.5
	c0.1-0.3-0.1-0.6-0.4-0.7c-0.3-0.1-0.6,0.1-0.7,0.4l0,0c0,0,0,0.1,0,0l0,0c0,0,0,0,0,0c-0.1,0.1-0.3,0.2-0.3,0.2l0,0
	c-0.3,0.2-0.5,0.4-0.7,0.6c-0.2,0.2-0.4,0.4-0.6,0.5l0,0v0l-0.1,0.1C379.4,241.8,378.7,242.2,378.1,242.8"/>
<path class="st5" d="M389.7,240.4c0.2-0.2,0.2-0.6,0-0.8c-0.2-0.2-0.6-0.2-0.8,0c-0.3,0.4-0.8,0.8-1.2,1.3c-0.4,0.5-0.8,1.1-1,1.5
	c-0.1,0.2-0.3,0.4-0.5,0.6c-0.3,0.3-0.6,0.6-0.8,1.1c-0.1,0.3,0.1,0.6,0.4,0.7c0.3,0.1,0.6-0.1,0.7-0.4c0-0.1,0.2-0.3,0.4-0.6
	c0.3-0.3,0.6-0.5,0.7-0.9c0.2-0.4,0.5-0.9,0.8-1.3C388.9,241.3,389.3,240.8,389.7,240.4"/>
<path class="st5" d="M429.6,222.9c0-0.3-0.2-0.6-0.6-0.6c-0.3,0-0.6,0.3-0.6,0.6c0,1.1-0.4,4.6-0.9,7.2c-0.3,1.6-0.6,2.8-0.9,2.9
	c-0.3,0.1-0.4,0.4-0.4,0.7c0.1,0.3,0.4,0.5,0.7,0.4c0.7-0.2,1.2-1.8,1.6-3.7C429.3,227.6,429.6,224,429.6,222.9"/>
<path class="st5" d="M421.7,221.4c0.1-0.3-0.1-0.6-0.4-0.7c-0.3-0.1-0.6,0.1-0.7,0.4c-0.6,2.5-2.4,5.4-4,7.7
	c-0.4,0.6-0.8,1.2-1.1,1.7c-0.9,1.4-1.5,3.3-2,4.8l-0.1,0.4c-0.1,0.3,0.1,0.6,0.4,0.7c0.3,0.1,0.6-0.1,0.7-0.4l0.1-0.4
	c0.5-1.4,1.1-3.3,1.9-4.5c0.3-0.5,0.7-1.1,1.1-1.7C419.2,227.1,421.1,224.2,421.7,221.4"/>
<path class="st5" d="M399.4,231.1c0.2-0.3,0.1-0.6-0.2-0.8c-0.3-0.2-0.6-0.1-0.8,0.2c-0.4,0.6-1.1,1.1-1.9,1.6
	c-1.1,0.8-2.3,1.6-2.6,2.7c-0.1,0.4-0.5,0.8-0.9,1.1c-0.4,0.4-0.8,0.7-0.9,1.1c-0.1,0.3,0.1,0.6,0.4,0.7c0.3,0.1,0.6-0.1,0.7-0.4
	c0.1-0.1,0.3-0.4,0.6-0.7c0.5-0.4,1-0.9,1.3-1.6c0.2-0.7,1.2-1.4,2.2-2.1C398,232.4,398.9,231.8,399.4,231.1"/>
<path class="st5" d="M399.6,237.8c0.1-0.3,0-0.6-0.3-0.7c-0.3-0.1-0.6,0-0.8,0.3c-0.4,0.7-2.8,3.6-4.2,5.1c-0.2,0.3-0.5,0.5-0.7,0.7
	c0,0,0,0.1,0,0.1c-0.2,0.1-0.4,0.2-0.4,0.5c0-0.2,0.1-0.4,0.3-0.4c0,0,0,0,0.1,0v0c0,0,0.1,0,0.1,0c0.2,0,0.5,0.1,0.6,0.3l-0.1,0.1
	l0.1-0.1c0.1,0.1,0,0.2,0,0.2l0.1,0.1h0c0-0.3-0.2-0.6-0.6-0.6c0,0,0,0-0.1,0c0,0-0.1,0-0.1,0c0,0.1,0.3,0.3,0.4,0.4l-0.3,0.1h0.6
	l-0.1-0.1c0,0-0.1,0-0.2-0.1l0.1-0.1l-0.1,0v0l-0.3,0.1h-0.6v0l0,0l0,0c0,0.1,0,0.2,0.1,0.3c0.2,0.5,0.7,0.5,1.2-0.1
	c0.1-0.1,0.4-0.4,0.7-0.8C396.7,241.6,399.2,238.6,399.6,237.8"/>
<path class="st5" d="M406.6,228.5c0.2-0.3,0.1-0.6-0.1-0.8c-0.3-0.2-0.6-0.1-0.8,0.1c-0.3,0.4-0.5,0.9-0.7,1.4
	c-0.2,0.3-0.3,0.7-0.5,1c-0.5,0.9-1.5,1.8-2.2,2.5l-0.2,0.2c-0.1,0.1-0.2,0.2-0.3,0.2l0.3,0.4l-0.3-0.4l0,0
	c-0.3,0.2-0.6,0.5-0.7,0.8c-0.1,0.3,0.1,0.6,0.4,0.7c0.3,0.1,0.6-0.1,0.7-0.4c0,0,0.2-0.1,0.4-0.3l0,0v0c0.1-0.1,0.3-0.2,0.4-0.3
	l0.2-0.2c0.8-0.8,1.7-1.8,2.3-2.8c0.2-0.4,0.4-0.7,0.5-1.1C406.1,229.3,406.3,228.9,406.6,228.5"/>
<path class="st5" d="M425.2,225.8c0.1-0.3-0.1-0.6-0.4-0.7c-0.3-0.1-0.6,0.1-0.7,0.4c-0.1,0.6-0.4,1.4-0.8,2.2
	c-0.4,0.7-0.8,1.4-1.2,1.9c-0.1,0.1-0.2,0.3-0.4,0.4c-0.3,0.3-0.5,0.5-0.7,0.9v0l0,0c0,0-0.1,0-0.2,0.1c-0.2,0.2-0.3,0.3-0.3,0.3
	c-0.3,0.1-0.4,0.4-0.3,0.7c0.1,0.3,0.4,0.4,0.7,0.3c0.1,0,0.4-0.3,0.7-0.5c0.1-0.1,0.2-0.2,0.3-0.3c0.1,0,0.1-0.1,0.1-0.2l-0.5-0.3
	l0.5,0.3c0.1-0.2,0.3-0.4,0.5-0.6c0.1-0.1,0.3-0.3,0.4-0.4c0.5-0.6,1-1.3,1.4-2.1C424.7,227.4,425.1,226.5,425.2,225.8"/>
<path class="st5" d="M414.5,227c0.3-0.1,0.4-0.5,0.2-0.8c-0.1-0.3-0.5-0.4-0.8-0.2c-0.4,0.2-0.7,0.5-0.9,0.9
	c-0.1,0.1-0.2,0.3-0.3,0.4c-0.3,0.3-0.8,0.6-1.3,0.9c-0.8,0.5-1.7,1-1.9,1.8c-0.1,0.3,0.1,0.6,0.4,0.7c0.3,0.1,0.6-0.1,0.7-0.4
	c0.1-0.4,0.8-0.8,1.4-1.2c0.5-0.3,1.1-0.6,1.5-1.1c0.1-0.1,0.3-0.3,0.4-0.4C414,227.4,414.3,227.1,414.5,227"/>
<path class="st5" d="M404.6,240.9L404.6,240.9l-0.1,0.2L404.6,240.9z M404.8,241.2c-0.1-0.1-0.2-0.2-0.2-0.3l0-0.1l0,0.1h0l0-0.1
	c0,0,0,0-0.1,0c0,0,0,0,0.1,0v0v0c0.1,0.1,0.2,0.2,0.3,0.3 M404.9,241.1C404.9,241.2,404.9,241.2,404.9,241.1c0,0.1-0.1,0.1-0.1,0.1
	l-0.3-0.1l0,0.1l0-0.1 M409.5,235c0.2-0.2,0.2-0.6,0-0.8c-0.2-0.2-0.6-0.2-0.8,0c-0.6,0.6-1.1,1.3-1.6,2c-0.6,0.8-1.2,1.5-1.8,2.2
	c-0.2,0.2-0.9,1.3-1.2,2.1c-0.1,0.2-0.2,0.4-0.2,0.6c-0.1,0.4,0,0.7,0.4,0.8c0,0,0.1,0,0.1,0c0.1,0,0.2,0,0.3,0
	c0.3-0.1,0.5-0.4,0.4-0.7c0-0.1,0-0.1-0.1-0.2c0,0,0,0.1,0,0.1c0.1,0.1,0.1,0.3,0,0.4c-0.1,0.1-0.2,0.2-0.3,0.3l-0.2-0.7l0-0.1
	l0.1-0.2c0,0,0-0.1,0-0.1c-0.1,0-0.2,0-0.2,0l0,0c0.2-0.1,0.5,0,0.6,0.2c0,0,0-0.1,0.1-0.1c0.3-0.6,0.9-1.6,1-1.7
	c0.7-0.7,1.3-1.5,1.9-2.3C408.5,236.2,409,235.6,409.5,235z"/>
<path class="st5" d="M400.9,242.8c0.2-0.2,0.2-0.6,0-0.8c-0.2-0.2-0.6-0.2-0.8,0c-0.6,0.6-1.3,1.2-2,1.8c-0.7,0.6-1.4,1.2-2,1.9
	c-0.2,0.2-0.4,0.3-0.7,0.5c-0.6,0.4-1.2,0.8-1.3,1.3c-0.1,0.3,0.1,0.6,0.4,0.7c0.3,0.1,0.6-0.1,0.7-0.4c0-0.1,0.4-0.4,0.8-0.7
	c0.3-0.2,0.7-0.4,0.9-0.7c0.6-0.6,1.3-1.2,2-1.8C399.6,244.1,400.2,243.5,400.9,242.8"/>
<path class="st5" d="M401.8,250.2l0.1,0l0,0l0,0L401.8,250.2z M401.8,250.2L401.8,250.2L401.8,250.2z M402,250.5l-0.2-0.3L402,250.5
	L402,250.5z M401.9,250.2c-0.2-0.1-0.2-0.3-0.3-0.5c-0.1,0-0.1,0-0.2,0l0,0.1l0.2,0.2h0l0.1,0.1l0.1,0.1L401.9,250.2
	c-0.1,0-0.2-0.1-0.2-0.1l0.1,0.1l0.1,0.1l-0.1,0l-0.1-0.3c0,0,0.1,0.1,0.1,0.1 M402,250.2L402,250.2
	C401.9,250.2,401.9,250.2,402,250.2h-0.2l0.2,0.3C402,250.4,402,250.3,402,250.2z M406.1,245.7c0.2-0.2,0.1-0.6-0.1-0.8
	c-0.2-0.2-0.6-0.1-0.8,0.1c-0.3,0.4-0.5,0.7-0.8,1.1c-0.3,0.5-0.6,0.9-0.9,1.3h0l0,0c-0.2,0.2-0.4,0.4-0.6,0.6
	c-0.5,0.4-0.9,0.9-1.2,1.3l0.5,0.3l-0.5-0.3l0,0c0,0-0.2,0.2-0.3,0.3v0l0,0c-0.3,0.2-0.5,0.4-0.4,0.8l0.2-0.1l-0.2,0.1
	c0,0,0,0,0,0.1c0.1,0.3,0.4,0.4,0.8,0.3c0.1-0.1,0.3-0.2,0.3-0.3l-0.1,0.1l0,0l0,0l0,0c0,0,0,0,0,0c0,0,0,0,0,0.1
	c-0.1,0-0.1,0.1-0.2,0.1l0,0.1c0.1,0,0.1-0.1,0.2-0.1c0,0,0,0,0.1,0l0,0c0.1-0.1,0.1-0.2,0.1-0.3c0,0,0.1,0,0.1,0
	c0,0.1,0,0.2-0.1,0.3c0.2-0.1,0.4-0.3,0.5-0.5c0,0,0-0.1,0-0.1c0.2-0.3,0.6-0.7,1-1.1c0.2-0.2,0.5-0.4,0.7-0.7l0,0l-0.4-0.4l0.4,0.4
	c0.4-0.5,0.7-1,1-1.5C405.6,246.4,405.9,246,406.1,245.7z"/>
<path class="st5" d="M412.9,247.5c0.2-0.2,0.1-0.6-0.1-0.8c-0.2-0.2-0.6-0.1-0.8,0.1c-0.2,0.3-0.4,0.5-0.6,0.8
	c-0.2,0.3-0.5,0.6-0.7,0.9l0.4,0.3l-0.4-0.3l0,0c-0.3,0.4-0.6,0.7-1,1c-0.2,0.2-0.4,0.4-0.6,0.5c-0.1,0.1-0.2,0.2-0.3,0.3
	c-0.2,0.2-0.4,0.5-0.5,0.5c-0.3,0.1-0.4,0.4-0.4,0.7c0.1,0.3,0.4,0.4,0.7,0.4c0.4-0.1,0.7-0.5,1-0.8c0.1-0.1,0.2-0.2,0.2-0.2
	c0.2-0.2,0.4-0.3,0.5-0.5c0.4-0.4,0.8-0.7,1.1-1.2c0,0,0,0,0,0c0.2-0.3,0.4-0.6,0.7-0.9C412.5,248,412.7,247.7,412.9,247.5"/>
<path class="st5" d="M420.3,237.5c0-0.3-0.3-0.6-0.6-0.6c-0.3,0-0.6,0.3-0.6,0.6c0,1.2-1,2.3-2,3.4c-0.8,0.9-1.5,1.7-1.7,2.5
	c-0.1,0.3,0.1,0.6,0.4,0.7c0.3,0.1,0.6-0.1,0.7-0.4c0.2-0.6,0.8-1.3,1.5-2.1C419.1,240.5,420.3,239.1,420.3,237.5"/>
<path class="st5" d="M425.7,239.2c0.2-0.3,0.1-0.6-0.1-0.8c-0.3-0.2-0.6-0.1-0.8,0.1c-0.8,1.2-1.3,2.7-1.9,4.2
	c-0.3,0.9-0.6,1.7-0.9,2.4c-0.2,0.5-0.4,1-0.6,1.5c-0.1,0.2-0.1,0.3-0.2,0.6h0l0,0c-0.1,0.1-0.2,0.3-0.3,0.5
	c-0.1,0.2-0.3,0.4-0.3,0.6c-0.1,0.3,0.1,0.6,0.4,0.7c0.3,0.1,0.6-0.1,0.7-0.4c0,0,0.1-0.2,0.2-0.3c0.2-0.2,0.3-0.5,0.5-0.8
	c0,0,0,0,0-0.1l-0.5-0.2l0.5,0.2c0.1-0.2,0.1-0.4,0.2-0.6c0.2-0.5,0.3-0.9,0.5-1.4c0.4-0.8,0.7-1.6,1-2.5
	C424.4,241.7,425,240.2,425.7,239.2"/>
<path class="st5" d="M377.7,209.5c0-0.3-0.3-0.6-0.6-0.6s-0.6,0.3-0.6,0.6c0,0.5,0,1.1,0,1.7c0,0.5,0.1,1,0.1,1.4l0.6-0.1l-0.6,0.1
	c0,0,0,0,0,0c0,0.3,0,0.6,0,0.9c0,0.6,0,1.1,0.1,1.6c0.1,0.3,0.4,0.4,0.7,0.4c0.3-0.1,0.5-0.4,0.4-0.7c-0.1-0.3-0.1-0.8-0.1-1.2
	c0-0.3,0-0.7,0-1c0,0,0,0,0-0.1c0-0.4-0.1-0.9-0.1-1.4C377.7,210.6,377.7,210,377.7,209.5"/>
<path class="st5" d="M379.7,218.2c-0.1-0.3-0.4-0.5-0.7-0.4c-0.3,0.1-0.5,0.4-0.4,0.7l1.3,4.6c0.1,0.3,0.4,0.5,0.7,0.4
	c0.3-0.1,0.5-0.4,0.4-0.7L379.7,218.2z"/>
<path class="st5" d="M382.9,214.7c-0.1-0.3-0.4-0.5-0.7-0.4c-0.3,0.1-0.5,0.4-0.4,0.7l1.3,4.6c0.1,0.3,0.4,0.5,0.7,0.4
	c0.3-0.1,0.5-0.4,0.4-0.7L382.9,214.7z"/>
<path class="st5" d="M387.3,201.1c-0.1-0.3-0.4-0.5-0.7-0.4c-0.3,0.1-0.5,0.4-0.4,0.7l1.2,3.8c0.1,0.3,0.4,0.5,0.7,0.4
	c0.3-0.1,0.5-0.4,0.4-0.7L387.3,201.1z"/>
<path class="st5" d="M396.1,228.1c0.2-0.2,0.1-0.6-0.1-0.8c-0.2-0.2-0.6-0.1-0.8,0.1c-0.7,0.9-2,1.7-3.2,2.4c-1.7,1-3.3,2-3.5,3.5
	c0,0.3,0.2,0.6,0.5,0.6c0.3,0,0.6-0.2,0.6-0.5c0.1-1,1.5-1.8,3-2.6C393.9,230,395.3,229.2,396.1,228.1"/>
<path class="st5" d="M398.8,217.5c0.3-0.2,0.3-0.6,0-0.9c-0.2-0.3-0.6-0.3-0.9,0l-3.9,3.7c-0.3,0.2-0.3,0.6,0,0.9
	c0.2,0.3,0.6,0.3,0.9,0L398.8,217.5z"/>
<path class="st5" d="M390.4,224.9c0.2-0.2,0.2-0.6,0-0.8c-0.2-0.2-0.6-0.2-0.8,0l-3.5,3.3c-0.2,0.2-0.2,0.6,0,0.8
	c0.2,0.2,0.6,0.2,0.8,0L390.4,224.9z"/>
<path class="st5" d="M459.8,209.4c-0.2-0.3-0.5-0.4-0.8-0.2c-0.3,0.2-0.4,0.5-0.2,0.8c1.9,3.3,2.7,6.5,3.5,9.6c0.5,2,1,3.9,1.7,5.8
	c0.5,1.3,1.3,2.7,2.1,4.1c1.4,2.4,2.8,4.8,2.8,6.9c0,0.3,0.3,0.6,0.6,0.6c0.3,0,0.6-0.2,0.6-0.6c0-2.3-1.5-4.9-3-7.4
	c-0.8-1.4-1.6-2.7-2-3.9c-0.7-1.9-1.2-3.7-1.6-5.7C462.6,216.1,461.8,212.8,459.8,209.4"/>
<path class="st5" d="M365.2,251.9c-0.2,0-0.3-0.1-0.4-0.2L365.2,251.9z M364.7,250.8c0.4-3.7,0.4-6.9-0.2-9.9
	c-0.5-2.6-1.5-4.9-3-6.9c0.2-0.1,0.3-0.2,0.5-0.4c0.4-0.5,0.9-1.3,1.7-2.7c0.3-0.5,0.6-1.1,1.1-1.9c0.1,0,0.2-0.1,0.2-0.1l0,0
	l4.1-3.5c-0.6,3.1-0.6,6.1-0.2,8.9c0.4,3.3,1.4,6.5,2.7,9.6c0.1,2-0.5,3.4-1.7,4.5c-1.2,1.1-2.9,1.9-4.9,2.4
	C364.9,250.7,364.8,250.8,364.7,250.8z M364,251.9c3.8,15.4,8.7,29,14.9,40.4c6.3,11.6,14,20.9,23.2,27.9c0.2,0.1,0.4,0.1,0.6-0.1
	c0.1-0.2,0.1-0.4-0.1-0.6c-9.2-6.9-16.8-16.2-23-27.7c-6.2-11.3-11.1-24.7-14.8-40c0.1,0,0.3,0,0.4,0c0,0,0.1,0,0.1,0h0
	c2.2-0.6,4.1-1.5,5.4-2.7c1.4-1.3,2.1-3,2-5.4c0-0.1,0-0.2,0-0.2c-1.3-3.1-2.2-6.2-2.7-9.4c-0.4-3.2-0.3-6.6,0.5-10.1
	c0.1-0.2,0-0.4-0.1-0.5c-0.2-0.2-0.6-0.3-0.8-0.1l-4.9,4.3l-5.3-6c0-0.1-0.1-0.1-0.2-0.1c-0.3-0.1-0.6,0-0.8,0.2l0.5,0.3l-0.5-0.3
	l-3.6,7c-0.7,0-1.4,0-2-0.1c-0.8-0.1-1.5-0.3-2.3-0.5c-0.2-0.1-0.4,0-0.6,0.1c-0.2,0.2-0.2,0.6,0,0.8h0c3,2.9,3.4,7.2,3.8,11.2
	C354.3,246.6,354.8,252.3,364,251.9z M355.2,229.8c2.3,1.3,3.5,2.4,4.4,3.2c0.1,0.1,0.2,0.2,0.3,0.3c2,2.1,3.2,4.7,3.8,7.7
	c0.6,2.9,0.6,6.1,0.2,9.8c-8.1,0.3-8.6-4.9-9.1-10.5c-0.3-3.7-0.7-7.6-2.9-10.6c0.3,0,0.5,0.1,0.8,0.1
	C353.5,229.9,354.4,229.9,355.2,229.8z M364.1,228.6c-0.4,0.7-0.7,1.3-1,1.8c-0.8,1.4-1.2,2.2-1.6,2.6c-0.3,0.3-0.5,0.2-0.9-0.2
	c-0.7-0.7-1.4-1.4-2.3-2c-0.7-0.5-1.5-1.1-2.4-1.5l3.2-6.3L364.1,228.6z"/>
<path class="st5" d="M422.1,270.6c0.1-0.2,0-0.4-0.2-0.5c-0.2-0.1-0.4,0-0.5,0.2l-7.9,20.3c-0.1,0.2,0,0.4,0.2,0.5
	c0.2,0.1,0.4,0,0.5-0.2L422.1,270.6z"/>
<line class="st13" x1="393" y1="280.1" x2="393" y2="280.2"/>
</svg>
