<?xml version="1.0" encoding="UTF-8"?>
<svg id="Layer_2" data-name="Layer 2" xmlns="http://www.w3.org/2000/svg" xmlns:xlink="http://www.w3.org/1999/xlink" viewBox="0 0 439.2 439.2">
  <defs>
    <style>
      .cls-1 {
        fill: #0e0100;
      }

      .cls-2, .cls-3, .cls-4 {
        fill: none;
      }

      .cls-5 {
        fill: #009540;
      }

      .cls-5, .cls-6, .cls-7, .cls-8, .cls-9, .cls-10, .cls-11 {
        fill-rule: evenodd;
      }

      .cls-6 {
        fill: #ffcb00;
      }

      .cls-7, .cls-12 {
        fill: #fff;
      }

      .cls-8 {
        fill: #009ee2;
      }

      .cls-13 {
        fill: #1d1d1b;
      }

      .cls-3 {
        stroke: #1d1d1b;
        stroke-width: .84px;
      }

      .cls-3, .cls-4 {
        stroke-miterlimit: 22.93;
      }

      .cls-9 {
        fill: #ebebeb;
      }

      .cls-10 {
        fill: #e20613;
      }

      .cls-14 {
        clip-path: url(#clippath);
      }

      .cls-11 {
        fill: #1e8ccc;
      }

      .cls-4 {
        stroke: #009ee2;
        stroke-width: 2.2px;
      }
    </style>
    <clipPath id="clippath">
      <path class="cls-2" d="M217.9,24.1c108-1.2,196.5,84.8,197.6,192,.4,35.9-9.1,69.6-25.9,98.6-.1.1-.1.3-.2.3-72.6,0-259.1-.2-338.9.2-.2,0-.2-.3-.3-.5-16.1-27.9-25.5-60.1-25.8-94.5C23.3,113.1,109.9,25.3,217.9,24.1Z"/>
    </clipPath>
    <clipPath id="clippath-1">
      <path class="cls-2" d="M217.9,24.1c108-1.2,196.5,84.8,197.6,192,.4,35.9-9.1,69.6-25.9,98.6-.1.1-.1.3-.2.3-72.6,0-259.1-.2-338.9.2-.2,0-.2-.3-.3-.5-16.1-27.9-25.5-60.1-25.8-94.5C23.3,113.1,109.9,25.3,217.9,24.1Z"/>
    </clipPath>
    <clipPath id="clippath-2">
      <rect class="cls-2" x="23.3" y="23" width="392.6" height="292.4"/>
    </clipPath>
  </defs>
  <g id="katman_1" data-name="katman 1">
    <path class="cls-7" d="M219.6,0c121.3,0,219.6,98.3,219.6,219.6s-98.3,219.6-219.6,219.6S0,340.9,0,219.6,98.3,0,219.6,0"/>
    <path class="cls-10" d="M217.5,17.5c111.6-1.2,203,88.5,204.2,200.3.4,37.4-9.4,72.6-26.7,102.8-.1.1-.1.3-.2.3-75,0-267.7-.2-350.1.2-.2,0-.2-.4-.3-.5-16.7-29-26.3-62.6-26.7-98.5C16.4,110.3,105.9,18.7,217.5,17.5"/>
    <path class="cls-12" d="M217.9,24.1c108-1.2,196.5,84.8,197.6,192v1.7c.1,35.3-9.4,68.4-25.9,97-.1.1-.1.3-.2.3-72.6,0-259.1-.2-338.9.2-.2,0-.2-.3-.3-.5-16.1-27.9-25.5-60.1-25.8-94.5C23.3,113.1,109.9,25.3,217.9,24.1Z"/>
    <g class="cls-14">
      <rect class="cls-12" x="24.4" y="24.1" width="391.1" height="291.2"/>
    </g>
    <path class="cls-13" d="M311.1,80.3c-23.3-22.7-55.5-36.8-91.1-36.8s-67.8,14.1-91.1,36.8-37.7,54.1-37.7,88.8,14.4,66,37.7,88.8c23.3,22.7,55.5,36.8,91.1,36.8s67.8-14.1,91.1-36.8c23.3-22.7,37.7-54.1,37.7-88.8s-14.5-66-37.7-88.8M220,42c36,0,68.6,14.2,92.2,37.2s38.2,54.8,38.2,89.9-14.6,66.9-38.2,89.9c-23.6,23-56.2,37.2-92.2,37.2s-68.6-14.2-92.2-37.2-38.2-54.8-38.2-89.9,14.6-66.9,38.2-89.9c23.6-23,56.2-37.2,92.2-37.2Z"/>
    <path class="cls-10" d="M99.3,377.8l240.8-.6c.5,1.5.7,4.1-.1,4.7-97.7,77.6-220.5,21.5-240.1,1-2.1-2.2-1.6-3.9-.6-5.1"/>
    <path class="cls-7" d="M113.7,383.9l213.1-.7c-59.8,41.2-154.1,43-213.1.7"/>
    <path class="cls-11" d="M219.7,81.3c49.9,0,90.3,39.9,90.3,89.1s-40.5,89.1-90.3,89.1-90.3-39.9-90.3-89.1,40.4-89.1,90.3-89.1"/>
    <path class="cls-9" d="M196.5,99.7c12.4,8.7,22.4,16.2,33.9,23.1,7.4-6.7,15.9-12.7,27.2-17l11.3,9.2,40.5,38,1.5,15.8-.8,17.6-179.4-.9c-3-16.3-.7-31.9,4.7-47,19.7-13.6,39.8-26.8,61.1-38.8Z"/>
    <path class="cls-3" d="M196.5,99.7c12.4,8.7,22.4,16.2,33.9,23.1,7.4-6.7,15.9-12.7,27.2-17l11.3,9.2,40.5,38,1.5,15.8-.8,17.6-179.4-.9c-3-16.3-.7-31.9,4.7-47,19.7-13.6,39.8-26.8,61.1-38.8Z"/>
    <path class="cls-13" d="M283.5,108.2c-16.3-16.1-38.7-26-63.5-26s-47.3,10-63.5,26c-16.3,16.1-26.3,38.3-26.3,62.9s10.1,46.8,26.3,62.9c16.3,16.1,38.7,26,63.5,26s47.3-10,63.5-26c16.3-16.1,26.3-38.3,26.3-62.9s-10-46.8-26.3-62.9M220,80.5c25.2,0,48.1,10.1,64.6,26.5s26.8,39,26.8,64-10.2,47.6-26.8,64c-16.5,16.4-39.4,26.5-64.6,26.5s-48.1-10.1-64.6-26.5-26.8-39-26.8-64,10.2-47.6,26.8-64c16.5-16.3,39.3-26.5,64.6-26.5Z"/>
    <path class="cls-13" d="M135.5,137.8c-.2.1-.2.4-.1.6.1.2.4.2.6.1,9.6-6.9,19.3-13.6,29.4-20.1,10-6.4,20.4-12.6,31.2-18.6,7.8,5.7,15.5,11,23,16.3,3.3,2.3,6.6,4.6,10.1,7.1.2.1.4.1.5-.1,3.8-3.7,8.1-7.1,12.8-10.1,4.5-2.8,9.3-5.3,14.5-7.2,9.5,7.8,18.2,15.6,26.6,23.5,8.5,7.9,16.5,16,24.6,24.1.2.2.4.2.6,0s.2-.4,0-.6c-8.1-8.2-16.1-16.2-24.6-24.1-8.4-7.9-17.3-15.8-26.8-23.6-.1-.1-.3-.1-.4-.1-5.3,2-10.3,4.5-14.8,7.3-4.7,3-9,6.3-12.7,10-3.1-2.2-6.4-4.5-9.8-6.9-7.6-5.3-15.3-10.7-23.2-16.4-.1-.1-.3-.1-.4,0l.2.3-.2-.3c-10.9,6-21.3,12.2-31.4,18.7-10.3,6.5-20.1,13.2-29.7,20.1"/>
    <path class="cls-5" d="M130.4,185.5c59.8.3,119.1.5,178.9.8-5,21-13.3,40.5-34.3,55.6-29.5,19.4-57.4,23.6-88.9,11.9-28.6-11.1-48.3-33.1-55.7-68.3"/>
    <path class="cls-8" d="M150.8,229.5l4.4-2.2,9.2-1.4,3.1-4.8,29.1-.4,12.9-5.7,24.2-.4,10.8-1,4-1.1,13.8-.2c2.6-6.6,4.4-8.3,20-9,5.5-4.6,15.8-9.1,26.7-14.7-2.1,3.6-11.6,13.7-15.4,17.1-2,1.5-4.9,2.5-8.5,3.1-12.6,9-27.6,11.6-38.2,18.9-11.8,1.6-21.9,5.4-31,10.4l-12.6,1-1.7,8.5c-6.4.4-8.1,4.8-11.2,8-14.5-4-26.9-13.4-39.6-26.1"/>
    <path class="cls-13" d="M155.4,227.9l-3.7,1.8c6.1,6.1,12.2,11.4,18.5,15.7,6.4,4.4,12.9,7.7,20,9.8.6-.6,1.1-1.3,1.7-2,2.2-2.7,4.4-5.4,9.3-5.9l1.6-8.1.1-.4h.4l12.5-1c4.6-2.5,9.4-4.7,14.5-6.4,5.1-1.8,10.6-3.1,16.5-3.9,5-3.4,10.8-5.7,17-8.2,7-2.8,14.4-5.8,21.1-10.6l.1-.1h.1c1.8-.3,3.4-.7,4.8-1.2s2.5-1.1,3.5-1.8c2.1-1.9,5.8-5.7,9.1-9.4,1.9-2.1,3.7-4.2,4.9-5.8-1.9,1-3.8,1.9-5.6,2.8-7.9,3.9-14.9,7.4-19,10.8l-.1.1h-.2c-7.7.4-12,1-14.7,2.3-2.6,1.3-3.6,3.2-4.9,6.4l-.1.3h-.4l-13.7.2-3.9,1.1h-.2l-10.8,1h0l-24,.4-12.8,5.6h-.2l-28.8.4-2.9,4.5-.1.2h-.3l-9.3,1.4ZM150.6,229l4.4-2.2h.2l9-1.3,2.9-4.6.2-.3h.3l29-.4,12.8-5.6h.2l24.1-.4,10.8-.9,3.9-1.1h.2l13.4-.2c1.3-3.2,2.5-5.3,5.3-6.7,2.8-1.4,7.2-2,14.9-2.4,4.3-3.5,11.2-6.9,19.1-10.8,2.5-1.2,5.1-2.5,7.6-3.8l.6-.2.2,1c-1,1.7-3.5,4.7-6.3,7.8-3.3,3.7-7.1,7.6-9.2,9.5h0c-1,.8-2.3,1.4-3.8,2-1.4.5-3,.9-4.9,1.2-6.8,4.8-14.2,7.8-21.2,10.6-6.1,2.5-12,4.8-16.9,8.2l-.1.1h-.1c-5.9.8-11.3,2.2-16.4,3.9-5.1,1.8-9.9,3.9-14.4,6.4l-.1.1h-.1l-12.2,1-1.6,8.1-.1.4h-.4c-4.7.3-6.8,2.9-8.9,5.5-.6.8-1.3,1.6-2,2.3l-.2.2-.3-.1c-16-4.7-28.8-15.3-40-27.2l.1-.1Z"/>
    <path class="cls-13" d="M340.1,165.1l3.6-.1.1,2.9-3.6.1-.1-2.9ZM316.9,165.3l20.6-.6.2,3.9-20.6.6-.2-3.9ZM319.8,140l.9,3.7c-1.3.3-2.3.7-2.8,1.4s-.7,1.6-.4,2.8c.2.9.7,1.6,1.3,2.1.7.5,1.4.7,2.2.5,1.2-.2,2.1-1.8,2.5-4.8l.1-.4v-.4c.1-.8.2-1.5.4-2.2.2-.6.3-1.1.6-1.5.3-.6.7-1,1.3-1.4.6-.4,1.3-.7,2.1-.8,1.8-.3,3.4,0,4.7,1,1.4,1,2.3,2.6,2.8,4.6s.3,3.6-.5,4.8c-.8,1.3-2.1,2.1-3.9,2.4h-.1l-.8-3.3c.5-.1.9-.3,1.3-.5s.7-.5.9-.9c.4-.6.5-1.4.3-2.3-.2-.9-.6-1.5-1.2-2-.6-.4-1.3-.6-2.1-.4-1.2.2-2,1.9-2.4,5v.2c-.3,2.4-.8,4-1.5,4.9s-1.7,1.4-3.2,1.7c-1.9.3-3.5,0-4.9-1.1s-2.3-2.7-2.9-5-.4-4.2.4-5.6c.8-1.4,2.3-2.3,4.5-2.7l.4.2ZM304.5,121.4l18.7-7.7,5.8,10.9-3.1,1.3-3.9-7.3-4.4,1.8,3.6,6.9-3,1.2-3.7-6.9-5,2.1,4,7.6-3.1,1.3-5.9-11.2ZM292.8,105.4l5.9-4.2,5.7-11.9,2.9,3.2-3.9,8.1,9.5-2,2.9,3.1-14.4,2.5-5.9,4.2-2.7-3ZM293.4,77l2.3-2.4,2.5,1.9-2.3,2.4-2.5-1.9ZM277.8,92l13.5-13.7,3.3,2.5-13.5,13.7-3.3-2.5ZM259.2,77.8l2,.9c1.9.8,3.6,1,4.9.5,1.4-.5,2.6-1.7,3.6-3.5,1.1-1.9,1.4-3.5,1-4.8s-1.6-2.3-3.5-3.1l-2-.9-6,10.9ZM253.8,78.8l9-16.3,5.8,2.5c.8.3,1.5.7,2.1,1s1.1.6,1.5.9c.8.6,1.5,1.3,2,2.2.7,1.2,1.1,2.5,1,3.9s-.5,2.9-1.3,4.4c-1.5,2.7-3.4,4.3-5.8,5s-5.2.3-8.5-1.1l-5.8-2.5ZM229.4,72.8l3.9-17.8,13.4,2.3-.6,2.9-9-1.5-.9,4.2,8.5,1.4-.6,2.9-8.5-1.4-1.1,4.8,9.4,1.6-.7,3-13.8-2.4ZM205.3,73.1l-1.4-18.1,4.4-.3,1.2,15,9.3-.6.2,3.1-13.7.9ZM181.2,79.4l-7.1-17,12.9-4.1,1.2,2.8-8.7,2.8,1.7,4,8.1-2.6,1.1,2.8-8.1,2.6,1.9,4.6,9-2.9,1.2,2.8-13.2,4.2ZM158.6,91.9l-11.8-14.8,5.8-3.6c2.2-1.4,4.1-2.1,5.6-2.1s2.8.6,3.8,1.9c.7.8,1,1.6.9,2.4,0,.8-.4,1.6-1.1,2.5,1.4-.4,2.6-.5,3.7-.3,1.1.3,2,.9,2.8,1.8.5.6.8,1.2,1,1.8s.2,1.2.1,1.8c-.2.8-.6,1.5-1.2,2.2-.7.7-1.9,1.6-3.7,2.7l-5.9,3.7ZM160.2,87.4l2.4-1.5c1.5-.9,2.3-1.7,2.5-2.2.2-.6,0-1.3-.6-2.1s-1.3-1.2-2-1.2-1.8.4-3.2,1.3l-2.4,1.5,3.3,4.2ZM155,80.9l2.4-1.5c1.1-.7,1.8-1.3,2-1.8s.1-1.1-.5-1.8-1.2-1.1-1.8-1.1c-.7,0-1.5.3-2.7,1l-2.4,1.5,3,3.7ZM139.9,111c-.6.7-1.2,1.3-2,1.7-.7.4-1.4.7-2.2.9-1.7.4-3.5,0-5.3-1.2l-.2-.1,2.5-3.1c1.1.7,2.1,1,3.1.9s1.8-.7,2.6-1.6c.6-.8.9-1.5.9-2.3s-.4-1.4-1-1.8c-1-.7-2.9-.1-5.8,1.6l-.4.2-.4.2c-.8.5-1.5.9-2.1,1.2s-1.2.5-1.7.7c-.7.2-1.4.2-2.1.1-.7-.1-1.4-.4-2.1-.8-1.5-.9-2.3-2.2-2.3-3.8-.1-1.6.6-3.2,2.1-4.9,1.3-1.6,2.8-2.6,4.4-2.9,1.6-.3,3.1,0,4.7,1l.1.1-2.3,2.7c-.4-.3-.8-.4-1.3-.5-.4-.1-.9-.1-1.3,0-.8.1-1.5.6-2.2,1.4-.6.7-.9,1.4-.9,2.1s.4,1.2,1,1.6c1,.6,3,0,5.8-1.8l.2-.2c2.2-1.4,3.9-2.2,5.1-2.3s2.4.2,3.6,1c1.5,1,2.3,2.3,2.3,3.9s-.7,3.3-2.2,5.1l.7.5.1-.1c.7-.8,1.3-1.3,2-1.4.7-.2,1.4,0,2.1.4.7.5,1.1,1.1,1.1,1.7,0,.7-.3,1.5-1.1,2.3-.3.4-.7.7-1.1,1.1-.2.2-.5.4-.7.6-.3.2-.6.4-.8.6l-1.5-.9c.2-.1.4-.3.7-.5.3-.2.6-.4.9-.7.2-.2.4-.3.6-.5s.3-.3.5-.5c.3-.3.4-.6.4-.9s-.1-.5-.4-.7-.6-.2-.8-.1c-.3.1-.6.4-.9.8l-.3.4c-.1.1-.1.2-.2.2l-1.9-1.4ZM105,132.9l1.5-3.6,12.2,3.9c1.4.5,2.6.5,3.6.1s1.7-1.2,2.3-2.5c.5-1.3.5-2.3.1-3.1-.5-.8-1.5-1.5-3-2l-12-3.8,1.4-3.5,11.9,3.8c2.6.8,4.3,2.1,5.1,3.7.8,1.6.7,3.6-.4,6.1-1,2.5-2.4,4.1-4.2,4.9-1.8.8-4,.8-6.6-.1l-11.9-3.9ZM119.6,169.1l-20.6-1.3.5-6.1,15.2-2.9-14.6-4.7.5-6.2,20.6,1.3-.3,3.6-17.4-1.1,17,5.8-.3,3.4-17.8,3.6,17.4,1.1-.2,3.5Z"/>
    <path class="cls-13" d="M265,265.5c-.3-.8-.8-1.4-1.5-1.6s-1.5-.1-2.4.3c-.9.5-1.5,1.1-1.8,1.8-.3.7-.3,1.5.1,2.4.3.9.9,1.4,1.5,1.7.7.3,1.4.2,2.3-.3s1.5-1.1,1.8-1.8c.3-.9.3-1.7,0-2.5M258.1,278.2l4.7-2.5c.3.5.7.8,1.2.9s1.1-.1,1.8-.4c1-.5,1.6-1.3,1.9-2.2.3-1,.1-2.1-.4-3.4l-.1-.3-.1-.2c-.5.8-1,1.6-1.7,2.2-.7.7-1.4,1.2-2.2,1.6-1,.5-1.9.8-2.7.9-.8.1-1.6.1-2.4-.2-1.5-.5-2.6-1.6-3.4-3.5-.8-2-.7-3.9.2-5.7.9-1.8,2.5-3.3,4.9-4.6,2.5-1.3,4.7-1.5,6.6-.6,2,.9,3.5,2.7,4.6,5.6,1.2,3.2,1.5,5.9.7,8.2-.7,2.3-2.5,4.2-5.2,5.6-2,1-3.7,1.4-5.1,1.2-1.4-.3-2.5-1.1-3.3-2.6ZM248.2,286.7l-15.7,2.4-.5-4.1c1.2-1,2.5-2,3.7-3.1s2.3-2.2,3.4-3.3c1-1.1,1.7-1.9,2-2.6.3-.6.4-1.3.3-2.1-.1-.8-.4-1.4-.8-1.7-.5-.3-1.1-.5-2-.3-.8.1-1.4.5-1.8,1-.2.3-.3.6-.4,1s-.1.8,0,1.2l-5,.7c-.2-2.1.2-3.9,1.3-5.2,1.1-1.3,2.9-2.1,5.3-2.5s4.4-.1,5.9.8,2.3,2.3,2.6,4.2c.2,1.7-.3,3.5-1.5,5.2s-3.3,3.7-6.4,6.1l9.1-1.4.5,3.7ZM217.2,275.4c.1-.9-.1-1.7-.6-2.3-.5-.6-1.2-1-2.2-1.1s-1.7,0-2.3.5c-.6.4-.9,1.1-1,2-.1,1,.1,1.7.6,2.4.5.6,1.2,1,2.1,1.1s1.7,0,2.3-.5c.6-.5,1-1.2,1.1-2.1ZM205.6,282.1l5.1.7c0,.6.2,1.1.6,1.5s1,.6,1.7.7c1.1.1,1.9-.1,2.6-.8.7-.7,1.1-1.7,1.2-3.1v-.7c-.8.4-1.6.7-2.4.9-.9.2-1.7.2-2.6.1-1-.1-2-.4-2.7-.8-.8-.4-1.4-.9-2-1.6-1.1-1.3-1.5-3-1.3-5,.2-2.2,1.1-3.8,2.7-4.8s3.7-1.3,6.3-1c2.7.4,4.7,1.5,6,3.4s1.8,4.5,1.5,7.6c-.3,3.4-1.3,5.9-3,7.4s-4,2.1-6.9,1.7c-2.2-.3-3.8-1-4.9-2-1.3-1-1.9-2.4-1.9-4.2ZM189.7,282.6l-4.6-1.7,3.7-13.6c-.7.2-1.5.4-2.4.4-.9.1-1.9.1-3,0l1.2-4.4c.5,0,1.1-.1,1.7-.1.6-.1,1.1-.1,1.6-.2,1-.2,2-.4,2.9-.7l4.1,1.5-5.2,18.8Z"/>
    <path class="cls-13" d="M384.7,334.2l-6.1-.1.1-4.9,6.1.1-.1,4.9ZM385.5,364.3l-8.3-.1.3-27.3,8.3.1-.3,27.3ZM372.9,344.7l-7.9-.1c-.2-1.6-1.3-2.4-3.3-2.4-1.8,0-2.7.5-2.7,1.5,0,.9.8,1.6,2.4,2.1l5.3,1.7c2,.6,3.6,1.5,4.8,2.6,1.3,1.2,1.9,2.9,1.9,5.2,0,4.1-2,6.9-5.8,8.3-1.8.7-3.9,1-6.2,1-3.2,0-5.9-1-8-2.8-1.5-1.3-2.5-2.9-2.9-4.7-.2-.6-.2-1.2-.2-1.8l8,.1c.1.9.6,1.6,1.3,2.2.7.5,1.5.7,2.4.7,1.4,0,2.4-.3,3-.9.3-.3.4-.7.4-1.1,0-.9-.8-1.6-2.4-2.1l-5.3-1.7c-4.5-1.4-6.8-4.1-6.7-8.1,0-3.8,1.8-6.3,5.4-7.7,1.7-.6,3.6-.9,5.7-.9,2.9,0,5.3.7,7.1,2.1,2.1,1.6,3.3,3.8,3.7,6.8ZM347.5,363.9l-21.2-.2.3-27.3,20.7.2-.1,6.4-12.4-.1v3.9l10.5.1-.1,6.4-10.5-.1v4.3l12.9.1-.1,6.3ZM314.2,353.4l-.1,10.1-8.3-.1.1-10-9.3-17.5,9.3.1,4.3,9.3,4.5-9.2,9.2.1-9.7,17.2ZM292.7,333.2l-6.1-.1.1-4.9,6.1.1-.1,4.9ZM293.5,363.3l-8.3-.1.3-27.3,8.3.1-.3,27.3ZM265.9,342l-.2,14.6h1.8c4,0,6-2.4,6.1-7.3,0-3.6-.8-5.8-2.5-6.6-.9-.4-2.1-.7-3.6-.7h-1.6ZM268.3,363l-10.9-.1.3-27.3,11.1.1c4.2,0,7.4,1.1,9.7,3.3,2.3,2.2,3.5,5.6,3.4,10-.1,9.4-4.7,14.1-13.6,14ZM253.5,362.8l-21.2-.2.3-27.3,20.7.2-.1,6.4-12.4-.1v3.9l10.5.1-.1,6.4-10.5-.1v4.3l12.9.1-.1,6.3ZM228.5,362.5l-19.7-.2.3-27.3,8.3.1-.2,21,11.4.1-.1,6.3ZM204.5,362.3l-21.2-.2.3-27.4,20.7.2-.1,6.4-12.3-.1v3.9l10.5.1-.1,6.4-10.5-.1v4.3l12.9.1-.2,6.4ZM166.8,350.4h-2.7l-.1,5.1h3.6c2.4,0,3.6-.8,3.6-2.5,0-1.4-.7-2.2-2-2.4-.5-.1-1.3-.2-2.4-.2ZM167.2,340.9h-2.9l-.1,4.6h3.5c1.9,0,2.9-.8,2.9-2.4,0-1-.4-1.6-1.1-1.9-.4-.2-1.2-.3-2.3-.3ZM168.1,361.9l-12.4-.1.3-27.3,12.1.1c3.2,0,5.6.5,7.3,1.5,1.9,1.1,2.9,3,2.9,5.5s-1.2,4.4-3.4,5.9c1.8.5,3,1.7,3.7,3.5.3.9.5,1.8.4,2.8,0,2.9-1,5-3,6.3-1.7,1.2-4.4,1.8-7.9,1.8ZM123.6,369.8l.8-1.7c.2.1.5.2,1,.3l1.1.3c.3.1.6.1.9.1,1.2,0,1.9-.4,1.9-1.3,0-.4-.2-.8-.5-1-.3-.3-.7-.4-1.1-.4s-.9.1-1.3.4l-.9-.9,2-3.5h2l-1.4,2.4c.2-.1.5-.1,1-.1h.7c.2,0,.3.1.4.1.6,0,1.2.3,1.8.9.5.6.8,1.2.8,1.9,0,.2,0,.4-.1.7-.3,1-.8,1.7-1.7,2.2-.8.5-1.7.7-2.7.7-1.4-.1-2.9-.4-4.7-1.1ZM139.8,342.1l-7.9-.1c-.2-1.6-1.3-2.4-3.3-2.4-1.8,0-2.7.5-2.7,1.5,0,.9.8,1.6,2.4,2.1l5.3,1.7c2,.6,3.6,1.5,4.8,2.6,1.3,1.2,1.9,2.9,1.9,5.2,0,4.1-2,6.9-5.8,8.3-1.8.7-3.9,1-6.2,1-3.2,0-5.9-1-8-2.8-1.5-1.3-2.5-2.9-2.9-4.7-.2-.6-.2-1.2-.2-1.8l8,.1c.1.9.6,1.6,1.3,2.2.7.5,1.5.7,2.4.7,1.4,0,2.4-.3,3-.9.3-.3.4-.7.4-1.1,0-.9-.8-1.6-2.4-2.1l-5.3-1.7c-4.5-1.4-6.8-4.1-6.7-8.1,0-3.8,1.8-6.3,5.4-7.7,1.7-.6,3.6-.9,5.7-.9,2.9,0,5.3.7,7.1,2.1,2.2,1.6,3.4,3.9,3.7,6.8ZM89.3,349.1l.2-15.4,8.3.1-.2,16.4c0,1.7.2,2.9.7,3.7.6.9,1.6,1.4,3.1,1.4,1.9,0,3-.7,3.6-2.3.2-.7.4-1.6.4-2.7l.2-16.4,8.3.1-.2,15.5c-.1,5.8-1.9,9.5-5.4,11.2-1.8.9-4.1,1.3-6.9,1.3-4.1,0-7.1-1-9.1-2.9-2.1-2.2-3.1-5.5-3-10ZM63,360.7l-7.5-.1.3-27.3,10.1.1,4.3,17.1,4.7-17,10,.1-.3,27.4-7.5-.1.1-8.4.1-4.2.5-4.9h-.1l-4.8,17.5-5.8-.1-4.4-17.6h-.1l.3,4,.1,4.2v9.3Z"/>
    <path class="cls-10" d="M276,163.1c-1.7.1-3.3-.1-4.9-.6l-1.9-8-7.1,5-4.1-5.8c.1,7.5-2.8,13.5-6.7,18.9-1.3,4.2,1.2,6.9,5.1,9,15.5,5.2,10.1-13,19.6-18.5"/>
    <path class="cls-13" d="M273.6,162.5c.8.1,1.5.1,2.3.1.2,0,.4.1.6.3.2.3.1.6-.2.8l-.3-.5.3.5c-3.6,2.1-5,6.2-6.3,10-2.1,6.2-4,11.8-13.8,8.5q-.1,0-.1-.1c-2-1.1-3.6-2.4-4.6-3.9-1-1.6-1.4-3.5-.7-5.7q0-.1.1-.2l.5.3-.5-.3c1.9-2.7,3.6-5.5,4.8-8.5,1.2-3,1.9-6.3,1.8-10,0-.2.1-.4.2-.5.3-.2.6-.1.8.1l-.5.3.5-.3,3.8,5.3,6.6-4.6q.1-.1.2-.1c.3-.1.6.1.7.4l-.5.1.5-.1,1.8,7.7c.6.2,1.3.3,2,.4M274.2,163.7c-.3,0-.5,0-.8-.1-.8-.1-1.7-.3-2.5-.5l.2-.5-.2.5c-.2-.1-.3-.2-.4-.4l-1.7-7.2-6.4,4.5-.3-.5.3.5c-.3.2-.6.1-.8-.1h0l-3.1-4.4c-.2,3.1-.8,6-1.9,8.7-1.2,3.1-2.9,6-4.9,8.7-.5,1.9-.3,3.4.6,4.7.9,1.4,2.4,2.5,4.2,3.5,8.7,2.9,10.4-2.1,12.3-7.8,1.3-3.5,2.5-7.2,5.4-9.6Z"/>
    <path class="cls-13" d="M262.5,159.4c-.1-.2-.3-.3-.5-.3-.2.1-.3.3-.3.5l1.8,6.3c-1.1.9-2,2-2.8,3.1-2.2,3.3-3.4,7.6-4,12.7-7.3,14.2-15.2,26.3-24,36s-18.3,16.9-28.8,21.5c-.2.1-.3.3-.2.5.1.2.3.3.5.2,10.6-4.6,20.3-12,29.1-21.7,8.8-9.7,16.8-21.9,24.1-36.2,0-.1.1-.1.1-.2.6-5.1,1.8-9.3,3.9-12.4,1.6-2.4,3.8-4.3,6.7-5.5.9-.4,1.9-.7,2.9-1,.2-.1.3-.3.3-.5-.1-.2-.3-.3-.5-.3h0c-1.1.3-2.1.6-3,1-.3.1-.6.3-.9.4-1,.5-1.9,1-2.7,1.6l-1.7-5.7Z"/>
    <path class="cls-10" d="M170.2,150.9c1.6.5,3.2.7,4.9.6l3.7-7.3,5.7,6.5,5.4-4.7c-1.8,7.3-.4,13.7,2.1,19.9.2,4.4-2.8,6.4-7,7.6-16.3,1.4-6.8-15.1-14.8-22.6"/>
    <path class="cls-6" d="M227.2,177.9c5.2,1.5,6.1,12.5,3.5,25.6-2.6,13.1-10.1,21.8-15,20.5-5-1.4-5.6-12.1-2.2-25.5,3.3-13.4,8.5-22.1,13.7-20.6"/>
    <path class="cls-13" d="M223.1,179.2l2.8,5.2,1.7-5.9c-.2-.1-.3-.1-.5-.2h-.2c-1.2-.4-2.5,0-3.8.9M218.6,185l5.2,6.6.7-2.3,1.1-3.9-3.1-5.7c-.7.6-1.4,1.4-2,2.3-.6.8-1.3,1.9-1.9,3ZM215.2,193.4l6.3,6.7.7-2.6.2-.8,1.2-4.2-5.4-6.8c-1,2.2-2.1,4.8-3,7.7ZM213.4,200.2l6.1,7.2.9-3.4.1-.2.8-2.9-6.3-6.7c-.1.2-.1.5-.2.7-.3,1.1-.7,2.3-1,3.5-.2.7-.3,1.2-.4,1.8ZM212,207.6l5.1,7.9,1.1-3.9.9-3.3-6-7.2c-.4,2.3-.8,4.4-1.1,6.5ZM215,223.2l1.9-6.7-5-7.7c-.3,2.6-.3,5-.1,7.1.3,3.7,1.4,6.4,3.2,7.3ZM228.9,208.6l-10.1,4.1-1.1,3.8h0v.3l-.2.7h0l-1.7,6.2h0q.1,0,.2.1c2.1.4,4.7-1.1,7.2-4,2.2-2.9,4.2-6.7,5.7-11.2ZM230.8,200.3l-9.7,4.1-2,7.2,10.2-4.1c.1-.3.2-.7.3-1,.3-1,.5-2.1.7-3.2.2-.9.4-2,.5-3ZM231.6,193.5l-8.4,3.6-1.8,6.3,9.6-4.1c.3-2,.5-3.9.6-5.8ZM231.6,187.7l-6.3,2-1.8,6.5,8.2-3.5c0-1.8,0-3.5-.1-5ZM228.3,178.9l-2.8,9.9,6-1.9c0-.3-.1-.6-.1-.9-.5-3.4-1.5-5.9-3.1-7.1ZM227.3,177.5c2.7.8,4.3,3.9,4.9,8.4.6,4.7.2,10.9-1.1,17.7-.2,1.1-.5,2.2-.8,3.2-1.5,5.6-3.9,10.2-6.5,13.3-2.6,3.2-5.5,4.8-8,4.3-.1,0-.2,0-.3-.1-2.6-.7-4.1-3.8-4.5-8.4s.3-10.8,2-17.6c.3-1.2.6-2.4,1-3.6,1.7-5.6,3.7-10.2,5.9-13.3,2.3-3.1,4.7-4.7,7.2-4,0,.1.1.1.2.1Z"/>
    <path class="cls-6" d="M211.6,178.5c5.4,0,9.3,10.2,10.5,23.5s-3.5,23.8-8.7,23.9-8.8-10-9.3-23.8c-.4-13.8,2.2-23.6,7.5-23.6"/>
    <path class="cls-1" d="M207.7,181.5l3.7,3.5-.3-6c-1.3.2-2.4,1-3.4,2.5M205.3,188.6l6.4,3.9-.1-2.4-.2-4-4.1-3.8c-.3.6-.7,1.4-.9,2.2-.5,1.1-.8,2.5-1.1,4.1ZM204.5,197.5l7.6,3.8-.1-2.7v-.8l-.2-4.4-6.6-4c-.4,2.4-.6,5.1-.7,8.1ZM204.7,204.4l7.8,4.4-.2-3.5v-.2l-.1-3-7.7-3.7v.3c0,1.1,0,2.2.1,3.4,0,.8.1,1.5.1,2.3ZM205.5,211.6l7.4,5.5-.2-4-.2-3.4-7.8-4.4c.2,2.2.5,4.3.8,6.3ZM213.3,225.6l-.3-7.4-7.3-5.5c.5,2.5,1.1,4.8,1.8,6.7,1.6,3.8,3.5,6.1,5.8,6.2ZM222,206.3l-8.4,7.5.2,3.9h0v1l.3,6.7c2-.4,4-2.5,5.5-5.9,1.4-3.3,2.4-7.9,2.4-13.2ZM221.3,197.8l-8.1,7.6.6,6.9,8.2-7.3c0-.9-.1-1.9-.2-2.9-.2-1.5-.3-2.9-.5-4.3ZM220,191.1l-7.2,6.7.3,6.6,8-7.7c-.3-2-.7-3.9-1.1-5.6ZM218.2,185.6l-5.8,4.5.3,6.7,7-6.5c-.4-1.7-.9-3.3-1.5-4.7ZM211.9,178.9l.5,10.2,5.5-4.3c-1.7-3.5-3.7-5.7-6-5.9ZM211.6,178.1c2.8,0,5.2,2.5,7,6.6,1.3,3,2.4,6.8,3.1,11.2h0v.1c.3,1.9.6,3.9.8,6,.1,1.1.2,2.1.2,3.2.1,5.8-.9,11-2.5,14.7-1.7,3.8-4,6.2-6.5,6.4h-.3c-2.7.1-5-2.5-6.7-6.7-1.7-4.3-2.8-10.4-3-17.5,0-1.2-.1-2.3-.1-3.5,0-6,.6-11,1.9-14.6,1.3-3.7,3.2-5.9,5.8-6l.3.1Z"/>
    <path class="cls-13" d="M183.3,200.8c4.7,5.9,10.4,11.2,16.9,16-3.5-7.2-6.9-13-11.2-18.5-4.3-5.6-9.5-10.9-16.5-17.3,2.4,7.3,6.1,13.9,10.8,19.8M201,218.3c-7-5-13.2-10.6-18.3-17-5.1-6.4-9-13.5-11.4-21.5-.1-.2.1-.4.3-.5.1-.1.3,0,.4.1,7.6,6.9,13.1,12.5,17.6,18.4,4.6,5.9,8.2,12.1,11.9,20h0c.1.2,0,.4-.2.5,0,.1-.2.1-.3,0Z"/>
    <path class="cls-13" d="M182.5,194c-.1-.2-.4-.2-.6-.1s-.2.4-.1.6l14,17.8c.1.2.4.2.6.1s.2-.4.1-.6l-14-17.8Z"/>
    <path class="cls-13" d="M194.6,195.3c1,7.3,3.1,14.5,6.1,20.8.2-7.2.1-13.8-.8-20.7-.9-6.9-2.5-14-5.3-22-1,7-1,14.5,0,21.9M200.8,218c-3.4-6.8-5.8-14.6-6.9-22.5-1.2-8.1-1.1-16.2.3-23.6l.3-1.4.5,1.4c3.1,8.6,4.9,16.2,5.9,23.5.9,7.4,1,14.6.7,22.4l-.1,1.5-.7-1.3Z"/>
    <path class="cls-13" d="M197.2,187.6c0-.2-.2-.4-.4-.3-.2,0-.4.2-.3.4l2.9,21.6c0,.2.2.4.4.3.2,0,.4-.2.3-.4l-2.9-21.6Z"/>
    <path class="cls-13" d="M252.1,209.2c-6.4,5-13.7,9-21.7,12.2-.1.1-.3.1-.4,0-.2-.1-.2-.4-.1-.6,5.5-6.9,10.5-12,16.3-16.6,5.8-4.7,12.5-8.8,21.4-13.8.1-.1.3-.1.4,0,.2.1.3.4.1.5l-.3-.2.3.2c-4.1,7.2-9.5,13.3-16,18.3M231.5,220.1c7.4-3.1,14.2-6.9,20.1-11.5,6-4.7,11.1-10.2,15.1-16.8-8.3,4.6-14.6,8.6-20.1,13-5.3,4.3-10,9.1-15.1,15.3Z"/>
    <path class="cls-13" d="M254.5,202.7c.2-.1.2-.4.1-.5-.1-.2-.4-.2-.6-.1l-17.8,14c-.2.1-.2.4-.1.6s.4.2.6.1l17.8-14.1Z"/>
    <path class="cls-13" d="M242.7,200.9c-2.9,7.4-7,14.5-11.9,20.2-.1.1-.2.2-.4.2s-.4-.3-.3-.5c1.5-7.6,3.3-14.6,5.9-21.6s6.1-13.9,11.2-21.5c.1-.1.2-.2.4-.2s.4.2.4.4c-.5,7.5-2.3,15.4-5.3,23M231.1,219.4c4.4-5.5,8.1-12,10.8-18.8,2.8-7,4.5-14.3,5-21.2-4.6,7.1-7.8,13.6-10.3,20.1-2.4,6.4-4,12.9-5.5,19.9Z"/>
    <path class="cls-13" d="M178.7,111.1c-.1-.3-.3-.5-.7-.4-.3.1-.5.4-.4.7.6,2.9,1.3,5.7,1.3,5.7l.5-.1-.5.1c.1.3.4.5.7.4.1,0,.1-.1.2-.1l5.3-3.1,2.5,5.4.5-.2-.5.2c.1.3.5.4.7.3.1-.1.2-.2.3-.3l2.5-4.8,2.7,5.4.5-.2-.5.3c.1.3.5.4.8.2.1-.1.2-.2.3-.3l1-2.3,2.3.6c.3.1.6-.1.7-.4h0l.7-2.6,5.4,4.9.4-.4-.5.1c.2.2.6.2.8,0q.1-.1.1-.2l1.1-3.1,4.4,2c.3.1.5,0,.7-.2l3.3-4.4c.2-.2.1-.6-.1-.8s-.6-.1-.8.1l-3,4-4.5-2.1h-.1c-.3-.1-.6,0-.7.3l-1.1,2.9-5.4-4.9c-.1-.1-.2-.1-.3-.2-.3-.1-.6.1-.7.4l.5.1-.5-.1-.8,3-2.1-.5c-.3-.1-.6,0-.7.3l-.8,1.7-2.7-5.3c-.1-.1-.1-.2-.3-.3-.3-.1-.6,0-.8.2l.5.3-.5-.3-2.5,4.8-2-4.7v-.1c-.2-.3-.5-.4-.8-.2h0l-5.3,3c-.2-.9-.7-2.8-1.1-4.8"/>
    <path class="cls-13" d="M171.1,123.4h0v-.3c.3.1.4.3.4.6,0-.2,0-.4-.2-.5h0c-.1-.1-.2,0-.2.2h0ZM176.5,118.5c.2-.3.1-.6-.2-.8-.3-.2-.6-.1-.8.2-.5.8-1,1.3-1.5,1.9-.3.3-.6.7-.9,1.1-.3.4-.7.6-1.1.9l.3.5-.3-.5h0l-.2.1h0l-.1.1c-.3.2-.7.7-1,1h0c0,.1-.1.1-.1.2-.2.3-.2.6.1.8l.2-.2-.2.2c.1.1.2.1.3.1h-.1l.1-.3c.2.1.3.1.5,0h.1s0,.1-.1.1c-.1.1-.3.2-.4.2.2,0,.4-.1.5-.3h0l.1-.1h0c.2-.3.7-.8.8-.9h0v-.1.1l.2-.1h0c.5-.3,1-.6,1.4-1.1.3-.4.6-.7.9-1,.4-.6,1-1.2,1.5-2.1Z"/>
    <path class="cls-13" d="M182.3,123.1s-.1,0-.1-.1c-.1-.1-.2-.4-.1-.5h.1v-.1h.1v.7ZM185.7,119.7c.2-.2.3-.6.1-.8-.2-.2-.6-.3-.8-.1-.4.4-.7.7-1.1,1.1-.1.2-.3.3-.3.4h0c-.2.2-.3.4-.4.5-.1.2-.3.4-.5.6-.1.1-.2.3-.3.4h0v.1h0v-.1h0c-.1.1-.2.1-.3.2h0c-.1.1-.1.2-.2.2h0c-.3.1-.4.4-.3.7s.4.4.7.4c.3-.1.4-.3.5-.4v-.1h.1c.1-.1.2-.1.3-.2l.1-.1-.4-.3.4.3q.1-.1.1-.2s0-.1.1-.1c.3-.3.5-.6.6-.9.1-.1.2-.3.3-.4h0c.2-.2.3-.3.4-.4.3-.1.6-.5.9-.8Z"/>
    <path class="cls-13" d="M215.3,119.4c-.2-.2-.6-.2-.8,0-.2.2-.2.6,0,.8.8.8,1.3,1.6,1.8,2.3.3.4.5.8.8,1.1l.9,1.1c.2.2.5.4.8.5.1.1.3.1.3.1.1.3.4.5.7.4.3-.1.4-.4.4-.7-.1-.4-.5-.6-.9-.8-.2-.1-.3-.2-.4-.2l-.9-1.1c-.2-.3-.5-.6-.7-1-.6-.8-1.2-1.7-2-2.5"/>
    <path class="cls-13" d="M267.1,130.3c-.2-.3-.5-.4-.8-.2s-.4.5-.2.8c1.9,3.2,2.7,6.5,3.5,9.6.5,2,1,3.9,1.7,5.8.5,1.3,1.3,2.7,2.1,4.1,1.4,2.4,2.8,4.8,2.8,6.9,0,.3.3.6.6.6s.6-.2.6-.6c0-2.3-1.5-4.9-3-7.4-.8-1.4-1.6-2.7-2-3.9-.7-1.8-1.2-3.7-1.7-5.6-.8-3.4-1.6-6.7-3.6-10.1"/>
    <path class="cls-13" d="M274.1,136l-.2.1.2-.1ZM274.1,136h0c-.2,0-.5.1-.3.1h-.1.1l.3-.1h0ZM273.8,135.9s-.1,0,0,0l-.1.1.1-.1-.1.1.1-.1h.2-.2.2-.2ZM270.1,128.2c-.2-.3-.5-.3-.8-.1s-.3.5-.1.8c.4.6.6,1,.9,1.5.1.1.1.3.2.5l.1.3c.6,1.1,1.1,2.2,1.7,3,.2.2.2.5.3.7.1.3.2.5.3.8.1.1.1.2.2.3h0c.1.1.1.2.2.2h0c.1.3.3.9.7.9s.6-.2.6-.7c0-.2-.1-.3-.2-.4,0,.2,0,.3-.2.4h-.1c.1-.1.2-.3.2-.4h0v-.1h0c-.1-.3-.2-.5-.4-.6h0c0-.1-.1-.1-.1-.1-.1-.1-.1-.3-.2-.5-.1-.4-.2-.7-.5-1.1-.6-.7-1.1-1.8-1.6-2.8l-.1-.3c-.1-.2-.2-.3-.2-.5-.2-.7-.4-1.1-.9-1.8Z"/>
    <path class="cls-13" d="M276.6,142.7c-.2-.2-.6-.2-.8,0-.2.2-.2.6,0,.8.5.5.6.7.8.9l.5-.3-.5.3h0c.1.1.2.2.3.4.1.1.2.2.3.3h0c0,.2.1.4.3.5.1.2.3.3.5.3h.2-.2c.2,0,.6,0,.3,0h-.4c0,.1,0,.2.1.2.1.3.4.5.7.4.3-.1.4-.4.4-.7v-.1c-.1-.3-.1-.8-.5-.9,0-.1-.1-.1-.1-.2,0-.6-.2-.8-.6-.8h-.1c0-.1-.1-.1-.1-.2h0c-.4-.1-.5-.3-1.1-.9"/>
    <path class="cls-13" d="M288.8,143.2c-.3-.1-.6.1-.7.4-.1.3.1.6.4.7,1,.3,1.9.7,2.7,1.2.8.5,1.4,1,1.8,1.7.3.5.6.9.9,1.2s.7.6,1.1,1l.4-.4-.4.4h0c.1.1.3.4.5.7.4.5.8,1.1,1.2,1.3.3.1.6-.1.7-.4.1-.3-.1-.6-.4-.7-.1,0-.4-.4-.7-.8-.2-.3-.5-.7-.7-.9h0c-.4-.3-.7-.6-.9-.9-.3-.3-.5-.6-.7-1-.5-.9-1.2-1.5-2.1-2.1-1.1-.6-2.1-1-3.1-1.4"/>
    <path class="cls-13" d="M239.6,117.4c-.1-.3-.4-.5-.7-.4-.3.1-.5.4-.4.7l1.2,4.8.5-.1-.5.1c.1.3.4.5.7.4q.1,0,.1-.1l5.5-2.9,3.1,4.5.5-.3-.5.3c.2.3.5.3.8.1.1-.1.2-.2.2-.3l1.1-2.3,1.1,2.4.5-.2-.5.2c.1.3.5.4.7.3.1,0,.2-.1.3-.2l2.3-3.3,1.5,4,.5-.2-.5.2c.1.3.4.4.7.3.1,0,.1-.1.2-.1l2-1.5,2.3,1.7h0c.2.2.6.1.8-.1.1-.1.1-.2.1-.3l.5-4.2,4.9-4.7c.2-.2.2-.6,0-.8s-.6-.2-.8,0l-5,4.9c-.1.1-.2.2-.2.4l.6.1-.6-.1-.4,3.5-1.8-1.3c-.2-.2-.5-.2-.7,0h0l-1.8,1.4-1.6-4.2c0-.1-.1-.2-.2-.3-.3-.2-.6-.1-.8.1l-2.4,3.4-1.2-2.6c0-.1-.2-.3-.3-.3-.3-.1-.6,0-.7.3l.5.2-.5-.2-1.2,2.6-2.8-4c-.2-.3-.5-.4-.7-.2l-5.4,2.9-1-4.6Z"/>
    <path class="cls-13" d="M294.7,154.7h0v-.1.1ZM292.8,152.2c.1.1.2.1.3.2.3.2.6.4.9.8.1.2.2.4.3.6h0c0,.1.1.2,0,.3h.1c.3,0,.5.2.6.5.1.1.2.2.2.3h0c.1.2.2.7.4,1,.1.3.2.5.3.6h0v.1c0,.1.1.1.1.2h0v.2h0c.1.1.2.2.3.4h0M292.8,152.2c-.2-.2-.6-.1-.8.1-.2.2-.1.6.1.8.1.1.2.2.4.3.3.2.5.4.7.6,0,0,.1.2.1.3h0c.2.4.3.8.7,1,.1.2.2.2.3.3.1.3.2.6.3,1,.1.3.2.6.3.8h0v.2c.1.1.1.2.2.4h0l.1.1.1.1c.1.2.2.4.4.5.2.2.4.3.6.4.3.1.6-.1.7-.4.1-.3-.1-.6-.4-.7-.1,0-.1-.1-.2-.1"/>
    <path class="cls-13" d="M299.5,158.9c-.3-.1-.6,0-.7.3s0,.6.3.7c.8.4,1.2.7,1.6,1.1.2.1.4.3.5.4l.4-.4-.4.4h0s.1.2.2.3h0c.1.2.3.4.4.6l.6.3h0c.1,0,.2.1.2.1h0c.1.1.3.3.4.5.4.6.9,1.2,1.6,1.4.3.1.6-.1.7-.4.1-.3-.1-.6-.4-.7-.3-.1-.7-.6-1-1-.2-.2-.3-.4-.5-.6h0c-.1-.1-.3-.2-.6-.3h0l-.2.5.2-.5c-.1-.1-.3-.1-.3-.2,0,0-.1-.2-.2-.3h0c-.1-.2-.3-.4-.4-.5h-.1c-.2-.2-.4-.3-.5-.4-.5-.5-.9-.8-1.8-1.3"/>
    <path class="cls-13" d="M301.6,171.9c-.3-.1-.6.1-.7.4-.1.3.1.6.4.7.3.1.5.1.6.1h.1c.2,0,.3.1.4.2h0s.1,0,.1.1c.1.1.2.1.3.2q.1,0,.1.1c.1.1.2.2.4.2q.1.1.2.1c0,.3.1.6.4.6.1.1.2.2.4.2,0,.3.2.5.6.7.3.1.6-.1.7-.4.1-.2,0-.5-.2-.6h0s-.1,0-.1-.1h0q.1,0,.1.1c0-.4-.1-.7-.5-.8-.1-.1-.2-.2-.3-.2,0-.1-.1-.2-.1-.3v-.1c-.1-.1-.2-.2-.4-.3-.1-.1-.3-.2-.3-.2-.1-.1-.2-.1-.3-.2h-.1c-.4-.3-.6-.4-1-.5h0l-.1.6.1-.6c-.4.1-.6,0-.8,0Z"/>
    <path class="cls-13" d="M299.7,177.3c-.3,0-.6.2-.6.5s.2.6.5.6c.1,0,.2-.1.3-.1.1.2.2.3.6.4,0,.1.1.1.2.2.1.2.2.3.4.4.1.1.3.2.4.2,0,.1.1.2.2.4l.1.1.1.1.3.3h0c-.1.1-.1.2-.2.3-.1.3.1.6.4.7.2.1.5,0,.6-.2-.2,0-.4-.1-.5-.4l.2.1c.1.1.2.2.4.2v.1h.2c.2,0,.3-.1.4-.1h0c.5-.4.4-.8-.2-1h-.1l-.2-.2h0l-.1-.1h0l-.4.4.4-.4-.3-.3c.1-.3,0-.6-.6-.7h0c-.1,0-.2-.1-.3-.1h0c0-.2-.1-.4-.3-.5-.1-.2-.3-.3-.5-.3h-.2c-.3-.5-.6-.5-1.2-.6Z"/>
    <path class="cls-13" d="M299.8,182.7h.1-.1ZM296.6,179.9c.2.2.5.4.7.6.3.3.6.5.8.7h.1c.1.1.2.1.3.2h0l.1.1c.1.1.1.2.2.2h0c.3,0,.5.1.6.3.3.1.4.3.4.5h-.1l.1.1h-.1l-.2.7c.3-.1.5-.4.4-.7h0v-.1c.2.1.4.4.3.7-.1.3-.4.5-.7.4-.3-.1-.5-.3-.5-.4-.2,0-.3-.1-.4-.2-.1,0-.2,0-.4-.1h0l.2-.3-.2.3c-.2-.2-.2-.3-.3-.5h0c-.1,0-.2-.1-.3-.1M296.6,179.9c-.2-.2-.6-.1-.8.1-.2.2-.1.6.1.8.2.1.4.4.7.6.3.3.6.6,1,.8h.1-.1"/>
    <path class="cls-13" d="M281.2,178.2c-.1-.3-.4-.4-.7-.3-.3.1-.4.4-.3.7.2.4.5,1.1.9,1.7.3.5.6.9.9,1.2.2.2.4.3.7.5h0c.8.6,1.9,1.5,2,1.9.1.3.4.5.7.4.3-.1.5-.4.4-.7-.2-.7-1.4-1.7-2.4-2.4h0l-.3.4.3-.4c-.2-.2-.5-.4-.6-.5-.2-.2-.5-.5-.7-.9-.5-.6-.8-1.2-.9-1.6"/>
    <path class="cls-13" d="M273,175.8c-.1-.3-.4-.4-.7-.3-.3.1-.4.4-.3.7.1.4.4.8.7,1.1l.4-.3-.4.3h0c.3.4.7.8,1.1,1.1l.2.2h0c.2.2.5.4.5.4.1.3.4.5.7.4.3-.1.5-.4.4-.7-.1-.3-.5-.6-.8-.9h0l-.4.4.4-.4c-.1,0-.1-.1-.2-.1-.3-.3-.7-.6-.9-1h0c-.5-.3-.6-.6-.7-.9"/>
    <path class="cls-13" d="M282.5,165.1c-.1-.3-.3-.5-.6-.5-.3.1-.5.3-.5.7.2,1.3.2,2.9.2,4.3v1.7c0,.4-.1.8-.2,1.1s.1.6.4.7c.3.1.6-.1.7-.4.1-.3.2-.8.2-1.3v-1.3h0v-.4c0-1.5,0-3.2-.2-4.6"/>
    <path class="cls-13" d="M283.6,155.4c0-.3-.2-.6-.6-.6-.3,0-.6.3-.6.6,0,1.3,1.3,3.3,2.3,5,.4.7.8,1.3,1,1.8.2.4.5.8.7,1.3.4.6.8,1.3,1,1.9.1.3.4.5.7.4.3-.1.5-.4.4-.7-.2-.7-.7-1.4-1.1-2.1-.2-.4-.5-.8-.7-1.2-.2-.5-.7-1.2-1.1-1.9-.9-1.6-2-3.4-2-4.5"/>
    <path class="cls-13" d="M151.4,133.9c-.3.2-.3.5-.1.8.2.3.5.3.8.1l14.1-10c.3-.2.3-.5.1-.8-.2-.3-.5-.3-.8-.1l-14.1,10Z"/>
    <path class="cls-13" d="M187.2,124.4c-.1-.3-.4-.5-.7-.4-.3.1-.5.4-.4.7.2.7.1,1.6.1,2.5v.9c0,.5,0,1.1.1,1.7,0,.5.1.9.1,1.4,0,.3.3.6.6.6s.6-.3.6-.6c0-.4,0-.9-.1-1.4,0-.5-.1-1.1-.1-1.6v-.9c-.1-1,0-2-.2-2.9"/>
    <path class="cls-13" d="M180.1,128.3c0-.3-.3-.6-.6-.6s-.6.3-.6.6c0,.6-.1,1.2-.2,1.7s-.3,1.1-.6,1.6l.5.2-.5-.2h0c-.1.3-.3.7-.5,1.1-.3.6-.7,1.2-.8,1.8-.1.3-.2.7-.4,1.2-.1.3-.3.6-.4.6-.3.1-.5.4-.4.7s.4.5.7.4c.4-.1.8-.7,1-1.2s.4-1,.5-1.3c.1-.4.4-1,.7-1.6.2-.4.4-.8.6-1.1h0c.3-.6.5-1.2.6-1.8.3-.8.4-1.4.4-2.1"/>
    <path class="cls-13" d="M171.4,132.3c.1-.3-.1-.6-.4-.7-.3-.1-.6.1-.7.4-.2.7-1.2,1.7-1.9,2.3-.2.2-.4.3-.5.5l-.1.1.3.4-.3-.4h0c-.3.2-.8.6-.8,1h0c0,.1-.1.2-.1.4h.1c-.3.1-.5.4-.4.7s.4.5.7.4c.2-.1.4-.3.6-.6.1-.2.2-.5.3-.7v-.1l-.6-.1.6.1.4-.2h.1c.1-.1.2-.1.2-.2.1-.1.3-.3.5-.5.6-.7,1.7-1.8,2-2.8"/>
    <path class="cls-13" d="M171.6,127.6c.2-.3.1-.6-.2-.8-.3-.2-.6-.1-.8.2-.3.6-.7,1-1.1,1.3-.1.1-.2.2-.3.3-.1.1-.2.2-.3.3-.3.3-.7.9-.9.9-.3,0-.6.2-.6.6,0,.3.3.6.6.6.7,0,1.4-.8,1.8-1.3.1-.1.2-.2.2-.2.1-.1.2-.2.3-.3.4-.5.9-.9,1.3-1.6"/>
    <path class="cls-13" d="M164.8,133c.2-.3.1-.6-.2-.8-.3-.2-.6-.1-.8.2-.5.8-1.1,1.3-1.7,1.9-.4.3-.7.6-1.1,1-.2.2-.3.4-.5.6-.5.6-1.1,1.3-1.6,1.5-.3.1-.5.4-.4.7s.4.5.7.4c.8-.3,1.5-1.1,2.1-1.8.2-.2.3-.4.5-.5.3-.3.7-.6,1-.9.8-.7,1.5-1.3,2-2.3"/>
    <path class="cls-13" d="M143.4,146.1h-.1q-.1,0-.2-.1l.3.1ZM146.1,142.8c-.2.1-.4.3-.6.5s-.4.5-.5.7h0v.1c-.1.2-.2.4-.3.5l-.4-.3M146.1,142.8c.3-.2.4-.5.2-.8-.2-.3-.5-.4-.8-.2s-.6.4-.8.7c-.3.3-.5.6-.7.9l.5.3-.5-.3v.1c0,.1-.1.1-.1.2h0v.2l-.1.1h0q-.1.1-.2.2v.1c-.1.2-.1.3-.2.4h0c0,.1,0,.2-.1.2q-.1.1-.2.2h0c-.1.1-.1.2-.2.3h0c-.1.1-.2.2-.3.4-.1.3.1.6.4.7s.6-.1.7-.4h0c.1-.1.3-.2.3-.5h0l.1-.1c.2-.2.3-.4.3-.6h-.1.1c0-.1,0-.2.1-.2h0l-.4-.3"/>
    <path class="cls-13" d="M156.2,141.5c.2-.2.2-.6,0-.8s-.6-.2-.8,0c-1.3,1.3-3,2.4-4.6,3.3-2.1,1.3-4.1,2.5-5.1,4.3h0l-.2.3c-.8,1.5-2.4,4.4-4.1,4.8-.3.1-.5.4-.4.7s.4.5.7.4c2.1-.5,3.9-3.7,4.8-5.4l.2-.3h0c.9-1.5,2.7-2.7,4.7-3.9,1.6-.9,3.3-1.9,4.8-3.4"/>
    <path class="cls-13" d="M172.1,140.7c.1-.3-.1-.6-.4-.7-.3-.1-.6.1-.7.4-.2.6-.5,1.2-.8,1.7-.2.3-.4.6-.5.9h0c0,.1-.1.2-.1.3h0c-.1.3-.3.6-.4.7-.3.2-.3.4-.4.7v.1c-.1.2-.3.4-.4.6-.1.2-.2.4-.3.6l.5.2-.5-.2h0c0,.1-.1.2-.2.3-.2.2-.4.4-.4.7-.1.3.1.6.4.7.3.1.6-.1.7-.4,0-.1.1-.2.2-.3.2-.2.3-.4.4-.7v-.1c0-.1.1-.2.2-.4s.2-.3.3-.4c.1-.2.2-.3.2-.5v-.1c.3-.2.5-.7.7-1.1h0c0-.1.1-.2.1-.3h0l-.5-.3.5.3c.1-.3.3-.6.5-.8.4-.5.7-1.1.9-1.9"/>
    <path class="cls-13" d="M191.9,123c0-.3-.3-.6-.6-.6s-.6.2-.6.6c0,.7.1,1.4.2,2.1.1.7.2,1.4.2,2.1v1.5c0,.2,0,.3-.1.5s-.1.5-.1.9c0,.3.2.6.6.6.3,0,.6-.2.6-.6,0-.2.1-.4.1-.6.1-.2.1-.5.1-.8v-1.5c0-.8-.1-1.5-.2-2.2s-.2-1.4-.2-2"/>
    <path class="cls-13" d="M196.7,122c0-.3-.3-.6-.6-.6s-.6.3-.6.6v1.7c0,.5,0,1,.1,1.4l.6-.1-.6.1v1c0,.6,0,1.1.1,1.6.1.3.4.4.7.4.3-.1.4-.4.4-.7-.1-.3-.1-.8-.1-1.2v-1.1c0-.4-.1-.9-.1-1.4.1-.5.1-1.1.1-1.7"/>
    <path class="cls-13" d="M201.5,120.1c-.1-.3-.5-.4-.7-.3-.3.1-.4.5-.3.7s.1.3.2.4c.1.1.1.3.1.4.1.4.2.6.3.9l.1.2h0c.1.3.3.8.4,1.3l.1.2.5-.1-.5.1v.1c0,.1.1.2.1.3s.1.2.1.2v.5c0,.1.1.3.1.4.1.3.4.4.7.4.3-.1.4-.4.4-.7,0-.1,0-.2-.1-.3v-.4c0-.3-.1-.5-.2-.7v-.1h0l-.1-.2c-.1-.5-.3-1-.4-1.4h0l-.1-.2c-.1-.3-.2-.5-.3-.8,0-.2-.1-.4-.2-.6-.1.1-.1-.1-.2-.3"/>
    <path class="cls-13" d="M210.4,121.2c-.1-.3-.5-.4-.8-.2-.3.1-.4.5-.2.8.1.2.2.4.3.5.5.9,1.2,2.2,1.3,2.7.1.7.4,1.4.7,1.9.3.5.7,1,1,1.3.1.1.3.4.5.8.4.6.7,1.3,1.2,1.5.3.1.6-.1.7-.4.1-.3-.1-.6-.4-.7-.1,0-.3-.5-.6-1-.2-.4-.4-.8-.7-1-.2-.2-.6-.6-.9-1.1-.3-.4-.5-.9-.6-1.4-.1-.8-.9-2.2-1.4-3.1l-.1-.6Z"/>
    <path class="cls-13" d="M210.1,129.8c-.1-.3-.4-.5-.7-.4-.3.1-.5.4-.4.7.3,1.1.7,2.1,1.1,3h0c.1.3.3.6.4,1,.3.9.9,1.3,1.5,1.7.1.1.3.2.4.3.2.2.6.1.8-.1.2-.2.1-.6-.1-.8-.2-.1-.3-.2-.4-.3-.5-.3-.9-.6-1.1-1.2-.1-.3-.3-.6-.4-1v-.1l-.5.2.5-.2c-.5-.9-.9-1.8-1.1-2.8"/>
    <path class="cls-13" d="M204.3,129.5c-.2-.2-.6-.2-.8,0-.2.2-.2.6,0,.8.8.9,1.3,2.2,1.8,3.6.7,1.9,1.3,3.6,2.7,4.1.3.1.6-.1.7-.4.1-.3-.1-.6-.4-.7-.9-.3-1.5-1.8-2-3.4-.5-1.5-1-3-2-4"/>
    <path class="cls-13" d="M194.5,141.7c0-.3-.3-.6-.6-.6s-.6.3-.6.6v4c0,.3.3.6.6.6s.6-.3.6-.6v-4Z"/>
    <path class="cls-13" d="M192.5,133.9c0-.3-.3-.6-.6-.6s-.6.3-.6.6v4.8c0,.3.3.6.6.6s.6-.3.6-.6v-4.8Z"/>
    <path class="cls-13" d="M189.3,136.4c-.1-.3-.4-.5-.7-.4-.3.1-.5.4-.4.7s.1.5.1.7h0c0,.2.1.4.1.7h.6l-.6.1h0c0,.4.1.9.2,1.3.1.6.2,1.3.2,2.1,0,.3.3.6.6.6s.6-.2.6-.6c0-.8-.1-1.5-.2-2.2-.1-.4-.1-.8-.1-1.2h0c0-.3,0-.5-.1-.7h0c-.2-.6-.2-.8-.3-1.1"/>
    <path class="cls-13" d="M185.9,136.7c0-.3-.3-.6-.6-.6s-.6.3-.6.6v6c0,.3.2.6.6.6.3,0,.6-.3.6-.6v-6Z"/>
    <path class="cls-13" d="M231.3,139.4c0-.3-.2-.6-.6-.6-.3,0-.6.3-.6.6,0,.7-1.1,1.9-2,3.1-.5.6-1.1,1.2-1.4,1.7l.5.3-.5-.3h0c-.3.5-.4,1.1-.5,1.6l.6.1-.6-.1h0c0,.2-.1.4-.1.5-.1.3.1.6.4.7.3.1.6-.1.7-.4.1-.2.1-.4.2-.7h0c.1-.4.2-.9.3-1.2h0c.3-.4.7-1,1.3-1.6,1.1-1.2,2.3-2.6,2.3-3.7"/>
    <path class="cls-13" d="M234,126.5c.1-.3,0-.6-.2-.8-.3-.1-.6,0-.8.2-.4.7-1.7,1.4-3,2-.8.4-1.5.8-2,1.1h0c-.4.3-.8.7-1.2,1.1-.3.4-.7.7-1,1l.3.4-.3-.4h0c-.2.2-.6.4-1.1.7-1.2.7-2.8,1.7-3,2.5-.1.3.1.6.4.7.3.1.6-.1.7-.4.1-.4,1.5-1.2,2.5-1.8.5-.3.9-.5,1.1-.7h.1c.4-.3.8-.7,1.2-1.1.3-.4.6-.7,1-1h0l-.3-.4.3.4c.4-.3,1.1-.7,1.8-1,1.4-.7,3-1.5,3.5-2.5"/>
    <path class="cls-13" d="M238.8,127.8c.2-.2.1-.6-.1-.8s-.6-.1-.8.1c-1.1,1.4-2.8,2.8-4.5,4.1-1,.8-2,1.6-2.9,2.4l.4.4-.4-.4h0l-2.7,2.6c-.2.2-.2.6,0,.8s.6.2.8,0l2.7-2.6h0c.8-.8,1.8-1.6,2.8-2.4,1.8-1.3,3.5-2.7,4.7-4.2"/>
    <path class="cls-13" d="M233.9,141.8q.1,0,0,0h0q.1,0,0,0ZM234.8,142.4c0,.1-.1.1-.1.2h0s.1-.1.1-.2ZM239.6,136c-.7.7-1.2,1.5-1.8,2.2-.6.8-1.1,1.6-1.8,2.3-.2.2-.4.4-.5.6h0c-.1.1-.2.3-.3.4l-.5-.3.5.3h0c-.1.1-.2.5-.3.7h0v.1c0,.2-.1.3-.3.4h0c-.8.4-1,.1-.8-.7h0v-.1h0c.1-.3.3-.7.4-.9v-.1c.1-.2.2-.4.4-.5M239.6,136c.2-.2.2-.6,0-.8s-.6-.2-.8,0c-.7.8-1.3,1.6-1.9,2.4-.5.8-1,1.5-1.7,2.2-.2.2-.4.4-.6.7l.4.4-.4-.4"/>
    <path class="cls-13" d="M244.8,125.4c.2-.3.1-.6-.1-.8-.3-.2-.6-.1-.8.1-.3.4-.5.7-.6,1.1-.2.4-.3.8-.5,1.2-.2.6-.5,1.1-.8,1.6-.2.3-.3.5-.5.9-.1.1-.2.4-.3.7-.1.3.2.5,0,.6-.3.1-.5.4-.4.7s.4.4.7.4c.3-.1.5-.7.7-1.2.1-.3.2-.6.3-.7.1-.3.3-.5.4-.8.3-.6.6-1.1.8-1.8.1-.4.3-.7.4-1.1.3-.2.5-.5.7-.9"/>
    <path class="cls-13" d="M250.5,129.1c.1-.3.1-.6-.2-.8-.3-.2-.6-.1-.8.2-.2.4-.4.7-.5,1-1,1.8-2,3.7-3.4,5.2-.3.4-.6,1.2-.9,1.9s-.3,1.4-.4,1.4c-.3,0-.6.3-.6.6s.3.6.6.6c.7,0,1.1-1,1.5-2.1.3-.7.5-1.4.7-1.6,1.4-1.6,2.5-3.5,3.5-5.4.2-.4.4-.7.5-1"/>
    <path class="cls-13" d="M248.6,140.1l.2.1h0l-.2-.1h0ZM248.7,140.3h0c.1,0,.1-.1.2-.1h0l-.2-.1v.2ZM248.6,139.3l.4.3c0-.1-.2-.2-.4-.3ZM252.4,134.5c.1-.3,0-.6-.3-.7-.3-.1-.6,0-.7.3-.4.8-.9,1.4-1.4,2.1-.4.6-.8,1.1-1.1,1.7-.1.1-.1.3-.2.5-.1.3-.3.6-.4.8l-.1.1h0c-.1.1-.3.3-.4.5v.2h0v.2c0,.1,0,.2.1.3h0c.2.4.6.5.9.1h0s0-.1.1-.1c.1-.1.2-.3.2-.4l-.1.1h0c0,.1-.1.2-.1.3,0,0-.1,0-.1.1h0l.1-.1h0c0-.1.1-.1.1-.2h-.1.1c0-.1.1,0,.1-.1l-.4-.4.4.4v-.2h0l-.4-.3h-.2l.2.2.4.4h0l.1-.1c.2-.3.4-.7.6-1,.1-.2.1-.3.2-.4.2-.5.6-1,1-1.5.5-1.1,1-1.9,1.4-2.8Z"/>
    <path class="cls-13" d="M256.3,128.6c0-.3-.3-.6-.6-.6s-.6.3-.6.6c0,1.8-.5,3.6-1.1,5.4-.4,1.4-.8,2.7-1,4.1-.1.8-.4,1.8-.7,2.7-.4,1.2-.8,2.3-.8,3.3,0,.3.3.6.6.6s.6-.2.6-.6c0-.8.3-1.8.7-2.9.3-1,.7-2,.8-2.9.1-1.3.5-2.6.9-3.9.7-1.9,1.2-3.8,1.2-5.8"/>
    <path class="cls-13" d="M259.6,137.6c0-.3-.3-.6-.6-.6s-.6.3-.6.6c0,1.6-.1,3.2-.2,4.8s-.2,3.2-.2,4.8c0,.3.2.6.6.6.3,0,.6-.3.6-.6,0-1.6.1-3.2.2-4.8.1-1.5.2-3.2.2-4.8"/>
    <path class="cls-13" d="M261.1,129.3c-.1-.3-.5-.4-.7-.3-.3.1-.4.4-.3.7.7,1.6.9,3.6,1.1,5.5.2,2.2.5,4.4,1.4,6.2.3.7,1,2.3,1.5,3.9.4,1.3.7,2.5.7,3,0,.3.3.6.6.6s.6-.3.6-.6c0-.6-.3-1.9-.8-3.3-.5-1.6-1.2-3.4-1.5-4.1-.8-1.6-1.1-3.7-1.3-5.8-.3-2-.5-4-1.3-5.8"/>
    <path class="cls-13" d="M139.2,149.2l-.1-.1.1.1ZM141.4,148.3c.2-.2.2-.6,0-.8s-.6-.2-.8,0l-1.1,1.1-.1.1.4.4-.4-.4h0c-.1.1-.1.2-.2.2-.2,0-.4.1-.6.3h0v.1q0,.1-.1.1t-.1.2c-.1.1-.2.2-.3.4-.1.1-.2.2-.2.4-.1.3.1.6.4.7.3.1.6-.1.7-.3h0v-.1h0q.1-.1.2-.3l.1-.1.1-.1h0c.1-.1.1-.2.1-.2l.1-.1h.2c.1-.1.3-.3.4-.4h0l.1-.1,1.1-1.1Z"/>
    <path class="cls-13" d="M162,145.7c.1-.3-.1-.6-.4-.7-.3-.1-.6.1-.7.4-.2.6-.7,1.3-1.4,2-.9.8-1.9,1.6-2.7,2-1.2.6-2.1,1.7-3.1,2.9-.6.8-1.3,1.6-2,2.2-.4.4-.9.9-1.4,1.5-.7.8-1.4,1.6-1.9,1.7-.3.1-.5.4-.4.7s.4.5.7.4c.7-.2,1.6-1.2,2.4-2.1.5-.5.9-1,1.3-1.3.8-.7,1.5-1.5,2.2-2.4.8-1,1.7-2.1,2.7-2.6.9-.4,2-1.3,3-2.2.7-.8,1.4-1.7,1.7-2.5"/>
    <path class="cls-13" d="M154.6,165.5c.2-.3.1-.6-.2-.8-.3-.2-.6-.1-.8.2-.1.2-.2.4-.3.5h0l-.1.1c-.5.2-1,.7-1.3,1h0c-.1,0-.2,0-.3.1h0s-.1,0-.1.1c-.1.1-.2.3-.3.4h0c-.3.2-.5.3-.5.8,0,.3.3.6.6.6s.5-.2.6-.5h-.1l-.1-.1h-.4c.1.1.3.1.5.1l-.1-.1h.1v.1h.1l.1-.1h0c.1-.1.2-.2.2-.4.1,0,.2-.1.3-.2h.1l.1-.1h0l-.4-.4.4.4c.2-.2.6-.6.8-.7.3-.1.5-.3.7-.5h0c.1-.1.2-.3.4-.5Z"/>
    <path class="cls-13" d="M160.7,158.3c.2-.2.2-.6,0-.8s-.6-.2-.8,0c-.2.3-.4.5-.6.7-.1.2-.3.4-.6.7h0c-.1.2-.2.4-.3.5-.1.2-.3.4-.5.6l.4.4-.4-.4h0c-.1.1-.3.3-.4.4-.2.3-.4.6-.4.8,0,.3.3.6.6.6s.6-.2.6-.6c0,0,.1,0,.1-.1.1-.1.2-.3.3-.3h0c.3-.3.5-.6.7-.9.1-.1.2-.3.3-.4h0l-.4-.3.4.3c.2-.2.3-.4.5-.7.1-.1.3-.3.5-.5"/>
    <path class="cls-13" d="M163.9,152.9c-.2.1-.5.1-.7-.1l-.1-.1.8.2ZM166.1,149.6c.1-.3-.1-.6-.4-.7-.3-.1-.6.1-.7.4-.1.4-.2.5-.4.7-.1.1-.2.2-.3.4-.1.1-.2.2-.3.4-.1.1-.2.3-.2.4h0c-.1.1-.1.2-.2.2h0c-.1.1-.2.2-.3.4h0q-.1.1-.1.2l.1.1h0l-.1-.1v.1q-.1.1-.2.2c-.1.1-.1.2-.2.3-.1.3.1.6.4.7.3.1.6-.1.7-.4h0s0-.1.1-.1h0q.2-.2.3-.4h0c0-.1.1-.2.1-.2h0l-.2-.1h0l.2.1c.1-.1.2-.2.3-.4h0l-.5-.2.5.2c0-.1.1-.2.2-.3s.2-.2.2-.3c.1-.1.2-.2.3-.3.4-.5.6-.7.7-1.3Z"/>
    <path class="cls-13" d="M156.2,173.4c-.3,0-.5.3-.5.6s.3.5.6.5c.9-.1,2.3-1,3.5-1.9.6-.4,1.2-.8,1.6-1,1-.5,3.2-1.9,4.9-3.3,1.3-1,2.3-2.1,2.6-2.8.1-.3-.1-.6-.4-.7-.3-.1-.6.1-.7.4-.2.5-1.1,1.4-2.2,2.3-1.7,1.3-3.7,2.7-4.7,3.2-.5.2-1.1.7-1.7,1.1-1.2.7-2.4,1.6-3,1.6"/>
    <path class="cls-13" d="M162.7,172.4c-.3.1-.5.4-.4.7s.4.5.7.4c.7-.2,1.2-.7,1.8-1.2.3-.3.6-.5.9-.7.8-.5,1.3-.9,1.9-1.3.1-.1.3-.2.6-.4.2-.2.3-.5.1-.8-.2-.2-.5-.3-.8-.1-.2.1-.4.3-.6.4-.5.4-1,.8-1.8,1.2-.4.2-.7.5-1,.8-.5.5-.9.9-1.4,1"/>
    <path class="cls-13" d="M167.4,174.9c-.3.2-.4.5-.2.8.2.3.5.4.8.2s.6-.4.9-.6c.2-.2.5-.4.6-.6h0c.3-.4.7-.7,1.1-1.1.2-.2.4-.4.6-.6h0l.2-.2c.1-.1.3-.3.3-.3h0c.1,0,.1-.1.2-.1.1-.1.2-.1.2-.2h0c.3-.1.5-.1.6-.5.1-.3-.1-.6-.4-.7-.2-.1-.4,0-.6.1h0v.1h0l.1.2.4.1c0-.1-.1-.1-.1-.2-.1-.1-.2-.2-.3-.2l.1.2-.2-.1s.1-.1.1-.2h-.1l.1-.1c-.1,0-.2.1-.3.1h-.1c-.1,0-.1.1-.2.1-.1.1-.2.1-.2.2h0c-.1.1-.3.3-.4.4,0,0-.1.1-.2.2h0c-.1.1-.3.3-.6.5-.4.3-.9.7-1.3,1.2h0l.4.3-.4-.3c-.1.1-.2.2-.4.4-.2.5-.5.7-.7.9Z"/>
    <path class="cls-13" d="M194.6,158.2h0s0,.1,0,0M194.7,159.1l.2.2-.2-.2h0ZM194,158.6h0l.1.1-.1-.1ZM194.1,158.7h0l.3.2-.3-.2ZM192.8,158.9c-.3,0-.6.3-.6.6s.3.6.6.6.6,0,.9-.1.5-.2.8-.3c.2-.1.3-.2.4-.3h0c.1-.1.3-.1.4-.2l-.1-.1.1.1h0l.1-.1h0c0-.1.1-.1.1-.1h.1c.2-.2.3-.4.4-.5s.1-.2.2-.2c.3-.1.5-.4.4-.7s-.4-.5-.7-.4c-.6.2-.8.5-.9.8,0,.1-.1.2-.1.2h0l.1.2h0l-.1-.2c-.1.1-.3.2-.3.3h-.1c-.1.1-.3.1-.4.2h0l-.1.1h0c-.2.1-.4.2-.6.2-.1-.2-.3-.1-.6-.1Z"/>
    <path class="cls-13" d="M198.6,154.6c-.3,0-.6.2-.6.6,0,.3.3.6.6.6.8,0,1.4-.3,2-.7.3-.2.6-.4.9-.5h.1c.3-.1.6-.4.8-.6h0s.1,0,.2-.1c.3-.1.6-.3.8-.7.1-.3-.1-.6-.4-.7-.3-.1-.6.1-.7.4h-.1c-.2.1-.3.1-.5.3h0l.4.4-.4-.4c-.1.1-.3.3-.4.3h0c-.4.1-.8.4-1.2.6-.6.2-1,.5-1.5.5"/>
    <path class="cls-13" d="M198,165c-.2.2-.2.6,0,.8s.6.2.8,0c.4-.5,1-.8,1.6-1.1l.1-.1-.3-.5.3.5h0c.3-.2.6-.4.9-.6.2-.2.4-.3.6-.4h.1c.1-.1.3-.2.5-.4s.3-.3.4-.5c.1-.3-.1-.6-.4-.7-.3-.1-.6.1-.7.4h0s0,.1,0,0h0c-.1.1-.3.2-.3.2h0c-.3.2-.5.4-.7.6-.2.2-.4.4-.6.5h0l-.1.1c-.9.2-1.6.6-2.2,1.2"/>
    <path class="cls-13" d="M209.6,162.6c.2-.2.2-.6,0-.8s-.6-.2-.8,0c-.3.4-.8.8-1.2,1.3-.4.5-.8,1.1-1,1.5-.1.2-.3.4-.5.6-.3.3-.6.6-.8,1.1-.1.3.1.6.4.7.3.1.6-.1.7-.4,0-.1.2-.3.4-.6.3-.3.6-.5.7-.9.2-.4.5-.9.8-1.3.5-.3.9-.8,1.3-1.2"/>
    <path class="cls-13" d="M249.5,145.1c0-.3-.2-.6-.6-.6-.3,0-.6.3-.6.6,0,1.1-.4,4.6-.9,7.2-.3,1.6-.6,2.8-.9,2.9-.3.1-.4.4-.4.7.1.3.4.5.7.4.7-.2,1.2-1.8,1.6-3.7.8-2.8,1.1-6.4,1.1-7.5"/>
    <path class="cls-13" d="M241.6,143.6c.1-.3-.1-.6-.4-.7-.3-.1-.6.1-.7.4-.6,2.5-2.4,5.4-4,7.7-.4.6-.8,1.2-1.1,1.7-.9,1.4-1.5,3.3-2,4.8l-.1.4c-.1.3.1.6.4.7.3.1.6-.1.7-.4l.1-.4c.5-1.4,1.1-3.3,1.9-4.5.3-.5.7-1.1,1.1-1.7,1.6-2.3,3.5-5.2,4.1-8"/>
    <path class="cls-13" d="M219.3,153.3c.2-.3.1-.6-.2-.8-.3-.2-.6-.1-.8.2-.4.6-1.1,1.1-1.9,1.6-1.1.8-2.3,1.6-2.6,2.7-.1.4-.5.8-.9,1.1-.4.4-.8.7-.9,1.1-.1.3.1.6.4.7.3.1.6-.1.7-.4.1-.1.3-.4.6-.7.5-.4,1-.9,1.3-1.6.2-.7,1.2-1.4,2.2-2.1.7-.5,1.6-1.1,2.1-1.8"/>
    <path class="cls-13" d="M219.5,160c.1-.3,0-.6-.3-.7-.3-.1-.6,0-.8.3-.4.7-2.8,3.6-4.2,5.1-.2.3-.5.5-.7.7v.1c-.2.1-.4.2-.4.5,0-.2.1-.4.3-.4h.2c.2,0,.5.1.6.3l-.1.1.1-.1c.1.1,0,.2,0,.2l.1.1h0c0-.3-.2-.6-.6-.6h-.2c0,.1.3.3.4.4l-.3.1h.6l-.1-.1s-.1,0-.2-.1l.1-.1h-.1l-.3.1h-.6c0,.1,0,.2.1.3.2.5.7.5,1.2-.1.1-.1.4-.4.7-.8,1.6-1.5,4.1-4.5,4.5-5.3"/>
    <path class="cls-13" d="M226.5,150.7c.2-.3.1-.6-.1-.8-.3-.2-.6-.1-.8.1-.3.4-.5.9-.7,1.4-.2.3-.3.7-.5,1-.5.9-1.5,1.8-2.2,2.5l-.2.2c-.1.1-.2.2-.3.2l.3.4-.3-.4h0c-.3.2-.6.5-.7.8s.1.6.4.7c.3.1.6-.1.7-.4,0,0,.2-.1.4-.3h0c.1-.1.3-.2.4-.3l.2-.2c.8-.8,1.7-1.8,2.3-2.8.2-.4.4-.7.5-1.1.1-.2.3-.6.6-1"/>
    <path class="cls-13" d="M245.1,148c.1-.3-.1-.6-.4-.7-.3-.1-.6.1-.7.4-.1.6-.4,1.4-.8,2.2-.4.7-.8,1.4-1.2,1.9-.1.1-.2.3-.4.4-.3.3-.5.5-.7.9h0s-.1,0-.2.1c-.2.2-.3.3-.3.3-.3.1-.4.4-.3.7s.4.4.7.3c.1,0,.4-.3.7-.5.1-.1.2-.2.3-.3.1,0,.1-.1.1-.2l-.5-.3.5.3c.1-.2.3-.4.5-.6.1-.1.3-.3.4-.4.5-.6,1-1.3,1.4-2.1.4-.8.8-1.7.9-2.4"/>
    <path class="cls-13" d="M234.4,149.2c.3-.1.4-.5.2-.8-.1-.3-.5-.4-.8-.2-.4.2-.7.5-.9.9-.1.1-.2.3-.3.4-.3.3-.8.6-1.3.9-.8.5-1.7,1-1.9,1.8-.1.3.1.6.4.7.3.1.6-.1.7-.4.1-.4.8-.8,1.4-1.2.5-.3,1.1-.6,1.5-1.1.1-.1.3-.3.4-.4.1-.2.4-.5.6-.6"/>
    <path class="cls-13" d="M224.5,163.1h0l-.1.2.1-.2ZM224.7,163.4c-.1-.1-.2-.2-.2-.3v-.1.1h0v-.1h-.1.1c.1.1.2.2.3.3M224.8,163.3q0,.1,0,0c0,.1-.1.1-.1.1l-.3-.1v.1-.1M229.4,157.2c.2-.2.2-.6,0-.8s-.6-.2-.8,0c-.6.6-1.1,1.3-1.6,2-.6.8-1.2,1.5-1.8,2.2-.2.2-.9,1.3-1.2,2.1-.1.2-.2.4-.2.6-.1.4,0,.7.4.8h.4c.3-.1.5-.4.4-.7q0-.1-.1-.2v.1c.1.1.1.3,0,.4-.1.1-.2.2-.3.3l-.2-.7v-.1l.1-.2v-.1h-.2c.2-.1.5,0,.6.2,0,0,0-.1.1-.1.3-.6.9-1.6,1-1.7.7-.7,1.3-1.5,1.9-2.3.5-.6,1-1.2,1.5-1.8Z"/>
    <path class="cls-13" d="M220.8,165c.2-.2.2-.6,0-.8s-.6-.2-.8,0c-.6.6-1.3,1.2-2,1.8s-1.4,1.2-2,1.9c-.2.2-.4.3-.7.5-.6.4-1.2.8-1.3,1.3-.1.3.1.6.4.7.3.1.6-.1.7-.4,0-.1.4-.4.8-.7.3-.2.7-.4.9-.7.6-.6,1.3-1.2,2-1.8.7-.5,1.3-1.1,2-1.8"/>
    <path class="cls-13" d="M221.7,172.4h.1-.1ZM221.9,172.7l-.2-.3.2.3h0ZM221.8,172.4c-.2-.1-.2-.3-.3-.5h-.2v.1l.2.2h0l.1.1.1.1h.1c-.1,0-.2-.1-.2-.1l.1.1.1.1h-.1l-.1-.3.1.1M221.9,172.4h0q-.1,0,0,0h-.2l.2.3v-.3ZM226,167.9c.2-.2.1-.6-.1-.8s-.6-.1-.8.1c-.3.4-.5.7-.8,1.1-.3.5-.6.9-.9,1.3h0c-.2.2-.4.4-.6.6-.5.4-.9.9-1.2,1.3l.5.3-.5-.3h0s-.2.2-.3.3h0c-.3.2-.5.4-.4.8l.2-.1-.2.1v.1c.1.3.4.4.8.3.1-.1.3-.2.3-.3l-.1.1h0v.1c-.1,0-.1.1-.2.1v.1c.1,0,.1-.1.2-.1h.1c.1-.1.1-.2.1-.3h.1c0,.1,0,.2-.1.3.2-.1.4-.3.5-.5v-.1c.2-.3.6-.7,1-1.1.2-.2.5-.4.7-.7h0l-.4-.4.4.4c.4-.5.7-1,1-1.5.2-.5.5-.9.7-1.2Z"/>
    <path class="cls-13" d="M232.8,169.7c.2-.2.1-.6-.1-.8s-.6-.1-.8.1c-.2.3-.4.5-.6.8s-.5.6-.7.9l.4.3-.4-.3h0c-.3.4-.6.7-1,1-.2.2-.4.4-.6.5-.1.1-.2.2-.3.3-.2.2-.4.5-.5.5-.3.1-.4.4-.4.7.1.3.4.4.7.4.4-.1.7-.5,1-.8.1-.1.2-.2.2-.2.2-.2.4-.3.5-.5.4-.4.8-.7,1.1-1.2h0c.2-.3.4-.6.7-.9.4-.3.6-.6.8-.8"/>
    <path class="cls-13" d="M240.2,159.7c0-.3-.3-.6-.6-.6s-.6.3-.6.6c0,1.2-1,2.3-2,3.4-.8.9-1.5,1.7-1.7,2.5-.1.3.1.6.4.7.3.1.6-.1.7-.4.2-.6.8-1.3,1.5-2.1,1.1-1.1,2.3-2.5,2.3-4.1"/>
    <path class="cls-13" d="M245.6,161.4c.2-.3.1-.6-.1-.8-.3-.2-.6-.1-.8.1-.8,1.2-1.3,2.7-1.9,4.2-.3.9-.6,1.7-.9,2.4-.2.5-.4,1-.6,1.5-.1.2-.1.3-.2.6h0c-.1.1-.2.3-.3.5-.1.2-.3.4-.3.6-.1.3.1.6.4.7.3.1.6-.1.7-.4,0,0,.1-.2.2-.3.2-.2.3-.5.5-.8v-.1l-.5-.2.5.2c.1-.2.1-.4.2-.6.2-.5.3-.9.5-1.4.4-.8.7-1.6,1-2.5.3-1.2.9-2.7,1.6-3.7"/>
    <path class="cls-13" d="M197.6,131.7c0-.3-.3-.6-.6-.6s-.6.3-.6.6v1.7c0,.5.1,1,.1,1.4l.6-.1-.6.1h0v.9c0,.6,0,1.1.1,1.6.1.3.4.4.7.4.3-.1.5-.4.4-.7s-.1-.8-.1-1.2v-1.1c0-.4-.1-.9-.1-1.4.1-.5.1-1.1.1-1.6"/>
    <path class="cls-13" d="M199.6,140.4c-.1-.3-.4-.5-.7-.4-.3.1-.5.4-.4.7l1.3,4.6c.1.3.4.5.7.4.3-.1.5-.4.4-.7l-1.3-4.6Z"/>
    <path class="cls-13" d="M202.8,136.9c-.1-.3-.4-.5-.7-.4-.3.1-.5.4-.4.7l1.3,4.6c.1.3.4.5.7.4.3-.1.5-.4.4-.7l-1.3-4.6Z"/>
    <path class="cls-13" d="M207.2,123.3c-.1-.3-.4-.5-.7-.4-.3.1-.5.4-.4.7l1.2,3.8c.1.3.4.5.7.4.3-.1.5-.4.4-.7l-1.2-3.8Z"/>
    <path class="cls-13" d="M216,150.3c.2-.2.1-.6-.1-.8s-.6-.1-.8.1c-.7.9-2,1.7-3.2,2.4-1.7,1-3.3,2-3.5,3.5,0,.3.2.6.5.6s.6-.2.6-.5c.1-1,1.5-1.8,3-2.6,1.3-.8,2.7-1.6,3.5-2.7"/>
    <path class="cls-13" d="M218.7,139.7c.3-.2.3-.6,0-.9-.2-.3-.6-.3-.9,0l-3.9,3.7c-.3.2-.3.6,0,.9.2.3.6.3.9,0l3.9-3.7Z"/>
    <path class="cls-13" d="M210.3,147.1c.2-.2.2-.6,0-.8s-.6-.2-.8,0l-3.5,3.3c-.2.2-.2.6,0,.8s.6.2.8,0l3.5-3.3Z"/>
    <path class="cls-13" d="M279.7,131.6c-.2-.3-.5-.4-.8-.2s-.4.5-.2.8c1.9,3.3,2.7,6.5,3.5,9.6.5,2,1,3.9,1.7,5.8.5,1.3,1.3,2.7,2.1,4.1,1.4,2.4,2.8,4.8,2.8,6.9,0,.3.3.6.6.6s.6-.2.6-.6c0-2.3-1.5-4.9-3-7.4-.8-1.4-1.6-2.7-2-3.9-.7-1.9-1.2-3.7-1.6-5.7-.9-3.3-1.7-6.6-3.7-10"/>
    <path class="cls-13" d="M185.1,174.1c-.2,0-.3-.1-.4-.2l.4.2ZM184.6,173c.4-3.7.4-6.9-.2-9.9-.5-2.6-1.5-4.9-3-6.9.2-.1.3-.2.5-.4.4-.5.9-1.3,1.7-2.7.3-.5.6-1.1,1.1-1.9.1,0,.2-.1.2-.1h0l4.1-3.5c-.6,3.1-.6,6.1-.2,8.9.4,3.3,1.4,6.5,2.7,9.6.1,2-.5,3.4-1.7,4.5s-2.9,1.9-4.9,2.4c-.1-.1-.2,0-.3,0ZM183.9,174.1c3.8,15.4,8.7,29,14.9,40.4,6.3,11.6,14,20.9,23.2,27.9.2.1.4.1.6-.1.1-.2.1-.4-.1-.6-9.2-6.9-16.8-16.2-23-27.7-6.2-11.3-11.1-24.7-14.8-40h.5c2.2-.6,4.1-1.5,5.4-2.7,1.4-1.3,2.1-3,2-5.4v-.2c-1.3-3.1-2.2-6.2-2.7-9.4-.4-3.2-.3-6.6.5-10.1.1-.2,0-.4-.1-.5-.2-.2-.6-.3-.8-.1l-4.9,4.3-5.3-6c0-.1-.1-.1-.2-.1-.3-.1-.6,0-.8.2l.5.3-.5-.3-3.6,7c-.7,0-1.4,0-2-.1-.8-.1-1.5-.3-2.3-.5-.2-.1-.4,0-.6.1-.2.2-.2.6,0,.8h0c3,2.9,3.4,7.2,3.8,11.2.6,6.3,1.1,12,10.3,11.6ZM175.1,152c2.3,1.3,3.5,2.4,4.4,3.2.1.1.2.2.3.3,2,2.1,3.2,4.7,3.8,7.7.6,2.9.6,6.1.2,9.8-8.1.3-8.6-4.9-9.1-10.5-.3-3.7-.7-7.6-2.9-10.6.3,0,.5.1.8.1.8.1,1.7.1,2.5,0ZM184,150.8c-.4.7-.7,1.3-1,1.8-.8,1.4-1.2,2.2-1.6,2.6-.3.3-.5.2-.9-.2-.7-.7-1.4-1.4-2.3-2-.7-.5-1.5-1.1-2.4-1.5l3.2-6.3,5,5.6Z"/>
    <path class="cls-13" d="M242,192.8c.1-.2,0-.4-.2-.5s-.4,0-.5.2l-7.9,20.3c-.1.2,0,.4.2.5s.4,0,.5-.2l7.9-20.3Z"/>
    <line class="cls-4" x1="212.9" y1="202.3" x2="212.9" y2="202.4"/>
  </g>
</svg>