<?xml version="1.0" encoding="UTF-8"?>
<svg id="Layer_2" data-name="Layer 2" xmlns="http://www.w3.org/2000/svg" viewBox="0 0 510.29 477.89">
  <defs>
    <style>
      .cls-1 {
        fill: #fff;
      }

      .cls-1, .cls-2 {
        fill-rule: evenodd;
      }

      .cls-3, .cls-2 {
        fill: #19afae;
      }

      .cls-4 {
        fill: #ed1c26;
      }

      .cls-5 {
        fill: #1e9a9f;
      }

      .cls-6 {
        fill: #39bfc2;
      }
    </style>
  </defs>
  <g id="Layer_1-2" data-name="Layer 1">
    <path class="cls-2" d="M128.19,267.29c22.14,1.72,49.24-.94,61.7,18.76l-4.43,9.35c-3.4-5.82-7.06-10.16-10.95-13.21-11.26-8.8-30.29-5.21-46.31-14.9"/>
    <path class="cls-3" d="M116.44,208.86c3.36-3.41,6.95-6.71,9.27-10.91,2.31-4.19,2.94-8.35.52-12.48.12,4.56-2.36,8.84-5.44,12.21-3.09,3.37-6.81,6.09-10,9.36-4.06,4.16-4.21,3.93-6.6,8.87-.97,2.63-15.79.92-18.47-4.93-1.58-.1-5.23,10.82-5.23,10.82-1.77,5.23-1.66,11.08.31,16.24.35.9.75,1.81.77,2.77.02.91-.29,1.81-.28,2.73.9,2.39,2.17,5.15,3.46,7.76.11.21.22.43.34.64-.04-.07-.08-.13-.12-.19,2.34,4.67,4.62,8.68,4.62,8.68,2.16,3.18,3.73,6.76,4.56,10.51,2.54-.43,4.66-3.45,5.23-5.97.57-2.52-.53-5.33-2.64-6.81-1-.7-2.23-1.16-2.86-2.2-.21-.35-.34-.75-.45-1.15l-2.38-3.84c-.94-1.36-1.13-3.12-1.28-4.79-.48-5.27-.96-10.53-1.43-15.8,4.83,0,8.61,4.12,11.14,8.24,2.53,4.12,4.7,8.8,8.85,11.28,2.87,1.72,6.33,2.14,9.67,2.35,7.86.49,16.76-.43,21.78-6.51-6.23,2.03-12.56,3.7-18.99,2.46-6.43-1.24-12.58-6.05-13.45-12.54-1.43-10.66,1.78-19.36,9.11-26.8"/>
    <path class="cls-2" d="M155.67,192.51c-3.49,8.34-4.05,19.34.67,27.32,8,13.53,14.45,16.35,23.08,20.87v-5.12c-15.04-10.41-27.13-24.95-23.75-43.07"/>
    <path class="cls-2" d="M112.61,253.3c24.63,13.96,48.61-6.91,69.38,12.6l3.46,10.39c-24.14-23.34-58.95-3.88-72.84-22.99"/>
    <path class="cls-2" d="M138.44,145.41c6.95-2.37,8.14-7.06,8.04-17.8-6.81,7.27-18.34,6.39-16.35,17.78,2.23-5.3,6.05-7.88,12.21-9.52.56,4.13-1.1,6.78-3.9,9.53"/>
    <path class="cls-2" d="M129.07,137.61c-9.93-3.95-13.39,4.32-6.72,10.61,10.81,10.2,20.97,12.05,20.38,29.86,5.11-10.46-1.26-21.06-9.77-27.29l-7.28-5.45c-5.59-4.18-2.42-6.95,3.38-7.72"/>
    <path class="cls-2" d="M118.68,145.72c-.57-1.06-.87-1.88-1-3.38-6.28,6.93-14.67,14.44-23.3,21.42-3.29,2.66-4.15,4.66-.99,8.43-2.65,7.09,5.58,9.98,10.43,7.72,1.1-.51,1.28-1.7,2.17-2.87,1.21-1.61,4.9-2.53,7.5-3.1,3.48-.77,6.32,3.04,11.79,1.8l.73,8.09c1.74-2.65,2.53-5.31,2.46-9.05,3.94-1.21,5.32-4.56,5.47-8.11-3.86,5.06-11.64,6.73-17.19,3.42-3.2-1.91-10.17,1.6-13.36,5.3-1.27,1.47-.71,1.73-2.88,2.18-2.29.48-3.96-.23-4.93-2.4-.5-1.1-.42-.88.15-1.81,1.51-2.47-4.57-4.74-.46-7.84,7.74-5.85,15.84-11.02,23.43-19.8"/>
    <path class="cls-2" d="M118.52,153.83c2.31.47,5.04-.58,6.46-1.67l-4.81-1.73c-1.65-.59-1.24-.51-2.74.5-2.44,1.65-5.34,3.75-8.29,6.19,4.02-1.27,6.26-3.93,9.38-3.29"/>
    <path class="cls-2" d="M95.79,169.83c.15-.83.7-1.11.18-2.15-.43-.86.33-1.88,1.26-2.11.93-.23,1.88.33,2.11,1.26.5,1.97-2.15,2.46-3.56,3"/>
    <path class="cls-2" d="M154.24,167.93c-2.99-7.06-7.29-12.81-12.57-17.57,15.19,3.35,10.92,16.98,30.32,23.94-3.69.53-7.45.39-11.37-1.38,1.52,2.58,2.61,5.23,2.58,8.27-1.09-2.06-2.5-3.48-4.22-4.22,1.8,6.86,4.66,13.32,9.56,19.03-1.99-.34-4.44-2.25-7.23-5.34,1.74,5.8,4.58,11.54,8.27,17.22-6.3-5.18-10.56-14.03-14.34-25.19l1.65.34c-1.99-6.06-3.52-11.98-7.46-17.01,1.72.8,3.35,1.42,4.82,1.9"/>
    <path class="cls-2" d="M382.11,267.29c-22.15,1.72-49.24-.94-61.7,18.76l4.43,9.35c3.4-5.82,7.06-10.16,10.95-13.21,11.26-8.8,30.29-5.21,46.31-14.9"/>
    <path class="cls-3" d="M393.86,208.86c-3.36-3.41-6.96-6.71-9.27-10.91-2.31-4.19-2.94-8.35-.52-12.48-.12,4.56,2.36,8.84,5.44,12.21,3.09,3.37,6.81,6.09,10,9.36,4.06,4.16,4.21,3.93,6.6,8.87.97,2.63,15.78.92,18.47-4.93,1.58-.1,5.23,10.82,5.23,10.82,1.77,5.23,1.66,11.08-.31,16.24-.35.9-.75,1.81-.77,2.77-.02.91.28,1.81.28,2.73-.9,2.39-2.17,5.15-3.46,7.76-.11.21-.22.43-.34.64.04-.07.08-.13.12-.19-2.34,4.67-4.62,8.68-4.62,8.68-2.16,3.18-3.73,6.76-4.55,10.51-2.54-.43-4.66-3.45-5.22-5.97-.57-2.52.53-5.33,2.64-6.81,1-.7,2.23-1.16,2.86-2.2.21-.35.34-.75.45-1.15l2.38-3.84c.94-1.36,1.13-3.12,1.28-4.79.48-5.27.96-10.53,1.43-15.8-4.83,0-8.61,4.12-11.14,8.24-2.53,4.12-4.7,8.8-8.85,11.28-2.87,1.72-6.33,2.14-9.67,2.35-7.86.49-16.76-.43-21.78-6.51,6.23,2.03,12.56,3.7,18.99,2.46,6.43-1.24,12.58-6.05,13.45-12.54,1.43-10.66-1.78-19.36-9.11-26.8"/>
    <path class="cls-2" d="M354.62,192.51c3.49,8.34,4.05,19.34-.67,27.32-8,13.53-14.45,16.35-23.08,20.87v-5.12c15.04-10.41,27.13-24.95,23.75-43.07"/>
    <path class="cls-2" d="M397.69,253.3c-24.63,13.96-48.61-6.91-69.38,12.6l-3.46,10.39c24.14-23.34,58.95-3.88,72.84-22.99"/>
    <path class="cls-2" d="M371.86,145.41c-6.95-2.37-8.14-7.06-8.04-17.8,6.81,7.27,18.34,6.39,16.35,17.78-2.23-5.3-6.05-7.88-12.21-9.52-.56,4.13,1.1,6.78,3.9,9.53"/>
    <path class="cls-2" d="M381.22,137.61c9.93-3.95,13.39,4.32,6.72,10.61-10.81,10.2-20.97,12.05-20.39,29.86-5.11-10.46,1.26-21.06,9.77-27.29l7.28-5.45c5.59-4.18,2.43-6.95-3.38-7.72"/>
    <path class="cls-2" d="M391.61,145.72c.57-1.06.87-1.88,1-3.38,6.28,6.93,14.67,14.44,23.3,21.42,3.29,2.66,4.15,4.66.99,8.43,2.65,7.09-5.59,9.98-10.43,7.72-1.09-.51-1.28-1.7-2.16-2.87-1.21-1.61-4.9-2.53-7.5-3.1-3.48-.77-6.32,3.04-11.79,1.8l-.73,8.09c-1.74-2.65-2.53-5.31-2.46-9.05-3.94-1.21-5.32-4.56-5.47-8.11,3.86,5.06,11.64,6.73,17.19,3.42,3.2-1.91,10.17,1.6,13.36,5.3,1.27,1.47.71,1.73,2.88,2.18,2.29.48,3.96-.23,4.93-2.4.5-1.1.42-.88-.15-1.81-1.51-2.47,4.57-4.74.47-7.84-7.74-5.85-15.85-11.02-23.43-19.8"/>
    <path class="cls-2" d="M391.78,153.83c-2.31.47-5.04-.58-6.47-1.67l4.81-1.73c1.65-.59,1.24-.51,2.74.5,2.44,1.65,5.34,3.75,8.29,6.19-4.02-1.27-6.26-3.93-9.38-3.29"/>
    <path class="cls-2" d="M414.5,169.83c-.15-.83-.7-1.11-.18-2.15.43-.86-.33-1.88-1.26-2.11-.93-.23-1.88.33-2.11,1.26-.5,1.97,2.15,2.46,3.56,3"/>
    <path class="cls-2" d="M356.05,167.93c2.99-7.06,7.29-12.81,12.57-17.57-15.19,3.35-10.92,16.98-30.32,23.94,3.69.53,7.45.39,11.37-1.38-1.52,2.58-2.61,5.23-2.58,8.27,1.09-2.06,2.5-3.48,4.22-4.22-1.8,6.86-4.66,13.32-9.56,19.03,1.99-.34,4.44-2.25,7.23-5.34-1.74,5.8-4.57,11.54-8.27,17.22,6.3-5.18,10.55-14.03,14.34-25.19l-1.65.34c1.99-6.06,3.52-11.98,7.46-17.01-1.72.8-3.35,1.42-4.82,1.9"/>
    <path class="cls-4" d="M222.27,297.25l-.45.58c-.34-.34-.66-.68-.98-1.04l1.43.46ZM188.99,304.11l-.02-.03c-1.17-1.64-2.35-3.42-3.49-5.35-3.06-5.18-5.85-11.46-7.58-18.67-1.92-7.12-3.46-15.08-3.62-23.61-.23-8.51.74-17.56,3.17-26.52,2.34-8.99,5.8-17.91,9.36-26.85,3.62-8.9,6.81-18.09,9.86-27.38,6.23-18.47,11.76-37.26,14.21-55.3,1.16-9.02,1.63-17.8.74-26.03-.95-8.25-2.86-15.97-5.29-22.8-2.51-6.81-5.66-12.73-9-17.61-3.34-4.89-6.84-8.73-9.87-11.72-7.84-7.74-15.08-12.53-25.59-16.37,11.37,3.56,23.68,11.21,32.08,19.84l3.43,3.32,3.19,3.55c2.19,2.31,4.06,4.89,6.05,7.38,1.97,2.5,3.65,5.21,5.49,7.81,1.62,2.74,3.34,5.43,4.84,8.24,1.39,2.87,3.03,5.62,4.19,8.61l1.87,4.41c.62,1.47,1.06,3.02,1.6,4.52,2.18,6.03,3.4,12.35,4.29,18.79.21,1.6.21,3.16.33,4.74l.13,2.36.07,1.26-.02,1.19c-.07,3.19-.05,6.38-.31,9.55l-.29,4.77-.46,4.75c-.27,3.17-.72,6.31-1.11,9.46-.85,6.29-1.89,12.55-3.02,18.79-1.19,6.22-2.45,12.43-3.76,18.61-2.58,12.38-5.33,24.71-7.41,37.12-1.07,6.22-1.91,12.37-2.53,18.69-.52,6.19-.84,12.47-.27,18.69.52,6.21,1.67,12.38,3.67,18.28,2.01,5.84,4.89,11.59,8.92,16.15l.04.05c.27.3.24.77-.07,1.04-.25.22-.61.24-.88.07-.62-.39-1.37-.74-2.1-1.03-.73-.29-1.49-.55-2.26-.71-.77-.19-1.56-.29-2.34-.31-.79-.05-1.56.05-2.34.15-.75.21-1.53.36-2.22.74-.34.12-.65.3-.96.5-.34.24-.67.5-.99.72-.57.56-1.2,1.09-1.67,1.72-.39.59-1.04,1.13-1.33,1.76-.35.73-.91,1.4-1.15,2.19l-.85,2.41c-.28.72-.29,1.59-.44,2.34l-.18,1.18.02,1.19c.03.78-.04,1.61.13,2.4.15.76-.03,1.69.21,2.42.38,1.56.93,3.08,1.68,4.5l1.48,2.82-2.47-2.01c-.89-.72-1.77-1.53-2.59-2.3-1.1-.97-2.17-1.91-3.18-2.98-.63-.67-1.28-1.32-1.94-2.01-.64-.74-1.24-1.52-1.88-2.26-2.01-2.34-3.88-4.71-5.59-7.2ZM221.73,296.14c.33.15.66.32,1,.52l-.29.38-.71-.9Z"/>
    <path class="cls-4" d="M288.02,297.25l.45.58c.34-.34.66-.68.98-1.04l-1.43.46ZM321.3,304.11l.02-.03c1.17-1.64,2.35-3.42,3.49-5.35,3.06-5.18,5.85-11.46,7.58-18.67,1.92-7.12,3.46-15.08,3.62-23.61.23-8.51-.74-17.56-3.17-26.52-2.34-8.99-5.8-17.91-9.36-26.85-3.62-8.9-6.81-18.09-9.86-27.38-6.23-18.47-11.76-37.26-14.21-55.3-1.16-9.02-1.63-17.8-.74-26.03.96-8.25,2.86-15.97,5.29-22.8,2.51-6.81,5.66-12.73,9-17.61,3.34-4.89,6.84-8.73,9.87-11.72,7.84-7.74,15.08-12.53,25.59-16.37-11.37,3.56-23.68,11.21-32.08,19.84l-3.43,3.32-3.19,3.55c-2.19,2.31-4.06,4.89-6.05,7.38-1.97,2.5-3.65,5.21-5.49,7.81-1.62,2.74-3.34,5.43-4.84,8.24-1.39,2.87-3.03,5.62-4.19,8.61l-1.87,4.41c-.62,1.47-1.06,3.02-1.6,4.52-2.18,6.03-3.39,12.35-4.29,18.79-.21,1.6-.21,3.16-.33,4.74l-.13,2.36-.06,1.26.02,1.19c.07,3.19.05,6.38.31,9.55l.29,4.77.46,4.75c.27,3.17.72,6.31,1.11,9.46.85,6.29,1.89,12.55,3.02,18.79,1.19,6.22,2.45,12.43,3.76,18.61,2.58,12.38,5.33,24.71,7.41,37.12,1.07,6.22,1.91,12.37,2.53,18.69.52,6.19.84,12.47.27,18.69-.52,6.21-1.67,12.38-3.67,18.28-2.01,5.84-4.89,11.59-8.92,16.15l-.04.05c-.27.3-.24.77.07,1.04.25.22.61.24.88.07.62-.39,1.37-.74,2.1-1.03.73-.29,1.49-.55,2.26-.71.77-.19,1.56-.29,2.34-.31.79-.05,1.56.05,2.34.15.75.21,1.53.36,2.22.74.34.12.65.3.96.5.34.24.67.5.99.72.57.56,1.2,1.09,1.67,1.72.39.59,1.04,1.13,1.33,1.76.35.73.91,1.4,1.15,2.19l.85,2.41c.28.72.29,1.59.44,2.34l.18,1.18-.02,1.19c-.03.78.04,1.61-.13,2.4-.15.76.03,1.69-.21,2.42-.38,1.56-.93,3.08-1.68,4.5l-1.48,2.82,2.47-2.01c.89-.72,1.77-1.53,2.59-2.3,1.1-.97,2.17-1.91,3.18-2.98.63-.67,1.28-1.32,1.94-2.01.64-.74,1.24-1.52,1.88-2.26,2.01-2.34,3.88-4.71,5.59-7.2ZM288.57,296.14c-.33.15-.67.32-1,.52l.29.38.71-.9Z"/>
    <path class="cls-4" d="M226,259.9c-.9-3.5-1.79-7.75-2.54-12.64-.39-2.56-.7-5.3-1.01-8.19-.19-2.9-.49-5.95-.5-9.14-.03-1.6-.07-3.22-.1-4.88.05-1.66.09-3.35.14-5.07.02-3.45.41-6.98.67-10.64.32-3.64.89-7.36,1.38-11.18.72-3.77,1.34-7.66,2.28-11.54,1.83-7.8,4.08-15.65,6.07-23.71,2.01-8.06,3.89-16.29,5.58-24.55,3.52-16.49,6.28-33.16,7.73-48.88,1.45-15.71,1.81-30.5.37-43.03-.71-6.26-1.77-11.95-3.1-16.89-1.27-4.77-2.96-8.77-4.54-12l-.18-.34c-3.79-7.62-8.81-12.77-15.93-17.23,0,0,.99.55,2.85,1.57,6.4,3.61,12.37,10.7,16.43,16.68,11.45,16.94,18.72,40.88,23.38,60.52,3.95,16.55,7.19,34.4,9.98,52.29,1.33,8.96,2.55,17.93,3.71,26.76,1.16,8.82,2.25,17.56,2.91,26.05.28,4.25.67,8.42.69,12.53.05,2.05.1,4.07.15,6.08.02,2-.04,3.98-.05,5.93-.03,7.8-.55,15.18-1.15,21.95-.33,3.39-.73,6.63-1.14,9.7-.52,3.06-.9,5.98-1.47,8.69-.96,5.18-2.04,9.67-3.02,13.4l-.12.55c-.68,2.98-1.42,6.01-2.32,8.91-.17.6-.36,1.19-.56,1.78l-.02.05-.03.05c-.08.14-.19.28-.25.41-.08.16-.12.36-.19.53l-1.06,2.64-.19-2.84c-.05-.68-.16-1.38-.3-2.05-.19-.91-.43-1.8-.74-2.68-.4-1.15-.89-2.26-1.49-3.32-.72-1.27-1.54-2.47-2.53-3.55-1.11-1.22-2.31-2.36-3.74-3.22l-1.11-.71-1.23-.6c-.79-.43-1.66-.72-2.52-.97-.45-.13-.89-.29-1.33-.39l-2.56-.47c-.49-.05-.97-.07-1.47-.1-1.82-.15-3.65-.01-5.43.18-.89.17-1.76.36-2.64.57-.83.3-1.65.6-2.48.9-.76.39-1.51.75-2.22,1.16-.67.48-1.35.93-1.98,1.42-1.12.93-2.15,1.99-3.03,3.15-1.3,1.7-2.32,3.62-3,5.65-.22.67-.42,1.37-.53,2.07l-.4,2.38-.85-2.25c-.12-.32-.28-.63-.45-.93l-.03-.05-.02-.06c-.18-.54-.35-1.09-.52-1.63-.85-2.72-1.53-5.57-2.14-8.36l-.1-.48Z"/>
    <path class="cls-1" d="M252.81,202.38c-.58-.41-1.15-.98-1.73-1.76-.15-.2-.27-.39-.37-.58-1.03.1-2-.05-3.09-.7-.02,0-.05.01-.08.02l-.16.03c-3.23.53-5.79-.84-7.59-3.46l-.17-.25-.14-.27c-2.16-4.32.02-9.55,3.62-12.35l.15-.11.16-.1c2.89-1.88,6.01-2.82,9.18-4.03l.14-.05c3.82-1.31,7.8-2.21,11.78-2.89,3.3-.57,7.05-1.09,10.06.77,3.28,2.01,6.81,6.33,7.45,10.05.39,1.95.23,3.93-.54,5.77-1.34,3.18-4.17,5.34-7.53,6.86.04.07.08.14.12.21l.1.17.08.18c.9,2.01,1.75,4.77,1.75,6.97,0,.8-.17,1.39-.27,2.09.2.5.48,1.03.66,1.55l.05.14.04.14c.17.64.32,2.09.54,2.58l.06.14.04.12c.42,1.01,1.05,1.7,1.44,2.91l.08.25.05.26c.11.57.16,1.41.31,1.98.28.7.57,1.4.88,2.15.94,2.4,1.62,4.86,2.4,7.31.54,1.7,2.27,3.72,3.29,5.26.46.64.89,1.25,1.27,1.87,2.45-.79,5.36-.9,7.65-1.17,3.08-.36,6.19-.38,9.26-.75.58-.13,1.15-.3,1.73-.44,4.13-1.04,8.18-.74,10.46,3.4,2.16,3.68,2.07,8.91-.96,12.09l-.1.1c-1.88,1.85-4.18,2.69-6.62,3.06.4,2.14,2.55,4.03,4.02,5.53,3.76,3.27,5.42,7.52,6.68,12.21l.04.16.03.17c.7,3.72.51,7.54,1.19,11.11.33,1.56.64,3.13.96,4.69.32.21.66.41.96.62,2.66,1.88,3.3,3.87,4.31,6.73.14.39,1.44,1.32,1.89,1.68,3.14,2.53-.93,5.8.03,9.85.38,1.37-2.62,8.13-2.24,8.98.86.45,1.98.76,2.94,1.33l12.62,7.42-14.62.71c-4.84.24.88-3.87-3.93-3.29l-.4.05-.41-.03c-.45-.03-.89-.07-1.34-.1l-.45.4-1.33.18c-1.11.15-2.22.32-3.33.49-.61,1.57-1.73,2.66-3.43,3.21-.8.25-1.35.25-2.08.27l-.26.08h-.69c-1.05,0-2.24.3-3.27.51l-.09.02c-8.49,1.59-17.07,1.54-25.65,1.48-8.17,1.97-16.74,2.99-24.79,2.64l-5.84-.25.55-1.62c-.08-.01-.17-.03-.25-.04l-2.82-.39-.07-.23c-.53-.04-1.07-.09-1.6-.13-.6.02-1.2.04-1.8.06l-.17.45-1.02-.4c-3,.14-6,.34-9,.63-2.68.21-5.18.32-7.79-.48-1.19-.36-2.52-1.03-3.71-1.34-1.38.14-2.33.79-4.23.61-2.62-.25-4.74-1.72-6.59-3.47-.24-.16-.47-.33-.69-.52-.2.01-.4.02-.59.03l-.51.03-.32-.06-2.07.51.19-.84c-2.65-.46-5.31-.88-7.98-1.25l-1.33-.18-.45-.4c-.45.03-.89.07-1.34.1l-.41.03-.4-.05c-4.81-.58-10.22,2.28-15.06,2.04l-14.62-.71,12.62-7.42c.96-.57,2.08-.88,2.94-1.33.38-.86,1.13-6.37,1.51-7.74.96-4.05,4.27-7.32,7.4-9.85.45-.36,1.76-1.29,1.89-1.68,1.01-2.86,1.64-4.85,4.31-6.73.3-.21.64-.41.96-.62.32-1.56.63-3.12.94-4.61.69-3.66.51-7.47,1.2-11.2l.03-.17.04-.16c1.26-4.7,2.91-8.94,6.68-12.21,1.47-1.51,3.62-3.39,4.02-5.53-2.44-.37-4.74-1.21-6.62-3.06l-.1-.1c-3.03-3.18-3.12-8.42-.95-12.09.88-1.58,2.2-2.8,3.91-3.44,3.01-1.13,5.42-.14,8.27.48,3.07.38,6.18.39,9.27.75,2.82.33,6.6.42,9.28,1.84.25-1.03.56-2.07,1.06-3.1.76-1.78,1.8-3.43,2.53-5.2l.05-.12.06-.12c1.48-3.07,2.78-6.18,4.48-9.15,1.33-2.33,2.84-4.59,4.04-6.98l.06-.12.07-.12c1.45-2.48,3.04-4.29,5.16-6.22l.09-.08.09-.08c.49-.4,1.05-.92,1.39-1.47.19-.4.33-.77.46-1.14"/>
    <path class="cls-4" d="M231.91,260.13s.12-1.08.72-2.89c.6-1.8,1.68-4.35,3.72-7.02,1.01-1.33,2.27-2.67,3.77-3.92.77-.6,1.6-1.16,2.44-1.76.89-.51,1.84-.97,2.79-1.47,1.01-.37,2.03-.74,3.07-1.12,1.07-.26,2.16-.49,3.26-.71,2.22-.24,4.49-.42,6.73-.23.61.04,1.01.05,1.79.13l1.57.28,1.56.29c.53.12,1.11.33,1.67.49,1.13.32,2.22.7,3.18,1.23l1.48.72,1.37.88c1.84,1.11,3.35,2.57,4.65,4,1.32,1.43,2.31,2.97,3.14,4.41.81,1.46,1.4,2.86,1.85,4.11.44,1.26.72,2.39.92,3.32.38,1.86.4,2.95.4,2.95,0,0-.35-1.03-1.13-2.7-.39-.84-.93-1.83-1.55-2.94-.65-1.09-1.45-2.28-2.37-3.51-.96-1.2-2.06-2.44-3.34-3.59-.66-.56-1.29-1.17-2.06-1.64-.73-.52-1.46-1.06-2.3-1.47l-1.22-.68-1.31-.53c-.88-.4-1.77-.66-2.66-.9-.46-.12-.87-.28-1.37-.39l-1.57-.25-1.57-.25-1.39-.05c-2.01-.22-4-.1-5.95.07-.95.19-1.91.33-2.86.48-.91.27-1.82.53-2.71.79-.85.37-1.69.73-2.51,1.08-.77.45-1.56.85-2.29,1.3-1.41.98-2.71,1.98-3.81,3.05-2.19,2.14-3.72,4.3-4.7,5.86-.97,1.57-1.42,2.56-1.42,2.56"/>
    <path class="cls-4" d="M289.29,274.34s.85-.44,2.47-.9c1.61-.44,4.03-.96,7-.75,1.49.06,3.1.38,4.77.91,1.62.62,3.38,1.36,4.88,2.6.81.55,1.49,1.27,2.21,1.96l.27.26c.28.32.2.24.32.39l.42.54c.28.37.55.72.82,1.13,1.13,1.96,1.96,3.91,2.32,5.95.43,2.04.42,4.09.32,6.08-.14,1.98-.59,3.88-1.1,5.67-.53,1.78-1.25,3.43-2.01,4.94-.76,1.51-1.65,2.84-2.51,4.03-.91,1.16-1.77,2.18-2.65,2.98-.8.86-1.68,1.44-2.33,1.96-.67.51-1.29.78-1.66,1.02-.39.22-.59.34-.59.34,0,0,.67-.7,1.72-1.93.48-.66,1.13-1.4,1.72-2.36.64-.91,1.23-2.03,1.9-3.21.59-1.23,1.19-2.57,1.74-4.02.53-1.45.96-3.02,1.35-4.63.18-.81.29-1.65.44-2.48.07-.84.15-1.69.22-2.55.04-1.7,0-3.44-.38-5.08-.23-1.69-.93-3.23-1.55-4.51-.23-.37-.53-.75-.78-1.12l-.38-.57s-.21-.32-.1-.15l-.2-.23c-.55-.6-1.05-1.24-1.68-1.72-1.16-1.08-2.49-1.88-3.8-2.57-1.36-.59-2.69-1.12-4.01-1.4-2.61-.63-4.94-.7-6.57-.7-1.63.01-2.58.14-2.58.14"/>
    <path class="cls-4" d="M242.16,263.54c-8.36,9.12-5.9,22.05-5.9,22.05-2.01-3.52-14.39-13.06-24.14-1.04-10.08,12.43,1.53,22.27,1.53,22.27,10.7,7.26,20.94,11.85,27.46,14.38l.24-.62c.19-.45.28-.76.39-1.14l.17-.56c.08-.24.17-.48.28-.71,1.32-2.74,4.8-4.1,8.46-3.29,2.15.48,3.96,1.75,4.98,3.49.89,1.53,1.1,3.28.57,4.99l-.18.58c-.06.18-.14.44-.23.7,8.99.39,22.01-1.07,35.47-6.18,0,0,8.01-2.51,11.44-14.13,1.5-5.07,1.79-17.83-10.35-20.99-12.14-3.17-20.11,6.57-20.11,6.57,7.06-9.88,4.61-21.38-3.12-27.95-6.57-5.57-18.58-7.54-26.94,1.59"/>
    <path class="cls-5" d="M219.32,316.16s15.53,6.27,35.94,6.27c27.81,0,41.92-6.84,41.92-6.84l-3.34-12.61-27.04-5.17-44.88,6.27-2.6,12.08Z"/>
    <path class="cls-3" d="M322.58,315.46c-.68-.04-1.37-.11-2.07-.15-.79-.05-1.43.22-1.93.67-3.3.46-6.58.99-9.85,1.58-13.08-.7-26.23.11-38.83,3.13-1.11.24-1.81,1.1-2.09,2.08-.26.03-.49.08-.73.11.09-.39.19-.78.28-1.18.75-2.84,1.54-5.22,2.6-7.87,1.05-2.39,1.27-4.73,2.33-6.9,1.34-2.91,3.83-4.73,5.18-7.42,1.6-3.13.95-5.85,1.42-8.92.97-5.15,4.8-10.11,5.77-15.29.77-2.85,1.24-5.44,2.02-8.27.75-3.08.66-5.6,1.7-8.71,1.6-3.62,2.64-6.95,6.53-9.6l.3.2c1.05-2.41,4.42-4.09,6.77-1.99,1.17.82,1.83,3.77,1.86,5.15.41,3.66,2.76,5.75,5.41,8.51,3.21,2.72,4.48,6.53,5.45,10.16.68,3.62.52,7.55,1.2,11.2.33,1.58.69,3.42,1.02,4.99.33,1.8,1.21,1.96,2.65,2.99,1.76,1.23,2.09,2.82,2.7,4.6.65,1.79,1.81,2.39,3.27,3.63,2.33,1.88,5.27,4.6,5.92,7.56.64,1.79.42,3.66,1.32,5.42.91,1.98,2.58,1.85,4.58,3.02-4.93.24-9.87.68-14.79,1.27"/>
    <path class="cls-3" d="M286.41,241.79c-.51,1.29-.11,3.35,1.25,4.53,1.56,1.48,4.22.9,6.3,1.08,3.32.13,6.36.13,9.34.4,3.06.01,6.44-.08,8.48-2.09,1.58-1.66,1.61-4.79.33-6.92-1.58-2.94-4.96-1.38-7.65-.81-3.22.41-6.27.38-9.49.78-2.24.24-8.35.18-8.73,2.72l.17.3Z"/>
    <path class="cls-3" d="M195.89,315.46c.68-.04,1.37-.11,2.07-.15.79-.05,1.43.22,1.93.67,3.3.46,6.58.99,9.85,1.58,13.08-.7,26.23.11,38.83,3.13,1.11.24,1.81,1.1,2.09,2.08.26.03.49.08.73.11-.09-.39-.19-.78-.28-1.18-.75-2.84-1.54-5.22-2.6-7.87-1.05-2.39-1.27-4.73-2.33-6.9-1.34-2.91-3.83-4.73-5.18-7.42-1.6-3.13-.95-5.85-1.42-8.92-.97-5.15-4.8-10.11-5.77-15.29-.77-2.85-1.24-5.44-2.02-8.27-.75-3.08-.66-5.6-1.7-8.71-1.6-3.62-2.64-6.95-6.53-9.6l-.3.2c-1.05-2.41-4.42-4.09-6.77-1.99-1.17.82-1.84,3.77-1.86,5.15-.41,3.66-2.76,5.75-5.41,8.51-3.21,2.72-4.48,6.53-5.45,10.16-.68,3.62-.52,7.55-1.2,11.2-.33,1.58-.69,3.42-1.02,4.99-.33,1.8-1.21,1.96-2.65,2.99-1.76,1.23-2.09,2.82-2.7,4.6-.64,1.79-1.81,2.39-3.27,3.63-2.33,1.88-5.27,4.6-5.92,7.56-.64,1.79-.42,3.66-1.32,5.42-.91,1.98-2.58,1.85-4.58,3.02,4.93.24,9.87.68,14.79,1.27"/>
    <path class="cls-3" d="M232.05,241.79c.51,1.29.11,3.35-1.25,4.53-1.56,1.48-4.22.9-6.3,1.08-3.32.13-6.36.13-9.34.4-3.06.01-6.44-.08-8.48-2.09-1.58-1.66-1.61-4.79-.33-6.92,1.58-2.94,4.96-1.38,7.65-.81,3.22.41,6.28.38,9.49.78,2.24.24,8.35.18,8.73,2.72l-.17.3Z"/>
    <path class="cls-6" d="M290.43,261.89c-.46-1.68-1.85-3.07-2.46-4.74-.46-.91-.93-1.83-.93-2.9,0-.78.3-1.52,0-2.3-.31-.92-1.08-1.66-1.39-2.74-.31-.64-.48-1.4-.62-2.16-.31-.91-.93-1.68-1.23-2.59-.15-.92,0-1.99.15-2.77.46-2.28-.77-3.81-2.01-5.5-1.39-2.14-3.08-3.97-3.85-6.42-.78-2.44-1.41-4.75-2.31-7.03-.32-.77-.63-1.53-.94-2.3-.29-.92-.29-1.68-.47-2.6-.29-.91-1.05-1.82-1.38-2.74-.47-1.07-.47-2.15-.76-3.21-.31-.91-.93-1.84-.93-2.75,0-.78.31-1.53.31-2.31,0-1.52-.76-3.83-1.37-5.18-.95-1.69-2.8-4.14-4.49-4.9-1.86-.91-3.71,0-5.1,1.08-1.07.76-1.07,1.07-1.53,2.27-.46.93-1.24,1.69-1.7,2.61-.62.91-.78,1.98-1.24,2.89-.62,1.09-1.53,2.01-2.46,2.76-1.85,1.69-3.09,3.07-4.33,5.2-1.24,2.46-2.77,4.75-4.15,7.19-1.69,2.91-2.94,5.97-4.34,8.87-.75,1.83-1.83,3.52-2.6,5.36-1.24,2.44-1.24,5.5-2.48,8.1-.93,1.83-2.16,3.67-3.08,5.65-1.4,2.9,0,5.81-1.85,8.4-1.39,1.98-3.1,3.52-4.17,5.65-1.23,2.46-2.47,5.06-2.77,7.81-.17,1.83.62,4.89-.32,6.58-1.07,1.68-2.16,3.21-2.46,5.35-.47,2.59-1.09,5.04-1.85,7.64-1.55,5.03-2.31,9.93-3.39,14.98-.46,2.13-.93,3.97-1.7,5.97-.46,1.22-.92,2.28-1.08,3.51-.16.61-.16,1.21-.29,1.83l.6-.15c-.15.45-.93.76-.93,1.22,0,.31,1.08,1.23,1.39,1.38,1.08,1.06,2.63,2.45,4.33,2.6,1.39.14,2.77-.77,4.32-.63,1.55.31,2.94,1.08,4.48,1.53,2.01.62,4.16.46,6.17.3,13.86-1.36,28.05-.76,41.93-.76,10.01,0,20.21.46,30.07-1.39,1.4-.29,2.77-.6,4.17-.6.46-.15,1.23,0,1.69-.15.46-.15.62-.3.78-.92.15-.92-.62-1.84-1.09-2.6-1.07-1.84-1.38-3.83-1.99-5.66-.79-2.13-2.16-3.37-3.72-4.9-2.3-2.45-5.08-4.74-6.45-7.8-.47-1.21-.93-2.28-1.7-3.2-.92-.91-2-1.53-2.32-2.91-.29-.92,0-1.99-.29-2.91-.46-1.52-3.26-25.5-3.86-27.05"/>
    <path class="cls-6" d="M258.1,198.64c-1.56.27-2.45.82-3.49-.6-.52-.69-.83-2.42-1.68-2.66-1.07-.42-2.24.78-3.17.14-.64-.28-.52-.7-1.13-.79-.62-.11-1.37.22-1.95.34-1.55.25-2.44-.39-3.29-1.62-1.19-2.37.45-5.43,2.4-6.95,2.5-1.63,5.54-2.54,8.35-3.61,3.59-1.23,7.43-2.07,11.11-2.72,2.13-.36,5.24-.9,7.02.18,2.25,1.4,5.02,4.69,5.45,7.18,1.6,8.04-12.99,10.16-18.43,11.1h-1.2Z"/>
    <path class="cls-6" d="M0,347.2s109.19-20.03,255.15-20.96c145.96.93,255.15,20.96,255.15,20.96-91.78-28.49-179.3-37.88-255.15-37.79-75.84-.09-163.37,9.3-255.15,37.79"/>
    <path class="cls-3" d="M481.44,445.75c.73,0,1.34.26,1.86.77.51.51.76,1.14.76,1.89,0,.7-.25,1.3-.76,1.82-.51.51-1.13.76-1.86.76-.69,0-1.29-.25-1.82-.74-.53-.5-.79-1.11-.79-1.84s.26-1.37.77-1.89c.51-.51,1.13-.77,1.84-.77M483.35,457.45v19.76h-3.8v-19.76h3.8ZM444.89,449.55l-3.15,1.9c-1.21-1.99-2.91-2.99-5.11-2.99-1.34,0-2.55.42-3.66,1.27-1.1.85-1.66,1.93-1.66,3.23,0,1.89,1.48,3.4,4.43,4.55l2.29.89c2.57,1.01,4.53,2.24,5.87,3.69,1.34,1.45,2.02,3.41,2.02,5.88,0,1.86-.44,3.54-1.34,5.07-.89,1.52-2.12,2.71-3.66,3.57-1.55.86-3.27,1.29-5.19,1.29-1.7,0-3.26-.38-4.66-1.14-1.4-.76-2.55-1.82-3.45-3.17-.9-1.35-1.48-2.89-1.72-4.6l4.01-.84c0,1.13.27,2.15.8,3.07s1.29,1.65,2.24,2.17c.96.53,2,.79,3.12.79s2.13-.27,3.01-.82c.89-.55,1.58-1.31,2.1-2.27.51-.97.76-2.01.76-3.1,0-1.52-.49-2.73-1.46-3.62-.97-.89-2.32-1.7-4.02-2.41l-2.2-.93c-2.16-.91-3.85-1.96-5.08-3.17-1.23-1.2-1.84-2.84-1.84-4.88,0-1.63.43-3.08,1.29-4.32.87-1.25,2.03-2.21,3.48-2.89,1.46-.68,2.99-1.02,4.6-1.02,1.79,0,3.38.41,4.77,1.25,1.39.84,2.53,2.02,3.41,3.56ZM376.74,477.21v-31.84h17.1v3.63h-13.13v8.91h12.77v3.63h-12.77v12.04h13.13v3.63h-17.1ZM330.83,463.35l-10.43-17.98h4.59l7.85,13.62,7.81-13.6h4.54s-10.39,17.97-10.39,17.97v13.86h-3.97v-13.86h0ZM286.45,445.75c.73,0,1.34.26,1.86.77.51.51.76,1.14.76,1.89,0,.7-.25,1.3-.76,1.82-.51.51-1.13.76-1.86.76-.69,0-1.3-.25-1.82-.74-.53-.5-.8-1.11-.8-1.84s.26-1.37.77-1.89c.51-.51,1.13-.77,1.84-.77ZM288.35,457.45v19.76h-3.8v-19.76h3.8ZM230.83,449v24.58h1.38c1.11,0,2.12-.05,3.02-.14.9-.1,1.84-.27,2.84-.51s1.86-.52,2.6-.84c.4-.16.77-.34,1.11-.53s.73-.44,1.13-.72c1.37-.94,2.44-2.22,3.24-3.84.8-1.6,1.2-3.51,1.2-5.71,0-2.93-.66-5.3-1.99-7.12-1.32-1.82-3.13-3.14-5.42-3.95-2.29-.81-4.86-1.22-7.72-1.22h-1.38ZM226.86,477.21v-31.84h6.6c2.45,0,4.77.33,6.95.99,1.15.34,2.17.75,3.07,1.2.89.46,1.77,1.04,2.64,1.75,1.61,1.27,2.87,2.91,3.79,4.91.46.99.82,2.05,1.05,3.19.23,1.13.35,2.36.35,3.7,0,2.62-.45,4.96-1.36,7.01-.46,1-1,1.93-1.63,2.78-.63.86-1.35,1.62-2.15,2.29-.8.67-1.68,1.25-2.62,1.75-.95.49-1.99.92-3.13,1.27-2.17.66-4.53.99-7.07.99h-6.48ZM176.35,477.21v-31.84h17.1v3.63h-13.13v8.91h12.77v3.63h-12.77v12.04h13.13v3.63h-17.1ZM135.2,445.37v28.21h9.67v3.63h-13.64v-31.84h3.97ZM80.38,477.21v-31.84h17.1v3.63h-13.13v8.91h12.77v3.63h-12.77v12.04h13.13v3.63h-17.1ZM32.56,448.92v10.56h1.01c1.4,0,2.59-.13,3.58-.4.98-.27,1.77-.8,2.38-1.6.27-.37.49-.84.65-1.4.16-.57.24-1.2.24-1.92,0-1.4-.29-2.48-.87-3.24-.58-.77-1.37-1.29-2.33-1.57-.97-.28-2.16-.42-3.56-.42h-1.09ZM32.56,462.64v11.02h3.03c2.15,0,3.95-.42,5.38-1.27,1.43-.84,2.15-2.29,2.15-4.36s-.79-3.37-2.39-4.18c-1.59-.81-3.5-1.22-5.71-1.22h-2.46ZM28.59,477.21v-31.84h3.9c2.25,0,4.22.24,5.9.72,1.69.48,3.06,1.36,4.14,2.67,1.07,1.3,1.6,3.08,1.6,5.33,0,1.24-.31,2.44-.94,3.59-.63,1.15-1.45,1.98-2.48,2.46v.08c1.22.22,2.32.72,3.28,1.52.96.8,1.72,1.79,2.27,2.96.55,1.18.82,2.37.82,3.6,0,2.01-.51,3.67-1.51,5-1.01,1.32-2.37,2.31-4.05,2.95-1.69.64-3.52.96-5.48.96h-7.45Z"/>
    <path class="cls-3" d="M445.5,369.44v10.5h1.56c2.26,0,4.05-.34,5.38-1.01,1.34-.68,2.01-2.07,2.01-4.14s-.61-3.61-1.86-4.31c-1.24-.7-3.04-1.04-5.36-1.04h-1.72ZM423.5,414.41v-61.87h27.16c3.61,0,6.99.4,10.12,1.2,3.15.79,5.85,2.04,8.14,3.72,2.28,1.68,4.1,3.94,5.47,6.78,1.35,2.83,2.04,6.09,2.04,9.77,0,4.57-.92,8.04-2.76,10.41s-4.91,4.27-9.22,5.7v.49c1.76,1.35,3.02,2.59,3.78,3.68l13.46,20.12h-25.93l-9.86-19.86h-.4v19.86h-21.99ZM402.35,347.2c3.34,0,6.11.93,8.32,2.79,2.2,1.85,3.3,4.31,3.3,7.39,0,3.36-1.12,5.92-3.38,7.66s-5.01,2.6-8.23,2.6c-2.07,0-3.97-.36-5.73-1.08s-3.2-1.85-4.29-3.39c-1.09-1.53-1.64-3.46-1.64-5.78,0-3.02,1.09-5.47,3.27-7.34,2.17-1.89,4.98-2.83,8.4-2.83ZM391.72,414.41v-43.57h21.2v43.57h-21.2ZM324.09,414.41v-61.87h21.66v20.84h13.79v-20.84h21.69v61.87h-21.69v-21.51h-13.79v21.51h-21.66ZM272.57,414.41v-61.87h41.59v16.9h-18.96v5.91h17.32v16.08h-17.32v6.07h19.64v16.9h-42.27ZM234.41,435.32l-8.29-7.18,13.02-11.93,7.89,6.7-12.62,12.41ZM215.26,409.77l6.89-17.52,1.16.88c4.91,3.79,9.59,5.69,14.02,5.69,1.39,0,2.69-.3,3.92-.92s1.85-1.56,1.85-2.8c0-1.15-.4-1.93-1.2-2.31s-2.07-.77-3.8-1.14l-4.53-.81c-4.73-.85-8.6-2.65-11.62-5.4-3.02-2.75-4.53-6.43-4.53-11.02s1.24-8.7,3.75-12.16c2.49-3.45,5.83-6.1,10-7.95,4.16-1.85,8.52-2.76,13.06-2.76,7.07,0,13.62,1.8,19.63,5.4l-6.09,15.82c-4.6-3.1-8.93-4.65-13.02-4.65-1.26,0-2.38.26-3.36.77s-1.48,1.35-1.48,2.53c0,.93.36,1.59,1.08,1.96l1.68.57,1.72.48,5.09,1.16c10.94,2.46,16.43,8.37,16.43,17.74,0,4.68-1.26,8.68-3.77,12.03-2.5,3.34-5.81,5.87-9.93,7.56-4.12,1.7-8.49,2.54-13.14,2.54-1.96,0-3.91-.12-5.89-.35-1.97-.25-4.06-.63-6.26-1.18-2.2-.53-4.25-1.14-6.15-1.8-1.9-.67-3.72-1.46-5.48-2.37ZM190,352.54h23.45l-23.96,61.87h-19.04l-23.96-61.87h23.47l8.21,28.13c1.04,3.49,1.56,6.55,1.56,9.18h.49c0-2.54.52-5.61,1.56-9.18l8.22-28.13ZM100.15,414.41v-61.87h41.59v16.9h-18.96v5.91h17.32v16.08h-17.32v6.07h19.64v16.9h-42.27ZM28.59,414.41v-61.87h21.6l20.15,34.3h.68c-.29-1.74-.56-3.38-.79-4.92-.11-.78-.31-2.37-.63-4.77-.3-2.41-.45-4.43-.45-6.09v-18.52h21.47v61.87h-21.47l-19.8-32.49h-.64c.94,5.53,1.41,9.66,1.41,12.38v20.12h-21.51Z"/>
  </g>
</svg>