<?xml version="1.0" encoding="iso-8859-1"?>
<!-- Generator: Adobe Illustrator 29.7.1, SVG Export Plug-In . SVG Version: 9.03 Build 0)  -->
<svg version="1.1" id="Layer_1" xmlns="http://www.w3.org/2000/svg" xmlns:xlink="http://www.w3.org/1999/xlink" x="0px" y="0px"
	 viewBox="0 0 841.89 1190.551" style="enable-background:new 0 0 841.89 1190.551;" xml:space="preserve">
<path style="fill-rule:evenodd;clip-rule:evenodd;fill:#19AFAE;" d="M293.984,623.625c22.145,1.721,49.243-0.938,61.695,18.764
	l-4.431,9.348c-3.399-5.818-7.06-10.164-10.954-13.208C329.031,629.725,310.008,633.318,293.984,623.625"/>
<path style="fill:#19AFAE;" d="M282.237,565.193c3.358-3.412,6.955-6.712,9.265-10.906c2.311-4.193,2.942-8.354,0.517-12.48
	c0.116,4.564-2.358,8.836-5.441,12.207c-3.086,3.369-6.81,6.093-9.998,9.363c-4.056,4.158-4.209,3.93-6.602,8.872
	c-0.973,2.633-15.785,0.923-18.474-4.932c-1.583-0.105-5.229,10.817-5.229,10.817c-1.773,5.229-1.66,11.077,0.308,16.236
	c0.346,0.901,0.748,1.806,0.774,2.767c0.023,0.915-0.285,1.812-0.28,2.726c0.899,2.388,2.17,5.149,3.464,7.756
	c0.114,0.212,0.216,0.426,0.34,0.635c-0.036-0.069-0.082-0.13-0.121-0.194c2.337,4.669,4.625,8.679,4.625,8.679
	c2.159,3.179,3.73,6.759,4.556,10.513c2.544-0.435,4.662-3.445,5.225-5.966c0.567-2.521-0.526-5.331-2.64-6.808
	c-0.997-0.699-2.23-1.159-2.861-2.201c-0.214-0.353-0.337-0.748-0.446-1.152l-2.382-3.835c-0.944-1.364-1.131-3.125-1.28-4.789
	c-0.48-5.267-0.959-10.53-1.434-15.796c4.832-0.005,8.612,4.122,11.141,8.242c2.528,4.118,4.704,8.799,8.85,11.282
	c2.874,1.72,6.327,2.138,9.672,2.346c7.859,0.487,16.762-0.433,21.776-6.505c-6.226,2.027-12.556,3.699-18.987,2.464
	c-6.427-1.237-12.582-6.049-13.448-12.537C271.698,581.333,274.907,572.635,282.237,565.193"/>
<path style="fill-rule:evenodd;clip-rule:evenodd;fill:#19AFAE;" d="M321.473,548.839c-3.491,8.34-4.051,19.335,0.669,27.324
	c7.996,13.527,14.445,16.352,23.082,20.868v-5.123C330.187,581.497,318.098,566.959,321.473,548.839"/>
<path style="fill-rule:evenodd;clip-rule:evenodd;fill:#19AFAE;" d="M278.405,609.637c24.632,13.955,48.608-6.913,69.381,12.602
	l3.462,10.386C327.107,609.28,292.297,628.744,278.405,609.637"/>
<path style="fill-rule:evenodd;clip-rule:evenodd;fill:#19AFAE;" d="M304.235,501.744c6.95-2.366,8.142-7.062,8.04-17.795
	c-6.811,7.268-18.341,6.394-16.352,17.783c2.233-5.296,6.055-7.876,12.209-9.515C308.695,496.345,307.029,498.997,304.235,501.744"
	/>
<path style="fill-rule:evenodd;clip-rule:evenodd;fill:#19AFAE;" d="M294.871,493.941c-9.933-3.952-13.388,4.317-6.719,10.61
	c10.812,10.204,20.969,12.054,20.384,29.855c5.106-10.464-1.26-21.056-9.771-27.294l-7.276-5.447
	C285.904,497.485,289.065,494.72,294.871,493.941"/>
<path style="fill-rule:evenodd;clip-rule:evenodd;fill:#19AFAE;" d="M284.478,502.049c-0.566-1.06-0.871-1.878-1.003-3.377
	c-6.28,6.932-14.674,14.441-23.3,21.417c-3.288,2.659-4.147,4.664-0.988,8.432c-2.65,7.095,5.585,9.984,10.427,7.715
	c1.095-0.513,1.284-1.695,2.165-2.874c1.208-1.614,4.905-2.529,7.501-3.104c3.485-0.773,6.318,3.045,11.792,1.797l0.73,8.089
	c1.736-2.648,2.527-5.312,2.456-9.053c3.937-1.21,5.317-4.557,5.471-8.108c-3.858,5.063-11.639,6.731-17.193,3.422
	c-3.198-1.909-10.17,1.604-13.358,5.304c-1.271,1.474-0.715,1.728-2.877,2.183c-2.289,0.48-3.957-0.233-4.935-2.397
	c-0.496-1.098-0.42-0.879,0.148-1.806c1.51-2.47-4.573-4.737-0.465-7.84C268.79,516.003,276.892,510.826,284.478,502.049"/>
<path style="fill-rule:evenodd;clip-rule:evenodd;fill:#19AFAE;" d="M284.315,510.163c2.308,0.468,5.038-0.585,6.465-1.67
	l-4.814-1.728c-1.649-0.592-1.241-0.51-2.74,0.503c-2.439,1.65-5.342,3.748-8.287,6.19
	C278.961,512.186,281.199,509.531,284.315,510.163"/>
<path style="fill-rule:evenodd;clip-rule:evenodd;fill:#19AFAE;" d="M261.592,526.165c0.152-0.826,0.7-1.111,0.184-2.152
	c-0.427-0.862,0.331-1.879,1.264-2.114c0.932-0.234,1.879,0.331,2.113,1.264C265.65,525.136,263.004,525.619,261.592,526.165"/>
<path style="fill-rule:evenodd;clip-rule:evenodd;fill:#19AFAE;" d="M320.038,524.259c-2.989-7.057-7.287-12.808-12.574-17.569
	c15.188,3.348,10.923,16.981,30.315,23.942c-3.69,0.531-7.447,0.389-11.368-1.378c1.523,2.576,2.611,5.234,2.584,8.268
	c-1.094-2.061-2.496-3.481-4.221-4.221c1.797,6.858,4.661,13.323,9.56,19.034c-1.991-0.338-4.441-2.247-7.235-5.339
	c1.742,5.801,4.575,11.538,8.268,17.224c-6.297-5.178-10.556-14.027-14.339-25.191l1.65,0.342
	c-1.989-6.063-3.519-11.981-7.463-17.007C316.938,523.164,318.569,523.786,320.038,524.259"/>
<path style="fill-rule:evenodd;clip-rule:evenodd;fill:#19AFAE;" d="M547.906,623.625c-22.145,1.721-49.243-0.938-61.695,18.764
	l4.43,9.348c3.399-5.818,7.061-10.164,10.954-13.208C512.859,629.725,531.882,633.318,547.906,623.625"/>
<path style="fill:#19AFAE;" d="M559.653,565.193c-3.359-3.412-6.955-6.712-9.266-10.906c-2.311-4.193-2.942-8.354-0.517-12.48
	c-0.116,4.564,2.359,8.836,5.441,12.207c3.086,3.369,6.81,6.093,9.998,9.363c4.056,4.158,4.209,3.93,6.602,8.872
	c0.973,2.633,15.785,0.923,18.474-4.932c1.583-0.105,5.229,10.817,5.229,10.817c1.772,5.229,1.66,11.077-0.308,16.236
	c-0.346,0.901-0.747,1.806-0.774,2.767c-0.023,0.915,0.285,1.812,0.279,2.726c-0.899,2.388-2.17,5.149-3.464,7.756
	c-0.114,0.212-0.216,0.426-0.341,0.635c0.036-0.069,0.082-0.13,0.121-0.194c-2.337,4.669-4.625,8.679-4.625,8.679
	c-2.159,3.179-3.729,6.759-4.555,10.513c-2.544-0.435-4.662-3.445-5.225-5.966c-0.567-2.521,0.526-5.331,2.64-6.808
	c0.997-0.699,2.23-1.159,2.862-2.201c0.214-0.353,0.337-0.748,0.446-1.152l2.382-3.835c0.944-1.364,1.13-3.125,1.28-4.789
	c0.48-5.267,0.959-10.53,1.434-15.796c-4.832-0.005-8.612,4.122-11.141,8.242c-2.529,4.118-4.704,8.799-8.85,11.282
	c-2.874,1.72-6.328,2.138-9.672,2.346c-7.858,0.487-16.762-0.433-21.776-6.505c6.226,2.027,12.557,3.699,18.988,2.464
	c6.427-1.237,12.582-6.049,13.448-12.537C570.192,581.333,566.983,572.635,559.653,565.193"/>
<path style="fill-rule:evenodd;clip-rule:evenodd;fill:#19AFAE;" d="M520.417,548.839c3.491,8.34,4.051,19.335-0.669,27.324
	c-7.996,13.527-14.445,16.352-23.082,20.868v-5.123C511.703,581.497,523.792,566.959,520.417,548.839"/>
<path style="fill-rule:evenodd;clip-rule:evenodd;fill:#19AFAE;" d="M563.485,609.637c-24.632,13.955-48.609-6.913-69.381,12.602
	l-3.463,10.386C514.784,609.28,549.594,628.744,563.485,609.637"/>
<path style="fill-rule:evenodd;clip-rule:evenodd;fill:#19AFAE;" d="M537.655,501.744c-6.95-2.366-8.141-7.062-8.04-17.795
	c6.811,7.268,18.341,6.394,16.352,17.783c-2.233-5.296-6.055-7.876-12.208-9.515C533.195,496.345,534.861,498.997,537.655,501.744"
	/>
<path style="fill-rule:evenodd;clip-rule:evenodd;fill:#19AFAE;" d="M547.019,493.941c9.933-3.952,13.388,4.317,6.719,10.61
	c-10.812,10.204-20.968,12.054-20.385,29.855c-5.106-10.464,1.26-21.056,9.771-27.294l7.276-5.447
	C555.986,497.485,552.825,494.72,547.019,493.941"/>
<path style="fill-rule:evenodd;clip-rule:evenodd;fill:#19AFAE;" d="M557.412,502.049c0.565-1.06,0.871-1.878,1.003-3.377
	c6.281,6.932,14.674,14.441,23.3,21.417c3.288,2.659,4.147,4.664,0.989,8.432c2.649,7.095-5.585,9.984-10.427,7.715
	c-1.094-0.513-1.284-1.695-2.165-2.874c-1.208-1.614-4.904-2.529-7.501-3.104c-3.485-0.773-6.317,3.045-11.792,1.797l-0.729,8.089
	c-1.736-2.648-2.527-5.312-2.456-9.053c-3.937-1.21-5.317-4.557-5.471-8.108c3.858,5.063,11.639,6.731,17.193,3.422
	c3.198-1.909,10.17,1.604,13.358,5.304c1.271,1.474,0.714,1.728,2.877,2.183c2.29,0.48,3.957-0.233,4.935-2.397
	c0.496-1.098,0.42-0.879-0.148-1.806c-1.51-2.47,4.573-4.737,0.465-7.84C573.1,516.003,564.998,510.826,557.412,502.049"/>
<path style="fill-rule:evenodd;clip-rule:evenodd;fill:#19AFAE;" d="M557.575,510.163c-2.308,0.468-5.037-0.585-6.465-1.67
	l4.814-1.728c1.649-0.592,1.241-0.51,2.74,0.503c2.439,1.65,5.342,3.748,8.287,6.19
	C562.929,512.186,560.691,509.531,557.575,510.163"/>
<path style="fill-rule:evenodd;clip-rule:evenodd;fill:#19AFAE;" d="M580.298,526.165c-0.153-0.826-0.7-1.111-0.184-2.152
	c0.427-0.862-0.331-1.879-1.264-2.114c-0.932-0.234-1.879,0.331-2.113,1.264C576.24,525.136,578.886,525.619,580.298,526.165"/>
<path style="fill-rule:evenodd;clip-rule:evenodd;fill:#19AFAE;" d="M521.852,524.259c2.989-7.057,7.287-12.808,12.573-17.569
	c-15.188,3.348-10.923,16.981-30.315,23.942c3.69,0.531,7.447,0.389,11.368-1.378c-1.523,2.576-2.611,5.234-2.584,8.268
	c1.094-2.061,2.496-3.481,4.22-4.221c-1.797,6.858-4.661,13.323-9.56,19.034c1.991-0.338,4.44-2.247,7.235-5.339
	c-1.742,5.801-4.574,11.538-8.268,17.224c6.297-5.178,10.555-14.027,14.339-25.191l-1.649,0.342
	c1.989-6.063,3.519-11.981,7.463-17.007C524.952,523.164,523.321,523.786,521.852,524.259"/>
<path style="fill:#ED1C26;" d="M388.071,653.578l-0.448,0.577c-0.339-0.339-0.664-0.685-0.98-1.036L388.071,653.578z
	 M354.793,660.446l-0.02-0.029c-1.172-1.639-2.346-3.419-3.487-5.351c-3.061-5.176-5.851-11.457-7.58-18.673
	c-1.919-7.125-3.459-15.076-3.618-23.608c-0.227-8.508,0.737-17.562,3.165-26.521c2.339-8.987,5.8-17.914,9.357-26.855
	c3.619-8.901,6.809-18.09,9.859-27.378c6.232-18.475,11.763-37.256,14.211-55.3c1.163-9.016,1.629-17.804,0.737-26.034
	c-0.955-8.252-2.858-15.966-5.289-22.797c-2.514-6.812-5.657-12.732-8.996-17.61c-3.337-4.885-6.837-8.73-9.871-11.723
	c-7.84-7.739-15.084-12.531-25.586-16.372c11.374,3.559,23.677,11.206,32.08,19.836l3.434,3.317l3.188,3.549
	c2.193,2.312,4.063,4.894,6.054,7.378c1.969,2.503,3.654,5.212,5.495,7.81c1.624,2.739,3.343,5.432,4.844,8.244
	c1.392,2.867,3.034,5.622,4.189,8.607l1.874,4.413c0.617,1.472,1.059,3.017,1.596,4.523c2.176,6.029,3.396,12.348,4.29,18.788
	c0.206,1.599,0.21,3.162,0.327,4.744l0.134,2.365l0.065,1.258l-0.023,1.194c-0.074,3.186-0.052,6.379-0.306,9.552l-0.292,4.766
	l-0.46,4.749c-0.266,3.17-0.724,6.31-1.114,9.465c-0.848,6.294-1.89,12.554-3.024,18.789c-1.188,6.221-2.452,12.426-3.759,18.611
	c-2.582,12.377-5.325,24.706-7.41,37.122c-1.069,6.223-1.908,12.371-2.531,18.693c-0.522,6.189-0.84,12.475-0.269,18.687
	c0.522,6.213,1.674,12.381,3.67,18.281c2.014,5.844,4.891,11.591,8.915,16.148l0.044,0.048c0.269,0.304,0.24,0.772-0.066,1.041
	c-0.249,0.221-0.609,0.242-0.88,0.074c-0.621-0.388-1.37-0.744-2.096-1.033c-0.735-0.291-1.491-0.548-2.263-0.708
	c-0.768-0.189-1.556-0.286-2.339-0.313c-0.786-0.05-1.561,0.049-2.339,0.148c-0.752,0.207-1.527,0.363-2.22,0.738
	c-0.341,0.124-0.654,0.3-0.958,0.496c-0.338,0.238-0.666,0.497-0.993,0.724c-0.572,0.562-1.196,1.093-1.671,1.718
	c-0.393,0.587-1.042,1.13-1.328,1.76c-0.346,0.726-0.906,1.396-1.146,2.188l-0.845,2.405c-0.281,0.715-0.288,1.593-0.441,2.335
	l-0.181,1.182l0.018,1.192c0.027,0.782-0.035,1.613,0.132,2.395c0.146,0.761-0.032,1.693,0.209,2.422
	c0.381,1.558,0.93,3.078,1.678,4.497l1.485,2.817l-2.471-2.008c-0.893-0.722-1.768-1.532-2.593-2.302
	c-1.097-0.969-2.173-1.911-3.183-2.976c-0.632-0.667-1.28-1.32-1.938-2.011c-0.637-0.744-1.237-1.519-1.875-2.264
	C358.374,665.309,356.5,662.941,354.793,660.446z M387.524,652.475c0.332,0.154,0.664,0.323,1.001,0.518l-0.294,0.38
	L387.524,652.475z"/>
<path style="fill:#ED1C26;" d="M453.818,653.578l0.448,0.577c0.339-0.339,0.664-0.685,0.98-1.036L453.818,653.578z M487.096,660.446
	l0.02-0.029c1.172-1.639,2.346-3.419,3.487-5.351c3.061-5.176,5.851-11.457,7.58-18.673c1.919-7.125,3.459-15.076,3.618-23.608
	c0.227-8.508-0.736-17.562-3.165-26.521c-2.339-8.987-5.8-17.914-9.357-26.855c-3.619-8.901-6.809-18.09-9.859-27.378
	c-6.232-18.475-11.764-37.256-14.212-55.3c-1.163-9.016-1.629-17.804-0.737-26.034c0.956-8.252,2.858-15.966,5.289-22.797
	c2.514-6.812,5.657-12.732,8.996-17.61c3.337-4.885,6.837-8.73,9.871-11.723c7.84-7.739,15.084-12.531,25.586-16.372
	c-11.374,3.559-23.677,11.206-32.08,19.836l-3.433,3.317l-3.188,3.549c-2.193,2.312-4.063,4.894-6.054,7.378
	c-1.969,2.503-3.654,5.212-5.495,7.81c-1.624,2.739-3.343,5.432-4.844,8.244c-1.392,2.867-3.034,5.622-4.189,8.607l-1.874,4.413
	c-0.617,1.472-1.058,3.017-1.596,4.523c-2.177,6.029-3.395,12.348-4.29,18.788c-0.206,1.599-0.21,3.162-0.328,4.744l-0.134,2.365
	l-0.064,1.258l0.023,1.194c0.074,3.186,0.052,6.379,0.306,9.552l0.293,4.766l0.46,4.749c0.266,3.17,0.723,6.31,1.114,9.465
	c0.848,6.294,1.891,12.554,3.024,18.789c1.188,6.221,2.452,12.426,3.759,18.611c2.581,12.377,5.325,24.706,7.41,37.122
	c1.069,6.223,1.908,12.371,2.531,18.693c0.521,6.189,0.84,12.475,0.269,18.687c-0.522,6.213-1.674,12.381-3.671,18.281
	c-2.014,5.844-4.891,11.591-8.915,16.148l-0.044,0.048c-0.269,0.304-0.24,0.772,0.066,1.041c0.25,0.221,0.609,0.242,0.88,0.074
	c0.62-0.388,1.37-0.744,2.096-1.033c0.734-0.291,1.491-0.548,2.262-0.708c0.768-0.189,1.556-0.286,2.339-0.313
	c0.786-0.05,1.561,0.049,2.339,0.148c0.752,0.207,1.527,0.363,2.22,0.738c0.341,0.124,0.655,0.3,0.958,0.496
	c0.338,0.238,0.666,0.497,0.992,0.724c0.572,0.562,1.197,1.093,1.67,1.718c0.393,0.587,1.042,1.13,1.328,1.76
	c0.346,0.726,0.906,1.396,1.146,2.188l0.845,2.405c0.281,0.715,0.289,1.593,0.442,2.335l0.181,1.182l-0.018,1.192
	c-0.027,0.782,0.035,1.613-0.132,2.395c-0.146,0.761,0.032,1.693-0.208,2.422c-0.381,1.558-0.93,3.078-1.678,4.497l-1.485,2.817
	l2.471-2.008c0.893-0.722,1.767-1.532,2.593-2.302c1.097-0.969,2.173-1.911,3.183-2.976c0.632-0.667,1.28-1.32,1.937-2.011
	c0.637-0.744,1.237-1.519,1.875-2.264C483.515,665.309,485.389,662.941,487.096,660.446z M454.365,652.475
	c-0.332,0.154-0.665,0.323-1.001,0.518l0.294,0.38L454.365,652.475z"/>
<path style="fill:#ED1C26;" d="M391.795,616.232c-0.903-3.498-1.792-7.749-2.544-12.638c-0.389-2.56-0.703-5.3-1.006-8.19
	c-0.192-2.898-0.494-5.946-0.499-9.135c-0.031-1.597-0.065-3.225-0.099-4.884c0.047-1.66,0.092-3.35,0.14-5.069
	c0.016-3.446,0.41-6.984,0.666-10.635c0.323-3.644,0.894-7.363,1.38-11.176c0.716-3.773,1.342-7.657,2.278-11.537
	c1.835-7.804,4.083-15.653,6.07-23.712c2.007-8.06,3.888-16.287,5.578-24.55c3.516-16.494,6.278-33.156,7.732-48.882
	c1.452-15.711,1.811-30.501,0.367-43.03c-0.711-6.261-1.765-11.948-3.103-16.888c-1.272-4.77-2.964-8.767-4.539-12.001l-0.185-0.342
	c-3.789-7.624-8.807-12.775-15.93-17.231c0,0,0.992,0.548,2.85,1.57c6.398,3.613,12.368,10.695,16.431,16.677
	c11.45,16.94,18.723,40.884,23.384,60.518c3.952,16.551,7.19,34.401,9.984,52.294c1.329,8.959,2.55,17.928,3.707,26.762
	c1.16,8.817,2.251,17.562,2.906,26.053c0.281,4.249,0.675,8.423,0.692,12.526c0.05,2.047,0.1,4.073,0.149,6.076
	c0.02,2.001-0.036,3.981-0.048,5.932c-0.031,7.805-0.554,15.176-1.152,21.954c-0.327,3.388-0.733,6.627-1.138,9.701
	c-0.524,3.061-0.9,5.979-1.468,8.686c-0.956,5.177-2.038,9.673-3.025,13.397l-0.124,0.546c-0.682,2.976-1.415,6.008-2.321,8.913
	c-0.175,0.599-0.361,1.192-0.557,1.784l-0.017,0.053l-0.026,0.049c-0.075,0.141-0.186,0.276-0.251,0.412
	c-0.079,0.164-0.124,0.362-0.193,0.535l-1.06,2.637l-0.194-2.836c-0.047-0.685-0.158-1.375-0.298-2.047
	c-0.189-0.908-0.435-1.802-0.742-2.677c-0.404-1.149-0.89-2.258-1.491-3.319c-0.719-1.271-1.541-2.473-2.526-3.554
	c-1.11-1.217-2.306-2.357-3.737-3.22l-1.109-0.708l-1.227-0.597c-0.785-0.43-1.659-0.721-2.518-0.968
	c-0.448-0.128-0.889-0.293-1.33-0.392l-2.559-0.47c-0.495-0.05-0.974-0.065-1.47-0.105c-1.821-0.149-3.649-0.012-5.435,0.184
	c-0.888,0.172-1.759,0.364-2.638,0.573c-0.826,0.3-1.652,0.6-2.477,0.903c-0.756,0.389-1.511,0.753-2.222,1.16
	c-0.67,0.481-1.346,0.932-1.98,1.424c-1.121,0.935-2.146,1.992-3.033,3.153c-1.301,1.704-2.324,3.616-3,5.652
	c-0.223,0.669-0.417,1.368-0.534,2.065l-0.398,2.375l-0.853-2.253c-0.122-0.323-0.277-0.63-0.447-0.929l-0.031-0.055l-0.02-0.059
	c-0.183-0.541-0.35-1.088-0.521-1.633c-0.854-2.725-1.526-5.573-2.136-8.361L391.795,616.232z"/>
<path style="fill-rule:evenodd;clip-rule:evenodd;fill:#FFFFFF;" d="M418.612,558.716c-0.585-0.408-1.155-0.978-1.728-1.758
	c-0.148-0.201-0.267-0.391-0.371-0.576c-1.027,0.098-1.998-0.046-3.09-0.704c-0.025,0.006-0.051,0.011-0.076,0.016l-0.159,0.029
	c-3.226,0.529-5.792-0.839-7.594-3.459l-0.172-0.249l-0.135-0.271c-2.161-4.315,0.024-9.553,3.619-12.351l0.147-0.114l0.156-0.102
	c2.887-1.877,6.007-2.821,9.178-4.03l0.14-0.051c3.819-1.309,7.804-2.205,11.778-2.892c3.296-0.57,7.046-1.085,10.056,0.765
	c3.277,2.013,6.81,6.327,7.449,10.052c0.387,1.95,0.229,3.932-0.544,5.77c-1.337,3.18-4.175,5.336-7.534,6.858
	c0.041,0.072,0.081,0.144,0.122,0.214l0.095,0.169l0.08,0.177c0.9,2.007,1.752,4.774,1.752,6.971c0,0.796-0.167,1.394-0.27,2.087
	c0.195,0.499,0.478,1.025,0.657,1.547l0.047,0.138l0.039,0.141c0.174,0.642,0.318,2.085,0.538,2.583l0.062,0.141l0.044,0.125
	c0.419,1.009,1.046,1.695,1.436,2.908l0.079,0.247l0.05,0.255c0.11,0.568,0.157,1.411,0.309,1.984
	c0.281,0.696,0.567,1.395,0.881,2.154c0.94,2.395,1.625,4.861,2.402,7.309c0.541,1.701,2.271,3.72,3.286,5.255
	c0.462,0.635,0.891,1.252,1.27,1.871c2.451-0.789,5.361-0.897,7.649-1.167c3.081-0.362,6.191-0.376,9.261-0.752
	c0.579-0.131,1.155-0.297,1.729-0.442c4.131-1.043,8.176-0.743,10.458,3.397c2.161,3.677,2.068,8.908-0.957,12.091l-0.103,0.105
	c-1.879,1.847-4.182,2.687-6.619,3.06c0.4,2.144,2.555,4.027,4.024,5.532c3.763,3.27,5.416,7.515,6.677,12.214l0.044,0.163
	l0.031,0.166c0.697,3.723,0.513,7.536,1.186,11.111c0.327,1.562,0.635,3.128,0.959,4.691c0.317,0.206,0.66,0.409,0.956,0.617
	c2.664,1.876,3.301,3.869,4.306,6.73c0.136,0.388,1.444,1.324,1.893,1.682c3.137,2.533-0.927,5.8,0.032,9.851
	c0.383,1.374-2.624,8.128-2.243,8.985c0.865,0.45,1.979,0.762,2.943,1.328l12.623,7.42l-14.625,0.712
	c-4.841,0.236,0.877-3.87-3.934-3.289l-0.405,0.049l-0.406-0.027c-0.447-0.029-0.892-0.065-1.338-0.1l-0.445,0.401l-1.33,0.183
	c-1.111,0.154-2.221,0.316-3.329,0.487c-0.607,1.571-1.73,2.662-3.43,3.207c-0.795,0.254-1.35,0.253-2.081,0.273l-0.255,0.083
	h-0.689c-1.052,0-2.243,0.297-3.271,0.512l-0.093,0.018c-8.495,1.586-17.067,1.543-25.651,1.484
	c-8.173,1.967-16.745,2.987-24.791,2.638l-5.836-0.253l0.555-1.624c-0.083-0.013-0.166-0.025-0.249-0.037l-2.823-0.385l-0.067-0.233
	c-0.531-0.04-1.065-0.085-1.603-0.133c-0.598,0.018-1.196,0.039-1.795,0.063l-0.175,0.448l-1.025-0.398
	c-3.002,0.135-6.002,0.337-8.999,0.631c-2.677,0.209-5.18,0.317-7.786-0.476c-1.19-0.362-2.516-1.031-3.711-1.345
	c-1.382,0.136-2.329,0.792-4.234,0.609c-2.619-0.252-4.74-1.719-6.589-3.467c-0.236-0.157-0.469-0.331-0.694-0.518
	c-0.198,0.01-0.396,0.02-0.593,0.03l-0.51,0.027l-0.315-0.057l-2.065,0.509l0.188-0.844c-2.652-0.462-5.311-0.884-7.977-1.251
	l-1.33-0.183l-0.445-0.401c-0.446,0.034-0.892,0.071-1.338,0.1l-0.406,0.027l-0.404-0.049c-4.812-0.58-10.22,2.28-15.061,2.044
	l-14.625-0.712l12.623-7.419c0.965-0.566,2.078-0.878,2.943-1.329c0.381-0.856,1.13-6.366,1.513-7.74
	c0.959-4.051,4.266-7.318,7.403-9.851c0.449-0.358,1.757-1.294,1.893-1.682c1.005-2.861,1.642-4.854,4.306-6.73
	c0.295-0.208,0.639-0.411,0.956-0.617c0.323-1.563,0.631-3.124,0.942-4.606c0.69-3.661,0.506-7.474,1.203-11.197l0.031-0.166
	l0.044-0.163c1.26-4.699,2.914-8.944,6.677-12.214c1.469-1.505,3.623-3.387,4.023-5.532c-2.436-0.372-4.74-1.212-6.619-3.06
	l-0.103-0.105c-3.027-3.184-3.118-8.417-0.955-12.094c0.877-1.584,2.199-2.796,3.908-3.437c3.006-1.126,5.424-0.141,8.271,0.485
	c3.073,0.378,6.185,0.391,9.267,0.753c2.824,0.332,6.595,0.419,9.281,1.843c0.249-1.027,0.558-2.068,1.061-3.096
	c0.763-1.783,1.801-3.429,2.527-5.198l0.048-0.119l0.056-0.116c1.478-3.072,2.782-6.183,4.482-9.15
	c1.333-2.326,2.837-4.588,4.04-6.981l0.062-0.124l0.07-0.12c1.452-2.482,3.042-4.287,5.158-6.216l0.086-0.079l0.092-0.075
	c0.492-0.402,1.046-0.918,1.387-1.471C418.345,559.458,418.48,559.087,418.612,558.716"/>
<path style="fill:#ED1C26;" d="M397.706,616.461c0,0,0.124-1.077,0.72-2.886c0.602-1.797,1.685-4.355,3.722-7.017
	c1.01-1.333,2.268-2.67,3.767-3.917c0.765-0.596,1.602-1.155,2.44-1.757c0.891-0.512,1.837-0.975,2.794-1.467
	c1.007-0.366,2.03-0.741,3.066-1.118c1.067-0.255,2.16-0.494,3.262-0.708c2.22-0.245,4.49-0.419,6.729-0.229
	c0.612,0.041,1.006,0.05,1.793,0.132l1.57,0.284l1.562,0.287c0.531,0.118,1.115,0.326,1.665,0.487
	c1.131,0.318,2.217,0.698,3.181,1.227l1.482,0.721l1.371,0.875c1.839,1.113,3.35,2.567,4.647,4.001
	c1.316,1.428,2.31,2.971,3.138,4.412c0.813,1.455,1.4,2.856,1.848,4.114c0.439,1.263,0.722,2.387,0.921,3.316
	c0.381,1.865,0.396,2.949,0.396,2.949s-0.345-1.027-1.134-2.703c-0.395-0.841-0.926-1.825-1.545-2.937
	c-0.653-1.093-1.446-2.278-2.366-3.508c-0.964-1.198-2.057-2.438-3.338-3.591c-0.66-0.557-1.293-1.169-2.061-1.643
	c-0.734-0.516-1.464-1.058-2.299-1.467l-1.219-0.676l-1.314-0.529c-0.876-0.401-1.768-0.656-2.659-0.904
	c-0.459-0.123-0.871-0.285-1.368-0.386l-1.566-0.253l-1.573-0.252l-1.394-0.053c-2.01-0.221-4.002-0.096-5.952,0.067
	c-0.954,0.187-1.907,0.333-2.855,0.48c-0.914,0.268-1.819,0.531-2.708,0.792c-0.851,0.368-1.687,0.728-2.507,1.081
	c-0.772,0.445-1.556,0.852-2.288,1.302c-1.411,0.976-2.712,1.985-3.814,3.05c-2.194,2.142-3.719,4.296-4.696,5.864
	C398.149,615.472,397.706,616.461,397.706,616.461"/>
<path style="fill:#ED1C26;" d="M455.092,630.672c0,0,0.852-0.439,2.471-0.899c1.614-0.439,4.027-0.961,7.004-0.747
	c1.491,0.06,3.103,0.384,4.772,0.915c1.625,0.616,3.381,1.364,4.883,2.602c0.81,0.55,1.486,1.265,2.212,1.958l0.27,0.262
	c0.281,0.319,0.198,0.242,0.317,0.385l0.424,0.539c0.276,0.372,0.55,0.716,0.823,1.127c1.129,1.956,1.963,3.909,2.319,5.946
	c0.43,2.04,0.415,4.091,0.317,6.077c-0.144,1.984-0.587,3.882-1.1,5.666c-0.534,1.783-1.248,3.434-2.01,4.94
	c-0.762,1.511-1.648,2.842-2.506,4.029c-0.909,1.155-1.769,2.181-2.653,2.98c-0.802,0.864-1.684,1.441-2.335,1.964
	c-0.665,0.509-1.289,0.785-1.658,1.023c-0.386,0.222-0.59,0.341-0.59,0.341s0.667-0.703,1.72-1.935
	c0.485-0.664,1.129-1.396,1.718-2.357c0.644-0.912,1.226-2.035,1.896-3.213c0.591-1.233,1.188-2.568,1.736-4.016
	c0.526-1.454,0.96-3.015,1.35-4.632c0.182-0.81,0.287-1.649,0.441-2.485c0.073-0.838,0.147-1.691,0.222-2.547
	c0.037-1.704,0.005-3.444-0.384-5.078c-0.23-1.691-0.931-3.226-1.551-4.514c-0.225-0.366-0.526-0.746-0.776-1.125l-0.382-0.567
	c-0.026-0.036-0.214-0.321-0.104-0.154l-0.204-0.226c-0.549-0.597-1.051-1.239-1.679-1.723c-1.162-1.081-2.494-1.876-3.805-2.57
	c-1.357-0.585-2.692-1.123-4.005-1.399c-2.61-0.632-4.94-0.704-6.568-0.702C456.042,630.55,455.092,630.672,455.092,630.672"/>
<path style="fill:#ED1C26;" d="M407.959,619.87c-8.357,9.124-5.903,22.053-5.903,22.053c-2.005-3.519-14.388-13.063-24.142-1.039
	c-10.085,12.431,1.531,22.274,1.531,22.274c10.704,7.255,20.941,11.849,27.462,14.379l0.241-0.616
	c0.187-0.446,0.277-0.759,0.386-1.138l0.167-0.556c0.078-0.245,0.17-0.482,0.281-0.711c1.322-2.742,4.801-4.099,8.461-3.294
	c2.152,0.476,3.965,1.749,4.978,3.494c0.892,1.532,1.096,3.283,0.569,4.987l-0.185,0.575c-0.056,0.181-0.141,0.439-0.229,0.698
	c8.992,0.391,22.014-1.074,35.47-6.181c0,0,8.006-2.509,11.439-14.133c1.498-5.073,1.786-17.829-10.348-20.995
	c-12.135-3.167-20.112,6.569-20.112,6.569c7.059-9.878,4.615-21.381-3.125-27.952C428.334,612.71,416.316,610.745,407.959,619.87"/>
<path style="fill:#1E9A9F;" d="M385.117,672.49c0,0,15.533,6.27,35.942,6.27c27.808,0,41.921-6.845,41.921-6.845l-3.342-12.612
	l-27.04-5.166l-44.877,6.269L385.117,672.49z"/>
<path style="fill:#19AFAE;" d="M488.377,671.792c-0.677-0.044-1.372-0.109-2.071-0.152c-0.785-0.054-1.432,0.224-1.927,0.669
	c-3.298,0.455-6.579,0.99-9.848,1.581c-13.084-0.699-26.227,0.112-38.831,3.132c-1.105,0.245-1.806,1.096-2.087,2.076
	c-0.257,0.035-0.49,0.075-0.732,0.113c0.091-0.391,0.187-0.775,0.283-1.177c0.748-2.842,1.537-5.224,2.604-7.871
	c1.051-2.392,1.268-4.733,2.328-6.896c1.336-2.908,3.829-4.734,5.179-7.416c1.596-3.13,0.952-5.855,1.422-8.916
	c0.971-5.15,4.796-10.114,5.775-15.288c0.768-2.851,1.24-5.439,2.019-8.267c0.747-3.079,0.657-5.596,1.7-8.709
	c1.599-3.62,2.64-6.951,6.53-9.605l0.3,0.2c1.049-2.405,4.421-4.087,6.766-1.995c1.172,0.819,1.835,3.774,1.857,5.151
	c0.409,3.662,2.757,5.749,5.41,8.513c3.209,2.717,4.48,6.531,5.454,10.16c0.678,3.625,0.516,7.55,1.205,11.203
	c0.331,1.582,0.693,3.42,1.021,4.994c0.329,1.801,1.21,1.963,2.653,2.991c1.756,1.227,2.088,2.817,2.7,4.605
	c0.646,1.794,1.806,2.394,3.271,3.634c2.329,1.882,5.269,4.603,5.918,7.556c0.641,1.788,0.415,3.663,1.316,5.418
	c0.912,1.978,2.582,1.847,4.578,3.021C498.239,670.758,493.303,671.198,488.377,671.792"/>
<path style="fill:#19AFAE;" d="M452.211,598.12c-0.508,1.287-0.111,3.352,1.253,4.527c1.563,1.484,4.223,0.897,6.302,1.084
	c3.319,0.127,6.365,0.13,9.336,0.4c3.061,0.012,6.442-0.082,8.482-2.089c1.581-1.662,1.61-4.787,0.326-6.917
	c-1.578-2.936-4.964-1.377-7.648-0.806c-3.218,0.411-6.275,0.381-9.491,0.781c-2.245,0.242-8.345,0.183-8.732,2.722L452.211,598.12z
	"/>
<path style="fill:#19AFAE;" d="M361.683,671.792c0.677-0.044,1.372-0.109,2.071-0.152c0.785-0.054,1.432,0.224,1.927,0.669
	c3.298,0.455,6.578,0.99,9.848,1.581c13.084-0.699,26.227,0.112,38.83,3.132c1.105,0.245,1.806,1.096,2.087,2.076
	c0.257,0.035,0.49,0.075,0.732,0.113c-0.091-0.391-0.187-0.775-0.283-1.177c-0.748-2.842-1.538-5.224-2.604-7.871
	c-1.051-2.392-1.268-4.733-2.327-6.896c-1.336-2.908-3.829-4.734-5.179-7.416c-1.596-3.13-0.952-5.855-1.422-8.916
	c-0.971-5.15-4.795-10.114-5.775-15.288c-0.768-2.851-1.24-5.439-2.02-8.267c-0.746-3.079-0.657-5.596-1.7-8.709
	c-1.599-3.62-2.64-6.951-6.53-9.605l-0.3,0.2c-1.049-2.405-4.421-4.087-6.765-1.995c-1.171,0.819-1.836,3.774-1.857,5.151
	c-0.409,3.662-2.756,5.749-5.41,8.513c-3.209,2.717-4.481,6.531-5.454,10.16c-0.679,3.625-0.516,7.55-1.205,11.203
	c-0.331,1.582-0.694,3.42-1.021,4.994c-0.329,1.801-1.21,1.963-2.654,2.991c-1.756,1.227-2.087,2.817-2.7,4.605
	c-0.645,1.794-1.806,2.394-3.271,3.634c-2.329,1.882-5.269,4.603-5.918,7.556c-0.64,1.788-0.415,3.663-1.316,5.418
	c-0.912,1.978-2.582,1.847-4.578,3.021C351.821,670.758,356.757,671.198,361.683,671.792"/>
<path style="fill:#19AFAE;" d="M397.849,598.12c0.508,1.287,0.111,3.352-1.253,4.527c-1.563,1.484-4.223,0.897-6.302,1.084
	c-3.319,0.127-6.365,0.13-9.336,0.4c-3.061,0.012-6.442-0.082-8.482-2.089c-1.581-1.662-1.61-4.787-0.326-6.917
	c1.578-2.936,4.965-1.377,7.648-0.806c3.218,0.411,6.276,0.381,9.492,0.781c2.245,0.242,8.345,0.183,8.732,2.722L397.849,598.12z"/>
<path style="fill:#39BFC2;" d="M456.227,618.224c-0.465-1.68-1.848-3.066-2.465-4.736c-0.463-0.914-0.929-1.834-0.929-2.902
	c0-0.776,0.3-1.521,0-2.299c-0.311-0.917-1.076-1.665-1.385-2.736c-0.308-0.636-0.477-1.399-0.621-2.158
	c-0.311-0.912-0.927-1.68-1.233-2.591c-0.153-0.925,0-1.987,0.155-2.765c0.46-2.283-0.773-3.809-2.005-5.497
	c-1.387-2.142-3.077-3.971-3.854-6.416c-0.776-2.443-1.407-4.746-2.306-7.035c-0.32-0.773-0.629-1.528-0.94-2.298
	c-0.293-0.917-0.293-1.684-0.471-2.604c-0.293-0.91-1.048-1.822-1.379-2.742c-0.473-1.07-0.473-2.147-0.761-3.211
	c-0.313-0.914-0.931-1.836-0.931-2.746c0-0.776,0.306-1.533,0.306-2.306c0-1.515-0.763-3.832-1.369-5.181
	c-0.948-1.693-2.798-4.14-4.491-4.903c-1.86-0.911-3.706,0-5.097,1.081c-1.068,0.763-1.068,1.068-1.529,2.274
	c-0.464,0.932-1.24,1.692-1.699,2.611c-0.617,0.909-0.776,1.985-1.236,2.885c-0.622,1.087-1.534,2.006-2.46,2.763
	c-1.849,1.687-3.089,3.072-4.33,5.195c-1.236,2.46-2.774,4.75-4.153,7.19c-1.69,2.915-2.937,5.966-4.336,8.872
	c-0.751,1.831-1.826,3.516-2.597,5.365c-1.242,2.437-1.242,5.499-2.478,8.098c-0.929,1.826-2.16,3.667-3.08,5.653
	c-1.399,2.898,0,5.809-1.849,8.404c-1.394,1.981-3.1,3.516-4.165,5.646c-1.232,2.458-2.47,5.059-2.773,7.81
	c-0.165,1.831,0.617,4.89-0.321,6.575c-1.074,1.682-2.16,3.214-2.46,5.355c-0.473,2.591-1.089,5.044-1.849,7.638
	c-1.548,5.034-2.314,9.934-3.395,14.98c-0.462,2.132-0.934,3.971-1.702,5.967c-0.46,1.217-0.922,2.281-1.078,3.513
	c-0.156,0.612-0.156,1.21-0.293,1.829l0.598-0.147c-0.149,0.452-0.927,0.756-0.927,1.22c0,0.313,1.083,1.227,1.387,1.38
	c1.081,1.064,2.632,2.448,4.327,2.604c1.391,0.141,2.77-0.772,4.317-0.627c1.548,0.311,2.936,1.078,4.483,1.533
	c2.006,0.625,4.16,0.457,6.172,0.299c13.865-1.36,28.049-0.755,41.93-0.755c10.014,0,20.211,0.455,30.069-1.386
	c1.396-0.291,2.769-0.604,4.166-0.604c0.458-0.149,1.23,0,1.691-0.149c0.46-0.147,0.623-0.305,0.782-0.916
	c0.151-0.919-0.624-1.844-1.091-2.6c-1.072-1.839-1.383-3.827-1.995-5.663c-0.785-2.134-2.158-3.367-3.722-4.895
	c-2.302-2.445-5.075-4.738-6.454-7.8c-0.469-1.207-0.929-2.28-1.702-3.201c-0.925-0.914-2.001-1.526-2.322-2.907
	c-0.291-0.922,0-1.988-0.291-2.911C459.623,643.753,456.824,619.774,456.227,618.224"/>
<path style="fill:#39BFC2;" d="M423.893,554.975c-1.561,0.272-2.45,0.819-3.488-0.602c-0.515-0.692-0.834-2.417-1.68-2.659
	c-1.066-0.419-2.241,0.775-3.168,0.144c-0.64-0.284-0.52-0.701-1.131-0.788c-0.617-0.109-1.371,0.225-1.945,0.341
	c-1.546,0.253-2.441-0.394-3.287-1.624c-1.188-2.372,0.451-5.431,2.397-6.945c2.503-1.627,5.544-2.54,8.353-3.611
	c3.59-1.23,7.429-2.074,11.105-2.72c2.132-0.359,5.241-0.897,7.025,0.182c2.25,1.399,5.022,4.693,5.449,7.179
	c1.596,8.038-12.991,10.155-18.432,11.102H423.893z"/>
<path style="fill:#39BFC2;" d="M165.798,703.533c0,0,109.189-20.026,255.146-20.96c145.957,0.934,255.146,20.96,255.146,20.96
	c-91.78-28.486-179.302-37.876-255.146-37.787C345.1,665.657,257.578,675.047,165.798,703.533"/>
<path style="fill:#19AFAE;" d="M647.243,802.084c0.732,0,1.344,0.26,1.858,0.774c0.507,0.514,0.76,1.14,0.76,1.886
	c0,0.697-0.253,1.302-0.76,1.816c-0.514,0.507-1.126,0.76-1.858,0.76c-0.69,0-1.295-0.246-1.823-0.739
	c-0.528-0.5-0.795-1.112-0.795-1.837c0-0.746,0.26-1.373,0.774-1.886C645.912,802.344,646.525,802.084,647.243,802.084
	 M649.143,813.782v19.764h-3.801v-19.764H649.143z M610.689,805.878l-3.153,1.9c-1.211-1.992-2.914-2.991-5.11-2.991
	c-1.337,0-2.555,0.422-3.66,1.274c-1.105,0.851-1.661,1.928-1.661,3.231c0,1.886,1.478,3.399,4.434,4.554l2.288,0.887
	c2.569,1.013,4.526,2.245,5.87,3.688c1.344,1.45,2.02,3.406,2.02,5.877c0,1.858-0.443,3.541-1.337,5.068
	c-0.894,1.52-2.119,2.71-3.66,3.569c-1.548,0.859-3.273,1.288-5.187,1.288c-1.703,0-3.259-0.38-4.659-1.14
	c-1.401-0.76-2.555-1.816-3.449-3.167c-0.901-1.352-1.478-2.886-1.725-4.603l4.012-0.845c0,1.126,0.267,2.147,0.802,3.069
	s1.288,1.647,2.245,2.175c0.964,0.528,1.999,0.795,3.118,0.795c1.126,0,2.133-0.274,3.012-0.823
	c0.887-0.549,1.584-1.309,2.098-2.273c0.507-0.971,0.76-2.006,0.76-3.104c0-1.521-0.486-2.731-1.464-3.625
	c-0.971-0.894-2.316-1.696-4.019-2.407l-2.203-0.929c-2.161-0.908-3.85-1.964-5.082-3.175c-1.232-1.204-1.844-2.837-1.844-4.877
	c0-1.633,0.429-3.076,1.295-4.315c0.866-1.246,2.027-2.21,3.484-2.886c1.457-0.683,2.991-1.021,4.596-1.021
	c1.788,0,3.378,0.415,4.772,1.246C608.676,803.154,609.809,804.336,610.689,805.878z M542.54,833.546v-31.842h17.103v3.632H546.51
	v8.911h12.768v3.632H546.51v12.036h13.134v3.632H542.54z M496.625,819.687l-10.431-17.983h4.589l7.848,13.619l7.813-13.605
	l4.54-0.014l-10.389,17.983v13.859h-3.97V819.687z M452.245,802.084c0.732,0,1.344,0.26,1.858,0.774
	c0.507,0.514,0.76,1.14,0.76,1.886c0,0.697-0.253,1.302-0.76,1.816c-0.514,0.507-1.126,0.76-1.858,0.76
	c-0.69,0-1.295-0.246-1.823-0.739c-0.528-0.5-0.795-1.112-0.795-1.837c0-0.746,0.26-1.373,0.774-1.886
	C450.914,802.344,451.527,802.084,452.245,802.084z M454.145,813.782v19.764h-3.801v-19.764H454.145z M396.624,805.336v24.579h1.38
	c1.112,0,2.119-0.049,3.02-0.141c0.901-0.099,1.844-0.268,2.837-0.507s1.858-0.521,2.597-0.838c0.401-0.162,0.767-0.345,1.112-0.535
	c0.345-0.19,0.725-0.436,1.133-0.725c1.366-0.943,2.442-2.224,3.238-3.836c0.795-1.605,1.197-3.512,1.197-5.708
	c0-2.928-0.662-5.3-1.992-7.123c-1.323-1.823-3.132-3.139-5.42-3.948c-2.288-0.81-4.864-1.218-7.721-1.218H396.624z
	 M392.654,833.546v-31.842h6.595c2.449,0,4.765,0.331,6.954,0.992c1.154,0.338,2.175,0.746,3.069,1.204
	c0.894,0.464,1.774,1.042,2.64,1.746c1.605,1.274,2.871,2.914,3.794,4.906c0.465,0.992,0.817,2.055,1.049,3.188
	c0.232,1.133,0.352,2.365,0.352,3.702c0,2.625-0.45,4.962-1.358,7.01c-0.458,1-0.999,1.929-1.633,2.78
	c-0.634,0.859-1.352,1.619-2.154,2.295c-0.802,0.669-1.682,1.253-2.625,1.753c-0.95,0.493-1.992,0.922-3.132,1.274
	c-2.175,0.662-4.533,0.992-7.074,0.992H392.654z M342.143,833.546v-31.842h17.103v3.632h-13.134v8.911h12.768v3.632h-12.768v12.036
	h13.134v3.632H342.143z M300.994,801.704v28.21h9.671v3.632h-13.641v-31.842H300.994z M246.175,833.546v-31.842h17.103v3.632
	h-13.134v8.911h12.768v3.632h-12.768v12.036h13.134v3.632H246.175z M198.36,805.251v10.558h1.014c1.401,0,2.59-0.134,3.576-0.401
	c0.978-0.267,1.774-0.802,2.379-1.598c0.275-0.373,0.493-0.838,0.648-1.401c0.162-0.57,0.239-1.204,0.239-1.922
	c0-1.401-0.289-2.485-0.873-3.245c-0.584-0.767-1.366-1.288-2.33-1.569c-0.971-0.281-2.161-0.422-3.562-0.422H198.36z
	 M198.36,818.976v11.023h3.034c2.154,0,3.949-0.422,5.377-1.267c1.429-0.845,2.147-2.295,2.147-4.357
	c0-1.978-0.795-3.372-2.393-4.181c-1.59-0.81-3.498-1.218-5.708-1.218H198.36z M194.391,833.546v-31.842h3.899
	c2.252,0,4.216,0.239,5.898,0.725c1.689,0.479,3.062,1.365,4.139,2.668c1.07,1.302,1.605,3.076,1.605,5.328
	c0,1.239-0.31,2.436-0.936,3.59c-0.627,1.154-1.45,1.978-2.478,2.456v0.084c1.217,0.218,2.316,0.725,3.28,1.52
	c0.957,0.802,1.717,1.788,2.267,2.963c0.549,1.176,0.823,2.372,0.823,3.597c0,2.006-0.507,3.674-1.513,5.004
	c-1.013,1.323-2.365,2.309-4.054,2.949c-1.689,0.641-3.519,0.957-5.483,0.957H194.391z"/>
<path style="fill:#19AFAE;" d="M611.295,725.774v10.504h1.559c2.257,0,4.048-0.342,5.375-1.012c1.34-0.684,2.01-2.065,2.01-4.144
	c0-2.175-0.615-3.611-1.86-4.308c-1.244-0.697-3.036-1.039-5.361-1.039H611.295z M589.303,770.742v-61.873h27.162
	c3.61,0,6.989,0.397,10.12,1.204c3.146,0.793,5.854,2.038,8.138,3.72c2.284,1.682,4.103,3.939,5.471,6.784
	c1.354,2.831,2.038,6.086,2.038,9.765c0,4.568-0.916,8.042-2.763,10.408c-1.847,2.366-4.91,4.267-9.218,5.703v0.492
	c1.764,1.354,3.023,2.585,3.775,3.679l13.458,20.118h-25.931l-9.861-19.858h-0.397v19.858H589.303z M568.145,703.535
	c3.337,0,6.114,0.93,8.315,2.79c2.202,1.846,3.296,4.308,3.296,7.385c0,3.364-1.122,5.922-3.378,7.659
	c-2.256,1.737-5.005,2.599-8.233,2.599c-2.065,0-3.966-0.356-5.73-1.081c-1.764-0.725-3.2-1.846-4.295-3.392
	c-1.094-1.532-1.641-3.46-1.641-5.785c0-3.023,1.094-5.471,3.269-7.344C561.922,704.479,564.726,703.535,568.145,703.535z
	 M557.518,770.742v-43.574h21.199v43.574H557.518z M489.887,770.742v-61.873h21.664v20.843h13.786v-20.843h21.691v61.873h-21.691
	v-21.513h-13.786v21.513H489.887z M438.368,770.742v-61.873h41.59v16.904h-18.956v5.908h17.315v16.083h-17.315v6.072h19.64v16.904
	H438.368z M400.21,791.654l-8.288-7.18l13.02-11.926l7.891,6.701L400.21,791.654z M381.063,766.106l6.893-17.52l1.162,0.875
	c4.91,3.789,9.587,5.689,14.018,5.689c1.395,0,2.694-0.301,3.925-0.916c1.231-0.615,1.846-1.559,1.846-2.804
	c0-1.149-0.397-1.928-1.204-2.311c-0.807-0.383-2.065-0.766-3.802-1.135l-4.527-0.807c-4.732-0.848-8.603-2.653-11.625-5.402
	c-3.022-2.749-4.527-6.428-4.527-11.023c0-4.636,1.245-8.698,3.747-12.159c2.489-3.446,5.826-6.1,9.998-7.946
	c4.158-1.846,8.52-2.763,13.061-2.763c7.071,0,13.622,1.805,19.626,5.402l-6.086,15.824c-4.595-3.105-8.931-4.65-13.02-4.65
	c-1.258,0-2.38,0.26-3.365,0.766c-0.985,0.506-1.477,1.354-1.477,2.53c0,0.93,0.356,1.586,1.081,1.956l1.682,0.574l1.723,0.479
	l5.088,1.163c10.941,2.462,16.426,8.37,16.426,17.739c0,4.677-1.258,8.684-3.775,12.035c-2.503,3.337-5.812,5.867-9.929,7.563
	c-4.117,1.696-8.493,2.544-13.143,2.544c-1.956,0-3.912-0.123-5.895-0.355c-1.97-0.246-4.062-0.629-6.264-1.176
	c-2.202-0.534-4.253-1.135-6.154-1.805C384.646,767.802,382.827,767.009,381.063,766.106z M355.802,708.869h23.455l-23.961,61.873
	h-19.038l-23.961-61.873h23.469l8.206,28.133c1.039,3.487,1.559,6.551,1.559,9.177h0.492c0-2.544,0.52-5.607,1.559-9.177
	L355.802,708.869z M265.947,770.742v-61.873h41.591v16.904h-18.956v5.908h17.315v16.083h-17.315v6.072h19.639v16.904H265.947z
	 M194.391,770.742v-61.873h21.595l20.146,34.301h0.684c-0.287-1.737-0.561-3.378-0.793-4.924c-0.109-0.779-0.314-2.366-0.629-4.773
	c-0.301-2.407-0.451-4.431-0.451-6.086v-18.518h21.472v61.873h-21.472l-19.804-32.495h-0.643c0.944,5.525,1.409,9.656,1.409,12.377
	v20.118H194.391z"/>
</svg>
