<?xml version="1.0" encoding="UTF-8"?>
<svg id="Layer_2" data-name="Layer 2" xmlns="http://www.w3.org/2000/svg" viewBox="0 0 832.54 832.46">
  <defs>
    <style>
      .cls-1 {
        fill: none;
      }

      .cls-2, .cls-3, .cls-4 {
        fill-rule: evenodd;
      }

      .cls-2, .cls-5 {
        fill: #82591f;
      }

      .cls-3 {
        fill: #004730;
      }

      .cls-4 {
        fill: #a38043;
      }
    </style>
  </defs>
  <g id="Layer_1-2" data-name="Layer 1">
    <g id="Foreground">
      <g>
        <rect class="cls-1" width="832.54" height="832.46"/>
        <g>
          <path class="cls-3" d="M161.18,320.37l1.9,70.17c.1,4.59.34,7.81.74,9.67.78,4.2,2.44,6.64,4.98,7.32,2.15.59,4.59.88,7.32.88.78,0,1.17.29,1.17.88,0,.78-.88,1.17-2.63,1.17l-15.53-.44-14.07.44c-1.56,0-2.34-.39-2.34-1.17,0-.59.39-.88,1.17-.88,5.47,0,8.64-1.81,9.52-5.42.59-2.44.88-7.13.88-14.06l.15-83.94c0-4.88.54-7.32,1.62-7.32.39,0,.83.24,1.32.73.49.39,1.13,1.02,1.9,1.9.29.29.88.93,1.76,1.9.88.98,11.18,12.11,30.91,33.4l24.32,26.08c.78.78,4.59,4.98,11.43,12.6,3.32,3.71,8.4,9.23,15.24,16.55l-1.61-74.42c-.1-3.91-.34-6.64-.73-8.2-.78-3.22-2.44-5.13-4.98-5.71-2.05-.49-4.44-.73-7.18-.73-.78,0-1.17-.34-1.17-1.03s.98-1.03,2.93-1.03c1.66,0,4.2.1,7.62.3,3.42.1,5.96.14,7.62.14.59,0,2.1-.05,4.54-.14,3.81-.2,6.45-.3,7.91-.3,1.76,0,2.64.34,2.64,1.03,0,.59-.73.98-2.2,1.17-.98.1-1.95.2-2.93.29-2.73.59-4.39,2.3-4.98,5.13-.29,1.07-.44,3.71-.44,7.91l-.29,85.85c0,6.93-.44,10.4-1.32,10.4-.68,0-1.56-.49-2.63-1.46-1.66-1.57-4.35-4.2-8.06-7.91-3.22-2.54-7.03-6.15-11.43-10.84-3.51-3.91-7.08-7.81-10.69-11.72-3.32-3.52-8.69-9.23-16.12-17.14l-15.38-16.55c-2.25-2.54-6.06-6.79-11.43-12.75l-11.43-12.74Z"/>
          <path class="cls-3" d="M482.15,367.98v-25.78c0-17.09-.1-27.64-.29-31.64-.1-2.64-.59-4.54-1.47-5.71-.78-1.27-2.39-2.15-4.83-2.64-1.37-.29-3.03-.44-4.98-.44-.78,0-1.17-.3-1.17-.88,0-.78.78-1.17,2.35-1.17,2.34,0,5.81.1,10.4.3,4.69.1,6.74.14,6.15.14l25.93-.44c16.8,0,30.28,2.59,40.43,7.76,4.59,2.35,8.65,5.32,12.16,8.94,9.47,9.77,14.21,22.17,14.21,37.21,0,16.51-5.32,30.33-15.97,41.46-10.65,11.13-25.39,16.7-44.24,16.7-5.17,0-11.92-.29-20.22-.88l-12.31-.88-14.35.44c-1.56,0-2.35-.39-2.35-1.17,0-.59.39-.88,1.17-.88,1.37,0,2.83-.2,4.4-.59,2.34-.59,3.76-3.27,4.24-8.06.49-4.4.73-15,.73-31.79ZM494.45,339.86v18.17c0,17.58.1,28.17.3,31.79.3,6.35.83,10.06,1.61,11.13,2.64,3.91,10.94,5.86,24.9,5.86,9.18,0,17.53-2.1,25.06-6.3,9.08-5.08,15.23-12.55,18.46-22.41,2.05-6.35,3.08-12.99,3.08-19.92,0-14.85-4.69-27.15-14.06-36.92-6.25-6.45-13.57-10.94-21.97-13.48-6.74-2.05-15.38-3.08-25.93-3.08-3.71,0-5.96.05-6.74.15-2.93.49-4.44,1.76-4.54,3.81-.09,2.93-.15,13.33-.15,31.2Z"/>
          <path class="cls-3" d="M600.47,367.98v-25.78c0-17.09-.1-27.64-.29-31.64-.1-2.64-.58-4.54-1.47-5.71-.78-1.27-2.39-2.15-4.83-2.64-1.37-.29-3.03-.44-4.98-.44-.78,0-1.17-.3-1.17-.88,0-.78.78-1.17,2.35-1.17,2.35,0,5.81.1,10.4.3,4.69.1,6.74.14,6.15.14l58.93-.14c2.54-.2,4.64-.44,6.3-.73.29,0,.64-.1,1.03-.29.39-.29.74-.44,1.03-.44.39,0,.58.44.58,1.32,0,.49-.19,1.61-.58,3.37-.39,1.66-.59,2.83-.59,3.52,0,.19-.05.73-.15,1.61,0-.68-.05.34-.14,3.08-.1,2.64-.25,4.3-.44,4.98-.29,1.08-.64,1.61-1.03,1.61-.78,0-1.17-.64-1.17-1.91,0-4.1-1.27-6.93-3.81-8.5-1.17-.68-3.66-1.27-7.47-1.76-2.53-.3-34.6-.44-45.45-.44-.58,0-.88.49-.88,1.46v40.43c0,.98.29,1.46.88,1.46,12.9,0,34.16-.1,36.8-.29,3.51-.29,5.81-1.02,6.89-2.2,1.17-1.17,1.9-1.76,2.2-1.76.48,0,.73.39.73,1.17,0,.98-.15,2.35-.44,4.1-.39,2.05-.63,3.42-.73,4.1-.1,2.25-.19,4.54-.29,6.89-.29,3.52-.73,5.27-1.32,5.27-.68,0-1.03-.44-1.03-1.32,0-6.05-2.73-9.38-8.21-9.96-4.69-.49-25.18-.73-34.45-.73-.69,0-1.03.34-1.03,1.02v37.94c0,3.81.59,6.59,1.76,8.35,2.62,5.73,24.51,3.66,32.91,3.66,7.72,0,20.54-.78,23.08-2.34,2.53-1.56,4.3-4.84,5.28-9.82.29-1.47.73-2.2,1.32-2.2s.88.73.88,2.2c0,4.1-.63,8.84-1.9,14.21-.39,1.86-1.03,2.93-1.9,3.22-.88.39-2.88.15-6.01.15-8.98,0-42.47.29-49.69,0l-11.87-.44c-1.56,0-3.95.04-7.17.15-3.22.2-5.62.29-7.18.29s-2.35-.39-2.35-1.17c0-.59.39-.88,1.17-.88,1.95,0,3.61-.25,4.98-.73,1.96-.68,3.18-3.27,3.66-7.76.49-4.49.74-15.14.74-31.94Z"/>
          <path class="cls-3" d="M442.04,398.02v-24.91c0-7.23-.73-11.57-2.2-13.04-.97-.88-2.44-1.56-4.39-2.05-1.08-.3-2.73-.44-4.98-.44-.78,0-1.17-.29-1.17-.88,0-.78.78-1.17,2.34-1.17,2.35,0,5.81.1,10.4.29,4.69.1,6.74.15,6.15.15,1.37,0,3.32-.05,5.86-.15,5.17-.2,8.01-.29,8.5-.29,1.56,0,2.34.39,2.34,1.17,0,.39-1.61.83-4.83,1.32-1.86.29-3.22,1.07-4.1,2.34-.78,1.27-1.22,3.27-1.32,6.01-.2,4.1-.3,9.18-.3,15.24v16.41c0,2.93-.05,4.64-.15,5.12,0,.49-.1.98-.29,1.47-.2.49-.68.93-1.46,1.32-8.3,4.39-18.65,6.59-31.06,6.59-20.22,0-36.28-5.22-48.2-15.67-6.84-5.96-11.82-14.26-14.95-24.9-1.66-5.57-2.49-11.18-2.49-16.85,0-14.65,4.05-27,12.16-37.06,6.74-8.3,15.18-13.97,25.35-16.99,7.62-2.25,16.26-3.37,25.93-3.37,7.13,0,14.6.83,22.42,2.49,4,.88,7.96,1.37,11.86,1.46,1.17.1,1.76.54,1.76,1.32,0,1.17-.1,2.83-.3,4.98-.29,2.64-.44,4.3-.44,4.98-.2,3.52-.3,7.13-.3,10.84,0,2.05-.44,3.08-1.32,3.08-.58,0-.93-.73-1.03-2.2-.39-4.79-1.9-8.59-4.54-11.43-2.25-2.44-5.81-4.64-10.69-6.59-5.86-2.34-13.29-3.52-22.27-3.52-12.79,0-23.24,3.22-31.35,9.67-9.67,7.72-14.51,20.12-14.51,37.21,0,11.92,2.93,22.51,8.79,31.79,2.54,3.91,4.78,6.84,6.74,8.79,10.84,10.45,23.63,15.68,38.38,15.68,7.42,0,12.99-1.03,16.7-3.08,1.96-1.07,2.93-2.78,2.93-5.13Z"/>
          <path class="cls-3" d="M406.97,291.89c-.47-3.05-.62-9.01,4.24-12.74,6.74-5.17,15.71-2.35,19.23-12.77,0,0,2.25,15.07-3.23,22.27-4.2,5.52-11.67,6.45-17.34,5.65,17.58-4.77,19.47-21.83,19.47-21.83-2.94,13.68-18.11,18.4-22.36,19.42Z"/>
          <g>
            <path class="cls-4" d="M158.26,483.29v-15.65h14.36c6.59,0,9.88,2.74,9.88,8.23,0,1.02-.21,1.98-.62,2.88-.41.9-1.02,1.7-1.84,2.39-.82.65-1.84,1.18-3.07,1.59-1.23.37-2.68.55-4.35.55h-14.36ZM154.09,464.09v43.81h18.53c2.37,0,4.4-.21,6.07-.62,1.72-.45,3.15-1,4.29-1.66,1.19-.69,2.12-1.49,2.82-2.39s1.23-1.8,1.6-2.7c.37-.94.61-1.84.74-2.7.12-.91.18-1.7.18-2.39,0-2.87-.84-5.26-2.52-7.18-1.68-1.96-3.93-3.13-6.75-3.5v-.12c1.14-.25,2.17-.68,3.07-1.29.94-.61,1.74-1.35,2.39-2.21.69-.9,1.23-1.88,1.59-2.95.37-1.1.55-2.23.55-3.38,0-2.05-.39-3.74-1.17-5.09-.78-1.39-1.82-2.49-3.13-3.31-1.27-.86-2.76-1.45-4.48-1.78-1.68-.37-3.44-.55-5.27-.55h-18.53ZM158.26,504.33v-17.48h14.36c3.72,0,6.56.72,8.52,2.15,2,1.39,3.01,3.5,3.01,6.32,0,1.76-.31,3.23-.92,4.42-.62,1.15-1.45,2.07-2.52,2.76-1.07.69-2.29,1.19-3.68,1.47-1.39.25-2.86.37-4.41.37h-14.36Z"/>
            <polygon class="cls-4" points="217.8 464.09 217.8 507.89 248.35 507.89 248.35 504.33 221.97 504.33 221.97 487.03 246.38 487.03 246.38 483.47 221.97 483.47 221.97 467.64 248.04 467.64 248.04 464.09 217.8 464.09"/>
            <polygon class="cls-4" points="276.97 464.09 276.97 507.89 305.68 507.89 305.68 504.33 281.14 504.33 281.14 464.09 276.97 464.09"/>
            <polygon class="cls-4" points="332.7 464.09 332.7 507.89 363.25 507.89 363.25 504.33 336.87 504.33 336.87 487.03 361.29 487.03 361.29 483.47 336.87 483.47 336.87 467.64 362.95 467.64 362.95 464.09 332.7 464.09"/>
            <path class="cls-4" d="M391.87,464.09v43.81h15.15c6.67-.16,11.68-2.03,15.03-5.59,3.39-3.6,5.09-9.04,5.09-16.32s-1.7-12.7-5.09-16.26c-3.36-3.6-8.37-5.48-15.03-5.64h-15.15ZM396.04,504.33v-36.69h8.9c3.15,0,5.85.35,8.1,1.05,2.29.65,4.17,1.72,5.64,3.19,1.47,1.47,2.56,3.38,3.25,5.71s1.05,5.13,1.05,8.41-.35,6.08-1.05,8.41c-.69,2.34-1.78,4.23-3.25,5.71-1.47,1.47-3.35,2.56-5.64,3.25-2.25.66-4.95.98-8.1.98h-8.9Z"/>
            <path class="cls-4" d="M456.99,470.4v37.49h4.18v-37.49h-4.18ZM456.99,465.86h4.18v-6.2h-4.18v6.2Z"/>
            <polygon class="cls-4" points="505.3 489.85 505.3 507.89 509.47 507.89 509.47 489.85 526.78 464.09 521.81 464.09 507.45 486.29 493.03 464.09 488.13 464.09 505.3 489.85"/>
            <polygon class="cls-4" points="553.37 464.09 553.37 507.89 583.92 507.89 583.92 504.33 557.54 504.33 557.54 487.03 581.96 487.03 581.96 483.47 557.54 483.47 557.54 467.64 583.62 467.64 583.62 464.09 553.37 464.09"/>
            <path class="cls-4" d="M614.5,493.47h-4.17c-.13,2.7.22,5.01,1.04,6.94.86,1.92,2.07,3.49,3.62,4.72,1.56,1.22,3.43,2.15,5.64,2.76,2.21.57,4.6.86,7.18.86s4.79-.25,6.63-.74c1.84-.45,3.37-1.04,4.6-1.78,1.27-.78,2.25-1.64,2.95-2.58.74-.94,1.29-1.86,1.66-2.76.41-.94.65-1.82.74-2.64.12-.82.18-1.47.18-1.96,0-1.8-.31-3.34-.92-4.6-.57-1.27-1.39-2.33-2.46-3.19-1.02-.9-2.23-1.64-3.62-2.21-1.35-.61-2.8-1.12-4.35-1.54l-10.68-2.64c-.9-.2-1.76-.47-2.58-.79-.78-.33-1.47-.76-2.09-1.29-.61-.53-1.1-1.17-1.47-1.9-.33-.78-.49-1.68-.49-2.7,0-1.64.3-3.01.92-4.11s1.41-1.98,2.39-2.64c1.02-.69,2.19-1.19,3.5-1.47,1.35-.33,2.74-.49,4.17-.49,1.56,0,3.03.22,4.42.67,1.43.41,2.68,1.04,3.74,1.9,1.1.82,1.98,1.86,2.64,3.13.69,1.23,1.08,2.68,1.17,4.36h4.17c0-2.25-.45-4.21-1.35-5.89-.86-1.72-2.03-3.15-3.5-4.3-1.47-1.15-3.19-2-5.15-2.58-1.97-.57-4.03-.86-6.2-.86-3.07,0-5.58.45-7.54,1.35-1.97.86-3.52,1.92-4.66,3.19-1.1,1.27-1.86,2.62-2.27,4.05-.41,1.43-.61,2.68-.61,3.74,0,1.72.26,3.17.79,4.36.57,1.18,1.31,2.19,2.21,3,.91.82,1.95,1.47,3.13,1.97,1.23.49,2.48.9,3.74,1.22l9.76,2.39c1.02.25,2.06.57,3.13.98,1.06.37,2.02.86,2.88,1.47.9.61,1.61,1.37,2.15,2.27.57.9.86,1.96.86,3.19,0,1.59-.39,2.96-1.16,4.11-.78,1.1-1.76,2.03-2.95,2.76-1.15.69-2.39,1.21-3.74,1.54-1.35.33-2.6.49-3.74.49-2,0-3.89-.18-5.64-.55-1.76-.41-3.29-1.06-4.6-1.96-1.27-.9-2.27-2.11-3.01-3.62-.74-1.51-1.08-3.39-1.04-5.65Z"/>
            <path class="cls-4" d="M674.29,470.4v37.49h4.17v-37.49h-4.17ZM674.29,465.86h4.17v-6.2h-4.17v6.2Z"/>
          </g>
          <path class="cls-5" d="M297.22,385.62c0,10.35,8.16,18.42,17.88,18.04,9.35-.36,16.67-8.47,16.67-18.12s-7.32-17.72-16.67-18.04c-9.72-.34-17.88,7.77-17.88,18.12ZM289.44,319.88c-.64,1-1.23,2.46-1.23,4.48v8.94l-2.72,4.77-.17,15.33,1.29,3.47,4.62-.78-.27-19.5-1.53-5.27v-11.43ZM313.49,353.3l15.56,2.88,3.12-2.78v-17.94s-2.21-3.57-2.21-3.57v-4.14c0-.08.42-16.55-14.62-18.1-2.36,0-3.92.28-4.86.5-.97.22-2.28.63-3.64,1.36-2.71,1.46-5.67,4.23-6.65,9.56-.34,3.47-.51,5.08-.59,5.83l-.07.58v4.58s-2.73,4.42-2.73,4.42v18.93l16.7-2.11ZM309.71,252.68v7.52s.78,1.8.78,1.8v8.94h1.89v2.88h-1.39c0,.87,1.39,1.19,1.39,1.19v1.85l1.11,1.6c14.58,1.58,17.54,7.88,17.71,8.42v1.54h-2.38v8.04h2.06v-5.3h7.08v38.92l-1.05,4.08v19.27l2.55,4.98v3.43h5.05s-1.63,3.63-2.93,8.11c-1.36,4.64-1.18,12-.16,16.44,1.37,5.92,1.35,8.92,1.14,10.33h1.81s.03,1.11,0,1.66c-.04.55-.13,1.29-.34,2.02-.35,1.25-1.14,2.83-2.86,3.19v3.2c.02.18.07,1.09-.05,2.08-.11.87-.4,2.14-1.32,2.81v7.18c-13.98,8.03-38.52,7.72-50.16,5.55l-.3-.05-11.89-10.24v-1.51l-1.75-2.25s-.26-2.6-.07-6.4c-1.57-.85-2.28-2.23-2.58-3.4-.33-1.3-.19-2.4-.18-2.45l.11-.79,2.38-.24c-.06-1.58-.01-4.82,1.11-8.02.72-4.28,1.25-6.23,1.25-11.22s-1.17-8.61-2.31-10.86c-.57-1.13-1.14-1.94-1.56-2.46-.39-.49-1.09-1.12-1.09-1.13l-1.35-1.55h6.57v-2.27l2.04-6.12v-15.21l-1.78-4.85v-27.12l-1.53-2.04v-13.07h5.58v4.45l4.19-2.67v-4.52h-2.4v-1.54c.18-.55,3.18-7.12,18.63-8.35l1.17-1.68v-1.95s1.25-.24,1.25-.99h-1.14v-3.07h1.92v-8.84l.64-1.8v-7.48c.49.11,1,.17,1.52.17.58,0,1.13-.07,1.67-.21ZM339.8,436.77v2.09c-13.2,9.22-37.72,7.01-49.96,4.74l-12.39-11.53v-1.84l12.39,11.01c12.12,2.25,36.66,4.44,49.96-4.47ZM339.8,428.25v3.76c-13.3,8.95-37.84,8.16-49.96,5.91l-12.39-11.02v-5.02l12.73,10.96c12.08,2.2,36.59,3.89,49.63-4.59ZM339.8,421.09v4.09c-13.75,8.36-38.29,7.9-50.3,5.67l-12.06-10.34v-6l12.89,11.16c12.02,2.17,36.51,3.62,49.46-4.58Z"/>
          <path class="cls-2" d="M287.22,323.6l46.95-.12v1.98h-47.69l.74-1.85Z"/>
          <path class="cls-2" d="M298.87,385.62c0,9.4,7.4,16.75,16.24,16.43,8.53-.3,15.23-7.69,15.23-16.5s-6.7-16.17-15.23-16.44c-8.84-.28-16.24,7.11-16.24,16.5ZM297.98,385.62c0-9.91,7.81-17.68,17.12-17.37,8.97.3,16,8.04,16,17.3s-7.03,17.03-16,17.37c-9.31.35-17.12-7.39-17.12-17.3Z"/>
          <path class="cls-5" d="M322.56,379.4l4.81-3.69c.28.41.48.72.67,1.04l-4.82,3.69c-.25-.44-.45-.74-.67-1.04ZM324.03,372.21l-3.19,5.38c-.39-.31-.69-.52-.99-.71l3.19-5.38c.41.28.71.49,1,.71ZM317.37,375.73l-.61-.07-.59-.16,1.05-6.22.61.05.58.2-1.05,6.2ZM312.46,375.73l-1.28-6.29c.36-.08.84-.18,1.21-.23l1.27,6.28c-.36.05-.85.15-1.19.24ZM309.07,377.55l-3.78-5.39c.4-.3.71-.52,1.03-.72l3.76,5.4c-.42.27-.72.48-1.01.71ZM306.58,380.48l-5.5-3.56c.26-.44.47-.77.69-1.09l5.49,3.58c-.29.41-.5.73-.68,1.06ZM305.48,383.17l-.07.65-.15.63-6.3-1.14.04-.66.18-.63,6.3,1.16ZM305.56,388.39l-6.25,1.42c-.09-.38-.2-.89-.27-1.28l6.26-1.39c.06.38.17.89.26,1.26ZM307.4,391.95l-5.21,4c-.31-.41-.53-.73-.74-1.05l5.24-3.99c.27.44.48.75.71,1.05ZM310.26,394.46l-3.35,5.67c-.43-.26-.75-.46-1.06-.67l3.38-5.68c.4.3.71.5,1.03.69ZM312.81,395.53l.61.05.6.15-1.06,6.32-.62-.02-.6-.16,1.07-6.33ZM317.6,395.29l1.34,6.19c-.35.1-.82.22-1.18.3l-1.25-6.16c.35-.07.75-.22,1.1-.33ZM324.55,398.49c-.37.31-.66.53-.96.75l-3.57-5.09c.4-.27.69-.49.97-.73l3.56,5.07ZM323.33,390.51l5.05,3.27c-.24.43-.43.74-.63,1.05l-5.07-3.27c.28-.41.46-.72.64-1.04ZM324.36,387.91l.05-.62.15-.61,5.69,1.04-.03.62-.17.6-5.7-1.03ZM330.19,382.82l-5.66,1.27c-.05-.37-.15-.86-.25-1.21l5.66-1.27c.08.36.18.84.24,1.21Z"/>
          <path class="cls-5" d="M323.57,387.13c.81-4.91-2.27-9.62-6.96-10.56-4.78-.96-9.42,2.33-10.3,7.41-.87,5.1,2.42,9.88,7.26,10.68,4.74.77,9.18-2.6,9.99-7.52ZM305.18,383.77c.98-5.72,6.23-9.45,11.63-8.35,5.28,1.08,8.74,6.39,7.83,11.9-.91,5.53-5.91,9.35-11.26,8.49-5.47-.88-9.19-6.29-8.2-12.04Z"/>
          <path class="cls-5" d="M315.12,387.06l-1.02-.41,3.57-8.84c.61-1.52-1.27-2.32-.12-3.62l3.26-2.69.53,4.11c-.05,1.73-2.02,1.07-2.64,2.6l-3.58,8.86Z"/>
          <path class="cls-5" d="M315.51,385.08l.03.57.03.57-5.37.14c-1.55.02-1.49,2.11-3.05,1.54l-3.54-2,3.27-2.11c1.49-.63,1.7,1.47,3.26,1.45l5.37-.16Z"/>
          <path class="cls-5" d="M316.45,385.83c.13-.78-.37-1.52-1.11-1.66-.74-.14-1.46.38-1.59,1.17-.13.78.37,1.52,1.11,1.66.74.14,1.45-.39,1.58-1.17Z"/>
          <rect class="cls-5" x="347.52" y="434.16" width="371.62" height="2.64"/>
          <polygon class="cls-2" points="113.41 434.16 269.43 434.16 273.09 436.79 113.41 436.79 113.41 434.16"/>
          <rect class="cls-5" x="113.41" y="535.57" width="605.73" height="2.63"/>
          <path class="cls-5" d="M309.57,328.79h.48s4.82.52,4.82,4.18l1.03,8.7s.48.95,1.47,1.5c0,0-1.55,2.18-7.32,2.25h-.48c-5.77-.07-7.09-2.14-7.09-2.14.86-.35,1.34-1.6,1.34-1.6l.94-8.7c0-3.66,4.82-4.18,4.82-4.18Z"/>
          <rect class="cls-5" x="308.98" y="324.69" width="1.42" height="5.2"/>
          <circle class="cls-5" cx="309.72" cy="324.48" r="1.68"/>
          <path class="cls-5" d="M302.08,246.08c0-2.31,1.33-4.32,3.26-5.3-.84.75-1.36,1.84-1.36,3.05,0,2.26,1.83,4.09,4.09,4.09s4.08-1.83,4.08-4.09c0-1.15-.48-2.2-1.25-2.94,1.82,1.02,3.06,2.96,3.06,5.19,0,3.28-2.66,5.94-5.94,5.94-3.28,0-5.94-2.66-5.94-5.94Z"/>
          <g>
            <g>
              <path class="cls-3" d="M178.89,569.22l-.58,1.36c-2.22,5.27-4.1,8.64-5.64,10.12-.69.66-1.89.98-3.62.98-.49,0-.74-.12-.74-.37,0-.08.03-.29.08-.61.33-1.46.6-3.4.82-5.85.11-1.4.21-4.13.29-8.19.08-4.09.71-7.69,1.89-10.82-1.29,1.56-2.58,4.9-3.87,10l-.49,1.98c-2.31,9.25-5.64,13.87-10,13.87-.99,0-1.88-.3-2.68-.9-.88-.66-1.32-1.45-1.32-2.39,0-.71.59-1.55,1.77-2.51.8-.66,1.3-.99,1.52-.99.44,0,.73.58.86,1.73.06.08.08.18.08.29l.04.37c.14,1.18.73,1.77,1.77,1.77.77,0,1.62-.6,2.55-1.81,1.62-2.11,3.04-5.75,4.28-10.91l.58-2.42c.58-2.36,1.19-4.27,1.85-5.72.66-1.48,1.7-3.18,3.13-5.1.85-.36,2.07-.54,3.66-.54.27,0,.41.15.41.45,0,.05-.04.36-.12.91-.25,1.67-.37,3.55-.37,5.64v1.6c0-.3,0,.4.04,2.1v1.69c0,4.8-.37,8.59-1.11,11.36.74-.99,1.77-3.2,3.09-6.63.52-1.37,1.06-2.67,1.61-3.91,1.04-2.34,2.25-4.68,3.62-7.04,2.17-3.65,3.84-5.56,5.02-5.72l2.55-.33c.44-.05.82-.08,1.15-.08.36,0,.54.09.54.28,0,.3-.22.94-.66,1.89-.6,1.35-1.17,2.92-1.69,4.73-1.73,6.15-2.59,10.97-2.59,14.45,0,2.69.82,4.03,2.47,4.03,1.35,0,2.94-1.08,4.77-3.25v2.14c-2.96,3.21-5.69,4.81-8.19,4.81-3.07,0-4.61-2.65-4.61-7.94,0-1.67.47-4.58,1.4-8.72.58-2.55,1.5-4.98,2.76-7.28l1.15-2.1-1.11,1.19c-.99,1.04-1.96,2.56-2.92,4.57-.72,1.49-1.87,4.09-3.46,7.82Z"/>
              <path class="cls-3" d="M198.36,572.72v.45c3.46-.96,5.19-2.74,5.19-5.35,0-1.32-.48-1.98-1.44-1.98-1.18,0-2.14.89-2.88,2.68-.58,1.43-.87,2.83-.87,4.2ZM208.9,574.61v2.27c-1.62,1.59-2.98,2.71-4.07,3.38-1.62.98-3.28,1.48-4.98,1.48-1.87,0-3.35-.57-4.44-1.72-1.1-1.16-1.65-2.68-1.65-4.57,0-2.69.9-5.17,2.71-7.45,1.92-2.44,4.19-3.66,6.79-3.66,1.15,0,2.11.3,2.88.9.8.58,1.19,1.42,1.19,2.55,0,2.17-1.71,3.99-5.14,5.47-.9.38-2.12.81-3.66,1.28.52,2.6,1.92,3.91,4.2,3.91,1.56,0,3.33-.99,5.31-2.96l.86-.87Z"/>
              <path class="cls-3" d="M219.27,565.76c-.99,0-1.98.77-2.96,2.3-1.62,2.53-2.43,5.02-2.43,7.49,0,1.59.64,2.39,1.93,2.39,1.07,0,2.1-.77,3.09-2.3,1.54-2.36,2.31-4.79,2.31-7.28,0-1.73-.64-2.59-1.93-2.59ZM221.94,565.56l2.88-12.02c2.25-.53,3.83-.8,4.73-.83.27,0,.41.11.41.33v.04c-.16,1.01-.45,2.2-.86,3.58-.79,2.72-1.6,5.94-2.43,9.67-.68,3.1-1.16,5.56-1.44,7.37-.19,1.21-.29,2.05-.29,2.51,0,1.12.38,1.68,1.15,1.68.82,0,2.1-.94,3.83-2.84l.41-.45v2.27l-.78.78c-2.72,2.71-4.82,4.07-6.3,4.07-2.09,0-3.13-1.79-3.13-5.39-2.33,3.6-4.69,5.39-7.08,5.39-1.26,0-2.3-.59-3.13-1.77-.77-1.07-1.15-2.27-1.15-3.58,0-2.8.99-5.47,2.96-8.03,2.11-2.74,4.54-4.12,7.28-4.12,1.07,0,2.04.44,2.92,1.32Z"/>
              <path class="cls-3" d="M234.83,572.72v.45c3.46-.96,5.19-2.74,5.19-5.35,0-1.32-.48-1.98-1.44-1.98-1.18,0-2.14.89-2.88,2.68-.58,1.43-.86,2.83-.86,4.2ZM245.36,574.61v2.27c-1.62,1.59-2.98,2.71-4.07,3.38-1.62.98-3.28,1.48-4.98,1.48-1.86,0-3.35-.57-4.45-1.72-1.09-1.16-1.65-2.68-1.65-4.57,0-2.69.91-5.17,2.72-7.45,1.92-2.44,4.18-3.66,6.79-3.66,1.15,0,2.11.3,2.88.9.79.58,1.19,1.42,1.19,2.55,0,2.17-1.71,3.99-5.15,5.47-.9.38-2.13.81-3.66,1.28.52,2.6,1.92,3.91,4.2,3.91,1.57,0,3.34-.99,5.31-2.96l.86-.87Z"/>
              <path class="cls-3" d="M245.36,581.77l-.04-.49c-.11-1.32-.16-2.48-.16-3.5,0-3.79,1.06-8,3.17-12.64l4.9-.94c-.58,1.56-.96,2.65-1.15,3.25-.38,1.23-.67,2.33-.87,3.29l.78-.87c3.4-3.76,6.04-5.64,7.9-5.64.71,0,1.29.27,1.73.83.44.52.66,1.15.66,1.89,0,1.29-.58,3.4-1.73,6.34-.8,2.03-1.19,3.34-1.19,3.95,0,.79.33,1.19.99,1.19.38,0,.86-.22,1.44-.66,1.07-.82,2.17-1.88,3.3-3.17v2.22c-3.08,3.27-5.72,4.9-7.95,4.9-.96,0-1.7-.32-2.22-.95-.52-.66-.78-1.48-.78-2.47,0-1.46.59-3.65,1.77-6.59.55-1.37.86-2.38.95-3.01,0-.44-.17-.66-.49-.66-.85,0-2.51,1.53-4.98,4.57l-.91,1.11c-.44,2.28-.66,4.35-.66,6.22v.82l-4.45.99Z"/>
              <path class="cls-3" d="M269.89,556.21l.25.17c.83.55,1.59.82,2.3.82s1.43-.26,2.14-.78c0,3.21-1.18,4.82-3.54,4.82-1.15,0-2.14-.34-2.96-1.03.77-1.2,1.37-2.54,1.81-3.99ZM267.55,565.97l.25-.61,5.35-1.07-2.02,6.3c-.85,2.66-1.27,4.51-1.27,5.55s.36,1.48,1.07,1.48c.9,0,2.11-.84,3.62-2.51.17-.16.3-.33.41-.49v2.27c-3.13,3.27-5.46,4.9-7,4.9-1.02,0-1.8-.54-2.35-1.6-.44-.85-.66-1.84-.66-2.97,0-3.18.87-6.93,2.59-11.24Z"/>
              <path class="cls-3" d="M283.1,583.54c-3.43,1.54-5.14,3.27-5.14,5.19,0,.91.38,1.36,1.15,1.36,1.48,0,2.81-2.18,3.99-6.55ZM274.83,576.88c0-2.09.43-4.26,1.28-6.51l1.94-5.1,5.84-1.03-2.51,5.97c-.33.79-.7,1.88-1.11,3.25-.44,1.54-.66,2.62-.66,3.25,0,1.21.43,1.81,1.28,1.81,1.04,0,2.18-.93,3.41-2.8.85-1.32,1.55-2.7,2.1-4.16l2.31-6.29,5.48-1.03-.66,1.89c-.22.63-.45,1.32-.7,2.06-.3.91-.84,2.53-1.6,4.9l-2.26,6.87c3.07-1.48,5.56-3.27,7.45-5.35v2.27c-1.7,1.65-4.39,3.32-8.07,5.02-.96,2.67-1.96,4.71-3,6.14-1.76,2.38-3.77,3.58-6.05,3.58-1.89,0-2.84-.96-2.84-2.88,0-2.61,2.41-5,7.24-7.16l1.23-4.28c-2.52,2.8-4.75,4.2-6.67,4.2-1.15,0-2.05-.49-2.68-1.48-.5-.85-.74-1.89-.74-3.13Z"/>
              <path class="cls-3" d="M300.89,572.72v.45c3.45-.96,5.19-2.74,5.19-5.35,0-1.32-.48-1.98-1.44-1.98-1.18,0-2.14.89-2.88,2.68-.57,1.43-.86,2.83-.86,4.2ZM311.42,574.61v2.27c-1.62,1.59-2.98,2.71-4.08,3.38-1.62.98-3.28,1.48-4.98,1.48-1.87,0-3.35-.57-4.45-1.72-1.1-1.16-1.65-2.68-1.65-4.57,0-2.69.91-5.17,2.72-7.45,1.92-2.44,4.18-3.66,6.79-3.66,1.15,0,2.11.3,2.88.9.79.58,1.19,1.42,1.19,2.55,0,2.17-1.71,3.99-5.14,5.47-.91.38-2.13.81-3.67,1.28.52,2.6,1.92,3.91,4.2,3.91,1.57,0,3.33-.99,5.31-2.96l.87-.87Z"/>
              <path class="cls-3" d="M314.1,564.78l1.89-6.25,5.39-1.11-2.06,7,2.8-.17-.66,3.09-3.13.25-1.56,5.31c-.3,1.02-.45,1.99-.45,2.92,0,1.43.56,2.14,1.69,2.14s2.66-.95,4.53-2.84c.06-.05.13-.14.21-.25l.25-.25v2.27c-3.27,3.23-5.9,4.85-7.9,4.85-1.32,0-2.32-.57-3.01-1.72-.58-.94-.86-2.1-.86-3.5,0-1.29.25-2.8.74-4.52l1.15-4.03-1.56.08.66-3.17,1.89-.08Z"/>
              <path class="cls-3" d="M328.59,569.02c1.48-1.62,2.77-3.54,3.87-5.76,1.24-2.49,1.85-4.7,1.85-6.62,0-1.1-.26-1.65-.78-1.65-.71,0-1.7,2.02-2.97,6.05-.57,1.87-1.23,4.53-1.98,7.98ZM336.28,574.61v2.27c-3.54,3.23-6.45,4.85-8.73,4.85-1.59,0-2.81-.64-3.66-1.93-.74-1.09-1.11-2.48-1.11-4.16,0-3.73,1.13-8.59,3.38-14.57.85-2.22,1.81-4.38,2.88-6.46l5.1-1.89c.14-.05.26-.08.37-.08.88,0,1.32,1.06,1.32,3.17,0,2.93-.78,5.86-2.35,8.77-1.18,2.22-2.99,4.68-5.43,7.37-.11,1.42-.17,2.39-.17,2.88,0,.96.15,1.77.45,2.42.41.91,1.04,1.36,1.89,1.36,1.37,0,3.15-1.09,5.35-3.29l.7-.7Z"/>
              <path class="cls-3" d="M340.77,572.72v.45c3.46-.96,5.19-2.74,5.19-5.35,0-1.32-.48-1.98-1.44-1.98-1.18,0-2.14.89-2.88,2.68-.58,1.43-.86,2.83-.86,4.2ZM351.31,574.61v2.27c-1.62,1.59-2.98,2.71-4.07,3.38-1.62.98-3.28,1.48-4.98,1.48-1.87,0-3.35-.57-4.45-1.72-1.1-1.16-1.65-2.68-1.65-4.57,0-2.69.91-5.17,2.72-7.45,1.92-2.44,4.19-3.66,6.79-3.66,1.15,0,2.11.3,2.88.9.8.58,1.19,1.42,1.19,2.55,0,2.17-1.71,3.99-5.14,5.47-.9.38-2.13.81-3.67,1.28.52,2.6,1.92,3.91,4.2,3.91,1.56,0,3.33-.99,5.31-2.96l.86-.87Z"/>
              <path class="cls-3" d="M350.85,576.84v-1.69c1.24-1.24,2.18-2.43,2.84-3.58-1.15-.52-1.73-1.27-1.73-2.26,0-1.56.55-2.92,1.65-4.08.63-.66,1.4-.99,2.31-.99,1.04,0,1.56.54,1.56,1.6,0,.85-.3,2.06-.9,3.62,1.37-.22,2.55-.81,3.54-1.77.71-.72,1.48-1.83,2.3-3.33l1.81-.08-1.85,5.14c-.38,1.07-.77,2.16-1.15,3.26-.46,1.4-.7,2.48-.7,3.25,0,1.24.48,1.85,1.44,1.85.8,0,1.94-.74,3.42-2.22l.95-.95v2.27c-3.35,3.27-5.94,4.9-7.78,4.9-.91,0-1.62-.36-2.14-1.07-.52-.72-.78-1.54-.78-2.47,0-1.89,1.02-4.43,3.05-7.62-1.02.49-2.1.85-3.25,1.07-.9,1.65-2.28,3.36-4.12,5.14h-.45Z"/>
              <path class="cls-3" d="M371.14,556.21l.25.17c.83.55,1.59.82,2.31.82s1.43-.26,2.14-.78c0,3.21-1.18,4.82-3.54,4.82-1.15,0-2.14-.34-2.96-1.03.77-1.2,1.37-2.54,1.81-3.99ZM368.8,565.97l.25-.61,5.35-1.07-2.02,6.3c-.85,2.66-1.27,4.51-1.27,5.55s.36,1.48,1.07,1.48c.9,0,2.11-.84,3.62-2.51.16-.16.3-.33.41-.49v2.27c-3.13,3.27-5.46,4.9-7,4.9-1.02,0-1.8-.54-2.35-1.6-.44-.85-.66-1.84-.66-2.97,0-3.18.87-6.93,2.59-11.24Z"/>
              <path class="cls-3" d="M376.21,581.77l-.04-.49c-.11-1.32-.16-2.48-.16-3.5,0-3.79,1.05-8,3.17-12.64l4.9-.94c-.58,1.56-.96,2.65-1.15,3.25-.38,1.23-.67,2.33-.86,3.29l.78-.87c3.4-3.76,6.04-5.64,7.9-5.64.71,0,1.29.27,1.73.83.44.52.66,1.15.66,1.89,0,1.29-.57,3.4-1.73,6.34-.8,2.03-1.19,3.34-1.19,3.95,0,.79.33,1.19.99,1.19.38,0,.86-.22,1.44-.66,1.07-.82,2.17-1.88,3.3-3.17v2.22c-3.07,3.27-5.72,4.9-7.94,4.9-.96,0-1.7-.32-2.22-.95-.52-.66-.78-1.48-.78-2.47,0-1.46.59-3.65,1.77-6.59.55-1.37.87-2.38.95-3.01,0-.44-.16-.66-.49-.66-.85,0-2.51,1.53-4.98,4.57l-.91,1.11c-.44,2.28-.66,4.35-.66,6.22v.82l-4.45.99Z"/>
            </g>
            <g>
              <path class="cls-3" d="M417.21,583.61c-3.43,1.54-5.14,3.27-5.14,5.19,0,.91.38,1.36,1.15,1.36,1.48,0,2.81-2.18,3.99-6.54ZM408.94,576.94c0-2.08.43-4.25,1.28-6.5l1.93-5.11,5.84-1.03-2.51,5.97c-.33.79-.7,1.88-1.11,3.25-.44,1.54-.66,2.62-.66,3.25,0,1.21.43,1.81,1.27,1.81,1.04,0,2.18-.93,3.42-2.8.85-1.32,1.55-2.7,2.1-4.16l2.3-6.3,5.48-1.03-.66,1.89c-.22.63-.45,1.32-.7,2.06-.3.91-.84,2.54-1.6,4.9l-2.26,6.87c3.07-1.48,5.55-3.27,7.45-5.35v2.26c-1.7,1.65-4.39,3.32-8.07,5.02-.96,2.66-1.96,4.71-3,6.13-1.76,2.39-3.77,3.58-6.05,3.58-1.89,0-2.84-.96-2.84-2.88,0-2.61,2.41-5,7.25-7.16l1.24-4.28c-2.53,2.8-4.75,4.2-6.67,4.2-1.15,0-2.04-.49-2.67-1.48-.49-.85-.74-1.89-.74-3.13Z"/>
              <path class="cls-3" d="M441.04,565.95c-1.13,0-2.21.79-3.25,2.39-1.56,2.39-2.35,4.81-2.35,7.28,0,.63.16,1.19.49,1.69s.79.74,1.4.74c1.07,0,2.12-.81,3.17-2.43,1.59-2.47,2.39-4.91,2.39-7.33,0-1.57-.62-2.35-1.86-2.35ZM441.74,577.07l.04-.83c-2.58,3.71-4.98,5.56-7.2,5.56-1.35,0-2.41-.63-3.21-1.89-.68-1.1-1.03-2.36-1.03-3.79,0-2.66,1.08-5.29,3.25-7.86,2.25-2.69,4.67-4.03,7.24-4.03,1.65,0,2.81.78,3.5,2.35l4.12-2.26h1.11l-1.77,5.89c-.41,1.37-.77,2.78-1.07,4.24-.19.93-.28,1.55-.28,1.85,0,1.15.41,1.73,1.23,1.73.66,0,1.84-.85,3.54-2.55.08-.06.21-.18.37-.37l.37-.41v2.26c-.14.14-.41.4-.82.78-2.8,2.71-4.91,4.08-6.34,4.08-1.12,0-1.96-.54-2.51-1.6-.41-.88-.59-1.92-.54-3.13Z"/>
              <path class="cls-3" d="M451.49,576.9v-1.68c3.35-3.65,5.56-7,6.63-10.05.55-.16,1.3-.33,2.26-.49l1.65-.29c.16-.03.35-.04.57-.04.14,0,.2.05.2.16,0,.19-.05.39-.16.61-.22.6-.33,1.19-.33,1.77,0,.66.36,1.52,1.07,2.59.93,1.4,1.4,2.6,1.4,3.62,0,2.11-.99,4.1-2.97,5.97-1.97,1.84-4.02,2.76-6.13,2.76-.74,0-1.49-.19-2.26-.57-.9-.44-1.36-.99-1.36-1.65,0-.3.3-.83.9-1.56.88-1.07,1.48-1.61,1.81-1.61.44,0,.79.47,1.07,1.4.38,1.26.98,1.89,1.81,1.89s1.62-.38,2.3-1.15c.69-.77,1.03-1.58,1.03-2.42,0-.74-.43-1.87-1.28-3.38-1.07-1.87-1.69-3.04-1.85-3.54-1.62,2.53-3.59,5.08-5.93,7.65h-.45ZM464.87,578.09l1.03-.91c.63-.55,1.42-1.38,2.35-2.51v2.26c-1.15,1.26-2.44,2.4-3.87,3.42-.47.33-.77.52-.91.57-.08,0-.18-.17-.28-.53-.11-.36-.17-.6-.17-.74,0-.11.27-.37.83-.78.25-.16.59-.42,1.03-.78ZM456.27,581.59l.33-.37h2.06l-1.28,1.48c1.82.33,2.72,1.32,2.72,2.96,0,1.51-.89,2.7-2.68,3.58-1.46.72-3,1.07-4.65,1.07h-1.4l.28-1.61h.87c.82,0,1.56-.22,2.22-.66.69-.41,1.03-1,1.03-1.77,0-1.18-.71-1.8-2.14-1.86.66-.66,1.54-1.61,2.63-2.84Z"/>
              <path class="cls-3" d="M478.78,565.95c-1.12,0-2.21.79-3.26,2.39-1.56,2.39-2.35,4.81-2.35,7.28,0,.63.17,1.19.49,1.69.33.49.79.74,1.4.74,1.07,0,2.13-.81,3.17-2.43,1.59-2.47,2.39-4.91,2.39-7.33,0-1.57-.62-2.35-1.85-2.35ZM479.48,577.07l.04-.83c-2.58,3.71-4.98,5.56-7.2,5.56-1.35,0-2.41-.63-3.21-1.89-.69-1.1-1.03-2.36-1.03-3.79,0-2.66,1.08-5.29,3.25-7.86,2.25-2.69,4.67-4.03,7.24-4.03,1.65,0,2.81.78,3.5,2.35l4.11-2.26h1.11l-1.77,5.89c-.41,1.37-.77,2.78-1.07,4.24-.19.93-.29,1.55-.29,1.85,0,1.15.41,1.73,1.24,1.73.66,0,1.83-.85,3.54-2.55.08-.06.2-.18.37-.37l.37-.41v2.26c-.14.14-.42.4-.83.78-2.8,2.71-4.91,4.08-6.34,4.08-1.13,0-1.96-.54-2.51-1.6-.41-.88-.59-1.92-.53-3.13Z"/>
              <path class="cls-3" d="M492.37,564.84l1.89-6.25,5.39-1.11-2.06,6.99,2.8-.16-.66,3.09-3.13.25-1.56,5.31c-.3,1.02-.45,1.99-.45,2.92,0,1.42.56,2.14,1.69,2.14s2.66-.95,4.52-2.84c.06-.06.13-.14.21-.25l.24-.25v2.26c-3.26,3.24-5.9,4.86-7.9,4.86-1.32,0-2.32-.58-3-1.73-.58-.93-.87-2.1-.87-3.5,0-1.29.25-2.8.74-4.53l1.15-4.03-1.56.08.66-3.17,1.89-.08Z"/>
              <path class="cls-3" d="M502,580.52c-.57-.85-.86-1.93-.86-3.25,0-3.16.86-6.9,2.59-11.24l.25-.62,5.35-1.07-2.02,6.29c-.85,2.66-1.28,4.51-1.28,5.55s.36,1.48,1.07,1.48c.91,0,2.11-.84,3.62-2.51.17-.17.3-.33.42-.49v2.26c-1.76,1.84-3.17,3.1-4.24,3.79l-4.9-.2Z"/>
              <path class="cls-3" d="M516.73,569.08c1.48-1.62,2.77-3.54,3.87-5.77,1.23-2.5,1.85-4.71,1.85-6.63,0-1.1-.26-1.65-.78-1.65-.72,0-1.7,2.01-2.96,6.05-.58,1.87-1.23,4.53-1.98,7.99ZM524.43,574.68v2.26c-3.54,3.24-6.45,4.86-8.73,4.86-1.59,0-2.81-.65-3.66-1.93-.74-1.1-1.11-2.48-1.11-4.16,0-3.73,1.13-8.59,3.38-14.57.85-2.22,1.81-4.38,2.88-6.46l5.1-1.9c.14-.05.26-.08.37-.08.88,0,1.32,1.06,1.32,3.17,0,2.94-.78,5.86-2.35,8.77-1.18,2.22-2.99,4.68-5.43,7.37-.11,1.42-.16,2.39-.16,2.88,0,.96.15,1.77.45,2.43.41.91,1.04,1.36,1.89,1.36,1.37,0,3.16-1.1,5.35-3.29l.7-.7Z"/>
              <path class="cls-3" d="M534.8,565.83c-.98,0-1.97.77-2.96,2.31-1.62,2.52-2.43,5.02-2.43,7.49,0,1.59.65,2.39,1.93,2.39,1.07,0,2.1-.77,3.09-2.3,1.54-2.36,2.3-4.79,2.3-7.29,0-1.73-.64-2.59-1.93-2.59ZM537.47,565.62l2.88-12.02c2.25-.52,3.83-.79,4.73-.83.27,0,.41.11.41.33v.04c-.16,1.02-.45,2.21-.86,3.58-.79,2.71-1.6,5.94-2.43,9.67-.68,3.1-1.17,5.55-1.44,7.37-.19,1.2-.29,2.04-.29,2.51,0,1.13.38,1.69,1.15,1.69.83,0,2.1-.95,3.83-2.84l.42-.45v2.26l-.78.78c-2.72,2.71-4.82,4.08-6.3,4.08-2.08,0-3.12-1.8-3.12-5.39-2.34,3.59-4.69,5.39-7.08,5.39-1.26,0-2.3-.59-3.13-1.77-.77-1.07-1.15-2.26-1.15-3.58,0-2.8.99-5.47,2.96-8.03,2.11-2.74,4.54-4.11,7.28-4.11,1.07,0,2.05.44,2.93,1.32Z"/>
              <path class="cls-3" d="M546.61,580.52c-.57-.85-.86-1.93-.86-3.25,0-3.16.86-6.9,2.59-11.24l.25-.62,5.35-1.07-2.01,6.29c-.85,2.66-1.28,4.51-1.28,5.55s.36,1.48,1.07,1.48c.91,0,2.11-.84,3.62-2.51.16-.17.3-.33.41-.49v2.26c-1.76,1.84-3.17,3.1-4.24,3.79l-4.9-.2Z"/>
              <path class="cls-3" d="M565.75,565.62c-1.23,0-2.35.74-3.34,2.22-1.32,1.97-1.97,4.16-1.97,6.54,0,2,.7,3,2.1,3,1.65,0,2.96-1.65,3.95-4.94.6-2,.91-3.54.91-4.61,0-.55-.15-1.06-.45-1.53-.27-.46-.67-.7-1.2-.7ZM564.23,582.5c-4.34,1.56-6.51,3.36-6.51,5.39,0,1.34.65,2.02,1.93,2.02,1.76,0,3.28-2.47,4.57-7.41ZM568.76,565.75c.71-.25,1.83-.72,3.33-1.4l.46-.21h.45c-.52,1.57-.92,3.1-1.19,4.61l-1.89,10.08c1.76-.68,3.61-2.07,5.55-4.16v2.26c-1.78,1.65-3.81,2.9-6.09,3.74-.88,2.74-2,5.05-3.38,6.92-1.89,2.55-3.99,3.83-6.3,3.83-1.07,0-1.92-.33-2.55-.99-.63-.63-.95-1.48-.95-2.55,0-2.2,1.56-4.08,4.69-5.64.91-.47,2.15-.96,3.74-1.48l.86-3.95c-2.49,2.8-4.55,4.2-6.17,4.2-1.29,0-2.28-.65-2.97-1.93-.55-1.04-.82-2.28-.82-3.7,0-2.61.96-5.1,2.88-7.49,2.03-2.53,4.32-3.79,6.87-3.79,1.29,0,2.45.55,3.46,1.65ZM571.22,556.11l.37-.53.04,1.44-.57.82c-2.11,3.02-4.02,4.53-5.72,4.53s-2.68-1.26-2.68-3.79v-.58l3.62-1.23c.03,1.89.44,2.84,1.24,2.84.85,0,2.08-1.17,3.7-3.5Z"/>
              <path class="cls-3" d="M576.2,580.52c-.57-.85-.86-1.93-.86-3.25,0-3.16.86-6.9,2.59-11.24l.25-.62,5.35-1.07-2.02,6.29c-.85,2.66-1.28,4.51-1.28,5.55s.36,1.48,1.07,1.48c.91,0,2.11-.84,3.62-2.51.16-.17.3-.33.41-.49v2.26c-1.76,1.84-3.17,3.1-4.24,3.79l-4.9-.2Z"/>
            </g>
            <g>
              <path class="cls-3" d="M599.06,576.23v-1.69c3.34-3.65,5.55-6.99,6.63-10.04.55-.17,1.3-.33,2.26-.49l1.65-.29c.17-.03.36-.04.58-.04.14,0,.21.06.21.17,0,.19-.05.39-.16.61-.22.6-.33,1.19-.33,1.77,0,.66.36,1.53,1.07,2.59.93,1.4,1.4,2.61,1.4,3.62,0,2.11-.99,4.1-2.97,5.97-1.97,1.84-4.02,2.76-6.13,2.76-.74,0-1.49-.19-2.26-.57-.91-.44-1.36-.99-1.36-1.65,0-.3.3-.83.91-1.57.88-1.07,1.48-1.6,1.81-1.6.44,0,.79.47,1.07,1.4.39,1.26.99,1.89,1.82,1.89s1.62-.38,2.3-1.15c.68-.77,1.03-1.58,1.03-2.43,0-.74-.43-1.87-1.28-3.38-1.07-1.86-1.69-3.04-1.85-3.54-1.62,2.53-3.6,5.08-5.93,7.66h-.46ZM612.43,577.42l1.03-.91c.63-.55,1.41-1.39,2.35-2.51v2.27c-1.15,1.26-2.44,2.4-3.87,3.41-.46.33-.77.53-.9.58-.08,0-.18-.18-.28-.54-.11-.35-.17-.6-.17-.74,0-.1.27-.37.83-.78.25-.17.59-.43,1.02-.78ZM603.83,580.92l.33-.37h2.06l-1.28,1.48c1.81.33,2.72,1.32,2.72,2.97,0,1.51-.89,2.7-2.68,3.58-1.46.71-3,1.07-4.65,1.07h-1.4l.28-1.6h.87c.82,0,1.56-.22,2.22-.66.69-.41,1.03-1,1.03-1.77,0-1.18-.72-1.79-2.14-1.85.66-.66,1.54-1.6,2.64-2.84Z"/>
              <path class="cls-3" d="M620.29,572.11v.46c3.46-.96,5.19-2.74,5.19-5.35,0-1.32-.48-1.97-1.44-1.97-1.18,0-2.14.89-2.88,2.67-.57,1.43-.86,2.83-.86,4.2ZM630.83,574.01v2.27c-1.61,1.59-2.98,2.71-4.07,3.38-1.62.98-3.28,1.48-4.98,1.48-1.87,0-3.35-.57-4.44-1.72-1.1-1.15-1.65-2.68-1.65-4.57,0-2.69.91-5.17,2.71-7.45,1.92-2.45,4.19-3.67,6.79-3.67,1.15,0,2.11.3,2.88.91.79.58,1.19,1.43,1.19,2.55,0,2.17-1.72,3.99-5.14,5.47-.9.38-2.12.81-3.67,1.28.52,2.61,1.92,3.91,4.2,3.91,1.56,0,3.33-.99,5.31-2.96l.86-.87Z"/>
              <path class="cls-3" d="M636.64,568.04c4.74-5.54,7.12-9.65,7.12-12.31,0-.8-.21-1.19-.62-1.19-1.07,0-2.49,2.14-4.28,6.42-.77,1.83-1.5,4.2-2.22,7.08ZM647.79,566.35c0,1.24-.58,3.38-1.73,6.42-.77,2.03-1.15,3.34-1.15,3.95,0,.74.3,1.11.91,1.11.85,0,2.43-1.27,4.73-3.83v2.27c-3.16,3.27-5.76,4.9-7.82,4.9-.93,0-1.7-.3-2.3-.91-.58-.63-.87-1.41-.87-2.35,0-1.59.62-3.85,1.86-6.79.66-1.57.98-2.59.98-3.09,0-.55-.26-.83-.78-.83-1.26,0-3.11,1.36-5.56,4.08-.46,2.61-.7,5.57-.7,8.89l-4.49.99c-.16-1.37-.25-2.88-.25-4.53,0-4.06.59-7.91,1.77-11.57,1.07-3.23,2.76-6.75,5.06-10.53,1.59-.49,3.83-1.3,6.71-2.43h.12c.44,0,.78.41,1.03,1.24.16.55.25,1.13.25,1.73,0,2.49-1.81,6.14-5.43,10.95.36-.19.72-.39,1.07-.62,1.92-1.15,3.35-1.73,4.28-1.73.74,0,1.3.26,1.69.78.42.52.62,1.15.62,1.89Z"/>
              <path class="cls-3" d="M655.36,555.61l.24.17c.83.55,1.59.82,2.31.82s1.42-.26,2.14-.78c0,3.21-1.18,4.82-3.54,4.82-1.15,0-2.14-.34-2.97-1.03.77-1.21,1.37-2.54,1.81-4ZM653.01,565.36l.25-.61,5.35-1.07-2.02,6.3c-.85,2.66-1.27,4.51-1.27,5.55s.36,1.48,1.07,1.48c.91,0,2.11-.84,3.62-2.51.16-.16.3-.33.41-.49v2.27c-3.13,3.27-5.46,4.9-6.99,4.9-1.02,0-1.8-.54-2.35-1.6-.44-.85-.66-1.84-.66-2.96,0-3.19.87-6.93,2.59-11.24Z"/>
              <path class="cls-3" d="M659.97,576.23v-1.69c1.24-1.24,2.18-2.43,2.84-3.58-1.15-.52-1.73-1.27-1.73-2.26,0-1.56.55-2.92,1.65-4.08.63-.66,1.4-.99,2.3-.99,1.05,0,1.57.54,1.57,1.61,0,.85-.3,2.06-.9,3.62,1.37-.22,2.55-.81,3.54-1.77.71-.72,1.48-1.83,2.3-3.34l1.81-.08-1.85,5.14c-.38,1.07-.77,2.16-1.15,3.26-.47,1.4-.7,2.48-.7,3.25,0,1.24.48,1.85,1.44,1.85.79,0,1.93-.74,3.42-2.22l.94-.95v2.27c-3.34,3.27-5.94,4.9-7.78,4.9-.9,0-1.61-.36-2.14-1.07-.52-.72-.78-1.54-.78-2.47,0-1.89,1.02-4.43,3.04-7.62-1.02.49-2.1.85-3.25,1.07-.91,1.65-2.28,3.36-4.12,5.14h-.45Z"/>
            </g>
          </g>
          <path class="cls-5" d="M321.57,358.48h-1.48v-21.73l-1.36-3.33v-1.98l-.12-3.58c-.54-9.72-9.68-14.24-11.95-15.21,4.29-2.62,8.88-2.26,10.64-1.93.68.18,1.24.36,1.77.56,2.12.8,3.81,1.92,5.14,3.22.18.17.35.35.52.53.21.22.41.45.6.69-2.29,3.66-1.92,11.78-1.92,11.78v5.43l1.48,3.21v22.35h-3.32Z"/>
        </g>
      </g>
    </g>
  </g>
</svg>