<?xml version="1.0" encoding="iso-8859-1"?>
<!-- Generator: Adobe Illustrator 29.7.1, SVG Export Plug-In . SVG Version: 9.03 Build 0)  -->
<svg version="1.1" xmlns="http://www.w3.org/2000/svg" xmlns:xlink="http://www.w3.org/1999/xlink" x="0px" y="0px"
	 viewBox="0 0 841 1190" style="enable-background:new 0 0 841 1190;" xml:space="preserve">
<g id="Background">
</g>
<g id="Foreground">
	<g>
		<rect x="4.442" y="124.987" style="fill-rule:evenodd;clip-rule:evenodd;fill:none;" width="832.542" height="832.458"/>
		<g>
			<path style="fill-rule:evenodd;clip-rule:evenodd;fill:#004730;" d="M165.619,445.36l1.904,70.171
				c0.1,4.592,0.344,7.813,0.736,9.669c0.781,4.197,2.441,6.64,4.981,7.324c2.146,0.586,4.592,0.881,7.324,0.881
				c0.781,0,1.17,0.292,1.17,0.878c0,0.776-0.878,1.168-2.635,1.168l-15.528-0.437l-14.066,0.437c-1.562,0-2.34-0.392-2.34-1.168
				c0-0.586,0.389-0.878,1.17-0.878c5.47,0,8.644-1.809,9.522-5.422c0.586-2.44,0.878-7.129,0.878-14.063l0.147-83.943
				c0-4.881,0.536-7.324,1.615-7.324c0.389,0,0.826,0.244,1.315,0.734c0.489,0.389,1.126,1.025,1.904,1.904
				c0.295,0.292,0.881,0.928,1.759,1.904c0.881,0.978,11.181,12.113,30.912,33.4l24.317,26.079
				c0.781,0.778,4.589,4.981,11.426,12.599c3.319,3.711,8.399,9.225,15.236,16.551l-1.612-74.418
				c-0.097-3.908-0.342-6.643-0.734-8.205c-0.781-3.224-2.44-5.128-4.981-5.714c-2.051-0.486-4.444-0.731-7.179-0.731
				c-0.778,0-1.17-0.342-1.17-1.026c0-0.684,0.976-1.026,2.93-1.026c1.662,0,4.2,0.1,7.618,0.295
				c3.419,0.097,5.959,0.145,7.618,0.145c0.586,0,2.098-0.047,4.541-0.145c3.808-0.195,6.446-0.295,7.91-0.295
				c1.757,0,2.638,0.342,2.638,1.026c0,0.587-0.734,0.978-2.198,1.173c-0.976,0.097-1.954,0.195-2.93,0.292
				c-2.735,0.586-4.394,2.296-4.981,5.128c-0.292,1.073-0.439,3.711-0.439,7.91l-0.295,85.846c0,6.935-0.437,10.398-1.32,10.398
				c-0.684,0-1.562-0.489-2.635-1.462c-1.659-1.565-4.347-4.2-8.057-7.91c-3.224-2.54-7.032-6.154-11.429-10.84
				c-3.513-3.908-7.079-7.813-10.692-11.721c-3.319-3.516-8.691-9.23-16.115-17.14l-15.381-16.554
				c-2.246-2.538-6.056-6.788-11.426-12.746L165.619,445.36z"/>
			<path style="fill-rule:evenodd;clip-rule:evenodd;fill:#004730;" d="M486.588,492.971v-25.784c0-17.09-0.095-27.638-0.289-31.641
				c-0.1-2.638-0.589-4.541-1.468-5.714c-0.778-1.27-2.393-2.151-4.833-2.638c-1.367-0.292-3.029-0.439-4.981-0.439
				c-0.784,0-1.173-0.295-1.173-0.878c0-0.781,0.784-1.173,2.346-1.173c2.34,0,5.806,0.1,10.398,0.295
				c4.691,0.097,6.743,0.145,6.153,0.145l25.929-0.439c16.798,0,30.278,2.59,40.434,7.763c4.591,2.346,8.646,5.323,12.16,8.939
				c9.472,9.767,14.211,22.168,14.211,37.208c0,16.506-5.322,30.326-15.967,41.46c-10.645,11.134-25.392,16.699-44.242,16.699
				c-5.175,0-11.918-0.295-20.217-0.878l-12.307-0.878l-14.353,0.437c-1.562,0-2.346-0.392-2.346-1.168
				c0-0.586,0.389-0.878,1.173-0.878c1.367,0,2.83-0.197,4.397-0.589c2.341-0.586,3.755-3.271,4.244-8.057
				C486.346,520.364,486.588,509.766,486.588,492.971z M498.895,464.843v18.166c0,17.579,0.1,28.175,0.295,31.79
				c0.295,6.346,0.831,10.059,1.609,11.132c2.64,3.908,10.94,5.862,24.903,5.862c9.183,0,17.529-2.101,25.056-6.301
				c9.078-5.078,15.231-12.551,18.455-22.413c2.051-6.348,3.077-12.991,3.077-19.923c0-14.845-4.691-27.152-14.064-36.918
				c-6.248-6.445-13.574-10.939-21.974-13.477c-6.737-2.051-15.384-3.077-25.929-3.077c-3.713,0-5.959,0.05-6.743,0.147
				c-2.93,0.489-4.444,1.757-4.539,3.811C498.947,436.569,498.895,446.969,498.895,464.843z"/>
			<path style="fill-rule:evenodd;clip-rule:evenodd;fill:#004730;" d="M604.908,492.971v-25.784c0-17.09-0.1-27.638-0.294-31.641
				c-0.1-2.638-0.584-4.541-1.468-5.714c-0.778-1.27-2.393-2.151-4.833-2.638c-1.367-0.292-3.029-0.439-4.981-0.439
				c-0.778,0-1.173-0.295-1.173-0.878c0-0.781,0.784-1.173,2.346-1.173c2.346,0,5.812,0.1,10.403,0.295
				c4.686,0.097,6.737,0.145,6.148,0.145l58.926-0.145c2.54-0.195,4.639-0.442,6.296-0.734c0.294,0,0.636-0.097,1.025-0.294
				c0.394-0.292,0.736-0.437,1.031-0.437c0.389,0,0.584,0.437,0.584,1.317c0,0.489-0.194,1.609-0.584,3.369
				c-0.394,1.659-0.589,2.832-0.589,3.516c0,0.194-0.047,0.731-0.147,1.612c0-0.684-0.047,0.342-0.142,3.077
				c-0.1,2.635-0.247,4.297-0.442,4.981c-0.295,1.076-0.636,1.612-1.026,1.612c-0.784,0-1.173-0.636-1.173-1.907
				c0-4.1-1.268-6.932-3.808-8.497c-1.173-0.684-3.661-1.268-7.474-1.757c-2.535-0.295-34.602-0.439-45.446-0.439
				c-0.584,0-0.878,0.487-0.878,1.465v40.432c0,0.976,0.295,1.465,0.878,1.465c12.896,0,34.165-0.097,36.805-0.294
				c3.513-0.292,5.812-1.023,6.885-2.196c1.173-1.173,1.904-1.757,2.198-1.757c0.484,0,0.731,0.392,0.731,1.17
				c0,0.978-0.147,2.346-0.442,4.102c-0.389,2.051-0.631,3.419-0.731,4.102c-0.1,2.246-0.194,4.542-0.294,6.885
				c-0.289,3.516-0.731,5.275-1.315,5.275c-0.684,0-1.026-0.442-1.026-1.32c0-6.053-2.735-9.375-8.205-9.961
				c-4.691-0.487-25.182-0.731-34.454-0.731c-0.689,0-1.031,0.342-1.031,1.023v37.944c0,3.808,0.589,6.59,1.762,8.349
				c2.624,5.728,24.514,3.663,32.913,3.663c7.715,0,20.538-0.781,23.078-2.343c2.535-1.562,4.297-4.836,5.275-9.817
				c0.289-1.465,0.731-2.196,1.315-2.196c0.589,0,0.878,0.731,0.878,2.196c0,4.102-0.631,8.839-1.904,14.211
				c-0.389,1.856-1.026,2.93-1.904,3.221c-0.878,0.389-2.882,0.145-6.006,0.145c-8.983,0-42.465,0.295-49.691,0l-11.871-0.437
				c-1.562,0-3.95,0.045-7.174,0.145c-3.224,0.195-5.617,0.292-7.179,0.292c-1.562,0-2.346-0.392-2.346-1.168
				c0-0.586,0.389-0.878,1.173-0.878c1.951,0,3.613-0.247,4.981-0.734c1.957-0.684,3.177-3.274,3.661-7.763
				C604.661,520.414,604.908,509.766,604.908,492.971z"/>
			<path style="fill-rule:evenodd;clip-rule:evenodd;fill:#004730;" d="M446.485,523.002v-24.906c0-7.226-0.731-11.571-2.198-13.035
				c-0.973-0.878-2.44-1.562-4.392-2.051c-1.078-0.295-2.735-0.439-4.981-0.439c-0.784,0-1.173-0.292-1.173-0.881
				c0-0.781,0.779-1.17,2.34-1.17c2.346,0,5.812,0.097,10.403,0.292c4.691,0.097,6.737,0.147,6.154,0.147
				c1.367,0,3.324-0.05,5.859-0.147c5.175-0.195,8.01-0.292,8.499-0.292c1.562,0,2.34,0.389,2.34,1.17
				c0,0.392-1.609,0.831-4.833,1.32c-1.856,0.292-3.224,1.073-4.102,2.343c-0.778,1.27-1.22,3.271-1.315,6.006
				c-0.2,4.102-0.295,9.18-0.295,15.236v16.406c0,2.93-0.047,4.639-0.147,5.125c0,0.492-0.1,0.978-0.294,1.467
				c-0.195,0.486-0.684,0.928-1.462,1.317c-8.305,4.394-18.655,6.59-31.057,6.59c-20.216,0-36.283-5.222-48.196-15.673
				c-6.837-5.956-11.818-14.258-14.945-24.903c-1.659-5.567-2.49-11.181-2.49-16.848c0-14.647,4.055-27.002,12.16-37.06
				c6.737-8.302,15.184-13.966,25.345-16.993c7.616-2.249,16.259-3.371,25.927-3.371c7.126,0,14.6,0.831,22.415,2.49
				c4.002,0.881,7.958,1.367,11.865,1.465c1.173,0.1,1.757,0.536,1.757,1.32c0,1.17-0.1,2.832-0.295,4.981
				c-0.289,2.638-0.437,4.297-0.437,4.981c-0.195,3.516-0.295,7.129-0.295,10.84c0,2.051-0.442,3.077-1.32,3.077
				c-0.584,0-0.926-0.734-1.026-2.198c-0.389-4.786-1.904-8.594-4.539-11.426c-2.246-2.44-5.812-4.639-10.692-6.593
				c-5.864-2.343-13.285-3.516-22.27-3.516c-12.794,0-23.244,3.224-31.349,9.669c-9.669,7.716-14.505,20.12-14.505,37.21
				c0,11.915,2.929,22.51,8.794,31.788c2.538,3.908,4.781,6.837,6.737,8.791c10.84,10.451,23.633,15.676,38.382,15.676
				c7.421,0,12.991-1.025,16.698-3.079C445.512,527.054,446.485,525.345,446.485,523.002z"/>
			<path style="fill-rule:evenodd;clip-rule:evenodd;fill:#004730;" d="M411.416,416.872c-0.466-3.045-0.616-9.014,4.239-12.738
				c6.736-5.17,15.714-2.351,19.232-12.773c0,0,2.246,15.074-3.235,22.271c-4.202,5.517-11.672,6.453-17.344,5.651
				c17.575-4.77,19.469-21.829,19.469-21.829C430.833,411.132,415.666,415.855,411.416,416.872z"/>
			<g>
				<path style="fill-rule:evenodd;clip-rule:evenodd;fill:#A38043;" d="M162.7,608.274v-15.647h14.358
					c6.585,0,9.877,2.74,9.877,8.226c0,1.02-0.205,1.983-0.615,2.882c-0.41,0.899-1.02,1.699-1.841,2.393
					c-0.818,0.652-1.841,1.183-3.066,1.594c-1.228,0.368-2.68,0.552-4.355,0.552H162.7z M158.529,589.072v43.806h18.529
					c2.372,0,4.397-0.205,6.072-0.616c1.717-0.447,3.148-0.999,4.294-1.657c1.186-0.694,2.125-1.494,2.822-2.393
					c0.697-0.899,1.228-1.799,1.596-2.698c0.368-0.941,0.613-1.841,0.736-2.698c0.121-0.905,0.184-1.699,0.184-2.393
					c0-2.867-0.839-5.26-2.516-7.179c-1.675-1.962-3.926-3.129-6.748-3.497v-0.121c1.144-0.247,2.167-0.679,3.069-1.289
					c0.939-0.615,1.736-1.352,2.393-2.209c0.694-0.899,1.225-1.883,1.594-2.945c0.368-1.104,0.552-2.23,0.552-3.377
					c0-2.046-0.389-3.74-1.168-5.091c-0.776-1.388-1.82-2.493-3.129-3.313c-1.268-0.857-2.759-1.451-4.476-1.778
					c-1.678-0.368-3.437-0.552-5.275-0.552H158.529z M162.7,629.317v-17.482h14.358c3.719,0,6.564,0.715,8.525,2.146
					c2.004,1.388,3.008,3.497,3.008,6.317c0,1.762-0.31,3.235-0.92,4.418c-0.615,1.147-1.451,2.067-2.517,2.761
					c-1.065,0.694-2.29,1.189-3.681,1.473c-1.391,0.247-2.864,0.368-4.415,0.368H162.7z"/>
				<polygon style="fill-rule:evenodd;clip-rule:evenodd;fill:#A38043;" points="222.238,589.072 222.238,632.877 252.79,632.877 
					252.79,629.317 226.412,629.317 226.412,612.018 250.826,612.018 250.826,608.458 226.412,608.458 226.412,592.627 
					252.483,592.627 252.483,589.072 				"/>
				<polygon style="fill-rule:evenodd;clip-rule:evenodd;fill:#A38043;" points="281.409,589.072 281.409,632.877 310.12,632.877 
					310.12,629.317 285.58,629.317 285.58,589.072 				"/>
				<polygon style="fill-rule:evenodd;clip-rule:evenodd;fill:#A38043;" points="337.143,589.072 337.143,632.877 367.695,632.877 
					367.695,629.317 341.314,629.317 341.314,612.018 365.733,612.018 365.733,608.458 341.314,608.458 341.314,592.627 
					367.39,592.627 367.39,589.072 				"/>
				<path style="fill-rule:evenodd;clip-rule:evenodd;fill:#A38043;" d="M396.311,589.072v43.806h15.155
					c6.666-0.163,11.677-2.025,15.033-5.586c3.392-3.597,5.091-9.041,5.091-16.32s-1.699-12.696-5.091-16.257
					c-3.356-3.598-8.366-5.48-15.033-5.643H396.311z M400.485,629.317v-36.69h8.896c3.148,0,5.849,0.352,8.099,1.047
					c2.288,0.652,4.171,1.715,5.642,3.187c1.473,1.472,2.556,3.377,3.25,5.706s1.046,5.133,1.046,8.405s-0.352,6.075-1.046,8.405
					c-0.694,2.335-1.778,4.234-3.25,5.706c-1.471,1.473-3.354,2.556-5.642,3.25c-2.251,0.657-4.952,0.983-8.099,0.983H400.485z"/>
				<path style="fill-rule:evenodd;clip-rule:evenodd;fill:#A38043;" d="M461.432,595.383v37.494h4.176v-37.494H461.432z
					 M461.432,590.844h4.176v-6.196h-4.176V590.844z"/>
				<polygon style="fill-rule:evenodd;clip-rule:evenodd;fill:#A38043;" points="509.745,614.837 509.745,632.877 513.915,632.877 
					513.915,614.837 531.219,589.072 526.249,589.072 511.891,611.282 497.475,589.072 492.568,589.072 				"/>
				<polygon style="fill-rule:evenodd;clip-rule:evenodd;fill:#A38043;" points="557.81,589.072 557.81,632.877 588.362,632.877 
					588.362,629.317 561.981,629.317 561.981,612.018 586.4,612.018 586.4,608.458 561.981,608.458 561.981,592.627 
					588.057,592.627 588.057,589.072 				"/>
				<path style="fill-rule:evenodd;clip-rule:evenodd;fill:#A38043;" d="M618.945,618.456h-4.171
					c-0.126,2.703,0.221,5.012,1.041,6.937c0.857,1.92,2.067,3.492,3.619,4.723c1.557,1.225,3.434,2.146,5.643,2.761
					c2.209,0.568,4.602,0.857,7.179,0.857s4.786-0.247,6.627-0.736c1.841-0.452,3.371-1.041,4.602-1.778
					c1.268-0.778,2.246-1.636,2.945-2.577c0.736-0.941,1.289-1.862,1.657-2.761c0.405-0.941,0.652-1.82,0.736-2.64
					c0.121-0.815,0.184-1.472,0.184-1.962c0-1.799-0.31-3.335-0.92-4.602c-0.573-1.267-1.394-2.33-2.456-3.187
					c-1.02-0.904-2.23-1.641-3.619-2.209c-1.352-0.615-2.803-1.125-4.355-1.536l-10.677-2.64c-0.899-0.2-1.762-0.468-2.577-0.794
					c-0.779-0.326-1.473-0.757-2.088-1.289c-0.61-0.531-1.105-1.168-1.473-1.904c-0.326-0.779-0.489-1.678-0.489-2.698
					c0-1.636,0.305-3.008,0.92-4.113c0.615-1.105,1.409-1.983,2.393-2.635c1.02-0.694,2.188-1.189,3.498-1.473
					c1.346-0.326,2.74-0.489,4.171-0.489c1.557,0,3.029,0.221,4.418,0.673c1.431,0.41,2.677,1.041,3.745,1.898
					c1.099,0.821,1.983,1.862,2.635,3.129c0.694,1.231,1.083,2.682,1.168,4.36h4.171c0-2.251-0.452-4.213-1.352-5.891
					c-0.857-1.72-2.025-3.15-3.497-4.297c-1.473-1.147-3.187-2.004-5.149-2.577c-1.967-0.573-4.029-0.857-6.201-0.857
					c-3.066,0-5.58,0.447-7.542,1.352c-1.967,0.857-3.519,1.92-4.665,3.187c-1.105,1.267-1.862,2.619-2.272,4.05
					c-0.405,1.431-0.61,2.677-0.61,3.74c0,1.72,0.263,3.171,0.794,4.36c0.573,1.183,1.31,2.188,2.209,3.003
					c0.905,0.82,1.946,1.473,3.129,1.967c1.231,0.489,2.477,0.899,3.745,1.225l9.756,2.393c1.02,0.247,2.062,0.573,3.129,0.978
					c1.062,0.368,2.02,0.862,2.882,1.473c0.899,0.615,1.615,1.372,2.146,2.272c0.573,0.899,0.857,1.962,0.857,3.193
					c0,1.594-0.389,2.961-1.162,4.107c-0.779,1.105-1.762,2.025-2.945,2.761c-1.147,0.694-2.393,1.21-3.745,1.536
					c-1.346,0.326-2.598,0.489-3.74,0.489c-2.004,0-3.887-0.184-5.643-0.552c-1.762-0.41-3.292-1.062-4.602-1.962
					c-1.268-0.899-2.272-2.109-3.008-3.619C619.251,622.59,618.903,620.707,618.945,618.456z"/>
				<path style="fill-rule:evenodd;clip-rule:evenodd;fill:#A38043;" d="M678.729,595.383v37.494h4.171v-37.494H678.729z
					 M678.729,590.844h4.171v-6.196h-4.171V590.844z"/>
			</g>
			<path style="fill:#82591F;" d="M301.663,510.608c0,10.348,8.162,18.418,17.882,18.04c9.349-0.365,16.667-8.47,16.667-18.116
				c0-9.646-7.318-17.719-16.667-18.042C309.826,492.153,301.663,500.258,301.663,510.608z M293.877,444.871
				c-0.639,1.002-1.225,2.464-1.225,4.484v8.936l-2.722,4.765l-0.166,15.326l1.286,3.466l4.623-0.778l-0.268-19.502l-1.53-5.27
				v-11.392L293.877,444.871z M317.936,478.286l15.563,2.879l3.122-2.78l0.003-17.94l-2.212-3.569v-4.139
				c0.003-0.076,0.423-16.551-14.618-18.1c-2.356,0.003-3.921,0.281-4.865,0.497c-0.967,0.221-2.277,0.626-3.645,1.365
				c-2.708,1.46-5.672,4.229-6.65,9.559c-0.339,3.471-0.508,5.081-0.592,5.825l-0.074,0.584l-0.008,4.578l-2.719,4.421v18.929
				L317.936,478.286z M314.149,377.666l-0.005,7.516l0.781,1.801v8.939h1.893v2.877h-1.391c0,0.873,1.391,1.186,1.391,1.186v1.849
				l1.112,1.604c14.576,1.583,17.537,7.876,17.711,8.42v1.544h-2.377v8.036h2.064v-5.299h7.079v35.766v3.156l-1.052,4.078v19.271
				l2.546,4.978v3.429h5.054c0,0-1.628,3.632-2.935,8.115c-1.357,4.644-1.178,12.002-0.158,16.436
				c1.367,5.925,1.346,8.917,1.141,10.327h1.807c0,0,0.034,1.11-0.005,1.657c-0.04,0.552-0.134,1.286-0.339,2.02
				c-0.352,1.254-1.141,2.83-2.861,3.193v3.203c0.016,0.184,0.074,1.094-0.047,2.078c-0.11,0.868-0.4,2.143-1.315,2.809v7.183
				c-13.985,8.026-38.515,7.715-50.156,5.554l-0.302-0.053l-11.894-10.244v-1.512l-1.751-2.251c0,0-0.26-2.598-0.071-6.395
				c-1.57-0.852-2.277-2.235-2.577-3.4c-0.332-1.297-0.189-2.401-0.182-2.454l0.105-0.786l2.375-0.239
				c-0.063-1.58-0.013-4.823,1.11-8.018c0.723-4.284,1.246-6.23,1.246-11.223c0-5.065-1.173-8.607-2.314-10.861
				c-0.573-1.128-1.141-1.941-1.557-2.461c-0.389-0.492-1.089-1.12-1.094-1.126l-1.354-1.549h6.574v-2.269l2.038-6.119v-15.21
				l-1.783-4.847v-27.125l-1.531-2.041v-6.963v-6.104h5.575v4.447l4.187-2.666v-1.988v-2.53h-2.401v-1.544
				c0.179-0.555,3.177-7.116,18.626-8.347l1.175-1.678v-1.949c0,0,1.252-0.245,1.252-0.989h-1.144v-3.074h1.919v-5.83v-3.008
				l0.642-1.801v-7.481c0.489,0.11,0.999,0.168,1.525,0.168C313.058,377.869,313.615,377.798,314.149,377.666z M344.243,561.754
				v2.088c-13.201,9.22-37.721,7.006-49.959,4.739l-12.394-11.529v-1.841l12.394,11.013
				C306.402,568.476,330.948,570.669,344.243,561.754z M344.243,553.239v3.755c-13.296,8.946-37.842,8.157-49.959,5.911
				l-12.394-11.018v-5.018l12.725,10.961C306.697,560.035,331.203,561.723,344.243,553.239z M344.243,546.081v4.092
				c-13.754,8.357-38.286,7.9-50.296,5.669l-12.057-10.345V539.5l12.891,11.157C306.799,552.829,331.289,554.281,344.243,546.081z"
				/>
			<path style="fill-rule:evenodd;clip-rule:evenodd;fill:#82591F;" d="M291.657,448.587l46.951-0.124v1.975h-47.69L291.657,448.587
				z"/>
			<path style="fill-rule:evenodd;clip-rule:evenodd;fill:#82591F;" d="M303.31,510.603c0,9.399,7.4,16.751,16.236,16.433
				c8.531-0.305,15.231-7.687,15.231-16.501c0-8.812-6.701-16.167-15.231-16.436C310.709,493.823,303.31,501.207,303.31,510.603z
				 M302.423,510.605c0-9.909,7.813-17.682,17.122-17.374c8.972,0.3,16.004,8.039,16.004,17.303c0,9.262-7.032,17.033-16.004,17.369
				C310.236,528.253,302.423,520.514,302.423,510.605z"/>
			<path style="fill:#82591F;" d="M327.003,504.391l4.812-3.689c0.284,0.41,0.484,0.721,0.673,1.036l-4.815,3.692
				C327.419,504.993,327.219,504.686,327.003,504.391z M328.476,497.199l-3.193,5.375c-0.392-0.31-0.689-0.518-0.994-0.71
				l3.187-5.38C327.887,496.76,328.187,496.976,328.476,497.199z M321.817,500.712l-0.605-0.074l-0.589-0.163l1.052-6.219
				l0.61,0.055l0.584,0.197L321.817,500.712z M316.905,500.718l-1.283-6.293c0.358-0.084,0.841-0.179,1.21-0.234l1.265,6.282
				C317.736,500.526,317.252,500.626,316.905,500.718z M313.508,502.535l-3.776-5.386c0.4-0.303,0.715-0.518,1.031-0.723
				l3.758,5.396C314.096,502.088,313.797,502.303,313.508,502.535z M311.025,505.47l-5.501-3.558
				c0.26-0.439,0.471-0.768,0.694-1.086l5.491,3.582C311.414,504.817,311.212,505.136,311.025,505.47z M309.921,508.152
				l-0.066,0.647l-0.155,0.628l-6.301-1.139l0.042-0.66l0.184-0.634L309.921,508.152z M310.005,513.372l-6.251,1.417
				c-0.092-0.384-0.203-0.889-0.271-1.281l6.259-1.391C309.8,512.499,309.907,513.004,310.005,513.372z M311.845,516.94l-5.207,4
				c-0.31-0.41-0.531-0.728-0.742-1.055l5.238-3.995C311.401,516.33,311.614,516.643,311.845,516.94z M314.704,519.446l-3.35,5.667
				c-0.434-0.255-0.752-0.46-1.062-0.673l3.379-5.68C314.075,519.06,314.383,519.262,314.704,519.446z M317.252,520.514l0.61,0.05
				l0.597,0.145l-1.057,6.319l-0.618-0.021l-0.6-0.163L317.252,520.514z M322.038,520.28l1.338,6.193
				c-0.35,0.105-0.823,0.221-1.181,0.3l-1.252-6.164C321.297,520.543,321.696,520.385,322.038,520.28z M328.991,523.478
				c-0.368,0.308-0.66,0.531-0.957,0.747l-3.569-5.091c0.402-0.271,0.692-0.492,0.968-0.726L328.991,523.478z M327.771,515.494
				l5.054,3.266c-0.237,0.426-0.426,0.742-0.626,1.052l-5.067-3.274C327.408,516.133,327.597,515.82,327.771,515.494z
				 M328.805,512.893l0.055-0.623l0.15-0.608l5.693,1.041l-0.029,0.623l-0.171,0.602L328.805,512.893z M334.629,507.81l-5.659,1.273
				c-0.053-0.368-0.155-0.86-0.247-1.215l5.664-1.27C334.471,506.961,334.571,507.442,334.629,507.81z"/>
			<path style="fill:#82591F;" d="M328.016,512.117c0.812-4.907-2.275-9.619-6.956-10.563c-4.776-0.965-9.425,2.333-10.295,7.41
				c-0.873,5.096,2.417,9.885,7.256,10.677C322.759,520.414,327.203,517.038,328.016,512.117z M309.626,508.759
				c0.983-5.722,6.232-9.446,11.634-8.347c5.28,1.076,8.736,6.387,7.829,11.897c-0.912,5.528-5.906,9.349-11.263,8.486
				C312.353,519.912,308.64,514.503,309.626,508.759z"/>
			<path style="fill:#82591F;" d="M319.593,525.839 M319.593,525.844 M319.566,512.049l-1.018-0.413l3.571-8.838
				c0.615-1.523-1.267-2.322-0.116-3.618l3.255-2.693l0.529,4.108c-0.055,1.725-2.025,1.07-2.64,2.595L319.566,512.049z"/>
			<path style="fill:#82591F;" d="M330.38,517.522 M330.385,517.522 M319.948,510.064l0.032,0.568l0.034,0.571l-5.367,0.142
				c-1.549,0.021-1.491,2.114-3.053,1.536l-3.542-1.996l3.269-2.111c1.491-0.634,1.704,1.472,3.256,1.449L319.948,510.064z"/>
			<path style="fill:#82591F;" d="M320.892,510.813c0.129-0.778-0.366-1.52-1.11-1.657c-0.742-0.139-1.457,0.384-1.589,1.165
				c-0.131,0.784,0.368,1.525,1.115,1.659C320.05,512.115,320.76,511.591,320.892,510.813z"/>
			<rect x="351.959" y="559.146" style="fill-rule:evenodd;clip-rule:evenodd;fill:#82591F;" width="371.617" height="2.635"/>
			<polygon style="fill-rule:evenodd;clip-rule:evenodd;fill:#82591F;" points="117.85,559.146 273.867,559.146 277.533,561.781 
				117.85,561.781 			"/>
			<rect x="117.85" y="660.557" style="fill-rule:evenodd;clip-rule:evenodd;fill:#82591F;" width="605.726" height="2.63"/>
			<path style="fill:#82591F;" d="M314.012,453.78h0.476c0,0,4.815,0.523,4.815,4.184l1.031,8.699c0,0,0.481,0.947,1.473,1.499
				c0,0-1.549,2.183-7.319,2.249h-0.476c-5.772-0.066-7.09-2.143-7.09-2.143c0.865-0.347,1.336-1.604,1.336-1.604l0.936-8.699
				C309.195,454.303,314.012,453.78,314.012,453.78z"/>
			<rect x="313.418" y="449.678" style="fill-rule:evenodd;clip-rule:evenodd;fill:#82591F;" width="1.415" height="5.199"/>
			<circle style="fill-rule:evenodd;clip-rule:evenodd;fill:#82591F;" cx="314.16" cy="449.467" r="1.68"/>
			<path style="fill:#82591F;" d="M306.523,371.071c0-2.314,1.328-4.321,3.261-5.301c-0.836,0.749-1.362,1.838-1.362,3.048
				c0,2.256,1.83,4.087,4.087,4.087c2.256,0,4.084-1.83,4.084-4.087c0-1.152-0.476-2.196-1.246-2.937
				c1.822,1.015,3.056,2.958,3.056,5.191c0,3.282-2.659,5.941-5.941,5.941C309.184,377.011,306.523,374.353,306.523,371.071z"/>
			<g>
				<g>
					<path style="fill-rule:evenodd;clip-rule:evenodd;fill:#004730;" d="M183.335,694.207l-0.576,1.362
						c-2.222,5.265-4.102,8.641-5.638,10.124c-0.689,0.657-1.894,0.983-3.624,0.983c-0.494,0-0.741-0.121-0.741-0.368
						c0-0.084,0.029-0.289,0.084-0.615c0.329-1.457,0.605-3.403,0.823-5.849c0.108-1.399,0.205-4.129,0.287-8.189
						c0.084-4.087,0.715-7.694,1.893-10.824c-1.288,1.562-2.577,4.896-3.868,9.998l-0.492,1.978
						c-2.306,9.246-5.641,13.869-10.003,13.869c-0.989,0-1.88-0.3-2.677-0.904c-0.876-0.658-1.315-1.452-1.315-2.388
						c0-0.71,0.589-1.547,1.77-2.509c0.797-0.657,1.302-0.989,1.523-0.989c0.439,0,0.726,0.579,0.863,1.73
						c0.058,0.079,0.084,0.179,0.084,0.289l0.042,0.368c0.137,1.178,0.726,1.772,1.767,1.772c0.771,0,1.62-0.605,2.554-1.814
						c1.617-2.114,3.045-5.748,4.278-10.908l0.579-2.425c0.576-2.361,1.194-4.271,1.851-5.722c0.657-1.483,1.701-3.182,3.129-5.102
						c0.849-0.358,2.072-0.536,3.663-0.536c0.274,0,0.41,0.147,0.41,0.452c0,0.053-0.04,0.358-0.124,0.905
						c-0.247,1.672-0.368,3.555-0.368,5.638v1.604c0-0.3,0.01,0.4,0.039,2.099c0,0,0,0.563,0,1.688c0,4.802-0.371,8.589-1.112,11.36
						c0.742-0.989,1.772-3.198,3.087-6.627c0.521-1.373,1.057-2.672,1.607-3.908c1.044-2.335,2.248-4.681,3.621-7.037
						c2.167-3.65,3.842-5.559,5.023-5.722l2.551-0.331c0.439-0.053,0.823-0.079,1.152-0.079c0.358,0,0.536,0.095,0.536,0.284
						c0,0.305-0.221,0.936-0.658,1.893c-0.605,1.346-1.168,2.924-1.688,4.733c-1.73,6.148-2.593,10.966-2.593,14.448
						c0,2.687,0.82,4.034,2.467,4.034c1.346,0,2.937-1.083,4.775-3.25v2.141c-2.961,3.208-5.693,4.812-8.189,4.812
						c-3.074,0-4.613-2.645-4.613-7.942c0-1.673,0.468-4.581,1.402-8.725c0.576-2.551,1.496-4.981,2.759-7.284l1.152-2.099
						l-1.112,1.194c-0.986,1.042-1.962,2.561-2.922,4.565C186.077,687.869,184.926,690.478,183.335,694.207z"/>
					<path style="fill-rule:evenodd;clip-rule:evenodd;fill:#004730;" d="M202.803,697.704v0.452
						c3.458-0.957,5.186-2.74,5.186-5.349c0-1.315-0.479-1.978-1.441-1.978c-1.178,0-2.138,0.894-2.88,2.677
						C203.092,694.938,202.803,696.337,202.803,697.704z M213.34,699.598v2.267c-1.617,1.588-2.977,2.714-4.073,3.377
						c-1.62,0.983-3.282,1.478-4.981,1.478c-1.867,0-3.347-0.573-4.444-1.725c-1.099-1.157-1.646-2.677-1.646-4.571
						c0-2.687,0.905-5.175,2.714-7.452c1.922-2.441,4.187-3.661,6.793-3.661c1.152,0,2.112,0.3,2.879,0.904
						c0.797,0.579,1.194,1.425,1.194,2.551c0,2.172-1.714,3.992-5.144,5.475c-0.905,0.384-2.125,0.81-3.663,1.278
						c0.521,2.603,1.92,3.908,4.2,3.908c1.562,0,3.332-0.989,5.307-2.961L213.34,699.598z"/>
					<path style="fill-rule:evenodd;clip-rule:evenodd;fill:#004730;" d="M223.711,690.751c-0.986,0-1.975,0.768-2.964,2.304
						c-1.62,2.525-2.427,5.023-2.427,7.49c0,1.594,0.644,2.388,1.933,2.388c1.073,0,2.099-0.768,3.087-2.304
						c1.536-2.361,2.306-4.786,2.306-7.284C225.647,691.614,225.002,690.751,223.711,690.751z M226.386,690.546l2.882-12.018
						c2.251-0.526,3.829-0.799,4.733-0.826c0.274,0,0.41,0.111,0.41,0.331v0.042c-0.163,1.01-0.452,2.204-0.863,3.576
						c-0.794,2.719-1.604,5.943-2.43,9.672c-0.684,3.103-1.165,5.559-1.441,7.369c-0.189,1.21-0.287,2.046-0.287,2.514
						c0,1.12,0.384,1.683,1.154,1.683c0.82,0,2.098-0.941,3.826-2.84l0.413-0.452v2.267l-0.784,0.784
						c-2.717,2.714-4.815,4.071-6.296,4.071c-2.088,0-3.129-1.793-3.129-5.391c-2.333,3.597-4.691,5.391-7.079,5.391
						c-1.262,0-2.304-0.589-3.129-1.767c-0.768-1.073-1.152-2.267-1.152-3.582c0-2.798,0.989-5.475,2.964-8.026
						c2.112-2.745,4.542-4.118,7.284-4.118C224.534,689.226,225.507,689.668,226.386,690.546z"/>
					<path style="fill-rule:evenodd;clip-rule:evenodd;fill:#004730;" d="M239.271,697.704v0.452
						c3.455-0.957,5.186-2.74,5.186-5.349c0-1.315-0.481-1.978-1.441-1.978c-1.181,0-2.141,0.894-2.882,2.677
						C239.558,694.938,239.271,696.337,239.271,697.704z M249.806,699.598v2.267c-1.62,1.588-2.977,2.714-4.073,3.377
						c-1.62,0.983-3.279,1.478-4.981,1.478c-1.864,0-3.347-0.573-4.447-1.725c-1.094-1.157-1.646-2.677-1.646-4.571
						c0-2.687,0.907-5.175,2.719-7.452c1.92-2.441,4.184-3.661,6.79-3.661c1.152,0,2.114,0.3,2.882,0.904
						c0.794,0.579,1.194,1.425,1.194,2.551c0,2.172-1.715,3.992-5.146,5.475c-0.905,0.384-2.127,0.81-3.663,1.278
						c0.521,2.603,1.92,3.908,4.197,3.908c1.567,0,3.335-0.989,5.312-2.961L249.806,699.598z"/>
					<path style="fill-rule:evenodd;clip-rule:evenodd;fill:#004730;" d="M249.806,706.761l-0.042-0.494
						c-0.11-1.315-0.163-2.482-0.163-3.498c0-3.787,1.057-8,3.169-12.638l4.899-0.941c-0.579,1.562-0.963,2.645-1.152,3.25
						c-0.384,1.231-0.673,2.33-0.865,3.292l0.781-0.868c3.403-3.755,6.038-5.638,7.905-5.638c0.71,0,1.289,0.274,1.725,0.826
						c0.442,0.521,0.66,1.152,0.66,1.893c0,1.289-0.576,3.403-1.728,6.338c-0.797,2.03-1.194,3.345-1.194,3.95
						c0,0.794,0.329,1.194,0.989,1.194c0.384,0,0.863-0.221,1.439-0.658c1.07-0.82,2.169-1.877,3.295-3.171v2.225
						c-3.077,3.266-5.722,4.896-7.947,4.896c-0.957,0-1.699-0.316-2.219-0.947c-0.523-0.658-0.784-1.478-0.784-2.467
						c0-1.457,0.589-3.65,1.77-6.585c0.55-1.372,0.865-2.377,0.947-3.008c0-0.437-0.166-0.658-0.492-0.658
						c-0.852,0-2.514,1.525-4.981,4.57l-0.907,1.11c-0.439,2.277-0.66,4.349-0.66,6.217v0.82L249.806,706.761z"/>
					<path style="fill-rule:evenodd;clip-rule:evenodd;fill:#004730;" d="M274.335,681.201l0.247,0.168
						c0.826,0.547,1.594,0.82,2.304,0.82c0.715,0,1.43-0.263,2.141-0.784c0,3.214-1.178,4.818-3.54,4.818
						c-1.152,0-2.141-0.342-2.961-1.031C273.294,683.988,273.899,682.657,274.335,681.201z M271.99,690.957l0.247-0.615l5.351-1.073
						l-2.017,6.301c-0.852,2.661-1.275,4.513-1.275,5.554c0,0.989,0.355,1.483,1.07,1.483c0.905,0,2.112-0.836,3.621-2.514
						c0.166-0.163,0.302-0.326,0.413-0.494v2.267c-3.129,3.266-5.462,4.897-6.998,4.897c-1.018,0-1.796-0.537-2.348-1.604
						c-0.436-0.852-0.658-1.841-0.658-2.966C269.397,699.009,270.262,695.264,271.99,690.957z"/>
					<path style="fill-rule:evenodd;clip-rule:evenodd;fill:#004730;" d="M287.547,708.528c-3.429,1.541-5.144,3.266-5.144,5.191
						c0,0.905,0.384,1.357,1.152,1.357C285.038,715.076,286.369,712.894,287.547,708.528z M279.274,701.865
						c0-2.088,0.426-4.255,1.278-6.506l1.936-5.102l5.843-1.031l-2.511,5.969c-0.329,0.794-0.7,1.878-1.112,3.25
						c-0.436,1.536-0.658,2.624-0.658,3.25c0,1.21,0.426,1.814,1.278,1.814c1.042,0,2.18-0.931,3.413-2.798
						c0.852-1.32,1.552-2.703,2.099-4.16l2.306-6.295l5.475-1.031l-0.66,1.894c-0.218,0.631-0.452,1.32-0.7,2.062
						c-0.3,0.905-0.836,2.535-1.604,4.897l-2.264,6.874c3.074-1.483,5.556-3.266,7.45-5.354v2.267
						c-1.702,1.646-4.392,3.319-8.068,5.018c-0.96,2.666-1.962,4.707-3.003,6.138c-1.757,2.382-3.773,3.576-6.051,3.576
						c-1.894,0-2.84-0.957-2.84-2.877c0-2.609,2.414-4.996,7.245-7.163l1.233-4.281c-2.525,2.798-4.747,4.197-6.666,4.197
						c-1.154,0-2.046-0.494-2.677-1.478C279.521,704.142,279.274,703.101,279.274,701.865z"/>
					<path style="fill-rule:evenodd;clip-rule:evenodd;fill:#004730;" d="M305.329,697.704v0.452
						c3.455-0.957,5.186-2.74,5.186-5.349c0-1.315-0.479-1.978-1.441-1.978c-1.178,0-2.141,0.894-2.882,2.677
						C305.618,694.938,305.329,696.337,305.329,697.704z M315.866,699.598v2.267c-1.62,1.588-2.98,2.714-4.076,3.377
						c-1.617,0.983-3.279,1.478-4.978,1.478c-1.867,0-3.35-0.573-4.447-1.725c-1.097-1.157-1.646-2.677-1.646-4.571
						c0-2.687,0.907-5.175,2.716-7.452c1.919-2.441,4.184-3.661,6.79-3.661c1.154,0,2.114,0.3,2.882,0.904
						c0.794,0.579,1.194,1.425,1.194,2.551c0,2.172-1.715,3.992-5.144,5.475c-0.907,0.384-2.128,0.81-3.666,1.278
						c0.523,2.603,1.922,3.908,4.2,3.908c1.565,0,3.334-0.989,5.309-2.961L315.866,699.598z"/>
					<path style="fill-rule:evenodd;clip-rule:evenodd;fill:#004730;" d="M318.541,689.763l1.894-6.253l5.391-1.115l-2.057,7
						l2.798-0.168l-0.657,3.087l-3.13,0.247l-1.562,5.312c-0.305,1.015-0.455,1.988-0.455,2.919c0,1.43,0.563,2.141,1.688,2.141
						c1.152,0,2.661-0.947,4.526-2.84c0.058-0.052,0.126-0.137,0.208-0.247l0.247-0.247v2.267c-3.266,3.235-5.898,4.854-7.902,4.854
						c-1.317,0-2.319-0.573-3.006-1.725c-0.576-0.936-0.865-2.104-0.865-3.503c0-1.289,0.247-2.798,0.742-4.523l1.152-4.034
						l-1.562,0.079l0.657-3.166L318.541,689.763z"/>
					<path style="fill-rule:evenodd;clip-rule:evenodd;fill:#004730;" d="M333.028,694.002c1.483-1.62,2.772-3.54,3.868-5.764
						c1.236-2.493,1.854-4.702,1.854-6.622c0-1.099-0.26-1.652-0.781-1.652c-0.715,0-1.704,2.02-2.966,6.053
						C334.429,687.885,333.769,690.546,333.028,694.002z M340.725,699.598v2.267c-3.539,3.235-6.448,4.854-8.725,4.854
						c-1.591,0-2.814-0.641-3.663-1.935c-0.739-1.094-1.112-2.482-1.112-4.155c0-3.729,1.126-8.588,3.377-14.568
						c0.85-2.225,1.809-4.376,2.882-6.464l5.102-1.894c0.137-0.053,0.263-0.084,0.371-0.084c0.878,0,1.317,1.057,1.317,3.171
						c0,2.935-0.784,5.859-2.346,8.768c-1.181,2.219-2.992,4.676-5.433,7.368c-0.11,1.425-0.166,2.388-0.166,2.882
						c0,0.957,0.15,1.767,0.455,2.425c0.41,0.905,1.041,1.357,1.893,1.357c1.37,0,3.153-1.094,5.349-3.292L340.725,699.598z"/>
					<path style="fill-rule:evenodd;clip-rule:evenodd;fill:#004730;" d="M345.211,697.704v0.452
						c3.458-0.957,5.186-2.74,5.186-5.349c0-1.315-0.479-1.978-1.441-1.978c-1.178,0-2.141,0.894-2.88,2.677
						C345.5,694.938,345.211,696.337,345.211,697.704z M355.748,699.598v2.267c-1.62,1.588-2.977,2.714-4.073,3.377
						c-1.62,0.983-3.282,1.478-4.981,1.478c-1.867,0-3.35-0.573-4.447-1.725c-1.096-1.157-1.646-2.677-1.646-4.571
						c0-2.687,0.907-5.175,2.717-7.452c1.92-2.441,4.187-3.661,6.793-3.661c1.152,0,2.111,0.3,2.879,0.904
						c0.797,0.579,1.194,1.425,1.194,2.551c0,2.172-1.715,3.992-5.144,5.475c-0.905,0.384-2.127,0.81-3.666,1.278
						c0.523,2.603,1.922,3.908,4.202,3.908c1.562,0,3.332-0.989,5.307-2.961L355.748,699.598z"/>
					<path style="fill-rule:evenodd;clip-rule:evenodd;fill:#004730;" d="M355.293,701.823v-1.688
						c1.236-1.236,2.183-2.43,2.84-3.582c-1.152-0.521-1.728-1.273-1.728-2.261c0-1.562,0.55-2.924,1.646-4.076
						c0.631-0.657,1.402-0.989,2.306-0.989c1.041,0,1.562,0.537,1.562,1.604c0,0.852-0.3,2.062-0.905,3.624
						c1.373-0.221,2.551-0.81,3.539-1.767c0.715-0.715,1.483-1.825,2.304-3.334l1.814-0.084l-1.854,5.144
						c-0.384,1.073-0.768,2.156-1.152,3.256c-0.465,1.399-0.702,2.483-0.702,3.25c0,1.236,0.484,1.851,1.441,1.851
						c0.797,0,1.936-0.742,3.419-2.225l0.947-0.947v2.267c-3.35,3.266-5.943,4.897-7.779,4.897c-0.907,0-1.62-0.358-2.141-1.068
						c-0.521-0.715-0.784-1.541-0.784-2.472c0-1.893,1.015-4.434,3.045-7.616c-1.015,0.494-2.099,0.852-3.25,1.073
						c-0.905,1.646-2.277,3.361-4.118,5.144H355.293z"/>
					<path style="fill-rule:evenodd;clip-rule:evenodd;fill:#004730;" d="M375.584,681.201l0.247,0.168
						c0.826,0.547,1.594,0.82,2.306,0.82c0.712,0,1.428-0.263,2.14-0.784c0,3.214-1.181,4.818-3.54,4.818
						c-1.154,0-2.141-0.342-2.964-1.031C374.543,683.988,375.148,682.657,375.584,681.201z M373.238,690.957l0.247-0.615
						l5.351-1.073l-2.017,6.301c-0.849,2.661-1.275,4.513-1.275,5.554c0,0.989,0.358,1.483,1.07,1.483
						c0.905,0,2.114-0.836,3.624-2.514c0.163-0.163,0.3-0.326,0.41-0.494v2.267c-3.129,3.266-5.459,4.897-6.998,4.897
						c-1.015,0-1.796-0.537-2.345-1.604c-0.439-0.852-0.66-1.841-0.66-2.966C370.645,699.009,371.511,695.264,373.238,690.957z"/>
					<path style="fill-rule:evenodd;clip-rule:evenodd;fill:#004730;" d="M380.649,706.761l-0.042-0.494
						c-0.111-1.315-0.163-2.482-0.163-3.498c0-3.787,1.055-8,3.166-12.638l4.902-0.941c-0.578,1.562-0.962,2.645-1.154,3.25
						c-0.384,1.231-0.673,2.33-0.865,3.292l0.784-0.868c3.403-3.755,6.038-5.638,7.902-5.638c0.713,0,1.289,0.274,1.728,0.826
						c0.439,0.521,0.657,1.152,0.657,1.893c0,1.289-0.573,3.403-1.728,6.338c-0.797,2.03-1.191,3.345-1.191,3.95
						c0,0.794,0.326,1.194,0.986,1.194c0.384,0,0.865-0.221,1.438-0.658c1.073-0.82,2.17-1.877,3.295-3.171v2.225
						c-3.074,3.266-5.72,4.896-7.944,4.896c-0.96,0-1.702-0.316-2.222-0.947c-0.521-0.658-0.781-1.478-0.781-2.467
						c0-1.457,0.589-3.65,1.767-6.585c0.55-1.372,0.868-2.377,0.947-3.008c0-0.437-0.163-0.658-0.492-0.658
						c-0.849,0-2.511,1.525-4.981,4.57l-0.907,1.11c-0.436,2.277-0.657,4.349-0.657,6.217v0.82L380.649,706.761z"/>
				</g>
				<g>
					<path style="fill-rule:evenodd;clip-rule:evenodd;fill:#004730;" d="M421.651,708.597c-3.429,1.536-5.144,3.266-5.144,5.186
						c0,0.905,0.384,1.357,1.152,1.357C419.142,715.139,420.473,712.957,421.651,708.597z M413.378,701.928
						c0-2.083,0.426-4.25,1.278-6.5l1.933-5.107l5.844-1.026l-2.51,5.969c-0.329,0.794-0.699,1.878-1.112,3.251
						c-0.439,1.536-0.658,2.619-0.658,3.25c0,1.21,0.426,1.809,1.275,1.809c1.044,0,2.18-0.931,3.415-2.798
						c0.852-1.315,1.552-2.703,2.098-4.155l2.304-6.301l5.475-1.026l-0.658,1.894c-0.221,0.631-0.452,1.315-0.699,2.056
						c-0.3,0.905-0.836,2.54-1.604,4.897l-2.262,6.874c3.072-1.478,5.554-3.266,7.448-5.349v2.261
						c-1.699,1.646-4.392,3.324-8.068,5.023c-0.963,2.661-1.962,4.707-3.003,6.132c-1.757,2.388-3.775,3.582-6.052,3.582
						c-1.894,0-2.84-0.962-2.84-2.882c0-2.609,2.414-4.997,7.246-7.163l1.236-4.276c-2.526,2.798-4.748,4.197-6.67,4.197
						c-1.152,0-2.043-0.494-2.674-1.483C413.625,704.205,413.378,703.164,413.378,701.928z"/>
					<path style="fill-rule:evenodd;clip-rule:evenodd;fill:#004730;" d="M445.48,690.941c-1.126,0-2.209,0.794-3.25,2.388
						c-1.562,2.388-2.346,4.812-2.346,7.284c0,0.631,0.163,1.194,0.494,1.688c0.331,0.494,0.794,0.742,1.399,0.742
						c1.068,0,2.125-0.81,3.171-2.43c1.588-2.472,2.388-4.912,2.388-7.326C447.337,691.719,446.716,690.941,445.48,690.941z
						 M446.18,702.054l0.042-0.826c-2.577,3.708-4.981,5.559-7.2,5.559c-1.346,0-2.414-0.631-3.213-1.893
						c-0.684-1.099-1.026-2.362-1.026-3.787c0-2.661,1.084-5.286,3.25-7.863c2.251-2.687,4.665-4.034,7.242-4.034
						c1.646,0,2.814,0.784,3.497,2.346l4.118-2.262H454l-1.767,5.885c-0.41,1.373-0.768,2.782-1.073,4.239
						c-0.189,0.931-0.284,1.552-0.284,1.851c0,1.152,0.41,1.73,1.231,1.73c0.657,0,1.841-0.852,3.54-2.551
						c0.084-0.058,0.21-0.179,0.373-0.373l0.368-0.41v2.261c-0.137,0.137-0.41,0.4-0.82,0.784c-2.803,2.714-4.913,4.076-6.343,4.076
						c-1.12,0-1.957-0.536-2.509-1.604C446.306,704.305,446.127,703.258,446.18,702.054z"/>
					<path style="fill-rule:evenodd;clip-rule:evenodd;fill:#004730;" d="M455.936,701.886v-1.683c3.35-3.65,5.559-7,6.627-10.046
						c0.547-0.163,1.304-0.331,2.262-0.494l1.651-0.289c0.163-0.026,0.353-0.037,0.573-0.037c0.137,0,0.205,0.052,0.205,0.163
						c0,0.189-0.052,0.394-0.163,0.615c-0.221,0.605-0.331,1.194-0.331,1.772c0,0.658,0.358,1.52,1.073,2.593
						c0.931,1.399,1.399,2.603,1.399,3.619c0,2.114-0.989,4.102-2.966,5.969c-1.972,1.841-4.018,2.756-6.132,2.756
						c-0.736,0-1.494-0.189-2.262-0.573c-0.905-0.437-1.357-0.989-1.357-1.646c0-0.3,0.3-0.826,0.905-1.562
						c0.878-1.073,1.483-1.609,1.809-1.609c0.442,0,0.794,0.468,1.073,1.399c0.384,1.262,0.983,1.893,1.809,1.893
						c0.852,0,1.62-0.384,2.304-1.152c0.689-0.768,1.031-1.578,1.031-2.425c0-0.742-0.426-1.867-1.278-3.376
						c-1.068-1.867-1.688-3.045-1.851-3.54c-1.62,2.525-3.592,5.075-5.927,7.652H455.936z M469.316,703.08l1.026-0.905
						c0.631-0.547,1.415-1.383,2.346-2.509v2.261c-1.152,1.262-2.44,2.404-3.866,3.419c-0.468,0.326-0.768,0.521-0.91,0.573
						c-0.079,0-0.179-0.174-0.284-0.531c-0.11-0.358-0.168-0.605-0.168-0.742c0-0.11,0.273-0.373,0.826-0.784
						C468.532,703.7,468.874,703.437,469.316,703.08z M460.711,706.577l0.326-0.368h2.062l-1.278,1.483
						c1.815,0.326,2.719,1.315,2.719,2.961c0,1.509-0.894,2.703-2.677,3.582c-1.457,0.715-3.003,1.073-4.649,1.073h-1.399
						l0.284-1.609h0.868c0.82,0,1.562-0.215,2.219-0.657c0.689-0.41,1.031-0.999,1.031-1.767c0-1.183-0.715-1.799-2.14-1.856
						C458.734,708.76,459.612,707.813,460.711,706.577z"/>
					<path style="fill-rule:evenodd;clip-rule:evenodd;fill:#004730;" d="M483.227,690.941c-1.125,0-2.209,0.794-3.255,2.388
						c-1.562,2.388-2.346,4.812-2.346,7.284c0,0.631,0.168,1.194,0.494,1.688c0.331,0.494,0.794,0.742,1.399,0.742
						c1.073,0,2.13-0.81,3.171-2.43c1.594-2.472,2.388-4.912,2.388-7.326C485.078,691.719,484.458,690.941,483.227,690.941z
						 M483.926,702.054l0.037-0.826c-2.577,3.708-4.981,5.559-7.2,5.559c-1.346,0-2.414-0.631-3.208-1.893
						c-0.689-1.099-1.031-2.362-1.031-3.787c0-2.661,1.084-5.286,3.25-7.863c2.251-2.687,4.665-4.034,7.242-4.034
						c1.646,0,2.814,0.784,3.503,2.346l4.113-2.262h1.115l-1.772,5.885c-0.41,1.373-0.768,2.782-1.068,4.239
						c-0.194,0.931-0.289,1.552-0.289,1.851c0,1.152,0.41,1.73,1.236,1.73c0.657,0,1.835-0.852,3.539-2.551
						c0.079-0.058,0.205-0.179,0.368-0.373l0.373-0.41v2.261c-0.142,0.137-0.415,0.4-0.826,0.784
						c-2.798,2.714-4.912,4.076-6.338,4.076c-1.126,0-1.962-0.536-2.514-1.604C484.047,704.305,483.868,703.258,483.926,702.054z"/>
					<path style="fill-rule:evenodd;clip-rule:evenodd;fill:#004730;" d="M496.807,689.826l1.893-6.254l5.391-1.11l-2.056,6.995
						l2.798-0.163l-0.658,3.087l-3.129,0.247l-1.562,5.307c-0.305,1.015-0.452,1.988-0.452,2.924c0,1.425,0.563,2.141,1.688,2.141
						c1.152,0,2.661-0.947,4.523-2.84c0.058-0.058,0.126-0.137,0.211-0.247l0.242-0.247v2.261c-3.261,3.24-5.896,4.86-7.9,4.86
						c-1.315,0-2.319-0.578-3.003-1.73c-0.579-0.931-0.868-2.098-0.868-3.497c0-1.289,0.247-2.798,0.742-4.528l1.152-4.034
						l-1.562,0.084l0.658-3.172L496.807,689.826z"/>
					<path style="fill-rule:evenodd;clip-rule:evenodd;fill:#004730;" d="M506.437,705.509c-0.573-0.852-0.863-1.935-0.863-3.25
						c0-3.156,0.863-6.9,2.593-11.239l0.247-0.616l5.349-1.067l-2.015,6.295c-0.852,2.661-1.278,4.513-1.278,5.554
						c0,0.989,0.358,1.483,1.073,1.483c0.905,0,2.109-0.836,3.618-2.509c0.168-0.168,0.305-0.331,0.416-0.494v2.261
						c-1.757,1.841-3.171,3.103-4.239,3.787L506.437,705.509z"/>
					<path style="fill-rule:evenodd;clip-rule:evenodd;fill:#004730;" d="M521.173,694.07c1.483-1.62,2.772-3.545,3.871-5.765
						c1.231-2.498,1.851-4.707,1.851-6.627c0-1.099-0.263-1.646-0.784-1.646c-0.715,0-1.699,2.014-2.961,6.048
						C522.572,687.948,521.915,690.609,521.173,694.07z M528.868,699.666v2.261c-3.54,3.24-6.448,4.86-8.726,4.86
						c-1.588,0-2.814-0.647-3.66-1.935c-0.742-1.099-1.115-2.482-1.115-4.155c0-3.734,1.126-8.594,3.377-14.574
						c0.852-2.219,1.809-4.376,2.882-6.458l5.102-1.899c0.137-0.052,0.263-0.079,0.373-0.079c0.878,0,1.315,1.057,1.315,3.166
						c0,2.94-0.784,5.859-2.346,8.767c-1.178,2.225-2.993,4.681-5.433,7.369c-0.11,1.425-0.163,2.388-0.163,2.882
						c0,0.962,0.147,1.772,0.452,2.43c0.41,0.905,1.042,1.357,1.894,1.357c1.372,0,3.155-1.099,5.349-3.292L528.868,699.666z"/>
					<path style="fill-rule:evenodd;clip-rule:evenodd;fill:#004730;" d="M539.239,690.815c-0.983,0-1.972,0.768-2.961,2.309
						c-1.62,2.519-2.43,5.018-2.43,7.49c0,1.588,0.647,2.388,1.935,2.388c1.068,0,2.099-0.768,3.087-2.304
						c1.536-2.361,2.304-4.791,2.304-7.289C541.175,691.682,540.533,690.815,539.239,690.815z M541.917,690.609l2.882-12.018
						c2.251-0.521,3.829-0.794,4.733-0.826c0.274,0,0.41,0.11,0.41,0.331v0.042c-0.163,1.015-0.452,2.209-0.863,3.581
						c-0.794,2.714-1.604,5.938-2.43,9.672c-0.684,3.098-1.168,5.554-1.441,7.369c-0.189,1.204-0.289,2.041-0.289,2.509
						c0,1.126,0.384,1.688,1.152,1.688c0.826,0,2.104-0.947,3.829-2.84l0.416-0.452v2.261l-0.784,0.784
						c-2.719,2.714-4.818,4.076-6.301,4.076c-2.083,0-3.124-1.799-3.124-5.391c-2.335,3.592-4.691,5.391-7.079,5.391
						c-1.262,0-2.304-0.589-3.129-1.772c-0.768-1.068-1.152-2.261-1.152-3.582c0-2.798,0.989-5.47,2.961-8.026
						c2.114-2.74,4.544-4.113,7.284-4.113C540.065,689.295,541.038,689.731,541.917,690.609z"/>
					<path style="fill-rule:evenodd;clip-rule:evenodd;fill:#004730;" d="M551.052,705.509c-0.573-0.852-0.862-1.935-0.862-3.25
						c0-3.156,0.862-6.9,2.593-11.239l0.247-0.616l5.349-1.067l-2.014,6.295c-0.852,2.661-1.278,4.513-1.278,5.554
						c0,0.989,0.358,1.483,1.073,1.483c0.905,0,2.114-0.836,3.624-2.509c0.163-0.168,0.3-0.331,0.41-0.494v2.261
						c-1.757,1.841-3.172,3.103-4.239,3.787L551.052,705.509z"/>
					<path style="fill-rule:evenodd;clip-rule:evenodd;fill:#004730;" d="M570.191,690.609c-1.231,0-2.346,0.742-3.335,2.225
						c-1.315,1.972-1.972,4.155-1.972,6.543c0,2.004,0.699,3.003,2.099,3.003c1.646,0,2.961-1.646,3.95-4.939
						c0.605-2.004,0.905-3.539,0.905-4.607c0-0.552-0.147-1.057-0.452-1.525C571.111,690.846,570.712,690.609,570.191,690.609z
						 M568.671,707.487c-4.339,1.562-6.506,3.361-6.506,5.391c0,1.341,0.647,2.015,1.935,2.015
						C565.857,714.892,567.382,712.426,568.671,707.487z M573.199,690.736c0.71-0.247,1.825-0.715,3.329-1.399l0.458-0.211h0.452
						c-0.521,1.568-0.92,3.103-1.194,4.613l-1.893,10.082c1.757-0.684,3.608-2.072,5.554-4.155v2.261
						c-1.783,1.646-3.813,2.898-6.09,3.745c-0.878,2.745-2.004,5.049-3.377,6.916c-1.894,2.551-3.992,3.829-6.296,3.829
						c-1.073,0-1.92-0.331-2.551-0.989c-0.631-0.631-0.947-1.483-0.947-2.551c0-2.198,1.562-4.076,4.691-5.638
						c0.905-0.468,2.151-0.962,3.745-1.483l0.863-3.95c-2.493,2.798-4.555,4.197-6.169,4.197c-1.294,0-2.277-0.647-2.966-1.935
						c-0.547-1.042-0.821-2.277-0.821-3.703c0-2.609,0.957-5.102,2.877-7.49c2.03-2.525,4.323-3.787,6.874-3.787
						C571.027,689.09,572.184,689.637,573.199,690.736z M575.666,681.101l0.373-0.531l0.037,1.441l-0.573,0.82
						c-2.114,3.019-4.018,4.529-5.722,4.529c-1.783,0-2.677-1.262-2.677-3.787v-0.578l3.624-1.231
						c0.026,1.893,0.442,2.84,1.236,2.84C572.815,684.603,574.046,683.436,575.666,681.101z"/>
					<path style="fill-rule:evenodd;clip-rule:evenodd;fill:#004730;" d="M580.647,705.509c-0.573-0.852-0.862-1.935-0.862-3.25
						c0-3.156,0.862-6.9,2.593-11.239l0.247-0.616l5.349-1.067l-2.015,6.295c-0.852,2.661-1.278,4.513-1.278,5.554
						c0,0.989,0.358,1.483,1.068,1.483c0.91,0,2.114-0.836,3.624-2.509c0.163-0.168,0.3-0.331,0.41-0.494v2.261
						c-1.757,1.841-3.166,3.103-4.239,3.787L580.647,705.509z"/>
				</g>
				<g>
					<path style="fill-rule:evenodd;clip-rule:evenodd;fill:#004730;" d="M603.499,701.218v-1.688
						c3.345-3.65,5.554-6.995,6.627-10.04c0.547-0.168,1.304-0.331,2.262-0.494l1.646-0.289c0.168-0.026,0.358-0.042,0.579-0.042
						c0.137,0,0.205,0.058,0.205,0.168c0,0.189-0.053,0.394-0.163,0.615c-0.221,0.605-0.331,1.194-0.331,1.767
						c0,0.663,0.358,1.525,1.073,2.593c0.931,1.404,1.399,2.609,1.399,3.624c0,2.114-0.989,4.103-2.966,5.969
						c-1.972,1.836-4.018,2.756-6.132,2.756c-0.742,0-1.494-0.19-2.261-0.573c-0.905-0.442-1.357-0.989-1.357-1.646
						c0-0.305,0.3-0.826,0.905-1.567c0.878-1.068,1.478-1.604,1.809-1.604c0.437,0,0.794,0.468,1.068,1.399
						c0.389,1.262,0.989,1.894,1.815,1.894c0.852,0,1.62-0.384,2.303-1.152c0.684-0.768,1.031-1.578,1.031-2.43
						c0-0.742-0.426-1.867-1.278-3.377c-1.067-1.862-1.688-3.045-1.851-3.54c-1.62,2.525-3.597,5.081-5.927,7.658H603.499z
						 M616.873,702.411l1.031-0.905c0.631-0.547,1.415-1.388,2.346-2.514v2.267c-1.152,1.262-2.44,2.398-3.871,3.413
						c-0.463,0.331-0.768,0.526-0.904,0.578c-0.079,0-0.179-0.179-0.284-0.536c-0.11-0.352-0.168-0.605-0.168-0.742
						c0-0.105,0.274-0.368,0.826-0.778C616.095,703.027,616.437,702.769,616.873,702.411z M608.274,705.909l0.326-0.368h2.062
						l-1.278,1.478c1.809,0.331,2.719,1.32,2.719,2.966c0,1.51-0.894,2.703-2.677,3.582c-1.457,0.71-3.003,1.068-4.649,1.068h-1.399
						l0.284-1.604h0.868c0.82,0,1.562-0.221,2.219-0.658c0.689-0.41,1.031-1.004,1.031-1.772c0-1.178-0.715-1.793-2.141-1.851
						C606.297,708.092,607.175,707.145,608.274,705.909z"/>
					<path style="fill-rule:evenodd;clip-rule:evenodd;fill:#004730;" d="M624.736,697.1v0.458c3.455-0.962,5.186-2.745,5.186-5.354
						c0-1.315-0.479-1.972-1.441-1.972c-1.178,0-2.141,0.889-2.882,2.672C625.025,694.333,624.736,695.732,624.736,697.1z
						 M635.271,698.993v2.267c-1.615,1.594-2.977,2.714-4.071,3.377c-1.62,0.983-3.282,1.478-4.981,1.478
						c-1.867,0-3.35-0.573-4.444-1.725c-1.099-1.152-1.646-2.677-1.646-4.57c0-2.687,0.905-5.17,2.714-7.447
						c1.92-2.446,4.187-3.666,6.79-3.666c1.152,0,2.114,0.3,2.882,0.905c0.794,0.579,1.194,1.431,1.194,2.551
						c0,2.172-1.715,3.992-5.144,5.475c-0.904,0.384-2.125,0.81-3.666,1.278c0.521,2.609,1.925,3.908,4.202,3.908
						c1.562,0,3.329-0.989,5.307-2.961L635.271,698.993z"/>
					<path style="fill-rule:evenodd;clip-rule:evenodd;fill:#004730;" d="M641.077,693.029c4.744-5.543,7.121-9.646,7.121-12.307
						c0-0.799-0.205-1.194-0.621-1.194c-1.067,0-2.493,2.141-4.281,6.422C642.529,687.785,641.792,690.147,641.077,693.029z
						 M652.232,691.341c0,1.236-0.579,3.377-1.73,6.422c-0.768,2.03-1.152,3.345-1.152,3.95c0,0.742,0.3,1.11,0.905,1.11
						c0.852,0,2.43-1.273,4.733-3.829v2.267c-3.156,3.266-5.764,4.897-7.821,4.897c-0.931,0-1.699-0.3-2.304-0.905
						c-0.578-0.631-0.868-1.415-0.868-2.346c0-1.594,0.62-3.855,1.856-6.79c0.658-1.567,0.984-2.593,0.984-3.087
						c0-0.552-0.258-0.826-0.779-0.826c-1.262,0-3.114,1.357-5.559,4.076c-0.463,2.609-0.699,5.57-0.699,8.888l-4.486,0.989
						c-0.163-1.373-0.247-2.882-0.247-4.529c0-4.06,0.589-7.915,1.772-11.565c1.068-3.235,2.756-6.748,5.06-10.535
						c1.594-0.494,3.829-1.304,6.711-2.43h0.121c0.442,0,0.784,0.41,1.031,1.236c0.163,0.547,0.247,1.126,0.247,1.73
						c0,2.493-1.809,6.143-5.433,10.945c0.358-0.19,0.715-0.394,1.068-0.616c1.925-1.152,3.35-1.73,4.281-1.73
						c0.742,0,1.304,0.263,1.688,0.784C652.027,689.968,652.232,690.599,652.232,691.341z"/>
					<path style="fill-rule:evenodd;clip-rule:evenodd;fill:#004730;" d="M659.806,680.596l0.242,0.168
						c0.826,0.547,1.594,0.82,2.309,0.82c0.71,0,1.425-0.258,2.141-0.784c0,3.214-1.184,4.818-3.54,4.818
						c-1.152,0-2.141-0.342-2.966-1.026C658.759,683.383,659.364,682.052,659.806,680.596z M657.455,690.352l0.247-0.615
						l5.354-1.073l-2.02,6.301c-0.847,2.661-1.273,4.513-1.273,5.554c0,0.989,0.358,1.483,1.068,1.483
						c0.905,0,2.114-0.836,3.624-2.514c0.163-0.163,0.3-0.326,0.41-0.494v2.267c-3.129,3.266-5.459,4.897-6.995,4.897
						c-1.015,0-1.799-0.537-2.346-1.604c-0.442-0.852-0.663-1.841-0.663-2.961C654.862,698.404,655.73,694.659,657.455,690.352z"/>
					<path style="fill-rule:evenodd;clip-rule:evenodd;fill:#004730;" d="M664.413,701.218v-1.688
						c1.236-1.236,2.182-2.43,2.84-3.582c-1.152-0.521-1.73-1.273-1.73-2.261c0-1.562,0.552-2.924,1.646-4.076
						c0.631-0.657,1.399-0.989,2.304-0.989c1.047,0,1.567,0.537,1.567,1.609c0,0.847-0.305,2.057-0.904,3.618
						c1.373-0.215,2.551-0.81,3.54-1.767c0.71-0.715,1.478-1.825,2.303-3.335l1.809-0.084l-1.851,5.143
						c-0.384,1.073-0.768,2.156-1.152,3.256c-0.468,1.399-0.7,2.483-0.7,3.25c0,1.236,0.479,1.851,1.441,1.851
						c0.794,0,1.935-0.742,3.419-2.225l0.941-0.947v2.267c-3.345,3.266-5.938,4.897-7.779,4.897c-0.904,0-1.615-0.358-2.141-1.068
						c-0.521-0.715-0.779-1.536-0.779-2.472c0-1.893,1.015-4.428,3.045-7.616c-1.015,0.494-2.098,0.852-3.25,1.073
						c-0.91,1.646-2.277,3.361-4.118,5.144H664.413z"/>
				</g>
			</g>
			<path style="fill:#82591F;" d="M326.017,483.464h-0.374h-1.107v-1.993v-0.3V461.73l-1.357-3.329v-1.975l-0.124-3.579
				c-0.539-9.717-9.68-14.237-11.952-15.215c4.289-2.624,8.878-2.264,10.645-1.93c0.684,0.179,1.241,0.358,1.772,0.557
				c2.125,0.797,3.808,1.922,5.144,3.216c0.179,0.173,0.353,0.352,0.521,0.534c0.21,0.224,0.41,0.452,0.599,0.686
				c-2.288,3.663-1.925,11.784-1.925,11.784v5.428l1.478,3.208v20.057v0.918v1.375h-1.105h-0.373h-0.736h-0.373H326.017z"/>
		</g>
	</g>
</g>
<g id="Guides">
</g>
</svg>
