<?xml version="1.0" encoding="UTF-8"?>
<svg id="Layer_2" data-name="Layer 2" xmlns="http://www.w3.org/2000/svg" xmlns:xlink="http://www.w3.org/1999/xlink" viewBox="0 0 179.27 175.74">
  <defs>
    <style>
      .cls-1 {
        fill: none;
      }

      .cls-2 {
        fill: url(#linear-gradient-2);
      }

      .cls-3 {
        fill: url(#linear-gradient);
      }

      .cls-4 {
        clip-path: url(#clippath-1);
      }

      .cls-5 {
        fill: #fff;
      }

      .cls-6 {
        fill: #14377d;
      }

      .cls-7 {
        clip-path: url(#clippath);
      }
    </style>
    <clipPath id="clippath">
      <path class="cls-1" d="M88.97,5.44c-1.25-.07-2.51-.1-3.77-.1C38.15,5.35,0,43.49,0,90.54s36.13,83.13,81.43,85.11c-38.68-1.97-69.44-33.93-69.44-73.06S44.78,29.45,85.2,29.45v-.05c33.77,0,61.15,27.37,61.15,61.15,0,31.54-23.88,57.49-54.55,60.78,37.33-3.33,66.6-34.66,66.6-72.83,0-39.14-30.76-71.09-69.43-73.05Z"/>
    </clipPath>
    <linearGradient id="linear-gradient" x1="-864.83" y1="-495.9" x2="-863.83" y2="-495.9" gradientTransform="translate(136993.6 -84365.97) scale(158.41 -170.31)" gradientUnits="userSpaceOnUse">
      <stop offset="0" stop-color="#00b5ef"/>
      <stop offset="1" stop-color="#14377d"/>
    </linearGradient>
    <clipPath id="clippath-1">
      <path class="cls-1" d="M157.1,21.4h0c.55.66.92,1.18,1.84,1.78,1.2.79,3.36,1.49,4.2,1.58-.84.15-2.43-.25-3.72-.67-1.19-.39-2.33-1.46-3.3-2.52-.74.13-1.47.26-2.2.4-1.21.19-2.43.4-3.63.65.73,1.17,1.1,2,2.32,3.14,1.46,1.36,4.22,2.9,5.32,3.25-1.14-.05-3.18-1.02-4.83-1.94-1.51-.85-2.84-2.55-3.94-4.21-1.12.26-2.24.54-3.33.87-.81.24-1.61.51-2.4.8,1,1.6,1.07,1.83,2.5,3.11,1.61,1.45,4.25,3.27,5.36,3.77-1.25-.15-3.77-1.54-4.96-2.25-1.08-.64-2.68-2.01-3.98-4.21-.62.26-1.23.53-1.83.83-.4-.35-.82-.67-1.23-1.01.32-.17.63-.35.95-.51.66-2.77,1.29-4.35,2.06-5.59.84-1.35,2.48-3.71,3.56-4.3-.87.9-2.55,2.92-3.46,5.41-.74,2.02-.99,2.51-1.14,4.02,1.46-.63,2.97-1.15,4.48-1.59.28-.08.57-.16.85-.24.6-1.92,1.41-3.9,2.61-5.21,1.38-1.51,3.14-3.2,4.27-3.67-1.01.74-3.32,3.26-4.38,5.12-.78,1.38-.97,2.27-1.27,3.44,2.04-.5,4.11-.89,6.18-1.19.67-1.64,1.53-3.34,2.69-4.4,1.29-1.18,2.92-2.48,3.91-2.79-.91.56-3.07,2.52-4.12,4.02-.84,1.21-1.04,1.98-1.43,3.08,4.64-.37,9.28-.4,13.89-.12-3.98.16-7.94.54-11.86,1.16M137.09,20.1h0c-.06-.7-.15-1.4-.26-2.09-1.14-.15-2.34-.4-3.12-1-.86-.66-1.82-1.51-2.1-2.13.43.51,1.86,1.6,2.91,2.03.88.36,1.4.33,2.2.4-.13-.73-.28-1.47-.44-2.19-.08-.45-.17-.89-.26-1.33-.78-.24-1.6-.57-2.08-1.12-.51-.59-1.07-1.36-1.17-1.87.23.45,1.08,1.45,1.76,1.89.52.34.88.4,1.36.52-.52-2.34-1.17-4.64-1.96-6.89,1.15,2.47,2.15,5.05,2.97,7.72.5-.53.88-.85,1.34-1.66.58-1,1.17-2.74,1.27-3.41.05.64-.3,1.91-.65,2.95-.31.94-1.05,1.9-1.78,2.73.28,1.23.53,2.48.7,3.75.56-.49,1-.85,1.58-1.67.77-1.11,1.62-3.1,1.8-3.86,0,.75-.53,2.19-1.04,3.37-.23.36-.43.72-.63,1.09-.46.65-1.03,1.27-1.61,1.84.02.18.04.35.06.53.05.56.09,1.12.11,1.69-.07.52-.11,1.05-.06,1.56.02.27.07.53.11.8-.3-.24-.61-.47-.92-.71.01-.23.02-.45.02-.68-.43-.03-.82-.1-1.18-.18-.77-.58-1.56-1.14-2.35-1.69.44.24.9.48,1.3.65,1.01.43,1.14.41,2.22.51-.01-.51-.05-1.03-.09-1.55ZM179.27,18.05s-2.39-1.41-3.92-1.87c-1.52-.47-3.95-.65-3.95-.65,0,0,.31-.68.73-1.18.42-.51,1.62-1.45,1.62-1.45,0,0-2.43-.52-3.6-.63-1.17-.11-3.41.39-3.41.39,0,0,0-.47.44-.98.45-.51,1.04-.99,1.04-.99,0,0-3.15-.6-4.88-.81-1.73-.21-4.56.3-4.56.3,0,0,.63-.84,1.05-1.34.42-.5,1.01-1.1,1.01-1.1,0,0-2.27.09-3.83.3-1.56.21-3.93.93-3.93.93,0,0,.23-.44.48-1.02.25-.59.49-1.16.49-1.16,0,0-2.9,1.08-3.84,1.63-.93.55-2.98,1.99-2.98,1.99,0,0-.05-.77.23-1.52.28-.76.6-1.33.6-1.33,0,0-2.61,2.09-5.18,5.02.34-.39.56-.64.56-.64,0,0-.13-1.52-.36-2.44-.23-.93-.67-2.21-.67-2.21,0,0-.2.49-.38.87-.17.37-.49.96-.49.96,0,0-.34-1.71-.84-2.61-.49-.9-1.5-2.48-1.5-2.48,0,0-.13.46-.31.85-.18.39-.43.52-.43.52,0,0-.22-1.39-.53-2-.32-.62-1.13-1.82-1.13-1.82,0,0-.24.93-.42,1.3-.18.38-.48.74-.48.74,0,0-.62-1.29-1.21-2-.58-.71-1.86-1.64-1.86-1.64,0,0-.33.91-.53,1.63-.19.72-.23,1.91-.23,1.91,0,0-.27.06-.62-.18-.36-.24-.5-.56-.5-.56,0,0-.15,1.27-.22,2.04-.06.77-.08,2.06-.08,2.06,0,0-.18-.06-.54-.35-.36-.29-.52-.57-.52-.57,0,0-.22,1.86-.23,2.72,0,.86.13,2.08.13,2.08,0,0-.44-.15-.71-.27-.27-.12-.87-.58-.87-.58,0,0-.18,1.43-.07,2.22.11.79.5,1.83.5,1.83,0,0-.1.2-.46.13-.36-.06-.54-.25-.54-.25,0,0-.08,1.14.14,2.02.08.34.22.66.37.93-11.52-6.67-24.76-10.73-38.89-11.34,14.51.73,27.9,5.69,38.98,13.67,1.17.84,2.3,1.72,3.41,2.62.15.12.3.25.46.38,1.08.9,2.13,1.81,3.15,2.76,2.32,2.16,4.5,4.46,6.52,6.89.98,1.17,1.92,2.37,2.83,3.6,8.85,12.1,14.09,27,14.09,43.14,0,40.39-32.78,73.14-73.2,73.14v.05c-33.77,0-61.15-27.37-61.15-61.14,0-31.54,23.88-57.5,54.55-60.79C41.27,33.09,11.99,64.42,11.99,102.59s30.76,71.09,69.44,73.06c1.25.06,2.5.09,3.77.09,47.05,0,85.2-38.15,85.2-85.2,0-20.36-7.15-39.04-19.07-53.69,0,0,0,0,0-.01-.11-.55.05-.83.05-.83,0,0,1.17.65,2.35,1.01,1.17.35,3.7.6,3.7.6,0,0-.78-.72-.95-1.14-.17-.41.01-.8.01-.8,0,0,1.71.44,3.2.26,1.49-.18,3.14-1.01,3.14-1.01,0,0-.42-.17-.8-.68-.38-.51-.17-.78-.17-.78,0,0,1.88-.03,3.14-.34,1.25-.32,3.27-1.45,3.27-1.45,0,0-1.16-.65-1.55-1-.39-.35-.96-.93-.96-.93,0,0,1.93-.53,3.21-1.07,1.28-.54,3.89-2.01,3.89-2.01,0,0-.55-.09-1.27-.46-.71-.37-.95-.61-.95-.61,0,0,1.92-.8,3.02-1.36,1.1-.56,2.89-1.58,2.89-1.58,0,0-.6-.02-1.23-.42-.64-.41-.76-.85-.76-.85,0,0,1.74-.78,2.68-1.52.94-.75,2.03-1.81,2.03-1.81Z"/>
    </clipPath>
    <linearGradient id="linear-gradient-2" x1="-865.09" y1="-495.88" x2="-864.09" y2="-495.88" gradientTransform="translate(146137.33 -87060.42) scale(168.91 -175.74)" gradientUnits="userSpaceOnUse">
      <stop offset="0" stop-color="#c4d82e"/>
      <stop offset="1" stop-color="#2e953e"/>
    </linearGradient>
  </defs>
  <g id="Layer_1-2" data-name="Layer 1">
    <g class="cls-7">
      <rect class="cls-3" x="0" y="5.34" width="158.4" height="170.31"/>
    </g>
    <path class="cls-5" d="M144.76,46.66c-7.08-19.02-24.71-32.89-45.77-34.52,20.1,3.72,36.91,16.78,45.77,34.52"/>
    <g class="cls-4">
      <rect class="cls-2" x="11.99" y="0" width="167.28" height="175.74"/>
    </g>
    <path class="cls-6" d="M72.89,78.49h0c-.14.02-.29.02-.43.02-2.2,0-3.99-1.79-3.99-3.99,0-2.06,1.56-3.75,3.56-3.97.14-.02.29-.02.43-.02,2.2,0,3.99,1.79,3.99,3.99,0,2.06-1.56,3.75-3.56,3.97M72.46,68.96c-3.07,0-5.56,2.49-5.56,5.56s2.49,5.56,5.56,5.56,5.56-2.49,5.56-5.56c0-3.07-2.49-5.56-5.56-5.56Z"/>
    <path class="cls-6" d="M80.58,74.45h1.84c1.33,0,1.98-.95,1.98-1.91s-.66-1.89-1.98-1.89h-2.42v9.34h-1.56v-10.94h3.98c2.37,0,3.56,1.75,3.56,3.48,0,1.55-.95,3.02-2.83,3.34l3.45,4.11h-2.05l-3.98-4.8v-.75Z"/>
    <path class="cls-6" d="M90.7,78.41h0c2.53,0,3.81-1.94,3.81-3.88s-1.28-3.89-3.81-3.89h-2.34v7.77h2.34ZM90.7,69.07c3.58,0,5.37,2.73,5.37,5.47s-1.8,5.45-5.37,5.45h-3.92v-10.92h3.92Z"/>
    <path class="cls-6" d="M96.53,76.69v-7.62h1.59v7.64c0,1.2,1.3,1.79,2.45,1.79s2.43-.61,2.43-1.81v-7.62h1.59v7.64c0,2.21-2.15,3.37-4.02,3.37-1.92,0-4.04-1.15-4.04-3.38"/>
    <path class="cls-6" d="M36.74,95.89h-4.64v-4.79h4.64c1.46,0,2.19,1.2,2.19,2.38,0,1.18-.73,2.41-2.19,2.41M32.1,85.05h4.1c2.36,0,2.32,3.91-.04,3.91h-4.06v-3.91ZM38.76,89.73c1.5-1.08,1.7-2.79,1.09-4.27-.56-1.4-1.76-2.47-3.65-2.47h-6.24v15h6.78c2.88,0,4.36-2.28,4.36-4.53,0-1.42-.62-3-2.34-3.73Z"/>
    <polygon class="cls-6" points="60.17 89.58 56.07 83 53.51 83 59.07 91.88 59.07 98 61.26 98 61.26 91.88 66.84 83 64.27 83 60.17 89.58"/>
    <rect class="cls-6" x="79.93" y="83" width="2.15" height="15"/>
    <polygon class="cls-6" points="90.45 83 87.72 83 82.49 89.95 82.49 91.04 88.22 98 91.05 98 84.72 90.44 90.45 83"/>
    <polygon class="cls-6" points="104.7 91.58 111.5 91.58 111.5 89.39 104.7 89.39 104.7 85.16 111.65 85.16 111.65 83 102.51 83 102.51 98 111.67 98 111.67 95.83 104.7 95.83 104.7 91.58"/>
    <polygon class="cls-6" points="122.04 89.33 115.69 89.33 115.69 83 113.52 83 113.52 98 115.69 98 115.69 91.47 122.04 91.47 122.04 98 124.23 98 124.23 83 122.04 83 122.04 89.33"/>
    <path class="cls-6" d="M136.79,92.35c2.58-.45,3.88-2.47,3.88-4.59,0-2.38-1.63-4.79-4.89-4.79h-5.47v15.03h2.15v-12.84h3.33c1.83,0,2.73,1.31,2.73,2.6s-.9,2.62-2.73,2.62h-2.53v1.03l5.47,6.59h2.81l-4.74-5.65Z"/>
    <path class="cls-6" d="M96.15,89.37c-1.61-.15-3.3-.34-3.41-1.89-.05-.51.06-1.01.36-1.39.6-.78,1.72-1.12,2.73-1.14,1.31-.02,2.77.56,3.07,1.91l2.15-.09c-.39-2.75-2.79-3.95-5.11-3.95-1.74,0-3.54.69-4.55,2-.64.83-.9,1.83-.82,2.83.24,3.13,2.98,3.65,5.32,3.89,1.5.15,3.05.34,3.31,1.48.04.19.06.37.06.52,0,1.55-1.76,2.45-3.37,2.45-1.4,0-3.09-.73-3.24-2.12v.08l-.02-.32-2.19.04.02.41c.23,2.27,2.29,3.6,4.32,3.96v1.2h2.17v-1.19c2.33-.38,4.5-1.97,4.5-4.48,0-.3-.04-.66-.11-.99-.58-2.4-3.13-2.94-5.2-3.2"/>
    <rect class="cls-6" x="126.2" y="82.97" width="2.17" height="2.19"/>
    <rect class="cls-6" x="126.2" y="85.88" width="2.17" height="12.11"/>
    <path class="cls-6" d="M75.98,93.49c0,1.66-1.78,2.49-3.35,2.49s-3.37-.82-3.37-2.47v-10.52h-2.19v10.49c0,3.07,2.92,4.66,5.56,4.66s5.54-1.59,5.54-4.64v-10.52h-2.19v10.49h0Z"/>
    <rect class="cls-6" x="70.03" y="83" width="2.17" height="2.19"/>
    <rect class="cls-6" x="73.05" y="83" width="2.17" height="2.19"/>
    <path class="cls-6" d="M51.01,93.49c0,1.66-1.78,2.49-3.35,2.49s-3.37-.82-3.37-2.47v-10.52h-2.19v10.49c0,3.07,2.92,4.66,5.56,4.66s5.54-1.59,5.54-4.64v-10.52h-2.19v10.49h0Z"/>
    <rect class="cls-6" x="45.06" y="83" width="2.17" height="2.19"/>
    <rect class="cls-6" x="48.08" y="83" width="2.17" height="2.19"/>
    <path class="cls-6" d="M55.16,110.5h-3.41v-3.52h3.41c1.07,0,1.61.88,1.61,1.75,0,.87-.54,1.76-1.61,1.76M51.75,102.54h3.01c1.73,0,1.7,2.87-.03,2.87h-2.98v-2.87h0ZM56.64,105.98c1.11-.79,1.25-2.05.8-3.14-.41-1.03-1.29-1.81-2.68-1.81h-4.59v11.02h4.98c2.11,0,3.2-1.67,3.2-3.33,0-1.04-.46-2.21-1.72-2.74Z"/>
    <polygon class="cls-6" points="60.71 107.34 65.71 107.34 65.71 105.73 60.71 105.73 60.71 102.62 65.82 102.62 65.82 101.03 59.1 101.03 59.1 112.05 65.83 112.05 65.83 110.46 60.71 110.46 60.71 107.34"/>
    <polygon class="cls-6" points="68.75 101.03 67.16 101.03 67.16 112.05 73.94 112.05 73.94 110.46 68.75 110.46 68.75 101.03"/>
    <polygon class="cls-6" points="76.17 107.34 81.17 107.34 81.17 105.73 76.17 105.73 76.17 102.62 81.28 102.62 81.28 101.03 74.56 101.03 74.56 112.05 81.29 112.05 81.29 110.46 76.17 110.46 76.17 107.34"/>
    <path class="cls-6" d="M86.57,110.46h-2.37v-7.84h2.37c2.56,0,3.85,1.97,3.85,3.93s-1.29,3.91-3.85,3.91M86.57,101.03h-3.96v11.02h3.96c3.61,0,5.42-2.74,5.42-5.5s-1.81-5.52-5.42-5.52Z"/>
    <polygon class="cls-6" points="99.01 105.87 96 101.03 94.12 101.03 98.21 107.55 98.21 112.05 99.81 112.05 99.81 107.55 103.92 101.03 102.02 101.03 99.01 105.87"/>
    <polygon class="cls-6" points="105.71 107.34 110.71 107.34 110.71 105.73 105.71 105.73 105.71 102.62 110.82 102.62 110.82 101.03 104.11 101.03 104.11 112.05 110.84 112.05 110.84 110.46 105.71 110.46 105.71 107.34"/>
    <path class="cls-6" d="M111.24,104.47s0-.01,0-.02v.02Z"/>
    <path class="cls-6" d="M115.34,105.71c-1.18-.11-2.43-.25-2.51-1.39-.03-.38.05-.74.27-1.02.44-.57,1.26-.82,2.01-.84.96-.02,2.03.41,2.25,1.4l1.58-.06c-.28-2.02-2.05-2.9-3.75-2.9-1.28,0-2.6.51-3.35,1.47-.47.61-.66,1.35-.6,2.08.17,2.3,2.19,2.68,3.91,2.86,1.11.11,2.24.25,2.43,1.09.03.14.05.27.05.38,0,1.14-1.29,1.8-2.48,1.8-1.02,0-2.27-.53-2.38-1.56v.06l-.02-.23-1.61.03.02.3c.2,1.97,2.27,2.98,3.98,2.98,1.99,0,4.1-1.23,4.1-3.36,0-.22-.03-.48-.08-.72-.42-1.77-2.3-2.16-3.82-2.35"/>
    <rect class="cls-6" x="92.36" y="101.02" width="1.59" height="1.61"/>
    <rect class="cls-6" x="92.36" y="103.16" width="1.59" height="8.9"/>
    <rect class="cls-6" x="119.72" y="101.02" width="1.59" height="1.61"/>
    <rect class="cls-6" x="119.72" y="103.16" width="1.59" height="8.9"/>
  </g>
</svg>