<?xml version="1.0" encoding="iso-8859-1"?>
<!-- Generator: Adobe Illustrator 29.7.1, SVG Export Plug-In . SVG Version: 9.03 Build 0)  -->
<svg version="1.1" id="Layer_1" xmlns="http://www.w3.org/2000/svg" xmlns:xlink="http://www.w3.org/1999/xlink" x="0px" y="0px"
	 viewBox="0 0 595.276 841.89" style="enable-background:new 0 0 595.276 841.89;" xml:space="preserve">
<g>
	<defs>
		<path id="SVGID_1_" d="M296.973,621.26c-1.249-0.068-2.505-0.096-3.769-0.096c-47.055,0-85.202,38.142-85.202,85.199
			c0,45.788,36.13,83.127,81.432,85.107c-38.678-1.966-69.438-33.926-69.438-73.057c0-40.4,32.782-73.149,73.208-73.149v-0.05
			c33.771,0,61.146,27.374,61.146,61.149c0,31.537-23.883,57.489-54.546,60.781c37.335-3.334,66.602-34.662,66.602-72.829
			C366.407,655.178,335.648,623.221,296.973,621.26"/>
	</defs>
	<clipPath id="SVGID_00000090282372172153571870000015184570512989634486_">
		<use xlink:href="#SVGID_1_"  style="overflow:visible;"/>
	</clipPath>
	
		<linearGradient id="SVGID_00000012466524587935209310000009124615856598867129_" gradientUnits="userSpaceOnUse" x1="2.022862e-06" y1="841.3898" x2="1" y2="841.3898" gradientTransform="matrix(158.4054 0 0 170.3089 208.002 -142589.8594)">
		<stop  offset="0" style="stop-color:#00B5EF"/>
		<stop  offset="1" style="stop-color:#14377D"/>
	</linearGradient>
	
		<rect x="208.002" y="621.163" style="clip-path:url(#SVGID_00000090282372172153571870000015184570512989634486_);fill:url(#SVGID_00000012466524587935209310000009124615856598867129_);" width="158.405" height="170.306"/>
</g>
<path style="fill:#FFFFFF;" d="M352.765,662.474c-7.083-19.016-24.71-32.885-45.772-34.519
	C327.091,631.673,343.903,644.733,352.765,662.474"/>
<g>
	<defs>
		<path id="SVGID_00000119834503947751299000000003818243813550329988_" d="M365.097,637.218L365.097,637.218
			c0.552,0.665,0.92,1.182,1.841,1.779c1.198,0.786,3.363,1.495,4.205,1.577c-0.841,0.146-2.428-0.251-3.718-0.675
			c-1.187-0.394-2.329-1.456-3.298-2.518c-0.74,0.126-1.471,0.258-2.204,0.399c-1.215,0.187-2.429,0.401-3.628,0.65
			c0.725,1.174,1.096,1.999,2.32,3.138c1.463,1.364,4.218,2.901,5.321,3.249c-1.142-0.052-3.181-1.018-4.829-1.937
			c-1.511-0.852-2.837-2.549-3.941-4.207c-1.121,0.257-2.236,0.54-3.334,0.868c-0.807,0.242-1.609,0.506-2.397,0.796
			c0.997,1.604,1.069,1.826,2.498,3.111c1.607,1.448,4.251,3.273,5.355,3.772c-1.246-0.153-3.767-1.542-4.956-2.248
			c-1.084-0.639-2.68-2.008-3.981-4.214c-0.619,0.255-1.228,0.533-1.825,0.831c-0.403-0.346-0.816-0.674-1.226-1.01
			c0.317-0.169,0.627-0.353,0.948-0.506c0.656-2.769,1.287-4.355,2.06-5.592c0.841-1.351,2.484-3.708,3.564-4.302
			c-0.87,0.901-2.554,2.922-3.459,5.408c-0.739,2.022-0.991,2.513-1.137,4.016c1.464-0.634,2.97-1.146,4.484-1.588
			c0.283-0.082,0.565-0.16,0.846-0.237c0.599-1.916,1.408-3.899,2.606-5.205c1.376-1.506,3.138-3.201,4.27-3.671
			c-1.005,0.745-3.315,3.262-4.38,5.123c-0.784,1.381-0.969,2.274-1.269,3.437c2.044-0.499,4.105-0.885,6.176-1.193
			c0.673-1.636,1.529-3.345,2.69-4.403c1.288-1.176,2.915-2.477,3.913-2.79c-0.909,0.556-3.068,2.519-4.116,4.02
			c-0.837,1.208-1.037,1.981-1.433,3.075c4.64-0.367,9.282-0.397,13.892-0.117C372.977,636.21,369.01,636.593,365.097,637.218
			 M345.092,635.92L345.092,635.92c-0.064-0.701-0.153-1.397-0.258-2.087c-1.137-0.146-2.338-0.403-3.124-0.998
			c-0.86-0.655-1.823-1.513-2.1-2.128c0.429,0.509,1.858,1.604,2.909,2.029c0.882,0.357,1.403,0.332,2.197,0.401
			c-0.128-0.734-0.28-1.469-0.442-2.192c-0.082-0.445-0.171-0.889-0.264-1.331c-0.784-0.24-1.602-0.572-2.076-1.119
			c-0.511-0.595-1.071-1.359-1.175-1.869c0.227,0.446,1.08,1.445,1.763,1.889c0.524,0.339,0.884,0.399,1.359,0.515
			c-0.516-2.339-1.172-4.644-1.956-6.887c1.155,2.47,2.149,5.05,2.969,7.721c0.502-0.526,0.875-0.855,1.343-1.66
			c0.581-1,1.168-2.745,1.266-3.407c0.047,0.64-0.297,1.906-0.653,2.949c-0.314,0.939-1.048,1.895-1.78,2.728
			c0.28,1.233,0.529,2.484,0.704,3.752c0.559-0.49,1.001-0.846,1.575-1.667c0.768-1.112,1.622-3.097,1.803-3.862
			c-0.007,0.752-0.529,2.186-1.037,3.372c-0.228,0.356-0.431,0.721-0.631,1.085c-0.46,0.651-1.026,1.274-1.615,1.844
			c0.018,0.176,0.039,0.353,0.059,0.533c0.054,0.558,0.087,1.121,0.105,1.687c-0.072,0.524-0.105,1.048-0.058,1.557
			c0.023,0.267,0.067,0.535,0.107,0.8c-0.301-0.24-0.609-0.472-0.916-0.706c0.01-0.226,0.023-0.454,0.023-0.681
			c-0.429-0.028-0.816-0.098-1.177-0.185c-0.773-0.575-1.556-1.144-2.352-1.693c0.444,0.245,0.902,0.477,1.301,0.65
			c1.005,0.431,1.141,0.406,2.221,0.506C345.172,636.953,345.136,636.435,345.092,635.92z M387.273,633.869
			c0,0-2.393-1.406-3.915-1.872c-1.518-0.465-3.945-0.648-3.945-0.648s0.306-0.679,0.732-1.18c0.422-0.506,1.623-1.447,1.623-1.447
			s-2.434-0.52-3.603-0.627c-1.165-0.109-3.414,0.394-3.414,0.394s-0.004-0.474,0.442-0.985c0.446-0.513,1.037-0.987,1.037-0.987
			s-3.15-0.602-4.882-0.809c-1.732-0.208-4.56,0.296-4.56,0.296s0.631-0.843,1.055-1.338c0.423-0.503,1.007-1.099,1.007-1.099
			s-2.266,0.095-3.831,0.303c-1.561,0.214-3.935,0.928-3.935,0.928s0.228-0.438,0.481-1.023c0.253-0.589,0.487-1.162,0.487-1.162
			s-2.896,1.08-3.837,1.634c-0.934,0.55-2.981,1.99-2.981,1.99s-0.055-0.77,0.23-1.522c0.278-0.755,0.601-1.329,0.601-1.329
			s-2.607,2.088-5.177,5.016c0.337-0.389,0.563-0.641,0.563-0.641s-0.134-1.516-0.36-2.438c-0.23-0.928-0.67-2.208-0.67-2.208
			s-0.198,0.492-0.378,0.867c-0.175,0.374-0.488,0.962-0.488,0.962s-0.344-1.709-0.836-2.608c-0.486-0.902-1.498-2.476-1.498-2.476
			s-0.128,0.458-0.306,0.852c-0.179,0.391-0.435,0.522-0.435,0.522s-0.221-1.385-0.531-2.001c-0.315-0.617-1.126-1.816-1.126-1.816
			s-0.242,0.928-0.421,1.304c-0.178,0.378-0.481,0.74-0.481,0.74s-0.624-1.294-1.212-2.003c-0.577-0.713-1.86-1.639-1.86-1.639
			s-0.332,0.905-0.53,1.63c-0.194,0.724-0.232,1.909-0.232,1.909s-0.269,0.059-0.622-0.179c-0.36-0.237-0.501-0.563-0.501-0.563
			s-0.155,1.274-0.219,2.038c-0.064,0.768-0.077,2.056-0.077,2.056s-0.18-0.059-0.536-0.351c-0.356-0.292-0.524-0.574-0.524-0.574
			s-0.217,1.864-0.235,2.72c-0.009,0.862,0.126,2.081,0.126,2.081s-0.44-0.154-0.714-0.273c-0.271-0.116-0.872-0.577-0.872-0.577
			s-0.176,1.432-0.073,2.216c0.11,0.786,0.499,1.829,0.499,1.829s-0.096,0.196-0.456,0.128c-0.355-0.064-0.539-0.251-0.539-0.251
			s-0.082,1.138,0.143,2.015c0.085,0.335,0.224,0.658,0.369,0.932c-11.525-6.675-24.76-10.733-38.885-11.345
			c14.51,0.734,27.903,5.692,38.979,13.667c1.166,0.837,2.296,1.718,3.406,2.625c0.153,0.125,0.305,0.253,0.458,0.378
			c1.075,0.895,2.128,1.809,3.154,2.76c2.324,2.155,4.501,4.455,6.525,6.889c0.977,1.171,1.921,2.37,2.825,3.599
			c8.854,12.097,14.087,27.003,14.087,43.136c0,40.394-32.778,73.144-73.203,73.144v0.046c-33.772,0-61.146-27.373-61.146-61.142
			c0-31.542,23.881-57.499,54.551-60.789c-37.338,3.334-66.613,34.664-66.613,72.839c0,39.131,30.76,71.091,69.438,73.057
			c1.249,0.057,2.501,0.091,3.77,0.091c47.052,0,85.197-38.148,85.197-85.198c0-20.36-7.155-39.039-19.07-53.691
			c0-0.003,0-0.007-0.004-0.01c-0.105-0.547,0.052-0.834,0.052-0.834s1.174,0.652,2.354,1.012c1.174,0.353,3.703,0.597,3.703,0.597
			s-0.78-0.725-0.945-1.137c-0.171-0.411,0.011-0.804,0.011-0.804s1.707,0.44,3.2,0.257c1.49-0.185,3.136-1.006,3.136-1.006
			s-0.424-0.169-0.802-0.677c-0.376-0.508-0.168-0.78-0.168-0.78s1.877-0.03,3.138-0.339c1.253-0.315,3.265-1.454,3.265-1.454
			s-1.159-0.652-1.552-0.999c-0.388-0.348-0.959-0.932-0.959-0.932s1.93-0.528,3.208-1.071c1.276-0.543,3.895-2.014,3.895-2.014
			s-0.551-0.087-1.267-0.456c-0.715-0.369-0.946-0.613-0.946-0.613s1.917-0.798,3.019-1.365c1.096-0.563,2.887-1.579,2.887-1.579
			s-0.602-0.018-1.233-0.422c-0.635-0.405-0.759-0.848-0.759-0.848s1.745-0.781,2.68-1.52
			C386.181,634.931,387.273,633.869,387.273,633.869z"/>
	</defs>
	<clipPath id="SVGID_00000110439295099750414330000006667084487525691017_">
		<use xlink:href="#SVGID_00000119834503947751299000000003818243813550329988_"  style="overflow:visible;"/>
	</clipPath>
	
		<linearGradient id="SVGID_00000046329787156255163670000002504253283978401702_" gradientUnits="userSpaceOnUse" x1="1.833795e-05" y1="841.3898" x2="1" y2="841.3898" gradientTransform="matrix(168.9137 0 0 175.7446 219.9932 -147166.0469)">
		<stop  offset="0" style="stop-color:#C4D82E"/>
		<stop  offset="1" style="stop-color:#2E953E"/>
	</linearGradient>
	
		<rect x="219.996" y="615.818" style="clip-path:url(#SVGID_00000110439295099750414330000006667084487525691017_);fill:url(#SVGID_00000046329787156255163670000002504253283978401702_);" width="167.277" height="175.743"/>
</g>
<path style="fill:#14377D;" d="M280.889,694.305L280.889,694.305c-0.141,0.016-0.285,0.024-0.431,0.024
	c-2.205,0-3.993-1.788-3.993-3.992c0-2.06,1.559-3.754,3.562-3.969c0.141-0.015,0.285-0.024,0.431-0.024
	c2.205,0,3.992,1.787,3.992,3.993C284.451,692.396,282.891,694.09,280.889,694.305 M280.459,684.774
	c-3.072,0-5.563,2.491-5.563,5.563c0,3.072,2.491,5.563,5.563,5.563s5.563-2.491,5.563-5.563
	C286.021,687.265,283.531,684.774,280.459,684.774z"/>
<path style="fill:#14377D;" d="M288.583,690.264h1.844c1.328,0,1.984-0.953,1.984-1.906c0-0.938-0.656-1.89-1.984-1.89h-2.422v9.344
	h-1.562v-10.936h3.984c2.374,0,3.562,1.749,3.562,3.483c0,1.548-0.953,3.017-2.828,3.344l3.454,4.109h-2.048l-3.984-4.797V690.264z"
	/>
<path style="fill:#14377D;" d="M298.7,694.233L298.7,694.233c2.531,0,3.812-1.938,3.812-3.875c0-1.937-1.281-3.89-3.812-3.89h-2.343
	v7.765H298.7z M298.7,684.889c3.577,0,5.374,2.734,5.374,5.468c0,2.735-1.797,5.454-5.374,5.454h-3.922v-10.922H298.7z"/>
<path style="fill:#14377D;" d="M304.53,692.513v-7.624h1.591v7.639c0,1.2,1.295,1.793,2.449,1.793c1.139,0,2.434-0.608,2.434-1.809
	v-7.624h1.59v7.639c0,2.214-2.152,3.368-4.025,3.368C306.651,695.896,304.53,694.742,304.53,692.513"/>
<path style="fill:#14377D;" d="M244.739,711.713L244.739,711.713H240.1v-4.786h4.639c1.458,0,2.19,1.203,2.19,2.38
	C246.929,710.489,246.197,711.713,244.739,711.713 M240.1,700.873L240.1,700.873h4.101c2.361,0,2.318,3.906-0.043,3.906H240.1
	V700.873z M246.757,705.553c1.501-1.075,1.696-2.79,1.094-4.271c-0.558-1.397-1.759-2.468-3.649-2.468h-6.245v15.004h6.782
	c2.876,0,4.356-2.277,4.356-4.53C249.095,707.871,248.473,706.283,246.757,705.553z"/>
<polygon style="fill:#14377D;" points="268.168,705.403 264.073,698.814 261.516,698.814 267.074,707.699 267.074,713.818 
	269.263,713.818 269.263,707.699 274.844,698.814 272.27,698.814 "/>
<rect x="287.932" y="698.814" style="fill:#14377D;" width="2.147" height="15.004"/>
<polygon style="fill:#14377D;" points="298.451,698.814 295.723,698.814 290.487,705.768 290.487,706.862 296.219,713.818 
	299.051,713.818 292.719,706.262 "/>
<polygon style="fill:#14377D;" points="312.699,707.399 319.501,707.399 319.501,705.211 312.699,705.211 312.699,700.983 
	319.652,700.983 319.652,698.814 310.51,698.814 310.51,713.818 319.673,713.818 319.673,711.649 312.699,711.649 "/>
<polygon style="fill:#14377D;" points="330.044,705.145 323.69,705.145 323.69,698.814 321.52,698.814 321.52,713.818 
	323.69,713.818 323.69,707.291 330.044,707.291 330.044,713.818 332.232,713.818 332.232,698.814 330.044,698.814 "/>
<path style="fill:#14377D;" d="M344.789,708.171c2.577-0.451,3.883-2.466,3.883-4.592c0-2.383-1.632-4.787-4.891-4.787h-5.473
	v15.026h2.146v-12.835h3.326c1.826,0,2.725,1.306,2.725,2.596c0,1.31-0.9,2.618-2.725,2.618h-2.532v1.033l5.474,6.589h2.811
	L344.789,708.171z"/>
<path style="fill:#14377D;" d="M304.152,705.186c-1.608-0.147-3.304-0.341-3.41-1.888c-0.045-0.513,0.063-1.008,0.362-1.393
	c0.604-0.776,1.719-1.118,2.728-1.137c1.309-0.021,2.766,0.557,3.068,1.909l2.148-0.085c-0.387-2.748-2.791-3.951-5.11-3.951
	c-1.737,0-3.54,0.688-4.548,1.997c-0.642,0.832-0.897,1.833-0.817,2.834c0.236,3.134,2.985,3.649,5.323,3.886
	c1.5,0.15,3.048,0.342,3.307,1.48c0.04,0.193,0.061,0.367,0.061,0.515c0,1.546-1.759,2.449-3.368,2.449
	c-1.396,0-3.091-0.731-3.242-2.124v0.084l-0.022-0.321l-2.188,0.041l0.023,0.41c0.234,2.274,2.292,3.604,4.324,3.957v1.195h2.168
	v-1.187c2.335-0.38,4.496-1.969,4.496-4.482c0-0.299-0.043-0.663-0.108-0.987C308.769,705.984,306.215,705.444,304.152,705.186"/>
<rect x="334.2" y="698.792" style="fill:#14377D;" width="2.167" height="2.191"/>
<rect x="334.2" y="701.703" style="fill:#14377D;" width="2.167" height="12.115"/>
<path style="fill:#14377D;" d="M283.985,709.307c0,1.656-1.783,2.493-3.349,2.493c-1.589,0-3.372-0.818-3.372-2.469v-10.517h-2.188
	v10.492c0,3.07,2.918,4.661,5.559,4.661c2.574,0,5.537-1.591,5.537-4.637v-10.517h-2.188V709.307z"/>
<rect x="278.034" y="698.814" style="fill:#14377D;" width="2.168" height="2.19"/>
<rect x="281.049" y="698.814" style="fill:#14377D;" width="2.165" height="2.19"/>
<path style="fill:#14377D;" d="M259.012,709.307c0,1.656-1.78,2.493-3.347,2.493c-1.588,0-3.369-0.818-3.369-2.469v-10.517h-2.19
	v10.492c0,3.07,2.919,4.661,5.559,4.661c2.576,0,5.537-1.591,5.537-4.637v-10.517h-2.189V709.307z"/>
<rect x="253.064" y="698.814" style="fill:#14377D;" width="2.166" height="2.19"/>
<rect x="256.079" y="698.814" style="fill:#14377D;" width="2.168" height="2.19"/>
<path style="fill:#14377D;" d="M263.159,726.321L263.159,726.321h-3.408v-3.516h3.408c1.071,0,1.609,0.883,1.609,1.752
	C264.767,725.424,264.23,726.321,263.159,726.321 M259.75,718.357L259.75,718.357h3.014c1.734,0,1.704,2.87-0.033,2.87h-2.98
	V718.357z M264.64,721.797c1.105-0.79,1.247-2.052,0.805-3.14c-0.411-1.025-1.294-1.813-2.681-1.813h-4.59v11.024h4.985
	c2.112,0,3.201-1.672,3.201-3.329C266.36,723.499,265.901,722.332,264.64,721.797z"/>
<polygon style="fill:#14377D;" points="268.71,723.154 273.71,723.154 273.71,721.545 268.71,721.545 268.71,718.436 
	273.82,718.436 273.82,716.844 267.102,716.844 267.102,727.869 273.836,727.869 273.836,726.276 268.71,726.276 "/>
<polygon style="fill:#14377D;" points="276.756,716.844 275.163,716.844 275.163,727.869 281.944,727.869 281.944,726.276 
	276.756,726.276 "/>
<polygon style="fill:#14377D;" points="284.169,723.154 289.169,723.154 289.169,721.545 284.169,721.545 284.169,718.436 
	289.279,718.436 289.279,716.844 282.561,716.844 282.561,727.869 289.295,727.869 289.295,726.276 284.169,726.276 "/>
<path style="fill:#14377D;" d="M294.571,726.276L294.571,726.276h-2.367v-7.84h2.367c2.556,0,3.848,1.972,3.848,3.929
	C298.419,724.321,297.127,726.276,294.571,726.276 M294.571,716.844h-3.96v11.024h3.96c3.612,0,5.425-2.745,5.425-5.504
	C299.996,719.603,298.183,716.844,294.571,716.844z"/>
<polygon style="fill:#14377D;" points="307.012,721.686 304.001,716.844 302.125,716.844 306.208,723.373 306.208,727.869 
	307.816,727.869 307.816,723.373 311.918,716.844 310.024,716.844 "/>
<polygon style="fill:#14377D;" points="313.715,723.154 318.716,723.154 318.716,721.545 313.715,721.545 313.715,718.436 
	318.826,718.436 318.826,716.844 312.107,716.844 312.107,727.869 318.84,727.869 318.84,726.276 313.715,726.276 "/>
<path style="fill:#14377D;" d="M319.238,720.284c0-0.007,0.002-0.01,0-0.019V720.284z"/>
<path style="fill:#14377D;" d="M323.339,721.528c-1.182-0.11-2.428-0.253-2.507-1.39c-0.03-0.378,0.048-0.739,0.268-1.024
	c0.442-0.568,1.262-0.819,2.005-0.836c0.961-0.016,2.032,0.409,2.253,1.403l1.579-0.063c-0.284-2.017-2.052-2.903-3.754-2.903
	c-1.279,0-2.603,0.505-3.345,1.468c-0.47,0.609-0.658,1.347-0.6,2.081c0.174,2.304,2.194,2.682,3.912,2.856
	c1.105,0.11,2.24,0.253,2.429,1.09c0.031,0.141,0.047,0.266,0.047,0.377c0,1.137-1.292,1.798-2.476,1.798
	c-1.025,0-2.271-0.534-2.383-1.56v0.061l-0.015-0.234l-1.609,0.03l0.016,0.298c0.205,1.973,2.272,2.982,3.976,2.982
	c1.987,0,4.1-1.231,4.1-3.361c0-0.219-0.032-0.485-0.079-0.725C326.731,722.111,324.855,721.716,323.339,721.528"/>
<rect x="300.364" y="716.834" style="fill:#14377D;" width="1.593" height="1.61"/>
<rect x="300.364" y="718.974" style="fill:#14377D;" width="1.593" height="8.901"/>
<rect x="327.724" y="716.834" style="fill:#14377D;" width="1.594" height="1.61"/>
<rect x="327.724" y="718.974" style="fill:#14377D;" width="1.594" height="8.901"/>
<g>
	<defs>
		<path id="SVGID_00000003080284506831426530000014936730239680307879_" d="M148.728,73.945c-0.854-0.046-1.711-0.065-2.574-0.065
			c-32.127,0-58.173,26.042-58.173,58.172c0,31.262,24.669,56.757,55.599,58.108c-26.408-1.342-47.41-23.163-47.41-49.88
			c0-27.584,22.383-49.945,49.984-49.945V90.3c23.058,0,41.749,18.69,41.749,41.751c0,21.533-16.306,39.252-37.242,41.499
			c25.491-2.276,45.474-23.666,45.474-49.725C196.135,97.104,175.133,75.284,148.728,73.945"/>
	</defs>
	<clipPath id="SVGID_00000151525456725854429190000016316331804579871873_">
		<use xlink:href="#SVGID_00000003080284506831426530000014936730239680307879_"  style="overflow:visible;"/>
	</clipPath>
	
		<linearGradient id="SVGID_00000059289844568817991630000015151154036014694309_" gradientUnits="userSpaceOnUse" x1="2.680600e-06" y1="841.3898" x2="1" y2="841.3898" gradientTransform="matrix(108.1545 0 0 116.2817 87.9803 -97706.2109)">
		<stop  offset="0" style="stop-color:#00B5EF"/>
		<stop  offset="1" style="stop-color:#14377D"/>
	</linearGradient>
	
		<rect x="87.981" y="73.879" style="clip-path:url(#SVGID_00000151525456725854429190000016316331804579871873_);fill:url(#SVGID_00000059289844568817991630000015151154036014694309_);" width="108.154" height="116.28"/>
</g>
<path style="fill:#FFFFFF;" d="M186.82,102.084c-4.836-12.984-16.872-22.453-31.252-23.568
	C169.291,81.055,180.77,89.972,186.82,102.084"/>
<g>
	<defs>
		<path id="SVGID_00000072243352181585042560000001321505669168762285_" d="M195.24,84.841L195.24,84.841
			c0.377,0.454,0.628,0.807,1.257,1.215c0.818,0.536,2.296,1.021,2.871,1.076c-0.574,0.1-1.658-0.171-2.539-0.461
			c-0.811-0.269-1.59-0.994-2.252-1.719c-0.504,0.086-1.004,0.176-1.505,0.272c-0.829,0.128-1.658,0.274-2.477,0.444
			c0.495,0.802,0.748,1.365,1.584,2.143c0.999,0.931,2.88,1.981,3.633,2.218c-0.779-0.036-2.172-0.695-3.297-1.322
			c-1.032-0.582-1.937-1.741-2.691-2.873c-0.765,0.175-1.527,0.369-2.276,0.593c-0.551,0.165-1.098,0.345-1.636,0.543
			c0.681,1.095,0.73,1.247,1.706,2.125c1.098,0.989,2.903,2.234,3.656,2.576c-0.85-0.104-2.572-1.052-3.383-1.535
			c-0.74-0.437-1.83-1.371-2.718-2.877c-0.423,0.174-0.839,0.364-1.246,0.567c-0.275-0.236-0.557-0.459-0.837-0.69
			c0.217-0.115,0.428-0.241,0.647-0.345c0.448-1.89,0.878-2.974,1.406-3.818c0.575-0.923,1.697-2.531,2.434-2.937
			c-0.594,0.615-1.744,1.995-2.362,3.692c-0.505,1.381-0.676,1.716-0.776,2.742c0.999-0.433,2.028-0.782,3.061-1.083
			c0.194-0.056,0.386-0.109,0.578-0.162c0.409-1.308,0.962-2.662,1.779-3.554c0.939-1.028,2.142-2.185,2.915-2.506
			c-0.686,0.509-2.263,2.227-2.99,3.498c-0.536,0.943-0.662,1.552-0.866,2.347c1.395-0.341,2.803-0.605,4.217-0.816
			c0.46-1.117,1.044-2.284,1.837-3.006c0.879-0.803,1.99-1.691,2.671-1.905c-0.621,0.379-2.095,1.72-2.81,2.745
			c-0.572,0.825-0.708,1.353-0.979,2.1c3.168-0.251,6.337-0.271,9.485-0.08C200.621,84.153,197.913,84.414,195.24,84.841
			 M181.581,83.954L181.581,83.954c-0.044-0.478-0.104-0.954-0.176-1.425c-0.776-0.1-1.596-0.275-2.133-0.681
			c-0.587-0.446-1.244-1.033-1.434-1.453c0.293,0.348,1.269,1.095,1.987,1.386c0.602,0.243,0.958,0.226,1.5,0.274
			c-0.088-0.501-0.191-1.003-0.302-1.496c-0.056-0.305-0.117-0.607-0.18-0.909c-0.535-0.164-1.094-0.391-1.417-0.764
			c-0.349-0.406-0.731-0.929-0.802-1.276c0.155,0.305,0.738,0.987,1.203,1.29c0.358,0.231,0.603,0.272,0.928,0.352
			c-0.353-1.597-0.801-3.171-1.336-4.702c0.789,1.686,1.467,3.448,2.027,5.271c0.343-0.359,0.597-0.584,0.917-1.134
			c0.397-0.682,0.797-1.874,0.864-2.326c0.033,0.437-0.202,1.302-0.445,2.013c-0.214,0.641-0.715,1.293-1.215,1.863
			c0.191,0.842,0.361,1.696,0.481,2.562c0.382-0.334,0.684-0.578,1.075-1.138c0.524-0.759,1.107-2.114,1.231-2.636
			c-0.005,0.513-0.361,1.493-0.708,2.302c-0.156,0.243-0.294,0.493-0.431,0.741c-0.314,0.444-0.7,0.87-1.102,1.259
			c0.012,0.12,0.026,0.241,0.04,0.364c0.037,0.381,0.06,0.765,0.072,1.152c-0.049,0.358-0.072,0.716-0.039,1.063
			c0.016,0.183,0.045,0.366,0.073,0.547c-0.206-0.164-0.416-0.322-0.625-0.482c0.007-0.154,0.015-0.31,0.015-0.464
			c-0.293-0.02-0.557-0.068-0.804-0.127c-0.528-0.393-1.062-0.781-1.606-1.156c0.303,0.168,0.616,0.326,0.888,0.444
			c0.686,0.294,0.779,0.277,1.516,0.346C181.636,84.66,181.612,84.306,181.581,83.954z M210.382,82.554c0,0-1.634-0.96-2.673-1.278
			c-1.037-0.318-2.694-0.443-2.694-0.443s0.21-0.464,0.5-0.805c0.289-0.346,1.108-0.988,1.108-0.988s-1.661-0.355-2.46-0.429
			c-0.795-0.074-2.331,0.269-2.331,0.269s-0.003-0.323,0.302-0.672c0.305-0.351,0.708-0.675,0.708-0.675s-2.151-0.411-3.333-0.552
			c-1.183-0.142-3.114,0.202-3.114,0.202s0.431-0.576,0.721-0.914c0.289-0.343,0.688-0.751,0.688-0.751s-1.548,0.065-2.616,0.207
			c-1.066,0.146-2.686,0.634-2.686,0.634s0.156-0.299,0.329-0.699c0.172-0.401,0.332-0.793,0.332-0.793s-1.977,0.738-2.619,1.116
			c-0.638,0.376-2.035,1.359-2.035,1.359s-0.038-0.526,0.157-1.039c0.19-0.516,0.41-0.908,0.41-0.908s-1.78,1.427-3.535,3.425
			c0.23-0.265,0.385-0.438,0.385-0.438s-0.091-1.035-0.246-1.664c-0.157-0.634-0.458-1.508-0.458-1.508s-0.135,0.336-0.258,0.592
			c-0.12,0.255-0.333,0.657-0.333,0.657s-0.235-1.167-0.571-1.781c-0.332-0.616-1.023-1.69-1.023-1.69s-0.088,0.313-0.21,0.582
			c-0.121,0.266-0.297,0.356-0.297,0.356s-0.151-0.945-0.363-1.366c-0.215-0.421-0.769-1.24-0.769-1.24s-0.165,0.634-0.287,0.891
			c-0.121,0.258-0.328,0.505-0.328,0.505s-0.426-0.884-0.827-1.368c-0.394-0.487-1.269-1.119-1.269-1.119s-0.227,0.618-0.362,1.113
			c-0.133,0.494-0.158,1.303-0.158,1.303s-0.184,0.04-0.425-0.122c-0.246-0.162-0.342-0.384-0.342-0.384s-0.106,0.87-0.15,1.392
			c-0.043,0.524-0.052,1.404-0.052,1.404s-0.123-0.04-0.366-0.24c-0.243-0.2-0.358-0.392-0.358-0.392s-0.148,1.273-0.16,1.857
			c-0.007,0.588,0.087,1.421,0.087,1.421s-0.301-0.105-0.488-0.187c-0.185-0.079-0.595-0.394-0.595-0.394s-0.12,0.978-0.05,1.513
			c0.075,0.537,0.34,1.248,0.34,1.248s-0.066,0.134-0.311,0.088c-0.243-0.044-0.368-0.172-0.368-0.172s-0.056,0.777,0.098,1.376
			c0.058,0.229,0.153,0.449,0.252,0.636c-7.869-4.557-16.905-7.328-26.549-7.746c9.906,0.502,19.051,3.886,26.614,9.332
			c0.796,0.572,1.567,1.173,2.325,1.793c0.105,0.085,0.208,0.172,0.313,0.257c0.734,0.611,1.453,1.235,2.154,1.885
			c1.586,1.471,3.073,3.042,4.455,4.703c0.667,0.8,1.312,1.618,1.929,2.458c6.045,8.26,9.618,18.437,9.618,29.452
			c0,27.58-22.38,49.941-49.98,49.941v0.031c-23.059,0-41.749-18.689-41.749-41.746c0-21.536,16.305-39.259,37.246-41.505
			c-25.493,2.276-45.482,23.668-45.482,49.733c0,26.717,21.002,48.539,47.41,49.88c0.853,0.039,1.708,0.062,2.574,0.062
			c32.125,0,58.17-26.046,58.17-58.171c0-13.902-4.885-26.655-13.02-36.659c0-0.002,0-0.005-0.003-0.007
			c-0.072-0.374,0.036-0.569,0.036-0.569s0.802,0.446,1.607,0.691c0.802,0.241,2.528,0.408,2.528,0.408s-0.533-0.495-0.645-0.776
			c-0.117-0.281,0.007-0.549,0.007-0.549s1.166,0.301,2.185,0.175c1.017-0.126,2.141-0.687,2.141-0.687s-0.29-0.116-0.547-0.462
			c-0.257-0.347-0.115-0.533-0.115-0.533s1.282-0.02,2.143-0.231c0.855-0.215,2.229-0.993,2.229-0.993s-0.791-0.445-1.06-0.682
			c-0.265-0.237-0.654-0.636-0.654-0.636s1.318-0.36,2.19-0.732c0.871-0.371,2.66-1.375,2.66-1.375s-0.377-0.059-0.865-0.312
			c-0.488-0.252-0.646-0.418-0.646-0.418s1.309-0.545,2.061-0.932c0.748-0.384,1.971-1.078,1.971-1.078s-0.411-0.012-0.842-0.288
			c-0.433-0.276-0.518-0.579-0.518-0.579s1.191-0.533,1.83-1.038C209.636,83.279,210.382,82.554,210.382,82.554z"/>
	</defs>
	<clipPath id="SVGID_00000145758652217850104130000005856200367708266652_">
		<use xlink:href="#SVGID_00000072243352181585042560000001321505669168762285_"  style="overflow:visible;"/>
	</clipPath>
	
		<linearGradient id="SVGID_00000176009626171585485750000014863777003719094150_" gradientUnits="userSpaceOnUse" x1="1.733201e-05" y1="841.3898" x2="1" y2="841.3898" gradientTransform="matrix(115.3301 0 0 119.9928 96.1676 -100830.5078)">
		<stop  offset="0" style="stop-color:#C4D82E"/>
		<stop  offset="1" style="stop-color:#2E953E"/>
	</linearGradient>
	
		<rect x="96.17" y="70.229" style="clip-path:url(#SVGID_00000145758652217850104130000005856200367708266652_);fill:url(#SVGID_00000176009626171585485750000014863777003719094150_);" width="114.212" height="119.992"/>
</g>
<path style="fill:#14377D;" d="M333.73,99.725L333.73,99.725c-0.357,0.039-0.72,0.06-1.089,0.06c-5.575,0-10.095-4.52-10.095-10.093
	c0-5.207,3.942-9.492,9.007-10.035c0.357-0.038,0.72-0.059,1.089-0.059c5.574,0,10.094,4.518,10.094,10.094
	C342.735,94.897,338.792,99.182,333.73,99.725 M332.641,75.626c-7.768,0-14.066,6.298-14.066,14.065
	c0,7.767,6.297,14.065,14.066,14.065c7.767,0,14.064-6.298,14.064-14.065C346.706,81.924,340.408,75.626,332.641,75.626z"/>
<path style="fill:#14377D;" d="M353.182,89.507h4.662c3.358,0,5.017-2.41,5.017-4.821c0-2.37-1.659-4.778-5.017-4.778h-6.124v23.624
	h-3.951V75.88h10.075c6.003,0,9.006,4.422,9.006,8.806c0,3.914-2.411,7.628-7.15,8.456l8.733,10.39h-5.178l-10.073-12.128V89.507z"
	/>
<path style="fill:#14377D;" d="M378.763,99.541L378.763,99.541c6.4,0,9.638-4.899,9.638-9.798c0-4.897-3.238-9.835-9.638-9.835
	h-5.924v19.633H378.763z M378.763,75.917c9.046,0,13.588,6.913,13.588,13.826c0,6.914-4.542,13.789-13.588,13.789h-9.916V75.917
	H378.763z"/>
<path style="fill:#14377D;" d="M393.504,95.193V75.917h4.023v19.316c0,3.034,3.274,4.534,6.193,4.534
	c2.879,0,6.154-1.537,6.154-4.573V75.917h4.021v19.316c0,5.596-5.442,8.515-10.175,8.515
	C398.868,103.747,393.504,100.829,393.504,95.193"/>
<path style="fill:#14377D;" d="M242.325,143.739L242.325,143.739h-11.728v-12.103h11.728c3.688,0,5.537,3.042,5.537,6.018
	C247.862,140.644,246.013,143.739,242.325,143.739 M230.596,116.332L230.596,116.332h10.37c5.969,0,5.861,9.875-0.108,9.875h-10.262
	V116.332z M247.428,128.165c3.795-2.719,4.287-7.055,2.765-10.799c-1.411-3.531-4.447-6.242-9.226-6.242h-15.791v37.936h17.149
	c7.272,0,11.015-5.757,11.015-11.453C253.339,134.025,251.768,130.01,247.428,128.165z"/>
<polygon style="fill:#14377D;" points="301.565,127.785 291.209,111.125 284.744,111.125 298.799,133.59 298.799,149.061 
	304.333,149.061 304.333,133.59 318.445,111.125 311.936,111.125 "/>
<rect x="351.538" y="111.125" style="fill:#14377D;" width="5.429" height="37.936"/>
<polygon style="fill:#14377D;" points="378.132,111.125 371.237,111.125 357.997,128.706 357.997,131.473 372.49,149.061 
	379.651,149.061 363.639,129.956 "/>
<polygon style="fill:#14377D;" points="414.159,132.831 431.358,132.831 431.358,127.3 414.159,127.3 414.159,116.61 
	431.738,116.61 431.738,111.125 408.625,111.125 408.625,149.061 431.791,149.061 431.791,143.576 414.159,143.576 "/>
<polygon style="fill:#14377D;" points="458.015,127.131 441.948,127.131 441.948,111.125 436.463,111.125 436.463,149.061 
	441.948,149.061 441.948,132.558 458.015,132.558 458.015,149.061 463.546,149.061 463.546,111.125 458.015,111.125 "/>
<path style="fill:#14377D;" d="M495.297,134.783c6.515-1.139,9.819-6.236,9.819-11.612c0-6.025-4.127-12.102-12.369-12.102H478.91
	v37.992h5.426V116.61h8.411c4.616,0,6.892,3.302,6.892,6.562c0,3.312-2.276,6.62-6.892,6.62h-6.402v2.612l13.841,16.658h7.108
	L495.297,134.783z"/>
<path style="fill:#14377D;" d="M392.549,127.236c-4.066-0.372-8.354-0.862-8.622-4.775c-0.113-1.298,0.161-2.549,0.916-3.521
	c1.527-1.962,4.346-2.827,6.897-2.876c3.311-0.052,6.994,1.409,7.757,4.827l5.431-0.216c-0.978-6.947-7.057-9.99-12.92-9.99
	c-4.39,0-8.949,1.739-11.498,5.049c-1.622,2.103-2.268,4.634-2.066,7.165c0.598,7.924,7.547,9.227,13.461,9.825
	c3.793,0.38,7.705,0.865,8.361,3.741c0.102,0.489,0.154,0.927,0.154,1.302c0,3.907-4.449,6.191-8.516,6.191
	c-3.529,0-7.815-1.849-8.197-5.371v0.213l-0.055-0.811l-5.533,0.103l0.058,1.036c0.592,5.749,5.795,9.113,10.933,10.004v3.02h5.482
	v-3c5.903-0.961,11.368-4.978,11.368-11.332c0-0.757-0.109-1.678-0.272-2.495C404.223,129.253,397.764,127.887,392.549,127.236"/>
<rect x="468.522" y="111.069" style="fill:#14377D;" width="5.479" height="5.541"/>
<rect x="468.522" y="118.43" style="fill:#14377D;" width="5.479" height="30.63"/>
<path style="fill:#14377D;" d="M341.556,137.654c0,4.187-4.507,6.304-8.467,6.304c-4.018,0-8.525-2.067-8.525-6.242v-26.591h-5.531
	v26.53c0,7.763,7.378,11.785,14.056,11.785c6.507,0,14-4.022,14-11.723v-26.591h-5.533V137.654z"/>
<rect x="326.509" y="111.125" style="fill:#14377D;" width="5.481" height="5.537"/>
<rect x="334.133" y="111.125" style="fill:#14377D;" width="5.475" height="5.537"/>
<path style="fill:#14377D;" d="M278.414,137.654c0,4.187-4.501,6.304-8.463,6.304c-4.016,0-8.519-2.067-8.519-6.242v-26.591h-5.538
	v26.53c0,7.763,7.381,11.785,14.056,11.785c6.511,0,13.998-4.022,13.998-11.723v-26.591h-5.535V137.654z"/>
<rect x="263.374" y="111.125" style="fill:#14377D;" width="5.477" height="5.537"/>
<rect x="270.997" y="111.125" style="fill:#14377D;" width="5.48" height="5.537"/>
<path style="fill:#14377D;" d="M288.899,180.674L288.899,180.674h-8.618v-8.891h8.618c2.708,0,4.067,2.234,4.067,4.431
	C292.966,178.407,291.607,180.674,288.899,180.674 M280.281,160.539L280.281,160.539h7.62c4.385,0,4.307,7.256-0.084,7.256h-7.536
	V160.539z M292.644,169.237c2.792-1.997,3.152-5.188,2.034-7.939c-1.038-2.592-3.272-4.585-6.778-4.585h-11.607v27.875h12.605
	c5.342,0,8.093-4.229,8.093-8.417C296.992,173.541,295.833,170.59,292.644,169.237z"/>
<polygon style="fill:#14377D;" points="302.935,172.665 315.577,172.665 315.577,168.599 302.935,168.599 302.935,160.737 
	315.854,160.737 315.854,156.713 298.868,156.713 298.868,184.588 315.897,184.588 315.897,180.561 302.935,180.561 "/>
<polygon style="fill:#14377D;" points="323.279,156.713 319.25,156.713 319.25,184.588 336.397,184.588 336.397,180.561 
	323.279,180.561 "/>
<polygon style="fill:#14377D;" points="342.023,172.665 354.665,172.665 354.665,168.599 342.023,168.599 342.023,160.737 
	354.942,160.737 354.942,156.713 337.955,156.713 337.955,184.588 354.984,184.588 354.984,180.561 342.023,180.561 "/>
<path style="fill:#14377D;" d="M368.324,180.561L368.324,180.561h-5.985v-19.823h5.985c6.462,0,9.728,4.984,9.728,9.934
	C378.052,175.617,374.786,180.561,368.324,180.561 M368.324,156.713h-10.012v27.875h10.012c9.131,0,13.717-6.941,13.717-13.917
	C382.041,163.689,377.455,156.713,368.324,156.713z"/>
<polygon style="fill:#14377D;" points="399.78,168.956 392.167,156.713 387.423,156.713 397.748,173.221 397.748,184.588 
	401.812,184.588 401.812,173.221 412.185,156.713 407.396,156.713 "/>
<polygon style="fill:#14377D;" points="416.728,172.665 429.372,172.665 429.372,168.599 416.728,168.599 416.728,160.737 
	429.65,160.737 429.65,156.713 412.661,156.713 412.661,184.588 429.687,184.588 429.687,180.561 416.728,180.561 "/>
<path style="fill:#14377D;" d="M430.692,165.409c0-0.018,0.004-0.025,0-0.047V165.409z"/>
<path style="fill:#14377D;" d="M441.061,168.557c-2.988-0.278-6.14-0.64-6.338-3.515c-0.077-0.956,0.12-1.869,0.679-2.588
	c1.117-1.437,3.19-2.072,5.069-2.113c2.429-0.041,5.138,1.033,5.697,3.547l3.992-0.159c-0.719-5.1-5.19-7.339-9.493-7.339
	c-3.233,0-6.58,1.277-8.457,3.711c-1.188,1.541-1.664,3.405-1.516,5.261c0.439,5.826,5.547,6.783,9.892,7.22
	c2.792,0.278,5.662,0.639,6.141,2.755c0.079,0.357,0.12,0.674,0.12,0.954c0,2.875-3.267,4.546-6.261,4.546
	c-2.592,0-5.742-1.35-6.025-3.945v0.156l-0.037-0.592l-4.068,0.075l0.041,0.754c0.519,4.988,5.744,7.54,10.052,7.54
	c5.025,0,10.369-3.112,10.369-8.498c0-0.554-0.082-1.227-0.202-1.833C449.637,170.031,444.895,169.032,441.061,168.557"/>
<rect x="382.969" y="156.688" style="fill:#14377D;" width="4.029" height="4.072"/>
<rect x="382.969" y="162.098" style="fill:#14377D;" width="4.029" height="22.506"/>
<rect x="452.147" y="156.688" style="fill:#14377D;" width="4.03" height="4.072"/>
<rect x="452.147" y="162.098" style="fill:#14377D;" width="4.03" height="22.506"/>
<g>
	<defs>
		<path id="SVGID_00000023279477205545237620000009149082648684890012_" d="M297.17,291.002c-0.879-0.048-1.762-0.068-2.65-0.068
			c-33.087,0-59.91,26.819-59.91,59.907c0,32.196,25.405,58.451,57.258,59.843c-27.196-1.382-48.824-23.855-48.824-51.37
			c0-28.407,23.05-51.435,51.476-51.435v-0.035c23.745,0,42.994,19.248,42.994,42.996c0,22.176-16.793,40.424-38.354,42.738
			c26.252-2.345,46.832-24.372,46.832-51.21C345.993,314.851,324.365,292.381,297.17,291.002"/>
	</defs>
	<clipPath id="SVGID_00000117655081339012712630000011704654637737045664_">
		<use xlink:href="#SVGID_00000023279477205545237620000009149082648684890012_"  style="overflow:visible;"/>
	</clipPath>
	
		<linearGradient id="SVGID_00000141429850622440730370000016673182520666388138_" gradientUnits="userSpaceOnUse" x1="1.520612e-05" y1="841.3898" x2="1" y2="841.3898" gradientTransform="matrix(111.3846 0 0 119.7533 234.6089 -100408.3828)">
		<stop  offset="0" style="stop-color:#00B5EF"/>
		<stop  offset="1" style="stop-color:#14377D"/>
	</linearGradient>
	
		<rect x="234.611" y="290.934" style="clip-path:url(#SVGID_00000117655081339012712630000011704654637737045664_);fill:url(#SVGID_00000141429850622440730370000016673182520666388138_);" width="111.382" height="119.75"/>
</g>
<path style="fill:#FFFFFF;" d="M336.4,319.981c-4.98-13.372-17.374-23.124-32.185-24.273
	C318.348,298.324,330.17,307.506,336.4,319.981"/>
<g>
	<defs>
		<path id="SVGID_00000092424876895042129520000002346568860389691523_" d="M345.072,302.223L345.072,302.223
			c0.388,0.467,0.646,0.83,1.294,1.25c0.843,0.553,2.365,1.051,2.957,1.109c-0.591,0.103-1.708-0.177-2.614-0.475
			c-0.834-0.277-1.638-1.024-2.32-1.77c-0.52,0.088-1.034,0.181-1.549,0.28c-0.855,0.132-1.708,0.282-2.551,0.458
			c0.51,0.825,0.77,1.405,1.632,2.206c1.027,0.959,2.965,2.04,3.741,2.284c-0.803-0.037-2.236-0.715-3.395-1.362
			c-1.062-0.6-1.995-1.793-2.772-2.958c-0.788,0.18-1.572,0.379-2.344,0.611c-0.567,0.17-1.131,0.356-1.685,0.56
			c0.702,1.127,0.752,1.284,1.757,2.187c1.13,1.019,2.989,2.302,3.765,2.653c-0.875-0.108-2.649-1.084-3.484-1.58
			c-0.761-0.45-1.885-1.412-2.799-2.963c-0.435,0.179-0.863,0.375-1.283,0.583c-0.283-0.242-0.574-0.473-0.862-0.71
			c0.223-0.119,0.441-0.249,0.667-0.356c0.461-1.947,0.904-3.062,1.448-3.931c0.591-0.951,1.747-2.608,2.506-3.025
			c-0.612,0.633-1.796,2.055-2.433,3.803c-0.52,1.422-0.696,1.767-0.799,2.824c1.028-0.446,2.088-0.805,3.152-1.116
			c0.199-0.057,0.397-0.112,0.595-0.166c0.421-1.347,0.99-2.741,1.832-3.66c0.967-1.059,2.206-2.251,3.001-2.582
			c-0.706,0.524-2.33,2.295-3.08,3.603c-0.551,0.971-0.681,1.599-0.892,2.417c1.437-0.35,2.887-0.623,4.343-0.84
			c0.473-1.15,1.075-2.352,1.892-3.096c0.906-0.827,2.049-1.741,2.751-1.962c-0.639,0.391-2.158,1.772-2.895,2.827
			c-0.588,0.849-0.728,1.393-1.007,2.163c3.263-0.259,6.527-0.28,9.768-0.083C350.613,301.514,347.824,301.783,345.072,302.223
			 M331.005,301.309L331.005,301.309c-0.045-0.492-0.108-0.982-0.182-1.467c-0.8-0.103-1.644-0.283-2.197-0.701
			c-0.605-0.46-1.282-1.064-1.478-1.496c0.303,0.359,1.307,1.128,2.047,1.428c0.619,0.251,0.986,0.233,1.545,0.282
			c-0.09-0.516-0.197-1.032-0.311-1.541c-0.057-0.313-0.12-0.626-0.185-0.936c-0.551-0.169-1.127-0.402-1.46-0.787
			c-0.36-0.418-0.754-0.956-0.826-1.314c0.159,0.315,0.759,1.016,1.239,1.328c0.368,0.238,0.622,0.281,0.956,0.362
			c-0.363-1.645-0.824-3.265-1.375-4.843c0.811,1.737,1.511,3.551,2.087,5.429c0.353-0.37,0.616-0.602,0.945-1.168
			c0.409-0.703,0.821-1.929,0.889-2.395c0.034,0.449-0.208,1.34-0.459,2.073c-0.22,0.661-0.737,1.331-1.252,1.919
			c0.197,0.867,0.372,1.747,0.496,2.639c0.393-0.345,0.704-0.595,1.108-1.173c0.539-0.781,1.14-2.177,1.268-2.715
			c-0.005,0.528-0.372,1.537-0.729,2.37c-0.16,0.251-0.303,0.507-0.444,0.763c-0.323,0.457-0.721,0.896-1.134,1.297
			c0.012,0.123,0.028,0.248,0.041,0.375c0.037,0.392,0.061,0.787,0.073,1.186c-0.05,0.368-0.073,0.737-0.04,1.095
			c0.017,0.188,0.046,0.376,0.075,0.563c-0.212-0.169-0.428-0.332-0.644-0.496c0.007-0.16,0.016-0.32,0.016-0.479
			c-0.302-0.02-0.574-0.069-0.829-0.131c-0.544-0.404-1.093-0.804-1.653-1.19c0.312,0.172,0.634,0.336,0.915,0.457
			c0.707,0.303,0.802,0.286,1.561,0.356C331.062,302.036,331.036,301.672,331.005,301.309z M360.665,299.868
			c0,0-1.683-0.989-2.753-1.316c-1.067-0.327-2.774-0.456-2.774-0.456s0.216-0.478,0.514-0.829c0.297-0.356,1.142-1.018,1.142-1.018
			s-1.712-0.365-2.533-0.441c-0.819-0.076-2.401,0.277-2.401,0.277s-0.003-0.334,0.311-0.693c0.313-0.361,0.729-0.694,0.729-0.694
			s-2.215-0.424-3.433-0.57c-1.218-0.146-3.207,0.208-3.207,0.208s0.444-0.593,0.742-0.94c0.297-0.354,0.708-0.774,0.708-0.774
			s-1.594,0.067-2.695,0.213c-1.097,0.15-2.766,0.653-2.766,0.653s0.161-0.309,0.339-0.719c0.178-0.413,0.342-0.817,0.342-0.817
			s-2.036,0.76-2.697,1.149c-0.657,0.388-2.097,1.4-2.097,1.4s-0.039-0.541,0.162-1.071c0.195-0.531,0.422-0.934,0.422-0.934
			s-1.833,1.468-3.64,3.527c0.237-0.273,0.396-0.451,0.396-0.451s-0.094-1.067-0.253-1.714c-0.161-0.653-0.471-1.553-0.471-1.553
			s-0.139,0.346-0.266,0.609c-0.122,0.263-0.343,0.677-0.343,0.677s-0.242-1.202-0.588-1.835c-0.342-0.634-1.054-1.741-1.054-1.741
			s-0.09,0.323-0.215,0.599c-0.126,0.275-0.306,0.367-0.306,0.367s-0.155-0.974-0.373-1.407c-0.222-0.433-0.792-1.276-0.792-1.276
			s-0.171,0.653-0.296,0.917c-0.125,0.266-0.339,0.52-0.339,0.52s-0.438-0.91-0.852-1.408c-0.406-0.501-1.308-1.153-1.308-1.153
			s-0.233,0.637-0.372,1.147c-0.137,0.509-0.163,1.342-0.163,1.342s-0.19,0.041-0.438-0.126c-0.253-0.166-0.352-0.396-0.352-0.396
			s-0.109,0.896-0.155,1.433c-0.045,0.541-0.054,1.447-0.054,1.447s-0.127-0.042-0.377-0.248c-0.251-0.205-0.369-0.403-0.369-0.403
			s-0.153,1.311-0.166,1.912c-0.007,0.607,0.089,1.463,0.089,1.463s-0.309-0.107-0.502-0.191c-0.19-0.082-0.613-0.406-0.613-0.406
			s-0.124,1.008-0.051,1.559c0.078,0.553,0.351,1.285,0.351,1.285s-0.067,0.138-0.321,0.091c-0.249-0.045-0.378-0.177-0.378-0.177
			s-0.057,0.8,0.1,1.417c0.061,0.236,0.158,0.462,0.26,0.656c-8.104-4.695-17.41-7.547-27.342-7.978
			c10.202,0.516,19.619,4.002,27.408,9.61c0.819,0.589,1.614,1.208,2.394,1.846c0.108,0.087,0.215,0.178,0.322,0.266
			c0.756,0.629,1.496,1.271,2.218,1.941c1.634,1.514,3.165,3.133,4.589,4.844c0.686,0.823,1.35,1.667,1.985,2.531
			c6.226,8.506,9.906,18.987,9.906,30.331c0,28.403-23.048,51.431-51.472,51.431v0.033c-23.748,0-42.996-19.247-42.996-42.992
			c0-22.179,16.792-40.43,38.358-42.743c-26.254,2.343-46.839,24.373-46.839,51.216c0,27.515,21.628,49.988,48.824,51.37
			c0.879,0.04,1.759,0.065,2.652,0.065c33.084,0,59.906-26.823,59.906-59.908c0-14.316-5.031-27.449-13.409-37.752
			c0-0.003,0-0.005-0.003-0.008c-0.074-0.384,0.037-0.586,0.037-0.586s0.826,0.459,1.655,0.712c0.825,0.248,2.603,0.42,2.603,0.42
			s-0.549-0.51-0.664-0.799c-0.12-0.29,0.008-0.565,0.008-0.565s1.2,0.31,2.25,0.181c1.047-0.131,2.205-0.708,2.205-0.708
			s-0.298-0.119-0.564-0.477c-0.264-0.357-0.118-0.549-0.118-0.549s1.319-0.021,2.206-0.238c0.881-0.222,2.296-1.022,2.296-1.022
			s-0.814-0.459-1.091-0.703c-0.273-0.244-0.674-0.655-0.674-0.655s1.357-0.37,2.255-0.753c0.898-0.382,2.739-1.415,2.739-1.415
			s-0.388-0.061-0.891-0.321c-0.503-0.26-0.666-0.431-0.666-0.431s1.348-0.562,2.123-0.96c0.771-0.396,2.03-1.11,2.03-1.11
			s-0.424-0.013-0.867-0.297c-0.446-0.284-0.534-0.597-0.534-0.597s1.226-0.548,1.884-1.068
			C359.897,300.614,360.665,299.868,360.665,299.868z"/>
	</defs>
	<clipPath id="SVGID_00000174604104424480947490000009159392451206544792_">
		<use xlink:href="#SVGID_00000092424876895042129520000002346568860389691523_"  style="overflow:visible;"/>
	</clipPath>
	
		<linearGradient id="SVGID_00000147930124413142697700000003915595388896529321_" gradientUnits="userSpaceOnUse" x1="1.156256e-05" y1="841.3898" x2="1" y2="841.3898" gradientTransform="matrix(118.7705 0 0 123.5752 243.0431 -103625.9844)">
		<stop  offset="0" style="stop-color:#C4D82E"/>
		<stop  offset="1" style="stop-color:#2E953E"/>
	</linearGradient>
	
		<rect x="243.044" y="287.175" style="clip-path:url(#SVGID_00000174604104424480947490000009159392451206544792_);fill:url(#SVGID_00000147930124413142697700000003915595388896529321_);" width="117.62" height="123.574"/>
</g>
<path style="fill:#14377D;" d="M268.416,451.036L268.416,451.036c-0.321,0.035-0.647,0.054-0.979,0.054
	c-5.012,0-9.075-4.063-9.075-9.073c0-4.681,3.543-8.533,8.097-9.022c0.321-0.035,0.647-0.053,0.979-0.053
	c5.011,0,9.074,4.061,9.074,9.075C276.511,446.696,272.966,450.548,268.416,451.036 M267.437,429.371
	c-6.983,0-12.645,5.662-12.645,12.645c0,6.982,5.661,12.644,12.645,12.644c6.982,0,12.643-5.662,12.643-12.644
	C280.081,435.033,274.419,429.371,267.437,429.371z"/>
<path style="fill:#14377D;" d="M285.903,441.85h4.191c3.019,0,4.511-2.167,4.511-4.334c0-2.131-1.492-4.295-4.511-4.295h-5.505
	v21.238h-3.551V429.6h9.056c5.397,0,8.097,3.975,8.097,7.916c0,3.518-2.168,6.858-6.428,7.602l7.851,9.341h-4.655l-9.055-10.903
	V441.85z"/>
<path style="fill:#14377D;" d="M308.9,450.871L308.9,450.871c5.753,0,8.665-4.404,8.665-8.808c0-4.403-2.911-8.841-8.665-8.841
	h-5.326v17.65H308.9z M308.9,429.633c8.132,0,12.215,6.215,12.215,12.429c0,6.216-4.083,12.396-12.215,12.396h-8.915v-24.825H308.9z
	"/>
<path style="fill:#14377D;" d="M322.151,446.962v-17.329h3.617v17.364c0,2.727,2.943,4.076,5.567,4.076
	c2.589,0,5.532-1.382,5.532-4.112v-17.329h3.615v17.364c0,5.031-4.892,7.655-9.147,7.655
	C326.973,454.652,322.151,452.029,322.151,446.962"/>
<path style="fill:#14377D;" d="M186.245,490.603L186.245,490.603h-10.543v-10.879h10.543c3.316,0,4.979,2.734,4.979,5.41
	C191.223,487.821,189.561,490.603,186.245,490.603 M175.702,465.965L175.702,465.965h9.323c5.367,0,5.269,8.878-0.098,8.878h-9.225
	V465.965z M190.833,476.603c3.412-2.444,3.854-6.341,2.486-9.707c-1.268-3.174-3.998-5.612-8.294-5.612h-14.196v34.104h15.416
	c6.537,0,9.903-5.175,9.903-10.296C196.148,481.87,194.734,478.261,190.833,476.603z"/>
<polygon style="fill:#14377D;" points="239.501,476.261 230.191,461.284 224.379,461.284 237.014,481.48 237.014,495.387 
	241.99,495.387 241.99,481.48 254.676,461.284 248.824,461.284 "/>
<rect x="284.425" y="461.284" style="fill:#14377D;" width="4.881" height="34.104"/>
<polygon style="fill:#14377D;" points="308.332,461.284 302.134,461.284 290.231,477.089 290.231,479.577 303.261,495.387 
	309.698,495.387 295.303,478.213 "/>
<polygon style="fill:#14377D;" points="340.72,480.798 356.181,480.798 356.181,475.825 340.72,475.825 340.72,466.215 
	356.523,466.215 356.523,461.284 335.745,461.284 335.745,495.387 356.57,495.387 356.57,490.457 340.72,490.457 "/>
<polygon style="fill:#14377D;" points="380.145,475.673 365.701,475.673 365.701,461.284 360.77,461.284 360.77,495.387 
	365.701,495.387 365.701,480.551 380.145,480.551 380.145,495.387 385.117,495.387 385.117,461.284 380.145,461.284 "/>
<path style="fill:#14377D;" d="M413.66,482.552c5.857-1.024,8.827-5.606,8.827-10.439c0-5.415-3.71-10.88-11.119-10.88h-12.44
	v34.154h4.878v-29.172h7.561c4.149,0,6.195,2.968,6.195,5.898c0,2.978-2.046,5.951-6.195,5.951h-5.756v2.348l12.443,14.975h6.39
	L413.66,482.552z"/>
<path style="fill:#14377D;" d="M321.292,475.767c-3.655-0.334-7.51-0.775-7.751-4.292c-0.101-1.167,0.145-2.292,0.823-3.165
	c1.373-1.764,3.907-2.541,6.201-2.585c2.976-0.048,6.287,1.265,6.972,4.339l4.882-0.194c-0.879-6.246-6.344-8.981-11.614-8.981
	c-3.947,0-8.046,1.562-10.337,4.538c-1.458,1.89-2.039,4.166-1.858,6.441c0.537,7.124,6.785,8.296,12.101,8.833
	c3.409,0.342,6.927,0.778,7.516,3.363c0.092,0.439,0.139,0.833,0.139,1.171c0,3.513-3.999,5.566-7.655,5.566
	c-3.173,0-7.025-1.663-7.369-4.828v0.191l-0.049-0.729l-4.974,0.093l0.053,0.931c0.531,5.169,5.209,8.193,9.828,8.994v2.714h4.928
	v-2.697c5.308-0.864,10.22-4.475,10.22-10.187c0-0.68-0.098-1.508-0.245-2.243C331.788,477.581,325.981,476.353,321.292,475.767"/>
<rect x="389.591" y="461.233" style="fill:#14377D;" width="4.925" height="4.982"/>
<rect x="389.591" y="467.851" style="fill:#14377D;" width="4.925" height="27.536"/>
<path style="fill:#14377D;" d="M275.452,485.133c0,3.764-4.052,5.668-7.612,5.668c-3.612,0-7.664-1.858-7.664-5.612v-23.906h-4.973
	v23.85c0,6.979,6.633,10.594,12.636,10.594c5.851,0,12.586-3.616,12.586-10.538v-23.906h-4.974V485.133z"/>
<rect x="261.925" y="461.284" style="fill:#14377D;" width="4.927" height="4.978"/>
<rect x="268.779" y="461.284" style="fill:#14377D;" width="4.922" height="4.978"/>
<path style="fill:#14377D;" d="M218.689,485.133c0,3.764-4.046,5.668-7.609,5.668c-3.61,0-7.658-1.858-7.658-5.612v-23.906h-4.978
	v23.85c0,6.979,6.635,10.594,12.636,10.594c5.854,0,12.585-3.616,12.585-10.538v-23.906h-4.976V485.133z"/>
<rect x="205.167" y="461.284" style="fill:#14377D;" width="4.924" height="4.978"/>
<rect x="212.021" y="461.284" style="fill:#14377D;" width="4.927" height="4.978"/>
<path style="fill:#14377D;" d="M228.114,523.807L228.114,523.807h-7.747v-7.993h7.747c2.434,0,3.656,2.008,3.656,3.983
	C231.77,521.768,230.548,523.807,228.114,523.807 M220.367,505.706L220.367,505.706h6.85c3.942,0,3.872,6.524-0.076,6.524h-6.774
	V505.706z M231.481,513.526c2.51-1.796,2.833-4.664,1.829-7.137c-0.933-2.33-2.942-4.121-6.093-4.121h-10.435v25.058h11.332
	c4.802,0,7.275-3.801,7.275-7.567C235.389,517.395,234.348,514.741,231.481,513.526z"/>
<polygon style="fill:#14377D;" points="240.732,516.607 252.098,516.607 252.098,512.951 240.732,512.951 240.732,505.885 
	252.346,505.885 252.346,502.267 237.076,502.267 237.076,527.325 252.384,527.325 252.384,523.705 240.732,523.705 "/>
<polygon style="fill:#14377D;" points="259.021,502.267 255.399,502.267 255.399,527.325 270.814,527.325 270.814,523.705 
	259.021,523.705 "/>
<polygon style="fill:#14377D;" points="275.871,516.607 287.236,516.607 287.236,512.951 275.871,512.951 275.871,505.885 
	287.486,505.885 287.486,502.267 272.214,502.267 272.214,527.325 287.522,527.325 287.522,523.705 275.871,523.705 "/>
<path style="fill:#14377D;" d="M299.515,523.705L299.515,523.705h-5.38v-17.821h5.38c5.809,0,8.745,4.48,8.745,8.93
	C308.261,519.26,305.324,523.705,299.515,523.705 M299.515,502.267h-9.001v25.058h9.001c8.208,0,12.331-6.239,12.331-12.511
	C311.846,508.537,307.724,502.267,299.515,502.267z"/>
<polygon style="fill:#14377D;" points="327.793,513.274 320.949,502.267 316.684,502.267 325.966,517.107 325.966,527.325 
	329.621,527.325 329.621,517.107 338.945,502.267 334.64,502.267 "/>
<polygon style="fill:#14377D;" points="343.029,516.607 354.395,516.607 354.395,512.951 343.029,512.951 343.029,505.885 
	354.645,505.885 354.645,502.267 339.373,502.267 339.373,527.325 354.678,527.325 354.678,523.705 343.029,523.705 "/>
<path style="fill:#14377D;" d="M355.582,510.085c0-0.017,0.005-0.023,0-0.043V510.085z"/>
<path style="fill:#14377D;" d="M364.903,512.914c-2.686-0.25-5.52-0.576-5.697-3.159c-0.069-0.86,0.107-1.68,0.609-2.327
	c1.005-1.292,2.868-1.862,4.558-1.9c2.184-0.037,4.619,0.93,5.121,3.189l3.589-0.143c-0.646-4.585-4.665-6.597-8.535-6.597
	c-2.907,0-5.916,1.148-7.602,3.336c-1.069,1.385-1.496,3.06-1.364,4.729c0.395,5.238,4.986,6.098,8.893,6.491
	c2.51,0.25,5.09,0.575,5.521,2.476c0.071,0.321,0.107,0.607,0.107,0.858c0,2.584-2.937,4.086-5.628,4.086
	c-2.33,0-5.163-1.214-5.416-3.546v0.14l-0.034-0.532l-3.658,0.068l0.037,0.678c0.467,4.484,5.163,6.778,9.037,6.778
	c4.517,0,9.321-2.797,9.321-7.639c0-0.499-0.073-1.104-0.181-1.648C372.614,514.239,368.351,513.34,364.903,512.914"/>
<rect x="312.681" y="502.244" style="fill:#14377D;" width="3.622" height="3.66"/>
<rect x="312.681" y="507.107" style="fill:#14377D;" width="3.622" height="20.232"/>
<rect x="374.869" y="502.244" style="fill:#14377D;" width="3.624" height="3.66"/>
<rect x="374.869" y="507.107" style="fill:#14377D;" width="3.624" height="20.232"/>
<line style="fill:none;stroke:#BCBEC0;stroke-width:0.5669;stroke-miterlimit:22.9256;" x1="17.985" y1="245.378" x2="571.02" y2="245.378"/>
<line style="fill:none;stroke:#BCBEC0;stroke-width:0.5669;stroke-miterlimit:22.9256;" x1="17.985" y1="570.176" x2="571.02" y2="570.176"/>
</svg>
