<?xml version="1.0" encoding="UTF-8"?>
<svg id="Layer_2" data-name="Layer 2" xmlns="http://www.w3.org/2000/svg" viewBox="0 0 192.76 192.76">
  <defs>
    <style>
      .cls-1 {
        fill: #00a651;
      }

      .cls-1, .cls-2, .cls-3, .cls-4 {
        fill-rule: evenodd;
      }

      .cls-5, .cls-4 {
        fill: #2a3795;
      }

      .cls-2 {
        fill: #fff;
      }

      .cls-6, .cls-7, .cls-8 {
        stroke: #000;
      }

      .cls-6, .cls-7, .cls-8, .cls-9, .cls-10, .cls-11, .cls-12, .cls-13, .cls-14, .cls-15 {
        fill: none;
        stroke-miterlimit: 2.61;
      }

      .cls-6, .cls-9, .cls-11 {
        stroke-width: .15px;
      }

      .cls-7, .cls-12 {
        stroke-width: .15px;
      }

      .cls-8, .cls-13 {
        stroke-width: .15px;
      }

      .cls-9, .cls-10 {
        stroke: #00a651;
      }

      .cls-10, .cls-14, .cls-15 {
        stroke-width: .38px;
      }

      .cls-11, .cls-12, .cls-13 {
        stroke: #fff;
      }

      .cls-3 {
        fill: #0087cd;
      }

      .cls-14 {
        stroke: #0087cd;
      }

      .cls-15 {
        stroke: #2a3795;
      }
    </style>
  </defs>
  <g id="Layer_1-2" data-name="Layer 1">
    <g>
      <polygon class="cls-2" points="0 0 192.76 0 192.76 192.76 0 192.76 0 0"/>
      <path class="cls-5" d="M27.74,96.38h0s0,0,0,0c0-24.2,7.63-46.12,19.97-61.99,12.42-15.98,29.62-25.87,48.66-25.87h0s0,0,0,0h0c19.03,0,36.23,9.89,48.66,25.88,12.34,15.88,19.97,37.8,19.97,61.99h0s0,0,0,0c0,24.2-7.63,46.12-19.97,61.99-12.42,15.98-29.62,25.87-48.66,25.87h0s0,0,0,0h0c-19.03,0-36.23-9.89-48.66-25.88-12.34-15.88-19.97-37.79-19.97-61.99h0s0,0,0,0ZM30.75,96.38h0s0,0,0,0c0,23.5,7.4,44.76,19.35,60.14,11.87,15.27,28.23,24.72,46.28,24.72h0s0,0,0,0h0c18.04,0,34.41-9.44,46.28-24.71,11.96-15.38,19.35-36.64,19.35-60.14h0s0,0,0,0c0-23.5-7.4-44.76-19.35-60.14-11.87-15.27-28.23-24.72-46.28-24.72h0s0,0,0,0h0c-18.04,0-34.41,9.44-46.28,24.71-11.96,15.38-19.35,36.64-19.35,60.14h0Z"/>
      <path class="cls-4" d="M44.72,56.76l2.66,1.19,1.05-2.35c.21-.47.31-.84.31-1.12,0-.5-.28-.87-.84-1.12-.6-.27-1.09-.25-1.48.06-.22.17-.42.48-.62.93l-1.07,2.41h0ZM45.23,51.67c.33-.31.7-.52,1.12-.65.35-.1.7-.15,1.06-.14.36.01.74.1,1.13.28.47.21.88.54,1.23.98.35.44.49.98.44,1.61.39-.38.79-.58,1.22-.62.42-.04.98.09,1.68.4l.67.3c.45.2.77.32.95.36.28.06.52.02.73-.12l.25.11-1.02,2.28c-.25-.04-.45-.07-.59-.1-.3-.07-.6-.17-.89-.29l-.93-.4c-.64-.27-1.11-.34-1.42-.21-.31.13-.6.49-.87,1.1l-.95,2.14,3.89,1.73-.9,2.02-9.92-4.42,2.17-4.86c.32-.69.65-1.19.97-1.49h0Z"/>
      <polygon class="cls-4" points="57.88 51.27 56.62 53.14 47.62 47.07 48.88 45.2 57.88 51.27"/>
      <polygon class="cls-4" points="45.25 45.27 46.32 43.68 47.77 44.66 46.7 46.24 45.25 45.27"/>
      <polygon class="cls-4" points="57.38 48.17 55.45 39.4 52.01 43.64 50.52 42.43 55.74 35.99 57.15 37.13 59.11 46.03 62.7 41.61 64.19 42.81 58.87 49.38 57.38 48.17"/>
      <polygon class="cls-4" points="64.98 29.34 60.92 33.4 62.55 35.04 66.28 31.31 67.61 32.64 63.88 36.37 65.86 38.34 70.11 34.09 71.49 35.47 65.67 41.29 57.99 33.61 63.62 27.98 64.98 29.34"/>
      <path class="cls-4" d="M74.29,23.43l1.05,2.15,2.4-1.17c.43-.21.74-.46.92-.74.19-.3.18-.65-.02-1.06-.22-.45-.54-.67-.97-.64-.35.05-.77.19-1.24.42l-2.14,1.05h0ZM76.12,27.2l1.27,2.6,2.4-1.17c.43-.21.73-.43.92-.66.33-.42.35-.93.05-1.53-.25-.51-.63-.75-1.14-.74-.29,0-.64.11-1.07.32l-2.43,1.18h0ZM79.3,20.18c.5.27.9.69,1.18,1.27.29.6.37,1.15.25,1.66-.07.29-.23.59-.47.92.59-.06,1.1.04,1.54.31.45.27.81.68,1.08,1.24.28.58.39,1.17.32,1.77-.04.39-.14.76-.32,1.11-.2.39-.49.73-.87,1.03-.38.3-.82.56-1.32.81l-4.42,2.16-4.76-9.76,4.74-2.31c1.2-.57,2.22-.63,3.05-.2h0Z"/>
      <polygon class="cls-4" points="91.1 17.9 85.48 19.1 85.96 21.35 91.12 20.25 91.51 22.1 86.35 23.2 86.93 25.92 92.81 24.68 93.21 26.58 85.17 28.3 82.91 17.68 90.7 16.02 91.1 17.9"/>
      <polygon class="cls-4" points="94.2 15.63 96.47 15.79 95.84 24.67 101.21 25.05 101.07 27 93.45 26.46 94.2 15.63"/>
      <polygon class="cls-4" points="112.44 20.22 106.82 19.03 106.34 21.28 111.5 22.38 111.11 24.22 105.95 23.13 105.37 25.86 111.25 27.11 110.84 29.02 102.79 27.31 105.05 16.69 112.84 18.34 112.44 20.22"/>
      <path class="cls-4" d="M117.15,22.74l-3.11,6.37,1.88.92c.96.47,1.86.32,2.71-.44.46-.42.87-.99,1.22-1.71.48-.99.7-1.83.64-2.51-.05-.68-.54-1.25-1.46-1.7l-1.88-.92h0ZM121.61,23.08c.57.56.93,1.24,1.06,2.05.1.65.08,1.29-.07,1.92-.15.62-.35,1.19-.6,1.71-.63,1.3-1.43,2.27-2.39,2.92-1.3.87-2.68.95-4.16.23l-4.2-2.05,4.76-9.76,4.2,2.05c.6.3,1.07.62,1.41.95h0Z"/>
      <polygon class="cls-4" points="121.49 36.13 119.74 34.71 126.58 26.27 128.33 27.69 121.49 36.13"/>
      <polygon class="cls-4" points="128.58 24.07 130.06 25.28 128.96 26.63 127.48 25.43 128.58 24.07"/>
      <polygon class="cls-4" points="135.64 34.45 137.46 36.27 130.1 38.49 127.21 41.38 125.61 39.77 128.49 36.89 130.63 29.44 132.52 31.33 130.77 36.27 135.64 34.45"/>
      <polygon class="cls-4" points="142.24 46.23 139.02 41.47 137.11 42.76 140.06 47.13 138.5 48.19 135.55 43.82 133.23 45.38 136.6 50.36 134.98 51.45 130.38 44.63 139.38 38.56 143.83 45.16 142.24 46.23"/>
      <path class="cls-4" d="M139.98,53.4c-.4.3-.66.6-.78.89-.21.54-.1,1.2.33,1.98.26.47.52.82.79,1.05.51.44,1.03.52,1.56.22.31-.17.48-.45.5-.82.02-.37-.08-.88-.27-1.54l-.33-1.13c-.32-1.11-.46-1.93-.41-2.45.08-.88.59-1.58,1.52-2.1.85-.47,1.73-.55,2.63-.25.91.31,1.69,1.06,2.35,2.26.55,1,.76,2,.62,3-.14,1-.7,1.8-1.69,2.39l-1.06-1.91c.55-.35.82-.83.8-1.42-.01-.4-.15-.83-.4-1.29-.28-.51-.61-.86-.99-1.05s-.75-.18-1.12.02c-.34.19-.51.48-.51.87,0,.26.09.74.29,1.45l.51,1.85c.22.81.3,1.48.21,2.01-.13.81-.62,1.46-1.47,1.92-.87.48-1.77.55-2.72.2-.94-.35-1.74-1.12-2.41-2.33-.68-1.24-.94-2.37-.77-3.39.17-1.02.76-1.81,1.74-2.36l1.05,1.9h0Z"/>
      <polygon class="cls-4" points="141.46 64.9 140.62 62.81 150.68 58.74 151.53 60.83 141.46 64.9"/>
      <polygon class="cls-4" points="153.5 57.79 154.22 59.56 152.6 60.22 151.88 58.44 153.5 57.79"/>
      <path class="cls-4" d="M91.2,144.83v5.6h-1.22v-3.67c-.2.19-.39.34-.57.46-.18.12-.41.23-.69.34v-1.25c.41-.17.73-.37.96-.6.23-.23.4-.53.53-.87h.99ZM93.96,147.47c-.19-.13-.33-.27-.41-.43-.12-.22-.18-.46-.18-.74,0-.46.17-.84.51-1.13.27-.22.62-.34,1.05-.34.58,0,1.01.14,1.28.42.28.28.42.63.42,1.06,0,.25-.05.48-.17.7-.08.16-.21.32-.39.47.23.14.41.33.52.57.12.24.17.5.17.78s-.05.53-.15.77c-.1.24-.22.42-.37.55-.14.13-.32.22-.54.28-.22.06-.44.09-.69.09-.46,0-.81-.07-1.05-.21-.24-.14-.43-.34-.55-.61-.13-.27-.19-.57-.19-.9s.06-.6.18-.82c.12-.23.3-.4.55-.52h0ZM94.5,146.39c0,.19.05.34.14.46.09.11.22.17.38.17.14,0,.25-.06.34-.17.09-.11.13-.26.13-.45s-.05-.34-.14-.46c-.09-.12-.21-.18-.35-.18s-.27.06-.36.18c-.09.12-.14.27-.14.45h0ZM94.44,148.76c0,.24.06.44.17.6.12.15.25.23.4.23s.27-.08.39-.23c.11-.16.17-.36.17-.6s-.06-.44-.17-.6c-.11-.16-.25-.23-.4-.23s-.28.08-.39.22c-.11.15-.17.35-.17.61h0ZM101.48,146.17l-1.2.19c-.03-.21-.09-.36-.16-.45-.07-.09-.16-.13-.27-.13-.2,0-.35.12-.46.38-.08.18-.14.57-.17,1.16.14-.18.29-.32.44-.41.15-.09.33-.14.53-.14.39,0,.71.17.98.53.27.35.4.79.4,1.33,0,.36-.07.7-.2.99-.13.3-.32.53-.56.68-.24.15-.54.23-.9.23-.43,0-.78-.09-1.04-.28s-.47-.49-.63-.9c-.16-.41-.23-.96-.23-1.64,0-.99.16-1.72.49-2.18.33-.46.78-.7,1.37-.7.34,0,.62.05.82.15.2.1.37.25.5.44.13.2.23.44.3.74h0ZM99.27,148.62c0,.3.06.53.18.7.12.17.26.25.43.25.16,0,.29-.08.4-.23.11-.15.16-.38.16-.68s-.05-.55-.17-.71c-.11-.16-.25-.24-.41-.24s-.31.08-.42.24c-.11.16-.17.38-.17.67h0ZM102.78,144.93h3.51v1.03c-.3.35-.56.73-.77,1.14-.25.5-.45,1.05-.59,1.66-.11.47-.19,1.03-.23,1.68h-1.2c.09-.9.24-1.65.45-2.26.2-.61.52-1.26.96-1.95h-2.14v-1.29h0Z"/>
      <polygon class="cls-1" points="96.38 36.79 69.96 82.65 122.94 82.65 96.38 36.79"/>
      <polygon class="cls-10" points="96.38 36.79 69.96 82.65 122.94 82.65 96.38 36.79"/>
      <polygon class="cls-3" points="96.48 115.68 122.94 82.65 69.96 82.65 96.48 115.68"/>
      <polygon class="cls-14" points="96.48 115.68 122.94 82.65 69.96 82.65 96.48 115.68"/>
      <polygon class="cls-4" points="81.47 138.37 92.07 138.37 92.07 110.3 69.96 82.65 92.34 43.8 92.34 34.37 57.02 85.73 81.47 114.26 81.47 138.37"/>
      <polygon class="cls-15" points="81.47 138.37 92.07 138.37 92.07 110.3 69.96 82.65 92.34 43.8 92.34 34.37 57.02 85.73 81.47 114.26 81.47 138.37"/>
      <polygon class="cls-4" points="111.44 138.37 100.84 138.37 100.84 110.3 122.94 82.65 100.57 43.8 100.57 34.37 135.89 85.73 111.44 114.26 111.44 138.37"/>
      <polygon class="cls-15" points="111.44 138.37 100.84 138.37 100.84 110.3 122.94 82.65 100.57 43.8 100.57 34.37 135.89 85.73 111.44 114.26 111.44 138.37"/>
      <path class="cls-2" d="M93.78,69.73l-.97-.46s-.26-.97-.45-1.16c-.19-.19-.58-1.1-.58-1.1l-.58-.77-.91-.72-1.1-.77,2.91.32-1.62-.9-.39-.97-.19-1.36-.58-1.17-.65-.97-.52-.71-.84-.19-.98-.19,1.56-.19-1.03-1.17,1.48.46,1.03.71.97,1.1.59-.97.65-.98.84-.58.84-.26.85-.27s.34-.16.52-.31c.14-.11.25-.17.32-.33.08-.18,0-.51,0-.51,0,0-.49-.3-.53-.62-.04-.32.11-.55.37-.74.32-.24.56-.29.95-.4.46-.14,1.22-.2,1.22-.2,0,0-.38-.17-.42-.39-.04-.2.02-.36.18-.49.25-.2.54-.25.88-.16.2.06.35.14.46.27.22.25-.02.7-.34.77.55-.03,1.12.16,1.77.4.28.1.57.31.7.58.09.18.02.33-.06.52-.09.18-.21.27-.35.38-.17.13-.08.35,0,.55.17.43.66.33,1.12.36.3.02.77-.08.77-.08,0,0,.35-.15.58-.24.38-.14.58-.28.98-.32.48-.05,1.23.19,1.23.19l1.35.13.26,1.03.27.92.71,1.29-.52.97-.33,1.16v1.62l-.84.32-.9.58-2.08,1.68,2.79-.9-.45.84-1.16,1.69-.45.9-.58.97-.4.72.4.77.32.58h.77l.03,1.01,1.99.03.08,1.03h1.47s.1.9.1.9l1.63.02v1.42s-2.54-.01-2.54-.01l.04.72,1.03.45.97.26.71.52.71.53.59.84.52,1.03.19.97.19.85.39.65.26-.77.26-.85s.14-.55.13-.9c0-.31-.1-.47-.13-.77-.05-.5-.04-.79,0-1.29.03-.38-.08-.65.13-.98.14-.23.29-.3.52-.45.32-.21.52-.35.9-.39.33-.04.53.03.85.13.32.1.54.15.77.39.25.26.35.48.39.84.04.36-.05.58-.19.91-.15.37-.27.59-.58.84-.16.13-.34.09-.45.26-.13.19-.01.36-.06.58-.09.38-.4.9-.4.9l-.19.58.26.91.06.84v.84l-.32.52-.58.45-.52.52-.19.79-.19.58-.52.65-.58.52-.9.45-.53.84-.52.91-.77,1.03-.71.71-.84.71-1.04.65-1.03.46-.9.26-.79.33-.49.67-.39.67-.86.78.26.71.32.53.4.39.39.39.13.65h1.48v2.46h-2.79v-.98h-7.17v.98h-3.11v-2.59h1.29l.26-.71.58-.32.39-.45.45-.66-.26-.77-.52-.39-.39-.52-.39-.58-.77-.07-.84-.32-1.11-.52-1.42-.66-.97-.84-.9-.9-.98-1.23-.71-1.04-.58-.71-.45-.32-.65-.19-.39-.52-.19-.77-.46-.58-.32-.4-.52-.19-.45-.65-.07-.71.19-.32-.06-.65-.32-.71-.19-.79s.08-.55.07-.9c-.02-.31,0-.5-.13-.77-.13-.27-.3-.37-.52-.58-.19-.19-.32-.27-.52-.45-.24-.24-.39-.37-.58-.65-.19-.26-.32-.41-.4-.72-.08-.32-.09-.53,0-.84.09-.28.18-.44.4-.65.26-.25.49-.31.84-.39.32-.07.51-.04.84,0,.33.04.54.04.84.19.27.14.37.3.58.52.21.22.36.33.5.6.19.38.1.66.16,1.09.05.4.1.63.13,1.03.03.4-.05.63,0,1.03.03.26.04.41.13.65.13.34.52.77.52.77l.65.72.19-.91.26-1.1.39-.9.45-.84.71-.71.79-.59.84-.65.52-.13-.19-.58h-1.75v-1.29h1.11v-.98h.97v-.65h2.33v-1.23h1.35l.39-1.16.58-.39.65-.13h0Z"/>
      <path class="cls-6" d="M93.78,69.73l-.97-.46M92.82,69.27s-.26-.97-.45-1.16c-.19-.19-.58-1.1-.58-1.1M91.78,67.01l-.58-.77-.91-.72-1.1-.77,2.91.32-1.62-.9-.39-.97-.19-1.36-.58-1.17-.65-.97-.52-.71-.84-.19-.98-.19,1.56-.19-1.03-1.17,1.48.46,1.03.71.97,1.1.59-.97.65-.98.84-.58.84-.26.85-.27M94.12,56.45s.34-.16.52-.31c.14-.11.25-.17.32-.33.08-.18,0-.51,0-.51,0,0-.49-.3-.53-.62-.04-.32.11-.55.37-.74.32-.24.56-.29.95-.4.46-.14,1.22-.2,1.22-.2,0,0-.38-.17-.42-.39-.04-.2.02-.36.18-.49.25-.2.54-.25.88-.16.2.06.35.14.46.27.22.25-.02.7-.34.77.55-.03,1.12.16,1.77.4.28.1.57.31.7.58.09.18.02.33-.06.52-.09.18-.21.27-.35.38-.17.13-.08.35,0,.55.17.43.66.33,1.12.36.3.02.77-.08.77-.08,0,0,.35-.15.58-.24.38-.14.58-.28.98-.32.48-.05,1.23.19,1.23.19M104.46,55.68l1.35.13.26,1.03.27.92.71,1.29-.52.97-.33,1.16v1.62l-.84.32-.9.58-2.08,1.68,2.79-.9-.45.84-1.16,1.69-.45.9-.58.97-.4.72.4.77.32.58h.77l.03,1.01,1.99.03.08,1.03h1.47s.1.9.1.9l1.63.02v1.42s-2.54-.01-2.54-.01l.04.72,1.03.45.97.26.71.52.71.53.59.84.52,1.03.19.97.19.85.39.65.26-.77.26-.85M112.23,80.53s.14-.55.13-.9c0-.31-.1-.47-.13-.77-.05-.5-.04-.79,0-1.29.03-.38-.08-.65.13-.98.14-.23.29-.3.52-.45.32-.21.52-.35.9-.39.33-.04.53.03.85.13.32.1.54.15.77.39.25.26.35.48.39.84.04.36-.05.58-.19.91-.15.37-.27.59-.58.84-.16.13-.34.09-.45.26-.13.19-.01.36-.06.58-.09.38-.4.9-.4.9M114.1,80.59l-.19.58.26.91.06.84v.84l-.32.52-.58.45-.52.52-.19.79-.19.58-.52.65-.58.52-.9.45-.53.84-.52.91-.77,1.03-.71.71-.84.71-1.04.65-1.03.46-.9.26-.79.33-.49.67-.39.67-.86.78.26.71.32.53.4.39.39.39.13.65h1.48v2.46h-2.79v-.98h-7.17v.98h-3.11v-2.59h1.29l.26-.71.58-.32.39-.45.45-.66-.26-.77-.52-.39-.39-.52-.39-.58-.77-.07-.84-.32-1.11-.52-1.42-.66-.97-.84-.9-.9-.98-1.23-.71-1.04-.58-.71-.45-.32-.65-.19-.39-.52-.19-.77-.46-.58-.32-.4-.52-.19-.45-.65-.07-.71.19-.32-.06-.65-.32-.71-.19-.79M80.72,81.3s.08-.55.07-.9c-.02-.31,0-.5-.13-.77-.13-.27-.3-.37-.52-.58-.19-.19-.32-.27-.52-.45-.24-.24-.39-.37-.58-.65-.19-.26-.32-.41-.4-.72-.08-.32-.09-.53,0-.84.09-.28.18-.44.4-.65.26-.25.49-.31.84-.39.32-.07.51-.04.84,0,.33.04.54.04.84.19.27.14.37.3.58.52.21.22.36.33.5.6.19.38.1.66.16,1.09.05.4.1.63.13,1.03.03.4-.05.63,0,1.03.03.26.04.41.13.65.13.34.52.77.52.77M83.57,81.24l.65.72.19-.91.26-1.1.39-.9.45-.84.71-.71.79-.59.84-.65.52-.13-.19-.58h-1.75v-1.29h1.11v-.98h.97v-.65h2.33v-1.23h1.35l.39-1.16.58-.39.65-.13"/>
      <path class="cls-1" d="M103.29,56.44s.46.15.73.28c.41.2.62.35.97.64.28.23.47.35.66.65.29.46.29.82.28,1.36,0,.5-.03.82-.28,1.25-.16.27-.54.61-.54.61h-.61l-.05-.75-.16-.82-.28-.59-.4-.64-.45-.64-.28-.42-.02-.75.14-.26.31.07h0Z"/>
      <path class="cls-6" d="M103.29,56.44s.46.15.73.28c.41.2.62.35.97.64.28.23.47.35.66.65.29.46.29.82.28,1.36,0,.5-.03.82-.28,1.25-.16.27-.54.61-.54.61M105.1,61.23h-.61l-.05-.75-.16-.82-.28-.59-.4-.64-.45-.64-.28-.42-.02-.75.14-.26.31.07"/>
      <polygon class="cls-1" points="93.59 57.45 93.84 58.07 94.09 58.69 94.34 59.51 94.53 60.7 94.78 61.58 95.15 62.45 95.59 63.02 96.03 63.58 96.41 64.02 96.6 64.33 96.6 68.78 97.59 68.16 97.84 65.53 98.1 64.96 98.47 64.46 98.97 64.08 99.48 63.52 99.85 63.02 100.17 62.14 100.29 61.27 100.48 60.33 100.67 59.38 100.67 58.63 100.73 57.88 100.98 57.19 100.42 57.7 99.73 58.13 99.35 58.51 98.97 59.07 98.72 59.7 98.6 60.39 98.47 61.2 98.41 61.95 98.35 62.45 97.91 63.27 97.72 62.45 97.97 61.71 98.1 60.89 98.03 59.95 97.84 59.13 97.66 58.38 97.53 57.76 97.47 56.75 97.41 55.56 97.04 56.13 96.72 56.88 96.47 57.51 96.41 58.32 96.47 59.07 96.6 59.7 96.72 60.76 96.28 60.2 95.91 59.38 95.47 58.82 94.97 58.13 94.46 57.76 93.59 57.45"/>
      <polygon class="cls-9" points="93.59 57.45 93.84 58.07 94.09 58.69 94.34 59.51 94.53 60.7 94.78 61.58 95.15 62.45 95.59 63.02 96.03 63.58 96.41 64.02 96.6 64.33 96.6 68.78 97.59 68.16 97.84 65.53 98.1 64.96 98.47 64.46 98.97 64.08 99.48 63.52 99.85 63.02 100.17 62.14 100.29 61.27 100.48 60.33 100.67 59.38 100.67 58.63 100.73 57.88 100.98 57.19 100.42 57.7 99.73 58.13 99.35 58.51 98.97 59.07 98.72 59.7 98.6 60.39 98.47 61.2 98.41 61.95 98.35 62.45 97.91 63.27 97.72 62.45 97.97 61.71 98.1 60.89 98.03 59.95 97.84 59.13 97.66 58.38 97.53 57.76 97.47 56.75 97.41 55.56 97.04 56.13 96.72 56.88 96.47 57.51 96.41 58.32 96.47 59.07 96.6 59.7 96.72 60.76 96.28 60.2 95.91 59.38 95.47 58.82 94.97 58.13 94.46 57.76 93.59 57.45"/>
      <path class="cls-6" d="M95.68,90.96l-1.14-.42-.75-.45-.71-.63.33-12.82.08-.83.45-.9.6-.71.68-.6-.08-2.18M95.15,71.41s-.38-.28-.53-.53c-.21-.34-.2-.61-.23-1.01-.02-.35.01-.56.08-.9.06-.33.09-.52.23-.83.13-.29.33-.39.45-.68.08-.2.11-.32.15-.53.09-.44.08-1.16.08-1.16,0,0,.15-.48.38-.45.19.02.3.38.3.38M96.05,65.7l.23,5.48h.45l.3-.3-.3.6v13.65h-1.05M95.67,85.13s-.37.02-.58.13c-.19.11-.39.18-.4.4-.02.23.17.35.38.45.17.09.49.08.49.08M95.56,86.18l.12,4.77M95.99,71.83l.38,19.16-.69-.04M95.22,73.59l.1,2.09-1.9.95M95.17,69.45c0-.33.09-.6.21-.6s.21.27.21.6-.09.6-.21.6-.21-.27-.21-.6M88.57,91.92l11.78-20.79-11.84,16.41-.25.81.19,1.12.19.84-.06,1.62h0ZM97.53,85.49s.08,1.18.2,1.92c.22,1.38.93,3.47.93,3.47M98.66,90.88h.34l.29-.54h1.75l.24.54h.41M101.7,90.88s.52-1.91.67-3.15c.11-.89.13-2.29.13-2.29,0,0-1.42.53-2.36.56-1.03.03-2.6-.5-2.6-.5M97.53,84.77c0-.5,1.12-.9,2.51-.9s2.51.41,2.51.9-1.12.9-2.51.9-2.51-.4-2.51-.9M100.04,83.87s.14-.77.48-1.07c.23-.21.73-.34.73-.34M101.25,82.46l.34-.23.45-.56.28-.51-.17-.51-.28-.51-.34-.28-.06-.96-.06-.9-.06-.4-.56-.68M100.81,76.93s-.29-.46-.4-.79c-.07-.23-.14-.38-.11-.62.03-.31.15-.48.34-.73.15-.21.24-.35.48-.48.21-.11.35-.14.59-.14.33,0,.51.11.79.28.27.15.62.51.62.51M103.12,74.96l.57.73.4.68.28.68,1.01.79M105.37,77.84s.23.16.45.56c.23.4.17.62.17.62M105.99,79.02l.45.79.4.68.17,1.02.06,1.07-.23.51,1.02,3.61-.62.4-.34-.23-.11.45-.45-.11-.17.51-.06,2.82-.9.23.28-.57.06-2.42-.73.17-.11,2.42-1.02.45.57-.78-.06-1.81h-.73v-4.06l-.11-.62-.19-.7-1.28.59-.45-.17-1.38.62M101.94,83.05c-.19-.13-.18-.55-.18-.55M101.76,82.5l.79-1.11.06-.73M102.61,80.65s-.19-.42-.11-.68c.06-.18.11-.31.28-.4.2-.1.4-.09.57.06.14.12.13.27.17.45.1.41-.06,1.07-.06,1.07M103.46,81.16l-.28.96-.51.67M102.66,82.79s-.48.42-.72.25M106.82,84l-.24.09.72,2.41.22-.13-.7-2.38h0ZM106.03,84.49l.52,1.67.28.09-.57-1.93-.23.17h0ZM102.04,77.1l-.57-.23-.17-.51M101.31,76.37s-.09-.27,0-.4c.15-.22.51.45.51.45M101.82,76.42l.23.68M103.57,76.82l-.4-.57-.28-.85.45.34.4.68-.17.4h0ZM102.44,78.34l-.4-.22v-.4l.28-.28.73-.06.62.06.73.45.28.23h.4l.22.67.4.62.34.51.4.79M106.44,80.71s.11.73.23,1.02c.11.28.06.84.06.84M106.72,82.57l-.51-.95-.34-.85-.28-.4-.28.06-.73-.51-.17-.4-.45-.23-.11-.28-.51-.4-.45-.11-.45-.17M103.17,78.01l.68.06.28.5M104.13,78.56s0,.28-.17.23c-.17-.06-.73-.45-.73-.45M103.23,78.34l-.06-.33M104,83.3l.78-.33.76-.34.06.34-1.52.68-.07-.34h0ZM105.99,81.95l-.06.5.17.45.28.17-.08-.57-.32-.55h0ZM97.92,86.05s1.27.4,2.11.4c.84,0,2.12-.4,2.12-.4"/>
      <path class="cls-11" d="M98.33,86.15l.69.18M100.19,86.44l.4-.03.3-.04M101.31,86.28c.17-.04.35-.1.53-.13"/>
      <path class="cls-6" d="M97.92,86.46s1.27.4,2.11.4c.84,0,2.12-.4,2.12-.4"/>
      <path class="cls-11" d="M98.33,86.57l.69.18M100.19,86.86l.4-.03.3-.04M101.31,86.7c.17-.04.35-.1.53-.13"/>
      <path class="cls-6" d="M97.92,86.88s1.27.4,2.11.4c.84,0,2.12-.4,2.12-.4"/>
      <path class="cls-11" d="M98.33,86.99l.69.18M100.19,87.28l.4-.03.3-.04M101.31,87.11c.17-.04.35-.1.53-.13"/>
      <path class="cls-7" d="M98.02,87.31s1.21.38,2,.38c.8,0,2.02-.38,2.02-.38"/>
      <path class="cls-12" d="M98.42,87.41l.66.17M100.18,87.68l.38-.03.29-.04M101.25,87.53c.16-.04.33-.1.5-.12"/>
      <path class="cls-7" d="M98.12,87.74s1.15.36,1.9.36c.76,0,1.92-.36,1.92-.36"/>
      <path class="cls-12" d="M98.5,87.83l.63.17M100.18,88.09l.36-.03.27-.04M101.19,87.95c.15-.04.32-.09.48-.12"/>
      <path class="cls-8" d="M98.22,88.14s1.09.34,1.81.34c.72,0,1.82-.34,1.82-.34"/>
      <path class="cls-13" d="M98.57,88.23l.59.16M100.17,88.48l.34-.03.26-.04M101.13,88.34c.15-.04.3-.09.45-.11"/>
      <path class="cls-7" d="M98.31,88.53s1.03.32,1.72.33c.69,0,1.73-.33,1.73-.33"/>
      <path class="cls-12" d="M98.65,88.61l.57.15M100.16,88.85l.32-.03.24-.03M101.07,88.72c.14-.03.29-.09.43-.1"/>
      <path class="cls-7" d="M98.4,88.9s.98.31,1.63.31c.65,0,1.64-.31,1.64-.31"/>
      <path class="cls-12" d="M98.72,88.98l.54.14M100.16,89.2l.31-.03.23-.03M101.02,89.08c.13-.03.27-.08.41-.1"/>
      <path class="cls-7" d="M98.48,89.24s.93.29,1.55.29c.62,0,1.56-.29,1.56-.29"/>
      <path class="cls-12" d="M98.78,89.32l.51.14M100.15,89.53l.29-.02.22-.03M100.97,89.42c.12-.03.26-.08.39-.09"/>
      <path class="cls-7" d="M98.55,89.58s.89.28,1.47.28c.59,0,1.48-.28,1.48-.28"/>
      <path class="cls-12" d="M98.84,89.65l.48.13M100.14,89.85l.28-.02.21-.03M100.92,89.74c.12-.03.25-.07.37-.09"/>
      <polygon class="cls-1" points="93.36 171.44 107.05 161.52 108.66 153.2 113.48 149.18 112.94 154 111.07 157.22 109.73 160.44 127.16 148.64 123.4 154.27 119.65 154.81 103.02 166.61 112.41 162.05 124.73 162.6 116.16 167.95 99.27 168.75 94.44 172.24 93.36 171.44"/>
      <polygon class="cls-10" points="93.36 171.44 107.05 161.52 108.66 153.2 113.48 149.18 112.94 154 111.07 157.22 109.73 160.44 127.16 148.64 123.4 154.27 119.65 154.81 103.02 166.61 112.41 162.05 124.73 162.6 116.16 167.95 99.27 168.75 94.44 172.24 93.36 171.44"/>
      <polygon class="cls-1" points="123.15 148.74 130.84 139.26 130.41 133.16 133.02 129.46 133.55 132.92 132.84 135.52 132.51 138.02 142.46 126.53 140.89 131.16 138.38 132.23 128.98 143.57 134.68 138.64 143.38 136.72 138.4 142.05 126.77 145.76 124.06 149.1 123.15 148.74"/>
      <polygon class="cls-10" points="123.15 148.74 130.84 139.26 130.41 133.16 133.02 129.46 133.55 132.92 132.84 135.52 132.51 138.02 142.46 126.53 140.89 131.16 138.38 132.23 128.98 143.57 134.68 138.64 143.38 136.72 138.4 142.05 126.77 145.76 124.06 149.1 123.15 148.74"/>
      <polygon class="cls-1" points="136.48 128.37 140.64 120.22 139.37 115.81 140.71 112.68 141.64 115.14 141.53 117.16 141.67 119.04 147.18 109.06 146.75 112.7 145.08 113.88 139.95 123.66 143.36 119.16 149.44 116.4 146.62 121.08 138.67 125.62 137.2 128.49 136.48 128.37"/>
      <polygon class="cls-10" points="136.48 128.37 140.64 120.22 139.37 115.81 140.71 112.68 141.64 115.14 141.53 117.16 141.67 119.04 147.18 109.06 146.75 112.7 145.08 113.88 139.95 123.66 143.36 119.16 149.44 116.4 146.62 121.08 138.67 125.62 137.2 128.49 136.48 128.37"/>
      <polygon class="cls-1" points="143.61 110.25 145.05 101.21 142.48 97.41 142.79 94.02 144.43 96.07 144.95 98.02 145.67 99.77 147.82 88.58 148.54 92.17 147.31 93.81 145.46 104.7 147.31 99.36 152.24 94.85 151 100.18 144.84 106.96 144.33 110.14 143.61 110.25"/>
      <polygon class="cls-10" points="143.61 110.25 145.05 101.21 142.48 97.41 142.79 94.02 144.43 96.07 144.95 98.02 145.67 99.77 147.82 88.58 148.54 92.17 147.31 93.81 145.46 104.7 147.31 99.36 152.24 94.85 151 100.18 144.84 106.96 144.33 110.14 143.61 110.25"/>
      <polygon class="cls-1" points="99.22 171.44 85.54 161.52 83.93 153.2 79.11 149.18 79.64 154 81.52 157.22 82.86 160.44 65.43 148.64 69.18 154.27 72.93 154.81 89.57 166.61 80.18 162.05 67.85 162.6 76.43 167.95 93.32 168.75 98.14 172.24 99.22 171.44"/>
      <polygon class="cls-10" points="99.22 171.44 85.54 161.52 83.93 153.2 79.11 149.18 79.64 154 81.52 157.22 82.86 160.44 65.43 148.64 69.18 154.27 72.93 154.81 89.57 166.61 80.18 162.05 67.85 162.6 76.43 167.95 93.32 168.75 98.14 172.24 99.22 171.44"/>
      <polygon class="cls-1" points="69.43 148.74 61.74 139.26 62.18 133.16 59.56 129.46 59.04 132.92 59.74 135.52 60.08 138.02 50.13 126.53 51.69 131.16 54.21 132.23 63.6 143.57 57.91 138.64 49.21 136.72 54.19 142.05 65.82 145.76 68.53 149.1 69.43 148.74"/>
      <polygon class="cls-10" points="69.43 148.74 61.74 139.26 62.18 133.16 59.56 129.46 59.04 132.92 59.74 135.52 60.08 138.02 50.13 126.53 51.69 131.16 54.21 132.23 63.6 143.57 57.91 138.64 49.21 136.72 54.19 142.05 65.82 145.76 68.53 149.1 69.43 148.74"/>
      <polygon class="cls-1" points="56.1 128.37 51.94 120.22 53.21 115.81 51.87 112.68 50.94 115.14 51.06 117.16 50.91 119.04 45.41 109.06 45.83 112.7 47.51 113.88 52.63 123.66 49.22 119.16 43.14 116.4 45.96 121.08 53.92 125.62 55.39 128.49 56.1 128.37"/>
      <polygon class="cls-10" points="56.1 128.37 51.94 120.22 53.21 115.81 51.87 112.68 50.94 115.14 51.06 117.16 50.91 119.04 45.41 109.06 45.83 112.7 47.51 113.88 52.63 123.66 49.22 119.16 43.14 116.4 45.96 121.08 53.92 125.62 55.39 128.49 56.1 128.37"/>
      <polygon class="cls-1" points="48.97 110.25 47.53 101.21 50.1 97.41 49.79 94.02 48.15 96.07 47.64 98.02 46.92 99.77 44.76 88.58 44.04 92.17 45.28 93.81 47.13 104.7 45.28 99.36 40.35 94.85 41.58 100.18 47.74 106.96 48.25 110.14 48.97 110.25"/>
      <polygon class="cls-10" points="48.97 110.25 47.53 101.21 50.1 97.41 49.79 94.02 48.15 96.07 47.64 98.02 46.92 99.77 44.76 88.58 44.04 92.17 45.28 93.81 47.13 104.7 45.28 99.36 40.35 94.85 41.58 100.18 47.74 106.96 48.25 110.14 48.97 110.25"/>
    </g>
  </g>
</svg>