<?xml version="1.0" encoding="iso-8859-1"?>
<!-- Generator: Adobe Illustrator 29.7.1, SVG Export Plug-In . SVG Version: 9.03 Build 0)  -->
<svg version="1.1" id="Layer_1" xmlns="http://www.w3.org/2000/svg" xmlns:xlink="http://www.w3.org/1999/xlink" x="0px" y="0px"
	 viewBox="0 0 1920 1080" style="enable-background:new 0 0 1920 1080;" xml:space="preserve">
<g>
	<polygon style="fill-rule:evenodd;clip-rule:evenodd;fill:#FFFFFF;" points="863,444 1055.756,444 1055.756,636.756 863,636.756 
		863,444 	"/>
	<path style="fill:#2A3795;" d="M890.739,540.378v-0.002h0.006c0-24.198,7.634-46.117,19.975-61.994
		c12.424-15.985,29.625-25.872,48.656-25.872v-0.006h0.002h0.001v0.006c19.031,0,36.232,9.888,48.657,25.873
		c12.34,15.876,19.973,37.795,19.974,61.991h0.006v0.004v0.002h-0.006c0,24.198-7.634,46.117-19.975,61.994
		c-12.425,15.984-29.625,25.872-48.656,25.872v0.006h-0.002h-0.001v-0.006c-19.031,0-36.232-9.888-48.657-25.873
		c-12.34-15.876-19.973-37.795-19.974-61.991h-0.006V540.378L890.739,540.378z M893.749,540.376h0.006v0.002v0.004h-0.006
		c0.001,23.499,7.395,44.762,19.35,60.142c11.87,15.272,28.234,24.718,46.277,24.718v-0.006h0.001h0.002v0.006
		c18.042-0.001,34.406-9.446,46.276-24.718c11.955-15.38,19.35-36.644,19.35-60.144H1025v-0.002v-0.004h0.006
		c-0.001-23.499-7.395-44.762-19.35-60.142c-11.87-15.272-28.234-24.718-46.277-24.718v0.006h-0.001h-0.002v-0.006
		c-18.042,0.001-34.406,9.446-46.276,24.718C901.145,495.612,893.75,516.876,893.749,540.376L893.749,540.376z"/>
	<path style="fill-rule:evenodd;clip-rule:evenodd;fill:#2A3795;" d="M907.724,500.76l2.665,1.186l1.046-2.349
		c0.208-0.466,0.31-0.84,0.306-1.121c-0.005-0.496-0.285-0.869-0.842-1.116c-0.601-0.268-1.094-0.248-1.478,0.06
		c-0.216,0.172-0.424,0.483-0.624,0.931L907.724,500.76L907.724,500.76z M908.235,495.666c0.325-0.307,0.698-0.522,1.118-0.647
		c0.347-0.103,0.701-0.15,1.062-0.14c0.361,0.01,0.737,0.102,1.127,0.276c0.471,0.21,0.882,0.535,1.234,0.977
		c0.347,0.44,0.493,0.975,0.438,1.606c0.388-0.376,0.794-0.582,1.219-0.619c0.422-0.043,0.981,0.09,1.676,0.4l0.666,0.297
		c0.453,0.202,0.768,0.321,0.946,0.357c0.28,0.06,0.524,0.018,0.733-0.125l0.249,0.111l-1.016,2.281
		c-0.247-0.035-0.445-0.069-0.591-0.102c-0.302-0.07-0.6-0.168-0.893-0.293l-0.928-0.397c-0.636-0.273-1.11-0.344-1.42-0.213
		c-0.309,0.126-0.599,0.494-0.871,1.104l-0.953,2.14l3.889,1.731l-0.902,2.025l-9.918-4.416l2.166-4.865
		C907.589,496.464,907.912,495.968,908.235,495.666L908.235,495.666z"/>
	<polygon style="fill-rule:evenodd;clip-rule:evenodd;fill:#2A3795;" points="920.877,495.271 919.617,497.139 910.616,491.068 
		911.877,489.2 920.877,495.271 	"/>
	<polygon style="fill-rule:evenodd;clip-rule:evenodd;fill:#2A3795;" points="908.25,489.268 909.321,487.681 910.768,488.657 
		909.697,490.244 908.25,489.268 	"/>
	<polygon style="fill-rule:evenodd;clip-rule:evenodd;fill:#2A3795;" points="920.381,492.17 918.454,483.397 915.014,487.644 
		913.52,486.435 918.74,479.989 920.154,481.134 922.115,490.03 925.698,485.605 927.186,486.81 921.87,493.376 920.381,492.17 	"/>
	<polygon style="fill-rule:evenodd;clip-rule:evenodd;fill:#2A3795;" points="927.982,473.343 923.92,477.405 925.55,479.035 
		929.279,475.306 930.612,476.639 926.883,480.368 928.857,482.342 933.107,478.092 934.487,479.472 928.67,485.29 920.993,477.613 
		926.623,471.983 927.982,473.343 	"/>
	<path style="fill-rule:evenodd;clip-rule:evenodd;fill:#2A3795;" d="M937.286,467.433l1.049,2.152l2.396-1.169
		c0.428-0.209,0.736-0.457,0.923-0.745c0.19-0.295,0.184-0.647-0.016-1.058c-0.222-0.454-0.544-0.668-0.969-0.642
		c-0.354,0.047-0.767,0.186-1.239,0.416L937.286,467.433L937.286,467.433z M939.124,471.2l1.269,2.602l2.396-1.169
		c0.428-0.209,0.733-0.428,0.916-0.66c0.329-0.423,0.347-0.934,0.054-1.534c-0.247-0.508-0.627-0.754-1.139-0.739
		c-0.286,0.008-0.641,0.113-1.067,0.316L939.124,471.2L939.124,471.2z M942.302,464.176c0.502,0.269,0.895,0.692,1.177,1.27
		c0.291,0.596,0.374,1.148,0.251,1.656c-0.069,0.285-0.226,0.591-0.47,0.918c0.587-0.062,1.102,0.042,1.545,0.312
		c0.447,0.268,0.808,0.682,1.081,1.243c0.282,0.578,0.389,1.168,0.322,1.769c-0.037,0.395-0.143,0.764-0.321,1.107
		c-0.197,0.391-0.488,0.735-0.873,1.032c-0.38,0.295-0.82,0.564-1.319,0.807l-4.422,2.157l-4.759-9.758l4.74-2.312
		C940.458,463.811,941.474,463.744,942.302,464.176L942.302,464.176z"/>
	<polygon style="fill-rule:evenodd;clip-rule:evenodd;fill:#2A3795;" points="954.097,461.901 948.478,463.096 948.958,465.351 
		954.116,464.254 954.508,466.098 949.349,467.195 949.93,469.925 955.809,468.676 956.214,470.585 948.167,472.295 945.91,461.676 
		953.698,460.021 954.097,461.901 	"/>
	<polygon style="fill-rule:evenodd;clip-rule:evenodd;fill:#2A3795;" points="957.203,459.633 959.466,459.792 958.845,468.674 
		964.209,469.05 964.073,470.997 956.446,470.463 957.203,459.633 	"/>
	<polygon style="fill-rule:evenodd;clip-rule:evenodd;fill:#2A3795;" points="975.44,464.222 969.82,463.028 969.341,465.283 
		974.499,466.379 974.107,468.223 968.949,467.127 968.368,469.858 974.247,471.107 973.841,473.016 965.794,471.306 
		968.051,460.686 975.839,462.342 975.44,464.222 	"/>
	<path style="fill-rule:evenodd;clip-rule:evenodd;fill:#2A3795;" d="M980.152,466.744l-3.106,6.368l1.88,0.917
		c0.962,0.469,1.864,0.322,2.707-0.442c0.461-0.42,0.867-0.989,1.218-1.709c0.484-0.993,0.699-1.831,0.644-2.513
		c-0.049-0.685-0.536-1.253-1.463-1.705L980.152,466.744L980.152,466.744z M984.609,467.082c0.574,0.559,0.927,1.242,1.058,2.049
		c0.103,0.651,0.078,1.289-0.073,1.915c-0.152,0.625-0.353,1.194-0.602,1.706c-0.633,1.298-1.429,2.269-2.389,2.916
		c-1.298,0.869-2.684,0.945-4.158,0.226l-4.204-2.05l4.759-9.758l4.204,2.05C983.803,466.438,984.272,466.754,984.609,467.082
		L984.609,467.082z"/>
	<polygon style="fill-rule:evenodd;clip-rule:evenodd;fill:#2A3795;" points="984.495,480.126 982.743,478.708 989.575,470.271 
		991.327,471.689 984.495,480.126 	"/>
	<polygon style="fill-rule:evenodd;clip-rule:evenodd;fill:#2A3795;" points="991.575,468.071 993.063,469.276 991.964,470.633 
		990.476,469.427 991.575,468.071 	"/>
	<polygon style="fill-rule:evenodd;clip-rule:evenodd;fill:#2A3795;" points="998.64,478.449 1000.458,480.267 993.099,482.491 
		990.214,485.376 988.609,483.772 991.495,480.887 993.63,473.439 995.52,475.33 993.77,480.267 998.64,478.449 	"/>
	<polygon style="fill-rule:evenodd;clip-rule:evenodd;fill:#2A3795;" points="1005.236,490.235 1002.023,485.472 1000.112,486.761 
		1003.061,491.134 1001.498,492.188 998.549,487.816 996.235,489.377 999.596,494.36 997.978,495.451 993.377,488.63 
		1002.378,482.559 1006.83,489.16 1005.236,490.235 	"/>
	<path style="fill-rule:evenodd;clip-rule:evenodd;fill:#2A3795;" d="M1002.984,497.396c-0.401,0.301-0.659,0.599-0.776,0.894
		c-0.213,0.539-0.102,1.199,0.331,1.981c0.259,0.468,0.522,0.819,0.787,1.055c0.505,0.444,1.025,0.518,1.562,0.22
		c0.313-0.174,0.48-0.446,0.499-0.816c0.015-0.368-0.076-0.881-0.273-1.541l-0.332-1.13c-0.324-1.111-0.46-1.929-0.407-2.452
		c0.083-0.883,0.591-1.582,1.523-2.099c0.85-0.472,1.728-0.554,2.634-0.247c0.905,0.307,1.69,1.059,2.354,2.257
		c0.555,1.001,0.761,2.001,0.619,3c-0.135,1.001-0.698,1.799-1.689,2.393l-1.057-1.907c0.552-0.351,0.82-0.825,0.803-1.422
		c-0.013-0.397-0.147-0.826-0.401-1.285c-0.283-0.511-0.613-0.862-0.988-1.053c-0.375-0.191-0.747-0.184-1.117,0.021
		c-0.34,0.188-0.509,0.479-0.51,0.872c-0.005,0.255,0.093,0.74,0.292,1.454l0.514,1.854c0.225,0.812,0.296,1.481,0.211,2.006
		c-0.133,0.814-0.622,1.456-1.468,1.925c-0.868,0.481-1.774,0.548-2.718,0.201c-0.938-0.345-1.742-1.123-2.414-2.334
		c-0.685-1.237-0.944-2.366-0.774-3.386c0.174-1.023,0.755-1.808,1.743-2.356L1002.984,497.396L1002.984,497.396z"/>
	<polygon style="fill-rule:evenodd;clip-rule:evenodd;fill:#2A3795;" points="1004.462,508.898 1003.618,506.808 1013.684,502.741 
		1014.528,504.831 1004.462,508.898 	"/>
	<polygon style="fill-rule:evenodd;clip-rule:evenodd;fill:#2A3795;" points="1016.499,501.786 1017.217,503.562 1015.598,504.216 
		1014.881,502.44 1016.499,501.786 	"/>
	<path style="fill-rule:evenodd;clip-rule:evenodd;fill:#2A3795;" d="M954.202,588.832v5.6h-1.218v-3.67
		c-0.197,0.19-0.388,0.344-0.573,0.462c-0.183,0.118-0.414,0.23-0.691,0.338v-1.254c0.41-0.168,0.728-0.369,0.955-0.605
		c0.226-0.235,0.404-0.526,0.532-0.871H954.202L954.202,588.832z M956.961,591.473c-0.189-0.128-0.327-0.27-0.414-0.428
		c-0.118-0.215-0.177-0.463-0.177-0.744c0-0.461,0.17-0.837,0.511-1.13c0.266-0.225,0.617-0.338,1.055-0.338
		c0.579,0,1.007,0.14,1.283,0.421c0.278,0.28,0.417,0.634,0.417,1.059c0,0.248-0.055,0.48-0.166,0.695
		c-0.083,0.161-0.213,0.316-0.39,0.466c0.234,0.143,0.409,0.332,0.523,0.567c0.116,0.236,0.174,0.496,0.174,0.781
		c0,0.276-0.05,0.533-0.151,0.774c-0.099,0.238-0.221,0.422-0.366,0.552c-0.144,0.13-0.324,0.225-0.541,0.285
		c-0.215,0.062-0.444,0.094-0.689,0.094c-0.459,0-0.81-0.069-1.052-0.207c-0.242-0.137-0.427-0.34-0.552-0.608
		c-0.126-0.268-0.189-0.567-0.189-0.898c0-0.323,0.059-0.596,0.177-0.819C956.533,591.77,956.715,591.595,956.961,591.473
		L956.961,591.473z M957.502,590.391c0,0.191,0.046,0.344,0.139,0.462c0.094,0.115,0.22,0.173,0.375,0.173
		c0.138,0,0.251-0.058,0.34-0.173c0.089-0.115,0.133-0.264,0.133-0.447c0-0.19-0.046-0.344-0.139-0.462
		c-0.093-0.12-0.211-0.181-0.355-0.181c-0.146,0-0.265,0.059-0.357,0.177C957.547,590.056,957.502,590.206,957.502,590.391
		L957.502,590.391z M957.437,592.761c0,0.243,0.058,0.442,0.175,0.597c0.116,0.153,0.249,0.229,0.399,0.229
		c0.144,0,0.273-0.078,0.387-0.233c0.114-0.158,0.171-0.357,0.171-0.597c0-0.243-0.058-0.442-0.174-0.597
		c-0.114-0.155-0.247-0.233-0.399-0.233c-0.15,0-0.281,0.075-0.393,0.225C957.492,592.303,957.437,592.506,957.437,592.761
		L957.437,592.761z M964.484,590.166l-1.196,0.188c-0.031-0.213-0.085-0.363-0.16-0.451c-0.073-0.088-0.164-0.132-0.272-0.132
		c-0.195,0-0.347,0.125-0.455,0.376c-0.079,0.18-0.137,0.566-0.174,1.157c0.144-0.185,0.291-0.322,0.443-0.409
		c0.152-0.09,0.327-0.135,0.526-0.135c0.386,0,0.712,0.175,0.978,0.526c0.268,0.351,0.402,0.795,0.402,1.333
		c0,0.363-0.068,0.695-0.204,0.995c-0.134,0.3-0.321,0.528-0.562,0.683c-0.238,0.153-0.538,0.229-0.898,0.229
		c-0.433,0-0.781-0.094-1.043-0.282c-0.262-0.188-0.472-0.487-0.629-0.898c-0.156-0.413-0.234-0.959-0.234-1.638
		c0-0.994,0.165-1.721,0.494-2.182c0.329-0.463,0.785-0.695,1.368-0.695c0.345,0,0.617,0.052,0.815,0.154
		c0.201,0.1,0.368,0.248,0.5,0.443C964.315,589.625,964.415,589.87,964.484,590.166L964.484,590.166z M962.268,592.619
		c0,0.298,0.059,0.532,0.177,0.702c0.118,0.167,0.263,0.252,0.435,0.252c0.158,0,0.289-0.077,0.396-0.229
		c0.106-0.153,0.16-0.381,0.16-0.683c0-0.311-0.055-0.547-0.166-0.71c-0.11-0.163-0.247-0.244-0.411-0.244
		c-0.167,0-0.308,0.079-0.423,0.237C962.324,592.1,962.268,592.325,962.268,592.619L962.268,592.619z M965.784,588.926h3.514v1.033
		c-0.305,0.351-0.561,0.73-0.765,1.138c-0.248,0.496-0.445,1.048-0.588,1.656c-0.114,0.473-0.191,1.033-0.23,1.679h-1.2
		c0.095-0.899,0.243-1.653,0.446-2.261c0.203-0.609,0.524-1.259,0.964-1.953h-2.14V588.926L965.784,588.926z"/>
	<polygon style="fill-rule:evenodd;clip-rule:evenodd;fill:#00A651;" points="959.378,480.789 932.963,526.649 985.944,526.649 
		959.378,480.789 	"/>
	<polygon style="fill:none;stroke:#00A651;stroke-width:0.3769;stroke-miterlimit:2.6131;" points="959.378,480.789 
		932.963,526.649 985.944,526.649 959.378,480.789 	"/>
	<polygon style="fill-rule:evenodd;clip-rule:evenodd;fill:#0087CD;" points="959.483,559.677 985.944,526.649 932.963,526.649 
		959.483,559.677 	"/>
	<polygon style="fill:none;stroke:#0087CD;stroke-width:0.3769;stroke-miterlimit:2.6131;" points="959.483,559.677 
		985.944,526.649 932.963,526.649 959.483,559.677 	"/>
	<polygon style="fill-rule:evenodd;clip-rule:evenodd;fill:#2A3795;" points="944.467,582.368 955.067,582.368 955.067,554.303 
		932.963,526.649 955.341,487.805 955.341,478.374 920.015,529.726 944.467,558.261 944.467,582.368 	"/>
	<polygon style="fill:none;stroke:#2A3795;stroke-width:0.3769;stroke-miterlimit:2.6131;" points="944.467,582.368 
		955.067,582.368 955.067,554.303 932.963,526.649 955.341,487.805 955.341,478.374 920.015,529.726 944.467,558.261 
		944.467,582.368 	"/>
	<polygon style="fill-rule:evenodd;clip-rule:evenodd;fill:#2A3795;" points="974.44,582.368 963.84,582.368 963.84,554.303 
		985.944,526.649 963.565,487.805 963.565,478.374 998.891,529.726 974.44,558.261 974.44,582.368 	"/>
	<polygon style="fill:none;stroke:#2A3795;stroke-width:0.3769;stroke-miterlimit:2.6131;" points="974.44,582.368 963.84,582.368 
		963.84,554.303 985.944,526.649 963.565,487.805 963.565,478.374 998.891,529.726 974.44,558.261 974.44,582.368 	"/>
	<path style="fill-rule:evenodd;clip-rule:evenodd;fill:#FFFFFF;" d="M956.783,513.73l-0.968-0.463c0,0-0.258-0.968-0.452-1.161
		c-0.193-0.194-0.58-1.097-0.58-1.097l-0.581-0.774l-0.915-0.721l-1.097-0.774l2.915,0.323l-1.625-0.903l-0.387-0.968l-0.194-1.355
		l-0.581-1.173l-0.645-0.968l-0.516-0.71l-0.838-0.193l-0.98-0.194l1.56-0.194l-1.032-1.173l1.484,0.463l1.032,0.71l0.968,1.097
		l0.592-0.967l0.645-0.98l0.839-0.581l0.839-0.258l0.849-0.268c0,0,0.34-0.156,0.523-0.306c0.138-0.113,0.247-0.166,0.316-0.33
		c0.077-0.181-0.003-0.505-0.003-0.505s-0.492-0.305-0.533-0.621c-0.042-0.322,0.111-0.549,0.372-0.745
		c0.318-0.239,0.563-0.285,0.948-0.401c0.461-0.138,1.217-0.197,1.217-0.197s-0.38-0.173-0.424-0.395
		c-0.04-0.198,0.022-0.36,0.18-0.487c0.248-0.2,0.541-0.252,0.876-0.161c0.202,0.056,0.351,0.145,0.463,0.272
		c0.222,0.253-0.017,0.696-0.337,0.774c0.548-0.034,1.118,0.158,1.773,0.398c0.282,0.103,0.572,0.306,0.704,0.582
		c0.088,0.183,0.021,0.332-0.064,0.516c-0.085,0.183-0.211,0.269-0.35,0.38c-0.168,0.134-0.078,0.35,0,0.55
		c0.167,0.429,0.665,0.334,1.124,0.36c0.302,0.017,0.771-0.084,0.771-0.084s0.354-0.151,0.584-0.238
		c0.376-0.142,0.579-0.281,0.979-0.323c0.482-0.05,1.226,0.193,1.226,0.193l1.355,0.129l0.258,1.032l0.27,0.915l0.71,1.291
		l-0.516,0.967l-0.334,1.161v1.625l-0.839,0.323l-0.903,0.58l-2.076,1.678l2.786-0.903l-0.452,0.839l-1.161,1.689l-0.452,0.903
		l-0.581,0.968l-0.399,0.721l0.399,0.774l0.323,0.581h0.774l0.026,1.007l1.988,0.026l0.077,1.033l1.469-0.001l0.096,0.899
		l1.633,0.016l0.013,1.419l-2.554-0.014l0.038,0.724l1.032,0.452l0.968,0.258l0.71,0.516l0.709,0.528l0.592,0.838l0.516,1.032
		l0.194,0.968l0.193,0.85l0.387,0.645l0.258-0.774l0.258-0.85c0,0,0.137-0.548,0.129-0.903c-0.007-0.306-0.098-0.47-0.129-0.774
		c-0.052-0.501-0.037-0.789,0-1.29c0.028-0.384-0.075-0.653,0.129-0.98c0.142-0.227,0.294-0.303,0.516-0.452
		c0.318-0.213,0.522-0.346,0.903-0.387c0.334-0.036,0.531,0.028,0.85,0.129c0.322,0.102,0.537,0.147,0.774,0.387
		c0.253,0.256,0.346,0.481,0.387,0.839c0.041,0.363-0.052,0.579-0.194,0.915c-0.154,0.367-0.268,0.592-0.581,0.839
		c-0.159,0.126-0.335,0.092-0.452,0.258c-0.131,0.186-0.014,0.359-0.064,0.581c-0.086,0.375-0.399,0.903-0.399,0.903l-0.194,0.581
		l0.258,0.915l0.064,0.839v0.839l-0.322,0.516l-0.581,0.452l-0.516,0.516l-0.194,0.786l-0.193,0.581l-0.516,0.645l-0.581,0.516
		l-0.903,0.451l-0.528,0.839l-0.516,0.915l-0.774,1.032l-0.709,0.71l-0.839,0.71l-1.044,0.645l-1.032,0.463l-0.903,0.258
		l-0.791,0.331l-0.49,0.668l-0.385,0.668l-0.862,0.785l0.258,0.71l0.322,0.528l0.399,0.387l0.387,0.387l0.129,0.645h1.484v2.463
		h-2.786v-0.979h-7.173v0.979h-3.108v-2.592h1.29l0.258-0.71l0.581-0.322l0.387-0.452l0.452-0.657l-0.258-0.774l-0.516-0.387
		l-0.387-0.516l-0.387-0.581l-0.774-0.065l-0.839-0.323l-1.109-0.516l-1.419-0.657l-0.968-0.839l-0.903-0.903l-0.979-1.226
		l-0.71-1.044l-0.581-0.71l-0.452-0.323l-0.645-0.194l-0.387-0.516l-0.194-0.774l-0.463-0.581l-0.323-0.399l-0.516-0.194
		l-0.452-0.645l-0.065-0.71l0.194-0.323l-0.064-0.645l-0.323-0.71l-0.194-0.786c0,0,0.084-0.551,0.065-0.903
		c-0.017-0.306,0.003-0.498-0.129-0.774c-0.131-0.273-0.3-0.368-0.516-0.581c-0.19-0.188-0.324-0.265-0.516-0.452
		c-0.243-0.236-0.385-0.369-0.58-0.645c-0.186-0.262-0.318-0.41-0.399-0.721c-0.082-0.317-0.094-0.526,0-0.839
		c0.085-0.283,0.183-0.443,0.399-0.645c0.262-0.247,0.486-0.314,0.838-0.387c0.32-0.067,0.514-0.036,0.839,0
		c0.334,0.038,0.543,0.036,0.839,0.194c0.268,0.142,0.37,0.298,0.581,0.516c0.212,0.22,0.361,0.33,0.498,0.603
		c0.192,0.383,0.101,0.662,0.159,1.086c0.054,0.402,0.104,0.627,0.129,1.032c0.025,0.402-0.049,0.632,0,1.032
		c0.031,0.255,0.039,0.405,0.129,0.645c0.127,0.34,0.516,0.774,0.516,0.774l0.645,0.721l0.193-0.915l0.258-1.097l0.387-0.903
		l0.452-0.839l0.71-0.709l0.786-0.592l0.839-0.645l0.516-0.129l-0.194-0.58h-1.753v-1.29h1.109v-0.98h0.968v-0.645h2.334v-1.226
		h1.355l0.387-1.161l0.581-0.387L956.783,513.73L956.783,513.73z"/>
	<path style="fill:none;stroke:#000000;stroke-width:0.1492;stroke-miterlimit:2.6131;" d="M956.783,513.73l-0.968-0.463
		 M955.815,513.267c0,0-0.258-0.968-0.452-1.161c-0.193-0.194-0.58-1.097-0.58-1.097 M954.783,511.009l-0.581-0.774l-0.915-0.721
		l-1.097-0.774l2.915,0.323l-1.625-0.903l-0.387-0.968l-0.194-1.355l-0.581-1.173l-0.645-0.968l-0.516-0.71l-0.838-0.193
		l-0.98-0.194l1.56-0.194l-1.032-1.173l1.484,0.463l1.032,0.71l0.968,1.097l0.592-0.967l0.645-0.98l0.839-0.581l0.839-0.258
		l0.849-0.268 M957.116,500.449c0,0,0.34-0.156,0.523-0.306c0.138-0.113,0.247-0.166,0.316-0.33
		c0.077-0.181-0.003-0.505-0.003-0.505s-0.492-0.305-0.533-0.621c-0.042-0.322,0.111-0.549,0.372-0.745
		c0.318-0.239,0.563-0.285,0.948-0.401c0.461-0.138,1.217-0.197,1.217-0.197s-0.38-0.173-0.424-0.395
		c-0.04-0.198,0.022-0.36,0.18-0.487c0.248-0.2,0.541-0.252,0.876-0.161c0.202,0.056,0.351,0.145,0.463,0.272
		c0.222,0.253-0.017,0.696-0.337,0.774c0.548-0.034,1.118,0.158,1.773,0.398c0.282,0.103,0.572,0.306,0.704,0.582
		c0.088,0.183,0.021,0.332-0.064,0.516c-0.085,0.183-0.211,0.269-0.35,0.38c-0.168,0.134-0.078,0.35,0,0.55
		c0.167,0.429,0.665,0.334,1.124,0.36c0.302,0.017,0.771-0.084,0.771-0.084s0.354-0.151,0.584-0.238
		c0.376-0.142,0.579-0.281,0.979-0.323c0.482-0.05,1.226,0.193,1.226,0.193 M967.462,499.684l1.355,0.129l0.258,1.032l0.27,0.915
		l0.71,1.291l-0.516,0.967l-0.334,1.161v1.625l-0.839,0.323l-0.903,0.58l-2.076,1.678l2.786-0.903l-0.452,0.839l-1.161,1.689
		l-0.452,0.903l-0.581,0.968l-0.399,0.721l0.399,0.774l0.323,0.581h0.774l0.026,1.007l1.988,0.026l0.077,1.033l1.469-0.001
		l0.096,0.899l1.633,0.016l0.013,1.419l-2.554-0.014l0.038,0.724l1.032,0.452l0.968,0.258l0.71,0.516l0.709,0.528l0.592,0.838
		l0.516,1.032l0.194,0.968l0.193,0.85l0.387,0.645l0.258-0.774l0.258-0.85 M975.227,524.527c0,0,0.137-0.548,0.129-0.903
		c-0.007-0.306-0.098-0.47-0.129-0.774c-0.052-0.501-0.037-0.789,0-1.29c0.028-0.384-0.075-0.653,0.129-0.98
		c0.142-0.227,0.294-0.303,0.516-0.452c0.318-0.213,0.522-0.346,0.903-0.387c0.334-0.036,0.531,0.028,0.85,0.129
		c0.322,0.102,0.537,0.147,0.774,0.387c0.253,0.256,0.346,0.481,0.387,0.839c0.041,0.363-0.052,0.579-0.194,0.915
		c-0.154,0.367-0.268,0.592-0.581,0.839c-0.159,0.126-0.335,0.092-0.452,0.258c-0.131,0.186-0.014,0.359-0.064,0.581
		c-0.086,0.375-0.399,0.903-0.399,0.903 M977.098,524.592l-0.194,0.581l0.258,0.915l0.064,0.839v0.839l-0.322,0.516l-0.581,0.452
		l-0.516,0.516l-0.194,0.786l-0.193,0.581l-0.516,0.645l-0.581,0.516l-0.903,0.451l-0.528,0.839l-0.516,0.915l-0.774,1.032
		l-0.709,0.71l-0.839,0.71l-1.044,0.645l-1.032,0.463l-0.903,0.258l-0.791,0.331l-0.49,0.668l-0.385,0.668l-0.862,0.785l0.258,0.71
		l0.322,0.528l0.399,0.387l0.387,0.387l0.129,0.645h1.484v2.463h-2.786v-0.979h-7.173v0.979h-3.108v-2.592h1.29l0.258-0.71
		l0.581-0.322l0.387-0.452l0.452-0.657l-0.258-0.774l-0.516-0.387l-0.387-0.516l-0.387-0.581l-0.774-0.065l-0.839-0.323
		l-1.109-0.516l-1.419-0.657l-0.968-0.839l-0.903-0.903l-0.979-1.226l-0.71-1.044l-0.581-0.71l-0.452-0.323l-0.645-0.194
		l-0.387-0.516l-0.194-0.774l-0.463-0.581l-0.323-0.399l-0.516-0.194l-0.452-0.645l-0.065-0.71l0.194-0.323l-0.064-0.645
		l-0.323-0.71l-0.194-0.786 M943.716,525.301c0,0,0.084-0.551,0.065-0.903c-0.017-0.306,0.003-0.498-0.129-0.774
		c-0.131-0.273-0.3-0.368-0.516-0.581c-0.19-0.188-0.324-0.265-0.516-0.452c-0.243-0.236-0.385-0.369-0.58-0.645
		c-0.186-0.262-0.318-0.41-0.399-0.721c-0.082-0.317-0.094-0.526,0-0.839c0.085-0.283,0.183-0.443,0.399-0.645
		c0.262-0.247,0.486-0.314,0.838-0.387c0.32-0.067,0.514-0.036,0.839,0c0.334,0.038,0.543,0.036,0.839,0.194
		c0.268,0.142,0.37,0.298,0.581,0.516c0.212,0.22,0.361,0.33,0.498,0.603c0.192,0.383,0.101,0.662,0.159,1.086
		c0.054,0.402,0.104,0.627,0.129,1.032c0.025,0.402-0.049,0.632,0,1.032c0.031,0.255,0.039,0.405,0.129,0.645
		c0.127,0.34,0.516,0.774,0.516,0.774 M946.567,525.237l0.645,0.721l0.193-0.915l0.258-1.097l0.387-0.903l0.452-0.839l0.71-0.709
		l0.786-0.592l0.839-0.645l0.516-0.129l-0.194-0.58h-1.753v-1.29h1.109v-0.98h0.968v-0.645h2.334v-1.226h1.355l0.387-1.161
		l0.581-0.387l0.645-0.129"/>
	<path style="fill-rule:evenodd;clip-rule:evenodd;fill:#00A651;" d="M966.292,500.438c0,0,0.456,0.148,0.73,0.283
		c0.405,0.198,0.618,0.348,0.965,0.635c0.279,0.231,0.468,0.345,0.659,0.652c0.288,0.461,0.293,0.822,0.282,1.365
		c-0.009,0.499-0.03,0.817-0.282,1.248c-0.161,0.275-0.541,0.612-0.541,0.612h-0.612l-0.047-0.753l-0.165-0.824l-0.283-0.589
		l-0.4-0.636l-0.447-0.635l-0.283-0.416l-0.023-0.753l0.141-0.259L966.292,500.438L966.292,500.438z"/>
	<path style="fill:none;stroke:#000000;stroke-width:0.1492;stroke-miterlimit:2.6131;" d="M966.292,500.438
		c0,0,0.456,0.148,0.73,0.283c0.405,0.198,0.618,0.348,0.965,0.635c0.279,0.231,0.468,0.345,0.659,0.652
		c0.288,0.461,0.293,0.822,0.282,1.365c-0.009,0.499-0.03,0.817-0.282,1.248c-0.161,0.275-0.541,0.612-0.541,0.612 M968.104,505.232
		h-0.612l-0.047-0.753l-0.165-0.824l-0.283-0.589l-0.4-0.636l-0.447-0.635l-0.283-0.416l-0.023-0.753l0.141-0.259l0.306,0.071"/>
	<polygon style="fill-rule:evenodd;clip-rule:evenodd;fill:#00A651;" points="956.585,501.445 956.836,502.065 957.087,502.693 
		957.338,503.509 957.526,504.701 957.777,505.58 958.154,506.451 958.593,507.016 959.033,507.581 959.409,508.021 
		959.598,508.335 959.598,512.784 960.595,512.156 960.845,509.527 961.097,508.962 961.473,508.46 961.975,508.083 
		962.477,507.519 962.854,507.016 963.168,506.138 963.293,505.266 963.482,504.325 963.67,503.383 963.67,502.63 963.733,501.877 
		963.984,501.194 963.419,501.696 962.729,502.128 962.352,502.505 961.975,503.069 961.724,503.697 961.599,504.388 
		961.473,505.204 961.41,505.949 961.347,506.451 960.908,507.268 960.72,506.451 960.971,505.706 961.097,504.89 961.034,503.948 
		960.845,503.132 960.657,502.379 960.532,501.759 960.469,500.754 960.406,499.562 960.037,500.127 959.723,500.88 
		959.472,501.508 959.409,502.316 959.472,503.069 959.598,503.697 959.723,504.764 959.284,504.199 958.907,503.383 
		958.468,502.819 957.966,502.128 957.464,501.759 956.585,501.445 	"/>
	<polygon style="fill:none;stroke:#00A651;stroke-width:0.1492;stroke-miterlimit:2.6131;" points="956.585,501.445 
		956.836,502.065 957.087,502.693 957.338,503.509 957.526,504.701 957.777,505.58 958.154,506.451 958.593,507.016 
		959.033,507.581 959.409,508.021 959.598,508.335 959.598,512.784 960.595,512.156 960.845,509.527 961.097,508.962 
		961.473,508.46 961.975,508.083 962.477,507.519 962.854,507.016 963.168,506.138 963.293,505.266 963.482,504.325 963.67,503.383 
		963.67,502.63 963.733,501.877 963.984,501.194 963.419,501.696 962.729,502.128 962.352,502.505 961.975,503.069 961.724,503.697 
		961.599,504.388 961.473,505.204 961.41,505.949 961.347,506.451 960.908,507.268 960.72,506.451 960.971,505.706 961.097,504.89 
		961.034,503.948 960.845,503.132 960.657,502.379 960.532,501.759 960.469,500.754 960.406,499.562 960.037,500.127 
		959.723,500.88 959.472,501.508 959.409,502.316 959.472,503.069 959.598,503.697 959.723,504.764 959.284,504.199 
		958.907,503.383 958.468,502.819 957.966,502.128 957.464,501.759 956.585,501.445 	"/>
	<path style="fill:none;stroke:#000000;stroke-width:0.1492;stroke-miterlimit:2.6131;" d="M958.682,534.956l-1.137-0.419
		l-0.753-0.452l-0.708-0.633l0.331-12.82l0.075-0.828l0.452-0.904l0.602-0.708l0.678-0.603l-0.075-2.184 M958.147,515.405
		c0,0-0.375-0.279-0.527-0.527c-0.211-0.344-0.202-0.607-0.226-1.009c-0.021-0.353,0.013-0.556,0.075-0.904
		c0.059-0.33,0.086-0.524,0.226-0.829c0.133-0.289,0.327-0.385,0.452-0.678c0.084-0.196,0.106-0.318,0.151-0.527
		c0.094-0.444,0.075-1.16,0.075-1.16s0.149-0.482,0.377-0.452c0.187,0.024,0.301,0.377,0.301,0.377 M959.051,509.695l0.226,5.483
		h0.452l0.301-0.301l-0.301,0.603v13.649h-1.054 M958.675,529.129c0,0-0.374,0.019-0.575,0.131
		c-0.193,0.107-0.389,0.176-0.404,0.396c-0.016,0.229,0.174,0.346,0.377,0.452c0.171,0.09,0.49,0.077,0.49,0.077 M958.562,530.185
		l0.12,4.771 M958.986,515.832l0.382,19.162l-0.686-0.038 M958.223,517.589l0.096,2.094l-1.903,0.949 M958.17,513.448
		c0-0.334,0.095-0.604,0.212-0.604c0.117,0,0.212,0.27,0.212,0.604s-0.095,0.604-0.212,0.604
		C958.265,514.052,958.17,513.782,958.17,513.448 M951.572,535.919l11.779-20.791l-11.841,16.409l-0.249,0.808l0.186,1.118
		l0.187,0.84L951.572,535.919L951.572,535.919z M960.532,529.487c0,0,0.081,1.178,0.2,1.921c0.221,1.382,0.927,3.466,0.927,3.466
		 M961.658,534.875h0.339l0.292-0.545h1.753l0.243,0.545h0.412 M964.696,534.875c0,0,0.52-1.905,0.67-3.154
		c0.107-0.888,0.129-2.29,0.129-2.29s-1.418,0.529-2.365,0.557c-1.032,0.031-2.598-0.501-2.598-0.501 M960.532,528.771
		c0-0.499,1.124-0.904,2.51-0.904c1.386,0,2.51,0.405,2.51,0.904c0,0.5-1.124,0.904-2.51,0.904
		C961.655,529.675,960.532,529.27,960.532,528.771 M963.042,527.867c0,0,0.139-0.77,0.484-1.073
		c0.235-0.207,0.727-0.339,0.727-0.339 M964.252,526.455l0.339-0.226l0.452-0.557l0.282-0.509l-0.169-0.509l-0.283-0.508
		l-0.339-0.282l-0.056-0.96l-0.056-0.896l-0.057-0.395l-0.557-0.678 M963.808,520.934c0,0-0.294-0.461-0.395-0.791
		c-0.072-0.235-0.135-0.376-0.113-0.621c0.027-0.314,0.154-0.479,0.339-0.734c0.154-0.213,0.245-0.353,0.477-0.477
		c0.208-0.111,0.353-0.138,0.588-0.137c0.327,0.002,0.507,0.115,0.791,0.275c0.273,0.154,0.622,0.509,0.622,0.509 M966.117,518.956
		l0.565,0.734l0.396,0.678l0.282,0.678l1.009,0.791 M968.369,521.837c0,0,0.226,0.162,0.452,0.557
		c0.226,0.396,0.17,0.622,0.17,0.622 M968.99,523.016l0.452,0.791l0.395,0.678l0.169,1.017l0.056,1.066l-0.226,0.508l1.017,3.608
		l-0.621,0.395l-0.339-0.226l-0.113,0.452l-0.452-0.113l-0.17,0.508l-0.056,2.817l-0.904,0.226l0.283-0.565l0.056-2.422
		l-0.727,0.169l-0.113,2.422l-1.017,0.452l0.565-0.783l-0.056-1.808h-0.734v-4.06l-0.113-0.621l-0.189-0.7l-1.285,0.587
		l-0.446-0.169l-1.38,0.621 M964.942,527.048c-0.187-0.127-0.183-0.551-0.183-0.551 M964.758,526.497l0.794-1.108l0.056-0.734
		 M965.608,524.654c0,0-0.192-0.422-0.113-0.678c0.056-0.181,0.114-0.31,0.283-0.395c0.197-0.1,0.397-0.087,0.565,0.056
		c0.143,0.122,0.126,0.269,0.17,0.452c0.096,0.408-0.057,1.073-0.057,1.073 M966.456,525.163l-0.282,0.96l-0.509,0.67
		 M965.665,526.794c0,0-0.476,0.422-0.723,0.254 M969.823,528.002l-0.24,0.092l0.72,2.414l0.222-0.129L969.823,528.002
		L969.823,528.002z M969.027,528.489l0.519,1.669l0.277,0.092l-0.57-1.931L969.027,528.489L969.027,528.489z M965.043,521.103
		l-0.565-0.226l-0.169-0.509 M964.309,520.368c0,0-0.09-0.27,0-0.395c0.153-0.217,0.508,0.452,0.508,0.452 M964.817,520.425
		l0.226,0.678 M966.569,520.821l-0.395-0.565l-0.283-0.848l0.452,0.339l0.396,0.678L966.569,520.821L966.569,520.821z
		 M965.439,522.338l-0.395-0.218v-0.396l0.282-0.282l0.734-0.056l0.621,0.056l0.734,0.452l0.283,0.226h0.395l0.218,0.67l0.395,0.621
		l0.339,0.508l0.395,0.791 M969.442,524.711c0,0,0.113,0.734,0.226,1.017c0.113,0.282,0.056,0.84,0.056,0.84 M969.724,526.568
		l-0.508-0.953l-0.339-0.847l-0.282-0.396l-0.283,0.057l-0.727-0.509l-0.169-0.395l-0.452-0.226l-0.113-0.282l-0.508-0.395
		l-0.452-0.113l-0.452-0.169 M966.173,522.007l0.678,0.056l0.283,0.501 M967.134,522.564c0,0,0,0.283-0.17,0.226
		c-0.169-0.057-0.734-0.452-0.734-0.452 M966.23,522.338l-0.056-0.331 M967.003,527.3l0.776-0.333l0.759-0.343l0.057,0.339
		l-1.518,0.678L967.003,527.3L967.003,527.3z M968.99,525.954l-0.056,0.501l0.169,0.452l0.283,0.169l-0.079-0.57L968.99,525.954
		L968.99,525.954z M960.917,530.047c0,0,1.271,0.397,2.107,0.399c0.843,0.001,2.125-0.399,2.125-0.399"/>
	<path style="fill:none;stroke:#FFFFFF;stroke-width:0.1492;stroke-miterlimit:2.6131;" d="M961.331,530.151l0.694,0.183
		 M963.191,530.441l0.398-0.032l0.301-0.043 M964.31,530.28c0.169-0.042,0.352-0.105,0.527-0.129"/>
	<path style="fill:none;stroke:#000000;stroke-width:0.1492;stroke-miterlimit:2.6131;" d="M960.917,530.464
		c0,0,1.271,0.397,2.107,0.399c0.843,0.001,2.125-0.399,2.125-0.399"/>
	<path style="fill:none;stroke:#FFFFFF;stroke-width:0.1492;stroke-miterlimit:2.6131;" d="M961.331,530.568l0.694,0.184
		 M963.191,530.859l0.398-0.032l0.301-0.043 M964.31,530.698c0.169-0.042,0.352-0.105,0.527-0.129"/>
	<path style="fill:none;stroke:#000000;stroke-width:0.1492;stroke-miterlimit:2.6131;" d="M960.917,530.882
		c0,0,1.271,0.397,2.107,0.398c0.843,0.001,2.125-0.398,2.125-0.398"/>
	<path style="fill:none;stroke:#FFFFFF;stroke-width:0.1492;stroke-miterlimit:2.6131;" d="M961.331,530.987l0.694,0.183
		 M963.191,531.277l0.398-0.032l0.301-0.043 M964.31,531.115c0.169-0.042,0.352-0.105,0.527-0.129"/>
	<path style="fill:none;stroke:#000000;stroke-width:0.147;stroke-miterlimit:2.6131;" d="M961.023,531.31
		c0,0,1.207,0.377,2.001,0.379c0.801,0.001,2.019-0.379,2.019-0.379"/>
	<path style="fill:none;stroke:#FFFFFF;stroke-width:0.147;stroke-miterlimit:2.6131;" d="M961.416,531.409l0.659,0.174
		 M963.183,531.685l0.378-0.03l0.286-0.041 M964.246,531.532c0.161-0.04,0.334-0.099,0.501-0.122"/>
	<path style="fill:none;stroke:#000000;stroke-width:0.147;stroke-miterlimit:2.6131;" d="M961.123,531.738
		c0,0,1.147,0.359,1.901,0.36c0.761,0.001,1.918-0.36,1.918-0.36"/>
	<path style="fill:none;stroke:#FFFFFF;stroke-width:0.147;stroke-miterlimit:2.6131;" d="M961.497,531.831l0.626,0.166
		 M963.176,532.093l0.359-0.029l0.272-0.039 M964.186,531.948c0.153-0.038,0.318-0.095,0.476-0.117"/>
	<path style="fill:none;stroke:#000000;stroke-width:0.1505;stroke-miterlimit:2.6131;" d="M961.219,532.144
		c0,0,1.089,0.341,1.806,0.342c0.723,0.001,1.822-0.342,1.822-0.342"/>
	<path style="fill:none;stroke:#FFFFFF;stroke-width:0.1505;stroke-miterlimit:2.6131;" d="M961.574,532.233l0.595,0.157
		 M963.168,532.482l0.341-0.028l0.258-0.037 M964.128,532.343c0.145-0.036,0.302-0.09,0.452-0.11"/>
	<path style="fill:none;stroke:#000000;stroke-width:0.147;stroke-miterlimit:2.6131;" d="M961.309,532.529
		c0,0,1.035,0.323,1.716,0.325c0.687,0.001,1.731-0.325,1.731-0.325"/>
	<path style="fill:none;stroke:#FFFFFF;stroke-width:0.147;stroke-miterlimit:2.6131;" d="M961.647,532.614l0.565,0.149
		 M963.162,532.851l0.324-0.026l0.245-0.035 M964.073,532.719c0.138-0.034,0.287-0.086,0.429-0.105"/>
	<path style="fill:none;stroke:#000000;stroke-width:0.147;stroke-miterlimit:2.6131;" d="M961.396,532.896
		c0,0,0.983,0.308,1.63,0.308c0.652,0.001,1.644-0.308,1.644-0.308"/>
	<path style="fill:none;stroke:#FFFFFF;stroke-width:0.147;stroke-miterlimit:2.6131;" d="M961.716,532.976l0.537,0.142
		 M963.155,533.201l0.308-0.025l0.233-0.033 M964.021,533.076c0.131-0.033,0.272-0.081,0.408-0.1"/>
	<path style="fill:none;stroke:#000000;stroke-width:0.147;stroke-miterlimit:2.6131;" d="M961.478,533.244
		c0,0,0.934,0.292,1.549,0.293c0.62,0.001,1.562-0.293,1.562-0.293"/>
	<path style="fill:none;stroke:#FFFFFF;stroke-width:0.147;stroke-miterlimit:2.6131;" d="M961.782,533.321l0.51,0.135
		 M963.149,533.534l0.292-0.024l0.221-0.032 M963.972,533.416c0.124-0.031,0.259-0.077,0.388-0.095"/>
	<path style="fill:none;stroke:#000000;stroke-width:0.147;stroke-miterlimit:2.6131;" d="M961.555,533.575
		c0,0,0.887,0.278,1.471,0.279c0.589,0.001,1.484-0.279,1.484-0.279"/>
	<path style="fill:none;stroke:#FFFFFF;stroke-width:0.147;stroke-miterlimit:2.6131;" d="M961.844,533.647l0.484,0.128
		 M963.143,533.85l0.278-0.022l0.21-0.03 M963.925,533.738c0.118-0.03,0.246-0.073,0.368-0.09"/>
	<polygon style="fill-rule:evenodd;clip-rule:evenodd;fill:#00A651;" points="956.362,615.439 970.047,605.515 971.655,597.198 
		976.479,593.178 975.943,598.001 974.067,601.218 972.727,604.443 990.155,592.642 986.403,598.27 982.652,598.806 
		966.018,610.606 975.407,606.051 987.729,606.601 979.159,611.946 962.267,612.75 957.443,616.243 956.362,615.439 	"/>
	<polygon style="fill:none;stroke:#00A651;stroke-width:0.3769;stroke-miterlimit:2.6131;" points="956.362,615.439 
		970.047,605.515 971.655,597.198 976.479,593.178 975.943,598.001 974.067,601.218 972.727,604.443 990.155,592.642 
		986.403,598.27 982.652,598.806 966.018,610.606 975.407,606.051 987.729,606.601 979.159,611.946 962.267,612.75 957.443,616.243 
		956.362,615.439 	"/>
	<polygon style="fill-rule:evenodd;clip-rule:evenodd;fill:#00A651;" points="986.151,592.743 993.841,583.264 993.408,577.163 
		996.021,573.458 996.549,576.922 995.841,579.516 995.51,582.015 1005.459,570.529 1003.894,575.155 1001.378,576.229 
		991.983,587.568 997.679,582.636 1006.375,580.717 1001.397,586.046 989.767,589.764 987.056,593.101 986.151,592.743 	"/>
	<polygon style="fill:none;stroke:#00A651;stroke-width:0.3769;stroke-miterlimit:2.6131;" points="986.151,592.743 
		993.841,583.264 993.408,577.163 996.021,573.458 996.549,576.922 995.841,579.516 995.51,582.015 1005.459,570.529 
		1003.894,575.155 1001.378,576.229 991.983,587.568 997.679,582.636 1006.375,580.717 1001.397,586.046 989.767,589.764 
		987.056,593.101 986.151,592.743 	"/>
	<polygon style="fill-rule:evenodd;clip-rule:evenodd;fill:#00A651;" points="999.48,572.37 1003.643,564.217 1002.374,559.809 
		1003.713,556.684 1004.641,559.143 1004.526,561.156 1004.672,563.041 1010.18,553.063 1009.753,556.701 1008.075,557.882 
		1002.951,567.665 1006.361,563.158 1012.441,560.395 1009.62,565.08 1001.668,569.621 1000.199,572.492 999.48,572.37 	"/>
	<polygon style="fill:none;stroke:#00A651;stroke-width:0.3769;stroke-miterlimit:2.6131;" points="999.48,572.37 1003.643,564.217 
		1002.374,559.809 1003.713,556.684 1004.641,559.143 1004.526,561.156 1004.672,563.041 1010.18,553.063 1009.753,556.701 
		1008.075,557.882 1002.951,567.665 1006.361,563.158 1012.441,560.395 1009.62,565.08 1001.668,569.621 1000.199,572.492 
		999.48,572.37 	"/>
	<polygon style="fill-rule:evenodd;clip-rule:evenodd;fill:#00A651;" points="1006.612,554.246 1008.051,545.205 1005.483,541.405 
		1005.79,538.019 1007.432,540.072 1007.945,542.021 1008.667,543.769 1010.821,532.578 1011.54,536.169 1010.309,537.81 
		1008.458,548.698 1010.309,543.359 1015.237,538.851 1014.002,544.179 1007.843,550.955 1007.333,554.139 1006.612,554.246 	"/>
	<polygon style="fill:none;stroke:#00A651;stroke-width:0.3769;stroke-miterlimit:2.6131;" points="1006.612,554.246 
		1008.051,545.205 1005.483,541.405 1005.79,538.019 1007.432,540.072 1007.945,542.021 1008.667,543.769 1010.821,532.578 
		1011.54,536.169 1010.309,537.81 1008.458,548.698 1010.309,543.359 1015.237,538.851 1014.002,544.179 1007.843,550.955 
		1007.333,554.139 1006.612,554.246 	"/>
	<polygon style="fill-rule:evenodd;clip-rule:evenodd;fill:#00A651;" points="962.223,615.439 948.537,605.515 946.929,597.198 
		942.106,593.178 942.641,598.001 944.517,601.218 945.857,604.443 928.429,592.642 932.181,598.27 935.933,598.806 
		952.566,610.606 943.177,606.051 930.855,606.601 939.426,611.946 956.318,612.75 961.141,616.243 962.223,615.439 	"/>
	<polygon style="fill:none;stroke:#00A651;stroke-width:0.3769;stroke-miterlimit:2.6131;" points="962.223,615.439 
		948.537,605.515 946.929,597.198 942.106,593.178 942.641,598.001 944.517,601.218 945.857,604.443 928.429,592.642 
		932.181,598.27 935.933,598.806 952.566,610.606 943.177,606.051 930.855,606.601 939.426,611.946 956.318,612.75 961.141,616.243 
		962.223,615.439 	"/>
	<polygon style="fill-rule:evenodd;clip-rule:evenodd;fill:#00A651;" points="932.433,592.743 924.743,583.264 925.176,577.163 
		922.563,573.458 922.036,576.922 922.743,579.516 923.075,582.015 913.126,570.529 914.691,575.155 917.207,576.229 
		926.602,587.568 920.906,582.636 912.209,580.717 917.187,586.046 928.818,589.764 931.529,593.101 932.433,592.743 	"/>
	<polygon style="fill:none;stroke:#00A651;stroke-width:0.3769;stroke-miterlimit:2.6131;" points="932.433,592.743 
		924.743,583.264 925.176,577.163 922.563,573.458 922.036,576.922 922.743,579.516 923.075,582.015 913.126,570.529 
		914.691,575.155 917.207,576.229 926.602,587.568 920.906,582.636 912.209,580.717 917.187,586.046 928.818,589.764 
		931.529,593.101 932.433,592.743 	"/>
	<polygon style="fill-rule:evenodd;clip-rule:evenodd;fill:#00A651;" points="919.104,572.37 914.941,564.217 916.21,559.809 
		914.871,556.684 913.944,559.143 914.058,561.156 913.912,563.041 908.405,553.063 908.831,556.701 910.51,557.882 
		915.634,567.665 912.224,563.158 906.144,560.395 908.964,565.08 916.917,569.621 918.385,572.492 919.104,572.37 	"/>
	<polygon style="fill:none;stroke:#00A651;stroke-width:0.3769;stroke-miterlimit:2.6131;" points="919.104,572.37 914.941,564.217 
		916.21,559.809 914.871,556.684 913.944,559.143 914.058,561.156 913.912,563.041 908.405,553.063 908.831,556.701 910.51,557.882 
		915.634,567.665 912.224,563.158 906.144,560.395 908.964,565.08 916.917,569.621 918.385,572.492 919.104,572.37 	"/>
	<polygon style="fill-rule:evenodd;clip-rule:evenodd;fill:#00A651;" points="911.973,554.246 910.533,545.205 913.102,541.405 
		912.794,538.019 911.152,540.072 910.639,542.021 909.917,543.769 907.763,532.578 907.045,536.169 908.276,537.81 
		910.126,548.698 908.276,543.359 903.347,538.851 904.582,544.179 910.742,550.955 911.251,554.139 911.973,554.246 	"/>
	<polygon style="fill:none;stroke:#00A651;stroke-width:0.3769;stroke-miterlimit:2.6131;" points="911.973,554.246 
		910.533,545.205 913.102,541.405 912.794,538.019 911.152,540.072 910.639,542.021 909.917,543.769 907.763,532.578 
		907.045,536.169 908.276,537.81 910.126,548.698 908.276,543.359 903.347,538.851 904.582,544.179 910.742,550.955 
		911.251,554.139 911.973,554.246 	"/>
</g>
</svg>
