<?xml version="1.0" encoding="UTF-8"?>
<svg id="Layer_2" data-name="Layer 2" xmlns="http://www.w3.org/2000/svg" viewBox="0 0 675.11 675.1">
  <defs>
    <style>
      .cls-1 {
        fill: #0072bc;
      }

      .cls-2 {
        fill-rule: evenodd;
      }

      .cls-3 {
        fill: #50b848;
      }

      .cls-4 {
        fill: #fff;
      }

      .cls-5 {
        fill: #bfd730;
      }
    </style>
  </defs>
  <g id="Layer_1-2" data-name="Layer 1">
    <g id="Foreground">
      <g>
        <ellipse class="cls-4" cx="337.55" cy="337.55" rx="337.55" ry="337.55"/>
        <g>
          <g>
            <path class="cls-1" d="M89.2,337.58c0-30.71,5.52-60.13,15.61-87.3,22.92-2.21,46.94,1.38,69.61,11.36,47.04,20.71,76.07,64.51,79.81,109.89h-32.52l3.04-45.69c-2.59-4.55-5.51-8.96-8.72-13.19l4.85,58.88h-25.81l5.05-75.99c-4.05-3.58-8.37-6.92-12.97-9.99l7.08,85.99h-25.81l6.21-93.3c-2.01-1.02-4.07-1.99-6.16-2.92-3.01-1.33-6.05-2.53-9.1-3.61l8.22,99.83h-25.82l6.72-103.13c-5.05-1.29-10.12-2.25-15.18-2.9l7.68,106.03h-25.82l7.86-106.9c-5.89-.25-11.74-.08-17.49.52l8.76,106.38h-22.82c-1.5-11.1-2.27-22.43-2.27-33.95Z"/>
            <path class="cls-1" d="M426.14,312.23c-2.67-2.48-5.54-4.61-8.57-6.35-1.32-.76-2.67-1.44-4.05-2.03l6.07,67.68h-20.52l5.1-70.4c-4.47-.71-9.06-.63-13.64.24l6.3,70.16h-20.54l4.78-67.22c-3.98,1.73-7.87,4.08-11.6,7.05l4.75,60.17h-20.56l3.8-47.47c-3.33,4.58-6.37,9.84-8.99,15.77l2.84,31.7h-21.47c.65-5.69,1.71-11.45,3.21-17.23,13.53-52.21,55.36-76.63,89.43-57.05,22.66,13.02,35.94,42.55,36.7,74.29h-14.59l1.65-22.75c-1.84-7.39-4.47-14.22-7.75-20.29l3.86,43.04h-20.52l4.3-59.3Z"/>
            <path class="cls-5" d="M217.28,556.14c-17.61-9.83-33.91-21.74-48.57-35.41,35.04-28.32,77.07-54.79,124.94-77.24,53.04-24.87,105.26-41.04,153.36-49.21-44.15,14.61-90,38.25-132.94,69.62-37.85,27.64-70.72,59.31-96.79,92.24Z"/>
            <path class="cls-5" d="M319.68,586.72c-29.96-2.15-58.46-9.65-84.54-21.54,23.9-29.59,54.27-58.72,90.54-85.21,78.9-57.64,160.97-84.69,223.23-82.64-41.17,6.42-85.84,25.36-125.99,54.68-51.31,37.48-88.84,87.25-103.24,134.71Z"/>
            <path class="cls-3" d="M573.97,414.9c-32.12,99.3-124.43,171.29-233.64,172.45,13.35-39.96,45.38-83.6,94.21-119.27,47.86-34.96,97.98-52.13,139.43-53.18Z"/>
            <path class="cls-3" d="M375.6,390.93c-29.94,8.95-60.3,20.49-90.31,34.56-48.75,22.86-93.02,50.73-130.46,81.23-26.74-29.2-46.65-64.82-57.18-104.29l277.94-11.5Z"/>
            <path class="cls-1" d="M305.89,146.35h-12.73c2.95-1.79,5.13-3.22,6.54-4.29,2.13-1.61,3.63-3.09,4.51-4.45.88-1.39,1.32-2.94,1.32-4.65,0-2.51-.89-4.55-2.67-6.1-1.76-1.55-4.08-2.33-6.98-2.33-5.69,0-9.15,2.94-10.37,8.82l5.51,1.24c.4-3.42,1.91-5.13,4.55-5.13,1.06,0,1.93.33,2.59,1,.69.64,1.04,1.47,1.04,2.49,0,1.47-.67,2.89-1.99,4.25-1.97,2.01-4.26,3.93-6.86,5.77l-1.08.76-1.08.8-1.08.76c-.58.4-1.12.79-1.6,1.16v5.21h19.95l.44-5.33ZM319.25,124.53c-3.08,0-5.57,1.26-7.46,3.77s-2.83,5.84-2.83,9.99.93,7.51,2.79,10.03c1.89,2.51,4.38,3.77,7.46,3.77s5.77-1.24,7.66-3.73c1.92-2.51,2.87-5.88,2.87-10.11s-.96-7.46-2.87-9.95c-1.89-2.51-4.43-3.77-7.62-3.77ZM342.67,124.53c-3.08,0-5.57,1.26-7.46,3.77s-2.83,5.84-2.83,9.99.93,7.51,2.79,10.03c1.89,2.51,4.38,3.77,7.46,3.77s5.77-1.24,7.66-3.73c1.92-2.51,2.87-5.88,2.87-10.11s-.96-7.46-2.87-9.95c-1.89-2.51-4.43-3.77-7.62-3.77ZM366.08,124.53c-3.08,0-5.57,1.26-7.46,3.77-1.89,2.51-2.83,5.84-2.83,9.99s.93,7.51,2.79,10.03c1.89,2.51,4.38,3.77,7.46,3.77s5.77-1.24,7.66-3.73c1.92-2.51,2.87-5.88,2.87-10.11s-.96-7.46-2.87-9.95c-1.89-2.51-4.43-3.77-7.62-3.77ZM477.8,370.28c-2.33.23-4.67.48-7.03.75-.05-6.08-.49-12.09-1.28-17.97l12.85-9-7.6-31.38-13.57,8.76c-3.03-7.42-6.77-14.37-11.17-20.63l8.41-19.52-20.46-21.79-9.02,20.48-1.97-1.25c-5.6-3.43-11.4-5.89-17.31-7.41l-.61-25.56-29.3-2.09.98,27.59c-7.46,1.84-14.78,5.08-21.73,9.64l-13.11-23.23-27.1,24.96,14.59,23.83c-5.48,7.92-10.21,16.94-13.98,26.93l-22.36-8.53-9.87,43.2,11.04,3.46h-22.66c-.61-9.94-2.21-19.79-4.74-29.41l22.46-11.86-17.32-43.24-24.16,11.3c-6.55-10.48-14.41-20.4-23.52-29.48l13.6-26.71-41.95-33.02-15.03,28.38c-1.33-.68-2.68-1.34-4.04-1.99-11.53-5.5-23.44-9.66-35.53-12.48l-4.79-37.42c45.42-59.46,116.81-97.79,197.14-97.79,135.01,0,244.86,108.26,248.36,243.15l-4.66,3.77c-1.6-5.74-3.65-11.08-6.14-15.85l5.95-15.38-11.75-16.16-6.29,16.01-1.15-.91c-3.25-2.46-6.65-4.16-10.13-5.14l.65-19.4-17.23-.46-.55,20.71c-4.43,1.61-8.82,4.26-13.04,7.87l-6.56-16.93-16.41,19.3,7.21,17.35c-3.44,6.01-6.51,12.81-9.06,20.31l-12.12-6.01-6.95,30.25ZM319.29,129.03c1.46,0,2.5.7,3.11,2.09.61,1.39.92,3.78.92,7.18s-.31,5.71-.92,7.1c-.58,1.39-1.6,2.09-3.03,2.09s-2.49-.68-3.07-2.05c-.58-1.39-.88-3.78-.88-7.18s.28-5.82.84-7.18c.59-1.36,1.6-2.05,3.03-2.05ZM342.71,129.03c1.46,0,2.5.7,3.11,2.09.61,1.39.92,3.78.92,7.18s-.31,5.71-.92,7.1c-.58,1.39-1.6,2.09-3.03,2.09s-2.49-.68-3.07-2.05c-.58-1.39-.88-3.78-.88-7.18s.28-5.82.84-7.18c.59-1.36,1.6-2.05,3.03-2.05ZM366.12,129.03c1.46,0,2.5.7,3.11,2.09.61,1.39.92,3.78.92,7.18s-.31,5.71-.92,7.1c-.58,1.39-1.6,2.09-3.03,2.09s-2.49-.68-3.07-2.05c-.58-1.39-.88-3.78-.88-7.18s.28-5.82.84-7.18c.58-1.36,1.6-2.05,3.03-2.05Z"/>
            <path class="cls-1" d="M568.53,371.53c-3.86-.57-7.78-1.07-11.75-1.5l2.83-45.7c-1.25-1.35-2.56-2.52-3.94-3.51-1.17-.84-2.41-1.53-3.69-2.05l4.03,51.18c-4.01-.42-8.07-.77-12.19-1.04l3.18-51.37c-2.6-.25-5.32.07-8.07.97l4.01,50.34c-3.99-.26-8.03-.44-12.12-.56l2.88-47.36c-2.27,1.36-4.53,3.13-6.74,5.32l3.01,42.02c-3.99-.11-8.02-.15-12.1-.13l2.29-33.45c-1.87,2.85-3.65,6.07-5.3,9.67l2.04,23.79c-4.86.04-9.78.17-14.76.39.45-2.32.97-4.65,1.55-6.98,9.96-39.35,35.27-58.79,54.83-44.77,12.89,9.24,19.92,30.87,19.71,54.76h-8.54l1.39-22.48c-1.2-5.45-2.85-10.4-4.9-14.69l2.91,37.17h-.58Z"/>
          </g>
          <g>
            <path class="cls-2" d="M156.02,125.46c2.72,2.83,3.78,5.93,3.16,9.29-.58,3.09-2.51,6.22-5.77,9.38-4.07,3.95-8.69,6.42-13.87,7.39l-1.94-8.98c1.67-.29,3.43-.85,5.27-1.69,2.04-.93,3.63-1.95,4.75-3.04,1.25-1.21,2-2.18,2.26-2.9.25-.72.08-1.39-.51-2.01-.47-.49-1.18-.61-2.13-.36-.95.25-2.45,1-4.52,2.25-4.04,2.45-7.24,3.76-9.58,3.94-2.7.24-5.24-.87-7.61-3.33-2.37-2.46-3.34-5.33-2.92-8.59.39-3.29,2.14-6.43,5.22-9.43,4.02-3.9,8.4-6.23,13.14-6.97l1.94,8.98c-3.94.68-7.11,2.19-9.51,4.52-1.76,1.71-2.14,3.1-1.12,4.16.45.47,1.1.58,1.95.33.87-.27,2.33-1.02,4.38-2.25,4.12-2.47,7.43-3.78,9.94-3.93,2.73-.17,5.22.92,7.46,3.26Z"/>
            <path class="cls-2" d="M221.61,95.4l-9.39,5.23-4.75-4.58-9.39,5.23,1.35,6.48-9.3,5.18-5.99-37.79,8.76-4.88,28.7,25.13ZM201.56,90.3l-1.72-1.74c-3.15-3.18-5.27-5.43-6.35-6.74.54,1.62,1.32,4.61,2.33,8.99l.56,2.39,5.18-2.89Z"/>
            <path class="cls-2" d="M285.22,73.84l-11.36,3.06-11.15-12.85-2.4,5.28,2.79,10.47-9.78,2.63-9.26-34.75,9.78-2.63,1.08,4.07c.85,3.18,1.56,6.05,2.14,8.63.75-2.47,2.16-6.12,4.23-10.93l1.83-4.27,11.65-3.14-7.15,15.07,17.6,19.36Z"/>
            <path class="cls-2" d="M352.41,68.79l-10.73.19-2.05-6.29-10.73.19-1.83,6.35-10.63.19,12.36-36.2,10.02-.18,13.61,35.74ZM337.09,54.82l-.71-2.35c-1.3-4.3-2.12-7.28-2.46-8.95-.28,1.68-.99,4.69-2.14,9.03l-.62,2.38,5.93-.11Z"/>
            <path class="cls-2" d="M416.32,80.66l-10.76-2.7-2.74-13.18-3.87-.97-2.92,11.77-9.47-2.38,8.66-34.91,15.52,3.89c9.03,2.26,12.6,7.18,10.72,14.76-1.22,4.92-4.15,7.8-8.79,8.65l3.64,15.05ZM411.83,54.8c.62-2.49-.48-4.09-3.29-4.8l-5.8-1.45-1.89,7.63,5.65,1.42c2.91.73,4.69-.2,5.33-2.8Z"/>
            <path class="cls-2" d="M495.68,77.16l-22.22,13.67-6.26,11.84-8.85-4.73,6.19-11.71-1.08-26.31,10.11,5.4-.11,6.11c-.08,4.54-.33,7.92-.73,10.14,1.61-1.58,4.26-3.68,7.96-6.28l4.98-3.51,10.02,5.36Z"/>
            <path class="cls-2" d="M531.22,151.68l-7.85-7.36,2.87-5.95-7.85-7.36-5.71,3.29-7.78-7.29,33.9-17.41,7.33,6.87-14.91,35.21ZM529.85,130.93l1.12-2.18c2.03-4,3.5-6.72,4.42-8.15-1.36,1.02-3.96,2.68-7.78,5l-2.09,1.27,4.34,4.07Z"/>
            <path class="cls-2" d="M76.56,206.55c-3.03-1.69-4.84-3.86-5.43-6.52-.56-2.64.08-5.63,1.91-8.96l6.6-11.98,29.99,16.71-6.84,12.41c-1.47,2.67-3.32,4.4-5.55,5.18-2.2.8-4.54.51-7.02-.87-2.74-1.53-4.04-3.92-3.88-7.18-1.13,1.17-2.49,1.91-4.09,2.23-1.89.38-3.79.03-5.7-1.04ZM92.47,207.87c2.63,1.46,4.71.8,6.24-1.98l4.46-8.1-7.76-4.32-4.46,8.1c-.78,1.41-.98,2.68-.6,3.83.32,1.04,1.03,1.87,2.11,2.47ZM78.93,201.95c1.54.86,3.02,1.06,4.43.61,1.39-.43,2.55-1.49,3.49-3.18l4.51-8.18-9.94-5.54-4.44,8.06c-2.01,3.65-1.36,6.39,1.95,8.24Z"/>
            <path class="cls-2" d="M56.97,270c-4.59-1.41-7.77-3.58-9.55-6.49-1.78-2.91-2.04-6.43-.79-10.54,1.23-4.05,3.4-6.75,6.51-8.09,3.14-1.34,6.99-1.3,11.55.1l19.02,5.85-1.5,4.94-18.88-5.8c-6.34-1.95-10.27-.41-11.8,4.61-1.55,5.09.74,8.57,6.86,10.45l19.21,5.9-1.5,4.95-19.11-5.88ZM82.78,272.73c-.84-.26-1.48-.8-1.91-1.62-.43-.82-.52-1.65-.26-2.5.27-.88.81-1.54,1.62-1.97.82-.44,1.65-.53,2.49-.27.87.27,1.53.81,1.96,1.63.43.82.52,1.67.25,2.55-.26.85-.79,1.49-1.61,1.92-.82.44-1.66.52-2.54.25ZM85.57,263.54c-.84-.26-1.48-.8-1.91-1.62-.43-.82-.52-1.65-.26-2.5.27-.88.81-1.54,1.62-1.97.82-.44,1.64-.52,2.49-.27.87.27,1.53.81,1.96,1.63.43.82.52,1.67.25,2.55-.26.85-.79,1.49-1.61,1.92-.82.44-1.66.52-2.54.25Z"/>
            <path class="cls-2" d="M69.39,340.05l-20.28-13.08-13.56-.48.18-5.17,13.56.48,21.14-11.63-.21,6.05-9.64,5.03c-2.53,1.32-4.84,2.42-6.93,3.3,1.89.95,4.11,2.21,6.63,3.78l9.31,5.75-.21,5.96Z"/>
            <path class="cls-2" d="M56.88,403.92c-4.71.92-8.54.51-11.46-1.22-2.93-1.74-4.8-4.71-5.62-8.94-.8-4.16-.15-7.56,1.97-10.22,2.15-2.66,5.56-4.45,10.24-5.36l19.52-3.82.98,5.08-19.38,3.79c-6.51,1.27-9.26,4.49-8.27,9.64,1.01,5.22,4.66,7.22,10.94,5.99l19.72-3.85.98,5.08-19.62,3.83ZM80.95,394.15c-.87.17-1.68,0-2.45-.53-.77-.52-1.23-1.21-1.4-2.08-.18-.9,0-1.74.51-2.51.52-.77,1.21-1.24,2.07-1.41.9-.17,1.73,0,2.49.52.77.52,1.24,1.23,1.41,2.13.17.87,0,1.69-.52,2.46-.52.77-1.22,1.24-2.12,1.42ZM79.12,384.72c-.87.17-1.68,0-2.45-.53-.77-.52-1.23-1.21-1.4-2.08-.17-.9,0-1.74.51-2.51.52-.77,1.21-1.24,2.07-1.41.9-.17,1.73,0,2.49.52.77.52,1.24,1.23,1.41,2.13.17.87,0,1.69-.52,2.46-.51.77-1.22,1.24-2.12,1.42Z"/>
            <path class="cls-2" d="M66.88,474.16l-2.37-5.35,12.06-16.23-9.62-2.7-9.04,4.05-2.03-4.59,31.33-14.02,2.03,4.59-10.74,4.81c-2.39,1.07-4.25,1.87-5.59,2.39.85.16,2.96.67,6.31,1.54l15.72,4.12,2.37,5.35-15.45-4.14-14.98,20.18Z"/>
            <path class="cls-2" d="M91.97,527.25c-1.79,1.27-3.66,1.47-5.6.62-1.47-.63-2.54-1.51-3.23-2.63-.65-1.07-1.06-1.86-1.24-2.38-.28-.77-.4-1.67-.38-2.71l2.64-.71c-.01,1.43.35,2.66,1.1,3.7,1.19,1.65,2.51,1.94,3.96.88.95-.7,1.21-1.45.78-2.27-.35-.6-.81-.93-1.39-1l-.94-2.3,4.49-2c-1.74-3.47-2.17-7.1-1.27-10.89l5.05.88c-.73,3.62-.08,6.84,1.95,9.65,2.78,3.85,5.52,4.79,8.22,2.83,1.06-.77,1.57-1.85,1.53-3.25,0-1.39-.49-3.52-1.48-6.41-1.37-3.91-1.99-6.8-1.86-8.69.15-2.3,1.39-4.3,3.72-6,2.35-1.72,4.86-2.21,7.53-1.48,2.67.73,4.95,2.41,6.85,5.04,2.51,3.48,3.46,7.44,2.83,11.87l-5.1-.78c.5-3.05-.18-5.86-2.04-8.43-1.11-1.54-2.29-2.47-3.52-2.78-1.19-.31-2.29-.09-3.29.64-.98.71-1.47,1.71-1.49,2.97.03,1.28.56,3.37,1.57,6.28,1.3,3.76,1.9,6.65,1.79,8.68-.17,2.56-1.4,4.68-3.7,6.36-2.56,1.87-5.15,2.54-7.75,2.01-2.78-.61-5.41-2.57-7.88-5.87l-2.1.86c.68.44,1.29,1.09,1.83,1.95.45.73.58,1.56.41,2.5-.2,1.12-.86,2.07-1.99,2.86Z"/>
            <polygon class="cls-2" points="147.59 575.47 130.63 560.11 153.57 534.49 169.99 549.35 166.65 553.09 154.05 541.68 148.38 548.02 155.7 554.64 152.35 558.37 145.04 551.75 137.79 559.84 150.93 571.74 147.59 575.47"/>
            <polygon class="cls-2" points="206.7 612.78 202.16 610.35 209.38 596.69 195.45 589.25 188.23 602.9 183.69 600.48 199.79 570.04 204.33 572.46 197.82 584.77 211.75 592.21 218.26 579.91 222.8 582.34 206.7 612.78"/>
            <path class="cls-2" d="M252.05,630.09l-4.92-1.51,10.03-32.97,4.92,1.51-10.03,32.97ZM264.33,592.09c.27-.88.18-1.71-.26-2.5-.4-.81-1.02-1.34-1.87-1.6-.87-.27-1.72-.18-2.54.25-.77.41-1.3,1.06-1.56,1.94-.26.85-.18,1.68.22,2.49.44.79,1.1,1.32,1.98,1.59.84.26,1.65.18,2.43-.23.82-.44,1.35-1.08,1.61-1.92Z"/>
            <path class="cls-2" d="M323.19,618.01c-.47,5.43-3.27,8.56-8.39,9.4l5.76,14.65-5.9-.52-5.6-14.19-7.71-.68-1.18,13.59-5.03-.44,2.99-34.34,14.98,1.32c3.19.28,5.69,1.33,7.5,3.13,2.02,2.02,2.88,4.72,2.59,8.09ZM318,617.7c.15-1.77-.27-3.17-1.26-4.21-.96-1.07-2.31-1.69-4.07-1.84l-9.96-.88-.96,11.04,9.96.88c3.87.34,5.97-1.32,6.29-4.98Z"/>
            <path class="cls-2" d="M417.99,620.68c.84,3.38.49,6.19-1.04,8.43-1.54,2.21-4.15,3.78-7.82,4.7l-13.21,3.31-8.3-33.45,13.69-3.43c2.95-.74,5.47-.56,7.56.54,2.08,1.07,3.47,2.99,4.15,5.76.76,3.06-.1,5.64-2.57,7.75,1.62.03,3.09.53,4.41,1.48,1.56,1.13,2.6,2.77,3.13,4.9ZM408.1,608.09c-.73-2.93-2.63-4.01-5.7-3.24l-8.94,2.24,2.14,8.65,8.94-2.24c1.55-.39,2.62-1.11,3.2-2.17.54-.95.66-2.03.36-3.24ZM413.04,622.08c-.43-1.72-1.29-2.94-2.58-3.67-1.26-.73-2.82-.86-4.69-.4l-9.03,2.26,2.75,11.09,8.89-2.23c4.02-1.01,5.58-3.36,4.66-7.06Z"/>
            <polygon class="cls-2" points="481.26 606.53 460.74 616.59 445.71 585.61 465.57 575.87 467.76 580.38 452.53 587.86 456.24 595.51 465.09 591.17 467.28 595.69 458.43 600.03 463.18 609.81 479.07 602.02 481.26 606.53"/>
            <polygon class="cls-2" points="534.85 569.19 517.56 583.26 495.98 556.47 499.98 553.22 518.38 576.07 531.67 565.25 534.85 569.19"/>
            <polygon class="cls-2" points="578.83 522.63 564.16 540.21 537.89 518.05 552.09 501.03 555.92 504.26 545.02 517.32 551.51 522.8 557.84 515.21 561.67 518.44 555.34 526.02 563.64 533.02 575 519.4 578.83 522.63"/>
            <path class="cls-2" d="M598.79,454.66c5.14,2.52,8.34,5.95,9.61,10.3,1.1,3.87.6,7.98-1.52,12.35l-4.1,8.46-30.82-15.11,4.1-8.46c2.16-4.46,5.09-7.42,8.79-8.9,4.13-1.63,8.78-1.17,13.95,1.36ZM596.5,459.4c-7.28-3.57-12.59-1.9-15.95,5l-1.85,3.81,21.84,10.71,1.85-3.81c3.35-6.91,1.39-12.14-5.89-15.71Z"/>
            <path class="cls-2" d="M629.85,417.91l-1.33,4.99-33.12-8.92,1.33-4.99,33.12,8.92ZM591.66,406.91c-.88-.24-1.71-.12-2.48.35-.79.43-1.3,1.08-1.53,1.93-.24.89-.12,1.73.34,2.54.44.76,1.1,1.27,1.98,1.5.85.23,1.67.13,2.47-.3.77-.47,1.27-1.15,1.51-2.04.23-.86.12-1.67-.32-2.43-.46-.81-1.12-1.32-1.97-1.55Z"/>
            <path class="cls-2" d="M606.46,345.57l19.57,14.13,13.52,1.19-.45,5.15-13.52-1.19-21.72,10.5.53-6.03,9.89-4.52c2.59-1.19,4.96-2.17,7.09-2.93-1.84-1.05-3.98-2.43-6.43-4.12l-9-6.23.52-5.94Z"/>
            <polygon class="cls-2" points="635.71 283.44 638.89 306.17 604.93 310.97 601.85 288.97 606.8 288.27 609.16 305.14 617.55 303.96 616.18 294.16 621.13 293.46 622.5 303.26 633.22 301.75 630.76 284.14 635.71 283.44"/>
            <path class="cls-2" d="M607.57,223.52c2.99-1.15,5.68-1.1,8.09.15,2.58,1.36,4.63,4.03,6.16,8.02,1.78,4.66,1.52,9.14-.79,13.44l-4.66-2.16c1.64-3.31,1.84-6.58.6-9.83-1.7-4.45-4.1-6.07-7.21-4.87-1.22.47-1.99,1.38-2.31,2.74-.36,1.34-.44,3.53-.22,6.57.32,4.13.17,7.09-.44,8.88-.74,2.18-2.45,3.8-5.13,4.83-2.71,1.05-5.27.87-7.65-.53-2.39-1.4-4.16-3.62-5.32-6.65-1.53-4.02-1.42-8.08.33-12.21l4.73,2.08c-1.27,2.81-1.34,5.7-.2,8.68.68,1.78,1.58,2.98,2.69,3.61,1.07.61,2.19.69,3.34.24,1.13-.43,1.86-1.26,2.2-2.48.3-1.24.33-3.4.1-6.48-.29-3.97-.12-6.92.51-8.85.82-2.43,2.56-4.15,5.21-5.18Z"/>
            <path class="cls-2" d="M595.31,178.47l2.65,4.43-29.39,17.76-2.65-4.43,29.39-17.76ZM560.9,198.45c-.78.47-1.27,1.15-1.47,2.04-.24.87-.13,1.69.32,2.45.47.79,1.16,1.29,2.05,1.52.85.21,1.67.08,2.45-.39.76-.46,1.25-1.12,1.49-1.99.2-.88.06-1.72-.41-2.51-.45-.76-1.11-1.25-1.96-1.46-.9-.23-1.72-.11-2.48.35Z"/>
          </g>
        </g>
      </g>
    </g>
  </g>
</svg>