<?xml version="1.0" encoding="iso-8859-1"?>
<!-- Generator: Adobe Illustrator 29.7.1, SVG Export Plug-In . SVG Version: 9.03 Build 0)  -->
<svg version="1.1" xmlns="http://www.w3.org/2000/svg" xmlns:xlink="http://www.w3.org/1999/xlink" x="0px" y="0px"
	 viewBox="0 0 842 1191" style="enable-background:new 0 0 842 1191;" xml:space="preserve">
<g id="Background">
</g>
<g id="Guides">
</g>
<g id="Foreground">
	<g>
		<g>
			<ellipse style="fill:#FFFFFF;" cx="420.945" cy="595.724" rx="337.554" ry="337.548"/>
			<path style="fill:#FFFFFF;" d="M420.945,595.724"/>
		</g>
		<g>
			<g>
				<g>
					<path style="fill:#0072BC;" d="M172.594,595.756c0-30.711,5.521-60.126,15.614-87.301c22.923-2.208,46.945,1.379,69.607,11.357
						c47.04,20.713,76.07,64.507,79.811,109.891h-32.525l3.04-45.69c-2.593-4.551-5.505-8.96-8.724-13.186l4.848,58.876h-25.808
						l5.055-75.992c-4.045-3.579-8.372-6.923-12.972-9.993l7.081,85.986h-25.807l6.206-93.305c-2.012-1.021-4.066-1.995-6.16-2.917
						c-3.015-1.328-6.052-2.529-9.104-3.606l8.221,99.828h-25.816l6.723-103.129c-5.05-1.291-10.121-2.253-15.179-2.896
						l7.683,106.025h-25.825l7.858-106.898c-5.89-0.252-11.737-0.075-17.494,0.516l8.761,106.382h-22.821
						C173.369,618.602,172.594,607.27,172.594,595.756z"/>
					<path style="fill:#0072BC;" d="M509.534,570.403c-2.675-2.479-5.539-4.61-8.565-6.349c-1.322-0.76-2.673-1.437-4.047-2.031
						l6.074,67.68h-20.52l5.103-70.397c-4.466-0.706-9.057-0.63-13.64,0.236l6.296,70.161h-20.539l4.776-67.224
						c-3.977,1.732-7.874,4.081-11.599,7.052l4.751,60.172h-20.564l3.803-47.472c-3.334,4.579-6.366,9.835-8.993,15.774
						l2.844,31.698h-21.474c0.649-5.689,1.708-11.451,3.206-17.231c13.533-52.206,55.359-76.633,89.434-57.055
						c22.662,13.02,35.941,42.546,36.705,74.286h-14.587l1.649-22.749c-1.841-7.385-4.465-14.224-7.753-20.294l3.863,43.043h-20.52
						L509.534,570.403z"/>
					<path style="fill:#BFD730;" d="M300.668,814.314c-17.613-9.826-33.913-21.74-48.57-35.412
						c35.04-28.318,77.071-54.795,124.938-77.238c53.044-24.871,105.259-41.038,153.357-49.209
						c-44.147,14.61-90,38.253-132.94,69.619C359.607,749.718,326.736,781.381,300.668,814.314z"/>
					<path style="fill:#BFD730;" d="M403.069,844.893c-29.963-2.153-58.456-9.648-84.541-21.543
						c23.903-29.587,54.267-58.716,90.537-85.209c78.905-57.637,160.973-84.694,223.234-82.638
						c-41.173,6.423-85.836,25.356-125.986,54.685C455.003,747.666,417.477,797.437,403.069,844.893z"/>
					<path style="fill:#50B848;" d="M657.36,673.072c-32.119,99.298-124.434,171.293-233.643,172.45
						c13.345-39.963,45.379-83.6,94.208-119.268C565.785,691.294,615.906,674.127,657.36,673.072z"/>
					<path style="fill:#50B848;" d="M458.993,649.108c-29.943,8.948-60.304,20.489-90.306,34.556
						c-48.747,22.856-93.023,50.728-130.463,81.235c-26.74-29.197-46.648-64.817-57.175-104.295L458.993,649.108z"/>
					<path style="fill:#0072BC;" d="M389.281,404.527h-12.726c2.952-1.791,5.133-3.222,6.542-4.291
						c2.128-1.605,3.631-3.088,4.508-4.452c0.878-1.39,1.317-2.941,1.317-4.652c0-2.514-0.891-4.545-2.673-6.096
						c-1.756-1.551-4.083-2.326-6.981-2.326c-5.691,0-9.148,2.941-10.371,8.823l5.505,1.243c0.399-3.422,1.914-5.133,4.547-5.133
						c1.063,0,1.928,0.334,2.593,1.002c0.691,0.642,1.037,1.471,1.037,2.487c-0.001,1.47-0.665,2.888-1.995,4.251
						c-1.968,2.005-4.255,3.931-6.861,5.775l-1.077,0.762l-1.077,0.802l-1.077,0.762c-0.585,0.401-1.117,0.789-1.595,1.163v5.213
						h19.945L389.281,404.527z M402.644,382.71c-3.085,0-5.572,1.257-7.46,3.77c-1.888,2.513-2.832,5.842-2.832,9.986
						c0,4.171,0.931,7.514,2.793,10.026c1.888,2.514,4.375,3.77,7.46,3.77c3.218,0,5.771-1.243,7.659-3.729
						c1.915-2.513,2.872-5.882,2.872-10.107c0-4.144-0.957-7.46-2.872-9.946C408.376,383.967,405.836,382.71,402.644,382.71z
						 M426.06,382.71c-3.085,0-5.571,1.257-7.459,3.77c-1.888,2.513-2.832,5.842-2.832,9.986c0,4.171,0.931,7.514,2.793,10.026
						c1.888,2.514,4.375,3.77,7.46,3.77c3.218,0,5.771-1.243,7.659-3.729c1.915-2.513,2.872-5.882,2.872-10.107
						c0-4.144-0.957-7.46-2.872-9.946C431.791,383.967,429.251,382.71,426.06,382.71z M449.476,382.71
						c-3.085,0-5.571,1.257-7.46,3.77c-1.888,2.513-2.832,5.842-2.832,9.986c0,4.171,0.931,7.514,2.793,10.026
						c1.888,2.514,4.375,3.77,7.46,3.77c3.218,0,5.771-1.243,7.659-3.729c1.915-2.513,2.872-5.882,2.872-10.107
						c0-4.144-0.957-7.46-2.872-9.946C455.207,383.967,452.667,382.71,449.476,382.71z M561.194,628.456
						c-2.333,0.232-4.674,0.484-7.025,0.754c-0.055-6.084-0.488-12.094-1.281-17.968l12.852-9.004l-7.598-31.382l-13.568,8.758
						c-3.033-7.422-6.768-14.372-11.172-20.631l8.406-19.523l-20.46-21.792l-9.023,20.479l-1.97-1.254
						c-5.598-3.434-11.402-5.893-17.312-7.406l-0.615-25.557l-29.305-2.089l0.985,27.594c-7.458,1.836-14.776,5.075-21.734,9.639
						l-13.11-23.228l-27.102,24.957l14.588,23.831c-5.477,7.918-10.213,16.944-13.982,26.933l-22.364-8.526l-9.866,43.204
						l11.043,3.459h-22.663c-0.605-9.939-2.206-19.79-4.743-29.411l22.458-11.862l-17.321-43.241l-24.159,11.299
						c-6.551-10.476-14.414-20.404-23.521-29.482l13.604-26.706l-41.951-33.022l-15.028,28.382c-1.332-0.677-2.679-1.341-4.039-1.99
						c-11.529-5.499-23.436-9.656-35.531-12.484l-4.789-37.421c45.415-59.459,116.811-97.791,197.143-97.791
						c135.009,0,244.864,108.261,248.362,243.145l-4.662,3.765c-1.602-5.743-3.654-11.082-6.136-15.847l5.95-15.381l-11.749-16.163
						l-6.29,16.013l-1.146-0.905c-3.25-2.463-6.648-4.165-10.131-5.136l0.649-19.395l-17.229-0.464l-0.55,20.711
						c-4.434,1.607-8.823,4.255-13.039,7.873l-6.556-16.928l-16.405,19.297l7.213,17.346c-3.444,6.008-6.508,12.813-9.063,20.31
						l-12.118-6.007L561.194,628.456z M402.684,387.202c1.463,0,2.5,0.695,3.112,2.086c0.612,1.39,0.917,3.783,0.917,7.178
						c0,3.343-0.306,5.708-0.917,7.099c-0.585,1.391-1.596,2.086-3.032,2.086c-1.463,0-2.487-0.682-3.072-2.045
						c-0.585-1.39-0.878-3.783-0.878-7.179c0-3.422,0.279-5.815,0.837-7.179C400.237,387.884,401.248,387.202,402.684,387.202z
						 M426.1,387.202c1.463,0,2.5,0.695,3.112,2.086c0.612,1.39,0.918,3.783,0.918,7.178c0,3.343-0.306,5.708-0.918,7.099
						c-0.585,1.391-1.596,2.086-3.032,2.086c-1.463,0-2.486-0.682-3.071-2.045c-0.585-1.39-0.878-3.783-0.878-7.179
						c0-3.422,0.279-5.815,0.837-7.179C423.653,387.884,424.664,387.202,426.1,387.202z M449.516,387.202
						c1.463,0,2.5,0.695,3.112,2.086c0.612,1.39,0.917,3.783,0.917,7.178c0,3.343-0.306,5.708-0.917,7.099
						c-0.585,1.391-1.596,2.086-3.032,2.086c-1.462,0-2.486-0.682-3.071-2.045c-0.585-1.39-0.878-3.783-0.878-7.179
						c0-3.422,0.279-5.815,0.838-7.179C447.069,387.884,448.08,387.202,449.516,387.202z"/>
					<path style="fill:#0072BC;" d="M651.918,629.703c-3.86-0.573-7.778-1.073-11.753-1.502l2.832-45.697
						c-1.246-1.347-2.56-2.522-3.938-3.51c-1.173-0.84-2.407-1.526-3.692-2.055l4.031,51.18c-4.007-0.421-8.071-0.769-12.187-1.044
						l3.183-51.369c-2.599-0.251-5.317,0.065-8.071,0.969l4.009,50.342c-3.991-0.256-8.03-0.444-12.116-0.564l2.876-47.359
						c-2.273,1.36-4.535,3.128-6.739,5.316l3.008,42.019c-3.99-0.108-8.023-0.151-12.096-0.129l2.29-33.446
						c-1.869,2.852-3.646,6.071-5.296,9.666l2.042,23.786c-4.862,0.038-9.783,0.166-14.755,0.387
						c0.448-2.319,0.965-4.647,1.554-6.976c9.955-39.35,35.273-58.789,54.831-44.772c12.886,9.236,19.923,30.87,19.706,54.758
						h-8.541l1.394-22.485c-1.197-5.451-2.854-10.402-4.902-14.69l2.911,37.175H651.918z"/>
				</g>
				<g>
					<path style="fill-rule:evenodd;clip-rule:evenodd;" d="M239.412,383.636c2.723,2.835,3.778,5.93,3.165,9.287
						c-0.584,3.092-2.507,6.219-5.768,9.384c-4.069,3.951-8.69,6.415-13.865,7.39l-1.941-8.975c1.669-0.286,3.426-0.849,5.271-1.688
						c2.041-0.934,3.626-1.948,4.753-3.042c1.251-1.214,2.002-2.183,2.256-2.904c0.254-0.723,0.084-1.392-0.507-2.008
						c-0.473-0.493-1.182-0.615-2.126-0.365c-0.945,0.25-2.452,0.999-4.523,2.246c-4.043,2.449-7.235,3.762-9.576,3.939
						c-2.703,0.244-5.239-0.867-7.606-3.331c-2.367-2.465-3.341-5.329-2.923-8.593c0.394-3.288,2.136-6.432,5.224-9.431
						c4.021-3.904,8.399-6.225,13.136-6.966l1.94,8.975c-3.94,0.682-7.111,2.189-9.513,4.521c-1.765,1.714-2.139,3.1-1.121,4.16
						c0.45,0.468,1.099,0.576,1.947,0.325c0.872-0.275,2.331-1.025,4.377-2.249c4.116-2.472,7.428-3.783,9.937-3.933
						C234.676,380.209,237.164,381.295,239.412,383.636z"/>
					<path style="fill-rule:evenodd;clip-rule:evenodd;" d="M305.001,353.579l-9.388,5.232l-4.747-4.581l-9.388,5.232l1.349,6.475
						l-9.3,5.183l-5.991-37.793l8.763-4.883L305.001,353.579z M284.948,348.479l-1.721-1.744c-3.155-3.178-5.271-5.426-6.348-6.744
						c0.541,1.617,1.316,4.613,2.325,8.987l0.559,2.392L284.948,348.479z"/>
					<path style="fill-rule:evenodd;clip-rule:evenodd;" d="M368.607,332.014l-11.356,3.059l-11.152-12.851l-2.404,5.276
						l2.792,10.474l-9.776,2.634l-9.261-34.749l9.776-2.634l1.085,4.071c0.847,3.178,1.56,6.054,2.14,8.628
						c0.753-2.473,2.163-6.116,4.231-10.93l1.826-4.269l11.653-3.139l-7.15,15.069L368.607,332.014z"/>
					<path style="fill-rule:evenodd;clip-rule:evenodd;" d="M435.802,326.965l-10.733,0.188l-2.052-6.286l-10.733,0.188
						l-1.832,6.354l-10.631,0.187l12.357-36.197l10.017-0.176L435.802,326.965z M420.478,312.997l-0.706-2.352
						c-1.302-4.295-2.12-7.279-2.456-8.951c-0.277,1.683-0.992,4.694-2.144,9.032l-0.623,2.376L420.478,312.997z"/>
					<path style="fill-rule:evenodd;clip-rule:evenodd;" d="M499.715,338.832l-10.763-2.698l-2.736-13.185l-3.869-0.97
						l-2.919,11.768l-9.473-2.375l8.657-34.906l15.524,3.892c9.027,2.263,12.601,7.184,10.721,14.764
						c-1.22,4.92-4.149,7.805-8.785,8.655L499.715,338.832z M495.223,312.971c0.618-2.493-0.478-4.092-3.288-4.797l-5.803-1.455
						l-1.892,7.63l5.654,1.417C492.803,316.496,494.58,315.564,495.223,312.971z"/>
					<path style="fill-rule:evenodd;clip-rule:evenodd;" d="M579.071,335.335l-22.225,13.672l-6.263,11.843l-8.846-4.729
						l6.191-11.707l-1.083-26.306l10.11,5.404l-0.107,6.113c-0.082,4.535-0.327,7.916-0.733,10.143
						c1.61-1.584,4.261-3.678,7.955-6.283l4.981-3.507L579.071,335.335z"/>
					<path style="fill-rule:evenodd;clip-rule:evenodd;" d="M614.614,409.86l-7.851-7.36l2.867-5.955l-7.851-7.36l-5.708,3.291
						l-7.777-7.291l33.899-17.408l7.328,6.87L614.614,409.86z M613.242,389.109l1.118-2.185c2.031-3.999,3.504-6.717,4.418-8.154
						c-1.363,1.017-3.957,2.684-7.783,5l-2.09,1.274L613.242,389.109z"/>
					<path style="fill-rule:evenodd;clip-rule:evenodd;" d="M159.954,464.723c-3.028-1.687-4.837-3.859-5.426-6.515
						c-0.561-2.64,0.078-5.626,1.915-8.957l6.602-11.975l29.992,16.714l-6.84,12.406c-1.472,2.671-3.322,4.399-5.548,5.185
						c-2.197,0.803-4.539,0.511-7.024-0.873c-2.742-1.528-4.037-3.92-3.885-7.176c-1.131,1.171-2.493,1.914-4.085,2.229
						C163.768,466.136,161.867,465.79,159.954,464.723z M175.861,466.043c2.628,1.464,4.71,0.804,6.245-1.982l4.465-8.099
						l-7.755-4.322l-4.465,8.099c-0.776,1.407-0.976,2.685-0.6,3.833C174.072,464.614,174.776,465.438,175.861,466.043z
						 M162.319,460.129c1.542,0.859,3.018,1.062,4.426,0.608c1.392-0.426,2.555-1.486,3.489-3.18l4.513-8.185l-9.94-5.539
						l-4.441,8.056C158.354,455.535,159.005,458.282,162.319,460.129z"/>
					<path style="fill-rule:evenodd;clip-rule:evenodd;" d="M140.364,528.171c-4.591-1.411-7.775-3.575-9.553-6.49
						c-1.776-2.915-2.039-6.43-0.788-10.543c1.232-4.051,3.4-6.749,6.507-8.094c3.138-1.336,6.987-1.303,11.547,0.099l19.02,5.846
						l-1.504,4.945l-18.879-5.803c-6.341-1.949-10.274-0.411-11.802,4.613c-1.547,5.087,0.741,8.57,6.862,10.452l19.208,5.904
						l-1.504,4.946L140.364,528.171z M166.171,530.902c-0.843-0.259-1.482-0.799-1.915-1.619c-0.434-0.82-0.522-1.654-0.264-2.502
						c0.268-0.88,0.809-1.537,1.625-1.973c0.815-0.436,1.645-0.525,2.488-0.266c0.874,0.269,1.529,0.813,1.962,1.633
						c0.434,0.82,0.517,1.669,0.25,2.549c-0.258,0.847-0.794,1.489-1.61,1.925C167.891,531.087,167.046,531.171,166.171,530.902z
						 M168.964,521.717c-0.843-0.259-1.482-0.799-1.915-1.619c-0.434-0.819-0.522-1.654-0.264-2.502
						c0.267-0.879,0.809-1.537,1.625-1.973c0.815-0.436,1.644-0.524,2.488-0.265c0.874,0.269,1.529,0.813,1.962,1.633
						c0.434,0.82,0.517,1.67,0.25,2.549c-0.258,0.848-0.795,1.49-1.61,1.925C170.684,521.902,169.839,521.986,168.964,521.717z"/>
					<path style="fill-rule:evenodd;clip-rule:evenodd;" d="M152.786,598.225l-20.28-13.082l-13.561-0.476l0.179-5.168l13.561,0.476
						l21.139-11.628l-0.21,6.054l-9.636,5.034c-2.529,1.324-4.839,2.425-6.928,3.305c1.894,0.954,4.106,2.214,6.633,3.781
						l9.31,5.748L152.786,598.225z"/>
					<path style="fill-rule:evenodd;clip-rule:evenodd;" d="M140.275,662.098c-4.713,0.921-8.535,0.513-11.465-1.221
						c-2.93-1.736-4.803-4.714-5.619-8.936c-0.804-4.159-0.15-7.564,1.966-10.218c2.147-2.661,5.561-4.448,10.242-5.363
						l19.524-3.816l0.982,5.076l-19.38,3.787c-6.508,1.272-9.264,4.486-8.266,9.643c1.01,5.221,4.656,7.218,10.939,5.99
						l19.716-3.853l0.982,5.077L140.275,662.098z M164.337,652.328c-0.866,0.169-1.682-0.006-2.447-0.526
						c-0.766-0.519-1.233-1.214-1.401-2.084c-0.175-0.903-0.003-1.739,0.513-2.509c0.516-0.77,1.207-1.24,2.073-1.409
						c0.897-0.175,1.729-0.003,2.495,0.516c0.766,0.519,1.236,1.23,1.411,2.133c0.168,0.87-0.006,1.69-0.523,2.46
						C165.941,651.68,165.234,652.153,164.337,652.328z M162.514,642.9c-0.866,0.169-1.682-0.006-2.447-0.525
						c-0.766-0.519-1.233-1.214-1.401-2.084c-0.174-0.902-0.003-1.739,0.513-2.509c0.516-0.769,1.207-1.239,2.073-1.408
						c0.897-0.175,1.729-0.003,2.494,0.515c0.766,0.519,1.236,1.231,1.411,2.133c0.168,0.871-0.006,1.691-0.523,2.46
						C164.119,642.252,163.411,642.725,162.514,642.9z"/>
					<path style="fill-rule:evenodd;clip-rule:evenodd;" d="M150.272,732.336l-2.371-5.354l12.061-16.235l-9.616-2.704l-9.04,4.047
						l-2.033-4.59l31.327-14.023l2.033,4.589l-10.741,4.808c-2.387,1.068-4.25,1.866-5.589,2.394c0.855,0.156,2.96,0.67,6.313,1.541
						l15.716,4.125l2.371,5.354l-15.452-4.136L150.272,732.336z"/>
					<path style="fill-rule:evenodd;clip-rule:evenodd;" d="M175.358,785.426c-1.789,1.266-3.658,1.474-5.605,0.624
						c-1.467-0.633-2.544-1.511-3.233-2.631c-0.65-1.068-1.063-1.862-1.238-2.383c-0.276-0.773-0.402-1.674-0.381-2.706l2.637-0.708
						c-0.015,1.431,0.352,2.665,1.1,3.702c1.19,1.647,2.511,1.94,3.965,0.878c0.951-0.695,1.211-1.453,0.779-2.274
						c-0.35-0.596-0.812-0.928-1.386-0.997l-0.936-2.299l4.489-2.001c-1.744-3.474-2.166-7.102-1.267-10.885l5.053,0.876
						c-0.734,3.62-0.084,6.839,1.951,9.654c2.783,3.852,5.523,4.794,8.217,2.825c1.057-0.772,1.566-1.855,1.529-3.248
						c0.008-1.385-0.486-3.521-1.481-6.406c-1.371-3.909-1.991-6.805-1.858-8.688c0.152-2.303,1.391-4.303,3.716-6.002
						c2.352-1.718,4.861-2.211,7.528-1.481c2.668,0.73,4.951,2.41,6.852,5.04c2.515,3.48,3.457,7.438,2.829,11.874l-5.103-0.777
						c0.504-3.047-0.176-5.858-2.038-8.435c-1.113-1.541-2.288-2.468-3.524-2.783c-1.191-0.307-2.288-0.094-3.292,0.64
						c-0.978,0.714-1.473,1.705-1.485,2.972c0.033,1.275,0.556,3.368,1.571,6.28c1.302,3.757,1.899,6.648,1.79,8.677
						c-0.17,2.559-1.404,4.678-3.702,6.357c-2.563,1.872-5.147,2.542-7.751,2.009c-2.78-0.607-5.406-2.566-7.877-5.874l-2.101,0.865
						c0.68,0.437,1.291,1.087,1.833,1.949c0.447,0.729,0.584,1.562,0.413,2.499C177.151,783.689,176.487,784.642,175.358,785.426z"
						/>
					<polygon style="fill-rule:evenodd;clip-rule:evenodd;" points="230.983,833.644 214.018,818.287 236.964,792.666 
						253.383,807.529 250.039,811.263 237.443,799.86 231.772,806.192 239.089,812.816 235.746,816.549 228.429,809.925 
						221.184,818.015 234.326,829.911 					"/>
					<polygon style="fill-rule:evenodd;clip-rule:evenodd;" points="290.09,870.952 285.548,868.524 292.77,854.87 278.842,847.425 
						271.621,861.079 267.079,858.651 283.177,828.211 287.719,830.639 281.211,842.946 295.138,850.391 301.647,838.084 
						306.188,840.512 					"/>
					<path style="fill-rule:evenodd;clip-rule:evenodd;" d="M335.445,888.264l-4.919-1.512l10.026-32.969l4.919,1.512
						L335.445,888.264z M347.717,850.269c0.268-0.88,0.179-1.713-0.264-2.502c-0.402-0.811-1.025-1.345-1.869-1.605
						c-0.874-0.269-1.72-0.185-2.535,0.251c-0.775,0.414-1.296,1.06-1.564,1.94c-0.258,0.847-0.185,1.677,0.217,2.487
						c0.443,0.788,1.102,1.317,1.976,1.586c0.844,0.259,1.653,0.182,2.427-0.232C346.923,851.758,347.46,851.116,347.717,850.269z"
						/>
					<path style="fill-rule:evenodd;clip-rule:evenodd;" d="M406.579,876.182c-0.473,5.43-3.269,8.562-8.39,9.397l5.758,14.646
						l-5.905-0.519l-5.601-14.187l-7.711-0.678l-1.183,13.59l-5.026-0.442l2.989-34.345l14.982,1.318
						c3.189,0.281,5.687,1.325,7.497,3.132C406.009,870.117,406.872,872.813,406.579,876.182z M401.394,875.874
						c0.154-1.766-0.265-3.171-1.256-4.214c-0.956-1.072-2.312-1.687-4.069-1.841l-9.956-0.876l-0.961,11.04l9.956,0.876
						C398.98,881.199,401.075,879.537,401.394,875.874z"/>
					<path style="fill-rule:evenodd;clip-rule:evenodd;" d="M501.384,878.858c0.838,3.377,0.492,6.188-1.039,8.433
						c-1.538,2.213-4.146,3.779-7.821,4.701l-13.214,3.312l-8.296-33.452l13.69-3.432c2.947-0.739,5.466-0.558,7.556,0.543
						c2.083,1.068,3.468,2.989,4.155,5.76c0.758,3.058-0.098,5.642-2.571,7.751c1.624,0.033,3.092,0.528,4.407,1.484
						C499.81,875.09,500.854,876.724,501.384,878.858z M491.494,866.262c-0.727-2.931-2.627-4.011-5.701-3.24l-8.936,2.24
						l2.145,8.65l8.936-2.24c1.553-0.389,2.619-1.113,3.198-2.172C491.675,868.551,491.794,867.472,491.494,866.262z
						 M496.428,880.253c-0.427-1.72-1.285-2.943-2.576-3.669c-1.259-0.733-2.823-0.865-4.693-0.397l-9.031,2.264l2.75,11.087
						l8.889-2.228C495.791,886.3,497.345,883.948,496.428,880.253z"/>
					<polygon style="fill-rule:evenodd;clip-rule:evenodd;" points="564.653,864.708 544.135,874.77 529.103,843.783 
						548.96,834.046 551.151,838.561 535.917,846.031 539.632,853.69 548.482,849.35 550.672,853.865 541.822,858.204 
						546.568,867.988 562.463,860.194 					"/>
					<polygon style="fill-rule:evenodd;clip-rule:evenodd;" points="618.237,827.368 600.953,841.44 579.372,814.647 
						583.37,811.392 601.775,834.243 615.062,823.425 					"/>
					<polygon style="fill-rule:evenodd;clip-rule:evenodd;" points="662.221,780.805 647.547,798.387 621.279,776.226 
						635.48,759.21 639.308,762.44 628.413,775.494 634.906,780.971 641.235,773.388 645.062,776.616 638.733,784.199 
						647.027,791.196 658.394,777.577 					"/>
					<path style="fill-rule:evenodd;clip-rule:evenodd;" d="M682.185,712.837c5.137,2.519,8.34,5.952,9.61,10.301
						c1.104,3.866,0.596,7.982-1.523,12.35l-4.102,8.455l-30.821-15.113l4.102-8.455c2.162-4.456,5.091-7.422,8.786-8.898
						C672.37,709.85,677.018,710.304,682.185,712.837z M679.887,717.573c-7.279-3.57-12.595-1.902-15.945,5.004l-1.847,3.807
						l21.839,10.709l1.847-3.807C689.131,726.381,687.166,721.143,679.887,717.573z"/>
					<path style="fill-rule:evenodd;clip-rule:evenodd;" d="M713.244,676.089l-1.331,4.995l-33.123-8.923l1.331-4.995
						L713.244,676.089z M675.047,665.084c-0.884-0.238-1.709-0.12-2.477,0.353c-0.792,0.432-1.302,1.077-1.53,1.934
						c-0.237,0.888-0.124,1.734,0.338,2.538c0.439,0.764,1.099,1.266,1.983,1.504c0.851,0.229,1.673,0.127,2.465-0.305
						c0.768-0.472,1.271-1.153,1.507-2.041c0.228-0.857,0.123-1.667-0.316-2.431C676.555,665.831,675.898,665.314,675.047,665.084z"
						/>
					<path style="fill-rule:evenodd;clip-rule:evenodd;" d="M689.856,603.749l19.572,14.131l13.518,1.189l-0.448,5.152
						l-13.518-1.189l-21.715,10.5l0.525-6.035l9.885-4.52c2.595-1.189,4.959-2.167,7.09-2.935c-1.842-1.052-3.985-2.427-6.427-4.125
						l-8.998-6.23L689.856,603.749z"/>
					<polygon style="fill-rule:evenodd;clip-rule:evenodd;" points="719.102,541.616 722.279,564.343 688.321,569.142 
						685.246,547.145 690.194,546.446 692.553,563.321 700.946,562.135 699.576,552.332 704.523,551.633 705.894,561.436 
						716.615,559.921 714.154,542.315 					"/>
					<path style="fill-rule:evenodd;clip-rule:evenodd;" d="M690.96,481.694c2.988-1.153,5.683-1.103,8.086,0.151
						c2.583,1.359,4.634,4.032,6.156,8.017c1.779,4.659,1.515,9.141-0.795,13.444l-4.655-2.161c1.641-3.306,1.841-6.584,0.601-9.833
						c-1.697-4.445-4.1-6.067-7.21-4.867c-1.22,0.471-1.99,1.384-2.313,2.739c-0.364,1.336-0.437,3.527-0.219,6.573
						c0.318,4.132,0.172,7.091-0.442,8.875c-0.74,2.185-2.451,3.795-5.134,4.83c-2.714,1.047-5.265,0.871-7.653-0.528
						c-2.389-1.4-4.162-3.616-5.321-6.651c-1.533-4.015-1.424-8.085,0.325-12.206l4.73,2.078c-1.271,2.812-1.338,5.704-0.202,8.678
						c0.679,1.778,1.575,2.979,2.688,3.605c1.072,0.606,2.186,0.686,3.344,0.239c1.129-0.435,1.862-1.263,2.2-2.484
						c0.297-1.24,0.33-3.398,0.1-6.475c-0.291-3.968-0.122-6.916,0.505-8.847C686.57,484.444,688.307,482.718,690.96,481.694z"/>
					<path style="fill-rule:evenodd;clip-rule:evenodd;" d="M678.703,436.649l2.649,4.432l-29.393,17.757l-2.649-4.433
						L678.703,436.649z M644.296,456.63c-0.784,0.474-1.273,1.152-1.469,2.037c-0.24,0.873-0.134,1.689,0.321,2.45
						c0.471,0.788,1.155,1.294,2.051,1.518c0.851,0.213,1.669,0.084,2.453-0.389c0.755-0.456,1.253-1.122,1.494-1.995
						c0.196-0.884,0.058-1.72-0.413-2.508c-0.454-0.76-1.107-1.247-1.958-1.46C645.878,456.057,645.051,456.173,644.296,456.63z"/>
				</g>
			</g>
		</g>
	</g>
</g>
</svg>
