<?xml version="1.0" encoding="iso-8859-1"?>
<!-- Generator: Adobe Illustrator 29.7.1, SVG Export Plug-In . SVG Version: 9.03 Build 0)  -->
<svg version="1.1" id="Layer_2_00000117651810004198509080000001256842754938315429_"
	 xmlns="http://www.w3.org/2000/svg" xmlns:xlink="http://www.w3.org/1999/xlink" x="0px" y="0px" viewBox="0 0 183.04 69.62"
	 style="enable-background:new 0 0 183.04 69.62;" xml:space="preserve">
<g id="Layer_1-2">
	<path style="fill-rule:evenodd;clip-rule:evenodd;fill:#FFFFFF;" d="M61.02,22.05c-0.05-0.17-0.36-0.23-0.69-0.13
		c-0.33,0.11-0.55,0.33-0.5,0.5s0.35,0.23,0.69,0.12c0.33-0.1,0.55-0.33,0.5-0.5l0,0V22.05z M59.34,22.3l0.23,0.61l-4.44,1.74
		l-0.23-0.61L59.34,22.3L59.34,22.3z M52.41,45.49l1.12-1.14l0.1-2.4l-0.88,0.29l-0.34,3.24l0,0L52.41,45.49z M54.21,43.85l1.15-1.1
		l-0.12-1.28l-0.89,0.29L54.21,43.85C54.21,43.85,54.21,43.85,54.21,43.85z M55.99,42.13l1.12-0.87l-1.05,0.06L55.99,42.13
		C55.99,42.13,55.99,42.13,55.99,42.13z M55.71,43.2l1.79-0.31l0.18-1.26L55.71,43.2L55.71,43.2z M54.85,44.17l-1.37,1.5l3.46-0.44
		l0.35-1.2L54.85,44.17L54.85,44.17z M55.03,40.8l-0.71-0.86l-0.05,1.34l0.76-0.49l0,0V40.8z M55.36,40.49l0.09-0.77l-1.74-3.01
		l-0.16,1.63l1.81,2.14l0,0V40.49z M55.62,38.77l0.33-1.55l-1.52-2.93l-0.56,1.12l1.75,3.37l0,0V38.77z M56.15,36.33l0.33-1.57
		l-1.21-2.06l-0.58,0.76l1.45,2.87l0,0L56.15,36.33z M56.77,33.96l0.38-1.58l-0.81-0.98l-0.56,0.74L56.77,33.96L56.77,33.96z
		 M57.32,31.5l0.48-1.36l-0.86,0.66l0.39,0.7l0,0H57.32z M57.7,32.56l1.3-1.3l-0.53-1.15l-0.76,2.45l0,0H57.7z M57.5,33.85
		l-0.33,2.02l2.64-2.36l-0.36-1.2L57.5,33.85C57.5,33.85,57.5,33.85,57.5,33.85z M56.74,38.22l3.1-2.01l0.09-1.76l-2.95,2.13
		L56.74,38.22C56.74,38.22,56.74,38.22,56.74,38.22z M56.42,39.12l-0.16,0.9l3.32-1.87l0.16-0.92l-3.32,1.88l0,0V39.12z
		 M56.24,40.78l1.71,0.11l0.97-1.58L56.24,40.78L56.24,40.78z M40.26,49.28c-2.62,1.38-5.6,2.17-8.76,2.17s-6.12-0.78-8.73-2.15
		c0.82-0.16,1.7-0.38,2.91-0.05c0.34,0.09,0.65,0.22,1,0.29c1.8,0.32,2.55-0.99,4.84-0.18c2.73-0.86,2.58,0.69,5.46,0.04
		c1.8-0.54,2.53-0.3,3.28-0.11l0,0V49.28z M44.43,46.29c-0.85,0.8-1.77,1.52-2.75,2.16c-1.52,0.18-2.36-0.63-4.33-0.08
		c-3.07,0.96-2.74-0.82-5.86,0.07c-2.52-0.86-2.86,0.83-5.57,0c-2.06-0.68-2.76,0.26-4.62,0c-0.97-0.63-1.87-1.34-2.71-2.12
		c0.53-0.01,1.01,0.03,1.44,0.13c0.44,0.1,0.84,0.32,1.3,0.38c1.37,0.2,2.43-0.66,4.36-0.14c0.34,0.09,0.65,0.22,1,0.29
		c1.8,0.32,2.55-0.99,4.84-0.18c2.73-0.86,2.58,0.69,5.46,0.04c2.8-0.85,3.02,0.23,4.76-0.02c0.37-0.05,0.69-0.19,1.05-0.29
		c0.54-0.15,1.09-0.23,1.64-0.23l0,0L44.43,46.29z M46.45,44.05c-0.39,0.51-0.81,1.01-1.26,1.48c-0.81-0.12-1.64-0.1-2.46,0.15
		c-2.27,0.84-2.99-0.48-5.38,0.18c-3.07,0.96-2.74-0.82-5.86,0.07c-2.52-0.86-2.86,0.83-5.57,0c-2.37-0.78-2.95,0.59-5.56-0.22
		c-0.36-0.11-0.67-0.22-1.05-0.26c-0.53-0.06-1.03-0.02-1.5,0.08c-0.44-0.46-0.85-0.95-1.24-1.46c1.41-0.3,2.54-0.36,3.46-0.14
		c0.44,0.1,0.84,0.32,1.3,0.38c1.37,0.2,2.43-0.66,4.36-0.14c0.34,0.09,0.65,0.22,1,0.29c1.8,0.32,2.55-0.99,4.84-0.18
		c2.73-0.86,2.58,0.69,5.46,0.04c2.8-0.85,3.02,0.23,4.76-0.02c0.37-0.05,0.69-0.19,1.05-0.29c1.18-0.34,2.44-0.29,3.66,0.04l0,0
		L46.45,44.05z M1.43,25.77H1.41c-0.27,1.66-0.62,3.88-0.75,5.54c-0.03,0.36-0.04,0.66-0.05,1.02l0,0c0,3.35,0.42,6.18,1.4,9.38
		c2.1,6.83,6.54,12.73,12.53,16.64c3.18,2.08,6.18,3.36,9.88,4.23c-0.57,0.26-1.05,0.45-1.64,0.64l0,0
		c-1.35,0.44-2.76,0.58-4.17,0.41c-0.5-0.06-0.99-0.15-1.47-0.27s-0.96-0.26-1.43-0.42c-0.91-0.32-1.5-0.59-2.34-0.96l2.49,4.45
		L7.8,69.62l1.68-0.03c0.79-0.02,1.46-0.02,2.25-0.03c0.98,0,1.81-0.02,2.78-0.04c0.94-0.02,1.73-0.07,2.66-0.16
		c1.04-0.09,1.91-0.23,2.93-0.46l0,0c1.75-0.39,3.43-1.06,4.94-2.03s2.81-2.18,3.93-3.57l0.77,1.24l0.27-0.29
		c0.15-0.16,0.27-0.32,0.38-0.52c0.06-0.11,0.12-0.22,0.17-0.33c0.06-0.14,0.15-0.31,0.24-0.43c0.08-0.1,0.19-0.16,0.32-0.19
		c0.09-0.02,0.16-0.02,0.25-0.02l0,0c0.15,0,0.28,0.02,0.42,0.07c0.14,0.06,0.28,0.16,0.38,0.28c0.12,0.14,0.21,0.26,0.31,0.41l0,0
		c0.33,0.5,0.43,0.59,0.84,1.01l0.77-1.23c1.45,1.78,3.17,3.28,5.24,4.31c0.84,0.42,1.73,0.77,2.63,1.03s1.67,0.42,2.6,0.56
		c1.02,0.15,1.88,0.23,2.91,0.27c1.04,0.05,2.26,0.07,3.36,0.08c1.86,0.01,2.72,0.03,4.43,0.06l-8.06-3.18l2.49-4.46l-0.83,0.37
		c-0.82,0.36-1.53,0.62-2.39,0.87c-0.93,0.27-1.88,0.44-2.84,0.47c-1.82,0.06-3.35-0.38-4.98-1.11c2.98-0.7,5.42-1.65,8.09-3.15
		c7.9-4.43,13.45-12.12,15.16-21.07c0.4-2.1,0.57-3.9,0.57-6.03c0-0.5-0.04-1.1-0.08-1.6c-0.05-0.61-0.09-1.03-0.16-1.64
		c-0.14-1.19-0.27-2.21-0.44-3.37c0.17-0.06,0.34-0.13,0.52-0.21c0.14-0.06,0.25-0.12,0.38-0.21c0.07-0.05,0.13-0.1,0.19-0.16
		c0.22-0.22,0.25-0.51,0.16-0.8c-0.04-0.12-0.07-0.23-0.12-0.34c-0.08-0.2-0.15-0.37-0.21-0.57l0,0c-0.73-1.98-1.47-3.6-2.47-5.45
		c-1.74-3.2-3.92-6.15-6.52-8.71c-1.25-1.22-2.38-2.17-3.79-3.19c-2.96-2.13-5.76-3.52-9.24-4.59c-1.64-0.51-3.06-0.83-4.76-1.09
		c-1.53-0.23-2.83-0.35-4.37-0.4h-0.02c-2.07,0.06-3.82,0.26-5.86,0.67c-1.76,0.35-3.5,0.85-5.18,1.49
		c-3.23,1.22-6.24,2.97-8.91,5.16c-1.5,1.23-2.68,2.37-3.95,3.82c-2.19,2.49-3.99,5.23-5.47,8.22c-0.69,1.4-1.22,2.61-1.76,4.08l0,0
		c-0.06,0.2-0.11,0.32-0.18,0.5l-0.08,0.21c-0.06,0.14-0.09,0.26-0.11,0.4c-0.03,0.18,0,0.35,0.11,0.5
		c0.06,0.09,0.15,0.18,0.23,0.24c0.17,0.12,0.36,0.22,0.55,0.3c0.18,0.07,0.33,0.13,0.51,0.2h0.02L1.43,25.77z M31.53,0.61
		c1.51,0.05,2.79,0.16,4.29,0.39c1.67,0.26,3.06,0.58,4.68,1.07c3.24,1,6.31,2.52,9.06,4.5c1.39,1,2.5,1.94,3.72,3.13
		c1.35,1.32,2.4,2.53,3.53,4.05c1.12,1.51,1.98,2.86,2.88,4.52c0.99,1.82,1.71,3.42,2.43,5.36c0.07,0.21,0.14,0.39,0.23,0.6
		c0.04,0.09,0.07,0.19,0.1,0.29c0.01,0.04,0.02,0.07,0.02,0.11s0,0.07-0.04,0.1c-0.03,0.03-0.06,0.05-0.09,0.07
		c-0.09,0.06-0.19,0.11-0.29,0.16c-0.24,0.11-0.45,0.19-0.71,0.27h-0.02l-5.26,2.63l0,0c-0.12,0.07-0.23,0.13-0.36,0.18
		c-0.24,0.1-0.53,0.19-0.79,0.15c-0.13-0.02-0.24-0.07-0.34-0.15c-0.12-0.1-0.23-0.21-0.31-0.34c-0.11-0.16-0.19-0.32-0.27-0.49
		c-0.08-0.18-0.15-0.35-0.22-0.54c-0.08-0.21-0.14-0.39-0.2-0.6c-0.69-2.27-1.54-4.1-2.83-6.09c-1.99-3.07-4.65-5.69-7.79-7.58
		c-2.22-1.33-4.64-2.27-7.19-2.73c-1.47-0.27-2.73-0.36-4.22-0.31c-2.33-0.07-4.31,0.19-6.54,0.88c-1.12,0.34-2.2,0.77-3.25,1.29
		c-3.39,1.68-6.32,4.2-8.56,7.24c-1.72,2.32-2.83,4.54-3.68,7.3C9.4,26.41,9.3,26.7,9.17,27.03c-0.07,0.17-0.14,0.32-0.23,0.48l0,0
		c-0.09,0.18-0.19,0.31-0.33,0.46c-0.17,0.18-0.41,0.26-0.66,0.24c-0.16-0.02-0.3-0.05-0.45-0.11c-0.21-0.08-0.3-0.13-0.49-0.23
		l-5.26-2.62H1.73c-0.21-0.08-0.38-0.14-0.58-0.23c-0.1-0.04-0.2-0.09-0.29-0.14c-0.06-0.03-0.17-0.1-0.22-0.17
		c-0.01-0.02-0.02-0.05-0.02-0.08c0.02-0.15,0.1-0.33,0.16-0.47c0.07-0.18,0.13-0.34,0.19-0.52C1.51,22.2,2.02,21,2.7,19.63
		c3.8-7.7,9.9-13.84,18-16.91c1.74-0.66,3.26-1.09,5.08-1.46C27.78,0.86,29.49,0.67,31.53,0.61L31.53,0.61z M53.1,26.61
		C53.1,26.61,53.08,26.55,53.1,26.61c0.03,0.08,0.06,0.17,0.09,0.26c0.07,0.21,0.14,0.38,0.23,0.58c0.09,0.21,0.19,0.38,0.31,0.58
		c0.25,0.38,0.61,0.7,1.08,0.76c0.21,0.03,0.38,0.02,0.59-0.02c0.19-0.04,0.35-0.09,0.53-0.17c0.15-0.06,0.27-0.12,0.41-0.2
		l4.86-2.42c0.16,1.11,0.29,2.06,0.41,3.19c0.07,0.57,0.11,1.05,0.16,1.62c0.04,0.51,0.08,1.04,0.08,1.55
		c0,2.09-0.16,3.86-0.56,5.91c-1.67,8.78-7.11,16.31-14.86,20.65c-2.89,1.62-5.54,2.61-8.78,3.27c-0.16,0.03-0.27,0.19-0.24,0.36
		c0.02,0.09,0.08,0.17,0.16,0.21c0.54,0.27,1.01,0.49,1.58,0.71c2.01,0.81,3.95,1.05,6.09,0.67c0.49-0.09,0.9-0.18,1.39-0.32l0,0
		c0.59-0.17,1.08-0.34,1.65-0.56l-1.96,3.5l5.6,2.21c-0.39,0-0.71,0-1.1,0c-1.06,0-2.35-0.03-3.33-0.08l0,0
		c-1.01-0.05-1.85-0.13-2.85-0.27c-0.9-0.13-1.65-0.29-2.52-0.54c-0.92-0.26-1.67-0.56-2.53-0.98c-0.76-0.38-1.38-0.76-2.07-1.27
		c-0.65-0.48-1.26-1.01-1.82-1.59c-0.53-0.54-0.95-1.02-1.42-1.62l-0.27-0.35l-0.8,1.29c-0.07-0.09-0.18-0.25-0.24-0.34
		c-0.11-0.17-0.22-0.31-0.35-0.47c-0.17-0.21-0.36-0.34-0.61-0.45c-0.2-0.08-0.44-0.12-0.66-0.12c-0.13,0-0.24,0-0.37,0.03
		c-0.39,0.07-0.66,0.31-0.85,0.67c-0.05,0.1-0.1,0.18-0.14,0.29c-0.05,0.11-0.13,0.26-0.19,0.36l-0.79-1.27l-0.27,0.35
		c-0.62,0.81-1.2,1.44-1.95,2.14c-0.69,0.64-1.31,1.13-2.1,1.63c-0.8,0.51-1.51,0.87-2.39,1.22c-0.8,0.32-1.51,0.53-2.35,0.72
		c-0.94,0.21-1.89,0.36-2.85,0.45c-0.92,0.08-1.7,0.13-2.62,0.15c-0.97,0.03-1.8,0.04-2.77,0.04c-0.15,0-0.44,0-0.6,0l5.6-2.21
		l-1.96-3.5c2.71,1.06,5.35,1.47,8.19,0.55c0.48-0.15,0.88-0.31,1.35-0.51c0.42-0.18,0.76-0.34,1.17-0.54
		c0.15-0.08,0.21-0.26,0.14-0.41c-0.04-0.09-0.12-0.14-0.21-0.16c-3.95-0.81-7.16-2.13-10.54-4.34C8.72,53.81,4.72,48.51,2.57,41.51
		c-0.96-3.14-1.38-5.91-1.37-9.19c0-1,0.19-2.46,0.32-3.39c0.14-0.96,0.26-1.77,0.41-2.73c0.17,0.03,0.31,0.04,0.48,0.05h0.01
		l4.27,2.13c0.19,0.11,0.36,0.18,0.56,0.26c0.21,0.08,0.39,0.12,0.61,0.14c0.44,0.05,0.84-0.1,1.15-0.42
		c0.18-0.18,0.31-0.36,0.43-0.59c0.1-0.18,0.18-0.35,0.26-0.54c0.08-0.21,0.16-0.4,0.22-0.6c0.13,0.03,0.25,0.05,0.38,0.09
		c0.12,0.03,0.21,0.07,0.32,0.12c0.07,0.03,0.14,0.08,0.19,0.14c0,0,0,0.02,0,0.03c-0.13,0.49-0.22,0.92-0.3,1.42
		c-0.13,0.89-0.17,1.72-0.19,2.64c0,0.41,0,0.76,0,1.18c0,5.7,1.92,10.56,5.83,14.71c1.86,1.98,3.75,3.37,6.2,4.55
		c2.2,1.06,4.21,1.63,6.64,1.89c0.27,0.06,0.49,0.15,0.73,0.28c0.55,0.3,0.84,0.74,1.15,1.26c0.11,0.19,0.26,0.42,0.4,0.58
		c0.11,0.13,0.3,0.14,0.43,0.03c0.01-0.01,0.02-0.02,0.03-0.03c0.1-0.12,0.19-0.23,0.27-0.36c0.07-0.11,0.13-0.2,0.2-0.32
		c0.33-0.54,0.66-0.95,1.22-1.22c0.2-0.1,0.38-0.16,0.6-0.21c2.96-0.32,5.41-1.11,7.99-2.6c2.35-1.36,4.13-2.88,5.85-4.99
		c3.26-4,4.83-8.41,4.83-13.57c0-1.37,0-2.72-0.23-4.07c-0.07-0.41-0.15-0.76-0.26-1.17c0-0.01,0-0.02,0-0.03
		c0.04-0.05,0.07-0.08,0.12-0.11c0.15-0.09,0.28-0.14,0.45-0.19l0,0c0.1-0.03,0.2-0.06,0.29-0.08l0,0L53.1,26.61z M10.14,26.06
		c0.79-2.52,1.97-4.82,3.53-6.94c1.51-2.06,3.06-3.6,5.13-5.11c1.07-0.78,2.03-1.36,3.22-1.95c2.95-1.46,6.2-2.21,9.51-2.11h0.02
		c2.63-0.08,5.23,0.37,7.7,1.31c2.24,0.86,4.31,2.08,6.17,3.62c1.97,1.63,3.43,3.27,4.81,5.42c1.17,1.81,2.04,3.68,2.69,5.72
		c-0.09,0.02-0.18,0.05-0.28,0.08c-0.22,0.06-0.39,0.14-0.58,0.25c-0.11,0.07-0.22,0.16-0.3,0.26c-0.12,0.15-0.17,0.36-0.12,0.55
		c0.11,0.39,0.18,0.72,0.24,1.12c0.22,1.31,0.23,2.65,0.23,3.97l0,0c0,5.02-1.52,9.3-4.69,13.19c-1.66,2.05-3.39,3.52-5.68,4.84
		c-2.51,1.44-4.89,2.22-7.77,2.52c-0.01,0-0.02,0-0.04,0c-0.27,0.06-0.49,0.14-0.75,0.26c-0.45,0.21-0.84,0.55-1.14,0.95
		c-0.13,0.17-0.23,0.32-0.34,0.51c-0.06,0.1-0.11,0.18-0.18,0.28c-0.04-0.06-0.07-0.11-0.11-0.18c-0.37-0.62-0.73-1.13-1.38-1.48
		c-0.3-0.16-0.57-0.27-0.91-0.34c-0.01,0-0.02,0-0.04,0c-2.36-0.25-4.32-0.81-6.46-1.84c-2.27-1.09-4.3-2.59-6.02-4.42
		c-3.79-4.04-5.66-8.76-5.66-14.3l0,0c0-1.76,0-3.39,0.47-5.09c0.05-0.2,0-0.43-0.14-0.58c-0.11-0.13-0.23-0.22-0.39-0.29
		c-0.14-0.07-0.26-0.11-0.41-0.16c-0.11-0.03-0.24-0.06-0.36-0.09l0,0L10.14,26.06z M8.73,21l0.82,0.21l0.29-0.63l-4.7-1.19
		l-0.3,0.65l3.91,2.93l0.29-0.63l-0.68-0.51l0.37-0.82l0,0L8.73,21z M7.8,20.75l-0.23,0.49l-1.26-0.9l0,0l1.48,0.4l0,0L7.8,20.75z
		 M19.73,10.72c0.4-0.22,0.62-0.73,0.14-1.62c-0.32-0.59-0.68-0.93-1.03-0.83l0,0c0.08-0.28-0.03-0.63-0.23-1.01
		c-0.44-0.81-0.86-0.96-1.24-0.74l-0.8,0.45l2.3,4.24L19.73,10.72L19.73,10.72z M18.47,9.14l0.06-0.03c0.18-0.1,0.43-0.31,0.71,0.2
		c0.25,0.47-0.04,0.61-0.2,0.7l-0.07,0.04l-0.49-0.91l0,0H18.47z M17.58,7.5l0.04-0.02c0.15-0.09,0.34-0.16,0.55,0.23
		c0.2,0.36,0.07,0.5-0.08,0.58l-0.06,0.04l-0.45-0.82l0,0V7.5z M41.13,7.43c0.37,0,0.74-0.47,0.97-1.1c0.35-0.97,0.15-1.53-0.31-1.7
		l-0.9-0.33l-1.62,4.56l0.6,0.22l0.63-1.75l0,0L40.44,9.3l0.75,0.28l-0.06-2.14l0,0L41.13,7.43z M41.17,5.43l0.06,0.02
		c0.2,0.07,0.39,0.23,0.22,0.72c-0.18,0.5-0.42,0.49-0.62,0.41l-0.06-0.02l0.41-1.14l0,0L41.17,5.43z M43.55,10.76
		c0.39,0.22,0.94,0.15,1.42-0.74c0.32-0.59,0.41-1.08,0.15-1.33l0,0c0.27-0.09,0.5-0.36,0.71-0.74c0.44-0.81,0.34-1.25-0.04-1.46
		l-0.8-0.45l-2.3,4.24l0.86,0.49l0,0V10.76z M44.2,8.83l0.06,0.03c0.18,0.1,0.49,0.21,0.21,0.72c-0.25,0.47-0.52,0.29-0.69,0.2
		l-0.07-0.04L44.2,8.83C44.2,8.83,44.2,8.83,44.2,8.83z M45.09,7.19l0.04,0.02c0.15,0.09,0.31,0.21,0.1,0.59
		c-0.2,0.36-0.38,0.32-0.53,0.24L44.64,8l0.45-0.82l0,0V7.19z M49.24,15.09l0.62,0.68c0.47,0.51,1.62,0.21,2.59-0.72
		c0.98-0.93,1.35-2.08,0.88-2.59l-0.62-0.68l-3.48,3.31l0,0H49.24z M52.39,12.99l0.1,0.11c0.28,0.31,0.13,0.86-0.49,1.45
		c-0.68,0.64-1.2,0.68-1.46,0.4l-0.1-0.11l1.94-1.85l0,0L52.39,12.99z M58.84,21.7c0.13-0.3,0.15-0.65,0.06-0.88
		c-0.19-0.46-0.91-0.55-1.8-0.16c-0.85,0.37-0.93,0.7-0.97,1.16c-0.02,0.16-0.03,0.44-0.35,0.58c-0.31,0.13-0.5,0.04-0.56-0.1
		c-0.09-0.21,0.04-0.47,0.23-0.73l-1.02,0.14c-0.21,0.37-0.28,0.74-0.16,1.03c0.1,0.23,0.32,0.42,0.69,0.48s0.84-0.08,1.28-0.27
		c0.71-0.31,0.91-0.69,0.96-1.09l0.02-0.19c0.02-0.13,0.05-0.34,0.31-0.45c0.24-0.11,0.43-0.01,0.47,0.1c0.06,0.15,0,0.34-0.12,0.53
		l0.98-0.14l0,0L58.84,21.7z M57.07,19.7l0.92-0.5l-0.66-1.26l-4.2,2.28l0.66,1.26l0.92-0.5l-0.36-0.69l0.73-0.4l0.34,0.65l0.92-0.5
		L56,19.39l0.7-0.38l0.36,0.69l0,0L57.07,19.7z M54.01,17.31l-1.89,1.3l0.36,0.54l1.89-1.3l2.56-0.64l-0.43-0.65l-1.33,0.35
		l0.81-1.13l-0.43-0.65L54.01,17.31C54.01,17.31,54.01,17.31,54.01,17.31z M56.2,13.31c-0.11-0.14-0.42-0.09-0.69,0.13
		s-0.4,0.5-0.29,0.65c0.11,0.14,0.41,0.09,0.68-0.13c0.27-0.21,0.4-0.5,0.29-0.65l0,0H56.2z M55.14,14.62l-0.39-0.52l-3.74,2.98
		l0.39,0.52L55.14,14.62L55.14,14.62z M51.32,11.88l0.7-0.79l-1.04-0.96l-3.18,3.6l1.04,0.96l0.7-0.79l-0.57-0.52l0.55-0.63
		l0.54,0.49l0.7-0.79l-0.54-0.49l0.53-0.6L51.32,11.88L51.32,11.88z M49.83,9.17l-0.51-0.4l-2.93,3.82l1.11,0.89l0.64-0.84
		l-0.61-0.48l2.28-2.98l0,0L49.83,9.17z M47.96,9.07l0.57-0.9l-1.18-0.78l-2.59,4.07l1.18,0.78l0.57-0.9l-0.64-0.42l0.45-0.71
		l0.61,0.4l0.57-0.9l-0.61-0.4l0.43-0.67l0.64,0.42l0,0V9.07z M40.05,2.27c-0.17-0.05-0.38,0.19-0.47,0.52
		c-0.09,0.34-0.02,0.65,0.15,0.69c0.17,0.05,0.38-0.18,0.47-0.52S40.22,2.31,40.05,2.27L40.05,2.27z M39.94,3.99l-0.62-0.17
		L38.09,8.5l0.62,0.17L39.94,3.99C39.94,3.99,39.94,3.99,39.94,3.99z M36.54,5.1l0.35-1.84l-0.63-0.12L35.35,7.9l0.63,0.12
		l0.37-1.95l0.91,0.18L36.89,8.2l0.63,0.12l0.91-4.76L37.8,3.43l-0.35,1.84l-0.91-0.18l0,0V5.1z M35.18,4.08l0.11-1.06l-1.4-0.15
		l-0.5,4.82l1.4,0.15l0.11-1.06L34.14,6.7l0.09-0.84l0.72,0.08l0.11-1.06L34.34,4.8L34.42,4L35.18,4.08
		C35.18,4.08,35.18,4.08,35.18,4.08z M32.28,8.3l-0.32-0.42l-0.44,1.01l0.25,0.32L32.28,8.3L32.28,8.3z M32.9,3.08
		c-0.22-0.25-0.52-0.41-0.77-0.41c-0.49,0-0.86,0.63-0.88,1.61c-0.02,0.94,0.25,1.15,0.64,1.38c0.14,0.08,0.39,0.21,0.38,0.56
		c0,0.34-0.17,0.49-0.32,0.48c-0.22,0-0.4-0.23-0.56-0.51L31.1,7.2c0.25,0.35,0.55,0.56,0.86,0.57c0.25,0,0.51-0.13,0.71-0.44
		c0.2-0.32,0.27-0.82,0.28-1.3c0.01-0.78-0.25-1.13-0.59-1.34l-0.16-0.1c-0.11-0.07-0.28-0.19-0.28-0.47c0-0.27,0.16-0.4,0.28-0.4
		c0.16,0,0.31,0.13,0.42,0.33l0.27-0.97l0,0L32.9,3.08z M29.02,4.9L29.02,4.9l-0.14-1.99l-0.64,0.05l0.33,4.84l0.64-0.05l-0.14-2.1
		l0,0l0.97,2.04l0.83-0.06l-1.24-2.47l0.82-2.36l-0.79,0.06l-0.64,2.05l0,0V4.9z M26.46,3.24l0.48,2.51
		c0.12,0.62,0.22,1.3-0.18,1.38s-0.56-0.59-0.67-1.21l-0.48-2.51l-0.63,0.12l0.51,2.68c0.12,0.61,0.24,1.22,0.57,1.63
		c0.28,0.35,0.62,0.43,0.9,0.37c0.28-0.06,0.57-0.26,0.7-0.69c0.15-0.51,0.05-1.12-0.07-1.73l-0.51-2.68l-0.63,0.13l0,0H26.46z
		 M26.1,1.61c-0.18,0.04-0.27,0.34-0.2,0.68c0.07,0.35,0.26,0.59,0.44,0.56c0.17-0.03,0.26-0.33,0.2-0.68
		c-0.06-0.34-0.26-0.59-0.43-0.56l0,0L26.1,1.61z M25.28,1.77c-0.18,0.03-0.26,0.34-0.2,0.68c0.07,0.35,0.26,0.59,0.44,0.56
		c0.17-0.03,0.26-0.33,0.2-0.68c-0.06-0.34-0.26-0.59-0.43-0.56l0,0H25.28z M23.4,6.61l0.71,2.21l0.61-0.2l-0.7-2.21l0.1-2.68
		l-0.73,0.24l-0.04,1.4l-0.84-1.11L21.78,4.5l1.63,2.11l0,0H23.4z M20.58,4.96l0.94,2.37c0.23,0.58,0.46,1.23,0.08,1.39
		s-0.66-0.47-0.89-1.06l-0.94-2.37l-0.59,0.25l1,2.53c0.23,0.58,0.47,1.15,0.87,1.49c0.34,0.29,0.69,0.3,0.96,0.19
		c0.27-0.11,0.52-0.36,0.56-0.81c0.06-0.53-0.16-1.11-0.39-1.68l-1-2.53l-0.59,0.25l0,0L20.58,4.96z M19.89,3.46
		c-0.17,0.07-0.2,0.39-0.07,0.71c0.13,0.33,0.36,0.53,0.53,0.46c0.16-0.07,0.2-0.38,0.07-0.71C20.29,3.6,20.06,3.39,19.89,3.46
		L19.89,3.46z M19.11,3.78c-0.17,0.07-0.2,0.39-0.07,0.71c0.13,0.33,0.36,0.53,0.53,0.46c0.16-0.07,0.2-0.38,0.07-0.71
		C19.51,3.92,19.28,3.71,19.11,3.78C19.11,3.78,19.11,3.78,19.11,3.78z M15.35,13.78l0.51-0.4l-1.79-2.34l0,0l2.72,1.6l0.51-0.4
		l-2.93-3.82l-0.51,0.4l1.79,2.34l0,0l-2.71-1.59l-0.51,0.4l2.93,3.82l0,0L15.35,13.78z M11.1,11.2l1.77,1.8
		c0.44,0.45,0.9,0.95,0.61,1.25s-0.78-0.17-1.22-0.62l-1.77-1.8l-0.45,0.46l1.89,1.93c0.43,0.44,0.87,0.87,1.37,1.02
		c0.42,0.13,0.75,0,0.95-0.21s0.33-0.54,0.2-0.97c-0.15-0.51-0.57-0.95-1-1.4l-1.89-1.93l-0.45,0.46l0,0L11.1,11.2z M9.45,13.31
		c-0.32,0.03-0.63,0.18-0.78,0.38c-0.3,0.4-0.03,1.08,0.73,1.69c0.72,0.58,1.05,0.49,1.47,0.31c0.14-0.06,0.39-0.19,0.67,0.03
		c0.26,0.21,0.28,0.43,0.19,0.55c-0.13,0.18-0.43,0.19-0.74,0.15l0.62,0.85c0.42,0.01,0.77-0.11,0.96-0.36
		c0.15-0.2,0.21-0.49,0.08-0.84c-0.13-0.36-0.48-0.71-0.85-1.01c-0.61-0.48-1.03-0.48-1.4-0.33l-0.18,0.07
		c-0.12,0.05-0.31,0.12-0.53-0.06c-0.21-0.17-0.22-0.38-0.14-0.47c0.1-0.13,0.29-0.17,0.51-0.14l-0.6-0.81l0,0L9.45,13.31z
		 M9.96,20.37l0.36-0.54L8.17,18.1l0,0l2.58,1.08l0.14-0.22L8.95,16.9l0,0l2.37,1.4l0.36-0.54l-4.15-2.4L7.17,15.9l1.81,1.9
		l-2.39-1.03L6.24,17.3l3.71,3.07l0,0H9.96z M4.39,21.71c-0.3,0.13-0.55,0.37-0.63,0.6c-0.17,0.47,0.3,1.04,1.21,1.37
		c0.86,0.32,1.14,0.14,1.49-0.17c0.12-0.11,0.32-0.31,0.64-0.18c0.31,0.12,0.39,0.32,0.34,0.47c-0.08,0.21-0.35,0.32-0.66,0.37
		l0.84,0.61c0.41-0.12,0.7-0.34,0.81-0.64c0.08-0.24,0.05-0.53-0.18-0.83c-0.23-0.3-0.67-0.53-1.11-0.69
		c-0.72-0.27-1.13-0.13-1.43,0.13l-0.15,0.12c-0.1,0.08-0.26,0.21-0.52,0.11c-0.25-0.09-0.32-0.29-0.28-0.4
		c0.05-0.15,0.22-0.25,0.44-0.3L4.39,21.7l0,0V21.71z M37.29,34.88c0.94-0.55,1.04-1,1.56-1.84c0.87,0.55,1,0.94,1.14,1.94
		c-0.49,0.73-0.69,1.47-0.87,2.22c-0.28,1.14-1.43,1.05-1.66,1.11c-0.35,0.1-0.13,0.43-0.35,0.55c-0.19,0.11-0.35,0-0.55,0.07
		c-0.17,0.06-0.25,0.15-0.42,0.21c-0.6,0.22-0.59-0.03-1.63-0.07c0-0.38,0.49-0.09,0.8-0.17c0.23-0.06-0.09,0.41,0.59-0.17
		c0.73-0.62,1.56-1.09,1.94-1.32c0.45-0.28,0.49-0.71,0.14-1.18C37.56,35.68,37.55,35.4,37.29,34.88
		C37.29,34.88,37.29,34.88,37.29,34.88z M35,38.07c-1.11-0.24-1.25,0.31-1.56,0.83c-0.62-0.14-0.76-0.02-1.25,0
		c-0.57,0.02-0.8,0-1.45,0.1c-0.1-0.45,0.75-0.24,1.21-0.38c0.83-0.48,1.73-0.81,2.11-0.94c0.73-0.24,0.66-0.48,0.69-0.83
		c0.04-0.44,0.1-0.75,0.31-1.11c0.35-0.55,0.53-0.17,1,0.48c0.69,0.94,0.24,0.97-1.07,1.84l0,0L35,38.07z M33.19,25.36
		c0.07,0.08,0.11,0.15,0.15,0.25c0.02,0.04,0.02,0.1,0,0.14c-0.01,0.05-0.06,0.1-0.1,0.12c-0.19,0.09-0.35,0.14-0.56,0.17
		c-0.13,0.02-0.27,0.03-0.4,0s-0.19-0.1-0.22-0.22c-0.02-0.06-0.03-0.1-0.04-0.16c-0.02-0.13-0.05-0.27-0.09-0.4
		c-0.06-0.18-0.12-0.34-0.17-0.52c-0.05-0.15-0.08-0.25-0.13-0.4c-0.12-0.34-0.28-0.62-0.51-0.9c-0.26-0.31-0.53-0.58-0.86-0.8
		c-0.18-0.12-0.35-0.2-0.55-0.27c-0.22-0.08-0.42-0.12-0.65-0.16c-0.09-0.01-0.19-0.02-0.29,0c-0.12,0.01-0.21,0.03-0.33,0.05
		c-0.2,0.04-0.43,0.08-0.63,0c-0.16-0.06-0.3-0.11-0.47-0.17c-0.07-0.02-0.14-0.04-0.21-0.05c-0.06,0-0.12,0.01-0.18,0.03
		c0.01,0.09,0.04,0.24,0.13,0.31c0,0,0.1,0.07,0.11,0.08c0.04,0.03,0.06,0.09,0.03,0.14c-0.03,0.05-0.07,0.09-0.12,0.13
		c-0.05,0.04-0.09,0.07-0.14,0.1l0,0c-0.06,0.03-0.11,0.06-0.17,0.09c-0.04,0.02-0.15,0.1-0.1,0.16c0.01,0.02,0.03,0.03,0.04,0.04
		c0.04,0.03,0.08,0.05,0.13,0.06c0.21,0.07,0.22,0.26,0.16,0.45c-0.05,0.17-0.15,0.4-0.23,0.57c-0.08,0.16-0.14,0.3-0.21,0.47
		c-0.09,0.21-0.15,0.48-0.03,0.69c0.05,0.08,0.11,0.14,0.21,0.18c0.06,0.02,0.11,0.04,0.17,0.07l0,0c0,0,0.06,0.04,0.08,0.07
		l0.07,0.08c0,0,0.04,0.04,0.07,0.05c0.03,0,0.07,0,0.1-0.02c0.09-0.05,0.16-0.1,0.24-0.17c0,0,0.01,0,0.02,0s0.02,0.01,0.02,0.03
		c0,0.05-0.02,0.11-0.04,0.15c-0.02,0.06-0.03,0.12-0.01,0.19c0,0.02,0.03,0.03,0.05,0.03c0.05,0,0.08-0.02,0.12-0.03
		c0.07-0.03,0.22-0.08,0.27,0.03c0.04,0.09,0,0.24-0.02,0.33c-0.04,0.2-0.1,0.36-0.18,0.55c-0.03,0.08-0.08,0.15-0.12,0.22
		c-0.05,0.08-0.11,0.15-0.18,0.21c-0.15,0.13-0.24,0.23-0.33,0.41c-0.04,0.08-0.08,0.15-0.13,0.22c0,0-0.01,0.01-0.02,0.01
		c-0.2-0.01-0.38-0.03-0.58-0.07c-0.22-0.04-0.41-0.08-0.63-0.13s-0.44-0.09-0.67-0.1c-0.24-0.02-0.5,0.01-0.7,0.15
		c-0.26,0.17-0.5,0.4-0.69,0.65c-0.11,0.14-0.2,0.27-0.29,0.42c-0.1,0.16-0.19,0.3-0.29,0.47c-0.14,0.24-0.23,0.33-0.43,0.56
		c-0.08,0.09-0.15,0.2-0.19,0.31c-0.06,0.13-0.1,0.25-0.14,0.39c-0.02,0.08-0.07,0.18-0.11,0.25c-0.05,0.08-0.12,0.18-0.18,0.25
		c-0.11,0.13-0.19,0.25-0.26,0.4c-0.07,0.16-0.11,0.31-0.14,0.49c0.03,0.08,0.09,0.13,0.16,0.17c0.21,0.12,0.51,0.18,0.76,0.19
		c0.09,0,0.14,0,0.23-0.01c0.05,0,0.08-0.03,0.11-0.07c0.03-0.05,0.04-0.11,0.04-0.17c0-0.07,0.01-0.14,0.02-0.21
		c0.02-0.18,0.13-0.32,0.29-0.39l0,0c0,0,0.09-0.03,0.13-0.04c0.05-0.01,0.1-0.02,0.15-0.04c0.02,0,0-0.09-0.01-0.12l-0.05-0.15
		c-0.02-0.05-0.03-0.12-0.02-0.18c0-0.14,0.23-0.3,0.33-0.36c0.14-0.09,0.27-0.16,0.42-0.24c0.3-0.15,0.57-0.26,0.89-0.38
		c0.17-0.06,0.39-0.08,0.57-0.08c0.21,0,0.41,0.03,0.62,0.07c0.47,0.1,0.86,0.22,1.29,0.41c0.08,0.04,0.28,0.13,0.39,0.07
		c0.06-0.04,0.13-0.05,0.21-0.02c0.13,0.03,0.24,0.07,0.36,0.13l0,0c0.12,0.06,0.24,0.15,0.34,0.24l0.21,0.2
		c0.08,0.08,0.16,0.15,0.24,0.22c0.17,0.12,0.4,0.2,0.61,0.25c0.01,0,0.02,0.01,0.02,0.03c0,0.05,0,0.15,0,0.21
		c0,0.04,0,0.07-0.01,0.11c-0.02,0.07-0.1,0.11-0.17,0.1c-0.03,0-0.06-0.03-0.09-0.05c-0.04-0.04-0.09-0.07-0.15-0.08
		c-0.08,0-0.12-0.02-0.22-0.04c-0.07-0.01-0.13,0.03-0.16,0.09c-0.02,0.05-0.04,0.09-0.05,0.14c-0.01,0.05,0.06,0.14,0.1,0.18
		c0.16,0.16,0.33,0.27,0.52,0.38c0.22,0.12,0.44,0.18,0.68,0.22v0.26l0.68,0.17l0.44-0.5c0.18,0.08,0.34,0.15,0.53,0.22
		c0.59,0.23,1.13,0.37,1.75,0.37l0,0c0,0,0.02,0.02,0.02,0.03c-0.07,0.39-0.14,0.72-0.24,1.11c-0.14,0.55-0.22,1.13-0.25,1.69
		c0,0.2-0.03,0.4-0.1,0.59c-0.13,0.37-0.4,0.4-0.73,0.5c-0.08,0.02-0.14,0.04-0.22,0.08c-0.21,0.09-0.39,0.16-0.61,0.24
		c-0.24,0.09-0.44,0.16-0.68,0.24c-0.27,0.09-0.49,0.17-0.75,0.27c-0.23,0.09-0.64,0.27-0.79,0.52c-0.03,0.06-0.06,0.1-0.11,0.15
		c-0.05,0.05-0.12,0.1-0.19,0.12c-0.08,0.02-0.16,0.01-0.24-0.01c-0.08-0.02-0.14-0.03-0.22-0.04c-0.06,0-0.12-0.02-0.18-0.03
		c-0.16-0.03-0.29-0.05-0.45-0.07c-0.33-0.04-0.7-0.04-1.01,0.09c-0.24,0.1-0.4,0.33-0.44,0.58c-0.02,0.19,0.03,0.4,0.08,0.58
		c0.05,0.16,0.07,0.3,0.09,0.46h11.55c-0.15-0.29-0.25-0.37-0.56-0.51c0,0-0.01,0-0.01-0.02c0-0.01,0-0.03,0.02-0.03
		c0.96-0.2,1.59-0.38,2.1-1.2c0.16-0.26,0.38-0.5,0.59-0.72c0.18-0.19,0.35-0.41,0.48-0.64c0.14-0.26,0.24-0.53,0.31-0.81
		c0.09-0.34,0.15-0.62,0.21-0.96c0.04-0.21,0.08-0.38,0.12-0.58c0.04-0.17,0.11-0.45,0.24-0.59c0.03-0.03,0.06-0.06,0.1-0.07
		c0.06-0.02,0.1-0.05,0.14-0.1c0.12-0.17,0.1-0.49,0.12-0.67c0.02-0.15,0.03-0.27,0.06-0.41c0.02-0.14,0.04-0.3,0-0.45
		c-0.07-0.28-0.34-0.46-0.6-0.57l0,0c-0.22-0.11-0.41-0.2-0.64-0.3c-0.25-0.11-0.49-0.21-0.75-0.28c-0.26-0.07-0.49-0.1-0.75-0.1
		c-0.29,0-0.54,0.03-0.83,0.08c-0.01,0-0.02,0-0.03-0.01c-0.22-0.43-0.45-0.77-0.77-1.13c-0.21-0.24-0.41-0.42-0.67-0.61
		c-0.42-0.31-0.9-0.54-1.41-0.66l-0.12-0.03l-0.06-0.02l0,0c0,0-0.09-0.04-0.14-0.05c-0.08-0.02-0.22-0.07-0.18-0.18
		c0.01-0.05,0.04-0.08,0.07-0.12c0.09-0.1,0.15-0.2,0.21-0.32c0.14-0.26,0.19-0.55,0.15-0.84c-0.02-0.17-0.05-0.31-0.09-0.48l0,0
		c0,0,0.01-0.03,0.02-0.03c0.11,0,0.21-0.02,0.32-0.04c0.05-0.01,0.08-0.03,0.12-0.06c0.06-0.06,0.11-0.17,0.14-0.25
		c0.12-0.26,0.24-0.49,0.4-0.73c0.15-0.22,0.26-0.42,0.37-0.66c0.18-0.4,0.25-0.81,0.08-1.22c-0.11-0.25-0.3-0.52-0.49-0.74
		c-0.11-0.13-0.21-0.24-0.32-0.37v-0.02c0.02-0.05,0.04-0.1,0.08-0.15c0.04-0.06,0.07-0.12,0.08-0.2c0.02-0.09,0.05-0.16,0.09-0.23
		c0.05-0.1,0.12-0.17,0.21-0.23l0.07-0.05c0,0,0.05-0.04,0.07-0.07v-0.02c0-0.01,0-0.02-0.02-0.03l-0.07-0.08
		c-0.2-0.13-0.38-0.24-0.59-0.35c-0.38-0.21-0.7-0.38-1.09-0.58c-0.08-0.04-0.22-0.1-0.31-0.03c-0.05,0.03-0.07,0.11-0.07,0.17
		c0,0.08,0,0.15,0.03,0.22l0.02,0.07v0.04v0.02c0,0.02-0.02,0.05-0.04,0.06l-0.14,0.05l-0.07,0.03c0,0-0.05,0.02-0.07,0.04
		c-0.05,0.05-0.05,0.15-0.07,0.22c-0.02,0.08,0.04,0.14,0.1,0.17c0.06,0.03,0.08,0.07,0.04,0.14c-0.05,0.09-0.09,0.16-0.13,0.25
		c-0.01,0.03-0.02,0.06-0.03,0.1c0,0.06,0.05,0.09,0.09,0.12c0.09,0.06,0.12,0.11,0.1,0.22c0,0.03,0,0.06,0,0.09
		s0.01,0.05,0.03,0.07l0.06,0.05l0.2,0.17c-0.17-0.02-0.33-0.03-0.5-0.04c-0.16,0-0.29,0.03-0.43,0.1
		c-0.15,0.07-0.36,0.11-0.53,0.13l-0.35,0.06c-0.13,0.02-0.24,0.05-0.37,0.09c-0.2,0.06-0.39,0.14-0.57,0.25
		c-0.09,0.06-0.16,0.12-0.22,0.21c-0.07,0.09-0.09,0.19-0.08,0.3c0.04,0.34,0.23,0.45,0.53,0.59c0.35,0.16,0.59,0.28,0.82,0.55l0,0
		L33.19,25.36z M8.13,40.78l0.76,0.49l-0.05-1.34l-0.71,0.86l0,0V40.78z M7.8,40.47l1.81-2.14L9.45,36.7l-1.74,3.01l0.09,0.77l0,0
		V40.47z M7.54,38.75l1.75-3.37l-0.56-1.12l-1.52,2.93l0.33,1.55l0,0L7.54,38.75z M7.01,36.31l1.45-2.87l-0.58-0.76l-1.21,2.06
		L7,36.31l0,0L7.01,36.31z M6.39,33.94l0.99-1.82l-0.56-0.74l-0.81,0.98L6.39,33.94C6.39,33.94,6.39,33.94,6.39,33.94z M5.84,31.48
		l0.39-0.7l-0.86-0.66l0.48,1.36l0,0H5.84z M5.46,32.54L4.7,30.09l-0.53,1.15l1.3,1.3l0,0H5.46z M5.66,33.83l-1.95-1.54l-0.36,1.2
		l2.64,2.36L5.66,33.83L5.66,33.83z M6.42,38.2l-0.24-1.64l-2.95-2.13l0.09,1.76L6.42,38.2C6.42,38.2,6.42,38.2,6.42,38.2z
		 M6.74,39.1l-3.32-1.88l0.16,0.92l3.32,1.87l-0.16-0.9l0,0L6.74,39.1z M6.92,40.76l-2.68-1.47l0.97,1.58L6.92,40.76L6.92,40.76z
		 M13.34,49.19l-3.32,0.74l0.92,0.43l2.81-0.65l-0.42-0.52l0,0H13.34z M14.23,48.93h0.83l-0.58-1.38L14.23,48.93L14.23,48.93z
		 M13.66,48.45L14,45.62l-1.02-1.27l0.19,3.5L13.66,48.45C13.66,48.45,13.66,48.45,13.66,48.45z M12.51,47.17l-0.37-3.84l-1.07-0.58
		l0.34,3.31l1.1,1.1l0,0L12.51,47.17z M10.75,45.47l-0.34-3.24l-0.88-0.29l0.1,2.4l1.12,1.14l0,0V45.47z M8.95,43.83l-0.14-2.09
		l-0.89-0.29L7.8,42.73L8.95,43.83C8.95,43.83,8.95,43.83,8.95,43.83z M7.17,42.11L7.1,41.3l-1.05-0.06L7.17,42.11
		C7.17,42.11,7.17,42.11,7.17,42.11z M7.45,43.18l-1.97-1.57l0.18,1.26L7.45,43.18L7.45,43.18z M8.31,44.15l-2.44-0.14l0.35,1.2
		l3.46,0.44L8.31,44.15L8.31,44.15z M11.32,47.34l-1.09-1.21l-3.61-0.09l1.02,1.44L11.32,47.34L11.32,47.34z M12.08,47.91
		l-3.77,0.33l0.64,0.7l3.76-0.38l-0.63-0.64l0,0L12.08,47.91z M22.05,54.42l-2.78,2.17l1-0.09l2.28-1.56L22.05,54.42
		C22.05,54.42,22.05,54.42,22.05,54.42z M22.13,53.63l1.56,0.31l-2.01-1.64L22.13,53.63C22.13,53.63,22.13,53.63,22.13,53.63z
		 M21.41,53.53l-1.09-2.65l-1.49-0.54l1.86,2.92l0.73,0.28l0,0L21.41,53.53z M19.77,52.99L18,50l-1.38-0.18l1.66,2.8L19.76,53l0,0
		L19.77,52.99z M17.42,52.43l-1.59-2.52L14.66,50l1.26,2.02L17.42,52.43L17.42,52.43z M15.07,51.95l-1.12-1.73l-0.91,0.22l0.5,1.17
		l1.54,0.34l0,0H15.07z M12.71,51.4l-0.47-0.68l-0.73,0.25L12.71,51.4L12.71,51.4z M13.44,52.17l-2.46-0.35l0.76,1l1.7-0.66l0,0
		V52.17z M14.53,52.28l-2.22,1.12l0.89,0.86l3.22-1.41L14.53,52.28C14.53,52.28,14.53,52.28,14.53,52.28z M18.65,53.72l-1.52-0.5
		l-3.17,1.8l1.59,0.69L18.65,53.72C18.65,53.72,18.65,53.72,18.65,53.72z M19.89,53.98l-3.27,2.13l1.51,0.38l3.2-2.27l-1.45-0.23
		l0,0L19.89,53.98z M22.77,56.93l-1.73-0.44l0.61,1.07l1.12-0.62l0,0L22.77,56.93z M23.49,56.56l-0.59-1.14l-1.01,0.68L23.49,56.56
		L23.49,56.56z M24.39,56.75l1.91,0.69l-1.42-3.01l-1.36,0.6l0.86,1.71l0,0L24.39,56.75z M27.24,57.81l1.54,0.45l-1.86-4.03
		l-1.25,0.14L27.24,57.81C27.24,57.81,27.24,57.81,27.24,57.81z M27.94,54.76l1.57,3.81l1.26,0.29l-1.69-3.99L27.94,54.76
		L27.94,54.76z M30.54,59.68l-0.87-0.16L27,61.13l1.74,0.38l1.81-1.83l0,0H30.54z M26.06,60.94l2.87-1.65l-1.19-0.42l-2.81,1.45
		l1.13,0.61l0,0L26.06,60.94z M24.44,59.88l2.75-1.27l-1.69-0.48l-2.11,1.02l1.04,0.74l0,0L24.44,59.88z M23.02,58.78l1.93-0.96
		l-1.39-0.52l-1.48,0.57L23.02,58.78C23.02,58.78,23.02,58.78,23.02,58.78z M40.41,56.92l1.12,0.62l0.61-1.07l-1.73,0.44l0,0V56.92z
		 M39.69,56.55l1.6-0.46l-1.01-0.68L39.69,56.55L39.69,56.55z M38.79,56.74l0.87-1.71l-1.36-0.6l-1.42,3.01l1.91-0.69l0,0V56.74z
		 M35.94,57.8l1.57-3.44l-1.25-0.14l-1.86,4.03L35.94,57.8L35.94,57.8z M35.24,54.75l-1.14,0.11l-1.69,3.99l1.26-0.29L35.24,54.75
		L35.24,54.75z M37.12,60.93l1.13-0.61l-2.81-1.45l-1.19,0.42l2.87,1.65l0,0V60.93z M38.74,59.87l1.04-0.74l-2.11-1.02l-1.69,0.48
		l2.75,1.27l0,0L38.74,59.87z M40.16,58.77l0.94-0.91l-1.48-0.57l-1.39,0.52L40.16,58.77L40.16,58.77z M41.14,54.42l-0.5,0.52
		l2.28,1.56l1,0.09L41.14,54.42C41.14,54.42,41.14,54.42,41.14,54.42z M41.06,53.63l0.45-1.33l-2,1.64l1.56-0.31l0,0L41.06,53.63z
		 M41.78,53.53l0.73-0.28l1.86-2.92l-1.49,0.54l-1.09,2.65l0,0L41.78,53.53z M43.42,52.99l1.48-0.38l1.66-2.8l-1.38,0.18l-1.77,2.99
		l0,0L43.42,52.99z M45.77,52.43l1.5-0.41L48.53,50l-1.17-0.09L45.77,52.43L45.77,52.43z M48.12,51.95l1.54-0.34l0.5-1.17
		l-0.91-0.22l-1.12,1.73l0,0H48.12z M50.48,51.4l1.2-0.43l-0.73-0.25L50.48,51.4L50.48,51.4z M49.75,52.17l1.7,0.66l0.76-1
		l-2.46,0.35l0,0V52.17z M48.66,52.28l-1.89,0.57l3.22,1.41l0.89-0.86L48.66,52.28L48.66,52.28z M44.54,53.72l3.1,1.99l1.59-0.69
		l-3.17-1.8L44.54,53.72C44.54,53.72,44.54,53.72,44.54,53.72z M43.3,53.98l-1.45,0.23l3.2,2.27l1.51-0.38l-3.27-2.13l0,0
		L43.3,53.98z M49.83,49.21l-0.42,0.52l2.81,0.65l0.92-0.43L49.83,49.21L49.83,49.21z M48.94,48.95l-0.25-1.38l-0.58,1.38H48.94z
		 M49.51,48.47l0.49-0.6l0.19-3.5l-1.02,1.27L49.51,48.47L49.51,48.47z M50.66,47.19l1.1-1.1l0.34-3.31l-1.07,0.58l-0.37,3.84l0,0
		V47.19z M51.87,47.35l3.68,0.14l1.02-1.44l-3.61,0.09L51.87,47.35L51.87,47.35z M51.11,47.92l-0.63,0.64l3.76,0.38l0.64-0.7
		l-3.77-0.33l0,0L51.11,47.92z M30.44,16.21l-0.91-1.95l-0.29,1.78l-1.27-2.72l-0.17,3.3l-1.07-1.07v1.19l-2.57-4.11l-0.43,0.17
		l1.01,4.68l-1.18-1.31l0.15,1.79l-1.98-2.1l-0.38,0.24l1.22,3.16L20.9,18l0.44,1.5l-3.51-2.61l-0.34,0.32l2.61,3.9l-1.88-0.72
		l0.94,1.5l-1.98-0.99l-0.28,0.36l1.78,2.01l-1.6-0.4l0.93,1.4l-5.44-0.84l4.19,2.63l-1.67-0.13l1.85,1.53h-3.07l2.7,1.35
		l-1.37,0.28l1.87,1.15l-5.32,0.83l4.17,1.07l-2.13,0.46l2.78,0.65l-2.71,0.95l0.07,0.45l2.71,0.12l-1.37,0.83l2.15,0.28l-3,1.62
		l0.14,0.44l2.91-0.35l-1.71,1.55l2.45-0.46l-1.97,1.97l2.73-0.64l-1.36,1.87l1.7-0.77l-1.05,1.57l3.03-0.76H41.9l3.03,0.76
		l-1.05-1.57l1.7,0.77l-1.36-1.87l2.73,0.64l-1.97-1.97l2.45,0.46l-1.71-1.55l2.91,0.35l0.14-0.44l-3-1.62l2.16-0.28l-1.38-0.83
		l2.72-0.11l0.07-0.45l-2.73-0.95l2.77-0.65l-2.12-0.46l4.15-1.07l-5.3-0.83l1.87-1.15l-1.38-0.28l2.68-1.35h-3.05l1.85-1.53
		l-1.68,0.13l4.17-2.63l-5.42,0.84l0.93-1.4l-1.6,0.4l1.78-2.01l-0.28-0.36l-1.99,0.99l0.96-1.5l-1.89,0.72l2.61-3.9l-0.34-0.32
		l-3.52,2.6l0.45-1.5l-1.68,1.27l1.22-3.16l-0.38-0.24l-1.98,2.1l0.15-1.79l-1.18,1.31l1.01-4.68l-0.43-0.17l-2.57,4.11v-1.19
		l-1.07,1.07l-0.17-3.3l-1.27,2.72l-0.29-1.78l-0.91,1.95l-0.92-4.99h-0.46l-0.91,4.99l0,0L30.44,16.21z M32.65,59.68l0.87-0.16
		l2.67,1.61l-1.74,0.38l-1.81-1.83l0,0H32.65z M32.03,59.62l1.41,1.84l-1.32,0.2l-0.53-1.05l-0.53,1.05l-1.32-0.2l1.41-1.84h0.87
		H32.03z M30.2,55.62l0.68,0.24l0.72,1.52l0.72-1.52L33,55.62L31.65,59h-0.09l-1.35-3.38l0,0H30.2z"/>
	<path style="fill:#FFFFFF;" d="M80.16,38.05c0,0.57-0.12,1.06-0.35,1.47c-0.24,0.41-0.56,0.75-0.98,1.01
		c-0.41,0.26-0.9,0.45-1.45,0.58c-0.55,0.12-1.13,0.19-1.75,0.19h-6.19V28.63h7.31c0.44,0,0.83,0.1,1.19,0.29
		c0.35,0.19,0.66,0.44,0.9,0.74c0.25,0.3,0.44,0.65,0.58,1.04c0.14,0.39,0.2,0.78,0.2,1.19c0,0.6-0.15,1.16-0.45,1.7
		c-0.3,0.54-0.75,0.95-1.36,1.22c0.72,0.21,1.29,0.59,1.71,1.12s0.63,1.24,0.63,2.13l0,0L80.16,38.05z M76.65,37.34
		c0-0.31-0.08-0.57-0.25-0.78s-0.38-0.31-0.64-0.31h-2.85v2.12h2.73c0.28,0,0.52-0.09,0.72-0.27c0.2-0.18,0.29-0.43,0.29-0.77l0,0
		L76.65,37.34z M72.91,31.59v1.95h2.36c0.24,0,0.45-0.07,0.65-0.2c0.2-0.13,0.29-0.39,0.29-0.79c0-0.35-0.08-0.59-0.25-0.74
		s-0.36-0.22-0.59-0.22C75.37,31.59,72.91,31.59,72.91,31.59z"/>
	<path style="fill:#FFFFFF;" d="M87.15,38.32c0.4,0,0.74-0.09,1.03-0.27c0.28-0.18,0.51-0.41,0.69-0.71
		c0.18-0.29,0.31-0.63,0.39-1.01c0.08-0.38,0.12-0.78,0.12-1.2v-6.51h3.46v6.51c0,0.88-0.11,1.7-0.34,2.47
		c-0.22,0.77-0.57,1.43-1.05,1.99c-0.47,0.56-1.07,1-1.78,1.32c-0.72,0.32-1.56,0.48-2.53,0.48s-1.87-0.17-2.58-0.51
		c-0.72-0.34-1.3-0.79-1.76-1.37c-0.46-0.57-0.8-1.23-1.01-1.99c-0.21-0.76-0.32-1.56-0.32-2.4v-6.51h3.46v6.51
		c0,0.42,0.04,0.82,0.12,1.2c0.08,0.39,0.21,0.73,0.39,1.02s0.41,0.52,0.68,0.7c0.28,0.17,0.62,0.26,1.02,0.26l0,0L87.15,38.32z
		 M83.73,27.65v-2.5h2.77v2.5H83.73z M87.81,27.65v-2.5h2.77v2.5H87.81z"/>
	<polygon style="fill:#FFFFFF;" points="97.24,28.63 99.49,34.11 101.8,28.63 105.56,28.63 101.21,37.11 101.21,41.3 97.77,41.3 
		97.77,37.07 93.5,28.63 97.24,28.63 	"/>
	<path style="fill:#FFFFFF;" d="M111.85,38.32c0.4,0,0.74-0.09,1.03-0.27c0.28-0.18,0.51-0.41,0.69-0.71
		c0.18-0.29,0.31-0.63,0.39-1.01c0.08-0.38,0.12-0.78,0.12-1.2v-6.51h3.46v6.51c0,0.88-0.11,1.7-0.34,2.47
		c-0.22,0.77-0.57,1.43-1.05,1.99c-0.47,0.56-1.07,1-1.78,1.32c-0.72,0.32-1.56,0.48-2.53,0.48s-1.87-0.17-2.58-0.51
		c-0.72-0.34-1.3-0.79-1.76-1.37c-0.46-0.57-0.8-1.23-1.01-1.99c-0.21-0.76-0.32-1.56-0.32-2.4v-6.51h3.46v6.51
		c0,0.42,0.04,0.82,0.12,1.2c0.08,0.39,0.21,0.73,0.39,1.02s0.41,0.52,0.68,0.7c0.28,0.17,0.62,0.26,1.02,0.26l0,0L111.85,38.32z
		 M108.43,27.65v-2.5h2.77v2.5H108.43z M112.51,27.65v-2.5h2.77v2.5H112.51z"/>
	<polygon style="fill:#FFFFFF;" points="119.52,41.3 119.52,28.63 122.97,28.63 122.97,33.8 127.16,28.63 130.71,28.63 126.13,34.3 
		131.02,41.3 127.41,41.3 124.09,36.25 122.97,37.53 122.97,41.3 119.52,41.3 	"/>
	<path style="fill:#FFFFFF;" d="M139.16,32.77c-0.35-0.21-0.72-0.4-1.1-0.57c-0.32-0.14-0.68-0.28-1.07-0.4
		c-0.4-0.12-0.78-0.19-1.16-0.19c-0.31,0-0.55,0.05-0.74,0.14c-0.18,0.1-0.27,0.26-0.27,0.48c0,0.17,0.05,0.3,0.16,0.41
		s0.26,0.21,0.46,0.29c0.2,0.09,0.45,0.18,0.74,0.26c0.29,0.08,0.62,0.18,0.98,0.3c0.58,0.18,1.1,0.37,1.57,0.59s0.87,0.47,1.2,0.76
		c0.33,0.29,0.59,0.65,0.76,1.06c0.18,0.42,0.27,0.92,0.27,1.52c0,0.76-0.14,1.4-0.42,1.92c-0.28,0.52-0.64,0.93-1.1,1.24
		c-0.45,0.31-0.97,0.53-1.54,0.67c-0.57,0.14-1.15,0.21-1.73,0.21c-0.46,0-0.93-0.04-1.42-0.11c-0.48-0.07-0.97-0.17-1.45-0.3
		s-0.94-0.29-1.38-0.46c-0.44-0.18-0.85-0.38-1.23-0.61l1.49-3.05c0.41,0.26,0.85,0.49,1.29,0.7c0.38,0.18,0.81,0.34,1.29,0.48
		s0.97,0.21,1.46,0.21c0.38,0,0.64-0.05,0.79-0.15c0.15-0.1,0.22-0.24,0.22-0.4c0-0.18-0.07-0.33-0.22-0.45s-0.35-0.24-0.61-0.33
		c-0.26-0.1-0.56-0.19-0.9-0.29c-0.34-0.1-0.69-0.21-1.07-0.34c-0.56-0.19-1.03-0.4-1.44-0.62c-0.4-0.22-0.73-0.47-0.99-0.75
		c-0.26-0.28-0.45-0.6-0.58-0.95c-0.12-0.36-0.19-0.77-0.19-1.23c0-0.7,0.13-1.32,0.38-1.86s0.6-0.98,1.04-1.34
		c0.44-0.36,0.94-0.63,1.5-0.81s1.16-0.28,1.78-0.28c0.46,0,0.91,0.04,1.35,0.13c0.44,0.09,0.86,0.2,1.27,0.34s0.79,0.29,1.14,0.45
		s0.67,0.31,0.96,0.46L139.16,32.77L139.16,32.77L139.16,32.77z M138.03,41.88v1.87h-3.48v-1.77c0,0,0.09,0.01,0.13,0.02
		c0.49,0.07,0.99,0.11,1.48,0.11c0.62,0,1.23-0.07,1.83-0.22h0.04V41.88z"/>
	<polygon style="fill:#FFFFFF;" points="151.45,38.27 151.45,41.3 142.48,41.3 142.48,28.63 151.3,28.63 151.3,31.66 145.94,31.66 
		145.94,33.45 150.51,33.45 150.51,36.27 145.94,36.27 145.94,38.27 151.45,38.27 	"/>
	<polygon style="fill:#FFFFFF;" points="164.21,28.63 164.21,41.3 160.75,41.3 160.75,36.34 156.53,36.34 156.53,41.3 153.07,41.3 
		153.07,28.63 156.53,28.63 156.53,33.3 160.75,33.3 160.75,28.63 164.21,28.63 	"/>
	<path style="fill:#FFFFFF;" d="M166.37,41.3V28.63h3.46V41.3H166.37z M166.58,27.66v-2.68h3.01v2.68H166.58z"/>
	<path style="fill:#FFFFFF;" d="M171.99,41.3V28.63h5.78c0.62,0,1.18,0.13,1.7,0.38c0.52,0.26,0.97,0.59,1.34,1s0.66,0.88,0.88,1.41
		c0.21,0.53,0.32,1.06,0.32,1.6c0,0.74-0.16,1.43-0.48,2.06c-0.32,0.64-0.76,1.16-1.33,1.56l2.84,4.66h-3.9l-2.39-3.89h-1.29v3.89
		H172H171.99z M175.45,34.37h2.18c0.21,0,0.41-0.12,0.59-0.36s0.28-0.57,0.28-1s-0.11-0.78-0.32-1.01
		c-0.21-0.23-0.43-0.35-0.64-0.35h-2.09v2.71l0,0L175.45,34.37z"/>
	<path style="fill:#FFFFFF;" d="M75.06,52.14c0,0.28-0.06,0.53-0.18,0.75s-0.27,0.41-0.47,0.56c-0.2,0.15-0.43,0.27-0.7,0.35
		c-0.27,0.08-0.55,0.12-0.85,0.12h-3.41v-6.95h3.68c0.25,0,0.47,0.05,0.67,0.16c0.2,0.1,0.37,0.24,0.51,0.41s0.25,0.36,0.33,0.57
		s0.12,0.43,0.12,0.64c0,0.34-0.09,0.66-0.27,0.95c-0.18,0.3-0.43,0.52-0.76,0.66c0.41,0.12,0.73,0.33,0.97,0.64
		c0.24,0.31,0.36,0.69,0.36,1.13l0,0L75.06,52.14z M73.9,51.93c0-0.14-0.03-0.28-0.08-0.41s-0.12-0.24-0.2-0.34
		c-0.08-0.1-0.19-0.18-0.31-0.24c-0.12-0.06-0.25-0.09-0.39-0.09h-2.35v2.13h2.28c0.15,0,0.28-0.03,0.41-0.08
		c0.13-0.06,0.24-0.13,0.33-0.23c0.09-0.09,0.17-0.21,0.22-0.33c0.05-0.13,0.08-0.26,0.08-0.41l0,0L73.9,51.93z M70.57,47.92v2.05
		h2.07c0.14,0,0.27-0.03,0.39-0.08c0.12-0.05,0.22-0.12,0.31-0.21s0.16-0.19,0.21-0.32c0.05-0.12,0.08-0.26,0.08-0.41
		c0-0.3-0.09-0.55-0.26-0.74c-0.17-0.19-0.4-0.29-0.66-0.29h-2.13L70.57,47.92z M81.87,52.95v0.97h-4.89v-6.95h4.8v0.97H78.1v1.98
		h3.19v0.91H78.1v2.13h3.77V52.95z M83.78,53.92v-6.95h1.13v5.98h3.83v0.97h-4.95H83.78z M95.29,52.95v0.97H90.4v-6.95h4.8v0.97
		h-3.68v1.98h3.19v0.91h-3.19v2.13h3.77V52.95z M97.2,53.92v-6.95h2.53c0.58,0,1.08,0.09,1.51,0.27s0.79,0.43,1.09,0.74
		c0.29,0.31,0.51,0.68,0.66,1.1s0.22,0.87,0.22,1.35c0,0.53-0.08,1.01-0.25,1.43c-0.16,0.43-0.4,0.79-0.7,1.1
		c-0.3,0.3-0.67,0.54-1.1,0.71s-0.91,0.25-1.44,0.25h-2.53L97.2,53.92z M102.06,50.43c0-0.37-0.05-0.7-0.16-1.01
		c-0.1-0.31-0.26-0.57-0.46-0.79s-0.45-0.39-0.73-0.51c-0.29-0.12-0.62-0.19-0.99-0.19h-1.41v5.01h1.41c0.38,0,0.71-0.06,1-0.19
		c0.29-0.13,0.54-0.3,0.73-0.53c0.2-0.23,0.35-0.49,0.45-0.8c0.1-0.31,0.15-0.64,0.15-1l0,0L102.06,50.43z M105.14,53.92v-6.95h1.13
		v6.95H105.14z M105.2,46.07v-1.13h0.99v1.13H105.2z M109.14,46.96l1.97,3.49l1.99-3.49h1.24l-2.66,4.47v2.49h-1.13v-2.51
		l-2.64-4.45h1.24L109.14,46.96z M120.86,52.94v0.97h-4.89v-6.95h4.8v0.97h-3.68v1.98h3.19v0.91h-3.19v2.13h3.77V52.94z
		 M126.84,48.59c-0.07-0.07-0.16-0.15-0.29-0.23c-0.13-0.08-0.28-0.16-0.45-0.23s-0.36-0.13-0.56-0.18s-0.41-0.07-0.63-0.07
		c-0.48,0-0.83,0.08-1.05,0.25s-0.34,0.4-0.34,0.71c0,0.17,0.04,0.31,0.11,0.42c0.07,0.11,0.18,0.2,0.33,0.28
		c0.15,0.08,0.33,0.15,0.55,0.22c0.22,0.06,0.48,0.13,0.77,0.2c0.36,0.08,0.69,0.18,0.98,0.28s0.54,0.23,0.74,0.38
		s0.36,0.33,0.47,0.55c0.11,0.22,0.17,0.48,0.17,0.8c0,0.35-0.07,0.66-0.21,0.91s-0.33,0.46-0.56,0.62
		c-0.24,0.16-0.51,0.28-0.83,0.35c-0.31,0.07-0.65,0.11-1.01,0.11c-0.54,0-1.07-0.08-1.57-0.24c-0.51-0.16-0.96-0.39-1.37-0.7
		l0.51-0.94c0.09,0.08,0.21,0.18,0.38,0.28c0.16,0.1,0.35,0.2,0.57,0.29s0.45,0.16,0.71,0.23c0.25,0.06,0.52,0.09,0.79,0.09
		c0.44,0,0.78-0.08,1.03-0.23s0.36-0.37,0.36-0.67c0-0.18-0.05-0.32-0.14-0.44s-0.22-0.22-0.39-0.31s-0.37-0.17-0.61-0.24
		c-0.24-0.07-0.52-0.15-0.82-0.23c-0.36-0.09-0.66-0.19-0.93-0.29c-0.26-0.1-0.48-0.22-0.66-0.37c-0.17-0.14-0.31-0.31-0.4-0.5
		c-0.09-0.19-0.14-0.43-0.14-0.7c0-0.34,0.07-0.64,0.2-0.91c0.13-0.26,0.32-0.49,0.55-0.67c0.23-0.18,0.5-0.32,0.82-0.41
		s0.66-0.14,1.03-0.14c0.48,0,0.93,0.08,1.34,0.23c0.41,0.15,0.77,0.34,1.08,0.56l-0.51,0.9l0,0L126.84,48.59z M129.5,53.91v-6.95
		h1.13v6.95H129.5z M129.56,46.06v-1.13h1v1.13H129.56z"/>
	<path style="fill:#FFFFFF;" d="M74.21,17.3c-0.07-0.07-0.16-0.15-0.29-0.23s-0.28-0.16-0.45-0.23s-0.36-0.13-0.56-0.18
		c-0.2-0.05-0.41-0.07-0.63-0.07c-0.48,0-0.83,0.08-1.05,0.25s-0.34,0.4-0.34,0.71c0,0.17,0.03,0.31,0.11,0.42
		c0.07,0.11,0.18,0.2,0.33,0.28s0.33,0.15,0.55,0.22c0.22,0.06,0.48,0.13,0.77,0.2c0.36,0.08,0.69,0.18,0.98,0.28
		s0.54,0.23,0.74,0.38s0.36,0.33,0.47,0.55s0.17,0.48,0.17,0.8c0,0.35-0.07,0.66-0.21,0.91s-0.33,0.46-0.56,0.62
		c-0.24,0.16-0.51,0.28-0.83,0.35s-0.65,0.11-1.02,0.11c-0.54,0-1.07-0.08-1.57-0.24c-0.51-0.16-0.96-0.39-1.37-0.7l0.51-0.94
		c0.09,0.08,0.21,0.18,0.38,0.28c0.16,0.1,0.36,0.2,0.57,0.29c0.22,0.09,0.45,0.16,0.71,0.23c0.25,0.06,0.52,0.09,0.79,0.09
		c0.44,0,0.78-0.08,1.03-0.23c0.24-0.15,0.36-0.37,0.36-0.67c0-0.18-0.05-0.32-0.14-0.44s-0.22-0.22-0.39-0.31s-0.37-0.17-0.61-0.24
		s-0.52-0.15-0.82-0.23c-0.36-0.09-0.67-0.19-0.93-0.29s-0.48-0.22-0.66-0.37c-0.17-0.14-0.31-0.31-0.4-0.5
		c-0.09-0.19-0.14-0.43-0.14-0.7c0-0.34,0.07-0.64,0.2-0.91c0.13-0.26,0.32-0.49,0.55-0.67s0.5-0.32,0.82-0.41
		c0.31-0.09,0.66-0.14,1.02-0.14c0.48,0,0.93,0.08,1.34,0.23c0.41,0.15,0.77,0.34,1.08,0.56l-0.51,0.9l0,0V17.3z M78.85,15.66h0.98
		l2.81,6.95h-1.19l-0.75-1.89h-2.75l-0.74,1.89h-1.2l2.83-6.95l0,0H78.85z M80.49,19.91l-1.15-2.99l-1.19,2.99h2.33H80.49z
		 M90.28,22.61V17.6l-2.12,3.79h-0.62l-2.13-3.79v5.01h-1.13v-6.95h1.21l2.36,4.25l2.36-4.25h1.21v6.95H90.28z M97.99,17.29
		c-0.07-0.07-0.16-0.15-0.29-0.23s-0.28-0.16-0.45-0.23s-0.36-0.13-0.56-0.18c-0.2-0.05-0.41-0.07-0.63-0.07
		c-0.48,0-0.83,0.08-1.05,0.25s-0.34,0.4-0.34,0.71c0,0.17,0.04,0.31,0.11,0.42s0.18,0.2,0.33,0.28s0.33,0.15,0.55,0.22
		c0.22,0.06,0.48,0.13,0.77,0.2c0.36,0.08,0.69,0.18,0.98,0.28s0.54,0.23,0.74,0.38s0.36,0.33,0.47,0.55s0.17,0.48,0.17,0.8
		c0,0.35-0.07,0.66-0.21,0.91s-0.32,0.46-0.56,0.62c-0.24,0.16-0.51,0.28-0.83,0.35c-0.31,0.07-0.65,0.11-1.02,0.11
		c-0.54,0-1.07-0.08-1.57-0.24c-0.51-0.16-0.96-0.39-1.37-0.7l0.51-0.94c0.09,0.08,0.21,0.18,0.38,0.28c0.16,0.1,0.36,0.2,0.57,0.29
		c0.22,0.09,0.45,0.16,0.71,0.23c0.25,0.06,0.52,0.09,0.79,0.09c0.44,0,0.78-0.08,1.03-0.23c0.24-0.15,0.36-0.37,0.36-0.67
		c0-0.18-0.05-0.32-0.14-0.44s-0.22-0.22-0.39-0.31s-0.37-0.17-0.61-0.24s-0.52-0.15-0.82-0.23c-0.35-0.09-0.66-0.19-0.93-0.29
		c-0.26-0.1-0.48-0.22-0.66-0.37c-0.17-0.14-0.31-0.31-0.4-0.5c-0.09-0.19-0.14-0.43-0.14-0.7c0-0.34,0.07-0.64,0.2-0.91
		c0.13-0.26,0.32-0.49,0.55-0.67s0.5-0.32,0.82-0.41c0.31-0.09,0.66-0.14,1.03-0.14c0.48,0,0.93,0.08,1.34,0.23
		c0.41,0.15,0.77,0.34,1.08,0.56L98,17.25l0,0L97.99,17.29z M103.63,21.67c0.37,0,0.69-0.07,0.93-0.22c0.25-0.14,0.45-0.33,0.6-0.56
		s0.26-0.5,0.32-0.79c0.06-0.3,0.1-0.6,0.1-0.92v-3.53h1.14v3.53c0,0.48-0.06,0.93-0.17,1.35s-0.29,0.79-0.54,1.11
		s-0.57,0.57-0.96,0.75s-0.86,0.27-1.41,0.27s-1.05-0.1-1.44-0.29s-0.71-0.45-0.95-0.77s-0.42-0.69-0.52-1.11
		c-0.11-0.42-0.16-0.85-0.16-1.3v-3.53h1.13v3.53c0,0.32,0.03,0.63,0.1,0.93c0.06,0.3,0.17,0.56,0.32,0.79
		c0.15,0.23,0.35,0.42,0.6,0.56s0.56,0.21,0.93,0.21l0,0L103.63,21.67z M110.08,17.71v4.9h-1.13v-6.95h0.88l4.08,5.01v-5.01h1.14
		v6.94h-0.93l-4.04-4.9l0,0V17.71z"/>
</g>
</svg>
