<?xml version="1.0" encoding="iso-8859-1"?>
<!-- Generator: Adobe Illustrator 29.7.1, SVG Export Plug-In . SVG Version: 9.03 Build 0)  -->
<svg version="1.1" id="Layer_1" xmlns="http://www.w3.org/2000/svg" xmlns:xlink="http://www.w3.org/1999/xlink" x="0px" y="0px"
	 viewBox="0 0 350 350" style="enable-background:new 0 0 350 350;" xml:space="preserve">
<g>
	<g>
		<circle style="fill-rule:evenodd;clip-rule:evenodd;fill:#231F20;" cx="175.978" cy="176.007" r="99.883"/>
		<path style="fill-rule:evenodd;clip-rule:evenodd;fill:#778CC6;" d="M175.978,269.84c-51.821,0-93.832-42.011-93.832-93.832
			c0-51.823,42.011-93.833,93.832-93.833c51.822,0,93.832,42.011,93.832,93.833C269.81,227.829,227.801,269.84,175.978,269.84z"/>
	</g>
	<g>
		<polygon style="fill:#231F20;" points="268.426,203.727 83.418,203.727 83.418,200.722 268.426,200.722 268.426,203.727 		"/>
	</g>
	<path style="fill-rule:evenodd;clip-rule:evenodd;fill:#231F20;" d="M273.902,76.124c-25.365-25.364-60.365-41.097-98.956-41.097
		c-38.485,0-73.484,15.733-98.85,41.097C50.728,101.489,35,136.489,35,174.974c0,38.536,15.728,73.54,41.096,98.904
		c25.366,25.365,60.365,41.096,98.85,41.096c38.591,0,73.591-15.73,98.956-41.096C299.267,248.514,315,213.51,315,174.974
		C315,136.489,299.267,101.489,273.902,76.124z M270.392,270.395c-24.443,24.441-58.194,39.632-95.417,39.632
		c-37.124,0-70.872-15.19-95.366-39.632c-24.445-24.441-39.635-58.249-39.635-95.419c0-37.121,15.19-70.923,39.635-95.365
		c24.494-24.446,58.243-39.635,95.366-39.635c37.222,0,70.973,15.188,95.417,39.635c24.495,24.441,39.633,58.244,39.633,95.365
		C310.024,212.146,294.887,245.953,270.392,270.395z"/>
	<g>
		<path style="fill:#231F20;" d="M131.714,92.043h-3.204v14.051l-19.397,15.442l-0.233-0.152v-12.515h-3.205v10.431l-3.934-2.56
			l-1.748,2.687l5.682,3.696v1.15L86.07,139.88l22.811,14.131v-28.193l0.421-0.336l22.413,14.584V92.043z M105.675,148.255
			l-14.047-8.703l14.047-11.184V148.255z M111.945,123.378l16.566-13.189v23.969L111.945,123.378z"/>
		<g>
			<path style="fill-rule:evenodd;clip-rule:evenodd;fill:#099749;" d="M255.99,202.112H85.529c0,0-9.816-25.038-2.805-40.061
				h20.832c1.161-31.334,46.852-32.686,46.673,0h5.207v10.617h10.416v11.418h13.821c0-15.65,18.428-16.351,18.428,0h11.018
				c0.27-94.744,23.837-96.078,23.837,0h23.035V202.112z"/>
			<path style="fill:#231F20;" d="M256.791,202.913H84.981l-0.199-0.507c-0.406-1.037-9.86-25.534-2.784-40.696l0.216-0.46h20.579
				c0.961-15.767,13.188-24.01,24.967-24.01c6.441,0,12.318,2.344,16.55,6.599c4.277,4.299,6.589,10.306,6.715,17.411h5.213v10.615
				h10.416v11.418h12.235c0.313-7.881,5.262-12,10.15-12c4.604,0,9.549,3.762,9.85,12h9.432c0.185-42.837,5.345-71.559,12.88-71.559
				c7.582,0,12.496,28.06,12.556,71.559h23.035V202.913L256.791,202.913z M86.083,201.312h169.106v-16.425h-23.036v-0.801
				c0-51.549-6.719-70.758-10.953-70.758c-4.283,0-11.135,19.209-11.281,70.759l-0.001,0.8H197.3v-0.801
				c0-7.695-4.281-11.201-8.261-11.201c-4.257,0-8.564,3.846-8.564,11.201v0.801h-15.424v-11.418h-10.416v-10.617h-5.213
				l0.004-0.806c0.039-7.02-2.123-12.925-6.252-17.078c-3.929-3.95-9.403-6.126-15.414-6.126c-11.202,0-22.838,7.982-23.403,23.238
				l-0.028,0.772H83.241C77.376,176.271,84.776,197.741,86.083,201.312L86.083,201.312z"/>
		</g>
		<g>
			<polygon style="fill-rule:evenodd;clip-rule:evenodd;fill:#DA2428;" points="103.355,202.112 128.795,246.982 220.335,246.982 
				247.176,202.112 			"/>
			<path style="fill:#231F20;" d="M220.791,247.783h-92.463l-26.347-46.472h146.611L220.791,247.783L220.791,247.783z
				 M129.262,246.182h90.62l25.883-43.268H104.731L129.262,246.182L129.262,246.182z"/>
		</g>
		<g>
			<g>
				<polygon style="fill:#231F20;" points="241.623,211.97 108.49,211.97 108.49,210.368 241.623,210.368 241.623,211.97 				"/>
			</g>
		</g>
		<g>
			<g>
				<polygon style="fill:#231F20;" points="156.106,247.423 154.767,246.542 184.212,201.673 185.551,202.553 156.106,247.423 				
					"/>
			</g>
		</g>
		<g>
			<g>
				<polygon style="fill:#231F20;" points="176.75,240.025 160.527,240.025 160.527,238.424 176.75,238.424 176.75,240.025 				"/>
			</g>
		</g>
		<g>
			<g>
				<polygon style="fill:#231F20;" points="225.449,240.025 209.519,240.025 209.519,238.424 225.449,238.424 225.449,240.025 				
					"/>
			</g>
		</g>
		<g>
			<g>
				<polygon style="fill:#231F20;" points="138.61,240.025 124.396,240.025 124.396,238.424 138.61,238.424 138.61,240.025 				"/>
			</g>
		</g>
		<g>
			<g>
				<polygon style="fill:#231F20;" points="171.503,222.009 156.801,202.597 158.077,201.629 172.781,221.042 171.503,222.009 				
					"/>
			</g>
		</g>
		<line style="fill:none;stroke:#F4EA28;" x1="215.727" y1="226.688" x2="232.476" y2="226.688"/>
		<g>
			<g>
				<path style="fill:#231F20;" d="M232.476,227.49h-18.696v-0.803c0-7.986-6.721-11.623-12.968-11.623
					c-6.246,0-12.967,3.637-12.967,11.623v0.803H158.24v-0.803c0-7.986-6.723-11.623-12.968-11.623
					c-6.246,0-12.966,3.637-12.966,11.623v0.803h-15.018v-1.604h13.435c0.43-8.529,7.742-12.426,14.549-12.426
					c6.809,0,14.12,3.896,14.551,12.426h26.439c0.432-8.529,7.742-12.426,14.55-12.426c6.809,0,14.119,3.896,14.551,12.426h17.113
					V227.49L232.476,227.49z"/>
			</g>
		</g>
		<g>
			<polygon style="fill:#231F20;" points="223.611,181.517 219.175,112.687 222.372,112.48 226.81,181.311 223.611,181.517 			"/>
		</g>
		<path style="fill:#231F20;" d="M167.836,184.09l1.604-0.01c-0.013-2.483-0.33-60.919-1.661-69.624
			c-0.378-2.479-1.461-4.204-3.217-5.13c-3.775-1.983-9.244,0.613-9.476,0.723l-0.439,0.213l-1.282,51.768l1.603,0.041l0.006-0.227
			l5.329,4.465l-5.394,4.684l1.05,1.211l5.588-4.852l6.199,5.189C167.811,179.313,167.836,183.924,167.836,184.09z M155.047,158.944
			l0.226-9.134l4.98,4.386L155.047,158.944z M166.296,115.499c0.179,1.583,0.336,4.135,0.477,7.343l-4.179-4.225L166.296,115.499z
			 M167.226,137.35c0.066,2.847,0.124,5.807,0.177,8.792l-4.851-4.448L167.226,137.35z M161.367,140.607l-5.334-4.89l5.656-4.763
			l5.08,4.634L161.367,140.607z M162.925,129.913l3.996-3.365c0.078,2.221,0.151,4.653,0.217,7.207L162.925,129.913z
			 M166.481,124.823l-4.75,4l-5.404-4.929l5.037-4.242L166.481,124.823z M155.958,122.111l0.19-7.73l4.085,4.129L155.958,122.111z
			 M160.495,129.865l-4.829,4.067l0.204-8.286L160.495,129.865z M160.189,141.703l-4.827,4.49l0.216-8.72L160.189,141.703z
			 M155.707,148.059l5.669-5.269l5.675,5.205l-5.609,5.116L155.707,148.059z M167.465,149.787c0.048,2.95,0.091,5.889,0.128,8.739
			l-4.94-4.351L167.465,149.787z M163.818,110.748c1.04,0.547,1.746,1.549,2.139,2.941l-4.494,3.786l-5.259-5.314l0.021-0.859
			C157.505,110.771,161.294,109.416,163.818,110.748z M155.789,160.436l5.672-5.173l5.741,5.055l-5.672,4.925L155.789,160.436z
			 M162.774,166.286l4.863-4.223c0.037,2.975,0.066,5.794,0.091,8.371L162.774,166.286z"/>
		<path style="fill:#231F20;" d="M185.282,172.749l1.593-0.182l-6.285-55.585h-7.483l-3.748,67.059l1.601,0.091l0.403-7.227
			l5.093,5.096l-1.222,1.599l1.274,0.973l1.092-1.429l1.508,1.509l1.132-1.134l-1.659-1.659l5.715-7.482l-5.192-3.884l5.516-3.62
			L185.282,172.749z M179.014,142.701l2.645-2.009l0.454,4.023L179.014,142.701z M181.782,146.412l-3.928,3.491l-3.69-3.521
			l3.492-2.652L181.782,146.412z M177.585,141.773l-3.625-2.356l3.304-2.983l3.358,3.035L177.585,141.773z M178.459,135.354
			l2.353-2.127l0.537,4.738L178.459,135.354z M177.264,134.274l-2.957-2.672l2.769-2.376l3.111,2.409L177.264,134.274z
			 M178.318,128.16l1.752-1.504l0.355,3.135L178.318,128.16z M179.128,125.355l-2.104,1.804l-2.275-1.76l2.494-1.922
			L179.128,125.355z M178.523,122.49l0.99-0.764l0.223,1.971L178.523,122.49z M174.337,123.695l0.165-2.948l1.596,1.588
			L174.337,123.695z M175.782,128.225l-1.784,1.529l0.156-2.789L175.782,128.225z M176.069,135.354l-2.511,2.268l0.242-4.318
			L176.069,135.354z M173.372,140.946l2.855,1.856l-3.09,2.347L173.372,140.946z M176.653,150.971l-4.043,3.591l0.396-7.069
			L176.653,150.971z M172.421,157.967l4.133,3.064l-4.507,3.624L172.421,157.967z M172.973,156.383l4.842-4.304l4.517,4.308
			l-4.487,3.607L172.973,156.383z M179.018,151.012l3.459-3.074l0.808,7.146L179.018,151.012z M179.158,118.584l0.144,1.28
			l-1.924,1.484l-2.756-2.746v-0.019H179.158z M171.909,167.114l4.402,3.292l-4.762,3.124L171.909,167.114z M182.039,174.689
			l-4.603,6.026l-5.511-5.514l5.751-3.773L182.039,174.689z M177.735,169.47l-4.725-3.534l4.874-3.919l5.264,3.903L177.735,169.47z
			 M179.176,160.98l4.377-3.519l0.836,7.384L179.176,160.98z"/>
		<path style="fill:#231F20;" d="M204.352,125.833c-3.5-1.106-6.305-0.962-8.33,0.427c-2.683,1.841-2.918,5.154-2.927,5.293
			l-1.349,20.849l-0.142,0.116l0.123,0.151l-0.845,13.047l-0.023,0.015l0.02,0.039l-0.07,1.094l-0.129,0.126l0.113,0.116
			l-0.341,5.253l1.601,0.104l0.246-3.816l3.626,3.708l-1.798,1.361l0.968,1.277l1.958-1.483l6.255,6.397v4.181h1.602v-58.078
			L204.352,125.833z M195.201,129.781l2.542,1.528l-3.164,2.125l0.116-1.779C194.695,131.641,194.774,130.775,195.201,129.781z
			 M203.31,158.686l-0.715,0.403l-3.7-2.439l4.415-2.215V158.686z M203.31,141.659l-3.428-2.731l3.428-2.967V141.659z
			 M203.31,132.791l-2.583-1.555l2.583-1.735V132.791z M202.752,134.325l-4.146,3.588l-3.577-2.852l4.229-2.84L202.752,134.325z
			 M197.375,138.98l-3.342,2.891l0.342-5.281L197.375,138.98z M198.649,139.995l4.186,3.335l-4.58,3.746l-3.917-3.35
			L198.649,139.995z M203.31,145.013v6.386l-3.816-3.265L203.31,145.013z M202.673,152.961l-5.323,2.67l-3.889-2.564l4.771-3.902
			L202.673,152.961z M195.696,156.46l-2.694,1.352l0.195-3.001L195.696,156.46z M197.241,157.478l3.789,2.498l-3.929,2.222
			l-3.525-2.881L197.241,157.478z M202.532,160.967l0.777,0.512v5.283l-0.324,0.245l-4.552-3.72L202.532,160.967z M196.94,127.572
			c1.499-1.02,3.638-1.146,6.369-0.379v0.377l-4.1,2.753l-3.172-1.908C196.294,128.11,196.58,127.818,196.94,127.572z
			 M193.808,145.379l3.189,2.727l-3.554,2.907L193.808,145.379z M192.811,160.76l2.794,2.284l-3.054,1.728L192.811,160.76z
			 M192.557,166.613l4.381-2.479l4.733,3.87l-4.456,3.375L192.557,166.613z M198.343,172.533l4.605-3.488l0.362,0.296v8.271
			L198.343,172.533z"/>
	</g>
	<g>
		<path style="fill:#231F20;" d="M169.618,198.717h-2.473v-9.32c-0.903,0.845-1.968,1.47-3.194,1.875v-2.244
			c0.645-0.211,1.346-0.612,2.103-1.201c0.757-0.59,1.276-1.278,1.558-2.065h2.006V198.717z"/>
		<path style="fill:#231F20;" d="M173.367,195.733l2.395-0.264c0.059,0.486,0.211,0.848,0.457,1.082
			c0.246,0.234,0.572,0.353,0.977,0.353c0.511,0,0.945-0.235,1.303-0.704c0.358-0.47,0.587-1.443,0.687-2.922
			c-0.622,0.722-1.399,1.082-2.332,1.082c-1.015,0-1.891-0.392-2.627-1.175c-0.736-0.783-1.104-1.803-1.104-3.059
			c0-1.309,0.389-2.362,1.166-3.164c0.777-0.801,1.768-1.201,2.971-1.201c1.308,0,2.382,0.506,3.221,1.519
			c0.839,1.012,1.259,2.677,1.259,4.994c0,2.358-0.438,4.061-1.311,5.104c-0.874,1.045-2.013,1.566-3.415,1.566
			c-1.009,0-1.824-0.268-2.446-0.805C173.942,197.604,173.543,196.801,173.367,195.733z M178.965,190.33
			c0-0.799-0.184-1.417-0.55-1.857c-0.367-0.441-0.791-0.66-1.272-0.66c-0.457,0-0.837,0.181-1.14,0.541
			c-0.302,0.361-0.453,0.952-0.453,1.773c0,0.833,0.164,1.445,0.493,1.835c0.328,0.391,0.739,0.586,1.232,0.586
			c0.475,0,0.875-0.189,1.201-0.564C178.802,191.608,178.965,191.058,178.965,190.33z"/>
		<path style="fill:#231F20;" d="M183.251,195.293l2.393-0.29c0.076,0.61,0.282,1.077,0.616,1.399
			c0.334,0.322,0.739,0.484,1.215,0.484c0.51,0,0.939-0.194,1.289-0.581c0.349-0.388,0.523-0.909,0.523-1.566
			c0-0.622-0.167-1.115-0.502-1.479c-0.334-0.364-0.742-0.546-1.223-0.546c-0.317,0-0.695,0.062-1.136,0.185l0.273-2.016
			c0.668,0.018,1.179-0.127,1.531-0.436c0.352-0.308,0.527-0.717,0.527-1.228c0-0.435-0.129-0.78-0.387-1.038
			c-0.258-0.259-0.602-0.388-1.03-0.388c-0.422,0-0.783,0.146-1.082,0.441c-0.299,0.293-0.481,0.722-0.546,1.284l-2.279-0.387
			c0.158-0.78,0.398-1.404,0.718-1.87c0.319-0.467,0.766-0.833,1.337-1.101c0.572-0.267,1.214-0.4,1.924-0.4
			c1.214,0,2.188,0.388,2.922,1.162c0.604,0.634,0.906,1.35,0.906,2.147c0,1.132-0.619,2.036-1.857,2.711
			c0.739,0.158,1.331,0.513,1.773,1.064c0.443,0.552,0.665,1.218,0.665,1.998c0,1.132-0.414,2.098-1.241,2.895
			c-0.827,0.798-1.857,1.196-3.089,1.196c-1.168,0-2.136-0.336-2.904-1.007C183.82,197.258,183.374,196.379,183.251,195.293z"/>
		<path style="fill:#231F20;" d="M195.484,191.756c-0.64-0.27-1.106-0.642-1.395-1.113c-0.29-0.473-0.436-0.99-0.436-1.554
			c0-0.962,0.336-1.758,1.007-2.385c0.671-0.628,1.628-0.942,2.865-0.942c1.227,0,2.177,0.315,2.855,0.942
			c0.678,0.627,1.018,1.423,1.018,2.385c0,0.599-0.155,1.131-0.467,1.598c-0.311,0.466-0.748,0.822-1.312,1.069
			c0.716,0.287,1.259,0.707,1.632,1.258c0.372,0.552,0.559,1.188,0.559,1.91c0,1.191-0.381,2.159-1.141,2.904
			c-0.76,0.745-1.77,1.117-3.03,1.117c-1.174,0-2.15-0.308-2.931-0.924c-0.922-0.728-1.382-1.725-1.382-2.992
			c0-0.698,0.173-1.339,0.519-1.923C194.193,192.523,194.739,192.072,195.484,191.756z M195.766,194.792
			c0,0.681,0.173,1.211,0.522,1.593c0.349,0.381,0.786,0.572,1.309,0.572c0.51,0,0.933-0.184,1.267-0.551
			c0.335-0.366,0.502-0.895,0.502-1.588c0-0.604-0.17-1.09-0.511-1.457c-0.34-0.366-0.771-0.55-1.294-0.55
			c-0.603,0-1.056,0.208-1.351,0.625C195.912,193.853,195.766,194.305,195.766,194.792z M195.994,189.265
			c0,0.493,0.139,0.877,0.417,1.153c0.278,0.275,0.651,0.413,1.114,0.413c0.47,0,0.846-0.139,1.127-0.418
			c0.281-0.278,0.423-0.664,0.423-1.157c0-0.464-0.142-0.835-0.42-1.113c-0.278-0.278-0.645-0.418-1.103-0.418
			c-0.476,0-0.854,0.141-1.136,0.423C196.136,188.429,195.994,188.801,195.994,189.265z"/>
	</g>
	<g>
		<path style="fill:#231F20;" d="M90.812,80.879l3.553,3.611l-0.334,0.314c-1.026-0.779-2.113-1.16-3.261-1.144
			c-1.147,0.016-2.081,0.361-2.8,1.036c-0.556,0.521-0.857,1.081-0.904,1.682c-0.045,0.602,0.113,1.094,0.475,1.481
			c0.23,0.247,0.492,0.411,0.785,0.495c0.399,0.107,0.889,0.123,1.473,0.047c0.425-0.06,1.315-0.295,2.671-0.706
			c1.895-0.578,3.334-0.796,4.318-0.653c0.979,0.148,1.81,0.587,2.494,1.317c0.868,0.927,1.254,2.062,1.159,3.406
			c-0.097,1.345-0.701,2.539-1.813,3.581c-0.349,0.327-0.711,0.6-1.088,0.821c-0.379,0.22-0.894,0.452-1.546,0.695
			c-0.364,0.135-0.629,0.283-0.798,0.441c-0.143,0.132-0.241,0.327-0.296,0.585c-0.057,0.257-0.029,0.543,0.082,0.858l-0.302,0.283
			l-3.924-4.186l0.304-0.283c1.342,0.953,2.646,1.418,3.911,1.395c1.263-0.022,2.29-0.404,3.08-1.144
			c0.61-0.572,0.942-1.194,0.993-1.868c0.05-0.671-0.13-1.227-0.544-1.669c-0.246-0.263-0.553-0.451-0.921-0.566
			c-0.37-0.114-0.799-0.149-1.289-0.104c-0.49,0.044-1.262,0.227-2.313,0.547c-1.473,0.449-2.593,0.706-3.362,0.771
			c-0.769,0.066-1.473-0.006-2.114-0.214c-0.641-0.209-1.204-0.572-1.689-1.09c-0.829-0.883-1.208-1.939-1.142-3.169
			c0.066-1.229,0.593-2.306,1.58-3.23c0.359-0.337,0.75-0.62,1.169-0.851c0.317-0.174,0.742-0.346,1.276-0.513
			c0.534-0.167,0.876-0.321,1.022-0.459c0.141-0.132,0.213-0.28,0.213-0.444c0-0.164-0.121-0.444-0.361-0.843L90.812,80.879z"/>
		<path style="fill:#231F20;" d="M93.925,73.064c0.359-0.28,0.764-0.392,1.214-0.336c0.452,0.057,0.817,0.265,1.096,0.625
			c0.28,0.359,0.392,0.765,0.336,1.216c-0.056,0.45-0.264,0.816-0.623,1.096c-0.359,0.279-0.766,0.392-1.216,0.334
			c-0.45-0.056-0.815-0.264-1.096-0.623c-0.28-0.359-0.392-0.764-0.336-1.216C93.357,73.709,93.564,73.344,93.925,73.064z
			 M108.885,85.815l0.255,0.327l-6.271,4.878l-0.255-0.327l0.399-0.31c0.348-0.271,0.58-0.551,0.695-0.84
			c0.089-0.201,0.097-0.434,0.023-0.7c-0.045-0.19-0.302-0.588-0.77-1.189l-6.137-7.889c-0.477-0.613-0.808-0.971-0.992-1.074
			c-0.185-0.102-0.419-0.135-0.707-0.097c-0.287,0.04-0.598,0.189-0.934,0.45l-0.397,0.31l-0.255-0.327l6.271-4.878l0.254,0.327
			l-0.397,0.31c-0.348,0.27-0.58,0.55-0.695,0.839c-0.089,0.202-0.1,0.437-0.032,0.707c0.044,0.19,0.301,0.588,0.769,1.189
			l6.139,7.889c0.477,0.613,0.808,0.969,0.996,1.071c0.186,0.1,0.424,0.13,0.711,0.092c0.286-0.038,0.599-0.189,0.935-0.45
			L108.885,85.815z"/>
		<path style="fill:#231F20;" d="M115.94,81.109l0.229,0.346l-6.621,4.39l-0.229-0.345l0.421-0.279
			c0.367-0.244,0.619-0.506,0.757-0.785c0.104-0.195,0.129-0.427,0.076-0.697c-0.031-0.194-0.257-0.609-0.678-1.244l-5.524-8.33
			c-0.428-0.648-0.732-1.03-0.908-1.147c-0.176-0.116-0.408-0.166-0.697-0.148c-0.289,0.016-0.611,0.142-0.966,0.378l-0.419,0.279
			l-0.229-0.346l6.621-4.39l0.229,0.345l-0.421,0.279c-0.367,0.243-0.619,0.506-0.757,0.785c-0.104,0.195-0.132,0.428-0.085,0.703
			c0.031,0.195,0.257,0.608,0.678,1.244l5.523,8.332c0.43,0.647,0.733,1.028,0.913,1.143c0.179,0.114,0.413,0.163,0.703,0.145
			c0.289-0.016,0.611-0.143,0.966-0.378L115.94,81.109z M101.986,67.264c0.38-0.251,0.792-0.333,1.238-0.242
			c0.444,0.089,0.794,0.326,1.045,0.706c0.251,0.378,0.332,0.792,0.242,1.236c-0.091,0.446-0.326,0.794-0.706,1.046
			c-0.38,0.252-0.792,0.333-1.236,0.242c-0.446-0.089-0.795-0.324-1.046-0.704c-0.252-0.38-0.333-0.792-0.244-1.238
			C101.372,67.865,101.606,67.516,101.986,67.264z"/>
		<path style="fill:#231F20;" d="M118.177,72.366l1.955,3.783c0.377,0.73,0.659,1.166,0.846,1.309
			c0.187,0.144,0.423,0.212,0.707,0.21c0.283-0.004,0.733-0.166,1.351-0.484l0.191,0.368l-6.909,3.569l-0.191-0.368
			c0.624-0.323,1.017-0.599,1.179-0.831c0.163-0.23,0.241-0.462,0.233-0.693c-0.006-0.233-0.198-0.714-0.575-1.443l-4.525-8.761
			c-0.377-0.731-0.659-1.166-0.846-1.31c-0.188-0.142-0.423-0.213-0.707-0.209c-0.283,0.003-0.735,0.165-1.351,0.484l-0.191-0.368
			l6.272-3.24c1.632-0.843,2.885-1.348,3.758-1.512c0.874-0.166,1.706-0.067,2.498,0.292c0.791,0.36,1.398,0.949,1.819,1.766
			c0.515,0.996,0.582,2.004,0.201,3.025c-0.245,0.648-0.726,1.286-1.443,1.917l5.607,2.894c0.729,0.371,1.222,0.584,1.477,0.637
			c0.377,0.066,0.751,0.016,1.121-0.15l0.189,0.368l-4.251,2.196l-7.528-3.904L118.177,72.366z M114.758,65.744l3.056,5.915
			l0.566-0.294c0.923-0.477,1.57-0.918,1.941-1.323c0.37-0.406,0.572-0.897,0.607-1.474c0.034-0.576-0.132-1.22-0.5-1.93
			c-0.531-1.03-1.163-1.665-1.898-1.907c-0.735-0.244-1.637-0.088-2.707,0.463L114.758,65.744z"/>
		<path style="fill:#231F20;" d="M137.774,55.136l1.396,3.868l-0.38,0.138c-0.547-0.811-1.028-1.362-1.443-1.654
			c-0.414-0.29-0.902-0.466-1.464-0.525c-0.312-0.031-0.802,0.075-1.47,0.315l-1.065,0.384l3.979,11.025
			c0.263,0.732,0.468,1.173,0.615,1.327c0.146,0.153,0.362,0.255,0.648,0.308c0.285,0.051,0.631,0.004,1.039-0.142l0.474-0.172
			l0.141,0.39l-7.483,2.701l-0.141-0.39l0.476-0.17c0.414-0.149,0.722-0.345,0.921-0.583c0.147-0.165,0.23-0.384,0.249-0.662
			c0.016-0.197-0.104-0.653-0.364-1.37l-3.978-11.024l-1.033,0.373c-0.963,0.348-1.588,0.804-1.877,1.368
			c-0.406,0.791-0.5,1.741-0.28,2.853l-0.4,0.146l-1.396-3.868L137.774,55.136z"/>
		<path style="fill:#231F20;" d="M156.519,58.4c1.477,0.088,2.544,0.318,3.199,0.691c0.939,0.528,1.5,1.326,1.684,2.394
			c0.192,1.126-0.1,2.136-0.88,3.027c-0.959,1.081-2.5,1.804-4.619,2.166l-7.609,1.304l-0.071-0.408
			c0.692-0.119,1.152-0.264,1.376-0.436c0.225-0.17,0.368-0.368,0.433-0.591c0.065-0.223,0.026-0.739-0.113-1.549l-1.665-9.719
			c-0.138-0.81-0.275-1.312-0.411-1.505c-0.136-0.192-0.339-0.33-0.611-0.412c-0.271-0.083-0.749-0.065-1.434,0.053l-0.069-0.409
			l7.178-1.229c1.715-0.295,2.956-0.349,3.723-0.167c0.766,0.183,1.408,0.544,1.925,1.081c0.516,0.537,0.833,1.147,0.95,1.832
			c0.124,0.722-0.028,1.408-0.453,2.061C158.624,57.237,157.781,57.843,156.519,58.4z M152.448,58.79
			c1.046-0.179,1.797-0.428,2.253-0.749c0.457-0.321,0.782-0.717,0.974-1.189c0.19-0.472,0.23-1.04,0.117-1.703
			c-0.114-0.663-0.337-1.184-0.672-1.562c-0.334-0.378-0.763-0.637-1.286-0.774c-0.524-0.138-1.323-0.11-2.397,0.081L152.448,58.79z
			 M152.596,59.651l0.823,4.805l0.083,0.553c0.069,0.397,0.221,0.68,0.458,0.849c0.238,0.167,0.555,0.217,0.954,0.148
			c0.588-0.1,1.109-0.324,1.561-0.67c0.453-0.346,0.769-0.79,0.949-1.333c0.179-0.543,0.217-1.119,0.113-1.731
			c-0.12-0.7-0.39-1.3-0.809-1.8c-0.419-0.5-0.932-0.812-1.536-0.936C154.586,59.414,153.721,59.452,152.596,59.651z"/>
		<path style="fill:#231F20;" d="M167.938,50.999l0.24,6.181l0.302-0.012c0.962-0.038,1.649-0.367,2.058-0.989
			c0.409-0.622,0.651-1.524,0.725-2.708l0.425-0.018l0.31,7.95l-0.425,0.016c-0.124-0.863-0.34-1.564-0.648-2.105
			c-0.31-0.542-0.657-0.899-1.046-1.075c-0.387-0.176-0.945-0.25-1.668-0.222l0.166,4.277c0.032,0.836,0.088,1.347,0.165,1.53
			c0.078,0.184,0.217,0.331,0.415,0.443c0.2,0.113,0.515,0.16,0.948,0.144l0.908-0.035c1.417-0.056,2.54-0.428,3.371-1.118
			c0.829-0.691,1.404-1.715,1.725-3.073l0.415-0.016l-0.496,4.852l-13.123,0.51l-0.016-0.415l0.505-0.019
			c0.44-0.018,0.792-0.11,1.054-0.277c0.189-0.111,0.331-0.296,0.427-0.554c0.075-0.182,0.098-0.654,0.067-1.416l-0.387-9.988
			c-0.026-0.687-0.062-1.108-0.105-1.263c-0.085-0.258-0.231-0.455-0.438-0.588c-0.292-0.198-0.684-0.288-1.176-0.269l-0.503,0.019
			l-0.016-0.414l12.707-0.494l0.175,4.49l-0.425,0.018c-0.258-1.09-0.594-1.864-1.003-2.328c-0.411-0.462-0.979-0.792-1.705-0.987
			c-0.422-0.119-1.21-0.155-2.358-0.111L167.938,50.999z"/>
		<path style="fill:#231F20;" d="M191.76,60.935l-1.052,5.26l-13.436-1.219l0.038-0.414l0.501,0.045
			c0.439,0.04,0.8-0.006,1.083-0.138c0.202-0.086,0.366-0.252,0.494-0.496c0.099-0.17,0.182-0.635,0.251-1.395l0.903-9.954
			c0.07-0.773,0.073-1.26,0.009-1.461c-0.064-0.201-0.214-0.386-0.45-0.553c-0.236-0.169-0.566-0.271-0.99-0.309l-0.502-0.046
			l0.037-0.413l8.069,0.733l-0.038,0.412l-0.659-0.06c-0.438-0.04-0.799,0.007-1.081,0.139c-0.202,0.086-0.371,0.251-0.506,0.493
			c-0.099,0.171-0.182,0.636-0.251,1.395l-0.876,9.643c-0.07,0.773-0.07,1.27,0,1.49c0.07,0.22,0.23,0.394,0.481,0.522
			c0.181,0.084,0.628,0.159,1.342,0.223l1.261,0.114c0.804,0.074,1.485-0.007,2.047-0.242c0.563-0.233,1.066-0.638,1.512-1.213
			c0.445-0.573,0.897-1.441,1.354-2.599L191.76,60.935z"/>
		<path style="fill:#231F20;" d="M200.64,53.615l-1.359,6.033l0.295,0.067c0.94,0.211,1.688,0.07,2.244-0.425
			c0.555-0.495,1.021-1.304,1.398-2.429l0.415,0.092l-1.75,7.761l-0.415-0.093c0.104-0.865,0.075-1.599-0.083-2.202
			c-0.16-0.603-0.403-1.039-0.733-1.308c-0.33-0.27-0.848-0.484-1.555-0.644l-0.942,4.176c-0.184,0.815-0.263,1.323-0.234,1.521
			c0.028,0.198,0.125,0.375,0.287,0.535c0.163,0.16,0.457,0.286,0.879,0.381l0.886,0.2c1.385,0.312,2.565,0.242,3.546-0.211
			c0.979-0.452,1.798-1.293,2.458-2.523l0.405,0.091l-1.73,4.56l-12.811-2.888l0.091-0.405l0.493,0.111
			c0.43,0.097,0.794,0.099,1.09,0.004c0.213-0.06,0.397-0.202,0.556-0.427c0.119-0.157,0.263-0.607,0.43-1.35l2.199-9.75
			c0.151-0.67,0.226-1.087,0.225-1.249c-0.017-0.271-0.105-0.499-0.271-0.682c-0.232-0.265-0.587-0.453-1.068-0.562l-0.491-0.112
			l0.091-0.403l12.406,2.797l-0.988,4.383l-0.415-0.094c0.029-1.118-0.094-1.954-0.371-2.507c-0.277-0.553-0.741-1.017-1.393-1.394
			c-0.378-0.223-1.128-0.46-2.25-0.714L200.64,53.615z"/>
		<path style="fill:#231F20;" d="M205.933,69.437l0.146-0.389l0.471,0.177c0.413,0.156,0.754,0.21,1.023,0.163
			c0.268-0.047,0.498-0.162,0.686-0.346c0.118-0.123,0.315-0.552,0.591-1.287l3.516-9.357c0.274-0.726,0.406-1.195,0.398-1.406
			c-0.009-0.21-0.104-0.429-0.287-0.653c-0.184-0.225-0.474-0.411-0.873-0.561l-0.472-0.177l0.146-0.389l6.366,2.392
			c1.699,0.64,2.98,1.383,3.841,2.234c1.054,1.042,1.691,2.259,1.915,3.651c0.223,1.394,0.061,2.814-0.483,4.261
			c-0.375,1.001-0.883,1.86-1.521,2.582c-0.639,0.723-1.316,1.262-2.032,1.62c-0.717,0.357-1.473,0.576-2.265,0.657
			c-0.792,0.081-1.705,0.031-2.738-0.149c-0.458-0.076-1.146-0.286-2.061-0.631L205.933,69.437z M216.396,58.058l-4.17,11.098
			c-0.222,0.587-0.329,0.958-0.323,1.112c0.006,0.154,0.064,0.291,0.17,0.411c0.148,0.176,0.402,0.33,0.759,0.465
			c1.168,0.439,2.209,0.374,3.124-0.191c1.244-0.763,2.291-2.276,3.143-4.541c0.687-1.825,0.947-3.391,0.784-4.697
			c-0.135-1.023-0.5-1.824-1.099-2.399C218.363,58.909,217.567,58.49,216.396,58.058z"/>
		<path style="fill:#231F20;" d="M228.175,78.519l-0.188,0.37l-7.088-3.589l0.188-0.37l0.45,0.228
			c0.394,0.199,0.746,0.289,1.057,0.271c0.22-0.006,0.434-0.098,0.643-0.277c0.154-0.123,0.403-0.525,0.748-1.204l4.517-8.917
			c0.351-0.692,0.532-1.145,0.547-1.355c0.015-0.21-0.058-0.437-0.214-0.681c-0.157-0.242-0.426-0.46-0.806-0.653l-0.45-0.227
			l0.188-0.37l7.086,3.589l-0.186,0.37l-0.451-0.227c-0.393-0.2-0.745-0.291-1.056-0.271c-0.22,0.006-0.439,0.097-0.652,0.271
			c-0.154,0.123-0.403,0.525-0.748,1.204l-4.516,8.917c-0.352,0.694-0.532,1.146-0.544,1.358c-0.012,0.211,0.062,0.439,0.22,0.682
			c0.157,0.244,0.426,0.46,0.806,0.653L228.175,78.519z M233.323,59.547c0.406,0.207,0.681,0.525,0.823,0.957
			c0.141,0.433,0.108,0.851-0.097,1.259c-0.207,0.406-0.525,0.679-0.957,0.821c-0.433,0.141-0.851,0.108-1.257-0.097
			c-0.407-0.206-0.681-0.525-0.822-0.956c-0.142-0.431-0.109-0.851,0.097-1.257c0.205-0.407,0.524-0.681,0.956-0.823
			C232.498,59.31,232.917,59.342,233.323,59.547z"/>
		<path style="fill:#231F20;" d="M250.001,74.831l-0.226,0.348c-0.456-0.217-0.858-0.305-1.206-0.265
			c-0.483,0.059-1.446,0.453-2.885,1.182l-5.765,2.809l-2.008,3.077c-0.429,0.657-0.66,1.088-0.695,1.293
			c-0.035,0.205,0.009,0.434,0.132,0.689c0.124,0.253,0.355,0.491,0.692,0.711l0.714,0.466l-0.228,0.346l-7.142-4.659l0.228-0.348
			l0.666,0.436c0.375,0.245,0.716,0.373,1.02,0.384c0.22,0.019,0.445-0.048,0.679-0.199c0.167-0.106,0.458-0.477,0.874-1.115
			l1.667-2.554l0.562-7.405c0.108-1.464,0.102-2.372-0.018-2.721c-0.119-0.351-0.38-0.662-0.783-0.933l0.227-0.348l6.099,3.979
			l-0.226,0.348l-0.274-0.177c-0.368-0.241-0.661-0.356-0.877-0.346c-0.217,0.012-0.363,0.076-0.441,0.195
			c-0.146,0.225-0.266,0.954-0.356,2.188l-0.45,5.713l4.793-2.345c1.183-0.566,1.874-1.003,2.073-1.31
			c0.109-0.169,0.12-0.362,0.032-0.581c-0.111-0.296-0.441-0.645-0.99-1.047l0.226-0.348L250.001,74.831z"/>
		<path style="fill:#231F20;" d="M255.435,80.585l-4.052,4.673l0.229,0.198c0.728,0.631,1.454,0.859,2.177,0.687
			c0.725-0.173,1.519-0.668,2.381-1.48l0.323,0.278l-5.212,6.011l-0.321-0.279c0.499-0.713,0.821-1.373,0.967-1.979
			c0.143-0.607,0.135-1.106-0.028-1.501c-0.163-0.394-0.518-0.828-1.066-1.301l-2.803,3.234c-0.549,0.632-0.856,1.042-0.926,1.229
			c-0.068,0.188-0.068,0.39,0,0.607c0.069,0.219,0.267,0.468,0.594,0.753l0.686,0.594c1.072,0.93,2.148,1.427,3.224,1.49
			c1.077,0.063,2.197-0.291,3.36-1.062l0.312,0.271l-3.679,3.202l-9.923-8.603l0.271-0.312l0.382,0.33
			c0.333,0.289,0.65,0.462,0.957,0.519c0.216,0.048,0.446,0.01,0.691-0.113c0.179-0.081,0.52-0.409,1.018-0.986l6.547-7.553
			c0.45-0.519,0.713-0.851,0.787-0.993c0.114-0.247,0.143-0.49,0.084-0.729c-0.078-0.343-0.304-0.678-0.676-1l-0.381-0.33
			l0.271-0.314l9.609,8.332l-2.942,3.394l-0.322-0.278c0.556-0.971,0.842-1.766,0.859-2.385c0.016-0.618-0.173-1.247-0.567-1.885
			c-0.228-0.375-0.778-0.94-1.647-1.694L255.435,80.585z"/>
		<path style="fill:#231F20;" d="M271.111,94.451l-3.665,3.497l-0.31-0.34c0.795-1.015,1.192-2.096,1.195-3.243
			c0.001-1.147-0.329-2.085-0.992-2.816c-0.512-0.563-1.067-0.873-1.667-0.929c-0.602-0.056-1.098,0.095-1.49,0.452
			c-0.248,0.226-0.417,0.486-0.505,0.777c-0.114,0.396-0.138,0.886-0.07,1.471c0.053,0.426,0.274,1.32,0.663,2.682
			c0.548,1.904,0.743,3.347,0.585,4.329c-0.163,0.975-0.614,1.8-1.357,2.473c-0.939,0.854-2.082,1.222-3.424,1.105
			c-1.344-0.119-2.527-0.741-3.551-1.869c-0.321-0.355-0.59-0.722-0.804-1.102c-0.215-0.381-0.439-0.899-0.671-1.556
			c-0.131-0.365-0.274-0.634-0.43-0.805c-0.131-0.144-0.324-0.247-0.581-0.305c-0.255-0.06-0.543-0.037-0.859,0.069l-0.278-0.307
			l4.246-3.857l0.28,0.308c-0.975,1.327-1.46,2.624-1.457,3.887c0.002,1.265,0.368,2.297,1.096,3.1
			c0.564,0.619,1.18,0.959,1.852,1.021c0.67,0.062,1.23-0.112,1.678-0.518c0.266-0.241,0.459-0.545,0.58-0.912
			c0.121-0.367,0.162-0.796,0.126-1.287c-0.038-0.491-0.209-1.264-0.513-2.322c-0.425-1.48-0.664-2.604-0.717-3.374
			c-0.053-0.769,0.029-1.473,0.248-2.109c0.219-0.638,0.59-1.196,1.116-1.672c0.895-0.814,1.957-1.178,3.186-1.093
			c1.227,0.086,2.296,0.629,3.205,1.63c0.332,0.365,0.608,0.76,0.832,1.182c0.17,0.321,0.334,0.75,0.492,1.285
			c0.16,0.537,0.307,0.88,0.443,1.03c0.131,0.144,0.277,0.217,0.441,0.22c0.164,0.001,0.447-0.115,0.85-0.349L271.111,94.451z"/>
		<path style="fill:#231F20;" d="M265.92,112.483l-0.331,0.25l-4.777-6.347l0.331-0.249l0.304,0.402
			c0.266,0.352,0.542,0.588,0.827,0.71c0.201,0.092,0.435,0.103,0.7,0.034c0.192-0.041,0.594-0.292,1.203-0.75l7.985-6.011
			c0.621-0.466,0.983-0.79,1.09-0.974c0.106-0.182,0.142-0.417,0.108-0.704c-0.034-0.289-0.179-0.602-0.436-0.942l-0.304-0.403
			l0.331-0.249l4.777,6.349l-0.331,0.249l-0.304-0.403c-0.265-0.352-0.54-0.588-0.827-0.708c-0.201-0.092-0.436-0.107-0.706-0.044
			c-0.193,0.041-0.594,0.292-1.202,0.749l-7.987,6.011c-0.62,0.466-0.983,0.793-1.085,0.978c-0.104,0.185-0.14,0.423-0.105,0.71
			c0.035,0.288,0.18,0.602,0.436,0.942L265.92,112.483z M278.91,97.73c0.274,0.364,0.379,0.772,0.315,1.221
			c-0.062,0.45-0.277,0.812-0.641,1.087c-0.365,0.273-0.772,0.378-1.222,0.315c-0.449-0.064-0.811-0.277-1.086-0.643
			c-0.274-0.364-0.378-0.77-0.315-1.22c0.064-0.451,0.277-0.812,0.642-1.085c0.363-0.274,0.772-0.38,1.222-0.315
			C278.273,97.152,278.637,97.366,278.91,97.73z"/>
	</g>
</g>
</svg>
