<?xml version="1.0" encoding="UTF-8"?>
<svg id="Layer_2" data-name="Layer 2" xmlns="http://www.w3.org/2000/svg" viewBox="0 0 294.42 287.08">
  <defs>
    <style>
      .cls-1 {
        fill: none;
      }

      .cls-2 {
        letter-spacing: -.02em;
      }

      .cls-2, .cls-3, .cls-4, .cls-5, .cls-6, .cls-7, .cls-8, .cls-9, .cls-10 {
        fill: #2d296a;
      }

      .cls-2, .cls-3, .cls-4, .cls-5, .cls-6, .cls-7, .cls-8, .cls-10 {
        font-family: Arial-BoldMT, Arial;
        font-weight: 700;
        isolation: isolate;
      }

      .cls-2, .cls-3, .cls-7 {
        font-size: 46.92px;
      }

      .cls-3 {
        letter-spacing: -.04em;
      }

      .cls-11 {
        fill: #fff;
      }

      .cls-12 {
        fill: #c4a35d;
      }

      .cls-4 {
        font-size: 46.92px;
      }

      .cls-5 {
        font-size: 46.92px;
      }

      .cls-6 {
        font-size: 46.92px;
      }

      .cls-13 {
        fill: #2e2a6d;
      }

      .cls-8 {
        font-size: 46.92px;
      }

      .cls-14 {
        fill: #c0a360;
      }

      .cls-10 {
        font-size: 46.92px;
        letter-spacing: -.02em;
      }

      .cls-15 {
        fill: #c4a565;
        fill-rule: evenodd;
      }
    </style>
  </defs>
  <g id="Layer_1-2" data-name="Layer 1">
    <path class="cls-9" d="M147.12,280c-18.9,0-37.23-3.7-54.49-11-16.67-7.05-31.64-17.15-44.5-30-12.86-12.86-22.95-27.83-30-44.5-7.3-17.26-11-35.6-11-54.49s3.7-37.23,11-54.49c7.05-16.67,17.15-31.64,30-44.5,12.86-12.86,27.83-22.95,44.5-30C109.89,3.7,128.22,0,147.12,0s37.23,3.7,54.49,11c16.67,7.05,31.64,17.15,44.5,30,12.86,12.86,22.95,27.83,30,44.5,7.3,17.26,11,35.6,11,54.5s-3.7,37.23-11,54.49c-7.05,16.67-17.15,31.64-30,44.5-12.86,12.86-27.83,22.95-44.5,30-17.26,7.3-35.6,11-54.49,11h0ZM147.12,6.8C73.53,6.8,13.66,66.55,13.66,140s59.87,133.2,133.46,133.2,133.46-59.75,133.46-133.2S220.71,6.8,147.12,6.8h0Z"/>
    <path class="cls-1" d="M147.1,11.41h0C76.07,11.41,18.28,69.09,18.28,140s57.79,128.59,128.83,128.59,128.83-57.69,128.83-128.59S218.14,11.41,147.1,11.41Z"/>
    <text class="cls-7" transform="translate(25.81 93.92) rotate(103.93)"><tspan x="0" y="0">S</tspan></text>
    <text class="cls-7" transform="translate(18.64 128.29) rotate(92.29)"><tspan x="0" y="0">I</tspan></text>
    <text class="cls-7" transform="translate(17.44 145.26) rotate(80.75)"><tspan x="0" y="0">V</tspan></text>
    <text class="cls-3" transform="translate(24.15 181.99) rotate(63.48)"><tspan x="0" y="0">A</tspan></text>
    <text class="cls-5" transform="translate(42.88 217.09) rotate(46.46)"><tspan x="0" y="0">S</tspan></text>
    <text class="cls-7" transform="translate(67.95 241.6) rotate(35.01)"><tspan x="0" y="0"> </tspan></text>
    <text class="cls-7" transform="translate(81.7 252.05) rotate(22.77)"><tspan x="0" y="0">B</tspan></text>
    <text class="cls-4" transform="translate(118.86 266.45) rotate(5.59)"><tspan x="0" y="0">E</tspan></text>
    <text class="cls-2" transform="translate(155.42 269.12) rotate(-9.98)"><tspan x="0" y="0">L</tspan></text>
    <text class="cls-7" transform="translate(188.93 262.64) rotate(-25.78)"><tspan x="0" y="0">E</tspan></text>
    <text class="cls-7" transform="translate(222.15 245.82) rotate(-42.76)"><tspan x="0" y="0">D</tspan></text>
    <text class="cls-6" transform="translate(248.89 219.01) rotate(-54.9)"><tspan x="0" y="0">I</tspan></text>
    <text class="cls-10" transform="translate(259.11 205.39) rotate(-66.49)"><tspan x="0" y="0">Y</tspan></text>
    <text class="cls-7" transform="translate(273.11 171.08) rotate(-83.08)"><tspan x="0" y="0">E</tspan></text>
    <text class="cls-7" transform="translate(276.76 134.29) rotate(-99.45)"><tspan x="0" y="0">S</tspan></text>
    <text class="cls-8" transform="translate(269.68 99.86) rotate(-111.16)"><tspan x="0" y="0">I</tspan></text>
    <path class="cls-15" d="M188.71,111.13c0-5.09,7.61-2.35,2.8,2.35-1.2,1.17-6.01,5.48-6.01,6.65v1.96h10.41v-2.74h-6.4c1.2-1.18,6.4-5.9,6.4-7.83.83-7.93-10.01-7.83-10.01-.39h2.8Z"/>
    <polygon class="cls-15" points="167.39 122.13 167.39 108.29 164.69 108.29 164.69 105.6 170.85 105.6 170.85 122.13 167.39 122.13"/>
    <path class="cls-14" d="M180.54,112.76c.88-.71,1.45-1.79,1.45-3.01,0-2.13-1.73-3.86-3.86-3.86s-3.86,1.73-3.86,3.86c0,1.22.57,2.3,1.45,3.01-1.62.86-2.72,2.57-2.72,4.53,0,2.83,2.3,5.13,5.13,5.13s5.13-2.3,5.13-5.13c0-1.96-1.1-3.66-2.72-4.53ZM178.13,107.7c1.13,0,2.04.92,2.04,2.04s-.92,2.04-2.04,2.04-2.04-.92-2.04-2.04.92-2.04,2.04-2.04ZM178.13,120c-1.5,0-2.72-1.22-2.72-2.72s1.22-2.72,2.72-2.72,2.72,1.22,2.72,2.72-1.22,2.72-2.72,2.72Z"/>
    <path class="cls-14" d="M206.06,112.76c.88-.71,1.45-1.79,1.45-3.01,0-2.13-1.73-3.86-3.86-3.86s-3.86,1.73-3.86,3.86c0,1.22.57,2.3,1.45,3.01-1.62.86-2.72,2.57-2.72,4.53,0,2.83,2.3,5.13,5.13,5.13s5.13-2.3,5.13-5.13c0-1.96-1.11-3.66-2.72-4.53ZM203.66,107.7c1.13,0,2.04.92,2.04,2.04s-.92,2.04-2.04,2.04-2.04-.92-2.04-2.04c0-1.13.92-2.04,2.04-2.04ZM203.66,120c-1.5,0-2.72-1.22-2.72-2.72s1.22-2.72,2.72-2.72,2.72,1.22,2.72,2.72-1.22,2.72-2.72,2.72Z"/>
    <path class="cls-13" d="M232.19,110.86c0,2.02-1.64,3.65-3.65,3.65s-3.65-1.64-3.65-3.65,1.64-3.65,3.65-3.65,3.65,1.64,3.65,3.65Z"/>
    <path class="cls-13" d="M220.49,191.09c0,2.02-1.64,3.65-3.65,3.65s-3.65-1.64-3.65-3.65,1.64-3.65,3.65-3.65c2.02,0,3.65,1.64,3.65,3.65Z"/>
    <path class="cls-9" d="M232.01,112.92c-.7,1.18-1.99,1.98-3.47,1.98-.56,0-1.1-.12-1.59-.33,2.57,8.02,3.96,16.56,3.96,25.43,0,17.45-5.39,33.67-14.58,47.09.17-.02.34-.04.51-.04,1.89,0,3.48,1.31,3.92,3.07,10.03-14.66,15.43-31.98,15.43-50.13,0-9.33-1.43-18.44-4.18-27.08Z"/>
    <path class="cls-9" d="M63.59,133.41c3.38-43.04,39.55-77.04,83.53-77.04,35.24,0,65.47,21.83,77.83,52.65.67-1.3,2.03-2.19,3.59-2.19.48,0,.95.09,1.38.25-4.42-11.12-11.1-21.33-19.82-30.05-16.82-16.82-39.19-26.08-62.98-26.08s-46.15,9.26-62.98,26.09c-15.1,15.1-24.1,34.67-25.79,55.72.64-.43,1.41-.68,2.24-.68,1.19,0,2.26.52,3,1.34Z"/>
    <path class="cls-9" d="M212.87,191.79c-15.36,19.38-39.12,31.84-65.75,31.84-46.2,0-83.79-37.52-83.79-83.63,0-.32,0-.63.01-.94-.72.67-1.69,1.09-2.75,1.09-.96,0-1.83-.34-2.52-.89,0,.25,0,.5,0,.75,0,23.79,9.26,46.15,26.09,62.98,16.82,16.82,39.19,26.09,62.98,26.09s46.15-9.26,62.98-26.09c2.5-2.5,4.83-5.13,6.99-7.86-.08,0-.16.01-.25.01-1.99,0-3.64-1.45-3.98-3.34Z"/>
    <path class="cls-13" d="M64.24,136.11c0,2.02-1.64,3.65-3.65,3.65s-3.65-1.64-3.65-3.65,1.64-3.65,3.65-3.65,3.65,1.64,3.65,3.65Z"/>
    <g>
      <path class="cls-11" d="M103.57,159.77v1.54c0,.77-.38,1.15-.77,1.15h-.77c-.38,1.15-.77,1.54-.77,3.07v2.69c0,1.54,3.08,3.07,5.01,3.07v-2.31c0-2.69-1.15-5.38-1.15-8.84s.38-6.53.38-10.38v-1.54c0-1.54-.77-.77-.77-3.07h2.7l-2.7-5.38h-.38q-.38.77-.38,1.54v1.15c0,.77.38.77,1.54,1.15v.77h-1.93l-.38,2.31c-1.15,0-1.54.77-1.54,2.31l1.93-.38c0,4.23-2.31,3.07-2.31,4.61v.77h1.15c.77,0,.77.38.77.77v1.15h-2.7v3.08c0,.38.38.77.77.77h2.31Z"/>
      <path class="cls-11" d="M121.66,152.85v-16.53c0-1.92,2.31-4.23,2.31-5.77l2.31-.38v-41.51c0-6.53-6.54-8.84-6.54-15.37h0c0,6.53,6.54,8.84,6.54,15.37v41.51l-2.31.38c0,1.54-2.31,3.84-2.31,5.77v16.53c-.39.77-.39,1.54-1.93,1.54h0c1.54,0,1.54-.77,1.93-1.54Z"/>
      <path class="cls-11" d="M131.29,222.42h0c.77,1.54,8.08.77,10.01,1.92h0c-1.92-1.15-9.24-.39-10.01-1.92Z"/>
      <path class="cls-11" d="M114.35,217.04c-3.85,0-15.4-8.46-18.1-10.38-3.08-1.92-5.39-4.61-7.7-6.53-3.46-3.07-4.24-4.23-4.24-10.38,0-9.99.39-18.83.39-28.44,0-6.92-.77-22.68.39-28.06h0c-1.15,5.38-.39,21.14-.39,28.06,0,9.61-.39,18.45-.39,28.44,0,6.15.77,7.3,4.24,10.38,2.31,1.92,4.62,4.61,7.7,6.53,2.7,1.92,14.25,10.38,18.1,10.38.38.77,7.31,3.46,9.24,3.46,1.15.77,3.85,1.92,5.77,1.92h0c-1.93,0-4.62-1.15-5.77-1.92-1.92,0-8.85-2.69-9.24-3.46Z"/>
      <path class="cls-11" d="M94.33,129.79v-4.61c0-.38,0-.77.77-.77h0c-.77,0-.77.38-.77.77v4.61c-1.92.38-6.93,3.46-8.08,3.46h0c1.15,0,6.16-3.07,8.08-3.46Z"/>
      <path class="cls-11" d="M107.8,174.38h-.38l-.77-1.54h-.38v1.15h-.77l.38-.38-4.62-3.07c0,3.85.77,5.38,4.24,6.15v.77c0,1.15-1.54,1.54-2.31,1.54h-1.15l-.77,1.92h.38l2.7,1.92c0,2.69-1.15,3.84-1.15,5.77v.38c0,1.92.77,2.31,2.31,2.69,0,.77,0,1.15.77,1.15h1.93v-3.84l-.38-4.61v-9.99h0Z"/>
      <path class="cls-11" d="M132.06,132.86v-1.92c0-1.54-.38-2.31-.38-3.84v-1.15h-1.54l.38,3.84v2.69l1.54.38Z"/>
      <path class="cls-11" d="M132.83,55.65v1.11h.77v-.23c-.24-.17-.53-.46-.77-.88Z"/>
      <path class="cls-11" d="M132.44,113.65q0-.77-.38-1.54h-2.31l1.15.77v1.54c-.77.77-1.54,1.15-1.54,1.92v1.54h1.54v3.84h1.54v-2.69h-.38v-4.61c.77,0,.38,0,.38-.77Z"/>
      <path class="cls-11" d="M134.75,55.22v-.77h-1.15v2.07c.22.16.38.23.38.23h.39q0,.77,1.15.77v-2.31h-.77Z"/>
      <path class="cls-11" d="M128.59,82.13v1.92h.77v.39h-.77v1.92h2.31v1.92h-1.15v2.69h1.93l.38,1.54h1.54l-.38-1.54c.38-.77,1.15-.77,1.15-1.92v-1.15h-1.15v-1.92q0-.77,1.15-.77v-1.15h1.15c0-.77,1.15-2.69,1.15-2.69v-.77h1.15l-.38-5.38c0-1.54-1.93-.77-2.31-3.07l.38-6.15v-3.84c-1.15-.38-1.15-1.92-2.31-1.92h-.38c-1.54,0-1.93,1.15-1.93-1.15h.77v-2.31c0-1.15,0-2.31.38-2.69.14.14.28.23.41.35-.01-.11-.02-.22-.02-.35v-1.92c1,0,2,1.15,2.75,1.96l.33-1.96c0-1.15-2.31-5-2.31-6.92-1.15,0-1.15-.39-1.15-1.54h-.77c0,1.54-.38,2.69-.77,5l-.38,3.46h.77v3.84l-1.15-.38v14.99l-.38,2.31c-1.54.77-.77,1.92-2.7,2.31l.38,4.61,1.54,2.31ZM134.37,83.28c-1.93,0-.77.77-1.93.77h-1.15v-1.15c1.93-.39.38-.77,2.31-.77v.38h.77v.77ZM130.9,72.9l2.7.77v-.77c0-2.69-1.15-4.61-1.15-5.76v-3.46h1.15v1.15c0,1.15.77,1.15.77,2.31v.38l.38,6.92c0,3.07,1.15,3.46,1.15,5.38h-4.24c-.38,0-.77,0-.77-.77v-6.15Z"/>
      <path class="cls-11" d="M181.72,185.14c-.77-.38-3.85-4.23-3.85-5v-.77h0v.77c0,.77,3.08,4.61,3.85,5l-.38,8.07h0l.38-8.07Z"/>
      <path class="cls-11" d="M180.18,173.22c0-1.54,0-6.92.38-7.69.77-1.92,2.31-3.84,2.7-6.53h0c-.38,2.69-1.92,4.61-2.69,6.53-.38.77-.38,6.15-.38,7.69v6.15h0v-6.15Z"/>
      <path class="cls-11" d="M190.96,186.67c0-1.92.77-5.76,1.93-5.77h0c-1.15,0-1.93,3.84-1.93,5.77v1.15h0v-1.15h0Z"/>
      <path class="cls-11" d="M127.44,53.3c.38-3.08,2.06-14.02,4.24-16.91h0c-2.17,2.89-3.85,13.84-4.24,16.91-1.15,5.38-1.54,13.84-1.54,19.99h0c0-6.15.39-14.61,1.54-19.99Z"/>
      <path class="cls-11" d="M140.91,90.97v-4.23c0-2.69,4.23-14.99,5.39-16.14h0c-1.15,1.15-5.39,13.45-5.39,16.14v4.23c0,1.15.77,3.46-.77,3.46h0c1.54,0,.77-2.31.77-3.46Z"/>
      <path class="cls-11" d="M140.91,132.1v-21.52c0-1.92-.38-4.23-.77-5.77-.38-.77-2.31-3.84-2.31-4.23v-6.15h0v6.15c0,.38,1.93,3.46,2.31,4.23.38,1.54.77,3.84.77,5.77v21.52c0,.77-.77,1.92-1.54,1.92h0c.77,0,1.54-1.15,1.54-1.92Z"/>
      <path class="cls-11" d="M154,157.85l-4.24-4.61h-.38l4.24,5,.38,16.14.77,9.22.39,1.15h.77l.38-1.15c2.31-.77,1.93-5,1.93-7.69v-1.15l-.39-13.07-.77-1.15-.39-1.15-2.69-1.54Z"/>
      <path class="cls-11" d="M133.21,99.81c0-.38-.38-.77-1.15-.77h-.38c-.77,0-.77.38-.77.77v1.54h-1.15v3.46c-1.15.38-1.15,1.15-1.15,1.92,0,1.15,0,1.92,1.54,1.92v1.15h1.54l.38-2.31c-.38-.38-1.15-.77-1.15-1.15v-1.54h1.15v-.77c0-1.15-.77-.77-.77-3.07.77-.38,1.93-.38,1.93-1.15Z"/>
      <path class="cls-11" d="M145.92,168.23l1.15-2.31h1.15v-1.92h-1.15c-.38-1.54-.38-2.69-2.31-2.69-.38,1.15-1.15,2.31-1.15,4.23,0,1.15.77,1.54,1.15,2.69h1.15Z"/>
      <path class="cls-11" d="M143.61,129.4v17.3h.38l.77-8.84v-9.61c0-.77-.38-1.15-.38-1.92h-.77v3.07Z"/>
      <path class="cls-11" d="M152.46,188.98l.77,3.46c.39-.38.77,0,.77-1.15l-.38-2.31h-1.16Z"/>
      <path class="cls-11" d="M144.38,116.72l-.38-1.92-.38-8.84c-.77.38-1.93,5.77-1.93,7.3,0,1.15.38,1.15.38,2.31h.77l-.38,3.84c.77-.38,1.92-1.54,1.92-2.69Z"/>
      <path class="cls-11" d="M123.2,153.24h2.31l.38-3.08c.38-1.15.38-.38.38-1.54v-1.15h-3.08l-.38,1.54-.38,3.46c0,.77.38.77.77.77Z"/>
      <path class="cls-11" d="M147.07,96.74l1.15,1.54v.77c0,.38.38.77.77.77h1.15v-1.15c0-.77-1.15-2.69-1.54-4.23-1.15.38-1.54.77-1.54,2.31Z"/>
      <path class="cls-11" d="M157.08,189.75c-.38,0-.77,1.15-.77,1.54v1.15c0,.77.77.77,1.54.77v-2.69c0-.38-.38-.77-.77-.77Z"/>
      <path class="cls-11" d="M149,113.65v.77l-.38,6.92c0,.77.38.77.38,1.15l.38,9.99h.77v-19.99c0-.77.38-.77,1.15-1.15v-3.84c-3.08,0-2.31,3.84-2.31,6.15Z"/>
      <path class="cls-11" d="M145.15,90.97h.77c.77,0,1.93-.38,1.93-.77,0-1.15-.38-.77-.77-1.15v-4.61q1.15,0,1.15-1.15l-1.93-.77h.77l-.38-1.15.77-.38q.38,0,.38-.77v-.77h-.77v-3.07c-1.93.39-1.15,1.92-1.54,3.46v1.15c-.38.38-.77.77-.77,1.15v8.07h.38v.77Z"/>
      <path class="cls-11" d="M147.46,150.54c0,1.15,1.15,1.54,1.92,2.31v-.77c0-1.15-.77-1.54-1.92-1.54Z"/>
      <path class="cls-11" d="M142.07,100.58l.38-.77c1.93,0,.77-.38,1.93-.38h.77v-2.31l-2.7,1.15h-1.15c-.77,0,0,.38-1.54.77l1.54,1.54h.77Z"/>
      <path class="cls-11" d="M129.75,147.47h-1.54v11.53c0,.77,1.15,2.31,2.31,2.31v-3.46l-.77-5.76v-1.92c0-1.54.77-2.31,1.15-3.46h-1.15v.77Z"/>
      <polygon class="cls-11" points="142.45 170.53 141.3 170.53 140.91 186.29 140.91 187.83 141.3 191.67 141.68 191.67 142.45 185.52 142.45 170.53"/>
      <path class="cls-11" d="M147.84,179.37c0-1.92.77-6.15.39-6.53,0-1.15-4.62-2.69-5.01-2.69v1.54c0,1.92.77,1.15,1.15,2.69.77,0,2.7.77,2.7,1.54v9.23c0,.77-.77,1.54-1.15,2.31l-2.31-.38c-.77,0-1.15.38-1.15.77v1.15l3.46,1.54,1.15-.38.38,3.46v1.15l-.38,7.69v2.69c0,1.15.77,3.46,1.93,3.46,0-1.15.38-2.69.38-3.84l-1.54-19.22v-6.15h0Z"/>
      <path class="cls-11" d="M124.36,212.43v-.38h-.38v-.77h1.15c1.54.77,3.08,1.15,5.01,1.15h.77c1.15,0,0-.38,1.15-1.15v-4.23l-2.31-39.59-2.31-1.15v-1.15h-1.15c-.77-1.15-5.39-4.61-6.93-4.61-.38-1.54-2.31-3.84-4.24-3.84q-.38,0-1.15.38v3.46c.77.38,5.39,3.46,5.39,4.61h.77s1.93,1.15,2.7,1.54c-.38,2.69,0,19.99-1.93,19.99h-2.31c-.77,0-.38-.77-1.54-.77h-.38c-.77,0-1.93,1.92-1.93,1.92v.77l.38,3.84,1.54,1.15c.38.38,0,.38.77.38h3.08c-.38.77-.77,1.54-1.54,1.54h-4.24l.38,1.15c.38.77.38,1.92,1.54,1.92h2.7v.77c2.7,0,5.77,1.54,5.77,0v-1.15h-.38l-1.15-1.92-1.93-.38-1.15-.38c0-1.54,1.54-1.15,2.7-1.92h1.93c.38,1.15,1.15,1.92,1.15,3.46v1.92c0,1.54-4.62,7.3-2.7,9.99v2.31h-.77l1.15,2.31v5.77c2.31,1.15,3.85,1.92,6.93,2.31.38-.77,1.93-3.07,1.93-4.23v-1.54l-3.08-.38c-1.15-1.92-3.46-2.31-5.39-3.07Z"/>
      <path class="cls-11" d="M151.31,206.66c.77,1.15,1.15,4.23,1.92,4.23.39,0,.77,0,.77-.77v-2.69h-.77c-1.15,0,0-.77-1.92-.77Z"/>
      <path class="cls-11" d="M137.45,157.85c0-3.84.77-4.23,1.15-6.15l-1.93-.38v-3.84c0-1.15.77-2.31,1.93-2.31l.38-3.07c0-.77-1.15-1.92-1.15-2.69v-2.31h.77c0-1.92-2.7-2.31-3.08-1.92l-.77.38-2.7,1.54v.77h-.38l-.77,8.84h1.93v-1.54c0-.77.38-1.15.77-1.15h.77c1.15,0,1.15,7.3,1.15,8.84l1.15.38v1.54c-1.15.38-3.08,1.54-3.08,3.07v3.46c0,1.15.38,1.15.77,2.31h1.93c.39-2.69,1.15-2.31,1.15-5.77Z"/>
      <path class="cls-11" d="M209.82,195.13l-1.15,1.92v.38c.72-1.1.58-.54.97-1.69l.19-.61Z"/>
      <path class="cls-11" d="M138.6,198.2c-.38-3.46-.77-6.53-.77-9.99v-14.99c.77-1.54,1.15-2.69,1.15-3.84l-3.08-.38h-1.15v.77c.77,0,1.15,0,1.15.77,0,1.54-.77,2.31-.77,3.46v2.31c0,2.69,1.54,1.54,1.54,3.46v8.07l-.77,14.6v2.69l1.15,6.92h1.15c.77,0,1.54-1.15,1.54-2.31v-2.69c0-1.92-.77-3.07-.77-4.23-.38-1.54,0-3.07-.38-4.61Z"/>
      <path class="cls-12" d="M131.67,79.82h4.24c0-1.92-1.15-2.31-1.15-5.38l-.38-6.92v-.38c0-1.15-.77-1.15-.77-2.31v-1.15h-1.15v3.46c0,1.15,1.15,3.07,1.15,5.76v.77l-2.7-.77v6.15c0,.77.39.77.77.77Z"/>
      <path class="cls-12" d="M150.15,153.24h-.39l4.24,4.61,2.69,1.54.39,1.15v-1.15c-1.15-1.15-5.03-3.84-5.42-6.15l-1.51.38v-.38h0Z"/>
      <path class="cls-12" d="M133.6,56.76h.38s-.16-.07-.38-.23v.23Z"/>
      <path class="cls-12" d="M132.44,52.15v1.92c0,.12.01.23.02.35.21.2.36.46.36,1.19v.04c.24.42.53.71.77.88v-2.07h1.15v.77h0l.38-.77.06-.34c-.75-.81-1.75-1.96-2.75-1.96Z"/>
      <path class="cls-12" d="M133.6,82.13c-1.93,0-.38.38-2.31.77v1.15h1.15c1.15,0,0-.77,1.93-.77v-.77h-.77v-.38Z"/>
      <path class="cls-12" d="M195.2,186.67c.77.77,2.69,1.15,4.23,1.54,1.15.77,2.31,1.15,3.85,1.92,3.08,1.15,4.24,2.31,6.55,5h0s0,0,0,0c-2.31-2.69-3.46-3.84-6.54-5-1.54-.77-2.7-1.15-3.85-1.92-1.54-.38-3.47-.77-4.24-1.54,0-1.92-.38-5.77-2.31-5.77h0c1.92,0,2.31,3.84,2.31,5.77Z"/>
      <path class="cls-12" d="M176.33,195.51h0c-.77-3.46-1.54-4.61-4.24-6.54-1.93-1.15-4.62-2.31-8.09-2.31h0c3.46,0,6.16,1.15,8.08,2.31,2.7,1.92,3.46,3.07,4.24,6.54Z"/>
      <path class="cls-12" d="M187.88,185.9q0,.77.39,1.54.38.38,1.15.38h0q-.77,0-1.15-.38-.39-.77-.39-1.54v-1.54s1.93-3.84,2.31-5h0c-.38,1.15-2.31,5-2.31,5v1.54Z"/>
      <path class="cls-12" d="M160.55,164h0s0,0,0,0c0-1.54-2.31-3.84-3.46-4.61h0c1.16.77,3.46,3.07,3.46,4.61Z"/>
      <path class="cls-12" d="M187.11,179.37h0c0-3.84,0-7.3,0-11.53,0-2.69-3.08-6.53-3.47-8.84h0c.38,2.31,3.46,6.15,3.46,8.84v11.53Z"/>
      <path class="cls-12" d="M104.34,125.56c-1.15,2.31,0,8.07.77,9.61,1.15,2.69,2.7,5,3.85,7.3,1.93,2.69,6.93,11.91,10.78,11.91h0c-3.85,0-8.85-9.23-10.78-11.91-1.15-2.31-2.7-4.61-3.85-7.3-.77-1.54-1.92-7.3-.77-9.61-.38-.77-.38-1.15-1.15-1.15h0c.77,0,.77.38,1.16,1.15Z"/>
      <path class="cls-12" d="M136.68,63.3v8.84c0,1.15,3.85,1.15,5.01,1.15v1.92s-2.31,5.76-2.7,5.76c-1.15,2.31-2.31,2.69-2.31,6.92,0,5.76.38,11.15.38,17.3v28.44c.77,0,1.15.38,1.93.38h0c-.77,0-1.15-.38-1.93-.38v-28.44c0-6.15-.38-11.53-.38-17.3,0-4.23,1.15-4.61,2.31-6.92.38,0,2.7-5.76,2.7-5.76v-1.92c-1.15,0-5.01,0-5.01-1.15v-8.84c0-3.84-.2-4.98-.38-8.46-.16-2.86-2.8-15.75-4.62-18.45h0c1.82,2.7,4.46,15.59,4.62,18.45.19,3.47.38,4.61.38,8.46Z"/>
      <path class="cls-12" d="M150.15,80.98c1.45,4.78,1.15,6.15,1.15,12.3v1.54h0v-1.54c0-6.15.29-7.52-1.16-12.3-.73-2.41-1-2.77-1.76-5.23-.65-2.13-1.32-3.99-2.09-5.14h0c.77,1.15,1.44,3.02,2.09,5.14.76,2.46,1.03,2.82,1.76,5.23Z"/>
      <path class="cls-12" d="M197.51,207.04c-3.46,3.07-8.09,5.77-12.71,8.07-3.46,1.54-10.78,5-14.63,6.15-2.7.39-5.01,1.15-8.47,1.54-1.16.39-8.85,1.15-9.24,1.54h0c.39-.39,8.09-1.15,9.24-1.54,3.46-.38,5.77-1.15,8.47-1.54,3.85-1.15,11.16-4.61,14.63-6.15,4.62-2.31,9.24-5,12.7-8.07,2.7-1.92,9.63-7.69,11.16-9.61h0c-1.54,1.92-8.47,7.69-11.16,9.61Z"/>
      <path class="cls-12" d="M155.16,96.74l-.38,5c-.77,1.54-2.31,2.31-2.7,4.23-.77,1.54.17,4.61-.22,6.15,0,3.46-.19,10.38-.19,13.84,0,4.23-.05,22.76,0,27.29h0c-.05-4.53,0-23.06,0-27.29,0-3.46.19-10.38.19-13.84.38-1.54-.55-4.61.22-6.15.38-1.92,1.93-2.69,2.69-4.23l.38-5v-.77q0-.77-.38-1.15h0q.38.38.38,1.15v.77Z"/>
      <path class="cls-12" d="M209.82,195.13h0c-2.31-2.69-3.47-3.85-6.55-5-1.54-.77-2.69-1.15-3.85-1.92-1.54-.38-3.46-.77-4.23-1.54,0-1.92-.39-5.76-2.31-5.77-1.15,0-1.93,3.84-1.93,5.77v1.15h-1.54q-.77,0-1.15-.38-.39-.77-.39-1.54v-1.54s1.93-3.84,2.31-5h-3.08v-11.53c0-2.69-3.08-6.53-3.46-8.84h-.38c-.38,2.69-1.93,4.61-2.7,6.53-.38.77-.38,6.15-.38,7.69v6.15h-2.31v.77c0,.77,3.08,4.61,3.85,5l-.38,8.07h-2.31v2.31h-2.7c-.77-3.46-1.54-4.61-4.24-6.54-1.92-1.15-4.62-2.31-8.08-2.31-1.15,0-1.93.77-3.46.77v-23.44h0c0-1.54-2.31-3.85-3.46-4.61v1.15l.77,1.15.39,13.07v1.15c0,2.69.38,6.92-1.93,7.69l-.38,1.15h-.77l-.39-1.15-.77-9.22-.38-16.14-4.24-5h.77v.38l1.51-.38c-.05-4.53,0-23.06,0-27.29,0-3.46.19-10.38.19-13.84.39-1.54-.55-4.61.22-6.15.39-1.92,1.93-2.69,2.7-4.23l.38-5v-.77q0-.77-.38-1.15h-3.47v-1.54c0-6.15.29-7.52-1.15-12.3-.73-2.41-1-2.77-1.76-5.23-.65-2.13-1.32-3.99-2.09-5.14-1.16,1.15-5.39,13.45-5.39,16.14v4.23c0,1.15.77,3.46-.77,3.46h-2.31v6.15c0,.38,1.93,3.46,2.31,4.23.38,1.54.77,3.84.77,5.77v21.52c0,.77-.77,1.92-1.54,1.92h-.39c-.77,0-1.15-.38-1.93-.38v-28.44c0-6.15-.38-11.53-.38-17.3,0-4.23,1.15-4.61,2.31-6.92.38,0,2.7-5.76,2.7-5.76v-1.92c-1.15,0-5.01,0-5.01-1.15v-8.84c0-3.84-.2-4.98-.38-8.46-.16-2.86-2.8-15.75-4.62-18.45-2.17,2.89-3.85,13.84-4.24,16.91-1.15,5.38-1.54,13.84-1.54,19.99h-6.16c0,6.53,6.54,8.84,6.54,15.37v41.51l-2.31.38c0,1.54-2.31,3.84-2.31,5.77v16.53c-.38.77-.38,1.54-1.93,1.54h0c-3.85,0-8.85-9.23-10.78-11.91-1.15-2.31-2.7-4.61-3.85-7.3-.77-1.54-1.93-7.3-.77-9.61-.38-.77-.38-1.15-1.15-1.15h-8.08c-.77,0-.77.38-.77.77v4.61c-1.93.38-6.93,3.46-8.08,3.46h-1.15c-1.15,5.38-.39,21.14-.39,28.06,0,9.61-.39,18.45-.39,28.44,0,6.15.77,7.3,4.24,10.38,2.31,1.92,4.62,4.61,7.7,6.53,2.69,1.92,14.24,10.38,18.1,10.38.38.77,7.32,3.46,9.24,3.46,1.15.77,3.85,1.92,5.77,1.92h1.93c.77,1.54,8.09.77,10.01,1.92h11.16c.38-.39,8.08-1.15,9.24-1.54,3.46-.38,5.77-1.15,8.47-1.54,3.85-1.15,11.16-4.61,14.63-6.15,4.62-2.31,9.24-5,12.71-8.07,2.7-1.92,9.62-7.69,11.16-9.61h0v-.39l1.16-1.92ZM100.49,159v-3.07h2.7v-1.15c0-.38,0-.77-.77-.77h-1.15v-.77c0-1.54,2.31-.38,2.31-4.61l-1.93.38c0-1.54.38-2.31,1.54-2.31l.38-2.31h1.93v-.77c-1.15-.38-1.54-.38-1.54-1.15v-1.15q0-.77.38-1.54h.38l2.7,5.38h-2.7c0,2.31.77,1.54.77,3.07v1.54c0,3.84-.38,6.92-.38,10.38s1.15,6.15,1.15,8.84v2.31c-1.93,0-5.01-1.54-5.01-3.07v-2.69c0-1.54.38-1.92.77-3.07h.77c.38,0,.77-.38.77-1.15v-1.54h-2.31c-.38,0-.77-.38-.77-.77ZM108.19,192.82h-1.93c-.77,0-.77-.38-.77-1.15-1.54-.38-2.31-.77-2.31-2.69v-.38c0-1.92,1.15-3.07,1.15-5.77l-2.7-1.92h-.38l.77-1.92h1.15c.77,0,2.31-.38,2.31-1.54v-.77c-3.46-.77-4.24-2.31-4.24-6.15l4.62,3.07-.38.38h.77v-1.15h.38l.77,1.54h.38v9.99l.38,4.61v3.84h0ZM129.36,72.9l.38-2.31v-14.99l1.15.38v-3.84h-.77l.38-3.46c.38-2.31.77-3.46.77-5h.77c0,1.15,0,1.54,1.15,1.54,0,1.92,2.31,5.77,2.31,6.92l-.33,1.96c.12.12.23.24.33.34l-.38.77h.38v2.31q-1.15,0-1.15-.77h-1.54v-1.11c-.18-.32-.32-.73-.36-1.23-.12-.11-.26-.2-.41-.35-.38.38-.38,1.54-.38,2.69v2.31h-.77c0,2.31.38,1.15,1.93,1.15h.38c1.15,0,1.15,1.54,2.31,1.92v3.84l-.38,6.15c.38,2.31,2.31,1.54,2.31,3.07l.38,5.38h-1.15v.77s-1.15,1.92-1.15,2.69h-1.15v1.15q-1.15,0-1.15.77v1.92h1.15v1.15c0,1.15-.77,1.15-1.15,1.92l.38,1.54h-1.54l-.38-1.54h-1.93v-2.69h1.15v-1.92h-2.31v-1.92h.77v-.39h-.77v-1.92l-1.54-2.31-.38-4.61c1.93-.39,1.16-1.54,2.7-2.31ZM132.44,119.03v2.69h-1.54v-3.84h-1.54v-1.54c0-.77.77-1.15,1.54-1.92v-1.54l-1.15-.77h2.31q.38.77.38,1.54c0,.77.38.77-.38.77v4.61h.38ZM130.13,125.95h1.54v1.15c0,1.54.38,2.31.38,3.84v1.92l-1.54-.38v-2.69l-.38-3.84ZM131.29,100.96c0,2.31.77,1.92.77,3.07v.77h-1.15v1.54c0,.38.77.77,1.15,1.15l-.38,2.31h-1.54v-1.15c-1.54,0-1.54-.77-1.54-1.92,0-.77,0-1.54,1.15-1.92v-3.46h1.15v-1.54c0-.38,0-.77.77-.77h.38c.77,0,1.15.38,1.15.77,0,.77-1.15.77-1.93,1.15ZM122.82,149.01l.38-1.54h3.08v1.15c0,1.15,0,.38-.38,1.54l-.38,3.08h-2.31c-.38,0-.77,0-.77-.77l.39-3.46ZM132.83,217.42c0,1.15-1.54,3.46-1.93,4.23-3.08-.39-4.62-1.15-6.93-2.31v-5.77l-1.15-2.31h.77v-2.31c-1.93-2.69,2.7-8.46,2.7-9.99v-1.92c0-1.54-.77-2.31-1.15-3.46h-1.93c-1.15.77-2.7.38-2.7,1.92l1.15.38,1.93.38,1.15,1.92h.38v1.15c0,1.54-3.08,0-5.77,0v-.77h-2.7c-1.15,0-1.15-1.15-1.54-1.92l-.38-1.15h4.24c.77,0,1.15-.77,1.54-1.54h-3.08c-.77,0-.38,0-.77-.38l-1.54-1.15-.38-3.84v-.77s1.15-1.92,1.93-1.92h.38c1.15,0,.77.77,1.54.77h2.31c1.93,0,1.54-17.3,1.93-19.99-.77-.38-2.7-1.54-2.7-1.54h-.77c0-1.15-4.62-4.23-5.39-4.61v-3.46q.77-.38,1.15-.38c1.93,0,3.85,2.31,4.24,3.84,1.54,0,6.16,3.46,6.93,4.61h1.15v1.15l2.31,1.15,2.31,39.59v4.23c-1.15.77,0,1.15-1.15,1.15h-.77c-1.93,0-3.46-.38-5.01-1.15l-1.54-2.31v2.31l.26.55.51.6c1.93.77,4.24,1.15,5.39,3.08l3.08.38v1.54h0ZM133.6,161.31v-3.46c0-1.54,1.93-2.69,3.08-3.07v-1.54l-1.15-.38c0-1.54,0-8.84-1.15-8.84h-.77c-.38,0-.77.38-.77,1.15v1.54h-1.93c-.38,1.15-1.15,1.92-1.15,3.46v1.92l.77,5.76v3.46c-1.15,0-2.31-1.54-2.31-2.31v-11.53h1.54v-.77h1.15l.77-8.84h.38v-.77l2.7-1.54.77-.38c.38-.38,3.08,0,3.08,1.92h-.77v2.31c0,.77,1.15,1.92,1.15,2.69l-.38,3.07c-1.15,0-1.93,1.15-1.93,2.31v3.84l1.93.38c-.38,1.92-1.15,2.31-1.15,6.15,0,3.46-.77,3.07-1.15,5.77h-1.93c-.39-1.15-.77-1.15-.77-2.31ZM139.76,209.74c0,1.15-.77,2.31-1.54,2.31h-1.15l-1.15-6.92v-2.69l.77-14.6v-8.07c0-1.92-1.54-.77-1.54-3.46v-2.31c0-1.15.77-1.92.77-3.46,0-.77-.38-.77-1.15-.77v-.77h1.15l3.08.38c0,1.15-.38,2.31-1.15,3.84v14.99c0,3.46.38,6.53.77,9.99.38,1.54,0,3.07.38,4.61,0,1.15.77,2.31.77,4.23v2.69h0ZM149.38,152.85c-.77-.77-1.92-1.15-1.92-2.31,1.15,0,1.92.38,1.92,1.54v.77ZM142.07,115.57c0-1.15-.38-1.15-.38-2.31,0-1.54,1.15-6.92,1.93-7.3l.38,8.84.38,1.92c0,1.15-1.15,2.31-1.93,2.69l.38-3.84h-.77ZM144.76,128.25v9.61l-.77,8.84h-.38v-20.37h.77c0,.77.38,1.15.38,1.92ZM144.76,161.31c1.93,0,1.93,1.15,2.31,2.69h1.15v1.92h-1.15l-1.15,2.31h-1.15c-.38-1.15-1.15-1.54-1.15-2.69,0-1.92.77-3.08,1.15-4.23ZM151.31,107.5v3.84c-.77.38-1.15.38-1.15,1.15v19.99h-.77l-.38-9.99c0-.38-.38-.38-.38-1.15l.38-6.92v-.77c0-2.31-.77-6.15,2.31-6.15ZM148.61,94.43c.38,1.54,1.54,3.46,1.54,4.23v1.15h-1.15c-.38,0-.77-.38-.77-.77v-.77l-1.15-1.54c0-1.54.39-1.92,1.54-2.31ZM144.76,82.13c0-.39.38-.77.77-1.15v-1.15c.38-1.54-.38-3.07,1.54-3.46v3.07h.77v.77q0,.77-.38.77l-.77.38.38,1.15h-.77l1.93.77q0,1.15-1.15,1.15v4.61c.38.38.77,0,.77,1.15,0,.39-1.15.77-1.93.77h-.77v-.77h-.38v-8.07ZM139.76,99.04c1.54-.38.77-.77,1.54-.77h1.15l2.7-1.15v2.31h-.77c-1.15,0,0,.38-1.93.38l-.38.77h-.77l-1.54-1.54ZM141.3,191.67l-.38-3.84v-1.54l.38-15.76h1.15v14.99l-.77,6.15h-.38ZM149,208.58c-1.15,0-1.93-2.31-1.93-3.46v-2.69l.38-7.69v-1.15l-.38-3.46-1.15.38-3.46-1.54v-1.15c0-.38.38-.77,1.15-.77l2.31.38c.38-.77,1.15-1.54,1.15-2.31v-9.23c0-.77-1.93-1.54-2.7-1.54-.38-1.54-1.15-.77-1.15-2.69v-1.54c.38,0,5.01,1.54,5.01,2.69.38.38-.39,4.61-.39,6.53v6.15l1.54,19.22c0,1.15-.38,2.69-.38,3.84ZM154,210.12c0,.77-.38.77-.77.77-.77,0-1.15-3.08-1.92-4.23,1.92,0,.77.77,1.92.77h.77v2.69ZM153.23,192.44l-.77-3.46h1.15l.38,2.31c0,1.15-.38.77-.77,1.15ZM157.85,193.21c-.77,0-1.54,0-1.54-.77v-1.15c0-.38.39-1.54.77-1.54s.77.38.77.77v2.69h0Z"/>
      <polygon class="cls-12" points="150.15 153.62 151.66 153.24 151.66 153.24 150.15 153.62"/>
      <path class="cls-12" d="M132.46,54.42c.05.5.18.91.36,1.23v-.04c0-.73-.15-1-.36-1.19Z"/>
      <path class="cls-12" d="M134.75,55.22h.38l.38-.77c-.1-.1-.21-.22-.33-.34l-.06.34-.39.77Z"/>
    </g>
  </g>
</svg>