<?xml version="1.0" encoding="UTF-8"?>
<svg id="Layer_2" data-name="Layer 2" xmlns="http://www.w3.org/2000/svg" viewBox="0 0 137.12 201.38">
  <defs>
    <style>
      .cls-1 {
        fill: #fde9f1;
      }

      .cls-2 {
        fill: #76b043;
      }

      .cls-3 {
        fill: #009dd9;
      }
    </style>
  </defs>
  <g id="Layer_1-2" data-name="Layer 1">
    <g>
      <g>
        <path class="cls-2" d="M68.13,0c-.86,0-1.69.1-2.54.12l-.05-.12H28.02v.05h.87v14.33h37.19l.04.1c.67-.02,1.32-.1,2-.1,29.61,0,53.63,23.81,53.63,53.19s-24.01,53.19-53.63,53.19S14.5,96.94,14.5,67.57c0-.65.08-1.3.1-1.94h-.1V28.93H0v36.16l.13.02C.1,65.92,0,66.74,0,67.57,0,104.89,30.51,135.14,68.13,135.14s68.13-30.25,68.13-67.57c0-37.32-30.5-67.57-68.13-67.57Z"/>
        <path class="cls-3" d="M68.53,28.28c-.5,0-.98.05-1.48.07l-.03-.07h-11.77V0h-27.25l-.03,28.6H0v26.77h28.76v12.13c0,9.29,3.72,19.21,9.56,26.82s20,12.39,27.7,12.39h1.5c.33,0,.67.02,1,.02.86,0,1.72-.04,2.57-.09,2.3-.1,4.59-.39,7.18-1.11,5.84-1.47,11.16-4.23,15.64-7.95,3.3-2.5,5.83-5.53,7.78-8.71,4.03-6.15,6.39-13.48,6.39-21.36,0-21.67-17.71-39.23-39.55-39.23ZM67.66,81.08c-7.06,0-12.79-5.68-12.79-12.68,0-.16.02-.31.02-.46h-.02v-12.22h12.3v.02c.17,0,.33-.02.49-.02,7.07,0,12.79,5.68,12.79,12.69,0,7-5.73,12.68-12.79,12.68Z"/>
        <path class="cls-2" d="M6.8,1.88s9.79.48,15.88,9.09c6.09,8.61,5.31,17.62,5.31,17.62,0,0-11.11-2.08-16.69-9.75C5.71,11.18,6.8,1.88,6.8,1.88Z"/>
        <path class="cls-1" d="M49.24,1.88s-9.79.48-15.88,9.09c-6.09,8.61-5.31,17.62-5.31,17.62,0,0,11.11-2.08,16.69-9.75,5.59-7.66,4.5-16.96,4.5-16.96Z"/>
      </g>
      <g>
        <path d="M60.97,153.61v-6.16h-1.38v-1.35h4.18v1.35h-1.4v6.16h-1.39Z"/>
        <path d="M64.53,153.61v-1.35h1.35v1.35h-1.35Z"/>
        <path d="M72.71,151.56h1.62c-.28.67-.74,1.21-1.4,1.62-.65.41-1.35.61-2.09.61-1.07,0-1.99-.39-2.75-1.17-.76-.77-1.14-1.7-1.14-2.78s.38-1.98,1.14-2.74c.76-.77,1.66-1.15,2.71-1.15.77,0,1.48.2,2.14.61.67.43,1.15.99,1.43,1.68h-1.59c-.52-.62-1.17-.94-1.97-.94-.68,0-1.27.26-1.75.77-.48.51-.72,1.12-.72,1.83s.25,1.26.74,1.77c.49.51,1.07.77,1.74.77.71,0,1.34-.29,1.89-.87Z"/>
        <path d="M75.31,153.61v-1.35h1.35v1.35h-1.35Z"/>
      </g>
      <g>
        <g>
          <path d="M1.31,199.36v-9.3h2.18c.93,0,1.64.16,2.11.47.73.48,1.1,1.14,1.1,2,0,.76-.35,1.38-1.03,1.86,1.02.42,1.54,1.2,1.54,2.34,0,.43-.1.83-.31,1.21-.2.38-.48.69-.84.91-.36.23-.77.37-1.23.44-.27.04-.71.06-1.32.06H1.31ZM2.24,194.04h1.01c.83,0,1.42-.09,1.76-.28.23-.12.41-.3.55-.54.14-.24.21-.5.21-.76,0-.55-.25-.98-.74-1.28-.3-.18-.87-.28-1.7-.28h-1.08v3.14h0ZM2.24,198.52h1.15c.95,0,1.6-.09,1.96-.28.26-.14.48-.35.65-.63.17-.28.26-.57.26-.87,0-.85-.39-1.41-1.16-1.67-.36-.13-.98-.19-1.88-.19h-.98v3.64h0Z"/>
          <path d="M8.53,190.06h.93v5.65c0,.85.14,1.5.43,1.95.41.64,1.02.97,1.81.97.73,0,1.3-.28,1.71-.84.35-.47.52-1.16.52-2.08v-5.65h.93v5.65c0,1.15-.23,2.03-.69,2.63-.6.79-1.43,1.18-2.47,1.18s-1.83-.37-2.43-1.11c-.49-.6-.74-1.51-.74-2.71v-5.65h0ZM10.31,187.64h.93v1.59h-.93v-1.59ZM12.16,187.64h.93v1.59h-.93v-1.59Z"/>
          <path d="M19.08,199.36v-3.11l-3.23-6.2h1.02l2.68,5.23,2.68-5.23h1.02l-3.24,6.2v3.11h-.93Z"/>
          <path d="M24.23,190.06h.93v5.65c0,.85.14,1.5.43,1.95.41.64,1.02.97,1.81.97.73,0,1.3-.28,1.71-.84.35-.47.52-1.16.52-2.08v-5.65h.93v5.65c0,1.15-.23,2.03-.69,2.63-.6.79-1.43,1.18-2.47,1.18s-1.83-.37-2.43-1.11c-.49-.6-.74-1.51-.74-2.71v-5.65h0ZM26.01,187.64h.93v1.59h-.93v-1.59ZM27.86,187.64h.93v1.59h-.93v-1.59Z"/>
          <path d="M32.48,199.36v-9.3h.93v5.35l4.29-5.35h1.18l-3.68,4.53,3.68,4.77h-1.16l-3.11-4.03-1.21,1.48v2.54h-.93Z"/>
          <path d="M39.24,196.76h.99c.02.52.2.96.56,1.33.36.36.79.55,1.3.55s.99-.17,1.37-.52c.37-.35.56-.79.56-1.32s-.21-.97-.64-1.32c-.3-.23-.77-.44-1.44-.62-.39-.1-.68-.19-.86-.27-.31-.12-.57-.27-.78-.44-.52-.45-.78-1.02-.78-1.74s.26-1.34.78-1.81c.49-.46,1.11-.69,1.86-.69s1.32.24,1.82.73c.5.49.74,1.08.74,1.79h-.97c-.03-.48-.2-.87-.52-1.17-.31-.3-.7-.45-1.18-.45-.45,0-.82.16-1.13.48-.31.32-.46.7-.46,1.15,0,.49.19.88.58,1.15.23.16.65.32,1.26.49.49.14.8.23.94.29.32.13.6.3.84.5.58.51.87,1.16.87,1.95s-.28,1.4-.85,1.93c-.56.53-1.23.79-1.99.79-.81,0-1.49-.26-2.05-.79-.56-.53-.84-1.19-.83-1.98Z"/>
          <path d="M46.19,199.36v-9.3h5.09v.84h-4.15v3.35h4.02v.84h-4.02v3.42h4.15v.84h-5.09Z"/>
          <path d="M52.94,199.36v-9.3h.93v4.09h4.82v-4.09h.93v9.3h-.93v-4.37h-4.82v4.37h-.93Z"/>
          <path d="M61.54,199.36v-9.3h.93v9.3h-.93Z"/>
          <path d="M64.39,199.36v-9.3h2.22c1.23,0,2.11.15,2.64.45.97.55,1.45,1.41,1.45,2.58,0,.76-.27,1.41-.81,1.95s-1.18.83-1.94.84l2.62,3.48h-1.16l-3.16-4.22h.28c.98,0,1.66-.08,2.03-.25.81-.37,1.21-1,1.21-1.89,0-.7-.29-1.25-.87-1.66-.42-.29-1.12-.44-2.1-.44h-1.47v8.46h-.93Z"/>
          <path d="M75.52,199.36v-9.3h2.18c.93,0,1.64.16,2.11.47.73.48,1.1,1.14,1.1,2,0,.76-.35,1.38-1.03,1.86,1.02.42,1.54,1.2,1.54,2.34,0,.43-.1.83-.31,1.21-.21.38-.49.69-.84.91-.36.23-.77.37-1.23.44-.27.04-.71.06-1.32.06h-2.19ZM76.45,194.04h1.01c.83,0,1.42-.09,1.76-.28.23-.12.41-.3.55-.54.14-.24.21-.5.21-.76,0-.55-.25-.98-.74-1.28-.3-.18-.87-.28-1.7-.28h-1.08v3.14h0ZM76.45,198.52h1.15c.95,0,1.6-.09,1.96-.28.26-.14.48-.35.65-.63.17-.28.26-.57.26-.87,0-.85-.39-1.41-1.16-1.67-.36-.13-.98-.19-1.88-.19h-.98v3.64h0Z"/>
          <path d="M82.75,199.36v-9.3h5.09v.84h-4.15v3.35h4.02v.84h-4.02v3.42h4.15v.84h-5.09Z"/>
          <path d="M89.5,199.36v-9.3h.93v8.46h3.85v.84h-4.79Z"/>
          <path d="M95.31,199.36v-9.3h5.09v.84h-4.16v3.35h4.02v.84h-4.02v3.42h4.16v.84h-5.09Z"/>
          <path d="M102.06,199.36v-9.3h2.51c1.55,0,2.76.36,3.65,1.08.53.43.94.96,1.25,1.59.3.63.45,1.29.45,1.96,0,1.38-.51,2.53-1.52,3.46-.51.47-1.1.8-1.76.98-.53.15-1.2.23-2,.23h-2.57ZM102.99,198.52h1.2c.76,0,1.35-.04,1.75-.13.6-.12,1.14-.36,1.61-.73.96-.76,1.44-1.75,1.44-2.97s-.48-2.19-1.45-2.95c-.46-.36-.99-.6-1.6-.72-.4-.09-.99-.13-1.75-.13h-1.2v7.62h0Z"/>
          <path d="M111.43,199.36v-9.3h.93v9.3h-.93Z"/>
          <path d="M116.58,199.36v-3.11l-3.24-6.2h1.02l2.68,5.23,2.68-5.23h1.02l-3.24,6.2v3.11h-.93Z"/>
          <path d="M121.73,199.36v-9.3h5.09v.84h-4.16v3.35h4.02v.84h-4.02v3.42h4.16v.84h-5.09Z"/>
          <path d="M127.8,196.76h1c.02.52.2.96.56,1.33.36.36.79.55,1.3.55.54,0,.99-.17,1.37-.52.37-.35.56-.79.56-1.32s-.21-.97-.64-1.32c-.29-.23-.77-.44-1.44-.62-.39-.1-.68-.19-.86-.27-.31-.12-.57-.27-.78-.44-.52-.45-.78-1.02-.78-1.74s.26-1.34.78-1.81c.5-.46,1.12-.69,1.86-.69s1.32.24,1.82.73c.5.49.74,1.08.73,1.79h-.97c-.03-.48-.2-.87-.52-1.17-.31-.3-.7-.45-1.18-.45-.44,0-.82.16-1.13.48-.31.32-.47.7-.47,1.15,0,.49.19.88.58,1.15.23.16.65.32,1.26.49.49.14.8.23.94.29.32.13.6.3.84.5.58.51.87,1.16.87,1.95s-.28,1.4-.84,1.93c-.56.53-1.23.79-1.99.79-.81,0-1.49-.26-2.05-.79-.56-.53-.84-1.19-.83-1.98Z"/>
          <path d="M134.75,199.36v-9.3h.93v9.3h-.93Z"/>
        </g>
        <path d="M40.86,201.19v-.58c.22.06.43.11.62.14s.36.05.5.05c.12,0,.21-.02.27-.07.06-.05.09-.12.09-.23,0-.09-.04-.15-.12-.2-.08-.04-.2-.06-.37-.06-.06,0-.11,0-.14,0-.03,0-.06,0-.09,0v-.88h.48v.35h.08c.31,0,.54.07.7.21.16.14.24.33.24.59,0,.28-.09.49-.27.64-.18.15-.44.23-.78.23-.17,0-.35-.02-.56-.05-.2-.03-.42-.08-.65-.14Z"/>
        <rect x="111.41" y="187.67" width=".93" height="1.59"/>
        <rect x="61.57" y="187.67" width=".93" height="1.59"/>
        <rect x="134.72" y="187.67" width=".93" height="1.59"/>
      </g>
      <g>
        <path d="M5.37,183.13v-17.61H1.42v-3.86h11.94v3.86h-4.01v17.61h-3.98Z"/>
        <path d="M15.39,183.13v-21.47h11.53v3.86h-7.55v4.94h7.23v3.86h-7.23v4.94h7.55v3.86h-11.53Z"/>
        <path d="M30.5,183.13v-21.47h3.98v9.3l6.68-9.3h4.77l-8.11,10.55,8.11,10.92h-4.77l-6.68-9.41v9.41h-3.98Z"/>
        <path d="M48.54,183.13v-21.47h3.98v21.47h-3.98Z"/>
        <path d="M56.65,183.13v-21.47h6.22c2.52,0,4.38.5,5.58,1.51,1.67,1.39,2.5,3.16,2.5,5.29,0,.79-.17,1.63-.49,2.5-.33.87-.76,1.6-1.28,2.18-.93,1.03-2.2,1.71-3.81,2.06l5.81,7.93h-4.91l-5.64-8.22v8.22h-3.98ZM60.63,171.88h2.18c1.49,0,2.56-.31,3.2-.93.64-.62.96-1.39.96-2.3,0-1.03-.39-1.83-1.16-2.41-.66-.48-1.65-.73-2.96-.73h-2.21v6.36h0Z"/>
        <path d="M73.5,183.13v-21.47h4.5c4.03,0,7.03.83,9.01,2.5,1.14.97,2.04,2.21,2.7,3.73s.99,3.05.99,4.6-.33,3.01-.99,4.49c-.66,1.48-1.57,2.72-2.73,3.7-1.16.99-2.56,1.67-4.18,2.03-1.2.27-2.77.41-4.71.41h-4.59ZM77.48,179.26h.49c1.41,0,2.49-.07,3.23-.2,1.12-.21,2.1-.63,2.93-1.25,1.72-1.3,2.59-3.07,2.59-5.32,0-2.5-.95-4.4-2.85-5.69-1.24-.85-3.27-1.28-6.1-1.28h-.29v13.74Z"/>
        <path d="M92.06,183.13l8.95-21.47h3.11l9.04,21.47h-4.39l-2.32-5.55h-7.61l-2.38,5.55h-4.39ZM100.29,173.71h4.59l-2.3-6.51-2.29,6.51Z"/>
        <path d="M52.42,157.59c0,1.07-.86,1.93-1.93,1.93s-1.93-.87-1.93-1.93.87-1.93,1.93-1.93c1.07,0,1.93.87,1.93,1.93Z"/>
        <path d="M123.19,155.79c.21,1.13,1.07,2.01,2.49,2.01,1.63,0,2.39-1.05,2.49-2.01h1.8c0,2.15-1.7,3.6-4.29,3.6-3.05,0-4.29-1.8-4.29-3.6h1.8Z"/>
        <path d="M127.07,172.18v3.75h5.03c-.58,1.14-1.46,2.07-2.63,2.79s-2.39,1.07-3.65,1.07c-2.15,0-4-.8-5.55-2.41-1.38-1.43-2.06-3.1-2.06-5,0-.99.23-1.97.68-2.95.45-.98,1.05-1.8,1.79-2.45,1.41-1.24,3.07-1.86,4.97-1.86,1.08,0,2.14.26,3.15.77,1.02.51,1.85,1.21,2.48,2.08h4.77c-.8-2.01-2.19-3.65-4.18-4.91-1.92-1.2-3.99-1.8-6.22-1.8-3.12,0-5.8,1.09-8.05,3.28-2.25,2.19-3.37,4.85-3.37,7.99s1.14,5.76,3.43,7.93c2.23,2.13,4.91,3.2,8.05,3.2s5.8-1.06,8.05-3.18c2.25-2.12,3.37-4.73,3.37-7.83v-.46h-10.06Z"/>
      </g>
    </g>
  </g>
</svg>