<?xml version="1.0" encoding="iso-8859-1"?>
<!-- Generator: Adobe Illustrator 29.7.1, SVG Export Plug-In . SVG Version: 9.03 Build 0)  -->
<svg version="1.1" id="Layer_1" xmlns="http://www.w3.org/2000/svg" xmlns:xlink="http://www.w3.org/1999/xlink" x="0px" y="0px"
	 viewBox="0 0 841.89 595.28" style="enable-background:new 0 0 841.89 595.28;" xml:space="preserve">
<g>
	<g>
		<path d="M355.938,236.654l1.14,3.262c0.192,0.528,0.348,1.008,0.468,1.487h0.036c0.132-0.48,0.3-0.959,0.492-1.487l1.127-3.262
			h1.103l-2.279,5.805h-1.007l-2.207-5.805H355.938z"/>
		<path d="M361.77,239.748c0.024,1.428,0.935,2.016,1.991,2.016c0.755,0,1.212-0.132,1.607-0.3l0.18,0.755
			c-0.372,0.168-1.007,0.36-1.931,0.36c-1.787,0-2.855-1.176-2.855-2.927c0-1.751,1.032-3.13,2.723-3.13
			c1.895,0,2.399,1.667,2.399,2.734c0,0.216-0.024,0.384-0.036,0.491H361.77z M364.864,238.993c0.012-0.672-0.276-1.715-1.463-1.715
			c-1.067,0-1.535,0.983-1.619,1.715H364.864z"/>
		<path d="M368.237,239.316h0.024c0.144-0.203,0.348-0.455,0.516-0.659l1.703-2.003h1.271l-2.242,2.387l2.555,3.418h-1.283
			l-2.003-2.782l-0.54,0.6v2.183h-1.043v-8.516h1.043V239.316z"/>
		<path d="M374.093,234.987v1.667h1.512v0.804h-1.512v3.13c0,0.72,0.204,1.128,0.792,1.128c0.275,0,0.479-0.036,0.611-0.072
			l0.048,0.791c-0.203,0.084-0.527,0.145-0.935,0.145c-0.491,0-0.887-0.156-1.139-0.444c-0.3-0.311-0.408-0.827-0.408-1.511v-3.166
			h-0.899v-0.804h0.899v-1.392L374.093,234.987z"/>
		<path d="M381.976,239.508c0,2.146-1.487,3.082-2.891,3.082c-1.571,0-2.782-1.151-2.782-2.986c0-1.943,1.27-3.082,2.878-3.082
			C380.848,236.522,381.976,237.733,381.976,239.508z M377.37,239.568c0,1.271,0.732,2.231,1.763,2.231
			c1.008,0,1.763-0.948,1.763-2.255c0-0.983-0.491-2.231-1.738-2.231C377.909,237.313,377.37,238.464,377.37,239.568z"/>
		<path d="M383.31,238.464c0-0.684-0.013-1.271-0.049-1.811h0.924l0.036,1.14h0.048c0.264-0.78,0.899-1.271,1.608-1.271
			c0.12,0,0.204,0.012,0.3,0.036v0.995c-0.108-0.024-0.216-0.036-0.36-0.036c-0.743,0-1.27,0.563-1.415,1.355
			c-0.023,0.143-0.048,0.311-0.048,0.491v3.095h-1.043V238.464z"/>
		<path d="M387.701,239.748c0.024,1.428,0.935,2.016,1.991,2.016c0.756,0,1.211-0.132,1.607-0.3l0.18,0.755
			c-0.372,0.168-1.008,0.36-1.931,0.36c-1.787,0-2.854-1.176-2.854-2.927c0-1.751,1.031-3.13,2.723-3.13
			c1.895,0,2.398,1.667,2.398,2.734c0,0.216-0.024,0.384-0.036,0.491H387.701z M390.796,238.993
			c0.012-0.672-0.276-1.715-1.463-1.715c-1.067,0-1.535,0.983-1.619,1.715H390.796z"/>
		<path d="M393.126,233.943h1.055v8.516h-1.055V233.943z"/>
		<path d="M400.096,242.243c-0.276,0.143-0.888,0.336-1.668,0.336c-1.751,0-2.89-1.188-2.89-2.963c0-1.787,1.223-3.082,3.118-3.082
			c0.623,0,1.175,0.156,1.463,0.3l-0.239,0.815c-0.252-0.143-0.648-0.275-1.224-0.275c-1.331,0-2.051,0.983-2.051,2.194
			c0,1.344,0.863,2.171,2.015,2.171c0.6,0,0.995-0.156,1.295-0.288L400.096,242.243z"/>
		<path d="M402.509,235.023c0.012,0.359-0.252,0.647-0.672,0.647c-0.371,0-0.636-0.288-0.636-0.647c0-0.372,0.276-0.66,0.66-0.66
			C402.257,234.363,402.509,234.651,402.509,235.023z M401.334,242.458v-5.805h1.055v5.805H401.334z"/>
		<path d="M403.482,241.847l2.627-3.419c0.252-0.312,0.491-0.587,0.755-0.899v-0.023h-3.142v-0.852h4.425l-0.012,0.659l-2.591,3.37
			c-0.239,0.324-0.479,0.612-0.743,0.912v0.023h3.395v0.84h-4.714V241.847z"/>
		<path d="M410.453,235.023c0.012,0.359-0.252,0.647-0.672,0.647c-0.371,0-0.636-0.288-0.636-0.647c0-0.372,0.276-0.66,0.66-0.66
			C410.201,234.363,410.453,234.651,410.453,235.023z M409.278,242.458v-5.805h1.055v5.805H409.278z"/>
		<path d="M412.086,238.225c0-0.6-0.013-1.092-0.049-1.571h0.924l0.048,0.936h0.036c0.324-0.552,0.863-1.067,1.823-1.067
			c0.791,0,1.391,0.479,1.642,1.163h0.025c0.18-0.324,0.407-0.575,0.647-0.756c0.348-0.264,0.732-0.407,1.283-0.407
			c0.768,0,1.907,0.504,1.907,2.518v3.418h-1.031v-3.286c0-1.115-0.408-1.787-1.26-1.787c-0.6,0-1.067,0.443-1.247,0.96
			c-0.048,0.144-0.084,0.335-0.084,0.527v3.586h-1.031v-3.479c0-0.923-0.408-1.595-1.212-1.595c-0.659,0-1.139,0.527-1.307,1.056
			c-0.061,0.155-0.084,0.336-0.084,0.516v3.502h-1.031V238.225z"/>
		<path d="M421.842,241.835c0-0.443,0.3-0.755,0.72-0.755c0.419,0,0.707,0.311,0.707,0.755c0,0.432-0.275,0.756-0.72,0.756
			C422.129,242.59,421.842,242.266,421.842,241.835z"/>
		<path d="M424.578,238.225c0-0.6-0.013-1.092-0.049-1.571h0.935l0.061,0.959h0.023c0.288-0.552,0.96-1.091,1.919-1.091
			c0.804,0,2.051,0.479,2.051,2.471v3.466h-1.055v-3.346c0-0.936-0.348-1.716-1.344-1.716c-0.695,0-1.235,0.492-1.415,1.08
			c-0.048,0.132-0.072,0.312-0.072,0.491v3.49h-1.055V238.225z"/>
		<path d="M431.824,239.748c0.024,1.428,0.936,2.016,1.991,2.016c0.756,0,1.211-0.132,1.607-0.3l0.18,0.755
			c-0.372,0.168-1.008,0.36-1.931,0.36c-1.787,0-2.854-1.176-2.854-2.927c0-1.751,1.031-3.13,2.723-3.13
			c1.895,0,2.398,1.667,2.398,2.734c0,0.216-0.024,0.384-0.036,0.491H431.824z M434.919,238.993
			c0.012-0.672-0.276-1.715-1.463-1.715c-1.067,0-1.535,0.983-1.619,1.715H434.919z"/>
		<path d="M438.52,234.987v1.667h1.512v0.804h-1.512v3.13c0,0.72,0.204,1.128,0.792,1.128c0.275,0,0.479-0.036,0.611-0.072
			l0.048,0.791c-0.203,0.084-0.527,0.145-0.936,0.145c-0.491,0-0.887-0.156-1.139-0.444c-0.3-0.311-0.408-0.827-0.408-1.511v-3.166
			h-0.9v-0.804h0.9v-1.392L438.52,234.987z"/>
	</g>
	<g>
		<g>
			<path style="fill:#76B043;" d="M420.59,196.86c-0.863,0-1.693,0.096-2.543,0.125l-0.051-0.125h-37.512v0.054h0.871v14.327h37.191
				l0.04,0.099c0.669-0.023,1.323-0.099,2.003-0.099c29.614,0,53.627,23.811,53.627,53.188c0,29.374-24.013,53.186-53.627,53.186
				c-29.616,0-53.628-23.812-53.628-53.186c0-0.655,0.075-1.296,0.099-1.943l-0.099-0.012v-36.689h-14.5v36.161l0.126,0.015
				c-0.029,0.823-0.126,1.637-0.126,2.47c0,37.316,30.505,67.566,68.128,67.566c37.623,0,68.127-30.25,68.127-67.566
				C488.717,227.11,458.213,196.86,420.59,196.86z"/>
			<path style="fill:#009DD9;" d="M420.994,225.137c-0.499,0-0.984,0.054-1.475,0.072l-0.029-0.072h-11.773V196.86h-27.25
				l-0.027,28.595h-27.979v26.77h28.765c0,0,0,2.832,0,12.126c0,9.294,3.718,19.207,9.56,26.818
				c5.842,7.611,20.004,12.392,27.704,12.392c0.51,0,1.009,0,1.502,0c0.335,0.009,0.667,0.025,1.003,0.025
				c0.863,0,1.717-0.037,2.566-0.091c2.297-0.104,4.593-0.386,7.184-1.113c5.839-1.468,11.157-4.227,15.635-7.948
				c3.301-2.496,5.833-5.526,7.778-8.71c4.034-6.147,6.387-13.479,6.387-21.36C460.544,242.698,442.838,225.137,420.994,225.137z
				 M420.123,277.941c-7.062,0-12.79-5.68-12.79-12.685c0-0.157,0.018-0.309,0.023-0.464l-0.023-0.002v-12.22h12.304l0.01,0.024
				c0.158-0.006,0.315-0.024,0.477-0.024c7.065,0,12.791,5.679,12.791,12.686C432.914,272.261,427.188,277.941,420.123,277.941z"/>
			<path style="fill:#76B043;" d="M359.265,198.745c0,0,9.788,0.483,15.881,9.093c6.094,8.611,5.306,17.615,5.306,17.615
				s-11.105-2.083-16.691-9.747C358.174,208.042,359.265,198.745,359.265,198.745z"/>
			<path style="fill:#FDE9F1;" d="M401.704,198.745c0,0-9.788,0.483-15.881,9.093c-6.094,8.611-5.306,17.615-5.306,17.615
				s11.105-2.083,16.69-9.747C402.795,208.042,401.704,198.745,401.704,198.745z"/>
		</g>
		<g>
			<path d="M413.435,350.469v-6.162h-1.383v-1.353h4.18v1.353h-1.403v6.162H413.435z"/>
			<path d="M416.993,350.469v-1.353h1.353v1.353H416.993z"/>
			<path d="M425.17,348.425h1.616c-0.278,0.671-0.744,1.21-1.398,1.617c-0.654,0.406-1.351,0.61-2.089,0.61
				c-1.071,0-1.988-0.389-2.751-1.165c-0.763-0.775-1.145-1.703-1.145-2.781c0-1.063,0.38-1.979,1.14-2.745
				c0.759-0.766,1.664-1.149,2.715-1.149c0.766,0,1.478,0.204,2.136,0.61c0.671,0.427,1.148,0.986,1.434,1.678h-1.587
				c-0.515-0.623-1.173-0.936-1.973-0.936c-0.685,0-1.268,0.256-1.749,0.768c-0.482,0.513-0.722,1.121-0.722,1.826
				c0,0.671,0.247,1.263,0.742,1.774c0.495,0.512,1.074,0.768,1.739,0.768C423.99,349.3,424.62,349.008,425.17,348.425z"/>
			<path d="M427.772,350.469v-1.353h1.353v1.353H427.772z"/>
		</g>
		<g>
			<g>
				<path d="M353.767,396.224v-9.305h2.179c0.932,0,1.637,0.156,2.115,0.467c0.73,0.479,1.096,1.145,1.096,2.002
					c0,0.755-0.345,1.376-1.033,1.862c1.025,0.42,1.536,1.2,1.536,2.343c0,0.429-0.103,0.832-0.309,1.215
					c-0.205,0.382-0.485,0.686-0.843,0.913c-0.357,0.227-0.767,0.373-1.227,0.441c-0.27,0.04-0.709,0.061-1.322,0.061H353.767z
					 M354.698,390.898h1.009c0.83,0,1.418-0.093,1.763-0.277c0.225-0.118,0.408-0.299,0.546-0.541
					c0.14-0.243,0.208-0.496,0.208-0.756c0-0.554-0.247-0.982-0.741-1.284c-0.303-0.185-0.871-0.277-1.701-0.277h-1.083V390.898z
					 M354.698,395.381h1.146c0.948,0,1.604-0.092,1.965-0.276c0.26-0.135,0.476-0.345,0.648-0.631
					c0.172-0.284,0.258-0.574,0.258-0.868c0-0.848-0.386-1.406-1.158-1.675c-0.36-0.126-0.985-0.189-1.875-0.189h-0.983V395.381z"/>
				<path d="M360.994,386.919h0.932v5.654c0,0.848,0.143,1.498,0.428,1.952c0.412,0.645,1.017,0.968,1.814,0.968
					c0.73,0,1.302-0.28,1.712-0.843c0.346-0.47,0.517-1.163,0.517-2.077v-5.654h0.933v5.654c0,1.149-0.231,2.026-0.693,2.631
					c-0.604,0.79-1.428,1.184-2.468,1.184c-1.016,0-1.825-0.369-2.431-1.107c-0.495-0.604-0.742-1.507-0.742-2.707V386.919z
					 M362.77,384.502h0.932v1.586h-0.932V384.502z M364.619,384.502h0.933v1.586h-0.933V384.502z"/>
				<path d="M371.545,396.224v-3.109l-3.235-6.195h1.02l2.682,5.226l2.683-5.226h1.02l-3.236,6.195v3.109H371.545z"/>
				<path d="M376.695,386.919h0.932v5.654c0,0.848,0.142,1.498,0.428,1.952c0.412,0.645,1.017,0.968,1.814,0.968
					c0.729,0,1.302-0.28,1.712-0.843c0.346-0.47,0.517-1.163,0.517-2.077v-5.654h0.933v5.654c0,1.149-0.231,2.026-0.693,2.631
					c-0.604,0.79-1.428,1.184-2.468,1.184c-1.016,0-1.825-0.369-2.431-1.107c-0.495-0.604-0.742-1.507-0.742-2.707V386.919z
					 M378.471,384.502h0.932v1.586h-0.932V384.502z M380.32,384.502h0.933v1.586h-0.933V384.502z"/>
				<path d="M384.943,396.224v-9.305h0.932v5.352l4.293-5.352h1.184l-3.677,4.533l3.677,4.772h-1.159l-3.109-4.028l-1.209,1.485
					v2.543H384.943z"/>
				<path d="M391.705,393.618h0.994c0.017,0.521,0.204,0.963,0.561,1.328c0.356,0.364,0.79,0.547,1.304,0.547
					c0.536,0,0.991-0.174,1.366-0.521c0.373-0.349,0.56-0.787,0.56-1.316c0-0.528-0.214-0.969-0.642-1.322
					c-0.295-0.234-0.772-0.439-1.437-0.616c-0.394-0.101-0.679-0.189-0.855-0.265c-0.311-0.117-0.571-0.265-0.78-0.439
					c-0.521-0.446-0.781-1.025-0.781-1.74c0-0.737,0.261-1.342,0.781-1.812c0.495-0.461,1.115-0.692,1.863-0.692
					c0.713,0,1.32,0.243,1.82,0.73c0.498,0.487,0.744,1.083,0.736,1.788h-0.971c-0.034-0.479-0.205-0.868-0.517-1.171
					c-0.31-0.303-0.704-0.454-1.183-0.454c-0.445,0-0.822,0.16-1.134,0.479c-0.31,0.319-0.465,0.701-0.465,1.146
					c0,0.495,0.193,0.878,0.578,1.146c0.235,0.159,0.655,0.323,1.26,0.49c0.487,0.135,0.801,0.232,0.943,0.29
					c0.319,0.127,0.601,0.295,0.844,0.504c0.58,0.513,0.87,1.162,0.87,1.951c0,0.755-0.282,1.398-0.845,1.928
					c-0.561,0.528-1.225,0.792-1.989,0.792c-0.806,0-1.489-0.262-2.053-0.787C391.973,395.077,391.696,394.415,391.705,393.618z"/>
				<path d="M398.655,396.224v-9.305h5.086v0.844h-4.154v3.35h4.016v0.844h-4.016v3.425h4.154v0.843H398.655z"/>
				<path d="M405.404,396.224v-9.305h0.932v4.094h4.822v-4.094h0.932v9.305h-0.932v-4.369h-4.822v4.369H405.404z"/>
				<path d="M414.004,396.224v-9.305h0.931v9.305H414.004z"/>
				<path d="M416.85,396.224v-9.305h2.216c1.233,0,2.115,0.152,2.644,0.453c0.966,0.546,1.448,1.407,1.448,2.582
					c0,0.755-0.268,1.406-0.806,1.951s-1.184,0.827-1.939,0.844l2.618,3.475h-1.157l-3.161-4.218h0.277
					c0.981,0,1.657-0.084,2.026-0.252c0.806-0.37,1.209-0.998,1.209-1.889c0-0.696-0.289-1.25-0.868-1.662
					c-0.42-0.293-1.121-0.44-2.104-0.44h-1.473v8.461H416.85z"/>
				<path d="M427.98,396.224v-9.305h2.178c0.932,0,1.637,0.156,2.115,0.467c0.73,0.479,1.096,1.145,1.096,2.002
					c0,0.755-0.345,1.376-1.032,1.862c1.023,0.42,1.536,1.2,1.536,2.343c0,0.429-0.103,0.832-0.309,1.215
					c-0.206,0.382-0.486,0.686-0.844,0.913c-0.356,0.227-0.767,0.373-1.228,0.441c-0.27,0.04-0.709,0.061-1.322,0.061H427.98z
					 M428.912,390.898h1.007c0.831,0,1.419-0.093,1.763-0.277c0.227-0.118,0.409-0.299,0.547-0.541
					c0.141-0.243,0.208-0.496,0.208-0.756c0-0.554-0.246-0.982-0.741-1.284c-0.303-0.185-0.87-0.277-1.701-0.277h-1.082V390.898z
					 M428.912,395.381h1.146c0.948,0,1.604-0.092,1.965-0.276c0.259-0.135,0.475-0.345,0.647-0.631
					c0.172-0.284,0.258-0.574,0.258-0.868c0-0.848-0.386-1.406-1.158-1.675c-0.36-0.126-0.985-0.189-1.875-0.189h-0.982V395.381z"/>
				<path d="M435.208,396.224v-9.305h5.086v0.844h-4.154v3.35h4.016v0.844h-4.016v3.425h4.154v0.843H435.208z"/>
				<path d="M441.956,396.224v-9.305h0.932v8.462h3.853v0.843H441.956z"/>
				<path d="M447.773,396.224v-9.305h5.087v0.844h-4.156v3.35h4.018v0.844h-4.018v3.425h4.156v0.843H447.773z"/>
				<path d="M454.522,396.224v-9.305h2.505c1.545,0,2.763,0.361,3.652,1.083c0.529,0.428,0.944,0.959,1.247,1.593
					c0.302,0.634,0.453,1.286,0.453,1.957c0,1.378-0.509,2.532-1.523,3.463c-0.513,0.471-1.1,0.799-1.763,0.983
					c-0.529,0.151-1.197,0.226-2.003,0.226H454.522z M455.454,395.381h1.197c0.763,0,1.347-0.043,1.749-0.126
					c0.604-0.117,1.141-0.361,1.611-0.73c0.957-0.756,1.436-1.747,1.436-2.974c0-1.208-0.483-2.189-1.448-2.945
					c-0.463-0.36-0.995-0.6-1.6-0.717c-0.402-0.086-0.986-0.127-1.749-0.127h-1.197V395.381z"/>
				<path d="M463.891,396.224v-9.305h0.932v9.305H463.891z"/>
				<path d="M469.04,396.224v-3.109l-3.236-6.195h1.02l2.683,5.226l2.682-5.226h1.021l-3.236,6.195v3.109H469.04z"/>
				<path d="M474.189,396.224v-9.305h5.088v0.844h-4.156v3.35h4.018v0.844h-4.018v3.425h4.156v0.843H474.189z"/>
				<path d="M480.258,393.618h0.996c0.016,0.521,0.203,0.963,0.559,1.328c0.357,0.364,0.792,0.547,1.304,0.547
					c0.537,0,0.993-0.174,1.366-0.521c0.373-0.349,0.561-0.787,0.561-1.316c0-0.528-0.214-0.969-0.642-1.322
					c-0.294-0.234-0.773-0.439-1.437-0.616c-0.395-0.101-0.679-0.189-0.855-0.265c-0.311-0.117-0.571-0.265-0.781-0.439
					c-0.52-0.446-0.78-1.025-0.78-1.74c0-0.737,0.261-1.342,0.78-1.812c0.496-0.461,1.117-0.692,1.864-0.692
					c0.713,0,1.319,0.243,1.82,0.73c0.499,0.487,0.743,1.083,0.735,1.788h-0.97c-0.034-0.479-0.205-0.868-0.516-1.171
					c-0.311-0.303-0.705-0.454-1.184-0.454c-0.444,0-0.823,0.16-1.134,0.479c-0.31,0.319-0.466,0.701-0.466,1.146
					c0,0.495,0.193,0.878,0.579,1.146c0.235,0.159,0.654,0.323,1.26,0.49c0.486,0.135,0.802,0.232,0.944,0.29
					c0.319,0.127,0.6,0.295,0.843,0.504c0.58,0.513,0.869,1.162,0.869,1.951c0,0.755-0.281,1.398-0.844,1.928
					c-0.562,0.528-1.226,0.792-1.989,0.792c-0.806,0-1.49-0.262-2.052-0.787C480.527,395.077,480.249,394.415,480.258,393.618z"/>
				<path d="M487.209,396.224v-9.305h0.932v9.305H487.209z"/>
			</g>
			<g>
				<path d="M393.321,398.05v-0.576c0.221,0.062,0.428,0.107,0.62,0.139c0.192,0.032,0.36,0.048,0.504,0.048
					c0.12,0,0.208-0.024,0.269-0.072c0.059-0.049,0.089-0.124,0.089-0.226c0-0.09-0.04-0.154-0.119-0.198
					c-0.078-0.043-0.203-0.064-0.374-0.064c-0.059,0-0.105,0.001-0.137,0.002c-0.034,0.002-0.064,0.004-0.094,0.006v-0.884h0.475
					v0.349h0.079c0.307,0,0.542,0.069,0.705,0.207c0.163,0.136,0.245,0.332,0.245,0.591c0,0.276-0.091,0.489-0.273,0.642
					c-0.183,0.15-0.443,0.226-0.781,0.226c-0.169,0-0.353-0.016-0.556-0.046C393.77,398.16,393.553,398.114,393.321,398.05z"/>
			</g>
			<rect x="463.873" y="384.531" width="0.933" height="1.586"/>
			<rect x="414.03" y="384.531" width="0.933" height="1.586"/>
			<rect x="487.185" y="384.531" width="0.933" height="1.586"/>
		</g>
		<g>
			<path d="M357.828,379.988v-17.607h-3.951v-3.864h11.941v3.864h-4.01v17.607H357.828z"/>
			<path d="M367.852,379.988v-21.471h11.534v3.864h-7.554v4.939h7.234v3.865h-7.234v4.939h7.554v3.864H367.852z"/>
			<path d="M382.96,379.988v-21.471h3.98v9.297l6.683-9.297h4.765l-8.106,10.547l8.106,10.924h-4.765l-6.683-9.414v9.414H382.96z"/>
			<path d="M401.002,379.988v-21.471h3.98v21.471H401.002z"/>
			<path d="M409.107,379.988v-21.471h6.218c2.518,0,4.377,0.504,5.578,1.511c1.666,1.395,2.499,3.157,2.499,5.288
				c0,0.794-0.165,1.627-0.494,2.498c-0.33,0.872-0.756,1.598-1.278,2.18c-0.93,1.026-2.199,1.714-3.807,2.062l5.812,7.932h-4.91
				l-5.637-8.223v8.223H409.107z M413.088,368.744h2.179c1.491,0,2.557-0.309,3.196-0.93c0.639-0.619,0.959-1.385,0.959-2.295
				c0-1.026-0.388-1.83-1.162-2.412c-0.659-0.483-1.647-0.726-2.964-0.726h-2.208V368.744z"/>
			<path d="M425.958,379.988v-21.471h4.503c4.029,0,7.031,0.833,9.007,2.498c1.143,0.969,2.044,2.214,2.702,3.734
				s0.988,3.055,0.988,4.604c0,1.511-0.33,3.007-0.988,4.489c-0.658,1.481-1.568,2.717-2.73,3.704
				c-1.162,0.987-2.558,1.666-4.185,2.034c-1.201,0.271-2.77,0.406-4.706,0.406H425.958z M429.938,376.124h0.494
				c1.413,0,2.488-0.067,3.225-0.203c1.123-0.213,2.102-0.63,2.935-1.249c1.724-1.298,2.586-3.07,2.586-5.317
				c0-2.499-0.949-4.396-2.848-5.694c-1.239-0.852-3.273-1.278-6.102-1.278h-0.29V376.124z"/>
			<path d="M444.523,379.988l8.949-21.471h3.108l9.036,21.471h-4.388l-2.324-5.549h-7.612l-2.382,5.549H444.523z M452.746,370.574
				h4.59l-2.295-6.508L452.746,370.574z"/>
			<path d="M404.884,354.448c0,1.067-0.865,1.935-1.935,1.935c-1.068,0-1.935-0.867-1.935-1.935c0-1.067,0.866-1.935,1.935-1.935
				C404.019,352.514,404.884,353.381,404.884,354.448z"/>
			<path d="M475.647,352.647c0.208,1.133,1.072,2.005,2.491,2.005c1.626,0,2.388-1.046,2.491-2.005h1.799
				c0,2.149-1.696,3.603-4.29,3.603c-3.045,0-4.29-1.801-4.29-3.603H475.647z"/>
			<path d="M479.526,369.035v3.748h5.033c-0.581,1.143-1.457,2.072-2.629,2.789c-1.172,0.717-2.388,1.074-3.647,1.074
				c-2.149,0-4-0.803-5.549-2.41c-1.376-1.434-2.064-3.1-2.064-4.998c0-0.988,0.228-1.971,0.684-2.949
				c0.454-0.978,1.05-1.796,1.786-2.455c1.414-1.238,3.07-1.859,4.969-1.859c1.084,0,2.135,0.258,3.152,0.77
				c1.017,0.513,1.845,1.206,2.483,2.077h4.766c-0.795-2.014-2.189-3.65-4.185-4.91c-1.917-1.201-3.99-1.801-6.217-1.801
				c-3.119,0-5.802,1.094-8.048,3.283c-2.247,2.189-3.37,4.852-3.37,7.989c0,3.118,1.143,5.763,3.428,7.932
				c2.228,2.131,4.91,3.196,8.048,3.196c3.118,0,5.801-1.06,8.048-3.182c2.247-2.121,3.37-4.73,3.37-7.83v-0.465H479.526z"/>
		</g>
	</g>
</g>
</svg>
