<?xml version="1.0" encoding="iso-8859-1"?>
<!-- Generator: Adobe Illustrator 29.7.1, SVG Export Plug-In . SVG Version: 9.03 Build 0)  -->
<svg version="1.1" id="katman_1" xmlns="http://www.w3.org/2000/svg" xmlns:xlink="http://www.w3.org/1999/xlink" x="0px" y="0px"
	 viewBox="0 0 841.89 595.276" style="enable-background:new 0 0 841.89 595.276;" xml:space="preserve">
<path style="fill:#819C3D;" d="M299.142,177.415c2.794-9.963,5.124-14.298,5.124-14.298c-2.15-2.911-10.185-2.97-10.185-2.97
	c-7.241,23.415-7.953,51.374-7.919,64.956l-13.623-21.634l-40.349-16.895l-5.234,12.093c-7.079-2.417-20.947-7.874-25.827-13.035
	l-1.748-1.849l-8.853,8.73l1.057,1.693c0.106,0.169,10.016,16.131,12.512,27.635l-11.493,4.88l8.56,19.993l-20.469,8.147
	l4.396,11.259c-4.69,2.782-17.74,10.074-25.844,10.203l-2.453,0.039l0.001,12.208l1.988,0.41
	c0.157,0.033,15.137,3.186,26.581,10.353l-4.496,12.103l40.419,16.67l28.316-6.426l-7.2,29.177l17.348,42.902l13.294-5.054
	c7.816,6.118,15.51,45.33,15.51,45.33s7.383-39.586,15.466-45.33l13.292,5.054l17.349-42.902l-7.2-29.177l28.316,6.426l40.419-16.67
	l-4.496-12.103c11.444-7.167,26.423-10.32,26.581-10.353l1.989-0.411v-12.208l-2.453-0.039c-8.104-0.129-21.154-7.421-25.844-10.203
	l4.396-11.259l-20.469-8.147l8.56-19.993l-11.493-4.88c2.496-11.504,12.407-27.466,12.512-27.635l1.057-1.693l-8.853-8.73
	l-1.748,1.849c-5.306,5.612-20.256,11.113-25.83,13.027l-5.231-12.085l-40.349,16.895l-13.201,20.964
	c1.725-20.246,4.578-34.781,7.167-44.612L299.142,177.415z"/>
<g>
	<path style="fill:#FFFFFF;" d="M190.548,294.657l3.223-8.51l18.713,6.334l14.993-9.621l-14.993-9.619l-18.713,6.334l-3.223-8.509
		l-1.632,0.846c-0.179,0.092-18.297,9.275-25.833,9.313l-0.245,0.005l0.006,1.631l-0.005,1.386l0.024,0.249l0.249,0.002
		c7.544,0.038,25.626,9.22,25.805,9.312L190.548,294.657z M212.044,276.841l9.448,6.017l-9.448,6.022l-18.228-6.02L212.044,276.841z
		 M171.319,282.861c7.503-2.372,15.709-6.35,17.465-7.217l2.716,7.216l-2.716,7.219
		C187.029,289.211,178.826,285.234,171.319,282.861z"/>
	<polygon style="fill:#FFFFFF;" points="212.495,266.451 197.728,272.154 192.735,259.893 201.705,256.396 204.433,262.87 
		201.212,264.126 200.268,261.734 197.226,262.934 199.364,268.357 208.679,264.725 203.556,252.164 188.494,258.036 
		195.871,276.378 212.222,270.063 231.598,282.861 212.222,295.659 195.871,289.344 188.494,307.685 203.556,313.558 
		208.679,300.997 199.364,297.365 197.226,302.787 200.268,303.988 201.212,301.595 204.433,302.852 201.705,309.325 
		192.735,305.829 197.728,293.568 212.495,299.271 238.121,282.861 212.601,266.519 	"/>
	<polygon style="fill:#FFFFFF;" points="217.002,282.863 211.816,279.759 201.194,282.863 211.816,285.963 	"/>
	<polygon style="fill:#FFFFFF;" points="178.128,282.862 186.745,286.022 188.131,282.862 186.745,279.699 	"/>
</g>
<g>
	<path style="fill:#FFFFFF;" d="M300.658,380.564l-8.51-3.223l6.334-18.713l-9.621-14.993l-9.619,14.993l6.334,18.713l-8.509,3.223
		l0.846,1.632c0.093,0.179,9.275,18.297,9.313,25.833l0.005,0.245l1.631-0.006l1.386,0.005l0.249-0.024l0.001-0.249
		c0.038-7.544,9.22-25.625,9.312-25.805L300.658,380.564z M282.842,359.068l6.017-9.448l6.022,9.448l-6.02,18.228L282.842,359.068z
		 M288.862,399.793c-2.372-7.503-6.35-15.709-7.217-17.465l7.216-2.716l7.219,2.716
		C295.213,384.083,291.235,392.286,288.862,399.793z"/>
	<polygon style="fill:#FFFFFF;" points="272.452,358.617 278.156,373.384 265.895,378.377 262.398,369.408 268.871,366.679 
		270.127,369.901 267.735,370.844 268.935,373.887 274.358,371.748 270.727,362.434 258.165,367.556 264.038,382.618 
		282.38,375.242 276.064,358.89 288.862,339.515 301.66,358.89 295.345,375.242 313.686,382.618 319.559,367.556 306.998,362.434 
		303.366,371.748 308.789,373.887 309.989,370.844 307.597,369.901 308.853,366.679 315.327,369.408 311.83,378.377 
		299.569,373.384 305.272,358.617 288.862,332.991 272.521,358.511 	"/>
	<polygon style="fill:#FFFFFF;" points="288.864,354.11 285.761,359.297 288.864,369.918 291.964,359.297 	"/>
	<polygon style="fill:#FFFFFF;" points="288.863,392.984 292.023,384.368 288.863,382.982 285.7,384.368 	"/>
</g>
<g>
	<path style="fill:#FFFFFF;" d="M386.566,270.454l-3.223,8.51l-18.713-6.334l-14.993,9.621l14.993,9.619l18.713-6.334l3.223,8.509
		l1.632-0.846c0.179-0.092,18.297-9.275,25.833-9.313l0.245-0.005l-0.006-1.631l0.005-1.386l-0.024-0.249l-0.249-0.001
		c-7.544-0.038-25.625-9.22-25.805-9.312L386.566,270.454z M365.07,288.27l-9.448-6.017l9.448-6.022l18.228,6.02L365.07,288.27z
		 M405.794,282.25c-7.503,2.372-15.709,6.35-17.465,7.217l-2.716-7.216l2.716-7.219C390.085,275.9,398.288,279.877,405.794,282.25z"
		/>
	<polygon style="fill:#FFFFFF;" points="364.618,298.66 379.386,292.957 384.378,305.218 375.409,308.714 372.68,302.241 
		375.902,300.985 376.846,303.377 379.888,302.177 377.749,296.754 368.435,300.386 373.557,312.947 388.62,307.075 
		381.243,288.733 364.891,295.048 345.516,282.25 364.891,269.452 381.243,275.767 388.62,257.426 373.557,251.553 368.435,264.114 
		377.749,267.746 379.888,262.323 376.846,261.123 375.902,263.516 372.68,262.259 375.409,255.785 384.378,259.282 
		379.386,271.543 364.618,265.84 338.992,282.25 364.512,298.592 	"/>
	<polygon style="fill:#FFFFFF;" points="360.111,282.248 365.298,285.352 375.92,282.248 365.298,279.148 	"/>
	<polygon style="fill:#FFFFFF;" points="398.985,282.249 390.369,279.089 388.983,282.249 390.369,285.412 	"/>
</g>
<g>
	<path style="fill:#FFFFFF;" d="M349.302,204.696l3.738,8.296l-17.711,8.753l-3.798,17.405l17.403-3.799l8.753-17.711l8.296,3.737
		l0.555-1.752c0.061-0.192,6.379-19.496,11.682-24.852l0.17-0.177l-1.158-1.149l-0.976-0.984l-0.193-0.159l-0.177,0.175
		c-5.361,5.308-24.639,11.601-24.831,11.662L349.302,204.696z M346.7,232.493l-10.935,2.426l2.422-10.939l17.145-8.632
		L346.7,232.493z M371.24,199.44c-3.628,6.982-6.618,15.598-7.246,17.453l-7.023-3.182l-3.184-7.025
		C355.641,206.058,364.254,203.07,371.24,199.44z"/>
	<polygon style="fill:#FFFFFF;" points="353.728,240.159 360.137,225.684 372.337,230.824 368.468,239.639 361.961,236.991 
		363.351,233.825 365.71,234.849 367.012,231.849 361.665,229.527 357.647,238.681 370.151,243.941 376.649,229.138 
		358.464,221.384 351.367,237.412 328.617,242.063 333.268,219.313 349.296,212.216 341.543,194.031 326.739,200.529 
		331.999,213.033 341.154,209.015 338.832,203.668 335.832,204.971 336.856,207.33 333.689,208.719 331.041,202.213 
		339.856,198.343 344.996,210.543 330.521,216.952 324.004,246.676 353.605,240.186 	"/>
	<polygon style="fill:#FFFFFF;" points="338.936,231.741 344.798,230.268 350.114,220.563 340.412,225.882 	"/>
	<polygon style="fill:#FFFFFF;" points="366.425,204.254 358.098,208.112 359.352,211.327 362.569,212.583 	"/>
</g>
<g>
	<path style="fill:#FFFFFF;" d="M210.697,221.81l8.297-3.738l8.753,17.711l17.405,3.798l-3.799-17.403l-17.711-8.753l3.737-8.296
		l-1.752-0.555c-0.192-0.061-19.496-6.379-24.852-11.682l-0.177-0.17l-1.149,1.158l-0.984,0.976l-0.159,0.193l0.175,0.177
		c5.308,5.361,11.601,24.639,11.662,24.831L210.697,221.81z M238.495,224.412l2.426,10.935l-10.939-2.422l-8.632-17.145
		L238.495,224.412z M205.442,199.872c6.982,3.628,15.598,6.618,17.453,7.246l-3.182,7.023l-7.025,3.184
		C212.059,215.471,209.071,206.858,205.442,199.872z"/>
	<polygon style="fill:#FFFFFF;" points="246.161,217.384 231.686,210.975 236.825,198.775 245.64,202.644 242.993,209.151 
		239.826,207.761 240.85,205.403 237.85,204.1 235.528,209.447 244.682,213.465 249.942,200.961 235.139,194.463 227.386,212.648 
		243.414,219.745 248.065,242.495 225.314,237.844 218.218,221.816 200.032,229.57 206.531,244.373 219.034,239.113 
		215.017,229.959 209.67,232.281 210.972,235.281 213.331,234.256 214.721,237.423 208.214,240.071 204.344,231.256 
		216.544,226.117 222.954,240.591 252.678,247.108 246.187,217.508 	"/>
	<polygon style="fill:#FFFFFF;" points="237.743,232.176 236.27,226.314 226.564,220.998 231.883,230.7 	"/>
	<polygon style="fill:#FFFFFF;" points="210.255,204.687 214.113,213.015 217.328,211.76 218.585,208.543 	"/>
</g>
<g>
	<g>
		<polygon style="fill:#49C1BE;" points="275.627,285.42 283.092,282.554 275.506,279.652 270.026,282.5 		"/>
		<polygon style="fill:#49C1BE;" points="284.623,278.579 281.362,271.275 275.473,269.414 277.336,275.334 		"/>
		<polygon style="fill:#49C1BE;" points="288.562,276.949 291.42,269.481 288.577,264.013 285.709,269.516 		"/>
		<polygon style="fill:#49C1BE;" points="284.705,286.404 277.365,289.681 275.501,295.582 281.453,293.708 		"/>
		<polygon style="fill:#49C1BE;" points="301.651,279.662 294.128,282.549 301.518,285.377 307.074,282.488 		"/>
		<polygon style="fill:#49C1BE;" points="292.431,286.379 295.707,293.716 301.678,295.603 299.809,289.664 		"/>
		<polygon style="fill:#49C1BE;" points="301.69,269.376 295.783,271.235 292.505,278.596 299.806,275.336 		"/>
		<polygon style="fill:#49C1BE;" points="288.567,287.985 285.695,295.492 288.589,301.061 291.467,295.54 		"/>
		<g>
			<polygon style="fill:#49C1BE;" points="311.353,280.265 314.531,278.613 317.437,270.528 309.664,266.866 306.289,267.929 
				303.658,276.254 			"/>
			<polygon style="fill:#49C1BE;" points="282.337,267.441 286.354,259.734 284.707,256.567 276.623,253.66 272.961,261.434 
				274.025,264.815 			"/>
			<polygon style="fill:#49C1BE;" points="265.75,280.272 273.484,276.251 270.875,267.962 267.471,266.886 259.699,270.547 
				262.607,278.634 			"/>
			<polygon style="fill:#49C1BE;" points="303.142,264.778 304.191,261.459 300.53,253.687 292.444,256.594 290.806,259.737 
				294.792,267.406 			"/>
			<polygon style="fill:#49C1BE;" points="265.747,284.724 262.58,286.37 259.673,294.455 267.447,298.117 270.901,297.029 
				273.511,288.77 			"/>
			<polygon style="fill:#49C1BE;" points="274.048,300.179 272.942,303.678 276.604,311.45 284.689,308.543 286.361,305.337 
				282.325,297.574 			"/>
			<polygon style="fill:#49C1BE;" points="314.556,286.388 311.35,284.717 303.652,288.718 306.276,297.056 309.691,298.135 
				317.463,294.474 			"/>
			<polygon style="fill:#49C1BE;" points="294.853,297.588 290.813,305.34 292.465,308.518 300.549,311.424 304.211,303.651 
				303.126,300.203 			"/>
		</g>
	</g>
</g>
<g>
	<g>
		<polygon style="fill:#49C1BE;" points="274.561,316.381 274.52,316.293 261.275,318.928 254.398,349.391 257.752,356.961 
			265.478,353.979 282.172,327.585 274.655,316.348 		"/>
		<polygon style="fill:#49C1BE;" points="254.776,296.405 243.547,288.904 217.144,305.581 214.163,313.306 221.734,316.66 
			252.202,309.801 254.832,296.539 254.743,296.497 		"/>
		<polygon style="fill:#49C1BE;" points="252.221,255.219 221.759,248.342 214.189,251.697 217.171,259.422 243.565,276.115 
			254.802,268.598 254.769,268.505 254.857,268.463 		"/>
		<polygon style="fill:#49C1BE;" points="322.335,268.578 333.564,276.079 359.967,259.402 362.948,251.677 355.376,248.323 
			324.909,255.182 322.278,268.444 322.368,268.486 		"/>
		<polygon style="fill:#49C1BE;" points="302.573,248.756 302.614,248.844 315.858,246.209 322.735,215.746 319.381,208.176 
			311.656,211.158 294.962,237.552 302.48,248.789 		"/>
		<polygon style="fill:#49C1BE;" points="274.58,248.73 274.672,248.763 282.174,237.534 265.497,211.131 257.772,208.15 
			254.418,215.721 261.277,246.189 274.538,248.819 		"/>
		<polygon style="fill:#49C1BE;" points="324.941,309.802 355.403,316.679 362.973,313.325 359.992,305.599 333.597,288.905 
			322.36,296.423 322.394,296.516 322.306,296.558 		"/>
		<polygon style="fill:#49C1BE;" points="302.592,316.355 302.5,316.322 294.998,327.551 311.675,353.954 319.4,356.935 
			322.755,349.364 315.896,318.896 302.634,316.266 		"/>
	</g>
</g>
<path style="fill:#FFFFFF;" d="M318.692,298.26l3.077,14.727l33.91,7.889l12.333-5.465l-4.856-12.584l-29.55-18.419l-12.597,8.254
	l-3.259-9.064l-2.122-1.106l2.096-1.089l3.26-9.067l12.589,8.238l29.557-18.4l4.857-12.585l-12.332-5.464l-33.919,7.871
	l-3.071,14.745l-8.713-4.106l-2.209,0.695l0.681-2.157l-4.107-8.717l14.727-3.077l7.889-33.91l-5.464-12.333l-12.584,4.856
	l-18.42,29.55l8.255,12.597l-9.065,3.259l-1.073,2.059l-1.084-2.085l-9.068-3.26l8.237-12.589l-18.399-29.557l-12.584-4.857
	l-5.464,12.332l7.87,33.919l14.745,3.07l-4.106,8.714l0.697,2.215l-2.24-0.708l-8.717,4.107l-3.077-14.727l-33.91-7.889
	l-12.333,5.464l4.857,12.584l29.55,18.419l12.597-8.255l3.259,9.065l2.059,1.073l-2.085,1.084l-3.26,9.068l-12.589-8.238
	l-29.557,18.4l-4.857,12.584l12.332,5.464l33.919-7.87l3.07-14.745l8.714,4.106l2.289-0.72l-0.738,2.336l4.107,8.717l-14.727,3.077
	l-7.889,33.91L255.665,362l12.584-4.856l18.419-29.55l-8.254-12.597l9.064-3.258l1.106-2.122l1.089,2.095l9.067,3.26l-8.238,12.589
	l18.4,29.557l12.585,4.857l5.464-12.332l-7.87-33.919l-14.745-3.071l4.106-8.714l-0.718-2.283l2.252,0.712L318.692,298.26z
	 M311.675,353.954l-16.677-26.403l7.502-11.229l0.092,0.033l0.042-0.089l13.262,2.63l6.859,30.468l-3.355,7.571L311.675,353.954z
	 M290.813,305.34l4.04-7.751l8.273,2.614l1.086,3.449l-3.662,7.773l-8.085-2.906L290.813,305.34z M257.752,356.961l-3.354-7.57
	l6.877-30.462l13.245-2.635l0.042,0.088l0.093-0.034l7.517,11.237l-16.694,26.395L257.752,356.961z M284.689,308.543l-8.085,2.907
	l-3.662-7.772l1.106-3.499l8.277-2.606l4.035,7.763L284.689,308.543z M259.673,294.455l2.907-8.084l3.167-1.646l7.764,4.046
	l-2.61,8.259l-3.454,1.087L259.673,294.455z M270.875,267.962l2.609,8.29l-7.735,4.02l-3.143-1.638l-2.907-8.086l7.772-3.661
	L270.875,267.962z M265.497,211.131l16.677,26.403l-7.502,11.229l-0.092-0.033l-0.042,0.089l-13.261-2.63l-6.859-30.468l3.354-7.571
	L265.497,211.131z M276.623,253.66l8.085,2.907l1.646,3.167l-4.017,7.707l-8.312-2.626l-1.064-3.381L276.623,253.66z
	 M319.381,208.176l3.354,7.57l-6.877,30.462l-13.244,2.635l-0.042-0.088l-0.093,0.033l-7.517-11.237l16.694-26.394L319.381,208.176z
	 M314.531,278.613l-3.178,1.652l-7.694-4.01l2.631-8.326l3.375-1.062l7.773,3.662L314.531,278.613z M301.518,285.377l-7.389-2.828
	l7.523-2.887l5.423,2.827L301.518,285.377z M301.678,295.603l-5.971-1.887l-3.276-7.338l7.378,3.285L301.678,295.603z
	 M292.505,278.596l3.278-7.361l5.907-1.859l-1.883,5.96L292.505,278.596z M300.53,253.687l3.661,7.772l-1.049,3.32l-8.35,2.628
	l-3.987-7.67l1.638-3.143L300.53,253.687z M291.42,269.481l-2.858,7.468l-2.853-7.433l2.868-5.503L291.42,269.481z M275.506,279.652
	l7.586,2.903l-7.465,2.865l-5.602-2.92L275.506,279.652z M275.473,269.414l5.89,1.861l3.261,7.304l-7.288-3.245L275.473,269.414z
	 M277.365,289.681l7.34-3.277l-3.252,7.305l-5.952,1.873L277.365,289.681z M285.695,295.492l2.873-7.507l2.9,7.555l-2.878,5.521
	L285.695,295.492z M303.652,288.718l7.698-4.001l3.206,1.671l2.907,8.085l-7.772,3.662l-3.415-1.079L303.652,288.718z
	 M322.36,296.423l11.237-7.518l26.395,16.694l2.981,7.726l-7.57,3.354l-30.462-6.877l-2.635-13.245l0.088-0.042L322.36,296.423z
	 M355.376,248.323l7.571,3.355l-2.981,7.725l-26.403,16.677l-11.229-7.502l0.033-0.092l-0.089-0.042l2.63-13.262L355.376,248.323z
	 M254.802,268.598l-11.237,7.517l-26.394-16.693l-2.982-7.725l7.57-3.354l30.462,6.877l2.635,13.244l-0.088,0.042L254.802,268.598z
	 M221.734,316.66l-7.571-3.354l2.981-7.725l26.403-16.677l11.229,7.502l-0.033,0.092l0.089,0.042l-2.63,13.261L221.734,316.66z"/>
<g>
	<path style="fill:#49C1BE;" d="M487.57,233.671c0,3.43,0,7.52,0.221,9.367c0.088,1.143,0.395,2.067,1.714,2.287
		c0.571,0.088,1.1,0.132,1.891,0.22c0.704,0.044,0.88,0.176,0.88,0.484c0,0.264-0.219,0.396-1.011,0.396
		c-2.99,0-7.257-0.132-7.96-0.132c-0.748,0-5.014,0.132-6.465,0.132c-0.703,0-1.011-0.088-1.011-0.44c0-0.308,0.352-0.44,0.88-0.44
		c0.44-0.044,0.924-0.088,1.407-0.176c0.967-0.176,1.276-1.143,1.407-2.418c0.175-1.847,0.263-5.014,0.263-9.279v-17.238
		c-1.714,0-4.441-0.044-6.64,0.088c-2.462,0.132-3.43,0.704-4.001,2.243c-0.221,0.484-0.308,0.748-0.396,1.011
		c-0.088,0.352-0.221,0.704-0.528,0.704c-0.396,0-0.396-0.352-0.352-0.88c0.176-1.803,0.659-4.178,0.967-5.849
		c0.088-0.66,0.22-1.099,0.484-1.099c0.308,0,0.484,0.132,1.495,0.351c0.792,0.176,3.21,0.308,4.882,0.308h19.129
		c1.363,0,2.155-0.088,2.771-0.176c0.704-0.132,1.056-0.264,1.363-0.264c0.396,0,0.44,0.264,0.44,1.363
		c0,0.616-0.263,4.705-0.307,5.805c-0.044,0.616-0.177,0.88-0.44,0.88c-0.352,0-0.44-0.264-0.484-0.792
		c-0.044-0.484-0.044-0.659-0.089-0.879c-0.176-1.363-0.835-2.419-3.43-2.595c-1.451-0.132-3.738-0.22-7.08-0.22V233.671z"/>
	<path style="fill:#49C1BE;" d="M498.253,242.774c0-1.847,1.231-3.914,3.826-3.914c2.199,0,3.826,1.539,3.826,3.782
		c0,2.243-1.716,3.958-3.87,3.958C499.483,246.6,498.253,244.489,498.253,242.774z"/>
	<path style="fill:#49C1BE;" d="M514.082,242.203c-4.309-3.694-5.541-8.224-5.541-12.929c0-2.99,1.011-8.443,5.453-12.181
		c3.782-3.21,8.179-4.529,14.556-4.529c2.506,0,4.529,0.264,6.244,0.527c1.979,0.308,3.035,0.528,4.353,0.572
		c0.484,0.044,0.484,0.308,0.484,0.571c0,0.352-0.132,1.407-0.219,2.903c-0.088,1.451-0.044,4.046-0.132,5.145
		c-0.044,0.659-0.133,1.055-0.527,1.055c-0.352,0-0.484-0.308-0.529-0.924c-0.044-0.967-0.219-2.726-1.67-4.31
		c-1.539-1.627-4.618-2.771-8.883-2.771c-2.595,0-4.749,0.616-6.465,2.111c-2.683,2.331-3.87,6.42-3.87,11.126
		c0,9.059,4.925,15.128,12.313,15.128c3.606,0,5.849-0.308,7.564-2.243c0.617-0.659,1.1-1.627,1.451-2.946
		c0.22-0.924,0.352-1.231,0.704-1.231c0.308,0,0.352,0.439,0.352,0.791c0,0.747-0.529,4.573-0.967,6.684
		c-0.089,0.66-0.396,1.012-1.144,1.276c-1.759,0.704-4.749,1.011-7.564,1.011C524.329,247.04,518.7,246.073,514.082,242.203z"/>
	<path style="fill:#49C1BE;" d="M544.86,242.774c0-1.847,1.231-3.914,3.826-3.914c2.199,0,3.826,1.539,3.826,3.782
		c0,2.243-1.716,3.958-3.87,3.958C546.09,246.6,544.86,244.489,544.86,242.774z"/>
	<path style="fill:#49C1BE;" d="M487.57,286.435c0,3.43,0,7.52,0.221,9.367c0.088,1.143,0.395,2.067,1.714,2.287
		c0.571,0.088,1.1,0.132,1.891,0.22c0.704,0.044,0.88,0.176,0.88,0.484c0,0.264-0.219,0.396-1.011,0.396
		c-2.99,0-7.257-0.132-7.96-0.132c-0.748,0-5.014,0.132-6.465,0.132c-0.703,0-1.011-0.088-1.011-0.44c0-0.308,0.352-0.44,0.88-0.44
		c0.44-0.044,0.924-0.088,1.407-0.176c0.967-0.176,1.276-1.144,1.407-2.418c0.175-1.847,0.263-5.014,0.263-9.279v-17.238
		c-1.714,0-4.441-0.044-6.64,0.088c-2.462,0.132-3.43,0.704-4.001,2.243c-0.221,0.484-0.308,0.748-0.396,1.011
		c-0.088,0.352-0.221,0.704-0.528,0.704c-0.396,0-0.396-0.352-0.352-0.88c0.176-1.803,0.659-4.178,0.967-5.849
		c0.088-0.66,0.22-1.099,0.484-1.099c0.308,0,0.484,0.132,1.495,0.352c0.792,0.176,3.21,0.308,4.882,0.308h19.129
		c1.363,0,2.155-0.088,2.771-0.176c0.704-0.132,1.056-0.264,1.363-0.264c0.396,0,0.44,0.264,0.44,1.363
		c0,0.616-0.263,4.705-0.307,5.805c-0.044,0.616-0.177,0.88-0.44,0.88c-0.352,0-0.44-0.264-0.484-0.792
		c-0.044-0.484-0.044-0.659-0.089-0.879c-0.176-1.363-0.835-2.419-3.43-2.595c-1.451-0.132-3.738-0.22-7.08-0.22V286.435z"/>
	<path style="fill:#49C1BE;" d="M501.858,282.697c0-8.795,5.893-17.371,18.822-17.371c11.17,0,18.162,7.476,18.162,16.403
		c0,10.247-6.948,18.074-18.469,18.074C507.399,299.804,501.858,290.481,501.858,282.697z M530.046,283.664
		c0-7.3-3.034-15.611-10.818-15.611c-4.045,0-8.575,2.242-8.575,12.665c0,8.311,3.474,16.271,11.037,16.271
		C524.417,296.989,530.046,295.802,530.046,283.664z"/>
	<path style="fill:#49C1BE;" d="M555.019,281.334c2.419-2.242,6.025-6.024,9.498-9.938c1.451-1.671,2.287-2.902,2.287-3.606
		c0-0.484-0.175-0.748-1.232-0.967c-0.395-0.044-0.747-0.132-0.747-0.44c0-0.22,0.219-0.396,0.703-0.396
		c1.979,0,2.155,0.088,4.662,0.088c2.551,0,5.76-0.088,6.333-0.088c0.747,0,0.924,0.088,0.924,0.396c0,0.22-0.221,0.395-0.792,0.44
		c-0.659,0.088-1.055,0.132-1.583,0.264c-2.155,0.44-3.562,1.759-5.674,3.782c-2.022,1.935-6.991,7.08-8.135,8.311
		c1.715,2.683,8.971,11.478,11.918,14.556c2.638,2.683,3.826,3.65,4.616,4.002c0.792,0.352,1.32,0.484,2.024,0.572
		c0.615,0.044,0.924,0.132,0.924,0.484c0,0.352-0.396,0.396-0.88,0.396h-4.309c-5.806,0-7.828-0.572-10.071-3.034
		c-2.418-2.639-7.212-8.796-10.466-13.589v3.87c0,3.43,0.044,7.432,0.219,9.279c0.088,1.099,0.396,2.198,1.891,2.418
		c0.616,0.088,1.32,0.132,1.891,0.176c0.529,0,0.748,0.22,0.748,0.44c0,0.22-0.175,0.44-0.836,0.44
		c-2.902,0-7.607-0.132-8.003-0.132c-0.219,0-5.233,0.132-6.684,0.132c-0.571,0-0.88-0.088-0.88-0.44c0-0.308,0.308-0.44,0.792-0.44
		c0.44-0.044,0.88-0.044,1.363-0.132c1.362-0.22,1.495-1.275,1.627-2.551c0.176-1.847,0.264-4.925,0.264-9.191v-7.74
		c0-6.816,0-8.047-0.133-9.455c-0.088-1.231-0.571-2.023-1.627-2.243c-0.66-0.132-1.232-0.132-1.672-0.176
		c-0.571,0-0.923-0.088-0.923-0.484c0-0.264,0.352-0.396,1.188-0.396c1.891,0,6.376,0.132,6.684,0.132
		c0.396,0,5.717-0.132,7.3-0.132c0.747,0,0.924,0.176,0.924,0.396c0,0.308-0.221,0.439-0.792,0.484
		c-0.396,0.044-0.659,0.044-1.32,0.132c-1.539,0.22-1.803,1.231-1.891,2.639c-0.088,1.407-0.132,2.287-0.132,9.103V281.334z"/>
	<path style="fill:#49C1BE;" d="M587.071,290.085c-0.22,0-0.308,0.088-0.396,0.308l-1.363,3.606
		c-0.44,1.144-0.704,2.287-0.704,2.815c0,0.836,0.396,1.232,1.32,1.319c0.484,0.088,1.188,0.132,1.54,0.176
		c0.659,0,0.791,0.22,0.791,0.44c0,0.352-0.352,0.44-0.924,0.44c-1.979,0-3.474-0.132-5.804-0.132c-0.484,0-3.386,0.132-5.585,0.132
		c-0.615,0-0.88-0.176-0.88-0.44c0-0.352,0.308-0.44,0.836-0.44c0.528-0.044,0.967-0.088,1.407-0.176
		c1.539-0.308,2.419-1.671,3.342-3.782l11.742-26.561c0.836-1.891,1.319-2.551,1.803-2.551c0.44,0,0.836,0.615,1.583,2.199
		c1.144,2.463,8.531,19.305,11.522,25.99c1.495,3.43,2.462,4.485,4.001,4.705c0.484,0.132,1.011,0.132,1.407,0.176
		c0.573,0,0.836,0.176,0.836,0.44c0,0.308-0.308,0.44-1.143,0.44c-4.31,0-9.323-0.088-12.137-0.132
		c-0.704,0-0.967-0.132-0.967-0.396c0-0.264,0.219-0.44,0.615-0.528c0.484-0.088,0.659-0.396,0.527-0.791l-2.946-6.992
		c-0.044-0.176-0.22-0.264-0.352-0.264H587.071z M595.865,286.567c0.264,0,0.264-0.132,0.221-0.22l-3.87-9.411
		c-0.133-0.308-0.221-0.22-0.308,0l-3.738,9.411c-0.044,0.132,0.044,0.22,0.175,0.22H595.865z"/>
	<path style="fill:#49C1BE;" d="M627.172,286.435c0,3.43,0,7.52,0.219,9.367c0.089,1.143,0.396,2.067,1.715,2.287
		c0.571,0.088,1.099,0.132,1.891,0.22c0.704,0.044,0.88,0.176,0.88,0.484c0,0.264-0.219,0.396-1.011,0.396
		c-2.99,0-7.257-0.132-7.96-0.132c-0.748,0-5.014,0.132-6.465,0.132c-0.703,0-1.011-0.088-1.011-0.44c0-0.308,0.352-0.44,0.88-0.44
		c0.44-0.044,0.924-0.088,1.407-0.176c0.967-0.176,1.276-1.144,1.407-2.418c0.175-1.847,0.263-5.014,0.263-9.279v-17.238
		c-1.714,0-4.441-0.044-6.64,0.088c-2.462,0.132-3.43,0.704-4.001,2.243c-0.221,0.484-0.308,0.748-0.396,1.011
		c-0.088,0.352-0.221,0.704-0.528,0.704c-0.396,0-0.396-0.352-0.352-0.88c0.176-1.803,0.659-4.178,0.967-5.849
		c0.088-0.66,0.221-1.099,0.484-1.099c0.308,0,0.484,0.132,1.495,0.352c0.792,0.176,3.21,0.308,4.882,0.308h19.13
		c1.362,0,2.154-0.088,2.769-0.176c0.704-0.132,1.056-0.264,1.363-0.264c0.396,0,0.44,0.264,0.44,1.363
		c0,0.616-0.263,4.705-0.307,5.805c-0.045,0.616-0.177,0.88-0.44,0.88c-0.352,0-0.44-0.264-0.484-0.792
		c-0.044-0.484-0.044-0.659-0.089-0.879c-0.175-1.363-0.835-2.419-3.43-2.595c-1.451-0.132-3.738-0.22-7.08-0.22V286.435z"/>
	<path style="fill:#49C1BE;" d="M469.716,323.148c-1.232-2.727-1.715-3.123-3.21-3.43c-0.352-0.088-0.747-0.132-1.011-0.132
		c-0.484-0.088-0.704-0.264-0.704-0.484c0-0.308,0.352-0.396,0.924-0.396c2.376,0,4.926,0.132,6.685,0.132
		c1.539,0,3.913-0.132,7.343-0.132c0.66,0,1.011,0.176,1.011,0.44c0,0.264-0.263,0.44-0.659,0.44
		c-0.527,0.044-0.792,0.044-1.187,0.132c-1.144,0.176-1.319,0.66-1.319,1.1c0,0.571,0.263,1.451,1.011,3.342
		c2.066,5.365,4.837,11.918,6.816,17.063c1.803-4.046,6.377-14.82,7.828-18.954c0.22-0.484,0.352-1.056,0.352-1.451
		c0-0.572-0.264-0.88-1.055-1.012c-0.529-0.132-1.275-0.176-1.759-0.219c-0.571-0.044-0.792-0.176-0.792-0.44
		c0-0.264,0.22-0.44,0.967-0.44c2.902,0,5.057,0.132,5.717,0.132c0.66,0,3.519-0.132,4.882-0.132c0.659,0,0.967,0.132,0.967,0.44
		c0,0.308-0.22,0.44-0.792,0.44c-0.528,0.044-1.231,0.044-1.935,0.395c-0.924,0.44-1.539,1.363-2.771,3.958
		c-1.759,3.782-3.342,7.344-5.848,12.929c-2.814,6.245-4.705,10.246-5.849,12.533c-1.275,2.595-1.714,3.166-2.287,3.166
		c-0.615,0-0.967-0.615-1.802-2.638L469.716,323.148z"/>
	<path style="fill:#49C1BE;" d="M505.113,342.849c-0.221,0-0.308,0.088-0.396,0.308l-1.363,3.606
		c-0.44,1.144-0.704,2.287-0.704,2.815c0,0.836,0.396,1.232,1.319,1.319c0.484,0.088,1.188,0.132,1.54,0.176
		c0.659,0,0.791,0.22,0.791,0.44c0,0.352-0.352,0.44-0.924,0.44c-1.979,0-3.474-0.132-5.804-0.132c-0.484,0-3.386,0.132-5.585,0.132
		c-0.615,0-0.88-0.176-0.88-0.44c0-0.352,0.308-0.44,0.836-0.44c0.527-0.044,0.967-0.088,1.407-0.176
		c1.539-0.308,2.419-1.671,3.342-3.782l11.742-26.561c0.836-1.891,1.32-2.551,1.803-2.551c0.44,0,0.836,0.615,1.583,2.199
		c1.144,2.463,8.531,19.305,11.522,25.99c1.495,3.43,2.462,4.486,4.001,4.705c0.484,0.132,1.012,0.132,1.407,0.176
		c0.573,0,0.836,0.176,0.836,0.44c0,0.308-0.308,0.44-1.143,0.44c-4.311,0-9.323-0.088-12.138-0.132
		c-0.704,0-0.967-0.132-0.967-0.396c0-0.264,0.219-0.44,0.615-0.528c0.484-0.088,0.659-0.396,0.528-0.791l-2.946-6.992
		c-0.044-0.176-0.221-0.264-0.352-0.264H505.113z M513.908,339.331c0.264,0,0.264-0.132,0.221-0.22l-3.87-9.411
		c-0.133-0.308-0.221-0.22-0.308,0l-3.738,9.411c-0.044,0.132,0.044,0.22,0.176,0.22H513.908z"/>
	<path style="fill:#49C1BE;" d="M543.234,339.242c0,4.442-0.132,7.608,0.616,8.532c0.615,0.835,1.451,1.055,5.1,1.055
		c2.42,0,3.827-0.044,5.058-0.704c1.055-0.484,1.803-1.627,2.287-3.693c0.132-0.484,0.22-0.836,0.571-0.836
		c0.308,0,0.352,0.22,0.352,0.836c0,1.011-0.484,5.189-0.923,6.464c-0.352,1.143-0.703,1.187-2.462,1.187
		c-6.069,0-10.159-0.264-14.82-0.264c-2.067,0-4.441,0.132-6.86,0.132c-0.616,0-0.967-0.088-0.967-0.484
		c0-0.264,0.263-0.396,0.879-0.396c0.529-0.044,1.012-0.088,1.496-0.176c1.583-0.264,1.627-1.055,1.758-4.573
		c0.089-1.759,0.133-4.398,0.133-7.125v-7.74c0-7.168-0.044-7.96-0.133-9.367c-0.088-1.231-0.396-1.979-1.495-2.287
		c-0.396-0.132-1.055-0.176-1.715-0.219c-0.484,0-0.923-0.088-0.923-0.44c0-0.352,0.439-0.44,1.318-0.44
		c2.507,0,4.794,0.132,6.509,0.132c0.396,0,5.849-0.132,7.432-0.132c0.792,0,1.055,0.132,1.055,0.396
		c0,0.395-0.44,0.484-1.055,0.484c-0.44,0.044-0.88,0.044-1.495,0.175c-1.188,0.22-1.495,1.056-1.584,2.595
		c-0.088,1.407-0.132,2.287-0.132,9.543V339.242z"/>
	<path style="fill:#49C1BE;" d="M564.075,331.459c0-6.816,0-8.091-0.133-9.499c-0.088-1.232-0.571-2.023-1.539-2.199
		c-0.308-0.088-0.748-0.132-1.32-0.175c-0.528,0-0.836-0.176-0.836-0.484c0-0.264,0.221-0.396,0.969-0.396
		c1.758,0,6.068,0.132,6.42,0.132c0.396,0,5.585-0.132,7.169-0.132c0.747,0,0.967,0.176,0.967,0.44c0,0.352-0.396,0.44-0.836,0.44
		c-0.44,0.044-0.704,0.044-1.276,0.132c-1.143,0.22-1.583,0.792-1.67,2.375c-0.133,1.407-0.133,2.551-0.133,9.367v7.74
		c0,3.474,0.044,7.564,0.22,9.411c0.088,1.143,0.351,1.935,1.67,2.243c0.571,0.132,1.364,0.176,1.935,0.22
		c0.748,0,0.924,0.176,0.924,0.44c0,0.22-0.219,0.44-0.924,0.44c-2.99,0-7.695-0.132-8.091-0.132c-0.219,0-4.837,0.132-6.332,0.132
		c-0.704,0-1.056-0.088-1.056-0.44c0-0.308,0.352-0.44,0.88-0.44c0.44-0.044,0.88-0.088,1.363-0.176
		c0.924-0.132,1.232-1.1,1.363-2.375c0.176-1.847,0.264-5.013,0.264-9.323V331.459z M565.262,312.901
		c0-1.319,1.011-2.771,2.639-2.771c1.539,0,2.727,1.187,2.727,2.683c0,1.363-1.1,2.726-2.727,2.726
		C566.229,315.539,565.262,314.22,565.262,312.901z"/>
	<path style="fill:#49C1BE;" d="M593.36,339.242c0,4.442-0.132,7.608,0.617,8.532c0.615,0.835,1.451,1.055,5.1,1.055
		c2.42,0,3.827-0.044,5.057-0.704c1.055-0.484,1.803-1.627,2.287-3.693c0.132-0.484,0.221-0.836,0.571-0.836
		c0.308,0,0.352,0.22,0.352,0.836c0,1.011-0.484,5.189-0.924,6.464c-0.352,1.143-0.703,1.187-2.462,1.187
		c-6.069,0-10.159-0.264-14.82-0.264c-2.066,0-4.441,0.132-6.859,0.132c-0.617,0-0.967-0.088-0.967-0.484
		c0-0.264,0.263-0.396,0.879-0.396c0.529-0.044,1.012-0.088,1.496-0.176c1.583-0.264,1.627-1.055,1.758-4.573
		c0.089-1.759,0.133-4.398,0.133-7.125v-7.74c0-7.168-0.044-7.96-0.133-9.367c-0.088-1.231-0.395-1.979-1.495-2.287
		c-0.396-0.132-1.055-0.176-1.714-0.219c-0.485,0-0.924-0.088-0.924-0.44c0-0.352,0.439-0.44,1.318-0.44
		c2.508,0,4.794,0.132,6.509,0.132c0.396,0,5.849-0.132,7.432-0.132c0.792,0,1.055,0.132,1.055,0.396
		c0,0.395-0.44,0.484-1.055,0.484c-0.44,0.044-0.88,0.044-1.495,0.175c-1.188,0.22-1.495,1.056-1.583,2.595
		c-0.089,1.407-0.133,2.287-0.133,9.543V339.242z"/>
	<path style="fill:#49C1BE;" d="M614.201,331.459c0-6.816,0-8.091-0.133-9.499c-0.088-1.232-0.571-2.023-1.539-2.199
		c-0.308-0.088-0.748-0.132-1.319-0.175c-0.527,0-0.836-0.176-0.836-0.484c0-0.264,0.22-0.396,0.969-0.396
		c1.758,0,6.068,0.132,6.42,0.132c0.396,0,5.585-0.132,7.168-0.132c0.748,0,0.969,0.176,0.969,0.44c0,0.352-0.396,0.44-0.836,0.44
		c-0.44,0.044-0.704,0.044-1.276,0.132c-1.143,0.22-1.583,0.792-1.672,2.375c-0.132,1.407-0.132,2.551-0.132,9.367v7.74
		c0,3.474,0.044,7.564,0.221,9.411c0.088,1.143,0.351,1.935,1.67,2.243c0.571,0.132,1.363,0.176,1.935,0.22
		c0.748,0,0.924,0.176,0.924,0.44c0,0.22-0.219,0.44-0.924,0.44c-2.99,0-7.695-0.132-8.091-0.132c-0.219,0-4.837,0.132-6.332,0.132
		c-0.704,0-1.056-0.088-1.056-0.44c0-0.308,0.352-0.44,0.88-0.44c0.44-0.044,0.88-0.088,1.363-0.176
		c0.924-0.132,1.232-1.1,1.363-2.375c0.175-1.847,0.264-5.013,0.264-9.323V331.459z M615.388,312.901
		c0-1.319,1.011-2.771,2.639-2.771c1.539,0,2.727,1.187,2.727,2.683c0,1.363-1.1,2.726-2.727,2.726
		C616.355,315.539,615.388,314.22,615.388,312.901z"/>
	<path style="fill:#49C1BE;" d="M663.143,347.73c0,2.595-0.089,2.858-0.88,3.166c-2.331,0.924-6.817,1.671-10.774,1.671
		c-12.358,0-20.933-5.541-20.933-17.238c0-7.344,3.826-12.005,7.916-14.336c4.53-2.683,9.279-2.903,12.621-2.903
		c2.683,0,5.233,0.308,7.124,0.616c1.495,0.176,2.946,0.484,4.222,0.528c0.396,0,0.484,0.176,0.44,0.571
		c-0.088,0.44-0.484,2.243-0.484,8.092c0,0.704-0.176,0.924-0.484,0.924c-0.308,0-0.484-0.352-0.527-0.704
		c-0.088-0.66-0.088-1.143-0.528-2.199c-0.836-2.991-4.749-5.101-10.862-5.101c-3.254,0-5.893,0.923-7.872,3.166
		c-1.716,1.935-2.771,5.189-2.771,9.499c0,7.871,3.782,16.271,13.017,16.271c0.615,0,1.802-0.044,2.462-0.527
		c0.352-0.264,0.527-0.66,0.527-1.187v-2.683c0-1.803,0-3.518-0.044-5.145c0-2.507-0.571-3.43-2.066-3.65
		c-0.573-0.088-1.144-0.132-1.892-0.22c-0.351,0-0.703-0.176-0.703-0.44c0-0.264,0.219-0.44,0.924-0.44
		c2.858,0,6.244,0.132,7.432,0.132c1.583,0,4.441-0.132,6.816-0.132c0.66,0,1.012,0.088,1.012,0.44c0,0.308-0.264,0.396-0.704,0.44
		c-0.175,0-0.748,0.088-1.188,0.132c-1.055,0.219-1.539,0.704-1.671,2.242c-0.088,1.407-0.132,3.694-0.132,5.849V347.73z
		 M641.155,310.263c0.703-0.747,1.935-1.363,2.331-1.363c0.175,0,0.307,0.044,0.396,0.264c0.659,1.715,2.902,3.342,6.507,3.342
		c3.167,0,5.453-1.055,7.169-3.122c0.396-0.44,0.484-0.484,0.703-0.484c0.352,0,0.264,0.66-0.175,1.275
		c-2.112,3.254-5.937,4.75-9.367,4.75c-2.375,0-4.486-0.264-6.509-1.671c-1.011-0.792-1.495-1.627-1.495-2.287
		C640.715,310.659,640.891,310.394,641.155,310.263z"/>
	<path style="fill:#49C1BE;" d="M673.824,331.459c0-6.816,0-8.091-0.133-9.499c-0.088-1.232-0.571-2.023-1.539-2.199
		c-0.308-0.088-0.748-0.132-1.32-0.175c-0.527,0-0.836-0.176-0.836-0.484c0-0.264,0.22-0.396,0.969-0.396
		c1.758,0,6.068,0.132,6.42,0.132c0.396,0,5.585-0.132,7.168-0.132c0.748,0,0.969,0.176,0.969,0.44c0,0.352-0.396,0.44-0.836,0.44
		c-0.44,0.044-0.704,0.044-1.276,0.132c-1.143,0.22-1.583,0.792-1.672,2.375c-0.132,1.407-0.132,2.551-0.132,9.367v7.74
		c0,3.474,0.044,7.564,0.221,9.411c0.088,1.143,0.351,1.935,1.67,2.243c0.571,0.132,1.363,0.176,1.935,0.22
		c0.748,0,0.924,0.176,0.924,0.44c0,0.22-0.219,0.44-0.924,0.44c-2.99,0-7.695-0.132-8.091-0.132c-0.219,0-4.837,0.132-6.332,0.132
		c-0.704,0-1.056-0.088-1.056-0.44c0-0.308,0.352-0.44,0.88-0.44c0.44-0.044,0.88-0.088,1.363-0.176
		c0.924-0.132,1.232-1.1,1.364-2.375c0.175-1.847,0.264-5.013,0.264-9.323V331.459z M675.011,312.901
		c0-1.319,1.011-2.771,2.639-2.771c1.539,0,2.727,1.187,2.727,2.683c0,1.363-1.1,2.726-2.727,2.726
		C675.978,315.539,675.011,314.22,675.011,312.901z"/>
</g>
<rect x="438.949" y="212.854" style="fill:#49C1BE;" width="5.069" height="144.017"/>
</svg>
