<?xml version="1.0" encoding="iso-8859-1"?>
<!-- Generator: Adobe Illustrator 29.7.1, SVG Export Plug-In . SVG Version: 9.03 Build 0)  -->
<svg version="1.1" id="katman_1" xmlns="http://www.w3.org/2000/svg" xmlns:xlink="http://www.w3.org/1999/xlink" x="0px" y="0px"
	 viewBox="0 0 1588 1191" style="enable-background:new 0 0 1588 1191;" xml:space="preserve">
<g>
	<path style="fill-rule:evenodd;clip-rule:evenodd;fill:#FFFFFF;" d="M341.92,431.62c-90.71,0-164.25,73.54-164.25,164.25
		s73.54,164.25,164.25,164.25s164.25-73.54,164.25-164.25S432.64,431.62,341.92,431.62"/>
	<path style="fill-rule:evenodd;clip-rule:evenodd;fill:#00AEEF;" d="M337.25,760.11c-5.11-0.16-10.88-1.97-15.15-7
		c-15.11-17.81,6.41-47.93,28.14-34.52c-4.97-11.13-14.57-17.64-28.68-17.79c-29.85-0.32-39.44,26.64-51.25,44.51
		c-13.26-6.58-25.5-14.86-36.45-24.58l0.03,0.02c3.97-6.16,19.5-5.55,24.89-2.69c-5.29-13.21-23.31-20.62-42.19-15.1
		c-5.14-6.15-9.85-12.68-14.07-19.54c13.71-16.32,27.48-43.32,57.88-41.93c17.64,0.8,32.25,11.96,36.8,24.81
		c-1.09,0.77-2.57,1.62-4.33,2.7c-15.63-21.63-40.73-8.34-36.8,11.87c1.6,8.24,11.28,16.52,22.73,14.02
		c17.73-3.88,26.38-32.12,43.83-44.76c22.32-16.17,58.88-7.84,67.11,16.71c-1.36,0.8-2.62,1.4-3.79,2.16
		c-5.5-8.09-14.45-13.2-24.35-10.24c-19.64,5.86-15.03,41.21,9.74,36.13c3.72-0.76,9.67-4.82,12.45-7.55
		c3.96-3.89,7.63-8.89,11.44-14.15l0.06-0.07c5.85-8.28,11.87-16.98,19.63-22.6c22.33-16.17,58.87-7.84,67.11,16.71
		c-1.36,0.8-2.62,1.41-3.79,2.16c-5.5-8.1-14.45-13.2-24.35-10.24c-19.64,5.86-15.03,41.21,9.74,36.13
		c3.72-0.76,9.67-4.82,12.45-7.55c7.34-7.22,13.7-18.25,21.81-27.71c-16.3,39.52-47.5,71.37-86.64,88.61
		c-8.22-17.83,11.43-41.87,31.27-29.62c-4.97-11.13-14.57-17.64-28.68-17.79C368.55,700.68,371.54,761.2,337.25,760.11"/>
	<path style="fill-rule:evenodd;clip-rule:evenodd;fill:#0066B3;" d="M341.92,376.41c121.21,0,219.46,98.25,219.46,219.46
		s-98.25,219.46-219.46,219.46c-121.2,0-219.46-98.26-219.46-219.46S220.72,376.41,341.92,376.41 M341.92,424.83
		c94.47,0,171.04,76.58,171.04,171.04s-76.58,171.05-171.04,171.05s-171.04-76.58-171.04-171.05S247.46,424.83,341.92,424.83"/>
	<path style="fill-rule:evenodd;clip-rule:evenodd;fill:#B7274C;" d="M352.69,442.67c12.94,34.92,43.24,60.03,92.06,53.62
		c0.58,12.91,1.43,33.63-0.54,47.36c-45.37,7.1-78.98-10.18-99.09-33.81V442.7l0.06-0.04h7.51V442.67z M331.16,442.67
		c-12.94,34.92-43.24,60.03-92.06,53.62c-0.59,12.91-1.43,33.63,0.54,47.36c45.37,7.1,78.98-10.18,99.09-33.81V442.7l-0.07-0.04
		h-7.5V442.67z M262.67,593.16c8.49,13.2,27.41,14.05,42.32,19.37c15.63,5.57,25.31,14.14,33.74,26.13V571.3
		c-0.26-0.1-0.46-0.07-0.53,0.33C319.09,584.57,294.91,595.21,262.67,593.16z M338.73,518.79c-4.87,3.99-9.56,8.2-14.46,11.94
		c-18.51,14.1-49.65,25.16-84.64,18.84c2.99,15.48,9.11,27.8,17.15,38.21c36.37,2.81,62.44-9.37,81.95-25.29
		C338.73,562.48,338.73,518.79,338.73,518.79z M421.18,593.16c-8.49,13.2-27.41,14.05-42.32,19.37
		c-15.63,5.57-25.31,14.14-33.74,26.13V571.3c0.26-0.1,0.46-0.07,0.53,0.33C364.76,584.57,388.93,595.21,421.18,593.16z
		 M345.12,518.79c4.87,3.99,9.55,8.2,14.46,11.94c18.51,14.1,49.64,25.16,84.63,18.84c-2.99,15.48-9.11,27.8-17.14,38.21
		c-36.37,2.81-62.44-9.37-81.95-25.29V518.79z"/>
	<path style="fill-rule:evenodd;clip-rule:evenodd;fill:#B7274C;" d="M343.3,426.1c94.52,0,171.15,76.63,171.15,171.15
		S437.82,768.4,343.3,768.4s-171.15-76.63-171.15-171.15C172.15,502.73,248.78,426.1,343.3,426.1 M343.3,431.96
		c91.29,0,165.29,74,165.29,165.29s-74,165.29-165.29,165.29s-165.29-74-165.29-165.29C178.01,505.97,252.02,431.96,343.3,431.96"/>
	<path style="fill-rule:evenodd;clip-rule:evenodd;fill:#B7274C;" d="M341.92,370.89c124.26,0,224.98,100.73,224.98,224.98
		S466.17,820.85,341.92,820.85S116.94,720.12,116.94,595.87C116.94,471.62,217.67,370.89,341.92,370.89 M341.92,376.65
		c121.08,0,219.23,98.15,219.23,219.23c0,121.07-98.15,219.22-219.23,219.22c-121.07,0-219.22-98.15-219.22-219.22
		C122.7,474.8,220.85,376.65,341.92,376.65"/>
	<path style="fill-rule:evenodd;clip-rule:evenodd;fill:#FFFFFF;" d="M164.02,632.17l-1.07-6.03l-21.62,3.87l-1.3-7.31l-5.07,0.91
		l3.66,20.57l5.07-0.91l-1.29-7.23C142.39,636.05,164.02,632.17,164.02,632.17z M161.03,614.77l-0.15-6.09l-10.7,0.27l-0.05-1.81
		c-0.02-2.54,0.83-3.73,4.24-4.59c3.33-0.85,5.49-1.59,6.29-2.02l-0.16-6.29c-1.04,0.55-4.57,1.45-7.66,2.37
		c-2.48,0.75-4.23,1.84-4.94,3.76h-0.12c-0.9-2.32-3.33-4.72-6.74-4.63c-2.48,0.07-4.38,1-5.63,2.69c-1.48,1.97-2.01,4.81-1.91,8.84
		c0.08,3.31,0.4,6.2,0.77,8.17C134.29,615.44,161.03,614.77,161.03,614.77z M138.35,609.25c-0.13-0.44-0.23-1.29-0.27-2.78
		c-0.07-2.82,1.17-4.55,3.61-4.61c2.36-0.06,3.93,1.72,4,4.78l0.06,2.42C145.76,609.06,138.35,609.25,138.35,609.25z M154.8,575.08
		l7.1-1.56l0.5-6.64l-27.68,6.38l-0.61,8.04l26.41,10.3l0.48-6.31l-6.79-2.46C154.21,582.84,154.8,575.08,154.8,575.08z
		 M149.71,581.61l-5.62-2.04c-1.53-0.56-3.55-1.12-5.12-1.65v-0.08c1.64-0.28,3.68-0.61,5.32-0.97l5.86-1.25
		C150.16,575.62,149.71,581.61,149.71,581.61z M163.68,562.59c0.5-1.29,1.2-3.45,1.88-6.39c1.21-5.27,1.09-8.69,0.01-10.97
		c-0.95-1.96-2.58-3.49-5.01-4.06c-3.37-0.78-6.2,0.92-7.68,3.77l-0.08-0.02c-0.45-3.25-2.29-5.13-4.6-5.66
		c-2.43-0.56-4.53,0.32-5.94,1.94c-1.59,1.7-2.46,3.86-3.3,7.51c-0.7,3.03-1.14,6.23-1.23,7.87L163.68,562.59z M143.05,551.57
		c0.03-0.49,0.13-1.25,0.43-2.59c0.62-2.71,2.04-4,4.03-3.54c1.96,0.45,2.87,2.4,2.14,5.59l-0.45,1.96L143.05,551.57L143.05,551.57z
		 M153.48,553.98l0.47-2.04c0.69-2.99,2.3-5.14,4.92-4.53c2.78,0.64,3.29,3.29,2.67,6c-0.24,1.02-0.4,1.73-0.61,2.3
		C160.93,555.7,153.48,553.98,153.48,553.98z M169.6,539.87l7.72-19.62l-4.72-1.86l-4.71,11.97l-0.15-0.06l-12.43-18.53l-3.29-1.3
		l-7.22,18.35l4.72,1.86l4.31-10.96l0.15,0.06l12.55,18.88C166.53,538.65,169.6,539.87,169.6,539.87z M161.02,492.64
		c-3.97,6.92-1.31,14.5,5.73,18.56c6.73,3.88,14.36,2.79,18.35-4.17c3.97-6.92,2-14.24-5.74-18.71
		C172.85,484.57,165.17,485.4,161.02,492.64z M165.18,495.17c2.11-3.67,6.88-3.57,11.13-1.12c4.57,2.63,6.8,6.67,4.74,10.27
		c-2.04,3.57-6.53,3.86-11.17,1.19C165.31,502.88,163.1,498.81,165.18,495.17z M197.94,487.03l-6.42-5.06
		c-3.48-2.74-6.53-5.05-9.51-7.13l0.1-0.13c3.29,0.95,7.16,1.7,10.44,2.22l11.81,1.91l3.98-5.07l-21.32-16.8l-3.48,4.44l6.2,4.89
		c3.23,2.54,6.18,4.71,9.22,6.65l-0.05,0.06c-3.18-0.91-6.8-1.76-10.04-2.27l-11.29-1.72l-4.42,5.64l21.32,16.8
		C194.46,491.46,197.94,487.03,197.94,487.03z M218.78,463.96c1.16-0.74,3-2.07,5.28-4.05c4.07-3.54,5.99-6.37,6.45-8.86
		c0.38-2.15-0.03-4.35-1.66-6.24c-2.26-2.62-5.55-2.91-8.42-1.49l-0.05-0.06c1.55-2.89,1.16-5.49-0.39-7.29
		c-1.63-1.89-3.85-2.42-5.94-1.94c-2.28,0.44-4.26,1.67-7.08,4.12c-2.34,2.03-4.59,4.36-5.62,5.63
		C201.34,443.78,218.78,463.96,218.78,463.96z M208.59,442.88c0.31-0.38,0.84-0.94,1.87-1.84c2.1-1.82,4-2.03,5.34-0.47
		c1.32,1.52,0.91,3.64-1.55,5.78l-1.52,1.32C212.73,447.66,208.59,442.88,208.59,442.88z M215.6,450.98l1.58-1.37
		c2.31-2.01,4.88-2.8,6.64-0.75c1.87,2.16,0.73,4.6-1.37,6.42c-0.79,0.69-1.34,1.16-1.85,1.5
		C220.6,456.78,215.6,450.98,215.6,450.98z M224.67,424.34l7.54,13.15c4.29,7.48,9.65,8.81,15.58,5.4
		c6.14-3.54,7.82-9.11,3.64-16.38l-7.58-13.22l-5.3,3.06l7.76,13.53c2.41,4.2,2,7.04-0.8,8.65c-2.69,1.55-5.44,0.39-7.79-3.7
		l-7.76-13.53C229.97,421.28,224.67,424.34,224.67,424.34z M230.06,419.42c1.36-0.78,1.71-2.43,0.97-3.72
		c-0.8-1.4-2.4-1.83-3.69-1.09c-1.36,0.78-1.8,2.44-1.02,3.8C227.06,419.7,228.73,420.18,230.06,419.42z M237.28,415.26
		c1.39-0.8,1.75-2.45,1.01-3.74c-0.8-1.4-2.39-1.83-3.72-1.07c-1.36,0.78-1.77,2.42-0.99,3.78
		C234.32,415.52,235.92,416.04,237.28,415.26z M274.25,429.25l-4.15-10.54l2.51-18.03l-6.4,2.53l-0.15,7.08
		c-0.04,2.1-0.07,3.8-0.01,5.6l-0.07,0.03c-1.25-1.41-2.34-2.54-3.85-4.07l-4.94-5.07l-6.55,2.59l13.84,11.78l4.07,10.35
		C268.56,431.5,274.25,429.25,274.25,429.25z M279.93,397.94l3.4,14.78c1.93,8.41,6.68,11.24,13.34,9.7
		c6.9-1.6,10.12-6.44,8.24-14.61l-3.42-14.85l-5.96,1.38l3.5,15.21c1.09,4.72-0.13,7.31-3.27,8.04c-3.02,0.7-5.32-1.21-6.37-5.81
		l-3.5-15.21C285.89,396.56,279.93,397.94,279.93,397.94z M286.52,394.8c1.53-0.35,2.34-1.83,2.01-3.28
		c-0.36-1.57-1.76-2.45-3.21-2.11c-1.53,0.35-2.43,1.81-2.08,3.34C283.57,394.2,285.03,395.15,286.52,394.8z M294.63,392.92
		c1.57-0.36,2.39-1.83,2.05-3.29c-0.36-1.57-1.76-2.45-3.25-2.1c-1.53,0.35-2.39,1.8-2.04,3.33
		C291.73,392.31,293.1,393.28,294.63,392.92z M313.6,418.1l6.06-0.46l-0.67-8.85l2.07-3.03l7.55,11.19l7.1-0.54l-10.57-14.85
		l8.07-12.22l-7.54,0.58l-5.41,9.47c-0.57,1.02-1.14,2.03-1.66,3.12l-0.08,0.01l-0.91-11.98l-6.06,0.46
		C311.55,391,313.6,418.1,313.6,418.1z M338.04,415.15c1.75,1.01,4.98,1.82,7.32,1.88c0.08,0,0.12,0,0.12,0l-1.52,2.87
		c2.21,0.22,3.12,0.76,3.1,1.53s-0.71,1.03-1.43,1.01c-0.68-0.02-1.52-0.28-2.2-0.7l-0.86,2.24c0.75,0.5,1.91,0.85,3.24,0.89
		c2.49,0.06,4.89-0.85,4.96-3.47c0.04-1.57-1.3-2.74-2.82-2.98l0.93-1.59c5.29-0.83,7.83-4.12,7.93-7.95
		c0.1-3.83-2.05-6.39-6.79-8.28c-3.51-1.42-4.98-2.22-4.93-3.96c0.03-1.37,1.35-2.59,4.01-2.52c2.62,0.07,4.57,0.88,5.6,1.44
		l1.49-4.89c-1.59-0.81-3.79-1.47-6.88-1.54c-6.35-0.16-10.35,3.25-10.46,7.88c-0.1,3.95,2.81,6.53,7.28,8.25
		c3.23,1.21,4.49,2.21,4.45,3.9c-0.04,1.77-1.56,2.91-4.38,2.84c-2.62-0.07-5.17-0.98-6.75-1.87L338.04,415.15z M380.36,404.02
		l-9.82-1.76l0.99-5.56l10.41,1.86l0.89-4.96l-16.44-2.94l-4.77,26.76l16.99,3.04l0.89-4.96l-10.97-1.96l1.13-6.35l9.82,1.76
		C379.48,408.94,380.36,404.02,380.36,404.02z M392.38,395.29l-8.69,25.75l5.79,1.96l3.64-10.77l9.57,3.24l-3.64,10.77l5.79,1.96
		l8.69-25.75l-5.79-1.96l-3.33,9.89l-9.57-3.24l3.34-9.89C398.17,397.25,392.38,395.29,392.38,395.29z M421.74,405.82l-11.17,24.77
		l5.57,2.53l11.17-24.77L421.74,405.82L421.74,405.82z M425.17,405.65c1.43,0.65,3.02-0.05,3.62-1.37c0.65-1.43,0.08-3.02-1.31-3.65
		c-1.43-0.65-3.06-0.06-3.71,1.37C423.17,403.32,423.74,405,425.17,405.65z M421.77,435.54l5.27,3.04l5.34-9.3l1.57,0.9
		c2.18,1.3,2.75,2.65,1.7,6.02c-1.01,3.3-1.5,5.53-1.56,6.44l5.44,3.14c0.07-1.18,1.14-4.67,1.96-7.79
		c0.65-2.52,0.63-4.58-0.63-6.19l0.06-0.1c2.44,0.43,5.75-0.4,7.45-3.36c1.24-2.16,1.43-4.27,0.64-6.21
		c-0.91-2.29-3.05-4.23-6.54-6.24c-2.86-1.65-5.49-2.89-7.36-3.59L421.77,435.54L421.77,435.54z M438.27,418.99
		c0.44,0.12,1.21,0.48,2.5,1.22c2.44,1.41,3.27,3.36,2.05,5.48c-1.18,2.05-3.5,2.47-6.15,0.94l-2.09-1.21L438.27,418.99
		L438.27,418.99z M449.73,452.77c0.9,1.05,2.47,2.68,4.76,4.66c4.08,3.54,7.15,5.03,9.67,5.14c2.17,0.07,4.29-0.65,5.92-2.54
		c2.27-2.62,2.09-5.92,0.27-8.57l0.05-0.06c3.07,1.12,5.59,0.37,7.14-1.43c1.63-1.89,1.84-4.16,1.07-6.17
		c-0.76-2.2-2.25-3.98-5.08-6.44c-2.34-2.03-4.96-3.93-6.36-4.77L449.73,452.77L449.73,452.77z M469.1,439.65
		c0.42,0.26,1.04,0.7,2.08,1.59c2.1,1.82,2.57,3.68,1.23,5.23c-1.32,1.52-3.47,1.42-5.93-0.72l-1.52-1.32
		C464.97,444.44,469.1,439.65,469.1,439.65z M462.1,447.76l1.58,1.37c2.31,2.01,3.46,4.44,1.69,6.48c-1.87,2.17-4.44,1.38-6.54-0.45
		c-0.79-0.69-1.33-1.16-1.74-1.62L462.1,447.76z M491.37,469.99l-6.88-7.24l4.08-3.89l7.3,7.68l3.64-3.48l-11.52-12.11l-19.63,18.76
		l11.91,12.52l3.64-3.48l-7.69-8.09l4.66-4.45l6.89,7.24C487.76,473.44,491.37,469.99,491.37,469.99z M483.16,486.39l9.79,13.8
		l4.19-2.99l-6.25-8.81l17.9-12.76l-3.54-5C505.26,470.64,483.16,486.39,483.16,486.39z M517.45,510.78l-4.55-8.9l5.01-2.57
		l4.82,9.44l4.48-2.3l-7.61-14.9l-24.14,12.39l7.87,15.4l4.48-2.3l-5.08-9.94l5.73-2.94l4.55,8.9
		C513.01,513.06,517.45,510.78,517.45,510.78z M505.62,523.8c0.36,1.46,1.01,3.68,2.18,6.64c1.95,4.95,4.6,8.63,7.86,10.42
		c3,1.59,7.03,2.03,11.85,0.13c4.46-1.76,6.91-4.64,7.83-8.03c0.85-3.11,0.51-6.62-1.4-11.46c-1.12-2.85-2.42-5.5-3.59-7.47
		L505.62,523.8z M528.56,521.33c0.3,0.44,0.76,1.26,1.24,2.5c1.95,4.95,0.39,9.12-4.85,11.19c-6.03,2.38-10.21,0.09-12.23-5.14
		c-0.26-0.67-0.59-1.5-0.67-2.03L528.56,521.33z M541.39,545.03l-26.42,6.11l1.37,5.97l26.42-6.11L541.39,545.03L541.39,545.03z
		 M543.6,547.66c0.35,1.53,1.87,2.38,3.28,2.06c1.53-0.35,2.44-1.77,2.1-3.26c-0.35-1.53-1.81-2.48-3.34-2.13
		C544.23,544.66,543.25,546.13,543.6,547.66z M519.39,574.67l11.21-1.43l16.81,6.88l-0.87-6.84l-6.81-1.9
		c-2.02-0.56-3.66-1-5.41-1.38l-0.01-0.08c1.68-0.86,3.04-1.65,4.89-2.74l6.12-3.54l-0.89-7l-14.8,10.54l-11.02,1.4L519.39,574.67
		L519.39,574.67z M537.41,602.33l-0.25-10l5.63-0.14l0.27,10.6l5.03-0.13l-0.42-16.73l-27.11,0.69l0.44,17.29l5.03-0.13l-0.28-11.17
		l6.43-0.16l0.25,10C532.42,602.46,537.41,602.33,537.41,602.33z M522.13,608.07c-1.03,1.41-2.25,4.35-2.64,7.43
		c-0.94,7.4,2.46,11.33,6.97,11.9c3.79,0.48,6.55-1.4,8.9-5.94c1.76-3.35,2.71-4.74,4.43-4.52c1.36,0.17,2.43,1.61,2.1,4.25
		c-0.33,2.6-1.34,4.46-1.99,5.44l4.7,1.98c0.96-1.51,1.84-3.63,2.23-6.71c0.8-6.32-2.18-10.65-6.77-11.23
		c-3.91-0.5-6.76,2.15-8.92,6.42c-1.53,3.1-2.65,4.26-4.32,4.04c-1.76-0.22-2.73-1.85-2.37-4.65c0.33-2.6,1.49-5.05,2.53-6.55
		C526.96,609.95,522.13,608.07,522.13,608.07z M544.06,637.47l-26.42-6.11l-1.38,5.97l26.42,6.11
		C542.69,643.45,544.06,637.47,544.06,637.47z M544.9,640.82c-0.35,1.53,0.64,2.96,2.05,3.29c1.53,0.35,2.97-0.51,3.31-2.01
		c0.35-1.53-0.54-3.02-2.07-3.38C546.78,638.39,545.26,639.28,544.9,640.82z M301.11,800.18l5.89,1.05l4.65-25.95l-5.01-0.89
		l-7.51,1.96l0.19,4.73l5.39-1.47l0.08,0.01L301.11,800.18L301.11,800.18z M322.25,789.95c-2.98,1.04-4.97,3.08-5.21,6.23
		c-0.27,3.56,2.53,7.55,9.23,8.06c6.13,0.46,10.4-2.47,10.76-7.24c0.26-3.36-1.85-5.71-4.38-6.88l0.01-0.12
		c2.74-1.09,4.13-3.23,4.3-5.49c0.24-3.19-2.04-6.95-8.21-7.41c-5.28-0.4-9.53,2.25-9.86,6.7c-0.18,2.3,0.92,4.54,3.38,6.07
		C322.25,789.87,322.25,789.95,322.25,789.95z M326.83,800.01c-2.32-0.17-3.64-2.07-3.46-3.96c0.14-1.9,1.43-3.27,3.51-3.68
		c2.35,0.83,3.99,2.34,3.81,4.64C330.55,798.87,328.98,800.18,326.83,800.01z M328.14,781.24c2.27,0.17,3.08,1.86,2.96,3.52
		c-0.12,1.62-1.48,2.82-2.94,3.11c-2.06-0.81-3.56-2.06-3.42-3.84C324.86,782.42,326.03,781.08,328.14,781.24z M360.59,776.53
		c-0.57,0-1.35,0.02-2.48,0.23c-4.09,0.52-7.44,2.03-9.86,4.61c-2.68,2.89-4.19,7.15-3.81,12.08c0.48,6.27,4.33,11.22,11.39,10.69
		c5.69-0.43,9.38-5.02,8.98-10.24c-0.42-5.46-4.39-8.29-8.82-7.95c-2.44,0.18-4.25,1.09-5.44,2.48l-0.12,0.01
		c0.46-3.08,2.68-6.06,8.13-6.92c0.97-0.16,1.7-0.25,2.39-0.26C360.95,781.26,360.59,776.53,360.59,776.53z M355.41,799.61
		c-2.84,0.21-4.37-2.19-4.71-4.97c-0.05-0.73-0.01-1.22,0.16-1.6c0.47-1.34,1.77-2.45,3.44-2.58c2.64-0.2,4.1,1.8,4.29,4.23
		C358.79,797.36,357.56,799.45,355.41,799.61z M374.03,788.21c-2.63,1.74-4.04,4.22-3.48,7.33c0.63,3.51,4.34,6.68,10.96,5.51
		c6.05-1.08,9.45-4.97,8.6-9.69c-0.59-3.31-3.23-5.07-5.97-5.57l-0.02-0.12c2.38-1.74,3.19-4.15,2.78-6.39
		c-0.57-3.15-3.72-6.22-9.82-5.13c-5.21,0.93-8.66,4.55-7.87,8.94c0.41,2.27,2.03,4.17,4.79,5.04
		C374.01,788.13,374.03,788.21,374.03,788.21z M380.99,796.81c-2.28,0.4-4.04-1.1-4.34-2.98c-0.34-1.88,0.57-3.52,2.47-4.43
		c2.48,0.22,4.45,1.27,4.86,3.55C384.31,794.78,383.11,796.43,380.99,796.81L380.99,796.81z M377.55,778.31
		c2.24-0.4,3.45,1.03,3.75,2.67c0.28,1.6-0.73,3.1-2.06,3.74c-2.2-0.27-3.96-1.11-4.28-2.86
		C374.67,780.26,375.46,778.68,377.55,778.31z"/>
	<path style="fill:#092746;" d="M728.8,504.32v-77.04h28.27v-7.24h-64.48v7.24h28.27v77.04H728.8L728.8,504.32z M818.28,504.32
		V469.8h22.78l19.39,34.52h9.35l-20.44-35.8c5.65-1.48,10.07-4.33,13.26-8.56c3.19-4.22,4.79-9.32,4.79-15.27
		c0-7.52-2.43-13.5-7.3-17.96s-11.41-6.69-19.63-6.69h-30.2v84.28H818.28z M839.84,462.67h-21.55v-35.51h21.2
		c6.15,0,10.98,1.58,14.49,4.73c3.5,3.15,5.26,7.5,5.26,13.03c0,5.61-1.7,9.97-5.11,13.08
		C850.71,461.11,845.95,462.67,839.84,462.67L839.84,462.67z M925.99,504.32l9.35-25.82h35.4l9.35,25.82h8.41l-31.48-84.28h-7.94
		l-31.54,84.28H925.99z M968.34,471.61h-30.61l14.89-41.12h0.76L968.34,471.61z M1071.84,504.32c9.11,0,16.18-2.04,21.2-6.13
		c5.02-4.09,7.53-9.81,7.53-17.17c0-5.76-1.8-10.51-5.4-14.25s-8.38-5.94-14.34-6.6v-0.76c4.52-0.78,8.22-2.89,11.1-6.34
		c2.88-3.45,4.32-7.52,4.32-12.24c0-6.43-2.24-11.5-6.72-15.22s-10.59-5.58-18.34-5.58h-30.31v84.28h30.96V504.32z M1067.75,457.18
		h-18.87V427.1h20.79c5.76,0,10.29,1.32,13.58,3.97c3.29,2.65,4.94,6.33,4.94,11.04c0,4.87-1.77,8.6-5.32,11.19
		C1079.34,455.89,1074.29,457.18,1067.75,457.18z M1070.73,497.25h-21.84v-33.12h20.85c7.32,0,12.93,1.41,16.82,4.23
		c3.89,2.82,5.84,6.9,5.84,12.24c0,5.41-1.85,9.54-5.55,12.38C1083.15,495.83,1077.78,497.25,1070.73,497.25z M1213.89,504.32v-7.24
		h-50.93v-0.7l50.23-70.5v-5.84h-59.05v7.24h48.71v0.7l-50.41,70.56v5.78H1213.89L1213.89,504.32z M1301.68,506.07
		c11.8,0,21.1-3.94,27.89-11.83c6.79-7.89,10.19-18.58,10.19-32.1c0-13.51-3.4-24.2-10.19-32.07c-6.8-7.87-16.09-11.8-27.89-11.8
		c-11.76,0-21.07,3.94-27.92,11.83c-6.85,7.89-10.28,18.56-10.28,32.04c0,13.51,3.41,24.21,10.22,32.1
		C1280.52,502.13,1289.84,506.07,1301.68,506.07z M1301.68,498.65c-9.27,0-16.59-3.3-21.96-9.9s-8.06-15.47-8.06-26.61
		c0-11.18,2.71-20.04,8.12-26.61c5.41-6.56,12.71-9.84,21.9-9.84c9.23,0,16.52,3.28,21.87,9.84s8.03,15.43,8.03,26.61
		c0,11.14-2.68,20.01-8.03,26.61C1318.2,495.35,1310.91,498.65,1301.68,498.65z M1403.2,504.32v-70.03h0.76l49.3,70.03h7.71v-84.28
		h-7.89v69.97h-0.76l-49.12-69.97h-7.89v84.28H1403.2z M733.88,646.94c8.99,0,16.07-2.14,21.23-6.42
		c5.16-4.28,7.74-10.12,7.74-17.52c0-5.49-1.77-10.09-5.32-13.81c-3.54-3.72-8.16-5.85-13.84-6.4v-1.05
		c4.24-0.66,7.81-2.73,10.69-6.19c2.88-3.47,4.32-7.42,4.32-11.86c0-6.5-2.28-11.63-6.83-15.39c-4.56-3.76-10.83-5.64-18.81-5.64
		h-35.22v84.28L733.88,646.94L733.88,646.94z M727.46,598.11h-14.54v-23.48h16.47c4.56,0,8.1,1.03,10.63,3.1
		c2.53,2.06,3.8,4.95,3.8,8.64c0,3.82-1.39,6.73-4.18,8.73C736.85,597.11,732.79,598.11,727.46,598.11L727.46,598.11z
		 M730.43,634.97h-17.52v-25.99h16.94c5.76,0,10.13,1.09,13.11,3.27s4.47,5.37,4.47,9.58c0,4.28-1.44,7.54-4.32,9.78
		S736,634.97,730.43,634.97L730.43,634.97z M801.05,554.83c2.38,0,4.36-0.78,5.96-2.34c1.6-1.6,2.39-3.56,2.39-5.9
		s-0.8-4.29-2.39-5.87c-1.6-1.58-3.58-2.37-5.96-2.37s-4.36,0.79-5.96,2.37c-1.6,1.58-2.39,3.53-2.39,5.87s0.8,4.29,2.39,5.87
		C796.69,554.04,798.68,554.83,801.05,554.83z M827.04,554.83c2.38,0,4.36-0.78,5.96-2.34c1.6-1.6,2.39-3.56,2.39-5.9
		s-0.8-4.29-2.39-5.87c-1.6-1.58-3.58-2.37-5.96-2.37s-4.36,0.79-5.96,2.37c-1.6,1.58-2.39,3.53-2.39,5.87s0.8,4.29,2.39,5.87
		C822.68,554.04,824.67,554.83,827.04,554.83z M814.08,649.05c10.55,0,18.96-2.86,25.23-8.59c6.27-5.72,9.4-13.24,9.4-22.55v-55.25
		h-15.07v53.85c0,5.8-1.72,10.43-5.17,13.87c-3.45,3.45-8.25,5.17-14.4,5.17s-10.96-1.72-14.43-5.17s-5.2-8.07-5.2-13.87v-53.85
		h-15.01v55.25c0,9.31,3.13,16.82,9.4,22.55C795.11,646.18,803.52,649.05,814.08,649.05z M908.11,646.94V614l29.55-51.34h-16.53
		L901.1,598.7h-0.99l-20.09-36.04h-16.53L893.04,614v32.94H908.11L908.11,646.94z M974.06,554.83c2.38,0,4.36-0.78,5.96-2.34
		c1.6-1.6,2.39-3.56,2.39-5.9s-0.8-4.29-2.39-5.87s-3.58-2.37-5.96-2.37s-4.36,0.79-5.96,2.37c-1.6,1.58-2.39,3.53-2.39,5.87
		s0.8,4.29,2.39,5.87C969.7,554.04,971.68,554.83,974.06,554.83L974.06,554.83z M1000.05,554.83c2.38,0,4.36-0.78,5.96-2.34
		c1.6-1.6,2.39-3.56,2.39-5.9s-0.8-4.29-2.39-5.87c-1.6-1.58-3.58-2.37-5.96-2.37s-4.36,0.79-5.96,2.37
		c-1.6,1.58-2.39,3.53-2.39,5.87s0.8,4.29,2.39,5.87C995.69,554.04,997.67,554.83,1000.05,554.83L1000.05,554.83z M987.08,649.05
		c10.55,0,18.96-2.86,25.23-8.59c6.27-5.72,9.4-13.24,9.4-22.55v-55.25h-15.07v53.85c0,5.8-1.72,10.43-5.17,13.87
		c-3.45,3.45-8.25,5.17-14.4,5.17s-10.96-1.72-14.43-5.17s-5.2-8.07-5.2-13.87v-53.85h-15.01v55.25c0,9.31,3.13,16.82,9.4,22.55
		C968.12,646.18,976.53,649.05,987.08,649.05z M1057.82,646.94v-26.87l8.99-10.34l26.63,37.21h18.4l-34.34-47.54l31.83-36.74h-17.29
		l-33.23,38.78h-0.99v-38.78h-15.07v84.28L1057.82,646.94L1057.82,646.94z M1153.72,675.8c4.79,0,8.51-1.04,11.16-3.12
		s3.97-4.92,3.97-8.5c0-3.08-1.02-5.48-3.07-7.21c-2.04-1.73-4.97-2.68-8.79-2.83l2.1-5.26c8.88-0.74,15.84-3.45,20.88-8.12
		s7.56-10.79,7.56-18.34c0-6.42-1.92-11.53-5.75-15.3c-3.84-3.78-10.02-6.62-18.54-8.53l-9.7-2.22c-5.22-1.21-8.98-2.7-11.27-4.47
		c-2.3-1.77-3.45-4.08-3.45-6.92c0-3.58,1.47-6.45,4.41-8.62s6.84-3.24,11.71-3.24c4.63,0,8.47,1.09,11.51,3.27s4.81,5.12,5.32,8.82
		h14.43c-0.35-7.24-3.43-13.16-9.23-17.76c-5.8-4.59-13.12-6.89-21.96-6.89c-9.42,0-17.01,2.33-22.75,6.98s-8.62,10.82-8.62,18.49
		c0,6.27,1.84,11.34,5.52,15.22c3.68,3.87,9.34,6.67,16.97,8.38l10.92,2.51c5.41,1.25,9.34,2.82,11.77,4.73s3.65,4.38,3.65,7.42
		c0,3.54-1.61,6.45-4.82,8.73c-3.21,2.28-7.31,3.42-12.3,3.42c-5.33,0-9.73-1.12-13.2-3.36s-5.43-5.25-5.9-9.02h-14.72
		c0.35,7.01,3.06,12.71,8.12,17.11c5.06,4.4,11.78,6.97,20.15,7.71l-2.51,6.13v6.07h3.45c2.84,0,4.89,0.27,6.13,0.82
		s1.87,1.44,1.87,2.69c0,2.49-2.22,3.74-6.66,3.74c-2.88,0-5.18-0.27-6.89-0.82v7.24C1147.42,675.45,1150.26,675.8,1153.72,675.8z
		 M1259.03,646.94v-13.03h-39.48v-23.6h37.32v-12.27h-37.32v-22.37h39.48v-13.03h-54.55v84.28h54.55V646.94z M1292.79,646.94v-36.39
		h41v36.39h15.01v-84.28h-15.01v34.87h-41v-34.87h-15.07v84.28L1292.79,646.94L1292.79,646.94z M1377.14,554.77
		c2.41,0,4.42-0.8,6.02-2.39c1.6-1.64,2.39-3.64,2.39-6.02c0-2.41-0.8-4.43-2.39-6.05c-1.6-1.62-3.6-2.42-6.02-2.42
		c-2.45,0-4.47,0.81-6.05,2.42s-2.37,3.63-2.37,6.05c0,2.38,0.8,4.37,2.39,5.99C1372.72,553.97,1374.72,554.77,1377.14,554.77z
		 M1384.67,646.94v-84.28h-15.07v84.28L1384.67,646.94L1384.67,646.94z M1420.53,646.94v-31.6h16.7l16.53,31.6H1471L1452.6,613
		c4.98-1.79,8.88-4.84,11.68-9.14s4.21-9.26,4.21-14.87c0-8.1-2.59-14.51-7.77-19.25c-5.18-4.73-12.19-7.1-21.03-7.1h-34.23v84.28
		h15.07V646.94z M1437.94,603.37h-17.41v-28.21h17.06c4.79,0,8.56,1.26,11.3,3.77c2.75,2.51,4.12,5.97,4.12,10.37
		c0,4.48-1.31,7.94-3.94,10.4S1442.73,603.37,1437.94,603.37z M729.21,789.57c9.11,0,16.18-2.04,21.2-6.13s7.53-9.81,7.53-17.17
		c0-5.76-1.8-10.51-5.4-14.25c-3.6-3.74-8.38-5.94-14.34-6.6v-0.76c4.52-0.78,8.22-2.89,11.1-6.34s4.32-7.53,4.32-12.24
		c0-6.43-2.24-11.5-6.72-15.22s-10.59-5.58-18.34-5.58h-30.31v84.28h30.96V789.57z M725.12,742.43h-18.87v-30.08h20.79
		c5.76,0,10.29,1.32,13.58,3.97s4.94,6.33,4.94,11.04c0,4.87-1.77,8.6-5.32,11.19C736.7,741.14,731.66,742.43,725.12,742.43z
		 M728.1,782.5h-21.84v-33.12h20.85c7.32,0,12.93,1.41,16.82,4.23s5.84,6.9,5.84,12.24c0,5.41-1.85,9.54-5.55,12.38
		C740.52,781.08,735.15,782.5,728.1,782.5z M840.49,789.57v-7.24h-42.93v-32.36h40.77v-7.13h-40.77v-30.31h42.93v-7.24h-50.93v84.28
		L840.49,789.57L840.49,789.57z M923.91,789.57v-7.24h-42.17v-77.04h-8v84.28L923.91,789.57L923.91,789.57z M1005.46,789.57v-7.24
		h-42.93v-32.36h40.77v-7.13h-40.77v-30.31h42.93v-7.24h-50.93v84.28L1005.46,789.57L1005.46,789.57z M1066.45,789.57
		c12.77,0,22.63-3.72,29.58-11.16s10.43-17.78,10.43-31.02c0-13.2-3.49-23.52-10.46-30.96s-16.82-11.16-29.55-11.16h-27.74v84.28
		h27.74V789.57z M1065.98,782.33h-19.27v-69.8h19.27c10.24,0,18.18,3.09,23.83,9.26c5.65,6.17,8.47,14.73,8.47,25.67
		s-2.82,19.49-8.47,25.64C1084.16,779.25,1076.22,782.33,1065.98,782.33z M1142.91,697.46c1.71,0,3.15-0.58,4.32-1.75
		c1.21-1.21,1.81-2.65,1.81-4.32s-0.59-3.12-1.78-4.32s-2.64-1.81-4.35-1.81s-3.16,0.6-4.35,1.81s-1.78,2.65-1.78,4.32
		s0.59,3.11,1.78,4.29C1139.75,696.86,1141.2,697.46,1142.91,697.46L1142.91,697.46z M1146.88,789.57v-84.28h-8v84.28
		L1146.88,789.57L1146.88,789.57z M1214.53,789.57v-36.45l30.2-47.84h-9.11L1210.91,745h-0.7l-24.71-39.72h-9.17l30.26,47.84v36.45
		L1214.53,789.57L1214.53,789.57z M1325.11,789.57v-7.24h-42.93v-32.36h40.77v-7.13h-40.77v-30.31h42.93v-7.24h-50.93v84.28
		L1325.11,789.57L1325.11,789.57z M1385.23,791.32c9.19,0,16.58-2.26,22.17-6.78c5.59-4.52,8.38-10.46,8.38-17.81
		c0-6-1.92-10.82-5.75-14.46s-10.09-6.53-18.78-8.67l-8.35-2.1c-6.43-1.6-11.04-3.55-13.84-5.87c-2.8-2.32-4.21-5.31-4.21-8.97
		c0-4.59,1.9-8.38,5.69-11.36c3.8-2.98,8.71-4.47,14.75-4.47c5.8,0,10.6,1.38,14.4,4.15c3.8,2.76,6.03,6.41,6.69,10.92h8.06
		c-0.43-6.46-3.35-11.81-8.76-16.03s-12.13-6.34-20.15-6.34c-8.53,0-15.47,2.18-20.82,6.54s-8.03,9.97-8.03,16.82
		c0,5.72,1.77,10.33,5.32,13.81c3.54,3.49,9.27,6.2,17.17,8.15l9.64,2.45c6.5,1.6,11.26,3.72,14.28,6.37s4.53,5.96,4.53,9.93
		c0,4.71-2.04,8.63-6.13,11.74s-9.27,4.67-15.54,4.67c-6.43,0-11.83-1.52-16.21-4.56s-6.84-6.97-7.39-11.8h-8.06
		c0.51,7.05,3.61,12.75,9.32,17.11C1369.29,789.14,1376.5,791.32,1385.23,791.32L1385.23,791.32z M1451.65,697.46
		c1.71,0,3.15-0.58,4.32-1.75c1.21-1.21,1.81-2.65,1.81-4.32s-0.59-3.12-1.78-4.32c-1.19-1.21-2.64-1.81-4.35-1.81
		s-3.16,0.6-4.35,1.81s-1.78,2.65-1.78,4.32s0.59,3.11,1.78,4.29C1448.48,696.86,1449.93,697.46,1451.65,697.46z M1455.62,789.57
		v-84.28h-8v84.28L1455.62,789.57L1455.62,789.57z"/>
</g>
</svg>
