<?xml version="1.0" encoding="iso-8859-1"?>
<!-- Generator: Adobe Illustrator 29.7.1, SVG Export Plug-In . SVG Version: 9.03 Build 0)  -->
<svg version="1.1" id="Layer_1" xmlns="http://www.w3.org/2000/svg" xmlns:xlink="http://www.w3.org/1999/xlink" x="0px" y="0px"
	 viewBox="0 0 283.47 283.46" style="enable-background:new 0 0 283.47 283.46;" xml:space="preserve">
<g id="Layer_2_00000044868283723658668940000002089717277944141742_">
	<g id="Layer_1-2">
		<path style="fill-rule:evenodd;clip-rule:evenodd;fill:#FFFFFF;" d="M141.73,37.78c-57.438,0-104,46.562-104,104
			s46.562,104,104,104s104-46.562,104-104c0.028-57.41-46.49-103.972-103.9-104C141.797,37.78,141.763,37.78,141.73,37.78z"/>
		<path style="fill-rule:evenodd;clip-rule:evenodd;fill:#0066B3;" d="M141.73,34.1c59.448,0,107.64,48.192,107.64,107.64
			s-48.192,107.64-107.64,107.64S34.09,201.188,34.09,141.74c0-0.003,0-0.007,0-0.01C34.096,82.286,82.286,34.1,141.73,34.1
			 M141.73,3.63c76.276-0.006,138.114,61.824,138.12,138.1s-61.824,138.114-138.1,138.12S3.636,218.026,3.63,141.75
			c0-0.007,0-0.013,0-0.02C3.63,65.459,65.459,3.63,141.73,3.63z"/>
		<path style="fill-rule:evenodd;clip-rule:evenodd;fill:#B7274C;" d="M143.49,92.65c3.08,2.51,6,5.16,9.14,7.51
			C164.33,109,184,116,206.14,112c-1.642,8.752-5.359,16.982-10.84,24c-23,1.77-39.48-5.9-51.81-15.92V92.65z M191.58,139.44
			c-5.37,8.31-17.33,8.85-26.76,12.2c-9.88,3.5-16,8.89-21.33,16.44v-42.39c0.16-0.06,0.29,0,0.33,0.21
			C155.9,134,171.19,140.74,191.58,139.44z M139.45,92.65c-3.08,2.51-6,5.16-9.14,7.51C118.6,109,98.92,116,76.8,112
			c1.642,8.752,5.359,16.982,10.84,24c23,1.77,39.47-5.9,51.81-15.92V92.65z M91.36,139.44c5.37,8.31,17.33,8.85,26.75,12.2
			c9.88,3.5,16,8.89,21.34,16.44v-42.39c-0.17-0.06-0.3,0-0.34,0.21C127,134,111.75,140.74,91.36,139.44z M134.66,44.75
			c-8.18,22-27.34,37.77-58.2,33.74c-0.37,8.12-0.91,21.16,0.34,29.8c28.68,4.46,49.93-6.41,62.65-21.27V44.77l0,0L134.66,44.75z
			 M148.27,44.75c8.19,22,27.34,37.77,58.21,33.74c0.37,8.12,0.9,21.16-0.34,29.8c-28.69,4.46-49.94-6.41-62.65-21.27V44.77l0,0
			L148.27,44.75z"/>
		<path style="fill-rule:evenodd;clip-rule:evenodd;fill:#B7274C;" d="M141.73,37.78c57.438-0.028,104.022,46.512,104.05,103.95
			s-46.512,104.022-103.95,104.05c-57.438,0.028-104.022-46.512-104.05-103.95c0-0.017,0-0.033,0-0.05
			c0-57.41,46.54-103.95,103.95-103.95c0.017,0,0.033,0,0.05,0 M141.78,34.14c59.448,0.028,107.618,48.242,107.59,107.69
			c-0.028,59.448-48.242,107.618-107.69,107.59c-59.448-0.028-107.618-48.242-107.59-107.69c0-59.448,48.192-107.64,107.64-107.64
			L141.78,34.14z"/>
		<path style="fill-rule:evenodd;clip-rule:evenodd;fill:#00AEEF;" d="M137.39,244.09c-3.646-0.034-7.1-1.638-9.48-4.4
			c-9.46-11.18,4-30.1,17.61-21.68c-3.12-7-9.12-11.08-18-11.17c-18.68-0.21-24.68,16.73-32.07,27.95
			c-8.255-4.112-15.925-9.304-22.81-15.44l0,0c2.48-3.87,12.2-3.49,15.57-1.69c-3.31-8.3-14.59-13-26.4-9.49
			c-3.227-3.871-6.169-7.972-8.8-12.27c8.58-10.25,17.19-27.21,36.22-26.33c11,0.5,20.18,7.51,23,15.57c-0.68,0.49-1.61,1-2.71,1.7
			c-9.78-13.59-25.48-5.24-23,7.45c1,5.17,7.06,10.37,14.22,8.8c11.1-2.43,16.51-20.17,27.44-28.1c14-10.16,36.84-4.93,42,10.49
			c-0.85,0.5-1.64,0.88-2.37,1.36c-3.44-5.09-9.05-8.29-15.24-6.44c-12.29,3.69-9.41,25.88,6.09,22.69c2.33-0.48,6.06-3,7.79-4.74
			c2.624-2.763,5.022-5.733,7.17-8.88v-0.05c3.66-5.2,7.43-10.67,12.29-14.19c14-10.16,36.84-4.93,42,10.49
			c-0.85,0.5-1.64,0.88-2.37,1.36c-3.44-5.08-9.05-8.29-15.24-6.43c-12.29,3.68-9.4,25.87,6.1,22.68c2.33-0.48,6.05-3,7.79-4.74
			c4.59-4.53,8.57-11.46,13.65-17.4c-10.238,24.837-29.658,44.769-54.22,55.65c-5.14-11.2,7.15-26.3,19.57-18.61
			c-3.12-7-9.12-11.08-18-11.17c-28.34-0.31-26.47,37.7-47.93,37"/>
		<path style="fill-rule:evenodd;clip-rule:evenodd;fill:#B7274C;" d="M141.73,3.63c76.276-0.006,138.114,61.824,138.12,138.1
			s-61.824,138.114-138.1,138.12S3.636,218.026,3.63,141.75c0-0.007,0-0.013,0-0.02C3.63,65.459,65.459,3.63,141.73,3.63 M141.73,0
			c78.275,0,141.73,63.455,141.73,141.73s-63.455,141.73-141.73,141.73S0,220.005,0,141.73c0,0,0,0,0,0
			C0.006,63.457,63.457,0.006,141.73,0z"/>
		<path style="fill:#FFFFFF;" d="M270.39,169.23c-0.212,0.927,0.364,1.852,1.29,2.07c0.915,0.234,1.846-0.317,2.081-1.232
			c0.003-0.013,0.006-0.025,0.009-0.038c0.279-0.92-0.241-1.891-1.161-2.17c-0.92-0.279-1.891,0.241-2.17,1.161
			C270.419,169.09,270.402,169.16,270.39,169.23 M269.86,167.13l-16.65-3.84l-0.86,3.75l16.65,3.84L269.86,167.13z M256,148.65
			c-0.9,1.411-1.467,3.008-1.66,4.67c-0.59,4.65,1.54,7.12,4.39,7.48c2.38,0.3,4.12-0.88,5.61-3.73c1.11-2.11,1.7-3,2.78-2.84
			c0.86,0.11,1.54,1,1.33,2.67c-0.154,1.221-0.585,2.391-1.26,3.42l3,1.24c0.78-1.28,1.261-2.719,1.41-4.21
			c0.5-4-1.37-6.7-4.27-7.06c-2.46-0.31-4.26,1.35-5.62,4c-1,1.94-1.67,2.67-2.73,2.54s-1.71-1.17-1.49-2.93
			c0.212-1.474,0.76-2.88,1.6-4.11L256,148.65z M265.63,145.04l-0.16-6.28l3.55-0.09l0.17,6.67l3.16-0.09l-0.26-10.51l-17.08,0.43
			l0.27,10.87l3.17-0.08l-0.18-7l4.06-0.1l0.16,6.28L265.63,145.04z M254.27,127.65l7.07-0.89l10.66,4.32l-0.54-4.3l-4.29-1.19
			c-1.28-0.35-2.31-0.63-3.41-0.87l0,0c1.06-0.54,1.92-1,3.08-1.72l3.86-2.23l-0.56-4.4l-9.37,6.63l-6.94,0.88L254.27,127.65z
			 M269.53,110.65c0.212,0.926,1.135,1.504,2.061,1.292c0.003-0.001,0.006-0.001,0.009-0.002c0.915-0.185,1.507-1.076,1.322-1.991
			c-0.001-0.003-0.001-0.006-0.002-0.009c-0.143-0.95-1.03-1.604-1.98-1.461c-0.95,0.143-1.604,1.03-1.461,1.98
			c0.012,0.078,0.029,0.155,0.051,0.23V110.65z M268.13,109l-16.64,3.84l0.86,3.75l16.65-3.81L268.13,109z M260.05,94.1
			c0.322,0.492,0.587,1.019,0.79,1.57c1.22,3.11,0.24,5.73-3.06,7c-3.8,1.49-6.43,0.05-7.7-3.23c-0.184-0.411-0.325-0.84-0.42-1.28
			L260.05,94.1z M245.6,95.65c0.377,1.432,0.844,2.838,1.4,4.21c1.23,3.11,2.9,5.42,5,6.55c2.351,1.134,5.085,1.164,7.46,0.08
			c2.366-0.758,4.211-2.625,4.94-5c0.53-2,0.32-4.16-0.88-7.21c-0.636-1.617-1.391-3.185-2.26-4.69L245.6,95.65z M253.05,87.47
			l-2.86-5.6l3.16-1.61l3,5.93l2.82-1.45l-4.8-9.36l-15.13,7.82l5,9.68l2.76-1.45l-3.2-6.25l3.61-1.84l2.87,5.59L253.05,87.47z
			 M231.45,72.14l6.17,8.68L240.3,79l-3.93-5.54l11.28-8l-2.24-3.14L231.45,72.14z M236.62,61.83l-4.34-4.54l2.57-2.45l4.6,4.82
			l2.3-2.18l-7.26-7.62l-12.33,11.82l7.5,7.87l2.3-2.19l-4.85-5.08l2.94-2.8l4.34,4.52L236.62,61.83z M218.18,47.83l1,0.87
			c1.46,1.26,2.18,2.79,1.07,4.07s-2.8,0.87-4.12-0.28c-0.387-0.311-0.754-0.645-1.1-1L218.18,47.83z M222.59,42.74
			c0.462,0.298,0.9,0.633,1.31,1c1.33,1.14,1.62,2.31,0.78,3.29s-2.18,0.89-3.74-0.46l-0.95-0.82L222.59,42.74z M210.43,51
			c0.931,1.045,1.933,2.024,3,2.93c2.57,2.22,4.51,3.16,6.09,3.23c1.425,0.08,2.806-0.512,3.73-1.6
			c1.337-1.52,1.412-3.774,0.18-5.38l0,0c1.536,0.711,3.356,0.347,4.5-0.9c0.95-1.057,1.21-2.565,0.67-3.88
			c-0.47-1.38-1.42-2.5-3.2-4c-1.254-1.101-2.592-2.104-4-3L210.43,51z M203.21,29.77c0.549,0.201,1.075,0.459,1.57,0.77
			c1.54,0.88,2.06,2.11,1.3,3.44s-2.21,1.56-3.88,0.6l-1.32-0.76L203.21,29.77z M192.81,40.17l3.32,1.91l3.36-5.85l1,0.57
			c1.37,0.82,1.73,1.67,1.07,3.79c-0.457,1.299-0.792,2.638-1,4l3.43,2c0-0.74,0.72-2.93,1.23-4.89c0.41-1.58,0.4-2.88-0.39-3.89
			v-0.07c1.85,0.341,3.718-0.499,4.69-2.11c0.754-1.159,0.903-2.612,0.4-3.9c-0.57-1.44-1.92-2.66-4.12-3.92
			c-1.485-0.874-3.036-1.63-4.64-2.26L192.81,40.17z M195,21.42c0.865,0.393,1.884,0.01,2.277-0.854
			c0.001-0.002,0.002-0.004,0.003-0.006c0.414-0.837,0.071-1.85-0.765-2.264c-0.018-0.009-0.036-0.018-0.055-0.026
			c-0.842-0.463-1.9-0.155-2.363,0.687c-0.463,0.842-0.155,1.9,0.687,2.363C194.854,21.358,194.926,21.392,195,21.42z M192.84,21.53
			l-7,15.57l3.51,1.58l7-15.56L192.84,21.53z M174.34,14.91l-5.52,16.19l3.65,1.23l2.29-6.77l6,2l-2.29,6.77l3.65,1.23l5.48-16.18
			l-3.6-1.19l-2.1,6.22l-6-2l2.1-6.22L174.34,14.91z M166.77,20.4l-6.19-1.1l0.62-3.5l6.52,1.2l0.55-3.11L157.92,12l-3,16.81
			l10.71,1.92l0.56-3.12l-6.92-1.24l0.72-4l6.18,1.1L166.77,20.4z M140.1,27.4c1.439,0.718,3.013,1.123,4.62,1.19h0.07l-1,1.8
			c1.39,0.14,2,0.48,2,1s-0.45,0.65-0.91,0.64c-0.49-0.029-0.964-0.181-1.38-0.44l-0.54,1.4c0.604,0.364,1.295,0.558,2,0.56
			c1.57,0,3.08-0.53,3.12-2.18c-0.058-0.974-0.81-1.764-1.78-1.87l0.58-1c3.34-0.52,4.94-2.58,5-5s-1.29-4-4.28-5.21
			c-2.21-0.89-3.14-1.39-3.11-2.48c0-0.86,0.85-1.63,2.53-1.59c1.227,0.026,2.431,0.334,3.52,0.9l0.94-3.07
			c-1.351-0.652-2.83-0.993-4.33-1c-4-0.1-6.52,2-6.59,5c-0.07,2.48,1.77,4.1,4.58,5.18c2,0.77,2.83,1.39,2.8,2.46
			s-1,1.82-2.75,1.78c-1.49-0.063-2.947-0.463-4.26-1.17L140.1,27.4z M124.71,29.26l3.81-0.29l-0.42-5.56l1.3-1.9l4.76,7l4.47-0.34
			l-6.65-9.33l5.02-7.66l-4.75,0.36l-3.41,5.95c-0.36,0.64-0.72,1.28-1,2l0,0l-0.57-7.53l-3.82,0.29L124.71,29.26z M112.71,13.44
			c0.918-0.198,1.502-1.102,1.304-2.02c-0.004-0.02-0.009-0.04-0.014-0.06c-0.157-0.914-1.026-1.528-1.94-1.371
			C112.04,9.992,112.02,9.996,112,10c-0.924,0.264-1.459,1.227-1.195,2.151c0.243,0.849,1.083,1.382,1.955,1.239L112.71,13.44z
			 M107.59,14.62c0.922-0.271,1.45-1.238,1.179-2.16c-0.245-0.835-1.069-1.36-1.929-1.23c-0.922,0.271-1.45,1.238-1.179,2.16
			C105.906,14.224,106.73,14.75,107.59,14.62z M103.44,16.62l2.15,9.29c1.22,5.28,4.2,7.06,8.4,6.09c4.35-1,6.38-4,5.19-9.18
			L117,13.44l-3.76,0.87l2.21,9.56c0.68,3-0.08,4.6-2.06,5.05s-3.35-0.76-4-3.65l-2.2-9.56L103.44,16.62z M99.86,36.26l-2.61-6.63
			l1.58-11.33l-4,1.59l-0.1,4.45c0,1.32,0,2.39,0,3.52l0,0c-0.79-0.89-1.48-1.6-2.42-2.56l-3.11-3.19L85,23.76l8.72,7.4l2.57,6.51
			L99.86,36.26z M76.57,27.46c0.844-0.46,1.154-1.517,0.694-2.361c-0.46-0.844-1.517-1.154-2.361-0.694
			c-0.844,0.46-1.154,1.517-0.694,2.361c0.01,0.018,0.02,0.036,0.031,0.054c0.445,0.814,1.466,1.113,2.28,0.669
			C76.537,27.479,76.553,27.47,76.57,27.46z M72,30.08c0.769-0.576,0.926-1.666,0.351-2.436c-0.477-0.637-1.326-0.87-2.061-0.564
			c-0.769,0.576-0.926,1.666-0.351,2.436C70.416,30.153,71.265,30.385,72,30.08z M68.6,33.17l4.75,8.26
			c2.71,4.71,6.08,5.54,9.82,3.4s4.92-5.73,2.3-10.3l-4.78-8.31l-3.34,1.92l4.89,8.51c1.52,2.63,1.26,4.42-0.5,5.43
			s-3.43,0.25-4.91-2.32L72,31.25L68.6,33.17z M62.91,49.92l1-0.86c1.45-1.27,3.07-1.76,4.18-0.48s0.46,2.89-0.86,4
			c-0.371,0.336-0.762,0.65-1.17,0.94L62.91,49.92z M58.49,44.82c0.361-0.415,0.756-0.8,1.18-1.15c1.33-1.15,2.52-1.28,3.37-0.3
			s0.57,2.29-1,3.63l-1,0.83L58.49,44.82z M64.91,58.08c1.167-0.773,2.28-1.625,3.33-2.55c2.57-2.22,3.77-4,4.06-5.57
			c0.292-1.391-0.078-2.839-1-3.92c-1.322-1.528-3.533-1.92-5.3-0.94l0,0c0.923-1.422,0.822-3.277-0.25-4.59
			c-0.912-1.087-2.363-1.56-3.74-1.22c-1.694,0.443-3.236,1.338-4.46,2.59c-1.268,1.089-2.451,2.272-3.54,3.54L64.91,58.08z
			 M51.79,72.57l-4-3.18c-2.19-1.72-4.12-3.17-6-4.48l0.06-0.08c2.164,0.593,4.361,1.061,6.58,1.4l7.44,1.2l2.5-3.19L44.9,53.68
			l-2.19,2.79l3.9,3.07c1.865,1.49,3.804,2.885,5.81,4.18l0,0c-2.079-0.601-4.193-1.075-6.33-1.42L39,61.26l-2.84,3.54l13.43,10.56
			L51.79,72.57z M31.14,77.69c1.33-2.3,4.34-2.24,7-0.7c2.88,1.65,4.28,4.19,3,6.45s-4.11,2.43-7,0.75S29.83,80,31.14,77.69z
			 M28.52,76.1c-2.5,4.35-0.82,9.11,3.62,11.67c4.24,2.43,9,1.75,11.56-2.62s1.26-9-3.62-11.76C36,71,31.14,71.55,28.52,76.1z
			 M33.92,105.78l4.87-12.33l-3-1.17l-3,7.52H32.7l-7.78-11.68l-2.07-0.82L18.3,98.83l3,1.17l2.7-6.88h0.09L32,105L33.92,105.78z
			 M23.77,114.65l0.3-1.28c0.43-1.88,1.45-3.23,3.1-2.85s2.08,2.07,1.68,3.77c-0.101,0.49-0.228,0.974-0.38,1.45L23.77,114.65z
			 M17.2,113.14c0.047-0.55,0.141-1.096,0.28-1.63c0.39-1.71,1.28-2.52,2.54-2.22s1.81,1.51,1.35,3.51l-0.29,1.2L17.2,113.14z
			 M30.2,120.06c0.49-1.304,0.888-2.64,1.19-4c0.76-3.31,0.68-5.46,0-6.9c-0.6-1.295-1.768-2.237-3.16-2.55
			c-1.977-0.462-4.005,0.54-4.84,2.39h-0.05c-0.085-1.693-1.26-3.134-2.9-3.56c-1.377-0.342-2.829,0.131-3.74,1.22
			c-1,1.07-1.54,2.43-2.07,4.72c-0.387,1.644-0.648,3.316-0.78,5L30.2,120.06z M21.39,132.06l-3.53-1.29c-1-0.35-2.24-0.7-3.23-1
			l0,0c1-0.18,2.31-0.39,3.35-0.61l3.69-0.79L21.39,132.06z M24.6,127.95l4.48-1l0.31-4.17l-17.43,4l-0.39,5.06l16.64,6.48l0.3-4
			l-4.28-1.55L24.6,127.95z M14.24,149.39c-0.118-0.576-0.175-1.162-0.17-1.75c0-1.77,0.74-2.85,2.27-2.89s2.48,1.08,2.53,3v1.52
			L14.24,149.39z M28.53,152.86l-0.1-3.83l-6.74,0.17v-1.14c0-1.6,0.53-2.35,2.68-2.88c1.369-0.3,2.708-0.725,4-1.27L28.2,140
			c-0.65,0.35-2.88,0.91-4.82,1.49c-1.57,0.47-2.67,1.16-3.12,2.36h-0.07c-0.676-1.758-2.367-2.915-4.25-2.91
			c-1.383-0.037-2.7,0.591-3.54,1.69c-0.93,1.24-1.27,3-1.21,5.56c0.037,1.72,0.201,3.434,0.49,5.13L28.53,152.86z M30.41,163.8
			l-0.68-3.8l-13.62,2.43l-0.82-4.59l-3.2,0.57l2.31,12.92l3.2-0.57l-0.81-4.54L30.41,163.8z"/>
		<path style="fill:#FFFFFF;" d="M163.66,256.41c1.014-0.247,2.037,0.375,2.284,1.389c0.023,0.092,0.038,0.186,0.046,0.281
			c0.135,0.977-0.385,1.927-1.28,2.34c-1.37-0.17-2.47-0.69-2.66-1.79c-0.225-0.98,0.387-1.956,1.366-2.181
			C163.497,256.43,163.578,256.417,163.66,256.41 M165.8,268c-1.221,0.258-2.42-0.523-2.679-1.744
			c-0.008-0.039-0.015-0.077-0.021-0.116c-0.217-1.176,0.428-2.341,1.54-2.78c1.54,0.14,2.77,0.8,3,2.22
			c0.194,1.132-0.567,2.207-1.7,2.401C165.894,267.989,165.847,267.995,165.8,268z M161.47,262.62
			c-1.627,0.906-2.499,2.747-2.17,4.58c0.39,2.2,2.7,4.18,6.82,3.44c3.77-0.67,5.88-3.11,5.36-6.05
			c-0.357-1.842-1.858-3.246-3.72-3.48V261c1.316-0.875,1.994-2.442,1.73-4c-0.35-2-2.31-3.89-6.11-3.21
			c-3.24,0.58-5.39,2.84-4.89,5.59c0.306,1.542,1.474,2.77,3,3.15L161.47,262.62z M149.88,269.75c-1.77,0.13-2.73-1.37-2.93-3.11
			c-0.052-0.336-0.018-0.681,0.1-1c0.335-0.91,1.172-1.54,2.14-1.61c1.64-0.12,2.55,1.13,2.67,2.64c0.14,1.65-0.64,2.96-1.98,3.06
			V269.75z M153.1,255.32c-0.517-0.004-1.033,0.043-1.54,0.14c-2.323,0.202-4.499,1.223-6.14,2.88
			c-1.797,2.086-2.655,4.821-2.37,7.56c0.3,3.91,2.7,7,7.09,6.68c3.249-0.153,5.759-2.911,5.606-6.161
			c-0.004-0.08-0.009-0.16-0.016-0.239c0.013-2.761-2.214-5.011-4.976-5.024c-0.172-0.001-0.343,0.007-0.514,0.024
			c-1.291,0.032-2.513,0.593-3.38,1.55h-0.08c0.28-1.92,1.67-3.78,5.06-4.32c0.491-0.095,0.99-0.148,1.49-0.16L153.1,255.32z
			 M132.9,258.27c1.049,0.015,1.887,0.878,1.872,1.927c-0.001,0.088-0.009,0.176-0.022,0.263c-0.116,0.981-0.858,1.772-1.83,1.95
			c-1.28-0.5-2.21-1.29-2.13-2.4c0.02-1.005,0.851-1.803,1.856-1.783c0.085,0.002,0.17,0.009,0.254,0.023L132.9,258.27z M132.09,270
			c-1.242-0.049-2.209-1.095-2.16-2.336c0.002-0.048,0.005-0.096,0.01-0.144c0.086-1.188,0.998-2.151,2.18-2.3
			c1.46,0.52,2.48,1.46,2.37,2.9c-0.09,1.14-1.086,1.991-2.226,1.901C132.206,270.017,132.148,270.009,132.09,270z M129.24,263.71
			c-1.803,0.469-3.109,2.032-3.25,3.89c-0.17,2.23,1.58,4.72,5.75,5c3.81,0.29,6.47-1.54,6.69-4.52c0.117-1.87-0.98-3.604-2.72-4.3
			v-0.08c1.488-0.518,2.533-1.861,2.67-3.43c0.16-2-1.27-4.34-5.11-4.63c-3.29-0.25-5.93,1.4-6.14,4.18
			c-0.09,1.565,0.726,3.044,2.1,3.8L129.24,263.71z M116.08,270.1l3.67,0.66l2.89-16.22l-3.11-0.56l-4.68,1.23l0.12,2.95l3.36-0.92
			l0,0L116.08,270.1z"/>
	</g>
</g>
</svg>
