<?xml version="1.0" encoding="UTF-8"?>
<svg id="Layer_2" data-name="Layer 2" xmlns="http://www.w3.org/2000/svg" viewBox="0 0 214.7 254.69">
  <defs>
    <style>
      .cls-1 {
        fill: #018037;
      }

      .cls-1, .cls-2, .cls-3, .cls-4, .cls-5 {
        fill-rule: evenodd;
      }

      .cls-2, .cls-6 {
        fill: #fff;
      }

      .cls-4 {
        fill: #e54f13;
      }

      .cls-5 {
        fill: #c8850e;
      }
    </style>
  </defs>
  <g id="katman_1" data-name="katman 1">
    <g>
      <path class="cls-6" d="M29.3,92.91c-3.01-1.1-3.8-3.21-3.56-4.69.26-1.53,1.53-2.59,3.1-2.59.84,0,1.75.3,2.64.87l1.25-1.93,4.56,1.14c2.02-2.26,4.39-2.12,7.29.52.5-.15.9-.36,1.25-.55.43-.23.8-.42,1.21-.42.83,0,1.59.79,2.92,3l.03.08c.33,1.69-1.26,3.03-4.71,3.98-1.84,23.9,1.48,43.15,9.87,57.21,10.1,16.93,27.7,26.52,52.32,28.5h0c24.57-2,42.14-11.59,52.22-28.51,8.38-14.06,11.7-33.3,9.85-57.19-3.45-.95-5.04-2.29-4.71-3.98l.03-.08c1.33-2.22,2.1-3,2.92-3,.41,0,.78.2,1.21.42.35.19.75.4,1.25.55,2.91-2.65,5.27-2.78,7.29-.53l4.56-1.14,1.25,1.93c.9-.58,1.78-.87,2.64-.87,1.57,0,2.85,1.07,3.1,2.59.25,1.49-.54,3.59-3.56,4.69v63.73h13.15V.26H16.17v156.39h13.12v-63.73h0ZM162.43,51.9h7.44v-15.1h.07l7.54-28.55h.11v.07h.01l7.53,28.48h.08v15.1h7.54v7.72l-7.54,6.67v14.81h-15.34v-14.9l-7.44-6.58v-7.72h0ZM22.13,51.82h7.44v-15.1h.07l7.54-28.55h.11v.07h.01l7.53,28.48h.08v15.1h7.54v7.72l-7.54,6.67v14.81h-15.34v-14.9l-7.44-6.58v-7.72Z"/>
      <g>
        <g>
          <path class="cls-1" d="M141.64,223.76c-5.36-.06-11.02-1.09-16.97-2.99-5.94,1.9-11.61,2.93-16.96,2.99h0s0,0,0,0h0s0,0,0,0c-5.35-.06-11.02-1.09-16.95-2.99-5.94,1.9-11.6,2.93-16.95,2.99h0s0,0,0,0h0s0,0,0,0c-3.16-.03-6.44-.42-9.81-1.11,11.4,5.75,24.59,9.59,39.42,10.6,1.3.12,2.62.21,3.94.26h0c1.35-.04,2.68-.12,4.01-.25,14.63-1,27.66-4.75,38.95-10.37-2.97.55-5.85.82-8.65.85v.02h0Z"/>
          <path class="cls-1" d="M73.79,222.04c5.45-.05,11.1-1.14,16.95-3.23h0s.01,0,.01,0c0,0,0,0,0,0h0c5.85,2.1,11.5,3.18,16.95,3.23,5.45-.05,11.1-1.14,16.95-3.23h0s0,0,0,0h0s0,0,0,0c5.85,2.09,11.5,3.18,16.95,3.23v-.02c4.79-.04,9.84-.93,14.94-2.55,6.88-4.1,13.01-8.92,18.31-14.27-4.36.98-8.57,1.53-12.6,1.57h0s0,0,0,0h0c-5.69-.06-11.7-1.09-18.02-2.99-6.31,1.89-12.33,2.93-18.02,2.99h0s0,0,0,0h0c-5.69-.06-11.71-1.09-18.02-2.99-6.31,1.9-12.33,2.93-18.02,2.99h0s0,0,0,0h0c-5.69-.06-11.7-1.09-18.02-2.99-6.31,1.89-12.33,2.93-18.02,2.99h0s0,0,0,0h0c-4.71-.05-9.65-.78-14.79-2.1,5.21,5.34,11.23,10.17,18,14.29,5.68,1.98,11.17,3.02,16.47,3.07Z"/>
          <path class="cls-1" d="M174.14,189.75h0c-5.26-.06-10.84-1.09-16.68-2.99-5.84,1.9-11.42,2.93-16.68,2.99h-.01c-5.27-.06-10.84-1.09-16.68-2.99-5.85,1.9-11.42,2.93-16.68,2.99h-.01c-5.26-.06-10.84-1.09-16.68-2.99-5.84,1.9-11.42,2.93-16.68,2.99h-.01c-5.26-.06-10.84-1.09-16.68-2.99-5.84,1.89-11.41,2.93-16.68,2.99h-.01c-4.59-.05-9.4-.84-14.43-2.3,2.96,5.12,6.57,10.03,10.71,14.63,5.93,1.91,11.66,2.92,17.2,2.97,5.79-.05,11.8-1.14,18.01-3.23h0s0,0,0,0h.01s0,0,0,0c6.22,2.09,12.22,3.18,18.01,3.23,5.79-.05,11.8-1.14,18.02-3.23h0s.01,0,.01,0h.01s0,0,0,0c6.22,2.09,12.23,3.18,18.02,3.23,5.79-.05,11.8-1.14,18.01-3.23h0s0,0,0,0h.01s0,0,0,0c6.22,2.09,12.22,3.18,18.01,3.23,4.82-.04,9.8-.82,14.93-2.28,4.4-4.79,8.21-9.93,11.32-15.3-5,1.44-9.8,2.23-14.36,2.28h0Z"/>
        </g>
        <polygon class="cls-5" points="108.59 88.71 111.23 101.72 113.55 98.2 114.29 102.37 118.78 96.16 117.16 103.53 121.18 100.61 119.61 104.87 130.81 96.81 123.45 106.63 126.51 105.66 124.33 109.23 130.58 107.79 126.92 111.78 129.33 111.96 125.72 115.25 139.84 116.74 128.4 119.38 130.49 120.77 125.9 121.74 131.18 125.54 124.93 124.75 126.97 127.21 123.87 127.21 133.12 137.68 121.14 129.48 120.53 129.75 121 133.28 117.99 131.05 117.34 131.1 118.73 137.96 114.89 133.23 114.33 136.47 111.19 132.72 109.98 144.49 107.99 133.79 107.07 133.23 105.49 137.08 104.98 132.4 100.08 138.97 101.42 130.64 98.74 132.86 98.88 129.57 88.14 137.77 96.42 127.81 92.63 127.81 94.62 124.7 88.23 125.82 93.09 122.2 89.02 121.14 92.86 118.73 77.82 116.64 93.51 115.02 90.27 113.21 94.34 112.84 86.93 107.7 93.69 108.58 92.44 106.54 96.28 107.14 87.58 96.77 99.2 104.64 98.37 101.26 101.65 103.35 100.17 96.4 105.45 102.37 105.91 98.85 107.85 101.21 108.59 88.71"/>
        <g>
          <path class="cls-4" d="M185.23,156.87v-64.16c6.56-2.25,3.11-9.43-2.01-5.88l-1.29-1.99-4.53,1.13c-2.22-2.59-4.63-1.8-7.14.52-2.42-.64-2.51-2.64-5.23,1.88-.3,1.57,1.26,2.82,4.7,3.73,3.35,42.84-8.9,81.83-62.34,86.15h0c-53.5-4.3-65.75-43.31-62.41-86.16,3.44-.92,5.01-2.16,4.7-3.73-2.72-4.52-2.81-2.53-5.23-1.88-2.51-2.32-4.92-3.11-7.14-.53l-4.53-1.13-1.29,1.99c-5.11-3.56-8.56,3.63-2.01,5.88v64.16h-13.36c.91,9.51,3.91,19.16,8.79,28.27,5.42,1.87,10.67,2.86,15.73,2.9,5.36-.05,10.92-1.14,16.67-3.23h0s.01,0,.01,0h.01s0,0,0,0c5.75,2.09,11.31,3.17,16.67,3.23,5.36-.05,10.92-1.14,16.68-3.23h0s0,0,0,0c0,0,.01,0,.01,0h0c5.76,2.1,11.32,3.18,16.68,3.23,5.36-.05,10.92-1.14,16.68-3.23h0s0,0,0,0c0,0,0,0,0,0h0c5.76,2.1,11.32,3.18,16.68,3.23,5.36-.05,10.92-1.14,16.68-3.23h0s0,0,0,0h.01s0,0,0,0c5.76,2.09,11.32,3.18,16.68,3.23,5.04-.05,10.26-1.03,15.66-2.88,4.88-9.11,7.89-18.76,8.8-28.28h-13.36Z"/>
          <polygon class="cls-4" points="52.39 51.82 44.85 51.82 44.85 36.71 44.77 36.71 37.24 8.23 37.23 8.23 37.23 8.17 37.12 8.17 29.58 36.71 29.51 36.71 29.51 51.82 22.07 51.82 22.07 59.54 29.51 66.12 29.51 81.02 37.13 81.02 37.23 81.02 44.85 81.02 44.85 66.21 52.39 59.54 52.39 51.82"/>
          <polygon class="cls-4" points="192.7 51.9 185.15 51.9 185.15 36.79 185.07 36.79 177.55 8.31 177.53 8.31 177.53 8.25 177.42 8.25 169.88 36.79 169.81 36.79 169.81 51.9 162.37 51.9 162.37 59.62 169.81 66.2 169.81 81.1 177.43 81.1 177.53 81.1 185.15 81.1 185.15 66.29 192.7 59.62 192.7 51.9"/>
        </g>
        <path class="cls-3" d="M15.86,0v156.64s-.01,0-.01,0l.03.28s0,.01,0,.02v.17h.02c.96,9.81,4.16,19.67,9.19,28.84h-.03s.3.54.3.54c.04.07.09.14.13.21.82,1.46,1.7,2.9,2.61,4.33.19.3.38.59.58.89,1.99,3.02,4.18,5.93,6.56,8.73.03.04.06.07.09.11,1.93,2.25,3.97,4.43,6.13,6.49,16.32,15.56,37.73,24.65,61.9,26.31,1.14.11,2.36.19,3.71.25v.03h.26c1.48-.07,2.79-.15,4.02-.27,24.18-1.66,45.58-10.75,61.91-26.31,14.49-13.8,23.8-32.07,25.57-50.14h.06V0H15.86ZM111.28,233c-1.2.11-2.47.2-3.89.25h-.07c-1.1-.05-2.53-.12-3.94-.26-13.71-.94-26.63-4.46-38.18-10.09,2.94.54,5.81.86,8.59.89h0s0,0,0,0h0s0,0,0,0c5.35-.06,11.02-1.09,16.95-2.99,5.94,1.9,11.6,2.93,16.95,2.99h0s0,0,0,0h0s0,0,0,0c5.35-.06,11.02-1.09,16.96-2.99,5.95,1.9,11.61,2.93,16.97,2.99v-.02c2.43-.03,4.93-.27,7.48-.68-11.46,5.53-24.27,8.98-37.84,9.91ZM167.59,211.41c-.16.13-.31.26-.47.39-.67.54-1.35,1.06-2.04,1.58-.93.71-1.87,1.4-2.84,2.08-.29.2-.56.4-.85.6-1.99,1.36-4.07,2.62-6.17,3.83-4.64,1.36-9.23,2.13-13.59,2.17v.02c-5.45-.05-11.1-1.14-16.95-3.23h0s0,0,0,0h0s0,0,0,0c-5.85,2.09-11.51,3.18-16.95,3.23-5.45-.05-11.1-1.14-16.95-3.23h0s0,0,0,0c0,0-.01,0-.01,0h0c-5.85,2.1-11.5,3.18-16.95,3.23-4.89-.04-9.96-.97-15.17-2.66-.15-.09-.31-.17-.46-.26-.12-.07-.24-.14-.35-.21-1.39-.83-2.74-1.71-4.07-2.61-.87-.59-1.71-1.2-2.55-1.81-.27-.2-.55-.4-.82-.6-3.76-2.81-7.21-5.85-10.38-9.06,4.9,1.21,9.63,1.9,14.13,1.95h.01c5.69-.06,11.71-1.09,18.02-2.99,6.31,1.89,12.33,2.93,18.02,2.99h0s0,0,0,0h0c5.69-.06,11.71-1.09,18.02-2.99,6.31,1.9,12.33,2.93,18.02,2.99h0s0,0,0,0h.01c5.69-.06,11.71-1.09,18.02-2.99,6.31,1.89,12.33,2.93,18.02,2.99h0s0,0,0,0h0c3.84-.04,7.84-.55,11.97-1.44-2.1,2.1-4.31,4.12-6.66,6.05ZM186.96,189.41c-2.93,4.73-6.41,9.28-10.39,13.55-4.9,1.35-9.68,2.08-14.3,2.12-5.79-.05-11.8-1.14-18.01-3.23h0s-.01,0-.01,0c0,0,0,0,0,0h0c-6.22,2.1-12.22,3.18-18.01,3.23-5.79-.05-11.8-1.14-18.02-3.23h0s-.01,0-.01,0h-.01s0,0,0,0c-6.22,2.09-12.23,3.18-18.02,3.23-5.79-.05-11.8-1.14-18.01-3.23h0s-.01,0-.01,0c0,0,0,0,0,0h0c-6.22,2.1-12.22,3.18-18.01,3.23-5.33-.05-10.85-1.01-16.54-2.78-4.21-4.62-7.84-9.56-10.85-14.69,4.84,1.36,9.49,2.12,13.92,2.17h.01c5.26-.06,10.84-1.09,16.68-2.99,5.84,1.89,11.42,2.93,16.68,2.99h.01c5.27-.06,10.84-1.09,16.68-2.99,5.84,1.89,11.42,2.93,16.68,2.99h.01c5.27-.06,10.84-1.09,16.68-2.99,5.85,1.89,11.42,2.93,16.68,2.99h.01c5.26-.06,10.84-1.09,16.68-2.99,5.84,1.89,11.42,2.93,16.68,2.99h.01c4.41-.05,9.04-.8,13.87-2.15-.24.42-.48.84-.74,1.26-.11.18-.21.35-.32.53ZM189.33,185.33c-5.22,1.75-10.29,2.69-15.18,2.73-5.36-.05-10.92-1.14-16.68-3.23h0s-.01,0-.01,0c0,0,0,0,0,0h0c-4.15,1.51-8.2,2.48-12.15,2.93h-.02s-.27.02-.27.02l-.11.04s-.01,0-.01,0c-1.38.14-2.75.23-4.11.24-5.36-.05-10.92-1.14-16.68-3.23h0s0,0,0,0h0s0,0,0,0c-5.76,2.09-11.32,3.18-16.68,3.23-1.64-.02-3.3-.16-4.98-.37h0s0,0,0,0c-3.8-.47-7.7-1.41-11.69-2.86h0s0,0-.01,0c0,0,0,0,0,0h0c-1.76.64-3.48,1.15-5.2,1.6h0s0,0,0,0c-3.92,1.02-7.74,1.59-11.47,1.63-3.6-.03-7.29-.58-11.06-1.53l-.04-.05-.07.02c-1.82-.46-3.64-.99-5.5-1.67h0s-.01,0-.01,0h-.01s0,0,0,0c-5.75,2.09-11.31,3.17-16.67,3.23-4.91-.05-10-.99-15.25-2.76-4.99-9.16-8.06-18.8-8.99-28.16h13.34v-64.59l-.17-.06c-2.86-.98-3.61-2.87-3.39-4.19.21-1.28,1.29-2.17,2.61-2.17.81,0,1.7.32,2.57.93l.21.15,1.34-2.06,4.51,1.13.1-.12c1.9-2.21,3.98-2.04,6.78.55l.1.09.13-.04c.62-.17,1.1-.42,1.49-.62.38-.2.69-.36.97-.36.59,0,1.3.79,2.47,2.72.24,1.39-1.29,2.53-4.53,3.4l-.17.05v.18c-1.9,24.09,1.44,43.5,9.91,57.69,10.16,17.03,27.81,26.69,52.48,28.72v.05l.27-.02c24.77-2,42.48-11.68,52.66-28.76,8.45-14.19,11.79-33.59,9.91-57.67v-.18s-.19-.05-.19-.05c-3.24-.86-4.76-2.01-4.53-3.4,1.16-1.93,1.88-2.72,2.47-2.72.28,0,.59.16.97.36.39.2.87.46,1.49.63l.13.04.1-.09c2.8-2.59,4.88-2.76,6.77-.55l.1.12,4.51-1.13,1.34,2.06.21-.15c.87-.61,1.76-.93,2.57-.93,1.32,0,2.39.89,2.61,2.17.22,1.32-.54,3.21-3.39,4.19l-.17.06v64.6h13.34c-.93,9.36-4,19.02-9,28.18ZM198.39,156.59h-12.89v-63.67c3.01-1.1,3.8-3.2,3.56-4.69-.26-1.53-1.53-2.59-3.1-2.59-.86,0-1.74.29-2.64.87l-1.25-1.93-4.56,1.14c-2.02-2.26-4.38-2.12-7.29.53-.51-.15-.9-.36-1.25-.55-.43-.23-.8-.42-1.21-.42-.83,0-1.59.79-2.92,3l-.03.08c-.33,1.69,1.26,3.03,4.71,3.98,1.84,23.89-1.47,43.13-9.85,57.19-10.08,16.92-27.65,26.51-52.22,28.51h0c-24.62-1.98-42.22-11.57-52.32-28.5-8.39-14.07-11.71-33.31-9.87-57.21,3.46-.95,5.04-2.29,4.71-3.98l-.03-.08c-1.33-2.22-2.1-3-2.92-3-.41,0-.78.2-1.21.42-.35.19-.75.4-1.25.55-2.91-2.65-5.27-2.78-7.29-.52l-4.56-1.14-1.25,1.93c-.89-.57-1.8-.87-2.64-.87-1.57,0-2.85,1.07-3.1,2.59-.25,1.49.54,3.59,3.56,4.69v63.68h-12.87V.5h182.02v156.09Z"/>
        <g>
          <path class="cls-1" d="M158.33,126.19c1.06.4,1.48.98,1.14,2.2-2.17,7.71-6.6,14.2-12.2,19.59-.11.11-.26.21-.39.31-.55.4-1.05,1.12-1.83.51-.66-.52-.4-1.07.26-1.65,5.39-4.81,9.22-10.58,11.82-17.36.44-1.16.56-2.43,1.22-3.6h0Z"/>
          <path class="cls-1" d="M92.14,155.24c1.83.33,4.67,2.58,4.97,4.36.23,1.38-4.08,2.41-6.35,1.37-2.73-1.26-4.16-3.31-5.81-5.2-.37-.42-.19-.64.36-.64,2.07-.01,3.95-.46,6.82.11h0Z"/>
          <path class="cls-1" d="M120.03,167.63c-2.43.35-2.45.28-1.99-1.24.88-2.93,2.81-5.39,5.86-6.31,2.47-.75,3.18-.68,3.42,1.22.71,4.23-3.92,5.98-7.29,6.34h0Z"/>
          <path class="cls-1" d="M113.07,161.97c3.11-.23,3.61.1,2.95,2.17-1.32,4.15-6.56,4.78-10.23,4.12-.75-.14-1.09-.34-1-.86,1.17-3.24,5.08-5.04,8.28-5.42h0Z"/>
          <path class="cls-1" d="M134.97,155.82c1.32-.62,1.89-.23,2.23.64,2.09,4.45-2.27,6.86-5.74,8.22-.71.28-1.69.53-1.62-.38.14-1.96-.02-3.94,1.44-5.83.89-1.16,2.15-2,3.7-2.65h0Z"/>
          <path class="cls-1" d="M145.81,151.36c2.42,2.74-.02,5.81-2.46,7.33-.75.47-1.61,1.5-2.48,1.29-.69-.17-.7-1.16-.75-1.86-.08-1.01-.26-1.99-.18-3.03.14-1.86,1.52-3.27,3.19-4.62.78-.63,1.52-.8,2.05.02.19.3.42.59.64.88h0Z"/>
          <path class="cls-1" d="M115.5,153.94c3.83-.52,7.7.31,10.16,3.47.6.77.48,1.14-.85,1.49-2.99.81-6.18.2-8.67-1.63-.52-.38-1.15-.73-1.53-1.18-.5-.6-1.86-1.04-1.44-1.73.32-.54,1.61-.27,2.32-.42h0Z"/>
          <path class="cls-1" d="M105.69,154.13c4.19.16,8.06,1.59,10.04,5.5.43.79.07,1.23-1.19,1.33-2.85.23-5.58-.88-7.65-2.76-.89-.8-1.62-1.7-2.25-2.63-.96-1.43-.9-1.5,1.06-1.45h0Z"/>
          <path class="cls-1" d="M129.85,149.84c1.79-1.08,3.41-2.11,5.25-2.64,2.41-.71,5.68-.3,7.73,1.39.32.35.19.65-.16.96-1.25,1.09-2.8,1.95-4.55,2.12-2.86.27-5.69-.6-8.27-1.83h0Z"/>
          <path class="cls-1" d="M125.48,151.66c3.34-1.16,6.62-.02,9.3,1.97.85.63.19,1.1-.57,1.45-2.07.95-4.31,1.43-6.58.77-1.99-.57-3.77-1.42-5.32-2.49-.65-.45-.34-.57.24-.81.98-.39,1.96-.73,2.92-.9h0Z"/>
          <path class="cls-1" d="M92.5,165.71c1.63-1.67,3.45-2.98,5.85-3.89,1.73-.66,6.02-.33,6.89.47.53.49-.88,3.27-2.15,3.88-1.68.82-3.6,1.31-6.12.58-1.39-.4-2.83-.63-4.46-1.05h0Z"/>
          <path class="cls-1" d="M105.53,159.57c.26,1.4-.2,1.68-2.16,1.27-2.82-.59-5.29-2.32-6.74-4.81-.26-.44-.5-.89-.71-1.35-.3-.65-1.17-1.52-.49-1.9.55-.31,1.68.24,2.52.51,3.11.99,6.94,2.62,7.58,6.28h0Z"/>
          <path class="cls-1" d="M88.07,164.76c-3.49-1.51-6.88-3.13-9.99-5.11-4.29-2.74-8.31-6.15-11.92-9.86-.14-.15-.35-.29-.45-.45-.37-.6-1.56-1.41-.85-1.76.59-.29,1.24.7,1.69,1.18,6.21,6.54,13.69,11.34,21.96,15.03.42.18,1.27.17,1.13.76-.12.53-.82.36-1.58.2h0Z"/>
          <path class="cls-1" d="M87.88,161.73c-2.89-1.01-5.62-2.46-8.17-4.1-5.28-3.4-9.96-7.31-14.05-12-.42-.48-1.35-1.24-.59-1.54.67-.26,1.08.67,1.44,1.08,5.31,5.95,11.69,10.58,18.77,14.3,1.03.54,1.78,1.12,2.59,2.26h0Z"/>
          <path class="cls-1" d="M92.68,152.02c-1.78-.36-3.3-1.1-4.73-1.85-4.61-2.42-8.83-5.38-12.68-8.89-.45-.41-1.32-.99-.76-1.42.56-.43,1.13.4,1.55.79,4.45,4.11,9.57,7.21,15.14,9.74.84.38,1.29.77,1.48,1.64h0Z"/>
          <path class="cls-1" d="M90.35,152.89c-1.57.76-3.11-.13-4.4-.84-5.3-2.93-10.02-6.65-14.31-10.97-.42-.42-1.07-.99-.45-1.32.51-.27.95.38,1.3.74,5.06,5.34,11.12,9.11,17.86,12.39h0Z"/>
          <path class="cls-1" d="M83.11,156.38c-1.36-.24-2.3-1.01-3.19-1.62-5.54-3.8-10.43-8.31-14.6-13.56-.39-.5-.74-1.05-.26-1.27.49-.22.89.43,1.16.77,4.29,5.44,9.43,9.95,15.27,13.7.61.39.99.9,1.62,1.99h0Z"/>
          <path class="cls-1" d="M84.77,153.2c-1.02.27-1.83.06-2.68-.46-5.36-3.25-9.95-7.42-14.11-12.17-.41-.47-1.02-1.17-.57-1.45.52-.32,1.06.47,1.42.9,4.1,4.85,8.95,8.79,14.4,12.09.48.29.91.66,1.52,1.09h0Z"/>
        </g>
        <g>
          <path class="cls-1" d="M60.02,107.91c-1.06-.4-1.48-.98-1.14-2.2,2.16-7.71,6.6-14.2,12.19-19.59.11-.11.26-.21.39-.31.55-.4,1.05-1.12,1.83-.51.66.52.4,1.07-.26,1.65-5.39,4.81-9.22,10.58-11.82,17.36-.44,1.16-.56,2.44-1.21,3.6h0Z"/>
          <path class="cls-1" d="M126.21,78.86c-1.83-.33-4.67-2.58-4.97-4.36-.23-1.38,4.08-2.41,6.35-1.37,2.73,1.26,4.16,3.31,5.81,5.2.37.42.19.64-.36.64-2.07.01-3.95.46-6.82-.11h0Z"/>
          <path class="cls-1" d="M98.32,66.46c2.43-.35,2.45-.28,1.98,1.24-.88,2.93-2.81,5.39-5.86,6.31-2.47.75-3.18.68-3.42-1.22-.71-4.23,3.92-5.98,7.29-6.34h0Z"/>
          <path class="cls-1" d="M105.28,72.13c-3.11.22-3.61-.1-2.95-2.17,1.32-4.15,6.56-4.78,10.23-4.12.75.14,1.09.34,1,.86-1.17,3.24-5.09,5.04-8.28,5.42h0Z"/>
          <path class="cls-1" d="M83.38,78.28c-1.32.62-1.89.23-2.23-.64-2.09-4.45,2.27-6.86,5.74-8.22.71-.28,1.69-.52,1.62.38-.14,1.96.01,3.94-1.44,5.83-.89,1.16-2.15,2-3.7,2.65h0Z"/>
          <path class="cls-1" d="M72.54,82.74c-2.42-2.74.02-5.81,2.46-7.33.75-.47,1.61-1.5,2.48-1.29.69.16.7,1.16.75,1.86.08,1.01.26,1.99.18,3.03-.14,1.86-1.52,3.27-3.19,4.62-.78.63-1.52.8-2.05-.02-.19-.3-.42-.58-.64-.88h0Z"/>
          <path class="cls-1" d="M102.86,80.16c-3.83.52-7.7-.31-10.16-3.47-.6-.77-.48-1.14.85-1.49,2.99-.81,6.18-.2,8.67,1.63.52.38,1.15.73,1.53,1.18.5.6,1.86,1.04,1.44,1.73-.32.54-1.61.27-2.32.42h0Z"/>
          <path class="cls-1" d="M112.66,79.97c-4.19-.16-8.06-1.59-10.04-5.5-.43-.79-.07-1.23,1.19-1.33,2.85-.23,5.58.88,7.65,2.76.89.8,1.62,1.7,2.25,2.63.96,1.43.91,1.5-1.06,1.45h0Z"/>
          <path class="cls-1" d="M88.5,84.25c-1.79,1.08-3.41,2.11-5.25,2.65-2.41.71-5.67.3-7.73-1.39-.32-.35-.19-.65.16-.96,1.25-1.09,2.8-1.95,4.55-2.12,2.86-.27,5.69.6,8.27,1.83h0Z"/>
          <path class="cls-1" d="M92.87,82.43c-3.34,1.16-6.62.02-9.3-1.97-.85-.63-.19-1.1.57-1.45,2.07-.95,4.31-1.42,6.58-.77,1.99.57,3.77,1.42,5.32,2.49.65.45.34.57-.24.81-.97.39-1.95.73-2.92.9h0Z"/>
          <path class="cls-1" d="M125.85,68.38c-1.63,1.67-3.45,2.98-5.85,3.89-1.73.66-6.02.33-6.89-.47-.53-.49.88-3.27,2.15-3.88,1.68-.82,3.6-1.31,6.12-.58,1.39.4,2.83.63,4.46,1.05h0Z"/>
          <path class="cls-1" d="M112.83,74.53c-.26-1.4.2-1.68,2.16-1.27,2.82.59,5.29,2.32,6.74,4.81.26.44.5.89.71,1.35.3.65,1.17,1.52.49,1.9-.55.32-1.68-.24-2.52-.51-3.12-.99-6.95-2.62-7.58-6.28h0Z"/>
          <path class="cls-1" d="M130.28,69.33c3.49,1.51,6.88,3.13,9.99,5.11,4.29,2.74,8.31,6.15,11.92,9.86.14.15.35.29.45.45.37.6,1.57,1.41.85,1.76-.59.29-1.24-.7-1.69-1.18-6.21-6.54-13.69-11.34-21.96-15.03-.42-.18-1.27-.17-1.13-.76.12-.53.82-.36,1.58-.2h0Z"/>
          <path class="cls-1" d="M130.47,72.36c2.89,1.01,5.62,2.46,8.17,4.1,5.28,3.4,9.96,7.31,14.05,12,.42.48,1.35,1.24.59,1.54-.67.26-1.08-.67-1.44-1.08-5.31-5.95-11.69-10.58-18.77-14.3-1.03-.54-1.78-1.12-2.59-2.26h0Z"/>
          <path class="cls-1" d="M125.67,82.08c1.78.35,3.3,1.1,4.73,1.85,4.61,2.42,8.83,5.38,12.68,8.9.45.41,1.32.99.75,1.42-.56.43-1.13-.4-1.55-.79-4.45-4.11-9.57-7.21-15.14-9.74-.84-.38-1.29-.77-1.48-1.64h0Z"/>
          <path class="cls-1" d="M128,81.2c1.57-.76,3.11.13,4.4.84,5.3,2.93,10.02,6.65,14.31,10.97.42.42,1.07.99.45,1.32-.51.27-.95-.38-1.3-.74-5.05-5.34-11.12-9.11-17.86-12.39h0Z"/>
          <path class="cls-1" d="M135.24,77.72c1.36.24,2.3,1.01,3.19,1.62,5.54,3.8,10.43,8.31,14.6,13.56.39.5.74,1.05.26,1.27-.49.22-.89-.43-1.16-.77-4.29-5.44-9.43-9.95-15.27-13.7-.61-.39-.99-.9-1.62-1.99h0Z"/>
          <path class="cls-1" d="M133.58,80.9c1.02-.27,1.83-.06,2.68.46,5.36,3.25,9.95,7.42,14.11,12.17.41.47,1.02,1.17.57,1.45-.52.32-1.06-.47-1.42-.9-4.1-4.85-8.95-8.79-14.4-12.09-.47-.29-.91-.66-1.52-1.09h0Z"/>
        </g>
        <g>
          <path class="cls-2" d="M134.05,192.94c-.09.05-.15.08-.2.12-1.34,1.1-2.61,2.24-4.11,3.2-.29.19-.07.28.09.39.68.48,1.36.95,2.03,1.43.68.49,1.36.99,2.12,1.54-.33-1.09-.77-2.04-1.49-2.89-.23-.27-.22-.48.03-.73.78-.77,1.18-1.69,1.52-2.63.04-.13.08-.25,0-.43h0ZM119.73,198.85c3.11-.13,5.88-.92,8.45-2.23.31-.15.3-.26,0-.42-2.33-1.28-4.71-2.47-7.55-2.76-3.4-.35-6.52.24-9.3,1.96-.69.43-1.3.92-1.9,1.42-.15.13-.24.22-.03.38,1.29.99,2.72,1.7,4.53,1.78.86.04,1.43-.29,1.81-.9.48-.78.41-1.6.17-2.4-.16-.54-.1-.76.45-1.09.26-.15.45-.1.52.13.38,1.33.49,2.66-.19,3.94-.45.85-1.48,1.23-2.6,1.1-1.83-.22-3.35-.95-4.74-1.91-.93-.64-.97-.68-.16-1.42,2.14-1.95,4.68-3.4,7.89-3.81,2.87-.37,5.55.22,8.06,1.37.91.42,1.8.88,2.69,1.34.29.15.55.35.8.55.29.23.52.19.81-.01,1.2-.82,2.31-1.71,3.31-2.71.61-.61,1.21-1.23,1.82-1.85.1-.1.18-.27.34-.23.18.05.15.25.15.38-.06,1.13-.33,2.23-.91,3.27-.26.46-.52.92-.92,1.3-.24.22-.23.4-.02.64.97,1.14,1.62,2.38,1.83,3.77.02.14.12.34-.02.41-.21.11-.32-.12-.45-.21-1.62-1.2-3.18-2.47-4.92-3.57-.4-.26-.69-.3-1.15-.05-2.63,1.45-5.49,2.46-8.65,2.81-.59.06-1.18.08-1.78.11-.31.01-.45-.08-.23-.33.01-.01.03-.02.03-.04.28-.87,1.05-.9,1.86-.74h0Z"/>
          <path class="cls-2" d="M113.13,196.94c-.5-.01-.79-.27-.77-.69.02-.28.46-.57.86-.55.45.02.73.28.72.65,0,.4-.28.6-.81.59h0Z"/>
        </g>
        <g>
          <path class="cls-2" d="M82.02,210.84c.35.94.74,1.86,1.52,2.63.26.25.27.46.04.73-.72.85-1.17,1.79-1.49,2.89.76-.55,1.44-1.05,2.12-1.54.67-.48,1.35-.95,2.03-1.43.16-.11.38-.2.09-.39-1.5-.95-2.78-2.1-4.11-3.2-.05-.04-.11-.07-.2-.12-.08.18-.04.31,0,.43h0ZM98.19,217.06s.02.02.03.04c.22.25.08.34-.23.33-.59-.03-1.19-.04-1.78-.11-3.16-.35-6.02-1.36-8.65-2.81-.46-.25-.75-.2-1.15.05-1.73,1.1-3.3,2.36-4.92,3.57-.13.1-.24.32-.45.21-.14-.07-.05-.27-.03-.41.21-1.39.87-2.64,1.83-3.77.21-.24.22-.42-.02-.64-.41-.38-.67-.84-.93-1.3-.58-1.04-.84-2.13-.91-3.26,0-.14-.03-.33.15-.38.17-.05.24.13.34.23.61.61,1.2,1.24,1.82,1.85.99.99,2.11,1.88,3.31,2.71.29.2.52.24.81.01.25-.2.51-.4.8-.55.89-.46,1.78-.92,2.69-1.34,2.51-1.16,5.19-1.74,8.06-1.37,3.22.41,5.76,1.86,7.89,3.81.82.74.78.79-.16,1.42-1.39.95-2.91,1.69-4.74,1.91-1.12.13-2.15-.25-2.6-1.1-.68-1.28-.57-2.61-.19-3.94.07-.23.26-.28.52-.13.56.32.61.55.45,1.09-.24.81-.31,1.62.17,2.4.37.61.94.94,1.81.9,1.81-.09,3.25-.8,4.54-1.78.21-.16.12-.26-.03-.38-.61-.5-1.21-.99-1.9-1.42-2.77-1.71-5.9-2.31-9.3-1.96-2.84.29-5.22,1.48-7.55,2.76-.29.16-.3.27,0,.42,2.58,1.3,5.35,2.1,8.45,2.23.8-.16,1.57-.14,1.85.73h0Z"/>
          <path class="cls-2" d="M102.94,214.42c.5-.01.79-.27.77-.69-.02-.28-.46-.57-.86-.55-.45.02-.73.28-.72.65,0,.4.28.6.81.59h0Z"/>
        </g>
        <g>
          <path d="M54.24,39.75l.24.19c.85.66,1.86,1.19,2.95,1.19.47,0,1.21-.19,1.21-.78s-.62-.64-1.05-.73l-.95-.17c-1.84-.33-3.4-1.42-3.4-3.45,0-3.09,2.81-4.81,5.64-4.81,1.48,0,2.84.36,4.12,1.14l-1.28,3.33c-.81-.55-1.72-.98-2.74-.98-.41,0-1.02.16-1.02.69,0,.48.59.55.95.64l1.07.24c2,.45,3.45,1.52,3.45,3.73,0,3.1-2.83,4.64-5.64,4.64-1.64,0-3.53-.45-5-1.19l1.45-3.67ZM55.91,47.18l2.74-2.52,1.66,1.42-2.65,2.62-1.74-1.52Z"/>
          <path d="M68.73,44.41h-5l4.52-13h5.23l4.64,13h-5l-.43-1.62h-3.57l-.38,1.62ZM71.86,39.7l-.55-2.29c-.14-.55-.23-1.12-.31-1.67h-.17l-.86,3.97h1.89Z"/>
          <path d="M79.04,31.41h4.53l4.24,7.21h.14c-.19-1.08-.4-2.21-.4-3.31v-3.9h4.52v13h-4.52l-4.15-6.83h-.14c.15.89.29,1.74.29,2.6v4.22h-4.52v-13h0Z"/>
          <path d="M94.15,31.41h4.73v8.83h3.96v4.17h-8.69v-13Z"/>
          <path d="M104.18,31.41h4.72v13h-4.72v-13Z"/>
          <path d="M123.07,31.41v7.69c0,3.79-2.38,5.52-6.02,5.52s-6.02-1.72-6.02-5.52v-7.69h4.72v7.24c0,1.02.04,1.91,1.29,1.91s1.29-.9,1.29-1.91v-7.24h4.73Z"/>
          <path d="M125.16,31.41h5.71c2.93,0,5.41,1.24,5.41,4.52,0,1.97-.76,2.79-2.52,3.38v.1c.24.19.53.4.79.78l2.83,4.22h-5.45l-2.07-4.17h-.08v4.17h-4.62v-13ZM129.79,37.17h.33c.78,0,1.55-.12,1.55-1.09s-.71-1.12-1.52-1.12h-.36v2.21Z"/>
          <path d="M138.23,31.41h8.71v3.73h-3.95v1.35h3.47v3.38h-3.47v4.55h-4.76v-13Z"/>
          <path d="M152.44,44.41h-5l4.52-13h5.23l4.64,13h-5l-.43-1.62h-3.57l-.38,1.62ZM155.56,39.7l-.55-2.29c-.14-.55-.23-1.12-.31-1.67h-.17l-.86,3.97h1.89Z"/>
        </g>
        <g>
          <path d="M12.66,171.68l1.41,5.89c.65,2.7.72,5.59-2.21,6.28-1.11.26-2.35-.08-2.99-1.22l-.1.02c-.12,1.63-.9,2.83-2.41,3.19-2.6.62-4.13-1.83-4.71-4.27l-1.65-6.89,12.66-3.01ZM4.14,178.67l.14.57c.2.83.5,2.03,1.54,1.78,1.06-.25.73-1.54.54-2.35l-.12-.5-2.1.5ZM9.02,177.99c.18.74.44,1.55,1.32,1.35.94-.23.65-1.15.47-1.89l-.08-.35-1.82.43.11.46Z"/>
          <path d="M21.67,196.74l-6.93,3.35c-3.42,1.65-6.11.04-7.85-3.57-1.74-3.61-1.33-6.72,2.09-8.38l6.93-3.35,2.26,4.69-6.53,3.15c-.92.44-1.71.87-1.11,2.12s1.43.89,2.34.45l6.53-3.15,2.26,4.69ZM20.54,189.14c-.72.35-1.59-.01-1.97-.8-.38-.79-.11-1.7.6-2.04.71-.35,1.59.01,1.97.8.38.79.11,1.7-.6,2.04ZM22.54,193.3c-.72.35-1.59,0-1.97-.8s-.11-1.7.6-2.04c.71-.34,1.59.01,1.97.8.38.79.11,1.7-.6,2.04Z"/>
          <path d="M25.48,202.01l-1.78,3.31.09.12c.43-.13.84-.27,1.27-.35l2.36-.48,3.49,4.7-8.87.49-4.51,3.35-3.04-4.08,4.51-3.35,2.96-8.43,3.51,4.72Z"/>
          <path d="M41.02,218.84l-5.29,5.59c-2.61,2.76-5.7,2.21-8.61-.54-2.91-2.75-3.63-5.81-1.02-8.57l5.29-5.59,3.78,3.58-4.98,5.27c-.7.74-1.29,1.42-.28,2.37,1.01.95,1.65.33,2.35-.41l4.98-5.27,3.78,3.58ZM37.26,212.15c-.55.58-1.49.56-2.13-.04-.63-.6-.71-1.55-.16-2.12.54-.58,1.49-.56,2.13.04.63.6.7,1.55.16,2.12ZM40.61,215.32c-.55.58-1.49.56-2.13-.04-.63-.6-.71-1.55-.16-2.12.54-.58,1.49-.56,2.13.04.63.6.71,1.55.16,2.12Z"/>
          <path d="M42.53,220.3l4.21,2.83-3.25,4.61.1.06c.39-.38.92-.59,1.42-.81l4.41-2.06,4.71,3.17-7.26,2.75.39,8.3-5.01-3.37.15-4.64c.03-.58-.08-1.24.12-1.75l-.09-.06-2.95,4.59-4.21-2.83,7.27-10.79Z"/>
          <path d="M52.51,236.5l.16.29c.55,1,1.33,1.97,2.4,2.49.46.22,1.28.41,1.53-.12.26-.53-.34-.87-.73-1.16l-.86-.61c-1.68-1.18-2.75-2.9-1.86-4.74,1.34-2.78,4.88-2.98,7.68-1.62,1.47.71,2.66,1.69,3.59,3.01l-2.71,2.38c-.56-.89-1.28-1.71-2.29-2.2-.41-.2-1.08-.35-1.31.13-.21.43.34.78.66,1.03l.96.73c1.79,1.36,2.76,3.02,1.79,5.01-1.35,2.8-4.82,2.82-7.61,1.47-1.62-.79-3.31-2.1-4.43-3.47l3.03-2.61ZM50.93,244l3.81-.95,1.02,2.07-3.77,1.09-1.06-2.2Z"/>
          <path d="M66.54,233.86l9.09,3.17-1.18,3.35-4.14-1.45-.41,1.17,3.78,1.32-1.12,3.19-3.78-1.32-.42,1.21,4.28,1.49-1.18,3.35-9.23-3.22,4.3-12.27Z"/>
          <path d="M77.63,237.7l4.9,1.07-.93,4.28,3.12.68.93-4.28,4.9,1.07-2.77,12.71-4.9-1.07.96-4.42-3.12-.68-.96,4.42-4.9-1.07,2.77-12.71Z"/>
          <path d="M92.76,240.61l5.17.6-1.51,12.93-5.17-.6,1.51-12.93ZM97.15,238.53c-.09.79-.86,1.34-1.73,1.24-.87-.1-1.49-.82-1.4-1.6.09-.79.86-1.34,1.73-1.24.87.1,1.49.82,1.4,1.6Z"/>
          <path d="M100.13,241.57l6.28.05c3.23.03,5.95,1.29,5.93,4.57-.01,1.97-.86,2.79-2.8,3.36v.1c.26.19.59.4.87.78l3.08,4.25-6-.05-2.25-4.19h-.1l-.03,4.17-5.09-.04.1-13ZM105.18,247.37h.36c.85.01,1.71-.1,1.72-1.07,0-1-.77-1.13-1.66-1.14h-.4s-.02,2.2-.02,2.2Z"/>
          <path d="M121.97,240.74l5.94-1.18c2.72-.54,5.61-.5,6.19,2.44.22,1.12-.17,2.34-1.33,2.94l.02.1c1.62.19,2.8,1.01,3.1,2.53.52,2.62-1.98,4.05-4.44,4.54l-6.95,1.38-2.53-12.76ZM128.14,244.61c.74-.15,1.57-.38,1.39-1.26-.19-.95-1.12-.69-1.87-.54l-.36.07.36,1.83.47-.09ZM128.62,249.51l.58-.11c.84-.17,2.05-.42,1.84-1.47-.21-1.07-1.51-.79-2.33-.63l-.5.1.42,2.11Z"/>
          <path d="M135.4,237.91l9.18-2.91,1.08,3.39-4.18,1.32.38,1.18,3.82-1.21,1.02,3.22-3.82,1.21.39,1.22,4.33-1.37,1.08,3.39-9.33,2.96-3.94-12.39Z"/>
          <path d="M146.57,234.23l4.77-2.09,3.55,8.09,4-1.75,1.68,3.82-8.77,3.83-5.23-11.91Z"/>
          <path d="M156.42,229.82l8.33-4.82,1.78,3.07-3.8,2.2.62,1.08,3.47-2.01,1.69,2.92-3.47,2.01.64,1.1,3.93-2.27,1.78,3.07-8.46,4.9-6.51-11.25Z"/>
          <path d="M166.54,223.94l4.17-3.27c3.78-2.97,7.87-3.74,10.83.02,2.39,3.04,1.54,6.82-1.76,9.41l-5.19,4.07-8.04-10.23ZM176.27,227.89l.25-.2c1.36-1.07,1.96-2.46.9-3.8-1.13-1.44-2.52-1.33-4.02-.16l-.26.2,3.12,3.96Z"/>
          <path d="M179.58,209.32c.57.56.53,1.51-.09,2.13-.61.62-1.56.67-2.13.12-.57-.56-.53-1.51.09-2.13.62-.62,1.56-.68,2.13-.12ZM178.51,214.06l3.66-3.71,9.26,9.14-3.65,3.71-9.26-9.14Z"/>
          <path d="M186.52,205.21l3.68.79.09-.12c-.24-.37-.49-.73-.69-1.12l-1.12-2.13,3.54-4.65,2.94,8.38,4.47,3.39-3.08,4.05-4.47-3.39-8.92-.5,3.56-4.69Z"/>
          <path d="M192.21,197.3l4.49-8.52,3.15,1.66-2.05,3.88,1.1.58,1.87-3.54,2.99,1.58-1.87,3.54,1.13.6,2.12-4.01,3.15,1.66-4.57,8.65-11.52-6.07Z"/>
          <path d="M205.78,188.7l.26-.19c.91-.68,1.77-1.58,2.14-2.72.16-.49.23-1.32-.33-1.5-.56-.18-.82.45-1.05.88l-.49.94c-.94,1.83-2.51,3.12-4.44,2.49-2.94-.96-3.62-4.43-2.65-7.39.51-1.55,1.32-2.86,2.49-3.96l2.73,2.37c-.8.68-1.53,1.5-1.87,2.57-.14.43-.2,1.11.31,1.28.46.15.73-.44.93-.8l.59-1.04c1.11-1.95,2.62-3.14,4.72-2.45,2.95.96,3.45,4.4,2.48,7.34-.56,1.72-1.64,3.56-2.84,4.87l-3-2.66Z"/>
          <path d="M199.12,170.65c.79.11,1.32.9,1.19,1.77s-.86,1.47-1.64,1.35c-.79-.11-1.32-.9-1.19-1.77s.86-1.47,1.64-1.35ZM201.07,175.09l.75-5.15,12.88,1.87-.75,5.15-12.88-1.87Z"/>
        </g>
        <path d="M45.11,51.56v-14.57l-7.94-29.53-7.91,29.46v14.64h-7.44v8.09l7.44,6.58v15.04h15.85v-14.95l7.54-6.67v-8.09h-7.54ZM52.14,59.42l-7.54,6.67v14.67h-14.84v-14.76l-7.44-6.58v-7.35h7.44v-15.1l7.41-28.01,7.35,27.82.05.19.03,15.1h7.54v7.35h0Z"/>
        <path class="cls-3" d="M185.41,51.64v-14.57l-7.94-29.61-7.91,29.51v14.67h-7.44v8.09l7.44,6.58v15.04h15.85v-14.95l7.54-6.67v-8.09h-7.54ZM192.44,59.5l-7.54,6.67v14.67h-14.84v-14.76l-7.44-6.58v-7.35h7.44v-15.1l7.41-28.01,7.35,27.82.05.19.03,15.1h7.54v7.35h0Z"/>
      </g>
    </g>
  </g>
</svg>