<?xml version="1.0" encoding="iso-8859-1"?>
<!-- Generator: Adobe Illustrator 29.7.1, SVG Export Plug-In . SVG Version: 9.03 Build 0)  -->
<svg version="1.1" id="katman_1" xmlns="http://www.w3.org/2000/svg" xmlns:xlink="http://www.w3.org/1999/xlink" x="0px" y="0px"
	 viewBox="0 0 595.28 841.89" style="enable-background:new 0 0 595.28 841.89;" xml:space="preserve">
<g>
	<g>
		<path style="fill:#FFFFFF;" d="M219.587,386.516c-3.015-1.103-3.804-3.206-3.556-4.692c0.255-1.526,1.532-2.591,3.105-2.591
			c0.842,0,1.75,0.301,2.638,0.872l1.251-1.928l4.559,1.14c2.023-2.258,4.386-2.12,7.295,0.525c0.504-0.15,0.9-0.359,1.253-0.546
			c0.429-0.227,0.798-0.422,1.206-0.422c0.827,0,1.591,0.786,2.923,3.003l0.032,0.082c0.329,1.691-1.256,3.029-4.712,3.98
			c-1.843,23.901,1.476,43.148,9.865,57.213c10.101,16.932,27.705,26.52,52.324,28.498h0.004
			c24.569-1.999,42.139-11.59,52.221-28.509c8.381-14.061,11.696-33.304,9.853-57.192c-3.455-0.95-5.039-2.288-4.711-3.979
			l0.031-0.082c1.332-2.217,2.096-3.002,2.922-3.002c0.409,0,0.779,0.195,1.206,0.422c0.353,0.187,0.748,0.396,1.254,0.546
			c2.91-2.648,5.272-2.783,7.294-0.526l4.56-1.139l1.251,1.928c0.897-0.578,1.782-0.871,2.638-0.871
			c1.572,0,2.849,1.065,3.103,2.591c0.249,1.486-0.541,3.589-3.556,4.691v63.73h13.146V293.859H206.463v156.387h13.124V386.516z
			 M352.717,345.503h7.443v-15.102h0.066l7.544-28.547h0.11v0.067h0.013l7.526,28.48h0.084v15.102h7.541v7.719l-7.541,6.672v14.813
			h-7.623h-0.098h-7.623v-14.9l-7.443-6.585V345.503z M212.416,345.422h7.443V330.32h0.066l7.544-28.547h0.11v0.067h0.012
			l7.526,28.48h0.084v15.101h7.541v7.72l-7.541,6.672v14.813h-7.622h-0.098h-7.622v-14.9l-7.443-6.585V345.422z"/>
	</g>
	<g>
		<g>
			<path style="fill-rule:evenodd;clip-rule:evenodd;fill:#018037;" d="M331.929,517.363c-5.355-0.059-11.024-1.093-16.97-2.99
				c-5.94,1.896-11.605,2.93-16.957,2.99v0.001l-0.006-0.001l-0.006,0.001v-0.001c-5.351-0.06-11.015-1.093-16.955-2.989
				c-5.939,1.896-11.604,2.929-16.955,2.989l-0.002,0.001l-0.006-0.001l-0.005,0.001v-0.001c-3.163-0.035-6.439-0.421-9.813-1.114
				c11.397,5.748,24.588,9.589,39.421,10.605c1.3,0.125,2.618,0.205,3.939,0.257v0.013c1.345-0.052,2.685-0.133,4.008-0.26
				c14.63-1.003,27.663-4.752,38.954-10.369c-2.966,0.548-5.849,0.821-8.648,0.852V517.363z"/>
			<path style="fill-rule:evenodd;clip-rule:evenodd;fill:#018037;" d="M264.075,515.64c5.447-0.05,11.1-1.138,16.95-3.226v-0.008
				c0.004,0.002,0.014,0.003,0.014,0.003s0.004-0.001,0.008-0.003v0.008c5.85,2.089,11.502,3.177,16.95,3.226
				c5.449-0.05,11.102-1.138,16.954-3.228v-0.006l0.009,0.003l0.009-0.003v0.006c5.849,2.089,11.5,3.178,16.948,3.228v-0.016
				c4.788-0.043,9.842-0.929,14.943-2.551c6.884-4.099,13.01-8.919,18.308-14.265c-4.358,0.984-8.567,1.528-12.604,1.571v0.001
				h-0.008h-0.005l-0.001-0.001c-5.686-0.06-11.705-1.093-18.017-2.988c-6.312,1.895-12.332,2.928-18.018,2.988l-0.002,0.001h-0.008
				h-0.005v-0.001c-5.686-0.06-11.707-1.093-18.02-2.989c-6.313,1.896-12.333,2.929-18.02,2.989v0.001h-0.006h-0.008v-0.001
				c-5.686-0.06-11.705-1.093-18.017-2.988c-6.312,1.895-12.331,2.928-18.018,2.988l-0.002,0.001h-0.006h-0.006
				c-4.709-0.05-9.649-0.778-14.793-2.1c5.205,5.339,11.231,10.167,18.002,14.293C253.283,514.55,258.777,515.591,264.075,515.64z"
				/>
			<path style="fill-rule:evenodd;clip-rule:evenodd;fill:#018037;" d="M364.433,483.352h-0.007
				c-5.264-0.06-10.837-1.094-16.68-2.989c-5.843,1.896-11.417,2.929-16.681,2.989h-0.006h-0.006
				c-5.265-0.06-10.838-1.094-16.683-2.989c-5.845,1.896-11.418,2.929-16.683,2.989h-0.006h-0.007
				c-5.263-0.06-10.837-1.094-16.68-2.989c-5.843,1.896-11.416,2.929-16.681,2.989h-0.006H264.3
				c-5.264-0.06-10.836-1.093-16.679-2.988c-5.843,1.895-11.415,2.928-16.678,2.988h-0.008h-0.006
				c-4.585-0.052-9.405-0.844-14.433-2.3c2.96,5.124,6.565,10.03,10.708,14.631c5.926,1.914,11.664,2.924,17.199,2.972
				c5.789-0.05,11.796-1.138,18.012-3.227l0.005-0.006c0,0,0.004,0.001,0.008,0.003l0.011-0.004v0.008
				c6.217,2.089,12.224,3.177,18.013,3.227c5.79-0.05,11.799-1.138,18.017-3.228v-0.006l0.01,0.003l0.01-0.003l-0.001,0.006
				c6.219,2.089,12.227,3.178,18.018,3.228c5.789-0.05,11.796-1.138,18.013-3.227l0.004-0.006c0,0,0.004,0.001,0.008,0.003
				l0.011-0.004v0.008c6.217,2.089,12.224,3.177,18.012,3.227c4.824-0.041,9.803-0.82,14.926-2.283
				c4.405-4.791,8.212-9.927,11.318-15.3c-5.001,1.442-9.797,2.228-14.358,2.28H364.433z"/>
		</g>
		<g>
			<polygon style="fill-rule:evenodd;clip-rule:evenodd;fill:#C8850E;" points="298.883,382.307 301.522,395.326 303.835,391.804 
				304.577,395.974 309.066,389.766 307.446,397.133 311.473,394.214 309.899,398.476 321.1,390.415 313.74,400.236 
				316.795,399.264 314.62,402.832 320.868,401.395 317.211,405.38 319.618,405.565 316.008,408.855 330.125,410.337 
				318.693,412.978 320.775,414.368 316.193,415.34 321.47,419.14 315.222,418.352 317.259,420.808 314.157,420.808 
				323.413,431.279 311.426,423.078 310.824,423.356 311.287,426.877 308.279,424.653 307.632,424.7 309.02,431.557 
				305.179,426.831 304.623,430.074 301.476,426.321 300.272,438.089 298.282,427.387 297.356,426.831 295.783,430.677 
				295.273,425.997 290.368,432.576 291.71,424.237 289.026,426.46 289.165,423.17 278.427,431.372 286.711,421.41 282.916,421.41 
				284.907,418.306 278.52,419.418 283.379,415.805 279.306,414.739 283.147,412.33 268.106,410.245 283.796,408.623 
				280.556,406.815 284.629,406.445 277.224,401.303 283.981,402.183 282.73,400.143 286.573,400.746 277.871,390.369 
				289.488,398.245 288.655,394.863 291.941,396.948 290.46,389.998 295.736,395.974 296.199,392.453 298.143,394.816 
				298.883,382.307 			"/>
		</g>
		<g>
			<path style="fill-rule:evenodd;clip-rule:evenodd;fill:#E54F13;" d="M375.523,450.47v-64.162c6.558-2.254,3.107-9.435-2.006-5.88
				l-1.292-1.992l-4.534,1.133c-2.217-2.586-4.632-1.796-7.139,0.525c-2.42-0.644-2.514-2.641-5.232,1.884
				c-0.305,1.57,1.263,2.817,4.702,3.733c3.346,42.837-8.899,81.829-62.337,86.154v-0.004c-53.498-4.297-65.754-43.305-62.406-86.16
				c3.438-0.916,5.007-2.163,4.701-3.734c-2.718-4.524-2.812-2.528-5.232-1.883c-2.507-2.323-4.921-3.112-7.139-0.526l-4.533-1.133
				l-1.293,1.992c-5.113-3.556-8.563,3.626-2.006,5.879v64.162h-13.362c0.907,9.512,3.909,19.161,8.788,28.266
				c5.42,1.871,10.667,2.857,15.733,2.904c5.359-0.05,10.919-1.137,16.673-3.226v-0.008l0.013,0.004l0.013-0.004v0.008
				c5.754,2.089,11.314,3.175,16.673,3.226c5.36-0.05,10.921-1.138,16.676-3.227l0.004-0.006c0,0,0.003,0.001,0.007,0.003
				c0.003-0.001,0.011-0.003,0.011-0.003v0.007c5.755,2.089,11.316,3.177,16.676,3.227c5.361-0.05,10.924-1.138,16.68-3.228
				l0.003-0.005l0.006,0.002c0.003-0.001,0.009-0.003,0.009-0.003v0.006c5.757,2.09,11.319,3.178,16.68,3.228
				c5.359-0.05,10.921-1.138,16.676-3.227l0.003-0.006c0,0,0.004,0.001,0.008,0.003l0.011-0.003v0.007
				c5.755,2.089,11.316,3.177,16.676,3.227c5.041-0.047,10.264-1.026,15.656-2.878c4.884-9.109,7.889-18.764,8.796-28.281H375.523z"
				/>
			<g>
				<polygon style="fill-rule:evenodd;clip-rule:evenodd;fill:#E54F13;" points="242.684,345.417 235.143,345.417 235.143,330.315 
					235.059,330.315 227.533,301.835 227.521,301.835 227.521,301.768 227.41,301.768 219.866,330.315 219.801,330.315 
					219.801,345.417 212.357,345.417 212.357,353.137 219.801,359.722 219.801,374.622 227.423,374.622 227.521,374.622 
					235.143,374.622 235.143,359.809 242.684,353.137 242.684,345.417 				"/>
			</g>
			<g>
				<polygon style="fill-rule:evenodd;clip-rule:evenodd;fill:#E54F13;" points="382.986,345.498 375.444,345.498 375.444,330.396 
					375.36,330.396 367.835,301.916 367.822,301.916 367.822,301.849 367.712,301.849 360.168,330.396 360.102,330.396 
					360.102,345.498 352.659,345.498 352.659,353.218 360.102,359.803 360.102,374.703 367.724,374.703 367.822,374.703 
					375.444,374.703 375.444,359.89 382.986,353.218 382.986,345.498 				"/>
			</g>
		</g>
		<path style="fill-rule:evenodd;clip-rule:evenodd;" d="M206.152,293.602v156.51l0.005,0.129h-0.016l0.026,0.276
			c0.001,0.005,0.001,0.01,0.002,0.015l0.007,0.169h0.013c0.963,9.807,4.161,19.665,9.186,28.842l-0.028-0.008l0.302,0.544
			c0.041,0.073,0.088,0.141,0.129,0.214c0.821,1.463,1.698,2.904,2.611,4.328c0.191,0.297,0.384,0.592,0.579,0.887
			c1.988,3.018,4.18,5.935,6.563,8.725c0.03,0.035,0.06,0.071,0.09,0.106c1.929,2.251,3.966,4.428,6.135,6.495
			c16.325,15.555,37.731,24.652,61.902,26.31c1.145,0.109,2.36,0.19,3.709,0.247v0.034l0.262-0.01
			c1.475-0.057,2.79-0.144,4.016-0.262c24.178-1.657,45.585-10.754,61.908-26.308c14.487-13.804,23.798-32.07,25.568-50.143h0.059
			V293.602H206.152z M301.574,526.606c-1.2,0.111-2.473,0.199-3.895,0.25h-0.073c-1.096-0.051-2.532-0.125-3.938-0.257
			c-13.707-0.942-26.634-4.458-38.184-10.088c2.942,0.542,5.811,0.856,8.589,0.887v0.001l0.005-0.001l0.006,0.001l0.002-0.001
			c5.351-0.06,11.015-1.093,16.955-2.989c5.939,1.896,11.604,2.929,16.955,2.989v0.001l0.006-0.001l0.006,0.001v-0.001
			c5.351-0.06,11.017-1.094,16.957-2.99c5.945,1.898,11.615,2.932,16.97,2.99v-0.017c2.427-0.027,4.928-0.274,7.479-0.685
			C327.951,522.223,315.145,525.677,301.574,526.606z M357.879,505.016c-0.158,0.128-0.309,0.262-0.467,0.389
			c-0.665,0.537-1.354,1.057-2.038,1.579c-0.934,0.706-1.873,1.404-2.836,2.076c-0.285,0.2-0.564,0.405-0.852,0.603
			c-1.994,1.358-4.065,2.619-6.173,3.828c-4.639,1.358-9.227,2.127-13.591,2.166v0.016c-5.447-0.05-11.098-1.139-16.948-3.228
			v-0.006l-0.009,0.003l-0.009-0.003v0.006c-5.852,2.09-11.505,3.179-16.954,3.228c-5.448-0.05-11.1-1.138-16.95-3.226v-0.008
			c-0.004,0.002-0.008,0.003-0.008,0.003s-0.01-0.001-0.014-0.003v0.008c-5.85,2.089-11.503,3.177-16.95,3.226
			c-4.89-0.044-9.955-0.971-15.17-2.663c-0.151-0.089-0.31-0.167-0.46-0.257c-0.117-0.07-0.238-0.137-0.355-0.208
			c-1.386-0.833-2.738-1.713-4.073-2.611c-0.867-0.59-1.715-1.196-2.555-1.809c-0.274-0.198-0.546-0.398-0.817-0.599
			c-3.755-2.807-7.213-5.847-10.38-9.061c4.904,1.215,9.627,1.899,14.132,1.947h0.006h0.006l0.002-0.001
			c5.686-0.06,11.706-1.093,18.018-2.988c6.312,1.895,12.331,2.928,18.017,2.988v0.001h0.008h0.006v-0.001
			c5.687-0.06,11.707-1.093,18.02-2.989c6.312,1.896,12.333,2.929,18.02,2.989v0.001h0.005h0.008l0.002-0.001
			c5.686-0.06,11.706-1.093,18.018-2.988c6.312,1.895,12.331,2.928,18.017,2.988l0.001,0.001h0.005h0.008v-0.001
			c3.84-0.04,7.839-0.547,11.97-1.442C362.439,501.065,360.23,503.091,357.879,505.016z M377.252,483.016
			c-2.932,4.727-6.412,9.276-10.387,13.549c-4.903,1.35-9.676,2.085-14.304,2.125c-5.788-0.05-11.795-1.138-18.012-3.227v-0.008
			l-0.011,0.004c-0.004-0.001-0.008-0.003-0.008-0.003l-0.004,0.006c-6.217,2.089-12.224,3.177-18.013,3.227
			c-5.791-0.05-11.799-1.138-18.018-3.228l0.001-0.006l-0.01,0.003l-0.01-0.003v0.006c-6.218,2.089-12.227,3.178-18.017,3.228
			c-5.789-0.05-11.797-1.138-18.013-3.227v-0.008l-0.011,0.004c-0.004-0.001-0.008-0.003-0.008-0.003l-0.005,0.006
			c-6.216,2.089-12.223,3.177-18.012,3.227c-5.33-0.046-10.851-1.005-16.543-2.783c-4.215-4.623-7.838-9.564-10.849-14.687
			c4.841,1.361,9.49,2.116,13.917,2.166h0.006h0.008c5.263-0.06,10.836-1.093,16.678-2.988c5.843,1.895,11.415,2.928,16.679,2.988
			h0.006h0.006c5.265-0.06,10.837-1.093,16.681-2.989c5.843,1.895,11.417,2.929,16.68,2.989h0.007h0.006
			c5.265-0.06,10.838-1.093,16.683-2.989c5.845,1.895,11.417,2.929,16.683,2.989h0.006h0.006c5.264-0.06,10.837-1.093,16.681-2.989
			c5.843,1.895,11.416,2.929,16.68,2.989h0.007h0.006c4.41-0.051,9.044-0.801,13.866-2.153c-0.244,0.42-0.484,0.841-0.739,1.259
			C377.466,482.668,377.359,482.842,377.252,483.016z M379.615,478.932c-5.221,1.747-10.285,2.686-15.176,2.732
			c-5.36-0.05-10.921-1.138-16.676-3.227v-0.007l-0.011,0.003c-0.004-0.001-0.008-0.003-0.008-0.003l-0.003,0.006
			c-4.154,1.508-8.203,2.475-12.152,2.926l-0.021-0.011l-0.273,0.029l-0.11,0.037c-0.004,0.003-0.01,0.004-0.014,0.007
			c-1.381,0.145-2.75,0.226-4.106,0.239c-5.361-0.05-10.924-1.138-16.68-3.228v-0.006c0,0-0.006,0.001-0.009,0.003l-0.006-0.002
			l-0.003,0.005c-5.757,2.09-11.319,3.178-16.68,3.228c-1.639-0.015-3.304-0.161-4.981-0.369l-0.001-0.001l-0.002,0.001
			c-3.805-0.473-7.699-1.407-11.693-2.857v-0.007c0,0-0.008,0.002-0.011,0.003c-0.004-0.001-0.007-0.003-0.007-0.003l-0.004,0.006
			c-1.755,0.637-3.485,1.148-5.204,1.598l-0.003-0.001l-0.001,0.002c-3.916,1.025-7.744,1.593-11.468,1.628
			c-3.595-0.034-7.289-0.575-11.063-1.532l-0.043-0.047l-0.068,0.02c-1.815-0.464-3.643-0.994-5.499-1.668v-0.008l-0.013,0.004
			l-0.013-0.004v0.008c-5.754,2.089-11.314,3.175-16.673,3.226c-4.915-0.046-10.004-0.993-15.252-2.757
			c-4.994-9.158-8.057-18.805-8.99-28.161h13.336v-64.594l-0.171-0.059c-2.857-0.982-3.613-2.872-3.392-4.191
			c0.213-1.277,1.285-2.168,2.606-2.168c0.807,0,1.695,0.32,2.566,0.926l0.214,0.149l1.337-2.059l4.51,1.127l0.101-0.119
			c1.899-2.214,3.98-2.043,6.776,0.546l0.103,0.094l0.134-0.035c0.623-0.166,1.105-0.421,1.492-0.625
			c0.383-0.204,0.686-0.364,0.969-0.364c0.588,0,1.303,0.788,2.466,2.718c0.235,1.392-1.287,2.534-4.527,3.397l-0.173,0.047
			l-0.014,0.178c-1.881,24.09,1.456,43.498,9.922,57.689c10.157,17.029,27.813,26.691,52.484,28.724v0.045l0.273-0.022
			c24.765-2.004,42.482-11.68,52.66-28.758c8.455-14.188,11.789-33.591,9.908-57.668l-0.013-0.179l-0.173-0.046
			c-3.238-0.863-4.76-2.006-4.526-3.398c1.164-1.93,1.879-2.718,2.466-2.718c0.283,0,0.586,0.16,0.969,0.362
			c0.387,0.205,0.868,0.46,1.493,0.626l0.134,0.035l0.103-0.094c2.796-2.59,4.877-2.761,6.775-0.546l0.102,0.118l4.51-1.127
			l1.336,2.06l0.214-0.15c0.871-0.605,1.759-0.926,2.567-0.926c1.32,0,2.391,0.892,2.605,2.169c0.22,1.319-0.536,3.208-3.392,4.19
			l-0.172,0.059v64.596h13.337C387.679,460.118,384.614,469.77,379.615,478.932z M388.675,450.194h-12.893v-63.673
			c3.014-1.102,3.804-3.205,3.556-4.691c-0.255-1.526-1.531-2.591-3.103-2.591c-0.856,0-1.741,0.293-2.638,0.871l-1.251-1.928
			l-4.56,1.139c-2.022-2.257-4.384-2.122-7.294,0.526c-0.505-0.15-0.901-0.359-1.254-0.546c-0.428-0.227-0.797-0.422-1.206-0.422
			c-0.826,0-1.59,0.786-2.922,3.002l-0.031,0.082c-0.329,1.691,1.256,3.029,4.711,3.979c1.842,23.887-1.473,43.13-9.853,57.192
			c-10.083,16.919-27.652,26.511-52.221,28.509h-0.004c-24.619-1.978-42.223-11.566-52.324-28.498
			c-8.389-14.065-11.708-33.313-9.865-57.213c3.455-0.95,5.041-2.288,4.712-3.98l-0.032-0.082c-1.331-2.217-2.096-3.003-2.923-3.003
			c-0.408,0-0.777,0.196-1.206,0.422c-0.353,0.187-0.748,0.396-1.253,0.546c-2.909-2.646-5.272-2.783-7.295-0.525l-4.559-1.14
			l-1.251,1.928c-0.888-0.571-1.796-0.872-2.638-0.872c-1.573,0-2.85,1.066-3.105,2.591c-0.248,1.486,0.541,3.589,3.556,4.692
			v63.683h-12.872V294.106h182.018V450.194z"/>
		<g>
			<g>
				<path style="fill-rule:evenodd;clip-rule:evenodd;fill:#018037;" d="M348.617,419.792c1.064,0.402,1.48,0.976,1.136,2.203
					c-2.165,7.712-6.597,14.204-12.195,19.588c-0.115,0.112-0.259,0.21-0.395,0.31c-0.551,0.405-1.055,1.122-1.834,0.508
					c-0.663-0.522-0.399-1.067,0.255-1.65c5.39-4.808,9.221-10.576,11.818-17.359C347.846,422.233,347.965,420.958,348.617,419.792
					L348.617,419.792z"/>
			</g>
			<g>
				<path style="fill-rule:evenodd;clip-rule:evenodd;fill:#018037;" d="M282.428,448.839c1.829,0.325,4.674,2.575,4.972,4.365
					c0.228,1.376-4.077,2.412-6.35,1.366c-2.73-1.256-4.157-3.307-5.806-5.196c-0.367-0.42-0.188-0.637,0.362-0.641
					C277.674,448.719,279.559,448.269,282.428,448.839L282.428,448.839z"/>
			</g>
			<g>
				<path style="fill-rule:evenodd;clip-rule:evenodd;fill:#018037;" d="M310.318,461.234c-2.43,0.348-2.445,0.28-1.986-1.243
					c0.884-2.928,2.814-5.386,5.859-6.311c2.47-0.75,3.178-0.683,3.42,1.218C318.32,459.132,313.693,460.874,310.318,461.234
					L310.318,461.234z"/>
			</g>
			<g>
				<path style="fill-rule:evenodd;clip-rule:evenodd;fill:#018037;" d="M303.364,455.572c3.111-0.225,3.612,0.096,2.954,2.17
					c-1.317,4.148-6.562,4.784-10.234,4.117c-0.75-0.137-1.086-0.336-1.003-0.864C296.249,457.752,300.165,455.96,303.364,455.572
					L303.364,455.572z"/>
			</g>
			<g>
				<path style="fill-rule:evenodd;clip-rule:evenodd;fill:#018037;" d="M325.264,449.422c1.324-0.616,1.885-0.229,2.229,0.64
					c2.087,4.448-2.27,6.862-5.745,8.217c-0.715,0.279-1.687,0.526-1.623-0.381c0.137-1.962-0.015-3.938,1.438-5.828
					C322.457,450.906,323.716,450.07,325.264,449.422L325.264,449.422z"/>
			</g>
			<g>
				<path style="fill-rule:evenodd;clip-rule:evenodd;fill:#018037;" d="M336.102,444.96c2.415,2.74-0.017,5.81-2.461,7.333
					c-0.752,0.468-1.607,1.496-2.481,1.288c-0.693-0.165-0.696-1.162-0.754-1.864c-0.082-1.006-0.258-1.995-0.181-3.028
					c0.14-1.861,1.524-3.268,3.189-4.621c0.78-0.634,1.523-0.801,2.05,0.017C335.658,444.386,335.886,444.67,336.102,444.96
					L336.102,444.96z"/>
			</g>
			<g>
				<path style="fill-rule:evenodd;clip-rule:evenodd;fill:#018037;" d="M305.785,447.542c3.835-0.519,7.702,0.311,10.162,3.468
					c0.603,0.775,0.482,1.135-0.847,1.493c-2.99,0.806-6.178,0.199-8.666-1.629c-0.521-0.384-1.152-0.73-1.527-1.181
					c-0.497-0.597-1.856-1.04-1.443-1.732C303.784,447.425,305.071,447.694,305.785,447.542L305.785,447.542z"/>
			</g>
			<g>
				<path style="fill-rule:evenodd;clip-rule:evenodd;fill:#018037;" d="M295.982,447.731c4.194,0.156,8.058,1.592,10.038,5.499
					c0.431,0.792,0.07,1.232-1.193,1.334c-2.847,0.234-5.579-0.883-7.655-2.757c-0.892-0.805-1.623-1.697-2.246-2.627
					C293.968,447.752,294.021,447.684,295.982,447.731L295.982,447.731z"/>
			</g>
			<g>
				<path style="fill-rule:evenodd;clip-rule:evenodd;fill:#018037;" d="M320.14,443.444c1.787-1.08,3.413-2.107,5.247-2.645
					c2.414-0.709,5.676-0.297,7.735,1.394c0.321,0.346,0.188,0.655-0.161,0.96c-1.248,1.089-2.796,1.955-4.551,2.119
					C325.555,445.539,322.722,444.67,320.14,443.444L320.14,443.444z"/>
			</g>
			<g>
				<path style="fill-rule:evenodd;clip-rule:evenodd;fill:#018037;" d="M315.774,445.262c3.343-1.163,6.625-0.024,9.304,1.974
					c0.851,0.634,0.187,1.102-0.565,1.449c-2.066,0.953-4.307,1.426-6.58,0.774c-1.995-0.572-3.773-1.415-5.323-2.494
					c-0.646-0.451-0.338-0.572,0.243-0.806C313.829,445.77,314.808,445.43,315.774,445.262L315.774,445.262z"/>
			</g>
			<g>
				<path style="fill-rule:evenodd;clip-rule:evenodd;fill:#018037;" d="M282.788,459.315c1.629-1.672,3.45-2.975,5.846-3.885
					c1.734-0.658,6.02-0.332,6.886,0.466c0.53,0.488-0.879,3.266-2.149,3.884c-1.681,0.817-3.597,1.306-6.122,0.583
					C285.862,459.967,284.421,459.733,282.788,459.315L282.788,459.315z"/>
			</g>
			<g>
				<path style="fill-rule:evenodd;clip-rule:evenodd;fill:#018037;" d="M295.815,453.17c0.258,1.398-0.2,1.68-2.158,1.271
					c-2.817-0.587-5.291-2.322-6.744-4.806c-0.26-0.444-0.502-0.895-0.71-1.348c-0.302-0.653-1.175-1.516-0.495-1.904
					c0.551-0.314,1.678,0.241,2.524,0.509C291.346,447.881,295.176,449.512,295.815,453.17L295.815,453.17z"/>
			</g>
			<g>
				<path style="fill-rule:evenodd;clip-rule:evenodd;fill:#018037;" d="M278.359,458.363c-3.487-1.514-6.884-3.133-9.987-5.112
					c-4.291-2.738-8.309-6.15-11.925-9.855c-0.145-0.148-0.348-0.293-0.445-0.449c-0.371-0.6-1.564-1.406-0.847-1.755
					c0.586-0.286,1.237,0.705,1.689,1.179c6.214,6.536,13.69,11.338,21.965,15.03c0.415,0.185,1.267,0.166,1.133,0.76
					C279.822,458.689,279.123,458.517,278.359,458.363L278.359,458.363z"/>
			</g>
			<g>
				<path style="fill-rule:evenodd;clip-rule:evenodd;fill:#018037;" d="M278.172,455.334c-2.889-1.011-5.619-2.464-8.166-4.104
					c-5.277-3.399-9.961-7.314-14.054-12.002c-0.423-0.485-1.348-1.239-0.585-1.535c0.671-0.262,1.079,0.674,1.44,1.077
					c5.313,5.947,11.686,10.585,18.772,14.304C276.607,453.613,277.358,454.198,278.172,455.334L278.172,455.334z"/>
			</g>
			<g>
				<path style="fill-rule:evenodd;clip-rule:evenodd;fill:#018037;" d="M282.966,445.622c-1.781-0.355-3.302-1.098-4.735-1.852
					c-4.609-2.424-8.835-5.383-12.677-8.895c-0.449-0.411-1.318-0.99-0.755-1.423c0.561-0.431,1.128,0.398,1.553,0.791
					c4.446,4.114,9.57,7.206,15.135,9.739C282.33,444.365,282.781,444.751,282.966,445.622L282.966,445.622z"/>
			</g>
			<g>
				<path style="fill-rule:evenodd;clip-rule:evenodd;fill:#018037;" d="M280.638,446.493c-1.566,0.763-3.111-0.13-4.405-0.844
					c-5.304-2.926-10.02-6.65-14.308-10.97c-0.418-0.421-1.068-0.995-0.447-1.316c0.514-0.266,0.953,0.376,1.297,0.741
					C267.831,439.444,273.892,443.219,280.638,446.493L280.638,446.493z"/>
			</g>
			<g>
				<path style="fill-rule:evenodd;clip-rule:evenodd;fill:#018037;" d="M273.401,449.98c-1.362-0.237-2.297-1.012-3.19-1.624
					c-5.538-3.798-10.43-8.308-14.604-13.564c-0.394-0.497-0.741-1.055-0.262-1.274c0.486-0.223,0.885,0.427,1.159,0.773
					c4.293,5.437,9.43,9.952,15.272,13.7C272.391,448.386,272.768,448.895,273.401,449.98L273.401,449.98z"/>
			</g>
			<g>
				<path style="fill-rule:evenodd;clip-rule:evenodd;fill:#018037;" d="M275.059,446.799c-1.024,0.274-1.83,0.058-2.678-0.458
					c-5.356-3.254-9.946-7.417-14.105-12.174c-0.413-0.472-1.019-1.169-0.565-1.447c0.525-0.322,1.059,0.466,1.423,0.897
					c4.096,4.849,8.947,8.789,14.403,12.091C274.012,445.996,274.448,446.367,275.059,446.799L275.059,446.799z"/>
			</g>
		</g>
		<g>
			<g>
				<path style="fill-rule:evenodd;clip-rule:evenodd;fill:#018037;" d="M250.313,401.508c-1.064-0.402-1.48-0.976-1.137-2.203
					c2.165-7.712,6.597-14.204,12.195-19.588c0.115-0.112,0.26-0.209,0.395-0.309c0.551-0.405,1.055-1.123,1.835-0.509
					c0.663,0.522,0.399,1.067-0.255,1.65c-5.39,4.808-9.221,10.576-11.818,17.358C251.083,399.067,250.965,400.342,250.313,401.508
					L250.313,401.508z"/>
			</g>
			<g>
				<path style="fill-rule:evenodd;clip-rule:evenodd;fill:#018037;" d="M316.502,372.46c-1.83-0.325-4.674-2.575-4.971-4.365
					c-0.229-1.376,4.076-2.411,6.349-1.366c2.729,1.256,4.156,3.307,5.806,5.196c0.367,0.42,0.188,0.637-0.363,0.641
					C321.256,372.581,319.371,373.03,316.502,372.46L316.502,372.46z"/>
			</g>
			<g>
				<path style="fill-rule:evenodd;clip-rule:evenodd;fill:#018037;" d="M288.611,360.066c2.43-0.348,2.445-0.281,1.985,1.242
					c-0.883,2.928-2.813,5.387-5.858,6.311c-2.47,0.75-3.179,0.683-3.421-1.218C280.61,362.167,285.236,360.426,288.611,360.066
					L288.611,360.066z"/>
			</g>
			<g>
				<path style="fill-rule:evenodd;clip-rule:evenodd;fill:#018037;" d="M295.566,365.728c-3.112,0.224-3.613-0.096-2.955-2.17
					c1.318-4.148,6.563-4.784,10.234-4.117c0.75,0.137,1.086,0.336,1.004,0.864C302.681,363.547,298.763,365.341,295.566,365.728
					L295.566,365.728z"/>
			</g>
			<g>
				<path style="fill-rule:evenodd;clip-rule:evenodd;fill:#018037;" d="M273.666,371.877c-1.324,0.616-1.885,0.229-2.229-0.639
					c-2.087-4.449,2.27-6.863,5.744-8.217c0.715-0.279,1.686-0.525,1.623,0.381c-0.138,1.962,0.014,3.938-1.438,5.828
					C276.472,370.394,275.214,371.229,273.666,371.877L273.666,371.877z"/>
			</g>
			<g>
				<path style="fill-rule:evenodd;clip-rule:evenodd;fill:#018037;" d="M262.828,376.339c-2.415-2.74,0.017-5.81,2.461-7.332
					c0.751-0.468,1.607-1.496,2.481-1.288c0.693,0.164,0.696,1.161,0.753,1.864c0.082,1.006,0.258,1.994,0.181,3.027
					c-0.14,1.861-1.524,3.268-3.189,4.621c-0.78,0.634-1.523,0.802-2.05-0.017C263.272,376.914,263.043,376.63,262.828,376.339
					L262.828,376.339z"/>
			</g>
			<g>
				<path style="fill-rule:evenodd;clip-rule:evenodd;fill:#018037;" d="M293.145,373.758c-3.835,0.519-7.702-0.311-10.163-3.468
					c-0.603-0.774-0.482-1.135,0.847-1.493c2.99-0.807,6.179-0.2,8.666,1.629c0.522,0.384,1.152,0.73,1.528,1.181
					c0.497,0.597,1.856,1.04,1.443,1.732C295.147,373.874,293.858,373.605,293.145,373.758L293.145,373.758z"/>
			</g>
			<g>
				<path style="fill-rule:evenodd;clip-rule:evenodd;fill:#018037;" d="M302.947,373.569c-4.193-0.156-8.057-1.591-10.038-5.499
					c-0.431-0.792-0.07-1.231,1.193-1.334c2.848-0.234,5.579,0.883,7.655,2.757c0.892,0.805,1.623,1.698,2.246,2.628
					C304.962,373.548,304.909,373.617,302.947,373.569L302.947,373.569z"/>
			</g>
			<g>
				<path style="fill-rule:evenodd;clip-rule:evenodd;fill:#018037;" d="M278.789,377.856c-1.786,1.08-3.413,2.107-5.247,2.646
					c-2.414,0.708-5.675,0.297-7.735-1.394c-0.32-0.347-0.187-0.655,0.161-0.96c1.248-1.089,2.797-1.955,4.551-2.118
					C273.375,375.761,276.209,376.63,278.789,377.856L278.789,377.856z"/>
			</g>
			<g>
				<path style="fill-rule:evenodd;clip-rule:evenodd;fill:#018037;" d="M283.155,376.037c-3.343,1.163-6.624,0.024-9.304-1.974
					c-0.851-0.634-0.187-1.102,0.565-1.449c2.066-0.953,4.307-1.425,6.58-0.774c1.995,0.572,3.772,1.415,5.322,2.494
					c0.646,0.451,0.338,0.572-0.243,0.806C285.1,375.53,284.122,375.87,283.155,376.037L283.155,376.037z"/>
			</g>
			<g>
				<path style="fill-rule:evenodd;clip-rule:evenodd;fill:#018037;" d="M316.141,361.984c-1.629,1.672-3.45,2.975-5.846,3.885
					c-1.733,0.658-6.02,0.332-6.886-0.466c-0.529-0.488,0.88-3.265,2.149-3.883c1.681-0.818,3.596-1.306,6.123-0.584
					C313.067,361.332,314.508,361.567,316.141,361.984L316.141,361.984z"/>
			</g>
			<g>
				<path style="fill-rule:evenodd;clip-rule:evenodd;fill:#018037;" d="M303.115,368.129c-0.258-1.398,0.2-1.68,2.158-1.271
					c2.817,0.587,5.291,2.322,6.744,4.807c0.26,0.443,0.502,0.895,0.711,1.347c0.302,0.653,1.175,1.516,0.495,1.904
					c-0.551,0.315-1.678-0.241-2.523-0.509C307.584,373.419,303.753,371.788,303.115,368.129L303.115,368.129z"/>
			</g>
			<g>
				<path style="fill-rule:evenodd;clip-rule:evenodd;fill:#018037;" d="M320.57,362.936c3.487,1.514,6.884,3.133,9.988,5.112
					c4.291,2.738,8.309,6.151,11.925,9.855c0.145,0.148,0.348,0.292,0.445,0.449c0.371,0.6,1.565,1.406,0.847,1.756
					c-0.586,0.285-1.237-0.705-1.688-1.18c-6.215-6.536-13.691-11.338-21.965-15.03c-0.415-0.185-1.267-0.166-1.133-0.76
					C319.108,362.611,319.807,362.782,320.57,362.936L320.57,362.936z"/>
			</g>
			<g>
				<path style="fill-rule:evenodd;clip-rule:evenodd;fill:#018037;" d="M320.758,365.965c2.89,1.011,5.619,2.464,8.166,4.104
					c5.277,3.399,9.962,7.314,14.054,12.002c0.423,0.485,1.348,1.239,0.586,1.535c-0.671,0.262-1.079-0.674-1.44-1.077
					c-5.313-5.946-11.687-10.585-18.772-14.304C322.322,367.686,321.572,367.102,320.758,365.965L320.758,365.965z"/>
			</g>
			<g>
				<path style="fill-rule:evenodd;clip-rule:evenodd;fill:#018037;" d="M315.964,375.678c1.78,0.354,3.302,1.097,4.735,1.851
					c4.609,2.424,8.834,5.383,12.677,8.896c0.449,0.41,1.318,0.99,0.754,1.422c-0.561,0.431-1.128-0.398-1.553-0.791
					c-4.445-4.114-9.57-7.206-15.135-9.739C316.6,376.934,316.149,376.548,315.964,375.678L315.964,375.678z"/>
			</g>
			<g>
				<path style="fill-rule:evenodd;clip-rule:evenodd;fill:#018037;" d="M318.292,374.806c1.567-0.763,3.111,0.13,4.405,0.844
					c5.304,2.926,10.02,6.65,14.308,10.97c0.418,0.421,1.068,0.995,0.447,1.317c-0.514,0.265-0.953-0.377-1.298-0.741
					C331.1,381.855,325.038,378.081,318.292,374.806L318.292,374.806z"/>
			</g>
			<g>
				<path style="fill-rule:evenodd;clip-rule:evenodd;fill:#018037;" d="M325.529,371.319c1.361,0.237,2.297,1.012,3.189,1.625
					c5.538,3.798,10.43,8.307,14.604,13.563c0.394,0.497,0.741,1.055,0.263,1.274c-0.486,0.223-0.886-0.426-1.159-0.773
					c-4.293-5.438-9.43-9.952-15.272-13.701C326.54,372.913,326.162,372.405,325.529,371.319L325.529,371.319z"/>
			</g>
			<g>
				<path style="fill-rule:evenodd;clip-rule:evenodd;fill:#018037;" d="M323.87,374.5c1.024-0.274,1.83-0.057,2.678,0.458
					c5.355,3.254,9.946,7.417,14.105,12.174c0.412,0.472,1.018,1.169,0.565,1.447c-0.525,0.321-1.059-0.466-1.422-0.897
					c-4.096-4.849-8.947-8.789-14.404-12.091C324.918,375.303,324.482,374.932,323.87,374.5L323.87,374.5z"/>
			</g>
		</g>
		<g>
			<g>
				<path style="fill-rule:evenodd;clip-rule:evenodd;fill:#FFFFFF;" d="M324.341,486.54c-0.091,0.055-0.152,0.082-0.198,0.121
					c-1.336,1.097-2.614,2.244-4.113,3.198c-0.294,0.186-0.067,0.28,0.091,0.392c0.678,0.477,1.359,0.951,2.032,1.432
					c0.685,0.49,1.365,0.988,2.124,1.539c-0.327-1.092-0.771-2.041-1.495-2.888c-0.23-0.269-0.22-0.478,0.034-0.73
					c0.777-0.769,1.176-1.692,1.523-2.632C324.384,486.847,324.423,486.722,324.341,486.54L324.341,486.54z M310.021,492.453
					c3.105-0.127,5.877-0.925,8.455-2.229c0.306-0.154,0.3-0.263,0.007-0.424c-2.325-1.278-4.707-2.466-7.55-2.757
					c-3.398-0.348-6.522,0.244-9.298,1.959c-0.69,0.426-1.295,0.92-1.9,1.419c-0.154,0.127-0.241,0.218-0.029,0.381
					c1.286,0.988,2.724,1.699,4.534,1.784c0.863,0.041,1.432-0.291,1.807-0.897c0.481-0.778,0.41-1.595,0.168-2.402
					c-0.162-0.54-0.103-0.763,0.452-1.086c0.257-0.149,0.449-0.1,0.515,0.134c0.377,1.327,0.493,2.66-0.19,3.942
					c-0.452,0.848-1.482,1.228-2.603,1.095c-1.833-0.218-3.352-0.955-4.744-1.907c-0.934-0.639-0.973-0.68-0.158-1.424
					c2.138-1.953,4.678-3.397,7.894-3.811c2.874-0.369,5.553,0.217,8.062,1.373c0.914,0.421,1.805,0.877,2.69,1.336
					c0.292,0.151,0.55,0.354,0.798,0.554c0.289,0.233,0.522,0.19,0.813-0.01c1.198-0.824,2.313-1.715,3.306-2.707
					c0.612-0.611,1.209-1.232,1.816-1.847c0.096-0.096,0.176-0.275,0.341-0.227c0.182,0.053,0.155,0.246,0.147,0.384
					c-0.063,1.133-0.325,2.226-0.906,3.265c-0.257,0.459-0.516,0.915-0.925,1.297c-0.237,0.22-0.227,0.4-0.019,0.645
					c0.967,1.137,1.623,2.383,1.835,3.772c0.022,0.141,0.119,0.336-0.025,0.408c-0.211,0.105-0.32-0.116-0.451-0.213
					c-1.623-1.205-3.185-2.467-4.919-3.57c-0.401-0.255-0.694-0.303-1.151-0.052c-2.634,1.452-5.49,2.463-8.654,2.81
					c-0.587,0.064-1.183,0.08-1.776,0.107c-0.309,0.013-0.445-0.082-0.228-0.33c0.011-0.012,0.026-0.023,0.03-0.036
					C308.449,492.318,309.22,492.293,310.021,492.453L310.021,492.453z"/>
			</g>
			<g>
				<path style="fill-rule:evenodd;clip-rule:evenodd;fill:#FFFFFF;" d="M303.422,490.546c-0.504-0.013-0.794-0.272-0.77-0.688
					c0.017-0.283,0.464-0.572,0.856-0.551c0.445,0.023,0.731,0.281,0.722,0.652C304.221,490.361,303.948,490.559,303.422,490.546
					L303.422,490.546z"/>
			</g>
		</g>
		<g>
			<g>
				<path style="fill-rule:evenodd;clip-rule:evenodd;fill:#FFFFFF;" d="M272.31,504.443c0.346,0.941,0.745,1.864,1.523,2.633
					c0.255,0.252,0.265,0.461,0.035,0.73c-0.724,0.846-1.168,1.794-1.495,2.888c0.759-0.551,1.437-1.048,2.124-1.539
					c0.673-0.481,1.353-0.955,2.032-1.432c0.158-0.112,0.384-0.205,0.091-0.392c-1.5-0.954-2.778-2.101-4.114-3.199
					c-0.047-0.038-0.107-0.065-0.198-0.12C272.225,504.194,272.264,504.319,272.31,504.443L272.31,504.443z M288.479,510.659
					c0.004,0.013,0.019,0.024,0.029,0.035c0.218,0.248,0.082,0.343-0.228,0.33c-0.593-0.026-1.188-0.042-1.776-0.106
					c-3.164-0.348-6.019-1.358-8.653-2.81c-0.458-0.251-0.751-0.204-1.152,0.052c-1.734,1.103-3.295,2.365-4.919,3.57
					c-0.131,0.097-0.24,0.318-0.45,0.213c-0.144-0.072-0.047-0.268-0.026-0.408c0.212-1.39,0.868-2.635,1.835-3.773
					c0.208-0.244,0.217-0.424-0.019-0.645c-0.409-0.381-0.669-0.837-0.926-1.297c-0.58-1.038-0.843-2.131-0.906-3.264
					c-0.008-0.139-0.034-0.332,0.147-0.384c0.165-0.049,0.245,0.131,0.341,0.227c0.607,0.615,1.204,1.236,1.817,1.847
					c0.994,0.992,2.108,1.883,3.306,2.707c0.292,0.2,0.525,0.242,0.814,0.01c0.248-0.2,0.506-0.402,0.798-0.553
					c0.886-0.459,1.778-0.915,2.691-1.336c2.509-1.156,5.189-1.743,8.062-1.373c3.217,0.414,5.757,1.858,7.894,3.81
					c0.816,0.745,0.777,0.785-0.157,1.424c-1.392,0.953-2.911,1.69-4.744,1.907c-1.121,0.133-2.151-0.246-2.603-1.095
					c-0.683-1.282-0.567-2.614-0.19-3.941c0.066-0.234,0.258-0.283,0.516-0.134c0.556,0.324,0.615,0.545,0.452,1.086
					c-0.242,0.807-0.313,1.624,0.168,2.402c0.374,0.606,0.943,0.938,1.806,0.897c1.811-0.086,3.248-0.797,4.535-1.784
					c0.212-0.163,0.125-0.255-0.029-0.382c-0.606-0.499-1.21-0.993-1.9-1.419c-2.775-1.714-5.9-2.306-9.298-1.958
					c-2.843,0.291-5.224,1.479-7.55,2.756c-0.292,0.161-0.298,0.269,0.007,0.424c2.578,1.304,5.35,2.102,8.455,2.23
					C287.428,509.765,288.199,509.789,288.479,510.659L288.479,510.659z"/>
			</g>
			<g>
				<path style="fill-rule:evenodd;clip-rule:evenodd;fill:#FFFFFF;" d="M293.226,508.018c0.503-0.013,0.794-0.273,0.77-0.688
					c-0.017-0.283-0.463-0.572-0.855-0.551c-0.445,0.023-0.731,0.281-0.722,0.651C292.427,507.833,292.701,508.031,293.226,508.018
					L293.226,508.018z"/>
			</g>
		</g>
		<g>
			<path d="M244.53,333.355l0.241,0.19c0.846,0.656,1.863,1.19,2.95,1.19c0.466,0,1.207-0.19,1.207-0.776
				c0-0.588-0.621-0.639-1.052-0.726l-0.949-0.171c-1.844-0.328-3.395-1.415-3.395-3.449c0-3.086,2.809-4.81,5.637-4.81
				c1.483,0,2.844,0.361,4.121,1.137l-1.277,3.329c-0.809-0.553-1.724-0.984-2.741-0.984c-0.413,0-1.017,0.157-1.017,0.691
				c0,0.483,0.586,0.551,0.949,0.637l1.068,0.241c2.001,0.448,3.449,1.518,3.449,3.725c0,3.102-2.828,4.637-5.639,4.637
				c-1.638,0-3.533-0.448-5-1.188L244.53,333.355z M246.202,340.787l2.741-2.518l1.656,1.415l-2.655,2.62L246.202,340.787z"/>
			<path d="M259.024,338.011h-5l4.517-13.001h5.225l4.639,13.001h-5.002l-0.431-1.621h-3.568L259.024,338.011z M262.145,333.304
				l-0.551-2.294c-0.138-0.551-0.225-1.12-0.311-1.673h-0.171l-0.862,3.966H262.145z"/>
			<path d="M269.329,325.01h4.534l4.243,7.207h0.138c-0.19-1.085-0.398-2.207-0.398-3.311v-3.896h4.519v13.001h-4.519l-4.154-6.827
				h-0.138c0.155,0.895,0.293,1.741,0.293,2.603v4.224h-4.517V325.01z"/>
			<path d="M284.444,325.01h4.726v8.828h3.964v4.173h-8.69V325.01z"/>
			<path d="M294.471,325.01h4.723v13.001h-4.723V325.01z"/>
			<path d="M313.358,325.01v7.69c0,3.793-2.38,5.518-6.019,5.518c-3.639,0-6.017-1.724-6.017-5.518v-7.69h4.723v7.242
				c0,1.017,0.035,1.914,1.293,1.914c1.258,0,1.293-0.897,1.293-1.914v-7.242H313.358z"/>
			<path d="M315.454,325.01h5.707c2.931,0,5.414,1.242,5.414,4.517c0,1.966-0.759,2.793-2.516,3.381v0.103
				c0.241,0.19,0.534,0.396,0.792,0.776l2.828,4.224h-5.447l-2.071-4.173h-0.085v4.173h-4.622V325.01z M320.077,330.769h0.326
				c0.778,0,1.553-0.12,1.553-1.087c0-0.998-0.707-1.12-1.518-1.12h-0.361V330.769z"/>
			<path d="M328.517,325.01h8.709v3.725h-3.95v1.345h3.467v3.379h-3.467v4.552h-4.759V325.01z"/>
			<path d="M342.733,338.011h-5l4.517-13.001h5.225l4.639,13.001h-5.002l-0.431-1.621h-3.568L342.733,338.011z M345.854,333.304
				l-0.551-2.294c-0.138-0.551-0.225-1.12-0.311-1.673h-0.171l-0.862,3.966H345.854z"/>
		</g>
		<g>
			<g>
				<path d="M202.949,465.285l1.409,5.891c0.646,2.698,0.716,5.588-2.207,6.283c-1.108,0.264-2.345-0.085-2.989-1.219l-0.101,0.023
					c-0.124,1.632-0.901,2.83-2.413,3.191c-2.603,0.619-4.129-1.828-4.711-4.266l-1.648-6.889L202.949,465.285z M194.432,472.271
					l0.138,0.571c0.198,0.831,0.501,2.028,1.543,1.78c1.058-0.252,0.732-1.541,0.538-2.353l-0.12-0.499L194.432,472.271z
					 M199.312,471.597c0.177,0.738,0.441,1.553,1.316,1.347c0.941-0.225,0.648-1.151,0.47-1.889l-0.083-0.351l-1.815,0.431
					L199.312,471.597z"/>
				<path d="M211.962,490.338l-6.928,3.35c-3.418,1.652-6.11,0.041-7.85-3.568c-1.741-3.612-1.326-6.724,2.092-8.376l6.928-3.35
					l2.261,4.69l-6.526,3.154c-0.916,0.441-1.708,0.866-1.106,2.116s1.427,0.893,2.343,0.45l6.526-3.154L211.962,490.338z
					 M210.828,482.741c-0.716,0.347-1.594-0.01-1.974-0.796c-0.38-0.788-0.111-1.7,0.604-2.044c0.714-0.347,1.594,0.01,1.974,0.796
					C211.812,481.485,211.542,482.397,210.828,482.741z M212.833,486.9c-0.716,0.347-1.594-0.008-1.974-0.796
					c-0.38-0.788-0.111-1.698,0.604-2.044c0.714-0.344,1.594,0.01,1.974,0.798C213.817,485.643,213.546,486.555,212.833,486.9z"/>
				<path d="M215.772,495.614l-1.778,3.313l0.091,0.122c0.425-0.126,0.835-0.266,1.269-0.351l2.358-0.476l3.494,4.695l-8.871,0.491
					l-4.505,3.352l-3.04-4.084l4.505-3.352l2.962-8.434L215.772,495.614z"/>
				<path d="M231.306,512.444l-5.289,5.592c-2.609,2.758-5.699,2.211-8.61-0.545c-2.91-2.754-3.628-5.808-1.019-8.566l5.289-5.592
					l3.781,3.577l-4.981,5.266c-0.701,0.738-1.289,1.417-0.283,2.37c1.007,0.953,1.652,0.328,2.351-0.413l4.981-5.266
					L231.306,512.444z M227.548,505.75c-0.547,0.578-1.495,0.559-2.129-0.043c-0.635-0.6-0.707-1.547-0.161-2.122
					c0.545-0.578,1.493-0.559,2.129,0.041C228.022,504.228,228.092,505.175,227.548,505.75z M230.9,508.923
					c-0.547,0.578-1.495,0.557-2.129-0.043c-0.635-0.6-0.707-1.547-0.161-2.125c0.545-0.575,1.495-0.557,2.129,0.043
					C231.374,507.398,231.444,508.345,230.9,508.923z"/>
				<path d="M232.822,513.904l4.208,2.832l-3.247,4.614l0.095,0.064c0.394-0.38,0.922-0.586,1.417-0.813l4.414-2.063l4.711,3.17
					l-7.256,2.75l0.386,8.304l-5.012-3.372l0.148-4.641c0.027-0.584-0.083-1.24,0.122-1.747l-0.093-0.064l-2.952,4.587l-4.208-2.832
					L232.822,513.904z"/>
				<path d="M242.803,530.104l0.157,0.287c0.551,0.996,1.326,1.968,2.403,2.49c0.46,0.223,1.279,0.408,1.533-0.12
					c0.256-0.528-0.336-0.872-0.726-1.157l-0.864-0.613c-1.685-1.18-2.75-2.904-1.863-4.738c1.343-2.78,4.878-2.985,7.679-1.625
					c1.471,0.712,2.661,1.693,3.587,3.005l-2.712,2.384c-0.563-0.887-1.281-1.714-2.287-2.203c-0.41-0.198-1.077-0.349-1.308,0.134
					c-0.21,0.435,0.34,0.778,0.66,1.029l0.955,0.732c1.786,1.363,2.756,3.022,1.795,5.01c-1.353,2.797-4.822,2.822-7.607,1.471
					c-1.621-0.786-3.306-2.102-4.435-3.474L242.803,530.104z M241.223,537.604l3.812-0.951l1.025,2.069l-3.773,1.085
					L241.223,537.604z"/>
				<path d="M256.825,527.462l9.086,3.17l-1.176,3.354l-4.14-1.446l-0.41,1.172l3.781,1.32l-1.118,3.191l-3.781-1.32l-0.423,1.205
					l4.284,1.493l-1.176,3.354l-9.228-3.22L256.825,527.462z"/>
				<path d="M267.922,531.305l4.901,1.073l-0.932,4.282l3.119,0.683l0.932-4.282l4.901,1.073l-2.77,12.708l-4.901-1.07l0.963-4.416
					l-3.119-0.683l-0.963,4.416l-4.901-1.073L267.922,531.305z"/>
				<path d="M283.052,534.209l5.167,0.6l-1.506,12.929l-5.167-0.6L283.052,534.209z M287.441,532.13
					c-0.091,0.79-0.862,1.343-1.731,1.242c-0.866-0.101-1.491-0.817-1.398-1.605c0.093-0.788,0.864-1.343,1.731-1.242
					C286.911,530.626,287.534,531.342,287.441,532.13z"/>
				<path d="M290.424,535.174l6.283,0.054c3.226,0.027,5.951,1.291,5.926,4.567c-0.014,1.966-0.856,2.787-2.797,3.356v0.105
					c0.264,0.192,0.586,0.4,0.868,0.782l3.082,4.251l-6-0.049l-2.246-4.193h-0.095l-0.031,4.173l-5.087-0.043L290.424,535.174z
					 M295.467,540.976l0.361,0.002c0.854,0.008,1.71-0.105,1.716-1.071c0.008-1-0.769-1.128-1.66-1.136l-0.4-0.002L295.467,540.976z
					"/>
				<path d="M312.257,534.339l5.943-1.182c2.719-0.542,5.613-0.501,6.194,2.442c0.223,1.118-0.175,2.339-1.335,2.939l0.021,0.101
					c1.625,0.188,2.795,1.009,3.096,2.533c0.52,2.622-1.984,4.053-4.443,4.542l-6.949,1.382L312.257,534.339z M318.426,538.212
					c0.745-0.148,1.57-0.384,1.394-1.262c-0.188-0.949-1.124-0.691-1.869-0.545l-0.355,0.072l0.363,1.828L318.426,538.212z
					 M318.911,543.109l0.578-0.113c0.839-0.167,2.046-0.425,1.838-1.475c-0.21-1.066-1.512-0.79-2.331-0.627l-0.503,0.101
					L318.911,543.109z"/>
				<path d="M325.689,531.513l9.183-2.908l1.075,3.387l-4.183,1.324l0.375,1.184l3.822-1.211l1.023,3.222l-3.822,1.211l0.386,1.217
					l4.33-1.372l1.077,3.385l-9.329,2.956L325.689,531.513z"/>
				<path d="M336.86,527.831l4.769-2.085l3.548,8.086l4.004-1.749l1.677,3.822l-8.772,3.832L336.86,527.831z"/>
				<path d="M346.71,523.425l8.333-4.82l1.78,3.073l-3.797,2.197l0.621,1.075l3.469-2.007l1.691,2.925l-3.467,2.007l0.639,1.104
					l3.927-2.271l1.78,3.073l-8.465,4.897L346.71,523.425z"/>
				<path d="M356.829,517.538l4.173-3.273c3.783-2.968,7.869-3.738,10.825,0.021c2.389,3.04,1.541,6.819-1.764,9.412l-5.19,4.072
					L356.829,517.538z M366.561,521.488l0.254-0.2c1.361-1.066,1.96-2.459,0.903-3.802c-1.13-1.438-2.523-1.332-4.018-0.161
					l-0.256,0.2L366.561,521.488z"/>
				<path d="M369.867,502.918c0.565,0.557,0.526,1.506-0.089,2.129c-0.613,0.623-1.561,0.674-2.127,0.118
					c-0.565-0.557-0.526-1.506,0.089-2.129C368.355,502.413,369.302,502.361,369.867,502.918z M368.801,507.66l3.657-3.709
					l9.257,9.138l-3.655,3.709L368.801,507.66z"/>
				<path d="M376.81,498.811l3.676,0.788l0.091-0.122c-0.237-0.371-0.487-0.728-0.689-1.12l-1.116-2.131l3.535-4.655l2.943,8.379
					l4.472,3.393l-3.075,4.051l-4.472-3.393l-8.921-0.503L376.81,498.811z"/>
				<path d="M382.497,490.903l4.492-8.515l3.148,1.66l-2.046,3.878l1.099,0.582l1.869-3.544l2.995,1.58l-1.871,3.542l1.13,0.596
					l2.118-4.012l3.148,1.658l-4.565,8.649L382.497,490.903z"/>
				<path d="M396.065,482.3l0.262-0.194c0.912-0.681,1.77-1.58,2.141-2.717c0.159-0.487,0.233-1.322-0.326-1.504
					c-0.557-0.181-0.819,0.452-1.048,0.877l-0.489,0.939c-0.943,1.83-2.508,3.117-4.443,2.486c-2.937-0.957-3.616-4.435-2.648-7.395
					c0.507-1.551,1.318-2.865,2.492-3.96l2.731,2.368c-0.802,0.677-1.526,1.5-1.873,2.566c-0.142,0.433-0.2,1.112,0.307,1.279
					c0.46,0.148,0.726-0.443,0.932-0.796l0.594-1.044c1.112-1.953,2.624-3.139,4.724-2.455c2.954,0.963,3.445,4.4,2.483,7.341
					c-0.559,1.716-1.636,3.562-2.842,4.866L396.065,482.3z"/>
				<path d="M389.411,464.248c0.786,0.113,1.316,0.901,1.19,1.766s-0.858,1.467-1.644,1.353c-0.786-0.113-1.316-0.901-1.19-1.766
					C387.893,464.736,388.625,464.134,389.411,464.248z M391.362,468.695l0.751-5.148l12.879,1.871l-0.751,5.148L391.362,468.695z"
					/>
			</g>
		</g>
		<g>
			<path d="M235.395,345.164v-14.572l-7.939-29.526l-7.908,29.458v14.64h-7.443v8.087l7.443,6.584v15.04h15.847v-14.952l7.542-6.672
				v-8.087H235.395z M242.432,353.023l-7.542,6.671v14.674h-14.836v-14.761l-7.444-6.584v-7.353h7.444v-15.102l7.409-28.008
				l7.352,27.82l0.05,0.188l0.026,15.102h7.542V353.023z"/>
		</g>
		<path style="fill-rule:evenodd;clip-rule:evenodd;" d="M375.697,345.245v-14.573l-7.937-29.606l-7.911,29.513v14.666h-7.443v8.087
			l7.443,6.585v15.039h15.848v-14.952l7.541-6.672v-8.087H375.697z M382.733,353.104l-7.541,6.672v14.674h-14.837v-14.762
			l-7.443-6.584v-7.353h7.443v-15.102l7.409-28.008l7.352,27.82l0.049,0.188l0.026,15.102h7.541V353.104z"/>
	</g>
</g>
</svg>
