<?xml version="1.0" encoding="UTF-8"?>
<svg id="Layer_2" data-name="Layer 2" xmlns="http://www.w3.org/2000/svg" viewBox="0 0 176.46 283.51">
  <defs>
    <style>
      .cls-1 {
        fill: #f37021;
      }

      .cls-2 {
        fill: #ed1164;
      }
    </style>
  </defs>
  <g id="Layer_1-2" data-name="Layer 1">
    <g>
      <path class="cls-2" d="M23.54,0v65.97l7.72,10.4-7.12,10.73s1.08,6.89,3.87,14.41c2.79,7.52,6.03,11.83,6.03,11.83l14.15,2.21,3.46,14.97s4.44,3.78,11.83,6.42c7.39,2.65,12.61,3.46,12.61,3.46l12.87-8.7,13.47,8.5s5.06-.88,12.56-4.13c7.5-3.25,12.06-6.78,12.06-6.78l2.35-13.66,13.29-2.94s4.93-6.8,6.99-13.53c2.07-6.73,3.1-14.26,3.1-14.26l-6.43-8.46,6.58-9.12V0h-48.8v65.93l6.97,1.32-5.96,9.19,6.45,8.6-11.22,2.48-1.78,10.46-9.62-6.1-9.14,6.36-2.42-10.85-10.94-1.62,6.17-9.19-6.32-8.8,7.43-1.57V0H23.54Z"/>
      <polygon class="cls-1" points="23.53 15.36 25.02 15.17 27.67 0 23.53 0 23.53 15.36"/>
      <polygon class="cls-1" points="36.58 26.22 41.07 0 34.68 0 31.26 21.09 23.54 22.7 23.54 28.88 36.58 26.22"/>
      <polygon class="cls-1" points="48.39 37.18 54.74 0 48.31 0 42.62 32.21 23.54 35.98 23.54 42.11 48.39 37.18"/>
      <polygon class="cls-1" points="88.88 99.91 75.08 109.16 71.55 92.96 55.03 90.28 64.49 76.22 54.78 63.23 71.55 59.7 73.74 48.62 73.74 36.35 69.93 33.74 66.15 54.56 43.94 59.16 56.69 76.59 44.34 94.77 65.99 98.36 70.96 119.59 89.04 107.39 108.02 119.27 111.87 98.36 133.9 93.65 121.17 76.43 133.37 58.36 111.6 54.67 107.03 33.38 104.13 35.26 104.13 49.94 106.31 59.91 122.67 62.79 113.25 76.59 122.99 89.59 106.15 93.06 103.25 109 88.88 99.91"/>
      <polygon class="cls-1" points="73.74 11.71 55.36 0 73.74 0 73.74 11.71"/>
      <polygon class="cls-1" points="104.13 10.82 119.69 0 104.13 0 104.13 10.82"/>
      <polygon class="cls-1" points="146.57 21.03 142.01 0 135.58 0 141.23 26.47 152.93 28.32 152.93 21.89 146.57 21.03"/>
      <path class="cls-1" d="M152.93,47.99l-29.72-4.54-7.06-32.32-12.02,8.1v7.63l7.85-5.12,5.8,27,27.9,4.54-15.88,23.53,16.3,21.76-28.23,5.73-4.78,26.62-24.34-15.37-22.91,15.73-6.21-27.1-27.58-4.51,15.82-23.39-16.1-21.98,28.19-5.73,4.72-26.61,9.07,5.79v-7.23l-13.79-8.82-5.69,31.63-30.73,6.3v4.83l16.62,21.85-13.78,20.28c.46,1.56,1,3.21,1.63,4.91.57,1.53,1.16,2.92,1.73,4.17l24.59,3.85,5.89,26.1c1.01.45,2.09.9,3.26,1.32,1.31.47,2.55.88,3.71,1.24l21.79-14.82,22.76,14.02c1.02-.39,2.1-.83,3.25-1.32,1.47-.64,2.81-1.28,4.04-1.91l4.44-24.79,23.99-4.72c.85-1.74,1.65-3.61,2.23-5.49.49-1.59.91-3.22,1.29-4.78l-.02-.07-13.21-17.82,15.18-22.27v-6.24h0Z"/>
      <polygon class="cls-1" points="134.82 32.06 128.12 0 121.49 0 129.62 37.61 152.88 41.2 152.88 34.89 134.82 32.06"/>
      <path class="cls-1" d="M.19,190.83c0,6.99,2.23,12.24,6.7,15.76,3.94,3.1,9.25,4.65,15.92,4.65,7.41,0,13.1-1.8,17.07-5.4,3.97-3.6,5.95-8.95,5.95-16.04v-36.65h-12.06v37.05c0,7.36-3.76,11.03-11.27,11.03-3.21,0-5.71-.98-7.53-2.96-1.81-1.97-2.72-4.79-2.72-8.47v-36.65H.19v37.68H.19ZM84.76,207.28c3.47-2.53,5.2-6.09,5.2-10.69,0-6.17-4.23-10.16-12.69-11.96l-7.65-1.66c-2.05-.42-3.55-.94-4.49-1.54-.95-.61-1.42-1.41-1.42-2.41,0-1.58.82-2.69,2.44-3.33,1.05-.42,2.47-.63,4.26-.63,2.1,0,3.8.39,5.08,1.18,1.29.79,2.09,2.23,2.4,4.34h10.8c0-5.31-2.08-9.09-6.23-11.35-3.05-1.68-7.25-2.52-12.61-2.52-5.94,0-10.4,1.58-13.4,4.73-2.36,2.52-3.55,5.62-3.55,9.3s1.37,6.39,4.1,8.43c2,1.47,5.02,2.65,9.06,3.55l5.12,1.1c2.89.63,4.9,1.25,6.03,1.85,1.13.6,1.7,1.46,1.7,2.56s-.47,1.97-1.42,2.76c-1.21,1-3.07,1.5-5.6,1.5-3.15,0-5.47-.53-6.94-1.58-1.47-1.05-2.21-2.57-2.21-4.57h-11.35c0,4.94,2.02,8.7,6.07,11.27,3.41,2.15,7.72,3.23,12.93,3.23l-3.7,5.67,1.5,1.42c1.1-.37,2.05-.55,2.84-.55s1.44.26,1.97.79c.53.52.79,1.1.79,1.73,0,.89-.34,1.59-1.02,2.09-.68.5-1.5.75-2.44.75-.68,0-1.54-.15-2.56-.43-1.03-.29-1.96-.54-2.8-.75l-1.5,3.39c1.73.68,3.16,1.16,4.3,1.42,1.13.26,2.35.39,3.66.39,2.42,0,4.44-.53,6.07-1.58,1.94-1.26,2.92-3.1,2.92-5.52,0-1.79-.63-3.14-1.89-4.06-1.26-.92-2.76-1.38-4.49-1.38l-1.97.24,2.44-3.63c4.15-.42,7.57-1.61,10.25-3.56h0ZM99.5,170.06c-3.05,2.23-4.84,6-5.36,11.31h10.64c.37-3.89,2.73-5.83,7.09-5.83,2.15,0,3.85.37,5.08,1.1,1.23.74,1.85,1.97,1.85,3.7,0,.84-.24,1.53-.71,2.05-.68.74-1.87,1.21-3.55,1.42l-9.54,1.42c-4.1.63-7.16,2.12-9.18,4.45-2.02,2.34-3.03,5.32-3.03,8.95,0,3.89,1.26,6.94,3.78,9.14,2.36,2.05,5.41,3.07,9.14,3.07,2.73,0,5.15-.47,7.25-1.42,2.1-.95,4.15-2.49,6.15-4.65.1.84.24,1.71.39,2.6.16.89.39,1.68.71,2.36h11.82v-1.66c-.95-.26-1.59-.96-1.93-2.09-.34-1.13-.51-2.74-.51-4.85v-21.99c0-4.41-1.71-7.67-5.12-9.77-2.89-1.78-6.86-2.68-11.9-2.68-5.67,0-10.04,1.12-13.08,3.35h0ZM118.81,195c0,2.1-.93,3.95-2.8,5.56-1.87,1.6-4.16,2.4-6.9,2.4-1.58,0-2.85-.43-3.82-1.3-.97-.87-1.46-2.11-1.46-3.74,0-1.47.42-2.71,1.26-3.71,1.05-1.21,2.71-2,4.97-2.36l3.94-.71c1.05-.16,2.01-.4,2.88-.71s1.51-.68,1.93-1.1v5.68h0ZM137.41,209.74h11.03v-13.24l4.57-4.73,10.01,17.97h13.24l-15.21-25.7,14.82-16.24h-13.56l-13.87,15.92v-30.58h-11.03v56.59h0Z"/>
      <path class="cls-1" d="M0,252.9h13.24c2.98,0,5.44-.82,7.38-2.45,1.94-1.63,2.92-3.84,2.92-6.62,0-1.96-.48-3.55-1.45-4.77-.85-1.08-2.2-1.97-4.04-2.68,1.25-.51,2.23-1.34,2.96-2.49.72-1.15,1.09-2.45,1.09-3.89,0-2.33-.79-4.19-2.36-5.58-1.57-1.39-3.67-2.09-6.28-2.09H0v30.56h0ZM11.66,225.88c1.9,0,3.36.28,4.38.85,1.28.71,1.91,1.9,1.91,3.58,0,1.76-.52,3.03-1.55,3.81-1.04.78-2.66,1.17-4.87,1.17h-7.41v-9.41h7.53ZM12.39,238.65c2.07,0,3.7.35,4.9,1.06,1.42.85,2.13,2.21,2.13,4.09s-.62,3.29-1.87,4.26c-1.14.88-2.62,1.32-4.47,1.32H4.13v-10.72h8.26ZM28.18,233.71c-1.67,2.19-2.51,5.08-2.51,8.68,0,3.35.91,6.04,2.72,8.09,1.82,2.04,4.27,3.07,7.36,3.07,1.22,0,2.31-.11,3.28-.34.97-.23,1.82-.6,2.55-1.11,1.05-.68,1.92-1.58,2.62-2.7.69-1.11,1.17-2.28,1.42-3.51h-3.74c-.2,1.29-.86,2.35-1.98,3.18-1.12.83-2.41,1.25-3.85,1.25-2.24,0-3.9-.73-4.98-2.18-.94-1.26-1.41-2.98-1.41-5.18h16.26c0-3.82-.71-6.84-2.13-9.08-1.65-2.57-4.14-3.86-7.49-3.86-3.55,0-6.26,1.23-8.13,3.7h0ZM40.46,235.12c1.06,1.17,1.6,2.78,1.6,4.84h-12.39c0-1.78.6-3.32,1.81-4.63,1.21-1.31,2.67-1.97,4.41-1.97,1.98,0,3.51.59,4.57,1.76h0ZM49.2,252.9h3.74v-30.56h-3.74v30.56h0ZM58.73,233.71c-1.67,2.19-2.51,5.08-2.51,8.68,0,3.35.91,6.04,2.72,8.09,1.82,2.04,4.27,3.07,7.36,3.07,1.22,0,2.31-.11,3.28-.34.97-.23,1.82-.6,2.55-1.11,1.05-.68,1.92-1.58,2.62-2.7.7-1.11,1.17-2.28,1.43-3.51h-3.75c-.2,1.29-.86,2.35-1.98,3.18-1.12.83-2.41,1.25-3.85,1.25-2.24,0-3.9-.73-4.98-2.18-.94-1.26-1.4-2.98-1.4-5.18h16.26c0-3.82-.71-6.84-2.13-9.08-1.65-2.57-4.14-3.86-7.49-3.86-3.55,0-6.26,1.23-8.13,3.7h0ZM71.01,235.12c1.06,1.17,1.6,2.78,1.6,4.84h-12.39c0-1.78.6-3.32,1.81-4.63,1.21-1.31,2.67-1.97,4.41-1.97,1.99,0,3.51.59,4.57,1.76h0ZM94.4,233.54l-.13.17c-.85-1.22-1.8-2.14-2.85-2.77-1.05-.62-2.31-.94-3.79-.94-3.04,0-5.39,1.16-7.07,3.49-1.45,2.02-2.17,4.57-2.17,7.66,0,3.38.74,6.19,2.21,8.43,1.76,2.64,4.28,3.96,7.58,3.96,2.84,0,4.98-1.23,6.43-3.7v3.06h3.53v-30.56h-3.75v11.19h0ZM93.29,236.47c.74,1.5,1.11,3.52,1.11,6.04,0,2.67-.64,4.68-1.92,6.04-1.08,1.16-2.48,1.74-4.18,1.74-2.16,0-3.77-.98-4.83-2.94-.8-1.5-1.2-3.42-1.2-5.75s.38-4.3,1.15-5.66c.97-1.73,2.61-2.6,4.91-2.6s3.93,1.04,4.96,3.11h0ZM102.15,226.6h3.74v-4.26h-3.74v4.26h0ZM102.15,252.9h3.74v-22.26h-3.74v22.26h0ZM116.2,253.5c-.4.94-.91,2.16-1.53,3.66-.54.99-1.23,1.49-2.09,1.49-.54,0-1-.02-1.38-.06-.38-.04-.79-.15-1.21-.32v3.36c.37.17.68.28.93.32.25.04.62.06,1.1.06,2.57,0,4.41-1.04,5.51-3.11.28-.54,1.19-2.67,2.71-6.39.37-.91,1.1-2.85,2.21-5.84.57-1.53,1.11-3.05,1.65-4.56l4.14-11.49h-4.09s-6.04,18.15-6.04,18.15l-5.92-18.13h-4.26s8.26,22.85,8.26,22.85h0ZM131.69,233.71c-1.67,2.19-2.51,5.08-2.51,8.68,0,3.35.91,6.04,2.72,8.09,1.82,2.04,4.27,3.07,7.36,3.07,1.22,0,2.31-.11,3.28-.34.96-.23,1.82-.6,2.55-1.11,1.05-.68,1.92-1.58,2.62-2.7.7-1.11,1.17-2.28,1.43-3.51h-3.74c-.2,1.29-.86,2.35-1.98,3.18-1.12.83-2.41,1.25-3.85,1.25-2.24,0-3.9-.73-4.98-2.18-.94-1.26-1.41-2.98-1.41-5.18h16.26c0-3.82-.71-6.84-2.13-9.08-1.65-2.57-4.14-3.86-7.49-3.86-3.55,0-6.26,1.23-8.13,3.7h0ZM143.97,235.12c1.06,1.17,1.6,2.78,1.6,4.84h-12.39c0-1.78.6-3.32,1.81-4.63,1.21-1.31,2.67-1.97,4.41-1.97,1.99,0,3.51.59,4.58,1.76h0ZM154.33,231.86c-1.59,1.23-2.38,2.97-2.38,5.21,0,1.28.35,2.35,1.06,3.23.82,1.02,2.13,1.74,3.92,2.17l4.72,1.15c1.59.4,2.69.82,3.3,1.28.61.46.92,1.08.92,1.87,0,1.25-.6,2.19-1.79,2.81-.91.48-2.04.72-3.41.72-1.76,0-3.12-.31-4.09-.94-1.16-.77-1.74-1.97-1.74-3.62h-3.62c0,2.72.88,4.74,2.64,6.04,1.59,1.16,3.87,1.74,6.85,1.74,2.44,0,4.48-.6,6.13-1.79,1.84-1.33,2.77-3.19,2.77-5.58,0-1.53-.43-2.72-1.28-3.58-.99-.99-2.81-1.8-5.45-2.43l-3.66-.89c-1.56-.4-2.6-.84-3.11-1.32-.37-.34-.55-.86-.55-1.58,0-1.11.45-1.91,1.34-2.41.89-.5,1.96-.74,3.21-.74,1.56,0,2.81.28,3.75.85.94.57,1.4,1.53,1.4,2.89h3.66c0-2.33-.87-4.11-2.6-5.36-1.51-1.08-3.49-1.62-5.96-1.62-2.44,0-4.46.62-6.04,1.85h0ZM172.72,226.6h3.74v-4.26h-3.74v4.26h0ZM172.72,252.9h3.74v-22.26h-3.74v22.26h0Z"/>
      <path class="cls-2" d="M66.22,266.62c-.77.83-2.01,1.24-3.72,1.24h-.52v2.53h4.36v12.63h3.61v-18.33h-2.97c0,.74-.26,1.38-.77,1.94h0ZM76.81,266.03c-1.08.9-1.63,2.11-1.63,3.64,0,.79.18,1.51.56,2.14.37.64.92,1.14,1.64,1.5-1,.47-1.71,1.08-2.13,1.83-.42.76-.63,1.65-.63,2.68,0,1.79.58,3.18,1.74,4.18s2.69,1.5,4.58,1.5c2.07,0,3.67-.61,4.83-1.83,1.03-1.08,1.55-2.45,1.55-4.1,0-1.03-.19-1.89-.57-2.56-.43-.76-1.15-1.39-2.14-1.89.71-.34,1.23-.83,1.58-1.47.34-.64.52-1.38.52-2.22,0-1.41-.53-2.56-1.6-3.43s-2.47-1.32-4.21-1.32c-1.64,0-3,.45-4.08,1.34h0ZM82.65,268.24c.39.44.58.97.58,1.59,0,.69-.19,1.24-.58,1.67s-.94.63-1.66.63-1.27-.22-1.7-.67c-.43-.45-.65-1-.65-1.65,0-.69.22-1.23.67-1.63.45-.4,1.03-.59,1.76-.59.67,0,1.2.22,1.59.66h0ZM82.9,275.67c.47.54.7,1.23.7,2.05s-.24,1.54-.71,2.08c-.47.54-1.11.81-1.9.81-.86,0-1.52-.28-1.97-.83-.46-.55-.68-1.25-.68-2.09s.23-1.53.68-2.05c.46-.53,1.09-.79,1.9-.79.86,0,1.52.27,1.99.81h0ZM88.01,268.2h9.11c-1.15,1.26-2.2,2.67-3.12,4.23-1.02,1.72-1.82,3.49-2.4,5.29-.34,1.1-.59,1.96-.72,2.58-.19.9-.28,1.8-.28,2.71h3.72c0-2.31.61-4.88,1.83-7.72.57-1.33,1.27-2.65,2.1-3.96.83-1.32,1.75-2.5,2.75-3.55v-2.79h-12.91l-.08,3.2h0ZM102.88,267.73c-.74,1.46-1.11,3.58-1.11,6.35,0,1.77.14,3.24.41,4.41.36,1.53.98,2.72,1.86,3.56,1,.96,2.36,1.45,4.08,1.45,2.48,0,4.23-1.02,5.24-3.07.74-1.5,1.11-3.62,1.11-6.38s-.38-4.85-1.14-6.35c-1.02-2.01-2.75-3.02-5.22-3.02-2.48,0-4.23,1.02-5.24,3.05h0ZM110.34,269.39c.28.88.41,2.45.41,4.72s-.13,3.72-.39,4.6c-.38,1.27-1.13,1.91-2.25,1.91-.72,0-1.27-.22-1.63-.66-.36-.44-.62-1.07-.76-1.88-.15-.82-.22-1.57-.23-2.25,0-.68-.01-1.26-.01-1.74,0-2.26.15-3.84.44-4.75.38-1.17,1.11-1.76,2.19-1.76,1.1,0,1.84.6,2.22,1.81h0Z"/>
    </g>
  </g>
</svg>