<?xml version="1.0" encoding="iso-8859-1"?>
<!-- Generator: Adobe Illustrator 29.7.1, SVG Export Plug-In . SVG Version: 9.03 Build 0)  -->
<svg version="1.1" id="Layer_1" xmlns="http://www.w3.org/2000/svg" xmlns:xlink="http://www.w3.org/1999/xlink" x="0px" y="0px"
	 viewBox="0 0 1920 1080" style="enable-background:new 0 0 1920 1080;" xml:space="preserve">
<g>
	<path style="fill:#ED1164;" d="M894.542,399v65.969l7.723,10.398l-7.124,10.734c0,0,1.078,6.895,3.872,14.411
		c2.794,7.516,6.029,11.829,6.029,11.829l14.149,2.214l3.464,14.974c0,0,4.436,3.775,11.829,6.421
		c7.394,2.647,12.614,3.456,12.614,3.456l12.866-8.7l13.472,8.496c0,0,5.056-0.882,12.556-4.134
		c7.499-3.251,12.058-6.78,12.058-6.78l2.352-13.659l13.292-2.941c0,0,4.926-6.797,6.993-13.529
		c2.067-6.731,3.096-14.263,3.096-14.263l-6.429-8.456l6.576-9.116V399h-48.802v65.927l6.967,1.323l-5.955,9.19l6.445,8.603
		l-11.224,2.483l-1.781,10.457l-9.616-6.103l-9.141,6.364l-2.418-10.848l-10.939-1.618l6.168-9.19l-6.315-8.799l7.426-1.568V399
		H894.542L894.542,399z"/>
	<polygon style="fill:#F37021;" points="894.525,414.36 896.023,414.166 898.672,399 894.525,399 894.525,414.36 	"/>
	<polygon style="fill:#F37021;" points="907.582,425.224 912.065,399 905.684,399 902.261,420.087 894.542,421.7 894.542,427.877 
		907.582,425.224 	"/>
	<polygon style="fill:#F37021;" points="919.387,436.179 925.743,399 919.31,399 913.624,431.213 894.542,434.984 894.542,441.105 
		919.387,436.179 	"/>
	<polygon style="fill:#F37021;" points="959.877,498.908 946.082,508.159 942.553,491.957 926.03,489.283 935.494,475.22 
		925.776,462.231 942.553,458.702 944.745,447.623 944.745,435.353 940.934,432.741 937.152,453.564 914.943,458.162 
		927.687,475.594 915.336,493.775 936.992,497.357 941.964,518.586 960.038,506.394 979.02,518.265 982.87,497.357 
		1004.901,492.652 992.174,475.434 1004.366,457.36 982.603,453.671 978.027,432.38 975.131,434.261 975.131,448.941 
		977.309,458.911 993.672,461.79 984.252,475.594 993.992,488.588 977.149,492.064 974.252,507.998 959.877,498.908 	"/>
	<polygon style="fill:#F37021;" points="944.745,410.709 926.357,399 944.745,399 944.745,410.709 	"/>
	<polygon style="fill:#F37021;" points="975.131,409.817 990.694,399 975.131,399 975.131,409.817 	"/>
	<polygon style="fill:#F37021;" points="1017.573,420.028 1013.014,399 1006.581,399 1012.226,425.469 1023.93,427.322 
		1023.93,420.885 1017.573,420.028 	"/>
	<path style="fill:#F37021;" d="M1023.93,446.986l-29.724-4.544l-7.058-32.315l-12.017,8.104v7.626l7.846-5.118l5.798,27.004
		l27.897,4.538l-15.881,23.527l16.301,21.763l-28.233,5.735l-4.779,26.616l-24.336-15.367l-22.907,15.734l-6.209-27.097
		l-27.579-4.51l15.816-23.389l-16.102-21.983l28.192-5.735l4.725-26.607l9.065,5.793v-7.228l-13.79-8.818l-5.686,31.632
		l-30.727,6.297v4.832l16.623,21.851l-13.781,20.279c0.462,1.558,1,3.213,1.629,4.906c0.569,1.529,1.155,2.919,1.729,4.173
		l24.593,3.848l5.892,26.101c1.012,0.454,2.093,0.9,3.257,1.316c1.311,0.47,2.549,0.878,3.706,1.238l21.794-14.815l22.759,14.018
		c1.023-0.391,2.103-0.826,3.249-1.323c1.465-0.635,2.813-1.28,4.042-1.908l4.44-24.788l23.986-4.724
		c0.851-1.738,1.651-3.613,2.227-5.489c0.487-1.586,0.915-3.216,1.287-4.782l-0.016-0.07l-13.207-17.82l15.179-22.265V446.986
		L1023.93,446.986z"/>
	<polygon style="fill:#F37021;" points="1005.819,431.057 999.125,399 992.487,399 1000.623,436.613 1023.883,440.196 
		1023.883,433.886 1005.819,431.057 	"/>
	<path style="fill:#F37021;" d="M871.19,589.826c0,6.989,2.233,12.244,6.7,15.764c3.941,3.101,9.247,4.651,15.921,4.651
		c7.409,0,13.097-1.8,17.065-5.4c3.967-3.598,5.951-8.946,5.951-16.039V552.15h-12.06v37.046c0,7.357-3.757,11.034-11.271,11.034
		c-3.206,0-5.714-0.985-7.527-2.955c-1.813-1.971-2.72-4.795-2.72-8.473V552.15H871.19V589.826L871.19,589.826z M955.762,606.284
		c3.468-2.533,5.202-6.095,5.202-10.688c0-6.175-4.23-10.159-12.69-11.955l-7.645-1.662c-2.049-0.421-3.547-0.936-4.493-1.543
		c-0.946-0.606-1.419-1.412-1.419-2.415c0-1.583,0.815-2.691,2.444-3.326c1.05-0.421,2.469-0.633,4.256-0.633
		c2.101,0,3.796,0.394,5.084,1.183c1.287,0.788,2.089,2.234,2.404,4.335h10.798c0-5.307-2.076-9.09-6.226-11.35
		c-3.048-1.681-7.252-2.523-12.612-2.523c-5.938,0-10.404,1.577-13.399,4.73c-2.365,2.522-3.547,5.623-3.547,9.3
		c0,3.574,1.366,6.385,4.099,8.434c1.996,1.472,5.017,2.654,9.064,3.547l5.123,1.103c2.89,0.631,4.9,1.249,6.03,1.853
		c1.129,0.604,1.695,1.458,1.695,2.561c0,1.052-0.473,1.971-1.419,2.759c-1.209,0.999-3.074,1.498-5.596,1.498
		c-3.153,0-5.466-0.525-6.936-1.577c-1.472-1.05-2.207-2.574-2.207-4.571h-11.35c0,4.939,2.022,8.697,6.069,11.271
		c3.415,2.154,7.724,3.231,12.926,3.231l-3.704,5.675l1.497,1.419c1.104-0.368,2.05-0.552,2.838-0.552
		c0.788,0,1.444,0.263,1.97,0.789c0.525,0.524,0.788,1.103,0.788,1.734c0,0.893-0.342,1.588-1.024,2.088
		c-0.684,0.499-1.498,0.749-2.444,0.749c-0.683,0-1.537-0.145-2.561-0.433c-1.025-0.29-1.958-0.54-2.798-0.749l-1.498,3.389
		c1.734,0.682,3.165,1.155,4.296,1.419c1.129,0.262,2.351,0.394,3.665,0.394c2.416,0,4.44-0.526,6.069-1.576
		c1.943-1.262,2.916-3.101,2.916-5.518c0-1.787-0.63-3.14-1.891-4.059c-1.262-0.92-2.759-1.379-4.493-1.379l-1.971,0.236
		l2.444-3.626C949.666,609.424,953.082,608.237,955.762,606.284L955.762,606.284L955.762,606.284z M970.502,569.057
		c-3.048,2.234-4.835,6.004-5.36,11.311h10.641c0.366-3.888,2.731-5.833,7.093-5.833c2.154,0,3.849,0.368,5.084,1.104
		c1.234,0.736,1.852,1.97,1.852,3.704c0,0.841-0.236,1.525-0.709,2.05c-0.684,0.736-1.866,1.209-3.547,1.418l-9.537,1.419
		c-4.099,0.631-7.16,2.116-9.183,4.453c-2.023,2.339-3.034,5.321-3.034,8.946c0,3.89,1.261,6.936,3.783,9.143
		c2.365,2.05,5.412,3.074,9.143,3.074c2.732,0,5.149-0.472,7.252-1.418c2.101-0.946,4.15-2.495,6.148-4.651
		c0.104,0.841,0.236,1.708,0.394,2.601c0.157,0.894,0.394,1.683,0.709,2.365h11.823v-1.655c-0.946-0.263-1.59-0.958-1.931-2.089
		c-0.342-1.129-0.512-2.745-0.512-4.847v-21.991c0-4.414-1.708-7.671-5.124-9.774c-2.89-1.785-6.857-2.68-11.901-2.68
		C977.911,565.707,973.549,566.824,970.502,569.057L970.502,569.057z M989.812,594.004c0,2.102-0.933,3.954-2.798,5.556
		c-1.866,1.604-4.165,2.404-6.896,2.404c-1.577,0-2.851-0.433-3.823-1.3c-0.973-0.867-1.458-2.115-1.458-3.744
		c0-1.471,0.42-2.706,1.261-3.705c1.05-1.208,2.706-1.996,4.965-2.364l3.941-0.709c1.051-0.158,2.01-0.395,2.877-0.71
		c0.867-0.315,1.51-0.682,1.931-1.103V594.004L989.812,594.004z M1008.414,608.743h11.035v-13.242l4.571-4.729l10.01,17.971h13.242
		l-15.212-25.695l14.818-16.237h-13.557l-13.872,15.921V552.15h-11.035V608.743L1008.414,608.743z"/>
	<path style="fill:#F37021;" d="M871,651.904h13.237c2.979,0,5.44-0.815,7.384-2.447c1.943-1.631,2.916-3.837,2.916-6.619
		c0-1.958-0.483-3.546-1.447-4.767c-0.852-1.078-2.2-1.971-4.044-2.681c1.248-0.511,2.235-1.341,2.958-2.49
		c0.724-1.149,1.086-2.447,1.086-3.894c0-2.327-0.788-4.186-2.363-5.576c-1.574-1.39-3.667-2.086-6.278-2.086H871V651.904
		L871,651.904z M882.662,624.877c1.9,0,3.362,0.284,4.384,0.851c1.277,0.71,1.915,1.902,1.915,3.575c0,1.76-0.518,3.03-1.553,3.81
		c-1.037,0.781-2.661,1.17-4.874,1.17h-7.406v-9.406H882.662L882.662,624.877z M883.385,637.646c2.071,0,3.703,0.355,4.895,1.064
		c1.419,0.851,2.128,2.213,2.128,4.086c0,1.873-0.624,3.292-1.873,4.256c-1.135,0.88-2.624,1.319-4.469,1.319h-8.938v-10.725
		H883.385L883.385,637.646z M899.176,632.708c-1.675,2.186-2.511,5.08-2.511,8.683c0,3.349,0.907,6.044,2.724,8.087
		c1.815,2.043,4.27,3.065,7.363,3.065c1.22,0,2.312-0.115,3.277-0.343c0.965-0.229,1.816-0.599,2.554-1.112
		c1.049-0.685,1.922-1.584,2.618-2.697c0.694-1.113,1.17-2.283,1.425-3.51h-3.745c-0.199,1.29-0.859,2.35-1.979,3.181
		c-1.122,0.831-2.405,1.246-3.852,1.246c-2.242,0-3.902-0.728-4.98-2.183c-0.936-1.256-1.405-2.982-1.405-5.18h16.259
		c0-3.818-0.709-6.844-2.128-9.079c-1.646-2.574-4.143-3.86-7.491-3.86C903.758,629.006,901.048,630.24,899.176,632.708
		L899.176,632.708L899.176,632.708z M911.455,634.123c1.064,1.17,1.596,2.785,1.596,4.842h-12.386c0-1.775,0.603-3.319,1.809-4.63
		c1.206-1.311,2.674-1.967,4.406-1.967C908.865,632.368,910.391,632.953,911.455,634.123L911.455,634.123z M920.202,651.904h3.745
		v-30.56h-3.745V651.904L920.202,651.904z M929.735,632.708c-1.675,2.186-2.511,5.08-2.511,8.683c0,3.349,0.908,6.044,2.724,8.087
		c1.815,2.043,4.27,3.065,7.363,3.065c1.22,0,2.312-0.115,3.277-0.343c0.965-0.229,1.816-0.599,2.554-1.112
		c1.05-0.685,1.922-1.584,2.618-2.697c0.695-1.113,1.17-2.283,1.426-3.51h-3.746c-0.199,1.29-0.858,2.35-1.979,3.181
		c-1.121,0.831-2.405,1.246-3.852,1.246c-2.242,0-3.902-0.728-4.98-2.183c-0.936-1.256-1.404-2.982-1.404-5.18h16.259
		c0-3.818-0.71-6.844-2.129-9.079c-1.645-2.574-4.143-3.86-7.491-3.86C934.317,629.006,931.608,630.24,929.735,632.708
		L929.735,632.708L929.735,632.708z M942.014,634.123c1.064,1.17,1.596,2.785,1.596,4.842h-12.385c0-1.775,0.602-3.319,1.809-4.63
		c1.205-1.311,2.674-1.967,4.405-1.967C939.425,632.368,940.95,632.953,942.014,634.123L942.014,634.123z M965.402,632.538
		l-0.127,0.17c-0.851-1.219-1.803-2.142-2.852-2.766c-1.05-0.624-2.313-0.936-3.788-0.936c-3.037,0-5.391,1.163-7.065,3.49
		c-1.448,2.015-2.171,4.568-2.171,7.661c0,3.377,0.737,6.186,2.213,8.427c1.759,2.639,4.284,3.959,7.576,3.959
		c2.837,0,4.98-1.235,6.427-3.703v3.064h3.533v-30.56h-3.746V632.538L965.402,632.538z M964.292,635.475
		c0.74,1.504,1.11,3.519,1.11,6.044c0,2.667-0.641,4.682-1.922,6.044c-1.082,1.164-2.477,1.745-4.185,1.745
		c-2.164,0-3.774-0.979-4.827-2.937c-0.798-1.504-1.196-3.419-1.196-5.746c0-2.411,0.384-4.299,1.153-5.661
		c0.969-1.73,2.606-2.596,4.912-2.596C961.615,632.368,963.266,633.404,964.292,635.475L964.292,635.475L964.292,635.475z
		 M973.149,625.601h3.745v-4.257h-3.745V625.601L973.149,625.601z M973.149,651.904h3.745v-22.26h-3.745V651.904L973.149,651.904z
		 M987.195,652.5c-0.398,0.936-0.909,2.156-1.533,3.66c-0.539,0.993-1.235,1.49-2.086,1.49c-0.539,0-1-0.021-1.383-0.064
		c-0.383-0.042-0.788-0.149-1.213-0.319v3.362c0.367,0.171,0.678,0.277,0.932,0.32c0.254,0.042,0.622,0.064,1.103,0.064
		c2.571,0,4.409-1.037,5.512-3.11c0.282-0.54,1.186-2.67,2.713-6.391c0.367-0.908,1.102-2.854,2.205-5.837
		c0.565-1.533,1.115-3.052,1.653-4.558l4.142-11.487l-4.087,0.014l-6.044,18.134l-5.918-18.133l-4.256-0.001L987.195,652.5
		L987.195,652.5z M1002.687,632.708c-1.675,2.186-2.512,5.08-2.512,8.683c0,3.349,0.908,6.044,2.724,8.087
		c1.816,2.043,4.271,3.065,7.364,3.065c1.219,0,2.312-0.115,3.277-0.343c0.964-0.229,1.816-0.599,2.554-1.112
		c1.049-0.685,1.922-1.584,2.617-2.697c0.695-1.113,1.171-2.283,1.426-3.51h-3.745c-0.199,1.29-0.859,2.35-1.979,3.181
		c-1.122,0.831-2.405,1.246-3.852,1.246c-2.242,0-3.902-0.728-4.98-2.183c-0.936-1.256-1.405-2.982-1.405-5.18h16.259
		c0-3.818-0.709-6.844-2.128-9.079c-1.646-2.574-4.143-3.86-7.491-3.86C1007.269,629.006,1004.559,630.24,1002.687,632.708
		L1002.687,632.708L1002.687,632.708z M1014.966,634.123c1.064,1.17,1.596,2.785,1.596,4.842h-12.386
		c0-1.775,0.603-3.319,1.809-4.63c1.206-1.311,2.674-1.967,4.405-1.967C1012.376,632.368,1013.902,632.953,1014.966,634.123
		L1014.966,634.123z M1025.33,630.857c-1.59,1.234-2.384,2.973-2.384,5.214c0,1.277,0.355,2.355,1.064,3.235
		c0.823,1.021,2.129,1.745,3.916,2.17l4.725,1.15c1.588,0.397,2.688,0.823,3.298,1.276c0.61,0.455,0.915,1.079,0.915,1.873
		c0,1.249-0.596,2.186-1.787,2.809c-0.909,0.483-2.043,0.724-3.405,0.724c-1.76,0-3.122-0.312-4.086-0.937
		c-1.164-0.766-1.745-1.971-1.745-3.617h-3.618c0,2.724,0.879,4.739,2.639,6.044c1.588,1.163,3.873,1.745,6.852,1.745
		c2.44,0,4.483-0.596,6.129-1.788c1.844-1.333,2.767-3.192,2.767-5.576c0-1.532-0.426-2.724-1.277-3.575
		c-0.994-0.993-2.809-1.802-5.448-2.426l-3.66-0.894c-1.561-0.397-2.597-0.836-3.107-1.319c-0.37-0.341-0.554-0.865-0.554-1.575
		c0-1.107,0.447-1.908,1.341-2.405c0.894-0.496,1.964-0.745,3.213-0.745c1.561,0,2.81,0.284,3.746,0.852
		c0.936,0.567,1.404,1.532,1.404,2.894h3.661c0-2.327-0.866-4.114-2.596-5.363c-1.505-1.078-3.491-1.617-5.959-1.617
		C1028.933,629.006,1026.919,629.623,1025.33,630.857L1025.33,630.857z M1043.717,625.601h3.745v-4.257h-3.745V625.601
		L1043.717,625.601z M1043.717,651.904h3.745v-22.26h-3.745V651.904L1043.717,651.904z"/>
	<path style="fill:#ED1164;" d="M937.22,665.622c-0.774,0.826-2.014,1.239-3.718,1.239h-0.516v2.53h4.363v12.626h3.615v-18.331
		h-2.969C937.995,664.426,937.737,665.071,937.22,665.622L937.22,665.622L937.22,665.622z M947.806,665.028
		c-1.084,0.895-1.627,2.109-1.627,3.641c0,0.791,0.185,1.506,0.556,2.142c0.37,0.638,0.916,1.137,1.639,1.498
		c-0.998,0.465-1.708,1.076-2.13,1.833c-0.422,0.758-0.633,1.653-0.633,2.685c0,1.791,0.581,3.185,1.743,4.183
		c1.162,0.998,2.689,1.497,4.583,1.497c2.066,0,3.675-0.61,4.828-1.833c1.033-1.084,1.549-2.452,1.549-4.105
		c0-1.033-0.189-1.885-0.568-2.556c-0.43-0.757-1.145-1.385-2.143-1.885c0.706-0.344,1.231-0.834,1.575-1.471
		c0.345-0.637,0.517-1.377,0.517-2.221c0-1.411-0.534-2.556-1.601-3.434c-1.067-0.878-2.47-1.316-4.209-1.316
		C950.25,663.686,948.89,664.133,947.806,665.028L947.806,665.028z M953.654,667.236c0.387,0.439,0.581,0.968,0.581,1.587
		c0,0.689-0.194,1.244-0.581,1.666c-0.387,0.422-0.942,0.632-1.665,0.632c-0.706,0-1.274-0.223-1.704-0.671
		c-0.431-0.447-0.646-0.998-0.646-1.652c0-0.689,0.224-1.231,0.672-1.627c0.447-0.396,1.032-0.594,1.755-0.594
		C952.738,666.577,953.267,666.797,953.654,667.236L953.654,667.236z M953.899,674.671c0.465,0.543,0.697,1.227,0.697,2.053
		c0,0.844-0.236,1.536-0.71,2.078c-0.473,0.543-1.106,0.814-1.897,0.814c-0.861,0-1.52-0.275-1.975-0.826
		c-0.457-0.551-0.685-1.248-0.685-2.092c0-0.843,0.228-1.527,0.685-2.052c0.455-0.525,1.088-0.788,1.897-0.788
		C952.772,673.858,953.435,674.129,953.899,674.671L953.899,674.671z M959.012,667.197h9.114c-1.154,1.257-2.195,2.668-3.124,4.234
		c-1.016,1.722-1.817,3.486-2.402,5.293c-0.344,1.102-0.585,1.962-0.723,2.582c-0.189,0.895-0.284,1.799-0.284,2.711h3.718
		c0-2.306,0.611-4.88,1.833-7.72c0.569-1.325,1.27-2.646,2.105-3.963c0.834-1.317,1.751-2.5,2.749-3.55v-2.789h-12.909
		L959.012,667.197L959.012,667.197z M973.883,666.732c-0.74,1.463-1.11,3.58-1.11,6.352c0,1.773,0.138,3.244,0.413,4.415
		c0.362,1.532,0.981,2.719,1.859,3.563c0.998,0.963,2.358,1.445,4.079,1.445c2.479,0,4.226-1.023,5.242-3.072
		c0.74-1.497,1.11-3.623,1.11-6.377c0-2.737-0.379-4.854-1.136-6.352c-1.016-2.014-2.754-3.02-5.216-3.02
		C976.646,663.686,974.899,664.701,973.883,666.732L973.883,666.732L973.883,666.732z M981.345,668.385
		c0.275,0.877,0.413,2.452,0.413,4.724c0,2.187-0.129,3.718-0.387,4.596c-0.379,1.274-1.128,1.911-2.247,1.911
		c-0.722,0-1.265-0.22-1.626-0.659c-0.362-0.439-0.616-1.067-0.762-1.884c-0.146-0.818-0.224-1.566-0.232-2.247
		c-0.009-0.679-0.013-1.26-0.013-1.742c0-2.255,0.146-3.839,0.439-4.751c0.378-1.17,1.11-1.756,2.194-1.756
		C980.226,666.577,980.966,667.18,981.345,668.385L981.345,668.385L981.345,668.385z"/>
</g>
</svg>
