<?xml version="1.0" encoding="iso-8859-1"?>
<!-- Generator: Adobe Illustrator 29.7.1, SVG Export Plug-In . SVG Version: 9.03 Build 0)  -->
<svg version="1.1" id="Layer_1" xmlns="http://www.w3.org/2000/svg" xmlns:xlink="http://www.w3.org/1999/xlink" x="0px" y="0px"
	 viewBox="0 0 48 48" style="enable-background:new 0 0 48 48;" xml:space="preserve">
<path style="fill-rule:evenodd;clip-rule:evenodd;fill:#000003;" d="M18.672,33.941c0.263-0.106,0.21-0.137,0.361-0.391
	c0.536-0.896,0.446-0.428,0.561-1.482c0.094-0.86,0.187-1.678,0.266-2.532c0.211-2.269,1.293-6.125,2.567-9.037
	c1.039-2.377,2.541-4.374,4.417-5.809c2.328-1.783,5.232-2.7,8.538-2.407c0.744,0.066,1.609,0.228,2.317,0.429l1.623,0.558
	l0.416,0.143c-0.15-0.143-0.335-0.245-0.53-0.33c-1.074-0.471-2.201-0.828-3.363-0.99c-3.105-0.432-5.769,0.017-8.401,1.522
	c-1.9,1.087-3.97,3.397-4.988,5.317c-1.282,2.418-2.076,4.751-2.765,7.462c-0.073,0.286-0.829,4.008-0.961,4.176
	c-1.029-2.356-2.143-6.098-1.826-8.819c0.058-0.494,0.146-0.965,0.29-1.421c0.136-0.428,0.43-0.934,0.286-1.292
	c-0.338,0.037-0.412,0.245-0.579,0.472c-1.083,1.48-1.87,3.034-2.483,4.826c-0.737,2.156-1.204,4.346-1.803,6.592l-0.24-0.348
	c-0.066-0.153-0.118-0.28-0.173-0.414c-0.692-1.695-0.942-3.757-0.999-5.598l-0.033-0.843c-0.035-0.116-0.034-0.075-0.083-0.131
	c-0.326-0.092-0.471,0.385-0.635,0.727c-0.149,0.31-0.296,0.625-0.444,0.938l-1.755,3.797c-0.208,0.469-0.618,1.55-0.905,1.867
	c-0.341-1.706-1.018-4.154-2.136-4.877c-1.384-0.896-3.119,1.73-3.283,3.115c-0.074,0.628,0.242,0.185,0.364-0.029
	c0.296-0.515,0.452-1.067,1.132-1.621c2.078-1.691,3.102,5.93,3.409,6.242c0.452-0.291,0.966-1.934,1.179-2.59
	c0.097-0.299,0.192-0.699,0.37-0.923l2.49-0.286c0.128,0.572,0.5,1.447,0.717,2.061c0.212,0.599,0.497,1.724,0.869,1.872
	c0.686-0.474,0.816-1.994,0.903-2.682c0.224-1.769,1.74-7.728,2.363-8.45c0.099,2.374,0.353,4.007,0.994,6.099
	c0.283,0.923,0.548,1.75,0.862,2.642C17.747,31.955,18.338,33.753,18.672,33.941 M10.245,26.131l0.256,2.332l-1.52,0.172
	L10.245,26.131z"/>
<polygon style="fill-rule:evenodd;clip-rule:evenodd;fill:#FFFEF9;" points="12.495,25.482 13.368,25.383 13.22,24.044 "/>
<path style="fill-rule:evenodd;clip-rule:evenodd;fill:#D5C518;" d="M34.153,22.632c1.816,0,3.303,1.772,3.428,4.017h-6.857
	C30.851,24.404,32.337,22.632,34.153,22.632 M31.123,13.581l0.034-0.009l2.368,7.871c0.053,0.176,0.017,0.545-0.248,0.633h0
	c-0.282,0.093-0.467-0.204-0.504-0.385L31.123,13.581z M28.247,14.756l0.024-0.013l4.171,7.227c0.092,0.16,0.143,0.528-0.095,0.672
	c-0.253,0.153-0.502-0.096-0.58-0.264L28.247,14.756z M25.683,16.774l0.024-0.025l5.766,5.788c0.128,0.128,0.268,0.473,0.068,0.673
	c-0.212,0.212-0.51,0.041-0.626-0.099L25.683,16.774z M23.757,19.373l0.006-0.011l6.856,4.066c0.154,0.091,0.546,0.491,0.344,0.694
	c-0.214,0.214-0.609,0.112-0.754,0.005L23.757,19.373z M22.498,22.526l0.004-0.016l7.794,2.171c0.153,0.042,0.405,0.221,0.405,0.553
	c0,0.352-0.61,0.226-0.754,0.17L22.498,22.526z M22.074,26.192l0-0.031l7.875-0.26c0.188-0.006,0.525,0.129,0.525,0.401
	c0,0.288-0.361,0.383-0.546,0.372L22.074,26.192z M45.501,26.145c0,0.025,0,0.051-0.001,0.076l-6.988,0.452
	c-0.186,0.012-0.538-0.083-0.546-0.372c-0.008-0.272,0.337-0.408,0.525-0.401L45.501,26.145z M45.19,23.004l0.011,0.045
	l-6.678,2.355c-0.145,0.051-0.754,0.181-0.754-0.17c0-0.332,0.251-0.516,0.405-0.553L45.19,23.004z M44.037,19.782
	c0.013,0.025,0.026,0.05,0.038,0.075l-5.815,4.27c-0.145,0.106-0.6,0.256-0.754-0.005c-0.144-0.247,0.19-0.603,0.344-0.694
	L44.037,19.782z M42.298,17.215c0.013,0.015,0.026,0.03,0.039,0.045l-4.781,5.85c-0.115,0.141-0.414,0.311-0.626,0.099
	c-0.2-0.2-0.06-0.544,0.068-0.673L42.298,17.215z M39.962,15.153l0.059,0.04l-3.318,7.185c-0.077,0.168-0.327,0.416-0.58,0.264
	c-0.238-0.144-0.187-0.512-0.095-0.672L39.962,15.153z M37.241,13.812l0.055,0.018l-1.598,7.862
	c-0.037,0.181-0.222,0.478-0.504,0.385c-0.266-0.087-0.301-0.457-0.248-0.633L37.241,13.812z M34.24,13.262l0.405,8.273
	c0.009,0.187-0.094,0.536-0.384,0.536c-0.273,0-0.396-0.348-0.389-0.536l0.321-8.275L34.24,13.262z"/>
<path style="fill-rule:evenodd;clip-rule:evenodd;fill:#0095DA;" d="M26.673,27.779L26.673,27.779c0.001,0,0.001,0,0.001,0
	C26.675,27.779,26.674,27.779,26.673,27.779 M38.648,27.779L38.648,27.779C38.648,27.779,38.648,27.779,38.648,27.779
	C38.648,27.779,38.648,27.779,38.648,27.779z M26.673,28.877L26.673,28.877c0.001,0,0.001,0,0.001,0
	C26.675,28.877,26.674,28.877,26.673,28.877z M38.648,28.877L38.648,28.877C38.648,28.877,38.648,28.877,38.648,28.877
	C38.648,28.877,38.648,28.877,38.648,28.877z M32.66,28.877L32.66,28.877c0.001,0,0.001,0,0.001,0
	C32.661,28.877,32.661,28.877,32.66,28.877z M24.111,27.229c-0.059-0.147-0.114-0.295-0.166-0.445
	c0.263,0.064,0.428,0.219,0.578,0.36c0.179,0.168,0.334,0.313,0.655,0.313c0.322,0,0.476-0.145,0.655-0.313
	c0.194-0.182,0.415-0.389,0.84-0.39h0.001h0c0,0,0,0,0.001,0c0.426,0.001,0.646,0.208,0.84,0.39
	c0.179,0.168,0.333,0.313,0.655,0.313c0.321,0,0.476-0.145,0.655-0.313c0.195-0.183,0.415-0.39,0.842-0.39
	c0.427,0,0.647,0.207,0.842,0.39c0.179,0.168,0.333,0.313,0.655,0.313c0.322,0,0.476-0.145,0.655-0.313
	c0.194-0.182,0.415-0.389,0.84-0.39h0.001h0c0,0,0.001,0,0.001,0c0.426,0.001,0.646,0.208,0.84,0.39
	c0.179,0.168,0.333,0.313,0.655,0.313c0.322,0,0.476-0.145,0.655-0.313c0.195-0.183,0.415-0.39,0.842-0.39
	c0.427,0,0.647,0.207,0.842,0.39c0.179,0.168,0.333,0.313,0.655,0.313s0.477-0.145,0.655-0.313c0.194-0.182,0.415-0.389,0.84-0.39
	h0.001h0c0,0,0.001,0,0.001,0c0.425,0.001,0.646,0.208,0.84,0.39c0.179,0.168,0.333,0.313,0.655,0.313
	c0.322,0,0.476-0.145,0.655-0.313c0.195-0.183,0.415-0.39,0.842-0.39c0.427,0,0.648,0.207,0.842,0.39
	c0.179,0.168,0.333,0.313,0.655,0.313c0.167,0,0.29-0.039,0.394-0.101c-0.061,0.147-0.126,0.292-0.193,0.436
	c-0.062,0.011-0.128,0.017-0.201,0.017c-0.427,0-0.648-0.207-0.842-0.39c-0.179-0.168-0.334-0.313-0.655-0.313
	c-0.322,0-0.476,0.145-0.655,0.313c-0.195,0.183-0.415,0.39-0.842,0.39c-0.427,0-0.648-0.207-0.842-0.39
	c-0.178-0.168-0.333-0.312-0.653-0.313h0h0c-0.321,0-0.475,0.145-0.654,0.313c-0.194,0.183-0.415,0.39-0.842,0.39
	c-0.427,0-0.647-0.207-0.842-0.39c-0.179-0.168-0.334-0.313-0.655-0.313c-0.322,0-0.476,0.145-0.655,0.313
	c-0.195,0.183-0.415,0.39-0.842,0.39c-0.427,0-0.648-0.207-0.842-0.39c-0.179-0.168-0.333-0.313-0.654-0.313
	c-0.321,0-0.475,0.145-0.654,0.313c-0.194,0.183-0.415,0.39-0.842,0.39c-0.427,0-0.647-0.207-0.842-0.39
	c-0.179-0.168-0.333-0.313-0.655-0.313c-0.322,0-0.476,0.145-0.655,0.313c-0.195,0.183-0.415,0.39-0.842,0.39
	c-0.427,0-0.648-0.207-0.842-0.39c-0.179-0.168-0.333-0.312-0.654-0.313h0c-0.322,0-0.476,0.145-0.655,0.313
	c-0.194,0.183-0.415,0.39-0.842,0.39c-0.427,0-0.648-0.207-0.842-0.39C24.262,27.348,24.191,27.282,24.111,27.229z M24.957,28.885
	c-0.111-0.175-0.217-0.355-0.317-0.537c0.138,0.118,0.288,0.206,0.538,0.206c0.322,0,0.476-0.145,0.655-0.313
	c0.194-0.183,0.415-0.389,0.84-0.39v0h0.001h0c0,0,0,0,0.001,0v0c0.426,0.001,0.646,0.207,0.84,0.39
	c0.179,0.168,0.333,0.313,0.655,0.313c0.321,0,0.476-0.145,0.655-0.313c0.195-0.183,0.415-0.39,0.842-0.39
	c0.427,0,0.647,0.207,0.842,0.39c0.179,0.168,0.333,0.313,0.655,0.313c0.322,0,0.476-0.145,0.655-0.313
	c0.194-0.183,0.415-0.389,0.84-0.39v0h0.001h0c0,0,0.001,0,0.001,0v0c0.426,0.001,0.646,0.207,0.84,0.39
	c0.179,0.168,0.333,0.313,0.655,0.313c0.322,0,0.476-0.145,0.655-0.313c0.195-0.183,0.415-0.39,0.842-0.39
	c0.427,0,0.647,0.207,0.842,0.39c0.179,0.168,0.333,0.313,0.655,0.313s0.477-0.145,0.655-0.313c0.194-0.183,0.415-0.389,0.84-0.39v0
	h0.001h0c0,0,0.001,0,0.001,0v0c0.425,0.001,0.646,0.207,0.84,0.39c0.179,0.168,0.333,0.313,0.655,0.313
	c0.322,0,0.476-0.145,0.655-0.313c0.195-0.183,0.415-0.39,0.842-0.39c0.427,0,0.648,0.207,0.842,0.39
	c0.14,0.131,0.265,0.249,0.467,0.293c-0.06,0.104-0.122,0.206-0.185,0.307c-0.201-0.076-0.341-0.206-0.468-0.326
	c-0.179-0.168-0.334-0.313-0.655-0.313c-0.322,0-0.476,0.145-0.655,0.313c-0.195,0.183-0.415,0.39-0.842,0.39
	c-0.427,0-0.648-0.207-0.842-0.39c-0.178-0.168-0.333-0.312-0.653-0.313h0h0c-0.321,0-0.475,0.145-0.654,0.313
	c-0.194,0.183-0.415,0.39-0.842,0.39c-0.427,0-0.647-0.207-0.842-0.39c-0.179-0.168-0.334-0.313-0.655-0.313
	c-0.322,0-0.476,0.145-0.655,0.313c-0.195,0.183-0.415,0.39-0.842,0.39c-0.427,0-0.648-0.207-0.842-0.39
	c-0.179-0.168-0.333-0.313-0.654-0.313c-0.321,0-0.475,0.145-0.654,0.313c-0.194,0.183-0.415,0.39-0.842,0.39
	c-0.427,0-0.647-0.207-0.842-0.39c-0.179-0.168-0.333-0.313-0.655-0.313c-0.322,0-0.476,0.145-0.655,0.313
	c-0.195,0.183-0.415,0.39-0.842,0.39c-0.427,0-0.648-0.207-0.842-0.39c-0.179-0.168-0.333-0.312-0.654-0.313h0
	c-0.322,0-0.476,0.145-0.655,0.313c-0.194,0.183-0.415,0.39-0.842,0.39C25.098,28.906,25.024,28.899,24.957,28.885z M32.66,27.779
	L32.66,27.779c0.001,0,0.001,0,0.001,0C32.661,27.779,32.661,27.779,32.66,27.779z M42.349,29.307
	c-1.797,2.593-4.939,4.311-8.515,4.311c-3.509,0-6.601-1.654-8.413-4.166c0.09-0.051,0.166-0.117,0.248-0.187
	c0.194-0.167,0.414-0.357,0.839-0.358h0.001h0c0,0,0.001,0,0.001,0c0.425,0,0.645,0.19,0.839,0.358
	c0.179,0.154,0.333,0.287,0.655,0.287c0.321,0,0.476-0.133,0.654-0.287c0.194-0.168,0.415-0.358,0.841-0.358
	c0.426,0,0.647,0.19,0.841,0.358c0.179,0.154,0.333,0.287,0.654,0.287c0.322,0,0.476-0.133,0.655-0.287
	c0.194-0.167,0.414-0.357,0.839-0.358h0.001h0c0,0,0.001,0,0.001,0c0.425,0,0.645,0.19,0.839,0.358
	c0.179,0.154,0.333,0.287,0.654,0.287c0.321,0,0.476-0.133,0.654-0.287c0.194-0.168,0.415-0.358,0.841-0.358c0,0,0,0,0,0
	c0.426,0,0.646,0.19,0.841,0.358c0.179,0.154,0.333,0.287,0.654,0.287c0.321,0,0.476-0.133,0.654-0.287
	c0.194-0.167,0.414-0.357,0.839-0.358h0.001h0c0,0,0.001,0,0.001,0c0.425,0,0.645,0.19,0.839,0.358
	c0.179,0.154,0.333,0.287,0.654,0.287c0.321,0,0.476-0.133,0.654-0.287c0.194-0.168,0.415-0.358,0.841-0.358s0.647,0.19,0.841,0.358
	L42.349,29.307z M32.66,26.753L32.66,26.753L32.66,26.753L32.66,26.753h0.001 M38.648,26.753L38.648,26.753L38.648,26.753
	L38.648,26.753 M32.66,27.852L32.66,27.852L32.66,27.852L32.66,27.852l0.001,0 M38.648,27.852L38.648,27.852L38.648,27.852
	L38.648,27.852 M26.673,27.852L26.673,27.852L26.673,27.852l0.001,0h0 M26.673,26.753L26.673,26.753L26.673,26.753h0.001h0"/>
<path d="M44.188,27.539c-0.057-0.022-0.098-0.061-0.124-0.117c-0.023-0.056-0.024-0.113-0.001-0.17
	c0.023-0.057,0.061-0.098,0.116-0.122c0.056-0.023,0.113-0.023,0.17-0.001c0.056,0.022,0.096,0.061,0.122,0.116
	c0.024,0.055,0.024,0.111,0.002,0.168c-0.023,0.057-0.061,0.098-0.117,0.124C44.302,27.561,44.246,27.562,44.188,27.539
	 M44.687,27.291l1.393,0.549l-0.136,0.344l-1.393-0.549L44.687,27.291z M44.919,29.357c0.149-0.113,0.243-0.208,0.282-0.284
	c0.049-0.095,0.04-0.16-0.026-0.194c-0.046-0.023-0.105-0.018-0.177,0.016l-0.212,0.126c-0.205,0.124-0.379,0.15-0.52,0.077
	c-0.095-0.049-0.162-0.125-0.2-0.228c-0.049-0.135-0.03-0.288,0.058-0.459c0.06-0.117,0.158-0.23,0.294-0.34l0.219,0.218
	c-0.124,0.11-0.203,0.199-0.238,0.268c-0.05,0.097-0.042,0.162,0.023,0.195c0.037,0.019,0.092,0.01,0.164-0.028
	c0.021-0.015,0.095-0.061,0.223-0.137c0.217-0.129,0.397-0.158,0.538-0.085c0.127,0.065,0.2,0.165,0.218,0.3
	c0.015,0.124-0.016,0.26-0.091,0.407c-0.065,0.128-0.181,0.258-0.347,0.391L44.919,29.357z M43.979,29.364l-0.326,0.458l0.22,0.156
	l0.265-0.373l0.253,0.18l-0.265,0.373l0.24,0.171l0.341-0.48l0.254,0.181l-0.556,0.781l-1.22-0.868l0.54-0.759L43.979,29.364z
	 M43.804,31.547l-0.244,0.281l-0.465-0.403l-0.972-0.225l0.255-0.294l0.569,0.149l-0.236-0.533l0.255-0.294l0.378,0.919
	L43.804,31.547z M41.293,31.436c-0.043-0.045-0.064-0.097-0.063-0.158c0.003-0.061,0.026-0.112,0.071-0.155
	c0.044-0.042,0.097-0.063,0.156-0.062c0.061,0.003,0.113,0.026,0.155,0.071c0.041,0.043,0.062,0.095,0.062,0.156
	c-0.001,0.06-0.024,0.111-0.069,0.153c-0.045,0.042-0.097,0.063-0.158,0.063C41.386,31.504,41.335,31.48,41.293,31.436z
	 M41.848,31.42l1.034,1.084l-0.268,0.255l-1.034-1.084L41.848,31.42z M40.268,32.672l0.368-0.262c0.206-0.147,0.406-0.212,0.6-0.197
	c0.209,0.018,0.387,0.13,0.533,0.334c0.14,0.197,0.182,0.393,0.125,0.588c-0.053,0.183-0.183,0.348-0.39,0.496l-0.368,0.262
	L40.268,32.672z M41.256,33.424l0.058-0.041c0.112-0.08,0.182-0.17,0.21-0.271c0.031-0.111,0.005-0.223-0.075-0.337
	c-0.087-0.123-0.193-0.19-0.315-0.203c-0.109-0.012-0.218,0.021-0.327,0.098l-0.057,0.041L41.256,33.424z M40.04,33.174l-0.487,0.28
	l0.135,0.234l0.396-0.228l0.155,0.27l-0.396,0.228l0.147,0.255l0.51-0.293l0.155,0.27l-0.831,0.478l-0.746-1.299l0.807-0.464
	L40.04,33.174z M39.344,34.894l-0.851,0.336l-0.549-1.394l0.344-0.135l0.435,1.104l0.507-0.2L39.344,34.894z M37.611,34.287
	l-0.54,0.153l0.074,0.26l0.44-0.125l0.085,0.3L37.23,35l0.08,0.283l0.566-0.161l0.085,0.299l-0.922,0.262l-0.409-1.441l0.896-0.254
	L37.611,34.287z M35.593,34.746l0.032,0.256l0.15-0.019c0.077-0.01,0.11-0.062,0.098-0.157c-0.01-0.076-0.053-0.109-0.13-0.099
	L35.593,34.746z M36.033,35.41c-0.012-0.095-0.078-0.135-0.197-0.122l-0.171,0.022l0.039,0.304l0.188-0.024
	C35.999,35.577,36.047,35.517,36.033,35.41z M35.715,34.416c0.324-0.041,0.502,0.07,0.535,0.334
	c0.012,0.097-0.011,0.194-0.068,0.293c0.155,0.077,0.243,0.195,0.264,0.356c0.016,0.124-0.02,0.232-0.106,0.323
	c-0.091,0.095-0.222,0.153-0.395,0.175l-0.569,0.073l-0.189-1.486L35.715,34.416z M33.56,34.857l-0.01,0.37l0.105,0.002
	c0.123,0.003,0.187-0.058,0.189-0.182c0.003-0.122-0.059-0.184-0.187-0.187L33.56,34.857z M33.936,36.053l-0.23-0.511l-0.163-0.005
	l-0.013,0.506l-0.37-0.01l0.038-1.497l0.452,0.011c0.203,0.005,0.357,0.055,0.463,0.15c0.098,0.088,0.146,0.209,0.142,0.361
	c-0.004,0.167-0.07,0.294-0.197,0.384l0.288,0.62L33.936,36.053z M32.345,34.071c0.008-0.061,0.035-0.111,0.083-0.149
	c0.049-0.036,0.104-0.05,0.165-0.043c0.061,0.008,0.11,0.035,0.146,0.083c0.036,0.049,0.05,0.104,0.043,0.164
	c-0.008,0.06-0.035,0.108-0.082,0.147c-0.047,0.036-0.101,0.051-0.162,0.043c-0.061-0.008-0.111-0.035-0.149-0.082
	C32.352,34.186,32.337,34.132,32.345,34.071z M32.708,34.492l-0.189,1.486l-0.366-0.047l0.188-1.486L32.708,34.492z M31.85,34.382
	l-0.337,1.459l-0.36-0.083l0.139-0.602l-0.486-0.112l-0.139,0.602l-0.36-0.083l0.337-1.459l0.36,0.083l-0.128,0.554l0.485,0.112
	l0.128-0.554L31.85,34.382z M30.174,34.284l-0.522-0.206l-0.099,0.251l0.425,0.167l-0.114,0.289l-0.425-0.167l-0.108,0.274
	l0.547,0.216l-0.114,0.289l-0.891-0.352l0.549-1.393l0.866,0.342L30.174,34.284z M27.429,34.852l0.271-0.274l0.298,0.173
	l-0.443,0.276L27.429,34.852z M27.691,34.041c0.113,0.149,0.208,0.243,0.284,0.282c0.095,0.049,0.16,0.04,0.194-0.026
	c0.024-0.046,0.019-0.105-0.015-0.178l-0.126-0.212c-0.124-0.205-0.15-0.379-0.078-0.52c0.049-0.095,0.125-0.162,0.229-0.2
	c0.134-0.049,0.287-0.03,0.459,0.058c0.117,0.06,0.23,0.158,0.34,0.295l-0.219,0.218c-0.11-0.124-0.199-0.203-0.269-0.239
	c-0.097-0.05-0.161-0.042-0.195,0.023c-0.019,0.037-0.01,0.092,0.028,0.164c0.015,0.02,0.06,0.095,0.137,0.223
	c0.129,0.217,0.157,0.396,0.085,0.538c-0.065,0.127-0.165,0.199-0.3,0.218c-0.124,0.015-0.26-0.016-0.407-0.091
	c-0.128-0.065-0.258-0.181-0.39-0.347L27.691,34.041z M26.701,33.896l0.066-0.702l-0.066-0.046l-0.354,0.497l-0.301-0.214
	l0.868-1.221l0.302,0.214l-0.334,0.47l0.059,0.042l0.632-0.258l0.35,0.249l-0.797,0.32l-0.073,0.899L26.701,33.896z M26.379,31.335
	c0.042-0.045,0.094-0.068,0.155-0.071c0.061,0,0.113,0.021,0.158,0.063c0.044,0.043,0.067,0.094,0.069,0.153
	c0,0.061-0.021,0.114-0.063,0.158c-0.041,0.043-0.092,0.066-0.153,0.069c-0.06,0.002-0.112-0.019-0.157-0.062
	c-0.044-0.043-0.068-0.094-0.071-0.155C26.316,31.431,26.336,31.379,26.379,31.335z M25.983,30.957
	c0.043-0.044,0.094-0.068,0.155-0.071c0.06-0.001,0.112,0.019,0.156,0.062c0.045,0.042,0.068,0.093,0.069,0.153
	c0,0.061-0.021,0.114-0.063,0.158c-0.041,0.043-0.092,0.066-0.153,0.069c-0.06,0.002-0.112-0.019-0.156-0.062
	c-0.043-0.041-0.067-0.092-0.069-0.153C25.921,31.052,25.941,31,25.983,30.957z M25.912,31.352l-0.629,0.66
	c-0.143,0.15-0.151,0.286-0.025,0.406c0.134,0.128,0.272,0.117,0.416-0.034l0.629-0.66l0.267,0.255l-0.629,0.66
	c-0.286,0.3-0.586,0.302-0.898,0.004c-0.305-0.291-0.314-0.586-0.028-0.887l0.629-0.66L25.912,31.352z M23.98,31.494l-0.244-0.281
	l0.465-0.403l0.361-0.931l0.255,0.294l-0.228,0.542l0.561-0.158l0.255,0.294l-0.964,0.243L23.98,31.494z M24.394,28.985
	c0.052-0.033,0.108-0.044,0.167-0.032C24.62,28.967,24.667,29,24.7,29.052c0.033,0.052,0.043,0.107,0.031,0.165
	c-0.014,0.059-0.047,0.105-0.099,0.138c-0.05,0.033-0.105,0.042-0.165,0.031c-0.058-0.012-0.104-0.045-0.137-0.097
	c-0.033-0.052-0.044-0.108-0.032-0.167C24.31,29.064,24.342,29.018,24.394,28.985z M24.099,28.524
	c0.052-0.033,0.108-0.044,0.167-0.032c0.058,0.013,0.104,0.045,0.137,0.097c0.033,0.052,0.043,0.107,0.031,0.165
	c-0.014,0.059-0.047,0.105-0.099,0.139c-0.05,0.032-0.105,0.043-0.165,0.031c-0.058-0.013-0.104-0.045-0.137-0.097
	c-0.033-0.05-0.043-0.105-0.031-0.165C24.016,28.602,24.048,28.557,24.099,28.524z M23.936,28.892l-0.768,0.492
	c-0.175,0.112-0.215,0.242-0.12,0.389c0.1,0.156,0.237,0.177,0.411,0.065l0.768-0.492l0.199,0.311l-0.768,0.492
	c-0.35,0.224-0.64,0.154-0.873-0.209c-0.227-0.355-0.167-0.644,0.183-0.868l0.768-0.492L23.936,28.892z M22.991,27.729l-0.235,0.106
	l0.062,0.137c0.032,0.071,0.092,0.087,0.179,0.047c0.069-0.031,0.088-0.082,0.056-0.154L22.991,27.729z M22.485,28.344
	c0.087-0.039,0.107-0.114,0.059-0.224l-0.071-0.157l-0.279,0.126l0.078,0.173C22.316,28.361,22.388,28.388,22.485,28.344z
	 M23.342,27.749c0.134,0.297,0.08,0.5-0.162,0.61c-0.089,0.04-0.189,0.047-0.3,0.021c-0.028,0.171-0.115,0.29-0.263,0.357
	c-0.114,0.051-0.227,0.049-0.339-0.007c-0.118-0.059-0.212-0.168-0.283-0.326l-0.237-0.523l1.365-0.617L23.342,27.749z"/>
</svg>
