<?xml version="1.0" encoding="iso-8859-1"?>
<!-- Generator: Adobe Illustrator 29.7.1, SVG Export Plug-In . SVG Version: 9.03 Build 0)  -->
<svg version="1.1" id="Layer_1" xmlns="http://www.w3.org/2000/svg" xmlns:xlink="http://www.w3.org/1999/xlink" x="0px" y="0px"
	 viewBox="0 0 350 350" style="enable-background:new 0 0 350 350;" xml:space="preserve">
<g>
	<path style="fill:#076213;" d="M148.915-273.946c48.838,0,96.232,11.007,140.857,32.711
		c43.203,21.015,82.035,51.131,115.405,89.509c33.458,38.473,59.732,83.298,78.102,133.229
		C502.318,33.275,511.967,88.281,511.967,145c0,56.716-9.649,111.728-28.688,163.491c-18.37,49.934-44.643,94.763-78.102,133.234
		c-33.369,38.376-72.202,68.492-115.405,89.508c-44.626,21.706-92.019,32.711-140.857,32.711
		c-48.843,0-96.233-11.005-140.857-32.711c-43.207-21.016-82.035-51.132-115.408-89.508c-33.454-38.471-59.732-83.3-78.096-133.234
		C-204.484,256.728-214.14,201.716-214.14,145c0-56.719,9.656-111.725,28.694-163.496c18.364-49.931,44.642-94.757,78.096-133.229
		c33.372-38.379,72.2-68.494,115.408-89.509C52.682-262.939,100.072-273.946,148.915-273.946 M148.915-283.5
		C-56.87-283.5-223.694-91.654-223.694,145c0,236.652,166.824,428.5,372.609,428.5c205.784,0,372.605-191.848,372.605-428.5
		C521.52-91.654,354.699-283.5,148.915-283.5L148.915-283.5z"/>
	<path style="fill:#076213;" d="M148.915-186.049c36.494,0,71.901,8.684,105.234,25.811c32.245,16.568,61.214,40.294,86.106,70.526
		c24.922,30.273,44.488,65.534,58.165,104.804c14.168,40.686,21.347,83.911,21.347,128.472c0,44.566-7.18,87.79-21.347,128.475
		c-13.677,39.272-33.243,74.53-58.165,104.803c-24.892,30.231-53.861,53.96-86.106,70.528
		c-33.333,17.127-68.741,25.81-105.234,25.81c-36.493,0-71.898-8.683-105.236-25.81c-32.245-16.568-61.214-40.297-86.102-70.528
		c-24.922-30.272-44.494-65.53-58.169-104.803c-14.168-40.686-21.352-83.909-21.352-128.475c0-44.561,7.184-87.786,21.352-128.472
		c13.675-39.27,33.247-74.531,58.169-104.804c24.888-30.232,53.857-53.959,86.102-70.526
		C77.017-177.364,112.423-186.049,148.915-186.049 M148.915-188.914c-151.174,0-273.723,148.856-273.723,332.479
		c0,183.625,122.55,332.485,273.723,332.485c151.175,0,273.723-148.86,273.723-332.485
		C422.638-40.058,300.09-188.914,148.915-188.914L148.915-188.914z"/>
	<g>
		<path style="fill:#076213;" d="M-168.256,6.965l1.376,0.332c-0.181,1.714-0.004,3.11,0.522,4.182
			c0.741,1.493,3.106,4.138,7.093,7.936l15.608,15.353l12.195,2.951c2.605,0.631,4.253,0.885,4.953,0.767
			c0.698-0.121,1.385-0.525,2.064-1.212c0.679-0.689,1.179-1.704,1.505-3.041l0.683-2.826l1.375,0.333l-6.851,28.294l-1.375-0.332
			l0.639-2.639c0.359-1.489,0.384-2.729,0.073-3.722c-0.191-0.729-0.662-1.381-1.415-1.958c-0.528-0.417-2.056-0.93-4.585-1.542
			l-10.113-2.449l-24.474,6.631c-4.833,1.323-7.746,2.375-8.737,3.158c-0.989,0.785-1.692,1.98-2.107,3.584l-1.375-0.333
			l5.851-24.167l1.376,0.333l-0.262,1.078c-0.354,1.463-0.39,2.536-0.11,3.22c0.281,0.685,0.656,1.083,1.127,1.2
			c0.892,0.214,3.376-0.234,7.452-1.348l18.899-5.065l-13.011-12.756c-3.171-3.156-5.367-4.881-6.58-5.175
			c-0.669-0.161-1.306,0.025-1.907,0.562c-0.824,0.694-1.571,2.152-2.24,4.377l-1.376-0.333L-168.256,6.965z"/>
		<path style="fill:#076213;" d="M-154.634-30.734c2.862-7.76,7.647-13.05,14.354-15.874c6.706-2.825,13.62-2.771,20.742,0.161
			c6.084,2.506,10.704,6.491,13.861,11.955c4.191,7.241,4.512,15.164,0.968,23.774c-3.554,8.629-9.224,14.102-17.013,16.41
			c-6.159,1.823-12.407,1.43-18.751-1.184c-7.123-2.931-12.064-7.798-14.818-14.6C-158.048-16.895-157.829-23.776-154.634-30.734z
			 M-152.194-30.227c-1.806,4.386-0.939,8.647,2.599,12.778c2.913,3.379,7.813,6.485,14.7,9.32
			c8.184,3.367,14.824,4.419,19.923,3.153c3.561-0.877,6.084-3.12,7.57-6.73c1-2.429,1.246-4.699,0.735-6.812
			c-0.653-2.696-2.402-5.305-5.238-7.825c-2.837-2.52-6.923-4.877-12.252-7.071c-6.344-2.611-11.331-3.975-14.967-4.092
			c-3.633-0.118-6.474,0.471-8.525,1.765C-149.699-34.446-151.214-32.61-152.194-30.227z"/>
		<path style="fill:#076213;" d="M-113.012-107.645l25.926,51.527l5.141-8.426c2.429-3.984,3.878-6.924,4.347-8.819
			c0.797-3.068,0.716-6.18-0.243-9.335c-0.96-3.153-2.983-6.166-6.072-9.036l0.779-1.273l14.906,11.557l-24.741,40.563l-25.974-51.6
			l-4.002,6.564c-1.554,2.548-2.5,4.271-2.839,5.17c-0.647,1.698-0.96,3.47-0.937,5.32c0.021,1.85,0.459,3.642,1.315,5.373
			c0.855,1.732,2.197,3.5,4.025,5.301l-0.735,1.209l-12.229-9.116L-113.012-107.645z"/>
		<path style="fill:#076213;" d="M-70.634-160.989l13.766,12.039l-0.933,1.066c-4.887-2.004-9.436-2.577-13.643-1.717
			c-4.208,0.861-7.647,2.816-10.316,5.869c-2.551,2.917-3.854,6.063-3.908,9.439c-0.055,3.375,1.034,6.748,3.267,10.124
			c2.231,3.375,4.893,6.414,7.984,9.118c3.745,3.273,7.414,5.701,11.007,7.287c3.594,1.586,6.914,1.973,9.961,1.163
			c3.046-0.809,5.751-2.566,8.119-5.273c0.822-0.941,1.563-1.993,2.227-3.158c0.665-1.167,1.258-2.436,1.78-3.808l-8.121-7.101
			c-1.536-1.343-2.622-2.107-3.258-2.291c-0.635-0.182-1.426-0.103-2.37,0.241c-0.941,0.342-1.826,0.985-2.648,1.925l-0.883,1.009
			l-1.064-0.931l16.596-18.979l1.064,0.933c-1.163,1.523-1.843,2.699-2.041,3.526c-0.196,0.826-0.085,1.696,0.338,2.608
			c0.215,0.492,1.031,1.359,2.453,2.6l8.119,7.102c-1.067,3.47-2.5,6.8-4.292,9.992c-1.793,3.192-3.956,6.24-6.492,9.139
			c-3.24,3.705-6.434,6.341-9.583,7.907c-3.149,1.565-6.36,2.568-9.639,3.003c-3.279,0.436-6.407,0.285-9.384-0.456
			c-3.826-0.973-7.38-2.895-10.663-5.765c-5.873-5.137-9.031-11.54-9.472-19.212c-0.441-7.67,2.074-14.634,7.549-20.893
			c1.695-1.938,3.378-3.551,5.044-4.837c0.892-0.712,2.526-1.696,4.899-2.959c2.373-1.26,3.711-2.064,4.014-2.409
			c0.469-0.537,0.708-1.208,0.719-2.013c0.01-0.804-0.366-1.878-1.125-3.219L-70.634-160.989z"/>
		<path style="fill:#076213;" d="M-8.886-163.111l-14.521,11.179l1.353,5.33c0.46,1.772,1.025,3.089,1.693,3.96
			c0.888,1.149,2.006,1.642,3.357,1.472c0.794-0.097,2.326-0.888,4.593-2.378l0.861,1.122l-13.67,10.524l-0.864-1.121
			c1.305-1.359,2.046-2.902,2.225-4.636c0.179-1.731-0.238-4.699-1.256-8.906l-10.545-44.119l0.577-0.441l40.773,22.299
			c3.871,2.103,6.582,3.22,8.13,3.349c1.167,0.097,2.418-0.284,3.75-1.149l0.863,1.121l-19.886,15.308l-0.864-1.121l0.817-0.631
			c1.598-1.229,2.547-2.315,2.852-3.257c0.196-0.667,0.061-1.303-0.406-1.908c-0.279-0.365-0.628-0.69-1.045-0.982
			c-0.179-0.151-1.067-0.676-2.66-1.574L-8.886-163.111z M-11.644-164.561l-17.019-9.444l4.591,19.011L-11.644-164.561z"/>
		<path style="fill:#076213;" d="M35.131-231.913l6.414,12.49l-1.224,0.629c-2.206-2.508-4.075-4.165-5.606-4.969
			c-1.53-0.804-3.261-1.185-5.188-1.142c-1.073,0.036-2.685,0.605-4.841,1.711l-3.437,1.765l18.283,35.597
			c1.211,2.36,2.098,3.766,2.662,4.22c0.565,0.457,1.341,0.71,2.327,0.764c0.988,0.052,2.139-0.26,3.454-0.936l1.533-0.788
			l0.644,1.261l-24.16,12.407l-0.646-1.258l1.53-0.786c1.339-0.689,2.294-1.48,2.866-2.376c0.426-0.619,0.613-1.403,0.556-2.349
			c-0.03-0.672-0.641-2.165-1.829-4.481l-18.282-35.596l-3.334,1.714c-3.108,1.598-5.026,3.413-5.757,5.452
			c-1.031,2.85-0.933,6.112,0.294,9.783l-1.294,0.665l-6.416-12.489L35.131-231.913z"/>
		<path style="fill:#076213;" d="M112.176-227.404c5.335,0.23,9.185,0.967,11.543,2.209c3.383,1.762,5.394,4.467,6.033,8.108
			c0.674,3.844-0.406,7.308-3.241,10.396c-3.487,3.744-9.066,6.29-16.734,7.634l-27.519,4.826l-0.245-1.393
			c2.503-0.441,4.162-0.956,4.977-1.553c0.814-0.596,1.341-1.276,1.577-2.044c0.238-0.765,0.112-2.532-0.372-5.294l-5.815-33.16
			c-0.484-2.762-0.97-4.47-1.454-5.125c-0.486-0.653-1.218-1.112-2.198-1.381c-0.981-0.268-2.708-0.185-5.185,0.249l-0.244-1.394
			l25.961-4.554c6.203-1.088,10.688-1.338,13.453-0.747c2.766,0.589,5.075,1.791,6.931,3.602c1.855,1.808,2.986,3.883,3.396,6.218
			c0.433,2.461-0.129,4.82-1.681,7.074C119.804-231.481,116.743-229.37,112.176-227.404z M97.458-225.873
			c3.781-0.662,6.499-1.553,8.157-2.674c1.656-1.118,2.835-2.49,3.539-4.114c0.704-1.626,0.856-3.569,0.459-5.832
			c-0.395-2.26-1.193-4.029-2.393-5.307c-1.199-1.281-2.742-2.142-4.631-2.587c-1.89-0.444-4.776-0.314-8.66,0.391L97.458-225.873z
			 M97.974-222.934l2.874,16.392l0.291,1.892c0.238,1.357,0.783,2.315,1.638,2.88c0.852,0.562,1.998,0.716,3.436,0.463
			c2.13-0.372,4.016-1.164,5.655-2.372c1.642-1.205,2.793-2.741,3.454-4.606c0.662-1.862,0.81-3.836,0.444-5.921
			c-0.418-2.388-1.379-4.426-2.884-6.117c-1.505-1.69-3.347-2.734-5.529-3.127C105.168-223.846,102.043-223.673,97.974-222.934z"/>
		<path style="fill:#076213;" d="M158.706-251.061l-1.094,21.09l1.094,0.057c3.479,0.181,6.056-0.72,7.736-2.702
			c1.668-1.982,2.827-4.975,3.467-8.976l1.536,0.079l-1.405,27.125l-1.542-0.079c-0.167-2.971-0.723-5.427-1.668-7.365
			c-0.945-1.938-2.086-3.268-3.425-3.989c-1.339-0.722-3.324-1.151-5.942-1.285l-0.759,14.592c-0.144,2.854-0.107,4.605,0.114,5.255
			c0.221,0.65,0.675,1.197,1.357,1.641c0.681,0.444,1.805,0.707,3.372,0.788l3.282,0.17c5.129,0.268,9.296-0.641,12.5-2.723
			c3.21-2.08,5.607-5.377,7.198-9.893l1.5,0.078l-3.33,16.339l-47.46-2.461l0.073-1.414l1.823,0.094
			c1.592,0.082,2.889-0.118,3.887-0.604c0.722-0.32,1.293-0.903,1.717-1.75c0.329-0.595,0.559-2.192,0.695-4.79l1.766-34.077
			c0.123-2.344,0.129-3.786,0.023-4.328c-0.224-0.904-0.689-1.619-1.391-2.139c-0.991-0.768-2.373-1.199-4.156-1.288l-1.823-0.096
			l0.075-1.414l45.962,2.384l-0.795,15.32l-1.542-0.081c-0.586-3.784-1.542-6.528-2.875-8.231c-1.333-1.702-3.282-3.006-5.829-3.902
			c-1.489-0.537-4.316-0.913-8.471-1.132L158.706-251.061z"/>
		<path style="fill:#076213;" d="M242.827-203.951l-6.97,16.951l-46.963-13.35l0.389-1.361l1.757,0.499
			c1.53,0.436,2.839,0.53,3.921,0.281c0.777-0.151,1.459-0.593,2.063-1.323c0.454-0.508,1.034-2.011,1.746-4.515l9.332-32.823
			c0.723-2.551,1.034-4.185,0.933-4.906c-0.108-0.719-0.526-1.441-1.261-2.167c-0.735-0.728-1.841-1.3-3.324-1.722l-1.757-0.499
			l0.389-1.361l28.198,8.016l-0.383,1.363l-2.302-0.654c-1.536-0.436-2.846-0.529-3.927-0.281c-0.771,0.152-1.477,0.589-2.104,1.312
			c-0.448,0.507-1.034,2.012-1.746,4.513l-9.039,31.794c-0.724,2.553-1.028,4.22-0.915,5.008c0.114,0.789,0.574,1.484,1.387,2.086
			c0.586,0.407,2.134,0.964,4.627,1.672l4.406,1.254c2.81,0.798,5.285,0.997,7.419,0.596c2.134-0.399,4.178-1.412,6.115-3.034
			c1.937-1.626,4.071-4.225,6.409-7.801L242.827-203.951z"/>
		<path style="fill:#076213;" d="M282.378-218.499l-9.977,18.614l0.968,0.516c3.067,1.648,5.787,1.933,8.142,0.852
			c2.361-1.08,4.681-3.294,6.97-6.641l1.357,0.728l-12.835,23.94l-1.357-0.728c1.112-2.762,1.656-5.219,1.626-7.374
			c-0.024-2.155-0.49-3.845-1.399-5.069c-0.909-1.224-2.517-2.456-4.83-3.695l-6.899,12.879c-1.351,2.518-2.062,4.117-2.14,4.802
			c-0.072,0.683,0.102,1.37,0.532,2.062c0.424,0.692,1.327,1.408,2.714,2.148l2.893,1.553c4.525,2.426,8.686,3.381,12.47,2.865
			c3.79-0.514,7.365-2.476,10.724-5.885l1.321,0.71l-9.965,13.364l-41.894-22.452l0.669-1.248l1.608,0.862
			c1.405,0.755,2.666,1.124,3.778,1.112c0.783,0.018,1.548-0.266,2.296-0.852c0.55-0.398,1.441-1.744,2.672-4.038l16.117-30.076
			c1.106-2.067,1.727-3.37,1.865-3.905c0.185-0.915,0.066-1.757-0.346-2.527c-0.568-1.117-1.644-2.095-3.216-2.938l-1.602-0.862
			l0.664-1.248l40.573,21.742l-7.251,13.521l-1.357-0.728c1.076-3.675,1.381-6.567,0.903-8.676
			c-0.484-2.109-1.686-4.114-3.611-6.014c-1.118-1.121-3.515-2.663-7.18-4.628L282.378-218.499z"/>
		<path style="fill:#076213;" d="M288.003-160.054l0.915-1.085l1.393,1.17c1.225,1.022,2.319,1.626,3.27,1.811
			c0.956,0.184,1.853,0.094,2.684-0.272c0.532-0.257,1.662-1.411,3.378-3.464l21.885-26.179c1.704-2.034,2.648-3.401,2.851-4.101
			c0.197-0.701,0.108-1.53-0.269-2.493c-0.376-0.964-1.154-1.938-2.337-2.928l-1.399-1.169l0.909-1.088l18.884,15.789
			c5.039,4.214,8.549,8.251,10.539,12.107c2.433,4.726,3.276,9.502,2.529,14.332c-0.747,4.83-2.81,9.27-6.193,13.32
			c-2.337,2.799-4.974,4.977-7.897,6.536c-2.923,1.56-5.787,2.476-8.584,2.745c-2.798,0.271-5.578,0.042-8.333-0.686
			c-2.762-0.726-5.787-2.031-9.069-3.914c-1.465-0.825-3.557-2.372-6.271-4.643L288.003-160.054z M335.474-184.142l-25.962,31.049
			c-1.375,1.644-2.134,2.723-2.277,3.233c-0.144,0.51-0.102,1.028,0.131,1.553c0.311,0.762,0.998,1.584,2.056,2.469
			c3.461,2.898,7.036,3.993,10.731,3.288c5.003-0.933,10.156-4.569,15.459-10.907c4.268-5.107,6.833-9.898,7.682-14.371
			c0.646-3.515,0.275-6.588-1.118-9.217C341.189-178.899,338.953-181.266,335.474-184.142z"/>
		<path style="fill:#076213;" d="M353.162-100.172l-1.064,0.94l-19.07-21.516l1.058-0.938l1.214,1.366
			c1.058,1.194,2.11,1.977,3.156,2.349c0.736,0.29,1.548,0.289,2.451-0.003c0.652-0.186,1.955-1.139,3.898-2.865l25.538-22.634
			c1.985-1.759,3.132-2.969,3.425-3.632c0.299-0.664,0.335-1.498,0.108-2.506c-0.233-1.007-0.855-2.088-1.877-3.24l-1.207-1.366
			l1.058-0.939l19.07,21.515l-1.058,0.94l-1.214-1.366c-1.052-1.194-2.11-1.979-3.157-2.349c-0.729-0.291-1.56-0.299-2.475-0.028
			c-0.652,0.185-1.955,1.139-3.904,2.865l-25.538,22.634c-1.985,1.76-3.12,2.975-3.413,3.648c-0.287,0.671-0.317,1.513-0.09,2.52
			c0.227,1.009,0.855,2.088,1.877,3.242L353.162-100.172z M392.79-154.539c1.094,1.233,1.62,2.651,1.572,4.247
			c-0.054,1.597-0.658,2.911-1.823,3.944c-1.166,1.031-2.547,1.477-4.131,1.335c-1.596-0.144-2.941-0.831-4.029-2.067
			c-1.094-1.233-1.62-2.648-1.572-4.244c0.054-1.598,0.657-2.914,1.823-3.946c1.165-1.033,2.547-1.476,4.131-1.334
			C390.358-156.462,391.697-155.773,392.79-154.539z"/>
		<path style="fill:#076213;" d="M429.651-78.426l-1.178,0.786c-1.196-1.381-2.379-2.264-3.557-2.648
			c-1.638-0.532-5.255-0.691-10.838-0.475l-22.244,0.492l-10.443,6.957c-2.23,1.485-3.533,2.53-3.91,3.14
			c-0.376,0.608-0.526,1.415-0.454,2.423c0.078,1.007,0.514,2.118,1.327,3.333l1.71,2.565l-1.184,0.786l-17.109-25.683l1.178-0.784
			l1.596,2.396c0.896,1.349,1.835,2.27,2.804,2.76c0.687,0.387,1.507,0.51,2.457,0.366c0.67-0.093,2.086-0.859,4.256-2.302
			l8.656-5.769l11.328-23.088c2.224-4.57,3.372-7.508,3.431-8.819c0.066-1.309-0.383-2.701-1.333-4.177l1.178-0.784l14.616,21.936
			l-1.177,0.784l-0.658-0.979c-0.879-1.327-1.68-2.136-2.397-2.423c-0.711-0.29-1.267-0.301-1.668-0.03
			c-0.765,0.508-2.092,2.689-3.969,6.538l-8.781,17.79l18.502-0.439c4.549-0.075,7.341-0.456,8.387-1.149
			c0.568-0.383,0.855-0.994,0.849-1.832c0.018-1.119-0.598-2.738-1.859-4.856l1.184-0.783L429.651-78.426z"/>
		<path style="fill:#076213;" d="M440.285-49.225l-19.201,8.789l0.455,0.995c1.446,3.17,3.443,5.039,5.972,5.606
			c2.529,0.563,5.721,0.206,9.565-1.078l0.64,1.401L413.02-22.206l-0.646-1.402c2.559-1.526,4.472-3.155,5.763-4.889
			c1.279-1.731,1.931-3.359,1.949-4.882c0.018-1.524-0.52-3.481-1.614-5.864l-13.283,6.084c-2.6,1.188-4.137,2.033-4.609,2.532
			c-0.472,0.499-0.747,1.152-0.831,1.961c-0.078,0.81,0.209,1.926,0.867,3.352l1.363,2.988c2.14,4.67,4.872,7.945,8.202,9.825
			c3.33,1.88,7.365,2.481,12.1,1.799l0.627,1.364l-16.021,4.613l-19.787-43.211l1.291-0.59l0.759,1.659
			c0.664,1.451,1.441,2.506,2.332,3.167c0.622,0.492,1.399,0.728,2.343,0.713c0.681,0.013,2.206-0.519,4.573-1.602l31.026-14.204
			c2.134-0.976,3.414-1.637,3.844-1.985c0.699-0.616,1.118-1.357,1.256-2.222c0.221-1.233-0.036-2.659-0.783-4.28l-0.759-1.66
			l1.285-0.589l19.159,41.85l-13.946,6.385l-0.64-1.402c3.079-2.275,5.069-4.395,5.96-6.365c0.896-1.968,1.148-4.294,0.765-6.972
			c-0.215-1.568-1.184-4.246-2.917-8.03L440.285-49.225z"/>
		<path style="fill:#076213;" d="M471.167,22.317L454.77,27.82l-0.484-1.59c3.909-2.023,6.677-4.887,8.303-8.595
			c1.62-3.708,1.907-7.268,0.861-10.68c-0.807-2.635-2.116-4.518-3.916-5.648c-1.805-1.128-3.569-1.429-5.296-0.896
			c-1.1,0.338-1.991,0.908-2.678,1.712c-0.915,1.102-1.68,2.651-2.296,4.65c-0.431,1.461-0.993,4.705-1.692,9.726
			c-0.968,7.027-2.385,12.001-4.262,14.926c-1.883,2.898-4.459,4.848-7.723,5.852c-4.149,1.273-8.238,0.656-12.273-1.85
			c-4.041-2.508-6.869-6.396-8.489-11.669c-0.508-1.653-0.831-3.265-0.968-4.836c-0.132-1.571-0.108-3.602,0.09-6.094
			c0.108-1.39,0.042-2.485-0.203-3.286c-0.209-0.673-0.676-1.308-1.387-1.907c-0.717-0.601-1.65-0.979-2.792-1.137l-0.443-1.435
			l18.723-5.749l0.442,1.433c-4.92,2.754-8.261,6.178-10.031,10.273c-1.776,4.09-2.08,8.012-0.933,11.759
			c0.891,2.893,2.343,4.972,4.358,6.233c2.015,1.263,4.011,1.592,5.984,0.983c1.172-0.359,2.2-1.037,3.097-2.033
			c0.897-0.995,1.632-2.318,2.206-3.965s1.13-4.421,1.662-8.318c0.753-5.462,1.59-9.478,2.505-12.052
			c0.915-2.57,2.164-4.717,3.748-6.432c1.578-1.716,3.527-2.929,5.846-3.639c3.946-1.215,7.783-0.711,11.508,1.511
			c3.724,2.222,6.307,5.672,7.741,10.349c0.526,1.705,0.837,3.418,0.938,5.141c0.084,1.303-0.006,2.952-0.263,4.938
			c-0.257,1.989-0.275,3.33-0.066,4.029c0.209,0.672,0.568,1.142,1.076,1.409c0.508,0.268,1.554,0.341,3.144,0.221L471.167,22.317z"
			/>
		<path style="fill:#076213;" d="M429.626,74.291l-1.387,0.281l-5.715-28.177l1.387-0.281l0.365,1.787
			c0.317,1.563,0.837,2.769,1.554,3.617c0.49,0.619,1.196,1.025,2.122,1.226c0.657,0.17,2.26-0.003,4.812-0.522l33.441-6.779
			c2.6-0.526,4.197-1,4.788-1.423c0.586-0.425,1.04-1.128,1.345-2.116c0.311-0.986,0.311-2.234,0-3.745l-0.359-1.787l1.387-0.281
			l5.715,28.177l-1.393,0.281l-0.359-1.787c-0.317-1.565-0.837-2.768-1.554-3.618c-0.49-0.617-1.202-1.039-2.134-1.264
			c-0.652-0.17-2.26,0.006-4.812,0.522l-33.44,6.779c-2.601,0.526-4.197,1.007-4.782,1.444c-0.586,0.438-1.034,1.148-1.339,2.135
			c-0.311,0.986-0.311,2.234-0.006,3.744L429.626,74.291z M491.176,47.126c0.329,1.617,0.072,3.102-0.771,4.459
			c-0.843,1.36-2.026,2.191-3.551,2.502c-1.524,0.308-2.941,0.002-4.25-0.919c-1.303-0.922-2.122-2.191-2.445-3.808
			c-0.329-1.615-0.072-3.102,0.771-4.459c0.843-1.357,2.027-2.189,3.557-2.499c1.524-0.308,2.935-0.005,4.244,0.919
			C490.034,44.242,490.853,45.51,491.176,47.126z"/>
	</g>
	<g>
		<path style="fill:#076213;" d="M90.945,487.737l-12.98,43.639c-0.977,3.282-1.456,5.416-1.435,6.406
			c0.019,0.992,0.403,1.913,1.149,2.765c0.746,0.849,2.13,1.575,4.15,2.176l1.22,0.362l-0.433,1.456l-28.096-8.357l0.433-1.456
			l1.417,0.424c2.282,0.679,3.986,0.897,5.113,0.664c1.127-0.236,1.997-0.762,2.612-1.578c0.613-0.819,1.42-2.905,2.418-6.265
			l8.229-27.663c0.734-2.469,1.073-4.044,1.021-4.729c-0.052-0.687-0.336-1.345-0.85-1.967c-0.514-0.622-1.19-1.058-2.031-1.309
			c-1.336-0.401-3.089-0.463-5.253-0.194l-0.287-1.626l22.305-3.133L90.945,487.737z"/>
		<path style="fill:#076213;" d="M130.153,520.057c3.59,3.27,6.008,6.22,7.259,8.844c1.248,2.624,1.702,5.527,1.366,8.71
			c-0.475,4.466-2.556,8.061-6.246,10.793c-3.69,2.735-8.418,3.793-14.189,3.18c-5.471-0.58-9.559-2.379-12.268-5.392
			c-2.708-3.01-3.854-6.462-3.442-10.354c0.315-2.965,1.456-5.476,3.421-7.523c1.964-2.047,5.06-3.784,9.285-5.207
			c-4.028-3.811-6.547-6.848-7.559-9.098c-1.013-2.257-1.37-4.785-1.074-7.589c0.395-3.697,2.312-6.794,5.755-9.275
			c3.442-2.487,7.898-3.437,13.37-2.854c5.28,0.559,9.209,2.236,11.789,5.028c2.581,2.795,3.684,5.93,3.315,9.415
			c-0.277,2.613-1.29,4.836-3.041,6.674C136.143,517.247,133.564,518.799,130.153,520.057z M118.193,525.395
			c-0.924,0.67-1.596,1.3-2.018,1.892c-0.646,0.894-1.284,2.23-1.911,4.005c-0.629,1.778-1.049,3.659-1.26,5.646
			c-0.272,2.562-0.172,4.737,0.297,6.534c0.47,1.799,1.269,3.144,2.399,4.032c1.13,0.894,2.336,1.405,3.614,1.539
			c1.988,0.212,3.738-0.335,5.255-1.65c1.515-1.312,2.409-3.234,2.677-5.766C127.805,536.353,124.79,530.94,118.193,525.395z
			 M127.272,517.648c1.154-1.255,2.062-2.699,2.732-4.334c0.669-1.638,1.112-3.461,1.324-5.476c0.375-3.536-0.099-6.328-1.424-8.366
			c-0.988-1.563-2.49-2.454-4.504-2.666c-1.825-0.191-3.445,0.299-4.865,1.485c-1.42,1.184-2.234,2.756-2.442,4.717
			c-0.209,1.985,0.285,4.125,1.488,6.412C120.783,511.709,123.346,514.45,127.272,517.648z"/>
		<path style="fill:#076213;" d="M164.857,552.861l11.52-46.984l-11.502,0.9c-4.501,0.356-7.843,1.204-10.013,2.558
			c-1.518,0.939-2.708,2.583-3.569,4.929l-1.553,0.122l2.665-17.545l33.07-2.588l-14.192,58.106L164.857,552.861z"/>
		<path style="fill:#076213;" d="M198.034,527.126l16.254-41.466l4.842-1.297l9.278,34.618l4.92-1.318l2.2,8.208l-4.92,1.318
			l3.234,12.055l-10.904,2.926l-3.234-12.058l-19.47,5.222L198.034,527.126z M201.884,526.095l15.621-4.19l-5.685-21.216
			L201.884,526.095z"/>
	</g>
	<path style="fill:#076213;" d="M149.338-166.462c33.919,0,66.852,8.111,97.865,24.106c30.117,15.529,57.197,37.803,80.493,66.201
		c23.404,28.54,41.792,61.805,54.651,98.874c13.349,38.476,20.116,79.363,20.116,121.532c0,42.167-6.767,83.056-20.116,121.533
		c-12.859,37.069-31.247,70.334-54.651,98.872c-23.296,28.398-50.376,50.672-80.493,66.2
		c-31.014,15.997-63.946,24.109-97.865,24.109c-33.925,0-66.852-8.112-97.868-24.109c-30.116-15.528-57.196-37.802-80.489-66.2
		c-23.408-28.539-41.796-61.803-54.656-98.872c-13.347-38.477-20.114-79.366-20.114-121.533c0-42.169,6.767-83.056,20.114-121.532
		c12.86-37.069,31.248-70.334,54.656-98.874c23.293-28.398,50.373-50.672,80.489-66.201
		C82.487-158.351,115.413-166.462,149.338-166.462 M149.338-176.016c-145.076,0-262.683,143.389-262.683,320.268
		c0,176.877,117.607,320.268,262.683,320.268c145.073,0,262.677-143.39,262.677-320.268
		C412.015-32.628,294.411-176.016,149.338-176.016L149.338-176.016z"/>
	<path style="fill:none;" d="M-35.97-17.705L94.969,138.671c17.536-12.595,31.967-29.51,48.09-44.389"/>
	<g>
		<path style="fill:#076213;" d="M337.034,147.158c-22.997,8.034-56.181,12.82-86.011,12.093
			c-15.68-0.383-33.686-1.064-48.726,2.869c-11.161,2.917-27.361,12.177-30.404,21.443l-0.084,78.664l28.879-33.351
			c1.034-1.196,2.846-1.327,4.041-0.29c1.196,1.034,1.327,2.846,0.293,4.044l-38.964,44.993l0.119-116.765l-56.472,54.854
			l-0.088,224.682l228.349-290.696l3.168-3.988L337.034,147.158z"/>
		<path style="fill:#076213;" d="M104.479,212.781l67.449-65.492v0.263L338.923-10.818l4.334-5.314l-5.661,1.553
			C304.37-3.811,281.517-2.278,248.477-3.971c-7.831-0.402-16.308-1.899-25.119-1.444L222.299-5.4
			C215.646-5,205.083-3.734,192.236,0.033c-19.59,5.743-48.601,18.733-75.529,48.008l-0.084,0.087
			c-3.887,3.887-7.263,6.48-11.025,6.48c-0.095,0-0.194-0.002-0.291-0.005c-3.898-0.139-7.027-3.146-9.825-6.375L95.37,48.09
			L76.897,23.884c-0.96-1.258-0.719-3.058,0.541-4.017c1.258-0.962,3.055-0.719,4.017,0.54l18.417,24.133
			c2.566,2.95,4.307,4.288,5.638,4.334c1.433,0.064,3.712-1.459,7.018-4.757C147.453,6.171,185.559-5.9,208.735-9.657
			c-11.806-3.92-58.665-17.309-93.385,17.947c-0.643-5.462-8.731-10.33-12.421-11.466C66.794-14.301-2.33-1.104-34.137-20.255
			c-1.952-1.254-8.601-5.891-8.601-5.891L94.33,138.232l0.179,0.245l93.643-85.84c1.166-1.069,2.983-0.99,4.053,0.176
			c1.07,1.167,0.993,2.98-0.179,4.05l-97.916,88.874l-1.303,1.2c-7.685,6.671-15.517,13.827-22.363,21.867
			c-11.572,13.594-26.303,35.647-25.798,54.462c0.557,20.776,15.374,39.508,24.841,54.462l32.405,46.724
			c0.59,0.63,1.515,1.572,2.769,2.723L104.479,212.781z"/>
	</g>
</g>
</svg>
