<?xml version="1.0" encoding="UTF-8"?>
<svg id="Layer_2" data-name="Layer 2" xmlns="http://www.w3.org/2000/svg" viewBox="0 0 745.21 857">
  <defs>
    <style>
      .cls-1 {
        fill: none;
      }

      .cls-2 {
        fill: #076213;
      }
    </style>
  </defs>
  <g id="Layer_1-2" data-name="Layer 1">
    <g>
      <path class="cls-2" d="M372.61,9.55c48.84,0,96.23,11.01,140.86,32.71,43.2,21.01,82.04,51.13,115.4,89.51,33.46,38.47,59.73,83.3,78.1,133.23,19.04,51.77,28.69,106.78,28.69,163.5s-9.65,111.73-28.69,163.49c-18.37,49.93-44.64,94.76-78.1,133.23-33.37,38.38-72.2,68.49-115.4,89.51-44.63,21.71-92.02,32.71-140.86,32.71s-96.23-11.01-140.86-32.71c-43.21-21.02-82.04-51.13-115.41-89.51-33.45-38.47-59.73-83.3-78.1-133.23-19.04-51.76-28.69-106.77-28.69-163.49s9.66-111.72,28.69-163.5c18.36-49.93,44.64-94.76,78.1-133.23,33.37-38.38,72.2-68.49,115.41-89.51,44.62-21.7,92.01-32.71,140.86-32.71M372.61,0C166.82,0,0,191.85,0,428.5s166.82,428.5,372.61,428.5,372.61-191.85,372.61-428.5S578.39,0,372.61,0h0Z"/>
      <path class="cls-2" d="M372.61,97.45c36.49,0,71.9,8.68,105.23,25.81,32.24,16.57,61.21,40.29,86.11,70.53,24.92,30.27,44.49,65.53,58.17,104.8,14.17,40.69,21.35,83.91,21.35,128.47s-7.18,87.79-21.35,128.47c-13.68,39.27-33.24,74.53-58.17,104.8-24.89,30.23-53.86,53.96-86.11,70.53-33.33,17.13-68.74,25.81-105.23,25.81s-71.9-8.68-105.24-25.81c-32.24-16.57-61.21-40.3-86.1-70.53-24.92-30.27-44.49-65.53-58.17-104.8-14.17-40.69-21.35-83.91-21.35-128.48s7.18-87.79,21.35-128.47c13.68-39.27,33.25-74.53,58.17-104.8,24.89-30.23,53.86-53.96,86.1-70.53,33.34-17.13,68.74-25.81,105.24-25.81M372.61,94.59c-151.17,0-273.72,148.86-273.72,332.48s122.55,332.48,273.72,332.48,273.72-148.86,273.72-332.48S523.78,94.59,372.61,94.59h0Z"/>
      <g>
        <path class="cls-2" d="M55.44,290.47l1.38.33c-.18,1.71,0,3.11.52,4.18.74,1.49,3.11,4.14,7.09,7.94l15.61,15.35,12.2,2.95c2.6.63,4.25.88,4.95.77.7-.12,1.39-.53,2.06-1.21.68-.69,1.18-1.7,1.5-3.04l.68-2.83,1.38.33-6.85,28.29-1.38-.33.64-2.64c.36-1.49.38-2.73.07-3.72-.19-.73-.66-1.38-1.41-1.96-.53-.42-2.06-.93-4.59-1.54l-10.11-2.45-24.47,6.63c-4.83,1.32-7.75,2.38-8.74,3.16-.99.78-1.69,1.98-2.11,3.58l-1.38-.33,5.85-24.17,1.38.33-.26,1.08c-.35,1.46-.39,2.54-.11,3.22.28.69.66,1.08,1.13,1.2.89.21,3.38-.23,7.45-1.35l18.9-5.06-13.01-12.76c-3.17-3.16-5.37-4.88-6.58-5.17-.67-.16-1.31.02-1.91.56-.82.69-1.57,2.15-2.24,4.38l-1.38-.33,3.73-15.39Z"/>
        <path class="cls-2" d="M69.06,252.77c2.86-7.76,7.65-13.05,14.35-15.87,6.71-2.83,13.62-2.77,20.74.16,6.08,2.51,10.7,6.49,13.86,11.96,4.19,7.24,4.51,15.16.97,23.77-3.55,8.63-9.22,14.1-17.01,16.41-6.16,1.82-12.41,1.43-18.75-1.18-7.12-2.93-12.06-7.8-14.82-14.6-2.76-6.8-2.54-13.68.66-20.64ZM71.5,253.27c-1.81,4.39-.94,8.65,2.6,12.78,2.91,3.38,7.81,6.49,14.7,9.32,8.18,3.37,14.82,4.42,19.92,3.15,3.56-.88,6.08-3.12,7.57-6.73,1-2.43,1.25-4.7.74-6.81-.65-2.7-2.4-5.31-5.24-7.82-2.84-2.52-6.92-4.88-12.25-7.07-6.34-2.61-11.33-3.97-14.97-4.09-3.63-.12-6.47.47-8.52,1.76-2.05,1.29-3.57,3.13-4.55,5.51Z"/>
        <path class="cls-2" d="M110.68,175.86l25.93,51.53,5.14-8.43c2.43-3.98,3.88-6.92,4.35-8.82.8-3.07.72-6.18-.24-9.33-.96-3.15-2.98-6.17-6.07-9.04l.78-1.27,14.91,11.56-24.74,40.56-25.97-51.6-4,6.56c-1.55,2.55-2.5,4.27-2.84,5.17-.65,1.7-.96,3.47-.94,5.32.02,1.85.46,3.64,1.32,5.37.86,1.73,2.2,3.5,4.03,5.3l-.74,1.21-12.23-9.12,21.33-34.98Z"/>
        <path class="cls-2" d="M153.06,122.51l13.77,12.04-.93,1.07c-4.89-2-9.44-2.58-13.64-1.72-4.21.86-7.65,2.82-10.32,5.87-2.55,2.92-3.85,6.06-3.91,9.44-.06,3.38,1.03,6.75,3.27,10.12,2.23,3.38,4.89,6.41,7.98,9.12,3.75,3.27,7.41,5.7,11.01,7.29,3.59,1.59,6.91,1.97,9.96,1.16,3.05-.81,5.75-2.57,8.12-5.27.82-.94,1.56-1.99,2.23-3.16.67-1.17,1.26-2.44,1.78-3.81l-8.12-7.1c-1.54-1.34-2.62-2.11-3.26-2.29-.63-.18-1.43-.1-2.37.24-.94.34-1.83.99-2.65,1.93l-.88,1.01-1.06-.93,16.6-18.98,1.06.93c-1.16,1.52-1.84,2.7-2.04,3.53-.2.83-.08,1.7.34,2.61.22.49,1.03,1.36,2.45,2.6l8.12,7.1c-1.07,3.47-2.5,6.8-4.29,9.99-1.79,3.19-3.96,6.24-6.49,9.14-3.24,3.71-6.43,6.34-9.58,7.91-3.15,1.57-6.36,2.57-9.64,3-3.28.44-6.41.29-9.38-.46-3.83-.97-7.38-2.89-10.66-5.76-5.87-5.14-9.03-11.54-9.47-19.21-.44-7.67,2.07-14.63,7.55-20.89,1.69-1.94,3.38-3.55,5.04-4.84.89-.71,2.53-1.7,4.9-2.96,2.37-1.26,3.71-2.06,4.01-2.41.47-.54.71-1.21.72-2.01.01-.8-.37-1.88-1.12-3.22l.93-1.07Z"/>
        <path class="cls-2" d="M214.81,120.39l-14.52,11.18,1.35,5.33c.46,1.77,1.02,3.09,1.69,3.96.89,1.15,2.01,1.64,3.36,1.47.79-.1,2.33-.89,4.59-2.38l.86,1.12-13.67,10.52-.86-1.12c1.31-1.36,2.05-2.9,2.23-4.64.18-1.73-.24-4.7-1.26-8.91l-10.54-44.12.58-.44,40.77,22.3c3.87,2.1,6.58,3.22,8.13,3.35,1.17.1,2.42-.28,3.75-1.15l.86,1.12-19.89,15.31-.86-1.12.82-.63c1.6-1.23,2.55-2.32,2.85-3.26.2-.67.06-1.3-.41-1.91-.28-.37-.63-.69-1.04-.98-.18-.15-1.07-.68-2.66-1.57l-6.13-3.44ZM212.05,118.94l-17.02-9.44,4.59,19.01,12.43-9.57Z"/>
        <path class="cls-2" d="M258.83,51.59l6.41,12.49-1.22.63c-2.21-2.51-4.08-4.16-5.61-4.97-1.53-.8-3.26-1.18-5.19-1.14-1.07.04-2.68.6-4.84,1.71l-3.44,1.76,18.28,35.6c1.21,2.36,2.1,3.77,2.66,4.22.56.46,1.34.71,2.33.76.99.05,2.14-.26,3.45-.94l1.53-.79.64,1.26-24.16,12.41-.65-1.26,1.53-.79c1.34-.69,2.29-1.48,2.87-2.38.43-.62.61-1.4.56-2.35-.03-.67-.64-2.16-1.83-4.48l-18.28-35.6-3.33,1.71c-3.11,1.6-5.03,3.41-5.76,5.45-1.03,2.85-.93,6.11.29,9.78l-1.29.66-6.42-12.49,41.45-21.29Z"/>
        <path class="cls-2" d="M335.87,56.1c5.33.23,9.18.97,11.54,2.21,3.38,1.76,5.39,4.47,6.03,8.11.67,3.84-.41,7.31-3.24,10.4-3.49,3.74-9.07,6.29-16.73,7.63l-27.52,4.83-.25-1.39c2.5-.44,4.16-.96,4.98-1.55.81-.6,1.34-1.28,1.58-2.04.24-.76.11-2.53-.37-5.29l-5.82-33.16c-.48-2.76-.97-4.47-1.45-5.12-.49-.65-1.22-1.11-2.2-1.38-.98-.27-2.71-.18-5.18.25l-.24-1.39,25.96-4.55c6.2-1.09,10.69-1.34,13.45-.75,2.77.59,5.07,1.79,6.93,3.6,1.86,1.81,2.99,3.88,3.4,6.22.43,2.46-.13,4.82-1.68,7.07-1.55,2.25-4.62,4.36-9.18,6.33ZM321.15,57.63c3.78-.66,6.5-1.55,8.16-2.67,1.66-1.12,2.83-2.49,3.54-4.11.7-1.63.86-3.57.46-5.83-.39-2.26-1.19-4.03-2.39-5.31-1.2-1.28-2.74-2.14-4.63-2.59-1.89-.44-4.78-.31-8.66.39l3.53,20.12ZM321.67,60.57l2.87,16.39.29,1.89c.24,1.36.78,2.32,1.64,2.88.85.56,2,.72,3.44.46,2.13-.37,4.02-1.16,5.65-2.37,1.64-1.21,2.79-2.74,3.45-4.61.66-1.86.81-3.84.44-5.92-.42-2.39-1.38-4.43-2.88-6.12-1.5-1.69-3.35-2.73-5.53-3.13-2.18-.4-5.31-.22-9.38.52Z"/>
        <path class="cls-2" d="M382.4,32.44l-1.09,21.09,1.09.06c3.48.18,6.06-.72,7.74-2.7,1.67-1.98,2.83-4.98,3.47-8.98l1.54.08-1.4,27.12-1.54-.08c-.17-2.97-.72-5.43-1.67-7.37-.95-1.94-2.09-3.27-3.43-3.99-1.34-.72-3.32-1.15-5.94-1.29l-.76,14.59c-.14,2.85-.11,4.6.11,5.26.22.65.68,1.2,1.36,1.64.68.44,1.8.71,3.37.79l3.28.17c5.13.27,9.3-.64,12.5-2.72,3.21-2.08,5.61-5.38,7.2-9.89l1.5.08-3.33,16.34-47.46-2.46.07-1.41,1.82.09c1.59.08,2.89-.12,3.89-.6.72-.32,1.29-.9,1.72-1.75.33-.6.56-2.19.7-4.79l1.77-34.08c.12-2.34.13-3.79.02-4.33-.22-.9-.69-1.62-1.39-2.14-.99-.77-2.37-1.2-4.16-1.29l-1.82-.1.07-1.41,45.96,2.38-.79,15.32-1.54-.08c-.59-3.78-1.54-6.53-2.88-8.23-1.33-1.7-3.28-3.01-5.83-3.9-1.49-.54-4.32-.91-8.47-1.13l-5.67-.29Z"/>
        <path class="cls-2" d="M466.52,79.55l-6.97,16.95-46.96-13.35.39-1.36,1.76.5c1.53.44,2.84.53,3.92.28.78-.15,1.46-.59,2.06-1.32.45-.51,1.03-2.01,1.75-4.51l9.33-32.82c.72-2.55,1.03-4.18.93-4.91-.11-.72-.53-1.44-1.26-2.17-.74-.73-1.84-1.3-3.32-1.72l-1.76-.5.39-1.36,28.2,8.02-.38,1.36-2.3-.65c-1.54-.44-2.85-.53-3.93-.28-.77.15-1.48.59-2.1,1.31-.45.51-1.03,2.01-1.75,4.51l-9.04,31.79c-.72,2.55-1.03,4.22-.91,5.01.11.79.57,1.48,1.39,2.09.59.41,2.13.96,4.63,1.67l4.41,1.25c2.81.8,5.29,1,7.42.6,2.13-.4,4.18-1.41,6.12-3.03,1.94-1.63,4.07-4.23,6.41-7.8l1.6.45Z"/>
        <path class="cls-2" d="M506.07,65l-9.98,18.61.97.52c3.07,1.65,5.79,1.93,8.14.85,2.36-1.08,4.68-3.29,6.97-6.64l1.36.73-12.83,23.94-1.36-.73c1.11-2.76,1.66-5.22,1.63-7.37-.02-2.15-.49-3.85-1.4-5.07s-2.52-2.46-4.83-3.7l-6.9,12.88c-1.35,2.52-2.06,4.12-2.14,4.8-.07.68.1,1.37.53,2.06.42.69,1.33,1.41,2.71,2.15l2.89,1.55c4.52,2.43,8.69,3.38,12.47,2.87,3.79-.51,7.36-2.48,10.72-5.88l1.32.71-9.96,13.36-41.89-22.45.67-1.25,1.61.86c1.4.76,2.67,1.12,3.78,1.11.78.02,1.55-.27,2.3-.85.55-.4,1.44-1.74,2.67-4.04l16.12-30.08c1.11-2.07,1.73-3.37,1.86-3.9.18-.91.07-1.76-.35-2.53-.57-1.12-1.64-2.1-3.22-2.94l-1.6-.86.66-1.25,40.57,21.74-7.25,13.52-1.36-.73c1.08-3.68,1.38-6.57.9-8.68-.48-2.11-1.69-4.11-3.61-6.01-1.12-1.12-3.52-2.66-7.18-4.63l-5-2.69Z"/>
        <path class="cls-2" d="M511.7,123.45l.92-1.09,1.39,1.17c1.23,1.02,2.32,1.63,3.27,1.81.96.18,1.85.09,2.68-.27.53-.26,1.66-1.41,3.38-3.46l21.89-26.18c1.7-2.03,2.65-3.4,2.85-4.1.2-.7.11-1.53-.27-2.49-.38-.96-1.15-1.94-2.34-2.93l-1.4-1.17.91-1.09,18.88,15.79c5.04,4.21,8.55,8.25,10.54,12.11,2.43,4.73,3.28,9.5,2.53,14.33s-2.81,9.27-6.19,13.32c-2.34,2.8-4.97,4.98-7.9,6.54-2.92,1.56-5.79,2.48-8.58,2.74-2.8.27-5.58.04-8.33-.69-2.76-.73-5.79-2.03-9.07-3.91-1.46-.82-3.56-2.37-6.27-4.64l-18.88-15.79ZM559.17,99.36l-25.96,31.05c-1.38,1.64-2.13,2.72-2.28,3.23-.14.51-.1,1.03.13,1.55.31.76,1,1.58,2.06,2.47,3.46,2.9,7.04,3.99,10.73,3.29,5-.93,10.16-4.57,15.46-10.91,4.27-5.11,6.83-9.9,7.68-14.37.65-3.51.27-6.59-1.12-9.22-.99-1.85-3.22-4.22-6.7-7.1Z"/>
        <path class="cls-2" d="M576.86,183.33l-1.06.94-19.07-21.52,1.06-.94,1.21,1.37c1.06,1.19,2.11,1.98,3.16,2.35.74.29,1.55.29,2.45,0,.65-.19,1.95-1.14,3.9-2.86l25.54-22.63c1.98-1.76,3.13-2.97,3.42-3.63.3-.66.33-1.5.11-2.51-.23-1.01-.86-2.09-1.88-3.24l-1.21-1.37,1.06-.94,19.07,21.51-1.06.94-1.21-1.37c-1.05-1.19-2.11-1.98-3.16-2.35-.73-.29-1.56-.3-2.48-.03-.65.18-1.95,1.14-3.9,2.87l-25.54,22.63c-1.98,1.76-3.12,2.97-3.41,3.65-.29.67-.32,1.51-.09,2.52.23,1.01.86,2.09,1.88,3.24l1.21,1.36ZM616.48,128.96c1.09,1.23,1.62,2.65,1.57,4.25-.05,1.6-.66,2.91-1.82,3.94-1.17,1.03-2.55,1.48-4.13,1.34-1.6-.14-2.94-.83-4.03-2.07-1.09-1.23-1.62-2.65-1.57-4.24.05-1.6.66-2.91,1.82-3.95,1.17-1.03,2.55-1.48,4.13-1.33,1.6.14,2.94.83,4.03,2.07Z"/>
        <path class="cls-2" d="M653.35,205.07l-1.18.79c-1.2-1.38-2.38-2.26-3.56-2.65-1.64-.53-5.26-.69-10.84-.47l-22.24.49-10.44,6.96c-2.23,1.49-3.53,2.53-3.91,3.14-.38.61-.53,1.42-.45,2.42.08,1.01.51,2.12,1.33,3.33l1.71,2.56-1.18.79-17.11-25.68,1.18-.78,1.6,2.4c.9,1.35,1.83,2.27,2.8,2.76.69.39,1.51.51,2.46.37.67-.09,2.09-.86,4.26-2.3l8.66-5.77,11.33-23.09c2.22-4.57,3.37-7.51,3.43-8.82.07-1.31-.38-2.7-1.33-4.18l1.18-.78,14.62,21.94-1.18.78-.66-.98c-.88-1.33-1.68-2.14-2.4-2.42-.71-.29-1.27-.3-1.67-.03-.77.51-2.09,2.69-3.97,6.54l-8.78,17.79,18.5-.44c4.55-.07,7.34-.46,8.39-1.15.57-.38.86-.99.85-1.83.02-1.12-.6-2.74-1.86-4.86l1.18-.78,9.3,13.97Z"/>
        <path class="cls-2" d="M663.98,234.28l-19.2,8.79.45.99c1.45,3.17,3.44,5.04,5.97,5.61,2.53.56,5.72.21,9.57-1.08l.64,1.4-24.7,11.31-.65-1.4c2.56-1.53,4.47-3.16,5.76-4.89,1.28-1.73,1.93-3.36,1.95-4.88.02-1.52-.52-3.48-1.61-5.86l-13.28,6.08c-2.6,1.19-4.14,2.03-4.61,2.53-.47.5-.75,1.15-.83,1.96-.08.81.21,1.93.87,3.35l1.36,2.99c2.14,4.67,4.87,7.94,8.2,9.82s7.36,2.48,12.1,1.8l.63,1.36-16.02,4.61-19.79-43.21,1.29-.59.76,1.66c.66,1.45,1.44,2.51,2.33,3.17.62.49,1.4.73,2.34.71.68.01,2.21-.52,4.57-1.6l31.03-14.2c2.13-.98,3.41-1.64,3.84-1.99.7-.62,1.12-1.36,1.26-2.22.22-1.23-.04-2.66-.78-4.28l-.76-1.66,1.29-.59,19.16,41.85-13.95,6.39-.64-1.4c3.08-2.27,5.07-4.4,5.96-6.36.9-1.97,1.15-4.29.77-6.97-.21-1.57-1.18-4.25-2.92-8.03l-2.36-5.16Z"/>
        <path class="cls-2" d="M694.86,305.82l-16.4,5.5-.48-1.59c3.91-2.02,6.68-4.89,8.3-8.6,1.62-3.71,1.91-7.27.86-10.68-.81-2.64-2.12-4.52-3.92-5.65-1.8-1.13-3.57-1.43-5.3-.9-1.1.34-1.99.91-2.68,1.71-.92,1.1-1.68,2.65-2.3,4.65-.43,1.46-.99,4.71-1.69,9.73-.97,7.03-2.39,12-4.26,14.93-1.88,2.9-4.46,4.85-7.72,5.85-4.15,1.27-8.24.66-12.27-1.85-4.04-2.51-6.87-6.4-8.49-11.67-.51-1.65-.83-3.26-.97-4.84-.13-1.57-.11-3.6.09-6.09.11-1.39.04-2.48-.2-3.29-.21-.67-.68-1.31-1.39-1.91-.72-.6-1.65-.98-2.79-1.14l-.44-1.43,18.72-5.75.44,1.43c-4.92,2.75-8.26,6.18-10.03,10.27-1.78,4.09-2.08,8.01-.93,11.76.89,2.89,2.34,4.97,4.36,6.23,2.02,1.26,4.01,1.59,5.98.98,1.17-.36,2.2-1.04,3.1-2.03.9-1,1.63-2.32,2.21-3.97s1.13-4.42,1.66-8.32c.75-5.46,1.59-9.48,2.51-12.05.92-2.57,2.16-4.72,3.75-6.43,1.58-1.72,3.53-2.93,5.85-3.64,3.95-1.22,7.78-.71,11.51,1.51,3.72,2.22,6.31,5.67,7.74,10.35.53,1.7.84,3.42.94,5.14.08,1.3,0,2.95-.26,4.94-.26,1.99-.27,3.33-.07,4.03.21.67.57,1.14,1.08,1.41.51.27,1.55.34,3.14.22l.36,1.16Z"/>
        <path class="cls-2" d="M653.32,357.79l-1.39.28-5.71-28.18,1.39-.28.36,1.79c.32,1.56.84,2.77,1.55,3.62.49.62,1.2,1.03,2.12,1.23.66.17,2.26,0,4.81-.52l33.44-6.78c2.6-.53,4.2-1,4.79-1.42.59-.42,1.04-1.13,1.35-2.12.31-.99.31-2.23,0-3.74l-.36-1.79,1.39-.28,5.71,28.18-1.39.28-.36-1.79c-.32-1.56-.84-2.77-1.55-3.62-.49-.62-1.2-1.04-2.13-1.26-.65-.17-2.26,0-4.81.52l-33.44,6.78c-2.6.53-4.2,1.01-4.78,1.44-.59.44-1.03,1.15-1.34,2.14-.31.99-.31,2.23,0,3.74l.36,1.79ZM714.87,330.63c.33,1.62.07,3.1-.77,4.46-.84,1.36-2.03,2.19-3.55,2.5-1.52.31-2.94,0-4.25-.92-1.3-.92-2.12-2.19-2.45-3.81-.33-1.62-.07-3.1.77-4.46s2.03-2.19,3.56-2.5c1.52-.31,2.93,0,4.24.92,1.3.92,2.12,2.19,2.45,3.81Z"/>
      </g>
      <g>
        <path class="cls-2" d="M314.64,771.24l-12.98,43.64c-.98,3.28-1.46,5.42-1.43,6.41.02.99.4,1.91,1.15,2.77.75.85,2.13,1.58,4.15,2.18l1.22.36-.43,1.46-28.1-8.36.43-1.46,1.42.42c2.28.68,3.99.9,5.11.66,1.13-.24,2-.76,2.61-1.58.61-.82,1.42-2.91,2.42-6.27l8.23-27.66c.73-2.47,1.07-4.04,1.02-4.73-.05-.69-.34-1.35-.85-1.97s-1.19-1.06-2.03-1.31c-1.34-.4-3.09-.46-5.25-.19l-.29-1.63,22.31-3.13,1.3.38Z"/>
        <path class="cls-2" d="M353.85,803.56c3.59,3.27,6.01,6.22,7.26,8.84,1.25,2.62,1.7,5.53,1.37,8.71-.48,4.47-2.56,8.06-6.25,10.79-3.69,2.73-8.42,3.79-14.19,3.18-5.47-.58-9.56-2.38-12.27-5.39-2.71-3.01-3.85-6.46-3.44-10.35.32-2.97,1.46-5.48,3.42-7.52,1.96-2.05,5.06-3.78,9.28-5.21-4.03-3.81-6.55-6.85-7.56-9.1-1.01-2.26-1.37-4.79-1.07-7.59.39-3.7,2.31-6.79,5.75-9.27,3.44-2.49,7.9-3.44,13.37-2.85,5.28.56,9.21,2.24,11.79,5.03,2.58,2.8,3.68,5.93,3.32,9.42-.28,2.61-1.29,4.84-3.04,6.67-1.75,1.84-4.33,3.39-7.74,4.65ZM341.89,808.9c-.92.67-1.6,1.3-2.02,1.89-.65.89-1.28,2.23-1.91,4.01-.63,1.78-1.05,3.66-1.26,5.65-.27,2.56-.17,4.74.3,6.53.47,1.8,1.27,3.14,2.4,4.03,1.13.89,2.34,1.41,3.61,1.54,1.99.21,3.74-.34,5.25-1.65,1.51-1.31,2.41-3.23,2.68-5.77.56-5.27-2.46-10.69-9.05-16.23ZM350.97,801.15c1.15-1.26,2.06-2.7,2.73-4.33.67-1.64,1.11-3.46,1.32-5.48.38-3.54-.1-6.33-1.42-8.37-.99-1.56-2.49-2.45-4.5-2.67-1.82-.19-3.44.3-4.86,1.48-1.42,1.18-2.23,2.76-2.44,4.72-.21,1.98.29,4.12,1.49,6.41,1.2,2.29,3.76,5.03,7.69,8.23Z"/>
        <path class="cls-2" d="M388.55,836.36l11.52-46.98-11.5.9c-4.5.36-7.84,1.2-10.01,2.56-1.52.94-2.71,2.58-3.57,4.93l-1.55.12,2.66-17.55,33.07-2.59-14.19,58.11-6.43.5Z"/>
        <path class="cls-2" d="M421.73,810.63l16.25-41.47,4.84-1.3,9.28,34.62,4.92-1.32,2.2,8.21-4.92,1.32,3.23,12.05-10.9,2.93-3.23-12.06-19.47,5.22-2.2-8.21ZM425.58,809.59l15.62-4.19-5.68-21.22-9.94,25.41Z"/>
      </g>
      <path class="cls-2" d="M373.03,117.04c33.92,0,66.85,8.11,97.87,24.11,30.12,15.53,57.2,37.8,80.49,66.2,23.4,28.54,41.79,61.81,54.65,98.87,13.35,38.48,20.12,79.36,20.12,121.53s-6.77,83.06-20.12,121.53c-12.86,37.07-31.25,70.33-54.65,98.87-23.3,28.4-50.38,50.67-80.49,66.2-31.01,16-63.95,24.11-97.87,24.11s-66.85-8.11-97.87-24.11c-30.12-15.53-57.2-37.8-80.49-66.2-23.41-28.54-41.8-61.8-54.66-98.87-13.35-38.48-20.11-79.37-20.11-121.53s6.77-83.06,20.11-121.53c12.86-37.07,31.25-70.33,54.66-98.87,23.29-28.4,50.37-50.67,80.49-66.2,31.02-16,63.94-24.11,97.87-24.11M373.03,107.48c-145.08,0-262.68,143.39-262.68,320.27s117.61,320.27,262.68,320.27,262.68-143.39,262.68-320.27S518.11,107.48,373.03,107.48h0Z"/>
      <path class="cls-1" d="M187.72,265.8l130.94,156.38c17.54-12.6,31.97-29.51,48.09-44.39"/>
      <g>
        <path class="cls-2" d="M560.73,430.66c-23,8.03-56.18,12.82-86.01,12.09-15.68-.38-33.69-1.06-48.73,2.87-11.16,2.92-27.36,12.18-30.4,21.44l-.08,78.66,28.88-33.35c1.03-1.2,2.85-1.33,4.04-.29,1.2,1.03,1.33,2.85.29,4.04l-38.96,44.99.12-116.76-56.47,54.85-.09,224.68,228.35-290.7,3.17-3.99-4.1,1.45Z"/>
        <path class="cls-2" d="M328.17,496.28l67.45-65.49v.26l167-158.37,4.33-5.31-5.66,1.55c-33.23,10.77-56.08,12.3-89.12,10.61-7.83-.4-16.31-1.9-25.12-1.44h-1.06c-6.65.41-17.22,1.68-30.06,5.45-19.59,5.74-48.6,18.73-75.53,48.01l-.08.09c-3.89,3.89-7.26,6.48-11.03,6.48-.1,0-.19,0-.29,0-3.9-.14-7.03-3.15-9.82-6.38l-.11-.14-18.47-24.21c-.96-1.26-.72-3.06.54-4.02,1.26-.96,3.06-.72,4.02.54l18.42,24.13c2.57,2.95,4.31,4.29,5.64,4.33,1.43.06,3.71-1.46,7.02-4.76,34.93-37.95,73.03-50.02,96.21-53.77-11.81-3.92-58.66-17.31-93.39,17.95-.64-5.46-8.73-10.33-12.42-11.47-36.14-11.13-105.26,2.07-137.07-17.08-1.95-1.25-8.6-5.89-8.6-5.89l137.07,164.38.18.24,93.64-85.84c1.17-1.07,2.98-.99,4.05.18,1.07,1.17.99,2.98-.18,4.05l-97.92,88.87-1.3,1.2c-7.68,6.67-15.52,13.83-22.36,21.87-11.57,13.59-26.3,35.65-25.8,54.46.56,20.78,15.37,39.51,24.84,54.46l32.4,46.72c.59.63,1.51,1.57,2.77,2.72l-.18-114.39Z"/>
      </g>
    </g>
  </g>
</svg>