<?xml version="1.0" encoding="iso-8859-1"?>
<!-- Generator: Adobe Illustrator 29.7.1, SVG Export Plug-In . SVG Version: 9.03 Build 0)  -->
<svg version="1.1" id="Layer_1" xmlns="http://www.w3.org/2000/svg" xmlns:xlink="http://www.w3.org/1999/xlink" x="0px" y="0px"
	 viewBox="0 0 350 350" style="enable-background:new 0 0 350 350;" xml:space="preserve">
<g>
	<path style="fill:#038231;stroke:#231F20;stroke-width:2;" d="M203.424,183.648h-63.071V84.892c0,0,32.781-11.618,63.071-2.904
		V183.648z"/>
	<polygon style="fill:#038231;stroke:#231F20;stroke-width:2;" points="254.062,194.436 246.577,194.436 246.577,185.308 
		232.054,185.308 232.054,172.029 224.585,172.029 224.585,183.232 218.361,183.232 218.361,174.104 210.062,174.104 
		210.062,84.892 217.531,100.245 220.851,84.892 224.585,98.17 229.149,89.042 231.432,93.606 231.432,101.905 233.299,97.755 
		234.544,107.299 238.278,97.755 239.523,106.469 241.183,103.565 241.598,111.863 245.332,101.075 246.577,109.374 
		249.066,107.299 249.066,113.939 249.066,121.822 252.801,129.291 252.801,123.481 254.876,117.257 258.195,129.291 261.1,123.481 
		273.963,170.37 264.834,171.199 265.664,177.744 265.675,185.188 254.062,185.188 	"/>
	<path style="fill:#038231;stroke:#231F20;stroke-width:2;" d="M135.789,86.552v97.095H76.867
		C76.867,183.648,70.228,120.992,135.789,86.552z"/>
	<path style="fill:#EEC708;stroke:#231F20;stroke-width:2;" d="M194.71,148.793c0,12.604-10.218,22.822-22.821,22.822
		c-12.604,0-22.822-10.218-22.822-22.822s10.218-22.822,22.822-22.822C184.492,125.971,194.71,136.189,194.71,148.793z"/>
	<path style="fill:#09B2E9;stroke:#231F20;stroke-width:2;" d="M76.679,198.17l4.753,10.374
		c67.635-29.044,120.127,32.706,175.519,16.183l10.789-30.291C197.5,221.25,143.25,166.75,76.679,198.17z"/>
	<path style="fill:#09B2E9;stroke:#231F20;stroke-width:2;" d="M92.5,231.75C101,242.5,101.5,244,116,255
		c27.666-20.333,42.666-22.333,121-4.5c6.5-4.833,11.167-10.833,17-18.75C183.25,240.5,140.353,200.25,92.5,231.75z"/>
	<path style="fill:#09B2E9;stroke:#231F20;stroke-width:2;" d="M121.333,257.667c0,0,37.499,32,98.167,5
		C185.5,257.667,171.5,232,121.333,257.667z"/>
	<circle style="fill:none;stroke:#231F20;stroke-width:3;" cx="175" cy="175" r="140.333"/>
	<path d="M64.233,179.629l-15.924-11.903c-0.789-0.587-1.519-1.166-2.182-1.73l-0.697,11.252l-4.034-0.25l0.998-16.104l3.685,0.229
		l17.23,13.022l0.987,0.795l0.805-12.99l4.033,0.249l-1.095,17.665L64.233,179.629z"/>
	<path d="M60.457,160.653c-1.376,0-2.826-0.183-4.309-0.542c-4.366-1.061-7.543-2.875-9.444-5.394
		c-1.925-2.55-2.539-5.334-1.825-8.275c0.463-1.903,1.436-3.529,2.892-4.835c1.452-1.3,3.326-2.168,5.572-2.579
		c0.842-0.155,1.735-0.233,2.653-0.233c1.506,0,3.138,0.211,4.851,0.626c3.799,0.922,6.732,2.568,8.719,4.892
		c2.224,2.598,2.962,5.517,2.195,8.674c-0.772,3.183-2.806,5.437-6.042,6.697C64.069,160.327,62.299,160.653,60.457,160.653
		L60.457,160.653z M55.956,142.68c-0.661,0-1.314,0.048-1.941,0.143c-1.329,0.205-2.493,0.725-3.458,1.546
		c-0.956,0.813-1.584,1.816-1.867,2.98c-0.463,1.909-0.057,3.629,1.24,5.258c1.31,1.645,3.725,2.903,7.176,3.742
		c1.32,0.32,2.554,0.483,3.668,0.483l0,0c1.383,0,2.624-0.251,3.688-0.746c1.907-0.887,3.047-2.198,3.486-4.007
		c0.45-1.852,0.035-3.557-1.271-5.212c-1.315-1.669-3.611-2.911-6.824-3.691C58.5,142.846,57.188,142.68,55.956,142.68
		L55.956,142.68z"/>
	<polygon points="49.728,131.294 51.257,127.967 72.663,126.454 55.562,118.596 57.096,115.26 81.42,126.437 79.891,129.764 
		58.492,131.261 75.593,139.119 74.052,142.471 	"/>
	<path d="M80.024,121.261c-0.74,0-1.515-0.072-2.301-0.213c-2.224-0.399-4.522-1.44-6.832-3.096
		c-2.335-1.674-4.115-3.558-5.289-5.597c-1.186-2.063-1.741-4.08-1.648-5.993c0.093-1.914,0.787-3.786,2.06-5.562
		c0.943-1.315,2.032-2.307,3.237-2.948c1.201-0.64,2.5-0.964,3.859-0.964c1.39,0.005,2.976,0.409,4.747,1.201l0.404,0.181
		l-1.069,3.482l-0.508-0.21c-1.312-0.542-2.391-0.817-3.207-0.818c-0.801,0-1.583,0.205-2.329,0.608
		c-0.754,0.409-1.423,1.017-1.99,1.808c-0.832,1.161-1.272,2.371-1.308,3.596c-0.037,1.23,0.365,2.55,1.195,3.922
		c0.846,1.398,2.175,2.753,3.951,4.026c2.483,1.781,4.75,2.684,6.736,2.684c0.165,0,0.33-0.006,0.492-0.019
		c2.101-0.16,3.738-1.097,5.004-2.863c0.597-0.834,1.016-1.848,1.244-3.016c0.214-1.093,0.251-2.083,0.109-2.947l-3.329-2.387
		l-3.615,5.044l-3.283-2.354l5.779-8.096l8.365,5.996l0.031,0.209c0.294,1.939,0.284,3.75-0.032,5.383
		c-0.318,1.647-0.956,3.146-1.895,4.458c-1.252,1.747-2.831,3.011-4.694,3.757C82.702,121.016,81.395,121.261,80.024,121.261
		L80.024,121.261z"/>
	<path d="M95.12,105.391c-0.269,0-0.539-0.016-0.81-0.048c-2.291-0.27-4.871-1.947-7.884-5.127L75.84,89.048l2.754-2.611
		l10.574,11.157c1.558,1.644,2.817,2.72,3.745,3.199c0.656,0.34,1.315,0.512,1.96,0.512c0.219,0,0.438-0.02,0.657-0.058
		c0.872-0.155,1.711-0.609,2.494-1.351c1.323-1.254,1.939-2.532,1.83-3.8c-0.113-1.31-1.26-3.125-3.412-5.396L85.868,79.544
		l2.754-2.61l10.586,11.169c1.743,1.839,3.015,3.549,3.782,5.081c0.794,1.588,1.038,3.233,0.725,4.89
		c-0.311,1.651-1.233,3.213-2.741,4.642C99.1,104.491,97.13,105.391,95.12,105.391L95.12,105.391z"/>
	<polygon points="93.174,73.484 96.31,71.348 109.105,90.133 117.706,84.275 119.981,87.615 108.243,95.609 	"/>
	<path d="M108.771,63.169l7.064-3.295c1.701-0.793,3.037-1.235,4.084-1.352c0.271-0.031,0.543-0.046,0.814-0.046
		c1.104,0,2.216,0.262,3.307,0.779c1.332,0.631,2.614,1.627,3.812,2.961c1.186,1.322,2.282,3.054,3.259,5.148
		c1.256,2.694,1.937,5.206,2.023,7.465c0.087,2.297-0.329,4.182-1.238,5.601c-0.904,1.412-2.398,2.611-4.442,3.564l-7.367,3.437
		L108.771,63.169z M121.819,82.163l3.625-1.691c1.551-0.724,2.614-1.521,3.159-2.368c0.537-0.834,0.763-1.91,0.673-3.197
		c-0.128-1.796-0.699-3.792-1.699-5.934c-1.068-2.29-2.223-3.958-3.434-4.96c-1.159-0.959-2.295-1.446-3.379-1.446v-0.5l-0.042,0.5
		c-0.747,0.008-1.839,0.345-3.243,1l-3.561,1.661L121.819,82.163z"/>
	<path d="M136.422,52.106l3.591-0.951l15.547,23.573l-4.12,1.092l-4.375-6.915l-7.877,2.088l-0.221,8.133l-3.872,1.025
		L136.422,52.106z M139.616,56.923c0.035,0.964,0.034,1.933-0.003,2.898l-0.307,7.232l5.647-1.497l-3.593-5.761
		C140.699,58.74,140.116,57.78,139.616,56.923L139.616,56.923z"/>
	<polygon points="151.959,48.491 155.738,48.15 156.804,59.986 165.461,47.275 170.55,46.818 162.237,58.612 173.142,73.462 
		168.294,73.898 159.893,61.938 157.31,65.604 158.138,74.813 154.358,75.153 	"/>
	<path d="M196.437,76.61c-0.839,0-1.794-0.111-2.84-0.33l-8.368-1.754l5.489-26.2l8.258,1.73c1.645,0.345,2.925,0.89,3.802,1.619
		c0.888,0.738,1.538,1.742,1.936,2.982c0.395,1.234,0.453,2.533,0.175,3.86c-0.26,1.235-0.771,2.309-1.521,3.191
		c-0.557,0.655-1.219,1.182-1.977,1.572c0.818,0.677,1.431,1.525,1.827,2.532c0.505,1.282,0.588,2.757,0.247,4.385
		c-0.336,1.603-0.972,2.963-1.889,4.044c-0.929,1.097-2.033,1.82-3.283,2.149C197.744,76.537,197.119,76.61,196.437,76.61
		L196.437,76.61z M194.435,72.327c0.779,0.163,1.426,0.246,1.92,0.246c0.179,0,0.339-0.011,0.48-0.033
		c0.737-0.117,1.326-0.426,1.804-0.942c0.486-0.527,0.832-1.27,1.028-2.208c0.18-0.857,0.159-1.623-0.064-2.277
		c-0.222-0.649-0.581-1.151-1.099-1.534c-0.536-0.397-1.484-0.741-2.819-1.021l-4.302-0.901l-1.612,7.693L194.435,72.327z
		 M196.204,60.539c0.913,0.191,1.625,0.288,2.115,0.288c0.103,0,0.195-0.004,0.279-0.013c0.651-0.079,1.179-0.318,1.605-0.731
		c0.429-0.414,0.738-1.066,0.921-1.936c0.17-0.815,0.158-1.526-0.037-2.112c-0.189-0.572-0.496-0.99-0.936-1.28
		c-0.328-0.216-1.096-0.553-2.884-0.928l-3.664-0.768l-1.393,6.644L196.204,60.539z"/>
	<polygon points="202.467,78.265 212.306,53.369 227.442,59.352 225.957,63.11 214.351,58.523 211.823,64.916 222.694,69.212 
		221.209,72.971 210.338,68.674 207.481,75.902 219.546,80.67 218.06,84.428 	"/>
	<polygon points="218.524,84.842 232.078,61.757 235.351,63.678 223.843,83.278 232.817,88.547 230.77,92.032 	"/>
	<polygon points="231.102,92.226 248.032,71.491 260.639,81.784 258.084,84.915 248.416,77.021 244.067,82.346 253.122,89.74 
		250.566,92.87 241.513,85.477 236.597,91.496 246.644,99.701 244.09,102.831 	"/>
	<path d="M256.595,113.002c-0.758,0-1.477-0.102-2.137-0.303c-1.605-0.488-3.164-1.602-4.634-3.311l-5.304-6.16l20.286-17.466
		l5.086,5.907c1.226,1.423,2.013,2.589,2.408,3.565c0.525,1.282,0.664,2.684,0.412,4.164c-0.248,1.455-0.859,2.959-1.818,4.472
		c-0.949,1.498-2.319,3.023-4.071,4.532c-2.252,1.938-4.485,3.274-6.638,3.97C258.894,112.791,257.685,113.002,256.595,113.002
		L256.595,113.002z M252.669,106.5c1.116,1.297,2.172,2.104,3.136,2.399c0.381,0.116,0.787,0.175,1.209,0.175
		c0.632,0,1.322-0.132,2.051-0.393c1.692-0.609,3.459-1.701,5.252-3.244c1.913-1.648,3.207-3.212,3.844-4.65
		c0.617-1.393,0.773-2.632,0.466-3.684c-0.211-0.717-0.831-1.677-1.842-2.851l-2.564-2.978l-14.161,12.193L252.669,106.5z"/>
	<path d="M257.121,118.739l22.285-14.832l2.103,3.16l-22.286,14.831L257.121,118.739z M279.92,103.313l4.111-2.735l2.336,3.51
		l-4.111,2.736L279.92,103.313z"/>
	<path d="M263.249,128.774l10.061-5.115l9.957-14.578l2.066,4.064l-5.225,7.47c-0.77,1.1-1.529,2.135-2.267,3.088
		c0.471-0.009,0.961-0.014,1.47-0.014c0.816,0,1.683,0.012,2.599,0.037l8.917,0.229l1.989,3.912l-17.791-0.824l-10.06,5.114
		L263.249,128.774z"/>
	<polygon points="268.4,139.189 293.973,131.268 298.788,146.814 294.928,148.01 291.234,136.088 284.668,138.123 288.127,149.289 
		284.266,150.484 280.808,139.318 273.385,141.618 277.224,154.01 273.362,155.206 	"/>
	<path d="M282.167,171.676c-1.098,0-2.163-0.208-3.166-0.617c-1.374-0.561-2.494-1.439-3.328-2.609
		c-0.826-1.161-1.361-2.629-1.59-4.363c-0.356-2.716,0.188-5.029,1.622-6.874c1.429-1.841,3.559-2.99,6.33-3.416l0.454-0.07
		l0.849,3.514l-0.49,0.115c-1.306,0.305-2.3,0.736-2.955,1.28c-0.647,0.537-1.139,1.261-1.462,2.152
		c-0.326,0.9-0.421,1.896-0.28,2.96c0.2,1.518,0.721,2.653,1.547,3.372c0.677,0.589,1.44,0.876,2.336,0.876
		c0.191,0,0.388-0.013,0.589-0.04c0.66-0.087,1.222-0.307,1.667-0.655c0.443-0.346,0.788-0.839,1.025-1.464
		c0.259-0.682,0.571-2.173,0.928-4.432c0.34-2.128,0.753-3.634,1.266-4.605c0.519-0.982,1.245-1.799,2.159-2.427
		c0.913-0.627,1.996-1.026,3.22-1.188c0.412-0.054,0.819-0.082,1.21-0.082c1.694,0,3.208,0.511,4.498,1.52
		c1.59,1.242,2.555,3.083,2.869,5.473c0.214,1.631,0.074,3.127-0.414,4.447c-0.493,1.335-1.321,2.443-2.46,3.294
		c-1.127,0.841-2.521,1.401-4.145,1.664l-0.464,0.075l-0.81-3.585l0.492-0.107c1.511-0.329,2.588-0.927,3.199-1.779
		c0.609-0.848,0.825-1.992,0.64-3.4c-0.189-1.44-0.649-2.499-1.366-3.145c-0.586-0.529-1.243-0.787-2.009-0.787
		c-0.157,0-0.317,0.011-0.48,0.032c-0.9,0.119-1.536,0.452-1.944,1.02c-0.303,0.419-0.739,1.466-1.104,4.081
		c-0.307,2.192-0.613,3.712-0.938,4.645c-0.516,1.448-1.306,2.61-2.35,3.457c-1.046,0.848-2.367,1.381-3.926,1.586
		C282.976,171.648,282.565,171.676,282.167,171.676L282.167,171.676z"/>
	<path d="M275.347,174.079l26.766-0.434l0.062,3.794l-26.767,0.433L275.347,174.079z M302.866,173.422l4.938-0.08l0.067,4.216
		l-4.936,0.079L302.866,173.422z"/>
	<path d="M141.722,300.163l4.711-18.843c-0.559,0.31-1.189,0.607-1.885,0.888c-1.184,0.477-2.26,0.802-3.199,0.966l-0.758,0.133
		l0.999-3.995l0.278-0.079c1.529-0.432,2.964-1.083,4.266-1.934c1.292-0.844,2.284-1.742,2.951-2.672l0.198-0.276l2.451,0.614
		l-6.519,26.071L141.722,300.163z"/>
	<path d="M160.504,303.556c-0.19,0-0.382-0.007-0.577-0.02c-2.12-0.15-3.858-1.06-5.167-2.705c-1.298-1.633-1.868-3.712-1.692-6.181
		c0.127-1.807,0.617-3.301,1.456-4.441c0.635-0.861,1.427-1.502,2.362-1.912c-0.644-0.499-1.149-1.102-1.509-1.798
		c-0.507-0.987-0.715-2.188-0.617-3.571c0.146-2.071,0.892-3.745,2.217-4.975c1.206-1.118,2.654-1.686,4.302-1.686
		c0.174,0,0.351,0.006,0.53,0.019c1.886,0.134,3.428,0.931,4.585,2.369c1.148,1.428,1.654,3.213,1.506,5.308
		c-0.094,1.324-0.458,2.448-1.083,3.341c-0.455,0.652-1.056,1.188-1.792,1.601c0.906,0.605,1.616,1.4,2.118,2.372
		c0.644,1.248,0.908,2.766,0.785,4.513c-0.17,2.41-1.025,4.359-2.54,5.794C164.006,302.892,162.362,303.556,160.504,303.556
		L160.504,303.556z M160.516,290.511c-0.925,0-1.726,0.355-2.449,1.088c-0.8,0.809-1.255,1.924-1.354,3.314
		c-0.102,1.446,0.201,2.646,0.899,3.566c0.692,0.912,1.533,1.391,2.57,1.464c0.092,0.007,0.184,0.01,0.274,0.01
		c0.936,0,1.743-0.346,2.468-1.057c0.812-0.795,1.256-1.889,1.359-3.343c0.102-1.445-0.203-2.645-0.906-3.564
		c-0.698-0.914-1.548-1.394-2.598-1.468C160.689,290.514,160.602,290.511,160.516,290.511L160.516,290.511z M161.364,279.871
		c-0.709,0-1.33,0.268-1.899,0.818c-0.637,0.615-0.981,1.402-1.053,2.405c-0.079,1.127,0.15,2.048,0.682,2.737
		c0.525,0.682,1.183,1.042,2.009,1.1c0.073,0.006,0.144,0.008,0.215,0.008c0.714,0,1.333-0.262,1.895-0.801
		c0.63-0.604,0.972-1.408,1.046-2.456c0.077-1.085-0.156-1.961-0.711-2.68c-0.542-0.7-1.19-1.068-1.981-1.124
		C161.498,279.874,161.431,279.871,161.364,279.871L161.364,279.871z"/>
	<path d="M176.789,303.372c-1.435,0-2.721-0.464-3.823-1.379c-1.268-1.051-2.133-2.673-2.573-4.82l-0.099-0.484l3.411-0.738
		l0.118,0.469c0.565,2.251,1.558,3.346,3.033,3.346c0.11,0,0.224-0.006,0.339-0.018c0.751-0.076,1.391-0.395,1.956-0.974
		c0.576-0.59,1.028-1.625,1.344-3.077c0.266-1.224,0.357-2.614,0.274-4.145c-0.355,0.509-0.772,0.962-1.248,1.353
		c-0.922,0.76-1.916,1.197-2.956,1.303c-0.209,0.022-0.416,0.032-0.621,0.032c-1.619,0-3.114-0.664-4.441-1.972
		c-1.473-1.451-2.357-3.559-2.631-6.266c-0.282-2.788,0.18-5.098,1.374-6.865c1.214-1.797,2.838-2.809,4.826-3.009
		c0.213-0.022,0.425-0.033,0.637-0.033c1.185,0,2.35,0.346,3.461,1.028c1.295,0.796,2.37,2.06,3.196,3.755
		c0.81,1.662,1.385,4.129,1.709,7.332c0.359,3.56,0.3,6.407-0.177,8.467c-0.488,2.101-1.299,3.711-2.41,4.787
		c-1.123,1.088-2.464,1.717-3.983,1.87C177.262,303.36,177.023,303.372,176.789,303.372L176.789,303.372z M175.989,279.669
		c-0.088,0-0.177,0.004-0.266,0.013c-0.957,0.097-1.751,0.67-2.428,1.751c-0.693,1.105-0.955,2.552-0.779,4.3
		c0.157,1.554,0.663,2.761,1.505,3.588c0.734,0.722,1.518,1.072,2.393,1.072c0.111,0,0.224-0.006,0.338-0.017
		c0.992-0.102,1.773-0.615,2.386-1.573c0.627-0.983,0.857-2.354,0.683-4.074c-0.173-1.71-0.687-3.024-1.529-3.908
		C177.552,280.046,176.798,279.669,175.989,279.669L175.989,279.669z"/>
	<path d="M193.667,300.3c-1.017,0-1.999-0.266-2.92-0.79c-1.431-0.815-2.565-2.262-3.372-4.301l-0.183-0.46l3.232-1.318l0.197,0.441
		c0.848,1.891,1.858,2.811,3.092,2.811c0.256,0,0.528-0.04,0.809-0.12c0.725-0.205,1.299-0.63,1.756-1.299
		c0.466-0.68,0.732-1.777,0.789-3.264c0.049-1.253-0.103-2.639-0.45-4.13c-0.262,0.564-0.594,1.083-0.995,1.552
		c-0.774,0.907-1.678,1.512-2.685,1.796c-0.534,0.15-1.074,0.228-1.606,0.228c-1.254,0-2.504-0.424-3.715-1.258
		c-1.702-1.173-2.94-3.095-3.681-5.713c-0.763-2.697-0.709-5.053,0.16-7c0.884-1.979,2.306-3.259,4.229-3.803
		c0.553-0.155,1.12-0.234,1.685-0.234c0.828,0,1.678,0.169,2.524,0.504c1.413,0.559,2.692,1.615,3.801,3.141
		c1.087,1.496,2.081,3.825,2.958,6.925c0.974,3.443,1.41,6.259,1.297,8.367c-0.115,2.154-0.634,3.881-1.541,5.134
		c-0.917,1.267-2.127,2.119-3.597,2.535C194.847,300.214,194.246,300.3,193.667,300.3L193.667,300.3z M190.281,276.961
		c-0.232,0-0.468,0.033-0.698,0.099c-0.925,0.262-1.607,0.963-2.085,2.145c-0.49,1.211-0.497,2.682-0.02,4.371
		c0.425,1.503,1.133,2.604,2.105,3.271c0.665,0.457,1.34,0.689,2.008,0.689c0.283,0,0.574-0.042,0.864-0.124
		c0.961-0.271,1.64-0.913,2.076-1.963c0.447-1.075,0.436-2.465-0.035-4.132c-0.469-1.654-1.203-2.859-2.185-3.582
		C191.614,277.221,190.931,276.961,190.281,276.961L190.281,276.961z"/>
</g>
</svg>
