<?xml version="1.0" encoding="UTF-8" standalone="no"?>
<svg
   version="1.1"
   width="595.27557pt"
   height="841.88977pt"
   id="svg33"
   viewBox="0 0 595.27557 841.88977"
   sodipodi:docname="aksaray-belediyesi-seeklogo.cdr"
   xmlns:inkscape="http://www.inkscape.org/namespaces/inkscape"
   xmlns:sodipodi="http://sodipodi.sourceforge.net/DTD/sodipodi-0.dtd"
   xmlns="http://www.w3.org/2000/svg"
   xmlns:svg="http://www.w3.org/2000/svg">
  <defs
     id="defs33" />
  <sodipodi:namedview
     id="namedview33"
     pagecolor="#ffffff"
     bordercolor="#000000"
     borderopacity="0.25"
     inkscape:showpageshadow="2"
     inkscape:pageopacity="0.0"
     inkscape:pagecheckerboard="0"
     inkscape:deskcolor="#d1d1d1"
     inkscape:document-units="pt" />
  <path
     d="m 296.3035,221.1028 34.6592,34.435 48.8569,0.1585 0.1586,48.8569 34.4349,34.6592 -34.4349,34.6592 -0.1586,48.8569 -48.8569,0.1585 -34.6592,34.435 -34.6591,-34.435 -48.857,-0.1585 -0.1585,-48.8569 -34.4349,-34.6592 34.4349,-34.6592 0.1585,-48.8569 48.857,-0.1585 z"
     style="fill:#5bc3cd;fill-rule:evenodd"
     id="path1" />
  <path
     d="m 296.3034,226.5869 33.0499,32.836 46.5883,0.1512 0.1512,46.5884 32.836,33.0498 -32.836,33.0499 -0.1512,46.5883 -46.5883,0.1512 -33.0499,32.836 -33.0498,-32.836 -46.5884,-0.1512 -0.1512,-46.5883 -32.836,-33.0499 32.836,-33.0498 0.1512,-46.5884 46.5884,-0.1512 z"
     style="fill:#ffffff;fill-rule:evenodd"
     id="path2" />
  <g
     id="Layer1000">
    <path
       d="m 296.3035,231.4097 31.6347,31.43 44.5934,0.1447 0.1447,44.5934 31.4299,31.6346 -31.4299,31.6346 -0.1447,44.5934 -44.5934,0.1448 -31.6347,31.4299 -31.6346,-31.4299 -44.5934,-0.1448 -0.1447,-44.5934 -31.43,-31.6346 31.43,-31.6346 0.1447,-44.5934 44.5934,-0.1447 z"
       style="fill:#5bc3cd;fill-rule:evenodd"
       id="path3" />
    <path
       d="m 296.3034,234.3217 30.7801,30.5809 43.3888,0.1408 0.1408,43.3888 30.581,30.7801 -30.581,30.7801 -0.1408,43.3888 -43.3888,0.1408 -30.7801,30.581 -30.7801,-30.581 -43.3888,-0.1408 -0.1408,-43.3888 -30.5809,-30.7801 30.5809,-30.7801 0.1408,-43.3888 43.3888,-0.1408 30.7801,-30.581 z"
       style="fill:#ffffff;fill-rule:evenodd"
       id="path4" />
  </g>
  <g
     id="Layer1001">
    <g
       id="Layer1002">
      <path
         d="m 308.2988,308.2139 c 0,1.5692 0.0253,3.2279 0.0313,4.7831 0.0101,2.59 -1.5774,4.2793 -3.7175,5.4178 -1.5644,0.8314 -4.1891,1.5102 -5.9989,1.5366 -0.9259,0.0134 -1.5255,-0.314 -1.8541,-1.326 -0.3544,-1.0926 -0.0865,-3.351 -0.0782,-4.5789 0.3447,-0.4582 1.2228,-1.0829 1.1884,-1.5778 0.1023,-0.413 0.3287,-0.5883 0.713,-0.626 0.5598,-0.055 0.8528,-0.0682 1.1748,-0.5702 1.4242,0.0221 2.8679,-0.0887 4.2396,-0.4935 1.8108,-0.5344 2.9583,-1.2552 4.3016,-2.5651 z"
         style="fill:#5bc3cd;fill-rule:evenodd"
         id="path5" />
      <path
         d="m 284.0191,308.1994 c 0,1.5691 -0.0252,3.2278 -0.0313,4.7831 -0.01,2.59 1.5774,4.2793 3.7175,5.4178 1.5643,0.8313 4.1892,1.5103 5.9988,1.5366 0.926,0.0132 1.5257,-0.3141 1.854,-1.3261 0.3547,-1.0925 0.0866,-3.3511 0.0784,-4.5788 -0.3447,-0.4583 -1.2227,-1.0831 -1.1883,-1.5777 -0.1025,-0.4131 -0.3289,-0.5884 -0.7131,-0.6261 -0.5597,-0.055 -0.8527,-0.0682 -1.1748,-0.5702 -1.4242,0.0221 -2.8679,-0.0888 -4.2396,-0.4934 -1.8108,-0.5346 -2.9583,-1.2554 -4.3016,-2.5652 z"
         style="fill:#5bc3cd;fill-rule:evenodd"
         id="path6" />
      <path
         d="m 300.8043,308.475 0.0656,-1e-4 c 2.7194,0.0398 5.4552,-0.5212 7.5752,-2.3436 1.6759,-1.4404 2.2503,-2.18 2.2169,-4.9775 -0.0156,-1.3165 -0.1741,-3.2675 -1.6506,-3.4508 -1.2077,-0.1584 -2.4208,-0.3405 -3.624,-0.3151 -0.8554,0.018 -1.7046,0.1191 -2.5384,0.3984 -1.11,0.3717 -2.0475,0.9278 -2.7542,2.1393 -0.2395,0.4106 -0.4247,0.8345 -0.5625,1.4271 -0.1821,0.7824 -0.2335,1.64 -0.2098,2.421 0.0159,0.5233 0.0813,1.0381 0.0964,1.5354 0.005,0.1462 -0.0108,0.3071 -0.0703,0.5131 -0.0438,0.1512 -0.0483,0.0937 0.0825,0.0886 0.4934,-0.0191 0.9704,0.319 1.2112,0.8728 0.2176,0.5005 0.2626,1.2209 0.162,1.6914 z"
         style="fill:#5bc3cd;fill-rule:evenodd"
         id="path7" />
      <path
         d="m 291.2126,308.5774 -0.0655,-2e-4 c -2.7196,0.0399 -5.4553,-0.5212 -7.5751,-2.3435 -1.6761,-1.4405 -2.2506,-2.18 -2.217,-4.9775 0.0156,-1.3166 0.1741,-3.2676 1.6506,-3.4509 1.2076,-0.1584 2.4208,-0.3404 3.6239,-0.3151 0.8554,0.0181 1.7046,0.1192 2.5385,0.3984 1.1099,0.3717 2.0474,0.9278 2.7541,2.1393 0.2396,0.4107 0.4247,0.8346 0.5627,1.4272 0.182,0.7823 0.2335,1.6399 0.2098,2.4209 -0.0161,0.5234 -0.0814,1.0382 -0.0965,1.5354 -0.005,0.1462 0.0105,0.3072 0.0704,0.5132 0.0436,0.1511 0.0481,0.0936 -0.0826,0.0886 -0.4934,-0.0192 -0.9702,0.319 -1.2112,0.8728 -0.2177,0.5004 -0.2626,1.2209 -0.1621,1.6914 z"
         style="fill:#5bc3cd;fill-rule:evenodd"
         id="path8" />
      <path
         d="m 296.1588,287.9201 c 1.8254,0.8339 2.7536,1.8005 3.6731,2.8591 2.2973,0.6682 3.6409,1.0413 5.8359,2.1036 0.2057,-1.1421 -0.0528,-1.0196 0.9908,-1.3668 1.7381,-0.579 3.375,-1.1938 5.2035,-0.8759 0.0608,2.8044 0.2557,4.6997 -2.3901,6.2433 -8.604,-1.4609 -11.68,1.9527 -10.9683,8.3602 0.0799,0.7189 -0.0836,0.8415 -0.1144,1.4563 1.3426,-0.2618 1.7767,0.9167 1.7392,2.0922 -0.0368,1.1559 -0.9949,1.2244 -1.5617,0.864 -0.5071,-0.3228 -1.0698,-0.0105 -0.6582,0.6913 -0.036,1.1083 -0.9732,1.5415 -1.8488,1.9674 -0.7626,-0.6028 -1.6147,-0.8591 -1.6506,-1.9674 0.4114,-0.7018 -0.151,-1.0141 -0.6582,-0.6913 -0.5667,0.3604 -1.5249,0.2919 -1.5617,-0.864 -0.0374,-1.1755 0.3966,-2.354 1.7392,-2.0922 -0.031,-0.6148 -0.1943,-0.7374 -0.1143,-1.4563 0.7116,-6.4075 -2.3647,-9.8211 -10.9684,-8.3602 -2.6459,-1.5436 -2.451,-3.4389 -2.39,-6.2433 1.8284,-0.3179 3.4653,0.2969 5.2033,0.8759 1.0437,0.3472 0.7852,0.2247 0.9909,1.3668 2.195,-1.0623 3.5385,-1.4354 5.8359,-2.1036 0.9197,-1.0586 1.8478,-2.0252 3.6729,-2.8591 z"
         style="fill:#5bc3cd;fill-rule:evenodd"
         id="path9" />
      <path
         d="m 316.5236,352.737 c -0.7026,-0.9777 -1.3359,-0.8275 -2.5946,-1.687 2.6841,-2.0526 4.0092,-3.055 7.0451,-1.0166 1.667,-3.6119 5.8657,-2.1176 8.6765,-0.8275 -1.1146,1.0827 -2.2201,1.457 -3.4283,2.3143 -0.2924,0.2076 -0.7168,0.6921 -1.1793,1.2757 -0.3191,0.403 -0.5356,0.6402 -0.893,0.8839 -0.1988,0.1356 -0.6896,0.2626 -1.193,0.4803 -0.4833,0.209 -0.979,0.5078 -1.2393,0.7014 -0.7701,0.5727 -1.0593,1.2134 -1.7428,2.2079 -0.004,0.006 -1.4322,-0.8953 -1.6077,-1.0504 -1.0982,-0.9708 -1.6707,-3.0417 -1.8436,-3.282 z m -4.0081,9.1305 c -1.235,-2.2018 -0.8624,-1.5154 -2.9857,-2.9653 4.0091,-3.0657 5.9882,-4.563 10.5228,-1.5184 2.4897,-5.395 8.7609,-3.1629 12.9592,-1.2359 -1.6647,1.6173 -3.3162,2.1764 -5.1206,3.4566 -1.1562,0.8204 -1.9276,4.518 -3.2504,6.2107 -0.2945,0.377 -0.2465,0.239 -0.144,-0.0891 0.4945,-1.5831 -0.4113,-3.6163 -1.6653,-4.5155 -0.9277,-0.6652 -2.2729,-0.969 -3.5967,-0.4874 -1.3167,-2.9796 -6.0486,-1.7501 -6.7193,1.1443 z"
         style="fill:#5bc3cd;fill-rule:evenodd"
         id="path10" />
      <path
         d="m 295.4227,357.9712 c -1.2738,2.9728 -6.5665,8.8136 -8.7928,10.5894 -0.7292,0.5818 -1.6094,0.7566 -2.2291,0.7577 -3.777,0.007 -7.0974,-0.0269 -10.8747,-0.002 0.4805,-3.5215 0.3262,-5.7691 -3.9733,-5.3634 -1.0506,0.0991 -0.352,0.0665 0.192,0.0871 3.4835,0.1322 3.6084,1.2468 3.0594,5.3082 -8.5132,0.3698 -7.003,-10.0368 -0.9366,-7.792 0.5181,-1.2433 1.8876,-2.0845 3.305,-1.746 1.9716,0.4707 2.5236,1.8733 2.6338,3.0023 0.1035,1.0608 -0.4054,2.2841 -1.4485,2.3277 -0.5545,0.0232 -1.4311,-0.2939 -2.1056,-1.0908 -0.6589,-0.7786 -0.6186,-1.8021 0.4646,-2.3448 0.3223,-0.1614 0.8724,-0.2948 0.0188,-0.1487 -1.1366,0.1947 -1.4605,1.0364 -1.1974,1.9087 0.4431,1.4685 2.185,2.1802 3.5955,2.3399 1.2419,0.1404 4.6894,-0.4066 5.804,-1.0831 2.6184,-1.5895 7.7337,-8.1518 10.1153,-10.5324 1.9992,-1.9983 0.4542,-26.1202 1.1542,-30.2414 -1.068,-2.8033 -2.1463,-2.636 -5.1412,-2.8516 -1.9104,-0.1375 -3.4466,-0.8909 -5.1418,-2.3362 -1.5486,-1.3204 -2.9647,-2.6678 -4.0789,-4.0814 -1.2542,-1.591 -2.2069,-3.2893 -3.0637,-4.9444 -2.0482,-3.9565 -3.135,-8.316 -2.8989,-14.3425 0.0667,-1.7023 0.2096,-3.484 0.816,-4.9324 0.9224,-2.2032 2.76,-1.7894 4.3861,-3.361 0.557,-0.5383 1.0018,-1.2147 1.4249,-2.0276 0.3904,-0.7498 2.2579,-1.0786 3.1082,-1.2134 3.9605,-0.6277 8.6742,0.8147 12.7266,1.2649 -1.8619,1.0071 -3.0275,1.6711 -4.4422,3.3093 -1.9482,0.5403 -3.4188,0.9493 -5.2625,1.8052 -0.3751,-2.2033 -6.3071,-2.5786 -8.1067,-2.214 -0.4513,3.5879 -0.4944,4.9245 1.9926,7.5958 -2.3317,2.1974 -2.2119,6.3778 -0.3406,9.7246 -1.1762,9.5366 1.928,12.5871 8.8914,14.6345 2.5375,0.746 4.3328,0.7033 5.9741,2.8739 0.8626,0.2331 1.7252,0.2665 2.5878,0 1.6413,-2.1706 3.4022,-2.256 5.9741,-2.8739 6.7732,-1.8722 9.9463,-4.9862 8.8914,-14.6345 1.8713,-3.3468 1.991,-7.5272 -0.3406,-9.7246 2.487,-2.6713 2.4439,-4.0079 1.9925,-7.5958 -1.7996,-0.3646 -7.7316,0.0107 -8.1066,2.214 -1.8437,-0.8559 -3.3143,-1.2649 -5.2626,-1.8052 -1.4146,-1.6382 -2.5802,-2.3022 -4.4421,-3.3093 4.0523,-0.4502 8.7661,-1.8927 12.7265,-1.2649 0.8505,0.1348 2.7179,0.4635 3.1082,1.2134 0.4233,0.8129 0.868,1.4892 1.425,2.0276 1.6262,1.5716 3.4635,1.1578 4.386,3.361 0.6065,1.4485 0.7494,3.23 0.8161,4.9324 0.2362,6.0265 -0.8506,10.386 -2.8989,14.3425 -0.8568,1.6552 -1.8095,3.3532 -3.0638,4.9444 -1.1143,1.4136 -2.5304,2.7607 -4.0788,4.0814 -1.6955,1.4453 -3.2314,2.1987 -5.1419,2.3362 -2.995,0.2158 -4.0731,0.0483 -5.1411,2.8516 -0.0353,7.4726 -1.1932,23.4938 0.7159,29.6785 0.9368,3.0351 5.4811,9.1241 8.7284,11.0953 1.1146,0.6765 4.5621,1.2235 5.804,1.0831 1.4104,-0.1597 3.1524,-0.8714 3.5955,-2.3399 0.2631,-0.8723 -0.0608,-1.714 -1.1974,-1.9087 -0.8536,-0.1461 -0.3036,-0.0127 0.0188,0.1487 1.0832,0.5427 1.1235,1.5662 0.4646,2.3448 -0.6746,0.7969 -1.5511,1.114 -2.1056,1.0908 -1.0431,-0.0436 -1.552,-1.2669 -1.4485,-2.3277 0.1102,-1.129 0.6622,-2.5316 2.6338,-3.0023 1.4174,-0.3385 2.7868,0.5027 3.305,1.746 6.0664,-2.2448 7.5766,8.1618 -0.9367,7.792 -0.5489,-4.0614 -0.424,-5.176 3.0594,-5.3082 0.5441,-0.0206 1.2427,0.012 0.1921,-0.0871 -4.2995,-0.4057 -4.4196,1.9038 -3.9389,5.4253 -3.7774,-0.0247 -7.1321,-0.0528 -10.9091,-0.0598 -0.6197,-10e-4 -1.4999,-0.1759 -2.2292,-0.7577 -2.2262,-1.7758 -7.5374,-7.6166 -8.8113,-10.5894 z"
         style="fill:#5bc3cd;fill-rule:evenodd"
         id="path11" />
      <path
         d="m 360.9094,369.7517 c -5.078,0.1449 -10.1476,0.385 -15.2215,0.5068 -2.7553,0.0661 -5.5147,0.008 -8.2735,0.0158 -1.8908,0.005 -3.6103,0.03 -5.4506,0.1535 -2.142,0.1434 -2.3501,-0.3342 -4.084,1.1137 0.1865,-4.8556 4.1528,-6.0022 7.8828,-5.1678 -2.9572,-1.5747 -6.9028,-0.388 -8.0639,2.8297 1.36,-4.1646 4.3731,-6.3249 8.1976,-5.0655 -1.5286,-1.1074 -4.1296,-1.3621 -6.1729,0.5265 -0.028,0.0258 -0.2045,0.2095 -0.222,0.2081 -0.0194,-0.002 -0.0123,-0.003 -7e-4,-0.0216 0.0242,-0.0389 0.0487,-0.0774 0.0734,-0.1151 1.4519,-2.2211 3.7165,-2.5023 5.5137,-2.0835 1.181,0.2753 1.7753,1.264 2.9091,2.065 2.553,0.2673 4.7497,0.4056 7.3231,0.4056 1.8019,-0.5746 1.7395,-0.1107 3.4144,-0.9922 1.2825,-0.6748 1.7233,-0.7074 3.1424,-0.8039 -1.0777,-0.7805 -0.9309,-0.7493 -1.5298,-1.9486 -0.5663,-1.1344 -1.1232,-2.1658 -1.9763,-3.2363 -3.4431,-4.3202 -4.3808,-9.0125 -3.7964,-13.4404 0.4971,-3.7664 2.0423,-7.3418 5.4948,-10.3341 1.2316,-1.0676 2.2851,-1.6145 3.3473,-2.1282 0.0253,-0.0122 0.0634,-0.0621 0.0475,-0.0855 l -0.2589,-0.3787 c -0.0216,-0.0317 -0.13,-0.006 -0.1649,0.009 -3.7818,1.5477 -6.2809,4.4855 -7.7904,7.906 -0.8498,1.9258 -1.2025,3.9927 -1.7438,6.0805 -1.2731,0.008 -1.9413,0.1987 -3.2074,-0.0166 0.2792,-4.1872 1.5049,-9.1909 3.7597,-12.9137 0.9453,-1.5607 2.1454,-2.5565 3.4138,-3.7181 1.9986,-1.8304 5.0957,-3.352 7.7604,-4.6992 2.911,-1.4709 5.9801,-0.2329 8.4726,1.4771 5.3586,3.6769 6.2953,6.9369 6.7025,15.0717 0.219,4.3737 -0.007,7.9308 -3.1005,12.0509 -2.3752,3.1636 -4.6073,6.2487 -8.0498,8.1511 -0.3565,-0.8194 -0.7534,-1.3478 -0.9705,-1.851 -0.5111,-1.1838 -0.7805,-1.8191 -0.7832,-3.1468 -0.003,-1.3289 0.5605,-2.1225 1.2184,-2.9224 0.6879,-0.8362 1.5836,-1.5852 2.6217,-2.3748 4.304,-4.5734 3.6328,-7.7959 3.0719,-13.1246 -0.1493,-1.4219 -0.1812,-1.9397 -0.648,-3.2976 0.0831,3.73 0.5642,7.3091 -0.2404,10.6166 -0.6603,2.7137 -2.2273,4.8754 -4.2139,6.7259 -1.3242,1.2341 -2.5035,2.4751 -2.4295,4.4457 0.126,3.3507 1.254,3.4661 2.5189,6.8514 0.6017,1.6107 1.0315,2.7943 2.2227,4.5605 0.8519,1.1827 0.9427,2.0486 -0.7159,2.0956 z"
         style="fill:#5bc3cd;fill-rule:evenodd"
         id="path12" />
      <path
         d="m 348.79,359.8001 c 0.7651,1.2337 0.8996,1.7251 1.4731,2.9901 -0.3428,0.0761 -0.7816,0.2659 -1.1502,0.3813 -0.5696,0.1783 -0.8007,0.4564 -1.4194,0.6748 -0.1922,0.0678 -0.8608,0.1122 -1.5294,0.2602 -0.6627,0.1468 -1.2546,0.4387 -1.3843,0.3882 -1.5546,-0.7139 -2.2226,-1.2487 -3.1881,-1.8904 -2.771,-1.8419 -3.783,-4.0468 -5.5079,-7.9593 -1.7847,-4.0482 -1.8347,-8.1482 -1.2148,-12.2503 1.1242,-7.4389 5.2682,-14.6092 10.717,-19.6416 2.0327,-1.8775 5.1087,-2.8479 6.5656,-5.3295 0.1972,-0.3361 0.365,-0.7 0.4963,-1.0977 0.6496,-1.9672 0.0683,-4.1622 -2.1813,-5.6392 -4.1114,-2.6997 -6.6314,-2.0908 -12.0499,-1.0856 -0.1123,-0.916 0.6461,-3.3183 2.3051,-4.6417 7.7454,-6.1793 17.7075,-4.6948 20.897,3.5127 1.3819,3.556 2.4903,6.5591 -0.9252,10.9661 -1.4257,1.8397 -2.9847,2.9179 -5.7502,4.3422 l -1.4304,0.8298 c -7.3641,3.7329 -10.9493,6.8879 -12.9009,15.252 -0.1846,1.3031 -0.9524,4.8507 -0.8984,5.9286 0.1932,3.8546 2.6533,13.0744 6.2913,13.1757 1.946,0.054 2.0559,-0.3421 2.785,0.8336 z"
         style="fill:#5bc3cd;fill-rule:evenodd"
         id="path13" />
      <path
         d="m 288.3,371.5464 8.5172,0.0601 7.5292,0.0789 -2.5994,-3.0515 -0.009,-2.4626 c 0.8934,-1.3469 1.826,-2.8128 2.8733,-4.652 1.2839,-2.7843 2.8287,-5.0022 4.2546,-7.6703 2.3293,-4.3581 3.6458,-6.5776 6.952,-10.215 1.9869,-3.1772 3.1514,-7.0631 0.9921,-10.4704 -0.0672,-0.1058 0.4303,-0.3207 0.5145,-0.2137 2.3771,3.0134 1.0485,8.2256 -0.9563,10.9435 1.8685,0.2349 2.3969,0.5848 3.4997,0.6031 0.8933,0.0147 1.9819,-0.3836 3.3708,-0.3659 2.5509,0.0323 4.3307,0.2334 6.644,0.9449 1.8903,0.5813 1.9746,0.5142 3.9626,0.5142 0.2111,-3.7605 0.8321,-6.0888 1.9035,-9.1155 1.2463,-3.5206 2.9711,-6.5337 5.1727,-9.4606 1.6381,-2.1777 3.7941,-4.6523 6.186,-6.1798 0.3616,-0.2309 0.7106,-0.4832 1.0834,-0.6644 -2.3266,-1.1992 -4.497,-2.6781 -6.7262,-4.2948 -3.2471,-2.3552 -7.3496,-8.7627 -10.1314,-13.3122 -0.5376,-0.8791 -1.0257,-1.6889 -1.449,-2.3867 -2.774,-5.4645 -3.5208,-7.3332 -7.2554,-11.2296 -3.4924,-3.6434 -6.0625,-4.3468 -9.8435,-4.3788 2.5567,5.3118 5.6935,1.4069 6.5333,8.5178 0.5328,4.5111 0.2084,8.7836 -0.9813,12.7356 -1.3307,4.4204 -3.7448,8.4402 -7.2551,11.9446 -6.82,6.1687 -11.621,10.886 -7.2553,20.858 -0.3392,-9.1773 1.4056,-12.385 6.3853,-17.6754 1.8076,-1.9203 3.7646,-3.3702 5.8505,-4.3611 1.6775,-0.7969 3.3979,-1.33 5.5774,-1.2669 0.1015,0.003 0.204,0.007 0.3075,0.0127 l 0.0178,0.5403 c 0.002,0.0734 -0.1372,0.0818 -0.361,0.0789 -3.9276,-0.0522 -7.4424,2.1208 -10.2332,4.7674 -3.9627,3.7581 -5.9964,6.9419 -6.6959,10.9421 -0.4328,2.4747 -0.437,6.7639 -0.1775,8.2134 -1.8447,3.6984 -2.683,7.6067 -2.8784,11.6976 -1.0638,4.7044 -2.8881,8.0333 -4.8026,12.1026 -0.4682,-0.9952 -1.2991,-2.5837 -1.7467,-3.5214 -1.1563,1.6732 -2.443,3.2478 -3.8383,4.7778 l 0.6637,1.24 -0.2481,2.4971 z"
         style="fill:#5bc3cd;fill-rule:evenodd"
         id="path14" />
      <path
         d="m 231.6975,369.5904 c 5.078,0.1449 10.1476,0.385 15.2215,0.5068 2.7553,0.0661 5.5148,0.008 8.2735,0.0159 1.8908,0.005 3.6103,0.0299 5.4506,0.1534 2.142,0.1434 2.3501,-0.3342 4.084,1.1137 -0.1865,-4.8556 -4.1528,-6.0022 -7.8827,-5.1678 2.9571,-1.5747 6.9027,-0.388 8.0639,2.8297 -1.3601,-4.1646 -4.3732,-6.3249 -8.1976,-5.0655 1.5285,-1.1074 4.1295,-1.3621 6.1728,0.5265 0.028,0.0258 0.2045,0.2095 0.222,0.2081 0.0194,-0.002 0.0123,-0.003 7e-4,-0.0216 -0.0242,-0.0389 -0.0487,-0.0774 -0.0734,-0.1151 -1.4518,-2.2211 -3.7165,-2.5023 -5.5137,-2.0834 -1.1809,0.2752 -1.7753,1.2639 -2.909,2.0649 -2.5531,0.2673 -4.7498,0.4056 -7.3232,0.4056 -1.8019,-0.5746 -1.7394,-0.1107 -3.4144,-0.9922 -1.2825,-0.6748 -1.7233,-0.7074 -3.1423,-0.8039 1.0776,-0.7805 0.9309,-0.7493 1.5297,-1.9486 0.5663,-1.1344 1.1232,-2.1657 1.9764,-3.2363 3.443,-4.3202 4.3807,-9.0125 3.7963,-13.4404 -0.4971,-3.7664 -2.0422,-7.3418 -5.4948,-10.3341 -1.2316,-1.0676 -2.2851,-1.6145 -3.3473,-2.1282 -0.0253,-0.0122 -0.0634,-0.0621 -0.0475,-0.0854 l 0.2589,-0.3788 c 0.0216,-0.0317 0.1301,-0.006 0.165,0.009 3.7817,1.5477 6.2808,4.4855 7.7903,7.906 0.8498,1.9258 1.2025,3.9927 1.7438,6.0806 1.2731,0.008 1.9413,0.1986 3.2074,-0.0167 -0.2792,-4.1872 -1.5049,-9.1909 -3.7597,-12.9137 -0.9453,-1.5607 -2.1454,-2.5565 -3.4137,-3.7181 -1.9987,-1.8304 -5.0958,-3.352 -7.7605,-4.6992 -2.9109,-1.4709 -5.9801,-0.2329 -8.4726,1.4771 -5.3586,3.6769 -6.2953,6.9369 -6.7025,15.0717 -0.219,4.3737 0.007,7.9308 3.1005,12.0509 2.3752,3.1636 4.6073,6.2487 8.0498,8.1511 0.3565,-0.8194 0.7534,-1.3478 0.9706,-1.851 0.511,-1.1838 0.7804,-1.8191 0.7832,-3.1468 0.003,-1.3289 -0.5605,-2.1225 -1.2185,-2.9224 -0.6879,-0.8362 -1.5836,-1.5852 -2.6217,-2.3748 -4.304,-4.5734 -3.6328,-7.7959 -3.0719,-13.1246 0.1493,-1.4219 0.1813,-1.9397 0.6481,-3.2976 -0.0832,3.7301 -0.5643,7.3091 0.2403,10.6166 0.6603,2.7137 2.2273,4.8754 4.214,6.7259 1.3241,1.2341 2.5034,2.4751 2.4294,4.4457 -0.126,3.3507 -1.254,3.4661 -2.5189,6.8514 -0.6017,1.6107 -1.0315,2.7943 -2.2227,4.5605 -0.8519,1.1827 -0.9427,2.0486 0.7159,2.0956 z"
         style="fill:#5bc3cd;fill-rule:evenodd"
         id="path15" />
      <path
         d="m 243.8169,359.6388 c -0.7651,1.2337 -0.8996,1.7251 -1.4731,2.9902 0.3428,0.076 0.7816,0.2658 1.1502,0.3812 0.5696,0.1784 0.8007,0.4564 1.4194,0.6748 0.1922,0.0678 0.8608,0.1122 1.5295,0.2602 0.6626,0.1468 1.2545,0.4387 1.3842,0.3882 1.5546,-0.7139 2.2227,-1.2487 3.1881,-1.8904 2.7711,-1.8419 3.783,-4.0468 5.5079,-7.9593 1.7848,-4.0482 1.8347,-8.1482 1.2148,-12.2503 -1.1242,-7.4389 -5.2682,-14.6092 -10.717,-19.6416 -2.0327,-1.8775 -5.1087,-2.8479 -6.5656,-5.3295 -0.1972,-0.3361 -0.3649,-0.7 -0.4963,-1.0977 -0.6496,-1.9672 -0.0683,-4.1621 2.1813,-5.6392 4.1115,-2.6997 6.6314,-2.0908 12.0499,-1.0856 0.1123,-0.916 -0.6461,-3.3183 -2.3051,-4.6417 -7.7454,-6.1792 -17.7075,-4.6948 -20.897,3.5127 -1.3819,3.556 -2.4903,6.5591 0.9252,10.9661 1.4258,1.8397 2.9848,2.9179 5.7502,4.3422 l 1.4304,0.8298 c 7.3641,3.7329 10.9494,6.8879 12.9009,15.2521 0.1846,1.303 0.9524,4.8506 0.8984,5.9286 -0.1932,3.8545 -2.6533,13.0744 -6.2913,13.1756 -1.9459,0.054 -2.0559,-0.3421 -2.785,0.8336 z"
         style="fill:#5bc3cd;fill-rule:evenodd"
         id="path16" />
      <path
         d="m 287.3137,359.5435 c -0.095,0.1084 -0.3954,-0.3145 -0.4649,-0.4409 -1.0037,-1.823 -2.0865,-3.5035 -3.1081,-5.4149 -2.3292,-4.3581 -3.6458,-6.5776 -6.9519,-10.215 -1.987,-3.1772 -3.1515,-7.0631 -0.9922,-10.4704 0.0672,-0.1058 -0.4303,-0.3207 -0.5145,-0.2137 -2.3771,3.0134 -1.0485,8.2256 0.9563,10.9436 -1.8685,0.2348 -2.3969,0.5847 -3.4997,0.603 -0.8933,0.0147 -1.9819,-0.3836 -3.3708,-0.3659 -2.5509,0.0323 -4.3307,0.2335 -6.644,0.9449 -1.8903,0.5813 -1.9746,0.5142 -3.9626,0.5142 -0.2111,-3.7605 -0.8321,-6.0887 -1.9035,-9.1155 -1.2463,-3.5206 -2.9711,-6.5337 -5.1727,-9.4606 -1.638,-2.1777 -3.7941,-4.6523 -6.186,-6.1798 -0.3616,-0.2309 -0.7106,-0.4832 -1.0834,-0.6643 2.3267,-1.1993 4.497,-2.6782 6.7262,-4.2949 3.2471,-2.3552 7.3496,-8.7627 10.1314,-13.3122 0.5376,-0.879 1.0257,-1.6889 1.449,-2.3867 2.774,-5.4645 3.5208,-7.3332 7.2554,-11.2296 3.4924,-3.6434 6.0625,-4.3468 9.8435,-4.3787 -2.5566,5.3117 -5.6934,1.4068 -6.5333,8.5177 -0.5328,4.5111 -0.2084,8.7836 0.9813,12.7357 1.3307,4.4203 3.7449,8.4401 7.2551,11.9445 6.82,6.1687 11.621,10.886 7.2553,20.858 0.3392,-9.1773 -1.4056,-12.385 -6.3853,-17.6754 -1.8076,-1.9203 -3.7646,-3.3702 -5.8505,-4.3611 -1.6775,-0.7969 -3.3979,-1.33 -5.5774,-1.2669 -0.1014,0.003 -0.204,0.007 -0.3075,0.0127 l -0.0178,0.5403 c -0.002,0.0734 0.1372,0.0818 0.361,0.0789 3.9276,-0.0522 7.4425,2.1208 10.2332,4.7674 3.9628,3.7581 5.9964,6.9419 6.696,10.9421 0.4327,2.4747 0.4369,6.7639 0.1774,8.2135 1.8447,3.6983 2.683,7.6066 2.8784,11.6975 0.2322,1.0266 0.4913,1.8943 0.8652,2.8238 0.052,0.1294 -0.0301,0.1985 -0.1228,0.3003 -1.5596,1.7128 -2.9995,3.3912 -4.4158,5.0084 z"
         style="fill:#5bc3cd;fill-rule:evenodd"
         id="path17" />
      <path
         d="m 274.2885,352.737 c 0.7026,-0.9777 1.336,-0.8275 2.5947,-1.687 -2.6842,-2.0526 -4.0092,-3.055 -7.0452,-1.0166 -1.6669,-3.6119 -5.8657,-2.1176 -8.6764,-0.8275 1.1146,1.0827 2.2201,1.457 3.4283,2.3143 0.2924,0.2076 0.7167,0.6921 1.1792,1.2757 0.3192,0.403 0.5357,0.6402 0.893,0.8839 0.1988,0.1356 0.6897,0.2626 1.193,0.4803 0.4834,0.209 0.979,0.5078 1.2394,0.7014 0.77,0.5727 1.0593,1.2134 1.7428,2.2079 0.004,0.006 1.4322,-0.8953 1.6077,-1.0504 1.0982,-0.9708 1.6706,-3.0417 1.8435,-3.282 z m 4.0082,9.1305 c 1.2349,-2.2018 0.8623,-1.5154 2.9856,-2.9653 -4.0091,-3.0657 -5.9881,-4.563 -10.5228,-1.5184 -2.4896,-5.395 -8.7608,-3.1629 -12.9592,-1.2359 1.6648,1.6173 3.3162,2.1764 5.1206,3.4566 1.1563,0.8204 1.9277,4.518 3.2504,6.2107 0.2946,0.377 0.2466,0.239 0.1441,-0.0891 -0.4946,-1.5831 0.4112,-3.6163 1.6652,-4.5155 0.9277,-0.6652 2.273,-0.969 3.5968,-0.4874 1.3167,-2.9796 6.0486,-1.7501 6.7193,1.1443 z"
         style="fill:#5bc3cd;fill-rule:evenodd"
         id="path18" />
    </g>
    <g
       id="Layer1003">
      <g
         id="Layer1004">
        <path
           d="m 261.6481,349.2875 c 0.4373,0.376 0.903,0.6798 1.4112,0.9784 0.5728,0.3366 1.144,0.6516 1.6875,1.0373 0.4242,0.301 0.91,0.9185 1.2347,1.3284 0.2609,0.3293 0.4851,0.5908 0.8333,0.8283 0.102,0.0695 0.3039,0.1359 0.4216,0.1783 0.2443,0.0882 0.4876,0.174 0.7263,0.2772 0.4334,0.1874 0.9154,0.4515 1.2935,0.7326 0.7545,0.5612 1.1625,1.3044 1.6638,2.0629 0.2004,-0.1234 0.4042,-0.2615 0.5939,-0.384 0.1639,-0.1058 0.3276,-0.2124 0.4895,-0.3214 0.0794,-0.0535 0.1912,-0.123 0.2621,-0.1856 0.2914,-0.2576 0.5336,-0.5909 0.7342,-0.9223 0.2709,-0.4471 0.4892,-0.9292 0.6854,-1.4131 0.074,-0.1826 0.1444,-0.3665 0.2173,-0.5495 0.0428,-0.1075 0.0991,-0.2591 0.1661,-0.3522 0.2454,-0.3414 0.5154,-0.6008 0.8796,-0.8117 0.2559,-0.1482 0.533,-0.2617 0.8008,-0.3867 0.23,-0.1075 0.4491,-0.2221 0.6629,-0.3503 -0.5267,-0.4034 -1.0662,-0.8109 -1.6265,-1.1544 -0.498,-0.3054 -1.038,-0.57 -1.6213,-0.6564 -1.1484,-0.1701 -2.2533,0.4202 -3.1749,1.039 -0.0683,0.0458 -0.1452,0.0582 -0.2243,0.0359 -0.0791,-0.0222 -0.1384,-0.0727 -0.1728,-0.1473 -0.3878,-0.8403 -0.9712,-1.5025 -1.8453,-1.8445 -1.2749,-0.4987 -2.8472,-0.1908 -4.1077,0.2104 -0.6778,0.2157 -1.3404,0.4818 -1.9909,0.7707 z m 19.1695,9.604 c -0.8406,-0.6444 -1.7016,-1.3032 -2.5987,-1.8533 -0.7601,-0.466 -1.5817,-0.8667 -2.4719,-0.9986 -1.753,-0.2597 -3.4285,0.6278 -4.8364,1.5731 -0.0682,0.0458 -0.1451,0.0581 -0.2243,0.0359 -0.0791,-0.0222 -0.1384,-0.0727 -0.1728,-0.1473 -0.5939,-1.2869 -1.4906,-2.3 -2.8288,-2.8235 -1.9366,-0.7577 -4.3094,-0.2982 -6.225,0.3116 -1.0832,0.3447 -2.1406,0.7752 -3.1778,1.2413 0.7053,0.6322 1.4583,1.128 2.2861,1.6145 0.8517,0.5005 1.7016,0.9689 2.5097,1.5422 0.4631,0.3286 0.8167,0.9995 1.0567,1.5022 0.3386,0.7092 0.6206,1.4529 0.9192,2.18 0.2411,0.5869 0.5201,1.2612 0.857,1.8592 -0.0524,-1.4805 0.7641,-3.1112 1.9121,-3.9344 1.0439,-0.7486 2.3909,-0.9634 3.6144,-0.5989 1.4533,-2.7495 5.7643,-1.7992 6.9214,0.8108 0.1244,-0.2198 0.2518,-0.4383 0.3859,-0.6489 0.1468,-0.2308 0.3027,-0.4468 0.5068,-0.6308 0.2039,-0.1838 0.4469,-0.3299 0.68,-0.4732 0.2993,-0.1841 0.5942,-0.3695 0.8864,-0.5619 z"
           style="fill:#5bc3cd;fill-rule:evenodd"
           id="path19" />
      </g>
      <g
         id="Layer1005">
        <path
           d="m 259.0168,345.1628 c 0.5752,0.005 1.1882,0.0226 1.7449,-0.0403 0.6291,-0.071 1.2792,-0.2778 1.8825,-0.4634 0.9737,-0.2994 1.9538,-0.537 2.9611,-0.6911 1.2463,-0.1906 2.5,-0.2497 3.7592,-0.2657 0.6539,-0.008 1.2782,0.0757 1.9204,0.1858 0.4632,0.0793 0.9798,0.1879 1.4493,0.1801 0.2678,-0.004 0.5273,-0.0316 0.7907,-0.0794 0.3579,-0.0651 0.7133,-0.1596 1.0684,-0.2396 0.3888,-0.0877 0.7769,-0.1609 1.1688,-0.2205 -1.9729,-2.9594 -3.0127,-7.9628 -0.6928,-10.904 0.1472,-0.1866 0.4107,-0.1418 0.6028,-0.0667 0.1964,0.0768 0.4401,0.2315 0.3972,0.4799 -0.007,0.0403 -0.0219,0.0788 -0.0438,0.1135 -2.0946,3.305 -0.9391,7.0835 0.9802,10.1611 1.3826,1.5223 2.6693,3.0818 3.8126,4.7937 1.167,1.7473 2.1718,3.6062 3.1615,5.4578 0.9813,1.8361 2.1028,3.5892 3.1063,5.4119 0.026,0.047 0.0974,0.1509 0.1645,0.2322 1.4199,-1.6231 2.8263,-3.2567 4.2785,-4.8514 0.0136,-0.0149 0.0365,-0.0375 0.0551,-0.0585 -0.3691,-0.9247 -0.6417,-1.852 -0.8614,-2.8234 -0.004,-0.0162 -0.006,-0.0303 -0.006,-0.0469 -0.1937,-4.0545 -1.0307,-7.9416 -2.8502,-11.5895 -0.0272,-0.0545 -0.035,-0.1089 -0.0243,-0.1688 0.111,-0.6202 0.1366,-1.3307 0.1554,-1.9604 0.0276,-0.9243 0.019,-1.8543 -0.0176,-2.7782 -0.0441,-1.115 -0.1232,-2.2807 -0.3155,-3.3804 -0.1461,-0.8358 -0.3562,-1.6572 -0.6379,-2.4578 -1.1621,-3.3025 -3.4739,-5.96 -5.9776,-8.3343 -2.7164,-2.5762 -6.177,-4.7444 -10.0431,-4.6931 -0.2472,0.003 -0.6471,-0.006 -0.6354,-0.3587 l 0.0178,-0.5403 c 0.005,-0.141 0.1154,-0.2541 0.2562,-0.2617 0.1047,-0.006 0.2095,-0.01 0.3143,-0.013 2.0731,-0.0601 3.8494,0.4132 5.7014,1.293 2.2544,1.0709 4.2256,2.6076 5.9316,4.4201 1.7953,1.9073 3.5747,3.9394 4.7343,6.3088 0.7629,1.559 1.2162,3.1772 1.4709,4.8908 0.2521,1.6964 0.3148,3.4476 0.2921,5.1773 1.1256,-3.0339 1.5749,-6.1981 0.395,-9.3508 -0.6952,-1.8574 -1.8595,-3.4879 -3.1623,-4.9662 -1.5248,-1.7302 -3.2699,-3.3098 -4.9791,-4.8557 -0.003,-0.003 -0.006,-0.006 -0.01,-0.009 -3.4098,-3.4042 -5.9327,-7.4395 -7.3231,-12.0583 -1.2568,-4.1749 -1.5008,-8.5278 -0.9909,-12.8454 0.1338,-1.1331 0.3701,-2.4699 0.9281,-3.4806 0.3716,-0.6735 0.8418,-1.1295 1.5136,-1.4964 0.6817,-0.3722 1.392,-0.5932 2.0485,-1.0355 0.8251,-0.5558 1.4076,-1.3331 1.8678,-2.1954 -1.126,0.0271 -2.252,0.1289 -3.3426,0.4229 -2.3683,0.6385 -4.1917,2.1238 -5.8608,3.8652 -1.3427,1.4008 -2.5763,2.8314 -3.6293,4.4654 -0.5976,0.9273 -1.1278,1.8937 -1.6376,2.8715 -0.6613,1.2682 -1.2951,2.5523 -1.9426,3.8278 -0.003,0.006 -0.006,0.0117 -0.01,0.0179 -0.4828,0.796 -0.9638,1.5932 -1.4495,2.3875 -1.1485,1.8783 -2.3207,3.744 -3.5556,5.5668 -1.0539,1.5558 -2.1598,3.0991 -3.3579,4.5475 -0.953,1.1522 -2.0761,2.3954 -3.29,3.2759 -2.0301,1.4723 -4.1032,2.8989 -6.3168,4.083 0.2232,0.138 0.4397,0.2873 0.6608,0.4285 2.4108,1.5395 4.5483,3.974 6.2567,6.2453 2.2245,2.9574 3.9734,6.0354 5.2115,9.533 0.3848,1.0868 0.746,2.1813 1.038,3.2971 0.4895,1.8701 0.7455,3.7176 0.8656,5.6393 z"
           style="fill:#5bc3cd;fill-rule:evenodd"
           id="path20" />
      </g>
      <g
         id="Layer1006">
        <path
           d="m 242.7196,362.4556 c 0.2872,0.0918 0.5704,0.2107 0.8554,0.2999 0.5276,0.1652 0.9151,0.4967 1.4286,0.6779 0.1252,0.0442 0.3957,0.0681 0.533,0.0872 0.3235,0.0448 0.6458,0.0934 0.9648,0.164 0.2878,0.0638 0.5664,0.1543 0.8448,0.25 0.087,0.0299 0.3076,0.1149 0.4166,0.134 0.8508,-0.3939 1.5879,-0.8197 2.364,-1.3466 0.2461,-0.167 0.4907,-0.3361 0.7384,-0.5007 0.8215,-0.546 1.5496,-1.171 2.1877,-1.9245 0.6512,-0.7689 1.1725,-1.626 1.6383,-2.5169 0.5777,-1.1048 1.0811,-2.2609 1.5839,-3.4016 1.7243,-3.911 1.8243,-7.9355 1.1949,-12.1004 -1.1104,-7.3475 -5.202,-14.4671 -10.6329,-19.4831 -0.8466,-0.7818 -1.8646,-1.3953 -2.836,-2.0087 -1.4449,-0.9125 -2.8945,-1.875 -3.7795,-3.3826 -0.2138,-0.3642 -0.3874,-0.7489 -0.5199,-1.15 -0.7882,-2.3869 0.2264,-4.5957 2.2899,-5.9507 1.4647,-0.9617 2.9737,-1.6765 4.7263,-1.9013 1.1274,-0.1446 2.2568,-0.0777 3.3804,0.0656 1.2795,0.1632 2.5598,0.4141 3.8298,0.6522 -0.0313,-0.5639 -0.2836,-1.2961 -0.4747,-1.7355 -0.3871,-0.8898 -0.9742,-1.7611 -1.7373,-2.3699 -2.309,-1.842 -5.0529,-3.1727 -7.9907,-3.5988 -2.5347,-0.3675 -5.171,-0.0328 -7.4458,1.1804 -2.3767,1.2675 -4.0686,3.3203 -5.039,5.8175 -0.5232,1.3464 -1.0751,2.7538 -1.2563,4.1948 -0.3152,2.5079 0.6316,4.5566 2.1432,6.507 0.3717,0.4797 0.7732,0.9312 1.2133,1.3491 1.2894,1.2241 2.8764,2.1094 4.4468,2.9182 0.004,0.002 0.008,0.004 0.0119,0.007 l 1.4238,0.826 c 7.4785,3.7919 11.0753,7.0279 13.0354,15.4288 0.002,0.008 0.003,0.0152 0.004,0.0235 0.0581,0.41 0.1346,0.8211 0.2086,1.2285 0.0981,0.5397 0.1986,1.079 0.2947,1.6191 0.1065,0.5985 0.2099,1.1997 0.2926,1.8021 0.0568,0.4143 0.1258,0.9131 0.1049,1.3304 -0.0494,0.9856 -0.21,2.0011 -0.4014,2.9683 -0.238,1.2017 -0.5466,2.3985 -0.9218,3.5646 -0.6922,2.1512 -2.4706,6.8233 -5.2312,6.9001 -0.4582,0.0127 -0.9008,-0.005 -1.3573,-0.0189 -0.1823,-0.006 -0.4469,-0.0174 -0.618,0.0549 -0.2384,0.1006 -0.4575,0.4607 -0.587,0.6696 -0.3015,0.4862 -0.5709,0.9702 -0.8093,1.4903 -0.1789,0.3901 -0.3453,0.7864 -0.5183,1.1797 z"
           style="fill:#5bc3cd;fill-rule:evenodd"
           id="path21" />
      </g>
      <g
         id="Layer1007">
        <path
           d="m 263.3879,366.5097 c -1.4481,-2.1051 -3.6758,-3.2322 -6.5925,-2.2717 -0.1278,0.0421 -0.2648,-0.0142 -0.326,-0.1341 -0.0613,-0.1198 -0.0267,-0.2638 0.0822,-0.3428 0.8754,-0.6342 1.9844,-0.945 3.0608,-0.9117 0.5055,0.0157 0.9931,0.1048 1.4563,0.2593 -0.233,-0.1216 -0.4802,-0.2231 -0.742,-0.3027 -0.8882,-0.2699 -1.847,-0.2566 -2.7461,-0.047 -0.2654,0.0618 -0.5081,0.1671 -0.7399,0.3094 -0.3463,0.2127 -0.6542,0.4958 -0.9525,0.7698 -0.3627,0.3332 -0.7183,0.6581 -1.1218,0.9432 -0.0396,0.0279 -0.0799,0.0431 -0.1282,0.0481 -2.4583,0.2573 -4.8785,0.4071 -7.3513,0.4071 -0.0293,0 -0.0544,-0.004 -0.0823,-0.0128 -0.342,-0.1091 -0.6876,-0.203 -1.0408,-0.2682 -0.2327,-0.0429 -0.4661,-0.0698 -0.6993,-0.1075 -0.6344,-0.1025 -1.1518,-0.3369 -1.7182,-0.6349 -0.4646,-0.2445 -0.9408,-0.4745 -1.4545,-0.5945 -0.5057,-0.1182 -1.0626,-0.1437 -1.58,-0.1789 -0.116,-0.008 -0.21,-0.0839 -0.2421,-0.1956 -0.0321,-0.1118 0.007,-0.2261 0.1015,-0.2943 1.0287,-0.7449 0.8892,-0.7344 1.4463,-1.8501 0.5859,-1.1735 1.184,-2.2516 2.0068,-3.2841 3.0663,-3.8474 4.3842,-8.3528 3.7397,-13.2361 -0.5388,-4.082 -2.2707,-7.4493 -5.4037,-10.1648 -1.0449,-0.9056 -2.0534,-1.492 -3.2878,-2.089 -0.1725,-0.0835 -0.2688,-0.3132 -0.1533,-0.4823 l 0.259,-0.3788 c 0.1104,-0.1615 0.3304,-0.1551 0.4913,-0.0893 3.725,1.5244 6.3346,4.4193 7.9356,8.0473 0.8339,1.8895 1.2015,3.931 1.707,5.9224 0.4782,0.0121 0.949,0.0524 1.4275,0.0731 0.4409,0.0191 0.8526,0.005 1.2808,-0.0524 -0.3127,-4.171 -1.5381,-8.968 -3.7035,-12.5431 -0.9054,-1.4948 -2.099,-2.4992 -3.365,-3.6586 -1.3594,-1.245 -3.1064,-2.2596 -4.7262,-3.1288 -0.9821,-0.5271 -1.9788,-1.0257 -2.9734,-1.5284 -2.8151,-1.4228 -5.7957,-0.189 -8.1971,1.4587 -1.7542,1.2036 -3.3708,2.5818 -4.4601,4.4365 -0.7824,1.332 -1.2243,2.785 -1.5113,4.2952 -0.3795,1.9972 -0.5122,4.1017 -0.6137,6.1301 -0.2336,4.667 0.1328,7.994 3.0465,11.8747 2.237,2.9794 4.4333,6.031 7.7098,7.9324 0.1307,-0.2717 0.2745,-0.5344 0.4259,-0.7978 0.1449,-0.2522 0.3039,-0.5122 0.4191,-0.7793 0.4854,-1.1243 0.7584,-1.7873 0.7611,-3.0399 0.002,-1.1677 -0.4422,-1.881 -1.1568,-2.7497 -0.7284,-0.8854 -1.667,-1.6396 -2.5764,-2.3312 -0.0125,-0.01 -0.0225,-0.0186 -0.0333,-0.03 -1.7425,-1.8516 -3.0419,-3.8366 -3.4257,-6.3895 -0.1625,-1.0814 -0.1538,-2.175 -0.0823,-3.2637 0.0808,-1.23 0.235,-2.4596 0.3639,-3.6855 0.0594,-0.5645 0.1089,-1.1391 0.2088,-1.6977 0.102,-0.57 0.2645,-1.1127 0.4525,-1.6596 0.0438,-0.1273 0.1714,-0.2023 0.3039,-0.1786 0.1325,0.0236 0.2263,0.1382 0.2233,0.2727 -0.0407,1.823 -0.1818,3.6427 -0.2127,5.4653 -0.0289,1.7005 0.0419,3.4223 0.4454,5.0812 0.6426,2.6412 2.172,4.7625 4.1354,6.5917 1.3996,1.304 2.5923,2.6117 2.5155,4.6542 -0.0446,1.1859 -0.2093,2.1956 -0.7311,3.2675 -0.2521,0.5177 -0.5544,1.0142 -0.8284,1.5211 -0.3773,0.6981 -0.6985,1.4038 -0.9764,2.1475 -0.202,0.5405 -0.4021,1.0823 -0.6241,1.6151 -0.4481,1.0754 -0.9759,2.0355 -1.6277,3.002 -0.002,0.002 -0.003,0.005 -0.005,0.007 -0.1899,0.2637 -0.6754,0.9769 -0.5164,1.3265 0.1325,0.2915 0.7578,0.3324 1.0201,0.3399 5.0743,0.1445 10.1454,0.3849 15.2203,0.5067 2.7554,0.0662 5.5119,0.008 8.2677,0.0158 1.8257,0.005 3.6457,0.032 5.468,0.1541 1.9206,0.1287 2.3547,-0.2468 3.7495,0.7878 -0.1658,-1.4525 -0.7457,-2.7829 -2.017,-3.6383 -1.5691,-1.0558 -3.7062,-1.0679 -5.4902,-0.6688 -0.1332,0.0298 -0.2659,-0.0423 -0.3133,-0.1704 -0.0473,-0.1279 0.006,-0.2691 0.1268,-0.3332 2.1613,-1.1509 4.8401,-0.8923 6.6709,0.5325 z"
           style="fill:#5bc3cd;fill-rule:evenodd"
           id="path22" />
      </g>
      <g
         id="Layer1008">
        <path
           d="m 333.5901,345.3241 c 0.1201,-1.9217 0.3761,-3.7692 0.8656,-5.6393 0.2921,-1.1158 0.6532,-2.2103 1.038,-3.2971 1.2381,-3.4976 2.987,-6.5756 5.2115,-9.533 1.7084,-2.2713 3.8459,-4.7058 6.2568,-6.2453 0.221,-0.1412 0.4375,-0.2905 0.6607,-0.4285 -2.2136,-1.1841 -4.2867,-2.6107 -6.3168,-4.0831 -1.2139,-0.8804 -2.337,-2.1236 -3.29,-3.2758 -1.1981,-1.4484 -2.304,-2.9917 -3.3579,-4.5475 -1.2349,-1.8229 -2.4071,-3.6885 -3.5556,-5.5668 -0.4857,-0.7943 -0.9666,-1.5915 -1.4495,-2.3875 -0.004,-0.006 -0.007,-0.0115 -0.01,-0.0179 -0.6475,-1.2755 -1.2813,-2.5596 -1.9426,-3.8278 -0.5098,-0.9778 -1.04,-1.9442 -1.6376,-2.8715 -1.0529,-1.634 -2.2865,-3.0646 -3.6293,-4.4654 -1.6691,-1.7414 -3.4925,-3.2267 -5.8608,-3.8652 -1.0906,-0.294 -2.2166,-0.3958 -3.3425,-0.423 0.4601,0.8624 1.0426,1.6397 1.8677,2.1955 0.6565,0.4423 1.3668,0.6633 2.0485,1.0355 0.6718,0.3668 1.142,0.8229 1.5137,1.4964 0.5579,1.0107 0.7942,2.3475 0.928,3.4806 0.5099,4.3176 0.2659,8.6705 -0.9909,12.8454 -1.3904,4.6188 -3.9133,8.6541 -7.3231,12.0583 -0.003,0.003 -0.006,0.006 -0.01,0.009 -1.7092,1.5459 -3.4543,3.1255 -4.9791,4.8556 -1.3028,1.4784 -2.4671,3.1089 -3.1622,4.9663 -1.18,3.1527 -0.7307,6.3169 0.3949,9.3508 -0.0227,-1.7297 0.04,-3.4809 0.2921,-5.1773 0.2547,-1.7136 0.708,-3.3318 1.4709,-4.8908 1.1596,-2.3694 2.939,-4.4015 4.7343,-6.3088 1.7061,-1.8125 3.6772,-3.3492 5.9316,-4.4201 1.852,-0.8798 3.6283,-1.3531 5.7015,-1.293 0.1047,0.003 0.2095,0.007 0.3142,0.013 0.1408,0.008 0.2516,0.1207 0.2562,0.2617 l 0.0178,0.5402 c 0.0117,0.353 -0.3882,0.3621 -0.6353,0.3588 -3.8662,-0.0513 -7.3267,2.1169 -10.0432,4.6931 -2.5036,2.3743 -4.8154,5.0318 -5.9776,8.3343 -0.2817,0.8006 -0.4917,1.622 -0.6379,2.4578 -0.1923,1.0997 -0.2714,2.2654 -0.3155,3.3804 -0.0366,0.9239 -0.0452,1.8539 -0.0176,2.7781 0.0188,0.6298 0.0444,1.3402 0.1554,1.9605 0.0107,0.0599 0.003,0.1143 -0.0243,0.1688 -1.8195,3.6479 -2.6565,7.5349 -2.8502,11.5895 -7e-4,0.0166 -0.003,0.0306 -0.006,0.0469 -0.565,2.4987 -1.4075,4.8122 -2.4527,7.1455 -0.7555,1.6864 -1.5824,3.3407 -2.369,5.0127 -0.0458,0.0972 -0.1378,0.1556 -0.2452,0.1556 -0.1075,0 -0.1995,-0.0584 -0.2452,-0.1557 -0.4916,-1.0449 -1.0357,-2.0661 -1.5443,-3.1032 -1.0637,1.5003 -2.2317,2.9221 -3.4663,4.285 l 0.5734,1.0715 c 0.0265,0.0494 0.0363,0.0988 0.0307,0.1546 l -0.248,2.4971 c -0.007,0.072 -0.0382,0.1315 -0.0931,0.1787 l -2.7994,2.4066 7.795,0.055 6.9343,0.0727 -2.2136,-2.5986 c -0.0432,-0.0508 -0.0645,-0.1081 -0.0647,-0.1748 l -0.009,-2.4625 c -2e-4,-0.056 0.0142,-0.1041 0.0452,-0.1508 1.0043,-1.5142 1.9584,-3.0471 2.8579,-4.6263 1.2339,-2.6729 2.8739,-5.0865 4.2568,-7.6739 0.9896,-1.8517 1.9945,-3.7106 3.1615,-5.458 1.1433,-1.7118 2.4299,-3.2713 3.8125,-4.7935 1.9194,-3.0776 3.0749,-6.8561 0.9802,-10.1612 -0.0219,-0.0346 -0.0368,-0.0731 -0.0438,-0.1134 -0.0428,-0.2484 0.2008,-0.4031 0.3972,-0.4799 0.1921,-0.0751 0.4556,-0.1199 0.6028,0.0667 2.32,2.9411 1.2801,7.9446 -0.6928,10.904 0.3919,0.0596 0.78,0.1328 1.1688,0.2204 0.3551,0.0801 0.7105,0.1746 1.0684,0.2397 0.2634,0.0478 0.5229,0.075 0.7907,0.0794 0.4695,0.008 0.9861,-0.1008 1.4493,-0.1801 0.6422,-0.1101 1.2665,-0.1941 1.9204,-0.1858 1.2592,0.016 2.5129,0.0751 3.7592,0.2657 1.0073,0.1541 1.9874,0.3917 2.9611,0.6911 0.6033,0.1855 1.2534,0.3924 1.8826,0.4634 0.5566,0.0629 1.1697,0.0458 1.7448,0.0403 z"
           style="fill:#5bc3cd;fill-rule:evenodd"
           id="path23" />
      </g>
      <g
         id="Layer1009">
        <path
           d="m 353.3836,324.3759 1.4238,-0.826 c 0.004,-0.002 0.008,-0.004 0.0119,-0.006 1.5704,-0.8088 3.1574,-1.6942 4.4468,-2.9182 0.4402,-0.4179 0.8416,-0.8694 1.2133,-1.3491 1.5116,-1.9504 2.4584,-3.9991 2.1432,-6.507 -0.1812,-1.441 -0.7331,-2.8484 -1.2563,-4.1949 -0.9704,-2.4971 -2.6623,-4.55 -5.0389,-5.8174 -2.2749,-1.2132 -4.9112,-1.5479 -7.4459,-1.1804 -2.9378,0.4261 -5.6817,1.7568 -7.9907,3.5988 -0.7631,0.6088 -1.3502,1.4801 -1.7373,2.3699 -0.1911,0.4394 -0.4433,1.1716 -0.4747,1.7354 1.27,-0.238 2.5503,-0.4889 3.8298,-0.6521 1.1236,-0.1433 2.253,-0.2102 3.3804,-0.0656 1.7526,0.2248 3.2616,0.9396 4.7263,1.9013 2.0635,1.355 3.0781,3.5638 2.2899,5.9507 -0.1324,0.4011 -0.3061,0.7858 -0.5199,1.15 -0.2516,0.4285 -0.5543,0.8214 -0.895,1.1827 -0.8324,0.8828 -1.8646,1.5558 -2.8845,2.1998 -0.9714,0.6135 -1.9894,1.227 -2.836,2.0088 -5.4309,5.016 -9.5225,12.1356 -10.6328,19.483 -0.6294,4.165 -0.5294,8.1895 1.1948,12.1005 0.5028,1.1407 1.0062,2.2968 1.5839,3.4016 0.4658,0.8909 0.9871,1.748 1.6383,2.5169 0.6381,0.7535 1.3662,1.3785 2.1877,1.9245 0.2477,0.1646 0.4923,0.3337 0.7384,0.5007 0.7761,0.5269 1.5132,0.9527 2.364,1.3466 0.109,-0.0191 0.3296,-0.1041 0.4166,-0.134 0.2784,-0.0957 0.557,-0.1863 0.8448,-0.25 0.319,-0.0706 0.6413,-0.1192 0.9648,-0.164 0.1373,-0.0191 0.4078,-0.043 0.533,-0.0872 0.5136,-0.1812 0.901,-0.5127 1.4286,-0.6779 0.285,-0.0892 0.5682,-0.2081 0.8554,-0.2999 -0.173,-0.3933 -0.3394,-0.7896 -0.5183,-1.1798 -0.2384,-0.52 -0.5077,-1.004 -0.8092,-1.4902 -0.1296,-0.209 -0.3486,-0.569 -0.5871,-0.6696 -0.1711,-0.0723 -0.4357,-0.0605 -0.618,-0.0549 -0.4565,0.0139 -0.8991,0.0316 -1.3572,0.0189 -2.7607,-0.0768 -4.5391,-4.7489 -5.2313,-6.9001 -0.3752,-1.1662 -0.6838,-2.3629 -0.9217,-3.5646 -0.1915,-0.9672 -0.3521,-1.9827 -0.4015,-2.9683 -0.0209,-0.4173 0.0481,-0.9161 0.1049,-1.3305 0.0827,-0.6023 0.1861,-1.2035 0.2926,-1.802 0.0961,-0.5401 0.1966,-1.0794 0.2947,-1.6191 0.0741,-0.4074 0.1505,-0.8185 0.2086,-1.2285 0.001,-0.008 0.002,-0.0154 0.004,-0.0235 1.9601,-8.4009 5.5569,-11.6369 13.0354,-15.4288 z"
           style="fill:#5bc3cd;fill-rule:evenodd"
           id="path24" />
      </g>
      <g
         id="Layer1010">
        <path
           d="m 328.1962,370.9492 c 1.3948,-1.0346 1.8289,-0.6591 3.7495,-0.7878 1.8223,-0.1221 3.6423,-0.149 5.468,-0.1541 2.7558,-0.008 5.5123,0.0504 8.2677,-0.0158 5.0749,-0.1218 10.146,-0.3622 15.2203,-0.5067 0.2623,-0.007 0.8876,-0.0484 1.0202,-0.3399 0.1589,-0.3496 -0.3266,-1.0628 -0.5165,-1.3265 -0.002,-0.002 -0.003,-0.004 -0.005,-0.007 -0.6518,-0.9665 -1.1796,-1.9266 -1.6277,-3.0021 -0.222,-0.5327 -0.4221,-1.0745 -0.6241,-1.615 -0.2779,-0.7437 -0.5991,-1.4495 -0.9764,-2.1475 -0.274,-0.5069 -0.5763,-1.0034 -0.8283,-1.5211 -0.5219,-1.072 -0.6866,-2.0816 -0.7312,-3.2676 -0.0768,-2.0424 1.1159,-3.3501 2.5156,-4.6541 1.9633,-1.8292 3.4927,-3.9505 4.1353,-6.5918 0.4035,-1.6588 0.4743,-3.3806 0.4454,-5.0811 -0.0309,-1.8227 -0.172,-3.6423 -0.2127,-5.4653 -0.003,-0.1345 0.0909,-0.2491 0.2233,-0.2728 0.1325,-0.0236 0.2602,0.0514 0.3039,0.1787 0.188,0.5469 0.3505,1.0896 0.4525,1.6596 0.0999,0.5586 0.1494,1.1332 0.2088,1.6977 0.129,1.2259 0.2831,2.4555 0.364,3.6855 0.0714,1.0887 0.0801,2.1823 -0.0824,3.2637 -0.3838,2.5529 -1.6832,4.5379 -3.4257,6.3895 -0.0108,0.0114 -0.0208,0.0204 -0.0333,0.03 -0.9094,0.6916 -1.848,1.4457 -2.5764,2.3312 -0.7146,0.8687 -1.1592,1.582 -1.1568,2.7497 0.003,1.2526 0.2757,1.9155 0.7611,3.0399 0.1152,0.2671 0.2742,0.5271 0.4191,0.7793 0.1514,0.2634 0.2952,0.5261 0.4259,0.7978 3.2765,-1.9014 5.4729,-4.953 7.7099,-7.9324 2.9136,-3.8808 3.2801,-7.2077 3.0464,-11.8747 -0.1015,-2.0284 -0.2342,-4.1329 -0.6137,-6.1301 -0.2869,-1.5102 -0.7289,-2.9632 -1.5113,-4.2952 -1.0893,-1.8547 -2.7059,-3.2329 -4.4601,-4.4365 -2.4014,-1.6477 -5.3819,-2.8815 -8.1971,-1.4587 -0.9946,0.5027 -1.9913,1.0013 -2.9734,1.5284 -1.6198,0.8692 -3.3668,1.8838 -4.7262,3.1288 -1.266,1.1594 -2.4596,2.1638 -3.365,3.6586 -2.1653,3.5751 -3.3908,8.3721 -3.7035,12.5431 0.4282,0.0575 0.8399,0.0715 1.2808,0.0524 0.4785,-0.0207 0.9493,-0.061 1.4275,-0.0731 0.5055,-1.9914 0.8732,-4.0329 1.707,-5.9224 1.601,-3.628 4.2106,-6.5229 7.9356,-8.0473 0.1609,-0.0659 0.3809,-0.0722 0.4914,0.0893 l 0.2589,0.3787 c 0.1155,0.1691 0.0193,0.3989 -0.1533,0.4824 -1.2344,0.597 -2.2429,1.1834 -3.2878,2.089 -3.1329,2.7155 -4.8649,6.0828 -5.4037,10.1648 -0.6445,4.8833 0.6734,9.3887 3.7397,13.2361 0.8229,1.0325 1.4209,2.1106 2.0068,3.2841 0.5571,1.1157 0.4176,1.1052 1.4463,1.8501 0.0942,0.0682 0.1336,0.1825 0.1015,0.2942 -0.0321,0.1118 -0.1261,0.1878 -0.2421,0.1956 -0.5174,0.0353 -1.0743,0.0607 -1.58,0.179 -0.5137,0.12 -0.9899,0.35 -1.4545,0.5945 -0.5664,0.298 -1.0838,0.5324 -1.7182,0.6349 -0.2332,0.0377 -0.4666,0.0646 -0.6993,0.1075 -0.3532,0.0651 -0.6987,0.1591 -1.0408,0.2682 -0.0279,0.009 -0.053,0.0128 -0.0823,0.0128 -2.4728,0 -4.893,-0.1498 -7.3513,-0.4071 -0.0483,-0.005 -0.0886,-0.0202 -0.1282,-0.0481 -0.4035,-0.2851 -0.7591,-0.61 -1.1218,-0.9432 -0.2982,-0.274 -0.6062,-0.5571 -0.9525,-0.7698 -0.2318,-0.1423 -0.4745,-0.2476 -0.7399,-0.3094 -0.8991,-0.2096 -1.8579,-0.2229 -2.746,0.047 -0.2619,0.0796 -0.5091,0.1811 -0.7421,0.3027 0.4632,-0.1545 0.9508,-0.2436 1.4563,-0.2593 1.0764,-0.0333 2.1854,0.2775 3.0608,0.9117 0.1089,0.079 0.1435,0.223 0.0823,0.3428 -0.0613,0.1199 -0.1982,0.1762 -0.3261,0.1341 -2.9167,-0.9605 -5.1444,0.1666 -6.5925,2.2717 1.8308,-1.4248 4.5096,-1.6834 6.6709,-0.5325 0.1204,0.0641 0.1742,0.2053 0.1268,0.3332 -0.0474,0.128 -0.1801,0.2002 -0.3133,0.1704 -1.7839,-0.3991 -3.9211,-0.3871 -5.4902,0.6688 -1.2713,0.8554 -1.8512,2.1858 -2.017,3.6383 z"
           style="fill:#5bc3cd;fill-rule:evenodd"
           id="path25" />
      </g>
      <g
         id="Layer1011">
        <path
           d="m 273.8363,369.0473 c 3.5214,-0.0201 7.0426,0.0105 10.564,0.004 0.7274,-0.001 1.4899,-0.2433 2.0607,-0.6986 0.7636,-0.6091 1.501,-1.3415 2.1838,-2.0394 0.9303,-0.9509 1.8283,-1.9411 2.6898,-2.9547 0.8134,-0.9568 1.6054,-1.9456 2.3322,-2.9701 0.5443,-0.7673 1.1356,-1.6538 1.5068,-2.52 0.0437,-0.1019 0.1383,-0.1643 0.2491,-0.1643 0.1108,0 0.2055,0.0624 0.2491,0.1643 0.3713,0.8664 0.9647,1.7537 1.51,2.5205 0.7289,1.025 1.5234,2.0141 2.3391,2.9711 0.8637,1.0132 1.7636,2.003 2.6958,2.9537 0.684,0.6977 1.4221,1.4293 2.1863,2.0389 0.5708,0.4553 1.3333,0.6973 2.0607,0.6986 3.5329,0.006 7.0655,0.0343 10.5982,0.0577 -0.1837,-1.3835 -0.3749,-3.3162 0.4922,-4.4174 0.8667,-1.1009 2.5142,-1.1243 3.7826,-1.0047 0.1429,0.0135 0.2866,0.0268 0.4291,0.0443 0.1682,0.0206 0.3753,0.0579 0.3603,0.3078 -0.0167,0.2786 -0.2764,0.2632 -0.4555,0.2658 -0.1371,0.002 -0.2742,0.003 -0.4112,0.006 -0.0434,0.001 -0.0867,0.002 -0.13,0.004 -0.7849,0.0298 -2.092,0.1027 -2.6389,0.7655 -0.3265,0.3956 -0.3918,0.9765 -0.4027,1.4705 -0.0181,0.8195 0.0979,1.7121 0.2097,2.5379 1.1129,0.0231 2.2679,-0.1433 3.2575,-0.6696 0.7779,-0.4137 1.405,-1.0285 1.7868,-1.8264 0.6414,-1.3407 0.4924,-3.0969 -0.5599,-4.1918 -1.0007,-1.0413 -2.4055,-1.0624 -3.6915,-0.5866 -0.1363,0.0505 -0.2882,-0.0157 -0.3441,-0.1499 -0.1929,-0.4627 -0.5171,-0.8667 -0.9233,-1.1599 -0.5999,-0.4331 -1.3455,-0.5995 -2.0687,-0.4268 -1.4566,0.3478 -2.2827,1.2862 -2.4271,2.7651 -0.0756,0.7752 0.2451,1.9911 1.1902,2.0306 0.6929,0.029 1.4591,-0.489 1.8875,-0.9951 0.6037,-0.7132 0.4696,-1.5022 -0.3792,-1.9274 -0.0367,-0.0184 -0.0744,-0.0352 -0.1122,-0.0513 -0.077,-0.0328 -0.1552,-0.0624 -0.233,-0.0932 -0.032,-0.0127 -0.0644,-0.0257 -0.0956,-0.0405 -0.0201,-0.01 -0.0397,-0.0203 -0.0582,-0.0329 -0.0949,-0.0651 -0.1443,-0.1788 -0.1171,-0.2939 0.0497,-0.2103 0.2382,-0.2242 0.4018,-0.2035 0.1209,0.0154 0.2426,0.0366 0.3627,0.0572 1.1838,0.2027 1.7557,1.1116 1.411,2.254 -0.479,1.5875 -2.3082,2.3594 -3.8245,2.5309 -1.3474,0.1525 -4.8255,-0.4229 -5.9751,-1.1207 -0.8857,-0.5376 -1.721,-1.2671 -2.4611,-1.989 -0.886,-0.8645 -1.7138,-1.8036 -2.486,-2.7706 -0.8792,-1.1011 -1.7093,-2.2661 -2.4393,-3.4717 -0.5544,-0.9156 -1.1437,-1.9903 -1.4603,-3.0157 -0.2998,-0.9714 -0.4838,-2.0072 -0.6215,-3.0133 -0.1717,-1.2537 -0.2739,-2.522 -0.3445,-3.7852 -0.1647,-2.9455 -0.1627,-5.9182 -0.1177,-8.8674 0.0394,-2.5823 0.1206,-5.1636 0.2023,-7.7448 0.0669,-2.1135 0.1435,-4.2346 0.1535,-6.349 1e-4,-0.0341 0.006,-0.0633 0.0177,-0.0952 1.151,-3.0212 2.4835,-2.8172 5.375,-3.0254 1.9905,-0.1434 3.4841,-0.992 4.9855,-2.2722 1.4381,-1.2262 2.8696,-2.5558 4.0418,-4.0429 1.199,-1.5209 2.148,-3.1859 3.036,-4.9012 2.3603,-4.5592 3.0688,-9.1043 2.8687,-14.2073 -0.062,-1.5813 -0.1813,-3.3721 -0.7952,-4.8384 -0.2885,-0.6888 -0.6858,-1.1587 -1.3294,-1.5347 -0.4487,-0.2621 -0.9469,-0.4509 -1.4159,-0.6755 -0.1948,-0.0932 -0.3817,-0.1908 -0.5616,-0.2961 0.4344,3.4665 0.4861,4.9261 -1.8942,7.5522 0.1773,0.1853 0.3407,0.3834 0.4895,0.5926 0.9048,1.272 1.2132,2.8649 1.1435,4.4022 -0.0754,1.6634 -0.589,3.3373 -1.3896,4.7946 0.2367,2.206 0.3206,4.5974 -0.1271,6.7784 -0.3428,1.6695 -0.9979,3.1877 -2.1524,4.458 -1.7576,1.9338 -4.3577,2.923 -6.8184,3.6032 -0.003,8e-4 -0.006,0.002 -0.009,0.002 -2.4016,0.577 -4.2204,0.6566 -5.8212,2.7738 -0.0357,0.0473 -0.0795,0.078 -0.1362,0.0955 -0.9104,0.2812 -1.825,0.2496 -2.7386,0.003 -0.0605,-0.0164 -0.1076,-0.0482 -0.1454,-0.0982 -0.5847,-0.7733 -1.2445,-1.3328 -2.1343,-1.7229 -0.5392,-0.2363 -1.1126,-0.3927 -1.6826,-0.5352 -0.6749,-0.1688 -1.3493,-0.3228 -2.0175,-0.5192 -2.5608,-0.753 -5.3294,-1.8234 -7.1068,-3.9092 -1.081,-1.2684 -1.6784,-2.7606 -1.9758,-4.3886 -0.3863,-2.1144 -0.2699,-4.4153 -0.012,-6.5424 -0.8001,-1.4569 -1.3133,-3.13 -1.3886,-4.7928 -0.0697,-1.5373 0.2387,-3.1302 1.1435,-4.4022 0.1487,-0.2092 0.3122,-0.4073 0.4895,-0.5926 -2.3803,-2.6261 -2.3286,-4.0857 -1.8942,-7.5522 -0.18,0.1053 -0.3668,0.2029 -0.5616,0.2961 -0.469,0.2246 -0.9673,0.4134 -1.416,0.6755 -0.6435,0.376 -1.0409,0.8459 -1.3293,1.5347 -0.6138,1.4662 -0.7333,3.2572 -0.7952,4.8384 -0.1999,5.103 0.5085,9.6481 2.8687,14.2073 0.888,1.7153 1.8371,3.3803 3.036,4.9012 1.1722,1.4871 2.6036,2.8167 4.0418,4.0429 1.5013,1.2801 2.9951,2.1289 4.9855,2.2722 2.8914,0.2081 4.224,0.004 5.3749,3.0254 0.0181,0.0473 0.0225,0.092 0.014,0.1418 -0.1186,0.698 -0.1391,1.4968 -0.1603,2.2047 -0.0351,1.1653 -0.0365,2.3345 -0.0323,3.5003 0.0107,3.0433 0.0695,6.0873 0.0979,9.1307 0.0164,1.758 0.0252,3.5165 0.0108,5.2746 -0.0128,1.5692 -0.0416,3.1419 -0.1202,4.7093 -0.0593,1.1846 -0.1394,2.4132 -0.3325,3.584 -0.0918,0.5562 -0.2803,1.5715 -0.6932,1.9841 -0.7274,0.7271 -1.4185,1.5186 -2.0975,2.2911 -0.8746,0.9952 -1.7407,1.9979 -2.6197,2.9893 -0.9519,1.0736 -1.9203,2.1451 -2.9357,3.159 -0.4318,0.4312 -0.8755,0.8554 -1.3387,1.2529 -0.3669,0.315 -0.7608,0.6288 -1.1747,0.8801 -1.1495,0.6979 -4.6276,1.2732 -5.9751,1.1207 -1.5163,-0.1715 -3.3455,-0.9434 -3.8244,-2.5309 -0.3447,-1.1424 0.2272,-2.0513 1.411,-2.254 0.1201,-0.0206 0.2417,-0.0418 0.3626,-0.0572 0.1637,-0.0207 0.3522,-0.007 0.4019,0.2035 0.0272,0.1151 -0.0223,0.2288 -0.1172,0.2939 -0.0184,0.0126 -0.038,0.0233 -0.0582,0.0329 -0.0311,0.0148 -0.0635,0.0278 -0.0956,0.0405 -0.0777,0.0308 -0.1559,0.0604 -0.2329,0.0932 -0.0378,0.0161 -0.0755,0.0329 -0.1123,0.0513 -0.8487,0.4252 -0.9828,1.2142 -0.3791,1.9274 0.4284,0.5061 1.1946,1.0241 1.8875,0.9951 0.9451,-0.0395 1.2657,-1.2554 1.1901,-2.0306 -0.1443,-1.4789 -0.9704,-2.4173 -2.427,-2.7651 -0.7232,-0.1727 -1.4688,-0.006 -2.0688,0.4268 -0.4062,0.2932 -0.7303,0.6972 -0.9232,1.1599 -0.0559,0.1342 -0.2078,0.2004 -0.3442,0.1499 -1.2859,-0.4758 -2.6907,-0.4547 -3.6914,0.5866 -1.0523,1.0949 -1.2014,2.8511 -0.5599,4.1918 0.3817,0.7979 1.0089,1.4127 1.7867,1.8264 0.9896,0.5263 2.1446,0.6927 3.2576,0.6696 0.1117,-0.8258 0.2278,-1.7184 0.2097,-2.5379 -0.011,-0.494 -0.0762,-1.0749 -0.4027,-1.4705 -0.5469,-0.6628 -1.854,-0.7357 -2.6389,-0.7655 -0.0433,-0.002 -0.0866,-0.003 -0.13,-0.004 -0.1371,-0.003 -0.2741,-0.004 -0.4113,-0.006 -0.179,-0.003 -0.4387,0.0128 -0.4554,-0.2658 -0.015,-0.2499 0.1921,-0.2872 0.3603,-0.3078 0.1425,-0.0175 0.2862,-0.0308 0.4291,-0.0443 1.2734,-0.1201 2.9433,-0.1034 3.8152,1.0028 0.8579,1.0884 0.6747,2.99 0.4938,4.3576 z m 40.0634,-81.3389 c -0.1668,-0.1247 -0.3277,-0.2608 -0.4837,-0.4117 -0.6195,-0.5986 -1.0815,-1.3376 -1.477,-2.0972 -0.332,-0.6377 -2.2453,-0.9655 -2.9103,-1.0709 -2.3224,-0.3681 -4.868,-0.0107 -7.1696,0.3789 -1.5447,0.2615 -3.0918,0.5709 -4.6462,0.7834 0.5746,0.3189 1.1423,0.6529 1.6772,1.0319 0.7705,0.5459 1.4288,1.1642 2.0478,1.873 0.8722,0.2419 1.7457,0.4838 2.6056,0.7667 0.796,0.2618 1.5701,0.5595 2.333,0.9012 0.5617,-1.383 2.9973,-1.8798 4.2427,-2.0576 0.7679,-0.1097 1.5535,-0.1678 2.3292,-0.1722 0.4615,-0.003 0.9761,0.009 1.4513,0.0745 z m -35.1102,0 c 0.4752,-0.0657 0.9898,-0.0772 1.4512,-0.0745 0.7758,0.004 1.5613,0.0625 2.3293,0.1722 1.2454,0.1778 3.681,0.6746 4.2427,2.0576 0.7629,-0.3417 1.537,-0.6394 2.333,-0.9012 0.8599,-0.2829 1.7334,-0.5248 2.6056,-0.7667 0.619,-0.7088 1.2773,-1.3271 2.0478,-1.873 0.5348,-0.379 1.1025,-0.713 1.6772,-1.0319 -1.5545,-0.2125 -3.1017,-0.5219 -4.6464,-0.7834 -2.3016,-0.3896 -4.8472,-0.7469 -7.1694,-0.3789 -0.6648,0.1054 -2.5784,0.4333 -2.9103,1.0709 -0.3955,0.7596 -0.8575,1.4986 -1.477,2.0972 -0.156,0.1509 -0.3169,0.287 -0.4837,0.4117 z"
           style="fill:#5bc3cd;fill-rule:evenodd"
           id="path26" />
      </g>
      <g
         id="Layer1012">
        <path
           d="m 329.1641,349.2875 c -0.6505,-0.2889 -1.3131,-0.555 -1.9909,-0.7707 -2.2894,-0.7286 -4.7858,-0.895 -5.953,1.6341 -0.0345,0.0746 -0.0937,0.1251 -0.1728,0.1473 -0.0792,0.0223 -0.1561,0.01 -0.2243,-0.0359 -0.9216,-0.6188 -2.0265,-1.2091 -3.1749,-1.039 -0.5833,0.0864 -1.1234,0.351 -1.6213,0.6564 -0.5603,0.3435 -1.0998,0.751 -1.6265,1.1544 0.2138,0.1282 0.4328,0.2428 0.6628,0.3503 0.2678,0.125 0.5449,0.2385 0.8009,0.3867 0.3642,0.2109 0.6342,0.4703 0.8796,0.8117 0.067,0.0931 0.1232,0.2447 0.166,0.3522 0.073,0.183 0.1433,0.3669 0.2174,0.5495 0.1962,0.4839 0.4145,0.966 0.6853,1.4131 0.2007,0.3314 0.4429,0.6647 0.7343,0.9223 0.0709,0.0626 0.1826,0.1321 0.2621,0.1856 0.1618,0.109 0.3255,0.2156 0.4894,0.3214 0.1898,0.1225 0.3936,0.2606 0.594,0.384 0.5007,-0.7575 0.9087,-1.5013 1.6637,-2.0629 0.3781,-0.2811 0.8601,-0.5452 1.2936,-0.7326 0.2386,-0.1032 0.482,-0.189 0.7263,-0.2772 0.1177,-0.0424 0.3195,-0.1088 0.4215,-0.1783 0.3483,-0.2375 0.5725,-0.499 0.8333,-0.8283 0.3247,-0.4099 0.8106,-1.0274 1.2348,-1.3284 0.5435,-0.3857 1.1147,-0.7007 1.6875,-1.0373 0.5081,-0.2986 0.9739,-0.6024 1.4112,-0.9784 z m -19.1695,9.604 c 0.2921,0.1924 0.5871,0.3778 0.8864,0.5619 0.233,0.1433 0.4761,0.2894 0.6799,0.4732 0.2042,0.184 0.36,0.4 0.5069,0.6308 0.1341,0.2106 0.2614,0.4291 0.3859,0.6489 1.1571,-2.61 5.468,-3.5603 6.9214,-0.8108 1.2234,-0.3645 2.5705,-0.1497 3.6144,0.5989 1.1479,0.8232 1.9645,2.4539 1.912,3.9344 0.337,-0.598 0.6159,-1.2723 0.857,-1.8592 0.2987,-0.7271 0.5807,-1.4708 0.9192,-2.18 0.2401,-0.5027 0.5937,-1.1736 1.0567,-1.5022 0.8081,-0.5733 1.658,-1.0417 2.5098,-1.5422 0.8278,-0.4865 1.5807,-0.9823 2.286,-1.6145 -1.0372,-0.4661 -2.0946,-0.8966 -3.1778,-1.2413 -1.9155,-0.6098 -4.2883,-1.0693 -6.2249,-0.3116 -1.3383,0.5235 -2.235,1.5366 -2.8288,2.8235 -0.0344,0.0746 -0.0937,0.1251 -0.1729,0.1473 -0.0791,0.0222 -0.156,0.01 -0.2242,-0.0359 -1.408,-0.9453 -3.0834,-1.8328 -4.8364,-1.5731 -0.8902,0.1319 -1.7118,0.5326 -2.4719,0.9986 -0.8971,0.5501 -1.7582,1.2089 -2.5987,1.8533 z"
           style="fill:#5bc3cd;fill-rule:evenodd"
           id="path27" />
      </g>
      <g
         id="Layer1013">
        <path
           d="m 296.1588,288.2227 c -1.2936,0.6074 -2.2029,1.3237 -3.1627,2.3915 -0.1029,0.1146 -0.2046,0.2303 -0.3057,0.3466 -0.0357,0.0411 -0.0766,0.0673 -0.1288,0.0825 -0.9704,0.2823 -1.9469,0.5579 -2.9029,0.886 -0.9942,0.3412 -1.9447,0.7436 -2.8906,1.2014 -0.0788,0.0382 -0.163,0.0373 -0.241,-0.002 -0.078,-0.0397 -0.1282,-0.1073 -0.1438,-0.1935 -0.0412,-0.2291 -0.0678,-0.4546 -0.1003,-0.6843 -0.006,-0.0454 -0.0234,-0.1747 -0.0512,-0.2128 -0.0543,-0.0747 -0.5667,-0.2301 -0.6583,-0.2606 -1.5886,-0.529 -3.1597,-1.1237 -4.8522,-0.8996 -0.0163,0.6436 -0.0393,1.2933 -0.0111,1.9347 0.0257,0.5864 0.0986,1.1811 0.309,1.7327 0.3549,0.9305 1.0453,1.5585 1.8793,2.0588 3.1566,-0.5254 7.4991,-0.7319 9.7711,1.9772 1.5322,1.827 1.6655,4.4318 1.4139,6.6966 -0.0295,0.266 -0.0274,0.4742 0.0214,0.7357 0.0434,0.2326 0.0822,0.4382 0.0943,0.677 0.004,0.0861 -0.0281,0.162 -0.0932,0.2184 -0.0651,0.0565 -0.1448,0.0778 -0.2294,0.0613 -1.179,-0.23 -1.4463,0.8789 -1.4165,1.8176 0.01,0.3096 0.0997,0.6564 0.4276,0.7628 0.2326,0.0755 0.5154,0.01 0.7178,-0.1189 0.3043,-0.1936 0.7386,-0.26 1.0227,0.009 0.2826,0.2671 0.216,0.6625 0.0555,0.9743 0.0195,0.2747 0.1012,0.512 0.2832,0.7293 0.2707,0.3234 0.7503,0.5911 1.1235,0.8594 0.706,-0.3412 1.4758,-0.7257 1.5434,-1.5892 -0.1604,-0.3117 -0.2267,-0.7067 0.0556,-0.9736 0.2842,-0.2688 0.7185,-0.2024 1.0229,-0.009 0.0836,0.0532 0.1769,0.0936 0.2726,0.1192 0.5682,0.1519 0.8553,-0.2131 0.8728,-0.7631 0.0299,-0.9387 -0.2375,-2.0476 -1.4166,-1.8176 -0.0845,0.0165 -0.1642,-0.005 -0.2293,-0.0613 -0.0651,-0.0564 -0.0975,-0.1322 -0.0932,-0.2183 0.012,-0.239 0.0507,-0.4444 0.0943,-0.6772 0.0489,-0.2615 0.0511,-0.4696 0.0215,-0.7356 -0.2515,-2.2647 -0.1183,-4.8697 1.4138,-6.6967 2.2719,-2.7091 6.6145,-2.5024 9.7711,-1.9771 0.834,-0.5003 1.5243,-1.1283 1.8792,-2.0587 0.2105,-0.5517 0.2833,-1.1464 0.3091,-1.7328 0.0282,-0.6414 0.005,-1.2911 -0.011,-1.9347 -1.6926,-0.2241 -3.2636,0.3706 -4.8523,0.8996 -0.0916,0.0305 -0.604,0.1859 -0.6584,0.2606 -0.0278,0.0381 -0.0447,0.1674 -0.0511,0.2128 -0.0325,0.2297 -0.0591,0.4552 -0.1003,0.6843 -0.0156,0.0862 -0.0658,0.1538 -0.1438,0.1935 -0.078,0.0397 -0.1622,0.0406 -0.241,0.002 -0.946,-0.4578 -1.8966,-0.8602 -2.8908,-1.2014 -0.956,-0.3281 -1.9323,-0.6037 -2.9027,-0.886 -0.0522,-0.0152 -0.0932,-0.0414 -0.1289,-0.0825 -0.1009,-0.1162 -0.2024,-0.2318 -0.3053,-0.3462 -0.9598,-1.0681 -1.8693,-1.7844 -3.1632,-2.3919 z"
           style="fill:#5bc3cd;fill-rule:evenodd"
           id="path28" />
      </g>
      <g
         id="Layer1014">
        <path
           d="m 290.9008,308.3121 c -0.0416,-0.5073 0.0388,-1.1013 0.2255,-1.5303 0.2238,-0.5144 0.6701,-0.9411 1.2255,-1.0225 -0.0194,-0.1154 -0.0283,-0.2319 -0.0246,-0.3522 0.0156,-0.5127 0.0808,-1.0226 0.0965,-1.5354 0.0237,-0.7755 -0.0266,-1.5938 -0.2029,-2.3512 -0.1146,-0.4927 -0.2781,-0.9155 -0.5327,-1.3521 -0.628,-1.0765 -1.4526,-1.6325 -2.6062,-2.0189 -0.7965,-0.2667 -1.6219,-0.3668 -2.4581,-0.3844 -1.1981,-0.0252 -2.3984,0.1621 -3.584,0.313 -1.3285,0.1692 -1.4017,2.1655 -1.4138,3.1853 -0.0124,1.0266 0.026,2.1895 0.5601,3.0991 0.3784,0.6445 1.0011,1.187 1.5626,1.6696 2.0001,1.7193 4.574,2.2823 7.1521,2.28 z"
           style="fill:#5bc3cd;fill-rule:evenodd"
           id="path29" />
      </g>
      <g
         id="Layer1015">
        <path
           d="m 301.1161,308.2098 c 2.5756,0.003 5.1508,-0.5596 7.1523,-2.28 0.5614,-0.4826 1.184,-1.0251 1.5624,-1.6695 0.5342,-0.9096 0.5725,-2.0726 0.5603,-3.0993 -0.0122,-1.0197 -0.0854,-3.0162 -1.4139,-3.1853 -1.1857,-0.1509 -2.3859,-0.3382 -3.5842,-0.3129 -0.8361,0.0176 -1.6616,0.1178 -2.4579,0.3844 -1.1536,0.3863 -1.9783,0.9422 -2.6062,2.0188 -0.2546,0.4365 -0.418,0.8595 -0.5326,1.3521 -0.1762,0.7575 -0.2265,1.5758 -0.2029,2.3513 0.0155,0.5128 0.0807,1.0227 0.0964,1.5353 0.004,0.1203 -0.005,0.2368 -0.0245,0.3523 0.5553,0.0814 1.0018,0.508 1.2255,1.0225 0.1866,0.4291 0.267,1.023 0.2253,1.5303 z"
           style="fill:#5bc3cd;fill-rule:evenodd"
           id="path30" />
      </g>
      <g
         id="Layer1016">
        <path
           d="m 284.2888,308.8281 c -0.005,1.3865 -0.0247,2.7729 -0.03,4.1593 -0.01,2.4667 1.5013,4.0755 3.5738,5.1775 1.554,0.8265 4.1146,1.4795 5.8755,1.505 0.8709,0.0126 1.32,-0.2999 1.5923,-1.1388 0.2069,-0.6376 0.1798,-1.6451 0.1569,-2.3157 -0.0237,-0.6926 -0.0817,-1.3917 -0.0909,-2.0839 -0.3825,-0.4604 -1.1881,-1.0325 -1.1902,-1.6422 -0.0711,-0.2567 -0.1912,-0.3603 -0.4676,-0.3874 -0.5909,-0.058 -0.9434,-0.1013 -1.2893,-0.5672 -1.4052,0.0128 -2.8232,-0.1072 -4.1753,-0.5063 -1.6292,-0.4808 -2.766,-1.1304 -3.9552,-2.2003 z"
           style="fill:#5bc3cd;fill-rule:evenodd"
           id="path31" />
      </g>
      <g
         id="Layer1017">
        <path
           d="m 308.029,308.8426 c -1.1892,1.0699 -2.3259,1.7194 -3.9551,2.2003 -1.3522,0.399 -2.77,0.5191 -4.1753,0.5063 -0.3458,0.4661 -0.6984,0.5091 -1.2894,0.5671 -0.2763,0.0272 -0.3964,0.1307 -0.4674,0.3874 -0.002,0.61 -0.8076,1.1819 -1.1903,1.6423 -0.009,0.6921 -0.0672,1.3912 -0.0909,2.0837 -0.0229,0.6708 -0.0502,1.6784 0.1568,2.316 0.2722,0.839 0.7215,1.1513 1.5924,1.1387 1.7609,-0.0257 4.3214,-0.6785 5.8755,-1.505 2.0725,-1.102 3.5834,-2.7109 3.5738,-5.1775 -0.005,-1.3865 -0.025,-2.7728 -0.0301,-4.1593 z"
           style="fill:#5bc3cd;fill-rule:evenodd"
           id="path32" />
      </g>
    </g>
  </g>
  <text
     x="227.2989"
     y="392.97571"
     id="text32"><tspan
       font-family="'Arial Black'"
       font-size="25.5px"
       fill="#5bc3cd"
       id="tspan32">AKSARAY</tspan></text>
  <text
     x="245.10271"
     y="410.00711"
     id="text33"><tspan
       font-family="Arial"
       font-size="17.5px"
       fill="#5bc3cd"
       id="tspan33">BELEDYES</tspan></text>
</svg>
