<?xml version="1.0" encoding="UTF-8"?>
<svg id="Layer_2" data-name="Layer 2" xmlns="http://www.w3.org/2000/svg" viewBox="0 0 236.22 236.22">
  <defs>
    <style>
      .cls-1 {
        fill: #fff;
      }

      .cls-1, .cls-2 {
        fill-rule: evenodd;
      }

      .cls-3 {
        font-family: Arial-Black, 'Arial Black';
        font-size: 25.5px;
        font-weight: 800;
      }

      .cls-3, .cls-2, .cls-4 {
        fill: #5bc3cd;
      }

      .cls-3, .cls-5, .cls-4 {
        isolation: isolate;
      }

      .cls-6 {
        letter-spacing: -.08em;
      }

      .cls-4 {
        font-family: ArialMT, Arial;
        font-size: 17.5px;
      }
    </style>
  </defs>
  <g id="svg33">
    <path id="path1" class="cls-2" d="M118.11,0l34.66,34.43,48.86.16.16,48.86,34.43,34.66-34.43,34.66-.16,48.86-48.86.16-34.66,34.43-34.66-34.43-48.86-.16-.16-48.86L0,118.11l34.43-34.66.16-48.86,48.86-.16L118.11,0Z"/>
    <path id="path2" class="cls-1" d="M118.11,5.48l33.05,32.84,46.59.15.15,46.59,32.84,33.05-32.84,33.05-.15,46.59-46.59.15-33.05,32.84-33.05-32.84-46.59-.15-.15-46.59L5.48,118.11l32.84-33.05.15-46.59,46.59-.15L118.11,5.48Z"/>
    <g id="Layer1000">
      <path id="path3" class="cls-2" d="M118.11,10.31l31.63,31.43,44.59.14.14,44.59,31.43,31.63-31.43,31.63-.14,44.59-44.59.14-31.63,31.43-31.63-31.43-44.59-.14-.14-44.59-31.43-31.63,31.43-31.63.14-44.59,44.59-.14,31.63-31.43Z"/>
      <path id="path4" class="cls-1" d="M118.11,13.22l30.78,30.58,43.39.14.14,43.39,30.58,30.78-30.58,30.78-.14,43.39-43.39.14-30.78,30.58-30.78-30.58-43.39-.14-.14-43.39-30.58-30.78,30.58-30.78.14-43.39,43.39-.14,30.78-30.58h0Z"/>
    </g>
    <g id="Layer1001">
      <g id="Layer1002">
        <path id="path5" class="cls-2" d="M130.1,87.11c0,1.57.03,3.23.03,4.78.01,2.59-1.58,4.28-3.72,5.42-1.56.83-4.19,1.51-6,1.54-.93.01-1.53-.31-1.85-1.33-.35-1.09-.09-3.35-.08-4.58.34-.46,1.22-1.08,1.19-1.58.1-.41.33-.59.71-.63.56-.05.85-.07,1.17-.57,1.42.02,2.87-.09,4.24-.49,1.81-.53,2.96-1.26,4.3-2.57h0Z"/>
        <path id="path6" class="cls-2" d="M105.83,87.1c0,1.57-.03,3.23-.03,4.78-.01,2.59,1.58,4.28,3.72,5.42,1.56.83,4.19,1.51,6,1.54.93.01,1.53-.31,1.85-1.33.35-1.09.09-3.35.08-4.58-.34-.46-1.22-1.08-1.19-1.58-.1-.41-.33-.59-.71-.63-.56-.05-.85-.07-1.17-.57-1.42.02-2.87-.09-4.24-.49-1.81-.53-2.96-1.26-4.3-2.57Z"/>
        <path id="path7" class="cls-2" d="M122.61,87.37h.07c2.72.04,5.46-.52,7.58-2.34,1.68-1.44,2.25-2.18,2.22-4.98-.02-1.32-.17-3.27-1.65-3.45-1.21-.16-2.42-.34-3.62-.32-.86.02-1.7.12-2.54.4-1.11.37-2.05.93-2.75,2.14-.24.41-.42.83-.56,1.43-.18.78-.23,1.64-.21,2.42.02.52.08,1.04.1,1.54,0,.15-.01.31-.07.51-.04.15-.05.09.08.09.49-.02.97.32,1.21.87.22.5.26,1.22.16,1.69h0Z"/>
        <path id="path8" class="cls-2" d="M113.02,87.47h-.07c-2.72.04-5.46-.52-7.58-2.34-1.68-1.44-2.25-2.18-2.22-4.98.02-1.32.17-3.27,1.65-3.45,1.21-.16,2.42-.34,3.62-.32.86.02,1.7.12,2.54.4,1.11.37,2.05.93,2.75,2.14.24.41.42.83.56,1.43.18.78.23,1.64.21,2.42-.02.52-.08,1.04-.1,1.54,0,.15.01.31.07.51.04.15.05.09-.08.09-.49-.02-.97.32-1.21.87-.22.5-.26,1.22-.16,1.69Z"/>
        <path id="path9" class="cls-2" d="M117.96,66.82c1.83.83,2.75,1.8,3.67,2.86,2.3.67,3.64,1.04,5.84,2.1.21-1.14-.05-1.02.99-1.37,1.74-.58,3.38-1.19,5.2-.88.06,2.8.26,4.7-2.39,6.24-8.6-1.46-11.68,1.95-10.97,8.36.08.72-.08.84-.11,1.46,1.34-.26,1.78.92,1.74,2.09-.04,1.16-.99,1.22-1.56.86-.51-.32-1.07-.01-.66.69-.04,1.11-.97,1.54-1.85,1.97-.76-.6-1.61-.86-1.65-1.97.41-.7-.15-1.01-.66-.69-.57.36-1.52.29-1.56-.86-.04-1.18.4-2.35,1.74-2.09-.03-.61-.19-.74-.11-1.46.71-6.41-2.36-9.82-10.97-8.36-2.65-1.54-2.45-3.44-2.39-6.24,1.83-.32,3.47.3,5.2.88,1.04.35.79.22.99,1.37,2.2-1.06,3.54-1.44,5.84-2.1.92-1.06,1.85-2.03,3.67-2.86Z"/>
        <path id="path10" class="cls-2" d="M138.33,131.63c-.7-.98-1.34-.83-2.59-1.69,2.68-2.05,4.01-3.05,7.05-1.02,1.67-3.61,5.87-2.12,8.68-.83-1.11,1.08-2.22,1.46-3.43,2.31-.29.21-.72.69-1.18,1.28-.32.4-.54.64-.89.88-.2.14-.69.26-1.19.48-.48.21-.98.51-1.24.7-.77.57-1.06,1.21-1.74,2.21,0,0-1.43-.9-1.61-1.05-1.1-.97-1.67-3.04-1.84-3.28h0ZM134.32,140.76c-1.23-2.2-.86-1.52-2.99-2.97,4.01-3.07,5.99-4.56,10.52-1.52,2.49-5.39,8.76-3.16,12.96-1.24-1.66,1.62-3.32,2.18-5.12,3.46-1.16.82-1.93,4.52-3.25,6.21-.29.38-.25.24-.14-.09.49-1.58-.41-3.62-1.67-4.52-.93-.67-2.27-.97-3.6-.49-1.32-2.98-6.05-1.75-6.72,1.14h0Z"/>
        <path id="path11" class="cls-2" d="M117.23,136.87c-1.27,2.97-6.57,8.81-8.79,10.59-.73.58-1.61.76-2.23.76-3.78,0-7.1-.03-10.87,0,.48-3.52.33-5.77-3.97-5.36-1.05.1-.35.07.19.09,3.48.13,3.61,1.25,3.06,5.31-8.51.37-7-10.04-.94-7.79.52-1.24,1.89-2.08,3.3-1.75,1.97.47,2.52,1.87,2.63,3,.1,1.06-.41,2.28-1.45,2.33-.55.02-1.43-.29-2.11-1.09-.66-.78-.62-1.8.46-2.34.32-.16.87-.29.02-.15-1.14.19-1.46,1.04-1.2,1.91.44,1.47,2.18,2.18,3.6,2.34,1.24.14,4.69-.41,5.8-1.08,2.62-1.59,7.73-8.15,10.12-10.53,2-2,.45-26.12,1.15-30.24-1.07-2.8-2.15-2.64-5.14-2.85-1.91-.14-3.45-.89-5.14-2.34-1.55-1.32-2.96-2.67-4.08-4.08-1.25-1.59-2.21-3.29-3.06-4.94-2.05-3.96-3.14-8.32-2.9-14.34.07-1.7.21-3.48.82-4.93.92-2.2,2.76-1.79,4.39-3.36.56-.54,1-1.21,1.42-2.03.39-.75,2.26-1.08,3.11-1.21,3.96-.63,8.67.81,12.73,1.26-1.86,1.01-3.03,1.67-4.44,3.31-1.95.54-3.42.95-5.26,1.81-.38-2.2-6.31-2.58-8.11-2.21-.45,3.59-.49,4.92,1.99,7.6-2.33,2.2-2.21,6.38-.34,9.72-1.18,9.54,1.93,12.59,8.89,14.63,2.54.75,4.33.7,5.97,2.87.86.23,1.73.27,2.59,0,1.64-2.17,3.4-2.26,5.97-2.87,6.77-1.87,9.95-4.99,8.89-14.63,1.87-3.35,1.99-7.53-.34-9.72,2.49-2.67,2.44-4.01,1.99-7.6-1.8-.36-7.73.01-8.11,2.21-1.84-.86-3.31-1.26-5.26-1.81-1.41-1.64-2.58-2.3-4.44-3.31,4.05-.45,8.77-1.89,12.73-1.26.85.13,2.72.46,3.11,1.21.42.81.87,1.49,1.42,2.03,1.63,1.57,3.46,1.16,4.39,3.36.61,1.45.75,3.23.82,4.93.24,6.03-.85,10.39-2.9,14.34-.86,1.66-1.81,3.35-3.06,4.94-1.11,1.41-2.53,2.76-4.08,4.08-1.7,1.45-3.23,2.2-5.14,2.34-2.99.22-4.07.05-5.14,2.85-.04,7.47-1.19,23.49.72,29.68.94,3.04,5.48,9.12,8.73,11.1,1.11.68,4.56,1.22,5.8,1.08,1.41-.16,3.15-.87,3.6-2.34.26-.87-.06-1.71-1.2-1.91-.85-.15-.3-.01.02.15,1.08.54,1.12,1.57.46,2.34-.67.8-1.55,1.11-2.11,1.09-1.04-.04-1.55-1.27-1.45-2.33.11-1.13.66-2.53,2.63-3,1.42-.34,2.79.5,3.3,1.75,6.07-2.24,7.58,8.16-.94,7.79-.55-4.06-.42-5.18,3.06-5.31.54-.02,1.24.01.19-.09-4.3-.41-4.42,1.9-3.94,5.43-3.78-.02-7.13-.05-10.91-.06-.62,0-1.5-.18-2.23-.76-2.23-1.78-7.54-7.62-8.81-10.59h0Z"/>
        <path id="path12" class="cls-2" d="M182.72,148.65c-5.08.14-10.15.39-15.22.51-2.76.07-5.51,0-8.27.02-1.89,0-3.61.03-5.45.15-2.14.14-2.35-.33-4.08,1.11.19-4.86,4.15-6,7.88-5.17-2.96-1.57-6.9-.39-8.06,2.83,1.36-4.16,4.37-6.32,8.2-5.07-1.53-1.11-4.13-1.36-6.17.53-.03.03-.2.21-.22.21-.02,0-.01,0,0-.02.02-.04.05-.08.07-.12,1.45-2.22,3.72-2.5,5.51-2.08,1.18.28,1.78,1.26,2.91,2.07,2.55.27,4.75.41,7.32.41,1.8-.57,1.74-.11,3.41-.99,1.28-.67,1.72-.71,3.14-.8-1.08-.78-.93-.75-1.53-1.95-.57-1.13-1.12-2.17-1.98-3.24-3.44-4.32-4.38-9.01-3.8-13.44.5-3.77,2.04-7.34,5.49-10.33,1.23-1.07,2.29-1.61,3.35-2.13.03-.01.06-.06.05-.09l-.26-.38s-.13,0-.16,0c-3.78,1.55-6.28,4.49-7.79,7.91-.85,1.93-1.2,3.99-1.74,6.08-1.27,0-1.94.2-3.21-.02.28-4.19,1.5-9.19,3.76-12.91.95-1.56,2.15-2.56,3.41-3.72,2-1.83,5.1-3.35,7.76-4.7,2.91-1.47,5.98-.23,8.47,1.48,5.36,3.68,6.3,6.94,6.7,15.07.22,4.37,0,7.93-3.1,12.05-2.38,3.16-4.61,6.25-8.05,8.15-.36-.82-.75-1.35-.97-1.85-.51-1.18-.78-1.82-.78-3.15,0-1.33.56-2.12,1.22-2.92.69-.84,1.58-1.59,2.62-2.37,4.3-4.57,3.63-7.8,3.07-13.12-.15-1.42-.18-1.94-.65-3.3.08,3.73.56,7.31-.24,10.62-.66,2.71-2.23,4.88-4.21,6.73-1.32,1.23-2.5,2.48-2.43,4.45.13,3.35,1.25,3.47,2.52,6.85.6,1.61,1.03,2.79,2.22,4.56.85,1.18.94,2.05-.72,2.1h0Z"/>
        <path id="path13" class="cls-2" d="M170.6,138.7c.77,1.23.9,1.73,1.47,2.99-.34.08-.78.27-1.15.38-.57.18-.8.46-1.42.67-.19.07-.86.11-1.53.26-.66.15-1.25.44-1.38.39-1.55-.71-2.22-1.25-3.19-1.89-2.77-1.84-3.78-4.05-5.51-7.96-1.78-4.05-1.83-8.15-1.21-12.25,1.12-7.44,5.27-14.61,10.72-19.64,2.03-1.88,5.11-2.85,6.57-5.33.2-.34.36-.7.5-1.1.65-1.97.07-4.16-2.18-5.64-4.11-2.7-6.63-2.09-12.05-1.09-.11-.92.65-3.32,2.31-4.64,7.75-6.18,17.71-4.69,20.9,3.51,1.38,3.56,2.49,6.56-.93,10.97-1.43,1.84-2.98,2.92-5.75,4.34l-1.43.83c-7.36,3.73-10.95,6.89-12.9,15.25-.18,1.3-.95,4.85-.9,5.93.19,3.85,2.65,13.07,6.29,13.18,1.95.05,2.06-.34,2.79.83Z"/>
        <path id="path14" class="cls-2" d="M110.11,150.44l8.52.06,7.53.08-2.6-3.05v-2.46c.88-1.35,1.82-2.81,2.86-4.65,1.28-2.78,2.83-5,4.25-7.67,2.33-4.36,3.65-6.58,6.95-10.21,1.99-3.18,3.15-7.06.99-10.47-.07-.11.43-.32.51-.21,2.38,3.01,1.05,8.23-.96,10.94,1.87.23,2.4.58,3.5.6.89.01,1.98-.38,3.37-.37,2.55.03,4.33.23,6.64.94,1.89.58,1.97.51,3.96.51.21-3.76.83-6.09,1.9-9.12,1.25-3.52,2.97-6.53,5.17-9.46,1.64-2.18,3.79-4.65,6.19-6.18.36-.23.71-.48,1.08-.66-2.33-1.2-4.5-2.68-6.73-4.29-3.25-2.36-7.35-8.76-10.13-13.31-.54-.88-1.03-1.69-1.45-2.39-2.77-5.46-3.52-7.33-7.26-11.23-3.49-3.64-6.06-4.35-9.84-4.38,2.56,5.31,5.69,1.41,6.53,8.52.53,4.51.21,8.78-.98,12.74-1.33,4.42-3.74,8.44-7.26,11.94-6.82,6.17-11.62,10.89-7.26,20.86-.34-9.18,1.41-12.39,6.39-17.68,1.81-1.92,3.76-3.37,5.85-4.36,1.68-.8,3.4-1.33,5.58-1.27.1,0,.2,0,.31.01l.02.54c0,.07-.14.08-.36.08-3.93-.05-7.44,2.12-10.23,4.77-3.96,3.76-6,6.94-6.7,10.94-.43,2.47-.44,6.76-.18,8.21-1.84,3.7-2.68,7.61-2.88,11.7-1.06,4.7-2.89,8.03-4.8,12.1-.47-1-1.3-2.58-1.75-3.52-1.16,1.67-2.44,3.25-3.84,4.78l.66,1.24-.25,2.5-3.35,2.88Z"/>
        <path id="path15" class="cls-2" d="M53.5,148.49c5.08.14,10.15.39,15.22.51,2.76.07,5.51,0,8.27.02,1.89,0,3.61.03,5.45.15,2.14.14,2.35-.33,4.08,1.11-.19-4.86-4.15-6-7.88-5.17,2.96-1.57,6.9-.39,8.06,2.83-1.36-4.16-4.37-6.32-8.2-5.07,1.53-1.11,4.13-1.36,6.17.53.03.03.2.21.22.21.02,0,.01,0,0-.02-.02-.04-.05-.08-.07-.12-1.45-2.22-3.72-2.5-5.51-2.08-1.18.28-1.78,1.26-2.91,2.06-2.55.27-4.75.41-7.32.41-1.8-.57-1.74-.11-3.41-.99-1.28-.67-1.72-.71-3.14-.8,1.08-.78.93-.75,1.53-1.95.57-1.13,1.12-2.17,1.98-3.24,3.44-4.32,4.38-9.01,3.8-13.44-.5-3.77-2.04-7.34-5.49-10.33-1.23-1.07-2.29-1.61-3.35-2.13-.03-.01-.06-.06-.05-.09l.26-.38s.13,0,.16,0c3.78,1.55,6.28,4.49,7.79,7.91.85,1.93,1.2,3.99,1.74,6.08,1.27,0,1.94.2,3.21-.02-.28-4.19-1.5-9.19-3.76-12.91-.95-1.56-2.15-2.56-3.41-3.72-2-1.83-5.1-3.35-7.76-4.7-2.91-1.47-5.98-.23-8.47,1.48-5.36,3.68-6.3,6.94-6.7,15.07-.22,4.37,0,7.93,3.1,12.05,2.38,3.16,4.61,6.25,8.05,8.15.36-.82.75-1.35.97-1.85.51-1.18.78-1.82.78-3.15,0-1.33-.56-2.12-1.22-2.92-.69-.84-1.58-1.59-2.62-2.37-4.3-4.57-3.63-7.8-3.07-13.12.15-1.42.18-1.94.65-3.3-.08,3.73-.56,7.31.24,10.62.66,2.71,2.23,4.88,4.21,6.73,1.32,1.23,2.5,2.48,2.43,4.45-.13,3.35-1.25,3.47-2.52,6.85-.6,1.61-1.03,2.79-2.22,4.56-.85,1.18-.94,2.05.72,2.1h0Z"/>
        <path id="path16" class="cls-2" d="M65.62,138.54c-.77,1.23-.9,1.73-1.47,2.99.34.08.78.27,1.15.38.57.18.8.46,1.42.67.19.07.86.11,1.53.26.66.15,1.25.44,1.38.39,1.55-.71,2.22-1.25,3.19-1.89,2.77-1.84,3.78-4.05,5.51-7.96,1.78-4.05,1.83-8.15,1.21-12.25-1.12-7.44-5.27-14.61-10.72-19.64-2.03-1.88-5.11-2.85-6.57-5.33-.2-.34-.36-.7-.5-1.1-.65-1.97-.07-4.16,2.18-5.64,4.11-2.7,6.63-2.09,12.05-1.09.11-.92-.65-3.32-2.31-4.64-7.75-6.18-17.71-4.69-20.9,3.51-1.38,3.56-2.49,6.56.93,10.97,1.43,1.84,2.98,2.92,5.75,4.34l1.43.83c7.36,3.73,10.95,6.89,12.9,15.25.18,1.3.95,4.85.9,5.93-.19,3.85-2.65,13.07-6.29,13.18-1.95.05-2.06-.34-2.79.83h0Z"/>
        <path id="path17" class="cls-2" d="M109.12,138.44c-.1.11-.4-.31-.46-.44-1-1.82-2.09-3.5-3.11-5.41-2.33-4.36-3.65-6.58-6.95-10.21-1.99-3.18-3.15-7.06-.99-10.47.07-.11-.43-.32-.51-.21-2.38,3.01-1.05,8.23.96,10.94-1.87.23-2.4.58-3.5.6-.89.01-1.98-.38-3.37-.37-2.55.03-4.33.23-6.64.94-1.89.58-1.97.51-3.96.51-.21-3.76-.83-6.09-1.9-9.12-1.25-3.52-2.97-6.53-5.17-9.46-1.64-2.18-3.79-4.65-6.19-6.18-.36-.23-.71-.48-1.08-.66,2.33-1.2,4.5-2.68,6.73-4.29,3.25-2.36,7.35-8.76,10.13-13.31.54-.88,1.03-1.69,1.45-2.39,2.77-5.46,3.52-7.33,7.26-11.23,3.49-3.64,6.06-4.35,9.84-4.38-2.56,5.31-5.69,1.41-6.53,8.52-.53,4.51-.21,8.78.98,12.74,1.33,4.42,3.74,8.44,7.26,11.94,6.82,6.17,11.62,10.89,7.26,20.86.34-9.18-1.41-12.39-6.39-17.68-1.81-1.92-3.76-3.37-5.85-4.36-1.68-.8-3.4-1.33-5.58-1.27-.1,0-.2,0-.31.01l-.02.54c0,.07.14.08.36.08,3.93-.05,7.44,2.12,10.23,4.77,3.96,3.76,6,6.94,6.7,10.94.43,2.47.44,6.76.18,8.21,1.84,3.7,2.68,7.61,2.88,11.7.23,1.03.49,1.89.87,2.82.05.13-.03.2-.12.3-1.56,1.71-3,3.39-4.42,5.01h0Z"/>
        <path id="path18" class="cls-2" d="M96.09,131.63c.7-.98,1.34-.83,2.59-1.69-2.68-2.05-4.01-3.05-7.05-1.02-1.67-3.61-5.87-2.12-8.68-.83,1.11,1.08,2.22,1.46,3.43,2.31.29.21.72.69,1.18,1.28.32.4.54.64.89.88.2.14.69.26,1.19.48.48.21.98.51,1.24.7.77.57,1.06,1.21,1.74,2.21,0,0,1.43-.9,1.61-1.05,1.1-.97,1.67-3.04,1.84-3.28h0ZM100.1,140.76c1.23-2.2.86-1.52,2.99-2.97-4.01-3.07-5.99-4.56-10.52-1.52-2.49-5.39-8.76-3.16-12.96-1.24,1.66,1.62,3.32,2.18,5.12,3.46,1.16.82,1.93,4.52,3.25,6.21.29.38.25.24.14-.09-.49-1.58.41-3.62,1.67-4.52.93-.67,2.27-.97,3.6-.49,1.32-2.98,6.05-1.75,6.72,1.14h0Z"/>
      </g>
      <g id="Layer1003">
        <g id="Layer1004">
          <path id="path19" class="cls-2" d="M83.45,128.18c.44.38.9.68,1.41.98.57.34,1.14.65,1.69,1.04.42.3.91.92,1.23,1.33.26.33.49.59.83.83.1.07.3.14.42.18.24.09.49.17.73.28.43.19.92.45,1.29.73.75.56,1.16,1.3,1.66,2.06.2-.12.4-.26.59-.38.16-.11.33-.21.49-.32.08-.05.19-.12.26-.19.29-.26.53-.59.73-.92.27-.45.49-.93.69-1.41.07-.18.14-.37.22-.55.04-.11.1-.26.17-.35.25-.34.52-.6.88-.81.26-.15.53-.26.8-.39.23-.11.45-.22.66-.35-.53-.4-1.07-.81-1.63-1.15-.5-.31-1.04-.57-1.62-.66-1.15-.17-2.25.42-3.17,1.04-.07.05-.15.06-.22.04-.08-.02-.14-.07-.17-.15-.39-.84-.97-1.5-1.85-1.84-1.27-.5-2.85-.19-4.11.21-.68.22-1.34.48-1.99.77h0ZM102.62,137.79c-.84-.64-1.7-1.3-2.6-1.85-.76-.47-1.58-.87-2.47-1-1.75-.26-3.43.63-4.84,1.57-.07.05-.15.06-.22.04-.08-.02-.14-.07-.17-.15-.59-1.29-1.49-2.3-2.83-2.82-1.94-.76-4.31-.3-6.23.31-1.08.34-2.14.78-3.18,1.24.71.63,1.46,1.13,2.29,1.61.85.5,1.7.97,2.51,1.54.46.33.82,1,1.06,1.5.34.71.62,1.45.92,2.18.24.59.52,1.26.86,1.86-.05-1.48.76-3.11,1.91-3.93,1.04-.75,2.39-.96,3.61-.6,1.45-2.75,5.76-1.8,6.92.81.12-.22.25-.44.39-.65.15-.23.3-.45.51-.63.2-.18.45-.33.68-.47.3-.18.59-.37.89-.56h0Z"/>
        </g>
        <g id="Layer1005">
          <path id="path20" class="cls-2" d="M80.82,124.06c.58,0,1.19.02,1.74-.04.63-.07,1.28-.28,1.88-.46.97-.3,1.95-.54,2.96-.69,1.25-.19,2.5-.25,3.76-.27.65,0,1.28.08,1.92.19.46.08.98.19,1.45.18.27,0,.53-.03.79-.08.36-.07.71-.16,1.07-.24.39-.09.78-.16,1.17-.22-1.97-2.96-3.01-7.96-.69-10.9.15-.19.41-.14.6-.07.2.08.44.23.4.48,0,.04-.02.08-.04.11-2.09,3.3-.94,7.08.98,10.16,1.38,1.52,2.67,3.08,3.81,4.79,1.17,1.75,2.17,3.61,3.16,5.46.98,1.84,2.1,3.59,3.11,5.41.03.05.1.15.16.23,1.42-1.62,2.83-3.26,4.28-4.85.01-.01.04-.04.06-.06-.37-.92-.64-1.85-.86-2.82,0-.02,0-.03,0-.05-.19-4.05-1.03-7.94-2.85-11.59-.03-.05-.04-.11-.02-.17.11-.62.14-1.33.16-1.96.03-.92.02-1.85-.02-2.78-.04-1.11-.12-2.28-.32-3.38-.15-.84-.36-1.66-.64-2.46-1.16-3.3-3.47-5.96-5.98-8.33-2.72-2.58-6.18-4.74-10.04-4.69-.25,0-.65,0-.64-.36l.02-.54c0-.14.12-.25.26-.26.1,0,.21-.01.31-.01,2.07-.06,3.85.41,5.7,1.29,2.25,1.07,4.23,2.61,5.93,4.42,1.8,1.91,3.57,3.94,4.73,6.31.76,1.56,1.22,3.18,1.47,4.89.25,1.7.31,3.45.29,5.18,1.13-3.03,1.57-6.2.39-9.35-.7-1.86-1.86-3.49-3.16-4.97-1.52-1.73-3.27-3.31-4.98-4.86,0,0,0,0-.01,0-3.41-3.4-5.93-7.44-7.32-12.06-1.26-4.17-1.5-8.53-.99-12.85.13-1.13.37-2.47.93-3.48.37-.67.84-1.13,1.51-1.5.68-.37,1.39-.59,2.05-1.04.83-.56,1.41-1.33,1.87-2.2-1.13.03-2.25.13-3.34.42-2.37.64-4.19,2.12-5.86,3.87-1.34,1.4-2.58,2.83-3.63,4.47-.6.93-1.13,1.89-1.64,2.87-.66,1.27-1.3,2.55-1.94,3.83,0,0,0,.01-.01.02-.48.8-.96,1.59-1.45,2.39-1.15,1.88-2.32,3.74-3.56,5.57-1.05,1.56-2.16,3.1-3.36,4.55-.95,1.15-2.08,2.4-3.29,3.28-2.03,1.47-4.1,2.9-6.32,4.08.22.14.44.29.66.43,2.41,1.54,4.55,3.97,6.26,6.25,2.22,2.96,3.97,6.04,5.21,9.53.38,1.09.75,2.18,1.04,3.3.49,1.87.75,3.72.87,5.64h0Z"/>
        </g>
        <g id="Layer1006">
          <path id="path21" class="cls-2" d="M64.53,141.35c.29.09.57.21.86.3.53.17.92.5,1.43.68.13.04.4.07.53.09.32.04.65.09.96.16.29.06.57.15.84.25.09.03.31.11.42.13.85-.39,1.59-.82,2.36-1.35.25-.17.49-.34.74-.5.82-.55,1.55-1.17,2.19-1.92.65-.77,1.17-1.63,1.64-2.52.58-1.1,1.08-2.26,1.58-3.4,1.72-3.91,1.82-7.94,1.19-12.1-1.11-7.35-5.2-14.47-10.63-19.48-.85-.78-1.86-1.4-2.84-2.01-1.44-.91-2.89-1.88-3.78-3.38-.21-.36-.39-.75-.52-1.15-.79-2.39.23-4.6,2.29-5.95,1.46-.96,2.97-1.68,4.73-1.9,1.13-.14,2.26-.08,3.38.07,1.28.16,2.56.41,3.83.65-.03-.56-.28-1.3-.47-1.74-.39-.89-.97-1.76-1.74-2.37-2.31-1.84-5.05-3.17-7.99-3.6-2.53-.37-5.17-.03-7.45,1.18-2.38,1.27-4.07,3.32-5.04,5.82-.52,1.35-1.08,2.75-1.26,4.19-.32,2.51.63,4.56,2.14,6.51.37.48.77.93,1.21,1.35,1.29,1.22,2.88,2.11,4.45,2.92,0,0,0,0,.01,0l1.42.83c7.48,3.79,11.08,7.03,13.04,15.43,0,0,0,.02,0,.02.06.41.13.82.21,1.23.1.54.2,1.08.29,1.62.11.6.21,1.2.29,1.8.06.41.13.91.1,1.33-.05.99-.21,2-.4,2.97-.24,1.2-.55,2.4-.92,3.56-.69,2.15-2.47,6.82-5.23,6.9-.46.01-.9,0-1.36-.02-.18,0-.45-.02-.62.05-.24.1-.46.46-.59.67-.3.49-.57.97-.81,1.49-.18.39-.35.79-.52,1.18h0Z"/>
        </g>
        <g id="Layer1007">
          <path id="path22" class="cls-2" d="M85.19,145.41c-1.45-2.11-3.68-3.23-6.59-2.27-.13.04-.26-.01-.33-.13-.06-.12-.03-.26.08-.34.88-.63,1.98-.95,3.06-.91.51.02.99.1,1.46.26-.23-.12-.48-.22-.74-.3-.89-.27-1.85-.26-2.75-.05-.27.06-.51.17-.74.31-.35.21-.65.5-.95.77-.36.33-.72.66-1.12.94-.04.03-.08.04-.13.05-2.46.26-4.88.41-7.35.41-.03,0-.05,0-.08-.01-.34-.11-.69-.2-1.04-.27-.23-.04-.47-.07-.7-.11-.63-.1-1.15-.34-1.72-.63-.46-.24-.94-.47-1.45-.59-.51-.12-1.06-.14-1.58-.18-.12,0-.21-.08-.24-.2-.03-.11,0-.23.1-.29,1.03-.74.89-.73,1.45-1.85.59-1.17,1.18-2.25,2.01-3.28,3.07-3.85,4.38-8.35,3.74-13.24-.54-4.08-2.27-7.45-5.4-10.16-1.04-.91-2.05-1.49-3.29-2.09-.17-.08-.27-.31-.15-.48l.26-.38c.11-.16.33-.16.49-.09,3.73,1.52,6.33,4.42,7.94,8.05.83,1.89,1.2,3.93,1.71,5.92.48.01.95.05,1.43.07.44.02.85,0,1.28-.05-.31-4.17-1.54-8.97-3.7-12.54-.91-1.49-2.1-2.5-3.37-3.66-1.36-1.24-3.11-2.26-4.73-3.13-.98-.53-1.98-1.03-2.97-1.53-2.82-1.42-5.8-.19-8.2,1.46-1.75,1.2-3.37,2.58-4.46,4.44-.78,1.33-1.22,2.79-1.51,4.3-.38,2-.51,4.1-.61,6.13-.23,4.67.13,7.99,3.05,11.87,2.24,2.98,4.43,6.03,7.71,7.93.13-.27.27-.53.43-.8.14-.25.3-.51.42-.78.49-1.12.76-1.79.76-3.04,0-1.17-.44-1.88-1.16-2.75-.73-.89-1.67-1.64-2.58-2.33-.01-.01-.02-.02-.03-.03-1.74-1.85-3.04-3.84-3.43-6.39-.16-1.08-.15-2.17-.08-3.26.08-1.23.24-2.46.36-3.69.06-.56.11-1.14.21-1.7.1-.57.26-1.11.45-1.66.04-.13.17-.2.3-.18.13.02.23.14.22.27-.04,1.82-.18,3.64-.21,5.47-.03,1.7.04,3.42.45,5.08.64,2.64,2.17,4.76,4.14,6.59,1.4,1.3,2.59,2.61,2.52,4.65-.04,1.19-.21,2.2-.73,3.27-.25.52-.55,1.01-.83,1.52-.38.7-.7,1.4-.98,2.15-.2.54-.4,1.08-.62,1.62-.45,1.08-.98,2.04-1.63,3,0,0,0,0,0,0-.19.26-.68.98-.52,1.33.13.29.76.33,1.02.34,5.07.14,10.15.38,15.22.51,2.76.07,5.51,0,8.27.02,1.83,0,3.65.03,5.47.15,1.92.13,2.35-.25,3.75.79-.17-1.45-.75-2.78-2.02-3.64-1.57-1.06-3.71-1.07-5.49-.67-.13.03-.27-.04-.31-.17-.05-.13,0-.27.13-.33,2.16-1.15,4.84-.89,6.67.53h0Z"/>
        </g>
        <g id="Layer1008">
          <path id="path23" class="cls-2" d="M155.4,124.22c.12-1.92.38-3.77.87-5.64.29-1.12.65-2.21,1.04-3.3,1.24-3.5,2.99-6.58,5.21-9.53,1.71-2.27,3.85-4.71,6.26-6.25.22-.14.44-.29.66-.43-2.21-1.18-4.29-2.61-6.32-4.08-1.21-.88-2.34-2.12-3.29-3.28-1.2-1.45-2.3-2.99-3.36-4.55-1.23-1.82-2.41-3.69-3.56-5.57-.49-.79-.97-1.59-1.45-2.39,0,0,0-.01-.01-.02-.65-1.28-1.28-2.56-1.94-3.83-.51-.98-1.04-1.94-1.64-2.87-1.05-1.63-2.29-3.06-3.63-4.47-1.67-1.74-3.49-3.23-5.86-3.87-1.09-.29-2.22-.4-3.34-.42.46.86,1.04,1.64,1.87,2.2.66.44,1.37.66,2.05,1.04.67.37,1.14.82,1.51,1.5.56,1.01.79,2.35.93,3.48.51,4.32.27,8.67-.99,12.85-1.39,4.62-3.91,8.65-7.32,12.06,0,0,0,0-.01,0-1.71,1.55-3.45,3.13-4.98,4.86-1.3,1.48-2.47,3.11-3.16,4.97-1.18,3.15-.73,6.32.39,9.35-.02-1.73.04-3.48.29-5.18.25-1.71.71-3.33,1.47-4.89,1.16-2.37,2.94-4.4,4.73-6.31,1.71-1.81,3.68-3.35,5.93-4.42,1.85-.88,3.63-1.35,5.7-1.29.1,0,.21,0,.31.01.14,0,.25.12.26.26l.02.54c.01.35-.39.36-.64.36-3.87-.05-7.33,2.12-10.04,4.69-2.5,2.37-4.82,5.03-5.98,8.33-.28.8-.49,1.62-.64,2.46-.19,1.1-.27,2.27-.32,3.38-.04.92-.05,1.85-.02,2.78.02.63.04,1.34.16,1.96.01.06,0,.11-.02.17-1.82,3.65-2.66,7.53-2.85,11.59,0,.02,0,.03,0,.05-.57,2.5-1.41,4.81-2.45,7.15-.76,1.69-1.58,3.34-2.37,5.01-.05.1-.14.16-.25.16s-.2-.06-.25-.16c-.49-1.04-1.04-2.07-1.54-3.1-1.06,1.5-2.23,2.92-3.47,4.29l.57,1.07s.04.1.03.15l-.25,2.5c0,.07-.04.13-.09.18l-2.8,2.41,7.8.05,6.93.07-2.21-2.6c-.04-.05-.06-.11-.06-.17v-2.46c0-.06,0-.1.04-.15,1-1.51,1.96-3.05,2.86-4.63,1.23-2.67,2.87-5.09,4.26-7.67.99-1.85,1.99-3.71,3.16-5.46,1.14-1.71,2.43-3.27,3.81-4.79,1.92-3.08,3.07-6.86.98-10.16-.02-.03-.04-.07-.04-.11-.04-.25.2-.4.4-.48.19-.08.46-.12.6.07,2.32,2.94,1.28,7.94-.69,10.9.39.06.78.13,1.17.22.36.08.71.17,1.07.24.26.05.52.08.79.08.47,0,.99-.1,1.45-.18.64-.11,1.27-.19,1.92-.19,1.26.02,2.51.08,3.76.27,1.01.15,1.99.39,2.96.69.6.19,1.25.39,1.88.46.56.06,1.17.05,1.74.04h0Z"/>
        </g>
        <g id="Layer1009">
          <path id="path24" class="cls-2" d="M175.19,103.27l1.42-.83s0,0,.01,0c1.57-.81,3.16-1.69,4.45-2.92.44-.42.84-.87,1.21-1.35,1.51-1.95,2.46-4,2.14-6.51-.18-1.44-.73-2.85-1.26-4.19-.97-2.5-2.66-4.55-5.04-5.82-2.27-1.21-4.91-1.55-7.45-1.18-2.94.43-5.68,1.76-7.99,3.6-.76.61-1.35,1.48-1.74,2.37-.19.44-.44,1.17-.47,1.74,1.27-.24,2.55-.49,3.83-.65,1.12-.14,2.25-.21,3.38-.07,1.75.22,3.26.94,4.73,1.9,2.06,1.36,3.08,3.56,2.29,5.95-.13.4-.31.79-.52,1.15-.25.43-.55.82-.89,1.18-.83.88-1.86,1.56-2.88,2.2-.97.61-1.99,1.23-2.84,2.01-5.43,5.02-9.52,12.14-10.63,19.48-.63,4.17-.53,8.19,1.19,12.1.5,1.14,1.01,2.3,1.58,3.4.47.89.99,1.75,1.64,2.52.64.75,1.37,1.38,2.19,1.92.25.16.49.33.74.5.78.53,1.51.95,2.36,1.35.11-.02.33-.1.42-.13.28-.1.56-.19.84-.25.32-.07.64-.12.96-.16.14-.02.41-.04.53-.09.51-.18.9-.51,1.43-.68.29-.09.57-.21.86-.3-.17-.39-.34-.79-.52-1.18-.24-.52-.51-1-.81-1.49-.13-.21-.35-.57-.59-.67-.17-.07-.44-.06-.62-.05-.46.01-.9.03-1.36.02-2.76-.08-4.54-4.75-5.23-6.9-.38-1.17-.68-2.36-.92-3.56-.19-.97-.35-1.98-.4-2.97-.02-.42.05-.92.1-1.33.08-.6.19-1.2.29-1.8.1-.54.2-1.08.29-1.62.07-.41.15-.82.21-1.23,0,0,0-.02,0-.02,1.96-8.4,5.56-11.64,13.04-15.43h0Z"/>
        </g>
        <g id="Layer1010">
          <path id="path25" class="cls-2" d="M150,149.85c1.39-1.03,1.83-.66,3.75-.79,1.82-.12,3.64-.15,5.47-.15,2.76,0,5.51.05,8.27-.02,5.07-.12,10.15-.36,15.22-.51.26,0,.89-.05,1.02-.34.16-.35-.33-1.06-.52-1.33,0,0,0,0,0,0-.65-.97-1.18-1.93-1.63-3-.22-.53-.42-1.07-.62-1.61-.28-.74-.6-1.45-.98-2.15-.27-.51-.58-1-.83-1.52-.52-1.07-.69-2.08-.73-3.27-.08-2.04,1.12-3.35,2.52-4.65,1.96-1.83,3.49-3.95,4.14-6.59.4-1.66.47-3.38.45-5.08-.03-1.82-.17-3.64-.21-5.47,0-.13.09-.25.22-.27.13-.02.26.05.3.18.19.55.35,1.09.45,1.66.1.56.15,1.13.21,1.7.13,1.23.28,2.46.36,3.69.07,1.09.08,2.18-.08,3.26-.38,2.55-1.68,4.54-3.43,6.39-.01.01-.02.02-.03.03-.91.69-1.85,1.45-2.58,2.33-.71.87-1.16,1.58-1.16,2.75,0,1.25.28,1.92.76,3.04.12.27.27.53.42.78.15.26.3.53.43.8,3.28-1.9,5.47-4.95,7.71-7.93,2.91-3.88,3.28-7.21,3.05-11.87-.1-2.03-.23-4.13-.61-6.13-.29-1.51-.73-2.96-1.51-4.3-1.09-1.85-2.71-3.23-4.46-4.44-2.4-1.65-5.38-2.88-8.2-1.46-.99.5-1.99,1-2.97,1.53-1.62.87-3.37,1.88-4.73,3.13-1.27,1.16-2.46,2.16-3.36,3.66-2.17,3.58-3.39,8.37-3.7,12.54.43.06.84.07,1.28.05.48-.02.95-.06,1.43-.07.51-1.99.87-4.03,1.71-5.92,1.6-3.63,4.21-6.52,7.94-8.05.16-.07.38-.07.49.09l.26.38c.12.17.02.4-.15.48-1.23.6-2.24,1.18-3.29,2.09-3.13,2.72-4.86,6.08-5.4,10.16-.64,4.88.67,9.39,3.74,13.24.82,1.03,1.42,2.11,2.01,3.28.56,1.12.42,1.11,1.45,1.85.09.07.13.18.1.29-.03.11-.13.19-.24.2-.52.04-1.07.06-1.58.18-.51.12-.99.35-1.45.59-.57.3-1.08.53-1.72.63-.23.04-.47.06-.7.11-.35.07-.7.16-1.04.27-.03,0-.05.01-.08.01-2.47,0-4.89-.15-7.35-.41-.05,0-.09-.02-.13-.05-.4-.29-.76-.61-1.12-.94-.3-.27-.61-.56-.95-.77-.23-.14-.47-.25-.74-.31-.9-.21-1.86-.22-2.75.05-.26.08-.51.18-.74.3.46-.15.95-.24,1.46-.26,1.08-.03,2.19.28,3.06.91.11.08.14.22.08.34-.06.12-.2.18-.33.13-2.92-.96-5.14.17-6.59,2.27,1.83-1.42,4.51-1.68,6.67-.53.12.06.17.21.13.33-.05.13-.18.2-.31.17-1.78-.4-3.92-.39-5.49.67-1.27.86-1.85,2.19-2.02,3.64h0Z"/>
        </g>
        <g id="Layer1011">
          <path id="path26" class="cls-2" d="M95.64,147.94c3.52-.02,7.04.01,10.56,0,.73,0,1.49-.24,2.06-.7.76-.61,1.5-1.34,2.18-2.04.93-.95,1.83-1.94,2.69-2.95.81-.96,1.61-1.95,2.33-2.97.54-.77,1.14-1.65,1.51-2.52.04-.1.14-.16.25-.16s.21.06.25.16c.37.87.96,1.75,1.51,2.52.73,1.02,1.52,2.01,2.34,2.97.86,1.01,1.76,2,2.7,2.95.68.7,1.42,1.43,2.19,2.04.57.46,1.33.7,2.06.7,3.53,0,7.07.03,10.6.06-.18-1.38-.37-3.32.49-4.42.87-1.1,2.51-1.12,3.78-1,.14.01.29.03.43.04.17.02.38.06.36.31-.02.28-.28.26-.46.27-.14,0-.27,0-.41,0-.04,0-.09,0-.13,0-.78.03-2.09.1-2.64.77-.33.4-.39.98-.4,1.47-.02.82.1,1.71.21,2.54,1.11.02,2.27-.14,3.26-.67.78-.41,1.4-1.03,1.79-1.83.64-1.34.49-3.1-.56-4.19-1-1.04-2.41-1.06-3.69-.59-.14.05-.29-.02-.34-.15-.19-.46-.52-.87-.92-1.16-.6-.43-1.35-.6-2.07-.43-1.46.35-2.28,1.29-2.43,2.77-.08.78.25,1.99,1.19,2.03.69.03,1.46-.49,1.89-1,.6-.71.47-1.5-.38-1.93-.04-.02-.07-.04-.11-.05-.08-.03-.16-.06-.23-.09-.03-.01-.06-.03-.1-.04-.02-.01-.04-.02-.06-.03-.09-.07-.14-.18-.12-.29.05-.21.24-.22.4-.2.12.02.24.04.36.06,1.18.2,1.76,1.11,1.41,2.25-.48,1.59-2.31,2.36-3.82,2.53-1.35.15-4.83-.42-5.98-1.12-.89-.54-1.72-1.27-2.46-1.99-.89-.86-1.71-1.8-2.49-2.77-.88-1.1-1.71-2.27-2.44-3.47-.55-.92-1.14-1.99-1.46-3.02-.3-.97-.48-2.01-.62-3.01-.17-1.25-.27-2.52-.34-3.79-.16-2.95-.16-5.92-.12-8.87.04-2.58.12-5.16.2-7.74.07-2.11.14-4.23.15-6.35,0-.03,0-.06.02-.1,1.15-3.02,2.48-2.82,5.38-3.03,1.99-.14,3.48-.99,4.99-2.27,1.44-1.23,2.87-2.56,4.04-4.04,1.2-1.52,2.15-3.19,3.04-4.9,2.36-4.56,3.07-9.1,2.87-14.21-.06-1.58-.18-3.37-.8-4.84-.29-.69-.69-1.16-1.33-1.53-.45-.26-.95-.45-1.42-.68-.19-.09-.38-.19-.56-.3.43,3.47.49,4.93-1.89,7.55.18.19.34.38.49.59.9,1.27,1.21,2.86,1.14,4.4-.08,1.66-.59,3.34-1.39,4.79.24,2.21.32,4.6-.13,6.78-.34,1.67-1,3.19-2.15,4.46-1.76,1.93-4.36,2.92-6.82,3.6,0,0,0,0,0,0-2.4.58-4.22.66-5.82,2.77-.04.05-.08.08-.14.1-.91.28-1.83.25-2.74,0-.06-.02-.11-.05-.15-.1-.58-.77-1.24-1.33-2.13-1.72-.54-.24-1.11-.39-1.68-.54-.67-.17-1.35-.32-2.02-.52-2.56-.75-5.33-1.82-7.11-3.91-1.08-1.27-1.68-2.76-1.98-4.39-.39-2.11-.27-4.42-.01-6.54-.8-1.46-1.31-3.13-1.39-4.79-.07-1.54.24-3.13,1.14-4.4.15-.21.31-.41.49-.59-2.38-2.63-2.33-4.09-1.89-7.55-.18.11-.37.2-.56.3-.47.22-.97.41-1.42.68-.64.38-1.04.85-1.33,1.53-.61,1.47-.73,3.26-.8,4.84-.2,5.1.51,9.65,2.87,14.21.89,1.72,1.84,3.38,3.04,4.9,1.17,1.49,2.6,2.82,4.04,4.04,1.5,1.28,3,2.13,4.99,2.27,2.89.21,4.22,0,5.37,3.03.02.05.02.09.01.14-.12.7-.14,1.5-.16,2.2-.04,1.17-.04,2.33-.03,3.5.01,3.04.07,6.09.1,9.13.02,1.76.03,3.52.01,5.27-.01,1.57-.04,3.14-.12,4.71-.06,1.18-.14,2.41-.33,3.58-.09.56-.28,1.57-.69,1.98-.73.73-1.42,1.52-2.1,2.29-.87,1-1.74,2-2.62,2.99-.95,1.07-1.92,2.15-2.94,3.16-.43.43-.88.86-1.34,1.25-.37.32-.76.63-1.17.88-1.15.7-4.63,1.27-5.98,1.12-1.52-.17-3.35-.94-3.82-2.53-.34-1.14.23-2.05,1.41-2.25.12-.02.24-.04.36-.06.16-.02.35,0,.4.2.03.12-.02.23-.12.29-.02.01-.04.02-.06.03-.03.01-.06.03-.1.04-.08.03-.16.06-.23.09-.04.02-.08.03-.11.05-.85.43-.98,1.21-.38,1.93.43.51,1.19,1.02,1.89,1,.95-.04,1.27-1.26,1.19-2.03-.14-1.48-.97-2.42-2.43-2.77-.72-.17-1.47,0-2.07.43-.41.29-.73.7-.92,1.16-.06.13-.21.2-.34.15-1.29-.48-2.69-.45-3.69.59-1.05,1.09-1.2,2.85-.56,4.19.38.8,1.01,1.41,1.79,1.83.99.53,2.14.69,3.26.67.11-.83.23-1.72.21-2.54-.01-.49-.08-1.07-.4-1.47-.55-.66-1.85-.74-2.64-.77-.04,0-.09,0-.13,0-.14,0-.27,0-.41,0-.18,0-.44.01-.46-.27-.02-.25.19-.29.36-.31.14-.02.29-.03.43-.04,1.27-.12,2.94-.1,3.82,1,.86,1.09.67,2.99.49,4.36h0ZM135.71,66.61c-.17-.12-.33-.26-.48-.41-.62-.6-1.08-1.34-1.48-2.1-.33-.64-2.25-.97-2.91-1.07-2.32-.37-4.87-.01-7.17.38-1.54.26-3.09.57-4.65.78.57.32,1.14.65,1.68,1.03.77.55,1.43,1.16,2.05,1.87.87.24,1.75.48,2.61.77.8.26,1.57.56,2.33.9.56-1.38,3-1.88,4.24-2.06.77-.11,1.55-.17,2.33-.17.46,0,.98,0,1.45.07h0ZM100.6,66.61c.48-.07.99-.08,1.45-.07.78,0,1.56.06,2.33.17,1.25.18,3.68.67,4.24,2.06.76-.34,1.54-.64,2.33-.9.86-.28,1.73-.52,2.61-.77.62-.71,1.28-1.33,2.05-1.87.53-.38,1.1-.71,1.68-1.03-1.55-.21-3.1-.52-4.65-.78-2.3-.39-4.85-.75-7.17-.38-.66.11-2.58.43-2.91,1.07-.4.76-.86,1.5-1.48,2.1-.16.15-.32.29-.48.41h0Z"/>
        </g>
        <g id="Layer1012">
          <path id="path27" class="cls-2" d="M150.97,128.18c-.65-.29-1.31-.55-1.99-.77-2.29-.73-4.79-.89-5.95,1.63-.03.07-.09.13-.17.15-.08.02-.16.01-.22-.04-.92-.62-2.03-1.21-3.17-1.04-.58.09-1.12.35-1.62.66-.56.34-1.1.75-1.63,1.15.21.13.43.24.66.35.27.12.54.24.8.39.36.21.63.47.88.81.07.09.12.24.17.35.07.18.14.37.22.55.2.48.41.97.69,1.41.2.33.44.66.73.92.07.06.18.13.26.19.16.11.33.22.49.32.19.12.39.26.59.38.5-.76.91-1.5,1.66-2.06.38-.28.86-.55,1.29-.73.24-.1.48-.19.73-.28.12-.04.32-.11.42-.18.35-.24.57-.5.83-.83.32-.41.81-1.03,1.23-1.33.54-.39,1.11-.7,1.69-1.04.51-.3.97-.6,1.41-.98h0ZM131.8,137.79c.29.19.59.38.89.56.23.14.48.29.68.47.2.18.36.4.51.63.13.21.26.43.39.65,1.16-2.61,5.47-3.56,6.92-.81,1.22-.36,2.57-.15,3.61.6,1.15.82,1.96,2.45,1.91,3.93.34-.6.62-1.27.86-1.86.3-.73.58-1.47.92-2.18.24-.5.59-1.17,1.06-1.5.81-.57,1.66-1.04,2.51-1.54.83-.49,1.58-.98,2.29-1.61-1.04-.47-2.09-.9-3.18-1.24-1.92-.61-4.29-1.07-6.22-.31-1.34.52-2.23,1.54-2.83,2.82-.03.07-.09.13-.17.15-.08.02-.16.01-.22-.04-1.41-.95-3.08-1.83-4.84-1.57-.89.13-1.71.53-2.47,1-.9.55-1.76,1.21-2.6,1.85h0Z"/>
        </g>
        <g id="Layer1013">
          <path id="path28" class="cls-2" d="M117.96,67.12c-1.29.61-2.2,1.32-3.16,2.39-.1.11-.2.23-.31.35-.04.04-.08.07-.13.08-.97.28-1.95.56-2.9.89-.99.34-1.94.74-2.89,1.2-.08.04-.16.04-.24,0-.08-.04-.13-.11-.14-.19-.04-.23-.07-.45-.1-.68,0-.05-.02-.17-.05-.21-.05-.07-.57-.23-.66-.26-1.59-.53-3.16-1.12-4.85-.9-.02.64-.04,1.29-.01,1.93.03.59.1,1.18.31,1.73.35.93,1.05,1.56,1.88,2.06,3.16-.53,7.5-.73,9.77,1.98,1.53,1.83,1.67,4.43,1.41,6.7-.03.27-.03.47.02.74.04.23.08.44.09.68,0,.09-.03.16-.09.22-.07.06-.14.08-.23.06-1.18-.23-1.45.88-1.42,1.82.01.31.1.66.43.76.23.08.52.01.72-.12.3-.19.74-.26,1.02,0,.28.27.22.66.06.97.02.27.1.51.28.73.27.32.75.59,1.12.86.71-.34,1.48-.73,1.54-1.59-.16-.31-.23-.71.06-.97.28-.27.72-.2,1.02,0,.08.05.18.09.27.12.57.15.86-.21.87-.76.03-.94-.24-2.05-1.42-1.82-.08.02-.16,0-.23-.06-.07-.06-.1-.13-.09-.22.01-.24.05-.44.09-.68.05-.26.05-.47.02-.74-.25-2.26-.12-4.87,1.41-6.7,2.27-2.71,6.61-2.5,9.77-1.98.83-.5,1.52-1.13,1.88-2.06.21-.55.28-1.15.31-1.73.03-.64,0-1.29-.01-1.93-1.69-.22-3.26.37-4.85.9-.09.03-.6.19-.66.26-.03.04-.04.17-.05.21-.03.23-.06.46-.1.68-.02.09-.07.15-.14.19s-.16.04-.24,0c-.95-.46-1.9-.86-2.89-1.2-.96-.33-1.93-.6-2.9-.89-.05-.02-.09-.04-.13-.08-.1-.12-.2-.23-.31-.35-.96-1.07-1.87-1.78-3.16-2.39h0Z"/>
        </g>
        <g id="Layer1014">
          <path id="path29" class="cls-2" d="M112.71,87.21c-.04-.51.04-1.1.23-1.53.22-.51.67-.94,1.23-1.02-.02-.12-.03-.23-.02-.35.02-.51.08-1.02.1-1.54.02-.78-.03-1.59-.2-2.35-.11-.49-.28-.92-.53-1.35-.63-1.08-1.45-1.63-2.61-2.02-.8-.27-1.62-.37-2.46-.38-1.2-.03-2.4.16-3.58.31-1.33.17-1.4,2.17-1.41,3.19-.01,1.03.03,2.19.56,3.1.38.64,1,1.19,1.56,1.67,2,1.72,4.57,2.28,7.15,2.28h0Z"/>
        </g>
        <g id="Layer1015">
          <path id="path30" class="cls-2" d="M122.92,87.11c2.58,0,5.15-.56,7.15-2.28.56-.48,1.18-1.03,1.56-1.67.53-.91.57-2.07.56-3.1-.01-1.02-.09-3.02-1.41-3.19-1.19-.15-2.39-.34-3.58-.31-.84.02-1.66.12-2.46.38-1.15.39-1.98.94-2.61,2.02-.25.44-.42.86-.53,1.35-.18.76-.23,1.58-.2,2.35.02.51.08,1.02.1,1.54,0,.12,0,.24-.02.35.56.08,1,.51,1.23,1.02.19.43.27,1.02.23,1.53h0Z"/>
        </g>
        <g id="Layer1016">
          <path id="path31" class="cls-2" d="M106.09,87.73c0,1.39-.02,2.77-.03,4.16-.01,2.47,1.5,4.08,3.57,5.18,1.55.83,4.11,1.48,5.88,1.51.87.01,1.32-.3,1.59-1.14.21-.64.18-1.65.16-2.32-.02-.69-.08-1.39-.09-2.08-.38-.46-1.19-1.03-1.19-1.64-.07-.26-.19-.36-.47-.39-.59-.06-.94-.1-1.29-.57-1.41.01-2.82-.11-4.18-.51-1.63-.48-2.77-1.13-3.96-2.2h0Z"/>
        </g>
        <g id="Layer1017">
          <path id="path32" class="cls-2" d="M129.83,87.74c-1.19,1.07-2.33,1.72-3.96,2.2-1.35.4-2.77.52-4.18.51-.35.47-.7.51-1.29.57-.28.03-.4.13-.47.39,0,.61-.81,1.18-1.19,1.64,0,.69-.07,1.39-.09,2.08-.02.67-.05,1.68.16,2.32.27.84.72,1.15,1.59,1.14,1.76-.03,4.32-.68,5.88-1.51,2.07-1.1,3.58-2.71,3.57-5.18,0-1.39-.02-2.77-.03-4.16h0Z"/>
        </g>
      </g>
    </g>
    <g id="text32" class="cls-5">
      <text class="cls-3" transform="translate(49.1 171.87)"><tspan x="0" y="0">AKSAR</tspan><tspan class="cls-6" x="99.16" y="0">A</tspan><tspan x="116.83" y="0">Y</tspan></text>
    </g>
    <g id="text33" class="cls-5">
      <text class="cls-4" transform="translate(66.91 188.9)"><tspan x="0" y="0">BELEDİYESİ</tspan></text>
    </g>
  </g>
</svg>