<?xml version="1.0" encoding="UTF-8"?>
<svg id="Layer_2" data-name="Layer 2" xmlns="http://www.w3.org/2000/svg" viewBox="0 0 504.49 481.34">
  <defs>
    <style>
      .cls-1 {
        fill: #3e7cb7;
      }

      .cls-2 {
        fill: #d52c0d;
      }

      .cls-3 {
        fill: #fdfdfd;
      }
    </style>
  </defs>
  <g id="Layer_1-2" data-name="Layer 1">
    <g>
      <path class="cls-3" d="M249.25,69.77c-.13-5.76,4.62-11.11,10.4-11.48,6.46-.76,12.68,4.99,12.37,11.5.06,11.82-.03,23.64.02,35.47-7.61-.02-15.22.02-22.83-.03.05-11.82-.07-23.64.04-35.46M256.7,117.85c6.81-2.39,14.86,2.1,16.51,9.09,2.02,6.81-2.75,14.58-9.7,15.94-7.48,2-15.78-4.27-15.76-12.04-.48-5.73,3.5-11.33,8.95-12.99h0Z"/>
      <path class="cls-1" d="M259.01,4.98c.33-1.7-.23-5.45,2.45-4.93,2.46.06,1.37,3.33,1.97,4.92,5.28,5.11,13.08,6.49,17.82,12.24,5.5,5.9,7.68,14.24,6.77,22.17.48.04,1.43.12,1.9.17v5.32c-.94.04-2.82.14-3.76.19-.2,34.42-.01,68.84-.1,103.27,1.74,0,3.49,0,5.24.01-.03,12.56-.04,25.13,0,37.7-1.75,0-3.49.01-5.22.02.16,45.07.1,90.15.33,135.23,19.26-11.69,40.42-20.31,62.55-24.7,21.6-4.49,44.03-3.66,65.57.79,19.92,3.85,39.12,11.9,55.3,24.22,13.12,9.69,23.87,22.71,30.21,37.78,5.33,12.89,6.16,27.91.89,40.96-6.17,15.78-15.11,30.74-27.63,42.3-11.65,10.87-26.03,18.26-40.61,24.37-18,6.88-36.93,11.32-56.12,13.14-21.99,2.22-44.4,1.46-66.01-3.38-20.62-4.31-40.98-10.17-60.33-18.56-16.94-7.16-32.97-16.2-49.03-25.09-25.72-14.2-51.78-28.43-80.11-36.74-39.23-11.84-81.31-10.67-121.09-2.3,30.37-17.28,64.9-26.42,99.56-29.57,50.08-4.23,101.98,3.94,146.59,27.73,11.38,5.94,21.53,13.89,32.78,20.05,24.28,13.57,50.49,23.83,77.7,29.67,25.97,4.6,52.81,5.73,78.84.91,15.92-3.18,32.13-7.97,45.22-17.92,8.59-6.01,11.84-17.15,11.56-27.2-.3-10.93-7.38-20.54-16.27-26.36-13.75-9.03-30.27-12.92-46.51-13.88-23.71-1.2-47.31,3.44-69.89,10.32-21.94,6.82-43.21,15.81-63.42,26.75-6.59-7.61-11.9-16.27-18.81-23.59-23.48-21.35-53.7-34.09-84.54-40.35-46.02-9.02-95.18-4.73-137.92,15.09-.01-30.52,0-61.04-.01-91.56,7.33-3.71,14.59-7.55,21.9-11.29.02,4.66,0,9.33.06,14,4.31-2.23,8.66-4.42,12.91-6.77-.05-4.66-.05-9.32-.02-13.97,7.27-3.66,14.44-7.5,21.68-11.21.01,4.64,0,9.27,0,13.91,4.37-2.02,8.62-4.29,12.9-6.48.06-4.66.05-9.32,0-13.98,7.23-3.97,14.63-7.64,21.94-11.46.02,4.67.01,9.34.06,14.02,4.32-2.19,8.64-4.39,12.89-6.72-.1-4.65-.08-9.3-.08-13.95,7.27-3.82,14.6-7.52,21.88-11.33-.02,7.96.28,15.92.2,23.89,4.6-2.43,9.17-4.91,13.82-7.23.31,16.03.12,32.08.77,48.11,8.94-4.91,17.84-9.87,26.87-14.59.02,18.53.02,37.06,0,55.59,4.55-1.33,9.08-2.75,13.63-4.09.12-34.86-.02-69.72.07-104.57-1.74.01-3.48.02-5.21.04-.07-12.58-.01-25.15-.03-37.73,1.75-.03,3.51-.05,5.27-.08-.12-34.35-.03-68.71-.05-103.06-1.32-.23-2.63-.46-3.94-.69.01-1.66.01-3.31.02-4.96.48-.04,1.44-.12,1.92-.16-.73-7.88,1.31-16.17,6.74-22.09,4.73-5.85,12.62-7.2,17.93-12.34M249.25,69.77c-.11,11.82.01,23.64-.04,35.46,7.61.05,15.22.01,22.83.03-.05-11.83.04-23.65-.02-35.47.31-6.51-5.91-12.26-12.37-11.5-5.78.37-10.53,5.72-10.4,11.48M256.7,117.85c-5.45,1.66-9.43,7.26-8.95,12.99-.02,7.77,8.28,14.04,15.76,12.04,6.95-1.36,11.72-9.13,9.7-15.94-1.65-6.99-9.7-11.48-16.51-9.09M347.74,189.83c-.4-5.06,3.53-8.83,7.56-11.14-1.57,2.52-3.86,4.95-3.61,8.15-.4,5.9,6.33,10.73,11.81,8.57,3.05-.82,4.67-3.74,6.5-6.05-.65,2.7-1.12,5.67-3.16,7.73-1.85,2.11-4.62,2.91-7.14,3.87,1.16,1.89,3.21,3.57,3.16,5.96-.8,1.55-2.09,2.77-3.25,4.05,2.39,1.32,5.3,2.44,6.42,5.17,1.5,2.79.21,5.88-.39,8.73,28.79,2.18,57.36,11.98,80.39,29.58,16.34,12.57,29.99,30.26,33.02,51.11-38.02-26.93-87.08-35.28-132.63-28.27-11.38,1.77-22.57,4.67-33.44,8.48,0-18.74.01-37.48,0-56.22,12.49-3.52,25.47-5.31,38.45-5.31-.4-2.76-1.37-5.82.12-8.42,1.28-2.44,3.93-3.55,6.2-4.84-1.22-1.55-3.35-2.92-3.05-5.17.45-1.91,2.05-3.23,3.06-4.83-5.23-1.19-10.24-5.39-10.02-11.15h0Z"/>
      <path class="cls-2" d="M298.86,44.95c3.22-11.9,6.37-23.82,9.6-35.72,5.62,1.63,11.38,2.78,16.91,4.7,4.48,1.48,7.81,6.18,6.84,10.98-.05,3.56-2.82,6.12-5.67,7.8,4.99,5.9.92,16.32-6.89,16.81-7.16.07-13.85-3.17-20.79-4.57M315.14,19.62c-.5,1.86-1.02,3.72-1.5,5.58,2.41.69,4.83,1.34,7.24,2.04,1.26-1.27,2.65-2.64,2.19-4.63-2-2.19-5.25-2.2-7.93-2.99M309.81,39.31c3.26.51,8.26,4,10-.47,1.13-4.67-5.36-4.55-8.34-5.67-.54,2.05-1.1,4.1-1.66,6.14M175.24,25.92c8.45-3.24,16.77-6.82,25.21-10.07,1.02,2.51,2.05,5.01,3.01,7.54-2.79,1.14-5.58,2.27-8.38,3.36,3.43,9,7.66,17.73,10.49,26.94-2.73,1.03-5.44,2.12-8.17,3.12-3.64-8.86-7.17-17.75-10.79-26.62-2.8,1.14-5.6,2.26-8.39,3.42-1.06-2.54-2.04-5.11-2.98-7.69M329.35,50.59c4.78-10.27,9.64-20.5,14.34-30.81,7.7,3.3,15.21,7.05,22.83,10.52-1.05,2.42-2.04,4.88-3.36,7.18-5.05-1.68-9.64-4.46-14.56-6.46-.85,1.79-1.74,3.56-2.6,5.33,4.09,2.09,8.3,3.93,12.43,5.92-1.14,2.47-2.29,4.92-3.46,7.37-4.15-1.91-8.27-3.87-12.43-5.74-.89,1.94-1.77,3.87-2.62,5.83,4.86,2.18,9.67,4.49,14.5,6.77-1.17,2.41-2.29,4.85-3.43,7.27-7.27-3.28-14.52-6.59-21.69-10.08-1.42-.53-.2-2.18.05-3.1M353.34,65.36c6.54-10.47,13.37-20.75,20.11-31.08,2.48,1.69,5.01,3.31,7.59,4.86-5.01,8.24-10.63,16.09-15.56,24.38,4.29,2.79,8.57,5.58,12.88,8.35-1.48,2.3-2.96,4.59-4.49,6.84-6.83-4.47-13.68-8.9-20.53-13.35M156.97,36.49c5.91-3.13,13.86.06,16.07,6.35,1.69,3.12.27,6.61-.49,9.77,4.84,2.73,9.55,5.66,14.38,8.4-2.99,1.84-5.75,4.49-9.18,5.38-3.88-1.9-7.21-4.73-10.99-6.81-1.27-.93-2.86-.08-4.23-.03,2.28,4.19,4.91,8.18,7.4,12.26-2.56,1.59-5.12,3.2-7.66,4.82-6.52-10.42-13.27-20.72-19.45-31.33,4.58-3.14,9.28-6.14,14.15-8.81M154.66,47.44c1.33,2.06,2.67,4.12,3.99,6.18,2.17-1.41,4.79-2.48,6.19-4.79.16-1.57-.66-3-1.05-4.48-3.51-.91-6.41,1.2-9.13,3.09M375.28,80.02c8.38-9.02,16.78-18.02,25.19-27.01,6.01,5.89,12.47,11.32,18.34,17.35-1.85,1.89-3.67,3.81-5.47,5.75-4.04-3.52-7.84-7.3-11.78-10.92-1.35,1.52-2.72,3.04-4.07,4.56,3.25,3.13,6.57,6.18,9.94,9.17-1.85,2.04-3.74,4.04-5.68,6-3.29-3.16-6.6-6.3-10.08-9.24-1.38,1.58-2.76,3.17-4.11,4.79,3.94,3.53,7.81,7.16,11.6,10.86-1.78,1.93-3.52,3.92-5.59,5.54-6.48-5.17-12.14-11.3-18.29-16.85M124.51,60.84c2.14-2.07,4.27-4.15,6.4-6.23,5.35,4.92,10.08,10.46,15.24,15.56,2.61,2.58,5.28,5.68,5.18,9.59.97,8.9-8.1,17.08-16.84,15.47-3.79-.64-6.64-3.49-9.17-6.18-4.72-5.12-9.68-10.01-14.47-15.05,2.22-2.08,4.43-4.17,6.65-6.25,5.67,5.69,11.12,11.61,16.8,17.29,2,2.35,6.12,2.03,7.65-.69,1.92-2.13.48-4.97-1.27-6.65-5.4-5.61-10.77-11.25-16.17-16.86M395.77,99.48c9.81-7.51,19.71-14.92,29.61-22.31,3.45,5.06,7.89,9.49,10.56,15.04,2.6,5.66-.54,12.14-5.37,15.44-5.56,4.04-11.43,10.37-19.02,8.21-7.58-2.59-10.68-10.85-15.78-16.38M407.76,101.84c1.89,2.08,3.54,5.55,6.8,5.4,3.6-1.12,6.42-3.83,9.4-6.04,1.87-1.7,4.66-3.6,3.91-6.52-.9-1.91-2.21-3.58-3.4-5.3-5.66,4.03-11.15,8.3-16.71,12.46M97.77,91.04c3.52-3.98,10.09-3.92,13.92-.42,2.2,1.65,2.73,4.47,3.49,6.94,1.14-.38,2.28-.76,3.42-1.15,3.68.88,7.44,2.68,9.15,6.27,1.99,3.53.94,7.88-1.21,11.08-3.09,4.61-6.37,9.1-9.57,13.64-10.05-7.15-20.23-14.1-30.26-21.27,3.82-4.93,6.85-10.48,11.06-15.09M98.67,103.29c1.63,1.2,3.28,2.36,4.95,3.5,1.61-2.51,6.15-6.85,2.09-9.26-3.65-1.32-4.96,3.73-7.04,5.76M115.02,105.36c-2,1.72-3.23,4.12-4.71,6.27,1.78,1.16,3.54,2.34,5.31,3.52,1.7-2.43,3.36-4.9,4.73-7.52-1.43-1.2-3.25-3.49-5.33-2.27M448.17,102.19c2.11-1.17,4.15-2.5,6.4-3.4,1.86,2.3,3.26,4.92,4.81,7.43-2.2,1.36-4.43,2.67-6.67,3.96-1.55-2.64-3.11-5.28-4.54-7.99M413.51,123.14c10.5-6.34,21.07-12.56,31.51-19,1.59,2.53,3.34,5,4.55,7.75-10.17,6.78-20.96,12.63-31.33,19.11-1.7-2.55-3.27-5.17-4.73-7.86M77.26,124.6c1.24-3.13,2.57-6.2,4.05-9.22,4.09,5.14,8.28,10.2,12.35,15.35,3.8,5.76,11.16,6.73,16.84,9.88-1.25,2.73-2.48,5.48-3.74,8.21-6.03-1.94-11.46-6.66-18.12-5.74-6.71.27-13.43.55-20.13,1.05,1.24-3.02,2.56-6.02,3.87-9.01,4.85-.05,9.71-.03,14.56.05-3.24-3.51-6.33-7.17-9.68-10.57M437.01,134.36c5.49-5.99,10.19-12.67,15.52-18.8,1.38,3.02,2.75,6.05,4.03,9.12-3.32,3.47-6.49,7.06-9.73,10.59,4.87,0,9.73-.11,14.6-.01,1.24,3.01,2.56,5.98,3.88,8.95-8.22-.17-16.43-1.26-24.65-.98-4.73,1.43-9.01,4.1-13.71,5.66-1.25-2.71-2.47-5.44-3.71-8.15,4.55-2.2,9.42-3.81,13.77-6.38M431.14,159.59c11.88-3.27,23.8-6.41,35.7-9.6,2.26,8.06,4.38,16.16,6.53,24.24-2.63.75-5.26,1.46-7.9,2.15-1.24-5.14-2.77-10.2-3.95-15.35-2.01.41-3.98.93-5.96,1.4,1.03,4.49,2.34,8.9,3.45,13.36-2.63.61-5.23,1.31-7.83,1.98-1.21-4.32-2.39-8.64-3.49-12.98-2.07.42-4.12.9-6.15,1.43,1.08,5.26,2.8,10.35,3.9,15.6-2.63.63-5.24,1.35-7.9,1.89-1.95-8.09-4.23-16.09-6.4-24.12M63.02,163.06c13.05-1.5,26.12-2.99,39.21-4.06-.8,3.04-1.58,6.08-2.33,9.14-1.89.08-3.78.16-5.67.25-1.02,3.67-1.98,7.36-2.62,11.12,1.58,1.02,3.17,2.02,4.76,3.04-.81,3.07-1.6,6.15-2.42,9.22-10.77-7.34-21.61-14.58-32.41-21.89.44-2.28.95-4.55,1.48-6.82M76.2,169.57c2.74,1.9,5.54,3.71,8.45,5.34.52-1.95,1.03-3.9,1.56-5.85-3.34.13-6.68.27-10.01.51M456.6,185.83c5.04-4.81,14.83-3.67,17.92,2.9,2.86,5.92,2.77,13.75-1.19,19.18-2.36-1.22-4.28-3.1-6.31-4.78,1.16-2.58,1.71-5.43,1.21-8.24-.04-2.06-2.33-2.74-3.66-3.87-4.1,3-1.67,8.55-3.32,12.67-2.12,8.16-14.82,9.3-19.27,2.58-4.72-6.8-4.36-16.7.29-23.46,2.06,1.71,4.12,3.43,6.21,5.12-1.52,3.9-2.66,8.64-.45,12.49.93,1.74,3.23.78,4.81.95,1.47-5.11-.1-11.31,3.76-15.54M56.96,201.86c.88-4.87,5.74-8.46,10.68-7.81,2.9-.25,5.07,1.88,7.07,3.64,4.89-5.85,15.76-4.53,18.06,3.09,1.28,7.02.04,14.25.13,21.36-12.28-1.06-24.65-.42-36.91-1.59.44-6.22-.16-12.53.97-18.69M79.16,204.55c-.55,2.56-.35,5.21-.45,7.81,2.12.05,4.23.1,6.35.16.01-2.66.33-5.36-.1-8-1.24-1.85-4.64-1.95-5.8.03M64.27,211.96c2.01.07,4.02.12,6.03.19.44-2.95.47-5.94-.34-8.84-1.57.01-3.15.04-4.72.09-.44,2.84-.72,5.7-.97,8.56M440.09,213.43c12.33-.02,24.64.56,36.96.7-.06,3.03-.1,6.06-.13,9.1-12.33.11-24.63-.67-36.94-.74.05-3.02.08-6.04.11-9.06M480.38,214.22c2.59-.02,5.18,0,7.77.02-.04,3.04-.08,6.09-.12,9.14-2.58-.03-5.15-.07-7.72-.13.02-3.01.05-6.02.07-9.03M349.08,380.42c3.29.01,6.59.02,9.88.03.04,14.53.05,29.06,0,43.59-3.33.01-6.66,0-9.99.01-.11-10.9,0-21.79-.06-32.68-3.08,2.56-6.1,5.18-9.06,7.87-.05-3.16-.19-6.32-.04-9.48-.21-1.32.92-2.11,1.73-2.9,2.46-2.2,5.07-4.25,7.54-6.44M371.85,387.94c4.37-10.21,21.24-10.51,26.17-.64,2.51,4.83,1.08,10.81-2.95,14.35,3.46,3.23,5.9,8.15,4.25,12.92-2.83,13.09-25.35,13.21-28.42.23-1.76-4.89.88-9.72,3.94-13.4-3.68-3.39-5.17-8.84-2.99-13.46M382.8,389.92c-2.18,1.29-2.54,4.64-.63,6.31,2.13,2.61,7.03.85,7-2.53.55-3.32-3.75-5.83-6.37-3.78M380.67,410.89c-.37,3.67,4.82,5.91,7.34,3.3,1.82-1.18,1.47-3.62,1.19-5.44-.98-2.44-3.68-2.49-5.88-2.73-1.18,1.43-3.01,2.75-2.65,4.87M404.11,380.45c9.94-.03,19.88-.01,29.83-.01-.09,4.14.64,8.53-1.25,12.41-4.36,10.3-7.89,20.97-12.6,31.09-3.53.29-7.07.06-10.6.06,4.12-11.6,9.05-22.9,13.3-34.45-3-.01-5.99-.02-8.98-.01-.01,2.27-.02,4.54-.02,6.82-3.23.04-6.46.05-9.68.06v-15.97M441.3,388.76c3.1-2.82,6.28-5.56,9.46-8.29,3.35-.05,6.7-.04,10.06-.03-.01,14.53,0,29.07,0,43.6-3.35.01-6.69,0-10.03,0-.08-10.86.06-21.72-.08-32.58-3.15,2.5-6.11,5.23-9.34,7.62-.07-3.44-.07-6.88-.07-10.32h0Z"/>
    </g>
  </g>
</svg>