<?xml version="1.0" encoding="iso-8859-1"?>
<!-- Generator: Adobe Illustrator 29.7.1, SVG Export Plug-In . SVG Version: 9.03 Build 0)  -->
<svg version="1.1" id="Layer_1" xmlns="http://www.w3.org/2000/svg" xmlns:xlink="http://www.w3.org/1999/xlink" x="0px" y="0px"
	 viewBox="0 0 1920 1080" style="enable-background:new 0 0 1920 1080;" xml:space="preserve">
<g>
	<path style="fill:#FDFDFD;" d="M956.25,369.769c-0.13-5.76,4.62-11.11,10.4-11.48c6.46-0.76,12.68,4.99,12.37,11.5
		c0.06,11.82-0.03,23.64,0.02,35.47c-7.61-0.02-15.22,0.02-22.83-0.03C956.26,393.409,956.14,381.589,956.25,369.769 M963.7,417.849
		c6.81-2.39,14.86,2.1,16.51,9.09c2.02,6.81-2.75,14.58-9.7,15.94c-7.48,2-15.78-4.27-15.76-12.04
		C954.27,425.109,958.25,419.509,963.7,417.849L963.7,417.849z"/>
	<path style="fill:#3E7CB7;" d="M966.01,304.979c0.33-1.7-0.23-5.45,2.45-4.93c2.46,0.06,1.37,3.33,1.97,4.92
		c5.28,5.11,13.08,6.49,17.82,12.24c5.5,5.9,7.68,14.24,6.77,22.17c0.48,0.04,1.43,0.12,1.9,0.17c0,1.77,0,3.54,0,5.32
		c-0.94,0.04-2.82,0.14-3.76,0.19c-0.2,34.42-0.01,68.84-0.1,103.27c1.74,0,3.49,0,5.24,0.01c-0.03,12.56-0.04,25.13,0,37.7
		c-1.75,0-3.49,0.01-5.22,0.02c0.16,45.07,0.1,90.15,0.33,135.23c19.26-11.69,40.42-20.31,62.55-24.7
		c21.6-4.49,44.03-3.66,65.57,0.79c19.92,3.85,39.12,11.9,55.3,24.22c13.12,9.69,23.87,22.71,30.21,37.78
		c5.33,12.89,6.16,27.91,0.89,40.96c-6.17,15.78-15.11,30.74-27.63,42.3c-11.65,10.87-26.03,18.26-40.61,24.37
		c-18,6.88-36.93,11.32-56.12,13.14c-21.99,2.22-44.4,1.46-66.01-3.38c-20.62-4.31-40.98-10.17-60.33-18.56
		c-16.94-7.16-32.97-16.2-49.03-25.09c-25.72-14.2-51.78-28.43-80.11-36.74c-39.23-11.84-81.31-10.67-121.09-2.3
		c30.37-17.28,64.9-26.42,99.56-29.57c50.08-4.23,101.98,3.94,146.59,27.73c11.38,5.94,21.53,13.89,32.78,20.05
		c24.28,13.57,50.49,23.83,77.7,29.67c25.97,4.6,52.81,5.73,78.84,0.91c15.92-3.18,32.13-7.97,45.22-17.92
		c8.59-6.01,11.84-17.15,11.56-27.2c-0.3-10.93-7.38-20.54-16.27-26.36c-13.75-9.03-30.27-12.92-46.51-13.88
		c-23.71-1.2-47.31,3.44-69.89,10.32c-21.94,6.82-43.21,15.81-63.42,26.75c-6.59-7.61-11.9-16.27-18.81-23.59
		c-23.48-21.35-53.7-34.09-84.54-40.35c-46.02-9.02-95.18-4.73-137.92,15.09c-0.01-30.52,0-61.04-0.01-91.56
		c7.33-3.71,14.59-7.55,21.9-11.29c0.02,4.66,0,9.33,0.06,14c4.31-2.23,8.66-4.42,12.91-6.77c-0.05-4.66-0.05-9.32-0.02-13.97
		c7.27-3.66,14.44-7.5,21.68-11.21c0.01,4.64,0,9.27,0,13.91c4.37-2.02,8.62-4.29,12.9-6.48c0.06-4.66,0.05-9.32,0-13.98
		c7.23-3.97,14.63-7.64,21.94-11.46c0.02,4.67,0.01,9.34,0.06,14.02c4.32-2.19,8.64-4.39,12.89-6.72c-0.1-4.65-0.08-9.3-0.08-13.95
		c7.27-3.82,14.6-7.52,21.88-11.33c-0.02,7.96,0.28,15.92,0.2,23.89c4.6-2.43,9.17-4.91,13.82-7.23
		c0.31,16.03,0.12,32.08,0.77,48.11c8.94-4.91,17.84-9.87,26.87-14.59c0.02,18.53,0.02,37.06,0,55.59
		c4.55-1.33,9.08-2.75,13.63-4.09c0.12-34.86-0.02-69.72,0.07-104.57c-1.74,0.01-3.48,0.02-5.21,0.04
		c-0.07-12.58-0.01-25.15-0.03-37.73c1.75-0.03,3.51-0.05,5.27-0.08c-0.12-34.35-0.03-68.71-0.05-103.06
		c-1.32-0.23-2.63-0.46-3.94-0.69c0.01-1.66,0.01-3.31,0.02-4.96c0.48-0.04,1.44-0.12,1.92-0.16c-0.73-7.88,1.31-16.17,6.74-22.09
		C952.81,311.469,960.7,310.119,966.01,304.979 M956.25,369.769c-0.11,11.82,0.01,23.64-0.04,35.46c7.61,0.05,15.22,0.01,22.83,0.03
		c-0.05-11.83,0.04-23.65-0.02-35.47c0.31-6.51-5.91-12.26-12.37-11.5C960.87,358.659,956.12,364.009,956.25,369.769 M963.7,417.849
		c-5.45,1.66-9.43,7.26-8.95,12.99c-0.02,7.77,8.28,14.04,15.76,12.04c6.95-1.36,11.72-9.13,9.7-15.94
		C978.56,419.949,970.51,415.459,963.7,417.849 M1054.74,489.829c-0.4-5.06,3.53-8.83,7.56-11.14c-1.57,2.52-3.86,4.95-3.61,8.15
		c-0.4,5.9,6.33,10.73,11.81,8.57c3.05-0.82,4.67-3.74,6.5-6.05c-0.65,2.7-1.12,5.67-3.16,7.73c-1.85,2.11-4.62,2.91-7.14,3.87
		c1.16,1.89,3.21,3.57,3.16,5.96c-0.8,1.55-2.09,2.77-3.25,4.05c2.39,1.32,5.3,2.44,6.42,5.17c1.5,2.79,0.21,5.88-0.39,8.73
		c28.79,2.18,57.36,11.98,80.39,29.58c16.34,12.57,29.99,30.26,33.02,51.11c-38.02-26.93-87.08-35.28-132.63-28.27
		c-11.38,1.77-22.57,4.67-33.44,8.48c0-18.74,0.01-37.48,0-56.22c12.49-3.52,25.47-5.31,38.45-5.31c-0.4-2.76-1.37-5.82,0.12-8.42
		c1.28-2.44,3.93-3.55,6.2-4.84c-1.22-1.55-3.35-2.92-3.05-5.17c0.45-1.91,2.05-3.23,3.06-4.83
		C1059.53,499.789,1054.52,495.589,1054.74,489.829L1054.74,489.829z"/>
	<path style="fill:#D52C0D;" d="M1005.86,344.949c3.22-11.9,6.37-23.82,9.6-35.72c5.62,1.63,11.38,2.78,16.91,4.7
		c4.48,1.48,7.81,6.18,6.84,10.98c-0.05,3.56-2.82,6.12-5.67,7.8c4.99,5.9,0.92,16.32-6.89,16.81
		C1019.49,349.589,1012.8,346.349,1005.86,344.949 M1022.14,319.619c-0.5,1.86-1.02,3.72-1.5,5.58c2.41,0.69,4.83,1.34,7.24,2.04
		c1.26-1.27,2.65-2.64,2.19-4.63C1028.07,320.419,1024.82,320.409,1022.14,319.619 M1016.81,339.309c3.26,0.51,8.26,4,10-0.47
		c1.13-4.67-5.36-4.55-8.34-5.67C1017.93,335.219,1017.37,337.269,1016.81,339.309 M882.24,325.919
		c8.45-3.24,16.77-6.82,25.21-10.07c1.02,2.51,2.05,5.01,3.01,7.54c-2.79,1.14-5.58,2.27-8.38,3.36c3.43,9,7.66,17.73,10.49,26.94
		c-2.73,1.03-5.44,2.12-8.17,3.12c-3.64-8.86-7.17-17.75-10.79-26.62c-2.8,1.14-5.6,2.26-8.39,3.42
		C884.16,331.069,883.18,328.499,882.24,325.919 M1036.35,350.589c4.78-10.27,9.64-20.5,14.34-30.81c7.7,3.3,15.21,7.05,22.83,10.52
		c-1.05,2.42-2.04,4.88-3.36,7.18c-5.05-1.68-9.64-4.46-14.56-6.46c-0.85,1.79-1.74,3.56-2.6,5.33c4.09,2.09,8.3,3.93,12.43,5.92
		c-1.14,2.47-2.29,4.92-3.46,7.37c-4.15-1.91-8.27-3.87-12.43-5.74c-0.89,1.94-1.77,3.87-2.62,5.83c4.86,2.18,9.67,4.49,14.5,6.77
		c-1.17,2.41-2.29,4.85-3.43,7.27c-7.27-3.28-14.52-6.59-21.69-10.08C1034.88,353.159,1036.1,351.509,1036.35,350.589
		 M1060.34,365.359c6.54-10.47,13.37-20.75,20.11-31.08c2.48,1.69,5.01,3.31,7.59,4.86c-5.01,8.24-10.63,16.09-15.56,24.38
		c4.29,2.79,8.57,5.58,12.88,8.35c-1.48,2.3-2.96,4.59-4.49,6.84C1074.04,374.239,1067.19,369.809,1060.34,365.359 M863.97,336.489
		c5.91-3.13,13.86,0.06,16.07,6.35c1.69,3.12,0.27,6.61-0.49,9.77c4.84,2.73,9.55,5.66,14.38,8.4c-2.99,1.84-5.75,4.49-9.18,5.38
		c-3.88-1.9-7.21-4.73-10.99-6.81c-1.27-0.93-2.86-0.08-4.23-0.03c2.28,4.19,4.91,8.18,7.4,12.26c-2.56,1.59-5.12,3.2-7.66,4.82
		c-6.52-10.42-13.27-20.72-19.45-31.33C854.4,342.159,859.1,339.159,863.97,336.489 M861.66,347.439c1.33,2.06,2.67,4.12,3.99,6.18
		c2.17-1.41,4.79-2.48,6.19-4.79c0.16-1.57-0.66-3-1.05-4.48C867.28,343.439,864.38,345.549,861.66,347.439 M1082.28,380.019
		c8.38-9.02,16.78-18.02,25.19-27.01c6.01,5.89,12.47,11.32,18.34,17.35c-1.85,1.89-3.67,3.81-5.47,5.75
		c-4.04-3.52-7.84-7.3-11.78-10.92c-1.35,1.52-2.72,3.04-4.07,4.56c3.25,3.13,6.57,6.18,9.94,9.17c-1.85,2.04-3.74,4.04-5.68,6
		c-3.29-3.16-6.6-6.3-10.08-9.24c-1.38,1.58-2.76,3.17-4.11,4.79c3.94,3.53,7.81,7.16,11.6,10.86c-1.78,1.93-3.52,3.92-5.59,5.54
		C1094.09,391.699,1088.43,385.569,1082.28,380.019 M831.51,360.839c2.14-2.07,4.27-4.15,6.4-6.23
		c5.35,4.92,10.08,10.46,15.24,15.56c2.61,2.58,5.28,5.68,5.18,9.59c0.97,8.9-8.1,17.08-16.84,15.47c-3.79-0.64-6.64-3.49-9.17-6.18
		c-4.72-5.12-9.68-10.01-14.47-15.05c2.22-2.08,4.43-4.17,6.65-6.25c5.67,5.69,11.12,11.61,16.8,17.29c2,2.35,6.12,2.03,7.65-0.69
		c1.92-2.13,0.48-4.97-1.27-6.65C842.28,372.089,836.91,366.449,831.51,360.839 M1102.77,399.479c9.81-7.51,19.71-14.92,29.61-22.31
		c3.45,5.06,7.89,9.49,10.56,15.04c2.6,5.66-0.54,12.14-5.37,15.44c-5.56,4.04-11.43,10.37-19.02,8.21
		C1110.97,413.269,1107.87,405.009,1102.77,399.479 M1114.76,401.839c1.89,2.08,3.54,5.55,6.8,5.4c3.6-1.12,6.42-3.83,9.4-6.04
		c1.87-1.7,4.66-3.6,3.91-6.52c-0.9-1.91-2.21-3.58-3.4-5.3C1125.81,393.409,1120.32,397.679,1114.76,401.839 M804.77,391.039
		c3.52-3.98,10.09-3.92,13.92-0.42c2.2,1.65,2.73,4.47,3.49,6.94c1.14-0.38,2.28-0.76,3.42-1.15c3.68,0.88,7.44,2.68,9.15,6.27
		c1.99,3.53,0.94,7.88-1.21,11.08c-3.09,4.61-6.37,9.1-9.57,13.64c-10.05-7.15-20.23-14.1-30.26-21.27
		C797.53,401.199,800.56,395.649,804.77,391.039 M805.67,403.289c1.63,1.2,3.28,2.36,4.95,3.5c1.61-2.51,6.15-6.85,2.09-9.26
		C809.06,396.209,807.75,401.259,805.67,403.289 M822.02,405.359c-2,1.72-3.23,4.12-4.71,6.27c1.78,1.16,3.54,2.34,5.31,3.52
		c1.7-2.43,3.36-4.9,4.73-7.52C825.92,406.429,824.1,404.139,822.02,405.359 M1155.17,402.189c2.11-1.17,4.15-2.5,6.4-3.4
		c1.86,2.3,3.26,4.92,4.81,7.43c-2.2,1.36-4.43,2.67-6.67,3.96C1158.16,407.539,1156.6,404.899,1155.17,402.189 M1120.51,423.139
		c10.5-6.34,21.07-12.56,31.51-19c1.59,2.53,3.34,5,4.55,7.75c-10.17,6.78-20.96,12.63-31.33,19.11
		C1123.54,428.449,1121.97,425.829,1120.51,423.139 M784.26,424.599c1.24-3.13,2.57-6.2,4.05-9.22c4.09,5.14,8.28,10.2,12.35,15.35
		c3.8,5.76,11.16,6.73,16.84,9.88c-1.25,2.73-2.48,5.48-3.74,8.21c-6.03-1.94-11.46-6.66-18.12-5.74
		c-6.71,0.27-13.43,0.55-20.13,1.05c1.24-3.02,2.56-6.02,3.87-9.01c4.85-0.05,9.71-0.03,14.56,0.05
		C790.7,431.659,787.61,427.999,784.26,424.599 M1144.01,434.359c5.49-5.99,10.19-12.67,15.52-18.8c1.38,3.02,2.75,6.05,4.03,9.12
		c-3.32,3.47-6.49,7.06-9.73,10.59c4.87,0,9.73-0.11,14.6-0.01c1.24,3.01,2.56,5.98,3.88,8.95c-8.22-0.17-16.43-1.26-24.65-0.98
		c-4.73,1.43-9.01,4.1-13.71,5.66c-1.25-2.71-2.47-5.44-3.71-8.15C1134.79,438.539,1139.66,436.929,1144.01,434.359
		 M1138.14,459.589c11.88-3.27,23.8-6.41,35.7-9.6c2.26,8.06,4.38,16.16,6.53,24.24c-2.63,0.75-5.26,1.46-7.9,2.15
		c-1.24-5.14-2.77-10.2-3.95-15.35c-2.01,0.41-3.98,0.93-5.96,1.4c1.03,4.49,2.34,8.9,3.45,13.36c-2.63,0.61-5.23,1.31-7.83,1.98
		c-1.21-4.32-2.39-8.64-3.49-12.98c-2.07,0.42-4.12,0.9-6.15,1.43c1.08,5.26,2.8,10.35,3.9,15.6c-2.63,0.63-5.24,1.35-7.9,1.89
		C1142.59,475.619,1140.31,467.619,1138.14,459.589 M770.02,463.059c13.05-1.5,26.12-2.99,39.21-4.06c-0.8,3.04-1.58,6.08-2.33,9.14
		c-1.89,0.08-3.78,0.16-5.67,0.25c-1.02,3.67-1.98,7.36-2.62,11.12c1.58,1.02,3.17,2.02,4.76,3.04c-0.81,3.07-1.6,6.15-2.42,9.22
		c-10.77-7.34-21.61-14.58-32.41-21.89C768.98,467.599,769.49,465.329,770.02,463.059 M783.2,469.569c2.74,1.9,5.54,3.71,8.45,5.34
		c0.52-1.95,1.03-3.9,1.56-5.85C789.87,469.189,786.53,469.329,783.2,469.569 M1163.6,485.829c5.04-4.81,14.83-3.67,17.92,2.9
		c2.86,5.92,2.77,13.75-1.19,19.18c-2.36-1.22-4.28-3.1-6.31-4.78c1.16-2.58,1.71-5.43,1.21-8.24c-0.04-2.06-2.33-2.74-3.66-3.87
		c-4.1,3-1.67,8.55-3.32,12.67c-2.12,8.16-14.82,9.3-19.27,2.58c-4.72-6.8-4.36-16.7,0.29-23.46c2.06,1.71,4.12,3.43,6.21,5.12
		c-1.52,3.9-2.66,8.64-0.45,12.49c0.93,1.74,3.23,0.78,4.81,0.95C1161.31,496.259,1159.74,490.059,1163.6,485.829 M763.96,501.859
		c0.88-4.87,5.74-8.46,10.68-7.81c2.9-0.25,5.07,1.88,7.07,3.64c4.89-5.85,15.76-4.53,18.06,3.09c1.28,7.02,0.04,14.25,0.13,21.36
		c-12.28-1.06-24.65-0.42-36.91-1.59C763.43,514.329,762.83,508.019,763.96,501.859 M786.16,504.549c-0.55,2.56-0.35,5.21-0.45,7.81
		c2.12,0.05,4.23,0.1,6.35,0.16c0.01-2.66,0.33-5.36-0.1-8C790.72,502.669,787.32,502.569,786.16,504.549 M771.27,511.959
		c2.01,0.07,4.02,0.12,6.03,0.19c0.44-2.95,0.47-5.94-0.34-8.84c-1.57,0.01-3.15,0.04-4.72,0.09
		C771.8,506.239,771.52,509.099,771.27,511.959 M1147.09,513.429c12.33-0.02,24.64,0.56,36.96,0.7c-0.06,3.03-0.1,6.06-0.13,9.1
		c-12.33,0.11-24.63-0.67-36.94-0.74C1147.03,519.469,1147.06,516.449,1147.09,513.429 M1187.38,514.219c2.59-0.02,5.18,0,7.77,0.02
		c-0.04,3.04-0.08,6.09-0.12,9.14c-2.58-0.03-5.15-0.07-7.72-0.13C1187.33,520.239,1187.36,517.229,1187.38,514.219
		 M1056.08,680.419c3.29,0.01,6.59,0.02,9.88,0.03c0.04,14.53,0.05,29.06,0,43.59c-3.33,0.01-6.66,0-9.99,0.01
		c-0.11-10.9,0-21.79-0.06-32.68c-3.08,2.56-6.1,5.18-9.06,7.87c-0.05-3.16-0.19-6.32-0.04-9.48c-0.21-1.32,0.92-2.11,1.73-2.9
		C1051,684.659,1053.61,682.609,1056.08,680.419 M1078.85,687.939c4.37-10.21,21.24-10.51,26.17-0.64
		c2.51,4.83,1.08,10.81-2.95,14.35c3.46,3.23,5.9,8.15,4.25,12.92c-2.83,13.09-25.35,13.21-28.42,0.23
		c-1.76-4.89,0.88-9.72,3.94-13.4C1078.16,698.009,1076.67,692.559,1078.85,687.939 M1089.8,689.919c-2.18,1.29-2.54,4.64-0.63,6.31
		c2.13,2.61,7.03,0.85,7-2.53C1096.72,690.379,1092.42,687.869,1089.8,689.919 M1087.67,710.889c-0.37,3.67,4.82,5.91,7.34,3.3
		c1.82-1.18,1.47-3.62,1.19-5.44c-0.98-2.44-3.68-2.49-5.88-2.73C1089.14,707.449,1087.31,708.769,1087.67,710.889 M1111.11,680.449
		c9.94-0.03,19.88-0.01,29.83-0.01c-0.09,4.14,0.64,8.53-1.25,12.41c-4.36,10.3-7.89,20.97-12.6,31.09
		c-3.53,0.29-7.07,0.06-10.6,0.06c4.12-11.6,9.05-22.9,13.3-34.45c-3-0.01-5.99-0.02-8.98-0.01c-0.01,2.27-0.02,4.54-0.02,6.82
		c-3.23,0.04-6.46,0.05-9.68,0.06C1111.11,691.089,1111.11,685.769,1111.11,680.449 M1148.3,688.759c3.1-2.82,6.28-5.56,9.46-8.29
		c3.35-0.05,6.7-0.04,10.06-0.03c-0.01,14.53,0,29.07,0,43.6c-3.35,0.01-6.69,0-10.03,0c-0.08-10.86,0.06-21.72-0.08-32.58
		c-3.15,2.5-6.11,5.23-9.34,7.62C1148.3,695.639,1148.3,692.199,1148.3,688.759L1148.3,688.759z"/>
</g>
</svg>
