<?xml version="1.0" encoding="iso-8859-1"?>
<!-- Generator: Adobe Illustrator 29.7.1, SVG Export Plug-In . SVG Version: 9.03 Build 0)  -->
<svg version="1.1" id="Layer_1" xmlns:xodm="http://www.corel.com/coreldraw/odm/2003"
	 xmlns="http://www.w3.org/2000/svg" xmlns:xlink="http://www.w3.org/1999/xlink" x="0px" y="0px" viewBox="0 0 637 656"
	 style="enable-background:new 0 0 637 656;" xml:space="preserve">
<g id="Layer_x0020_1">
	<path style="fill-rule:evenodd;clip-rule:evenodd;fill:#F1A502;" d="M321.012,0.139c149.501,0,275.622,101.372,315.988,240.188
		v315.806c-12.055,34.978-41.827,72.513-111.235,88.769c-133.245,31.325-219.091-8.859-330.966-67.947
		C110.231,532.205,32.695,539.146,0,545.265V259.871C33.791,111.1,164.661,0.139,321.012,0.139L321.012,0.139z"/>
	<path style="fill-rule:evenodd;clip-rule:evenodd;fill:#2B2A29;" d="M458.731,530.105c-2.009-7.489,8.767-8.95,10.137-3.196
		C470.604,534.488,460.193,535.584,458.731,530.105z M459.188,510.104c-2.466-6.301,7.306-8.585,9.041-3.47
		C470.512,513.392,461.197,515.31,459.188,510.104z M452.065,517.684c-0.731,2.283-8.311,6.484-4.201,17.352
		c4.475,11.69,26.028,12.055,31.508,0.731c1.279-2.648,2.009-7.306,0.913-10.685c-1.553-4.932-4.11-5.023-4.749-7.397
		c0.913-1.279,8.219-7.123,3.105-16.439c-5.571-10.229-23.38-11.142-29.864,0.091c-2.192,3.744-2.192,8.95,0.548,13.151
		C450.421,516.223,451.151,516.406,452.065,517.684z"/>
	<path style="fill-rule:evenodd;clip-rule:evenodd;fill:#2B2A29;" d="M106.121,300.602c-0.091-2.648-0.548-8.219,1.096-9.681
		c2.1-2.009,6.484-1.005,6.484,3.105v1.187l-0.183,5.754C113.518,300.967,106.121,300.602,106.121,300.602z M89.5,300.237
		c-0.183-3.836-0.822-9.955,3.47-10.137c4.475-0.274,4.292,6.21,3.47,10.229L89.5,300.237z M79.819,310.465l42.832,1.187
		c0.365-4.658,0.365-9.407,0.548-13.973c0.091-4.566,0.365-9.498-2.009-12.968c-1.827-2.648-5.48-4.84-9.498-5.023
		c-2.557-0.091-4.201,0.183-6.21,1.187c-2.557,1.279-2.374,2.283-4.018,3.47c-2.374-2.283-4.201-4.932-9.315-4.749
		c-10.411,0.365-11.872,8.676-12.055,16.439C79.91,300.602,79.545,305.99,79.819,310.465L79.819,310.465z"/>
	<path style="fill-rule:evenodd;clip-rule:evenodd;fill:#2B2A29;" d="M377.634,95.118c2.009,0.091,4.658,0.913,6.667,1.553
		c2.283,0.731,3.836,1.461,3.288,4.292c-1.005,5.388-7.215,2.374-11.507,1.187L377.634,95.118z M382.291,79.319
		c3.379,0.365,9.772,1.553,9.041,5.754c-0.731,4.201-5.936,2.192-8.311,1.553l-2.648-1.096L382.291,79.319z M395.168,94.388
		c3.653-2.466,5.845-2.922,6.758-8.493c0.913-5.571-1.187-8.402-4.11-10.959c-2.831-2.374-7.58-3.105-11.233-4.11
		c-3.105-0.913-9.133-2.831-12.329-3.014c-1.644,6.667-3.47,13.242-5.48,20.274c-1.187,4.018-5.297,17.352-5.297,20.274
		c2.466,1.187,9.315,2.648,12.329,3.47c6.758,1.735,17.261,5.114,21.279-5.936C399.643,99.228,396.355,97.036,395.168,94.388z"/>
	<path style="fill-rule:evenodd;clip-rule:evenodd;fill:#2B2A29;" d="M143.382,185.166c0,0,3.927-10.594,9.041-6.849
		c3.927,2.74-1.37,8.676-3.47,10.685L143.382,185.166L143.382,185.166z M129.592,175.577c0.731-1.553,2.557-3.927,3.379-5.023
		c3.379-4.84,11.416-0.548,2.283,8.585C133.793,178.956,130.414,176.581,129.592,175.577L129.592,175.577z M115.71,178.773
		l34.978,24.019c1.096-0.639,12.329-16.165,13.242-19.361c1.553-5.114-0.274-9.498-3.288-12.055
		c-4.292-3.744-6.302-3.653-12.42-2.648c-1.553-10.503-11.233-13.516-18.631-8.311C127.217,162.06,116.898,175.942,115.71,178.773
		L115.71,178.773z"/>
	<path style="fill-rule:evenodd;clip-rule:evenodd;fill:#2B2A29;" d="M195.164,111.192c11.964-8.676,13.425,0.913,9.589,4.018
		c-1.005,0.822-4.201,2.648-5.206,3.105C197.447,116.123,196.169,113.11,195.164,111.192z M180.917,108.817
		c0.091,0.457,19.726,32.147,22.649,35.709c1.918-0.548,6.758-3.836,8.767-5.023c-0.548-3.105-6.849-9.772-8.037-13.516
		c2.74-2.466,2.831-2.192,9.041,1.918c12.055,8.037,6.667,6.028,18.813-0.548l-1.827-1.644c-0.639-0.365-1.37-0.731-2.1-1.187
		c-2.374-1.279-11.964-6.667-12.968-7.763c1.187-3.379,3.653-7.397-0.365-13.151c-7.032-9.863-15.891-6.028-23.288-1.461
		C188.132,104.342,184.296,106.26,180.917,108.817L180.917,108.817z"/>
	<path style="fill-rule:evenodd;clip-rule:evenodd;fill:#2B2A29;" d="M490.422,173.659c3.379-2.466,6.21-4.749,9.498-7.032
		c3.014-2.192,6.576-5.206,9.498-6.849c1.37,0.822,5.571,5.48,3.836,9.224c-0.457,1.096-11.507,11.233-15.982,10.868
		C494.257,179.686,491.426,175.668,490.422,173.659z M476.814,170.828c0.365,1.644,5.206,7.671,6.484,9.315
		c10.046,13.242,16.713,13.151,29.59,3.288c4.932-3.744,13.882-9.315,10.685-19.361c-1.279-4.292-11.324-17.169-12.968-18.174
		C508.687,146.809,477.819,169.823,476.814,170.828z"/>
	<path style="fill-rule:evenodd;clip-rule:evenodd;fill:#2B2A29;" d="M497.088,504.077l10.776,0.091
		c-0.365,2.009-3.014,7.763-3.927,10.137c-1.827,4.201-11.507,28.128-11.507,29.224h12.42c1.553-2.74,11.598-29.133,14.247-35.069
		c2.374-5.571,1.553-7.58,1.644-14.795l-34.795,0.183l0.183,18.083l10.868-0.091L497.088,504.077L497.088,504.077z"/>
	<path style="fill-rule:evenodd;clip-rule:evenodd;fill:#2B2A29;" d="M483.024,132.014c1.827,1.005,4.932,4.475,6.849,6.028
		c1.553,1.37,5.206,5.48,6.941,6.028c1.37-1.187,5.297-5.206,6.119-6.484l-21.188-19.452c-1.461,1.005-28.494,29.498-29.133,30.686
		c1.37,1.918,10.594,9.863,13.242,12.42c0.822,0.731,1.918,1.918,2.648,2.557c1.096,0.913,1.827,1.553,2.831,2.466
		c1.005,0.822,1.461,1.735,2.74,2.009c1.553-1.735,4.932-4.932,5.845-6.667c-0.822-1.279-11.416-10.685-13.06-12.42
		c0.457-1.096,3.744-4.475,4.749-5.206c0.091,0,0.183,0.091,0.274,0.183l0.731,0.548c2.557,2.009,8.859,8.311,10.776,9.407
		c1.005-0.548,5.571-5.297,6.21-6.484c-1.37-2.283-9.955-8.859-11.324-10.959L483.024,132.014L483.024,132.014z"/>
	<path style="fill-rule:evenodd;clip-rule:evenodd;fill:#2B2A29;" d="M418.365,98.771c0.091-1.279,2.1-4.84,2.648-6.21
		c5.023,0.913,12.603,6.484,17.261,7.397c0.731-1.37,3.562-6.758,3.562-8.402l-26.211-11.872
		c-3.196,5.754-6.119,12.694-9.133,19.087l-8.95,19.361l26.028,11.872c1.187-1.187,3.927-6.575,4.11-8.402l-16.621-7.671
		c0.457-1.827,2.192-4.475,3.014-6.484c4.475,0.822,9.863,5.023,14.43,6.21c1.005-1.005,3.379-6.301,3.744-8.037
		C429.781,103.429,422.11,101.054,418.365,98.771L418.365,98.771z"/>
	<path style="fill-rule:evenodd;clip-rule:evenodd;fill:#2B2A29;" d="M552.889,241.697l5.023,17.626l8.311-2.283
		c0.091-0.365,0.091,0,0.183-1.005c0.091-1.279-6.941-26.211-7.397-26.85l-41.005,10.868c-0.183,1.827,6.302,24.841,7.306,27.854
		l8.95-2.374l-4.566-17.809l7.123-1.827l4.384,14.977l8.676-2.192c-0.639-5.206-3.379-10.594-3.562-15.525L552.889,241.697
		L552.889,241.697z"/>
	<path style="fill-rule:evenodd;clip-rule:evenodd;fill:#2B2A29;" d="M159.729,126.717l12.42,12.968
		c5.206,5.206,12.055,10.229,6.941,15.069c-3.105,2.831-6.302,1.644-8.585-0.548c-2.922-2.831-17.352-18.448-19.452-19.178
		c-1.553,1.096-6.849,6.393-7.215,7.032l17.626,17.809c2.648,2.648,5.388,6.301,11.233,6.484
		c10.594,0.274,18.448-7.945,18.174-17.169c-0.091-5.845-3.014-8.767-5.936-11.598c-2.74-2.74-16.073-16.713-17.991-17.809
		L159.729,126.717L159.729,126.717z"/>
	<path style="fill-rule:evenodd;clip-rule:evenodd;fill:#2B2A29;" d="M103.564,252.108c1.096-1.005,1.644-0.639,5.662-0.913
		c1.735-0.091,3.562-0.365,5.48-0.183c-0.091,1.918-0.822,5.297-1.827,6.667C110.779,257.04,105.847,253.295,103.564,252.108
		L103.564,252.108z M87.947,243.889c-0.639,2.557-1.644,5.48-1.644,8.219c7.215,3.927,32.786,22.466,37.535,24.658
		c0.639-1.37,2.466-8.676,2.466-10.32l-5.297-3.562l3.014-12.512l6.667-0.457l2.831-10.411L87.947,243.889L87.947,243.889z"/>
	<path style="fill-rule:evenodd;clip-rule:evenodd;fill:#2B2A29;" d="M566.77,295.488c9.589-14.156-0.639-34.156-15.982-27.581
		c-9.589,4.201-5.388,15.069-7.671,18.905c-1.918,3.379-8.95,2.374-7.032-9.224c0.457-2.648,1.553-3.105,1.735-4.749
		c-1.096-1.096-5.936-5.206-7.215-5.48c-7.306,7.671-6.667,34.704,13.516,30.868c9.133-1.827,8.95-8.402,9.589-16.987
		c0.365-5.571,5.023-5.297,6.667-2.1c2.374,4.292-0.548,9.589-1.005,11.05C561.291,291.287,564.761,295.214,566.77,295.488
		L566.77,295.488z"/>
	<path style="fill-rule:evenodd;clip-rule:evenodd;fill:#2B2A29;" d="M410.785,514.853c0.731-0.274,9.955-7.763,10.594-8.585
		c0.457,12.786,0,24.841,0.274,37.352h11.507l0.183-49.864c-1.827-0.091-9.407-0.365-10.959-0.091
		c-1.644,0.274-7.215,5.754-9.041,7.123c-1.096,0.822-2.374,1.461-2.648,2.922C410.42,505.538,410.602,512.844,410.785,514.853
		L410.785,514.853z"/>
	<path style="fill-rule:evenodd;clip-rule:evenodd;fill:#2B2A29;" d="M529.6,514.762c2.192-0.274,7.854-7.397,10.685-8.219
		l0.183,37.078l11.507-0.091v-49.681c-1.461-0.274-9.772-0.457-11.142-0.091c-0.457,0.091-11.05,8.037-11.324,10.32
		C529.326,506.634,529.418,512.205,529.6,514.762L529.6,514.762z"/>
	<path style="fill-rule:evenodd;clip-rule:evenodd;fill:#2B2A29;" d="M104.386,200.052l11.142,11.781l-16.439,0.091l-4.84,10.137
		c7.854,0.183,17.626-0.548,25.206-1.096c6.393-0.457,11.964,4.475,19.635,6.849c0.731-3.196,3.653-6.941,3.836-9.772
		c-3.562-1.37-7.215-3.196-10.685-4.658c-6.21-2.648-5.023-2.1-8.767-6.667c-2.009-2.374-12.786-15.708-14.247-16.804
		C108.039,191.102,104.66,198.956,104.386,200.052L104.386,200.052z"/>
	<path style="fill-rule:evenodd;clip-rule:evenodd;fill:#2B2A29;" d="M536.45,212.198c0.822-1.918,3.105-3.927,4.384-5.297
		c1.279-1.461,2.831-3.288,4.201-4.658c2.648-2.648,2.374-2.374,0.457-6.119c-0.913-1.827-2.009-4.201-2.74-6.119
		c-1.827,0.731-5.936,6.484-7.397,8.311c-2.466,2.922-4.658,5.662-7.032,8.585c-3.744,4.566-3.014,4.201-9.041,6.849
		c-2.74,1.187-7.945,3.014-10.594,4.658c0.274,1.644,3.105,7.945,4.018,9.315c4.566-0.457,12.42-6.849,19.087-6.575
		c8.219,0.457,16.804,1.096,25.115,1.187c-0.274-2.009-3.288-8.767-4.384-10.229L536.45,212.198L536.45,212.198z"/>
	<path style="fill-rule:evenodd;clip-rule:evenodd;fill:#2B2A29;" d="M219.091,86.808c0.091,1.461,2.466,7.215,3.196,8.311
		c2.557-0.183,7.032-2.74,9.681-3.47l12.603,30.32l9.772-3.47c-0.274-3.653-11.233-26.211-12.146-30.96l9.407-3.836l-3.196-8.311
		C247.22,75.483,222.197,84.981,219.091,86.808L219.091,86.808z"/>
	<path style="fill-rule:evenodd;clip-rule:evenodd;fill:#2B2A29;" d="M458.823,101.968c-1.461-1.096-7.397-5.023-8.676-5.48
		c-5.206,7.123-12.055,17.991-17.352,26.119c-1.553,2.192-4.749,6.484-5.754,9.041c0.913,1.279,22.832,15.16,23.927,15.434
		l4.749-7.489l-15.069-9.772L458.823,101.968L458.823,101.968z"/>
	<path style="fill-rule:evenodd;clip-rule:evenodd;fill:#2B2A29;" d="M502.111,206.81c2.831-0.091,32.055-18.905,37.17-21.188
		l-5.48-8.859c-2.009,0.457-15.617,8.95-18.448,10.685c-2.922,1.735-6.119,3.744-9.133,5.388c-2.466,1.37-7.215,4.018-9.133,5.571
		C498.184,200.874,500.559,204.344,502.111,206.81L502.111,206.81z"/>
	<polygon style="fill-rule:evenodd;clip-rule:evenodd;fill:#2B2A29;" points="528.139,312.383 571.062,312.931 570.971,302.703 
		528.048,301.972 	"/>
	<path style="fill-rule:evenodd;clip-rule:evenodd;fill:#2B2A29;" d="M537.637,174.389c0.913,1.37,2.831,5.754,5.114,8.676
		c1.37-0.183,2.648-1.187,4.018-2.009l2.74-1.644c0.548-0.365,0.457-0.274,0.913-0.639l-5.023-8.493
		C543.939,170.554,539.007,173.385,537.637,174.389L537.637,174.389z"/>
	<polygon style="fill-rule:evenodd;clip-rule:evenodd;fill:#2B2A29;" points="575.264,313.296 584.031,313.296 583.848,302.885 
		575.172,302.885 	"/>
	<path style="fill-rule:evenodd;clip-rule:evenodd;fill:#2B2A29;" d="M315.715,191.833c8.676-2.009,16.53,5.023,17.626,11.781
		c1.461,9.133-4.749,16.256-12.329,17.443C302.29,223.979,295.623,196.582,315.715,191.833L315.715,191.833z M305.303,177.586
		c-0.365-11.05,0-22.466,0-33.608c0-5.662-0.548-10.685,2.283-14.521c5.297-7.306,15.891-7.945,22.01,0.183
		c2.74,3.744,2.101,9.681,2.101,14.795c0,10.959,0.183,22.101,0,33.151H305.303z M412.429,609.376h28.22
		c1.461-0.639,12.603-1.279,15.16-1.552c5.114-0.457,10.137-1.187,15.069-2.009c28.494-4.566,51.325-12.512,75.344-25.845
		c21.462-11.872,37.352-30.868,47.855-52.604c2.009-4.292,3.562-7.123,5.206-11.69c0.731-2.192,1.37-4.018,2.009-6.393
		c0.639-2.1,0.822-5.114,1.735-6.849v-13.882c-0.457-0.822-1.553-8.219-2.009-10.137c-2.74-10.776-9.681-22.466-16.256-31.142
		c-5.388-7.215-10.868-11.872-17.535-17.626c-8.219-6.941-18.448-12.968-29.316-18.357c-10.503-5.206-22.649-9.224-35.343-11.964
		c-52.056-11.233-92.696-4.292-138.633,18.083l-15.434,8.493l-0.274-155.528l6.028-0.183v-42.923l-6.21-0.183
		c-0.548-9.589,0-20.914,0-30.686v-77.262c0-12.146-0.913-10.776,4.475-10.776c0.091-7.215,0.457-5.388-2.009-6.393
		c-0.183-6.484,0.365-9.681-1.827-15.434c-6.21-16.165-18.905-16.713-22.101-20.366c-1.918-2.192-2.74-1.735-5.114-3.379
		c-0.183-3.288,0.457-3.927-1.553-6.028h-1.644c-2.009,2.283-1.187,2.557-1.461,6.028c-2.74,1.827-2.831,0.913-5.114,3.562
		c-2.374,2.74-8.95,2.466-15.617,10.229c-8.219,9.498-8.128,13.882-8.037,25.389c-2.648,1.096-2.557-1.461-2.283,6.301
		c4.292,0.183,4.475-0.822,4.384,3.653v53.7c0,20.092,0.731,41.462-0.091,61.554l-6.028,0.091l0.183,43.106l5.936,0.091v120.094
		l-16.165,4.658l-0.091-63.472c-2.831,0.822-27.946,15.343-31.325,16.256l-0.731-54.887c-3.196,0.822-12.603,6.941-16.165,8.037
		l-0.274-26.941c-1.644,0.457-4.749,2.1-6.393,3.014c-2.1,1.096-4.201,2.101-6.484,3.288c-4.11,2.192-8.493,4.201-12.603,6.302
		l-0.091,16.347l-14.977,7.306l-0.091-15.799l-25.206,12.603l-0.091,16.347c-1.461,1.005-13.516,7.123-15.251,7.397l-0.091-15.708
		l-25.206,12.786l-0.091,16.256c-2.283,1.279-13.151,6.941-14.977,7.397l-0.091-15.617c-1.279,0.183-23.471,11.324-25.48,12.603
		l0.091,104.934l17.261-6.941c5.936-2.1,11.598-3.927,18.083-5.845c11.872-3.653,26.85-6.21,40.092-7.671
		c45.389-5.023,84.02-0.274,125.3,14.612c19.178,6.941,45.389,21.736,59.636,35.709c5.297,5.206,18.265,23.836,21.462,26.119
		l22.375-11.05c53.882-24.932,136.35-48.129,187.949-14.977c6.028,3.927,12.238,10.503,15.617,17.9
		c4.11,8.95,3.288,19.361,0.183,28.22c-3.288,9.498-8.037,13.516-15.251,18.174c-36.256,23.38-99.637,24.658-142.377,15.982
		c-33.608-6.758-70.504-22.466-96.349-37.992c-7.215-4.292-13.516-8.585-20.64-12.968c-6.667-4.11-14.43-8.128-21.918-11.598
		c-15.891-7.215-31.599-12.694-49.681-17.535c-25.663-6.758-63.746-10.959-91.144-9.407c-10.32,0.457-21.644,0.731-31.416,2.283
		c-19.635,3.196-37.535,6.21-55.252,12.055c-15.251,5.114-30.503,10.868-44.567,18.539c-0.822,0.457-1.827,0.913-2.283,1.644
		c2.648-0.091,20.366-3.653,27.398-4.475c9.681-1.096,19.726-2.009,29.772-2.283c19.909-0.548,40.64,0.091,59.179,4.018
		c18.357,3.927,33.334,8.037,49.59,14.521c65.846,26.485,100.185,60.275,176.625,79.18c13.699,3.47,36.165,8.493,50.96,8.95
		L412.429,609.376L412.429,609.376z"/>
	<path style="fill-rule:evenodd;clip-rule:evenodd;fill:#2B2A29;" d="M444.302,276.766c-4.84,8.219-18.722,6.119-19.544-4.749
		c-0.457-5.388,2.648-7.215,3.562-8.95c-4.84,1.005-9.224,7.489-7.854,14.064c1.735,8.493,8.676,9.224,10.229,9.955
		c0.731,0.365,0.274,0.091,0.822,0.548c-0.091,3.196-3.196,2.009-3.196,6.028c0,1.553,0.457,2.374,1.37,3.196
		c0.913,0.822,3.379,1.735,0.913,3.196c-1.279,0.731-4.018,0.822-6.028,4.932c-1.644,3.288-0.913,6.576,0.548,9.315
		c-9.224,0.639-38.631,1.918-45.48,6.575v63.928c2.374-0.365,5.571-1.735,7.945-2.466c8.767-2.831,16.256-4.658,25.48-6.21
		c11.872-2.1,25.571-3.744,38.174-3.744c37.992,0,78.815,8.219,110.596,27.763l11.416,7.123c-0.457-6.484-4.201-16.347-6.758-21.279
		c-9.589-18.357-23.288-32.329-40.823-43.471c-23.105-14.703-56.44-26.211-85.116-27.581c1.187-3.562,3.014-5.388,0.913-10.046
		c-1.096-2.192-3.105-3.653-5.206-4.475c-1.735-0.731-1.005,0.183-1.827-1.187c-0.548-2.283,3.744-1.644,3.105-6.301
		c-0.639-4.201-3.562-1.735-3.105-5.845c6.301-1.096,11.507-5.388,11.233-12.42L444.302,276.766L444.302,276.766z"/>
</g>
</svg>
