<?xml version="1.0" encoding="iso-8859-1"?>
<!-- Generator: Adobe Illustrator 29.7.1, SVG Export Plug-In . SVG Version: 9.03 Build 0)  -->
<svg version="1.1" id="Layer_1" xmlns="http://www.w3.org/2000/svg" xmlns:xlink="http://www.w3.org/1999/xlink" x="0px" y="0px"
	 viewBox="0 0 1920 1080" style="enable-background:new 0 0 1920 1080;" xml:space="preserve">
<g>
	<path style="fill:#FFFFFF;" d="M946.17,647.23c3.67-2.02,5.3,4.73,1.64,5.12C945.15,652.62,944.52,648.79,946.17,647.23
		L946.17,647.23z"/>
	<path style="fill:#000094;" d="M957.24,271h0.55c3,1.43,6.41,1.64,9.45,2.98c4.88,2,8.84,5.94,11.02,10.73
		c4.34,8.89,1.92,20.54-5.73,26.84c-4.43,3.4-9.95,5.68-15.61,5.27c-10.63-0.45-20.21-9.21-21.25-19.86
		c-1.12-8.51,3.3-17.29,10.58-21.72C949.64,273.17,953.74,272.83,957.24,271 M1003.06,278.99c5.07-5.47,12.89-7.79,20.2-6.71
		c3.7,3.27,8.88,4.55,12.07,8.44c1.68,2.75,3.15,5.62,4.7,8.45c0.86,4.08,0.37,8.35,0.67,12.51c-3.81,12.04-19.07,18.99-30.45,13.04
		c-7.51-3.06-12.51-10.72-13.24-18.67C996.44,289.81,998.99,283.63,1003.06,278.99 M891.33,273.44c5.43-1.38,11.25-0.38,16.17,2.2
		c7.82,4.33,12.53,13.61,11.2,22.49c-1.08,11.43-12.39,20.47-23.72,19.53c-10.67-0.62-20.3-9.74-20.87-20.53
		C872.94,286.39,880.74,275.62,891.33,273.44 M1065.86,282.74c9.26,0.13,18.52,0.1,27.79,0.01c0.99,9.72-1.53,19.36-3.69,28.76
		c1.44-0.63,2.85-1.32,4.24-2.06c-0.89,1.12-1.79,2.23-2.67,3.36c6.59-2.15,8.52-9.33,11.35-14.87c2.17-4.19,2.21-9.29,4.88-13.21
		c2.26-1.08,4.87-0.86,7.32-0.95c6.24,0.16,12.49-0.11,18.74,0.19c2.37,7.8,1.2,16,1.06,23.99c-0.31,65.2-0.14,130.4-0.47,195.6
		c-27.96-0.02-55.92,0.07-83.88-0.04c-5.41-10.14-11.74-19.92-20.01-27.98c-18.44-18.91-44.38-29.24-70.44-31.49
		c-13.94-1.65-28.11,0.94-41.16,5.9c-19.53,6.61-37.03,18.98-49.95,35.04c-1.26,1.53-2.28,3.29-3.76,4.63
		c-2.54,1.65-4.74,3.8-6.09,6.54c-1.89,2.9-3.23,7.2-7.23,7.61c-8.61,1-17.29-0.22-25.93,0.22c-12-0.13-23.99,0.28-35.99,0.1
		c-2.77-0.16-6.51-0.18-7.8-3.18c-1-4.9,0.05-9.94-0.04-14.9c0.02-38.36-0.31-76.72,0.01-115.08c-0.13-8.64-0.4-17.28-0.08-25.91
		c0.18-19.95-0.49-39.9,0.24-59.85c7.76-1.78,15.85-2.25,23.74-1.15c5.69,0.57,4.36,7.89,7.86,11.07
		c3.06,7.04,6.67,14.43,13.51,18.56c-0.71-4.02-1.81-8-2-12.09c0.55-5.9-0.31-11.97,1.52-17.71c8.2-0.42,16.44-0.46,24.64,0.03
		c1.65,8.12,3.85,16.36,8.12,23.53c0.03-0.58,0.1-1.73,0.13-2.31c5.72,10.68,15.17,20.18,27.45,22.51
		c14.81,3.06,29.49-2.55,42.57-9.02c1.68,3.86,3.62,7.85,7.14,10.36c4.68,3.38,10.68,3.46,16.14,4.53
		c8.3,0.59,17.61,1.47,24.85-3.49c5.17-3.16,6.75-9.35,9.7-14.27c4.13,6.19,10.59,10.84,17.83,12.64c8.17,2.25,16.84,1.7,25.05-0.03
		c11.58-1.94,20-11.41,25.82-20.96c1.08-1.38,2.01-2.89,2.54-4.56C1061.71,296.29,1063.88,289.55,1065.86,282.74 M1069.78,330.76
		c-0.76,1.32-0.81,2.89-1.12,4.35l-0.07,0.05c-0.6,0.01-1.81,0.01-2.42,0.01c-4.77,2.19-9.24,5.05-14.16,6.9
		c-5.11,1.12-10.85,0.71-15.45,3.45c-0.84,3.06,0.19,6.34,0.06,9.49c-0.02,20.01,0.05,40.03-0.07,60.04
		c0.13,2.83-0.79,6.19,1.49,8.43l-0.02,0.71c0.71,1.08,1.7,1.58,2.98,1.49c9.21-0.28,18.44-0.53,27.65-0.06
		c2.17,0.12,4.3-0.3,6.42-0.7c0.2-1.61,0.36-3.23,0.46-4.85c-0.26-26.01-0.03-52.04-0.16-78.06c-0.17-3.9,1.05-7.98-0.58-11.71
		C1073.13,330.47,1071.32,330.06,1069.78,330.76 M843.17,330.78l0.02,0.83c-0.24,0.39-0.7,1.17-0.94,1.56
		c0.06,29.26-0.03,58.58,0.04,87.86c0,1.88,0.45,3.71,0.95,5.51c11.73-1.83,23.67-0.76,35.47-0.21c0.05-0.52,0.14-1.55,0.18-2.06
		c0.04-26.18,0.01-52.36,0-78.53C865.65,345.4,852.84,339.74,843.17,330.78 M919.39,334.79c-5.52,2.46-9.17,7.57-11.67,12.9
		c-0.16,3.13,0.81,6.21,0.73,9.36c-0.05,16.99-0.06,33.99,0.01,50.99c0.06,4.99-1.33,9.9-0.97,14.89c-0.05,1.43,1.24,2.65,2.65,2.62
		c8.44,0.56,16.93-0.28,25.38,0.29c0.06,1.03,0.13,2.06,0.2,3.1c1.68-0.67,3.11-1.79,4.38-3.05c1.58-0.16,3.16-0.28,4.75-0.41
		l-0.06-0.91l1.3,0.01c0.08-25.88,0.18-51.78-0.05-77.66c-3.17-5.77-8.58-10.36-14.9-12.33c-0.75-0.66-0.97-2.46-2.23-2.2
		C925.75,333.23,922.62,334.22,919.39,334.79 M976.68,338.68c-2.59,3.05-5.15,6.21-7.09,9.72c0.02,2.89,0.73,5.74,0.73,8.64
		c0.09,17.98,0,35.96,0.08,53.94c-0.04,3.63,0.36,7.3-0.31,10.89c-0.91,0.7-1.85,1.36-2.81,1.98c0.24,0.61,0.48,1.21,0.73,1.82
		c1.12-0.27,2.25-0.54,3.37-0.8l0.08,1.13l-0.72,0.84c12.03,0.99,24.14-0.22,36.17,0.79c0.01-0.46,0.03-1.38,0.03-1.84l0.94-0.01
		v-0.36c1.85-0.71,1.27-2.89,1.47-4.39c-0.01-24.08-0.29-48.18,0.15-72.25c-0.42-0.23-1.27-0.68-1.7-0.91
		c-1.86-2.47-4.07-4.64-6.04-7.02l1.21,0.62C997.7,332.55,984.06,332.42,976.68,338.68 M780.44,509.76
		c8.51,0.42,17.02,0.1,25.53,0.19c15.98-0.1,31.96,0.24,47.93-0.17c-6.88,15.95-9.87,33.56-8.98,50.89c-21.5-0.04-43,0.06-64.5-0.05
		C780.42,543.67,780.37,526.71,780.44,509.76 M1056.71,511.47c26.04-0.15,52.08-0.04,78.12-0.07c0.37,7.88-0.11,15.77,0.06,23.65
		c-0.19,7.83,0.5,15.68-0.22,23.5c-8.53,0.89-17.11,0.53-25.66,0.62c-11.32-0.07-22.65,0.14-33.97-0.22
		c-2.13-0.02-4.24,0.22-6.33,0.55c19.43,0.72,38.9,0.18,58.34,0.28c3.14,0.09,6.26,0.49,9.38,0.89
		c-24.51-0.02-49.02,0.01-73.53-0.01c1.74-0.26,3.49-0.52,5.24-0.77c-1.26-0.55-2.53-1.1-3.78-1.64c-0.5-3.74-0.94-7.53-0.52-11.3
		c0.2-2.88,0.87-5.86-0.07-8.68c-2.02-6.28-3.62-12.69-4.51-19.23c-0.37,0.5-1.12,1.5-1.49,2c-0.8-2.19-1.62-4.39-2.42-6.58
		C1055.69,513.71,1056.37,512.22,1056.71,511.47 M1061.55,535.14c1.39,1.52,1.54,3.61,0.8,5.48l-0.34,0.08
		C1061.24,539.08,1060.84,536.83,1061.55,535.14 M780.47,569.84c21.87,0.11,43.74-0.05,65.61,0.07c0.83,6.61,2.51,13.07,4.53,19.4
		c-0.72,0.88-1.43,1.77-2.14,2.67c2.57,3.96,3.92,9.26,8.14,11.83l0.27,0.16c2.86,5.93,6.62,11.35,10.43,16.69
		c-28.07-0.02-56.14,0.07-84.21-0.04c-0.79-4.89-2.85-9.59-2.71-14.6C780.48,593.96,780.32,581.89,780.47,569.84 M1062.87,571.71
		c20.36-0.8,40.75,0.13,61.12-0.4c3.43-0.13,6.85,0.07,10.27,0.41c0.85,6.38,0.51,12.83,0.51,19.26
		c-0.03,8.71,0.56,17.63-1.74,26.13c-0.44,2.55-3.56,2.5-5.55,2.19c-8.4-1.5-16.94-0.61-25.42-0.83c-15-0.18-30.02,0.48-44.99-0.51
		c-4.13,0.14-8.25,0.54-12.38,0.26c2.04-4.07,5.28-7.46,6.8-11.8c2.23-6,6.29-11.52,5.87-18.22c0.32-1.81,0.76-3.64,1.69-5.24
		C1061.7,579.78,1062.13,575.61,1062.87,571.71 M987.39,658.25c16.32-5.85,31.91-14.76,43.73-27.62c2.27,0.43,4.57,0.74,6.89,0.79
		c27.35-0.05,54.7-0.17,82.05-0.07c2.95,0.03,5.87,0.52,8.77,1.07c-3.07,11.02-10.36,20.26-13.22,31.36
		c-1.95,3.73-4.03,7.49-6.69,10.77c-6.94,4.27-9.93,12.2-15.73,17.62c-2.19,2.24-4.75,4.7-8.15,4.45
		c-54.35-0.25-108.7-0.03-163.05-0.12c-33.22,0.12-66.44-0.18-99.66,0.16h-0.03c-7.68-9.48-14.76-19.44-21.2-29.79
		c-6.19-10.9-12.53-22.24-13.9-34.94c3.26-0.46,6.54-0.8,9.83-0.76c23.34,0.37,46.68-0.01,70.02,0.03c3.93,0,7.81,0.76,11.53,2.01
		c7.89,7.48,16.91,13.63,26.43,18.87c-0.57,0.04-1.7,0.12-2.27,0.16c4.71,2.78,9.19,6.28,14.66,7.42
		c5.53,1.15,10.82,3.43,16.53,3.66c9.23,0.5,18.4,4.54,27.66,1.97c5.5-1.59,11.25-1.65,16.93-1.48c-0.22-0.37-0.67-1.11-0.89-1.48
		C981.21,661.88,984.66,660.69,987.39,658.25 M837.9,709.46c8.36-0.33,16.73-0.24,25.1-0.14c71.38-0.06,142.76,0.12,214.13-0.12
		c-5.78,6.17-13.92,9.71-18.85,16.69c-15.19,10.85-32.27,19.46-50.54,23.67c-27.55,4.99-55.92,7.29-83.75,3.39
		c-14.74-1.91-28.74-7.45-41.93-14.07c0.58,0.04,1.74,0.11,2.32,0.15c-3.03-1.77-6.06-3.52-9.04-5.36
		c-6.22-3.87-14.11-5.2-18.95-11.11c-1.23,0.21-2.46,0.41-3.69,0.62c-0.6-0.5-1.2-0.99-1.79-1.48c-0.28-2.28-2.49-3.32-4.09-4.58
		C843.53,714.95,840.56,712.35,837.9,709.46L837.9,709.46z"/>
	<path style="fill:#06046B;" d="M1023.26,272.28c13.2,1.84,22.33,16.9,17.44,29.4c-0.3-4.16,0.19-8.43-0.67-12.51
		c-1.55-2.83-3.02-5.7-4.7-8.45C1032.14,276.83,1026.96,275.55,1023.26,272.28 M1107.02,282.79c9.75,0.45,19.51,0.09,29.27,0.22
		c-0.15,36.76-0.46,73.52-0.16,110.28c0.02,36.77-0.34,73.54-0.3,110.32l-1.42-0.05c0.33-65.2,0.16-130.4,0.47-195.6
		c0.14-7.99,1.31-16.19-1.06-23.99c-6.25-0.3-12.5-0.03-18.74-0.19c-2.45,0.09-5.06-0.13-7.32,0.95c-2.67,3.92-2.71,9.02-4.88,13.21
		c-2.83,5.54-4.76,12.72-11.35,14.87c0.88-1.13,1.78-2.24,2.67-3.36c2-2.47,3.84-5.08,5.39-7.85
		C1102.82,295.63,1103.86,288.78,1107.02,282.79 M1069.78,330.76c1.54-0.7,3.35-0.29,5.01-0.46c1.63,3.73,0.41,7.81,0.58,11.71
		c0.13,26.02-0.1,52.05,0.16,78.06c-0.1,1.62-0.26,3.24-0.46,4.85c-2.12,0.4-4.25,0.82-6.42,0.7c-9.21-0.47-18.44-0.22-27.65,0.06
		c-1.28,0.09-2.27-0.41-2.98-1.49c11.59-0.23,23.19-0.11,34.79-0.07l1.2,0.02c0-31.21-0.01-62.42,0-93.63
		c-0.31,0.29-0.93,0.89-1.25,1.18c-1.31,1.2-2.68,2.34-4.1,3.42C1068.97,333.65,1069.02,332.08,1069.78,330.76 M919.39,334.79
		c3.23-0.57,6.36-1.56,9.52-2.4c1.26-0.26,1.48,1.54,2.23,2.2c-8.95-1.6-17.16,4.91-21.21,12.36c-0.44,25.87-0.05,51.77-0.19,77.64
		c11.68-0.05,23.36-0.03,35.05-0.02l0.06,0.91c-1.59,0.13-3.17,0.25-4.75,0.41c-1.27,1.26-2.7,2.38-4.38,3.05
		c-0.07-1.04-0.14-2.07-0.2-3.1c-8.45-0.57-16.94,0.27-25.38-0.29c-1.41,0.03-2.7-1.19-2.65-2.62c-0.36-4.99,1.03-9.9,0.97-14.89
		c-0.07-17-0.06-34-0.01-50.99c0.08-3.15-0.89-6.23-0.73-9.36C910.22,342.36,913.87,337.25,919.39,334.79 M976.68,338.68
		c7.38-6.26,21.02-6.13,26.29,2.79l-1.21-0.62c-4.64-3.97-11.16-6.83-17.22-4.41c-5.84,1.87-9.76,6.75-13.27,11.48
		c0.06,25.65-0.16,51.3,0.11,76.95c-1.12,0.26-2.25,0.53-3.37,0.8c-0.25-0.61-0.49-1.21-0.73-1.82c0.96-0.62,1.9-1.28,2.81-1.98
		c0.67-3.59,0.27-7.26,0.31-10.89c-0.08-17.98,0.01-35.96-0.08-53.94c0-2.9-0.71-5.75-0.73-8.64
		C971.53,344.89,974.09,341.73,976.68,338.68 M1052.01,342.07c4.92-1.85,9.39-4.71,14.16-6.9c0.61,0,1.82,0,2.42-0.01
		c-5.55,4.04-11.92,6.86-18.47,8.82c-1.88-0.5-3.87-0.19-5.37,1.07c-2.21,0.19-4.42,0.35-6.62,0.53c-0.09,25.97,0.1,51.93-0.09,77.9
		c-2.28-2.24-1.36-5.6-1.49-8.43c0.12-20.01,0.05-40.03,0.07-60.04c0.13-3.15-0.9-6.43-0.06-9.49
		C1041.16,342.78,1046.9,343.19,1052.01,342.07 M850.61,589.31c1.56,5.01,3.89,9.71,6,14.5c-4.22-2.57-5.57-7.87-8.14-11.83
		C849.18,591.08,849.89,590.19,850.61,589.31 M1031.12,630.63c2.86-1.07,5.97-0.58,8.95-0.67c30.45-0.02,60.89,0.04,91.33-0.04
		c-3.14,10.02-7.82,19.45-12.65,28.74c-0.88,1.8-1.83,3.58-3.14,5.12c2.86-11.1,10.15-20.34,13.22-31.36
		c-2.9-0.55-5.82-1.04-8.77-1.07c-27.35-0.1-54.7,0.02-82.05,0.07C1035.69,631.37,1033.39,631.06,1031.12,630.63 M1093.19,692.17
		c5.8-5.42,8.79-13.35,15.73-17.62c-5.56,8.35-11.75,16.49-19.15,23.27c-84.58,0.17-169.18,0.03-253.76,0.07
		c-4.26-0.2-8.6,0.39-12.8-0.28l-0.88-0.95c33.22-0.34,66.44-0.04,99.66-0.16c54.35,0.09,108.7-0.13,163.05,0.12
		C1088.44,696.87,1091,694.41,1093.19,692.17 M834.54,707.81c57.49,0.39,115,0.06,172.5,0.17c24.56-0.13,49.12,0.27,73.67-0.21
		c-6.88,6.72-14.45,12.77-22.43,18.12c4.93-6.98,13.07-10.52,18.85-16.69c-71.37,0.24-142.75,0.06-214.13,0.12
		c-8.37-0.1-16.74-0.19-25.1,0.14c2.66,2.89,5.63,5.49,8.92,7.66c1.6,1.26,3.81,2.3,4.09,4.58
		C844.84,717.86,839.05,713.45,834.54,707.81 M852.7,723.18c1.23-0.21,2.46-0.41,3.69-0.62c4.84,5.91,12.73,7.24,18.95,11.11
		c2.98,1.84,6.01,3.59,9.04,5.36c-0.58-0.04-1.74-0.11-2.32-0.15C871.73,734.76,862.16,728.97,852.7,723.18L852.7,723.18z"/>
	<path style="fill:#0A086F;" d="M781.07,282.14c9.77,0,19.55,0,29.33,0.01c1.01,4.36,2.3,8.64,3.5,12.94
		c-3.5-3.18-2.17-10.5-7.86-11.07c-7.89-1.1-15.98-0.63-23.74,1.15c-0.73,19.95-0.06,39.9-0.24,59.85
		c-0.32,8.63-0.05,17.27,0.08,25.91c-0.32,38.36,0.01,76.72-0.01,115.08c0.09,4.96-0.96,10,0.04,14.9c1.29,3,5.03,3.02,7.8,3.18
		c12,0.18,23.99-0.23,35.99-0.1c8.64-0.44,17.32,0.78,25.93-0.22c4-0.41,5.34-4.71,7.23-7.61c1.35-2.74,3.55-4.89,6.09-6.54
		c-3.22,4.98-6.29,10.18-9.18,15.27c-24.97,0.31-49.97,0.05-74.96,0.13C781.1,430.73,781.11,356.44,781.07,282.14 M842.25,333.17
		c0.24-0.39,0.7-1.17,0.94-1.56c0.18,30.87,0.03,61.75,0.07,92.63c11.88-0.03,23.75-0.08,35.63,0.03c-0.04,0.51-0.13,1.54-0.18,2.06
		c-11.8-0.55-23.74-1.62-35.47,0.21c-0.5-1.8-0.95-3.63-0.95-5.51C842.22,391.75,842.31,362.43,842.25,333.17 M1059.26,519.04
		c0.89,6.54,2.49,12.95,4.51,19.23c0.94,2.82,0.27,5.8,0.07,8.68c-0.42,3.77,0.02,7.56,0.52,11.3c1.25,0.54,2.52,1.09,3.78,1.64
		c-1.75,0.25-3.5,0.51-5.24,0.77l-0.43,0.06c0.58-6.7-0.49-13.46-0.12-20.1c0.74-1.87,0.59-3.96-0.8-5.48
		c-1.88-4.47-2.07-9.52-3.78-14.1C1058.14,520.54,1058.89,519.54,1059.26,519.04L1059.26,519.04z"/>
	<path style="fill:#080A71;" d="M823.93,282.18c9.55-0.1,19.09,0.01,28.64-0.03c1.18,7.98,4.05,15.59,7.25,22.95
		c-0.03,0.58-0.1,1.73-0.13,2.31c-4.27-7.17-6.47-15.41-8.12-23.53c-8.2-0.49-16.44-0.45-24.64-0.03
		c-1.83,5.74-0.97,11.81-1.52,17.71C824.28,295.16,824.14,288.66,823.93,282.18L823.93,282.18z"/>
	<path style="fill:#B7B9F2;" d="M1107.02,282.79c5.93-0.93,11.95-0.39,17.93-0.49c3.85,0.12,7.74-0.32,11.58,0.21
		c1.12,6.76,0.31,13.68,0.5,20.5c0.06,20.66-0.09,41.31-0.18,61.96c-0.64,9.43,0.55,18.94-0.72,28.32
		c-0.3-36.76,0.01-73.52,0.16-110.28C1126.53,282.88,1116.77,283.24,1107.02,282.79L1107.02,282.79z"/>
	<path style="fill:#AFB0E0;" d="M1056.37,307.37c-1.09-1.56,0.58-5.02,2.54-4.56C1058.38,304.48,1057.45,305.99,1056.37,307.37
		L1056.37,307.37z"/>
	<path style="fill:#C9CAFF;" d="M1072.76,331.69c0.32-0.29,0.94-0.89,1.25-1.18c-0.01,31.21,0,62.42,0,93.63l-1.2-0.02
		c0.64-24.04,0.11-48.09,0.3-72.14C1073.21,345.22,1073.06,338.45,1072.76,331.69L1072.76,331.69z"/>
	<path style="fill:#8384D4;" d="M1044.75,345.05c1.5-1.26,3.49-1.57,5.37-1.07C1048.63,345.29,1046.62,345.65,1044.75,345.05
		L1044.75,345.05z"/>
	<path style="fill:#07066B;" d="M1007.8,347.87c0.43,0.23,1.28,0.68,1.7,0.91c-0.44,24.07-0.16,48.17-0.15,72.25
		c-0.2,1.5,0.38,3.68-1.47,4.39C1007.75,399.57,1007.9,373.72,1007.8,347.87L1007.8,347.87z"/>
	<path style="fill:#060369;" d="M971.46,426c11.82-0.44,23.66-0.02,35.48-0.21c0,0.46-0.02,1.38-0.03,1.84
		c-12.03-1.01-24.14,0.2-36.17-0.79L971.46,426L971.46,426z"/>
	<path style="fill:#F80402;" d="M945.98,461.98c1.32-5.59,8.18-9.19,13.35-6.23c3.61,2.04,5.54,6.35,5.12,10.43
		c-1.55,2.68-3.22,5.82-6.46,6.68C951.63,475.34,944,468.6,945.98,461.98L945.98,461.98z"/>
	<path style="fill:#F80300;" d="M929.29,466.35c5.56-2.65,12.81,2.64,12.42,8.69c0.38,6.63-8.19,11.82-13.75,7.95
		C921.16,479.73,922.1,468.57,929.29,466.35L929.29,466.35z"/>
	<path style="fill:#F70400;" d="M974.26,466.2c4.53-1.81,10.17,1.3,11.45,5.94c1.66,4.32-0.86,9.79-5.27,11.28
		c-4.56,2.46-10.79-0.75-12.31-5.51C966.32,473.2,969.42,467.48,974.26,466.2L974.26,466.2z"/>
	<path style="fill:#F90302;" d="M951.26,478.22c4.34-2.13,10.19-0.07,12.08,4.44c3.35,5.59-1.79,13.82-8.36,13.13
		c-4.96,0.34-8.93-4.12-9.32-8.81C945.52,483.29,947.99,479.77,951.26,478.22L951.26,478.22z"/>
	<path style="fill:#F80302;" d="M972.94,490.04c5.31-2.7,12.31,0.88,13.05,6.82c1.73,7-6.64,13.27-12.98,9.92
		C965.92,504.09,966.09,492.94,972.94,490.04L972.94,490.04z"/>
	<path style="fill:#F50400;" d="M923.3,498.97c-0.49-4.07,2.39-7.28,5.51-9.41c3.34-0.5,7.1-0.62,9.74,1.88
		c4.56,3.72,4.17,11.99-1.17,14.81C931.89,510.03,923.2,505.78,923.3,498.97L923.3,498.97z"/>
	<path style="fill:#F70402;" d="M952.28,500.45c6.46-2.29,13.2,4.16,12.07,10.64c-1.14,3.74-4.32,7.19-8.39,7.45
		c-5.68,0.7-11.21-4.94-10.21-10.62C946.55,504.61,949.09,501.67,952.28,500.45L952.28,500.45z"/>
	<path style="fill:#DF080E;" d="M1009.21,504.09c2.66-3.7,8.23-2.33,11.11,0.38c2.02,1.76,0.76,4.82,2.36,6.82
		c1.81,2.69,3.55,5.44,5.12,8.28c-3.51,0.97-6.41-1.35-7.48-4.56l0.31-1.39c0.01-2.98-0.43-6.38-2.53-8.63
		c-2.42-1.14-6.12-1.26-7.77,1.23c-2.88,3.97-2.19,9.15-2.3,13.77c0.16,4.37-0.51,8.69-1.34,12.97c-1.21,6.27-0.41,13.59-5.31,18.48
		c2.9-9.56,4.06-19.54,4.95-29.46C1006.77,515.98,1005.13,509.2,1009.21,504.09L1009.21,504.09z"/>
	<path style="fill:#FD0100;" d="M1010.33,506.22c1.65-2.49,5.35-2.37,7.77-1.23c2.1,2.25,2.54,5.65,2.53,8.63
		c-1.62-0.44-3.27-0.52-4.83,0.16c-0.97,7.69,0.37,15.44-0.4,23.16c-0.94,7.88-2.3,15.99-6.53,22.86c-5.71,9.32-13,18.1-22.8,23.29
		c-3.58,1.79-7.44,3.35-11.48,3.56c-3.21-0.29-6.47-0.99-9.67-0.17c-6.68,0.73-12.34-3.79-16.97-8.01c-2.94-1.67-6.19-2.74-9.08-4.5
		c-2.81-1.55-5.47-3.71-8.77-4.03c-3.66-0.42-7.39-0.35-11.04,0.19c-3.15,0.53-5.7,2.59-8.49,4c-5.81,3.19-12.37,4.52-18.82,5.76
		c2.88-5.78,7.7-10.26,10.67-15.98c2.74-4.92,5.08-10.29,9.88-13.6c3.55,2.14,6.28,6.4,10.93,5.91c9.62,0.54,19.26-0.29,28.75-1.83
		c5.04-0.88,9.87-2.76,14.48-4.93c2.16-0.58,2.87-3.57,1.48-5.21c-2.67-1.8-5.76-2.9-8.39-4.8c10.34,1.9,17.77,11.27,28.31,12.32
		c3.07,0.55,5.04,3.55,8.09,4.09c2.85,0.3,3.94-2.58,5.43-4.42c4.9-4.89,4.1-12.21,5.31-18.48c0.83-4.28,1.5-8.6,1.34-12.97
		C1008.14,515.37,1007.45,510.19,1010.33,506.22L1010.33,506.22z"/>
	<path style="fill:#CFCAFE;" d="M779.61,509.71c5.47-0.79,11-0.5,16.51-0.51c14.64,0.03,29.29-0.07,43.93-0.02
		c4.62,0.09,9.3-0.45,13.85,0.6c-15.97,0.41-31.95,0.07-47.93,0.17c-8.51-0.09-17.02,0.23-25.53-0.19L779.61,509.71L779.61,509.71z"
		/>
	<path style="fill:#080571;" d="M1053.48,509.84c27.65-0.08,55.29,0.06,82.94-0.07c-0.01,16.96-0.03,33.93,0.01,50.9
		c-3.12-0.4-6.24-0.8-9.38-0.89c-19.44-0.1-38.91,0.44-58.34-0.28c2.09-0.33,4.2-0.57,6.33-0.55c11.32,0.36,22.65,0.15,33.97,0.22
		c8.55-0.09,17.13,0.27,25.66-0.62c0.72-7.82,0.03-15.67,0.22-23.5c-0.17-7.88,0.31-15.77-0.06-23.65
		c-26.04,0.03-52.08-0.08-78.12,0.07c-0.34,0.75-1.02,2.24-1.36,2.99C1054.72,512.91,1054.11,511.37,1053.48,509.84L1053.48,509.84z
		"/>
	<path style="fill:#E9070B;" d="M931,522.1c7.18,0.83,13,5.47,19.15,8.83c12.78,6.54,25.41,13.44,37.71,20.84
		c-10.54-1.05-17.97-10.42-28.31-12.32c2.63,1.9,5.72,3,8.39,4.8c1.39,1.64,0.68,4.63-1.48,5.21c-4.61,2.17-9.44,4.05-14.48,4.93
		c-9.49,1.54-19.13,2.37-28.75,1.83l-0.79-1.62c6.89,0.05,13.79-0.03,20.62-0.98c7.61-0.37,15.16-2.03,22.02-5.42
		c0.55-0.77,1.1-1.54,1.66-2.31c-2.39-2.59-6.18-2.61-8.9-4.66c-7.99-5.72-16.34-10.88-24.5-16.33
		C932.25,524.25,931.38,523.32,931,522.1L931,522.1z"/>
	<path style="fill:#F40501;" d="M887.57,530.59c0.49-0.04,1.47-0.12,1.96-0.16c10.29,8.61,20.66,17.4,32.62,23.61l0.29,0.56
		l0.79,1.62c-4.65,0.49-7.38-3.77-10.93-5.91c-4.8,3.31-7.14,8.68-9.88,13.6c-1.64-1.48,0.13-3.21,0.07-4.89
		c0.12-1.71-1.06-3.13-1.78-4.58c-4.06-6.72-8.53-13.2-12.46-20.01C887.51,533.28,887.71,531.87,887.57,530.59L887.57,530.59z"/>
	<path d="M1160.33,557.15c2.04,0.04,4.09,0.08,6.15,0.14c-0.09,2.1-0.17,4.2-0.24,6.3c-2.02-0.06-4.04-0.13-6.05-0.17
		C1160.22,561.32,1160.28,559.24,1160.33,557.15 M710,560.27c13.61-0.67,27.23-0.97,40.85-1.45c0.02,1.84,0.04,3.67,0.05,5.51
		c-4.61,0.07-9.21,0.29-13.82,0.42c-2.21,2.27-4.48,4.5-6.46,6.98c7.07,4.5,14.12,9.06,21.08,13.73c0.1,2.39,0.17,4.79,0.25,7.19
		c-8.19-5.83-16.57-11.37-24.88-17.02c-5.35,5.87-10.71,11.74-15.92,17.72c-0.12-2.46-0.2-4.93-0.3-7.39
		c6.44-7,12.99-13.9,19.54-20.8c-6.71-0.05-13.41,0.36-20.11,0.54C710.19,563.88,710.09,562.08,710,560.27 M1168.99,557.96
		c13.34,0.43,26.69,0.9,40.03,1.37v5.56c-13.37-0.55-26.74-1.02-40.11-1.42C1168.93,561.63,1168.96,559.8,1168.99,557.96
		 M1166.44,581.58c2.36-3.32,6.51-4.76,10.47-4.65c-0.02,1.74-0.05,3.49-0.07,5.24c-2.51,0.32-5.39,0.68-6.85,3.04
		c-2.41,3.76-2.82,8.81-1.27,12.98c1.22,3.27,5.88,4.24,8.36,1.83c4.05-6.1,4.2-14.2,9.46-19.62c4.24-4.38,12.21-3.39,15.75,1.42
		c4.11,4.9,3.61,11.92,2.04,17.72c-1.66,6.34-8.02,11.12-14.65,10.39c0.04-1.73,0.07-3.45,0.09-5.17c2.8-0.27,5.98-0.69,7.74-3.18
		c3.13-4.2,3.96-10.21,2-15.07c-1.5-3.74-7.11-4.99-9.66-1.63c-4.16,5.93-4.28,14.15-9.69,19.32c-5.15,4.82-14.56,1.66-16.34-5.01
		C1162.21,593.35,1162.82,586.57,1166.44,581.58 M713.45,603.71c14.58,1.96,29.1,4.35,43.68,6.28c0.49,1.98,0.95,3.97,1.38,5.97
		c-12.05,8.11-23.78,16.68-35.77,24.87c-0.51-1.83-0.99-3.65-1.47-5.47c3.53-2.61,7.33-4.82,10.93-7.32
		c-1.32-5.59-2.72-11.15-4.07-16.73c-4.43-0.6-8.87-1.07-13.3-1.64C714.39,607.68,713.92,605.69,713.45,603.71 M732.71,611.85
		c1.07,4.55,2.35,9.05,3.52,13.58c5.76-3.94,11.32-8.44,17.77-11.19C746.9,613.47,739.8,612.74,732.71,611.85 M1157.82,614.44
		c1.59,0.43,3.15,0.89,4.74,1.35c-2.34,8.13-5.61,15.96-7.73,24.15c4.51,1.09,8.84,2.77,13.23,4.26c2.22-7.19,4.65-14.32,6.84-21.52
		c1.55,0.42,3.11,0.86,4.67,1.31c-2.15,7.28-4.85,14.37-7.04,21.63c4.01,1.25,8.01,2.52,11.99,3.87c2.62-7.61,4.98-15.3,7.43-22.96
		c1.54,0.51,3.1,0.98,4.62,1.57c-3.01,9.36-6.26,18.64-9.12,28.05c-13.02-4.25-26.02-8.5-39.06-12.69
		C1151.82,633.88,1154.82,624.16,1157.82,614.44 M726.12,654.73c12.4-5.76,24.74-11.66,37.19-17.32c2.12,4.65,4.17,9.33,6.48,13.89
		c1.69,3.7,3.72,7.49,3.65,11.67c-0.46,6.56-7.8,11.33-14.03,9.44c-3.37-0.81-5.44-3.8-7.4-6.4c-0.64,8.19-6.61,14.55-10.76,21.24
		c-0.9-2.05-1.81-4.09-2.65-6.17c3.21-5.52,7.46-10.48,9.74-16.5c1.59-4.56-1.89-8.54-3.36-12.6c-5.5,2.49-11.02,4.95-16.47,7.55
		C727.71,657.93,726.92,656.33,726.12,654.73 M749.14,649.92c2.34,4.92,4.42,10.02,7.33,14.63c3.12,4.93,12.02,2.51,11.74-3.51
		c-0.77-6-4.53-11.12-6.62-16.72C757.38,646.05,753.28,648.03,749.14,649.92 M1144.71,656.05c1.07-1.87,2.14-3.74,3.19-5.62
		c4.46,8.29,8.01,17.08,12.74,25.22c4.61,3.41,9.87,5.8,14.71,8.85c-0.87,1.59-1.73,3.18-2.57,4.79c-4.94-2.87-9.76-5.98-14.9-8.47
		c-9.57,0.23-19.12,1.61-28.71,1.95c1.05-1.83,2.12-3.63,3.21-5.43c7.58-0.38,15.14-0.9,22.73-1.17
		C1151.4,669.59,1148.03,662.83,1144.71,656.05 M746.73,697.63c14.33-4.22,28.74-8.21,43.13-12.19c1.03,1.64,2.16,3.21,3.3,4.77
		c-7.41,12.88-15.67,25.28-22.63,38.42c-0.34-2.3-2.2-3.78-3.52-5.52c2.42-3.73,5.07-7.33,7.1-11.3
		c-3.61-4.37-7.07-8.86-10.55-13.33c-4.23,1.25-8.42,2.58-12.65,3.83C749.58,700.69,748.25,699.06,746.73,697.63 M788.1,690.53
		c-6.63,2.48-13.49,4.26-20.16,6.61c3.2,3.42,5.61,7.49,8.83,10.89C780.43,702.12,783.56,695.84,788.1,690.53 M1123.73,691.07
		c10.83,8.33,21.58,16.78,32.31,25.24c-1.1,1.39-2.19,2.78-3.28,4.18c-10.88-8.28-21.62-16.75-32.33-25.24
		C1121.53,693.86,1122.63,692.47,1123.73,691.07 M1104.04,709.97c6.11-4.33,14.52-2.43,19.95,2.12
		c5.63,4.66,10.96,11.23,10.61,18.95c0.02,4.58-3.11,8.27-6.05,11.46c-3.74,3.61-7.61,7.08-11.17,10.88
		c-9.66-9.65-18.89-19.74-28.58-29.37C1093.9,719.36,1098.39,713.96,1104.04,709.97 M1096.05,723.69
		c7.48,7.27,14.35,15.16,21.92,22.34c3.27-3.43,7.07-6.39,9.89-10.22c2.76-4.35,1.14-10.06-1.92-13.82
		c-3.75-4.63-8.79-9.21-15.06-9.41C1104.47,713.75,1100.68,719.68,1096.05,723.69 M782.63,740.63c8.83-10.43,17.7-20.81,26.3-31.42
		c1.9,1.51,3.79,3.03,5.61,4.65c-4.35,11.55-8.56,23.16-13.39,34.52c10.64-6.26,21.07-12.85,31.62-19.26
		c2.03,1.81,4.11,3.56,6.2,5.3c-8.88,10.26-17.43,20.81-26.21,31.16c-1.39-1.05-2.77-2.1-4.14-3.16
		c7.51-8.93,14.98-17.91,22.55-26.79c-10.57,6.26-20.97,12.79-31.54,19.05c-1.24-0.94-2.46-1.92-3.69-2.84
		c3.83-11.51,8.68-22.64,12.73-34.07c-7.27,8.77-14.58,17.51-22,26.14C785.32,742.81,783.98,741.72,782.63,740.63 M1054.86,745.93
		c8.76-5.15,17.34-10.61,25.86-16.14c0.91,1.38,1.85,2.76,2.77,4.16c-7.28,4.15-14.11,9.04-21.44,13.1
		c2.23,4.16,5.21,7.87,7.39,12.07c6.3-4.2,12.91-7.91,19.21-12.1c0.84,1.37,1.66,2.76,2.52,4.14c-6.43,3.94-12.71,8.11-19.2,11.94
		c2.26,3.53,4.5,7.07,6.8,10.57c6.9-4.13,13.63-8.53,20.48-12.72c0.86,1.39,1.7,2.79,2.5,4.23c-8.45,4.98-16.66,10.35-24.99,15.52
		C1069.32,769.19,1062.2,757.49,1054.86,745.93 M823.08,772.54c11.33-9.47,22.31-19.34,33.61-28.84c1.71,0.88,3.41,1.78,5.1,2.72
		c-1.44,14.49-3.05,28.97-4.44,43.46c-1.74-0.81-3.46-1.64-5.19-2.46c0.48-4.41,1.15-8.81,1.61-13.22
		c-5.04-2.57-10.17-4.95-15.13-7.67c-3.42,2.84-6.72,5.81-9.94,8.88C826.82,774.46,824.94,773.51,823.08,772.54 M841.97,763.21
		c4.15,2.19,8.29,4.4,12.45,6.57c1.04-6.95,1.22-14.05,3.03-20.87C852.47,753.85,847.39,758.73,841.97,763.21 M882.42,757.57
		c1.79,0.54,3.58,1.06,5.38,1.57c3.72,12.32,7.93,24.5,11.54,36.85c3.04-10.35,6.12-20.69,9.12-31.06c1.64,0.54,3.27,1.09,4.92,1.65
		c-4.04,12.97-7.41,26.14-11.26,39.17c-1.79-0.49-3.58-0.98-5.35-1.47c-4.1-12.22-7.75-24.59-11.88-36.8
		c-2.81,10.29-5.94,20.49-8.79,30.76c-1.65-0.44-3.29-0.88-4.93-1.3C874.72,783.76,878.57,770.66,882.42,757.57 M1025.49,758.3
		c1.61-0.69,3.19-1.43,4.79-2.15c4.9,10.86,9.47,21.87,14,32.89c6.59-1.61,12.51-5.13,18.82-7.55c0.59,1.53,1.19,3.06,1.76,4.62
		c-7.91,3.01-15.55,6.64-23.38,9.81C1036.03,783.43,1030.72,770.88,1025.49,758.3 M984.31,769.41c9.9-2.2,19.56-5.33,29.51-7.31
		c0.38,1.51,0.77,3.02,1.16,4.54c-7.93,2.31-16.13,3.71-23.99,6.21c0.67,4.51,2.09,8.86,3.01,13.33c7.47-1.42,14.71-3.82,22.14-5.43
		c0.34,1.61,0.65,3.22,0.98,4.84c-7.32,1.68-14.6,3.57-21.92,5.24c0.99,4.07,1.94,8.15,3.09,12.18c7.84-1.72,15.57-3.91,23.39-5.69
		c0.36,1.58,0.75,3.19,1.12,4.78c-9.58,2.26-19.14,4.66-28.74,6.85C991.03,795.71,987.39,782.63,984.31,769.41 M944.82,769.76
		c6.68,0.29,13.41-0.21,20.04,0.73c5.53,0.77,9.97,6.55,8.61,12.11c-0.44,3.04-3.03,4.96-5.3,6.69c2.16,1.18,4.73,2.2,5.81,4.61
		c3.42,5.9,0.25,14.48-6.56,16.1h-23.27C944.36,796.59,944.69,783.18,944.82,769.76 M950.32,774.67c-0.11,4.16-0.23,8.33-0.19,12.5
		c4.65-0.13,9.36,0.5,13.97-0.33c5.38-0.8,5.69-9.88,0.57-11.27C959.99,774.3,955.11,774.68,950.32,774.67 M949.9,791.78
		c0.03,4.71-0.1,9.41-0.21,14.12c5.04,0.04,10.13,0.54,15.14-0.1c5.89-1.22,6.57-10.49,1.08-12.81
		C960.79,791.33,955.21,792.07,949.9,791.78L949.9,791.78z"/>
	<path style="fill:#D90E13;" d="M901.39,562.93l1.03,0.98c-2.97,5.72-7.79,10.2-10.67,15.98c6.45-1.24,13.01-2.57,18.82-5.76
		c2.79-1.41,5.34-3.47,8.49-4c3.65-0.54,7.38-0.61,11.04-0.19c3.3,0.32,5.96,2.48,8.77,4.03c2.89,1.76,6.14,2.83,9.08,4.5l0.43,1.04
		c-2.89,12.07-6.44,24.18-12.76,34.96c-0.48,1.32-1.88,2.68-1.31,4.15c2.84,1.81,5.9,3.26,8.59,5.31c-3.85-0.2-8.1-0.54-10.88-3.58
		c-5.47-1.18-9.35,3.95-14.59,4.04c2.59-2.88,5.86-5.22,9.67-6.11c3.34-0.92,4.49-4.55,6.08-7.23c6.53-9.68,9.67-21.2,11.74-32.56
		c-4.73-1.77-9.5-3.63-13.51-6.78c-3.33-1.12-7.01-0.87-10.45-0.37c-5.52,0.71-9.63,4.96-14.84,6.59
		c-6.03,1.9-12.17,3.89-18.55,4.02C891.2,574.91,897.3,569.64,901.39,562.93L901.39,562.93z"/>
	<path style="fill:#060378;" d="M1061.48,569.92c24.99-0.09,49.98-0.05,74.97-0.01c-0.07,11.35-0.04,22.71-0.02,34.07
		c0.18,5.63-1.45,11.08-1.99,16.65c-31.47,0.07-62.95,0.03-94.42,0.01c7.74-9.63,13.05-20.92,17.34-32.44
		c0.42,6.7-3.64,12.22-5.87,18.22c-1.52,4.34-4.76,7.73-6.8,11.8c4.13,0.28,8.25-0.12,12.38-0.26c14.97,0.99,29.99,0.33,44.99,0.51
		c8.48,0.22,17.02-0.67,25.42,0.83c1.99,0.31,5.11,0.36,5.55-2.19c2.3-8.5,1.71-17.42,1.74-26.13c0-6.43,0.34-12.88-0.51-19.26
		c-3.42-0.34-6.84-0.54-10.27-0.41c-20.37,0.53-40.76-0.4-61.12,0.4c-0.74,3.9-1.17,8.07-3.82,11.25
		C1059.78,578.6,1060.91,574.31,1061.48,569.92L1061.48,569.92z"/>
	<path style="fill:#E70A0A;" d="M964.92,586.48c3.2-0.82,6.46-0.12,9.67,0.17c0.27,4.5,0.79,8.99,1.15,13.5l-1.29,0.7l-0.51,0.28
		l-0.57-0.18c-0.74-2.48-0.47-5.31-2.08-7.48c-1.33-1.86-2.54-3.84-2.74-6.17c-1.55-0.16-3.09-0.35-4.63-0.57L964.92,586.48
		L964.92,586.48z"/>
	<path style="fill:#CA111F;" d="M973.94,601.13l0.51-0.28l1.51-0.79c0.31,3.94,0.83,7.86,1.52,11.75c-1.09,1.38-2.17,2.76-3.29,4.12
		c0.14-4.73-0.85-9.43-0.57-14.15L973.94,601.13 M968.92,619.97c2.84-0.71,5.74-0.09,8.58,0.3c-1.45,0.44-2.88,0.87-4.32,1.32
		c-2.13,0.73-4.25,1.48-6.43,2.03c-0.23-0.4-0.68-1.19-0.9-1.59C966.83,621.28,967.86,620.6,968.92,619.97L968.92,619.97z"/>
	<path style="fill:#F70500;" d="M974.19,615.93c1.12-1.36,2.2-2.74,3.29-4.12c0.36,1.45,0.75,2.89,1.13,4.34
		c1.11,0.91,2.21,1.82,3.31,2.75c-0.71,0.33-2.14,0.99-2.85,1.32c1.09,0.43,2.18,0.86,3.28,1.3c-3.05-0.21-6.12-0.3-9.17,0.07
		c1.44-0.45,2.87-0.88,4.32-1.32c-2.84-0.39-5.74-1.01-8.58-0.3l-0.91,0.18C970.53,619.53,972.73,618.08,974.19,615.93
		L974.19,615.93z"/>
	<path style="fill:#A70F2C;" d="M981.92,618.9c2.81,1.59,5.72,2.98,8.78,4.01c-0.01,0.39-0.04,1.16-0.05,1.54
		c-1.22,0.01-2.45,0.03-3.66,0.03c-0.91-1.78-2.97-2.21-4.64-2.96c-1.1-0.44-2.19-0.87-3.28-1.3
		C979.78,619.89,981.21,619.23,981.92,618.9L981.92,618.9z"/>
	<path style="fill:#B1646D;" d="M963.32,624.86c-0.52-1.33,1.29-2.79,2.53-2.83c0.22,0.4,0.67,1.19,0.9,1.59
		C966.15,624.7,964.48,625.34,963.32,624.86L963.32,624.86z"/>
	<path style="fill:#0A0963;" d="M786.89,629.91c29.06,0.13,58.12-0.01,87.18,0.07c2.09-0.16,3.14,2.05,4.51,3.23
		c-3.72-1.25-7.6-2.01-11.53-2.01c-23.34-0.04-46.68,0.34-70.02-0.03c-3.29-0.04-6.57,0.3-9.83,0.76
		C787.12,631.43,786.97,630.42,786.89,629.91L786.89,629.91z"/>
	<path style="fill:#080808;" d="M930.35,642.46c2.76-1.16,3.9-4.79,7.17-4.71c0.01,5.58,0.01,11.17-0.01,16.75
		c-0.77,0.01-2.33,0.01-3.1,0.02c0-3.82,0.01-7.63,0.02-11.44c-1.32,0.69-2.63,1.4-3.94,2.09
		C930.46,644.5,930.39,643.14,930.35,642.46L930.35,642.46z"/>
	<path style="fill:#070707;" d="M943.94,638.77c2.4-0.84,5.62-1.47,7.49,0.73c1.7,1.73,1.14,4.69-0.77,6.04
		c1.76,1.58,3.06,4.03,1.85,6.37c-1.7,4.4-9.55,3.75-10.27-1.02c-0.56-2.14,0.84-3.84,2.11-5.36c-1.58-0.96-1.75-2.72-1.98-4.37
		C942.76,640.56,943.55,639.37,943.94,638.77 M945.45,642.16c-0.6,2.31,2.01,2.55,3.61,2.23c0.18-0.61,0.53-1.83,0.7-2.43
		C948.82,640.33,945.66,639.72,945.45,642.16 M946.17,647.23c-1.65,1.56-1.02,5.39,1.64,5.12
		C951.47,651.96,949.84,645.21,946.17,647.23L946.17,647.23z"/>
	<path style="fill:#010302;" d="M954.8,638.38c3.65-0.1,7.31-0.07,10.96-0.04c-0.01,0.54-0.03,1.6-0.04,2.14
		c-3.46,3.83-5.32,8.85-5.64,13.97c-1,0.02-1.98,0.05-2.97,0.09c0.23-4.82,2.12-9.34,4.86-13.26c-2.34-0.03-4.67-0.03-6.99-0.02
		C954.92,640.29,954.86,639.34,954.8,638.38L954.8,638.38z"/>
	<path style="fill:#000100;" d="M967.74,638.37c3.56-0.07,7.13-0.06,10.69-0.02c-0.01,0.54-0.04,1.63-0.05,2.17
		c-3.3,3.96-5.2,8.9-5.55,14.04c-0.77-0.03-2.33-0.07-3.1-0.09c0.24-4.88,2.41-9.26,5.01-13.28c-2.34,0.05-4.68,0.06-7.02,0.05
		C967.73,640.28,967.73,639.32,967.74,638.37L967.74,638.37z"/>
	<path style="fill:#FDFDFD;" d="M945.45,642.16c0.21-2.44,3.37-1.83,4.31-0.2c-0.17,0.6-0.52,1.82-0.7,2.43
		C947.46,644.71,944.85,644.47,945.45,642.16L945.45,642.16z"/>
	<path style="fill:#03027D;" d="M902.74,652.24c0.57-0.04,1.7-0.12,2.27-0.16c13.84,6.35,28.75,10.78,44.06,11.26
		c12.98,0.73,25.9-1.48,38.32-5.09c-2.73,2.44-6.18,3.63-9.76,4.08c0.22,0.37,0.67,1.11,0.89,1.48c-5.68-0.17-11.43-0.11-16.93,1.48
		c-9.26,2.57-18.43-1.47-27.66-1.97c-5.71-0.23-11-2.51-16.53-3.66C911.93,658.52,907.45,655.02,902.74,652.24L902.74,652.24z"/>
	<path style="fill:#010101;" d="M1113.39,690.19c1.27-1.62,2.47-3.3,3.83-4.86c1.78,1.04,3.27,2.49,4.91,3.74
		c-1.26,1.61-2.51,3.23-3.69,4.9C1116.77,692.68,1115.07,691.45,1113.39,690.19L1113.39,690.19z"/>
	<path style="fill:#C6C8FF;" d="M834.54,707.81c2.14-0.36,4.29-0.66,6.47-0.71c75-0.07,150.01,0.01,225.01-0.02
		c4.9-0.04,9.85-0.28,14.69,0.69c-24.55,0.48-49.11,0.08-73.67,0.21C949.54,707.87,892.03,708.2,834.54,707.81L834.54,707.81z"/>
</g>
</svg>
