<?xml version="1.0" encoding="UTF-8"?>
<svg id="Layer_2" data-name="Layer 2" xmlns="http://www.w3.org/2000/svg" viewBox="0 0 499.02 539">
  <defs>
    <style>
      .cls-1 {
        fill: #070707;
      }

      .cls-2 {
        fill: #df080e;
      }

      .cls-3 {
        fill: #010101;
      }

      .cls-4 {
        fill: #cfcafe;
      }

      .cls-5 {
        fill: #060369;
      }

      .cls-6 {
        fill: #8384d4;
      }

      .cls-7 {
        fill: #0a0963;
      }

      .cls-8 {
        fill: #f50400;
      }

      .cls-9 {
        fill: #fd0100;
      }

      .cls-10 {
        fill: #07066b;
      }

      .cls-11 {
        fill: #f70402;
      }

      .cls-12 {
        fill: #f80300;
      }

      .cls-13 {
        fill: #e70a0a;
      }

      .cls-14 {
        fill: #f70400;
      }

      .cls-15 {
        fill: #f80302;
      }

      .cls-16 {
        fill: #c9caff;
      }

      .cls-17 {
        fill: #080571;
      }

      .cls-18 {
        fill: #afb0e0;
      }

      .cls-19 {
        fill: #a70f2c;
      }

      .cls-20 {
        fill: #f80402;
      }

      .cls-21 {
        fill: #b1646d;
      }

      .cls-22 {
        fill: #fff;
      }

      .cls-23 {
        fill: #e9070b;
      }

      .cls-24 {
        fill: #d90e13;
      }

      .cls-25 {
        fill: #000100;
      }

      .cls-26 {
        fill: #010302;
      }

      .cls-27 {
        fill: #0a086f;
      }

      .cls-28 {
        fill: #080808;
      }

      .cls-29 {
        fill: #c6c8ff;
      }

      .cls-30 {
        fill: #000094;
      }

      .cls-31 {
        fill: #f70500;
      }

      .cls-32 {
        fill: #f40501;
      }

      .cls-33 {
        fill: #080a71;
      }

      .cls-34 {
        fill: #f90302;
      }

      .cls-35 {
        fill: #06046b;
      }

      .cls-36 {
        fill: #060378;
      }

      .cls-37 {
        fill: #b7b9f2;
      }

      .cls-38 {
        fill: #ca111f;
      }

      .cls-39 {
        fill: #03027d;
      }

      .cls-40 {
        fill: #fdfdfd;
      }
    </style>
  </defs>
  <g id="Layer_1-2" data-name="Layer 1">
    <g>
      <path class="cls-22" d="M236.17,376.23c3.67-2.02,5.3,4.73,1.64,5.12-2.66.27-3.29-3.56-1.64-5.12h0Z"/>
      <path class="cls-30" d="M247.24,0h.55c3,1.43,6.41,1.64,9.45,2.98,4.88,2,8.84,5.94,11.02,10.73,4.34,8.89,1.92,20.54-5.73,26.84-4.43,3.4-9.95,5.68-15.61,5.27-10.63-.45-20.21-9.21-21.25-19.86-1.12-8.51,3.3-17.29,10.58-21.72,3.39-2.07,7.49-2.41,10.99-4.24M293.06,7.99c5.07-5.47,12.89-7.79,20.2-6.71,3.7,3.27,8.88,4.55,12.07,8.44,1.68,2.75,3.15,5.62,4.7,8.45.86,4.08.37,8.35.67,12.51-3.81,12.04-19.07,18.99-30.45,13.04-7.51-3.06-12.51-10.72-13.24-18.67-.57-6.24,1.98-12.42,6.05-17.06M181.33,2.44c5.43-1.38,11.25-.38,16.17,2.2,7.82,4.33,12.53,13.61,11.2,22.49-1.08,11.43-12.39,20.47-23.72,19.53-10.67-.62-20.3-9.74-20.87-20.53-1.17-10.74,6.63-21.51,17.22-23.69M355.86,11.74c9.26.13,18.52.1,27.79.01.99,9.72-1.53,19.36-3.69,28.76,1.44-.63,2.85-1.32,4.24-2.06-.89,1.12-1.79,2.23-2.67,3.36,6.59-2.15,8.52-9.33,11.35-14.87,2.17-4.19,2.21-9.29,4.88-13.21,2.26-1.08,4.87-.86,7.32-.95,6.24.16,12.49-.11,18.74.19,2.37,7.8,1.2,16,1.06,23.99-.31,65.2-.14,130.4-.47,195.6-27.96-.02-55.92.07-83.88-.04-5.41-10.14-11.74-19.92-20.01-27.98-18.44-18.91-44.38-29.24-70.44-31.49-13.94-1.65-28.11.94-41.16,5.9-19.53,6.61-37.03,18.98-49.95,35.04-1.26,1.53-2.28,3.29-3.76,4.63-2.54,1.65-4.74,3.8-6.09,6.54-1.89,2.9-3.23,7.2-7.23,7.61-8.61,1-17.29-.22-25.93.22-12-.13-23.99.28-35.99.1-2.77-.16-6.51-.18-7.8-3.18-1-4.9.05-9.94-.04-14.9.02-38.36-.31-76.72.01-115.08-.13-8.64-.4-17.28-.08-25.91.18-19.95-.49-39.9.24-59.85,7.76-1.78,15.85-2.25,23.74-1.15,5.69.57,4.36,7.89,7.86,11.07,3.06,7.04,6.67,14.43,13.51,18.56-.71-4.02-1.81-8-2-12.09.55-5.9-.31-11.97,1.52-17.71,8.2-.42,16.44-.46,24.64.03,1.65,8.12,3.85,16.36,8.12,23.53.03-.58.1-1.73.13-2.31,5.72,10.68,15.17,20.18,27.45,22.51,14.81,3.06,29.49-2.55,42.57-9.02,1.68,3.86,3.62,7.85,7.14,10.36,4.68,3.38,10.68,3.46,16.14,4.53,8.3.59,17.61,1.47,24.85-3.49,5.17-3.16,6.75-9.35,9.7-14.27,4.13,6.19,10.59,10.84,17.83,12.64,8.17,2.25,16.84,1.7,25.05-.03,11.58-1.94,20-11.41,25.82-20.96,1.08-1.38,2.01-2.89,2.54-4.56,2.8-6.52,4.97-13.26,6.95-20.07M359.78,59.76c-.76,1.32-.81,2.89-1.12,4.35l-.07.05c-.6.01-1.81.01-2.42.01-4.77,2.19-9.24,5.05-14.16,6.9-5.11,1.12-10.85.71-15.45,3.45-.84,3.06.19,6.34.06,9.49-.02,20.01.05,40.03-.07,60.04.13,2.83-.79,6.19,1.49,8.43l-.02.71c.71,1.08,1.7,1.58,2.98,1.49,9.21-.28,18.44-.53,27.65-.06,2.17.12,4.3-.3,6.42-.7.2-1.61.36-3.23.46-4.85-.26-26.01-.03-52.04-.16-78.06-.17-3.9,1.05-7.98-.58-11.71-1.66.17-3.47-.24-5.01.46M133.17,59.78l.02.83c-.24.39-.7,1.17-.94,1.56.06,29.26-.03,58.58.04,87.86,0,1.88.45,3.71.95,5.51,11.73-1.83,23.67-.76,35.47-.21.05-.52.14-1.55.18-2.06.04-26.18.01-52.36,0-78.53-13.24-.34-26.05-6-35.72-14.96M209.39,63.79c-5.52,2.46-9.17,7.57-11.67,12.9-.16,3.13.81,6.21.73,9.36-.05,16.99-.06,33.99.01,50.99.06,4.99-1.33,9.9-.97,14.89-.05,1.43,1.24,2.65,2.65,2.62,8.44.56,16.93-.28,25.38.29.06,1.03.13,2.06.2,3.1,1.68-.67,3.11-1.79,4.38-3.05,1.58-.16,3.16-.28,4.75-.41l-.06-.91h1.3c.08-25.87.18-51.77-.05-77.65-3.17-5.77-8.58-10.36-14.9-12.33-.75-.66-.97-2.46-2.23-2.2-3.16.84-6.29,1.83-9.52,2.4M266.68,67.68c-2.59,3.05-5.15,6.21-7.09,9.72.02,2.89.73,5.74.73,8.64.09,17.98,0,35.96.08,53.94-.04,3.63.36,7.3-.31,10.89-.91.7-1.85,1.36-2.81,1.98.24.61.48,1.21.73,1.82,1.12-.27,2.25-.54,3.37-.8l.08,1.13-.72.84c12.03.99,24.14-.22,36.17.79.01-.46.03-1.38.03-1.84h.94v-.37c1.85-.71,1.27-2.89,1.47-4.39-.01-24.08-.29-48.18.15-72.25-.42-.23-1.27-.68-1.7-.91-1.86-2.47-4.07-4.64-6.04-7.02l1.21.62c-5.27-8.92-18.91-9.05-26.29-2.79M70.44,238.76c8.51.42,17.02.1,25.53.19,15.98-.1,31.96.24,47.93-.17-6.88,15.95-9.87,33.56-8.98,50.89-21.5-.04-43,.06-64.5-.05,0-16.95-.05-33.91.02-50.86M346.71,240.47c26.04-.15,52.08-.04,78.12-.07.37,7.88-.11,15.77.06,23.65-.19,7.83.5,15.68-.22,23.5-8.53.89-17.11.53-25.66.62-11.32-.07-22.65.14-33.97-.22-2.13-.02-4.24.22-6.33.55,19.43.72,38.9.18,58.34.28,3.14.09,6.26.49,9.38.89-24.51-.02-49.02.01-73.53-.01,1.74-.26,3.49-.52,5.24-.77-1.26-.55-2.53-1.1-3.78-1.64-.5-3.74-.94-7.53-.52-11.3.2-2.88.87-5.86-.07-8.68-2.02-6.28-3.62-12.69-4.51-19.23-.37.5-1.12,1.5-1.49,2-.8-2.19-1.62-4.39-2.42-6.58.34-.75,1.02-2.24,1.36-2.99M351.55,264.14c1.39,1.52,1.54,3.61.8,5.48l-.34.08c-.77-1.62-1.17-3.87-.46-5.56M70.47,298.84c21.87.11,43.74-.05,65.61.07.83,6.61,2.51,13.07,4.53,19.4-.72.88-1.43,1.77-2.14,2.67,2.57,3.96,3.92,9.26,8.14,11.83l.27.16c2.86,5.93,6.62,11.35,10.43,16.69-28.07-.02-56.14.07-84.21-.04-.79-4.89-2.85-9.59-2.71-14.6.09-12.06-.07-24.13.08-36.18M352.87,300.71c20.36-.8,40.75.13,61.12-.4,3.43-.13,6.85.07,10.27.41.85,6.38.51,12.83.51,19.26-.03,8.71.56,17.63-1.74,26.13-.44,2.55-3.56,2.5-5.55,2.19-8.4-1.5-16.94-.61-25.42-.83-15-.18-30.02.48-44.99-.51-4.13.14-8.25.54-12.38.26,2.04-4.07,5.28-7.46,6.8-11.8,2.23-6,6.29-11.52,5.87-18.22.32-1.81.76-3.64,1.69-5.24,2.65-3.18,3.08-7.35,3.82-11.25M277.39,387.25c16.32-5.85,31.91-14.76,43.73-27.62,2.27.43,4.57.74,6.89.79,27.35-.05,54.7-.17,82.05-.07,2.95.03,5.87.52,8.77,1.07-3.07,11.02-10.36,20.26-13.22,31.36-1.95,3.73-4.03,7.49-6.69,10.77-6.94,4.27-9.93,12.2-15.73,17.62-2.19,2.24-4.75,4.7-8.15,4.45-54.35-.25-108.7-.03-163.05-.12-33.22.12-66.44-.18-99.66.16h-.03c-7.68-9.48-14.76-19.44-21.2-29.79-6.19-10.9-12.53-22.24-13.9-34.94,3.26-.46,6.54-.8,9.83-.76,23.34.37,46.68-.01,70.02.03,3.93,0,7.81.76,11.53,2.01,7.89,7.48,16.91,13.63,26.43,18.87-.57.04-1.7.12-2.27.16,4.71,2.78,9.19,6.28,14.66,7.42,5.53,1.15,10.82,3.43,16.53,3.66,9.23.5,18.4,4.54,27.66,1.97,5.5-1.59,11.25-1.65,16.93-1.48-.22-.37-.67-1.11-.89-1.48,3.58-.45,7.03-1.64,9.76-4.08M127.9,438.46c8.36-.33,16.73-.24,25.1-.14,71.38-.06,142.76.12,214.13-.12-5.78,6.17-13.92,9.71-18.85,16.69-15.19,10.85-32.27,19.46-50.54,23.67-27.55,4.99-55.92,7.29-83.75,3.39-14.74-1.91-28.74-7.45-41.93-14.07.58.04,1.74.11,2.32.15-3.03-1.77-6.06-3.52-9.04-5.36-6.22-3.87-14.11-5.2-18.95-11.11-1.23.21-2.46.41-3.69.62-.6-.5-1.2-.99-1.79-1.48-.28-2.28-2.49-3.32-4.09-4.58-3.29-2.17-6.26-4.77-8.92-7.66h0Z"/>
      <path class="cls-35" d="M313.26,1.28c13.2,1.84,22.33,16.9,17.44,29.4-.3-4.16.19-8.43-.67-12.51-1.55-2.83-3.02-5.7-4.7-8.45-3.19-3.89-8.37-5.17-12.07-8.44M397.02,11.79c9.75.45,19.51.09,29.27.22-.15,36.76-.46,73.52-.16,110.28.02,36.77-.34,73.54-.3,110.32l-1.42-.05c.33-65.2.16-130.4.47-195.6.14-7.99,1.31-16.19-1.06-23.99-6.25-.3-12.5-.03-18.74-.19-2.45.09-5.06-.13-7.32.95-2.67,3.92-2.71,9.02-4.88,13.21-2.83,5.54-4.76,12.72-11.35,14.87.88-1.13,1.78-2.24,2.67-3.36,2-2.47,3.84-5.08,5.39-7.85,3.23-5.97,4.27-12.82,7.43-18.81M359.78,59.76c1.54-.7,3.35-.29,5.01-.46,1.63,3.73.41,7.81.58,11.71.13,26.02-.1,52.05.16,78.06-.1,1.62-.26,3.24-.46,4.85-2.12.4-4.25.82-6.42.7-9.21-.47-18.44-.22-27.65.06-1.28.09-2.27-.41-2.98-1.49,11.59-.23,23.19-.11,34.79-.07l1.2.02c0-31.21-.01-62.42,0-93.63-.31.29-.93.89-1.25,1.18-1.31,1.2-2.68,2.34-4.1,3.42.31-1.46.36-3.03,1.12-4.35M209.39,63.79c3.23-.57,6.36-1.56,9.52-2.4,1.26-.26,1.48,1.54,2.23,2.2-8.95-1.6-17.16,4.91-21.21,12.36-.44,25.87-.05,51.77-.19,77.64,11.68-.05,23.36-.03,35.05-.02l.06.91c-1.59.13-3.17.25-4.75.41-1.27,1.26-2.7,2.38-4.38,3.05-.07-1.04-.14-2.07-.2-3.1-8.45-.57-16.94.27-25.38-.29-1.41.03-2.7-1.19-2.65-2.62-.36-4.99,1.03-9.9.97-14.89-.07-17-.06-34-.01-50.99.08-3.15-.89-6.23-.73-9.36,2.5-5.33,6.15-10.44,11.67-12.9M266.68,67.68c7.38-6.26,21.02-6.13,26.29,2.79l-1.21-.62c-4.64-3.97-11.16-6.83-17.22-4.41-5.84,1.87-9.76,6.75-13.27,11.48.06,25.65-.16,51.3.11,76.95-1.12.26-2.25.53-3.37.8-.25-.61-.49-1.21-.73-1.82.96-.62,1.9-1.28,2.81-1.98.67-3.59.27-7.26.31-10.89-.08-17.98.01-35.96-.08-53.94,0-2.9-.71-5.75-.73-8.64,1.94-3.51,4.5-6.67,7.09-9.72M342.01,71.07c4.92-1.85,9.39-4.71,14.16-6.9.61,0,1.82,0,2.42-.01-5.55,4.04-11.92,6.86-18.47,8.82-1.88-.5-3.87-.19-5.37,1.07-2.21.19-4.42.35-6.62.53-.09,25.97.1,51.93-.09,77.9-2.28-2.24-1.36-5.6-1.49-8.43.12-20.01.05-40.03.07-60.04.13-3.15-.9-6.43-.06-9.49,4.6-2.74,10.34-2.33,15.45-3.45M140.61,318.31c1.56,5.01,3.89,9.71,6,14.5-4.22-2.57-5.57-7.87-8.14-11.83.71-.9,1.42-1.79,2.14-2.67M321.12,359.63c2.86-1.07,5.97-.58,8.95-.67,30.45-.02,60.89.04,91.33-.04-3.14,10.02-7.82,19.45-12.65,28.74-.88,1.8-1.83,3.58-3.14,5.12,2.86-11.1,10.15-20.34,13.22-31.36-2.9-.55-5.82-1.04-8.77-1.07-27.35-.1-54.7.02-82.05.07-2.32-.05-4.62-.36-6.89-.79M383.19,421.17c5.8-5.42,8.79-13.35,15.73-17.62-5.56,8.35-11.75,16.49-19.15,23.27-84.58.17-169.18.03-253.76.07-4.26-.2-8.6.39-12.8-.28l-.88-.95c33.22-.34,66.44-.04,99.66-.16,54.35.09,108.7-.13,163.05.12,3.4.25,5.96-2.21,8.15-4.45M124.54,436.81c57.49.39,115,.06,172.5.17,24.56-.13,49.12.27,73.67-.21-6.88,6.72-14.45,12.77-22.43,18.12,4.93-6.98,13.07-10.52,18.85-16.69-71.37.24-142.75.06-214.13.12-8.37-.1-16.74-.19-25.1.14,2.66,2.89,5.63,5.49,8.92,7.66,1.6,1.26,3.81,2.3,4.09,4.58-6.07-3.84-11.86-8.25-16.37-13.89M142.7,452.18c1.23-.21,2.46-.41,3.69-.62,4.84,5.91,12.73,7.24,18.95,11.11,2.98,1.84,6.01,3.59,9.04,5.36-.58-.04-1.74-.11-2.32-.15-10.33-4.12-19.9-9.91-29.36-15.7h0Z"/>
      <path class="cls-27" d="M71.07,11.14c9.77,0,19.55,0,29.33.01,1.01,4.36,2.3,8.64,3.5,12.94-3.5-3.18-2.17-10.5-7.86-11.07-7.89-1.1-15.98-.63-23.74,1.15-.73,19.95-.06,39.9-.24,59.85-.32,8.63-.05,17.27.08,25.91-.32,38.36.01,76.72-.01,115.08.09,4.96-.96,10,.04,14.9,1.29,3,5.03,3.02,7.8,3.18,12,.18,23.99-.23,35.99-.1,8.64-.44,17.32.78,25.93-.22,4-.41,5.34-4.71,7.23-7.61,1.35-2.74,3.55-4.89,6.09-6.54-3.22,4.98-6.29,10.18-9.18,15.27-24.97.31-49.97.05-74.96.13.03-74.29.04-148.58,0-222.88M132.25,62.17c.24-.39.7-1.17.94-1.56.18,30.87.03,61.75.07,92.63,11.88-.03,23.75-.08,35.63.03-.04.51-.13,1.54-.18,2.06-11.8-.55-23.74-1.62-35.47.21-.5-1.8-.95-3.63-.95-5.51-.07-29.28.02-58.6-.04-87.86M349.26,248.04c.89,6.54,2.49,12.95,4.51,19.23.94,2.82.27,5.8.07,8.68-.42,3.77.02,7.56.52,11.3,1.25.54,2.52,1.09,3.78,1.64-1.75.25-3.5.51-5.24.77l-.43.06c.58-6.7-.49-13.46-.12-20.1.74-1.87.59-3.96-.8-5.48-1.88-4.47-2.07-9.52-3.78-14.1.37-.5,1.12-1.5,1.49-2h0Z"/>
      <path class="cls-33" d="M113.93,11.18c9.55-.1,19.09.01,28.64-.03,1.18,7.98,4.05,15.59,7.25,22.95-.03.58-.1,1.73-.13,2.31-4.27-7.17-6.47-15.41-8.12-23.53-8.2-.49-16.44-.45-24.64-.03-1.83,5.74-.97,11.81-1.52,17.71-1.13-6.4-1.27-12.9-1.48-19.38h0Z"/>
      <path class="cls-37" d="M397.02,11.79c5.93-.93,11.95-.39,17.93-.49,3.85.12,7.74-.32,11.58.21,1.12,6.76.31,13.68.5,20.5.06,20.66-.09,41.31-.18,61.96-.64,9.43.55,18.94-.72,28.32-.3-36.76.01-73.52.16-110.28-9.76-.13-19.52.23-29.27-.22h0Z"/>
      <path class="cls-18" d="M346.37,36.37c-1.09-1.56.58-5.02,2.54-4.56-.53,1.67-1.46,3.18-2.54,4.56h0Z"/>
      <path class="cls-16" d="M362.76,60.69c.32-.29.94-.89,1.25-1.18-.01,31.21,0,62.42,0,93.63l-1.2-.02c.64-24.04.11-48.09.3-72.14.1-6.76-.05-13.53-.35-20.29h0Z"/>
      <path class="cls-6" d="M334.75,74.05c1.5-1.26,3.49-1.57,5.37-1.07-1.49,1.31-3.5,1.67-5.37,1.07h0Z"/>
      <path class="cls-10" d="M297.8,76.87c.43.23,1.28.68,1.7.91-.44,24.07-.16,48.17-.15,72.25-.2,1.5.38,3.68-1.47,4.39-.13-25.85.02-51.7-.08-77.55h0Z"/>
      <path class="cls-5" d="M261.46,155c11.82-.44,23.66-.02,35.48-.21,0,.46-.02,1.38-.03,1.84-12.03-1.01-24.14.2-36.17-.79l.72-.84h0Z"/>
      <path class="cls-20" d="M235.98,190.98c1.32-5.59,8.18-9.19,13.35-6.23,3.61,2.04,5.54,6.35,5.12,10.43-1.55,2.68-3.22,5.82-6.46,6.68-6.36,2.48-13.99-4.26-12.01-10.88h0Z"/>
      <path class="cls-12" d="M219.29,195.35c5.56-2.65,12.81,2.64,12.42,8.69.38,6.63-8.19,11.82-13.75,7.95-6.8-3.26-5.86-14.42,1.33-16.64h0Z"/>
      <path class="cls-14" d="M264.26,195.2c4.53-1.81,10.17,1.3,11.45,5.94,1.66,4.32-.86,9.79-5.27,11.28-4.56,2.46-10.79-.75-12.31-5.51-1.81-4.71,1.29-10.43,6.13-11.71h0Z"/>
      <path class="cls-34" d="M241.26,207.22c4.34-2.13,10.19-.07,12.08,4.44,3.35,5.59-1.79,13.82-8.36,13.13-4.96.34-8.93-4.12-9.32-8.81-.14-3.69,2.33-7.21,5.6-8.76h0Z"/>
      <path class="cls-15" d="M262.94,219.04c5.31-2.7,12.31.88,13.05,6.82,1.73,7-6.64,13.27-12.98,9.92-7.09-2.69-6.92-13.84-.07-16.74h0Z"/>
      <path class="cls-8" d="M213.3,227.97c-.49-4.07,2.39-7.28,5.51-9.41,3.34-.5,7.1-.62,9.74,1.88,4.56,3.72,4.17,11.99-1.17,14.81-5.49,3.78-14.18-.47-14.08-7.28h0Z"/>
      <path class="cls-11" d="M242.28,229.45c6.46-2.29,13.2,4.16,12.07,10.64-1.14,3.74-4.32,7.19-8.39,7.45-5.68.7-11.21-4.94-10.21-10.62.8-3.31,3.34-6.25,6.53-7.47h0Z"/>
      <path class="cls-2" d="M299.21,233.09c2.66-3.7,8.23-2.33,11.11.38,2.02,1.76.76,4.82,2.36,6.82,1.81,2.69,3.55,5.44,5.12,8.28-3.51.97-6.41-1.35-7.48-4.56l.31-1.39c.01-2.98-.43-6.38-2.53-8.63-2.42-1.14-6.12-1.26-7.77,1.23-2.88,3.97-2.19,9.15-2.3,13.77.16,4.37-.51,8.69-1.34,12.97-1.21,6.27-.41,13.59-5.31,18.48,2.9-9.56,4.06-19.54,4.95-29.46.44-6-1.2-12.78,2.88-17.89h0Z"/>
      <path class="cls-9" d="M300.33,235.22c1.65-2.49,5.35-2.37,7.77-1.23,2.1,2.25,2.54,5.65,2.53,8.63-1.62-.44-3.27-.52-4.83.16-.97,7.69.37,15.44-.4,23.16-.94,7.88-2.3,15.99-6.53,22.86-5.71,9.32-13,18.1-22.8,23.29-3.58,1.79-7.44,3.35-11.48,3.56-3.21-.29-6.47-.99-9.67-.17-6.68.73-12.34-3.79-16.97-8.01-2.94-1.67-6.19-2.74-9.08-4.5-2.81-1.55-5.47-3.71-8.77-4.03-3.66-.42-7.39-.35-11.04.19-3.15.53-5.7,2.59-8.49,4-5.81,3.19-12.37,4.52-18.82,5.76,2.88-5.78,7.7-10.26,10.67-15.98,2.74-4.92,5.08-10.29,9.88-13.6,3.55,2.14,6.28,6.4,10.93,5.91,9.62.54,19.26-.29,28.75-1.83,5.04-.88,9.87-2.76,14.48-4.93,2.16-.58,2.87-3.57,1.48-5.21-2.67-1.8-5.76-2.9-8.39-4.8,10.34,1.9,17.77,11.27,28.31,12.32,3.07.55,5.04,3.55,8.09,4.09,2.85.3,3.94-2.58,5.43-4.42,4.9-4.89,4.1-12.21,5.31-18.48.83-4.28,1.5-8.6,1.34-12.97.11-4.62-.58-9.8,2.3-13.77h0Z"/>
      <path class="cls-4" d="M69.61,238.71c5.47-.79,11-.5,16.51-.51,14.64.03,29.29-.07,43.93-.02,4.62.09,9.3-.45,13.85.6-15.97.41-31.95.07-47.93.17-8.51-.09-17.02.23-25.53-.19l-.83-.05h0Z"/>
      <path class="cls-17" d="M343.48,238.84c27.65-.08,55.29.06,82.94-.07-.01,16.96-.03,33.93.01,50.9-3.12-.4-6.24-.8-9.38-.89-19.44-.1-38.91.44-58.34-.28,2.09-.33,4.2-.57,6.33-.55,11.32.36,22.65.15,33.97.22,8.55-.09,17.13.27,25.66-.62.72-7.82.03-15.67.22-23.5-.17-7.88.31-15.77-.06-23.65-26.04.03-52.08-.08-78.12.07-.34.75-1.02,2.24-1.36,2.99-.63-1.55-1.24-3.09-1.87-4.62h0Z"/>
      <path class="cls-23" d="M221,251.1c7.18.83,13,5.47,19.15,8.83,12.78,6.54,25.41,13.44,37.71,20.84-10.54-1.05-17.97-10.42-28.31-12.32,2.63,1.9,5.72,3,8.39,4.8,1.39,1.64.68,4.63-1.48,5.21-4.61,2.17-9.44,4.05-14.48,4.93-9.49,1.54-19.13,2.37-28.75,1.83l-.79-1.62c6.89.05,13.79-.03,20.62-.98,7.61-.37,15.16-2.03,22.02-5.42.55-.77,1.1-1.54,1.66-2.31-2.39-2.59-6.18-2.61-8.9-4.66-7.99-5.72-16.34-10.88-24.5-16.33-1.09-.65-1.96-1.58-2.34-2.8h0Z"/>
      <path class="cls-32" d="M177.57,259.59c.49-.04,1.47-.12,1.96-.16,10.29,8.61,20.66,17.4,32.62,23.61l.29.56.79,1.62c-4.65.49-7.38-3.77-10.93-5.91-4.8,3.31-7.14,8.68-9.88,13.6-1.64-1.48.13-3.21.07-4.89.12-1.71-1.06-3.13-1.78-4.58-4.06-6.72-8.53-13.2-12.46-20.01-.74-1.15-.54-2.56-.68-3.84h0Z"/>
      <path d="M450.33,286.15c2.04.04,4.09.08,6.15.14-.09,2.1-.17,4.2-.24,6.3-2.02-.06-4.04-.13-6.05-.17.03-2.1.09-4.18.14-6.27M0,289.27c13.61-.67,27.23-.97,40.85-1.45.02,1.84.04,3.67.05,5.51-4.61.07-9.21.29-13.82.42-2.21,2.27-4.48,4.5-6.46,6.98,7.07,4.5,14.12,9.06,21.08,13.73.1,2.39.17,4.79.25,7.19-8.19-5.83-16.57-11.37-24.88-17.02-5.35,5.87-10.71,11.74-15.92,17.72-.12-2.46-.2-4.93-.3-7.39,6.44-7,12.99-13.9,19.54-20.8-6.71-.05-13.41.36-20.11.54-.09-1.82-.19-3.62-.28-5.43M458.99,286.96c13.34.43,26.69.9,40.03,1.37v5.56c-13.37-.55-26.74-1.02-40.11-1.42.02-1.84.05-3.67.08-5.51M456.44,310.58c2.36-3.32,6.51-4.76,10.47-4.65-.02,1.74-.05,3.49-.07,5.24-2.51.32-5.39.68-6.85,3.04-2.41,3.76-2.82,8.81-1.27,12.98,1.22,3.27,5.88,4.24,8.36,1.83,4.05-6.1,4.2-14.2,9.46-19.62,4.24-4.38,12.21-3.39,15.75,1.42,4.11,4.9,3.61,11.92,2.04,17.72-1.66,6.34-8.02,11.12-14.65,10.39.04-1.73.07-3.45.09-5.17,2.8-.27,5.98-.69,7.74-3.18,3.13-4.2,3.96-10.21,2-15.07-1.5-3.74-7.11-4.99-9.66-1.63-4.16,5.93-4.28,14.15-9.69,19.32-5.15,4.82-14.56,1.66-16.34-5.01-1.61-5.84-1-12.62,2.62-17.61M3.45,332.71c14.58,1.96,29.1,4.35,43.68,6.28.49,1.98.95,3.97,1.38,5.97-12.05,8.11-23.78,16.68-35.77,24.87-.51-1.83-.99-3.65-1.47-5.47,3.53-2.61,7.33-4.82,10.93-7.32-1.32-5.59-2.72-11.15-4.07-16.73-4.43-.6-8.87-1.07-13.3-1.64-.44-1.99-.91-3.98-1.38-5.96M22.71,340.85c1.07,4.55,2.35,9.05,3.52,13.58,5.76-3.94,11.32-8.44,17.77-11.19-7.1-.77-14.2-1.5-21.29-2.39M447.82,343.44c1.59.43,3.15.89,4.74,1.35-2.34,8.13-5.61,15.96-7.73,24.15,4.51,1.09,8.84,2.77,13.23,4.26,2.22-7.19,4.65-14.32,6.84-21.52,1.55.42,3.11.86,4.67,1.31-2.15,7.28-4.85,14.37-7.04,21.63,4.01,1.25,8.01,2.52,11.99,3.87,2.62-7.61,4.98-15.3,7.43-22.96,1.54.51,3.1.98,4.62,1.57-3.01,9.36-6.26,18.64-9.12,28.05-13.02-4.25-26.02-8.5-39.06-12.69,3.43-9.58,6.43-19.3,9.43-29.02M16.12,383.73c12.4-5.76,24.74-11.66,37.19-17.32,2.12,4.65,4.17,9.33,6.48,13.89,1.69,3.7,3.72,7.49,3.65,11.67-.46,6.56-7.8,11.33-14.03,9.44-3.37-.81-5.44-3.8-7.4-6.4-.64,8.19-6.61,14.55-10.76,21.24-.9-2.05-1.81-4.09-2.65-6.17,3.21-5.52,7.46-10.48,9.74-16.5,1.59-4.56-1.89-8.54-3.36-12.6-5.5,2.49-11.02,4.95-16.47,7.55-.8-1.6-1.59-3.2-2.39-4.8M39.14,378.92c2.34,4.92,4.42,10.02,7.33,14.63,3.12,4.93,12.02,2.51,11.74-3.51-.77-6-4.53-11.12-6.62-16.72-4.21,1.73-8.31,3.71-12.45,5.6M434.71,385.05c1.07-1.87,2.14-3.74,3.19-5.62,4.46,8.29,8.01,17.08,12.74,25.22,4.61,3.41,9.87,5.8,14.71,8.85-.87,1.59-1.73,3.18-2.57,4.79-4.94-2.87-9.76-5.98-14.9-8.47-9.57.23-19.12,1.61-28.71,1.95,1.05-1.83,2.12-3.63,3.21-5.43,7.58-.38,15.14-.9,22.73-1.17-3.71-6.58-7.08-13.34-10.4-20.12M36.73,426.63c14.33-4.22,28.74-8.21,43.13-12.19,1.03,1.64,2.16,3.21,3.3,4.77-7.41,12.88-15.67,25.28-22.63,38.42-.34-2.3-2.2-3.78-3.52-5.52,2.42-3.73,5.07-7.33,7.1-11.3-3.61-4.37-7.07-8.86-10.55-13.33-4.23,1.25-8.42,2.58-12.65,3.83-1.33-1.62-2.66-3.25-4.18-4.68M78.1,419.53c-6.63,2.48-13.49,4.26-20.16,6.61,3.2,3.42,5.61,7.49,8.83,10.89,3.66-5.91,6.79-12.19,11.33-17.5M413.73,420.07c10.83,8.33,21.58,16.78,32.31,25.24-1.1,1.39-2.19,2.78-3.28,4.18-10.88-8.28-21.62-16.75-32.33-25.24,1.1-1.39,2.2-2.78,3.3-4.18M394.04,438.97c6.11-4.33,14.52-2.43,19.95,2.12,5.63,4.66,10.96,11.23,10.61,18.95.02,4.58-3.11,8.27-6.05,11.46-3.74,3.61-7.61,7.08-11.17,10.88-9.66-9.65-18.89-19.74-28.58-29.37,5.1-4.65,9.59-10.05,15.24-14.04M386.05,452.69c7.48,7.27,14.35,15.16,21.92,22.34,3.27-3.43,7.07-6.39,9.89-10.22,2.76-4.35,1.14-10.06-1.92-13.82-3.75-4.63-8.79-9.21-15.06-9.41-6.41,1.17-10.2,7.1-14.83,11.11M72.63,469.63c8.83-10.43,17.7-20.81,26.3-31.42,1.9,1.51,3.79,3.03,5.61,4.65-4.35,11.55-8.56,23.16-13.39,34.52,10.64-6.26,21.07-12.85,31.62-19.26,2.03,1.81,4.11,3.56,6.2,5.3-8.88,10.26-17.43,20.81-26.21,31.16-1.39-1.05-2.77-2.1-4.14-3.16,7.51-8.93,14.98-17.91,22.55-26.79-10.57,6.26-20.97,12.79-31.54,19.05-1.24-.94-2.46-1.92-3.69-2.84,3.83-11.51,8.68-22.64,12.73-34.07-7.27,8.77-14.58,17.51-22,26.14-1.35-1.1-2.69-2.19-4.04-3.28M344.86,474.93c8.76-5.15,17.34-10.61,25.86-16.14.91,1.38,1.85,2.76,2.77,4.16-7.28,4.15-14.11,9.04-21.44,13.1,2.23,4.16,5.21,7.87,7.39,12.07,6.3-4.2,12.91-7.91,19.21-12.1.84,1.37,1.66,2.76,2.52,4.14-6.43,3.94-12.71,8.11-19.2,11.94,2.26,3.53,4.5,7.07,6.8,10.57,6.9-4.13,13.63-8.53,20.48-12.72.86,1.39,1.7,2.79,2.5,4.23-8.45,4.98-16.66,10.35-24.99,15.52-7.44-11.51-14.56-23.21-21.9-34.77M113.08,501.54c11.33-9.47,22.31-19.34,33.61-28.84,1.71.88,3.41,1.78,5.1,2.72-1.44,14.49-3.05,28.97-4.44,43.46-1.74-.81-3.46-1.64-5.19-2.46.48-4.41,1.15-8.81,1.61-13.22-5.04-2.57-10.17-4.95-15.13-7.67-3.42,2.84-6.72,5.81-9.94,8.88-1.88-.95-3.76-1.9-5.62-2.87M131.97,492.21c4.15,2.19,8.29,4.4,12.45,6.57,1.04-6.95,1.22-14.05,3.03-20.87-4.98,4.94-10.06,9.82-15.48,14.3M172.42,486.57c1.79.54,3.58,1.06,5.38,1.57,3.72,12.32,7.93,24.5,11.54,36.85,3.04-10.35,6.12-20.69,9.12-31.06,1.64.54,3.27,1.09,4.92,1.65-4.04,12.97-7.41,26.14-11.26,39.17-1.79-.49-3.58-.98-5.35-1.47-4.1-12.22-7.75-24.59-11.88-36.8-2.81,10.29-5.94,20.49-8.79,30.76-1.65-.44-3.29-.88-4.93-1.3,3.55-13.18,7.4-26.28,11.25-39.37M315.49,487.3c1.61-.69,3.19-1.43,4.79-2.15,4.9,10.86,9.47,21.87,14,32.89,6.59-1.61,12.51-5.13,18.82-7.55.59,1.53,1.19,3.06,1.76,4.62-7.91,3.01-15.55,6.64-23.38,9.81-5.45-12.49-10.76-25.04-15.99-37.62M274.31,498.41c9.9-2.2,19.56-5.33,29.51-7.31.38,1.51.77,3.02,1.16,4.54-7.93,2.31-16.13,3.71-23.99,6.21.67,4.51,2.09,8.86,3.01,13.33,7.47-1.42,14.71-3.82,22.14-5.43.34,1.61.65,3.22.98,4.84-7.32,1.68-14.6,3.57-21.92,5.24.99,4.07,1.94,8.15,3.09,12.18,7.84-1.72,15.57-3.91,23.39-5.69.36,1.58.75,3.19,1.12,4.78-9.58,2.26-19.14,4.66-28.74,6.85-3.03-13.24-6.67-26.32-9.75-39.54M234.82,498.76c6.68.29,13.41-.21,20.04.73,5.53.77,9.97,6.55,8.61,12.11-.44,3.04-3.03,4.96-5.3,6.69,2.16,1.18,4.73,2.2,5.81,4.61,3.42,5.9.25,14.48-6.56,16.1h-23.27c.21-13.41.54-26.82.67-40.24M240.32,503.67c-.11,4.16-.23,8.33-.19,12.5,4.65-.13,9.36.5,13.97-.33,5.38-.8,5.69-9.88.57-11.27-4.68-1.27-9.56-.89-14.35-.9M239.9,520.78c.03,4.71-.1,9.41-.21,14.12,5.04.04,10.13.54,15.14-.1,5.89-1.22,6.57-10.49,1.08-12.81-5.12-1.66-10.7-.92-16.01-1.21h0Z"/>
      <path class="cls-24" d="M191.39,291.93l1.03.98c-2.97,5.72-7.79,10.2-10.67,15.98,6.45-1.24,13.01-2.57,18.82-5.76,2.79-1.41,5.34-3.47,8.49-4,3.65-.54,7.38-.61,11.04-.19,3.3.32,5.96,2.48,8.77,4.03,2.89,1.76,6.14,2.83,9.08,4.5l.43,1.04c-2.89,12.07-6.44,24.18-12.76,34.96-.48,1.32-1.88,2.68-1.31,4.15,2.84,1.81,5.9,3.26,8.59,5.31-3.85-.2-8.1-.54-10.88-3.58-5.47-1.18-9.35,3.95-14.59,4.04,2.59-2.88,5.86-5.22,9.67-6.11,3.34-.92,4.49-4.55,6.08-7.23,6.53-9.68,9.67-21.2,11.74-32.56-4.73-1.77-9.5-3.63-13.51-6.78-3.33-1.12-7.01-.87-10.45-.37-5.52.71-9.63,4.96-14.84,6.59-6.03,1.9-12.17,3.89-18.55,4.02,3.63-7.04,9.73-12.31,13.82-19.02h0Z"/>
      <path class="cls-36" d="M351.48,298.92c24.99-.09,49.98-.05,74.97-.01-.07,11.35-.04,22.71-.02,34.07.18,5.63-1.45,11.08-1.99,16.65-31.47.07-62.95.03-94.42.01,7.74-9.63,13.05-20.92,17.34-32.44.42,6.7-3.64,12.22-5.87,18.22-1.52,4.34-4.76,7.73-6.8,11.8,4.13.28,8.25-.12,12.38-.26,14.97.99,29.99.33,44.99.51,8.48.22,17.02-.67,25.42.83,1.99.31,5.11.36,5.55-2.19,2.3-8.5,1.71-17.42,1.74-26.13,0-6.43.34-12.88-.51-19.26-3.42-.34-6.84-.54-10.27-.41-20.37.53-40.76-.4-61.12.4-.74,3.9-1.17,8.07-3.82,11.25.73-4.36,1.86-8.65,2.43-13.04h0Z"/>
      <path class="cls-13" d="M254.92,315.48c3.2-.82,6.46-.12,9.67.17.27,4.5.79,8.99,1.15,13.5l-1.29.7-.51.28-.57-.18c-.74-2.48-.47-5.31-2.08-7.48-1.33-1.86-2.54-3.84-2.74-6.17-1.55-.16-3.09-.35-4.63-.57l1-.25h0Z"/>
      <path class="cls-38" d="M263.94,330.13l.51-.28,1.51-.79c.31,3.94.83,7.86,1.52,11.75-1.09,1.38-2.17,2.76-3.29,4.12.14-4.73-.85-9.43-.57-14.15l.32-.65M258.92,348.97c2.84-.71,5.74-.09,8.58.3-1.45.44-2.88.87-4.32,1.32-2.13.73-4.25,1.48-6.43,2.03-.23-.4-.68-1.19-.9-1.59.98-.75,2.01-1.43,3.07-2.06h0Z"/>
      <path class="cls-31" d="M264.19,344.93c1.12-1.36,2.2-2.74,3.29-4.12.36,1.45.75,2.89,1.13,4.34,1.11.91,2.21,1.82,3.31,2.75-.71.33-2.14.99-2.85,1.32,1.09.43,2.18.86,3.28,1.3-3.05-.21-6.12-.3-9.17.07,1.44-.45,2.87-.88,4.32-1.32-2.84-.39-5.74-1.01-8.58-.3l-.91.18c2.52-.62,4.72-2.07,6.18-4.22h0Z"/>
      <path class="cls-19" d="M271.92,347.9c2.81,1.59,5.72,2.98,8.78,4.01-.01.39-.04,1.16-.05,1.54-1.22.01-2.45.03-3.66.03-.91-1.78-2.97-2.21-4.64-2.96-1.1-.44-2.19-.87-3.28-1.3.71-.33,2.14-.99,2.85-1.32h0Z"/>
      <path class="cls-21" d="M253.32,353.86c-.52-1.33,1.29-2.79,2.53-2.83.22.4.67,1.19.9,1.59-.6,1.08-2.27,1.72-3.43,1.24h0Z"/>
      <path class="cls-7" d="M76.89,358.91c29.06.13,58.12-.01,87.18.07,2.09-.16,3.14,2.05,4.51,3.23-3.72-1.25-7.6-2.01-11.53-2.01-23.34-.04-46.68.34-70.02-.03-3.29-.04-6.57.3-9.83.76-.08-.5-.23-1.51-.31-2.02h0Z"/>
      <path class="cls-28" d="M220.35,371.46c2.76-1.16,3.9-4.79,7.17-4.71.01,5.58.01,11.17-.01,16.75-.77.01-2.33.01-3.1.02,0-3.82.01-7.63.02-11.44-1.32.69-2.63,1.4-3.94,2.09-.03-.67-.1-2.03-.14-2.71h0Z"/>
      <path class="cls-1" d="M233.94,367.77c2.4-.84,5.62-1.47,7.49.73,1.7,1.73,1.14,4.69-.77,6.04,1.76,1.58,3.06,4.03,1.85,6.37-1.7,4.4-9.55,3.75-10.27-1.02-.56-2.14.84-3.84,2.11-5.36-1.58-.96-1.75-2.72-1.98-4.37.39-.6,1.18-1.79,1.57-2.39M235.45,371.16c-.6,2.31,2.01,2.55,3.61,2.23.18-.61.53-1.83.7-2.43-.94-1.63-4.1-2.24-4.31.2M236.17,376.23c-1.65,1.56-1.02,5.39,1.64,5.12,3.66-.39,2.03-7.14-1.64-5.12h0Z"/>
      <path class="cls-26" d="M244.8,367.38c3.65-.1,7.31-.07,10.96-.04-.01.54-.03,1.6-.04,2.14-3.46,3.83-5.32,8.85-5.64,13.97-1,.02-1.98.05-2.97.09.23-4.82,2.12-9.34,4.86-13.26-2.34-.03-4.67-.03-6.99-.02-.06-.97-.12-1.92-.18-2.88h0Z"/>
      <path class="cls-25" d="M257.74,367.37c3.56-.07,7.13-.06,10.69-.02-.01.54-.04,1.63-.05,2.17-3.3,3.96-5.2,8.9-5.55,14.04-.77-.03-2.33-.07-3.1-.09.24-4.88,2.41-9.26,5.01-13.28-2.34.05-4.68.06-7.02.05,0-.96,0-1.92.02-2.87h0Z"/>
      <path class="cls-40" d="M235.45,371.16c.21-2.44,3.37-1.83,4.31-.2-.17.6-.52,1.82-.7,2.43-1.6.32-4.21.08-3.61-2.23h0Z"/>
      <path class="cls-39" d="M192.74,381.24c.57-.04,1.7-.12,2.27-.16,13.84,6.35,28.75,10.78,44.06,11.26,12.98.73,25.9-1.48,38.32-5.09-2.73,2.44-6.18,3.63-9.76,4.08.22.37.67,1.11.89,1.48-5.68-.17-11.43-.11-16.93,1.48-9.26,2.57-18.43-1.47-27.66-1.97-5.71-.23-11-2.51-16.53-3.66-5.47-1.14-9.95-4.64-14.66-7.42h0Z"/>
      <path class="cls-3" d="M403.39,419.19c1.27-1.62,2.47-3.3,3.83-4.86,1.78,1.04,3.27,2.49,4.91,3.74-1.26,1.61-2.51,3.23-3.69,4.9-1.67-1.29-3.37-2.52-5.05-3.78h0Z"/>
      <path class="cls-29" d="M124.54,436.81c2.14-.36,4.29-.66,6.47-.71,75-.07,150.01.01,225.01-.02,4.9-.04,9.85-.28,14.69.69-24.55.48-49.11.08-73.67.21-57.5-.11-115.01.22-172.5-.17h0Z"/>
    </g>
  </g>
</svg>