<?xml version="1.0" encoding="iso-8859-1"?>
<!-- Generator: Adobe Illustrator 29.7.1, SVG Export Plug-In . SVG Version: 9.03 Build 0)  -->
<svg version="1.1" id="Layer_1" xmlns="http://www.w3.org/2000/svg" xmlns:xlink="http://www.w3.org/1999/xlink" x="0px" y="0px"
	 viewBox="0 0 1114 806" style="enable-background:new 0 0 1114 806;" xml:space="preserve">
<g>
	<path style="fill-rule:evenodd;clip-rule:evenodd;fill:#FFFFFF;" d="M520.3,754.4c-4.8-9.9-12.2-15.7-25.5-20.2
		c-13.7-4.6-23-12.7-27.6-24.1c-5.3,1.9-10.1,2.8-14.7,2.8c-9.9,0-18.4-4.5-25.1-13.5c-0.5-0.3-1.8-0.6-3.1-0.6
		c-0.6,0-0.9,0.1-0.9,0.1c-4.8,1.7-9.3,2.6-13.5,2.6c-11,0-19.9-5.6-26.3-16.7c-5.8,3.9-12.2,5.8-19.6,5.8c-6,0-11.9-1.2-18.8-3
		c-1.4-0.4-2.9-0.8-4.3-1.2c-4.2-1.2-8.1-2.3-11.9-2.3c-1.8,0-3.5,0.3-5.2,0.8c-1.9,0.6-3.8,1.4-6.1,2.3c-1.2,0.5-2.5,1-3.9,1.5
		l-9.3,3.5l2.6-9.7c3.1-11.4-2.3-19.8-8.6-29.5c-0.6-0.9-1.2-1.9-1.8-2.8c-7-11-8.9-22.2-5.7-33.3c-18.7-4.7-23.4-10.2-26.2-30.4
		c-0.3-1-2.5-3.1-3.6-3.3c-16.8-4.2-25.7-17.1-23.2-33.5c0-0.2,0.1-0.5,0.1-0.7c-10-0.4-18.8-4.8-27.6-13.8c-2.8-2.8-5-5.4-6.9-7.9
		c-6.3-8.5-13.1-14.2-25.8-14.5l-17-0.4l14.4-9.1c11.7-7.3,12.5-17.5,13.3-29.2c0.1-1.5,0.2-3.1,0.4-4.6
		c1.2-12.8,5.9-22.1,14.6-28.5c-11.8-13.4-12.5-25.6-2.3-39.6c1.2-1.7,1.3-2.2-0.3-4.3c-11.8-15-11.5-27.4,1.1-41.3
		c-12.2-9.7-13.9-23.5-14.1-33.2c-0.3-12-1.3-21.9-11.7-29.6l-11.2-8.3l13.9-0.9c12.4-0.8,19.7-6.8,28-16.9
		c6.2-7.6,16.4-17.7,32.5-18.4l0,0c-1.4-17,6.3-28.3,22.8-33.8c0.7-0.8,1.6-2.8,1.6-3.7c-1-17.2,7.4-28.4,23.9-31.5
		c1.2-0.2,1.9-0.4,2.3-0.6c0-0.4-0.1-1.1-0.4-2.3c-3.1-13.8,3.1-25.4,8.9-34l0.2-0.4c4.8-7.1,7.2-10.7,8.3-14.1c1-3.3,1-7,0.9-15.9
		l-0.1-9.9l8.2,5.7c4.4,3.1,9.1,4.5,14.6,4.5c5.4,0,11.1-1.4,16.5-2.8c6.3-1.7,11.5-2.4,16.4-2.4c7.9,0,14.8,2.1,20.9,6.3
		c8-10.8,14.2-16.2,24.9-16.2c3.5,0,7.5,0.6,13.5,1.8c0.9-0.2,3.3-1.7,4.3-3c6.7-9.4,15.3-14.3,24.7-14.3c4.7,0,9.7,1.2,14.7,3.7
		c0.2,0.1,0.4,0.2,0.6,0.3c0.1-0.3,0.3-0.6,0.5-1c6.6-14.4,20-20.3,30.9-23.8c12.2-4,18.8-9.4,22.5-18.7l4.9-12.1l4.7,12.1
		c4.3,11.2,12.8,16.2,24.3,20.2c14,5,23.4,13,28.6,24.4c1.7-0.7,3.4-1.3,5.2-1.8c3.4-1,6.7-1.6,9.9-1.6c8.3,0,15.5,3.6,21,10.3
		c3.2,4,4.8,4.4,6.1,4.4s2.9-0.5,4.9-1.4c3.2-1.5,6.6-2.3,10.1-2.3c10.2,0,20.1,6.4,25.8,16.7c0.3,0.5,0.5,0.8,0.7,1.1
		c0.3-0.1,0.6-0.3,0.9-0.6c5.8-3.6,12.2-5.4,19.5-5.4c7.5,0,14.7,2,20.2,3.7c5.4,1.7,9.4,2.4,13.3,2.4c5.6,0,10.7-1.7,15.9-5.2
		l12.9-8.8l-5.2,14.7c-4.2,11.9,0.8,20,6.7,29.5c0.6,1,1.3,2,1.9,3.1c5.6,9.2,10.7,20.4,7,33.6c0.3,0.3,0.6,0.6,0.8,0.8
		c1.5,0.9,3.4,1.6,5.3,2.4c3.8,1.5,8.1,3.3,11.2,6.7c5.6,6.2,7.1,15.5,7.5,19.2c0.5,4.3,1.8,5.2,4.8,5.9
		c16.4,3.6,24.6,15.2,22.7,31.7c-0.1,1.2-0.1,1.9-0.1,2.3c0.4,0.1,1.1,0.2,2.2,0.3c15.2,0.9,24.5,11.4,32.1,21.1
		c7.2,9.4,14.4,13.8,23.8,14.8l7.9,0.8l-4,6.9c-0.2,0.3-0.3,0.5-0.4,0.7c-0.4,0.8-1,2-2.2,3c-5.8,4.9-8.6,11.3-9.7,22
		c-1.2,11.3-3.4,20.6-6.9,28.5c-4,9.3-4.8,11.5-1.5,19.7c4.2,10.5,2.7,20.9-4.3,29.2c-1.7,2-1.9,2.4,0.6,4.9
		c5.5,5.5,8.4,12.8,8.2,20.5s-3.5,14.8-9.2,20.1c-0.3,0.2-0.5,0.4-0.7,0.6c0.1,0.1,0.3,0.2,0.5,0.4c11,8.4,12.8,20.4,13.8,33
		c0.1,1,0.2,2,0.2,3c0.4,5.4,0.8,10.5,2.3,15c0.9,2.7,3,5.4,5.2,8.3c1.1,1.4,2.3,2.9,3.3,4.5l5.3,7.9l-9.5,0.1
		c-8.9,0.1-16.1,4.4-24,14.3c-7.5,9.3-18.1,19.9-34.7,20.3c0.6,19.3-3.5,25.7-21.8,33.8c-0.8,0.5-2.2,2.7-2.3,3.6
		c0.9,17.6-6.9,28-23.7,31.9c-1.3,0.3-2,0.5-2.4,0.7c0,0.4,0.1,1,0.4,2c3,11.4-1.8,21.6-5.7,28.2c-1.9,3.3-4,6.4-6,9.4
		c-0.5,0.8-1.1,1.6-1.6,2.4c-5.7,8.5-6.8,15.6-3.6,24.5l5.9,16.7l-13.9-11c-5.1-4.1-10.4-6-16.5-6c-5.5,0-11.2,1.5-17.2,3l-1,0.3
		c-5.4,1.4-10.1,2.1-14.5,2.1c-7.9,0-14.8-2.2-20.8-6.7c-7.3,11.3-15.2,16.4-25.5,16.4c-3.8,0-7.8-0.7-12.5-2.1
		c-0.5-0.2-1-0.2-1.3-0.2c-0.5,0-1.4,0-3.2,2.8c-8.1,12.4-17.8,15-24.5,15c-4.6,0-9.4-1.2-14.4-3.5c-0.6-0.3-1-0.4-1.3-0.5
		c-0.2,0.3-0.4,0.7-0.6,1.3c-5,11.1-14.8,18.9-29.2,23.1c-12.1,3.6-19.5,9.4-24.1,18.9l-4.6,9.5L520.3,754.4z M521.9,121.2
		c-3.9,0.4-7.9,0.7-11.7,1.1c-12.1,1.1-24.5,2.2-36.6,4.1c-31.4,5.1-62.4,16.7-92.1,34.2c-31.2,18.4-58.1,41.8-79.9,69.6
		c-20.7,26.3-36.4,55.9-46.7,88c-8.3,25.8-11.7,49.6-10.5,72.8c0.3,6.2,0.2,12.4,0.1,18.4c-0.2,9.1-0.3,17.7,0.9,26.2
		c3.8,27.5,12.1,54.2,24.6,79.3c27,54.1,68.3,96.5,122.7,125.9c29.8,16.1,62.3,26.7,96.6,31.3c12.8,1.7,25.5,2.6,37.7,2.6
		c16.8,0,33.3-1.7,48.9-5c39.3-8.3,72.5-21,101.5-38.9c20-12.3,38.3-27,54.5-43.6c24.5-25.2,43.9-54.4,57.5-86.8
		c10.4-24.7,16.3-47.3,18.1-69c1.4-17.1,0.8-34.7,0.3-51.7c-0.5-14.1-1.6-25.6-3.6-36.1c-7.3-38.6-23.9-75.2-49.2-109
		c-21.6-28.7-47.9-52.4-78.1-70.5c-46.9-28.1-92.4-41.7-139.1-41.7c-1.2,0-2.4,0-3.6,0c-0.9,0-1.8,0-2.7,0c-0.8,0-3.8,0-4.6,0H522
		L521.9,121.2z"/>
	<path style="fill-rule:evenodd;clip-rule:evenodd;fill:#AD923C;" d="M739.3,686.6c-13.4-10.6-26.1-7-39.2-3.6
		c-10.8,2.8-22.1,3.4-31.8-4.4c-2.8-2.3-4.4-1.3-6.1,1.5c-8.6,13.7-17.7,17.2-32.5,12.6c-5.2-1.6-8.1,1.2-10.3,4.6
		c-8,12.3-19,16-32.5,9.7c-4.7-2.2-6.5-1.6-8.7,3.3c-5,11.1-14.8,17-26,20.3c-11.8,3.5-21.4,9.4-27.3,21.5
		c-6.1-12.7-16.2-18.7-28.5-22.8c-11.1-3.7-20.6-10.4-25-22.4c-0.4-1.2-3.9-2.4-5.3-1.9c-13.8,5.1-25.5,3.7-34.9-8.9
		c-1.5-2-6.9-3-9.7-2c-14.6,5.2-26,1.5-33.8-12c-1.4-2.5-2.5-5-5.8-2.5c-11.2,8.6-23.5,6.3-35.7,3.1c-8-2.1-15.8-5.4-24.2-2.6
		c-3.1,1-6,2.3-10.1,3.8c4-14.9-4-25.3-11-36.4c-5.8-9.1-8.2-19.2-4.8-30c1-3.3-0.4-4.6-3.6-5.4c-17.2-4.3-20.2-8.3-22.7-26.3
		c-0.4-2.9-4.4-6.8-7.4-7.5c-13.9-3.5-21.5-13.7-19.4-27.8c0.6-4,0.4-6.4-4.4-6.5c-10-0.3-17.8-5.3-24.5-12.2
		c-2.3-2.3-4.5-4.8-6.4-7.4c-6.9-9.2-15.1-16.2-29.8-16.5c15.6-9.8,14.8-24,16.1-37.6c0.9-10.1,4.4-19.2,13.1-25.3
		c3.1-2.2,3.1-3.9,0.5-6.7c-10.4-11.7-11.2-21.3-2.3-33.5c3.1-4.2,2.1-7.3-0.5-10.5c-10.3-13.1-10.1-22.8,1.2-35.2
		c2.3-2.5,2.9-4.1,0-6.2c-10.2-7.5-12.9-18.5-13.2-30c-0.3-12.6-1.4-24.4-13.7-33.6c15.1-0.9,23.6-9.1,31.6-18.8
		c7.6-9.3,16.9-16.4,29.9-16.6c1.4,0,4-3,3.8-4.4c-1.6-15.4,4.8-25,19.6-29.7c2.3-0.8,4.9-5.8,4.7-8.7c-0.9-14.1,5.5-23.5,19.7-26.2
		c5.8-1.1,7.4-2.8,6-9c-2.5-11.1,2.1-21,8.2-30c10.4-15.4,10.5-15.4,10.3-33.3c11.5,8,23.2,5.7,35.3,2.4c11.7-3.1,23.7-4.1,34.4,4.1
		c0.9,0.7,4.2-0.1,5-1.2c11.4-15.5,16.2-17.2,34.1-13.3c2.6,0.6,7.3-2.4,9.2-5.1c8.5-11.8,19.8-15.5,33-9c4.7,2.3,5.9,1.3,8-3.1
		c5.4-11.8,16.1-17.3,27.8-21.1c11.2-3.6,20.6-9.1,25.7-21.7c5.1,13.4,15.6,19,27.4,23.2c13.2,4.2,23.2,12,27.7,25.9
		c3.6-1.3,6.5-2.6,9.6-3.6c9.9-3,18.8-1,25.4,7.1c4.9,6.1,9.2,8.1,17.1,4.4c10.4-4.9,22.8,0.8,29.2,12.3c2.5,4.4,4,5.4,8.8,2.4
		c11.3-7.1,23.6-4.9,35.4-1.2c11.1,3.5,21.7,4.6,33.6-3.5c-5.6,15.6,2.4,25.9,9,36.9c5.7,9.4,9.9,19.5,5.9,31.1c-0.4,1.2,2,4,3.7,5
		c5,2.9,11.7,4,15.2,8c3.7,4.1,5.6,10.7,6.3,16.4c0.7,6.2,3.4,9.2,8.8,10.3c13.6,3,20.4,11.8,18.7,26.1c-0.7,6.1,0.8,7.9,6.9,8.2
		c13,0.7,21.1,9.8,28.3,19.1c7,9,15.2,15.5,27.4,16.7c-0.6,1.1-0.9,1.9-1.4,2.4c-7.9,6.7-10.4,15.4-11.5,25.4
		c-1,9.1-2.8,18.6-6.5,27c-4.3,9.8-5.5,13.7-1.5,23.7c3.5,8.6,2.5,16.9-3.5,23.9c-3.9,4.6-2.9,8.1,0.8,11.8
		c9.2,9.3,9.1,24.2-0.8,33.2c-4,3.6-4.3,5.4,0.2,8.8c9.5,7.3,10.9,18.3,11.9,29.3c0.5,6.5,0.7,13.2,2.8,19.2c1.7,5.1,5.9,9.3,9.2,14
		c-12.2,0.2-20.6,7.1-27.9,16.2c-8.1,10.1-17.5,18.4-31.6,18.4c-3.3,0-4.4,1.5-4.2,4.9c0.6,17.8-2.5,22.1-18.7,29.3
		c-2.6,1.2-5.4,5.7-5.3,8.5c0.7,14.7-4.9,23.3-19.8,26.8c-5.8,1.3-7.5,2.8-5.9,9c2.2,8.6-0.8,16.8-5.1,24.4c-2.3,4-4.9,7.7-7.5,11.5
		C738,665.8,735.1,674.6,739.3,686.6z M526.7,117.2c-0.1-0.5-0.1-1.1-0.2-1.6c-17.9,1.8-36,2.8-53.7,5.7
		c-33.5,5.5-64.7,17.6-93.9,34.9c-31.5,18.6-58.7,42-81.4,70.8c-21.3,27.1-37.1,57-47.6,89.6c-7.8,24.2-12.1,49-10.8,74.6
		c0.8,15-1,30.3,1,45.1c3.9,28.2,12.4,55.3,25.1,80.9c27.9,56,69.8,98.4,124.8,128.1c30.9,16.7,64.2,27.2,98.4,31.9
		c29,3.9,58.8,3.8,88.4-2.4c36.7-7.7,71.2-19.9,103.2-39.6c20.3-12.5,38.9-27.3,55.5-44.4c25.1-25.7,44.6-55.3,58.5-88.4
		c9.5-22.6,16.4-46.1,18.4-70.6c1.4-17.3,0.9-34.9,0.3-52.3c-0.4-12.3-1.4-24.8-3.7-36.9c-7.8-41-25.2-77.9-50.2-111.1
		c-21.8-29-48.3-53.1-79.6-71.8c-44.8-26.8-92.6-43.2-145.4-42.4C531.5,117.2,529.1,117.2,526.7,117.2z"/>
	<g>
		<path style="fill:#AD923C;" d="M377.1,510.2l3.3,4.5l3.3,4.3l3.7,3.7l3.9,3.9l3.9,3.9l3.7,3.7l3.9,3.3l4.3,3.5l4.3,3.3l4.3,3.3
			l4.9,2.9l4.3,2.9l4.7,2.7l4.9,2.9l4.7,2.3l4.9,2.5l4.7,2.3l5.3,1.9l5.3,1.9l4.7,1.9l5.5,1.4l5.3,1.9l5.3,1l5.1,1.4l5.3,1l5.5,1
			l5.6,1l5.3,0.4l5.3,0.6h5.6h5.3h5.3h5.6l5.3-0.6l5.8-0.4l5.3-1l5.6-1l5.3-1l5.3-1.4l5.3-1l5.3-1.9l5.3-1.4l5.3-1.9l4.9-1.9
			l5.3-2.5l4.7-1.7l4.7-2.5l4.9-2.3l4.9-2.9l4.7-2.7l4.9-2.9l4.3-3.3l4.3-2.9l4.3-3.3l4.3-3.9l4.3-3.3l3.7-3.9l4.3-3.7l3.9-3.9
			l3.3-4.3l3.9-3.9l3.3-4.3l3.3-4.8l-298.7,1L377.1,510.2z M566.5,527.7c1.3-2.1,3.1-3.7,5.3-4.8c2.3-1.1,5.1-1.6,8.6-1.6
			c4.1,0,7.4,0.7,9.9,2s4.5,3.4,6,6.3c1.5,2.9,2.2,6.7,2.2,11.4c0,6.9-1.6,12-4.7,15.2c-3.1,3.2-7.5,4.8-13,4.8
			c-3.3,0-5.9-0.4-7.8-1.1c-1.9-0.7-3.5-1.7-4.7-3.1c-1.3-1.4-2.2-3.1-2.9-5.1l11.4-1.3c0.3,1.5,0.8,2.5,1.5,3.1s1.6,0.9,2.6,0.9
			c1.8,0,3.3-0.9,4.3-2.6c0.7-1.3,1.3-4,1.7-8.1c-1.4,1.3-2.8,2.3-4.2,2.9c-1.4,0.6-3.1,0.9-5,0.9c-3.7,0-6.8-1.2-9.4-3.7
			c-2.5-2.4-3.8-5.5-3.8-9.3C564.5,532.1,565.2,529.8,566.5,527.7z M547.2,544.6c-1-1-2.3-1.5-4-1.5c-0.9,0-2.1,0.2-3.7,0.6l0.6-7.6
			c0.6,0.1,1.1,0.1,1.5,0.1c1.5,0,2.8-0.4,3.8-1.3c1-0.9,1.5-1.9,1.5-3.2c0-1.2-0.4-2.1-1.1-2.8c-0.8-0.7-1.8-1-3.1-1
			c-1.4,0-2.4,0.4-3.3,1.1c-0.8,0.8-1.4,2.1-1.7,4l-10.8-1.8c0.9-3.2,2.6-5.7,5.2-7.4c2.6-1.7,6.2-2.6,10.9-2.6
			c5.4,0,9.3,0.9,11.7,2.8c2.4,1.9,3.6,4.2,3.6,7c0,1.7-0.5,3.2-1.5,4.5s-2.4,2.5-4.4,3.5c1.6,0.4,2.8,0.8,3.7,1.3
			c1.4,0.8,2.4,1.8,3.2,3.1s1.1,2.8,1.1,4.6c0,2.2-0.6,4.4-1.9,6.4c-1.3,2.1-3.1,3.6-5.4,4.7c-2.4,1.1-5.5,1.7-9.3,1.7
			s-6.7-0.4-8.9-1.2s-3.9-2-5.3-3.6c-1.4-1.6-2.5-3.6-3.2-6l11.4-1.4c0.5,2.1,1.1,3.6,2.1,4.5c0.9,0.8,2.2,1.2,3.6,1.2
			c1.5,0,2.8-0.5,3.8-1.6c1-1,1.5-2.4,1.5-4.2C548.7,547,548.2,545.6,547.2,544.6z M489.6,527.7c1.3-2.1,3.1-3.7,5.3-4.8
			c2.3-1.1,5.1-1.6,8.6-1.6c4.1,0,7.4,0.7,9.9,2c2.5,1.3,4.5,3.4,6,6.3c1.5,2.9,2.2,6.7,2.2,11.4c0,6.9-1.6,12-4.7,15.2
			c-3.1,3.2-7.5,4.8-13,4.8c-3.3,0-5.9-0.4-7.8-1.1c-1.9-0.7-3.5-1.7-4.7-3.1c-1.3-1.4-2.2-3.1-2.9-5.1l11.4-1.3
			c0.3,1.5,0.8,2.5,1.5,3.1s1.6,0.9,2.6,0.9c1.8,0,3.3-0.9,4.3-2.6c0.7-1.3,1.3-4,1.7-8.1c-1.4,1.3-2.8,2.3-4.2,2.9
			c-1.4,0.6-3.1,0.9-5,0.9c-3.7,0-6.8-1.2-9.4-3.7c-2.5-2.4-3.8-5.5-3.8-9.3C487.7,532.1,488.3,529.8,489.6,527.7z M452,531.6
			c3.9-1.2,6.9-2.6,9.1-4.2c2.2-1.6,3.8-3.7,5.1-6.1h9.5v39H464v-25.6c-1.9,1.3-3.7,2.4-5.4,3.2c-1.8,0.8-4,1.6-6.6,2.4V531.6z"/>
		<path style="fill:#AD923C;" d="M504,541c1.6,0,3-0.5,4-1.6c1.1-1.1,1.6-2.7,1.6-4.7c0-2.1-0.6-3.7-1.7-4.9s-2.5-1.8-4.1-1.8
			c-1.5,0-2.8,0.5-3.8,1.6s-1.5,2.7-1.5,4.8s0.5,3.8,1.6,4.9S502.5,541,504,541z"/>
		<path style="fill:#AD923C;" d="M580.9,541c1.6,0,3-0.5,4-1.6c1.1-1.1,1.6-2.7,1.6-4.7c0-2.1-0.6-3.7-1.7-4.9
			c-1.1-1.2-2.5-1.8-4.1-1.8c-1.5,0-2.8,0.5-3.8,1.6s-1.5,2.7-1.5,4.8s0.5,3.8,1.6,4.9C578,540.4,579.3,541,580.9,541z"/>
		<polygon style="fill:#AD923C;" points="346.9,455.1 346.9,455.6 347.5,456.6 347.5,457 347.5,458 347.8,459.5 348.8,461.4 
			349.4,462.8 349.8,464.7 350.2,466.1 351.2,468 351.7,469.4 352.7,470.9 353.1,472.3 353.7,473.3 354.1,474.2 354.5,475.2 
			355.1,475.6 691.2,475.2 691.6,475.2 691.6,474.2 691.9,473.6 692.5,472.3 693.9,470 695.3,466.7 695.8,464.7 696.8,462.8 
			697.2,461.4 697.8,459.5 698.2,458 698.8,456.6 698.8,456 699.2,455.1 699.2,454.7 699.2,454.1 		"/>
		<polygon style="fill:#AD923C;" points="358.4,481.8 359.3,483.1 360.3,485.1 361.3,487 362.3,488.6 363,490.3 364,491.9 
			365,493.8 366.3,496.1 367.9,498.4 368.3,499.4 368.9,499.8 369.3,500.4 676.8,500.4 677.1,499.8 677.7,499 678.7,498 
			680.1,495.5 682,492.8 683,490.9 683.8,489.5 685.3,487.6 686.3,485.7 687.3,483.7 688.2,482.2 688.6,480.8 689.6,478.9 
			358,479.8 		"/>
		<polygon style="fill:#AD923C;" points="444.6,449.4 446.2,425.6 484.4,400.8 484.4,448.1 514.3,448.1 514.9,262 469,218.6 
			439,257.1 474.4,284.2 474.4,259.1 484.4,259.1 484.4,342 460.4,320.8 424.2,353.4 440,383.8 442.3,366.2 460,352.4 482.4,373.3 
			423.2,410.9 		"/>
		<polygon style="fill:#AD923C;" points="365.6,449.4 366.9,431.8 395,413.2 395,448.1 417.6,448.1 418,309.4 383.7,277.1 
			361.7,305.7 388,325.7 387.4,307.1 395,307.1 395,369.1 377.4,353.8 350.2,377.6 362.3,400.4 364,387.1 377.1,377 393.6,392.3 
			349.8,420.4 		"/>
		<polygon style="fill:#AD923C;" points="561.6,448.1 561.6,400.8 599.7,425.6 601.3,449.4 622.7,410.9 563.5,373.3 585.9,352.4 
			603.6,366.2 606,383.8 621.8,353.4 585.5,320.8 561.6,342 561.6,259.1 571.5,259.1 571.5,284.2 607,257.1 577,218.6 531,262 
			531.6,448.1 		"/>
		<polygon style="fill:#AD923C;" points="651,448.1 651,413.2 679,431.8 680.4,449.4 696.1,420.4 652.3,392.3 668.9,377 
			681.9,387.1 683.7,400.4 695.8,377.6 668.5,353.8 651,369.1 651,307.1 658.6,307.1 658,325.7 684.3,305.7 662.3,277.1 628,309.4 
			628.4,448.1 		"/>
		<path style="fill:#AD923C;" d="M524,106.3c-161.3,0-292,130.7-292,291.9s130.7,292,292,292c161.2,0,291.9-130.7,291.9-291.9
			S685.2,106.3,524,106.3z M524,675.6c-153.2,0-277.4-124.2-277.4-277.3c0-153.2,124.2-277.4,277.4-277.4s277.4,124.2,277.4,277.4
			C801.3,551.4,677.2,675.6,524,675.6z"/>
		<path style="fill:#AD923C;" d="M524,198.6c-109.4,0-198.1,88.7-198.1,198.1S414.6,594.9,524,594.9c11.3,0,22.3-1,33.1-2.8
			l-0.6-2.8l12.1-2.4l0.5,2.8c55.2-12.9,101.6-48.9,128.3-97.2l-2.6-1.3l5.6-11l2.6,1.3c12.2-25.7,19-54.4,19-84.7
			C722.1,287.3,633.4,198.6,524,198.6z M524,589.5c-106.4,0-192.7-86.3-192.7-192.7C331.2,290.3,417.5,204,524,204
			c106.4,0,192.7,86.3,192.7,192.7C716.7,503.2,630.4,589.5,524,589.5z"/>
		<polygon style="fill:#AD923C;" points="341,303.4 328.2,295.9 324.3,282.5 352.2,284 363.8,264 319.6,265.1 311,234.5 298.5,256 
			308.4,284.4 288.6,273 279.2,289.1 331.6,319.5 		"/>
		
			<rect x="344.526" y="203.994" transform="matrix(0.6923 -0.7216 0.7216 0.6923 -60.1457 327.4348)" style="fill:#AD923C;" width="18.7" height="60.5"/>
		<path style="fill:#AD923C;" d="M405.7,229.1l-13.4-20.6l1.4-0.9c1.4-0.9,3-1.4,4.6-1.3c1.2,0.1,3,0.7,5.4,2.1l18.5,10l17.7-11.6
			l-17.2-9.7c-0.8-0.5-2.3-1.1-4.3-1.7c-2-0.6-3.4-1-4.2-1c-1.3-0.1-3,0.2-5.3,0.8c2-2,3.4-3.9,4.2-5.6c1.3-2.6,1.8-5.4,1.7-8.2
			c-0.1-2.8-1.1-5.6-3-8.5c-2.1-3.2-4.7-5.5-7.7-6.7s-6.1-1.4-9.2-0.6c-3.1,0.8-7.1,2.8-11.9,6l-26.1,17l33.1,50.7L405.7,229.1z
			 M379.3,188.7l6.9-4.5c2.9-1.9,5.1-2.7,6.7-2.5s2.9,1.1,4,2.8c0.7,1.1,1,2.3,0.9,3.6s-0.6,2.4-1.5,3.2c-1.8,1.8-3,2.9-3.7,3.4
			L386,199L379.3,188.7z"/>
		
			<rect x="434.519" y="145.236" transform="matrix(0.9398 -0.3418 0.3418 0.9398 -33.2483 162.2791)" style="fill:#AD923C;" width="18.7" height="60.502"/>
		<polygon style="fill:#AD923C;" points="492.3,193.8 490.7,179.1 499.2,168 514.6,191.3 537.5,188.8 510.4,153.9 529.9,128.8 
			505.2,131.5 488.2,156.3 485.7,133.6 467.1,135.6 473.7,195.8 		"/>
		<polygon style="fill:#AD923C;" points="562.2,179.5 573.8,171.7 581,198.7 601,203 600.9,203 602.8,201.5 588.9,161.9 
			615.4,144.2 591.1,139 567.1,157.2 571.9,134.8 553.6,130.8 540.8,190 559.1,194 		"/>
		<path style="fill:#AD923C;" d="M601,203l16.4,9.6l7.6-7.1l18.3,10.7l-2.4,10.2l16.9,9.9l10.9-63.7l-17.6-10.3l-48.3,39.3l0.7,2.1
			L601,203z M651.8,180.8l-5.2,22.2l-11.5-6.7L651.8,180.8z"/>
		<polygon style="fill:#AD923C;" points="692.6,274.3 703.4,264.1 683.3,242.9 716.3,211.5 703.4,197.9 659.6,239.7 		"/>
		<polygon style="fill:#AD923C;" points="720.1,324.4 732.2,317.9 717,289.5 727.5,283.8 741.2,309.5 752.1,303.7 738.4,278 
			746.9,273.5 761.7,301.1 773.1,295.1 749.4,250.8 696,279.4 		"/>
		<path style="fill:#AD923C;" d="M334.1,547.2c1-2.9,0.8-6.4-0.5-10.5c2.2,1.8,4.4,2.9,6.6,3.2c3.2,0.5,6.2-0.1,9.1-2
			c3.4-2.2,5.5-5.2,6.3-9.2s-0.3-8.3-3.3-13l-17.7-28.3L285.8,518l16.3,26.1c0.7,1.1,2.3,3.2,4.9,6.3c1.9,2.3,3.7,3.9,5.2,4.7
			c2.5,1.3,5.1,1.9,7.8,1.8c2.8-0.1,5.4-0.9,7.9-2.5C331,552.5,333,550.1,334.1,547.2z M322.6,534.5c-0.2,1.6-1,2.9-2.5,3.8
			c-1.6,1-3.1,1.2-4.7,0.7s-3.2-2-4.8-4.6l-4.8-7.7l9.9-6.2l4.8,7.7C322.1,530.8,322.8,532.9,322.6,534.5z M334.2,508.9l4.2,6.7
			c1.4,2.3,2,4.1,1.8,5.6c-0.2,1.4-1,2.6-2.5,3.5c-1.5,1-3,1.2-4.4,0.8s-2.8-1.8-4.3-4.2l-4.1-6.6L334.2,508.9z"/>
		<polygon style="fill:#AD923C;" points="376.2,590.4 384.2,581.8 364,562.9 370.2,556.2 392.1,576.6 400.5,567.6 365.6,535 
			326.2,577.1 361.8,610.3 370.7,600.7 348.2,579.8 356,571.5 		"/>
		<polygon style="fill:#AD923C;" points="420.4,579 404.9,570.3 376.7,620.5 416.5,642.8 423.4,630.5 399.2,616.9 		"/>
		<polygon style="fill:#AD923C;" points="432,649 478.9,661.9 482.3,649.3 452.7,641.2 455.7,630.2 482.4,637.5 485.5,626.2 
			458.8,618.9 461.2,610 490,617.9 493.3,606.1 447.2,593.4 		"/>
		<path style="fill:#AD923C;" d="M546.1,615.6c-2.1-2.7-4.7-4.8-7.9-6.2c-3.2-1.5-7.4-2.2-12.6-2.3l-26.5-0.4l-0.9,57.6l26.5,0.4
			c3.2,0.1,6.7-0.4,10.6-1.4c2.9-0.7,5.6-2.2,8.1-4.5s4.5-5.1,6-8.4c1.5-3.4,2.2-8.1,2.3-14.3c0.1-3.9-0.3-7.7-1.2-11.2
			C549.6,621.4,548.2,618.3,546.1,615.6z M532.4,646.1c-0.9,2-2.2,3.5-3.8,4.3s-4.2,1.2-8,1.1l-4.4-0.1l0.5-31.5l4.4,0.1
			c4.6,0.1,7.9,1.3,9.9,3.5c2,2.3,2.9,6.5,2.8,12.6C533.8,640.8,533.3,644.1,532.4,646.1z"/>
		<path style="fill:#AD923C;" d="M558.8,600.9l12.1-2.4l-1.7-8.8c-4,0.9-8,1.7-12.1,2.4L558.8,600.9z"/>
		
			<rect x="562.003" y="602.578" transform="matrix(0.9813 -0.1924 0.1924 0.9813 -110.8209 121.6508)" style="fill:#AD923C;" width="17.9" height="57.699"/>
		<polygon style="fill:#AD923C;" points="634.9,578.6 616.7,586.2 613.5,608.7 595.3,595.2 577.1,602.9 610.7,625.1 620.1,647.4 
			636.6,640.4 627.2,618.2 		"/>
		<polygon style="fill:#AD923C;" points="675.8,602 668.8,593 690.8,576 683.6,566.7 661.6,583.7 656,576.4 679.7,558.1 
			672.1,548.4 634.4,577.6 669.7,623.2 708.1,593.5 700.1,583.1 		"/>
		<path style="fill:#AD923C;" d="M736.4,529.9c-2.5-1.9-5.2-3.1-8.1-3.4c-2.9-0.4-6.1,0.3-9.6,1.9c-3.4,1.6-8.2,5-14.3,10.1
			c-2.5,2.1-4.2,3.2-5.4,3.4c-1.1,0.2-2,0.1-2.8-0.5c-1-0.8-1.5-1.8-1.6-3.2c0-1.4,0.6-2.9,1.8-4.5c1.5-2,3.2-3.2,5-3.6
			c1.8-0.4,3.9,0,6.2,1.3l9.6-13.8c-5.2-3.1-10-4-14.6-2.6c-4.5,1.4-9.1,4.9-13.6,10.8c-3.7,4.7-6,8.9-6.9,12.6
			c-0.9,3.6-0.9,7,0.1,9.9c1,3,2.7,5.4,5,7.2c3.6,2.8,7.5,3.7,11.9,2.9c4.3-0.8,9.6-3.8,15.8-8.9c3.8-3.1,6.5-4.8,8.2-5.1
			s3.2,0,4.4,0.9c1.2,1,1.9,2.4,2,4.2s-0.6,3.7-2.2,5.7c-2.1,2.7-4.6,4-7.6,4c-1.8,0-3.9-0.7-6.3-2.1l-9.6,14
			c4.9,3.2,10,4.5,15.3,3.8s11-4.8,17-12.6c3.4-4.4,5.6-8.5,6.6-12.4s0.9-7.6-0.3-11.1C741.4,535.1,739.3,532.2,736.4,529.9z"/>
		<path style="fill:#AD923C;" d="M705.4,496.5l5.6-11l-7.9-4c-1.8,3.7-3.6,7.4-5.6,11L705.4,496.5z"/>
		
			<rect x="728.135" y="476.859" transform="matrix(0.4527 -0.8917 0.8917 0.4527 -47.5091 934.0204)" style="fill:#AD923C;" width="17.901" height="57.702"/>
	</g>
</g>
</svg>
