<?xml version="1.0" encoding="iso-8859-1"?>
<!-- Generator: Adobe Illustrator 29.7.1, SVG Export Plug-In . SVG Version: 9.03 Build 0)  -->
<svg version="1.1" id="katman_1" xmlns="http://www.w3.org/2000/svg" xmlns:xlink="http://www.w3.org/1999/xlink" x="0px" y="0px"
	 viewBox="0 0 800 600" style="enable-background:new 0 0 800 600;" xml:space="preserve">
<g>
	<g>
		<path id="XMLID_1973_" style="fill:#CA2123;" d="M713,303c-8.4-2.3-16.8,0-25.2,2.3v-5.4c0-3.4-2.6-6.3-6-6.6
			c-30.7-2.8-61.4,22.2-92.1,16.2V379c21.1,3.3,54.3-10.7,76.2-17.8c0.1,0.7,0.1,1.4,0.2,2.1c0.4,3.6,2.7,6.7,6.3,6.9
			c12.7,0.5,24.3-3.4,37.4-2.6c-3.4-11.7-9.7-21.7-13.1-32.7C701.2,323.5,708.5,311.9,713,303z"/>
		<path style="fill:#FFFFFF;" d="M643,326.1c1.2,1.2,2.3,2.4,3.5,3.6c1.9-1.3,3.7-2.5,5.6-3.8c-1.1,2-2.2,4-3.4,6
			c1.2,1.2,2.3,2.4,3.5,3.7c-1.9,0-3.7,0-5.6,0.1c-1.1,2-2.2,4.1-3.4,6.1c0-2-0.1-4-0.1-6c-1.9,0.1-3.7,0.1-5.6,0.2
			c1.8-1.3,3.7-2.6,5.6-3.9C643.1,330.1,643,328.1,643,326.1"/>
		<path style="fill:#FFFFFF;" d="M623.9,322.7L623.9,322.7c2.8-0.8,5.5-1,7.9-0.5c0.4,0.1,0.8,0.2,1.1,0.3c1.9,0.6,3.5,1.5,4.8,2.9
			c0.1,0.1-0.1,0.4-0.3,0.4l0,0l0,0c-0.3-0.2-0.7-0.3-1-0.4c-0.4-0.1-0.7-0.2-1.1-0.3c-2-0.4-4.3-0.2-6.7,0.6
			c-3.8,1.2-7.2,3.8-9.7,6.9s-4,6.8-4,10.5l0,0c0,3.7,1.5,6.7,4,8.5c2.5,1.7,5.9,2.2,9.7,0.9l0,0l0,0c1.7-0.6,3.3-1.5,4.8-2.5
			c0.2-0.2,0.5-0.4,0.7-0.5c1.2-1,2.3-2.1,3.3-3.3c0.1-0.2,0.4,0,0.3,0.2l0,0c-0.4,0.8-0.9,1.5-1.4,2.3c-0.5,0.7-1,1.4-1.6,2.1
			c-2.9,3.5-6.7,6.4-10.8,7.7c-4.7,1.5-9,0.6-12.1-2s-5-6.8-5-11.8l0,0c0-4.9,1.9-9.6,5-13.5C614.9,327.1,619.2,324.1,623.9,322.7
			L623.9,322.7z"/>
		<path style="fill:#FFFFFF;" d="M683.9,298.9c0.2,2.2,0.3,4.5,0.5,6.7l0.2,6.7c0.1,4.5,0,8.9,0,13.4c-0.2,4.5-0.3,8.9-0.6,13.4
			l-0.5,6.7c-0.3,2.2-0.4,4.5-0.8,6.7h-0.1l0.5-26.7l0.7-26.7L683.9,298.9z"/>
	</g>
	<path id="XMLID_1105_" style="fill-rule:evenodd;clip-rule:evenodd;fill:#007BB5;" d="M542,414.3c0,1.3-0.3,2.2-0.8,2.7
		s-1.5,0.8-3,0.8s-2.5-0.3-3-0.8s-0.8-1.4-0.8-2.6c0-1.3,0.3-2.2,0.8-2.7s1.5-0.8,3-0.8s2.4,0.2,3,0.7
		C541.8,412.2,542,413,542,414.3z M541.8,455.1c0,0.2-0.1,0.3-0.2,0.5c-0.1,0.1-0.3,0.3-0.6,0.4s-0.6,0.2-1.1,0.2
		c-0.5,0.1-1,0.1-1.8,0.1c-0.7,0-1.3,0-1.7-0.1c-0.5-0.1-0.8-0.1-1.1-0.2s-0.5-0.2-0.6-0.4c-0.1-0.1-0.2-0.3-0.2-0.5v-33.3
		c0-0.2,0.1-0.3,0.2-0.5c0.1-0.1,0.3-0.3,0.6-0.4s0.6-0.2,1.1-0.2c0.5-0.1,1-0.1,1.7-0.1s1.3,0,1.8,0.1c0.4,0.1,0.8,0.1,1.1,0.2
		s0.5,0.2,0.6,0.4c0.1,0.1,0.2,0.3,0.2,0.5V455.1z M513.9,445.5c0,1.9-0.3,3.5-1,4.9s-1.6,2.6-2.8,3.5c-1.2,0.9-2.6,1.6-4.2,2.1
		s-3.3,0.7-5.1,0.7c-1.2,0-2.3-0.1-3.4-0.3c-1-0.2-2-0.4-2.8-0.7c-0.8-0.3-1.5-0.6-2-0.9s-0.9-0.6-1.2-0.8c-0.2-0.2-0.4-0.6-0.5-1
		s-0.1-1.1-0.1-1.9c0-0.6,0-1,0.1-1.4c0-0.4,0.1-0.7,0.2-0.9c0.1-0.2,0.2-0.4,0.3-0.5c0.1-0.1,0.3-0.1,0.5-0.1
		c0.3,0,0.6,0.1,1.1,0.5c0.5,0.3,1.1,0.6,1.8,1c0.7,0.4,1.6,0.7,2.6,1s2.2,0.5,3.5,0.5c0.9,0,1.7-0.1,2.3-0.3
		c0.7-0.2,1.3-0.5,1.8-0.9s0.8-0.8,1.1-1.4c0.3-0.6,0.4-1.2,0.4-1.9c0-0.8-0.2-1.5-0.7-2.1c-0.4-0.6-1-1.1-1.7-1.5s-1.5-0.9-2.4-1.3
		s-1.8-0.8-2.8-1.2c-1-0.4-1.9-0.9-2.8-1.5c-0.9-0.5-1.7-1.2-2.4-2c-0.7-0.8-1.3-1.7-1.7-2.7c-0.4-1.1-0.7-2.3-0.7-3.8
		c0-1.7,0.3-3.2,0.9-4.5s1.5-2.3,2.5-3.2c1.1-0.8,2.3-1.5,3.8-1.9c1.4-0.4,3-0.6,4.6-0.6c0.8,0,1.7,0.1,2.5,0.2s1.6,0.3,2.3,0.5
		c0.7,0.2,1.4,0.5,1.9,0.7c0.6,0.3,0.9,0.5,1.1,0.7s0.3,0.3,0.4,0.5c0.1,0.1,0.1,0.3,0.2,0.5c0,0.2,0.1,0.5,0.1,0.8s0,0.7,0,1.2
		s0,1,0,1.3c0,0.4-0.1,0.7-0.1,0.9c-0.1,0.2-0.2,0.4-0.3,0.5c-0.1,0.1-0.3,0.2-0.5,0.2s-0.5-0.1-1-0.4c-0.4-0.3-1-0.5-1.6-0.8
		s-1.4-0.6-2.2-0.8c-0.8-0.3-1.8-0.4-2.8-0.4c-0.8,0-1.5,0.1-2,0.3c-0.6,0.2-1.1,0.5-1.5,0.8s-0.7,0.7-0.9,1.2
		c-0.2,0.5-0.3,1-0.3,1.5c0,0.8,0.2,1.5,0.6,2c0.4,0.6,1,1.1,1.7,1.5s1.5,0.9,2.5,1.2c0.9,0.4,1.8,0.8,2.8,1.2
		c1,0.4,1.9,0.9,2.8,1.5s1.7,1.2,2.4,2c0.7,0.8,1.3,1.7,1.7,2.7C513.6,442.9,513.9,444.1,513.9,445.5z M471.8,453.3
		c0,0.5,0,1-0.1,1.3c0,0.4-0.1,0.6-0.2,0.9c-0.1,0.2-0.2,0.4-0.3,0.5c-0.1,0.1-0.3,0.1-0.4,0.1H453c-0.6,0-1.1-0.2-1.5-0.5
		c-0.4-0.4-0.6-0.9-0.6-1.7v-30.7c0-0.8,0.2-1.4,0.6-1.7c0.4-0.4,0.9-0.5,1.5-0.5h17.6c0.2,0,0.3,0,0.4,0.1s0.2,0.3,0.3,0.5
		c0.1,0.2,0.2,0.5,0.2,0.9s0.1,0.8,0.1,1.4c0,0.5,0,0.9-0.1,1.3c0,0.4-0.1,0.6-0.2,0.9c-0.1,0.2-0.2,0.4-0.3,0.5
		c-0.1,0.1-0.3,0.1-0.4,0.1H458v8.6h10.6c0.2,0,0.3,0,0.4,0.1s0.3,0.3,0.3,0.5c0.1,0.2,0.2,0.5,0.2,0.8c0,0.4,0.1,0.8,0.1,1.3
		s0,1-0.1,1.3c0,0.3-0.1,0.6-0.2,0.8c-0.1,0.2-0.2,0.4-0.3,0.4c-0.1,0.1-0.3,0.1-0.4,0.1H458v9.9h12.7c0.2,0,0.3,0,0.4,0.1
		s0.3,0.3,0.3,0.5c0.1,0.2,0.2,0.5,0.2,0.9C471.8,452.3,471.8,452.8,471.8,453.3z M420.9,442.7v12.4c0,0.2-0.1,0.3-0.2,0.5
		c-0.1,0.1-0.3,0.3-0.6,0.4c-0.3,0.1-0.6,0.2-1.1,0.2c-0.5,0.1-1,0.1-1.7,0.1s-1.3,0-1.8-0.1c-0.4-0.1-0.8-0.1-1.1-0.2
		c-0.3-0.1-0.5-0.2-0.6-0.4c-0.1-0.1-0.2-0.3-0.2-0.5v-12.4l-9.7-19.2c-0.3-0.7-0.6-1.2-0.7-1.6s0-0.7,0.2-0.8
		c0.2-0.2,0.6-0.3,1.2-0.4c0.6,0,1.3-0.1,2.3-0.1c0.8,0,1.5,0,2,0.1c0.5,0,0.9,0.1,1.2,0.2c0.3,0.1,0.5,0.2,0.6,0.4
		c0.1,0.2,0.3,0.4,0.4,0.6l4,8.7c0.4,0.8,0.8,1.7,1.1,2.6c0.4,0.9,0.8,1.9,1.1,2.9h0.1c0.3-1,0.7-1.9,1.1-2.9
		c0.4-0.9,0.7-1.8,1.1-2.6l3.9-8.6c0.1-0.3,0.2-0.5,0.3-0.7c0.1-0.2,0.3-0.3,0.6-0.4c0.3-0.1,0.6-0.2,1.1-0.2s1.1-0.1,1.9-0.1
		c1,0,1.8,0,2.4,0.1c0.6,0,1,0.2,1.2,0.4c0.2,0.2,0.3,0.5,0.1,0.9c-0.1,0.4-0.3,0.9-0.7,1.6L420.9,442.7z M383.9,414.3
		c0,1.3-0.3,2.2-0.8,2.7s-1.5,0.8-3,0.8s-2.5-0.3-3-0.8s-0.8-1.4-0.8-2.6c0-1.3,0.3-2.2,0.8-2.7s1.5-0.8,3-0.8s2.4,0.2,3,0.7
		C383.6,412.2,383.9,413,383.9,414.3z M383.7,455.1c0,0.2-0.1,0.3-0.2,0.5c-0.1,0.1-0.3,0.3-0.6,0.4c-0.3,0.1-0.6,0.2-1.1,0.2
		c-0.5,0.1-1,0.1-1.8,0.1c-0.7,0-1.3,0-1.7-0.1c-0.5-0.1-0.8-0.1-1.1-0.2c-0.3-0.1-0.5-0.2-0.6-0.4c-0.1-0.1-0.2-0.3-0.2-0.5v-33.3
		c0-0.2,0.1-0.3,0.2-0.5c0.1-0.1,0.3-0.3,0.6-0.4c0.3-0.1,0.6-0.2,1.1-0.2c0.5-0.1,1-0.1,1.7-0.1s1.3,0,1.8,0.1
		c0.4,0.1,0.8,0.1,1.1,0.2c0.3,0.1,0.5,0.2,0.6,0.4c0.1,0.1,0.2,0.3,0.2,0.5V455.1z M347.9,438.2c0-1.7-0.2-3.2-0.6-4.7
		c-0.4-1.4-1-2.7-1.9-3.7s-2-1.9-3.3-2.5c-1.4-0.6-3.1-0.9-5.3-0.9h-3.6v23.9h3.7c2,0,3.6-0.3,5-0.8c1.3-0.5,2.5-1.3,3.4-2.3
		s1.6-2.3,2-3.8C347.6,442,347.9,440.2,347.9,438.2z M355.3,438c0,3.2-0.4,6-1.3,8.3c-0.8,2.3-2.1,4.2-3.6,5.6
		c-1.6,1.5-3.5,2.5-5.8,3.2s-5,1-8.1,1h-8.4c-0.6,0-1.1-0.2-1.5-0.5c-0.4-0.4-0.6-0.9-0.6-1.7v-30.7c0-0.8,0.2-1.4,0.6-1.7
		c0.4-0.4,0.9-0.5,1.5-0.5h9.1c3.1,0,5.8,0.4,8,1.1s4,1.8,5.5,3.3s2.6,3.2,3.4,5.4C354.9,432.7,355.3,435.2,355.3,438z M304.3,453.3
		c0,0.5,0,1-0.1,1.3c0,0.4-0.1,0.6-0.2,0.9c-0.1,0.2-0.2,0.4-0.3,0.5c-0.1,0.1-0.3,0.1-0.4,0.1h-17.7c-0.6,0-1.1-0.2-1.5-0.5
		c-0.4-0.4-0.6-0.9-0.6-1.7v-30.7c0-0.8,0.2-1.4,0.6-1.7c0.4-0.4,0.9-0.5,1.5-0.5h17.6c0.2,0,0.3,0,0.4,0.1s0.2,0.3,0.3,0.5
		c0.1,0.2,0.2,0.5,0.2,0.9s0.1,0.8,0.1,1.4c0,0.5,0,0.9-0.1,1.3c0,0.4-0.1,0.6-0.2,0.9c-0.1,0.2-0.2,0.4-0.3,0.5
		c-0.1,0.1-0.3,0.1-0.4,0.1h-12.6v8.6h10.6c0.2,0,0.3,0,0.4,0.1s0.3,0.3,0.3,0.5c0.1,0.2,0.2,0.5,0.2,0.8c0,0.4,0.1,0.8,0.1,1.3
		s0,1-0.1,1.3c0,0.3-0.1,0.6-0.2,0.8c-0.1,0.2-0.2,0.4-0.3,0.4c-0.1,0.1-0.3,0.1-0.4,0.1h-10.6v9.9h12.7c0.2,0,0.3,0,0.4,0.1
		s0.3,0.3,0.3,0.5c0.1,0.2,0.2,0.5,0.2,0.9C304.3,452.3,304.3,452.8,304.3,453.3z M263.9,453.1c0,0.5,0,1-0.1,1.4
		c0,0.4-0.1,0.7-0.2,0.9c-0.1,0.3-0.2,0.4-0.3,0.5c-0.1,0.1-0.3,0.2-0.5,0.2h-16.2c-0.6,0-1.1-0.2-1.5-0.5c-0.4-0.4-0.6-0.9-0.6-1.7
		v-32c0-0.2,0.1-0.3,0.2-0.5c0.1-0.1,0.3-0.3,0.6-0.4s0.6-0.2,1.1-0.2c0.5-0.1,1-0.1,1.7-0.1s1.3,0,1.8,0.1c0.4,0.1,0.8,0.1,1.1,0.2
		s0.5,0.2,0.6,0.4c0.1,0.1,0.2,0.3,0.2,0.5v28.4h11.1c0.2,0,0.3,0,0.5,0.1c0.1,0.1,0.3,0.3,0.3,0.5c0.1,0.2,0.2,0.5,0.2,0.9
		C263.9,452.1,263.9,452.6,263.9,453.1z M222.9,453.3c0,0.5,0,1-0.1,1.3c0,0.4-0.1,0.6-0.2,0.9c-0.1,0.2-0.2,0.4-0.3,0.5
		s-0.3,0.1-0.4,0.1h-17.7c-0.6,0-1.1-0.2-1.5-0.5c-0.4-0.4-0.6-0.9-0.6-1.7v-30.7c0-0.8,0.2-1.4,0.6-1.7c0.4-0.4,0.9-0.5,1.5-0.5
		h17.6c0.2,0,0.3,0,0.4,0.1c0.1,0.1,0.2,0.3,0.3,0.5s0.2,0.5,0.2,0.9s0.1,0.8,0.1,1.4c0,0.5,0,0.9-0.1,1.3c0,0.4-0.1,0.6-0.2,0.9
		c-0.1,0.2-0.2,0.4-0.3,0.5s-0.3,0.1-0.4,0.1h-12.6v8.6h10.6c0.2,0,0.3,0,0.4,0.1c0.1,0.1,0.3,0.3,0.3,0.5c0.1,0.2,0.2,0.5,0.2,0.8
		c0,0.4,0.1,0.8,0.1,1.3s0,1-0.1,1.3c0,0.3-0.1,0.6-0.2,0.8c-0.1,0.2-0.2,0.4-0.3,0.4c-0.1,0.1-0.3,0.1-0.4,0.1h-10.6v9.9h12.7
		c0.2,0,0.3,0,0.4,0.1c0.1,0.1,0.3,0.3,0.3,0.5c0.1,0.2,0.2,0.5,0.2,0.9C222.9,452.3,222.9,452.8,222.9,453.3z M173.5,445.8
		c0-0.8-0.1-1.6-0.4-2.2c-0.3-0.6-0.7-1.2-1.2-1.6s-1.2-0.8-2-1s-1.9-0.4-3.2-0.4h-4.2v10h5.2c1,0,1.8-0.1,2.5-0.3
		c0.7-0.2,1.3-0.5,1.8-0.9s0.9-0.9,1.2-1.5C173.4,447.3,173.5,446.6,173.5,445.8z M171.7,430.7c0-0.7-0.1-1.3-0.3-1.9s-0.5-1-1-1.4
		c-0.4-0.4-1-0.7-1.6-0.9c-0.7-0.2-1.5-0.3-2.7-0.3h-3.6v9.1h4c1,0,1.9-0.1,2.5-0.4c0.6-0.2,1.1-0.6,1.5-1s0.7-0.9,0.9-1.5
		C171.6,431.9,171.7,431.3,171.7,430.7z M181,445.5c0,1.3-0.2,2.4-0.5,3.4s-0.8,1.9-1.4,2.7c-0.6,0.8-1.3,1.5-2.2,2
		c-0.8,0.6-1.8,1-2.8,1.4s-2.1,0.6-3.3,0.8c-1.2,0.2-2.4,0.3-3.9,0.3h-9.4c-0.6,0-1.1-0.2-1.5-0.5c-0.4-0.4-0.6-0.9-0.6-1.7v-30.7
		c0-0.8,0.2-1.4,0.6-1.7c0.4-0.4,0.9-0.5,1.5-0.5h8.9c2.2,0,4,0.2,5.5,0.5c1.5,0.4,2.8,0.9,3.8,1.6s1.8,1.7,2.4,2.8
		c0.5,1.1,0.8,2.4,0.8,4c0,0.9-0.1,1.7-0.3,2.4c-0.2,0.8-0.5,1.4-1,2.1c-0.4,0.6-0.9,1.2-1.5,1.6c-0.6,0.5-1.3,0.9-2.1,1.1
		c1,0.2,1.9,0.5,2.8,1c0.8,0.5,1.6,1,2.2,1.8c0.6,0.7,1.1,1.6,1.5,2.5C180.8,443.2,181,444.3,181,445.5z"/>
	<g>
		<path id="XMLID_1106_" style="fill:#007BB5;" d="M300.9,254L300.9,254L300.9,254z"/>
		<path id="XMLID_1107_" style="fill:#007BB5;" d="M378.7,278.4l-0.1-1.5l0,0c-0.3-5.4-2.4-10-5.4-13.7c-2.7-3.2-6.1-5.5-9.9-7.1
			c-3.5-1.4-7.2-2.2-11-2.2c-0.3,0-0.6,0-1,0l0,0c-0.5,0-0.9,0-1.4,0.1h-0.1c-3,0.2-6,0.9-8.8,2.1c-3.8,1.5-7.2,3.9-9.9,7.1
			c-2.5,3-4.3,6.7-5.1,11h-1.7c-0.7-4.2-2.6-7.9-5.1-10.9c-2.7-3.2-6.1-5.5-9.9-7.1c-3.5-1.4-7.2-2.2-11-2.2c-0.3,0-0.6,0-1,0
			c-0.5,0-0.9,0-1.4,0.1h-0.1c-3,0.2-6,0.9-8.8,2.1c-3.8,1.5-7.2,3.9-9.9,7.1c-2.5,3-4.3,6.7-5.1,10.9h-2.2c-0.3-2.1-1-4.1-1.8-6
			c-1.3-2.7-3-5.1-5.1-7.2c-4.6-4.5-10.9-7.3-17.6-7.6c-0.3,0-0.6,0-0.8,0c-2.1,0-4.3,0.3-6.4,0.9c-2.2,0.6-4.4,1.6-6.5,2.9l0,0
			l-0.2,0.1c-0.1,0-0.1,0.1-0.2,0.1l-0.1,0.1c-0.4,0.3-0.7,0.6-1,1c-0.5,0.5-0.8,1.2-0.7,1.9l0.2,18.4c0,1.6,1.4,2.9,3,2.9
			s3-1.3,2.9-2.9l-0.2-17c1.4-0.8,2.9-1.4,4.3-1.9c1.6-0.4,3.2-0.6,4.8-0.6c0.2,0,0.4,0,0.6,0c5,0.2,10,2.4,13.6,5.9
			c1.6,1.6,3,3.4,3.9,5.5c0.9,2,1.5,4.2,1.6,6.5c0,1.6,1.4,2.8,3,2.8h7.5c1.6,0,2.9-1.2,3-2.7c0.3-4.2,1.8-7.6,4.1-10.3
			c2-2.4,4.6-4.2,7.6-5.4c2.2-0.9,4.6-1.5,7.1-1.6h0.1c0.3,0,0.7,0,1-0.1l0,0c0.3,0,0.5,0,0.8,0c3,0,5.9,0.6,8.6,1.7
			c2.9,1.2,5.6,3.1,7.6,5.4c2.3,2.7,3.8,6.1,4.1,10.3c0.1,1.5,1.4,2.7,3,2.7h6.9c1.6,0,2.9-1.2,3-2.7c0.3-4.2,1.8-7.6,4.1-10.3
			c2-2.4,4.6-4.2,7.6-5.4c2.2-0.9,4.6-1.5,7.1-1.6h0.1c0.3,0,0.7,0,1-0.1c0.3,0,0.5,0,0.8,0c3,0,5.9,0.6,8.6,1.7
			c2.9,1.2,5.6,3.1,7.6,5.4c2.3,2.7,3.8,6.1,4.1,10.3l0.1,1.5c0.1,1.6,1.5,2.8,3.1,2.8C377.5,281.4,378.8,280,378.7,278.4
			L378.7,278.4z"/>
	</g>
	<path id="XMLID_1151_" style="fill-rule:evenodd;clip-rule:evenodd;fill:#007BB5;" d="M240.8,193c0.5-0.6,2.7,0,3.2,0.3
		c2.4,1.2,4.9,3.4,5.3,6.2l0.1,0.3c-1.5,0.1-2.2,0.2-3.3-0.4c-0.8-0.4-1.6-1.1-2.3-1.6C241.4,195.7,241.5,195.6,240.8,193
		 M314.3,229.3c4.6-0.3,6.6-0.7,11.6-0.7c8.3,0,18.8,1.2,26.6,4.4c1.2,0.5,2.1,1,3,1.4c-0.6,0-3.7-0.8-4.6-1
		c-10.4-2.2-24.4-3-35.4-3.8l-0.9-0.1C314.4,229.4,314.4,229.4,314.3,229.3z M345.8,219.8c-0.4,1.3-1.4,2.7-2.5,3
		c-1.1-1.4-0.5-3,0-4.4c0.2-0.6,0.5-1.3,0.9-1.8c0.3-0.4,0.3-0.4,0.7-0.7c0.3-0.2,0.7-0.6,0.9-0.5c0.4,0.1,0.6,1.6,0.5,2.1
		C346.3,218.4,346,219.1,345.8,219.8z M349.1,220.6c-0.4,0.4-0.1,0.2-0.5,0.3c-1.4-1.6-1.5-2.4-1.3-5c0.1-1.7,0.7-3.8,2-4.4
		c1.1,1.7,1.5,2.2,1.3,5C350.6,218.2,350.3,219.5,349.1,220.6z M355.7,213.7c0,2.3-0.6,3.9-2,5.1l-0.7-0.3c-0.2-0.2-0.3-0.3-0.4-0.5
		c-0.3-0.5-0.5-0.7-0.6-1.3c-0.3-1-0.2-2.3-0.1-3.5c0.2-2.1,0.7-3.9,2.2-5.2c0.1,0.1,0.2,0.1,0.2,0.1s0,0,0.1,0.1
		c0.2,0.2,0,0,0.2,0.2C355.9,210.3,355.8,211.8,355.7,213.7z M351.3,227.9c0.2,0.3,1.2,1.8,0.7,2.1c-2.4,0.1-3.2-0.1-5-1.2
		c-2.3-1.4-2.2-1.5-2.9-3.5c0.1-0.2,0-0.1,0.3-0.2c1.8-0.7,3.7,0.4,5.1,1.3C350.2,226.9,350.9,227.4,351.3,227.9z M354.5,224
		c1.3,0.8,2.9,1.9,3.1,3.7c-1.2,0.9-4-0.4-5-0.9c-1.4-0.8-2.7-1.6-3-3.6c0,0-0.4-0.1,0.2-0.3C351.4,222.4,353.2,223.2,354.5,224z
		 M357.7,205.5c1.5,0.9,2.2,2.7,2.4,4.8c0.1,1,0.2,2.4,0,3.4c-0.2,1.1-0.8,1.7-1.2,2.6c-0.5,0.3-1.7-1.2-1.9-1.6
		C356.1,213,355.6,207,357.7,205.5z M361.5,222.2c1.8,1.1,3.1,2.1,3.6,4.5c0,0,0.3,0.1-0.7,0.2c-2.3,0.3-3.6-0.3-5.6-1.5
		c-2.8-1.6-2.9-2-3.7-4.5c0.1-0.1,0-0.1,0.3-0.2C358.6,220.5,359.1,220.7,361.5,222.2z M370.1,219.5c0.6,0.4,1.6,1.7,1.7,2.5
		c-2.8,1-4,0.6-6.6-0.3c-2.2-0.8-3.5-1.5-4.3-3.7c0.5-0.5,2.4-0.8,3.2-0.7C365.8,217.3,368.9,218.5,370.1,219.5z M375.3,213.9
		c0.6,0.2,2,1.1,2.2,1.7l-0.4,0.4c-2.2,1.5-3.2,1.6-6.2,1.5c-2.8-0.1-3.2-0.3-4.7-1.9c-0.4-0.4-0.4-0.2-0.1-0.4
		c0.3-0.5,1.6-1.3,2.3-1.5C369.9,213.1,373.7,213.3,375.3,213.9z M270.1,234.5c3.6-2.5,13.5-4.7,18.7-5.2c3.8-0.3,7.4-0.6,11.4-0.6
		c1.9,0,10.2,0.2,11.3,0.8l-21.4,1.8c-5.4,0.6-9.9,1.1-15.2,2.2C273.8,233.6,271,234.5,270.1,234.5z M270.6,220.9
		c-0.4,1.3-0.5,1.9-1.3,2.8c-0.6,0.6-1.5,1.2-2.3,1.7c-1.9,1.1-3.6,1.9-6.4,1.4c0.2-2.1,2.1-3.7,3.6-4.6c0.8-0.5,1.7-1,2.7-1.4
		c1-0.3,1.9-0.3,2.9-0.2c0.1,0,0.4,0.1,0.5,0.1c0,0,0,0,0.1,0c0,0,0.1,0,0.2,0.1L270.6,220.9z M248.6,184.3l0.6,0.5
		c1.8,2.1,1.9,6.3,1.3,8.1c-0.3,0.7-0.9,1.8-1.4,2.2c-0.6-0.3-1.5-1.3-1.7-2c-0.5-1.4-0.7-5-0.2-6.5c0.3-0.9,0.8-1.6,1.3-2.3
		C248.7,184.2,248.5,184.2,248.6,184.3z M241.7,200.3c2.2-0.6,3.8,0,5.8,0.9c1.6,0.7,3.8,2.4,3.8,4l-0.8,0.2
		c-2.4,0.6-3.8-0.2-5.7-1.1c-0.9-0.5-1.6-0.9-2.2-1.5c-0.5-0.5-1.2-1.5-1.4-2.2c0,0-0.5,0.2,0-0.2
		C241.6,200.3,241.5,200.4,241.7,200.3z M246.5,207.5c1.7-0.2,5.1,0.4,6.5,1.3c0.7,0.4,1.6,1.3,2,2c-1.6,1.5-3.7,1.3-6,0.8
		c-1-0.2-2-0.5-2.8-0.9c-0.6-0.3-1.7-1.3-2-2c0,0-0.4,0,0.2-0.4C244.9,208,245.9,207.6,246.5,207.5z M276,223c-0.3,2-1.4,2.8-3,3.7
		c-0.7,0.4-1.3,0.8-2.2,1c-0.6,0.2-2.3,0.4-2.9,0c0.2-1.7,1.6-2.9,3-3.7c0.7-0.4,1.4-0.8,2.2-1.1C273.7,222.8,275.4,222.7,276,223z
		 M282.9,220.5c0.1,0.7-0.1,1.7-0.6,2.3c-2.5-1.1-3.8-5.6-2.6-7.4C281.6,216.1,282.7,218.9,282.9,220.5z M276.1,226.4
		c1.3-0.8,3.5-2,5.3-1.2c-0.3,2.1-1.3,2.7-2.8,3.6c-1.9,1.2-2.6,1.4-5,1.3c-0.6-0.2,0.5-1.8,0.7-2.1
		C274.8,227.3,275.4,226.9,276.1,226.4z M264.5,217.9c0.5,0.5,0.1,0.1,0.1,0.1c-0.7,2.2-2.1,2.9-4.2,3.7c-3.6,1.3-3.7,0.9-6.6,0.3
		l0.1-0.3c1.2-2.9,6.5-5.1,9.5-4.2C264,217.6,264.3,217.6,264.5,217.9z M273.7,213.3c0.3,3.1,0,3.8-1.5,5.7c-0.3,0-0.1,0.1-0.2-0.2
		c-1.7-0.9-2-3.5-2.1-5.2c-0.1-1.1-0.1-2.3,0.2-3.3c0.1-0.5,0.9-1.9,1.2-2c0.6-0.4,0.1-0.1,0.3,0
		C273.1,209.2,273.6,211.7,273.7,213.3z M276.7,211.9c1.1,1.2,1.4,2.5,1.5,4.1c0.1,0.9,0.2,2.2-0.1,3c-0.1,0.4-0.3,0.8-0.6,1.1
		c-0.3,0.4-0.4,0.6-0.9,0.9c-0.8-1.4-1.6-1.2-1.8-4.5c-0.1-2.1,0.1-3.6,1.3-5c0.1,0.1,0.1,0.1,0.1,0.1s0,0,0.1,0.1
		C276.6,211.8,276.6,211.8,276.7,211.9z M248.4,215.2c1.6-1.4,2.7-1.7,5-1.8c2-0.1,4.8,0,6.1,1.8c0.2,0.1,0.1,0,0.1,0.2
		c-2,1.7-1.8,2-5.6,2.1c-1.3,0-2.4,0-3.6-0.4c-0.6-0.2-2-0.9-2.4-1.5C248.1,215.5,248,215.6,248.4,215.2z M256.2,188.6l0.1,0.3
		c0.5,2.6-0.1,4-1.1,5.9c-1.1,2.1-1.7,3-4.1,3.6c-0.9-2.3,0-4.2,1.1-6.1C253.6,189.6,254.1,189.7,256.2,188.6z M361.3,202.3
		c0.8,0.6,1.3,1,1.9,1.9c0.4,0.7,0.8,1.8,1.1,2.7c0.6,2.6,0.7,3.9-0.5,6.1c-0.3,0-0.1,0.1-0.2-0.1c-0.7-0.2-1.6-1.1-1.9-1.6
		c-0.4-0.7-0.7-1.8-0.9-2.7c-0.6-2.8-0.7-3.4,0.4-6C361.1,202.3,361,202.4,361.3,202.3z M364.3,198.6c1.9,0.6,2.8,2.3,3.6,4.1
		c1.1,2.7,1.1,3.2,0.4,6c-0.2,0.3-0.8-0.2-1.2-0.4c-2.3-1.2-3.7-6-3.2-8.3L364.3,198.6z M384,192.8l0.8,0.2c-0.4,2.5-1.4,3.5-3,4.8
		c-0.6,0.5-1.4,1.2-2.2,1.6c-1.3,0.7-1.7,0.5-3.2,0.5c-0.2-0.2-0.1,0.3-0.1-0.3c0.3-2.4,1.5-3.6,3-4.8
		C380.8,193.6,381.9,192.8,384,192.8z M268.1,205.7c0.1,0,0-0.2,0.1,0.1c0,0,0.1,0,0.1,0.1c0,0,0,0.1,0.1,0.1l0.2,0.3
		c1.4,2.2,0.8,6.8,0,8.2c-0.3,0.6-1.2,1.4-1.7,1.8l-0.5-0.8c-1.6-1.6-1-6.4-0.1-8.2c0.3-0.5,1.1-1.6,1.7-1.9L268.1,205.7z
		 M381.1,200.1c0.6-0.1,1.2-0.1,1.9,0c1.1,0.2,1.2,0.1,1.4,0.5c-1,2.1-1.9,2.9-4.1,3.9c-0.7,0.4-1.9,0.9-2.8,1.1
		c-0.7,0.1-2.8,0.1-3.2-0.6C375.3,202.2,378.7,200.5,381.1,200.1z M375.3,207.9c2.5-0.5,4-0.7,6.2,0.6l-0.1,0.4
		c-1.1,1.6-2.7,2.3-4.8,2.8c-1.1,0.2-2.2,0.5-3.4,0.4c-0.7-0.1-2.2-0.8-2.5-1.2C371.7,209.1,373.2,208.3,375.3,207.9z M346.8,203.1
		c-0.3,6-3.5,11.1-7.7,15c-2.1,2-5.1,3.9-7.8,5.2c-1.7,0.8-7.8,3.4-9.7,3.3c0.3-0.2,6.7-3.1,8.6-4.2c6.6-3.8,13.2-9.2,15.5-16.7
		c0.6-2.1,0.7-3.2,1-5.5C346.6,200.8,346.8,202.2,346.8,203.1z M322.4,227.8l9-1.5c2.9-0.6,5.8-1.2,8.6-2c10.5-3.1,20-6.6,27.9-14.3
		c1.8-1.8,3.4-3.6,4.7-5.7c1.1-1.6,2-3.5,2.7-5.2c0.2-0.7,0.4-1.5,0.7-2c0.2,3.2-3.6,9.5-6.1,12.3c-7,8.2-18.6,13.5-29,15.8
		C336.2,226.3,327.1,228,322.4,227.8z M367.2,194l1,0.5c1.8,0.9,3.5,4,4,5.7c0.2,0.8,0.3,2.8-0.2,3.4c-2.4-0.5-3-1.5-4.1-3.6
		c-1.2-2.2-1.6-3.2-1.1-5.9C367.1,193.9,366.9,194,367.2,194z M371.8,190c1,1,2.5,3.5,2.9,4.9c0.2,0.8,0.3,2.9-0.2,3.4
		c-2.2-0.5-3-1.5-4-3.4c-0.9-1.6-1.8-3.4-1.3-5.5l0.1-0.7C370,188.6,371.4,189.6,371.8,190z M377.2,184.4c1.4,1.7,1.6,3,1.5,5.7
		c0,1.2-0.1,2.2-0.5,3.1c-0.3,0.7-1,1.5-1.7,1.9c-2.2-2.4-2-7-0.9-9.1C375.8,185.5,376.8,184,377.2,184.4z M249.5,196.7
		c1,2.8,1.7,4.8,3.3,7.3c1.4,2.2,3,4.1,4.7,5.9c3.4,3.4,7.6,6.2,12.5,8.7c5.1,2.6,9.9,4.1,15.5,5.7c2.8,0.8,5.7,1.3,8.7,2l9,1.6
		c-2.9,0.1-6.9-0.5-9.7-0.9c-12.7-1.6-28-6.8-36.7-16.3c-1.7-1.9-3.2-3.8-4.5-6.1C251.2,202.7,249.4,198.8,249.5,196.7z
		 M258.8,194.2c0.6,2.5-0.3,4.2-1.2,5.9c-1.7,3-1.8,2.6-4,3.5l-0.1-0.3c-0.5-2.6,0-3.8,1.2-5.9c1.3-2.2,1.7-2.5,4-3.6
		C258.8,194.1,258.7,193.6,258.8,194.2z M261.1,204.8c-0.8,2.2-1.2,2.9-3,3.8c-0.8,0.4-0.5,0.2-0.6,0.1l-0.3-0.6
		c-0.7-2-0.2-3.6,0.6-5.5c0.4-1,0.7-1.7,1.3-2.4c0.4-0.5,1.7-1.6,2.2-1.5c0.3,0.3,0.4,1,0.5,1.4
		C262.2,201.7,261.6,203.2,261.1,204.8z M264.6,202.3c1.1,2.4,1.1,3.2,0.6,6c-0.5,2.3-1,3.6-3,4.6c-0.5-0.3-1-1.8-1-2.6
		c-0.1-1.3,0.1-2.2,0.4-3.3c0.4-1.6,0.7-2.7,1.8-3.7l0.7-0.6c0.3-0.2,0-0.1,0.4-0.2C264.4,202.3,264.3,202.4,264.6,202.3z
		 M279,200.7c0.3,0.1,0.2-0.3,0.3,1.2c0,0.5,0.1,1,0.2,1.5c0.2,0.8,0.4,1.7,0.7,2.5c1.4,4.3,4.5,8.3,7.9,11.3
		c4.2,3.7,8.9,6.1,13.9,8.4c0.8,0.4,1.6,0.6,2.3,1c-1.8,0.1-8-2.5-9.5-3.3c-6.9-3.5-13.3-8.9-15.2-16.9
		C279,205.3,278.5,201.8,279,200.7z"/>
	<path id="XMLID_1157_" style="fill-rule:evenodd;clip-rule:evenodd;fill:#007BB5;" d="M332.1,214.7c-1.5,0-2.8-0.4-4-1.1
		c-1.1-0.7-2.2-1.9-3-3.3l-0.2-0.3l2.3-1.3l0.2,0.3c0.6,1,1.2,1.8,2,2.3s1.6,0.7,2.6,0.7c1.5,0,2.8-0.5,3.7-1.4
		c1-0.9,1.5-2.2,1.5-3.7s-0.5-2.8-1.5-3.8s-2.2-1.5-3.6-1.5c-0.9,0-1.8,0.2-2.5,0.6c-0.8,0.4-1.6,1.1-2.4,2.1l-0.8,1l1.4-11.9h10
		v2.4h-7.7l-0.5,3.6c0.2-0.1,0.5-0.2,0.7-0.2c0.4-0.1,0.9-0.2,1.4-0.2c2.4,0,4.3,0.7,5.8,2.2s2.3,3.4,2.3,5.6c0,2.1-0.8,4-2.2,5.5
		C336.1,213.9,334.3,214.7,332.1,214.7z M317,214.7c-1.5,0-2.8-0.4-4-1.1c-1.1-0.7-2.2-1.9-3-3.3l-0.2-0.3l2.3-1.3l0.2,0.3
		c0.6,1,1.2,1.8,2,2.3s1.6,0.7,2.6,0.7c1.5,0,2.8-0.5,3.7-1.4c1-0.9,1.5-2.2,1.5-3.7s-0.5-2.8-1.5-3.8s-2.2-1.5-3.6-1.5
		c-0.9,0-1.8,0.2-2.5,0.6c-0.8,0.4-1.6,1.1-2.4,2.1l-0.8,1l1.4-11.9h10v2.4H315l-0.5,3.6c0.2-0.1,0.5-0.2,0.7-0.2
		c0.4-0.1,0.9-0.2,1.4-0.2c2.4,0,4.3,0.7,5.8,2.2s2.3,3.4,2.3,5.6c0,2.1-0.8,4-2.2,5.5C321,213.9,319.2,214.7,317,214.7z
		 M299.8,214.4l4-6.6c-0.1,0-0.2,0.1-0.4,0.1c-0.4,0.1-0.8,0.1-1.2,0.1c-2.1,0-3.8-0.7-5.2-2.1c-1.4-1.4-2.1-3.1-2.1-5.2
		c0-2.2,0.7-4,2.1-5.4s3.2-2.1,5.3-2.1c2.1,0,3.9,0.7,5.3,2.1c1.4,1.4,2.1,3.3,2.1,5.5c0,0.8-0.1,1.6-0.3,2.3
		c-0.2,0.7-0.6,1.6-1.2,2.5l-5.4,8.9h-3V214.4z M302.3,195.7c-1.3,0-2.4,0.5-3.3,1.4s-1.4,2.1-1.4,3.5c0,1.5,0.4,2.7,1.3,3.7
		s2,1.4,3.5,1.4c1.4,0,2.5-0.5,3.3-1.4c0.9-0.9,1.3-2.1,1.3-3.5s-0.5-2.6-1.4-3.6C304.7,196.1,303.6,195.7,302.3,195.7z
		 M290.2,214.4v-15.8l-3.5,3.5l-1.8-1.7l8-7.9v22h-2.7V214.4z"/>
	<path id="XMLID_1158_" style="fill:#007BB5;" d="M461.4,244.1L461.4,244.1L461.4,244.1z"/>
	<g>
		<path id="XMLID_1159_" style="fill:#007BB5;" d="M324.3,327.3l-0.8-11.6c0,0-0.4-3.8-1.2-8.9c-0.4-2.7-3.6-3.3-5.4-3.3h-66
			c-3.4,0-6.1,2.6-6.2,5.8l-1.2,17.9c-0.2,2.6,1.7,4.8,4.2,5.1l2.5,0.3c2.8,0.3,5.2-1.7,5.4-4.5l0.7-10.8c0.1-0.7,0.1-1.1,0.2-1.4
			c0.3,0,0.9-0.1,1.7-0.1h18.3v68.8c-0.9,0.1-1.7,0.1-2.6,0.1h-1c-2.7,0-4.9,2.2-4.9,4.9v2.4c0,2.7,2.2,4.9,4.9,4.9h24.6
			c2.7,0,4.9-2.2,4.9-4.9v-2.4c0-2.7-2.2-4.9-4.9-4.9h-1.3c-0.6,0-1.6,0-2.6-0.1v-34c0-2.6,0-5.3,0.1-7.9V341
			c0.1-3.6,0.1-7.2,0.2-10.8v-1c0-2.6-2.1-4.8-4.7-4.8v-8.7h20.2c0.8,0,1.4,0,1.7,0.1c0.1,0.3,0.1,0.7,0.2,1.4l0.7,10.9
			c0.2,2.8,2.7,4.8,5.4,4.5l2.5-0.3C322.6,332.1,324.5,329.9,324.3,327.3z"/>
		<path id="XMLID_1183_" style="fill:#007BB5;" d="M594.9,290h-7.2v-3.6c0-3.3-1.3-6.3-3.5-8.4c-2.2-2.2-5.2-3.5-8.4-3.5h-5.6
			c-3.3,0-6.2-2.2-7.1-5.4l-0.6-2.2c-1.6-5.5-6.6-9.3-12.3-9.3H543c-0.4-0.2-0.9-0.3-1.3-0.5c0.2-3.9,0.2-3.9-2.3-5.1
			c0.9-1.2,1.7-2.5,2.7-3.7c0.2-0.3,0.8-0.5,1.2-0.5c1.4,0.1,2.4-0.4,2.8-1.8c0.4-1.6,0.2-3.2-1.2-3.8c-1.8-0.8-3.3-1.9-4.7-3.1
			c-0.1-0.1-0.4-0.1-0.5-0.2c-0.5-0.5-1-1.1-1.3-1.7c-0.4-0.7-0.4-1.7-0.9-2.1c-1.7-1.1-4.9,0.5-5.5,2.4c-0.1,0.5-0.6,1-1,1.2
			c-1.8,0.5-3,1.6-3.8,3.3c-0.1,0.3-0.4,0.5-0.4,0.5c-0.4-2.4-0.5-4.8-1.2-7.2c-1-3.5-2.4-6.9-3.5-10.3c-0.3-1-0.7-1.4-1.7-1.2
			c-5.2,1.1-10.7,1.2-15.7,4.2c-0.5-6.1-1-12.1-1.5-18.2c1.4-0.3,2.4-1,2.2-2.6c-0.3-1.7-1.6-2-3-2.1c-1.1-0.1-2.1-0.2-3.3-0.4
			c0.1-0.8,0.2-1.4,0.3-2.1c1.9,0.9,3.7,1.7,5.6,2.6c1.7-3.1,3.3-6.2,5-9.3c-23.4-12.5-46.5-24.8-69.6-37.2c0.8-2.3,1.6-4.3,2.1-6.4
			c1-4.2,0.1-6-3.7-8.1c-1.9-1-3.2-1-4.8,0.4c-1.2,1.1-2.4,2.4-3.4,3.7c-1.9,2.7-3.5,5.6-5.3,8.4c-4.2,6.2-6,13.3-6.5,20.6
			c-0.1,1.6,0.1,3.7,1,4.8c1.7,2.2,1.6,4.4,1.6,6.8c0,2.1,0,4.2,0,6.3c0,0.6-0.1,1.3-0.3,1.8c-1.2,2.5-1.3,5.1-0.8,7.7
			c0.8,4.1-0.4,8.5,1.8,12.4c0.2,0.3,0,0.8,0,1.2c0,6.9,0,13.8,0,20.7c0,3.8,0.7,7.8-1.8,11.4c-4.2,0.6-2,4.2-2.7,6.5
			c-0.5,0.2-1,0.4-1.5,0.6h-6c-2.7,0-5.2,1.1-7,2.9s-2.9,4.3-2.9,7v3c0,1.1-0.4,2.1-1.2,2.8c-0.7,0.7-1.7,1.2-2.8,1.2h-3.8v-13.7
			c0-5.8-2.3-11-6.1-14.8c-3.8-3.8-9-6.1-14.8-6.1H217.8V215c0-1.1-0.9-1.9-1.9-1.9h-7.4v-23.2h1.6c1,0,1.8-0.8,1.9-1.7
			c0.6-6.9,0-32.3-40.8-44.9c-40.8,12.6-41.4,38-40.8,44.9c0.1,1,0.9,1.7,1.9,1.7h1.6v23.2h-7.4c-1.1,0-1.9,0.9-1.9,1.9v24.8h-10.3
			c-3.9,0-7.5,1.6-10,4.1c-2.6,2.6-4.1,6.1-4.1,10V290h-7.5c-3.4,0-6.1,2.7-6.1,6.1s2.7,6.1,6.1,6.1h2.1c0.8,0,0.5,0,1.9,0.2v82.2
			c-1.5,0.2-1.2,0.2-1.9,0.2h-2.1c-3.4,0-6.1,2.7-6.1,6.1s2.7,6.1,6.1,6.1h43.1c14.8,0,27.6-6.3,34.3-16.7
			c3.1-4.9,4.8-10.7,4.8-16.7c0-3.9-0.8-7.7-2.5-11.1c-2.8-6-8.1-10.8-15.1-14.1c-1.4-0.7-2.9-1.3-4.5-1.8c5.2-3,7.8-6.8,9.1-9.1
			c1.8-3.3,2.7-6.9,2.7-10.8c0-3.1-0.6-6.1-1.8-8.8c-2.5-5.7-7.4-10.4-14.2-13.5c-6.4-2.9-14.2-4.4-23-4.4h-19.5v-35.9
			c0-2.3,0.9-4.4,2.4-5.9s3.6-2.4,5.9-2.4h10.3v21.9c0,5.4,4.3,9.7,9.7,9.7h73.8c5.4,0,9.7-4.3,9.7-9.7v-21.9h153.5
			c4.2,0,7.9,1.7,10.6,4.4s4.4,6.5,4.4,10.6v19.5h9.6c2.7,0,5.2-1.1,6.9-2.9c1.8-1.8,2.9-4.2,2.9-6.9v-3c0-1.1,0.5-2.2,1.2-2.9
			c0.8-0.8,1.8-1.2,2.9-1.2H550c3.1,0,5.9,2.1,6.7,5.1l0.6,2.2c1.6,5.7,6.8,9.6,12.7,9.6h5.6c1.7,0,3.2,0.7,4.3,1.8
			c1.1,1.1,1.8,2.6,1.8,4.3v3.6h-8.2c-2.7,0-4.9,2.2-4.9,4.9v2.6c0,2.7,2.2,4.9,4.9,4.9c0,0,3.2,0,4.6,0.2v67.2l-8.5-13.3
			c2.4-1.5,3.1-4.7,1.6-7.1l-4.2-6.5c-1.6-2.5-3.3-5-4.9-7.5l-1.9-2.9c-2.1-3.2-4.3-6.6-6.4-9.8L535.2,293c-1.1-1.9-3.2-3-5.4-3
			h-18.4c-2.7,0-4.9,2.2-4.9,4.9v2.6c0,2.7,2.2,4.9,4.9,4.9c0,0,4.6,0.3,5.2,0.5c0,0.2,0.1,0.5,0.1,1.1v80.7c-1,0.1-2.3,0.2-3.9,0.2
			H511v-0.1h-6.3c-2.4,0-3.4-0.6-4.2-2.7L475.2,313c-0.4-1.1-2.4-9.5-7.1-9.5h-1.5c-2.5,0-4.8,1.6-5.8,3.9l-28.1,77
			c-0.4,0.1-1.1,0.1-2.3,0.1h-5.7v0.2c-0.1,0-0.2,0-0.3,0l-5.5-69c0.6-0.1,0-0.1,1.2-0.1h1.5c2.7,0,4.9-2.2,4.9-4.9v-2.4
			c0-2.7-2.2-4.9-4.9-4.9H412c-2.3,0-4.5,1.3-5.6,3.5l-24.8,52.3c-0.6,1.3-2.4,1.3-3,0l-8.4-17.6c-2-4.1-3.9-8.3-5.7-12.4l-1.7-3.7
			c-1-2.2-3.6-3.2-5.8-2.2l-8-16.6c-1.1-2.1-3.2-3.4-5.6-3.4h-8.9c-2.6,0-4.5,2.2-4.3,4.8l0.5,4.5c0.2,1.5,1.4,2.7,2.9,2.8
			c1.1,0,1.9,0,2.5,0.1l-5.4,69c-0.5,0-1.2,0.1-2.1,0.1h-2c-2.7,0-4.9,2.2-4.9,4.9v2.4c0,2.7,2.2,4.9,4.9,4.9h24.8
			c2.7,0,4.9-2.2,4.9-4.9v-2.4c0-2.7-2.2-4.9-4.9-4.9h-7c-0.3,0-0.7,0-1.2,0l4.1-51.9l27.6,53.3c1.4,2.7,5.2,2.7,6.6,0
			c7.7-15.3,26.1-52.6,26.1-52.6l4.1,51.2c-0.2,0-0.5,0-0.7,0h-3.2c-2.7,0-4.9,2.2-4.9,4.9v2.4c0,2.7,2.2,4.9,4.9,4.9h16.9l0,0h23.2
			c2.7,0,4.9-2.2,4.9-4.9v-2.7c0-2.7-2.2-4.9-4.9-4.9h-0.4c-0.6,0-1.1,0-1.5,0l4.9-13.5h27.2l5,13.6c-0.2,0-0.5,0-0.7,0h-1.7
			c-2.7,0-4.9,2.2-4.9,4.9v2.7c0,2.7,2.2,4.9,4.9,4.9h30.4l0,0h23.4c2.7,0,4.9-2.2,4.9-4.9v-2.6c0-2.7-2.2-4.9-4.9-4.9h-3.1
			c-0.7,0-0.4,0-1.9-0.2v-67.8l49.1,77.2c1.1,1.9,3.2,3,5.4,3l0,0h2.2c2.6,0,4.8-2.2,4.8-4.8v-89.7c1.4-0.2,1.1-0.2,1.9-0.2h2.1
			c2.7,0,4.9-2.2,4.9-4.9v-2.6C599.7,292.2,597.6,290,594.9,290z M109.6,302.5h15.8c6.8,0,12.8,1.1,17.4,3.2
			c2.8,1.3,6.4,3.5,7.9,7.2c0.5,1.2,0.8,2.5,0.8,3.9c0,1.7-0.4,3.3-1.1,4.7c-3.7,7-14.1,7.5-17.2,7.5h-14.4c-2.8,0-5.9-0.1-9.1-0.2
			v-26.3H109.6z M109.6,346.2h23.5c7.1,0,13.4,1.2,18.3,3.5c3,1.4,7.1,4,9.1,8.2c0.8,1.7,1.2,3.7,1.2,5.7c0,3.7-0.9,7.1-2.8,10.1
			c-4.2,6.7-12.9,10.8-23.2,10.8h-26v-38.3H109.6z M182.7,271.6H180c0-6.1,0-15.4,0-19.2c0-5.9-8.8-9.6-8.8-9.6s-8.8,3.7-8.8,9.6
			c0,3.8,0,13.1,0,19.2h-2.7V236h23V271.6z M212,265.7c0,3.2-2.6,5.8-5.8,5.8h-17.6V236v-5.8h-5.8h-23H154v5.8v35.6h-17.6
			c-3.2,0-5.8-2.6-5.8-5.8V219h3.6h5.8v-5.8V190v-5.8h-3.6c0.1-2.5,0.7-6,2.3-9.7c4.7-10.9,15.9-19.5,32.7-25
			c29.8,9.8,34.6,26.5,35.1,34.7h-3.6v5.8v23.2v5.8h5.8h3.6L212,265.7z M468.9,194.4c0.5,1.6,3,9.9,3.2,10.7l-4.4-1.3
			C468.2,199.3,468.9,194.4,468.9,194.4z M467.4,207.2l2.4,0.6l-2.6,1.9C467.2,209.2,467.3,208.3,467.4,207.2z M473.7,209.6
			c0,0,1.9,7.6,2.5,9.5l-11,4.7c0.2-2.4,1-9.6,1-9.6L473.7,209.6z M468.2,242.1l-5-2c0.5-3.9,0.9-7.8,1.4-11.7h0.1l1.1,0.4l1.8,0.7
			l4.8,1.9l1.9,0.7l6.2,2.4c0.2,0.8,0.5,1.6,0.7,2.4L468.2,242.1z M482.2,240.6c0.8,2.8,1.6,5.5,2.4,8.3l-11.6-4.8L482.2,240.6z
			 M457.6,221.4c0.2-0.8,0.4-1.6,0.6-2.3c0.1,0,0.2-0.1,0.4-0.2l4.1-2.5c-0.3,2.2-0.5,4.4-0.8,6.6L457.6,221.4z M459.6,226.3
			l-3.6,1.5c0.2-0.9,0.4-1.8,0.7-2.7L459.6,226.3z M459.5,213.7c0.6-2.3,1.2-4.6,1.9-7.6l2.4,0.7c-0.4,1.9-0.5,3.5-0.7,4.7
			L459.5,213.7z M468.8,226.3l8.4-3.4c0.6,2.3,1.3,4.5,1.9,6.8L468.8,226.3z M465.8,190c-0.5,4.6-1,8.4-1.5,13l-1.8-0.5
			c1.1-4.3,2-8.1,3.1-12.5C465.6,190,465.7,190,465.8,190z M443.1,256.2c-5.6,0.1-11.2,0.1-17.2,0.1V249c-3.5-1.3-3-1.7-2.9-3.9
			c0-9.2-0.1-18.4,0.1-27.6c0.1-3.4,0.7-6.9,1.3-10.3c0.6-3.5,1-7-0.9-10.3c-0.2-0.4-0.3-1-0.3-1.5c0-3,0-5.9,0-8.9
			c0-0.8,0.3-1.2,1-1.7c1.4-1.1,2.6-2.6,3.5-4.1c2.4-4.1,4.6-8.3,7-12.5c4.1,2.2,8,4.3,11.9,6.3c4.9,2.6,9.7,5.2,14.6,7.8
			c1,0.5,1.2,1.1,1,2.2c-5.9,23.5-11.8,46.9-17.7,70.4C444.2,255.3,443.5,256.2,443.1,256.2z M457.9,256.1h-9
			c0.2-0.9,0.4-1.8,0.7-2.6l9.1-3.6C458.4,251.9,458.2,254,457.9,256.1z M459.2,245.5l-8.5,3.3c0.7-2.9,1.5-5.9,2.2-8.8l6.6,2.7
			C459.4,243.6,459.3,244.6,459.2,245.5z M460,238.7l-5.6-2.3c-0.2-0.1-0.3-0.1-0.5-0.1c0.3-1.2,0.6-2.5,0.9-3.7l6.2-2.7
			C460.7,232.8,460.3,235.8,460,238.7z M461.3,256c0.3-2.5,0.6-5.1,0.9-7.6l6-2.4l17.5,7.4c0.1,0,0.2,0.1,0.3,0.1
			c0.2,0.9,0.5,1.7,0.7,2.6L461.3,256z M496.5,242.2c-0.7,2.5-1.6,4.9-2,7.5c-0.3,2.1-0.1,4.3-0.1,6.4c-2.4,0.6-2.7,0.5-3.3-1.7
			c-4.5-15.9-8.9-31.8-13.4-47.6c-1.5-5.3-3-10.6-4.5-15.9c-0.2-0.6-0.2-1.3-0.4-2.3c7.9,4.2,15.4,8.2,23,12.3c0,0.2,0,0.4,0,0.5
			c-0.1,3.2-1.8,4.8-4.9,5.1c-0.3,0-0.5,0.2-0.8,0.3c-1.7,0.8-2.5,1.9-2.1,3.1c0.6,1.5,1.8,2,3.4,1.6c0.3-0.1,0.7-0.1,1.3-0.1
			c1.1,6.9,2.2,13.7,3.3,20.5c0.4,2.6,0.9,5.1,1.2,7.7C497.1,240.5,496.7,241.4,496.5,242.2z M502.1,235c0.8,2.7,1,2.7-1.5,4.1
			c-0.5,0.3-1.1,0.6-1.9,1.1c-1.5-9.8-3.1-19.3-4.6-29c2.5-0.4,5-0.7,7.5-1c0.4,4.1,0.7,8,1,11.9c0.1,1.5,0.2,3,0.4,4.5
			c0.2,1.7,0.2,3.2-0.9,4.7C501.6,232.1,501.8,233.9,502.1,235z M455.3,358.6l11.5-31.5l11.5,31.5H455.3z"/>
		<path id="XMLID_1186_" style="fill:#007BB5;" d="M249,384.6h-1.5c0,0-1.3-0.6-2.1-2.7L220.1,313c-0.4-1.1-2.3-9.5-7.1-9.5h-1.5
			c-2.5,0-4.8,1.6-5.8,3.9l-28.1,77c-0.4,0.1,1,0.1-0.2,0.1h-0.9c-2.7,0-4.8,2.2-4.8,4.8v2.7c0,2.7,2.2,4.8,4.8,4.8h16.3
			c2.7,0,4.8-2.2,4.8-4.8v-2.7c0-2.7-2.2-4.8-4.8-4.8h-0.4c-0.6,0-1.1,0-1.5,0l4.9-13.5H223l5,13.6c-0.2,0-0.5,0-0.7,0h-1
			c-2.7,0-4.9,2.2-4.9,4.9v2.7c0,2.7,2.2,4.9,4.9,4.9H249c2.7,0,4.8-2.2,4.8-4.8v-2.7C253.8,386.7,251.6,384.6,249,384.6z
			 M200.3,358.6l11.5-31.5l11.5,31.5H200.3z"/>
		<polygon id="XMLID_1187_" style="fill:#007BB5;" points="146,204.3 146,204.3 143.9,207 146,209.7 148.1,207 146.8,205.4 
			150.9,200.1 150.9,200.1 152.3,198.3 152.4,198.3 152.4,198.3 153.8,200.1 157.7,205.2 156.4,206.9 158.5,209.6 158.6,209.5 
			158.7,209.7 160.9,207 159.4,205.2 160.8,203.5 164.9,198.2 164.9,198.3 164.9,198.3 166.3,200.1 170.3,205.1 168.9,206.9 
			171,209.6 171.1,209.5 171.3,209.7 173.4,207 172,205.1 173.3,203.4 177.4,198.2 177.4,198.2 177.4,198.2 178.9,200 182.8,205.1 
			181.5,206.8 183.6,209.5 183.7,209.4 183.8,209.6 185.9,206.9 184.5,205.1 185.8,203.4 189.9,198.1 190,198.2 190,198.1 
			194.1,203.4 195.5,205.2 194.2,206.8 196.3,209.5 198.5,206.8 196.3,204.1 196.3,204.2 194.9,202.3 190.8,197.1 192.1,195.5 
			192.1,195.4 192.1,195.4 190,192.7 187.8,195.4 187.9,195.4 187.9,195.5 189.1,197 187.7,198.9 183.7,204 179.7,198.9 
			178.3,197.1 179.5,195.5 179.5,195.5 179.5,195.5 177.4,192.8 175.3,195.5 175.3,195.5 175.3,195.5 176.6,197.1 172.5,202.4 
			171.1,204.1 167.2,199 165.7,197.2 167,195.6 167,195.5 167,195.5 167,195.5 167,195.5 166.1,194.5 164.9,192.8 162.8,195.5 
			162.8,195.6 162.8,195.6 164,197.2 162.6,199 158.6,204.1 154.6,199.1 153.2,197.2 154.5,195.6 154.5,195.6 154.5,195.6 
			154.4,195.6 153.6,194.5 152.3,192.9 150.2,195.6 150.3,195.6 150.3,195.6 151.5,197.2 150.1,199 		"/>
		<path id="XMLID_1188_" style="fill:#007BB5;" d="M198.5,187.7h-54.6c-1.1,0-1.9,0.7-1.9,1.6c0,0.9,0.9,1.6,1.9,1.6h54.6
			c1.1,0,1.9-0.7,1.9-1.6C200.4,188.5,199.5,187.7,198.5,187.7z"/>
		<path id="XMLID_1189_" style="fill:#007BB5;" d="M198.5,211.5h-54.6c-1.1,0-1.9,0.7-1.9,1.6c0,0.9,0.9,1.6,1.9,1.6h54.6
			c1.1,0,1.9-0.7,1.9-1.6S199.5,211.5,198.5,211.5z"/>
	</g>
</g>
</svg>
