<?xml version="1.0" standalone="no"?>
<!DOCTYPE svg PUBLIC "-//W3C//DTD SVG 20010904//EN"
 "http://www.w3.org/TR/2001/REC-SVG-20010904/DTD/svg10.dtd">
<svg version="1.0" xmlns="http://www.w3.org/2000/svg"
 width="3488.000000pt" height="2448.000000pt" viewBox="0 0 3488.000000 2448.000000"
 preserveAspectRatio="xMidYMid meet">

<g transform="translate(0.000000,2448.000000) scale(0.100000,-0.100000)"
fill="#000000" stroke="none">
<path d="M17305 20863 c-60 -41 -193 -128 -295 -191 -215 -134 -247 -154 -297
-186 -93 -59 -844 -512 -1223 -736 -124 -73 -259 -153 -300 -178 -41 -25 -91
-54 -110 -65 -19 -10 -93 -54 -165 -96 -71 -43 -183 -109 -248 -147 -65 -38
-133 -77 -150 -88 -18 -10 -241 -140 -497 -289 -256 -148 -494 -287 -529 -308
l-64 -37 54 -6 c30 -3 263 -10 519 -16 256 -6 493 -13 526 -16 l61 -5 58 -197
c31 -108 84 -289 117 -402 68 -235 157 -539 229 -785 27 -93 61 -213 76 -265
14 -52 29 -98 33 -103 7 -8 139 83 300 207 120 92 393 360 496 486 198 242
348 505 513 900 120 287 204 425 338 556 108 105 243 179 418 231 85 24 411
24 501 0 240 -66 432 -206 571 -418 67 -103 111 -192 188 -380 69 -169 224
-480 299 -597 179 -284 446 -580 680 -757 22 -17 62 -48 90 -69 134 -105 230
-167 237 -154 3 7 59 195 124 418 64 223 125 432 135 465 11 33 53 179 95 325
128 443 155 533 161 539 3 3 261 13 574 21 313 9 572 18 574 21 3 3 -19 18
-49 35 -29 16 -143 81 -252 145 -860 504 -1165 679 -1175 673 -7 -4 -8 -3 -4
4 4 6 -13 22 -41 38 -45 26 -409 240 -648 382 -60 35 -123 73 -140 82 -16 10
-73 44 -125 75 -52 32 -108 66 -125 75 -35 20 -254 153 -305 184 -19 13 -64
40 -100 61 -152 90 -801 495 -822 512 -9 8 -22 12 -29 7 -8 -4 -10 -3 -5 4 4
6 -5 17 -22 26 -16 8 -52 33 -80 55 -28 23 -53 41 -54 41 -2 0 -52 -35 -113
-77z m536 -246 c10 -37 8 -84 -8 -145 -5 -21 -3 -22 20 -17 25 7 26 6 16 -29
-6 -20 -7 -47 -3 -59 4 -12 8 -65 9 -117 1 -81 -1 -98 -18 -117 -17 -19 -17
-23 -3 -45 15 -23 14 -25 -14 -42 -31 -18 -37 -30 -20 -41 20 -12 9 -36 -20
-46 -28 -10 -41 -29 -20 -29 18 0 10 -29 -11 -40 -16 -9 -19 -17 -14 -41 6
-24 3 -30 -18 -38 -13 -5 -27 -19 -30 -30 -4 -17 -13 -21 -50 -21 -39 0 -46
-3 -51 -25 -4 -16 -16 -27 -34 -32 l-27 -6 30 -13 c42 -18 111 -17 281 6 82
11 167 20 188 20 l40 0 -27 -28 c-28 -29 -27 -42 5 -42 22 0 23 -18 3 -44 -21
-27 -19 -33 13 -41 l27 -7 -40 -34 -40 -34 23 -20 24 -20 -41 -16 c-23 -9 -41
-18 -41 -19 0 -2 4 -15 9 -28 11 -27 -1 -37 -40 -37 -15 0 -19 -7 -19 -33 0
-18 -6 -41 -13 -51 -13 -17 -15 -17 -45 -2 l-32 16 10 -25 c8 -20 6 -25 -6
-25 -26 0 -67 50 -128 152 -31 54 -65 102 -74 107 -9 4 -89 11 -177 14 -124 4
-175 10 -225 26 -145 47 -189 94 -244 259 -39 116 -53 136 -101 148 -47 11
-86 34 -79 45 10 17 146 79 172 79 41 0 92 -28 148 -82 31 -29 59 -54 63 -56
4 -1 17 30 29 70 36 126 90 186 251 284 128 77 180 137 271 307 28 53 56 95
61 92 4 -3 14 -25 20 -48z m-649 -5 c10 -8 20 -23 23 -33 4 -11 14 -19 24 -19
13 0 23 -16 36 -54 16 -48 21 -53 37 -45 15 8 20 5 28 -18 17 -47 29 -69 29
-55 1 19 29 14 41 -7 5 -11 10 -29 10 -41 0 -15 5 -20 14 -17 17 7 26 -20 16
-47 -3 -10 -33 -37 -65 -60 -76 -53 -121 -117 -154 -218 l-27 -81 -36 44
c-103 128 -118 206 -74 379 15 58 30 149 33 203 6 93 7 97 27 91 12 -3 29 -13
38 -22z m-373 -349 c16 -35 14 -73 -4 -73 -37 0 -74 30 -81 65 -3 19 -4 42 0
50 5 13 9 13 40 -1 19 -9 39 -28 45 -41z m99 -37 c2 -21 -2 -44 -9 -52 -20
-24 -105 -64 -137 -64 -27 0 -52 15 -52 32 0 17 64 40 97 35 29 -5 33 -3 33
17 0 28 37 79 54 73 6 -2 12 -20 14 -41z m62 -99 c0 -36 -26 -64 -77 -81 -59
-20 -92 -20 -121 0 -17 12 -20 19 -12 29 16 20 55 26 87 14 18 -7 29 -7 31 0
18 54 92 84 92 38z"/>
<path d="M17252 18619 c-148 -25 -280 -96 -377 -202 -104 -114 -165 -250 -231
-511 -48 -190 -75 -269 -135 -389 -90 -181 -173 -307 -330 -502 -331 -412
-807 -830 -1379 -1212 -362 -242 -741 -444 -1112 -593 -31 -13 -54 -28 -51
-33 3 -6 1 -7 -6 -3 -6 4 -60 -11 -119 -33 -537 -202 -1175 -327 -1774 -347
l-198 -7 0 -90 c0 -173 49 -418 125 -623 63 -169 249 -505 270 -486 5 4 5 1 1
-6 -14 -24 220 -319 470 -592 302 -329 573 -577 973 -888 58 -45 111 -86 117
-91 68 -55 150 -108 159 -104 5 4 7 3 3 -2 -15 -16 517 -385 1037 -720 705
-455 990 -651 1179 -810 386 -326 724 -756 1013 -1290 113 -208 169 -333 491
-1084 l36 -83 13 28 c7 16 37 85 67 154 29 69 91 211 136 315 134 311 148 342
245 535 89 179 172 328 241 438 19 29 34 56 34 61 0 5 3 11 8 13 4 2 29 37 57
78 61 92 112 160 234 315 107 137 425 456 557 560 48 39 102 83 119 99 16 16
30 28 30 25 0 -2 21 11 47 30 26 19 45 38 41 44 -3 6 -1 7 5 3 7 -4 153 87
339 210 181 120 357 236 393 259 280 181 811 534 902 600 32 23 54 46 50 50
-4 5 -2 5 5 1 12 -7 310 204 479 339 27 22 76 60 108 85 127 98 261 213 258
221 -1 5 2 8 7 7 10 -3 115 88 295 256 168 157 489 503 480 517 -4 8 -3 9 4 5
10 -6 66 58 190 214 162 204 336 503 410 706 73 196 122 448 122 619 l0 85
-104 0 c-326 0 -807 60 -1186 147 -201 46 -541 148 -695 208 -246 96 -283 112
-490 210 -573 270 -1224 716 -1693 1159 -391 370 -638 677 -798 995 -62 125
-90 206 -139 399 -72 285 -127 401 -254 535 -83 87 -219 153 -362 176 -75 13
-242 12 -317 0z m8 -1999 c151 -2258 172 -3473 90 -5070 -35 -665 -142 -2176
-155 -2188 -10 -9 3 1619 15 1918 5 129 15 359 22 510 16 343 16 3442 -1 4310
-25 1317 -25 1317 29 520z m541 66 c-31 -1426 -38 -4369 -12 -4919 6 -120 16
-333 21 -475 12 -300 26 -1940 16 -1931 -10 10 -75 867 -120 1594 -62 984 -79
1495 -79 2350 0 707 7 1023 43 1770 39 801 130 2212 138 2141 2 -15 -1 -254
-7 -530z m-1140 -382 c-88 -270 -247 -620 -395 -872 -92 -157 -229 -357 -329
-482 -47 -58 -83 -108 -80 -113 2 -4 1 -6 -4 -5 -4 2 -49 -42 -99 -97 -604
-665 -1392 -1095 -2236 -1220 -373 -56 -803 -41 -1138 39 -68 16 -66 17 180
46 677 79 1329 301 1914 652 289 174 649 442 881 658 262 243 583 577 745 774
36 44 81 98 100 120 42 48 145 176 210 259 25 32 67 86 94 120 26 34 80 104
118 155 39 51 72 91 75 89 2 -2 -14 -57 -36 -123z m1576 -6 c187 -244 216
-280 378 -476 97 -118 268 -315 344 -397 108 -116 447 -452 525 -521 43 -38
86 -76 95 -85 9 -8 45 -39 81 -67 36 -29 72 -59 80 -66 17 -16 125 -101 180
-141 19 -14 66 -49 103 -76 345 -255 885 -529 1317 -667 326 -104 684 -180
1010 -213 69 -7 131 -15 139 -19 7 -4 -49 -19 -125 -34 -540 -102 -1077 -65
-1633 115 -304 99 -546 215 -896 429 -22 14 -44 23 -50 22 -5 -2 -7 0 -3 4 4
4 -25 30 -65 58 -307 214 -648 547 -878 856 -103 139 -279 400 -279 414 0 2
-27 52 -61 112 -130 232 -273 566 -348 808 -31 102 -38 106 86 -56z m-1622
-1459 c-94 -270 -259 -551 -499 -847 -61 -75 -381 -400 -451 -458 -194 -159
-396 -305 -510 -370 -325 -185 -463 -249 -730 -341 -256 -88 -548 -145 -830
-163 -160 -10 -438 -3 -430 10 3 4 24 12 47 18 77 20 351 109 478 157 455 169
929 409 1311 663 308 204 636 451 621 467 -4 4 -2 5 4 3 14 -4 317 263 474
417 193 190 458 469 522 550 36 46 33 13 -7 -106z m1651 39 c239 -278 799
-810 1060 -1008 374 -283 494 -365 754 -519 127 -75 177 -102 186 -100 4 0 10
-4 13 -10 9 -13 329 -176 466 -235 285 -124 690 -272 873 -317 33 -8 49 -16
43 -22 -14 -14 -423 -12 -556 2 -553 60 -1073 254 -1570 586 -146 98 -336 243
-417 320 -27 25 -48 43 -48 40 0 -12 -313 322 -385 413 -125 155 -269 376
-352 537 -67 133 -171 405 -155 405 5 0 44 -41 88 -92z m-1750 -1387 c-217
-431 -598 -857 -1016 -1137 -387 -260 -793 -418 -1200 -469 -68 -8 -156 -15
-195 -14 -82 0 -84 -1 100 71 169 66 522 245 705 358 269 166 557 370 770 545
41 33 102 83 135 110 128 103 467 392 615 523 63 57 116 98 118 93 2 -5 -13
-41 -32 -80z m1844 23 c56 -51 231 -203 275 -240 22 -18 78 -66 124 -106 46
-40 89 -71 95 -70 6 2 8 0 4 -3 -4 -4 5 -17 20 -28 15 -12 54 -44 87 -73 33
-28 128 -104 210 -168 83 -64 161 -126 175 -137 66 -54 214 -154 224 -151 6 2
8 0 3 -4 -8 -9 182 -137 388 -261 222 -134 619 -326 770 -373 82 -25 64 -33
-65 -27 -838 41 -1748 614 -2239 1412 -73 119 -151 266 -151 286 0 12 10 5 80
-57z m-1546 -785 c-284 -581 -798 -1016 -1489 -1259 -153 -54 -499 -139 -512
-126 -2 2 43 29 99 61 152 86 386 223 443 260 28 17 119 76 203 129 296 188
667 459 656 478 -4 7 -2 8 5 4 13 -8 36 10 281 220 91 78 208 186 260 240 52
55 96 96 98 93 1 -3 -18 -48 -44 -100z m1176 92 c0 -9 119 -126 255 -252 160
-147 516 -433 529 -424 3 3 4 2 1 -1 -18 -25 908 -626 937 -608 7 4 8 3 4 -4
-4 -7 12 -21 41 -36 26 -13 83 -45 126 -70 43 -25 81 -46 85 -46 9 -1 59 -39
51 -40 -20 0 -230 45 -324 71 -335 91 -626 227 -905 423 -332 233 -576 508
-747 843 -36 71 -69 133 -74 139 -5 6 -6 14 -3 17 8 8 24 -1 24 -12z"/>
<path d="M14026 16046 c-134 -50 -178 -220 -84 -325 71 -78 187 -94 270 -35
93 66 115 202 46 289 -53 68 -156 99 -232 71z"/>
<path d="M20706 16048 c-95 -26 -163 -148 -137 -246 14 -50 67 -113 115 -136
35 -16 127 -22 140 -8 4 4 12 8 17 8 5 1 12 2 17 3 4 0 24 16 44 34 107 93 84
267 -44 333 -38 20 -105 25 -152 12z"/>
<path d="M13160 15864 c-117 -43 -189 -135 -198 -253 -6 -95 17 -159 83 -226
79 -81 196 -107 309 -69 68 23 146 104 169 173 30 95 15 208 -36 263 -12 13
-24 28 -27 33 -8 17 -53 50 -94 68 -56 26 -151 31 -206 11z"/>
<path d="M21540 15871 c-79 -24 -151 -83 -188 -155 -34 -68 -37 -178 -6 -246
25 -53 92 -122 143 -147 57 -27 178 -30 235 -5 191 85 240 327 95 472 -74 74
-190 108 -279 81z"/>
<path d="M12115 15611 c-146 -38 -249 -147 -275 -289 -42 -236 167 -450 402
-412 82 13 136 41 201 104 72 71 100 140 101 251 1 71 -3 88 -31 146 -60 121
-171 196 -300 204 -37 2 -81 1 -98 -4z"/>
<path d="M22587 15610 c-95 -24 -184 -95 -228 -181 -108 -216 4 -461 237 -515
160 -37 322 43 396 194 29 60 33 76 33 152 0 72 -4 94 -29 147 -34 75 -104
144 -181 179 -61 28 -167 39 -228 24z"/>
<path d="M14741 11058 c-79 -242 -101 -533 -56 -762 47 -239 172 -496 347
-713 121 -150 251 -272 521 -490 320 -257 687 -592 770 -701 223 -293 247
-697 72 -1227 l-7 -20 17 20 c32 38 123 231 168 355 57 157 102 332 123 475
18 124 15 399 -5 495 -20 88 -82 280 -97 294 -7 8 -11 16 -9 18 7 7 -93 176
-145 245 -140 185 -257 289 -580 515 -132 93 -421 315 -503 388 -170 149 -295
302 -384 471 -73 138 -112 263 -174 553 -16 77 -31 141 -33 143 -2 3 -13 -24
-25 -59z"/>
<path d="M20021 10928 c-55 -245 -91 -358 -153 -482 -97 -195 -212 -337 -403
-501 -119 -101 -381 -302 -548 -419 -38 -27 -64 -52 -60 -58 3 -7 1 -8 -5 -4
-14 9 -170 -107 -276 -206 -71 -65 -129 -133 -222 -260 -96 -130 -189 -363
-220 -547 -22 -135 -15 -410 15 -551 45 -217 121 -441 209 -615 48 -96 90
-162 78 -123 -84 270 -106 382 -113 570 -7 177 4 268 44 393 64 200 149 306
478 601 134 121 236 209 292 253 23 19 40 38 36 44 -3 6 -1 7 4 4 14 -9 151
101 367 293 88 79 205 204 199 214 -3 5 -1 6 4 3 6 -4 38 29 72 72 266 344
381 718 342 1104 -13 125 -47 280 -78 360 l-19 48 -43 -193z"/>
<path d="M17265 7713 c-93 -98 -202 -214 -244 -258 -41 -44 -113 -120 -160
-170 -47 -49 -112 -119 -146 -155 -33 -36 -93 -99 -134 -142 l-73 -76 64 23
c35 13 243 91 463 174 l400 152 70 -48 c86 -59 254 -176 379 -263 51 -36 148
-103 216 -150 67 -47 156 -109 197 -138 41 -29 127 -89 191 -133 65 -44 169
-116 232 -161 63 -44 106 -70 94 -57 -11 13 -49 58 -85 99 -35 41 -102 118
-149 170 -47 52 -130 147 -185 210 -55 63 -112 129 -126 145 -169 192 -361
412 -533 610 -115 132 -230 264 -256 293 l-47 53 -168 -178z"/>
<path d="M18728 7206 c-20 -8 -90 -48 -155 -90 -65 -41 -148 -94 -185 -117
-38 -24 -68 -47 -68 -52 0 -6 18 -7 43 -2 209 35 321 35 412 0 74 -28 95 -41
211 -134 180 -145 534 -396 697 -495 70 -42 152 -86 161 -86 4 0 12 -8 -401
416 -160 164 -301 311 -313 327 -12 15 -26 25 -31 21 -5 -3 -8 -1 -7 4 8 29
-118 159 -191 196 -45 24 -127 29 -173 12z"/>
<path d="M16115 7019 c-55 -13 -153 -90 -221 -174 -31 -38 -130 -146 -220
-238 -90 -93 -161 -174 -157 -180 3 -5 2 -7 -4 -4 -5 3 -83 -68 -174 -159 -90
-90 -161 -164 -157 -164 4 0 -9 -16 -30 -36 l-37 -36 45 25 c25 14 68 37 95
53 131 72 605 407 605 426 0 6 3 9 6 5 6 -6 90 54 139 100 40 36 160 113 185
118 3 1 23 7 45 13 54 16 170 15 285 -3 52 -8 104 -15 115 -15 17 0 17 2 5 14
-19 19 -301 198 -360 230 -55 29 -112 37 -165 25z"/>
<path d="M16860 6750 c0 -28 3 -30 35 -30 l35 0 0 -135 0 -135 35 0 35 0 0
165 0 165 -70 0 -70 0 0 -30z"/>
<path d="M17115 6760 c-16 -11 -25 -20 -20 -20 6 0 4 -4 -4 -9 -20 -13 -18
-67 4 -91 18 -20 18 -21 -2 -35 -30 -21 -38 -67 -18 -105 40 -77 199 -81 248
-7 24 37 21 71 -9 106 -14 17 -21 31 -16 31 15 0 34 55 27 81 -16 63 -144 93
-210 49z m126 -40 c39 -21 9 -80 -41 -80 -33 0 -50 17 -50 51 0 37 47 52 91
29z m14 -130 c-3 -5 0 -18 7 -30 24 -38 -29 -80 -85 -66 -36 9 -50 38 -36 70
10 21 20 26 63 29 28 2 52 4 54 5 2 1 1 -2 -3 -8z"/>
<path d="M17380 6726 c0 -39 4 -55 15 -60 25 -9 45 4 45 30 0 23 3 24 60 24
33 0 60 -2 60 -4 0 -2 -27 -62 -59 -135 -33 -74 -54 -131 -48 -132 7 0 20 -2
29 -4 9 -2 23 2 31 8 20 16 127 271 127 302 l0 25 -130 0 -130 0 0 -54z"/>
<path d="M17770 6769 c-63 -26 -92 -79 -92 -165 0 -75 25 -124 76 -148 99 -47
212 20 191 114 -14 64 -114 103 -170 66 -24 -16 -25 -16 -25 7 0 55 72 99 129
79 26 -9 30 -7 40 15 7 14 9 28 6 31 -11 11 -130 12 -155 1z m96 -194 c21 -32
15 -56 -18 -74 -41 -23 -82 -6 -86 37 -4 43 12 62 54 62 25 0 38 -7 50 -25z"/>
<path d="M5845 5469 c-175 -22 -325 -101 -440 -231 -149 -170 -162 -428 -31
-606 72 -97 173 -168 341 -238 197 -82 229 -97 284 -132 120 -75 121 -78 121
-437 0 -337 -9 -311 94 -275 196 67 322 200 367 390 21 87 16 243 -11 320 -57
168 -179 264 -540 425 -214 95 -278 155 -267 251 6 58 37 97 98 123 91 40 181
8 217 -77 11 -26 22 -56 24 -67 3 -19 12 -20 241 -23 l237 -2 0 35 c0 65 -31
189 -63 248 -47 90 -133 168 -241 221 -142 71 -280 94 -431 75z"/>
<path d="M27581 5470 c-80 -11 -190 -44 -253 -76 -53 -27 -150 -103 -188 -148
-134 -158 -164 -370 -77 -546 40 -82 129 -173 223 -228 39 -23 131 -67 205
-97 238 -99 305 -140 338 -209 60 -123 -28 -256 -169 -256 -107 0 -178 76
-196 208 l-7 52 -240 0 -240 0 7 -91 c21 -280 176 -471 441 -544 82 -23 305
-31 403 -15 205 33 362 138 437 295 46 95 58 152 58 275 0 270 -108 387 -538
584 -185 84 -243 122 -274 177 -59 104 24 224 154 223 89 -2 130 -36 158 -130
l14 -49 237 -3 236 -2 0 35 c0 58 -30 185 -55 235 -107 211 -402 347 -674 310z"/>
<path d="M6839 4510 c-1 -511 -2 -938 -3 -947 -1 -17 18 -18 240 -21 l241 -2
-3 27 c-1 16 -2 443 -3 951 l-1 922 -235 0 -235 0 -1 -930z"/>
<path d="M9150 4490 l0 -950 232 0 231 0 -6 178 c-7 184 -11 971 -5 977 3 3
73 -104 139 -214 9 -14 60 -96 114 -181 54 -85 119 -189 145 -230 26 -41 111
-177 190 -302 l143 -228 208 0 209 0 0 950 0 950 -230 0 -230 0 0 -87 c0 -49
5 -317 10 -597 6 -280 9 -511 6 -513 -2 -2 -72 108 -156 244 -85 136 -181 292
-214 346 -34 54 -70 113 -81 132 -11 18 -81 133 -155 254 l-135 220 -207 1
-208 0 0 -950z"/>
<path d="M11337 4497 c-207 -518 -377 -945 -377 -949 0 -5 112 -8 249 -8 187
0 251 3 259 13 11 14 35 78 144 392 101 291 112 326 204 635 42 140 80 261 84
269 8 15 14 -4 149 -449 44 -146 125 -398 179 -560 l99 -295 261 -3 262 -2
-19 47 c-10 27 -85 215 -166 418 -435 1093 -553 1392 -559 1413 -7 22 -9 22
-199 22 l-192 0 -378 -943z"/>
<path d="M13102 4493 l3 -948 237 -3 238 -2 2 407 c2 249 7 408 12 407 6 -1
99 -143 207 -315 109 -173 224 -354 256 -404 l58 -90 278 -3 c152 -1 277 0
277 3 0 3 -59 89 -132 192 -72 102 -154 219 -182 259 -28 40 -112 158 -186
263 -74 105 -141 201 -149 214 -13 22 2 47 291 482 167 253 307 466 312 473 6
9 -45 12 -242 12 l-250 0 -73 -117 c-41 -65 -77 -124 -82 -133 -27 -53 -376
-595 -385 -598 -9 -3 -12 104 -12 422 l0 426 -240 0 -240 0 2 -947z"/>
<path d="M15670 4491 l0 -951 369 0 c533 0 629 14 780 114 171 114 248 274
239 498 -4 99 -7 113 -41 182 -44 87 -109 151 -197 193 -33 15 -59 31 -59 35
-1 4 17 20 39 34 97 64 170 212 170 346 0 225 -138 401 -370 469 -71 21 -97
22 -502 26 l-428 5 0 -951z m778 505 c58 -30 80 -129 46 -202 -28 -58 -78 -74
-232 -74 l-132 0 0 151 0 151 143 -4 c111 -3 149 -8 175 -22z m64 -703 c64
-29 88 -70 88 -149 0 -78 -26 -119 -95 -154 -46 -23 -63 -25 -212 -29 l-163
-3 0 182 0 182 168 -4 c145 -3 173 -6 214 -25z"/>
<path d="M17330 4490 l0 -950 525 0 525 0 0 210 0 210 -295 0 -295 0 2 168 3
167 288 3 287 2 0 210 0 210 -290 0 -290 0 0 150 0 150 295 0 295 0 0 210 0
210 -525 0 -525 0 0 -950z"/>
<path d="M18710 5423 c0 -17 0 -1859 0 -1875 0 -5 234 -8 520 -8 l520 0 0 210
0 210 -282 2 -283 3 -3 738 -2 737 -235 0 c-217 0 -235 -1 -235 -17z"/>
<path d="M19948 4507 c-2 -514 -2 -941 0 -950 3 -16 45 -17 528 -17 l524 0 0
210 0 210 -297 2 -298 3 0 165 0 165 288 3 287 2 0 210 0 210 -291 0 -291 0 4
148 3 147 298 3 297 2 0 210 0 210 -525 0 -525 0 -2 -933z"/>
<path d="M23238 5198 c-2 -134 -2 -253 0 -266 l4 -23 236 3 c130 2 236 6 235
11 -2 4 -3 122 -3 262 l0 255 -235 0 -234 0 -3 -242z"/>
<path d="M23945 5388 c13 -29 139 -298 282 -598 l258 -545 3 -353 2 -352 238
2 237 3 3 349 2 349 161 346 c89 190 188 402 219 471 32 69 80 173 108 232 27
58 53 116 57 127 6 21 6 21 -248 21 l-254 0 -138 -367 c-76 -203 -141 -374
-145 -382 -8 -16 1 -38 -165 409 -62 168 -116 313 -120 323 -7 16 -29 17 -266
17 l-258 0 24 -52z"/>
<path d="M25730 4490 l0 -950 525 0 525 0 0 210 0 210 -295 0 -295 0 0 170 0
170 285 0 285 0 0 210 0 210 -285 0 -285 0 0 150 0 150 295 0 295 0 0 210 0
210 -525 0 -525 0 0 -950z"/>
<path d="M28572 5178 l3 -263 222 -3 c191 -2 223 0 237 14 14 13 16 48 16 242
0 125 -3 237 -6 250 l-6 22 -234 0 -234 0 2 -262z"/>
<path d="M7560 4471 l0 -921 220 0 220 0 0 300 c0 165 3 300 8 300 9 -1 9 -2
246 -334 l189 -266 264 0 264 0 -53 68 c-29 38 -67 86 -85 108 -17 21 -106
132 -197 246 l-165 207 42 11 c23 5 76 27 117 47 264 130 375 478 250 784 -72
178 -217 301 -405 345 -57 14 -146 18 -492 21 l-423 4 0 -920z m758 495 c143
-45 207 -203 145 -359 -20 -50 -86 -104 -148 -122 -29 -8 -105 -16 -180 -17
l-130 -3 -3 250 c-1 137 0 256 3 264 8 19 239 9 313 -13z"/>
<path d="M21340 4470 l0 -920 348 0 c191 0 391 5 446 10 427 42 696 271 777
665 25 117 26 345 4 464 -60 310 -260 556 -529 646 -142 48 -229 55 -653 55
l-393 0 0 -920z m762 510 c224 -32 349 -193 365 -465 9 -165 -30 -318 -107
-415 -42 -52 -133 -106 -211 -125 -41 -9 -114 -15 -201 -15 l-138 0 0 515 0
515 113 0 c61 0 142 -5 179 -10z"/>
<path d="M29418 5340 c-189 -57 -205 -319 -26 -395 118 -49 258 21 288 144 37
154 -112 296 -262 251z m157 -51 c62 -41 94 -127 75 -199 -16 -60 -65 -109
-125 -124 -153 -39 -276 99 -215 242 44 103 173 142 265 81z"/>
<path d="M29381 5135 c-2 -107 0 -116 16 -113 13 2 18 13 20 38 0 19 1 41 2
48 1 6 12 12 26 12 20 0 33 -11 57 -50 20 -32 38 -50 51 -50 19 0 19 1 2 28
-10 15 -27 38 -39 51 -13 14 -17 25 -10 28 29 10 47 32 47 57 0 44 -23 58
-101 64 l-70 5 -1 -118z m123 79 c16 -6 22 -49 8 -57 -4 -3 -27 -7 -52 -8 -42
-3 -45 -2 -46 21 0 14 2 31 4 38 4 12 59 17 86 6z"/>
<path d="M28785 4732 l-220 -2 2 -583 c2 -320 3 -588 3 -595 0 -10 51 -12 238
-10 l237 3 3 591 3 592 -23 3 c-13 2 -122 3 -243 1z"/>
<path d="M23237 4137 l2 -592 238 -3 238 -2 0 595 0 595 -240 0 -240 0 2 -593z"/>
<path d="M5180 4081 c0 -156 61 -311 161 -413 58 -57 146 -114 207 -133 l22
-6 0 305 0 306 -195 0 -195 0 0 -59z"/>
<path d="M11767 3698 l-127 -153 257 -3 c141 -1 258 0 261 2 5 6 -239 298
-254 303 -5 2 -67 -65 -137 -149z"/>
<path d="M5735 3709 c-61 -72 -120 -144 -133 -160 l-23 -29 266 0 267 0 -19
24 c-26 34 -213 258 -232 279 -16 16 -23 10 -126 -114z"/>
</g>
</svg>
