<?xml version="1.0" encoding="UTF-8"?>
<svg id="Layer_2" data-name="Layer 2" xmlns="http://www.w3.org/2000/svg" viewBox="0 0 223.87 224.01">
  <defs>
    <style>
      .cls-1 {
        fill: #00a651;
      }

      .cls-1, .cls-2, .cls-3, .cls-4, .cls-5 {
        fill-rule: evenodd;
      }

      .cls-2 {
        fill: #00aeef;
      }

      .cls-4 {
        fill: #f58220;
      }

      .cls-5 {
        fill: #efeff0;
      }
    </style>
  </defs>
  <g id="Layer_1-2" data-name="Layer 1">
    <g>
      <path class="cls-5" d="M111.94.2c61.7,0,111.74,50.11,111.74,111.91s-50.04,111.91-111.74,111.91S.2,173.9.2,112.1C.2,50.31,50.24.2,111.94.2h0Z"/>
      <path class="cls-2" d="M112.11,37.53c40.71,0,73.72,32.52,73.72,72.62,0,1.84-.07,3.65-.21,5.46H38.6c-.14-1.8-.21-3.62-.21-5.46,0-40.1,33.01-72.62,73.72-72.62h0Z"/>
      <path class="cls-1" d="M201.25,117.02c-.1,2.32-.3,4.61-.58,6.88H23.34c-.28-2.27-.47-4.56-.58-6.88h178.49ZM200.44,125.7c-.3,2.11-.68,4.2-1.13,6.27H24.71c-.45-2.06-.83-4.15-1.13-6.27h176.86ZM198.79,134.2c-.4,1.65-.85,3.28-1.35,4.89H26.57c-.49-1.61-.94-3.24-1.35-4.89h173.57ZM196.22,142.81c-.51,1.43-1.06,2.85-1.63,4.25H29.43c-.58-1.4-1.13-2.82-1.64-4.25h168.43ZM192.95,150.77c-.5,1.07-1.03,2.14-1.57,3.19H32.63c-.54-1.05-1.07-2.11-1.57-3.19h161.89ZM189.35,157.68c-.62,1.08-1.27,2.14-1.94,3.19H36.61c-.67-1.05-1.32-2.11-1.94-3.19h154.68ZM184.91,164.58c-.72,1.02-1.47,2.02-2.23,3.01H41.34c-.76-.99-1.51-1.99-2.23-3.01h145.8ZM180.69,170.07c-.61.73-1.23,1.45-1.86,2.16H45.19c-.63-.71-1.25-1.43-1.86-2.16h137.36ZM174.7,176.59c-.4.39-.8.78-1.21,1.17H50.53c-.41-.39-.81-.77-1.21-1.17h125.38ZM167.5,182.96c-.68.54-1.37,1.07-2.07,1.59H58.59c-.7-.52-1.39-1.05-2.07-1.59h110.98ZM156.56,190.4c-.95.55-1.91,1.08-2.88,1.59h-83.34c-.97-.51-1.93-1.04-2.88-1.59h89.11ZM131.92,200.07c-6.4,1.46-13.07,2.23-19.92,2.23s-13.51-.77-19.92-2.23h39.83Z"/>
      <path class="cls-5" d="M103.56,76.66c-2.81-.5-5.27-1.58-6.95-3.93-1.61.1-2.99-.43-4.25-1.33-.6.81-1.75,1-2.92,1.17-.08,2.19-1.09,3.77-4.14,3.98-.09,1.7-.81,2.83-2.18,3.4-.51,1.77.14,2.37,1.33,2.44,1.35,1.85,2.98,3.35,5.04,4.35-.52,2.96-.52,5.93-.33,8.89-1.47.71-1.83,2.65-2.02,4.78-.23,2.38-.93,5.31-3.36,6.34-3.27,1.37-6.21,4.07-8.64,6.84-.07.24-.13.49-.21.73h69.5c-.54-1.28-1.5-2.65-3.01-4.13-.82-1.86-.65-3.56-6.37-6.16-.14-1.43-.36-2.8-3.29-2.23-.65-1.32-3.23,1.05-5.19,2.23-2.15-2.84-4.06-6.07-7.68-6.41-1.12-2.45-2.27-5.58-3.82-7.37-.6-2.03-.76-4.07-.37-6.1,1.06-1.45,2.27-2.69,3.82-3.5.17.96-.13,1.72-.8,3.98.14.39.42.6.85.64.66-.01,1.01-.25,1.38-.48-.34.71-.41,1.41.11,2.12.96.52,2.87.27,4.3-1.91,1.6.87,3.21,1.75,4.67,1.33-.16-.76-.53-1.45-1.11-2.07.39-1.7-.39-2.42-1.7-2.71,1.18-1.24,1.07-2.87-.64-1.75-.61.45-1.15,1.23-1.75,1.96-.67.22-1.35.49-1.8-.16.48-.87.46-1.86.37-2.87.67-.44,1.34-.88,2.02-1.33.56-.65-.18-1.11-.64-.74-.46.34-.92.67-1.38,1.01-.83-.02-1.66-.04-2.49-.05.19-1.8-.91-2.54-2.92-2.07-.63.23-1.16.8-1.65,1.49-.44,0-.79.03-1.33-.05.56-.43.66-1.11.58-1.75-3.25-3.13-6.93-2.65-11.04,1.43h0ZM74.52,115.78c-.63,2.36-.85,4.7,2.08,6.95v-.11h66.22c1.48-2.12,2.55-4.33,2.06-6.84h-70.37ZM78.89,124.11c3.03,1.84,5.77,3.84,6.88,6.69,0,.05-.01.1-.02.15h52.09c.37-1.45,1.19-3.17,2.74-5.36.38-.5.77-.99,1.15-1.49h-62.84ZM85.7,132.13c0,2,.49,3.89,1.67,5.58l.02.1h35.61l.06-.1c2.46-2.71,6.87-4.77,7.54-3.72,1.31,3.61,3.69,4.34,7.12.53-.13-.74-.19-1.51-.09-2.39h-51.93ZM87.64,139.14c.48,2.12,1.22,4.17,2,6.21h27.76c.51-.91,1.19-1.77,2.04-2.33.84-1.41,1.79-2.59,2.68-3.88h-34.49ZM89.7,146.68c-.16,1.24-.39,2.48-.7,3.71l1.32.05c.12.64-.1,1.46-.48,2.1,7.35.09,14.71,0,22.06.08.91-1.47,1.76-1.95,2.31-1.86.05.97-.05,1.95,0,2.92-8.79.16-17.46-.11-26.24.03-.72,1.89-1.67,3.73-2.89,5.51l.02-.02c8.02.03,16.03.07,24.05.1.15-1.85,2.54-.76,1.96,1.11-9.12.04-18.24.09-27.36.13-1.13.15-1.49,4.36-.76,5.71,6.51.12,13.23.21,19.74.32.42-.43.8-.94,1.01-1.8.37-.7,4.12-.61,4.41-.05.37.49.28.99.21,1.49l9.26-.04-1.3-5.71c.66-1.38.83-2.84.51-4.36.68.61,1.2,1.3,1.32,2.07.21,1.3.24,1.09.68,1.54,3.43-.11,6.76.21,10.2.11.41.03,1.62-.61.74-2.66.21-.99.42-1.98.64-2.97-3.67-.46-7.4-.68-10.49.29-.99-.42-1.9-1.04-2.9-1.46.07-.78.14-1.77.21-2.55,1.81-.14,3.69-.02,5.49.07,1.42,3.09,7.42,3.76,5.55-.18.39-.51.76-.39,1.17,0,.35-1.17.71-2.34,1.06-3.51.93-1.4,1.75-3.32-1.81-1.97-1.72-1.86-3.06-.31-4.35,1.86-1.35-.07-2.69-.14-4.04-.21l-.11.02v.14h-1.18c-.81.09-1.7.18-2.32.27.03-.09.06-.18.1-.27h-27.08ZM83.96,167.86c.95,1.62,2.14,2.98,4.44,3.81,2.29.34,4.39.29,6.51-.08.62-.5.98-1.03.96-1.59,3.43.07,6.87.14,10.3.21.69,1.59,1.48,3.02,5.31-.53.77,2.27,2.35,2.82,5.1.85,2.69-.07,5.38-.14,8.07-.21.45-.24.34-1.41-.13-2.49.02.04.02.06.02.06l-40.58-.03h0Z"/>
      <path class="cls-4" d="M103.58,76.64c.7,1.79,1.66,3.68,3.2,5.28,1.26,1.31,1.88,3.11,2.83,4.66,1.87-.21,4.02-.14,3.27-2.98.13-1.15.41-2.18,1.04-2.98l-.53-.03c-.03-.15-.07-.3-.11-.45-.94.28-1.79.84-2.52,1.76-.66.14-1.24.17-1.2-.61.22-.54.54-.99,1.11-1.25-.1-.52-.36-1.02-.96-1.46-.23-1.29-.95-1.62-1.86-.88-.39-.54-.38-.9-.24-1.22,1.73-.9,3.41-1.91,5.79-.93.55.21,1.1-.4.54-.9-4.16-2.92-7.36-.92-10.37,2h0Z"/>
      <path class="cls-4" d="M114.71,84.1c.6-.76,1.24-1.47,1.94-2.14-.7-2.88-2.97.15-1.94,2.14h0Z"/>
      <path d="M28.3,103.78l.09-.7c.14-1.04-.03-1.87-.5-2.49-.48-.62-1.24-1-2.29-1.16-1.02-.15-1.82-.03-2.43.35-.6.38-.96.99-1.08,1.85-.06.44-.03.76.1.97.12.21.37.34.72.4l5.37.78h0ZM29.1,103.9l6.12.89c.42.06.72,0,.93-.18.2-.18.34-.51.4-1.01.13-.96-.08-1.73-.62-2.32-.54-.59-1.39-.97-2.56-1.14-1.22-.18-2.18-.01-2.88.49s-1.13,1.33-1.29,2.48l-.11.79h0ZM21.41,102.18l.05-.39c.18-1.34.36-2.32.54-2.92s.41-1.11.69-1.53c.41-.62.91-1.07,1.51-1.35.6-.29,1.24-.38,1.91-.28.91.13,1.61.58,2.1,1.34.48.77.77,1.86.86,3.3.47-1.54,1.11-2.66,1.91-3.36.81-.7,1.76-.97,2.87-.81.63.09,1.19.3,1.69.64.5.34.91.78,1.22,1.33.37.66.6,1.39.68,2.21s-.01,2.2-.28,4.14l-.04.28-.81,5.95-.64-.09.04-.47c.04-.65,0-1.08-.13-1.32-.13-.23-.4-.38-.81-.43l-12.22-1.77c-.41-.06-.71,0-.9.19-.19.18-.35.59-.47,1.22l-.11.47-.53-.08.86-6.28h0ZM34.19,90.98l1.6-4.81-6.44.34,4.83,4.47h0ZM37.87,96.96l-.59-.21c.11-.57.07-1.09-.14-1.55-.2-.46-.79-1.16-1.77-2.1l-6.39-6.05s-.07-.07-.11-.09c-.04-.03-.08-.05-.11-.06-.05-.02-.11-.02-.19,0-.07,0-.14.04-.22.08l-.58.31c-.36-.66-.76-1.29-1.2-1.88-.44-.6-.93-1.15-1.47-1.67l.23-.69,15.01-1.11c.73-.06,1.26-.18,1.58-.36s.55-.49.69-.92l.02-.07.61.22-2.49,7.47-.61-.22.16-.71c.08-.34.08-.62,0-.84-.09-.21-.26-.37-.53-.46-.08-.03-.21-.05-.38-.06-.17,0-.43,0-.78,0l-2.04.11-1.81,5.43.82.6c.1.08.21.16.36.24.14.08.3.15.46.21.6.22,1.14.21,1.61-.01.47-.22.83-.64,1.08-1.26l.59.21-1.82,5.45h0ZM38.95,72.05l.38-.64c.58-.99.76-1.87.55-2.64-.22-.77-.84-1.48-1.87-2.12-.98-.61-1.89-.88-2.72-.8s-1.45.48-1.88,1.22c-.24.4-.33.74-.28,1.01.05.27.25.51.6.73l5.22,3.24h0ZM32.72,67.05l.19-.32c.67-1.15,1.2-1.96,1.6-2.44s.81-.85,1.25-1.11c.64-.4,1.31-.6,2.02-.61.71,0,1.37.18,2,.57.85.53,1.38,1.28,1.56,2.25.19.97.04,2.13-.44,3.47.26-.39.58-.67.93-.84.35-.17.86-.28,1.52-.32l6.05-.29c.4,0,.68-.05.85-.14.17-.08.31-.23.43-.44l.07-.11.55.34-2.44,4.19-6.85-.22c-.66-.02-1.12.02-1.41.14-.28.11-.53.37-.75.75l-.29.49,4.77,2.96c.36.22.66.29.91.2.24-.09.54-.41.89-.95l.3-.47.55.34-3.96,6.8-.55-.34.22-.42c.28-.58.41-1,.38-1.26-.03-.27-.23-.51-.58-.73l-10.58-6.56c-.35-.22-.66-.29-.9-.19s-.54.4-.89.93l-.28.39-.46-.29,3.36-5.77h0ZM43.65,53.27c-.18-.17-.33-.23-.46-.21-.13.03-.29.15-.49.37-.51.58-.83,1.39-.98,2.42-.14,1.04-.11,2.26.11,3.66l-.33.38-2.49-3.68.08-.36h.39c.14-.01.26-.04.36-.1.1-.05.21-.15.33-.29l7.7-8.83c.12-.13.19-.25.23-.36.03-.1.05-.23.04-.38l-.03-.41.33-.11,3.81,2.17-.31.36c-1.38-.08-2.56.01-3.54.27-.98.26-1.73.68-2.23,1.26-.19.22-.3.4-.31.54-.01.14.07.29.25.46l9.61,8.93c.32.3.61.42.86.37.26-.05.6-.3,1.04-.75l.48-.51.48.45-5.45,6.25-.48-.45.44-.54c.4-.5.6-.88.62-1.14.02-.27-.14-.55-.45-.84l-9.61-8.93h0ZM58.27,37.88l.32.44-.35.33c-.47.41-.73.74-.8,1.01-.07.26.03.57.28.91l7.43,10.18c.25.34.5.51.76.52s.65-.17,1.18-.52l.38-.27.39.53-6.15,4.78-.39-.53.35-.3c.47-.42.74-.77.81-1.02.07-.26-.03-.56-.27-.9l-7.43-10.18c-.25-.34-.5-.52-.77-.53-.26,0-.65.16-1.16.52l-.4.26-.32-.44,6.15-4.78h0ZM78.45,38.18l-3.38-6.29c-.48-.9-1.05-1.49-1.69-1.77-.64-.27-1.34-.22-2.09.16l-.28-.52,4.6-2.63.28.52c-.56.42-.85.94-.89,1.57-.04.62.19,1.38.67,2.27l6.05,11.27-.68.39-16.94-6.73,4.77,8.89c.5.93,1.05,1.52,1.67,1.78.62.26,1.31.19,2.08-.2l.3.56-4.59,2.62-.3-.56c.54-.42.82-.94.86-1.55.04-.61-.19-1.37-.67-2.27l-4.76-8.87c-.29-.54-.63-.86-1.03-.97-.39-.11-.86,0-1.4.3l-.13.08-.28-.52,4.72-2.7,13.11,5.17h0ZM93.72,29.17l.67-.15c1-.22,1.69-.67,2.09-1.34.4-.67.49-1.55.27-2.62-.21-1.04-.59-1.78-1.15-2.23-.55-.45-1.23-.59-2.05-.41-.42.09-.71.24-.85.43-.15.19-.19.47-.11.83l1.13,5.48h0ZM93.89,29.98l1.28,6.24c.09.42.25.7.48.84.23.13.58.15,1.05.05.91-.2,1.55-.67,1.9-1.39s.41-1.68.16-2.87c-.26-1.24-.73-2.12-1.43-2.63-.7-.51-1.59-.64-2.7-.4l-.76.17h0ZM92.82,21.95l.38-.08c1.28-.28,2.23-.44,2.84-.48.61-.04,1.15.01,1.62.15.7.18,1.28.52,1.74,1,.47.48.77,1.07.91,1.76.19.93.02,1.76-.51,2.49-.53.73-1.43,1.38-2.71,1.96,1.56-.07,2.8.17,3.71.71.91.54,1.49,1.37,1.72,2.51.13.64.13,1.26-.01,1.86-.14.6-.4,1.14-.8,1.64-.47.59-1.06,1.06-1.78,1.42-.72.36-2.01.74-3.86,1.14l-.27.06-5.69,1.25-.13-.65.44-.12c.6-.18.99-.37,1.15-.58.17-.21.21-.52.12-.93l-2.57-12.46c-.09-.42-.24-.69-.48-.81s-.66-.14-1.27-.04l-.47.06-.11-.54,6-1.32h0ZM118.74,36.16l-14.15.26v-.67s.45-.03.45-.03c.62-.06,1.04-.17,1.24-.34.2-.17.3-.47.29-.89l-.22-12.74c0-.44-.1-.73-.3-.89-.19-.16-.61-.25-1.27-.29h-.46s-.01-.59-.01-.59l12.68-.23,1.45,3.89-.31.12-.85-1c-.69-.8-1.37-1.39-2.04-1.78-.67-.39-1.33-.58-1.99-.57l-1.7.03c-.56.01-.96.11-1.18.29-.23.18-.34.5-.33.94l.1,5.83,1.41-.03c.81-.01,1.49-.34,2.05-.98.56-.64.91-1.48,1.04-2.54h.45s.13,7.42.13,7.42h-.45c-.17-1-.55-1.8-1.14-2.41-.59-.61-1.28-.91-2.07-.89l-1.41.02.11,6.31c0,.43.13.74.36.92.23.18.63.27,1.19.26l1.64-.03c1.09-.02,2.03-.29,2.82-.82.79-.52,1.6-1.41,2.41-2.66l.57-.75.3.13-.79,4.7h0ZM134.04,38.76l-13.98-2.29.1-.68.45.07c.62.05,1.05.02,1.28-.11.23-.13.37-.41.44-.83l1.93-12.58c.07-.43.02-.74-.14-.93-.16-.19-.56-.36-1.19-.51l-.46-.12.08-.55,7.81,1.28-.08.55-.68-.06c-.65-.08-1.08-.05-1.29.08-.21.13-.35.42-.41.86l-1.91,12.47c-.08.5-.02.86.17,1.08s.57.38,1.15.47l1.62.26c1.08.18,2.05.08,2.92-.3.87-.38,1.81-1.11,2.82-2.19l.7-.77.26.25-1.58,4.55h0ZM148.26,44.78l-13.21-5.23.23-.62.43.15c.6.19,1.02.24,1.27.17.25-.08.45-.32.59-.72l4.42-11.89c.15-.41.17-.72.05-.94-.12-.22-.48-.47-1.07-.76l-.43-.17.21-.56,11.84,4.69-.07,4.17h-.33s-.43-1.27-.43-1.27c-.35-1.01-.77-1.82-1.24-2.44-.48-.62-1.02-1.05-1.64-1.29l-1.59-.63c-.52-.21-.92-.27-1.2-.19-.28.08-.5.33-.65.75l-2.03,5.45,1.31.52c.75.3,1.51.26,2.26-.11.75-.37,1.38-1.02,1.89-1.95l.42.17-2.58,6.93-.42-.17c.21-1,.15-1.89-.18-2.68-.33-.79-.86-1.34-1.59-1.63l-1.31-.52-2.19,5.89c-.15.4-.15.73,0,.99.15.26.49.49,1.01.7l1.53.61c1.02.4,1.99.51,2.91.33.92-.18,1.99-.69,3.2-1.54l.8-.48.23.23-2.44,4.05h0ZM162.16,36.78l-7.08,10.44c-.24.36-.32.68-.23.97.09.29.37.59.82.92l.54.39c1.33.96,2.71,1.15,4.14.58,1.43-.58,2.84-1.89,4.23-3.92.8-1.19,1.41-2.34,1.81-3.45.4-1.11.55-2.02.45-2.73-.07-.49-.27-.96-.6-1.41-.33-.45-.8-.89-1.41-1.34l-.73-.53c-.46-.33-.83-.49-1.12-.48-.29,0-.56.2-.8.56h0ZM149.37,45.39l.37-.55.39.25c.54.33.93.49,1.19.48.26-.01.51-.2.74-.55l7.08-10.44c.24-.35.32-.65.25-.91s-.35-.59-.84-.98l-.36-.32.31-.45,6.2,4.48c1.29.93,2.21,1.69,2.76,2.27.55.59.98,1.21,1.3,1.87.63,1.3.86,2.65.7,4.05-.15,1.39-.69,2.77-1.6,4.11-.84,1.23-1.86,2.16-3.06,2.78-1.2.62-2.53.9-3.97.83-.71-.03-1.43-.21-2.16-.53-.72-.32-1.79-.98-3.19-1.99l-6.11-4.41h0ZM180.69,50.74l-.38.39-.36-.31c-.45-.42-.82-.65-1.08-.68-.26-.03-.54.11-.83.41l-8.73,9.01c-.29.3-.42.58-.39.85s.25.64.66,1.13l.31.35-.46.47-5.44-5.62.46-.47.34.32c.47.42.84.65,1.09.68s.53-.1.82-.4l8.73-9.01c.29-.3.43-.59.4-.86-.03-.27-.25-.64-.66-1.12l-.3-.38.38-.39,5.44,5.62h0ZM179.41,44.6c.24-.25.55-.39.92-.39.37,0,.67.11.92.36.24.25.36.57.36.95,0,.38-.13.7-.37.96-.26.27-.57.4-.91.4-.34,0-.65-.14-.91-.41-.26-.27-.4-.58-.39-.93,0-.35.13-.66.39-.93h0ZM176.68,68.85c-.34.26-.52.52-.52.81,0,.28.16.68.5,1.21l.35.54-.52.39-4.76-6.77.52-.39.39.52c.38.49.7.78.96.86.26.08.56,0,.9-.26l4.79-3.59,2.66-7.95c.11-.34.15-.65.12-.92-.03-.27-.13-.56-.31-.88l.5-.38,4.65,6.6-.5.38-.54-.69c-.19-.24-.36-.4-.52-.46-.16-.07-.3-.05-.44.05-.05.04-.1.09-.14.14-.04.05-.08.14-.13.24l-2.26,6,5.05-.17c.2,0,.4-.04.58-.09.19-.06.34-.14.47-.23.28-.21.42-.45.42-.74,0-.29-.11-.63-.37-1.01l.5-.38,2.65,3.76-.5.38c-.33-.36-.69-.62-1.06-.77-.38-.14-.93-.21-1.64-.2l-6.76.23-5.04,3.78h0ZM184.3,87.57l-5.98-13.24.58-.28.21.42c.31.57.57.91.8,1.03s.53.09.91-.09l11.19-5.39c.39-.18.6-.4.67-.64.06-.25-.03-.68-.26-1.32l-.19-.43.52-.25,5.36,11.86-2.86,2.95-.23-.25.54-1.21c.43-.98.68-1.86.75-2.64.07-.79-.03-1.49-.31-2.1l-.72-1.59c-.24-.52-.48-.86-.74-1-.26-.14-.58-.12-.97.07l-5.12,2.46.59,1.32c.34.76.91,1.27,1.7,1.54.79.27,1.68.25,2.68-.05l.19.42-6.52,3.14-.19-.42c.82-.57,1.38-1.26,1.67-2.06.3-.8.28-1.58-.05-2.31l-.59-1.32-5.54,2.67c-.38.18-.6.42-.67.72-.06.29.02.71.26,1.23l.69,1.53c.46,1.02,1.09,1.8,1.88,2.32.79.53,1.9.93,3.33,1.19l.9.23v.33s-4.47,1.16-4.47,1.16h0ZM185.22,89.76l5.08-1.07.15.61c-1.46,1.2-2.52,2.35-3.16,3.47s-.84,2.16-.61,3.13c.17.72.54,1.24,1.09,1.56.55.32,1.19.39,1.94.2,1.47-.38,2.34-2.01,2.61-4.9v-.04c.17-1.82.52-3.17,1.06-4.05.54-.88,1.35-1.46,2.42-1.74,1.42-.36,2.67-.19,3.77.53,1.09.72,1.83,1.85,2.2,3.4.21.87.24,1.82.1,2.85-.14,1.02-.21,1.56-.2,1.62.03.11.1.21.2.28.11.08.28.15.51.22l.09.36-4.77,1.34-.11-.45c1.38-.88,2.37-1.85,2.99-2.92.62-1.07.81-2.12.56-3.15-.17-.7-.49-1.21-.96-1.53-.47-.32-1.01-.41-1.62-.25-.73.19-1.26.56-1.59,1.12-.33.56-.55,1.56-.66,3,0,.12-.02.29-.04.51-.15,2.08-.48,3.51-.99,4.27-.35.51-.77.95-1.27,1.3-.49.35-1.04.6-1.64.76-1.42.37-2.76.13-4.01-.7-1.25-.83-2.06-2.03-2.44-3.6-.25-1.05-.31-2.16-.16-3.34.15-1.18.22-1.78.21-1.81-.03-.11-.09-.21-.19-.3-.1-.09-.24-.17-.43-.26l-.1-.42h0ZM204.13,109.21l-.53.05-.08-.48c-.09-.62-.22-1.04-.4-1.24-.18-.2-.48-.28-.89-.24l-12.3,1.11c-.41.04-.69.17-.83.39s-.21.66-.2,1.31l.02.47-.64.06-.67-7.92.64-.06.06.47c.1.64.23,1.05.41,1.25s.47.27.88.24l12.3-1.11c.41-.04.69-.17.84-.39.15-.22.21-.66.19-1.29v-.49s.54-.05.54-.05l.67,7.92h0ZM206.97,103.65c.34-.03.66.07.95.31.29.24.44.53.47.89.03.35-.08.67-.32.97-.24.29-.54.45-.88.48-.37.03-.69-.07-.94-.3-.26-.23-.41-.54-.44-.92-.03-.38.06-.71.28-.97.22-.27.51-.42.88-.45h0Z"/>
      <path class="cls-3" d="M222.71,128.26c-.55,3.79-1.28,7.52-2.2,11.18l-2.09-3.17c.44-1.93.82-3.88,1.15-5.84l3.14-2.16h0Z"/>
      <path class="cls-3" d="M214.94,148.36c.93-2.64,1.76-5.33,2.49-8.06.69.97,1.36,1.96,2.07,2.91-.34,1.17-.7,2.34-1.07,3.5l-3.48,1.65h0Z"/>
      <path class="cls-3" d="M210.61,158.9c.93-1.97,1.81-3.97,2.63-6.01l3.69-1.88c-1.48,4.01-3.18,7.9-5.09,11.68l-1.23-3.8h0Z"/>
      <path class="cls-3" d="M204.12,170.66c1.68-2.65,3.25-5.37,4.7-8.16l1.3,3.47c-.66,1.2-1.34,2.39-2.04,3.56l-3.96,1.14h0Z"/>
      <path class="cls-3" d="M197.96,179.4c1.23-1.58,2.42-3.2,3.57-4.84l4.14-1.17c-2.26,3.45-4.7,6.78-7.31,9.95l-.4-3.93h0Z"/>
      <path class="cls-3" d="M189.14,189.38c2.05-2.05,4.02-4.19,5.9-6.4l.51,3.65c-.79.89-1.6,1.77-2.42,2.64l-3.98.11h0Z"/>
      <path class="cls-3" d="M181.11,196.67c1.81-1.49,3.57-3.03,5.28-4.63l4.07-.06c-3.06,3.02-6.29,5.86-9.68,8.52l.33-3.82h0Z"/>
      <path class="cls-3" d="M170.07,204.65c2.5-1.58,4.93-3.25,7.28-5.02l-.19,3.59c-1.05.75-2.1,1.48-3.17,2.2l-3.92-.77h0Z"/>
      <path class="cls-3" d="M161.58,209.49c1.57-.81,3.12-1.65,4.65-2.53l4.29.67c-3.26,2.01-6.63,3.86-10.1,5.53l1.16-3.68h0Z"/>
      <path class="cls-3" d="M145.44,216.18l.07-.02c4.19-1.36,8.27-2.96,12.22-4.79l-.85,3.43c-3.42,1.5-6.92,2.84-10.51,4h-.02s-.9-2.62-.9-2.62h0Z"/>
      <path class="cls-3" d="M69.28,212.77c3.43,1.46,6.96,2.75,10.56,3.86l-.9,2.63c-2.96-.91-5.86-1.95-8.71-3.09l-.95-3.4h0Z"/>
      <path class="cls-3" d="M60.17,208.38c1.72.93,3.47,1.81,5.24,2.65l1.26,3.63c-3.69-1.64-7.28-3.47-10.75-5.48l4.25-.79h0Z"/>
      <path class="cls-3" d="M49.34,201.68c2.27,1.59,4.6,3.1,6.99,4.52l-3.88.88c-.95-.6-1.89-1.21-2.82-1.83l-.29-3.57h0Z"/>
      <path class="cls-3" d="M39.68,194.05c1.89,1.67,3.84,3.28,5.84,4.82l.44,3.79c-3.61-2.65-7.06-5.5-10.33-8.55l4.05-.06h0Z"/>
      <path class="cls-3" d="M31.17,185.65c1.83,2.01,3.73,3.96,5.7,5.83h-3.97c-.72-.72-1.43-1.45-2.14-2.19l.4-3.64h0Z"/>
      <path class="cls-3" d="M24.08,176.99c1.31,1.78,2.67,3.51,4.09,5.21l-.29,3.92c-2.84-3.23-5.49-6.63-7.95-10.17l4.15,1.04h0Z"/>
      <path class="cls-3" d="M16.76,165.68c1.45,2.57,2.99,5.07,4.63,7.51l-3.97-1.02c-.63-.99-1.25-2-1.85-3.01l1.19-3.48h0Z"/>
      <path class="cls-3" d="M11.8,155.7c.96,2.21,1.99,4.38,3.09,6.5l-1.11,3.81c-2.14-3.89-4.05-7.92-5.72-12.07l3.74,1.76h0Z"/>
      <path class="cls-3" d="M7.45,143.85c.76,2.51,1.61,4.98,2.54,7.41l-3.52-1.54c-.35-.97-.68-1.95-1-2.93.68-.95,1.33-1.94,1.98-2.93h0Z"/>
      <path class="cls-3" d="M4.86,133.46c.43,2.17.92,4.31,1.47,6.43l-1.99,3.22c-1.1-3.82-2-7.73-2.69-11.71l3.2,2.06h0Z"/>
      <path class="cls-3" d="M111.94,0c61.81,0,111.94,50.2,111.94,112.1,0,3.8-.19,7.55-.56,11.25l-3.03,2.17c.54-4.4.82-8.88.82-13.42,0-60.37-48.89-109.33-109.17-109.33S2.77,51.73,2.77,112.1c0,5.61.42,11.12,1.24,16.51l-3.09-2.08c-.61-4.72-.92-9.54-.92-14.43C0,50.2,50.13,0,111.94,0h0Z"/>
      <path class="cls-3" d="M19.63,115.08c-6.31.23-12.63.45-18.94.68.28,3.93.71,7.76,1.28,11.47l7.64,5.14c.77.49,1.23.38,1.39-.32-.19-1.96-.38-3.91-.57-5.87,1.83,2.27,3.67,4.54,5.5,6.81l.64-.06c.3-.81,1.07-1.38,1.98-1.38,1.16,0,2.11.95,2.11,2.11s-.95,2.11-2.11,2.11c-.55,0-1.05-.21-1.42-.55l-.51.26-2.3,10.12,8.25,7.27.54-.11c.2-.91,1.01-1.6,1.98-1.6,1.12,0,2.03.91,2.03,2.03s-.91,2.03-2.03,2.03c-.26,0-.51-.05-.74-.14-.15.08-.32.19-.47.29l.59,11.58,8.8,4.29c.37-.07.74-.14,1.1-.21h0s0-.04,0-.06c0-1.09.88-1.97,1.97-1.97s1.97.88,1.97,1.97-.88,1.97-1.97,1.97c-.12,0-.25-.01-.37-.03l.03.05c-.22.23-.43.47-.65.7.88,3.64,1.75,7.27,2.63,10.9-1.74-1.66-3.48-3.33-5.22-4.99-.56-.48-.89-.33-.98.43l-.8,7.26c1.4,1.44,2.84,2.85,4.33,4.23h7.65c.78.02,1.34-.71.71-1.43l-5.66-5.49,11.68,3.49.47-.42c-.11-.25-.17-.53-.17-.82,0-1.1.89-1.99,1.99-1.99s1.99.89,1.99,1.99c0,1.01-.76,1.85-1.73,1.97l-.35.66,4.52,10.4,10.36-.05.68-.55c-.17-.32-.27-.68-.27-1.07,0-1.24,1.01-2.25,2.25-2.25s2.25,1.01,2.25,2.25c0,1.11-.8,2.03-1.86,2.22l-.07,1.06c1.99,2.72,3.99,5.45,5.98,8.17-2.43-1.01-4.87-2.02-7.3-3.03-.63-.23-1.04-.13-.68.71l1.96,7.02c3.09,1.48,6.28,2.89,9.55,4.23,1.92-6.12,3.85-12.23,5.78-18.35-49.6-17.04-61.84-52.74-65.41-85.12h0ZM56.39,199.88l-6.52-4.39c-.65-.43-1.04-.2-1,.61l.54,6.61c1.88,1.29,3.8,2.54,5.78,3.75l6.03-1.36c.8-.24.96-.71.5-1.07l-5.34-4.14h0ZM58.85,208.62c2.29,1.32,4.64,2.59,7.05,3.82l-1.67-4.82-5.37,1h0ZM38.21,194.07c2.38,2.06,4.86,4.04,7.44,5.95l-.7-6.05-6.74.1h0ZM14.31,145.63v.02c-.83-2.32-1.23-4.84-2.49-6.95-.28-.47-.22-.37-.54-.02-1.93,2.1-3.42,4.6-5.04,6.98.5,1.57,1.03,3.12,1.59,4.65l7.39,3.24c1.04.42,1.55.2,1.28-.93l-2.19-7h0ZM9.51,154.62c1.41,3.4,2.98,6.69,4.71,9.86l1.96-6.72-6.67-3.14h0ZM16.06,167.73c.98,1.66,2.01,3.29,3.08,4.89l7.48,1.91c1,.2,1.78.17,1.14-1.28-1.11-2.11-2.22-4.22-3.33-6.33h.03s-4.46-7.01-4.46-7.01c-.53-.88-.97-.98-1.28.07l-2.65,7.75h0ZM2.82,132.15c.64,3.33,1.41,6.56,2.29,9.72l3.65-5.89-5.93-3.83h0ZM21.82,176.42c1.95,2.64,4.02,5.19,6.21,7.64l.43-5.97-6.65-1.67h0Z"/>
      <path class="cls-3" d="M204.27,114.26c6.18.23,12.36.45,18.54.68-.23,3.23-.55,6.39-.97,9.47l-6.68,4.78c-.76.51-1.23.42-1.4-.28.13-1.97.27-3.94.4-5.91-1.77,2.34-3.55,4.67-5.32,7l-.65-.04c-.32-.8-1.12-1.36-2.03-1.33-1.17.03-2.09,1.01-2.06,2.18s1.01,2.09,2.18,2.06c.55-.02,1.05-.24,1.41-.6l.52.24,2.61,10.1-8.07,7.54-.55-.1c-.23-.91-1.06-1.58-2.04-1.55-1.12.03-2.01.97-1.98,2.1.03,1.13.97,2.01,2.1,1.98.26,0,.51-.06.74-.16.15.08.33.18.48.27l-.25,11.65-8.7,4.57c-.37-.06-.74-.12-1.11-.18h0v-.06c-.03-1.09-.94-1.95-2.04-1.92-1.09.03-1.95.94-1.92,2.04.03,1.09.94,1.95,2.04,1.92.12,0,.25-.02.37-.04l-.03.05c.22.23.45.46.67.69-.77,3.68-1.55,7.35-2.32,11.03,1.7-1.72,3.39-3.45,5.09-5.17.55-.49.88-.36.99.4l.91,6.51c-1.58,1.77-3.23,3.49-4.94,5.16l-6.85.2c-.79.04-1.37-.68-.76-1.41l5.52-5.68-11.62,3.85-.48-.41c.11-.25.16-.53.15-.83-.03-1.1-.95-1.97-2.05-1.94-1.1.03-1.97.95-1.94,2.05.03,1.02.81,1.83,1.8,1.93l.38.65-4.23,10.58-10.39.25-.7-.53c.16-.32.25-.69.24-1.08-.04-1.25-1.08-2.23-2.33-2.2-1.25.04-2.23,1.08-2.19,2.33.03,1.11.86,2.02,1.93,2.17l.1,1.06c-1.92,2.79-3.84,5.59-5.77,8.38,2.41-1.09,4.83-2.17,7.24-3.26.63-.25,1.04-.16.7.7l-1.54,6.22c-3.72,1.89-7.58,3.66-11.58,5.34-1.89-6.12-3.77-12.23-5.66-18.35,48.55-17.04,60.53-52.74,64.03-85.12h0ZM170.19,198.37l6.41-4.6c.64-.46,1.03-.23,1.02.58l-.31,5.94c-2.11,1.55-4.29,3.04-6.54,4.49l-5.28-1.03c-.81-.22-.98-.68-.53-1.06l5.24-4.32h0ZM167.06,207.09c-1.88,1.13-3.8,2.22-5.76,3.29l1.26-3.99,4.5.71h0ZM187.44,192.02c-2.05,1.87-4.18,3.69-6.4,5.44l.46-5.35,5.94-.09h0ZM201.28,164.34l4.27-7.18c.5-.9.94-1.02,1.29.03l2.54,6.8c-1.14,2.12-2.34,4.18-3.61,6.2l-6.44,1.85c-1,.23-1.78.22-1.18-1.26,1.05-2.15,2.1-4.3,3.16-6.46h-.03ZM203.19,174.08c-1.6,2.31-3.3,4.55-5.09,6.72l-.53-5.14,5.61-1.59h0ZM210.83,142.65v.02c.77-2.35,1.09-4.9,2.29-7.06.27-.47.21-.38.55-.03,1.76,1.81,3.19,3.93,4.66,6.02-.57,2.05-1.2,4.07-1.87,6.05l-6.3,2.99c-1.03.45-1.55.25-1.31-.89l1.99-7.09h0ZM214.85,152.08c-1.13,2.91-2.36,5.73-3.7,8.48l-1.83-5.67,5.53-2.81h0ZM221.07,129.39c-.49,2.82-1.06,5.59-1.72,8.29l-3.22-4.89,4.94-3.4h0Z"/>
      <path d="M89.64,220.11l.1-.71,1.11.21c.53.09.92,0,1.19-.29.27-.29.47-.88.6-1.77l1.58-10.68c.06-.38-.06-.68-.35-.9-.29-.21-.94-.45-1.95-.71l.08-.55c.98.02,1.95-.02,2.9-.12.95-.11,1.89-.28,2.82-.51l-2.09,14.1c-.13.88-.11,1.52.06,1.9.17.38.52.64,1.04.77l1.1.26-.1.7-8.1-1.7h0ZM107.5,211.95c.49-.3.87-.7,1.14-1.2.27-.5.43-1.11.47-1.81.06-.97-.15-1.77-.61-2.38-.46-.62-1.11-.96-1.95-1.03-.74-.06-1.36.11-1.85.53-.49.41-.76.96-.8,1.66-.02.4.06.8.25,1.2.19.4.45.74.79,1l2.57,2.04h0ZM103.84,214.01c-.52.43-.92.95-1.21,1.56-.28.61-.45,1.31-.5,2.09-.07,1.21.17,2.21.72,2.97.55.77,1.33,1.19,2.33,1.28.88.07,1.64-.15,2.28-.66.64-.51.98-1.16,1.03-1.96.03-.45-.07-.87-.29-1.26-.22-.38-.66-.86-1.33-1.42l-3.03-2.6h0ZM103.2,213.5c-.66-.7-1.14-1.42-1.45-2.16-.31-.75-.44-1.51-.39-2.3.08-1.37.59-2.45,1.53-3.23.93-.79,2.12-1.12,3.55-1,1.38.11,2.45.53,3.2,1.25.76.72,1.1,1.65,1.03,2.77-.05.79-.28,1.49-.71,2.08-.42.59-1.03,1.1-1.84,1.51,1.08.86,1.83,1.72,2.28,2.57.44.85.63,1.82.56,2.9-.09,1.5-.67,2.74-1.75,3.71-1.08.97-2.36,1.39-3.85,1.27-1.61-.13-2.87-.67-3.78-1.6-.92-.93-1.33-2.09-1.25-3.48.05-.89.31-1.69.78-2.4.47-.71,1.16-1.34,2.08-1.89h0ZM119.93,208.44l-6.5.54c-.38.03-.7.13-.99.28-.29.16-.54.38-.75.67l-.25-.09,1.07-4.27,8.93-.74.07,1.17c-1.08,2.98-1.85,5.79-2.3,8.43-.45,2.65-.61,5.23-.47,7.76l-3.52.29c-.02-2.12.35-4.33,1.13-6.63.77-2.3,1.96-4.77,3.58-7.41h0ZM125.96,211.52c.39-.42.78-.76,1.2-1.02.42-.26.86-.44,1.32-.53,1.23-.26,2.31.02,3.26.84.94.82,1.53,2,1.76,3.54.12.8.11,1.56-.02,2.27-.13.71-.39,1.42-.78,2.11-.41.72-.88,1.29-1.43,1.72-.55.42-1.18.71-1.89.86-1.57.33-2.95-.05-4.15-1.13-1.21-1.08-1.96-2.63-2.26-4.66-.4-2.73.02-5.19,1.26-7.4,1.25-2.21,3.23-3.99,5.94-5.35l.24.48c-1.35.93-2.4,2.11-3.17,3.54-.77,1.43-1.19,3.01-1.27,4.73h0ZM125.97,212.49c.03.58.07,1.1.11,1.58.04.47.09.91.15,1.32.28,1.91.67,3.27,1.16,4.07s1.13,1.12,1.91.95c.69-.15,1.15-.59,1.37-1.35.22-.76.22-1.88,0-3.37-.25-1.66-.61-2.88-1.09-3.66-.48-.78-1.07-1.09-1.76-.95-.3.06-.6.21-.9.45-.3.23-.62.56-.95.97h0Z"/>
    </g>
  </g>
</svg>