<?xml version="1.0" encoding="iso-8859-1"?>
<!-- Generator: Adobe Illustrator 29.7.1, SVG Export Plug-In . SVG Version: 9.03 Build 0)  -->
<svg version="1.1" id="Layer_1" xmlns="http://www.w3.org/2000/svg" xmlns:xlink="http://www.w3.org/1999/xlink" x="0px" y="0px"
	 viewBox="0 0 1920 1080" style="enable-background:new 0 0 1920 1080;" xml:space="preserve">
<g>
	<path style="fill-rule:evenodd;clip-rule:evenodd;fill:#EFEFF0;" d="M959.84,429.029c61.702,0,111.74,50.114,111.74,111.909
		c0,61.795-50.038,111.909-111.74,111.909c-61.702,0-111.74-50.114-111.74-111.909C848.101,479.143,898.139,429.029,959.84,429.029
		L959.84,429.029z"/>
	<path style="fill-rule:evenodd;clip-rule:evenodd;fill:#00AEEF;" d="M960.016,466.366c40.71,0,73.724,32.522,73.724,72.624
		c0,1.835-0.071,3.654-0.207,5.455H886.499c-0.136-1.801-0.207-3.62-0.207-5.455C886.293,498.888,919.307,466.366,960.016,466.366
		L960.016,466.366z"/>
	<path style="fill-rule:evenodd;clip-rule:evenodd;fill:#00A651;" d="M1049.153,545.855c-0.104,2.316-0.298,4.609-0.576,6.876
		H871.243c-0.277-2.267-0.472-4.56-0.576-6.876H1049.153L1049.153,545.855z M1048.34,554.537c-0.302,2.114-0.681,4.204-1.128,6.268
		H872.609c-0.448-2.064-0.827-4.153-1.129-6.268H1048.34L1048.34,554.537z M1046.696,563.035c-0.402,1.648-0.854,3.276-1.346,4.886
		H874.47c-0.492-1.611-0.944-3.239-1.346-4.886H1046.696L1046.696,563.035z M1044.125,571.64c-0.509,1.434-1.056,2.85-1.634,4.249
		h-165.16c-0.579-1.399-1.126-2.815-1.635-4.249H1044.125L1044.125,571.64z M1040.857,579.607c-0.503,1.074-1.029,2.136-1.573,3.187
		H880.537c-0.544-1.051-1.07-2.112-1.573-3.187H1040.857L1040.857,579.607z M1037.249,586.512c-0.624,1.077-1.272,2.138-1.94,3.187
		H884.513c-0.667-1.048-1.316-2.11-1.94-3.187H1037.249L1037.249,586.512z M1032.809,593.417c-0.723,1.018-1.466,2.021-2.229,3.006
		H889.242c-0.764-0.986-1.507-1.988-2.23-3.006H1032.809L1032.809,593.417z M1028.589,598.902c-0.609,0.731-1.229,1.452-1.86,2.163
		H893.092c-0.631-0.711-1.251-1.432-1.859-2.163H1028.589L1028.589,598.902z M1022.599,605.421c-0.399,0.394-0.803,0.782-1.21,1.168
		H898.433c-0.406-0.386-0.81-0.774-1.21-1.168H1022.599L1022.599,605.421z M1015.399,611.795c-0.681,0.541-1.371,1.072-2.068,1.593
		H906.49c-0.697-0.521-1.387-1.052-2.068-1.593H1015.399L1015.399,611.795z M1004.465,619.231c-0.95,0.548-1.912,1.079-2.884,1.593
		H918.24c-0.972-0.514-1.934-1.045-2.884-1.593H1004.465L1004.465,619.231z M979.827,628.898c-6.404,1.46-13.071,2.231-19.917,2.231
		c-6.846,0-13.512-0.771-19.916-2.231H979.827L979.827,628.898z"/>
	<path style="fill-rule:evenodd;clip-rule:evenodd;fill:#EFEFF0;" d="M951.465,505.496c-2.813-0.502-5.272-1.58-6.952-3.927
		c-1.609,0.101-2.991-0.434-4.246-1.327c-0.598,0.812-1.749,1-2.919,1.168c-0.079,2.194-1.087,3.768-4.14,3.98
		c-0.088,1.698-0.814,2.83-2.176,3.396c-0.513,1.769,0.141,2.371,1.327,2.441c1.349,1.849,2.985,3.352,5.042,4.352
		c-0.519,2.964-0.519,5.929-0.331,8.894c-1.472,0.705-1.825,2.654-2.018,4.78c-0.226,2.383-0.931,5.311-3.364,6.335
		c-3.267,1.374-6.206,4.07-8.64,6.838c-0.065,0.244-0.134,0.487-0.206,0.731h69.501c-0.54-1.284-1.497-2.652-3.008-4.13
		c-0.821-1.856-0.645-3.562-6.374-6.161c-0.139-1.433-0.365-2.803-3.293-2.231c-0.645-1.318-3.235,1.05-5.187,2.229
		c-2.146-2.839-4.062-6.068-7.677-6.41c-1.119-2.451-2.27-5.584-3.824-7.372c-0.604-2.034-0.759-4.069-0.372-6.103
		c1.057-1.447,2.269-2.694,3.821-3.503c0.166,0.957-0.133,1.716-0.796,3.98c0.141,0.39,0.424,0.602,0.849,0.637
		c0.658-0.01,1.01-0.251,1.38-0.478c-0.337,0.708-0.408,1.415,0.106,2.123c0.955,0.516,2.866,0.268,4.299-1.911
		c1.604,0.867,3.21,1.754,4.67,1.327c-0.159-0.761-0.531-1.451-1.115-2.07c0.39-1.701-0.388-2.425-1.698-2.707
		c1.181-1.238,1.069-2.872-0.637-1.751c-0.609,0.449-1.147,1.225-1.751,1.964c-0.669,0.218-1.352,0.49-1.805-0.159
		c0.479-0.867,0.461-1.857,0.372-2.866c0.672-0.442,1.344-0.884,2.017-1.327c0.561-0.654-0.179-1.109-0.637-0.743
		c-0.46,0.336-0.92,0.672-1.38,1.009c-0.831-0.018-1.663-0.035-2.494-0.053c0.186-1.795-0.914-2.541-2.919-2.07
		c-0.63,0.229-1.157,0.796-1.645,1.486c-0.436-0.007-0.789,0.029-1.327-0.053c0.563-0.426,0.659-1.113,0.584-1.752
		C959.249,500.932,955.569,501.41,951.465,505.496L951.465,505.496z M922.423,544.611c-0.634,2.358-0.854,4.704,2.082,6.953v-0.109
		h66.22c1.477-2.124,2.549-4.329,2.064-6.845H922.423L922.423,544.611z M926.791,552.942c3.028,1.842,5.768,3.836,6.88,6.694
		c-0.005,0.051-0.01,0.102-0.015,0.153h52.093c0.374-1.449,1.186-3.173,2.737-5.358c0.38-0.497,0.767-0.992,1.146-1.489H926.791
		L926.791,552.942z M933.599,560.963c-0.003,1.997,0.495,3.886,1.666,5.578l0.017,0.102h35.615l0.062-0.103
		c2.461-2.708,6.87-4.77,7.542-3.718c1.311,3.613,3.692,4.339,7.117,0.531c-0.128-0.736-0.187-1.514-0.088-2.391H933.599
		L933.599,560.963z M935.542,567.971c0.477,2.119,1.217,4.171,2.001,6.214h27.759c0.511-0.914,1.193-1.772,2.044-2.333
		c0.836-1.411,1.788-2.591,2.685-3.881H935.542L935.542,567.971z M937.601,575.514c-0.164,1.243-0.391,2.48-0.697,3.705l1.316,0.047
		c0.121,0.637-0.103,1.46-0.484,2.097c7.352,0.088,14.705-0.009,22.057,0.079c0.914-1.473,1.759-1.945,2.314-1.858
		c0.054,0.973-0.054,1.946,0,2.919c-8.787,0.157-17.457-0.115-26.242,0.029c-0.723,1.888-1.67,3.733-2.894,5.511l0.021-0.016
		c8.016,0.034,16.031,0.067,24.047,0.101c0.145-1.854,2.541-0.756,1.964,1.115c-9.122,0.042-18.243,0.085-27.365,0.128
		c-1.127,0.153-1.493,4.365-0.764,5.705c6.513,0.117,13.231,0.207,19.744,0.323c0.419-0.435,0.802-0.943,1.008-1.805
		c0.366-0.696,4.119-0.607,4.405-0.053c0.369,0.495,0.277,0.991,0.212,1.486l9.259-0.045l-1.299-5.705
		c0.664-1.383,0.832-2.837,0.505-4.362c0.679,0.609,1.195,1.302,1.321,2.073c0.211,1.298,0.245,1.089,0.681,1.542
		c3.435-0.106,6.763,0.212,10.198,0.106c0.415,0.031,1.618-0.607,0.744-2.656c0.212-0.992,0.425-1.983,0.637-2.974
		c-3.667-0.456-7.395-0.681-10.49,0.292c-0.992-0.425-1.903-1.036-2.895-1.461c0.071-0.779,0.142-1.771,0.212-2.55
		c1.806-0.142,3.689-0.024,5.494,0.074c1.419,3.089,7.422,3.759,5.554-0.18c0.392-0.514,0.758-0.394,1.168,0
		c0.354-1.168,0.708-2.337,1.062-3.505c0.93-1.396,1.751-3.317-1.806-1.965c-1.725-1.857-3.062-0.308-4.355,1.859
		c-1.346-0.071-2.691-0.142-4.037-0.213l-0.106,0.015v0.141h-1.182c-0.814,0.09-1.696,0.179-2.323,0.269
		c0.031-0.089,0.064-0.179,0.098-0.269H937.601L937.601,575.514z M931.859,596.698c0.95,1.618,2.141,2.978,4.441,3.809
		c2.286,0.344,4.389,0.295,6.507-0.079c0.617-0.498,0.976-1.025,0.956-1.594c3.435,0.071,6.87,0.142,10.304,0.213
		c0.69,1.591,1.478,3.021,5.312-0.531c0.771,2.273,2.347,2.822,5.099,0.85c2.691-0.071,5.382-0.142,8.073-0.212
		c0.45-0.241,0.335-1.406-0.134-2.489c0.016,0.037,0.023,0.059,0.019,0.06L931.859,596.698L931.859,596.698z"/>
	<path style="fill-rule:evenodd;clip-rule:evenodd;fill:#F58220;" d="M951.479,505.469c0.696,1.788,1.657,3.683,3.203,5.284
		c1.262,1.308,1.884,3.109,2.826,4.663c1.867-0.214,4.021-0.141,3.267-2.979c0.128-1.148,0.412-2.185,1.036-2.979
		c-0.177-0.009-0.354-0.018-0.531-0.027c-0.035-0.151-0.071-0.301-0.106-0.452c-0.944,0.276-1.792,0.841-2.523,1.755
		c-0.665,0.143-1.242,0.171-1.195-0.612c0.217-0.541,0.544-0.993,1.115-1.25c-0.102-0.519-0.359-1.015-0.956-1.463
		c-0.235-1.285-0.948-1.618-1.859-0.878c-0.385-0.536-0.378-0.9-0.239-1.223c1.727-0.898,3.413-1.914,5.791-0.931
		c0.549,0.206,1.102-0.397,0.545-0.905C957.696,500.557,954.496,502.553,951.479,505.469L951.479,505.469z"/>
	<path style="fill-rule:evenodd;clip-rule:evenodd;fill:#F58220;" d="M962.608,512.93c0.603-0.761,1.244-1.472,1.936-2.144
		C963.841,507.909,961.569,510.936,962.608,512.93L962.608,512.93z"/>
	<path d="M876.2,532.616l0.095-0.7c0.142-1.043-0.027-1.87-0.503-2.49c-0.476-0.616-1.239-1.002-2.29-1.155
		c-1.017-0.147-1.822-0.031-2.426,0.346c-0.6,0.378-0.958,0.994-1.075,1.85c-0.06,0.437-0.025,0.764,0.104,0.973
		c0.125,0.212,0.367,0.344,0.721,0.396L876.2,532.616L876.2,532.616z M876.999,532.732l6.123,0.888c0.416,0.06,0.725,0,0.926-0.18
		c0.201-0.177,0.337-0.514,0.404-1.005c0.13-0.955-0.076-1.73-0.616-2.32c-0.54-0.59-1.394-0.971-2.559-1.14
		c-1.216-0.176-2.178-0.013-2.881,0.486c-0.703,0.499-1.132,1.326-1.289,2.479L876.999,532.732L876.999,532.732z M869.317,531.016
		l0.053-0.392c0.183-1.343,0.365-2.318,0.541-2.921c0.176-0.603,0.407-1.113,0.693-1.525c0.407-0.616,0.908-1.067,1.51-1.348
		c0.599-0.286,1.239-0.379,1.914-0.281c0.914,0.133,1.613,0.579,2.099,1.344c0.482,0.765,0.768,1.865,0.858,3.302
		c0.473-1.538,1.113-2.655,1.915-3.358c0.806-0.702,1.76-0.975,2.87-0.814c0.627,0.091,1.188,0.304,1.686,0.644
		c0.496,0.336,0.905,0.783,1.217,1.333c0.373,0.656,0.6,1.391,0.68,2.213c0.08,0.822-0.014,2.202-0.278,4.135l-0.038,0.278
		l-0.81,5.951l-0.638-0.092l0.042-0.471c0.043-0.646,0.001-1.082-0.129-1.315c-0.13-0.232-0.4-0.376-0.809-0.435l-12.223-1.773
		c-0.409-0.059-0.711,0.002-0.901,0.188c-0.191,0.185-0.347,0.59-0.466,1.217l-0.11,0.473l-0.531-0.077L869.317,531.016
		L869.317,531.016z M882.092,519.811l1.604-4.81l-6.436,0.342L882.092,519.811L882.092,519.811z M885.769,525.795l-0.588-0.209
		c0.111-0.57,0.067-1.086-0.137-1.548c-0.2-0.461-0.793-1.164-1.77-2.104l-6.388-6.046c-0.035-0.037-0.072-0.066-0.115-0.094
		c-0.042-0.027-0.078-0.048-0.113-0.061c-0.053-0.019-0.115-0.021-0.186-0.009c-0.07,0.008-0.143,0.039-0.216,0.082l-0.575,0.308
		c-0.359-0.66-0.76-1.286-1.204-1.879c-0.443-0.596-0.931-1.152-1.465-1.675l0.231-0.694l15.013-1.105
		c0.735-0.056,1.264-0.177,1.582-0.364c0.318-0.187,0.551-0.495,0.693-0.92l0.022-0.065l0.609,0.216l-2.492,7.473l-0.609-0.217
		l0.157-0.708c0.082-0.34,0.081-0.621-0.005-0.835c-0.086-0.213-0.264-0.366-0.531-0.461c-0.084-0.03-0.211-0.051-0.382-0.059
		c-0.167-0.007-0.427-0.006-0.777,0.004l-2.043,0.107l-1.81,5.427l0.816,0.599c0.096,0.079,0.214,0.161,0.357,0.241
		c0.144,0.075,0.298,0.146,0.463,0.205c0.605,0.215,1.142,0.211,1.614-0.012c0.467-0.22,0.828-0.64,1.081-1.257l0.588,0.209
		L885.769,525.795L885.769,525.795z M886.856,500.881l0.376-0.645c0.577-0.991,0.76-1.873,0.546-2.638
		c-0.216-0.77-0.839-1.475-1.873-2.116c-0.983-0.609-1.888-0.875-2.715-0.797c-0.827,0.078-1.451,0.485-1.878,1.22
		c-0.236,0.405-0.331,0.741-0.279,1.01c0.052,0.27,0.254,0.511,0.602,0.727L886.856,500.881L886.856,500.881z M880.62,495.884
		l0.186-0.319c0.671-1.153,1.204-1.965,1.599-2.442c0.395-0.477,0.81-0.847,1.248-1.113c0.636-0.399,1.311-0.604,2.019-0.612
		c0.707-0.005,1.373,0.184,1.996,0.57c0.855,0.53,1.378,1.281,1.564,2.252c0.191,0.97,0.042,2.129-0.441,3.474
		c0.264-0.387,0.576-0.669,0.93-0.844c0.348-0.174,0.857-0.279,1.515-0.32l6.055-0.287c0.403-0.006,0.685-0.05,0.849-0.137
		c0.166-0.085,0.308-0.23,0.429-0.438l0.067-0.115l0.552,0.342l-2.439,4.189l-6.854-0.221c-0.656-0.022-1.125,0.024-1.407,0.141
		c-0.279,0.114-0.53,0.366-0.754,0.751l-0.288,0.494l4.766,2.957c0.361,0.224,0.664,0.291,0.908,0.2
		c0.239-0.09,0.537-0.407,0.888-0.951l0.301-0.472l0.552,0.342l-3.955,6.795l-0.552-0.342l0.217-0.417
		c0.284-0.577,0.41-0.996,0.379-1.263c-0.032-0.266-0.226-0.507-0.58-0.727l-10.58-6.562c-0.354-0.22-0.655-0.285-0.901-0.191
		c-0.246,0.094-0.543,0.403-0.89,0.932l-0.28,0.391l-0.459-0.285L880.62,495.884L880.62,495.884z M891.548,482.107
		c-0.177-0.165-0.331-0.235-0.461-0.212c-0.13,0.029-0.293,0.152-0.487,0.374c-0.505,0.58-0.831,1.389-0.978,2.425
		c-0.143,1.036-0.107,2.259,0.115,3.664l-0.329,0.377l-2.493-3.682l0.082-0.364l0.385-0.004c0.142-0.008,0.264-0.039,0.364-0.091
		c0.103-0.054,0.211-0.15,0.333-0.29l7.698-8.826c0.117-0.134,0.193-0.25,0.23-0.355c0.034-0.102,0.049-0.228,0.042-0.375
		l-0.026-0.406l0.334-0.113l3.813,2.169l-0.314,0.36c-1.377-0.081-2.559,0.011-3.542,0.265c-0.983,0.26-1.729,0.679-2.234,1.258
		c-0.194,0.223-0.298,0.405-0.312,0.542c-0.011,0.139,0.07,0.293,0.247,0.457l9.612,8.935c0.318,0.296,0.606,0.419,0.865,0.369
		c0.256-0.047,0.601-0.299,1.037-0.753l0.478-0.513l0.478,0.445l-5.452,6.251l-0.479-0.445l0.444-0.543
		c0.396-0.501,0.604-0.882,0.617-1.143c0.016-0.265-0.136-0.545-0.454-0.841L891.548,482.107L891.548,482.107z M906.171,466.716
		l0.323,0.442l-0.348,0.328c-0.467,0.407-0.734,0.744-0.802,1.009c-0.065,0.262,0.027,0.566,0.275,0.907l7.428,10.176
		c0.249,0.341,0.501,0.514,0.761,0.519c0.26,0.005,0.65-0.169,1.176-0.521l0.379-0.266l0.388,0.531l-6.147,4.782l-0.387-0.531
		l0.352-0.303c0.473-0.425,0.742-0.765,0.809-1.024c0.067-0.259-0.025-0.558-0.274-0.898l-7.428-10.176
		c-0.249-0.341-0.503-0.518-0.766-0.526c-0.262-0.008-0.649,0.164-1.163,0.52l-0.401,0.255l-0.323-0.442L906.171,466.716
		L906.171,466.716z M926.352,467.016l-3.378-6.291c-0.485-0.904-1.05-1.495-1.689-1.766c-0.644-0.273-1.339-0.218-2.093,0.16
		l-0.28-0.521l4.597-2.63l0.28,0.521c-0.558,0.42-0.851,0.944-0.885,1.57c-0.036,0.622,0.188,1.382,0.668,2.275l6.052,11.271
		l-0.677,0.388l-16.942-6.727l4.773,8.889c0.498,0.928,1.054,1.519,1.674,1.779c0.617,0.262,1.308,0.192,2.078-0.205l0.301,0.562
		l-4.587,2.625l-0.301-0.561c0.541-0.419,0.824-0.937,0.859-1.555c0.036-0.614-0.188-1.373-0.672-2.273l-4.762-8.869
		c-0.289-0.537-0.634-0.863-1.028-0.971c-0.394-0.108-0.86-0.009-1.401,0.3l-0.134,0.076l-0.279-0.521l4.72-2.701L926.352,467.016
		L926.352,467.016z M941.623,458.002l0.67-0.147c0.997-0.219,1.693-0.666,2.095-1.339c0.398-0.673,0.488-1.545,0.268-2.616
		c-0.214-1.038-0.595-1.779-1.145-2.235c-0.55-0.453-1.233-0.59-2.052-0.41c-0.419,0.092-0.705,0.237-0.851,0.434
		c-0.15,0.194-0.188,0.473-0.114,0.834L941.623,458.002L941.623,458.002z M941.791,458.818l1.285,6.243
		c0.088,0.425,0.248,0.704,0.481,0.837c0.229,0.134,0.583,0.151,1.052,0.048c0.914-0.201,1.549-0.666,1.901-1.392
		s0.407-1.684,0.162-2.872c-0.255-1.24-0.733-2.117-1.428-2.629c-0.695-0.511-1.594-0.644-2.697-0.402L941.791,458.818
		L941.791,458.818z M940.726,450.779l0.375-0.082c1.285-0.282,2.235-0.439,2.844-0.475c0.609-0.035,1.152,0.014,1.625,0.15
		c0.7,0.184,1.282,0.516,1.744,1.004c0.465,0.483,0.769,1.072,0.91,1.76c0.192,0.932,0.024,1.762-0.506,2.495
		c-0.531,0.729-1.435,1.383-2.713,1.962c1.562-0.068,2.798,0.172,3.712,0.71c0.914,0.542,1.489,1.374,1.722,2.505
		c0.132,0.639,0.129,1.256-0.01,1.856c-0.136,0.596-0.403,1.145-0.797,1.636c-0.469,0.586-1.061,1.058-1.782,1.416
		c-0.721,0.359-2.009,0.739-3.859,1.145l-0.266,0.058l-5.694,1.25l-0.134-0.65l0.443-0.121c0.602-0.179,0.986-0.369,1.153-0.575
		c0.167-0.206,0.206-0.516,0.12-0.934l-2.566-12.463c-0.086-0.417-0.245-0.689-0.479-0.81c-0.234-0.121-0.656-0.135-1.267-0.036
		l-0.468,0.056l-0.111-0.541L940.726,450.779L940.726,450.779z M966.642,464.99l-14.149,0.255l-0.011-0.665l0.457-0.031
		c0.624-0.058,1.036-0.169,1.238-0.337c0.202-0.169,0.297-0.467,0.29-0.893l-0.215-12.739c-0.007-0.438-0.105-0.732-0.298-0.89
		c-0.192-0.158-0.615-0.254-1.271-0.289l-0.458,0.008l-0.01-0.595l12.679-0.228l1.451,3.894l-0.314,0.117l-0.855-0.999
		c-0.691-0.798-1.371-1.393-2.037-1.781c-0.669-0.391-1.331-0.579-1.986-0.568l-1.701,0.031c-0.558,0.01-0.955,0.105-1.183,0.29
		c-0.231,0.185-0.342,0.498-0.334,0.944l0.099,5.832l1.407-0.026c0.808-0.014,1.491-0.342,2.05-0.979
		c0.562-0.636,0.909-1.484,1.044-2.544l0.446-0.008l0.126,7.426l-0.446,0.008c-0.17-1.004-0.552-1.808-1.143-2.416
		c-0.591-0.608-1.281-0.907-2.066-0.893l-1.407,0.025l0.107,6.312c0.007,0.434,0.128,0.739,0.365,0.92
		c0.234,0.18,0.634,0.265,1.192,0.255l1.637-0.029c1.091-0.02,2.031-0.294,2.819-0.823c0.791-0.525,1.596-1.412,2.408-2.66
		l0.568-0.752l0.296,0.129L966.642,464.99L966.642,464.99z M981.942,467.596l-13.981-2.286l0.104-0.679l0.452,0.074
		c0.625,0.055,1.048,0.02,1.276-0.111c0.227-0.13,0.371-0.406,0.436-0.827l1.931-12.584c0.066-0.429,0.019-0.74-0.144-0.93
		c-0.163-0.19-0.559-0.36-1.192-0.506l-0.456-0.121l0.084-0.547l7.808,1.277l-0.084,0.547l-0.676-0.064
		c-0.652-0.075-1.077-0.052-1.286,0.078c-0.209,0.129-0.347,0.418-0.415,0.862l-1.913,12.47c-0.076,0.497-0.022,0.856,0.166,1.077
		c0.188,0.221,0.571,0.378,1.152,0.473l1.618,0.264c1.077,0.176,2.05,0.075,2.922-0.304c0.872-0.375,1.809-1.105,2.816-2.189
		l0.702-0.772l0.26,0.249L981.942,467.596L981.942,467.596z M996.165,473.617l-13.212-5.235l0.231-0.621l0.435,0.148
		c0.6,0.188,1.022,0.244,1.27,0.166c0.249-0.079,0.445-0.318,0.593-0.716l4.423-11.895c0.152-0.409,0.168-0.72,0.047-0.941
		c-0.121-0.221-0.478-0.473-1.073-0.759l-0.427-0.169l0.207-0.556l11.839,4.691l-0.068,4.171l-0.334-0.013l-0.43-1.257
		c-0.351-1.007-0.766-1.822-1.242-2.439c-0.478-0.622-1.024-1.052-1.635-1.294l-1.588-0.629c-0.521-0.207-0.924-0.272-1.202-0.188
		c-0.281,0.082-0.497,0.33-0.652,0.746l-2.025,5.445l1.313,0.52c0.754,0.299,1.506,0.259,2.255-0.115
		c0.752-0.373,1.382-1.025,1.891-1.955l0.417,0.165l-2.578,6.934l-0.417-0.165c0.207-0.996,0.145-1.889-0.183-2.682
		c-0.327-0.792-0.859-1.336-1.592-1.627l-1.314-0.521l-2.192,5.894c-0.151,0.405-0.15,0.735,0.005,0.994
		c0.151,0.258,0.491,0.491,1.013,0.698l1.529,0.606c1.018,0.403,1.99,0.513,2.913,0.327c0.924-0.181,1.992-0.692,3.198-1.535
		l0.799-0.478l0.228,0.234L996.165,473.617L996.165,473.617z M1010.059,465.61l-7.08,10.437c-0.245,0.362-0.324,0.685-0.232,0.972
		c0.089,0.285,0.366,0.593,0.823,0.923l0.537,0.388c1.326,0.959,2.706,1.149,4.139,0.576c1.433-0.578,2.842-1.886,4.226-3.925
		c0.805-1.187,1.407-2.337,1.811-3.447c0.401-1.107,0.551-2.017,0.446-2.727c-0.068-0.49-0.265-0.956-0.596-1.406
		c-0.328-0.448-0.802-0.894-1.415-1.337l-0.732-0.529c-0.457-0.331-0.833-0.494-1.122-0.483
		C1010.572,465.061,1010.305,465.248,1010.059,465.61L1010.059,465.61z M997.268,474.226l0.37-0.545l0.388,0.252
		c0.538,0.332,0.934,0.492,1.193,0.478c0.26-0.014,0.506-0.197,0.743-0.546l7.079-10.437c0.237-0.349,0.321-0.654,0.247-0.914
		c-0.074-0.26-0.352-0.587-0.838-0.981l-0.359-0.316l0.307-0.453l6.199,4.48c1.287,0.93,2.205,1.687,2.756,2.274
		c0.552,0.586,0.984,1.208,1.3,1.868c0.629,1.304,0.859,2.652,0.704,4.046c-0.154,1.394-0.69,2.766-1.604,4.113
		c-0.837,1.234-1.857,2.162-3.058,2.78c-1.203,0.622-2.527,0.899-3.973,0.834c-0.714-0.033-1.433-0.206-2.161-0.526
		c-0.725-0.317-1.788-0.982-3.187-1.994L997.268,474.226L997.268,474.226z M1028.596,479.57l-0.379,0.391l-0.363-0.31
		c-0.455-0.421-0.816-0.647-1.079-0.679c-0.261-0.03-0.54,0.106-0.832,0.408l-8.728,9.009c-0.292,0.302-0.424,0.584-0.392,0.85
		c0.032,0.266,0.253,0.641,0.663,1.13l0.308,0.351l-0.455,0.47l-5.443-5.619l0.455-0.47l0.34,0.318
		c0.474,0.424,0.837,0.652,1.095,0.685c0.258,0.033,0.531-0.103,0.824-0.405l8.727-9.009c0.292-0.302,0.427-0.587,0.397-0.856
		c-0.029-0.269-0.247-0.641-0.66-1.117l-0.3-0.375l0.379-0.391L1028.596,479.57L1028.596,479.57z M1027.309,473.433
		c0.245-0.253,0.552-0.386,0.918-0.394c0.368-0.005,0.674,0.114,0.916,0.364c0.239,0.247,0.358,0.565,0.358,0.951
		c-0.003,0.383-0.129,0.704-0.374,0.956c-0.263,0.272-0.566,0.405-0.91,0.397c-0.345-0.003-0.648-0.141-0.908-0.41
		c-0.263-0.272-0.395-0.581-0.392-0.932C1026.914,474.014,1027.046,473.704,1027.309,473.433L1027.309,473.433z M1024.583,497.686
		c-0.34,0.255-0.515,0.524-0.518,0.806c-0.003,0.277,0.164,0.684,0.497,1.209l0.349,0.536l-0.521,0.391l-4.763-6.767l0.521-0.391
		l0.39,0.515c0.383,0.492,0.704,0.778,0.962,0.864c0.262,0.084,0.563-0.004,0.903-0.259l4.791-3.593l2.656-7.947
		c0.109-0.343,0.147-0.647,0.122-0.918c-0.03-0.272-0.133-0.561-0.308-0.876l0.503-0.377l4.647,6.602l-0.503,0.377l-0.541-0.691
		c-0.189-0.243-0.357-0.397-0.515-0.464c-0.155-0.069-0.301-0.055-0.436,0.047c-0.054,0.041-0.099,0.088-0.141,0.139
		c-0.037,0.052-0.079,0.135-0.128,0.243l-2.263,5.996l5.046-0.165c0.2-0.003,0.395-0.035,0.579-0.092
		c0.185-0.058,0.341-0.137,0.47-0.234c0.277-0.208,0.416-0.455,0.423-0.745c0.009-0.287-0.115-0.626-0.367-1.012l0.503-0.377
		l2.647,3.761l-0.503,0.377c-0.331-0.365-0.685-0.621-1.063-0.765c-0.383-0.145-0.927-0.212-1.637-0.202l-6.764,0.234
		L1024.583,497.686L1024.583,497.686z M1032.205,516.407l-5.981-13.24l0.584-0.281l0.214,0.419c0.305,0.566,0.57,0.908,0.802,1.03
		c0.232,0.122,0.534,0.091,0.908-0.09l11.186-5.385c0.385-0.185,0.605-0.397,0.666-0.643c0.062-0.246-0.025-0.683-0.262-1.316
		l-0.193-0.428l0.523-0.252l5.359,11.864l-2.856,2.952l-0.232-0.249l0.537-1.212c0.425-0.976,0.675-1.86,0.747-2.645
		c0.074-0.79-0.029-1.491-0.306-2.104l-0.719-1.592c-0.236-0.522-0.482-0.857-0.738-0.997c-0.257-0.143-0.579-0.12-0.971,0.069
		l-5.121,2.465l0.595,1.316c0.341,0.756,0.909,1.267,1.699,1.535c0.792,0.272,1.684,0.254,2.676-0.05l0.189,0.418l-6.521,3.139
		l-0.188-0.418c0.819-0.568,1.375-1.256,1.673-2.061c0.298-0.804,0.281-1.577-0.05-2.312l-0.595-1.316l-5.542,2.668
		c-0.381,0.184-0.602,0.422-0.665,0.719c-0.064,0.294,0.023,0.706,0.259,1.228l0.692,1.532c0.461,1.021,1.086,1.796,1.875,2.324
		c0.787,0.533,1.899,0.93,3.334,1.189l0.897,0.23l0.006,0.332L1032.205,516.407L1032.205,516.407z M1033.124,518.59l5.08-1.074
		l0.148,0.611c-1.464,1.197-2.519,2.355-3.159,3.47c-0.64,1.115-0.845,2.158-0.611,3.127c0.174,0.719,0.537,1.24,1.087,1.562
		c0.549,0.322,1.195,0.39,1.935,0.199c1.466-0.377,2.338-2.011,2.606-4.904l0.003-0.037c0.166-1.821,0.519-3.171,1.058-4.054
		c0.539-0.879,1.347-1.46,2.419-1.736c1.416-0.365,2.674-0.189,3.769,0.531c1.095,0.72,1.829,1.854,2.201,3.397
		c0.211,0.872,0.245,1.822,0.097,2.846c-0.144,1.023-0.213,1.564-0.199,1.623c0.026,0.108,0.096,0.205,0.203,0.284
		c0.111,0.078,0.279,0.154,0.505,0.218l0.087,0.362l-4.766,1.342l-0.108-0.447c1.376-0.881,2.372-1.854,2.99-2.916
		c0.621-1.066,0.805-2.116,0.555-3.148c-0.168-0.697-0.488-1.209-0.961-1.534c-0.469-0.323-1.011-0.405-1.625-0.247
		c-0.726,0.187-1.257,0.561-1.591,1.118c-0.333,0.557-0.552,1.556-0.664,2.998c-0.006,0.117-0.019,0.286-0.035,0.508
		c-0.146,2.081-0.477,3.505-0.99,4.27c-0.348,0.513-0.769,0.946-1.267,1.3c-0.494,0.353-1.043,0.605-1.643,0.759
		c-1.423,0.366-2.761,0.132-4.012-0.698c-1.248-0.831-2.063-2.031-2.443-3.604c-0.253-1.048-0.307-2.162-0.162-3.34
		c0.149-1.179,0.218-1.783,0.211-1.812c-0.026-0.108-0.088-0.207-0.191-0.299c-0.099-0.09-0.242-0.175-0.427-0.258L1033.124,518.59
		L1033.124,518.59z M1052.035,538.041l-0.534,0.048l-0.085-0.478c-0.087-0.625-0.223-1.037-0.404-1.236
		c-0.181-0.196-0.479-0.277-0.891-0.24l-12.296,1.111c-0.411,0.037-0.688,0.166-0.83,0.391c-0.142,0.225-0.206,0.659-0.196,1.306
		l0.018,0.473l-0.641,0.058l-0.671-7.916l0.641-0.058l0.062,0.469c0.099,0.639,0.235,1.055,0.412,1.251
		c0.177,0.196,0.472,0.274,0.883,0.236l12.296-1.11c0.411-0.037,0.692-0.167,0.837-0.392c0.145-0.225,0.21-0.655,0.189-1.294
		l0.004-0.486l0.534-0.048L1052.035,538.041L1052.035,538.041z M1054.87,532.485c0.345-0.031,0.664,0.071,0.949,0.308
		c0.286,0.24,0.445,0.534,0.475,0.887c0.03,0.348-0.078,0.67-0.318,0.966c-0.241,0.291-0.537,0.453-0.882,0.484
		c-0.371,0.033-0.685-0.065-0.945-0.3c-0.262-0.231-0.408-0.538-0.44-0.917c-0.032-0.383,0.06-0.707,0.28-0.974
		C1054.206,532.669,1054.5,532.519,1054.87,532.485L1054.87,532.485z"/>
	<path style="fill-rule:evenodd;clip-rule:evenodd;" d="M1070.614,557.09c-0.547,3.791-1.281,7.521-2.197,11.179l-2.092-3.173
		c0.435-1.929,0.816-3.878,1.147-5.844L1070.614,557.09L1070.614,557.09z"/>
	<path style="fill-rule:evenodd;clip-rule:evenodd;" d="M1062.843,577.198c0.927-2.641,1.76-5.327,2.486-8.056
		c0.686,0.974,1.365,1.955,2.073,2.905c-0.338,1.175-0.7,2.339-1.075,3.498L1062.843,577.198L1062.843,577.198z"/>
	<path style="fill-rule:evenodd;clip-rule:evenodd;" d="M1058.513,587.736c0.933-1.97,1.81-3.972,2.627-6.005l3.693-1.877
		c-1.481,4.006-3.184,7.904-5.094,11.68L1058.513,587.736L1058.513,587.736z"/>
	<path style="fill-rule:evenodd;clip-rule:evenodd;" d="M1052.026,599.49c1.681-2.646,3.25-5.37,4.703-8.165l1.297,3.468
		c-0.658,1.2-1.338,2.386-2.039,3.559L1052.026,599.49L1052.026,599.49z"/>
	<path style="fill-rule:evenodd;clip-rule:evenodd;" d="M1045.862,608.232c1.234-1.58,2.423-3.197,3.571-4.844l4.139-1.171
		c-2.256,3.453-4.696,6.775-7.308,9.95L1045.862,608.232L1045.862,608.232z"/>
	<path style="fill-rule:evenodd;clip-rule:evenodd;" d="M1037.045,618.209c2.048-2.052,4.015-4.187,5.896-6.397l0.511,3.645
		c-0.793,0.892-1.602,1.77-2.424,2.637L1037.045,618.209L1037.045,618.209z"/>
	<path style="fill-rule:evenodd;clip-rule:evenodd;" d="M1029.008,625.504c1.811-1.488,3.573-3.034,5.284-4.633l4.072-0.059
		c-3.061,3.019-6.293,5.864-9.683,8.516L1029.008,625.504L1029.008,625.504z"/>
	<path style="fill-rule:evenodd;clip-rule:evenodd;" d="M1017.968,633.481c2.497-1.577,4.926-3.252,7.28-5.021l-0.19,3.586
		c-1.045,0.752-2.104,1.485-3.175,2.201L1017.968,633.481L1017.968,633.481z"/>
	<path style="fill-rule:evenodd;clip-rule:evenodd;" d="M1009.486,638.322c1.572-0.806,3.122-1.65,4.649-2.529l4.291,0.674
		c-3.259,2.01-6.629,3.857-10.098,5.531L1009.486,638.322L1009.486,638.322z"/>
	<path style="fill-rule:evenodd;clip-rule:evenodd;" d="M993.342,645.017l0.068-0.022c4.188-1.356,8.266-2.958,12.216-4.79
		l-0.85,3.431c-3.417,1.503-6.924,2.839-10.509,4l-0.023,0.008L993.342,645.017L993.342,645.017z"/>
	<path style="fill-rule:evenodd;clip-rule:evenodd;" d="M917.18,641.599c3.433,1.462,6.957,2.753,10.559,3.862l-0.902,2.626
		c-2.957-0.913-5.863-1.945-8.71-3.092L917.18,641.599L917.18,641.599z"/>
	<path style="fill-rule:evenodd;clip-rule:evenodd;" d="M908.076,637.211c1.719,0.929,3.465,1.813,5.237,2.651l1.261,3.628
		c-3.693-1.638-7.281-3.471-10.751-5.484L908.076,637.211L908.076,637.211z"/>
	<path style="fill-rule:evenodd;clip-rule:evenodd;" d="M897.24,630.509c2.268,1.593,4.6,3.102,6.99,4.522l-3.879,0.876
		c-0.948-0.597-1.888-1.208-2.817-1.832L897.24,630.509L897.24,630.509z"/>
	<path style="fill-rule:evenodd;clip-rule:evenodd;" d="M887.585,622.884c1.89,1.673,3.837,3.283,5.84,4.823l0.436,3.789
		c-3.614-2.646-7.063-5.502-10.331-8.552L887.585,622.884L887.585,622.884z"/>
	<path style="fill-rule:evenodd;clip-rule:evenodd;" d="M879.073,614.484c1.828,2.013,3.731,3.956,5.703,5.827h-3.971
		c-0.721-0.721-1.434-1.45-2.136-2.19L879.073,614.484L879.073,614.484z"/>
	<path style="fill-rule:evenodd;clip-rule:evenodd;" d="M871.983,605.823c1.311,1.778,2.675,3.513,4.088,5.206l-0.286,3.925
		c-2.839-3.232-5.495-6.629-7.953-10.174L871.983,605.823L871.983,605.823z"/>
	<path style="fill-rule:evenodd;clip-rule:evenodd;" d="M864.663,594.514c1.445,2.569,2.991,5.074,4.632,7.509l-3.973-1.017
		c-0.631-0.994-1.247-1.999-1.848-3.013L864.663,594.514L864.663,594.514z"/>
	<path style="fill-rule:evenodd;clip-rule:evenodd;" d="M859.703,584.534c0.959,2.206,1.989,4.375,3.086,6.503l-1.109,3.807
		c-2.135-3.89-4.046-7.919-5.715-12.072L859.703,584.534L859.703,584.534z"/>
	<path style="fill-rule:evenodd;clip-rule:evenodd;" d="M855.35,572.683c0.759,2.51,1.607,4.981,2.538,7.41l-3.523-1.545
		c-0.346-0.972-0.679-1.95-0.999-2.935C854.05,574.658,854.699,573.669,855.35,572.683L855.35,572.683z"/>
	<path style="fill-rule:evenodd;clip-rule:evenodd;" d="M852.758,562.295c0.429,2.167,0.921,4.311,1.475,6.43l-1.99,3.215
		c-1.097-3.823-1.996-7.729-2.686-11.708L852.758,562.295L852.758,562.295z"/>
	<path style="fill-rule:evenodd;clip-rule:evenodd;" d="M959.84,428.833c61.81,0,111.936,50.202,111.936,112.105
		c0,3.797-0.191,7.55-0.56,11.251l-3.031,2.17c0.538-4.399,0.82-8.877,0.82-13.421c0-60.371-48.885-109.331-109.166-109.331
		c-60.28,0-109.166,48.959-109.166,109.331c0,5.61,0.423,11.122,1.237,16.505l-3.087-2.075c-0.607-4.724-0.92-9.541-0.92-14.43
		C847.905,479.035,898.031,428.833,959.84,428.833L959.84,428.833z"/>
	<path style="fill-rule:evenodd;clip-rule:evenodd;" d="M867.53,543.917c-6.314,0.226-12.629,0.453-18.943,0.679
		c0.282,3.933,0.712,7.757,1.285,11.475l7.64,5.136c0.772,0.487,1.234,0.38,1.389-0.321c-0.19-1.955-0.38-3.911-0.57-5.866
		c1.834,2.271,3.668,4.541,5.503,6.811l0.644-0.06c0.296-0.808,1.072-1.384,1.982-1.384c1.165,0,2.11,0.945,2.11,2.11
		c0,1.165-0.945,2.11-2.11,2.11c-0.548,0-1.048-0.209-1.423-0.552l-0.509,0.255l-2.304,10.118l8.252,7.268l0.544-0.115
		c0.198-0.913,1.011-1.597,1.984-1.597c1.121,0,2.031,0.909,2.031,2.031c0,1.121-0.909,2.03-2.031,2.03
		c-0.261,0-0.511-0.049-0.74-0.139c-0.148,0.084-0.319,0.193-0.47,0.286l0.586,11.58l8.798,4.29
		c0.368-0.071,0.736-0.143,1.104-0.214l0.001,0.001c-0.001-0.021-0.001-0.043-0.001-0.064c0-1.088,0.882-1.97,1.97-1.97
		c1.088,0,1.97,0.882,1.97,1.97c0,1.088-0.882,1.97-1.97,1.97c-0.125,0-0.247-0.012-0.366-0.034l0.034,0.052
		c-0.217,0.235-0.434,0.47-0.651,0.704c0.876,3.635,1.751,7.269,2.627,10.904c-1.739-1.664-3.478-3.328-5.217-4.993
		c-0.564-0.476-0.89-0.333-0.979,0.428l-0.805,7.263c1.397,1.443,2.839,2.853,4.326,4.231h7.647
		c0.783,0.018,1.344-0.713,0.712-1.427l-5.663-5.492l11.682,3.495l0.469-0.422c-0.113-0.249-0.175-0.526-0.175-0.818
		c0-1.098,0.89-1.988,1.988-1.988c1.098,0,1.988,0.89,1.988,1.988c0,1.012-0.756,1.848-1.734,1.972l-0.355,0.658l4.521,10.402
		l10.356-0.053l0.678-0.55c-0.172-0.318-0.269-0.681-0.269-1.068c0-1.243,1.009-2.252,2.252-2.252c1.243,0,2.252,1.009,2.252,2.252
		c0,1.108-0.802,2.031-1.856,2.218l-0.066,1.058c1.994,2.722,3.989,5.445,5.983,8.167c-2.434-1.01-4.867-2.021-7.301-3.031
		c-0.632-0.231-1.041-0.13-0.677,0.713l1.96,7.023c3.091,1.478,6.275,2.887,9.55,4.229c1.925-6.116,3.851-12.233,5.776-18.349
		C883.342,611.998,871.101,576.297,867.53,543.917L867.53,543.917z M904.296,628.71l-6.519-4.387
		c-0.65-0.434-1.036-0.196-0.997,0.606l0.545,6.607c1.877,1.286,3.803,2.536,5.778,3.749l6.034-1.363
		c0.797-0.245,0.96-0.709,0.499-1.07L904.296,628.71L904.296,628.71z M906.756,637.458c2.288,1.317,4.638,2.589,7.048,3.817
		l-1.675-4.821L906.756,637.458L906.756,637.458z M886.117,622.905c2.377,2.059,4.857,4.042,7.44,5.95l-0.695-6.049L886.117,622.905
		L886.117,622.905z M862.215,574.467l-0.004,0.016c-0.827-2.318-1.222-4.84-2.482-6.954c-0.277-0.465-0.216-0.374-0.544-0.016
		c-1.927,2.099-3.422,4.598-5.041,6.983c0.499,1.573,1.03,3.125,1.589,4.654l7.387,3.242c1.039,0.416,1.549,0.203,1.282-0.927
		L862.215,574.467L862.215,574.467z M857.416,583.455c1.413,3.402,2.985,6.689,4.709,9.862l1.958-6.718L857.416,583.455
		L857.416,583.455z M863.964,596.56c0.982,1.661,2.007,3.289,3.077,4.885l7.477,1.914c1.003,0.202,1.781,0.171,1.14-1.284
		c-1.11-2.11-2.22-4.22-3.33-6.33l0.028,0.014l-4.462-7.021c-0.527-0.884-0.968-0.982-1.282,0.071L863.964,596.56L863.964,596.56z
		 M850.723,560.982c0.643,3.326,1.407,6.564,2.289,9.715l3.645-5.888L850.723,560.982L850.723,560.982z M869.724,605.256
		c1.946,2.639,4.016,5.187,6.211,7.642l0.435-5.972L869.724,605.256L869.724,605.256z"/>
	<path style="fill-rule:evenodd;clip-rule:evenodd;" d="M1052.174,543.089c6.182,0.227,12.363,0.453,18.544,0.68
		c-0.227,3.231-0.552,6.387-0.971,9.473l-6.678,4.782c-0.76,0.512-1.228,0.418-1.403-0.282c0.134-1.97,0.267-3.94,0.4-5.91
		c-1.774,2.335-3.548,4.669-5.322,7.004l-0.648-0.042c-0.321-0.803-1.116-1.359-2.03-1.333c-1.169,0.034-2.09,1.011-2.056,2.182
		s1.01,2.092,2.179,2.058c0.55-0.016,1.046-0.241,1.412-0.597l0.518,0.241l2.608,10.097l-8.068,7.542l-0.549-0.099
		c-0.226-0.912-1.062-1.576-2.038-1.547c-1.125,0.033-2.011,0.973-1.979,2.1c0.033,1.126,0.972,2.013,2.097,1.981
		c0.262-0.008,0.511-0.064,0.739-0.162c0.151,0.08,0.326,0.185,0.48,0.274l-0.25,11.65l-8.703,4.567
		c-0.371-0.061-0.743-0.122-1.114-0.183l-0.001,0.002c0-0.021,0-0.043,0-0.064c-0.032-1.093-0.943-1.953-2.035-1.922
		c-1.092,0.032-1.951,0.944-1.919,2.037c0.032,1.093,0.943,1.953,2.035,1.922c0.125-0.004,0.248-0.019,0.366-0.045l-0.033,0.053
		c0.225,0.229,0.45,0.459,0.674,0.689c-0.772,3.677-1.545,7.354-2.317,11.031c1.696-1.723,3.392-3.446,5.089-5.168
		c0.552-0.494,0.884-0.361,0.995,0.401l0.914,6.513c-1.583,1.768-3.229,3.488-4.938,5.161l-6.846,0.2
		c-0.785,0.041-1.37-0.676-0.757-1.412l5.522-5.683l-11.62,3.853l-0.483-0.41c0.105-0.254,0.161-0.533,0.152-0.826
		c-0.032-1.103-0.952-1.971-2.053-1.939c-1.102,0.032-1.969,0.952-1.937,2.055c0.03,1.017,0.812,1.834,1.798,1.931l0.376,0.651
		l-4.232,10.582l-10.394,0.25l-0.697-0.532c0.163-0.324,0.25-0.693,0.238-1.08c-0.036-1.249-1.078-2.233-2.326-2.197
		c-1.248,0.037-2.231,1.079-2.194,2.329c0.032,1.113,0.864,2.017,1.928,2.174l0.097,1.061c-1.922,2.793-3.844,5.586-5.765,8.379
		c2.413-1.086,4.825-2.172,7.238-3.259c0.628-0.25,1.041-0.161,0.7,0.697l-1.541,6.221c-3.718,1.886-7.579,3.664-11.578,5.338
		c-1.885-6.117-3.77-12.233-5.655-18.349C1036.695,611.17,1048.678,575.469,1052.174,543.089L1052.174,543.089z M1018.097,627.207
		l6.413-4.599c0.639-0.455,1.034-0.227,1.018,0.58l-0.315,5.942c-2.113,1.547-4.294,3.042-6.54,4.488l-5.28-1.033
		c-0.807-0.223-0.984-0.684-0.532-1.06L1018.097,627.207L1018.097,627.207z M1014.966,635.924c-1.877,1.127-3.797,2.223-5.759,3.286
		l1.257-3.993L1014.966,635.924L1014.966,635.924z M1035.338,620.856c-2.051,1.874-4.184,3.687-6.398,5.438l0.457-5.352
		L1035.338,620.856L1035.338,620.856z M1049.184,593.17l4.272-7.184c0.503-0.904,0.943-1.015,1.289,0.034l2.542,6.798
		c-1.136,2.117-2.34,4.182-3.61,6.198l-6.441,1.853c-1,0.233-1.782,0.224-1.181-1.256c1.052-2.152,2.104-4.305,3.156-6.457
		L1049.184,593.17L1049.184,593.17z M1051.096,602.917c-1.605,2.31-3.301,4.552-5.089,6.725l-0.525-5.137L1051.096,602.917
		L1051.096,602.917z M1058.737,571.482l0.004,0.016c0.762-2.353,1.084-4.898,2.287-7.059c0.265-0.475,0.206-0.382,0.546-0.032
		c1.757,1.806,3.186,3.934,4.658,6.019c-0.573,2.055-1.199,4.071-1.871,6.052l-6.301,2.991c-1.031,0.448-1.548,0.249-1.314-0.894
		L1058.737,571.482L1058.737,571.482z M1062.752,580.912c-1.126,2.908-2.36,5.735-3.704,8.478l-1.83-5.666L1062.752,580.912
		L1062.752,580.912z M1068.974,558.218c-0.491,2.824-1.063,5.587-1.72,8.287l-3.222-4.887L1068.974,558.218L1068.974,558.218z"/>
	<path d="M937.54,648.943l0.105-0.705l1.109,0.208c0.529,0.094,0.922-0.002,1.19-0.29c0.265-0.29,0.465-0.881,0.597-1.77
		l1.584-10.678c0.057-0.382-0.059-0.682-0.348-0.897c-0.286-0.214-0.937-0.452-1.953-0.714l0.082-0.555
		c0.983,0.023,1.949-0.018,2.9-0.123c0.948-0.106,1.888-0.278,2.824-0.508l-2.092,14.103c-0.131,0.882-0.112,1.515,0.06,1.899
		c0.168,0.384,0.516,0.64,1.044,0.767l1.103,0.255l-0.105,0.704L937.54,648.943L937.54,648.943z M955.404,640.787
		c0.493-0.296,0.874-0.697,1.143-1.203c0.269-0.502,0.426-1.106,0.467-1.808c0.057-0.973-0.145-1.767-0.611-2.383
		c-0.463-0.619-1.113-0.962-1.952-1.031c-0.741-0.062-1.358,0.115-1.855,0.527c-0.493,0.412-0.761,0.962-0.802,1.656
		c-0.023,0.399,0.061,0.799,0.25,1.199c0.192,0.404,0.452,0.739,0.787,0.999L955.404,640.787L955.404,640.787z M951.741,642.842
		c-0.52,0.426-0.922,0.945-1.211,1.562c-0.285,0.613-0.451,1.309-0.497,2.09c-0.071,1.212,0.167,2.205,0.719,2.968
		c0.552,0.767,1.329,1.192,2.329,1.275c0.879,0.073,1.636-0.145,2.277-0.656c0.64-0.512,0.982-1.164,1.029-1.958
		c0.026-0.45-0.07-0.871-0.29-1.258c-0.224-0.383-0.664-0.86-1.329-1.424L951.741,642.842L951.741,642.842z M951.106,642.332
		c-0.657-0.696-1.14-1.417-1.447-2.163c-0.31-0.747-0.44-1.511-0.394-2.297c0.08-1.371,0.589-2.451,1.525-3.235
		c0.933-0.788,2.119-1.122,3.555-1.003c1.382,0.115,2.45,0.532,3.203,1.252c0.757,0.72,1.1,1.646,1.033,2.774
		c-0.047,0.793-0.283,1.487-0.706,2.081c-0.422,0.594-1.035,1.096-1.838,1.51c1.075,0.863,1.834,1.719,2.276,2.569
		c0.439,0.854,0.628,1.819,0.564,2.9c-0.088,1.503-0.67,2.741-1.748,3.705c-1.078,0.968-2.36,1.39-3.847,1.267
		c-1.607-0.133-2.866-0.667-3.782-1.6c-0.916-0.933-1.333-2.094-1.252-3.478c0.052-0.889,0.312-1.689,0.782-2.395
		C949.5,643.509,950.194,642.882,951.106,642.332L951.106,642.332z M967.828,637.276l-6.504,0.541
		c-0.376,0.031-0.704,0.127-0.991,0.283c-0.287,0.156-0.537,0.381-0.753,0.672l-0.252-0.095l1.074-4.268l8.933-0.743l0.069,1.168
		c-1.082,2.979-1.847,5.787-2.298,8.429c-0.448,2.646-0.606,5.231-0.47,7.764l-3.519,0.293c-0.02-2.118,0.355-4.329,1.127-6.633
		C965.011,642.386,966.207,639.915,967.828,637.276L967.828,637.276z M973.863,640.352c0.385-0.422,0.785-0.761,1.198-1.018
		c0.416-0.258,0.857-0.436,1.324-0.534c1.229-0.257,2.312,0.023,3.256,0.844c0.941,0.821,1.526,2.002,1.755,3.54
		c0.118,0.799,0.111,1.556-0.019,2.269c-0.13,0.713-0.391,1.417-0.784,2.108c-0.405,0.718-0.884,1.293-1.435,1.717
		c-0.552,0.424-1.182,0.71-1.894,0.859c-1.566,0.329-2.95-0.047-4.152-1.127c-1.205-1.079-1.958-2.633-2.259-4.664
		c-0.404-2.728,0.015-5.194,1.261-7.403c1.247-2.205,3.229-3.993,5.94-5.352l0.243,0.485c-1.35,0.932-2.404,2.115-3.169,3.545
		C974.361,637.054,973.942,638.631,973.863,640.352L973.863,640.352z M973.868,641.325c0.031,0.578,0.072,1.105,0.114,1.575
		c0.042,0.47,0.094,0.91,0.154,1.319c0.284,1.913,0.673,3.268,1.164,4.07c0.491,0.802,1.129,1.119,1.914,0.954
		c0.692-0.145,1.148-0.594,1.371-1.35c0.219-0.756,0.219-1.88-0.002-3.372c-0.247-1.661-0.612-2.879-1.093-3.659
		c-0.484-0.779-1.071-1.095-1.763-0.95c-0.298,0.062-0.597,0.21-0.904,0.445C974.52,640.592,974.199,640.915,973.868,641.325
		L973.868,641.325z"/>
	<polygon style="fill:none;stroke:#000000;stroke-width:0.216;stroke-miterlimit:22.9256;" points="818.108,399.108 
		1101.573,399.108 1101.573,682.572 818.108,682.572 818.108,399.108 	"/>
</g>
</svg>
