<?xml version="1.0" encoding="iso-8859-1"?>
<!-- Generator: Adobe Illustrator 29.7.1, SVG Export Plug-In . SVG Version: 9.03 Build 0)  -->
<svg version="1.1" id="Layer_1" xmlns="http://www.w3.org/2000/svg" xmlns:xlink="http://www.w3.org/1999/xlink" x="0px" y="0px"
	 viewBox="0 0 1295.43 1017.64" style="enable-background:new 0 0 1295.43 1017.64;" xml:space="preserve">
<g>
	<path style="fill-rule:evenodd;clip-rule:evenodd;fill:#1C99D5;" d="M874.951,594.117
		c-10.952,108.133-70.662,186.505-151.998,232.85c-43.05,24.529-96.846,40.825-156.849,37.188
		c-142.175-8.618-229.677-100.823-274.887-210.21c-30.026-72.643-32.899-164.334-8.086-249.017
		c41.397-141.285,154.826-250.757,321.782-261.952c123.346-8.27,218.273,33.806,282.976,90.551
		c65.112,57.108,113.289,142.774,122.89,249.017c11.354,125.644-37.97,210.129-93.784,274.889
		c-58.135,67.454-131.708,116.923-244.166,127.742c109.177-19.396,186.489-72.38,244.166-147.144
		c57.688-74.779,97.325-180.775,64.68-307.23c-22.143-85.768-62.107-151.271-124.508-198.891
		c-61.566-46.98-139.146-80.238-250.635-72.764c-128.979,8.646-225.194,85.331-273.273,181.103
		c-26.423,52.639-42.022,119.214-40.425,185.956c1.664,69.492,23.544,122.518,54.978,171.4
		c56.066,87.185,162.895,165.324,308.847,130.976C768.207,802.328,846.521,710.963,874.951,594.117z"/>
	<path style="fill-rule:evenodd;clip-rule:evenodd;fill:#13A84E;" d="M509.511,862.539
		c144.758,31.194,249.492-28.816,313.695-114.806c32.183-43.101,59.61-99.322,63.064-161.7
		c3.556-64.207-16.477-120.453-53.361-169.785c-42.561-56.925-121.555-115.045-229.614-106.722
		c-88.042,6.783-161.521,66.11-195.655,134.211c-41.391,82.571-26.5,222.754,32.34,278.123c1.412,2.817,5.411,6.227,0,3.233
		c-50.668-57.168-93.37-117.788-88.937-210.208c6.803-141.719,123.549-253.38,263.571-263.571
		c113.167-8.236,199.268,50.255,249.018,109.956c42.092,50.508,69.392,120.153,69.532,197.273
		c0.172,94.556-41.232,170.157-92.17,224.763C771.304,858.015,639.154,912.704,509.511,862.539z"/>
	<g>
		<path d="M592.418,502.071c-7.391,0.778-17.053-12.685,12.74-17.798l-0.098-6.224c0,0-37.635-4.084-37.635,16.728
			c0,18.673,15.561,28.01,15.561,28.01s9.833,1.137,12.837,0c-0.195-3.599,6.127-3.599,6.127-0.099
			c0.461,4.59-0.098,7.49-0.098,7.49s0.585,1.069-2.236,1.069c-2.536,0-3.355-3.008-4.766-3.405
			c-6.224-1.748-8.559,3.893-8.559,3.893l-15.754,38.122l12.709-20.617l6.452-12.79c0,0,3.257-6.079,7.099-1.411
			c3.908,4.751,9.239,0,9.8-4.113c1.385-10.158,2.454-6.653,2.454-6.653s6.323,12.617,18.381,17.284
			c6.225,12.547,3.891,36.472,16.243,47.751c-7.392-40.194-5.771-39.611-8.105-50.893c-0.717-3.458-3.176-6.161-11.023-6.614
			c-5.066-7.001-5.237-12.544-16.013-21.007c-0.326-6.418-0.715-7.26-1.116-10.958C604.587,501.605,597.674,502.426,592.418,502.071
			z"/>
		<path d="M564.83,493.482c0,0-2.76,20.973,17.893,31.768c0.37,0.192-0.784,1.462-1.691,1.337c-1.196-0.166-2.61-0.166-2.727,0.739
			c-0.049,0.386-0.202,1.226,0,1.556c1.502,2.431,6.495,6.458,6.495,6.458l-1.076,2.603c0,0-5.312-7.181-10.984-8.545
			c-1.427-0.339,0.083,4.483,0.647,5.836c1.19,2.852,6.631,11.677,6.631,11.677l-1.468,3.55c0,0-16.982-11.581-21.112-16.944
			c-1.621-1.812-2-8.242-0.779-10.6c0.187-0.356,1.053-0.718,1.167-1.104c0.207-0.684-0.668-3.676-1.199-5.25
			c-0.89-2.643-0.433-10.29,0.583-12.888C558.553,500.248,564.83,493.482,564.83,493.482z"/>
		<path style="fill:#FFFFFF;" d="M562.755,524.862c0,0-6.612-0.778-3.373,5.576c3.244,6.352,12.448,10.374,12.448,10.374
			S568.848,526.418,562.755,524.862z"/>
		<path d="M610.603,498.019c0,0-1.037,9.726,2.399,11.541c3.438,1.817,2.399,2.984,2.399,2.984h1.688v-14.525H610.603z"/>
		<path d="M609.697,480.772l1.556-6.871c0,0,44.96-44.867,90.908,6.345c1.552,1.565-0.585,0.635-0.585,0.635
			S669.217,442.391,609.697,480.772z"/>
		<path d="M682.184,491.858l-93.947,6.161c0,0,64.447-48.691,97.447-21.526c8.56,6.224,3.31,10.375,3.31,10.375L682.184,491.858z"/>
		<path d="M620.135,498.862h37.347c0,0-4.085,22.756-16.925,30.148l-20.422-10.892V498.862z"/>
		<path d="M660.789,500.029l19.645-3.696c0,0,1.168,18.284-22.951,38.318c0,0-9.986-1.519-11.087-4.28
			C661.76,515.394,660.789,500.029,660.789,500.029z"/>
		<path d="M686.269,498.019c0,0,9.14,3.565,10.113,7.26c0.974,3.696-2.529,21.201-13.033,30.928c-3.231,2.635-15.171,3.694-21.395,0
			C682.572,521.231,686.269,498.019,686.269,498.019z"/>
		<path d="M700.077,507.614c0,0-3.694,20.534-17.893,30.983c-0.39,17.545,2.529,21.924,9.433,31.646
			c-2.246-18.865-0.564-19.063-1.831-27.685c5.029-4.474,11.07-12.391,14.768-24.25
			C706.304,509.851,700.077,507.614,700.077,507.614z"/>
		<path d="M707.339,517.601c0,0-4.613,15.042-13.833,24.507c0.618,4.843,6.185,3.112,6.185,3.112s10.423-11.856,11.541-21.136
			C712.137,516.565,707.339,517.601,707.339,517.601z"/>
		<path d="M712.267,525.12c0,0-0.384,10.329-11.8,20.401c9.857,1.124,11.8-0.203,14.621-1.015c2.563-1.137,3.667-0.973,2.498-10.438
			C716.418,524.602,712.267,525.12,712.267,525.12z"/>
	</g>
	<g>
		<path d="M408.488,581.227h31.9v24.12h26.452v-24.12h31.9v24.12h30.343v-24.12h26.858v196.064
			C555.94,777.291,412.118,743.057,408.488,581.227z"/>
		<path d="M863.466,581.227h-31.898v24.12h-26.454v-24.12h-31.898v24.12h-30.344v-24.12h-26.857v196.064
			C716.014,777.291,859.834,743.057,863.466,581.227z"/>
		<path d="M682.147,633.744h29.196v143.547l-19.652,7.392l0.195-72.939c0,0-18.674-43.766-56.603-56.214
			c-45.126,13.033-55.629,58.741-55.629,58.741v70.412l-18.285-5.446V633.744h31.512v-26.063h28.633v26.063h29.721v-26.063h30.912"
			/>
		<path d="M635.802,664.217c-29.955,1.557-50.183,49.793-50.183,49.793v72.877l24.838,5.903v-45.835
			c0-12.982,10.526-23.51,23.51-23.51c12.987,0,23.515,10.527,23.515,23.51v46.158h2.57l25.933-6.745v-72.616
			C685.985,713.752,669.648,673.293,635.802,664.217z"/>
		<g>
			<path style="fill:#FFFFFF;" d="M596.497,745.844h4.756v21.043h4.694v4.066h-15.702v-4.066h4.777V752.19
				c-1.412,1.288-3.004,2.328-4.777,3.118v-4.869C592.78,749.271,594.863,747.74,596.497,745.844z"/>
		</g>
		<g>
			<path style="fill:#FFFFFF;" d="M671.184,745.844h4.756v21.043h4.695v4.066h-15.701v-4.066h4.775V752.19
				c-1.412,1.288-3.004,2.328-4.775,3.118v-4.869C667.467,749.271,669.551,747.74,671.184,745.844z"/>
		</g>
		<g>
			<path d="M614.565,765.264l4.37-0.93c0.292,2.018,1.112,3.026,2.461,3.026c1.888,0,2.832-2.364,2.832-7.093l-0.017-0.766
				c-0.896,1.495-2.229,2.242-3.999,2.242c-1.995,0-3.521-0.823-4.58-2.471c-1.059-1.647-1.588-3.474-1.588-5.479
				c0-2.213,0.605-4.118,1.815-5.717c1.21-1.599,3.025-2.397,5.445-2.397c2.128,0,3.742,0.617,4.84,1.851
				c1.098,1.233,1.834,2.802,2.21,4.704c0.375,1.903,0.563,3.852,0.563,5.845c0,8.838-2.571,13.257-7.714,13.257
				C617.629,771.336,615.417,769.312,614.565,765.264z M624.027,753.484c0-1.216-0.235-2.158-0.706-2.827
				c-0.471-0.668-1.109-1.003-1.916-1.003c-0.684,0-1.269,0.316-1.756,0.948c-0.487,0.633-0.731,1.587-0.731,2.863
				c0,2.553,0.852,3.829,2.555,3.829C623.175,757.295,624.027,756.024,624.027,753.484z"/>
		</g>
		<g>
			<path d="M641.17,754.833l-4.978-1.003c0.814-5.434,3.561-8.15,8.242-8.15c2.528,0,4.452,0.701,5.771,2.106
				c1.318,1.404,1.979,3.122,1.979,5.151c0,2.092-0.731,4.137-2.188,6.137c-1.459,2-4.201,4.337-8.225,7.011h10.758l-0.4,4.869
				h-15.937v-4.869c4.559-3.902,7.403-6.658,8.534-8.269c1.131-1.61,1.696-3.139,1.696-4.586c0-2.066-0.778-3.1-2.334-3.1
				c-0.936,0-1.62,0.407-2.051,1.222C641.604,752.165,641.316,753.326,641.17,754.833z"/>
		</g>
	</g>
	<g>
		<path d="M306.287,423.238l3.916-11.211l53.657,2.507l-3.98,11.388l-10.924-0.98l-4.987,14.271l9.17,5.993l-3.573,10.232
			L306.287,423.238z M339.893,424.125l-21.698-1.836l18.193,11.868L339.893,424.125z"/>
		<path d="M324.18,378.88l8.323-14.671c1.615-2.85,2.979-4.961,4.092-6.335c1.111-1.374,2.661-2.521,4.643-3.446
			c1.984-0.924,4.181-1.282,6.593-1.075c2.412,0.208,4.81,0.987,7.193,2.34c5.598,3.176,8.292,7.598,8.084,13.265l24.451,2.525
			l-6.336,11.168l-21.254-3.805l-2.909,5.126l17.714,10.047l-5.821,10.26L324.18,378.88z M337.249,372.733l12.563,7.126l2.56-4.514
			c2.277-4.011,1.262-7.241-3.048-9.685c-1.486-0.843-2.872-1.239-4.161-1.185c-1.288,0.053-2.323,0.377-3.109,0.972
			c-0.786,0.594-1.612,1.655-2.478,3.182L337.249,372.733z"/>
		<path d="M355.88,327.797l8.167-9.727c3.538-4.217,6.96-7.188,10.265-8.914c3.303-1.727,7.086-2.155,11.343-1.284
			c4.258,0.872,8.882,3.402,13.868,7.588c3.544,2.974,6.282,6.095,8.218,9.361c1.935,3.267,3.035,6.348,3.299,9.238
			c0.264,2.892-0.16,5.547-1.273,7.967c-1.112,2.421-2.907,5.106-5.384,8.059l-9.077,10.809L355.88,327.797z M370.224,324.435
			l25.908,21.75l1.293-1.538c1.759-2.094,2.733-4.038,2.927-5.835c0.191-1.794-0.385-3.839-1.728-6.134
			c-1.344-2.295-3.826-4.965-7.45-8.006c-3.354-2.815-6.255-4.607-8.7-5.373c-2.447-0.766-4.47-0.852-6.071-0.256
			c-1.6,0.596-3.23,1.88-4.885,3.854L370.224,324.435z"/>
		<path d="M403.945,276.791l9.08-7.652l44.899,29.48l-9.224,7.773l-8.9-6.405l-11.56,9.741l4.841,9.829l-8.288,6.985
			L403.945,276.791z M432.417,294.668l-17.74-12.631l9.612,19.481L432.417,294.668z"/>
		<path d="M441.59,247.708l10.19-5.94l10.464,17.954l11.141-6.494l-10.462-17.953l10.191-5.939l25.92,44.476l-10.19,5.939
			l-10.597-18.181l-11.141,6.494l10.594,18.18l-10.191,5.939L441.59,247.708z"/>
		<path d="M505.594,215.114l11.125-4.148l32.355,42.875l-11.304,4.214l-6.224-9.028l-14.166,5.282l1.249,10.885l-10.155,3.785
			L505.594,215.114z M526.384,241.533l-12.451-17.866l2.492,21.58L526.384,241.533z"/>
		<path d="M550.162,200.54l12.855-2.476l19.599,28.794l-6.047-31.403l8.958-1.725l9.732,50.55l-10.347,1.991l-23.107-33.494
			l7.048,36.586l-8.959,1.726L550.162,200.54z"/>
		<path d="M661.54,191.173l18.191,2.193c4.267,0.514,7.448,1.227,9.542,2.138c2.096,0.912,3.748,2.553,4.953,4.928
			c1.204,2.375,1.61,5.196,1.215,8.465c-0.689,5.715-3.669,9.08-8.938,10.091c5.788,2.775,8.305,7.319,7.542,13.634
			c-0.4,3.321-1.559,6.023-3.474,8.109c-1.914,2.086-4.121,3.365-6.619,3.835c-2.5,0.472-5.961,0.44-10.383-0.094l-18.194-2.193
			L661.54,191.173z M667.676,234.873l5.736,0.692c5.391,0.651,8.352-1.253,8.889-5.708c0.301-2.478-0.16-4.305-1.378-5.48
			c-1.218-1.175-3.181-1.926-5.886-2.253l-5.739-0.69L667.676,234.873z M670.293,213.157l3.79,0.457
			c3.772,0.455,6.225,0.093,7.356-1.087c1.133-1.18,1.802-2.606,2.002-4.279c0.186-1.548-0.136-2.986-0.963-4.314
			c-0.834-1.329-2.847-2.186-6.048-2.571l-4.646-0.561L670.293,213.157z"/>
		<path d="M715.179,199.261l31.515,8.487l-2.298,8.521l-20.12-5.42l-3.11,11.544l15.641,4.213l-2.295,8.52l-15.641-4.213
			l-3.296,12.236l20.121,5.42l-2.393,8.885l-31.509-8.49L715.179,199.261z"/>
		<path d="M759.974,212.676l10.909,4.487l-15.911,38.679l16,6.581l-3.671,8.929l-26.909-11.068L759.974,212.676z"/>
		<path d="M799.092,229.91l28.35,16.171l-4.375,7.666l-18.099-10.327l-5.925,10.384l14.07,8.027l-4.373,7.665l-14.07-8.027
			l-6.278,11.006l18.102,10.327l-4.562,7.991l-28.346-16.17L799.092,229.91z"/>
		<path d="M839.843,254.499l9.989,7.842c4.333,3.399,7.413,6.722,9.248,9.966c1.834,3.246,2.386,7.011,1.654,11.297
			c-0.732,4.284-3.107,8.988-7.127,14.109c-2.857,3.639-5.886,6.479-9.088,8.52c-3.2,2.042-6.242,3.243-9.125,3.602
			c-2.881,0.359-5.551,0.024-8.004-1.01c-2.455-1.032-5.198-2.738-8.229-5.118l-11.102-8.715L839.843,254.499z M843.674,268.725
			l-20.888,26.61l1.581,1.241c2.149,1.689,4.127,2.598,5.928,2.732c1.8,0.134,3.824-0.508,6.074-1.927
			c2.249-1.417,4.836-3.987,7.758-7.71c2.702-3.445,4.396-6.402,5.084-8.871c0.684-2.47,0.705-4.496,0.054-6.076
			c-0.645-1.58-1.981-3.166-4.01-4.758L843.674,268.725z"/>
		<path d="M880.696,288.878l8.323,8.356l-36.468,36.331l-8.323-8.357L880.696,288.878z M887.638,283.237
			c0.926-0.923,2.061-1.359,3.405-1.311c1.344,0.049,2.499,0.555,3.458,1.522c0.98,0.983,1.489,2.153,1.525,3.504
			c0.033,1.354-0.403,2.483-1.312,3.387c-0.944,0.941-2.09,1.368-3.432,1.284c-1.345-0.086-2.48-0.592-3.405-1.52
			c-0.945-0.948-1.455-2.094-1.536-3.438C886.262,285.32,886.696,284.178,887.638,283.237z"/>
		<path d="M896.575,304.529l8.128,10.135l-9.901,17.646l19.706-5.419l7.205,8.986l-32.507,6.965l-16.976,13.612l-7.379-9.203
			l16.976-13.612L896.575,304.529z"/>
		<path d="M928.021,345.654l16.738,28.016l-7.577,4.526l-10.685-17.889l-10.264,6.131l8.308,13.907l-7.574,4.525l-8.309-13.905
			l-10.879,6.498l10.686,17.89l-7.898,4.718l-16.735-28.015L928.021,345.654z"/>
		<path d="M953.398,421.908l-7.01-7.667c3.406-2.895,4.408-6.053,3.008-9.473c-0.656-1.602-1.611-2.689-2.864-3.267
			c-1.257-0.576-2.467-0.627-3.63-0.149c-1.348,0.553-2.198,1.544-2.551,2.977c-0.348,1.432-0.455,4.175-0.319,8.226
			c0.172,3.668,0.072,6.647-0.294,8.936c-0.364,2.288-1.277,4.39-2.734,6.304c-1.457,1.914-3.456,3.391-5.992,4.427
			c-4.444,1.821-8.745,1.72-12.897-0.303c-4.158-2.022-7.335-5.715-9.528-11.076c-3.688-9-1.679-16.535,6.023-22.605l6.521,8.461
			c-4.315,3.127-5.623,6.765-3.926,10.914c0.774,1.892,1.875,3.233,3.299,4.023c1.423,0.79,2.903,0.872,4.439,0.243
			c1.165-0.477,2.037-1.316,2.617-2.517c0.583-1.2,0.778-3.49,0.59-6.868c-0.257-4.343-0.238-7.665,0.056-9.966
			c0.294-2.301,1.176-4.461,2.645-6.479c1.468-2.018,3.461-3.541,5.973-4.57c4.279-1.753,8.378-1.753,12.288,0.003
			c3.911,1.756,6.836,4.998,8.771,9.728C961.417,409.843,959.924,416.743,953.398,421.908z"/>
		<path d="M968.425,433.567l3.098,11.382l-49.672,13.518l-3.097-11.382L968.425,433.567z M977.249,432.102
			c1.263-0.343,2.463-0.161,3.606,0.548c1.146,0.707,1.898,1.717,2.253,3.033c0.366,1.339,0.227,2.607-0.413,3.8
			c-0.637,1.193-1.577,1.958-2.811,2.294c-1.288,0.352-2.493,0.155-3.619-0.583c-1.126-0.74-1.86-1.742-2.207-3.006
			c-0.352-1.29-0.227-2.54,0.369-3.747C975.022,433.231,975.964,432.452,977.249,432.102z"/>
	</g>
	<g>
		<g>
			<path style="fill:#2098D5;" d="M635.154,605.345c-54.914,0-99.588-44.675-99.588-99.588c0-54.912,44.675-99.588,99.588-99.588
				c54.914,0,99.589,44.676,99.589,99.588C734.743,560.67,690.068,605.345,635.154,605.345L635.154,605.345z M635.154,410.838
				c-52.34,0-94.919,42.581-94.919,94.918c0,52.34,42.579,94.92,94.919,94.92s94.921-42.58,94.921-94.92
				C730.075,453.42,687.494,410.838,635.154,410.838L635.154,410.838z"/>
		</g>
		<path style="fill:#12A74F;" d="M635.154,410.838c52.34,0,94.921,42.581,94.921,94.918h4.668c0-54.912-44.675-99.588-99.589-99.588
			c-54.914,0-99.588,44.676-99.588,99.588h4.67C540.235,453.42,582.815,410.838,635.154,410.838z"/>
	</g>
</g>
</svg>
