<?xml version="1.0" encoding="iso-8859-1"?>
<!-- Generator: Adobe Illustrator 29.7.1, SVG Export Plug-In . SVG Version: 9.03 Build 0)  -->
<svg version="1.1" id="Layer_1" xmlns="http://www.w3.org/2000/svg" xmlns:xlink="http://www.w3.org/1999/xlink" x="0px" y="0px"
	 viewBox="0 0 1920 1080" style="enable-background:new 0 0 1920 1080;" xml:space="preserve">
<g>
	<path style="fill:#620406;" d="M938.123,273.012c10.46-1.45,21.02-0.88,31.55-0.99c7.37-0.18,14.68,1.05,21.99,1.81
		c11,1.79,22.21,2.72,32.9,6.12c13.27,2.98,26.18,7.43,38.65,12.82c25.27,9.86,48.48,24.47,69.4,41.62
		c4.17,4.55,9.5,7.77,13.57,12.42c11.12,10.28,21.03,21.79,29.96,33.99c13.52,17.45,24.03,37.03,32.64,57.29
		c5.65,12.23,9.06,25.32,12.72,38.25c3.11,14.16,6.31,28.41,6.93,42.96c1.21,7.95,0.47,16.03,0.66,24.04
		c0.55,21.01-2.6,41.92-7.22,62.37c-7.94,29.87-20.03,58.82-37.37,84.5c-9.22,12.92-18.63,25.82-29.82,37.13
		c-24.73,26.06-54.94,46.83-87.91,61.03c-8.02,3.12-15.9,6.64-24.26,8.77c-11.81,4.19-24.09,6.77-36.37,9.08
		c-12.69,2.49-25.68,2.29-38.46,3.7c-8.67-0.1-17.4,0.5-26-0.87c-13.14-0.2-26.23-1.84-39.01-4.9
		c-22.27-4.61-43.75-12.57-64.07-22.71c-29.95-15.06-56.7-36.09-79.33-60.75c-11.1-12.46-21.3-25.74-29.8-40.11
		c-5.49-9.11-10.25-18.63-15.17-28.05c-4.42-10.92-9.05-21.8-12.34-33.13c-3.11-12.63-6.94-25.14-8.12-38.14
		c-1.39-6.92-1.42-14-2.63-20.94c-0.31-12.99-0.24-25.99-0.05-38.98c1.37-8.63,1.78-17.38,3.39-25.98
		c8.96-53.4,34.67-103.87,72.7-142.41c9.77-9.27,19.53-18.63,30.43-26.58c31.4-23.88,68.34-40.17,106.83-48.5
		c7.29-1.66,14.76-2.29,22.08-3.79C930.433,273.672,934.323,273.812,938.123,273.012 M917.713,289.012
		c-13.52,2.69-26.91,6.03-39.97,10.44c-6.52,2.5-13.02,5.04-19.54,7.52c-5.32,2.75-10.75,5.3-16.23,7.71
		c-12.39,6.59-24.13,14.35-35.52,22.53c-10.26,7.92-19.93,16.63-29.09,25.78c-40.61,41.55-66.31,97.46-71.03,155.39
		c-1.28,13.58-2.08,27.37-0.34,40.95c0.18,11.91,1.85,23.81,4.92,35.31c1.42,4.93,1.61,10.13,3.22,15.01
		c2.87,8.21,4.44,16.87,8.29,24.73c5.25,14.03,12.19,27.4,19.96,40.2c3.3,6.7,8.33,12.31,12.27,18.62c2.2,3.74,5.48,6.66,8.08,10.11
		c12.65,15.96,27.65,29.92,43.79,42.29c40.41,31.26,90.44,50.65,141.64,52.4c0.35-5.89-0.01-11.81,0.82-17.67
		c0.23-8.19-0.64-16.91-5.35-23.87c-4.56-7.38-12.55-12.01-20.76-14.22c-1.12-2.07-3.13-3.32-5.07-4.53c1.03-0.7,2.06-1.4,3.09-2.09
		c5.75,0.41,11.52,1.38,16.85,3.66c4.02,1.68,6.15,5.79,9.7,8.14c5.02,3.35,9.59,8.56,9.68,14.9c0.48,9.68,0.51,19.38,0.65,29.07
		c0.11,1.4-0.03,2.93,0.69,4.21c2.38,1.56,5.35,1.39,8.07,1.67c1.93-6.48,0.53-13.3,0.94-19.93c0.37-8-1.47-16.83,3.18-23.95
		c4.54-8.02,12.98-12.48,21.09-16.08c6.72-2.9,14.26-1.64,21.19-3.68c12.75-2.01,26.03-1.99,38.15-6.98
		c9.31-2.23,17.86-7.49,23.8-15.04c-9.27-0.69-18.02,3.49-27.29,3.06c-6.86-0.22-13.09,3.47-19.94,3.33
		c-6.69-0.08-13.3,0.95-19.95,1.46c-9.01,0.34-18.03-0.09-27.03,0.19c-4.98,0.18-9.68,2.19-13.77,4.93
		c-1.81,0.98-3.81,2.76-5.97,1.69c-6.37-1.7-9.76-8.88-16.63-9.38c-11.27-1.03-22.63,0.29-33.88-1.05
		c-10.3-0.27-20.49-2.04-30.79-2.31c-6.72-0.41-13.15-2.86-19.93-2.82c-4.32,0.08-8.45-2.28-12.76-1.26
		c0.08,1.05,0.15,2.11,0.23,3.17c7.53,3.36,14.17,8.41,21.85,11.49c0,1.19,0.02,2.4,0.03,3.6c-1.64,0.78-3.27,1.58-4.89,2.39
		c-9.15-3.53-18.54-7.6-25.14-15.14c-4.12-4.07-7.55-8.74-10.29-13.84c-1.78-4.23-6.7-5.2-10-7.86
		c-8.33-6.66-14.75-15.91-17.19-26.37c-2.7-9.09-1.34-18.67,0.76-27.73c-7.1-4.08-14.13-8.68-19.29-15.14
		c-6.83-7.35-10.82-16.93-12.76-26.66c-0.54-6.67-0.62-13.4,0.04-20.05c2.16-11.13,8.06-21.32,15.93-29.4
		c4.35-4.52,9.98-7.45,15.12-10.95c-2.3-6.64-1.99-13.75-1.8-20.66c1.32-12.18,5.36-24.33,13.19-33.92
		c9.89-12.78,24.95-21.53,40.99-23.59c8.42-0.44,17.04-0.9,25.31,1.16c3.23-14.73,8.46-29.42,17.87-41.42
		c12.26-16.22,29.84-28.51,49.6-33.62c10.4-3.3,21.44-3.06,32.22-2.68c27.74,2.52,53.91,18.8,68.39,42.63
		c7,11.57,11.9,24.64,13.18,38.13c7.09-1.05,14.34-1.98,21.44-0.37c23.48,3.34,43.82,23.91,45.54,47.76
		c0.21,8.03,0.65,16.26-1.77,24.04c-0.3,2.06-1.75,5.14,0.92,6.19c10.8,5.76,19.29,15.25,24.46,26.28
		c5.77,13.63,6.42,29.83,0.06,43.38c-3.64,10.17-11.39,18.03-19.41,24.94c-3.14,2.27-6.58,4.11-9.63,6.51
		c5.17,17.55,0.69,38.27-13.27,50.6c-3.43,3.95-9.27,5.28-11.68,10.16c-4.47,7.92-10.38,15.15-17.98,20.23
		c-8.47,5.82-18.41,8.76-28,12.11c-10.95,3.76-22.66,3.75-33.87,6.36c-7.46,1.89-15.63,1.28-22.52,5.12
		c-8.98,4.41-15.59,13.91-15.48,24.07c-0.15,8.57,0.04,17.15-0.05,25.72c14.74,0.47,29.21-3.03,43.48-6.31
		c29.91-7.26,58.28-20.41,83.51-37.99c19.35-12.88,36.03-29.39,51.09-47c8.45-9.81,15.65-20.62,22.4-31.63
		c7.99-13.83,15.28-28.13,20.51-43.25c5.55-15.06,10.02-30.58,12.26-46.49c1.47-6.27,1.63-12.74,2.77-19.05
		c0.53-15.34,0.53-30.71,0.03-46.05c-2.1-16.11-4.32-32.34-9.32-47.86c-4.39-16.38-10.88-32.17-18.71-47.2
		c-1.67-3.93-3.57-7.78-6-11.31c-8.31-14.54-18.7-27.73-29.49-40.49c-5.92-6.43-11.54-13.2-18.36-18.72
		c-9.24-8.56-18.92-16.73-29.48-23.61c-7.34-5.57-15.78-9.42-23.58-14.29c-6.21-2.71-12.23-5.8-18.34-8.72
		c-9.15-3.46-18.33-6.85-27.59-10.03c-11.68-3.36-23.57-5.99-35.54-8.09c-7.08,0.02-13.94-2.22-21.03-1.97
		c-12.65-0.52-25.31-0.34-37.94,0.19C932.413,287.392,925.053,288.162,917.713,289.012 M951.973,394.972
		c-11.11,2.83-21.96,7.48-30.83,14.84c-15.21,11.77-25.08,29.73-28.16,48.6c-0.14,2.12-0.43,4.35,0.21,6.43
		c1.94,2.06,4.03,4.02,5.63,6.38l0.3,0.69c1.02,3.01,1.19,6.18,1.09,9.34c-3.9-0.48-6.48-3.8-9.82-5.53
		c-18.52-11.31-43.52-8.03-60.28,5.04c-11.37,8.91-19.27,22.18-21.09,36.54c-0.26,5.94-0.17,11.88,0.07,17.82
		c6.06-1.75,12.56-1.86,18.5,0.41c-3.15,3.01-7.48,4.28-10.86,7.01c-8.3,5.4-14.49,14.66-15.86,24.56
		c9.01-0.98,17.36-4.75,25.9-7.53c10.09-3.98,20.11-8.2,29.76-13.17c8.99-4.9,18.26-9.5,26.3-15.9c2.53-2.1,6.05-1.82,8.92-3.2
		c5.88-2.74,11.92-5.1,17.88-7.67c3.79-1.69,8.11-2.27,11.53-4.7c1.79-3.81,1.84-8.24,3.25-12.21c0.61,1.99,1.21,3.97,1.82,5.97
		c-1.2,3.68-2.93,7.16-5.15,10.32c6.83,2.14,14.14,1.78,20.96,3.98c2.1,0.53,4.21,1.3,6.41,1.16c3.75,2.24,7.8,3.98,11.97,5.28
		c2.58,0.79,5.59,1.11,7.94-0.51c5.3-3.33,10.55-6.77,16.07-9.73c4.62-2.48,10.32-3.08,14.01-7.13c4.87,0.54,9.2-2.09,13.85-3.01
		c2.74-0.64,5.58-0.88,8.28-1.73c2.03-0.19,4.06-0.42,6.09-0.68c-0.54-1.43-1.07-2.86-1.6-4.29c3.65-0.19,7.3-0.43,10.94-0.8
		c8.37,0.81,16.71,2.75,24.36,6.29l0.76-0.33c6.17,3.59,13.04,5.73,19.33,9.09c11.96,5.36,23.25,12.06,35.03,17.78
		c3.19-8.96,3.22-18.91,0.19-27.91c-3.9-13.95-15.14-25.24-28.58-30.29c-2.01-0.83-4.15-1.31-6.32-1.38
		c-0.93-0.55-1.92-1.02-3.02-0.92c-4.87-0.1-9.8-0.48-14.64,0.27c-4.4,1.28-8.89,2.46-12.93,4.68c-3.48,2.24-6.73,4.82-10.2,7.08
		c0.11-2.13,0.42-4.24,0.91-6.32c4.11-22.05-3.75-45.38-18.59-61.9c-5.9-6.65-13.34-11.7-21-16.1c-11.32-5.75-24.02-8.42-36.68-8.48
		C960.383,393.522,956.223,394.562,951.973,394.972 M964.463,534.232c-14.24-7.43-30.46-11.7-46.59-10.41
		c-3.86,1.01-7.31,3.12-11.06,4.43c-4.6,1.68-9.17,3.46-13.52,5.73c-2.88,1.64-6.72,1.31-9.13-1.02c0.48,3.22-1.26,6.18-3.34,8.49
		c-5.77,3.73-12.2,6.31-18.12,9.8c-7.49,3.86-14.91,7.85-22.43,11.65c-7.69,4.79-16.87,5.86-25.3,8.78
		c-5.48,0.31-10.56,2.69-16.01,3.24c-1.84-1.11-3.65-2.23-5.43-3.4c-3.59-2.09-5.24-6.11-7.22-9.55c-2.86,4.07-4.9,8.68-6.55,13.35
		c-2.03,8.53-1.67,17.65-0.09,26.26c2.56,7.03,6.07,13.82,11,19.5l0.62-0.08c5.67,6.62,12.87,11.57,20.48,15.69
		c-0.01,0.27-0.05,0.81-0.07,1.08c-3.96,7.27-3.33,16.16-1.78,24.03c3.04,14.74,13.31,28.36,27.65,33.64
		c10.3,4.2,21.56,4.61,32.24,7.35c23.96,4.68,48.48,5.68,72.84,4.94c7.65-0.28,14.01,4.33,19.98,8.43c2.88-1.78,5.44-4.08,8.6-5.37
		c2.31-1.07,4.96-1.49,6.89-3.27c4.14,0.78,8.43,0.18,12.57,1.16c8.63,0.78,17.39,0.43,25.97-0.76c4.74-0.24,9.56,0.21,14.21-1.02
		c2.17,0,4.2-0.84,6.22-1.52c0.13,0.38,0.4,1.12,0.53,1.5c9.6-1.26,19.09-3.28,28.71-4.29l-0.07-0.72
		c10.65-0.33,21.28-3.09,30.49-8.52c10.19-6.14,16.99-17.02,19.42-28.53c1.85-4.97,0.99-10.35,1.22-15.52
		c0.27-3.74-1.23-7.25-1.7-10.9c15.61-7.8,28.03-22.71,31.25-40.05c0.39-5.66,0.47-11.38-0.05-17.03
		c-1.19-6.18-3.54-12.1-6.64-17.56l-0.66-0.01c-1.18-2.32-3.91-2.54-6.16-3.03c-5.85-1.09-11.85-1.2-17.76-0.67
		c-5.94,0.59-11.58,3.55-17.61,2.98c-2.9-0.23-3.56-4.14-1.77-6c2.53-2.73,6.49-3.18,9.95-3.87c3.77,0.73,7.62,0.46,11.44,0.44
		c4.7-0.07,9.39,0.44,14.1,0.2c-1.98-0.64-3.94-1.5-6.03-1.66c-0.52-1.36-0.36-3.34-2.07-3.82c-6.66-3.16-14.58,0.48-21-3.46
		c0.8-1.41,1.64-2.81,2.33-4.28c1.36,2.61,3.95,0.58,5.39-0.77c-1.78-1.04-3.53-2.11-5.3-3.15l-0.02,0.84
		c-1.85-1.08-3.66-2.21-5.47-3.33c-3.35-2.7-7.4-4.24-11.07-6.39c-9.56-5.7-20.39-8.76-29.96-14.46
		c-10.91-4.83-23.05-6.52-34.91-5.53C1002.693,513.362,982.373,521.862,964.463,534.232L964.463,534.232z"/>
	<path style="fill:#FDFCF9;" d="M917.713,289.012c7.34-0.85,14.7-1.62,22.01-2.79c12.63-0.53,25.29-0.71,37.94-0.19
		c7.09-0.25,13.95,1.99,21.03,1.97c11.97,2.1,23.86,4.73,35.54,8.09c9.26,3.18,18.44,6.57,27.59,10.03
		c6.11,2.92,12.13,6.01,18.34,8.72c7.8,4.87,16.24,8.72,23.58,14.29c10.56,6.88,20.24,15.05,29.48,23.61
		c6.82,5.52,12.44,12.29,18.36,18.72c10.79,12.76,21.18,25.95,29.49,40.49c2.43,3.53,4.33,7.38,6,11.31
		c7.83,15.03,14.32,30.82,18.71,47.2c5,15.52,7.22,31.75,9.32,47.86c0.5,15.34,0.5,30.71-0.03,46.05
		c-1.14,6.31-1.3,12.78-2.77,19.05c-2.24,15.91-6.71,31.43-12.26,46.49c-5.23,15.12-12.52,29.42-20.51,43.25
		c-6.75,11.01-13.95,21.82-22.4,31.63c-15.06,17.61-31.74,34.12-51.09,47c-25.23,17.58-53.6,30.73-83.51,37.99
		c-14.27,3.28-28.74,6.78-43.48,6.31c0.09-8.57-0.1-17.15,0.05-25.72c-0.11-10.16,6.5-19.66,15.48-24.07
		c6.89-3.84,15.06-3.23,22.52-5.12c11.21-2.61,22.92-2.6,33.87-6.36c9.59-3.35,19.53-6.29,28-12.11
		c7.6-5.08,13.51-12.31,17.98-20.23c2.41-4.88,8.25-6.21,11.68-10.16c13.96-12.33,18.44-33.05,13.27-50.6
		c3.05-2.4,6.49-4.24,9.63-6.51c8.02-6.91,15.77-14.77,19.41-24.94c6.36-13.55,5.71-29.75-0.06-43.38
		c-5.17-11.03-13.66-20.52-24.46-26.28c-2.67-1.05-1.22-4.13-0.92-6.19c2.42-7.78,1.98-16.01,1.77-24.04
		c-1.72-23.85-22.06-44.42-45.54-47.76c-7.1-1.61-14.35-0.68-21.44,0.37c-1.28-13.49-6.18-26.56-13.18-38.13
		c-14.48-23.83-40.65-40.11-68.39-42.63c-10.78-0.38-21.82-0.62-32.22,2.68c-19.76,5.11-37.34,17.4-49.6,33.62
		c-9.41,12-14.64,26.69-17.87,41.42c-8.27-2.06-16.89-1.6-25.31-1.16c-16.04,2.06-31.1,10.81-40.99,23.59
		c-7.83,9.59-11.87,21.74-13.19,33.92c-0.19,6.91-0.5,14.02,1.8,20.66c-5.14,3.5-10.77,6.43-15.12,10.95
		c-7.87,8.08-13.77,18.27-15.93,29.4c-0.66,6.65-0.58,13.38-0.04,20.05c1.94,9.73,5.93,19.31,12.76,26.66
		c5.16,6.46,12.19,11.06,19.29,15.14c-2.1,9.06-3.46,18.64-0.76,27.73c2.44,10.46,8.86,19.71,17.19,26.37
		c3.3,2.66,8.22,3.63,10,7.86c2.74,5.1,6.17,9.77,10.29,13.84c6.6,7.54,15.99,11.61,25.14,15.14c7.9,2.68,15.85,5.43,24.11,6.77
		c11.52,1.89,22.97,4.28,34.6,5.37c8.21,2.21,16.2,6.84,20.76,14.22c4.71,6.96,5.58,15.68,5.35,23.87
		c-0.83,5.86-0.47,11.78-0.82,17.67c-51.2-1.75-101.23-21.14-141.64-52.4c-16.14-12.37-31.14-26.33-43.79-42.29
		c-2.6-3.45-5.88-6.37-8.08-10.11c-3.94-6.31-8.97-11.92-12.27-18.62c-7.77-12.8-14.71-26.17-19.96-40.2
		c-3.85-7.86-5.42-16.52-8.29-24.73c-1.61-4.88-1.8-10.08-3.22-15.01c-3.07-11.5-4.74-23.4-4.92-35.31
		c-1.74-13.58-0.94-27.37,0.34-40.95c4.72-57.93,30.42-113.84,71.03-155.39c9.16-9.15,18.83-17.86,29.09-25.78
		c11.39-8.18,23.13-15.94,35.52-22.53c5.48-2.41,10.91-4.96,16.23-7.71c6.52-2.48,13.02-5.02,19.54-7.52
		C890.803,295.042,904.193,291.702,917.713,289.012 M939.733,302.932c-6.61-0.16-13.06,1.37-19.59,2.11l0.95,0.04
		c-0.34,3.43-0.03,6.89,0.63,10.26c0.84,4.52,0.05,9.18,0.95,13.69c0.46,2.36,0.41,4.76,0.74,7.13c-0.17,4.64,0.04,9.29,0.93,13.85
		c12.7,0.47,25.23-1.9,37.88-2.27c2.76-0.34,1.55-3.62,1.27-5.43c-0.53-1.76,0.14-4.34-1.96-5.17c-4-0.31-7.86,1.09-11.8,1.47
		c-4.14,0.33-8.29,0.19-12.42,0.3c-0.53-2.43-1.61-4.94-0.88-7.45c0.98-0.83,2.08-1.66,3.46-1.56c6.16-0.15,12.28-1.04,18.45-1.14
		c-0.13-3.35,0.16-6.85-1.27-9.99c-7.14,1.77-14.61,1.32-21.88,2.16c-0.06-2.49-0.22-5,0.11-7.48c4.98-1.49,10.25-1.53,15.4-1.74
		c3.2-0.43,6.39-0.88,9.61-1.04c0.07-3.35-0.51-6.65-1.46-9.85c-3.74,0.26-7.46,0.9-11.22,0.87
		C944.933,301.692,942.453,303.072,939.733,302.932 M978.403,302.772c-1.27,8.28-1.87,16.66-3.34,24.91
		c-0.64,6.37-2.18,12.62-2.22,19.04c5.63,2.43,11.89,2.54,17.82,3.87c4.44,0.94,9.02,1.08,13.4,2.27c0.95-3.53,1.48-7.17,1.41-10.83
		c-5.19-0.64-10.4-1.23-15.54-2.16c-1.79-0.09-3.23-1.71-2.63-3.51c1.77-10.74,2.35-21.68,4.88-32.29
		c-4.15-0.76-8.3-1.65-12.49-2.18C979.363,302.112,978.723,302.552,978.403,302.772 M1029.923,311.522
		c-3.75,7.63-5.93,15.88-9.64,23.53c-2.04,5.94-4.7,11.63-7.16,17.41c3.35,4.81,9.68,5.34,14.66,7.63
		c6.86,3.17,14.09,5.47,20.95,8.66c2.17-2.73,3.96-5.95,3.75-9.55c-7.2-2.5-14.03-5.9-21.19-8.49c-2.83-1.8-0.15-5.46,0.1-7.96
		c7.92-0.59,14.33,5.66,22.02,6.59c1.01-2.65,2.02-5.29,2.9-7.99c-5.27-2.37-10.52-4.86-16.06-6.52c-1.65-0.45-3.04-1.45-4.41-2.41
		c0.72-1.96,1.36-3.94,2.08-5.89c8.99-0.41,16.31,6.1,24.93,7.7c1.18-2.98,2.44-5.98,2.55-9.23
		C1053.563,320.542,1041.823,315.812,1029.923,311.522 M883.963,314.702c-5.95,2.21-12.17,3.66-17.95,6.36
		c2.62,7.51,5.04,15.09,7.73,22.58c1.94,7.26,4.57,14.3,7.07,21.38c6.05-2.23,12.1-4.49,18.25-6.44c4.67-1.53,9.64-3.15,12.95-7
		c1.95-2.37,4.5-4.89,4.13-8.23c0.27-6.59-5.2-11.87-11.12-13.83c1.27-2.88,2.71-5.99,1.9-9.22c-1.25-3.1-3.05-6.53-6.5-7.55
		C894.953,310.302,889.243,313.172,883.963,314.702 M1083.023,335.452c0.02,0.59,0.04,1.78,0.06,2.38
		c-8.9,11.21-17.15,22.91-25.3,34.67c5.24,4.69,11,8.81,16.78,12.81c5.39,3.91,12.64,4.54,18.9,2.66
		c8.47-3.64,14.38-12.01,16.1-20.95c1.12-5.15-0.69-10.61-3.82-14.72c-4.73-5.05-10.42-9.07-16.02-13.06
		C1088.083,337.082,1085.873,335.352,1083.023,335.452 M797.643,368.312c-4.02,3.97-8.22,7.8-11.93,12.06
		c-2.18,1.68-4.95,3.16-5.73,6.01c0.68,1.41,2.17,2.12,3.36,3.02c9.61,9.17,18.28,19.25,27.82,28.48c0.34,0.06,1,0.17,1.34,0.22
		c2.6-1.58,4.43-4.27,6.87-6.14c1.35-0.72,1.27-2.63,0.34-3.64c-2.96-3.29-6.62-6.24-8.66-10.18c1.55-3.67,5.66-6.62,9.64-7.25
		c4.54,0.85,7.55,4.59,11.15,7.12c3.96-1.52,6.47-5.67,9.57-8.52c-4.78-3.67-8.91-8.56-14.86-10.38c-2.63-0.71-5.02,0.9-6.6,2.85
		c1.62-3.2,1.53-6.91,1.29-10.39c-0.99-4.55-4.98-8.38-9.69-8.85C806.273,361.742,801.243,364.702,797.643,368.312
		 M1120.753,374.342c2.72,2.67,5.29,5.47,7.96,8.19c1.83-1.69,5.09-2.95,4.73-5.94c-2.1-3.11-5.07-5.49-7.67-8.16
		C1124.063,370.372,1122.363,372.322,1120.753,374.342 M1093.043,401.412c2.61,2.79,5.33,5.47,7.91,8.3
		c2.91-2.07,5.46-4.59,7.92-7.17c5.15-5.02,10.59-9.75,15.35-15.17c-2.55-3.11-5.16-6.2-8.38-8.64
		C1108.063,386.102,1100.433,393.642,1093.043,401.412 M1139.673,382.392c-3.68,9.04-7.96,17.83-12.17,26.63
		c-2.42,6.1-9.2,8.31-13.47,12.78c-0.9,4.76,3.85,7.87,5.8,11.71c4.86-2.55,8.64-6.69,13.45-9.3c4.06-1.03,8.23-1.47,12.41-1.64
		c6.71-1.04,13.48-1.7,20.16-2.96c-1.1-3.4-3.61-6.03-5.41-9.05c-0.92-1.17-1.62-3.49-3.55-2.78c-5.94,1.12-11.72,3.15-17.79,3.51
		c2.27-6.11,6.92-10.97,9.59-16.87C1146.103,390.142,1143.353,385.822,1139.673,382.392 M762.073,411.462
		c5.69,4.15,11.49,8.15,17.32,12.09c7.15,4.46,13.57,10.15,21.14,13.87c2.28-3.52,4.87-6.85,6.98-10.48
		c-12.75-8.66-25.64-17.1-38.12-26.14C766.893,404.312,764.333,407.792,762.073,411.462 M1160.843,430.382
		c-10.99,5.01-22.27,9.37-33.1,14.69c4.59,12.41,9.97,24.53,14.92,36.8c3.3-1.3,6.53-2.76,9.68-4.42c-1.95-8.4-7.91-15.57-8.46-24.3
		c2.04-1.02,4.1-2.05,6.27-2.81c3.21,6.41,5.49,13.22,8.37,19.77c3.24-0.27,6.17-1.77,9.06-3.15c-1.47-7.13-5.84-13.27-7.65-20.33
		c1.71-1.5,3.69-2.63,5.95-3.06c2.23,3.49,3.22,7.56,5.23,11.17c2.08,3.61,2.83,7.81,5.03,11.37c3.6-0.37,6.66-2.46,9.94-3.8
		c-5.35-11.74-10.71-23.5-15.4-35.51C1167.083,426.872,1164.103,429.152,1160.843,430.382 M751.263,432.912
		c-5.52,7.45-8.45,16.41-12.34,24.75c13.87,6.72,27.71,13.56,41.9,19.57c3.26-6.92,6.47-13.88,9.25-21.01
		c0.6-5.72,1.43-12.21-2.12-17.2c-4.55-6.81-12.51-10.37-20.3-11.94C761.713,426.452,755.633,428.972,751.263,432.912
		 M1170.933,483.552c-6.09,6.19-4.7,15.48-6.9,23.2c-0.32,2-1.9,3.31-3.34,4.55c-2.91-2.01-5-5.3-4.43-8.95
		c-0.36-3.34,3.7-4.44,4.85-7.07c-0.07-4.07-1.55-7.94-2.11-11.95c-6.89,0.78-12.88,6.94-12.91,13.98
		c-0.29,8.13,1.16,17.39,7.64,22.98c5.47,5.36,15.79,4.74,20.09-1.74c4.11-6.96,2.36-15.66,5.25-22.87
		c1.94-4.02,6.34-0.34,6.14,2.93c0.98,3.39-1.89,5.87-3.18,8.67c0.14,4.01,1.23,7.89,2.38,11.71c3.1-1.24,6.78-2.19,8.4-5.45
		c3.42-4.62,2.47-10.66,2.15-16.02c-1.47-6.72-4.47-15.12-12.14-16.59C1178.823,479.322,1174.173,481.012,1170.933,483.552
		 M753.393,481.602c-0.96,5.99-2.4,11.95-2.41,18.06c2.93,0.44,5.84,0.94,8.78,1.34c0.35-1.92,0.76-3.83,1.33-5.69
		c7.38,3.57,5.12,16.23-2.8,17.53c-4.33,1.92-8.96,0.33-13.21-0.92c-4.68-1.93-8.73-7.78-5.84-12.72c0.85-3.06,3.8-4.17,6.59-4.83
		c0.24-4.25,1.4-8.39,1.29-12.66c-6.58-0.52-12.82,3.47-16.15,8.96c-3.28,5.63-3.35,12.38-2.63,18.68
		c1.26,5.65,5.44,9.99,9.86,13.45c7.82,4.7,18.12,5.54,26.46,1.77c6.35-3.67,11.29-10.64,10.75-18.23
		c0.56-4.29-1.25-8.17-2.68-12.07c1.34-0.47,3.77,0.1,4.12-1.79c0.66-2.39,2.76-6.31-0.63-7.52
		C768.563,484.182,761.073,482.132,753.393,481.602 M714.803,487.552c2.19,2.75,5.1,5.24,5.83,8.84c1.11,3.67-0.35,7.39-1.6,10.82
		c0.96-0.17,1.93-0.34,2.9-0.51c2.33-3.55,3.22-8.09,1.62-12.11C721.923,491.122,718.993,487.492,714.803,487.552 M1150.263,530.982
		c-0.23,4.02-0.21,8.06,0.27,12.07c10.91-0.01,21.83,0.12,32.74-0.26c-0.11-3.99-0.04-7.98-0.07-11.97
		C1172.223,530.782,1161.243,531.072,1150.263,530.982 M1188.383,530.892c-0.21,4.04-0.23,8.09,0.12,12.12
		c2.92,0.08,5.84,0.02,8.75-0.33c-0.1-3.96-0.17-7.93-0.12-11.9C1194.213,530.732,1191.293,530.752,1188.383,530.892
		 M726.083,534.932c0.15,3.82-0.12,7.64,0.19,11.45c0.33,0.33,0.99,1,1.33,1.33c14.77,0.09,29.54,0.08,44.32-0.04
		c0.12-4.54,0.05-9.09,0-13.63c-13.42,0.02-26.85,0.14-40.28,0.04C729.743,533.972,727.893,534.422,726.083,534.932
		 M1025.963,750.592c-1.63,2.42-3.38,5.47-1.94,8.4c2.8-0.32,6.8,0.1,8.26-2.87c1.31-2.88,5.42-4.31,7.76-1.72
		c0.96,3.1-2.85,4.15-4.85,5.5c0.03,1.64,0.06,3.29,0.07,4.95c2.36,0.13,4.74,0.32,7.07,0.84c-0.1,1.59,0.07,3.27-0.54,4.79
		c-1.89,1.65-4.75,1.79-6.99,0.86c-0.94-1.1-1.02-2.95-2.32-3.65c-2.79,0.11-6.11-0.26-7.74,2.52c1.32,2.27,2.79,4.52,4.88,6.17
		c2.1,2.11,5.35,1.52,8.05,1.68c5.05,0.17,10.93-1.89,13.01-6.88c1.92-4.28,0.02-10.16-4.73-11.52c1.71-2.58,3.23-6.04,1.33-8.94
		c-1-2.26-3.3-3.59-5.64-4.04C1036.213,746.042,1029.943,746.352,1025.963,750.592 M894.673,755.752c-2.17,0.33-4.35,0.14-6.51-0.06
		c-0.34,2.02-0.76,4.03-1.19,6.04c2.33,0.89,4.72,1.65,7.15,2.25c-1.69,5.51-3.06,11.23-3.16,17.02c2.53,0.8,5.12,1.36,7.71,1.95
		c1.54-3.43,2.02-7.17,2.87-10.79c1.32-6.4,3.53-12.66,3.84-19.23c-2.12-0.43-4.2-1.1-6.36-1.26
		C897.203,752.492,896.523,754.842,894.673,755.752 M994.373,756.102c-4.38,3.03-5.8,9.03-3.81,13.86c2.81-0.87,5.65-1.64,8.47-2.45
		c0.29-1.87-0.64-4.45,1.32-5.62c1.42-1.43,4.39-1.75,5.75-0.11c0.44,1.98,0.83,4.51-0.83,6.05c-3.84,3.97-7.57,8.09-10.61,12.72
		c-0.88,2.4-0.93,5.34,0.51,7.57c7.9-2.64,16.15-3.87,24.32-5.33c0.69-2.4-0.13-4.78-0.59-7.12c-4.25-0.2-8.25,1.29-12.38,1.96
		c1.79-5.09,8.51-7.47,8.73-13.31c0.78-4.71-2.79-9.56-7.48-10.32C1003.273,753.052,998.423,754.032,994.373,756.102
		 M916.633,757.322c-3.13,1.84-6.03,5.17-5.54,9.03c-0.47,4.15,2.91,7.3,5.79,9.77c2.77,2.52,6.74,1.63,10.13,1.67
		c-1.32,1.47-2.59,3.04-4.32,4.06c-2.36,0.43-4.01-1.56-5.83-2.67c-2.26-1.78-5.31-1.44-7.99-1.56c0.49,2.33,1.16,4.83,3.26,6.26
		c4.87,3.67,12.06,5.59,17.65,2.42c8.06-5.53,11.16-18.59,3.92-26.02C929.183,756.342,922.163,754.222,916.633,757.322
		L916.633,757.322z"/>
	<path style="fill:#640404;" d="M939.733,302.932c2.72,0.14,5.2-1.24,7.9-1.24c3.76,0.03,7.48-0.61,11.22-0.87
		c0.95,3.2,1.53,6.5,1.46,9.85c-3.22,0.16-6.41,0.61-9.61,1.04c-5.15,0.21-10.42,0.25-15.4,1.74c-0.33,2.48-0.17,4.99-0.11,7.48
		c7.27-0.84,14.74-0.39,21.88-2.16c1.43,3.14,1.14,6.64,1.27,9.99c-6.17,0.1-12.29,0.99-18.45,1.14c-1.38-0.1-2.48,0.73-3.46,1.56
		c-0.73,2.51,0.35,5.02,0.88,7.45c4.13-0.11,8.28,0.03,12.42-0.3c3.94-0.38,7.8-1.78,11.8-1.47c2.1,0.83,1.43,3.41,1.96,5.17
		c0.28,1.81,1.49,5.09-1.27,5.43c-12.65,0.37-25.18,2.74-37.88,2.27c-0.89-4.56-1.1-9.21-0.93-13.85c0.72,1.48,1.52,2.92,2.34,4.35
		c1.24-10.22-2.8-20.36-1.57-30.59c0.94-2.19,3.48-3.15,5.28-4.55c-2.79-0.05-5.58-0.16-8.37-0.29l-0.95-0.04
		C926.673,304.302,933.123,302.772,939.733,302.932L939.733,302.932z"/>
	<path style="fill:#610404;" d="M978.403,302.772c0.32-0.22,0.96-0.66,1.29-0.88c4.19,0.53,8.34,1.42,12.49,2.18
		c-2.53,10.61-3.11,21.55-4.88,32.29c-0.6,1.8,0.84,3.42,2.63,3.51c5.14,0.93,10.35,1.52,15.54,2.16c0.07,3.66-0.46,7.3-1.41,10.83
		c-4.38-1.19-8.96-1.33-13.4-2.27c-5.93-1.33-12.19-1.44-17.82-3.87c0.04-6.42,1.58-12.67,2.22-19.04
		C976.533,319.432,977.133,311.052,978.403,302.772L978.403,302.772z"/>
	<path style="fill:#400503;" d="M921.093,305.082c2.79,0.13,5.58,0.24,8.37,0.29c-1.8,1.4-4.34,2.36-5.28,4.55
		c-1.23,10.23,2.81,20.37,1.57,30.59c-0.82-1.43-1.62-2.87-2.34-4.35c-0.33-2.37-0.28-4.77-0.74-7.13
		c-0.9-4.51-0.11-9.17-0.95-13.69C921.063,311.972,920.753,308.512,921.093,305.082L921.093,305.082z"/>
	<path style="fill:#600505;" d="M1029.923,311.522c11.9,4.29,23.64,9.02,35.48,13.48c-0.11,3.25-1.37,6.25-2.55,9.23
		c-8.62-1.6-15.94-8.11-24.93-7.7c-0.72,1.95-1.36,3.93-2.08,5.89c1.37,0.96,2.76,1.96,4.41,2.41c5.54,1.66,10.79,4.15,16.06,6.52
		c-0.88,2.7-1.89,5.34-2.9,7.99c-7.69-0.93-14.1-7.18-22.02-6.59c-0.25,2.5-2.93,6.16-0.1,7.96c7.16,2.59,13.99,5.99,21.19,8.49
		c0.21,3.6-1.58,6.82-3.75,9.55c-6.86-3.19-14.09-5.49-20.95-8.66c-4.98-2.29-11.31-2.82-14.66-7.63
		c2.46-5.78,5.12-11.47,7.16-17.41C1023.993,327.402,1026.173,319.152,1029.923,311.522 M751.263,432.912
		c4.37-3.94,10.45-6.46,16.39-5.83c7.79,1.57,15.75,5.13,20.3,11.94c3.55,4.99,2.72,11.48,2.12,17.2
		c-2.78,7.13-5.99,14.09-9.25,21.01c-14.19-6.01-28.03-12.85-41.9-19.57C742.813,449.322,745.743,440.362,751.263,432.912
		 M759.953,441.622c-2.86,1.63-4.63,4.71-5.71,7.73c-0.08,1.51,1.72,1.98,2.73,2.67c6.6,3.34,13.3,6.49,20.16,9.26
		c1.62-3.82,3.09-8.07,1.76-12.2C775.653,442.262,766.973,438.922,759.953,441.622L759.953,441.622z"/>
	<path style="fill:#630405;" d="M883.963,314.702c5.28-1.53,10.99-4.4,16.46-1.95c3.45,1.02,5.25,4.45,6.5,7.55
		c0.81,3.23-0.63,6.34-1.9,9.22c5.92,1.96,11.39,7.24,11.12,13.83c0.37,3.34-2.18,5.86-4.13,8.23c-3.31,3.85-8.28,5.47-12.95,7
		c-6.15,1.95-12.2,4.21-18.25,6.44c-2.5-7.08-5.13-14.12-7.07-21.38c-2.69-7.49-5.11-15.07-7.73-22.58
		C871.793,318.362,878.013,316.912,883.963,314.702 M881.893,325.232c-0.26,3.2,1.21,6.07,2.5,8.88c3.7-1.82,8.5-2.2,11.1-5.7
		c-0.06-1.6-0.32-3.18-0.54-4.76C890.493,323.142,886.273,324.802,881.893,325.232 M887.233,343.312c-0.07,2.86,1.42,5.45,2.68,7.92
		c4.27-1.91,9.72-2.24,12.79-6.13c1.67-2.71-0.98-4.95-2.87-6.55C895.703,340.282,890.793,340.472,887.233,343.312L887.233,343.312z
		"/>
	<path style="fill:#FBF7ED;" d="M881.893,325.232c4.38-0.43,8.6-2.09,13.06-1.58c0.22,1.58,0.48,3.16,0.54,4.76
		c-2.6,3.5-7.4,3.88-11.1,5.7C883.103,331.302,881.633,328.432,881.893,325.232L881.893,325.232z"/>
	<path style="fill:#A3887F;" d="M1083.023,335.452c2.85-0.1,5.06,1.63,6.7,3.79c-2.19-0.62-4.41-1.04-6.64-1.41
		C1083.063,337.232,1083.043,336.042,1083.023,335.452L1083.023,335.452z"/>
	<path style="fill:#640505;" d="M1083.083,337.832c2.23,0.37,4.45,0.79,6.64,1.41c5.6,3.99,11.29,8.01,16.02,13.06
		c3.13,4.11,4.94,9.57,3.82,14.72c-1.72,8.94-7.63,17.31-16.1,20.95c-6.26,1.88-13.51,1.25-18.9-2.66
		c-5.78-4-11.54-8.12-16.78-12.81C1065.933,360.742,1074.183,349.042,1083.083,337.832 M1078.373,366.012
		c-1.59,2.53-4.13,4.69-4.44,7.82c2.75,1.61,5.64,3.04,8.77,3.75c7.57-0.21,13.17-7.32,14.47-14.3c0.59-5.25-3.46-9.3-7.69-11.64
		C1085.223,355.972,1082.033,361.192,1078.373,366.012L1078.373,366.012z"/>
	<path style="fill:#F9FAF1;" d="M887.233,343.312c3.56-2.84,8.47-3.03,12.6-4.76c1.89,1.6,4.54,3.84,2.87,6.55
		c-3.07,3.89-8.52,4.22-12.79,6.13C888.653,348.762,887.163,346.172,887.233,343.312L887.233,343.312z"/>
	<path style="fill:#FAF9F3;" d="M1078.373,366.012c3.66-4.82,6.85-10.04,11.11-14.37c4.23,2.34,8.28,6.39,7.69,11.64
		c-1.3,6.98-6.9,14.09-14.47,14.3c-3.13-0.71-6.02-2.14-8.77-3.75C1074.243,370.702,1076.783,368.542,1078.373,366.012
		L1078.373,366.012z"/>
	<path style="fill:#620505;" d="M797.643,368.312c3.6-3.61,8.63-6.57,13.91-5.59c4.71,0.47,8.7,4.3,9.69,8.85
		c0.24,3.48,0.33,7.19-1.29,10.39c1.58-1.95,3.97-3.56,6.6-2.85c5.95,1.82,10.08,6.71,14.86,10.38c-3.1,2.85-5.61,7-9.57,8.52
		c-3.6-2.53-6.61-6.27-11.15-7.12c-3.98,0.63-8.09,3.58-9.64,7.25c2.04,3.94,5.7,6.89,8.66,10.18c0.93,1.01,1.01,2.92-0.34,3.64
		c-2.44,1.87-4.27,4.56-6.87,6.14c-0.34-0.05-1-0.16-1.34-0.22c-9.54-9.23-18.21-19.31-27.82-28.48c0.78-3.01,1.48-6.04,2.37-9.03
		C789.423,376.112,793.623,372.282,797.643,368.312 M796.633,384.342c2.2,2.4,4.55,4.65,6.93,6.86c2.88-2.8,6.08-5.52,7.73-9.28
		c1.06-3.16-2.2-6.92-5.49-5.74C802.033,377.952,799.623,381.572,796.633,384.342L796.633,384.342z"/>
	<path style="fill:#510809;" d="M1120.753,374.342c1.61-2.02,3.31-3.97,5.02-5.91c2.6,2.67,5.57,5.05,7.67,8.16
		c0.36,2.99-2.9,4.25-4.73,5.94C1126.043,379.812,1123.473,377.012,1120.753,374.342L1120.753,374.342z"/>
	<path style="fill:#FBF8F3;" d="M796.633,384.342c2.99-2.77,5.4-6.39,9.17-8.16c3.29-1.18,6.55,2.58,5.49,5.74
		c-1.65,3.76-4.85,6.48-7.73,9.28C801.183,388.992,798.833,386.742,796.633,384.342L796.633,384.342z"/>
	<path style="fill:#5F0606;" d="M1093.043,401.412c7.39-7.77,15.02-15.31,22.8-22.68c3.22,2.44,5.83,5.53,8.38,8.64
		c-4.76,5.42-10.2,10.15-15.35,15.17c-2.46,2.58-5.01,5.1-7.92,7.17C1098.373,406.882,1095.653,404.202,1093.043,401.412
		L1093.043,401.412z"/>
	<path style="fill:#825548;" d="M779.983,386.382c0.78-2.85,3.55-4.33,5.73-6.01c-0.89,2.99-1.59,6.02-2.37,9.03
		C782.153,388.502,780.663,387.792,779.983,386.382L779.983,386.382z"/>
	<path style="fill:#620405;" d="M1139.673,382.392c3.68,3.43,6.43,7.75,9.02,12.03c-2.67,5.9-7.32,10.76-9.59,16.87
		c6.07-0.36,11.85-2.39,17.79-3.51c1.93-0.71,2.63,1.61,3.55,2.78c1.8,3.02,4.31,5.65,5.41,9.05c-6.68,1.26-13.45,1.92-20.16,2.96
		c-4.18,0.17-8.35,0.61-12.41,1.64c-4.81,2.61-8.59,6.75-13.45,9.3c-1.95-3.84-6.7-6.95-5.8-11.71c4.27-4.47,11.05-6.68,13.47-12.78
		C1131.713,400.222,1135.993,391.432,1139.673,382.392 M1160.843,430.382c3.26-1.23,6.24-3.51,9.84-3.58
		c4.69,12.01,10.05,23.77,15.4,35.51c-3.28,1.34-6.34,3.43-9.94,3.8c-2.2-3.56-2.95-7.76-5.03-11.37c-2.01-3.61-3-7.68-5.23-11.17
		c-2.26,0.43-4.24,1.56-5.95,3.06c1.81,7.06,6.18,13.2,7.65,20.33c-2.89,1.38-5.82,2.88-9.06,3.15c-2.88-6.55-5.16-13.36-8.37-19.77
		c-2.17,0.76-4.23,1.79-6.27,2.81c0.55,8.73,6.51,15.9,8.46,24.3c-3.15,1.66-6.38,3.12-9.68,4.42
		c-4.95-12.27-10.33-24.39-14.92-36.8C1138.573,439.752,1149.853,435.392,1160.843,430.382L1160.843,430.382z"/>
	<path style="fill:#ECFCFD;" d="M951.973,394.972c4.25-0.41,8.41-1.45,12.65-1.86c12.66,0.06,25.36,2.73,36.68,8.48
		c7.66,4.4,15.1,9.45,21,16.1c14.84,16.52,22.7,39.85,18.59,61.9c-0.49,2.08-0.8,4.19-0.91,6.32c3.47-2.26,6.72-4.84,10.2-7.08
		c4.04-2.22,8.53-3.4,12.93-4.68c4.84-0.75,9.77-0.37,14.64-0.27c1.1-0.1,2.09,0.37,3.02,0.92c-7.96,0.1-16.18-0.31-23.72,2.66
		c-6.64,2.07-11.67,7.12-17.91,9.99c-0.41-5.76-0.01-11.52,0.47-17.26c0.62-6.79-1.14-13.47-2.73-20.02
		c-3.86-14.43-11.73-28.29-23.97-37.19c-1.29-0.97-2.62-1.88-3.94-2.79c-2.25-2.2-4.54-4.47-7.45-5.79
		c-5.89-2.8-11.88-5.65-18.38-6.73c-8.26-1.45-16.78-2.73-25.11-1.1c-7.58,1.49-15.34,3.03-22.13,6.88
		c-6.46,3.7-13.06,7.45-18.31,12.82c-5.61,5.28-9.87,11.76-13.81,18.33c-3.21,5.35-4.77,11.44-6.69,17.32
		c-0.95,3.3-2.14,6.78-1.37,10.25c0.68,3.13,1.92,6.09,3.1,9.05c-1.6-2.36-3.69-4.32-5.63-6.38c-0.64-2.08-0.35-4.31-0.21-6.43
		c3.08-18.87,12.95-36.83,28.16-48.6C930.013,402.452,940.863,397.802,951.973,394.972L951.973,394.972z"/>
	<path style="fill:#94FEFE;" d="M958.033,396.572c8.33-1.63,16.85-0.35,25.11,1.1c6.5,1.08,12.49,3.93,18.38,6.73
		c2.91,1.32,5.2,3.59,7.45,5.79c-10.65-5.01-21.12-11.92-33.26-12.13c-9.62-0.38-19.53-0.79-28.77,2.39
		c-7.44,2.22-13.95,6.51-20.51,10.52c-4.42,2.53-6.41,7.59-10.58,10.42c-5,3.28-7.47,8.85-10.46,13.77
		c-4.48,7.19-6.77,15.51-8.28,23.77c-0.97,4.98,3.55,8.54,4.72,13.05c1.41,5.27,2.46,10.72,2.24,16.21c-4.29-2.32-8.58-4.73-12.23-8
		c2.79,1.87,6.06,2.79,9.39,3c0.5-3.91-0.16-7.84-2.11-11.28l-0.3-0.69c-1.18-2.96-2.42-5.92-3.1-9.05
		c-0.77-3.47,0.42-6.95,1.37-10.25c1.92-5.88,3.48-11.97,6.69-17.32c3.94-6.57,8.2-13.05,13.81-18.33
		c5.25-5.37,11.85-9.12,18.31-12.82C942.693,399.602,950.453,398.062,958.033,396.572L958.033,396.572z"/>
	<path style="fill:#29FEFE;" d="M946.943,400.452c9.24-3.18,19.15-2.77,28.77-2.39c12.14,0.21,22.61,7.12,33.26,12.13
		c1.32,0.91,2.65,1.82,3.94,2.79c5.13,7.24,12.17,13.04,16.22,21.04c5.16,10.57,8.85,22.04,9.23,33.87
		c0.11,6.81-1.04,13.55-1.38,20.33c6.04,0.74,9.99-4.26,14.82-6.83c10.98-5.77,24.59-7.32,36.18-2.46
		c5.79,2.9,11.81,6.09,15.73,11.43c3.16,4.3,6.63,8.5,8.65,13.51c2.97,6.63,3.58,14.2,2.4,21.32c-0.27,3.09-3.78,3.04-6.04,3.85
		c-7.58-5.08-16.13-8.36-24.12-12.68c-6.75-3.66-13.97-6.35-20.7-10.02c-6.7-5.46-15.41-6.35-23.4-8.75
		c-3.99-1.14-8.21-0.8-12.2-1.85c-4.71-4.38-7.09-10.74-12.01-14.96c-4.66-3.95-10.13-6.77-15.38-9.82
		c-10.34-6.41-23.14-5.8-34.82-5.26c-9.57,0.17-17.8,5.54-25.66,10.4c-3.73,2.48-8.04,4.52-10.53,8.43
		c-2.82,4.49-6.19,8.67-8.43,13.51c-3.02,7.36-8.89,13.89-16.5,16.58c-6.04,2.25-11.02,6.55-17,8.9c-2.83,1.08-5.4,2.7-7.65,4.72
		c-12.15,10.22-26.36,17.57-40.8,23.99c-7.18,3.23-15.07,4.58-22.91,4.62c-2.54,0.12-4.73-1.31-6.92-2.36
		c1.28-3.12,3.13-5.99,5.72-8.17c5.17-2.26,9.98-5.37,14.18-9.13c1.86-1.31,0.82-3.87-0.5-5.17c-2.91-3.15-6.03-6.18-8-10.04
		c-2.04-3.93-4.92-7.49-6.18-11.77c-0.09-2.82,1.54-5.32,2.75-7.77c2.95-5.22,5.62-10.84,10.25-14.82c2.71-2.32,5.54-4.5,8.41-6.61
		c3.98-2.98,9.02-3.76,13.54-5.62c7.55-3.07,16.25-3.83,24.05-1.24c4.85,1.87,9.9,3.14,15.04,3.91c1,0.66,1.94,1.4,2.89,2.13
		c3.65,3.27,7.94,5.68,12.23,8c0.22-5.49-0.83-10.94-2.24-16.21c-1.17-4.51-5.69-8.07-4.72-13.05c1.51-8.26,3.8-16.58,8.28-23.77
		c2.99-4.92,5.46-10.49,10.46-13.77c4.17-2.83,6.16-7.89,10.58-10.42C932.993,406.962,939.503,402.672,946.943,400.452
		L946.943,400.452z"/>
	<path style="fill:#610505;" d="M762.073,411.462c2.26-3.67,4.82-7.15,7.32-10.66c12.48,9.04,25.37,17.48,38.12,26.14
		c-2.11,3.63-4.7,6.96-6.98,10.48c-7.57-3.72-13.99-9.41-21.14-13.87C773.563,419.612,767.763,415.612,762.073,411.462
		L762.073,411.462z"/>
	<path style="fill:#ADF4EA;" d="M1012.913,412.982c12.24,8.9,20.11,22.76,23.97,37.19c1.59,6.55,3.35,13.23,2.73,20.02
		c-0.48,5.74-0.88,11.5-0.47,17.26c6.24-2.87,11.27-7.92,17.91-9.99c7.54-2.97,15.76-2.56,23.72-2.66c2.17,0.07,4.31,0.55,6.32,1.38
		c13.44,5.05,24.68,16.34,28.58,30.29c0.56,6.89,0.87,13.88,0.1,20.76c-0.34,3.79-4.61,2.38-7.05,1.81
		c2.26-0.81,5.77-0.76,6.04-3.85c1.18-7.12,0.57-14.69-2.4-21.32c-2.02-5.01-5.49-9.21-8.65-13.51c-3.92-5.34-9.94-8.53-15.73-11.43
		c-11.59-4.86-25.2-3.31-36.18,2.46c-4.83,2.57-8.78,7.57-14.82,6.83c0.34-6.78,1.49-13.52,1.38-20.33
		c-0.38-11.83-4.07-23.3-9.23-33.87C1025.083,426.022,1018.043,420.222,1012.913,412.982L1012.913,412.982z"/>
	<path style="fill:#F9F9F5;" d="M759.953,441.622c7.02-2.7,15.7,0.64,18.94,7.46c1.33,4.13-0.14,8.38-1.76,12.2
		c-6.86-2.77-13.56-5.92-20.16-9.26c-1.01-0.69-2.81-1.16-2.73-2.67C755.323,446.332,757.093,443.252,759.953,441.622
		L759.953,441.622z"/>
	<path style="fill:#6FF1EC;" d="M966.093,465.702c11.68-0.54,24.48-1.15,34.82,5.26c5.25,3.05,10.72,5.87,15.38,9.82
		c4.92,4.22,7.3,10.58,12.01,14.96c3.99,1.05,8.21,0.71,12.2,1.85c7.99,2.4,16.7,3.29,23.4,8.75l-0.95,0.38
		c-6.44-2.74-12.87-5.75-19.86-6.77c-4.41-0.91-8.92-0.88-13.36-1.51c-3.15-0.37-4.69-3.51-6.43-5.76
		c-6.88-10.52-17.63-17.93-29.05-22.81c-10.96-4.33-23.35-4.24-34.68-1.45c-16.25,5.28-31.2,16.86-37.78,32.96
		c-1.43,3.36-3.35,6.56-6.11,9c-5.24,5.06-12.82,6.16-18.67,10.29c-5.08,3.48-10.68,6.17-16.69,7.57c2.25-2.02,4.82-3.64,7.65-4.72
		c5.98-2.35,10.96-6.65,17-8.9c7.61-2.69,13.48-9.22,16.5-16.58c2.24-4.84,5.61-9.02,8.43-13.51c2.49-3.91,6.8-5.95,10.53-8.43
		C948.293,471.242,956.523,465.872,966.093,465.702L966.093,465.702z"/>
	<path style="fill:#EFFBF8;" d="M959.573,468.422c11.33-2.79,23.72-2.88,34.68,1.45c11.42,4.88,22.17,12.29,29.05,22.81
		c1.74,2.25,3.28,5.39,6.43,5.76c4.44,0.63,8.95,0.6,13.36,1.51c6.99,1.02,13.42,4.03,19.86,6.77c-0.46,0.2-1.37,0.59-1.83,0.79
		l-0.76,0.33c-7.65-3.54-15.99-5.48-24.36-6.29c-3.69-0.46-7.4-0.6-11.11-0.58c-4.48-7.51-9.49-14.95-16.56-20.28
		c-11.62-9.42-27.37-13.65-42.13-11.04c-18.62,2.22-34.96,15.79-41.79,33.07c-1.41,3.97-1.46,8.4-3.25,12.21
		c-3.42,2.43-7.74,3.01-11.53,4.7c-5.96,2.57-12,4.93-17.88,7.67c-2.87,1.38-6.39,1.1-8.92,3.2c-8.04,6.4-17.31,11-26.3,15.9
		c-9.65,4.97-19.67,9.19-29.76,13.17c-8.54,2.78-16.89,6.55-25.9,7.53c1.37-9.9,7.56-19.16,15.86-24.56
		c0.41-0.09,1.21-0.26,1.62-0.34c-0.95,1.39-1.9,2.78-2.94,4.12c-2.59,2.18-4.44,5.05-5.72,8.17c2.19,1.05,4.38,2.48,6.92,2.36
		c7.84-0.04,15.73-1.39,22.91-4.62c14.44-6.42,28.65-13.77,40.8-23.99c6.01-1.4,11.61-4.09,16.69-7.57
		c5.85-4.13,13.43-5.23,18.67-10.29c2.76-2.44,4.68-5.64,6.11-9C928.373,485.282,943.323,473.702,959.573,468.422L959.573,468.422z"
		/>
	<path style="fill:#F5FBF9;" d="M830.113,480.762c16.76-13.07,41.76-16.35,60.28-5.04c3.34,1.73,5.92,5.05,9.82,5.53
		c0.1-3.16-0.07-6.33-1.09-9.34c1.95,3.44,2.61,7.37,2.11,11.28c-3.33-0.21-6.6-1.13-9.39-3c-0.95-0.73-1.89-1.47-2.89-2.13
		c-10.14-6.59-22.95-7.49-34.67-5.97c-14.57,3.22-28.26,12-35.78,25.11c-2.93,4.91-6.71,10.8-4.45,16.7
		c3.86,8.26,9.85,15.25,15.8,22.07c-0.76-0.14-1.51-0.28-2.26-0.44c-5.94-2.27-12.44-2.16-18.5-0.41
		c-0.24-5.94-0.33-11.88-0.07-17.82C810.843,502.942,818.743,489.672,830.113,480.762L830.113,480.762z"/>
	<path style="fill:#741E0A;" d="M966.203,469.652c14.76-2.61,30.51,1.62,42.13,11.04c7.07,5.33,12.08,12.77,16.56,20.28
		c3.71-0.02,7.42,0.12,11.11,0.58c-3.64,0.37-7.29,0.61-10.94,0.8c0.53,1.43,1.06,2.86,1.6,4.29c-2.03,0.26-4.06,0.49-6.09,0.68
		c1.23-0.97,2.41-1.99,3.61-3.01c-6.48-12.11-16.1-23.2-29-28.61c-6.77-3.25-14.43-3.44-21.78-3.74
		c-5.13-0.22-10.15,1.11-14.85,3.07c-3.78,1.61-8.03,2.32-11.35,4.83c-8.68,8.15-17.85,16.91-20.97,28.83
		c-0.61-2-1.21-3.98-1.82-5.97C931.243,485.442,947.583,471.872,966.203,469.652L966.203,469.652z"/>
	<path style="fill:#7AEDEB;" d="M854.283,472.092c11.72-1.52,24.53-0.62,34.67,5.97c-5.14-0.77-10.19-2.04-15.04-3.91
		c-7.8-2.59-16.5-1.83-24.05,1.24c-4.52,1.86-9.56,2.64-13.54,5.62c-2.87,2.11-5.7,4.29-8.41,6.61c-4.63,3.98-7.3,9.6-10.25,14.82
		c-1.21,2.45-2.84,4.95-2.75,7.77c1.26,4.28,4.14,7.84,6.18,11.77c1.97,3.86,5.09,6.89,8,10.04c1.32,1.3,2.36,3.86,0.5,5.17
		c-4.2,3.76-9.01,6.87-14.18,9.13c1.04-1.34,1.99-2.73,2.94-4.12c-0.41,0.08-1.21,0.25-1.62,0.34c3.38-2.73,7.71-4,10.86-7.01
		c0.75,0.16,1.5,0.3,2.26,0.44c-5.95-6.82-11.94-13.81-15.8-22.07c-2.26-5.9,1.52-11.79,4.45-16.7
		C826.023,484.092,839.713,475.312,854.283,472.092L854.283,472.092z"/>
	<path style="fill:#C41A0C;" d="M958.553,475.032c4.7-1.96,9.72-3.29,14.85-3.07c7.35,0.3,15.01,0.49,21.78,3.74
		c12.9,5.41,22.52,16.5,29,28.61c-1.2,1.02-2.38,2.04-3.61,3.01c-2.7,0.85-5.54,1.09-8.28,1.73c-4.65,0.92-8.98,3.55-13.85,3.01
		c6.48-4.61,14.64-4.28,22.04-6.24c-0.22-2.78-0.54-5.71-2.38-7.95c-4.56-6.03-10.11-11.27-15.93-16.06
		c-8.31-6.5-19.4-7.09-29.52-6.74c-10.9,0.04-21.09,5.14-29.6,11.6c-6.2,4.55-9.08,11.9-12.66,18.41
		c-2.15,3.83-3.11,8.15-3.58,12.48c4.48,1.56,9.38,1.02,13.83,2.71c3.72,1.29,7.47,2.52,11.28,3.53c-1.16,0.11-2.32,0.23-3.47,0.35
		c-2.2,0.14-4.31-0.63-6.41-1.16c-6.82-2.2-14.13-1.84-20.96-3.98c2.22-3.16,3.95-6.64,5.15-10.32
		c3.12-11.92,12.29-20.68,20.97-28.83C950.523,477.352,954.773,476.642,958.553,475.032L958.553,475.032z"/>
	<path style="fill:#FC0102;" d="M972.653,475.072c10.12-0.35,21.21,0.24,29.52,6.74c5.82,4.79,11.37,10.03,15.93,16.06
		c1.84,2.24,2.16,5.17,2.38,7.95c-7.4,1.96-15.56,1.63-22.04,6.24c-7.04,1.12-13.56,4.12-19.87,7.31c-5.22,2.75-10.1,6.8-16.14,7.48
		c-3.64-0.45-6.92-2.32-10.51-3.05c-3.81-1.01-7.56-2.24-11.28-3.53c-4.45-1.69-9.35-1.15-13.83-2.71
		c0.47-4.33,1.43-8.65,3.58-12.48c3.58-6.51,6.46-13.86,12.66-18.41C951.563,480.212,961.753,475.112,972.653,475.072
		L972.653,475.072z"/>
	<path style="fill:#5F0406;" d="M1170.933,483.552c3.24-2.54,7.89-4.23,11.89-2.62c7.67,1.47,10.67,9.87,12.14,16.59
		c0.32,5.36,1.27,11.4-2.15,16.02c-1.62,3.26-5.3,4.21-8.4,5.45c-1.15-3.82-2.24-7.7-2.38-11.71c1.29-2.8,4.16-5.28,3.18-8.67
		c0.2-3.27-4.2-6.95-6.14-2.93c-2.89,7.21-1.14,15.91-5.25,22.87c-4.3,6.48-14.62,7.1-20.09,1.74c-6.48-5.59-7.93-14.85-7.64-22.98
		c0.03-7.04,6.02-13.2,12.91-13.98c0.56,4.01,2.04,7.88,2.11,11.95c-1.15,2.63-5.21,3.73-4.85,7.07c-0.57,3.65,1.52,6.94,4.43,8.95
		c1.44-1.24,3.02-2.55,3.34-4.55C1166.233,499.032,1164.843,489.742,1170.933,483.552L1170.933,483.552z"/>
	<path style="fill:#5F0505;" d="M753.393,481.602c7.68,0.53,15.17,2.58,22.83,3.36c3.39,1.21,1.29,5.13,0.63,7.52
		c-0.35,1.89-2.78,1.32-4.12,1.79c1.43,3.9,3.24,7.78,2.68,12.07c0.54,7.59-4.4,14.56-10.75,18.23c-8.34,3.77-18.64,2.93-26.46-1.77
		c-4.42-3.46-8.6-7.8-9.86-13.45c-0.72-6.3-0.65-13.05,2.63-18.68c3.33-5.49,9.57-9.48,16.15-8.96c0.11,4.27-1.05,8.41-1.29,12.66
		c-2.79,0.66-5.74,1.77-6.59,4.83c-2.89,4.94,1.16,10.79,5.84,12.72c4.25,1.25,8.88,2.84,13.21,0.92c7.92-1.3,10.18-13.96,2.8-17.53
		c-0.57,1.86-0.98,3.77-1.33,5.69c-2.94-0.4-5.85-0.9-8.78-1.34C750.993,493.552,752.433,487.592,753.393,481.602L753.393,481.602z"
		/>
	<path style="fill:#3A0702;" d="M714.803,487.552c4.19-0.06,7.12,3.57,8.75,7.04c1.6,4.02,0.71,8.56-1.62,12.11
		c-0.97,0.17-1.94,0.34-2.9,0.51c1.25-3.43,2.71-7.15,1.6-10.82C719.903,492.792,716.993,490.302,714.803,487.552L714.803,487.552z"
		/>
	<path style="fill:#E0F9F6;" d="M1062.953,506.722l0.95-0.38c6.73,3.67,13.95,6.36,20.7,10.02c7.99,4.32,16.54,7.6,24.12,12.68
		c2.44,0.57,6.71,1.98,7.05-1.81c0.77-6.88,0.46-13.87-0.1-20.76c3.03,9,3,18.95-0.19,27.91c-11.78-5.72-23.07-12.42-35.03-17.78
		c-6.29-3.36-13.16-5.5-19.33-9.09C1061.583,507.312,1062.493,506.922,1062.953,506.722L1062.953,506.722z"/>
	<path style="fill:#FBFBFA;" d="M964.463,534.232c17.91-12.37,38.23-20.87,59.21-26.44c11.86-0.99,24,0.7,34.91,5.53
		c9.57,5.7,20.4,8.76,29.96,14.46c3.67,2.15,7.72,3.69,11.07,6.39c-5.47-3.56-11.69-5.62-17.5-8.51c-2.7-1.19-5.73-2.87-8.73-1.71
		c-2.45,1.58-2.36,4.93-3.39,7.39c-2.83-1.03-5.45-2.56-8.31-3.48c-2.58,0.08-4.84,1.69-7.25,2.48c-0.5,4.74-0.53,9.72-2.48,14.15
		c-3.14,2.46-7.41,4.64-11.38,2.92c-2.58-2.07-4.61-4.82-6.27-7.67c-0.89-3.11-0.63-6.58-2.57-9.35c-1.95-2.69-0.13-5.94,0.44-8.78
		c-3.8,0.07-7.85,0.44-11.18-1.77c-4.99-3.31-10.38,0.67-15.42,1.61c-5.42,0.8-10.53,2.79-15.77,4.3
		c-6.99,1.85-13.16,5.81-19.33,9.45c-3.51,2.4-8.55,2.72-12.25,0.59c-4.72-2.59-10.5-2.26-15.56-0.95c-1.35-0.38-2.62-1.01-4-1.29
		c-2.1,0.34-3.91,1.56-5.81,2.45c-1.16-0.71-2.27-1.5-3.5-2.06c-1.3-0.01-2.42,0.8-3.6,1.22c-1.3-1.21-2.62-2.38-3.98-3.5
		c-1.76,0.79-3.49,1.63-5.19,2.53c-1.96-1.64-3.99-3.93-6.84-3.3c-2.4,0.79-4.33,2.49-6.54,3.65c-2.44,0.31-5.12-0.43-7.28,1.09
		c-6.03,3.55-11.77,7.61-17.88,11.03c-13.24,7.14-26.51,14.21-39.69,21.44c-5.45,3.12-11.96,2.99-17.72,5.29
		c1.8,3.41,5.82,5.36,6.52,9.39c0.81,2.72-0.26,5.46-1.28,7.97c-0.47-2.47-1.08-4.92-1.89-7.3c-2.31-5.22-7.8-7.26-12.65-9.36
		c1.23-0.78,2.41-1.63,3.64-2.41c8.43-2.92,17.61-3.99,25.3-8.78c7.52-3.8,14.94-7.79,22.43-11.65c5.92-3.49,12.35-6.07,18.12-9.8
		c2.08-2.31,3.82-5.27,3.34-8.49c2.41,2.33,6.25,2.66,9.13,1.02c4.35-2.27,8.92-4.05,13.52-5.73c3.75-1.31,7.2-3.42,11.06-4.43
		C934.003,522.532,950.223,526.802,964.463,534.232 M1036.223,519.912c-1.79,3.36-3.78,7.78-1.29,11.28
		c1.76,2.14,0.64,5.1,1.32,7.61c0.4-2.04,0.26-4.12,0.24-6.17c4.17,0.05,8.34,0.16,12.51-0.06c0.09,2.36,0.11,4.72,0.26,7.08
		c-1.86,1.78-3.51,4.81-6.55,4.12c-2.94,0.01-4.11-3.25-6.11-4.87c0.84,3.61,3.67,6.66,7.08,8.08c2.48-2.01,5.21-4.01,6.38-7.11
		c1.36-2.25,0.74-4.95,1-7.43c2.55-3.96,0.32-8.96-2.14-12.39C1044.713,519.562,1040.443,519.872,1036.223,519.912 M960.253,563.902
		c0.58-0.03,1.75-0.09,2.34-0.11c0.32-0.02,0.95-0.05,1.27-0.07c0.32,0.84,0.97,2.51,1.29,3.35
		C963.123,566.712,961.633,565.312,960.253,563.902L960.253,563.902z"/>
	<path style="fill:#B00809;" d="M978.573,519.372c6.31-3.19,12.83-6.19,19.87-7.31c-3.69,4.05-9.39,4.65-14.01,7.13
		c-5.52,2.96-10.77,6.4-16.07,9.73c-2.35,1.62-5.36,1.3-7.94,0.51c-4.17-1.3-8.22-3.04-11.97-5.28c1.15-0.12,2.31-0.24,3.47-0.35
		c3.59,0.73,6.87,2.6,10.51,3.05C968.473,526.172,973.353,522.122,978.573,519.372L978.573,519.372z"/>
	<path style="fill:#020202;" d="M1005.573,521.452c5.04-0.94,10.43-4.92,15.42-1.61c3.33,2.21,7.38,1.84,11.18,1.77
		c-0.57,2.84-2.39,6.09-0.44,8.78c1.94,2.77,1.68,6.24,2.57,9.35c1.66,2.85,3.69,5.6,6.27,7.67c3.97,1.72,8.24-0.46,11.38-2.92
		c1.95-4.43,1.98-9.41,2.48-14.15c2.41-0.79,4.67-2.4,7.25-2.48c2.86,0.92,5.48,2.45,8.31,3.48c1.03-2.46,0.94-5.81,3.39-7.39
		c3-1.16,6.03,0.52,8.73,1.71c5.81,2.89,12.03,4.95,17.5,8.51c1.81,1.12,3.62,2.25,5.47,3.33c-0.02,0.53-0.04,1.6-0.05,2.14
		c-1.98,1.02-5.28,1.75-4.57,4.7c0.09,3.11,3.59,3.82,6.07,4.06c4.83,0.34,9.83,0.05,14.36,2.11c-3.17,0.81-6.33,1.63-9.51,2.37
		c-1.14,0.02-2.27,0.03-3.4,0.04c-4.75-0.67-10.9-1.73-14.37,2.49c-2.51,3.65,0.57,7.47,2.23,10.74c-2.98,2.65-5.54,5.73-8.51,8.41
		c-2.25,0.47-4.37-0.7-6.58-0.82c-7.91,3.09-16.6,2.89-24.97,2.94c-1.78,0.21-1.78-2.23-2.31-3.36c-0.59-2.7-0.43-5.48-0.44-8.21
		c8.59-0.71,17.36,1.67,25.79-0.61c-1.37-0.82-2.53-2.28-4.22-2.36c-7.96-0.46-15.93-0.18-23.9-0.42c-3.03,0.28-4.99-2.93-7.98-2.83
		c-10.78-0.02-21.61-0.39-32.33,0.91c-4.66,0.29-9.3,0.89-13.97,0.99c1.16-3.5,2.67-6.89,3.63-10.45c-0.26-2.77-0.91-5.48-1.49-8.19
		c-0.66,3.34,0.83,7.55-1.81,10.21c-4.49,2.59-9.91,1.31-14.82,1.58c0.41,2.39,0.46,5.07,2.11,7.01c1.4,1.87,3.59,2.84,5.53,4.04
		c2.02-1.17,4.07-2.28,6.18-3.27c-1.51,3.85-6.25,5.36-9.81,3.35c-3.99-2.45-4.88-7.45-6.21-11.56c-4.7,2.68-7.23,7.46-8.57,12.53
		c-1.77,0.29-3.54,0.55-5.31,0.8c0.01,1.02,0.02,2.04,0.03,3.06c4.62,0,9.23-0.23,13.85-0.21c3.47-0.16,6.47,2.26,9.96,2.07
		c2.6,0.12,4.94-1.14,7.37-1.86c6.36-1.92,13.09-1.15,19.63-1.35c2.4-0.22,4.32,1.45,6.34,2.48c3.19,1.98,6.74,3.25,10.01,5.06
		c2.35,1.19,1.88,4.25,2.25,6.44c-5.18,3.14-10.69,5.71-16.42,7.71c-7.04,2.47-14.04,5.52-21.56,6.12c-1.35-4.45-2.74-8.9-3.48-13.5
		c6.25-0.55,12.5-0.92,18.77-1.05c4.09-0.66,8.2-1.14,12.35-1.14c0.07-0.52,0.23-1.55,0.31-2.07c-8.47-1.3-17.11-0.55-25.64-0.55
		c-7.48,1-15,2.06-22.3,3.96c-0.16,0.38-0.47,1.16-0.63,1.55c4.15,0.7,8.19,1.96,12.4,2.36c1.4,5.05,2.82,10.1,4.55,15.05
		c4.23,0.13,8.37-0.63,12.46-1.62c-0.05,5.56-0.77,11.09-1.33,16.62c-0.29,1.64-0.55,3.28-0.8,4.93c-6.04,0.09-12.02-0.56-18-1.26
		c-1.81-7.73,0.38-15.83-1.39-23.58c-0.84-3.46-3.69-6.37-7.16-7.2c-4.63-1.23-9.64-1.35-14.21,0.15c-3.39,1.39-5.5,4.53-7.86,7.15
		c-1.3-0.33-2.59-0.68-3.89-1.01c-4.96-1.48-9.67,1.65-13.94,3.78c3.23-0.34,6.42-0.96,9.65-1.24c-1.72,2.59-3.37,5.38-5.88,7.3
		c-3.62,0.43-7.28,0.11-10.91,0.08c-8.22-0.31-16.45-0.15-24.67-0.49c-3.77,0-5.49-4.52-9.16-4.88c-4.3-0.71-8.68-0.77-12.96-1.68
		c-5.44-0.39-10.92-0.45-16.31-1.4c-8.48-1.21-17.08-0.61-25.61-0.89c-5.75-0.24-11.71,0.72-17.25-1.26
		c0.48-1.25,0.97-2.48,1.45-3.72c1.02-2.51,2.09-5.25,1.28-7.97c-0.7-4.03-4.72-5.98-6.52-9.39c5.76-2.3,12.27-2.17,17.72-5.29
		c13.18-7.23,26.45-14.3,39.69-21.44c6.11-3.42,11.85-7.48,17.88-11.03c2.16-1.52,4.84-0.78,7.28-1.09
		c2.21-1.16,4.14-2.86,6.54-3.65c2.85-0.63,4.88,1.66,6.84,3.3c1.7-0.9,3.43-1.74,5.19-2.53c1.36,1.12,2.68,2.29,3.98,3.5
		c1.18-0.42,2.3-1.23,3.6-1.22c1.23,0.56,2.34,1.35,3.5,2.06c1.9-0.89,3.71-2.11,5.81-2.45c1.38,0.28,2.65,0.91,4,1.29
		c5.06-1.31,10.84-1.64,15.56,0.95c3.7,2.13,8.74,1.81,12.25-0.59c6.17-3.64,12.34-7.6,19.33-9.45
		C995.043,524.242,1000.153,522.252,1005.573,521.452 M976.753,544.992c-0.69,3.27-2.07,6.76-5.34,8.21
		c-3.59,2.55-8.03,1.22-12.08,1.32c-4.3-1.47-8.8-0.25-11.83,3.08l-1.19,0.01c0.88,1.24,2.05,2.22,3.46,2.82
		c2.74,2.84,6.61,3.92,10.48,3.47c1.38,1.41,2.87,2.81,4.9,3.17c-0.32-0.84-0.97-2.51-1.29-3.35c-0.32,0.02-0.95,0.05-1.27,0.07
		c-0.71-1.22-1.42-2.42-2.11-3.63c0.55-0.1,1.66-0.29,2.21-0.39c-1.97-0.83-4.07-1.29-6.15-1.75c3.89-1.64,8.1-2.15,12.29-2.28
		c3.55-1.68,8.2-3.4,9.07-7.73c0.17-3.07,1.89-5.66,3.2-8.35C979.413,541.222,977.213,542.562,976.753,544.992 M1018.753,546.662
		c5.9,0.4,11.83-0.03,17.75,0.04c-0.45-1.01-0.9-2.03-1.33-3.04C1029.723,544.922,1023.943,544.412,1018.753,546.662
		 M1068.623,545.472c5.51,5.5,10.3,11.66,15.03,17.82c1.39,1.65,1.35,3.91,1.74,5.93c0.4-0.2,1.21-0.58,1.61-0.77
		c0.1-1.75,0.94-3.69-0.11-5.29c-2.49-3.77-5.73-6.95-8.63-10.39C1075.543,549.782,1072.823,546.272,1068.623,545.472
		 M941.693,559.822c0.6,0.06,1.82,0.19,2.43,0.25c-0.02-1.6-0.03-3.21-0.08-4.8C942.393,556.272,941.713,557.932,941.693,559.822
		 M921.953,573.592c-3.23,0.45-6.54,0.42-9.67,1.45c3.73,1.82,8.22,0.19,11.86,2.38c1.43-1.7,2.88-3.57,5.07-4.29
		c2.84-0.63,5.9-1.05,8.2-3c-3.23-0.38-6.5-0.31-9.74-0.12C925.733,571.172,924.333,573.262,921.953,573.592 M905.163,574.792
		c-0.34,0.44-1.03,1.31-1.37,1.75c0.11,0.55,0.32,1.66,0.43,2.21c2.14,0.06,4.29-0.03,6.42,0.26c3.34,1.1,6.37,3.37,10.06,3.02
		c-3.52-1.77-6.9-3.9-10.75-4.92c0.09-0.89,0.19-1.78,0.28-2.67C908.543,574.552,906.853,574.662,905.163,574.792 M921.753,580.892
		c1.45,0.76,2.89,1.52,4.32,2.33c0.04,6.03,0.28,12.07,0.89,18.08c0.54-0.08,1.6-0.23,2.13-0.31c-0.41-6.57,1.05-13.42-1.22-19.76
		C925.903,580.592,923.783,580.972,921.753,580.892L921.753,580.892z"/>
	<path style="fill:#040203;" d="M1036.223,519.912c4.22-0.04,8.49-0.35,12.7,0.14c2.46,3.43,4.69,8.43,2.14,12.39
		c-0.26,2.48,0.36,5.18-1,7.43c-1.17,3.1-3.9,5.1-6.38,7.11c-3.41-1.42-6.24-4.47-7.08-8.08c2,1.62,3.17,4.88,6.11,4.87
		c3.04,0.69,4.69-2.34,6.55-4.12c-0.15-2.36-0.17-4.72-0.26-7.08c-4.17,0.22-8.34,0.11-12.51,0.06c0.02,2.05,0.16,4.13-0.24,6.17
		c-0.68-2.51,0.44-5.47-1.32-7.61C1032.443,527.692,1034.433,523.272,1036.223,519.912L1036.223,519.912z"/>
	<path style="fill:#450807;" d="M1150.263,530.982c10.98,0.09,21.96-0.2,32.94-0.16c0.03,3.99-0.04,7.98,0.07,11.97
		c-10.91,0.38-21.83,0.25-32.74,0.26C1150.053,539.042,1150.033,535.002,1150.263,530.982 M1156.063,533.692
		c-2.9,0.41-3.58,3.5-4.42,5.79c1.7,0.63,3.45,1.2,5.29,1.18c7.17-0.04,14.81,2,21.51-1.56c2.37-0.65,1.9-3.41,1.97-5.29
		C1172.293,533.992,1164.163,533.402,1156.063,533.692L1156.063,533.692z"/>
	<path style="fill:#4C060A;" d="M1188.383,530.892c2.91-0.14,5.83-0.16,8.75-0.11c-0.05,3.97,0.02,7.94,0.12,11.9
		c-2.91,0.35-5.83,0.41-8.75,0.33C1188.153,538.982,1188.173,534.932,1188.383,530.892L1188.383,530.892z"/>
	<path style="fill:#6C0203;" d="M1156.063,533.692c8.1-0.29,16.23,0.3,24.35,0.12c-0.07,1.88,0.4,4.64-1.97,5.29
		c-6.7,3.56-14.34,1.52-21.51,1.56c-1.84,0.02-3.59-0.55-5.29-1.18C1152.483,537.192,1153.163,534.102,1156.063,533.692
		L1156.063,533.692z"/>
	<path style="fill:#430306;" d="M726.083,534.932c1.81-0.51,3.66-0.96,5.56-0.85c13.43,0.1,26.86-0.02,40.28-0.04
		c0.05,4.54,0.12,9.09,0,13.63c-14.78,0.12-29.55,0.13-44.32,0.04c-0.34-0.33-1-1-1.33-1.33
		C725.963,542.572,726.233,538.752,726.083,534.932 M732.093,535.952c-3.65,0.78-4.86,6.62-1.03,8.08c3,0.37,6.04,0.17,9.02,0.74
		c6.81,1.29,13.75,0.46,20.62,0.76c2.91-0.02,7.09,0.19,8.04-3.36c0.14-2.71-0.66-6.9-4.11-6.87c-4.98-0.46-9.97,0.31-14.95,0.17
		C743.823,535.562,737.903,535.062,732.093,535.952L732.093,535.952z"/>
	<path style="fill:#660203;" d="M732.093,535.952c5.81-0.89,11.73-0.39,17.59-0.48c4.98,0.14,9.97-0.63,14.95-0.17
		c3.45-0.03,4.25,4.16,4.11,6.87c-0.95,3.55-5.13,3.34-8.04,3.36c-6.87-0.3-13.81,0.53-20.62-0.76c-2.98-0.57-6.02-0.37-9.02-0.74
		C727.233,542.572,728.443,536.732,732.093,535.952L732.093,535.952z"/>
	<path style="fill:#FFEDE9;" d="M1105.103,536.662c1.77,1.04,3.52,2.11,5.3,3.15c-1.44,1.35-4.03,3.38-5.39,0.77l0.02-0.94
		c0.01-0.54,0.03-1.61,0.05-2.14L1105.103,536.662L1105.103,536.662z"/>
	<path style="fill:#F0F0F0;" d="M976.753,544.992c0.46-2.43,2.66-3.77,4.35-5.33c-1.31,2.69-3.03,5.28-3.2,8.35
		c-0.87,4.33-5.52,6.05-9.07,7.73c-3.21-0.05-6.38-0.51-9.5-1.22c4.05-0.1,8.49,1.23,12.08-1.32
		C974.683,551.752,976.063,548.262,976.753,544.992 M941.693,559.822c0.02-1.89,0.7-3.55,2.35-4.55c0.05,1.59,0.06,3.2,0.08,4.8
		C943.513,560.012,942.293,559.882,941.693,559.822L941.693,559.822z"/>
	<path style="fill:#2E0302;" d="M1100.463,544.342c-0.71-2.95,2.59-3.68,4.57-4.7l-0.02,0.94c-0.69,1.47-1.53,2.87-2.33,4.28
		c6.42,3.94,14.34,0.3,21,3.46c1.71,0.48,1.55,2.46,2.07,3.82c-4.72,1.08-9.57,0.95-14.37,0.74c3.18-0.74,6.34-1.56,9.51-2.37
		c-4.53-2.06-9.53-1.77-14.36-2.11C1104.053,548.162,1100.553,547.452,1100.463,544.342L1100.463,544.342z"/>
	<path style="fill:#FCFCFC;" d="M998.563,542.152c0.58,2.71,1.23,5.42,1.49,8.19c-0.96,3.56-2.47,6.95-3.63,10.45
		c4.67-0.1,9.31-0.7,13.97-0.99c10.72-1.3,21.55-0.93,32.33-0.91c2.99-0.1,4.95,3.11,7.98,2.83c7.97,0.24,15.94-0.04,23.9,0.42
		c1.69,0.08,2.85,1.54,4.22,2.36c-8.43,2.28-17.2-0.1-25.79,0.61c0.01,2.73-0.15,5.51,0.44,8.21c0.53,1.13,0.53,3.57,2.31,3.36
		c8.37-0.05,17.06,0.15,24.97-2.94c2.21,0.12,4.33,1.29,6.58,0.82c1.11-0.14,2.22-0.29,3.34-0.45c-3.4,5.47-10.41,5.31-16,6.42
		c-3.55,0.25-6.69,1.94-9.62,3.83c0.06-0.7,0.19-2.1,0.25-2.8c-4.45,1.22-8.96,2.73-13.64,2.21c-0.95-4.34-2.46-8.59-2.67-13.06
		c-4.08,0.94-8.02-0.51-11.83-1.82c3.3-1.19,6.68-2.2,10.2-2.43c-0.02-0.41-0.06-1.21-0.08-1.61c-4.75,0.7-9.84,1.16-13.62,4.46
		c2.14,1.62,4.64,2.81,6.47,4.82c1.03,6.33-0.74,12.68-2.37,18.76c7.84,0.38,15.7,0.16,23.55,0.12c1.21-2.01,2.41-4.03,3.55-6.08
		c0.42,4.4-1.64,8.9-0.01,13.18c3.76,10.3,7.49,20.61,10.78,31.07c2.84,7.82,4.09,16.14,7.46,23.78c0.03,1.27,0.04,2.54,0.07,3.81
		c-2.22,1.12-4.43,2.23-6.69,3.25c-1.42,0.64-2.84,1.29-4.22,2.02c-1.53,2.87-2.31,6.05-3.05,9.2c0.04-0.7,0.11-2.1,0.15-2.81
		c-4.29,0.85-8.67,1.42-12.86,2.7c-0.27,0.32-0.79,0.96-1.05,1.28c-0.25,9.15-0.1,18.32-0.05,27.48c3.62-0.59,7.17-1.49,10.68-2.52
		c0.05,0.83,0.11,1.66,0.19,2.5l0.07,0.72c-9.62,1.01-19.11,3.03-28.71,4.29c-0.13-0.38-0.4-1.12-0.53-1.5
		c-0.66-1.88-1.38-3.74-2.16-5.56c-1.82,0.34-3.63,0.7-5.45,0.99c-1.66-0.02-3.32-0.14-4.97-0.17c3.74-0.97,7.42-2.21,11.04-3.58
		c1.15,2.5,2.4,5.02,4.56,6.83c0.16-0.52,0.48-1.57,0.64-2.09c0.18-0.58,0.52-1.73,0.69-2.31c3.21,0.81,6.45,1.54,9.74,2.04
		c0.22-9.54,0.24-19.09,0.07-28.63c-4.31-0.84-8.6-1.9-12.96-2.42c-0.42,2.38-0.87,4.77-1.22,7.16c-0.12-3.37-0.08-6.75-0.17-10.13
		c-5.32-1.35-10.37-3.54-15.6-5.17c1.09-0.27,2.18-0.55,3.28-0.82c5.58,2.34,11.43,4.48,17.56,4.54c0.15-6.6,1.18-13.14,1.04-19.75
		c1.24-8.96,1.19-18.02,2-27.02c-0.15-6.59,1.53-13.05,1-19.65c-3.3,0.03-6.6,0.04-9.88,0.36c-0.96-1.89-1.93-3.78-3.17-5.49
		c-8.35,0.48-17.12-1.02-24.98,2.61c0.01,1.71,0.02,3.43,0.07,5.15c-0.35-1.04-0.68-2.08-1.06-3.1c-0.26,0.04-0.8,0.13-1.06,0.18
		c-4.09,0.99-8.23,1.75-12.46,1.62c-1.73-4.95-3.15-10-4.55-15.05c-4.21-0.4-8.25-1.66-12.4-2.36c0.16-0.39,0.47-1.17,0.63-1.55
		c7.3-1.9,14.82-2.96,22.3-3.96c8.53,0,17.17-0.75,25.64,0.55c-0.08,0.52-0.24,1.55-0.31,2.07c-4.15,0-8.26,0.48-12.35,1.14
		c-6.27,0.13-12.52,0.5-18.77,1.05c0.74,4.6,2.13,9.05,3.48,13.5c7.52-0.6,14.52-3.65,21.56-6.12c5.73-2,11.24-4.57,16.42-7.71
		c-0.37-2.19,0.1-5.25-2.25-6.44c-3.27-1.81-6.82-3.08-10.01-5.06c-2.02-1.03-3.94-2.7-6.34-2.48c-6.54,0.2-13.27-0.57-19.63,1.35
		c-2.43,0.72-4.77,1.98-7.37,1.86c-3.49,0.19-6.49-2.23-9.96-2.07c-4.62-0.02-9.23,0.21-13.85,0.21c-0.01-1.02-0.02-2.04-0.03-3.06
		c1.77-0.25,3.54-0.51,5.31-0.8c1.34-5.07,3.87-9.85,8.57-12.53c1.33,4.11,2.22,9.11,6.21,11.56c3.56,2.01,8.3,0.5,9.81-3.35
		c-2.11,0.99-4.16,2.1-6.18,3.27c-1.94-1.2-4.13-2.17-5.53-4.04c-1.65-1.94-1.7-4.62-2.11-7.01c4.91-0.27,10.33,1.01,14.82-1.58
		C999.393,549.702,997.903,545.492,998.563,542.152 M1052.293,599.882c-0.25,7.53,0.95,14.98,1.73,22.44
		c0.15,14.32,3.28,28.39,3.46,42.71c3.09,0.21,6.18-0.32,9.09-1.39c5.12-1.88,10.52-3.42,14.88-6.84
		c-2.42-5.72-3.45-11.88-5.53-17.71c-3.75-12.64-7.91-25.13-12.08-37.63C1060.713,598.682,1056.083,600.352,1052.293,599.882
		L1052.293,599.882z"/>
	<path style="fill:#AEAEAE;" d="M1018.753,546.662c5.19-2.25,10.97-1.74,16.42-3c0.43,1.01,0.88,2.03,1.33,3.04
		C1030.583,546.632,1024.653,547.062,1018.753,546.662L1018.753,546.662z"/>
	<path style="fill:#B2AAAF;" d="M1068.623,545.472c4.2,0.8,6.92,4.31,9.64,7.3c2.9,3.44,6.14,6.62,8.63,10.39
		c1.05,1.6,0.21,3.54,0.11,5.29c-0.4,0.19-1.21,0.57-1.61,0.77c-0.39-2.02-0.35-4.28-1.74-5.93
		C1078.923,557.132,1074.133,550.972,1068.623,545.472 M1111.383,552.882c4.8,0.21,9.65,0.34,14.37-0.74
		c2.09,0.16,4.05,1.02,6.03,1.66c-4.71,0.24-9.4-0.27-14.1-0.2c-3.82,0.02-7.67,0.29-11.44-0.44c0.44-0.06,1.31-0.18,1.74-0.24
		C1109.113,552.912,1110.243,552.902,1111.383,552.882L1111.383,552.882z"/>
	<path style="fill:#130503;" d="M1093.613,555.412c3.47-4.22,9.62-3.16,14.37-2.49c-0.43,0.06-1.3,0.18-1.74,0.24
		c-3.46,0.69-7.42,1.14-9.95,3.87c-1.79,1.86-1.13,5.77,1.77,6c6.03,0.57,11.67-2.39,17.61-2.98c5.91-0.53,11.91-0.42,17.76,0.67
		c2.25,0.49,4.98,0.71,6.16,3.03c-8.32,0.31-16.72-0.66-24.97,0.55c-0.96,0.18-1.92,0.37-2.86,0.58c-5.34-0.04-10.62,0.7-15.92,1.27
		C1094.183,562.882,1091.103,559.062,1093.613,555.412L1093.613,555.412z"/>
	<path style="fill:#303030;" d="M947.503,557.602c3.03-3.33,7.53-4.55,11.83-3.08c3.12,0.71,6.29,1.17,9.5,1.22
		c-4.19,0.13-8.4,0.64-12.29,2.28C953.533,557.732,950.523,557.582,947.503,557.602L947.503,557.602z"/>
	<path style="fill:#DBDBDB;" d="M946.313,557.612l1.19-0.01c3.02-0.02,6.03,0.13,9.04,0.42c2.08,0.46,4.18,0.92,6.15,1.75
		c-0.55,0.1-1.66,0.29-2.21,0.39c-3.55,0.47-7.16,0.73-10.71,0.27C948.363,559.832,947.193,558.852,946.313,557.612L946.313,557.612
		z"/>
	<path style="fill:#6C6C6C;" d="M949.773,560.432c3.55,0.46,7.16,0.2,10.71-0.27c0.69,1.21,1.4,2.41,2.11,3.63
		c-0.59,0.02-1.76,0.08-2.34,0.11C956.383,564.352,952.513,563.272,949.773,560.432L949.773,560.432z"/>
	<path style="fill:#F3FCEC;" d="M779.763,575.322c1.65-4.67,3.69-9.28,6.55-13.35c1.98,3.44,3.63,7.46,7.22,9.55
		c1.78,1.17,3.59,2.29,5.43,3.4c-0.39,0.66-0.77,1.34-1.16,2.01c-3.08-1.89-5.92-4.14-8.65-6.5c-2.38,1.76-4.56,3.77-6.66,5.85
		c-0.87,0.74-1.79,1.44-2.7,2.14C779.783,577.652,779.763,576.102,779.763,575.322L779.763,575.322z"/>
	<path style="fill:#CCF7D7;" d="M1114.623,564.302c8.25-1.21,16.65-0.24,24.97-0.55l0.66,0.01c3.1,5.46,5.45,11.38,6.64,17.56
		c0.52,5.65,0.44,11.37,0.05,17.03c-3.22,17.34-15.64,32.25-31.25,40.05c0.47,3.65,1.97,7.16,1.7,10.9
		c-0.23,5.17,0.63,10.55-1.22,15.52c-2.43,11.51-9.23,22.39-19.42,28.53c-9.21,5.43-19.84,8.19-30.49,8.52
		c-0.08-0.84-0.14-1.67-0.19-2.5c0.06-8.78,1.29-17.56,3.13-26.13c0.74-3.15,1.52-6.33,3.05-9.2c-0.81,12.11-4.82,23.88-4.31,36.06
		c2.68-0.18,5.38-0.35,8.03-0.89c7.57-1.19,14.85-3.93,21.32-8.04c10.7-6.06,16.48-18,18.77-29.66c1.45-5.3,0.84-10.82-0.49-16.07
		c-0.53-2.73-1.13-5.45-1.58-8.19c5.57-3.54,11.6-6.54,16.23-11.35c9.33-8.88,15.89-21.44,15.15-34.56
		c0.36-9.19-0.19-19.62-7.3-26.39C1130.283,563.972,1122.423,565.012,1114.623,564.302L1114.623,564.302z"/>
	<path style="fill:#040303;" d="M1033.663,569.312c3.78-3.3,8.87-3.76,13.62-4.46c0.02,0.4,0.06,1.2,0.08,1.61
		c-3.52,0.23-6.9,1.24-10.2,2.43c3.81,1.31,7.75,2.76,11.83,1.82c0.21,4.47,1.72,8.72,2.67,13.06c4.68,0.52,9.19-0.99,13.64-2.21
		c-0.06,0.7-0.19,2.1-0.25,2.8c-0.05,0.64-0.14,1.93-0.19,2.57c-1.14,2.05-2.34,4.07-3.55,6.08c-7.85,0.04-15.71,0.26-23.55-0.12
		c1.63-6.08,3.4-12.43,2.37-18.76C1038.303,572.122,1035.803,570.932,1033.663,569.312 M947.923,599.512
		c0.77-2.18,3.3-1.47,5.07-1.74c-0.08,0.52-0.25,1.56-0.33,2.08c-5.79,7.74-11.12,15.81-16.65,23.75c-1.29,2.26-3.32,4.51-3.08,7.29
		c3.05,3.7,7,6.51,10.71,9.52c9.95,8.36,19.89,16.76,29.13,25.9c0.59,0.75,1.34,0.96,2.23,0.65c1.92-5.08,2.75-10.49,4.35-15.68
		c2.29-8.08,3.24-16.44,5.03-24.62c2.53,0.05,5.07,0.11,7.6,0.22c0,18.82,0.13,37.64-0.04,56.46c-0.99,6.48-0.4,13.09-1.54,19.56
		c-2.34-0.01-4.66,0-6.99,0.11c-4.17-1.76-8.77-1.34-13.1-2.3c-1.93-0.99-1.34-3.45-1.33-5.21c1.18-6.72,3.05-13.34,3.92-20.12
		c-1.44-3.95-4.99-6.52-7.66-9.6c-10.41-11.31-22.11-21.29-33.84-31.18c-3.25-2.56-2.89-6.83-1.16-10.16
		c3.43-3.38,5.75-7.65,8.49-11.57C941.933,608.512,945.163,604.162,947.923,599.512L947.923,599.512z"/>
	<path style="fill:#7AD399;" d="M1111.763,564.882c0.94-0.21,1.9-0.4,2.86-0.58c7.8,0.71,15.66-0.33,23.45,0.65
		c-8.8,0.61-17.67,0.43-26.36,2.2c-2.35,0.08-4.7,0.02-7.05,0.11C1107.063,566.582,1109.403,565.692,1111.763,564.882
		L1111.763,564.882z"/>
	<path style="fill:#DBFADE;" d="M1095.843,566.152c5.3-0.57,10.58-1.31,15.92-1.27c-2.36,0.81-4.7,1.7-7.1,2.38
		c-3.66,0.88-7.55,1.2-10.9,3.03c-1.22,1.1-2.09,2.53-3.09,3.82c-1.12,0.16-2.23,0.31-3.34,0.45
		C1090.303,571.882,1092.863,568.802,1095.843,566.152L1095.843,566.152z"/>
	<path style="fill:#02BA3D;" d="M1111.713,567.152c8.69-1.77,17.56-1.59,26.36-2.2c7.11,6.77,7.66,17.2,7.3,26.39
		c0.74,13.12-5.82,25.68-15.15,34.56c-4.63,4.81-10.66,7.81-16.23,11.35c0.45,2.74,1.05,5.46,1.58,8.19
		c0.22,5.35,0.26,10.71,0.49,16.07c-2.29,11.66-8.07,23.6-18.77,29.66c-6.47,4.11-13.75,6.85-21.32,8.04
		c-1.96-0.65-4.03-1.22-5.67-2.51c-1.68-6.23,2.1-12.15,2.35-18.32c0.3-5.65,1.74-11.13,3.82-16.36c2.26-1.02,4.47-2.13,6.69-3.25
		c-0.03-1.27-0.04-2.54-0.07-3.81c0.52-4.76-0.38-9.47-1.92-13.95c-3.49-14.42-11.09-27.52-14-42.1
		c-0.82-4.76-0.71-10.45,2.94-14.06c2.5-1.55,5.63-1.37,8.43-1.98c7.01-0.8,12.49-5.66,17.74-9.94
		C1100.563,569.172,1106.453,568.662,1111.713,567.152L1111.713,567.152z"/>
	<path style="fill:#2AA052;" d="M1093.763,570.292c3.35-1.83,7.24-2.15,10.9-3.03c2.35-0.09,4.7-0.03,7.05-0.11
		c-5.26,1.51-11.15,2.02-15.43,5.78c-5.25,4.28-10.73,9.14-17.74,9.94c-2.8,0.61-5.93,0.43-8.43,1.98
		c-3.65,3.61-3.76,9.3-2.94,14.06c2.91,14.58,10.51,27.68,14,42.1c1.54,4.48,2.44,9.19,1.92,13.95c-3.37-7.64-4.62-15.96-7.46-23.78
		c-3.29-10.46-7.02-20.77-10.78-31.07c-1.63-4.28,0.43-8.78,0.01-13.18c0.05-0.64,0.14-1.93,0.19-2.57
		c2.93-1.89,6.07-3.58,9.62-3.83c5.59-1.11,12.6-0.95,16-6.42C1091.673,572.822,1092.543,571.392,1093.763,570.292
		 M1007.713,604.582c1.63-0.31,3.26-0.6,4.9-0.91c-1.46,2.93-3.1,5.77-5.01,8.44c-0.07-0.49-0.2-1.47-0.26-1.96
		C1007.413,608.292,1007.553,606.432,1007.713,604.582L1007.713,604.582z"/>
	<path style="fill:#00BA3D;" d="M782.493,576.282c2.1-2.08,4.28-4.09,6.66-5.85c2.73,2.36,5.57,4.61,8.65,6.5
		c4.67,0.29,9.3-0.93,13.53-2.84c4.85,2.1,10.34,4.14,12.65,9.36c0.32,4.19-1.22,8.18-2.39,12.13c4.79,3.01,10.54,2.24,15.92,2.45
		c10.95,1.19,21.99,0.91,32.95,2.19c5.06,0.63,10.18,0.59,15.24,1.35c4.34,0.57,9.07,0.31,12.92,2.74c2.13,1.23,4.19,2.82,6.74,3.04
		c10.91,1.25,21.94,0,32.89,0.72c0.14,1.6,0.28,3.2,0.48,4.8c-2.74,3.92-5.06,8.19-8.49,11.57c-2.63,1.97-4.27,4.82-5.51,7.79
		c15.31,12.57,31.45,24.59,43.71,40.35c2.9,3.14,1.68,7.62,0.95,11.35c-1.12,5.79-3.65,11.66-2.15,17.62
		c1.1,2.35,2.38,4.62,3.62,6.91c-2.91,1.55-5.63,3.42-8.35,5.27c-5.11-3.41-10.37-7.5-16.75-7.88c-7.03-0.37-14.08,0.26-21.11-0.23
		c-11.97-1.38-24.1-0.81-36.06-2.32c-8.81-1.59-17.76-2.32-26.49-4.35c-10.3-2.2-21.24-3.06-30.47-8.58
		c-12.49-7.12-19.08-21.41-20.7-35.23c-0.72-5.82,0.94-11.56,0.77-17.37c0.02-0.27,0.06-0.81,0.07-1.08
		c0.09-0.72,0.19-1.45,0.29-2.16c-6.83-3.68-13.7-7.74-18.74-13.77c-6.73-7.71-10.94-17.29-13.04-27.25
		C779.233,587.712,779.963,581.622,782.493,576.282L782.493,576.282z"/>
	<path style="fill:#FEFEFE;" d="M921.953,573.592c2.38-0.33,3.78-2.42,5.72-3.58c3.24-0.19,6.51-0.26,9.74,0.12
		c-2.3,1.95-5.36,2.37-8.2,3c-2.19,0.72-3.64,2.59-5.07,4.29c-3.64-2.19-8.13-0.56-11.86-2.38
		C915.413,574.012,918.723,574.042,921.953,573.592L921.953,573.592z"/>
	<path style="fill:#A8B9AD;" d="M798.963,574.922c5.45-0.55,10.53-2.93,16.01-3.24c-1.23,0.78-2.41,1.63-3.64,2.41
		c-4.23,1.91-8.86,3.13-13.53,2.84C798.193,576.262,798.573,575.582,798.963,574.922 M937.523,598.932
		c4.27-2.13,8.98-5.26,13.94-3.78c-1.47,0.09-2.85,0.63-4.2,1.2c2.24,0.52,4.48,1.02,6.75,1.45c-0.45,0.68-0.9,1.36-1.35,2.05
		c0.08-0.52,0.25-1.56,0.33-2.08c-1.77,0.27-4.3-0.44-5.07,1.74c-2.76,4.65-5.99,9-9.19,13.36c-0.2-1.6-0.34-3.2-0.48-4.8
		c-10.95-0.72-21.98,0.53-32.89-0.72c10.96-0.89,21.96,0.06,32.92-0.43c-2.58-0.83-5.24-1.39-7.9-1.85
		c3.63,0.03,7.29,0.35,10.91-0.08c2.51-1.92,4.16-4.71,5.88-7.3C943.943,597.972,940.753,598.592,937.523,598.932L937.523,598.932z"
		/>
	<path style="fill:#F9F9F9;" d="M905.163,574.792c1.69-0.13,3.38-0.24,5.07-0.35c-0.09,0.89-0.19,1.78-0.28,2.67
		c3.85,1.02,7.23,3.15,10.75,4.92c-3.69,0.35-6.72-1.92-10.06-3.02c-2.13-0.29-4.28-0.2-6.42-0.26c-0.11-0.55-0.32-1.66-0.43-2.21
		C904.133,576.102,904.823,575.232,905.163,574.792L905.163,574.792z"/>
	<path style="fill:#72874B;" d="M779.673,601.582c-1.58-8.61-1.94-17.73,0.09-26.26c0,0.78,0.02,2.33,0.03,3.1
		c0.91-0.7,1.83-1.4,2.7-2.14c-2.53,5.34-3.26,11.43-2.21,17.23c2.1,9.96,6.31,19.54,13.04,27.25c-0.5,0.06-1.52,0.18-2.03,0.24
		l-0.62,0.08C785.743,615.402,782.233,608.612,779.673,601.582L779.673,601.582z"/>
	<path style="fill:#E9E7E8;" d="M921.753,580.892c2.03,0.08,4.15-0.3,6.12,0.34c2.27,6.34,0.81,13.19,1.22,19.76
		c-0.53,0.08-1.59,0.23-2.13,0.31c-0.61-6.01-0.85-12.05-0.89-18.08C924.643,582.412,923.203,581.652,921.753,580.892
		L921.753,580.892z"/>
	<path style="fill:#E6FCEC;" d="M823.983,583.452c0.81,2.38,1.42,4.83,1.89,7.3c-0.48,1.24-0.97,2.47-1.45,3.72
		c5.54,1.98,11.5,1.02,17.25,1.26c8.53,0.28,17.13-0.32,25.61,0.89c5.39,0.95,10.87,1.01,16.31,1.4c4.28,0.91,8.66,0.97,12.96,1.68
		c3.67,0.36,5.39,4.88,9.16,4.88c8.22,0.34,16.45,0.18,24.67,0.49c2.66,0.46,5.32,1.02,7.9,1.85c-10.96,0.49-21.96-0.46-32.92,0.43
		c-2.55-0.22-4.61-1.81-6.74-3.04c-3.85-2.43-8.58-2.17-12.92-2.74c-5.06-0.76-10.18-0.72-15.24-1.35c-10.96-1.28-22-1-32.95-2.19
		c-5.38-0.21-11.13,0.56-15.92-2.45C822.763,591.632,824.303,587.642,823.983,583.452L823.983,583.452z"/>
	<path style="fill:#FDFDFD;" d="M963.213,589.012c4.57-1.5,9.58-1.38,14.21-0.15c3.47,0.83,6.32,3.74,7.16,7.2
		c1.77,7.75-0.42,15.85,1.39,23.58c5.98,0.7,11.96,1.35,18,1.26c0.25-1.65,0.51-3.29,0.8-4.93c0.43,4.06,0.62,8.15,0.46,12.23
		c-2.72-1.59-5.9-1.32-8.91-1.31c1.58,11.2,3.17,22.41,5.42,33.5c3.28,14.19,7.52,28.15,12.51,41.82c3.45-0.29,6.86-0.9,10.26-1.57
		c1.65,0.03,3.31,0.15,4.97,0.17c-7.87,1.4-15.76,3.14-23.8,2.97c-7.74-0.13-15.5,1.7-23.19,0.14l0.92-0.91
		c2.33-0.11,4.65-0.12,6.99-0.11c1.14-6.47,0.55-13.08,1.54-19.56c0.17-18.82,0.04-37.64,0.04-56.46c-2.53-0.11-5.07-0.17-7.6-0.22
		c-1.79,8.18-2.74,16.54-5.03,24.62c-1.6,5.19-2.43,10.6-4.35,15.68c-0.89,0.31-1.64,0.1-2.23-0.65
		c-9.24-9.14-19.18-17.54-29.13-25.9c-3.71-3.01-7.66-5.82-10.71-9.52c-0.24-2.78,1.79-5.03,3.08-7.29
		c5.53-7.94,10.86-16.01,16.65-23.75c0.45-0.69,0.9-1.37,1.35-2.05c-2.27-0.43-4.51-0.93-6.75-1.45c1.35-0.57,2.73-1.11,4.2-1.2
		c1.3,0.33,2.59,0.68,3.89,1.01C957.713,593.542,959.823,590.402,963.213,589.012L963.213,589.012z"/>
	<path style="fill:#030402;" d="M1008.153,597.122c7.86-3.63,16.63-2.13,24.98-2.61c0.2,0.49,0.62,1.46,0.82,1.95
		c-0.94,1.75-3.23,1.59-4.86,2.27c-6.91,1.43-13.8,3.24-20.87,3.54C1008.173,600.552,1008.163,598.832,1008.153,597.122
		L1008.153,597.122z"/>
	<path style="fill:#D1EECB;" d="M1033.133,594.512c1.24,1.71,2.21,3.6,3.17,5.49c-0.63,0.91-1.24,1.82-1.84,2.75
		c-0.45-1.11-0.89-2.23-1.32-3.34c-6.88,1.24-13.66,2.96-20.53,4.26c-1.64,0.31-3.27,0.6-4.9,0.91c-0.16,1.85-0.3,3.71-0.37,5.57
		c-0.46,6.83-1.45,13.65-1.01,20.51c-0.28-0.62-0.83-1.85-1.1-2.46c0.16-4.08-0.03-8.17-0.46-12.23c0.56-5.53,1.28-11.06,1.33-16.62
		c0.26-0.05,0.8-0.14,1.06-0.18c0.38,1.02,0.71,2.06,1.06,3.1c7.07-0.3,13.96-2.11,20.87-3.54c1.63-0.68,3.92-0.52,4.86-2.27
		C1033.753,595.972,1033.333,595.002,1033.133,594.512 M791.293,621.002c0.51-0.06,1.53-0.18,2.03-0.24
		c5.04,6.03,11.91,10.09,18.74,13.77c-0.1,0.71-0.2,1.44-0.29,2.16C804.163,632.572,796.963,627.622,791.293,621.002
		 M809.923,661.802c-1.55-7.87-2.18-16.76,1.78-24.03c0.17,5.81-1.49,11.55-0.77,17.37c1.62,13.82,8.21,28.11,20.7,35.23
		c9.23,5.52,20.17,6.38,30.47,8.58c8.73,2.03,17.68,2.76,26.49,4.35c11.96,1.51,24.09,0.94,36.06,2.32
		c7.03,0.49,14.08-0.14,21.11,0.23c6.38,0.38,11.64,4.47,16.75,7.88c2.72-1.85,5.44-3.72,8.35-5.27c2.02-0.62,4.12-0.93,6.22-1.16
		l1.04,0.22c-1.93,1.78-4.58,2.2-6.89,3.27c-3.16,1.29-5.72,3.59-8.6,5.37c-5.97-4.1-12.33-8.71-19.98-8.43
		c-24.36,0.74-48.88-0.26-72.84-4.94c-10.68-2.74-21.94-3.15-32.24-7.35C823.233,690.162,812.963,676.542,809.923,661.802
		L809.923,661.802z"/>
	<path style="fill:#06B93C;" d="M1012.613,603.672c6.87-1.3,13.65-3.02,20.53-4.26c0.43,1.11,0.87,2.23,1.32,3.34
		c-3.07,5.45-3.7,11.84-6.1,17.57c0.06-1.7,0.07-3.39,0.1-5.08c-3.99,11.96-7.49,24.08-10.48,36.32c-1.27,0.27-2.53,0.49-3.8,0.73
		c-1.03-3.39-2.08-6.78-3.23-10.12c-0.11,1.39-0.21,2.78-0.27,4.19c-1.77-5.15-3.37-10.35-4.35-15.7
		c-0.44-6.86,0.55-13.68,1.01-20.51c0.06,0.49,0.19,1.47,0.26,1.96C1009.513,609.442,1011.153,606.602,1012.613,603.672
		L1012.613,603.672z"/>
	<path style="fill:#030302;" d="M1036.303,600.002c3.28-0.32,6.58-0.33,9.88-0.36c0.53,6.6-1.15,13.06-1,19.65
		c-0.81,9-0.76,18.06-2,27.02c0.14,6.61-0.89,13.15-1.04,19.75c-6.13-0.06-11.98-2.2-17.56-4.54c-2.1-1.22-4.47-2.31-5.83-4.41
		c-0.06-2.04,0.36-4.05,0.73-6.04c3.29-10.15,5.62-20.58,8.88-30.75c2.4-5.73,3.03-12.12,6.1-17.57
		C1035.063,601.822,1035.673,600.912,1036.303,600.002L1036.303,600.002z"/>
	<path style="fill:#030202;" d="M1052.293,599.882c3.79,0.47,8.42-1.2,11.55,1.58c4.17,12.5,8.33,24.99,12.08,37.63
		c2.08,5.83,3.11,11.99,5.53,17.71c-4.36,3.42-9.76,4.96-14.88,6.84c-2.91,1.07-6,1.6-9.09,1.39c-0.18-14.32-3.31-28.39-3.46-42.71
		C1053.243,614.862,1052.043,607.412,1052.293,599.882L1052.293,599.882z"/>
	<path style="fill:#ACF6C8;" d="M1017.983,651.562c2.99-12.24,6.49-24.36,10.48-36.32c-0.03,1.69-0.04,3.38-0.1,5.08
		c-3.26,10.17-5.59,20.6-8.88,30.75C1019.113,651.202,1018.353,651.442,1017.983,651.562 M1013.873,653.242
		c1.39,1.79,2.91,3.52,3.9,5.58c1.01,2.91,0.98,6.06,1.13,9.11c-1.85-3.85-3.72-7.7-5.26-11.68
		C1013.703,655.502,1013.823,653.992,1013.873,653.242L1013.873,653.242z"/>
	<path style="fill:#9AE6B0;" d="M924.733,632.232c1.24-2.97,2.88-5.82,5.51-7.79c-1.73,3.33-2.09,7.6,1.16,10.16
		c11.73,9.89,23.43,19.87,33.84,31.18c2.67,3.08,6.22,5.65,7.66,9.6c-0.87,6.78-2.74,13.4-3.92,20.12c-0.01,1.76-0.6,4.22,1.33,5.21
		c4.33,0.96,8.93,0.54,13.1,2.3l-0.92,0.91c-5.16-0.16-10.26-1.08-15.25-2.37c-1.5-5.96,1.03-11.83,2.15-17.62
		c0.73-3.73,1.95-8.21-0.95-11.35C956.183,656.822,940.043,644.802,924.733,632.232 M977.083,707.302
		c8.11-2.07,16.4,0.22,24.62-0.04c9.73,1,19.42-0.87,29.17-0.36c-4.65,1.23-9.47,0.78-14.21,1.02c-8.58,1.19-17.34,1.54-25.97,0.76
		c-4.14-0.98-8.43-0.38-12.57-1.16L977.083,707.302L977.083,707.302z"/>
	<path style="fill:#050404;" d="M996.323,626.892c3.01-0.01,6.19-0.28,8.91,1.31c0.27,0.61,0.82,1.84,1.1,2.46
		c0.98,5.35,2.58,10.55,4.35,15.7c0.82,3.34,1.67,6.69,2.96,9.89c1.54,3.98,3.41,7.83,5.26,11.68c1.33,3.52,3.56,6.57,5.74,9.61
		c1.56,2.97,3.09,5.96,4.83,8.84c2.03,3.56,4.25,7.01,6.08,10.68c-3.62,1.37-7.3,2.61-11.04,3.58c-3.4,0.67-6.81,1.28-10.26,1.57
		c-4.99-13.67-9.23-27.63-12.51-41.82C999.493,649.302,997.903,638.092,996.323,626.892L996.323,626.892z"/>
	<path style="fill:#2C9664;" d="M1010.953,642.172c1.15,3.34,2.2,6.73,3.23,10.12c1.27-0.24,2.53-0.46,3.8-0.73
		c0.37-0.12,1.13-0.36,1.5-0.49c-0.37,1.99-0.79,4-0.73,6.04c1.36,2.1,3.73,3.19,5.83,4.41c-1.1,0.27-2.19,0.55-3.28,0.82
		c-0.58,5.33,1.82,10.24,3.34,15.2c-2.18-3.04-4.41-6.09-5.74-9.61c-0.15-3.05-0.12-6.2-1.13-9.11c-0.99-2.06-2.51-3.79-3.9-5.58
		c-0.05,0.75-0.17,2.26-0.23,3.01c-1.29-3.2-2.14-6.55-2.96-9.89C1010.743,644.952,1010.843,643.562,1010.953,642.172
		L1010.953,642.172z"/>
	<path style="fill:#84EC98;" d="M1115.573,645.442c1.33,5.25,1.94,10.77,0.49,16.07
		C1115.833,656.152,1115.793,650.792,1115.573,645.442L1115.573,645.442z"/>
	<path style="fill:#1A9246;" d="M1072.253,664.042c1.38-0.73,2.8-1.38,4.22-2.02c-2.08,5.23-3.52,10.71-3.82,16.36
		c-0.25,6.17-4.03,12.09-2.35,18.32c1.64,1.29,3.71,1.86,5.67,2.51c-2.65,0.54-5.35,0.71-8.03,0.89
		C1067.433,687.922,1071.443,676.152,1072.253,664.042L1072.253,664.042z"/>
	<path style="fill:#08B54A;" d="M1021.303,662.342c5.23,1.63,10.28,3.82,15.6,5.17c0.09,3.38,0.05,6.76,0.17,10.13
		c0.14,4.6,0.6,9.19,1.05,13.77c-2.9-1.64-5.83-3.25-8.65-5.03c-1.74-2.88-3.27-5.87-4.83-8.84
		C1023.123,672.582,1020.723,667.672,1021.303,662.342L1021.303,662.342z"/>
	<path style="fill:#060303;" d="M1056.493,673.132c4.19-1.28,8.57-1.85,12.86-2.7c-0.04,0.71-0.11,2.11-0.15,2.81
		c-1.84,8.57-3.07,17.35-3.13,26.13c-3.51,1.03-7.06,1.93-10.68,2.52c-0.05-9.16-0.2-18.33,0.05-27.48
		C1055.703,674.092,1056.223,673.452,1056.493,673.132L1056.493,673.132z"/>
	<path style="fill:#82BCA0;" d="M1037.073,677.642c0.35-2.39,0.8-4.78,1.22-7.16c0.47,4.13,1.37,8.2,1.61,12.36
		c-1.32,2.78-1.45,5.73,0.29,8.36c0.98,2.65,1.38,5.47,1.25,8.29c-0.17,0.58-0.51,1.73-0.69,2.31c-0.72-3.51-1.87-6.9-2.63-10.39
		C1037.673,686.832,1037.213,682.242,1037.073,677.642L1037.073,677.642z"/>
	<path style="fill:#050303;" d="M1038.293,670.482c4.36,0.52,8.65,1.58,12.96,2.42c0.17,9.54,0.15,19.09-0.07,28.63
		c-3.29-0.5-6.53-1.23-9.74-2.04c0.13-2.82-0.27-5.64-1.25-8.29c-0.1-2.79-0.08-5.58-0.29-8.36
		C1039.663,678.682,1038.763,674.612,1038.293,670.482L1038.293,670.482z"/>
	<path style="fill:#B5F5D9;" d="M1040.193,691.202c-1.74-2.63-1.61-5.58-0.29-8.36
		C1040.113,685.622,1040.093,688.412,1040.193,691.202L1040.193,691.202z"/>
	<path style="fill:#29A069;" d="M1029.473,686.382c2.82,1.78,5.75,3.39,8.65,5.03c0.76,3.49,1.91,6.88,2.63,10.39
		c-0.16,0.52-0.48,1.57-0.64,2.09c-2.16-1.81-3.41-4.33-4.56-6.83C1033.723,693.392,1031.503,689.942,1029.473,686.382
		L1029.473,686.382z"/>
	<path style="fill:#19A35F;" d="M1029.483,700.812c1.82-0.29,3.63-0.65,5.45-0.99c0.78,1.82,1.5,3.68,2.16,5.56
		c-2.02,0.68-4.05,1.52-6.22,1.52c-9.75-0.51-19.44,1.36-29.17,0.36c-8.22,0.26-16.51-2.03-24.62,0.04c-2.1,0.23-4.2,0.54-6.22,1.16
		c-1.24-2.29-2.52-4.56-3.62-6.91c4.99,1.29,10.09,2.21,15.25,2.37c7.69,1.56,15.45-0.27,23.19-0.14
		C1013.723,703.952,1021.613,702.212,1029.483,700.812L1029.483,700.812z"/>
	<path style="fill:#050202;" d="M846.943,709.452c4.31-1.02,8.44,1.34,12.76,1.26c6.78-0.04,13.21,2.41,19.93,2.82
		c10.3,0.27,20.49,2.04,30.79,2.31c11.25,1.34,22.61,0.02,33.88,1.05c6.87,0.5,10.26,7.68,16.63,9.38c2.16,1.07,4.16-0.71,5.97-1.69
		c4.09-2.74,8.79-4.75,13.77-4.93c9-0.28,18.02,0.15,27.03-0.19c6.65-0.51,13.26-1.54,19.95-1.46c6.85,0.14,13.08-3.55,19.94-3.33
		c9.27,0.43,18.02-3.75,27.29-3.06c-5.94,7.55-14.49,12.81-23.8,15.04c-12.12,4.99-25.4,4.97-38.15,6.98
		c-6.93,2.04-14.47,0.78-21.19,3.68c-8.11,3.6-16.55,8.06-21.09,16.08c-4.65,7.12-2.81,15.95-3.18,23.95
		c-0.41,6.63,0.99,13.45-0.94,19.93c-2.72-0.28-5.69-0.11-8.07-1.67c-0.72-1.28-0.58-2.81-0.69-4.21
		c-0.14-9.69-0.17-19.39-0.65-29.07c-0.09-6.34-4.66-11.55-9.68-14.9c-3.55-2.35-5.68-6.46-9.7-8.14
		c-5.33-2.28-11.1-3.25-16.85-3.66c-17.58-2.11-35.46-4.53-51.87-11.51c-7.68-3.08-14.32-8.13-21.85-11.49
		C847.093,711.562,847.023,710.502,846.943,709.452L846.943,709.452z"/>
	<path style="fill:#54080B;" d="M869.023,724.112c16.41,6.98,34.29,9.4,51.87,11.51c-1.03,0.69-2.06,1.39-3.09,2.09
		c1.94,1.21,3.95,2.46,5.07,4.53c-11.63-1.09-23.08-3.48-34.6-5.37c-8.26-1.34-16.21-4.09-24.11-6.77c1.62-0.81,3.25-1.61,4.89-2.39
		C869.043,726.512,869.023,725.302,869.023,724.112L869.023,724.112z"/>
	<path style="fill:#560509;" d="M1025.963,750.592c3.98-4.24,10.25-4.55,15.68-3.91c2.34,0.45,4.64,1.78,5.64,4.04
		c1.9,2.9,0.38,6.36-1.33,8.94c4.75,1.36,6.65,7.24,4.73,11.52c-2.08,4.99-7.96,7.05-13.01,6.88c-2.7-0.16-5.95,0.43-8.05-1.68
		c-2.09-1.65-3.56-3.9-4.88-6.17c1.63-2.78,4.95-2.41,7.74-2.52c1.3,0.7,1.38,2.55,2.32,3.65c2.24,0.93,5.1,0.79,6.99-0.86
		c0.61-1.52,0.44-3.2,0.54-4.79c-2.33-0.52-4.71-0.71-7.07-0.84c-0.01-1.66-0.04-3.31-0.07-4.95c2-1.35,5.81-2.4,4.85-5.5
		c-2.34-2.59-6.45-1.16-7.76,1.72c-1.46,2.97-5.46,2.55-8.26,2.87C1022.583,756.062,1024.333,753.012,1025.963,750.592
		L1025.963,750.592z"/>
	<path style="fill:#530708;" d="M894.673,755.752c1.85-0.91,2.53-3.26,4.35-4.08c2.16,0.16,4.24,0.83,6.36,1.26
		c-0.31,6.57-2.52,12.83-3.84,19.23c-0.85,3.62-1.33,7.36-2.87,10.79c-2.59-0.59-5.18-1.15-7.71-1.95
		c0.1-5.79,1.47-11.51,3.16-17.02c-2.43-0.6-4.82-1.36-7.15-2.25c0.43-2.01,0.85-4.02,1.19-6.04
		C890.323,755.892,892.503,756.082,894.673,755.752L894.673,755.752z"/>
	<path style="fill:#550507;" d="M994.373,756.102c4.05-2.07,8.9-3.05,13.4-2.1c4.69,0.76,8.26,5.61,7.48,10.32
		c-0.22,5.84-6.94,8.22-8.73,13.31c4.13-0.67,8.13-2.16,12.38-1.96c0.46,2.34,1.28,4.72,0.59,7.12c-8.17,1.46-16.42,2.69-24.32,5.33
		c-1.44-2.23-1.39-5.17-0.51-7.57c3.04-4.63,6.77-8.75,10.61-12.72c1.66-1.54,1.27-4.07,0.83-6.05c-1.36-1.64-4.33-1.32-5.75,0.11
		c-1.96,1.17-1.03,3.75-1.32,5.62c-2.82,0.81-5.66,1.58-8.47,2.45C988.573,765.132,989.993,759.132,994.373,756.102L994.373,756.102
		z"/>
	<path style="fill:#570709;" d="M916.633,757.322c5.53-3.1,12.55-0.98,17.07,2.96c7.24,7.43,4.14,20.49-3.92,26.02
		c-5.59,3.17-12.78,1.25-17.65-2.42c-2.1-1.43-2.77-3.93-3.26-6.26c2.68,0.12,5.73-0.22,7.99,1.56c1.82,1.11,3.47,3.1,5.83,2.67
		c1.73-1.02,3-2.59,4.32-4.06c-3.39-0.04-7.36,0.85-10.13-1.67c-2.88-2.47-6.26-5.62-5.79-9.77
		C910.603,762.492,913.503,759.162,916.633,757.322 M923.703,771.832c3,0.74,4.76-1.99,5.57-4.42c-0.66-1.23-1.31-2.45-1.96-3.67
		c-1.46-0.08-3.02-0.99-4.42-0.3C919.063,764.652,919.403,771.712,923.703,771.832L923.703,771.832z"/>
	<path style="fill:#F7FCF1;" d="M923.703,771.832c-4.3-0.12-4.64-7.18-0.81-8.39c1.4-0.69,2.96,0.22,4.42,0.3
		c0.65,1.22,1.3,2.44,1.96,3.67C928.463,769.842,926.703,772.572,923.703,771.832L923.703,771.832z"/>
</g>
</svg>
