<?xml version="1.0" encoding="UTF-8"?>
<svg id="Layer_2" data-name="Layer 2" xmlns="http://www.w3.org/2000/svg" viewBox="0 0 538.15 537.97">
  <defs>
    <style>
      .cls-1 {
        fill: #030202;
      }

      .cls-2 {
        fill: #ffede9;
      }

      .cls-3 {
        fill: #29a069;
      }

      .cls-4 {
        fill: #72874b;
      }

      .cls-5 {
        fill: #54080b;
      }

      .cls-6 {
        fill: #19a35f;
      }

      .cls-7 {
        fill: #030302;
      }

      .cls-8 {
        fill: #fbf7ed;
      }

      .cls-9 {
        fill: #6c6c6c;
      }

      .cls-10 {
        fill: #640404;
      }

      .cls-11 {
        fill: #825548;
      }

      .cls-12 {
        fill: #2aa052;
      }

      .cls-13 {
        fill: #060303;
      }

      .cls-14 {
        fill: #00ba3d;
      }

      .cls-15 {
        fill: #ecfcfd;
      }

      .cls-16 {
        fill: #6c0203;
      }

      .cls-17 {
        fill: #ccf7d7;
      }

      .cls-18 {
        fill: #d1eecb;
      }

      .cls-19 {
        fill: #1a9246;
      }

      .cls-20 {
        fill: #dbdbdb;
      }

      .cls-21 {
        fill: #600505;
      }

      .cls-22 {
        fill: #050404;
      }

      .cls-23 {
        fill: #f7fcf1;
      }

      .cls-24 {
        fill: #94fefe;
      }

      .cls-25 {
        fill: #9ae6b0;
      }

      .cls-26 {
        fill: #fbfbfa;
      }

      .cls-27 {
        fill: #510809;
      }

      .cls-28 {
        fill: #620406;
      }

      .cls-29 {
        fill: #e9e7e8;
      }

      .cls-30 {
        fill: #2c9664;
      }

      .cls-31 {
        fill: #5f0606;
      }

      .cls-32 {
        fill: #82bca0;
      }

      .cls-33 {
        fill: #050202;
      }

      .cls-34 {
        fill: #e0f9f6;
      }

      .cls-35 {
        fill: #630405;
      }

      .cls-36 {
        fill: #610404;
      }

      .cls-37 {
        fill: #a3887f;
      }

      .cls-38 {
        fill: #adf4ea;
      }

      .cls-39 {
        fill: #640505;
      }

      .cls-40 {
        fill: #02ba3d;
      }

      .cls-41 {
        fill: #303030;
      }

      .cls-42 {
        fill: #040203;
      }

      .cls-43 {
        fill: #b5f5d9;
      }

      .cls-44 {
        fill: #620505;
      }

      .cls-45 {
        fill: #5f0406;
      }

      .cls-46 {
        fill: #130503;
      }

      .cls-47 {
        fill: #020202;
      }

      .cls-48 {
        fill: #7ad399;
      }

      .cls-49 {
        fill: #741e0a;
      }

      .cls-50 {
        fill: #b2aaaf;
      }

      .cls-51 {
        fill: #f9f9f9;
      }

      .cls-52 {
        fill: #84ec98;
      }

      .cls-53 {
        fill: #f0f0f0;
      }

      .cls-54 {
        fill: #f9f9f5;
      }

      .cls-55 {
        fill: #e6fcec;
      }

      .cls-56 {
        fill: #660203;
      }

      .cls-57 {
        fill: #effbf8;
      }

      .cls-58 {
        fill: #550507;
      }

      .cls-59 {
        fill: #040303;
      }

      .cls-60 {
        fill: #fefefe;
      }

      .cls-61 {
        fill: #030402;
      }

      .cls-62 {
        fill: #610505;
      }

      .cls-63 {
        fill: #4c060a;
      }

      .cls-64 {
        fill: #29fefe;
      }

      .cls-65 {
        fill: #fbf8f3;
      }

      .cls-66 {
        fill: #620405;
      }

      .cls-67 {
        fill: #f3fcec;
      }

      .cls-68 {
        fill: #fc0102;
      }

      .cls-69 {
        fill: #c41a0c;
      }

      .cls-70 {
        fill: #acf6c8;
      }

      .cls-71 {
        fill: #faf9f3;
      }

      .cls-72 {
        fill: #400503;
      }

      .cls-73 {
        fill: #fcfcfc;
      }

      .cls-74 {
        fill: #5f0505;
      }

      .cls-75 {
        fill: #2e0302;
      }

      .cls-76 {
        fill: #f9faf1;
      }

      .cls-77 {
        fill: #450807;
      }

      .cls-78 {
        fill: #aeaeae;
      }

      .cls-79 {
        fill: #570709;
      }

      .cls-80 {
        fill: #050303;
      }

      .cls-81 {
        fill: #08b54a;
      }

      .cls-82 {
        fill: #530708;
      }

      .cls-83 {
        fill: #b00809;
      }

      .cls-84 {
        fill: #7aedeb;
      }

      .cls-85 {
        fill: #f5fbf9;
      }

      .cls-86 {
        fill: #430306;
      }

      .cls-87 {
        fill: #06b93c;
      }

      .cls-88 {
        fill: #6ff1ec;
      }

      .cls-89 {
        fill: #dbfade;
      }

      .cls-90 {
        fill: #fdfcf9;
      }

      .cls-91 {
        fill: #a8b9ad;
      }

      .cls-92 {
        fill: #3a0702;
      }

      .cls-93 {
        fill: #fdfdfd;
      }

      .cls-94 {
        fill: #560509;
      }
    </style>
  </defs>
  <g id="Layer_1-2" data-name="Layer 1">
    <g>
      <path class="cls-28" d="M247.12,1.01c10.46-1.45,21.02-.88,31.55-.99,7.37-.18,14.68,1.05,21.99,1.81,11,1.79,22.21,2.72,32.9,6.12,13.27,2.98,26.18,7.43,38.65,12.82,25.27,9.86,48.48,24.47,69.4,41.62,4.17,4.55,9.5,7.77,13.57,12.42,11.12,10.28,21.03,21.79,29.96,33.99,13.52,17.45,24.03,37.03,32.64,57.29,5.65,12.23,9.06,25.32,12.72,38.25,3.11,14.16,6.31,28.41,6.93,42.96,1.21,7.95.47,16.03.66,24.04.55,21.01-2.6,41.92-7.22,62.37-7.94,29.87-20.03,58.82-37.37,84.5-9.22,12.92-18.63,25.82-29.82,37.13-24.73,26.06-54.94,46.83-87.91,61.03-8.02,3.12-15.9,6.64-24.26,8.77-11.81,4.19-24.09,6.77-36.37,9.08-12.69,2.49-25.68,2.29-38.46,3.7-8.67-.1-17.4.5-26-.87-13.14-.2-26.23-1.84-39.01-4.9-22.27-4.61-43.75-12.57-64.07-22.71-29.95-15.06-56.7-36.09-79.33-60.75-11.1-12.46-21.3-25.74-29.8-40.11-5.49-9.11-10.25-18.63-15.17-28.05-4.42-10.92-9.05-21.8-12.34-33.13-3.11-12.63-6.94-25.14-8.12-38.14-1.39-6.92-1.42-14-2.63-20.94-.31-12.99-.24-25.99-.05-38.98,1.37-8.63,1.78-17.38,3.39-25.98,8.96-53.4,34.67-103.87,72.7-142.41,9.77-9.27,19.53-18.63,30.43-26.58,31.4-23.88,68.34-40.17,106.83-48.5,7.29-1.66,14.76-2.29,22.08-3.79,3.84-.41,7.73-.27,11.53-1.07M226.71,17.01c-13.52,2.69-26.91,6.03-39.97,10.44-6.52,2.5-13.02,5.04-19.54,7.52-5.32,2.75-10.75,5.3-16.23,7.71-12.39,6.59-24.13,14.35-35.52,22.53-10.26,7.92-19.93,16.63-29.09,25.78C45.75,132.54,20.05,188.45,15.33,246.38c-1.28,13.58-2.08,27.37-.34,40.95.18,11.91,1.85,23.81,4.92,35.31,1.42,4.93,1.61,10.13,3.22,15.01,2.87,8.21,4.44,16.87,8.29,24.73,5.25,14.03,12.19,27.4,19.96,40.2,3.3,6.7,8.33,12.31,12.27,18.62,2.2,3.74,5.48,6.66,8.08,10.11,12.65,15.96,27.65,29.92,43.79,42.29,40.41,31.26,90.44,50.65,141.64,52.4.35-5.89-.01-11.81.82-17.67.23-8.19-.64-16.91-5.35-23.87-4.56-7.38-12.55-12.01-20.76-14.22-1.12-2.07-3.13-3.32-5.07-4.53,1.03-.7,2.06-1.4,3.09-2.09,5.75.41,11.52,1.38,16.85,3.66,4.02,1.68,6.15,5.79,9.7,8.14,5.02,3.35,9.59,8.56,9.68,14.9.48,9.68.51,19.38.65,29.07.11,1.4-.03,2.93.69,4.21,2.38,1.56,5.35,1.39,8.07,1.67,1.93-6.48.53-13.3.94-19.93.37-8-1.47-16.83,3.18-23.95,4.54-8.02,12.98-12.48,21.09-16.08,6.72-2.9,14.26-1.64,21.19-3.68,12.75-2.01,26.03-1.99,38.15-6.98,9.31-2.23,17.86-7.49,23.8-15.04-9.27-.69-18.02,3.49-27.29,3.06-6.86-.22-13.09,3.47-19.94,3.33-6.69-.08-13.3.95-19.95,1.46-9.01.34-18.03-.09-27.03.19-4.98.18-9.68,2.19-13.77,4.93-1.81.98-3.81,2.76-5.97,1.69-6.37-1.7-9.76-8.88-16.63-9.38-11.27-1.03-22.63.29-33.88-1.05-10.3-.27-20.49-2.04-30.79-2.31-6.72-.41-13.15-2.86-19.93-2.82-4.32.08-8.45-2.28-12.76-1.26.08,1.05.15,2.11.23,3.17,7.53,3.36,14.17,8.41,21.85,11.49,0,1.19.02,2.4.03,3.6-1.64.78-3.27,1.58-4.89,2.39-9.15-3.53-18.54-7.6-25.14-15.14-4.12-4.07-7.55-8.74-10.29-13.84-1.78-4.23-6.7-5.2-10-7.86-8.33-6.66-14.75-15.91-17.19-26.37-2.7-9.09-1.34-18.67.76-27.73-7.1-4.08-14.13-8.68-19.29-15.14-6.83-7.35-10.82-16.93-12.76-26.66-.54-6.67-.62-13.4.04-20.05,2.16-11.13,8.06-21.32,15.93-29.4,4.35-4.52,9.98-7.45,15.12-10.95-2.3-6.64-1.99-13.75-1.8-20.66,1.32-12.18,5.36-24.33,13.19-33.92,9.89-12.78,24.95-21.53,40.99-23.59,8.42-.44,17.04-.9,25.31,1.16,3.23-14.73,8.46-29.42,17.87-41.42,12.26-16.22,29.84-28.51,49.6-33.62,10.4-3.3,21.44-3.06,32.22-2.68,27.74,2.52,53.91,18.8,68.39,42.63,7,11.57,11.9,24.64,13.18,38.13,7.09-1.05,14.34-1.98,21.44-.37,23.48,3.34,43.82,23.91,45.54,47.76.21,8.03.65,16.26-1.77,24.04-.3,2.06-1.75,5.14.92,6.19,10.8,5.76,19.29,15.25,24.46,26.28,5.77,13.63,6.42,29.83.06,43.38-3.64,10.17-11.39,18.03-19.41,24.94-3.14,2.27-6.58,4.11-9.63,6.51,5.17,17.55.69,38.27-13.27,50.6-3.43,3.95-9.27,5.28-11.68,10.16-4.47,7.92-10.38,15.15-17.98,20.23-8.47,5.82-18.41,8.76-28,12.11-10.95,3.76-22.66,3.75-33.87,6.36-7.46,1.89-15.63,1.28-22.52,5.12-8.98,4.41-15.59,13.91-15.48,24.07-.15,8.57.04,17.15-.05,25.72,14.74.47,29.21-3.03,43.48-6.31,29.91-7.26,58.28-20.41,83.51-37.99,19.35-12.88,36.03-29.39,51.09-47,8.45-9.81,15.65-20.62,22.4-31.63,7.99-13.83,15.28-28.13,20.51-43.25,5.55-15.06,10.02-30.58,12.26-46.49,1.47-6.27,1.63-12.74,2.77-19.05.53-15.34.53-30.71.03-46.05-2.1-16.11-4.32-32.34-9.32-47.86-4.39-16.38-10.88-32.17-18.71-47.2-1.67-3.93-3.57-7.78-6-11.31-8.31-14.54-18.7-27.73-29.49-40.49-5.92-6.43-11.54-13.2-18.36-18.72-9.24-8.56-18.92-16.73-29.48-23.61-7.34-5.57-15.78-9.42-23.58-14.29-6.21-2.71-12.23-5.8-18.34-8.72-9.15-3.46-18.33-6.85-27.59-10.03-11.68-3.36-23.57-5.99-35.54-8.09-7.08.02-13.94-2.22-21.03-1.97-12.65-.52-25.31-.34-37.94.19-7.31,1.17-14.67,1.94-22.01,2.79M260.97,122.97c-11.11,2.83-21.96,7.48-30.83,14.84-15.21,11.77-25.08,29.73-28.16,48.6-.14,2.12-.43,4.35.21,6.43,1.94,2.06,4.03,4.02,5.63,6.38l.3.69c1.02,3.01,1.19,6.18,1.09,9.34-3.9-.48-6.48-3.8-9.82-5.53-18.52-11.31-43.52-8.03-60.28,5.04-11.37,8.91-19.27,22.18-21.09,36.54-.26,5.94-.17,11.88.07,17.82,6.06-1.75,12.56-1.86,18.5.41-3.15,3.01-7.48,4.28-10.86,7.01-8.3,5.4-14.49,14.66-15.86,24.56,9.01-.98,17.36-4.75,25.9-7.53,10.09-3.98,20.11-8.2,29.76-13.17,8.99-4.9,18.26-9.5,26.3-15.9,2.53-2.1,6.05-1.82,8.92-3.2,5.88-2.74,11.92-5.1,17.88-7.67,3.79-1.69,8.11-2.27,11.53-4.7,1.79-3.81,1.84-8.24,3.25-12.21.61,1.99,1.21,3.97,1.82,5.97-1.2,3.68-2.93,7.16-5.15,10.32,6.83,2.14,14.14,1.78,20.96,3.98,2.1.53,4.21,1.3,6.41,1.16,3.75,2.24,7.8,3.98,11.97,5.28,2.58.79,5.59,1.11,7.94-.51,5.3-3.33,10.55-6.77,16.07-9.73,4.62-2.48,10.32-3.08,14.01-7.13,4.87.54,9.2-2.09,13.85-3.01,2.74-.64,5.58-.88,8.28-1.73,2.03-.19,4.06-.42,6.09-.68-.54-1.43-1.07-2.86-1.6-4.29,3.65-.19,7.3-.43,10.94-.8,8.37.81,16.71,2.75,24.36,6.29l.76-.33c6.17,3.59,13.04,5.73,19.33,9.09,11.96,5.36,23.25,12.06,35.03,17.78,3.19-8.96,3.22-18.91.19-27.91-3.9-13.95-15.14-25.24-28.58-30.29-2.01-.83-4.15-1.31-6.32-1.38-.93-.55-1.92-1.02-3.02-.92-4.87-.1-9.8-.48-14.64.27-4.4,1.28-8.89,2.46-12.93,4.68-3.48,2.24-6.73,4.82-10.2,7.08.11-2.13.42-4.24.91-6.32,4.11-22.05-3.75-45.38-18.59-61.9-5.9-6.65-13.34-11.7-21-16.1-11.32-5.75-24.02-8.42-36.68-8.48-4.24.41-8.4,1.45-12.65,1.86M273.46,262.23c-14.24-7.43-30.46-11.7-46.59-10.41-3.86,1.01-7.31,3.12-11.06,4.43-4.6,1.68-9.17,3.46-13.52,5.73-2.88,1.64-6.72,1.31-9.13-1.02.48,3.22-1.26,6.18-3.34,8.49-5.77,3.73-12.2,6.31-18.12,9.8-7.49,3.86-14.91,7.85-22.43,11.65-7.69,4.79-16.87,5.86-25.3,8.78-5.48.31-10.56,2.69-16.01,3.24-1.84-1.11-3.65-2.23-5.43-3.4-3.59-2.09-5.24-6.11-7.22-9.55-2.86,4.07-4.9,8.68-6.55,13.35-2.03,8.53-1.67,17.65-.09,26.26,2.56,7.03,6.07,13.82,11,19.5l.62-.08c5.67,6.62,12.87,11.57,20.48,15.69-.01.27-.05.81-.07,1.08-3.96,7.27-3.33,16.16-1.78,24.03,3.04,14.74,13.31,28.36,27.65,33.64,10.3,4.2,21.56,4.61,32.24,7.35,23.96,4.68,48.48,5.68,72.84,4.94,7.65-.28,14.01,4.33,19.98,8.43,2.88-1.78,5.44-4.08,8.6-5.37,2.31-1.07,4.96-1.49,6.89-3.27,4.14.78,8.43.18,12.57,1.16,8.63.78,17.39.43,25.97-.76,4.74-.24,9.56.21,14.21-1.02,2.17,0,4.2-.84,6.22-1.52.13.38.4,1.12.53,1.5,9.6-1.26,19.09-3.28,28.71-4.29l-.07-.72c10.65-.33,21.28-3.09,30.49-8.52,10.19-6.14,16.99-17.02,19.42-28.53,1.85-4.97.99-10.35,1.22-15.52.27-3.74-1.23-7.25-1.7-10.9,15.61-7.8,28.03-22.71,31.25-40.05.39-5.66.47-11.38-.05-17.03-1.19-6.18-3.54-12.1-6.64-17.56h-.66c-1.18-2.33-3.91-2.55-6.16-3.04-5.85-1.09-11.85-1.2-17.76-.67-5.94.59-11.58,3.55-17.61,2.98-2.9-.23-3.56-4.14-1.77-6,2.53-2.73,6.49-3.18,9.95-3.87,3.77.73,7.62.46,11.44.44,4.7-.07,9.39.44,14.1.2-1.98-.64-3.94-1.5-6.03-1.66-.52-1.36-.36-3.34-2.07-3.82-6.66-3.16-14.58.48-21-3.46.8-1.41,1.64-2.81,2.33-4.28,1.36,2.61,3.95.58,5.39-.77-1.78-1.04-3.53-2.11-5.3-3.15l-.02.84c-1.85-1.08-3.66-2.21-5.47-3.33-3.35-2.7-7.4-4.24-11.07-6.39-9.56-5.7-20.39-8.76-29.96-14.46-10.91-4.83-23.05-6.52-34.91-5.53-20.98,5.57-41.3,14.07-59.21,26.44h0Z"/>
      <path class="cls-90" d="M226.71,17.01c7.34-.85,14.7-1.62,22.01-2.79,12.63-.53,25.29-.71,37.94-.19,7.09-.25,13.95,1.99,21.03,1.97,11.97,2.1,23.86,4.73,35.54,8.09,9.26,3.18,18.44,6.57,27.59,10.03,6.11,2.92,12.13,6.01,18.34,8.72,7.8,4.87,16.24,8.72,23.58,14.29,10.56,6.88,20.24,15.05,29.48,23.61,6.82,5.52,12.44,12.29,18.36,18.72,10.79,12.76,21.18,25.95,29.49,40.49,2.43,3.53,4.33,7.38,6,11.31,7.83,15.03,14.32,30.82,18.71,47.2,5,15.52,7.22,31.75,9.32,47.86.5,15.34.5,30.71-.03,46.05-1.14,6.31-1.3,12.78-2.77,19.05-2.24,15.91-6.71,31.43-12.26,46.49-5.23,15.12-12.52,29.42-20.51,43.25-6.75,11.01-13.95,21.82-22.4,31.63-15.06,17.61-31.74,34.12-51.09,47-25.23,17.58-53.6,30.73-83.51,37.99-14.27,3.28-28.74,6.78-43.48,6.31.09-8.57-.1-17.15.05-25.72-.11-10.16,6.5-19.66,15.48-24.07,6.89-3.84,15.06-3.23,22.52-5.12,11.21-2.61,22.92-2.6,33.87-6.36,9.59-3.35,19.53-6.29,28-12.11,7.6-5.08,13.51-12.31,17.98-20.23,2.41-4.88,8.25-6.21,11.68-10.16,13.96-12.33,18.44-33.05,13.27-50.6,3.05-2.4,6.49-4.24,9.63-6.51,8.02-6.91,15.77-14.77,19.41-24.94,6.36-13.55,5.71-29.75-.06-43.38-5.17-11.03-13.66-20.52-24.46-26.28-2.67-1.05-1.22-4.13-.92-6.19,2.42-7.78,1.98-16.01,1.77-24.04-1.72-23.85-22.06-44.42-45.54-47.76-7.1-1.61-14.35-.68-21.44.37-1.28-13.49-6.18-26.56-13.18-38.13-14.48-23.83-40.65-40.11-68.39-42.63-10.78-.38-21.82-.62-32.22,2.68-19.76,5.11-37.34,17.4-49.6,33.62-9.41,12-14.64,26.69-17.87,41.42-8.27-2.06-16.89-1.6-25.31-1.16-16.04,2.06-31.1,10.81-40.99,23.59-7.83,9.59-11.87,21.74-13.19,33.92-.19,6.91-.5,14.02,1.8,20.66-5.14,3.5-10.77,6.43-15.12,10.95-7.87,8.08-13.77,18.27-15.93,29.4-.66,6.65-.58,13.38-.04,20.05,1.94,9.73,5.93,19.31,12.76,26.66,5.16,6.46,12.19,11.06,19.29,15.14-2.1,9.06-3.46,18.64-.76,27.73,2.44,10.46,8.86,19.71,17.19,26.37,3.3,2.66,8.22,3.63,10,7.86,2.74,5.1,6.17,9.77,10.29,13.84,6.6,7.54,15.99,11.61,25.14,15.14,7.9,2.68,15.85,5.43,24.11,6.77,11.52,1.89,22.97,4.28,34.6,5.37,8.21,2.21,16.2,6.84,20.76,14.22,4.71,6.96,5.58,15.68,5.35,23.87-.83,5.86-.47,11.78-.82,17.67-51.2-1.75-101.23-21.14-141.64-52.4-16.14-12.37-31.14-26.33-43.79-42.29-2.6-3.45-5.88-6.37-8.08-10.11-3.94-6.31-8.97-11.92-12.27-18.62-7.77-12.8-14.71-26.17-19.96-40.2-3.85-7.86-5.42-16.52-8.29-24.73-1.61-4.88-1.8-10.08-3.22-15.01-3.07-11.5-4.74-23.4-4.92-35.31-1.74-13.58-.94-27.37.34-40.95,4.72-57.93,30.42-113.84,71.03-155.39,9.16-9.15,18.83-17.86,29.09-25.78,11.39-8.18,23.13-15.94,35.52-22.53,5.48-2.41,10.91-4.96,16.23-7.71,6.52-2.48,13.02-5.02,19.54-7.52,13.06-4.41,26.45-7.75,39.97-10.44M248.73,30.93c-6.61-.16-13.06,1.37-19.59,2.11l.95.04c-.34,3.43-.03,6.89.63,10.26.84,4.52.05,9.18.95,13.69.46,2.36.41,4.76.74,7.13-.17,4.64.04,9.29.93,13.85,12.7.47,25.23-1.9,37.88-2.27,2.76-.34,1.55-3.62,1.27-5.43-.53-1.76.14-4.34-1.96-5.17-4-.31-7.86,1.09-11.8,1.47-4.14.33-8.29.19-12.42.3-.53-2.43-1.61-4.94-.88-7.45.98-.83,2.08-1.66,3.46-1.56,6.16-.15,12.28-1.04,18.45-1.14-.13-3.35.16-6.85-1.27-9.99-7.14,1.77-14.61,1.32-21.88,2.16-.06-2.49-.22-5,.11-7.48,4.98-1.49,10.25-1.53,15.4-1.74,3.2-.43,6.39-.88,9.61-1.04.07-3.35-.51-6.65-1.46-9.85-3.74.26-7.46.9-11.22.87-2.7,0-5.18,1.38-7.9,1.24M287.4,30.77c-1.27,8.28-1.87,16.66-3.34,24.91-.64,6.37-2.18,12.62-2.22,19.04,5.63,2.43,11.89,2.54,17.82,3.87,4.44.94,9.02,1.08,13.4,2.27.95-3.53,1.48-7.17,1.41-10.83-5.19-.64-10.4-1.23-15.54-2.16-1.79-.09-3.23-1.71-2.63-3.51,1.77-10.74,2.35-21.68,4.88-32.29-4.15-.76-8.3-1.65-12.49-2.18-.33.22-.97.66-1.29.88M338.92,39.52c-3.75,7.63-5.93,15.88-9.64,23.53-2.04,5.94-4.7,11.63-7.16,17.41,3.35,4.81,9.68,5.34,14.66,7.63,6.86,3.17,14.09,5.47,20.95,8.66,2.17-2.73,3.96-5.95,3.75-9.55-7.2-2.5-14.03-5.9-21.19-8.49-2.83-1.8-.15-5.46.1-7.96,7.92-.59,14.33,5.66,22.02,6.59,1.01-2.65,2.02-5.29,2.9-7.99-5.27-2.37-10.52-4.86-16.06-6.52-1.65-.45-3.04-1.45-4.41-2.41.72-1.96,1.36-3.94,2.08-5.89,8.99-.41,16.31,6.1,24.93,7.7,1.18-2.98,2.44-5.98,2.55-9.23-11.84-4.46-23.58-9.19-35.48-13.48M192.96,42.7c-5.95,2.21-12.17,3.66-17.95,6.36,2.62,7.51,5.04,15.09,7.73,22.58,1.94,7.26,4.57,14.3,7.07,21.38,6.05-2.23,12.1-4.49,18.25-6.44,4.67-1.53,9.64-3.15,12.95-7,1.95-2.37,4.5-4.89,4.13-8.23.27-6.59-5.2-11.87-11.12-13.83,1.27-2.88,2.71-5.99,1.9-9.22-1.25-3.1-3.05-6.53-6.5-7.55-5.47-2.45-11.18.42-16.46,1.95M392.02,63.45c.02.59.04,1.78.06,2.38-8.9,11.21-17.15,22.91-25.3,34.67,5.24,4.69,11,8.81,16.78,12.81,5.39,3.91,12.64,4.54,18.9,2.66,8.47-3.64,14.38-12.01,16.1-20.95,1.12-5.15-.69-10.61-3.82-14.72-4.73-5.05-10.42-9.07-16.02-13.06-1.64-2.16-3.85-3.89-6.7-3.79M106.64,96.31c-4.02,3.97-8.22,7.8-11.93,12.06-2.18,1.68-4.95,3.16-5.73,6.01.68,1.41,2.17,2.12,3.36,3.02,9.61,9.17,18.28,19.25,27.82,28.48.34.06,1,.17,1.34.22,2.6-1.58,4.43-4.27,6.87-6.14,1.35-.72,1.27-2.63.34-3.64-2.96-3.29-6.62-6.24-8.66-10.18,1.55-3.67,5.66-6.62,9.64-7.25,4.54.85,7.55,4.59,11.15,7.12,3.96-1.52,6.47-5.67,9.57-8.52-4.78-3.67-8.91-8.56-14.86-10.38-2.63-.71-5.02.9-6.6,2.85,1.62-3.2,1.53-6.91,1.29-10.39-.99-4.55-4.98-8.38-9.69-8.85-5.28-.98-10.31,1.98-13.91,5.59M429.75,102.34c2.72,2.67,5.29,5.47,7.96,8.19,1.83-1.69,5.09-2.95,4.73-5.94-2.1-3.11-5.07-5.49-7.67-8.16-1.71,1.94-3.41,3.89-5.02,5.91M402.04,129.41c2.61,2.79,5.33,5.47,7.91,8.3,2.91-2.07,5.46-4.59,7.92-7.17,5.15-5.02,10.59-9.75,15.35-15.17-2.55-3.11-5.16-6.2-8.38-8.64-7.78,7.37-15.41,14.91-22.8,22.68M448.67,110.39c-3.68,9.04-7.96,17.83-12.17,26.63-2.42,6.1-9.2,8.31-13.47,12.78-.9,4.76,3.85,7.87,5.8,11.71,4.86-2.55,8.64-6.69,13.45-9.3,4.06-1.03,8.23-1.47,12.41-1.64,6.71-1.04,13.48-1.7,20.16-2.96-1.1-3.4-3.61-6.03-5.41-9.05-.92-1.17-1.62-3.49-3.55-2.78-5.94,1.12-11.72,3.15-17.79,3.51,2.27-6.11,6.92-10.97,9.59-16.87-2.59-4.28-5.34-8.6-9.02-12.03M71.07,139.46c5.69,4.15,11.49,8.15,17.32,12.09,7.15,4.46,13.57,10.15,21.14,13.87,2.28-3.52,4.87-6.85,6.98-10.48-12.75-8.66-25.64-17.1-38.12-26.14-2.5,3.51-5.06,6.99-7.32,10.66M469.84,158.38c-10.99,5.01-22.27,9.37-33.1,14.69,4.59,12.41,9.97,24.53,14.92,36.8,3.3-1.3,6.53-2.76,9.68-4.42-1.95-8.4-7.91-15.57-8.46-24.3,2.04-1.02,4.1-2.05,6.27-2.81,3.21,6.41,5.49,13.22,8.37,19.77,3.24-.27,6.17-1.77,9.06-3.15-1.47-7.13-5.84-13.27-7.65-20.33,1.71-1.5,3.69-2.63,5.95-3.06,2.23,3.49,3.22,7.56,5.23,11.17,2.08,3.61,2.83,7.81,5.03,11.37,3.6-.37,6.66-2.46,9.94-3.8-5.35-11.74-10.71-23.5-15.4-35.51-3.6.07-6.58,2.35-9.84,3.58M60.26,160.91c-5.52,7.45-8.45,16.41-12.34,24.75,13.87,6.72,27.71,13.56,41.9,19.57,3.26-6.92,6.47-13.88,9.25-21.01.6-5.72,1.43-12.21-2.12-17.2-4.55-6.81-12.51-10.37-20.3-11.94-5.94-.63-12.02,1.89-16.39,5.83M479.93,211.55c-6.09,6.19-4.7,15.48-6.9,23.2-.32,2-1.9,3.31-3.34,4.55-2.91-2.01-5-5.3-4.43-8.95-.36-3.34,3.7-4.44,4.85-7.07-.07-4.07-1.55-7.94-2.11-11.95-6.89.78-12.88,6.94-12.91,13.98-.29,8.13,1.16,17.39,7.64,22.98,5.47,5.36,15.79,4.74,20.09-1.74,4.11-6.96,2.36-15.66,5.25-22.87,1.94-4.02,6.34-.34,6.14,2.93.98,3.39-1.89,5.87-3.18,8.67.14,4.01,1.23,7.89,2.38,11.71,3.1-1.24,6.78-2.19,8.4-5.45,3.42-4.62,2.47-10.66,2.15-16.02-1.47-6.72-4.47-15.12-12.14-16.59-4-1.61-8.65.08-11.89,2.62M62.39,209.6c-.96,5.99-2.4,11.95-2.41,18.06,2.93.44,5.84.94,8.78,1.34.35-1.92.76-3.83,1.33-5.69,7.38,3.57,5.12,16.23-2.8,17.53-4.33,1.92-8.96.33-13.21-.92-4.68-1.93-8.73-7.78-5.84-12.72.85-3.06,3.8-4.17,6.59-4.83.24-4.25,1.4-8.39,1.29-12.66-6.58-.52-12.82,3.47-16.15,8.96-3.28,5.63-3.35,12.38-2.63,18.68,1.26,5.65,5.44,9.99,9.86,13.45,7.82,4.7,18.12,5.54,26.46,1.77,6.35-3.67,11.29-10.64,10.75-18.23.56-4.29-1.25-8.17-2.68-12.07,1.34-.47,3.77.1,4.12-1.79.66-2.39,2.76-6.31-.63-7.52-7.66-.78-15.15-2.83-22.83-3.36M23.8,215.55c2.19,2.75,5.1,5.24,5.83,8.84,1.11,3.67-.35,7.39-1.6,10.82.96-.17,1.93-.34,2.9-.51,2.33-3.55,3.22-8.09,1.62-12.11-1.63-3.47-4.56-7.1-8.75-7.04M459.26,258.98c-.23,4.02-.21,8.06.27,12.07,10.91-.01,21.83.12,32.74-.26-.11-3.99-.04-7.98-.07-11.97-10.98-.04-21.96.25-32.94.16M497.38,258.89c-.21,4.04-.23,8.09.12,12.12,2.92.08,5.84.02,8.75-.33-.1-3.96-.17-7.93-.12-11.9-2.92-.05-5.84-.03-8.75.11M35.08,262.93c.15,3.82-.12,7.64.19,11.45.33.33.99,1,1.33,1.33,14.77.09,29.54.08,44.32-.04.12-4.54.05-9.09,0-13.63-13.42.02-26.85.14-40.28.04-1.9-.11-3.75.34-5.56.85M334.96,478.59c-1.63,2.42-3.38,5.47-1.94,8.4,2.8-.32,6.8.1,8.26-2.87,1.31-2.88,5.42-4.31,7.76-1.72.96,3.1-2.85,4.15-4.85,5.5.03,1.64.06,3.29.07,4.95,2.36.13,4.74.32,7.07.84-.1,1.59.07,3.27-.54,4.79-1.89,1.65-4.75,1.79-6.99.86-.94-1.1-1.02-2.95-2.32-3.65-2.79.11-6.11-.26-7.74,2.52,1.32,2.27,2.79,4.52,4.88,6.17,2.1,2.11,5.35,1.52,8.05,1.68,5.05.17,10.93-1.89,13.01-6.88,1.92-4.28.02-10.16-4.73-11.52,1.71-2.58,3.23-6.04,1.33-8.94-1-2.26-3.3-3.59-5.64-4.04-5.43-.64-11.7-.33-15.68,3.91M203.67,483.75c-2.17.33-4.35.14-6.51-.06-.34,2.02-.76,4.03-1.19,6.04,2.33.89,4.72,1.65,7.15,2.25-1.69,5.51-3.06,11.23-3.16,17.02,2.53.8,5.12,1.36,7.71,1.95,1.54-3.43,2.02-7.17,2.87-10.79,1.32-6.4,3.53-12.66,3.84-19.23-2.12-.43-4.2-1.1-6.36-1.26-1.82.82-2.5,3.17-4.35,4.08M303.37,484.1c-4.38,3.03-5.8,9.03-3.81,13.86,2.81-.87,5.65-1.64,8.47-2.45.29-1.87-.64-4.45,1.32-5.62,1.42-1.43,4.39-1.75,5.75-.11.44,1.98.83,4.51-.83,6.05-3.84,3.97-7.57,8.09-10.61,12.72-.88,2.4-.93,5.34.51,7.57,7.9-2.64,16.15-3.87,24.32-5.33.69-2.4-.13-4.78-.59-7.12-4.25-.2-8.25,1.29-12.38,1.96,1.79-5.09,8.51-7.47,8.73-13.31.78-4.71-2.79-9.56-7.48-10.32-4.5-.95-9.35.03-13.4,2.1M225.63,485.32c-3.13,1.84-6.03,5.17-5.54,9.03-.47,4.15,2.91,7.3,5.79,9.77,2.77,2.52,6.74,1.63,10.13,1.67-1.32,1.47-2.59,3.04-4.32,4.06-2.36.43-4.01-1.56-5.83-2.67-2.26-1.78-5.31-1.44-7.99-1.56.49,2.33,1.16,4.83,3.26,6.26,4.87,3.67,12.06,5.59,17.65,2.42,8.06-5.53,11.16-18.59,3.92-26.02-4.52-3.94-11.54-6.06-17.07-2.96h0Z"/>
      <path class="cls-10" d="M248.73,30.93c2.72.14,5.2-1.24,7.9-1.24,3.76.03,7.48-.61,11.22-.87.95,3.2,1.53,6.5,1.46,9.85-3.22.16-6.41.61-9.61,1.04-5.15.21-10.42.25-15.4,1.74-.33,2.48-.17,4.99-.11,7.48,7.27-.84,14.74-.39,21.88-2.16,1.43,3.14,1.14,6.64,1.27,9.99-6.17.1-12.29.99-18.45,1.14-1.38-.1-2.48.73-3.46,1.56-.73,2.51.35,5.02.88,7.45,4.13-.11,8.28.03,12.42-.3,3.94-.38,7.8-1.78,11.8-1.47,2.1.83,1.43,3.41,1.96,5.17.28,1.81,1.49,5.09-1.27,5.43-12.65.37-25.18,2.74-37.88,2.27-.89-4.56-1.1-9.21-.93-13.85.72,1.48,1.52,2.92,2.34,4.35,1.24-10.22-2.8-20.36-1.57-30.59.94-2.19,3.48-3.15,5.28-4.55-2.79-.05-5.58-.16-8.37-.29l-.95-.04c6.53-.74,12.98-2.27,19.59-2.11h0Z"/>
      <path class="cls-36" d="M287.4,30.77c.32-.22.96-.66,1.29-.88,4.19.53,8.34,1.42,12.49,2.18-2.53,10.61-3.11,21.55-4.88,32.29-.6,1.8.84,3.42,2.63,3.51,5.14.93,10.35,1.52,15.54,2.16.07,3.66-.46,7.3-1.41,10.83-4.38-1.19-8.96-1.33-13.4-2.27-5.93-1.33-12.19-1.44-17.82-3.87.04-6.42,1.58-12.67,2.22-19.04,1.47-8.25,2.07-16.63,3.34-24.91h0Z"/>
      <path class="cls-72" d="M230.09,33.08c2.79.13,5.58.24,8.37.29-1.8,1.4-4.34,2.36-5.28,4.55-1.23,10.23,2.81,20.37,1.57,30.59-.82-1.43-1.62-2.87-2.34-4.35-.33-2.37-.28-4.77-.74-7.13-.9-4.51-.11-9.17-.95-13.69-.66-3.37-.97-6.83-.63-10.26h0Z"/>
      <path class="cls-21" d="M338.92,39.52c11.9,4.29,23.64,9.02,35.48,13.48-.11,3.25-1.37,6.25-2.55,9.23-8.62-1.6-15.94-8.11-24.93-7.7-.72,1.95-1.36,3.93-2.08,5.89,1.37.96,2.76,1.96,4.41,2.41,5.54,1.66,10.79,4.15,16.06,6.52-.88,2.7-1.89,5.34-2.9,7.99-7.69-.93-14.1-7.18-22.02-6.59-.25,2.5-2.93,6.16-.1,7.96,7.16,2.59,13.99,5.99,21.19,8.49.21,3.6-1.58,6.82-3.75,9.55-6.86-3.19-14.09-5.49-20.95-8.66-4.98-2.29-11.31-2.82-14.66-7.63,2.46-5.78,5.12-11.47,7.16-17.41,3.71-7.65,5.89-15.9,9.64-23.53M60.26,160.91c4.37-3.94,10.45-6.46,16.39-5.83,7.79,1.57,15.75,5.13,20.3,11.94,3.55,4.99,2.72,11.48,2.12,17.2-2.78,7.13-5.99,14.09-9.25,21.01-14.19-6.01-28.03-12.85-41.9-19.57,3.89-8.34,6.82-17.3,12.34-24.75M68.95,169.62c-2.86,1.63-4.63,4.71-5.71,7.73-.08,1.51,1.72,1.98,2.73,2.67,6.6,3.34,13.3,6.49,20.16,9.26,1.62-3.82,3.09-8.07,1.76-12.2-3.24-6.82-11.92-10.16-18.94-7.46h0Z"/>
      <path class="cls-35" d="M192.96,42.7c5.28-1.53,10.99-4.4,16.46-1.95,3.45,1.02,5.25,4.45,6.5,7.55.81,3.23-.63,6.34-1.9,9.22,5.92,1.96,11.39,7.24,11.12,13.83.37,3.34-2.18,5.86-4.13,8.23-3.31,3.85-8.28,5.47-12.95,7-6.15,1.95-12.2,4.21-18.25,6.44-2.5-7.08-5.13-14.12-7.07-21.38-2.69-7.49-5.11-15.07-7.73-22.58,5.78-2.7,12-4.15,17.95-6.36M190.89,53.23c-.26,3.2,1.21,6.07,2.5,8.88,3.7-1.82,8.5-2.2,11.1-5.7-.06-1.6-.32-3.18-.54-4.76-4.46-.51-8.68,1.15-13.06,1.58M196.23,71.31c-.07,2.86,1.42,5.45,2.68,7.92,4.27-1.91,9.72-2.24,12.79-6.13,1.67-2.71-.98-4.95-2.87-6.55-4.13,1.73-9.04,1.92-12.6,4.76h0Z"/>
      <path class="cls-8" d="M190.89,53.23c4.38-.43,8.6-2.09,13.06-1.58.22,1.58.48,3.16.54,4.76-2.6,3.5-7.4,3.88-11.1,5.7-1.29-2.81-2.76-5.68-2.5-8.88h0Z"/>
      <path class="cls-37" d="M392.02,63.45c2.85-.1,5.06,1.63,6.7,3.79-2.19-.62-4.41-1.04-6.64-1.41-.02-.6-.04-1.79-.06-2.38h0Z"/>
      <path class="cls-39" d="M392.08,65.83c2.23.37,4.45.79,6.64,1.41,5.6,3.99,11.29,8.01,16.02,13.06,3.13,4.11,4.94,9.57,3.82,14.72-1.72,8.94-7.63,17.31-16.1,20.95-6.26,1.88-13.51,1.25-18.9-2.66-5.78-4-11.54-8.12-16.78-12.81,8.15-11.76,16.4-23.46,25.3-34.67M387.37,94.01c-1.59,2.53-4.13,4.69-4.44,7.82,2.75,1.61,5.64,3.04,8.77,3.75,7.57-.21,13.17-7.32,14.47-14.3.59-5.25-3.46-9.3-7.69-11.64-4.26,4.33-7.45,9.55-11.11,14.37h0Z"/>
      <path class="cls-76" d="M196.23,71.31c3.56-2.84,8.47-3.03,12.6-4.76,1.89,1.6,4.54,3.84,2.87,6.55-3.07,3.89-8.52,4.22-12.79,6.13-1.26-2.47-2.75-5.06-2.68-7.92h0Z"/>
      <path class="cls-71" d="M387.37,94.01c3.66-4.82,6.85-10.04,11.11-14.37,4.23,2.34,8.28,6.39,7.69,11.64-1.3,6.98-6.9,14.09-14.47,14.3-3.13-.71-6.02-2.14-8.77-3.75.31-3.13,2.85-5.29,4.44-7.82h0Z"/>
      <path class="cls-44" d="M106.64,96.31c3.6-3.61,8.63-6.57,13.91-5.59,4.71.47,8.7,4.3,9.69,8.85.24,3.48.33,7.19-1.29,10.39,1.58-1.95,3.97-3.56,6.6-2.85,5.95,1.82,10.08,6.71,14.86,10.38-3.1,2.85-5.61,7-9.57,8.52-3.6-2.53-6.61-6.27-11.15-7.12-3.98.63-8.09,3.58-9.64,7.25,2.04,3.94,5.7,6.89,8.66,10.18.93,1.01,1.01,2.92-.34,3.64-2.44,1.87-4.27,4.56-6.87,6.14-.34-.05-1-.16-1.34-.22-9.54-9.23-18.21-19.31-27.82-28.48.78-3.01,1.48-6.04,2.37-9.03,3.71-4.26,7.91-8.09,11.93-12.06M105.63,112.34c2.2,2.4,4.55,4.65,6.93,6.86,2.88-2.8,6.08-5.52,7.73-9.28,1.06-3.16-2.2-6.92-5.49-5.74-3.77,1.77-6.18,5.39-9.17,8.16h0Z"/>
      <path class="cls-27" d="M429.75,102.34c1.61-2.02,3.31-3.97,5.02-5.91,2.6,2.67,5.57,5.05,7.67,8.16.36,2.99-2.9,4.25-4.73,5.94-2.67-2.72-5.24-5.52-7.96-8.19h0Z"/>
      <path class="cls-65" d="M105.63,112.34c2.99-2.77,5.4-6.39,9.17-8.16,3.29-1.18,6.55,2.58,5.49,5.74-1.65,3.76-4.85,6.48-7.73,9.28-2.38-2.21-4.73-4.46-6.93-6.86h0Z"/>
      <path class="cls-31" d="M402.04,129.41c7.39-7.77,15.02-15.31,22.8-22.68,3.22,2.44,5.83,5.53,8.38,8.64-4.76,5.42-10.2,10.15-15.35,15.17-2.46,2.58-5.01,5.1-7.92,7.17-2.58-2.83-5.3-5.51-7.91-8.3h0Z"/>
      <path class="cls-11" d="M88.98,114.38c.78-2.85,3.55-4.33,5.73-6.01-.89,2.99-1.59,6.02-2.37,9.03-1.19-.9-2.68-1.61-3.36-3.02h0Z"/>
      <path class="cls-66" d="M448.67,110.39c3.68,3.43,6.43,7.75,9.02,12.03-2.67,5.9-7.32,10.76-9.59,16.87,6.07-.36,11.85-2.39,17.79-3.51,1.93-.71,2.63,1.61,3.55,2.78,1.8,3.02,4.31,5.65,5.41,9.05-6.68,1.26-13.45,1.92-20.16,2.96-4.18.17-8.35.61-12.41,1.64-4.81,2.61-8.59,6.75-13.45,9.3-1.95-3.84-6.7-6.95-5.8-11.71,4.27-4.47,11.05-6.68,13.47-12.78,4.21-8.8,8.49-17.59,12.17-26.63M469.84,158.38c3.26-1.23,6.24-3.51,9.84-3.58,4.69,12.01,10.05,23.77,15.4,35.51-3.28,1.34-6.34,3.43-9.94,3.8-2.2-3.56-2.95-7.76-5.03-11.37-2.01-3.61-3-7.68-5.23-11.17-2.26.43-4.24,1.56-5.95,3.06,1.81,7.06,6.18,13.2,7.65,20.33-2.89,1.38-5.82,2.88-9.06,3.15-2.88-6.55-5.16-13.36-8.37-19.77-2.17.76-4.23,1.79-6.27,2.81.55,8.73,6.51,15.9,8.46,24.3-3.15,1.66-6.38,3.12-9.68,4.42-4.95-12.27-10.33-24.39-14.92-36.8,10.83-5.32,22.11-9.68,33.1-14.69h0Z"/>
      <path class="cls-15" d="M260.97,122.97c4.25-.41,8.41-1.45,12.65-1.86,12.66.06,25.36,2.73,36.68,8.48,7.66,4.4,15.1,9.45,21,16.1,14.84,16.52,22.7,39.85,18.59,61.9-.49,2.08-.8,4.19-.91,6.32,3.47-2.26,6.72-4.84,10.2-7.08,4.04-2.22,8.53-3.4,12.93-4.68,4.84-.75,9.77-.37,14.64-.27,1.1-.1,2.09.37,3.02.92-7.96.1-16.18-.31-23.72,2.66-6.64,2.07-11.67,7.12-17.91,9.99-.41-5.76-.01-11.52.47-17.26.62-6.79-1.14-13.47-2.73-20.02-3.86-14.43-11.73-28.29-23.97-37.19-1.29-.97-2.62-1.88-3.94-2.79-2.25-2.2-4.54-4.47-7.45-5.79-5.89-2.8-11.88-5.65-18.38-6.73-8.26-1.45-16.78-2.73-25.11-1.1-7.58,1.49-15.34,3.03-22.13,6.88-6.46,3.7-13.06,7.45-18.31,12.82-5.61,5.28-9.87,11.76-13.81,18.33-3.21,5.35-4.77,11.44-6.69,17.32-.95,3.3-2.14,6.78-1.37,10.25.68,3.13,1.92,6.09,3.1,9.05-1.6-2.36-3.69-4.32-5.63-6.38-.64-2.08-.35-4.31-.21-6.43,3.08-18.87,12.95-36.83,28.16-48.6,8.87-7.36,19.72-12.01,30.83-14.84h0Z"/>
      <path class="cls-24" d="M267.03,124.57c8.33-1.63,16.85-.35,25.11,1.1,6.5,1.08,12.49,3.93,18.38,6.73,2.91,1.32,5.2,3.59,7.45,5.79-10.65-5.01-21.12-11.92-33.26-12.13-9.62-.38-19.53-.79-28.77,2.39-7.44,2.22-13.95,6.51-20.51,10.52-4.42,2.53-6.41,7.59-10.58,10.42-5,3.28-7.47,8.85-10.46,13.77-4.48,7.19-6.77,15.51-8.28,23.77-.97,4.98,3.55,8.54,4.72,13.05,1.41,5.27,2.46,10.72,2.24,16.21-4.29-2.32-8.58-4.73-12.23-8,2.79,1.87,6.06,2.79,9.39,3,.5-3.91-.16-7.84-2.11-11.28l-.3-.69c-1.18-2.96-2.42-5.92-3.1-9.05-.77-3.47.42-6.95,1.37-10.25,1.92-5.88,3.48-11.97,6.69-17.32,3.94-6.57,8.2-13.05,13.81-18.33,5.25-5.37,11.85-9.12,18.31-12.82,6.79-3.85,14.55-5.39,22.13-6.88h0Z"/>
      <path class="cls-64" d="M255.94,128.45c9.24-3.18,19.15-2.77,28.77-2.39,12.14.21,22.61,7.12,33.26,12.13,1.32.91,2.65,1.82,3.94,2.79,5.13,7.24,12.17,13.04,16.22,21.04,5.16,10.57,8.85,22.04,9.23,33.87.11,6.81-1.04,13.55-1.38,20.33,6.04.74,9.99-4.26,14.82-6.83,10.98-5.77,24.59-7.32,36.18-2.46,5.79,2.9,11.81,6.09,15.73,11.43,3.16,4.3,6.63,8.5,8.65,13.51,2.97,6.63,3.58,14.2,2.4,21.32-.27,3.09-3.78,3.04-6.04,3.85-7.58-5.08-16.13-8.36-24.12-12.68-6.75-3.66-13.97-6.35-20.7-10.02-6.7-5.46-15.41-6.35-23.4-8.75-3.99-1.14-8.21-.8-12.2-1.85-4.71-4.38-7.09-10.74-12.01-14.96-4.66-3.95-10.13-6.77-15.38-9.82-10.34-6.41-23.14-5.8-34.82-5.26-9.57.17-17.8,5.54-25.66,10.4-3.73,2.48-8.04,4.52-10.53,8.43-2.82,4.49-6.19,8.67-8.43,13.51-3.02,7.36-8.89,13.89-16.5,16.58-6.04,2.25-11.02,6.55-17,8.9-2.83,1.08-5.4,2.7-7.65,4.72-12.15,10.22-26.36,17.57-40.8,23.99-7.18,3.23-15.07,4.58-22.91,4.62-2.54.12-4.73-1.31-6.92-2.36,1.28-3.12,3.13-5.99,5.72-8.17,5.17-2.26,9.98-5.37,14.18-9.13,1.86-1.31.82-3.87-.5-5.17-2.91-3.15-6.03-6.18-8-10.04-2.04-3.93-4.92-7.49-6.18-11.77-.09-2.82,1.54-5.32,2.75-7.77,2.95-5.22,5.62-10.84,10.25-14.82,2.71-2.32,5.54-4.5,8.41-6.61,3.98-2.98,9.02-3.76,13.54-5.62,7.55-3.07,16.25-3.83,24.05-1.24,4.85,1.87,9.9,3.14,15.04,3.91,1,.66,1.94,1.4,2.89,2.13,3.65,3.27,7.94,5.68,12.23,8,.22-5.49-.83-10.94-2.24-16.21-1.17-4.51-5.69-8.07-4.72-13.05,1.51-8.26,3.8-16.58,8.28-23.77,2.99-4.92,5.46-10.49,10.46-13.77,4.17-2.83,6.16-7.89,10.58-10.42,6.56-4.01,13.07-8.3,20.51-10.52h0Z"/>
      <path class="cls-62" d="M71.07,139.46c2.26-3.67,4.82-7.15,7.32-10.66,12.48,9.04,25.37,17.48,38.12,26.14-2.11,3.63-4.7,6.96-6.98,10.48-7.57-3.72-13.99-9.41-21.14-13.87-5.83-3.94-11.63-7.94-17.32-12.09h0Z"/>
      <path class="cls-38" d="M321.91,140.98c12.24,8.9,20.11,22.76,23.97,37.19,1.59,6.55,3.35,13.23,2.73,20.02-.48,5.74-.88,11.5-.47,17.26,6.24-2.87,11.27-7.92,17.91-9.99,7.54-2.97,15.76-2.56,23.72-2.66,2.17.07,4.31.55,6.32,1.38,13.44,5.05,24.68,16.34,28.58,30.29.56,6.89.87,13.88.1,20.76-.34,3.79-4.61,2.38-7.05,1.81,2.26-.81,5.77-.76,6.04-3.85,1.18-7.12.57-14.69-2.4-21.32-2.02-5.01-5.49-9.21-8.65-13.51-3.92-5.34-9.94-8.53-15.73-11.43-11.59-4.86-25.2-3.31-36.18,2.46-4.83,2.57-8.78,7.57-14.82,6.83.34-6.78,1.49-13.52,1.38-20.33-.38-11.83-4.07-23.3-9.23-33.87-4.05-8-11.09-13.8-16.22-21.04h0Z"/>
      <path class="cls-54" d="M68.95,169.62c7.02-2.7,15.7.64,18.94,7.46,1.33,4.13-.14,8.38-1.76,12.2-6.86-2.77-13.56-5.92-20.16-9.26-1.01-.69-2.81-1.16-2.73-2.67,1.08-3.02,2.85-6.1,5.71-7.73h0Z"/>
      <path class="cls-88" d="M275.09,193.7c11.68-.54,24.48-1.15,34.82,5.26,5.25,3.05,10.72,5.87,15.38,9.82,4.92,4.22,7.3,10.58,12.01,14.96,3.99,1.05,8.21.71,12.2,1.85,7.99,2.4,16.7,3.29,23.4,8.75l-.95.38c-6.44-2.74-12.87-5.75-19.86-6.77-4.41-.91-8.92-.88-13.36-1.51-3.15-.37-4.69-3.51-6.43-5.76-6.88-10.52-17.63-17.93-29.05-22.81-10.96-4.33-23.35-4.24-34.68-1.45-16.25,5.28-31.2,16.86-37.78,32.96-1.43,3.36-3.35,6.56-6.11,9-5.24,5.06-12.82,6.16-18.67,10.29-5.08,3.48-10.68,6.17-16.69,7.57,2.25-2.02,4.82-3.64,7.65-4.72,5.98-2.35,10.96-6.65,17-8.9,7.61-2.69,13.48-9.22,16.5-16.58,2.24-4.84,5.61-9.02,8.43-13.51,2.49-3.91,6.8-5.95,10.53-8.43,7.86-4.86,16.09-10.23,25.66-10.4h0Z"/>
      <path class="cls-57" d="M268.57,196.42c11.33-2.79,23.72-2.88,34.68,1.45,11.42,4.88,22.17,12.29,29.05,22.81,1.74,2.25,3.28,5.39,6.43,5.76,4.44.63,8.95.6,13.36,1.51,6.99,1.02,13.42,4.03,19.86,6.77-.46.2-1.37.59-1.83.79l-.76.33c-7.65-3.54-15.99-5.48-24.36-6.29-3.69-.46-7.4-.6-11.11-.58-4.48-7.51-9.49-14.95-16.56-20.28-11.62-9.42-27.37-13.65-42.13-11.04-18.62,2.22-34.96,15.79-41.79,33.07-1.41,3.97-1.46,8.4-3.25,12.21-3.42,2.43-7.74,3.01-11.53,4.7-5.96,2.57-12,4.93-17.88,7.67-2.87,1.38-6.39,1.1-8.92,3.2-8.04,6.4-17.31,11-26.3,15.9-9.65,4.97-19.67,9.19-29.76,13.17-8.54,2.78-16.89,6.55-25.9,7.53,1.37-9.9,7.56-19.16,15.86-24.56.41-.09,1.21-.26,1.62-.34-.95,1.39-1.9,2.78-2.94,4.12-2.59,2.18-4.44,5.05-5.72,8.17,2.19,1.05,4.38,2.48,6.92,2.36,7.84-.04,15.73-1.39,22.91-4.62,14.44-6.42,28.65-13.77,40.8-23.99,6.01-1.4,11.61-4.09,16.69-7.57,5.85-4.13,13.43-5.23,18.67-10.29,2.76-2.44,4.68-5.64,6.11-9,6.58-16.1,21.53-27.68,37.78-32.96h0Z"/>
      <path class="cls-85" d="M139.11,208.76c16.76-13.07,41.76-16.35,60.28-5.04,3.34,1.73,5.92,5.05,9.82,5.53.1-3.16-.07-6.33-1.09-9.34,1.95,3.44,2.61,7.37,2.11,11.28-3.33-.21-6.6-1.13-9.39-3-.95-.73-1.89-1.47-2.89-2.13-10.14-6.59-22.95-7.49-34.67-5.97-14.57,3.22-28.26,12-35.78,25.11-2.93,4.91-6.71,10.8-4.45,16.7,3.86,8.26,9.85,15.25,15.8,22.07-.76-.14-1.51-.28-2.26-.44-5.94-2.27-12.44-2.16-18.5-.41-.24-5.94-.33-11.88-.07-17.82,1.82-14.36,9.72-27.63,21.09-36.54h0Z"/>
      <path class="cls-49" d="M275.2,197.65c14.76-2.61,30.51,1.62,42.13,11.04,7.07,5.33,12.08,12.77,16.56,20.28,3.71-.02,7.42.12,11.11.58-3.64.37-7.29.61-10.94.8.53,1.43,1.06,2.86,1.6,4.29-2.03.26-4.06.49-6.09.68,1.23-.97,2.41-1.99,3.61-3.01-6.48-12.11-16.1-23.2-29-28.61-6.77-3.25-14.43-3.44-21.78-3.74-5.13-.22-10.15,1.11-14.85,3.07-3.78,1.61-8.03,2.32-11.35,4.83-8.68,8.15-17.85,16.91-20.97,28.83-.61-2-1.21-3.98-1.82-5.97,6.83-17.28,23.17-30.85,41.79-33.07h0Z"/>
      <path class="cls-84" d="M163.28,200.09c11.72-1.52,24.53-.62,34.67,5.97-5.14-.77-10.19-2.04-15.04-3.91-7.8-2.59-16.5-1.83-24.05,1.24-4.52,1.86-9.56,2.64-13.54,5.62-2.87,2.11-5.7,4.29-8.41,6.61-4.63,3.98-7.3,9.6-10.25,14.82-1.21,2.45-2.84,4.95-2.75,7.77,1.26,4.28,4.14,7.84,6.18,11.77,1.97,3.86,5.09,6.89,8,10.04,1.32,1.3,2.36,3.86.5,5.17-4.2,3.76-9.01,6.87-14.18,9.13,1.04-1.34,1.99-2.73,2.94-4.12-.41.08-1.21.25-1.62.34,3.38-2.73,7.71-4,10.86-7.01.75.16,1.5.3,2.26.44-5.95-6.82-11.94-13.81-15.8-22.07-2.26-5.9,1.52-11.79,4.45-16.7,7.52-13.11,21.21-21.89,35.78-25.11h0Z"/>
      <path class="cls-69" d="M267.55,203.03c4.7-1.96,9.72-3.29,14.85-3.07,7.35.3,15.01.49,21.78,3.74,12.9,5.41,22.52,16.5,29,28.61-1.2,1.02-2.38,2.04-3.61,3.01-2.7.85-5.54,1.09-8.28,1.73-4.65.92-8.98,3.55-13.85,3.01,6.48-4.61,14.64-4.28,22.04-6.24-.22-2.78-.54-5.71-2.38-7.95-4.56-6.03-10.11-11.27-15.93-16.06-8.31-6.5-19.4-7.09-29.52-6.74-10.9.04-21.09,5.14-29.6,11.6-6.2,4.55-9.08,11.9-12.66,18.41-2.15,3.83-3.11,8.15-3.58,12.48,4.48,1.56,9.38,1.02,13.83,2.71,3.72,1.29,7.47,2.52,11.28,3.53-1.16.11-2.32.23-3.47.35-2.2.14-4.31-.63-6.41-1.16-6.82-2.2-14.13-1.84-20.96-3.98,2.22-3.16,3.95-6.64,5.15-10.32,3.12-11.92,12.29-20.68,20.97-28.83,3.32-2.51,7.57-3.22,11.35-4.83h0Z"/>
      <path class="cls-68" d="M281.65,203.07c10.12-.35,21.21.24,29.52,6.74,5.82,4.79,11.37,10.03,15.93,16.06,1.84,2.24,2.16,5.17,2.38,7.95-7.4,1.96-15.56,1.63-22.04,6.24-7.04,1.12-13.56,4.12-19.87,7.31-5.22,2.75-10.1,6.8-16.14,7.48-3.64-.45-6.92-2.32-10.51-3.05-3.81-1.01-7.56-2.24-11.28-3.53-4.45-1.69-9.35-1.15-13.83-2.71.47-4.33,1.43-8.65,3.58-12.48,3.58-6.51,6.46-13.86,12.66-18.41,8.51-6.46,18.7-11.56,29.6-11.6h0Z"/>
      <path class="cls-45" d="M479.93,211.55c3.24-2.54,7.89-4.23,11.89-2.62,7.67,1.47,10.67,9.87,12.14,16.59.32,5.36,1.27,11.4-2.15,16.02-1.62,3.26-5.3,4.21-8.4,5.45-1.15-3.82-2.24-7.7-2.38-11.71,1.29-2.8,4.16-5.28,3.18-8.67.2-3.27-4.2-6.95-6.14-2.93-2.89,7.21-1.14,15.91-5.25,22.87-4.3,6.48-14.62,7.1-20.09,1.74-6.48-5.59-7.93-14.85-7.64-22.98.03-7.04,6.02-13.2,12.91-13.98.56,4.01,2.04,7.88,2.11,11.95-1.15,2.63-5.21,3.73-4.85,7.07-.57,3.65,1.52,6.94,4.43,8.95,1.44-1.24,3.02-2.55,3.34-4.55,2.2-7.72.81-17.01,6.9-23.2h0Z"/>
      <path class="cls-74" d="M62.39,209.6c7.68.53,15.17,2.58,22.83,3.36,3.39,1.21,1.29,5.13.63,7.52-.35,1.89-2.78,1.32-4.12,1.79,1.43,3.9,3.24,7.78,2.68,12.07.54,7.59-4.4,14.56-10.75,18.23-8.34,3.77-18.64,2.93-26.46-1.77-4.42-3.46-8.6-7.8-9.86-13.45-.72-6.3-.65-13.05,2.63-18.68,3.33-5.49,9.57-9.48,16.15-8.96.11,4.27-1.05,8.41-1.29,12.66-2.79.66-5.74,1.77-6.59,4.83-2.89,4.94,1.16,10.79,5.84,12.72,4.25,1.25,8.88,2.84,13.21.92,7.92-1.3,10.18-13.96,2.8-17.53-.57,1.86-.98,3.77-1.33,5.69-2.94-.4-5.85-.9-8.78-1.34,0-6.11,1.45-12.07,2.41-18.06h0Z"/>
      <path class="cls-92" d="M23.8,215.55c4.19-.06,7.12,3.57,8.75,7.04,1.6,4.02.71,8.56-1.62,12.11-.97.17-1.94.34-2.9.51,1.25-3.43,2.71-7.15,1.6-10.82-.73-3.6-3.64-6.09-5.83-8.84h0Z"/>
      <path class="cls-34" d="M371.95,234.72l.95-.38c6.73,3.67,13.95,6.36,20.7,10.02,7.99,4.32,16.54,7.6,24.12,12.68,2.44.57,6.71,1.98,7.05-1.81.77-6.88.46-13.87-.1-20.76,3.03,9,3,18.95-.19,27.91-11.78-5.72-23.07-12.42-35.03-17.78-6.29-3.36-13.16-5.5-19.33-9.09.46-.2,1.37-.59,1.83-.79h0Z"/>
      <path class="cls-26" d="M273.46,262.23c17.91-12.37,38.23-20.87,59.21-26.44,11.86-.99,24,.7,34.91,5.53,9.57,5.7,20.4,8.76,29.96,14.46,3.67,2.15,7.72,3.69,11.07,6.39-5.47-3.56-11.69-5.62-17.5-8.51-2.7-1.19-5.73-2.87-8.73-1.71-2.45,1.58-2.36,4.93-3.39,7.39-2.83-1.03-5.45-2.56-8.31-3.48-2.58.08-4.84,1.69-7.25,2.48-.5,4.74-.53,9.72-2.48,14.15-3.14,2.46-7.41,4.64-11.38,2.92-2.58-2.07-4.61-4.82-6.27-7.67-.89-3.11-.63-6.58-2.57-9.35-1.95-2.69-.13-5.94.44-8.78-3.8.07-7.85.44-11.18-1.77-4.99-3.31-10.38.67-15.42,1.61-5.42.8-10.53,2.79-15.77,4.3-6.99,1.85-13.16,5.81-19.33,9.45-3.51,2.4-8.55,2.72-12.25.59-4.72-2.59-10.5-2.26-15.56-.95-1.35-.38-2.62-1.01-4-1.29-2.1.34-3.91,1.56-5.81,2.45-1.16-.71-2.27-1.5-3.5-2.06-1.3-.01-2.42.8-3.6,1.22-1.3-1.21-2.62-2.38-3.98-3.5-1.76.79-3.49,1.63-5.19,2.53-1.96-1.64-3.99-3.93-6.84-3.3-2.4.79-4.33,2.49-6.54,3.65-2.44.31-5.12-.43-7.28,1.09-6.03,3.55-11.77,7.61-17.88,11.03-13.24,7.14-26.51,14.21-39.69,21.44-5.45,3.12-11.96,2.99-17.72,5.29,1.8,3.41,5.82,5.36,6.52,9.39.81,2.72-.26,5.46-1.28,7.97-.47-2.47-1.08-4.92-1.89-7.3-2.31-5.22-7.8-7.26-12.65-9.36,1.23-.78,2.41-1.63,3.64-2.41,8.43-2.92,17.61-3.99,25.3-8.78,7.52-3.8,14.94-7.79,22.43-11.65,5.92-3.49,12.35-6.07,18.12-9.8,2.08-2.31,3.82-5.27,3.34-8.49,2.41,2.33,6.25,2.66,9.13,1.02,4.35-2.27,8.92-4.05,13.52-5.73,3.75-1.31,7.2-3.42,11.06-4.43,16.13-1.29,32.35,2.98,46.59,10.41M345.22,247.91c-1.79,3.36-3.78,7.78-1.29,11.28,1.76,2.14.64,5.1,1.32,7.61.4-2.04.26-4.12.24-6.17,4.17.05,8.34.16,12.51-.06.09,2.36.11,4.72.26,7.08-1.86,1.78-3.51,4.81-6.55,4.12-2.94.01-4.11-3.25-6.11-4.87.84,3.61,3.67,6.66,7.08,8.08,2.48-2.01,5.21-4.01,6.38-7.11,1.36-2.25.74-4.95,1-7.43,2.55-3.96.32-8.96-2.14-12.39-4.21-.49-8.48-.18-12.7-.14M269.25,291.9c.58-.03,1.75-.09,2.34-.11.32-.02.95-.05,1.27-.07.32.84.97,2.51,1.29,3.35-2.03-.36-3.52-1.76-4.9-3.17h0Z"/>
      <path class="cls-83" d="M287.57,247.37c6.31-3.19,12.83-6.19,19.87-7.31-3.69,4.05-9.39,4.65-14.01,7.13-5.52,2.96-10.77,6.4-16.07,9.73-2.35,1.62-5.36,1.3-7.94.51-4.17-1.3-8.22-3.04-11.97-5.28,1.15-.12,2.31-.24,3.47-.35,3.59.73,6.87,2.6,10.51,3.05,6.04-.68,10.92-4.73,16.14-7.48h0Z"/>
      <path class="cls-47" d="M314.57,249.45c5.04-.94,10.43-4.92,15.42-1.61,3.33,2.21,7.38,1.84,11.18,1.77-.57,2.84-2.39,6.09-.44,8.78,1.94,2.77,1.68,6.24,2.57,9.35,1.66,2.85,3.69,5.6,6.27,7.67,3.97,1.72,8.24-.46,11.38-2.92,1.95-4.43,1.98-9.41,2.48-14.15,2.41-.79,4.67-2.4,7.25-2.48,2.86.92,5.48,2.45,8.31,3.48,1.03-2.46.94-5.81,3.39-7.39,3-1.16,6.03.52,8.73,1.71,5.81,2.89,12.03,4.95,17.5,8.51,1.81,1.12,3.62,2.25,5.47,3.33-.02.53-.04,1.6-.05,2.14-1.98,1.02-5.28,1.75-4.57,4.7.09,3.11,3.59,3.82,6.07,4.06,4.83.34,9.83.05,14.36,2.11-3.17.81-6.33,1.63-9.51,2.37-1.14.02-2.27.03-3.4.04-4.75-.67-10.9-1.73-14.37,2.49-2.51,3.65.57,7.47,2.23,10.74-2.98,2.65-5.54,5.73-8.51,8.41-2.25.47-4.37-.7-6.58-.82-7.91,3.09-16.6,2.89-24.97,2.94-1.78.21-1.78-2.23-2.31-3.36-.59-2.7-.43-5.48-.44-8.21,8.59-.71,17.36,1.67,25.79-.61-1.37-.82-2.53-2.28-4.22-2.36-7.96-.46-15.93-.18-23.9-.42-3.03.28-4.99-2.93-7.98-2.83-10.78-.02-21.61-.39-32.33.91-4.66.29-9.3.89-13.97.99,1.16-3.5,2.67-6.89,3.63-10.45-.26-2.77-.91-5.48-1.49-8.19-.66,3.34.83,7.55-1.81,10.21-4.49,2.59-9.91,1.31-14.82,1.58.41,2.39.46,5.07,2.11,7.01,1.4,1.87,3.59,2.84,5.53,4.04,2.02-1.17,4.07-2.28,6.18-3.27-1.51,3.85-6.25,5.36-9.81,3.35-3.99-2.45-4.88-7.45-6.21-11.56-4.7,2.68-7.23,7.46-8.57,12.53-1.77.29-3.54.55-5.31.8.01,1.02.02,2.04.03,3.06,4.62,0,9.23-.23,13.85-.21,3.47-.16,6.47,2.26,9.96,2.07,2.6.12,4.94-1.14,7.37-1.86,6.36-1.92,13.09-1.15,19.63-1.35,2.4-.22,4.32,1.45,6.34,2.48,3.19,1.98,6.74,3.25,10.01,5.06,2.35,1.19,1.88,4.25,2.25,6.44-5.18,3.14-10.69,5.71-16.42,7.71-7.04,2.47-14.04,5.52-21.56,6.12-1.35-4.45-2.74-8.9-3.48-13.5,6.25-.55,12.5-.92,18.77-1.05,4.09-.66,8.2-1.14,12.35-1.14.07-.52.23-1.55.31-2.07-8.47-1.3-17.11-.55-25.64-.55-7.48,1-15,2.06-22.3,3.96-.16.38-.47,1.16-.63,1.55,4.15.7,8.19,1.96,12.4,2.36,1.4,5.05,2.82,10.1,4.55,15.05,4.23.13,8.37-.63,12.46-1.62-.05,5.56-.77,11.09-1.33,16.62-.29,1.64-.55,3.28-.8,4.93-6.04.09-12.02-.56-18-1.26-1.81-7.73.38-15.83-1.39-23.58-.84-3.46-3.69-6.37-7.16-7.2-4.63-1.23-9.64-1.35-14.21.15-3.39,1.39-5.5,4.53-7.86,7.15-1.3-.33-2.59-.68-3.89-1.01-4.96-1.48-9.67,1.65-13.94,3.78,3.23-.34,6.42-.96,9.65-1.24-1.72,2.59-3.37,5.38-5.88,7.3-3.62.43-7.28.11-10.91.08-8.22-.31-16.45-.15-24.67-.49-3.77,0-5.49-4.52-9.16-4.88-4.3-.71-8.68-.77-12.96-1.68-5.44-.39-10.92-.45-16.31-1.4-8.48-1.21-17.08-.61-25.61-.89-5.75-.24-11.71.72-17.25-1.26.48-1.25.97-2.48,1.45-3.72,1.02-2.51,2.09-5.25,1.28-7.97-.7-4.03-4.72-5.98-6.52-9.39,5.76-2.3,12.27-2.17,17.72-5.29,13.18-7.23,26.45-14.3,39.69-21.44,6.11-3.42,11.85-7.48,17.88-11.03,2.16-1.52,4.84-.78,7.28-1.09,2.21-1.16,4.14-2.86,6.54-3.65,2.85-.63,4.88,1.66,6.84,3.3,1.7-.9,3.43-1.74,5.19-2.53,1.36,1.12,2.68,2.29,3.98,3.5,1.18-.42,2.3-1.23,3.6-1.22,1.23.56,2.34,1.35,3.5,2.06,1.9-.89,3.71-2.11,5.81-2.45,1.38.28,2.65.91,4,1.29,5.06-1.31,10.84-1.64,15.56.95,3.7,2.13,8.74,1.81,12.25-.59,6.17-3.64,12.34-7.6,19.33-9.45,5.24-1.51,10.35-3.5,15.77-4.3M285.75,272.99c-.69,3.27-2.07,6.76-5.34,8.21-3.59,2.55-8.03,1.22-12.08,1.32-4.3-1.47-8.8-.25-11.83,3.08h-1.19c.88,1.25,2.05,2.23,3.46,2.83,2.74,2.84,6.61,3.92,10.48,3.47,1.38,1.41,2.87,2.81,4.9,3.17-.32-.84-.97-2.51-1.29-3.35-.32.02-.95.05-1.27.07-.71-1.22-1.42-2.42-2.11-3.63.55-.1,1.66-.29,2.21-.39-1.97-.83-4.07-1.29-6.15-1.75,3.89-1.64,8.1-2.15,12.29-2.28,3.55-1.68,8.2-3.4,9.07-7.73.17-3.07,1.89-5.66,3.2-8.35-1.69,1.56-3.89,2.9-4.35,5.33M327.75,274.66c5.9.4,11.83-.03,17.75.04-.45-1.01-.9-2.03-1.33-3.04-5.45,1.26-11.23.75-16.42,3M377.62,273.47c5.51,5.5,10.3,11.66,15.03,17.82,1.39,1.65,1.35,3.91,1.74,5.93.4-.2,1.21-.58,1.61-.77.1-1.75.94-3.69-.11-5.29-2.49-3.77-5.73-6.95-8.63-10.39-2.72-2.99-5.44-6.5-9.64-7.3M250.69,287.82c.6.06,1.82.19,2.43.25-.02-1.6-.03-3.21-.08-4.8-1.65,1-2.33,2.66-2.35,4.55M230.95,301.59c-3.23.45-6.54.42-9.67,1.45,3.73,1.82,8.22.19,11.86,2.38,1.43-1.7,2.88-3.57,5.07-4.29,2.84-.63,5.9-1.05,8.2-3-3.23-.38-6.5-.31-9.74-.12-1.94,1.16-3.34,3.25-5.72,3.58M214.16,302.79c-.34.44-1.03,1.31-1.37,1.75.11.55.32,1.66.43,2.21,2.14.06,4.29-.03,6.42.26,3.34,1.1,6.37,3.37,10.06,3.02-3.52-1.77-6.9-3.9-10.75-4.92.09-.89.19-1.78.28-2.67-1.69.11-3.38.22-5.07.35M230.75,308.89c1.45.76,2.89,1.52,4.32,2.33.04,6.03.28,12.07.89,18.08.54-.08,1.6-.23,2.13-.31-.41-6.57,1.05-13.42-1.22-19.76-1.97-.64-4.09-.26-6.12-.34h0Z"/>
      <path class="cls-42" d="M345.22,247.91c4.22-.04,8.49-.35,12.7.14,2.46,3.43,4.69,8.43,2.14,12.39-.26,2.48.36,5.18-1,7.43-1.17,3.1-3.9,5.1-6.38,7.11-3.41-1.42-6.24-4.47-7.08-8.08,2,1.62,3.17,4.88,6.11,4.87,3.04.69,4.69-2.34,6.55-4.12-.15-2.36-.17-4.72-.26-7.08-4.17.22-8.34.11-12.51.06.02,2.05.16,4.13-.24,6.17-.68-2.51.44-5.47-1.32-7.61-2.49-3.5-.5-7.92,1.29-11.28h0Z"/>
      <path class="cls-77" d="M459.26,258.98c10.98.09,21.96-.2,32.94-.16.03,3.99-.04,7.98.07,11.97-10.91.38-21.83.25-32.74.26-.48-4.01-.5-8.05-.27-12.07M465.06,261.69c-2.9.41-3.58,3.5-4.42,5.79,1.7.63,3.45,1.2,5.29,1.18,7.17-.04,14.81,2,21.51-1.56,2.37-.65,1.9-3.41,1.97-5.29-8.12.18-16.25-.41-24.35-.12h0Z"/>
      <path class="cls-63" d="M497.38,258.89c2.91-.14,5.83-.16,8.75-.11-.05,3.97.02,7.94.12,11.9-2.91.35-5.83.41-8.75.33-.35-4.03-.33-8.08-.12-12.12h0Z"/>
      <path class="cls-16" d="M465.06,261.69c8.1-.29,16.23.3,24.35.12-.07,1.88.4,4.64-1.97,5.29-6.7,3.56-14.34,1.52-21.51,1.56-1.84.02-3.59-.55-5.29-1.18.84-2.29,1.52-5.38,4.42-5.79h0Z"/>
      <path class="cls-86" d="M35.08,262.93c1.81-.51,3.66-.96,5.56-.85,13.43.1,26.86-.02,40.28-.04.05,4.54.12,9.09,0,13.63-14.78.12-29.55.13-44.32.04-.34-.33-1-1-1.33-1.33-.31-3.81-.04-7.63-.19-11.45M41.09,263.95c-3.65.78-4.86,6.62-1.03,8.08,3,.37,6.04.17,9.02.74,6.81,1.29,13.75.46,20.62.76,2.91-.02,7.09.19,8.04-3.36.14-2.71-.66-6.9-4.11-6.87-4.98-.46-9.97.31-14.95.17-5.86.09-11.78-.41-17.59.48h0Z"/>
      <path class="cls-56" d="M41.09,263.95c5.81-.89,11.73-.39,17.59-.48,4.98.14,9.97-.63,14.95-.17,3.45-.03,4.25,4.16,4.11,6.87-.95,3.55-5.13,3.34-8.04,3.36-6.87-.3-13.81.53-20.62-.76-2.98-.57-6.02-.37-9.02-.74-3.83-1.46-2.62-7.3,1.03-8.08h0Z"/>
      <path class="cls-2" d="M414.1,264.66c1.77,1.04,3.52,2.11,5.3,3.15-1.44,1.35-4.03,3.38-5.39.77l.02-.94c.01-.54.03-1.61.05-2.14l.02-.84h0Z"/>
      <path class="cls-53" d="M285.75,272.99c.46-2.43,2.66-3.77,4.35-5.33-1.31,2.69-3.03,5.28-3.2,8.35-.87,4.33-5.52,6.05-9.07,7.73-3.21-.05-6.38-.51-9.5-1.22,4.05-.1,8.49,1.23,12.08-1.32,3.27-1.45,4.65-4.94,5.34-8.21M250.69,287.82c.02-1.89.7-3.55,2.35-4.55.05,1.59.06,3.2.08,4.8-.61-.06-1.83-.19-2.43-.25h0Z"/>
      <path class="cls-75" d="M409.46,272.34c-.71-2.95,2.59-3.68,4.57-4.7l-.02.94c-.69,1.47-1.53,2.87-2.33,4.28,6.42,3.94,14.34.3,21,3.46,1.71.48,1.55,2.46,2.07,3.82-4.72,1.08-9.57.95-14.37.74,3.18-.74,6.34-1.56,9.51-2.37-4.53-2.06-9.53-1.77-14.36-2.11-2.48-.24-5.98-.95-6.07-4.06h0Z"/>
      <path class="cls-73" d="M307.56,270.15c.58,2.71,1.23,5.42,1.49,8.19-.96,3.56-2.47,6.95-3.63,10.45,4.67-.1,9.31-.7,13.97-.99,10.72-1.3,21.55-.93,32.33-.91,2.99-.1,4.95,3.11,7.98,2.83,7.97.24,15.94-.04,23.9.42,1.69.08,2.85,1.54,4.22,2.36-8.43,2.28-17.2-.1-25.79.61.01,2.73-.15,5.51.44,8.21.53,1.13.53,3.57,2.31,3.36,8.37-.05,17.06.15,24.97-2.94,2.21.12,4.33,1.29,6.58.82,1.11-.14,2.22-.29,3.34-.45-3.4,5.47-10.41,5.31-16,6.42-3.55.25-6.69,1.94-9.62,3.83.06-.7.19-2.1.25-2.8-4.45,1.22-8.96,2.73-13.64,2.21-.95-4.34-2.46-8.59-2.67-13.06-4.08.94-8.02-.51-11.83-1.82,3.3-1.19,6.68-2.2,10.2-2.43-.02-.41-.06-1.21-.08-1.61-4.75.7-9.84,1.16-13.62,4.46,2.14,1.62,4.64,2.81,6.47,4.82,1.03,6.33-.74,12.68-2.37,18.76,7.84.38,15.7.16,23.55.12,1.21-2.01,2.41-4.03,3.55-6.08.42,4.4-1.64,8.9-.01,13.18,3.76,10.3,7.49,20.61,10.78,31.07,2.84,7.82,4.09,16.14,7.46,23.78.03,1.27.04,2.54.07,3.81-2.22,1.12-4.43,2.23-6.69,3.25-1.42.64-2.84,1.29-4.22,2.02-1.53,2.87-2.31,6.05-3.05,9.2.04-.7.11-2.1.15-2.81-4.29.85-8.67,1.42-12.86,2.7-.27.32-.79.96-1.05,1.28-.25,9.15-.1,18.32-.05,27.48,3.62-.59,7.17-1.49,10.68-2.52.05.83.11,1.66.19,2.5l.07.72c-9.62,1.01-19.11,3.03-28.71,4.29-.13-.38-.4-1.12-.53-1.5-.66-1.88-1.38-3.74-2.16-5.56-1.82.34-3.63.7-5.45.99-1.66-.02-3.32-.14-4.97-.17,3.74-.97,7.42-2.21,11.04-3.58,1.15,2.5,2.4,5.02,4.56,6.83.16-.52.48-1.57.64-2.09.18-.58.52-1.73.69-2.31,3.21.81,6.45,1.54,9.74,2.04.22-9.54.24-19.09.07-28.63-4.31-.84-8.6-1.9-12.96-2.42-.42,2.38-.87,4.77-1.22,7.16-.12-3.37-.08-6.75-.17-10.13-5.32-1.35-10.37-3.54-15.6-5.17,1.09-.27,2.18-.55,3.28-.82,5.58,2.34,11.43,4.48,17.56,4.54.15-6.6,1.18-13.14,1.04-19.75,1.24-8.96,1.19-18.02,2-27.02-.15-6.59,1.53-13.05,1-19.65-3.3.03-6.6.04-9.88.36-.96-1.89-1.93-3.78-3.17-5.49-8.35.48-17.12-1.02-24.98,2.61.01,1.71.02,3.43.07,5.15-.35-1.04-.68-2.08-1.06-3.1-.26.04-.8.13-1.06.18-4.09.99-8.23,1.75-12.46,1.62-1.73-4.95-3.15-10-4.55-15.05-4.21-.4-8.25-1.66-12.4-2.36.16-.39.47-1.17.63-1.55,7.3-1.9,14.82-2.96,22.3-3.96,8.53,0,17.17-.75,25.64.55-.08.52-.24,1.55-.31,2.07-4.15,0-8.26.48-12.35,1.14-6.27.13-12.52.5-18.77,1.05.74,4.6,2.13,9.05,3.48,13.5,7.52-.6,14.52-3.65,21.56-6.12,5.73-2,11.24-4.57,16.42-7.71-.37-2.19.1-5.25-2.25-6.44-3.27-1.81-6.82-3.08-10.01-5.06-2.02-1.03-3.94-2.7-6.34-2.48-6.54.2-13.27-.57-19.63,1.35-2.43.72-4.77,1.98-7.37,1.86-3.49.19-6.49-2.23-9.96-2.07-4.62-.02-9.23.21-13.85.21-.01-1.02-.02-2.04-.03-3.06,1.77-.25,3.54-.51,5.31-.8,1.34-5.07,3.87-9.85,8.57-12.53,1.33,4.11,2.22,9.11,6.21,11.56,3.56,2.01,8.3.5,9.81-3.35-2.11.99-4.16,2.1-6.18,3.27-1.94-1.2-4.13-2.17-5.53-4.04-1.65-1.94-1.7-4.62-2.11-7.01,4.91-.27,10.33,1.01,14.82-1.58,2.64-2.66,1.15-6.87,1.81-10.21M361.29,327.88c-.25,7.53.95,14.98,1.73,22.44.15,14.32,3.28,28.39,3.46,42.71,3.09.21,6.18-.32,9.09-1.39,5.12-1.88,10.52-3.42,14.88-6.84-2.42-5.72-3.45-11.88-5.53-17.71-3.75-12.64-7.91-25.13-12.08-37.63-3.13-2.78-7.76-1.11-11.55-1.58h0Z"/>
      <path class="cls-78" d="M327.75,274.66c5.19-2.25,10.97-1.74,16.42-3,.43,1.01.88,2.03,1.33,3.04-5.92-.07-11.85.36-17.75-.04h0Z"/>
      <path class="cls-50" d="M377.62,273.47c4.2.8,6.92,4.31,9.64,7.3,2.9,3.44,6.14,6.62,8.63,10.39,1.05,1.6.21,3.54.11,5.29-.4.19-1.21.57-1.61.77-.39-2.02-.35-4.28-1.74-5.93-4.73-6.16-9.52-12.32-15.03-17.82M420.38,280.88c4.8.21,9.65.34,14.37-.74,2.09.16,4.05,1.02,6.03,1.66-4.71.24-9.4-.27-14.1-.2-3.82.02-7.67.29-11.44-.44.44-.06,1.31-.18,1.74-.24,1.13-.01,2.26-.02,3.4-.04h0Z"/>
      <path class="cls-46" d="M402.61,283.41c3.47-4.22,9.62-3.16,14.37-2.49-.43.06-1.3.18-1.74.24-3.46.69-7.42,1.14-9.95,3.87-1.79,1.86-1.13,5.77,1.77,6,6.03.57,11.67-2.39,17.61-2.98,5.91-.53,11.91-.42,17.76.67,2.25.49,4.98.71,6.16,3.03-8.32.31-16.72-.66-24.97.55-.96.18-1.92.37-2.86.58-5.34-.04-10.62.7-15.92,1.27-1.66-3.27-4.74-7.09-2.23-10.74h0Z"/>
      <path class="cls-41" d="M256.5,285.6c3.03-3.33,7.53-4.55,11.83-3.08,3.12.71,6.29,1.17,9.5,1.22-4.19.13-8.4.64-12.29,2.28-3.01-.29-6.02-.44-9.04-.42h0Z"/>
      <path class="cls-20" d="M255.31,285.61h1.19c3.02-.03,6.03.12,9.04.41,2.08.46,4.18.92,6.15,1.75-.55.1-1.66.29-2.21.39-3.55.47-7.16.73-10.71.27-1.41-.6-2.58-1.58-3.46-2.82h0Z"/>
      <path class="cls-9" d="M258.77,288.43c3.55.46,7.16.2,10.71-.27.69,1.21,1.4,2.41,2.11,3.63-.59.02-1.76.08-2.34.11-3.87.45-7.74-.63-10.48-3.47h0Z"/>
      <path class="cls-67" d="M88.76,303.32c1.65-4.67,3.69-9.28,6.55-13.35,1.98,3.44,3.63,7.46,7.22,9.55,1.78,1.17,3.59,2.29,5.43,3.4-.39.66-.77,1.34-1.16,2.01-3.08-1.89-5.92-4.14-8.65-6.5-2.38,1.76-4.56,3.77-6.66,5.85-.87.74-1.79,1.44-2.7,2.14,0-.77-.03-2.32-.03-3.1h0Z"/>
      <path class="cls-17" d="M423.62,292.3c8.25-1.21,16.65-.24,24.97-.55h.66c3.1,5.47,5.45,11.39,6.64,17.57.52,5.65.44,11.37.05,17.03-3.22,17.34-15.64,32.25-31.25,40.05.47,3.65,1.97,7.16,1.7,10.9-.23,5.17.63,10.55-1.22,15.52-2.43,11.51-9.23,22.39-19.42,28.53-9.21,5.43-19.84,8.19-30.49,8.52-.08-.84-.14-1.67-.19-2.5.06-8.78,1.29-17.56,3.13-26.13.74-3.15,1.52-6.33,3.05-9.2-.81,12.11-4.82,23.88-4.31,36.06,2.68-.18,5.38-.35,8.03-.89,7.57-1.19,14.85-3.93,21.32-8.04,10.7-6.06,16.48-18,18.77-29.66,1.45-5.3.84-10.82-.49-16.07-.53-2.73-1.13-5.45-1.58-8.19,5.57-3.54,11.6-6.54,16.23-11.35,9.33-8.88,15.89-21.44,15.15-34.56.36-9.19-.19-19.62-7.3-26.39-7.79-.98-15.65.06-23.45-.65h0Z"/>
      <path class="cls-59" d="M342.66,297.31c3.78-3.3,8.87-3.76,13.62-4.46.02.4.06,1.2.08,1.61-3.52.23-6.9,1.24-10.2,2.43,3.81,1.31,7.75,2.76,11.83,1.82.21,4.47,1.72,8.72,2.67,13.06,4.68.52,9.19-.99,13.64-2.21-.06.7-.19,2.1-.25,2.8-.05.64-.14,1.93-.19,2.57-1.14,2.05-2.34,4.07-3.55,6.08-7.85.04-15.71.26-23.55-.12,1.63-6.08,3.4-12.43,2.37-18.76-1.83-2.01-4.33-3.2-6.47-4.82M256.92,327.51c.77-2.18,3.3-1.47,5.07-1.74-.08.52-.25,1.56-.33,2.08-5.79,7.74-11.12,15.81-16.65,23.75-1.29,2.26-3.32,4.51-3.08,7.29,3.05,3.7,7,6.51,10.71,9.52,9.95,8.36,19.89,16.76,29.13,25.9.59.75,1.34.96,2.23.65,1.92-5.08,2.75-10.49,4.35-15.68,2.29-8.08,3.24-16.44,5.03-24.62,2.53.05,5.07.11,7.6.22,0,18.82.13,37.64-.04,56.46-.99,6.48-.4,13.09-1.54,19.56-2.34-.01-4.66,0-6.99.11-4.17-1.76-8.77-1.34-13.1-2.3-1.93-.99-1.34-3.45-1.33-5.21,1.18-6.72,3.05-13.34,3.92-20.12-1.44-3.95-4.99-6.52-7.66-9.6-10.41-11.31-22.11-21.29-33.84-31.18-3.25-2.56-2.89-6.83-1.16-10.16,3.43-3.38,5.75-7.65,8.49-11.57,3.2-4.36,6.43-8.71,9.19-13.36h0Z"/>
      <path class="cls-48" d="M420.76,292.88c.94-.21,1.9-.4,2.86-.58,7.8.71,15.66-.33,23.45.65-8.8.61-17.67.43-26.36,2.2-2.35.08-4.7.02-7.05.11,2.4-.68,4.74-1.57,7.1-2.38h0Z"/>
      <path class="cls-89" d="M404.84,294.15c5.3-.57,10.58-1.31,15.92-1.27-2.36.81-4.7,1.7-7.1,2.38-3.66.88-7.55,1.2-10.9,3.03-1.22,1.1-2.09,2.53-3.09,3.82-1.12.16-2.23.31-3.34.45,2.97-2.68,5.53-5.76,8.51-8.41h0Z"/>
      <path class="cls-40" d="M420.71,295.15c8.69-1.77,17.56-1.59,26.36-2.2,7.11,6.77,7.66,17.2,7.3,26.39.74,13.12-5.82,25.68-15.15,34.56-4.63,4.81-10.66,7.81-16.23,11.35.45,2.74,1.05,5.46,1.58,8.19.22,5.35.26,10.71.49,16.07-2.29,11.66-8.07,23.6-18.77,29.66-6.47,4.11-13.75,6.85-21.32,8.04-1.96-.65-4.03-1.22-5.67-2.51-1.68-6.23,2.1-12.15,2.35-18.32.3-5.65,1.74-11.13,3.82-16.36,2.26-1.02,4.47-2.13,6.69-3.25-.03-1.27-.04-2.54-.07-3.81.52-4.76-.38-9.47-1.92-13.95-3.49-14.42-11.09-27.52-14-42.1-.82-4.76-.71-10.45,2.94-14.06,2.5-1.55,5.63-1.37,8.43-1.98,7.01-.8,12.49-5.66,17.74-9.94,4.28-3.76,10.17-4.27,15.43-5.78h0Z"/>
      <path class="cls-12" d="M402.76,298.29c3.35-1.83,7.24-2.15,10.9-3.03,2.35-.09,4.7-.03,7.05-.11-5.26,1.51-11.15,2.02-15.43,5.78-5.25,4.28-10.73,9.14-17.74,9.94-2.8.61-5.93.43-8.43,1.98-3.65,3.61-3.76,9.3-2.94,14.06,2.91,14.58,10.51,27.68,14,42.1,1.54,4.48,2.44,9.19,1.92,13.95-3.37-7.64-4.62-15.96-7.46-23.78-3.29-10.46-7.02-20.77-10.78-31.07-1.63-4.28.43-8.78.01-13.18.05-.64.14-1.93.19-2.57,2.93-1.89,6.07-3.58,9.62-3.83,5.59-1.11,12.6-.95,16-6.42,1-1.29,1.87-2.72,3.09-3.82M316.71,332.58c1.63-.31,3.26-.6,4.9-.91-1.46,2.93-3.1,5.77-5.01,8.44-.07-.49-.2-1.47-.26-1.96.07-1.86.21-3.72.37-5.57h0Z"/>
      <path class="cls-14" d="M91.49,304.28c2.1-2.08,4.28-4.09,6.66-5.85,2.73,2.36,5.57,4.61,8.65,6.5,4.67.29,9.3-.93,13.53-2.84,4.85,2.1,10.34,4.14,12.65,9.36.32,4.19-1.22,8.18-2.39,12.13,4.79,3.01,10.54,2.24,15.92,2.45,10.95,1.19,21.99.91,32.95,2.19,5.06.63,10.18.59,15.24,1.35,4.34.57,9.07.31,12.92,2.74,2.13,1.23,4.19,2.82,6.74,3.04,10.91,1.25,21.94,0,32.89.72.14,1.6.28,3.2.48,4.8-2.74,3.92-5.06,8.19-8.49,11.57-2.63,1.97-4.27,4.82-5.51,7.79,15.31,12.57,31.45,24.59,43.71,40.35,2.9,3.14,1.68,7.62.95,11.35-1.12,5.79-3.65,11.66-2.15,17.62,1.1,2.35,2.38,4.62,3.62,6.91-2.91,1.55-5.63,3.42-8.35,5.27-5.11-3.41-10.37-7.5-16.75-7.88-7.03-.37-14.08.26-21.11-.23-11.97-1.38-24.1-.81-36.06-2.32-8.81-1.59-17.76-2.32-26.49-4.35-10.3-2.2-21.24-3.06-30.47-8.58-12.49-7.12-19.08-21.41-20.7-35.23-.72-5.82.94-11.56.77-17.37.02-.27.06-.81.07-1.08.09-.72.19-1.45.29-2.16-6.83-3.68-13.7-7.74-18.74-13.77-6.73-7.71-10.94-17.29-13.04-27.25-1.05-5.8-.32-11.89,2.21-17.23h0Z"/>
      <path class="cls-60" d="M230.95,301.59c2.38-.33,3.78-2.42,5.72-3.58,3.24-.19,6.51-.26,9.74.12-2.3,1.95-5.36,2.37-8.2,3-2.19.72-3.64,2.59-5.07,4.29-3.64-2.19-8.13-.56-11.86-2.38,3.13-1.03,6.44-1,9.67-1.45h0Z"/>
      <path class="cls-91" d="M107.96,302.92c5.45-.55,10.53-2.93,16.01-3.24-1.23.78-2.41,1.63-3.64,2.41-4.23,1.91-8.86,3.13-13.53,2.84.39-.67.77-1.35,1.16-2.01M246.52,326.93c4.27-2.13,8.98-5.26,13.94-3.78-1.47.09-2.85.63-4.2,1.2,2.24.52,4.48,1.02,6.75,1.45-.45.68-.9,1.36-1.35,2.05.08-.52.25-1.56.33-2.08-1.77.27-4.3-.44-5.07,1.74-2.76,4.65-5.99,9-9.19,13.36-.2-1.6-.34-3.2-.48-4.8-10.95-.72-21.98.53-32.89-.72,10.96-.89,21.96.06,32.92-.43-2.58-.83-5.24-1.39-7.9-1.85,3.63.03,7.29.35,10.91-.08,2.51-1.92,4.16-4.71,5.88-7.3-3.23.28-6.42.9-9.65,1.24h0Z"/>
      <path class="cls-51" d="M214.16,302.79c1.69-.13,3.38-.24,5.07-.35-.09.89-.19,1.78-.28,2.67,3.85,1.02,7.23,3.15,10.75,4.92-3.69.35-6.72-1.92-10.06-3.02-2.13-.29-4.28-.2-6.42-.26-.11-.55-.32-1.66-.43-2.21.34-.44,1.03-1.31,1.37-1.75h0Z"/>
      <path class="cls-4" d="M88.67,329.58c-1.58-8.61-1.94-17.73.09-26.26,0,.78.02,2.33.03,3.1.91-.7,1.83-1.4,2.7-2.14-2.53,5.34-3.26,11.43-2.21,17.23,2.1,9.96,6.31,19.54,13.04,27.25-.5.06-1.52.18-2.03.24l-.62.08c-4.93-5.68-8.44-12.47-11-19.5h0Z"/>
      <path class="cls-29" d="M230.75,308.89c2.03.08,4.15-.3,6.12.34,2.27,6.34.81,13.19,1.22,19.76-.53.08-1.59.23-2.13.31-.61-6.01-.85-12.05-.89-18.08-1.43-.81-2.87-1.57-4.32-2.33h0Z"/>
      <path class="cls-55" d="M132.98,311.45c.81,2.38,1.42,4.83,1.89,7.3-.48,1.24-.97,2.47-1.45,3.72,5.54,1.98,11.5,1.02,17.25,1.26,8.53.28,17.13-.32,25.61.89,5.39.95,10.87,1.01,16.31,1.4,4.28.91,8.66.97,12.96,1.68,3.67.36,5.39,4.88,9.16,4.88,8.22.34,16.45.18,24.67.49,2.66.46,5.32,1.02,7.9,1.85-10.96.49-21.96-.46-32.92.43-2.55-.22-4.61-1.81-6.74-3.04-3.85-2.43-8.58-2.17-12.92-2.74-5.06-.76-10.18-.72-15.24-1.35-10.96-1.28-22-1-32.95-2.19-5.38-.21-11.13.56-15.92-2.45,1.17-3.95,2.71-7.94,2.39-12.13h0Z"/>
      <path class="cls-93" d="M272.21,317.01c4.57-1.5,9.58-1.38,14.21-.15,3.47.83,6.32,3.74,7.16,7.2,1.77,7.75-.42,15.85,1.39,23.58,5.98.7,11.96,1.35,18,1.26.25-1.65.51-3.29.8-4.93.43,4.06.62,8.15.46,12.23-2.72-1.59-5.9-1.32-8.91-1.31,1.58,11.2,3.17,22.41,5.42,33.5,3.28,14.19,7.52,28.15,12.51,41.82,3.45-.29,6.86-.9,10.26-1.57,1.65.03,3.31.15,4.97.17-7.87,1.4-15.76,3.14-23.8,2.97-7.74-.13-15.5,1.7-23.19.14l.92-.91c2.33-.11,4.65-.12,6.99-.11,1.14-6.47.55-13.08,1.54-19.56.17-18.82.04-37.64.04-56.46-2.53-.11-5.07-.17-7.6-.22-1.79,8.18-2.74,16.54-5.03,24.62-1.6,5.19-2.43,10.6-4.35,15.68-.89.31-1.64.1-2.23-.65-9.24-9.14-19.18-17.54-29.13-25.9-3.71-3.01-7.66-5.82-10.71-9.52-.24-2.78,1.79-5.03,3.08-7.29,5.53-7.94,10.86-16.01,16.65-23.75.45-.69.9-1.37,1.35-2.05-2.27-.43-4.51-.93-6.75-1.45,1.35-.57,2.73-1.11,4.2-1.2,1.3.33,2.59.68,3.89,1.01,2.36-2.62,4.47-5.76,7.86-7.15h0Z"/>
      <path class="cls-61" d="M317.15,325.12c7.86-3.63,16.63-2.13,24.98-2.61.2.49.62,1.46.82,1.95-.94,1.75-3.23,1.59-4.86,2.27-6.91,1.43-13.8,3.24-20.87,3.54-.05-1.72-.06-3.44-.07-5.15h0Z"/>
      <path class="cls-18" d="M342.13,322.51c1.24,1.71,2.21,3.6,3.17,5.49-.63.91-1.24,1.82-1.84,2.75-.45-1.11-.89-2.23-1.32-3.34-6.88,1.24-13.66,2.96-20.53,4.26-1.64.31-3.27.6-4.9.91-.16,1.85-.3,3.71-.37,5.57-.46,6.83-1.45,13.65-1.01,20.51-.28-.62-.83-1.85-1.1-2.46.16-4.08-.03-8.17-.46-12.23.56-5.53,1.28-11.06,1.33-16.62.26-.05.8-.14,1.06-.18.38,1.02.71,2.06,1.06,3.1,7.07-.3,13.96-2.11,20.87-3.54,1.63-.68,3.92-.52,4.86-2.27-.2-.49-.62-1.46-.82-1.95M100.29,349c.51-.06,1.53-.18,2.03-.24,5.04,6.03,11.91,10.09,18.74,13.77-.1.71-.2,1.44-.29,2.16-7.61-4.12-14.81-9.07-20.48-15.69M118.92,389.8c-1.55-7.87-2.18-16.76,1.78-24.03.17,5.81-1.49,11.55-.77,17.37,1.62,13.82,8.21,28.11,20.7,35.23,9.23,5.52,20.17,6.38,30.47,8.58,8.73,2.03,17.68,2.76,26.49,4.35,11.96,1.51,24.09.94,36.06,2.32,7.03.49,14.08-.14,21.11.23,6.38.38,11.64,4.47,16.75,7.88,2.72-1.85,5.44-3.72,8.35-5.27,2.02-.62,4.12-.93,6.22-1.16l1.04.22c-1.93,1.78-4.58,2.2-6.89,3.27-3.16,1.29-5.72,3.59-8.6,5.37-5.97-4.1-12.33-8.71-19.98-8.43-24.36.74-48.88-.26-72.84-4.94-10.68-2.74-21.94-3.15-32.24-7.35-14.34-5.28-24.61-18.9-27.65-33.64h0Z"/>
      <path class="cls-87" d="M321.61,331.67c6.87-1.3,13.65-3.02,20.53-4.26.43,1.11.87,2.23,1.32,3.34-3.07,5.45-3.7,11.84-6.1,17.57.06-1.7.07-3.39.1-5.08-3.99,11.96-7.49,24.08-10.48,36.32-1.27.27-2.53.49-3.8.73-1.03-3.39-2.08-6.78-3.23-10.12-.11,1.39-.21,2.78-.27,4.19-1.77-5.15-3.37-10.35-4.35-15.7-.44-6.86.55-13.68,1.01-20.51.06.49.19,1.47.26,1.96,1.91-2.67,3.55-5.51,5.01-8.44h0Z"/>
      <path class="cls-7" d="M345.3,328c3.28-.32,6.58-.33,9.88-.36.53,6.6-1.15,13.06-1,19.65-.81,9-.76,18.06-2,27.02.14,6.61-.89,13.15-1.04,19.75-6.13-.06-11.98-2.2-17.56-4.54-2.1-1.22-4.47-2.31-5.83-4.41-.06-2.04.36-4.05.73-6.04,3.29-10.15,5.62-20.58,8.88-30.75,2.4-5.73,3.03-12.12,6.1-17.57.6-.93,1.21-1.84,1.84-2.75h0Z"/>
      <path class="cls-1" d="M361.29,327.88c3.79.47,8.42-1.2,11.55,1.58,4.17,12.5,8.33,24.99,12.08,37.63,2.08,5.83,3.11,11.99,5.53,17.71-4.36,3.42-9.76,4.96-14.88,6.84-2.91,1.07-6,1.6-9.09,1.39-.18-14.32-3.31-28.39-3.46-42.71-.78-7.46-1.98-14.91-1.73-22.44h0Z"/>
      <path class="cls-70" d="M326.98,379.56c2.99-12.24,6.49-24.36,10.48-36.32-.03,1.69-.04,3.38-.1,5.08-3.26,10.17-5.59,20.6-8.88,30.75-.37.13-1.13.37-1.5.49M322.87,381.24c1.39,1.79,2.91,3.52,3.9,5.58,1.01,2.91.98,6.06,1.13,9.11-1.85-3.85-3.72-7.7-5.26-11.68.06-.75.18-2.26.23-3.01h0Z"/>
      <path class="cls-25" d="M233.73,360.23c1.24-2.97,2.88-5.82,5.51-7.79-1.73,3.33-2.09,7.6,1.16,10.16,11.73,9.89,23.43,19.87,33.84,31.18,2.67,3.08,6.22,5.65,7.66,9.6-.87,6.78-2.74,13.4-3.92,20.12-.01,1.76-.6,4.22,1.33,5.21,4.33.96,8.93.54,13.1,2.3l-.92.91c-5.16-.16-10.26-1.08-15.25-2.37-1.5-5.96,1.03-11.83,2.15-17.62.73-3.73,1.95-8.21-.95-11.35-12.26-15.76-28.4-27.78-43.71-40.35M286.08,435.3c8.11-2.07,16.4.22,24.62-.04,9.73,1,19.42-.87,29.17-.36-4.65,1.23-9.47.78-14.21,1.02-8.58,1.19-17.34,1.54-25.97.76-4.14-.98-8.43-.38-12.57-1.16l-1.04-.22h0Z"/>
      <path class="cls-22" d="M305.32,354.89c3.01-.01,6.19-.28,8.91,1.31.27.61.82,1.84,1.1,2.46.98,5.35,2.58,10.55,4.35,15.7.82,3.34,1.67,6.69,2.96,9.89,1.54,3.98,3.41,7.83,5.26,11.68,1.33,3.52,3.56,6.57,5.74,9.61,1.56,2.97,3.09,5.96,4.83,8.84,2.03,3.56,4.25,7.01,6.08,10.68-3.62,1.37-7.3,2.61-11.04,3.58-3.4.67-6.81,1.28-10.26,1.57-4.99-13.67-9.23-27.63-12.51-41.82-2.25-11.09-3.84-22.3-5.42-33.5h0Z"/>
      <path class="cls-30" d="M319.95,370.17c1.15,3.34,2.2,6.73,3.23,10.12,1.27-.24,2.53-.46,3.8-.73.37-.12,1.13-.36,1.5-.49-.37,1.99-.79,4-.73,6.04,1.36,2.1,3.73,3.19,5.83,4.41-1.1.27-2.19.55-3.28.82-.58,5.33,1.82,10.24,3.34,15.2-2.18-3.04-4.41-6.09-5.74-9.61-.15-3.05-.12-6.2-1.13-9.11-.99-2.06-2.51-3.79-3.9-5.58-.05.75-.17,2.26-.23,3.01-1.29-3.2-2.14-6.55-2.96-9.89.06-1.41.16-2.8.27-4.19h0Z"/>
      <path class="cls-52" d="M424.57,373.44c1.33,5.25,1.94,10.77.49,16.07-.23-5.36-.27-10.72-.49-16.07h0Z"/>
      <path class="cls-19" d="M381.25,392.04c1.38-.73,2.8-1.38,4.22-2.02-2.08,5.23-3.52,10.71-3.82,16.36-.25,6.17-4.03,12.09-2.35,18.32,1.64,1.29,3.71,1.86,5.67,2.51-2.65.54-5.35.71-8.03.89-.51-12.18,3.5-23.95,4.31-36.06h0Z"/>
      <path class="cls-81" d="M330.3,390.34c5.23,1.63,10.28,3.82,15.6,5.17.09,3.38.05,6.76.17,10.13.14,4.6.6,9.19,1.05,13.77-2.9-1.64-5.83-3.25-8.65-5.03-1.74-2.88-3.27-5.87-4.83-8.84-1.52-4.96-3.92-9.87-3.34-15.2h0Z"/>
      <path class="cls-13" d="M365.49,401.13c4.19-1.28,8.57-1.85,12.86-2.7-.04.71-.11,2.11-.15,2.81-1.84,8.57-3.07,17.35-3.13,26.13-3.51,1.03-7.06,1.93-10.68,2.52-.05-9.16-.2-18.33.05-27.48.26-.32.78-.96,1.05-1.28h0Z"/>
      <path class="cls-32" d="M346.07,405.64c.35-2.39.8-4.78,1.22-7.16.47,4.13,1.37,8.2,1.61,12.36-1.32,2.78-1.45,5.73.29,8.36.98,2.65,1.38,5.47,1.25,8.29-.17.58-.51,1.73-.69,2.31-.72-3.51-1.87-6.9-2.63-10.39-.45-4.58-.91-9.17-1.05-13.77h0Z"/>
      <path class="cls-80" d="M347.29,398.48c4.36.52,8.65,1.58,12.96,2.42.17,9.54.15,19.09-.07,28.63-3.29-.5-6.53-1.23-9.74-2.04.13-2.82-.27-5.64-1.25-8.29-.1-2.79-.08-5.58-.29-8.36-.24-4.16-1.14-8.23-1.61-12.36h0Z"/>
      <path class="cls-43" d="M349.19,419.2c-1.74-2.63-1.61-5.58-.29-8.36.21,2.78.19,5.57.29,8.36h0Z"/>
      <path class="cls-3" d="M338.47,414.38c2.82,1.78,5.75,3.39,8.65,5.03.76,3.49,1.91,6.88,2.63,10.39-.16.52-.48,1.57-.64,2.09-2.16-1.81-3.41-4.33-4.56-6.83-1.83-3.67-4.05-7.12-6.08-10.68h0Z"/>
      <path class="cls-6" d="M338.48,428.81c1.82-.29,3.63-.65,5.45-.99.78,1.82,1.5,3.68,2.16,5.56-2.02.68-4.05,1.52-6.22,1.52-9.75-.51-19.44,1.36-29.17.36-8.22.26-16.51-2.03-24.62.04-2.1.23-4.2.54-6.22,1.16-1.24-2.29-2.52-4.56-3.62-6.91,4.99,1.29,10.09,2.21,15.25,2.37,7.69,1.56,15.45-.27,23.19-.14,8.04.17,15.93-1.57,23.8-2.97h0Z"/>
      <path class="cls-33" d="M155.94,437.45c4.31-1.02,8.44,1.34,12.76,1.26,6.78-.04,13.21,2.41,19.93,2.82,10.3.27,20.49,2.04,30.79,2.31,11.25,1.34,22.61.02,33.88,1.05,6.87.5,10.26,7.68,16.63,9.38,2.16,1.07,4.16-.71,5.97-1.69,4.09-2.74,8.79-4.75,13.77-4.93,9-.28,18.02.15,27.03-.19,6.65-.51,13.26-1.54,19.95-1.46,6.85.14,13.08-3.55,19.94-3.33,9.27.43,18.02-3.75,27.29-3.06-5.94,7.55-14.49,12.81-23.8,15.04-12.12,4.99-25.4,4.97-38.15,6.98-6.93,2.04-14.47.78-21.19,3.68-8.11,3.6-16.55,8.06-21.09,16.08-4.65,7.12-2.81,15.95-3.18,23.95-.41,6.63.99,13.45-.94,19.93-2.72-.28-5.69-.11-8.07-1.67-.72-1.28-.58-2.81-.69-4.21-.14-9.69-.17-19.39-.65-29.07-.09-6.34-4.66-11.55-9.68-14.9-3.55-2.35-5.68-6.46-9.7-8.14-5.33-2.28-11.1-3.25-16.85-3.66-17.58-2.11-35.46-4.53-51.87-11.51-7.68-3.08-14.32-8.13-21.85-11.49-.08-1.06-.15-2.12-.23-3.17h0Z"/>
      <path class="cls-5" d="M178.02,452.11c16.41,6.98,34.29,9.4,51.87,11.51-1.03.69-2.06,1.39-3.09,2.09,1.94,1.21,3.95,2.46,5.07,4.53-11.63-1.09-23.08-3.48-34.6-5.37-8.26-1.34-16.21-4.09-24.11-6.77,1.62-.81,3.25-1.61,4.89-2.39-.01-1.2-.03-2.41-.03-3.6h0Z"/>
      <path class="cls-94" d="M334.96,478.59c3.98-4.24,10.25-4.55,15.68-3.91,2.34.45,4.64,1.78,5.64,4.04,1.9,2.9.38,6.36-1.33,8.94,4.75,1.36,6.65,7.24,4.73,11.52-2.08,4.99-7.96,7.05-13.01,6.88-2.7-.16-5.95.43-8.05-1.68-2.09-1.65-3.56-3.9-4.88-6.17,1.63-2.78,4.95-2.41,7.74-2.52,1.3.7,1.38,2.55,2.32,3.65,2.24.93,5.1.79,6.99-.86.61-1.52.44-3.2.54-4.79-2.33-.52-4.71-.71-7.07-.84-.01-1.66-.04-3.31-.07-4.95,2-1.35,5.81-2.4,4.85-5.5-2.34-2.59-6.45-1.16-7.76,1.72-1.46,2.97-5.46,2.55-8.26,2.87-1.44-2.93.31-5.98,1.94-8.4h0Z"/>
      <path class="cls-82" d="M203.67,483.75c1.85-.91,2.53-3.26,4.35-4.08,2.16.16,4.24.83,6.36,1.26-.31,6.57-2.52,12.83-3.84,19.23-.85,3.62-1.33,7.36-2.87,10.79-2.59-.59-5.18-1.15-7.71-1.95.1-5.79,1.47-11.51,3.16-17.02-2.43-.6-4.82-1.36-7.15-2.25.43-2.01.85-4.02,1.19-6.04,2.16.2,4.34.39,6.51.06h0Z"/>
      <path class="cls-58" d="M303.37,484.1c4.05-2.07,8.9-3.05,13.4-2.1,4.69.76,8.26,5.61,7.48,10.32-.22,5.84-6.94,8.22-8.73,13.31,4.13-.67,8.13-2.16,12.38-1.96.46,2.34,1.28,4.72.59,7.12-8.17,1.46-16.42,2.69-24.32,5.33-1.44-2.23-1.39-5.17-.51-7.57,3.04-4.63,6.77-8.75,10.61-12.72,1.66-1.54,1.27-4.07.83-6.05-1.36-1.64-4.33-1.32-5.75.11-1.96,1.17-1.03,3.75-1.32,5.62-2.82.81-5.66,1.58-8.47,2.45-1.99-4.83-.57-10.83,3.81-13.86h0Z"/>
      <path class="cls-79" d="M225.63,485.32c5.53-3.1,12.55-.98,17.07,2.96,7.24,7.43,4.14,20.49-3.92,26.02-5.59,3.17-12.78,1.25-17.65-2.42-2.1-1.43-2.77-3.93-3.26-6.26,2.68.12,5.73-.22,7.99,1.56,1.82,1.11,3.47,3.1,5.83,2.67,1.73-1.02,3-2.59,4.32-4.06-3.39-.04-7.36.85-10.13-1.67-2.88-2.47-6.26-5.62-5.79-9.77-.49-3.86,2.41-7.19,5.54-9.03M232.7,499.83c3,.74,4.76-1.99,5.57-4.42-.66-1.23-1.31-2.45-1.96-3.67-1.46-.08-3.02-.99-4.42-.3-3.83,1.21-3.49,8.27.81,8.39h0Z"/>
      <path class="cls-23" d="M232.7,499.83c-4.3-.12-4.64-7.18-.81-8.39,1.4-.69,2.96.22,4.42.3.65,1.22,1.3,2.44,1.96,3.67-.81,2.43-2.57,5.16-5.57,4.42h0Z"/>
    </g>
  </g>
</svg>