<?xml version="1.0" encoding="iso-8859-1"?>
<!-- Generator: Adobe Illustrator 29.7.1, SVG Export Plug-In . SVG Version: 9.03 Build 0)  -->
<svg version="1.1" id="Layer_1" xmlns="http://www.w3.org/2000/svg" xmlns:xlink="http://www.w3.org/1999/xlink" x="0px" y="0px"
	 viewBox="0 0 1920 1080" style="enable-background:new 0 0 1920 1080;" xml:space="preserve">
<g>
	
		<polygon style="fill-rule:evenodd;clip-rule:evenodd;fill:#E6E7E8;stroke:#000000;stroke-width:0.7824;stroke-miterlimit:22.9256;" points="
		959.895,499.392 960.886,499.471 962.482,499.492 963.466,499.633 964.571,499.694 965.422,499.896 965.483,504.677 
		968.369,505.26 971.154,506 973.531,501.883 975.042,502.396 975.934,502.834 977.409,503.442 978.272,503.935 979.707,504.634 
		980.537,505.18 978.825,509.676 980.955,511.146 983.232,512.93 987.106,510.035 988.018,510.765 988.686,511.501 989.835,512.609 
		990.456,513.385 991.532,514.563 992.103,515.377 992.739,516.316 989.367,519.717 990.896,521.993 991.832,523.562 
		996.435,522.341 997.002,523.324 997.353,524.254 998.013,525.707 998.305,526.657 998.872,528.149 999.103,529.115 
		999.394,530.092 995.065,531.983 995.502,534.811 995.767,537.127 1000.615,537.694 1000.733,538.308 1000.717,539.301 
		1000.795,540.895 1000.717,541.886 1000.695,543.482 1000.554,544.466 1000.372,546.422 995.511,546.483 994.988,549.248 
		994.309,551.728 998.365,554.044 997.791,556.042 997.353,556.934 996.746,558.409 996.253,559.272 995.554,560.707 
		995.007,561.537 990.573,559.825 988.942,562.103 987.075,564.475 990.091,568.167 989.422,569.018 988.686,569.686 
		987.578,570.835 986.802,571.456 985.624,572.532 984.811,573.103 984.297,573.496 980.774,570.185 978.896,571.448 
		976.443,572.832 977.664,577.496 976.864,578.002 975.934,578.353 974.481,579.013 973.531,579.305 972.039,579.872 
		971.072,580.103 970.156,580.272 968.447,575.944 965.787,576.55 962.615,576.874 962.123,581.733 960.886,581.717 
		959.292,581.795 958.302,581.717 956.706,581.695 955.722,581.554 954.131,581.433 954.13,576.55 951.395,576.085 948.795,575.457 
		946.575,579.686 945.657,579.305 944.146,578.791 943.254,578.353 941.778,577.746 940.915,577.253 939.48,576.554 
		938.528,575.886 940.302,571.451 938.597,570.284 935.955,568.318 932.385,571.456 931.169,570.422 930.501,569.686 
		929.352,568.579 928.732,567.802 927.655,566.624 926.902,565.446 930.185,561.957 928.596,559.681 927.294,557.321 
		922.935,559.272 922.185,557.864 921.834,556.934 921.174,555.481 920.883,554.531 920.315,553.039 920.084,552.072 
		919.855,551.278 924.244,548.961 923.638,546.24 923.314,543.371 918.515,543.245 918.471,541.886 918.392,540.292 
		918.471,539.302 918.492,537.706 918.633,536.722 918.755,535.131 923.759,534.644 924.138,532.061 924.886,529.419 
		920.684,527.088 920.883,526.657 921.396,525.146 921.834,524.254 922.442,522.778 922.935,521.915 923.634,520.48 
		923.997,520.015 928.493,521.545 930.268,519.232 931.626,517.32 928.549,513.568 929.765,512.169 930.501,511.501 
		931.609,510.352 932.385,509.732 933.563,508.655 934.377,508.084 938.112,511.278 940.048,509.922 943.164,508.129 
		941.837,503.428 943.254,502.834 944.707,502.174 945.657,501.883 947.148,501.316 948.115,501.084 949.639,500.611 
		951.47,505.122 953.826,504.698 956.877,504.192 957.308,499.454 958.301,499.471 959.895,499.392 	"/>
	
		<path style="fill-rule:evenodd;clip-rule:evenodd;fill:#ED1C24;stroke:#000000;stroke-width:0.6001;stroke-miterlimit:22.9256;" d="
		M959.594,511.468c16.083,0,29.126,13.043,29.126,29.126c0,16.083-13.043,29.126-29.126,29.126
		c-16.083,0-29.126-13.043-29.126-29.126C930.468,524.511,943.511,511.468,959.594,511.468L959.594,511.468z"/>
	<path style="fill-rule:evenodd;clip-rule:evenodd;fill:#FFFFFF;" d="M967.408,521.942c4.211,0,7.625,3.415,7.625,7.625
		c0,4.211-3.415,7.625-7.625,7.625c-4.211,0-7.625-3.415-7.625-7.625C959.782,525.357,963.197,521.942,967.408,521.942
		L967.408,521.942z"/>
	<path style="fill-rule:evenodd;clip-rule:evenodd;fill:#ED1C24;" d="M969.522,523.452c3.377,0,6.116,2.739,6.116,6.115
		c0,3.377-2.739,6.115-6.116,6.115c-3.377,0-6.115-2.739-6.115-6.115C963.406,526.191,966.145,523.452,969.522,523.452
		L969.522,523.452z"/>
	<polygon style="fill-rule:evenodd;clip-rule:evenodd;fill:#FFFFFF;" points="976.346,526.873 977.897,528.813 980.263,528.056 
		978.898,530.131 980.349,532.148 977.953,531.491 976.484,533.493 976.369,531.012 974.01,530.233 976.334,529.357 
		976.346,526.873 	"/>
	<g>
		<defs>
			<path id="SVGID_1_" d="M988.301,546.257c0,0-3.841,21.623-28.081,23.414h-3.033c0,0-12.943-0.138-22.033-12.946v-5.937
				l3.168-1.225v-1.653l2.479-1.653v-6.748l10.605-17.078v-4.822h-1.111l0.422-1.651h2.758l0.823,1.653h-1.102v11.845l3.03,3.856
				v6.198h1.377v1.11h-1.377v4.399l3.856,3.994l4.407-3.857l3.719,3.719l3.856-3.443l3.856,3.443l4.27-3.856l4.27,3.719
				L988.301,546.257L988.301,546.257z"/>
		</defs>
		<clipPath id="SVGID_00000011718125138927324110000010921048817368443568_">
			<use xlink:href="#SVGID_1_"  style="overflow:visible;"/>
		</clipPath>
		<g style="clip-path:url(#SVGID_00000011718125138927324110000010921048817368443568_);">
			<defs>
				
					<rect id="SVGID_00000158020586871795675970000004386667030329258658_" x="935.154" y="515.958" width="53.147" height="53.713"/>
			</defs>
			<clipPath id="SVGID_00000093161649963794112510000009409642846447702429_">
				<use xlink:href="#SVGID_00000158020586871795675970000004386667030329258658_"  style="overflow:visible;"/>
			</clipPath>
			<g style="clip-path:url(#SVGID_00000093161649963794112510000009409642846447702429_);">
				
					<image style="overflow:visible;" width="116" height="116" xlink:href="A7E1BB799D8CEF19.png"  transform="matrix(0.48 0 0 -0.48 933.8498 570.8547)">
				</image>
			</g>
		</g>
	</g>
	<polygon style="fill-rule:evenodd;clip-rule:evenodd;fill:#ED1C24;" points="951.543,524.772 951.543,529.042 948.789,532.898 
		948.789,539.51 947.542,539.51 947.542,540.473 944.37,540.473 944.37,547.085 948.523,547.085 948.523,552.737 947.289,553.067 
		947.289,548.321 944.654,548.321 942.454,546.12 942.454,539.645 951.543,524.772 	"/>
	<polygon style="fill-rule:evenodd;clip-rule:evenodd;fill:#ED1C24;" points="952.36,530.904 950.345,533.531 950.345,539.224 
		952.272,539.224 952.272,537.208 952.978,537.208 952.978,539.231 954.724,539.231 954.724,533.441 952.36,530.904 	"/>
	<polygon style="fill-rule:evenodd;clip-rule:evenodd;fill:#ED1C24;" points="947.805,540.975 948.498,542.175 948.498,543.606 
		945.177,543.606 947.805,540.975 	"/>
	<polygon style="fill-rule:evenodd;clip-rule:evenodd;fill:#ED1C24;" points="945.178,544.128 948.507,544.128 948.507,546.843 
		945.178,544.128 	"/>
	<polygon style="fill-rule:evenodd;clip-rule:evenodd;fill:#ED1C24;" points="950.433,541.151 950.433,543.428 952.447,542.727 
		952.447,542.026 950.433,541.151 	"/>
	<polygon style="fill-rule:evenodd;clip-rule:evenodd;fill:#ED1C24;" points="955.162,541.151 955.162,543.428 953.148,542.727 
		953.148,542.026 955.162,541.151 	"/>
	<polygon style="fill-rule:evenodd;clip-rule:evenodd;fill:#ED1C24;" points="937.033,554.989 937.033,551.922 938.262,551.922 
		938.262,554.465 937.033,554.989 	"/>
	<path style="fill-rule:evenodd;clip-rule:evenodd;fill:#ED1C24;" d="M944.74,551.923v1.138h2.104v-3.682
		C946.844,549.379,944.74,551.836,944.74,551.923L944.74,551.923z"/>
	<polygon style="fill-rule:evenodd;clip-rule:evenodd;fill:#ED1C24;" points="944.652,553.675 944.652,556.653 946.842,557.966 
		946.842,556.653 945.09,555.339 945.09,554.814 946.93,556.127 946.93,553.669 944.652,553.675 	"/>
	<polygon style="fill-rule:evenodd;clip-rule:evenodd;fill:#ED1C24;" points="945.355,548.595 946.492,548.595 946.492,549.208 
		945.353,550.481 945.355,548.595 	"/>
	<polygon style="fill-rule:evenodd;clip-rule:evenodd;fill:#FFFFFF;" points="955.277,547.942 955.845,547.396 958.638,550.299 
		958.07,550.846 955.277,547.942 	"/>
	<polygon style="fill-rule:evenodd;clip-rule:evenodd;fill:#FFFFFF;" points="964.123,547.942 964.691,547.396 967.484,550.299 
		966.916,550.846 964.123,547.942 	"/>
	<polygon style="fill-rule:evenodd;clip-rule:evenodd;fill:#FFFFFF;" points="971.655,547.942 972.223,547.396 975.016,550.299 
		974.448,550.846 971.655,547.942 	"/>
	<polygon style="fill-rule:evenodd;clip-rule:evenodd;fill:#FFFFFF;" points="979.888,547.942 980.456,547.396 983.249,550.299 
		982.681,550.846 979.888,547.942 	"/>
	<path d="M935.207,565.087c-0.165,0.181-0.238,0.372-0.217,0.576c0.02,0.203,0.132,0.397,0.333,0.582
		c0.211,0.193,0.432,0.294,0.662,0.305c0.23,0.01,0.432-0.072,0.607-0.246c0.182-0.182,0.259-0.382,0.229-0.6
		c-0.029-0.217-0.161-0.434-0.397-0.65c-0.026-0.024-0.047-0.043-0.062-0.055c-0.014-0.012-0.029-0.023-0.044-0.034l0.221-0.221
		c0.011,0.01,0.026,0.025,0.044,0.044c0.019,0.02,0.033,0.034,0.042,0.043c0.229,0.209,0.452,0.322,0.669,0.342
		c0.218,0.018,0.414-0.059,0.587-0.233c0.162-0.163,0.233-0.346,0.21-0.551c-0.024-0.204-0.136-0.399-0.337-0.584
		c-0.187-0.172-0.381-0.261-0.582-0.268c-0.2-0.008-0.395,0.065-0.583,0.22l-0.264-0.242c0.236-0.213,0.505-0.311,0.807-0.295
		c0.302,0.016,0.584,0.144,0.846,0.384c0.272,0.248,0.422,0.521,0.45,0.82c0.029,0.299-0.068,0.56-0.291,0.782
		c-0.162,0.161-0.347,0.249-0.557,0.262c-0.211,0.013-0.436-0.047-0.677-0.181c0.165,0.238,0.242,0.467,0.232,0.686
		c-0.01,0.218-0.107,0.42-0.292,0.605c-0.231,0.23-0.509,0.337-0.834,0.319c-0.325-0.016-0.632-0.157-0.919-0.419
		c-0.283-0.259-0.439-0.536-0.47-0.831c-0.03-0.294,0.071-0.567,0.304-0.818L935.207,565.087L935.207,565.087z M942.003,571.234
		l1.891-3.546l0.366,0.174l0.367,4.065l1.655-3.103l0.311,0.148l-1.891,3.546l-0.403-0.192l-0.356-3.996l-1.628,3.052
		L942.003,571.234L942.003,571.234z M947.691,573.605l1.362-3.754l0.352,0.111l-1.362,3.754L947.691,573.605L947.691,573.605z
		 M949.219,569.319l0.161-0.443l0.401,0.127l-0.16,0.443L949.219,569.319L949.219,569.319z M951.462,573.66
		c-0.044,0.244,0.005,0.446,0.147,0.604c0.143,0.16,0.373,0.267,0.692,0.322c0.3,0.052,0.559,0.025,0.776-0.08
		c0.217-0.105,0.348-0.267,0.393-0.485c0.023-0.113,0.02-0.216-0.01-0.312c-0.03-0.094-0.09-0.187-0.18-0.275
		c-0.058-0.056-0.204-0.146-0.439-0.27c-0.145-0.075-0.26-0.135-0.342-0.182c-0.406-0.227-0.676-0.434-0.806-0.621
		c-0.132-0.188-0.172-0.405-0.121-0.653c0.063-0.302,0.232-0.529,0.509-0.679c0.277-0.15,0.607-0.191,0.991-0.125
		c0.401,0.069,0.699,0.2,0.893,0.391c0.194,0.191,0.272,0.431,0.232,0.722l-0.371-0.064c0.026-0.2-0.026-0.364-0.157-0.496
		c-0.131-0.131-0.333-0.219-0.605-0.267c-0.292-0.05-0.54-0.026-0.743,0.075c-0.202,0.101-0.327,0.26-0.371,0.476
		c-0.037,0.175-0.003,0.329,0.099,0.459c0.102,0.131,0.36,0.307,0.772,0.53c0.027,0.016,0.067,0.039,0.12,0.068
		c0.372,0.202,0.609,0.362,0.706,0.485c0.095,0.117,0.158,0.238,0.188,0.365c0.031,0.126,0.03,0.263,0,0.41
		c-0.068,0.325-0.246,0.562-0.533,0.709c-0.288,0.147-0.646,0.183-1.074,0.109c-0.424-0.073-0.732-0.216-0.924-0.429
		c-0.192-0.212-0.267-0.497-0.227-0.854L951.462,573.66L951.462,573.66z M956.983,574.046l1.792,0.036l-0.804-2.273L956.983,574.046
		L956.983,574.046z M955.997,575.405l1.769-3.918l0.453,0.009l1.454,3.983l-0.406-0.008l-0.391-1.088l-2.015-0.041l-0.479,1.071
		L955.997,575.405L955.997,575.405z M962.343,575.28l-0.554-3.904l0.408-0.061l2.739,3.085l-0.485-3.418l0.346-0.051l0.554,3.905
		l-0.449,0.067l-2.69-3.034l0.477,3.362L962.343,575.28L962.343,575.28z M973.473,572.343l-1.495-3.083
		c-0.097,0.198-0.191,0.369-0.283,0.515c-0.093,0.146-0.182,0.264-0.268,0.354l-0.151-0.311c0.1-0.118,0.195-0.255,0.285-0.406
		c0.09-0.152,0.175-0.325,0.253-0.516l0.318-0.146l1.67,3.442L973.473,572.343L973.473,572.343z M975.733,568.214
		c0.153,0.226,0.34,0.364,0.561,0.415c0.221,0.051,0.442,0.007,0.663-0.133c0.248-0.157,0.401-0.352,0.459-0.584
		c0.057-0.231,0.011-0.459-0.14-0.682c-0.152-0.224-0.347-0.36-0.586-0.41c-0.239-0.05-0.473-0.002-0.703,0.144
		c-0.226,0.143-0.363,0.332-0.41,0.565C975.53,567.763,975.582,567.991,975.733,568.214L975.733,568.214z M977.685,567.707
		c0.028,0.193-0.009,0.383-0.11,0.57c-0.101,0.187-0.25,0.343-0.448,0.468c-0.309,0.195-0.619,0.264-0.93,0.205
		c-0.31-0.059-0.565-0.235-0.763-0.527c-0.211-0.311-0.282-0.624-0.212-0.94c0.07-0.316,0.265-0.576,0.589-0.781
		c0.395-0.25,0.776-0.307,1.141-0.171c0.365,0.136,0.729,0.471,1.093,1.007c0.389,0.573,0.583,1.062,0.581,1.469
		c-0.002,0.406-0.201,0.736-0.597,0.986c-0.313,0.198-0.615,0.284-0.906,0.257c-0.292-0.027-0.525-0.163-0.703-0.407l0.322-0.204
		c0.139,0.168,0.307,0.262,0.503,0.281c0.196,0.02,0.4-0.038,0.611-0.172c0.288-0.182,0.426-0.429,0.416-0.741
		c-0.01-0.312-0.168-0.693-0.474-1.145c-0.011-0.016-0.03-0.042-0.055-0.076C977.717,567.754,977.698,567.727,977.685,567.707
		L977.685,567.707z M980.886,566.745c0.174,0.167,0.367,0.246,0.581,0.236c0.214-0.009,0.426-0.106,0.636-0.289
		c0.22-0.192,0.345-0.398,0.377-0.617c0.031-0.219-0.037-0.417-0.203-0.592c-0.174-0.183-0.375-0.267-0.605-0.249
		c-0.229,0.017-0.467,0.132-0.712,0.346c-0.028,0.024-0.048,0.042-0.062,0.056c-0.014,0.013-0.027,0.027-0.04,0.041l-0.21-0.222
		c0.012-0.01,0.028-0.023,0.05-0.04c0.023-0.017,0.039-0.03,0.048-0.038c0.238-0.208,0.376-0.415,0.416-0.622
		c0.039-0.208-0.025-0.398-0.19-0.573c-0.155-0.164-0.34-0.24-0.556-0.228c-0.215,0.012-0.427,0.109-0.638,0.292
		c-0.195,0.17-0.305,0.351-0.331,0.542c-0.026,0.19,0.033,0.38,0.177,0.568l-0.276,0.241c-0.2-0.237-0.279-0.498-0.236-0.786
		c0.044-0.288,0.202-0.551,0.475-0.789c0.283-0.247,0.581-0.376,0.894-0.389c0.314-0.012,0.577,0.094,0.789,0.318
		c0.154,0.162,0.229,0.344,0.224,0.546c-0.005,0.202-0.087,0.414-0.249,0.638c0.263-0.145,0.509-0.208,0.736-0.186
		c0.227,0.02,0.428,0.124,0.604,0.31c0.22,0.232,0.306,0.503,0.259,0.813c-0.046,0.31-0.219,0.595-0.519,0.856
		c-0.295,0.257-0.597,0.393-0.907,0.406c-0.31,0.014-0.585-0.096-0.825-0.331L980.886,566.745L980.886,566.745z M985.591,563.82
		l-1.767-3.38l-1.393,1.599l-0.26-0.206l1.622-1.862l0.301,0.239l1.779,3.287L985.591,563.82L985.591,563.82z"/>
	<path d="M929.847,534.012l-3.992-1.072l0.101-0.332l1.77,0.475l-1.263-2.13l0.129-0.42l1.298,2.208l2.742-1.291l-0.132,0.431
		l-2.646,1.237l2.095,0.562L929.847,534.012L929.847,534.012z M929.844,528.366l0.763-1.532l-2.53-0.17L929.844,528.366
		L929.844,528.366z M930.761,529.732l-3.081-3.015l0.193-0.388l4.454,0.26l-0.173,0.347l-1.214-0.076l-0.858,1.723l0.844,0.82
		L930.761,529.732L930.761,529.732z M931.478,523.383l0.417-0.602c0.23-0.331,0.344-0.606,0.344-0.824
		c-0.001-0.217-0.115-0.395-0.345-0.535c-0.216-0.132-0.416-0.162-0.6-0.092c-0.184,0.07-0.379,0.254-0.585,0.551l-0.505,0.728
		L931.478,523.383L931.478,523.383z M933.214,524.844l-3.483-2.118l0.693-0.999c0.271-0.391,0.542-0.639,0.813-0.745
		c0.271-0.105,0.55-0.071,0.837,0.103c0.208,0.127,0.343,0.286,0.405,0.479c0.062,0.194,0.049,0.411-0.036,0.655
		c0.12-0.126,0.242-0.206,0.366-0.242c0.122-0.035,0.263-0.031,0.423,0.013c0.111,0.032,0.335,0.13,0.671,0.293
		c0.338,0.164,0.625,0.272,0.862,0.324l-0.228,0.329c-0.167-0.043-0.404-0.138-0.71-0.285c-0.307-0.148-0.537-0.248-0.692-0.302
		c-0.169-0.059-0.307-0.07-0.414-0.033c-0.106,0.037-0.21,0.13-0.313,0.279l-0.66,0.951l1.665,1.012L933.214,524.844
		L933.214,524.844z M935.309,519.367l1.254-1.216l-2.333-0.932L935.309,519.367L935.309,519.367z M935.701,520.938l-1.865-3.79
		l0.317-0.308l4.12,1.603l-0.284,0.275l-1.122-0.442l-1.41,1.367l0.513,1.033L935.701,520.938L935.701,520.938z M939.801,516.676
		l0.713-0.522c0.281-0.205,0.457-0.42,0.528-0.642c0.072-0.222,0.03-0.427-0.125-0.613c-0.18-0.216-0.39-0.319-0.631-0.309
		c-0.24,0.01-0.523,0.133-0.847,0.371l-0.663,0.485L939.801,516.676L939.801,516.676z M938.585,515.218l0.586-0.429
		c0.315-0.231,0.504-0.441,0.566-0.632c0.063-0.191,0.009-0.388-0.16-0.592c-0.153-0.183-0.337-0.266-0.551-0.249
		c-0.215,0.017-0.475,0.136-0.778,0.358l-0.591,0.432L938.585,515.218L938.585,515.218z M939.721,517.133l-2.557-3.064l0.83-0.607
		c0.412-0.301,0.774-0.462,1.09-0.484c0.315-0.022,0.58,0.096,0.795,0.354c0.143,0.172,0.211,0.355,0.202,0.551
		c-0.008,0.196-0.091,0.389-0.248,0.58c0.273-0.136,0.534-0.186,0.779-0.151c0.246,0.036,0.452,0.154,0.618,0.353
		c0.233,0.279,0.299,0.572,0.196,0.876c-0.102,0.304-0.369,0.615-0.802,0.932L939.721,517.133L939.721,517.133z M943.162,512.82
		l-1.137-2.088l0.329-0.157l1.1,2.022c0.233,0.427,0.484,0.701,0.755,0.819c0.269,0.118,0.58,0.095,0.931-0.073
		c0.342-0.163,0.545-0.388,0.605-0.674c0.061-0.285-0.02-0.631-0.241-1.038l-1.106-2.032l0.294-0.14l1.106,2.032
		c0.16,0.294,0.259,0.522,0.297,0.683c0.038,0.162,0.043,0.319,0.014,0.476c-0.039,0.205-0.128,0.39-0.27,0.554
		c-0.142,0.165-0.331,0.303-0.567,0.416c-0.442,0.211-0.84,0.249-1.192,0.114C943.727,513.602,943.421,513.297,943.162,512.82
		L943.162,512.82z M943.314,509.489l-0.207-0.381l0.354-0.169l0.207,0.381L943.314,509.489L943.314,509.489z M942.509,509.873
		l-0.207-0.381l0.353-0.169l0.208,0.381L942.509,509.873L942.509,509.873z M948.852,511.949l-1.283-3.698l0.351-0.107l0.569,1.64
		l1.18-2.172l0.445-0.135l-1.229,2.242l2.676,1.407l-0.455,0.139l-2.575-1.362l0.673,1.94L948.852,511.949L948.852,511.949z
		 M958.836,509.655l0.905,0.015c0.356,0.006,0.637-0.057,0.842-0.188c0.206-0.131,0.31-0.314,0.314-0.55
		c0.005-0.273-0.089-0.478-0.283-0.612c-0.194-0.134-0.496-0.204-0.907-0.211l-0.842-0.014L958.836,509.655L958.836,509.655z
		 M958.87,507.805l0.744,0.012c0.4,0.006,0.689-0.046,0.865-0.157c0.177-0.111,0.268-0.296,0.273-0.554
		c0.004-0.232-0.083-0.405-0.26-0.518c-0.179-0.114-0.46-0.174-0.845-0.18l-0.749-0.012L958.87,507.805L958.87,507.805z
		 M958.466,509.963l0.073-3.888l1.053,0.017c0.522,0.009,0.912,0.097,1.173,0.266c0.259,0.169,0.386,0.416,0.38,0.744
		c-0.004,0.217-0.075,0.4-0.213,0.547c-0.138,0.147-0.333,0.248-0.583,0.304c0.304,0.055,0.54,0.17,0.707,0.342
		c0.167,0.173,0.247,0.386,0.243,0.638c-0.007,0.355-0.152,0.621-0.436,0.797c-0.284,0.176-0.7,0.26-1.25,0.251L958.466,509.963
		L958.466,509.963z M963.633,510.153l0.721-3.83l2.413,0.398l-0.057,0.304l-2.044-0.337l-0.264,1.399l1.963,0.324l-0.054,0.285
		l-1.963-0.324l-0.288,1.526l2.124,0.351l-0.059,0.315L963.633,510.153L963.633,510.153z M968.355,511.197l1.284-3.698l0.356,0.109
		l-1.18,3.4l1.969,0.599l-0.104,0.299L968.355,511.197L968.355,511.197z M972.629,512.678l1.886-3.465l2.183,1.041l-0.149,0.275
		l-1.849-0.882l-0.689,1.266l1.776,0.848l-0.141,0.258l-1.776-0.847l-0.751,1.381l1.922,0.917l-0.155,0.285L972.629,512.678
		L972.629,512.678z M979.302,512.387l-1.988,2.658l0.59,0.387c0.486,0.318,0.926,0.446,1.319,0.382s0.758-0.32,1.095-0.77
		c0.341-0.456,0.477-0.869,0.409-1.238c-0.069-0.37-0.347-0.713-0.835-1.033L979.302,512.387L979.302,512.387z M979.192,511.932
		l0.92,0.603c0.568,0.372,0.896,0.789,0.986,1.248c0.09,0.46-0.061,0.952-0.453,1.476s-0.833,0.825-1.326,0.903
		c-0.492,0.077-1.021-0.07-1.589-0.442l-0.92-0.603L979.192,511.932L979.192,511.932z M981.07,518.414l2.832-2.844l0.274,0.239
		l-2.833,2.844L981.07,518.414L981.07,518.414z M984.279,515.156l0.335-0.336l0.313,0.273l-0.334,0.336L984.279,515.156
		L984.279,515.156z M983.261,521.525l1.385-1.05l0.89-2.499l0.285,0.33l-0.761,2.099l2.339-0.274l0.251,0.291l-2.747,0.309
		l-1.407,1.067L983.261,521.525L983.261,521.525z M985.503,524.452l3.597-1.944l1.225,1.987l-0.286,0.155l-1.038-1.683l-1.314,0.711
		l0.997,1.616l-0.268,0.145l-0.997-1.616l-1.433,0.775l1.078,1.749l-0.295,0.16L985.503,524.452L985.503,524.452z M988.745,528.622
		c-0.239,0.096-0.389,0.245-0.452,0.444c-0.064,0.201-0.034,0.442,0.088,0.726c0.115,0.267,0.278,0.459,0.486,0.575
		c0.209,0.116,0.422,0.134,0.637,0.052c0.111-0.042,0.201-0.102,0.269-0.177c0.067-0.075,0.116-0.173,0.145-0.292
		c0.018-0.076,0.018-0.242,0.002-0.496c-0.013-0.156-0.021-0.28-0.024-0.371c-0.018-0.446,0.019-0.773,0.114-0.979
		c0.094-0.207,0.264-0.356,0.509-0.449c0.3-0.113,0.589-0.101,0.869,0.039c0.28,0.14,0.494,0.381,0.642,0.723
		c0.154,0.357,0.199,0.665,0.135,0.924c-0.064,0.258-0.233,0.45-0.51,0.575l-0.143-0.331c0.19-0.087,0.306-0.218,0.352-0.393
		c0.045-0.175,0.015-0.384-0.09-0.627c-0.112-0.26-0.268-0.444-0.465-0.552c-0.197-0.107-0.403-0.12-0.617-0.039
		c-0.174,0.066-0.291,0.175-0.35,0.327c-0.061,0.152-0.077,0.453-0.052,0.902c0.001,0.03,0.002,0.074,0.006,0.132
		c0.022,0.406,0.007,0.682-0.048,0.826c-0.051,0.139-0.124,0.255-0.219,0.347c-0.094,0.093-0.214,0.166-0.36,0.222
		c-0.323,0.122-0.625,0.107-0.909-0.043c-0.284-0.151-0.507-0.417-0.672-0.798c-0.163-0.378-0.203-0.701-0.119-0.969
		c0.084-0.268,0.293-0.482,0.629-0.643L988.745,528.622L988.745,528.622z M988.904,533.578l4.03-0.941l0.091,0.34l-4.03,0.941
		L988.904,533.578L988.904,533.578z M993.492,532.482l0.476-0.111l0.103,0.389l-0.476,0.111L993.492,532.482L993.492,532.482z"/>
</g>
</svg>
