<?xml version="1.0" encoding="iso-8859-1"?>
<!-- Generator: Adobe Illustrator 29.7.1, SVG Export Plug-In . SVG Version: 9.03 Build 0)  -->
<svg version="1.1" id="Layer_1" xmlns="http://www.w3.org/2000/svg" xmlns:xlink="http://www.w3.org/1999/xlink" x="0px" y="0px"
	 viewBox="0 0 595.276 291.969" style="enable-background:new 0 0 595.276 291.969;" xml:space="preserve">
<polygon style="fill-rule:evenodd;clip-rule:evenodd;fill:#ECECED;" points="298.339,20.275 300.644,20.458 304.356,20.508 
	306.645,20.835 309.215,20.977 311.196,21.448 311.337,32.568 318.052,33.924 324.529,35.646 330.058,26.069 333.572,27.263 
	335.648,28.282 339.08,29.695 341.088,30.841 344.425,32.468 346.357,33.738 342.373,44.196 347.328,47.617 352.625,51.766 
	361.637,45.034 363.758,46.731 365.313,48.442 367.984,51.019 369.428,52.825 371.933,55.565 373.261,57.458 374.74,59.643 
	366.896,67.554 370.452,72.849 372.63,76.498 383.337,73.657 384.657,75.944 385.473,78.107 387.008,81.487 387.686,83.697 
	389.006,87.167 389.544,89.415 390.219,91.689 380.151,96.088 381.167,102.665 381.783,108.053 393.061,109.372 393.335,110.799 
	393.297,113.11 393.48,116.818 393.297,119.122 393.248,122.835 392.92,125.124 392.495,129.673 381.187,129.816 379.972,136.247 
	378.391,142.017 387.828,147.405 386.492,152.051 385.473,154.126 384.06,157.559 382.913,159.566 381.287,162.903 380.016,164.835 
	369.7,160.852 365.908,166.15 361.565,171.669 368.58,180.257 367.024,182.236 365.313,183.791 362.735,186.463 360.93,187.907 
	358.19,190.412 356.297,191.739 355.102,192.653 346.908,184.951 342.539,187.89 336.833,191.108 339.674,201.957 337.811,203.135 
	335.648,203.951 332.268,205.486 330.058,206.165 326.588,207.484 324.34,208.023 322.208,208.415 318.233,198.347 312.044,199.756 
	304.666,200.51 303.522,211.814 300.645,211.776 296.937,211.959 294.632,211.776 290.92,211.726 288.631,211.398 284.93,211.115 
	284.929,199.756 278.566,198.676 272.518,197.215 267.354,207.051 265.219,206.165 261.704,204.97 259.629,203.951 256.196,202.538 
	254.189,201.392 250.851,199.766 248.637,198.212 252.761,187.896 248.796,185.182 242.652,180.608 234.347,187.907 
	231.518,185.502 229.964,183.791 227.292,181.214 225.848,179.408 223.343,176.668 221.591,173.927 229.228,165.811 
	225.532,160.516 222.505,155.028 212.363,159.566 210.619,156.29 209.804,154.126 208.268,150.746 207.59,148.536 206.271,145.066 
	205.732,142.818 205.198,140.969 215.408,135.58 213.999,129.25 213.245,122.578 202.082,122.283 201.979,119.123 201.796,115.415 
	201.979,113.11 202.029,109.399 202.357,107.11 202.64,103.408 214.282,102.276 215.163,96.269 216.903,90.122 207.128,84.701 
	207.59,83.697 208.785,80.182 209.804,78.107 211.216,74.674 212.363,72.667 213.989,69.33 214.836,68.247 225.294,71.805 
	229.421,66.426 232.581,61.979 225.424,53.249 228.253,49.997 229.964,48.442 232.541,45.771 234.347,44.326 237.087,41.822 
	238.979,40.494 247.669,47.923 252.172,44.768 259.421,40.598 256.334,29.663 259.629,28.282 263.008,26.747 265.219,26.069 
	268.689,24.749 270.937,24.21 274.483,23.111 278.74,33.604 284.222,32.619 291.318,31.44 292.32,20.419 294.632,20.458 "/>
<polygon style="fill:none;stroke:#000000;stroke-width:1.8199;stroke-miterlimit:22.9256;" points="298.339,20.275 300.644,20.458 
	304.356,20.508 306.645,20.835 309.215,20.977 311.196,21.448 311.337,32.568 318.052,33.924 324.529,35.646 330.058,26.069 
	333.572,27.263 335.648,28.282 339.08,29.695 341.088,30.841 344.425,32.468 346.357,33.738 342.373,44.196 347.328,47.617 
	352.625,51.766 361.637,45.034 363.758,46.731 365.313,48.442 367.984,51.019 369.428,52.825 371.933,55.565 373.261,57.458 
	374.74,59.643 366.896,67.554 370.452,72.849 372.63,76.498 383.337,73.657 384.657,75.944 385.473,78.107 387.008,81.487 
	387.686,83.697 389.006,87.167 389.544,89.415 390.219,91.689 380.151,96.088 381.167,102.665 381.783,108.053 393.061,109.372 
	393.335,110.799 393.297,113.11 393.48,116.818 393.297,119.122 393.248,122.835 392.92,125.124 392.495,129.673 381.187,129.816 
	379.972,136.247 378.391,142.017 387.828,147.405 386.492,152.051 385.473,154.126 384.06,157.559 382.913,159.566 381.287,162.903 
	380.016,164.835 369.7,160.852 365.908,166.15 361.565,171.669 368.58,180.257 367.024,182.236 365.313,183.791 362.735,186.463 
	360.93,187.907 358.19,190.412 356.297,191.739 355.102,192.653 346.908,184.951 342.539,187.89 336.833,191.108 339.674,201.957 
	337.811,203.135 335.648,203.951 332.268,205.486 330.058,206.165 326.588,207.484 324.34,208.023 322.208,208.415 318.233,198.347 
	312.044,199.756 304.666,200.51 303.522,211.814 300.645,211.776 296.937,211.959 294.632,211.776 290.92,211.726 288.631,211.398 
	284.93,211.115 284.929,199.756 278.566,198.676 272.518,197.215 267.354,207.051 265.219,206.165 261.704,204.97 259.629,203.951 
	256.196,202.538 254.189,201.392 250.851,199.766 248.637,198.212 252.761,187.896 248.796,185.182 242.652,180.608 
	234.347,187.907 231.518,185.502 229.964,183.791 227.292,181.214 225.848,179.408 223.343,176.668 221.591,173.927 
	229.228,165.811 225.532,160.516 222.505,155.028 212.363,159.566 210.619,156.29 209.804,154.126 208.268,150.746 207.59,148.536 
	206.271,145.066 205.732,142.818 205.198,140.969 215.408,135.58 213.999,129.25 213.245,122.578 202.082,122.283 201.979,119.123 
	201.796,115.415 201.979,113.11 202.029,109.399 202.357,107.11 202.64,103.408 214.282,102.276 215.163,96.269 216.903,90.122 
	207.128,84.701 207.59,83.697 208.785,80.182 209.804,78.107 211.216,74.674 212.363,72.667 213.989,69.33 214.836,68.247 
	225.294,71.805 229.421,66.426 232.581,61.979 225.424,53.249 228.253,49.997 229.964,48.442 232.541,45.771 234.347,44.326 
	237.087,41.822 238.979,40.494 247.669,47.923 252.172,44.768 259.421,40.598 256.334,29.663 259.629,28.282 263.008,26.747 
	265.219,26.069 268.689,24.749 270.937,24.21 274.483,23.111 278.74,33.604 284.222,32.619 291.318,31.44 292.32,20.419 
	294.632,20.458 "/>
<ellipse transform="matrix(0.0729 -0.9973 0.9973 0.0729 160.1413 404.5027)" style="fill-rule:evenodd;clip-rule:evenodd;fill:#E3000F;" cx="297.636" cy="116.118" rx="67.752" ry="67.752"/>
<ellipse transform="matrix(0.0729 -0.9973 0.9973 0.0729 160.1413 404.5027)" style="fill:none;stroke:#000000;stroke-width:1.3958;stroke-miterlimit:22.9256;" cx="297.636" cy="116.118" rx="67.752" ry="67.752"/>
<path style="fill-rule:evenodd;clip-rule:evenodd;fill:#FFFFFF;" d="M315.814,72.73c9.796,0,17.738,7.942,17.738,17.738
	c0,9.796-7.942,17.738-17.738,17.738c-9.796,0-17.738-7.942-17.738-17.738C298.076,80.672,306.018,72.73,315.814,72.73"/>
<path style="fill-rule:evenodd;clip-rule:evenodd;fill:#E3000F;" d="M320.732,76.243c7.857,0,14.225,6.369,14.225,14.225
	c0,7.856-6.369,14.225-14.225,14.225s-14.226-6.369-14.226-14.225C306.506,82.612,312.875,76.243,320.732,76.243"/>
<polygon style="fill-rule:evenodd;clip-rule:evenodd;fill:#FFFFFF;" points="336.606,84.201 340.215,88.713 345.718,86.953 
	342.543,91.78 345.917,96.47 340.345,94.942 336.927,99.6 336.659,93.829 331.172,92.017 336.578,89.979 "/>
<g>
	<defs>
		<path id="SVGID_1_" d="M364.415,129.292c0,0-8.935,50.299-65.32,54.463h-7.055c0,0-30.108-0.32-51.252-30.115v-13.81l7.369-2.85
			v-3.844l5.767-3.845v-15.698l24.669-39.726V62.65h-2.583l0.982-3.84h6.415l1.914,3.844h-2.563v27.554l7.048,8.969v14.417h3.204
			v2.583h-3.204v10.232l8.97,9.291l10.252-8.97l8.65,8.65l8.97-8.009l8.97,8.009l9.932-8.971l9.931,8.65L364.415,129.292z"/>
	</defs>
	<clipPath id="SVGID_00000111157117120665733220000005870222095556353705_">
		<use xlink:href="#SVGID_1_"  style="overflow:visible;"/>
	</clipPath>
	<g style="clip-path:url(#SVGID_00000111157117120665733220000005870222095556353705_);">
		<g>
			<defs>
				
					<rect id="SVGID_00000062874664473768084250000004899445974679999928_" x="240.787" y="58.81" width="123.628" height="124.945"/>
			</defs>
			<clipPath id="SVGID_00000091008351625759453780000007519664692153381774_">
				<use xlink:href="#SVGID_00000062874664473768084250000004899445974679999928_"  style="overflow:visible;"/>
			</clipPath>
			<g style="clip-path:url(#SVGID_00000091008351625759453780000007519664692153381774_);">
				
					<image style="overflow:visible;" width="516" height="522" xlink:href="3D359A0EE6F6EAAC.jpg"  transform="matrix(0.24 0 0 0.24 240.72 58.6885)">
				</image>
			</g>
		</g>
	</g>
</g>
<polygon style="fill-rule:evenodd;clip-rule:evenodd;fill:#E3000F;" points="278.912,79.314 278.912,89.245 272.504,98.216 
	272.504,113.597 269.603,113.597 269.603,115.836 262.225,115.836 262.225,131.218 271.884,131.218 271.884,144.364 
	269.015,145.133 269.015,134.092 262.885,134.092 257.767,128.972 257.767,113.911 "/>
<polygon style="fill-rule:evenodd;clip-rule:evenodd;fill:#E3000F;" points="280.81,93.576 276.125,99.688 276.125,112.932 
	280.606,112.932 280.606,108.24 282.248,108.24 282.248,112.947 286.311,112.947 286.311,99.478 "/>
<polygon style="fill-rule:evenodd;clip-rule:evenodd;fill:#E3000F;" points="270.216,117.005 271.827,119.795 271.827,123.124 
	264.102,123.124 "/>
<polygon style="fill-rule:evenodd;clip-rule:evenodd;fill:#E3000F;" points="264.104,124.339 271.849,124.339 271.849,130.655 "/>
<polygon style="fill-rule:evenodd;clip-rule:evenodd;fill:#E3000F;" points="276.328,117.412 276.328,122.709 281.014,121.08 
	281.014,119.45 "/>
<polygon style="fill-rule:evenodd;clip-rule:evenodd;fill:#E3000F;" points="287.33,117.412 287.33,122.709 282.644,121.08 
	282.644,119.45 "/>
<polygon style="fill-rule:evenodd;clip-rule:evenodd;fill:#E3000F;" points="245.157,149.602 245.157,142.468 248.016,142.468 
	248.016,148.383 "/>
<path style="fill-rule:evenodd;clip-rule:evenodd;fill:#E3000F;" d="M263.086,142.471v2.648h4.893v-8.566
	C267.979,136.554,263.086,142.268,263.086,142.471"/>
<polygon style="fill-rule:evenodd;clip-rule:evenodd;fill:#E3000F;" points="262.882,146.546 262.882,153.473 267.975,156.529 
	267.975,153.473 263.901,150.417 263.901,149.194 268.179,152.25 268.179,146.531 "/>
<polygon style="fill-rule:evenodd;clip-rule:evenodd;fill:#E3000F;" points="264.516,134.73 267.16,134.73 267.16,136.156 
	264.512,139.116 "/>
<rect x="290.589" y="131.266" transform="matrix(0.7207 -0.6933 0.6933 0.7207 -12.8266 240.069)" style="fill-rule:evenodd;clip-rule:evenodd;fill:#FFFFFF;" width="1.833" height="9.372"/>
<rect x="311.166" y="131.266" transform="matrix(0.7207 -0.6933 0.6933 0.7207 -7.0776 254.338)" style="fill-rule:evenodd;clip-rule:evenodd;fill:#FFFFFF;" width="1.833" height="9.372"/>
<rect x="328.687" y="131.266" transform="matrix(0.7206 -0.6933 0.6933 0.7206 -2.1788 266.4965)" style="fill-rule:evenodd;clip-rule:evenodd;fill:#FFFFFF;" width="1.833" height="9.372"/>
<rect x="347.838" y="131.266" transform="matrix(0.7206 -0.6933 0.6933 0.7206 3.1711 279.7738)" style="fill-rule:evenodd;clip-rule:evenodd;fill:#FFFFFF;" width="1.833" height="9.372"/>
<path d="M376.49,97.249l1.107-0.258l0.241,0.904l-1.107,0.258L376.49,97.249z M365.819,99.798l9.374-2.188l0.211,0.792l-9.374,2.189
	L365.819,99.798z M365.448,88.268c-0.555,0.224-0.905,0.569-1.052,1.033c-0.148,0.467-0.079,1.029,0.206,1.688
	c0.267,0.621,0.646,1.068,1.132,1.338c0.485,0.27,0.981,0.311,1.482,0.121c0.259-0.098,0.467-0.236,0.625-0.413
	c0.156-0.174,0.27-0.402,0.338-0.679c0.042-0.178,0.042-0.562,0.005-1.153c-0.029-0.363-0.048-0.652-0.055-0.864
	c-0.042-1.039,0.045-1.798,0.265-2.277c0.22-0.481,0.614-0.828,1.184-1.044c0.698-0.264,1.371-0.234,2.022,0.09
	c0.651,0.325,1.149,0.886,1.493,1.682c0.359,0.831,0.463,1.548,0.314,2.148c-0.149,0.6-0.543,1.047-1.186,1.338l-0.332-0.769
	c0.441-0.203,0.713-0.506,0.818-0.915c0.104-0.408,0.034-0.893-0.209-1.458c-0.261-0.605-0.622-1.033-1.081-1.285
	c-0.459-0.248-0.938-0.279-1.436-0.091c-0.405,0.153-0.676,0.407-0.814,0.762c-0.143,0.354-0.179,1.054-0.121,2.097
	c0.001,0.07,0.005,0.173,0.013,0.307c0.052,0.945,0.017,1.586-0.113,1.921c-0.119,0.323-0.289,0.592-0.511,0.807
	c-0.217,0.215-0.498,0.387-0.838,0.516c-0.751,0.283-1.455,0.249-2.114-0.1c-0.661-0.35-1.18-0.969-1.563-1.856
	c-0.38-0.88-0.472-1.631-0.277-2.255c0.194-0.623,0.682-1.121,1.463-1.496L365.448,88.268z M357.906,78.568l8.367-4.523l2.85,4.622
	l-0.665,0.359l-2.414-3.915l-3.057,1.653l2.318,3.76l-0.624,0.337l-2.318-3.76l-3.334,1.802l2.508,4.069l-0.687,0.371
	L357.906,78.568z M352.691,71.759l3.222-2.442l2.069-5.814l0.664,0.767l-1.769,4.883l5.442-0.637l0.584,0.676l-6.389,0.719
	l-3.274,2.482L352.691,71.759z M355.06,56.946l0.778-0.781l0.728,0.635l-0.777,0.781L355.06,56.946z M347.595,64.525l6.588-6.615
	l0.638,0.557l-6.589,6.616L347.595,64.525z M343.227,49.444l2.141,1.404c1.321,0.866,2.085,1.834,2.294,2.904
	c0.21,1.07-0.142,2.215-1.054,3.434c-0.912,1.219-1.939,1.918-3.085,2.1c-1.143,0.179-2.376-0.163-3.696-1.029l-2.141-1.403
	L343.227,49.444z M343.483,50.504l-4.624,6.183l1.374,0.901c1.13,0.74,2.153,1.038,3.069,0.889c0.916-0.148,1.764-0.745,2.546-1.791
	c0.793-1.062,1.111-2.022,0.951-2.88c-0.161-0.86-0.808-1.659-1.941-2.402L343.483,50.504z M327.959,51.18l4.386-8.059l5.078,2.423
	l-0.347,0.64l-4.302-2.053l-1.603,2.945l4.132,1.972l-0.327,0.6l-4.132-1.971l-1.748,3.212l4.47,2.132l-0.36,0.662L327.959,51.18z
	 M318.017,47.736l2.986-8.603l0.829,0.253l-2.744,7.908l4.579,1.392l-0.242,0.695L318.017,47.736z M307.034,45.308l1.678-8.908
	l5.613,0.926l-0.133,0.708l-4.755-0.785l-0.613,3.255l4.567,0.754l-0.124,0.663l-4.567-0.754l-0.669,3.55l4.941,0.816l-0.137,0.732
	L307.034,45.308z M295.016,44.864l0.169-9.044l2.45,0.04c1.214,0.02,2.123,0.225,2.728,0.618c0.603,0.393,0.898,0.968,0.884,1.73
	c-0.009,0.506-0.173,0.931-0.495,1.273c-0.322,0.342-0.774,0.578-1.355,0.708c0.708,0.129,1.255,0.395,1.644,0.795
	c0.388,0.402,0.576,0.898,0.565,1.485c-0.015,0.825-0.354,1.443-1.015,1.854c-0.661,0.41-1.629,0.605-2.909,0.585L295.016,44.864z
	 M295.955,39.844l1.73,0.028c0.93,0.015,1.602-0.106,2.012-0.366c0.411-0.258,0.623-0.688,0.634-1.289
	c0.01-0.54-0.193-0.942-0.606-1.205c-0.416-0.265-1.071-0.405-1.966-0.419l-1.743-0.029L295.955,39.844z M295.874,44.147
	l2.104,0.034c0.829,0.013,1.482-0.132,1.96-0.437c0.478-0.304,0.721-0.731,0.731-1.28c0.012-0.636-0.206-1.111-0.657-1.424
	c-0.45-0.311-1.154-0.475-2.111-0.491l-1.958-0.032L295.874,44.147z M272.651,49.486l-2.985-8.602l0.817-0.249l1.323,3.815
	l2.745-5.052l1.034-0.315l-2.86,5.215l6.225,3.272l-1.058,0.323l-5.99-3.168l1.566,4.513L272.651,49.486z M257.897,44.656
	l-0.482-0.886l0.822-0.393l0.483,0.886L257.897,44.656z M259.769,43.762l-0.481-0.886l0.823-0.393l0.482,0.886L259.769,43.762z
	 M259.415,51.512l-2.644-4.857l0.766-0.365l2.56,4.704c0.541,0.994,1.126,1.63,1.755,1.905c0.626,0.276,1.349,0.22,2.166-0.17
	c0.796-0.38,1.267-0.902,1.408-1.567c0.141-0.663-0.046-1.467-0.561-2.415l-2.572-4.727l0.683-0.326l2.572,4.727
	c0.372,0.684,0.603,1.213,0.692,1.589c0.089,0.376,0.101,0.743,0.034,1.107c-0.09,0.477-0.297,0.907-0.629,1.289
	c-0.331,0.383-0.77,0.706-1.318,0.967c-1.028,0.491-1.953,0.58-2.773,0.266C260.73,53.329,260.017,52.619,259.415,51.512z
	 M251.411,61.543l-5.948-7.128l1.931-1.413c0.958-0.7,1.801-1.075,2.535-1.127c0.732-0.05,1.349,0.222,1.85,0.823
	c0.333,0.399,0.491,0.826,0.471,1.281c-0.019,0.456-0.212,0.905-0.576,1.349c0.636-0.317,1.242-0.432,1.812-0.351
	c0.572,0.084,1.052,0.358,1.438,0.822c0.542,0.649,0.695,1.33,0.457,2.037c-0.238,0.708-0.859,1.432-1.867,2.169L251.411,61.543z
	 M248.767,57.088l1.364-0.997c0.732-0.537,1.172-1.025,1.317-1.469c0.146-0.444,0.021-0.903-0.373-1.376
	c-0.356-0.426-0.783-0.618-1.282-0.58c-0.501,0.039-1.104,0.317-1.809,0.832l-1.374,1.005L248.767,57.088z M251.597,60.48
	l1.659-1.213c0.653-0.477,1.062-0.977,1.229-1.494c0.168-0.518,0.069-0.993-0.292-1.425c-0.418-0.502-0.908-0.742-1.468-0.72
	c-0.559,0.024-1.216,0.311-1.97,0.863l-1.543,1.129L251.597,60.48z M242.059,70.396l-4.338-8.817l0.738-0.715l9.584,3.73l-0.66,0.64
	l-2.609-1.029l-3.281,3.181l1.193,2.402L242.059,70.396z M241.147,66.741l2.917-2.829l-5.428-2.169L241.147,66.741z M236.273,79.481
	l-8.102-4.927l1.612-2.324c0.631-0.909,1.261-1.487,1.892-1.732c0.631-0.245,1.279-0.166,1.947,0.24
	c0.484,0.295,0.798,0.665,0.942,1.114c0.144,0.45,0.115,0.957-0.083,1.523c0.279-0.292,0.563-0.479,0.851-0.562
	c0.283-0.083,0.612-0.072,0.983,0.031c0.257,0.075,0.778,0.301,1.561,0.682c0.785,0.382,1.454,0.634,2.004,0.754l-0.531,0.766
	c-0.389-0.1-0.94-0.32-1.651-0.663c-0.714-0.344-1.25-0.578-1.61-0.704c-0.393-0.137-0.714-0.162-0.963-0.077
	c-0.247,0.086-0.489,0.302-0.729,0.648l-1.534,2.212l3.873,2.354L236.273,79.481z M232.236,76.081l0.971-1.399
	c0.534-0.771,0.801-1.41,0.801-1.917c-0.002-0.505-0.268-0.919-0.803-1.244c-0.503-0.306-0.969-0.377-1.396-0.214
	c-0.427,0.162-0.882,0.591-1.36,1.282l-1.174,1.693L232.236,76.081z M230.568,90.851l-7.167-7.014l0.448-0.901l10.36,0.605
	l-0.402,0.807l-2.825-0.178l-1.996,4.008l1.962,1.908L230.568,90.851z M228.434,87.673l1.775-3.564l-5.886-0.396L228.434,87.673z
	 M228.442,100.808l-9.286-2.493l0.236-0.773l4.118,1.106l-2.939-4.955l0.299-0.978l3.019,5.136l6.38-3.003l-0.307,1.001
	l-6.155,2.878l4.872,1.308L228.442,100.808z"/>
<path style="fill-rule:evenodd;clip-rule:evenodd;" d="M355.681,170.543c0.487,0.309,0.951,0.435,1.388,0.379
	c0.442-0.059,0.844-0.298,1.21-0.72c0.54-0.625,0.675-1.343,0.405-2.156c-0.268-0.812-0.949-1.719-2.031-2.722
	c0.219,0.518,0.285,1.027,0.196,1.528c-0.087,0.501-0.326,0.975-0.71,1.419c-0.6,0.692-1.303,1.049-2.109,1.064
	c-0.807,0.018-1.597-0.307-2.366-0.975c-0.755-0.653-1.173-1.38-1.255-2.183c-0.085-0.803,0.183-1.563,0.803-2.28
	c0.731-0.842,1.584-1.225,2.566-1.147c0.98,0.076,2.041,0.607,3.18,1.597c1.382,1.197,2.23,2.343,2.55,3.438
	c0.315,1.099,0.085,2.096-0.686,2.988c-0.518,0.598-1.101,0.934-1.752,1.009c-0.65,0.074-1.305-0.12-1.956-0.583L355.681,170.543z
	 M352.264,167.601c0.631,0.544,1.236,0.82,1.821,0.835c0.585,0.013,1.105-0.242,1.554-0.762c0.422-0.487,0.598-1.038,0.522-1.652
	c-0.074-0.616-0.381-1.156-0.923-1.625c-0.598-0.518-1.201-0.779-1.813-0.788c-0.609-0.006-1.134,0.244-1.571,0.75
	c-0.464,0.537-0.664,1.081-0.592,1.634C351.33,166.547,351.664,167.081,352.264,167.601z M347.115,177.639l0.736-0.631
	c0.496,0.559,1.023,0.864,1.582,0.922c0.559,0.057,1.099-0.141,1.623-0.594c0.562-0.489,0.866-1.005,0.912-1.552
	c0.05-0.548-0.163-1.092-0.631-1.632c-0.455-0.526-0.949-0.785-1.479-0.768c-0.533,0.013-1.121,0.3-1.763,0.855
	c-0.091,0.079-0.159,0.139-0.2,0.177c-0.043,0.042-0.08,0.078-0.111,0.113l-0.496-0.56c0.035-0.031,0.083-0.067,0.148-0.113
	c0.063-0.044,0.105-0.079,0.135-0.105c0.579-0.501,0.912-0.999,0.994-1.495c0.081-0.496-0.08-0.983-0.49-1.454
	c-0.353-0.409-0.772-0.627-1.255-0.649c-0.477-0.022-0.936,0.156-1.371,0.533c-0.496,0.43-0.757,0.903-0.781,1.425
	c-0.026,0.52,0.185,1.057,0.633,1.61l-0.668,0.579c-0.587-0.729-0.851-1.462-0.792-2.202c0.059-0.744,0.431-1.41,1.114-2.004
	c0.653-0.564,1.325-0.838,2.013-0.819c0.69,0.018,1.293,0.326,1.81,0.923c0.328,0.378,0.526,0.783,0.587,1.21
	c0.065,0.429-0.004,0.875-0.205,1.34c0.523-0.235,1.038-0.285,1.537-0.15c0.501,0.135,0.964,0.448,1.39,0.94
	c0.6,0.692,0.859,1.428,0.774,2.213c-0.085,0.781-0.498,1.493-1.243,2.139c-0.762,0.661-1.541,0.97-2.337,0.931
	c-0.797-0.039-1.512-0.425-2.146-1.158L347.115,177.639z M340.015,183.403c0.378,0.435,0.786,0.686,1.223,0.757
	c0.44,0.069,0.892-0.048,1.363-0.35c0.696-0.446,1.029-1.095,0.999-1.952c-0.03-0.853-0.426-1.917-1.18-3.184
	c0.063,0.557-0.015,1.066-0.242,1.521c-0.226,0.457-0.589,0.844-1.085,1.16c-0.772,0.494-1.547,0.637-2.324,0.424
	c-0.779-0.211-1.443-0.747-1.995-1.606c-0.538-0.838-0.733-1.654-0.585-2.448c0.146-0.795,0.618-1.447,1.415-1.958
	c0.938-0.601,1.865-0.727,2.785-0.377c0.919,0.352,1.788,1.162,2.602,2.433c0.986,1.54,1.475,2.879,1.471,4.021
	c-0.009,1.141-0.511,2.033-1.504,2.67c-0.664,0.426-1.319,0.585-1.965,0.472c-0.644-0.113-1.217-0.485-1.712-1.114L340.015,183.403z
	 M337.569,179.614c0.45,0.701,0.953,1.138,1.51,1.318c0.557,0.176,1.127,0.079,1.706-0.293c0.542-0.348,0.866-0.827,0.968-1.438
	c0.104-0.611-0.039-1.215-0.425-1.819c-0.426-0.666-0.931-1.086-1.515-1.269c-0.583-0.178-1.157-0.087-1.719,0.274
	c-0.6,0.383-0.944,0.849-1.031,1.399C336.971,178.339,337.141,178.946,337.569,179.614z M334.138,189.287l-3.63-7.083
	c-0.107,0.279-0.305,0.546-0.598,0.796c-0.292,0.252-0.699,0.513-1.221,0.779l-0.128,0.065l-0.281-0.546l0.056-0.028
	c0.738-0.379,1.216-0.801,1.427-1.267c0.216-0.468,0.189-1.012-0.083-1.63l0.735-0.387l4.548,8.878L334.138,189.287z
	 M315.95,195.915l-2.801-9.862l0.997-0.283l7.975,6.87l-2.403-8.454l0.877-0.248l2.803,9.86l-1.001,0.285l-7.956-6.876l2.401,8.454
	L315.95,195.915z M303.195,197.821l2.57-10.662l1.121-0.142l5.151,9.681l-0.982,0.124l-1.554-2.979l-4.561,0.579l-0.775,3.275
	L303.195,197.821z M305.148,193.563l3.937-0.501l-2.642-4.994L305.148,193.563z M292.286,197.752l0.261-10.249l3.418,0.087
	c0.794,0.02,1.367,0.067,1.721,0.139c0.354,0.074,0.659,0.189,0.918,0.346c0.4,0.237,0.703,0.557,0.909,0.964
	c0.209,0.407,0.305,0.866,0.292,1.375c-0.015,0.629-0.17,1.158-0.464,1.582c-0.294,0.424-0.709,0.72-1.251,0.892
	c0.413,0.152,0.709,0.374,0.883,0.665c0.172,0.294,0.287,0.875,0.339,1.752l0.091,1.543c0.011,0.241,0.043,0.44,0.096,0.602
	c0.05,0.157,0.118,0.276,0.203,0.352l-0.004,0.141l-1.038-0.026c-0.056-0.109-0.098-0.252-0.132-0.422
	c-0.033-0.174-0.054-0.385-0.067-0.636l-0.083-1.36c-0.046-0.942-0.2-1.545-0.455-1.806c-0.259-0.266-0.788-0.409-1.586-0.429
	l-2.994-0.078l-0.116,4.592L292.286,197.752z M293.363,192.346l2.723,0.068c0.957,0.024,1.649-0.12,2.076-0.435
	c0.431-0.311,0.653-0.834,0.672-1.562c0.009-0.335-0.05-0.636-0.176-0.91c-0.126-0.272-0.309-0.492-0.55-0.661
	c-0.19-0.133-0.413-0.231-0.679-0.296c-0.261-0.061-0.694-0.102-1.299-0.117l-0.396-0.009l-2.27-0.059L293.363,192.346z
	 M287.564,185.374l0.153-1.201l1.046,0.131l-0.152,1.203L287.564,185.374z M286.108,197.064l1.291-10.171l0.962,0.122l-1.291,10.171
	L286.108,197.064z M274.399,194.666l0.194-0.847l8.1-6.898l-5.708-1.317l0.189-0.818l6.854,1.58l-0.183,0.794l-8.156,6.928
	l6.323,1.458l-0.192,0.833L274.399,194.666z M263.173,190.423l7.381-8.112l1.051,0.414l-0.141,10.965l-0.922-0.363l0.07-3.36
	l-4.276-1.686l-2.256,2.498L263.173,190.423z M266.931,187.628l3.693,1.456l0.085-5.651L266.931,187.628z M252.924,184.719
	l5.109-8.887l0.816,0.468l-2.217,3.856l5.081,2.921l2.217-3.856l0.829,0.476l-5.111,8.889l-0.827-0.477l2.474-4.302l-5.083-2.922
	l-2.474,4.304L252.924,184.719z M242.969,173.519l0.705,0.602c-0.396,0.499-0.561,1.019-0.494,1.56
	c0.069,0.539,0.357,1.029,0.87,1.473c0.533,0.463,1.092,0.659,1.676,0.59c0.585-0.069,1.131-0.394,1.638-0.979
	c0.526-0.607,0.786-1.219,0.775-1.836c-0.009-0.616-0.287-1.16-0.831-1.632c-0.34-0.294-0.696-0.492-1.069-0.594
	c-0.376-0.102-0.744-0.098-1.112,0.005l-0.594-0.516l3.902-3.353l3.689,3.195l-0.514,0.594l-3.179-2.755l-2.47,2.108
	c0.32-0.004,0.648,0.065,0.977,0.207c0.326,0.143,0.657,0.355,0.986,0.642c0.712,0.616,1.086,1.336,1.123,2.158
	c0.034,0.82-0.274,1.608-0.931,2.367c-0.672,0.773-1.417,1.193-2.248,1.266c-0.831,0.068-1.623-0.222-2.376-0.875
	c-0.707-0.612-1.107-1.299-1.197-2.056C242.204,174.931,242.429,174.205,242.969,173.519z M234.162,167.694
	c0.024-0.022,0.061-0.056,0.107-0.104c0.048-0.046,0.083-0.081,0.109-0.104c0.537-0.466,1.142-0.736,1.819-0.814
	c0.675-0.076,1.506,0.033,2.485,0.337c0.242,0.072,0.581,0.183,1.018,0.331c0.899,0.304,1.519,0.463,1.854,0.477
	c0.316,0.007,0.596-0.033,0.838-0.118c0.244-0.089,0.486-0.239,0.727-0.448c0.494-0.427,0.762-0.905,0.799-1.427
	c0.037-0.526-0.157-1.034-0.587-1.526c-0.481-0.555-1.01-0.838-1.589-0.853c-0.579-0.015-1.177,0.239-1.793,0.76l-0.607-0.701
	c0.824-0.67,1.636-0.98,2.435-0.931c0.799,0.046,1.526,0.452,2.185,1.212c0.609,0.701,0.896,1.428,0.857,2.178
	c-0.035,0.751-0.389,1.417-1.055,1.994c-0.315,0.272-0.638,0.466-0.972,0.587c-0.329,0.118-0.698,0.168-1.101,0.159
	c-0.459-0.017-1.212-0.209-2.259-0.587c-0.329-0.118-0.584-0.209-0.762-0.268c-0.801-0.272-1.456-0.405-1.965-0.398
	c-0.509,0.004-0.953,0.144-1.331,0.424l3.602,4.158l-0.603,0.524L234.162,167.694z"/>
<path style="fill-rule:evenodd;clip-rule:evenodd;" d="M27.079,270.862h9.534v-38.796h-9.534V270.862z M50.08,270.862h11.75
	l-14.299-19.675l12.858-19.121H49.526l-12.415,19.121L50.08,270.862z"/>
<path style="fill-rule:evenodd;clip-rule:evenodd;" d="M82.502,243.207l5.099,13.91H77.459L82.502,243.207z M77.182,232.066
	c-4.712,13.025-9.422,25.827-14.077,38.796h9.587l2.217-6.152h15.187l2.272,6.152h9.644l-14.133-38.796H77.182z"/>
<path style="fill-rule:evenodd;clip-rule:evenodd;" d="M115.147,240.657h6.595c2.771,0,4.987,2.161,4.987,4.822
	c0,2.716-2.216,4.767-4.987,4.767h-6.595V240.657z M127.006,270.862h9.755l-8.369-13.523c4.655-1.94,7.87-6.374,7.87-11.749
	c0-7.482-5.93-13.524-13.58-13.524h-17.07v38.796h9.534v-12.026h4.323L127.006,270.862z"/>
<path style="fill-rule:evenodd;clip-rule:evenodd;" d="M158.486,243.207l5.099,13.91h-10.141L158.486,243.207z M153.166,232.066
	c-4.711,13.025-9.422,25.827-14.077,38.796h9.588l2.216-6.152h15.187l2.272,6.152h9.644l-14.133-38.796H153.166z"/>
<path style="fill-rule:evenodd;clip-rule:evenodd;" d="M191.131,239.383h5.597c2.55,0,4.6,1.773,4.6,4.211
	c0,2.383-1.828,4.268-4.268,4.268h-5.929V239.383z M197.338,254.568c2.826,0,5.043,1.94,5.043,4.433c0,2.716-2.217,4.6-5.043,4.6
	h-6.207v-9.033H197.338z M200.552,270.862c6.484,0,11.362-4.545,11.362-10.42c0-4.433-3.103-8.368-7.703-9.809
	c3.492-1.552,5.93-5.043,5.93-8.978c0-5.266-4.49-9.589-10.53-9.589h-18.013v38.796H200.552z"/>
<path style="fill-rule:evenodd;clip-rule:evenodd;" d="M229.65,236.222c0,2.383,1.774,4.158,4.157,4.158
	c2.272,0,4.156-1.774,4.156-4.158c0-2.327-1.885-4.156-4.156-4.156C231.424,232.066,229.65,233.895,229.65,236.222"/>
<path style="fill-rule:evenodd;clip-rule:evenodd;" d="M229.65,246.797c0,2.383,1.773,4.158,4.101,4.158
	c2.327,0,4.212-1.774,4.212-4.158c0-2.327-1.885-4.156-4.212-4.156C231.423,242.641,229.65,244.47,229.65,246.797"/>
<path style="fill-rule:evenodd;clip-rule:evenodd;" d="M226.49,232.066h-9.589v23.057c0,9.31,6.319,16.571,16.904,16.571
	c10.53,0,16.848-7.316,16.848-16.571v-23.057h-9.532v23.611c0,4.156-2.827,7.261-7.316,7.261c-4.323,0-7.316-3.326-7.316-7.261
	V232.066z"/>
<path style="fill-rule:evenodd;clip-rule:evenodd;" d="M256.861,270.862h9.534v-38.796h-9.534V270.862z M279.862,270.862h11.75
	l-14.299-19.675l12.858-19.121h-10.864l-12.415,19.121L279.862,270.862z"/>
<path style="fill-rule:evenodd;clip-rule:evenodd;" d="M565.221,245.409v24.656h2.975v-24.656H565.221z M568.196,232.878h-2.975
	v8.857h2.975V232.878z M537.171,242.068c0-4.728,4.144-7.225,9.244-7.225c4.994,0,7.916,1.806,11.156,4.994l1.913-2.444
	c-3.612-3.4-7.119-5.312-13.016-5.312c-7.066,0-12.166,4.091-12.166,9.988c0,13.706,22.79,7.703,22.79,17.638
	c0,4.622-4.037,8.394-10.466,8.394c-4.834,0-8.288-1.913-11.475-4.994l-1.859,2.284c3.612,3.612,7.65,5.472,13.334,5.472
	c8.128,0,13.547-4.94,13.547-11.209C560.174,246.265,537.171,252.215,537.171,242.068z M508.058,249.665V235.64h21.357v-2.763
	h-24.332v37.188h24.757v-2.762h-21.781v-14.875h17.425v-2.763H508.058z M469.967,232.878l14.344,23.853v13.335h2.975v-13.335
	l14.344-23.853h-3.347l-12.537,20.985l-12.431-20.985H469.967z M463.539,245.409v24.656h2.975v-24.656H463.539z M466.514,232.878
	h-2.975v8.857h2.975V232.878z M440.27,235.64c8.766,0,15.194,7.225,15.194,15.884c0,8.606-6.428,15.778-15.194,15.778h-8.607V235.64
	H440.27z M428.689,232.878v37.188h11.634c10.678,0,18.169-8.287,18.169-18.594c0-10.094-7.438-18.594-18.169-18.594H428.689z
	 M402.126,249.665V235.64h21.357v-2.763h-24.331v37.188h24.756v-2.762h-21.782v-14.875h17.425v-2.763H402.126z M395.432,267.303
	h-21.675v-34.425h-2.975v37.188h24.65V267.303z M344.22,249.665V235.64h21.356v-2.763h-24.331v37.188h24.756v-2.762H344.22v-14.875
	h17.425v-2.763H344.22z M312.504,235.64h10.359c4.463,0,7.916,2.709,7.916,6.959c0,3.878-2.763,6.959-6.8,6.959h-11.475V235.64z
	 M324.085,252.321c5.047,0,8.925,3.134,8.925,7.331c0,4.781-3.984,7.65-8.925,7.65h-11.581v-14.981H324.085z M325.041,270.065
	c6.109,0,10.997-4.144,10.997-9.988c0-4.091-2.922-8.181-8.234-9.35c3.559-1.222,5.737-4.675,5.737-8.712
	c0-5.153-4.197-9.138-9.828-9.138h-14.185v37.188H325.041z"/>
</svg>
