<?xml version="1.0" encoding="UTF-8"?>
<svg id="Layer_2" data-name="Layer 2" xmlns="http://www.w3.org/2000/svg" xmlns:xlink="http://www.w3.org/1999/xlink" viewBox="0 0 83.19 83.19">
  <defs>
    <style>
      .cls-1 {
        fill: none;
      }

      .cls-2 {
        fill: #e6e7e8;
        stroke-width: .78px;
      }

      .cls-2, .cls-3, .cls-4, .cls-5 {
        fill-rule: evenodd;
      }

      .cls-2, .cls-5 {
        stroke: #000;
        stroke-miterlimit: 22.93;
      }

      .cls-3 {
        fill: #fff;
      }

      .cls-4, .cls-5 {
        fill: #ed1c24;
      }

      .cls-6 {
        isolation: isolate;
      }

      .cls-7 {
        clip-path: url(#clippath-1);
      }

      .cls-5 {
        stroke-width: .6px;
      }

      .cls-8 {
        clip-path: url(#clippath);
      }
    </style>
    <clipPath id="clippath">
      <path class="cls-1" d="M70.3,47.26s-3.84,21.62-28.08,23.41h-3.03s-12.94-.14-22.03-12.95v-5.94l3.17-1.22v-1.65l2.48-1.65v-6.75l10.6-17.08v-4.82h-1.11l.42-1.65h2.76l.82,1.65h-1.1v11.84l3.03,3.86v6.2h1.38v1.11h-1.38v4.4l3.86,3.99,4.41-3.86,3.72,3.72,3.86-3.44,3.86,3.44,4.27-3.86,4.27,3.72,3.84-2.48Z"/>
    </clipPath>
    <clipPath id="clippath-1">
      <rect class="cls-1" x="17.15" y="16.96" width="53.15" height="53.71"/>
    </clipPath>
  </defs>
  <g id="Layer_1-2" data-name="Layer 1">
    <g>
      <polygon class="cls-2" points="41.89 .39 42.89 .47 44.48 .49 45.47 .63 46.57 .69 47.42 .9 47.48 5.68 50.37 6.26 53.15 7 55.53 2.88 57.04 3.4 57.93 3.83 59.41 4.44 60.27 4.93 61.71 5.63 62.54 6.18 60.82 10.68 62.95 12.15 65.23 13.93 69.11 11.03 70.02 11.76 70.69 12.5 71.83 13.61 72.46 14.38 73.53 15.56 74.1 16.38 74.74 17.32 71.37 20.72 72.9 22.99 73.83 24.56 78.43 23.34 79 24.32 79.35 25.25 80.01 26.71 80.3 27.66 80.87 29.15 81.1 30.11 81.39 31.09 77.06 32.98 77.5 35.81 77.77 38.13 82.61 38.69 82.73 39.31 82.72 40.3 82.79 41.89 82.72 42.89 82.69 44.48 82.55 45.47 82.37 47.42 77.51 47.48 76.99 50.25 76.31 52.73 80.36 55.04 79.79 57.04 79.35 57.93 78.75 59.41 78.25 60.27 77.55 61.71 77.01 62.54 72.57 60.82 70.94 63.1 69.07 65.47 72.09 69.17 71.42 70.02 70.69 70.69 69.58 71.83 68.8 72.46 67.62 73.53 66.81 74.1 66.3 74.5 62.77 71.18 60.9 72.45 58.44 73.83 59.66 78.5 58.86 79 57.93 79.35 56.48 80.01 55.53 80.3 54.04 80.87 53.07 81.1 52.16 81.27 50.45 76.94 47.79 77.55 44.61 77.87 44.12 82.73 42.89 82.72 41.29 82.79 40.3 82.72 38.71 82.69 37.72 82.55 36.13 82.43 36.13 77.55 33.39 77.08 30.79 76.46 28.57 80.69 27.66 80.3 26.15 79.79 25.25 79.35 23.78 78.75 22.91 78.25 21.48 77.55 20.53 76.89 22.3 72.45 20.6 71.28 17.95 69.32 14.38 72.46 13.17 71.42 12.5 70.69 11.35 69.58 10.73 68.8 9.65 67.62 8.9 66.45 12.18 62.96 10.6 60.68 9.29 58.32 4.93 60.27 4.18 58.86 3.83 57.93 3.17 56.48 2.88 55.53 2.31 54.04 2.08 53.07 1.85 52.28 6.24 49.96 5.64 47.24 5.31 44.37 .51 44.24 .47 42.89 .39 41.29 .47 40.3 .49 38.71 .63 37.72 .75 36.13 5.76 35.64 6.14 33.06 6.89 30.42 2.68 28.09 2.88 27.66 3.4 26.15 3.83 25.25 4.44 23.78 4.93 22.91 5.63 21.48 6 21.01 10.49 22.54 12.27 20.23 13.63 18.32 10.55 14.57 11.76 13.17 12.5 12.5 13.61 11.35 14.38 10.73 15.56 9.65 16.38 9.08 20.11 12.28 22.05 10.92 25.16 9.13 23.84 4.43 25.25 3.83 26.71 3.17 27.66 2.88 29.15 2.32 30.11 2.08 31.64 1.61 33.47 6.12 35.83 5.7 38.88 5.19 39.31 .45 40.3 .47 41.89 .39"/>
      <path class="cls-5" d="M41.59,12.47c16.08,0,29.13,13.04,29.13,29.13s-13.04,29.13-29.13,29.13-29.13-13.04-29.13-29.13,13.04-29.13,29.13-29.13h0Z"/>
      <path class="cls-3" d="M49.41,22.94c4.21,0,7.62,3.41,7.62,7.62s-3.41,7.62-7.62,7.62-7.62-3.41-7.62-7.62c0-4.21,3.41-7.62,7.62-7.62h0Z"/>
      <path class="cls-4" d="M51.52,24.45c3.38,0,6.12,2.74,6.12,6.11s-2.74,6.11-6.12,6.11-6.11-2.74-6.11-6.11c0-3.38,2.74-6.11,6.11-6.11h0Z"/>
      <polygon class="cls-3" points="58.35 27.87 59.9 29.81 62.26 29.06 60.9 31.13 62.35 33.15 59.95 32.49 58.48 34.49 58.37 32.01 56.01 31.23 58.33 30.36 58.35 27.87"/>
      <g class="cls-8">
        <g class="cls-7">
          <image class="cls-6" width="117" height="117" transform="translate(15.85 71.85) scale(.48 -.48)" xlink:href="A7E1BB799D8CEF19.png"/>
        </g>
      </g>
      <polygon class="cls-4" points="33.54 25.77 33.54 30.04 30.79 33.9 30.79 40.51 29.54 40.51 29.54 41.47 26.37 41.47 26.37 48.08 30.52 48.08 30.52 53.74 29.29 54.07 29.29 49.32 26.65 49.32 24.45 47.12 24.45 40.64 33.54 25.77"/>
      <polygon class="cls-4" points="34.36 31.9 32.34 34.53 32.34 40.22 34.27 40.22 34.27 38.21 34.98 38.21 34.98 40.23 36.72 40.23 36.72 34.44 34.36 31.9"/>
      <polygon class="cls-4" points="29.8 41.97 30.5 43.17 30.5 44.61 27.18 44.61 29.8 41.97"/>
      <polygon class="cls-4" points="27.18 45.13 30.51 45.13 30.51 47.84 27.18 45.13"/>
      <polygon class="cls-4" points="32.43 42.15 32.43 44.43 34.45 43.73 34.45 43.03 32.43 42.15"/>
      <polygon class="cls-4" points="37.16 42.15 37.16 44.43 35.15 43.73 35.15 43.03 37.16 42.15"/>
      <polygon class="cls-4" points="19.03 55.99 19.03 52.92 20.26 52.92 20.26 55.47 19.03 55.99"/>
      <path class="cls-4" d="M26.74,52.92v1.14h2.1v-3.68s-2.1,2.46-2.1,2.54h0Z"/>
      <polygon class="cls-4" points="26.65 54.67 26.65 57.65 28.84 58.97 28.84 57.65 27.09 56.34 27.09 55.81 28.93 57.13 28.93 54.67 26.65 54.67"/>
      <polygon class="cls-4" points="27.35 49.59 28.49 49.59 28.49 50.21 27.35 51.48 27.35 49.59"/>
      <polygon class="cls-3" points="37.28 48.94 37.84 48.4 40.64 51.3 40.07 51.85 37.28 48.94"/>
      <polygon class="cls-3" points="46.12 48.94 46.69 48.4 49.48 51.3 48.92 51.85 46.12 48.94"/>
      <polygon class="cls-3" points="53.65 48.94 54.22 48.4 57.02 51.3 56.45 51.85 53.65 48.94"/>
      <polygon class="cls-3" points="61.89 48.94 62.46 48.4 65.25 51.3 64.68 51.85 61.89 48.94"/>
      <path d="M17.21,66.09c-.16.18-.24.37-.22.58.02.2.13.4.33.58.21.19.43.29.66.3.23.01.43-.07.61-.25.18-.18.26-.38.23-.6-.03-.22-.16-.43-.4-.65-.03-.02-.05-.04-.06-.05-.01-.01-.03-.02-.04-.03l.22-.22s.03.03.04.04c.02.02.03.03.04.04.23.21.45.32.67.34.22.02.41-.06.59-.23.16-.16.23-.35.21-.55-.02-.2-.14-.4-.34-.58-.19-.17-.38-.26-.58-.27-.2,0-.4.07-.58.22l-.26-.24c.24-.21.51-.31.81-.29s.58.14.85.38c.27.25.42.52.45.82.03.3-.07.56-.29.78-.16.16-.35.25-.56.26-.21.01-.44-.05-.68-.18.16.24.24.47.23.69-.01.22-.11.42-.29.6-.23.23-.51.34-.83.32-.33-.02-.63-.16-.92-.42-.28-.26-.44-.54-.47-.83-.03-.29.07-.57.3-.82l.28.26h0ZM24,72.23l1.89-3.55.37.17.37,4.07,1.66-3.1.31.15-1.89,3.55-.4-.19-.36-4-1.63,3.05-.31-.15h0ZM29.69,74.6l1.36-3.75.35.11-1.36,3.75-.35-.11h0ZM31.22,70.32l.16-.44.4.13-.16.44-.4-.13h0ZM33.46,74.66c-.04.24,0,.45.15.6.14.16.37.27.69.32.3.05.56.03.78-.08.22-.1.35-.27.39-.48.02-.11.02-.22-.01-.31-.03-.09-.09-.19-.18-.28-.06-.06-.2-.15-.44-.27-.15-.08-.26-.14-.34-.18-.41-.23-.68-.43-.81-.62-.13-.19-.17-.41-.12-.65.06-.3.23-.53.51-.68s.61-.19.99-.12c.4.07.7.2.89.39.19.19.27.43.23.72l-.37-.06c.03-.2-.03-.36-.16-.5-.13-.13-.33-.22-.6-.27-.29-.05-.54-.03-.74.08-.2.1-.33.26-.37.48-.04.17,0,.33.1.46.1.13.36.31.77.53.03.02.07.04.12.07.37.2.61.36.71.48.09.12.16.24.19.36.03.13.03.26,0,.41-.07.33-.25.56-.53.71-.29.15-.65.18-1.07.11-.42-.07-.73-.22-.92-.43-.19-.21-.27-.5-.23-.85l.38.07h0ZM38.98,75.05l1.79.04-.8-2.27-.99,2.24h0ZM38,76.41l1.77-3.92h.45s1.45,3.99,1.45,3.99h-.41s-.39-1.1-.39-1.1l-2.02-.04-.48,1.07h-.38ZM44.34,76.28l-.55-3.9.41-.06,2.74,3.09-.48-3.42.35-.05.55,3.91-.45.07-2.69-3.03.48,3.36-.35.05h0ZM55.47,73.34l-1.49-3.08c-.1.2-.19.37-.28.52-.09.15-.18.26-.27.35l-.15-.31c.1-.12.2-.26.28-.41.09-.15.17-.33.25-.52l.32-.15,1.67,3.44-.33.15h0ZM57.73,69.21c.15.23.34.36.56.41.22.05.44,0,.66-.13.25-.16.4-.35.46-.58.06-.23.01-.46-.14-.68-.15-.22-.35-.36-.59-.41s-.47,0-.7.14c-.23.14-.36.33-.41.57-.05.23,0,.46.16.68h0ZM59.68,68.71c.03.19,0,.38-.11.57s-.25.34-.45.47c-.31.2-.62.26-.93.21-.31-.06-.57-.23-.76-.53-.21-.31-.28-.62-.21-.94s.27-.58.59-.78c.4-.25.78-.31,1.14-.17s.73.47,1.09,1.01c.39.57.58,1.06.58,1.47,0,.41-.2.74-.6.99-.31.2-.61.28-.91.26-.29-.03-.53-.16-.7-.41l.32-.2c.14.17.31.26.5.28.2.02.4-.04.61-.17.29-.18.43-.43.42-.74s-.17-.69-.47-1.15c-.01-.02-.03-.04-.05-.08-.03-.03-.05-.06-.06-.08h0ZM62.89,67.74c.17.17.37.25.58.24.21,0,.43-.11.64-.29.22-.19.34-.4.38-.62.03-.22-.04-.42-.2-.59-.17-.18-.38-.27-.6-.25-.23.02-.47.13-.71.35-.03.02-.05.04-.06.06-.01.01-.03.03-.04.04l-.21-.22s.03-.02.05-.04c.02-.02.04-.03.05-.04.24-.21.38-.41.42-.62.04-.21-.03-.4-.19-.57-.16-.16-.34-.24-.56-.23-.22.01-.43.11-.64.29-.2.17-.3.35-.33.54-.03.19.03.38.18.57l-.28.24c-.2-.24-.28-.5-.24-.79.04-.29.2-.55.47-.79.28-.25.58-.38.89-.39.31-.01.58.09.79.32.15.16.23.34.22.55s-.09.41-.25.64c.26-.15.51-.21.74-.19.23.02.43.12.6.31.22.23.31.5.26.81-.05.31-.22.59-.52.86-.29.26-.6.39-.91.41-.31.01-.59-.1-.83-.33l.29-.26h0ZM67.59,64.82l-1.77-3.38-1.39,1.6-.26-.21,1.62-1.86.3.24,1.78,3.29-.28.32h0Z"/>
      <path d="M11.85,35.01l-3.99-1.07.1-.33,1.77.47-1.26-2.13.13-.42,1.3,2.21,2.74-1.29-.13.43-2.65,1.24,2.09.56-.1.33h0ZM11.84,29.37l.76-1.53-2.53-.17,1.77,1.7h0ZM12.76,30.73l-3.08-3.02.19-.39,4.45.26-.17.35-1.21-.08-.86,1.72.84.82-.17.33h0ZM13.48,24.38l.42-.6c.23-.33.34-.61.34-.82,0-.22-.11-.4-.34-.53-.22-.13-.42-.16-.6-.09-.18.07-.38.25-.59.55l-.51.73,1.27.77h0ZM15.21,25.84l-3.48-2.12.69-1c.27-.39.54-.64.81-.74.27-.1.55-.07.84.1.21.13.34.29.41.48.06.19.05.41-.04.66.12-.13.24-.21.37-.24.12-.03.26-.03.42.01.11.03.34.13.67.29.34.16.62.27.86.32l-.23.33c-.17-.04-.4-.14-.71-.28-.31-.15-.54-.25-.69-.3-.17-.06-.31-.07-.41-.03-.11.04-.21.13-.31.28l-.66.95,1.66,1.01-.2.29h0ZM17.31,20.37l1.25-1.22-2.33-.93,1.08,2.15h0ZM17.7,21.94l-1.86-3.79.32-.31,4.12,1.6-.28.28-1.12-.44-1.41,1.37.51,1.03-.27.26h0ZM21.8,17.68l.71-.52c.28-.21.46-.42.53-.64.07-.22.03-.43-.12-.61-.18-.22-.39-.32-.63-.31-.24.01-.52.13-.85.37l-.66.48,1.02,1.23h0ZM20.58,16.22l.59-.43c.32-.23.5-.44.57-.63.06-.19,0-.39-.16-.59-.15-.18-.34-.27-.55-.25-.22.02-.47.14-.78.36l-.59.43.93,1.11h0ZM21.72,18.13l-2.56-3.06.83-.61c.41-.3.77-.46,1.09-.48.32-.02.58.1.79.35.14.17.21.35.2.55,0,.2-.09.39-.25.58.27-.14.53-.19.78-.15.25.04.45.15.62.35.23.28.3.57.2.88-.1.3-.37.61-.8.93l-.9.66h0ZM25.16,13.82l-1.14-2.09.33-.16,1.1,2.02c.23.43.48.7.76.82.27.12.58.09.93-.07.34-.16.54-.39.6-.67.06-.28-.02-.63-.24-1.04l-1.11-2.03.29-.14,1.11,2.03c.16.29.26.52.3.68.04.16.04.32.01.48-.04.21-.13.39-.27.55-.14.16-.33.3-.57.42-.44.21-.84.25-1.19.11-.35-.13-.66-.44-.92-.91h0ZM25.31,10.49l-.21-.38.35-.17.21.38-.35.17h0ZM24.51,10.87l-.21-.38.35-.17.21.38-.35.17h0ZM30.85,12.95l-1.28-3.7.35-.11.57,1.64,1.18-2.17.45-.14-1.23,2.24,2.68,1.41-.46.14-2.58-1.36.67,1.94-.35.11h0ZM40.84,10.65l.91.02c.36,0,.64-.06.84-.19.21-.13.31-.31.31-.55,0-.27-.09-.48-.28-.61-.19-.13-.5-.2-.91-.21h-.84s-.03,1.55-.03,1.55h0ZM40.87,8.8h.74c.4.02.69-.03.86-.15.18-.11.27-.3.27-.55,0-.23-.08-.4-.26-.52-.18-.11-.46-.17-.84-.18h-.75s-.03,1.4-.03,1.4h0ZM40.47,10.96l.07-3.89,1.05.02c.52,0,.91.1,1.17.27.26.17.39.42.38.74,0,.22-.08.4-.21.55s-.33.25-.58.3c.3.05.54.17.71.34.17.17.25.39.24.64,0,.36-.15.62-.44.8s-.7.26-1.25.25l-1.15-.02h0ZM45.63,11.15l.72-3.83,2.41.4-.06.3-2.04-.34-.26,1.4,1.96.32-.05.29-1.96-.32-.29,1.53,2.12.35-.06.32-2.49-.41h0ZM50.35,12.2l1.28-3.7.36.11-1.18,3.4,1.97.6-.1.3-2.33-.71h0ZM54.63,13.68l1.89-3.46,2.18,1.04-.15.27-1.85-.88-.69,1.27,1.78.85-.14.26-1.78-.85-.75,1.38,1.92.92-.16.28-2.26-1.08h0ZM61.3,13.39l-1.99,2.66.59.39c.49.32.93.45,1.32.38s.76-.32,1.09-.77c.34-.46.48-.87.41-1.24-.07-.37-.35-.71-.84-1.03l-.59-.39h0ZM61.19,12.93l.92.6c.57.37.9.79.99,1.25.09.46-.06.95-.45,1.48s-.83.83-1.33.9c-.49.08-1.02-.07-1.59-.44l-.92-.6,2.38-3.18h0ZM63.07,19.41l2.83-2.84.27.24-2.83,2.84-.27-.24h0ZM66.28,16.16l.34-.34.31.27-.33.34-.31-.27h0ZM65.26,22.52l1.39-1.05.89-2.5.28.33-.76,2.1,2.34-.27.25.29-2.75.31-1.41,1.07-.23-.27h0ZM67.5,25.45l3.6-1.94,1.22,1.99-.29.16-1.04-1.68-1.31.71,1,1.62-.27.15-1-1.62-1.43.78,1.08,1.75-.29.16-1.27-2.06h0ZM70.74,29.62c-.24.1-.39.24-.45.44-.06.2-.03.44.09.73.11.27.28.46.49.58.21.12.42.13.64.05.11-.04.2-.1.27-.18.07-.08.12-.17.15-.29.02-.08.02-.24,0-.5-.01-.16-.02-.28-.02-.37-.02-.45.02-.77.11-.98.09-.21.26-.36.51-.45.3-.11.59-.1.87.04s.49.38.64.72c.15.36.2.66.14.92-.06.26-.23.45-.51.58l-.14-.33c.19-.09.31-.22.35-.39.04-.17.02-.38-.09-.63-.11-.26-.27-.44-.47-.55-.2-.11-.4-.12-.62-.04-.17.07-.29.17-.35.33-.06.15-.08.45-.05.9,0,.03,0,.07,0,.13.02.41,0,.68-.05.83-.05.14-.12.26-.22.35-.09.09-.21.17-.36.22-.32.12-.62.11-.91-.04-.28-.15-.51-.42-.67-.8-.16-.38-.2-.7-.12-.97s.29-.48.63-.64l.15.34h0ZM70.9,34.58l4.03-.94.09.34-4.03.94-.09-.34h0ZM75.49,33.48l.48-.11.1.39-.48.11-.1-.39h0Z"/>
    </g>
  </g>
</svg>