<?xml version="1.0" encoding="iso-8859-1"?>
<!-- Generator: Adobe Illustrator 29.7.1, SVG Export Plug-In . SVG Version: 9.03 Build 0)  -->
<svg version="1.1" id="Layer_1" xmlns="http://www.w3.org/2000/svg" xmlns:xlink="http://www.w3.org/1999/xlink" x="0px" y="0px"
	 viewBox="0 0 393 399" style="enable-background:new 0 0 393 399;" xml:space="preserve">
<g>
	<rect x="73.781" y="59.5" style="fill:#005836;" width="245.439" height="280"/>
	<rect x="106.447" y="94.965" style="fill:#FFFFFF;" width="178.114" height="203.194"/>
	<polygon style="fill:#005837;" points="118.098,106.633 118.098,286.486 128.488,286.486 128.488,288.072 116.512,288.072 
		116.512,105.047 274.498,105.047 274.498,288.072 262.52,288.072 262.52,286.486 272.912,286.486 272.912,106.633 	"/>
	<rect x="128.489" y="117.024" style="fill:#005837;" width="134.031" height="159.071"/>
	<path style="fill:#005837;" d="M224.964,285.133v-0.674V283.8c0-0.626-0.06-1.019-0.185-1.177
		c-0.193-0.251-0.508-0.377-0.937-0.377h-0.37v-0.281h8.039l0.893,2.587h-0.307c-0.335-0.633-0.66-1.107-0.977-1.423
		c-0.247-0.237-0.503-0.398-0.769-0.478c-0.266-0.082-0.695-0.123-1.284-0.123h-1.768c-0.286,0-0.48,0.029-0.584,0.088
		c-0.102,0.06-0.174,0.139-0.215,0.239c-0.042,0.1-0.062,0.379-0.062,0.84v0.764v0.674v1.968h2.309c0.591,0,0.985-0.09,1.187-0.269
		c0.266-0.233,0.413-0.646,0.445-1.238h0.282v3.625h-0.282c-0.071-0.507-0.143-0.833-0.215-0.976
		c-0.092-0.18-0.244-0.319-0.454-0.422c-0.213-0.105-0.536-0.155-0.979-0.155h-2.292v2.972c0,0.46,0.021,0.74,0.062,0.84
		c0.041,0.101,0.113,0.179,0.215,0.239c0.104,0.059,0.298,0.086,0.584,0.086h1.768c0.589,0,1.019-0.039,1.284-0.121
		c0.266-0.08,0.521-0.241,0.769-0.479c0.316-0.314,0.642-0.79,0.977-1.424h0.307l-0.893,2.59h-8.039v-0.283h0.37
		c0.429,0,0.743-0.125,0.937-0.375c0.125-0.16,0.185-0.553,0.185-1.178V285.133z M205.395,279.658c0,0.237-0.081,0.439-0.248,0.603
		c-0.166,0.164-0.364,0.247-0.6,0.247c-0.233,0-0.434-0.083-0.599-0.247c-0.166-0.165-0.249-0.366-0.249-0.603
		c0-0.234,0.083-0.433,0.249-0.597c0.165-0.166,0.365-0.247,0.599-0.247c0.235,0,0.434,0.081,0.6,0.247
		C205.314,279.226,205.395,279.424,205.395,279.658 M206.816,292.085v0.283h-4.457v-0.283h0.368c0.431,0,0.743-0.123,0.939-0.374
		c0.122-0.164,0.185-0.557,0.185-1.179V283.8c0-0.526-0.033-0.873-0.1-1.041c-0.053-0.127-0.157-0.237-0.316-0.329
		c-0.226-0.122-0.46-0.184-0.707-0.184h-0.368v-0.281c0,0,2.966-0.808,2.966,1.835v6.732c0,0.678,0.076,1.092,0.229,1.24
		c0.215,0.209,0.511,0.312,0.89,0.312H206.816z M251.462,279.658c0,0.237-0.083,0.439-0.25,0.603
		c-0.163,0.164-0.364,0.247-0.598,0.247c-0.235,0-0.434-0.083-0.6-0.247c-0.167-0.165-0.247-0.366-0.247-0.603
		c0-0.234,0.08-0.433,0.247-0.597c0.166-0.166,0.364-0.247,0.6-0.247c0.233,0,0.435,0.081,0.598,0.247
		C251.379,279.226,251.462,279.424,251.462,279.658 M252.882,292.085v0.283h-4.458v-0.283h0.369c0.432,0,0.743-0.123,0.938-0.374
		c0.122-0.164,0.184-0.557,0.184-1.179V283.8c0-0.526-0.032-0.873-0.1-1.041c-0.051-0.127-0.157-0.237-0.316-0.329
		c-0.224-0.122-0.459-0.184-0.706-0.184h-0.369v-0.281c0,0,2.969-0.808,2.969,1.835v6.732c0,0.678,0.073,1.092,0.229,1.24
		c0.215,0.209,0.51,0.312,0.887,0.312H252.882z M152.876,285.133v-0.674V283.8c0-0.626-0.061-1.019-0.184-1.177
		c-0.195-0.251-0.508-0.377-0.938-0.377h-0.369v-0.281h8.037l0.895,2.587h-0.308c-0.334-0.633-0.658-1.107-0.977-1.423
		c-0.246-0.237-0.502-0.398-0.768-0.478c-0.266-0.082-0.694-0.123-1.284-0.123h-1.768c-0.286,0-0.481,0.029-0.584,0.088
		c-0.103,0.06-0.174,0.139-0.215,0.239c-0.042,0.1-0.062,0.379-0.062,0.84v0.764v0.674v1.968h2.307c0.591,0,0.986-0.09,1.187-0.269
		c0.267-0.233,0.415-0.646,0.446-1.238h0.283v3.625h-0.283c-0.072-0.507-0.143-0.833-0.215-0.976
		c-0.092-0.18-0.244-0.319-0.454-0.422c-0.212-0.105-0.537-0.155-0.979-0.155h-2.292v2.972c0,0.46,0.02,0.74,0.062,0.84
		c0.041,0.101,0.112,0.179,0.215,0.239c0.103,0.059,0.298,0.086,0.584,0.086h1.768c0.59,0,1.018-0.039,1.284-0.121
		c0.266-0.08,0.522-0.241,0.768-0.479c0.318-0.314,0.643-0.79,0.977-1.424h0.308l-0.895,2.59h-8.037v-0.283h0.369
		c0.43,0,0.743-0.125,0.938-0.375c0.123-0.16,0.184-0.553,0.184-1.178V285.133z M167.121,289.892l-0.002,0.745
		c0,0.46,0.021,0.74,0.063,0.84c0.041,0.101,0.112,0.179,0.215,0.239c0.101,0.059,0.296,0.086,0.584,0.086h1.767
		c0.59,0,1.018-0.039,1.284-0.121c0.267-0.08,0.524-0.241,0.77-0.479c0.318-0.314,0.643-0.79,0.976-1.424h0.308l-0.895,2.59h-8.05
		v-0.283h0.368c0.431,0,0.744-0.125,0.938-0.375c0.123-0.16,0.184-0.553,0.184-1.178v-0.641v-0.367v-6.085
		c0-0.427-0.096-0.732-0.289-0.916c-0.193-0.186-0.515-0.277-0.966-0.277h-0.268v-0.281h4.646v0.281h-0.416
		c-0.436,0-0.748,0.091-0.936,0.275c-0.187,0.184-0.281,0.494-0.281,0.933V289.892z M177.747,285.133v-0.674V283.8
		c0-0.626-0.061-1.019-0.184-1.177c-0.195-0.251-0.507-0.377-0.937-0.377h-0.37v-0.281h8.037l0.895,2.587h-0.307
		c-0.334-0.633-0.658-1.107-0.976-1.423c-0.246-0.237-0.502-0.398-0.769-0.478c-0.267-0.082-0.695-0.123-1.283-0.123h-1.768
		c-0.288,0-0.482,0.029-0.584,0.088c-0.103,0.06-0.175,0.139-0.216,0.239c-0.04,0.1-0.061,0.379-0.061,0.84v0.764v0.674v1.968h2.309
		c0.59,0,0.986-0.09,1.186-0.269c0.267-0.233,0.416-0.646,0.447-1.238h0.283v3.625h-0.283c-0.072-0.507-0.145-0.833-0.216-0.976
		c-0.092-0.18-0.244-0.319-0.454-0.422c-0.211-0.105-0.537-0.155-0.979-0.155h-2.292v2.972c0,0.46,0.021,0.74,0.061,0.84
		c0.042,0.101,0.114,0.179,0.216,0.239c0.102,0.059,0.296,0.086,0.584,0.086h1.768c0.588,0,1.016-0.039,1.283-0.121
		c0.266-0.08,0.522-0.241,0.769-0.479c0.318-0.314,0.643-0.79,0.976-1.424h0.307l-0.895,2.59h-8.037v-0.283h0.37
		c0.43,0,0.742-0.125,0.937-0.375c0.123-0.16,0.184-0.553,0.184-1.178V285.133z M243.729,281.492v3.595h-0.284
		c-0.093-0.69-0.257-1.24-0.497-1.648c-0.237-0.409-0.576-0.733-1.016-0.974c-0.44-0.239-0.897-0.36-1.368-0.36
		c-0.531,0-0.973,0.163-1.321,0.486c-0.349,0.326-0.523,0.695-0.523,1.109c0,0.317,0.113,0.606,0.332,0.868
		c0.318,0.382,1.073,0.895,2.265,1.534c0.975,0.52,1.637,0.921,1.995,1.2c0.355,0.278,0.628,0.607,0.819,0.984
		c0.191,0.38,0.288,0.776,0.288,1.189c0,0.787-0.307,1.467-0.919,2.037c-0.609,0.569-1.396,0.854-2.356,0.854
		c-0.303,0-0.587-0.023-0.854-0.069c-0.157-0.025-0.487-0.12-0.985-0.283c-0.499-0.163-0.812-0.243-0.946-0.243
		c-0.13,0-0.229,0.039-0.303,0.115c-0.076,0.078-0.129,0.237-0.166,0.48h-0.282v-3.562h0.282c0.134,0.746,0.311,1.304,0.538,1.674
		c0.226,0.371,0.569,0.678,1.031,0.924c0.464,0.244,0.972,0.368,1.523,0.368c0.64,0,1.143-0.17,1.515-0.51
		c0.372-0.337,0.557-0.738,0.557-1.199c0-0.256-0.069-0.515-0.21-0.777c-0.141-0.261-0.358-0.505-0.653-0.73
		c-0.199-0.154-0.743-0.479-1.637-0.975c-0.894-0.496-1.526-0.893-1.905-1.189c-0.378-0.297-0.664-0.625-0.858-0.982
		c-0.196-0.359-0.293-0.753-0.293-1.181c0-0.746,0.286-1.39,0.861-1.928c0.574-0.54,1.304-0.81,2.19-0.81
		c0.554,0,1.141,0.137,1.759,0.405c0.289,0.128,0.489,0.191,0.609,0.191c0.132,0,0.24-0.039,0.326-0.117
		c0.085-0.08,0.152-0.239,0.203-0.479H243.729z M191.84,291.604c0.648,0.144,1.191,0.216,1.63,0.216c1.183,0,2.165-0.418,2.945-1.25
		c0.78-0.833,1.171-1.962,1.171-3.388c0-1.438-0.391-2.568-1.171-3.395c-0.78-0.829-1.782-1.243-3.007-1.243
		c-0.458,0-0.981,0.075-1.568,0.223V291.604z M188.873,292.368v-0.283h0.39c0.439,0,0.749-0.14,0.934-0.42
		c0.112-0.169,0.167-0.546,0.167-1.133V283.8c0-0.647-0.07-1.053-0.213-1.218c-0.198-0.223-0.494-0.336-0.888-0.336h-0.39v-0.281
		h4.231c1.553,0,2.735,0.175,3.545,0.528c0.81,0.354,1.462,0.94,1.955,1.765c0.492,0.823,0.738,1.774,0.738,2.854
		c0,1.447-0.439,2.657-1.316,3.629c-0.987,1.085-2.489,1.627-4.508,1.627H188.873z M141.02,291.613
		c0.593,0.136,1.17,0.206,1.732,0.206c0.94,0,1.654-0.208,2.139-0.625c0.486-0.416,0.728-0.931,0.728-1.544
		c0-0.398-0.109-0.784-0.328-1.161c-0.22-0.374-0.577-0.669-1.072-0.884c-0.495-0.215-1.128-0.321-1.897-0.321
		c-0.598,0-1.031,0.022-1.302,0.068V291.613z M141.02,286.626c0.383,0.073,0.856,0.109,1.423,0.109c0.755,0,1.321-0.081,1.698-0.241
		c0.379-0.161,0.667-0.406,0.866-0.737c0.2-0.331,0.299-0.692,0.299-1.083c0-0.607-0.248-1.123-0.742-1.552
		c-0.496-0.427-1.22-0.641-2.174-0.641c-0.504,0-0.962,0.056-1.37,0.169V286.626z M145.031,287.053
		c0.721,0.153,1.26,0.399,1.618,0.737c0.496,0.472,0.745,1.045,0.745,1.721c0,0.521-0.163,1.02-0.49,1.494
		c-0.327,0.474-0.774,0.819-1.343,1.036c-0.57,0.219-1.438,0.327-2.608,0.327h-4.899v-0.283h0.388c0.431,0,0.741-0.138,0.929-0.412
		c0.115-0.179,0.175-0.56,0.175-1.141V283.8c0-0.644-0.073-1.048-0.221-1.218c-0.197-0.223-0.492-0.336-0.883-0.336h-0.388v-0.281
		h4.484c0.836,0,1.507,0.061,2.012,0.182c0.766,0.185,1.35,0.511,1.753,0.977c0.403,0.469,0.604,1.007,0.604,1.614
		c0,0.521-0.16,0.986-0.479,1.397C146.108,286.549,145.643,286.854,145.031,287.053 M215.894,286.917
		c0.483-0.262,1.201-0.908,1.296-2.125v-1.089c0-2.672,2.998-1.857,2.998-1.857v0.286h-0.374c-0.247,0-0.484,0.062-0.713,0.186
		c-0.161,0.094-0.268,0.204-0.321,0.334c-0.066,0.17-0.099,0.521-0.099,1.052c0,0,0.055,1.089-0.15,1.762
		c-0.097,0.315-0.263,0.62-0.496,0.915c-0.347,0.438-0.806,0.78-1.378,1.022c-0.319,0.136-0.7,0.238-1.148,0.308l-0.03,3.167
		c0,0.43,0.095,0.739,0.288,0.925c0.192,0.188,0.516,0.281,0.973,0.281h0.279v0.285h-4.555v-0.285h0.27
		c0.455,0,0.776-0.094,0.968-0.281c0.189-0.186,0.286-0.495,0.286-0.925v-3.167c-0.445-0.069-0.829-0.172-1.147-0.308
		c-0.572-0.242-1.032-0.584-1.378-1.022c-0.233-0.295-0.399-0.6-0.497-0.915c-0.203-0.673-0.149-1.762-0.149-1.762
		c0-0.531-0.032-0.882-0.1-1.052c-0.053-0.13-0.159-0.24-0.318-0.334c-0.229-0.124-0.467-0.186-0.716-0.186h-0.374v-0.286
		c0,0,3.001-0.815,3.001,1.857v1.089c0.093,1.217,0.812,1.863,1.237,2.103c0.326,0.162,0.758,0.247,1.203,0.25
		C215.192,287.142,215.624,287.057,215.894,286.917"/>
	
		<rect x="155.873" y="144.503" transform="matrix(0.7071 -0.7071 0.7071 0.7071 -72.9196 192.1177)" style="fill:#FFFFFF;" width="79.158" height="79.16"/>
	<polygon style="fill:#005837;" points="191.984,160.833 160.304,192.513 163.799,196.008 167.752,192.056 174.832,199.134 
		170.877,203.088 174.368,206.578 178.323,202.625 185.402,209.7 181.447,213.656 184.937,217.146 188.894,213.19 190.662,214.959 
		195.975,220.27 192.019,224.227 195.509,227.716 199.467,223.761 201.268,225.562 195.509,231.319 188.415,224.226 192.372,220.27 
		188.895,216.794 184.937,220.75 177.843,213.656 181.799,209.701 178.323,206.228 174.368,210.181 167.274,203.088 
		171.229,199.134 167.752,195.659 163.799,199.611 156.668,192.481 190.15,158.999 	"/>
	<polygon style="fill:#005837;" points="199.007,207.273 230.717,175.565 227.227,172.075 223.266,176.035 216.185,168.957 
		220.146,164.997 216.656,161.506 212.694,165.466 205.614,158.39 209.578,154.427 206.087,150.937 202.122,154.9 200.355,153.132 
		195.041,147.821 199.006,143.857 195.516,140.367 191.55,144.331 189.748,142.53 195.517,136.763 202.609,143.857 198.645,147.821 
		202.12,151.296 206.087,147.334 213.182,154.427 209.218,158.39 212.694,161.864 216.656,157.902 223.75,164.997 219.788,168.957 
		223.266,172.433 227.227,168.471 234.32,175.565 200.808,209.074 	"/>
	<polygon style="fill:#005837;" points="218.715,180.527 187.035,148.847 183.545,152.336 187.497,156.291 180.419,163.369 
		176.466,159.416 172.976,162.906 176.928,166.858 169.851,173.938 165.897,169.984 162.406,173.475 166.36,177.428 
		164.592,179.196 159.279,184.508 155.326,180.555 151.835,184.045 155.789,187.999 153.988,189.799 148.232,184.045 
		155.326,176.951 159.279,180.906 162.755,177.43 158.803,173.475 165.897,166.382 169.851,170.335 173.326,166.859 
		169.372,162.906 176.466,155.812 180.42,159.766 183.895,156.291 179.941,152.336 187.07,145.21 220.553,178.692 	"/>
	<polygon style="fill:#005837;" points="172.297,187.567 203.977,219.247 207.473,215.753 203.52,211.801 210.599,204.722 
		214.551,208.675 218.041,205.185 214.089,201.232 221.167,194.155 225.119,198.105 228.609,194.616 224.657,190.663 
		226.426,188.895 231.737,183.583 235.692,187.535 239.183,184.045 235.227,180.092 237.028,178.292 242.784,184.045 
		235.692,191.14 231.737,187.185 228.261,190.661 232.213,194.616 225.119,201.709 221.167,197.757 217.692,201.232 
		221.645,205.185 214.551,212.279 210.599,208.327 207.124,211.801 211.076,215.753 203.979,222.851 170.496,189.369 	"/>
	<path style="fill:#BEB100;" d="M204.054,195.152c0.003,1.138-0.201,2.236-0.623,3.262c-0.414,1.001-1.014,1.925-1.75,2.722
		c-1.443,1.474-3.306,2.28-5.448,2.423c-0.232,0.013-0.473,0.021-0.715,0.018c-0.259,0.003-0.498-0.004-0.734-0.018
		c-2.141-0.146-4.005-0.946-5.448-2.418c-0.739-0.803-1.336-1.723-1.748-2.727c-0.426-1.026-0.631-2.121-0.628-3.265
		c0.001-1.101,0.409-2.187,0.838-3.122c0.424-0.919,0.975-1.907,1.502-2.953l0.095-0.185c0.378-0.764,0.741-1.555,1.007-2.379
		c0.239-0.722,0.388-1.42,0.422-2.108c0.01-0.24,0.008-0.481-0.007-0.723c-0.076-1.719-0.87-3.439-1.823-5.267
		c-0.488-0.937-0.966-1.83-1.33-2.654c-0.368-0.851-0.708-1.827-0.706-2.825c0-1.143,0.202-2.236,0.63-3.263
		c0.3-0.734,0.691-1.416,1.174-2.049c0.177-0.225,0.376-0.465,0.573-0.677c1.443-1.471,3.308-2.277,5.45-2.42
		c0.236-0.014,0.476-0.022,0.729-0.019c0.247-0.005,0.484,0.006,0.721,0.02c2.139,0.143,4.004,0.947,5.442,2.42
		c0.739,0.801,1.337,1.721,1.751,2.722c0.422,1.031,0.628,2.123,0.63,3.265c0.001,0.995-0.335,1.973-0.709,2.826
		c-0.362,0.827-0.841,1.716-1.327,2.651c-0.954,1.831-1.748,3.548-1.826,5.266c-0.013,0.243-0.01,0.486-0.003,0.732
		c0.081,1.715,0.876,3.433,1.826,5.262c0.489,0.934,0.972,1.825,1.33,2.65C203.724,193.178,204.061,194.152,204.054,195.152
		 M198.815,183.564c-0.263,0-0.478,0.214-0.478,0.478c0,0.263,0.215,0.477,0.478,0.477c0.266,0,0.479-0.213,0.479-0.477
		C199.295,183.778,199.081,183.564,198.815,183.564 M196.011,183.406c-0.351,0-0.636,0.284-0.636,0.636
		c0,0.351,0.285,0.635,0.636,0.635c0.352,0,0.637-0.284,0.637-0.635C196.648,183.69,196.363,183.406,196.011,183.406
		 M192.628,183.169c-0.48,0-0.872,0.391-0.872,0.874c0,0.481,0.392,0.873,0.872,0.873c0.482,0,0.874-0.391,0.874-0.873
		C193.502,183.56,193.11,183.169,192.628,183.169 M201.753,169.963c0.324,0.043,0.477-0.262,0.456-0.488
		c-0.023-0.236-0.203-0.507-0.482-0.549c-0.323-0.051-0.487,0.25-0.468,0.48C201.281,169.648,201.467,169.925,201.753,169.963
		 M188.935,196.291c0.854,0.054,1.333-0.819,1.327-1.505c-0.007-0.695-0.498-1.575-1.351-1.55c-0.809,0.023-1.22,0.859-1.213,1.512
		C187.707,195.409,188.136,196.239,188.935,196.291 M192.979,196.075c0.691,0.01,1.251-0.582,1.25-1.257
		c-0.002-0.675-0.564-1.275-1.257-1.27c-0.683,0.003-1.222,0.594-1.218,1.259C191.757,195.472,192.298,196.064,192.979,196.075
		 M196.994,195.887c0.579-0.006,1.054-0.5,1.056-1.072c0.003-0.573-0.473-1.067-1.053-1.068c-0.586-0.001-1.07,0.495-1.071,1.074
		C195.926,195.398,196.409,195.892,196.994,195.887 M200.515,195.529c0.409-0.01,0.667-0.397,0.672-0.745
		c0.002-0.346-0.252-0.734-0.666-0.734c-0.419-0.002-0.688,0.391-0.69,0.746C199.828,195.148,200.095,195.54,200.515,195.529
		 M202.761,195.273c0.311-0.013,0.426-0.34,0.429-0.525c0.002-0.18-0.107-0.52-0.427-0.517c-0.317,0.002-0.439,0.339-0.44,0.526
		C202.32,194.939,202.436,195.285,202.761,195.273 M190.161,191.946c0.643-0.038,1.121-0.644,1.148-1.238
		c0.027-0.576-0.416-1.143-1.059-1.074c-0.612,0.066-1.052,0.645-1.089,1.214C189.123,191.407,189.525,191.984,190.161,191.946
		 M194.269,191.609c0.556-0.007,1.062-0.464,1.063-1.044c0.003-0.572-0.497-1.012-1.047-0.999c-0.547,0.01-1.041,0.46-1.055,1.026
		C193.218,191.169,193.717,191.615,194.269,191.609 M198.479,191.365c0.396,0.016,0.725-0.313,0.71-0.708
		c-0.016-0.391-0.344-0.725-0.734-0.746c-0.398-0.021-0.731,0.304-0.722,0.702C197.742,191.01,198.081,191.351,198.479,191.365
		 M201.535,191.372c0.316,0.03,0.47-0.27,0.453-0.494c-0.015-0.23-0.188-0.504-0.472-0.537c-0.318-0.036-0.48,0.263-0.467,0.489
		C201.065,191.067,201.244,191.346,201.535,191.372 M192.194,187.97c0.459-0.041,0.97-0.407,1.004-0.935
		c0.033-0.542-0.488-0.815-0.917-0.768c-0.447,0.049-0.924,0.405-0.976,0.906C191.25,187.717,191.761,188.01,192.194,187.97
		 M196.157,187.588c0.311,0.006,0.728-0.208,0.714-0.628c-0.015-0.403-0.412-0.626-0.726-0.634
		c-0.309-0.007-0.717,0.201-0.716,0.613C195.429,187.354,195.841,187.58,196.157,187.588 M199.338,187.647
		c0.23,0.026,0.517-0.13,0.481-0.439c-0.029-0.27-0.275-0.46-0.51-0.49c-0.227-0.031-0.516,0.12-0.487,0.43
		C198.848,187.424,199.102,187.618,199.338,187.647 M192.538,202.454c0.415,0.044,0.95-0.214,0.918-0.758
		c-0.031-0.53-0.554-0.879-1.003-0.92c-0.421-0.035-0.95,0.239-0.895,0.787C191.61,202.068,192.098,202.407,192.538,202.454
		 M196.387,202.372c0.307-0.01,0.705-0.228,0.721-0.626c0.018-0.422-0.404-0.622-0.706-0.613c-0.309,0.01-0.721,0.229-0.725,0.641
		C195.673,202.186,196.087,202.381,196.387,202.372 M199.508,201.953c0.228-0.032,0.471-0.22,0.504-0.485
		c0.036-0.31-0.25-0.457-0.474-0.427c-0.23,0.03-0.482,0.221-0.51,0.493C198.995,201.845,199.289,201.985,199.508,201.953
		 M190.058,199.827c0.645,0.092,1.104-0.46,1.066-1.05c-0.04-0.615-0.545-1.227-1.194-1.285c-0.645-0.059-1.053,0.514-1.001,1.084
		C188.983,199.157,189.442,199.738,190.058,199.827 M194.226,199.985c0.552,0.016,1.087-0.41,1.085-1.005
		c-0.002-0.604-0.548-1.056-1.11-1.066c-0.555-0.011-1.091,0.426-1.072,1.028C193.147,199.529,193.674,199.97,194.226,199.985
		 M198.57,199.614c0.391-0.029,0.739-0.36,0.761-0.762c0.022-0.415-0.327-0.733-0.726-0.711c-0.399,0.021-0.76,0.359-0.775,0.773
		C197.814,199.33,198.174,199.641,198.57,199.614 M201.727,199.085c0.279-0.043,0.459-0.312,0.482-0.549
		c0.02-0.227-0.132-0.531-0.456-0.488c-0.286,0.038-0.472,0.313-0.494,0.557C201.239,198.835,201.403,199.136,201.727,199.085
		 M188.911,174.774c0.852,0.025,1.344-0.854,1.351-1.549c0.006-0.686-0.473-1.561-1.327-1.506c-0.799,0.052-1.228,0.882-1.236,1.544
		C187.691,173.917,188.102,174.752,188.911,174.774 M192.972,174.463c0.693,0.003,1.255-0.595,1.257-1.271
		c0.001-0.674-0.558-1.268-1.25-1.256c-0.681,0.012-1.222,0.604-1.226,1.266C191.75,173.868,192.289,174.46,192.972,174.463
		 M196.997,174.264c0.58-0.001,1.056-0.495,1.053-1.069c-0.002-0.571-0.477-1.065-1.056-1.071c-0.585-0.005-1.068,0.488-1.068,1.066
		C195.927,173.769,196.412,174.266,196.997,174.264 M200.52,173.96c0.414,0,0.668-0.388,0.666-0.734
		c-0.005-0.348-0.263-0.734-0.672-0.745c-0.42-0.01-0.686,0.381-0.684,0.733C199.832,173.569,200.102,173.962,200.52,173.96
		 M202.763,173.779c0.32,0.002,0.429-0.337,0.427-0.516c-0.003-0.185-0.118-0.514-0.429-0.525c-0.325-0.012-0.44,0.335-0.438,0.516
		C202.324,173.441,202.445,173.778,202.763,173.779 M190.25,178.377c0.643,0.069,1.086-0.499,1.059-1.074
		c-0.027-0.594-0.505-1.2-1.148-1.238c-0.636-0.038-1.038,0.539-1.001,1.098C189.198,177.73,189.638,178.31,190.25,178.377
		 M194.286,178.445c0.549,0.012,1.049-0.428,1.047-0.999c-0.001-0.579-0.508-1.035-1.063-1.043c-0.552-0.007-1.051,0.44-1.038,1.017
		C193.245,177.985,193.738,178.435,194.286,178.445 M198.454,178.101c0.391-0.022,0.719-0.355,0.734-0.746
		c0.015-0.396-0.313-0.725-0.71-0.71c-0.397,0.015-0.736,0.355-0.746,0.754C197.723,177.797,198.057,178.121,198.454,178.101
		 M201.517,177.67c0.284-0.032,0.457-0.306,0.472-0.538c0.017-0.223-0.137-0.523-0.453-0.494c-0.291,0.026-0.47,0.306-0.485,0.541
		C201.036,177.409,201.198,177.708,201.517,177.67 M192.282,181.744c0.428,0.047,0.949-0.228,0.917-0.769
		c-0.034-0.527-0.545-0.892-1.004-0.935c-0.434-0.04-0.944,0.253-0.889,0.796C191.358,181.339,191.835,181.694,192.282,181.744
		 M196.145,181.685c0.314-0.007,0.712-0.231,0.726-0.634c0.014-0.421-0.403-0.634-0.714-0.626c-0.316,0.005-0.727,0.233-0.729,0.646
		C195.427,181.484,195.835,181.692,196.145,181.685 M199.31,181.294c0.234-0.031,0.48-0.222,0.51-0.491
		c0.035-0.31-0.251-0.466-0.481-0.439c-0.235,0.029-0.49,0.221-0.516,0.499C198.794,181.172,199.083,181.324,199.31,181.294
		 M192.453,167.233c0.448-0.04,0.972-0.389,1.003-0.918c0.032-0.544-0.503-0.802-0.918-0.758c-0.44,0.047-0.927,0.387-0.979,0.89
		C191.503,166.995,192.032,167.271,192.453,167.233 M196.402,166.878c0.301,0.008,0.723-0.191,0.706-0.613
		c-0.016-0.399-0.415-0.616-0.721-0.626c-0.3-0.009-0.714,0.186-0.709,0.598C195.681,166.648,196.094,166.869,196.402,166.878
		 M199.538,166.97c0.224,0.03,0.51-0.118,0.474-0.428c-0.033-0.264-0.276-0.451-0.504-0.484c-0.219-0.031-0.513,0.109-0.48,0.42
		C199.056,166.749,199.308,166.939,199.538,166.97 M189.93,170.52c0.649-0.058,1.154-0.671,1.194-1.285
		c0.038-0.589-0.421-1.143-1.066-1.049c-0.616,0.087-1.075,0.667-1.129,1.25C188.876,170.006,189.285,170.578,189.93,170.52
		 M194.201,170.097c0.561-0.01,1.107-0.461,1.11-1.065c0.002-0.595-0.533-1.021-1.085-1.006c-0.552,0.016-1.079,0.457-1.097,1.044
		C193.11,169.672,193.646,170.109,194.201,170.097 M198.605,169.87c0.398,0.021,0.748-0.296,0.726-0.711
		c-0.021-0.403-0.37-0.734-0.761-0.762c-0.396-0.027-0.756,0.284-0.74,0.7S198.206,169.848,198.605,169.87"/>
	<path style="fill:#FFFFFF;" d="M146.109,251.827c-1.24,0-2.217,0.441-2.933,1.323c-0.905,1.112-1.358,2.735-1.358,4.867
		c0,2.185,0.466,3.867,1.397,5.046c0.715,0.895,1.66,1.342,2.835,1.342c1.253,0,2.287-0.49,3.104-1.47
		c0.817-0.981,1.226-2.528,1.226-4.641c0-2.285-0.447-3.985-1.339-5.105C148.311,252.282,147.336,251.827,146.109,251.827
		 M146.088,251.121c1.819,0,3.367,0.655,4.64,1.968c1.274,1.313,1.912,2.966,1.912,4.959c0,2.025-0.641,3.71-1.922,5.051
		c-1.28,1.343-2.833,2.014-4.659,2.014c-1.833,0-3.374-0.654-4.625-1.964c-1.252-1.309-1.877-3.003-1.877-5.081
		c0-1.453,0.339-2.727,1.019-3.818c0.681-1.093,1.533-1.887,2.558-2.384C144.157,251.369,145.143,251.121,146.088,251.121"/>
	<path style="fill:#FFFFFF;" d="M202.04,251.119h3.724l8.401,10.323v-7.936c0-0.849-0.095-1.376-0.286-1.587
		c-0.254-0.284-0.656-0.427-1.203-0.427h-0.482v-0.374h4.837v0.374h-0.492c-0.589,0-1.007,0.175-1.254,0.529
		c-0.152,0.216-0.226,0.711-0.226,1.484v11.605h-0.367l-9.059-11.091v8.708c0,0.848,0.092,1.377,0.276,1.587
		c0.262,0.285,0.663,0.428,1.203,0.428h0.492v0.372h-4.837v-0.372h0.482c0.596,0,1.017-0.177,1.263-0.529
		c0.151-0.217,0.227-0.712,0.227-1.485v-9.803c-0.457-0.543-0.801-0.879-1.032-1.008c-0.505-0.283-0.977-0.426-1.414-0.426h-0.253
		V251.119z"/>
	<path style="fill:#FFFFFF;" d="M162.123,251.216v4.592h-0.361c-0.118-0.882-0.33-1.583-0.634-2.106
		c-0.303-0.52-0.737-0.937-1.3-1.243c-0.562-0.306-1.145-0.46-1.747-0.46c-0.681,0-1.243,0.207-1.689,0.621
		c-0.444,0.417-0.667,0.888-0.667,1.418c0,0.405,0.14,0.774,0.422,1.106c0.405,0.491,1.37,1.145,2.895,1.961
		c1.244,0.668,2.092,1.179,2.546,1.534c0.454,0.356,0.804,0.776,1.048,1.26c0.246,0.483,0.368,0.99,0.368,1.52
		c0,1.006-0.39,1.874-1.171,2.603c-0.78,0.727-1.785,1.092-3.015,1.092c-0.385,0-0.748-0.03-1.088-0.089
		c-0.202-0.034-0.622-0.153-1.259-0.361c-0.637-0.208-1.041-0.311-1.211-0.311c-0.163,0-0.292,0.049-0.387,0.147
		c-0.095,0.1-0.165,0.304-0.21,0.614h-0.362v-4.553h0.362c0.168,0.953,0.398,1.667,0.685,2.14c0.288,0.474,0.727,0.867,1.319,1.182
		c0.591,0.312,1.24,0.47,1.945,0.47c0.817,0,1.462-0.216,1.936-0.649c0.474-0.433,0.71-0.943,0.71-1.533
		c0-0.328-0.088-0.658-0.268-0.993c-0.179-0.335-0.458-0.646-0.835-0.935c-0.254-0.196-0.951-0.612-2.091-1.246
		c-1.14-0.634-1.95-1.142-2.433-1.518c-0.483-0.38-0.848-0.797-1.097-1.255c-0.249-0.457-0.374-0.959-0.374-1.508
		c0-0.954,0.367-1.775,1.101-2.464c0.733-0.688,1.665-1.033,2.797-1.033c0.708,0,1.458,0.172,2.25,0.518
		c0.366,0.162,0.625,0.244,0.775,0.244c0.17,0,0.31-0.051,0.418-0.151c0.109-0.102,0.195-0.305,0.261-0.61H162.123z"/>
	<path style="fill:#FFFFFF;" d="M232.883,258.003c0.63-0.343,1.572-1.19,1.691-2.78v-1.426c0-3.495,3.925-2.429,3.925-2.429v0.374
		h-0.487c-0.325,0-0.637,0.081-0.936,0.243c-0.208,0.121-0.349,0.266-0.416,0.435c-0.088,0.224-0.132,0.682-0.132,1.377
		c0,0,0.072,1.426-0.193,2.305c-0.13,0.413-0.347,0.812-0.651,1.197c-0.452,0.573-1.055,1.021-1.803,1.339
		c-0.416,0.177-0.917,0.311-1.501,0.401l-0.039,4.143c0,0.562,0.125,0.968,0.377,1.211c0.249,0.245,0.674,0.366,1.27,0.366h0.367
		v0.375h-5.959v-0.375h0.354c0.593,0,1.016-0.121,1.265-0.366c0.25-0.243,0.374-0.648,0.374-1.211v-4.143
		c-0.584-0.091-1.082-0.225-1.5-0.401c-0.748-0.318-1.351-0.766-1.803-1.339c-0.306-0.385-0.523-0.784-0.649-1.197
		c-0.268-0.879-0.196-2.305-0.196-2.305c0-0.695-0.044-1.153-0.131-1.377c-0.067-0.169-0.206-0.314-0.416-0.435
		c-0.298-0.162-0.609-0.243-0.938-0.243h-0.487v-0.374c0,0,3.925-1.066,3.925,2.429v1.426c0.12,1.59,1.062,2.438,1.618,2.748
		c0.425,0.216,0.993,0.324,1.572,0.329C231.964,258.295,232.531,258.186,232.883,258.003"/>
	<path style="fill:#FFFFFF;" d="M170.89,251.73c-0.642,0.007-1.199,0.117-1.618,0.328c-0.556,0.311-1.498,1.159-1.62,2.749v7.858
		c0,3.495-3.924,2.429-3.924,2.429v-0.374h0.488c0.326,0,0.638-0.08,0.936-0.242c0.209-0.121,0.349-0.267,0.416-0.437
		c0.088-0.222,0.132-0.68,0.132-1.376v-7.38c0,0-0.02-0.651,0.194-1.359c0.129-0.412,0.346-0.81,0.65-1.195
		c0.454-0.575,1.056-1.021,1.804-1.338c0.556-0.237,1.529-0.375,2.514-0.377c1.013,0.002,1.983,0.14,2.542,0.377
		c0.678,0.286,1.235,0.68,1.671,1.18c0.435-0.5,0.993-0.893,1.67-1.18c0.559-0.237,1.529-0.375,2.542-0.377
		c0.985,0.002,1.956,0.14,2.516,0.377c0.747,0.316,1.349,0.763,1.801,1.338c0.306,0.386,0.522,0.783,0.65,1.195
		c0.215,0.708,0.195,1.359,0.195,1.359v7.38c0,0.696,0.043,1.154,0.132,1.376c0.067,0.17,0.206,0.315,0.416,0.437
		c0.298,0.162,0.61,0.242,0.936,0.242h0.487v0.374c0,0-3.923,1.066-3.923-2.429v-7.858c-0.122-1.59-1.062-2.438-1.619-2.749
		c-0.42-0.211-0.975-0.321-1.618-0.328c-0.615,0.008-1.171,0.117-1.591,0.328c-0.556,0.311-1.498,1.159-1.619,2.749v0.381v9.888
		H174.1v-9.79v-0.479c-0.122-1.59-1.062-2.438-1.619-2.749C172.061,251.848,171.505,251.738,170.89,251.73"/>
	<path style="fill:#FFFFFF;" d="M243.564,254.648v1.267v1.871h3.052c0.78,0,1.302-0.118,1.567-0.353
		c0.354-0.311,0.552-0.856,0.591-1.639h0.374v4.795h-0.374c-0.095-0.671-0.189-1.102-0.284-1.292
		c-0.124-0.238-0.323-0.424-0.602-0.559c-0.276-0.137-0.708-0.203-1.292-0.203h-3.031v4.287c0,0.608,0.025,0.979,0.08,1.11
		c0.054,0.133,0.148,0.237,0.284,0.316c0.137,0.077,0.393,0.116,0.773,0.116h2.339c0.777,0,1.346-0.055,1.696-0.161
		c0.354-0.107,0.692-0.319,1.016-0.634c0.423-0.417,0.853-1.044,1.293-1.883h0.406l-1.182,3.425H239.64v-0.373h0.487
		c0.57,0,0.983-0.167,1.239-0.5c0.164-0.21,0.245-0.729,0.245-1.556v-6.769v-1.267v-1.004c0-0.829-0.081-1.347-0.245-1.558
		c-0.256-0.332-0.669-0.497-1.239-0.497h-0.487v-0.374h10.631l1.182,3.426h-0.406c-0.44-0.839-0.87-1.467-1.293-1.884
		c-0.323-0.315-0.662-0.526-1.016-0.635c-0.351-0.107-0.919-0.16-1.696-0.16h-2.339c-0.381,0-0.637,0.039-0.773,0.117
		c-0.136,0.077-0.23,0.182-0.284,0.314c-0.055,0.133-0.08,0.502-0.08,1.112V254.648z"/>
	<path style="fill:#FFFFFF;" d="M199.291,262.728c0.291,0.758,0.64,1.303,1.045,1.636c0.298,0.236,0.71,0.361,1.236,0.376v0.373
		h-5.292v-0.373c0.473-0.027,0.801-0.119,0.983-0.274c0.182-0.156,0.274-0.37,0.274-0.641c0-0.237-0.112-0.637-0.335-1.198
		l-1.571-4.088h-3.203l-1.609,4.139c-0.216,0.542-0.324,0.914-0.324,1.117c0,0.265,0.095,0.479,0.288,0.644
		c0.193,0.168,0.552,0.268,1.08,0.302v0.373h-4.147v-0.373c0.487-0.034,0.862-0.167,1.126-0.397c0.399-0.346,0.78-0.985,1.146-1.919
		l3.589-9.231c-0.205-0.503-0.376-0.83-0.516-0.982c-0.124-0.133-0.306-0.219-0.544-0.257c-0.337-0.044-0.658-0.008-0.961,0.108
		l-0.456,0.176l-0.134-0.349c0,0,3.237-2.402,4.49,0.86L199.291,262.728z M195.345,257.791l-1.305-3.396l-1.32,3.396H195.345z"/>
	<path style="fill:#FFFFFF;" d="M224.104,264.739v0.373h-5.896v-0.373h0.489c0.568,0,0.981-0.166,1.24-0.496
		c0.161-0.217,0.244-0.736,0.244-1.56v-8.907c0-0.695-0.046-1.153-0.134-1.377c-0.066-0.168-0.205-0.313-0.415-0.436
		c-0.301-0.162-0.612-0.243-0.936-0.243h-0.489v-0.373c0,0,3.925-1.066,3.925,2.429v8.907c0,0.897,0.099,1.444,0.303,1.639
		c0.283,0.278,0.674,0.417,1.172,0.417H224.104z M222.224,248.297c0,0.313-0.108,0.582-0.327,0.799
		c-0.22,0.218-0.482,0.327-0.792,0.327s-0.575-0.109-0.794-0.327c-0.218-0.217-0.328-0.485-0.328-0.799
		c0-0.309,0.11-0.571,0.328-0.79c0.219-0.218,0.484-0.326,0.794-0.326s0.572,0.108,0.792,0.326
		C222.115,247.726,222.224,247.988,222.224,248.297"/>
	<path style="fill:#005837;" d="M175.819,184.042l9.843-9.844c0.159,0.805,0.44,1.535,0.698,2.132
		c0.374,0.848,0.869,1.775,1.372,2.742c0.961,1.844,1.603,3.316,1.663,4.682c0.012,0.194,0.015,0.391,0.007,0.584
		c-0.027,0.53-0.144,1.099-0.353,1.73c-0.244,0.757-0.579,1.482-0.927,2.183l-0.092,0.182c-0.536,1.061-1.096,2.068-1.525,3.001
		c-0.311,0.675-0.659,1.522-0.84,2.453L175.819,184.042z M205.354,174.198l9.844,9.844l-9.844,9.842
		c-0.156-0.802-0.436-1.529-0.698-2.13c-0.371-0.853-0.867-1.773-1.375-2.739c-0.956-1.845-1.596-3.289-1.663-4.649
		c-0.006-0.206-0.011-0.412,0-0.614c0.064-1.365,0.705-2.833,1.668-4.68c0.501-0.965,0.993-1.886,1.367-2.738
		C204.917,175.729,205.196,175,205.354,174.198"/>
</g>
</svg>
