<?xml version="1.0" encoding="iso-8859-1"?>
<!-- Generator: Adobe Illustrator 29.7.1, SVG Export Plug-In . SVG Version: 9.03 Build 0)  -->
<svg version="1.1" id="katman_1" xmlns="http://www.w3.org/2000/svg" xmlns:xlink="http://www.w3.org/1999/xlink" x="0px" y="0px"
	 viewBox="0 0 800 600" style="enable-background:new 0 0 800 600;" xml:space="preserve">
<g>
	<g>
		<defs>
			<rect id="SVGID_1_" x="-1368.5" y="-126.9" width="2342.5" height="873.8"/>
		</defs>
		<clipPath id="SVGID_00000173154319596142706570000012628003400810130587_">
			<use xlink:href="#SVGID_1_"  style="overflow:visible;"/>
		</clipPath>
		<path style="clip-path:url(#SVGID_00000173154319596142706570000012628003400810130587_);fill:#DD2127;" d="M229.1,268
			c0-88,71.3-159.3,159.3-159.3S547.6,180,547.6,268c0,56.2-29.2,105.7-73.2,134c-2.3,1.5-4.6,2.9-7,4.3c-1.6,0.9-3.1,1.8-4.7,2.6h2
			h4.7h59.2c0.1-0.1,0.2-0.2,0.3-0.3c37.5-37.5,58.2-87.5,58.2-140.6s-20.7-103-58.2-140.6c-37.5-37.5-87.5-58.2-140.6-58.2
			s-103,20.7-140.6,58.2c-37.5,37.5-58.2,87.5-58.2,140.6s20.7,103,58.2,140.6c0.1,0.1,0.2,0.2,0.3,0.3h56.6h7h1.7h0.6
			c-0.7-0.4-1.5-0.8-2.2-1.2c-2.9-1.6-5.7-3.2-8.4-5c-3.4-2.1-6.7-4.4-9.9-6.8C254.4,367,229.1,320.5,229.1,268"/>
	</g>
	<g>
		<defs>
			<rect id="SVGID_00000127029046131493374840000003521519409810331264_" x="-1368.5" y="-126.9" width="2342.5" height="873.8"/>
		</defs>
		<clipPath id="SVGID_00000127738618410509534850000004431266623510196626_">
			<use xlink:href="#SVGID_00000127029046131493374840000003521519409810331264_"  style="overflow:visible;"/>
		</clipPath>
		<path style="clip-path:url(#SVGID_00000127738618410509534850000004431266623510196626_);fill:#0059AB;" d="M509.1,295
			c0,0-6,2.5-11.6-0.7c-1.6-1-2.9-2.5-3.1-5.2l-1.6-0.7c-3.3,1.1-4.6-1-4.7-1.4c-1.3-2.4-4.5-8.6-4.5-8.6s7,1.8,9.8,2.5l10.6,5.9
			C504,286.7,508.9,294.5,509.1,295"/>
	</g>
	<g>
		<defs>
			<rect id="SVGID_00000115490946940284767560000006253205745619968689_" x="-1368.5" y="-126.9" width="2342.5" height="873.8"/>
		</defs>
		<clipPath id="SVGID_00000024684833896600796010000013976476299587464635_">
			<use xlink:href="#SVGID_00000115490946940284767560000006253205745619968689_"  style="overflow:visible;"/>
		</clipPath>
		<path style="clip-path:url(#SVGID_00000024684833896600796010000013976476299587464635_);fill:#0059AB;" d="M383.1,180.4
			c-7.4-3.1-15.5-0.2-19.2,6.1c-0.1,0.1,1.3-6.2,2-9.3c0.1-1.7,2.4-2.7,2.4-2.7c-0.2-1,0.7-1.9,1.5-2.3c0-0.1-1.1-2.4,1.2-3
			c1.4-0.2,2.3,0.2,2.6,1.4c0.2,0.8,0.2,1,0.2,1c1.9,0.3,2.3,2,2.3,2c1.1,0,1.9,0.6,2.4,1.1C379.7,176.3,383.1,180.4,383.1,180.4"/>
	</g>
	<g>
		<defs>
			<rect id="SVGID_00000023968374351880812760000007546456877965485241_" x="-1368.5" y="-126.9" width="2342.5" height="873.8"/>
		</defs>
		<clipPath id="SVGID_00000172417390082305377310000002716540994152482751_">
			<use xlink:href="#SVGID_00000023968374351880812760000007546456877965485241_"  style="overflow:visible;"/>
		</clipPath>
		<path style="clip-path:url(#SVGID_00000172417390082305377310000002716540994152482751_);fill:#0059AB;" d="M470.5,276.3
			c-10.5,3.4-20.6,6.5-31.2,9.9c-0.7,0.2-1.3,0.5-3.3-0.4l-2.6,1.7c4.8,3.5,7.9,3.9,8.9,3.9c1.2,0,2.2-0.5,3.3-0.9
			c7-3.1,14-6.2,20.9-9.4c0.6-0.3,1.2-0.3,1.9-0.1c1.6,0.3,3.1,0.6,4.7,1L470.5,276.3z"/>
	</g>
	<g>
		<defs>
			<rect id="SVGID_00000165221614025603656970000001372569729833304246_" x="-1368.5" y="-126.9" width="2342.5" height="873.8"/>
		</defs>
		<clipPath id="SVGID_00000005253152120879199220000010572302101952285598_">
			<use xlink:href="#SVGID_00000165221614025603656970000001372569729833304246_"  style="overflow:visible;"/>
		</clipPath>
		<path style="clip-path:url(#SVGID_00000005253152120879199220000010572302101952285598_);fill:#0059AB;" d="M366.5,348.8l2.5-0.9
			c0,0,2.3,1.6,2.9,2.1l-0.7,0.6c0.6,0.8,3,4.1,3.2,4.4c0,0-30.9,0.1-30.9,0c3-4.7,4.3-8.7,3-18.1c0,0-6.5-4.9-8-6.5
			c-1.3-1.4-1.3-3-0.2-4.5c1-1.4,3.7-4.9,3.7-4.9s-4.2-13.8-10.8-23.7c-1.5-2.2-6.4-10.6-6.3-15.1c0-1.5,1.1-4.2,6.4-5.3
			c-0.8,2.5-0.6,4.2-0.5,6c0.9,15.5,16.5,29.4,17,29.9c0,0-3.6,7-5.2,9.9c-0.4,0.7-0.8,1.4-1.3,2c-0.3,0.4-0.6,0.7-0.9,1.1
			c-1.1,1.3-1.3,3,0,4.1C345.1,334,364.5,347.3,366.5,348.8 M487.3,289.1c-2.3-4.3-5.1-9.5-7.4-13.8c-0.3-0.5-0.4-1-0.3-1.7
			s0.2-1.4,0-2.1c-0.6-2.5-2.4-4.5-4.6-5.7c-1.4-0.8-2.9-0.9-4.5-0.5c-0.6,0.2-1.6,0.3-2.3,0.3c-5,0.2-18.9,1-21.6,0.9
			c-1,0-2.3,0-2.3,0s5.9-0.7,7.6-1.1c0.7-0.2,0.7-0.3,0.6-1c-0.1-1-0.2-1.9-0.3-2.9c-0.5-3.1-1.5-9.6-7.7-15.4
			c-0.6-0.5-1.7-0.4-1.7-0.4c-3-6.8-12.8-30.3-12.9-30.5c0,0,11.1,22.1,14.3,28.8c0.5,1.1,1,2.2,2.9,1.5c0.9,1.6,2.8,2.9,3.9,2.8
			c1.9-0.1,3.7-0.6,5-2.2c2.3-2.8,2.4-6.4,0.8-9.3c-0.3-0.6-0.7-1.3-0.7-2c-0.2-3.3-0.3-6.6-0.4-9.8c0-0.6,0.1-1.1,0.6-1.6
			c0.4-0.5,2-2.2,1.8-4.8c-0.4-4.3-3.9-7.8-4.5-8.6c1.1-0.5,4.1-2.3,5.7-7.5c-0.4,0.1-10.5,3.5-10.5,3.5s-3.1-2.9-4.4-4
			c-3.9-3.2-8.5-4.7-13.5-5c-4.1-0.3-8,0.3-11.8,2c-4.2,1.8-7.7,4.6-10.4,8.4c-1.9,2.1-8.1,16.8-10.4,20.2c0,0-1.2-0.3-2.2-0.6
			c-1.4-0.4-1.8-1.7-2.3-3l4.1,0.8c0.1-0.3,5.4-11.5,7.4-15.5c0,0-3.7-10.3-5.5-14.9c-0.6-1.5-0.7-1.4-0.7-1.9
			c0-0.2,0.4-3.1,0.4-3.3c0-0.8-0.1-1.5-0.6-2.1c-0.9-1.2-1.7-2.5-2.5-3.8s-0.8-1.3-2.2-0.8l-5.1-26c0,0-0.5,0.8-1.5,1.6
			c-0.7,0.6-1.4,1-1.4,1l4.7,24.1c-1.2,0-2,0.9-1.6,1.8c0.2,0.4,0.8,1,1,1.3c0.1,0.2-0.2,0.7-0.3,0.9c-0.3,0.7,0,1.1,0.2,1.8
			c0.3,0.9,0.6,1.8,0.9,2.8c0.3,0.9,0.4,1.5,1.5,2.2c0.5,0.3,0.7,0.8,0.8,1.4c0.6,3.2,2.2,11.6,2.4,12.7c0,0-6.3-3.6-9-5.1
			c0,0-1.3-13-1.8-18.5c0,0-3.9-4.8-11.6-2.9c-6.2,1.5-9.1,7.7-9.1,7.7s0.9,1.8,1.3,2.3c0.5,0.7,0.5,1.1,0.2,1.8
			c-1.4,3.6-2.8,7.3-4.3,11.2c-1,2.7-1.5,5.1-1.4,7.9c0.1,1.8,0.3,4.2,0.6,6c0.7,5.3,4.1,13.1,4.1,13.1l-1.2,0.5
			c0.2,0.6,0.7,2.3,1,2.9c0.2,0.6,0.2,1.1-0.1,1.7c-1.3,3.2-1,6.5,0.2,9.7c3.2,8.6,14.4,12.2,14.9,12.4c-3.3-0.8-9.7-2.9-13.2-6.4
			c0,0-15.9,4.2-25,9.3c-2.2,1.2-5.1,4-6.7,6c0,0-5.9-0.3-11.5-0.4c-4.8-0.1-9.4,0-10,0c-4.6,0-11.9,4.1-12.9,14
			c-0.5,4.7-0.9,9.1,3.8,18.3c3.2,6.3,14.3,17.5,19,23.8c12.6,16.6,9.1,31.5,9.1,31.5h-6.4c-0.5,0-0.9,0.3-1.1,0.7l-4.9,10.1h137
			c-0.3-0.8-1.4-6.1-1.7-6.8c-0.2-0.5-0.5-0.7-1.1-0.7c-3.5,0-46.3,0-46.3,0c-0.2-0.2-2.8-3.1-4.6-4.4c-7.5-5.3-15.2-10.1-22.8-15.1
			c-1.7-1.1-2.2-2.9-3-4.5c0,0,1.7-31.3,1.7-32.3c-0.2,0.2-12.6,14.9-18.3,21.6c0,0,2.1,7.2,2.9,9.9c0,0,13.7,8.9,18.6,11.9
			c0,0,3.4,4.8,5,7.3l4.8,3.6l2.8-0.5l2.2,2.2c-3.6-0.8-7.6-1.6-10.9-2.3c1.7-0.9-1.4-3.9-4.9-9.2c0,0-25.8-16.5-26.1-16.8
			c-0.6-0.6-0.7-1.2-0.2-1.9c0.2-0.3,20.1-23.7,23.1-27.2c0.9-1.1,1.6-2.4,1.6-3.8c0.1-1.3,0-2.4-0.4-3.6c-0.2-0.6-0.9-1.5-1.4-2
			c-3.3-3-12.1-11.1-12.3-11.3c0.3,0.2,10.1,7.5,13.7,10.2c0.7,0.6,1.4,1.3,1.7,2.2c0.7,1.6,0.9,3.2,0.6,4.9
			c-0.2,1.1-0.5,2.4-1.4,3.6c1,0,13.2,0.1,28.8-5c14.7-4,26.1-11,26.1-11s-7.2-9.4-7.8-10.5c0.7,0.7,7.6,7.9,9.2,9.7
			c0.9,0.9,1.9,1.1,3.1,0.7c0.2-0.1,31.9-10.1,31.9-10.1s5.2,10.8,5.8,12c0.2,0.4,0.3,0.7,0,1.4c-0.8,2.2,0.3,4.7,3.1,5.1l0.4,2.7
			c-0.9,0.4-1.9,2.6-2.4,3.9c-0.7,2.1-0.1,4,1.3,5.5c1.9,2,4.2,3.4,6.8,4.3c1.7,0.6,2,0.2,2,0.2
			C488.1,303.7,487.3,289.1,487.3,289.1"/>
	</g>
	<g>
		<defs>
			<rect id="SVGID_00000116217924195995576570000000140613489928372381_" x="-1368.5" y="-126.9" width="2342.5" height="873.8"/>
		</defs>
		<clipPath id="SVGID_00000063625454177398302310000009349359767298563204_">
			<use xlink:href="#SVGID_00000116217924195995576570000000140613489928372381_"  style="overflow:visible;"/>
		</clipPath>
		<path style="clip-path:url(#SVGID_00000063625454177398302310000009349359767298563204_);fill:#0059AB;" d="M386.4,141.2
			c0.6-0.6,0.9-1.4,0.9-2.3c0-1.4-0.9-2.6-2.1-3.1c0.3-0.8,1.3-3.1,1.8-4.1c0.2-0.5,0.2-0.9-0.1-1.4c-1.7-2.8-7.7-12.2-7.7-12.2
			s-1,10.3-1.4,14.9c-0.1,0.6,0.2,1,0.6,1.4c0.7,0.5,2.4,1.9,3.1,2.5c-0.5,0.6-0.8,1.3-0.8,2.1c0,1.4,0.9,2.6,2.1,3.1
			c-6.1,1.3-4.2,6.5-5.9,10c-1.6,3.1-8.3,7.1-8.3,7.1s4.4,3,12.6,0c3.9-1.5,8.4-3.6,8.8-10.6C390.3,143.9,388.6,141.3,386.4,141.2"
			/>
	</g>
	<g>
		<defs>
			<rect id="SVGID_00000070120664922505844290000004767654800290853009_" x="-1368.5" y="-126.9" width="2342.5" height="873.8"/>
		</defs>
		<clipPath id="SVGID_00000171682960710461083200000016470067763471221671_">
			<use xlink:href="#SVGID_00000070120664922505844290000004767654800290853009_"  style="overflow:visible;"/>
		</clipPath>
		<path style="clip-path:url(#SVGID_00000171682960710461083200000016470067763471221671_);fill:#0059AB;" d="M129.2,467.5v-25.6
			h8.5h0.1c4,0,7.4,1.2,9.8,3.4c2.4,2.2,3.7,5.5,3.8,9.4c0,7.9-5.1,12.8-13.5,12.9L129.2,467.5z M155.6,438.6
			c-4.4-3.9-10.4-5.9-17.4-5.9l-19.4,0.1V476v0.4l19.6-0.1c7,0,13-2.1,17.3-6c4.4-4,6.6-9.5,6.6-15.9
			C162.3,448,160,442.5,155.6,438.6"/>
	</g>
</g>
<polygon style="fill:#0059AB;" points="237.3,448.8 237.4,448.7 237.4,442.3 211.2,442.3 208,450.7 224,450.7 207.9,470.1 
	207.9,476.5 235.1,476.5 238.3,468.2 221.3,468.2 "/>
<g>
	<g>
		<defs>
			<rect id="SVGID_00000072279283065938661430000012562015914606134404_" x="-1368.5" y="-126.9" width="2342.5" height="873.8"/>
		</defs>
		<clipPath id="SVGID_00000108992539545904301190000015594753746559266959_">
			<use xlink:href="#SVGID_00000072279283065938661430000012562015914606134404_"  style="overflow:visible;"/>
		</clipPath>
		<path style="clip-path:url(#SVGID_00000108992539545904301190000015594753746559266959_);fill:#0059AB;" d="M266.4,464
			c-1.6,2.9-3.9,4.3-7,4.3h-0.1c-4.9,0-8.1-3.5-8.2-8.6c0-2.6,0.8-4.8,2.3-6.4c1.4-1.5,3.5-2.3,5.8-2.3l0,0c3,0,5.4,1.5,7,4.3
			l0.2,0.4l8.1-4.4l-0.2-0.4c-2.4-5.4-7.9-8.6-15.1-8.6h-0.1c-5.3,0-10.1,1.8-13.5,4.9c-3.4,3.2-5.3,7.6-5.2,12.5
			c0.1,10,7.9,17.3,18.8,17.3h0.1c7,0,12.7-3.3,15.1-8.7l0.2-0.4l-8.2-4.4V464z"/>
	</g>
	<g>
		<defs>
			<rect id="SVGID_00000056397316042059062990000002984400388587552157_" x="-1368.5" y="-126.9" width="2342.5" height="873.8"/>
		</defs>
		<clipPath id="SVGID_00000077304895767159525440000010373298135582207672_">
			<use xlink:href="#SVGID_00000056397316042059062990000002984400388587552157_"  style="overflow:visible;"/>
		</clipPath>
		<path style="clip-path:url(#SVGID_00000077304895767159525440000010373298135582207672_);fill:#0059AB;" d="M346,441.2l9.4-0.1
			h0.1c4.6,0,6.9,1.5,6.9,4.5c0,3.1-2.3,4.6-7,4.7l-9.4,0.1V441.2z M345.9,468.1v-9.7l11.2-0.1h0.1c4.9,0,7.3,1.6,7.3,4.8
			c0,3.3-2.3,4.8-7.4,4.8L345.9,468.1z M368.2,453.6c3.2-2.1,5-5.4,5-9.3c0-3.5-1.5-6.4-4.3-8.4c-2.9-2.1-7.1-3.1-12.4-3.1
			l-21.3,0.1v43.7l22.7-0.1c11.3-0.1,17.5-4.4,17.5-12.2C375.5,459.2,372.8,455.4,368.2,453.6"/>
	</g>
</g>
<polygon style="fill:#0059AB;" points="420.8,434.3 420.8,476.5 431.2,476.5 431.2,429.6 "/>
<g>
	<g>
		<defs>
			<rect id="SVGID_00000126319363999907650220000007643580361013612212_" x="-1368.5" y="-126.9" width="2342.5" height="873.8"/>
		</defs>
		<clipPath id="SVGID_00000111877160688738921750000002585365397928649115_">
			<use xlink:href="#SVGID_00000126319363999907650220000007643580361013612212_"  style="overflow:visible;"/>
		</clipPath>
		<path style="clip-path:url(#SVGID_00000111877160688738921750000002585365397928649115_);fill:#0059AB;" d="M493.6,451
			c4.7,0,7.9,3.5,7.9,8.6c0,2.6-0.8,4.8-2.3,6.4c-1.4,1.5-3.4,2.3-5.6,2.3h-0.1c-4.8,0-8-3.5-8-8.6c0-2.6,0.8-4.8,2.3-6.4
			C489.3,451.9,491.3,451.1,493.6,451L493.6,451z M501.3,434.3v11.3c-2.3-2.1-5.5-3.3-9.3-3.3h-0.1c-9.9,0.1-16.9,7.2-16.8,17.5
			c0.1,10.2,7,17.3,16.9,17.3h0.1c4.1,0,7.4-1.2,9.8-3.6v3.1h9.8v-46.9L501.3,434.3z"/>
	</g>
</g>
<polygon style="fill:#0059AB;" points="519.8,449.9 519.8,476.5 530.2,476.5 530.2,445.3 "/>
<polygon style="fill:#0059AB;" points="530.2,436.6 519.8,436.6 519.8,446.1 530.2,441.4 "/>
<g>
	<g>
		<defs>
			<rect id="SVGID_00000099642347541637371100000012342675157021855877_" x="-1368.5" y="-126.9" width="2342.5" height="873.8"/>
		</defs>
		<clipPath id="SVGID_00000122709451070337568710000011637325346515963310_">
			<use xlink:href="#SVGID_00000099642347541637371100000012342675157021855877_"  style="overflow:visible;"/>
		</clipPath>
		<path style="clip-path:url(#SVGID_00000122709451070337568710000011637325346515963310_);fill:#0059AB;" d="M191.8,455.5v4
			c0,5.3-2.4,8.4-7,8.4h-0.1c-4.1,0-6.3-2.4-6.3-7.5v-9.3l-10.4,4.6v6.2c0,5,1.5,8.9,4.2,11.5c2.5,2.4,6.1,3.7,10.3,3.7h0.1
			c3.8,0,7.2-1.4,9.7-3.8v3.3h9.7V451L191.8,455.5z"/>
	</g>
</g>
<polygon style="fill:#0059AB;" points="178.4,442.4 168,442.4 168,451.8 178.4,447.2 "/>
<polygon style="fill:#0059AB;" points="202.2,442.4 191.8,442.4 191.8,451.8 202.2,447.2 "/>
<g>
	<g>
		<defs>
			<rect id="SVGID_00000173864542186162405200000012891424054253722764_" x="-1368.5" y="-126.9" width="2342.5" height="873.8"/>
		</defs>
		<clipPath id="SVGID_00000017486065260108958750000015443942910021709200_">
			<use xlink:href="#SVGID_00000173864542186162405200000012891424054253722764_"  style="overflow:visible;"/>
		</clipPath>
		<path style="clip-path:url(#SVGID_00000017486065260108958750000015443942910021709200_);fill:#0059AB;" d="M564.1,442.4
			l-8.9,21.7l-9.1-21.7h-10.4L550,476v0.1c-1.2,2.8-2.5,3.8-4.9,3.9l0,0c-1.8,0-3.7-0.7-5.1-1.9l-0.4-0.4l-3.9,7.6l0.3,0.2
			c2.1,1.9,5.8,3.1,9.4,3.1h0.1c6.8,0,11.1-3.3,14-10.7l14.9-35.6h-10.3V442.4z"/>
	</g>
	<g>
		<defs>
			<rect id="SVGID_00000093885579573979457240000010413366551950695832_" x="-1368.5" y="-126.9" width="2342.5" height="873.8"/>
		</defs>
		<clipPath id="SVGID_00000152955602332760558270000009352491305811648957_">
			<use xlink:href="#SVGID_00000093885579573979457240000010413366551950695832_"  style="overflow:visible;"/>
		</clipPath>
		<path style="clip-path:url(#SVGID_00000152955602332760558270000009352491305811648957_);fill:#0059AB;" d="M628.9,455.8
			c-3.5-0.5-6.5-1-6.5-2.8c0-1.6,2.1-2.6,5.7-2.6c3.4,0,6.4,0.7,9.3,2.3l0.4,0.2l3.5-7.6l-0.4-0.2c-3-1.7-8-2.9-12.7-2.9H628
			c-4.7,0-8.7,1.1-11.5,3.1c-2.7,2-4.2,4.8-4.2,8c0,8.4,7.9,9.5,13.6,10.3c3.4,0.5,6.3,0.9,6.3,2.6c0,0.6,0,2.5-5.6,2.6
			c-3.9,0-8.3-1.2-11.2-3l-0.4-0.3l-3.5,7.7l0.3,0.2c3.3,2.1,9,3.5,14.4,3.5h0.2c9.7-0.1,16-4.4,15.9-11
			C642.2,457.8,634.5,456.7,628.9,455.8"/>
	</g>
</g>
<polygon style="fill:#0059AB;" points="647.5,449.9 647.5,476.5 657.9,476.5 657.9,445.3 "/>
<polygon style="fill:#0059AB;" points="657.9,436.6 647.5,436.6 647.5,446.1 657.9,441.4 "/>
<g>
	<path style="fill:#0059AB;" d="M404.1,452.8l-14.5,6.2c0-1.6,0.4-5.8,5.6-7.9C400.7,448.8,403.3,451.7,404.1,452.8 M401.3,442.7
		L401.3,442.7c-10.7-2-18.3,4.7-20.3,12.4c-2.1,8,1.7,17.7,12.8,20.9c0.8,0.2,1.6,0.4,2.4,0.6c9.5,1.8,14.3-2.6,14.5-2.8l0.3-0.2
		l-4.3-6.9l-0.5,0.3c-1.5,0.9-4.1,2.4-8.1,1.5c-2.9-0.6-4.4-1.7-5.1-2.2l22-9.8l0.3-0.1v-0.3C414.8,452.2,411.3,444.6,401.3,442.7"
		/>
	<path style="fill:#0059AB;" d="M460.4,452.8l-14.5,6.2c0-1.6,0.4-5.8,5.6-7.9C457,448.8,459.7,451.7,460.4,452.8 M457.7,442.7
		C457.6,442.7,457.6,442.7,457.7,442.7c-10.7-2-18.3,4.7-20.3,12.4c-2.1,8,1.7,17.7,12.8,20.9c0.8,0.2,1.6,0.4,2.4,0.6
		c9.5,1.8,14.3-2.6,14.5-2.8l0.3-0.2l-4.3-6.9l-0.5,0.3c-1.5,0.9-4.1,2.4-8.1,1.5c-2.9-0.6-4.4-1.7-5.1-2.2l22-9.8l0.3-0.1v-0.3
		C471.1,452.2,467.6,444.6,457.7,442.7"/>
	<path style="fill:#0059AB;" d="M596.8,452.8l-14.5,6.2c0-1.6,0.4-5.8,5.6-7.9C593.4,448.8,596.1,451.7,596.8,452.8 M594.1,442.7
		C594,442.7,594,442.7,594.1,442.7c-10.7-2-18.3,4.7-20.3,12.4c-2.1,8,1.7,17.7,12.8,20.9c0.8,0.2,1.6,0.4,2.4,0.6
		c9.5,1.8,14.3-2.6,14.5-2.8l0.3-0.2l-4.3-6.9L599,467c-1.5,0.9-4.1,2.4-8.1,1.5c-2.9-0.6-4.4-1.7-5.1-2.2l22-9.8l0.3-0.1v-0.3
		C607.5,452.2,604.1,444.6,594.1,442.7"/>
	<path style="fill:#0059AB;" d="M300.3,452.8l-14.5,6.2c0-1.6,0.4-5.8,5.6-7.9C296.9,448.8,299.5,451.7,300.3,452.8 M297.5,442.7
		L297.5,442.7c-10.7-2-18.3,4.7-20.3,12.4c-2.1,8,1.7,17.7,12.8,20.9c0.8,0.2,1.6,0.4,2.4,0.6c9.5,1.8,14.3-2.6,14.5-2.8l0.3-0.2
		l-4.3-6.9l-0.5,0.3c-1.5,0.9-4.1,2.4-8.1,1.5c-2.9-0.6-4.4-1.7-5.1-2.2l22-9.8l0.3-0.1v-0.3C311,452.2,307.5,444.6,297.5,442.7"/>
</g>
<polygon style="fill:#0059AB;" points="431.3,373.3 431.3,408.8 421.2,408.8 421.2,384 414.4,389 414.4,378.2 421.1,373.3 "/>
<g>
	<path style="fill:#0059AB;" d="M399.4,402.2c-3.2,0-5.3-1.6-5.4-4.4c0-2.7,2.1-4.4,5.3-4.5c3.2,0,5.3,1.7,5.4,4.4
		C404.7,400.5,402.6,402.2,399.4,402.2 M374.9,408.3h-0.1c-8.7,0-14.4-4-14.4-10.2c0-3.2,1.5-5.7,4.6-7.5l1.3-0.8l-1.2-0.9
		c-2.2-1.6-3.4-3.8-3.4-6.4c0-5.6,5.3-9.4,13.2-9.5h0.1c5.4,0,9.5,1.8,11.6,4.7c-0.9,1.4-1.4,3-1.4,4.9c0,1.7,0.5,3.2,1.3,4.5
		c-0.5,0.6-1.1,1.2-1.8,1.7l-1.2,0.9l1.3,0.7c0.7,0.4,1.3,0.8,1.8,1.2c-1.6,1.7-2.6,3.8-2.6,6.4c0,2.5,0.9,4.7,2.5,6.5
		c-0.3,0.2-0.6,0.5-0.9,0.7C382.9,407.3,379.2,408.3,374.9,408.3 M387.2,391.2c-0.6-0.5-1.3-1-2-1.4c0.7-0.5,1.3-1.1,1.8-1.7
		c0.6,0.7,1.2,1.3,2,1.8C388.3,390.3,387.7,390.7,387.2,391.2 M399.3,379.4c2.5,0,4.3,1.3,4.3,3.7c0,2.3-1.7,3.7-4.3,3.7
		c-2.5,0-4.2-1.3-4.2-3.7C395.1,380.7,396.8,379.4,399.3,379.4 M409.7,389.8c2.4-1.7,3.8-4.1,3.8-7.2c0-6.3-5.9-10.3-14.2-10.3
		c-5.5,0-9.8,1.8-12.2,4.8c-2.3-3-6.7-4.8-12.2-4.8h-0.1c-2.5,0-4.7,0.4-6.7,1.1c0,0,0.1,0,0.1-0.1h-16l-6.7,5V389l6.8-5v24.9h17.9
		c1.4,0.3,3,0.4,4.7,0.4c0.1,0,0.1,0,0.2,0c5.2,0,9.5-1.4,12.2-3.9c2.7,2.5,7.1,4,12.4,3.9c9.2,0,15.4-4.5,15.4-11.3
		C414.8,394.4,412.9,391.6,409.7,389.8"/>
	<path style="fill:#0059AB;" d="M380.2,397.8c0-2.7-2.2-4.4-5.4-4.4s-5.3,1.7-5.3,4.5c0,2.7,2.2,4.4,5.4,4.4
		C378.1,402.2,380.2,400.5,380.2,397.8"/>
	<path style="fill:#0059AB;" d="M370.5,383.1c0,2.3,1.7,3.7,4.2,3.7s4.3-1.4,4.2-3.7c0-2.4-1.8-3.8-4.3-3.7
		C372.3,379.4,370.5,380.8,370.5,383.1"/>
</g>
</svg>
